<?xml version="1.0" encoding="utf-8"?>
<!-- Generator: Adobe Illustrator 17.1.0, SVG Export Plug-In . SVG Version: 6.00 Build 0)  -->
<!DOCTYPE svg PUBLIC "-//W3C//DTD SVG 1.1//EN" "http://www.w3.org/Graphics/SVG/1.1/DTD/svg11.dtd">
<svg version="1.1" id="图层_1" xmlns="http://www.w3.org/2000/svg" xmlns:xlink="http://www.w3.org/1999/xlink" x="0px" y="0px"
	 viewBox="0 0 748 322" enable-background="new 0 0 748 322" xml:space="preserve">
<polyline fill="none" stroke="#211816" stroke-width="0.25" points="26.4,58.7 26.4,48.1 43.4,48.1 43.4,58.3 "/>
<polyline fill="none" stroke="#211816" stroke-width="0.25" points="20.2,82 9.6,82 9.6,65 20.2,65 "/>
<g>
	<line fill="none" stroke="#211816" stroke-width="0.25" x1="26.4" y1="65" x2="26.4" y2="286.1"/>
	<line fill="none" stroke="#211816" stroke-width="0.25" x1="43.4" y1="65" x2="43.4" y2="286.1"/>
	<line fill="none" stroke="#211816" stroke-width="0.25" x1="60.4" y1="65" x2="60.4" y2="286.1"/>
	<line fill="none" stroke="#211816" stroke-width="0.25" x1="179.5" y1="65" x2="179.5" y2="286.1"/>
	<line fill="none" stroke="#211816" stroke-width="0.25" x1="162.5" y1="65" x2="162.5" y2="286.1"/>
	<line fill="none" stroke="#211816" stroke-width="0.25" x1="77.4" y1="65" x2="77.4" y2="286.1"/>
	<line fill="none" stroke="#211816" stroke-width="0.25" x1="94.5" y1="65" x2="94.5" y2="286.1"/>
	<line fill="none" stroke="#211816" stroke-width="0.25" x1="111.5" y1="65" x2="111.5" y2="286.1"/>
	<line fill="none" stroke="#211816" stroke-width="0.25" x1="128.5" y1="65" x2="128.5" y2="286.1"/>
	<line fill="none" stroke="#211816" stroke-width="0.25" x1="196.5" y1="65" x2="196.5" y2="286.1"/>
	<line fill="none" stroke="#211816" stroke-width="0.25" x1="145.5" y1="65" x2="145.5" y2="286.1"/>
	<line fill="none" stroke="#211816" stroke-width="0.25" x1="213.5" y1="65" x2="213.5" y2="286.1"/>
	<line fill="none" stroke="#211816" stroke-width="0.25" x1="230.5" y1="65" x2="230.5" y2="286.1"/>
	<line fill="none" stroke="#211816" stroke-width="0.25" x1="247.5" y1="65" x2="247.5" y2="286.1"/>
	<line fill="none" stroke="#211816" stroke-width="0.25" x1="366.6" y1="65" x2="366.6" y2="286.1"/>
	<line fill="none" stroke="#211816" stroke-width="0.25" x1="349.6" y1="65" x2="349.6" y2="286.1"/>
	<line fill="none" stroke="#211816" stroke-width="0.25" x1="264.5" y1="65" x2="264.5" y2="286.1"/>
	<line fill="none" stroke="#211816" stroke-width="0.25" x1="281.5" y1="65" x2="281.5" y2="286.1"/>
	<line fill="none" stroke="#211816" stroke-width="0.25" x1="298.6" y1="65" x2="298.6" y2="286.1"/>
	<line fill="none" stroke="#211816" stroke-width="0.25" x1="315.6" y1="65" x2="315.6" y2="286.1"/>
	<line fill="none" stroke="#211816" stroke-width="0.25" x1="383.6" y1="65" x2="383.6" y2="286.1"/>
	<line fill="none" stroke="#211816" stroke-width="0.25" x1="332.6" y1="65" x2="332.6" y2="286.1"/>
	<line fill="none" stroke="#211816" stroke-width="0.25" x1="400.6" y1="65" x2="400.6" y2="286.1"/>
	<line fill="none" stroke="#211816" stroke-width="0.25" x1="417.6" y1="65" x2="417.6" y2="286.1"/>
	<line fill="none" stroke="#211816" stroke-width="0.25" x1="434.6" y1="65" x2="434.6" y2="286.1"/>
	<line fill="none" stroke="#211816" stroke-width="0.25" x1="553.7" y1="65" x2="553.7" y2="286.1"/>
	<line fill="none" stroke="#211816" stroke-width="0.25" x1="536.7" y1="65" x2="536.7" y2="286.1"/>
	<line fill="none" stroke="#211816" stroke-width="0.25" x1="451.6" y1="65" x2="451.6" y2="286.1"/>
	<line fill="none" stroke="#211816" stroke-width="0.25" x1="468.6" y1="65" x2="468.6" y2="286.1"/>
	<line fill="none" stroke="#211816" stroke-width="0.25" x1="485.6" y1="65" x2="485.6" y2="286.1"/>
	<line fill="none" stroke="#211816" stroke-width="0.25" x1="502.6" y1="65" x2="502.6" y2="286.1"/>
	<line fill="none" stroke="#211816" stroke-width="0.25" x1="570.7" y1="65" x2="570.7" y2="286.1"/>
	<line fill="none" stroke="#211816" stroke-width="0.25" x1="519.7" y1="65" x2="519.7" y2="286.1"/>
	<line fill="none" stroke="#211816" stroke-width="0.25" x1="655.7" y1="65" x2="655.7" y2="286.1"/>
	<line fill="none" stroke="#211816" stroke-width="0.25" x1="638.7" y1="65" x2="638.7" y2="286.1"/>
	<line fill="none" stroke="#211816" stroke-width="0.25" x1="587.7" y1="65" x2="587.7" y2="286.1"/>
	<line fill="none" stroke="#211816" stroke-width="0.25" x1="604.7" y1="65" x2="604.7" y2="286.1"/>
	<line fill="none" stroke="#211816" stroke-width="0.25" x1="672.7" y1="65" x2="672.7" y2="286.1"/>
	<line fill="none" stroke="#211816" stroke-width="0.25" x1="621.7" y1="65" x2="621.7" y2="286.1"/>
	<line fill="none" stroke="#211816" stroke-width="0.25" x1="689.7" y1="65" x2="689.7" y2="286.1"/>
	<line fill="none" stroke="#211816" stroke-width="0.25" x1="706.7" y1="65" x2="706.7" y2="286.1"/>
</g>
<g>
	<line fill="none" stroke="#211816" stroke-width="0.25" x1="26.4" y1="218.1" x2="706.7" y2="218.1"/>
	<line fill="none" stroke="#211816" stroke-width="0.25" x1="26.4" y1="235.1" x2="706.7" y2="235.1"/>
	<line fill="none" stroke="#211816" stroke-width="0.25" x1="26.4" y1="286.1" x2="706.7" y2="286.1"/>
	<line fill="none" stroke="#211816" stroke-width="0.25" x1="26.4" y1="269.1" x2="706.7" y2="269.1"/>
	<line fill="none" stroke="#211816" stroke-width="0.25" x1="26.4" y1="201.1" x2="706.7" y2="201.1"/>
	<line fill="none" stroke="#211816" stroke-width="0.25" x1="26.4" y1="252.1" x2="706.7" y2="252.1"/>
	<line fill="none" stroke="#211816" stroke-width="0.25" x1="26.4" y1="116" x2="706.7" y2="116"/>
	<line fill="none" stroke="#211816" stroke-width="0.25" x1="26.4" y1="133" x2="706.7" y2="133"/>
	<line fill="none" stroke="#211816" stroke-width="0.25" x1="26.4" y1="184.1" x2="706.7" y2="184.1"/>
	<line fill="none" stroke="#211816" stroke-width="0.25" x1="26.4" y1="167.1" x2="706.7" y2="167.1"/>
	<line fill="none" stroke="#211816" stroke-width="0.25" x1="26.4" y1="99" x2="706.7" y2="99"/>
	<line fill="none" stroke="#211816" stroke-width="0.25" x1="26.4" y1="150" x2="706.7" y2="150"/>
	<line fill="none" stroke="#211816" stroke-width="0.25" x1="26.4" y1="82" x2="706.7" y2="82"/>
	<line fill="none" stroke="#211816" stroke-width="0.25" x1="26.4" y1="65" x2="706.7" y2="65"/>
</g>
<g>
	<path d="M5.5,8.9c-0.3,0-0.5-0.1-0.6-0.2C4.7,8.5,4.7,8.3,4.7,8c-0.3,0.3-0.6,0.6-1,0.7C3.3,8.8,2.9,8.9,2.5,8.9
		c-0.3,0-0.5,0-0.8-0.1C1.4,8.8,1.2,8.7,1,8.5C0.9,8.4,0.7,8.2,0.6,8C0.5,7.8,0.4,7.5,0.4,7.2c0-0.4,0.1-0.6,0.2-0.9
		s0.3-0.4,0.5-0.5s0.4-0.2,0.7-0.3C2,5.4,2.3,5.3,2.5,5.3c0.3-0.1,0.5-0.1,0.8-0.1S3.8,5.1,4,5C4.2,5,4.3,4.9,4.5,4.8
		c0.1-0.1,0.2-0.2,0.2-0.4c0-0.2,0-0.4-0.1-0.5C4.4,3.7,4.3,3.6,4.2,3.5C4,3.4,3.9,3.4,3.7,3.4s-0.3,0-0.5,0c-0.4,0-0.8,0.1-1.1,0.2
		C1.9,3.7,1.7,4.1,1.7,4.5h-1c0-0.4,0.1-0.7,0.2-1c0.1-0.3,0.3-0.5,0.6-0.6C1.7,2.7,2,2.6,2.3,2.5c0.3-0.1,0.6-0.1,1-0.1
		c0.3,0,0.6,0,0.8,0.1c0.3,0,0.5,0.1,0.8,0.2S5.3,3,5.4,3.3c0.1,0.2,0.2,0.5,0.2,0.9v3.2c0,0.2,0,0.4,0,0.5C5.7,8,5.8,8,6,8
		C6,8,6.1,8,6.3,8v0.8C6.1,8.9,5.8,8.9,5.5,8.9z M4.1,5.8c-0.2,0-0.4,0.1-0.7,0.1C3.2,5.9,3,6,2.8,6C2.5,6,2.3,6.1,2.1,6.2
		C2,6.2,1.8,6.4,1.7,6.5C1.6,6.7,1.5,6.9,1.5,7.1c0,0.2,0,0.3,0.1,0.4c0.1,0.1,0.2,0.2,0.3,0.3C2,7.9,2.1,7.9,2.3,8
		c0.1,0,0.3,0,0.5,0C3,8,3.3,8,3.6,7.9C3.8,7.8,4,7.7,4.2,7.5c0.2-0.1,0.3-0.3,0.3-0.5c0.1-0.2,0.1-0.3,0.1-0.5v-1
		C4.5,5.7,4.3,5.7,4.1,5.8z"/>
	<path d="M7,4.9V4.1h6v0.8H7z M13.1,6.6v0.8H7V6.6H13.1z"/>
	<path d="M19.8,5.9v0.9h-1.2v2h-1v-2H14v-1l3.9-5.5h0.8v5.6H19.8z M17.7,1.7L17.7,1.7l-2.9,4.2h2.9V1.7z"/>
	<path d="M22,2.6v0.9h0c0.5-0.7,1.1-1.1,2-1.1c0.4,0,0.7,0.1,1,0.2c0.3,0.2,0.5,0.4,0.7,0.8c0.2-0.3,0.5-0.6,0.8-0.8
		c0.3-0.2,0.7-0.3,1.1-0.3c0.3,0,0.6,0,0.8,0.1c0.3,0.1,0.5,0.2,0.6,0.3c0.2,0.1,0.3,0.3,0.4,0.6c0.1,0.2,0.1,0.5,0.1,0.8v4.5h-1
		V4.7c0-0.2,0-0.4,0-0.5c0-0.2-0.1-0.3-0.2-0.4s-0.2-0.2-0.4-0.3c-0.2-0.1-0.4-0.1-0.6-0.1c-0.5,0-0.9,0.1-1.2,0.4
		c-0.3,0.3-0.4,0.7-0.4,1.2v3.9h-1V4.7c0-0.2,0-0.4-0.1-0.6s-0.1-0.3-0.2-0.4s-0.2-0.2-0.4-0.3c-0.1-0.1-0.3-0.1-0.6-0.1
		c-0.3,0-0.6,0.1-0.8,0.2s-0.4,0.3-0.5,0.4s-0.2,0.3-0.3,0.5c-0.1,0.2-0.1,0.3-0.1,0.5v3.9h-1V2.6H22z"/>
	<path d="M32.3,2.6v0.9h0c0.5-0.7,1.1-1.1,2-1.1c0.4,0,0.7,0.1,1,0.2c0.3,0.2,0.5,0.4,0.7,0.8c0.2-0.3,0.5-0.6,0.8-0.8
		c0.3-0.2,0.7-0.3,1.1-0.3c0.3,0,0.6,0,0.8,0.1c0.3,0.1,0.5,0.2,0.6,0.3c0.2,0.1,0.3,0.3,0.4,0.6C40,3.6,40,3.9,40,4.2v4.5h-1V4.7
		c0-0.2,0-0.4,0-0.5c0-0.2-0.1-0.3-0.2-0.4s-0.2-0.2-0.4-0.3c-0.2-0.1-0.4-0.1-0.6-0.1c-0.5,0-0.9,0.1-1.2,0.4
		c-0.3,0.3-0.4,0.7-0.4,1.2v3.9h-1V4.7c0-0.2,0-0.4-0.1-0.6S35,3.9,34.9,3.7s-0.2-0.2-0.4-0.3c-0.1-0.1-0.3-0.1-0.6-0.1
		c-0.3,0-0.6,0.1-0.8,0.2s-0.4,0.3-0.5,0.4s-0.2,0.3-0.3,0.5c-0.1,0.2-0.1,0.3-0.1,0.5v3.9h-1V2.6H32.3z"/>
</g>
<g>
	<line fill="none" stroke="#D8413C" stroke-width="0.25" x1="77.4" y1="116" x2="77.4" y2="235.1"/>
	<line fill="none" stroke="#D8413C" stroke-width="0.25" x1="86" y1="116" x2="86" y2="235.1"/>
	<line fill="none" stroke="#D8413C" stroke-width="0.25" x1="94.5" y1="116" x2="94.5" y2="235.1"/>
	<line fill="none" stroke="#D8413C" stroke-width="0.25" x1="103" y1="116" x2="103" y2="235.1"/>
	<line fill="none" stroke="#D8413C" stroke-width="0.25" x1="111.5" y1="116" x2="111.5" y2="235.1"/>
	<line fill="none" stroke="#D8413C" stroke-width="0.25" x1="120" y1="116" x2="120" y2="235.1"/>
	<line fill="none" stroke="#D8413C" stroke-width="0.25" x1="128.5" y1="116" x2="128.5" y2="235.1"/>
	<line fill="none" stroke="#D8413C" stroke-width="0.25" x1="137" y1="116" x2="137" y2="235.1"/>
	<line fill="none" stroke="#D8413C" stroke-width="0.25" x1="145.5" y1="116" x2="145.5" y2="235.1"/>
	<line fill="none" stroke="#D8413C" stroke-width="0.25" x1="154" y1="116" x2="154" y2="235.1"/>
	<line fill="none" stroke="#D8413C" stroke-width="0.25" x1="162.5" y1="116" x2="162.5" y2="235.1"/>
	<line fill="none" stroke="#D8413C" stroke-width="0.25" x1="171" y1="116" x2="171" y2="235.1"/>
	<line fill="none" stroke="#D8413C" stroke-width="0.25" x1="179.5" y1="116" x2="179.5" y2="235.1"/>
	<line fill="none" stroke="#D8413C" stroke-width="0.25" x1="188" y1="116" x2="188" y2="235.1"/>
	<line fill="none" stroke="#D8413C" stroke-width="0.25" x1="196.5" y1="116" x2="196.5" y2="235.1"/>
	<line fill="none" stroke="#D8413C" stroke-width="0.25" x1="205" y1="116" x2="205" y2="235.1"/>
	<line fill="none" stroke="#D8413C" stroke-width="0.25" x1="213.5" y1="116" x2="213.5" y2="235.1"/>
	<line fill="none" stroke="#D8413C" stroke-width="0.25" x1="222" y1="116" x2="222" y2="235.1"/>
	<line fill="none" stroke="#D8413C" stroke-width="0.25" x1="230.5" y1="116" x2="230.5" y2="235.1"/>
	<line fill="none" stroke="#D8413C" stroke-width="0.25" x1="239" y1="116" x2="239" y2="235.1"/>
	<line fill="none" stroke="#D8413C" stroke-width="0.25" x1="247.5" y1="116" x2="247.5" y2="235.1"/>
	<line fill="none" stroke="#D8413C" stroke-width="0.25" x1="256" y1="116" x2="256" y2="235.1"/>
	<line fill="none" stroke="#D8413C" stroke-width="0.25" x1="264.5" y1="116" x2="264.5" y2="235.1"/>
	<line fill="none" stroke="#D8413C" stroke-width="0.25" x1="273" y1="116" x2="273" y2="235.1"/>
	<line fill="none" stroke="#D8413C" stroke-width="0.25" x1="281.5" y1="116" x2="281.5" y2="235.1"/>
	<line fill="none" stroke="#D8413C" stroke-width="0.25" x1="290" y1="116" x2="290" y2="235.1"/>
	<line fill="none" stroke="#D8413C" stroke-width="0.25" x1="298.6" y1="116" x2="298.6" y2="235.1"/>
	<line fill="none" stroke="#D8413C" stroke-width="0.25" x1="307.1" y1="116" x2="307.1" y2="235.1"/>
	<line fill="none" stroke="#D8413C" stroke-width="0.25" x1="315.6" y1="116" x2="315.6" y2="235.1"/>
	<line fill="none" stroke="#D8413C" stroke-width="0.25" x1="324.1" y1="116" x2="324.1" y2="235.1"/>
	<line fill="none" stroke="#D8413C" stroke-width="0.25" x1="332.6" y1="116" x2="332.6" y2="235.1"/>
	<line fill="none" stroke="#D8413C" stroke-width="0.25" x1="341.1" y1="116" x2="341.1" y2="235.1"/>
	<line fill="none" stroke="#D8413C" stroke-width="0.25" x1="349.6" y1="116" x2="349.6" y2="235.1"/>
	<line fill="none" stroke="#D8413C" stroke-width="0.25" x1="358.1" y1="116" x2="358.1" y2="235.1"/>
	<line fill="none" stroke="#D8413C" stroke-width="0.25" x1="366.6" y1="116" x2="366.6" y2="235.1"/>
	<line fill="none" stroke="#D8413C" stroke-width="0.25" x1="375.1" y1="116" x2="375.1" y2="235.1"/>
	<line fill="none" stroke="#D8413C" stroke-width="0.25" x1="383.6" y1="116" x2="383.6" y2="235.1"/>
	<line fill="none" stroke="#D8413C" stroke-width="0.25" x1="392.1" y1="116" x2="392.1" y2="235.1"/>
	<line fill="none" stroke="#D8413C" stroke-width="0.25" x1="400.6" y1="116" x2="400.6" y2="235.1"/>
	<line fill="none" stroke="#D8413C" stroke-width="0.25" x1="409.1" y1="116" x2="409.1" y2="235.1"/>
	<line fill="none" stroke="#D8413C" stroke-width="0.25" x1="417.6" y1="116" x2="417.6" y2="235.1"/>
	<line fill="none" stroke="#D8413C" stroke-width="0.25" x1="426.1" y1="116" x2="426.1" y2="235.1"/>
	<line fill="none" stroke="#D8413C" stroke-width="0.25" x1="434.6" y1="116" x2="434.6" y2="235.1"/>
	<line fill="none" stroke="#D8413C" stroke-width="0.25" x1="443.1" y1="116" x2="443.1" y2="235.1"/>
	<line fill="none" stroke="#D8413C" stroke-width="0.25" x1="451.6" y1="116" x2="451.6" y2="235.1"/>
	<line fill="none" stroke="#D8413C" stroke-width="0.25" x1="460.1" y1="116" x2="460.1" y2="235.1"/>
	<line fill="none" stroke="#D8413C" stroke-width="0.25" x1="468.6" y1="116" x2="468.6" y2="235.1"/>
	<line fill="none" stroke="#D8413C" stroke-width="0.25" x1="477.1" y1="116" x2="477.1" y2="235.1"/>
	<line fill="none" stroke="#D8413C" stroke-width="0.25" x1="485.6" y1="116" x2="485.6" y2="235.1"/>
	<line fill="none" stroke="#D8413C" stroke-width="0.25" x1="494.1" y1="116" x2="494.1" y2="235.1"/>
	<line fill="none" stroke="#D8413C" stroke-width="0.25" x1="502.6" y1="116" x2="502.6" y2="235.1"/>
	<line fill="none" stroke="#D8413C" stroke-width="0.25" x1="511.1" y1="116" x2="511.1" y2="235.1"/>
	<line fill="none" stroke="#D8413C" stroke-width="0.25" x1="519.7" y1="116" x2="519.7" y2="235.1"/>
	<line fill="none" stroke="#D8413C" stroke-width="0.25" x1="528.2" y1="116" x2="528.2" y2="235.1"/>
	<line fill="none" stroke="#D8413C" stroke-width="0.25" x1="536.7" y1="116" x2="536.7" y2="235.1"/>
	<line fill="none" stroke="#D8413C" stroke-width="0.25" x1="545.2" y1="116" x2="545.2" y2="235.1"/>
	<line fill="none" stroke="#D8413C" stroke-width="0.25" x1="553.7" y1="116" x2="553.7" y2="235.1"/>
	<line fill="none" stroke="#D8413C" stroke-width="0.25" x1="562.2" y1="116" x2="562.2" y2="235.1"/>
	<line fill="none" stroke="#D8413C" stroke-width="0.25" x1="570.7" y1="116" x2="570.7" y2="235.1"/>
	<line fill="none" stroke="#D8413C" stroke-width="0.25" x1="579.2" y1="116" x2="579.2" y2="235.1"/>
	<line fill="none" stroke="#D8413C" stroke-width="0.25" x1="587.7" y1="116" x2="587.7" y2="235.1"/>
	<line fill="none" stroke="#D8413C" stroke-width="0.25" x1="596.2" y1="116" x2="596.2" y2="235.1"/>
	<line fill="none" stroke="#D8413C" stroke-width="0.25" x1="604.7" y1="116" x2="604.7" y2="235.1"/>
	<line fill="none" stroke="#D8413C" stroke-width="0.25" x1="613.2" y1="116" x2="613.2" y2="235.1"/>
	<line fill="none" stroke="#D8413C" stroke-width="0.25" x1="621.7" y1="116" x2="621.7" y2="235.1"/>
	<line fill="none" stroke="#D8413C" stroke-width="0.25" x1="630.2" y1="116" x2="630.2" y2="235.1"/>
	<line fill="none" stroke="#D8413C" stroke-width="0.25" x1="638.7" y1="116" x2="638.7" y2="235.1"/>
	<line fill="none" stroke="#D8413C" stroke-width="0.25" x1="647.2" y1="116" x2="647.2" y2="235.1"/>
	<line fill="none" stroke="#D8413C" stroke-width="0.25" x1="655.7" y1="116" x2="655.7" y2="235.1"/>
</g>
<g>
	<line fill="none" stroke="#D8413C" stroke-width="0.25" x1="77.4" y1="235.1" x2="655.7" y2="235.1"/>
	<line fill="none" stroke="#D8413C" stroke-width="0.25" x1="77.4" y1="226.6" x2="655.7" y2="226.6"/>
	<line fill="none" stroke="#D8413C" stroke-width="0.25" x1="77.4" y1="218.1" x2="655.7" y2="218.1"/>
	<line fill="none" stroke="#D8413C" stroke-width="0.25" x1="77.4" y1="209.6" x2="655.7" y2="209.6"/>
	<line fill="none" stroke="#D8413C" stroke-width="0.25" x1="77.4" y1="201.1" x2="655.7" y2="201.1"/>
	<line fill="none" stroke="#D8413C" stroke-width="0.25" x1="77.4" y1="192.6" x2="655.7" y2="192.6"/>
	<line fill="none" stroke="#D8413C" stroke-width="0.25" x1="77.4" y1="184.1" x2="655.7" y2="184.1"/>
	<line fill="none" stroke="#D8413C" stroke-width="0.25" x1="77.4" y1="175.6" x2="655.7" y2="175.6"/>
	<line fill="none" stroke="#D8413C" stroke-width="0.25" x1="77.4" y1="167.1" x2="655.7" y2="167.1"/>
	<line fill="none" stroke="#D8413C" stroke-width="0.25" x1="77.4" y1="158.6" x2="655.7" y2="158.6"/>
	<line fill="none" stroke="#D8413C" stroke-width="0.25" x1="77.4" y1="150" x2="655.7" y2="150"/>
	<line fill="none" stroke="#D8413C" stroke-width="0.25" x1="77.4" y1="141.5" x2="655.7" y2="141.5"/>
	<line fill="none" stroke="#D8413C" stroke-width="0.25" x1="77.4" y1="133" x2="655.7" y2="133"/>
	<line fill="none" stroke="#D8413C" stroke-width="0.25" x1="77.4" y1="124.5" x2="655.7" y2="124.5"/>
	<line fill="none" stroke="#D8413C" stroke-width="0.25" x1="77.4" y1="116" x2="655.7" y2="116"/>
</g>
<g>
	<g id="形状_2_copy_3_副本_5_14_">
		<g>
			<path fill-rule="evenodd" clip-rule="evenodd" fill="#FF6600" d="M132.6,129.6c19.6,0,39.2,0,58.9,0c0,29.3,0,59.6,0,86.9
				c0,1.7-2.2,4.3-4.6,4.4c-3.1,0-4.4,0-8.3,0V235c4.5,0,8.4,0,12.8,0c11.3,0,18.9-5.5,18.9-14.9c0-22.5,0-67.4,0-90.5h6.8v-13.6
				h-84.6V129.6z M482.1,217.1c6.3,0,3.9,0,10.2,0c3.6,0,8.7-3.1,8.7-8.8c0-14.9,0-26.6,0-41.6c-2.8,0-5.8,0-8.3,0
				c0-11.4,0-35,0-43.3c0-3.5-3.4-7.3-7.8-7.3h-61.6v13.6h47.5c0,12.3,0,24.8,0,37.1c-11.3,0-13,0-22.9,0c-1.3,0-2.7-1.4-2.7-2.5
				c0-6.2,0-16.2,0-24.4c0-1.9-1.9-4.1-4.9-4.1h-14v32.8c0,6.4,5.5,11.6,11.6,11.6c0,0,24.2,0,44.3,0v12.2h-49
				c-5.4,0-13.8,5.1-13.8,13.7c17,0,44.3-0.4,62.7-0.4C482.1,209.3,482.1,212.9,482.1,217.1z M182.5,196.5c0-15.5,0-37.4,0-58.7h-49
				v74.6c14.3,0.1,32.5,0,32.5,0C178.3,212.5,182.4,205.5,182.5,196.5z M161.6,198.9c-3.5,0-7.4,0-12.4,0v-46.7c5.3,0,11.4,0,16.7,0
				c0,14.1,0,29.9,0,42.2C165.9,197,164.3,198.9,161.6,198.9z M77.4,119.5c0,26.8,0,61.8,0,115.6h18.1c0-33.7,0-70.5,0-105.4
				c4.3,0,9.3,0,13.6,0c0,20.2,0,38.4,0,57.2c0,7.8-6.8,10.5-6.8,10.6v15c12.8,0,24.2-13.1,24.2-25.1c0-21.7,0-49.4,0-71.2
				c-16.4,0-28.9,0-45.2,0C77.3,116,77.4,119.5,77.4,119.5z M642.1,166.7c0-11.4,0-35,0-43.4c0-3.5-3.4-7.3-7.8-7.3h-61.6v13.6
				c15.8,0,31.7,0,47.5,0v37.1c-11.3,0-13.1,0-22.9,0c-1.3,0-2.7-1.4-2.7-2.5c0-6.2,0-16.2,0-24.4c0-1.9-1.9-4-4.9-4
				c-3.9,0-9.5,0-14,0v32.7c0,6.4,5.5,11.6,11.6,11.6c0,0,24.2,0,44.3,0v12.2h-48.4c-5.4,0-14.1,4.8-14.1,13.4c17,0,43.9,0,62.4,0
				v12.6c0,2.1-1.7,3.1-4.1,3.1h-7.2c0,6.1,0,9.5,0,13.5h11c3.3,0,2.6,0.1,6,0.1c9.2,0,13.2-6.6,13.1-11.8c0-17.1,0.1-39.5,0.1-56.6
				C647.6,166.7,644.6,166.7,642.1,166.7z M554.6,212.4c6.6-7.3,10.2-15.8,11-32.2c0-17.8,0-35,0-52.5c0-1.5-1.9-3.4-3.7-3.4
				c-6.9,0-15.7,0-23.2,0v-8.2h-18.1c0,2.8,0,5.5,0,8.2c-1.9,0-4.2,0-6.1,0v13.6h6.1v42.4c0,16.4,5.4,24.6,12.1,32.2
				c-8,5.5-16.1,9-27.2,9c-1.5,0-3.1,0-4.7,0c-17,0-37.6,0.1-55.7,0.1c-17,0-33.4-3.1-39.6-10.6c5.8-7.9,8.9-14.3,10.7-30.7
				c0.1-16.4,0.1-30.4,0-51.4c-0.3-2.3-2.3-4.3-4.3-4.5c-7.1,0-14.3,0-23.2,0v-8.2c-7.4,0-10.2,0-17.7,0v8.2c-2,0-3.5,0-6,0v13.6
				c2.7,0,4.1,0,6,0c0,14,0.1,29.5,0.1,42.3c1.4,16.4,6.6,21.8,12.9,31.4c-9.2,6.4-20.4,9.2-33.4,9.9c-15.6,0-29.5,0-49.1,0
				c0-3.3,0-8.2,0-10.6h49.1v-14.3h-49.1c0-3.4,0-7.1,0-10.5c14.1,0,32.7,0,37,0c0,0,11.9,0,12.1-13.2c0.2-13.8,0-38.5,0-56.9
				c-38.8,0-78.2,0-117.1,0c-1.9,0-3.7,2-3.7,3.5c0,2.8,0,46.2,0,66.6c16.4,0,32.8,0,49.1,0v10.5h-49.1c0,4.4,0,9.6,0,14.3h49
				c0,3.5,0,7.1,0,10.6h-57.4c0,3.9,0,9.1,0,13.5c43.1,0,96.4,0.2,138.2,0c11.3,0,25.3-5.9,35.4-11.7c12.7,9.8,26.7,11.8,49.9,11.7
				c7.1,0,14.9,0,23.5,0c12.1,0,22.9,0,32.4,0c19.5,0,31.8-4.1,43.8-11.2c11,6.6,21.5,10.7,38.6,11.2v0h26v-13.5h-26
				C571.7,220.4,562.2,218.6,554.6,212.4z M278.8,172.6h-30.2v-14.3h30.2V172.6z M278.9,143.9h-30.2v-14.3c10.1,0,20.1,0,30.2,0
				V143.9z M301.6,129.6h30.2v14.3h-30.2V129.6z M301.6,158.2c10.1,0,20.1,0,30.2,0c0,5.7,0,10.2,0,14.3h-30.2
				C301.6,168.8,301.6,162.8,301.6,158.2z M399.2,180.3c-0.7,9.4-2.1,11.7-4.4,17.9c-2.9-5.8-5.2-8.5-6-17.9c0-12.3,0-29.4,0-42.3
				h10.4V180.3z M548.8,180.3c-0.4,8.8-2.4,13-4.8,17.9c-2.9-4.7-5.3-9.6-5.3-17.9c0-13.1,0-28.9,0-42.4h10.1
				C548.8,151.5,548.8,167.1,548.8,180.3z"/>
		</g>
	</g>
</g>
<g>
	<path d="M37,45.1c-0.3,0-0.5-0.1-0.6-0.2c-0.2-0.1-0.2-0.4-0.2-0.7c-0.3,0.3-0.6,0.6-1,0.7c-0.4,0.1-0.8,0.2-1.2,0.2
		c-0.3,0-0.5,0-0.8-0.1c-0.2-0.1-0.5-0.2-0.7-0.3c-0.2-0.1-0.3-0.3-0.4-0.5c-0.1-0.2-0.2-0.5-0.2-0.8c0-0.4,0.1-0.6,0.2-0.9
		s0.3-0.4,0.5-0.5s0.4-0.2,0.7-0.3c0.3-0.1,0.5-0.1,0.8-0.2c0.3-0.1,0.5-0.1,0.8-0.1s0.5-0.1,0.7-0.1c0.2-0.1,0.3-0.1,0.5-0.2
		c0.1-0.1,0.2-0.2,0.2-0.4c0-0.2,0-0.4-0.1-0.5c-0.1-0.1-0.2-0.2-0.3-0.3c-0.1-0.1-0.3-0.1-0.4-0.1s-0.3,0-0.5,0
		c-0.4,0-0.8,0.1-1.1,0.2c-0.3,0.2-0.4,0.5-0.5,0.9h-1c0-0.4,0.1-0.7,0.2-1c0.1-0.3,0.3-0.5,0.6-0.6c0.2-0.2,0.5-0.3,0.8-0.4
		c0.3-0.1,0.6-0.1,1-0.1c0.3,0,0.6,0,0.8,0.1c0.3,0,0.5,0.1,0.8,0.2s0.4,0.3,0.5,0.5c0.1,0.2,0.2,0.5,0.2,0.9v3.2c0,0.2,0,0.4,0,0.5
		c0,0.1,0.1,0.2,0.3,0.2c0.1,0,0.2,0,0.3-0.1V45C37.6,45.1,37.3,45.1,37,45.1z M35.6,42c-0.2,0-0.4,0.1-0.7,0.1
		c-0.2,0-0.5,0.1-0.7,0.1c-0.2,0-0.4,0.1-0.6,0.2c-0.2,0.1-0.3,0.2-0.5,0.3c-0.1,0.1-0.2,0.4-0.2,0.6c0,0.2,0,0.3,0.1,0.4
		c0.1,0.1,0.2,0.2,0.3,0.3c0.1,0.1,0.2,0.1,0.4,0.2c0.1,0,0.3,0,0.5,0c0.3,0,0.6,0,0.9-0.1c0.2-0.1,0.4-0.2,0.6-0.3
		c0.2-0.1,0.3-0.3,0.3-0.5c0.1-0.2,0.1-0.3,0.1-0.5v-1C36,41.9,35.8,42,35.6,42z"/>
</g>
<g>
	<path d="M349.6,315c0,0,0.1,0,0.1,0h0.2c0.2,0,0.4,0,0.6-0.1c0.2-0.1,0.4-0.1,0.5-0.3c0.1-0.1,0.3-0.3,0.4-0.4s0.1-0.4,0.1-0.6
		c0-0.5-0.1-0.8-0.4-1c-0.3-0.2-0.6-0.3-1.1-0.3c-0.3,0-0.5,0.1-0.7,0.2c-0.2,0.1-0.4,0.2-0.5,0.4s-0.2,0.4-0.3,0.6
		c-0.1,0.2-0.1,0.5-0.1,0.7h-1c0-0.4,0.1-0.8,0.2-1.1c0.1-0.3,0.3-0.6,0.5-0.9c0.2-0.2,0.5-0.4,0.8-0.6s0.7-0.2,1.1-0.2
		c0.4,0,0.7,0,1,0.1c0.3,0.1,0.6,0.2,0.8,0.4c0.2,0.2,0.4,0.4,0.5,0.7c0.1,0.3,0.2,0.6,0.2,1c0,0.4-0.1,0.7-0.3,1s-0.5,0.5-0.8,0.7
		v0c0.5,0.1,0.9,0.4,1.2,0.7s0.4,0.8,0.4,1.3c0,0.4-0.1,0.8-0.2,1.1c-0.2,0.3-0.4,0.6-0.6,0.8c-0.3,0.2-0.6,0.4-0.9,0.5
		c-0.4,0.1-0.7,0.2-1.1,0.2c-0.4,0-0.8-0.1-1.2-0.2c-0.4-0.1-0.7-0.3-0.9-0.5s-0.4-0.5-0.6-0.9s-0.2-0.7-0.2-1.2h1
		c0,0.6,0.2,1,0.5,1.3c0.3,0.3,0.7,0.5,1.3,0.5c0.2,0,0.5,0,0.7-0.1c0.2-0.1,0.4-0.2,0.6-0.3c0.2-0.1,0.3-0.3,0.4-0.5
		c0.1-0.2,0.2-0.4,0.2-0.7c0-0.3,0-0.5-0.1-0.7c-0.1-0.2-0.2-0.4-0.4-0.5c-0.2-0.1-0.3-0.2-0.6-0.3c-0.2-0.1-0.5-0.1-0.7-0.1
		c-0.2,0-0.4,0-0.6,0v-0.9C349.5,315,349.6,315,349.6,315z"/>
	<path d="M356.3,315c0,0,0.1,0,0.1,0h0.2c0.2,0,0.4,0,0.6-0.1c0.2-0.1,0.4-0.1,0.5-0.3c0.1-0.1,0.3-0.3,0.4-0.4s0.1-0.4,0.1-0.6
		c0-0.5-0.1-0.8-0.4-1c-0.3-0.2-0.6-0.3-1.1-0.3c-0.3,0-0.5,0.1-0.7,0.2c-0.2,0.1-0.4,0.2-0.5,0.4s-0.2,0.4-0.3,0.6
		c-0.1,0.2-0.1,0.5-0.1,0.7h-1c0-0.4,0.1-0.8,0.2-1.1c0.1-0.3,0.3-0.6,0.5-0.9c0.2-0.2,0.5-0.4,0.8-0.6s0.7-0.2,1.1-0.2
		c0.4,0,0.7,0,1,0.1c0.3,0.1,0.6,0.2,0.8,0.4c0.2,0.2,0.4,0.4,0.5,0.7c0.1,0.3,0.2,0.6,0.2,1c0,0.4-0.1,0.7-0.3,1s-0.5,0.5-0.8,0.7
		v0c0.5,0.1,0.9,0.4,1.2,0.7s0.4,0.8,0.4,1.3c0,0.4-0.1,0.8-0.2,1.1c-0.2,0.3-0.4,0.6-0.6,0.8c-0.3,0.2-0.6,0.4-0.9,0.5
		c-0.4,0.1-0.7,0.2-1.1,0.2c-0.4,0-0.8-0.1-1.2-0.2c-0.4-0.1-0.7-0.3-0.9-0.5s-0.4-0.5-0.6-0.9s-0.2-0.7-0.2-1.2h1
		c0,0.6,0.2,1,0.5,1.3c0.3,0.3,0.7,0.5,1.3,0.5c0.2,0,0.5,0,0.7-0.1c0.2-0.1,0.4-0.2,0.6-0.3c0.2-0.1,0.3-0.3,0.4-0.5
		c0.1-0.2,0.2-0.4,0.2-0.7c0-0.3,0-0.5-0.1-0.7c-0.1-0.2-0.2-0.4-0.4-0.5c-0.2-0.1-0.3-0.2-0.6-0.3c-0.2-0.1-0.5-0.1-0.7-0.1
		c-0.2,0-0.4,0-0.6,0v-0.9C356.2,315,356.3,315,356.3,315z"/>
	<path d="M362.6,318.5v1.3h-1.3v-1.3H362.6z"/>
	<path d="M368.1,312.5c-0.2-0.2-0.6-0.3-1-0.3c-0.4,0-0.8,0.1-1,0.3s-0.5,0.5-0.6,0.8c-0.1,0.3-0.2,0.7-0.3,1.1
		c-0.1,0.4-0.1,0.7-0.1,1.1l0,0c0.2-0.4,0.5-0.7,0.9-0.9c0.4-0.2,0.8-0.3,1.2-0.3c0.4,0,0.8,0.1,1.1,0.2c0.3,0.1,0.6,0.3,0.8,0.6
		s0.4,0.5,0.5,0.9s0.2,0.7,0.2,1.1c0,0.3,0,0.6-0.1,1s-0.3,0.6-0.5,0.9c-0.2,0.3-0.5,0.5-0.9,0.7c-0.4,0.2-0.8,0.3-1.4,0.3
		c-0.6,0-1.1-0.1-1.5-0.4c-0.4-0.3-0.7-0.6-0.9-1c-0.2-0.4-0.3-0.8-0.4-1.3c-0.1-0.5-0.1-0.9-0.1-1.4c0-0.6,0-1.1,0.2-1.7
		c0.1-0.5,0.3-1,0.5-1.5c0.2-0.4,0.6-0.8,1-1c0.4-0.3,0.9-0.4,1.5-0.4c0.7,0,1.3,0.2,1.7,0.6s0.7,0.9,0.7,1.6h-1
		C368.5,313.1,368.3,312.8,368.1,312.5z M366.2,315.4c-0.2,0.1-0.4,0.2-0.6,0.4c-0.2,0.2-0.3,0.4-0.3,0.6c-0.1,0.2-0.1,0.5-0.1,0.8
		c0,0.3,0,0.5,0.1,0.7c0.1,0.2,0.2,0.4,0.3,0.6s0.3,0.3,0.6,0.4c0.2,0.1,0.5,0.2,0.8,0.2c0.3,0,0.5,0,0.7-0.2
		c0.2-0.1,0.4-0.2,0.5-0.4c0.1-0.2,0.3-0.4,0.3-0.6c0.1-0.2,0.1-0.5,0.1-0.7c0-0.3,0-0.5-0.1-0.8c-0.1-0.2-0.2-0.4-0.3-0.6
		c-0.1-0.2-0.3-0.3-0.5-0.4c-0.2-0.1-0.5-0.2-0.8-0.2S366.5,315.3,366.2,315.4z"/>
	<path d="M375.1,313.8c-0.4,0.6-0.7,1.2-1,1.9s-0.5,1.3-0.7,2.1c-0.2,0.7-0.3,1.4-0.3,2.1h-1.1c0-0.7,0.2-1.4,0.4-2.1
		c0.2-0.7,0.4-1.3,0.7-2s0.6-1.2,1-1.8c0.4-0.6,0.8-1.1,1.3-1.5h-4.5v-1h5.5v0.9C375.9,312.7,375.5,313.2,375.1,313.8z"/>
	<path d="M382.5,319.9c-0.3,0-0.5-0.1-0.6-0.2c-0.2-0.1-0.2-0.4-0.2-0.7c-0.3,0.3-0.6,0.6-1,0.7c-0.4,0.1-0.8,0.2-1.2,0.2
		c-0.3,0-0.5,0-0.8-0.1c-0.2-0.1-0.5-0.2-0.7-0.3c-0.2-0.1-0.3-0.3-0.4-0.5c-0.1-0.2-0.2-0.5-0.2-0.8c0-0.4,0.1-0.6,0.2-0.9
		s0.3-0.4,0.5-0.5s0.4-0.2,0.7-0.3s0.5-0.1,0.8-0.2c0.3-0.1,0.5-0.1,0.8-0.1s0.5-0.1,0.7-0.1s0.3-0.1,0.5-0.2
		c0.1-0.1,0.2-0.2,0.2-0.4c0-0.2,0-0.4-0.1-0.5s-0.2-0.2-0.3-0.3c-0.1-0.1-0.3-0.1-0.4-0.1c-0.2,0-0.3,0-0.5,0
		c-0.4,0-0.8,0.1-1.1,0.2s-0.4,0.5-0.5,0.9h-1c0-0.4,0.1-0.7,0.2-1c0.1-0.3,0.3-0.5,0.6-0.6c0.2-0.2,0.5-0.3,0.8-0.4
		c0.3-0.1,0.6-0.1,1-0.1c0.3,0,0.6,0,0.8,0.1c0.3,0,0.5,0.1,0.8,0.2s0.4,0.3,0.5,0.5c0.1,0.2,0.2,0.5,0.2,0.9v3.2c0,0.2,0,0.4,0,0.5
		s0.1,0.2,0.3,0.2c0.1,0,0.2,0,0.3-0.1v0.8C383,319.9,382.8,319.9,382.5,319.9z M381,316.8c-0.2,0-0.4,0.1-0.7,0.1
		c-0.2,0-0.5,0.1-0.7,0.1c-0.2,0-0.4,0.1-0.6,0.2c-0.2,0.1-0.3,0.2-0.5,0.3c-0.1,0.1-0.2,0.4-0.2,0.6c0,0.2,0,0.3,0.1,0.4
		c0.1,0.1,0.2,0.2,0.3,0.3s0.2,0.1,0.4,0.2c0.1,0,0.3,0,0.5,0c0.3,0,0.6,0,0.9-0.1c0.2-0.1,0.4-0.2,0.6-0.3c0.2-0.1,0.3-0.3,0.3-0.5
		s0.1-0.3,0.1-0.5v-1C381.4,316.7,381.2,316.8,381,316.8z"/>
</g>
<g>
	<path d="M5.5,77.3c-0.3,0-0.5-0.1-0.6-0.2c-0.2-0.1-0.2-0.4-0.2-0.7c-0.3,0.3-0.6,0.6-1,0.7c-0.4,0.1-0.8,0.2-1.2,0.2
		c-0.3,0-0.5,0-0.8-0.1C1.4,77.1,1.2,77,1,76.9c-0.2-0.1-0.3-0.3-0.4-0.5c-0.1-0.2-0.2-0.5-0.2-0.8c0-0.4,0.1-0.6,0.2-0.9
		s0.3-0.4,0.5-0.5s0.4-0.2,0.7-0.3c0.3-0.1,0.5-0.1,0.8-0.2c0.3-0.1,0.5-0.1,0.8-0.1s0.5-0.1,0.7-0.1c0.2-0.1,0.3-0.1,0.5-0.2
		c0.1-0.1,0.2-0.2,0.2-0.4c0-0.2,0-0.4-0.1-0.5c-0.1-0.1-0.2-0.2-0.3-0.3c-0.1-0.1-0.3-0.1-0.4-0.1s-0.3,0-0.5,0
		c-0.4,0-0.8,0.1-1.1,0.2c-0.3,0.2-0.4,0.5-0.5,0.9h-1c0-0.4,0.1-0.7,0.2-1c0.1-0.3,0.3-0.5,0.6-0.6C1.7,71.1,2,71,2.3,70.9
		c0.3-0.1,0.6-0.1,1-0.1c0.3,0,0.6,0,0.8,0.1c0.3,0,0.5,0.1,0.8,0.2s0.4,0.3,0.5,0.5c0.1,0.2,0.2,0.5,0.2,0.9v3.2c0,0.2,0,0.4,0,0.5
		c0,0.1,0.1,0.2,0.3,0.2c0.1,0,0.2,0,0.3-0.1v0.8C6.1,77.2,5.8,77.3,5.5,77.3z M4.1,74.1c-0.2,0-0.4,0.1-0.7,0.1
		c-0.2,0-0.5,0.1-0.7,0.1c-0.2,0-0.4,0.1-0.6,0.2c-0.2,0.1-0.3,0.2-0.5,0.3c-0.1,0.1-0.2,0.4-0.2,0.6c0,0.2,0,0.3,0.1,0.4
		c0.1,0.1,0.2,0.2,0.3,0.3c0.1,0.1,0.2,0.1,0.4,0.2c0.1,0,0.3,0,0.5,0c0.3,0,0.6,0,0.9-0.1C3.8,76.1,4,76,4.2,75.9
		c0.2-0.1,0.3-0.3,0.3-0.5c0.1-0.2,0.1-0.3,0.1-0.5v-1C4.5,74,4.3,74.1,4.1,74.1z"/>
</g>
<polyline fill-rule="evenodd" clip-rule="evenodd" fill="none" stroke="#000000" stroke-width="0.25" points="77.4,294 77.4,302.1 
	650.4,302.1 650.4,294 "/>
<polyline fill="none" stroke="#211816" stroke-width="0.25" points="715.7,235 726.4,235 726.4,116 716.3,116 "/>
<g>
	<path d="M738.2,174.4c-0.4,0.6-0.7,1.2-1,1.9s-0.5,1.3-0.7,2.1c-0.2,0.7-0.3,1.4-0.3,2.1H735c0-0.7,0.2-1.4,0.4-2.1
		c0.2-0.7,0.4-1.3,0.7-2c0.3-0.6,0.6-1.2,1-1.8c0.4-0.6,0.8-1.1,1.3-1.5h-4.5v-1h5.5v0.9C739,173.3,738.6,173.8,738.2,174.4z"/>
	<path d="M745.5,180.5c-0.3,0-0.5-0.1-0.6-0.2c-0.2-0.1-0.2-0.4-0.2-0.7c-0.3,0.3-0.6,0.6-1,0.7c-0.4,0.1-0.8,0.2-1.2,0.2
		c-0.3,0-0.5,0-0.8-0.1c-0.2-0.1-0.5-0.2-0.7-0.3c-0.2-0.1-0.3-0.3-0.4-0.5c-0.1-0.2-0.2-0.5-0.2-0.8c0-0.4,0.1-0.6,0.2-0.9
		s0.3-0.4,0.5-0.5s0.4-0.2,0.7-0.3c0.3-0.1,0.5-0.1,0.8-0.2c0.3-0.1,0.5-0.1,0.8-0.1s0.5-0.1,0.7-0.1c0.2-0.1,0.3-0.1,0.5-0.2
		c0.1-0.1,0.2-0.2,0.2-0.4c0-0.2,0-0.4-0.1-0.5c-0.1-0.1-0.2-0.2-0.3-0.3c-0.1-0.1-0.3-0.1-0.4-0.1s-0.3,0-0.5,0
		c-0.4,0-0.8,0.1-1.1,0.2c-0.3,0.2-0.4,0.5-0.5,0.9h-1c0-0.4,0.1-0.7,0.2-1c0.1-0.3,0.3-0.5,0.6-0.6c0.2-0.2,0.5-0.3,0.8-0.4
		c0.3-0.1,0.6-0.1,1-0.1c0.3,0,0.6,0,0.8,0.1c0.3,0,0.5,0.1,0.8,0.2s0.4,0.3,0.5,0.5c0.1,0.2,0.2,0.5,0.2,0.9v3.2c0,0.2,0,0.4,0,0.5
		c0,0.1,0.1,0.2,0.3,0.2c0.1,0,0.2,0,0.3-0.1v0.8C746.1,180.4,745.8,180.5,745.5,180.5z M744.1,177.4c-0.2,0-0.4,0.1-0.7,0.1
		c-0.2,0-0.5,0.1-0.7,0.1c-0.2,0-0.4,0.1-0.6,0.2c-0.2,0.1-0.3,0.2-0.5,0.3c-0.1,0.1-0.2,0.4-0.2,0.6c0,0.2,0,0.3,0.1,0.4
		c0.1,0.1,0.2,0.2,0.3,0.3c0.1,0.1,0.2,0.1,0.4,0.2c0.1,0,0.3,0,0.5,0c0.3,0,0.6,0,0.9-0.1c0.2-0.1,0.4-0.2,0.6-0.3
		c0.2-0.1,0.3-0.3,0.3-0.5c0.1-0.2,0.1-0.3,0.1-0.5v-1C744.5,177.2,744.3,177.3,744.1,177.4z"/>
</g>
</svg>
