<?xml version="1.0" encoding="utf-8"?>
<!-- Generator: Adobe Illustrator 17.1.0, SVG Export Plug-In . SVG Version: 6.00 Build 0)  -->
<!DOCTYPE svg PUBLIC "-//W3C//DTD SVG 1.1//EN" "http://www.w3.org/Graphics/SVG/1.1/DTD/svg11.dtd">
<svg version="1.1" id="图层_1" xmlns="http://www.w3.org/2000/svg" xmlns:xlink="http://www.w3.org/1999/xlink" x="0px" y="0px"
	 viewBox="0 0 763.6 274.5" enable-background="new 0 0 763.6 274.5" xml:space="preserve">
<polyline fill="none" stroke="#211816" stroke-width="0.25" points="26.4,61.1 26.4,50.5 43.4,50.5 43.4,60.6 "/>
<polyline fill="none" stroke="#211816" stroke-width="0.25" points="20.2,84.4 9.6,84.4 9.6,67.4 20.2,67.4 "/>
<g>
	<line fill="none" stroke="#211816" stroke-width="0.25" x1="26.4" y1="67.4" x2="26.4" y2="237.5"/>
	<line fill="none" stroke="#211816" stroke-width="0.25" x1="43.4" y1="67.4" x2="43.4" y2="237.5"/>
	<line fill="none" stroke="#211816" stroke-width="0.25" x1="60.4" y1="67.4" x2="60.4" y2="237.5"/>
	<line fill="none" stroke="#211816" stroke-width="0.25" x1="179.5" y1="67.4" x2="179.5" y2="237.5"/>
	<line fill="none" stroke="#211816" stroke-width="0.25" x1="162.5" y1="67.4" x2="162.5" y2="237.5"/>
	<line fill="none" stroke="#211816" stroke-width="0.25" x1="77.4" y1="67.4" x2="77.4" y2="237.5"/>
	<line fill="none" stroke="#211816" stroke-width="0.25" x1="94.5" y1="67.4" x2="94.5" y2="237.5"/>
	<line fill="none" stroke="#211816" stroke-width="0.25" x1="111.5" y1="67.4" x2="111.5" y2="237.5"/>
	<line fill="none" stroke="#211816" stroke-width="0.25" x1="128.5" y1="67.4" x2="128.5" y2="237.5"/>
	<line fill="none" stroke="#211816" stroke-width="0.25" x1="196.5" y1="67.4" x2="196.5" y2="237.5"/>
	<line fill="none" stroke="#211816" stroke-width="0.25" x1="145.5" y1="67.4" x2="145.5" y2="237.5"/>
	<line fill="none" stroke="#211816" stroke-width="0.25" x1="213.5" y1="67.4" x2="213.5" y2="237.5"/>
	<line fill="none" stroke="#211816" stroke-width="0.25" x1="230.5" y1="67.4" x2="230.5" y2="237.5"/>
	<line fill="none" stroke="#211816" stroke-width="0.25" x1="247.5" y1="67.4" x2="247.5" y2="237.5"/>
	<line fill="none" stroke="#211816" stroke-width="0.25" x1="366.6" y1="67.4" x2="366.6" y2="237.5"/>
	<line fill="none" stroke="#211816" stroke-width="0.25" x1="349.6" y1="67.4" x2="349.6" y2="237.5"/>
	<line fill="none" stroke="#211816" stroke-width="0.25" x1="264.5" y1="67.4" x2="264.5" y2="237.5"/>
	<line fill="none" stroke="#211816" stroke-width="0.25" x1="281.5" y1="67.4" x2="281.5" y2="237.5"/>
	<line fill="none" stroke="#211816" stroke-width="0.25" x1="298.6" y1="67.4" x2="298.6" y2="237.5"/>
	<line fill="none" stroke="#211816" stroke-width="0.25" x1="315.6" y1="67.4" x2="315.6" y2="237.5"/>
	<line fill="none" stroke="#211816" stroke-width="0.25" x1="383.6" y1="67.4" x2="383.6" y2="237.5"/>
	<line fill="none" stroke="#211816" stroke-width="0.25" x1="332.6" y1="67.4" x2="332.6" y2="237.5"/>
	<line fill="none" stroke="#211816" stroke-width="0.25" x1="400.6" y1="67.4" x2="400.6" y2="237.5"/>
	<line fill="none" stroke="#211816" stroke-width="0.25" x1="417.6" y1="67.4" x2="417.6" y2="237.5"/>
	<line fill="none" stroke="#211816" stroke-width="0.25" x1="434.6" y1="67.4" x2="434.6" y2="237.5"/>
	<line fill="none" stroke="#211816" stroke-width="0.25" x1="553.7" y1="67.4" x2="553.7" y2="237.5"/>
	<line fill="none" stroke="#211816" stroke-width="0.25" x1="536.7" y1="67.4" x2="536.7" y2="237.5"/>
	<line fill="none" stroke="#211816" stroke-width="0.25" x1="451.6" y1="67.4" x2="451.6" y2="237.5"/>
	<line fill="none" stroke="#211816" stroke-width="0.25" x1="468.6" y1="67.4" x2="468.6" y2="237.5"/>
	<line fill="none" stroke="#211816" stroke-width="0.25" x1="485.6" y1="67.4" x2="485.6" y2="237.5"/>
	<line fill="none" stroke="#211816" stroke-width="0.25" x1="502.6" y1="67.4" x2="502.6" y2="237.5"/>
	<line fill="none" stroke="#211816" stroke-width="0.25" x1="570.7" y1="67.4" x2="570.7" y2="237.5"/>
	<line fill="none" stroke="#211816" stroke-width="0.25" x1="519.7" y1="67.4" x2="519.7" y2="237.5"/>
	<line fill="none" stroke="#211816" stroke-width="0.25" x1="655.7" y1="67.4" x2="655.7" y2="237.5"/>
	<line fill="none" stroke="#211816" stroke-width="0.25" x1="638.7" y1="67.4" x2="638.7" y2="237.5"/>
	<line fill="none" stroke="#211816" stroke-width="0.25" x1="587.7" y1="67.4" x2="587.7" y2="237.5"/>
	<line fill="none" stroke="#211816" stroke-width="0.25" x1="604.7" y1="67.4" x2="604.7" y2="237.5"/>
	<line fill="none" stroke="#211816" stroke-width="0.25" x1="672.7" y1="67.4" x2="672.7" y2="237.5"/>
	<line fill="none" stroke="#211816" stroke-width="0.25" x1="621.7" y1="67.4" x2="621.7" y2="237.5"/>
	<line fill="none" stroke="#211816" stroke-width="0.25" x1="689.7" y1="67.4" x2="689.7" y2="237.5"/>
	<line fill="none" stroke="#211816" stroke-width="0.25" x1="706.7" y1="67.4" x2="706.7" y2="237.5"/>
</g>
<g>
	<line fill="none" stroke="#211816" stroke-width="0.25" x1="26.4" y1="220.4" x2="706.7" y2="220.4"/>
	<line fill="none" stroke="#211816" stroke-width="0.25" x1="26.4" y1="237.5" x2="706.7" y2="237.5"/>
	<line fill="none" stroke="#211816" stroke-width="0.25" x1="26.4" y1="203.4" x2="706.7" y2="203.4"/>
	<line fill="none" stroke="#211816" stroke-width="0.25" x1="26.4" y1="118.4" x2="706.7" y2="118.4"/>
	<line fill="none" stroke="#211816" stroke-width="0.25" x1="26.4" y1="135.4" x2="706.7" y2="135.4"/>
	<line fill="none" stroke="#211816" stroke-width="0.25" x1="26.4" y1="186.4" x2="706.7" y2="186.4"/>
	<line fill="none" stroke="#211816" stroke-width="0.25" x1="26.4" y1="169.4" x2="706.7" y2="169.4"/>
	<line fill="none" stroke="#211816" stroke-width="0.25" x1="26.4" y1="101.4" x2="706.7" y2="101.4"/>
	<line fill="none" stroke="#211816" stroke-width="0.25" x1="26.4" y1="152.4" x2="706.7" y2="152.4"/>
	<line fill="none" stroke="#211816" stroke-width="0.25" x1="26.4" y1="84.4" x2="706.7" y2="84.4"/>
	<line fill="none" stroke="#211816" stroke-width="0.25" x1="26.4" y1="67.4" x2="706.7" y2="67.4"/>
</g>
<g>
	<path d="M5.5,9.7c-0.3,0-0.5-0.1-0.6-0.2C4.7,9.4,4.7,9.1,4.7,8.8c-0.3,0.3-0.6,0.6-1,0.7C3.3,9.7,2.9,9.7,2.5,9.7
		c-0.3,0-0.5,0-0.8-0.1S1.2,9.5,1,9.3S0.7,9,0.6,8.8C0.5,8.6,0.4,8.3,0.4,8c0-0.4,0.1-0.6,0.2-0.9c0.1-0.2,0.3-0.4,0.5-0.5
		c0.2-0.1,0.4-0.2,0.7-0.3s0.5-0.1,0.8-0.2C2.8,6,3.1,6,3.3,6S3.8,5.9,4,5.8s0.3-0.1,0.5-0.2c0.1-0.1,0.2-0.2,0.2-0.4
		c0-0.2,0-0.4-0.1-0.5S4.3,4.4,4.2,4.3C4,4.3,3.9,4.2,3.7,4.2c-0.2,0-0.3,0-0.5,0c-0.4,0-0.8,0.1-1.1,0.2S1.7,4.9,1.7,5.3h-1
		c0-0.4,0.1-0.7,0.2-1s0.3-0.5,0.6-0.6C1.7,3.5,2,3.4,2.3,3.4c0.3-0.1,0.6-0.1,1-0.1c0.3,0,0.6,0,0.8,0.1c0.3,0,0.5,0.1,0.8,0.2
		c0.2,0.1,0.4,0.3,0.5,0.5c0.1,0.2,0.2,0.5,0.2,0.9v3.2c0,0.2,0,0.4,0,0.5S5.8,8.8,6,8.8c0.1,0,0.2,0,0.3-0.1v0.8
		C6.1,9.7,5.8,9.7,5.5,9.7z M4.1,6.6c-0.2,0-0.4,0.1-0.7,0.1S3,6.8,2.8,6.8S2.3,6.9,2.1,7C2,7.1,1.8,7.2,1.7,7.3
		C1.6,7.5,1.5,7.7,1.5,7.9c0,0.2,0,0.3,0.1,0.4c0.1,0.1,0.2,0.2,0.3,0.3s0.2,0.1,0.4,0.2c0.1,0,0.3,0,0.4,0c0.3,0,0.6,0,0.9-0.1
		C3.8,8.6,4,8.5,4.2,8.4c0.2-0.1,0.3-0.3,0.3-0.5s0.1-0.3,0.1-0.5v-1C4.5,6.5,4.3,6.6,4.1,6.6z"/>
	<path d="M7,5.8V4.9h6v0.8H7z M13.1,7.4v0.8H7V7.4H13.1z"/>
	<path d="M19.8,6.7v0.9h-1.2v2h-1v-2H14v-1l3.9-5.5h0.8v5.6H19.8z M17.7,2.5L17.7,2.5l-2.9,4.2h2.9V2.5z"/>
	<path d="M22,3.4v0.9h0c0.5-0.7,1.1-1.1,2-1.1c0.4,0,0.7,0.1,1,0.2c0.3,0.2,0.5,0.4,0.7,0.8C26,4,26.3,3.7,26.6,3.5
		c0.3-0.2,0.7-0.3,1.1-0.3c0.3,0,0.6,0,0.8,0.1c0.3,0.1,0.5,0.2,0.6,0.3c0.2,0.1,0.3,0.3,0.4,0.6c0.1,0.2,0.1,0.5,0.1,0.8v4.5h-1
		V5.5c0-0.2,0-0.4,0-0.5s-0.1-0.3-0.2-0.4c-0.1-0.1-0.2-0.2-0.4-0.3s-0.4-0.1-0.6-0.1c-0.5,0-0.9,0.1-1.2,0.4s-0.4,0.7-0.4,1.2v3.9
		h-1V5.5c0-0.2,0-0.4-0.1-0.6c0-0.2-0.1-0.3-0.2-0.4c-0.1-0.1-0.2-0.2-0.4-0.3c-0.1-0.1-0.3-0.1-0.6-0.1c-0.3,0-0.5,0.1-0.8,0.2
		c-0.2,0.1-0.4,0.3-0.5,0.4s-0.2,0.3-0.3,0.5c-0.1,0.2-0.1,0.3-0.1,0.5v3.9h-1V3.4H22z"/>
	<path d="M32.3,3.4v0.9h0c0.5-0.7,1.1-1.1,2-1.1c0.4,0,0.7,0.1,1,0.2c0.3,0.2,0.5,0.4,0.7,0.8c0.2-0.3,0.5-0.6,0.8-0.8
		c0.3-0.2,0.7-0.3,1.1-0.3c0.3,0,0.6,0,0.8,0.1c0.3,0.1,0.5,0.2,0.6,0.3c0.2,0.1,0.3,0.3,0.4,0.6C40,4.5,40,4.7,40,5v4.5h-1V5.5
		c0-0.2,0-0.4,0-0.5s-0.1-0.3-0.2-0.4c-0.1-0.1-0.2-0.2-0.4-0.3S38,4.1,37.8,4.1c-0.5,0-0.9,0.1-1.2,0.4s-0.4,0.7-0.4,1.2v3.9h-1
		V5.5c0-0.2,0-0.4-0.1-0.6c0-0.2-0.1-0.3-0.2-0.4c-0.1-0.1-0.2-0.2-0.4-0.3c-0.1-0.1-0.3-0.1-0.6-0.1c-0.3,0-0.5,0.1-0.8,0.2
		c-0.2,0.1-0.4,0.3-0.5,0.4s-0.2,0.3-0.3,0.5c-0.1,0.2-0.1,0.3-0.1,0.5v3.9h-1V3.4H32.3z"/>
</g>
<g>
	<line fill="none" stroke="#D8413C" stroke-width="0.25" x1="77.4" y1="118.4" x2="77.4" y2="186.4"/>
	<line fill="none" stroke="#D8413C" stroke-width="0.25" x1="86" y1="118.4" x2="86" y2="186.4"/>
	<line fill="none" stroke="#D8413C" stroke-width="0.25" x1="94.5" y1="118.4" x2="94.5" y2="186.4"/>
	<line fill="none" stroke="#D8413C" stroke-width="0.25" x1="103" y1="118.4" x2="103" y2="186.4"/>
	<line fill="none" stroke="#D8413C" stroke-width="0.25" x1="111.5" y1="118.4" x2="111.5" y2="186.4"/>
	<line fill="none" stroke="#D8413C" stroke-width="0.25" x1="120" y1="118.4" x2="120" y2="186.4"/>
	<line fill="none" stroke="#D8413C" stroke-width="0.25" x1="128.5" y1="118.4" x2="128.5" y2="186.4"/>
	<line fill="none" stroke="#D8413C" stroke-width="0.25" x1="137" y1="118.4" x2="137" y2="186.4"/>
	<line fill="none" stroke="#D8413C" stroke-width="0.25" x1="145.5" y1="118.4" x2="145.5" y2="186.4"/>
	<line fill="none" stroke="#D8413C" stroke-width="0.25" x1="154" y1="118.4" x2="154" y2="186.4"/>
	<line fill="none" stroke="#D8413C" stroke-width="0.25" x1="162.5" y1="118.4" x2="162.5" y2="186.4"/>
	<line fill="none" stroke="#D8413C" stroke-width="0.25" x1="171" y1="118.4" x2="171" y2="186.4"/>
	<line fill="none" stroke="#D8413C" stroke-width="0.25" x1="179.5" y1="118.4" x2="179.5" y2="186.4"/>
	<line fill="none" stroke="#D8413C" stroke-width="0.25" x1="188" y1="118.4" x2="188" y2="186.4"/>
	<line fill="none" stroke="#D8413C" stroke-width="0.25" x1="196.5" y1="118.4" x2="196.5" y2="186.4"/>
	<line fill="none" stroke="#D8413C" stroke-width="0.25" x1="205" y1="118.4" x2="205" y2="186.4"/>
	<line fill="none" stroke="#D8413C" stroke-width="0.25" x1="213.5" y1="118.4" x2="213.5" y2="186.4"/>
	<line fill="none" stroke="#D8413C" stroke-width="0.25" x1="222" y1="118.4" x2="222" y2="186.4"/>
	<line fill="none" stroke="#D8413C" stroke-width="0.25" x1="230.5" y1="118.4" x2="230.5" y2="186.4"/>
	<line fill="none" stroke="#D8413C" stroke-width="0.25" x1="239" y1="118.4" x2="239" y2="186.4"/>
	<line fill="none" stroke="#D8413C" stroke-width="0.25" x1="247.5" y1="118.4" x2="247.5" y2="186.4"/>
	<line fill="none" stroke="#D8413C" stroke-width="0.25" x1="256" y1="118.4" x2="256" y2="186.4"/>
	<line fill="none" stroke="#D8413C" stroke-width="0.25" x1="264.5" y1="118.4" x2="264.5" y2="186.4"/>
	<line fill="none" stroke="#D8413C" stroke-width="0.25" x1="273" y1="118.4" x2="273" y2="186.4"/>
	<line fill="none" stroke="#D8413C" stroke-width="0.25" x1="281.5" y1="118.4" x2="281.5" y2="186.4"/>
	<line fill="none" stroke="#D8413C" stroke-width="0.25" x1="290" y1="118.4" x2="290" y2="186.4"/>
	<line fill="none" stroke="#D8413C" stroke-width="0.25" x1="298.6" y1="118.4" x2="298.6" y2="186.4"/>
	<line fill="none" stroke="#D8413C" stroke-width="0.25" x1="307.1" y1="118.4" x2="307.1" y2="186.4"/>
	<line fill="none" stroke="#D8413C" stroke-width="0.25" x1="315.6" y1="118.4" x2="315.6" y2="186.4"/>
	<line fill="none" stroke="#D8413C" stroke-width="0.25" x1="324.1" y1="118.4" x2="324.1" y2="186.4"/>
	<line fill="none" stroke="#D8413C" stroke-width="0.25" x1="332.6" y1="118.4" x2="332.6" y2="186.4"/>
	<line fill="none" stroke="#D8413C" stroke-width="0.25" x1="341.1" y1="118.4" x2="341.1" y2="186.4"/>
	<line fill="none" stroke="#D8413C" stroke-width="0.25" x1="349.6" y1="118.4" x2="349.6" y2="186.4"/>
	<line fill="none" stroke="#D8413C" stroke-width="0.25" x1="358.1" y1="118.4" x2="358.1" y2="186.4"/>
	<line fill="none" stroke="#D8413C" stroke-width="0.25" x1="366.6" y1="118.4" x2="366.6" y2="186.4"/>
	<line fill="none" stroke="#D8413C" stroke-width="0.25" x1="375.1" y1="118.4" x2="375.1" y2="186.4"/>
	<line fill="none" stroke="#D8413C" stroke-width="0.25" x1="383.6" y1="118.4" x2="383.6" y2="186.4"/>
	<line fill="none" stroke="#D8413C" stroke-width="0.25" x1="392.1" y1="118.4" x2="392.1" y2="186.4"/>
	<line fill="none" stroke="#D8413C" stroke-width="0.25" x1="400.6" y1="118.4" x2="400.6" y2="186.4"/>
	<line fill="none" stroke="#D8413C" stroke-width="0.25" x1="409.1" y1="118.4" x2="409.1" y2="186.4"/>
	<line fill="none" stroke="#D8413C" stroke-width="0.25" x1="417.6" y1="118.4" x2="417.6" y2="186.4"/>
	<line fill="none" stroke="#D8413C" stroke-width="0.25" x1="426.1" y1="118.4" x2="426.1" y2="186.4"/>
	<line fill="none" stroke="#D8413C" stroke-width="0.25" x1="434.6" y1="118.4" x2="434.6" y2="186.4"/>
	<line fill="none" stroke="#D8413C" stroke-width="0.25" x1="443.1" y1="118.4" x2="443.1" y2="186.4"/>
	<line fill="none" stroke="#D8413C" stroke-width="0.25" x1="451.6" y1="118.4" x2="451.6" y2="186.4"/>
	<line fill="none" stroke="#D8413C" stroke-width="0.25" x1="460.1" y1="118.4" x2="460.1" y2="186.4"/>
	<line fill="none" stroke="#D8413C" stroke-width="0.25" x1="468.6" y1="118.4" x2="468.6" y2="186.4"/>
	<line fill="none" stroke="#D8413C" stroke-width="0.25" x1="477.1" y1="118.4" x2="477.1" y2="186.4"/>
	<line fill="none" stroke="#D8413C" stroke-width="0.25" x1="485.6" y1="118.4" x2="485.6" y2="186.4"/>
	<line fill="none" stroke="#D8413C" stroke-width="0.25" x1="494.1" y1="118.4" x2="494.1" y2="186.4"/>
	<line fill="none" stroke="#D8413C" stroke-width="0.25" x1="502.6" y1="118.4" x2="502.6" y2="186.4"/>
	<line fill="none" stroke="#D8413C" stroke-width="0.25" x1="511.2" y1="118.4" x2="511.2" y2="186.4"/>
	<line fill="none" stroke="#D8413C" stroke-width="0.25" x1="519.7" y1="118.4" x2="519.7" y2="186.4"/>
	<line fill="none" stroke="#D8413C" stroke-width="0.25" x1="528.2" y1="118.4" x2="528.2" y2="186.4"/>
	<line fill="none" stroke="#D8413C" stroke-width="0.25" x1="536.7" y1="118.4" x2="536.7" y2="186.4"/>
	<line fill="none" stroke="#D8413C" stroke-width="0.25" x1="545.2" y1="118.4" x2="545.2" y2="186.4"/>
	<line fill="none" stroke="#D8413C" stroke-width="0.25" x1="553.7" y1="118.4" x2="553.7" y2="186.4"/>
	<line fill="none" stroke="#D8413C" stroke-width="0.25" x1="562.2" y1="118.4" x2="562.2" y2="186.4"/>
	<line fill="none" stroke="#D8413C" stroke-width="0.25" x1="570.7" y1="118.4" x2="570.7" y2="186.4"/>
	<line fill="none" stroke="#D8413C" stroke-width="0.25" x1="579.2" y1="118.4" x2="579.2" y2="186.4"/>
	<line fill="none" stroke="#D8413C" stroke-width="0.25" x1="587.7" y1="118.4" x2="587.7" y2="186.4"/>
	<line fill="none" stroke="#D8413C" stroke-width="0.25" x1="596.2" y1="118.4" x2="596.2" y2="186.4"/>
	<line fill="none" stroke="#D8413C" stroke-width="0.25" x1="604.7" y1="118.4" x2="604.7" y2="186.4"/>
	<line fill="none" stroke="#D8413C" stroke-width="0.25" x1="613.2" y1="118.4" x2="613.2" y2="186.4"/>
	<line fill="none" stroke="#D8413C" stroke-width="0.25" x1="621.7" y1="118.4" x2="621.7" y2="186.4"/>
	<line fill="none" stroke="#D8413C" stroke-width="0.25" x1="630.2" y1="118.4" x2="630.2" y2="186.4"/>
	<line fill="none" stroke="#D8413C" stroke-width="0.25" x1="638.7" y1="118.4" x2="638.7" y2="186.4"/>
	<line fill="none" stroke="#D8413C" stroke-width="0.25" x1="647.2" y1="118.4" x2="647.2" y2="186.4"/>
	<line fill="none" stroke="#D8413C" stroke-width="0.25" x1="655.7" y1="118.4" x2="655.7" y2="186.4"/>
</g>
<g>
	<line fill="none" stroke="#D8413C" stroke-width="0.25" x1="77.4" y1="186.4" x2="655.7" y2="186.4"/>
	<line fill="none" stroke="#D8413C" stroke-width="0.25" x1="77.4" y1="177.9" x2="655.7" y2="177.9"/>
	<line fill="none" stroke="#D8413C" stroke-width="0.25" x1="77.4" y1="169.4" x2="655.7" y2="169.4"/>
	<line fill="none" stroke="#D8413C" stroke-width="0.25" x1="77.4" y1="160.9" x2="655.7" y2="160.9"/>
	<line fill="none" stroke="#D8413C" stroke-width="0.25" x1="77.4" y1="152.4" x2="655.7" y2="152.4"/>
	<line fill="none" stroke="#D8413C" stroke-width="0.25" x1="77.4" y1="143.9" x2="655.7" y2="143.9"/>
	<line fill="none" stroke="#D8413C" stroke-width="0.25" x1="77.4" y1="135.4" x2="655.7" y2="135.4"/>
	<line fill="none" stroke="#D8413C" stroke-width="0.25" x1="77.4" y1="126.9" x2="655.7" y2="126.9"/>
	<line fill="none" stroke="#D8413C" stroke-width="0.25" x1="77.4" y1="118.4" x2="655.7" y2="118.4"/>
</g>
<g>
	<path d="M37,47.5c-0.3,0-0.5-0.1-0.6-0.2c-0.2-0.1-0.2-0.4-0.2-0.7c-0.3,0.3-0.6,0.6-1,0.7c-0.4,0.1-0.8,0.2-1.2,0.2
		c-0.3,0-0.5,0-0.8-0.1s-0.5-0.2-0.7-0.3s-0.3-0.3-0.4-0.5c-0.1-0.2-0.2-0.5-0.2-0.8c0-0.4,0.1-0.6,0.2-0.9c0.1-0.2,0.3-0.4,0.5-0.5
		c0.2-0.1,0.4-0.2,0.7-0.3s0.5-0.1,0.8-0.2c0.3-0.1,0.5-0.1,0.8-0.1s0.5-0.1,0.7-0.1s0.3-0.1,0.5-0.2c0.1-0.1,0.2-0.2,0.2-0.4
		c0-0.2,0-0.4-0.1-0.5s-0.2-0.2-0.3-0.3c-0.1-0.1-0.3-0.1-0.4-0.1c-0.2,0-0.3,0-0.5,0c-0.4,0-0.8,0.1-1.1,0.2s-0.4,0.5-0.5,0.9h-1
		c0-0.4,0.1-0.7,0.2-1s0.3-0.5,0.6-0.6c0.2-0.2,0.5-0.3,0.8-0.4c0.3-0.1,0.6-0.1,1-0.1c0.3,0,0.6,0,0.8,0.1c0.3,0,0.5,0.1,0.8,0.2
		c0.2,0.1,0.4,0.3,0.5,0.5c0.1,0.2,0.2,0.5,0.2,0.9v3.2c0,0.2,0,0.4,0,0.5s0.1,0.2,0.3,0.2c0.1,0,0.2,0,0.3-0.1v0.8
		C37.6,47.4,37.3,47.5,37,47.5z M35.6,44.4c-0.2,0-0.4,0.1-0.7,0.1s-0.5,0.1-0.7,0.1s-0.4,0.1-0.6,0.2c-0.2,0.1-0.3,0.2-0.5,0.3
		c-0.1,0.1-0.2,0.4-0.2,0.6c0,0.2,0,0.3,0.1,0.4c0.1,0.1,0.2,0.2,0.3,0.3s0.2,0.1,0.4,0.2c0.1,0,0.3,0,0.4,0c0.3,0,0.6,0,0.9-0.1
		c0.2-0.1,0.4-0.2,0.6-0.3c0.2-0.1,0.3-0.3,0.3-0.5s0.1-0.3,0.1-0.5v-1C36,44.3,35.8,44.3,35.6,44.4z"/>
</g>
<g>
	<path d="M360.8,267.8c0,0,0.1,0,0.1,0h0.2c0.2,0,0.4,0,0.6-0.1c0.2-0.1,0.4-0.1,0.5-0.3s0.3-0.3,0.4-0.4s0.1-0.4,0.1-0.6
		c0-0.5-0.1-0.8-0.4-1c-0.3-0.2-0.6-0.3-1.1-0.3c-0.3,0-0.5,0.1-0.7,0.2c-0.2,0.1-0.4,0.2-0.5,0.4c-0.1,0.2-0.2,0.4-0.3,0.6
		s-0.1,0.5-0.1,0.7h-1c0-0.4,0.1-0.8,0.2-1.1c0.1-0.3,0.3-0.6,0.5-0.9c0.2-0.2,0.5-0.4,0.8-0.6c0.3-0.1,0.7-0.2,1.1-0.2
		c0.4,0,0.7,0,1,0.1s0.6,0.2,0.8,0.4c0.2,0.2,0.4,0.4,0.5,0.7s0.2,0.6,0.2,1c0,0.4-0.1,0.7-0.3,1s-0.5,0.5-0.8,0.7v0
		c0.5,0.1,0.9,0.4,1.2,0.7s0.4,0.8,0.4,1.3c0,0.4-0.1,0.8-0.2,1.1c-0.2,0.3-0.4,0.6-0.6,0.8c-0.3,0.2-0.6,0.4-0.9,0.5
		c-0.4,0.1-0.7,0.2-1.1,0.2c-0.4,0-0.8-0.1-1.2-0.2s-0.7-0.3-0.9-0.5c-0.2-0.2-0.4-0.5-0.6-0.9c-0.1-0.3-0.2-0.7-0.2-1.2h1
		c0,0.6,0.2,1,0.5,1.3c0.3,0.3,0.7,0.5,1.3,0.5c0.2,0,0.5,0,0.7-0.1s0.4-0.2,0.6-0.3c0.2-0.1,0.3-0.3,0.4-0.5
		c0.1-0.2,0.1-0.4,0.1-0.7c0-0.3,0-0.5-0.1-0.7c-0.1-0.2-0.2-0.4-0.4-0.5c-0.2-0.1-0.4-0.2-0.6-0.3c-0.2-0.1-0.5-0.1-0.7-0.1
		c-0.2,0-0.4,0-0.6,0v-0.9C360.7,267.8,360.8,267.8,360.8,267.8z"/>
	<path d="M370.9,269.8v0.9h-1.2v2h-1v-2h-3.7v-1l3.9-5.5h0.8v5.6H370.9z M368.8,265.6L368.8,265.6l-2.9,4.2h2.9V265.6z"/>
	<path d="M377,272.8c-0.3,0-0.5-0.1-0.6-0.2c-0.2-0.1-0.2-0.4-0.2-0.7c-0.3,0.3-0.6,0.6-1,0.7c-0.4,0.1-0.8,0.2-1.2,0.2
		c-0.3,0-0.5,0-0.8-0.1s-0.5-0.2-0.7-0.3s-0.3-0.3-0.4-0.5c-0.1-0.2-0.2-0.5-0.2-0.8c0-0.4,0.1-0.6,0.2-0.9c0.1-0.2,0.3-0.4,0.5-0.5
		c0.2-0.1,0.4-0.2,0.7-0.3s0.5-0.1,0.8-0.2c0.3-0.1,0.5-0.1,0.8-0.1s0.5-0.1,0.7-0.1s0.3-0.1,0.5-0.2c0.1-0.1,0.2-0.2,0.2-0.4
		c0-0.2,0-0.4-0.1-0.5s-0.2-0.2-0.3-0.3c-0.1-0.1-0.3-0.1-0.4-0.1c-0.2,0-0.3,0-0.5,0c-0.4,0-0.8,0.1-1.1,0.2s-0.4,0.5-0.5,0.9h-1
		c0-0.4,0.1-0.7,0.2-1s0.3-0.5,0.6-0.6c0.2-0.2,0.5-0.3,0.8-0.4c0.3-0.1,0.6-0.1,1-0.1c0.3,0,0.6,0,0.8,0.1c0.3,0,0.5,0.1,0.8,0.2
		c0.2,0.1,0.4,0.3,0.5,0.5c0.1,0.2,0.2,0.5,0.2,0.9v3.2c0,0.2,0,0.4,0,0.5s0.1,0.2,0.3,0.2c0.1,0,0.2,0,0.3-0.1v0.8
		C377.5,272.7,377.3,272.8,377,272.8z M375.5,269.7c-0.2,0-0.4,0.1-0.7,0.1s-0.5,0.1-0.7,0.1s-0.4,0.1-0.6,0.2
		c-0.2,0.1-0.3,0.2-0.5,0.3c-0.1,0.1-0.2,0.4-0.2,0.6c0,0.2,0,0.3,0.1,0.4c0.1,0.1,0.2,0.2,0.3,0.3s0.2,0.1,0.4,0.2
		c0.1,0,0.3,0,0.4,0c0.3,0,0.6,0,0.9-0.1c0.2-0.1,0.4-0.2,0.6-0.3c0.2-0.1,0.3-0.3,0.3-0.5s0.1-0.3,0.1-0.5v-1
		C375.9,269.5,375.7,269.6,375.5,269.7z"/>
</g>
<g>
	<path d="M5.5,79.6c-0.3,0-0.5-0.1-0.6-0.2c-0.2-0.1-0.2-0.4-0.2-0.7c-0.3,0.3-0.6,0.6-1,0.7c-0.4,0.1-0.8,0.2-1.2,0.2
		c-0.3,0-0.5,0-0.8-0.1S1.2,79.4,1,79.2s-0.3-0.3-0.4-0.5c-0.1-0.2-0.2-0.5-0.2-0.8c0-0.4,0.1-0.6,0.2-0.9c0.1-0.2,0.3-0.4,0.5-0.5
		c0.2-0.1,0.4-0.2,0.7-0.3S2.3,76,2.5,76c0.3-0.1,0.5-0.1,0.8-0.1s0.5-0.1,0.7-0.1s0.3-0.1,0.5-0.2c0.1-0.1,0.2-0.2,0.2-0.4
		c0-0.2,0-0.4-0.1-0.5s-0.2-0.2-0.3-0.3c-0.1-0.1-0.3-0.1-0.4-0.1c-0.2,0-0.3,0-0.5,0c-0.4,0-0.8,0.1-1.1,0.2s-0.4,0.5-0.5,0.9h-1
		c0-0.4,0.1-0.7,0.2-1s0.3-0.5,0.6-0.6c0.2-0.2,0.5-0.3,0.8-0.4c0.3-0.1,0.6-0.1,1-0.1c0.3,0,0.6,0,0.8,0.1c0.3,0,0.5,0.1,0.8,0.2
		c0.2,0.1,0.4,0.3,0.5,0.5c0.1,0.2,0.2,0.5,0.2,0.9V78c0,0.2,0,0.4,0,0.5s0.1,0.2,0.3,0.2c0.1,0,0.2,0,0.3-0.1v0.8
		C6.1,79.6,5.8,79.6,5.5,79.6z M4.1,76.5c-0.2,0-0.4,0.1-0.7,0.1S3,76.7,2.8,76.7s-0.4,0.1-0.6,0.2C2,77,1.8,77.1,1.7,77.2
		c-0.1,0.1-0.2,0.4-0.2,0.6c0,0.2,0,0.3,0.1,0.4c0.1,0.1,0.2,0.2,0.3,0.3s0.2,0.1,0.4,0.2c0.1,0,0.3,0,0.4,0c0.3,0,0.6,0,0.9-0.1
		c0.2-0.1,0.4-0.2,0.6-0.3c0.2-0.1,0.3-0.3,0.3-0.5s0.1-0.3,0.1-0.5v-1C4.5,76.4,4.3,76.5,4.1,76.5z"/>
</g>
<g id="形状_2_copy_3_副本_4_15_">
	<g>
		<path fill-rule="evenodd" clip-rule="evenodd" fill="#FF6600" d="M109.9,118.4c-11.1,21.7-21,41-32.4,63.7H93
			c2.9-5.4,4.4-8.8,8-15.2c8.1,0,14.3,0,22.4,0c-1.7-4.7-2.8-8.3-4.2-12.1h-12.4c3.7-7.2,5.7-11.4,11.2-21.2
			c5.8,16.7,11.7,33.4,17.2,48.6h14.2c-8-22.3-14.8-41.6-22.3-63.7H109.9z M153.1,182.2h13.5l2.9-63.8l-13.3,0L153.1,182.2z
			 M174.2,182.2h14.2l1.8-47.5h-13.6L174.2,182.2z M177.2,118.4l-0.4,10.2c0,0,10.4,0.1,13.4,0l0.5-10.2
			C178.7,118.4,178.5,118.4,177.2,118.4z M264.1,134.9c-2.4-0.9-5-1.3-7.7-1.3c-1.6,0-3.1,0.1-4.6,0.4c-1.5,0.3-2.8,0.7-4,1.2
			c-1.2,0.5-2.3,1.2-3.2,2c-1,0.8-1.7,1.5-2.3,2.3c-0.6,0.7-1.2,1.6-1.9,2.7c-0.6-1.5-1.2-2.6-1.7-3.4c-0.5-0.8-1.2-1.5-1.9-2.1
			c-0.8-0.6-1.7-1.2-2.8-1.7c-1.1-0.5-2.3-0.9-3.6-1.1c-1.3-0.3-2.7-0.4-4.1-0.4c-1.9,0-3.7,0.2-5.5,0.7c-1.8,0.4-3.3,1.1-4.6,1.8
			c-1.3,0.8-2.4,1.6-3.2,2.6c-0.8,0.9-1.7,2.1-2.7,3.6l0.4-7.5h-12.6l-2.1,47.5c0,0,10.5-0.1,13.4,0c0-4.1,0.2-9.6,0.5-16.5
			c0.3-6.9,0.9-11.6,1.7-14c0.8-2.4,2-4.3,3.6-5.8c1.7-1.4,3.6-2.1,5.8-2.1c1.2,0,2.2,0.2,3.1,0.6c0.9,0.4,1.7,1,2.4,1.9
			c0.7,0.9,1.1,1.8,1.3,2.7c0.2,1,0.3,2.1,0.3,3.5c0,2.6-0.2,7.6-0.6,15c-0.4,7.4-0.7,12.3-0.9,14.7c2.9-0.1,10.8-0.1,13.4,0l0.3-13
			c0.2-4.6,0.4-8.4,0.6-11.2c0.2-2.9,0.6-5.1,1.2-6.7c0.5-1.6,1.3-3,2.3-4.2c1-1.2,2-2.1,3.2-2.6c1.1-0.5,2.4-0.8,3.8-0.8
			c1.4,0,2.6,0.2,3.6,0.7c1.1,0.5,2,1.3,2.7,2.4c0.7,1.1,1.1,2.8,1.1,5c0,1.9-0.1,4.2-0.2,6.9l-0.6,10.7c-0.3,4.4-0.5,8.6-0.8,12.6
			c2.8-0.1,11-0.1,13.3,0c0-3.6,0.2-8.7,0.5-15.2c0.3-6.6,0.6-11.3,0.8-14.2c0.2-2.9,0.3-5.1,0.3-6.6c0-2.8-0.7-5.2-2.1-7.1
			C268.4,137.2,266.5,135.8,264.1,134.9z M314.6,134.7c-2.9-0.8-6-1.2-9.5-1.2c-3,0-6.2,0.2-9.4,0.6c-3.2,0.4-11.2,2.1-11.2,2.1
			l-1.4,8.8c0,0,13.2-4.1,18.8-4.1c1.5,0,2.9,0.2,4.2,0.5c1.3,0.3,2.3,0.9,3.1,1.8c0.8,0.8,1.2,1.9,1.2,3.1c0,0.6-0.1,1.2-0.4,1.8
			c-0.3,0.6-0.7,1.2-1.2,1.7c-0.6,0.5-1.2,1-2,1.3c-0.8,0.3-1.8,0.7-3.1,1c-1.3,0.4-2.5,0.7-3.7,0.9c-4.5,1-8.1,1.9-10.8,2.9
			c-2.7,0.9-4.8,1.9-6.2,2.9c-1.4,1-2.6,2.1-3.5,3.2c-0.9,1.1-1.6,2.3-2.1,3.6c-0.5,1.3-0.7,2.6-0.7,4c0,2.3,0.6,4.7,1.8,7
			c1.2,2.3,3.1,4,5.6,5c2.5,1.1,5.8,1.6,9.7,1.6c1.1,0,2.3,0,3.7-0.1c1.3-0.1,3.1-0.3,5.3-0.7c0.9-3.5,1.6-6.2,2.3-7.9
			c-1.9,0.6-3.4,1-4.5,1.2c-1.1,0.2-2.2,0.2-3.2,0.2c-1.6,0-2.9-0.2-4.1-0.6c-1.2-0.4-2.1-1-2.9-2c-0.8-1-1.1-2.1-1.1-3.4
			c0-0.8,0.1-1.6,0.4-2.3c0.3-0.7,0.8-1.4,1.4-2c0.7-0.6,1.5-1.2,2.4-1.7c1-0.5,2-1,3.2-1.4c1.2-0.4,2.8-0.9,4.7-1.4
			c2-0.5,3.4-0.9,4.1-1.2c0.8-0.3,1.5-0.6,2.1-0.9c0.6-0.3,1.5-0.9,2.7-1.6l-1.6,24.7h13.3c0,0,0.4-15.3,0.9-22.6
			c0.5-7.3,0.8-11.8,0.8-13.6c0-3.3-0.8-5.8-2.4-7.5C319.7,136.8,317.4,135.5,314.6,134.7z M398.1,134.9c-2.4-0.9-5-1.3-7.7-1.3
			c-1.6,0-3.1,0.1-4.6,0.4c-1.5,0.3-2.8,0.7-4,1.2c-1.2,0.5-2.3,1.2-3.2,2c-1,0.8-1.7,1.5-2.3,2.3c-0.6,0.7-1.2,1.6-1.9,2.7
			c-0.6-1.5-1.2-2.6-1.7-3.4c-0.5-0.8-1.2-1.5-1.9-2.1c-0.8-0.6-1.7-1.2-2.8-1.7c-1.1-0.5-2.3-0.9-3.6-1.1c-1.3-0.3-2.7-0.4-4.1-0.4
			c-1.9,0-3.7,0.2-5.5,0.7c-1.8,0.4-3.3,1.1-4.6,1.8c-1.3,0.8-2.4,1.6-3.2,2.6c-0.8,0.9-1.7,2.1-2.7,3.6l0.4-7.5H332l-2.1,47.5h13.4
			c0,0,0.2-9.6,0.5-16.5c0.3-6.9,0.9-11.6,1.7-14c0.8-2.4,2-4.3,3.6-5.8c1.7-1.4,3.6-2.1,5.8-2.1c1.2,0,2.2,0.2,3.1,0.6
			c0.9,0.4,1.7,1,2.4,1.9c0.7,0.9,1.1,1.8,1.3,2.7c0.2,1,0.3,2.1,0.3,3.5c0,2.6-0.2,7.6-0.6,15c-0.4,7.4-0.7,12.3-0.9,14.7
			c2.9-0.1,10.8-0.1,13.4,0l0.3-13c0.2-4.6,0.4-8.4,0.6-11.2c0.2-2.9,0.6-5.1,1.2-6.7c0.5-1.6,1.3-3,2.3-4.2c1-1.2,2.1-2.1,3.2-2.6
			c1.1-0.5,2.4-0.8,3.8-0.8c1.3,0,2.6,0.2,3.6,0.7c1.1,0.5,2,1.3,2.7,2.4c0.7,1.1,1.1,2.8,1.1,5c0,1.9-0.1,4.2-0.2,6.9l-0.6,10.7
			c-0.3,4.4-0.5,8.6-0.8,12.6c2.8-0.1,11-0.1,13.3,0c0-3.6,0.2-8.7,0.5-15.2c0.3-6.6,0.6-11.3,0.8-14.2c0.2-2.9,0.3-5.1,0.3-6.6
			c0-2.8-0.7-5.2-2.1-7.1C402.4,137.2,400.5,135.8,398.1,134.9z M448.6,134.7c-2.9-0.8-6-1.2-9.5-1.2c-3,0-6.2,0.2-9.4,0.6
			c-3.3,0.4-11.2,2.1-11.2,2.1l-1.4,8.8c0,0,13.2-4.1,18.9-4.1c1.5,0,2.9,0.2,4.2,0.5c1.3,0.3,2.3,0.9,3.1,1.8
			c0.8,0.8,1.2,1.9,1.2,3.1c0,0.6-0.1,1.2-0.4,1.8c-0.3,0.6-0.7,1.2-1.2,1.7c-0.6,0.5-1.2,1-2,1.3c-0.8,0.3-1.8,0.7-3.1,1
			c-1.3,0.4-2.5,0.7-3.7,0.9c-4.5,1-8.1,1.9-10.8,2.9c-2.7,0.9-4.8,1.9-6.2,2.9c-1.4,1-2.6,2.1-3.5,3.2c-0.9,1.1-1.6,2.3-2.1,3.6
			c-0.5,1.3-0.7,2.6-0.7,4c0,2.3,0.6,4.7,1.8,7c1.2,2.3,3.1,4,5.6,5c2.5,1.1,5.8,1.6,9.7,1.6c1.1,0,2.3,0,3.7-0.1
			c1.3-0.1,3.1-0.3,5.3-0.7c0.9-3.5,1.6-6.2,2.3-7.9c-1.9,0.6-3.4,1-4.5,1.2c-1.1,0.2-2.2,0.2-3.2,0.2c-1.6,0-2.9-0.2-4.1-0.6
			c-1.2-0.4-2.1-1-2.9-2c-0.8-1-1.1-2.1-1.1-3.4c0-0.8,0.1-1.6,0.4-2.3c0.3-0.7,0.8-1.4,1.4-2c0.7-0.6,1.5-1.2,2.4-1.7
			c1-0.5,2-1,3.2-1.4c1.2-0.4,2.8-0.9,4.7-1.4c2-0.5,3.3-0.9,4.1-1.2c0.8-0.3,1.5-0.6,2.1-0.9c0.6-0.3,1.5-0.9,2.7-1.6l-1.6,24.7
			h13.3c0,0,0.4-15.3,0.9-22.6c0.5-7.3,0.7-11.8,0.7-13.6c0-3.3-0.8-5.8-2.4-7.5C453.7,136.8,451.5,135.5,448.6,134.7z M463.6,169.6
			c-0.2,6.1-0.4,10.3-0.5,12.6c4.4-0.1,13.1,0,13.1,0s0.5-10.3,0.7-12.6C473.4,169.7,463.6,169.6,463.6,169.6z M498.4,147.6
			c1.4-1.5,3-2.7,4.9-3.4c1.9-0.7,3.9-1.1,6-1.1c3.5,0,7.5,0.8,12.2,2.4l-0.7-10.2c-2.9-0.7-5.5-1.2-7.6-1.4
			c-2.2-0.2-4.2-0.3-6.3-0.3c-3.7,0-7,0.4-10,1.2c-3,0.8-5.7,2.4-8.1,4.7c-2.4,2.3-4.3,5.2-5.5,8.9c-1.3,3.6-1.9,7.4-1.9,11.3
			c0,3,0.4,5.8,1.2,8.6c0.8,2.8,1.9,5.2,3.4,7.1c1.5,2,3.3,3.5,5.3,4.7c2,1.2,4.2,2,6.5,2.5c2.3,0.5,4.8,0.7,7.3,0.7
			c4.3,0,8.7-0.5,13.2-1.5c0.3-2.4,0.7-4.4,1-6c0.3-1.6,0.5-3.1,0.7-4.3c-2.2,0.8-4.4,1.4-6.4,1.8c-2,0.3-3.7,0.5-5.1,0.5
			c-2.9,0-5.4-0.6-7.7-1.8c-2.3-1.2-3.8-2.9-4.7-5c-0.9-2.2-1.4-4.7-1.4-7.7c0-2.1,0.3-4.2,0.9-6.2
			C496.1,150.9,497,149.2,498.4,147.6z M569.8,139.9c-2.3-2.1-5.1-3.7-8.4-4.8c-3.3-1.1-6.7-1.6-10.3-1.6c-3.9,0-7.6,0.7-11.2,2
			c-3.6,1.3-6.6,3.2-8.9,5.7c-2.3,2.4-4,5.2-5.1,8.3c-1.1,3.1-1.6,6.4-1.6,9.8c0,3.4,0.6,6.6,1.8,9.7c1.2,3.1,3,5.7,5.3,7.9
			c2.3,2.2,5.1,3.8,8.4,4.8c3.3,1.1,6.7,1.6,10.3,1.6c3.9,0,7.6-0.6,11-1.8c3.4-1.2,6.3-3,8.6-5.4c2.3-2.4,4.1-5.3,5.3-8.6
			c1.2-3.3,1.8-6.7,1.8-10.3c0-3.4-0.6-6.6-1.7-9.6C573.8,144.6,572.1,142,569.8,139.9z M561.8,165.9c-1,2.6-2.6,4.6-4.7,6
			c-2.1,1.4-4.5,2-7.2,2c-2.7,0-5-0.7-6.9-2c-1.9-1.3-3.3-3-4.2-5.1c-0.9-2.1-1.3-4.5-1.3-7.2c0-3.1,0.5-5.9,1.6-8.6
			c1-2.6,2.6-4.6,4.8-5.9c2.1-1.3,4.6-2,7.3-2c2.7,0,5.1,0.6,7,1.9c1.9,1.3,3.3,3,4.1,5.1c0.8,2.1,1.2,4.5,1.2,7.1
			C563.3,160.4,562.8,163.3,561.8,165.9z M653.7,139.1c-1.4-1.9-3.3-3.3-5.7-4.2c-2.4-0.9-5-1.3-7.7-1.3c-1.6,0-3.1,0.1-4.6,0.4
			c-1.5,0.3-2.8,0.7-4,1.2c-1.2,0.5-2.3,1.2-3.2,2c-1,0.8-1.7,1.5-2.3,2.3c-0.6,0.7-1.2,1.6-1.9,2.7c-0.6-1.5-1.2-2.6-1.7-3.4
			c-0.5-0.8-1.2-1.5-1.9-2.1c-0.8-0.6-1.7-1.2-2.8-1.7c-1.1-0.5-2.3-0.9-3.6-1.1c-1.3-0.3-2.7-0.4-4.1-0.4c-1.9,0-3.7,0.2-5.5,0.7
			c-1.8,0.4-3.3,1.1-4.6,1.8c-1.3,0.8-2.4,1.6-3.2,2.6c-0.8,0.9-1.7,2.1-2.7,3.6l0.4-7.5c-2.2,0.1-10,0.1-12.6,0
			c0,5.3-1.7,42.2-2.1,47.5c2.9-0.1,10.5-0.1,13.4,0c0-4.1,0.2-9.6,0.5-16.5c0.3-6.9,0.9-11.6,1.7-14c0.8-2.4,2-4.3,3.6-5.8
			c1.7-1.4,3.6-2.1,5.8-2.1c1.2,0,2.2,0.2,3.1,0.6c0.9,0.4,1.7,1,2.4,1.9c0.7,0.9,1.1,1.8,1.3,2.7c0.2,1,0.3,2.1,0.3,3.5
			c0,2.6-0.2,7.6-0.6,15c-0.4,7.4-0.7,12.3-0.9,14.7c2.9-0.1,10.8-0.1,13.4,0l0.3-13c0.2-4.6,0.4-8.4,0.6-11.2
			c0.2-2.9,0.6-5.1,1.2-6.7c0.5-1.6,1.3-3,2.3-4.2c1-1.2,2-2.1,3.2-2.6c1.1-0.5,2.4-0.8,3.8-0.8c1.3,0,2.6,0.2,3.6,0.7
			c1.1,0.5,2,1.3,2.7,2.4c0.7,1.1,1.1,2.8,1.1,5c0,1.9-0.1,4.2-0.2,6.9l-0.6,10.7c-0.3,4.4-0.5,8.6-0.8,12.6c2.8-0.1,11-0.1,13.3,0
			c0-3.6,0.2-8.7,0.5-15.2c0.3-6.6,0.6-11.3,0.8-14.2c0.2-2.9,0.3-5.1,0.3-6.6C655.7,143.4,655,141,653.7,139.1z"/>
	</g>
</g>
<polyline fill="none" stroke="#211816" stroke-width="0.25" points="717.3,183.3 727.9,183.3 727.9,118.4 717.8,118.4 "/>
<g>
	<path d="M735.5,152.5c0,0,0.1,0,0.1,0h0.2c0.2,0,0.4,0,0.6-0.1c0.2-0.1,0.4-0.1,0.5-0.3c0.1-0.1,0.3-0.3,0.4-0.4s0.1-0.4,0.1-0.6
		c0-0.5-0.1-0.8-0.4-1c-0.3-0.2-0.6-0.3-1.1-0.3c-0.3,0-0.5,0.1-0.7,0.2c-0.2,0.1-0.4,0.2-0.5,0.4s-0.2,0.4-0.3,0.6
		c-0.1,0.2-0.1,0.5-0.1,0.7h-1c0-0.4,0.1-0.8,0.2-1.1c0.1-0.3,0.3-0.6,0.5-0.9c0.2-0.2,0.5-0.4,0.8-0.6s0.7-0.2,1.1-0.2
		c0.4,0,0.7,0,1,0.1c0.3,0.1,0.6,0.2,0.8,0.4c0.2,0.2,0.4,0.4,0.5,0.7c0.1,0.3,0.2,0.6,0.2,1c0,0.4-0.1,0.7-0.3,1s-0.5,0.5-0.8,0.7
		v0c0.5,0.1,0.9,0.4,1.2,0.7s0.4,0.8,0.4,1.3c0,0.4-0.1,0.8-0.2,1.1c-0.2,0.3-0.4,0.6-0.6,0.8c-0.3,0.2-0.6,0.4-0.9,0.5
		c-0.4,0.1-0.7,0.2-1.1,0.2c-0.4,0-0.8-0.1-1.2-0.2c-0.4-0.1-0.7-0.3-0.9-0.5s-0.4-0.5-0.6-0.9s-0.2-0.7-0.2-1.2h1
		c0,0.6,0.2,1,0.5,1.3c0.3,0.3,0.7,0.5,1.3,0.5c0.2,0,0.5,0,0.7-0.1c0.2-0.1,0.4-0.2,0.6-0.3c0.2-0.1,0.3-0.3,0.4-0.5
		c0.1-0.2,0.2-0.4,0.2-0.7c0-0.3,0-0.5-0.1-0.7c-0.1-0.2-0.2-0.4-0.4-0.5c-0.2-0.1-0.3-0.2-0.6-0.3c-0.2-0.1-0.5-0.1-0.7-0.1
		c-0.2,0-0.4,0-0.6,0v-0.9C735.4,152.5,735.4,152.5,735.5,152.5z"/>
	<path d="M741.8,156v1.3h-1.3V156H741.8z"/>
	<path d="M743.7,150.1c0.1-0.3,0.3-0.5,0.6-0.7c0.2-0.2,0.5-0.3,0.8-0.4c0.3-0.1,0.6-0.1,0.9-0.1c0.5,0,0.9,0.1,1.2,0.2
		s0.6,0.3,0.8,0.5s0.4,0.4,0.5,0.7s0.1,0.5,0.1,0.8c0,0.4-0.1,0.7-0.3,1c-0.2,0.3-0.5,0.6-0.9,0.7c0.5,0.2,0.9,0.4,1.1,0.8
		s0.4,0.8,0.4,1.3c0,0.4-0.1,0.8-0.2,1.1c-0.1,0.3-0.3,0.6-0.6,0.8c-0.3,0.2-0.5,0.4-0.9,0.5c-0.3,0.1-0.7,0.2-1.1,0.2
		c-0.4,0-0.8-0.1-1.1-0.2c-0.4-0.1-0.7-0.3-0.9-0.5c-0.3-0.2-0.5-0.5-0.6-0.8c-0.1-0.3-0.2-0.7-0.2-1.1c0-0.5,0.1-0.9,0.4-1.3
		c0.3-0.4,0.6-0.6,1.1-0.8c-0.4-0.1-0.6-0.4-0.9-0.7c-0.2-0.3-0.3-0.7-0.3-1.1C743.5,150.7,743.6,150.4,743.7,150.1z M744.8,156.2
		c0.3,0.3,0.8,0.4,1.3,0.4c0.3,0,0.5,0,0.7-0.1s0.4-0.2,0.6-0.3c0.2-0.1,0.3-0.3,0.4-0.5s0.1-0.4,0.1-0.7c0-0.2,0-0.4-0.1-0.6
		s-0.2-0.4-0.4-0.5c-0.2-0.1-0.3-0.3-0.6-0.3s-0.4-0.1-0.7-0.1c-0.2,0-0.5,0-0.7,0.1c-0.2,0.1-0.4,0.2-0.6,0.3
		c-0.2,0.1-0.3,0.3-0.4,0.5c-0.1,0.2-0.1,0.4-0.1,0.7C744.3,155.5,744.5,155.9,744.8,156.2z M744.7,151.7c0.1,0.2,0.2,0.3,0.3,0.4
		c0.1,0.1,0.3,0.2,0.5,0.3c0.2,0.1,0.4,0.1,0.6,0.1c0.4,0,0.7-0.1,1-0.4s0.4-0.6,0.4-1c0-0.4-0.1-0.8-0.4-1c-0.3-0.2-0.6-0.3-1-0.3
		c-0.2,0-0.4,0-0.6,0.1c-0.2,0.1-0.3,0.1-0.5,0.3c-0.1,0.1-0.2,0.2-0.3,0.4c-0.1,0.2-0.1,0.3-0.1,0.6
		C744.6,151.3,744.7,151.5,744.7,151.7z"/>
	<path d="M752.2,152.5c0,0,0.1,0,0.1,0h0.2c0.2,0,0.4,0,0.6-0.1c0.2-0.1,0.4-0.1,0.5-0.3c0.1-0.1,0.3-0.3,0.4-0.4s0.1-0.4,0.1-0.6
		c0-0.5-0.1-0.8-0.4-1c-0.3-0.2-0.6-0.3-1.1-0.3c-0.3,0-0.5,0.1-0.7,0.2c-0.2,0.1-0.4,0.2-0.5,0.4s-0.2,0.4-0.3,0.6
		c-0.1,0.2-0.1,0.5-0.1,0.7h-1c0-0.4,0.1-0.8,0.2-1.1c0.1-0.3,0.3-0.6,0.5-0.9c0.2-0.2,0.5-0.4,0.8-0.6s0.7-0.2,1.1-0.2
		c0.4,0,0.7,0,1,0.1c0.3,0.1,0.6,0.2,0.8,0.4c0.2,0.2,0.4,0.4,0.5,0.7c0.1,0.3,0.2,0.6,0.2,1c0,0.4-0.1,0.7-0.3,1s-0.5,0.5-0.8,0.7
		v0c0.5,0.1,0.9,0.4,1.2,0.7s0.4,0.8,0.4,1.3c0,0.4-0.1,0.8-0.2,1.1c-0.2,0.3-0.4,0.6-0.6,0.8c-0.3,0.2-0.6,0.4-0.9,0.5
		c-0.4,0.1-0.7,0.2-1.1,0.2c-0.4,0-0.8-0.1-1.2-0.2c-0.4-0.1-0.7-0.3-0.9-0.5s-0.4-0.5-0.6-0.9s-0.2-0.7-0.2-1.2h1
		c0,0.6,0.2,1,0.5,1.3c0.3,0.3,0.7,0.5,1.3,0.5c0.2,0,0.5,0,0.7-0.1c0.2-0.1,0.4-0.2,0.6-0.3c0.2-0.1,0.3-0.3,0.4-0.5
		c0.1-0.2,0.2-0.4,0.2-0.7c0-0.3,0-0.5-0.1-0.7c-0.1-0.2-0.2-0.4-0.4-0.5c-0.2-0.1-0.3-0.2-0.6-0.3c-0.2-0.1-0.5-0.1-0.7-0.1
		c-0.2,0-0.4,0-0.6,0v-0.9C752.1,152.5,752.1,152.5,752.2,152.5z"/>
	<path d="M761.6,157.5c-0.3,0-0.5-0.1-0.6-0.2c-0.2-0.1-0.2-0.4-0.2-0.7c-0.3,0.3-0.6,0.6-1,0.7c-0.4,0.1-0.8,0.2-1.2,0.2
		c-0.3,0-0.5,0-0.8-0.1c-0.2-0.1-0.5-0.2-0.7-0.3c-0.2-0.1-0.3-0.3-0.4-0.5c-0.1-0.2-0.2-0.5-0.2-0.8c0-0.4,0.1-0.6,0.2-0.9
		s0.3-0.4,0.5-0.5s0.4-0.2,0.7-0.3s0.5-0.1,0.8-0.2c0.3-0.1,0.5-0.1,0.8-0.1s0.5-0.1,0.7-0.1s0.3-0.1,0.5-0.2
		c0.1-0.1,0.2-0.2,0.2-0.4c0-0.2,0-0.4-0.1-0.5s-0.2-0.2-0.3-0.3c-0.1-0.1-0.3-0.1-0.4-0.1c-0.2,0-0.3,0-0.5,0
		c-0.4,0-0.8,0.1-1.1,0.2s-0.4,0.5-0.5,0.9h-1c0-0.4,0.1-0.7,0.2-1c0.1-0.3,0.3-0.5,0.6-0.6c0.2-0.2,0.5-0.3,0.8-0.4
		c0.3-0.1,0.6-0.1,1-0.1c0.3,0,0.6,0,0.8,0.1c0.3,0,0.5,0.1,0.8,0.2s0.4,0.3,0.5,0.5c0.1,0.2,0.2,0.5,0.2,0.9v3.2c0,0.2,0,0.4,0,0.5
		s0.1,0.2,0.3,0.2c0.1,0,0.2,0,0.3-0.1v0.8C762.2,157.4,761.9,157.5,761.6,157.5z M760.2,154.4c-0.2,0-0.4,0.1-0.7,0.1
		c-0.2,0-0.5,0.1-0.7,0.1c-0.2,0-0.4,0.1-0.6,0.2c-0.2,0.1-0.3,0.2-0.5,0.3c-0.1,0.1-0.2,0.4-0.2,0.6c0,0.2,0,0.3,0.1,0.4
		c0.1,0.1,0.2,0.2,0.3,0.3s0.2,0.1,0.4,0.2c0.1,0,0.3,0,0.5,0c0.3,0,0.6,0,0.9-0.1c0.2-0.1,0.4-0.2,0.6-0.3c0.2-0.1,0.3-0.3,0.3-0.5
		s0.1-0.3,0.1-0.5v-1C760.6,154.3,760.4,154.3,760.2,154.4z"/>
</g>
<polyline fill-rule="evenodd" clip-rule="evenodd" fill="none" stroke="#000000" stroke-width="0.25" points="77.4,244 77.4,252.1 
	655.7,252.1 655.7,244 "/>
</svg>
