<?xml version="1.0" encoding="utf-8"?>
<!-- Generator: Adobe Illustrator 17.1.0, SVG Export Plug-In . SVG Version: 6.00 Build 0)  -->
<!DOCTYPE svg PUBLIC "-//W3C//DTD SVG 1.1//EN" "http://www.w3.org/Graphics/SVG/1.1/DTD/svg11.dtd">
<svg version="1.1" id="图层_1" xmlns="http://www.w3.org/2000/svg" xmlns:xlink="http://www.w3.org/1999/xlink" x="0px" y="0px"
	 viewBox="0 0 68.8 69.7" enable-background="new 0 0 68.8 69.7" xml:space="preserve">
<g>
	<line fill="none" stroke="#000000" stroke-width="0.25" x1="51.4" y1="29.3" x2="0.3" y2="29.3"/>
	<line fill="none" stroke="#000000" stroke-width="0.25" x1="0.3" y1="35.5" x2="0.3" y2="29.3"/>
	<g>
		<line fill="none" stroke="#000000" stroke-width="0.25" x1="51.3" y1="35.5" x2="51.3" y2="29.3"/>
	</g>
</g>
<line fill-rule="evenodd" clip-rule="evenodd" fill="none" stroke="#211816" stroke-width="0.25" x1="68.8" y1="0" x2="68.8" y2="69.7"/>
<g id="形状_2_copy_3_副本_4_13_">
	<g>
		<path fill-rule="evenodd" clip-rule="evenodd" fill="#FF6600" d="M3.2,39.5c-1,1.9-1.9,3.6-2.9,5.6h1.4c0.3-0.5,0.4-0.8,0.7-1.3
			c0.7,0,1.3,0,2,0C4.2,43.3,4.1,43,4,42.7H2.9c0.3-0.6,0.5-1,1-1.9c0.5,1.5,1,2.9,1.5,4.3h1.3c-0.7-2-1.3-3.7-2-5.6H3.2z M7,45.1
			h1.2l0.3-5.6l-1.2,0L7,45.1z M8.9,45.1h1.3l0.2-4.2H9.1L8.9,45.1z M9.1,39.5l0,0.9c0,0,0.9,0,1.2,0l0-0.9
			C9.3,39.5,9.3,39.5,9.1,39.5z M16.8,40.9c-0.2-0.1-0.4-0.1-0.7-0.1c-0.1,0-0.3,0-0.4,0c-0.1,0-0.2,0.1-0.4,0.1
			c-0.1,0-0.2,0.1-0.3,0.2c-0.1,0.1-0.2,0.1-0.2,0.2c-0.1,0.1-0.1,0.1-0.2,0.2c-0.1-0.1-0.1-0.2-0.2-0.3c0-0.1-0.1-0.1-0.2-0.2
			c-0.1-0.1-0.1-0.1-0.2-0.1c-0.1,0-0.2-0.1-0.3-0.1c-0.1,0-0.2,0-0.4,0c-0.2,0-0.3,0-0.5,0.1c-0.2,0-0.3,0.1-0.4,0.2
			c-0.1,0.1-0.2,0.1-0.3,0.2c-0.1,0.1-0.2,0.2-0.2,0.3l0-0.7H11l-0.2,4.2c0,0,0.9,0,1.2,0c0-0.4,0-0.8,0-1.5c0-0.6,0.1-1,0.1-1.2
			c0.1-0.2,0.2-0.4,0.3-0.5c0.1-0.1,0.3-0.2,0.5-0.2c0.1,0,0.2,0,0.3,0.1c0.1,0,0.1,0.1,0.2,0.2c0.1,0.1,0.1,0.2,0.1,0.2
			c0,0.1,0,0.2,0,0.3c0,0.2,0,0.7-0.1,1.3c0,0.7-0.1,1.1-0.1,1.3c0.3,0,1,0,1.2,0l0-1.1c0-0.4,0-0.7,0.1-1c0-0.3,0.1-0.4,0.1-0.6
			c0-0.1,0.1-0.3,0.2-0.4c0.1-0.1,0.2-0.2,0.3-0.2c0.1,0,0.2-0.1,0.3-0.1c0.1,0,0.2,0,0.3,0.1c0.1,0,0.2,0.1,0.2,0.2
			c0.1,0.1,0.1,0.3,0.1,0.4c0,0.2,0,0.4,0,0.6l0,0.9c0,0.4,0,0.8-0.1,1.1c0.2,0,1,0,1.2,0c0-0.3,0-0.8,0-1.3c0-0.6,0.1-1,0.1-1.3
			c0-0.3,0-0.4,0-0.6c0-0.3-0.1-0.5-0.2-0.6C17.2,41.1,17,41,16.8,40.9z M21.3,40.9c-0.3-0.1-0.5-0.1-0.8-0.1c-0.3,0-0.5,0-0.8,0.1
			c-0.3,0-1,0.2-1,0.2l-0.1,0.8c0,0,1.2-0.4,1.7-0.4c0.1,0,0.3,0,0.4,0c0.1,0,0.2,0.1,0.3,0.2c0.1,0.1,0.1,0.2,0.1,0.3
			c0,0.1,0,0.1,0,0.2c0,0.1-0.1,0.1-0.1,0.2c0,0-0.1,0.1-0.2,0.1c-0.1,0-0.2,0.1-0.3,0.1c-0.1,0-0.2,0.1-0.3,0.1
			c-0.4,0.1-0.7,0.2-1,0.3c-0.2,0.1-0.4,0.2-0.6,0.3c-0.1,0.1-0.2,0.2-0.3,0.3c-0.1,0.1-0.1,0.2-0.2,0.3c0,0.1-0.1,0.2-0.1,0.4
			c0,0.2,0.1,0.4,0.2,0.6c0.1,0.2,0.3,0.4,0.5,0.4c0.2,0.1,0.5,0.1,0.9,0.1c0.1,0,0.2,0,0.3,0c0.1,0,0.3,0,0.5-0.1
			c0.1-0.3,0.1-0.5,0.2-0.7c-0.2,0.1-0.3,0.1-0.4,0.1c-0.1,0-0.2,0-0.3,0c-0.1,0-0.3,0-0.4,0c-0.1,0-0.2-0.1-0.3-0.2
			C19.1,44.2,19,44.1,19,44c0-0.1,0-0.1,0-0.2c0-0.1,0.1-0.1,0.1-0.2c0.1-0.1,0.1-0.1,0.2-0.2c0.1,0,0.2-0.1,0.3-0.1
			c0.1,0,0.2-0.1,0.4-0.1c0.2,0,0.3-0.1,0.4-0.1c0.1,0,0.1,0,0.2-0.1c0.1,0,0.1-0.1,0.2-0.1l-0.1,2.2h1.2c0,0,0-1.3,0.1-2
			c0-0.6,0.1-1,0.1-1.2c0-0.3-0.1-0.5-0.2-0.7C21.7,41.1,21.5,41,21.3,40.9z M28.6,40.9c-0.2-0.1-0.4-0.1-0.7-0.1
			c-0.1,0-0.3,0-0.4,0c-0.1,0-0.2,0.1-0.4,0.1c-0.1,0-0.2,0.1-0.3,0.2c-0.1,0.1-0.2,0.1-0.2,0.2c-0.1,0.1-0.1,0.1-0.2,0.2
			c-0.1-0.1-0.1-0.2-0.2-0.3c0-0.1-0.1-0.1-0.2-0.2C26.1,41,26.1,41,26,40.9c-0.1,0-0.2-0.1-0.3-0.1c-0.1,0-0.2,0-0.4,0
			c-0.2,0-0.3,0-0.5,0.1c-0.2,0-0.3,0.1-0.4,0.2c-0.1,0.1-0.2,0.1-0.3,0.2c-0.1,0.1-0.2,0.2-0.2,0.3l0-0.7h-1.1l-0.2,4.2h1.2
			c0,0,0-0.8,0-1.5c0-0.6,0.1-1,0.1-1.2c0.1-0.2,0.2-0.4,0.3-0.5c0.1-0.1,0.3-0.2,0.5-0.2c0.1,0,0.2,0,0.3,0.1
			c0.1,0,0.1,0.1,0.2,0.2c0.1,0.1,0.1,0.2,0.1,0.2c0,0.1,0,0.2,0,0.3c0,0.2,0,0.7-0.1,1.3c0,0.7-0.1,1.1-0.1,1.3c0.3,0,1,0,1.2,0
			l0-1.1c0-0.4,0-0.7,0.1-1c0-0.3,0.1-0.4,0.1-0.6c0-0.1,0.1-0.3,0.2-0.4c0.1-0.1,0.2-0.2,0.3-0.2c0.1,0,0.2-0.1,0.3-0.1
			c0.1,0,0.2,0,0.3,0.1c0.1,0,0.2,0.1,0.2,0.2c0.1,0.1,0.1,0.3,0.1,0.4c0,0.2,0,0.4,0,0.6l0,0.9c0,0.4,0,0.8-0.1,1.1
			c0.2,0,1,0,1.2,0c0-0.3,0-0.8,0-1.3c0-0.6,0.1-1,0.1-1.3c0-0.3,0-0.4,0-0.6c0-0.3-0.1-0.5-0.2-0.6C29,41.1,28.8,41,28.6,40.9z
			 M33.1,40.9c-0.3-0.1-0.5-0.1-0.8-0.1c-0.3,0-0.5,0-0.8,0.1c-0.3,0-1,0.2-1,0.2l-0.1,0.8c0,0,1.2-0.4,1.7-0.4c0.1,0,0.3,0,0.4,0
			c0.1,0,0.2,0.1,0.3,0.2c0.1,0.1,0.1,0.2,0.1,0.3c0,0.1,0,0.1,0,0.2c0,0.1-0.1,0.1-0.1,0.2c0,0-0.1,0.1-0.2,0.1
			c-0.1,0-0.2,0.1-0.3,0.1c-0.1,0-0.2,0.1-0.3,0.1c-0.4,0.1-0.7,0.2-1,0.3c-0.2,0.1-0.4,0.2-0.6,0.3c-0.1,0.1-0.2,0.2-0.3,0.3
			c-0.1,0.1-0.1,0.2-0.2,0.3c0,0.1-0.1,0.2-0.1,0.4c0,0.2,0.1,0.4,0.2,0.6c0.1,0.2,0.3,0.4,0.5,0.4c0.2,0.1,0.5,0.1,0.9,0.1
			c0.1,0,0.2,0,0.3,0c0.1,0,0.3,0,0.5-0.1c0.1-0.3,0.1-0.5,0.2-0.7c-0.2,0.1-0.3,0.1-0.4,0.1c-0.1,0-0.2,0-0.3,0c-0.1,0-0.3,0-0.4,0
			c-0.1,0-0.2-0.1-0.3-0.2c-0.1-0.1-0.1-0.2-0.1-0.3c0-0.1,0-0.1,0-0.2c0-0.1,0.1-0.1,0.1-0.2c0.1-0.1,0.1-0.1,0.2-0.2
			c0.1,0,0.2-0.1,0.3-0.1c0.1,0,0.2-0.1,0.4-0.1c0.2,0,0.3-0.1,0.4-0.1c0.1,0,0.1,0,0.2-0.1c0.1,0,0.1-0.1,0.2-0.1l-0.1,2.2h1.2
			c0,0,0-1.3,0.1-2c0-0.6,0.1-1,0.1-1.2c0-0.3-0.1-0.5-0.2-0.7C33.5,41.1,33.3,41,33.1,40.9z M34.4,44c0,0.5,0,0.9,0,1.1
			c0.4,0,1.2,0,1.2,0s0-0.9,0.1-1.1C35.3,44,34.4,44,34.4,44z M37.5,42c0.1-0.1,0.3-0.2,0.4-0.3c0.2-0.1,0.3-0.1,0.5-0.1
			c0.3,0,0.7,0.1,1.1,0.2L39.4,41c-0.3-0.1-0.5-0.1-0.7-0.1c-0.2,0-0.4,0-0.6,0c-0.3,0-0.6,0-0.9,0.1c-0.3,0.1-0.5,0.2-0.7,0.4
			c-0.2,0.2-0.4,0.5-0.5,0.8c-0.1,0.3-0.2,0.7-0.2,1c0,0.3,0,0.5,0.1,0.8c0.1,0.2,0.2,0.5,0.3,0.6c0.1,0.2,0.3,0.3,0.5,0.4
			c0.2,0.1,0.4,0.2,0.6,0.2c0.2,0,0.4,0.1,0.6,0.1c0.4,0,0.8,0,1.2-0.1c0-0.2,0.1-0.4,0.1-0.5c0-0.1,0-0.3,0.1-0.4
			c-0.2,0.1-0.4,0.1-0.6,0.2c-0.2,0-0.3,0-0.5,0c-0.3,0-0.5-0.1-0.7-0.2c-0.2-0.1-0.3-0.3-0.4-0.4c-0.1-0.2-0.1-0.4-0.1-0.7
			c0-0.2,0-0.4,0.1-0.5C37.3,42.3,37.4,42.2,37.5,42z M43.8,41.4c-0.2-0.2-0.4-0.3-0.7-0.4c-0.3-0.1-0.6-0.1-0.9-0.1
			c-0.3,0-0.7,0.1-1,0.2c-0.3,0.1-0.6,0.3-0.8,0.5c-0.2,0.2-0.4,0.5-0.5,0.7c-0.1,0.3-0.1,0.6-0.1,0.9c0,0.3,0.1,0.6,0.2,0.9
			c0.1,0.3,0.3,0.5,0.5,0.7c0.2,0.2,0.4,0.3,0.7,0.4c0.3,0.1,0.6,0.1,0.9,0.1c0.3,0,0.7-0.1,1-0.2c0.3-0.1,0.6-0.3,0.8-0.5
			c0.2-0.2,0.4-0.5,0.5-0.8c0.1-0.3,0.2-0.6,0.2-0.9c0-0.3-0.1-0.6-0.2-0.8C44.1,41.8,44,41.5,43.8,41.4z M43.1,43.7
			c-0.1,0.2-0.2,0.4-0.4,0.5c-0.2,0.1-0.4,0.2-0.6,0.2c-0.2,0-0.4-0.1-0.6-0.2c-0.2-0.1-0.3-0.3-0.4-0.5c-0.1-0.2-0.1-0.4-0.1-0.6
			c0-0.3,0-0.5,0.1-0.8c0.1-0.2,0.2-0.4,0.4-0.5c0.2-0.1,0.4-0.2,0.6-0.2c0.2,0,0.4,0.1,0.6,0.2c0.2,0.1,0.3,0.3,0.4,0.4
			c0.1,0.2,0.1,0.4,0.1,0.6C43.2,43.2,43.2,43.4,43.1,43.7z M51.2,41.3c-0.1-0.2-0.3-0.3-0.5-0.4c-0.2-0.1-0.4-0.1-0.7-0.1
			c-0.1,0-0.3,0-0.4,0c-0.1,0-0.2,0.1-0.4,0.1c-0.1,0-0.2,0.1-0.3,0.2c-0.1,0.1-0.2,0.1-0.2,0.2c-0.1,0.1-0.1,0.1-0.2,0.2
			c-0.1-0.1-0.1-0.2-0.2-0.3c0-0.1-0.1-0.1-0.2-0.2C48.2,41,48.1,41,48,40.9c-0.1,0-0.2-0.1-0.3-0.1c-0.1,0-0.2,0-0.4,0
			c-0.2,0-0.3,0-0.5,0.1c-0.2,0-0.3,0.1-0.4,0.2c-0.1,0.1-0.2,0.1-0.3,0.2c-0.1,0.1-0.2,0.2-0.2,0.3l0-0.7c-0.2,0-0.9,0-1.1,0
			c0,0.5-0.1,3.7-0.2,4.2c0.3,0,0.9,0,1.2,0c0-0.4,0-0.8,0-1.5c0-0.6,0.1-1,0.1-1.2c0.1-0.2,0.2-0.4,0.3-0.5
			c0.1-0.1,0.3-0.2,0.5-0.2c0.1,0,0.2,0,0.3,0.1c0.1,0,0.1,0.1,0.2,0.2c0.1,0.1,0.1,0.2,0.1,0.2c0,0.1,0,0.2,0,0.3
			c0,0.2,0,0.7-0.1,1.3c0,0.7-0.1,1.1-0.1,1.3c0.3,0,1,0,1.2,0l0-1.1c0-0.4,0-0.7,0.1-1c0-0.3,0.1-0.4,0.1-0.6
			c0-0.1,0.1-0.3,0.2-0.4c0.1-0.1,0.2-0.2,0.3-0.2c0.1,0,0.2-0.1,0.3-0.1c0.1,0,0.2,0,0.3,0.1c0.1,0,0.2,0.1,0.2,0.2
			c0.1,0.1,0.1,0.3,0.1,0.4c0,0.2,0,0.4,0,0.6l0,0.9c0,0.4,0,0.8-0.1,1.1c0.2,0,1,0,1.2,0c0-0.3,0-0.8,0-1.3c0-0.6,0.1-1,0.1-1.3
			c0-0.3,0-0.4,0-0.6C51.4,41.7,51.3,41.5,51.2,41.3z"/>
	</g>
</g>
<g>
	<path d="M13.2,24.5v-6.1H11v-0.8c0.3,0,0.6,0,0.8-0.1s0.5-0.1,0.7-0.2c0.2-0.1,0.4-0.3,0.6-0.5c0.2-0.2,0.3-0.5,0.3-0.8h0.8v8.5
		H13.2z"/>
	<path d="M17.3,17.8c0.1-0.4,0.3-0.7,0.5-1c0.2-0.3,0.5-0.5,0.9-0.6c0.4-0.2,0.8-0.2,1.2-0.2c0.4,0,0.7,0.1,1,0.2
		c0.3,0.1,0.6,0.3,0.8,0.5c0.2,0.2,0.4,0.5,0.6,0.8c0.1,0.3,0.2,0.7,0.2,1.1c0,0.4-0.1,0.7-0.2,1c-0.1,0.3-0.3,0.5-0.5,0.8
		c-0.2,0.2-0.4,0.4-0.7,0.6s-0.5,0.4-0.8,0.5c-0.3,0.2-0.5,0.3-0.8,0.5c-0.3,0.2-0.5,0.3-0.7,0.5c-0.2,0.2-0.4,0.4-0.6,0.6
		c-0.2,0.2-0.3,0.4-0.3,0.7h4.4v0.9h-5.6c0-0.5,0.1-0.9,0.3-1.3c0.1-0.4,0.3-0.7,0.5-0.9c0.2-0.3,0.5-0.5,0.7-0.7
		c0.3-0.2,0.6-0.4,0.9-0.6c0.4-0.2,0.7-0.4,0.9-0.6c0.3-0.2,0.5-0.4,0.7-0.6c0.2-0.2,0.3-0.4,0.4-0.6s0.1-0.5,0.1-0.8
		c0-0.2,0-0.4-0.1-0.6c-0.1-0.2-0.2-0.3-0.4-0.5c-0.1-0.1-0.3-0.2-0.5-0.3c-0.2-0.1-0.4-0.1-0.6-0.1c-0.3,0-0.6,0.1-0.8,0.2
		s-0.4,0.3-0.5,0.5c-0.1,0.2-0.2,0.4-0.3,0.7s-0.1,0.5-0.1,0.8h-1C17.1,18.6,17.2,18.2,17.3,17.8z"/>
	<path d="M25,18.3v0.9h0c0.5-0.7,1.1-1.1,2-1.1c0.4,0,0.7,0.1,1,0.2c0.3,0.2,0.5,0.4,0.7,0.8c0.2-0.3,0.5-0.6,0.8-0.8
		c0.3-0.2,0.7-0.3,1.1-0.3c0.3,0,0.6,0,0.8,0.1c0.3,0.1,0.5,0.2,0.6,0.3c0.2,0.1,0.3,0.3,0.4,0.6c0.1,0.2,0.1,0.5,0.1,0.8v4.5h-1
		v-4.1c0-0.2,0-0.4,0-0.5s-0.1-0.3-0.2-0.4c-0.1-0.1-0.2-0.2-0.4-0.3s-0.4-0.1-0.6-0.1c-0.5,0-0.9,0.1-1.2,0.4s-0.4,0.7-0.4,1.2v3.9
		h-1v-4.1c0-0.2,0-0.4-0.1-0.6c0-0.2-0.1-0.3-0.2-0.4c-0.1-0.1-0.2-0.2-0.4-0.3c-0.1-0.1-0.3-0.1-0.6-0.1c-0.3,0-0.5,0.1-0.8,0.2
		c-0.2,0.1-0.4,0.3-0.5,0.4s-0.2,0.3-0.3,0.5c-0.1,0.2-0.1,0.3-0.1,0.5v3.9h-1v-6.2H25z"/>
	<path d="M35.3,18.3v0.9h0c0.5-0.7,1.1-1.1,2-1.1c0.4,0,0.7,0.1,1,0.2c0.3,0.2,0.5,0.4,0.7,0.8c0.2-0.3,0.5-0.6,0.8-0.8
		c0.3-0.2,0.7-0.3,1.1-0.3c0.3,0,0.6,0,0.8,0.1c0.3,0.1,0.5,0.2,0.6,0.3c0.2,0.1,0.3,0.3,0.4,0.6c0.1,0.2,0.1,0.5,0.1,0.8v4.5h-1
		v-4.1c0-0.2,0-0.4,0-0.5s-0.1-0.3-0.2-0.4c-0.1-0.1-0.2-0.2-0.4-0.3s-0.4-0.1-0.6-0.1c-0.5,0-0.9,0.1-1.2,0.4s-0.4,0.7-0.4,1.2v3.9
		h-1v-4.1c0-0.2,0-0.4-0.1-0.6c0-0.2-0.1-0.3-0.2-0.4c-0.1-0.1-0.2-0.2-0.4-0.3c-0.1-0.1-0.3-0.1-0.6-0.1c-0.3,0-0.5,0.1-0.8,0.2
		c-0.2,0.1-0.4,0.3-0.5,0.4s-0.2,0.3-0.3,0.5c-0.1,0.2-0.1,0.3-0.1,0.5v3.9h-1v-6.2H35.3z"/>
</g>
</svg>
