<?xml version="1.0" encoding="utf-8"?>
<!-- Generator: Adobe Illustrator 17.1.0, SVG Export Plug-In . SVG Version: 6.00 Build 0)  -->
<!DOCTYPE svg PUBLIC "-//W3C//DTD SVG 1.1//EN" "http://www.w3.org/Graphics/SVG/1.1/DTD/svg11.dtd">
<svg version="1.1" id="图层_1" xmlns="http://www.w3.org/2000/svg" xmlns:xlink="http://www.w3.org/1999/xlink" x="0px" y="0px"
	 viewBox="0 0 772 352.2" enable-background="new 0 0 772 352.2" xml:space="preserve">
<rect x="0.4" y="29.4" fill="#E5E5E5" width="646" height="278.9"/>
<rect x="34.4" y="63.4" fill="#FFFFFF" width="577.9" height="210.9"/>
<g>
	<path d="M317.4,344.4c0,0,0.1,0,0.1,0h0.2c0.2,0,0.4,0,0.6-0.1c0.2-0.1,0.4-0.1,0.5-0.3c0.1-0.1,0.3-0.3,0.4-0.4s0.1-0.4,0.1-0.6
		c0-0.5-0.1-0.8-0.4-1c-0.3-0.2-0.6-0.3-1.1-0.3c-0.3,0-0.5,0.1-0.7,0.2c-0.2,0.1-0.4,0.2-0.5,0.4s-0.2,0.4-0.3,0.6
		c-0.1,0.2-0.1,0.5-0.1,0.7h-1c0-0.4,0.1-0.8,0.2-1.1c0.1-0.3,0.3-0.6,0.5-0.9c0.2-0.2,0.5-0.4,0.8-0.6s0.7-0.2,1.1-0.2
		c0.4,0,0.7,0,1,0.1c0.3,0.1,0.6,0.2,0.8,0.4c0.2,0.2,0.4,0.4,0.5,0.7c0.1,0.3,0.2,0.6,0.2,1c0,0.4-0.1,0.7-0.3,1s-0.5,0.5-0.8,0.7
		v0c0.5,0.1,0.9,0.4,1.2,0.7s0.4,0.8,0.4,1.3c0,0.4-0.1,0.8-0.2,1.1c-0.2,0.3-0.4,0.6-0.6,0.8c-0.3,0.2-0.6,0.4-0.9,0.5
		c-0.4,0.1-0.7,0.2-1.1,0.2c-0.4,0-0.8-0.1-1.2-0.2c-0.4-0.1-0.7-0.3-0.9-0.5s-0.4-0.5-0.6-0.9s-0.2-0.7-0.2-1.2h1
		c0,0.6,0.2,1,0.5,1.3c0.3,0.3,0.7,0.5,1.3,0.5c0.2,0,0.5,0,0.7-0.1c0.2-0.1,0.4-0.2,0.6-0.3c0.2-0.1,0.3-0.3,0.4-0.5
		c0.1-0.2,0.2-0.4,0.2-0.7c0-0.3,0-0.5-0.1-0.7c-0.1-0.2-0.2-0.4-0.4-0.5c-0.2-0.1-0.3-0.2-0.6-0.3c-0.2-0.1-0.5-0.1-0.7-0.1
		c-0.2,0-0.4,0-0.6,0v-0.9C317.4,344.4,317.4,344.4,317.4,344.4z"/>
	<path d="M327.6,346.4v0.9h-1.2v2h-1v-2h-3.7v-1l3.9-5.5h0.8v5.6H327.6z M325.5,342.2L325.5,342.2l-2.9,4.2h2.9V342.2z"/>
	<path d="M333.6,349.4c-0.3,0-0.5-0.1-0.6-0.2c-0.2-0.1-0.2-0.4-0.2-0.7c-0.3,0.3-0.6,0.6-1,0.7c-0.4,0.1-0.8,0.2-1.2,0.2
		c-0.3,0-0.5,0-0.8-0.1c-0.2-0.1-0.5-0.2-0.7-0.3c-0.2-0.1-0.3-0.3-0.4-0.5c-0.1-0.2-0.2-0.5-0.2-0.8c0-0.4,0.1-0.6,0.2-0.9
		s0.3-0.4,0.5-0.5s0.4-0.2,0.7-0.3s0.5-0.1,0.8-0.2c0.3-0.1,0.5-0.1,0.8-0.1s0.5-0.1,0.7-0.1s0.3-0.1,0.5-0.2
		c0.1-0.1,0.2-0.2,0.2-0.4c0-0.2,0-0.4-0.1-0.5s-0.2-0.2-0.3-0.3c-0.1-0.1-0.3-0.1-0.4-0.1c-0.2,0-0.3,0-0.5,0
		c-0.4,0-0.8,0.1-1.1,0.2s-0.4,0.5-0.5,0.9h-1c0-0.4,0.1-0.7,0.2-1c0.1-0.3,0.3-0.5,0.6-0.6c0.2-0.2,0.5-0.3,0.8-0.4
		c0.3-0.1,0.6-0.1,1-0.1c0.3,0,0.6,0,0.8,0.1c0.3,0,0.5,0.1,0.8,0.2s0.4,0.3,0.5,0.5c0.1,0.2,0.2,0.5,0.2,0.9v3.2c0,0.2,0,0.4,0,0.5
		s0.1,0.2,0.3,0.2c0.1,0,0.2,0,0.3-0.1v0.8C334.1,349.3,333.9,349.4,333.6,349.4z M332.2,346.3c-0.2,0-0.4,0.1-0.7,0.1
		c-0.2,0-0.5,0.1-0.7,0.1c-0.2,0-0.4,0.1-0.6,0.2c-0.2,0.1-0.3,0.2-0.5,0.3c-0.1,0.1-0.2,0.4-0.2,0.6c0,0.2,0,0.3,0.1,0.4
		c0.1,0.1,0.2,0.2,0.3,0.3s0.2,0.1,0.4,0.2c0.1,0,0.3,0,0.5,0c0.3,0,0.6,0,0.9-0.1c0.2-0.1,0.4-0.2,0.6-0.3c0.2-0.1,0.3-0.3,0.3-0.5
		s0.1-0.3,0.1-0.5v-1C332.5,346.2,332.4,346.2,332.2,346.3z"/>
</g>
<polyline fill="none" stroke="#211816" stroke-width="0.3569" points="712.7,273.2 723.3,273.2 723.3,63.2 713.2,63.2 "/>
<polyline fill="none" stroke="#211816" stroke-width="0.3569" points="655.4,209.6 666,209.6 666,183.2 655.9,183.2 "/>
<g>
	<path d="M735.4,165.1V159h-2.2v-0.8c0.3,0,0.6,0,0.8-0.1c0.3,0,0.5-0.1,0.7-0.2s0.4-0.3,0.6-0.5c0.2-0.2,0.3-0.5,0.3-0.8h0.8v8.5
		H735.4z"/>
	<path d="M739.5,158.4c0.1-0.4,0.3-0.7,0.5-1c0.2-0.3,0.5-0.5,0.9-0.6c0.4-0.2,0.8-0.2,1.2-0.2c0.4,0,0.7,0.1,1,0.2
		c0.3,0.1,0.6,0.3,0.8,0.5c0.2,0.2,0.4,0.5,0.6,0.8c0.1,0.3,0.2,0.7,0.2,1.1c0,0.4-0.1,0.7-0.2,1c-0.1,0.3-0.3,0.5-0.5,0.8
		c-0.2,0.2-0.4,0.4-0.7,0.6s-0.5,0.4-0.8,0.5c-0.3,0.2-0.5,0.3-0.8,0.5c-0.3,0.2-0.5,0.3-0.7,0.5c-0.2,0.2-0.4,0.4-0.6,0.6
		c-0.2,0.2-0.3,0.4-0.3,0.7h4.4v0.9h-5.6c0-0.5,0.1-0.9,0.3-1.3c0.1-0.4,0.3-0.7,0.5-0.9c0.2-0.3,0.5-0.5,0.7-0.7
		c0.3-0.2,0.6-0.4,0.9-0.6c0.4-0.2,0.7-0.4,0.9-0.6c0.3-0.2,0.5-0.4,0.7-0.6c0.2-0.2,0.3-0.4,0.4-0.6s0.1-0.5,0.1-0.8
		c0-0.2,0-0.4-0.1-0.6c-0.1-0.2-0.2-0.3-0.4-0.5c-0.1-0.1-0.3-0.2-0.5-0.3s-0.4-0.1-0.6-0.1c-0.3,0-0.5,0.1-0.8,0.2
		c-0.2,0.1-0.4,0.3-0.5,0.5c-0.1,0.2-0.2,0.4-0.3,0.7s-0.1,0.5-0.1,0.8h-1C739.3,159.2,739.4,158.8,739.5,158.4z"/>
	<path d="M747.8,163.8v1.3h-1.3v-1.3H747.8z"/>
	<path d="M755,162.2v0.9h-1.2v2h-1v-2h-3.7v-1l3.9-5.5h0.8v5.6H755z M752.9,158L752.9,158l-2.9,4.2h2.9V158z"/>
	<path d="M758.2,160.2c0,0,0.1,0,0.1,0h0.2c0.2,0,0.4,0,0.6-0.1c0.2-0.1,0.4-0.1,0.5-0.3c0.1-0.1,0.3-0.3,0.4-0.4s0.1-0.4,0.1-0.6
		c0-0.5-0.1-0.8-0.4-1c-0.3-0.2-0.6-0.3-1.1-0.3c-0.3,0-0.5,0.1-0.7,0.2c-0.2,0.1-0.4,0.2-0.5,0.4s-0.2,0.4-0.3,0.6
		c-0.1,0.2-0.1,0.5-0.1,0.7h-1c0-0.4,0.1-0.8,0.2-1.1c0.1-0.3,0.3-0.6,0.5-0.9c0.2-0.2,0.5-0.4,0.8-0.6s0.7-0.2,1.1-0.2
		c0.4,0,0.7,0,1,0.1c0.3,0.1,0.6,0.2,0.8,0.4c0.2,0.2,0.4,0.4,0.5,0.7c0.1,0.3,0.2,0.6,0.2,1c0,0.4-0.1,0.7-0.3,1s-0.5,0.5-0.8,0.7
		v0c0.5,0.1,0.9,0.4,1.2,0.7s0.4,0.8,0.4,1.3c0,0.4-0.1,0.8-0.2,1.1c-0.2,0.3-0.4,0.6-0.6,0.8c-0.3,0.2-0.6,0.4-0.9,0.5
		c-0.4,0.1-0.7,0.2-1.1,0.2c-0.4,0-0.8-0.1-1.2-0.2c-0.4-0.1-0.7-0.3-0.9-0.5s-0.4-0.5-0.6-0.9s-0.2-0.7-0.2-1.2h1
		c0,0.6,0.2,1,0.5,1.3c0.3,0.3,0.7,0.5,1.3,0.5c0.2,0,0.5,0,0.7-0.1c0.2-0.1,0.4-0.2,0.6-0.3c0.2-0.1,0.3-0.3,0.4-0.5
		c0.1-0.2,0.2-0.4,0.2-0.7c0-0.3,0-0.5-0.1-0.7c-0.1-0.2-0.2-0.4-0.4-0.5c-0.2-0.1-0.3-0.2-0.6-0.3c-0.2-0.1-0.5-0.1-0.7-0.1
		c-0.2,0-0.4,0-0.6,0v-0.9C758.2,160.2,758.2,160.2,758.2,160.2z"/>
	<path d="M767.7,165.2c-0.3,0-0.5-0.1-0.6-0.2c-0.2-0.1-0.2-0.4-0.2-0.7c-0.3,0.3-0.6,0.6-1,0.7c-0.4,0.1-0.8,0.2-1.2,0.2
		c-0.3,0-0.5,0-0.8-0.1c-0.2-0.1-0.5-0.2-0.7-0.3c-0.2-0.1-0.3-0.3-0.4-0.5c-0.1-0.2-0.2-0.5-0.2-0.8c0-0.4,0.1-0.6,0.2-0.9
		s0.3-0.4,0.5-0.5s0.4-0.2,0.7-0.3s0.5-0.1,0.8-0.2c0.3-0.1,0.5-0.1,0.8-0.1s0.5-0.1,0.7-0.1s0.3-0.1,0.5-0.2
		c0.1-0.1,0.2-0.2,0.2-0.4c0-0.2,0-0.4-0.1-0.5s-0.2-0.2-0.3-0.3c-0.1-0.1-0.3-0.1-0.4-0.1c-0.2,0-0.3,0-0.5,0
		c-0.4,0-0.8,0.1-1.1,0.2s-0.4,0.5-0.5,0.9h-1c0-0.4,0.1-0.7,0.2-1c0.1-0.3,0.3-0.5,0.6-0.6c0.2-0.2,0.5-0.3,0.8-0.4
		c0.3-0.1,0.6-0.1,1-0.1c0.3,0,0.6,0,0.8,0.1c0.3,0,0.5,0.1,0.8,0.2s0.4,0.3,0.5,0.5c0.1,0.2,0.2,0.5,0.2,0.9v3.2c0,0.2,0,0.4,0,0.5
		s0.1,0.2,0.3,0.2c0.1,0,0.2,0,0.3-0.1v0.8C768.3,165.2,768,165.2,767.7,165.2z M766.3,162.1c-0.2,0-0.4,0.1-0.7,0.1
		c-0.2,0-0.5,0.1-0.7,0.1c-0.2,0-0.4,0.1-0.6,0.2c-0.2,0.1-0.3,0.2-0.5,0.3c-0.1,0.1-0.2,0.4-0.2,0.6c0,0.2,0,0.3,0.1,0.4
		c0.1,0.1,0.2,0.2,0.3,0.3s0.2,0.1,0.4,0.2c0.1,0,0.3,0,0.5,0c0.3,0,0.6,0,0.9-0.1c0.2-0.1,0.4-0.2,0.6-0.3c0.2-0.1,0.3-0.3,0.3-0.5
		s0.1-0.3,0.1-0.5v-1C766.7,162,766.5,162.1,766.3,162.1z"/>
</g>
<g>
	<path d="M674.3,201.2v-6.1h-2.2v-0.8c0.3,0,0.6,0,0.8-0.1c0.3,0,0.5-0.1,0.7-0.2s0.4-0.3,0.6-0.5c0.2-0.2,0.3-0.5,0.3-0.8h0.8v8.5
		H674.3z"/>
	<path d="M680.1,199.8v1.3h-1.3v-1.3H680.1z"/>
	<path d="M683.3,193.7l-0.5,2.4l0,0c0.2-0.2,0.4-0.4,0.7-0.5c0.3-0.1,0.6-0.1,0.9-0.1c0.4,0,0.7,0.1,1.1,0.2s0.6,0.3,0.9,0.5
		s0.4,0.5,0.6,0.9c0.1,0.4,0.2,0.8,0.2,1.3c0,0.4-0.1,0.7-0.2,1.1s-0.3,0.6-0.6,0.9c-0.2,0.3-0.6,0.5-0.9,0.6
		c-0.4,0.2-0.8,0.2-1.3,0.2c-0.4,0-0.7-0.1-1-0.2c-0.3-0.1-0.6-0.3-0.9-0.5c-0.2-0.2-0.4-0.5-0.6-0.8c-0.1-0.3-0.2-0.6-0.2-1h1
		c0,0.2,0.1,0.4,0.2,0.6c0.1,0.2,0.2,0.4,0.4,0.5c0.2,0.1,0.3,0.2,0.6,0.3c0.2,0.1,0.4,0.1,0.7,0.1c0.2,0,0.5,0,0.7-0.1
		s0.4-0.2,0.6-0.4s0.3-0.4,0.4-0.6c0.1-0.3,0.1-0.5,0.1-0.9c0-0.3,0-0.5-0.1-0.8s-0.2-0.4-0.4-0.6s-0.4-0.3-0.6-0.4
		c-0.2-0.1-0.5-0.1-0.8-0.1c-0.3,0-0.6,0.1-0.9,0.2c-0.3,0.1-0.5,0.3-0.7,0.6l-0.9,0l0.8-4.4h4.2v0.9H683.3z"/>
	<path d="M688.7,193.9c0.1-0.3,0.3-0.5,0.6-0.7c0.2-0.2,0.5-0.3,0.8-0.4c0.3-0.1,0.6-0.1,0.9-0.1c0.5,0,0.9,0.1,1.2,0.2
		s0.6,0.3,0.8,0.5s0.4,0.4,0.5,0.7s0.1,0.5,0.1,0.8c0,0.4-0.1,0.7-0.3,1c-0.2,0.3-0.5,0.6-0.9,0.7c0.5,0.2,0.9,0.4,1.1,0.8
		s0.4,0.8,0.4,1.3c0,0.4-0.1,0.8-0.2,1.1c-0.1,0.3-0.3,0.6-0.6,0.8c-0.3,0.2-0.5,0.4-0.9,0.5c-0.3,0.1-0.7,0.2-1.1,0.2
		c-0.4,0-0.8-0.1-1.1-0.2c-0.4-0.1-0.7-0.3-0.9-0.5c-0.3-0.2-0.5-0.5-0.6-0.8c-0.1-0.3-0.2-0.7-0.2-1.1c0-0.5,0.1-0.9,0.4-1.3
		c0.3-0.4,0.6-0.6,1.1-0.8c-0.4-0.1-0.6-0.4-0.9-0.7c-0.2-0.3-0.3-0.7-0.3-1.1C688.5,194.5,688.6,194.2,688.7,193.9z M689.8,200
		c0.3,0.3,0.8,0.4,1.3,0.4c0.3,0,0.5,0,0.7-0.1s0.4-0.2,0.6-0.3c0.2-0.1,0.3-0.3,0.4-0.5s0.1-0.4,0.1-0.7c0-0.2,0-0.4-0.1-0.6
		s-0.2-0.4-0.4-0.5c-0.2-0.1-0.3-0.3-0.6-0.3s-0.4-0.1-0.7-0.1c-0.2,0-0.5,0-0.7,0.1c-0.2,0.1-0.4,0.2-0.6,0.3
		c-0.2,0.1-0.3,0.3-0.4,0.5c-0.1,0.2-0.1,0.4-0.1,0.7C689.3,199.3,689.5,199.7,689.8,200z M689.7,195.5c0.1,0.2,0.2,0.3,0.3,0.4
		c0.1,0.1,0.3,0.2,0.5,0.3c0.2,0.1,0.4,0.1,0.6,0.1c0.4,0,0.7-0.1,1-0.4s0.4-0.6,0.4-1c0-0.4-0.1-0.8-0.4-1c-0.3-0.2-0.6-0.3-1-0.3
		c-0.2,0-0.4,0-0.6,0.1c-0.2,0.1-0.3,0.1-0.5,0.3c-0.1,0.1-0.2,0.2-0.3,0.4c-0.1,0.2-0.1,0.3-0.1,0.6
		C689.6,195.1,689.7,195.3,689.7,195.5z"/>
	<path d="M700,201.3c-0.3,0-0.5-0.1-0.6-0.2c-0.2-0.1-0.2-0.4-0.2-0.7c-0.3,0.3-0.6,0.6-1,0.7c-0.4,0.1-0.8,0.2-1.2,0.2
		c-0.3,0-0.5,0-0.8-0.1c-0.2-0.1-0.5-0.2-0.7-0.3c-0.2-0.1-0.3-0.3-0.4-0.5c-0.1-0.2-0.2-0.5-0.2-0.8c0-0.4,0.1-0.6,0.2-0.9
		s0.3-0.4,0.5-0.5s0.4-0.2,0.7-0.3s0.5-0.1,0.8-0.2c0.3-0.1,0.5-0.1,0.8-0.1s0.5-0.1,0.7-0.1s0.3-0.1,0.5-0.2
		c0.1-0.1,0.2-0.2,0.2-0.4c0-0.2,0-0.4-0.1-0.5s-0.2-0.2-0.3-0.3c-0.1-0.1-0.3-0.1-0.4-0.1c-0.2,0-0.3,0-0.5,0
		c-0.4,0-0.8,0.1-1.1,0.2s-0.4,0.5-0.5,0.9h-1c0-0.4,0.1-0.7,0.2-1c0.1-0.3,0.3-0.5,0.6-0.6c0.2-0.2,0.5-0.3,0.8-0.4
		c0.3-0.1,0.6-0.1,1-0.1c0.3,0,0.6,0,0.8,0.1c0.3,0,0.5,0.1,0.8,0.2s0.4,0.3,0.5,0.5c0.1,0.2,0.2,0.5,0.2,0.9v3.2c0,0.2,0,0.4,0,0.5
		s0.1,0.2,0.3,0.2c0.1,0,0.2,0,0.3-0.1v0.8C700.5,201.2,700.3,201.3,700,201.3z M698.5,198.2c-0.2,0-0.4,0.1-0.7,0.1
		c-0.2,0-0.5,0.1-0.7,0.1c-0.2,0-0.4,0.1-0.6,0.2c-0.2,0.1-0.3,0.2-0.5,0.3c-0.1,0.1-0.2,0.4-0.2,0.6c0,0.2,0,0.3,0.1,0.4
		c0.1,0.1,0.2,0.2,0.3,0.3s0.2,0.1,0.4,0.2c0.1,0,0.3,0,0.5,0c0.3,0,0.6,0,0.9-0.1c0.2-0.1,0.4-0.2,0.6-0.3c0.2-0.1,0.3-0.3,0.3-0.5
		s0.1-0.3,0.1-0.5v-1C698.9,198.1,698.7,198.1,698.5,198.2z"/>
</g>
<g>
	<g id="形状_2_copy_3_副本_4_14_">
		<g>
			<path fill-rule="evenodd" clip-rule="evenodd" fill="#CCCCCC" d="M66.4,209.7c-11.1,21.7-20.9,40.8-32.3,63.5h15.5
				c2.9-5.4,4.4-8.7,8-15.1c8.1,0,14.2,0,22.3,0c-1.6-4.7-2.8-8.3-4.2-12.1H63.4c3.6-7.2,5.7-11.3,11.1-21.2
				c5.8,16.6,11.6,33.3,17.2,48.4h14.1c-8-22.2-14.8-41.5-22.2-63.5H66.4z M109.4,273.2h13.4l2.9-63.6l-13.3,0L109.4,273.2z
				 M130.4,273.2h14.2l1.8-47.4h-13.6L130.4,273.2z M133.4,209.6l-0.4,10.2c0,0,10.3,0.1,13.4,0l0.5-10.2
				C134.9,209.6,134.8,209.6,133.4,209.6z M220,226c-2.4-0.9-4.9-1.3-7.7-1.3c-1.6,0-3.1,0.1-4.6,0.4c-1.5,0.3-2.8,0.7-4,1.2
				c-1.2,0.5-2.3,1.2-3.2,1.9c-1,0.8-1.7,1.5-2.3,2.3c-0.6,0.7-1.2,1.6-1.9,2.7c-0.6-1.5-1.2-2.6-1.7-3.4c-0.5-0.8-1.2-1.4-1.9-2.1
				c-0.8-0.6-1.7-1.2-2.8-1.7c-1.1-0.5-2.3-0.9-3.6-1.1c-1.3-0.3-2.7-0.4-4.1-0.4c-1.9,0-3.7,0.2-5.4,0.7c-1.8,0.4-3.3,1.1-4.6,1.8
				c-1.3,0.8-2.4,1.6-3.2,2.5c-0.8,0.9-1.7,2.1-2.7,3.6l0.4-7.5h-12.6l-2.1,47.4c0,0,10.5-0.1,13.3,0c0-4.1,0.2-9.6,0.5-16.5
				c0.3-6.9,0.9-11.6,1.7-13.9c0.8-2.4,2-4.3,3.6-5.7c1.7-1.4,3.6-2.1,5.7-2.1c1.2,0,2.2,0.2,3.1,0.6c0.9,0.4,1.7,1,2.4,1.9
				c0.7,0.9,1.1,1.8,1.3,2.7c0.2,0.9,0.3,2.1,0.3,3.5c0,2.6-0.2,7.6-0.6,14.9c-0.4,7.4-0.7,12.3-0.9,14.7c2.9-0.1,10.7-0.1,13.3,0
				l0.3-12.9c0.2-4.6,0.3-8.4,0.6-11.2c0.2-2.8,0.6-5,1.2-6.6c0.5-1.6,1.3-3,2.3-4.1c1-1.2,2-2,3.2-2.6c1.1-0.5,2.4-0.8,3.8-0.8
				c1.3,0,2.5,0.2,3.6,0.7c1.1,0.5,2,1.3,2.7,2.4c0.7,1.1,1,2.8,1,5c0,1.9-0.1,4.2-0.2,6.9l-0.6,10.7c-0.3,4.4-0.5,8.6-0.8,12.6
				c2.8-0.1,11-0.1,13.3,0c0-3.6,0.2-8.6,0.5-15.2c0.3-6.5,0.6-11.2,0.8-14.1c0.2-2.9,0.3-5.1,0.3-6.6c0-2.8-0.7-5.2-2.1-7.1
				C224.3,228.3,222.4,226.9,220,226z M270.3,225.9c-2.9-0.8-6-1.2-9.4-1.2c-3,0-6.1,0.2-9.4,0.6c-3.2,0.4-11.2,2.1-11.2,2.1
				l-1.4,8.8c0,0,13.1-4.1,18.8-4.1c1.5,0,2.9,0.2,4.2,0.5c1.3,0.3,2.3,0.9,3.1,1.7c0.8,0.8,1.2,1.9,1.2,3.1c0,0.6-0.1,1.2-0.4,1.8
				c-0.3,0.6-0.7,1.2-1.2,1.7c-0.6,0.5-1.2,1-2,1.3c-0.8,0.3-1.8,0.7-3.1,1c-1.3,0.4-2.5,0.7-3.7,0.9c-4.5,1-8,1.9-10.8,2.9
				c-2.7,0.9-4.8,1.9-6.2,2.9c-1.4,1-2.6,2.1-3.5,3.2c-0.9,1.1-1.6,2.3-2.1,3.6c-0.5,1.3-0.7,2.6-0.7,4c0,2.3,0.6,4.6,1.8,6.9
				c1.2,2.3,3.1,4,5.6,5c2.5,1.1,5.7,1.6,9.7,1.6c1.1,0,2.3,0,3.6-0.1c1.3-0.1,3.1-0.3,5.3-0.7c0.9-3.5,1.6-6.1,2.3-7.9
				c-1.9,0.6-3.4,1-4.5,1.2c-1.1,0.2-2.2,0.2-3.2,0.2c-1.6,0-2.9-0.2-4.1-0.6c-1.1-0.4-2.1-1-2.9-2c-0.8-0.9-1.1-2.1-1.1-3.4
				c0-0.8,0.1-1.6,0.4-2.3c0.3-0.7,0.8-1.4,1.4-2c0.6-0.6,1.5-1.2,2.4-1.7c0.9-0.5,2-1,3.2-1.4c1.2-0.4,2.8-0.9,4.7-1.4
				c2-0.5,3.3-0.9,4.1-1.2c0.8-0.3,1.5-0.6,2.1-0.9c0.6-0.3,1.5-0.9,2.7-1.6l-1.6,24.6h13.2c0,0,0.4-15.2,0.9-22.5
				c0.5-7.2,0.7-11.8,0.7-13.5c0-3.3-0.8-5.8-2.4-7.5C275.4,227.9,273.2,226.7,270.3,225.9z M353.6,226c-2.4-0.9-5-1.3-7.7-1.3
				c-1.6,0-3.1,0.1-4.6,0.4c-1.5,0.3-2.8,0.7-4,1.2c-1.2,0.5-2.3,1.2-3.2,1.9c-1,0.8-1.7,1.5-2.3,2.3c-0.6,0.7-1.2,1.6-1.9,2.7
				c-0.6-1.5-1.2-2.6-1.7-3.4c-0.5-0.8-1.2-1.4-1.9-2.1c-0.8-0.6-1.7-1.2-2.8-1.7c-1.1-0.5-2.3-0.9-3.6-1.1
				c-1.3-0.3-2.7-0.4-4.1-0.4c-1.9,0-3.7,0.2-5.4,0.7c-1.8,0.4-3.3,1.1-4.6,1.8c-1.3,0.8-2.4,1.6-3.2,2.5c-0.8,0.9-1.7,2.1-2.7,3.6
				l0.4-7.5h-12.6l-2.1,47.4h13.3c0,0,0.2-9.6,0.5-16.5c0.3-6.9,0.9-11.6,1.7-13.9c0.8-2.4,2-4.3,3.6-5.7c1.7-1.4,3.6-2.1,5.7-2.1
				c1.2,0,2.2,0.2,3.1,0.6c0.9,0.4,1.7,1,2.4,1.9c0.7,0.9,1.1,1.8,1.3,2.7c0.2,0.9,0.3,2.1,0.3,3.5c0,2.6-0.2,7.6-0.6,14.9
				c-0.4,7.4-0.7,12.3-0.9,14.7c2.9-0.1,10.7-0.1,13.3,0l0.3-12.9c0.2-4.6,0.4-8.4,0.6-11.2c0.2-2.8,0.6-5,1.2-6.6
				c0.5-1.6,1.3-3,2.3-4.1c1-1.2,2-2,3.2-2.6c1.1-0.5,2.4-0.8,3.8-0.8c1.3,0,2.6,0.2,3.6,0.7c1.1,0.5,2,1.3,2.7,2.4
				c0.7,1.1,1.1,2.8,1.1,5c0,1.9-0.1,4.2-0.2,6.9l-0.6,10.7c-0.3,4.4-0.5,8.6-0.8,12.6c2.8-0.1,11-0.1,13.3,0
				c0-3.6,0.2-8.6,0.5-15.2c0.3-6.5,0.6-11.2,0.8-14.1c0.2-2.9,0.3-5.1,0.3-6.6c0-2.8-0.7-5.2-2.1-7.1
				C357.9,228.3,356,226.9,353.6,226z M403.9,225.9c-2.9-0.8-6-1.2-9.4-1.2c-3,0-6.1,0.2-9.4,0.6c-3.2,0.4-11.2,2.1-11.2,2.1
				l-1.4,8.8c0,0,13.1-4.1,18.8-4.1c1.5,0,2.9,0.2,4.2,0.5c1.3,0.3,2.3,0.9,3.1,1.7c0.8,0.8,1.2,1.9,1.2,3.1c0,0.6-0.1,1.2-0.4,1.8
				c-0.3,0.6-0.7,1.2-1.2,1.7c-0.6,0.5-1.2,1-2,1.3c-0.8,0.3-1.8,0.7-3.1,1c-1.3,0.4-2.5,0.7-3.7,0.9c-4.4,1-8,1.9-10.7,2.9
				c-2.7,0.9-4.8,1.9-6.2,2.9c-1.4,1-2.6,2.1-3.5,3.2c-0.9,1.1-1.6,2.3-2.1,3.6c-0.5,1.3-0.7,2.6-0.7,4c0,2.3,0.6,4.6,1.8,6.9
				c1.2,2.3,3.1,4,5.6,5c2.5,1.1,5.7,1.6,9.7,1.6c1.1,0,2.3,0,3.6-0.1c1.3-0.1,3.1-0.3,5.3-0.7c0.9-3.5,1.6-6.1,2.3-7.9
				c-1.9,0.6-3.4,1-4.5,1.2c-1.1,0.2-2.1,0.2-3.2,0.2c-1.6,0-2.9-0.2-4.1-0.6c-1.1-0.4-2.1-1-2.9-2c-0.8-0.9-1.1-2.1-1.1-3.4
				c0-0.8,0.1-1.6,0.4-2.3c0.3-0.7,0.8-1.4,1.4-2c0.7-0.6,1.5-1.2,2.4-1.7c1-0.5,2-1,3.2-1.4c1.2-0.4,2.8-0.9,4.7-1.4
				c2-0.5,3.3-0.9,4.1-1.2c0.8-0.3,1.5-0.6,2.1-0.9c0.6-0.3,1.5-0.9,2.7-1.6l-1.6,24.6h13.2c0,0,0.4-15.2,0.9-22.5
				c0.5-7.2,0.7-11.8,0.7-13.5c0-3.3-0.8-5.8-2.4-7.5C409,227.9,406.8,226.7,403.9,225.9z M418.8,260.7c-0.2,6.1-0.4,10.3-0.5,12.5
				c4.4-0.1,13.1,0,13.1,0s0.5-10.3,0.7-12.5C428.6,260.7,418.8,260.7,418.8,260.7z M453.5,238.7c1.3-1.5,3-2.7,4.8-3.4
				c1.9-0.7,3.9-1.1,6-1.1c3.5,0,7.5,0.8,12.1,2.4l-0.7-10.2c-2.9-0.7-5.5-1.2-7.6-1.4c-2.1-0.2-4.2-0.3-6.3-0.3
				c-3.6,0-7,0.4-9.9,1.2c-3,0.8-5.7,2.4-8.1,4.7c-2.4,2.3-4.3,5.2-5.5,8.8c-1.3,3.6-1.9,7.4-1.9,11.3c0,2.9,0.4,5.8,1.1,8.6
				c0.8,2.8,1.9,5.1,3.4,7.1c1.5,2,3.3,3.5,5.3,4.7c2,1.2,4.2,2,6.5,2.5c2.3,0.5,4.8,0.7,7.3,0.7c4.3,0,8.7-0.5,13.2-1.5
				c0.3-2.4,0.7-4.4,1-6c0.3-1.6,0.5-3.1,0.7-4.3c-2.2,0.8-4.4,1.4-6.4,1.8c-2,0.3-3.7,0.5-5.1,0.5c-2.9,0-5.4-0.6-7.6-1.8
				c-2.2-1.2-3.8-2.9-4.7-5c-0.9-2.2-1.4-4.7-1.4-7.7c0-2.1,0.3-4.2,0.9-6.2C451.2,242,452.1,240.3,453.5,238.7z M524.6,231.1
				c-2.3-2.1-5.1-3.7-8.4-4.7c-3.3-1.1-6.7-1.6-10.3-1.6c-3.9,0-7.6,0.7-11.2,2c-3.6,1.3-6.6,3.2-8.9,5.6c-2.3,2.4-4,5.2-5.1,8.3
				c-1.1,3.1-1.6,6.4-1.6,9.8c0,3.4,0.6,6.6,1.8,9.6c1.2,3.1,3,5.7,5.3,7.8c2.3,2.1,5.1,3.7,8.3,4.8c3.3,1.1,6.7,1.6,10.3,1.6
				c3.9,0,7.6-0.6,11-1.8c3.4-1.2,6.3-3,8.6-5.4c2.3-2.4,4.1-5.3,5.3-8.6c1.2-3.3,1.8-6.7,1.8-10.2c0-3.4-0.6-6.5-1.7-9.6
				C528.6,235.7,526.9,233.1,524.6,231.1z M516.6,257c-1,2.6-2.6,4.6-4.7,6c-2.1,1.3-4.5,2-7.2,2c-2.7,0-5-0.7-6.9-2
				c-1.9-1.3-3.3-3-4.2-5.1c-0.9-2.1-1.3-4.5-1.3-7.2c0-3.1,0.5-5.9,1.6-8.5c1-2.6,2.6-4.6,4.8-5.9c2.1-1.3,4.5-2,7.2-2
				c2.7,0,5.1,0.6,7,1.9c1.9,1.3,3.3,3,4.1,5.1c0.8,2.1,1.2,4.5,1.2,7C518.2,251.5,517.7,254.4,516.6,257z M608.2,230.2
				c-1.4-1.9-3.3-3.3-5.6-4.2c-2.4-0.9-4.9-1.3-7.7-1.3c-1.6,0-3.1,0.1-4.6,0.4c-1.5,0.3-2.8,0.7-4,1.2c-1.2,0.5-2.3,1.2-3.2,1.9
				c-1,0.8-1.7,1.5-2.3,2.3c-0.6,0.7-1.2,1.6-1.9,2.7c-0.6-1.5-1.2-2.6-1.7-3.4c-0.5-0.8-1.2-1.4-1.9-2.1c-0.8-0.6-1.7-1.2-2.8-1.7
				c-1.1-0.5-2.3-0.9-3.6-1.1c-1.3-0.3-2.7-0.4-4.1-0.4c-1.9,0-3.7,0.2-5.4,0.7c-1.8,0.4-3.3,1.1-4.6,1.8c-1.3,0.8-2.4,1.6-3.2,2.5
				c-0.8,0.9-1.7,2.1-2.7,3.6l0.4-7.5c-2.2,0.1-10,0.1-12.6,0c0,5.3-1.7,42.1-2.1,47.4c2.9-0.1,10.5-0.1,13.3,0
				c0-4.1,0.2-9.6,0.5-16.5c0.3-6.9,0.9-11.6,1.7-13.9c0.8-2.4,2-4.3,3.6-5.7c1.6-1.4,3.6-2.1,5.7-2.1c1.2,0,2.2,0.2,3.1,0.6
				c0.9,0.4,1.7,1,2.4,1.9c0.7,0.9,1.1,1.8,1.3,2.7c0.2,0.9,0.3,2.1,0.3,3.5c0,2.6-0.2,7.6-0.6,14.9c-0.4,7.4-0.7,12.3-0.9,14.7
				c2.9-0.1,10.7-0.1,13.3,0l0.3-12.9c0.2-4.6,0.4-8.4,0.6-11.2c0.2-2.8,0.6-5,1.2-6.6c0.5-1.6,1.3-3,2.3-4.1c1-1.2,2-2,3.2-2.6
				c1.1-0.5,2.4-0.8,3.8-0.8c1.3,0,2.5,0.2,3.6,0.7c1.1,0.5,2,1.3,2.7,2.4c0.7,1.1,1.1,2.8,1.1,5c0,1.9-0.1,4.2-0.2,6.9l-0.6,10.7
				c-0.3,4.4-0.5,8.6-0.8,12.6c2.8-0.1,11-0.1,13.3,0c0-3.6,0.2-8.6,0.5-15.2c0.3-6.5,0.6-11.2,0.8-14.1c0.2-2.9,0.3-5.1,0.3-6.6
				C610.2,234.5,609.6,232.1,608.2,230.2z"/>
		</g>
	</g>
	<g id="形状_2_copy_3_副本_5_11_">
		<g>
			<path fill-rule="evenodd" clip-rule="evenodd" fill="#FF6600" d="M89.7,76.7c19.8,0,39.6,0,59.4,0c0,29.6,0,60.2,0,87.6
				c0,1.7-2.3,4.3-4.6,4.4c-3.1,0-4.5,0-8.3,0v14.3c4.6,0,8.5,0,12.9,0c11.5,0,19.1-5.6,19.1-15.1c0-22.7,0-68,0-91.3h6.9V63.1H89.7
				V76.7z M442.4,165.1c6.3,0,3.9,0,10.3,0c3.7,0,8.8-3.1,8.8-8.9c0-15.1,0-26.8,0-42c-2.9,0-5.9,0-8.4,0c0-11.5,0-35.3,0-43.7
				c0-3.5-3.5-7.4-7.8-7.4h-62.2v13.7h48c0,12.4,0,25,0,37.4c-11.4,0-13.2,0-23.1,0c-1.3,0-2.8-1.4-2.8-2.5c0-6.3,0-16.3,0-24.6
				c0-1.9-1.9-4.1-5-4.1H386v33.1c0,6.4,5.6,11.7,11.7,11.7c0,0,24.4,0,44.7,0v12.3H393c-5.5,0-13.9,5.2-13.9,13.9
				c17.2,0,44.7-0.4,63.3-0.4C442.4,157.1,442.4,160.8,442.4,165.1z M140,144.3c0-15.6,0-37.8,0-59.2H90.6v75.3
				c14.5,0.1,32.8,0,32.8,0C135.8,160.4,140,153.3,140,144.3z M119,146.6c-3.6,0-7.4,0-12.5,0V99.5c5.3,0,11.5,0,16.8,0
				c0,14.3,0,30.1,0,42.6C123.3,144.7,121.8,146.6,119,146.6z M34.1,66.5c0,27,0,62.3,0,116.6h18.3c0-34,0-71.2,0-106.4
				c4.3,0,9.4,0,13.7,0c0,20.4,0,38.7,0,57.8c0,7.8-6.9,10.6-6.9,10.7v15.1c12.9,0,24.4-13.3,24.4-25.4c0-21.9,0-49.8,0-71.9
				c-16.5,0-29.1,0-45.6,0C33.9,63,34.1,66.5,34.1,66.5z M603.9,114.1c0-11.5,0-35.3,0-43.7c0-3.5-3.5-7.4-7.8-7.4h-62.2v13.7
				c15.9,0,31.9,0,47.9,0v37.4c-11.4,0-13.2,0-23.1,0c-1.3,0-2.8-1.4-2.8-2.5c0-6.3,0-16.3,0-24.6c0-2-1.9-4.1-4.9-4.1
				c-3.9,0-9.6,0-14.2,0v33c0,6.4,5.6,11.7,11.7,11.7c0,0,24.4,0,44.7,0v12.3h-48.8c-5.5,0-14.2,4.8-14.2,13.5c17.2,0,44.3,0,63,0
				v12.7c0,2.1-1.7,3.1-4.2,3.1h-7.2c0,6.2,0,9.6,0,13.6h11.1c3.4,0,2.6,0.1,6,0.1c9.3,0,13.3-6.6,13.2-12c0-17.2,0.1-39.9,0.1-57.1
				C609.4,114.1,606.4,114.1,603.9,114.1z M515.6,160.3c6.6-7.3,10.3-15.9,11.1-32.5c0-17.9,0-35.3,0-53c0-1.5-1.9-3.5-3.7-3.4
				c-6.9,0-15.8,0-23.4,0v-8.3h-18.3c0,2.8,0,5.5,0,8.3c-1.9,0-4.3,0-6.1,0v13.7h6.1v42.7c0,16.5,5.4,24.9,12.2,32.5
				c-8.1,5.5-16.3,9.1-27.4,9.1c-1.5,0-3.1,0-4.7,0c-17.1,0-37.9,0.1-56.3,0.1c-17.2,0-33.7-3.1-39.9-10.7c5.9-8,9-14.4,10.8-31
				c0.1-16.6,0.1-30.7,0-51.9c-0.3-2.3-2.3-4.4-4.4-4.5c-7.2,0-14.5,0-23.4,0v-8.3c-7.5,0-10.3,0-17.8,0v8.3c-2,0-3.5,0-6.1,0v13.7
				c2.7,0,4.2,0,6.1,0c0,14.1,0.1,29.7,0.1,42.7c1.4,16.6,6.6,22,13.1,31.7c-9.3,6.5-20.6,9.3-33.7,10c-15.7,0-29.8,0-49.5,0
				c0-3.4,0-8.2,0-10.7h49.6v-14.4h-49.5c0-3.4,0-7.1,0-10.6c14.3,0,33,0,37.3,0c0,0,12.1,0,12.2-13.3c0.2-13.9,0-38.8,0-57.4
				c-39.2,0-79,0-118.2,0c-1.9,0-3.8,2-3.8,3.5c0,2.8,0,46.7,0,67.2c16.5,0,33.1,0,49.6,0v10.6h-49.6c0,4.4,0,9.7,0,14.4h49.4
				c0,3.5,0,7.2,0,10.7h-57.9c0,4,0,9.2,0,13.6c43.5,0,97.3,0.2,139.5,0c11.4,0,25.6-5.9,35.7-11.8c12.8,9.9,26.9,11.9,50.4,11.8
				c7.1,0,15,0,23.7,0c12.2,0,23.1,0,32.7,0c19.7,0,32.1-4.2,44.2-11.3c11.1,6.7,21.7,10.8,39,11.3v0h26.3v-13.6h-26.3
				C532.8,168.4,523.2,166.6,515.6,160.3z M237.3,120.1h-30.4v-14.4h30.4V120.1z M237.4,91.2h-30.4V76.7c10.2,0,20.3,0,30.4,0V91.2z
				 M260.3,76.7h30.5v14.4h-30.5V76.7z M260.3,105.6c10.2,0,20.3,0,30.4,0c0,5.8,0,10.3,0,14.4h-30.5
				C260.2,116.2,260.2,110.2,260.3,105.6z M358.8,127.8c-0.7,9.5-2.2,11.8-4.5,18c-2.9-5.9-5.3-8.6-6-18.1c0-12.4,0-29.6,0-42.7
				h10.5V127.8z M509.7,127.9c-0.4,8.8-2.4,13.1-4.9,18c-2.9-4.7-5.3-9.7-5.3-18c0-13.2,0-29.1,0-42.8h10.2
				C509.7,98.8,509.7,114.5,509.7,127.9z"/>
		</g>
	</g>
</g>
<polyline fill-rule="evenodd" clip-rule="evenodd" fill="none" stroke="#000000" stroke-width="0.25" points="34.1,324.1 
	34.1,332.3 612.3,332.3 612.3,324.1 "/>
<rect x="0.4" y="29.4" fill="#CBCBCB" width="34" height="34"/>
<rect x="0.4" y="274.3" fill="#CBCBCB" width="34" height="34"/>
<rect x="612.3" y="29.4" fill="#CBCBCB" width="34" height="34"/>
<rect x="612.3" y="274.3" fill="#CBCBCB" width="34" height="34"/>
<polyline fill="none" stroke="#211816" stroke-width="0.25" points="0.4,23.4 0.4,12.8 34.4,12.8 34.4,23 "/>
<g>
	<path d="M11.6,2.1c0.1-0.4,0.3-0.7,0.5-1c0.2-0.3,0.5-0.5,0.9-0.6c0.4-0.2,0.8-0.2,1.2-0.2c0.4,0,0.7,0.1,1,0.2
		c0.3,0.1,0.6,0.3,0.8,0.5c0.2,0.2,0.4,0.5,0.6,0.8c0.1,0.3,0.2,0.7,0.2,1.1c0,0.4-0.1,0.7-0.2,1c-0.1,0.3-0.3,0.5-0.5,0.8
		C16,4.8,15.8,5,15.5,5.2S15,5.5,14.8,5.7C14.5,5.9,14.2,6,14,6.2c-0.3,0.2-0.5,0.3-0.7,0.5C13,6.8,12.8,7,12.7,7.2
		c-0.2,0.2-0.3,0.4-0.3,0.7h4.4v0.9h-5.6c0-0.5,0.1-0.9,0.3-1.3c0.1-0.4,0.3-0.7,0.5-0.9c0.2-0.3,0.5-0.5,0.7-0.7
		c0.3-0.2,0.6-0.4,0.9-0.6c0.4-0.2,0.7-0.4,0.9-0.6c0.3-0.2,0.5-0.4,0.7-0.6c0.2-0.2,0.3-0.4,0.4-0.6s0.1-0.5,0.1-0.8
		c0-0.2,0-0.4-0.1-0.6c-0.1-0.2-0.2-0.3-0.4-0.5c-0.1-0.1-0.3-0.2-0.5-0.3s-0.4-0.1-0.6-0.1c-0.3,0-0.5,0.1-0.8,0.2
		c-0.2,0.1-0.4,0.3-0.5,0.5c-0.1,0.2-0.2,0.4-0.3,0.7s-0.1,0.5-0.1,0.8h-1C11.4,2.9,11.5,2.5,11.6,2.1z"/>
	<path d="M23.1,9c-0.3,0-0.5-0.1-0.6-0.2c-0.2-0.1-0.2-0.4-0.2-0.7c-0.3,0.3-0.6,0.6-1,0.7C20.9,8.9,20.5,9,20.1,9
		c-0.3,0-0.5,0-0.8-0.1c-0.2-0.1-0.5-0.2-0.7-0.3c-0.2-0.1-0.3-0.3-0.4-0.5C18.1,7.8,18,7.6,18,7.2c0-0.4,0.1-0.6,0.2-0.9
		s0.3-0.4,0.5-0.5s0.4-0.2,0.7-0.3s0.5-0.1,0.8-0.2c0.3-0.1,0.5-0.1,0.8-0.1s0.5-0.1,0.7-0.1S21.9,5,22,4.9c0.1-0.1,0.2-0.2,0.2-0.4
		c0-0.2,0-0.4-0.1-0.5s-0.2-0.2-0.3-0.3c-0.1-0.1-0.3-0.1-0.4-0.1c-0.2,0-0.3,0-0.5,0c-0.4,0-0.8,0.1-1.1,0.2s-0.4,0.5-0.5,0.9h-1
		c0-0.4,0.1-0.7,0.2-1c0.1-0.3,0.3-0.5,0.6-0.6c0.2-0.2,0.5-0.3,0.8-0.4c0.3-0.1,0.6-0.1,1-0.1c0.3,0,0.6,0,0.8,0.1
		c0.3,0,0.5,0.1,0.8,0.2s0.4,0.3,0.5,0.5c0.1,0.2,0.2,0.5,0.2,0.9v3.2c0,0.2,0,0.4,0,0.5s0.1,0.2,0.3,0.2c0.1,0,0.2,0,0.3-0.1v0.8
		C23.7,8.9,23.4,9,23.1,9z M21.7,5.8c-0.2,0-0.4,0.1-0.7,0.1C20.8,6,20.6,6,20.3,6c-0.2,0-0.4,0.1-0.6,0.2c-0.2,0.1-0.3,0.2-0.5,0.3
		c-0.1,0.1-0.2,0.4-0.2,0.6c0,0.2,0,0.3,0.1,0.4c0.1,0.1,0.2,0.2,0.3,0.3S19.7,8,19.8,8c0.1,0,0.3,0,0.5,0c0.3,0,0.6,0,0.9-0.1
		c0.2-0.1,0.4-0.2,0.6-0.3c0.2-0.1,0.3-0.3,0.3-0.5s0.1-0.3,0.1-0.5v-1C22.1,5.7,21.9,5.8,21.7,5.8z"/>
</g>
<polyline fill="none" stroke="#211816" stroke-width="0.25" points="612.3,23.4 612.3,12.8 646.4,12.8 646.4,23 "/>
<g>
	<path d="M623.5,2.1c0.1-0.4,0.3-0.7,0.5-1c0.2-0.3,0.5-0.5,0.9-0.6c0.4-0.2,0.8-0.2,1.2-0.2c0.4,0,0.7,0.1,1,0.2
		c0.3,0.1,0.6,0.3,0.8,0.5c0.2,0.2,0.4,0.5,0.6,0.8c0.1,0.3,0.2,0.7,0.2,1.1c0,0.4-0.1,0.7-0.2,1c-0.1,0.3-0.3,0.5-0.5,0.8
		c-0.2,0.2-0.4,0.4-0.7,0.6s-0.5,0.4-0.8,0.5c-0.3,0.2-0.5,0.3-0.8,0.5c-0.3,0.2-0.5,0.3-0.7,0.5c-0.2,0.2-0.4,0.4-0.6,0.6
		c-0.2,0.2-0.3,0.4-0.3,0.7h4.4v0.9h-5.6c0-0.5,0.1-0.9,0.3-1.3c0.1-0.4,0.3-0.7,0.5-0.9c0.2-0.3,0.5-0.5,0.7-0.7
		c0.3-0.2,0.6-0.4,0.9-0.6c0.4-0.2,0.7-0.4,0.9-0.6c0.3-0.2,0.5-0.4,0.7-0.6c0.2-0.2,0.3-0.4,0.4-0.6s0.1-0.5,0.1-0.8
		c0-0.2,0-0.4-0.1-0.6c-0.1-0.2-0.2-0.3-0.4-0.5c-0.1-0.1-0.3-0.2-0.5-0.3s-0.4-0.1-0.6-0.1c-0.3,0-0.5,0.1-0.8,0.2
		c-0.2,0.1-0.4,0.3-0.5,0.5c-0.1,0.2-0.2,0.4-0.3,0.7s-0.1,0.5-0.1,0.8h-1C623.4,2.9,623.4,2.5,623.5,2.1z"/>
	<path d="M635.1,9c-0.3,0-0.5-0.1-0.6-0.2c-0.2-0.1-0.2-0.4-0.2-0.7c-0.3,0.3-0.6,0.6-1,0.7C632.9,8.9,632.4,9,632,9
		c-0.3,0-0.5,0-0.8-0.1c-0.2-0.1-0.5-0.2-0.7-0.3c-0.2-0.1-0.3-0.3-0.4-0.5C630,7.8,630,7.6,630,7.2c0-0.4,0.1-0.6,0.2-0.9
		s0.3-0.4,0.5-0.5s0.4-0.2,0.7-0.3s0.5-0.1,0.8-0.2c0.3-0.1,0.5-0.1,0.8-0.1s0.5-0.1,0.7-0.1s0.3-0.1,0.5-0.2
		c0.1-0.1,0.2-0.2,0.2-0.4c0-0.2,0-0.4-0.1-0.5s-0.2-0.2-0.3-0.3c-0.1-0.1-0.3-0.1-0.4-0.1c-0.2,0-0.3,0-0.5,0
		c-0.4,0-0.8,0.1-1.1,0.2s-0.4,0.5-0.5,0.9h-1c0-0.4,0.1-0.7,0.2-1c0.1-0.3,0.3-0.5,0.6-0.6c0.2-0.2,0.5-0.3,0.8-0.4
		c0.3-0.1,0.6-0.1,1-0.1c0.3,0,0.6,0,0.8,0.1c0.3,0,0.5,0.1,0.8,0.2s0.4,0.3,0.5,0.5c0.1,0.2,0.2,0.5,0.2,0.9v3.2c0,0.2,0,0.4,0,0.5
		s0.1,0.2,0.3,0.2c0.1,0,0.2,0,0.3-0.1v0.8C635.6,8.9,635.4,9,635.1,9z M633.6,5.8c-0.2,0-0.4,0.1-0.7,0.1c-0.2,0-0.5,0.1-0.7,0.1
		c-0.2,0-0.4,0.1-0.6,0.2c-0.2,0.1-0.3,0.2-0.5,0.3c-0.1,0.1-0.2,0.4-0.2,0.6c0,0.2,0,0.3,0.1,0.4c0.1,0.1,0.2,0.2,0.3,0.3
		s0.2,0.1,0.4,0.2c0.1,0,0.3,0,0.5,0c0.3,0,0.6,0,0.9-0.1c0.2-0.1,0.4-0.2,0.6-0.3c0.2-0.1,0.3-0.3,0.3-0.5s0.1-0.3,0.1-0.5v-1
		C634,5.7,633.8,5.8,633.6,5.8z"/>
</g>
</svg>
