<?xml version="1.0" encoding="utf-8"?>
<!-- Generator: Adobe Illustrator 17.1.0, SVG Export Plug-In . SVG Version: 6.00 Build 0)  -->
<!DOCTYPE svg PUBLIC "-//W3C//DTD SVG 1.1//EN" "http://www.w3.org/Graphics/SVG/1.1/DTD/svg11.dtd">
<svg version="1.1" id="图层_1" xmlns="http://www.w3.org/2000/svg" xmlns:xlink="http://www.w3.org/1999/xlink" x="0px" y="0px"
	 viewBox="0 0 554.3 187.5" enable-background="new 0 0 554.3 187.5" xml:space="preserve">
<g>
	<g>
		<g>
			<path fill="#666666" d="M260.4,50.5c3-3.4,4.5-8.9,4.4-16.6V22.8h2v-2h-2V14H262v6.8h-6V14h-2.8v6.8h-2.4v2h2.4v11.1
				c-0.1,7.5,1.3,13.1,4.2,16.6c-1.1,1.4-3.4,3.3-6.9,5.7v2.1c3.6-2.2,6.4-4.2,8.5-6c2,1.8,4.6,3.8,7.9,6v-2.1
				C264.2,54.2,262,52.3,260.4,50.5z M256,34.1V22.8h6v11.3c0.1,6.6-0.9,11.4-3,14.4C256.9,45.3,255.9,40.5,256,34.1z M283.4,35.1
				h3.6c3.6,0.1,5.3-1.5,5.2-4.9v-9.9h4.8v-2.1h-4.8v-4.3h-3v4.3h-14.7v-4.3h-3v4.3h-4.2v2.1h4.2v14.8h8.9v5.3h-13.7v2.1h8.1
				c-0.5,4.9-2.8,8.8-6.9,11.7v1.9c5.6-2.7,8.9-7.3,9.9-13.6h2.6v16h3v-16h2.6c0.9,6.4,4.5,10.9,10.7,13.6v-1.9
				c-4.6-2.9-7.3-6.8-7.9-11.7h8.5v-2.1h-13.9V35.1z M274.5,20.3h14.7v5.3h-14.7V20.3z M274.5,33v-5.5h14.7v2.7
				c0.1,1.9-0.8,2.9-2.8,2.7H274.5z M313.8,13.7c-1.3,7.3-5,12.7-11.1,16.4v2c2.9-1.4,5.1-2.8,6.5-4.1v30.6h3.2V24.8
				c1.7-2.2,3.2-5.9,4.6-11.1H313.8z M347.4,23.4v-2.1h-13.9v-7.6h-3.2v7.6H317v2.1h5.2c0,9.4-2.3,17.6-6.9,24.8v3.3
				c6.5-7.7,9.8-17,9.9-28.1h5.2v23h-8.7v2h8.7v9.9h3.2v-9.9h8.1v-2h-8.1v-23h5c0.1,11.3,3.4,20.6,9.9,27.9v-3.1
				c-4.5-6.8-6.7-15-6.7-24.8H347.4z M364.3,24.2c-0.8-3-2.3-6.2-4.4-9.7h-2.8c1.9,3.1,3.3,6.4,4.4,9.7H364.3z M374.3,37.2h-2.8v7.4
				c0.1,5.1-1.7,9-5.4,11.7v2.1c5.7-3.1,8.4-7.8,8.1-14V37.2z M381,57.5h2.8V37H381V57.5z M399.1,52.6c0.1,1.8-0.8,2.7-2.8,2.5
				c-2.6,0.1-3.8-0.7-3.6-2.5V37h-2.8v15.2c-0.1,3.5,1.7,5.2,5.4,5.1h1.2c3.3,0.1,4.9-1.4,4.8-4.5v-1.6h-2.2V52.6z M356.2,57.5h3.4
				c2.6-5.5,4.4-11.8,5.2-18.9h-2.6C361.2,45.5,359.2,51.8,356.2,57.5z M368.7,32v2.5h3.4c8.5,0,15.8-0.6,22-1.9
				c0.1,0.3,0.3,0.8,0.6,1.6c0.3,0.7,0.5,1.2,0.6,1.6h3c-1.3-3.9-3-7.5-5-10.7h-2.8c0.1,0.4,0.2,0.5,0.2,0.4
				c1.3,2.5,2.2,4.3,2.8,5.5c-5,0.8-12.2,1.2-21.6,1.2c4.1-3.4,7.1-7.2,8.9-11.5h18.7v-1.9h-14.1v-4.9h-3v4.9h-15.1v1.9h10.1
				C375.2,25,372.3,28.9,368.7,32z M357.6,26.3c2,3.4,3.4,6.7,4.2,9.9h3c-1.2-3.8-2.6-7.1-4.4-9.9H357.6z M453.1,29.2h-46v2h46V29.2
				z M431.7,51.9H450v-1.8h-18.3v-3.7h10.7c3.7,0,5.5-1.4,5.4-4.3v-8.2h-35.3v12.5h16.1v3.7h-18.3v1.8h18.3v3.3h-21.4v2h46.2v-2
				h-21.6V51.9z M431.7,35.7h12.9v3.5h-12.9V35.7z M431.7,40.9h12.9v1.2c0.1,1.8-0.7,2.7-2.6,2.5h-10.3V40.9z M428.5,44.7h-12.9
				v-3.7h12.9V44.7z M428.5,39.2h-12.9v-3.5h12.9V39.2z M448.2,22.2v-6.4h-36.1v10.7h30.8C446.5,26.7,448.3,25.2,448.2,22.2z
				 M415,17.5h30.2v2.7H415V17.5z M415,24.8V22h30.2v0.2c0.1,1.7-0.8,2.5-2.8,2.5H415z M468.7,22.8h-3.6c1.2,4.8,2.6,8.6,4.2,11.5h3
				C470.4,30.6,469.2,26.7,468.7,22.8z M483.8,17.9H503v-2.1h-41.3v2.1h18.9v21.3h-21.2v2.1h21.2v17.4h3.2V41.3H505v-2.1h-21.2V17.9
				z M495.1,34.3c1.6-2.9,3-6.7,4.2-11.5h-3.6c-0.5,3.9-1.7,7.7-3.6,11.5H495.1z M517.2,56.9h27.6c4.5,0.1,6.7-1.7,6.5-5.5v-14
				h-34.1V56.9z M520.4,39.6h27.8v11.7c0.1,2.5-1.1,3.6-3.8,3.5h-24V39.6z M549.7,30.4c0.4,1.2,0.8,2.4,1.2,3.7h3.4
				c-2-5.2-4.6-10-7.7-14.4h-3c2.1,3.3,3.8,6.1,5.2,8.6c-8.1,0.8-18.5,1.2-31.2,1.2c5.2-4.3,9.7-9.6,13.7-15.8h-4
				c-3,5.6-7.4,10.9-13.1,15.8v2.3h5C529.8,31.8,540,31.3,549.7,30.4z"/>
		</g>
	</g>
	<rect x="229.3" y="0" fill-rule="evenodd" clip-rule="evenodd" fill="#CBCBCB" width="1.4" height="74.9"/>
	<g>
		<g id="形状_2_copy_3_副本_4_17_">
			<g>
				<path fill-rule="evenodd" clip-rule="evenodd" fill="#CCCCCC" d="M11.5,52.2C7.6,60,4.1,66.8,0,74.9h5.5c1-1.9,1.6-3.1,2.8-5.4
					c2.9,0,5.1,0,7.9,0c-0.6-1.7-1-3-1.5-4.3h-4.4c1.3-2.6,2-4,4-7.5c2.1,5.9,4.1,11.8,6.1,17.2h5c-2.8-7.9-5.3-14.8-7.9-22.6H11.5z
					 M26.8,74.9h4.8l1-22.7l-4.7,0L26.8,74.9z M34.3,74.9h5L40,58h-4.8L34.3,74.9z M35.4,52.2l-0.1,3.6c0,0,3.7,0,4.8,0l0.2-3.6
					C35.9,52.2,35.9,52.2,35.4,52.2z M66.2,58.1c-0.9-0.3-1.8-0.5-2.7-0.5c-0.6,0-1.1,0.1-1.6,0.2c-0.5,0.1-1,0.3-1.4,0.4
					c-0.4,0.2-0.8,0.4-1.1,0.7c-0.3,0.3-0.6,0.5-0.8,0.8c-0.2,0.3-0.4,0.6-0.7,1c-0.2-0.5-0.4-0.9-0.6-1.2c-0.2-0.3-0.4-0.5-0.7-0.7
					c-0.3-0.2-0.6-0.4-1-0.6c-0.4-0.2-0.8-0.3-1.3-0.4c-0.5-0.1-0.9-0.1-1.4-0.1c-0.7,0-1.3,0.1-1.9,0.2c-0.6,0.2-1.2,0.4-1.6,0.7
					c-0.5,0.3-0.8,0.6-1.1,0.9c-0.3,0.3-0.6,0.7-1,1.3l0.1-2.7h-4.5L42,74.9c0,0,3.7,0,4.7,0c0-1.4,0.1-3.4,0.2-5.9
					c0.1-2.5,0.3-4.1,0.6-5c0.3-0.8,0.7-1.5,1.3-2c0.6-0.5,1.3-0.8,2-0.8c0.4,0,0.8,0.1,1.1,0.2c0.3,0.1,0.6,0.4,0.8,0.7
					c0.2,0.3,0.4,0.6,0.5,1c0.1,0.3,0.1,0.7,0.1,1.2c0,0.9-0.1,2.7-0.2,5.3c-0.1,2.6-0.3,4.4-0.3,5.2c1,0,3.8,0,4.7,0l0.1-4.6
					c0.1-1.6,0.1-3,0.2-4c0.1-1,0.2-1.8,0.4-2.4c0.2-0.6,0.5-1.1,0.8-1.5c0.3-0.4,0.7-0.7,1.1-0.9c0.4-0.2,0.9-0.3,1.4-0.3
					c0.5,0,0.9,0.1,1.3,0.3c0.4,0.2,0.7,0.5,0.9,0.9c0.3,0.4,0.4,1,0.4,1.8c0,0.7,0,1.5-0.1,2.4L64,70.4c-0.1,1.6-0.2,3.1-0.3,4.5
					c1,0,3.9,0,4.7,0c0-1.3,0.1-3.1,0.2-5.4c0.1-2.3,0.2-4,0.3-5c0.1-1,0.1-1.8,0.1-2.3c0-1-0.2-1.9-0.7-2.5
					C67.8,58.9,67.1,58.4,66.2,58.1z M84.2,58c-1-0.3-2.1-0.4-3.4-0.4c-1.1,0-2.2,0.1-3.3,0.2c-1.2,0.1-4,0.7-4,0.7L73,61.7
					c0,0,4.7-1.4,6.7-1.4c0.5,0,1,0.1,1.5,0.2c0.4,0.1,0.8,0.3,1.1,0.6c0.3,0.3,0.4,0.7,0.4,1.1c0,0.2,0,0.4-0.1,0.6
					c-0.1,0.2-0.2,0.4-0.4,0.6c-0.2,0.2-0.4,0.4-0.7,0.5c-0.3,0.1-0.6,0.2-1.1,0.4c-0.5,0.1-0.9,0.2-1.3,0.3c-1.6,0.3-2.9,0.7-3.8,1
					c-1,0.3-1.7,0.7-2.2,1c-0.5,0.4-0.9,0.7-1.2,1.1c-0.3,0.4-0.6,0.8-0.7,1.3c-0.2,0.5-0.2,0.9-0.2,1.4c0,0.8,0.2,1.7,0.6,2.5
					c0.4,0.8,1.1,1.4,2,1.8c0.9,0.4,2,0.6,3.4,0.6c0.4,0,0.8,0,1.3,0c0.5,0,1.1-0.1,1.9-0.2c0.3-1.2,0.6-2.2,0.8-2.8
					c-0.7,0.2-1.2,0.4-1.6,0.4c-0.4,0.1-0.8,0.1-1.1,0.1c-0.6,0-1-0.1-1.4-0.2c-0.4-0.1-0.7-0.4-1-0.7c-0.3-0.3-0.4-0.7-0.4-1.2
					c0-0.3,0.1-0.6,0.2-0.8c0.1-0.2,0.3-0.5,0.5-0.7c0.2-0.2,0.5-0.4,0.9-0.6c0.3-0.2,0.7-0.3,1.1-0.5c0.4-0.1,1-0.3,1.7-0.5
					c0.7-0.2,1.2-0.3,1.5-0.4c0.3-0.1,0.5-0.2,0.7-0.3c0.2-0.1,0.5-0.3,1-0.6l-0.6,8.8h4.7c0,0,0.1-5.4,0.3-8
					c0.2-2.6,0.3-4.2,0.3-4.8c0-1.2-0.3-2.1-0.9-2.7C86,58.8,85.2,58.3,84.2,58z M113.8,58.1c-0.9-0.3-1.8-0.5-2.7-0.5
					c-0.6,0-1.1,0.1-1.6,0.2c-0.5,0.1-1,0.3-1.4,0.4c-0.4,0.2-0.8,0.4-1.1,0.7c-0.3,0.3-0.6,0.5-0.8,0.8c-0.2,0.3-0.4,0.6-0.7,1
					c-0.2-0.5-0.4-0.9-0.6-1.2c-0.2-0.3-0.4-0.5-0.7-0.7c-0.3-0.2-0.6-0.4-1-0.6c-0.4-0.2-0.8-0.3-1.3-0.4c-0.5-0.1-0.9-0.1-1.4-0.1
					c-0.7,0-1.3,0.1-1.9,0.2c-0.6,0.2-1.2,0.4-1.6,0.7c-0.5,0.3-0.8,0.6-1.1,0.9c-0.3,0.3-0.6,0.7-1,1.3l0.1-2.7h-4.5l-0.7,16.9h4.7
					c0,0,0.1-3.4,0.2-5.9c0.1-2.5,0.3-4.1,0.6-5c0.3-0.8,0.7-1.5,1.3-2c0.6-0.5,1.3-0.8,2-0.8c0.4,0,0.8,0.1,1.1,0.2
					c0.3,0.1,0.6,0.4,0.8,0.7c0.2,0.3,0.4,0.6,0.5,1c0.1,0.3,0.1,0.7,0.1,1.2c0,0.9-0.1,2.7-0.2,5.3c-0.1,2.6-0.3,4.4-0.3,5.2
					c1,0,3.8,0,4.8,0l0.1-4.6c0.1-1.6,0.1-3,0.2-4c0.1-1,0.2-1.8,0.4-2.4c0.2-0.6,0.5-1.1,0.8-1.5c0.3-0.4,0.7-0.7,1.1-0.9
					c0.4-0.2,0.9-0.3,1.4-0.3c0.5,0,0.9,0.1,1.3,0.3c0.4,0.2,0.7,0.5,0.9,0.9c0.2,0.4,0.4,1,0.4,1.8c0,0.7,0,1.5-0.1,2.4l-0.2,3.8
					c-0.1,1.6-0.2,3.1-0.3,4.5c1,0,3.9,0,4.7,0c0-1.3,0.1-3.1,0.2-5.4c0.1-2.3,0.2-4,0.3-5c0.1-1,0.1-1.8,0.1-2.3
					c0-1-0.2-1.9-0.7-2.5C115.4,58.9,114.7,58.4,113.8,58.1z M131.8,58c-1-0.3-2.1-0.4-3.4-0.4c-1.1,0-2.2,0.1-3.3,0.2
					c-1.2,0.1-4,0.7-4,0.7l-0.5,3.1c0,0,4.7-1.4,6.7-1.4c0.5,0,1,0.1,1.5,0.2c0.5,0.1,0.8,0.3,1.1,0.6c0.3,0.3,0.4,0.7,0.4,1.1
					c0,0.2,0,0.4-0.1,0.6c-0.1,0.2-0.2,0.4-0.4,0.6c-0.2,0.2-0.4,0.4-0.7,0.5c-0.3,0.1-0.6,0.2-1.1,0.4c-0.5,0.1-0.9,0.2-1.3,0.3
					c-1.6,0.3-2.9,0.7-3.8,1c-1,0.3-1.7,0.7-2.2,1c-0.5,0.4-0.9,0.7-1.2,1.1c-0.3,0.4-0.6,0.8-0.7,1.3c-0.2,0.5-0.3,0.9-0.3,1.4
					c0,0.8,0.2,1.7,0.6,2.5c0.4,0.8,1.1,1.4,2,1.8c0.9,0.4,2,0.6,3.4,0.6c0.4,0,0.8,0,1.3,0c0.5,0,1.1-0.1,1.9-0.2
					c0.3-1.2,0.6-2.2,0.8-2.8c-0.7,0.2-1.2,0.4-1.6,0.4c-0.4,0.1-0.8,0.1-1.1,0.1c-0.6,0-1-0.1-1.4-0.2c-0.4-0.1-0.8-0.4-1-0.7
					c-0.3-0.3-0.4-0.7-0.4-1.2c0-0.3,0.1-0.6,0.2-0.8c0.1-0.2,0.3-0.5,0.5-0.7c0.2-0.2,0.5-0.4,0.9-0.6c0.3-0.2,0.7-0.3,1.1-0.5
					c0.4-0.1,1-0.3,1.7-0.5c0.7-0.2,1.2-0.3,1.5-0.4c0.3-0.1,0.5-0.2,0.7-0.3c0.2-0.1,0.5-0.3,1-0.6l-0.6,8.8h4.7c0,0,0.1-5.4,0.3-8
					c0.2-2.6,0.3-4.2,0.3-4.8c0-1.2-0.3-2.1-0.9-2.7C133.6,58.8,132.8,58.3,131.8,58z M137.1,70.4c-0.1,2.2-0.1,3.7-0.2,4.5
					c1.6,0,4.7,0,4.7,0s0.2-3.7,0.2-4.5C140.6,70.4,137.1,70.4,137.1,70.4z M149.4,62.6c0.5-0.5,1.1-0.9,1.7-1.2
					c0.7-0.3,1.4-0.4,2.1-0.4c1.2,0,2.7,0.3,4.3,0.8l-0.2-3.6c-1-0.3-1.9-0.4-2.7-0.5c-0.8-0.1-1.5-0.1-2.2-0.1
					c-1.3,0-2.5,0.1-3.5,0.4c-1.1,0.3-2,0.8-2.9,1.7c-0.9,0.8-1.5,1.9-2,3.1c-0.5,1.3-0.7,2.6-0.7,4c0,1.1,0.1,2.1,0.4,3.1
					c0.3,1,0.7,1.8,1.2,2.5c0.5,0.7,1.2,1.3,1.9,1.7c0.7,0.4,1.5,0.7,2.3,0.9c0.8,0.2,1.7,0.2,2.6,0.2c1.5,0,3.1-0.2,4.7-0.5
					c0.1-0.8,0.2-1.6,0.4-2.1c0.1-0.6,0.2-1.1,0.2-1.5c-0.8,0.3-1.6,0.5-2.3,0.6c-0.7,0.1-1.3,0.2-1.8,0.2c-1,0-1.9-0.2-2.7-0.6
					c-0.8-0.4-1.4-1-1.7-1.8c-0.3-0.8-0.5-1.7-0.5-2.7c0-0.8,0.1-1.5,0.3-2.2C148.6,63.8,149,63.2,149.4,62.6z M174.8,59.9
					c-0.8-0.7-1.8-1.3-3-1.7c-1.2-0.4-2.4-0.6-3.7-0.6c-1.4,0-2.7,0.2-4,0.7c-1.3,0.5-2.3,1.1-3.2,2c-0.8,0.9-1.4,1.8-1.8,3
					c-0.4,1.1-0.6,2.3-0.6,3.5c0,1.2,0.2,2.3,0.6,3.4c0.4,1.1,1.1,2,1.9,2.8c0.8,0.8,1.8,1.3,3,1.7c1.2,0.4,2.4,0.6,3.7,0.6
					c1.4,0,2.7-0.2,3.9-0.6c1.2-0.4,2.2-1.1,3.1-1.9c0.8-0.9,1.4-1.9,1.9-3c0.4-1.2,0.6-2.4,0.6-3.6c0-1.2-0.2-2.3-0.6-3.4
					C176.2,61.5,175.6,60.6,174.8,59.9z M171.9,69.1c-0.4,0.9-0.9,1.6-1.7,2.1c-0.7,0.5-1.6,0.7-2.6,0.7c-1,0-1.8-0.2-2.5-0.7
					c-0.7-0.5-1.2-1.1-1.5-1.8c-0.3-0.8-0.5-1.6-0.5-2.6c0-1.1,0.2-2.1,0.6-3c0.4-0.9,0.9-1.6,1.7-2.1c0.8-0.5,1.6-0.7,2.6-0.7
					c1,0,1.8,0.2,2.5,0.7c0.7,0.5,1.2,1.1,1.5,1.8c0.3,0.8,0.4,1.6,0.4,2.5C172.5,67.1,172.3,68.2,171.9,69.1z M204.6,59.6
					c-0.5-0.7-1.2-1.2-2-1.5c-0.9-0.3-1.8-0.5-2.7-0.5c-0.6,0-1.1,0.1-1.6,0.2c-0.5,0.1-1,0.3-1.4,0.4c-0.4,0.2-0.8,0.4-1.1,0.7
					c-0.3,0.3-0.6,0.5-0.8,0.8c-0.2,0.3-0.4,0.6-0.7,1c-0.2-0.5-0.4-0.9-0.6-1.2c-0.2-0.3-0.4-0.5-0.7-0.7c-0.3-0.2-0.6-0.4-1-0.6
					c-0.4-0.2-0.8-0.3-1.3-0.4c-0.5-0.1-0.9-0.1-1.4-0.1c-0.7,0-1.3,0.1-1.9,0.2c-0.6,0.2-1.2,0.4-1.6,0.7c-0.5,0.3-0.8,0.6-1.1,0.9
					c-0.3,0.3-0.6,0.7-1,1.3l0.1-2.7c-0.8,0-3.5,0-4.5,0c0,1.9-0.6,15-0.7,16.9c1,0,3.7,0,4.7,0c0-1.4,0.1-3.4,0.2-5.9
					c0.1-2.5,0.3-4.1,0.6-5c0.3-0.8,0.7-1.5,1.3-2c0.6-0.5,1.3-0.8,2-0.8c0.4,0,0.8,0.1,1.1,0.2c0.3,0.1,0.6,0.4,0.8,0.7
					c0.2,0.3,0.4,0.6,0.5,1c0.1,0.3,0.1,0.7,0.1,1.2c0,0.9-0.1,2.7-0.2,5.3c-0.1,2.6-0.3,4.4-0.3,5.2c1,0,3.8,0,4.7,0l0.1-4.6
					c0.1-1.6,0.1-3,0.2-4c0.1-1,0.2-1.8,0.4-2.4c0.2-0.6,0.5-1.1,0.8-1.5c0.3-0.4,0.7-0.7,1.1-0.9c0.4-0.2,0.9-0.3,1.4-0.3
					c0.5,0,0.9,0.1,1.3,0.3c0.4,0.2,0.7,0.5,0.9,0.9c0.3,0.4,0.4,1,0.4,1.8c0,0.7,0,1.5-0.1,2.4l-0.2,3.8c-0.1,1.6-0.2,3.1-0.3,4.5
					c1,0,3.9,0,4.7,0c0-1.3,0.1-3.1,0.2-5.4c0.1-2.3,0.2-4,0.3-5c0.1-1,0.1-1.8,0.1-2.3C205.3,61.1,205.1,60.3,204.6,59.6z"/>
			</g>
		</g>
		<g id="形状_2_copy_3_副本_5_25_">
			<g>
				<path fill-rule="evenodd" clip-rule="evenodd" fill="#FF6600" d="M19.8,4.9c7.1,0,14.1,0,21.2,0c0,10.5,0,21.4,0,31.2
					c0,0.6-0.8,1.5-1.6,1.6c-1.1,0-1.6,0-3,0v5.1c1.6,0,3,0,4.6,0c4.1,0,6.8-2,6.8-5.4c0-8.1,0-24.2,0-32.5h2.4V0H19.8V4.9z
					 M145.5,36.4c2.3,0,1.4,0,3.7,0c1.3,0,3.1-1.1,3.1-3.2c0-5.4,0-9.6,0-15c-1,0-2.1,0-3,0c0-4.1,0-12.6,0-15.6
					c0-1.2-1.2-2.6-2.8-2.6h-22.2v4.9h17.1c0,4.4,0,8.9,0,13.3c-4.1,0-4.7,0-8.2,0c-0.5,0-1-0.5-1-0.9c0-2.2,0-5.8,0-8.8
					c0-0.7-0.7-1.5-1.8-1.5h-5v11.8c0,2.3,2,4.2,4.2,4.2c0,0,8.7,0,15.9,0v4.4h-17.6c-2,0-4.9,1.9-4.9,4.9c6.1,0,15.9-0.1,22.6-0.1
					C145.5,33.5,145.5,34.8,145.5,36.4z M37.8,28.9c0-5.6,0-13.5,0-21.1H20.1v26.8c5.2,0,11.7,0,11.7,0
					C36.3,34.7,37.8,32.2,37.8,28.9z M30.3,29.8c-1.3,0-2.7,0-4.5,0V13c1.9,0,4.1,0,6,0c0,5.1,0,10.7,0,15.2
					C31.8,29.1,31.2,29.8,30.3,29.8z M0,1.2c0,9.6,0,22.2,0,41.6h6.5c0-12.1,0-25.4,0-37.9c1.5,0,3.3,0,4.9,0c0,7.3,0,13.8,0,20.6
					c0,2.8-2.5,3.8-2.5,3.8v5.4c4.6,0,8.7-4.7,8.7-9c0-7.8,0-17.8,0-25.6C11.8,0,7.3,0,1.4,0C0,0,0,1.2,0,1.2z M203,18.2
					c0-4.1,0-12.6,0-15.6c0-1.2-1.2-2.6-2.8-2.6h-22.2v4.9c5.7,0,11.4,0,17.1,0v13.3c-4.1,0-4.7,0-8.2,0c-0.5,0-1-0.5-1-0.9
					c0-2.2,0-5.8,0-8.8c0-0.7-0.7-1.4-1.8-1.4c-1.4,0-3.4,0-5,0v11.8c0,2.3,2,4.2,4.2,4.2c0,0,8.7,0,15.9,0v4.4h-17.4
					c-2,0-5.1,1.7-5.1,4.8c6.1,0,15.8,0,22.4,0v4.5c0,0.8-0.6,1.1-1.5,1.1h-2.6c0,2.2,0,3.4,0,4.9h4c1.2,0,0.9,0,2.1,0
					c3.3,0,4.8-2.4,4.7-4.3c0-6.1,0-14.2,0-20.3C205,18.2,203.9,18.2,203,18.2z M171.6,34.7c2.4-2.6,3.7-5.7,4-11.6
					c0-6.4,0-12.6,0-18.9c0-0.5-0.7-1.2-1.3-1.2c-2.5,0-5.6,0-8.3,0V0h-6.5c0,1,0,2,0,3c-0.7,0-1.5,0-2.2,0v4.9h2.2v15.2
					c0,5.9,1.9,8.9,4.3,11.6c-2.9,2-5.8,3.3-9.8,3.3c-0.5,0-1.1,0-1.7,0c-6.1,0-13.5,0-20,0c-6.1,0-12-1.1-14.2-3.8
					c2.1-2.8,3.2-5.1,3.9-11.1c0-5.9,0-10.9,0-18.5C121.7,3.8,121,3,120.3,3c-2.6,0-5.2,0-8.3,0V0c-2.7,0-3.7,0-6.4,0v3
					c-0.7,0-1.2,0-2.2,0v4.9c1,0,1.5,0,2.2,0c0,5,0,10.6,0,15.2c0.5,5.9,2.4,7.8,4.7,11.3c-3.3,2.3-7.3,3.3-12,3.6
					c-5.6,0-10.6,0-17.7,0c0-1.2,0-2.9,0-3.8h17.7V29H80.6c0-1.2,0-2.5,0-3.8c5.1,0,11.8,0,13.3,0c0,0,4.3,0,4.4-4.7
					c0.1-5,0-13.8,0-20.5c-14,0-28.1,0-42.1,0c-0.7,0-1.3,0.7-1.3,1.3c0,1,0,16.6,0,23.9c5.9,0,11.8,0,17.7,0V29H54.8
					c0,1.6,0,3.5,0,5.1h17.6c0,1.3,0,2.5,0,3.8H51.8c0,1.4,0,3.3,0,4.8c15.5,0,34.7,0.1,49.7,0c4.1,0,9.1-2.1,12.7-4.2
					c4.6,3.5,9.6,4.2,17.9,4.2c2.5,0,5.3,0,8.4,0c4.4,0,8.2,0,11.6,0c7,0,11.4-1.5,15.8-4c4,2.4,7.7,3.8,13.9,4v0h9.4v-4.9h-9.4
					C177.7,37.5,174.3,36.9,171.6,34.7z M72.4,20.3H61.6v-5.1h10.8V20.3z M72.4,10H61.6V4.9c3.6,0,7.2,0,10.8,0V10z M80.6,4.9h10.9
					V10H80.6V4.9z M80.6,15.2c3.6,0,7.2,0,10.8,0c0,2.1,0,3.7,0,5.1H80.6C80.6,19,80.6,16.8,80.6,15.2z M115.7,23.1
					c-0.2,3.4-0.8,4.2-1.6,6.4c-1-2.1-1.9-3.1-2.1-6.4c0-4.4,0-10.6,0-15.2h3.7V23.1z M169.5,23.1c-0.1,3.1-0.9,4.7-1.7,6.4
					c-1-1.7-1.9-3.5-1.9-6.4c0-4.7,0-10.4,0-15.2h3.6C169.5,12.7,169.5,18.3,169.5,23.1z"/>
			</g>
		</g>
	</g>
</g>
<g>
	<g>
		<g>
			<g>
				<path fill="#666666" d="M252.3,141.9h3.2v-5.3h36.4v5.3h3v-7.3h-42.6V141.9z M282.8,123.3h-3.2v3.6h-11.9v-3.6h-3.2v3.6h-13.9
					v2.2h13.9v3.6h3.2V129h11.9v3.6h3.2V129h13.9v-2.2h-13.9V123.3z M256.2,168h29.1c4,0.1,5.9-1.6,5.7-5.1v-7.9h-34.8V168z
					 M259.4,156.9h28.5v5.9c0,2.1-1.1,3.2-3.2,3.2h-25.3V156.9z M287.7,146v-5.1h-28.1V151h22.8C286.1,151.1,287.8,149.5,287.7,146z
					 M284.7,146c0.1,2.1-0.9,3.1-3,3h-19v-6.1h22V146z M345.8,124.7h-3c-0.4,3.6-1.1,6.7-2.2,9.5h2.6
					C344.5,131.1,345.4,128,345.8,124.7z M311.9,140.1h5.3v-2.2H304v2.2h4.9v8.3h-6.3v2h6.3V168c3.4-1.3,6.5-3,9.3-4.9v-2.2
					c-1.7,1.2-3.8,2.2-6.3,3v-13.5h6.5v-2h-6.5V140.1z M326.8,134.2c-1.3-2.9-2-6.1-2.2-9.5h-3c0.3,3.4,1.1,6.6,2.6,9.5H326.8z
					 M335.1,123.3h-3v13.1H321V169h3v-11.1h19.2v6.1c0,1.5-0.9,2.2-2.6,2.2h-3.2v2h3.6c3.6,0,5.3-1.4,5.1-4.2v-27.7h-11.1V123.3z
					 M324.1,155.9l-0.2-7.7l19.2-0.4l0.2,7.7L324.1,155.9z M343.2,138.5v7.5H324v-7.5H343.2z M311.5,123.5h-3.2
					c-0.4,4.8-2.4,8.2-6.1,10.5v2c3.3-1.7,5.5-3.4,6.5-5.1h9.7v-2.2H310C310.6,127.2,311.1,125.4,311.5,123.5z M379.9,123.5h-3.4
					v4.6h-20.4v2.2h44.1V128h-20.4V123.5z M390.4,133.2h-3.2c-0.1,2.6-0.9,5.3-2.2,8.1H372c-1.3-2.8-2-5.5-2.2-8.1h-3.2
					c0.3,2.8,1.1,5.5,2.4,8.1h-9.9v10.1c0.3,6.7-1.3,11.8-4.8,15.2v2.4c5.8-3.7,8.4-10,7.9-19v-6.5h36.8v-2.2H388
					C389.3,138.6,390.1,135.9,390.4,133.2z M445.3,135.1v-9.7h-31.9v16h25.1C443.2,141.6,445.4,139.5,445.3,135.1z M416.6,139.1
					v-11.5h25.7v7.1c0.1,3-1.2,4.5-4,4.4H416.6z M432.6,167.6h11.7c4.1,0.1,6.1-1.7,5.9-5.3v-14.6h-17.6V167.6z M435.4,149.8h11.9
					v12.3c0.1,2.2-1,3.3-3.4,3.2h-8.5V149.8z M408.9,167.6h11.5c4.1,0.1,6.1-1.7,5.9-5.3v-14.6h-17.4V167.6z M411.9,149.8h11.5v12.3
					c0.1,2.2-1,3.3-3.4,3.2h-8.1V149.8z M494.3,144.4c1.6-2.9,3-6.8,4.2-11.7h-3.6c-0.5,4-1.7,7.9-3.6,11.7H494.3z M483,127.8h19.2
					v-2.2H461v2.2h18.8v21.6h-21.2v2.2h21.2v17.6h3.2v-17.6h21.2v-2.2H483V127.8z M468,132.8h-3.6c1.2,4.9,2.6,8.8,4.2,11.7h3
					C469.7,140.6,468.5,136.7,468,132.8z M548.8,140.5c0.4,1.2,0.8,2.4,1.2,3.8h3.4c-2-5.3-4.6-10.2-7.7-14.6h-3
					c2.1,3.3,3.8,6.2,5.1,8.7c-8.1,0.8-18.4,1.2-31.1,1.2c5.1-4.4,9.7-9.7,13.7-16h-4c-3,5.7-7.4,11-13.1,16v2.4h4.9
					C528.9,141.9,539,141.4,548.8,140.5z M516.3,167.4h27.5c4.5,0.1,6.7-1.7,6.5-5.5v-14.3h-34V167.4z M519.5,149.8h27.7v11.9
					c0.1,2.5-1.1,3.7-3.8,3.6h-24V149.8z"/>
			</g>
		</g>
		<rect x="229.3" y="109.3" fill-rule="evenodd" clip-rule="evenodd" fill="#CBCBCB" width="1.4" height="75.1"/>
	</g>
	<g>
		<g id="形状_2_copy_3_副本_4_21_">
			<g>
				<path fill-rule="evenodd" clip-rule="evenodd" fill="#CCCCCC" d="M11.8,161.6c-4,7.7-7.5,14.6-11.5,22.7h5.5
					c1-1.9,1.6-3.1,2.9-5.4c2.9,0,5.1,0,8,0c-0.6-1.7-1-3-1.5-4.3h-4.4c1.3-2.6,2-4,4-7.6c2.1,5.9,4.1,11.9,6.1,17.3h5
					c-2.8-7.9-5.3-14.8-7.9-22.7H11.8z M27.1,184.3h4.8l1-22.7l-4.7,0L27.1,184.3z M34.6,184.3h5.1l0.6-16.9h-4.9L34.6,184.3z
					 M35.7,161.6l-0.1,3.6c0,0,3.7,0,4.8,0l0.2-3.6C36.2,161.6,36.2,161.6,35.7,161.6z M66.6,167.5c-0.9-0.3-1.8-0.5-2.7-0.5
					c-0.6,0-1.1,0.1-1.6,0.2c-0.5,0.1-1,0.3-1.4,0.4c-0.4,0.2-0.8,0.4-1.2,0.7c-0.3,0.3-0.6,0.5-0.8,0.8c-0.2,0.3-0.4,0.6-0.7,1
					c-0.2-0.5-0.4-0.9-0.6-1.2c-0.2-0.3-0.4-0.5-0.7-0.7c-0.3-0.2-0.6-0.4-1-0.6c-0.4-0.2-0.8-0.3-1.3-0.4c-0.5-0.1-1-0.1-1.4-0.1
					c-0.7,0-1.3,0.1-1.9,0.2c-0.6,0.2-1.2,0.4-1.6,0.7c-0.5,0.3-0.8,0.6-1.1,0.9c-0.3,0.3-0.6,0.7-1,1.3l0.1-2.7h-4.5l-0.8,16.9
					c0,0,3.7,0,4.8,0c0-1.5,0.1-3.4,0.2-5.9c0.1-2.5,0.3-4.1,0.6-5c0.3-0.9,0.7-1.5,1.3-2c0.6-0.5,1.3-0.8,2-0.8
					c0.4,0,0.8,0.1,1.1,0.2c0.3,0.1,0.6,0.4,0.8,0.7c0.2,0.3,0.4,0.6,0.5,1c0.1,0.3,0.1,0.7,0.1,1.2c0,0.9-0.1,2.7-0.2,5.3
					c-0.1,2.6-0.3,4.4-0.3,5.2c1,0,3.8,0,4.8,0l0.1-4.6c0.1-1.6,0.1-3,0.2-4c0.1-1,0.2-1.8,0.4-2.4c0.2-0.6,0.5-1.1,0.8-1.5
					c0.3-0.4,0.7-0.7,1.1-0.9c0.4-0.2,0.9-0.3,1.4-0.3c0.5,0,0.9,0.1,1.3,0.3c0.4,0.2,0.7,0.5,1,0.9c0.3,0.4,0.4,1,0.4,1.8
					c0,0.7,0,1.5-0.1,2.4l-0.2,3.8c-0.1,1.6-0.2,3.1-0.3,4.5c1,0,3.9,0,4.7,0c0-1.3,0.1-3.1,0.2-5.4c0.1-2.3,0.2-4,0.3-5
					c0.1-1,0.1-1.8,0.1-2.3c0-1-0.2-1.9-0.7-2.5C68.1,168.3,67.4,167.8,66.6,167.5z M84.5,167.4c-1-0.3-2.1-0.4-3.4-0.4
					c-1.1,0-2.2,0.1-3.4,0.2c-1.2,0.1-4,0.7-4,0.7l-0.5,3.1c0,0,4.7-1.4,6.7-1.4c0.5,0,1,0.1,1.5,0.2c0.4,0.1,0.8,0.3,1.1,0.6
					c0.3,0.3,0.4,0.7,0.4,1.1c0,0.2,0,0.4-0.1,0.7c-0.1,0.2-0.2,0.4-0.4,0.6c-0.2,0.2-0.4,0.4-0.7,0.5c-0.3,0.1-0.6,0.2-1.1,0.4
					c-0.5,0.1-0.9,0.2-1.3,0.3c-1.6,0.3-2.9,0.7-3.8,1c-1,0.3-1.7,0.7-2.2,1c-0.5,0.4-0.9,0.7-1.2,1.1c-0.3,0.4-0.6,0.8-0.7,1.3
					c-0.2,0.5-0.2,0.9-0.2,1.4c0,0.8,0.2,1.7,0.6,2.5c0.4,0.8,1.1,1.4,2,1.8c0.9,0.4,2,0.6,3.4,0.6c0.4,0,0.8,0,1.3,0
					c0.5,0,1.1-0.1,1.9-0.2c0.3-1.3,0.6-2.2,0.8-2.8c-0.7,0.2-1.2,0.4-1.6,0.4c-0.4,0.1-0.8,0.1-1.1,0.1c-0.6,0-1-0.1-1.4-0.2
					c-0.4-0.1-0.7-0.4-1-0.7c-0.3-0.3-0.4-0.7-0.4-1.2c0-0.3,0.1-0.6,0.2-0.8c0.1-0.2,0.3-0.5,0.5-0.7c0.2-0.2,0.5-0.4,0.9-0.6
					c0.3-0.2,0.7-0.3,1.1-0.5c0.4-0.1,1-0.3,1.7-0.5c0.7-0.2,1.2-0.3,1.5-0.4c0.3-0.1,0.5-0.2,0.7-0.3c0.2-0.1,0.5-0.3,1-0.6
					l-0.6,8.8h4.7c0,0,0.1-5.4,0.3-8c0.2-2.6,0.3-4.2,0.3-4.8c0-1.2-0.3-2.1-0.9-2.7C86.4,168.1,85.6,167.7,84.5,167.4z
					 M114.3,167.5c-0.9-0.3-1.8-0.5-2.7-0.5c-0.6,0-1.1,0.1-1.6,0.2c-0.5,0.1-1,0.3-1.4,0.4c-0.4,0.2-0.8,0.4-1.2,0.7
					c-0.3,0.3-0.6,0.5-0.8,0.8c-0.2,0.3-0.4,0.6-0.7,1c-0.2-0.5-0.4-0.9-0.6-1.2c-0.2-0.3-0.4-0.5-0.7-0.7c-0.3-0.2-0.6-0.4-1-0.6
					c-0.4-0.2-0.8-0.3-1.3-0.4c-0.5-0.1-0.9-0.1-1.4-0.1c-0.7,0-1.3,0.1-1.9,0.2c-0.6,0.2-1.2,0.4-1.6,0.7c-0.5,0.3-0.8,0.6-1.1,0.9
					c-0.3,0.3-0.6,0.7-1,1.3l0.1-2.7h-4.5L90,184.3h4.8c0,0,0.1-3.4,0.2-5.9c0.1-2.5,0.3-4.1,0.6-5c0.3-0.9,0.7-1.5,1.3-2
					c0.6-0.5,1.3-0.8,2.1-0.8c0.4,0,0.8,0.1,1.1,0.2c0.3,0.1,0.6,0.4,0.8,0.7c0.2,0.3,0.4,0.6,0.5,1c0.1,0.3,0.1,0.7,0.1,1.2
					c0,0.9-0.1,2.7-0.2,5.3c-0.1,2.6-0.3,4.4-0.3,5.2c1,0,3.8,0,4.8,0l0.1-4.6c0.1-1.6,0.1-3,0.2-4c0.1-1,0.2-1.8,0.4-2.4
					c0.2-0.6,0.5-1.1,0.8-1.5c0.4-0.4,0.7-0.7,1.1-0.9c0.4-0.2,0.9-0.3,1.4-0.3c0.5,0,0.9,0.1,1.3,0.3c0.4,0.2,0.7,0.5,0.9,0.9
					c0.2,0.4,0.4,1,0.4,1.8c0,0.7,0,1.5-0.1,2.4l-0.2,3.8c-0.1,1.6-0.2,3.1-0.3,4.5c1,0,3.9,0,4.7,0c0-1.3,0.1-3.1,0.2-5.4
					c0.1-2.3,0.2-4,0.3-5c0.1-1,0.1-1.8,0.1-2.3c0-1-0.2-1.9-0.7-2.5C115.8,168.3,115.1,167.8,114.3,167.5z M132.2,167.4
					c-1-0.3-2.1-0.4-3.4-0.4c-1.1,0-2.2,0.1-3.3,0.2c-1.2,0.1-4,0.7-4,0.7l-0.5,3.1c0,0,4.7-1.4,6.7-1.4c0.5,0,1,0.1,1.5,0.2
					c0.5,0.1,0.8,0.3,1.1,0.6c0.3,0.3,0.4,0.7,0.4,1.1c0,0.2,0,0.4-0.1,0.7c-0.1,0.2-0.2,0.4-0.4,0.6c-0.2,0.2-0.4,0.4-0.7,0.5
					c-0.3,0.1-0.6,0.2-1.1,0.4c-0.5,0.1-0.9,0.2-1.3,0.3c-1.6,0.3-2.9,0.7-3.8,1c-1,0.3-1.7,0.7-2.2,1c-0.5,0.4-0.9,0.7-1.2,1.1
					c-0.3,0.4-0.6,0.8-0.7,1.3c-0.2,0.5-0.3,0.9-0.3,1.4c0,0.8,0.2,1.7,0.6,2.5c0.4,0.8,1.1,1.4,2,1.8c0.9,0.4,2,0.6,3.5,0.6
					c0.4,0,0.8,0,1.3,0c0.5,0,1.1-0.1,1.9-0.2c0.3-1.3,0.6-2.2,0.8-2.8c-0.7,0.2-1.2,0.4-1.6,0.4c-0.4,0.1-0.8,0.1-1.1,0.1
					c-0.6,0-1-0.1-1.5-0.2c-0.4-0.1-0.8-0.4-1-0.7c-0.3-0.3-0.4-0.7-0.4-1.2c0-0.3,0.1-0.6,0.2-0.8c0.1-0.2,0.3-0.5,0.5-0.7
					c0.2-0.2,0.5-0.4,0.9-0.6c0.3-0.2,0.7-0.3,1.1-0.5c0.4-0.1,1-0.3,1.7-0.5c0.7-0.2,1.2-0.3,1.5-0.4c0.3-0.1,0.5-0.2,0.7-0.3
					c0.2-0.1,0.5-0.3,1-0.6l-0.6,8.8h4.7c0,0,0.1-5.4,0.3-8c0.2-2.6,0.3-4.2,0.3-4.8c0-1.2-0.3-2.1-0.9-2.7
					C134,168.1,133.2,167.7,132.2,167.4z M137.5,179.8c-0.1,2.2-0.1,3.7-0.2,4.5c1.6,0,4.7,0,4.7,0s0.2-3.7,0.2-4.5
					C141,179.8,137.5,179.8,137.5,179.8z M149.9,172c0.5-0.5,1.1-0.9,1.7-1.2c0.7-0.3,1.4-0.4,2.1-0.4c1.2,0,2.7,0.3,4.3,0.8
					l-0.2-3.6c-1-0.3-1.9-0.4-2.7-0.5c-0.8-0.1-1.5-0.1-2.2-0.1c-1.3,0-2.5,0.1-3.5,0.4c-1.1,0.3-2,0.9-2.9,1.7
					c-0.9,0.8-1.5,1.9-2,3.2c-0.5,1.3-0.7,2.6-0.7,4c0,1.1,0.1,2.1,0.4,3.1c0.3,1,0.7,1.8,1.2,2.5c0.5,0.7,1.2,1.3,1.9,1.7
					c0.7,0.4,1.5,0.7,2.3,0.9c0.8,0.2,1.7,0.2,2.6,0.2c1.5,0,3.1-0.2,4.7-0.5c0.1-0.8,0.2-1.6,0.4-2.1c0.1-0.6,0.2-1.1,0.2-1.5
					c-0.8,0.3-1.6,0.5-2.3,0.6c-0.7,0.1-1.3,0.2-1.8,0.2c-1,0-1.9-0.2-2.7-0.6c-0.8-0.4-1.4-1-1.7-1.8c-0.3-0.8-0.5-1.7-0.5-2.7
					c0-0.8,0.1-1.5,0.3-2.2C149.1,173.2,149.4,172.5,149.9,172z M175.3,169.3c-0.8-0.7-1.8-1.3-3-1.7c-1.2-0.4-2.4-0.6-3.7-0.6
					c-1.4,0-2.7,0.2-4,0.7c-1.3,0.5-2.3,1.1-3.2,2c-0.8,0.9-1.4,1.9-1.8,3c-0.4,1.1-0.6,2.3-0.6,3.5c0,1.2,0.2,2.3,0.6,3.4
					c0.4,1.1,1.1,2,1.9,2.8c0.8,0.8,1.8,1.3,3,1.7c1.2,0.4,2.4,0.6,3.7,0.6c1.4,0,2.7-0.2,3.9-0.6c1.2-0.4,2.3-1.1,3.1-1.9
					c0.8-0.9,1.5-1.9,1.9-3.1c0.4-1.2,0.7-2.4,0.7-3.7c0-1.2-0.2-2.3-0.6-3.4C176.7,170.9,176.1,170,175.3,169.3z M172.4,178.5
					c-0.4,0.9-0.9,1.6-1.7,2.1c-0.7,0.5-1.6,0.7-2.6,0.7c-1,0-1.8-0.2-2.5-0.7c-0.7-0.5-1.2-1.1-1.5-1.8c-0.3-0.8-0.5-1.6-0.5-2.6
					c0-1.1,0.2-2.1,0.6-3c0.4-0.9,0.9-1.6,1.7-2.1c0.8-0.5,1.6-0.7,2.6-0.7c1,0,1.8,0.2,2.5,0.7c0.7,0.5,1.2,1.1,1.5,1.8
					c0.3,0.8,0.4,1.6,0.4,2.5C173,176.5,172.8,177.6,172.4,178.5z M205.1,169c-0.5-0.7-1.2-1.2-2-1.5c-0.9-0.3-1.8-0.5-2.7-0.5
					c-0.6,0-1.1,0.1-1.6,0.2c-0.5,0.1-1,0.3-1.4,0.4c-0.4,0.2-0.8,0.4-1.1,0.7c-0.3,0.3-0.6,0.5-0.8,0.8c-0.2,0.3-0.4,0.6-0.7,1
					c-0.2-0.5-0.4-0.9-0.6-1.2c-0.2-0.3-0.4-0.5-0.7-0.7c-0.3-0.2-0.6-0.4-1-0.6c-0.4-0.2-0.8-0.3-1.3-0.4c-0.5-0.1-0.9-0.1-1.4-0.1
					c-0.7,0-1.3,0.1-1.9,0.2c-0.6,0.2-1.2,0.4-1.6,0.7c-0.5,0.3-0.8,0.6-1.1,0.9c-0.3,0.3-0.6,0.7-1,1.3l0.1-2.7c-0.8,0-3.6,0-4.5,0
					c0,1.9-0.6,15-0.8,16.9c1,0,3.7,0,4.8,0c0-1.5,0.1-3.4,0.2-5.9c0.1-2.5,0.3-4.1,0.6-5c0.3-0.9,0.7-1.5,1.3-2
					c0.6-0.5,1.3-0.8,2-0.8c0.4,0,0.8,0.1,1.1,0.2c0.3,0.1,0.6,0.4,0.8,0.7c0.2,0.3,0.4,0.6,0.5,1c0.1,0.3,0.1,0.7,0.1,1.2
					c0,0.9-0.1,2.7-0.2,5.3c-0.1,2.6-0.3,4.4-0.3,5.2c1,0,3.8,0,4.8,0l0.1-4.6c0.1-1.6,0.1-3,0.2-4c0.1-1,0.2-1.8,0.4-2.4
					c0.2-0.6,0.5-1.1,0.8-1.5c0.3-0.4,0.7-0.7,1.1-0.9c0.4-0.2,0.9-0.3,1.4-0.3c0.5,0,0.9,0.1,1.3,0.3c0.4,0.2,0.7,0.5,0.9,0.9
					c0.3,0.4,0.4,1,0.4,1.8c0,0.7,0,1.5-0.1,2.4l-0.2,3.8c-0.1,1.6-0.2,3.1-0.3,4.5c1,0,3.9,0,4.7,0c0-1.3,0.1-3.1,0.2-5.4
					c0.1-2.3,0.2-4,0.3-5c0.1-1,0.1-1.8,0.1-2.3C205.8,170.5,205.6,169.6,205.1,169z"/>
			</g>
		</g>
		<g id="形状_2_copy_3_副本_5_29_">
			<g>
				<path fill-rule="evenodd" clip-rule="evenodd" fill="#FF6600" d="M20.1,114.2c7.1,0,14.1,0,21.2,0c0,10.6,0,21.5,0,31.3
					c0,0.6-0.8,1.6-1.6,1.6c-1.1,0-1.6,0-3,0v5.1c1.6,0,3,0,4.6,0c4.1,0,6.8-2,6.8-5.4c0-8.1,0-24.3,0-32.6h2.4v-4.9H20.1V114.2z
					 M146,145.7c2.3,0,1.4,0,3.7,0c1.3,0,3.1-1.1,3.1-3.2c0-5.4,0-9.6,0-15c-1,0-2.1,0-3,0c0-4.1,0-12.6,0-15.6
					c0-1.2-1.2-2.6-2.8-2.6h-22.2v4.9h17.1c0,4.4,0,8.9,0,13.4c-4.1,0-4.7,0-8.2,0c-0.5,0-1-0.5-1-0.9c0-2.2,0-5.8,0-8.8
					c0-0.7-0.7-1.5-1.8-1.5h-5v11.8c0,2.3,2,4.2,4.2,4.2c0,0,8.7,0,15.9,0v4.4h-17.6c-2,0-5,1.9-5,4.9c6.1,0,15.9-0.1,22.6-0.1
					C146,142.9,146,144.2,146,145.7z M38.1,138.3c0-5.6,0-13.5,0-21.1H20.4V144c5.2,0,11.7,0,11.7,0C36.6,144,38.1,141.5,38.1,138.3
					z M30.6,139.1c-1.3,0-2.7,0-4.5,0v-16.8c1.9,0,4.1,0,6,0c0,5.1,0,10.7,0,15.2C32.1,138.4,31.5,139.1,30.6,139.1z M0.2,110.5
					c0,9.6,0,22.2,0,41.6h6.5c0-12.1,0-25.4,0-38c1.5,0,3.4,0,4.9,0c0,7.3,0,13.8,0,20.6c0,2.8-2.5,3.8-2.5,3.8v5.4
					c4.6,0,8.7-4.7,8.7-9c0-7.8,0-17.8,0-25.7c-5.9,0-10.4,0-16.3,0C0.2,109.3,0.2,110.5,0.2,110.5z M203.6,127.5
					c0-4.1,0-12.6,0-15.6c0-1.2-1.2-2.6-2.8-2.6h-22.2v4.9c5.7,0,11.4,0,17.1,0v13.3c-4.1,0-4.7,0-8.2,0c-0.5,0-1-0.5-1-0.9
					c0-2.2,0-5.8,0-8.8c0-0.7-0.7-1.4-1.8-1.4c-1.4,0-3.4,0-5.1,0v11.8c0,2.3,2,4.2,4.2,4.2c0,0,8.7,0,15.9,0v4.4h-17.4
					c-2,0-5.1,1.7-5.1,4.8c6.1,0,15.8,0,22.5,0v4.5c0,0.8-0.6,1.1-1.5,1.1h-2.6c0,2.2,0,3.4,0,4.9h4c1.2,0,0.9,0,2.2,0
					c3.3,0,4.8-2.4,4.7-4.3c0-6.1,0-14.2,0-20.4C205.5,127.5,204.5,127.5,203.6,127.5z M172.1,144c2.4-2.6,3.7-5.7,4-11.6
					c0-6.4,0-12.6,0-18.9c0-0.5-0.7-1.2-1.3-1.2c-2.5,0-5.6,0-8.4,0v-3h-6.5c0,1,0,2,0,3c-0.7,0-1.5,0-2.2,0v4.9h2.2v15.3
					c0,5.9,1.9,8.9,4.3,11.6c-2.9,2-5.8,3.3-9.8,3.3c-0.5,0-1.1,0-1.7,0c-6.1,0-13.5,0-20.1,0c-6.1,0-12-1.1-14.3-3.8
					c2.1-2.8,3.2-5.2,3.9-11.1c0-5.9,0-10.9,0-18.5c-0.1-0.8-0.8-1.6-1.6-1.6c-2.6,0-5.2,0-8.3,0v-3c-2.7,0-3.7,0-6.4,0v3
					c-0.7,0-1.2,0-2.2,0v4.9c1,0,1.5,0,2.2,0c0,5,0,10.6,0,15.2c0.5,5.9,2.4,7.8,4.7,11.3c-3.3,2.3-7.3,3.3-12,3.6
					c-5.6,0-10.6,0-17.7,0c0-1.2,0-2.9,0-3.8h17.7v-5.2H81c0-1.2,0-2.6,0-3.8c5.1,0,11.8,0,13.3,0c0,0,4.3,0,4.4-4.7
					c0.1-5,0-13.9,0-20.5c-14,0-28.2,0-42.2,0c-0.7,0-1.3,0.7-1.3,1.3c0,1,0,16.7,0,24c5.9,0,11.8,0,17.7,0v3.8H55.1
					c0,1.6,0,3.5,0,5.2h17.6c0,1.3,0,2.6,0,3.8H52.1c0,1.4,0,3.3,0,4.8c15.5,0,34.7,0.1,49.8,0c4.1,0,9.1-2.1,12.7-4.2
					c4.6,3.5,9.6,4.2,18,4.2c2.5,0,5.4,0,8.4,0c4.4,0,8.2,0,11.7,0c7,0,11.5-1.5,15.8-4c4,2.4,7.8,3.8,13.9,4v0h9.4v-4.9h-9.4
					C178.2,146.9,174.8,146.2,172.1,144z M72.8,129.7H61.9v-5.2h10.9V129.7z M72.8,119.3H61.9v-5.2c3.6,0,7.2,0,10.9,0V119.3z
					 M81,114.2h10.9v5.2H81V114.2z M81,124.5c3.6,0,7.2,0,10.9,0c0,2.1,0,3.7,0,5.2H80.9C80.9,128.3,80.9,126.1,81,124.5z
					 M116.1,132.4c-0.2,3.4-0.8,4.2-1.6,6.4c-1-2.1-1.9-3.1-2.1-6.5c0-4.4,0-10.6,0-15.2h3.7V132.4z M170,132.4
					c-0.1,3.2-0.9,4.7-1.7,6.4c-1-1.7-1.9-3.5-1.9-6.4c0-4.7,0-10.4,0-15.3h3.6C170,122.1,170,127.7,170,132.4z"/>
			</g>
		</g>
	</g>
</g>
</svg>
