<?xml version="1.0" encoding="utf-8"?>
<!-- Generator: Adobe Illustrator 17.1.0, SVG Export Plug-In . SVG Version: 6.00 Build 0)  -->
<!DOCTYPE svg PUBLIC "-//W3C//DTD SVG 1.1//EN" "http://www.w3.org/Graphics/SVG/1.1/DTD/svg11.dtd">
<svg version="1.1" id="图层_1" xmlns="http://www.w3.org/2000/svg" xmlns:xlink="http://www.w3.org/1999/xlink" x="0px" y="0px"
	 viewBox="0 0 678 76.5" enable-background="new 0 0 678 76.5" xml:space="preserve">
<g>
	<g>
		<g id="形状_2_copy_3_副本_4_23_">
			<g>
				<path fill-rule="evenodd" clip-rule="evenodd" fill="#CCCCCC" d="M11.5,52.2C7.6,60,4.1,66.8,0,74.9h5.5c1-1.9,1.6-3.1,2.8-5.4
					c2.9,0,5.1,0,7.9,0c-0.6-1.7-1-3-1.5-4.3h-4.4c1.3-2.6,2-4,4-7.5c2.1,5.9,4.1,11.8,6.1,17.2h5c-2.8-7.9-5.3-14.8-7.9-22.6H11.5z
					 M26.8,74.9h4.8l1-22.7l-4.7,0L26.8,74.9z M34.3,74.9h5L40,58h-4.8L34.3,74.9z M35.4,52.2l-0.1,3.6c0,0,3.7,0,4.8,0l0.2-3.6
					C35.9,52.2,35.9,52.2,35.4,52.2z M66.2,58.1c-0.9-0.3-1.8-0.5-2.7-0.5c-0.6,0-1.1,0.1-1.6,0.2c-0.5,0.1-1,0.3-1.4,0.4
					c-0.4,0.2-0.8,0.4-1.1,0.7c-0.3,0.3-0.6,0.5-0.8,0.8c-0.2,0.3-0.4,0.6-0.7,1c-0.2-0.5-0.4-0.9-0.6-1.2c-0.2-0.3-0.4-0.5-0.7-0.7
					c-0.3-0.2-0.6-0.4-1-0.6c-0.4-0.2-0.8-0.3-1.3-0.4c-0.5-0.1-0.9-0.1-1.4-0.1c-0.7,0-1.3,0.1-1.9,0.2c-0.6,0.2-1.2,0.4-1.6,0.7
					c-0.5,0.3-0.8,0.6-1.1,0.9c-0.3,0.3-0.6,0.7-1,1.3l0.1-2.7h-4.5L42,74.9c0,0,3.7,0,4.7,0c0-1.4,0.1-3.4,0.2-5.9
					c0.1-2.5,0.3-4.1,0.6-5c0.3-0.8,0.7-1.5,1.3-2c0.6-0.5,1.3-0.8,2-0.8c0.4,0,0.8,0.1,1.1,0.2c0.3,0.1,0.6,0.4,0.8,0.7
					c0.2,0.3,0.4,0.6,0.5,1c0.1,0.3,0.1,0.7,0.1,1.2c0,0.9-0.1,2.7-0.2,5.3c-0.1,2.6-0.3,4.4-0.3,5.2c1,0,3.8,0,4.7,0l0.1-4.6
					c0.1-1.6,0.1-3,0.2-4c0.1-1,0.2-1.8,0.4-2.4c0.2-0.6,0.5-1.1,0.8-1.5c0.3-0.4,0.7-0.7,1.1-0.9c0.4-0.2,0.9-0.3,1.4-0.3
					c0.5,0,0.9,0.1,1.3,0.3c0.4,0.2,0.7,0.5,0.9,0.9c0.3,0.4,0.4,1,0.4,1.8c0,0.7,0,1.5-0.1,2.4L64,70.4c-0.1,1.6-0.2,3.1-0.3,4.5
					c1,0,3.9,0,4.7,0c0-1.3,0.1-3.1,0.2-5.4c0.1-2.3,0.2-4,0.3-5c0.1-1,0.1-1.8,0.1-2.3c0-1-0.2-1.9-0.7-2.5
					C67.8,58.9,67.1,58.4,66.2,58.1z M84.2,58c-1-0.3-2.1-0.4-3.4-0.4c-1.1,0-2.2,0.1-3.3,0.2c-1.2,0.1-4,0.7-4,0.7L73,61.7
					c0,0,4.7-1.4,6.7-1.4c0.5,0,1,0.1,1.5,0.2c0.4,0.1,0.8,0.3,1.1,0.6c0.3,0.3,0.4,0.7,0.4,1.1c0,0.2,0,0.4-0.1,0.6
					c-0.1,0.2-0.2,0.4-0.4,0.6c-0.2,0.2-0.4,0.4-0.7,0.5c-0.3,0.1-0.6,0.2-1.1,0.4c-0.5,0.1-0.9,0.2-1.3,0.3c-1.6,0.3-2.9,0.7-3.8,1
					c-1,0.3-1.7,0.7-2.2,1c-0.5,0.4-0.9,0.7-1.2,1.1c-0.3,0.4-0.6,0.8-0.7,1.3c-0.2,0.5-0.2,0.9-0.2,1.4c0,0.8,0.2,1.7,0.6,2.5
					c0.4,0.8,1.1,1.4,2,1.8c0.9,0.4,2,0.6,3.4,0.6c0.4,0,0.8,0,1.3,0c0.5,0,1.1-0.1,1.9-0.2c0.3-1.2,0.6-2.2,0.8-2.8
					c-0.7,0.2-1.2,0.4-1.6,0.4c-0.4,0.1-0.8,0.1-1.1,0.1c-0.6,0-1-0.1-1.4-0.2c-0.4-0.1-0.7-0.4-1-0.7c-0.3-0.3-0.4-0.7-0.4-1.2
					c0-0.3,0.1-0.6,0.2-0.8c0.1-0.2,0.3-0.5,0.5-0.7c0.2-0.2,0.5-0.4,0.9-0.6c0.3-0.2,0.7-0.3,1.1-0.5c0.4-0.1,1-0.3,1.7-0.5
					c0.7-0.2,1.2-0.3,1.5-0.4c0.3-0.1,0.5-0.2,0.7-0.3c0.2-0.1,0.5-0.3,1-0.6l-0.6,8.8h4.7c0,0,0.1-5.4,0.3-8
					c0.2-2.6,0.3-4.2,0.3-4.8c0-1.2-0.3-2.1-0.9-2.7C86,58.8,85.2,58.3,84.2,58z M113.8,58.1c-0.9-0.3-1.8-0.5-2.7-0.5
					c-0.6,0-1.1,0.1-1.6,0.2c-0.5,0.1-1,0.3-1.4,0.4c-0.4,0.2-0.8,0.4-1.1,0.7c-0.3,0.3-0.6,0.5-0.8,0.8c-0.2,0.3-0.4,0.6-0.7,1
					c-0.2-0.5-0.4-0.9-0.6-1.2c-0.2-0.3-0.4-0.5-0.7-0.7c-0.3-0.2-0.6-0.4-1-0.6c-0.4-0.2-0.8-0.3-1.3-0.4c-0.5-0.1-0.9-0.1-1.4-0.1
					c-0.7,0-1.3,0.1-1.9,0.2c-0.6,0.2-1.2,0.4-1.6,0.7c-0.5,0.3-0.8,0.6-1.1,0.9c-0.3,0.3-0.6,0.7-1,1.3l0.1-2.7h-4.5l-0.7,16.9h4.7
					c0,0,0.1-3.4,0.2-5.9c0.1-2.5,0.3-4.1,0.6-5c0.3-0.8,0.7-1.5,1.3-2c0.6-0.5,1.3-0.8,2-0.8c0.4,0,0.8,0.1,1.1,0.2
					c0.3,0.1,0.6,0.4,0.8,0.7c0.2,0.3,0.4,0.6,0.5,1c0.1,0.3,0.1,0.7,0.1,1.2c0,0.9-0.1,2.7-0.2,5.3c-0.1,2.6-0.3,4.4-0.3,5.2
					c1,0,3.8,0,4.8,0l0.1-4.6c0.1-1.6,0.1-3,0.2-4c0.1-1,0.2-1.8,0.4-2.4c0.2-0.6,0.5-1.1,0.8-1.5c0.3-0.4,0.7-0.7,1.1-0.9
					c0.4-0.2,0.9-0.3,1.4-0.3c0.5,0,0.9,0.1,1.3,0.3c0.4,0.2,0.7,0.5,0.9,0.9c0.2,0.4,0.4,1,0.4,1.8c0,0.7,0,1.5-0.1,2.4l-0.2,3.8
					c-0.1,1.6-0.2,3.1-0.3,4.5c1,0,3.9,0,4.7,0c0-1.3,0.1-3.1,0.2-5.4c0.1-2.3,0.2-4,0.3-5c0.1-1,0.1-1.8,0.1-2.3
					c0-1-0.2-1.9-0.7-2.5C115.4,58.9,114.7,58.4,113.8,58.1z M131.8,58c-1-0.3-2.1-0.4-3.4-0.4c-1.1,0-2.2,0.1-3.3,0.2
					c-1.2,0.1-4,0.7-4,0.7l-0.5,3.1c0,0,4.7-1.4,6.7-1.4c0.5,0,1,0.1,1.5,0.2c0.5,0.1,0.8,0.3,1.1,0.6c0.3,0.3,0.4,0.7,0.4,1.1
					c0,0.2,0,0.4-0.1,0.6c-0.1,0.2-0.2,0.4-0.4,0.6c-0.2,0.2-0.4,0.4-0.7,0.5c-0.3,0.1-0.6,0.2-1.1,0.4c-0.5,0.1-0.9,0.2-1.3,0.3
					c-1.6,0.3-2.9,0.7-3.8,1c-1,0.3-1.7,0.7-2.2,1c-0.5,0.4-0.9,0.7-1.2,1.1c-0.3,0.4-0.6,0.8-0.7,1.3c-0.2,0.5-0.3,0.9-0.3,1.4
					c0,0.8,0.2,1.7,0.6,2.5c0.4,0.8,1.1,1.4,2,1.8c0.9,0.4,2,0.6,3.4,0.6c0.4,0,0.8,0,1.3,0c0.5,0,1.1-0.1,1.9-0.2
					c0.3-1.2,0.6-2.2,0.8-2.8c-0.7,0.2-1.2,0.4-1.6,0.4c-0.4,0.1-0.8,0.1-1.1,0.1c-0.6,0-1-0.1-1.4-0.2c-0.4-0.1-0.8-0.4-1-0.7
					c-0.3-0.3-0.4-0.7-0.4-1.2c0-0.3,0.1-0.6,0.2-0.8c0.1-0.2,0.3-0.5,0.5-0.7c0.2-0.2,0.5-0.4,0.9-0.6c0.3-0.2,0.7-0.3,1.1-0.5
					c0.4-0.1,1-0.3,1.7-0.5c0.7-0.2,1.2-0.3,1.5-0.4c0.3-0.1,0.5-0.2,0.7-0.3c0.2-0.1,0.5-0.3,1-0.6l-0.6,8.8h4.7c0,0,0.1-5.4,0.3-8
					c0.2-2.6,0.3-4.2,0.3-4.8c0-1.2-0.3-2.1-0.9-2.7C133.6,58.8,132.8,58.3,131.8,58z M137.1,70.4c-0.1,2.2-0.1,3.7-0.2,4.5
					c1.6,0,4.7,0,4.7,0s0.2-3.7,0.2-4.5C140.6,70.4,137.1,70.4,137.1,70.4z M149.4,62.6c0.5-0.5,1.1-0.9,1.7-1.2
					c0.7-0.3,1.4-0.4,2.1-0.4c1.2,0,2.7,0.3,4.3,0.8l-0.2-3.6c-1-0.3-1.9-0.4-2.7-0.5c-0.8-0.1-1.5-0.1-2.2-0.1
					c-1.3,0-2.5,0.1-3.5,0.4c-1.1,0.3-2,0.8-2.9,1.7c-0.9,0.8-1.5,1.9-2,3.1c-0.5,1.3-0.7,2.6-0.7,4c0,1.1,0.1,2.1,0.4,3.1
					c0.3,1,0.7,1.8,1.2,2.5c0.5,0.7,1.2,1.3,1.9,1.7c0.7,0.4,1.5,0.7,2.3,0.9c0.8,0.2,1.7,0.2,2.6,0.2c1.5,0,3.1-0.2,4.7-0.5
					c0.1-0.8,0.2-1.6,0.4-2.1c0.1-0.6,0.2-1.1,0.2-1.5c-0.8,0.3-1.6,0.5-2.3,0.6c-0.7,0.1-1.3,0.2-1.8,0.2c-1,0-1.9-0.2-2.7-0.6
					c-0.8-0.4-1.4-1-1.7-1.8c-0.3-0.8-0.5-1.7-0.5-2.7c0-0.8,0.1-1.5,0.3-2.2C148.6,63.8,149,63.2,149.4,62.6z M174.8,59.9
					c-0.8-0.7-1.8-1.3-3-1.7c-1.2-0.4-2.4-0.6-3.7-0.6c-1.4,0-2.7,0.2-4,0.7c-1.3,0.5-2.3,1.1-3.2,2c-0.8,0.9-1.4,1.8-1.8,3
					c-0.4,1.1-0.6,2.3-0.6,3.5c0,1.2,0.2,2.3,0.6,3.4c0.4,1.1,1.1,2,1.9,2.8c0.8,0.8,1.8,1.3,3,1.7c1.2,0.4,2.4,0.6,3.7,0.6
					c1.4,0,2.7-0.2,3.9-0.6c1.2-0.4,2.2-1.1,3.1-1.9c0.8-0.9,1.4-1.9,1.9-3c0.4-1.2,0.6-2.4,0.6-3.6c0-1.2-0.2-2.3-0.6-3.4
					C176.2,61.5,175.6,60.6,174.8,59.9z M171.9,69.1c-0.4,0.9-0.9,1.6-1.7,2.1c-0.7,0.5-1.6,0.7-2.6,0.7c-1,0-1.8-0.2-2.5-0.7
					c-0.7-0.5-1.2-1.1-1.5-1.8c-0.3-0.8-0.5-1.6-0.5-2.6c0-1.1,0.2-2.1,0.6-3c0.4-0.9,0.9-1.6,1.7-2.1c0.8-0.5,1.6-0.7,2.6-0.7
					c1,0,1.8,0.2,2.5,0.7c0.7,0.5,1.2,1.1,1.5,1.8c0.3,0.8,0.4,1.6,0.4,2.5C172.5,67.1,172.3,68.2,171.9,69.1z M204.6,59.6
					c-0.5-0.7-1.2-1.2-2-1.5c-0.9-0.3-1.8-0.5-2.7-0.5c-0.6,0-1.1,0.1-1.6,0.2c-0.5,0.1-1,0.3-1.4,0.4c-0.4,0.2-0.8,0.4-1.1,0.7
					c-0.3,0.3-0.6,0.5-0.8,0.8c-0.2,0.3-0.4,0.6-0.7,1c-0.2-0.5-0.4-0.9-0.6-1.2c-0.2-0.3-0.4-0.5-0.7-0.7c-0.3-0.2-0.6-0.4-1-0.6
					c-0.4-0.2-0.8-0.3-1.3-0.4c-0.5-0.1-0.9-0.1-1.4-0.1c-0.7,0-1.3,0.1-1.9,0.2c-0.6,0.2-1.2,0.4-1.6,0.7c-0.5,0.3-0.8,0.6-1.1,0.9
					c-0.3,0.3-0.6,0.7-1,1.3l0.1-2.7c-0.8,0-3.5,0-4.5,0c0,1.9-0.6,15-0.7,16.9c1,0,3.7,0,4.7,0c0-1.4,0.1-3.4,0.2-5.9
					c0.1-2.5,0.3-4.1,0.6-5c0.3-0.8,0.7-1.5,1.3-2c0.6-0.5,1.3-0.8,2-0.8c0.4,0,0.8,0.1,1.1,0.2c0.3,0.1,0.6,0.4,0.8,0.7
					c0.2,0.3,0.4,0.6,0.5,1c0.1,0.3,0.1,0.7,0.1,1.2c0,0.9-0.1,2.7-0.2,5.3c-0.1,2.6-0.3,4.4-0.3,5.2c1,0,3.8,0,4.7,0l0.1-4.6
					c0.1-1.6,0.1-3,0.2-4c0.1-1,0.2-1.8,0.4-2.4c0.2-0.6,0.5-1.1,0.8-1.5c0.3-0.4,0.7-0.7,1.1-0.9c0.4-0.2,0.9-0.3,1.4-0.3
					c0.5,0,0.9,0.1,1.3,0.3c0.4,0.2,0.7,0.5,0.9,0.9c0.3,0.4,0.4,1,0.4,1.8c0,0.7,0,1.5-0.1,2.4l-0.2,3.8c-0.1,1.6-0.2,3.1-0.3,4.5
					c1,0,3.9,0,4.7,0c0-1.3,0.1-3.1,0.2-5.4c0.1-2.3,0.2-4,0.3-5c0.1-1,0.1-1.8,0.1-2.3C205.3,61.1,205.1,60.3,204.6,59.6z"/>
			</g>
		</g>
		<g id="形状_2_copy_3_副本_5_23_">
			<g>
				<path fill-rule="evenodd" clip-rule="evenodd" fill="#FF6600" d="M19.8,4.9c7.1,0,14.1,0,21.2,0c0,10.5,0,21.4,0,31.2
					c0,0.6-0.8,1.5-1.6,1.6c-1.1,0-1.6,0-3,0v5.1c1.6,0,3,0,4.6,0c4.1,0,6.8-2,6.8-5.4c0-8.1,0-24.2,0-32.5h2.4V0H19.8V4.9z
					 M145.5,36.4c2.3,0,1.4,0,3.7,0c1.3,0,3.1-1.1,3.1-3.2c0-5.4,0-9.6,0-15c-1,0-2.1,0-3,0c0-4.1,0-12.6,0-15.6
					c0-1.2-1.2-2.6-2.8-2.6h-22.2v4.9h17.1c0,4.4,0,8.9,0,13.3c-4.1,0-4.7,0-8.2,0c-0.5,0-1-0.5-1-0.9c0-2.2,0-5.8,0-8.8
					c0-0.7-0.7-1.5-1.8-1.5h-5v11.8c0,2.3,2,4.2,4.2,4.2c0,0,8.7,0,15.9,0v4.4h-17.6c-2,0-4.9,1.9-4.9,4.9c6.1,0,15.9-0.1,22.6-0.1
					C145.5,33.5,145.5,34.8,145.5,36.4z M37.8,28.9c0-5.6,0-13.5,0-21.1H20.1v26.8c5.2,0,11.7,0,11.7,0
					C36.3,34.7,37.8,32.2,37.8,28.9z M30.3,29.8c-1.3,0-2.7,0-4.5,0V13c1.9,0,4.1,0,6,0c0,5.1,0,10.7,0,15.2
					C31.8,29.1,31.2,29.8,30.3,29.8z M0,1.2c0,9.6,0,22.2,0,41.6h6.5c0-12.1,0-25.4,0-37.9c1.5,0,3.3,0,4.9,0c0,7.3,0,13.8,0,20.6
					c0,2.8-2.5,3.8-2.5,3.8v5.4c4.6,0,8.7-4.7,8.7-9c0-7.8,0-17.8,0-25.6C11.8,0,7.3,0,1.4,0C0,0,0,1.2,0,1.2z M203,18.2
					c0-4.1,0-12.6,0-15.6c0-1.2-1.2-2.6-2.8-2.6h-22.2v4.9c5.7,0,11.4,0,17.1,0v13.3c-4.1,0-4.7,0-8.2,0c-0.5,0-1-0.5-1-0.9
					c0-2.2,0-5.8,0-8.8c0-0.7-0.7-1.4-1.8-1.4c-1.4,0-3.4,0-5,0v11.8c0,2.3,2,4.2,4.2,4.2c0,0,8.7,0,15.9,0v4.4h-17.4
					c-2,0-5.1,1.7-5.1,4.8c6.1,0,15.8,0,22.4,0v4.5c0,0.8-0.6,1.1-1.5,1.1h-2.6c0,2.2,0,3.4,0,4.9h4c1.2,0,0.9,0,2.1,0
					c3.3,0,4.8-2.4,4.7-4.3c0-6.1,0-14.2,0-20.3C205,18.2,203.9,18.2,203,18.2z M171.6,34.7c2.4-2.6,3.7-5.7,4-11.6
					c0-6.4,0-12.6,0-18.9c0-0.5-0.7-1.2-1.3-1.2c-2.5,0-5.6,0-8.3,0V0h-6.5c0,1,0,2,0,3c-0.7,0-1.5,0-2.2,0v4.9h2.2v15.2
					c0,5.9,1.9,8.9,4.3,11.6c-2.9,2-5.8,3.3-9.8,3.3c-0.5,0-1.1,0-1.7,0c-6.1,0-13.5,0-20,0c-6.1,0-12-1.1-14.2-3.8
					c2.1-2.8,3.2-5.1,3.9-11.1c0-5.9,0-10.9,0-18.5C121.7,3.8,121,3,120.3,3c-2.6,0-5.2,0-8.3,0V0c-2.7,0-3.7,0-6.4,0v3
					c-0.7,0-1.2,0-2.2,0v4.9c1,0,1.5,0,2.2,0c0,5,0,10.6,0,15.2c0.5,5.9,2.4,7.8,4.7,11.3c-3.3,2.3-7.3,3.3-12,3.6
					c-5.6,0-10.6,0-17.7,0c0-1.2,0-2.9,0-3.8h17.7V29H80.6c0-1.2,0-2.5,0-3.8c5.1,0,11.8,0,13.3,0c0,0,4.3,0,4.4-4.7
					c0.1-5,0-13.8,0-20.5c-14,0-28.1,0-42.1,0c-0.7,0-1.3,0.7-1.3,1.3c0,1,0,16.6,0,23.9c5.9,0,11.8,0,17.7,0V29H54.8
					c0,1.6,0,3.5,0,5.1h17.6c0,1.3,0,2.5,0,3.8H51.8c0,1.4,0,3.3,0,4.8c15.5,0,34.7,0.1,49.7,0c4.1,0,9.1-2.1,12.7-4.2
					c4.6,3.5,9.6,4.2,17.9,4.2c2.5,0,5.3,0,8.4,0c4.4,0,8.2,0,11.6,0c7,0,11.4-1.5,15.8-4c4,2.4,7.7,3.8,13.9,4v0h9.4v-4.9h-9.4
					C177.7,37.5,174.3,36.9,171.6,34.7z M72.4,20.3H61.6v-5.1h10.8V20.3z M72.4,10H61.6V4.9c3.6,0,7.2,0,10.8,0V10z M80.6,4.9h10.9
					V10H80.6V4.9z M80.6,15.2c3.6,0,7.2,0,10.8,0c0,2.1,0,3.7,0,5.1H80.6C80.6,19,80.6,16.8,80.6,15.2z M115.7,23.1
					c-0.2,3.4-0.8,4.2-1.6,6.4c-1-2.1-1.9-3.1-2.1-6.4c0-4.4,0-10.6,0-15.2h3.7V23.1z M169.5,23.1c-0.1,3.1-0.9,4.7-1.7,6.4
					c-1-1.7-1.9-3.5-1.9-6.4c0-4.7,0-10.4,0-15.2h3.6C169.5,12.7,169.5,18.3,169.5,23.1z"/>
			</g>
		</g>
	</g>
</g>
<g>
	<g>
		<path fill="#666666" d="M407,35.3h3.6c3.6,0.1,5.3-1.5,5.2-4.9v-9.9h4.8v-2.1h-4.8V14h-3v4.3h-14.7V14h-3v4.3H391v2.1h4.2v14.8
			h8.9v5.3h-13.7v2.1h8.1c-0.5,4.9-2.8,8.8-6.9,11.7v1.9c5.6-2.7,8.9-7.3,9.9-13.6h2.6v16h3v-16h2.6c0.9,6.4,4.5,10.9,10.7,13.6
			v-1.9c-4.6-2.9-7.3-6.8-7.9-11.7h8.5v-2.1H407V35.3z M398.1,20.5h14.7v5.3h-14.7V20.5z M398.1,33.1v-5.5h14.7v2.7
			c0.1,1.9-0.8,2.9-2.8,2.7H398.1z M384,50.7c3-3.4,4.5-8.9,4.4-16.6V23h2v-2h-2v-6.8h-2.8V21h-6v-6.8h-2.8V21h-2.4v2h2.4v11.1
			c-0.1,7.5,1.3,13.1,4.2,16.6c-1.1,1.4-3.4,3.3-6.9,5.7v2.1c3.6-2.2,6.4-4.2,8.5-6c2,1.8,4.6,3.8,7.9,6v-2.1
			C387.8,54.4,385.6,52.5,384,50.7z M379.7,34.3V23h6v11.3c0.1,6.6-0.9,11.4-3,14.4C380.5,45.5,379.5,40.7,379.7,34.3z M437.5,13.8
			c-1.3,7.3-5,12.7-11.1,16.4v2c2.9-1.4,5.1-2.8,6.5-4.1v30.6h3.2V24.9c1.7-2.2,3.2-5.9,4.6-11.1H437.5z M471,23.6v-2.1h-13.9v-7.6
			H454v7.6h-13.3v2.1h5.2c0,9.4-2.3,17.6-6.9,24.8v3.3c6.5-7.7,9.8-17,9.9-28.1h5.2v23h-8.7v2h8.7v9.9h3.2v-9.9h8.1v-2h-8.1v-23h5
			c0.1,11.3,3.4,20.6,9.9,27.9v-3.1c-4.5-6.8-6.7-15-6.7-24.8H471z M492.3,32.2v2.5h3.4c8.5,0,15.8-0.6,22-1.9
			c0.1,0.3,0.3,0.8,0.6,1.6c0.3,0.7,0.5,1.2,0.6,1.6h3c-1.3-3.9-3-7.5-5-10.7h-2.8c0.1,0.4,0.2,0.5,0.2,0.4c1.3,2.5,2.2,4.3,2.8,5.5
			c-5,0.8-12.2,1.2-21.6,1.2c4.1-3.4,7.1-7.2,8.9-11.5h18.7v-1.9H509v-4.9h-3v4.9H491v1.9h10.1C498.8,25.2,495.9,29,492.3,32.2z
			 M488,24.4c-0.8-3-2.3-6.2-4.4-9.7h-2.8c1.9,3.1,3.3,6.4,4.4,9.7H488z M504.7,57.7h2.8V37.2h-2.8V57.7z M522.7,52.8
			c0.1,1.8-0.8,2.7-2.8,2.5c-2.6,0.1-3.8-0.7-3.6-2.5V37.2h-2.8v15.2c-0.1,3.5,1.7,5.2,5.4,5.1h1.2c3.3,0.1,4.9-1.4,4.8-4.5v-1.6
			h-2.2V52.8z M497.9,37.4h-2.8v7.4c0.1,5.1-1.7,9-5.4,11.7v2.1c5.7-3.1,8.4-7.8,8.1-14V37.4z M479.8,57.7h3.4
			c2.6-5.5,4.4-11.8,5.2-18.9h-2.6C484.9,45.7,482.9,52,479.8,57.7z M481.2,26.5c2,3.4,3.4,6.7,4.2,9.9h3c-1.2-3.8-2.6-7.1-4.4-9.9
			H481.2z M571.8,22.4V16h-36.1v10.7h30.8C570.2,26.8,571.9,25.4,571.8,22.4z M538.7,17.7h30.2v2.7h-30.2V17.7z M538.7,24.9v-2.7
			h30.2v0.2c0.1,1.7-0.8,2.5-2.8,2.5H538.7z M576.8,29.4h-46v2h46V29.4z M555.3,52h18.3v-1.8h-18.3v-3.7h10.7c3.7,0,5.5-1.4,5.4-4.3
			v-8.2h-35.3v12.5h16.1v3.7h-18.3V52h18.3v3.3h-21.4v1.9H577v-1.9h-21.6V52z M555.3,35.9h12.9v3.5h-12.9V35.9z M555.3,41.1h12.9
			v1.2c0.1,1.8-0.7,2.7-2.6,2.5h-10.3V41.1z M552.2,44.8h-12.9v-3.7h12.9V44.8z M552.2,39.4h-12.9v-3.5h12.9V39.4z M618.7,34.5
			c1.6-2.9,3-6.7,4.2-11.5h-3.6c-0.5,3.9-1.7,7.7-3.6,11.5H618.7z M592.3,23h-3.6c1.2,4.8,2.6,8.6,4.2,11.5h3
			C594.1,30.7,592.9,26.9,592.3,23z M607.4,18.1h19.3V16h-41.3v2.1h18.9v21.3H583v2.1h21.2v17.4h3.2V41.5h21.2v-2.1h-21.2V18.1z
			 M640.8,57.1h27.6c4.5,0.1,6.7-1.7,6.5-5.5v-14h-34.1V57.1z M644,39.8h27.8v11.7c0.1,2.5-1.1,3.6-3.8,3.5h-24V39.8z M673.4,30.6
			c0.4,1.2,0.8,2.4,1.2,3.7h3.4c-2-5.2-4.6-10-7.7-14.4h-3c2.1,3.3,3.8,6.1,5.2,8.6c-8.1,0.8-18.5,1.2-31.2,1.2
			c5.2-4.3,9.7-9.6,13.7-15.8h-4c-3,5.6-7.4,10.9-13.1,15.8V32h5C653.4,32,663.6,31.5,673.4,30.6z"/>
	</g>
</g>
<g>
	<path fill="#989898" d="M304.2,32.8v3h-13.1v13.1h-2.7V35.7h-13.1v-3h13.1V19.9h2.7v12.9H304.2z"/>
</g>
</svg>
