<?xml version="1.0" encoding="utf-8"?>
<!-- Generator: Adobe Illustrator 17.1.0, SVG Export Plug-In . SVG Version: 6.00 Build 0)  -->
<!DOCTYPE svg PUBLIC "-//W3C//DTD SVG 1.1//EN" "http://www.w3.org/Graphics/SVG/1.1/DTD/svg11.dtd">
<svg version="1.1" id="图层_1" xmlns="http://www.w3.org/2000/svg" xmlns:xlink="http://www.w3.org/1999/xlink" x="0px" y="0px"
	 viewBox="0 0 582.1 77.5" enable-background="new 0 0 582.1 77.5" xml:space="preserve">
<g>
	<g>
		<g id="形状_2_copy_3_副本_4_40_">
			<g>
				<path fill-rule="evenodd" clip-rule="evenodd" fill="#CCCCCC" d="M11.5,52.2C7.6,60,4.1,66.8,0,74.9h5.5c1-1.9,1.6-3.1,2.8-5.4
					c2.9,0,5.1,0,7.9,0c-0.6-1.7-1-3-1.5-4.3h-4.4c1.3-2.6,2-4,4-7.5c2.1,5.9,4.1,11.8,6.1,17.2h5c-2.8-7.9-5.3-14.8-7.9-22.6H11.5z
					 M26.8,74.9h4.8l1-22.7l-4.7,0L26.8,74.9z M34.3,74.9h5L40,58h-4.8L34.3,74.9z M35.4,52.2l-0.1,3.6c0,0,3.7,0,4.8,0l0.2-3.6
					C35.9,52.2,35.9,52.2,35.4,52.2z M66.2,58.1c-0.9-0.3-1.8-0.5-2.7-0.5c-0.6,0-1.1,0.1-1.6,0.2c-0.5,0.1-1,0.3-1.4,0.4
					c-0.4,0.2-0.8,0.4-1.1,0.7c-0.3,0.3-0.6,0.5-0.8,0.8c-0.2,0.3-0.4,0.6-0.7,1c-0.2-0.5-0.4-0.9-0.6-1.2c-0.2-0.3-0.4-0.5-0.7-0.7
					c-0.3-0.2-0.6-0.4-1-0.6c-0.4-0.2-0.8-0.3-1.3-0.4c-0.5-0.1-0.9-0.1-1.4-0.1c-0.7,0-1.3,0.1-1.9,0.2c-0.6,0.2-1.2,0.4-1.6,0.7
					c-0.5,0.3-0.8,0.6-1.1,0.9c-0.3,0.3-0.6,0.7-1,1.3l0.1-2.7h-4.5L42,74.9c0,0,3.7,0,4.7,0c0-1.4,0.1-3.4,0.2-5.9
					c0.1-2.5,0.3-4.1,0.6-5c0.3-0.8,0.7-1.5,1.3-2c0.6-0.5,1.3-0.8,2-0.8c0.4,0,0.8,0.1,1.1,0.2c0.3,0.1,0.6,0.4,0.8,0.7
					c0.2,0.3,0.4,0.6,0.5,1c0.1,0.3,0.1,0.7,0.1,1.2c0,0.9-0.1,2.7-0.2,5.3c-0.1,2.6-0.3,4.4-0.3,5.2c1,0,3.8,0,4.7,0l0.1-4.6
					c0.1-1.6,0.1-3,0.2-4c0.1-1,0.2-1.8,0.4-2.4c0.2-0.6,0.5-1.1,0.8-1.5c0.3-0.4,0.7-0.7,1.1-0.9c0.4-0.2,0.9-0.3,1.4-0.3
					c0.5,0,0.9,0.1,1.3,0.3c0.4,0.2,0.7,0.5,0.9,0.9c0.3,0.4,0.4,1,0.4,1.8c0,0.7,0,1.5-0.1,2.4L64,70.4c-0.1,1.6-0.2,3.1-0.3,4.5
					c1,0,3.9,0,4.7,0c0-1.3,0.1-3.1,0.2-5.4c0.1-2.3,0.2-4,0.3-5c0.1-1,0.1-1.8,0.1-2.3c0-1-0.2-1.9-0.7-2.5
					C67.8,58.9,67.1,58.4,66.2,58.1z M84.2,58c-1-0.3-2.1-0.4-3.4-0.4c-1.1,0-2.2,0.1-3.3,0.2c-1.2,0.1-4,0.7-4,0.7L73,61.7
					c0,0,4.7-1.4,6.7-1.4c0.5,0,1,0.1,1.5,0.2c0.4,0.1,0.8,0.3,1.1,0.6c0.3,0.3,0.4,0.7,0.4,1.1c0,0.2,0,0.4-0.1,0.6
					c-0.1,0.2-0.2,0.4-0.4,0.6c-0.2,0.2-0.4,0.4-0.7,0.5c-0.3,0.1-0.6,0.2-1.1,0.4c-0.5,0.1-0.9,0.2-1.3,0.3c-1.6,0.3-2.9,0.7-3.8,1
					c-1,0.3-1.7,0.7-2.2,1c-0.5,0.4-0.9,0.7-1.2,1.1c-0.3,0.4-0.6,0.8-0.7,1.3c-0.2,0.5-0.2,0.9-0.2,1.4c0,0.8,0.2,1.7,0.6,2.5
					c0.4,0.8,1.1,1.4,2,1.8c0.9,0.4,2,0.6,3.4,0.6c0.4,0,0.8,0,1.3,0c0.5,0,1.1-0.1,1.9-0.2c0.3-1.2,0.6-2.2,0.8-2.8
					c-0.7,0.2-1.2,0.4-1.6,0.4c-0.4,0.1-0.8,0.1-1.1,0.1c-0.6,0-1-0.1-1.4-0.2c-0.4-0.1-0.7-0.4-1-0.7c-0.3-0.3-0.4-0.7-0.4-1.2
					c0-0.3,0.1-0.6,0.2-0.8c0.1-0.2,0.3-0.5,0.5-0.7c0.2-0.2,0.5-0.4,0.9-0.6c0.3-0.2,0.7-0.3,1.1-0.5c0.4-0.1,1-0.3,1.7-0.5
					c0.7-0.2,1.2-0.3,1.5-0.4c0.3-0.1,0.5-0.2,0.7-0.3c0.2-0.1,0.5-0.3,1-0.6l-0.6,8.8h4.7c0,0,0.1-5.4,0.3-8
					c0.2-2.6,0.3-4.2,0.3-4.8c0-1.2-0.3-2.1-0.9-2.7C86,58.8,85.2,58.3,84.2,58z M113.8,58.1c-0.9-0.3-1.8-0.5-2.7-0.5
					c-0.6,0-1.1,0.1-1.6,0.2c-0.5,0.1-1,0.3-1.4,0.4c-0.4,0.2-0.8,0.4-1.1,0.7c-0.3,0.3-0.6,0.5-0.8,0.8c-0.2,0.3-0.4,0.6-0.7,1
					c-0.2-0.5-0.4-0.9-0.6-1.2c-0.2-0.3-0.4-0.5-0.7-0.7c-0.3-0.2-0.6-0.4-1-0.6c-0.4-0.2-0.8-0.3-1.3-0.4c-0.5-0.1-0.9-0.1-1.4-0.1
					c-0.7,0-1.3,0.1-1.9,0.2c-0.6,0.2-1.2,0.4-1.6,0.7c-0.5,0.3-0.8,0.6-1.1,0.9c-0.3,0.3-0.6,0.7-1,1.3l0.1-2.7h-4.5l-0.7,16.9h4.7
					c0,0,0.1-3.4,0.2-5.9c0.1-2.5,0.3-4.1,0.6-5c0.3-0.8,0.7-1.5,1.3-2c0.6-0.5,1.3-0.8,2-0.8c0.4,0,0.8,0.1,1.1,0.2
					c0.3,0.1,0.6,0.4,0.8,0.7c0.2,0.3,0.4,0.6,0.5,1c0.1,0.3,0.1,0.7,0.1,1.2c0,0.9-0.1,2.7-0.2,5.3c-0.1,2.6-0.3,4.4-0.3,5.2
					c1,0,3.8,0,4.8,0l0.1-4.6c0.1-1.6,0.1-3,0.2-4c0.1-1,0.2-1.8,0.4-2.4c0.2-0.6,0.5-1.1,0.8-1.5c0.3-0.4,0.7-0.7,1.1-0.9
					c0.4-0.2,0.9-0.3,1.4-0.3c0.5,0,0.9,0.1,1.3,0.3c0.4,0.2,0.7,0.5,0.9,0.9c0.2,0.4,0.4,1,0.4,1.8c0,0.7,0,1.5-0.1,2.4l-0.2,3.8
					c-0.1,1.6-0.2,3.1-0.3,4.5c1,0,3.9,0,4.7,0c0-1.3,0.1-3.1,0.2-5.4c0.1-2.3,0.2-4,0.3-5c0.1-1,0.1-1.8,0.1-2.3
					c0-1-0.2-1.9-0.7-2.5C115.4,58.9,114.7,58.4,113.8,58.1z M131.8,58c-1-0.3-2.1-0.4-3.4-0.4c-1.1,0-2.2,0.1-3.3,0.2
					c-1.2,0.1-4,0.7-4,0.7l-0.5,3.1c0,0,4.7-1.4,6.7-1.4c0.5,0,1,0.1,1.5,0.2c0.5,0.1,0.8,0.3,1.1,0.6c0.3,0.3,0.4,0.7,0.4,1.1
					c0,0.2,0,0.4-0.1,0.6c-0.1,0.2-0.2,0.4-0.4,0.6c-0.2,0.2-0.4,0.4-0.7,0.5c-0.3,0.1-0.6,0.2-1.1,0.4c-0.5,0.1-0.9,0.2-1.3,0.3
					c-1.6,0.3-2.9,0.7-3.8,1c-1,0.3-1.7,0.7-2.2,1c-0.5,0.4-0.9,0.7-1.2,1.1c-0.3,0.4-0.6,0.8-0.7,1.3c-0.2,0.5-0.3,0.9-0.3,1.4
					c0,0.8,0.2,1.7,0.6,2.5c0.4,0.8,1.1,1.4,2,1.8c0.9,0.4,2,0.6,3.4,0.6c0.4,0,0.8,0,1.3,0c0.5,0,1.1-0.1,1.9-0.2
					c0.3-1.2,0.6-2.2,0.8-2.8c-0.7,0.2-1.2,0.4-1.6,0.4c-0.4,0.1-0.8,0.1-1.1,0.1c-0.6,0-1-0.1-1.4-0.2c-0.4-0.1-0.8-0.4-1-0.7
					c-0.3-0.3-0.4-0.7-0.4-1.2c0-0.3,0.1-0.6,0.2-0.8c0.1-0.2,0.3-0.5,0.5-0.7c0.2-0.2,0.5-0.4,0.9-0.6c0.3-0.2,0.7-0.3,1.1-0.5
					c0.4-0.1,1-0.3,1.7-0.5c0.7-0.2,1.2-0.3,1.5-0.4c0.3-0.1,0.5-0.2,0.7-0.3c0.2-0.1,0.5-0.3,1-0.6l-0.6,8.8h4.7c0,0,0.1-5.4,0.3-8
					c0.2-2.6,0.3-4.2,0.3-4.8c0-1.2-0.3-2.1-0.9-2.7C133.6,58.8,132.8,58.3,131.8,58z M137.1,70.4c-0.1,2.2-0.1,3.7-0.2,4.5
					c1.6,0,4.7,0,4.7,0s0.2-3.7,0.2-4.5C140.6,70.4,137.1,70.4,137.1,70.4z M149.4,62.6c0.5-0.5,1.1-0.9,1.7-1.2
					c0.7-0.3,1.4-0.4,2.1-0.4c1.2,0,2.7,0.3,4.3,0.8l-0.2-3.6c-1-0.3-1.9-0.4-2.7-0.5c-0.8-0.1-1.5-0.1-2.2-0.1
					c-1.3,0-2.5,0.1-3.5,0.4c-1.1,0.3-2,0.8-2.9,1.7c-0.9,0.8-1.5,1.9-2,3.1c-0.5,1.3-0.7,2.6-0.7,4c0,1.1,0.1,2.1,0.4,3.1
					c0.3,1,0.7,1.8,1.2,2.5c0.5,0.7,1.2,1.3,1.9,1.7c0.7,0.4,1.5,0.7,2.3,0.9c0.8,0.2,1.7,0.2,2.6,0.2c1.5,0,3.1-0.2,4.7-0.5
					c0.1-0.8,0.2-1.6,0.4-2.1c0.1-0.6,0.2-1.1,0.2-1.5c-0.8,0.3-1.6,0.5-2.3,0.6c-0.7,0.1-1.3,0.2-1.8,0.2c-1,0-1.9-0.2-2.7-0.6
					c-0.8-0.4-1.4-1-1.7-1.8c-0.3-0.8-0.5-1.7-0.5-2.7c0-0.8,0.1-1.5,0.3-2.2C148.6,63.8,149,63.2,149.4,62.6z M174.8,59.9
					c-0.8-0.7-1.8-1.3-3-1.7c-1.2-0.4-2.4-0.6-3.7-0.6c-1.4,0-2.7,0.2-4,0.7c-1.3,0.5-2.3,1.1-3.2,2c-0.8,0.9-1.4,1.8-1.8,3
					c-0.4,1.1-0.6,2.3-0.6,3.5c0,1.2,0.2,2.3,0.6,3.4c0.4,1.1,1.1,2,1.9,2.8c0.8,0.8,1.8,1.3,3,1.7c1.2,0.4,2.4,0.6,3.7,0.6
					c1.4,0,2.7-0.2,3.9-0.6c1.2-0.4,2.2-1.1,3.1-1.9c0.8-0.9,1.4-1.9,1.9-3c0.4-1.2,0.6-2.4,0.6-3.6c0-1.2-0.2-2.3-0.6-3.4
					C176.2,61.5,175.6,60.6,174.8,59.9z M171.9,69.1c-0.4,0.9-0.9,1.6-1.7,2.1c-0.7,0.5-1.6,0.7-2.6,0.7c-1,0-1.8-0.2-2.5-0.7
					c-0.7-0.5-1.2-1.1-1.5-1.8c-0.3-0.8-0.5-1.6-0.5-2.6c0-1.1,0.2-2.1,0.6-3c0.4-0.9,0.9-1.6,1.7-2.1c0.8-0.5,1.6-0.7,2.6-0.7
					c1,0,1.8,0.2,2.5,0.7c0.7,0.5,1.2,1.1,1.5,1.8c0.3,0.8,0.4,1.6,0.4,2.5C172.5,67.1,172.3,68.2,171.9,69.1z M204.6,59.6
					c-0.5-0.7-1.2-1.2-2-1.5c-0.9-0.3-1.8-0.5-2.7-0.5c-0.6,0-1.1,0.1-1.6,0.2c-0.5,0.1-1,0.3-1.4,0.4c-0.4,0.2-0.8,0.4-1.1,0.7
					c-0.3,0.3-0.6,0.5-0.8,0.8c-0.2,0.3-0.4,0.6-0.7,1c-0.2-0.5-0.4-0.9-0.6-1.2c-0.2-0.3-0.4-0.5-0.7-0.7c-0.3-0.2-0.6-0.4-1-0.6
					c-0.4-0.2-0.8-0.3-1.3-0.4c-0.5-0.1-0.9-0.1-1.4-0.1c-0.7,0-1.3,0.1-1.9,0.2c-0.6,0.2-1.2,0.4-1.6,0.7c-0.5,0.3-0.8,0.6-1.1,0.9
					c-0.3,0.3-0.6,0.7-1,1.3l0.1-2.7c-0.8,0-3.5,0-4.5,0c0,1.9-0.6,15-0.7,16.9c1,0,3.7,0,4.7,0c0-1.4,0.1-3.4,0.2-5.9
					c0.1-2.5,0.3-4.1,0.6-5c0.3-0.8,0.7-1.5,1.3-2c0.6-0.5,1.3-0.8,2-0.8c0.4,0,0.8,0.1,1.1,0.2c0.3,0.1,0.6,0.4,0.8,0.7
					c0.2,0.3,0.4,0.6,0.5,1c0.1,0.3,0.1,0.7,0.1,1.2c0,0.9-0.1,2.7-0.2,5.3c-0.1,2.6-0.3,4.4-0.3,5.2c1,0,3.8,0,4.7,0l0.1-4.6
					c0.1-1.6,0.1-3,0.2-4c0.1-1,0.2-1.8,0.4-2.4c0.2-0.6,0.5-1.1,0.8-1.5c0.3-0.4,0.7-0.7,1.1-0.9c0.4-0.2,0.9-0.3,1.4-0.3
					c0.5,0,0.9,0.1,1.3,0.3c0.4,0.2,0.7,0.5,0.9,0.9c0.3,0.4,0.4,1,0.4,1.8c0,0.7,0,1.5-0.1,2.4l-0.2,3.8c-0.1,1.6-0.2,3.1-0.3,4.5
					c1,0,3.9,0,4.7,0c0-1.3,0.1-3.1,0.2-5.4c0.1-2.3,0.2-4,0.3-5c0.1-1,0.1-1.8,0.1-2.3C205.3,61.1,205.1,60.3,204.6,59.6z"/>
			</g>
		</g>
		<g id="形状_2_copy_3_副本_5_40_">
			<g>
				<path fill-rule="evenodd" clip-rule="evenodd" fill="#FF6600" d="M19.8,4.9c7.1,0,14.1,0,21.2,0c0,10.5,0,21.4,0,31.2
					c0,0.6-0.8,1.5-1.6,1.6c-1.1,0-1.6,0-3,0v5.1c1.6,0,3,0,4.6,0c4.1,0,6.8-2,6.8-5.4c0-8.1,0-24.2,0-32.5h2.4V0H19.8V4.9z
					 M145.5,36.4c2.3,0,1.4,0,3.7,0c1.3,0,3.1-1.1,3.1-3.2c0-5.4,0-9.6,0-15c-1,0-2.1,0-3,0c0-4.1,0-12.6,0-15.6
					c0-1.2-1.2-2.6-2.8-2.6h-22.2v4.9h17.1c0,4.4,0,8.9,0,13.3c-4.1,0-4.7,0-8.2,0c-0.5,0-1-0.5-1-0.9c0-2.2,0-5.8,0-8.8
					c0-0.7-0.7-1.5-1.8-1.5h-5v11.8c0,2.3,2,4.2,4.2,4.2c0,0,8.7,0,15.9,0v4.4h-17.6c-2,0-4.9,1.9-4.9,4.9c6.1,0,15.9-0.1,22.6-0.1
					C145.5,33.5,145.5,34.8,145.5,36.4z M37.8,28.9c0-5.6,0-13.5,0-21.1H20.1v26.8c5.2,0,11.7,0,11.7,0
					C36.3,34.7,37.8,32.2,37.8,28.9z M30.3,29.8c-1.3,0-2.7,0-4.5,0V13c1.9,0,4.1,0,6,0c0,5.1,0,10.7,0,15.2
					C31.8,29.1,31.2,29.8,30.3,29.8z M0,1.2c0,9.6,0,22.2,0,41.6h6.5c0-12.1,0-25.4,0-37.9c1.5,0,3.3,0,4.9,0c0,7.3,0,13.8,0,20.6
					c0,2.8-2.5,3.8-2.5,3.8v5.4c4.6,0,8.7-4.7,8.7-9c0-7.8,0-17.8,0-25.6C11.8,0,7.3,0,1.4,0C0,0,0,1.2,0,1.2z M203,18.2
					c0-4.1,0-12.6,0-15.6c0-1.2-1.2-2.6-2.8-2.6h-22.2v4.9c5.7,0,11.4,0,17.1,0v13.3c-4.1,0-4.7,0-8.2,0c-0.5,0-1-0.5-1-0.9
					c0-2.2,0-5.8,0-8.8c0-0.7-0.7-1.4-1.8-1.4c-1.4,0-3.4,0-5,0v11.8c0,2.3,2,4.2,4.2,4.2c0,0,8.7,0,15.9,0v4.4h-17.4
					c-2,0-5.1,1.7-5.1,4.8c6.1,0,15.8,0,22.4,0v4.5c0,0.8-0.6,1.1-1.5,1.1h-2.6c0,2.2,0,3.4,0,4.9h4c1.2,0,0.9,0,2.1,0
					c3.3,0,4.8-2.4,4.7-4.3c0-6.1,0-14.2,0-20.3C205,18.2,203.9,18.2,203,18.2z M171.6,34.7c2.4-2.6,3.7-5.7,4-11.6
					c0-6.4,0-12.6,0-18.9c0-0.5-0.7-1.2-1.3-1.2c-2.5,0-5.6,0-8.3,0V0h-6.5c0,1,0,2,0,3c-0.7,0-1.5,0-2.2,0v4.9h2.2v15.2
					c0,5.9,1.9,8.9,4.3,11.6c-2.9,2-5.8,3.3-9.8,3.3c-0.5,0-1.1,0-1.7,0c-6.1,0-13.5,0-20,0c-6.1,0-12-1.1-14.2-3.8
					c2.1-2.8,3.2-5.1,3.9-11.1c0-5.9,0-10.9,0-18.5C121.7,3.8,121,3,120.3,3c-2.6,0-5.2,0-8.3,0V0c-2.7,0-3.7,0-6.4,0v3
					c-0.7,0-1.2,0-2.2,0v4.9c1,0,1.5,0,2.2,0c0,5,0,10.6,0,15.2c0.5,5.9,2.4,7.8,4.7,11.3c-3.3,2.3-7.3,3.3-12,3.6
					c-5.6,0-10.6,0-17.7,0c0-1.2,0-2.9,0-3.8h17.7V29H80.6c0-1.2,0-2.5,0-3.8c5.1,0,11.8,0,13.3,0c0,0,4.3,0,4.4-4.7
					c0.1-5,0-13.8,0-20.5c-14,0-28.1,0-42.1,0c-0.7,0-1.3,0.7-1.3,1.3c0,1,0,16.6,0,23.9c5.9,0,11.8,0,17.7,0V29H54.8
					c0,1.6,0,3.5,0,5.1h17.6c0,1.3,0,2.5,0,3.8H51.8c0,1.4,0,3.3,0,4.8c15.5,0,34.7,0.1,49.7,0c4.1,0,9.1-2.1,12.7-4.2
					c4.6,3.5,9.6,4.2,17.9,4.2c2.5,0,5.3,0,8.4,0c4.4,0,8.2,0,11.6,0c7,0,11.4-1.5,15.8-4c4,2.4,7.7,3.8,13.9,4v0h9.4v-4.9h-9.4
					C177.7,37.5,174.3,36.9,171.6,34.7z M72.4,20.3H61.6v-5.1h10.8V20.3z M72.4,10H61.6V4.9c3.6,0,7.2,0,10.8,0V10z M80.6,4.9h10.9
					V10H80.6V4.9z M80.6,15.2c3.6,0,7.2,0,10.8,0c0,2.1,0,3.7,0,5.1H80.6C80.6,19,80.6,16.8,80.6,15.2z M115.7,23.1
					c-0.2,3.4-0.8,4.2-1.6,6.4c-1-2.1-1.9-3.1-2.1-6.4c0-4.4,0-10.6,0-15.2h3.7V23.1z M169.5,23.1c-0.1,3.1-0.9,4.7-1.7,6.4
					c-1-1.7-1.9-3.5-1.9-6.4c0-4.7,0-10.4,0-15.2h3.6C169.5,12.7,169.5,18.3,169.5,23.1z"/>
			</g>
		</g>
	</g>
</g>
<g>
	<path fill="#989898" d="M304.2,32.8v3h-13.1v13.1h-2.7V35.7h-13.1v-3h13.1V19.9h2.7v12.9H304.2z"/>
</g>
<g>
	<rect x="448" y="17.1" fill="#333333" width="8.8" height="3"/>
	<polygon fill="#333333" points="447.4,14.2 444,23 448.2,23 451.4,14.2 	"/>
	<rect x="444.6" y="23.5" fill="#333333" width="11" height="2.9"/>
	<rect x="443.9" y="31" fill="#333333" width="12.4" height="2.9"/>
	<rect x="447.7" y="26.1" fill="#333333" width="4.3" height="15.7"/>
	<polygon fill="#333333" points="455.9,38.5 455.9,41.8 447.7,44.9 447.7,41.3 	"/>
	<rect x="463.7" y="14.2" fill="#333333" width="4.3" height="14.7"/>
	<rect x="467.7" y="19.6" fill="#333333" width="8.4" height="2.9"/>
	<path fill="#333333" d="M474.9,28.8h-17.1v2.4v0.5v10.7v0.4v2.1h12.9h0.6c2,0,3.6-1.6,3.6-3.6c0,0,0-9.5,0-9.5h0V28.8z M470.7,41.2
		v1.2h-8.8V31.8h8.8V41.2z"/>
	<rect x="480.1" y="15.3" fill="#333333" width="31" height="3.2"/>
	<polygon fill="#333333" points="490.3,18.5 478.3,36.2 483.2,36.2 495.1,18.5 	"/>
	<rect x="489.5" y="25.9" fill="#333333" width="15.9" height="3.1"/>
	<rect x="485.5" y="26.6" fill="#333333" width="4.3" height="14.9"/>
	<rect x="485.5" y="41.3" fill="#333333" width="18.8" height="3.1"/>
	<rect x="504.2" y="25.9" fill="#333333" width="4.3" height="14.2"/>
	<path fill="#333333" d="M504.4,36.1c-0.1,0-0.1,0-0.2,0v5.2h-3.8c0.5,1.8,2.1,3.1,4,3.1c2.3,0,4.1-1.8,4.1-4.1
		C508.5,38,506.7,36.1,504.4,36.1z"/>
	<rect x="515.8" y="14.2" fill="#333333" width="27.7" height="2.9"/>
	<rect x="515.8" y="16.6" fill="#333333" width="4.3" height="18.7"/>
	<rect x="519.8" y="19.8" fill="#333333" width="19.5" height="2.7"/>
	<path fill="#333333" d="M543.5,16.4h-1.2c-0.6-0.5-1.4-0.8-2.2-0.8v0.8h-0.8v2.2v0.2v3.7h0.8c1.9,0,3.4-1.5,3.4-3.4
		c0-0.1,0-0.2,0-0.3h0V16.4z"/>
	<rect x="519.9" y="25.6" fill="#333333" width="23.8" height="2.5"/>
	<rect x="520" y="31.4" fill="#333333" width="23.7" height="2.6"/>
	<rect x="525.1" y="22.3" fill="#333333" width="4.2" height="10.3"/>
	<rect x="534.2" y="21.9" fill="#333333" width="4.2" height="10.3"/>
	<rect x="522.3" y="34" fill="#333333" width="4.2" height="8"/>
	<polygon fill="#333333" points="531.6,39.8 522.3,41.5 522.3,44.9 531.6,42.7 	"/>
	<polygon fill="#333333" points="529.6,34.5 534.7,34.5 543.7,44.9 538.6,44.9 	"/>
	<polygon fill="#333333" points="539.5,34.5 544.1,34.5 539.5,40.5 537.1,37.7 	"/>
	<polyline fill="#333333" points="515.8,35.2 513.9,44.2 518.3,44.2 520.1,35.2 	"/>
	<rect x="565.8" y="14.2" fill="#333333" width="5.1" height="4.4"/>
	<rect x="557.4" y="18.2" fill="#333333" width="18.5" height="3"/>
	<rect x="556.8" y="42.1" fill="#333333" width="23.1" height="2.8"/>
	<polygon fill="#333333" points="559.6,23.7 564,23.7 566.8,42.1 562.4,42.1 	"/>
	<polygon fill="#333333" points="572.3,23.7 576.7,23.7 573.8,42.1 569.5,42.1 	"/>
	<rect x="551.6" y="22.6" fill="#333333" width="4.2" height="22.3"/>
	<polygon fill="#333333" points="553.9,14.2 546.8,28.3 551.3,28.3 558.3,14.2 	"/>
	<path fill="#333333" d="M573,18.2c0,1.7,1.4,3,3,3c1.7,0,3-1.3,3-3H573z"/>
	<g>
		<path fill="#898989" d="M447.4,61c0,1.2-0.4,1.7-1.2,1.8c-0.3,0-0.7,0-1.2,0c0,0,0-0.1,0-0.1c0-0.4-0.1-0.6-0.1-0.8
			c0.1,0,0.2,0,0.4,0c0.3,0,0.5,0,0.6,0c0.4,0,0.6-0.3,0.6-1c0-0.9-0.4-1.8-1.2-2.7c0.3-0.7,0.6-1.8,1-3.3h-1.5v9.9H444V54.1h3.3
			v0.8c-0.5,1.7-0.9,2.8-1,3.2C447.1,59.1,447.4,60.1,447.4,61z M447.8,54.2h7.1v0.9h-1.1v7.8c0.1,1.2-0.5,1.7-1.6,1.7
			c-0.3,0-0.9,0-1.7,0c0-0.2-0.1-0.4-0.1-0.6c-0.1-0.2-0.1-0.3-0.1-0.4c0.4,0,1,0,1.7,0c0.6,0,0.9-0.2,0.9-0.8v-7.8h-5.2V54.2z
			 M448.2,56.7h3.5v5.1h-3.5V56.7z M449,57.5v3.4h1.9v-3.4H449z"/>
		<path fill="#898989" d="M462.1,61.1h4.6v-1.3h-4.2V54h9.2v5.7h-4.2v1.3h4.6v0.8h-4.6v1.5h5.4v0.8h-11.6v-0.8h5.3v-1.5h-4.6V61.1z
			 M463.3,54.8v1.7h3.3v-1.7H463.3z M463.3,57.3V59h3.3v-1.7H463.3z M470.8,54.8h-3.3v1.7h3.3V54.8z M467.5,57.3V59h3.3v-1.7H467.5z
			"/>
		<path fill="#898989" d="M483.9,63l-0.7,0.6c-0.2-0.1-0.5-0.4-0.8-0.8c-0.2-0.2-0.3-0.3-0.4-0.4c-0.4,0.7-1.2,1.4-2.2,2.3
			c-0.2-0.3-0.3-0.5-0.5-0.8c0.8-0.6,1.5-1.3,2.1-2.2c-0.2-0.2-0.5-0.4-0.8-0.8c-0.4-0.4-0.6-0.6-0.8-0.8c0.2-0.7,0.4-1.8,0.8-3.5
			h-1.1V56h1.2c0.1-0.4,0.2-1.1,0.3-2c0-0.2,0-0.4,0-0.5l0.9,0.1c0,0.3-0.1,0.8-0.2,1.4c-0.1,0.4-0.1,0.7-0.1,0.9h2.1v0.8
			c-0.2,2.1-0.6,3.7-1.2,4.8C482.9,62,483.4,62.5,483.9,63z M482.7,56.8h-1.4c-0.2,1.3-0.4,2.3-0.7,3.2c0.2,0.1,0.4,0.4,0.8,0.7
			c0.2,0.2,0.3,0.3,0.4,0.3C482.3,60,482.6,58.5,482.7,56.8z M483.7,61.2h5.1V62h-5.1V61.2z M485.7,55.4l-0.3,3.3h2.9l0.4-4H484
			v-0.8h5.8l-0.5,4.9h1.2c-0.1,2-0.1,3.4-0.2,4.1c-0.1,1.1-0.7,1.7-2,1.7c-0.8,0-1.4,0-1.9,0c0-0.2-0.1-0.4-0.1-0.7
			c0-0.2,0-0.3,0-0.3c0.2,0,0.9,0,2,0c0.7,0,1.1-0.3,1.1-1c0.1-0.6,0.1-1.7,0.2-3.1h-5l0.4-4.1H485.7z"/>
		<path fill="#898989" d="M501.8,63l-0.7,0.6c-0.2-0.1-0.5-0.4-0.8-0.8c-0.2-0.2-0.3-0.3-0.4-0.4c-0.4,0.7-1.2,1.4-2.2,2.3
			c-0.2-0.3-0.3-0.5-0.5-0.8c0.8-0.6,1.5-1.3,2.1-2.2c-0.2-0.2-0.5-0.4-0.8-0.8c-0.4-0.4-0.6-0.6-0.8-0.8c0.2-0.7,0.4-1.8,0.8-3.5
			h-1.1V56h1.2c0.1-0.4,0.2-1.1,0.3-2c0-0.2,0-0.4,0-0.5l0.9,0.1c0,0.3-0.1,0.8-0.2,1.4c-0.1,0.4-0.1,0.7-0.1,0.9h2.1v0.8
			c-0.2,2.1-0.6,3.7-1.2,4.8C500.9,62,501.3,62.5,501.8,63z M500.6,56.8h-1.4c-0.2,1.3-0.4,2.3-0.7,3.2c0.2,0.1,0.4,0.4,0.8,0.7
			c0.2,0.2,0.3,0.3,0.4,0.3C500.2,60,500.5,58.5,500.6,56.8z M501.6,61.2h5.1V62h-5.1V61.2z M503.7,55.4l-0.3,3.3h2.9l0.4-4h-4.8
			v-0.8h5.8l-0.5,4.9h1.2c-0.1,2-0.1,3.4-0.2,4.1c-0.1,1.1-0.7,1.7-2,1.7c-0.8,0-1.4,0-1.9,0c0-0.2-0.1-0.4-0.1-0.7
			c0-0.2,0-0.3,0-0.3c0.2,0,0.9,0,2,0c0.7,0,1.1-0.3,1.1-1c0.1-0.6,0.1-1.7,0.2-3.1h-5l0.4-4.1H503.7z"/>
		<path fill="#898989" d="M515.2,55.3h4.1v0.8h-2.2c0,0.5,0,1.1,0,1.7h2c0,2.1,0,3.8-0.1,5c0,1.2-0.5,1.7-1.4,1.7
			c-0.5,0-0.8,0-0.9,0c0-0.2-0.1-0.5-0.1-0.9c0.4,0,0.8,0,1,0c0.5,0,0.7-0.3,0.7-0.9c0.1-0.7,0.1-2.1,0.1-4.2h-1.2
			c0,0.3,0,0.6,0,0.8c0,2.4-0.5,4.2-1.4,5.3c-0.2-0.2-0.4-0.4-0.6-0.7c0.8-0.9,1.2-2.4,1.2-4.6c0-0.3,0-0.9,0-1.7c0-0.7,0-1.3,0-1.7
			h-1.1V55.3z M516.6,53.7l0.8-0.3c0.1,0.1,0.1,0.3,0.2,0.5c0.2,0.4,0.4,0.8,0.5,1.1l-0.8,0.3C517.2,54.8,517,54.3,516.6,53.7z
			 M521.8,62.5l0.6,0.6c-0.1,0.1-0.2,0.1-0.4,0.2c-0.8,0.6-1.6,1.1-2.2,1.4c-0.2-0.2-0.4-0.5-0.6-0.7
			C520.1,63.7,521,63.2,521.8,62.5z M519.5,55.9c0.6-0.6,1.1-1.5,1.5-2.5l0.8,0.2c-0.1,0.2-0.2,0.4-0.3,0.7
			c-0.1,0.1-0.1,0.2-0.1,0.3h5.2v0.8h-5.7c-0.3,0.4-0.5,0.8-0.8,1.2c0,0-0.1-0.1-0.1-0.1C519.7,56.1,519.6,56,519.5,55.9z
			 M520.7,55.9h0.8v0.9h2.8v-0.9h0.8v0.9h1.2v0.8h-1.2v4.2h1.4v0.8h-7.1v-0.8h1.2v-4.2h-1.2v-0.8h1.2V55.9z M521.5,57.5v0.9h2.8
			v-0.9H521.5z M521.5,59.2V60h2.8v-0.9H521.5z M521.5,60.8v0.9h2.8v-0.9H521.5z M523.6,63.1l0.5-0.6c0.8,0.5,1.6,1,2.4,1.6
			l-0.6,0.7C525.2,64.2,524.4,63.6,523.6,63.1z"/>
		<path fill="#898989" d="M539.1,57.4c1.8,0.9,3.3,1.8,4.7,2.5l-0.6,0.9c-1.7-1.1-3.2-1.9-4.4-2.5v6.4h-1v-9.4h-4.7v-0.9h11.3v0.9
			h-5.7V58L539.1,57.4z"/>
		<path fill="#898989" d="M552.1,58.1h5.5c0.5-0.6,1-1.4,1.4-2.3l0.9,0.6c-0.5,0.7-0.9,1.3-1.3,1.7h3.5v0.8h-9v0.8
			c0.1,2.2-0.4,3.9-1.5,5.1c-0.2-0.2-0.4-0.5-0.6-0.8c0.9-0.8,1.3-2.2,1.2-4.3V58.1z M556,53.7l0.9-0.3c0,0.1,0.1,0.2,0.1,0.4
			c0.2,0.4,0.3,0.8,0.3,1h5v0.8h-11.2v-0.8h5.3C556.3,54.4,556.2,54,556,53.7z M553.6,56.2l0.8-0.5c0.1,0.1,0.2,0.2,0.3,0.4
			c0.5,0.6,0.8,1.1,1,1.3l-0.8,0.6C554.4,57.3,554,56.7,553.6,56.2z"/>
		<path fill="#898989" d="M569.5,59.5h4.4v5.3H573V64h-2.6v0.8h-0.9V59.5z M570.3,60.3v3h2.6v-3H570.3z M570.6,53.9h8v4.2h-8V53.9z
			 M571.5,54.8v2.6h6.1v-2.6H571.5z M575.3,59.5h4.4v5.3h-0.9V64h-2.6v0.8h-0.9V59.5z M576.2,60.3v3h2.6v-3H576.2z"/>
	</g>
	<g>
		<g>
			<polygon fill="#BCD0FF" points="383.6,15.4 405.1,18.4 426.4,15.3 405,13.9 			"/>
			<polygon fill="#6491FF" points="383.6,15.4 374.7,21.7 380.2,30.4 382.5,23.6 			"/>
			<polygon fill="#4077FF" points="382.5,23.6 394.6,32.3 405,59.2 380.2,30.4 			"/>
			<polygon fill="#95B4FF" points="396.7,17.3 382.5,23.6 383.6,15.4 			"/>
			<polygon fill="#BCD0FF" points="394.6,32.3 396.7,17.3 382.5,23.6 			"/>
			<polygon fill="#95B4FF" points="396.7,17.3 405.1,24.5 394.6,32.3 			"/>
			<polygon fill="#95B4FF" points="396.7,17.3 405.1,18.4 413.5,17.2 405.1,24.5 			"/>
			<polygon fill="#6491FF" points="405.1,24.5 394.6,32.3 405,59.2 			"/>
			<polygon fill="#BCD0FF" points="413.5,17.2 405.1,24.5 415.5,32.1 			"/>
			<polygon fill="#4F82FF" points="405.1,24.5 415.5,32.1 405,59.2 			"/>
			<polygon fill="#95B4FF" points="413.5,17.2 427.7,23.4 415.5,32.1 			"/>
			<polygon fill="#95B4FF" points="427.7,23.4 429.9,30.4 405,59.2 415.5,32.1 			"/>
			<polygon fill="#BCD0FF" points="426.4,15.3 427.7,23.4 429.9,30.4 435.5,21.5 			"/>
		</g>
		<polygon fill="#7AA1FF" points="426.4,15.3 427.7,23.4 413.5,17.2 		"/>
	</g>
</g>
</svg>
