<?xml version="1.0" encoding="utf-8"?>
<!-- Generator: Adobe Illustrator 17.1.0, SVG Export Plug-In . SVG Version: 6.00 Build 0)  -->
<!DOCTYPE svg PUBLIC "-//W3C//DTD SVG 1.1//EN" "http://www.w3.org/Graphics/SVG/1.1/DTD/svg11.dtd">
<svg version="1.1" id="图层_1" xmlns="http://www.w3.org/2000/svg" xmlns:xlink="http://www.w3.org/1999/xlink" x="0px" y="0px"
	 viewBox="0 0 500.6 333.5" enable-background="new 0 0 500.6 333.5" xml:space="preserve">
<g>
	<rect x="228.9" y="0" fill-rule="evenodd" clip-rule="evenodd" fill="#CBCBCB" width="1.4" height="74.7"/>
	<g>
		<g id="形状_2_copy_3_副本_4_30_">
			<g>
				<path fill-rule="evenodd" clip-rule="evenodd" fill="#CCCCCC" d="M11.7,52.1C7.8,59.8,4.3,66.6,0.2,74.7h5.5
					c1-1.9,1.6-3.1,2.8-5.4c2.9,0,5,0,7.9,0c-0.6-1.7-1-2.9-1.5-4.3h-4.4c1.3-2.6,2-4,4-7.5c2,5.9,4.1,11.8,6.1,17.2h5
					c-2.8-7.9-5.2-14.7-7.9-22.6H11.7z M27,74.7h4.8l1-22.6l-4.7,0L27,74.7z M34.4,74.7h5l0.6-16.8h-4.8L34.4,74.7z M35.5,52.1
					l-0.1,3.6c0,0,3.7,0,4.7,0l0.2-3.6C36,52.1,36,52.1,35.5,52.1z M66.3,57.9c-0.9-0.3-1.8-0.5-2.7-0.5c-0.6,0-1.1,0.1-1.6,0.2
					c-0.5,0.1-1,0.2-1.4,0.4c-0.4,0.2-0.8,0.4-1.1,0.7c-0.3,0.3-0.6,0.5-0.8,0.8c-0.2,0.3-0.4,0.6-0.7,1c-0.2-0.5-0.4-0.9-0.6-1.2
					c-0.2-0.3-0.4-0.5-0.7-0.7c-0.3-0.2-0.6-0.4-1-0.6c-0.4-0.2-0.8-0.3-1.3-0.4c-0.5-0.1-0.9-0.1-1.4-0.1c-0.7,0-1.3,0.1-1.9,0.2
					c-0.6,0.2-1.2,0.4-1.6,0.7c-0.5,0.3-0.8,0.6-1.1,0.9c-0.3,0.3-0.6,0.7-1,1.3l0.1-2.7h-4.5l-0.7,16.8c0,0,3.7,0,4.7,0
					c0-1.4,0.1-3.4,0.2-5.8c0.1-2.5,0.3-4.1,0.6-5c0.3-0.8,0.7-1.5,1.3-2c0.6-0.5,1.3-0.8,2-0.8c0.4,0,0.8,0.1,1.1,0.2
					c0.3,0.1,0.6,0.4,0.8,0.7c0.2,0.3,0.4,0.6,0.5,1c0.1,0.3,0.1,0.7,0.1,1.2c0,0.9-0.1,2.7-0.2,5.3c-0.1,2.6-0.3,4.4-0.3,5.2
					c1,0,3.8,0,4.7,0l0.1-4.6c0.1-1.6,0.1-3,0.2-4c0.1-1,0.2-1.8,0.4-2.4c0.2-0.6,0.5-1.1,0.8-1.5c0.3-0.4,0.7-0.7,1.1-0.9
					c0.4-0.2,0.9-0.3,1.4-0.3c0.5,0,0.9,0.1,1.3,0.3c0.4,0.2,0.7,0.5,0.9,0.9c0.2,0.4,0.4,1,0.4,1.8c0,0.7,0,1.5-0.1,2.4L64,70.2
					c-0.1,1.6-0.2,3-0.3,4.5c1,0,3.9,0,4.7,0c0-1.3,0.1-3.1,0.2-5.4c0.1-2.3,0.2-4,0.3-5c0.1-1,0.1-1.8,0.1-2.3c0-1-0.2-1.8-0.7-2.5
					C67.8,58.7,67.1,58.2,66.3,57.9z M84.1,57.9c-1-0.3-2.1-0.4-3.3-0.4c-1.1,0-2.2,0.1-3.3,0.2c-1.1,0.1-4,0.7-4,0.7L73,61.5
					c0,0,4.7-1.4,6.7-1.4c0.5,0,1,0.1,1.5,0.2c0.4,0.1,0.8,0.3,1.1,0.6c0.3,0.3,0.4,0.7,0.4,1.1c0,0.2,0,0.4-0.1,0.6
					c-0.1,0.2-0.2,0.4-0.4,0.6c-0.2,0.2-0.4,0.4-0.7,0.5c-0.3,0.1-0.6,0.2-1.1,0.4c-0.5,0.1-0.9,0.2-1.3,0.3c-1.6,0.3-2.9,0.7-3.8,1
					c-1,0.3-1.7,0.7-2.2,1c-0.5,0.4-0.9,0.7-1.2,1.1c-0.3,0.4-0.6,0.8-0.7,1.3c-0.2,0.5-0.2,0.9-0.2,1.4c0,0.8,0.2,1.6,0.6,2.5
					c0.4,0.8,1.1,1.4,2,1.8c0.9,0.4,2,0.6,3.4,0.6c0.4,0,0.8,0,1.3,0c0.5,0,1.1-0.1,1.9-0.2c0.3-1.2,0.6-2.2,0.8-2.8
					c-0.7,0.2-1.2,0.4-1.6,0.4c-0.4,0.1-0.8,0.1-1.1,0.1c-0.6,0-1-0.1-1.4-0.2c-0.4-0.1-0.7-0.4-1-0.7c-0.3-0.3-0.4-0.7-0.4-1.2
					c0-0.3,0.1-0.6,0.2-0.8c0.1-0.2,0.3-0.5,0.5-0.7c0.2-0.2,0.5-0.4,0.9-0.6c0.3-0.2,0.7-0.3,1.1-0.5c0.4-0.1,1-0.3,1.7-0.5
					c0.7-0.2,1.2-0.3,1.5-0.4c0.3-0.1,0.5-0.2,0.7-0.3c0.2-0.1,0.5-0.3,1-0.6l-0.6,8.8h4.7c0,0,0.1-5.4,0.3-8
					c0.2-2.6,0.3-4.2,0.3-4.8c0-1.2-0.3-2-0.9-2.7C86,58.6,85.2,58.1,84.1,57.9z M113.7,57.9c-0.8-0.3-1.8-0.5-2.7-0.5
					c-0.6,0-1.1,0.1-1.6,0.2c-0.5,0.1-1,0.2-1.4,0.4c-0.4,0.2-0.8,0.4-1.1,0.7c-0.3,0.3-0.6,0.5-0.8,0.8c-0.2,0.3-0.4,0.6-0.7,1
					c-0.2-0.5-0.4-0.9-0.6-1.2c-0.2-0.3-0.4-0.5-0.7-0.7c-0.3-0.2-0.6-0.4-1-0.6c-0.4-0.2-0.8-0.3-1.3-0.4c-0.5-0.1-0.9-0.1-1.4-0.1
					c-0.7,0-1.3,0.1-1.9,0.2c-0.6,0.2-1.2,0.4-1.6,0.7c-0.5,0.3-0.8,0.6-1.1,0.9c-0.3,0.3-0.6,0.7-1,1.3l0.1-2.7h-4.5l-0.7,16.8h4.7
					c0,0,0.1-3.4,0.2-5.8c0.1-2.5,0.3-4.1,0.6-5c0.3-0.8,0.7-1.5,1.3-2c0.6-0.5,1.3-0.8,2-0.8c0.4,0,0.8,0.1,1.1,0.2
					c0.3,0.1,0.6,0.4,0.8,0.7c0.2,0.3,0.4,0.6,0.5,1c0.1,0.3,0.1,0.7,0.1,1.2c0,0.9-0.1,2.7-0.2,5.3c-0.1,2.6-0.3,4.4-0.3,5.2
					c1,0,3.8,0,4.7,0l0.1-4.6c0.1-1.6,0.1-3,0.2-4c0.1-1,0.2-1.8,0.4-2.4c0.2-0.6,0.5-1.1,0.8-1.5c0.3-0.4,0.7-0.7,1.1-0.9
					c0.4-0.2,0.9-0.3,1.3-0.3c0.5,0,0.9,0.1,1.3,0.3c0.4,0.2,0.7,0.5,0.9,0.9c0.2,0.4,0.4,1,0.4,1.8c0,0.7,0,1.5-0.1,2.4l-0.2,3.8
					c-0.1,1.6-0.2,3-0.3,4.5c1,0,3.9,0,4.7,0c0-1.3,0.1-3.1,0.2-5.4c0.1-2.3,0.2-4,0.3-5c0.1-1,0.1-1.8,0.1-2.3c0-1-0.2-1.8-0.7-2.5
					C115.2,58.7,114.6,58.2,113.7,57.9z M131.6,57.9c-1-0.3-2.1-0.4-3.4-0.4c-1.1,0-2.2,0.1-3.3,0.2c-1.2,0.1-4,0.7-4,0.7l-0.5,3.1
					c0,0,4.7-1.4,6.7-1.4c0.5,0,1,0.1,1.5,0.2c0.5,0.1,0.8,0.3,1.1,0.6c0.3,0.3,0.4,0.7,0.4,1.1c0,0.2,0,0.4-0.1,0.6
					c-0.1,0.2-0.2,0.4-0.4,0.6c-0.2,0.2-0.4,0.4-0.7,0.5c-0.3,0.1-0.6,0.2-1.1,0.4c-0.5,0.1-0.9,0.2-1.3,0.3c-1.6,0.3-2.9,0.7-3.8,1
					c-1,0.3-1.7,0.7-2.2,1c-0.5,0.4-0.9,0.7-1.2,1.1c-0.3,0.4-0.6,0.8-0.7,1.3c-0.2,0.5-0.3,0.9-0.3,1.4c0,0.8,0.2,1.6,0.6,2.5
					c0.4,0.8,1.1,1.4,2,1.8c0.9,0.4,2,0.6,3.4,0.6c0.4,0,0.8,0,1.3,0c0.5,0,1.1-0.1,1.9-0.2c0.3-1.2,0.6-2.2,0.8-2.8
					c-0.7,0.2-1.2,0.4-1.6,0.4c-0.4,0.1-0.8,0.1-1.1,0.1c-0.6,0-1-0.1-1.4-0.2c-0.4-0.1-0.7-0.4-1-0.7c-0.3-0.3-0.4-0.7-0.4-1.2
					c0-0.3,0.1-0.6,0.2-0.8c0.1-0.2,0.3-0.5,0.5-0.7c0.2-0.2,0.5-0.4,0.9-0.6c0.3-0.2,0.7-0.3,1.1-0.5c0.4-0.1,1-0.3,1.7-0.5
					c0.7-0.2,1.2-0.3,1.5-0.4c0.3-0.1,0.5-0.2,0.7-0.3c0.2-0.1,0.5-0.3,1-0.6l-0.6,8.8h4.7c0,0,0.1-5.4,0.3-8
					c0.2-2.6,0.3-4.2,0.3-4.8c0-1.2-0.3-2-0.9-2.7C133.4,58.6,132.6,58.1,131.6,57.9z M136.9,70.2c-0.1,2.2-0.1,3.7-0.2,4.4
					c1.6,0,4.6,0,4.6,0s0.2-3.6,0.2-4.4C140.4,70.2,136.9,70.2,136.9,70.2z M149.2,62.4c0.5-0.5,1.1-0.9,1.7-1.2
					c0.7-0.3,1.4-0.4,2.1-0.4c1.2,0,2.7,0.3,4.3,0.8l-0.2-3.6c-1-0.3-1.9-0.4-2.7-0.5c-0.8-0.1-1.5-0.1-2.2-0.1
					c-1.3,0-2.5,0.1-3.5,0.4c-1.1,0.3-2,0.8-2.9,1.7c-0.9,0.8-1.5,1.9-2,3.1c-0.5,1.3-0.7,2.6-0.7,4c0,1,0.1,2.1,0.4,3.1
					c0.3,1,0.7,1.8,1.2,2.5c0.5,0.7,1.2,1.3,1.9,1.7c0.7,0.4,1.5,0.7,2.3,0.9c0.8,0.2,1.7,0.2,2.6,0.2c1.5,0,3.1-0.2,4.7-0.5
					c0.1-0.8,0.2-1.6,0.4-2.1c0.1-0.6,0.2-1.1,0.2-1.5c-0.8,0.3-1.5,0.5-2.3,0.6c-0.7,0.1-1.3,0.2-1.8,0.2c-1,0-1.9-0.2-2.7-0.6
					c-0.8-0.4-1.4-1-1.7-1.8c-0.3-0.8-0.5-1.7-0.5-2.7c0-0.8,0.1-1.5,0.3-2.2C148.4,63.6,148.7,63,149.2,62.4z M174.5,59.7
					c-0.8-0.7-1.8-1.3-3-1.7c-1.2-0.4-2.4-0.6-3.7-0.6c-1.4,0-2.7,0.2-4,0.7c-1.3,0.5-2.3,1.1-3.2,2c-0.8,0.9-1.4,1.8-1.8,2.9
					c-0.4,1.1-0.6,2.3-0.6,3.5c0,1.2,0.2,2.3,0.6,3.4c0.4,1.1,1,2,1.9,2.8c0.8,0.8,1.8,1.3,3,1.7c1.2,0.4,2.4,0.6,3.7,0.6
					c1.4,0,2.7-0.2,3.9-0.6c1.2-0.4,2.2-1.1,3.1-1.9c0.8-0.9,1.4-1.9,1.9-3c0.4-1.2,0.6-2.4,0.6-3.6c0-1.2-0.2-2.3-0.6-3.4
					C175.9,61.4,175.3,60.4,174.5,59.7z M171.7,68.9c-0.4,0.9-0.9,1.6-1.7,2.1c-0.7,0.5-1.6,0.7-2.6,0.7c-0.9,0-1.8-0.2-2.5-0.7
					c-0.7-0.5-1.2-1.1-1.5-1.8c-0.3-0.8-0.5-1.6-0.5-2.6c0-1.1,0.2-2.1,0.6-3c0.4-0.9,0.9-1.6,1.7-2.1c0.8-0.5,1.6-0.7,2.6-0.7
					c1,0,1.8,0.2,2.5,0.7c0.7,0.4,1.2,1.1,1.4,1.8c0.3,0.8,0.4,1.6,0.4,2.5C172.2,67,172,68,171.7,68.9z M204.2,59.4
					c-0.5-0.7-1.2-1.2-2-1.5c-0.9-0.3-1.8-0.5-2.7-0.5c-0.6,0-1.1,0.1-1.6,0.2c-0.5,0.1-1,0.2-1.4,0.4c-0.4,0.2-0.8,0.4-1.1,0.7
					c-0.3,0.3-0.6,0.5-0.8,0.8c-0.2,0.3-0.4,0.6-0.7,1c-0.2-0.5-0.4-0.9-0.6-1.2c-0.2-0.3-0.4-0.5-0.7-0.7c-0.3-0.2-0.6-0.4-1-0.6
					c-0.4-0.2-0.8-0.3-1.3-0.4c-0.5-0.1-0.9-0.1-1.4-0.1c-0.7,0-1.3,0.1-1.9,0.2c-0.6,0.2-1.2,0.4-1.6,0.7c-0.5,0.3-0.8,0.6-1.1,0.9
					c-0.3,0.3-0.6,0.7-1,1.3l0.1-2.7c-0.8,0-3.5,0-4.5,0c0,1.9-0.6,14.9-0.7,16.8c1,0,3.7,0,4.7,0c0-1.4,0.1-3.4,0.2-5.8
					c0.1-2.5,0.3-4.1,0.6-5c0.3-0.8,0.7-1.5,1.3-2c0.6-0.5,1.3-0.8,2-0.8c0.4,0,0.8,0.1,1.1,0.2c0.3,0.1,0.6,0.4,0.8,0.7
					c0.2,0.3,0.4,0.6,0.5,1c0.1,0.3,0.1,0.7,0.1,1.2c0,0.9-0.1,2.7-0.2,5.3c-0.1,2.6-0.3,4.4-0.3,5.2c1,0,3.8,0,4.7,0l0.1-4.6
					c0.1-1.6,0.1-3,0.2-4c0.1-1,0.2-1.8,0.4-2.4c0.2-0.6,0.5-1.1,0.8-1.5c0.3-0.4,0.7-0.7,1.1-0.9c0.4-0.2,0.9-0.3,1.4-0.3
					c0.5,0,0.9,0.1,1.3,0.3c0.4,0.2,0.7,0.5,0.9,0.9c0.3,0.4,0.4,1,0.4,1.8c0,0.7,0,1.5-0.1,2.4l-0.2,3.8c-0.1,1.6-0.2,3-0.3,4.5
					c1,0,3.9,0,4.7,0c0-1.3,0.1-3.1,0.2-5.4c0.1-2.3,0.2-4,0.3-5c0.1-1,0.1-1.8,0.1-2.3C204.9,60.9,204.7,60.1,204.2,59.4z"/>
			</g>
		</g>
		<g id="形状_2_copy_3_副本_5_30_">
			<g>
				<path fill-rule="evenodd" clip-rule="evenodd" fill="#FF6600" d="M20,4.9c7,0,14.1,0,21.1,0c0,10.5,0,21.4,0,31.1
					c0,0.6-0.8,1.5-1.6,1.6c-1.1,0-1.6,0-3,0v5.1c1.6,0,3,0,4.6,0c4.1,0,6.8-2,6.8-5.4c0-8.1,0-24.2,0-32.4h2.4V0H20V4.9z
					 M145.3,36.2c2.3,0,1.4,0,3.6,0c1.3,0,3.1-1.1,3.1-3.2c0-5.3,0-9.5,0-14.9c-1,0-2.1,0-3,0c0-4.1,0-12.5,0-15.5
					c0-1.2-1.2-2.6-2.8-2.6h-22.1v4.9h17c0,4.4,0,8.9,0,13.3c-4.1,0-4.7,0-8.2,0c-0.5,0-1-0.5-1-0.9c0-2.2,0-5.8,0-8.7
					c0-0.7-0.7-1.5-1.8-1.5h-5v11.8c0,2.3,2,4.2,4.2,4.2c0,0,8.7,0,15.9,0v4.4h-17.6c-1.9,0-4.9,1.8-4.9,4.9
					c6.1,0,15.9-0.1,22.5-0.1C145.3,33.4,145.3,34.7,145.3,36.2z M37.9,28.9c0-5.6,0-13.4,0-21H20.3v26.8c5.1,0,11.6,0,11.6,0
					C36.4,34.6,37.8,32.1,37.9,28.9z M30.4,29.7c-1.3,0-2.6,0-4.4,0V13c1.9,0,4.1,0,6,0c0,5.1,0,10.7,0,15.1
					C31.9,29,31.4,29.7,30.4,29.7z M0.2,1.2c0,9.6,0,22.2,0,41.4h6.5c0-12.1,0-25.3,0-37.8c1.5,0,3.3,0,4.9,0c0,7.3,0,13.8,0,20.5
					c0,2.8-2.5,3.8-2.5,3.8v5.4c4.6,0,8.7-4.7,8.7-9c0-7.8,0-17.7,0-25.5C11.9,0,7.4,0,1.6,0C0.2,0,0.2,1.2,0.2,1.2z M202.7,18.2
					c0-4.1,0-12.5,0-15.5c0-1.2-1.2-2.6-2.8-2.6h-22.1v4.9c5.7,0,11.4,0,17,0v13.3c-4.1,0-4.7,0-8.2,0c-0.5,0-1-0.5-1-0.9
					c0-2.2,0-5.8,0-8.7c0-0.7-0.7-1.4-1.8-1.4c-1.4,0-3.4,0-5,0v11.7c0,2.3,2,4.2,4.2,4.2c0,0,8.7,0,15.9,0v4.4h-17.3
					c-1.9,0-5,1.7-5,4.8c6.1,0,15.8,0,22.4,0v4.5c0,0.8-0.6,1.1-1.5,1.1h-2.6c0,2.2,0,3.4,0,4.8h3.9c1.2,0,0.9,0,2.1,0
					c3.3,0,4.7-2.3,4.7-4.2c0-6.1,0-14.2,0-20.3C204.6,18.2,203.5,18.2,202.7,18.2z M171.3,34.6c2.4-2.6,3.7-5.7,4-11.5
					c0-6.4,0-12.5,0-18.8c0-0.5-0.7-1.2-1.3-1.2c-2.5,0-5.6,0-8.3,0V0h-6.5c0,1,0,2,0,2.9c-0.7,0-1.5,0-2.2,0v4.9h2.2V23
					c0,5.9,1.9,8.8,4.3,11.5c-2.9,2-5.8,3.2-9.7,3.2c-0.5,0-1.1,0-1.7,0c-6.1,0-13.5,0-20,0c-6.1,0-12-1.1-14.2-3.8
					c2.1-2.8,3.2-5.1,3.8-11c0-5.9,0-10.9,0-18.4c-0.1-0.8-0.8-1.5-1.6-1.6c-2.6,0-5.1,0-8.3,0V0c-2.7,0-3.7,0-6.3,0v3
					c-0.7,0-1.2,0-2.2,0v4.9c1,0,1.5,0,2.2,0c0,5,0,10.6,0,15.2c0.5,5.9,2.4,7.8,4.6,11.3c-3.3,2.3-7.3,3.3-12,3.6
					c-5.6,0-10.6,0-17.6,0c0-1.2,0-2.9,0-3.8h17.6v-5.1H80.6c0-1.2,0-2.5,0-3.8c5.1,0,11.7,0,13.3,0c0,0,4.3,0,4.3-4.7
					c0.1-4.9,0-13.8,0-20.4c-13.9,0-28.1,0-42,0c-0.7,0-1.3,0.7-1.3,1.3c0,1,0,16.6,0,23.9c5.9,0,11.7,0,17.6,0v3.8H54.9
					c0,1.6,0,3.4,0,5.1h17.6c0,1.3,0,2.5,0,3.8H51.9c0,1.4,0,3.3,0,4.8c15.5,0,34.6,0.1,49.6,0c4,0,9.1-2.1,12.7-4.2
					c4.6,3.5,9.6,4.2,17.9,4.2c2.5,0,5.3,0,8.4,0c4.3,0,8.2,0,11.6,0c7,0,11.4-1.5,15.7-4c3.9,2.4,7.7,3.8,13.8,4v0h9.3v-4.8h-9.3
					C177.4,37.4,174,36.8,171.3,34.6z M72.4,20.3H61.6v-5.1h10.8V20.3z M72.4,10H61.6V4.9c3.6,0,7.2,0,10.8,0V10z M80.6,4.9h10.8V10
					H80.6V4.9z M80.6,15.1c3.6,0,7.2,0,10.8,0c0,2.1,0,3.7,0,5.1H80.6C80.6,18.9,80.6,16.8,80.6,15.1z M115.6,23
					c-0.2,3.4-0.8,4.2-1.6,6.4c-1-2.1-1.9-3-2.1-6.4c0-4.4,0-10.5,0-15.2h3.7V23z M169.2,23c-0.1,3.1-0.9,4.7-1.7,6.4
					c-1-1.7-1.9-3.5-1.9-6.4c0-4.7,0-10.4,0-15.2h3.6C169.2,12.7,169.2,18.3,169.2,23z"/>
			</g>
		</g>
	</g>
	<g>
		<g>
			<path fill="#898989" d="M323.9,58.7c0,1.1-0.4,1.7-1.1,1.8c-0.3,0-0.7,0-1.1,0c0,0,0-0.1,0-0.1c0-0.4-0.1-0.6-0.1-0.8
				c0.1,0,0.2,0,0.4,0c0.3,0,0.5,0,0.6,0c0.4,0,0.6-0.3,0.6-1c0-0.9-0.4-1.8-1.1-2.7c0.3-0.7,0.6-1.8,1-3.3h-1.5v9.8h-0.9V51.8h3.3
				v0.8c-0.5,1.7-0.9,2.7-1,3.1C323.6,56.8,324,57.8,323.9,58.7z M324.4,52h7.1v0.9h-1v7.7c0.1,1.2-0.5,1.7-1.6,1.7
				c-0.3,0-0.9,0-1.7,0c0-0.2-0.1-0.4-0.1-0.6c-0.1-0.2-0.1-0.3-0.1-0.4c0.4,0,1,0,1.7,0c0.6,0,0.9-0.2,0.9-0.8v-7.7h-5.1V52z
				 M324.7,54.4h3.5v5h-3.5V54.4z M325.5,55.2v3.4h1.9v-3.4H325.5z"/>
			<path fill="#898989" d="M333.9,58.8h4.6v-1.3h-4.1v-5.7h9.2v5.7h-4.1v1.3h4.6v0.8h-4.6v1.5h5.3v0.8h-11.5v-0.8h5.3v-1.5h-4.6
				V58.8z M335.2,52.5v1.7h3.3v-1.7H335.2z M335.2,55v1.7h3.3V55H335.2z M342.6,52.5h-3.3v1.7h3.3V52.5z M339.3,55v1.7h3.3V55H339.3
				z"/>
			<path fill="#898989" d="M351,60.6l-0.7,0.6c-0.2-0.1-0.5-0.4-0.8-0.8c-0.2-0.2-0.3-0.3-0.4-0.4c-0.4,0.7-1.2,1.4-2.2,2.3
				c-0.2-0.3-0.3-0.5-0.5-0.8c0.8-0.6,1.5-1.3,2.1-2.1c-0.2-0.2-0.5-0.4-0.8-0.8c-0.4-0.3-0.6-0.6-0.8-0.8c0.2-0.7,0.4-1.8,0.8-3.5
				h-1v-0.8h1.1c0.1-0.4,0.2-1.1,0.3-2c0-0.2,0-0.4,0-0.5l0.9,0.1c0,0.3-0.1,0.8-0.2,1.4c-0.1,0.4-0.1,0.7-0.1,0.9h2.1v0.8
				c-0.2,2.1-0.6,3.7-1.1,4.8C350,59.7,350.5,60.2,351,60.6z M349.8,54.5h-1.4c-0.2,1.2-0.4,2.3-0.7,3.2c0.2,0.1,0.4,0.4,0.8,0.7
				c0.2,0.2,0.3,0.3,0.4,0.3C349.3,57.6,349.6,56.2,349.8,54.5z M350.8,58.8h5.1v0.9h-5.1V58.8z M352.8,53.1l-0.3,3.3h2.9l0.4-4H351
				v-0.8h5.7l-0.5,4.8h1.1c-0.1,2-0.1,3.4-0.2,4.1c-0.1,1.1-0.7,1.7-2,1.7c-0.8,0-1.4,0-1.9,0c0-0.2-0.1-0.4-0.1-0.7
				c0-0.2,0-0.3,0-0.3c0.2,0,0.9,0,2,0c0.7,0,1.1-0.3,1.1-1c0.1-0.6,0.1-1.6,0.2-3.1h-5l0.4-4.1H352.8z"/>
			<path fill="#898989" d="M364.1,60.6l-0.7,0.6c-0.2-0.1-0.5-0.4-0.8-0.8c-0.2-0.2-0.3-0.3-0.4-0.4c-0.4,0.7-1.2,1.4-2.2,2.3
				c-0.2-0.3-0.3-0.5-0.5-0.8c0.8-0.6,1.5-1.3,2.1-2.1c-0.2-0.2-0.5-0.4-0.8-0.8c-0.4-0.3-0.6-0.6-0.8-0.8c0.2-0.7,0.4-1.8,0.8-3.5
				h-1v-0.8h1.1c0.1-0.4,0.2-1.1,0.3-2c0-0.2,0-0.4,0-0.5l0.9,0.1c0,0.3-0.1,0.8-0.2,1.4c-0.1,0.4-0.1,0.7-0.1,0.9h2.1v0.8
				c-0.2,2.1-0.6,3.7-1.1,4.8C363.2,59.7,363.7,60.2,364.1,60.6z M362.9,54.5h-1.4c-0.2,1.2-0.4,2.3-0.7,3.2
				c0.2,0.1,0.4,0.4,0.8,0.7c0.2,0.2,0.3,0.3,0.4,0.3C362.5,57.6,362.8,56.2,362.9,54.5z M363.9,58.8h5.1v0.9h-5.1V58.8z
				 M365.9,53.1l-0.3,3.3h2.9l0.4-4h-4.8v-0.8h5.7l-0.5,4.8h1.1c-0.1,2-0.1,3.4-0.2,4.1c-0.1,1.1-0.7,1.7-2,1.7c-0.8,0-1.4,0-1.9,0
				c0-0.2-0.1-0.4-0.1-0.7c0-0.2,0-0.3,0-0.3c0.2,0,0.9,0,2,0c0.7,0,1.1-0.3,1.1-1c0.1-0.6,0.1-1.6,0.2-3.1h-5l0.4-4.1H365.9z"/>
			<path fill="#898989" d="M372.8,53h4.1v0.8h-2.2c0,0.5,0,1.1,0,1.7h2c0,2.1,0,3.8-0.1,4.9c0,1.2-0.5,1.7-1.4,1.7
				c-0.5,0-0.8,0-0.9,0c0-0.2-0.1-0.5-0.1-0.9c0.4,0,0.8,0,1,0c0.5,0,0.7-0.3,0.7-0.9c0.1-0.7,0.1-2.1,0.1-4.1h-1.2
				c0,0.3,0,0.6,0,0.8c0,2.4-0.5,4.2-1.4,5.2c-0.2-0.2-0.4-0.4-0.6-0.7c0.8-0.9,1.1-2.4,1.1-4.5c0-0.3,0-0.9,0-1.7
				c0-0.7,0-1.3,0-1.7h-1.1V53z M374.2,51.4l0.8-0.3c0.1,0.1,0.1,0.3,0.2,0.5c0.2,0.4,0.3,0.8,0.5,1.1l-0.8,0.3
				C374.8,52.5,374.5,52,374.2,51.4z M379.3,60.2l0.6,0.6c-0.1,0.1-0.2,0.1-0.4,0.2c-0.8,0.6-1.5,1.1-2.1,1.4
				c-0.2-0.2-0.4-0.5-0.6-0.7C377.7,61.3,378.5,60.8,379.3,60.2z M377,53.6c0.6-0.6,1.1-1.5,1.5-2.5l0.8,0.2
				c-0.1,0.2-0.2,0.4-0.3,0.7c-0.1,0.1-0.1,0.2-0.1,0.3h5.1v0.8h-5.6c-0.3,0.4-0.5,0.8-0.8,1.1c0,0-0.1-0.1-0.1-0.1
				C377.3,53.8,377.1,53.7,377,53.6z M378.3,53.6h0.8v0.9h2.8v-0.9h0.8v0.9h1.1v0.8h-1.1v4.1h1.4v0.8H377v-0.8h1.2v-4.1h-1.1v-0.8
				h1.1V53.6z M379.1,55.2v0.9h2.8v-0.9H379.1z M379.1,56.9v0.9h2.8v-0.9H379.1z M379.1,58.5v0.9h2.8v-0.9H379.1z M381.1,60.8
				l0.5-0.6c0.8,0.5,1.6,1,2.4,1.6l-0.6,0.7C382.7,61.8,382,61.3,381.1,60.8z"/>
			<path fill="#898989" d="M391.9,55.1c1.7,0.9,3.3,1.7,4.6,2.5l-0.6,0.9c-1.7-1-3.2-1.9-4.4-2.5v6.3h-1V53H386v-0.9h11.3V53h-5.7
				v2.8L391.9,55.1z"/>
			<path fill="#898989" d="M400.2,55.8h5.4c0.5-0.6,1-1.4,1.4-2.3l0.9,0.6c-0.5,0.7-0.9,1.3-1.3,1.7h3.4v0.8h-9v0.8
				c0.1,2.2-0.4,3.9-1.5,5.1c-0.2-0.2-0.4-0.5-0.6-0.8c0.9-0.8,1.3-2.2,1.2-4.3V55.8z M404.1,51.4l0.9-0.3c0,0.1,0.1,0.2,0.1,0.4
				c0.2,0.4,0.3,0.8,0.3,1h5v0.8h-11.2v-0.8h5.2C404.4,52.1,404.3,51.8,404.1,51.4z M401.7,54l0.8-0.5c0.1,0.1,0.2,0.2,0.3,0.4
				c0.5,0.6,0.8,1.1,1,1.3l-0.8,0.6C402.5,55,402.1,54.4,401.7,54z"/>
			<path fill="#898989" d="M412.9,57.2h4.4v5.2h-0.9v-0.8h-2.6v0.8h-0.9V57.2z M413.7,58v3h2.6v-3H413.7z M414,51.7h7.9v4.2H414
				V51.7z M414.9,52.5v2.6h6.1v-2.6H414.9z M418.7,57.2h4.4v5.2h-0.9v-0.8h-2.6v0.8h-0.9V57.2z M419.6,58v3h2.6v-3H419.6z"/>
		</g>
		<g>
			<g>
				<path fill="#333333" d="M327,21.2h-6.5v2.9h2.9v16.6c0,1.3,0.9,2.2,2.2,2.2h26V40H327V21.2z M333.5,38.5l5.8-12.3l5.8,10.8
					c0,0,0.2,0.5,0.7,0.9c0.6,0.5,1.5,0.6,1.5,0.6h2.9l-8.3-17.4h7.6v-2.9h-8v-5.8h-4.3v5.8h-8v2.9h7.6l-7.6,17.4H333.5z
					 M328.4,19.7l-2.2-7.2h-4.3l2.2,7.2H328.4z M375.6,12.5h-5.1v2.2h-12.3v0.9l0,0l0,18.7l-2.2,8.7h4.3l2.2-8.7V17.6h24.6v-2.9
					h-11.6V12.5z M377.1,34.2h8v-2.9h-8l0-1.4h4.3l3.6-0.7v-2.9l-3.6,0.7h-18.1v2.9h9.4v1.4h-8.7v2.9h8.7v1.4h-10.1v2.9h10.1V40
					h-4.3v2.9h5.6c1.7,0,3.1-1.3,3.1-2.9h0l0-1.4h9.4v-2.9h-9.4L377.1,34.2z M363.3,26.2l3.6-2.9v2.9h3.6v-2.9l3.6,2.9v-2.9
					l-1.7-1.4h1.7v-2.2h-3.6v-1.4H367v1.4h-3.6v2.2h1.8l-1.8,1.4V26.2z M421.7,32c-0.1-0.5-1.3-1.4-2.2-1.4h-26V40h-2.2v2.9h31.8V40
					h-1.4V32z M401.4,40h-3.6v-6.5h3.6V40z M409.4,40h-3.6v-6.5h3.6V40z M417.4,40h-3.6v-6.5h3.6V40z M375.6,26.2l3.6-2.9v2.9
					l2.9-0.1l0-3l3.6,3.1v-2.9l-1.4-1.4h1.4v-2.2h-3.6l0-1.4h-2.9v1.4h-3.6v2.2h1.8l-1.8,1.4V26.2z M421,21.2c0-3,0-6.5,0-6.5h-11.3
					l0.4-2.2h-5.8l-0.4,2.2h-9v6.5h-3.6v2.9h3.6v0.7l-0.7,4.3h4.3l0.7-4.3v-0.7h17.4v2.2h-2.9v2.9h3.6c1.9,0,3.6-1.7,3.6-3.6v-1.4
					h2.2v-2.9H421z M416.6,21.2h-7l-1-2.9h-5.1l1,2.9h-5.3v-3.6h17.4V21.2z M408.7,24.8h-5.1l1.4,4.3h5.1L408.7,24.8z"/>
			</g>
		</g>
		<ellipse fill="#B691F2" cx="282.7" cy="58.8" rx="15" ry="9.6"/>
		<polygon fill="#9661F0" points="256.2,20.2 282.9,37.2 282.8,60.9 		"/>
		<polygon fill="#A06FEE" points="308.1,19.5 282.8,60.9 282.9,37.2 		"/>
		<polygon fill="#AB7CFF" points="256.2,20.2 282.9,37.2 308.1,19.5 281.9,2.9 		"/>
	</g>
</g>
<g>
	<rect x="228.6" y="257.5" fill-rule="evenodd" clip-rule="evenodd" fill="#CCCCCC" width="1.4" height="74.7"/>
	<g>
		<g id="形状_2_copy_3_副本_4_33_">
			<g>
				<path fill-rule="evenodd" clip-rule="evenodd" fill="#CCCCCC" d="M11.5,309.5c-3.9,7.7-7.4,14.5-11.5,22.6h5.5
					c1-1.9,1.6-3.1,2.8-5.4c2.9,0,5,0,7.9,0c-0.6-1.7-1-2.9-1.5-4.3h-4.4c1.3-2.6,2-4,4-7.5c2,5.9,4.1,11.8,6.1,17.2h5
					c-2.8-7.9-5.2-14.7-7.9-22.6H11.5z M26.8,332.1h4.8l1-22.6l-4.7,0L26.8,332.1z M34.2,332.1h5l0.6-16.8h-4.8L34.2,332.1z
					 M35.3,309.5l-0.1,3.6c0,0,3.7,0,4.7,0l0.2-3.6C35.8,309.5,35.8,309.5,35.3,309.5z M66.1,315.4c-0.9-0.3-1.8-0.5-2.7-0.5
					c-0.6,0-1.1,0.1-1.6,0.2c-0.5,0.1-1,0.2-1.4,0.4c-0.4,0.2-0.8,0.4-1.1,0.7c-0.3,0.3-0.6,0.5-0.8,0.8c-0.2,0.3-0.4,0.6-0.7,1
					c-0.2-0.5-0.4-0.9-0.6-1.2c-0.2-0.3-0.4-0.5-0.7-0.7c-0.3-0.2-0.6-0.4-1-0.6c-0.4-0.2-0.8-0.3-1.3-0.4c-0.5-0.1-0.9-0.1-1.4-0.1
					c-0.7,0-1.3,0.1-1.9,0.2c-0.6,0.2-1.2,0.4-1.6,0.7c-0.5,0.3-0.8,0.6-1.1,0.9c-0.3,0.3-0.6,0.7-1,1.3l0.1-2.7h-4.5l-0.7,16.8
					c0,0,3.7,0,4.7,0c0-1.4,0.1-3.4,0.2-5.8c0.1-2.5,0.3-4.1,0.6-5c0.3-0.8,0.7-1.5,1.3-2c0.6-0.5,1.3-0.8,2-0.8
					c0.4,0,0.8,0.1,1.1,0.2c0.3,0.1,0.6,0.4,0.8,0.7c0.2,0.3,0.4,0.6,0.5,1c0.1,0.3,0.1,0.7,0.1,1.2c0,0.9-0.1,2.7-0.2,5.3
					c-0.1,2.6-0.3,4.4-0.3,5.2c1,0,3.8,0,4.7,0l0.1-4.6c0.1-1.6,0.1-3,0.2-4c0.1-1,0.2-1.8,0.4-2.4c0.2-0.6,0.5-1.1,0.8-1.5
					c0.3-0.4,0.7-0.7,1.1-0.9c0.4-0.2,0.9-0.3,1.4-0.3c0.5,0,0.9,0.1,1.3,0.3c0.4,0.2,0.7,0.5,0.9,0.9c0.2,0.4,0.4,1,0.4,1.8
					c0,0.7,0,1.5-0.1,2.4l-0.2,3.8c-0.1,1.6-0.2,3-0.3,4.5c1,0,3.9,0,4.7,0c0-1.3,0.1-3.1,0.2-5.4c0.1-2.3,0.2-4,0.3-5
					c0.1-1,0.1-1.8,0.1-2.3c0-1-0.2-1.8-0.7-2.5C67.6,316.2,66.9,315.7,66.1,315.4z M83.9,315.3c-1-0.3-2.1-0.4-3.3-0.4
					c-1.1,0-2.2,0.1-3.3,0.2c-1.1,0.1-4,0.7-4,0.7l-0.5,3.1c0,0,4.7-1.4,6.7-1.4c0.5,0,1,0.1,1.5,0.2c0.4,0.1,0.8,0.3,1.1,0.6
					c0.3,0.3,0.4,0.7,0.4,1.1c0,0.2,0,0.4-0.1,0.6c-0.1,0.2-0.2,0.4-0.4,0.6c-0.2,0.2-0.4,0.4-0.7,0.5c-0.3,0.1-0.6,0.2-1.1,0.4
					c-0.5,0.1-0.9,0.2-1.3,0.3c-1.6,0.3-2.9,0.7-3.8,1c-1,0.3-1.7,0.7-2.2,1c-0.5,0.4-0.9,0.7-1.2,1.1c-0.3,0.4-0.6,0.8-0.7,1.3
					c-0.2,0.5-0.2,0.9-0.2,1.4c0,0.8,0.2,1.6,0.6,2.5c0.4,0.8,1.1,1.4,2,1.8c0.9,0.4,2,0.6,3.4,0.6c0.4,0,0.8,0,1.3,0
					c0.5,0,1.1-0.1,1.9-0.2c0.3-1.2,0.6-2.2,0.8-2.8c-0.7,0.2-1.2,0.4-1.6,0.4c-0.4,0.1-0.8,0.1-1.1,0.1c-0.6,0-1-0.1-1.4-0.2
					c-0.4-0.1-0.7-0.4-1-0.7c-0.3-0.3-0.4-0.7-0.4-1.2c0-0.3,0.1-0.6,0.2-0.8c0.1-0.2,0.3-0.5,0.5-0.7c0.2-0.2,0.5-0.4,0.9-0.6
					c0.3-0.2,0.7-0.3,1.1-0.5c0.4-0.1,1-0.3,1.7-0.5c0.7-0.2,1.2-0.3,1.5-0.4c0.3-0.1,0.5-0.2,0.7-0.3c0.2-0.1,0.5-0.3,1-0.6
					l-0.6,8.8h4.7c0,0,0.1-5.4,0.3-8c0.2-2.6,0.3-4.2,0.3-4.8c0-1.2-0.3-2-0.9-2.7C85.8,316,85,315.6,83.9,315.3z M113.5,315.4
					c-0.8-0.3-1.8-0.5-2.7-0.5c-0.6,0-1.1,0.1-1.6,0.2c-0.5,0.1-1,0.2-1.4,0.4c-0.4,0.2-0.8,0.4-1.1,0.7c-0.3,0.3-0.6,0.5-0.8,0.8
					c-0.2,0.3-0.4,0.6-0.7,1c-0.2-0.5-0.4-0.9-0.6-1.2c-0.2-0.3-0.4-0.5-0.7-0.7c-0.3-0.2-0.6-0.4-1-0.6c-0.4-0.2-0.8-0.3-1.3-0.4
					c-0.5-0.1-0.9-0.1-1.4-0.1c-0.7,0-1.3,0.1-1.9,0.2c-0.6,0.2-1.2,0.4-1.6,0.7c-0.5,0.3-0.8,0.6-1.1,0.9c-0.3,0.3-0.6,0.7-1,1.3
					l0.1-2.7h-4.5l-0.7,16.8h4.7c0,0,0.1-3.4,0.2-5.8c0.1-2.5,0.3-4.1,0.6-5c0.3-0.8,0.7-1.5,1.3-2c0.6-0.5,1.3-0.8,2-0.8
					c0.4,0,0.8,0.1,1.1,0.2c0.3,0.1,0.6,0.4,0.8,0.7c0.2,0.3,0.4,0.6,0.5,1c0.1,0.3,0.1,0.7,0.1,1.2c0,0.9-0.1,2.7-0.2,5.3
					c-0.1,2.6-0.3,4.4-0.3,5.2c1,0,3.8,0,4.7,0l0.1-4.6c0.1-1.6,0.1-3,0.2-4c0.1-1,0.2-1.8,0.4-2.4c0.2-0.6,0.5-1.1,0.8-1.5
					c0.3-0.4,0.7-0.7,1.1-0.9c0.4-0.2,0.9-0.3,1.3-0.3c0.5,0,0.9,0.1,1.3,0.3c0.4,0.2,0.7,0.5,0.9,0.9c0.2,0.4,0.4,1,0.4,1.8
					c0,0.7,0,1.5-0.1,2.4l-0.2,3.8c-0.1,1.6-0.2,3-0.3,4.5c1,0,3.9,0,4.7,0c0-1.3,0.1-3.1,0.2-5.4c0.1-2.3,0.2-4,0.3-5
					c0.1-1,0.1-1.8,0.1-2.3c0-1-0.2-1.8-0.7-2.5C115,316.2,114.4,315.7,113.5,315.4z M131.4,315.3c-1-0.3-2.1-0.4-3.4-0.4
					c-1.1,0-2.2,0.1-3.3,0.2c-1.2,0.1-4,0.7-4,0.7l-0.5,3.1c0,0,4.7-1.4,6.7-1.4c0.5,0,1,0.1,1.5,0.2c0.5,0.1,0.8,0.3,1.1,0.6
					c0.3,0.3,0.4,0.7,0.4,1.1c0,0.2,0,0.4-0.1,0.6c-0.1,0.2-0.2,0.4-0.4,0.6c-0.2,0.2-0.4,0.4-0.7,0.5c-0.3,0.1-0.6,0.2-1.1,0.4
					c-0.5,0.1-0.9,0.2-1.3,0.3c-1.6,0.3-2.9,0.7-3.8,1c-1,0.3-1.7,0.7-2.2,1c-0.5,0.4-0.9,0.7-1.2,1.1c-0.3,0.4-0.6,0.8-0.7,1.3
					c-0.2,0.5-0.3,0.9-0.3,1.4c0,0.8,0.2,1.6,0.6,2.5c0.4,0.8,1.1,1.4,2,1.8c0.9,0.4,2,0.6,3.4,0.6c0.4,0,0.8,0,1.3,0
					c0.5,0,1.1-0.1,1.9-0.2c0.3-1.2,0.6-2.2,0.8-2.8c-0.7,0.2-1.2,0.4-1.6,0.4c-0.4,0.1-0.8,0.1-1.1,0.1c-0.6,0-1-0.1-1.4-0.2
					c-0.4-0.1-0.7-0.4-1-0.7c-0.3-0.3-0.4-0.7-0.4-1.2c0-0.3,0.1-0.6,0.2-0.8c0.1-0.2,0.3-0.5,0.5-0.7c0.2-0.2,0.5-0.4,0.9-0.6
					c0.3-0.2,0.7-0.3,1.1-0.5c0.4-0.1,1-0.3,1.7-0.5c0.7-0.2,1.2-0.3,1.5-0.4c0.3-0.1,0.5-0.2,0.7-0.3c0.2-0.1,0.5-0.3,1-0.6
					l-0.6,8.8h4.7c0,0,0.1-5.4,0.3-8c0.2-2.6,0.3-4.2,0.3-4.8c0-1.2-0.3-2-0.9-2.7C133.2,316,132.4,315.6,131.4,315.3z M136.7,327.7
					c-0.1,2.2-0.1,3.7-0.2,4.4c1.6,0,4.6,0,4.6,0s0.2-3.6,0.2-4.4C140.2,327.7,136.7,327.7,136.7,327.7z M149,319.9
					c0.5-0.5,1.1-0.9,1.7-1.2c0.7-0.3,1.4-0.4,2.1-0.4c1.2,0,2.7,0.3,4.3,0.8l-0.2-3.6c-1-0.3-1.9-0.4-2.7-0.5
					c-0.8-0.1-1.5-0.1-2.2-0.1c-1.3,0-2.5,0.1-3.5,0.4c-1.1,0.3-2,0.8-2.9,1.7c-0.9,0.8-1.5,1.9-2,3.1c-0.5,1.3-0.7,2.6-0.7,4
					c0,1,0.1,2.1,0.4,3.1c0.3,1,0.7,1.8,1.2,2.5c0.5,0.7,1.2,1.3,1.9,1.7c0.7,0.4,1.5,0.7,2.3,0.9c0.8,0.2,1.7,0.2,2.6,0.2
					c1.5,0,3.1-0.2,4.7-0.5c0.1-0.8,0.2-1.6,0.4-2.1c0.1-0.6,0.2-1.1,0.2-1.5c-0.8,0.3-1.5,0.5-2.3,0.6c-0.7,0.1-1.3,0.2-1.8,0.2
					c-1,0-1.9-0.2-2.7-0.6c-0.8-0.4-1.4-1-1.7-1.8c-0.3-0.8-0.5-1.7-0.5-2.7c0-0.8,0.1-1.5,0.3-2.2
					C148.2,321.1,148.5,320.4,149,319.9z M174.3,317.1c-0.8-0.7-1.8-1.3-3-1.7c-1.2-0.4-2.4-0.6-3.7-0.6c-1.4,0-2.7,0.2-4,0.7
					c-1.3,0.5-2.3,1.1-3.2,2c-0.8,0.9-1.4,1.8-1.8,2.9c-0.4,1.1-0.6,2.3-0.6,3.5c0,1.2,0.2,2.3,0.6,3.4c0.4,1.1,1,2,1.9,2.8
					c0.8,0.8,1.8,1.3,3,1.7c1.2,0.4,2.4,0.6,3.7,0.6c1.4,0,2.7-0.2,3.9-0.6c1.2-0.4,2.2-1.1,3.1-1.9c0.8-0.9,1.4-1.9,1.9-3
					c0.4-1.2,0.6-2.4,0.6-3.6c0-1.2-0.2-2.3-0.6-3.4C175.7,318.8,175.1,317.9,174.3,317.1z M171.5,326.4c-0.4,0.9-0.9,1.6-1.7,2.1
					c-0.7,0.5-1.6,0.7-2.6,0.7c-0.9,0-1.8-0.2-2.5-0.7c-0.7-0.5-1.2-1.1-1.5-1.8c-0.3-0.8-0.5-1.6-0.5-2.6c0-1.1,0.2-2.1,0.6-3
					c0.4-0.9,0.9-1.6,1.7-2.1c0.8-0.5,1.6-0.7,2.6-0.7c1,0,1.8,0.2,2.5,0.7c0.7,0.4,1.2,1.1,1.4,1.8c0.3,0.8,0.4,1.6,0.4,2.5
					C172,324.4,171.8,325.4,171.5,326.4z M204,316.9c-0.5-0.7-1.2-1.2-2-1.5c-0.9-0.3-1.8-0.5-2.7-0.5c-0.6,0-1.1,0.1-1.6,0.2
					c-0.5,0.1-1,0.2-1.4,0.4c-0.4,0.2-0.8,0.4-1.1,0.7c-0.3,0.3-0.6,0.5-0.8,0.8c-0.2,0.3-0.4,0.6-0.7,1c-0.2-0.5-0.4-0.9-0.6-1.2
					c-0.2-0.3-0.4-0.5-0.7-0.7c-0.3-0.2-0.6-0.4-1-0.6c-0.4-0.2-0.8-0.3-1.3-0.4c-0.5-0.1-0.9-0.1-1.4-0.1c-0.7,0-1.3,0.1-1.9,0.2
					c-0.6,0.2-1.2,0.4-1.6,0.7c-0.5,0.3-0.8,0.6-1.1,0.9c-0.3,0.3-0.6,0.7-1,1.3l0.1-2.7c-0.8,0-3.5,0-4.5,0
					c0,1.9-0.6,14.9-0.7,16.8c1,0,3.7,0,4.7,0c0-1.4,0.1-3.4,0.2-5.8c0.1-2.5,0.3-4.1,0.6-5c0.3-0.8,0.7-1.5,1.3-2
					c0.6-0.5,1.3-0.8,2-0.8c0.4,0,0.8,0.1,1.1,0.2c0.3,0.1,0.6,0.4,0.8,0.7c0.2,0.3,0.4,0.6,0.5,1c0.1,0.3,0.1,0.7,0.1,1.2
					c0,0.9-0.1,2.7-0.2,5.3c-0.1,2.6-0.3,4.4-0.3,5.2c1,0,3.8,0,4.7,0l0.1-4.6c0.1-1.6,0.1-3,0.2-4c0.1-1,0.2-1.8,0.4-2.4
					c0.2-0.6,0.5-1.1,0.8-1.5c0.3-0.4,0.7-0.7,1.1-0.9c0.4-0.2,0.9-0.3,1.4-0.3c0.5,0,0.9,0.1,1.3,0.3c0.4,0.2,0.7,0.5,0.9,0.9
					c0.3,0.4,0.4,1,0.4,1.8c0,0.7,0,1.5-0.1,2.4l-0.2,3.8c-0.1,1.6-0.2,3-0.3,4.5c1,0,3.9,0,4.7,0c0-1.3,0.1-3.1,0.2-5.4
					c0.1-2.3,0.2-4,0.3-5c0.1-1,0.1-1.8,0.1-2.3C204.7,318.4,204.5,317.5,204,316.9z"/>
			</g>
		</g>
		<g id="形状_2_copy_3_副本_5_33_">
			<g>
				<path fill-rule="evenodd" clip-rule="evenodd" fill="#FF6600" d="M19.8,262.3c7,0,14.1,0,21.1,0c0,10.5,0,21.4,0,31.1
					c0,0.6-0.8,1.5-1.6,1.6c-1.1,0-1.6,0-3,0v5.1c1.6,0,3,0,4.6,0c4.1,0,6.8-2,6.8-5.4c0-8.1,0-24.2,0-32.4h2.4v-4.9H19.8V262.3z
					 M145.1,293.7c2.3,0,1.4,0,3.6,0c1.3,0,3.1-1.1,3.1-3.2c0-5.3,0-9.5,0-14.9c-1,0-2.1,0-3,0c0-4.1,0-12.5,0-15.5
					c0-1.2-1.2-2.6-2.8-2.6H124v4.9h17c0,4.4,0,8.9,0,13.3c-4.1,0-4.7,0-8.2,0c-0.5,0-1-0.5-1-0.9c0-2.2,0-5.8,0-8.7
					c0-0.7-0.7-1.5-1.8-1.5h-5v11.8c0,2.3,2,4.2,4.2,4.2c0,0,8.7,0,15.9,0v4.4h-17.6c-1.9,0-4.9,1.8-4.9,4.9
					c6.1,0,15.9-0.1,22.5-0.1C145.1,290.9,145.1,292.2,145.1,293.7z M37.7,286.3c0-5.6,0-13.4,0-21H20.1V292c5.1,0,11.6,0,11.6,0
					C36.2,292,37.6,289.5,37.7,286.3z M30.2,287.1c-1.3,0-2.6,0-4.4,0v-16.7c1.9,0,4.1,0,6,0c0,5.1,0,10.7,0,15.1
					C31.7,286.5,31.2,287.1,30.2,287.1z M0,258.7c0,9.6,0,22.2,0,41.4h6.5c0-12.1,0-25.3,0-37.8c1.5,0,3.3,0,4.9,0
					c0,7.3,0,13.8,0,20.5c0,2.8-2.5,3.8-2.5,3.8v5.4c4.6,0,8.7-4.7,8.7-9c0-7.8,0-17.7,0-25.5c-5.9,0-10.4,0-16.2,0
					C0,257.5,0,258.7,0,258.7z M202.5,275.6c0-4.1,0-12.5,0-15.5c0-1.2-1.2-2.6-2.8-2.6h-22.1v4.9c5.7,0,11.4,0,17,0v13.3
					c-4.1,0-4.7,0-8.2,0c-0.5,0-1-0.5-1-0.9c0-2.2,0-5.8,0-8.7c0-0.7-0.7-1.4-1.8-1.4c-1.4,0-3.4,0-5,0v11.7c0,2.3,2,4.2,4.2,4.2
					c0,0,8.7,0,15.9,0v4.4h-17.3c-1.9,0-5,1.7-5,4.8c6.1,0,15.8,0,22.4,0v4.5c0,0.8-0.6,1.1-1.5,1.1h-2.6c0,2.2,0,3.4,0,4.8h3.9
					c1.2,0,0.9,0,2.1,0c3.3,0,4.7-2.3,4.7-4.2c0-6.1,0-14.2,0-20.3C204.4,275.6,203.3,275.6,202.5,275.6z M171.1,292
					c2.4-2.6,3.7-5.7,4-11.5c0-6.4,0-12.5,0-18.8c0-0.5-0.7-1.2-1.3-1.2c-2.5,0-5.6,0-8.3,0v-2.9h-6.5c0,1,0,2,0,2.9
					c-0.7,0-1.5,0-2.2,0v4.9h2.2v15.2c0,5.9,1.9,8.8,4.3,11.5c-2.9,2-5.8,3.2-9.7,3.2c-0.5,0-1.1,0-1.7,0c-6.1,0-13.5,0-20,0
					c-6.1,0-12-1.1-14.2-3.8c2.1-2.8,3.2-5.1,3.8-11c0-5.9,0-10.9,0-18.4c-0.1-0.8-0.8-1.5-1.6-1.6c-2.6,0-5.1,0-8.3,0v-3
					c-2.7,0-3.7,0-6.3,0v3c-0.7,0-1.2,0-2.2,0v4.9c1,0,1.5,0,2.2,0c0,5,0,10.6,0,15.2c0.5,5.9,2.4,7.8,4.6,11.3
					c-3.3,2.3-7.3,3.3-12,3.6c-5.6,0-10.6,0-17.6,0c0-1.2,0-2.9,0-3.8H98v-5.1H80.4c0-1.2,0-2.5,0-3.8c5.1,0,11.7,0,13.3,0
					c0,0,4.3,0,4.3-4.7c0.1-4.9,0-13.8,0-20.4c-13.9,0-28.1,0-42,0c-0.7,0-1.3,0.7-1.3,1.3c0,1,0,16.6,0,23.9c5.9,0,11.7,0,17.6,0
					v3.8H54.7c0,1.6,0,3.4,0,5.1h17.6c0,1.3,0,2.5,0,3.8H51.7c0,1.4,0,3.3,0,4.8c15.5,0,34.6,0.1,49.6,0c4,0,9.1-2.1,12.7-4.2
					c4.6,3.5,9.6,4.2,17.9,4.2c2.5,0,5.3,0,8.4,0c4.3,0,8.2,0,11.6,0c7,0,11.4-1.5,15.7-4c3.9,2.4,7.7,3.8,13.8,4v0h9.3v-4.8h-9.3
					C177.2,294.9,173.8,294.2,171.1,292z M72.2,277.7H61.4v-5.1h10.8V277.7z M72.2,267.4H61.4v-5.1c3.6,0,7.2,0,10.8,0V267.4z
					 M80.4,262.3h10.8v5.1H80.4V262.3z M80.4,272.6c3.6,0,7.2,0,10.8,0c0,2.1,0,3.7,0,5.1H80.4C80.4,276.4,80.4,274.2,80.4,272.6z
					 M115.4,280.5c-0.2,3.4-0.8,4.2-1.6,6.4c-1-2.1-1.9-3-2.1-6.4c0-4.4,0-10.5,0-15.2h3.7V280.5z M169,280.5
					c-0.1,3.1-0.9,4.7-1.7,6.4c-1-1.7-1.9-3.5-1.9-6.4c0-4.7,0-10.4,0-15.2h3.6C169,270.2,169,275.7,169,280.5z"/>
			</g>
		</g>
	</g>
	<g>
		<g>
			<polygon fill="#333333" points="326.2,270 329.1,277.6 333,277.6 330.3,270 			"/>
			<polygon fill="#333333" points="326.2,279.8 330.5,279.8 333.2,287.4 330.6,300.4 326.3,300.4 329,287.5 			"/>
			<polygon fill="#333333" points="337.5,270 334.8,276.1 339.2,276.1 341.8,270 			"/>
			<rect x="338.5" y="273.3" fill="#333333" width="16.2" height="2.7"/>
			<path fill="#333333" d="M353.6,273.3v23.8v3.3h0.8c1.8,0,3.3-1.5,3.3-3.3v-23.8H353.6z"/>
			<polygon fill="#333333" points="336.7,277.2 341.1,277.2 338.4,283.3 334.1,283.3 			"/>
			<rect x="338.6" y="279.2" fill="#333333" width="12.7" height="2.6"/>
			<rect x="334.7" y="285.6" fill="#333333" width="17.7" height="2.7"/>
			<rect x="341.7" y="281.5" fill="#333333" width="3.9" height="14.5"/>
			<rect x="335.8" y="289.9" fill="#333333" width="3.4" height="7"/>
			<path fill="#333333" d="M351.3,289.9H348v5v3h0.4h0c1.6,0,3-1.3,3-3h0V289.9z"/>
			<rect x="335.8" y="295.2" fill="#333333" width="12.2" height="2.6"/>
			<rect x="374.4" y="270" fill="#333333" width="5.1" height="3.5"/>
			<rect x="362.6" y="272.7" fill="#333333" width="28.4" height="2.8"/>
			<rect x="361" y="272.7" fill="#333333" width="4.4" height="5.9"/>
			<path fill="#333333" d="M392.8,274.6c0-1-0.8-1.8-1.8-1.8c-1,0-1.8,0.8-1.8,1.8c0,0,0,0.1,0,0.1h-0.8v4h4.5
				C392.8,278.6,392.8,274.6,392.8,274.6z"/>
			<rect x="363" y="280.2" fill="#333333" width="27.7" height="3"/>
			<rect x="363.8" y="288.2" fill="#333333" width="26" height="2.9"/>
			<rect x="374.4" y="282.6" fill="#333333" width="4.7" height="16"/>
			<rect x="361" y="297.7" fill="#333333" width="31.8" height="2.6"/>
			<polygon fill="#333333" points="382.1,293.1 387.2,293.1 388.3,297.7 383.2,297.7 			"/>
			<rect x="397.2" y="271.8" fill="#333333" width="28.6" height="2.9"/>
			<path fill="#333333" d="M423.2,271.8c0,0.1,0,0.3,0,0.4c0,1.4,1.1,2.6,2.6,2.6c1.4,0,2.6-1.1,2.6-2.6c0-0.1,0-0.3,0-0.4H423.2z"
				/>
			<rect x="428.1" y="271.8" fill="#333333" width="0.1" height="0.5"/>
			<rect x="410.4" y="270" fill="#333333" width="4.7" height="7.1"/>
			<rect x="400.1" y="277.1" fill="#333333" width="25.1" height="2.8"/>
			<rect x="400.1" y="279.4" fill="#333333" width="4.5" height="21"/>
			<rect x="420.8" y="279.4" fill="#333333" width="4.5" height="21"/>
			<rect x="404.5" y="282.5" fill="#333333" width="16.3" height="2.4"/>
			<rect x="404.6" y="287.4" fill="#333333" width="16.3" height="2.4"/>
			<rect x="404.6" y="292.6" fill="#333333" width="16.3" height="2.4"/>
			<rect x="396.5" y="297.8" fill="#333333" width="32.4" height="2.5"/>
			<rect x="441" y="270.1" fill="#333333" width="20.6" height="2.5"/>
			<polygon fill="#333333" points="456.5,272.6 452,276.8 456.9,276.8 461.6,272.6 			"/>
			<polygon fill="#333333" points="444.1,274.2 449.1,274.2 451.8,276.8 446.9,276.8 			"/>
			<rect x="441.3" y="276.8" fill="#333333" width="20.5" height="2.4"/>
			<rect x="441.3" y="279.2" fill="#333333" width="4" height="16.1"/>
			<rect x="449.6" y="279.2" fill="#333333" width="4" height="15.7"/>
			<path fill="#333333" d="M461.8,279.2h-4v12.9v3.2h0.9c1.7,0,3.1-1.4,3.1-3.1C461.8,292.2,461.8,279.2,461.8,279.2z"/>
			<rect x="445.2" y="282.2" fill="#333333" width="13.2" height="2.3"/>
			<rect x="445.2" y="287.6" fill="#333333" width="13.2" height="2.3"/>
			<polygon fill="#333333" points="432.7,270 436.7,270 438.9,276.9 434.9,276.9 			"/>
			<rect x="430.8" y="278.6" fill="#333333" width="6.9" height="2.9"/>
			<rect x="433.7" y="281.4" fill="#333333" width="4.1" height="16.7"/>
			<rect x="437.7" y="297.3" fill="#333333" width="24.2" height="3"/>
			<path fill="#333333" d="M436.1,295.5c-1.3,0-2.4,1.1-2.4,2.4c0,1.3,1.1,2.4,2.4,2.4V295.5z"/>
			<rect x="436.1" y="298.1" fill="#333333" width="1.6" height="2.3"/>
			<path fill="#333333" d="M496.9,273.2H467v3.2h27.2v0c1.5,0,2.7-1.4,2.7-3C496.9,273.3,496.9,273.3,496.9,273.2z"/>
			<rect x="469.1" y="284.2" fill="#333333" width="26" height="2.9"/>
			<rect x="466" y="292.2" fill="#333333" width="31.8" height="2.9"/>
			<rect x="480.2" y="278.2" fill="#333333" width="4.7" height="22.2"/>
			<polygon fill="#333333" points="474.6,270 469.1,284.2 473.5,284.2 479,270 			"/>
		</g>
		<g>
			<path fill="#898989" d="M329.7,316.1c0,1.1-0.4,1.7-1.1,1.8c-0.3,0-0.7,0-1.1,0c0,0,0-0.1,0-0.1c0-0.4-0.1-0.6-0.1-0.8
				c0.1,0,0.2,0,0.4,0c0.3,0,0.5,0,0.6,0c0.4,0,0.6-0.3,0.6-1c0-0.9-0.4-1.8-1.1-2.7c0.3-0.7,0.6-1.8,1-3.3h-1.5v9.8h-0.9v-10.6h3.3
				v0.8c-0.5,1.7-0.9,2.7-1,3.1C329.4,314.2,329.7,315.2,329.7,316.1z M330.1,309.4h7.1v0.9h-1v7.7c0.1,1.2-0.5,1.7-1.6,1.7
				c-0.3,0-0.9,0-1.7,0c0-0.2-0.1-0.4-0.1-0.6c-0.1-0.2-0.1-0.3-0.1-0.4c0.4,0,1,0,1.7,0c0.6,0,0.9-0.2,0.9-0.8v-7.7h-5.1V309.4z
				 M330.5,311.8h3.5v5h-3.5V311.8z M331.3,312.6v3.4h1.9v-3.4H331.3z"/>
			<path fill="#898989" d="M344.3,316.2h4.6v-1.3h-4.1v-5.7h9.2v5.7h-4.1v1.3h4.6v0.8h-4.6v1.5h5.3v0.8h-11.5v-0.8h5.3V317h-4.6
				V316.2z M345.6,309.9v1.7h3.3v-1.7H345.6z M345.6,312.4v1.7h3.3v-1.7H345.6z M353,309.9h-3.3v1.7h3.3V309.9z M349.7,312.4v1.7
				h3.3v-1.7H349.7z"/>
			<path fill="#898989" d="M366,318.1l-0.7,0.6c-0.2-0.1-0.5-0.4-0.8-0.8c-0.2-0.2-0.3-0.3-0.4-0.4c-0.4,0.7-1.2,1.4-2.2,2.3
				c-0.2-0.3-0.3-0.5-0.5-0.8c0.8-0.6,1.5-1.3,2.1-2.1c-0.2-0.2-0.5-0.4-0.8-0.8c-0.4-0.3-0.6-0.6-0.8-0.8c0.2-0.7,0.4-1.8,0.8-3.5
				h-1v-0.8h1.1c0.1-0.4,0.2-1.1,0.3-2c0-0.2,0-0.4,0-0.5l0.9,0.1c0,0.3-0.1,0.8-0.2,1.4c-0.1,0.4-0.1,0.7-0.1,0.9h2.1v0.8
				c-0.2,2.1-0.6,3.7-1.1,4.8C365,317.1,365.5,317.6,366,318.1z M364.8,311.9h-1.4c-0.2,1.2-0.4,2.3-0.7,3.2
				c0.2,0.1,0.4,0.4,0.8,0.7c0.2,0.2,0.3,0.3,0.4,0.3C364.4,315,364.7,313.6,364.8,311.9z M365.8,316.2h5.1v0.9h-5.1V316.2z
				 M367.8,310.6l-0.3,3.3h2.9l0.4-4h-4.8V309h5.7l-0.5,4.8h1.1c-0.1,2-0.1,3.4-0.2,4.1c-0.1,1.1-0.7,1.7-2,1.7c-0.8,0-1.4,0-1.9,0
				c0-0.2-0.1-0.4-0.1-0.7c0-0.2,0-0.3,0-0.3c0.2,0,0.9,0,2,0c0.7,0,1.1-0.3,1.1-1c0.1-0.6,0.1-1.6,0.2-3.1h-5l0.4-4.1H367.8z"/>
			<path fill="#898989" d="M383.8,318.1l-0.7,0.6c-0.2-0.1-0.5-0.4-0.8-0.8c-0.2-0.2-0.3-0.3-0.4-0.4c-0.4,0.7-1.2,1.4-2.2,2.3
				c-0.2-0.3-0.3-0.5-0.5-0.8c0.8-0.6,1.5-1.3,2.1-2.1c-0.2-0.2-0.5-0.4-0.8-0.8c-0.4-0.3-0.6-0.6-0.8-0.8c0.2-0.7,0.4-1.8,0.8-3.5
				h-1v-0.8h1.1c0.1-0.4,0.2-1.1,0.3-2c0-0.2,0-0.4,0-0.5l0.9,0.1c0,0.3-0.1,0.8-0.2,1.4c-0.1,0.4-0.1,0.7-0.1,0.9h2.1v0.8
				c-0.2,2.1-0.6,3.7-1.1,4.8C382.9,317.1,383.4,317.6,383.8,318.1z M382.6,311.9h-1.4c-0.2,1.2-0.4,2.3-0.7,3.2
				c0.2,0.1,0.4,0.4,0.8,0.7c0.2,0.2,0.3,0.3,0.4,0.3C382.2,315,382.5,313.6,382.6,311.9z M383.6,316.2h5.1v0.9h-5.1V316.2z
				 M385.6,310.6l-0.3,3.3h2.9l0.4-4h-4.8V309h5.7l-0.5,4.8h1.1c-0.1,2-0.1,3.4-0.2,4.1c-0.1,1.1-0.7,1.7-2,1.7c-0.8,0-1.4,0-1.9,0
				c0-0.2-0.1-0.4-0.1-0.7c0-0.2,0-0.3,0-0.3c0.2,0,0.9,0,2,0c0.7,0,1.1-0.3,1.1-1c0.1-0.6,0.1-1.6,0.2-3.1h-5l0.4-4.1H385.6z"/>
			<path fill="#898989" d="M397.1,310.4h4.1v0.8H399c0,0.5,0,1.1,0,1.7h2c0,2.1,0,3.8-0.1,4.9c0,1.2-0.5,1.7-1.4,1.7
				c-0.5,0-0.8,0-0.9,0c0-0.2-0.1-0.5-0.1-0.9c0.4,0,0.8,0,1,0c0.5,0,0.7-0.3,0.7-0.9c0.1-0.7,0.1-2.1,0.1-4.1H399
				c0,0.3,0,0.6,0,0.8c0,2.4-0.5,4.2-1.4,5.2c-0.2-0.2-0.4-0.4-0.6-0.7c0.8-0.9,1.1-2.4,1.1-4.5c0-0.3,0-0.9,0-1.7
				c0-0.7,0-1.3,0-1.7h-1.1V310.4z M398.5,308.8l0.8-0.3c0.1,0.1,0.1,0.3,0.2,0.5c0.2,0.4,0.3,0.8,0.5,1.1l-0.8,0.3
				C399.1,309.9,398.9,309.4,398.5,308.8z M403.7,317.6l0.6,0.6c-0.1,0.1-0.2,0.1-0.4,0.2c-0.8,0.6-1.5,1.1-2.1,1.4
				c-0.2-0.2-0.4-0.5-0.6-0.7C402,318.7,402.9,318.2,403.7,317.6z M401.4,311c0.6-0.6,1.1-1.5,1.5-2.5l0.8,0.2
				c-0.1,0.2-0.2,0.4-0.3,0.7c-0.1,0.1-0.1,0.2-0.1,0.3h5.1v0.8h-5.6c-0.3,0.4-0.5,0.8-0.8,1.1c0,0-0.1-0.1-0.1-0.1
				C401.6,311.2,401.5,311.1,401.4,311z M402.6,311h0.8v0.9h2.8V311h0.8v0.9h1.1v0.8H407v4.1h1.4v0.8h-7.1v-0.8h1.2v-4.1h-1.1v-0.8
				h1.1V311z M403.4,312.7v0.9h2.8v-0.9H403.4z M403.4,314.3v0.9h2.8v-0.9H403.4z M403.4,315.9v0.9h2.8v-0.9H403.4z M405.5,318.2
				l0.5-0.6c0.8,0.5,1.6,1,2.4,1.6l-0.6,0.7C407.1,319.3,406.3,318.7,405.5,318.2z"/>
			<path fill="#898989" d="M420.9,312.5c1.7,0.9,3.3,1.7,4.6,2.5l-0.6,0.9c-1.7-1-3.2-1.9-4.4-2.5v6.3h-1v-9.3h-4.6v-0.9h11.3v0.9
				h-5.7v2.8L420.9,312.5z"/>
			<path fill="#898989" d="M433.9,313.2h5.4c0.5-0.6,1-1.4,1.4-2.3l0.9,0.6c-0.5,0.7-0.9,1.3-1.3,1.7h3.4v0.8h-9v0.8
				c0.1,2.2-0.4,3.9-1.5,5.1c-0.2-0.2-0.4-0.5-0.6-0.8c0.9-0.8,1.3-2.2,1.2-4.3V313.2z M437.7,308.8l0.9-0.3c0,0.1,0.1,0.2,0.1,0.4
				c0.2,0.4,0.3,0.8,0.3,1h5v0.8h-11.2v-0.8h5.2C438,309.5,437.9,309.2,437.7,308.8z M435.3,311.4l0.8-0.5c0.1,0.1,0.2,0.2,0.3,0.4
				c0.5,0.6,0.8,1.1,1,1.3l-0.8,0.6C436.1,312.4,435.7,311.8,435.3,311.4z"/>
			<path fill="#898989" d="M451.1,314.6h4.4v5.2h-0.9v-0.8H452v0.8h-0.9V314.6z M452,315.4v3h2.6v-3H452z M452.2,309.1h7.9v4.2h-7.9
				V309.1z M453.2,309.9v2.6h6.1v-2.6H453.2z M456.9,314.6h4.4v5.2h-0.9v-0.8h-2.6v0.8h-0.9V314.6z M457.8,315.4v3h2.6v-3H457.8z"/>
		</g>
		<g>
			<polygon fill="#FA8629" points="292.6,270 287.6,293.9 317.8,297.6 317.8,295.4 			"/>
			<polygon fill="#EF7028" points="317.8,297.6 317.8,300.6 311,303.9 303.4,303.1 285,307.4 287.6,293.9 			"/>
			<polygon fill="#BD4D1C" points="285,307.4 283.2,317.4 311,303.9 303.4,303.1 			"/>
			<path fill="#EF7028" d="M285,307.4l-17.9,4.9l-1.1,3.6c0,0,3.6,0.8,7.2,1.1c4.6,0.4,10,0.4,10,0.4L285,307.4z"/>
			<path fill="#FACA34" d="M259.9,314.1c0,0,1.6,0.6,2.9,1c1.3,0.4,3.2,0.8,3.2,0.8l1.1-3.6L259.9,314.1z"/>
			<path fill="#FAA226" d="M279.1,271l13.5-0.9l-5,23.8c0,0-5.4-0.2-8.6-0.4c-3.2-0.2-7.1-0.5-7.1-0.5L279.1,271z"/>
			<path fill="#FACA34" d="M279.1,271l-12.3,0.9c0,0-1.7,3-3.9,8.4c-2.8,6.8-4,10.7-4,10.7s3,0.6,6,1c3.2,0.5,7.1,1,7.1,1L279.1,271
				z"/>
			<path fill="#FAE27A" d="M265.1,292.1c-2.9-0.4-6.2-1-6.2-1s-1.4,4.3-2.8,9.2c-1.3,4.9-2.5,10.1-2.5,10.1s1.8,1.2,3,2
				c1.2,0.8,3.2,1.8,3.2,1.8l7.2-1.7c0,0,1.1-4.6,2.4-9.6c1.3-4.9,2.5-9.7,2.5-9.7S268,292.5,265.1,292.1z"/>
			<path fill="#FAA226" d="M272,293c0,0-1.5,5.6-2.2,8.6c-1,3.8-2.6,10.7-2.6,10.7l17.9-4.9l2.6-13.5L272,293z"/>
			<path fill="#FAA226" d="M270.5,316.7c-8-1.4-10.6-2.7-10.6-2.7l-5,1.2l13.7,5.3l19.1,0.1l26.6-16.3l-3.5-0.5l-27.8,13.6
				C283.2,317.4,277.8,317.5,270.5,316.7z"/>
			<path fill="#FA8629" d="M277.9,274.4l-10.2,0.6c0,0-0.9,1.7-2.8,6.4c-2.1,5-2.4,6.8-2.4,6.8s2.2,0.7,4.7,1.2
				c2.5,0.4,5.6,0.7,5.6,0.7L277.9,274.4z"/>
			<path fill="#E65E22" d="M277.9,274.4c0,0,2.9-0.1,5-0.2c2.1-0.1,6.3,0,6.3,0l-3.6,15.9c0,0-3.5,0.2-6.2,0.2
				c-2.7,0-6.6-0.2-6.6-0.2L277.9,274.4z"/>
			
				<ellipse transform="matrix(0.8142 -0.5806 0.5806 0.8142 -120.7662 218.2026)" fill="#FAE27A" cx="280.5" cy="297.8" rx="3.6" ry="3.1"/>
			
				<ellipse transform="matrix(0.945 -0.327 0.327 0.945 -82.4393 101.9415)" fill="#FAFAE6" cx="262" cy="296.1" rx="2.4" ry="2.8"/>
		</g>
	</g>
</g>
<g>
	<rect x="228.9" y="127.4" fill-rule="evenodd" clip-rule="evenodd" fill="#CCCCCC" width="1.4" height="74.7"/>
	<g>
		<g id="形状_2_copy_3_副本_4_46_">
			<g>
				<path fill-rule="evenodd" clip-rule="evenodd" fill="#CCCCCC" d="M11.7,179.5C7.8,187.2,4.3,194,0.2,202h5.5
					c1-1.9,1.6-3.1,2.8-5.4c2.9,0,5,0,7.9,0c-0.6-1.7-1-2.9-1.5-4.3h-4.4c1.3-2.6,2-4,4-7.5c2,5.9,4.1,11.8,6.1,17.2h5
					c-2.8-7.9-5.2-14.7-7.9-22.6H11.7z M27,202h4.8l1-22.6l-4.7,0L27,202z M34.5,202h5l0.6-16.8h-4.8L34.5,202z M35.5,179.4
					l-0.1,3.6c0,0,3.7,0,4.7,0l0.2-3.6C36.1,179.4,36,179.4,35.5,179.4z M66.3,185.3c-0.9-0.3-1.8-0.5-2.7-0.5
					c-0.6,0-1.1,0.1-1.6,0.2c-0.5,0.1-1,0.2-1.4,0.4c-0.4,0.2-0.8,0.4-1.1,0.7c-0.3,0.3-0.6,0.5-0.8,0.8c-0.2,0.3-0.4,0.6-0.7,1
					c-0.2-0.5-0.4-0.9-0.6-1.2c-0.2-0.3-0.4-0.5-0.7-0.7c-0.3-0.2-0.6-0.4-1-0.6c-0.4-0.2-0.8-0.3-1.3-0.4c-0.5-0.1-0.9-0.1-1.4-0.1
					c-0.7,0-1.3,0.1-1.9,0.2c-0.6,0.2-1.2,0.4-1.6,0.7c-0.5,0.3-0.8,0.6-1.1,0.9c-0.3,0.3-0.6,0.7-1,1.3l0.1-2.7h-4.5L42.1,202
					c0,0,3.7,0,4.7,0c0-1.4,0.1-3.4,0.2-5.8c0.1-2.5,0.3-4.1,0.6-5c0.3-0.8,0.7-1.5,1.3-2c0.6-0.5,1.3-0.8,2-0.8
					c0.4,0,0.8,0.1,1.1,0.2c0.3,0.1,0.6,0.4,0.8,0.7c0.2,0.3,0.4,0.6,0.5,1c0.1,0.3,0.1,0.7,0.1,1.2c0,0.9-0.1,2.7-0.2,5.3
					c-0.1,2.6-0.3,4.4-0.3,5.2c1,0,3.8,0,4.7,0l0.1-4.6c0.1-1.6,0.1-3,0.2-4c0.1-1,0.2-1.8,0.4-2.4c0.2-0.6,0.5-1.1,0.8-1.5
					c0.3-0.4,0.7-0.7,1.1-0.9c0.4-0.2,0.9-0.3,1.4-0.3c0.5,0,0.9,0.1,1.3,0.3c0.4,0.2,0.7,0.5,0.9,0.9c0.2,0.4,0.4,1,0.4,1.8
					c0,0.7,0,1.5-0.1,2.4l-0.2,3.8c-0.1,1.6-0.2,3-0.3,4.5c1,0,3.9,0,4.7,0c0-1.3,0.1-3.1,0.2-5.4c0.1-2.3,0.2-4,0.3-5
					c0.1-1,0.1-1.8,0.1-2.3c0-1-0.2-1.8-0.7-2.5C67.8,186.1,67.1,185.6,66.3,185.3z M84.2,185.2c-1-0.3-2.1-0.4-3.3-0.4
					c-1.1,0-2.2,0.1-3.3,0.2c-1.1,0.1-4,0.7-4,0.7l-0.5,3.1c0,0,4.7-1.4,6.7-1.4c0.5,0,1,0.1,1.5,0.2c0.4,0.1,0.8,0.3,1.1,0.6
					c0.3,0.3,0.4,0.7,0.4,1.1c0,0.2,0,0.4-0.1,0.6c-0.1,0.2-0.2,0.4-0.4,0.6c-0.2,0.2-0.4,0.4-0.7,0.5c-0.3,0.1-0.6,0.2-1.1,0.4
					c-0.5,0.1-0.9,0.2-1.3,0.3c-1.6,0.3-2.9,0.7-3.8,1c-1,0.3-1.7,0.7-2.2,1c-0.5,0.4-0.9,0.7-1.2,1.1c-0.3,0.4-0.6,0.8-0.7,1.3
					c-0.2,0.5-0.2,0.9-0.2,1.4c0,0.8,0.2,1.6,0.6,2.5c0.4,0.8,1.1,1.4,2,1.8c0.9,0.4,2,0.6,3.4,0.6c0.4,0,0.8,0,1.3,0
					c0.5,0,1.1-0.1,1.9-0.2c0.3-1.2,0.6-2.2,0.8-2.8c-0.7,0.2-1.2,0.4-1.6,0.4c-0.4,0.1-0.8,0.1-1.1,0.1c-0.6,0-1-0.1-1.4-0.2
					c-0.4-0.1-0.7-0.4-1-0.7c-0.3-0.3-0.4-0.7-0.4-1.2c0-0.3,0.1-0.6,0.2-0.8c0.1-0.2,0.3-0.5,0.5-0.7c0.2-0.2,0.5-0.4,0.9-0.6
					c0.3-0.2,0.7-0.3,1.1-0.5c0.4-0.1,1-0.3,1.7-0.5c0.7-0.2,1.2-0.3,1.5-0.4c0.3-0.1,0.5-0.2,0.7-0.3c0.2-0.1,0.5-0.3,1-0.6
					l-0.6,8.8h4.7c0,0,0.1-5.4,0.3-8c0.2-2.6,0.3-4.2,0.3-4.8c0-1.2-0.3-2-0.9-2.7C86,186,85.2,185.5,84.2,185.2z M113.8,185.3
					c-0.8-0.3-1.8-0.5-2.7-0.5c-0.6,0-1.1,0.1-1.6,0.2c-0.5,0.1-1,0.2-1.4,0.4c-0.4,0.2-0.8,0.4-1.1,0.7c-0.3,0.3-0.6,0.5-0.8,0.8
					c-0.2,0.3-0.4,0.6-0.7,1c-0.2-0.5-0.4-0.9-0.6-1.2c-0.2-0.3-0.4-0.5-0.7-0.7c-0.3-0.2-0.6-0.4-1-0.6c-0.4-0.2-0.8-0.3-1.3-0.4
					c-0.5-0.1-0.9-0.1-1.4-0.1c-0.7,0-1.3,0.1-1.9,0.2c-0.6,0.2-1.2,0.4-1.6,0.7c-0.5,0.3-0.8,0.6-1.1,0.9c-0.3,0.3-0.6,0.7-1,1.3
					l0.1-2.7h-4.5L89.6,202h4.7c0,0,0.1-3.4,0.2-5.8c0.1-2.5,0.3-4.1,0.6-5c0.3-0.8,0.7-1.5,1.3-2c0.6-0.5,1.3-0.8,2-0.8
					c0.4,0,0.8,0.1,1.1,0.2c0.3,0.1,0.6,0.4,0.8,0.7c0.2,0.3,0.4,0.6,0.5,1c0.1,0.3,0.1,0.7,0.1,1.2c0,0.9-0.1,2.7-0.2,5.3
					c-0.1,2.6-0.3,4.4-0.3,5.2c1,0,3.8,0,4.7,0l0.1-4.6c0.1-1.6,0.1-3,0.2-4c0.1-1,0.2-1.8,0.4-2.4c0.2-0.6,0.5-1.1,0.8-1.5
					c0.3-0.4,0.7-0.7,1.1-0.9c0.4-0.2,0.9-0.3,1.3-0.3c0.5,0,0.9,0.1,1.3,0.3c0.4,0.2,0.7,0.5,0.9,0.9c0.2,0.4,0.4,1,0.4,1.8
					c0,0.7,0,1.5-0.1,2.4l-0.2,3.8c-0.1,1.6-0.2,3-0.3,4.5c1,0,3.9,0,4.7,0c0-1.3,0.1-3.1,0.2-5.4c0.1-2.3,0.2-4,0.3-5
					c0.1-1,0.1-1.8,0.1-2.3c0-1-0.2-1.8-0.7-2.5C115.3,186.1,114.6,185.6,113.8,185.3z M131.6,185.2c-1-0.3-2.1-0.4-3.4-0.4
					c-1.1,0-2.2,0.1-3.3,0.2c-1.2,0.1-4,0.7-4,0.7l-0.5,3.1c0,0,4.7-1.4,6.7-1.4c0.5,0,1,0.1,1.5,0.2c0.5,0.1,0.8,0.3,1.1,0.6
					c0.3,0.3,0.4,0.7,0.4,1.1c0,0.2,0,0.4-0.1,0.6c-0.1,0.2-0.2,0.4-0.4,0.6c-0.2,0.2-0.4,0.4-0.7,0.5c-0.3,0.1-0.6,0.2-1.1,0.4
					c-0.5,0.1-0.9,0.2-1.3,0.3c-1.6,0.3-2.9,0.7-3.8,1c-1,0.3-1.7,0.7-2.2,1c-0.5,0.4-0.9,0.7-1.2,1.1c-0.3,0.4-0.6,0.8-0.7,1.3
					c-0.2,0.5-0.3,0.9-0.3,1.4c0,0.8,0.2,1.6,0.6,2.5c0.4,0.8,1.1,1.4,2,1.8c0.9,0.4,2,0.6,3.4,0.6c0.4,0,0.8,0,1.3,0
					c0.5,0,1.1-0.1,1.9-0.2c0.3-1.2,0.6-2.2,0.8-2.8c-0.7,0.2-1.2,0.4-1.6,0.4c-0.4,0.1-0.8,0.1-1.1,0.1c-0.6,0-1-0.1-1.4-0.2
					c-0.4-0.1-0.7-0.4-1-0.7c-0.3-0.3-0.4-0.7-0.4-1.2c0-0.3,0.1-0.6,0.2-0.8c0.1-0.2,0.3-0.5,0.5-0.7c0.2-0.2,0.5-0.4,0.9-0.6
					c0.3-0.2,0.7-0.3,1.1-0.5c0.4-0.1,1-0.3,1.7-0.5c0.7-0.2,1.2-0.3,1.5-0.4c0.3-0.1,0.5-0.2,0.7-0.3c0.2-0.1,0.5-0.3,1-0.6
					l-0.6,8.8h4.7c0,0,0.1-5.4,0.3-8c0.2-2.6,0.3-4.2,0.3-4.8c0-1.2-0.3-2-0.9-2.7C133.4,186,132.6,185.5,131.6,185.2z M136.9,197.6
					c-0.1,2.2-0.1,3.7-0.2,4.4c1.6,0,4.6,0,4.6,0s0.2-3.6,0.2-4.4C140.4,197.6,136.9,197.6,136.9,197.6z M149.2,189.8
					c0.5-0.5,1.1-0.9,1.7-1.2c0.7-0.3,1.4-0.4,2.1-0.4c1.2,0,2.7,0.3,4.3,0.8l-0.2-3.6c-1-0.3-1.9-0.4-2.7-0.5
					c-0.8-0.1-1.5-0.1-2.2-0.1c-1.3,0-2.5,0.1-3.5,0.4c-1.1,0.3-2,0.8-2.9,1.7c-0.9,0.8-1.5,1.9-2,3.1c-0.5,1.3-0.7,2.6-0.7,4
					c0,1,0.1,2.1,0.4,3.1c0.3,1,0.7,1.8,1.2,2.5c0.5,0.7,1.2,1.3,1.9,1.7c0.7,0.4,1.5,0.7,2.3,0.9c0.8,0.2,1.7,0.2,2.6,0.2
					c1.5,0,3.1-0.2,4.7-0.5c0.1-0.8,0.2-1.6,0.4-2.1c0.1-0.6,0.2-1.1,0.2-1.5c-0.8,0.3-1.5,0.5-2.3,0.6c-0.7,0.1-1.3,0.2-1.8,0.2
					c-1,0-1.9-0.2-2.7-0.6c-0.8-0.4-1.4-1-1.7-1.8c-0.3-0.8-0.5-1.7-0.5-2.7c0-0.8,0.1-1.5,0.3-2.2
					C148.4,191,148.8,190.3,149.2,189.8z M174.5,187.1c-0.8-0.7-1.8-1.3-3-1.7c-1.2-0.4-2.4-0.6-3.7-0.6c-1.4,0-2.7,0.2-4,0.7
					c-1.3,0.5-2.3,1.1-3.2,2c-0.8,0.9-1.4,1.8-1.8,2.9c-0.4,1.1-0.6,2.3-0.6,3.5c0,1.2,0.2,2.3,0.6,3.4c0.4,1.1,1,2,1.9,2.8
					c0.8,0.8,1.8,1.3,3,1.7c1.2,0.4,2.4,0.6,3.7,0.6c1.4,0,2.7-0.2,3.9-0.6c1.2-0.4,2.2-1.1,3.1-1.9c0.8-0.9,1.4-1.9,1.9-3
					c0.4-1.2,0.6-2.4,0.6-3.6c0-1.2-0.2-2.3-0.6-3.4C175.9,188.7,175.3,187.8,174.5,187.1z M171.7,196.3c-0.4,0.9-0.9,1.6-1.7,2.1
					c-0.7,0.5-1.6,0.7-2.6,0.7c-0.9,0-1.8-0.2-2.5-0.7c-0.7-0.5-1.2-1.1-1.5-1.8c-0.3-0.8-0.5-1.6-0.5-2.6c0-1.1,0.2-2.1,0.6-3
					c0.4-0.9,0.9-1.6,1.7-2.1c0.8-0.5,1.6-0.7,2.6-0.7c1,0,1.8,0.2,2.5,0.7c0.7,0.4,1.2,1.1,1.4,1.8c0.3,0.8,0.4,1.6,0.4,2.5
					C172.2,194.3,172.1,195.3,171.7,196.3z M204.2,186.8c-0.5-0.7-1.2-1.2-2-1.5c-0.9-0.3-1.8-0.5-2.7-0.5c-0.6,0-1.1,0.1-1.6,0.2
					c-0.5,0.1-1,0.2-1.4,0.4c-0.4,0.2-0.8,0.4-1.1,0.7c-0.3,0.3-0.6,0.5-0.8,0.8c-0.2,0.3-0.4,0.6-0.7,1c-0.2-0.5-0.4-0.9-0.6-1.2
					c-0.2-0.3-0.4-0.5-0.7-0.7c-0.3-0.2-0.6-0.4-1-0.6c-0.4-0.2-0.8-0.3-1.3-0.4c-0.5-0.1-0.9-0.1-1.4-0.1c-0.7,0-1.3,0.1-1.9,0.2
					c-0.6,0.2-1.2,0.4-1.6,0.7c-0.5,0.3-0.8,0.6-1.1,0.9c-0.3,0.3-0.6,0.7-1,1.3l0.1-2.7c-0.8,0-3.5,0-4.5,0
					c0,1.9-0.6,14.9-0.7,16.8c1,0,3.7,0,4.7,0c0-1.4,0.1-3.4,0.2-5.8c0.1-2.5,0.3-4.1,0.6-5c0.3-0.8,0.7-1.5,1.3-2
					c0.6-0.5,1.3-0.8,2-0.8c0.4,0,0.8,0.1,1.1,0.2c0.3,0.1,0.6,0.4,0.8,0.7c0.2,0.3,0.4,0.6,0.5,1c0.1,0.3,0.1,0.7,0.1,1.2
					c0,0.9-0.1,2.7-0.2,5.3c-0.1,2.6-0.3,4.4-0.3,5.2c1,0,3.8,0,4.7,0l0.1-4.6c0.1-1.6,0.1-3,0.2-4c0.1-1,0.2-1.8,0.4-2.4
					c0.2-0.6,0.5-1.1,0.8-1.5c0.3-0.4,0.7-0.7,1.1-0.9c0.4-0.2,0.9-0.3,1.4-0.3c0.5,0,0.9,0.1,1.3,0.3c0.4,0.2,0.7,0.5,0.9,0.9
					c0.3,0.4,0.4,1,0.4,1.8c0,0.7,0,1.5-0.1,2.4l-0.2,3.8c-0.1,1.6-0.2,3-0.3,4.5c1,0,3.9,0,4.7,0c0-1.3,0.1-3.1,0.2-5.4
					c0.1-2.3,0.2-4,0.3-5c0.1-1,0.1-1.8,0.1-2.3C204.9,188.3,204.7,187.4,204.2,186.8z"/>
			</g>
		</g>
		<g id="形状_2_copy_3_副本_5_44_">
			<g>
				<path fill-rule="evenodd" clip-rule="evenodd" fill="#FF6600" d="M20,132.2c7,0,14.1,0,21.1,0c0,10.5,0,21.4,0,31.1
					c0,0.6-0.8,1.5-1.6,1.6c-1.1,0-1.6,0-3,0v5.1c1.6,0,3,0,4.6,0c4.1,0,6.8-2,6.8-5.4c0-8.1,0-24.2,0-32.4h2.4v-4.9H20V132.2z
					 M145.3,163.6c2.3,0,1.4,0,3.6,0c1.3,0,3.1-1.1,3.1-3.2c0-5.3,0-9.5,0-14.9c-1,0-2.1,0-3,0c0-4.1,0-12.5,0-15.5
					c0-1.2-1.2-2.6-2.8-2.6h-22.1v4.9h17c0,4.4,0,8.9,0,13.3c-4.1,0-4.7,0-8.2,0c-0.5,0-1-0.5-1-0.9c0-2.2,0-5.8,0-8.7
					c0-0.7-0.7-1.5-1.8-1.5h-5v11.8c0,2.3,2,4.2,4.2,4.2c0,0,8.7,0,15.9,0v4.4h-17.6c-1.9,0-4.9,1.8-4.9,4.9
					c6.1,0,15.9-0.1,22.5-0.1C145.3,160.8,145.3,162.1,145.3,163.6z M37.9,156.2c0-5.6,0-13.4,0-21H20.3v26.8c5.1,0,11.6,0,11.6,0
					C36.4,161.9,37.9,159.4,37.9,156.2z M30.4,157.1c-1.3,0-2.6,0-4.4,0v-16.7c1.9,0,4.1,0,6,0c0,5.1,0,10.7,0,15.1
					C31.9,156.4,31.4,157.1,30.4,157.1z M0.2,128.6c0,9.6,0,22.2,0,41.4h6.5c0-12.1,0-25.3,0-37.8c1.5,0,3.3,0,4.9,0
					c0,7.3,0,13.8,0,20.5c0,2.8-2.5,3.8-2.5,3.8v5.4c4.6,0,8.7-4.7,8.7-9c0-7.8,0-17.7,0-25.5c-5.9,0-10.4,0-16.2,0
					C0.2,127.4,0.2,128.6,0.2,128.6z M202.7,145.5c0-4.1,0-12.5,0-15.5c0-1.2-1.2-2.6-2.8-2.6h-22.1v4.9c5.7,0,11.4,0,17,0v13.3
					c-4.1,0-4.7,0-8.2,0c-0.5,0-1-0.5-1-0.9c0-2.2,0-5.8,0-8.7c0-0.7-0.7-1.4-1.8-1.4c-1.4,0-3.4,0-5,0v11.7c0,2.3,2,4.2,4.2,4.2
					c0,0,8.7,0,15.9,0v4.4h-17.3c-1.9,0-5,1.7-5,4.8c6.1,0,15.8,0,22.4,0v4.5c0,0.8-0.6,1.1-1.5,1.1h-2.6c0,2.2,0,3.4,0,4.8h3.9
					c1.2,0,0.9,0,2.1,0c3.3,0,4.7-2.3,4.7-4.2c0-6.1,0-14.2,0-20.3C204.6,145.5,203.6,145.5,202.7,145.5z M171.3,161.9
					c2.4-2.6,3.7-5.7,4-11.5c0-6.4,0-12.5,0-18.8c0-0.5-0.7-1.2-1.3-1.2c-2.5,0-5.6,0-8.3,0v-2.9h-6.5c0,1,0,2,0,2.9
					c-0.7,0-1.5,0-2.2,0v4.9h2.2v15.2c0,5.9,1.9,8.8,4.3,11.5c-2.9,2-5.8,3.2-9.7,3.2c-0.5,0-1.1,0-1.7,0c-6.1,0-13.5,0-20,0
					c-6.1,0-12-1.1-14.2-3.8c2.1-2.8,3.2-5.1,3.8-11c0-5.9,0-10.9,0-18.4c-0.1-0.8-0.8-1.5-1.6-1.6c-2.6,0-5.1,0-8.3,0v-3
					c-2.7,0-3.7,0-6.3,0v3c-0.7,0-1.2,0-2.2,0v4.9c1,0,1.5,0,2.2,0c0,5,0,10.6,0,15.2c0.5,5.9,2.4,7.8,4.6,11.3
					c-3.3,2.3-7.3,3.3-12,3.6c-5.6,0-10.6,0-17.6,0c0-1.2,0-2.9,0-3.8h17.6v-5.1H80.6c0-1.2,0-2.5,0-3.8c5.1,0,11.7,0,13.3,0
					c0,0,4.3,0,4.3-4.7c0.1-4.9,0-13.8,0-20.4c-13.9,0-28.1,0-42,0c-0.7,0-1.3,0.7-1.3,1.3c0,1,0,16.6,0,23.9c5.9,0,11.7,0,17.6,0
					v3.8H54.9c0,1.6,0,3.4,0,5.1h17.6c0,1.3,0,2.5,0,3.8H51.9c0,1.4,0,3.3,0,4.8c15.5,0,34.6,0.1,49.6,0c4,0,9.1-2.1,12.7-4.2
					c4.6,3.5,9.6,4.2,17.9,4.2c2.5,0,5.3,0,8.4,0c4.3,0,8.2,0,11.6,0c7,0,11.4-1.5,15.7-4c3.9,2.4,7.7,3.8,13.8,4v0h9.3v-4.8h-9.3
					C177.4,164.8,174,164.2,171.3,161.9z M72.4,147.6H61.6v-5.1h10.8V147.6z M72.5,137.4H61.7v-5.1c3.6,0,7.2,0,10.8,0V137.4z
					 M80.6,132.2h10.8v5.1H80.6V132.2z M80.6,142.5c3.6,0,7.2,0,10.8,0c0,2.1,0,3.7,0,5.1H80.6C80.6,146.3,80.6,144.1,80.6,142.5z
					 M115.6,150.4c-0.2,3.4-0.8,4.2-1.6,6.4c-1-2.1-1.9-3-2.1-6.4c0-4.4,0-10.5,0-15.2h3.7V150.4z M169.2,150.4
					c-0.1,3.1-0.9,4.7-1.7,6.4c-1-1.7-1.9-3.5-1.9-6.4c0-4.7,0-10.4,0-15.2h3.6C169.2,140.1,169.2,145.7,169.2,150.4z"/>
			</g>
		</g>
	</g>
	<g>
		<rect x="326.6" y="142.6" fill="#333333" width="8.8" height="3"/>
		<polygon fill="#333333" points="325.9,139.7 322.6,148.6 326.7,148.6 330,139.7 		"/>
		<rect x="323.2" y="149.1" fill="#333333" width="11" height="2.9"/>
		<rect x="322.5" y="156.6" fill="#333333" width="12.4" height="2.9"/>
		<rect x="326.2" y="151.6" fill="#333333" width="4.3" height="15.7"/>
		<polygon fill="#333333" points="334.5,164 334.5,167.3 326.2,170.4 326.2,166.8 		"/>
		<rect x="342.3" y="139.7" fill="#333333" width="4.3" height="14.7"/>
		<rect x="346.3" y="145.2" fill="#333333" width="8.4" height="2.9"/>
		<path fill="#333333" d="M353.4,154.4h-17.1v2.4v0.5V168v0.4v2.1h12.9h0.6c2,0,3.6-1.6,3.6-3.6c0,0,0-9.5,0-9.5h0V154.4z
			 M349.3,166.7v1.2h-8.8v-10.7h8.8V166.7z"/>
		<rect x="358.7" y="140.9" fill="#333333" width="31" height="3.2"/>
		<polygon fill="#333333" points="368.8,144.1 356.9,161.7 361.8,161.7 373.7,144.1 		"/>
		<rect x="368.1" y="151.4" fill="#333333" width="15.9" height="3.1"/>
		<rect x="364.1" y="152.1" fill="#333333" width="4.3" height="14.9"/>
		<rect x="364.1" y="166.8" fill="#333333" width="18.8" height="3.1"/>
		<rect x="382.8" y="151.4" fill="#333333" width="4.3" height="14.2"/>
		<path fill="#333333" d="M383,161.6c-0.1,0-0.1,0-0.2,0v5.2H379c0.5,1.8,2.1,3.1,4,3.1c2.3,0,4.1-1.8,4.1-4.1
			C387.1,163.5,385.3,161.6,383,161.6z"/>
		<rect x="394.4" y="139.7" fill="#333333" width="27.7" height="2.9"/>
		<rect x="394.4" y="142.1" fill="#333333" width="4.3" height="18.7"/>
		<rect x="398.4" y="145.4" fill="#333333" width="19.5" height="2.7"/>
		<path fill="#333333" d="M422.1,142h-1.2c-0.6-0.5-1.4-0.8-2.2-0.8v0.8h-0.8v2.2v0.2v3.7h0.8c1.9,0,3.4-1.5,3.4-3.4
			c0-0.1,0-0.2,0-0.3h0V142z"/>
		<rect x="398.5" y="151.1" fill="#333333" width="23.8" height="2.5"/>
		<rect x="398.6" y="157" fill="#333333" width="23.7" height="2.6"/>
		<rect x="403.7" y="147.8" fill="#333333" width="4.2" height="10.3"/>
		<rect x="412.7" y="147.5" fill="#333333" width="4.2" height="10.3"/>
		<rect x="400.9" y="159.5" fill="#333333" width="4.2" height="8"/>
		<polygon fill="#333333" points="410.2,165.3 400.9,167 400.9,170.4 410.2,168.2 		"/>
		<polygon fill="#333333" points="408.1,160.1 413.3,160.1 422.2,170.4 417.2,170.4 		"/>
		<polygon fill="#333333" points="418.1,160.1 422.7,160.1 418.1,166 415.6,163.2 		"/>
		<polyline fill="#333333" points="394.4,160.8 392.5,169.7 396.8,169.7 398.7,160.8 		"/>
		<rect x="444.4" y="139.7" fill="#333333" width="5.1" height="4.4"/>
		<rect x="436" y="143.7" fill="#333333" width="18.5" height="3"/>
		<rect x="435.4" y="167.7" fill="#333333" width="23.1" height="2.8"/>
		<polygon fill="#333333" points="438.1,149.2 442.5,149.2 445.3,167.7 441,167.7 		"/>
		<polygon fill="#333333" points="450.8,149.2 455.2,149.2 452.4,167.7 448,167.7 		"/>
		<rect x="430.1" y="148.2" fill="#333333" width="4.2" height="22.3"/>
		<polygon fill="#333333" points="432.4,139.7 425.4,153.8 429.9,153.8 436.9,139.7 		"/>
		<path fill="#333333" d="M451.6,143.7c0,1.7,1.4,3,3,3c1.7,0,3-1.3,3-3H451.6z"/>
		<g>
			<path fill="#898989" d="M326,186.6c0,1.2-0.4,1.7-1.2,1.8c-0.3,0-0.7,0-1.2,0c0,0,0-0.1,0-0.1c0-0.4-0.1-0.6-0.1-0.8
				c0.1,0,0.2,0,0.4,0c0.3,0,0.5,0,0.6,0c0.4,0,0.6-0.3,0.6-1c0-0.9-0.4-1.8-1.2-2.7c0.3-0.7,0.6-1.8,1-3.3h-1.5v9.9h-0.9v-10.7h3.3
				v0.8c-0.5,1.7-0.9,2.8-1,3.2C325.6,184.6,326,185.6,326,186.6z M326.4,179.8h7.1v0.9h-1.1v7.8c0.1,1.2-0.5,1.7-1.6,1.7
				c-0.3,0-0.9,0-1.7,0c0-0.2-0.1-0.4-0.1-0.6c-0.1-0.2-0.1-0.3-0.1-0.4c0.4,0,1,0,1.7,0c0.6,0,0.9-0.2,0.9-0.8v-7.8h-5.2V179.8z
				 M326.7,182.2h3.5v5.1h-3.5V182.2z M327.6,183v3.4h1.9V183H327.6z"/>
			<path fill="#898989" d="M340.6,186.6h4.6v-1.3H341v-5.7h9.2v5.7h-4.2v1.3h4.6v0.8h-4.6v1.5h5.4v0.8h-11.6V189h5.3v-1.5h-4.6
				V186.6z M341.9,180.3v1.7h3.3v-1.7H341.9z M341.9,182.8v1.7h3.3v-1.7H341.9z M349.4,180.3h-3.3v1.7h3.3V180.3z M346.1,182.8v1.7
				h3.3v-1.7H346.1z"/>
			<path fill="#898989" d="M362.5,188.5l-0.7,0.6c-0.2-0.1-0.5-0.4-0.8-0.8c-0.2-0.2-0.3-0.3-0.4-0.4c-0.4,0.7-1.2,1.4-2.2,2.3
				c-0.2-0.3-0.3-0.5-0.5-0.8c0.8-0.6,1.5-1.3,2.1-2.2c-0.2-0.2-0.5-0.4-0.8-0.8c-0.4-0.4-0.6-0.6-0.8-0.8c0.2-0.7,0.4-1.8,0.8-3.5
				H358v-0.8h1.2c0.1-0.4,0.2-1.1,0.3-2c0-0.2,0-0.4,0-0.5l0.9,0.1c0,0.3-0.1,0.8-0.2,1.4c-0.1,0.4-0.1,0.7-0.1,0.9h2.1v0.8
				c-0.2,2.1-0.6,3.7-1.2,4.8C361.5,187.6,362,188,362.5,188.5z M361.3,182.3h-1.4c-0.2,1.3-0.4,2.3-0.7,3.2
				c0.2,0.1,0.4,0.4,0.8,0.7c0.2,0.2,0.3,0.3,0.4,0.3C360.8,185.5,361.1,184.1,361.3,182.3z M362.3,186.7h5.1v0.9h-5.1V186.7z
				 M364.3,181l-0.3,3.3h2.9l0.4-4h-4.8v-0.8h5.8l-0.5,4.9h1.2c-0.1,2-0.1,3.4-0.2,4.1c-0.1,1.1-0.7,1.7-2,1.7c-0.8,0-1.4,0-1.9,0
				c0-0.2-0.1-0.4-0.1-0.7c0-0.2,0-0.3,0-0.3c0.2,0,0.9,0,2,0c0.7,0,1.1-0.3,1.1-1c0.1-0.6,0.1-1.7,0.2-3.1h-5l0.4-4.1H364.3z"/>
			<path fill="#898989" d="M380.4,188.5l-0.7,0.6c-0.2-0.1-0.5-0.4-0.8-0.8c-0.2-0.2-0.3-0.3-0.4-0.4c-0.4,0.7-1.2,1.4-2.2,2.3
				c-0.2-0.3-0.3-0.5-0.5-0.8c0.8-0.6,1.5-1.3,2.1-2.2c-0.2-0.2-0.5-0.4-0.8-0.8c-0.4-0.4-0.6-0.6-0.8-0.8c0.2-0.7,0.4-1.8,0.8-3.5
				h-1.1v-0.8h1.2c0.1-0.4,0.2-1.1,0.3-2c0-0.2,0-0.4,0-0.5l0.9,0.1c0,0.3-0.1,0.8-0.2,1.4c-0.1,0.4-0.1,0.7-0.1,0.9h2.1v0.8
				c-0.2,2.1-0.6,3.7-1.2,4.8C379.4,187.6,379.9,188,380.4,188.5z M379.2,182.3h-1.4c-0.2,1.3-0.4,2.3-0.7,3.2
				c0.2,0.1,0.4,0.4,0.8,0.7c0.2,0.2,0.3,0.3,0.4,0.3C378.8,185.5,379.1,184.1,379.2,182.3z M380.2,186.7h5.1v0.9h-5.1V186.7z
				 M382.2,181l-0.3,3.3h2.9l0.4-4h-4.8v-0.8h5.8l-0.5,4.9h1.2c-0.1,2-0.1,3.4-0.2,4.1c-0.1,1.1-0.7,1.7-2,1.7c-0.8,0-1.4,0-1.9,0
				c0-0.2-0.1-0.4-0.1-0.7c0-0.2,0-0.3,0-0.3c0.2,0,0.9,0,2,0c0.7,0,1.1-0.3,1.1-1c0.1-0.6,0.1-1.7,0.2-3.1h-5l0.4-4.1H382.2z"/>
			<path fill="#898989" d="M393.8,180.8h4.1v0.8h-2.2c0,0.5,0,1.1,0,1.7h2c0,2.1,0,3.8-0.1,5c0,1.2-0.5,1.7-1.4,1.7
				c-0.5,0-0.8,0-0.9,0c0-0.2-0.1-0.5-0.1-0.9c0.4,0,0.8,0,1,0c0.5,0,0.7-0.3,0.7-0.9c0.1-0.7,0.1-2.1,0.1-4.2h-1.2
				c0,0.3,0,0.6,0,0.8c0,2.4-0.5,4.2-1.4,5.3c-0.2-0.2-0.4-0.4-0.6-0.7c0.8-0.9,1.2-2.4,1.2-4.6c0-0.3,0-0.9,0-1.7
				c0-0.7,0-1.3,0-1.7h-1.1V180.8z M395.2,179.2l0.8-0.3c0.1,0.1,0.1,0.3,0.2,0.5c0.2,0.4,0.4,0.8,0.5,1.1l-0.8,0.3
				C395.7,180.3,395.5,179.8,395.2,179.2z M400.3,188.1l0.6,0.6c-0.1,0.1-0.2,0.1-0.4,0.2c-0.8,0.6-1.6,1.1-2.2,1.4
				c-0.2-0.2-0.4-0.5-0.6-0.7C398.7,189.2,399.5,188.7,400.3,188.1z M398,181.4c0.6-0.6,1.1-1.5,1.5-2.5l0.8,0.2
				c-0.1,0.2-0.2,0.4-0.3,0.7c-0.1,0.1-0.1,0.2-0.1,0.3h5.2v0.8h-5.7c-0.3,0.4-0.5,0.8-0.8,1.2c0,0-0.1-0.1-0.1-0.1
				C398.3,181.7,398.1,181.5,398,181.4z M399.3,181.4h0.8v0.9h2.8v-0.9h0.8v0.9h1.2v0.8h-1.2v4.2h1.4v0.8H398v-0.8h1.2v-4.2h-1.2
				v-0.8h1.2V181.4z M400.1,183.1v0.9h2.8v-0.9H400.1z M400.1,184.7v0.9h2.8v-0.9H400.1z M400.1,186.4v0.9h2.8v-0.9H400.1z
				 M402.1,188.7l0.5-0.6c0.8,0.5,1.6,1,2.4,1.6l-0.6,0.7C403.7,189.7,403,189.2,402.1,188.7z"/>
			<path fill="#898989" d="M417.7,182.9c1.8,0.9,3.3,1.8,4.7,2.5l-0.6,0.9c-1.7-1.1-3.2-1.9-4.4-2.5v6.4h-1v-9.4h-4.7v-0.9H423v0.9
				h-5.7v2.8L417.7,182.9z"/>
			<path fill="#898989" d="M430.7,183.6h5.5c0.5-0.6,1-1.4,1.4-2.3l0.9,0.6c-0.5,0.7-0.9,1.3-1.3,1.7h3.5v0.8h-9v0.8
				c0.1,2.2-0.4,3.9-1.5,5.1c-0.2-0.2-0.4-0.5-0.6-0.8c0.9-0.8,1.3-2.2,1.2-4.3V183.6z M434.6,179.2l0.9-0.3c0,0.1,0.1,0.2,0.1,0.4
				c0.2,0.4,0.3,0.8,0.3,1h5v0.8h-11.2v-0.8h5.3C434.9,179.9,434.7,179.6,434.6,179.2z M432.1,181.8l0.8-0.5
				c0.1,0.1,0.2,0.2,0.3,0.4c0.5,0.6,0.8,1.1,1,1.3l-0.8,0.6C432.9,182.8,432.5,182.2,432.1,181.8z"/>
			<path fill="#898989" d="M448,185h4.4v5.3h-0.9v-0.8h-2.6v0.8H448V185z M448.9,185.8v3h2.6v-3H448.9z M449.2,179.5h8v4.2h-8V179.5
				z M450.1,180.3v2.6h6.1v-2.6H450.1z M453.9,185h4.4v5.3h-0.9v-0.8h-2.6v0.8h-0.9V185z M454.8,185.8v3h2.6v-3H454.8z"/>
		</g>
		<g>
			<g>
				<polygon fill="#BCD0FF" points="262.2,141 283.7,144 305,140.8 283.6,139.4 				"/>
				<polygon fill="#6491FF" points="262.2,141 253.2,147.2 258.8,155.9 261.1,149.2 				"/>
				<polygon fill="#4077FF" points="261.1,149.2 273.2,157.8 283.6,184.8 258.8,155.9 				"/>
				<polygon fill="#95B4FF" points="275.3,142.8 261.1,149.2 262.2,141 				"/>
				<polygon fill="#BCD0FF" points="273.2,157.8 275.3,142.8 261.1,149.2 				"/>
				<polygon fill="#95B4FF" points="275.3,142.8 283.6,150.1 273.2,157.8 				"/>
				<polygon fill="#95B4FF" points="275.3,142.8 283.7,144 292,142.7 283.6,150.1 				"/>
				<polygon fill="#6491FF" points="283.6,150.1 273.2,157.8 283.6,184.8 				"/>
				<polygon fill="#BCD0FF" points="292,142.7 283.6,150.1 294.1,157.6 				"/>
				<polygon fill="#4F82FF" points="283.6,150.1 294.1,157.6 283.6,184.8 				"/>
				<polygon fill="#95B4FF" points="292,142.7 306.2,149 294.1,157.6 				"/>
				<polygon fill="#95B4FF" points="306.2,149 308.4,156 283.6,184.8 294.1,157.6 				"/>
				<polygon fill="#BCD0FF" points="305,140.8 306.2,149 308.4,156 314.1,147.1 				"/>
			</g>
			<polygon fill="#7AA1FF" points="305,140.8 306.2,149 292,142.7 			"/>
		</g>
	</g>
</g>
</svg>
