<?xml version="1.0" encoding="utf-8"?>
<!-- Generator: Adobe Illustrator 17.1.0, SVG Export Plug-In . SVG Version: 6.00 Build 0)  -->
<!DOCTYPE svg PUBLIC "-//W3C//DTD SVG 1.1//EN" "http://www.w3.org/Graphics/SVG/1.1/DTD/svg11.dtd">
<svg version="1.1" id="图层_1" xmlns="http://www.w3.org/2000/svg" xmlns:xlink="http://www.w3.org/1999/xlink" x="0px" y="0px"
	 viewBox="0 0 986.6 261.5" enable-background="new 0 0 986.6 261.5" xml:space="preserve">
<rect x="0.3" y="29.2" fill="#E5E5E5" width="945.9" height="187.2"/>
<rect x="34.3" y="63.2" fill="#FFFFFF" width="877.1" height="119.1"/>
<rect x="0.3" y="29.2" fill="#CBCBCB" width="34" height="34"/>
<rect x="0.3" y="182.4" fill="#CBCBCB" width="34" height="34"/>
<rect x="911.4" y="29.4" fill="#CBCBCB" width="34" height="34"/>
<rect x="911.4" y="182.4" fill="#CBCBCB" width="34" height="34"/>
<polyline fill="none" stroke="#211816" stroke-width="0.25" points="0.3,23 0.3,12.6 34.3,12.6 34.3,22.7 "/>
<g>
	<path d="M11.4,1.9c0.1-0.4,0.3-0.7,0.5-1c0.2-0.3,0.5-0.5,0.9-0.6c0.4-0.2,0.8-0.2,1.2-0.2c0.4,0,0.7,0.1,1,0.2
		c0.3,0.1,0.6,0.3,0.8,0.5c0.2,0.2,0.4,0.5,0.6,0.8c0.1,0.3,0.2,0.7,0.2,1.1c0,0.4-0.1,0.7-0.2,1c-0.1,0.3-0.3,0.5-0.5,0.8
		c-0.2,0.2-0.4,0.4-0.7,0.6s-0.5,0.4-0.8,0.5c-0.3,0.2-0.5,0.3-0.8,0.5c-0.3,0.2-0.5,0.3-0.7,0.5c-0.2,0.2-0.4,0.4-0.6,0.6
		c-0.2,0.2-0.3,0.4-0.3,0.7h4.4v0.9h-5.6c0-0.5,0.1-0.9,0.3-1.3c0.1-0.4,0.3-0.7,0.5-0.9c0.2-0.3,0.5-0.5,0.7-0.7
		c0.3-0.2,0.6-0.4,0.9-0.6c0.4-0.2,0.7-0.4,0.9-0.6c0.3-0.2,0.5-0.4,0.7-0.6c0.2-0.2,0.3-0.4,0.4-0.6s0.1-0.5,0.1-0.8
		c0-0.2,0-0.4-0.1-0.6c-0.1-0.2-0.2-0.3-0.4-0.5c-0.1-0.1-0.3-0.2-0.5-0.3S14.2,1,14,1c-0.3,0-0.5,0.1-0.8,0.2
		c-0.2,0.1-0.4,0.3-0.5,0.5c-0.1,0.2-0.2,0.4-0.3,0.7s-0.1,0.5-0.1,0.8h-1C11.3,2.7,11.3,2.3,11.4,1.9z"/>
	<path d="M23,8.8c-0.3,0-0.5-0.1-0.6-0.2c-0.2-0.1-0.2-0.4-0.2-0.7c-0.3,0.3-0.6,0.6-1,0.7c-0.4,0.1-0.8,0.2-1.2,0.2
		c-0.3,0-0.5,0-0.8-0.1c-0.2-0.1-0.5-0.2-0.7-0.3c-0.2-0.1-0.3-0.3-0.4-0.5c-0.1-0.2-0.2-0.5-0.2-0.8c0-0.4,0.1-0.6,0.2-0.9
		s0.3-0.4,0.5-0.5s0.4-0.2,0.7-0.3s0.5-0.1,0.8-0.2C20.3,5.1,20.5,5,20.8,5s0.5-0.1,0.7-0.1s0.3-0.1,0.5-0.2
		c0.1-0.1,0.2-0.2,0.2-0.4c0-0.2,0-0.4-0.1-0.5s-0.2-0.2-0.3-0.3c-0.1-0.1-0.3-0.1-0.4-0.1c-0.2,0-0.3,0-0.5,0
		c-0.4,0-0.8,0.1-1.1,0.2s-0.4,0.5-0.5,0.9h-1c0-0.4,0.1-0.7,0.2-1c0.1-0.3,0.3-0.5,0.6-0.6c0.2-0.2,0.5-0.3,0.8-0.4
		c0.3-0.1,0.6-0.1,1-0.1c0.3,0,0.6,0,0.8,0.1c0.3,0,0.5,0.1,0.8,0.2s0.4,0.3,0.5,0.5C23,3.3,23.1,3.6,23.1,4v3.2c0,0.2,0,0.4,0,0.5
		s0.1,0.2,0.3,0.2c0.1,0,0.2,0,0.3-0.1v0.8C23.5,8.7,23.3,8.8,23,8.8z M21.6,5.6c-0.2,0-0.4,0.1-0.7,0.1c-0.2,0-0.5,0.1-0.7,0.1
		c-0.2,0-0.4,0.1-0.6,0.2c-0.2,0.1-0.3,0.2-0.5,0.3C19,6.5,19,6.7,19,7c0,0.2,0,0.3,0.1,0.4c0.1,0.1,0.2,0.2,0.3,0.3
		s0.2,0.1,0.4,0.2c0.1,0,0.3,0,0.5,0c0.3,0,0.6,0,0.9-0.1c0.2-0.1,0.4-0.2,0.6-0.3c0.2-0.1,0.3-0.3,0.3-0.5s0.1-0.3,0.1-0.5v-1
		C21.9,5.5,21.8,5.6,21.6,5.6z"/>
</g>
<polyline fill="none" stroke="#211816" stroke-width="0.25" points="360.3,22.7 360.3,12.6 397.1,12.6 397.1,22.7 "/>
<polyline fill="none" stroke="#211816" stroke-width="0.25" points="399.3,22.7 399.3,12.6 430.6,12.6 430.6,22.7 "/>
<g>
	<path d="M364,1.9c0.1-0.4,0.3-0.7,0.5-1c0.2-0.3,0.5-0.5,0.9-0.6c0.4-0.2,0.8-0.2,1.2-0.2c0.4,0,0.7,0.1,1,0.2
		c0.3,0.1,0.6,0.3,0.8,0.5c0.2,0.2,0.4,0.5,0.6,0.8c0.1,0.3,0.2,0.7,0.2,1.1c0,0.4-0.1,0.7-0.2,1c-0.1,0.3-0.3,0.5-0.5,0.8
		c-0.2,0.2-0.4,0.4-0.7,0.6s-0.5,0.4-0.8,0.5c-0.3,0.2-0.5,0.3-0.8,0.5c-0.3,0.2-0.5,0.3-0.7,0.5c-0.2,0.2-0.4,0.4-0.6,0.6
		c-0.2,0.2-0.3,0.4-0.3,0.7h4.4v0.9h-5.6c0-0.5,0.1-0.9,0.3-1.3c0.1-0.4,0.3-0.7,0.5-0.9c0.2-0.3,0.5-0.5,0.7-0.7
		c0.3-0.2,0.6-0.4,0.9-0.6c0.4-0.2,0.7-0.4,0.9-0.6c0.3-0.2,0.5-0.4,0.7-0.6c0.2-0.2,0.3-0.4,0.4-0.6s0.1-0.5,0.1-0.8
		c0-0.2,0-0.4-0.1-0.6c-0.1-0.2-0.2-0.3-0.4-0.5c-0.1-0.1-0.3-0.2-0.5-0.3S366.8,1,366.5,1c-0.3,0-0.5,0.1-0.8,0.2
		c-0.2,0.1-0.4,0.3-0.5,0.5c-0.1,0.2-0.2,0.4-0.3,0.7s-0.1,0.5-0.1,0.8h-1C363.8,2.7,363.9,2.3,364,1.9z"/>
	<path d="M372.3,7.3v1.3H371V7.3H372.3z"/>
	<path d="M376.6,8.6V2.5h-2.2V1.7c0.3,0,0.6,0,0.8-0.1c0.3,0,0.5-0.1,0.7-0.2s0.4-0.3,0.6-0.5c0.2-0.2,0.3-0.5,0.3-0.8h0.8v8.5
		H376.6z"/>
	<path d="M384.9,2.7c-0.4,0.6-0.7,1.2-1,1.9s-0.5,1.3-0.7,2.1c-0.2,0.7-0.3,1.4-0.3,2.1h-1.1c0-0.7,0.2-1.4,0.4-2.1
		c0.2-0.7,0.4-1.3,0.7-2s0.6-1.2,1-1.8c0.4-0.6,0.8-1.1,1.3-1.5h-4.5v-1h5.5v0.9C385.7,1.6,385.3,2.1,384.9,2.7z"/>
	<path d="M392.2,8.8c-0.3,0-0.5-0.1-0.6-0.2c-0.2-0.1-0.2-0.4-0.2-0.7c-0.3,0.3-0.6,0.6-1,0.7c-0.4,0.1-0.8,0.2-1.2,0.2
		c-0.3,0-0.5,0-0.8-0.1c-0.2-0.1-0.5-0.2-0.7-0.3c-0.2-0.1-0.3-0.3-0.4-0.5c-0.1-0.2-0.2-0.5-0.2-0.8c0-0.4,0.1-0.6,0.2-0.9
		s0.3-0.4,0.5-0.5s0.4-0.2,0.7-0.3s0.5-0.1,0.8-0.2c0.3-0.1,0.5-0.1,0.8-0.1s0.5-0.1,0.7-0.1s0.3-0.1,0.5-0.2
		c0.1-0.1,0.2-0.2,0.2-0.4c0-0.2,0-0.4-0.1-0.5s-0.2-0.2-0.3-0.3c-0.1-0.1-0.3-0.1-0.4-0.1c-0.2,0-0.3,0-0.5,0
		c-0.4,0-0.8,0.1-1.1,0.2s-0.4,0.5-0.5,0.9h-1c0-0.4,0.1-0.7,0.2-1c0.1-0.3,0.3-0.5,0.6-0.6c0.2-0.2,0.5-0.3,0.8-0.4
		c0.3-0.1,0.6-0.1,1-0.1c0.3,0,0.6,0,0.8,0.1c0.3,0,0.5,0.1,0.8,0.2s0.4,0.3,0.5,0.5c0.1,0.2,0.2,0.5,0.2,0.9v3.2c0,0.2,0,0.4,0,0.5
		s0.1,0.2,0.3,0.2c0.1,0,0.2,0,0.3-0.1v0.8C392.8,8.7,392.5,8.8,392.2,8.8z M390.8,5.6c-0.2,0-0.4,0.1-0.7,0.1
		c-0.2,0-0.5,0.1-0.7,0.1c-0.2,0-0.4,0.1-0.6,0.2c-0.2,0.1-0.3,0.2-0.5,0.3c-0.1,0.1-0.2,0.4-0.2,0.6c0,0.2,0,0.3,0.1,0.4
		c0.1,0.1,0.2,0.2,0.3,0.3s0.2,0.1,0.4,0.2c0.1,0,0.3,0,0.5,0c0.3,0,0.6,0,0.9-0.1c0.2-0.1,0.4-0.2,0.6-0.3c0.2-0.1,0.3-0.3,0.3-0.5
		s0.1-0.3,0.1-0.5v-1C391.2,5.5,391,5.6,390.8,5.6z"/>
</g>
<g>
	<path d="M403.3,8.6V2.5h-2.2V1.7c0.3,0,0.6,0,0.8-0.1c0.3,0,0.5-0.1,0.7-0.2s0.4-0.3,0.6-0.5c0.2-0.2,0.3-0.5,0.3-0.8h0.8v8.5
		H403.3z"/>
	<path d="M409.1,7.3v1.3h-1.3V7.3H409.1z"/>
	<path d="M411.1,1.4c0.1-0.3,0.3-0.5,0.6-0.7c0.2-0.2,0.5-0.3,0.8-0.4c0.3-0.1,0.6-0.1,0.9-0.1c0.5,0,0.9,0.1,1.2,0.2
		s0.6,0.3,0.8,0.5s0.4,0.4,0.5,0.7s0.1,0.5,0.1,0.8c0,0.4-0.1,0.7-0.3,1c-0.2,0.3-0.5,0.6-0.9,0.7c0.5,0.2,0.9,0.4,1.1,0.8
		s0.4,0.8,0.4,1.3c0,0.4-0.1,0.8-0.2,1.1c-0.1,0.3-0.3,0.6-0.6,0.8c-0.3,0.2-0.5,0.4-0.9,0.5c-0.3,0.1-0.7,0.2-1.1,0.2
		c-0.4,0-0.8-0.1-1.1-0.2c-0.4-0.1-0.7-0.3-0.9-0.5c-0.3-0.2-0.5-0.5-0.6-0.8c-0.1-0.3-0.2-0.7-0.2-1.1c0-0.5,0.1-0.9,0.4-1.3
		c0.3-0.4,0.6-0.6,1.1-0.8c-0.4-0.1-0.6-0.4-0.9-0.7c-0.2-0.3-0.3-0.7-0.3-1.1C410.9,1.9,410.9,1.6,411.1,1.4z M412.2,7.4
		c0.3,0.3,0.8,0.4,1.3,0.4c0.3,0,0.5,0,0.7-0.1s0.4-0.2,0.6-0.3c0.2-0.1,0.3-0.3,0.4-0.5s0.1-0.4,0.1-0.7c0-0.2,0-0.4-0.1-0.6
		s-0.2-0.4-0.4-0.5c-0.2-0.1-0.3-0.3-0.6-0.3s-0.4-0.1-0.7-0.1c-0.2,0-0.5,0-0.7,0.1c-0.2,0.1-0.4,0.2-0.6,0.3
		c-0.2,0.1-0.3,0.3-0.4,0.5c-0.1,0.2-0.1,0.4-0.1,0.7C411.6,6.7,411.8,7.1,412.2,7.4z M412.1,2.9c0.1,0.2,0.2,0.3,0.3,0.4
		c0.1,0.1,0.3,0.2,0.5,0.3c0.2,0.1,0.4,0.1,0.6,0.1c0.4,0,0.7-0.1,1-0.4s0.4-0.6,0.4-1c0-0.4-0.1-0.8-0.4-1c-0.3-0.2-0.6-0.3-1-0.3
		c-0.2,0-0.4,0-0.6,0.1c-0.2,0.1-0.3,0.1-0.5,0.3c-0.1,0.1-0.2,0.2-0.3,0.4c-0.1,0.2-0.1,0.3-0.1,0.6C411.9,2.6,412,2.8,412.1,2.9z"
		/>
	<path d="M422.9,5.7v0.9h-1.2v2h-1v-2h-3.7v-1l3.9-5.5h0.8v5.6H422.9z M420.8,1.6L420.8,1.6L418,5.7h2.9V1.6z"/>
	<path d="M429,8.8c-0.3,0-0.5-0.1-0.6-0.2c-0.2-0.1-0.2-0.4-0.2-0.7c-0.3,0.3-0.6,0.6-1,0.7c-0.4,0.1-0.8,0.2-1.2,0.2
		c-0.3,0-0.5,0-0.8-0.1c-0.2-0.1-0.5-0.2-0.7-0.3c-0.2-0.1-0.3-0.3-0.4-0.5c-0.1-0.2-0.2-0.5-0.2-0.8c0-0.4,0.1-0.6,0.2-0.9
		s0.3-0.4,0.5-0.5s0.4-0.2,0.7-0.3s0.5-0.1,0.8-0.2c0.3-0.1,0.5-0.1,0.8-0.1s0.5-0.1,0.7-0.1s0.3-0.1,0.5-0.2
		c0.1-0.1,0.2-0.2,0.2-0.4c0-0.2,0-0.4-0.1-0.5s-0.2-0.2-0.3-0.3c-0.1-0.1-0.3-0.1-0.4-0.1c-0.2,0-0.3,0-0.5,0
		c-0.4,0-0.8,0.1-1.1,0.2s-0.4,0.5-0.5,0.9h-1c0-0.4,0.1-0.7,0.2-1c0.1-0.3,0.3-0.5,0.6-0.6c0.2-0.2,0.5-0.3,0.8-0.4
		c0.3-0.1,0.6-0.1,1-0.1c0.3,0,0.6,0,0.8,0.1c0.3,0,0.5,0.1,0.8,0.2s0.4,0.3,0.5,0.5c0.1,0.2,0.2,0.5,0.2,0.9v3.2c0,0.2,0,0.4,0,0.5
		s0.1,0.2,0.3,0.2c0.1,0,0.2,0,0.3-0.1v0.8C429.5,8.7,429.3,8.8,429,8.8z M427.5,5.6c-0.2,0-0.4,0.1-0.7,0.1c-0.2,0-0.5,0.1-0.7,0.1
		c-0.2,0-0.4,0.1-0.6,0.2c-0.2,0.1-0.3,0.2-0.5,0.3c-0.1,0.1-0.2,0.4-0.2,0.6c0,0.2,0,0.3,0.1,0.4c0.1,0.1,0.2,0.2,0.3,0.3
		s0.2,0.1,0.4,0.2c0.1,0,0.3,0,0.5,0c0.3,0,0.6,0,0.9-0.1c0.2-0.1,0.4-0.2,0.6-0.3c0.2-0.1,0.3-0.3,0.3-0.5s0.1-0.3,0.1-0.5v-1
		C427.9,5.5,427.7,5.6,427.5,5.6z"/>
</g>
<polyline fill="none" stroke="#211816" stroke-width="0.25" points="912.2,23.2 912.2,12.6 946.2,12.6 946.2,22.7 "/>
<g>
	<path d="M923.4,1.9c0.1-0.4,0.3-0.7,0.5-1c0.2-0.3,0.5-0.5,0.9-0.6c0.4-0.2,0.8-0.2,1.2-0.2c0.4,0,0.7,0.1,1,0.2
		c0.3,0.1,0.6,0.3,0.8,0.5c0.2,0.2,0.4,0.5,0.6,0.8c0.1,0.3,0.2,0.7,0.2,1.1c0,0.4-0.1,0.7-0.2,1c-0.1,0.3-0.3,0.5-0.5,0.8
		c-0.2,0.2-0.4,0.4-0.7,0.6s-0.5,0.4-0.8,0.5c-0.3,0.2-0.5,0.3-0.8,0.5c-0.3,0.2-0.5,0.3-0.7,0.5s-0.4,0.4-0.6,0.6
		c-0.2,0.2-0.3,0.4-0.3,0.7h4.4v0.9H923c0-0.5,0.1-0.9,0.3-1.3c0.1-0.4,0.3-0.7,0.5-0.9c0.2-0.3,0.5-0.5,0.7-0.7
		c0.3-0.2,0.6-0.4,0.9-0.6c0.4-0.2,0.7-0.4,0.9-0.6c0.3-0.2,0.5-0.4,0.7-0.6c0.2-0.2,0.3-0.4,0.4-0.6s0.1-0.5,0.1-0.8
		c0-0.2,0-0.4-0.1-0.6c-0.1-0.2-0.2-0.3-0.4-0.5c-0.1-0.1-0.3-0.2-0.5-0.3c-0.2-0.1-0.4-0.1-0.6-0.1c-0.3,0-0.5,0.1-0.8,0.2
		s-0.4,0.3-0.5,0.5c-0.1,0.2-0.2,0.4-0.3,0.7c-0.1,0.3-0.1,0.5-0.1,0.8h-1C923.2,2.7,923.2,2.3,923.4,1.9z"/>
	<path d="M934.9,8.8c-0.3,0-0.5-0.1-0.6-0.2c-0.2-0.1-0.2-0.4-0.2-0.7c-0.3,0.3-0.6,0.6-1,0.7c-0.4,0.1-0.8,0.2-1.2,0.2
		c-0.3,0-0.5,0-0.8-0.1s-0.5-0.2-0.7-0.3s-0.3-0.3-0.4-0.5c-0.1-0.2-0.2-0.5-0.2-0.8c0-0.4,0.1-0.6,0.2-0.9c0.1-0.2,0.3-0.4,0.5-0.5
		c0.2-0.1,0.4-0.2,0.7-0.3s0.5-0.1,0.8-0.2c0.3-0.1,0.5-0.1,0.8-0.1s0.5-0.1,0.7-0.1c0.2-0.1,0.3-0.1,0.5-0.2
		c0.1-0.1,0.2-0.2,0.2-0.4c0-0.2,0-0.4-0.1-0.5s-0.2-0.2-0.3-0.3c-0.1-0.1-0.3-0.1-0.4-0.1c-0.2,0-0.3,0-0.5,0
		c-0.4,0-0.8,0.1-1.1,0.2c-0.3,0.2-0.4,0.5-0.5,0.9h-1c0-0.4,0.1-0.7,0.2-1c0.1-0.3,0.3-0.5,0.6-0.6c0.2-0.2,0.5-0.3,0.8-0.4
		c0.3-0.1,0.6-0.1,1-0.1c0.3,0,0.6,0,0.8,0.1c0.3,0,0.5,0.1,0.8,0.2c0.2,0.1,0.4,0.3,0.5,0.5c0.1,0.2,0.2,0.5,0.2,0.9v3.2
		c0,0.2,0,0.4,0,0.5c0,0.1,0.1,0.2,0.3,0.2c0.1,0,0.2,0,0.3-0.1v0.8C935.5,8.7,935.2,8.8,934.9,8.8z M933.5,5.6
		c-0.2,0-0.4,0.1-0.7,0.1s-0.5,0.1-0.7,0.1s-0.4,0.1-0.6,0.2c-0.2,0.1-0.3,0.2-0.4,0.3c-0.1,0.1-0.2,0.4-0.2,0.6
		c0,0.2,0,0.3,0.1,0.4c0.1,0.1,0.2,0.2,0.3,0.3c0.1,0.1,0.2,0.1,0.4,0.2s0.3,0,0.4,0c0.3,0,0.6,0,0.9-0.1c0.2-0.1,0.4-0.2,0.6-0.3
		c0.2-0.1,0.3-0.3,0.3-0.5s0.1-0.3,0.1-0.5v-1C933.8,5.5,933.7,5.6,933.5,5.6z"/>
</g>
<polyline fill="none" stroke="#211816" stroke-width="0.25" points="950.7,182.4 961.3,182.4 961.3,216.4 951.2,216.4 "/>
<g>
	<path d="M968.9,197.5c0.1-0.4,0.3-0.7,0.5-1c0.2-0.3,0.5-0.5,0.9-0.6c0.4-0.2,0.8-0.2,1.2-0.2c0.4,0,0.7,0.1,1,0.2
		c0.3,0.1,0.6,0.3,0.8,0.5c0.2,0.2,0.4,0.5,0.6,0.8c0.1,0.3,0.2,0.7,0.2,1.1c0,0.4-0.1,0.7-0.2,1c-0.1,0.3-0.3,0.5-0.5,0.8
		c-0.2,0.2-0.4,0.4-0.7,0.6s-0.5,0.4-0.8,0.5c-0.3,0.2-0.5,0.3-0.8,0.5c-0.3,0.2-0.5,0.3-0.7,0.5s-0.4,0.4-0.6,0.6
		c-0.2,0.2-0.3,0.4-0.3,0.7h4.4v0.9h-5.6c0-0.5,0.1-0.9,0.3-1.3c0.1-0.4,0.3-0.7,0.5-0.9c0.2-0.3,0.5-0.5,0.7-0.7
		c0.3-0.2,0.6-0.4,0.9-0.6c0.4-0.2,0.7-0.4,0.9-0.6c0.3-0.2,0.5-0.4,0.7-0.6c0.2-0.2,0.3-0.4,0.4-0.6s0.1-0.5,0.1-0.8
		c0-0.2,0-0.4-0.1-0.6c-0.1-0.2-0.2-0.3-0.4-0.5c-0.1-0.1-0.3-0.2-0.5-0.3c-0.2-0.1-0.4-0.1-0.6-0.1c-0.3,0-0.5,0.1-0.8,0.2
		s-0.4,0.3-0.5,0.5c-0.1,0.2-0.2,0.4-0.3,0.7c-0.1,0.3-0.1,0.5-0.1,0.8h-1C968.7,198.3,968.7,197.9,968.9,197.5z"/>
	<path d="M980.4,204.4c-0.3,0-0.5-0.1-0.6-0.2c-0.2-0.1-0.2-0.4-0.2-0.7c-0.3,0.3-0.6,0.6-1,0.7c-0.4,0.1-0.8,0.2-1.2,0.2
		c-0.3,0-0.5,0-0.8-0.1s-0.5-0.2-0.7-0.3s-0.3-0.3-0.4-0.5s-0.2-0.5-0.2-0.8c0-0.4,0.1-0.6,0.2-0.9c0.1-0.2,0.3-0.4,0.5-0.5
		c0.2-0.1,0.4-0.2,0.7-0.3s0.5-0.1,0.8-0.2c0.3-0.1,0.5-0.1,0.8-0.1s0.5-0.1,0.7-0.1c0.2-0.1,0.3-0.1,0.5-0.2
		c0.1-0.1,0.2-0.2,0.2-0.4c0-0.2,0-0.4-0.1-0.5s-0.2-0.2-0.3-0.3c-0.1-0.1-0.3-0.1-0.4-0.1c-0.2,0-0.3,0-0.5,0
		c-0.4,0-0.8,0.1-1.1,0.2c-0.3,0.2-0.4,0.5-0.5,0.9h-1c0-0.4,0.1-0.7,0.2-1c0.1-0.3,0.3-0.5,0.6-0.6c0.2-0.2,0.5-0.3,0.8-0.4
		c0.3-0.1,0.6-0.1,1-0.1c0.3,0,0.6,0,0.8,0.1c0.3,0,0.5,0.1,0.8,0.2c0.2,0.1,0.4,0.3,0.5,0.5c0.1,0.2,0.2,0.5,0.2,0.9v3.2
		c0,0.2,0,0.4,0,0.5c0,0.1,0.1,0.2,0.3,0.2c0.1,0,0.2,0,0.3-0.1v0.8C981,204.3,980.7,204.4,980.4,204.4z M979,201.2
		c-0.2,0-0.4,0.1-0.7,0.1s-0.5,0.1-0.7,0.1s-0.4,0.1-0.6,0.2c-0.2,0.1-0.3,0.2-0.4,0.3c-0.1,0.1-0.2,0.4-0.2,0.6
		c0,0.2,0,0.3,0.1,0.4c0.1,0.1,0.2,0.2,0.3,0.3c0.1,0.1,0.2,0.1,0.4,0.2s0.3,0,0.4,0c0.3,0,0.6,0,0.9-0.1c0.2-0.1,0.4-0.2,0.6-0.3
		c0.2-0.1,0.3-0.3,0.3-0.5s0.1-0.3,0.1-0.5v-1C979.3,201.1,979.2,201.2,979,201.2z"/>
</g>
<g>
	<g>
		<g>
			<path fill="#666666" d="M446.3,144.2c4.8-5.3,7.1-14.1,6.9-26.2v-17.6h3.1v-3.1h-3.1V86.5h-4.4v10.8h-9.4V86.5H435v10.8h-3.8v3.1
				h3.8V118c-0.2,11.9,2,20.7,6.6,26.2c-1.7,2.3-5.3,5.2-11,8.9v3.4c5.7-3.5,10.2-6.7,13.5-9.6c3.1,2.9,7.3,6.1,12.6,9.6v-3.4
				C452.2,150.1,448.8,147.1,446.3,144.2z M439.4,118.3v-17.9h9.4v17.9c0.2,10.5-1.4,18.1-4.7,22.8
				C440.7,136,439.2,128.4,439.4,118.3z M482.7,119.8h5.7c5.7,0.2,8.4-2.4,8.2-7.7V96.4h7.5V93h-7.5v-6.8h-4.7V93h-23.2v-6.8h-4.7
				V93h-6.6v3.4h6.6v23.4H478v8.3h-21.7v3.4h12.9c-0.8,7.8-4.5,14-11,18.5v3.1c8.8-4.3,14-11.5,15.7-21.6h4.1v25.3h4.7v-25.3h4.1
				c1.5,10.1,7.1,17.3,17,21.6v-3.1c-7.3-4.5-11.5-10.7-12.6-18.5h13.5v-3.4h-22V119.8z M468.6,96.4h23.2v8.3h-23.2V96.4z
				 M468.6,116.4v-8.6h23.2v4.3c0.2,3.1-1.3,4.5-4.4,4.3H468.6z M530.9,85.9c-2.1,11.5-8,20.2-17.6,25.9v3.1
				c4.6-2.3,8.1-4.4,10.4-6.5v48.4h5v-53.4c2.7-3.5,5.1-9.4,7.2-17.6H530.9z M583.9,101.3v-3.4h-22v-12h-5v12h-21v3.4h8.2
				c0,14.8-3.7,27.9-11,39.2v5.2c10.3-12.1,15.5-26.9,15.7-44.4h8.2v36.4h-13.8v3.1h13.8v15.7h5v-15.7h12.9v-3.1H562v-36.4h7.9
				c0.2,17.9,5.4,32.6,15.7,44.1v-4.9c-7.1-10.7-10.7-23.8-10.7-39.2H583.9z M617.7,114.9v4h5.3c13.4,0,25-1,34.9-3.1
				c0.2,0.4,0.5,1.2,0.9,2.5c0.4,1,0.7,1.9,0.9,2.5h4.7c-2.1-6.2-4.7-11.8-7.9-17h-4.4c0.2,0.6,0.3,0.8,0.3,0.6
				c2.1,3.9,3.6,6.8,4.4,8.6c-8,1.2-19.4,1.9-34.2,1.9c6.5-5.3,11.2-11.4,14.1-18.2h29.5v-3.1H644v-7.7h-4.7v7.7h-23.9v3.1h16
				C627.9,103.9,623.3,110,617.7,114.9z M610.8,102.6c-1.3-4.7-3.6-9.9-6.9-15.4h-4.4c2.9,4.9,5.2,10.1,6.9,15.4H610.8z
				 M637.1,155.3h4.4v-32.4h-4.4V155.3z M669.2,145.4h-3.5v2.2c0.2,2.9-1.3,4.2-4.4,4c-4.2,0.2-6.1-1.1-5.7-4v-24.7h-4.4V147
				c-0.2,5.6,2.6,8.2,8.5,8h1.9c5.2,0.2,7.7-2.2,7.5-7.1V145.4z M597.9,155.3h5.3c4.2-8.6,6.9-18.6,8.2-29.9h-4.1
				C605.8,136.3,602.7,146.3,597.9,155.3z M626.5,123.2h-4.4v11.7c0.2,8-2.6,14.2-8.5,18.5v3.4c9-4.9,13.3-12.3,12.9-22.2V123.2z
				 M600.1,105.9c3.1,5.4,5.3,10.6,6.6,15.7h4.7c-1.9-6-4.2-11.2-6.9-15.7H600.1z M717.3,146.4h28.9v-2.8h-28.9v-5.9h17
				c5.9,0,8.7-2.3,8.5-6.8v-13h-55.9v19.7h25.4v5.9h-28.9v2.8h28.9v5.2h-33.9v3.1h73.2v-3.1h-34.2V146.4z M717.3,120.8h20.4v5.6
				h-20.4V120.8z M717.3,129.1h20.4v1.9c0.2,2.9-1.2,4.2-4.1,4h-16.3V129.1z M712.3,134.9h-20.4v-5.9h20.4V134.9z M712.3,126.3
				h-20.4v-5.6h20.4V126.3z M743.4,99.5V89.3h-57.2v17h48.7C740.8,106.5,743.6,104.2,743.4,99.5z M691,92.1h47.7v4.3H691V92.1z
				 M691,103.5v-4.3h47.7v0.3c0.2,2.7-1.3,4-4.4,4H691z M751.3,110.6h-72.9v3.1h72.9V110.6z M799.7,92.7h30.5v-3.4h-65.3v3.4h29.8
				v33.6h-33.6v3.4h33.6v27.5h5v-27.5h33.6v-3.4h-33.6V92.7z M817.6,118.6c2.5-4.5,4.7-10.6,6.6-18.2h-5.7
				c-0.8,6.2-2.7,12.2-5.7,18.2H817.6z M775.9,100.4h-5.7c1.9,7.6,4.1,13.7,6.6,18.2h4.7C778.6,112.6,776.7,106.6,775.9,100.4z
				 M904.1,112.4c0.6,1.9,1.3,3.8,1.9,5.9h5.3c-3.1-8.2-7.2-15.8-12.2-22.8h-4.7c3.3,5.1,6.1,9.7,8.2,13.6
				c-12.8,1.2-29.2,1.9-49.3,1.9c8.2-6.8,15.4-15.1,21.7-25h-6.3c-4.8,8.8-11.7,17.2-20.7,25v3.7h7.9
				C872.5,114.6,888.6,113.9,904.1,112.4z M852.6,154.4h43.7c7.1,0.2,10.6-2.7,10.4-8.6v-22.2h-54V154.4z M857.7,126.9h44v18.5
				c0.2,3.9-1.8,5.8-6,5.6h-38V126.9z"/>
		</g>
	</g>
	<rect x="397.1" y="63.3" fill-rule="evenodd" clip-rule="evenodd" fill="#CBCBCB" width="2.2" height="119.1"/>
	<g>
		<g id="形状_2_copy_3_副本_4_19_">
			<g>
				<path fill-rule="evenodd" clip-rule="evenodd" fill="#CCCCCC" d="M52.5,145.9c-6.2,12.2-11.8,23-18.2,35.8H43
					c1.6-3,2.5-4.9,4.5-8.5c4.6,0,8,0,12.6,0c-0.9-2.7-1.6-4.7-2.3-6.8h-6.9c2.1-4.1,3.2-6.4,6.3-11.9c3.2,9.4,6.6,18.7,9.7,27.3h8
					c-4.5-12.5-8.3-23.4-12.5-35.8H52.5z M76.8,181.7h7.6l1.6-35.8l-7.5,0L76.8,181.7z M88.6,181.7h8l1-26.7h-7.7L88.6,181.7z
					 M90.3,145.9l-0.2,5.7c0,0,5.8,0,7.5,0l0.3-5.7C91.1,145.9,91.1,145.9,90.3,145.9z M139.1,155.1c-1.3-0.5-2.8-0.7-4.3-0.7
					c-0.9,0-1.8,0.1-2.6,0.2c-0.8,0.2-1.6,0.4-2.2,0.7c-0.7,0.3-1.3,0.7-1.8,1.1c-0.5,0.4-1,0.9-1.3,1.3c-0.3,0.4-0.7,0.9-1.1,1.5
					c-0.3-0.8-0.7-1.5-1-1.9c-0.3-0.4-0.7-0.8-1.1-1.2c-0.4-0.3-0.9-0.7-1.6-0.9c-0.6-0.3-1.3-0.5-2-0.6c-0.7-0.1-1.5-0.2-2.3-0.2
					c-1.1,0-2.1,0.1-3.1,0.4c-1,0.3-1.9,0.6-2.6,1c-0.7,0.4-1.3,0.9-1.8,1.4c-0.5,0.5-1,1.2-1.5,2l0.2-4.2h-7.1l-1.2,26.7
					c0,0,5.9,0,7.5,0c0-2.3,0.1-5.4,0.3-9.3c0.2-3.9,0.5-6.5,0.9-7.9c0.4-1.3,1.1-2.4,2-3.2c0.9-0.8,2-1.2,3.2-1.2
					c0.7,0,1.3,0.1,1.8,0.3c0.5,0.2,1,0.6,1.3,1.1c0.4,0.5,0.6,1,0.8,1.5c0.1,0.5,0.2,1.2,0.2,2c0,1.4-0.1,4.3-0.3,8.4
					c-0.2,4.2-0.4,6.9-0.5,8.3c1.6,0,6.1,0,7.5,0l0.2-7.3c0.1-2.6,0.2-4.7,0.3-6.3c0.1-1.6,0.4-2.8,0.7-3.7c0.3-0.9,0.7-1.7,1.3-2.3
					c0.6-0.7,1.1-1.2,1.8-1.5c0.6-0.3,1.4-0.4,2.1-0.4c0.8,0,1.4,0.1,2,0.4c0.6,0.3,1.1,0.7,1.5,1.4c0.4,0.6,0.6,1.6,0.6,2.8
					c0,1.1,0,2.3-0.1,3.9l-0.3,6c-0.1,2.5-0.3,4.8-0.5,7.1c1.6,0,6.2,0,7.5,0c0-2,0.1-4.9,0.3-8.5c0.2-3.7,0.3-6.3,0.4-8
					c0.1-1.6,0.2-2.9,0.2-3.7c0-1.6-0.4-2.9-1.2-4C141.5,156.4,140.5,155.6,139.1,155.1z M167.5,155.1c-1.6-0.4-3.4-0.7-5.3-0.7
					c-1.7,0-3.5,0.1-5.3,0.3c-1.8,0.2-6.3,1.2-6.3,1.2l-0.8,5c0,0,7.4-2.3,10.6-2.3c0.9,0,1.6,0.1,2.4,0.3c0.7,0.2,1.3,0.5,1.7,1
					c0.4,0.5,0.7,1,0.7,1.7c0,0.4-0.1,0.7-0.2,1c-0.2,0.3-0.4,0.6-0.7,1c-0.3,0.3-0.7,0.6-1.1,0.7c-0.4,0.2-1,0.4-1.7,0.6
					c-0.7,0.2-1.4,0.4-2.1,0.5c-2.5,0.5-4.5,1.1-6.1,1.6c-1.5,0.5-2.7,1.1-3.5,1.6c-0.8,0.6-1.5,1.2-2,1.8c-0.5,0.6-0.9,1.3-1.2,2
					c-0.3,0.7-0.4,1.5-0.4,2.2c0,1.3,0.3,2.6,1,3.9c0.7,1.3,1.7,2.2,3.1,2.8c1.4,0.6,3.2,0.9,5.4,0.9c0.6,0,1.3,0,2.1-0.1
					c0.7-0.1,1.7-0.2,3-0.4c0.5-2,0.9-3.5,1.3-4.5c-1.1,0.4-1.9,0.6-2.5,0.7c-0.6,0.1-1.2,0.1-1.8,0.1c-0.9,0-1.6-0.1-2.3-0.3
					c-0.6-0.2-1.2-0.6-1.6-1.1c-0.4-0.5-0.6-1.2-0.6-1.9c0-0.4,0.1-0.9,0.3-1.3c0.2-0.4,0.4-0.8,0.8-1.1c0.4-0.4,0.8-0.7,1.4-1
					c0.5-0.3,1.1-0.5,1.8-0.8c0.7-0.2,1.6-0.5,2.7-0.8c1.1-0.3,1.9-0.5,2.3-0.7c0.4-0.1,0.8-0.3,1.2-0.5c0.4-0.2,0.9-0.5,1.5-0.9
					l-0.9,13.9h7.5c0,0,0.2-8.6,0.5-12.7c0.3-4.1,0.4-6.6,0.4-7.6c0-1.8-0.5-3.3-1.4-4.2C170.3,156.2,169.1,155.5,167.5,155.1z
					 M214.4,155.1c-1.3-0.5-2.8-0.7-4.3-0.7c-0.9,0-1.8,0.1-2.6,0.2c-0.8,0.2-1.6,0.4-2.3,0.7c-0.7,0.3-1.3,0.7-1.8,1.1
					c-0.5,0.4-1,0.9-1.3,1.3c-0.3,0.4-0.7,0.9-1.1,1.5c-0.4-0.8-0.7-1.5-1-1.9c-0.3-0.4-0.7-0.8-1.1-1.2c-0.4-0.3-0.9-0.7-1.6-0.9
					c-0.6-0.3-1.3-0.5-2-0.6c-0.7-0.1-1.5-0.2-2.3-0.2c-1.1,0-2.1,0.1-3.1,0.4c-1,0.3-1.9,0.6-2.6,1c-0.7,0.4-1.3,0.9-1.8,1.4
					c-0.5,0.5-1,1.2-1.5,2l0.2-4.2h-7.1l-1.2,26.7h7.5c0,0,0.1-5.4,0.3-9.3c0.2-3.9,0.5-6.5,0.9-7.9c0.4-1.3,1.1-2.4,2-3.2
					c0.9-0.8,2-1.2,3.2-1.2c0.7,0,1.2,0.1,1.8,0.3c0.5,0.2,0.9,0.6,1.3,1.1c0.4,0.5,0.6,1,0.7,1.5c0.1,0.5,0.2,1.2,0.2,2
					c0,1.4-0.1,4.3-0.3,8.4c-0.2,4.2-0.4,6.9-0.5,8.3c1.6,0,6.1,0,7.5,0l0.2-7.3c0.1-2.6,0.2-4.7,0.3-6.3c0.1-1.6,0.4-2.8,0.7-3.7
					c0.3-0.9,0.7-1.7,1.3-2.3c0.6-0.7,1.2-1.2,1.8-1.5c0.6-0.3,1.4-0.4,2.1-0.4c0.8,0,1.4,0.1,2,0.4c0.6,0.3,1.1,0.7,1.5,1.4
					c0.4,0.6,0.6,1.6,0.6,2.8c0,1.1,0,2.3-0.1,3.9l-0.3,6c-0.1,2.5-0.3,4.8-0.4,7.1c1.6,0,6.2,0,7.5,0c0-2,0.1-4.9,0.3-8.5
					c0.2-3.7,0.3-6.3,0.4-8c0.1-1.6,0.2-2.9,0.2-3.7c0-1.6-0.4-2.9-1.2-4C216.8,156.4,215.8,155.6,214.4,155.1z M242.8,155.1
					c-1.6-0.4-3.4-0.7-5.3-0.7c-1.7,0-3.5,0.1-5.3,0.3c-1.8,0.2-6.3,1.2-6.3,1.2l-0.8,5c0,0,7.4-2.3,10.6-2.3c0.9,0,1.6,0.1,2.4,0.3
					c0.7,0.2,1.3,0.5,1.7,1c0.4,0.5,0.7,1,0.7,1.7c0,0.4-0.1,0.7-0.2,1c-0.1,0.3-0.4,0.6-0.7,1c-0.3,0.3-0.7,0.6-1.1,0.7
					c-0.4,0.2-1,0.4-1.7,0.6c-0.7,0.2-1.4,0.4-2.1,0.5c-2.5,0.5-4.5,1.1-6.1,1.6c-1.5,0.5-2.7,1.1-3.5,1.6c-0.8,0.6-1.5,1.2-2,1.8
					c-0.5,0.6-0.9,1.3-1.2,2c-0.3,0.7-0.4,1.5-0.4,2.2c0,1.3,0.3,2.6,1,3.9c0.7,1.3,1.7,2.2,3.1,2.8c1.4,0.6,3.2,0.9,5.5,0.9
					c0.6,0,1.3,0,2.1-0.1c0.7-0.1,1.7-0.2,3-0.4c0.5-2,0.9-3.5,1.3-4.5c-1.1,0.4-1.9,0.6-2.5,0.7c-0.6,0.1-1.2,0.1-1.8,0.1
					c-0.9,0-1.6-0.1-2.3-0.3c-0.6-0.2-1.2-0.6-1.6-1.1c-0.4-0.5-0.6-1.2-0.6-1.9c0-0.4,0.1-0.9,0.2-1.3c0.2-0.4,0.4-0.8,0.8-1.1
					c0.4-0.4,0.8-0.7,1.4-1c0.5-0.3,1.1-0.5,1.8-0.8c0.7-0.2,1.6-0.5,2.7-0.8c1.1-0.3,1.9-0.5,2.3-0.7c0.4-0.1,0.8-0.3,1.2-0.5
					c0.3-0.2,0.9-0.5,1.5-0.9l-0.9,13.9h7.5c0,0,0.2-8.6,0.5-12.7c0.3-4.1,0.4-6.6,0.4-7.6c0-1.8-0.5-3.3-1.4-4.2
					C245.7,156.2,244.4,155.5,242.8,155.1z M251.2,174.7c-0.1,3.4-0.2,5.8-0.3,7.1c2.5,0,7.4,0,7.4,0s0.3-5.8,0.4-7.1
					C256.7,174.7,251.2,174.7,251.2,174.7z M270.7,162.3c0.8-0.9,1.7-1.5,2.7-1.9c1.1-0.4,2.2-0.6,3.4-0.6c1.9,0,4.2,0.4,6.8,1.3
					l-0.4-5.8c-1.7-0.4-3.1-0.7-4.3-0.8c-1.2-0.1-2.4-0.2-3.5-0.2c-2.1,0-3.9,0.2-5.6,0.7c-1.7,0.5-3.2,1.3-4.6,2.6
					c-1.4,1.3-2.4,2.9-3.1,5c-0.7,2-1.1,4.1-1.1,6.4c0,1.7,0.2,3.3,0.6,4.8c0.4,1.6,1.1,2.9,1.9,4c0.9,1.1,1.9,2,3,2.7
					c1.1,0.7,2.4,1.1,3.7,1.4c1.3,0.3,2.7,0.4,4.1,0.4c2.4,0,4.9-0.3,7.4-0.9c0.2-1.3,0.4-2.5,0.6-3.4c0.2-0.9,0.3-1.7,0.4-2.4
					c-1.3,0.5-2.5,0.8-3.6,1c-1.1,0.2-2.1,0.3-2.9,0.3c-1.6,0-3.1-0.3-4.3-1c-1.3-0.7-2.1-1.6-2.7-2.8c-0.5-1.2-0.8-2.7-0.8-4.3
					c0-1.2,0.2-2.4,0.5-3.5C269.4,164.2,270,163.2,270.7,162.3z M310.8,158c-1.3-1.2-2.9-2.1-4.7-2.7c-1.9-0.6-3.8-0.9-5.8-0.9
					c-2.2,0-4.3,0.4-6.3,1.1c-2,0.8-3.7,1.8-5,3.2c-1.3,1.4-2.3,2.9-2.9,4.7c-0.6,1.8-0.9,3.6-0.9,5.5c0,1.9,0.3,3.7,1,5.4
					c0.7,1.7,1.7,3.2,3,4.4c1.3,1.2,2.9,2.1,4.7,2.7c1.8,0.6,3.8,0.9,5.8,0.9c2.2,0,4.3-0.3,6.2-1c1.9-0.7,3.6-1.7,4.9-3
					c1.3-1.4,2.3-3,3-4.8c0.7-1.9,1-3.8,1-5.8c0-1.9-0.3-3.7-1-5.4C313.1,160.6,312.1,159.2,310.8,158z M306.3,172.6
					c-0.6,1.5-1.5,2.6-2.6,3.4c-1.2,0.8-2.5,1.1-4.1,1.1c-1.5,0-2.8-0.4-3.9-1.1c-1.1-0.7-1.9-1.7-2.4-2.9c-0.5-1.2-0.7-2.5-0.7-4.1
					c0-1.7,0.3-3.3,0.9-4.8c0.6-1.5,1.5-2.6,2.7-3.3c1.2-0.7,2.6-1.1,4.1-1.1c1.5,0,2.8,0.4,3.9,1.1c1.1,0.7,1.8,1.7,2.3,2.9
					c0.5,1.2,0.7,2.5,0.7,4C307.2,169.5,306.9,171.1,306.3,172.6z M358,157.5c-0.8-1.1-1.8-1.9-3.2-2.4c-1.4-0.5-2.8-0.7-4.3-0.7
					c-0.9,0-1.8,0.1-2.6,0.2c-0.8,0.2-1.6,0.4-2.3,0.7c-0.7,0.3-1.3,0.7-1.8,1.1c-0.5,0.4-1,0.9-1.3,1.3c-0.3,0.4-0.7,0.9-1.1,1.5
					c-0.3-0.8-0.7-1.5-1-1.9c-0.3-0.4-0.7-0.8-1.1-1.2c-0.4-0.3-0.9-0.7-1.6-0.9c-0.6-0.3-1.3-0.5-2-0.6c-0.7-0.1-1.5-0.2-2.3-0.2
					c-1.1,0-2.1,0.1-3.1,0.4c-1,0.3-1.9,0.6-2.6,1c-0.7,0.4-1.3,0.9-1.8,1.4c-0.5,0.5-1,1.2-1.5,2l0.2-4.2c-1.2,0-5.6,0-7.1,0
					c0,3-0.9,23.7-1.2,26.7c1.6,0,5.9,0,7.5,0c0-2.3,0.1-5.4,0.3-9.3c0.2-3.9,0.5-6.5,0.9-7.9c0.4-1.3,1.1-2.4,2-3.2
					c0.9-0.8,2-1.2,3.2-1.2c0.7,0,1.3,0.1,1.8,0.3c0.5,0.2,1,0.6,1.3,1.1c0.4,0.5,0.6,1,0.8,1.5c0.1,0.5,0.2,1.2,0.2,2
					c0,1.4-0.1,4.3-0.3,8.4c-0.2,4.2-0.4,6.9-0.5,8.3c1.6,0,6.1,0,7.5,0l0.2-7.3c0.1-2.6,0.2-4.7,0.3-6.3c0.1-1.6,0.4-2.8,0.7-3.7
					c0.3-0.9,0.7-1.7,1.3-2.3c0.6-0.7,1.1-1.2,1.8-1.5c0.6-0.3,1.4-0.4,2.1-0.4c0.8,0,1.4,0.1,2,0.4c0.6,0.3,1.1,0.7,1.5,1.4
					c0.4,0.6,0.6,1.6,0.6,2.8c0,1.1,0,2.3-0.1,3.9l-0.3,6c-0.1,2.5-0.3,4.8-0.4,7.1c1.6,0,6.2,0,7.5,0c0-2,0.1-4.9,0.3-8.5
					c0.2-3.7,0.3-6.3,0.4-8c0.1-1.6,0.2-2.9,0.2-3.7C359.1,159.9,358.7,158.6,358,157.5z"/>
			</g>
		</g>
		<g id="形状_2_copy_3_副本_5_18_">
			<g>
				<path fill-rule="evenodd" clip-rule="evenodd" fill="#FF6600" d="M65.6,71c11.2,0,22.3,0,33.5,0c0,16.7,0,33.9,0,49.4
					c0,1-1.3,2.5-2.6,2.5c-1.8,0-2.5,0-4.7,0v8.1c2.6,0,4.8,0,7.3,0c6.5,0,10.8-3.1,10.8-8.5c0-12.8,0-38.3,0-51.5h3.9v-7.7H65.6V71
					z M264.5,120.8c3.6,0,2.2,0,5.8,0c2.1,0,5-1.8,5-5c0-8.5,0-15.1,0-23.7c-1.6,0-3.3,0-4.7,0c0-6.5,0-19.9,0-24.7
					c0-2-2-4.1-4.4-4.1H231V71h27c0,7,0,14.1,0,21.1c-6.4,0-7.4,0-13,0c-0.7,0-1.6-0.8-1.6-1.4c0-3.5,0-9.2,0-13.9
					c0-1.1-1.1-2.3-2.8-2.3h-8v18.6c0,3.6,3.2,6.6,6.6,6.6c0,0,13.7,0,25.2,0v6.9h-27.9c-3.1,0-7.8,2.9-7.8,7.8
					c9.7,0,25.2-0.2,35.7-0.2C264.5,116.3,264.5,118.4,264.5,120.8z M94,109c0-8.8,0-21.3,0-33.4H66.1v42.5c8.2,0,18.5,0,18.5,0
					C91.7,118.1,94,114.1,94,109z M82.2,110.4c-2,0-4.2,0-7,0V83.8c3,0,6.5,0,9.5,0c0,8,0,17,0,24C84.6,109.3,83.7,110.4,82.2,110.4
					z M34.3,65.2c0,15.2,0,35.1,0,65.7h10.3c0-19.2,0-40.1,0-60c2.4,0,5.3,0,7.7,0c0,11.5,0,21.8,0,32.6c0,4.4-3.9,6-3.9,6v8.5
					c7.3,0,13.8-7.5,13.8-14.3c0-12.3,0-28.1,0-40.5c-9.3,0-16.4,0-25.7,0C34.2,63.3,34.3,65.2,34.3,65.2z M355.5,92.1
					c0-6.5,0-19.9,0-24.7c0-2-2-4.1-4.4-4.1H316V71c9,0,18,0,27,0v21.1c-6.4,0-7.5,0-13,0c-0.7,0-1.6-0.8-1.6-1.4
					c0-3.5,0-9.2,0-13.9c0-1.1-1.1-2.3-2.8-2.3c-2.2,0-5.4,0-8,0v18.6c0,3.6,3.2,6.6,6.6,6.6c0,0,13.7,0,25.2,0v6.9H322
					c-3.1,0-8,2.7-8,7.6c9.7,0,25,0,35.5,0v7.2c0,1.2-1,1.8-2.3,1.8h-4.1c0,3.5,0,5.4,0,7.7h6.3c1.9,0,1.5,0,3.4,0
					c5.2,0,7.5-3.7,7.5-6.7c0-9.7,0.1-22.5,0.1-32.2C358.6,92.1,356.9,92.1,355.5,92.1z M305.8,118.1c3.7-4.1,5.8-9,6.3-18.3
					c0-10.1,0-19.9,0-29.9c0-0.8-1.1-2-2.1-1.9c-3.9,0-8.9,0-13.2,0v-4.7h-10.3c0,1.6,0,3.1,0,4.7c-1.1,0-2.4,0-3.4,0v7.7h3.5v24.1
					c0,9.3,3.1,14,6.9,18.3c-4.6,3.1-9.2,5.1-15.5,5.1c-0.9,0-1.7,0-2.6,0c-9.7,0-21.4,0-31.7,0c-9.7,0-19-1.8-22.5-6
					c3.3-4.5,5.1-8.1,6.1-17.5c0-9.3,0-17.3,0-29.2c-0.1-1.3-1.3-2.5-2.5-2.5c-4.1,0-8.2,0-13.2,0v-4.7c-4.2,0-5.8,0-10.1,0V68
					c-1.1,0-2,0-3.4,0v7.7c1.5,0,2.3,0,3.4,0c0,8,0,16.8,0,24.1c0.8,9.3,3.7,12.4,7.4,17.9c-5.2,3.6-11.6,5.3-19,5.6
					c-8.9,0-16.8,0-27.9,0c0-1.9,0-4.6,0-6h27.9v-8.1h-27.9c0-1.9,0-4,0-6c8,0,18.6,0,21,0c0,0,6.8,0,6.9-7.5c0.1-7.9,0-21.9,0-32.4
					c-22.1,0-44.5,0-66.6,0c-1.1,0-2.1,1.1-2.1,2c0,1.6,0,26.3,0,37.9c9.3,0,18.6,0,27.9,0v6H121c0,2.5,0,5.5,0,8.1h27.9
					c0,2,0,4,0,6h-32.6c0,2.2,0,5.2,0,7.7c24.5,0,54.8,0.1,78.6,0c6.4,0,14.4-3.3,20.1-6.7c7.2,5.6,15.2,6.7,28.4,6.7
					c4,0,8.5,0,13.3,0c6.9,0,13,0,18.4,0c11.1,0,18.1-2.4,24.9-6.4c6.3,3.8,12.2,6.1,22,6.4v0h14.8v-7.7h-14.8
					C315.5,122.6,310.1,121.6,305.8,118.1z M148.9,95.4h-17.2v-8.1h17.2V95.4z M148.9,79.1h-17.2V71c5.7,0,11.4,0,17.2,0V79.1z
					 M161.8,71H179v8.1h-17.2V71z M161.8,87.3c5.7,0,11.4,0,17.2,0c0,3.3,0,5.8,0,8.1h-17.2C161.8,93.2,161.8,89.9,161.8,87.3z
					 M217.3,99.8c-0.4,5.4-1.2,6.7-2.5,10.2c-1.6-3.3-3-4.8-3.4-10.2c0-7,0-16.7,0-24.1h5.9V99.8z M302.4,99.8
					c-0.2,5-1.4,7.4-2.7,10.2c-1.6-2.7-3-5.5-3-10.2c0-7.5,0-16.4,0-24.1h5.7C302.4,83.4,302.4,92.3,302.4,99.8z"/>
			</g>
		</g>
	</g>
</g>
<polyline fill="none" stroke="#211816" stroke-width="0.25" points="950.7,182.3 961.3,182.3 961.3,63.3 951.2,63.3 "/>
<g>
	<path d="M975.1,123c-0.4,0.6-0.7,1.2-1,1.9c-0.3,0.7-0.5,1.3-0.7,2.1s-0.3,1.4-0.3,2.1h-1.1c0-0.7,0.2-1.4,0.4-2.1
		c0.2-0.7,0.4-1.3,0.7-2c0.3-0.6,0.6-1.2,1-1.8c0.4-0.6,0.8-1.1,1.3-1.5h-4.5v-1h5.5v0.9C975.9,121.9,975.5,122.4,975.1,123z"/>
	<path d="M982.4,129.1c-0.3,0-0.5-0.1-0.6-0.2c-0.2-0.1-0.2-0.4-0.2-0.7c-0.3,0.3-0.6,0.6-1,0.7c-0.4,0.1-0.8,0.2-1.2,0.2
		c-0.3,0-0.5,0-0.8-0.1s-0.5-0.2-0.7-0.3s-0.3-0.3-0.4-0.5s-0.2-0.5-0.2-0.8c0-0.4,0.1-0.6,0.2-0.9c0.1-0.2,0.3-0.4,0.5-0.5
		c0.2-0.1,0.4-0.2,0.7-0.3s0.5-0.1,0.8-0.2c0.3-0.1,0.5-0.1,0.8-0.1s0.5-0.1,0.7-0.1c0.2-0.1,0.3-0.1,0.5-0.2
		c0.1-0.1,0.2-0.2,0.2-0.4c0-0.2,0-0.4-0.1-0.5s-0.2-0.2-0.3-0.3c-0.1-0.1-0.3-0.1-0.4-0.1c-0.2,0-0.3,0-0.5,0
		c-0.4,0-0.8,0.1-1.1,0.2c-0.3,0.2-0.4,0.5-0.5,0.9h-1c0-0.4,0.1-0.7,0.2-1c0.1-0.3,0.3-0.5,0.6-0.6c0.2-0.2,0.5-0.3,0.8-0.4
		c0.3-0.1,0.6-0.1,1-0.1c0.3,0,0.6,0,0.8,0.1c0.3,0,0.5,0.1,0.8,0.2c0.2,0.1,0.4,0.3,0.5,0.5c0.1,0.2,0.2,0.5,0.2,0.9v3.2
		c0,0.2,0,0.4,0,0.5c0,0.1,0.1,0.2,0.3,0.2c0.1,0,0.2,0,0.3-0.1v0.8C983,129,982.7,129.1,982.4,129.1z M981,126
		c-0.2,0-0.4,0.1-0.7,0.1s-0.5,0.1-0.7,0.1s-0.4,0.1-0.6,0.2c-0.2,0.1-0.3,0.2-0.4,0.3c-0.1,0.1-0.2,0.4-0.2,0.6
		c0,0.2,0,0.3,0.1,0.4c0.1,0.1,0.2,0.2,0.3,0.3c0.1,0.1,0.2,0.1,0.4,0.2s0.3,0,0.4,0c0.3,0,0.6,0,0.9-0.1c0.2-0.1,0.4-0.2,0.6-0.3
		c0.2-0.1,0.3-0.3,0.3-0.5s0.1-0.3,0.1-0.5v-1C981.3,125.8,981.2,125.9,981,126z"/>
</g>
<g>
	<path d="M475.4,250.8l-0.5,2.4l0,0c0.2-0.2,0.4-0.4,0.7-0.5c0.3-0.1,0.6-0.1,0.9-0.1c0.4,0,0.7,0.1,1.1,0.2s0.6,0.3,0.9,0.5
		s0.4,0.5,0.6,0.9c0.1,0.4,0.2,0.8,0.2,1.3c0,0.4-0.1,0.7-0.2,1.1s-0.3,0.6-0.6,0.9c-0.2,0.3-0.6,0.5-0.9,0.6
		c-0.4,0.2-0.8,0.2-1.3,0.2c-0.4,0-0.7-0.1-1-0.2c-0.3-0.1-0.6-0.3-0.9-0.5c-0.2-0.2-0.4-0.5-0.6-0.8c-0.1-0.3-0.2-0.6-0.2-1h1
		c0,0.2,0.1,0.4,0.2,0.6c0.1,0.2,0.2,0.4,0.4,0.5c0.2,0.1,0.3,0.2,0.6,0.3c0.2,0.1,0.4,0.1,0.7,0.1c0.2,0,0.5,0,0.7-0.1
		s0.4-0.2,0.6-0.4s0.3-0.4,0.4-0.6c0.1-0.3,0.1-0.5,0.1-0.9c0-0.3,0-0.5-0.1-0.8s-0.2-0.4-0.4-0.6s-0.4-0.3-0.6-0.4
		c-0.2-0.1-0.5-0.1-0.8-0.1c-0.3,0-0.6,0.1-0.9,0.2c-0.3,0.1-0.5,0.3-0.7,0.6l-0.9,0l0.8-4.4h4.2v0.9H475.4z"/>
	<path d="M483.2,258.3v-6.1h-2.2v-0.8c0.3,0,0.6,0,0.8-0.1c0.3,0,0.5-0.1,0.7-0.2s0.4-0.3,0.6-0.5c0.2-0.2,0.3-0.5,0.3-0.8h0.8v8.5
		H483.2z"/>
	<path d="M488.9,257v1.3h-1.3V257H488.9z"/>
	<path d="M492.1,250.8l-0.5,2.4l0,0c0.2-0.2,0.4-0.4,0.7-0.5c0.3-0.1,0.6-0.1,0.9-0.1c0.4,0,0.7,0.1,1.1,0.2s0.6,0.3,0.9,0.5
		s0.4,0.5,0.6,0.9c0.1,0.4,0.2,0.8,0.2,1.3c0,0.4-0.1,0.7-0.2,1.1s-0.3,0.6-0.6,0.9c-0.2,0.3-0.6,0.5-0.9,0.6
		c-0.4,0.2-0.8,0.2-1.3,0.2c-0.4,0-0.7-0.1-1-0.2c-0.3-0.1-0.6-0.3-0.9-0.5c-0.2-0.2-0.4-0.5-0.6-0.8c-0.1-0.3-0.2-0.6-0.2-1h1
		c0,0.2,0.1,0.4,0.2,0.6c0.1,0.2,0.2,0.4,0.4,0.5c0.2,0.1,0.3,0.2,0.6,0.3c0.2,0.1,0.4,0.1,0.7,0.1c0.2,0,0.5,0,0.7-0.1
		s0.4-0.2,0.6-0.4s0.3-0.4,0.4-0.6c0.1-0.3,0.1-0.5,0.1-0.9c0-0.3,0-0.5-0.1-0.8s-0.2-0.4-0.4-0.6s-0.4-0.3-0.6-0.4
		c-0.2-0.1-0.5-0.1-0.8-0.1c-0.3,0-0.6,0.1-0.9,0.2c-0.3,0.1-0.5,0.3-0.7,0.6l-0.9,0l0.8-4.4h4.2v0.9H492.1z"/>
	<path d="M501.5,252.3c-0.4,0.6-0.7,1.2-1,1.9s-0.5,1.3-0.7,2.1c-0.2,0.7-0.3,1.4-0.3,2.1h-1.1c0-0.7,0.2-1.4,0.4-2.1
		c0.2-0.7,0.4-1.3,0.7-2s0.6-1.2,1-1.8c0.4-0.6,0.8-1.1,1.3-1.5h-4.5v-1h5.5v0.9C502.3,251.2,501.9,251.7,501.5,252.3z"/>
	<path d="M508.8,258.4c-0.3,0-0.5-0.1-0.6-0.2c-0.2-0.1-0.2-0.4-0.2-0.7c-0.3,0.3-0.6,0.6-1,0.7c-0.4,0.1-0.8,0.2-1.2,0.2
		c-0.3,0-0.5,0-0.8-0.1c-0.2-0.1-0.5-0.2-0.7-0.3c-0.2-0.1-0.3-0.3-0.4-0.5c-0.1-0.2-0.2-0.5-0.2-0.8c0-0.4,0.1-0.6,0.2-0.9
		c0.1-0.2,0.3-0.4,0.5-0.5s0.4-0.2,0.7-0.3s0.5-0.1,0.8-0.2c0.3-0.1,0.5-0.1,0.8-0.1s0.5-0.1,0.7-0.1s0.3-0.1,0.5-0.2
		c0.1-0.1,0.2-0.2,0.2-0.4c0-0.2,0-0.4-0.1-0.5s-0.2-0.2-0.3-0.3c-0.1-0.1-0.3-0.1-0.4-0.1c-0.2,0-0.3,0-0.5,0
		c-0.4,0-0.8,0.1-1.1,0.2s-0.4,0.5-0.5,0.9h-1c0-0.4,0.1-0.7,0.2-1c0.1-0.3,0.3-0.5,0.6-0.6c0.2-0.2,0.5-0.3,0.8-0.4
		c0.3-0.1,0.6-0.1,1-0.1c0.3,0,0.6,0,0.8,0.1c0.3,0,0.5,0.1,0.8,0.2s0.4,0.3,0.5,0.5c0.1,0.2,0.2,0.5,0.2,0.9v3.2c0,0.2,0,0.4,0,0.5
		s0.1,0.2,0.3,0.2c0.1,0,0.2,0,0.3-0.1v0.8C509.3,258.4,509.1,258.4,508.8,258.4z M507.4,255.3c-0.2,0-0.4,0.1-0.7,0.1
		c-0.2,0-0.5,0.1-0.7,0.1c-0.2,0-0.4,0.1-0.6,0.2c-0.2,0.1-0.3,0.2-0.5,0.3c-0.1,0.1-0.2,0.4-0.2,0.6c0,0.2,0,0.3,0.1,0.4
		c0.1,0.1,0.2,0.2,0.3,0.3s0.2,0.1,0.4,0.2c0.1,0,0.3,0,0.5,0c0.3,0,0.6,0,0.9-0.1c0.2-0.1,0.4-0.2,0.6-0.3c0.2-0.1,0.3-0.3,0.3-0.5
		s0.1-0.3,0.1-0.5v-1C507.7,255.2,507.6,255.3,507.4,255.3z"/>
</g>
<polyline fill-rule="evenodd" clip-rule="evenodd" fill="none" stroke="#000000" stroke-width="0.25" points="34.7,226.1 
	34.7,234.3 911.4,234.3 911.4,226.1 "/>
</svg>
