<?xml version="1.0" encoding="utf-8"?>
<!-- Generator: Adobe Illustrator 17.1.0, SVG Export Plug-In . SVG Version: 6.00 Build 0)  -->
<!DOCTYPE svg PUBLIC "-//W3C//DTD SVG 1.1//EN" "http://www.w3.org/Graphics/SVG/1.1/DTD/svg11.dtd">
<svg version="1.1" id="图层_1" xmlns="http://www.w3.org/2000/svg" xmlns:xlink="http://www.w3.org/1999/xlink" x="0px" y="0px"
	 viewBox="0 0 203.8 167.4" enable-background="new 0 0 203.8 167.4" xml:space="preserve">
<rect x="0.6" y="0.5" fill="none" stroke="#CCCCCC" width="202.7" height="166.4"/>
<g>
	<rect x="19.2" y="90.5" fill-rule="evenodd" clip-rule="evenodd" fill="#CBCBCB" width="164" height="1.1"/>
	<g>
		<g id="形状_2_copy_3_副本_4_59_">
			<g>
				<path fill-rule="evenodd" clip-rule="evenodd" fill="#CCCCCC" d="M30.1,63.3c-3.1,6.1-5.9,11.5-9.1,17.9h4.4
					c0.8-1.5,1.2-2.5,2.3-4.3c2.3,0,4,0,6.3,0c-0.5-1.3-0.8-2.3-1.2-3.4h-3.5c1-2,1.6-3.2,3.1-6c1.6,4.7,3.3,9.4,4.8,13.6h4
					c-2.2-6.2-4.2-11.7-6.3-17.9H30.1z M42.2,81.2H46l0.8-17.9l-3.7,0L42.2,81.2z M48.1,81.2h4l0.5-13.3h-3.8L48.1,81.2z M48.9,63.2
					l-0.1,2.9c0,0,2.9,0,3.8,0l0.1-2.9C49.4,63.2,49.3,63.2,48.9,63.2z M73.3,67.9c-0.7-0.2-1.4-0.4-2.2-0.4c-0.4,0-0.9,0-1.3,0.1
					c-0.4,0.1-0.8,0.2-1.1,0.3c-0.3,0.1-0.6,0.3-0.9,0.5c-0.3,0.2-0.5,0.4-0.7,0.6c-0.2,0.2-0.3,0.5-0.5,0.8c-0.2-0.4-0.3-0.7-0.5-1
					c-0.1-0.2-0.3-0.4-0.5-0.6c-0.2-0.2-0.5-0.3-0.8-0.5c-0.3-0.1-0.6-0.2-1-0.3c-0.4-0.1-0.8-0.1-1.1-0.1c-0.5,0-1,0.1-1.5,0.2
					c-0.5,0.1-0.9,0.3-1.3,0.5c-0.4,0.2-0.7,0.5-0.9,0.7c-0.2,0.3-0.5,0.6-0.8,1l0.1-2.1h-3.6l-0.6,13.3c0,0,2.9,0,3.8,0
					c0-1.1,0-2.7,0.1-4.6c0.1-1.9,0.3-3.3,0.5-3.9c0.2-0.7,0.6-1.2,1-1.6c0.5-0.4,1-0.6,1.6-0.6c0.3,0,0.6,0.1,0.9,0.2
					c0.3,0.1,0.5,0.3,0.7,0.5c0.2,0.2,0.3,0.5,0.4,0.8c0.1,0.3,0.1,0.6,0.1,1c0,0.7-0.1,2.1-0.2,4.2c-0.1,2.1-0.2,3.5-0.3,4.1
					c0.8,0,3,0,3.8,0l0.1-3.6c0-1.3,0.1-2.4,0.2-3.2c0.1-0.8,0.2-1.4,0.3-1.9c0.2-0.4,0.4-0.8,0.6-1.2c0.3-0.3,0.6-0.6,0.9-0.7
					c0.3-0.1,0.7-0.2,1.1-0.2c0.4,0,0.7,0.1,1,0.2c0.3,0.1,0.6,0.4,0.8,0.7c0.2,0.3,0.3,0.8,0.3,1.4c0,0.5,0,1.2-0.1,1.9l-0.2,3
					c-0.1,1.2-0.1,2.4-0.2,3.5c0.8,0,3.1,0,3.7,0c0-1,0.1-2.4,0.1-4.3c0.1-1.8,0.2-3.2,0.2-4c0.1-0.8,0.1-1.4,0.1-1.8
					c0-0.8-0.2-1.5-0.6-2C74.5,68.5,74,68.1,73.3,67.9z M87.5,67.8c-0.8-0.2-1.7-0.3-2.7-0.3c-0.9,0-1.7,0.1-2.6,0.2
					c-0.9,0.1-3.2,0.6-3.2,0.6l-0.4,2.5c0,0,3.7-1.1,5.3-1.1c0.4,0,0.8,0,1.2,0.1c0.4,0.1,0.6,0.3,0.9,0.5c0.2,0.2,0.3,0.5,0.3,0.9
					c0,0.2,0,0.3-0.1,0.5c-0.1,0.2-0.2,0.3-0.3,0.5c-0.2,0.2-0.3,0.3-0.6,0.4c-0.2,0.1-0.5,0.2-0.9,0.3c-0.4,0.1-0.7,0.2-1,0.3
					c-1.3,0.3-2.3,0.5-3,0.8c-0.8,0.3-1.3,0.5-1.8,0.8c-0.4,0.3-0.7,0.6-1,0.9c-0.3,0.3-0.4,0.6-0.6,1c-0.1,0.4-0.2,0.7-0.2,1.1
					c0,0.7,0.2,1.3,0.5,2c0.3,0.6,0.9,1.1,1.6,1.4c0.7,0.3,1.6,0.4,2.7,0.4c0.3,0,0.7,0,1,0c0.4,0,0.9-0.1,1.5-0.2
					c0.2-1,0.5-1.7,0.6-2.2c-0.5,0.2-0.9,0.3-1.3,0.3c-0.3,0-0.6,0.1-0.9,0.1c-0.4,0-0.8-0.1-1.1-0.2c-0.3-0.1-0.6-0.3-0.8-0.6
					c-0.2-0.3-0.3-0.6-0.3-1c0-0.2,0-0.4,0.1-0.6c0.1-0.2,0.2-0.4,0.4-0.6c0.2-0.2,0.4-0.3,0.7-0.5c0.3-0.1,0.6-0.3,0.9-0.4
					c0.3-0.1,0.8-0.2,1.3-0.4c0.6-0.2,0.9-0.3,1.2-0.3c0.2-0.1,0.4-0.2,0.6-0.2c0.2-0.1,0.4-0.2,0.8-0.5l-0.5,6.9h3.7
					c0,0,0.1-4.3,0.2-6.3c0.1-2,0.2-3.3,0.2-3.8c0-0.9-0.2-1.6-0.7-2.1C89,68.4,88.3,68.1,87.5,67.8z M111,67.9
					c-0.7-0.2-1.4-0.4-2.2-0.4c-0.4,0-0.9,0-1.3,0.1c-0.4,0.1-0.8,0.2-1.1,0.3c-0.3,0.1-0.6,0.3-0.9,0.5c-0.3,0.2-0.5,0.4-0.7,0.6
					c-0.2,0.2-0.3,0.5-0.5,0.8c-0.2-0.4-0.3-0.7-0.5-1c-0.1-0.2-0.3-0.4-0.5-0.6c-0.2-0.2-0.5-0.3-0.8-0.5c-0.3-0.1-0.6-0.2-1-0.3
					c-0.4-0.1-0.7-0.1-1.1-0.1c-0.5,0-1,0.1-1.5,0.2c-0.5,0.1-0.9,0.3-1.3,0.5c-0.4,0.2-0.7,0.5-0.9,0.7c-0.2,0.3-0.5,0.6-0.8,1
					l0.1-2.1h-3.6l-0.6,13.3h3.8c0,0,0-2.7,0.1-4.6c0.1-1.9,0.3-3.3,0.5-3.9c0.2-0.7,0.6-1.2,1-1.6c0.5-0.4,1-0.6,1.6-0.6
					c0.3,0,0.6,0.1,0.9,0.2c0.3,0.1,0.5,0.3,0.7,0.5c0.2,0.2,0.3,0.5,0.4,0.8c0.1,0.3,0.1,0.6,0.1,1c0,0.7-0.1,2.1-0.2,4.2
					c-0.1,2.1-0.2,3.5-0.3,4.1c0.8,0,3,0,3.8,0l0.1-3.6c0-1.3,0.1-2.4,0.2-3.2c0.1-0.8,0.2-1.4,0.3-1.9c0.2-0.4,0.4-0.8,0.6-1.2
					c0.3-0.3,0.6-0.6,0.9-0.7c0.3-0.1,0.7-0.2,1.1-0.2c0.4,0,0.7,0.1,1,0.2c0.3,0.1,0.6,0.4,0.7,0.7c0.2,0.3,0.3,0.8,0.3,1.4
					c0,0.5,0,1.2-0.1,1.9l-0.2,3c-0.1,1.2-0.1,2.4-0.2,3.5c0.8,0,3.1,0,3.7,0c0-1,0.1-2.4,0.1-4.3c0.1-1.8,0.2-3.2,0.2-4
					c0.1-0.8,0.1-1.4,0.1-1.8c0-0.8-0.2-1.5-0.6-2C112.2,68.5,111.6,68.1,111,67.9z M125.1,67.8c-0.8-0.2-1.7-0.3-2.7-0.3
					c-0.9,0-1.7,0.1-2.6,0.2c-0.9,0.1-3.2,0.6-3.2,0.6l-0.4,2.5c0,0,3.7-1.1,5.3-1.1c0.4,0,0.8,0,1.2,0.1c0.4,0.1,0.6,0.3,0.9,0.5
					c0.2,0.2,0.3,0.5,0.3,0.9c0,0.2,0,0.3-0.1,0.5c-0.1,0.2-0.2,0.3-0.3,0.5c-0.2,0.2-0.3,0.3-0.6,0.4c-0.2,0.1-0.5,0.2-0.9,0.3
					c-0.4,0.1-0.7,0.2-1,0.3c-1.3,0.3-2.3,0.5-3,0.8c-0.8,0.3-1.3,0.5-1.8,0.8c-0.4,0.3-0.7,0.6-1,0.9c-0.3,0.3-0.4,0.6-0.6,1
					c-0.1,0.4-0.2,0.7-0.2,1.1c0,0.7,0.2,1.3,0.5,2c0.3,0.6,0.9,1.1,1.6,1.4c0.7,0.3,1.6,0.4,2.7,0.4c0.3,0,0.7,0,1,0
					c0.4,0,0.9-0.1,1.5-0.2c0.2-1,0.5-1.7,0.6-2.2c-0.5,0.2-0.9,0.3-1.3,0.3c-0.3,0-0.6,0.1-0.9,0.1c-0.4,0-0.8-0.1-1.1-0.2
					c-0.3-0.1-0.6-0.3-0.8-0.6c-0.2-0.3-0.3-0.6-0.3-1c0-0.2,0-0.4,0.1-0.6c0.1-0.2,0.2-0.4,0.4-0.6c0.2-0.2,0.4-0.3,0.7-0.5
					c0.3-0.1,0.6-0.3,0.9-0.4c0.3-0.1,0.8-0.2,1.3-0.4c0.5-0.2,0.9-0.3,1.2-0.3c0.2-0.1,0.4-0.2,0.6-0.2c0.2-0.1,0.4-0.2,0.8-0.5
					l-0.5,6.9h3.7c0,0,0.1-4.3,0.2-6.3c0.1-2,0.2-3.3,0.2-3.8c0-0.9-0.2-1.6-0.7-2.1C126.6,68.4,126,68.1,125.1,67.8z M129.3,77.6
					c-0.1,1.7-0.1,2.9-0.1,3.5c1.2,0,3.7,0,3.7,0s0.1-2.9,0.2-3.5C132.1,77.6,129.3,77.6,129.3,77.6z M139.1,71.5
					c0.4-0.4,0.8-0.7,1.4-1c0.5-0.2,1.1-0.3,1.7-0.3c1,0,2.1,0.2,3.4,0.7l-0.2-2.9c-0.8-0.2-1.5-0.3-2.1-0.4
					c-0.6-0.1-1.2-0.1-1.8-0.1c-1,0-2,0.1-2.8,0.3c-0.8,0.2-1.6,0.7-2.3,1.3c-0.7,0.6-1.2,1.5-1.6,2.5c-0.4,1-0.5,2.1-0.5,3.2
					c0,0.8,0.1,1.6,0.3,2.4c0.2,0.8,0.5,1.4,1,2c0.4,0.6,0.9,1,1.5,1.3c0.6,0.3,1.2,0.6,1.8,0.7c0.7,0.1,1.3,0.2,2.1,0.2
					c1.2,0,2.5-0.1,3.7-0.4c0.1-0.7,0.2-1.2,0.3-1.7c0.1-0.5,0.2-0.9,0.2-1.2c-0.6,0.2-1.2,0.4-1.8,0.5c-0.6,0.1-1,0.1-1.4,0.1
					c-0.8,0-1.5-0.2-2.2-0.5c-0.6-0.3-1.1-0.8-1.3-1.4c-0.3-0.6-0.4-1.3-0.4-2.2c0-0.6,0.1-1.2,0.2-1.7
					C138.5,72.4,138.7,71.9,139.1,71.5z M159.1,69.3c-0.6-0.6-1.4-1-2.4-1.3c-0.9-0.3-1.9-0.5-2.9-0.5c-1.1,0-2.1,0.2-3.2,0.6
					c-1,0.4-1.9,0.9-2.5,1.6c-0.7,0.7-1.1,1.5-1.4,2.3c-0.3,0.9-0.5,1.8-0.5,2.8c0,0.9,0.2,1.8,0.5,2.7c0.3,0.9,0.8,1.6,1.5,2.2
					c0.6,0.6,1.4,1.1,2.3,1.4c0.9,0.3,1.9,0.5,2.9,0.5c1.1,0,2.1-0.2,3.1-0.5c1-0.3,1.8-0.8,2.4-1.5c0.7-0.7,1.1-1.5,1.5-2.4
					c0.3-0.9,0.5-1.9,0.5-2.9c0-0.9-0.2-1.8-0.5-2.7C160.3,70.6,159.8,69.9,159.1,69.3z M156.9,76.6c-0.3,0.7-0.7,1.3-1.3,1.7
					c-0.6,0.4-1.3,0.6-2,0.6c-0.8,0-1.4-0.2-1.9-0.6c-0.5-0.4-0.9-0.8-1.2-1.4c-0.2-0.6-0.4-1.3-0.4-2c0-0.9,0.1-1.7,0.4-2.4
					c0.3-0.7,0.7-1.3,1.3-1.7c0.6-0.4,1.3-0.6,2-0.6c0.8,0,1.4,0.2,2,0.5c0.5,0.4,0.9,0.8,1.1,1.4c0.2,0.6,0.3,1.3,0.3,2
					C157.3,75,157.2,75.9,156.9,76.6z M182.7,69.1c-0.4-0.5-0.9-0.9-1.6-1.2c-0.7-0.2-1.4-0.4-2.2-0.4c-0.4,0-0.9,0-1.3,0.1
					c-0.4,0.1-0.8,0.2-1.1,0.3c-0.3,0.1-0.6,0.3-0.9,0.5c-0.3,0.2-0.5,0.4-0.6,0.6c-0.2,0.2-0.3,0.5-0.5,0.8c-0.2-0.4-0.3-0.7-0.5-1
					c-0.2-0.2-0.3-0.4-0.5-0.6c-0.2-0.2-0.5-0.3-0.8-0.5c-0.3-0.1-0.6-0.2-1-0.3c-0.4-0.1-0.7-0.1-1.1-0.1c-0.5,0-1,0.1-1.5,0.2
					c-0.5,0.1-0.9,0.3-1.3,0.5c-0.4,0.2-0.7,0.5-0.9,0.7c-0.2,0.3-0.5,0.6-0.8,1l0.1-2.1c-0.6,0-2.8,0-3.5,0
					c0,1.5-0.5,11.9-0.6,13.3c0.8,0,2.9,0,3.8,0c0-1.1,0-2.7,0.1-4.6c0.1-1.9,0.3-3.3,0.5-3.9c0.2-0.7,0.6-1.2,1-1.6
					c0.5-0.4,1-0.6,1.6-0.6c0.3,0,0.6,0.1,0.9,0.2c0.3,0.1,0.5,0.3,0.7,0.5c0.2,0.2,0.3,0.5,0.4,0.8c0.1,0.3,0.1,0.6,0.1,1
					c0,0.7-0.1,2.1-0.2,4.2c-0.1,2.1-0.2,3.5-0.3,4.1c0.8,0,3,0,3.8,0l0.1-3.6c0-1.3,0.1-2.4,0.2-3.2c0.1-0.8,0.2-1.4,0.3-1.9
					c0.1-0.4,0.4-0.8,0.6-1.2c0.3-0.3,0.6-0.6,0.9-0.7c0.3-0.1,0.7-0.2,1.1-0.2c0.4,0,0.7,0.1,1,0.2c0.3,0.1,0.6,0.4,0.7,0.7
					c0.2,0.3,0.3,0.8,0.3,1.4c0,0.5,0,1.2-0.1,1.9l-0.2,3c-0.1,1.2-0.1,2.4-0.2,3.5c0.8,0,3.1,0,3.7,0c0-1,0.1-2.4,0.1-4.3
					c0.1-1.8,0.2-3.2,0.2-4c0.1-0.8,0.1-1.4,0.1-1.8C183.3,70.3,183.1,69.6,182.7,69.1z"/>
			</g>
		</g>
		<g id="形状_2_copy_3_副本_5_57_">
			<g>
				<path fill-rule="evenodd" clip-rule="evenodd" fill="#FF6600" d="M36.6,25.8c5.6,0,11.2,0,16.7,0c0,8.3,0,17,0,24.7
					c0,0.5-0.6,1.2-1.3,1.2c-0.9,0-1.3,0-2.3,0v4c1.3,0,2.4,0,3.6,0c3.2,0,5.4-1.6,5.4-4.2c0-6.4,0-19.2,0-25.7h1.9V22h-24V25.8z
					 M122.1,43.7c-1.5,0-3.9,1.5-3.9,3.9c4.8,0,12.6-0.1,17.8-0.1c0,1,0,2,0,3.2c1.8,0,1.1,0,2.9,0c1,0,2.5-0.9,2.5-2.5
					c0-4.2,0-7.6,0-11.8c-0.8,0-1.7,0-2.4,0c0-3.2,0-9.9,0-12.3c0-1-1-2.1-2.2-2.1h-17.5v3.9h13.5c0,3.5,0,7,0,10.5
					c-3.2,0-3.7,0-6.5,0c-0.4,0-0.8-0.4-0.8-0.7c0-1.8,0-4.6,0-6.9c0-0.5-0.5-1.2-1.4-1.2h-4v9.3c0,1.8,1.6,3.3,3.3,3.3
					c0,0,6.9,0,12.6,0v3.5H122.1z M50.8,44.8c0-4.4,0-10.6,0-16.7H36.9v21.2c4.1,0,9.2,0,9.2,0C49.6,49.4,50.8,47.4,50.8,44.8z
					 M44.9,45.5c-1,0-2.1,0-3.5,0V32.2c1.5,0,3.2,0,4.7,0c0,4,0,8.5,0,12C46.1,45,45.7,45.5,44.9,45.5z M21,22.9
					c0,7.6,0,17.6,0,32.9h5.2c0-9.6,0-20.1,0-30c1.2,0,2.6,0,3.9,0c0,5.7,0,10.9,0,16.3c0,2.2-1.9,3-1.9,3v4.3
					c3.6,0,6.9-3.7,6.9-7.1c0-6.2,0-14,0-20.3c-4.7,0-8.2,0-12.9,0C20.9,22,21,22.9,21,22.9z M181.5,36.4c0-3.2,0-9.9,0-12.3
					c0-1-1-2.1-2.2-2.1h-17.5v3.9c4.5,0,9,0,13.5,0v10.5c-3.2,0-3.7,0-6.5,0c-0.4,0-0.8-0.4-0.8-0.7c0-1.8,0-4.6,0-6.9
					c0-0.5-0.5-1.1-1.4-1.1c-1.1,0-2.7,0-4,0v9.3c0,1.8,1.6,3.3,3.3,3.3c0,0,6.9,0,12.6,0v3.5h-13.8c-1.5,0-4,1.4-4,3.8
					c4.8,0,12.5,0,17.7,0v3.6c0,0.6-0.5,0.9-1.2,0.9h-2c0,1.7,0,2.7,0,3.8h3.1c0.9,0,0.7,0,1.7,0c2.6,0,3.8-1.9,3.7-3.4
					c0-4.9,0-11.2,0-16.1C183,36.4,182.2,36.4,181.5,36.4z M156.6,49.4c1.9-2.1,2.9-4.5,3.1-9.1c0-5.1,0-9.9,0-14.9
					c0-0.4-0.5-1-1.1-1c-1.9,0-4.5,0-6.6,0V22H147c0,0.8,0,1.6,0,2.3c-0.5,0-1.2,0-1.7,0v3.9h1.7v12c0,4.7,1.5,7,3.4,9.1
					c-2.3,1.6-4.6,2.6-7.7,2.6c-0.4,0-0.9,0-1.3,0c-4.8,0-10.7,0-15.8,0c-4.8,0-9.5-0.9-11.3-3c1.7-2.2,2.5-4.1,3-8.7
					c0-4.7,0-8.6,0-14.6c-0.1-0.7-0.7-1.2-1.2-1.3c-2,0-4.1,0-6.6,0V22c-2.1,0-2.9,0-5,0v2.3c-0.6,0-1,0-1.7,0v3.9
					c0.8,0,1.2,0,1.7,0c0,4,0,8.4,0,12c0.4,4.7,1.9,6.2,3.7,8.9c-2.6,1.8-5.8,2.6-9.5,2.8c-4.4,0-8.4,0-14,0c0-1,0-2.3,0-3h14v-4.1
					h-14c0-1,0-2,0-3c4,0,9.3,0,10.5,0c0,0,3.4,0,3.4-3.7c0-3.9,0-10.9,0-16.2c-11,0-22.2,0-33.3,0c-0.5,0-1.1,0.6-1.1,1
					c0,0.8,0,13.1,0,18.9c4.7,0,9.3,0,14,0v3h-14c0,1.3,0,2.7,0,4.1h13.9c0,1,0,2,0,3H61.9c0,1.1,0,2.6,0,3.8c12.3,0,27.4,0,39.3,0
					c3.2,0,7.2-1.7,10.1-3.3c3.6,2.8,7.6,3.3,14.2,3.3c2,0,4.2,0,6.7,0c3.4,0,6.5,0,9.2,0c5.5,0,9-1.2,12.5-3.2
					c3.1,1.9,6.1,3,11,3.2v0h7.4v-3.8h-7.4C161.5,51.6,158.8,51.1,156.6,49.4z M78.2,38h-8.6V34h8.6V38z M78.2,29.9h-8.6v-4.1
					c2.9,0,5.7,0,8.6,0V29.9z M84.7,25.8h8.6v4.1h-8.6V25.8z M84.7,34c2.9,0,5.7,0,8.6,0c0,1.6,0,2.9,0,4.1h-8.6
					C84.7,36.9,84.7,35.3,84.7,34z M112.4,40.2c-0.2,2.7-0.6,3.3-1.3,5.1c-0.8-1.6-1.5-2.4-1.7-5.1c0-3.5,0-8.4,0-12h3V40.2z
					 M155,40.2c-0.1,2.5-0.7,3.7-1.4,5.1c-0.8-1.3-1.5-2.7-1.5-5.1c0-3.7,0-8.2,0-12h2.9C155,32,155,36.5,155,40.2z"/>
			</g>
		</g>
	</g>
	<g>
		<rect x="77.5" y="106.4" fill="#333333" width="7.3" height="2.5"/>
		<polygon fill="#333333" points="76.9,104 74.2,111.4 77.6,111.4 80.3,104 		"/>
		<rect x="74.6" y="111.8" fill="#333333" width="9.2" height="2.4"/>
		<rect x="74" y="118" fill="#333333" width="10.3" height="2.4"/>
		<rect x="77.2" y="113.9" fill="#333333" width="3.6" height="13.1"/>
		<polygon fill="#333333" points="84.1,124.2 84.1,127 77.2,129.6 77.2,126.6 		"/>
		<rect x="90.6" y="104" fill="#333333" width="3.6" height="12.3"/>
		<rect x="93.9" y="108.5" fill="#333333" width="7" height="2.4"/>
		<path fill="#333333" d="M99.9,116.2H85.6v2v0.4v8.9v0.3v1.8h10.7h0.5c1.7,0,3-1.4,3-3c0,0,0-7.9,0-7.9h0V116.2z M96.4,126.5v1H89
			v-8.9h7.3V126.5z"/>
		<rect x="104.2" y="104.9" fill="#333333" width="25.8" height="2.7"/>
		<polygon fill="#333333" points="112.7,107.6 102.7,122.3 106.8,122.3 116.8,107.6 		"/>
		<rect x="112.1" y="113.8" fill="#333333" width="13.2" height="2.6"/>
		<rect x="108.7" y="114.3" fill="#333333" width="3.6" height="12.4"/>
		<rect x="108.7" y="126.6" fill="#333333" width="15.7" height="2.6"/>
		<rect x="124.4" y="113.8" fill="#333333" width="3.6" height="11.9"/>
		<path fill="#333333" d="M124.5,122.3c0,0-0.1,0-0.1,0v4.3h-3.2c0.4,1.5,1.7,2.6,3.3,2.6c1.9,0,3.4-1.5,3.4-3.4
			C127.9,123.8,126.4,122.3,124.5,122.3z"/>
		<rect x="134" y="104" fill="#333333" width="23.1" height="2.4"/>
		<rect x="134" y="106" fill="#333333" width="3.6" height="15.6"/>
		<rect x="137.3" y="108.7" fill="#333333" width="16.3" height="2.2"/>
		<path fill="#333333" d="M157.1,105.9h-1c-0.5-0.4-1.1-0.7-1.8-0.7v0.7h-0.6v1.8v0.1v3.1h0.6c1.6,0,2.9-1.3,2.9-2.9
			c0-0.1,0-0.1,0-0.2h0V105.9z"/>
		<rect x="137.4" y="113.5" fill="#333333" width="19.8" height="2"/>
		<rect x="137.5" y="118.4" fill="#333333" width="19.8" height="2.1"/>
		<rect x="141.8" y="110.8" fill="#333333" width="3.5" height="8.6"/>
		<rect x="149.3" y="110.4" fill="#333333" width="3.5" height="8.6"/>
		<rect x="139.5" y="120.5" fill="#333333" width="3.5" height="6.7"/>
		<polygon fill="#333333" points="147.2,125.3 139.5,126.7 139.5,129.6 147.2,127.8 		"/>
		<polygon fill="#333333" points="145.5,121 149.8,121 157.2,129.6 153,129.6 		"/>
		<polygon fill="#333333" points="153.8,121 157.6,121 153.8,125.9 151.7,123.6 		"/>
		<polyline fill="#333333" points="134,121.5 132.5,129 136,129 137.6,121.5 		"/>
		<rect x="175.7" y="104" fill="#333333" width="4.3" height="3.6"/>
		<rect x="168.7" y="107.3" fill="#333333" width="15.5" height="2.5"/>
		<rect x="168.2" y="127.3" fill="#333333" width="19.3" height="2.3"/>
		<polygon fill="#333333" points="170.5,111.9 174.2,111.9 176.5,127.3 172.9,127.3 		"/>
		<polygon fill="#333333" points="181.1,111.9 184.8,111.9 182.4,127.3 178.8,127.3 		"/>
		<rect x="163.8" y="111" fill="#333333" width="3.5" height="18.6"/>
		<polygon fill="#333333" points="165.8,104 159.8,115.7 163.6,115.7 169.4,104 		"/>
		<path fill="#333333" d="M181.7,107.3c0,1.4,1.2,2.5,2.5,2.5c1.4,0,2.5-1.1,2.5-2.5H181.7z"/>
		<g>
			<path fill="#999999" d="M77,143c0,1-0.3,1.5-1,1.5c-0.3,0-0.6,0-1,0c0,0,0-0.1,0-0.1c0-0.3-0.1-0.5-0.1-0.6c0.1,0,0.2,0,0.3,0
				c0.2,0,0.4,0,0.5,0c0.3,0,0.5-0.3,0.5-0.8c0-0.7-0.3-1.5-1-2.3c0.2-0.6,0.5-1.5,0.8-2.8h-1.2v8.2h-0.7v-8.9h2.8v0.7
				c-0.5,1.4-0.7,2.3-0.8,2.6C76.7,141.4,77,142.3,77,143z M77.3,137.4h6v0.7h-0.9v6.5c0.1,1-0.4,1.5-1.4,1.4c-0.3,0-0.7,0-1.4,0
				c0-0.1-0.1-0.3-0.1-0.5c-0.1-0.2-0.1-0.3-0.1-0.3c0.4,0,0.9,0,1.4,0c0.5,0,0.8-0.2,0.8-0.6v-6.5h-4.3V137.4z M77.6,139.4h3v4.2
				h-3V139.4z M78.3,140.1v2.8h1.6v-2.8H78.3z"/>
			<path fill="#999999" d="M89.2,143.1H93V142h-3.5v-4.8h7.7v4.8h-3.5v1.1h3.8v0.7h-3.8v1.2h4.5v0.6h-9.6V145H93v-1.2h-3.8V143.1z
				 M90.3,137.9v1.4H93v-1.4H90.3z M90.3,139.9v1.4H93v-1.4H90.3z M96.5,137.9h-2.8v1.4h2.8V137.9z M93.7,139.9v1.4h2.8v-1.4H93.7z"
				/>
			<path fill="#999999" d="M107.4,144.7l-0.6,0.5c-0.2-0.1-0.4-0.3-0.7-0.6c-0.1-0.1-0.2-0.2-0.3-0.3c-0.4,0.6-1,1.2-1.8,1.9
				c-0.1-0.2-0.3-0.4-0.4-0.6c0.7-0.5,1.3-1.1,1.8-1.8c-0.2-0.1-0.4-0.3-0.7-0.6c-0.3-0.3-0.5-0.5-0.7-0.6c0.2-0.6,0.4-1.5,0.6-2.9
				h-0.9v-0.7h1c0.1-0.4,0.1-0.9,0.2-1.7c0-0.2,0-0.3,0-0.4l0.8,0.1c0,0.3-0.1,0.7-0.2,1.2c-0.1,0.3-0.1,0.6-0.1,0.8h1.7v0.7
				c-0.2,1.8-0.5,3.1-1,4C106.6,143.9,107,144.3,107.4,144.7z M106.4,139.5h-1.2c-0.2,1-0.3,1.9-0.6,2.7c0.2,0.1,0.4,0.3,0.6,0.6
				c0.1,0.1,0.2,0.2,0.3,0.3C106,142.1,106.3,141,106.4,139.5z M107.2,143.2h4.3v0.7h-4.3V143.2z M108.9,138.4l-0.2,2.8h2.4l0.3-3.4
				h-4v-0.7h4.8l-0.4,4.1h1c-0.1,1.7-0.1,2.8-0.2,3.4c-0.1,0.9-0.6,1.4-1.6,1.4c-0.6,0-1.2,0-1.6,0c0-0.2-0.1-0.3-0.1-0.6
				c0-0.1,0-0.2,0-0.3c0.2,0,0.7,0,1.6,0c0.6,0,0.9-0.3,0.9-0.8c0.1-0.5,0.1-1.4,0.2-2.6h-4.2l0.3-3.4H108.9z"/>
			<path fill="#999999" d="M122.3,144.7l-0.6,0.5c-0.2-0.1-0.4-0.3-0.7-0.6c-0.1-0.1-0.2-0.2-0.3-0.3c-0.4,0.6-1,1.2-1.8,1.9
				c-0.1-0.2-0.3-0.4-0.4-0.6c0.7-0.5,1.3-1.1,1.8-1.8c-0.2-0.1-0.4-0.3-0.7-0.6c-0.3-0.3-0.5-0.5-0.7-0.6c0.2-0.6,0.4-1.5,0.6-2.9
				h-0.9v-0.7h1c0.1-0.4,0.1-0.9,0.2-1.7c0-0.2,0-0.3,0-0.4l0.8,0.1c0,0.3-0.1,0.7-0.2,1.2c-0.1,0.3-0.1,0.6-0.1,0.8h1.7v0.7
				c-0.2,1.8-0.5,3.1-1,4C121.5,143.9,121.9,144.3,122.3,144.7z M121.3,139.5h-1.2c-0.2,1-0.3,1.9-0.6,2.7c0.2,0.1,0.4,0.3,0.6,0.6
				c0.1,0.1,0.2,0.2,0.3,0.3C121,142.1,121.2,141,121.3,139.5z M122.2,143.2h4.3v0.7h-4.3V143.2z M123.9,138.4l-0.2,2.8h2.4l0.3-3.4
				h-4v-0.7h4.8l-0.4,4.1h1c-0.1,1.7-0.1,2.8-0.2,3.4c-0.1,0.9-0.6,1.4-1.6,1.4c-0.6,0-1.2,0-1.6,0c0-0.2-0.1-0.3-0.1-0.6
				c0-0.1,0-0.2,0-0.3c0.2,0,0.7,0,1.6,0c0.6,0,0.9-0.3,0.9-0.8c0.1-0.5,0.1-1.4,0.2-2.6h-4.2l0.3-3.4H123.9z"/>
			<path fill="#999999" d="M133.5,138.3h3.4v0.6h-1.8c0,0.5,0,0.9,0,1.4h1.7c0,1.8,0,3.2-0.1,4.1c0,1-0.4,1.5-1.2,1.4
				c-0.4,0-0.7,0-0.8,0c0-0.2-0.1-0.4-0.1-0.7c0.4,0,0.6,0,0.8,0c0.4,0,0.6-0.2,0.6-0.7c0.1-0.6,0.1-1.8,0.1-3.5h-1
				c0,0.2,0,0.5,0,0.7c0,2-0.4,3.5-1.2,4.4c-0.1-0.2-0.3-0.3-0.5-0.6c0.6-0.7,1-2,1-3.8c0-0.3,0-0.7,0-1.4c0-0.6,0-1.1,0-1.4h-0.9
				V138.3z M134.7,136.9l0.6-0.3c0.1,0.1,0.1,0.2,0.2,0.4c0.2,0.4,0.3,0.7,0.4,0.9l-0.7,0.2C135.1,137.8,135,137.4,134.7,136.9z
				 M139,144.3l0.5,0.5c-0.1,0.1-0.2,0.1-0.3,0.2c-0.7,0.5-1.3,0.9-1.8,1.2c-0.1-0.2-0.3-0.4-0.5-0.6
				C137.6,145.2,138.3,144.8,139,144.3z M137.1,138.7c0.5-0.5,0.9-1.2,1.3-2.1l0.7,0.2c-0.1,0.1-0.2,0.3-0.3,0.6
				c-0.1,0.1-0.1,0.2-0.1,0.2h4.3v0.7h-4.7c-0.2,0.3-0.4,0.6-0.7,1c0,0-0.1-0.1-0.1-0.1C137.3,139,137.1,138.8,137.1,138.7z
				 M138.1,138.7h0.7v0.8h2.4v-0.8h0.7v0.8h1v0.6h-1v3.5h1.2v0.6h-5.9v-0.6h1v-3.5h-1v-0.6h1V138.7z M138.8,140.1v0.8h2.4v-0.8
				H138.8z M138.8,141.5v0.7h2.4v-0.7H138.8z M138.8,142.9v0.8h2.4v-0.8H138.8z M140.5,144.8l0.4-0.5c0.6,0.4,1.3,0.9,2,1.3
				l-0.5,0.6C141.8,145.7,141.2,145.2,140.5,144.8z"/>
			<path fill="#999999" d="M153.4,140c1.5,0.8,2.8,1.5,3.9,2.1l-0.5,0.8c-1.4-0.9-2.7-1.6-3.7-2.1v5.3h-0.8v-7.9h-3.9v-0.8h9.4v0.8
				h-4.8v2.3L153.4,140z"/>
			<path fill="#999999" d="M164.3,140.6h4.6c0.4-0.5,0.8-1.1,1.2-1.9l0.7,0.5c-0.4,0.6-0.8,1.1-1.1,1.4h2.9v0.7h-7.5v0.7
				c0.1,1.8-0.4,3.3-1.3,4.3c-0.2-0.2-0.3-0.4-0.5-0.6c0.7-0.7,1.1-1.9,1-3.6V140.6z M167.5,136.9l0.8-0.2c0,0.1,0.1,0.2,0.1,0.3
				c0.1,0.4,0.2,0.7,0.3,0.8h4.2v0.7h-9.4v-0.7h4.4C167.8,137.5,167.7,137.2,167.5,136.9z M165.5,139.1l0.7-0.4
				c0.1,0.1,0.1,0.2,0.2,0.4c0.4,0.5,0.7,0.9,0.8,1.1l-0.7,0.5C166.2,139.9,165.8,139.4,165.5,139.1z"/>
			<path fill="#999999" d="M178.8,141.7h3.7v4.4h-0.8v-0.6h-2.2v0.6h-0.7V141.7z M179.5,142.4v2.5h2.2v-2.5H179.5z M179.7,137.1h6.6
				v3.5h-6.6V137.1z M180.5,137.8v2.2h5.1v-2.2H180.5z M183.6,141.7h3.7v4.4h-0.7v-0.6h-2.2v0.6h-0.8V141.7z M184.4,142.4v2.5h2.2
				v-2.5H184.4z"/>
		</g>
		<g>
			<g>
				<polygon fill="#BCD0FF" points="23.7,105 41.6,107.5 59.4,104.9 41.5,103.7 				"/>
				<polygon fill="#6491FF" points="23.7,105 16.3,110.2 20.9,117.5 22.8,111.9 				"/>
				<polygon fill="#4077FF" points="22.8,111.9 32.9,119 41.5,141.5 20.9,117.5 				"/>
				<polygon fill="#95B4FF" points="34.6,106.5 22.8,111.9 23.7,105 				"/>
				<polygon fill="#BCD0FF" points="32.9,119 34.6,106.5 22.8,111.9 				"/>
				<polygon fill="#95B4FF" points="34.6,106.5 41.6,112.6 32.9,119 				"/>
				<polygon fill="#95B4FF" points="34.6,106.5 41.6,107.5 48.6,106.5 41.6,112.6 				"/>
				<polygon fill="#6491FF" points="41.6,112.6 32.9,119 41.5,141.5 				"/>
				<polygon fill="#BCD0FF" points="48.6,106.5 41.6,112.6 50.3,118.9 				"/>
				<polygon fill="#4F82FF" points="41.6,112.6 50.3,118.9 41.5,141.5 				"/>
				<polygon fill="#95B4FF" points="48.6,106.5 60.4,111.7 50.3,118.9 				"/>
				<polygon fill="#95B4FF" points="60.4,111.7 62.3,117.5 41.6,141.5 50.3,118.9 				"/>
				<polygon fill="#BCD0FF" points="59.4,104.9 60.4,111.7 62.3,117.5 67,110.1 				"/>
			</g>
			<polygon fill="#7AA1FF" points="59.4,104.9 60.4,111.7 48.6,106.5 			"/>
		</g>
	</g>
</g>
<line fill="none" stroke="#CCCCCC" x1="0.6" y1="0.5" x2="203.2" y2="166.9"/>
</svg>
