<?xml version="1.0" encoding="utf-8"?>
<!-- Generator: Adobe Illustrator 17.1.0, SVG Export Plug-In . SVG Version: 6.00 Build 0)  -->
<!DOCTYPE svg PUBLIC "-//W3C//DTD SVG 1.1//EN" "http://www.w3.org/Graphics/SVG/1.1/DTD/svg11.dtd">
<svg version="1.1" id="图层_1" xmlns="http://www.w3.org/2000/svg" xmlns:xlink="http://www.w3.org/1999/xlink" x="0px" y="0px"
	 viewBox="0 0 580 130" enable-background="new 0 0 580 130" xml:space="preserve">
<g>
	<g id="形状_2_copy_3_副本_5_1_">
		<g>
			<path fill-rule="evenodd" clip-rule="evenodd" fill="#FF6600" d="M58.3,18.6c19.6,0,39.2,0,58.9,0c0,29.3,0,59.6,0,86.9
				c0,1.7-2.2,4.3-4.6,4.4c-3.1,0-4.4,0-8.3,0V124c4.5,0,8.4,0,12.8,0c11.3,0,18.9-5.5,18.9-14.9c0-22.5,0-67.4,0-90.5h6.8V5H58.3
				V18.6z M407.9,106.1c6.3,0,3.9,0,10.2,0c3.6,0,8.7-3.1,8.7-8.8c0-14.9,0-26.6,0-41.6c-2.8,0-5.8,0-8.3,0c0-11.4,0-35,0-43.3
				c0-3.5-3.4-7.3-7.8-7.3H349v13.6h47.5c0,12.3,0,24.8,0,37.1c-11.3,0-13,0-22.9,0c-1.3,0-2.7-1.4-2.7-2.5c0-6.2,0-16.2,0-24.4
				c0-1.9-1.9-4.1-4.9-4.1h-14v32.8c0,6.4,5.5,11.6,11.6,11.6c0,0,24.2,0,44.3,0v12.2h-49c-5.4,0-13.8,5.1-13.8,13.7
				c17,0,44.3-0.4,62.7-0.4C407.9,98.2,407.9,101.9,407.9,106.1z M108.2,85.5c0-15.5,0-37.4,0-58.7h-49v74.6c14.3,0.1,32.5,0,32.5,0
				C104,101.5,108.2,94.5,108.2,85.5z M87.4,87.9c-3.5,0-7.4,0-12.4,0V41.2c5.3,0,11.4,0,16.7,0c0,14.1,0,29.9,0,42.2
				C91.7,85.9,90.1,87.9,87.4,87.9z M3.2,8.4c0,26.8,0,61.8,0,115.6h18.1c0-33.7,0-70.5,0-105.4c4.3,0,9.3,0,13.6,0
				c0,20.2,0,38.4,0,57.2c0,7.8-6.8,10.5-6.8,10.6v15c12.8,0,24.2-13.1,24.2-25.1c0-21.7,0-49.4,0-71.2C35.9,5,23.4,5,7,5
				C3.1,5,3.2,8.4,3.2,8.4z M567.9,55.7c0-11.4,0-35,0-43.4c0-3.5-3.4-7.3-7.8-7.3h-61.6v13.6c15.8,0,31.7,0,47.5,0v37.1
				c-11.3,0-13.1,0-22.9,0c-1.3,0-2.7-1.4-2.7-2.5c0-6.2,0-16.2,0-24.4c0-1.9-1.9-4-4.9-4c-3.9,0-9.5,0-14,0v32.7
				c0,6.4,5.5,11.6,11.6,11.6c0,0,24.2,0,44.3,0v12.2h-48.4c-5.4,0-14.1,4.8-14.1,13.4c17,0,43.9,0,62.4,0v12.6
				c0,2.1-1.7,3.1-4.1,3.1H546c0,6.1,0,9.5,0,13.5h11c3.3,0,2.6,0.1,6,0.1c9.2,0,13.2-6.6,13.1-11.8c0-17.1,0.1-39.5,0.1-56.6
				C573.3,55.7,570.4,55.7,567.9,55.7z M480.4,101.4c6.6-7.3,10.2-15.8,11-32.2c0-17.8,0-35,0-52.5c0-1.5-1.9-3.4-3.7-3.4
				c-6.9,0-15.7,0-23.2,0V5.1h-18.1c0,2.8,0,5.5,0,8.2c-1.9,0-4.2,0-6.1,0v13.6h6.1v42.4c0,16.4,5.4,24.6,12.1,32.2
				c-8,5.5-16.1,9-27.2,9c-1.5,0-3.1,0-4.7,0c-17,0-37.6,0.1-55.7,0.1c-17,0-33.4-3.1-39.6-10.6c5.8-7.9,8.9-14.3,10.7-30.7
				c0.1-16.4,0.1-30.4,0-51.4c-0.3-2.3-2.3-4.3-4.3-4.5c-7.1,0-14.3,0-23.2,0V5.1c-7.4,0-10.2,0-17.7,0v8.2c-2,0-3.5,0-6,0v13.6
				c2.7,0,4.1,0,6,0c0,14,0.1,29.5,0.1,42.3c1.4,16.4,6.6,21.8,12.9,31.4c-9.2,6.4-20.4,9.2-33.4,9.9c-15.6,0-29.5,0-49.1,0
				c0-3.3,0-8.2,0-10.6h49.1V85.6h-49.1c0-3.4,0-7.1,0-10.5c14.1,0,32.7,0,37,0c0,0,11.9,0,12.1-13.2c0.2-13.8,0-38.5,0-56.9
				c-38.8,0-78.2,0-117.1,0c-1.9,0-3.7,2-3.7,3.5c0,2.8,0,46.2,0,66.6c16.4,0,32.8,0,49.1,0v10.5h-49.1c0,4.4,0,9.6,0,14.3h49
				c0,3.5,0,7.1,0,10.6h-57.4c0,3.9,0,9.1,0,13.5c43.1,0,96.4,0.2,138.2,0c11.3,0,25.3-5.9,35.4-11.7c12.7,9.8,26.7,11.8,49.9,11.7
				c7.1,0,14.9,0,23.5,0c12.1,0,22.9,0,32.4,0c19.5,0,31.8-4.1,43.8-11.2c11,6.6,21.5,10.7,38.6,11.2v0h26v-13.5h-26
				C497.5,109.4,487.9,107.6,480.4,101.4z M204.6,61.5h-30.2V47.2h30.2V61.5z M204.7,32.9h-30.2V18.6c10.1,0,20.1,0,30.2,0V32.9z
				 M227.4,18.6h30.2v14.3h-30.2V18.6z M227.4,47.2c10.1,0,20.1,0,30.2,0c0,5.7,0,10.2,0,14.3h-30.2
				C227.3,57.7,227.3,51.8,227.4,47.2z M325,69.2c-0.7,9.4-2.1,11.7-4.4,17.9c-2.9-5.8-5.2-8.5-6-17.9c0-12.3,0-29.4,0-42.3H325
				V69.2z M474.6,69.2c-0.4,8.8-2.4,13-4.8,17.9c-2.9-4.7-5.3-9.6-5.3-17.9c0-13.1,0-28.9,0-42.4h10.1
				C474.6,40.4,474.6,56,474.6,69.2z"/>
		</g>
	</g>
</g>
</svg>
