<?xml version="1.0" encoding="utf-8"?>
<!-- Generator: Adobe Illustrator 17.1.0, SVG Export Plug-In . SVG Version: 6.00 Build 0)  -->
<!DOCTYPE svg PUBLIC "-//W3C//DTD SVG 1.1//EN" "http://www.w3.org/Graphics/SVG/1.1/DTD/svg11.dtd">
<svg version="1.1" id="图层_1" xmlns="http://www.w3.org/2000/svg" xmlns:xlink="http://www.w3.org/1999/xlink" x="0px" y="0px"
	 viewBox="0 0 586.3 66.3" enable-background="new 0 0 586.3 66.3" xml:space="preserve">
<g id="形状_2_copy_3_副本_4_4_">
	<g>
		<path fill-rule="evenodd" clip-rule="evenodd" fill="#FF6600" d="M32.8,0.1C21.6,22,11.6,41.5,0,64.5h15.7
			c2.9-5.5,4.5-8.8,8.1-15.3c8.2,0,14.4,0,22.6,0c-1.7-4.8-2.8-8.4-4.2-12.3H29.7c3.7-7.3,5.8-11.5,11.3-21.5
			c5.8,16.9,11.8,33.7,17.4,49.1h14.4C64.7,42,57.8,22.4,50.2,0.1H32.8z M76.4,64.5H90L93,0L79.5,0L76.4,64.5z M97.8,64.5h14.4
			l1.8-48h-13.8L97.8,64.5z M100.8,0l-0.4,10.3c0,0,10.5,0.1,13.5,0L114.4,0C102.3,0,102.2,0,100.8,0z M188.6,16.7
			c-2.4-0.9-5-1.3-7.8-1.3c-1.6,0-3.2,0.1-4.7,0.4c-1.5,0.3-2.8,0.7-4,1.3c-1.2,0.5-2.3,1.2-3.3,2c-1,0.8-1.8,1.6-2.3,2.3
			c-0.6,0.7-1.2,1.7-1.9,2.8c-0.6-1.5-1.2-2.7-1.7-3.4c-0.5-0.8-1.2-1.5-2-2.1c-0.8-0.6-1.7-1.2-2.8-1.7c-1.1-0.5-2.3-0.9-3.6-1.1
			c-1.3-0.3-2.7-0.4-4.1-0.4c-1.9,0-3.7,0.2-5.5,0.7c-1.8,0.5-3.3,1.1-4.7,1.9c-1.3,0.8-2.4,1.6-3.2,2.6c-0.8,0.9-1.8,2.1-2.8,3.6
			l0.4-7.6h-12.8l-2.1,48c0,0,10.6-0.1,13.5,0c0-4.1,0.2-9.7,0.5-16.7c0.3-7,0.9-11.7,1.7-14.2c0.8-2.4,2-4.4,3.7-5.8
			c1.7-1.4,3.6-2.2,5.8-2.2c1.2,0,2.3,0.2,3.2,0.6c0.9,0.4,1.7,1,2.4,1.9c0.7,0.9,1.1,1.8,1.4,2.7c0.2,1,0.3,2.1,0.3,3.5
			c0,2.6-0.2,7.7-0.6,15.2c-0.4,7.5-0.7,12.5-0.9,14.9c2.9-0.1,10.9-0.1,13.5,0l0.3-13.1c0.2-4.7,0.4-8.5,0.6-11.4
			c0.3-2.9,0.6-5.1,1.2-6.7c0.5-1.6,1.3-3,2.3-4.2c1-1.2,2.1-2.1,3.2-2.6c1.1-0.5,2.4-0.8,3.9-0.8c1.4,0,2.6,0.2,3.7,0.7
			c1.1,0.5,2,1.3,2.7,2.5c0.7,1.2,1.1,2.9,1.1,5.1c0,1.9-0.1,4.2-0.2,7l-0.6,10.8c-0.3,4.4-0.5,8.7-0.8,12.8
			c2.8-0.1,11.2-0.1,13.5,0c0-3.6,0.2-8.8,0.5-15.4c0.3-6.6,0.6-11.4,0.8-14.3c0.2-2.9,0.3-5.2,0.3-6.7c0-2.9-0.7-5.3-2.1-7.2
			C193,19,191,17.6,188.6,16.7z M239.7,16.5c-2.9-0.8-6.1-1.2-9.6-1.2c-3.1,0-6.2,0.2-9.5,0.6c-3.3,0.4-11.4,2.1-11.4,2.1l-1.4,8.9
			c0,0,13.3-4.1,19.1-4.1c1.5,0,3,0.2,4.3,0.5c1.3,0.3,2.3,0.9,3.1,1.8c0.8,0.9,1.2,1.9,1.2,3.1c0,0.6-0.1,1.2-0.4,1.8
			c-0.3,0.6-0.7,1.2-1.3,1.7c-0.6,0.6-1.2,1-2,1.3c-0.8,0.3-1.8,0.7-3.1,1.1c-1.3,0.4-2.6,0.7-3.7,0.9c-4.5,1-8.2,1.9-10.9,2.9
			c-2.8,1-4.8,1.9-6.3,3c-1.5,1-2.6,2.1-3.5,3.2c-0.9,1.1-1.6,2.3-2.1,3.6c-0.5,1.3-0.7,2.7-0.7,4c0,2.4,0.6,4.7,1.8,7
			c1.2,2.3,3.1,4,5.7,5.1c2.6,1.1,5.8,1.6,9.8,1.6c1.1,0,2.4,0,3.7-0.1c1.3-0.1,3.1-0.3,5.4-0.7c0.9-3.6,1.7-6.2,2.3-8
			c-1.9,0.6-3.4,1-4.5,1.2c-1.1,0.2-2.2,0.2-3.2,0.2c-1.6,0-2.9-0.2-4.1-0.6c-1.2-0.4-2.1-1-2.9-2c-0.8-1-1.2-2.1-1.2-3.4
			c0-0.8,0.1-1.6,0.5-2.3c0.3-0.7,0.8-1.4,1.4-2c0.7-0.7,1.5-1.2,2.4-1.8c1-0.5,2-1,3.2-1.4c1.2-0.4,2.8-0.9,4.8-1.4
			c2-0.6,3.4-1,4.2-1.2c0.8-0.3,1.5-0.6,2.1-0.9c0.6-0.3,1.6-0.9,2.8-1.7l-1.6,25h13.4c0,0,0.4-15.4,0.9-22.8
			c0.5-7.4,0.8-11.9,0.8-13.7c0-3.3-0.8-5.8-2.5-7.6C244.8,18.6,242.6,17.3,239.7,16.5z M324.1,16.7c-2.4-0.9-5-1.3-7.8-1.3
			c-1.6,0-3.2,0.1-4.7,0.4c-1.5,0.3-2.9,0.7-4,1.3c-1.2,0.5-2.3,1.2-3.3,2c-1,0.8-1.8,1.6-2.3,2.3c-0.6,0.7-1.2,1.7-1.9,2.8
			c-0.6-1.5-1.2-2.7-1.8-3.4c-0.5-0.8-1.2-1.5-2-2.1c-0.8-0.6-1.7-1.2-2.8-1.7c-1.1-0.5-2.3-0.9-3.6-1.1c-1.3-0.3-2.7-0.4-4.1-0.4
			c-1.9,0-3.7,0.2-5.5,0.7c-1.8,0.5-3.3,1.1-4.7,1.9c-1.3,0.8-2.4,1.6-3.3,2.6c-0.8,0.9-1.8,2.1-2.8,3.6l0.4-7.6h-12.8l-2.1,48h13.5
			c0,0,0.2-9.7,0.5-16.7c0.3-7,0.9-11.7,1.7-14.2c0.8-2.4,2-4.4,3.7-5.8c1.7-1.4,3.6-2.2,5.8-2.2c1.2,0,2.2,0.2,3.2,0.6
			c0.9,0.4,1.7,1,2.4,1.9c0.7,0.9,1.1,1.8,1.3,2.7c0.2,1,0.3,2.1,0.3,3.5c0,2.6-0.2,7.7-0.6,15.2c-0.4,7.5-0.7,12.5-0.9,14.9
			c2.9-0.1,10.9-0.1,13.5,0l0.3-13.1c0.2-4.7,0.4-8.5,0.6-11.4c0.3-2.9,0.6-5.1,1.2-6.7c0.5-1.6,1.3-3,2.3-4.2
			c1-1.2,2.1-2.1,3.2-2.6c1.2-0.5,2.4-0.8,3.9-0.8c1.4,0,2.6,0.2,3.7,0.7c1.1,0.5,2,1.3,2.7,2.5c0.7,1.2,1.1,2.9,1.1,5.1
			c0,1.9-0.1,4.2-0.2,7l-0.6,10.8c-0.3,4.4-0.5,8.7-0.8,12.8c2.8-0.1,11.1-0.1,13.5,0c0-3.6,0.2-8.8,0.5-15.4
			c0.3-6.6,0.6-11.4,0.8-14.3c0.2-2.9,0.3-5.2,0.3-6.7c0-2.9-0.7-5.3-2.1-7.2C328.5,19,326.6,17.6,324.1,16.7z M375.2,16.5
			c-2.9-0.8-6.1-1.2-9.6-1.2c-3.1,0-6.2,0.2-9.5,0.6c-3.3,0.4-11.4,2.1-11.4,2.1l-1.4,8.9c0,0,13.3-4.1,19.1-4.1
			c1.5,0,3,0.2,4.2,0.5c1.3,0.3,2.3,0.9,3.1,1.8c0.8,0.9,1.2,1.9,1.2,3.1c0,0.6-0.1,1.2-0.4,1.8c-0.3,0.6-0.7,1.2-1.3,1.7
			c-0.6,0.6-1.2,1-2,1.3c-0.8,0.3-1.8,0.7-3.1,1.1c-1.3,0.4-2.5,0.7-3.7,0.9c-4.5,1-8.1,1.9-10.9,2.9c-2.8,1-4.9,1.9-6.3,3
			c-1.5,1-2.6,2.1-3.6,3.2c-0.9,1.1-1.6,2.3-2.1,3.6c-0.5,1.3-0.7,2.7-0.7,4c0,2.4,0.6,4.7,1.8,7c1.2,2.3,3.1,4,5.7,5.1
			c2.6,1.1,5.8,1.6,9.8,1.6c1.1,0,2.4,0,3.7-0.1c1.3-0.1,3.1-0.3,5.3-0.7c0.9-3.6,1.7-6.2,2.3-8c-1.9,0.6-3.4,1-4.5,1.2
			c-1.1,0.2-2.2,0.2-3.2,0.2c-1.6,0-2.9-0.2-4.1-0.6c-1.2-0.4-2.1-1-2.9-2c-0.8-1-1.2-2.1-1.2-3.4c0-0.8,0.1-1.6,0.4-2.3
			c0.3-0.7,0.8-1.4,1.5-2c0.7-0.7,1.5-1.2,2.4-1.8c1-0.5,2.1-1,3.3-1.4c1.2-0.4,2.8-0.9,4.8-1.4c2-0.6,3.4-1,4.2-1.2
			c0.8-0.3,1.5-0.6,2.1-0.9c0.6-0.3,1.6-0.9,2.8-1.7l-1.6,25h13.4c0,0,0.4-15.4,0.9-22.8c0.5-7.4,0.8-11.9,0.8-13.7
			c0-3.3-0.8-5.8-2.5-7.6C380.4,18.6,378.1,17.3,375.2,16.5z M390.3,51.8c-0.2,6.2-0.4,10.4-0.5,12.7c4.4-0.1,13.3,0,13.3,0
			s0.5-10.4,0.7-12.7C400.2,51.9,390.3,51.8,390.3,51.8z M425.5,29.6c1.4-1.6,3-2.7,4.9-3.4c1.9-0.7,3.9-1.1,6.1-1.1
			c3.5,0,7.6,0.8,12.3,2.4l-0.7-10.3c-3-0.7-5.5-1.2-7.7-1.4c-2.2-0.2-4.3-0.3-6.3-0.3c-3.7,0-7.1,0.4-10.1,1.2
			c-3,0.8-5.8,2.4-8.2,4.7c-2.5,2.3-4.3,5.3-5.6,9c-1.3,3.6-1.9,7.5-1.9,11.4c0,3,0.4,5.9,1.2,8.7c0.8,2.8,1.9,5.2,3.5,7.2
			c1.5,2,3.3,3.6,5.4,4.8c2,1.2,4.2,2.1,6.6,2.5c2.4,0.5,4.8,0.7,7.4,0.7c4.4,0,8.8-0.5,13.3-1.6c0.3-2.4,0.7-4.4,1-6.1
			c0.3-1.6,0.5-3.1,0.7-4.4c-2.3,0.8-4.4,1.4-6.5,1.8c-2,0.4-3.8,0.5-5.2,0.5c-2.9,0-5.5-0.6-7.8-1.8c-2.3-1.2-3.9-2.9-4.8-5.1
			c-0.9-2.2-1.4-4.8-1.4-7.8c0-2.2,0.3-4.2,0.9-6.3C423.1,32.9,424.1,31.1,425.5,29.6z M497.6,21.8c-2.3-2.1-5.2-3.7-8.5-4.8
			c-3.3-1.1-6.8-1.6-10.4-1.6c-3.9,0-7.7,0.7-11.4,2c-3.7,1.4-6.7,3.3-9,5.7c-2.4,2.5-4.1,5.3-5.2,8.4c-1.1,3.2-1.7,6.5-1.7,9.9
			c0,3.4,0.6,6.7,1.8,9.8c1.2,3.1,3,5.8,5.3,7.9c2.3,2.2,5.2,3.8,8.4,4.9c3.3,1.1,6.8,1.6,10.4,1.6c3.9,0,7.7-0.6,11.2-1.8
			c3.5-1.2,6.4-3,8.7-5.5c2.3-2.4,4.1-5.3,5.4-8.7c1.2-3.3,1.8-6.8,1.8-10.4c0-3.4-0.6-6.6-1.8-9.7C501.7,26.5,500,23.9,497.6,21.8z
			 M489.6,48.1c-1.1,2.7-2.6,4.7-4.7,6c-2.1,1.4-4.5,2.1-7.3,2.1c-2.7,0-5-0.7-7-2c-2-1.3-3.4-3.1-4.2-5.2c-0.9-2.1-1.3-4.6-1.3-7.3
			c0-3.1,0.5-6,1.6-8.6c1.1-2.7,2.7-4.6,4.8-6c2.2-1.3,4.6-2,7.3-2c2.8,0,5.1,0.6,7.1,1.9c1.9,1.3,3.3,3,4.1,5.2
			c0.8,2.1,1.2,4.5,1.2,7.1C491.1,42.5,490.6,45.4,489.6,48.1z M582.4,20.9c-1.4-1.9-3.3-3.4-5.7-4.3c-2.4-0.9-5-1.3-7.8-1.3
			c-1.6,0-3.2,0.1-4.7,0.4c-1.5,0.3-2.9,0.7-4.1,1.3c-1.2,0.5-2.3,1.2-3.3,2c-1,0.8-1.8,1.6-2.3,2.3c-0.6,0.7-1.2,1.7-1.9,2.8
			c-0.6-1.5-1.2-2.7-1.7-3.4c-0.5-0.8-1.2-1.5-2-2.1c-0.8-0.6-1.7-1.2-2.8-1.7c-1.1-0.5-2.3-0.9-3.6-1.1c-1.3-0.3-2.7-0.4-4.1-0.4
			c-1.9,0-3.7,0.2-5.5,0.7c-1.8,0.5-3.3,1.1-4.7,1.9c-1.3,0.8-2.4,1.6-3.2,2.6c-0.8,0.9-1.8,2.1-2.8,3.6l0.4-7.6
			c-2.2,0.1-10.1,0.1-12.8,0c0,5.4-1.7,42.7-2.1,48c3-0.1,10.6-0.1,13.5,0c0-4.1,0.2-9.7,0.5-16.7c0.3-7,0.9-11.7,1.7-14.2
			c0.8-2.4,2-4.4,3.7-5.8c1.7-1.4,3.6-2.2,5.8-2.2c1.2,0,2.3,0.2,3.2,0.6c0.9,0.4,1.7,1,2.4,1.9c0.7,0.9,1.1,1.8,1.4,2.7
			c0.2,1,0.3,2.1,0.3,3.5c0,2.6-0.2,7.7-0.6,15.2c-0.4,7.5-0.7,12.5-0.9,14.9c2.9-0.1,10.9-0.1,13.5,0l0.3-13.1
			c0.2-4.7,0.4-8.5,0.6-11.4c0.2-2.9,0.6-5.1,1.2-6.7c0.5-1.6,1.3-3,2.3-4.2c1-1.2,2.1-2.1,3.2-2.6c1.2-0.5,2.4-0.8,3.9-0.8
			c1.4,0,2.6,0.2,3.7,0.7c1.1,0.5,2,1.3,2.7,2.5c0.7,1.2,1.1,2.9,1.1,5.1c0,1.9-0.1,4.2-0.2,7l-0.6,10.8c-0.3,4.4-0.5,8.7-0.8,12.8
			c2.8-0.1,11.2-0.1,13.5,0c0-3.6,0.2-8.8,0.5-15.4c0.3-6.6,0.6-11.4,0.8-14.3c0.2-2.9,0.3-5.2,0.3-6.7
			C584.5,25.3,583.8,22.9,582.4,20.9z"/>
	</g>
</g>
</svg>
