<?xml version="1.0" encoding="utf-8"?>
<!-- Generator: Adobe Illustrator 17.1.0, SVG Export Plug-In . SVG Version: 6.00 Build 0)  -->
<!DOCTYPE svg PUBLIC "-//W3C//DTD SVG 1.1//EN" "http://www.w3.org/Graphics/SVG/1.1/DTD/svg11.dtd">
<svg version="1.1" id="图层_1" xmlns="http://www.w3.org/2000/svg" xmlns:xlink="http://www.w3.org/1999/xlink" x="0px" y="0px"
	 viewBox="0 0 69 68.3" enable-background="new 0 0 69 68.3" xml:space="preserve">
<g>
	<g id="形状_2_copy_3_副本_5_8_">
		<g>
			<path fill-rule="evenodd" clip-rule="evenodd" fill="#FF6600" d="M5.3,38.1c1.7,0,3.5,0,5.2,0c0,2.6,0,5.3,0,7.7
				c0,0.2-0.2,0.4-0.4,0.4c-0.3,0-0.4,0-0.7,0v1.3c0.4,0,0.7,0,1.1,0c1,0,1.7-0.5,1.7-1.3c0-2,0-6,0-8.1h0.6v-1.2H5.3V38.1z
				 M32.1,43.7c-0.5,0-1.2,0.5-1.2,1.2c1.5,0,3.9,0,5.6,0c0,0.3,0,0.6,0,1c0.6,0,0.3,0,0.9,0c0.3,0,0.8-0.3,0.8-0.8
				c0-1.3,0-2.4,0-3.7c-0.3,0-0.5,0-0.7,0c0-1,0-3.1,0-3.9c0-0.3-0.3-0.6-0.7-0.6h-5.5v1.2h4.2c0,1.1,0,2.2,0,3.3c-1,0-1.2,0-2,0
				c-0.1,0-0.2-0.1-0.2-0.2c0-0.6,0-1.4,0-2.2c0-0.2-0.2-0.4-0.4-0.4h-1.2v2.9c0,0.6,0.5,1,1,1c0,0,2.2,0,3.9,0v1.1H32.1z M9.8,44
				c0-1.4,0-3.3,0-5.2H5.4v6.6c1.3,0,2.9,0,2.9,0C9.4,45.5,9.8,44.8,9.8,44z M7.9,44.3c-0.3,0-0.7,0-1.1,0v-4.2c0.5,0,1,0,1.5,0
				c0,1.3,0,2.7,0,3.8C8.3,44.1,8.2,44.3,7.9,44.3z M0.4,37.2c0,2.4,0,5.5,0,10.3H2c0-3,0-6.3,0-9.4c0.4,0,0.8,0,1.2,0
				c0,1.8,0,3.4,0,5.1c0,0.7-0.6,0.9-0.6,0.9v1.3c1.1,0,2.2-1.2,2.2-2.2c0-1.9,0-4.4,0-6.3c-1.5,0-2.6,0-4,0
				C0.4,36.9,0.4,37.2,0.4,37.2z M50.7,41.4c0-1,0-3.1,0-3.9c0-0.3-0.3-0.6-0.7-0.6h-5.5v1.2c1.4,0,2.8,0,4.2,0v3.3c-1,0-1.2,0-2,0
				c-0.1,0-0.2-0.1-0.2-0.2c0-0.6,0-1.4,0-2.2c0-0.2-0.2-0.4-0.4-0.4c-0.3,0-0.8,0-1.3,0v2.9c0,0.6,0.5,1,1,1c0,0,2.2,0,3.9,0v1.1
				h-4.3c-0.5,0-1.3,0.4-1.3,1.2c1.5,0,3.9,0,5.6,0V46c0,0.2-0.1,0.3-0.4,0.3h-0.6c0,0.5,0,0.8,0,1.2h1c0.3,0,0.2,0,0.5,0
				c0.8,0,1.2-0.6,1.2-1.1c0-1.5,0-3.5,0-5C51.2,41.4,50.9,41.4,50.7,41.4z M42.9,45.5c0.6-0.6,0.9-1.4,1-2.9c0-1.6,0-3.1,0-4.7
				c0-0.1-0.2-0.3-0.3-0.3c-0.6,0-1.4,0-2.1,0v-0.7h-1.6c0,0.2,0,0.5,0,0.7c-0.2,0-0.4,0-0.5,0v1.2h0.5v3.8c0,1.5,0.5,2.2,1.1,2.9
				c-0.7,0.5-1.4,0.8-2.4,0.8c-0.1,0-0.3,0-0.4,0c-1.5,0-3.3,0-5,0c-1.5,0-3-0.3-3.5-0.9c0.5-0.7,0.8-1.3,1-2.7c0-1.5,0-2.7,0-4.6
				c0-0.2-0.2-0.4-0.4-0.4c-0.6,0-1.3,0-2.1,0v-0.7c-0.7,0-0.9,0-1.6,0v0.7c-0.2,0-0.3,0-0.5,0v1.2c0.2,0,0.4,0,0.5,0
				c0,1.2,0,2.6,0,3.8c0.1,1.5,0.6,1.9,1.2,2.8c-0.8,0.6-1.8,0.8-3,0.9c-1.4,0-2.6,0-4.4,0c0-0.3,0-0.7,0-0.9h4.4v-1.3h-4.4
				c0-0.3,0-0.6,0-0.9c1.3,0,2.9,0,3.3,0c0,0,1.1,0,1.1-1.2c0-1.2,0-3.4,0-5.1c-3.5,0-7,0-10.4,0c-0.2,0-0.3,0.2-0.3,0.3
				c0,0.3,0,4.1,0,5.9c1.5,0,2.9,0,4.4,0v0.9H14c0,0.4,0,0.9,0,1.3h4.4c0,0.3,0,0.6,0,0.9h-5.1c0,0.4,0,0.8,0,1.2
				c3.8,0,8.6,0,12.3,0c1,0,2.3-0.5,3.1-1c1.1,0.9,2.4,1,4.4,1c0.6,0,1.3,0,2.1,0c1.1,0,2,0,2.9,0c1.7,0,2.8-0.4,3.9-1
				c1,0.6,1.9,1,3.4,1v0h2.3v-1.2h-2.3C44.4,46.2,43.6,46,42.9,45.5z M18.4,41.9h-2.7v-1.3h2.7V41.9z M18.4,39.4h-2.7v-1.3
				c0.9,0,1.8,0,2.7,0V39.4z M20.4,38.1h2.7v1.3h-2.7V38.1z M20.4,40.6c0.9,0,1.8,0,2.7,0c0,0.5,0,0.9,0,1.3h-2.7
				C20.4,41.6,20.4,41,20.4,40.6z M29.1,42.6c-0.1,0.8-0.2,1-0.4,1.6c-0.3-0.5-0.5-0.8-0.5-1.6c0-1.1,0-2.6,0-3.8h0.9V42.6z
				 M42.4,42.6c0,0.8-0.2,1.2-0.4,1.6c-0.3-0.4-0.5-0.9-0.5-1.6c0-1.2,0-2.6,0-3.8h0.9C42.4,40,42.4,41.4,42.4,42.6z"/>
		</g>
	</g>
</g>
<g>
	<line fill="none" stroke="#000000" stroke-width="0.25" x1="51.4" y1="25.7" x2="0.4" y2="25.7"/>
	<line fill="none" stroke="#000000" stroke-width="0.25" x1="0.4" y1="31.9" x2="0.4" y2="25.7"/>
	<g>
		<line fill="none" stroke="#000000" stroke-width="0.25" x1="51.4" y1="31.9" x2="51.4" y2="25.7"/>
	</g>
</g>
<line fill-rule="evenodd" clip-rule="evenodd" fill="none" stroke="#211816" stroke-width="0.25" x1="68.9" y1="0.4" x2="68.9" y2="68.3"/>
<g>
	<path d="M10.8,21.2v-6.1H8.6v-0.8c0.3,0,0.6,0,0.8-0.1c0.3,0,0.5-0.1,0.7-0.2s0.4-0.3,0.6-0.5c0.2-0.2,0.3-0.5,0.3-0.8h0.8v8.5
		H10.8z"/>
	<path d="M14.9,14.5c0.1-0.4,0.3-0.7,0.5-1c0.2-0.3,0.5-0.5,0.9-0.6c0.4-0.2,0.8-0.2,1.2-0.2c0.4,0,0.7,0.1,1,0.2
		c0.3,0.1,0.6,0.3,0.8,0.5c0.2,0.2,0.4,0.5,0.6,0.8c0.1,0.3,0.2,0.7,0.2,1.1c0,0.4-0.1,0.7-0.2,1c-0.1,0.3-0.3,0.5-0.5,0.8
		c-0.2,0.2-0.4,0.4-0.7,0.6s-0.5,0.4-0.8,0.5c-0.3,0.2-0.5,0.3-0.8,0.5c-0.3,0.2-0.5,0.3-0.7,0.5c-0.2,0.2-0.4,0.4-0.6,0.6
		c-0.2,0.2-0.3,0.4-0.3,0.7h4.4v0.9h-5.6c0-0.5,0.1-0.9,0.3-1.3c0.1-0.4,0.3-0.7,0.5-0.9c0.2-0.3,0.5-0.5,0.7-0.7
		c0.3-0.2,0.6-0.4,0.9-0.6c0.4-0.2,0.7-0.4,0.9-0.6c0.3-0.2,0.5-0.4,0.7-0.6c0.2-0.2,0.3-0.4,0.4-0.6s0.1-0.5,0.1-0.8
		c0-0.2,0-0.4-0.1-0.6c-0.1-0.2-0.2-0.3-0.4-0.5c-0.1-0.1-0.3-0.2-0.5-0.3s-0.4-0.1-0.6-0.1c-0.3,0-0.5,0.1-0.8,0.2
		c-0.2,0.1-0.4,0.3-0.5,0.5c-0.1,0.2-0.2,0.4-0.3,0.7s-0.1,0.5-0.1,0.8h-1C14.8,15.3,14.8,14.9,14.9,14.5z"/>
	<path d="M22.7,15v0.9h0c0.5-0.7,1.1-1.1,2-1.1c0.4,0,0.7,0.1,1,0.2c0.3,0.2,0.5,0.4,0.7,0.8c0.2-0.3,0.5-0.6,0.8-0.8
		c0.3-0.2,0.7-0.3,1.1-0.3c0.3,0,0.6,0,0.8,0.1c0.3,0.1,0.5,0.2,0.6,0.3c0.2,0.1,0.3,0.3,0.4,0.6c0.1,0.2,0.1,0.5,0.1,0.8v4.5h-1
		v-4.1c0-0.2,0-0.4,0-0.5c0-0.2-0.1-0.3-0.2-0.4s-0.2-0.2-0.4-0.3c-0.2-0.1-0.4-0.1-0.6-0.1c-0.5,0-0.9,0.1-1.2,0.4
		c-0.3,0.3-0.4,0.7-0.4,1.2v3.9h-1v-4.1c0-0.2,0-0.4-0.1-0.6s-0.1-0.3-0.2-0.4s-0.2-0.2-0.4-0.3c-0.1-0.1-0.3-0.1-0.6-0.1
		c-0.3,0-0.6,0.1-0.8,0.2c-0.2,0.1-0.4,0.3-0.5,0.4s-0.2,0.3-0.3,0.5c-0.1,0.2-0.1,0.3-0.1,0.5v3.9h-1V15H22.7z"/>
	<path d="M32.9,15v0.9h0c0.5-0.7,1.1-1.1,2-1.1c0.4,0,0.7,0.1,1,0.2c0.3,0.2,0.5,0.4,0.7,0.8c0.2-0.3,0.5-0.6,0.8-0.8
		c0.3-0.2,0.7-0.3,1.1-0.3c0.3,0,0.6,0,0.8,0.1c0.3,0.1,0.5,0.2,0.6,0.3c0.2,0.1,0.3,0.3,0.4,0.6c0.1,0.2,0.1,0.5,0.1,0.8v4.5h-1
		v-4.1c0-0.2,0-0.4,0-0.5c0-0.2-0.1-0.3-0.2-0.4s-0.2-0.2-0.4-0.3c-0.2-0.1-0.4-0.1-0.6-0.1c-0.5,0-0.9,0.1-1.2,0.4
		c-0.3,0.3-0.4,0.7-0.4,1.2v3.9h-1v-4.1c0-0.2,0-0.4-0.1-0.6s-0.1-0.3-0.2-0.4s-0.2-0.2-0.4-0.3c-0.1-0.1-0.3-0.1-0.6-0.1
		c-0.3,0-0.6,0.1-0.8,0.2c-0.2,0.1-0.4,0.3-0.5,0.4s-0.2,0.3-0.3,0.5C33,17.1,33,17.2,33,17.3v3.9h-1V15H32.9z"/>
</g>
</svg>
