<?xml version="1.0" encoding="utf-8"?>
<!-- Generator: Adobe Illustrator 17.1.0, SVG Export Plug-In . SVG Version: 6.00 Build 0)  -->
<!DOCTYPE svg PUBLIC "-//W3C//DTD SVG 1.1//EN" "http://www.w3.org/Graphics/SVG/1.1/DTD/svg11.dtd">
<svg version="1.1" id="图层_1" xmlns="http://www.w3.org/2000/svg" xmlns:xlink="http://www.w3.org/1999/xlink" x="0px" y="0px"
	 viewBox="0 0 559.5 81" style="enable-background:new 0 0 559.5 81;" xml:space="preserve">
<g>
	<g>
		<g>
			<path style="fill:#666666;" d="M263.2,52.9c3-3.4,4.5-8.9,4.4-16.6V25.2h2v-2h-2v-6.8h-2.8v6.8h-6v-6.8h-2.8v6.8h-2.4v2h2.4v11.1
				c-0.1,7.5,1.3,13.1,4.2,16.6c-1.1,1.4-3.4,3.3-6.9,5.7v2.1c3.6-2.2,6.4-4.2,8.5-6c2,1.8,4.6,3.8,7.9,6v-2.1
				C267,56.6,264.8,54.7,263.2,52.9z M258.9,36.5V25.2h6v11.3c0.1,6.6-0.9,11.4-3,14.4C259.7,47.7,258.7,42.9,258.9,36.5z
				 M286.3,37.5h3.6c3.6,0.1,5.3-1.5,5.2-4.9v-9.9h4.8v-2.1H295v-4.3h-3v4.3h-14.7v-4.3h-3v4.3h-4.2v2.1h4.2v14.8h8.9v5.3h-13.7v2.1
				h8.1c-0.5,4.9-2.8,8.8-6.9,11.7v1.9c5.6-2.7,8.9-7.3,9.9-13.6h2.6v16h3v-16h2.6c0.9,6.4,4.5,10.9,10.7,13.6v-1.9
				c-4.6-2.9-7.3-6.8-7.9-11.7h8.5v-2.1h-13.9V37.5z M277.3,22.7H292v5.3h-14.7V22.7z M277.3,35.4v-5.5H292v2.7
				c0.1,1.9-0.8,2.9-2.8,2.7H277.3z M316.7,16.1c-1.3,7.3-5,12.7-11.1,16.4v2c2.9-1.4,5.1-2.8,6.5-4.1v30.6h3.2V27.2
				c1.7-2.2,3.2-5.9,4.6-11.1H316.7z M350.3,25.8v-2.1h-13.9v-7.6h-3.2v7.6h-13.3v2.1h5.2c0,9.4-2.3,17.6-6.9,24.8v3.3
				c6.5-7.7,9.8-17,9.9-28.1h5.2v23h-8.7v2h8.7v9.9h3.2v-9.9h8.1v-2h-8.1v-23h5c0.1,11.3,3.4,20.6,9.9,27.9v-3.1
				c-4.5-6.8-6.7-15-6.7-24.8H350.3z M367.2,26.6c-0.8-3-2.3-6.2-4.4-9.7h-2.8c1.9,3.1,3.3,6.4,4.4,9.7H367.2z M401.9,55.1
				c0.1,1.8-0.8,2.7-2.8,2.5c-2.6,0.1-3.8-0.7-3.6-2.5V39.5h-2.8v15.2c-0.1,3.5,1.7,5.2,5.4,5.1h1.2c3.3,0.1,4.9-1.4,4.8-4.5v-1.6
				h-2.2V55.1z M383.9,59.9h2.8V39.5h-2.8V59.9z M371.6,34.4v2.5h3.4c8.5,0,15.8-0.6,22-1.9c0.1,0.3,0.3,0.8,0.6,1.6
				c0.3,0.7,0.5,1.2,0.6,1.6h3c-1.3-3.9-3-7.5-5-10.7h-2.8c0.1,0.4,0.2,0.5,0.2,0.4c1.3,2.5,2.2,4.3,2.8,5.5
				c-5,0.8-12.2,1.2-21.6,1.2c4.1-3.4,7.1-7.2,8.9-11.5h18.7v-1.9h-14.1v-4.9h-3v4.9h-15.1v1.9h10.1C378,27.4,375.1,31.3,371.6,34.4
				z M360.5,28.7c2,3.4,3.4,6.7,4.2,9.9h3c-1.2-3.8-2.6-7.1-4.4-9.9H360.5z M359.1,59.9h3.4c2.6-5.5,4.4-11.8,5.2-18.9H365
				C364.1,47.9,362.1,54.2,359.1,59.9z M377.1,39.6h-2.8v7.4c0.1,5.1-1.7,9-5.4,11.7v2.1c5.7-3.1,8.4-7.8,8.1-14V39.6z M434.6,54.3
				h18.3v-1.8h-18.3v-3.7h10.7c3.7,0,5.5-1.4,5.4-4.3v-8.2h-35.3v12.5h16.1v3.7h-18.3v1.8h18.3v3.3h-21.4v2h46.2v-2h-21.6V54.3z
				 M434.6,38.1h12.9v3.5h-12.9V38.1z M434.6,43.4h12.9v1.2c0.1,1.8-0.7,2.7-2.6,2.5h-10.3V43.4z M431.4,47.1h-12.9v-3.7h12.9V47.1z
				 M431.4,41.6h-12.9v-3.5h12.9V41.6z M451,24.6v-6.4h-36.1v10.7h30.8C449.4,29.1,451.2,27.6,451,24.6z M417.9,20h30.2v2.7h-30.2
				V20z M417.9,27.2v-2.7h30.2v0.2c0.1,1.7-0.8,2.5-2.8,2.5H417.9z M456,31.7h-46v2h46V31.7z M486.6,20.3h19.3v-2.1h-41.3v2.1h18.9
				v21.3h-21.2v2.1h21.2v17.4h3.2V43.7h21.2v-2.1h-21.2V20.3z M471.6,25.2H468c1.2,4.8,2.6,8.6,4.2,11.5h3
				C473.3,33,472.1,29.1,471.6,25.2z M498,36.7c1.6-2.9,3-6.7,4.2-11.5h-3.6c-0.5,3.9-1.7,7.7-3.6,11.5H498z M552.6,32.8
				c0.4,1.2,0.8,2.4,1.2,3.7h3.4c-2-5.2-4.6-10-7.7-14.4h-3c2.1,3.3,3.8,6.1,5.2,8.6c-8.1,0.8-18.5,1.2-31.2,1.2
				c5.2-4.3,9.7-9.6,13.7-15.8h-4c-3,5.6-7.4,10.9-13.1,15.8v2.3h5C532.6,34.2,542.8,33.7,552.6,32.8z M520.1,59.3h27.6
				c4.5,0.1,6.7-1.7,6.5-5.5v-14h-34.1V59.3z M523.2,42H551v11.7c0.1,2.5-1.1,3.6-3.8,3.5h-24V42z"/>
		</g>
	</g>
	<rect x="232.2" y="2.4" style="fill-rule:evenodd;clip-rule:evenodd;fill:#CBCBCB;" width="1.4" height="74.9"/>
	<g>
		<g id="形状_2_copy_3_副本_4_17_">
			<g>
				<path style="fill-rule:evenodd;clip-rule:evenodd;fill:#CCCCCC;" d="M14.4,54.6c-3.9,7.7-7.5,14.6-11.5,22.6h5.5
					c1-1.9,1.6-3.1,2.8-5.4c2.9,0,5.1,0,7.9,0c-0.6-1.7-1-3-1.5-4.3h-4.4c1.3-2.6,2-4,4-7.5c2.1,5.9,4.1,11.8,6.1,17.2h5
					c-2.8-7.9-5.3-14.8-7.9-22.6H14.4z M29.7,77.3h4.8l1-22.7l-4.7,0L29.7,77.3z M37.2,77.3h5l0.6-16.9H38L37.2,77.3z M38.3,54.6
					l-0.1,3.6c0,0,3.7,0,4.8,0l0.2-3.6C38.8,54.6,38.8,54.6,38.3,54.6z M69.1,60.5c-0.9-0.3-1.8-0.5-2.7-0.5c-0.6,0-1.1,0.1-1.6,0.2
					c-0.5,0.1-1,0.3-1.4,0.4c-0.4,0.2-0.8,0.4-1.1,0.7c-0.3,0.3-0.6,0.5-0.8,0.8c-0.2,0.3-0.4,0.6-0.7,1c-0.2-0.5-0.4-0.9-0.6-1.2
					c-0.2-0.3-0.4-0.5-0.7-0.7c-0.3-0.2-0.6-0.4-1-0.6c-0.4-0.2-0.8-0.3-1.3-0.4c-0.5-0.1-0.9-0.1-1.4-0.1c-0.7,0-1.3,0.1-1.9,0.2
					c-0.6,0.2-1.2,0.4-1.6,0.7c-0.5,0.3-0.8,0.6-1.1,0.9c-0.3,0.3-0.6,0.7-1,1.3l0.1-2.7h-4.5l-0.7,16.9c0,0,3.7,0,4.7,0
					c0-1.4,0.1-3.4,0.2-5.9c0.1-2.5,0.3-4.1,0.6-5c0.3-0.8,0.7-1.5,1.3-2c0.6-0.5,1.3-0.8,2-0.8c0.4,0,0.8,0.1,1.1,0.2
					c0.3,0.1,0.6,0.4,0.8,0.7c0.2,0.3,0.4,0.6,0.5,1c0.1,0.3,0.1,0.7,0.1,1.2c0,0.9-0.1,2.7-0.2,5.3c-0.1,2.6-0.3,4.4-0.3,5.2
					c1,0,3.8,0,4.7,0l0.1-4.6c0.1-1.6,0.1-3,0.2-4c0.1-1,0.2-1.8,0.4-2.4c0.2-0.6,0.5-1.1,0.8-1.5c0.3-0.4,0.7-0.7,1.1-0.9
					c0.4-0.2,0.9-0.3,1.4-0.3c0.5,0,0.9,0.1,1.3,0.3c0.4,0.2,0.7,0.5,0.9,0.9c0.3,0.4,0.4,1,0.4,1.8c0,0.7,0,1.5-0.1,2.4l-0.2,3.8
					c-0.1,1.6-0.2,3.1-0.3,4.5c1,0,3.9,0,4.7,0c0-1.3,0.1-3.1,0.2-5.4c0.1-2.3,0.2-4,0.3-5c0.1-1,0.1-1.8,0.1-2.3
					c0-1-0.2-1.9-0.7-2.5C70.6,61.3,70,60.8,69.1,60.5z M87,60.4c-1-0.3-2.1-0.4-3.4-0.4c-1.1,0-2.2,0.1-3.3,0.2
					c-1.2,0.1-4,0.7-4,0.7l-0.5,3.1c0,0,4.7-1.4,6.7-1.4c0.5,0,1,0.1,1.5,0.2c0.4,0.1,0.8,0.3,1.1,0.6c0.3,0.3,0.4,0.7,0.4,1.1
					c0,0.2,0,0.4-0.1,0.6c-0.1,0.2-0.2,0.4-0.4,0.6c-0.2,0.2-0.4,0.4-0.7,0.5c-0.3,0.1-0.6,0.2-1.1,0.4c-0.5,0.1-0.9,0.2-1.3,0.3
					c-1.6,0.3-2.9,0.7-3.8,1c-1,0.3-1.7,0.7-2.2,1c-0.5,0.4-0.9,0.7-1.2,1.1c-0.3,0.4-0.6,0.8-0.7,1.3c-0.2,0.5-0.2,0.9-0.2,1.4
					c0,0.8,0.2,1.7,0.6,2.5c0.4,0.8,1.1,1.4,2,1.8c0.9,0.4,2,0.6,3.4,0.6c0.4,0,0.8,0,1.3,0c0.5,0,1.1-0.1,1.9-0.2
					c0.3-1.2,0.6-2.2,0.8-2.8c-0.7,0.2-1.2,0.4-1.6,0.4c-0.4,0.1-0.8,0.1-1.1,0.1c-0.6,0-1-0.1-1.4-0.2c-0.4-0.1-0.7-0.4-1-0.7
					c-0.3-0.3-0.4-0.7-0.4-1.2c0-0.3,0.1-0.6,0.2-0.8c0.1-0.2,0.3-0.5,0.5-0.7c0.2-0.2,0.5-0.4,0.9-0.6c0.3-0.2,0.7-0.3,1.1-0.5
					c0.4-0.1,1-0.3,1.7-0.5c0.7-0.2,1.2-0.3,1.5-0.4c0.3-0.1,0.5-0.2,0.7-0.3c0.2-0.1,0.5-0.3,1-0.6L85,77.3h4.7c0,0,0.1-5.4,0.3-8
					c0.2-2.6,0.3-4.2,0.3-4.8c0-1.2-0.3-2.1-0.9-2.7C88.9,61.2,88.1,60.7,87,60.4z M116.7,60.5c-0.9-0.3-1.8-0.5-2.7-0.5
					c-0.6,0-1.1,0.1-1.6,0.2c-0.5,0.1-1,0.3-1.4,0.4c-0.4,0.2-0.8,0.4-1.1,0.7c-0.3,0.3-0.6,0.5-0.8,0.8c-0.2,0.3-0.4,0.6-0.7,1
					c-0.2-0.5-0.4-0.9-0.6-1.2c-0.2-0.3-0.4-0.5-0.7-0.7c-0.3-0.2-0.6-0.4-1-0.6c-0.4-0.2-0.8-0.3-1.3-0.4c-0.5-0.1-0.9-0.1-1.4-0.1
					c-0.7,0-1.3,0.1-1.9,0.2c-0.6,0.2-1.2,0.4-1.6,0.7c-0.5,0.3-0.8,0.6-1.1,0.9c-0.3,0.3-0.6,0.7-1,1.3l0.1-2.7h-4.5l-0.7,16.9h4.7
					c0,0,0.1-3.4,0.2-5.9c0.1-2.5,0.3-4.1,0.6-5c0.3-0.8,0.7-1.5,1.3-2c0.6-0.5,1.3-0.8,2-0.8c0.4,0,0.8,0.1,1.1,0.2
					c0.3,0.1,0.6,0.4,0.8,0.7c0.2,0.3,0.4,0.6,0.5,1c0.1,0.3,0.1,0.7,0.1,1.2c0,0.9-0.1,2.7-0.2,5.3c-0.1,2.6-0.3,4.4-0.3,5.2
					c1,0,3.8,0,4.8,0l0.1-4.6c0.1-1.6,0.1-3,0.2-4c0.1-1,0.2-1.8,0.4-2.4c0.2-0.6,0.5-1.1,0.8-1.5c0.3-0.4,0.7-0.7,1.1-0.9
					c0.4-0.2,0.9-0.3,1.4-0.3c0.5,0,0.9,0.1,1.3,0.3c0.4,0.2,0.7,0.5,0.9,0.9c0.2,0.4,0.4,1,0.4,1.8c0,0.7,0,1.5-0.1,2.4l-0.2,3.8
					c-0.1,1.6-0.2,3.1-0.3,4.5c1,0,3.9,0,4.7,0c0-1.3,0.1-3.1,0.2-5.4c0.1-2.3,0.2-4,0.3-5c0.1-1,0.1-1.8,0.1-2.3
					c0-1-0.2-1.9-0.7-2.5C118.2,61.3,117.6,60.8,116.7,60.5z M134.6,60.4c-1-0.3-2.1-0.4-3.4-0.4c-1.1,0-2.2,0.1-3.3,0.2
					c-1.2,0.1-4,0.7-4,0.7l-0.5,3.1c0,0,4.7-1.4,6.7-1.4c0.5,0,1,0.1,1.5,0.2c0.5,0.1,0.8,0.3,1.1,0.6c0.3,0.3,0.4,0.7,0.4,1.1
					c0,0.2,0,0.4-0.1,0.6c-0.1,0.2-0.2,0.4-0.4,0.6c-0.2,0.2-0.4,0.4-0.7,0.5c-0.3,0.1-0.6,0.2-1.1,0.4c-0.5,0.1-0.9,0.2-1.3,0.3
					c-1.6,0.3-2.9,0.7-3.8,1c-1,0.3-1.7,0.7-2.2,1c-0.5,0.4-0.9,0.7-1.2,1.1c-0.3,0.4-0.6,0.8-0.7,1.3c-0.2,0.5-0.3,0.9-0.3,1.4
					c0,0.8,0.2,1.7,0.6,2.5c0.4,0.8,1.1,1.4,2,1.8c0.9,0.4,2,0.6,3.4,0.6c0.4,0,0.8,0,1.3,0c0.5,0,1.1-0.1,1.9-0.2
					c0.3-1.2,0.6-2.2,0.8-2.8c-0.7,0.2-1.2,0.4-1.6,0.4c-0.4,0.1-0.8,0.1-1.1,0.1c-0.6,0-1-0.1-1.4-0.2c-0.4-0.1-0.8-0.4-1-0.7
					c-0.3-0.3-0.4-0.7-0.4-1.2c0-0.3,0.1-0.6,0.2-0.8c0.1-0.2,0.3-0.5,0.5-0.7c0.2-0.2,0.5-0.4,0.9-0.6c0.3-0.2,0.7-0.3,1.1-0.5
					c0.4-0.1,1-0.3,1.7-0.5c0.7-0.2,1.2-0.3,1.5-0.4c0.3-0.1,0.5-0.2,0.7-0.3c0.2-0.1,0.5-0.3,1-0.6l-0.6,8.8h4.7c0,0,0.1-5.4,0.3-8
					c0.2-2.6,0.3-4.2,0.3-4.8c0-1.2-0.3-2.1-0.9-2.7C136.5,61.2,135.7,60.7,134.6,60.4z M140,72.8c-0.1,2.2-0.1,3.7-0.2,4.5
					c1.6,0,4.7,0,4.7,0s0.2-3.7,0.2-4.5C143.4,72.8,140,72.8,140,72.8z M152.3,65c0.5-0.5,1.1-0.9,1.7-1.2c0.7-0.3,1.4-0.4,2.1-0.4
					c1.2,0,2.7,0.3,4.3,0.8l-0.2-3.6c-1-0.3-1.9-0.4-2.7-0.5c-0.8-0.1-1.5-0.1-2.2-0.1c-1.3,0-2.5,0.1-3.5,0.4
					c-1.1,0.3-2,0.8-2.9,1.7c-0.9,0.8-1.5,1.9-2,3.1c-0.5,1.3-0.7,2.6-0.7,4c0,1.1,0.1,2.1,0.4,3.1c0.3,1,0.7,1.8,1.2,2.5
					c0.5,0.7,1.2,1.3,1.9,1.7c0.7,0.4,1.5,0.7,2.3,0.9c0.8,0.2,1.7,0.2,2.6,0.2c1.5,0,3.1-0.2,4.7-0.5c0.1-0.8,0.2-1.6,0.4-2.1
					c0.1-0.6,0.2-1.1,0.2-1.5c-0.8,0.3-1.6,0.5-2.3,0.6c-0.7,0.1-1.3,0.2-1.8,0.2c-1,0-1.9-0.2-2.7-0.6c-0.8-0.4-1.4-1-1.7-1.8
					c-0.3-0.8-0.5-1.7-0.5-2.7c0-0.8,0.1-1.5,0.3-2.2C151.5,66.2,151.8,65.6,152.3,65z M177.6,62.3c-0.8-0.7-1.8-1.3-3-1.7
					c-1.2-0.4-2.4-0.6-3.7-0.6c-1.4,0-2.7,0.2-4,0.7c-1.3,0.5-2.3,1.1-3.2,2c-0.8,0.9-1.4,1.8-1.8,3c-0.4,1.1-0.6,2.3-0.6,3.5
					c0,1.2,0.2,2.3,0.6,3.4c0.4,1.1,1.1,2,1.9,2.8c0.8,0.8,1.8,1.3,3,1.7c1.2,0.4,2.4,0.6,3.7,0.6c1.4,0,2.7-0.2,3.9-0.6
					c1.2-0.4,2.2-1.1,3.1-1.9c0.8-0.9,1.4-1.9,1.9-3c0.4-1.2,0.6-2.4,0.6-3.6c0-1.2-0.2-2.3-0.6-3.4C179.1,63.9,178.5,63,177.6,62.3
					z M174.8,71.5c-0.4,0.9-0.9,1.6-1.7,2.1c-0.7,0.5-1.6,0.7-2.6,0.7c-1,0-1.8-0.2-2.5-0.7c-0.7-0.5-1.2-1.1-1.5-1.8
					c-0.3-0.8-0.5-1.6-0.5-2.6c0-1.1,0.2-2.1,0.6-3c0.4-0.9,0.9-1.6,1.7-2.1c0.8-0.5,1.6-0.7,2.6-0.7c1,0,1.8,0.2,2.5,0.7
					c0.7,0.5,1.2,1.1,1.5,1.8c0.3,0.8,0.4,1.6,0.4,2.5C175.4,69.6,175.2,70.6,174.8,71.5z M207.4,62c-0.5-0.7-1.2-1.2-2-1.5
					c-0.9-0.3-1.8-0.5-2.7-0.5c-0.6,0-1.1,0.1-1.6,0.2c-0.5,0.1-1,0.3-1.4,0.4c-0.4,0.2-0.8,0.4-1.1,0.7c-0.3,0.3-0.6,0.5-0.8,0.8
					c-0.2,0.3-0.4,0.6-0.7,1c-0.2-0.5-0.4-0.9-0.6-1.2c-0.2-0.3-0.4-0.5-0.7-0.7c-0.3-0.2-0.6-0.4-1-0.6c-0.4-0.2-0.8-0.3-1.3-0.4
					c-0.5-0.1-0.9-0.1-1.4-0.1c-0.7,0-1.3,0.1-1.9,0.2c-0.6,0.2-1.2,0.4-1.6,0.7c-0.5,0.3-0.8,0.6-1.1,0.9c-0.3,0.3-0.6,0.7-1,1.3
					l0.1-2.7c-0.8,0-3.5,0-4.5,0c0,1.9-0.6,15-0.7,16.9c1,0,3.7,0,4.7,0c0-1.4,0.1-3.4,0.2-5.9c0.1-2.5,0.3-4.1,0.6-5
					c0.3-0.8,0.7-1.5,1.3-2c0.6-0.5,1.3-0.8,2-0.8c0.4,0,0.8,0.1,1.1,0.2c0.3,0.1,0.6,0.4,0.8,0.7c0.2,0.3,0.4,0.6,0.5,1
					c0.1,0.3,0.1,0.7,0.1,1.2c0,0.9-0.1,2.7-0.2,5.3c-0.1,2.6-0.3,4.4-0.3,5.2c1,0,3.8,0,4.7,0l0.1-4.6c0.1-1.6,0.1-3,0.2-4
					c0.1-1,0.2-1.8,0.4-2.4c0.2-0.6,0.5-1.1,0.8-1.5c0.3-0.4,0.7-0.7,1.1-0.9c0.4-0.2,0.9-0.3,1.4-0.3c0.5,0,0.9,0.1,1.3,0.3
					c0.4,0.2,0.7,0.5,0.9,0.9c0.3,0.4,0.4,1,0.4,1.8c0,0.7,0,1.5-0.1,2.4l-0.2,3.8c-0.1,1.6-0.2,3.1-0.3,4.5c1,0,3.9,0,4.7,0
					c0-1.3,0.1-3.1,0.2-5.4c0.1-2.3,0.2-4,0.3-5c0.1-1,0.1-1.8,0.1-2.3C208.2,63.5,207.9,62.7,207.4,62z"/>
			</g>
		</g>
		<g id="形状_2_copy_3_副本_5_25_">
			<g>
				<path style="fill-rule:evenodd;clip-rule:evenodd;fill:#FF6600;" d="M22.7,7.3c7.1,0,14.1,0,21.2,0c0,10.5,0,21.4,0,31.2
					c0,0.6-0.8,1.5-1.6,1.6c-1.1,0-1.6,0-3,0v5.1c1.6,0,3,0,4.6,0c4.1,0,6.8-2,6.8-5.4c0-8.1,0-24.2,0-32.5h2.4V2.4H22.7V7.3z
					 M148.4,38.8c2.3,0,1.4,0,3.7,0c1.3,0,3.1-1.1,3.1-3.2c0-5.4,0-9.6,0-15c-1,0-2.1,0-3,0c0-4.1,0-12.6,0-15.6
					c0-1.2-1.2-2.6-2.8-2.6h-22.2v4.9h17.1c0,4.4,0,8.9,0,13.3c-4.1,0-4.7,0-8.2,0c-0.5,0-1-0.5-1-0.9c0-2.2,0-5.8,0-8.8
					c0-0.7-0.7-1.5-1.8-1.5h-5v11.8c0,2.3,2,4.2,4.2,4.2c0,0,8.7,0,15.9,0v4.4h-17.6c-2,0-4.9,1.9-4.9,4.9c6.1,0,15.9-0.1,22.6-0.1
					C148.4,35.9,148.4,37.2,148.4,38.8z M40.6,31.3c0-5.6,0-13.5,0-21.1H23v26.8c5.2,0,11.7,0,11.7,0C39.1,37.1,40.6,34.6,40.6,31.3
					z M33.1,32.2c-1.3,0-2.7,0-4.5,0V15.4c1.9,0,4.1,0,6,0c0,5.1,0,10.7,0,15.2C34.7,31.5,34.1,32.2,33.1,32.2z M2.9,3.6
					c0,9.6,0,22.2,0,41.6h6.5c0-12.1,0-25.4,0-37.9c1.5,0,3.3,0,4.9,0c0,7.3,0,13.8,0,20.6c0,2.8-2.5,3.8-2.5,3.8v5.4
					c4.6,0,8.7-4.7,8.7-9c0-7.8,0-17.8,0-25.6c-5.9,0-10.4,0-16.3,0C2.8,2.4,2.9,3.6,2.9,3.6z M205.9,20.6c0-4.1,0-12.6,0-15.6
					c0-1.2-1.2-2.6-2.8-2.6h-22.2v4.9c5.7,0,11.4,0,17.1,0v13.3c-4.1,0-4.7,0-8.2,0c-0.5,0-1-0.5-1-0.9c0-2.2,0-5.8,0-8.8
					c0-0.7-0.7-1.4-1.8-1.4c-1.4,0-3.4,0-5,0v11.8c0,2.3,2,4.2,4.2,4.2c0,0,8.7,0,15.9,0v4.4h-17.4c-2,0-5.1,1.7-5.1,4.8
					c6.1,0,15.8,0,22.4,0v4.5c0,0.8-0.6,1.1-1.5,1.1H198c0,2.2,0,3.4,0,4.9h4c1.2,0,0.9,0,2.1,0c3.3,0,4.8-2.4,4.7-4.3
					c0-6.1,0-14.2,0-20.3C207.9,20.6,206.8,20.6,205.9,20.6z M174.4,37.1c2.4-2.6,3.7-5.7,4-11.6c0-6.4,0-12.6,0-18.9
					c0-0.5-0.7-1.2-1.3-1.2c-2.5,0-5.6,0-8.3,0v-3h-6.5c0,1,0,2,0,3c-0.7,0-1.5,0-2.2,0v4.9h2.2v15.2c0,5.9,1.9,8.9,4.3,11.6
					c-2.9,2-5.8,3.3-9.8,3.3c-0.5,0-1.1,0-1.7,0c-6.1,0-13.5,0-20,0c-6.1,0-12-1.1-14.2-3.8c2.1-2.8,3.2-5.1,3.9-11.1
					c0-5.9,0-10.9,0-18.5c-0.1-0.8-0.8-1.6-1.6-1.6c-2.6,0-5.2,0-8.3,0v-3c-2.7,0-3.7,0-6.4,0v3c-0.7,0-1.2,0-2.2,0v4.9
					c1,0,1.5,0,2.2,0c0,5,0,10.6,0,15.2c0.5,5.9,2.4,7.8,4.7,11.3c-3.3,2.3-7.3,3.3-12,3.6c-5.6,0-10.6,0-17.7,0c0-1.2,0-2.9,0-3.8
					h17.7v-5.1H83.5c0-1.2,0-2.5,0-3.8c5.1,0,11.8,0,13.3,0c0,0,4.3,0,4.4-4.7c0.1-5,0-13.8,0-20.5c-14,0-28.1,0-42.1,0
					c-0.7,0-1.3,0.7-1.3,1.3c0,1,0,16.6,0,23.9c5.9,0,11.8,0,17.7,0v3.8H57.7c0,1.6,0,3.5,0,5.1h17.6c0,1.3,0,2.5,0,3.8H54.7
					c0,1.4,0,3.3,0,4.8c15.5,0,34.7,0.1,49.7,0c4.1,0,9.1-2.1,12.7-4.2c4.6,3.5,9.6,4.2,17.9,4.2c2.5,0,5.3,0,8.4,0
					c4.4,0,8.2,0,11.6,0c7,0,11.4-1.5,15.8-4c4,2.4,7.7,3.8,13.9,4v0h9.4v-4.9h-9.4C180.6,39.9,177.1,39.3,174.4,37.1z M75.3,22.7
					H64.4v-5.1h10.8V22.7z M75.3,12.4H64.5V7.3c3.6,0,7.2,0,10.8,0V12.4z M83.5,7.3h10.9v5.1H83.5V7.3z M83.5,17.6
					c3.6,0,7.2,0,10.8,0c0,2.1,0,3.7,0,5.1H83.4C83.4,21.4,83.4,19.2,83.5,17.6z M118.6,25.5c-0.2,3.4-0.8,4.2-1.6,6.4
					c-1-2.1-1.9-3.1-2.1-6.4c0-4.4,0-10.6,0-15.2h3.7V25.5z M172.3,25.5c-0.1,3.1-0.9,4.7-1.7,6.4c-1-1.7-1.9-3.5-1.9-6.4
					c0-4.7,0-10.4,0-15.2h3.6C172.3,15.1,172.3,20.7,172.3,25.5z"/>
			</g>
		</g>
	</g>
</g>
</svg>
