<?xml version="1.0" encoding="utf-8"?>
<!-- Generator: Adobe Illustrator 17.1.0, SVG Export Plug-In . SVG Version: 6.00 Build 0)  -->
<!DOCTYPE svg PUBLIC "-//W3C//DTD SVG 1.1//EN" "http://www.w3.org/Graphics/SVG/1.1/DTD/svg11.dtd">
<svg version="1.1" id="图层_1" xmlns="http://www.w3.org/2000/svg" xmlns:xlink="http://www.w3.org/1999/xlink" x="0px" y="0px"
	 viewBox="0 0 559.5 81" style="enable-background:new 0 0 559.5 81;" xml:space="preserve">
<g>
	<g>
		<g>
			<g>
				<path style="fill:#666666;" d="M285.5,16.5h-3.2v3.6h-11.9v-3.6h-3.2v3.6h-13.9v2.2h13.9v3.6h3.2v-3.6h11.9v3.6h3.2v-3.6h13.9
					v-2.2h-13.9V16.5z M255,35.1h3.2v-5.3h36.4v5.3h3v-7.3H255V35.1z M259,61.2h29.1c4,0.1,5.9-1.6,5.7-5.1v-7.9H259V61.2z
					 M262.2,50.1h28.5v5.9c0,2.1-1.1,3.2-3.2,3.2h-25.3V50.1z M290.5,39.3v-5.1h-28.1v10.1h22.8C288.8,44.3,290.6,42.7,290.5,39.3z
					 M287.5,39.3c0.1,2.1-0.9,3.1-3,3h-19v-6.1h22V39.3z M314.7,33.3h5.3v-2.2h-13.3v2.2h4.9v8.3h-6.3v2h6.3v17.6
					c3.4-1.3,6.5-3,9.3-4.9v-2.2c-1.7,1.2-3.8,2.2-6.3,3V43.6h6.5v-2h-6.5V33.3z M329.5,27.4c-1.3-2.9-2-6.1-2.2-9.5h-3
					c0.3,3.4,1.1,6.6,2.6,9.5H329.5z M348.6,17.9h-3c-0.4,3.6-1.1,6.7-2.2,9.5h2.6C347.3,24.4,348.2,21.2,348.6,17.9z M337.9,16.5
					h-3v13.1h-11.1v32.7h3V51.1H346v6.1c0,1.5-0.9,2.2-2.6,2.2h-3.2v2h3.6c3.6,0,5.3-1.4,5.1-4.2V29.6h-11.1V16.5z M326.9,49.2
					l-0.2-7.7l19.2-0.4l0.2,7.7L326.9,49.2z M346,31.7v7.5h-19.2v-7.5H346z M314.3,16.7h-3.2c-0.4,4.8-2.4,8.2-6.1,10.5v2
					c3.3-1.7,5.5-3.4,6.5-5.1h9.7v-2.2h-8.5C313.4,20.4,313.9,18.7,314.3,16.7z M382.7,16.7h-3.4v4.6h-20.4v2.2h44.1v-2.2h-20.4
					V16.7z M393.2,26.4H390c-0.1,2.6-0.9,5.3-2.2,8.1h-13.1c-1.3-2.8-2-5.5-2.2-8.1h-3.2c0.3,2.8,1.1,5.5,2.4,8.1h-9.9v10.1
					c0.3,6.7-1.3,11.8-4.8,15.2v2.4c5.8-3.7,8.4-10,7.9-19v-6.5h36.8v-2.2h-11.1C392.1,31.9,392.9,29.2,393.2,26.4z M435.4,60.8
					h11.7c4.1,0.1,6.1-1.7,5.9-5.3V40.8h-17.6V60.8z M438.2,43h11.9v12.3c0.1,2.2-1,3.3-3.4,3.2h-8.5V43z M448.1,28.4v-9.7h-31.9v16
					h25.1C446,34.8,448.2,32.7,448.1,28.4z M419.4,32.3V20.9h25.7V28c0.1,3-1.2,4.5-4,4.4H419.4z M411.7,60.8h11.5
					c4.1,0.1,6.1-1.7,5.9-5.3V40.8h-17.4V60.8z M414.6,43h11.5v12.3c0.1,2.2-1,3.3-3.4,3.2h-8.1V43z M470.7,26h-3.6
					c1.2,4.9,2.6,8.8,4.2,11.7h3C472.4,33.9,471.2,30,470.7,26z M485.8,21.1H505v-2.2h-41.2v2.2h18.8v21.6h-21.2v2.2h21.2v17.6h3.2
					V44.8h21.2v-2.2h-21.2V21.1z M497,37.7c1.6-2.9,3-6.8,4.2-11.7h-3.6c-0.5,4-1.7,7.9-3.6,11.7H497z M519.1,60.6h27.5
					c4.5,0.1,6.7-1.7,6.5-5.5V40.8h-34V60.6z M522.3,43H550v11.9c0.1,2.5-1.1,3.7-3.8,3.6h-24V43z M551.6,33.7
					c0.4,1.2,0.8,2.4,1.2,3.8h3.4c-2-5.3-4.6-10.2-7.7-14.6h-3c2.1,3.3,3.8,6.2,5.1,8.7c-8.1,0.8-18.4,1.2-31.1,1.2
					c5.1-4.4,9.7-9.7,13.7-16h-4c-3,5.7-7.4,11-13.1,16v2.4h4.9C531.6,35.1,541.8,34.6,551.6,33.7z"/>
			</g>
		</g>
		<rect x="232.1" y="2.5" style="fill-rule:evenodd;clip-rule:evenodd;fill:#CBCBCB;" width="1.4" height="75.1"/>
	</g>
	<g>
		<g id="形状_2_copy_3_副本_4_21_">
			<g>
				<path style="fill-rule:evenodd;clip-rule:evenodd;fill:#CCCCCC;" d="M14.6,54.9c-4,7.7-7.5,14.6-11.5,22.7h5.5
					c1-1.9,1.6-3.1,2.9-5.4c2.9,0,5.1,0,8,0c-0.6-1.7-1-3-1.5-4.3h-4.4c1.3-2.6,2-4,4-7.6c2.1,5.9,4.1,11.9,6.1,17.3h5
					c-2.8-7.9-5.3-14.8-7.9-22.7H14.6z M29.9,77.5h4.8l1-22.7l-4.7,0L29.9,77.5z M37.4,77.5h5.1l0.6-16.9h-4.9L37.4,77.5z
					 M38.5,54.8l-0.1,3.6c0,0,3.7,0,4.8,0l0.2-3.6C39,54.8,39,54.8,38.5,54.8z M69.4,60.7c-0.9-0.3-1.8-0.5-2.7-0.5
					c-0.6,0-1.1,0.1-1.6,0.2c-0.5,0.1-1,0.3-1.4,0.4c-0.4,0.2-0.8,0.4-1.2,0.7c-0.3,0.3-0.6,0.5-0.8,0.8c-0.2,0.3-0.4,0.6-0.7,1
					c-0.2-0.5-0.4-0.9-0.6-1.2c-0.2-0.3-0.4-0.5-0.7-0.7c-0.3-0.2-0.6-0.4-1-0.6c-0.4-0.2-0.8-0.3-1.3-0.4c-0.5-0.1-1-0.1-1.4-0.1
					c-0.7,0-1.3,0.1-1.9,0.2c-0.6,0.2-1.2,0.4-1.6,0.7c-0.5,0.3-0.8,0.6-1.1,0.9c-0.3,0.3-0.6,0.7-1,1.3l0.1-2.7h-4.5l-0.8,16.9
					c0,0,3.7,0,4.8,0c0-1.5,0.1-3.4,0.2-5.9c0.1-2.5,0.3-4.1,0.6-5c0.3-0.9,0.7-1.5,1.3-2c0.6-0.5,1.3-0.8,2-0.8
					c0.4,0,0.8,0.1,1.1,0.2c0.3,0.1,0.6,0.4,0.8,0.7c0.2,0.3,0.4,0.6,0.5,1c0.1,0.3,0.1,0.7,0.1,1.2c0,0.9-0.1,2.7-0.2,5.3
					c-0.1,2.6-0.3,4.4-0.3,5.2c1,0,3.8,0,4.8,0l0.1-4.6c0.1-1.6,0.1-3,0.2-4c0.1-1,0.2-1.8,0.4-2.4c0.2-0.6,0.5-1.1,0.8-1.5
					c0.3-0.4,0.7-0.7,1.1-0.9c0.4-0.2,0.9-0.3,1.4-0.3c0.5,0,0.9,0.1,1.3,0.3c0.4,0.2,0.7,0.5,1,0.9c0.3,0.4,0.4,1,0.4,1.8
					c0,0.7,0,1.5-0.1,2.4L67.1,73c-0.1,1.6-0.2,3.1-0.3,4.5c1,0,3.9,0,4.7,0c0-1.3,0.1-3.1,0.2-5.4c0.1-2.3,0.2-4,0.3-5
					c0.1-1,0.1-1.8,0.1-2.3c0-1-0.2-1.9-0.7-2.5C70.9,61.5,70.2,61,69.4,60.7z M87.3,60.6c-1-0.3-2.1-0.4-3.4-0.4
					c-1.1,0-2.2,0.1-3.4,0.2c-1.2,0.1-4,0.7-4,0.7l-0.5,3.1c0,0,4.7-1.4,6.7-1.4c0.5,0,1,0.1,1.5,0.2c0.4,0.1,0.8,0.3,1.1,0.6
					c0.3,0.3,0.4,0.7,0.4,1.1c0,0.2,0,0.4-0.1,0.7c-0.1,0.2-0.2,0.4-0.4,0.6c-0.2,0.2-0.4,0.4-0.7,0.5c-0.3,0.1-0.6,0.2-1.1,0.4
					c-0.5,0.1-0.9,0.2-1.3,0.3c-1.6,0.3-2.9,0.7-3.8,1c-1,0.3-1.7,0.7-2.2,1c-0.5,0.4-0.9,0.7-1.2,1.1c-0.3,0.4-0.6,0.8-0.7,1.3
					c-0.2,0.5-0.2,0.9-0.2,1.4c0,0.8,0.2,1.7,0.6,2.5c0.4,0.8,1.1,1.4,2,1.8c0.9,0.4,2,0.6,3.4,0.6c0.4,0,0.8,0,1.3,0
					c0.5,0,1.1-0.1,1.9-0.2c0.3-1.3,0.6-2.2,0.8-2.8c-0.7,0.2-1.2,0.4-1.6,0.4c-0.4,0.1-0.8,0.1-1.1,0.1c-0.6,0-1-0.1-1.4-0.2
					c-0.4-0.1-0.7-0.4-1-0.7c-0.3-0.3-0.4-0.7-0.4-1.2c0-0.3,0.1-0.6,0.2-0.8c0.1-0.2,0.3-0.5,0.5-0.7c0.2-0.2,0.5-0.4,0.9-0.6
					c0.3-0.2,0.7-0.3,1.1-0.5c0.4-0.1,1-0.3,1.7-0.5c0.7-0.2,1.2-0.3,1.5-0.4c0.3-0.1,0.5-0.2,0.7-0.3c0.2-0.1,0.5-0.3,1-0.6
					l-0.6,8.8H90c0,0,0.1-5.4,0.3-8c0.2-2.6,0.3-4.2,0.3-4.8c0-1.2-0.3-2.1-0.9-2.7C89.1,61.4,88.3,60.9,87.3,60.6z M117,60.7
					c-0.9-0.3-1.8-0.5-2.7-0.5c-0.6,0-1.1,0.1-1.6,0.2c-0.5,0.1-1,0.3-1.4,0.4c-0.4,0.2-0.8,0.4-1.2,0.7c-0.3,0.3-0.6,0.5-0.8,0.8
					c-0.2,0.3-0.4,0.6-0.7,1c-0.2-0.5-0.4-0.9-0.6-1.2c-0.2-0.3-0.4-0.5-0.7-0.7c-0.3-0.2-0.6-0.4-1-0.6c-0.4-0.2-0.8-0.3-1.3-0.4
					c-0.5-0.1-0.9-0.1-1.4-0.1c-0.7,0-1.3,0.1-1.9,0.2c-0.6,0.2-1.2,0.4-1.6,0.7c-0.5,0.3-0.8,0.6-1.1,0.9c-0.3,0.3-0.6,0.7-1,1.3
					l0.1-2.7h-4.5l-0.7,16.9h4.8c0,0,0.1-3.4,0.2-5.9c0.1-2.5,0.3-4.1,0.6-5c0.3-0.9,0.7-1.5,1.3-2c0.6-0.5,1.3-0.8,2.1-0.8
					c0.4,0,0.8,0.1,1.1,0.2c0.3,0.1,0.6,0.4,0.8,0.7c0.2,0.3,0.4,0.6,0.5,1c0.1,0.3,0.1,0.7,0.1,1.2c0,0.9-0.1,2.7-0.2,5.3
					c-0.1,2.6-0.3,4.4-0.3,5.2c1,0,3.8,0,4.8,0l0.1-4.6c0.1-1.6,0.1-3,0.2-4c0.1-1,0.2-1.8,0.4-2.4c0.2-0.6,0.5-1.1,0.8-1.5
					c0.4-0.4,0.7-0.7,1.1-0.9c0.4-0.2,0.9-0.3,1.4-0.3c0.5,0,0.9,0.1,1.3,0.3c0.4,0.2,0.7,0.5,0.9,0.9c0.2,0.4,0.4,1,0.4,1.8
					c0,0.7,0,1.5-0.1,2.4l-0.2,3.8c-0.1,1.6-0.2,3.1-0.3,4.5c1,0,3.9,0,4.7,0c0-1.3,0.1-3.1,0.2-5.4c0.1-2.3,0.2-4,0.3-5
					c0.1-1,0.1-1.8,0.1-2.3c0-1-0.2-1.9-0.7-2.5C118.6,61.5,117.9,61,117,60.7z M135,60.6c-1-0.3-2.1-0.4-3.4-0.4
					c-1.1,0-2.2,0.1-3.3,0.2c-1.2,0.1-4,0.7-4,0.7l-0.5,3.1c0,0,4.7-1.4,6.7-1.4c0.5,0,1,0.1,1.5,0.2c0.5,0.1,0.8,0.3,1.1,0.6
					c0.3,0.3,0.4,0.7,0.4,1.1c0,0.2,0,0.4-0.1,0.7c-0.1,0.2-0.2,0.4-0.4,0.6c-0.2,0.2-0.4,0.4-0.7,0.5c-0.3,0.1-0.6,0.2-1.1,0.4
					c-0.5,0.1-0.9,0.2-1.3,0.3c-1.6,0.3-2.9,0.7-3.8,1c-1,0.3-1.7,0.7-2.2,1c-0.5,0.4-0.9,0.7-1.2,1.1c-0.3,0.4-0.6,0.8-0.7,1.3
					c-0.2,0.5-0.3,0.9-0.3,1.4c0,0.8,0.2,1.7,0.6,2.5c0.4,0.8,1.1,1.4,2,1.8c0.9,0.4,2,0.6,3.5,0.6c0.4,0,0.8,0,1.3,0
					c0.5,0,1.1-0.1,1.9-0.2c0.3-1.3,0.6-2.2,0.8-2.8c-0.7,0.2-1.2,0.4-1.6,0.4c-0.4,0.1-0.8,0.1-1.1,0.1c-0.6,0-1-0.1-1.5-0.2
					c-0.4-0.1-0.8-0.4-1-0.7c-0.3-0.3-0.4-0.7-0.4-1.2c0-0.3,0.1-0.6,0.2-0.8c0.1-0.2,0.3-0.5,0.5-0.7c0.2-0.2,0.5-0.4,0.9-0.6
					c0.3-0.2,0.7-0.3,1.1-0.5c0.4-0.1,1-0.3,1.7-0.5c0.7-0.2,1.2-0.3,1.5-0.4c0.3-0.1,0.5-0.2,0.7-0.3c0.2-0.1,0.5-0.3,1-0.6
					l-0.6,8.8h4.7c0,0,0.1-5.4,0.3-8c0.2-2.6,0.3-4.2,0.3-4.8c0-1.2-0.3-2.1-0.9-2.7C136.8,61.4,136,60.9,135,60.6z M140.3,73
					c-0.1,2.2-0.1,3.7-0.2,4.5c1.6,0,4.7,0,4.7,0s0.2-3.7,0.2-4.5C143.8,73.1,140.3,73,140.3,73z M152.7,65.2
					c0.5-0.5,1.1-0.9,1.7-1.2c0.7-0.3,1.4-0.4,2.1-0.4c1.2,0,2.7,0.3,4.3,0.8l-0.2-3.6c-1-0.3-1.9-0.4-2.7-0.5
					c-0.8-0.1-1.5-0.1-2.2-0.1c-1.3,0-2.5,0.1-3.5,0.4c-1.1,0.3-2,0.9-2.9,1.7c-0.9,0.8-1.5,1.9-2,3.2c-0.5,1.3-0.7,2.6-0.7,4
					c0,1.1,0.1,2.1,0.4,3.1c0.3,1,0.7,1.8,1.2,2.5c0.5,0.7,1.2,1.3,1.9,1.7c0.7,0.4,1.5,0.7,2.3,0.9c0.8,0.2,1.7,0.2,2.6,0.2
					c1.5,0,3.1-0.2,4.7-0.5c0.1-0.8,0.2-1.6,0.4-2.1c0.1-0.6,0.2-1.1,0.2-1.5c-0.8,0.3-1.6,0.5-2.3,0.6c-0.7,0.1-1.3,0.2-1.8,0.2
					c-1,0-1.9-0.2-2.7-0.6c-0.8-0.4-1.4-1-1.7-1.8c-0.3-0.8-0.5-1.7-0.5-2.7c0-0.8,0.1-1.5,0.3-2.2
					C151.8,66.4,152.2,65.8,152.7,65.2z M178.1,62.5c-0.8-0.7-1.8-1.3-3-1.7c-1.2-0.4-2.4-0.6-3.7-0.6c-1.4,0-2.7,0.2-4,0.7
					c-1.3,0.5-2.3,1.1-3.2,2c-0.8,0.9-1.4,1.9-1.8,3c-0.4,1.1-0.6,2.3-0.6,3.5c0,1.2,0.2,2.3,0.6,3.4c0.4,1.1,1.1,2,1.9,2.8
					c0.8,0.8,1.8,1.3,3,1.7c1.2,0.4,2.4,0.6,3.7,0.6c1.4,0,2.7-0.2,3.9-0.6c1.2-0.4,2.3-1.1,3.1-1.9c0.8-0.9,1.5-1.9,1.9-3.1
					c0.4-1.2,0.7-2.4,0.7-3.7c0-1.2-0.2-2.3-0.6-3.4C179.5,64.1,178.9,63.2,178.1,62.5z M175.2,71.7c-0.4,0.9-0.9,1.6-1.7,2.1
					c-0.7,0.5-1.6,0.7-2.6,0.7c-1,0-1.8-0.2-2.5-0.7c-0.7-0.5-1.2-1.1-1.5-1.8c-0.3-0.8-0.5-1.6-0.5-2.6c0-1.1,0.2-2.1,0.6-3
					c0.4-0.9,0.9-1.6,1.7-2.1c0.8-0.5,1.6-0.7,2.6-0.7c1,0,1.8,0.2,2.5,0.7c0.7,0.5,1.2,1.1,1.5,1.8c0.3,0.8,0.4,1.6,0.4,2.5
					C175.8,69.8,175.6,70.8,175.2,71.7z M207.9,62.2c-0.5-0.7-1.2-1.2-2-1.5c-0.9-0.3-1.8-0.5-2.7-0.5c-0.6,0-1.1,0.1-1.6,0.2
					c-0.5,0.1-1,0.3-1.4,0.4c-0.4,0.2-0.8,0.4-1.1,0.7c-0.3,0.3-0.6,0.5-0.8,0.8c-0.2,0.3-0.4,0.6-0.7,1c-0.2-0.5-0.4-0.9-0.6-1.2
					c-0.2-0.3-0.4-0.5-0.7-0.7c-0.3-0.2-0.6-0.4-1-0.6c-0.4-0.2-0.8-0.3-1.3-0.4c-0.5-0.1-0.9-0.1-1.4-0.1c-0.7,0-1.3,0.1-1.9,0.2
					c-0.6,0.2-1.2,0.4-1.6,0.7c-0.5,0.3-0.8,0.6-1.1,0.9c-0.3,0.3-0.6,0.7-1,1.3l0.1-2.7c-0.8,0-3.6,0-4.5,0c0,1.9-0.6,15-0.8,16.9
					c1,0,3.7,0,4.8,0c0-1.5,0.1-3.4,0.2-5.9c0.1-2.5,0.3-4.1,0.6-5c0.3-0.9,0.7-1.5,1.3-2c0.6-0.5,1.3-0.8,2-0.8
					c0.4,0,0.8,0.1,1.1,0.2c0.3,0.1,0.6,0.4,0.8,0.7c0.2,0.3,0.4,0.6,0.5,1c0.1,0.3,0.1,0.7,0.1,1.2c0,0.9-0.1,2.7-0.2,5.3
					c-0.1,2.6-0.3,4.4-0.3,5.2c1,0,3.8,0,4.8,0l0.1-4.6c0.1-1.6,0.1-3,0.2-4c0.1-1,0.2-1.8,0.4-2.4c0.2-0.6,0.5-1.1,0.8-1.5
					c0.3-0.4,0.7-0.7,1.1-0.9c0.4-0.2,0.9-0.3,1.4-0.3c0.5,0,0.9,0.1,1.3,0.3c0.4,0.2,0.7,0.5,0.9,0.9c0.3,0.4,0.4,1,0.4,1.8
					c0,0.7,0,1.5-0.1,2.4l-0.2,3.8c-0.1,1.6-0.2,3.1-0.3,4.5c1,0,3.9,0,4.7,0c0-1.3,0.1-3.1,0.2-5.4c0.1-2.3,0.2-4,0.3-5
					c0.1-1,0.1-1.8,0.1-2.3C208.6,63.7,208.4,62.9,207.9,62.2z"/>
			</g>
		</g>
		<g id="形状_2_copy_3_副本_5_29_">
			<g>
				<path style="fill-rule:evenodd;clip-rule:evenodd;fill:#FF6600;" d="M22.9,7.4c7.1,0,14.1,0,21.2,0c0,10.6,0,21.5,0,31.3
					c0,0.6-0.8,1.6-1.6,1.6c-1.1,0-1.6,0-3,0v5.1c1.6,0,3,0,4.6,0c4.1,0,6.8-2,6.8-5.4c0-8.1,0-24.3,0-32.6h2.4V2.5H22.9V7.4z
					 M148.7,38.9c2.3,0,1.4,0,3.7,0c1.3,0,3.1-1.1,3.1-3.2c0-5.4,0-9.6,0-15c-1,0-2.1,0-3,0c0-4.1,0-12.6,0-15.6
					c0-1.2-1.2-2.6-2.8-2.6h-22.2v4.9h17.1c0,4.4,0,8.9,0,13.4c-4.1,0-4.7,0-8.2,0c-0.5,0-1-0.5-1-0.9c0-2.2,0-5.8,0-8.8
					c0-0.7-0.7-1.5-1.8-1.5h-5v11.8c0,2.3,2,4.2,4.2,4.2c0,0,8.7,0,15.9,0v4.4h-17.6c-2,0-5,1.9-5,4.9c6.1,0,15.9-0.1,22.6-0.1
					C148.7,36.1,148.7,37.4,148.7,38.9z M40.8,31.5c0-5.6,0-13.5,0-21.1H23.2v26.9c5.2,0,11.7,0,11.7,0
					C39.3,37.3,40.8,34.7,40.8,31.5z M33.3,32.4c-1.3,0-2.7,0-4.5,0V15.6c1.9,0,4.1,0,6,0c0,5.1,0,10.7,0,15.2
					C34.9,31.7,34.3,32.4,33.3,32.4z M3,3.8C3,13.4,3,26,3,45.4h6.5c0-12.1,0-25.4,0-38c1.5,0,3.4,0,4.9,0c0,7.3,0,13.8,0,20.6
					c0,2.8-2.5,3.8-2.5,3.8v5.4c4.6,0,8.7-4.7,8.7-9c0-7.8,0-17.8,0-25.7c-5.9,0-10.4,0-16.3,0C3,2.5,3,3.8,3,3.8z M206.3,20.8
					c0-4.1,0-12.6,0-15.6c0-1.2-1.2-2.6-2.8-2.6h-22.2v4.9c5.7,0,11.4,0,17.1,0v13.3c-4.1,0-4.7,0-8.2,0c-0.5,0-1-0.5-1-0.9
					c0-2.2,0-5.8,0-8.8c0-0.7-0.7-1.4-1.8-1.4c-1.4,0-3.4,0-5.1,0v11.8c0,2.3,2,4.2,4.2,4.2c0,0,8.7,0,15.9,0V30h-17.4
					c-2,0-5.1,1.7-5.1,4.8c6.1,0,15.8,0,22.5,0v4.5c0,0.8-0.6,1.1-1.5,1.1h-2.6c0,2.2,0,3.4,0,4.9h4c1.2,0,0.9,0,2.2,0
					c3.3,0,4.8-2.4,4.7-4.3c0-6.1,0-14.2,0-20.4C208.3,20.8,207.2,20.8,206.3,20.8z M174.8,37.2c2.4-2.6,3.7-5.7,4-11.6
					c0-6.4,0-12.6,0-18.9c0-0.5-0.7-1.2-1.3-1.2c-2.5,0-5.6,0-8.4,0v-3h-6.5c0,1,0,2,0,3c-0.7,0-1.5,0-2.2,0v4.9h2.2v15.3
					c0,5.9,1.9,8.9,4.3,11.6c-2.9,2-5.8,3.3-9.8,3.3c-0.5,0-1.1,0-1.7,0c-6.1,0-13.5,0-20.1,0c-6.1,0-12-1.1-14.3-3.8
					c2.1-2.8,3.2-5.2,3.9-11.1c0-5.9,0-10.9,0-18.5c-0.1-0.8-0.8-1.6-1.6-1.6c-2.6,0-5.2,0-8.3,0v-3c-2.7,0-3.7,0-6.4,0v3
					c-0.7,0-1.2,0-2.2,0v4.9c1,0,1.5,0,2.2,0c0,5,0,10.6,0,15.2c0.5,5.9,2.4,7.8,4.7,11.3c-3.3,2.3-7.3,3.3-12,3.6
					c-5.6,0-10.6,0-17.7,0c0-1.2,0-2.9,0-3.8h17.7v-5.2H83.8c0-1.2,0-2.6,0-3.8c5.1,0,11.8,0,13.3,0c0,0,4.3,0,4.4-4.7
					c0.1-5,0-13.9,0-20.5c-14,0-28.2,0-42.2,0c-0.7,0-1.3,0.7-1.3,1.3c0,1,0,16.7,0,24c5.9,0,11.8,0,17.7,0v3.8H57.9
					c0,1.6,0,3.5,0,5.2h17.6c0,1.3,0,2.6,0,3.8H54.9c0,1.4,0,3.3,0,4.8c15.5,0,34.7,0.1,49.8,0c4.1,0,9.1-2.1,12.7-4.2
					c4.6,3.5,9.6,4.2,18,4.2c2.5,0,5.4,0,8.4,0c4.4,0,8.2,0,11.7,0c7,0,11.5-1.5,15.8-4c4,2.4,7.8,3.8,13.9,4v0h9.4v-4.9h-9.4
					C181,40.1,177.6,39.5,174.8,37.2z M75.5,22.9H64.7v-5.2h10.9V22.9z M75.6,12.6H64.7V7.4c3.6,0,7.2,0,10.9,0V12.6z M83.7,7.4
					h10.9v5.2H83.7V7.4z M83.7,17.7c3.6,0,7.2,0,10.9,0c0,2.1,0,3.7,0,5.2H83.7C83.7,21.5,83.7,19.4,83.7,17.7z M118.9,25.7
					c-0.2,3.4-0.8,4.2-1.6,6.4c-1-2.1-1.9-3.1-2.1-6.5c0-4.4,0-10.6,0-15.2h3.7V25.7z M172.7,25.7c-0.1,3.2-0.9,4.7-1.7,6.4
					c-1-1.7-1.9-3.5-1.9-6.4c0-4.7,0-10.4,0-15.3h3.6C172.7,15.3,172.7,20.9,172.7,25.7z"/>
			</g>
		</g>
	</g>
</g>
</svg>
