<?xml version="1.0" encoding="utf-8"?>
<!-- Generator: Adobe Illustrator 17.1.0, SVG Export Plug-In . SVG Version: 6.00 Build 0)  -->
<!DOCTYPE svg PUBLIC "-//W3C//DTD SVG 1.1//EN" "http://www.w3.org/Graphics/SVG/1.1/DTD/svg11.dtd">
<svg version="1.1" id="图层_1" xmlns="http://www.w3.org/2000/svg" xmlns:xlink="http://www.w3.org/1999/xlink" x="0px" y="0px"
	 viewBox="0 0 559.5 81" style="enable-background:new 0 0 559.5 81;" xml:space="preserve">
<g>
	<rect x="229.1" y="3.7" style="fill-rule:evenodd;clip-rule:evenodd;fill:#CCCCCC;" width="1.4" height="74.7"/>
	<g>
		<g id="形状_2_copy_3_副本_4_33_">
			<g>
				<path style="fill-rule:evenodd;clip-rule:evenodd;fill:#CCCCCC;" d="M12,55.7C8.1,63.4,4.6,70.3,0.5,78.3H6
					c1-1.9,1.6-3.1,2.8-5.4c2.9,0,5,0,7.9,0c-0.6-1.7-1-2.9-1.5-4.3h-4.4c1.3-2.6,2-4,4-7.5c2,5.9,4.1,11.8,6.1,17.2h5
					c-2.8-7.9-5.2-14.7-7.9-22.6H12z M27.3,78.3H32l1-22.6l-4.7,0L27.3,78.3z M34.7,78.3h5l0.6-16.8h-4.8L34.7,78.3z M35.8,55.7
					l-0.1,3.6c0,0,3.7,0,4.7,0l0.2-3.6C36.3,55.7,36.3,55.7,35.8,55.7z M66.6,61.6c-0.9-0.3-1.8-0.5-2.7-0.5c-0.6,0-1.1,0.1-1.6,0.2
					c-0.5,0.1-1,0.2-1.4,0.4c-0.4,0.2-0.8,0.4-1.1,0.7c-0.3,0.3-0.6,0.5-0.8,0.8c-0.2,0.3-0.4,0.6-0.7,1c-0.2-0.5-0.4-0.9-0.6-1.2
					c-0.2-0.3-0.4-0.5-0.7-0.7c-0.3-0.2-0.6-0.4-1-0.6c-0.4-0.2-0.8-0.3-1.3-0.4c-0.5-0.1-0.9-0.1-1.4-0.1c-0.7,0-1.3,0.1-1.9,0.2
					c-0.6,0.2-1.2,0.4-1.6,0.7c-0.5,0.3-0.8,0.6-1.1,0.9c-0.3,0.3-0.6,0.7-1,1.3l0.1-2.7h-4.5l-0.7,16.8c0,0,3.7,0,4.7,0
					c0-1.4,0.1-3.4,0.2-5.8c0.1-2.5,0.3-4.1,0.6-5c0.3-0.8,0.7-1.5,1.3-2c0.6-0.5,1.3-0.8,2-0.8c0.4,0,0.8,0.1,1.1,0.2
					c0.3,0.1,0.6,0.4,0.8,0.7c0.2,0.3,0.4,0.6,0.5,1c0.1,0.3,0.1,0.7,0.1,1.2c0,0.9-0.1,2.7-0.2,5.3c-0.1,2.6-0.3,4.4-0.3,5.2
					c1,0,3.8,0,4.7,0l0.1-4.6c0.1-1.6,0.1-3,0.2-4c0.1-1,0.2-1.8,0.4-2.4c0.2-0.6,0.5-1.1,0.8-1.5c0.3-0.4,0.7-0.7,1.1-0.9
					c0.4-0.2,0.9-0.3,1.4-0.3c0.5,0,0.9,0.1,1.3,0.3c0.4,0.2,0.7,0.5,0.9,0.9c0.2,0.4,0.4,1,0.4,1.8c0,0.7,0,1.5-0.1,2.4l-0.2,3.8
					c-0.1,1.6-0.2,3-0.3,4.5c1,0,3.9,0,4.7,0c0-1.3,0.1-3.1,0.2-5.4c0.1-2.3,0.2-4,0.3-5c0.1-1,0.1-1.8,0.1-2.3c0-1-0.2-1.8-0.7-2.5
					C68.1,62.4,67.4,61.9,66.6,61.6z M84.4,61.5c-1-0.3-2.1-0.4-3.3-0.4c-1.1,0-2.2,0.1-3.3,0.2c-1.1,0.1-4,0.7-4,0.7l-0.5,3.1
					c0,0,4.7-1.4,6.7-1.4c0.5,0,1,0.1,1.5,0.2c0.4,0.1,0.8,0.3,1.1,0.6c0.3,0.3,0.4,0.7,0.4,1.1c0,0.2,0,0.4-0.1,0.6
					c-0.1,0.2-0.2,0.4-0.4,0.6c-0.2,0.2-0.4,0.4-0.7,0.5c-0.3,0.1-0.6,0.2-1.1,0.4c-0.5,0.1-0.9,0.2-1.3,0.3c-1.6,0.3-2.9,0.7-3.8,1
					c-1,0.3-1.7,0.7-2.2,1c-0.5,0.4-0.9,0.7-1.2,1.1c-0.3,0.4-0.6,0.8-0.7,1.3C71.1,73,71,73.4,71,73.9c0,0.8,0.2,1.6,0.6,2.5
					c0.4,0.8,1.1,1.4,2,1.8c0.9,0.4,2,0.6,3.4,0.6c0.4,0,0.8,0,1.3,0c0.5,0,1.1-0.1,1.9-0.2c0.3-1.2,0.6-2.2,0.8-2.8
					c-0.7,0.2-1.2,0.4-1.6,0.4c-0.4,0.1-0.8,0.1-1.1,0.1c-0.6,0-1-0.1-1.4-0.2c-0.4-0.1-0.7-0.4-1-0.7c-0.3-0.3-0.4-0.7-0.4-1.2
					c0-0.3,0.1-0.6,0.2-0.8c0.1-0.2,0.3-0.5,0.5-0.7c0.2-0.2,0.5-0.4,0.9-0.6c0.3-0.2,0.7-0.3,1.1-0.5c0.4-0.1,1-0.3,1.7-0.5
					c0.7-0.2,1.2-0.3,1.5-0.4c0.3-0.1,0.5-0.2,0.7-0.3c0.2-0.1,0.5-0.3,1-0.6l-0.6,8.8h4.7c0,0,0.1-5.4,0.3-8
					c0.2-2.6,0.3-4.2,0.3-4.8c0-1.2-0.3-2-0.9-2.7C86.3,62.2,85.5,61.8,84.4,61.5z M114,61.6c-0.8-0.3-1.8-0.5-2.7-0.5
					c-0.6,0-1.1,0.1-1.6,0.2c-0.5,0.1-1,0.2-1.4,0.4c-0.4,0.2-0.8,0.4-1.1,0.7c-0.3,0.3-0.6,0.5-0.8,0.8c-0.2,0.3-0.4,0.6-0.7,1
					c-0.2-0.5-0.4-0.9-0.6-1.2c-0.2-0.3-0.4-0.5-0.7-0.7c-0.3-0.2-0.6-0.4-1-0.6c-0.4-0.2-0.8-0.3-1.3-0.4c-0.5-0.1-0.9-0.1-1.4-0.1
					c-0.7,0-1.3,0.1-1.9,0.2c-0.6,0.2-1.2,0.4-1.6,0.7c-0.5,0.3-0.8,0.6-1.1,0.9c-0.3,0.3-0.6,0.7-1,1.3l0.1-2.7h-4.5l-0.7,16.8h4.7
					c0,0,0.1-3.4,0.2-5.8c0.1-2.5,0.3-4.1,0.6-5c0.3-0.8,0.7-1.5,1.3-2c0.6-0.5,1.3-0.8,2-0.8c0.4,0,0.8,0.1,1.1,0.2
					c0.3,0.1,0.6,0.4,0.8,0.7c0.2,0.3,0.4,0.6,0.5,1c0.1,0.3,0.1,0.7,0.1,1.2c0,0.9-0.1,2.7-0.2,5.3c-0.1,2.6-0.3,4.4-0.3,5.2
					c1,0,3.8,0,4.7,0l0.1-4.6c0.1-1.6,0.1-3,0.2-4c0.1-1,0.2-1.8,0.4-2.4c0.2-0.6,0.5-1.1,0.8-1.5c0.3-0.4,0.7-0.7,1.1-0.9
					c0.4-0.2,0.9-0.3,1.3-0.3c0.5,0,0.9,0.1,1.3,0.3c0.4,0.2,0.7,0.5,0.9,0.9c0.2,0.4,0.4,1,0.4,1.8c0,0.7,0,1.5-0.1,2.4l-0.2,3.8
					c-0.1,1.6-0.2,3-0.3,4.5c1,0,3.9,0,4.7,0c0-1.3,0.1-3.1,0.2-5.4c0.1-2.3,0.2-4,0.3-5c0.1-1,0.1-1.8,0.1-2.3c0-1-0.2-1.8-0.7-2.5
					C115.6,62.4,114.9,61.9,114,61.6z M131.9,61.5c-1-0.3-2.1-0.4-3.4-0.4c-1.1,0-2.2,0.1-3.3,0.2c-1.2,0.1-4,0.7-4,0.7l-0.5,3.1
					c0,0,4.7-1.4,6.7-1.4c0.5,0,1,0.1,1.5,0.2c0.5,0.1,0.8,0.3,1.1,0.6c0.3,0.3,0.4,0.7,0.4,1.1c0,0.2,0,0.4-0.1,0.6
					c-0.1,0.2-0.2,0.4-0.4,0.6c-0.2,0.2-0.4,0.4-0.7,0.5c-0.3,0.1-0.6,0.2-1.1,0.4c-0.5,0.1-0.9,0.2-1.3,0.3c-1.6,0.3-2.9,0.7-3.8,1
					c-1,0.3-1.7,0.7-2.2,1c-0.5,0.4-0.9,0.7-1.2,1.1c-0.3,0.4-0.6,0.8-0.7,1.3c-0.2,0.5-0.3,0.9-0.3,1.4c0,0.8,0.2,1.6,0.6,2.5
					c0.4,0.8,1.1,1.4,2,1.8c0.9,0.4,2,0.6,3.4,0.6c0.4,0,0.8,0,1.3,0c0.5,0,1.1-0.1,1.9-0.2c0.3-1.2,0.6-2.2,0.8-2.8
					c-0.7,0.2-1.2,0.4-1.6,0.4c-0.4,0.1-0.8,0.1-1.1,0.1c-0.6,0-1-0.1-1.4-0.2c-0.4-0.1-0.7-0.4-1-0.7c-0.3-0.3-0.4-0.7-0.4-1.2
					c0-0.3,0.1-0.6,0.2-0.8c0.1-0.2,0.3-0.5,0.5-0.7c0.2-0.2,0.5-0.4,0.9-0.6c0.3-0.2,0.7-0.3,1.1-0.5c0.4-0.1,1-0.3,1.7-0.5
					c0.7-0.2,1.2-0.3,1.5-0.4c0.3-0.1,0.5-0.2,0.7-0.3c0.2-0.1,0.5-0.3,1-0.6l-0.6,8.8h4.7c0,0,0.1-5.4,0.3-8
					c0.2-2.6,0.3-4.2,0.3-4.8c0-1.2-0.3-2-0.9-2.7C133.7,62.2,132.9,61.8,131.9,61.5z M137.2,73.9c-0.1,2.2-0.1,3.7-0.2,4.4
					c1.6,0,4.6,0,4.6,0s0.2-3.6,0.2-4.4C140.7,73.9,137.2,73.9,137.2,73.9z M149.5,66.1c0.5-0.5,1.1-0.9,1.7-1.2
					c0.7-0.3,1.4-0.4,2.1-0.4c1.2,0,2.7,0.3,4.3,0.8l-0.2-3.6c-1-0.3-1.9-0.4-2.7-0.5c-0.8-0.1-1.5-0.1-2.2-0.1
					c-1.3,0-2.5,0.1-3.5,0.4c-1.1,0.3-2,0.8-2.9,1.7c-0.9,0.8-1.5,1.9-2,3.1c-0.5,1.3-0.7,2.6-0.7,4c0,1,0.1,2.1,0.4,3.1
					c0.3,1,0.7,1.8,1.2,2.5c0.5,0.7,1.2,1.3,1.9,1.7c0.7,0.4,1.5,0.7,2.3,0.9c0.8,0.2,1.7,0.2,2.6,0.2c1.5,0,3.1-0.2,4.7-0.5
					c0.1-0.8,0.2-1.6,0.4-2.1c0.1-0.6,0.2-1.1,0.2-1.5c-0.8,0.3-1.5,0.5-2.3,0.6c-0.7,0.1-1.3,0.2-1.8,0.2c-1,0-1.9-0.2-2.7-0.6
					c-0.8-0.4-1.4-1-1.7-1.8c-0.3-0.8-0.5-1.7-0.5-2.7c0-0.8,0.1-1.5,0.3-2.2C148.7,67.3,149,66.6,149.5,66.1z M174.8,63.3
					c-0.8-0.7-1.8-1.3-3-1.7c-1.2-0.4-2.4-0.6-3.7-0.6c-1.4,0-2.7,0.2-4,0.7c-1.3,0.5-2.3,1.1-3.2,2c-0.8,0.9-1.4,1.8-1.8,2.9
					c-0.4,1.1-0.6,2.3-0.6,3.5c0,1.2,0.2,2.3,0.6,3.4c0.4,1.1,1,2,1.9,2.8c0.8,0.8,1.8,1.3,3,1.7c1.2,0.4,2.4,0.6,3.7,0.6
					c1.4,0,2.7-0.2,3.9-0.6c1.2-0.4,2.2-1.1,3.1-1.9c0.8-0.9,1.4-1.9,1.9-3c0.4-1.2,0.6-2.4,0.6-3.6c0-1.2-0.2-2.3-0.6-3.4
					C176.2,65,175.6,64.1,174.8,63.3z M172,72.6c-0.4,0.9-0.9,1.6-1.7,2.1c-0.7,0.5-1.6,0.7-2.6,0.7c-0.9,0-1.8-0.2-2.5-0.7
					c-0.7-0.5-1.2-1.1-1.5-1.8c-0.3-0.8-0.5-1.6-0.5-2.6c0-1.1,0.2-2.1,0.6-3c0.4-0.9,0.9-1.6,1.7-2.1c0.8-0.5,1.6-0.7,2.6-0.7
					c1,0,1.8,0.2,2.5,0.7c0.7,0.4,1.2,1.1,1.4,1.8c0.3,0.8,0.4,1.6,0.4,2.5C172.5,70.6,172.3,71.6,172,72.6z M204.5,63
					c-0.5-0.7-1.2-1.2-2-1.5c-0.9-0.3-1.8-0.5-2.7-0.5c-0.6,0-1.1,0.1-1.6,0.2c-0.5,0.1-1,0.2-1.4,0.4c-0.4,0.2-0.8,0.4-1.1,0.7
					c-0.3,0.3-0.6,0.5-0.8,0.8c-0.2,0.3-0.4,0.6-0.7,1c-0.2-0.5-0.4-0.9-0.6-1.2c-0.2-0.3-0.4-0.5-0.7-0.7c-0.3-0.2-0.6-0.4-1-0.6
					c-0.4-0.2-0.8-0.3-1.3-0.4c-0.5-0.1-0.9-0.1-1.4-0.1c-0.7,0-1.3,0.1-1.9,0.2c-0.6,0.2-1.2,0.4-1.6,0.7c-0.5,0.3-0.8,0.6-1.1,0.9
					c-0.3,0.3-0.6,0.7-1,1.3l0.1-2.7c-0.8,0-3.5,0-4.5,0c0,1.9-0.6,14.9-0.7,16.8c1,0,3.7,0,4.7,0c0-1.4,0.1-3.4,0.2-5.8
					c0.1-2.5,0.3-4.1,0.6-5c0.3-0.8,0.7-1.5,1.3-2c0.6-0.5,1.3-0.8,2-0.8c0.4,0,0.8,0.1,1.1,0.2c0.3,0.1,0.6,0.4,0.8,0.7
					c0.2,0.3,0.4,0.6,0.5,1c0.1,0.3,0.1,0.7,0.1,1.2c0,0.9-0.1,2.7-0.2,5.3c-0.1,2.6-0.3,4.4-0.3,5.2c1,0,3.8,0,4.7,0l0.1-4.6
					c0.1-1.6,0.1-3,0.2-4c0.1-1,0.2-1.8,0.4-2.4c0.2-0.6,0.5-1.1,0.8-1.5c0.3-0.4,0.7-0.7,1.1-0.9c0.4-0.2,0.9-0.3,1.4-0.3
					c0.5,0,0.9,0.1,1.3,0.3c0.4,0.2,0.7,0.5,0.9,0.9c0.3,0.4,0.4,1,0.4,1.8c0,0.7,0,1.5-0.1,2.4l-0.2,3.8c-0.1,1.6-0.2,3-0.3,4.5
					c1,0,3.9,0,4.7,0c0-1.3,0.1-3.1,0.2-5.4c0.1-2.3,0.2-4,0.3-5c0.1-1,0.1-1.8,0.1-2.3C205.2,64.6,205,63.7,204.5,63z"/>
			</g>
		</g>
		<g id="形状_2_copy_3_副本_5_33_">
			<g>
				<path style="fill-rule:evenodd;clip-rule:evenodd;fill:#FF6600;" d="M20.3,8.5c7,0,14.1,0,21.1,0c0,10.5,0,21.4,0,31.1
					c0,0.6-0.8,1.5-1.6,1.6c-1.1,0-1.6,0-3,0v5.1c1.6,0,3,0,4.6,0c4.1,0,6.8-2,6.8-5.4c0-8.1,0-24.2,0-32.4h2.4V3.7H20.3V8.5z
					 M145.6,39.9c2.3,0,1.4,0,3.6,0c1.3,0,3.1-1.1,3.1-3.2c0-5.3,0-9.5,0-14.9c-1,0-2.1,0-3,0c0-4.1,0-12.5,0-15.5
					c0-1.2-1.2-2.6-2.8-2.6h-22.1v4.9h17c0,4.4,0,8.9,0,13.3c-4.1,0-4.7,0-8.2,0c-0.5,0-1-0.5-1-0.9c0-2.2,0-5.8,0-8.7
					c0-0.7-0.7-1.5-1.8-1.5h-5v11.8c0,2.3,2,4.2,4.2,4.2c0,0,8.7,0,15.9,0v4.4H128c-1.9,0-4.9,1.8-4.9,4.9c6.1,0,15.9-0.1,22.5-0.1
					C145.6,37.1,145.6,38.4,145.6,39.9z M38.2,32.5c0-5.6,0-13.4,0-21H20.6v26.8c5.1,0,11.6,0,11.6,0C36.7,38.2,38.2,35.7,38.2,32.5
					z M30.7,33.3c-1.3,0-2.6,0-4.4,0V16.6c1.9,0,4.1,0,6,0c0,5.1,0,10.7,0,15.1C32.2,32.7,31.7,33.3,30.7,33.3z M0.5,4.9
					c0,9.6,0,22.2,0,41.4H7C7,34.2,7,21,7,8.5c1.5,0,3.3,0,4.9,0c0,7.3,0,13.8,0,20.5c0,2.8-2.5,3.8-2.5,3.8v5.4
					c4.6,0,8.7-4.7,8.7-9c0-7.8,0-17.7,0-25.5c-5.9,0-10.4,0-16.2,0C0.5,3.6,0.5,4.9,0.5,4.9z M203,21.8c0-4.1,0-12.5,0-15.5
					c0-1.2-1.2-2.6-2.8-2.6h-22.1v4.9c5.7,0,11.4,0,17,0v13.3c-4.1,0-4.7,0-8.2,0c-0.5,0-1-0.5-1-0.9c0-2.2,0-5.8,0-8.7
					c0-0.7-0.7-1.4-1.8-1.4c-1.4,0-3.4,0-5,0v11.7c0,2.3,2,4.2,4.2,4.2c0,0,8.7,0,15.9,0V31h-17.3c-1.9,0-5,1.7-5,4.8
					c6.1,0,15.8,0,22.4,0v4.5c0,0.8-0.6,1.1-1.5,1.1h-2.6c0,2.2,0,3.4,0,4.8h3.9c1.2,0,0.9,0,2.1,0c3.3,0,4.7-2.3,4.7-4.2
					c0-6.1,0-14.2,0-20.3C204.9,21.8,203.9,21.8,203,21.8z M171.6,38.2c2.4-2.6,3.7-5.7,4-11.5c0-6.4,0-12.5,0-18.8
					c0-0.5-0.7-1.2-1.3-1.2c-2.5,0-5.6,0-8.3,0V3.7h-6.5c0,1,0,2,0,2.9c-0.7,0-1.5,0-2.2,0v4.9h2.2v15.2c0,5.9,1.9,8.8,4.3,11.5
					c-2.9,2-5.8,3.2-9.7,3.2c-0.5,0-1.1,0-1.7,0c-6.1,0-13.5,0-20,0c-6.1,0-12-1.1-14.2-3.8c2.1-2.8,3.2-5.1,3.8-11
					c0-5.9,0-10.9,0-18.4c-0.1-0.8-0.8-1.5-1.6-1.6c-2.6,0-5.1,0-8.3,0v-3c-2.7,0-3.7,0-6.3,0v3c-0.7,0-1.2,0-2.2,0v4.9
					c1,0,1.5,0,2.2,0c0,5,0,10.6,0,15.2c0.5,5.9,2.4,7.8,4.6,11.3c-3.3,2.3-7.3,3.3-12,3.6c-5.6,0-10.6,0-17.6,0c0-1.2,0-2.9,0-3.8
					h17.6v-5.1H80.9c0-1.2,0-2.5,0-3.8c5.1,0,11.7,0,13.3,0c0,0,4.3,0,4.3-4.7c0.1-4.9,0-13.8,0-20.4c-13.9,0-28.1,0-42,0
					c-0.7,0-1.3,0.7-1.3,1.3c0,1,0,16.6,0,23.9c5.9,0,11.7,0,17.6,0v3.8H55.2c0,1.6,0,3.4,0,5.1h17.6c0,1.3,0,2.5,0,3.8H52.2
					c0,1.4,0,3.3,0,4.8c15.5,0,34.6,0.1,49.6,0c4,0,9.1-2.1,12.7-4.2c4.6,3.5,9.6,4.2,17.9,4.2c2.5,0,5.3,0,8.4,0
					c4.3,0,8.2,0,11.6,0c7,0,11.4-1.5,15.7-4c3.9,2.4,7.7,3.8,13.8,4v0h9.3v-4.8h-9.3C177.7,41.1,174.3,40.4,171.6,38.2z M72.7,23.9
					H61.9v-5.1h10.8V23.9z M72.7,13.6H61.9V8.5c3.6,0,7.2,0,10.8,0V13.6z M80.9,8.5h10.8v5.1H80.9V8.5z M80.9,18.8
					c3.6,0,7.2,0,10.8,0c0,2.1,0,3.7,0,5.1H80.9C80.9,22.5,80.9,20.4,80.9,18.8z M115.9,26.7c-0.2,3.4-0.8,4.2-1.6,6.4
					c-1-2.1-1.9-3-2.1-6.4c0-4.4,0-10.5,0-15.2h3.7V26.7z M169.5,26.7c-0.1,3.1-0.9,4.7-1.7,6.4c-1-1.7-1.9-3.5-1.9-6.4
					c0-4.7,0-10.4,0-15.2h3.6C169.5,16.3,169.5,21.9,169.5,26.7z"/>
			</g>
		</g>
	</g>
	<g>
		<g>
			<polygon style="fill:#333333;" points="326.7,16.2 329.6,23.8 333.5,23.8 330.8,16.2 			"/>
			<polygon style="fill:#333333;" points="326.7,26 331,26 333.7,33.6 331.1,46.6 326.8,46.6 329.5,33.7 			"/>
			<polygon style="fill:#333333;" points="338,16.2 335.3,22.3 339.7,22.3 342.4,16.2 			"/>
			<rect x="339" y="19.5" style="fill:#333333;" width="16.2" height="2.7"/>
			<path style="fill:#333333;" d="M354.1,19.5v23.8v3.3h0.8c1.8,0,3.3-1.5,3.3-3.3V19.5H354.1z"/>
			<polygon style="fill:#333333;" points="337.2,23.4 341.6,23.4 338.9,29.4 334.6,29.4 			"/>
			<rect x="339.1" y="25.4" style="fill:#333333;" width="12.7" height="2.6"/>
			<rect x="335.3" y="31.8" style="fill:#333333;" width="17.7" height="2.7"/>
			<rect x="342.2" y="27.7" style="fill:#333333;" width="3.9" height="14.5"/>
			<rect x="336.3" y="36.1" style="fill:#333333;" width="3.4" height="7"/>
			<path style="fill:#333333;" d="M351.8,36.1h-3.4v5v3h0.4h0c1.6,0,3-1.3,3-3h0V36.1z"/>
			<rect x="336.3" y="41.4" style="fill:#333333;" width="12.2" height="2.6"/>
			<rect x="374.9" y="16.2" style="fill:#333333;" width="5.1" height="3.5"/>
			<rect x="363.1" y="18.9" style="fill:#333333;" width="28.4" height="2.8"/>
			<rect x="361.5" y="18.9" style="fill:#333333;" width="4.4" height="5.9"/>
			<path style="fill:#333333;" d="M393.3,20.8c0-1-0.8-1.8-1.8-1.8c-1,0-1.8,0.8-1.8,1.8c0,0,0,0.1,0,0.1h-0.8v4h4.5
				C393.3,24.8,393.3,20.8,393.3,20.8z"/>
			<rect x="363.5" y="26.4" style="fill:#333333;" width="27.7" height="3"/>
			<rect x="364.3" y="34.4" style="fill:#333333;" width="26" height="2.9"/>
			<rect x="374.9" y="28.8" style="fill:#333333;" width="4.7" height="16"/>
			<rect x="361.5" y="43.9" style="fill:#333333;" width="31.8" height="2.6"/>
			<polygon style="fill:#333333;" points="382.6,39.3 387.7,39.3 388.8,43.9 383.7,43.9 			"/>
			<rect x="397.7" y="18" style="fill:#333333;" width="28.6" height="2.9"/>
			<path style="fill:#333333;" d="M423.7,18c0,0.1,0,0.3,0,0.4c0,1.4,1.1,2.6,2.6,2.6c1.4,0,2.6-1.1,2.6-2.6c0-0.1,0-0.3,0-0.4
				H423.7z"/>
			<rect x="428.6" y="18" style="fill:#333333;" width="0.1" height="0.5"/>
			<rect x="410.9" y="16.2" style="fill:#333333;" width="4.7" height="7.1"/>
			<rect x="400.6" y="23.3" style="fill:#333333;" width="25.1" height="2.8"/>
			<rect x="400.6" y="25.6" style="fill:#333333;" width="4.5" height="21"/>
			<rect x="421.3" y="25.6" style="fill:#333333;" width="4.5" height="21"/>
			<rect x="405" y="28.7" style="fill:#333333;" width="16.3" height="2.4"/>
			<rect x="405.1" y="33.6" style="fill:#333333;" width="16.3" height="2.4"/>
			<rect x="405.1" y="38.8" style="fill:#333333;" width="16.3" height="2.4"/>
			<rect x="397" y="44" style="fill:#333333;" width="32.4" height="2.5"/>
			<rect x="441.5" y="16.3" style="fill:#333333;" width="20.6" height="2.5"/>
			<polygon style="fill:#333333;" points="457,18.8 452.5,23 457.4,23 462.1,18.8 			"/>
			<polygon style="fill:#333333;" points="444.6,20.4 449.6,20.4 452.3,23 447.4,23 			"/>
			<rect x="441.8" y="23" style="fill:#333333;" width="20.5" height="2.4"/>
			<rect x="441.8" y="25.4" style="fill:#333333;" width="4" height="16.1"/>
			<rect x="450.1" y="25.4" style="fill:#333333;" width="4" height="15.7"/>
			<path style="fill:#333333;" d="M462.4,25.4h-4v12.9v3.2h0.9c1.7,0,3.1-1.4,3.1-3.1C462.3,38.4,462.4,25.4,462.4,25.4z"/>
			<rect x="445.7" y="28.4" style="fill:#333333;" width="13.2" height="2.3"/>
			<rect x="445.7" y="33.8" style="fill:#333333;" width="13.2" height="2.3"/>
			<polygon style="fill:#333333;" points="433.2,16.2 437.2,16.2 439.4,23.1 435.4,23.1 			"/>
			<rect x="431.3" y="24.8" style="fill:#333333;" width="6.9" height="2.9"/>
			<rect x="434.2" y="27.6" style="fill:#333333;" width="4.1" height="16.7"/>
			<rect x="438.2" y="43.5" style="fill:#333333;" width="24.2" height="3"/>
			<path style="fill:#333333;" d="M436.6,41.7c-1.3,0-2.4,1.1-2.4,2.4c0,1.3,1.1,2.4,2.4,2.4V41.7z"/>
			<rect x="436.6" y="44.3" style="fill:#333333;" width="1.6" height="2.3"/>
			<path style="fill:#333333;" d="M497.4,19.4h-29.9v3.2h27.2v0c1.5,0,2.7-1.4,2.7-3C497.4,19.5,497.4,19.5,497.4,19.4z"/>
			<rect x="469.6" y="30.4" style="fill:#333333;" width="26" height="2.9"/>
			<rect x="466.5" y="38.4" style="fill:#333333;" width="31.8" height="2.9"/>
			<rect x="480.8" y="24.4" style="fill:#333333;" width="4.7" height="22.2"/>
			<polygon style="fill:#333333;" points="475.1,16.2 469.6,30.4 474,30.4 479.5,16.2 			"/>
		</g>
		<g>
			<path style="fill:#898989;" d="M330.2,62.3c0,1.1-0.4,1.7-1.1,1.8c-0.3,0-0.7,0-1.1,0c0,0,0-0.1,0-0.1c0-0.4-0.1-0.6-0.1-0.8
				c0.1,0,0.2,0,0.4,0c0.3,0,0.5,0,0.6,0c0.4,0,0.6-0.3,0.6-1c0-0.9-0.4-1.8-1.1-2.7c0.3-0.7,0.6-1.8,1-3.3h-1.5V66h-0.9V55.4h3.3
				v0.8c-0.5,1.7-0.9,2.7-1,3.1C329.9,60.4,330.2,61.4,330.2,62.3z M330.6,55.6h7.1v0.9h-1v7.7c0.1,1.2-0.5,1.7-1.6,1.7
				c-0.3,0-0.9,0-1.7,0c0-0.2-0.1-0.4-0.1-0.6c-0.1-0.2-0.1-0.3-0.1-0.4c0.4,0,1,0,1.7,0c0.6,0,0.9-0.2,0.9-0.8v-7.7h-5.1V55.6z
				 M331,58h3.5v5H331V58z M331.8,58.8v3.4h1.9v-3.4H331.8z"/>
			<path style="fill:#898989;" d="M344.8,62.4h4.6v-1.3h-4.1v-5.7h9.2v5.7h-4.1v1.3h4.6v0.8h-4.6v1.5h5.3v0.8h-11.5v-0.8h5.3v-1.5
				h-4.6V62.4z M346.1,56.1v1.7h3.3v-1.7H346.1z M346.1,58.6v1.7h3.3v-1.7H346.1z M353.5,56.1h-3.3v1.7h3.3V56.1z M350.2,58.6v1.7
				h3.3v-1.7H350.2z"/>
			<path style="fill:#898989;" d="M366.5,64.2l-0.7,0.6c-0.2-0.1-0.5-0.4-0.8-0.8c-0.2-0.2-0.3-0.3-0.4-0.4
				c-0.4,0.7-1.2,1.4-2.2,2.3c-0.2-0.3-0.3-0.5-0.5-0.8c0.8-0.6,1.5-1.3,2.1-2.1c-0.2-0.2-0.5-0.4-0.8-0.8c-0.4-0.3-0.6-0.6-0.8-0.8
				c0.2-0.7,0.4-1.8,0.8-3.5h-1v-0.8h1.1c0.1-0.4,0.2-1.1,0.3-2c0-0.2,0-0.4,0-0.5l0.9,0.1c0,0.3-0.1,0.8-0.2,1.4
				c-0.1,0.4-0.1,0.7-0.1,0.9h2.1v0.8c-0.2,2.1-0.6,3.7-1.1,4.8C365.5,63.3,366,63.8,366.5,64.2z M365.3,58.1h-1.4
				c-0.2,1.2-0.4,2.3-0.7,3.2c0.2,0.1,0.4,0.4,0.8,0.7c0.2,0.2,0.3,0.3,0.4,0.3C364.9,61.2,365.2,59.8,365.3,58.1z M366.3,62.4h5.1
				v0.9h-5.1V62.4z M368.3,56.8l-0.3,3.3h2.9l0.4-4h-4.8v-0.8h5.7l-0.5,4.8h1.1c-0.1,2-0.1,3.4-0.2,4.1c-0.1,1.1-0.7,1.7-2,1.7
				c-0.8,0-1.4,0-1.9,0c0-0.2-0.1-0.4-0.1-0.7c0-0.2,0-0.3,0-0.3c0.2,0,0.9,0,2,0c0.7,0,1.1-0.3,1.1-1c0.1-0.6,0.1-1.6,0.2-3.1h-5
				l0.4-4.1H368.3z"/>
			<path style="fill:#898989;" d="M384.3,64.2l-0.7,0.6c-0.2-0.1-0.5-0.4-0.8-0.8c-0.2-0.2-0.3-0.3-0.4-0.4
				c-0.4,0.7-1.2,1.4-2.2,2.3c-0.2-0.3-0.3-0.5-0.5-0.8c0.8-0.6,1.5-1.3,2.1-2.1c-0.2-0.2-0.5-0.4-0.8-0.8c-0.4-0.3-0.6-0.6-0.8-0.8
				c0.2-0.7,0.4-1.8,0.8-3.5h-1v-0.8h1.1c0.1-0.4,0.2-1.1,0.3-2c0-0.2,0-0.4,0-0.5l0.9,0.1c0,0.3-0.1,0.8-0.2,1.4
				c-0.1,0.4-0.1,0.7-0.1,0.9h2.1v0.8c-0.2,2.1-0.6,3.7-1.1,4.8C383.4,63.3,383.9,63.8,384.3,64.2z M383.1,58.1h-1.4
				c-0.2,1.2-0.4,2.3-0.7,3.2c0.2,0.1,0.4,0.4,0.8,0.7c0.2,0.2,0.3,0.3,0.4,0.3C382.7,61.2,383,59.8,383.1,58.1z M384.1,62.4h5.1
				v0.9h-5.1V62.4z M386.1,56.8l-0.3,3.3h2.9l0.4-4h-4.8v-0.8h5.7l-0.5,4.8h1.1c-0.1,2-0.1,3.4-0.2,4.1c-0.1,1.1-0.7,1.7-2,1.7
				c-0.8,0-1.4,0-1.9,0c0-0.2-0.1-0.4-0.1-0.7c0-0.2,0-0.3,0-0.3c0.2,0,0.9,0,2,0c0.7,0,1.1-0.3,1.1-1c0.1-0.6,0.1-1.6,0.2-3.1h-5
				l0.4-4.1H386.1z"/>
			<path style="fill:#898989;" d="M397.6,56.6h4.1v0.8h-2.2c0,0.5,0,1.1,0,1.7h2c0,2.1,0,3.8-0.1,4.9c0,1.2-0.5,1.7-1.4,1.7
				c-0.5,0-0.8,0-0.9,0c0-0.2-0.1-0.5-0.1-0.9c0.4,0,0.8,0,1,0c0.5,0,0.7-0.3,0.7-0.9c0.1-0.7,0.1-2.1,0.1-4.1h-1.2
				c0,0.3,0,0.6,0,0.8c0,2.4-0.5,4.2-1.4,5.2c-0.2-0.2-0.4-0.4-0.6-0.7c0.8-0.9,1.1-2.4,1.1-4.5c0-0.3,0-0.9,0-1.7
				c0-0.7,0-1.3,0-1.7h-1.1V56.6z M399.1,55l0.8-0.3c0.1,0.1,0.1,0.3,0.2,0.5c0.2,0.4,0.3,0.8,0.5,1.1l-0.8,0.3
				C399.6,56.1,399.4,55.6,399.1,55z M404.2,63.8l0.6,0.6c-0.1,0.1-0.2,0.1-0.4,0.2c-0.8,0.6-1.5,1.1-2.1,1.4
				c-0.2-0.2-0.4-0.5-0.6-0.7C402.5,64.9,403.4,64.4,404.2,63.8z M401.9,57.2c0.6-0.6,1.1-1.5,1.5-2.5l0.8,0.2
				c-0.1,0.2-0.2,0.4-0.3,0.7c-0.1,0.1-0.1,0.2-0.1,0.3h5.1v0.8h-5.6c-0.3,0.4-0.5,0.8-0.8,1.1c0,0-0.1-0.1-0.1-0.1
				C402.1,57.4,402,57.3,401.9,57.2z M403.1,57.2h0.8v0.9h2.8v-0.9h0.8v0.9h1.1v0.8h-1.1V63h1.4v0.8h-7.1V63h1.2v-4.1H402v-0.8h1.1
				V57.2z M403.9,58.9v0.9h2.8v-0.9H403.9z M403.9,60.5v0.9h2.8v-0.9H403.9z M403.9,62.1V63h2.8v-0.9H403.9z M406,64.4l0.5-0.6
				c0.8,0.5,1.6,1,2.4,1.6l-0.6,0.7C407.6,65.5,406.8,64.9,406,64.4z"/>
			<path style="fill:#898989;" d="M421.4,58.7c1.7,0.9,3.3,1.7,4.6,2.5l-0.6,0.9c-1.7-1-3.2-1.9-4.4-2.5v6.3h-1v-9.3h-4.6v-0.9h11.3
				v0.9H421v2.8L421.4,58.7z"/>
			<path style="fill:#898989;" d="M434.4,59.4h5.4c0.5-0.6,1-1.4,1.4-2.3l0.9,0.6c-0.5,0.7-0.9,1.3-1.3,1.7h3.4v0.8h-9V61
				c0.1,2.2-0.4,3.9-1.5,5.1c-0.2-0.2-0.4-0.5-0.6-0.8c0.9-0.8,1.3-2.2,1.2-4.3V59.4z M438.2,55l0.9-0.3c0,0.1,0.1,0.2,0.1,0.4
				c0.2,0.4,0.3,0.8,0.3,1h5v0.8h-11.2v-0.8h5.2C438.5,55.7,438.4,55.4,438.2,55z M435.8,57.6l0.8-0.5c0.1,0.1,0.2,0.2,0.3,0.4
				c0.5,0.6,0.8,1.1,1,1.3l-0.8,0.6C436.6,58.6,436.2,58,435.8,57.6z"/>
			<path style="fill:#898989;" d="M451.6,60.8h4.4V66h-0.9v-0.8h-2.6V66h-0.9V60.8z M452.5,61.6v3h2.6v-3H452.5z M452.8,55.3h7.9
				v4.2h-7.9V55.3z M453.7,56.1v2.6h6.1v-2.6H453.7z M457.4,60.8h4.4V66H461v-0.8h-2.6V66h-0.9V60.8z M458.3,61.6v3h2.6v-3H458.3z"
				/>
		</g>
		<g>
			<polygon style="fill:#FA8629;" points="293.1,16.2 288.1,40.1 318.3,43.8 318.3,41.6 			"/>
			<polygon style="fill:#EF7028;" points="318.3,43.8 318.3,46.8 311.5,50.1 303.9,49.3 285.5,53.6 288.1,40.1 			"/>
			<polygon style="fill:#BD4D1C;" points="285.5,53.6 283.7,63.6 311.5,50.1 303.9,49.3 			"/>
			<path style="fill:#EF7028;" d="M285.5,53.6l-17.9,4.9l-1.1,3.6c0,0,3.6,0.8,7.2,1.1c4.6,0.4,10,0.4,10,0.4L285.5,53.6z"/>
			<path style="fill:#FACA34;" d="M260.4,60.3c0,0,1.6,0.6,2.9,1c1.3,0.4,3.2,0.8,3.2,0.8l1.1-3.6L260.4,60.3z"/>
			<path style="fill:#FAA226;" d="M279.7,17.2l13.5-0.9l-5,23.8c0,0-5.4-0.2-8.6-0.4c-3.2-0.2-7.1-0.5-7.1-0.5L279.7,17.2z"/>
			<path style="fill:#FACA34;" d="M279.7,17.2l-12.3,0.9c0,0-1.7,3-3.9,8.4c-2.8,6.8-4,10.7-4,10.7s3,0.6,6,1c3.2,0.5,7.1,1,7.1,1
				L279.7,17.2z"/>
			<path style="fill:#FAE27A;" d="M265.6,38.3c-2.9-0.4-6.2-1-6.2-1s-1.4,4.3-2.8,9.2c-1.3,4.9-2.5,10.1-2.5,10.1s1.8,1.2,3,2
				c1.2,0.8,3.2,1.8,3.2,1.8l7.2-1.7c0,0,1.1-4.6,2.4-9.6c1.3-4.9,2.5-9.7,2.5-9.7S268.5,38.7,265.6,38.3z"/>
			<path style="fill:#FAA226;" d="M272.5,39.2c0,0-1.5,5.6-2.2,8.6c-1,3.8-2.6,10.7-2.6,10.7l17.9-4.9l2.6-13.5L272.5,39.2z"/>
			<path style="fill:#FAA226;" d="M271,62.9c-8-1.4-10.6-2.7-10.6-2.7l-5,1.2l13.7,5.3l19.1,0.1l26.6-16.3l-3.5-0.5l-27.8,13.6
				C283.7,63.6,278.3,63.7,271,62.9z"/>
			<path style="fill:#FA8629;" d="M278.4,20.6l-10.2,0.6c0,0-0.9,1.7-2.8,6.4c-2.1,5-2.4,6.8-2.4,6.8s2.2,0.7,4.7,1.2
				c2.5,0.4,5.6,0.7,5.6,0.7L278.4,20.6z"/>
			<path style="fill:#E65E22;" d="M278.4,20.6c0,0,2.9-0.1,5-0.2c2.1-0.1,6.3,0,6.3,0l-3.6,15.9c0,0-3.5,0.2-6.2,0.2
				c-2.7,0-6.6-0.2-6.6-0.2L278.4,20.6z"/>
			
				<ellipse transform="matrix(0.8142 -0.5806 0.5806 0.8142 26.6916 171.3342)" style="fill:#FAE27A;" cx="281" cy="44" rx="3.6" ry="3.1"/>
			
				<ellipse transform="matrix(0.945 -0.327 0.327 0.945 0.5834 88.1557)" style="fill:#FAFAE6;" cx="262.5" cy="42.3" rx="2.4" ry="2.8"/>
		</g>
	</g>
</g>
</svg>
