<?xml version="1.0" encoding="utf-8"?>
<!-- Generator: Adobe Illustrator 17.1.0, SVG Export Plug-In . SVG Version: 6.00 Build 0)  -->
<!DOCTYPE svg PUBLIC "-//W3C//DTD SVG 1.1//EN" "http://www.w3.org/Graphics/SVG/1.1/DTD/svg11.dtd">
<svg version="1.1" id="图层_1" xmlns="http://www.w3.org/2000/svg" xmlns:xlink="http://www.w3.org/1999/xlink" x="0px" y="0px"
	 viewBox="0 0 559.5 81" style="enable-background:new 0 0 559.5 81;" xml:space="preserve">
<g>
	<rect x="229.3" y="3" style="fill-rule:evenodd;clip-rule:evenodd;fill:#CBCBCB;" width="1.4" height="74.7"/>
	<g>
		<g id="形状_2_copy_3_副本_4_30_">
			<g>
				<path style="fill-rule:evenodd;clip-rule:evenodd;fill:#CCCCCC;" d="M12.1,55.1C8.1,62.8,4.6,69.6,0.6,77.6h5.5
					c1-1.9,1.6-3.1,2.8-5.4c2.9,0,5,0,7.9,0c-0.6-1.7-1-2.9-1.5-4.3H11c1.3-2.6,2-4,4-7.5c2,5.9,4.1,11.8,6.1,17.2h5
					c-2.8-7.9-5.2-14.7-7.9-22.6H12.1z M27.4,77.6h4.8l1-22.6l-4.7,0L27.4,77.6z M34.8,77.6h5l0.6-16.8h-4.8L34.8,77.6z M35.9,55
					l-0.1,3.6c0,0,3.7,0,4.7,0l0.2-3.6C36.4,55,36.4,55,35.9,55z M66.7,60.9c-0.9-0.3-1.8-0.5-2.7-0.5c-0.6,0-1.1,0.1-1.6,0.2
					c-0.5,0.1-1,0.2-1.4,0.4c-0.4,0.2-0.8,0.4-1.1,0.7c-0.3,0.3-0.6,0.5-0.8,0.8c-0.2,0.3-0.4,0.6-0.7,1c-0.2-0.5-0.4-0.9-0.6-1.2
					c-0.2-0.3-0.4-0.5-0.7-0.7c-0.3-0.2-0.6-0.4-1-0.6c-0.4-0.2-0.8-0.3-1.3-0.4c-0.5-0.1-0.9-0.1-1.4-0.1c-0.7,0-1.3,0.1-1.9,0.2
					c-0.6,0.2-1.2,0.4-1.6,0.7c-0.5,0.3-0.8,0.6-1.1,0.9c-0.3,0.3-0.6,0.7-1,1.3l0.1-2.7h-4.5l-0.7,16.8c0,0,3.7,0,4.7,0
					c0-1.4,0.1-3.4,0.2-5.8c0.1-2.5,0.3-4.1,0.6-5c0.3-0.8,0.7-1.5,1.3-2c0.6-0.5,1.3-0.8,2-0.8c0.4,0,0.8,0.1,1.1,0.2
					c0.3,0.1,0.6,0.4,0.8,0.7c0.2,0.3,0.4,0.6,0.5,1c0.1,0.3,0.1,0.7,0.1,1.2c0,0.9-0.1,2.7-0.2,5.3c-0.1,2.6-0.3,4.4-0.3,5.2
					c1,0,3.8,0,4.7,0l0.1-4.6c0.1-1.6,0.1-3,0.2-4c0.1-1,0.2-1.8,0.4-2.4c0.2-0.6,0.5-1.1,0.8-1.5c0.3-0.4,0.7-0.7,1.1-0.9
					c0.4-0.2,0.9-0.3,1.4-0.3c0.5,0,0.9,0.1,1.3,0.3c0.4,0.2,0.7,0.5,0.9,0.9c0.2,0.4,0.4,1,0.4,1.8c0,0.7,0,1.5-0.1,2.4l-0.2,3.8
					c-0.1,1.6-0.2,3-0.3,4.5c1,0,3.9,0,4.7,0c0-1.3,0.1-3.1,0.2-5.4c0.1-2.3,0.2-4,0.3-5c0.1-1,0.1-1.8,0.1-2.3c0-1-0.2-1.8-0.7-2.5
					C68.2,61.7,67.5,61.2,66.7,60.9z M84.5,60.8c-1-0.3-2.1-0.4-3.3-0.4c-1.1,0-2.2,0.1-3.3,0.2c-1.1,0.1-4,0.7-4,0.7l-0.5,3.1
					c0,0,4.7-1.4,6.7-1.4c0.5,0,1,0.1,1.5,0.2c0.4,0.1,0.8,0.3,1.1,0.6c0.3,0.3,0.4,0.7,0.4,1.1c0,0.2,0,0.4-0.1,0.6
					c-0.1,0.2-0.2,0.4-0.4,0.6c-0.2,0.2-0.4,0.4-0.7,0.5c-0.3,0.1-0.6,0.2-1.1,0.4c-0.5,0.1-0.9,0.2-1.3,0.3c-1.6,0.3-2.9,0.7-3.8,1
					c-1,0.3-1.7,0.7-2.2,1c-0.5,0.4-0.9,0.7-1.2,1.1c-0.3,0.4-0.6,0.8-0.7,1.3c-0.2,0.5-0.2,0.9-0.2,1.4c0,0.8,0.2,1.6,0.6,2.5
					c0.4,0.8,1.1,1.4,2,1.8c0.9,0.4,2,0.6,3.4,0.6c0.4,0,0.8,0,1.3,0c0.5,0,1.1-0.1,1.9-0.2c0.3-1.2,0.6-2.2,0.8-2.8
					c-0.7,0.2-1.2,0.4-1.6,0.4c-0.4,0.1-0.8,0.1-1.1,0.1c-0.6,0-1-0.1-1.4-0.2c-0.4-0.1-0.7-0.4-1-0.7c-0.3-0.3-0.4-0.7-0.4-1.2
					c0-0.3,0.1-0.6,0.2-0.8c0.1-0.2,0.3-0.5,0.5-0.7c0.2-0.2,0.5-0.4,0.9-0.6c0.3-0.2,0.7-0.3,1.1-0.5c0.4-0.1,1-0.3,1.7-0.5
					c0.7-0.2,1.2-0.3,1.5-0.4c0.3-0.1,0.5-0.2,0.7-0.3c0.2-0.1,0.5-0.3,1-0.6l-0.6,8.8h4.7c0,0,0.1-5.4,0.3-8
					c0.2-2.6,0.3-4.2,0.3-4.8c0-1.2-0.3-2-0.9-2.7C86.3,61.6,85.5,61.1,84.5,60.8z M114.1,60.9c-0.8-0.3-1.8-0.5-2.7-0.5
					c-0.6,0-1.1,0.1-1.6,0.2c-0.5,0.1-1,0.2-1.4,0.4c-0.4,0.2-0.8,0.4-1.1,0.7c-0.3,0.3-0.6,0.5-0.8,0.8c-0.2,0.3-0.4,0.6-0.7,1
					c-0.2-0.5-0.4-0.9-0.6-1.2c-0.2-0.3-0.4-0.5-0.7-0.7c-0.3-0.2-0.6-0.4-1-0.6c-0.4-0.2-0.8-0.3-1.3-0.4c-0.5-0.1-0.9-0.1-1.4-0.1
					c-0.7,0-1.3,0.1-1.9,0.2c-0.6,0.2-1.2,0.4-1.6,0.7c-0.5,0.3-0.8,0.6-1.1,0.9c-0.3,0.3-0.6,0.7-1,1.3l0.1-2.7h-4.5l-0.7,16.8h4.7
					c0,0,0.1-3.4,0.2-5.8c0.1-2.5,0.3-4.1,0.6-5c0.3-0.8,0.7-1.5,1.3-2c0.6-0.5,1.3-0.8,2-0.8c0.4,0,0.8,0.1,1.1,0.2
					c0.3,0.1,0.6,0.4,0.8,0.7c0.2,0.3,0.4,0.6,0.5,1c0.1,0.3,0.1,0.7,0.1,1.2c0,0.9-0.1,2.7-0.2,5.3c-0.1,2.6-0.3,4.4-0.3,5.2
					c1,0,3.8,0,4.7,0l0.1-4.6c0.1-1.6,0.1-3,0.2-4c0.1-1,0.2-1.8,0.4-2.4c0.2-0.6,0.5-1.1,0.8-1.5c0.3-0.4,0.7-0.7,1.1-0.9
					c0.4-0.2,0.9-0.3,1.3-0.3c0.5,0,0.9,0.1,1.3,0.3c0.4,0.2,0.7,0.5,0.9,0.9c0.2,0.4,0.4,1,0.4,1.8c0,0.7,0,1.5-0.1,2.4l-0.2,3.8
					c-0.1,1.6-0.2,3-0.3,4.5c1,0,3.9,0,4.7,0c0-1.3,0.1-3.1,0.2-5.4c0.1-2.3,0.2-4,0.3-5c0.1-1,0.1-1.8,0.1-2.3c0-1-0.2-1.8-0.7-2.5
					C115.6,61.7,115,61.2,114.1,60.9z M132,60.8c-1-0.3-2.1-0.4-3.4-0.4c-1.1,0-2.2,0.1-3.3,0.2c-1.2,0.1-4,0.7-4,0.7l-0.5,3.1
					c0,0,4.7-1.4,6.7-1.4c0.5,0,1,0.1,1.5,0.2c0.5,0.1,0.8,0.3,1.1,0.6c0.3,0.3,0.4,0.7,0.4,1.1c0,0.2,0,0.4-0.1,0.6
					c-0.1,0.2-0.2,0.4-0.4,0.6c-0.2,0.2-0.4,0.4-0.7,0.5c-0.3,0.1-0.6,0.2-1.1,0.4c-0.5,0.1-0.9,0.2-1.3,0.3c-1.6,0.3-2.9,0.7-3.8,1
					c-1,0.3-1.7,0.7-2.2,1c-0.5,0.4-0.9,0.7-1.2,1.1c-0.3,0.4-0.6,0.8-0.7,1.3c-0.2,0.5-0.3,0.9-0.3,1.4c0,0.8,0.2,1.6,0.6,2.5
					c0.4,0.8,1.1,1.4,2,1.8c0.9,0.4,2,0.6,3.4,0.6c0.4,0,0.8,0,1.3,0c0.5,0,1.1-0.1,1.9-0.2c0.3-1.2,0.6-2.2,0.8-2.8
					c-0.7,0.2-1.2,0.4-1.6,0.4c-0.4,0.1-0.8,0.1-1.1,0.1c-0.6,0-1-0.1-1.4-0.2c-0.4-0.1-0.7-0.4-1-0.7c-0.3-0.3-0.4-0.7-0.4-1.2
					c0-0.3,0.1-0.6,0.2-0.8c0.1-0.2,0.3-0.5,0.5-0.7c0.2-0.2,0.5-0.4,0.9-0.6c0.3-0.2,0.7-0.3,1.1-0.5c0.4-0.1,1-0.3,1.7-0.5
					c0.7-0.2,1.2-0.3,1.5-0.4c0.3-0.1,0.5-0.2,0.7-0.3c0.2-0.1,0.5-0.3,1-0.6l-0.6,8.8h4.7c0,0,0.1-5.4,0.3-8
					c0.2-2.6,0.3-4.2,0.3-4.8c0-1.2-0.3-2-0.9-2.7C133.8,61.6,133,61.1,132,60.8z M137.3,73.2c-0.1,2.2-0.1,3.7-0.2,4.4
					c1.6,0,4.6,0,4.6,0s0.2-3.6,0.2-4.4C140.8,73.2,137.3,73.2,137.3,73.2z M149.6,65.4c0.5-0.5,1.1-0.9,1.7-1.2
					c0.7-0.3,1.4-0.4,2.1-0.4c1.2,0,2.7,0.3,4.3,0.8l-0.2-3.6c-1-0.3-1.9-0.4-2.7-0.5c-0.8-0.1-1.5-0.1-2.2-0.1
					c-1.3,0-2.5,0.1-3.5,0.4c-1.1,0.3-2,0.8-2.9,1.7c-0.9,0.8-1.5,1.9-2,3.1c-0.5,1.3-0.7,2.6-0.7,4c0,1,0.1,2.1,0.4,3.1
					c0.3,1,0.7,1.8,1.2,2.5c0.5,0.7,1.2,1.3,1.9,1.7c0.7,0.4,1.5,0.7,2.3,0.9c0.8,0.2,1.7,0.2,2.6,0.2c1.5,0,3.1-0.2,4.7-0.5
					c0.1-0.8,0.2-1.6,0.4-2.1c0.1-0.6,0.2-1.1,0.2-1.5c-0.8,0.3-1.5,0.5-2.3,0.6c-0.7,0.1-1.3,0.2-1.8,0.2c-1,0-1.9-0.2-2.7-0.6
					c-0.8-0.4-1.4-1-1.7-1.8c-0.3-0.8-0.5-1.7-0.5-2.7c0-0.8,0.1-1.5,0.3-2.2C148.8,66.6,149.1,65.9,149.6,65.4z M174.9,62.7
					c-0.8-0.7-1.8-1.3-3-1.7c-1.2-0.4-2.4-0.6-3.7-0.6c-1.4,0-2.7,0.2-4,0.7c-1.3,0.5-2.3,1.1-3.2,2c-0.8,0.9-1.4,1.8-1.8,2.9
					c-0.4,1.1-0.6,2.3-0.6,3.5c0,1.2,0.2,2.3,0.6,3.4c0.4,1.1,1,2,1.9,2.8c0.8,0.8,1.8,1.3,3,1.7c1.2,0.4,2.4,0.6,3.7,0.6
					c1.4,0,2.7-0.2,3.9-0.6c1.2-0.4,2.2-1.1,3.1-1.9c0.8-0.9,1.4-1.9,1.9-3c0.4-1.2,0.6-2.4,0.6-3.6c0-1.2-0.2-2.3-0.6-3.4
					C176.3,64.3,175.7,63.4,174.9,62.7z M172.1,71.9c-0.4,0.9-0.9,1.6-1.7,2.1c-0.7,0.5-1.6,0.7-2.6,0.7c-0.9,0-1.8-0.2-2.5-0.7
					c-0.7-0.5-1.2-1.1-1.5-1.8c-0.3-0.8-0.5-1.6-0.5-2.6c0-1.1,0.2-2.1,0.6-3c0.4-0.9,0.9-1.6,1.7-2.1c0.8-0.5,1.6-0.7,2.6-0.7
					c1,0,1.8,0.2,2.5,0.7c0.7,0.4,1.2,1.1,1.4,1.8c0.3,0.8,0.4,1.6,0.4,2.5C172.6,69.9,172.4,71,172.1,71.9z M204.6,62.4
					c-0.5-0.7-1.2-1.2-2-1.5c-0.9-0.3-1.8-0.5-2.7-0.5c-0.6,0-1.1,0.1-1.6,0.2c-0.5,0.1-1,0.2-1.4,0.4c-0.4,0.2-0.8,0.4-1.1,0.7
					c-0.3,0.3-0.6,0.5-0.8,0.8c-0.2,0.3-0.4,0.6-0.7,1c-0.2-0.5-0.4-0.9-0.6-1.2c-0.2-0.3-0.4-0.5-0.7-0.7c-0.3-0.2-0.6-0.4-1-0.6
					c-0.4-0.2-0.8-0.3-1.3-0.4c-0.5-0.1-0.9-0.1-1.4-0.1c-0.7,0-1.3,0.1-1.9,0.2c-0.6,0.2-1.2,0.4-1.6,0.7c-0.5,0.3-0.8,0.6-1.1,0.9
					c-0.3,0.3-0.6,0.7-1,1.3l0.1-2.7c-0.8,0-3.5,0-4.5,0c0,1.9-0.6,14.9-0.7,16.8c1,0,3.7,0,4.7,0c0-1.4,0.1-3.4,0.2-5.8
					c0.1-2.5,0.3-4.1,0.6-5c0.3-0.8,0.7-1.5,1.3-2c0.6-0.5,1.3-0.8,2-0.8c0.4,0,0.8,0.1,1.1,0.2c0.3,0.1,0.6,0.4,0.8,0.7
					c0.2,0.3,0.4,0.6,0.5,1c0.1,0.3,0.1,0.7,0.1,1.2c0,0.9-0.1,2.7-0.2,5.3c-0.1,2.6-0.3,4.4-0.3,5.2c1,0,3.8,0,4.7,0l0.1-4.6
					c0.1-1.6,0.1-3,0.2-4c0.1-1,0.2-1.8,0.4-2.4c0.2-0.6,0.5-1.1,0.8-1.5c0.3-0.4,0.7-0.7,1.1-0.9c0.4-0.2,0.9-0.3,1.4-0.3
					c0.5,0,0.9,0.1,1.3,0.3c0.4,0.2,0.7,0.5,0.9,0.9c0.3,0.4,0.4,1,0.4,1.8c0,0.7,0,1.5-0.1,2.4l-0.2,3.8c-0.1,1.6-0.2,3-0.3,4.5
					c1,0,3.9,0,4.7,0c0-1.3,0.1-3.1,0.2-5.4c0.1-2.3,0.2-4,0.3-5c0.1-1,0.1-1.8,0.1-2.3C205.3,63.9,205.1,63.1,204.6,62.4z"/>
			</g>
		</g>
		<g id="形状_2_copy_3_副本_5_30_">
			<g>
				<path style="fill-rule:evenodd;clip-rule:evenodd;fill:#FF6600;" d="M20.4,7.8c7,0,14.1,0,21.1,0c0,10.5,0,21.4,0,31.1
					c0,0.6-0.8,1.5-1.6,1.6c-1.1,0-1.6,0-3,0v5.1c1.6,0,3,0,4.6,0c4.1,0,6.8-2,6.8-5.4c0-8.1,0-24.2,0-32.4h2.4V3H20.4V7.8z
					 M145.7,39.2c2.3,0,1.4,0,3.6,0c1.3,0,3.1-1.1,3.1-3.2c0-5.3,0-9.5,0-14.9c-1,0-2.1,0-3,0c0-4.1,0-12.5,0-15.5
					c0-1.2-1.2-2.6-2.8-2.6h-22.1v4.9h17c0,4.4,0,8.9,0,13.3c-4.1,0-4.7,0-8.2,0c-0.5,0-1-0.5-1-0.9c0-2.2,0-5.8,0-8.7
					c0-0.7-0.7-1.5-1.8-1.5h-5v11.8c0,2.3,2,4.2,4.2,4.2c0,0,8.7,0,15.9,0v4.4h-17.6c-1.9,0-4.9,1.8-4.9,4.9
					c6.1,0,15.9-0.1,22.5-0.1C145.7,36.4,145.7,37.7,145.7,39.2z M38.2,31.8c0-5.6,0-13.4,0-21H20.7v26.8c5.1,0,11.6,0,11.6,0
					C36.8,37.5,38.2,35,38.2,31.8z M30.8,32.7c-1.3,0-2.6,0-4.4,0V15.9c1.9,0,4.1,0,6,0c0,5.1,0,10.7,0,15.1
					C32.3,32,31.7,32.7,30.8,32.7z M0.6,4.2c0,9.6,0,22.2,0,41.4h6.5c0-12.1,0-25.3,0-37.8c1.5,0,3.3,0,4.9,0c0,7.3,0,13.8,0,20.5
					c0,2.8-2.5,3.8-2.5,3.8v5.4c4.6,0,8.7-4.7,8.7-9c0-7.8,0-17.7,0-25.5C12.3,3,7.8,3,2,3C0.6,3,0.6,4.2,0.6,4.2z M203.1,21.1
					c0-4.1,0-12.5,0-15.5c0-1.2-1.2-2.6-2.8-2.6h-22.1v4.9c5.7,0,11.4,0,17,0v13.3c-4.1,0-4.7,0-8.2,0c-0.5,0-1-0.5-1-0.9
					c0-2.2,0-5.8,0-8.7c0-0.7-0.7-1.4-1.8-1.4c-1.4,0-3.4,0-5,0v11.7c0,2.3,2,4.2,4.2,4.2c0,0,8.7,0,15.9,0v4.4h-17.3
					c-1.9,0-5,1.7-5,4.8c6.1,0,15.8,0,22.4,0v4.5c0,0.8-0.6,1.1-1.5,1.1h-2.6c0,2.2,0,3.4,0,4.8h3.9c1.2,0,0.9,0,2.1,0
					c3.3,0,4.7-2.3,4.7-4.2c0-6.1,0-14.2,0-20.3C205,21.1,203.9,21.1,203.1,21.1z M171.7,37.5c2.4-2.6,3.7-5.7,4-11.5
					c0-6.4,0-12.5,0-18.8c0-0.5-0.7-1.2-1.3-1.2c-2.5,0-5.6,0-8.3,0V3h-6.5c0,1,0,2,0,2.9c-0.7,0-1.5,0-2.2,0v4.9h2.2V26
					c0,5.9,1.9,8.8,4.3,11.5c-2.9,2-5.8,3.2-9.7,3.2c-0.5,0-1.1,0-1.7,0c-6.1,0-13.5,0-20,0c-6.1,0-12-1.1-14.2-3.8
					c2.1-2.8,3.2-5.1,3.8-11c0-5.9,0-10.9,0-18.4c-0.1-0.8-0.8-1.5-1.6-1.6c-2.6,0-5.1,0-8.3,0V3c-2.7,0-3.7,0-6.3,0v3
					c-0.7,0-1.2,0-2.2,0v4.9c1,0,1.5,0,2.2,0c0,5,0,10.6,0,15.2c0.5,5.9,2.4,7.8,4.6,11.3c-3.3,2.3-7.3,3.3-12,3.6
					c-5.6,0-10.6,0-17.6,0c0-1.2,0-2.9,0-3.8h17.6v-5.1H81c0-1.2,0-2.5,0-3.8c5.1,0,11.7,0,13.3,0c0,0,4.3,0,4.3-4.7
					c0.1-4.9,0-13.8,0-20.4c-13.9,0-28.1,0-42,0c-0.7,0-1.3,0.7-1.3,1.3c0,1,0,16.6,0,23.9c5.9,0,11.7,0,17.6,0v3.8H55.3
					c0,1.6,0,3.4,0,5.1h17.6c0,1.3,0,2.5,0,3.8H52.3c0,1.4,0,3.3,0,4.8c15.5,0,34.6,0.1,49.6,0c4,0,9.1-2.1,12.7-4.2
					c4.6,3.5,9.6,4.2,17.9,4.2c2.5,0,5.3,0,8.4,0c4.3,0,8.2,0,11.6,0c7,0,11.4-1.5,15.7-4c3.9,2.4,7.7,3.8,13.8,4v0h9.3v-4.8H182
					C177.8,40.4,174.4,39.8,171.7,37.5z M72.8,23.2H62v-5.1h10.8V23.2z M72.8,13H62V7.8c3.6,0,7.2,0,10.8,0V13z M81,7.8h10.8V13H81
					V7.8z M81,18.1c3.6,0,7.2,0,10.8,0c0,2.1,0,3.7,0,5.1H81C81,21.9,81,19.7,81,18.1z M116,26c-0.2,3.4-0.8,4.2-1.6,6.4
					c-1-2.1-1.9-3-2.1-6.4c0-4.4,0-10.5,0-15.2h3.7V26z M169.6,26c-0.1,3.1-0.9,4.7-1.7,6.4c-1-1.7-1.9-3.5-1.9-6.4
					c0-4.7,0-10.4,0-15.2h3.6C169.6,15.7,169.6,21.3,169.6,26z"/>
			</g>
		</g>
	</g>
	<g>
		<g>
			<path style="fill:#898989;" d="M324.3,61.6c0,1.1-0.4,1.7-1.1,1.8c-0.3,0-0.7,0-1.1,0c0,0,0-0.1,0-0.1c0-0.4-0.1-0.6-0.1-0.8
				c0.1,0,0.2,0,0.4,0c0.3,0,0.5,0,0.6,0c0.4,0,0.6-0.3,0.6-1c0-0.9-0.4-1.8-1.1-2.7c0.3-0.7,0.6-1.8,1-3.3h-1.5v9.8h-0.9V54.8h3.3
				v0.8c-0.5,1.7-0.9,2.7-1,3.1C324,59.8,324.4,60.7,324.3,61.6z M324.7,54.9h7.1v0.9h-1v7.7c0.1,1.2-0.5,1.7-1.6,1.7
				c-0.3,0-0.9,0-1.7,0c0-0.2-0.1-0.4-0.1-0.6c-0.1-0.2-0.1-0.3-0.1-0.4c0.4,0,1,0,1.7,0c0.6,0,0.9-0.2,0.9-0.8v-7.7h-5.1V54.9z
				 M325.1,57.4h3.5v5h-3.5V57.4z M325.9,58.2v3.4h1.9v-3.4H325.9z"/>
			<path style="fill:#898989;" d="M334.3,61.7h4.6v-1.3h-4.1v-5.7h9.2v5.7h-4.1v1.3h4.6v0.8h-4.6V64h5.3v0.8h-11.5V64h5.3v-1.5h-4.6
				V61.7z M335.5,55.5v1.7h3.3v-1.7H335.5z M335.5,58v1.7h3.3V58H335.5z M343,55.5h-3.3v1.7h3.3V55.5z M339.7,58v1.7h3.3V58H339.7z"
				/>
			<path style="fill:#898989;" d="M351.4,63.6l-0.7,0.6c-0.2-0.1-0.5-0.4-0.8-0.8c-0.2-0.2-0.3-0.3-0.4-0.4
				c-0.4,0.7-1.2,1.4-2.2,2.3c-0.2-0.3-0.3-0.5-0.5-0.8c0.8-0.6,1.5-1.3,2.1-2.1c-0.2-0.2-0.5-0.4-0.8-0.8c-0.4-0.3-0.6-0.6-0.8-0.8
				c0.2-0.7,0.4-1.8,0.8-3.5h-1v-0.8h1.1c0.1-0.4,0.2-1.1,0.3-2c0-0.2,0-0.4,0-0.5l0.9,0.1c0,0.3-0.1,0.8-0.2,1.4
				c-0.1,0.4-0.1,0.7-0.1,0.9h2.1v0.8c-0.2,2.1-0.6,3.7-1.1,4.8C350.4,62.7,350.9,63.1,351.4,63.6z M350.2,57.5h-1.4
				c-0.2,1.2-0.4,2.3-0.7,3.2c0.2,0.1,0.4,0.4,0.8,0.7c0.2,0.2,0.3,0.3,0.4,0.3C349.7,60.6,350,59.2,350.2,57.5z M351.2,61.8h5.1
				v0.9h-5.1V61.8z M353.2,56.1l-0.3,3.3h2.9l0.4-4h-4.8v-0.8h5.7l-0.5,4.8h1.1c-0.1,2-0.1,3.4-0.2,4.1c-0.1,1.1-0.7,1.7-2,1.7
				c-0.8,0-1.4,0-1.9,0c0-0.2-0.1-0.4-0.1-0.7c0-0.2,0-0.3,0-0.3c0.2,0,0.9,0,2,0c0.7,0,1.1-0.3,1.1-1c0.1-0.6,0.1-1.6,0.2-3.1h-5
				l0.4-4.1H353.2z"/>
			<path style="fill:#898989;" d="M364.5,63.6l-0.7,0.6c-0.2-0.1-0.5-0.4-0.8-0.8c-0.2-0.2-0.3-0.3-0.4-0.4
				c-0.4,0.7-1.2,1.4-2.2,2.3c-0.2-0.3-0.3-0.5-0.5-0.8c0.8-0.6,1.5-1.3,2.1-2.1c-0.2-0.2-0.5-0.4-0.8-0.8c-0.4-0.3-0.6-0.6-0.8-0.8
				c0.2-0.7,0.4-1.8,0.8-3.5h-1v-0.8h1.1c0.1-0.4,0.2-1.1,0.3-2c0-0.2,0-0.4,0-0.5l0.9,0.1c0,0.3-0.1,0.8-0.2,1.4
				c-0.1,0.4-0.1,0.7-0.1,0.9h2.1v0.8c-0.2,2.1-0.6,3.7-1.1,4.8C363.6,62.7,364.1,63.1,364.5,63.6z M363.3,57.5H362
				c-0.2,1.2-0.4,2.3-0.7,3.2c0.2,0.1,0.4,0.4,0.8,0.7c0.2,0.2,0.3,0.3,0.4,0.3C362.9,60.6,363.2,59.2,363.3,57.5z M364.3,61.8h5.1
				v0.9h-5.1V61.8z M366.3,56.1l-0.3,3.3h2.9l0.4-4h-4.8v-0.8h5.7l-0.5,4.8h1.1c-0.1,2-0.1,3.4-0.2,4.1c-0.1,1.1-0.7,1.7-2,1.7
				c-0.8,0-1.4,0-1.9,0c0-0.2-0.1-0.4-0.1-0.7c0-0.2,0-0.3,0-0.3c0.2,0,0.9,0,2,0c0.7,0,1.1-0.3,1.1-1c0.1-0.6,0.1-1.6,0.2-3.1h-5
				l0.4-4.1H366.3z"/>
			<path style="fill:#898989;" d="M373.2,56h4.1v0.8h-2.2c0,0.5,0,1.1,0,1.7h2c0,2.1,0,3.8-0.1,4.9c0,1.2-0.5,1.7-1.4,1.7
				c-0.5,0-0.8,0-0.9,0c0-0.2-0.1-0.5-0.1-0.9c0.4,0,0.8,0,1,0c0.5,0,0.7-0.3,0.7-0.9c0.1-0.7,0.1-2.1,0.1-4.1H375
				c0,0.3,0,0.6,0,0.8c0,2.4-0.5,4.2-1.4,5.2c-0.2-0.2-0.4-0.4-0.6-0.7c0.8-0.9,1.1-2.4,1.1-4.5c0-0.3,0-0.9,0-1.7
				c0-0.7,0-1.3,0-1.7h-1.1V56z M374.6,54.4l0.8-0.3c0.1,0.1,0.1,0.3,0.2,0.5c0.2,0.4,0.3,0.8,0.5,1.1l-0.8,0.3
				C375.2,55.5,374.9,55,374.6,54.4z M379.7,63.2l0.6,0.6c-0.1,0.1-0.2,0.1-0.4,0.2c-0.8,0.6-1.5,1.1-2.1,1.4
				c-0.2-0.2-0.4-0.5-0.6-0.7C378.1,64.3,378.9,63.8,379.7,63.2z M377.4,56.5c0.6-0.6,1.1-1.5,1.5-2.5l0.8,0.2
				c-0.1,0.2-0.2,0.4-0.3,0.7c-0.1,0.1-0.1,0.2-0.1,0.3h5.1V56h-5.6c-0.3,0.4-0.5,0.8-0.8,1.1c0,0-0.1-0.1-0.1-0.1
				C377.7,56.8,377.5,56.6,377.4,56.5z M378.7,56.5h0.8v0.9h2.8v-0.9h0.8v0.9h1.1v0.8h-1.1v4.1h1.4v0.8h-7.1v-0.8h1.2v-4.1h-1.1
				v-0.8h1.1V56.5z M379.5,58.2v0.9h2.8v-0.9H379.5z M379.5,59.8v0.9h2.8v-0.9H379.5z M379.5,61.5v0.9h2.8v-0.9H379.5z M381.5,63.7
				l0.5-0.6c0.8,0.5,1.6,1,2.4,1.6l-0.6,0.7C383.1,64.8,382.4,64.3,381.5,63.7z"/>
			<path style="fill:#898989;" d="M392.3,58.1c1.7,0.9,3.3,1.7,4.6,2.5l-0.6,0.9c-1.7-1-3.2-1.9-4.4-2.5v6.3h-1v-9.3h-4.6V55h11.3
				v0.9h-5.7v2.8L392.3,58.1z"/>
			<path style="fill:#898989;" d="M400.6,58.7h5.4c0.5-0.6,1-1.4,1.4-2.3l0.9,0.6c-0.5,0.7-0.9,1.3-1.3,1.7h3.4v0.8h-9v0.8
				c0.1,2.2-0.4,3.9-1.5,5.1c-0.2-0.2-0.4-0.5-0.6-0.8c0.9-0.8,1.3-2.2,1.2-4.3V58.7z M404.5,54.4l0.9-0.3c0,0.1,0.1,0.2,0.1,0.4
				c0.2,0.4,0.3,0.8,0.3,1h5v0.8h-11.2v-0.8h5.2C404.8,55.1,404.7,54.7,404.5,54.4z M402.1,56.9l0.8-0.5c0.1,0.1,0.2,0.2,0.3,0.4
				c0.5,0.6,0.8,1.1,1,1.3l-0.8,0.6C402.9,58,402.5,57.4,402.1,56.9z"/>
			<path style="fill:#898989;" d="M413.3,60.1h4.4v5.2h-0.9v-0.8h-2.6v0.8h-0.9V60.1z M414.1,60.9v3h2.6v-3H414.1z M414.4,54.6h7.9
				v4.2h-7.9V54.6z M415.3,55.4V58h6.1v-2.6H415.3z M419.1,60.1h4.4v5.2h-0.9v-0.8H420v0.8h-0.9V60.1z M420,60.9v3h2.6v-3H420z"/>
		</g>
		<g>
			<g>
				<path style="fill:#333333;" d="M327.4,24.1h-6.5V27h2.9v16.6c0,1.3,0.9,2.2,2.2,2.2h26v-2.9h-24.6V24.1z M333.9,41.5l5.8-12.3
					l5.8,10.8c0,0,0.2,0.5,0.7,0.9c0.6,0.5,1.5,0.6,1.5,0.6h2.9l-8.3-17.4h7.6v-2.9h-8v-5.8h-4.3v5.8h-8v2.9h7.6l-7.6,17.4H333.9z
					 M328.8,22.7l-2.2-7.2h-4.3l2.2,7.2H328.8z M376,15.5H371v2.2h-12.3v0.9l0,0l0,18.7l-2.2,8.7h4.3l2.2-8.7V20.5h24.6v-2.9H376
					V15.5z M377.5,37.2h8v-2.9h-8l0-1.4h4.3l3.6-0.7v-2.9l-3.6,0.7h-18.1v2.9h9.4v1.4h-8.7v2.9h8.7v1.4H363v2.9h10.1v1.4h-4.3v2.9
					h5.6c1.7,0,3.1-1.3,3.1-2.9h0l0-1.4h9.4v-2.9h-9.4L377.5,37.2z M363.7,29.2l3.6-2.9v2.9h3.6v-2.9l3.6,2.9v-2.9l-1.7-1.4h1.7
					v-2.2H371v-1.4h-3.6v1.4h-3.6v2.2h1.8l-1.8,1.4V29.2z M422.1,35c-0.1-0.5-1.3-1.4-2.2-1.4h-26v9.4h-2.2v2.9h31.8v-2.9h-1.4V35z
					 M401.8,42.9h-3.6v-6.5h3.6V42.9z M409.8,42.9h-3.6v-6.5h3.6V42.9z M417.7,42.9h-3.6v-6.5h3.6V42.9z M376,29.2l3.6-2.9v2.9
					l2.9-0.1l0-3l3.6,3.1v-2.9l-1.4-1.4h1.4v-2.2h-3.6l0-1.4h-2.9v1.4H376v2.2h1.8l-1.8,1.4V29.2z M421.4,24.1c0-3,0-6.5,0-6.5
					h-11.3l0.4-2.2h-5.8l-0.4,2.2h-9v6.5h-3.6V27h3.6v0.7l-0.7,4.3h4.3l0.7-4.3V27H417v2.2h-2.9v2.9h3.6c1.9,0,3.6-1.7,3.6-3.6V27
					h2.2v-2.9H421.4z M417,24.1h-7l-1-2.9H404l1,2.9h-5.3v-3.6H417V24.1z M409.1,27.8H404l1.4,4.3h5.1L409.1,27.8z"/>
			</g>
		</g>
		<ellipse style="fill:#B691F2;" cx="283.1" cy="61.7" rx="15" ry="9.6"/>
		<polygon style="fill:#9661F0;" points="256.6,23.2 283.3,40.1 283.2,63.8 		"/>
		<polygon style="fill:#A06FEE;" points="308.5,22.4 283.2,63.8 283.3,40.2 		"/>
		<polygon style="fill:#AB7CFF;" points="256.6,23.2 283.3,40.2 308.5,22.4 282.3,5.9 		"/>
	</g>
</g>
</svg>
