<?xml version="1.0" encoding="utf-8"?>
<!-- Generator: Adobe Illustrator 17.1.0, SVG Export Plug-In . SVG Version: 6.00 Build 0)  -->
<!DOCTYPE svg PUBLIC "-//W3C//DTD SVG 1.1//EN" "http://www.w3.org/Graphics/SVG/1.1/DTD/svg11.dtd">
<svg version="1.1" id="图层_1" xmlns="http://www.w3.org/2000/svg" xmlns:xlink="http://www.w3.org/1999/xlink" x="0px" y="0px"
	 viewBox="0 0 559.5 81" style="enable-background:new 0 0 559.5 81;" xml:space="preserve">
<g>
	<rect x="229.5" y="3.9" style="fill-rule:evenodd;clip-rule:evenodd;fill:#CCCCCC;" width="1.4" height="74.7"/>
	<g>
		<g id="形状_2_copy_3_副本_4_46_">
			<g>
				<path style="fill-rule:evenodd;clip-rule:evenodd;fill:#CCCCCC;" d="M12.3,56C8.4,63.7,4.9,70.5,0.8,78.6h5.5
					c1-1.9,1.6-3.1,2.8-5.4c2.9,0,5,0,7.9,0c-0.6-1.7-1-2.9-1.5-4.3h-4.4c1.3-2.6,2-4,4-7.5c2,5.9,4.1,11.8,6.1,17.2h5
					c-2.8-7.9-5.2-14.7-7.9-22.6H12.3z M27.6,78.6h4.8l1-22.6l-4.7,0L27.6,78.6z M35.1,78.6h5l0.6-16.8h-4.8L35.1,78.6z M36.1,56
					L36,59.6c0,0,3.7,0,4.7,0l0.2-3.6C36.7,56,36.6,56,36.1,56z M66.9,61.8c-0.9-0.3-1.8-0.5-2.7-0.5c-0.6,0-1.1,0.1-1.6,0.2
					c-0.5,0.1-1,0.2-1.4,0.4c-0.4,0.2-0.8,0.4-1.1,0.7c-0.3,0.3-0.6,0.5-0.8,0.8c-0.2,0.3-0.4,0.6-0.7,1c-0.2-0.5-0.4-0.9-0.6-1.2
					c-0.2-0.3-0.4-0.5-0.7-0.7c-0.3-0.2-0.6-0.4-1-0.6c-0.4-0.2-0.8-0.3-1.3-0.4c-0.5-0.1-0.9-0.1-1.4-0.1c-0.7,0-1.3,0.1-1.9,0.2
					c-0.6,0.2-1.2,0.4-1.6,0.7c-0.5,0.3-0.8,0.6-1.1,0.9c-0.3,0.3-0.6,0.7-1,1.3l0.1-2.7h-4.5l-0.7,16.8c0,0,3.7,0,4.7,0
					c0-1.4,0.1-3.4,0.2-5.8c0.1-2.5,0.3-4.1,0.6-5c0.3-0.8,0.7-1.5,1.3-2c0.6-0.5,1.3-0.8,2-0.8c0.4,0,0.8,0.1,1.1,0.2
					c0.3,0.1,0.6,0.4,0.8,0.7c0.2,0.3,0.4,0.6,0.5,1c0.1,0.3,0.1,0.7,0.1,1.2c0,0.9-0.1,2.7-0.2,5.3c-0.1,2.6-0.3,4.4-0.3,5.2
					c1,0,3.8,0,4.7,0l0.1-4.6c0.1-1.6,0.1-3,0.2-4c0.1-1,0.2-1.8,0.4-2.4c0.2-0.6,0.5-1.1,0.8-1.5c0.3-0.4,0.7-0.7,1.1-0.9
					c0.4-0.2,0.9-0.3,1.4-0.3c0.5,0,0.9,0.1,1.3,0.3c0.4,0.2,0.7,0.5,0.9,0.9c0.2,0.4,0.4,1,0.4,1.8c0,0.7,0,1.5-0.1,2.4l-0.2,3.8
					c-0.1,1.6-0.2,3-0.3,4.5c1,0,3.9,0,4.7,0c0-1.3,0.1-3.1,0.2-5.4c0.1-2.3,0.2-4,0.3-5c0.1-1,0.1-1.8,0.1-2.3c0-1-0.2-1.8-0.7-2.5
					C68.4,62.6,67.7,62.1,66.9,61.8z M84.8,61.8c-1-0.3-2.1-0.4-3.3-0.4c-1.1,0-2.2,0.1-3.3,0.2c-1.1,0.1-4,0.7-4,0.7l-0.5,3.1
					c0,0,4.7-1.4,6.7-1.4c0.5,0,1,0.1,1.5,0.2c0.4,0.1,0.8,0.3,1.1,0.6c0.3,0.3,0.4,0.7,0.4,1.1c0,0.2,0,0.4-0.1,0.6
					c-0.1,0.2-0.2,0.4-0.4,0.6c-0.2,0.2-0.4,0.4-0.7,0.5c-0.3,0.1-0.6,0.2-1.1,0.4c-0.5,0.1-0.9,0.2-1.3,0.3c-1.6,0.3-2.9,0.7-3.8,1
					c-1,0.3-1.7,0.7-2.2,1c-0.5,0.4-0.9,0.7-1.2,1.1c-0.3,0.4-0.6,0.8-0.7,1.3c-0.2,0.5-0.2,0.9-0.2,1.4c0,0.8,0.2,1.6,0.6,2.5
					c0.4,0.8,1.1,1.4,2,1.8c0.9,0.4,2,0.6,3.4,0.6c0.4,0,0.8,0,1.3,0c0.5,0,1.1-0.1,1.9-0.2c0.3-1.2,0.6-2.2,0.8-2.8
					c-0.7,0.2-1.2,0.4-1.6,0.4c-0.4,0.1-0.8,0.1-1.1,0.1c-0.6,0-1-0.1-1.4-0.2c-0.4-0.1-0.7-0.4-1-0.7c-0.3-0.3-0.4-0.7-0.4-1.2
					c0-0.3,0.1-0.6,0.2-0.8c0.1-0.2,0.3-0.5,0.5-0.7c0.2-0.2,0.5-0.4,0.9-0.6c0.3-0.2,0.7-0.3,1.1-0.5c0.4-0.1,1-0.3,1.7-0.5
					c0.7-0.2,1.2-0.3,1.5-0.4c0.3-0.1,0.5-0.2,0.7-0.3c0.2-0.1,0.5-0.3,1-0.6l-0.6,8.8h4.7c0,0,0.1-5.4,0.3-8
					c0.2-2.6,0.3-4.2,0.3-4.8c0-1.2-0.3-2-0.9-2.7C86.6,62.5,85.8,62.1,84.8,61.8z M114.3,61.8c-0.8-0.3-1.8-0.5-2.7-0.5
					c-0.6,0-1.1,0.1-1.6,0.2c-0.5,0.1-1,0.2-1.4,0.4c-0.4,0.2-0.8,0.4-1.1,0.7c-0.3,0.3-0.6,0.5-0.8,0.8c-0.2,0.3-0.4,0.6-0.7,1
					c-0.2-0.5-0.4-0.9-0.6-1.2c-0.2-0.3-0.4-0.5-0.7-0.7c-0.3-0.2-0.6-0.4-1-0.6c-0.4-0.2-0.8-0.3-1.3-0.4c-0.5-0.1-0.9-0.1-1.4-0.1
					c-0.7,0-1.3,0.1-1.9,0.2c-0.6,0.2-1.2,0.4-1.6,0.7c-0.5,0.3-0.8,0.6-1.1,0.9c-0.3,0.3-0.6,0.7-1,1.3l0.1-2.7h-4.5l-0.7,16.8h4.7
					c0,0,0.1-3.4,0.2-5.8c0.1-2.5,0.3-4.1,0.6-5c0.3-0.8,0.7-1.5,1.3-2c0.6-0.5,1.3-0.8,2-0.8c0.4,0,0.8,0.1,1.1,0.2
					c0.3,0.1,0.6,0.4,0.8,0.7c0.2,0.3,0.4,0.6,0.5,1c0.1,0.3,0.1,0.7,0.1,1.2c0,0.9-0.1,2.7-0.2,5.3c-0.1,2.6-0.3,4.4-0.3,5.2
					c1,0,3.8,0,4.7,0l0.1-4.6c0.1-1.6,0.1-3,0.2-4c0.1-1,0.2-1.8,0.4-2.4c0.2-0.6,0.5-1.1,0.8-1.5c0.3-0.4,0.7-0.7,1.1-0.9
					c0.4-0.2,0.9-0.3,1.3-0.3c0.5,0,0.9,0.1,1.3,0.3c0.4,0.2,0.7,0.5,0.9,0.9c0.2,0.4,0.4,1,0.4,1.8c0,0.7,0,1.5-0.1,2.4l-0.2,3.8
					c-0.1,1.6-0.2,3-0.3,4.5c1,0,3.9,0,4.7,0c0-1.3,0.1-3.1,0.2-5.4c0.1-2.3,0.2-4,0.3-5c0.1-1,0.1-1.8,0.1-2.3c0-1-0.2-1.8-0.7-2.5
					C115.9,62.6,115.2,62.1,114.3,61.8z M132.2,61.8c-1-0.3-2.1-0.4-3.4-0.4c-1.1,0-2.2,0.1-3.3,0.2c-1.2,0.1-4,0.7-4,0.7l-0.5,3.1
					c0,0,4.7-1.4,6.7-1.4c0.5,0,1,0.1,1.5,0.2c0.5,0.1,0.8,0.3,1.1,0.6c0.3,0.3,0.4,0.7,0.4,1.1c0,0.2,0,0.4-0.1,0.6
					c-0.1,0.2-0.2,0.4-0.4,0.6c-0.2,0.2-0.4,0.4-0.7,0.5c-0.3,0.1-0.6,0.2-1.1,0.4c-0.5,0.1-0.9,0.2-1.3,0.3c-1.6,0.3-2.9,0.7-3.8,1
					c-1,0.3-1.7,0.7-2.2,1c-0.5,0.4-0.9,0.7-1.2,1.1c-0.3,0.4-0.6,0.8-0.7,1.3c-0.2,0.5-0.3,0.9-0.3,1.4c0,0.8,0.2,1.6,0.6,2.5
					c0.4,0.8,1.1,1.4,2,1.8c0.9,0.4,2,0.6,3.4,0.6c0.4,0,0.8,0,1.3,0c0.5,0,1.1-0.1,1.9-0.2c0.3-1.2,0.6-2.2,0.8-2.8
					c-0.7,0.2-1.2,0.4-1.6,0.4c-0.4,0.1-0.8,0.1-1.1,0.1c-0.6,0-1-0.1-1.4-0.2c-0.4-0.1-0.7-0.4-1-0.7c-0.3-0.3-0.4-0.7-0.4-1.2
					c0-0.3,0.1-0.6,0.2-0.8c0.1-0.2,0.3-0.5,0.5-0.7c0.2-0.2,0.5-0.4,0.9-0.6c0.3-0.2,0.7-0.3,1.1-0.5c0.4-0.1,1-0.3,1.7-0.5
					c0.7-0.2,1.2-0.3,1.5-0.4c0.3-0.1,0.5-0.2,0.7-0.3c0.2-0.1,0.5-0.3,1-0.6l-0.6,8.8h4.7c0,0,0.1-5.4,0.3-8
					c0.2-2.6,0.3-4.2,0.3-4.8c0-1.2-0.3-2-0.9-2.7C134,62.5,133.2,62.1,132.2,61.8z M137.5,74.1c-0.1,2.2-0.1,3.7-0.2,4.4
					c1.6,0,4.6,0,4.6,0s0.2-3.6,0.2-4.4C141,74.1,137.5,74.1,137.5,74.1z M149.8,66.3c0.5-0.5,1.1-0.9,1.7-1.2
					c0.7-0.3,1.4-0.4,2.1-0.4c1.2,0,2.7,0.3,4.3,0.8l-0.2-3.6c-1-0.3-1.9-0.4-2.7-0.5c-0.8-0.1-1.5-0.1-2.2-0.1
					c-1.3,0-2.5,0.1-3.5,0.4c-1.1,0.3-2,0.8-2.9,1.7c-0.9,0.8-1.5,1.9-2,3.1c-0.5,1.3-0.7,2.6-0.7,4c0,1,0.1,2.1,0.4,3.1
					c0.3,1,0.7,1.8,1.2,2.5c0.5,0.7,1.2,1.3,1.9,1.7c0.7,0.4,1.5,0.7,2.3,0.9c0.8,0.2,1.7,0.2,2.6,0.2c1.5,0,3.1-0.2,4.7-0.5
					c0.1-0.8,0.2-1.6,0.4-2.1c0.1-0.6,0.2-1.1,0.2-1.5c-0.8,0.3-1.5,0.5-2.3,0.6c-0.7,0.1-1.3,0.2-1.8,0.2c-1,0-1.9-0.2-2.7-0.6
					c-0.8-0.4-1.4-1-1.7-1.8c-0.3-0.8-0.5-1.7-0.5-2.7c0-0.8,0.1-1.5,0.3-2.2C149,67.5,149.3,66.9,149.8,66.3z M175.1,63.6
					c-0.8-0.7-1.8-1.3-3-1.7c-1.2-0.4-2.4-0.6-3.7-0.6c-1.4,0-2.7,0.2-4,0.7c-1.3,0.5-2.3,1.1-3.2,2c-0.8,0.9-1.4,1.8-1.8,2.9
					c-0.4,1.1-0.6,2.3-0.6,3.5c0,1.2,0.2,2.3,0.6,3.4c0.4,1.1,1,2,1.9,2.8c0.8,0.8,1.8,1.3,3,1.7c1.2,0.4,2.4,0.6,3.7,0.6
					c1.4,0,2.7-0.2,3.9-0.6c1.2-0.4,2.2-1.1,3.1-1.9c0.8-0.9,1.4-1.9,1.9-3c0.4-1.2,0.6-2.4,0.6-3.6c0-1.2-0.2-2.3-0.6-3.4
					C176.5,65.3,175.9,64.4,175.1,63.6z M172.3,72.8c-0.4,0.9-0.9,1.6-1.7,2.1c-0.7,0.5-1.6,0.7-2.6,0.7c-0.9,0-1.8-0.2-2.5-0.7
					c-0.7-0.5-1.2-1.1-1.5-1.8c-0.3-0.8-0.5-1.6-0.5-2.6c0-1.1,0.2-2.1,0.6-3c0.4-0.9,0.9-1.6,1.7-2.1c0.8-0.5,1.6-0.7,2.6-0.7
					c1,0,1.8,0.2,2.5,0.7c0.7,0.4,1.2,1.1,1.4,1.8c0.3,0.8,0.4,1.6,0.4,2.5C172.8,70.9,172.6,71.9,172.3,72.8z M204.8,63.3
					c-0.5-0.7-1.2-1.2-2-1.5c-0.9-0.3-1.8-0.5-2.7-0.5c-0.6,0-1.1,0.1-1.6,0.2c-0.5,0.1-1,0.2-1.4,0.4c-0.4,0.2-0.8,0.4-1.1,0.7
					c-0.3,0.3-0.6,0.5-0.8,0.8c-0.2,0.3-0.4,0.6-0.7,1c-0.2-0.5-0.4-0.9-0.6-1.2c-0.2-0.3-0.4-0.5-0.7-0.7c-0.3-0.2-0.6-0.4-1-0.6
					c-0.4-0.2-0.8-0.3-1.3-0.4c-0.5-0.1-0.9-0.1-1.4-0.1c-0.7,0-1.3,0.1-1.9,0.2c-0.6,0.2-1.2,0.4-1.6,0.7c-0.5,0.3-0.8,0.6-1.1,0.9
					c-0.3,0.3-0.6,0.7-1,1.3l0.1-2.7c-0.8,0-3.5,0-4.5,0c0,1.9-0.6,14.9-0.7,16.8c1,0,3.7,0,4.7,0c0-1.4,0.1-3.4,0.2-5.8
					c0.1-2.5,0.3-4.1,0.6-5c0.3-0.8,0.7-1.5,1.3-2c0.6-0.5,1.3-0.8,2-0.8c0.4,0,0.8,0.1,1.1,0.2c0.3,0.1,0.6,0.4,0.8,0.7
					c0.2,0.3,0.4,0.6,0.5,1c0.1,0.3,0.1,0.7,0.1,1.2c0,0.9-0.1,2.7-0.2,5.3c-0.1,2.6-0.3,4.4-0.3,5.2c1,0,3.8,0,4.7,0l0.1-4.6
					c0.1-1.6,0.1-3,0.2-4c0.1-1,0.2-1.8,0.4-2.4c0.2-0.6,0.5-1.1,0.8-1.5c0.3-0.4,0.7-0.7,1.1-0.9c0.4-0.2,0.9-0.3,1.4-0.3
					c0.5,0,0.9,0.1,1.3,0.3c0.4,0.2,0.7,0.5,0.9,0.9c0.3,0.4,0.4,1,0.4,1.8c0,0.7,0,1.5-0.1,2.4l-0.2,3.8c-0.1,1.6-0.2,3-0.3,4.5
					c1,0,3.9,0,4.7,0c0-1.3,0.1-3.1,0.2-5.4c0.1-2.3,0.2-4,0.3-5c0.1-1,0.1-1.8,0.1-2.3C205.5,64.8,205.3,64,204.8,63.3z"/>
			</g>
		</g>
		<g id="形状_2_copy_3_副本_5_44_">
			<g>
				<path style="fill-rule:evenodd;clip-rule:evenodd;fill:#FF6600;" d="M20.6,8.8c7,0,14.1,0,21.1,0c0,10.5,0,21.4,0,31.1
					c0,0.6-0.8,1.5-1.6,1.6c-1.1,0-1.6,0-3,0v5.1c1.6,0,3,0,4.6,0c4.1,0,6.8-2,6.8-5.4c0-8.1,0-24.2,0-32.4h2.4V3.9H20.6V8.8z
					 M145.9,40.2c2.3,0,1.4,0,3.6,0c1.3,0,3.1-1.1,3.1-3.2c0-5.3,0-9.5,0-14.9c-1,0-2.1,0-3,0c0-4.1,0-12.5,0-15.5
					c0-1.2-1.2-2.6-2.8-2.6h-22.1v4.9h17c0,4.4,0,8.9,0,13.3c-4.1,0-4.7,0-8.2,0c-0.5,0-1-0.5-1-0.9c0-2.2,0-5.8,0-8.7
					c0-0.7-0.7-1.5-1.8-1.5h-5v11.8c0,2.3,2,4.2,4.2,4.2c0,0,8.7,0,15.9,0v4.4h-17.6c-1.9,0-4.9,1.8-4.9,4.9
					c6.1,0,15.9-0.1,22.5-0.1C145.9,37.3,145.9,38.6,145.9,40.2z M38.5,32.8c0-5.6,0-13.4,0-21H20.9v26.8c5.1,0,11.6,0,11.6,0
					C37,38.5,38.5,36,38.5,32.8z M31,33.6c-1.3,0-2.6,0-4.4,0V16.9c1.9,0,4.1,0,6,0c0,5.1,0,10.7,0,15.1C32.5,32.9,32,33.6,31,33.6z
					 M0.8,5.1c0,9.6,0,22.2,0,41.4h6.5c0-12.1,0-25.3,0-37.8c1.5,0,3.3,0,4.9,0c0,7.3,0,13.8,0,20.5c0,2.8-2.5,3.8-2.5,3.8v5.4
					c4.6,0,8.7-4.7,8.7-9c0-7.8,0-17.7,0-25.5c-5.9,0-10.4,0-16.2,0C0.8,3.9,0.8,5.1,0.8,5.1z M203.3,22.1c0-4.1,0-12.5,0-15.5
					c0-1.2-1.2-2.6-2.8-2.6h-22.1v4.9c5.7,0,11.4,0,17,0v13.3c-4.1,0-4.7,0-8.2,0c-0.5,0-1-0.5-1-0.9c0-2.2,0-5.8,0-8.7
					c0-0.7-0.7-1.4-1.8-1.4c-1.4,0-3.4,0-5,0v11.7c0,2.3,2,4.2,4.2,4.2c0,0,8.7,0,15.9,0v4.4h-17.3c-1.9,0-5,1.7-5,4.8
					c6.1,0,15.8,0,22.4,0v4.5c0,0.8-0.6,1.1-1.5,1.1h-2.6c0,2.2,0,3.4,0,4.8h3.9c1.2,0,0.9,0,2.1,0c3.3,0,4.7-2.3,4.7-4.2
					c0-6.1,0-14.2,0-20.3C205.2,22.1,204.2,22.1,203.3,22.1z M171.9,38.5c2.4-2.6,3.7-5.7,4-11.5c0-6.4,0-12.5,0-18.8
					c0-0.5-0.7-1.2-1.3-1.2c-2.5,0-5.6,0-8.3,0V3.9h-6.5c0,1,0,2,0,2.9c-0.7,0-1.5,0-2.2,0v4.9h2.2v15.2c0,5.9,1.9,8.8,4.3,11.5
					c-2.9,2-5.8,3.2-9.7,3.2c-0.5,0-1.1,0-1.7,0c-6.1,0-13.5,0-20,0c-6.1,0-12-1.1-14.2-3.8c2.1-2.8,3.2-5.1,3.8-11
					c0-5.9,0-10.9,0-18.4c-0.1-0.8-0.8-1.5-1.6-1.6c-2.6,0-5.1,0-8.3,0v-3c-2.7,0-3.7,0-6.3,0v3c-0.7,0-1.2,0-2.2,0v4.9
					c1,0,1.5,0,2.2,0c0,5,0,10.6,0,15.2c0.5,5.9,2.4,7.8,4.6,11.3c-3.3,2.3-7.3,3.3-12,3.6c-5.6,0-10.6,0-17.6,0c0-1.2,0-2.9,0-3.8
					h17.6v-5.1H81.2c0-1.2,0-2.5,0-3.8c5.1,0,11.7,0,13.3,0c0,0,4.3,0,4.3-4.7c0.1-4.9,0-13.8,0-20.4c-13.9,0-28.1,0-42,0
					c-0.7,0-1.3,0.7-1.3,1.3c0,1,0,16.6,0,23.9c5.9,0,11.7,0,17.6,0v3.8H55.5c0,1.6,0,3.4,0,5.1h17.6c0,1.3,0,2.5,0,3.8H52.5
					c0,1.4,0,3.3,0,4.8c15.5,0,34.6,0.1,49.6,0c4,0,9.1-2.1,12.7-4.2c4.6,3.5,9.6,4.2,17.9,4.2c2.5,0,5.3,0,8.4,0
					c4.3,0,8.2,0,11.6,0c7,0,11.4-1.5,15.7-4c3.9,2.4,7.7,3.8,13.8,4v0h9.3v-4.8h-9.3C178,41.3,174.6,40.7,171.9,38.5z M73,24.2
					H62.2V19H73V24.2z M73,13.9H62.2V8.8c3.6,0,7.2,0,10.8,0V13.9z M81.2,8.8H92v5.1H81.2V8.8z M81.2,19c3.6,0,7.2,0,10.8,0
					c0,2.1,0,3.7,0,5.1H81.2C81.2,22.8,81.2,20.7,81.2,19z M116.2,26.9c-0.2,3.4-0.8,4.2-1.6,6.4c-1-2.1-1.9-3-2.1-6.4
					c0-4.4,0-10.5,0-15.2h3.7V26.9z M169.8,26.9c-0.1,3.1-0.9,4.7-1.7,6.4c-1-1.7-1.9-3.5-1.9-6.4c0-4.7,0-10.4,0-15.2h3.6
					C169.8,16.6,169.8,22.2,169.8,26.9z"/>
			</g>
		</g>
	</g>
	<g>
		<rect x="327.2" y="19.2" style="fill:#333333;" width="8.8" height="3"/>
		<polygon style="fill:#333333;" points="326.5,16.3 323.2,25.1 327.3,25.1 330.6,16.3 		"/>
		<rect x="323.8" y="25.6" style="fill:#333333;" width="11" height="2.9"/>
		<rect x="323" y="33.1" style="fill:#333333;" width="12.4" height="2.9"/>
		<rect x="326.8" y="28.2" style="fill:#333333;" width="4.3" height="15.7"/>
		<polygon style="fill:#333333;" points="335.1,40.6 335.1,43.9 326.8,47 326.8,43.4 		"/>
		<rect x="342.9" y="16.3" style="fill:#333333;" width="4.3" height="14.7"/>
		<rect x="346.9" y="21.7" style="fill:#333333;" width="8.4" height="2.9"/>
		<path style="fill:#333333;" d="M354,30.9h-17.1v2.4v0.5v10.7v0.4V47h12.9h0.6c2,0,3.6-1.6,3.6-3.6c0,0,0-9.5,0-9.5h0V30.9z
			 M349.8,43.3v1.2H341V33.8h8.8V43.3z"/>
		<rect x="359.2" y="17.4" style="fill:#333333;" width="31" height="3.2"/>
		<polygon style="fill:#333333;" points="369.4,20.6 357.4,38.3 362.4,38.3 374.3,20.6 		"/>
		<rect x="368.6" y="28" style="fill:#333333;" width="15.9" height="3.1"/>
		<rect x="364.7" y="28.7" style="fill:#333333;" width="4.3" height="14.9"/>
		<rect x="364.7" y="43.4" style="fill:#333333;" width="18.8" height="3.1"/>
		<rect x="383.4" y="28" style="fill:#333333;" width="4.3" height="14.2"/>
		<path style="fill:#333333;" d="M383.6,38.2c-0.1,0-0.1,0-0.2,0v5.2h-3.8c0.5,1.8,2.1,3.1,4,3.1c2.3,0,4.1-1.8,4.1-4.1
			C387.7,40,385.8,38.2,383.6,38.2z"/>
		<rect x="394.9" y="16.3" style="fill:#333333;" width="27.7" height="2.9"/>
		<rect x="394.9" y="18.7" style="fill:#333333;" width="4.3" height="18.7"/>
		<rect x="399" y="21.9" style="fill:#333333;" width="19.5" height="2.7"/>
		<path style="fill:#333333;" d="M422.7,18.5h-1.2c-0.6-0.5-1.4-0.8-2.2-0.8v0.8h-0.8v2.2v0.2v3.7h0.8c1.9,0,3.4-1.5,3.4-3.4
			c0-0.1,0-0.2,0-0.3h0V18.5z"/>
		<rect x="399.1" y="27.7" style="fill:#333333;" width="23.8" height="2.5"/>
		<rect x="399.1" y="33.5" style="fill:#333333;" width="23.7" height="2.6"/>
		<rect x="404.2" y="24.4" style="fill:#333333;" width="4.2" height="10.3"/>
		<rect x="413.3" y="24" style="fill:#333333;" width="4.2" height="10.3"/>
		<rect x="401.5" y="36" style="fill:#333333;" width="4.2" height="8"/>
		<polygon style="fill:#333333;" points="410.8,41.8 401.5,43.6 401.5,47 410.8,44.8 		"/>
		<polygon style="fill:#333333;" points="408.7,36.6 413.9,36.6 422.8,47 417.8,47 		"/>
		<polygon style="fill:#333333;" points="418.7,36.6 423.3,36.6 418.7,42.6 416.2,39.7 		"/>
		<polyline style="fill:#333333;" points="394.9,37.3 393.1,46.2 397.4,46.2 399.2,37.3 		"/>
		<rect x="445" y="16.3" style="fill:#333333;" width="5.1" height="4.4"/>
		<rect x="436.6" y="20.3" style="fill:#333333;" width="18.5" height="3"/>
		<rect x="436" y="44.2" style="fill:#333333;" width="23.1" height="2.8"/>
		<polygon style="fill:#333333;" points="438.7,25.7 443.1,25.7 445.9,44.2 441.6,44.2 		"/>
		<polygon style="fill:#333333;" points="451.4,25.7 455.8,25.7 453,44.2 448.6,44.2 		"/>
		<rect x="430.7" y="24.7" style="fill:#333333;" width="4.2" height="22.3"/>
		<polygon style="fill:#333333;" points="433,16.3 425.9,30.3 430.5,30.3 437.4,16.3 		"/>
		<path style="fill:#333333;" d="M452.2,20.3c0,1.7,1.4,3,3,3c1.7,0,3-1.3,3-3H452.2z"/>
		<g>
			<path style="fill:#898989;" d="M326.5,63.1c0,1.2-0.4,1.7-1.2,1.8c-0.3,0-0.7,0-1.2,0c0,0,0-0.1,0-0.1c0-0.4-0.1-0.6-0.1-0.8
				c0.1,0,0.2,0,0.4,0c0.3,0,0.5,0,0.6,0c0.4,0,0.6-0.3,0.6-1c0-0.9-0.4-1.8-1.2-2.7c0.3-0.7,0.6-1.8,1-3.3H324v9.9h-0.9V56.2h3.3
				V57c-0.5,1.7-0.9,2.8-1,3.2C326.2,61.2,326.6,62.2,326.5,63.1z M327,56.3h7.1v0.9h-1.1V65c0.1,1.2-0.5,1.7-1.6,1.7
				c-0.3,0-0.9,0-1.7,0c0-0.2-0.1-0.4-0.1-0.6c-0.1-0.2-0.1-0.3-0.1-0.4c0.4,0,1,0,1.7,0c0.6,0,0.9-0.2,0.9-0.8v-7.8H327V56.3z
				 M327.3,58.8h3.5v5.1h-3.5V58.8z M328.2,59.6V63h1.9v-3.4H328.2z"/>
			<path style="fill:#898989;" d="M341.2,63.2h4.6v-1.3h-4.2v-5.7h9.2v5.7h-4.2v1.3h4.6V64h-4.6v1.5h5.4v0.8h-11.6v-0.8h5.3V64h-4.6
				V63.2z M342.5,56.9v1.7h3.3v-1.7H342.5z M342.5,59.4v1.7h3.3v-1.7H342.5z M350,56.9h-3.3v1.7h3.3V56.9z M346.7,59.4v1.7h3.3v-1.7
				H346.7z"/>
			<path style="fill:#898989;" d="M363.1,65.1l-0.7,0.6c-0.2-0.1-0.5-0.4-0.8-0.8c-0.2-0.2-0.3-0.3-0.4-0.4
				c-0.4,0.7-1.2,1.4-2.2,2.3c-0.2-0.3-0.3-0.5-0.5-0.8c0.8-0.6,1.5-1.3,2.1-2.2c-0.2-0.2-0.5-0.4-0.8-0.8c-0.4-0.4-0.6-0.6-0.8-0.8
				c0.2-0.7,0.4-1.8,0.8-3.5h-1.1V58h1.2c0.1-0.4,0.2-1.1,0.3-2c0-0.2,0-0.4,0-0.5l0.9,0.1c0,0.3-0.1,0.8-0.2,1.4
				c-0.1,0.4-0.1,0.7-0.1,0.9h2.1v0.8c-0.2,2.1-0.6,3.7-1.2,4.8C362.1,64.1,362.6,64.6,363.1,65.1z M361.9,58.9h-1.4
				c-0.2,1.3-0.4,2.3-0.7,3.2c0.2,0.1,0.4,0.4,0.8,0.7c0.2,0.2,0.3,0.3,0.4,0.3C361.4,62,361.7,60.6,361.9,58.9z M362.9,63.2h5.1
				v0.9h-5.1V63.2z M364.9,57.5l-0.3,3.3h2.9l0.4-4h-4.8V56h5.8l-0.5,4.9h1.2c-0.1,2-0.1,3.4-0.2,4.1c-0.1,1.1-0.7,1.7-2,1.7
				c-0.8,0-1.4,0-1.9,0c0-0.2-0.1-0.4-0.1-0.7c0-0.2,0-0.3,0-0.3c0.2,0,0.9,0,2,0c0.7,0,1.1-0.3,1.1-1c0.1-0.6,0.1-1.7,0.2-3.1h-5
				l0.4-4.1H364.9z"/>
			<path style="fill:#898989;" d="M381,65.1l-0.7,0.6c-0.2-0.1-0.5-0.4-0.8-0.8c-0.2-0.2-0.3-0.3-0.4-0.4c-0.4,0.7-1.2,1.4-2.2,2.3
				c-0.2-0.3-0.3-0.5-0.5-0.8c0.8-0.6,1.5-1.3,2.1-2.2c-0.2-0.2-0.5-0.4-0.8-0.8c-0.4-0.4-0.6-0.6-0.8-0.8c0.2-0.7,0.4-1.8,0.8-3.5
				h-1.1V58h1.2c0.1-0.4,0.2-1.1,0.3-2c0-0.2,0-0.4,0-0.5l0.9,0.1c0,0.3-0.1,0.8-0.2,1.4c-0.1,0.4-0.1,0.7-0.1,0.9h2.1v0.8
				c-0.2,2.1-0.6,3.7-1.2,4.8C380,64.1,380.5,64.6,381,65.1z M379.8,58.9h-1.4c-0.2,1.3-0.4,2.3-0.7,3.2c0.2,0.1,0.4,0.4,0.8,0.7
				c0.2,0.2,0.3,0.3,0.4,0.3C379.3,62,379.6,60.6,379.8,58.9z M380.8,63.2h5.1v0.9h-5.1V63.2z M382.8,57.5l-0.3,3.3h2.9l0.4-4H381
				V56h5.8l-0.5,4.9h1.2c-0.1,2-0.1,3.4-0.2,4.1c-0.1,1.1-0.7,1.7-2,1.7c-0.8,0-1.4,0-1.9,0c0-0.2-0.1-0.4-0.1-0.7
				c0-0.2,0-0.3,0-0.3c0.2,0,0.9,0,2,0c0.7,0,1.1-0.3,1.1-1c0.1-0.6,0.1-1.7,0.2-3.1h-5l0.4-4.1H382.8z"/>
			<path style="fill:#898989;" d="M394.3,57.4h4.1v0.8h-2.2c0,0.5,0,1.1,0,1.7h2c0,2.1,0,3.8-0.1,5c0,1.2-0.5,1.7-1.4,1.7
				c-0.5,0-0.8,0-0.9,0c0-0.2-0.1-0.5-0.1-0.9c0.4,0,0.8,0,1,0c0.5,0,0.7-0.3,0.7-0.9c0.1-0.7,0.1-2.1,0.1-4.2h-1.2
				c0,0.3,0,0.6,0,0.8c0,2.4-0.5,4.2-1.4,5.3c-0.2-0.2-0.4-0.4-0.6-0.7c0.8-0.9,1.2-2.4,1.2-4.6c0-0.3,0-0.9,0-1.7
				c0-0.7,0-1.3,0-1.7h-1.1V57.4z M395.8,55.8l0.8-0.3c0.1,0.1,0.1,0.3,0.2,0.5c0.2,0.4,0.4,0.8,0.5,1.1l-0.8,0.3
				C396.3,56.9,396.1,56.4,395.8,55.8z M400.9,64.6l0.6,0.6c-0.1,0.1-0.2,0.1-0.4,0.2c-0.8,0.6-1.6,1.1-2.2,1.4
				c-0.2-0.2-0.4-0.5-0.6-0.7C399.3,65.8,400.1,65.2,400.9,64.6z M398.6,57.9c0.6-0.6,1.1-1.5,1.5-2.5l0.8,0.2
				c-0.1,0.2-0.2,0.4-0.3,0.7c-0.1,0.1-0.1,0.2-0.1,0.3h5.2v0.8H400c-0.3,0.4-0.5,0.8-0.8,1.2c0,0-0.1-0.1-0.1-0.1
				C398.8,58.2,398.7,58,398.6,57.9z M399.9,57.9h0.8v0.9h2.8v-0.9h0.8v0.9h1.2v0.8h-1.2v4.2h1.4v0.8h-7.1v-0.8h1.2v-4.2h-1.2v-0.8
				h1.2V57.9z M400.7,59.6v0.9h2.8v-0.9H400.7z M400.7,61.3v0.9h2.8v-0.9H400.7z M400.7,62.9v0.9h2.8v-0.9H400.7z M402.7,65.2
				l0.5-0.6c0.8,0.5,1.6,1,2.4,1.6l-0.6,0.7C404.3,66.3,403.6,65.7,402.7,65.2z"/>
			<path style="fill:#898989;" d="M418.3,59.5c1.8,0.9,3.3,1.8,4.7,2.5l-0.6,0.9c-1.7-1.1-3.2-1.9-4.4-2.5v6.4h-1v-9.4h-4.7v-0.9
				h11.3v0.9h-5.7v2.8L418.3,59.5z"/>
			<path style="fill:#898989;" d="M431.3,60.2h5.5c0.5-0.6,1-1.4,1.4-2.3l0.9,0.6c-0.5,0.7-0.9,1.3-1.3,1.7h3.5V61h-9v0.8
				c0.1,2.2-0.4,3.9-1.5,5.1c-0.2-0.2-0.4-0.5-0.6-0.8c0.9-0.8,1.3-2.2,1.2-4.3V60.2z M435.2,55.7l0.9-0.3c0,0.1,0.1,0.2,0.1,0.4
				c0.2,0.4,0.3,0.8,0.3,1h5v0.8h-11.2v-0.8h5.3C435.5,56.5,435.3,56.1,435.2,55.7z M432.7,58.3l0.8-0.5c0.1,0.1,0.2,0.2,0.3,0.4
				c0.5,0.6,0.8,1.1,1,1.3l-0.8,0.6C433.5,59.4,433.1,58.8,432.7,58.3z"/>
			<path style="fill:#898989;" d="M448.6,61.5h4.4v5.3h-0.9v-0.8h-2.6v0.8h-0.9V61.5z M449.5,62.4v3h2.6v-3H449.5z M449.8,56h8v4.2
				h-8V56z M450.7,56.8v2.6h6.1v-2.6H450.7z M454.5,61.5h4.4v5.3H458v-0.8h-2.6v0.8h-0.9V61.5z M455.4,62.4v3h2.6v-3H455.4z"/>
		</g>
		<g>
			<g>
				<polygon style="fill:#BCD0FF;" points="262.8,17.5 284.2,20.5 305.5,17.4 284.1,16 				"/>
				<polygon style="fill:#6491FF;" points="262.8,17.5 253.8,23.8 259.4,32.4 261.7,25.7 				"/>
				<polygon style="fill:#4077FF;" points="261.7,25.7 273.7,34.3 284.1,61.3 259.4,32.4 				"/>
				<polygon style="fill:#95B4FF;" points="275.9,19.3 261.7,25.7 262.8,17.5 				"/>
				<polygon style="fill:#BCD0FF;" points="273.7,34.3 275.9,19.3 261.7,25.7 				"/>
				<polygon style="fill:#95B4FF;" points="275.9,19.3 284.2,26.6 273.7,34.3 				"/>
				<polygon style="fill:#95B4FF;" points="275.9,19.3 284.2,20.5 292.6,19.3 284.2,26.6 				"/>
				<polygon style="fill:#6491FF;" points="284.2,26.6 273.7,34.3 284.1,61.3 				"/>
				<polygon style="fill:#BCD0FF;" points="292.6,19.3 284.2,26.6 294.7,34.1 				"/>
				<polygon style="fill:#4F82FF;" points="284.2,26.6 294.7,34.1 284.1,61.3 				"/>
				<polygon style="fill:#95B4FF;" points="292.6,19.3 306.8,25.5 294.7,34.1 				"/>
				<polygon style="fill:#95B4FF;" points="306.8,25.5 309,32.5 284.2,61.3 294.7,34.1 				"/>
				<polygon style="fill:#BCD0FF;" points="305.5,17.4 306.8,25.5 309,32.5 314.7,23.6 				"/>
			</g>
			<polygon style="fill:#7AA1FF;" points="305.5,17.4 306.8,25.5 292.6,19.3 			"/>
		</g>
	</g>
</g>
</svg>
