<?xml version="1.0" encoding="utf-8"?>
<!-- Generator: Adobe Illustrator 17.1.0, SVG Export Plug-In . SVG Version: 6.00 Build 0)  -->
<!DOCTYPE svg PUBLIC "-//W3C//DTD SVG 1.1//EN" "http://www.w3.org/Graphics/SVG/1.1/DTD/svg11.dtd">
<svg version="1.1" id="图层_1" xmlns="http://www.w3.org/2000/svg" xmlns:xlink="http://www.w3.org/1999/xlink" x="0px" y="0px"
	 viewBox="0 0 1054.6 315.5" enable-background="new 0 0 1054.6 315.5" xml:space="preserve">
<polyline fill="none" stroke="#211816" stroke-width="0.25" points="26.4,60.1 26.4,49.5 43.4,49.5 43.4,59.7 "/>
<polyline fill="none" stroke="#211816" stroke-width="0.25" points="20.2,83.4 9.6,83.4 9.6,66.4 20.2,66.4 "/>
<g>
	<path d="M5.5,8.7c-0.3,0-0.5-0.1-0.6-0.2C4.7,8.4,4.7,8.1,4.7,7.8c-0.3,0.3-0.6,0.6-1,0.7C3.3,8.7,2.9,8.7,2.5,8.7
		c-0.3,0-0.5,0-0.8-0.1S1.2,8.5,1,8.4S0.7,8,0.6,7.8C0.5,7.6,0.4,7.3,0.4,7c0-0.4,0.1-0.6,0.2-0.9c0.1-0.2,0.3-0.4,0.5-0.5
		c0.2-0.1,0.4-0.2,0.7-0.3s0.5-0.1,0.8-0.2C2.8,5.1,3.1,5,3.3,5S3.8,4.9,4,4.9s0.3-0.1,0.5-0.2c0.1-0.1,0.2-0.2,0.2-0.4
		c0-0.2,0-0.4-0.1-0.5S4.3,3.4,4.2,3.3C4,3.3,3.9,3.2,3.7,3.2c-0.2,0-0.3,0-0.5,0c-0.4,0-0.8,0.1-1.1,0.2S1.7,3.9,1.7,4.3h-1
		c0-0.4,0.1-0.7,0.2-1s0.3-0.5,0.6-0.6C1.7,2.6,2,2.4,2.3,2.4c0.3-0.1,0.6-0.1,1-0.1c0.3,0,0.6,0,0.8,0.1c0.3,0,0.5,0.1,0.8,0.2
		c0.2,0.1,0.4,0.3,0.5,0.5C5.6,3.3,5.6,3.6,5.6,4v3.2c0,0.2,0,0.4,0,0.5S5.8,7.9,6,7.9c0.1,0,0.2,0,0.3-0.1v0.8
		C6.1,8.7,5.8,8.7,5.5,8.7z M4.1,5.6c-0.2,0-0.4,0.1-0.7,0.1S3,5.8,2.8,5.8S2.3,5.9,2.1,6C2,6.1,1.8,6.2,1.7,6.3
		C1.6,6.5,1.5,6.7,1.5,6.9c0,0.2,0,0.3,0.1,0.4c0.1,0.1,0.2,0.2,0.3,0.3s0.2,0.1,0.4,0.2c0.1,0,0.3,0,0.4,0c0.3,0,0.6,0,0.9-0.1
		C3.8,7.6,4,7.5,4.2,7.4c0.2-0.1,0.3-0.3,0.3-0.5s0.1-0.3,0.1-0.5v-1C4.5,5.5,4.3,5.6,4.1,5.6z"/>
	<path d="M7,4.8V4h6v0.8H7z M13.1,6.4v0.8H7V6.4H13.1z"/>
	<path d="M19.8,5.7v0.9h-1.2v2h-1v-2H14v-1l3.9-5.5h0.8v5.6H19.8z M17.7,1.6L17.7,1.6l-2.9,4.2h2.9V1.6z"/>
	<path d="M22,2.4v0.9h0c0.5-0.7,1.1-1.1,2-1.1c0.4,0,0.7,0.1,1,0.2c0.3,0.2,0.5,0.4,0.7,0.8C26,3,26.3,2.7,26.6,2.5
		c0.3-0.2,0.7-0.3,1.1-0.3c0.3,0,0.6,0,0.8,0.1c0.3,0.1,0.5,0.2,0.6,0.3c0.2,0.1,0.3,0.3,0.4,0.6c0.1,0.2,0.1,0.5,0.1,0.8v4.5h-1
		V4.5c0-0.2,0-0.4,0-0.5s-0.1-0.3-0.2-0.4c-0.1-0.1-0.2-0.2-0.4-0.3s-0.4-0.1-0.6-0.1c-0.5,0-0.9,0.1-1.2,0.4s-0.4,0.7-0.4,1.2v3.9
		h-1V4.5c0-0.2,0-0.4-0.1-0.6c0-0.2-0.1-0.3-0.2-0.4c-0.1-0.1-0.2-0.2-0.4-0.3c-0.1-0.1-0.3-0.1-0.6-0.1c-0.3,0-0.5,0.1-0.8,0.2
		c-0.2,0.1-0.4,0.3-0.5,0.4s-0.2,0.3-0.3,0.5c-0.1,0.2-0.1,0.3-0.1,0.5v3.9h-1V2.4H22z"/>
	<path d="M32.3,2.4v0.9h0c0.5-0.7,1.1-1.1,2-1.1c0.4,0,0.7,0.1,1,0.2c0.3,0.2,0.5,0.4,0.7,0.8c0.2-0.3,0.5-0.6,0.8-0.8
		c0.3-0.2,0.7-0.3,1.1-0.3c0.3,0,0.6,0,0.8,0.1c0.3,0.1,0.5,0.2,0.6,0.3c0.2,0.1,0.3,0.3,0.4,0.6C40,3.5,40,3.7,40,4.1v4.5h-1V4.5
		c0-0.2,0-0.4,0-0.5s-0.1-0.3-0.2-0.4c-0.1-0.1-0.2-0.2-0.4-0.3S38,3.2,37.8,3.2c-0.5,0-0.9,0.1-1.2,0.4s-0.4,0.7-0.4,1.2v3.9h-1
		V4.5c0-0.2,0-0.4-0.1-0.6c0-0.2-0.1-0.3-0.2-0.4c-0.1-0.1-0.2-0.2-0.4-0.3c-0.1-0.1-0.3-0.1-0.6-0.1c-0.3,0-0.5,0.1-0.8,0.2
		c-0.2,0.1-0.4,0.3-0.5,0.4s-0.2,0.3-0.3,0.5c-0.1,0.2-0.1,0.3-0.1,0.5v3.9h-1V2.4H32.3z"/>
</g>
<g>
	<path d="M37,46.5c-0.3,0-0.5-0.1-0.6-0.2c-0.2-0.1-0.2-0.4-0.2-0.7c-0.3,0.3-0.6,0.6-1,0.7c-0.4,0.1-0.8,0.2-1.2,0.2
		c-0.3,0-0.5,0-0.8-0.1s-0.5-0.2-0.7-0.3s-0.3-0.3-0.4-0.5c-0.1-0.2-0.2-0.5-0.2-0.8c0-0.4,0.1-0.6,0.2-0.9c0.1-0.2,0.3-0.4,0.5-0.5
		c0.2-0.1,0.4-0.2,0.7-0.3s0.5-0.1,0.8-0.2c0.3-0.1,0.5-0.1,0.8-0.1s0.5-0.1,0.7-0.1s0.3-0.1,0.5-0.2c0.1-0.1,0.2-0.2,0.2-0.4
		c0-0.2,0-0.4-0.1-0.5s-0.2-0.2-0.3-0.3C35.5,41,35.4,41,35.2,41c-0.2,0-0.3,0-0.5,0c-0.4,0-0.8,0.1-1.1,0.2s-0.4,0.5-0.5,0.9h-1
		c0-0.4,0.1-0.7,0.2-1s0.3-0.5,0.6-0.6c0.2-0.2,0.5-0.3,0.8-0.4c0.3-0.1,0.6-0.1,1-0.1c0.3,0,0.6,0,0.8,0.1c0.3,0,0.5,0.1,0.8,0.2
		c0.2,0.1,0.4,0.3,0.5,0.5c0.1,0.2,0.2,0.5,0.2,0.9v3.2c0,0.2,0,0.4,0,0.5s0.1,0.2,0.3,0.2c0.1,0,0.2,0,0.3-0.1v0.8
		C37.6,46.5,37.3,46.5,37,46.5z M35.6,43.4c-0.2,0-0.4,0.1-0.7,0.1s-0.5,0.1-0.7,0.1s-0.4,0.1-0.6,0.2c-0.2,0.1-0.3,0.2-0.5,0.3
		c-0.1,0.1-0.2,0.4-0.2,0.6c0,0.2,0,0.3,0.1,0.4c0.1,0.1,0.2,0.2,0.3,0.3s0.2,0.1,0.4,0.2c0.1,0,0.3,0,0.4,0c0.3,0,0.6,0,0.9-0.1
		c0.2-0.1,0.4-0.2,0.6-0.3c0.2-0.1,0.3-0.3,0.3-0.5s0.1-0.3,0.1-0.5v-1C36,43.3,35.8,43.3,35.6,43.4z"/>
</g>
<g>
	<path d="M462.3,304.2l-0.5,2.4l0,0c0.2-0.2,0.4-0.4,0.7-0.5c0.3-0.1,0.6-0.1,0.9-0.1c0.4,0,0.7,0.1,1.1,0.2
		c0.3,0.1,0.6,0.3,0.9,0.5c0.2,0.2,0.4,0.5,0.6,0.9s0.2,0.8,0.2,1.3c0,0.4-0.1,0.7-0.2,1.1s-0.3,0.6-0.6,0.9
		c-0.2,0.3-0.6,0.5-0.9,0.6c-0.4,0.2-0.8,0.2-1.3,0.2c-0.4,0-0.7-0.1-1-0.2c-0.3-0.1-0.6-0.3-0.9-0.5s-0.4-0.5-0.6-0.8
		s-0.2-0.6-0.2-1h1c0,0.2,0.1,0.4,0.2,0.6c0.1,0.2,0.2,0.4,0.4,0.5c0.2,0.1,0.3,0.2,0.6,0.3s0.4,0.1,0.7,0.1c0.2,0,0.5,0,0.7-0.1
		c0.2-0.1,0.4-0.2,0.6-0.4c0.2-0.2,0.3-0.4,0.4-0.6c0.1-0.3,0.1-0.5,0.1-0.9c0-0.3,0-0.5-0.1-0.8c-0.1-0.2-0.2-0.4-0.4-0.6
		s-0.4-0.3-0.6-0.4c-0.2-0.1-0.5-0.1-0.8-0.1c-0.3,0-0.6,0.1-0.9,0.2c-0.3,0.1-0.5,0.3-0.7,0.6l-0.9,0l0.8-4.4h4.2v0.9H462.3z"/>
	<path d="M470.1,311.7v-6.1h-2.2v-0.8c0.3,0,0.6,0,0.8-0.1s0.5-0.1,0.7-0.2c0.2-0.1,0.4-0.3,0.6-0.5c0.2-0.2,0.3-0.5,0.3-0.8h0.8
		v8.5H470.1z"/>
	<path d="M475.8,310.3v1.3h-1.3v-1.3H475.8z"/>
	<path d="M479,304.2l-0.5,2.4l0,0c0.2-0.2,0.4-0.4,0.7-0.5c0.3-0.1,0.6-0.1,0.9-0.1c0.4,0,0.7,0.1,1.1,0.2c0.3,0.1,0.6,0.3,0.9,0.5
		c0.2,0.2,0.4,0.5,0.6,0.9s0.2,0.8,0.2,1.3c0,0.4-0.1,0.7-0.2,1.1s-0.3,0.6-0.6,0.9c-0.2,0.3-0.6,0.5-0.9,0.6
		c-0.4,0.2-0.8,0.2-1.3,0.2c-0.4,0-0.7-0.1-1-0.2c-0.3-0.1-0.6-0.3-0.9-0.5s-0.4-0.5-0.6-0.8s-0.2-0.6-0.2-1h1
		c0,0.2,0.1,0.4,0.2,0.6c0.1,0.2,0.2,0.4,0.4,0.5c0.2,0.1,0.3,0.2,0.6,0.3s0.4,0.1,0.7,0.1c0.2,0,0.5,0,0.7-0.1
		c0.2-0.1,0.4-0.2,0.6-0.4c0.2-0.2,0.3-0.4,0.4-0.6c0.1-0.3,0.1-0.5,0.1-0.9c0-0.3,0-0.5-0.1-0.8c-0.1-0.2-0.2-0.4-0.4-0.6
		s-0.4-0.3-0.6-0.4c-0.2-0.1-0.5-0.1-0.8-0.1c-0.3,0-0.6,0.1-0.9,0.2c-0.3,0.1-0.5,0.3-0.7,0.6l-0.9,0l0.8-4.4h4.2v0.9H479z"/>
	<path d="M488.4,305.7c-0.4,0.6-0.7,1.2-1,1.9s-0.5,1.3-0.7,2.1c-0.2,0.7-0.3,1.4-0.3,2.1h-1.1c0-0.7,0.2-1.4,0.4-2.1
		c0.2-0.7,0.4-1.3,0.7-2c0.3-0.6,0.6-1.2,1-1.8c0.4-0.6,0.8-1.1,1.3-1.5h-4.5v-1h5.5v0.9C489.2,304.6,488.8,305.1,488.4,305.7z"/>
	<path d="M495.7,311.8c-0.3,0-0.5-0.1-0.6-0.2c-0.2-0.1-0.2-0.4-0.2-0.7c-0.3,0.3-0.6,0.6-1,0.7c-0.4,0.1-0.8,0.2-1.2,0.2
		c-0.3,0-0.5,0-0.8-0.1s-0.5-0.2-0.7-0.3s-0.3-0.3-0.4-0.5c-0.1-0.2-0.2-0.5-0.2-0.8c0-0.4,0.1-0.6,0.2-0.9c0.1-0.2,0.3-0.4,0.5-0.5
		c0.2-0.1,0.4-0.2,0.7-0.3s0.5-0.1,0.8-0.2c0.3-0.1,0.5-0.1,0.8-0.1s0.5-0.1,0.7-0.1s0.3-0.1,0.5-0.2c0.1-0.1,0.2-0.2,0.2-0.4
		c0-0.2,0-0.4-0.1-0.5s-0.2-0.2-0.3-0.3c-0.1-0.1-0.3-0.1-0.4-0.1c-0.2,0-0.3,0-0.5,0c-0.4,0-0.8,0.1-1.1,0.2s-0.4,0.5-0.5,0.9h-1
		c0-0.4,0.1-0.7,0.2-1s0.3-0.5,0.6-0.6c0.2-0.2,0.5-0.3,0.8-0.4c0.3-0.1,0.6-0.1,1-0.1c0.3,0,0.6,0,0.8,0.1c0.3,0,0.5,0.1,0.8,0.2
		c0.2,0.1,0.4,0.3,0.5,0.5c0.1,0.2,0.2,0.5,0.2,0.9v3.2c0,0.2,0,0.4,0,0.5s0.1,0.2,0.3,0.2c0.1,0,0.2,0,0.3-0.1v0.8
		C496.2,311.7,496,311.8,495.7,311.8z M494.3,308.7c-0.2,0-0.4,0.1-0.7,0.1s-0.5,0.1-0.7,0.1s-0.4,0.1-0.6,0.2
		c-0.2,0.1-0.3,0.2-0.5,0.3c-0.1,0.1-0.2,0.4-0.2,0.6c0,0.2,0,0.3,0.1,0.4c0.1,0.1,0.2,0.2,0.3,0.3s0.2,0.1,0.4,0.2
		c0.1,0,0.3,0,0.4,0c0.3,0,0.6,0,0.9-0.1c0.2-0.1,0.4-0.2,0.6-0.3c0.2-0.1,0.3-0.3,0.3-0.5s0.1-0.3,0.1-0.5v-1
		C494.6,308.6,494.5,308.6,494.3,308.7z"/>
</g>
<g>
	<path d="M5.5,78.6c-0.3,0-0.5-0.1-0.6-0.2c-0.2-0.1-0.2-0.4-0.2-0.7c-0.3,0.3-0.6,0.6-1,0.7c-0.4,0.1-0.8,0.2-1.2,0.2
		c-0.3,0-0.5,0-0.8-0.1S1.2,78.4,1,78.2s-0.3-0.3-0.4-0.5c-0.1-0.2-0.2-0.5-0.2-0.8c0-0.4,0.1-0.6,0.2-0.9c0.1-0.2,0.3-0.4,0.5-0.5
		c0.2-0.1,0.4-0.2,0.7-0.3S2.3,75,2.5,75c0.3-0.1,0.5-0.1,0.8-0.1s0.5-0.1,0.7-0.1s0.3-0.1,0.5-0.2c0.1-0.1,0.2-0.2,0.2-0.4
		c0-0.2,0-0.4-0.1-0.5s-0.2-0.2-0.3-0.3c-0.1-0.1-0.3-0.1-0.4-0.1c-0.2,0-0.3,0-0.5,0c-0.4,0-0.8,0.1-1.1,0.2s-0.4,0.5-0.5,0.9h-1
		c0-0.4,0.1-0.7,0.2-1s0.3-0.5,0.6-0.6c0.2-0.2,0.5-0.3,0.8-0.4c0.3-0.1,0.6-0.1,1-0.1c0.3,0,0.6,0,0.8,0.1c0.3,0,0.5,0.1,0.8,0.2
		c0.2,0.1,0.4,0.3,0.5,0.5c0.1,0.2,0.2,0.5,0.2,0.9v3.2c0,0.2,0,0.4,0,0.5s0.1,0.2,0.3,0.2c0.1,0,0.2,0,0.3-0.1v0.8
		C6.1,78.6,5.8,78.6,5.5,78.6z M4.1,75.5c-0.2,0-0.4,0.1-0.7,0.1S3,75.7,2.8,75.7s-0.4,0.1-0.6,0.2C2,76,1.8,76.1,1.7,76.2
		c-0.1,0.1-0.2,0.4-0.2,0.6c0,0.2,0,0.3,0.1,0.4c0.1,0.1,0.2,0.2,0.3,0.3s0.2,0.1,0.4,0.2c0.1,0,0.3,0,0.4,0c0.3,0,0.6,0,0.9-0.1
		c0.2-0.1,0.4-0.2,0.6-0.3c0.2-0.1,0.3-0.3,0.3-0.5s0.1-0.3,0.1-0.5v-1C4.5,75.4,4.3,75.5,4.1,75.5z"/>
</g>
<polyline fill="none" stroke="#211816" stroke-width="0.25" points="1021.8,219.6 1032.4,219.6 1032.4,100.5 1022.3,100.5 "/>
<g>
	<path d="M1044.4,160.2c-0.4,0.6-0.7,1.2-1,1.9s-0.5,1.3-0.7,2.1c-0.2,0.7-0.3,1.4-0.3,2.1h-1.1c0-0.7,0.2-1.4,0.4-2.1
		c0.2-0.7,0.4-1.3,0.7-2s0.6-1.2,1-1.8c0.4-0.6,0.8-1.1,1.3-1.5h-4.5v-1h5.5v0.9C1045.2,159.1,1044.8,159.6,1044.4,160.2z"/>
	<path d="M1051.7,166.3c-0.3,0-0.5-0.1-0.6-0.2c-0.2-0.1-0.2-0.4-0.2-0.7c-0.3,0.3-0.6,0.6-1,0.7c-0.4,0.1-0.8,0.2-1.2,0.2
		c-0.3,0-0.5,0-0.8-0.1c-0.2-0.1-0.5-0.2-0.7-0.3c-0.2-0.1-0.3-0.3-0.4-0.5c-0.1-0.2-0.2-0.5-0.2-0.8c0-0.4,0.1-0.6,0.2-0.9
		s0.3-0.4,0.5-0.5s0.4-0.2,0.7-0.3s0.5-0.1,0.8-0.2c0.3-0.1,0.5-0.1,0.8-0.1s0.5-0.1,0.7-0.1s0.3-0.1,0.5-0.2
		c0.1-0.1,0.2-0.2,0.2-0.4c0-0.2,0-0.4-0.1-0.5s-0.2-0.2-0.3-0.3c-0.1-0.1-0.3-0.1-0.4-0.1c-0.2,0-0.3,0-0.5,0
		c-0.4,0-0.8,0.1-1.1,0.2s-0.4,0.5-0.5,0.9h-1c0-0.4,0.1-0.7,0.2-1c0.1-0.3,0.3-0.5,0.6-0.6c0.2-0.2,0.5-0.3,0.8-0.4
		c0.3-0.1,0.6-0.1,1-0.1c0.3,0,0.6,0,0.8,0.1c0.3,0,0.5,0.1,0.8,0.2s0.4,0.3,0.5,0.5c0.1,0.2,0.2,0.5,0.2,0.9v3.2c0,0.2,0,0.4,0,0.5
		s0.1,0.2,0.3,0.2c0.1,0,0.2,0,0.3-0.1v0.8C1052.3,166.3,1052,166.3,1051.7,166.3z M1050.3,163.2c-0.2,0-0.4,0.1-0.7,0.1
		c-0.2,0-0.5,0.1-0.7,0.1c-0.2,0-0.4,0.1-0.6,0.2c-0.2,0.1-0.3,0.2-0.5,0.3c-0.1,0.1-0.2,0.4-0.2,0.6c0,0.2,0,0.3,0.1,0.4
		c0.1,0.1,0.2,0.2,0.3,0.3s0.2,0.1,0.4,0.2c0.1,0,0.3,0,0.5,0c0.3,0,0.6,0,0.9-0.1c0.2-0.1,0.4-0.2,0.6-0.3c0.2-0.1,0.3-0.3,0.3-0.5
		s0.1-0.3,0.1-0.5v-1C1050.7,163.1,1050.5,163.1,1050.3,163.2z"/>
</g>
<g>
	<line fill="none" stroke="#211816" stroke-width="0.25" x1="26.4" y1="66.4" x2="26.4" y2="270.5"/>
	<line fill="none" stroke="#211816" stroke-width="0.25" x1="43.4" y1="66.4" x2="43.4" y2="270.5"/>
	<line fill="none" stroke="#211816" stroke-width="0.25" x1="60.4" y1="66.4" x2="60.4" y2="270.5"/>
	<line fill="none" stroke="#211816" stroke-width="0.25" x1="179.5" y1="66.4" x2="179.5" y2="270.5"/>
	<line fill="none" stroke="#211816" stroke-width="0.25" x1="162.5" y1="66.4" x2="162.5" y2="270.5"/>
	<line fill="none" stroke="#211816" stroke-width="0.25" x1="77.4" y1="66.4" x2="77.4" y2="270.5"/>
	<line fill="none" stroke="#211816" stroke-width="0.25" x1="94.5" y1="66.4" x2="94.5" y2="270.5"/>
	<line fill="none" stroke="#211816" stroke-width="0.25" x1="111.5" y1="66.4" x2="111.5" y2="270.5"/>
	<line fill="none" stroke="#211816" stroke-width="0.25" x1="128.5" y1="66.4" x2="128.5" y2="270.5"/>
	<line fill="none" stroke="#211816" stroke-width="0.25" x1="196.5" y1="66.4" x2="196.5" y2="270.5"/>
	<line fill="none" stroke="#211816" stroke-width="0.25" x1="145.5" y1="66.4" x2="145.5" y2="270.5"/>
	<line fill="none" stroke="#211816" stroke-width="0.25" x1="213.5" y1="66.4" x2="213.5" y2="270.5"/>
	<line fill="none" stroke="#211816" stroke-width="0.25" x1="230.5" y1="66.4" x2="230.5" y2="270.5"/>
	<line fill="none" stroke="#211816" stroke-width="0.25" x1="247.5" y1="66.4" x2="247.5" y2="270.5"/>
	<line fill="none" stroke="#211816" stroke-width="0.25" x1="366.6" y1="66.4" x2="366.6" y2="270.5"/>
	<line fill="none" stroke="#211816" stroke-width="0.25" x1="349.6" y1="66.4" x2="349.6" y2="270.5"/>
	<line fill="none" stroke="#211816" stroke-width="0.25" x1="264.5" y1="66.4" x2="264.5" y2="270.5"/>
	<line fill="none" stroke="#211816" stroke-width="0.25" x1="281.5" y1="66.4" x2="281.5" y2="270.5"/>
	<line fill="none" stroke="#211816" stroke-width="0.25" x1="298.6" y1="66.4" x2="298.6" y2="270.5"/>
	<line fill="none" stroke="#211816" stroke-width="0.25" x1="315.6" y1="66.4" x2="315.6" y2="270.5"/>
	<line fill="none" stroke="#211816" stroke-width="0.25" x1="383.6" y1="66.4" x2="383.6" y2="270.5"/>
	<line fill="none" stroke="#211816" stroke-width="0.25" x1="332.6" y1="66.4" x2="332.6" y2="270.5"/>
	<line fill="none" stroke="#211816" stroke-width="0.25" x1="400.6" y1="66.4" x2="400.6" y2="270.5"/>
	<line fill="none" stroke="#211816" stroke-width="0.25" x1="417.6" y1="66.4" x2="417.6" y2="270.5"/>
	<line fill="none" stroke="#211816" stroke-width="0.25" x1="434.6" y1="66.4" x2="434.6" y2="270.5"/>
	<line fill="none" stroke="#211816" stroke-width="0.25" x1="553.7" y1="66.4" x2="553.7" y2="270.5"/>
	<line fill="none" stroke="#211816" stroke-width="0.25" x1="536.7" y1="66.4" x2="536.7" y2="270.5"/>
	<line fill="none" stroke="#211816" stroke-width="0.25" x1="451.6" y1="66.4" x2="451.6" y2="270.5"/>
	<line fill="none" stroke="#211816" stroke-width="0.25" x1="468.6" y1="66.4" x2="468.6" y2="270.5"/>
	<line fill="none" stroke="#211816" stroke-width="0.25" x1="485.6" y1="66.4" x2="485.6" y2="270.5"/>
	<line fill="none" stroke="#211816" stroke-width="0.25" x1="502.6" y1="66.4" x2="502.6" y2="270.5"/>
	<line fill="none" stroke="#211816" stroke-width="0.25" x1="570.7" y1="66.4" x2="570.7" y2="270.5"/>
	<line fill="none" stroke="#211816" stroke-width="0.25" x1="519.7" y1="66.4" x2="519.7" y2="270.5"/>
	<line fill="none" stroke="#211816" stroke-width="0.25" x1="655.7" y1="66.4" x2="655.7" y2="270.5"/>
	<line fill="none" stroke="#211816" stroke-width="0.25" x1="638.7" y1="66.4" x2="638.7" y2="270.5"/>
	<line fill="none" stroke="#211816" stroke-width="0.25" x1="587.7" y1="66.4" x2="587.7" y2="270.5"/>
	<line fill="none" stroke="#211816" stroke-width="0.25" x1="604.7" y1="66.4" x2="604.7" y2="270.5"/>
	<line fill="none" stroke="#211816" stroke-width="0.25" x1="672.7" y1="66.4" x2="672.7" y2="270.5"/>
	<line fill="none" stroke="#211816" stroke-width="0.25" x1="621.7" y1="66.4" x2="621.7" y2="270.5"/>
	<line fill="none" stroke="#211816" stroke-width="0.25" x1="689.7" y1="66.4" x2="689.7" y2="270.5"/>
	<line fill="none" stroke="#211816" stroke-width="0.25" x1="706.7" y1="66.4" x2="706.7" y2="270.5"/>
	<line fill="none" stroke="#211816" stroke-width="0.25" x1="723.7" y1="66.4" x2="723.7" y2="270.5"/>
	<line fill="none" stroke="#211816" stroke-width="0.25" x1="740.8" y1="66.4" x2="740.8" y2="270.5"/>
	<line fill="none" stroke="#211816" stroke-width="0.25" x1="757.8" y1="66.4" x2="757.8" y2="270.5"/>
	<line fill="none" stroke="#211816" stroke-width="0.25" x1="774.8" y1="66.4" x2="774.8" y2="270.5"/>
	<line fill="none" stroke="#211816" stroke-width="0.25" x1="893.8" y1="66.4" x2="893.8" y2="270.5"/>
	<line fill="none" stroke="#211816" stroke-width="0.25" x1="876.8" y1="66.4" x2="876.8" y2="270.5"/>
	<line fill="none" stroke="#211816" stroke-width="0.25" x1="791.8" y1="66.4" x2="791.8" y2="270.5"/>
	<line fill="none" stroke="#211816" stroke-width="0.25" x1="808.8" y1="66.4" x2="808.8" y2="270.5"/>
	<line fill="none" stroke="#211816" stroke-width="0.25" x1="825.8" y1="66.4" x2="825.8" y2="270.5"/>
	<line fill="none" stroke="#211816" stroke-width="0.25" x1="842.8" y1="66.4" x2="842.8" y2="270.5"/>
	<line fill="none" stroke="#211816" stroke-width="0.25" x1="910.8" y1="66.4" x2="910.8" y2="270.5"/>
	<line fill="none" stroke="#211816" stroke-width="0.25" x1="859.8" y1="66.4" x2="859.8" y2="270.5"/>
	<line fill="none" stroke="#211816" stroke-width="0.25" x1="927.8" y1="66.4" x2="927.8" y2="270.5"/>
	<line fill="none" stroke="#211816" stroke-width="0.25" x1="944.9" y1="66.4" x2="944.9" y2="270.5"/>
	<line fill="none" stroke="#211816" stroke-width="0.25" x1="978.8" y1="66.4" x2="978.8" y2="270.5"/>
	<line fill="none" stroke="#211816" stroke-width="0.25" x1="961.8" y1="66.4" x2="961.8" y2="270.5"/>
	<line fill="none" stroke="#211816" stroke-width="0.25" x1="995.8" y1="66.4" x2="995.8" y2="270.5"/>
	<line fill="none" stroke="#211816" stroke-width="0.25" x1="1012.8" y1="66.4" x2="1012.8" y2="270.5"/>
</g>
<g>
	<line fill="none" stroke="#211816" stroke-width="0.25" x1="26.4" y1="219.5" x2="1012.9" y2="219.5"/>
	<line fill="none" stroke="#211816" stroke-width="0.25" x1="26.4" y1="236.5" x2="1012.9" y2="236.5"/>
	<line fill="none" stroke="#211816" stroke-width="0.25" x1="26.4" y1="270.5" x2="1012.9" y2="270.5"/>
	<line fill="none" stroke="#211816" stroke-width="0.25" x1="26.4" y1="202.5" x2="1012.9" y2="202.5"/>
	<line fill="none" stroke="#211816" stroke-width="0.25" x1="26.4" y1="253.5" x2="1012.9" y2="253.5"/>
	<line fill="none" stroke="#211816" stroke-width="0.25" x1="26.4" y1="117.4" x2="1012.9" y2="117.4"/>
	<line fill="none" stroke="#211816" stroke-width="0.25" x1="26.4" y1="134.4" x2="1012.9" y2="134.4"/>
	<line fill="none" stroke="#211816" stroke-width="0.25" x1="26.4" y1="185.5" x2="1012.9" y2="185.5"/>
	<line fill="none" stroke="#211816" stroke-width="0.25" x1="26.4" y1="168.5" x2="1012.9" y2="168.5"/>
	<line fill="none" stroke="#211816" stroke-width="0.25" x1="26.4" y1="100.4" x2="1012.9" y2="100.4"/>
	<line fill="none" stroke="#211816" stroke-width="0.25" x1="26.4" y1="151.5" x2="1012.9" y2="151.5"/>
	<line fill="none" stroke="#211816" stroke-width="0.25" x1="26.4" y1="83.4" x2="1012.9" y2="83.4"/>
	<line fill="none" stroke="#211816" stroke-width="0.25" x1="26.4" y1="66.4" x2="1012.9" y2="66.4"/>
</g>
<g>
	<line fill="none" stroke="#D8413C" stroke-width="0.25" x1="77.4" y1="100.4" x2="77.4" y2="219.5"/>
	<line fill="none" stroke="#D8413C" stroke-width="0.25" x1="86" y1="100.4" x2="86" y2="219.5"/>
	<line fill="none" stroke="#D8413C" stroke-width="0.25" x1="94.5" y1="100.4" x2="94.5" y2="219.5"/>
	<line fill="none" stroke="#D8413C" stroke-width="0.25" x1="103" y1="100.4" x2="103" y2="219.5"/>
	<line fill="none" stroke="#D8413C" stroke-width="0.25" x1="111.5" y1="100.4" x2="111.5" y2="219.5"/>
	<line fill="none" stroke="#D8413C" stroke-width="0.25" x1="120" y1="100.4" x2="120" y2="219.5"/>
	<line fill="none" stroke="#D8413C" stroke-width="0.25" x1="128.5" y1="100.4" x2="128.5" y2="219.5"/>
	<line fill="none" stroke="#D8413C" stroke-width="0.25" x1="137" y1="100.4" x2="137" y2="219.5"/>
	<line fill="none" stroke="#D8413C" stroke-width="0.25" x1="145.5" y1="100.4" x2="145.5" y2="219.5"/>
	<line fill="none" stroke="#D8413C" stroke-width="0.25" x1="154" y1="100.4" x2="154" y2="219.5"/>
	<line fill="none" stroke="#D8413C" stroke-width="0.25" x1="162.5" y1="100.4" x2="162.5" y2="219.5"/>
	<line fill="none" stroke="#D8413C" stroke-width="0.25" x1="171" y1="100.4" x2="171" y2="219.5"/>
	<line fill="none" stroke="#D8413C" stroke-width="0.25" x1="179.5" y1="100.4" x2="179.5" y2="219.5"/>
	<line fill="none" stroke="#D8413C" stroke-width="0.25" x1="188" y1="100.4" x2="188" y2="219.5"/>
	<line fill="none" stroke="#D8413C" stroke-width="0.25" x1="196.5" y1="100.4" x2="196.5" y2="219.5"/>
	<line fill="none" stroke="#D8413C" stroke-width="0.25" x1="205" y1="100.4" x2="205" y2="219.5"/>
	<line fill="none" stroke="#D8413C" stroke-width="0.25" x1="213.5" y1="100.4" x2="213.5" y2="219.5"/>
	<line fill="none" stroke="#D8413C" stroke-width="0.25" x1="222" y1="100.4" x2="222" y2="219.5"/>
	<line fill="none" stroke="#D8413C" stroke-width="0.25" x1="230.5" y1="100.4" x2="230.5" y2="219.5"/>
	<line fill="none" stroke="#D8413C" stroke-width="0.25" x1="239" y1="100.4" x2="239" y2="219.5"/>
	<line fill="none" stroke="#D8413C" stroke-width="0.25" x1="247.5" y1="100.4" x2="247.5" y2="219.5"/>
	<line fill="none" stroke="#D8413C" stroke-width="0.25" x1="256" y1="100.4" x2="256" y2="219.5"/>
	<line fill="none" stroke="#D8413C" stroke-width="0.25" x1="264.5" y1="100.4" x2="264.5" y2="219.5"/>
	<line fill="none" stroke="#D8413C" stroke-width="0.25" x1="273" y1="100.4" x2="273" y2="219.5"/>
	<line fill="none" stroke="#D8413C" stroke-width="0.25" x1="281.5" y1="100.4" x2="281.5" y2="219.5"/>
	<line fill="none" stroke="#D8413C" stroke-width="0.25" x1="290" y1="100.4" x2="290" y2="219.5"/>
	<line fill="none" stroke="#D8413C" stroke-width="0.25" x1="298.6" y1="100.4" x2="298.6" y2="219.5"/>
	<line fill="none" stroke="#D8413C" stroke-width="0.25" x1="307.1" y1="100.4" x2="307.1" y2="219.5"/>
	<line fill="none" stroke="#D8413C" stroke-width="0.25" x1="315.6" y1="100.4" x2="315.6" y2="219.5"/>
	<line fill="none" stroke="#D8413C" stroke-width="0.25" x1="324.1" y1="100.4" x2="324.1" y2="219.5"/>
	<line fill="none" stroke="#D8413C" stroke-width="0.25" x1="332.6" y1="100.4" x2="332.6" y2="219.5"/>
	<line fill="none" stroke="#D8413C" stroke-width="0.25" x1="341.1" y1="100.4" x2="341.1" y2="219.5"/>
	<line fill="none" stroke="#D8413C" stroke-width="0.25" x1="349.6" y1="100.4" x2="349.6" y2="219.5"/>
	<line fill="none" stroke="#D8413C" stroke-width="0.25" x1="358.1" y1="100.4" x2="358.1" y2="219.5"/>
	<line fill="none" stroke="#D8413C" stroke-width="0.25" x1="366.6" y1="100.4" x2="366.6" y2="219.5"/>
	<line fill="none" stroke="#D8413C" stroke-width="0.25" x1="375.1" y1="100.4" x2="375.1" y2="219.5"/>
	<line fill="none" stroke="#D8413C" stroke-width="0.25" x1="383.6" y1="100.4" x2="383.6" y2="219.5"/>
	<line fill="none" stroke="#D8413C" stroke-width="0.25" x1="392.1" y1="100.4" x2="392.1" y2="219.5"/>
	<line fill="none" stroke="#D8413C" stroke-width="0.25" x1="400.6" y1="100.4" x2="400.6" y2="219.5"/>
	<line fill="none" stroke="#D8413C" stroke-width="0.25" x1="409.1" y1="100.4" x2="409.1" y2="219.5"/>
	<line fill="none" stroke="#D8413C" stroke-width="0.25" x1="417.6" y1="100.4" x2="417.6" y2="219.5"/>
	<line fill="none" stroke="#D8413C" stroke-width="0.25" x1="426.1" y1="100.4" x2="426.1" y2="219.5"/>
	<line fill="none" stroke="#D8413C" stroke-width="0.25" x1="434.6" y1="100.4" x2="434.6" y2="219.5"/>
	<line fill="none" stroke="#D8413C" stroke-width="0.25" x1="443.1" y1="100.4" x2="443.1" y2="219.5"/>
	<line fill="none" stroke="#D8413C" stroke-width="0.25" x1="451.6" y1="100.4" x2="451.6" y2="219.5"/>
	<line fill="none" stroke="#D8413C" stroke-width="0.25" x1="460.1" y1="100.4" x2="460.1" y2="219.5"/>
	<line fill="none" stroke="#D8413C" stroke-width="0.25" x1="468.6" y1="100.4" x2="468.6" y2="219.5"/>
	<line fill="none" stroke="#D8413C" stroke-width="0.25" x1="477.1" y1="100.4" x2="477.1" y2="219.5"/>
	<line fill="none" stroke="#D8413C" stroke-width="0.25" x1="485.6" y1="100.4" x2="485.6" y2="219.5"/>
	<line fill="none" stroke="#D8413C" stroke-width="0.25" x1="494.1" y1="100.4" x2="494.1" y2="219.5"/>
	<line fill="none" stroke="#D8413C" stroke-width="0.25" x1="502.6" y1="100.4" x2="502.6" y2="219.5"/>
	<line fill="none" stroke="#D8413C" stroke-width="0.25" x1="511.2" y1="100.4" x2="511.2" y2="219.5"/>
	<line fill="none" stroke="#D8413C" stroke-width="0.25" x1="519.7" y1="100.4" x2="519.7" y2="219.5"/>
	<line fill="none" stroke="#D8413C" stroke-width="0.25" x1="528.2" y1="100.4" x2="528.2" y2="219.5"/>
	<line fill="none" stroke="#D8413C" stroke-width="0.25" x1="536.7" y1="100.4" x2="536.7" y2="219.5"/>
	<line fill="none" stroke="#D8413C" stroke-width="0.25" x1="545.2" y1="100.4" x2="545.2" y2="219.5"/>
	<line fill="none" stroke="#D8413C" stroke-width="0.25" x1="553.7" y1="100.4" x2="553.7" y2="219.5"/>
	<line fill="none" stroke="#D8413C" stroke-width="0.25" x1="562.2" y1="100.4" x2="562.2" y2="219.5"/>
	<line fill="none" stroke="#D8413C" stroke-width="0.25" x1="570.7" y1="100.4" x2="570.7" y2="219.5"/>
	<line fill="none" stroke="#D8413C" stroke-width="0.25" x1="579.2" y1="100.4" x2="579.2" y2="219.5"/>
	<line fill="none" stroke="#D8413C" stroke-width="0.25" x1="587.7" y1="100.4" x2="587.7" y2="219.5"/>
	<line fill="none" stroke="#D8413C" stroke-width="0.25" x1="596.2" y1="100.4" x2="596.2" y2="219.5"/>
	<line fill="none" stroke="#D8413C" stroke-width="0.25" x1="604.7" y1="100.4" x2="604.7" y2="219.5"/>
	<line fill="none" stroke="#D8413C" stroke-width="0.25" x1="613.2" y1="100.4" x2="613.2" y2="219.5"/>
	<line fill="none" stroke="#D8413C" stroke-width="0.25" x1="621.7" y1="100.4" x2="621.7" y2="219.5"/>
	<line fill="none" stroke="#D8413C" stroke-width="0.25" x1="630.2" y1="100.4" x2="630.2" y2="219.5"/>
	<line fill="none" stroke="#D8413C" stroke-width="0.25" x1="638.7" y1="100.4" x2="638.7" y2="219.5"/>
	<line fill="none" stroke="#D8413C" stroke-width="0.25" x1="647.2" y1="100.4" x2="647.2" y2="219.5"/>
	<line fill="none" stroke="#D8413C" stroke-width="0.25" x1="655.7" y1="100.4" x2="655.7" y2="219.5"/>
	<line fill="none" stroke="#D8413C" stroke-width="0.25" x1="664.2" y1="100.4" x2="664.2" y2="219.5"/>
	<line fill="none" stroke="#D8413C" stroke-width="0.25" x1="672.7" y1="100.4" x2="672.7" y2="219.5"/>
	<line fill="none" stroke="#D8413C" stroke-width="0.25" x1="681.2" y1="100.4" x2="681.2" y2="219.5"/>
	<line fill="none" stroke="#D8413C" stroke-width="0.25" x1="689.7" y1="100.4" x2="689.7" y2="219.5"/>
	<line fill="none" stroke="#D8413C" stroke-width="0.25" x1="698.2" y1="100.4" x2="698.2" y2="219.5"/>
	<line fill="none" stroke="#D8413C" stroke-width="0.25" x1="706.7" y1="100.4" x2="706.7" y2="219.5"/>
	<line fill="none" stroke="#D8413C" stroke-width="0.25" x1="715.2" y1="100.4" x2="715.2" y2="219.5"/>
	<line fill="none" stroke="#D8413C" stroke-width="0.25" x1="723.7" y1="100.4" x2="723.7" y2="219.5"/>
	<line fill="none" stroke="#D8413C" stroke-width="0.25" x1="732.3" y1="100.4" x2="732.3" y2="219.5"/>
	<line fill="none" stroke="#D8413C" stroke-width="0.25" x1="740.8" y1="100.4" x2="740.8" y2="219.5"/>
	<line fill="none" stroke="#D8413C" stroke-width="0.25" x1="749.3" y1="100.4" x2="749.3" y2="219.5"/>
	<line fill="none" stroke="#D8413C" stroke-width="0.25" x1="757.8" y1="100.4" x2="757.8" y2="219.5"/>
	<line fill="none" stroke="#D8413C" stroke-width="0.25" x1="766.3" y1="100.4" x2="766.3" y2="219.5"/>
	<line fill="none" stroke="#D8413C" stroke-width="0.25" x1="774.8" y1="100.4" x2="774.8" y2="219.5"/>
	<line fill="none" stroke="#D8413C" stroke-width="0.25" x1="783.3" y1="100.4" x2="783.3" y2="219.5"/>
	<line fill="none" stroke="#D8413C" stroke-width="0.25" x1="791.8" y1="100.4" x2="791.8" y2="219.5"/>
	<line fill="none" stroke="#D8413C" stroke-width="0.25" x1="800.3" y1="100.4" x2="800.3" y2="219.5"/>
	<line fill="none" stroke="#D8413C" stroke-width="0.25" x1="808.8" y1="100.4" x2="808.8" y2="219.5"/>
	<line fill="none" stroke="#D8413C" stroke-width="0.25" x1="817.3" y1="100.4" x2="817.3" y2="219.5"/>
	<line fill="none" stroke="#D8413C" stroke-width="0.25" x1="825.8" y1="100.4" x2="825.8" y2="219.5"/>
	<line fill="none" stroke="#D8413C" stroke-width="0.25" x1="834.3" y1="100.4" x2="834.3" y2="219.5"/>
	<line fill="none" stroke="#D8413C" stroke-width="0.25" x1="842.8" y1="100.4" x2="842.8" y2="219.5"/>
	<line fill="none" stroke="#D8413C" stroke-width="0.25" x1="851.3" y1="100.4" x2="851.3" y2="219.5"/>
	<line fill="none" stroke="#D8413C" stroke-width="0.25" x1="859.8" y1="100.4" x2="859.8" y2="219.5"/>
	<line fill="none" stroke="#D8413C" stroke-width="0.25" x1="868.3" y1="100.4" x2="868.3" y2="219.5"/>
	<line fill="none" stroke="#D8413C" stroke-width="0.25" x1="876.8" y1="100.4" x2="876.8" y2="219.5"/>
	<line fill="none" stroke="#D8413C" stroke-width="0.25" x1="885.3" y1="100.4" x2="885.3" y2="219.5"/>
	<line fill="none" stroke="#D8413C" stroke-width="0.25" x1="893.8" y1="100.4" x2="893.8" y2="219.5"/>
	<line fill="none" stroke="#D8413C" stroke-width="0.25" x1="902.3" y1="100.4" x2="902.3" y2="219.5"/>
	<line fill="none" stroke="#D8413C" stroke-width="0.25" x1="910.8" y1="100.4" x2="910.8" y2="219.5"/>
	<line fill="none" stroke="#D8413C" stroke-width="0.25" x1="919.3" y1="100.4" x2="919.3" y2="219.5"/>
	<line fill="none" stroke="#D8413C" stroke-width="0.25" x1="927.8" y1="100.4" x2="927.8" y2="219.5"/>
	<line fill="none" stroke="#D8413C" stroke-width="0.25" x1="936.3" y1="100.4" x2="936.3" y2="219.5"/>
	<line fill="none" stroke="#D8413C" stroke-width="0.25" x1="944.9" y1="100.4" x2="944.9" y2="219.5"/>
	<line fill="none" stroke="#D8413C" stroke-width="0.25" x1="953.3" y1="100.4" x2="953.3" y2="219.5"/>
	<line fill="none" stroke="#D8413C" stroke-width="0.25" x1="961.8" y1="100.4" x2="961.8" y2="219.5"/>
</g>
<g>
	<line fill="none" stroke="#D8413C" stroke-width="0.25" x1="77.4" y1="211" x2="961.8" y2="211"/>
	<line fill="none" stroke="#D8413C" stroke-width="0.25" x1="77.4" y1="219.5" x2="961.8" y2="219.5"/>
	<line fill="none" stroke="#D8413C" stroke-width="0.25" x1="77.4" y1="202.5" x2="961.8" y2="202.5"/>
	<line fill="none" stroke="#D8413C" stroke-width="0.25" x1="77.4" y1="194" x2="961.8" y2="194"/>
	<line fill="none" stroke="#D8413C" stroke-width="0.25" x1="77.4" y1="185.5" x2="961.8" y2="185.5"/>
	<line fill="none" stroke="#D8413C" stroke-width="0.25" x1="77.4" y1="177" x2="961.8" y2="177"/>
	<line fill="none" stroke="#D8413C" stroke-width="0.25" x1="77.4" y1="168.5" x2="961.8" y2="168.5"/>
	<line fill="none" stroke="#D8413C" stroke-width="0.25" x1="77.4" y1="160" x2="961.8" y2="160"/>
	<line fill="none" stroke="#D8413C" stroke-width="0.25" x1="77.4" y1="151.5" x2="961.8" y2="151.5"/>
	<line fill="none" stroke="#D8413C" stroke-width="0.25" x1="77.4" y1="143" x2="961.8" y2="143"/>
	<line fill="none" stroke="#D8413C" stroke-width="0.25" x1="77.4" y1="134.5" x2="961.8" y2="134.5"/>
	<line fill="none" stroke="#D8413C" stroke-width="0.25" x1="77.4" y1="126" x2="961.8" y2="126"/>
	<line fill="none" stroke="#D8413C" stroke-width="0.25" x1="77.4" y1="117.5" x2="961.8" y2="117.5"/>
	<line fill="none" stroke="#D8413C" stroke-width="0.25" x1="77.4" y1="109" x2="961.8" y2="109"/>
	<line fill="none" stroke="#D8413C" stroke-width="0.25" x1="77.4" y1="100.5" x2="961.8" y2="100.5"/>
</g>
<polyline fill-rule="evenodd" clip-rule="evenodd" fill="none" stroke="#000000" stroke-width="0.25" points="77.4,279.5 
	77.4,287.6 954.5,287.6 954.5,279.5 "/>
<g>
	<g>
		<g>
			<path fill="#666666" d="M525.9,157h5.7c5.7,0.2,8.4-2.4,8.2-7.7v-15.7h7.5v-3.4h-7.5v-6.8H535v6.8h-23.2v-6.8H507v6.8h-6.6v3.4
				h6.6V157h14.1v8.3h-21.7v3.4h12.9c-0.8,7.8-4.5,14-11,18.5v3.1c8.8-4.3,14-11.5,15.7-21.6h4.1V194h4.7v-25.3h4.1
				c1.5,10.1,7.1,17.3,17,21.6v-3.1c-7.3-4.5-11.5-10.7-12.6-18.5h13.5v-3.4h-22V157z M511.7,133.6H535v8.3h-23.2V133.6z
				 M511.7,153.6V145H535v4.3c0.2,3.1-1.3,4.5-4.4,4.3H511.7z M489.4,181.4c4.8-5.3,7.1-14.1,6.9-26.2v-17.6h3.1v-3.1h-3.1v-10.8
				H492v10.8h-9.4v-10.8h-4.4v10.8h-3.8v3.1h3.8v17.6c-0.2,11.9,2,20.7,6.6,26.2c-1.7,2.3-5.3,5.2-11,8.9v3.4
				c5.7-3.5,10.2-6.7,13.5-9.6c3.1,2.9,7.3,6.1,12.6,9.6v-3.4C495.4,187.2,492,184.3,489.4,181.4z M482.5,155.5v-17.9h9.4v17.9
				c0.2,10.5-1.4,18.1-4.7,22.8C483.9,173.2,482.3,165.5,482.5,155.5z M574,123.1c-2.1,11.5-8,20.2-17.6,25.9v3.1
				c4.6-2.3,8.1-4.4,10.4-6.5V194h5v-53.4c2.7-3.5,5.1-9.4,7.2-17.6H574z M627.1,138.5v-3.4h-22v-12h-5v12h-21v3.4h8.2
				c0,14.8-3.7,27.9-11,39.2v5.2c10.3-12.1,15.5-26.9,15.7-44.4h8.2v36.4h-13.8v3.1h13.8v15.7h5V178H618v-3.1h-12.9v-36.4h7.9
				c0.2,17.9,5.4,32.6,15.7,44.1v-4.9c-7.1-10.7-10.7-23.8-10.7-39.2H627.1z M641.1,192.5h5.3c4.2-8.6,6.9-18.6,8.2-29.9h-4.1
				C649,173.5,645.9,183.4,641.1,192.5z M712.3,182.6h-3.5v2.2c0.2,2.9-1.3,4.2-4.4,4c-4.2,0.2-6.1-1.1-5.7-4v-24.7h-4.4v24.1
				c-0.2,5.6,2.6,8.2,8.5,8h1.9c5.2,0.2,7.7-2.2,7.5-7.1V182.6z M653.9,139.7c-1.3-4.7-3.6-9.9-6.9-15.4h-4.4
				c2.9,4.9,5.2,10.1,6.9,15.4H653.9z M660.8,152.1v4h5.3c13.4,0,25-1,34.9-3.1c0.2,0.4,0.5,1.2,0.9,2.5c0.4,1,0.7,1.9,0.9,2.5h4.7
				c-2.1-6.2-4.7-11.8-7.9-17h-4.4c0.2,0.6,0.3,0.8,0.3,0.6c2.1,3.9,3.6,6.8,4.4,8.6c-8,1.2-19.4,1.9-34.2,1.9
				c6.5-5.3,11.2-11.4,14.1-18.2h29.5v-3.1h-22.3v-7.7h-4.7v7.7h-23.9v3.1h16C671.1,141.1,666.5,147.1,660.8,152.1z M669.6,160.4
				h-4.4v11.7c0.2,8-2.6,14.2-8.5,18.5v3.4c9-4.9,13.3-12.3,12.9-22.2V160.4z M643.3,143.1c3.1,5.4,5.3,10.6,6.6,15.7h4.7
				c-1.9-6-4.2-11.2-6.9-15.7H643.3z M680.3,192.5h4.4v-32.4h-4.4V192.5z M786.6,136.6v-10.2h-57.2v17h48.7
				C784,143.6,786.8,141.4,786.6,136.6z M734.1,129.2h47.7v4.3h-47.7V129.2z M734.1,140.7v-4.3h47.7v0.3c0.2,2.7-1.3,4-4.4,4H734.1z
				 M794.4,147.8h-72.9v3.1h72.9V147.8z M760.5,183.5h28.9v-2.8h-28.9v-5.9h17c5.9,0,8.7-2.3,8.5-6.8v-13h-55.9v19.7h25.4v5.9h-28.9
				v2.8h28.9v5.2h-33.9v3.1h73.2v-3.1h-34.2V183.5z M760.5,157.9h20.4v5.6h-20.4V157.9z M760.5,166.3h20.4v1.9
				c0.2,2.9-1.2,4.2-4.1,4h-16.3V166.3z M755.5,172.1h-20.4v-5.9h20.4V172.1z M755.5,163.5h-20.4v-5.6h20.4V163.5z M860.8,155.8
				c2.5-4.5,4.7-10.6,6.6-18.2h-5.7c-0.8,6.2-2.7,12.2-5.7,18.2H860.8z M819,137.6h-5.7c1.9,7.6,4.1,13.7,6.6,18.2h4.7
				C821.8,149.8,819.9,143.7,819,137.6z M842.9,129.9h30.5v-3.4h-65.3v3.4h29.8v33.6h-33.6v3.4h33.6v27.5h5v-27.5h33.6v-3.4h-33.6
				V129.9z M947.3,149.6c0.6,1.9,1.3,3.8,1.9,5.9h5.3c-3.1-8.2-7.2-15.8-12.2-22.8h-4.7c3.3,5.1,6.1,9.7,8.2,13.6
				c-12.8,1.2-29.2,1.9-49.3,1.9c8.2-6.8,15.4-15.1,21.7-25h-6.3c-4.8,8.8-11.7,17.2-20.7,25v3.7h7.9
				C915.7,151.8,931.8,151,947.3,149.6z M895.8,191.6h43.7c7.1,0.2,10.6-2.7,10.4-8.6v-22.2h-54V191.6z M900.8,164.1h44v18.5
				c0.2,3.9-1.8,5.8-6,5.6h-38V164.1z"/>
		</g>
	</g>
	<rect x="440.3" y="100.4" fill-rule="evenodd" clip-rule="evenodd" fill="#CBCBCB" width="2.2" height="119.1"/>
	<g>
		<g id="形状_2_copy_3_副本_4_34_">
			<g>
				<path fill-rule="evenodd" clip-rule="evenodd" fill="#CCCCCC" d="M95.7,183.1c-6.2,12.2-11.8,23-18.2,35.8h8.7
					c1.6-3,2.5-4.9,4.5-8.5c4.6,0,8,0,12.6,0c-0.9-2.7-1.6-4.7-2.3-6.8H94c2.1-4.1,3.2-6.4,6.3-11.9c3.2,9.4,6.6,18.7,9.7,27.3h8
					c-4.5-12.5-8.3-23.4-12.5-35.8H95.7z M119.9,218.9h7.6l1.6-35.8l-7.5,0L119.9,218.9z M131.8,218.9h8l1-26.7h-7.7L131.8,218.9z
					 M133.5,183.1l-0.2,5.7c0,0,5.8,0,7.5,0l0.3-5.7C134.3,183.1,134.2,183.1,133.5,183.1z M182.3,192.3c-1.3-0.5-2.8-0.7-4.3-0.7
					c-0.9,0-1.8,0.1-2.6,0.2c-0.8,0.2-1.6,0.4-2.2,0.7c-0.7,0.3-1.3,0.7-1.8,1.1c-0.5,0.4-1,0.9-1.3,1.3c-0.3,0.4-0.7,0.9-1.1,1.5
					c-0.3-0.8-0.7-1.5-1-1.9c-0.3-0.4-0.7-0.8-1.1-1.2c-0.4-0.3-0.9-0.7-1.6-0.9c-0.6-0.3-1.3-0.5-2-0.6c-0.7-0.1-1.5-0.2-2.3-0.2
					c-1.1,0-2.1,0.1-3.1,0.4c-1,0.3-1.9,0.6-2.6,1c-0.7,0.4-1.3,0.9-1.8,1.4c-0.5,0.5-1,1.2-1.5,2l0.2-4.2h-7.1l-1.2,26.7
					c0,0,5.9,0,7.5,0c0-2.3,0.1-5.4,0.3-9.3c0.2-3.9,0.5-6.5,0.9-7.9c0.4-1.3,1.1-2.4,2-3.2c0.9-0.8,2-1.2,3.2-1.2
					c0.7,0,1.3,0.1,1.8,0.3c0.5,0.2,1,0.6,1.3,1.1c0.4,0.5,0.6,1,0.8,1.5c0.1,0.5,0.2,1.2,0.2,2c0,1.4-0.1,4.3-0.3,8.4
					c-0.2,4.2-0.4,6.9-0.5,8.3c1.6,0,6.1,0,7.5,0l0.2-7.3c0.1-2.6,0.2-4.7,0.3-6.3c0.1-1.6,0.4-2.8,0.7-3.7c0.3-0.9,0.7-1.7,1.3-2.3
					c0.6-0.7,1.1-1.2,1.8-1.5c0.6-0.3,1.4-0.4,2.1-0.4c0.8,0,1.4,0.1,2,0.4c0.6,0.3,1.1,0.7,1.5,1.4c0.4,0.6,0.6,1.6,0.6,2.8
					c0,1.1,0,2.3-0.1,3.9l-0.3,6c-0.1,2.5-0.3,4.8-0.5,7.1c1.6,0,6.2,0,7.5,0c0-2,0.1-4.9,0.3-8.5c0.2-3.7,0.3-6.3,0.4-8
					c0.1-1.6,0.2-2.9,0.2-3.7c0-1.6-0.4-2.9-1.2-4C184.7,193.6,183.6,192.8,182.3,192.3z M210.6,192.2c-1.6-0.4-3.4-0.7-5.3-0.7
					c-1.7,0-3.5,0.1-5.3,0.3c-1.8,0.2-6.3,1.2-6.3,1.2l-0.8,5c0,0,7.4-2.3,10.6-2.3c0.9,0,1.6,0.1,2.4,0.3c0.7,0.2,1.3,0.5,1.7,1
					c0.4,0.5,0.7,1,0.7,1.7c0,0.4-0.1,0.7-0.2,1c-0.2,0.3-0.4,0.6-0.7,1c-0.3,0.3-0.7,0.6-1.1,0.7c-0.4,0.2-1,0.4-1.7,0.6
					c-0.7,0.2-1.4,0.4-2.1,0.5c-2.5,0.5-4.5,1.1-6.1,1.6c-1.5,0.5-2.7,1.1-3.5,1.6c-0.8,0.6-1.5,1.2-2,1.8c-0.5,0.6-0.9,1.3-1.2,2
					c-0.3,0.7-0.4,1.5-0.4,2.2c0,1.3,0.3,2.6,1,3.9c0.7,1.3,1.7,2.2,3.1,2.8c1.4,0.6,3.2,0.9,5.4,0.9c0.6,0,1.3,0,2.1-0.1
					c0.7,0,1.7-0.2,3-0.4c0.5-2,0.9-3.5,1.3-4.5c-1.1,0.4-1.9,0.6-2.5,0.7c-0.6,0.1-1.2,0.1-1.8,0.1c-0.9,0-1.6-0.1-2.3-0.3
					c-0.6-0.2-1.2-0.6-1.6-1.1c-0.4-0.5-0.6-1.2-0.6-1.9c0-0.4,0.1-0.9,0.3-1.3c0.2-0.4,0.4-0.8,0.8-1.1c0.4-0.4,0.8-0.7,1.4-1
					c0.5-0.3,1.1-0.5,1.8-0.8c0.7-0.2,1.6-0.5,2.7-0.8c1.1-0.3,1.9-0.5,2.3-0.7c0.4-0.1,0.8-0.3,1.2-0.5c0.4-0.2,0.9-0.5,1.5-0.9
					l-0.9,13.9h7.5c0,0,0.2-8.6,0.5-12.7c0.3-4.1,0.4-6.6,0.4-7.6c0-1.8-0.5-3.3-1.4-4.2C213.5,193.4,212.3,192.7,210.6,192.2z
					 M257.6,192.3c-1.3-0.5-2.8-0.7-4.3-0.7c-0.9,0-1.8,0.1-2.6,0.2c-0.8,0.2-1.6,0.4-2.3,0.7c-0.7,0.3-1.3,0.7-1.8,1.1
					c-0.5,0.4-1,0.9-1.3,1.3c-0.3,0.4-0.7,0.9-1.1,1.5c-0.4-0.8-0.7-1.5-1-1.9c-0.3-0.4-0.7-0.8-1.1-1.2c-0.4-0.3-0.9-0.7-1.6-0.9
					c-0.6-0.3-1.3-0.5-2-0.6c-0.7-0.1-1.5-0.2-2.3-0.2c-1.1,0-2.1,0.1-3.1,0.4c-1,0.3-1.9,0.6-2.6,1c-0.7,0.4-1.3,0.9-1.8,1.4
					c-0.5,0.5-1,1.2-1.5,2l0.2-4.2h-7.1l-1.2,26.7h7.5c0,0,0.1-5.4,0.3-9.3c0.2-3.9,0.5-6.5,0.9-7.9c0.4-1.3,1.1-2.4,2-3.2
					c0.9-0.8,2-1.2,3.2-1.2c0.7,0,1.2,0.1,1.8,0.3c0.5,0.2,0.9,0.6,1.3,1.1c0.4,0.5,0.6,1,0.7,1.5c0.1,0.5,0.2,1.2,0.2,2
					c0,1.4-0.1,4.3-0.3,8.4c-0.2,4.2-0.4,6.9-0.5,8.3c1.6,0,6.1,0,7.5,0l0.2-7.3c0.1-2.6,0.2-4.7,0.3-6.3c0.1-1.6,0.4-2.8,0.7-3.7
					c0.3-0.9,0.7-1.7,1.3-2.3c0.6-0.7,1.2-1.2,1.8-1.5c0.6-0.3,1.4-0.4,2.1-0.4c0.8,0,1.4,0.1,2,0.4c0.6,0.3,1.1,0.7,1.5,1.4
					c0.4,0.6,0.6,1.6,0.6,2.8c0,1.1,0,2.3-0.1,3.9l-0.3,6c-0.1,2.5-0.3,4.8-0.4,7.1c1.6,0,6.2,0,7.5,0c0-2,0.1-4.9,0.3-8.5
					c0.2-3.7,0.3-6.3,0.4-8c0.1-1.6,0.2-2.9,0.2-3.7c0-1.6-0.4-2.9-1.2-4C260,193.6,258.9,192.8,257.6,192.3z M285.9,192.2
					c-1.6-0.4-3.4-0.7-5.3-0.7c-1.7,0-3.5,0.1-5.3,0.3c-1.8,0.2-6.3,1.2-6.3,1.2l-0.8,5c0,0,7.4-2.3,10.6-2.3c0.9,0,1.6,0.1,2.4,0.3
					c0.7,0.2,1.3,0.5,1.7,1c0.4,0.5,0.7,1,0.7,1.7c0,0.4-0.1,0.7-0.2,1c-0.1,0.3-0.4,0.6-0.7,1c-0.3,0.3-0.7,0.6-1.1,0.7
					c-0.4,0.2-1,0.4-1.7,0.6c-0.7,0.2-1.4,0.4-2.1,0.5c-2.5,0.5-4.5,1.1-6.1,1.6c-1.5,0.5-2.7,1.1-3.5,1.6c-0.8,0.6-1.5,1.2-2,1.8
					c-0.5,0.6-0.9,1.3-1.2,2c-0.3,0.7-0.4,1.5-0.4,2.2c0,1.3,0.3,2.6,1,3.9c0.7,1.3,1.7,2.2,3.1,2.8c1.4,0.6,3.2,0.9,5.5,0.9
					c0.6,0,1.3,0,2.1-0.1c0.7,0,1.7-0.2,3-0.4c0.5-2,0.9-3.5,1.3-4.5c-1.1,0.4-1.9,0.6-2.5,0.7c-0.6,0.1-1.2,0.1-1.8,0.1
					c-0.9,0-1.6-0.1-2.3-0.3c-0.6-0.2-1.2-0.6-1.6-1.1c-0.4-0.5-0.6-1.2-0.6-1.9c0-0.4,0.1-0.9,0.2-1.3c0.2-0.4,0.4-0.8,0.8-1.1
					c0.4-0.4,0.8-0.7,1.4-1c0.5-0.3,1.1-0.5,1.8-0.8c0.7-0.2,1.6-0.5,2.7-0.8c1.1-0.3,1.9-0.5,2.3-0.7c0.4-0.1,0.8-0.3,1.2-0.5
					c0.3-0.2,0.9-0.5,1.5-0.9l-0.9,13.9h7.5c0,0,0.2-8.6,0.5-12.7c0.3-4.1,0.4-6.6,0.4-7.6c0-1.8-0.5-3.3-1.4-4.2
					C288.8,193.4,287.6,192.7,285.9,192.2z M294.4,211.8c-0.1,3.4-0.2,5.8-0.3,7.1c2.5,0,7.4,0,7.4,0s0.3-5.8,0.4-7.1
					C299.9,211.9,294.4,211.8,294.4,211.8z M313.9,199.5c0.8-0.9,1.7-1.5,2.7-1.9c1.1-0.4,2.2-0.6,3.4-0.6c1.9,0,4.2,0.4,6.8,1.3
					l-0.4-5.8c-1.7-0.4-3.1-0.7-4.3-0.8c-1.2-0.1-2.4-0.2-3.5-0.2c-2.1,0-3.9,0.2-5.6,0.7c-1.7,0.5-3.2,1.3-4.6,2.6
					c-1.4,1.3-2.4,2.9-3.1,5c-0.7,2-1.1,4.1-1.1,6.4c0,1.7,0.2,3.3,0.6,4.8c0.4,1.6,1.1,2.9,1.9,4c0.9,1.1,1.9,2,3,2.7
					c1.1,0.7,2.4,1.1,3.7,1.4c1.3,0.3,2.7,0.4,4.1,0.4c2.4,0,4.9-0.3,7.4-0.9c0.2-1.3,0.4-2.5,0.6-3.4c0.2-0.9,0.3-1.7,0.4-2.4
					c-1.3,0.5-2.5,0.8-3.6,1c-1.1,0.2-2.1,0.3-2.9,0.3c-1.6,0-3.1-0.3-4.3-1c-1.3-0.7-2.1-1.6-2.7-2.8c-0.5-1.2-0.8-2.7-0.8-4.3
					c0-1.2,0.2-2.4,0.5-3.5C312.6,201.4,313.1,200.4,313.9,199.5z M354,195.2c-1.3-1.2-2.9-2.1-4.7-2.7c-1.9-0.6-3.8-0.9-5.8-0.9
					c-2.2,0-4.3,0.4-6.3,1.1c-2,0.8-3.7,1.8-5,3.2c-1.3,1.4-2.3,2.9-2.9,4.7c-0.6,1.8-0.9,3.6-0.9,5.5c0,1.9,0.3,3.7,1,5.4
					c0.7,1.7,1.7,3.2,3,4.4c1.3,1.2,2.9,2.1,4.7,2.7c1.8,0.6,3.8,0.9,5.8,0.9c2.2,0,4.3-0.3,6.2-1c1.9-0.7,3.6-1.7,4.9-3
					c1.3-1.4,2.3-3,3-4.8c0.7-1.9,1-3.8,1-5.8c0-1.9-0.3-3.7-1-5.4C356.3,197.8,355.3,196.3,354,195.2z M349.5,209.8
					c-0.6,1.5-1.5,2.6-2.6,3.4c-1.2,0.8-2.5,1.1-4.1,1.1c-1.5,0-2.8-0.4-3.9-1.1c-1.1-0.7-1.9-1.7-2.4-2.9c-0.5-1.2-0.7-2.5-0.7-4.1
					c0-1.7,0.3-3.3,0.9-4.8c0.6-1.5,1.5-2.6,2.7-3.3c1.2-0.7,2.6-1.1,4.1-1.1c1.5,0,2.8,0.4,3.9,1.1c1.1,0.7,1.8,1.7,2.3,2.9
					c0.5,1.2,0.7,2.5,0.7,4C350.4,206.7,350.1,208.3,349.5,209.8z M401.1,194.7c-0.8-1.1-1.8-1.9-3.2-2.4c-1.4-0.5-2.8-0.7-4.3-0.7
					c-0.9,0-1.8,0.1-2.6,0.2c-0.8,0.2-1.6,0.4-2.3,0.7c-0.7,0.3-1.3,0.7-1.8,1.1c-0.5,0.4-1,0.9-1.3,1.3c-0.3,0.4-0.7,0.9-1.1,1.5
					c-0.3-0.8-0.7-1.5-1-1.9c-0.3-0.4-0.7-0.8-1.1-1.2c-0.4-0.3-0.9-0.7-1.6-0.9c-0.6-0.3-1.3-0.5-2-0.6c-0.7-0.1-1.5-0.2-2.3-0.2
					c-1.1,0-2.1,0.1-3.1,0.4c-1,0.3-1.9,0.6-2.6,1c-0.7,0.4-1.3,0.9-1.8,1.4c-0.5,0.5-1,1.2-1.5,2l0.2-4.2c-1.2,0-5.6,0-7.1,0
					c0,3-0.9,23.7-1.2,26.7c1.6,0,5.9,0,7.5,0c0-2.3,0.1-5.4,0.3-9.3c0.2-3.9,0.5-6.5,0.9-7.9c0.4-1.3,1.1-2.4,2-3.2
					c0.9-0.8,2-1.2,3.2-1.2c0.7,0,1.3,0.1,1.8,0.3c0.5,0.2,1,0.6,1.3,1.1c0.4,0.5,0.6,1,0.8,1.5c0.1,0.5,0.2,1.2,0.2,2
					c0,1.4-0.1,4.3-0.3,8.4c-0.2,4.2-0.4,6.9-0.5,8.3c1.6,0,6.1,0,7.5,0l0.2-7.3c0.1-2.6,0.2-4.7,0.3-6.3c0.1-1.6,0.4-2.8,0.7-3.7
					c0.3-0.9,0.7-1.7,1.3-2.3c0.6-0.7,1.1-1.2,1.8-1.5c0.6-0.3,1.4-0.4,2.1-0.4c0.8,0,1.4,0.1,2,0.4c0.6,0.3,1.1,0.7,1.5,1.4
					c0.4,0.6,0.6,1.6,0.6,2.8c0,1.1,0,2.3-0.1,3.9l-0.3,6c-0.1,2.5-0.3,4.8-0.4,7.1c1.6,0,6.2,0,7.5,0c0-2,0.1-4.9,0.3-8.5
					c0.2-3.7,0.3-6.3,0.4-8c0.1-1.6,0.2-2.9,0.2-3.7C402.3,197.1,401.9,195.8,401.1,194.7z"/>
			</g>
		</g>
		<g id="形状_2_copy_3_副本_5_34_">
			<g>
				<path fill-rule="evenodd" clip-rule="evenodd" fill="#FF6600" d="M108.8,108.2c11.2,0,22.3,0,33.5,0c0,16.7,0,33.9,0,49.4
					c0,1-1.3,2.5-2.6,2.5c-1.8,0-2.5,0-4.7,0v8.1c2.6,0,4.8,0,7.3,0c6.5,0,10.8-3.1,10.8-8.5c0-12.8,0-38.3,0-51.5h3.9v-7.7h-48.1
					V108.2z M307.7,157.9c3.6,0,2.2,0,5.8,0c2.1,0,5-1.8,5-5c0-8.5,0-15.1,0-23.7c-1.6,0-3.3,0-4.7,0c0-6.5,0-19.9,0-24.7
					c0-2-2-4.1-4.4-4.1h-35.1v7.7h27c0,7,0,14.1,0,21.1c-6.4,0-7.4,0-13,0c-0.7,0-1.6-0.8-1.6-1.4c0-3.5,0-9.2,0-13.9
					c0-1.1-1.1-2.3-2.8-2.3h-8v18.6c0,3.6,3.2,6.6,6.6,6.6c0,0,13.7,0,25.2,0v6.9h-27.9c-3.1,0-7.8,2.9-7.8,7.8
					c9.7,0,25.2-0.2,35.7-0.2C307.7,153.5,307.7,155.5,307.7,157.9z M137.2,146.2c0-8.8,0-21.3,0-33.4h-27.9v42.5
					c8.2,0,18.5,0,18.5,0C134.8,155.3,137.2,151.3,137.2,146.2z M125.3,147.6c-2,0-4.2,0-7,0V121c3,0,6.5,0,9.5,0c0,8,0,17,0,24
					C127.8,146.5,126.9,147.6,125.3,147.6z M77.4,102.4c0,15.2,0,35.1,0,65.7h10.3c0-19.2,0-40.1,0-60c2.4,0,5.3,0,7.7,0
					c0,11.5,0,21.8,0,32.6c0,4.4-3.9,6-3.9,6v8.5c7.3,0,13.8-7.5,13.8-14.3c0-12.3,0-28.1,0-40.5c-9.3,0-16.4,0-25.7,0
					C77.4,100.4,77.4,102.4,77.4,102.4z M398.7,129.2c0-6.5,0-19.9,0-24.7c0-2-2-4.1-4.4-4.1h-35.1v7.7c9,0,18,0,27,0v21.1
					c-6.4,0-7.5,0-13,0c-0.7,0-1.6-0.8-1.6-1.4c0-3.5,0-9.2,0-13.9c0-1.1-1.1-2.3-2.8-2.3c-2.2,0-5.4,0-8,0v18.6
					c0,3.6,3.2,6.6,6.6,6.6c0,0,13.7,0,25.2,0v6.9h-27.5c-3.1,0-8,2.7-8,7.6c9.7,0,25,0,35.5,0v7.2c0,1.2-1,1.8-2.3,1.8h-4.1
					c0,3.5,0,5.4,0,7.7h6.3c1.9,0,1.5,0,3.4,0c5.2,0,7.5-3.7,7.5-6.7c0-9.7,0.1-22.5,0.1-32.2C401.8,129.3,400.1,129.2,398.7,129.2z
					 M348.9,155.3c3.7-4.1,5.8-9,6.3-18.3c0-10.1,0-19.9,0-29.9c0-0.8-1.1-2-2.1-1.9c-3.9,0-8.9,0-13.2,0v-4.7h-10.3
					c0,1.6,0,3.1,0,4.7c-1.1,0-2.4,0-3.4,0v7.7h3.5V137c0,9.3,3.1,14,6.9,18.3c-4.6,3.1-9.2,5.1-15.5,5.1c-0.9,0-1.7,0-2.6,0
					c-9.7,0-21.4,0-31.7,0c-9.7,0-19-1.8-22.5-6c3.3-4.5,5.1-8.1,6.1-17.5c0-9.3,0-17.3,0-29.2c-0.1-1.3-1.3-2.5-2.5-2.5
					c-4.1,0-8.2,0-13.2,0v-4.7c-4.2,0-5.8,0-10.1,0v4.7c-1.1,0-2,0-3.4,0v7.7c1.5,0,2.3,0,3.4,0c0,8,0,16.8,0,24.1
					c0.8,9.3,3.7,12.4,7.4,17.9c-5.2,3.6-11.6,5.3-19,5.6c-8.9,0-16.8,0-27.9,0c0-1.9,0-4.6,0-6h27.9v-8.1H205c0-1.9,0-4,0-6
					c8,0,18.6,0,21,0c0,0,6.8,0,6.9-7.5c0.1-7.9,0-21.9,0-32.4c-22.1,0-44.5,0-66.6,0c-1.1,0-2.1,1.1-2.1,2c0,1.6,0,26.3,0,37.9
					c9.3,0,18.6,0,27.9,0v6h-27.9c0,2.5,0,5.5,0,8.1h27.9c0,2,0,4,0,6h-32.6c0,2.2,0,5.2,0,7.7c24.5,0,54.8,0.1,78.6,0
					c6.4,0,14.4-3.3,20.1-6.7c7.2,5.6,15.2,6.7,28.4,6.7c4,0,8.5,0,13.3,0c6.9,0,13,0,18.4,0c11.1,0,18.1-2.4,24.9-6.4
					c6.3,3.8,12.2,6.1,22,6.4v0h14.8v-7.7h-14.8C358.6,159.8,353.2,158.8,348.9,155.3z M192,132.6h-17.2v-8.1H192V132.6z
					 M192.1,116.3h-17.2v-8.1c5.7,0,11.4,0,17.2,0V116.3z M205,108.2h17.2v8.1H205V108.2z M205,124.4c5.7,0,11.4,0,17.2,0
					c0,3.3,0,5.8,0,8.1H205C205,130.4,205,127,205,124.4z M260.5,137c-0.4,5.4-1.2,6.7-2.5,10.2c-1.6-3.3-3-4.8-3.4-10.2
					c0-7,0-16.7,0-24.1h5.9V137z M345.6,137c-0.2,5-1.4,7.4-2.7,10.2c-1.6-2.7-3-5.5-3-10.2c0-7.5,0-16.4,0-24.1h5.7
					C345.6,120.6,345.6,129.5,345.6,137z"/>
			</g>
		</g>
	</g>
</g>
</svg>
