<?xml version="1.0" encoding="utf-8"?>
<!-- Generator: Adobe Illustrator 17.1.0, SVG Export Plug-In . SVG Version: 6.00 Build 0)  -->
<!DOCTYPE svg PUBLIC "-//W3C//DTD SVG 1.1//EN" "http://www.w3.org/Graphics/SVG/1.1/DTD/svg11.dtd">
<svg version="1.1" id="图层_1" xmlns="http://www.w3.org/2000/svg" xmlns:xlink="http://www.w3.org/1999/xlink" x="0px" y="0px"
	 viewBox="0 0 231 93.4" enable-background="new 0 0 231 93.4" xml:space="preserve">
<g>
	<path d="M2.2,45l-0.5,2.5l0,0C2,47.3,2.2,47.1,2.5,47s0.6-0.2,0.9-0.2c0.4,0,0.7,0.1,1.1,0.2c0.3,0.1,0.6,0.3,0.9,0.5
		c0.2,0.2,0.4,0.6,0.6,0.9s0.2,0.8,0.2,1.3c0,0.4-0.1,0.7-0.2,1.1s-0.3,0.6-0.6,0.9c-0.2,0.3-0.6,0.5-0.9,0.6s-0.8,0.2-1.3,0.2
		c-0.4,0-0.7-0.1-1-0.2c-0.3-0.1-0.6-0.3-0.9-0.5s-0.4-0.5-0.6-0.8s-0.2-0.7-0.2-1h1c0,0.2,0.1,0.4,0.2,0.6C1.7,51,1.8,51.2,2,51.3
		c0.2,0.1,0.3,0.2,0.6,0.3c0.2,0.1,0.4,0.1,0.7,0.1c0.2,0,0.5,0,0.7-0.1c0.2-0.1,0.4-0.2,0.6-0.4c0.2-0.2,0.3-0.4,0.4-0.6
		C5,50.3,5,50,5,49.7c0-0.3,0-0.5-0.1-0.8c-0.1-0.2-0.2-0.4-0.4-0.6S4.1,48,3.9,47.9c-0.2-0.1-0.5-0.1-0.8-0.1
		c-0.3,0-0.6,0.1-0.9,0.2c-0.3,0.1-0.5,0.3-0.7,0.6l-0.9,0l0.8-4.4h4.2V45H2.2z"/>
	<path d="M8.4,46.3v0.9h0c0.5-0.7,1.1-1.1,2-1.1c0.4,0,0.7,0.1,1,0.2c0.3,0.2,0.5,0.4,0.7,0.8c0.2-0.3,0.5-0.6,0.8-0.8
		c0.3-0.2,0.7-0.3,1.1-0.3c0.3,0,0.6,0,0.8,0.1s0.5,0.2,0.6,0.3c0.2,0.1,0.3,0.3,0.4,0.6s0.1,0.5,0.1,0.8v4.6h-1v-4.1
		c0-0.2,0-0.4,0-0.5c0-0.2-0.1-0.3-0.2-0.4c-0.1-0.1-0.2-0.2-0.4-0.3c-0.2-0.1-0.4-0.1-0.6-0.1c-0.5,0-0.9,0.1-1.2,0.4
		c-0.3,0.3-0.4,0.7-0.4,1.2v3.9h-1v-4.1c0-0.2,0-0.4-0.1-0.6c0-0.2-0.1-0.3-0.2-0.4c-0.1-0.1-0.2-0.2-0.4-0.3
		c-0.1-0.1-0.3-0.1-0.6-0.1c-0.3,0-0.5,0.1-0.8,0.2c-0.2,0.1-0.4,0.3-0.5,0.4S8.6,48,8.5,48.2c-0.1,0.2-0.1,0.3-0.1,0.5v3.9h-1v-6.2
		H8.4z"/>
	<path d="M18.6,46.3v0.9h0c0.5-0.7,1.1-1.1,2-1.1c0.4,0,0.7,0.1,1,0.2c0.3,0.2,0.5,0.4,0.7,0.8c0.2-0.3,0.5-0.6,0.8-0.8
		c0.3-0.2,0.7-0.3,1.1-0.3c0.3,0,0.6,0,0.8,0.1s0.5,0.2,0.6,0.3c0.2,0.1,0.3,0.3,0.4,0.6s0.1,0.5,0.1,0.8v4.6h-1v-4.1
		c0-0.2,0-0.4,0-0.5c0-0.2-0.1-0.3-0.2-0.4c-0.1-0.1-0.2-0.2-0.4-0.3c-0.2-0.1-0.4-0.1-0.6-0.1c-0.5,0-0.9,0.1-1.2,0.4
		c-0.3,0.3-0.4,0.7-0.4,1.2v3.9h-1v-4.1c0-0.2,0-0.4-0.1-0.6c0-0.2-0.1-0.3-0.2-0.4c-0.1-0.1-0.2-0.2-0.4-0.3
		c-0.1-0.1-0.3-0.1-0.6-0.1c-0.3,0-0.5,0.1-0.8,0.2c-0.2,0.1-0.4,0.3-0.5,0.4s-0.2,0.3-0.3,0.5c-0.1,0.2-0.1,0.3-0.1,0.5v3.9h-1
		v-6.2H18.6z"/>
</g>
<line fill-rule="evenodd" clip-rule="evenodd" fill="none" stroke="#211816" stroke-width="0.25" x1="231" y1="0" x2="231" y2="93.4"/>
<polyline fill="none" stroke="#000000" stroke-width="0.25" points="45.8,58.1 39.4,58.1 39.4,36.8 45.8,36.8 "/>
<g>
	<g>
		<g>
			<path fill="#666666" d="M131.9,46.9h1c1,0,1.5-0.4,1.5-1.4v-2.8h1.3v-0.6h-1.3v-1.2h-0.8v1.2h-4.1v-1.2h-0.8v1.2h-1.2v0.6h1.2
				v4.2h2.5v1.5h-3.9V49h2.3c-0.1,1.4-0.8,2.5-2,3.3v0.5c1.6-0.8,2.5-2.1,2.8-3.8h0.7v4.5h0.8V49h0.7c0.3,1.8,1.3,3.1,3,3.8v-0.5
				c-1.3-0.8-2.1-1.9-2.2-3.3h2.4v-0.6h-3.9V46.9z M129.4,42.7h4.1v1.5h-4.1V42.7z M129.4,46.3v-1.5h4.1v0.8c0,0.5-0.2,0.8-0.8,0.8
				H129.4z M125.4,51.2c0.9-1,1.3-2.5,1.2-4.7v-3.1h0.6v-0.5h-0.6V41h-0.8v1.9h-1.7V41h-0.8v1.9h-0.7v0.5h0.7v3.1
				c0,2.1,0.4,3.7,1.2,4.7c-0.3,0.4-1,0.9-2,1.6v0.6c1-0.6,1.8-1.2,2.4-1.7c0.6,0.5,1.3,1.1,2.2,1.7v-0.6
				C126.5,52.3,125.9,51.7,125.4,51.2z M124.2,46.6v-3.2h1.7v3.2c0,1.9-0.2,3.2-0.8,4.1C124.4,49.8,124.1,48.4,124.2,46.6z
				 M140.5,40.8c-0.4,2.1-1.4,3.6-3.1,4.6V46c0.8-0.4,1.4-0.8,1.8-1.2v8.6h0.9V44c0.5-0.6,0.9-1.7,1.3-3.1H140.5z M149.9,43.6V43
				H146v-2.1h-0.9V43h-3.7v0.6h1.5c0,2.6-0.7,5-2,7v0.9c1.8-2.2,2.8-4.8,2.8-7.9h1.5v6.5h-2.5v0.5h2.5v2.8h0.9v-2.8h2.3v-0.5H146
				v-6.5h1.4c0,3.2,1,5.8,2.8,7.9v-0.9c-1.3-1.9-1.9-4.2-1.9-7H149.9z M156,46v0.7h1c2.4,0,4.5-0.2,6.2-0.5c0,0.1,0.1,0.2,0.2,0.4
				c0.1,0.2,0.1,0.3,0.2,0.4h0.8c-0.4-1.1-0.8-2.1-1.4-3h-0.8c0,0.1,0.1,0.1,0.1,0.1c0.4,0.7,0.6,1.2,0.8,1.5
				c-1.4,0.2-3.5,0.3-6.1,0.3c1.2-1,2-2,2.5-3.2h5.3v-0.5h-4v-1.4h-0.8v1.4h-4.3v0.5h2.9C157.8,44.1,157,45.1,156,46z M154.7,43.8
				c-0.2-0.8-0.6-1.8-1.2-2.7h-0.8c0.5,0.9,0.9,1.8,1.2,2.7H154.7z M164.5,51.8c0,0.5-0.2,0.8-0.8,0.7c-0.7,0-1.1-0.2-1-0.7v-4.4
				h-0.8v4.3c0,1,0.5,1.5,1.5,1.4h0.3c0.9,0,1.4-0.4,1.3-1.3v-0.4h-0.6V51.8z M152.4,53.2h1c0.7-1.5,1.2-3.3,1.5-5.3h-0.7
				C153.8,49.8,153.3,51.6,152.4,53.2z M159.4,53.2h0.8v-5.8h-0.8V53.2z M152.8,44.4c0.6,1,1,1.9,1.2,2.8h0.8
				c-0.3-1.1-0.7-2-1.2-2.8H152.8z M156.7,49.6c0,1.4-0.5,2.5-1.5,3.3v0.6c1.6-0.9,2.4-2.2,2.3-4v-2h-0.8V49.6z M179.8,45.2h-13v0.5
				h13V45.2z M178.4,43.3v-1.8h-10.2v3h8.7C177.9,44.5,178.4,44.1,178.4,43.3z M169,41.9h8.5v0.8H169V41.9z M169,44v-0.8h8.5v0.1
				c0,0.5-0.2,0.7-0.8,0.7H169z M173.7,51.6h5.1v-0.5h-5.1v-1h3c1,0,1.5-0.4,1.5-1.2v-2.3h-10v3.5h4.5v1h-5.1v0.5h5.1v0.9h-6v0.5h13
				v-0.5h-6.1V51.6z M173.7,47.1h3.6v1h-3.6V47.1z M173.7,48.5h3.6v0.3c0,0.5-0.2,0.8-0.7,0.7h-2.9V48.5z M172.8,49.6h-3.6v-1h3.6
				V49.6z M172.8,48h-3.6v-1h3.6V48z M188.4,42.1h5.4v-0.6h-11.6v0.6h5.3v6h-6v0.6h6v4.9h0.9v-4.9h6V48h-6V42.1z M191.6,46.7
				c0.4-0.8,0.8-1.9,1.2-3.2h-1c-0.1,1.1-0.5,2.2-1,3.2H191.6z M184.2,43.4h-1c0.3,1.4,0.7,2.4,1.2,3.2h0.8
				C184.6,45.6,184.3,44.5,184.2,43.4z M197.8,53h7.8c1.3,0,1.9-0.5,1.8-1.5v-4h-9.6V53z M198.7,48.2h7.8v3.3c0,0.7-0.3,1-1.1,1
				h-6.8V48.2z M207,45.6c0.1,0.3,0.2,0.7,0.3,1h1c-0.6-1.5-1.3-2.8-2.2-4.1h-0.8c0.6,0.9,1.1,1.7,1.5,2.4c-2.3,0.2-5.2,0.3-8.8,0.3
				c1.5-1.2,2.7-2.7,3.9-4.5h-1.1c-0.9,1.6-2.1,3.1-3.7,4.5V46h1.4C201.4,46,204.3,45.8,207,45.6z"/>
		</g>
	</g>
	<rect x="116.6" y="36.8" fill-rule="evenodd" clip-rule="evenodd" fill="#CBCBCB" width="0.4" height="21.2"/>
	<g>
		<g id="形状_2_copy_3_副本_4_26_">
			<g>
				<path fill-rule="evenodd" clip-rule="evenodd" fill="#CCCCCC" d="M55.2,51.5c-1.1,2.2-2.1,4.1-3.2,6.4h1.6
					c0.3-0.5,0.4-0.9,0.8-1.5c0.8,0,1.4,0,2.2,0c-0.2-0.5-0.3-0.8-0.4-1.2h-1.2c0.4-0.7,0.6-1.1,1.1-2.1c0.6,1.7,1.2,3.3,1.7,4.9
					h1.4c-0.8-2.2-1.5-4.2-2.2-6.4H55.2z M59.6,57.9h1.3l0.3-6.4l-1.3,0L59.6,57.9z M61.7,57.9h1.4l0.2-4.8h-1.4L61.7,57.9z
					 M62,51.5l0,1c0,0,1,0,1.3,0l0.1-1C62.1,51.5,62.1,51.5,62,51.5z M70.7,53.2c-0.2-0.1-0.5-0.1-0.8-0.1c-0.2,0-0.3,0-0.5,0
					c-0.1,0-0.3,0.1-0.4,0.1c-0.1,0.1-0.2,0.1-0.3,0.2c-0.1,0.1-0.2,0.2-0.2,0.2c-0.1,0.1-0.1,0.2-0.2,0.3c-0.1-0.2-0.1-0.3-0.2-0.3
					c-0.1-0.1-0.1-0.1-0.2-0.2c-0.1-0.1-0.2-0.1-0.3-0.2c-0.1,0-0.2-0.1-0.4-0.1c-0.1,0-0.3,0-0.4,0c-0.2,0-0.4,0-0.5,0.1
					c-0.2,0-0.3,0.1-0.5,0.2c-0.1,0.1-0.2,0.2-0.3,0.3c-0.1,0.1-0.2,0.2-0.3,0.4l0-0.8H64l-0.2,4.8c0,0,1.1,0,1.3,0
					c0-0.4,0-1,0.1-1.7c0-0.7,0.1-1.2,0.2-1.4c0.1-0.2,0.2-0.4,0.4-0.6c0.2-0.1,0.4-0.2,0.6-0.2c0.1,0,0.2,0,0.3,0.1
					c0.1,0,0.2,0.1,0.2,0.2c0.1,0.1,0.1,0.2,0.1,0.3c0,0.1,0,0.2,0,0.3c0,0.3,0,0.8-0.1,1.5c0,0.7-0.1,1.2-0.1,1.5
					c0.3,0,1.1,0,1.3,0l0-1.3c0-0.5,0-0.8,0.1-1.1c0-0.3,0.1-0.5,0.1-0.7c0.1-0.2,0.1-0.3,0.2-0.4c0.1-0.1,0.2-0.2,0.3-0.3
					c0.1-0.1,0.2-0.1,0.4-0.1c0.1,0,0.3,0,0.4,0.1c0.1,0,0.2,0.1,0.3,0.2c0.1,0.1,0.1,0.3,0.1,0.5c0,0.2,0,0.4,0,0.7L70,56.7
					c0,0.4-0.1,0.9-0.1,1.3c0.3,0,1.1,0,1.3,0c0-0.4,0-0.9,0.1-1.5c0-0.7,0.1-1.1,0.1-1.4c0-0.3,0-0.5,0-0.7c0-0.3-0.1-0.5-0.2-0.7
					C71.1,53.4,70.9,53.3,70.7,53.2z M75.7,53.2c-0.3-0.1-0.6-0.1-0.9-0.1c-0.3,0-0.6,0-0.9,0.1c-0.3,0-1.1,0.2-1.1,0.2l-0.1,0.9
					c0,0,1.3-0.4,1.9-0.4c0.2,0,0.3,0,0.4,0c0.1,0,0.2,0.1,0.3,0.2c0.1,0.1,0.1,0.2,0.1,0.3c0,0.1,0,0.1,0,0.2
					c0,0.1-0.1,0.1-0.1,0.2c-0.1,0.1-0.1,0.1-0.2,0.1c-0.1,0-0.2,0.1-0.3,0.1c-0.1,0-0.3,0.1-0.4,0.1c-0.4,0.1-0.8,0.2-1.1,0.3
					c-0.3,0.1-0.5,0.2-0.6,0.3c-0.1,0.1-0.3,0.2-0.4,0.3C72.1,56,72,56.1,72,56.3c0,0.1-0.1,0.3-0.1,0.4c0,0.2,0.1,0.5,0.2,0.7
					c0.1,0.2,0.3,0.4,0.6,0.5c0.3,0.1,0.6,0.2,1,0.2c0.1,0,0.2,0,0.4,0c0.1,0,0.3,0,0.5-0.1c0.1-0.4,0.2-0.6,0.2-0.8
					c-0.2,0.1-0.3,0.1-0.4,0.1c-0.1,0-0.2,0-0.3,0c-0.2,0-0.3,0-0.4-0.1c-0.1,0-0.2-0.1-0.3-0.2c-0.1-0.1-0.1-0.2-0.1-0.3
					c0-0.1,0-0.2,0-0.2c0-0.1,0.1-0.1,0.1-0.2c0.1-0.1,0.1-0.1,0.2-0.2c0.1-0.1,0.2-0.1,0.3-0.1c0.1,0,0.3-0.1,0.5-0.1
					c0.2-0.1,0.3-0.1,0.4-0.1c0.1,0,0.1-0.1,0.2-0.1c0.1,0,0.2-0.1,0.3-0.2l-0.2,2.5h1.3c0,0,0-1.5,0.1-2.3c0-0.7,0.1-1.2,0.1-1.4
					c0-0.3-0.1-0.6-0.2-0.8C76.2,53.4,76,53.3,75.7,53.2z M84.1,53.2c-0.2-0.1-0.5-0.1-0.8-0.1c-0.2,0-0.3,0-0.5,0
					c-0.1,0-0.3,0.1-0.4,0.1c-0.1,0.1-0.2,0.1-0.3,0.2c-0.1,0.1-0.2,0.2-0.2,0.2c-0.1,0.1-0.1,0.2-0.2,0.3c-0.1-0.2-0.1-0.3-0.2-0.3
					c-0.1-0.1-0.1-0.1-0.2-0.2c-0.1-0.1-0.2-0.1-0.3-0.2c-0.1,0-0.2-0.1-0.4-0.1c-0.1,0-0.3,0-0.4,0c-0.2,0-0.4,0-0.5,0.1
					c-0.2,0-0.3,0.1-0.5,0.2c-0.1,0.1-0.2,0.2-0.3,0.3c-0.1,0.1-0.2,0.2-0.3,0.4l0-0.8h-1.3l-0.2,4.8h1.3c0,0,0-1,0.1-1.7
					c0-0.7,0.1-1.2,0.2-1.4c0.1-0.2,0.2-0.4,0.4-0.6c0.2-0.1,0.4-0.2,0.6-0.2c0.1,0,0.2,0,0.3,0.1c0.1,0,0.2,0.1,0.2,0.2
					c0.1,0.1,0.1,0.2,0.1,0.3c0,0.1,0,0.2,0,0.3c0,0.3,0,0.8-0.1,1.5c0,0.7-0.1,1.2-0.1,1.5c0.3,0,1.1,0,1.3,0l0-1.3
					c0-0.5,0-0.8,0.1-1.1c0-0.3,0.1-0.5,0.1-0.7c0.1-0.2,0.1-0.3,0.2-0.4c0.1-0.1,0.2-0.2,0.3-0.3c0.1-0.1,0.2-0.1,0.4-0.1
					c0.1,0,0.3,0,0.4,0.1c0.1,0,0.2,0.1,0.3,0.2c0.1,0.1,0.1,0.3,0.1,0.5c0,0.2,0,0.4,0,0.7l-0.1,1.1c0,0.4-0.1,0.9-0.1,1.3
					c0.3,0,1.1,0,1.3,0c0-0.4,0-0.9,0.1-1.5c0-0.7,0.1-1.1,0.1-1.4c0-0.3,0-0.5,0-0.7c0-0.3-0.1-0.5-0.2-0.7
					C84.5,53.4,84.3,53.3,84.1,53.2z M89.1,53.2c-0.3-0.1-0.6-0.1-0.9-0.1c-0.3,0-0.6,0-0.9,0.1c-0.3,0-1.1,0.2-1.1,0.2L86,54.2
					c0,0,1.3-0.4,1.9-0.4c0.2,0,0.3,0,0.4,0c0.1,0,0.2,0.1,0.3,0.2c0.1,0.1,0.1,0.2,0.1,0.3c0,0.1,0,0.1,0,0.2
					c0,0.1-0.1,0.1-0.1,0.2c-0.1,0.1-0.1,0.1-0.2,0.1c-0.1,0-0.2,0.1-0.3,0.1c-0.1,0-0.3,0.1-0.4,0.1c-0.4,0.1-0.8,0.2-1.1,0.3
					c-0.3,0.1-0.5,0.2-0.6,0.3c-0.1,0.1-0.3,0.2-0.4,0.3c-0.1,0.1-0.2,0.2-0.2,0.4c0,0.1-0.1,0.3-0.1,0.4c0,0.2,0.1,0.5,0.2,0.7
					c0.1,0.2,0.3,0.4,0.6,0.5c0.3,0.1,0.6,0.2,1,0.2c0.1,0,0.2,0,0.4,0c0.1,0,0.3,0,0.5-0.1c0.1-0.4,0.2-0.6,0.2-0.8
					c-0.2,0.1-0.3,0.1-0.4,0.1c-0.1,0-0.2,0-0.3,0c-0.2,0-0.3,0-0.4-0.1c-0.1,0-0.2-0.1-0.3-0.2c-0.1-0.1-0.1-0.2-0.1-0.3
					c0-0.1,0-0.2,0-0.2c0-0.1,0.1-0.1,0.1-0.2c0.1-0.1,0.1-0.1,0.2-0.2c0.1-0.1,0.2-0.1,0.3-0.1c0.1,0,0.3-0.1,0.5-0.1
					c0.2-0.1,0.3-0.1,0.4-0.1c0.1,0,0.1-0.1,0.2-0.1c0.1,0,0.2-0.1,0.3-0.2l-0.2,2.5h1.3c0,0,0-1.5,0.1-2.3c0-0.7,0.1-1.2,0.1-1.4
					c0-0.3-0.1-0.6-0.2-0.8C89.7,53.4,89.4,53.3,89.1,53.2z M90.6,56.7c0,0.6,0,1-0.1,1.3c0.4,0,1.3,0,1.3,0s0-1,0.1-1.3
					C91.6,56.7,90.6,56.7,90.6,56.7z M94.1,54.5c0.1-0.2,0.3-0.3,0.5-0.3c0.2-0.1,0.4-0.1,0.6-0.1c0.3,0,0.8,0.1,1.2,0.2l-0.1-1
					c-0.3-0.1-0.5-0.1-0.8-0.1c-0.2,0-0.4,0-0.6,0c-0.4,0-0.7,0-1,0.1c-0.3,0.1-0.6,0.2-0.8,0.5c-0.2,0.2-0.4,0.5-0.6,0.9
					c-0.1,0.4-0.2,0.7-0.2,1.1c0,0.3,0,0.6,0.1,0.9c0.1,0.3,0.2,0.5,0.3,0.7c0.2,0.2,0.3,0.4,0.5,0.5c0.2,0.1,0.4,0.2,0.7,0.3
					c0.2,0,0.5,0.1,0.7,0.1c0.4,0,0.9-0.1,1.3-0.2c0-0.2,0.1-0.4,0.1-0.6c0-0.2,0.1-0.3,0.1-0.4c-0.2,0.1-0.4,0.1-0.6,0.2
					c-0.2,0-0.4,0.1-0.5,0.1c-0.3,0-0.5-0.1-0.8-0.2c-0.2-0.1-0.4-0.3-0.5-0.5c-0.1-0.2-0.1-0.5-0.1-0.8c0-0.2,0-0.4,0.1-0.6
					C93.9,54.8,94,54.6,94.1,54.5z M101.3,53.7c-0.2-0.2-0.5-0.4-0.8-0.5c-0.3-0.1-0.7-0.2-1-0.2c-0.4,0-0.8,0.1-1.1,0.2
					c-0.4,0.1-0.7,0.3-0.9,0.6c-0.2,0.2-0.4,0.5-0.5,0.8c-0.1,0.3-0.2,0.6-0.2,1c0,0.3,0.1,0.7,0.2,1c0.1,0.3,0.3,0.6,0.5,0.8
					c0.2,0.2,0.5,0.4,0.8,0.5c0.3,0.1,0.7,0.2,1,0.2c0.4,0,0.8-0.1,1.1-0.2c0.3-0.1,0.6-0.3,0.9-0.5c0.2-0.2,0.4-0.5,0.5-0.9
					c0.1-0.3,0.2-0.7,0.2-1c0-0.3-0.1-0.7-0.2-1C101.7,54.2,101.5,53.9,101.3,53.7z M100.5,56.3c-0.1,0.3-0.3,0.5-0.5,0.6
					c-0.2,0.1-0.4,0.2-0.7,0.2c-0.3,0-0.5-0.1-0.7-0.2c-0.2-0.1-0.3-0.3-0.4-0.5c-0.1-0.2-0.1-0.5-0.1-0.7c0-0.3,0.1-0.6,0.2-0.9
					c0.1-0.3,0.3-0.5,0.5-0.6c0.2-0.1,0.5-0.2,0.7-0.2c0.3,0,0.5,0.1,0.7,0.2c0.2,0.1,0.3,0.3,0.4,0.5c0.1,0.2,0.1,0.4,0.1,0.7
					C100.6,55.7,100.6,56,100.5,56.3z M109.7,53.6c-0.1-0.2-0.3-0.3-0.6-0.4c-0.2-0.1-0.5-0.1-0.8-0.1c-0.2,0-0.3,0-0.5,0
					c-0.1,0-0.3,0.1-0.4,0.1c-0.1,0.1-0.2,0.1-0.3,0.2c-0.1,0.1-0.2,0.2-0.2,0.2c-0.1,0.1-0.1,0.2-0.2,0.3c-0.1-0.2-0.1-0.3-0.2-0.3
					c-0.1-0.1-0.1-0.1-0.2-0.2c-0.1-0.1-0.2-0.1-0.3-0.2c-0.1,0-0.2-0.1-0.4-0.1c-0.1,0-0.3,0-0.4,0c-0.2,0-0.4,0-0.5,0.1
					c-0.2,0-0.3,0.1-0.5,0.2c-0.1,0.1-0.2,0.2-0.3,0.3c-0.1,0.1-0.2,0.2-0.3,0.4l0-0.8c-0.2,0-1,0-1.3,0c0,0.5-0.2,4.2-0.2,4.8
					c0.3,0,1.1,0,1.3,0c0-0.4,0-1,0.1-1.7c0-0.7,0.1-1.2,0.2-1.4c0.1-0.2,0.2-0.4,0.4-0.6c0.2-0.1,0.4-0.2,0.6-0.2
					c0.1,0,0.2,0,0.3,0.1c0.1,0,0.2,0.1,0.2,0.2c0.1,0.1,0.1,0.2,0.1,0.3c0,0.1,0,0.2,0,0.3c0,0.3,0,0.8-0.1,1.5
					c0,0.7-0.1,1.2-0.1,1.5c0.3,0,1.1,0,1.3,0l0-1.3c0-0.5,0-0.8,0.1-1.1c0-0.3,0.1-0.5,0.1-0.7c0.1-0.2,0.1-0.3,0.2-0.4
					c0.1-0.1,0.2-0.2,0.3-0.3c0.1-0.1,0.2-0.1,0.4-0.1c0.1,0,0.3,0,0.4,0.1c0.1,0,0.2,0.1,0.3,0.2c0.1,0.1,0.1,0.3,0.1,0.5
					c0,0.2,0,0.4,0,0.7l-0.1,1.1c0,0.4-0.1,0.9-0.1,1.3c0.3,0,1.1,0,1.3,0c0-0.4,0-0.9,0.1-1.5c0-0.7,0.1-1.1,0.1-1.4
					c0-0.3,0-0.5,0-0.7C109.9,54,109.8,53.8,109.7,53.6z"/>
			</g>
		</g>
		<g id="形状_2_copy_3_副本_5_24_">
			<g>
				<path fill-rule="evenodd" clip-rule="evenodd" fill="#FF6600" d="M57.6,38.2c2,0,4,0,6,0c0,3,0,6,0,8.8c0,0.2-0.2,0.4-0.5,0.4
					c-0.3,0-0.4,0-0.8,0v1.4c0.5,0,0.9,0,1.3,0c1.2,0,1.9-0.6,1.9-1.5c0-2.3,0-6.8,0-9.2h0.7v-1.4h-8.6V38.2z M88,44.6
					c-0.6,0-1.4,0.5-1.4,1.4c1.7,0,4.5,0,6.4,0c0,0.3,0,0.7,0,1.1c0.6,0,0.4,0,1,0c0.4,0,0.9-0.3,0.9-0.9c0-1.5,0-2.7,0-4.2
					c-0.3,0-0.6,0-0.8,0c0-1.2,0-3.5,0-4.4c0-0.3-0.3-0.7-0.8-0.7H87v1.4h4.8c0,1.2,0,2.5,0,3.8c-1.1,0-1.3,0-2.3,0
					c-0.1,0-0.3-0.1-0.3-0.3c0-0.6,0-1.6,0-2.5c0-0.2-0.2-0.4-0.5-0.4h-1.4v3.3c0,0.6,0.6,1.2,1.2,1.2c0,0,2.4,0,4.5,0v1.2H88z
					 M62.6,45c0-1.6,0-3.8,0-5.9h-5v7.6c1.5,0,3.3,0,3.3,0C62.2,46.6,62.6,45.9,62.6,45z M60.5,45.2c-0.4,0-0.7,0-1.3,0v-4.7
					c0.5,0,1.2,0,1.7,0c0,1.4,0,3,0,4.3C61,45,60.8,45.2,60.5,45.2z M52,37.2c0,2.7,0,6.3,0,11.7h1.8c0-3.4,0-7.2,0-10.7
					c0.4,0,0.9,0,1.4,0c0,2.1,0,3.9,0,5.8c0,0.8-0.7,1.1-0.7,1.1v1.5c1.3,0,2.5-1.3,2.5-2.5c0-2.2,0-5,0-7.2c-1.7,0-2.9,0-4.6,0
					C52,36.8,52,37.2,52,37.2z M109.2,41.9c0-1.2,0-3.5,0-4.4c0-0.3-0.3-0.7-0.8-0.7h-6.3v1.4c1.6,0,3.2,0,4.8,0v3.8
					c-1.1,0-1.3,0-2.3,0c-0.1,0-0.3-0.1-0.3-0.3c0-0.6,0-1.6,0-2.5c0-0.2-0.2-0.4-0.5-0.4c-0.4,0-1,0-1.4,0v3.3
					c0,0.6,0.6,1.2,1.2,1.2c0,0,2.4,0,4.5,0v1.2h-4.9c-0.5,0-1.4,0.5-1.4,1.4c1.7,0,4.5,0,6.3,0v1.3c0,0.2-0.2,0.3-0.4,0.3H107
					c0,0.6,0,1,0,1.4h1.1c0.3,0,0.3,0,0.6,0c0.9,0,1.3-0.7,1.3-1.2c0-1.7,0-4,0-5.7C109.8,41.9,109.5,41.9,109.2,41.9z M100.4,46.6
					c0.7-0.7,1-1.6,1.1-3.3c0-1.8,0-3.5,0-5.3c0-0.1-0.2-0.3-0.4-0.3c-0.7,0-1.6,0-2.4,0v-0.8h-1.8c0,0.3,0,0.6,0,0.8
					c-0.2,0-0.4,0-0.6,0V39h0.6v4.3c0,1.7,0.5,2.5,1.2,3.3c-0.8,0.6-1.6,0.9-2.8,0.9c-0.2,0-0.3,0-0.5,0c-1.7,0-3.8,0-5.7,0
					c-1.7,0-3.4-0.3-4-1.1c0.6-0.8,0.9-1.5,1.1-3.1c0-1.7,0-3.1,0-5.2c0-0.2-0.2-0.4-0.4-0.5c-0.7,0-1.5,0-2.3,0v-0.8
					c-0.8,0-1,0-1.8,0v0.8c-0.2,0-0.4,0-0.6,0V39c0.3,0,0.4,0,0.6,0c0,1.4,0,3,0,4.3c0.1,1.7,0.7,2.2,1.3,3.2
					c-0.9,0.6-2.1,0.9-3.4,1c-1.6,0-3,0-5,0c0-0.3,0-0.8,0-1.1h5V45h-5c0-0.3,0-0.7,0-1.1c1.4,0,3.3,0,3.7,0c0,0,1.2,0,1.2-1.3
					c0-1.4,0-3.9,0-5.8c-3.9,0-7.9,0-11.9,0c-0.2,0-0.4,0.2-0.4,0.4c0,0.3,0,4.7,0,6.7c1.7,0,3.3,0,5,0V45h-5c0,0.4,0,1,0,1.5h5
					c0,0.4,0,0.7,0,1.1h-5.8c0,0.4,0,0.9,0,1.4c4.4,0,9.8,0,14,0c1.1,0,2.6-0.6,3.6-1.2c1.3,1,2.7,1.2,5.1,1.2c0.7,0,1.5,0,2.4,0
					c1.2,0,2.3,0,3.3,0c2,0,3.2-0.4,4.4-1.1c1.1,0.7,2.2,1.1,3.9,1.1v0h2.6v-1.4h-2.6C102.1,47.4,101.1,47.2,100.4,46.6z M72.4,42.5
					h-3.1v-1.5h3.1V42.5z M72.4,39.6h-3.1v-1.5c1,0,2,0,3.1,0V39.6z M74.7,38.2h3.1v1.5h-3.1V38.2z M74.7,41.1c1,0,2,0,3.1,0
					c0,0.6,0,1,0,1.5h-3.1C74.7,42.2,74.7,41.5,74.7,41.1z M84.6,43.3c-0.1,1-0.2,1.2-0.4,1.8c-0.3-0.6-0.5-0.9-0.6-1.8
					c0-1.2,0-3,0-4.3h1.1V43.3z M99.8,43.3c0,0.9-0.2,1.3-0.5,1.8c-0.3-0.5-0.5-1-0.5-1.8c0-1.3,0-2.9,0-4.3h1
					C99.8,40.4,99.8,42,99.8,43.3z"/>
			</g>
		</g>
	</g>
</g>
</svg>
