<?xml version="1.0" encoding="utf-8"?>
<!-- Generator: Adobe Illustrator 17.1.0, SVG Export Plug-In . SVG Version: 6.00 Build 0)  -->
<!DOCTYPE svg PUBLIC "-//W3C//DTD SVG 1.1//EN" "http://www.w3.org/Graphics/SVG/1.1/DTD/svg11.dtd">
<svg version="1.1" id="图层_1" xmlns="http://www.w3.org/2000/svg" xmlns:xlink="http://www.w3.org/1999/xlink" x="0px" y="0px"
	 viewBox="0 0 193.3 99.5" enable-background="new 0 0 193.3 99.5" xml:space="preserve">
<g>
	<path d="M2.2,47.1l-0.5,2.5l0,0c0.2-0.2,0.4-0.4,0.7-0.5s0.6-0.2,0.9-0.2c0.4,0,0.7,0.1,1.1,0.2c0.3,0.1,0.6,0.3,0.9,0.5
		s0.4,0.6,0.6,0.9c0.1,0.4,0.2,0.8,0.2,1.3c0,0.4-0.1,0.7-0.2,1.1s-0.3,0.6-0.6,0.9c-0.2,0.3-0.6,0.5-0.9,0.6s-0.8,0.2-1.3,0.2
		c-0.4,0-0.7-0.1-1-0.2s-0.6-0.3-0.9-0.5c-0.2-0.2-0.4-0.5-0.6-0.8c-0.1-0.3-0.2-0.7-0.2-1h1c0,0.2,0.1,0.4,0.2,0.6
		c0.1,0.2,0.2,0.4,0.4,0.5c0.2,0.1,0.3,0.2,0.6,0.3c0.2,0.1,0.4,0.1,0.7,0.1c0.2,0,0.5,0,0.7-0.1c0.2-0.1,0.4-0.2,0.6-0.4
		s0.3-0.4,0.4-0.6C4.9,52.4,5,52.1,5,51.8c0-0.3,0-0.5-0.1-0.8s-0.2-0.4-0.4-0.6S4.1,50.1,3.8,50c-0.2-0.1-0.5-0.1-0.8-0.1
		c-0.3,0-0.6,0.1-0.9,0.2c-0.3,0.1-0.5,0.3-0.7,0.6l-0.9,0l0.8-4.4h4.2v0.9H2.2z"/>
	<path d="M8.4,48.3v0.9h0c0.5-0.7,1.1-1.1,2-1.1c0.4,0,0.7,0.1,1,0.2c0.3,0.2,0.5,0.4,0.7,0.8c0.2-0.3,0.5-0.6,0.8-0.8
		c0.3-0.2,0.7-0.3,1.1-0.3c0.3,0,0.6,0,0.8,0.1s0.5,0.2,0.6,0.3c0.2,0.1,0.3,0.3,0.4,0.6c0.1,0.2,0.1,0.5,0.1,0.8v4.6h-1v-4.1
		c0-0.2,0-0.4,0-0.5c0-0.2-0.1-0.3-0.2-0.4s-0.2-0.2-0.4-0.3c-0.2-0.1-0.4-0.1-0.6-0.1c-0.5,0-0.9,0.1-1.2,0.4
		c-0.3,0.3-0.4,0.7-0.4,1.2v3.9h-1v-4.1c0-0.2,0-0.4-0.1-0.6s-0.1-0.3-0.2-0.4c-0.1-0.1-0.2-0.2-0.4-0.3c-0.1-0.1-0.3-0.1-0.6-0.1
		c-0.3,0-0.6,0.1-0.8,0.2c-0.2,0.1-0.4,0.3-0.5,0.4s-0.2,0.3-0.3,0.5c-0.1,0.2-0.1,0.3-0.1,0.5v3.9h-1v-6.2H8.4z"/>
	<path d="M18.6,48.3v0.9h0c0.5-0.7,1.1-1.1,2-1.1c0.4,0,0.7,0.1,1,0.2c0.3,0.2,0.5,0.4,0.7,0.8c0.2-0.3,0.5-0.6,0.8-0.8
		c0.3-0.2,0.7-0.3,1.1-0.3c0.3,0,0.6,0,0.8,0.1s0.5,0.2,0.6,0.3c0.2,0.1,0.3,0.3,0.4,0.6c0.1,0.2,0.1,0.5,0.1,0.8v4.6h-1v-4.1
		c0-0.2,0-0.4,0-0.5c0-0.2-0.1-0.3-0.2-0.4s-0.2-0.2-0.4-0.3c-0.2-0.1-0.4-0.1-0.6-0.1c-0.5,0-0.9,0.1-1.2,0.4
		c-0.3,0.3-0.4,0.7-0.4,1.2v3.9h-1v-4.1c0-0.2,0-0.4-0.1-0.6s-0.1-0.3-0.2-0.4c-0.1-0.1-0.2-0.2-0.4-0.3c-0.1-0.1-0.3-0.1-0.6-0.1
		c-0.3,0-0.6,0.1-0.8,0.2c-0.2,0.1-0.4,0.3-0.5,0.4s-0.2,0.3-0.3,0.5c-0.1,0.2-0.1,0.3-0.1,0.5v3.9h-1v-6.2H18.6z"/>
</g>
<line fill-rule="evenodd" clip-rule="evenodd" fill="none" stroke="#211816" stroke-width="0.25" x1="193.3" y1="0.1" x2="193.3" y2="97.5"/>
<polyline fill="none" stroke="#000000" stroke-width="0.25" points="45.4,60.1 39,60.1 39,38.9 45.4,38.9 "/>
<g>
	<rect x="114.5" y="38.9" fill-rule="evenodd" clip-rule="evenodd" fill="#CBCBCB" width="0.4" height="20.5"/>
	<g>
		<g id="形状_2_copy_3_副本_4_74_">
			<g>
				<path fill-rule="evenodd" clip-rule="evenodd" fill="#CCCCCC" d="M54.7,53.2c-1.1,2.1-2,4-3.2,6.2h1.5c0.3-0.5,0.4-0.9,0.8-1.5
					c0.8,0,1.4,0,2.2,0c-0.2-0.5-0.3-0.8-0.4-1.2h-1.2c0.4-0.7,0.6-1.1,1.1-2.1c0.6,1.6,1.1,3.3,1.7,4.7h1.4
					c-0.8-2.2-1.4-4.1-2.2-6.2H54.7z M58.9,59.4h1.3l0.3-6.2l-1.3,0L58.9,59.4z M61,59.4h1.4l0.2-4.6h-1.3L61,59.4z M61.3,53.2l0,1
					c0,0,1,0,1.3,0l0-1C61.4,53.2,61.4,53.2,61.3,53.2z M69.7,54.8c-0.2-0.1-0.5-0.1-0.7-0.1c-0.2,0-0.3,0-0.4,0
					c-0.1,0-0.3,0.1-0.4,0.1C68,54.9,67.9,55,67.8,55c-0.1,0.1-0.2,0.2-0.2,0.2c-0.1,0.1-0.1,0.2-0.2,0.3c-0.1-0.1-0.1-0.3-0.2-0.3
					c-0.1-0.1-0.1-0.1-0.2-0.2c-0.1-0.1-0.2-0.1-0.3-0.2c-0.1,0-0.2-0.1-0.3-0.1c-0.1,0-0.3,0-0.4,0c-0.2,0-0.4,0-0.5,0.1
					c-0.2,0-0.3,0.1-0.4,0.2c-0.1,0.1-0.2,0.2-0.3,0.2c-0.1,0.1-0.2,0.2-0.3,0.3l0-0.7h-1.2l-0.2,4.6c0,0,1,0,1.3,0
					c0-0.4,0-0.9,0.1-1.6c0-0.7,0.1-1.1,0.2-1.4c0.1-0.2,0.2-0.4,0.4-0.6c0.2-0.1,0.3-0.2,0.6-0.2c0.1,0,0.2,0,0.3,0.1
					c0.1,0,0.2,0.1,0.2,0.2c0.1,0.1,0.1,0.2,0.1,0.3c0,0.1,0,0.2,0,0.3c0,0.3,0,0.7-0.1,1.5c0,0.7-0.1,1.2-0.1,1.4
					c0.3,0,1.1,0,1.3,0l0-1.3c0-0.5,0-0.8,0.1-1.1c0-0.3,0.1-0.5,0.1-0.6c0.1-0.2,0.1-0.3,0.2-0.4c0.1-0.1,0.2-0.2,0.3-0.3
					c0.1-0.1,0.2-0.1,0.4-0.1c0.1,0,0.2,0,0.4,0.1c0.1,0,0.2,0.1,0.3,0.2c0.1,0.1,0.1,0.3,0.1,0.5c0,0.2,0,0.4,0,0.7l-0.1,1
					c0,0.4-0.1,0.8-0.1,1.2c0.3,0,1.1,0,1.3,0c0-0.3,0-0.8,0-1.5c0-0.6,0.1-1.1,0.1-1.4c0-0.3,0-0.5,0-0.6c0-0.3-0.1-0.5-0.2-0.7
					C70.2,55,70,54.9,69.7,54.8z M74.7,54.8c-0.3-0.1-0.6-0.1-0.9-0.1c-0.3,0-0.6,0-0.9,0.1c-0.3,0-1.1,0.2-1.1,0.2l-0.1,0.9
					c0,0,1.3-0.4,1.8-0.4c0.1,0,0.3,0,0.4,0c0.1,0,0.2,0.1,0.3,0.2c0.1,0.1,0.1,0.2,0.1,0.3c0,0.1,0,0.1,0,0.2
					c0,0.1-0.1,0.1-0.1,0.2c-0.1,0.1-0.1,0.1-0.2,0.1c-0.1,0-0.2,0.1-0.3,0.1c-0.1,0-0.2,0.1-0.4,0.1c-0.4,0.1-0.8,0.2-1.1,0.3
					c-0.3,0.1-0.5,0.2-0.6,0.3c-0.1,0.1-0.3,0.2-0.3,0.3c-0.1,0.1-0.2,0.2-0.2,0.4c0,0.1-0.1,0.3-0.1,0.4c0,0.2,0.1,0.5,0.2,0.7
					c0.1,0.2,0.3,0.4,0.5,0.5c0.2,0.1,0.6,0.2,0.9,0.2c0.1,0,0.2,0,0.4,0c0.1,0,0.3,0,0.5-0.1c0.1-0.3,0.2-0.6,0.2-0.8
					c-0.2,0.1-0.3,0.1-0.4,0.1c-0.1,0-0.2,0-0.3,0c-0.2,0-0.3,0-0.4-0.1c-0.1,0-0.2-0.1-0.3-0.2c-0.1-0.1-0.1-0.2-0.1-0.3
					c0-0.1,0-0.2,0-0.2c0-0.1,0.1-0.1,0.1-0.2c0.1-0.1,0.1-0.1,0.2-0.2c0.1,0,0.2-0.1,0.3-0.1c0.1,0,0.3-0.1,0.5-0.1
					c0.2-0.1,0.3-0.1,0.4-0.1c0.1,0,0.1-0.1,0.2-0.1c0.1,0,0.1-0.1,0.3-0.2l-0.2,2.4h1.3c0,0,0-1.5,0.1-2.2c0-0.7,0.1-1.1,0.1-1.3
					c0-0.3-0.1-0.6-0.2-0.7C75.2,55,74.9,54.9,74.7,54.8z M82.8,54.8c-0.2-0.1-0.5-0.1-0.7-0.1c-0.2,0-0.3,0-0.4,0
					c-0.1,0-0.3,0.1-0.4,0.1C81.1,54.9,81,55,80.9,55c-0.1,0.1-0.2,0.2-0.2,0.2c-0.1,0.1-0.1,0.2-0.2,0.3c-0.1-0.1-0.1-0.3-0.2-0.3
					c-0.1-0.1-0.1-0.1-0.2-0.2c-0.1-0.1-0.2-0.1-0.3-0.2c-0.1,0-0.2-0.1-0.3-0.1c-0.1,0-0.3,0-0.4,0c-0.2,0-0.4,0-0.5,0.1
					c-0.2,0-0.3,0.1-0.4,0.2c-0.1,0.1-0.2,0.2-0.3,0.2c-0.1,0.1-0.2,0.2-0.3,0.3l0-0.7h-1.2l-0.2,4.6h1.3c0,0,0-0.9,0-1.6
					c0-0.7,0.1-1.1,0.2-1.4c0.1-0.2,0.2-0.4,0.4-0.6c0.2-0.1,0.3-0.2,0.6-0.2c0.1,0,0.2,0,0.3,0.1c0.1,0,0.2,0.1,0.2,0.2
					c0.1,0.1,0.1,0.2,0.1,0.3c0,0.1,0,0.2,0,0.3c0,0.3,0,0.7-0.1,1.5c0,0.7-0.1,1.2-0.1,1.4c0.3,0,1.1,0,1.3,0l0-1.3
					c0-0.5,0-0.8,0.1-1.1c0-0.3,0.1-0.5,0.1-0.6c0.1-0.2,0.1-0.3,0.2-0.4c0.1-0.1,0.2-0.2,0.3-0.3c0.1-0.1,0.2-0.1,0.4-0.1
					c0.1,0,0.3,0,0.4,0.1c0.1,0,0.2,0.1,0.3,0.2c0.1,0.1,0.1,0.3,0.1,0.5c0,0.2,0,0.4,0,0.7l-0.1,1c0,0.4-0.1,0.8-0.1,1.2
					c0.3,0,1.1,0,1.3,0c0-0.3,0-0.8,0-1.5c0-0.6,0.1-1.1,0.1-1.4c0-0.3,0-0.5,0-0.6c0-0.3-0.1-0.5-0.2-0.7
					C83.2,55,83,54.9,82.8,54.8z M87.7,54.8c-0.3-0.1-0.6-0.1-0.9-0.1c-0.3,0-0.6,0-0.9,0.1c-0.3,0-1.1,0.2-1.1,0.2l-0.1,0.9
					c0,0,1.3-0.4,1.8-0.4c0.1,0,0.3,0,0.4,0c0.1,0,0.2,0.1,0.3,0.2c0.1,0.1,0.1,0.2,0.1,0.3c0,0.1,0,0.1,0,0.2
					c0,0.1-0.1,0.1-0.1,0.2c-0.1,0.1-0.1,0.1-0.2,0.1c-0.1,0-0.2,0.1-0.3,0.1c-0.1,0-0.2,0.1-0.4,0.1c-0.4,0.1-0.8,0.2-1,0.3
					c-0.3,0.1-0.5,0.2-0.6,0.3c-0.1,0.1-0.3,0.2-0.3,0.3c-0.1,0.1-0.2,0.2-0.2,0.4c0,0.1-0.1,0.3-0.1,0.4c0,0.2,0.1,0.5,0.2,0.7
					c0.1,0.2,0.3,0.4,0.5,0.5c0.2,0.1,0.6,0.2,0.9,0.2c0.1,0,0.2,0,0.4,0c0.1,0,0.3,0,0.5-0.1c0.1-0.3,0.2-0.6,0.2-0.8
					c-0.2,0.1-0.3,0.1-0.4,0.1c-0.1,0-0.2,0-0.3,0c-0.2,0-0.3,0-0.4-0.1c-0.1,0-0.2-0.1-0.3-0.2c-0.1-0.1-0.1-0.2-0.1-0.3
					c0-0.1,0-0.2,0-0.2c0-0.1,0.1-0.1,0.1-0.2c0.1-0.1,0.1-0.1,0.2-0.2c0.1,0,0.2-0.1,0.3-0.1c0.1,0,0.3-0.1,0.5-0.1
					c0.2-0.1,0.3-0.1,0.4-0.1c0.1,0,0.1-0.1,0.2-0.1c0.1,0,0.1-0.1,0.3-0.2l-0.2,2.4h1.3c0,0,0-1.5,0.1-2.2c0-0.7,0.1-1.1,0.1-1.3
					c0-0.3-0.1-0.6-0.2-0.7C88.2,55,88,54.9,87.7,54.8z M89.2,58.2c0,0.6,0,1-0.1,1.2c0.4,0,1.3,0,1.3,0s0-1,0.1-1.2
					C90.1,58.2,89.2,58.2,89.2,58.2z M92.6,56.1c0.1-0.2,0.3-0.3,0.5-0.3c0.2-0.1,0.4-0.1,0.6-0.1c0.3,0,0.7,0.1,1.2,0.2l-0.1-1
					c-0.3-0.1-0.5-0.1-0.7-0.1c-0.2,0-0.4,0-0.6,0c-0.4,0-0.7,0-1,0.1c-0.3,0.1-0.6,0.2-0.8,0.5c-0.2,0.2-0.4,0.5-0.5,0.9
					c-0.1,0.4-0.2,0.7-0.2,1.1c0,0.3,0,0.6,0.1,0.8c0.1,0.3,0.2,0.5,0.3,0.7c0.1,0.2,0.3,0.3,0.5,0.5c0.2,0.1,0.4,0.2,0.6,0.2
					c0.2,0,0.5,0.1,0.7,0.1c0.4,0,0.9-0.1,1.3-0.2c0-0.2,0.1-0.4,0.1-0.6c0-0.2,0.1-0.3,0.1-0.4c-0.2,0.1-0.4,0.1-0.6,0.2
					c-0.2,0-0.4,0.1-0.5,0.1c-0.3,0-0.5-0.1-0.7-0.2c-0.2-0.1-0.4-0.3-0.5-0.5c-0.1-0.2-0.1-0.5-0.1-0.7c0-0.2,0-0.4,0.1-0.6
					C92.3,56.4,92.4,56.2,92.6,56.1z M99.5,55.3c-0.2-0.2-0.5-0.4-0.8-0.5c-0.3-0.1-0.7-0.2-1-0.2c-0.4,0-0.7,0.1-1.1,0.2
					c-0.4,0.1-0.6,0.3-0.9,0.6c-0.2,0.2-0.4,0.5-0.5,0.8c-0.1,0.3-0.2,0.6-0.2,1c0,0.3,0.1,0.6,0.2,0.9c0.1,0.3,0.3,0.6,0.5,0.8
					c0.2,0.2,0.5,0.4,0.8,0.5c0.3,0.1,0.7,0.2,1,0.2c0.4,0,0.7-0.1,1.1-0.2c0.3-0.1,0.6-0.3,0.8-0.5c0.2-0.2,0.4-0.5,0.5-0.8
					c0.1-0.3,0.2-0.7,0.2-1c0-0.3-0.1-0.6-0.2-0.9C99.9,55.8,99.8,55.5,99.5,55.3z M98.7,57.8c-0.1,0.3-0.3,0.5-0.5,0.6
					c-0.2,0.1-0.4,0.2-0.7,0.2c-0.3,0-0.5-0.1-0.7-0.2c-0.2-0.1-0.3-0.3-0.4-0.5c-0.1-0.2-0.1-0.4-0.1-0.7c0-0.3,0.1-0.6,0.2-0.8
					c0.1-0.3,0.3-0.4,0.5-0.6c0.2-0.1,0.4-0.2,0.7-0.2c0.3,0,0.5,0.1,0.7,0.2c0.2,0.1,0.3,0.3,0.4,0.5c0.1,0.2,0.1,0.4,0.1,0.7
					C98.9,57.3,98.8,57.6,98.7,57.8z M107.7,55.2c-0.1-0.2-0.3-0.3-0.6-0.4c-0.2-0.1-0.5-0.1-0.7-0.1c-0.2,0-0.3,0-0.4,0
					c-0.1,0-0.3,0.1-0.4,0.1c-0.1,0.1-0.2,0.1-0.3,0.2c-0.1,0.1-0.2,0.2-0.2,0.2c-0.1,0.1-0.1,0.2-0.2,0.3c-0.1-0.1-0.1-0.3-0.2-0.3
					c-0.1-0.1-0.1-0.1-0.2-0.2c-0.1-0.1-0.2-0.1-0.3-0.2c-0.1,0-0.2-0.1-0.3-0.1c-0.1,0-0.3,0-0.4,0c-0.2,0-0.4,0-0.5,0.1
					c-0.2,0-0.3,0.1-0.4,0.2c-0.1,0.1-0.2,0.2-0.3,0.2c-0.1,0.1-0.2,0.2-0.3,0.3l0-0.7c-0.2,0-1,0-1.2,0c0,0.5-0.2,4.1-0.2,4.6
					c0.3,0,1,0,1.3,0c0-0.4,0-0.9,0-1.6c0-0.7,0.1-1.1,0.2-1.4c0.1-0.2,0.2-0.4,0.4-0.6c0.2-0.1,0.3-0.2,0.6-0.2
					c0.1,0,0.2,0,0.3,0.1c0.1,0,0.2,0.1,0.2,0.2c0.1,0.1,0.1,0.2,0.1,0.3c0,0.1,0,0.2,0,0.3c0,0.3,0,0.7-0.1,1.5
					c0,0.7-0.1,1.2-0.1,1.4c0.3,0,1,0,1.3,0l0-1.3c0-0.5,0-0.8,0.1-1.1c0-0.3,0.1-0.5,0.1-0.6c0.1-0.2,0.1-0.3,0.2-0.4
					c0.1-0.1,0.2-0.2,0.3-0.3c0.1-0.1,0.2-0.1,0.4-0.1c0.1,0,0.2,0,0.4,0.1c0.1,0,0.2,0.1,0.3,0.2c0.1,0.1,0.1,0.3,0.1,0.5
					c0,0.2,0,0.4,0,0.7l-0.1,1c0,0.4-0.1,0.8-0.1,1.2c0.3,0,1.1,0,1.3,0c0-0.3,0-0.8,0.1-1.5c0-0.6,0.1-1.1,0.1-1.4
					c0-0.3,0-0.5,0-0.6C107.9,55.6,107.8,55.4,107.7,55.2z"/>
			</g>
		</g>
		<g id="形状_2_copy_3_副本_5_72_">
			<g>
				<path fill-rule="evenodd" clip-rule="evenodd" fill="#FF6600" d="M57,40.2c1.9,0,3.9,0,5.8,0c0,2.9,0,5.9,0,8.6
					c0,0.2-0.2,0.4-0.4,0.4c-0.3,0-0.4,0-0.8,0v1.4c0.4,0,0.8,0,1.3,0c1.1,0,1.9-0.5,1.9-1.5c0-2.2,0-6.6,0-8.9h0.7v-1.3H57V40.2z
					 M86.7,46.4c-0.5,0-1.4,0.5-1.4,1.4c1.7,0,4.4,0,6.2,0c0,0.3,0,0.7,0,1.1c0.6,0,0.4,0,1,0c0.4,0,0.9-0.3,0.9-0.9
					c0-1.5,0-2.6,0-4.1c-0.3,0-0.6,0-0.8,0c0-1.1,0-3.4,0-4.3c0-0.3-0.3-0.7-0.8-0.7h-6.1v1.3h4.7c0,1.2,0,2.4,0,3.7
					c-1.1,0-1.3,0-2.3,0c-0.1,0-0.3-0.1-0.3-0.2c0-0.6,0-1.6,0-2.4c0-0.2-0.2-0.4-0.5-0.4H86v3.2c0,0.6,0.5,1.1,1.1,1.1
					c0,0,2.4,0,4.4,0v1.2H86.7z M61.9,46.8c0-1.5,0-3.7,0-5.8h-4.8v7.4c1.4,0,3.2,0,3.2,0C61.5,48.4,61.9,47.7,61.9,46.8z
					 M59.9,47.1c-0.3,0-0.7,0-1.2,0v-4.6c0.5,0,1.1,0,1.6,0c0,1.4,0,2.9,0,4.2C60.3,46.9,60.1,47.1,59.9,47.1z M51.6,39.2
					c0,2.6,0,6.1,0,11.4h1.8c0-3.3,0-7,0-10.4c0.4,0,0.9,0,1.3,0c0,2,0,3.8,0,5.6c0,0.8-0.7,1-0.7,1v1.5c1.3,0,2.4-1.3,2.4-2.5
					c0-2.1,0-4.9,0-7c-1.6,0-2.8,0-4.5,0C51.6,38.9,51.6,39.2,51.6,39.2z M107.3,43.9c0-1.1,0-3.4,0-4.3c0-0.3-0.3-0.7-0.8-0.7h-6.1
					v1.3c1.6,0,3.1,0,4.7,0v3.7c-1.1,0-1.3,0-2.3,0c-0.1,0-0.3-0.1-0.3-0.2c0-0.6,0-1.6,0-2.4c0-0.2-0.2-0.4-0.5-0.4
					c-0.4,0-0.9,0-1.4,0v3.2c0,0.6,0.5,1.1,1.1,1.1c0,0,2.4,0,4.4,0v1.2h-4.8c-0.5,0-1.4,0.5-1.4,1.3c1.7,0,4.3,0,6.2,0V49
					c0,0.2-0.2,0.3-0.4,0.3h-0.7c0,0.6,0,0.9,0,1.3h1.1c0.3,0,0.3,0,0.6,0c0.9,0,1.3-0.6,1.3-1.2c0-1.7,0-3.9,0-5.6
					C107.8,43.9,107.5,43.9,107.3,43.9z M98.6,48.4c0.6-0.7,1-1.6,1.1-3.2c0-1.8,0-3.4,0-5.2c0-0.1-0.2-0.3-0.4-0.3
					c-0.7,0-1.5,0-2.3,0v-0.8h-1.8c0,0.3,0,0.5,0,0.8c-0.2,0-0.4,0-0.6,0V41h0.6v4.2c0,1.6,0.5,2.4,1.2,3.2
					c-0.8,0.5-1.6,0.9-2.7,0.9c-0.1,0-0.3,0-0.5,0c-1.7,0-3.7,0-5.5,0c-1.7,0-3.3-0.3-3.9-1c0.6-0.8,0.9-1.4,1.1-3c0-1.6,0-3,0-5.1
					c0-0.2-0.2-0.4-0.4-0.4c-0.7,0-1.4,0-2.3,0v-0.8c-0.7,0-1,0-1.7,0v0.8c-0.2,0-0.3,0-0.6,0V41c0.3,0,0.4,0,0.6,0
					c0,1.4,0,2.9,0,4.2c0.1,1.6,0.6,2.2,1.3,3.1c-0.9,0.6-2,0.9-3.3,1c-1.5,0-2.9,0-4.8,0c0-0.3,0-0.8,0-1h4.8v-1.4h-4.8
					c0-0.3,0-0.7,0-1c1.4,0,3.2,0,3.6,0c0,0,1.2,0,1.2-1.3c0-1.4,0-3.8,0-5.6c-3.8,0-7.7,0-11.6,0c-0.2,0-0.4,0.2-0.4,0.3
					c0,0.3,0,4.6,0,6.6c1.6,0,3.2,0,4.8,0v1h-4.8c0,0.4,0,0.9,0,1.4h4.8c0,0.3,0,0.7,0,1h-5.7c0,0.4,0,0.9,0,1.3c4.3,0,9.5,0,13.6,0
					c1.1,0,2.5-0.6,3.5-1.2c1.3,1,2.6,1.2,4.9,1.2c0.7,0,1.5,0,2.3,0c1.2,0,2.3,0,3.2,0c1.9,0,3.1-0.4,4.3-1.1
					c1.1,0.7,2.1,1.1,3.8,1.1v0h2.6v-1.3h-2.6C100.3,49.2,99.4,49,98.6,48.4z M71.4,44.5h-3V43h3V44.5z M71.4,41.6h-3v-1.4
					c1,0,2,0,3,0V41.6z M73.7,40.2h3v1.4h-3V40.2z M73.7,43c1,0,2,0,3,0c0,0.6,0,1,0,1.4h-3C73.7,44.1,73.7,43.5,73.7,43z
					 M83.3,45.2c-0.1,0.9-0.2,1.2-0.4,1.8c-0.3-0.6-0.5-0.8-0.6-1.8c0-1.2,0-2.9,0-4.2h1V45.2z M98.1,45.2c0,0.9-0.2,1.3-0.5,1.8
					c-0.3-0.5-0.5-1-0.5-1.8c0-1.3,0-2.8,0-4.2h1C98.1,42.4,98.1,43.9,98.1,45.2z"/>
			</g>
		</g>
	</g>
	<g>
		<rect x="141.3" y="43.1" fill="#333333" width="2.4" height="0.8"/>
		<polygon fill="#333333" points="141.1,42.3 140.2,44.8 141.4,44.8 142.3,42.3 		"/>
		<rect x="140.4" y="44.9" fill="#333333" width="3" height="0.8"/>
		<rect x="140.2" y="47" fill="#333333" width="3.4" height="0.8"/>
		<rect x="141.2" y="45.6" fill="#333333" width="1.2" height="4.3"/>
		<polygon fill="#333333" points="143.5,49 143.5,49.9 141.2,50.8 141.2,49.8 		"/>
		<rect x="145.6" y="42.3" fill="#333333" width="1.2" height="4.1"/>
		<rect x="146.7" y="43.8" fill="#333333" width="2.3" height="0.8"/>
		<path fill="#333333" d="M148.7,46.3H144V47v0.1v2.9v0.1v0.6h3.5h0.2c0.5,0,1-0.4,1-1v-2.6h0V46.3z M147.6,49.7v0.3h-2.4v-2.9h2.4
			V49.7z"/>
		<rect x="150.1" y="42.6" fill="#333333" width="8.5" height="0.9"/>
		<polygon fill="#333333" points="152.9,43.5 149.7,48.4 151,48.4 154.3,43.5 		"/>
		<rect x="152.7" y="45.5" fill="#333333" width="4.4" height="0.8"/>
		<rect x="151.6" y="45.7" fill="#333333" width="1.2" height="4.1"/>
		<rect x="151.6" y="49.8" fill="#333333" width="5.2" height="0.8"/>
		<rect x="156.8" y="45.5" fill="#333333" width="1.2" height="3.9"/>
		<path fill="#333333" d="M156.8,48.4C156.8,48.4,156.8,48.4,156.8,48.4l0,1.4h-1c0.1,0.5,0.6,0.8,1.1,0.8c0.6,0,1.1-0.5,1.1-1.1
			C158,48.9,157.5,48.4,156.8,48.4z"/>
		<rect x="160" y="42.3" fill="#333333" width="7.6" height="0.8"/>
		<rect x="160" y="43" fill="#333333" width="1.2" height="5.1"/>
		<rect x="161.1" y="43.9" fill="#333333" width="5.4" height="0.7"/>
		<path fill="#333333" d="M167.6,42.9h-0.3c-0.2-0.1-0.4-0.2-0.6-0.2v0.2h-0.2v0.6v0v1h0.2c0.5,0,0.9-0.4,0.9-0.9c0,0,0,0,0-0.1h0
			V42.9z"/>
		<rect x="161.1" y="45.5" fill="#333333" width="6.5" height="0.7"/>
		<rect x="161.1" y="47.1" fill="#333333" width="6.5" height="0.7"/>
		<rect x="162.5" y="44.6" fill="#333333" width="1.2" height="2.8"/>
		<rect x="165" y="44.4" fill="#333333" width="1.2" height="2.8"/>
		<rect x="161.8" y="47.8" fill="#333333" width="1.2" height="2.2"/>
		<polygon fill="#333333" points="164.3,49.4 161.8,49.8 161.8,50.8 164.3,50.2 		"/>
		<polygon fill="#333333" points="163.8,47.9 165.2,47.9 167.6,50.8 166.3,50.8 		"/>
		<polygon fill="#333333" points="166.5,47.9 167.8,47.9 166.5,49.6 165.8,48.8 		"/>
		<polyline fill="#333333" points="160,48.1 159.5,50.6 160.7,50.6 161.2,48.1 		"/>
		<rect x="173.7" y="42.3" fill="#333333" width="1.4" height="1.2"/>
		<rect x="171.4" y="43.4" fill="#333333" width="5.1" height="0.8"/>
		<rect x="171.3" y="50" fill="#333333" width="6.4" height="0.8"/>
		<polygon fill="#333333" points="172,44.9 173.2,44.9 174,50 172.8,50 		"/>
		<polygon fill="#333333" points="175.5,44.9 176.7,44.9 175.9,50 174.7,50 		"/>
		<rect x="169.8" y="44.6" fill="#333333" width="1.2" height="6.1"/>
		<polygon fill="#333333" points="170.5,42.3 168.5,46.2 169.8,46.2 171.7,42.3 		"/>
		<path fill="#333333" d="M175.7,43.4c0,0.5,0.4,0.8,0.8,0.8c0.5,0,0.8-0.4,0.8-0.8H175.7z"/>
		<g>
			<path fill="#888888" d="M141.1,55.2c0,0.3-0.1,0.5-0.3,0.5c-0.1,0-0.2,0-0.3,0c0,0,0,0,0,0c0-0.1,0-0.2,0-0.2c0,0,0.1,0,0.1,0
				c0.1,0,0.1,0,0.2,0c0.1,0,0.2-0.1,0.2-0.3c0-0.2-0.1-0.5-0.3-0.8c0.1-0.2,0.2-0.5,0.3-0.9h-0.4v2.7h-0.2v-2.9h0.9v0.2
				c-0.1,0.5-0.2,0.8-0.3,0.9C141.1,54.7,141.2,55,141.1,55.2z M141.3,53.3h2v0.2h-0.3v2.1c0,0.3-0.1,0.5-0.4,0.5
				c-0.1,0-0.2,0-0.5,0c0,0,0-0.1,0-0.2c0-0.1,0-0.1,0-0.1c0.1,0,0.3,0,0.5,0c0.2,0,0.3-0.1,0.3-0.2v-2.1h-1.4V53.3z M141.4,54h1
				v1.4h-1V54z M141.6,54.2v0.9h0.5v-0.9H141.6z"/>
			<path fill="#888888" d="M145.2,55.2h1.3v-0.4h-1.1v-1.6h2.5v1.6h-1.1v0.4h1.3v0.2h-1.3v0.4h1.5v0.2H145v-0.2h1.5v-0.4h-1.3V55.2z
				 M145.5,53.5V54h0.9v-0.5H145.5z M145.5,54.2v0.5h0.9v-0.5H145.5z M147.6,53.5h-0.9V54h0.9V53.5z M146.7,54.2v0.5h0.9v-0.5H146.7
				z"/>
			<path fill="#888888" d="M151.2,55.7l-0.2,0.2c-0.1,0-0.1-0.1-0.2-0.2c0,0-0.1-0.1-0.1-0.1c-0.1,0.2-0.3,0.4-0.6,0.6
				c0-0.1-0.1-0.1-0.1-0.2c0.2-0.2,0.4-0.4,0.6-0.6c-0.1,0-0.1-0.1-0.2-0.2c-0.1-0.1-0.2-0.2-0.2-0.2c0.1-0.2,0.1-0.5,0.2-1H150
				v-0.2h0.3c0-0.1,0-0.3,0.1-0.6c0-0.1,0-0.1,0-0.1l0.3,0c0,0.1,0,0.2-0.1,0.4c0,0.1,0,0.2,0,0.3h0.6V54c-0.1,0.6-0.2,1-0.3,1.3
				C150.9,55.5,151.1,55.6,151.2,55.7z M150.9,54h-0.4c-0.1,0.3-0.1,0.6-0.2,0.9c0.1,0,0.1,0.1,0.2,0.2c0,0,0.1,0.1,0.1,0.1
				C150.7,54.9,150.8,54.5,150.9,54z M151.1,55.2h1.4v0.2h-1.4V55.2z M151.7,53.7l-0.1,0.9h0.8l0.1-1.1h-1.3v-0.2h1.6l-0.1,1.3h0.3
				c0,0.6,0,0.9-0.1,1.1c0,0.3-0.2,0.5-0.5,0.5c-0.2,0-0.4,0-0.5,0c0-0.1,0-0.1,0-0.2c0,0,0-0.1,0-0.1c0.1,0,0.2,0,0.5,0
				c0.2,0,0.3-0.1,0.3-0.3c0-0.2,0-0.5,0.1-0.9h-1.4l0.1-1.1H151.7z"/>
			<path fill="#888888" d="M156.1,55.7l-0.2,0.2c-0.1,0-0.1-0.1-0.2-0.2c0,0-0.1-0.1-0.1-0.1c-0.1,0.2-0.3,0.4-0.6,0.6
				c0-0.1-0.1-0.1-0.1-0.2c0.2-0.2,0.4-0.4,0.6-0.6c-0.1,0-0.1-0.1-0.2-0.2c-0.1-0.1-0.2-0.2-0.2-0.2c0.1-0.2,0.1-0.5,0.2-1h-0.3
				v-0.2h0.3c0-0.1,0-0.3,0.1-0.6c0-0.1,0-0.1,0-0.1l0.3,0c0,0.1,0,0.2-0.1,0.4c0,0.1,0,0.2,0,0.3h0.6V54c-0.1,0.6-0.2,1-0.3,1.3
				C155.9,55.5,156,55.6,156.1,55.7z M155.8,54h-0.4c-0.1,0.3-0.1,0.6-0.2,0.9c0.1,0,0.1,0.1,0.2,0.2c0,0,0.1,0.1,0.1,0.1
				C155.7,54.9,155.8,54.5,155.8,54z M156.1,55.2h1.4v0.2h-1.4V55.2z M156.6,53.7l-0.1,0.9h0.8l0.1-1.1h-1.3v-0.2h1.6l-0.1,1.3h0.3
				c0,0.6,0,0.9-0.1,1.1c0,0.3-0.2,0.5-0.5,0.5c-0.2,0-0.4,0-0.5,0c0-0.1,0-0.1,0-0.2c0,0,0-0.1,0-0.1c0.1,0,0.2,0,0.5,0
				c0.2,0,0.3-0.1,0.3-0.3c0-0.2,0-0.5,0.1-0.9h-1.4l0.1-1.1H156.6z"/>
			<path fill="#888888" d="M159.8,53.6h1.1v0.2h-0.6c0,0.2,0,0.3,0,0.5h0.6c0,0.6,0,1,0,1.4c0,0.3-0.1,0.5-0.4,0.5
				c-0.1,0-0.2,0-0.3,0c0-0.1,0-0.1,0-0.2c0.1,0,0.2,0,0.3,0c0.1,0,0.2-0.1,0.2-0.2c0-0.2,0-0.6,0-1.2h-0.3c0,0.1,0,0.2,0,0.2
				c0,0.7-0.1,1.2-0.4,1.5c0-0.1-0.1-0.1-0.2-0.2c0.2-0.2,0.3-0.7,0.3-1.3c0-0.1,0-0.2,0-0.5c0-0.2,0-0.3,0-0.5h-0.3V53.6z
				 M160.2,53.2l0.2-0.1c0,0,0,0.1,0.1,0.1c0.1,0.1,0.1,0.2,0.1,0.3l-0.2,0.1C160.4,53.5,160.3,53.4,160.2,53.2z M161.6,55.6
				l0.2,0.2c0,0-0.1,0-0.1,0.1c-0.2,0.2-0.4,0.3-0.6,0.4c0-0.1-0.1-0.1-0.2-0.2C161.2,55.9,161.4,55.8,161.6,55.6z M161,53.8
				c0.2-0.2,0.3-0.4,0.4-0.7l0.2,0.1c0,0-0.1,0.1-0.1,0.2c0,0,0,0.1,0,0.1h1.4v0.2h-1.6c-0.1,0.1-0.1,0.2-0.2,0.3c0,0,0,0,0,0
				C161,53.9,161,53.8,161,53.8z M161.3,53.8h0.2V54h0.8v-0.3h0.2V54h0.3v0.2h-0.3v1.2h0.4v0.2h-2v-0.2h0.3v-1.2H161V54h0.3V53.8z
				 M161.6,54.3v0.3h0.8v-0.3H161.6z M161.6,54.7v0.2h0.8v-0.2H161.6z M161.6,55.2v0.3h0.8v-0.3H161.6z M162.1,55.8l0.1-0.2
				c0.2,0.1,0.4,0.3,0.7,0.4l-0.2,0.2C162.6,56.1,162.3,55.9,162.1,55.8z"/>
			<path fill="#888888" d="M166.4,54.2c0.5,0.3,0.9,0.5,1.3,0.7l-0.2,0.3c-0.5-0.3-0.9-0.5-1.2-0.7v1.8H166v-2.6h-1.3v-0.3h3.1v0.3
				h-1.6v0.8L166.4,54.2z"/>
			<path fill="#888888" d="M170,54.4h1.5c0.1-0.2,0.3-0.4,0.4-0.6l0.2,0.2c-0.1,0.2-0.3,0.4-0.4,0.5h1v0.2h-2.5v0.2
				c0,0.6-0.1,1.1-0.4,1.4c-0.1-0.1-0.1-0.1-0.2-0.2c0.2-0.2,0.4-0.6,0.3-1.2V54.4z M171,53.2l0.3-0.1c0,0,0,0.1,0,0.1
				c0,0.1,0.1,0.2,0.1,0.3h1.4v0.2h-3.1v-0.2h1.5C171.1,53.4,171.1,53.3,171,53.2z M170.4,53.9l0.2-0.1c0,0,0,0.1,0.1,0.1
				c0.1,0.2,0.2,0.3,0.3,0.4l-0.2,0.2C170.6,54.2,170.5,54,170.4,53.9z"/>
			<path fill="#888888" d="M174.7,54.8h1.2v1.5h-0.3V56H175v0.2h-0.2V54.8z M175,55v0.8h0.7V55H175z M175.1,53.3h2.2v1.2h-2.2V53.3z
				 M175.3,53.5v0.7h1.7v-0.7H175.3z M176.4,54.8h1.2v1.5h-0.2V56h-0.7v0.2h-0.3V54.8z M176.6,55v0.8h0.7V55H176.6z"/>
		</g>
		<g>
			<g>
				<polygon fill="#BDD2FC" points="123.6,42.7 129.5,43.5 135.4,42.6 129.5,42.2 				"/>
				<polygon fill="#6699FB" points="123.6,42.7 121.1,44.4 122.7,46.8 123.3,44.9 				"/>
				<polygon fill="#3F83FA" points="123.3,44.9 126.6,47.3 129.5,54.7 122.7,46.8 				"/>
				<polygon fill="#96B8FB" points="127.2,43.2 123.3,44.9 123.6,42.7 				"/>
				<polygon fill="#BDD2FC" points="126.6,47.3 127.2,43.2 123.3,44.9 				"/>
				<polygon fill="#96B8FB" points="127.2,43.2 129.5,45.2 126.6,47.3 				"/>
				<polygon fill="#96B8FB" points="127.2,43.2 129.5,43.5 131.8,43.1 129.5,45.2 				"/>
				<polygon fill="#6699FB" points="129.5,45.2 126.6,47.3 129.5,54.7 				"/>
				<polygon fill="#BDD2FC" points="131.8,43.1 129.5,45.2 132.4,47.2 				"/>
				<polygon fill="#508CFB" points="129.5,45.2 132.4,47.2 129.5,54.7 				"/>
				<polygon fill="#96B8FB" points="131.8,43.1 135.7,44.9 132.4,47.2 				"/>
				<polygon fill="#96B8FB" points="135.7,44.9 136.3,46.8 129.5,54.7 132.4,47.2 				"/>
				<polygon fill="#BDD2FC" points="135.4,42.6 135.7,44.9 136.3,46.8 137.9,44.3 				"/>
			</g>
			<polygon fill="#7DA7FB" points="135.4,42.6 135.7,44.9 131.8,43.1 			"/>
		</g>
	</g>
</g>
</svg>
