<?xml version="1.0" encoding="utf-8"?>
<!-- Generator: Adobe Illustrator 17.1.0, SVG Export Plug-In . SVG Version: 6.00 Build 0)  -->
<!DOCTYPE svg PUBLIC "-//W3C//DTD SVG 1.1//EN" "http://www.w3.org/Graphics/SVG/1.1/DTD/svg11.dtd">
<svg version="1.1" id="图层_1" xmlns="http://www.w3.org/2000/svg" xmlns:xlink="http://www.w3.org/1999/xlink" x="0px" y="0px"
	 viewBox="0 0 269.4 134.8" enable-background="new 0 0 269.4 134.8" xml:space="preserve">
<g>
	<g id="形状_2_copy_3_副本_4_55_">
		<g>
			<path fill-rule="evenodd" clip-rule="evenodd" fill="#CCCCCC" d="M37.4,86.3c-4.1,8.1-7.8,15.2-12.1,23.7h5.8
				c1.1-2,1.7-3.3,3-5.6c3,0,5.3,0,8.3,0c-0.6-1.8-1-3.1-1.6-4.5h-4.6c1.4-2.7,2.1-4.2,4.2-7.9c2.2,6.2,4.3,12.4,6.4,18.1h5.3
				c-3-8.3-5.5-15.5-8.3-23.7H37.4z M53.5,110h5l1.1-23.7l-5,0L53.5,110z M61.4,110h5.3l0.7-17.7h-5.1L61.4,110z M62.5,86.3
				l-0.2,3.8c0,0,3.9,0,5,0l0.2-3.8C63,86.3,63,86.3,62.5,86.3z M94.8,92.4c-0.9-0.3-1.8-0.5-2.9-0.5c-0.6,0-1.2,0.1-1.7,0.2
				c-0.6,0.1-1,0.3-1.5,0.5c-0.4,0.2-0.8,0.4-1.2,0.7c-0.4,0.3-0.6,0.6-0.9,0.8c-0.2,0.3-0.5,0.6-0.7,1c-0.2-0.6-0.4-1-0.6-1.3
				c-0.2-0.3-0.4-0.5-0.7-0.8c-0.3-0.2-0.6-0.4-1-0.6c-0.4-0.2-0.8-0.3-1.3-0.4c-0.5-0.1-1-0.1-1.5-0.1c-0.7,0-1.4,0.1-2,0.3
				c-0.7,0.2-1.2,0.4-1.7,0.7c-0.5,0.3-0.9,0.6-1.2,0.9c-0.3,0.3-0.6,0.8-1,1.3l0.1-2.8h-4.7L69.4,110c0,0,3.9,0,5,0
				c0-1.5,0.1-3.6,0.2-6.1c0.1-2.6,0.3-4.3,0.6-5.2c0.3-0.9,0.7-1.6,1.4-2.1c0.6-0.5,1.3-0.8,2.1-0.8c0.4,0,0.8,0.1,1.2,0.2
				c0.3,0.2,0.6,0.4,0.9,0.7c0.3,0.3,0.4,0.7,0.5,1c0.1,0.4,0.1,0.8,0.1,1.3c0,1-0.1,2.8-0.2,5.6c-0.2,2.8-0.3,4.6-0.3,5.5
				c1.1,0,4,0,5,0l0.1-4.8c0.1-1.7,0.1-3.1,0.2-4.2c0.1-1.1,0.2-1.9,0.4-2.5c0.2-0.6,0.5-1.1,0.8-1.5c0.4-0.4,0.8-0.8,1.2-1
				c0.4-0.2,0.9-0.3,1.4-0.3c0.5,0,1,0.1,1.4,0.3c0.4,0.2,0.7,0.5,1,0.9c0.3,0.4,0.4,1.1,0.4,1.9c0,0.7,0,1.6-0.1,2.6l-0.2,4
				c-0.1,1.6-0.2,3.2-0.3,4.7c1,0,4.1,0,5,0c0-1.3,0.1-3.2,0.2-5.7c0.1-2.4,0.2-4.2,0.3-5.3c0.1-1.1,0.1-1.9,0.1-2.5
				c0-1.1-0.3-1.9-0.8-2.7C96.4,93.3,95.7,92.7,94.8,92.4z M113.6,92.3c-1.1-0.3-2.2-0.4-3.5-0.4c-1.1,0-2.3,0.1-3.5,0.2
				c-1.2,0.2-4.2,0.8-4.2,0.8l-0.5,3.3c0,0,4.9-1.5,7-1.5c0.6,0,1.1,0.1,1.6,0.2c0.5,0.1,0.9,0.3,1.1,0.7c0.3,0.3,0.4,0.7,0.4,1.1
				c0,0.2,0,0.5-0.1,0.7c-0.1,0.2-0.3,0.4-0.5,0.6c-0.2,0.2-0.5,0.4-0.7,0.5c-0.3,0.1-0.7,0.3-1.1,0.4c-0.5,0.1-0.9,0.2-1.4,0.3
				c-1.7,0.4-3,0.7-4,1.1c-1,0.4-1.8,0.7-2.3,1.1c-0.5,0.4-1,0.8-1.3,1.2c-0.3,0.4-0.6,0.9-0.8,1.3c-0.2,0.5-0.3,1-0.3,1.5
				c0,0.9,0.2,1.7,0.7,2.6c0.4,0.9,1.1,1.5,2.1,1.9c0.9,0.4,2.1,0.6,3.6,0.6c0.4,0,0.9,0,1.4-0.1c0.5,0,1.1-0.1,2-0.3
				c0.3-1.3,0.6-2.3,0.9-3c-0.7,0.2-1.3,0.4-1.7,0.4c-0.4,0.1-0.8,0.1-1.2,0.1c-0.6,0-1.1-0.1-1.5-0.2c-0.4-0.1-0.8-0.4-1.1-0.7
				c-0.3-0.4-0.4-0.8-0.4-1.3c0-0.3,0.1-0.6,0.2-0.8c0.1-0.3,0.3-0.5,0.5-0.7c0.2-0.2,0.5-0.5,0.9-0.6c0.4-0.2,0.8-0.4,1.2-0.5
				c0.4-0.1,1-0.3,1.8-0.5c0.7-0.2,1.2-0.4,1.5-0.4c0.3-0.1,0.6-0.2,0.8-0.3c0.2-0.1,0.6-0.3,1-0.6l-0.6,9.2h4.9
				c0,0,0.1-5.7,0.3-8.4c0.2-2.7,0.3-4.4,0.3-5.1c0-1.2-0.3-2.2-0.9-2.8C115.5,93.1,114.7,92.6,113.6,92.3z M144.7,92.4
				c-0.9-0.3-1.8-0.5-2.9-0.5c-0.6,0-1.2,0.1-1.7,0.2c-0.6,0.1-1,0.3-1.5,0.5c-0.4,0.2-0.8,0.4-1.2,0.7c-0.4,0.3-0.6,0.6-0.9,0.8
				c-0.2,0.3-0.4,0.6-0.7,1c-0.2-0.6-0.4-1-0.6-1.3c-0.2-0.3-0.4-0.5-0.7-0.8c-0.3-0.2-0.6-0.4-1-0.6c-0.4-0.2-0.8-0.3-1.3-0.4
				c-0.5-0.1-1-0.1-1.5-0.1c-0.7,0-1.4,0.1-2,0.3c-0.7,0.2-1.2,0.4-1.7,0.7c-0.5,0.3-0.9,0.6-1.2,0.9c-0.3,0.3-0.6,0.8-1,1.3
				l0.1-2.8h-4.7l-0.8,17.7h5c0,0,0.1-3.6,0.2-6.1c0.1-2.6,0.3-4.3,0.6-5.2c0.3-0.9,0.7-1.6,1.3-2.1c0.6-0.5,1.3-0.8,2.1-0.8
				c0.4,0,0.8,0.1,1.2,0.2c0.3,0.2,0.6,0.4,0.9,0.7c0.2,0.3,0.4,0.7,0.5,1c0.1,0.4,0.1,0.8,0.1,1.3c0,1-0.1,2.8-0.2,5.6
				c-0.2,2.8-0.3,4.6-0.3,5.5c1.1,0,4,0,5,0l0.1-4.8c0.1-1.7,0.1-3.1,0.2-4.2c0.1-1.1,0.2-1.9,0.4-2.5c0.2-0.6,0.5-1.1,0.8-1.5
				c0.4-0.4,0.8-0.8,1.2-1c0.4-0.2,0.9-0.3,1.4-0.3c0.5,0,1,0.1,1.4,0.3c0.4,0.2,0.7,0.5,1,0.9c0.3,0.4,0.4,1.1,0.4,1.9
				c0,0.7,0,1.6-0.1,2.6l-0.2,4c-0.1,1.6-0.2,3.2-0.3,4.7c1,0,4.1,0,5,0c0-1.3,0.1-3.2,0.2-5.7c0.1-2.4,0.2-4.2,0.3-5.3
				c0.1-1.1,0.1-1.9,0.1-2.5c0-1.1-0.3-1.9-0.8-2.7C146.3,93.3,145.6,92.7,144.7,92.4z M163.5,92.3c-1.1-0.3-2.2-0.4-3.5-0.4
				c-1.1,0-2.3,0.1-3.5,0.2c-1.2,0.2-4.2,0.8-4.2,0.8l-0.5,3.3c0,0,4.9-1.5,7-1.5c0.6,0,1.1,0.1,1.6,0.2c0.5,0.1,0.9,0.3,1.2,0.7
				c0.3,0.3,0.4,0.7,0.4,1.1c0,0.2-0.1,0.5-0.2,0.7c-0.1,0.2-0.3,0.4-0.5,0.6c-0.2,0.2-0.5,0.4-0.7,0.5c-0.3,0.1-0.7,0.3-1.1,0.4
				c-0.5,0.1-0.9,0.2-1.4,0.3c-1.7,0.4-3,0.7-4,1.1c-1,0.4-1.8,0.7-2.3,1.1c-0.5,0.4-1,0.8-1.3,1.2c-0.3,0.4-0.6,0.9-0.8,1.3
				c-0.2,0.5-0.3,1-0.3,1.5c0,0.9,0.2,1.7,0.7,2.6c0.4,0.9,1.1,1.5,2.1,1.9c0.9,0.4,2.1,0.6,3.6,0.6c0.4,0,0.9,0,1.4-0.1
				c0.5,0,1.1-0.1,2-0.3c0.3-1.3,0.6-2.3,0.9-3c-0.7,0.2-1.3,0.4-1.7,0.4c-0.4,0.1-0.8,0.1-1.2,0.1c-0.6,0-1.1-0.1-1.5-0.2
				c-0.4-0.1-0.8-0.4-1.1-0.7c-0.3-0.4-0.4-0.8-0.4-1.3c0-0.3,0.1-0.6,0.2-0.8c0.1-0.3,0.3-0.5,0.5-0.7c0.2-0.2,0.5-0.5,0.9-0.6
				c0.4-0.2,0.8-0.4,1.2-0.5c0.4-0.1,1-0.3,1.8-0.5c0.7-0.2,1.2-0.4,1.5-0.4c0.3-0.1,0.6-0.2,0.8-0.3c0.2-0.1,0.6-0.3,1-0.6
				l-0.6,9.2h4.9c0,0,0.1-5.7,0.3-8.4c0.2-2.7,0.3-4.4,0.3-5.1c0-1.2-0.3-2.2-0.9-2.8C165.4,93.1,164.5,92.6,163.5,92.3z M169,105.3
				c-0.1,2.3-0.1,3.8-0.2,4.7c1.6,0,4.9,0,4.9,0s0.2-3.8,0.2-4.7C172.7,105.3,169,105.3,169,105.3z M182,97.1c0.5-0.6,1.1-1,1.8-1.3
				c0.7-0.3,1.4-0.4,2.2-0.4c1.3,0,2.8,0.3,4.5,0.9l-0.3-3.8c-1.1-0.3-2-0.4-2.8-0.5c-0.8-0.1-1.6-0.1-2.3-0.1
				c-1.4,0-2.6,0.2-3.7,0.5c-1.1,0.3-2.1,0.9-3,1.7c-0.9,0.9-1.6,1.9-2.1,3.3c-0.5,1.3-0.7,2.7-0.7,4.2c0,1.1,0.1,2.2,0.4,3.2
				c0.3,1,0.7,1.9,1.3,2.7c0.6,0.7,1.2,1.3,2,1.8c0.7,0.4,1.6,0.8,2.4,0.9c0.9,0.2,1.8,0.3,2.7,0.3c1.6,0,3.3-0.2,4.9-0.6
				c0.1-0.9,0.2-1.6,0.4-2.2c0.1-0.6,0.2-1.1,0.3-1.6c-0.8,0.3-1.6,0.5-2.4,0.7c-0.7,0.1-1.4,0.2-1.9,0.2c-1.1,0-2-0.2-2.9-0.7
				c-0.8-0.4-1.4-1.1-1.8-1.9c-0.3-0.8-0.5-1.8-0.5-2.9c0-0.8,0.1-1.6,0.3-2.3C181.1,98.4,181.5,97.7,182,97.1z M208.5,94.3
				c-0.9-0.8-1.9-1.4-3.1-1.8c-1.2-0.4-2.5-0.6-3.8-0.6c-1.4,0-2.8,0.3-4.2,0.7c-1.3,0.5-2.5,1.2-3.3,2.1c-0.9,0.9-1.5,1.9-1.9,3.1
				c-0.4,1.2-0.6,2.4-0.6,3.7c0,1.3,0.2,2.4,0.7,3.6c0.4,1.1,1.1,2.1,2,2.9c0.9,0.8,1.9,1.4,3.1,1.8c1.2,0.4,2.5,0.6,3.8,0.6
				c1.5,0,2.8-0.2,4.1-0.7c1.3-0.4,2.4-1.1,3.2-2c0.9-0.9,1.5-2,2-3.2c0.5-1.2,0.7-2.5,0.7-3.8c0-1.3-0.2-2.4-0.6-3.6
				C210,96,209.4,95.1,208.5,94.3z M205.6,104c-0.4,1-1,1.7-1.7,2.2c-0.8,0.5-1.7,0.8-2.7,0.8c-1,0-1.9-0.2-2.6-0.7
				c-0.7-0.5-1.2-1.1-1.6-1.9c-0.3-0.8-0.5-1.7-0.5-2.7c0-1.1,0.2-2.2,0.6-3.2c0.4-1,1-1.7,1.8-2.2c0.8-0.5,1.7-0.7,2.7-0.7
				c1,0,1.9,0.2,2.6,0.7c0.7,0.5,1.2,1.1,1.5,1.9c0.3,0.8,0.5,1.7,0.5,2.6C206.1,101.9,205.9,103,205.6,104z M239.7,94
				c-0.5-0.7-1.2-1.2-2.1-1.6c-0.9-0.3-1.8-0.5-2.9-0.5c-0.6,0-1.2,0.1-1.7,0.2c-0.6,0.1-1.1,0.3-1.5,0.5c-0.4,0.2-0.8,0.4-1.2,0.7
				c-0.4,0.3-0.6,0.6-0.9,0.8c-0.2,0.3-0.5,0.6-0.7,1c-0.2-0.6-0.4-1-0.6-1.3c-0.2-0.3-0.4-0.5-0.7-0.8c-0.3-0.2-0.6-0.4-1-0.6
				c-0.4-0.2-0.8-0.3-1.3-0.4c-0.5-0.1-1-0.1-1.5-0.1c-0.7,0-1.4,0.1-2,0.3c-0.7,0.2-1.2,0.4-1.7,0.7c-0.5,0.3-0.9,0.6-1.2,0.9
				c-0.3,0.3-0.6,0.8-1,1.3l0.1-2.8c-0.8,0-3.7,0-4.7,0c0,2-0.6,15.7-0.8,17.7c1.1,0,3.9,0,5,0c0-1.5,0.1-3.6,0.2-6.1
				c0.1-2.6,0.3-4.3,0.6-5.2c0.3-0.9,0.7-1.6,1.3-2.1c0.6-0.5,1.3-0.8,2.1-0.8c0.4,0,0.8,0.1,1.2,0.2c0.3,0.2,0.6,0.4,0.9,0.7
				c0.3,0.3,0.4,0.7,0.5,1c0.1,0.4,0.1,0.8,0.1,1.3c0,1-0.1,2.8-0.2,5.6c-0.2,2.8-0.3,4.6-0.3,5.5c1.1,0,4,0,5,0l0.1-4.8
				c0.1-1.7,0.1-3.1,0.2-4.2c0.1-1.1,0.2-1.9,0.4-2.5c0.2-0.6,0.5-1.1,0.8-1.5c0.4-0.4,0.8-0.8,1.2-1c0.4-0.2,0.9-0.3,1.4-0.3
				c0.5,0,1,0.1,1.4,0.3c0.4,0.2,0.7,0.5,1,0.9c0.3,0.4,0.4,1.1,0.4,1.9c0,0.7,0,1.6-0.1,2.6l-0.2,4c-0.1,1.6-0.2,3.2-0.3,4.7
				c1,0,4.1,0,5,0c0-1.3,0.1-3.2,0.2-5.7c0.1-2.4,0.2-4.2,0.3-5.3c0.1-1.1,0.1-1.9,0.1-2.5C240.5,95.6,240.2,94.7,239.7,94z"/>
		</g>
	</g>
	<g id="形状_2_copy_3_副本_5_53_">
		<g>
			<path fill-rule="evenodd" clip-rule="evenodd" fill="#DD2C57" d="M46.1,36.7c7.4,0,14.8,0,22.2,0c0,11,0,22.5,0,32.7
				c0,0.6-0.8,1.6-1.7,1.6c-1.2,0-1.7,0-3.1,0v5.3c1.7,0,3.2,0,4.8,0c4.3,0,7.1-2.1,7.1-5.6c0-8.5,0-25.4,0-34.1H78v-5.1H46.1V36.7z
				 M177.8,69.6c2.4,0,1.5,0,3.8,0c1.4,0,3.3-1.2,3.3-3.3c0-5.6,0-10,0-15.7c-1.1,0-2.2,0-3.1,0c0-4.3,0-13.2,0-16.3
				c0-1.3-1.3-2.7-2.9-2.7h-23.2v5.1h17.9c0,4.6,0,9.3,0,14c-4.3,0-4.9,0-8.6,0c-0.5,0-1-0.5-1-0.9c0-2.4,0-6.1,0-9.2
				c0-0.7-0.7-1.5-1.9-1.5h-5.3v12.3c0,2.4,2.1,4.4,4.4,4.4c0,0,9.1,0,16.7,0v4.6h-18.5c-2,0-5.2,1.9-5.2,5.2
				c6.4,0,16.7-0.1,23.6-0.1C177.8,66.7,177.8,68,177.8,69.6z M64.9,61.9c0-5.8,0-14.1,0-22.1H46.5v28.1c5.4,0,12.2,0,12.2,0
				C63.4,67.9,64.9,65.2,64.9,61.9z M57.1,62.7c-1.3,0-2.8,0-4.7,0V45.2c2,0,4.3,0,6.3,0c0,5.3,0,11.2,0,15.9
				C58.7,62,58.1,62.7,57.1,62.7z M25.4,32.8c0,10.1,0,23.3,0,43.5h6.8c0-12.7,0-26.6,0-39.7c1.6,0,3.5,0,5.1,0c0,7.6,0,14.5,0,21.6
				c0,2.9-2.6,4-2.6,4v5.7c4.8,0,9.1-4.9,9.1-9.5c0-8.2,0-18.6,0-26.8c-6.2,0-10.9,0-17,0C25.3,31.5,25.4,32.8,25.4,32.8z
				 M238.1,50.6c0-4.3,0-13.2,0-16.3c0-1.3-1.3-2.7-2.9-2.7H212v5.1c5.9,0,11.9,0,17.9,0v14c-4.3,0-4.9,0-8.6,0c-0.5,0-1-0.5-1-0.9
				c0-2.3,0-6.1,0-9.2c0-0.7-0.7-1.5-1.8-1.5c-1.5,0-3.6,0-5.3,0v12.3c0,2.4,2.1,4.4,4.4,4.4c0,0,9.1,0,16.7,0v4.6h-18.2
				c-2,0-5.3,1.8-5.3,5c6.4,0,16.6,0,23.5,0v4.8c0,0.8-0.6,1.2-1.6,1.2h-2.7c0,2.3,0,3.6,0,5.1h4.1c1.3,0,1,0,2.3,0
				c3.5,0,5-2.5,4.9-4.5c0-6.4,0-14.9,0-21.3C240.2,50.6,239.1,50.6,238.1,50.6z M205.2,67.9c2.5-2.7,3.8-5.9,4.2-12.1
				c0-6.7,0-13.2,0-19.8c0-0.5-0.7-1.3-1.4-1.3c-2.6,0-5.9,0-8.7,0v-3.1h-6.8c0,1,0,2.1,0,3.1c-0.7,0-1.6,0-2.3,0v5.1h2.3v16
				c0,6.2,2,9.3,4.5,12.1c-3,2.1-6.1,3.4-10.2,3.4c-0.6,0-1.2,0-1.8,0c-6.4,0-14.2,0-21,0c-6.4,0-12.6-1.2-14.9-4
				c2.2-3,3.4-5.4,4-11.6c0-6.2,0-11.4,0-19.4c-0.1-0.9-0.9-1.6-1.6-1.7c-2.7,0-5.4,0-8.7,0v-3.1c-2.8,0-3.9,0-6.7,0v3.1
				c-0.8,0-1.3,0-2.3,0v5.1c1,0,1.6,0,2.3,0c0,5.3,0,11.1,0,15.9c0.5,6.2,2.5,8.2,4.9,11.8c-3.5,2.4-7.7,3.5-12.6,3.7
				c-5.9,0-11.1,0-18.5,0c0-1.3,0-3.1,0-4h18.5v-5.4h-18.5c0-1.3,0-2.7,0-4c5.3,0,12.3,0,13.9,0c0,0,4.5,0,4.6-5
				c0.1-5.2,0-14.5,0-21.4c-14.6,0-29.5,0-44.1,0c-0.7,0-1.4,0.8-1.4,1.3c0,1.1,0,17.4,0,25.1c6.2,0,12.3,0,18.5,0v4H82.8
				c0,1.7,0,3.6,0,5.4h18.5c0,1.3,0,2.7,0,4H79.7c0,1.5,0,3.4,0,5.1c16.2,0,36.3,0.1,52.1,0c4.3,0,9.5-2.2,13.3-4.4
				c4.8,3.7,10.1,4.4,18.8,4.4c2.7,0,5.6,0,8.8,0c4.6,0,8.6,0,12.2,0c7.3,0,12-1.6,16.5-4.2c4.1,2.5,8.1,4,14.6,4.2v0h9.8v-5.1H216
				C211.6,70.9,208,70.2,205.2,67.9z M101.3,52.8H89.9v-5.4h11.4V52.8z M101.3,42H89.9v-5.4c3.8,0,7.6,0,11.4,0V42z M109.8,36.7
				h11.4V42h-11.4V36.7z M109.8,47.4c3.8,0,7.6,0,11.4,0c0,2.2,0,3.9,0,5.4h-11.4C109.8,51.4,109.8,49.2,109.8,47.4z M146.6,55.7
				c-0.2,3.6-0.8,4.4-1.7,6.7c-1.1-2.2-2-3.2-2.2-6.8c0-4.6,0-11.1,0-15.9h3.9V55.7z M203,55.7c-0.1,3.3-0.9,4.9-1.8,6.7
				c-1.1-1.8-2-3.6-2-6.7c0-4.9,0-10.9,0-16h3.8C203,44.9,203,50.8,203,55.7z"/>
		</g>
	</g>
</g>
<rect x="0.6" y="0.7" fill="none" stroke="#CCCCCC" width="268.3" height="133.4"/>
<line fill="none" stroke="#CCCCCC" x1="0.6" y1="0.7" x2="268.9" y2="134.1"/>
</svg>
