<?xml version="1.0" encoding="utf-8"?>
<!-- Generator: Adobe Illustrator 17.1.0, SVG Export Plug-In . SVG Version: 6.00 Build 0)  -->
<!DOCTYPE svg PUBLIC "-//W3C//DTD SVG 1.1//EN" "http://www.w3.org/Graphics/SVG/1.1/DTD/svg11.dtd">
<svg version="1.1" id="图层_1" xmlns="http://www.w3.org/2000/svg" xmlns:xlink="http://www.w3.org/1999/xlink" x="0px" y="0px"
	 viewBox="0 0 388.8 100.4" enable-background="new 0 0 388.8 100.4" xml:space="preserve">
<rect x="0.6" y="0.8" fill="none" stroke="#CCCCCC" width="387" height="98.6"/>
<g>
	<rect x="217.2" y="20.3" fill-rule="evenodd" clip-rule="evenodd" fill="#CBCBCB" width="1.2" height="63.2"/>
	<g>
		<g id="形状_2_copy_3_副本_4_61_">
			<g>
				<path fill-rule="evenodd" clip-rule="evenodd" fill="#CCCCCC" d="M33.2,64.5c-3.3,6.5-6.3,12.3-9.7,19.1h4.7
					C29,82,29.5,81,30.6,79c2.4,0,4.3,0,6.7,0c-0.5-1.4-0.8-2.5-1.3-3.6h-3.7c1.1-2.2,1.7-3.4,3.3-6.4c1.7,5,3.5,10,5.2,14.6h4.3
					c-2.4-6.7-4.4-12.5-6.7-19.1H33.2z M46.2,83.6h4l0.9-19.1l-4,0L46.2,83.6z M52.5,83.6h4.3l0.5-14.3h-4.1L52.5,83.6z M53.4,64.5
					l-0.1,3.1c0,0,3.1,0,4,0l0.2-3.1C53.8,64.4,53.8,64.4,53.4,64.5z M79.5,69.4C78.7,69.1,78,69,77.1,69c-0.5,0-0.9,0-1.4,0.1
					c-0.4,0.1-0.8,0.2-1.2,0.4c-0.4,0.2-0.7,0.4-1,0.6c-0.3,0.2-0.5,0.5-0.7,0.7c-0.2,0.2-0.4,0.5-0.6,0.8c-0.2-0.5-0.4-0.8-0.5-1
					c-0.2-0.2-0.4-0.4-0.6-0.6c-0.2-0.2-0.5-0.4-0.8-0.5c-0.3-0.1-0.7-0.3-1.1-0.3C68.9,69,68.5,69,68.1,69c-0.6,0-1.1,0.1-1.6,0.2
					c-0.5,0.1-1,0.3-1.4,0.6c-0.4,0.2-0.7,0.5-1,0.8c-0.2,0.3-0.5,0.6-0.8,1.1l0.1-2.3h-3.8L59,83.6c0,0,3.1,0,4,0
					c0-1.2,0-2.9,0.2-5c0.1-2.1,0.3-3.5,0.5-4.2c0.2-0.7,0.6-1.3,1.1-1.7c0.5-0.4,1.1-0.6,1.7-0.6c0.4,0,0.7,0.1,0.9,0.2
					c0.3,0.1,0.5,0.3,0.7,0.6c0.2,0.3,0.3,0.5,0.4,0.8c0.1,0.3,0.1,0.6,0.1,1c0,0.8-0.1,2.3-0.2,4.5c-0.1,2.2-0.2,3.7-0.3,4.4
					c0.9,0,3.2,0,4,0l0.1-3.9c0-1.4,0.1-2.5,0.2-3.4c0.1-0.9,0.2-1.5,0.3-2c0.2-0.5,0.4-0.9,0.7-1.2c0.3-0.4,0.6-0.6,1-0.8
					c0.3-0.2,0.7-0.2,1.1-0.2c0.4,0,0.8,0.1,1.1,0.2c0.3,0.1,0.6,0.4,0.8,0.7c0.2,0.3,0.3,0.8,0.3,1.5c0,0.6,0,1.2-0.1,2.1l-0.2,3.2
					c-0.1,1.3-0.2,2.6-0.2,3.8c0.8,0,3.3,0,4,0c0-1.1,0.1-2.6,0.2-4.6c0.1-2,0.2-3.4,0.2-4.3c0.1-0.9,0.1-1.5,0.1-2
					c0-0.9-0.2-1.6-0.6-2.1C80.7,70.1,80.2,69.7,79.5,69.4z M94.6,69.4c-0.9-0.2-1.8-0.4-2.8-0.4c-0.9,0-1.9,0.1-2.8,0.2
					c-1,0.1-3.4,0.6-3.4,0.6l-0.4,2.6c0,0,3.9-1.2,5.7-1.2c0.5,0,0.9,0,1.3,0.1c0.4,0.1,0.7,0.3,0.9,0.5c0.2,0.3,0.4,0.6,0.4,0.9
					c0,0.2,0,0.4-0.1,0.5c-0.1,0.2-0.2,0.3-0.4,0.5c-0.2,0.2-0.4,0.3-0.6,0.4c-0.2,0.1-0.5,0.2-0.9,0.3c-0.4,0.1-0.8,0.2-1.1,0.3
					c-1.3,0.3-2.4,0.6-3.2,0.9c-0.8,0.3-1.4,0.6-1.9,0.9c-0.4,0.3-0.8,0.6-1.1,0.9c-0.3,0.3-0.5,0.7-0.6,1.1
					c-0.1,0.4-0.2,0.8-0.2,1.2c0,0.7,0.2,1.4,0.5,2.1c0.4,0.7,0.9,1.2,1.7,1.5c0.8,0.3,1.7,0.5,2.9,0.5c0.3,0,0.7,0,1.1,0
					c0.4,0,0.9-0.1,1.6-0.2c0.3-1.1,0.5-1.9,0.7-2.4c-0.6,0.2-1,0.3-1.3,0.3c-0.3,0-0.6,0.1-0.9,0.1c-0.5,0-0.9-0.1-1.2-0.2
					c-0.3-0.1-0.6-0.3-0.9-0.6c-0.2-0.3-0.3-0.6-0.3-1c0-0.2,0-0.5,0.1-0.7c0.1-0.2,0.2-0.4,0.4-0.6c0.2-0.2,0.4-0.4,0.7-0.5
					c0.3-0.2,0.6-0.3,1-0.4c0.4-0.1,0.8-0.3,1.4-0.4c0.6-0.2,1-0.3,1.2-0.4c0.2-0.1,0.4-0.2,0.6-0.3c0.2-0.1,0.5-0.3,0.8-0.5
					l-0.5,7.4h4c0,0,0.1-4.6,0.3-6.8c0.1-2.2,0.2-3.5,0.2-4.1c0-1-0.2-1.7-0.7-2.3C96.1,70,95.5,69.6,94.6,69.4z M119.7,69.4
					c-0.7-0.3-1.5-0.4-2.3-0.4c-0.5,0-0.9,0-1.4,0.1c-0.4,0.1-0.8,0.2-1.2,0.4c-0.4,0.2-0.7,0.4-1,0.6c-0.3,0.2-0.5,0.5-0.7,0.7
					c-0.2,0.2-0.4,0.5-0.6,0.8c-0.2-0.5-0.4-0.8-0.5-1c-0.2-0.2-0.4-0.4-0.6-0.6c-0.2-0.2-0.5-0.4-0.8-0.5c-0.3-0.1-0.7-0.3-1.1-0.3
					c-0.4-0.1-0.8-0.1-1.2-0.1c-0.6,0-1.1,0.1-1.6,0.2c-0.5,0.1-1,0.3-1.4,0.6c-0.4,0.2-0.7,0.5-1,0.8c-0.2,0.3-0.5,0.6-0.8,1.1
					l0.1-2.3h-3.8l-0.6,14.3h4c0,0,0.1-2.9,0.2-5c0.1-2.1,0.3-3.5,0.5-4.2c0.2-0.7,0.6-1.3,1.1-1.7c0.5-0.4,1.1-0.6,1.7-0.6
					c0.4,0,0.7,0.1,0.9,0.2c0.3,0.1,0.5,0.3,0.7,0.6c0.2,0.3,0.3,0.5,0.4,0.8c0.1,0.3,0.1,0.6,0.1,1c0,0.8-0.1,2.3-0.2,4.5
					c-0.1,2.2-0.2,3.7-0.3,4.4c0.9,0,3.2,0,4,0l0.1-3.9c0-1.4,0.1-2.5,0.2-3.4c0.1-0.9,0.2-1.5,0.3-2c0.2-0.5,0.4-0.9,0.7-1.2
					c0.3-0.4,0.6-0.6,1-0.8c0.3-0.2,0.7-0.2,1.1-0.2c0.4,0,0.8,0.1,1.1,0.2c0.3,0.1,0.6,0.4,0.8,0.7c0.2,0.3,0.3,0.8,0.3,1.5
					c0,0.6,0,1.2-0.1,2.1l-0.2,3.2c-0.1,1.3-0.2,2.6-0.2,3.8c0.8,0,3.3,0,4,0c0-1.1,0.1-2.6,0.2-4.6c0.1-2,0.2-3.4,0.2-4.3
					c0.1-0.9,0.1-1.5,0.1-2c0-0.9-0.2-1.6-0.6-2.1C120.9,70.1,120.4,69.7,119.7,69.4z M134.8,69.4c-0.9-0.2-1.8-0.4-2.8-0.4
					c-0.9,0-1.9,0.1-2.8,0.2c-1,0.1-3.4,0.6-3.4,0.6l-0.4,2.6c0,0,3.9-1.2,5.7-1.2c0.5,0,0.9,0,1.3,0.1c0.4,0.1,0.7,0.3,0.9,0.5
					c0.2,0.3,0.4,0.6,0.4,0.9c0,0.2,0,0.4-0.1,0.5c-0.1,0.2-0.2,0.3-0.4,0.5c-0.2,0.2-0.4,0.3-0.6,0.4c-0.2,0.1-0.5,0.2-0.9,0.3
					c-0.4,0.1-0.8,0.2-1.1,0.3c-1.3,0.3-2.4,0.6-3.2,0.9c-0.8,0.3-1.4,0.6-1.9,0.9c-0.4,0.3-0.8,0.6-1.1,0.9
					c-0.3,0.3-0.5,0.7-0.6,1.1c-0.1,0.4-0.2,0.8-0.2,1.2c0,0.7,0.2,1.4,0.5,2.1c0.4,0.7,0.9,1.2,1.7,1.5c0.8,0.3,1.7,0.5,2.9,0.5
					c0.3,0,0.7,0,1.1,0c0.4,0,0.9-0.1,1.6-0.2c0.3-1.1,0.5-1.9,0.7-2.4c-0.6,0.2-1,0.3-1.3,0.3c-0.3,0-0.6,0.1-0.9,0.1
					c-0.5,0-0.9-0.1-1.2-0.2c-0.3-0.1-0.6-0.3-0.9-0.6c-0.2-0.3-0.3-0.6-0.3-1c0-0.2,0-0.5,0.1-0.7c0.1-0.2,0.2-0.4,0.4-0.6
					c0.2-0.2,0.4-0.4,0.7-0.5c0.3-0.2,0.6-0.3,1-0.4c0.4-0.1,0.8-0.3,1.4-0.4c0.6-0.2,1-0.3,1.2-0.4c0.2-0.1,0.4-0.2,0.6-0.3
					c0.2-0.1,0.5-0.3,0.8-0.5l-0.5,7.4h4c0,0,0.1-4.6,0.3-6.8c0.1-2.2,0.2-3.5,0.2-4.1c0-1-0.2-1.7-0.7-2.3
					C136.3,70,135.7,69.6,134.8,69.4z M139.3,79.8c-0.1,1.8-0.1,3.1-0.2,3.8c1.3,0,3.9,0,3.9,0s0.1-3.1,0.2-3.8
					C142.2,79.8,139.3,79.8,139.3,79.8z M149.7,73.2c0.4-0.5,0.9-0.8,1.5-1c0.6-0.2,1.2-0.3,1.8-0.3c1,0,2.3,0.2,3.6,0.7l-0.2-3.1
					c-0.9-0.2-1.6-0.4-2.3-0.4c-0.6-0.1-1.3-0.1-1.9-0.1c-1.1,0-2.1,0.1-3,0.4c-0.9,0.2-1.7,0.7-2.4,1.4c-0.7,0.7-1.3,1.6-1.7,2.7
					c-0.4,1.1-0.6,2.2-0.6,3.4c0,0.9,0.1,1.8,0.3,2.6c0.2,0.8,0.6,1.5,1,2.1c0.5,0.6,1,1.1,1.6,1.4c0.6,0.4,1.3,0.6,2,0.8
					c0.7,0.1,1.4,0.2,2.2,0.2c1.3,0,2.6-0.2,4-0.5c0.1-0.7,0.2-1.3,0.3-1.8c0.1-0.5,0.2-0.9,0.2-1.3c-0.7,0.2-1.3,0.4-1.9,0.5
					c-0.6,0.1-1.1,0.2-1.5,0.2c-0.9,0-1.6-0.2-2.3-0.5c-0.7-0.4-1.1-0.9-1.4-1.5c-0.3-0.6-0.4-1.4-0.4-2.3c0-0.6,0.1-1.3,0.3-1.9
					C149,74.2,149.3,73.7,149.7,73.2z M171.1,70.9c-0.7-0.6-1.5-1.1-2.5-1.4c-1-0.3-2-0.5-3.1-0.5c-1.2,0-2.3,0.2-3.4,0.6
					c-1.1,0.4-2,1-2.7,1.7c-0.7,0.7-1.2,1.6-1.5,2.5c-0.3,0.9-0.5,1.9-0.5,2.9c0,1,0.2,2,0.5,2.9c0.4,0.9,0.9,1.7,1.6,2.4
					c0.7,0.6,1.5,1.1,2.5,1.5c1,0.3,2,0.5,3.1,0.5c1.2,0,2.3-0.2,3.3-0.5c1-0.4,1.9-0.9,2.6-1.6c0.7-0.7,1.2-1.6,1.6-2.6
					c0.4-1,0.5-2,0.5-3.1c0-1-0.2-2-0.5-2.9C172.3,72.3,171.8,71.5,171.1,70.9z M168.7,78.7c-0.3,0.8-0.8,1.4-1.4,1.8
					c-0.6,0.4-1.3,0.6-2.2,0.6c-0.8,0-1.5-0.2-2.1-0.6c-0.6-0.4-1-0.9-1.3-1.5c-0.3-0.6-0.4-1.4-0.4-2.2c0-0.9,0.2-1.8,0.5-2.6
					c0.3-0.8,0.8-1.4,1.4-1.8c0.6-0.4,1.4-0.6,2.2-0.6c0.8,0,1.5,0.2,2.1,0.6c0.6,0.4,1,0.9,1.2,1.5c0.2,0.6,0.4,1.3,0.4,2.1
					C169.2,77.1,169,77.9,168.7,78.7z M196.3,70.7c-0.4-0.6-1-1-1.7-1.3c-0.7-0.3-1.5-0.4-2.3-0.4c-0.5,0-0.9,0-1.4,0.1
					c-0.4,0.1-0.8,0.2-1.2,0.4c-0.4,0.2-0.7,0.4-1,0.6c-0.3,0.2-0.5,0.5-0.7,0.7c-0.2,0.2-0.4,0.5-0.6,0.8c-0.2-0.5-0.4-0.8-0.5-1
					c-0.2-0.2-0.4-0.4-0.6-0.6c-0.2-0.2-0.5-0.4-0.8-0.5c-0.3-0.1-0.7-0.3-1.1-0.3c-0.4-0.1-0.8-0.1-1.2-0.1c-0.6,0-1.1,0.1-1.6,0.2
					c-0.5,0.1-1,0.3-1.4,0.6c-0.4,0.2-0.7,0.5-1,0.8c-0.2,0.3-0.5,0.6-0.8,1.1l0.1-2.3c-0.7,0-3,0-3.8,0c0,1.6-0.5,12.7-0.6,14.3
					c0.9,0,3.1,0,4,0c0-1.2,0.1-2.9,0.2-5c0.1-2.1,0.3-3.5,0.5-4.2c0.2-0.7,0.6-1.3,1.1-1.7c0.5-0.4,1.1-0.6,1.7-0.6
					c0.4,0,0.7,0.1,0.9,0.2c0.3,0.1,0.5,0.3,0.7,0.6c0.2,0.3,0.3,0.5,0.4,0.8c0.1,0.3,0.1,0.6,0.1,1c0,0.8-0.1,2.3-0.2,4.5
					c-0.1,2.2-0.2,3.7-0.3,4.4c0.9,0,3.2,0,4,0l0.1-3.9c0-1.4,0.1-2.5,0.2-3.4c0.1-0.9,0.2-1.5,0.4-2c0.2-0.5,0.4-0.9,0.7-1.2
					c0.3-0.4,0.6-0.6,1-0.8c0.3-0.2,0.7-0.2,1.1-0.2c0.4,0,0.8,0.1,1.1,0.2c0.3,0.1,0.6,0.4,0.8,0.7c0.2,0.3,0.3,0.8,0.3,1.5
					c0,0.6,0,1.2-0.1,2.1l-0.2,3.2c-0.1,1.3-0.2,2.6-0.2,3.8c0.8,0,3.3,0,4,0c0-1.1,0.1-2.6,0.2-4.6c0.1-2,0.2-3.4,0.2-4.3
					c0.1-0.9,0.1-1.5,0.1-2C196.9,71.9,196.7,71.2,196.3,70.7z"/>
			</g>
		</g>
		<g id="形状_2_copy_3_副本_5_59_">
			<g>
				<path fill-rule="evenodd" clip-rule="evenodd" fill="#FF6600" d="M40.2,24.5c6,0,11.9,0,17.9,0c0,8.9,0,18.1,0,26.4
					c0,0.5-0.7,1.3-1.4,1.3c-0.9,0-1.3,0-2.5,0v4.3c1.4,0,2.6,0,3.9,0c3.4,0,5.7-1.7,5.7-4.5c0-6.8,0-20.5,0-27.5h2.1v-4.1H40.2
					V24.5z M146.4,51c1.9,0,1.2,0,3.1,0c1.1,0,2.6-0.9,2.6-2.7c0-4.5,0-8.1,0-12.6c-0.9,0-1.8,0-2.5,0c0-3.5,0-10.6,0-13.2
					c0-1-1-2.2-2.4-2.2h-18.7v4.1H143c0,3.7,0,7.5,0,11.3c-3.4,0-4,0-6.9,0c-0.4,0-0.8-0.4-0.8-0.7c0-1.9,0-4.9,0-7.4
					c0-0.6-0.6-1.2-1.5-1.2h-4.3v10c0,1.9,1.7,3.5,3.5,3.5c0,0,7.3,0,13.4,0v3.7h-14.9c-1.6,0-4.2,1.6-4.2,4.2
					c5.2,0,13.4-0.1,19.1-0.1C146.4,48.6,146.4,49.8,146.4,51z M55.4,44.8c0-4.7,0-11.4,0-17.8H40.5v22.7c4.4,0,9.9,0,9.9,0
					C54.1,49.6,55.4,47.5,55.4,44.8z M49.1,45.5c-1.1,0-2.2,0-3.8,0V31.3c1.6,0,3.5,0,5.1,0c0,4.3,0,9.1,0,12.8
					C50.4,44.9,49.9,45.5,49.1,45.5z M23.5,21.4c0,8.1,0,18.8,0,35.1H29c0-10.2,0-21.4,0-32c1.3,0,2.8,0,4.1,0c0,6.1,0,11.7,0,17.4
					c0,2.4-2.1,3.2-2.1,3.2v4.6c3.9,0,7.4-4,7.4-7.6c0-6.6,0-15,0-21.6c-5,0-8.8,0-13.7,0C23.4,20.3,23.5,21.4,23.5,21.4z M195,35.7
					c0-3.5,0-10.6,0-13.2c0-1-1-2.2-2.4-2.2h-18.7v4.1c4.8,0,9.6,0,14.4,0v11.3c-3.4,0-4,0-6.9,0c-0.4,0-0.8-0.4-0.8-0.7
					c0-1.9,0-4.9,0-7.4c0-0.6-0.6-1.2-1.5-1.2c-1.2,0-2.9,0-4.3,0v9.9c0,1.9,1.7,3.5,3.5,3.5c0,0,7.3,0,13.4,0v3.7h-14.7
					c-1.6,0-4.3,1.4-4.3,4.1c5.2,0,13.3,0,19,0v3.8c0,0.6-0.5,0.9-1.3,0.9h-2.2c0,1.9,0,2.9,0,4.1h3.3c1,0,0.8,0,1.8,0
					c2.8,0,4-2,4-3.6c0-5.2,0-12,0-17.2C196.7,35.7,195.7,35.7,195,35.7z M168.4,49.6c2-2.2,3.1-4.8,3.3-9.8c0-5.4,0-10.6,0-16
					c0-0.4-0.6-1-1.1-1c-2.1,0-4.8,0-7.1,0v-2.5h-5.5c0,0.8,0,1.7,0,2.5c-0.6,0-1.3,0-1.8,0V27h1.8v12.9c0,5,1.6,7.5,3.7,9.8
					c-2.4,1.7-4.9,2.7-8.3,2.7c-0.5,0-0.9,0-1.4,0c-5.2,0-11.4,0-16.9,0c-5.2,0-10.2-0.9-12-3.2c1.8-2.4,2.7-4.3,3.3-9.3
					c0-5,0-9.2,0-15.6c-0.1-0.7-0.7-1.3-1.3-1.4c-2.2,0-4.4,0-7,0v-2.5c-2.3,0-3.1,0-5.4,0v2.5c-0.6,0-1.1,0-1.8,0V27
					c0.8,0,1.3,0,1.8,0c0,4.2,0,8.9,0,12.8c0.4,5,2,6.6,3.9,9.5c-2.8,1.9-6.2,2.8-10.2,3c-4.7,0-9,0-14.9,0c0-1,0-2.5,0-3.2h14.9
					v-4.3H91.6c0-1,0-2.2,0-3.2c4.3,0,9.9,0,11.2,0c0,0,3.6,0,3.7-4c0-4.2,0-11.7,0-17.3c-11.8,0-23.8,0-35.6,0
					c-0.6,0-1.1,0.6-1.1,1.1c0,0.9,0,14,0,20.2c5,0,9.9,0,14.9,0v3.2H69.8c0,1.3,0,2.9,0,4.3h14.9c0,1.1,0,2.2,0,3.2H67.3
					c0,1.2,0,2.8,0,4.1c13.1,0,29.3,0.1,42,0c3.4,0,7.7-1.8,10.7-3.6c3.9,3,8.1,3.6,15.2,3.6c2.1,0,4.5,0,7.1,0c3.7,0,6.9,0,9.8,0
					c5.9,0,9.7-1.3,13.3-3.4c3.3,2,6.5,3.2,11.7,3.4v0h7.9v-4.1h-7.9C173.6,52,170.7,51.5,168.4,49.6z M84.7,37.5h-9.2v-4.3h9.2
					V37.5z M84.7,28.8h-9.2v-4.3c3.1,0,6.1,0,9.2,0V28.8z M91.6,24.5h9.2v4.3h-9.2V24.5z M91.6,33.1c3.1,0,6.1,0,9.2,0
					c0,1.7,0,3.1,0,4.3h-9.2C91.6,36.3,91.6,34.5,91.6,33.1z M121.2,39.8c-0.2,2.9-0.6,3.6-1.3,5.4c-0.9-1.8-1.6-2.6-1.8-5.4
					c0-3.7,0-8.9,0-12.9h3.2V39.8z M166.7,39.8c-0.1,2.7-0.7,3.9-1.5,5.4c-0.9-1.4-1.6-2.9-1.6-5.4c0-4,0-8.8,0-12.9h3.1
					C166.6,31.1,166.6,35.8,166.7,39.8z"/>
			</g>
		</g>
	</g>
	<g>
		<rect x="242.6" y="33.4" fill="#333333" width="7.4" height="2.5"/>
		<polygon fill="#333333" points="242.1,30.9 239.3,38.4 242.8,38.4 245.6,30.9 		"/>
		<rect x="239.8" y="38.8" fill="#333333" width="9.4" height="2.4"/>
		<rect x="239.2" y="45.2" fill="#333333" width="10.5" height="2.4"/>
		<rect x="242.4" y="41" fill="#333333" width="3.6" height="13.3"/>
		<polygon fill="#333333" points="249.4,51.5 249.4,54.3 242.4,56.9 242.4,53.9 		"/>
		<rect x="256" y="30.9" fill="#333333" width="3.6" height="12.5"/>
		<rect x="259.3" y="35.5" fill="#333333" width="7.1" height="2.4"/>
		<path fill="#333333" d="M265.4,43.3h-14.5v2v0.4v9v0.3v1.8h10.9h0.5c1.7,0,3.1-1.4,3.1-3.1c0,0,0-8.1,0-8.1h0V43.3z M261.9,53.8
			v1.1h-7.5v-9h7.5V53.8z"/>
		<rect x="269.8" y="31.9" fill="#333333" width="26.3" height="2.7"/>
		<polygon fill="#333333" points="278.4,34.6 268.3,49.5 272.5,49.5 282.6,34.6 		"/>
		<rect x="277.8" y="40.8" fill="#333333" width="13.5" height="2.6"/>
		<rect x="274.4" y="41.4" fill="#333333" width="3.6" height="12.6"/>
		<rect x="274.4" y="53.9" fill="#333333" width="15.9" height="2.6"/>
		<rect x="290.3" y="40.8" fill="#333333" width="3.6" height="12.1"/>
		<path fill="#333333" d="M290.4,49.5c-0.1,0-0.1,0-0.2,0v4.4H287c0.4,1.5,1.8,2.6,3.4,2.6c1.9,0,3.5-1.6,3.5-3.5
			C293.9,51.1,292.3,49.5,290.4,49.5z"/>
		<rect x="300.1" y="30.9" fill="#333333" width="23.5" height="2.4"/>
		<rect x="300.1" y="32.9" fill="#333333" width="3.6" height="15.8"/>
		<rect x="303.5" y="35.7" fill="#333333" width="16.6" height="2.3"/>
		<path fill="#333333" d="M323.5,32.8h-1c-0.5-0.4-1.2-0.7-1.9-0.7v0.7H320v1.9v0.1V38h0.6c1.6,0,2.9-1.3,2.9-2.9c0-0.1,0-0.2,0-0.2
			h0V32.8z"/>
		<rect x="303.6" y="40.6" fill="#333333" width="20.1" height="2.1"/>
		<rect x="303.6" y="45.5" fill="#333333" width="20.1" height="2.2"/>
		<rect x="307.9" y="37.8" fill="#333333" width="3.6" height="8.8"/>
		<rect x="315.6" y="37.5" fill="#333333" width="3.6" height="8.8"/>
		<rect x="305.6" y="47.7" fill="#333333" width="3.5" height="6.8"/>
		<polygon fill="#333333" points="313.5,52.6 305.6,54 305.6,56.9 313.5,55.1 		"/>
		<polygon fill="#333333" points="311.7,48.2 316.1,48.2 323.7,56.9 319.4,56.9 		"/>
		<polygon fill="#333333" points="320.2,48.2 324.1,48.2 320.2,53.2 318.1,50.8 		"/>
		<polyline fill="#333333" points="300.1,48.8 298.5,56.3 302.1,56.3 303.7,48.8 		"/>
		<rect x="342.4" y="30.9" fill="#333333" width="4.3" height="3.7"/>
		<rect x="335.3" y="34.3" fill="#333333" width="15.7" height="2.5"/>
		<rect x="334.8" y="54.6" fill="#333333" width="19.6" height="2.3"/>
		<polygon fill="#333333" points="337.2,38.9 340.9,38.9 343.3,54.6 339.6,54.6 		"/>
		<polygon fill="#333333" points="347.9,38.9 351.6,38.9 349.2,54.6 345.5,54.6 		"/>
		<rect x="330.4" y="38.1" fill="#333333" width="3.6" height="18.9"/>
		<polygon fill="#333333" points="332.3,30.9 326.3,42.8 330.2,42.8 336.1,30.9 		"/>
		<path fill="#333333" d="M348.5,34.3c0,1.4,1.2,2.5,2.6,2.5c1.4,0,2.5-1.1,2.6-2.5H348.5z"/>
		<g>
			<path fill="#888888" d="M242.1,70.6c0,1-0.3,1.5-1,1.5c-0.3,0-0.6,0-1,0c0,0,0-0.1,0-0.1c0-0.3-0.1-0.5-0.1-0.7
				c0.1,0,0.2,0,0.3,0c0.2,0,0.4,0,0.5,0c0.4,0,0.5-0.3,0.5-0.8c0-0.7-0.3-1.5-1-2.3c0.2-0.6,0.5-1.5,0.8-2.8H240v8.4h-0.7v-9h2.8
				v0.7c-0.5,1.4-0.7,2.3-0.9,2.7C241.8,69,242.1,69.8,242.1,70.6z M242.5,64.8h6.1v0.7h-0.9v6.6c0.1,1-0.4,1.5-1.4,1.4
				c-0.3,0-0.8,0-1.5,0c0-0.1-0.1-0.3-0.1-0.5c-0.1-0.2-0.1-0.3-0.1-0.3c0.4,0,0.9,0,1.5,0c0.5,0,0.8-0.2,0.8-0.7v-6.6h-4.4V64.8z
				 M242.8,66.9h3v4.3h-3V66.9z M243.5,67.6v2.9h1.6v-2.9H243.5z"/>
			<path fill="#888888" d="M254.5,70.7h3.9v-1.1h-3.5v-4.8h7.8v4.8h-3.5v1.1h3.9v0.7h-3.9v1.3h4.5v0.7h-9.8v-0.7h4.5v-1.3h-3.9V70.7
				z M255.6,65.3v1.5h2.8v-1.5H255.6z M255.6,67.4v1.4h2.8v-1.4H255.6z M262,65.3h-2.8v1.5h2.8V65.3z M259.2,67.4v1.4h2.8v-1.4
				H259.2z"/>
			<path fill="#888888" d="M273.1,72.3l-0.6,0.5c-0.2-0.1-0.4-0.3-0.7-0.7c-0.1-0.1-0.2-0.2-0.3-0.3c-0.4,0.6-1,1.2-1.9,2
				c-0.1-0.2-0.3-0.4-0.4-0.7c0.7-0.5,1.3-1.1,1.8-1.8c-0.2-0.1-0.4-0.4-0.7-0.7c-0.3-0.3-0.5-0.5-0.7-0.7c0.2-0.6,0.4-1.6,0.7-3
				h-0.9v-0.7h1c0.1-0.4,0.1-1,0.2-1.7c0-0.2,0-0.3,0-0.4l0.8,0.1c0,0.3-0.1,0.7-0.2,1.2c-0.1,0.4-0.1,0.6-0.1,0.8h1.7V67
				c-0.2,1.8-0.5,3.2-1,4.1C272.2,71.5,272.6,71.9,273.1,72.3z M272,67h-1.2c-0.2,1.1-0.4,2-0.6,2.7c0.2,0.1,0.4,0.3,0.6,0.6
				c0.1,0.1,0.2,0.2,0.3,0.3C271.7,69.7,271.9,68.5,272,67z M272.9,70.7h4.3v0.7h-4.3V70.7z M274.6,65.9l-0.2,2.8h2.5l0.3-3.4h-4.1
				v-0.7h4.9l-0.4,4.1h1c-0.1,1.7-0.1,2.9-0.2,3.5c-0.1,1-0.6,1.4-1.7,1.5c-0.6,0-1.2,0-1.6,0c0-0.2-0.1-0.4-0.1-0.6
				c0-0.1,0-0.2,0-0.3c0.2,0,0.7,0,1.7,0c0.6,0,0.9-0.3,0.9-0.8c0.1-0.5,0.1-1.4,0.2-2.6h-4.3l0.3-3.5H274.6z"/>
			<path fill="#888888" d="M288.2,72.3l-0.6,0.5c-0.2-0.1-0.4-0.3-0.7-0.7c-0.1-0.1-0.2-0.2-0.3-0.3c-0.4,0.6-1,1.2-1.9,2
				c-0.1-0.2-0.3-0.4-0.4-0.7c0.7-0.5,1.3-1.1,1.8-1.8c-0.2-0.1-0.4-0.4-0.7-0.7c-0.3-0.3-0.5-0.5-0.7-0.7c0.2-0.6,0.4-1.6,0.6-3
				h-0.9v-0.7h1c0.1-0.4,0.1-1,0.2-1.7c0-0.2,0-0.3,0-0.4l0.8,0.1c0,0.3-0.1,0.7-0.2,1.2c-0.1,0.4-0.1,0.6-0.1,0.8h1.7V67
				c-0.2,1.8-0.5,3.2-1,4.1C287.4,71.5,287.8,71.9,288.2,72.3z M287.2,67H286c-0.2,1.1-0.4,2-0.6,2.7c0.2,0.1,0.4,0.3,0.6,0.6
				c0.1,0.1,0.2,0.2,0.3,0.3C286.9,69.7,287.1,68.5,287.2,67z M288.1,70.7h4.3v0.7h-4.3V70.7z M289.8,65.9l-0.2,2.8h2.5l0.3-3.4
				h-4.1v-0.7h4.9l-0.4,4.1h1c-0.1,1.7-0.1,2.9-0.2,3.5c-0.1,1-0.6,1.4-1.7,1.5c-0.6,0-1.2,0-1.6,0c0-0.2-0.1-0.4-0.1-0.6
				c0-0.1,0-0.2,0-0.3c0.2,0,0.7,0,1.7,0c0.6,0,0.9-0.3,0.9-0.8c0.1-0.5,0.1-1.4,0.2-2.6h-4.3l0.3-3.5H289.8z"/>
			<path fill="#888888" d="M299.6,65.7h3.5v0.7h-1.9c0,0.5,0,1,0,1.5h1.7c0,1.8,0,3.2-0.1,4.2c0,1-0.4,1.5-1.2,1.4
				c-0.4,0-0.7,0-0.8,0c0-0.2-0.1-0.4-0.1-0.7c0.4,0,0.6,0,0.8,0c0.4,0,0.6-0.2,0.6-0.7c0.1-0.6,0.1-1.8,0.1-3.5h-1.1
				c0,0.2,0,0.5,0,0.7c0,2.1-0.4,3.6-1.2,4.5c-0.1-0.2-0.3-0.4-0.5-0.6c0.6-0.7,1-2,1-3.9c0-0.3,0-0.7,0-1.4c0-0.6,0-1.1,0-1.4h-0.9
				V65.7z M300.8,64.4l0.6-0.3c0.1,0.1,0.1,0.2,0.2,0.4c0.2,0.4,0.3,0.7,0.4,0.9l-0.7,0.2C301.2,65.3,301,64.9,300.8,64.4z
				 M305.1,71.9l0.5,0.5c-0.1,0.1-0.2,0.1-0.3,0.2c-0.7,0.5-1.3,0.9-1.8,1.2c-0.1-0.2-0.3-0.4-0.5-0.6
				C303.7,72.8,304.4,72.4,305.1,71.9z M303.2,66.2c0.5-0.5,0.9-1.3,1.3-2.2l0.7,0.2c-0.1,0.1-0.2,0.3-0.3,0.6
				c-0.1,0.1-0.1,0.2-0.1,0.2h4.4v0.7h-4.8c-0.2,0.3-0.4,0.7-0.7,1c0,0-0.1-0.1-0.1-0.1C303.4,66.4,303.3,66.3,303.2,66.2z
				 M304.2,66.2h0.7V67h2.4v-0.8h0.7V67h1v0.7h-1v3.5h1.2v0.7h-6v-0.7h1.1v-3.5h-1V67h1V66.2z M304.9,67.7v0.8h2.4v-0.8H304.9z
				 M304.9,69v0.7h2.4V69H304.9z M304.9,70.4v0.8h2.4v-0.8H304.9z M306.7,72.4l0.4-0.5c0.6,0.4,1.3,0.9,2,1.3l-0.5,0.6
				C308,73.3,307.4,72.8,306.7,72.4z"/>
			<path fill="#888888" d="M319.8,67.5c1.5,0.8,2.8,1.5,3.9,2.1l-0.5,0.8c-1.5-0.9-2.7-1.6-3.7-2.2v5.4h-0.8v-8h-3.9v-0.8h9.6v0.8
				h-4.8v2.4L319.8,67.5z"/>
			<path fill="#888888" d="M330.9,68.1h4.6c0.4-0.5,0.8-1.2,1.2-2l0.7,0.5c-0.4,0.6-0.8,1.1-1.1,1.5h2.9v0.7h-7.6v0.7
				c0.1,1.9-0.4,3.3-1.3,4.3c-0.2-0.2-0.3-0.4-0.5-0.7c0.8-0.7,1.1-1.9,1.1-3.7V68.1z M334.1,64.4l0.8-0.2c0,0.1,0.1,0.2,0.1,0.3
				c0.1,0.4,0.2,0.7,0.3,0.9h4.2V66H330v-0.7h4.5C334.4,65,334.3,64.7,334.1,64.4z M332.1,66.6l0.7-0.4c0.1,0.1,0.1,0.2,0.2,0.4
				c0.4,0.5,0.7,0.9,0.8,1.1l-0.7,0.5C332.7,67.4,332.4,66.9,332.1,66.6z"/>
			<path fill="#888888" d="M345.5,69.3h3.7v4.5h-0.8v-0.7h-2.2v0.7h-0.7V69.3z M346.3,70v2.5h2.2V70H346.3z M346.5,64.6h6.7v3.6
				h-6.7V64.6z M347.3,65.3v2.2h5.2v-2.2H347.3z M350.5,69.3h3.7v4.5h-0.7v-0.7h-2.2v0.7h-0.8V69.3z M351.3,70v2.6h2.2V70H351.3z"/>
		</g>
	</g>
</g>
<line fill="none" stroke="#CCCCCC" x1="0.6" y1="0.8" x2="387.6" y2="99.3"/>
</svg>
