<?xml version="1.0" encoding="utf-8"?>
<!-- Generator: Adobe Illustrator 17.1.0, SVG Export Plug-In . SVG Version: 6.00 Build 0)  -->
<!DOCTYPE svg PUBLIC "-//W3C//DTD SVG 1.1//EN" "http://www.w3.org/Graphics/SVG/1.1/DTD/svg11.dtd">
<svg version="1.1" id="图层_1" xmlns="http://www.w3.org/2000/svg" xmlns:xlink="http://www.w3.org/1999/xlink" x="0px" y="0px"
	 viewBox="0 0 328.4 99.1" enable-background="new 0 0 328.4 99.1" xml:space="preserve">
<rect x="0.6" y="0.6" fill="none" stroke="#CCCCCC" width="326.9" height="97.8"/>
<g>
	<g>
		<g id="形状_2_copy_3_副本_4_63_">
			<g>
				<path fill-rule="evenodd" clip-rule="evenodd" fill="#CCCCCC" d="M26.5,58.4c-2.8,5.4-5.2,10.2-8.1,15.8h3.9
					c0.7-1.3,1.1-2.2,2-3.8c2,0,3.5,0,5.6,0c-0.4-1.2-0.7-2.1-1-3h-3.1c0.9-1.8,1.4-2.8,2.8-5.3c1.4,4.1,2.9,8.3,4.3,12.1h3.5
					c-2-5.5-3.7-10.3-5.5-15.8H26.5z M37.2,74.3h3.3l0.7-15.8l-3.3,0L37.2,74.3z M42.4,74.3H46l0.4-11.8H43L42.4,74.3z M43.2,58.4
					L43.1,61c0,0,2.6,0,3.3,0l0.1-2.5C43.6,58.4,43.5,58.4,43.2,58.4z M64.8,62.5c-0.6-0.2-1.2-0.3-1.9-0.3c-0.4,0-0.8,0-1.1,0.1
					c-0.4,0.1-0.7,0.2-1,0.3c-0.3,0.1-0.6,0.3-0.8,0.5c-0.2,0.2-0.4,0.4-0.6,0.6c-0.1,0.2-0.3,0.4-0.5,0.7c-0.2-0.4-0.3-0.7-0.4-0.8
					c-0.1-0.2-0.3-0.4-0.5-0.5c-0.2-0.2-0.4-0.3-0.7-0.4c-0.3-0.1-0.6-0.2-0.9-0.3c-0.3-0.1-0.7-0.1-1-0.1c-0.5,0-0.9,0.1-1.4,0.2
					c-0.4,0.1-0.8,0.3-1.1,0.5c-0.3,0.2-0.6,0.4-0.8,0.6c-0.2,0.2-0.4,0.5-0.7,0.9l0.1-1.9h-3.1l-0.5,11.8c0,0,2.6,0,3.3,0
					c0-1,0-2.4,0.1-4.1c0.1-1.7,0.2-2.9,0.4-3.5c0.2-0.6,0.5-1.1,0.9-1.4c0.4-0.4,0.9-0.5,1.4-0.5c0.3,0,0.6,0,0.8,0.2
					c0.2,0.1,0.4,0.3,0.6,0.5c0.2,0.2,0.3,0.4,0.3,0.7c0.1,0.2,0.1,0.5,0.1,0.9c0,0.6-0.1,1.9-0.2,3.7c-0.1,1.8-0.2,3.1-0.2,3.7
					c0.7,0,2.7,0,3.3,0l0.1-3.2c0-1.2,0.1-2.1,0.1-2.8c0.1-0.7,0.2-1.3,0.3-1.7c0.1-0.4,0.3-0.7,0.6-1c0.2-0.3,0.5-0.5,0.8-0.6
					c0.3-0.1,0.6-0.2,0.9-0.2c0.3,0,0.6,0.1,0.9,0.2c0.3,0.1,0.5,0.3,0.7,0.6c0.2,0.3,0.3,0.7,0.3,1.3c0,0.5,0,1-0.1,1.7l-0.1,2.7
					c-0.1,1.1-0.1,2.1-0.2,3.1c0.7,0,2.7,0,3.3,0c0-0.9,0.1-2.1,0.1-3.8c0.1-1.6,0.1-2.8,0.2-3.5c0.1-0.7,0.1-1.3,0.1-1.6
					c0-0.7-0.2-1.3-0.5-1.8C65.8,63.1,65.4,62.7,64.8,62.5z M77.3,62.5c-0.7-0.2-1.5-0.3-2.3-0.3c-0.8,0-1.5,0.1-2.3,0.2
					c-0.8,0.1-2.8,0.5-2.8,0.5L69.5,65c0,0,3.3-1,4.7-1c0.4,0,0.7,0,1,0.1c0.3,0.1,0.6,0.2,0.8,0.4c0.2,0.2,0.3,0.5,0.3,0.8
					c0,0.2,0,0.3-0.1,0.5c-0.1,0.1-0.2,0.3-0.3,0.4c-0.1,0.1-0.3,0.2-0.5,0.3c-0.2,0.1-0.4,0.2-0.8,0.3c-0.3,0.1-0.6,0.2-0.9,0.2
					c-1.1,0.2-2,0.5-2.7,0.7c-0.7,0.2-1.2,0.5-1.5,0.7c-0.4,0.3-0.6,0.5-0.9,0.8c-0.2,0.3-0.4,0.6-0.5,0.9c-0.1,0.3-0.2,0.7-0.2,1
					c0,0.6,0.1,1.2,0.4,1.7c0.3,0.6,0.8,1,1.4,1.3c0.6,0.3,1.4,0.4,2.4,0.4c0.3,0,0.6,0,0.9,0c0.3,0,0.8-0.1,1.3-0.2
					c0.2-0.9,0.4-1.5,0.6-2c-0.5,0.2-0.8,0.3-1.1,0.3c-0.3,0-0.5,0.1-0.8,0.1c-0.4,0-0.7,0-1-0.1c-0.3-0.1-0.5-0.3-0.7-0.5
					c-0.2-0.2-0.3-0.5-0.3-0.8c0-0.2,0-0.4,0.1-0.6c0.1-0.2,0.2-0.3,0.4-0.5c0.2-0.2,0.4-0.3,0.6-0.4c0.2-0.1,0.5-0.2,0.8-0.3
					c0.3-0.1,0.7-0.2,1.2-0.4c0.5-0.1,0.8-0.2,1-0.3c0.2-0.1,0.4-0.1,0.5-0.2c0.2-0.1,0.4-0.2,0.7-0.4l-0.4,6.1h3.3
					c0,0,0.1-3.8,0.2-5.6c0.1-1.8,0.2-2.9,0.2-3.4c0-0.8-0.2-1.4-0.6-1.9C78.6,63,78,62.7,77.3,62.5z M98.1,62.5
					c-0.6-0.2-1.2-0.3-1.9-0.3c-0.4,0-0.8,0-1.1,0.1c-0.4,0.1-0.7,0.2-1,0.3c-0.3,0.1-0.6,0.3-0.8,0.5c-0.2,0.2-0.4,0.4-0.6,0.6
					c-0.1,0.2-0.3,0.4-0.5,0.7c-0.2-0.4-0.3-0.7-0.4-0.8c-0.1-0.2-0.3-0.4-0.5-0.5c-0.2-0.2-0.4-0.3-0.7-0.4
					c-0.3-0.1-0.6-0.2-0.9-0.3c-0.3-0.1-0.7-0.1-1-0.1c-0.5,0-0.9,0.1-1.4,0.2c-0.4,0.1-0.8,0.3-1.1,0.5c-0.3,0.2-0.6,0.4-0.8,0.6
					c-0.2,0.2-0.4,0.5-0.7,0.9l0.1-1.9h-3.1l-0.5,11.8h3.3c0,0,0-2.4,0.1-4.1c0.1-1.7,0.2-2.9,0.4-3.5c0.2-0.6,0.5-1.1,0.9-1.4
					c0.4-0.4,0.9-0.5,1.4-0.5c0.3,0,0.6,0,0.8,0.2c0.2,0.1,0.4,0.3,0.6,0.5c0.2,0.2,0.3,0.4,0.3,0.7c0.1,0.2,0.1,0.5,0.1,0.9
					c0,0.6-0.1,1.9-0.2,3.7c-0.1,1.8-0.2,3.1-0.2,3.7c0.7,0,2.7,0,3.3,0l0.1-3.2c0-1.2,0.1-2.1,0.1-2.8c0.1-0.7,0.2-1.3,0.3-1.7
					c0.1-0.4,0.3-0.7,0.6-1c0.2-0.3,0.5-0.5,0.8-0.6c0.3-0.1,0.6-0.2,0.9-0.2c0.3,0,0.6,0.1,0.9,0.2c0.3,0.1,0.5,0.3,0.7,0.6
					c0.2,0.3,0.3,0.7,0.3,1.3c0,0.5,0,1-0.1,1.7l-0.1,2.7c-0.1,1.1-0.1,2.1-0.2,3.1c0.7,0,2.7,0,3.3,0c0-0.9,0-2.1,0.1-3.8
					c0.1-1.6,0.1-2.8,0.2-3.5c0.1-0.7,0.1-1.3,0.1-1.6c0-0.7-0.2-1.3-0.5-1.8C99.1,63.1,98.7,62.7,98.1,62.5z M110.6,62.5
					c-0.7-0.2-1.5-0.3-2.4-0.3c-0.8,0-1.5,0.1-2.3,0.2c-0.8,0.1-2.8,0.5-2.8,0.5l-0.4,2.2c0,0,3.3-1,4.7-1c0.4,0,0.7,0,1,0.1
					c0.3,0.1,0.6,0.2,0.8,0.4c0.2,0.2,0.3,0.5,0.3,0.8c0,0.2,0,0.3-0.1,0.5c-0.1,0.1-0.2,0.3-0.3,0.4c-0.1,0.1-0.3,0.2-0.5,0.3
					c-0.2,0.1-0.4,0.2-0.8,0.3c-0.3,0.1-0.6,0.2-0.9,0.2c-1.1,0.2-2,0.5-2.7,0.7c-0.7,0.2-1.2,0.5-1.5,0.7c-0.4,0.3-0.6,0.5-0.9,0.8
					c-0.2,0.3-0.4,0.6-0.5,0.9c-0.1,0.3-0.2,0.7-0.2,1c0,0.6,0.1,1.2,0.4,1.7c0.3,0.6,0.8,1,1.4,1.3c0.6,0.3,1.4,0.4,2.4,0.4
					c0.3,0,0.6,0,0.9,0c0.3,0,0.8-0.1,1.3-0.2c0.2-0.9,0.4-1.5,0.6-2c-0.5,0.2-0.8,0.3-1.1,0.3c-0.3,0-0.5,0.1-0.8,0.1
					c-0.4,0-0.7,0-1-0.1c-0.3-0.1-0.5-0.3-0.7-0.5c-0.2-0.2-0.3-0.5-0.3-0.8c0-0.2,0-0.4,0.1-0.6c0.1-0.2,0.2-0.3,0.4-0.5
					c0.2-0.2,0.4-0.3,0.6-0.4c0.2-0.1,0.5-0.2,0.8-0.3c0.3-0.1,0.7-0.2,1.2-0.4c0.5-0.1,0.8-0.2,1-0.3c0.2-0.1,0.4-0.1,0.5-0.2
					c0.2-0.1,0.4-0.2,0.7-0.4l-0.4,6.1h3.3c0,0,0.1-3.8,0.2-5.6c0.1-1.8,0.2-2.9,0.2-3.4c0-0.8-0.2-1.4-0.6-1.9
					C111.9,63,111.3,62.7,110.6,62.5z M114.3,71.1c-0.1,1.5-0.1,2.6-0.1,3.1c1.1,0,3.3,0,3.3,0s0.1-2.6,0.2-3.1
					C116.8,71.2,114.3,71.1,114.3,71.1z M123,65.7c0.3-0.4,0.7-0.7,1.2-0.8c0.5-0.2,1-0.3,1.5-0.3c0.9,0,1.9,0.2,3,0.6l-0.2-2.5
					c-0.7-0.2-1.4-0.3-1.9-0.4c-0.5-0.1-1.1-0.1-1.6-0.1c-0.9,0-1.7,0.1-2.5,0.3c-0.7,0.2-1.4,0.6-2,1.2c-0.6,0.6-1.1,1.3-1.4,2.2
					c-0.3,0.9-0.5,1.8-0.5,2.8c0,0.7,0.1,1.4,0.3,2.1c0.2,0.7,0.5,1.3,0.9,1.8c0.4,0.5,0.8,0.9,1.3,1.2c0.5,0.3,1,0.5,1.6,0.6
					c0.6,0.1,1.2,0.2,1.8,0.2c1.1,0,2.2-0.1,3.3-0.4c0.1-0.6,0.2-1.1,0.2-1.5c0.1-0.4,0.1-0.8,0.2-1.1c-0.6,0.2-1.1,0.3-1.6,0.4
					c-0.5,0.1-0.9,0.1-1.3,0.1c-0.7,0-1.3-0.1-1.9-0.4c-0.6-0.3-1-0.7-1.2-1.2c-0.2-0.5-0.3-1.2-0.3-1.9c0-0.5,0.1-1,0.2-1.5
					C122.4,66.5,122.6,66.1,123,65.7z M140.7,63.8c-0.6-0.5-1.3-0.9-2.1-1.2c-0.8-0.3-1.7-0.4-2.6-0.4c-1,0-1.9,0.2-2.8,0.5
					c-0.9,0.3-1.6,0.8-2.2,1.4c-0.6,0.6-1,1.3-1.3,2.1c-0.3,0.8-0.4,1.6-0.4,2.4c0,0.8,0.2,1.6,0.4,2.4c0.3,0.8,0.7,1.4,1.3,2
					c0.6,0.5,1.3,0.9,2.1,1.2c0.8,0.3,1.7,0.4,2.6,0.4c1,0,1.9-0.1,2.7-0.4c0.9-0.3,1.6-0.7,2.1-1.3c0.6-0.6,1-1.3,1.3-2.1
					c0.3-0.8,0.5-1.7,0.5-2.6c0-0.8-0.1-1.6-0.4-2.4C141.7,64.9,141.3,64.3,140.7,63.8z M138.7,70.2c-0.3,0.7-0.6,1.1-1.2,1.5
					c-0.5,0.3-1.1,0.5-1.8,0.5c-0.7,0-1.2-0.2-1.7-0.5c-0.5-0.3-0.8-0.8-1-1.3c-0.2-0.5-0.3-1.1-0.3-1.8c0-0.8,0.1-1.5,0.4-2.1
					c0.3-0.7,0.7-1.1,1.2-1.5c0.5-0.3,1.1-0.5,1.8-0.5c0.7,0,1.3,0.2,1.7,0.5c0.5,0.3,0.8,0.7,1,1.3c0.2,0.5,0.3,1.1,0.3,1.8
					C139.1,68.9,139,69.6,138.7,70.2z M161.5,63.6c-0.3-0.5-0.8-0.8-1.4-1c-0.6-0.2-1.2-0.3-1.9-0.3c-0.4,0-0.8,0-1.1,0.1
					c-0.4,0.1-0.7,0.2-1,0.3c-0.3,0.1-0.6,0.3-0.8,0.5c-0.2,0.2-0.4,0.4-0.6,0.6c-0.1,0.2-0.3,0.4-0.5,0.7c-0.2-0.4-0.3-0.7-0.4-0.8
					c-0.1-0.2-0.3-0.4-0.5-0.5c-0.2-0.2-0.4-0.3-0.7-0.4c-0.3-0.1-0.6-0.2-0.9-0.3c-0.3-0.1-0.7-0.1-1-0.1c-0.5,0-0.9,0.1-1.4,0.2
					c-0.4,0.1-0.8,0.3-1.1,0.5c-0.3,0.2-0.6,0.4-0.8,0.6c-0.2,0.2-0.4,0.5-0.7,0.9l0.1-1.9c-0.6,0-2.5,0-3.1,0
					c0,1.3-0.4,10.5-0.5,11.8c0.7,0,2.6,0,3.3,0c0-1,0-2.4,0.1-4.1c0.1-1.7,0.2-2.9,0.4-3.5c0.2-0.6,0.5-1.1,0.9-1.4
					c0.4-0.4,0.9-0.5,1.4-0.5c0.3,0,0.6,0,0.8,0.2c0.2,0.1,0.4,0.3,0.6,0.5c0.2,0.2,0.3,0.4,0.3,0.7c0.1,0.2,0.1,0.5,0.1,0.9
					c0,0.6,0,1.9-0.1,3.7c-0.1,1.8-0.2,3.1-0.2,3.7c0.7,0,2.7,0,3.3,0l0.1-3.2c0-1.2,0.1-2.1,0.2-2.8c0.1-0.7,0.2-1.3,0.3-1.7
					c0.1-0.4,0.3-0.7,0.6-1c0.2-0.3,0.5-0.5,0.8-0.6c0.3-0.1,0.6-0.2,1-0.2c0.3,0,0.6,0.1,0.9,0.2c0.3,0.1,0.5,0.3,0.7,0.6
					c0.2,0.3,0.3,0.7,0.3,1.3c0,0.5,0,1-0.1,1.7l-0.1,2.7c-0.1,1.1-0.1,2.1-0.2,3.1c0.7,0,2.7,0,3.3,0c0-0.9,0.1-2.1,0.1-3.8
					c0.1-1.6,0.1-2.8,0.2-3.5c0.1-0.7,0.1-1.3,0.1-1.6C162,64.6,161.9,64,161.5,63.6z"/>
			</g>
		</g>
		<g id="形状_2_copy_3_副本_5_61_">
			<g>
				<path fill-rule="evenodd" clip-rule="evenodd" fill="#FF6600" d="M32.3,25.3c4.9,0,9.9,0,14.8,0c0,7.4,0,15,0,21.8
					c0,0.4-0.6,1.1-1.1,1.1c-0.8,0-1.1,0-2.1,0v3.6c1.1,0,2.1,0,3.2,0c2.9,0,4.8-1.4,4.8-3.8c0-5.7,0-16.9,0-22.8h1.7v-3.4H32.3
					V25.3z M107.9,41.1c-1.4,0-3.5,1.3-3.5,3.5c4.3,0,11.1-0.1,15.8-0.1c0,0.9,0,1.8,0,2.8c1.6,0,1,0,2.6,0c0.9,0,2.2-0.8,2.2-2.2
					c0-3.8,0-6.7,0-10.5c-0.7,0-1.5,0-2.1,0c0-2.9,0-8.8,0-10.9c0-0.9-0.9-1.8-2-1.8h-15.5v3.4h12c0,3.1,0,6.2,0,9.3
					c-2.9,0-3.3,0-5.8,0c-0.3,0-0.7-0.4-0.7-0.6c0-1.6,0-4.1,0-6.1c0-0.5-0.5-1-1.2-1h-3.5v8.2c0,1.6,1.4,2.9,2.9,2.9
					c0,0,6.1,0,11.1,0v3.1H107.9z M44.8,42.1c0-3.9,0-9.4,0-14.8H32.5v18.8c3.6,0,8.2,0,8.2,0C43.8,46.1,44.8,44.4,44.8,42.1z
					 M39.6,42.7c-0.9,0-1.9,0-3.1,0V31c1.3,0,2.9,0,4.2,0c0,3.6,0,7.5,0,10.6C40.7,42.2,40.3,42.7,39.6,42.7z M18.4,22.7
					c0,6.7,0,15.5,0,29.1H23c0-8.5,0-17.7,0-26.5c1.1,0,2.3,0,3.4,0c0,5.1,0,9.6,0,14.4c0,2-1.7,2.6-1.7,2.7v3.8
					c3.2,0,6.1-3.3,6.1-6.3c0-5.4,0-12.4,0-17.9c-4.1,0-7.3,0-11.4,0C18.4,21.9,18.4,22.7,18.4,22.7z M160.5,34.6
					c0-2.9,0-8.8,0-10.9c0-0.9-0.9-1.8-2-1.8H143v3.4c4,0,8,0,12,0v9.3c-2.9,0-3.3,0-5.8,0c-0.3,0-0.7-0.4-0.7-0.6
					c0-1.6,0-4.1,0-6.1c0-0.5-0.5-1-1.2-1c-1,0-2.4,0-3.5,0v8.2c0,1.6,1.4,2.9,2.9,2.9c0,0,6.1,0,11.1,0v3.1h-12.2
					c-1.4,0-3.5,1.2-3.5,3.4c4.3,0,11.1,0,15.7,0v3.2c0,0.5-0.4,0.8-1,0.8h-1.8c0,1.5,0,2.4,0,3.4h2.8c0.8,0,0.7,0,1.5,0
					c2.3,0,3.3-1.6,3.3-3c0-4.3,0-9.9,0-14.2C161.8,34.6,161.1,34.6,160.5,34.6z M138.4,46.1c1.7-1.8,2.6-4,2.8-8.1
					c0-4.5,0-8.8,0-13.2c0-0.4-0.5-0.9-0.9-0.9c-1.7,0-3.9,0-5.8,0v-2.1h-4.6c0,0.7,0,1.4,0,2.1c-0.5,0-1.1,0-1.5,0v3.4h1.5V38
					c0,4.1,1.4,6.2,3,8.1c-2,1.4-4.1,2.3-6.8,2.3c-0.4,0-0.8,0-1.2,0c-4.3,0-9.5,0-14,0c-4.3,0-8.4-0.8-10-2.7
					c1.5-2,2.3-3.6,2.7-7.7c0-4.1,0-7.6,0-12.9c-0.1-0.6-0.6-1.1-1.1-1.1c-1.8,0-3.6,0-5.8,0v-2.1c-1.9,0-2.6,0-4.4,0V24
					c-0.5,0-0.9,0-1.5,0v3.4c0.7,0,1,0,1.5,0c0,3.5,0,7.4,0,10.6c0.3,4.1,1.7,5.5,3.3,7.9c-2.3,1.6-5.1,2.3-8.4,2.5
					c-3.9,0-7.4,0-12.3,0c0-0.8,0-2.1,0-2.7h12.4v-3.6H74.8c0-0.9,0-1.8,0-2.7c3.6,0,8.2,0,9.3,0c0,0,3,0,3-3.3c0-3.5,0-9.7,0-14.3
					c-9.8,0-19.7,0-29.5,0c-0.5,0-0.9,0.5-0.9,0.9c0,0.7,0,11.6,0,16.7c4.1,0,8.2,0,12.4,0v2.7H56.8c0,1.1,0,2.4,0,3.6h12.3
					c0,0.9,0,1.8,0,2.7H54.7c0,1,0,2.3,0,3.4c10.8,0,24.2,0,34.8,0c2.8,0,6.4-1.5,8.9-3c3.2,2.5,6.7,3,12.6,3c1.8,0,3.7,0,5.9,0
					c3.1,0,5.7,0,8.1,0c4.9,0,8-1,11-2.8c2.8,1.7,5.4,2.7,9.7,2.8v0h6.5v-3.4h-6.5C142.7,48.1,140.3,47.7,138.4,46.1z M69.1,36.1
					h-7.6v-3.6h7.6V36.1z M69.1,28.9h-7.6v-3.6c2.5,0,5.1,0,7.6,0V28.9z M74.8,25.3h7.6v3.6h-7.6V25.3z M74.8,32.5
					c2.5,0,5.1,0,7.6,0c0,1.4,0,2.6,0,3.6h-7.6C74.8,35.1,74.8,33.6,74.8,32.5z M99.4,38c-0.2,2.4-0.5,2.9-1.1,4.5
					c-0.7-1.5-1.3-2.1-1.5-4.5c0-3.1,0-7.4,0-10.6h2.6V38z M137,38c-0.1,2.2-0.6,3.3-1.2,4.5c-0.7-1.2-1.3-2.4-1.3-4.5
					c0-3.3,0-7.3,0-10.7h2.5C137,30.8,137,34.7,137,38z"/>
			</g>
		</g>
	</g>
	<g>
		<rect x="224.2" y="43.8" fill="#333333" width="5.8" height="2"/>
		<polygon fill="#333333" points="223.7,41.9 221.6,47.7 224.3,47.7 226.4,41.9 		"/>
		<rect x="221.9" y="48" fill="#333333" width="7.3" height="1.9"/>
		<rect x="221.5" y="53" fill="#333333" width="8.1" height="1.9"/>
		<rect x="224" y="49.7" fill="#333333" width="2.8" height="10.3"/>
		<polygon fill="#333333" points="229.4,57.9 229.4,60 224,62.1 224,59.7 		"/>
		<rect x="234.5" y="41.9" fill="#333333" width="2.8" height="9.7"/>
		<rect x="237.2" y="45.5" fill="#333333" width="5.5" height="1.9"/>
		<path fill="#333333" d="M241.9,51.5h-11.2v1.6v0.3v7v0.2v1.4h8.5h0.4c1.3,0,2.4-1.1,2.4-2.4c0,0,0-6.3,0-6.3h0V51.5z M239.1,59.6
			v0.8h-5.8v-7h5.8V59.6z"/>
		<rect x="245.3" y="42.6" fill="#333333" width="20.4" height="2.1"/>
		<polygon fill="#333333" points="252,44.7 244.1,56.3 247.3,56.3 255.2,44.7 		"/>
		<rect x="251.5" y="49.6" fill="#333333" width="10.5" height="2"/>
		<rect x="248.9" y="50" fill="#333333" width="2.8" height="9.8"/>
		<rect x="248.9" y="59.7" fill="#333333" width="12.4" height="2"/>
		<rect x="261.2" y="49.6" fill="#333333" width="2.8" height="9.4"/>
		<path fill="#333333" d="M261.3,56.3c0,0-0.1,0-0.1,0v3.4h-2.5c0.3,1.2,1.4,2,2.6,2c1.5,0,2.7-1.2,2.7-2.7
			C264,57.5,262.8,56.3,261.3,56.3z"/>
		<rect x="268.8" y="41.9" fill="#333333" width="18.2" height="1.9"/>
		<rect x="268.8" y="43.4" fill="#333333" width="2.8" height="12.3"/>
		<rect x="271.4" y="45.6" fill="#333333" width="12.9" height="1.8"/>
		<path fill="#333333" d="M287,43.3h-0.8c-0.4-0.3-0.9-0.5-1.4-0.5v0.5h-0.5v1.5v0.1v2.4h0.5c1.2,0,2.3-1,2.3-2.3c0-0.1,0-0.1,0-0.2
			h0V43.3z"/>
		<rect x="271.5" y="49.4" fill="#333333" width="15.7" height="1.6"/>
		<rect x="271.6" y="53.2" fill="#333333" width="15.6" height="1.7"/>
		<rect x="274.9" y="47.2" fill="#333333" width="2.8" height="6.8"/>
		<rect x="280.9" y="47" fill="#333333" width="2.8" height="6.8"/>
		<rect x="273.1" y="54.9" fill="#333333" width="2.8" height="5.3"/>
		<polygon fill="#333333" points="279.2,58.7 273.1,59.8 273.1,62.1 279.2,60.6 		"/>
		<polygon fill="#333333" points="277.9,55.3 281.3,55.3 287.1,62.1 283.8,62.1 		"/>
		<polygon fill="#333333" points="284.4,55.3 287.4,55.3 284.4,59.2 282.8,57.3 		"/>
		<polyline fill="#333333" points="268.8,55.7 267.6,61.6 270.4,61.6 271.6,55.7 		"/>
		<rect x="301.7" y="41.9" fill="#333333" width="3.4" height="2.9"/>
		<rect x="296.2" y="44.5" fill="#333333" width="12.2" height="2"/>
		<rect x="295.8" y="60.3" fill="#333333" width="15.2" height="1.8"/>
		<polygon fill="#333333" points="297.6,48.1 300.5,48.1 302.4,60.3 299.5,60.3 		"/>
		<polygon fill="#333333" points="306,48.1 308.9,48.1 307,60.3 304.1,60.3 		"/>
		<rect x="292.4" y="47.4" fill="#333333" width="2.8" height="14.7"/>
		<polygon fill="#333333" points="293.9,41.9 289.2,51.1 292.2,51.1 296.8,41.9 		"/>
		<path fill="#333333" d="M306.5,44.5c0,1.1,0.9,2,2,2c1.1,0,2-0.9,2-2H306.5z"/>
		<g>
			<path fill="#999999" d="M223.8,72.7c0,0.8-0.3,1.2-0.8,1.2c-0.2,0-0.5,0-0.8,0c0,0,0-0.1,0-0.1c0-0.3-0.1-0.4-0.1-0.5
				c0.1,0,0.1,0,0.3,0c0.2,0,0.3,0,0.4,0c0.3,0,0.4-0.2,0.4-0.6c0-0.6-0.2-1.2-0.8-1.8c0.2-0.4,0.4-1.2,0.6-2.2h-1v6.5h-0.6v-7h2.2
				v0.5c-0.4,1.1-0.6,1.8-0.7,2.1C223.5,71.4,223.8,72.1,223.8,72.7z M224,68.2h4.7v0.6h-0.7v5.1c0,0.8-0.3,1.2-1.1,1.1
				c-0.2,0-0.6,0-1.1,0c0-0.1,0-0.2-0.1-0.4c0-0.1-0.1-0.2-0.1-0.3c0.3,0,0.7,0,1.1,0c0.4,0,0.6-0.1,0.6-0.5v-5.1H224V68.2z
				 M224.3,69.8h2.3v3.3h-2.3V69.8z M224.8,70.4v2.2h1.2v-2.2H224.8z"/>
			<path fill="#999999" d="M233.4,72.8h3v-0.9h-2.7v-3.8h6.1v3.8H237v0.9h3v0.5h-3v1h3.5v0.5h-7.6v-0.5h3.5v-1h-3V72.8z M234.3,68.6
				v1.1h2.2v-1.1H234.3z M234.3,70.3v1.1h2.2v-1.1H234.3z M239.2,68.6H237v1.1h2.2V68.6z M237,70.3v1.1h2.2v-1.1H237z"/>
			<path fill="#999999" d="M247.8,74l-0.5,0.4c-0.1-0.1-0.3-0.3-0.5-0.5c-0.1-0.1-0.2-0.2-0.3-0.3c-0.3,0.4-0.8,0.9-1.5,1.5
				c-0.1-0.2-0.2-0.3-0.3-0.5c0.5-0.4,1-0.9,1.4-1.4c-0.1-0.1-0.3-0.3-0.5-0.5c-0.2-0.2-0.4-0.4-0.5-0.5c0.1-0.4,0.3-1.2,0.5-2.3
				h-0.7v-0.5h0.8c0-0.3,0.1-0.7,0.2-1.3c0-0.1,0-0.3,0-0.3l0.6,0.1c0,0.2-0.1,0.5-0.1,0.9c0,0.3-0.1,0.5-0.1,0.6h1.4v0.5
				c-0.1,1.4-0.4,2.4-0.8,3.2C247.2,73.4,247.5,73.7,247.8,74z M247,69.9h-0.9c-0.1,0.8-0.3,1.5-0.4,2.1c0.1,0.1,0.3,0.2,0.5,0.4
				c0.1,0.1,0.2,0.2,0.3,0.2C246.7,72,246.9,71.1,247,69.9z M247.7,72.8h3.4v0.6h-3.4V72.8z M249,69l-0.2,2.2h1.9l0.3-2.7h-3.2V68
				h3.8l-0.3,3.2h0.8c0,1.3-0.1,2.2-0.1,2.7c0,0.7-0.5,1.1-1.3,1.1c-0.5,0-0.9,0-1.2,0c0-0.1,0-0.3-0.1-0.4c0-0.1,0-0.2,0-0.2
				c0.1,0,0.6,0,1.3,0c0.5,0,0.7-0.2,0.7-0.6c0-0.4,0.1-1.1,0.1-2.1h-3.3l0.3-2.7H249z"/>
			<path fill="#999999" d="M259.6,74l-0.5,0.4c-0.1-0.1-0.3-0.3-0.5-0.5c-0.1-0.1-0.2-0.2-0.3-0.3c-0.3,0.4-0.8,0.9-1.5,1.5
				c-0.1-0.2-0.2-0.3-0.3-0.5c0.5-0.4,1-0.9,1.4-1.4c-0.1-0.1-0.3-0.3-0.5-0.5c-0.2-0.2-0.4-0.4-0.5-0.5c0.1-0.4,0.3-1.2,0.5-2.3
				h-0.7v-0.5h0.8c0-0.3,0.1-0.7,0.2-1.3c0-0.1,0-0.3,0-0.3l0.6,0.1c0,0.2-0.1,0.5-0.1,0.9c0,0.3-0.1,0.5-0.1,0.6h1.4v0.5
				c-0.1,1.4-0.4,2.4-0.8,3.2C259,73.4,259.3,73.7,259.6,74z M258.8,69.9h-0.9c-0.1,0.8-0.3,1.5-0.4,2.1c0.1,0.1,0.3,0.2,0.5,0.4
				c0.1,0.1,0.2,0.2,0.3,0.2C258.5,72,258.7,71.1,258.8,69.9z M259.5,72.8h3.4v0.6h-3.4V72.8z M260.8,69l-0.2,2.2h1.9l0.3-2.7h-3.2
				V68h3.8l-0.3,3.2h0.8c0,1.3-0.1,2.2-0.1,2.7c0,0.7-0.5,1.1-1.3,1.1c-0.5,0-0.9,0-1.2,0c0-0.1,0-0.3-0.1-0.4c0-0.1,0-0.2,0-0.2
				c0.1,0,0.6,0,1.3,0c0.5,0,0.7-0.2,0.7-0.6c0-0.4,0.1-1.1,0.1-2.1h-3.3l0.3-2.7H260.8z"/>
			<path fill="#999999" d="M268.4,68.9h2.7v0.5h-1.5c0,0.4,0,0.7,0,1.1h1.3c0,1.4,0,2.5-0.1,3.3c0,0.8-0.3,1.2-0.9,1.1
				c-0.3,0-0.5,0-0.6,0c0-0.1-0.1-0.3-0.1-0.6c0.3,0,0.5,0,0.6,0c0.3,0,0.5-0.2,0.5-0.6c0-0.5,0.1-1.4,0.1-2.8h-0.8
				c0,0.2,0,0.4,0,0.5c0,1.6-0.3,2.8-0.9,3.5c-0.1-0.1-0.2-0.3-0.4-0.4c0.5-0.6,0.8-1.6,0.8-3c0-0.2,0-0.6,0-1.1c0-0.5,0-0.8,0-1.1
				h-0.7V68.9z M269.3,67.9l0.5-0.2c0,0.1,0.1,0.2,0.2,0.3c0.1,0.3,0.2,0.5,0.3,0.7l-0.5,0.2C269.7,68.6,269.6,68.3,269.3,67.9z
				 M272.7,73.7l0.4,0.4c-0.1,0-0.1,0.1-0.3,0.2c-0.5,0.4-1,0.7-1.4,0.9c-0.1-0.1-0.2-0.3-0.4-0.5C271.6,74.4,272.2,74.1,272.7,73.7
				z M271.2,69.3c0.4-0.4,0.7-1,1-1.7l0.5,0.2c-0.1,0.1-0.1,0.3-0.2,0.4c0,0.1-0.1,0.1-0.1,0.2h3.4V69h-3.7
				c-0.2,0.3-0.3,0.5-0.5,0.8c0,0-0.1-0.1-0.1-0.1C271.4,69.5,271.3,69.4,271.2,69.3z M272,69.3h0.5v0.6h1.9v-0.6h0.5v0.6h0.8v0.5
				H275v2.8h0.9v0.5h-4.7v-0.5h0.8v-2.8h-0.8v-0.5h0.8V69.3z M272.6,70.4V71h1.9v-0.6H272.6z M272.6,71.5v0.6h1.9v-0.6H272.6z
				 M272.6,72.6v0.6h1.9v-0.6H272.6z M273.9,74.1l0.3-0.4c0.5,0.3,1,0.7,1.6,1l-0.4,0.4C275,74.8,274.5,74.4,273.9,74.1z"/>
			<path fill="#999999" d="M284.1,70.3c1.2,0.6,2.2,1.2,3.1,1.6l-0.4,0.6c-1.1-0.7-2.1-1.3-2.9-1.7v4.2h-0.6v-6.2h-3.1v-0.6h7.4v0.6
				h-3.8v1.8L284.1,70.3z"/>
			<path fill="#999999" d="M292.7,70.8h3.6c0.3-0.4,0.6-0.9,0.9-1.5l0.6,0.4c-0.3,0.5-0.6,0.8-0.9,1.1h2.3v0.5h-5.9v0.5
				c0,1.5-0.3,2.6-1,3.4c-0.1-0.1-0.3-0.3-0.4-0.5c0.6-0.5,0.9-1.5,0.8-2.8V70.8z M295.3,67.8l0.6-0.2c0,0,0.1,0.1,0.1,0.3
				c0.1,0.3,0.2,0.5,0.2,0.7h3.3v0.5h-7.4v-0.5h3.5C295.5,68.3,295.4,68.1,295.3,67.8z M293.7,69.6l0.5-0.3c0,0.1,0.1,0.2,0.2,0.3
				c0.3,0.4,0.5,0.7,0.6,0.9l-0.5,0.4C294.2,70.2,293.9,69.8,293.7,69.6z"/>
			<path fill="#999999" d="M304.1,71.7h2.9v3.5h-0.6v-0.5h-1.7v0.5h-0.6V71.7z M304.7,72.2v2h1.7v-2H304.7z M304.9,68h5.2v2.8h-5.2
				V68z M305.5,68.6v1.7h4v-1.7H305.5z M308,71.7h2.9v3.5h-0.6v-0.5h-1.7v0.5H308V71.7z M308.6,72.2v2h1.7v-2H308.6z"/>
		</g>
		<g>
			<g>
				<polygon fill="#BCD0FF" points="181.7,42.7 195.9,44.7 209.9,42.6 195.8,41.7 				"/>
				<polygon fill="#6491FF" points="181.7,42.7 175.9,46.8 179.5,52.5 181,48.1 				"/>
				<polygon fill="#4077FF" points="181,48.1 189,53.7 195.8,71.5 179.5,52.5 				"/>
				<polygon fill="#95B4FF" points="190.4,43.9 181,48.1 181.7,42.7 				"/>
				<polygon fill="#BCD0FF" points="189,53.7 190.4,43.9 181,48.1 				"/>
				<polygon fill="#95B4FF" points="190.4,43.9 195.9,48.7 189,53.7 				"/>
				<polygon fill="#95B4FF" points="190.4,43.9 195.9,44.7 201.4,43.8 195.9,48.7 				"/>
				<polygon fill="#6491FF" points="195.9,48.7 189,53.7 195.8,71.5 				"/>
				<polygon fill="#BCD0FF" points="201.4,43.8 195.9,48.7 202.7,53.6 				"/>
				<polygon fill="#4F82FF" points="195.9,48.7 202.7,53.6 195.8,71.5 				"/>
				<polygon fill="#95B4FF" points="201.4,43.8 210.7,48 202.7,53.6 				"/>
				<polygon fill="#95B4FF" points="210.7,48 212.2,52.6 195.8,71.5 202.7,53.6 				"/>
				<polygon fill="#BCD0FF" points="209.9,42.6 210.7,48 212.2,52.6 215.9,46.7 				"/>
			</g>
			<polygon fill="#7AA1FF" points="209.9,42.6 210.7,48 201.4,43.8 			"/>
		</g>
	</g>
</g>
<line fill="none" stroke="#CCCCCC" x1="0.6" y1="0.6" x2="327.6" y2="98.4"/>
</svg>
