<?xml version="1.0" encoding="utf-8"?>
<!-- Generator: Adobe Illustrator 17.0.0, SVG Export Plug-In . SVG Version: 6.00 Build 0)  -->
<!DOCTYPE svg PUBLIC "-//W3C//DTD SVG 1.1//EN" "http://www.w3.org/Graphics/SVG/1.1/DTD/svg11.dtd">
<svg version="1.1" id="图层_1" xmlns="http://www.w3.org/2000/svg" xmlns:xlink="http://www.w3.org/1999/xlink" x="0px" y="0px"
	 width="429.679px" height="506.925px" viewBox="0 0 429.679 506.925" enable-background="new 0 0 429.679 506.925"
	 xml:space="preserve">
<radialGradient id="SVGID_1_" cx="71.3579" cy="220.1499" r="75.0694" fx="113.9214" fy="269.6747" gradientTransform="matrix(1 0 0 1.4478 0 -98.5786)" gradientUnits="userSpaceOnUse">
	<stop  offset="0" style="stop-color:#B5DBD0"/>
	<stop  offset="1" style="stop-color:#F9E7CB"/>
</radialGradient>
<path fill="url(#SVGID_1_)" d="M126.959,243.95c-18.719-2.063-34.187-18.303-41.584-38.148
	c-12.27-32.916-11.672-67.163-38.86-75.049c-33.099-9.6-47.655,28.787-40.039,62.929c8.957,40.151,44.2,66.675,120.483,59.632
	C148.5,251.326,142.255,245.636,126.959,243.95z"/>
<ellipse transform="matrix(0.4078 0.9131 -0.9131 0.4078 171.9366 45.7794)" fill="#FFFFFF" fill-opacity="0.5" cx="50.677" cy="155.437" rx="17.508" ry="11.711"/>
<path fill="#FFDAB8" d="M228.095,128.584c0,0-15.669-45.988,21.177-91.924s49.964-11.683,56.015,2.018
	c6.051,13.7,7.143,51.138,0.593,62.421c-6.55,11.282-31.933,44.324-31.933,44.324L228.095,128.584z"/>
<path fill="#FFDAB8" d="M250.639,442.877c0,0,3.223,3.755,14.853,4.384c11.63,0.629,12.321,13.429,10.435,16.258
	c-1.886,2.829-5.343,5.972-14.458,3.143c-9.115-2.829-34.369-7.802-50.74-6.624c-24.943,1.794-32.741,18.051-24.105,25.169
	c4.493,3.703,19.239,7.229,40.599,6.286c21.359-0.943,63.02,0.629,66.792-9.115c3.772-9.744,17.024-11.373,3.143-29.546
	C283.277,434.659,255.668,444.134,250.639,442.877z"/>
<path fill="#FFDAB8" d="M232.988,332.629c0,0-16.03,56.083-24.831,71.798c-8.801,15.716,0.943,28.603,10.372,26.717
	c9.429-1.886,12.341-5.029,13.4-15.401C232.988,405.37,234.245,339.724,232.988,332.629z"/>
<radialGradient id="SVGID_2_" cx="329.1072" cy="408.7212" r="92.7536" fx="381.6975" fy="469.9126" gradientUnits="userSpaceOnUse">
	<stop  offset="0" style="stop-color:#FFDECC"/>
	<stop  offset="0.5179" style="stop-color:#F9DCC0"/>
	<stop  offset="1" style="stop-color:#FCEBCE"/>
</radialGradient>
<path fill="url(#SVGID_2_)" d="M230.357,340.308c0,0-4.899,28.88-5.542,53.537c-0.599,22.961,0.188,38.652,24.837,51.128
	c20.401,10.327,31.32-1.676,37.187,10.896c5.867,12.573,10.049,16.763-10.901,11.734c-20.95-5.029-60.993-11.498-67.688,13.411
	c-6.987,25.999,79.427,13.411,93.676,12.573c14.249-0.838,15.627-10.243,10.757-21.14s-5.638-34.204,11.931-32.212
	c2.572,0.292,67.426,15.399,84.797-54.773c0.639-25.145-20.209,37.751-55.394,17.043c0,0-29.365-12.778-41.166-58.708
	c-11.215-43.651-3-5.74-7.258-18.579S230.357,340.308,230.357,340.308z"/>
<path fill="#FCEED7" d="M227.667,359.113c0,0-3.644,27.204-2.828,48.441c0.816,21.237,10.883,29.732,20.695,35.174
	C262.552,452.167,276.509,347.253,227.667,359.113z"/>
<path fill="#FCEACB" d="M277.745,116.964c0,0,33.76-47.624,75.039-60.709c40.601-12.87,71.547-9.726,67.124,23.647
	c-3.715,28.033-17.78,72.127-91.084,90.339C240.739,192.126,277.745,116.964,277.745,116.964z"/>
<path fill="#FFBD99" d="M299.628,138.724c0,0,18.708-39.188,62.674-51.709c37.14-10.577,33.071,8.004,28.036,23.234
	s-22.691,40.959-67.316,47.076C275.655,163.82,299.628,138.724,299.628,138.724z"/>
<radialGradient id="SVGID_3_" cx="263.9334" cy="241.1578" r="116.3168" fx="329.8837" fy="317.8944" gradientTransform="matrix(1 0 0 0.6854 0 75.8763)" gradientUnits="userSpaceOnUse">
	<stop  offset="0" style="stop-color:#FFDECC"/>
	<stop  offset="0.5179" style="stop-color:#F9DCC0"/>
	<stop  offset="1" style="stop-color:#FCEBCE"/>
</radialGradient>
<path fill="url(#SVGID_3_)" d="M350.2,173.616c0,0-14.384-56.358-80.732-59.497c-50.355-2.383-75.739,15.481-90.78,41.318
	c-14.782,25.393-11.521,53.689-31.245,68.355c-20.868,15.518-21.925,36.442,5.854,63.607c17.366,16.983,39.504,24.542,57.259,27.36
	c16.494,2.618,20.64,5.343,18.953,30.803c-1.437,21.683,75.938-5.658,78.453-13.201c2.514-7.544-7.333-21.706,0.837-35.792
	C317.21,282.069,369.672,251.908,350.2,173.616z"/>
<path fill="#FFDAB8" d="M215.217,315.307c0,0,26.487,2.391,43.577-2.773c17.798-5.377,9.155,6.567-29.043,28.603
	c0,0,1.202-11.857-2.742-19.293C223.076,317.162,222.083,317.688,215.217,315.307z"/>
<g id="形状_77_7_">
	<g>
		<path fill-rule="evenodd" clip-rule="evenodd" fill="#FFBD99" d="M297.833,244.331c-0.727-6.912-12.393-11.1-26.046-9.376
			c-13.656,1.724-24.141,8.727-23.4,15.637c0.727,6.912,12.379,11.103,26.032,9.379C288.09,258.243,298.561,251.243,297.833,244.331
			z"/>
	</g>
</g>
<radialGradient id="SVGID_4_" cx="283.4476" cy="434.9026" r="94.5509" gradientUnits="userSpaceOnUse">
	<stop  offset="0" style="stop-color:#F9C9A8"/>
	<stop  offset="0.5179" style="stop-color:#F9DCC0"/>
	<stop  offset="1" style="stop-color:#FCEBCE"/>
</radialGradient>
<path fill="url(#SVGID_4_)" d="M267.161,354.19c0,0,2.951,43.847,0,58.934c-2.951,15.087,15.534,24.307,23.893,19.278
	c8.359-5.029,15.159-12.249,0-78.212C280.135,306.676,267.161,354.19,267.161,354.19z"/>
<path fill-rule="evenodd" clip-rule="evenodd" fill="#EFBB93" d="M281.124,416.168c-0.48,3.039-2.234,11.112-4.616,15.113
	c0.741,0.442,1.611,0.969,2.551,1.216c1.049-2.056,2.341-7.14,2.86-9.626C283.012,417.66,281.775,412.083,281.124,416.168z"/>
<path fill-rule="evenodd" clip-rule="evenodd" fill="#EFBB93" d="M291.69,419.331c-0.629,3.239-2.663,10.23-5.366,14.428
	c0.587,0,0.989-0.084,1.532-0.178c0.545-0.094,1.216-0.238,1.669-0.454c1.202-2.164,2.963-8.095,3.217-10.808
	C293.296,416.436,292.541,414.977,291.69,419.331z"/>
<path fill-rule="evenodd" clip-rule="evenodd" fill="#EFBB93" d="M220.422,494.807c0,0,0.953,0.269,3.237,0.745
	c0,0,0.082-8.194,10.829-12.761c7.263-3.086,2.53-2.865-4.084-0.304C223.532,485.148,221.674,490.216,220.422,494.807z"/>
<path fill-rule="evenodd" clip-rule="evenodd" fill="#EFBB93" d="M210.374,489.823c0,0,0.208,0.476,2.53,1.971
	c0,0-0.062-6.575,8.712-11.56c7.563-4.297,0.761-2.495-3.928,0.366C214.911,482.295,210.999,485.64,210.374,489.823z"/>
<path fill-rule="evenodd" clip-rule="evenodd" fill="#EEBE9F" d="M190.889,487.519c0,0,0.732,0.37,2.997,1.023
	c0,0-0.019-7.277,10.728-11.843c7.263-3.086,2.53-2.866-4.084-0.304C193.659,479.056,192.142,482.928,190.889,487.519z"/>
<path fill-rule="evenodd" clip-rule="evenodd" fill="#EEBE9F" d="M183.858,481.485c0,0,0.406,1.489,2.032,3.053
	c0,0-0.188-6.38,8.586-11.364c7.563-4.297,0.761-2.495-3.928,0.366C187.77,475.235,184.483,477.302,183.858,481.485z"/>
<path fill-rule="evenodd" clip-rule="evenodd" fill="#EEBE9F" d="M220.037,415.063c-0.347,3.053-1.042,11.258,0.048,15.761
	c-0.767,0.22-1.355,0.351-2.515,0.461c-0.405-2.266-0.111-7.467,0.062-10C217.99,415.974,220.5,410.956,220.037,415.063z"/>
<path fill-rule="evenodd" clip-rule="evenodd" fill="#EEBE9F" d="M212.318,414.654c-0.569,3.248-1.219,10.499-0.342,15.383
	c-0.501-0.209-0.816-0.431-1.249-0.712c-0.433-0.282-0.958-0.655-1.272-1.019c-0.288-2.449,0.233-8.614,0.942-11.237
	C211.934,411.378,213.077,410.285,212.318,414.654z"/>
<path fill="#57301B" d="M250.617,228.147c-22.679,0.752-31.559-10.27-35.083-15.737c-2.556-3.967-1.303-9.296,3.447-5.604
	c8.975,6.976,15.64,11.887,32.953,11.881c15.031-0.005,26.055-6.674,30.565-13.428c1.186-1.776,2.618-0.507,1.983,2.213
	C283.028,213.704,274.104,227.368,250.617,228.147z"/>
<path fill="#57301B" d="M140.537,227.989c-9.661,2.877-19.299,10.776-9.449,29.336s26.65,5.962,26.647-16.064
	C157.734,230.182,154.101,226.135,140.537,227.989z"/>
<path fill="#F7CC9D" d="M182.723,149.077c0,0-3.839,25.245,31.934,4.383c0.835-0.487,2.378-1.573,3.505,0.488
	c0.635,1.159,2.899,10.237,15.122,11.019c9.124,0.584,18.251-9.966,20.775-18.864c1.1-3.878-3.585,1.905-4.391,2.633
	c-2.066,1.866-18.395,18.997-29.716-0.835c-0.629-1.101-1.492-3.098-4.646-1.375c-2.071,1.132-23.192,13.747-29.167-2.052
	C186.14,144.474,183.755,147.677,182.723,149.077z"/>
</svg>
