<?xml version="1.0" encoding="utf-8"?>
<!-- Generator: Adobe Illustrator 17.1.0, SVG Export Plug-In . SVG Version: 6.00 Build 0)  -->
<!DOCTYPE svg PUBLIC "-//W3C//DTD SVG 1.1//EN" "http://www.w3.org/Graphics/SVG/1.1/DTD/svg11.dtd">
<svg version="1.1" id="图层_1" xmlns="http://www.w3.org/2000/svg" xmlns:xlink="http://www.w3.org/1999/xlink" x="0px" y="0px"
	 viewBox="0 0 910 775" style="enable-background:new 0 0 910 775;" xml:space="preserve">
<g id="形状_13">
	<g>
		<path style="fill:#FF9B48;" d="M415.5,331.5c0,0-32.1,13.8-63.8,45.1c-41.3,37.3-64,58.9-83.2,64.6c-3.1,1.6-14.4,5.4-21.7,7.2
			c-9.7,2.4-19.7,2.5-23,6.1c-1.6,1.8-0.7,4.7,0.8,6c1.6,1.3,6.7,1.3,6.7,1.3s-14.1,4.2-9,12.9c4.7,7.9,36.6-14.6,38-4.6
			c0.7,5.3-17,9.4-8.6,15.9c3.8,3,16.6-4.5,25.4-12.4c6.5-5.8,12.6-15.8,32.6-29.6c16.2-11.2,46.6-29.3,78.9-42.8
			C460.8,371,415.5,331.5,415.5,331.5z"/>
	</g>
</g>
<g id="形状_14">
	<g>
		<path style="fill:#CC7123;" d="M244.8,453.4c-1.5,1.5-5.5,3.8-7.4,5c-3.9,2.4-7.4,3.2-7.4,3.2s1,0.3,2.6-0.2
			c4.6-1.2,10.7-3.8,13.4-6.2C248.1,453.4,247,451.3,244.8,453.4z"/>
	</g>
</g>
<g id="形状_13_2_">
	<g>
		<path style="fill-rule:evenodd;clip-rule:evenodd;fill:#FF9B48;" d="M664.3,461.7c0,0,5.2,0,6.7-1.3c1.6-1.3,2.5-4.2,0.8-6
			c-3.2-3.6-13.2-3.7-23-6.1c-7.4-1.8-18.6-5.6-21.7-7.2c-19.2-5.7-42-27.3-83.2-64.6c-31.7-31.4-66-45.4-66-45.4
			s-43.1,39.9,29.1,70c32.3,13.5,62.7,31.6,78.9,42.8c20,13.8,26.1,23.8,32.6,29.6c8.9,7.9,21.7,15.3,25.4,12.4
			c8.4-6.6-9.4-10.6-8.6-15.9c1.4-9.9,33.4,12.6,38,4.6C678.4,465.9,664.3,461.7,664.3,461.7z"/>
	</g>
</g>
<g id="形状_14_2_">
	<g>
		<path style="fill-rule:evenodd;clip-rule:evenodd;fill:#CC7123;" d="M658.2,458.4c-1.9-1.2-5.9-3.5-7.4-5c-2.2-2.1-3.4,0-1.2,1.8
			c2.7,2.4,8.8,5,13.4,6.2c1.6,0.4,2.6,0.2,2.6,0.2S662.1,460.8,658.2,458.4z"/>
	</g>
</g>
<radialGradient id="SVGID_1_" cx="453.315" cy="403.5234" r="149.3823" gradientTransform="matrix(1 0 0 0.9295 0 28.4305)" gradientUnits="userSpaceOnUse">
	<stop  offset="0" style="stop-color:#FFC07D"/>
	<stop  offset="0.5713" style="stop-color:#FEB162"/>
	<stop  offset="1" style="stop-color:#FEA852"/>
</radialGradient>
<path style="fill-rule:evenodd;clip-rule:evenodd;fill:url(#SVGID_1_);" d="M672.6,747.7c-21.5,7.8-66.2,4.8-91.8,3.7
	c-26.7-1.2-83.5-9.3-94.1-12.2c-22.4-6.2-9.7-20-7.5-30.1c2.2-10.4,3.3-20.6,2.8-31.8c-0.2-3.7-0.4-10.7-6.9-10.4
	c-7.1,2.2-13.8,3.4-20,4c0,0-0.1,0-0.1,0c-0.5,0-1,0.1-1.5,0.1c-0.3,0-0.7,0.1-1,0.1c-0.3,0-0.6,0-1,0.1c-0.5,0-1,0-1.5,0.1
	c-0.2,0-0.5,0-0.7,0c-0.5,0-1,0-1.5,0c-0.3,0-0.5,0-0.8,0c-0.4,0-0.8,0-1.1,0s-0.8,0-1.1,0c-0.3,0-0.5,0-0.8,0c-0.5,0-1,0-1.5,0
	c-0.2,0-0.5,0-0.7,0c-0.5,0-1,0-1.5-0.1c-0.3,0-0.6,0-1-0.1c-0.4,0-0.7,0-1-0.1c-0.5,0-1-0.1-1.5-0.1c0,0-0.1,0-0.1,0
	c-6.2-0.6-12.9-1.8-20-4c-6.6-0.3-6.8,6.7-6.9,10.4c-0.5,11.2,0.6,21.5,2.8,31.8c2.1,10.1,14.9,23.9-7.5,30.1
	c-10.6,2.9-72.9,10.7-99.6,12.4c-28.8,1.9-76.1,2.2-89.8-3.6c-7.5-3.2-7.9-22.4,12.4-32.8c25.5-13.1,131.4-7.2,138.4-7.7
	c14.8-1,11.8-5.7,12-13.1c0.2-13.9-11.2-21-20.9-27.1c-9.7-6.1-58.4-27.5-58.4-74.8c0-24.3,6.7-57.1,38.1-103.8
	c76.5-113.7,79.3-177.1,79.3-177.1l6.2-0.3c0.2-1.2,0.4-1.8,0.4-1.8l22.7,0.9l22.7-0.9c0,0,0.1,0.6,0.4,1.8l6.2,0.3
	c0,0,2.8,63.4,79.3,177.1c31.4,46.7,38.1,79.5,38.1,103.8c0,47.3-48.6,68.7-58.4,74.8c-9.7,6.1-21.1,13.2-20.9,27.1
	c0.1,7.4-2.3,14,12.4,14.3c7,0.2,112.5-6.5,138,6.5C683.9,725.5,680.3,744.9,672.6,747.7z"/>
<path style="fill-rule:evenodd;clip-rule:evenodd;fill:#DD7528;" d="M243,723.4c-22.2,5.9-19.5,16.2-16.3,24.5c0.4,1,0.9,2,1.4,3
	c1.3,0.2,2.7,0.4,4.1,0.5c-7.7-17.6,3.4-23.2,13.2-26.6C249.7,723.2,246,722.5,243,723.4z"/>
<path style="fill-rule:evenodd;clip-rule:evenodd;fill:#DD7528;" d="M270,722.5c-18.9,4.2-16.1,20.2-13.2,27.8
	c0.3,0.8,0.7,1.6,1.1,2.3c1.2,0,2.5,0,3.7,0.1c-5.4-16.3,1.6-23.3,7.1-27C271.7,723.6,276.8,721,270,722.5z"/>
<path style="fill-rule:evenodd;clip-rule:evenodd;fill:#DD7528;" d="M660.4,750.6c0.3-0.8,0.5-1.4,0.8-2.3c2.4-8-0.2-22.4-15.8-26.3
	c-8.6-2.1-4.9,1.8-1.1,3c9.3,3,14,14,9.9,26.4C656.4,751.2,658.4,751,660.4,750.6z"/>
<path style="fill-rule:evenodd;clip-rule:evenodd;fill:#DD7528;" d="M631.4,750.6c4.5-9.8,0.5-24.5-10.1-28.7
	c-4.2-1-0.3,2.7,2.8,5.9c4.1,4.3,6.3,14.6,2.6,22.5c-0.5,1.1-0.9,1.9-1.2,2.6c1.5,0,3.1,0,4.6,0C630.5,752.2,631,751.5,631.4,750.6z
	"/>
<g id="形状_12">
	<g>
		
			<linearGradient id="SVGID_2_" gradientUnits="userSpaceOnUse" x1="566.1711" y1="601.9796" x2="563.8483" y2="392.9224" gradientTransform="matrix(1 0 0 1 -119.6437 -67.8331)">
			<stop  offset="0" style="stop-color:#FFC28A"/>
			<stop  offset="0.7938" style="stop-color:#FFCD9F"/>
			<stop  offset="1" style="stop-color:#FFD0A5"/>
		</linearGradient>
		<path style="fill-rule:evenodd;clip-rule:evenodd;fill:url(#SVGID_2_);" d="M481.8,396.9c-15.9-26-55.3-23.4-70.8,2
			c-18.7,30.6-41.5,113.6-25.4,160.8c13.3,38.9,105.9,41.5,120.2,4.2C525.1,513.7,498.6,424.4,481.8,396.9z"/>
	</g>
</g>
<path style="opacity:0.6;fill-rule:evenodd;clip-rule:evenodd;fill:#DD7528;" d="M337.5,517.6c0,0,42.9,10.7,111.9,10.7
	c65,0,77.1-3.8,111.2-11.5C561.6,517.7,455.7,701.8,337.5,517.6z"/>
<g id="形状_11_拷贝_2">
	<g>
		<path style="fill-rule:evenodd;clip-rule:evenodd;fill:#FFBF80;" d="M557.9,517.7c-0.9,0.5-1.9,0.9-2.9,1.3
			c-31.6,14.1-69,18.5-98.3,19.4c-28.9,0.2-71.6-2.4-106.8-16.3c-3.1-1.2-7.4-2.7-10.4-4.1c-8-3.9-9.7,6.2-9.6,12.1
			c0.4,25.3,6,105.1,78.4,132.1c2.9,1.8,11.8,6.3,29.9,7.4c5.9,1,12.6,0.7,19.2-0.1c0.7,0,1.4-0.1,2.1-0.1
			c10.9-1.1,20.6-3.8,29.4-7.6c0.6-0.2,0.9-0.3,0.9-0.3v-0.1c55-24.4,70.6-94.6,74.9-128.8c0.3-2.5,0.5-4.9,0.8-7
			C566.8,516.5,560.7,516.2,557.9,517.7z"/>
	</g>
</g>
<path style="opacity:0.6;fill-rule:evenodd;clip-rule:evenodd;fill:#DD7528;" d="M474.8,311.5c-8.5,5-20.1,12-26.5,12.9
	c-9.8,1.4-20.8-0.2-31.8-12.7c-0.1,0.9-0.4,5.2-1.9,12.8c3.2,10.1,10,20.9,24.6,22.6c17.1,2,29.9-11.7,37.6-23.8
	c-1.5-7.8-1.7-11.8-1.7-11.8L474.8,311.5z"/>
<g id="形状_9_1_">
	<g>
		<path style="fill-rule:evenodd;clip-rule:evenodd;fill:#FFC07D;" d="M415.3,118.9C379,38.9,323.4,8.1,323.4,8.1S309-1,307,9
			c-21.4,125.2,78,153.2,78,153.2S451.6,198.9,415.3,118.9z"/>
	</g>
</g>
<g id="形状_10_1_">
	<g>
		<path style="fill-rule:evenodd;clip-rule:evenodd;fill:#FF9B48;" d="M403.9,137.4c-13.7-61.4-65-82.7-65-82.7s-10.7-7.5-10.9,2.9
			c4.2,78.9,70.1,91.5,70.1,91.5S407,151.6,403.9,137.4z"/>
	</g>
</g>
<g id="形状_9_拷贝_1_">
	<g>
		<path style="fill:#FFC07D;" d="M589.7,8.8c-2-9.9-16.4-0.8-16.4-0.8s-55.6,30.8-92,110.7c-36.3,79.9,30.2,43.2,30.2,43.2
			S611.2,134,589.7,8.8z"/>
	</g>
</g>
<g id="形状_10_拷贝_1_">
	<g>
		<path style="fill:#FF9B48;" d="M557.8,54.5c0,0-51.4,21.2-65.1,82.6c-3.1,14.3,5.9,11.7,5.9,11.7s65.9-12.5,70.1-91.4
			C568.6,47,557.8,54.5,557.8,54.5z"/>
	</g>
</g>
<g id="脸_4_">
	<g>
		
			<radialGradient id="SVGID_3_" cx="568.1826" cy="388.3258" r="96.4797" gradientTransform="matrix(0.9999 1.315257e-02 -9.151502e-03 0.6957 -116.0408 42.8476)" gradientUnits="userSpaceOnUse">
			<stop  offset="0" style="stop-color:#FECD97"/>
			<stop  offset="1" style="stop-color:#FFC07A"/>
		</radialGradient>
		<path style="fill:url(#SVGID_3_);" d="M522.1,190.1c-3.6-11.4-7-27.8-11.7-41.5c-10.7-30.8-35.6-41-62-40.6
			c-26.7,0.4-52,11.8-62,40.7c-4.8,13.7-7.7,30.2-11.3,41.5c-3.6,11.4-11.5,60,8.4,90.2c-0.1,0.2,8.5,10.6,24.3,26.4
			c13,13,20.5,23.7,37,24.7c0.1,0,0.2,0,0.3,0c0.1,0,0.2,0,0.3,0c1.4,0.1,2.8,0.1,4.3,0c0.3,0,0.5-0.1,0.8-0.1
			c20.7-1.4,27.4-14.3,40.3-25.9c16.6-15,23-25.1,22.9-25.3C533.6,250.1,525.7,201.5,522.1,190.1z"/>
	</g>
</g>
<path style="fill-rule:evenodd;clip-rule:evenodd;fill:#66361F;" d="M447.6,199.9c-0.2,0.2,28.9-8.4,41.3-39.9
	c-0.1-0.7,13.1,23.7,34.1,33.2c-0.3-1.2-0.7-2.3-0.9-3.2c-3.2-13.6-6-26.7-10.8-40.4c-10.7-30.8-36.5-42.1-63-41.7
	c-26.7,0.4-52,11.8-62,40.7c-4.8,13.7-9,31.3-11.3,41.5c-0.1,0.5-0.3,1.1-0.5,1.7c7.1-1.1,19.8-6.7,31.9-30.5
	C405.8,161.5,412.1,182.6,447.6,199.9z"/>
<path style="fill-rule:evenodd;clip-rule:evenodd;fill:#E5432E;" d="M518.4,176.7c-1.4-5.2-2.8-10.7-4.3-16.2
	c-10.2-13.5-31.7-34.8-64.8-34.5c-38.3,0.4-56.9,20.8-66.4,34c-1.4,5-2.6,10.1-3.8,15c9-9.4,33-29.8,70.2-29.7
	C482.4,145.5,506.1,165.3,518.4,176.7z"/>
<g id="形状_3_拷贝">
	<g>
		<path style="fill-rule:evenodd;clip-rule:evenodd;fill:#E5432E;" d="M517.2,26.6c-1.2-1.8-2.6-1.4-3.8-0.8
			c-46.4,21.7-60.6,62.6-64.9,83c-6-24.6-22.8-62.7-65.2-83.4c-1.7-0.9-3.8-1.2-4.6,1.7c0,0-15.1,68.5,54.6,103.7
			c-14.4,11-29.7,25.3,14.8,6.6c48.3,20.3,28.4,3.7,14.5-6.5C532.6,95.7,517.2,26.6,517.2,26.6z"/>
	</g>
</g>
<g id="形状_73">
	<g>
		<path style="fill-rule:evenodd;clip-rule:evenodd;fill:#AA2D24;" d="M446.2,100.5c0,0-3.1,7.1-2.6,15.8c0.5,10.2,3,15.1,3.2,11.1
			c0.1-2.8,1.3-13.2,2-18.8C449,107,446.2,100.5,446.2,100.5z"/>
	</g>
</g>
<g id="形状_82">
	<g>
		<path style="fill-rule:evenodd;clip-rule:evenodd;fill:#C13021;" d="M478.1,131.8c-1.9-0.9-9.3-4.1-10.5-3.4
			c-6.5,4.1-13.4,11.1-3.9,8.7C470.4,135.4,480.2,132.7,478.1,131.8z M429.5,128.6c-2.5-0.7-10.9,2.9-10.9,2.9s3.2,1.7,7.2,2.8
			c3.9,1.1,12.3,4.3,11.7,1.8C436.9,133.6,433.2,129.7,429.5,128.6z"/>
	</g>
</g>
<path style="fill-rule:evenodd;clip-rule:evenodd;fill:#FFCE99;" d="M418,236c-7.9-19.5-20-23.7-28.3-22.2
	c-15.6,2.8-17.7,10.8-17.6,10.3c0.1-0.4-0.3-14.1,12.9-17.4c12-3,24.2,1.9,29.5,10.2c4.8,7.5,4.3,19.1,4.3,19.1"/>
<path style="fill-rule:evenodd;clip-rule:evenodd;fill:#FFCE99;" d="M477.9,236c7.9-19.5,20-23.7,28.3-22.2
	c15.6,2.8,17.7,10.8,17.6,10.3s0.3-14.1-12.9-17.4c-12-3-24.2,1.9-29.5,10.2c-4.8,7.5-4.3,19.1-4.3,19.1"/>
<g id="形状_4_3_">
	<g>
		<path style="fill:#FFFFFF;" d="M399.2,215.4c-6.3-3-19.8-1.5-25,2.9c0,0-7.9,32.6,20.7,35.5c14.2,0.6,22.5-6.9,23.8-15.1
			C420.2,230,406.6,218.8,399.2,215.4z"/>
	</g>
</g>
<g id="形状_6_3_">
	<g>
		<path style="fill-rule:evenodd;clip-rule:evenodd;fill:#512A15;" d="M413.2,223c0-0.1-7.3-10.1-16.9-12.4c-3.5-0.9-11.3,1-11.3,1
			s-11.6,9.5-2.9,25.6c5.1,8.4,13,12,20.1,11.2c8.7-1,13.7-7.2,14.4-13.9C417.2,227.7,413.2,223,413.2,223z"/>
	</g>
</g>
<g id="形状_48_1_">
	<g>
		<path style="fill:#FFFFFF;" d="M389.9,235.1c-0.5-2.6-8.9-2.9-10.6,0.6c-1.3,2.7,0.1,5.7,2.2,6.1
			C385.7,242.7,390.5,238.8,389.9,235.1z"/>
	</g>
</g>
<g id="形状_36_副本_3_">
	<g>
		<path style="fill-rule:evenodd;clip-rule:evenodd;fill:#A85726;" d="M409.6,196.4c-10.5-4.5-21.5-3-19.7,1.4
			c0.7,1.8,6.1-1.4,14.6,1.4c11.7,3.8,11.2,10.3,14.1,9.5C423.5,207.3,415.6,199,409.6,196.4z"/>
	</g>
</g>
<g id="形状_4_1_">
	<g>
		<path style="fill:#FFFFFF;" d="M522.6,218.3c-5.3-4.5-18.5-5.3-25-2.9c-15.3,5.6-20.9,14.6-19.5,23.4c1.3,8.2,9.6,15.6,23.8,15.1
			C530.5,251,522.6,218.3,522.6,218.3z"/>
	</g>
</g>
<g id="形状_6_1_">
	<g>
		<path style="fill-rule:evenodd;clip-rule:evenodd;fill:#512A15;" d="M512.6,213.3c0,0-6.5-1.7-10.1-0.8
			c-9.7,2.3-17.5,8.3-17.5,8.4c0,0-2.9,10.7-1.2,15.2c3.3,8.5,6.1,12.1,14.9,12.4c7.1,0.3,15.2-2.4,18.2-12.6
			C520.6,223.9,512.6,213.3,512.6,213.3z"/>
	</g>
</g>
<g id="形状_48_副本">
	<g>
		<path style="fill:#FFFFFF;" d="M492.2,236.2c-1.9-3.4-9.6,0.7-9.9,3.3c-0.6,4.3,1.6,5.4,4.9,4.5C490.9,243,494,239.4,492.2,236.2z
			"/>
	</g>
</g>
<g id="形状_36_副本_4_">
	<g>
		<path style="fill-rule:evenodd;clip-rule:evenodd;fill:#A85726;" d="M487.4,196.3c-6,2.4-13.8,9.4-10.5,11.7
			c3.2,2.2,5.2-5.2,13.5-7.9c10.4-3.4,17.9,0.4,18.4-2.2C509.5,193.9,497.9,192.1,487.4,196.3z"/>
	</g>
</g>
<g id="Shape_2_13_">
	<g>
		<path style="fill-rule:evenodd;clip-rule:evenodd;fill:#9C6342;" d="M519.3,246.6c2.9-4.3,3.3-8.7,2.5-7.1
			c-1.9,3.8-4.4,8.2-10.2,10.9c-5.4,2.5-11.9,2.7-16.2,2.7c-4,0.1,7.8,2.8,16.2-0.3c0.6,0.2,1.5,0.6,2.4,1.1c1.1,0.6,3.2,2,3.1,1.2
			c-0.2-1.4-0.9-3.2-2-4.1c0.8-0.6,1.6-1.3,2.2-2c0.3,0,0.7,0.1,1.3,0.2c1.8,0.3,3.4,2.4,3.4,1.3C522.1,249.3,521,247.6,519.3,246.6
			z"/>
	</g>
</g>
<g id="形状_65_副本_3_">
	<g>
		<path style="fill-rule:evenodd;clip-rule:evenodd;fill:#713D1F;" d="M533.7,214.6c-0.5,0.9-2.3,2.6-4.2,3.5
			c-1.7,0.8-4.1,1.3-6.4,0.7c-0.1-0.2-0.1-0.3-0.2-0.5c-1.5-3.1-6.6-6.6-11.4-7.5c-7.8-1.5-14.5-0.6-20.1,2
			c-7.5,3.5-12.7,10.4-14.3,19.5c-0.7,3.9,0.2,6.2,1.4,2.8c2.8-8.3,5.6-12.7,13.2-16.8c5.9-3.2,13.3-5.6,24.1-0.3
			c3.7,1.8,5.7,5.5,6.4,8.1c0.2,0.9,1.2,4.1,1.5,2c0.1-1,0.3-2,0.3-3.1c0.8,0,2.1-0.1,3.9-0.8c1.6-0.6,4.1-2.5,5.3-4.7
			C534.6,216.9,534.6,212.9,533.7,214.6z"/>
	</g>
</g>
<g id="Shape_2_3_">
	<g>
		<path style="fill-rule:evenodd;clip-rule:evenodd;fill:#9C6342;" d="M401.1,253.1c-4.3-0.1-10.8-0.2-16.2-2.7
			c-5.8-2.7-8.3-7.1-10.2-10.9c-0.8-1.6-0.4,2.8,2.5,7.1c-1.7,1-2.8,2.7-2.8,3.8c0,1.1,1.7-1,3.4-1.3c0.6-0.1,1-0.1,1.3-0.2
			c0.7,0.7,1.4,1.4,2.2,2c-1.1,1-1.8,2.8-2,4.1c-0.1,0.8,2-0.6,3.1-1.2c0.9-0.5,1.8-0.9,2.4-1.1C393.3,256,405.1,253.2,401.1,253.1z
			"/>
	</g>
</g>
<g id="形状_65_副本_1_">
	<g>
		<path style="fill-rule:evenodd;clip-rule:evenodd;fill:#713D1F;" d="M418.7,232.3c-1.6-9.1-6.7-16-14.3-19.5
			c-5.7-2.6-12.3-3.7-20.1-2c-4.3,0.9-8.6,3.8-10.3,6.2c-0.4,0.5-0.7,1.1-0.9,1.7c0,0,0,0,0,0c-2.4,0.8-5,0.3-6.7-0.6
			c-1.9-0.9-3.7-2.6-4.2-3.5c-0.9-1.7-0.9,2.3,0.5,4.9c1.2,2.2,3.7,4.1,5.3,4.7c2,0.8,3.3,0.9,4.1,0.8c0,1.2,0,2.3,0.1,3.1
			c0.3,2.1,1.3-0.2,1.6-1.1c1.3-3.9,2.6-7.2,6.3-9c10.8-5.3,18.2-3,24.1,0.3c7.6,4.1,10.3,9.2,13.2,16.8
			C418.6,238.5,419.3,236.2,418.7,232.3z"/>
	</g>
</g>
<g id="腮红2_1_">
	<g>
		<path style="fill-rule:evenodd;clip-rule:evenodd;fill:#FFA083;" d="M398.5,263c-11.3-1.2-16.3,2.6-16.3,6.1
			c0,2.9,4.2,8.6,14.6,9.2c13.2,0.7,17-3.7,17.2-5.8C414.2,270,412.4,264.5,398.5,263z"/>
	</g>
</g>
<g id="腮红2_副本_1_">
	<g>
		<path style="fill-rule:evenodd;clip-rule:evenodd;fill:#FFA083;" d="M498.3,263c-13.9,1.5-15.6,7-15.5,9.5c0.1,2.2,4,6.5,17.2,5.8
			c10.4-0.5,14.6-6.3,14.6-9.2C514.6,265.6,509.6,261.8,498.3,263z"/>
	</g>
</g>
<path style="fill-rule:evenodd;clip-rule:evenodd;fill:#512A15;" d="M447.3,323.7c-7.2,0-18.6-6.5-17.6-13.7
	c0.7-5.7,6.5-7.7,17.7-7.7c11.4,0,17.3,1.9,17.9,7.7C465.9,316.4,456.4,323.7,447.3,323.7z"/>
<g id="形状_20">
	<g>
		<path style="fill:#FCEACB;" d="M420.9,451.6c-21.4-16.6-48.1-5.9-48-1.7c1.8,45.2,44.9,40.7,44.9,40.7c15-1.7,16.8-12.2,16.8-12.2
			S435.2,462.8,420.9,451.6z"/>
	</g>
</g>
<g id="形状_21">
	<g>
		<path style="fill:#FFBD99;" d="M428.3,476.4c-3-15.5-34.8-20.6-34.4-14.3c1.6,25.2,29.8,23.1,29.8,23.1S429.3,484.4,428.3,476.4z"
			/>
	</g>
</g>
<g id="形状_20_拷贝">
	<g>
		<path style="fill:#FCEACB;" d="M472.7,453.5c-14.8,13.3-10.4,29.6-10.4,29.6s1.1,6,16.2,7.7c0,0,43.3,4.5,45-40.8
			C523.5,445.8,496.1,432.3,472.7,453.5z"/>
	</g>
</g>
<g id="形状_21_拷贝">
	<g>
		<path style="fill-rule:evenodd;clip-rule:evenodd;fill:#FFBD99;" d="M467.9,476.5c-1.1,8,4.6,8.8,4.6,8.8s28.3,2.1,29.9-23.1
			C502.9,455.9,470.9,461,467.9,476.5z"/>
	</g>
</g>
<g id="形状_23_1_" style="opacity:0.4;">
	<g>
		<path style="fill-rule:evenodd;clip-rule:evenodd;fill:#DD7528;" d="M480.3,541c-17.4-3.2-64.9-6.3-70.1,5.5
			c-5.2,11.8-17.3,6-14.7,39.6c0,0,4.1,21.4,20.9,17.2c5.1-2.1,7.1-8.9,7-16.1c-0.1-7.1,2.9-7.4,9.3-7.2c14.5,0.4,22.3,1.5,32.4-4.7
			c5.5-3.4,9,4.5,8.1,13c-1.1,9.9,1,14,8.9,15.8c7.3,1.6,13.4-1.7,15.6-9.2c2.3-8,2.9-16.7,2.9-16.7S497.7,544.2,480.3,541z"/>
	</g>
</g>
<path style="fill-rule:evenodd;clip-rule:evenodd;fill:#FCEBCE;" d="M483.4,517.8c0,0,19.2,13.2,18.1,56.1
	c-0.5,14.7-7.6,22.1-15.2,21.6c-7.6-0.5-8.4-8.8-7.3-17.5c0.5-3.4,1.4-14.5-2.6-29.8C472.4,533,483.4,517.8,483.4,517.8z"/>
<path style="fill-rule:evenodd;clip-rule:evenodd;fill:#FCEBCE;" d="M408.5,523.1c0,0-15.3,14.8-14,49.9
	c0.5,14.7,7.5,23.1,15.2,22.6c7.7-0.5,8-6.7,7.5-13.5c-0.4-6-1.6-15.8,2.4-31.2C423.7,535.5,408.5,523.1,408.5,523.1z"/>
<path style="fill-rule:evenodd;clip-rule:evenodd;fill:#F6BF96;" d="M484.9,585.1c-0.2,3-0.8,7.7-1.6,9.7c0.4,0.2,0.8,0.3,1.2,0.4
	c0.5-1.3,0.9-3.1,1.2-5.1C486.4,585.4,485.2,580.4,484.9,585.1z"/>
<path style="fill-rule:evenodd;clip-rule:evenodd;fill:#F6BF96;" d="M491.1,585.2c0,2.1,0,7-1.3,10c0.6-0.2,1.2-0.3,1.8-0.6
	c0.5-1.5,0.7-3.7,0.8-5.5C492.7,585.5,491.1,582.4,491.1,585.2z"/>
<path style="fill-rule:evenodd;clip-rule:evenodd;fill:#F6BF96;" d="M412.3,590.1c-0.8-2.6-1.9-8.3-2.1-6.7
	c-0.4,2.8,0.3,6.6,1.3,9.7c0.2,0.8,0.5,1.4,0.9,2c0.7-0.2,1.3-0.5,1.8-0.8C413.4,593,412.8,591.8,412.3,590.1z"/>
<path style="fill-rule:evenodd;clip-rule:evenodd;fill:#F6BF96;" d="M406.5,590.9c-1.6-4.6-1.8-9.1-2.1-5.9c-0.4,3.9,0.7,7,2.1,9.6
	c0.1,0.2,0.3,0.4,0.4,0.6c0.5,0.1,1.1,0.1,1.7,0.1C407.8,594.2,407.1,592.7,406.5,590.9z"/>
<g id="脸_2_">
	<g>
		<path style="fill:#FCEBCE;" d="M486.2,505c-7.4-26.5-25.1-33.4-38.1-33.2c-13-0.4-32.6,6.6-38.7,32.7c-1.4,9.1-6.3,16.3-4.6,27.7
			c1.7,11.4,5.4,16.9,21.4,27.7c3.3,2.5,5.7,2.5,9.6,5.5c3.9,2.9,8.3,4.3,15.9,3.4c0.1,0,0.2,0,0.4-0.1c3.1-0.5,5.4-1.7,7.7-3.3
			c3.9-2.9,6.3-2.9,9.6-5.5c16-10.8,19.7-16.2,21.4-27.7C492.5,520.7,487.7,510.4,486.2,505z"/>
	</g>
</g>
<g id="形状_77">
	<g>
		<path style="fill-rule:evenodd;clip-rule:evenodd;fill:#FFBD99;" d="M416.4,538.3c-3.4-0.3-6.3,1.1-6.5,3c-0.2,2,2.5,3.8,5.9,4.1
			c3.4,0.3,6.3-1.1,6.5-3S419.8,538.6,416.4,538.3z"/>
	</g>
</g>
<g id="形状_77_副本">
	<g>
		<path style="fill:#FFBD99;" d="M478,538.3c-3.4,0.1-6.2,1.8-6.1,3.7c0.1,2,2.9,3.5,6.3,3.3c3.4-0.1,6.2-1.8,6.1-3.7
			C484.3,539.7,481.5,538.2,478,538.3z"/>
	</g>
</g>
<path style="fill:#F7CC9D;" d="M424.3,492.8c1.4,5.4,4.2,6.4,7.6,6.9c4.3,0.7,6.7-3.4,8-5.1c0,0,2.8,5.4,6.8,6.6
	c4.3,1.3,7.1-0.1,8.6-2.8c0.9-1.7,0.7-4.6,0.7-4.6s3.5,3.7,8.7,2.3c3.1-0.8,3.4-3.5,3.6-5.3c0.2-1.8-0.5-3.6-0.5-3.6
	s3.7,3.8,2.7,8.2c-0.7,3.1-3.4,5.4-6.9,4.9c-2.4-0.3-6.1-2.8-6.1-2.8s-0.3,4.1-3.1,6.1c-2.8,2-7,1.7-9.6,0.2c-2.6-1.5-5-5.2-5-5.2
	s-1.5,3.4-5.2,5.1c-2.2,1-6.3,1.1-8.9-2.5C423.2,497.5,424.3,492.8,424.3,492.8z"/>
<g id="形状_75">
	<g>
		<path style="fill-rule:evenodd;clip-rule:evenodd;fill:#552F19;" d="M417.3,527.6c-6.6-0.6-8.4-0.1-7.9,1.3c0.3,1.1,1.7-0.2,7.7,1
			c9.9,2,14.1,8.7,15.2,5.9C433.4,532.8,425.2,528.3,417.3,527.6z"/>
	</g>
</g>
<g id="形状_75_副本">
	<g>
		<path style="fill-rule:evenodd;clip-rule:evenodd;fill:#713D1F;" d="M478.7,527.6c-7.8,0.7-16.1,5.2-14.9,8.2
			c1.1,2.8,5.3-3.8,15.2-5.9c6-1.2,7.4,0.1,7.7-1C487,527.5,485.2,527,478.7,527.6z"/>
	</g>
</g>
<g id="形状_19">
	<g>
		<path style="fill:#57301B;" d="M447.6,557.8c-12.4-0.1-11.3,3.8-11.3,3.8s2.1,7.8,11.7,7.6c9.6-0.2,11.3-7.6,11.3-7.6
			S460,557.9,447.6,557.8z"/>
	</g>
</g>
<g>
	<path style="fill:#66361F;" d="M13,102l0.7-0.5h-3.1v-3.4h13.7v3.4h-3.1L22,102c-0.5,0.6-1,1.2-1.6,1.7h6.3v0.9H8.1v-0.9h6.3
		C14.1,103.2,13.6,102.6,13,102z M9.9,95.8h7v-1.6H8.6v-0.9h8.3v-1.7h1v1.7h8.4v0.9h-8.4v1.6H25v0.9H9.9V95.8z M10.4,106.1h14.1v4.1
		h-1v-0.7h-12v0.7h-1V106.1z M11.4,107v1.7h12V107H11.4z M11.7,99v1.7h11.6V99H11.7z M15.4,103.2l-0.8,0.5h4.6
		c0.8-0.9,1.4-1.7,1.8-2.3h-7.2c0.2,0.2,0.4,0.4,0.8,0.9C15,102.7,15.2,103,15.4,103.2z"/>
	<path style="fill:#66361F;" d="M34.8,107.1c-0.8-1.2-1.5-2.4-2.2-3.5c-0.9,1.9-2.2,3.8-3.9,5.5c-0.1-0.1-0.1-0.1-0.2-0.2
		c-0.3-0.3-0.5-0.5-0.6-0.6c1.8-1.8,3.2-3.8,4.1-5.8c-1.2-1.8-2.4-3.5-3.4-5.1l0.9-0.5c0.1,0.2,0.3,0.5,0.5,0.9
		c1,1.6,1.8,2.7,2.4,3.5c0.7-1.9,1.2-4,1.4-6.4h-5.3v-1h6.4v1.1c-0.4,3.2-1,5.7-1.8,7.5c0.4,0.5,0.9,1.3,1.5,2.3
		c0.5,0.8,0.9,1.4,1.2,1.7L34.8,107.1z M33.5,109.3c3.7-2.1,5.8-4.9,6.2-8.4c0.2-1.2,0.2-2.6,0.2-4h1.1c0,1.1,0,2-0.1,2.8
		c0.9,4.3,2.9,7.4,5.9,9.2c-0.3,0.3-0.6,0.7-0.9,1c-2.8-2-4.6-4.7-5.5-8c-0.6,3.4-2.7,6.2-6.3,8.4c-0.1-0.1-0.2-0.3-0.4-0.5
		C33.8,109.6,33.6,109.4,33.5,109.3z M36.3,99.5c-0.4-0.3-0.7-0.4-1.1-0.5c1.1-2.1,2-4.6,2.8-7.3l1.1,0.2c-0.1,0.3-0.2,0.6-0.4,1.1
		c-0.2,0.7-0.4,1.2-0.5,1.6h8.2v1.1l-1.8,3.5c-0.1-0.1-0.3-0.1-0.5-0.2c-0.3-0.1-0.4-0.2-0.5-0.2l1.7-3.1H38
		C37.5,96.9,36.9,98.2,36.3,99.5z"/>
	<path style="fill:#66361F;" d="M51.1,97.5h1.1V108h5.6V94.3h-9v-1h17.3v1h-7.3v5.9h6.6v1h-6.6v6.7h8v1h-19v-1h3.2V97.5z"/>
	<path style="fill:#66361F;" d="M70.2,103.3c2-0.2,3.6-0.4,4.6-0.5c-0.1,0.1-0.1,0.2-0.1,0.5c-0.1,0.2-0.1,0.4-0.1,0.5
		c-0.3,0.1-0.7,0.1-1.2,0.2c-2.3,0.2-3.9,0.4-4.5,0.5l-0.4-1c0.2-0.2,0.7-0.7,1.4-1.5c0.2-0.2,0.4-0.6,0.8-1.1
		c0.5-0.7,0.9-1.3,1.2-1.6c-1.6,0-2.8,0.1-3.6,0.2l-0.4-1c0.4-0.3,0.8-0.8,1.2-1.4c1.1-1.7,2.1-3.4,3-5.3l1.1,0.3
		c-1.4,2.4-2.7,4.6-4,6.4c0.2,0,0.7,0,1.3,0c0.9-0.1,1.6-0.1,2-0.1c0.6-0.9,1.1-1.8,1.6-2.7l1.1,0.4
		C73.5,98.8,71.8,101.3,70.2,103.3z M68.3,108.5l-0.3-0.9c2.4-0.4,4.7-0.8,7-1.2c-0.1,0.4-0.1,0.7,0,1.1
		C72.8,107.8,70.5,108.1,68.3,108.5z M75.6,93.5h10.6v0.9h-4.8v13.6H87v0.9H74.5v-0.9h5.8V94.5h-4.8V93.5z"/>
	<path style="fill:#66361F;" d="M88.8,98.7c-0.2-0.3-0.5-0.6-0.8-0.9c2.7-1.9,4.8-4.1,6.2-6.4l1.1,0.3c-0.4,0.6-0.9,1.2-1.3,1.8h7.9
		v1l-2.6,2.9h5.2v6H91.3v3.4c-0.1,1.2,0.6,1.8,2,1.7h9.4c1.6,0.1,2.4-0.5,2.7-1.6c0.2-0.8,0.3-1.5,0.4-2c0.1,0.1,0.2,0.1,0.3,0.1
		c0.3,0.1,0.5,0.2,0.7,0.2c-0.1,0.2-0.1,0.5-0.2,0.9c0,0.3-0.1,0.7-0.2,1.3c-0.3,1.5-1.5,2.2-3.4,2.1H93c-1.8,0-2.7-0.8-2.7-2.5
		v-9.5C89.8,97.9,89.3,98.3,88.8,98.7z M100.7,94.5h-7.5c-0.8,1-1.8,2-2.8,2.9h7.7L100.7,94.5z M91.3,98.4v4.1h5.5v-4.1H91.3z
		 M103.6,98.4H98v4.1h5.6V98.4z"/>
	<path style="fill:#66361F;" d="M110,96h4.7c0.4-1.4,0.7-2.9,0.9-4.5l1.2,0.2c-0.1,0.4-0.2,1.1-0.4,2c-0.2,1-0.4,1.8-0.5,2.3h10.9v1
		h-11.2c-0.3,1-0.5,2-0.9,2.9h9.8v0.9c-0.9,2.3-2.3,4.3-4.2,5.8c1.3,0.9,3.4,1.7,6.4,2.3c-0.2,0.2-0.3,0.5-0.5,0.9
		c-0.1,0.1-0.1,0.1-0.1,0.2c-2.8-0.8-5.1-1.7-6.7-2.7c-1.5,0.8-3.9,1.8-7.3,3c-0.1-0.2-0.2-0.5-0.5-0.8c-0.1-0.2-0.1-0.3-0.2-0.3
		c3.3-0.8,5.7-1.7,7-2.6c-1.8-1.5-3.1-3.4-3.9-5.8h-0.2c-1.3,3.2-3.2,6.1-5.6,8.5c-0.1-0.2-0.3-0.3-0.5-0.5
		c-0.2-0.2-0.3-0.3-0.3-0.3c3.3-3.1,5.5-6.9,6.6-11.5h-5.5v-1.2c0.6-1.2,1-2.4,1.4-3.5l1.1,0.3c-0.1,0.2-0.2,0.5-0.3,0.9
		C110.6,94.7,110.3,95.5,110,96z M123.4,100.9h-7.8c0.8,2.1,2.1,3.8,3.8,5.2C121.2,104.6,122.5,102.9,123.4,100.9z M120.2,92.7
		l0.6-0.8c1.1,0.7,2.3,1.5,3.4,2.3l-0.7,0.9C122.1,93.9,121,93.1,120.2,92.7z"/>
	<path style="fill:#66361F;" d="M141.8,91.7h0.9v2.5h4.1v0.9h-4.1v2.3h-0.9v-2.3h-3.9v2.3H137v-2.3h-3.8v2.3h-1v-2.3h-4.1v-0.9h4.1
		v-2.5h1v2.5h3.8v-2.5h0.9v2.5h3.9V91.7z M128.7,98.4h17.5v3.2h-1v-2.3h-15.5v2.3h-1V98.4z M131.9,108.6h-1v-6.5h6v-1.9h1v1.9h6.2
		v4.5c0.1,1.2-0.6,1.9-2,1.9c-0.6,0-1.2,0-2,0c0-0.3-0.1-0.6-0.2-0.9c0.7,0,1.4,0,2,0c0.9,0.1,1.3-0.3,1.2-1.1v-3.4h-5.2v7.2h-1
		v-7.2h-5V108.6z"/>
	<path style="fill:#66361F;" d="M151.3,106.7v1.6c0.1,1.7-0.6,3-1.9,4l-0.5-0.5c1.1-0.8,1.6-1.9,1.6-3.2h-1.1v-1.9H151.3z"/>
	<path style="fill:#66361F;" d="M156.9,97.5h1.1V108h5.6V94.3h-9v-1H172v1h-7.3v5.9h6.6v1h-6.6v6.7h8v1h-19v-1h3.2V97.5z"/>
	<path style="fill:#66361F;" d="M183.1,98.1c-0.1-0.2-0.3-0.3-0.5-0.5c-0.3-0.3-0.4-0.5-0.5-0.6c-3,0.1-5.1,0.2-6.5,0.3
		c-0.5,0-1,0.1-1.3,0.2l-0.5-1c0.4-0.2,0.8-0.5,1.2-0.9c1.2-1.4,2.3-2.7,3.2-4l1,0.5c-1.4,1.8-2.7,3.2-3.8,4.4c0.2,0,0.5,0,1-0.1
		c2.1-0.1,3.8-0.1,4.8-0.2c-0.5-0.6-1.1-1.2-1.7-1.8l0.8-0.6c1.1,1.1,2.3,2.4,3.6,3.8L183.1,98.1z M176,110.1h-1v-11h7.3v9
		c0.1,1.2-0.5,1.9-1.8,1.9c-0.6,0-1.2,0-1.9,0c0-0.3-0.1-0.7-0.2-1c0.2,0,0.4,0,0.9,0c0.4,0.1,0.7,0.1,0.9,0.1c0.7,0,1.1-0.3,1-0.9
		v-2H176V110.1z M176,99.9v2.2h5.3v-2.2H176z M176,103v2.2h5.3V103H176z M184.8,101.2h1v3.4c2.1-0.8,4.1-1.7,5.9-2.7l0.5,0.9
		c-2.1,1.1-4.3,2.1-6.5,2.9v1.9c-0.1,0.9,0.4,1.3,1.5,1.2h2.3c1,0,1.6-0.3,1.7-1c0.1-0.5,0.2-1.1,0.2-2c0.2,0.1,0.4,0.1,0.6,0.2
		c0.2,0.1,0.3,0.2,0.4,0.2c-0.1,0.5-0.2,1.2-0.3,2c-0.2,1.2-1,1.8-2.5,1.8H187c-1.6,0.1-2.3-0.7-2.3-2.1V101.2z M184.8,91.7h1v3.7
		c1.5-0.5,3.4-1.4,5.5-2.6l0.6,0.9c-1.9,1-3.9,1.9-6.2,2.8v1.2c-0.1,0.9,0.4,1.4,1.5,1.3h2.3c0.9,0,1.5-0.4,1.6-1.2
		c0.2-0.4,0.3-1.1,0.3-2.1c0.4,0.2,0.7,0.3,1,0.3c-0.1,0.4-0.1,1-0.2,1.6c-0.1,0.2-0.1,0.3-0.1,0.4c-0.3,1.3-1.1,1.9-2.6,1.9h-2.5
		c-1.6,0.1-2.4-0.7-2.3-2.1V91.7z"/>
	<path style="fill:#66361F;" d="M196.1,100.4h14.2v5.2h-6.6v1.3h7.4v0.8h-7.4v1.2h9v0.8h-18.9v-0.8h9v-1.2h-7.4v-0.8h7.4v-1.3h-6.6
		V100.4z M193.9,98.5h18.7v0.7h-18.7V98.5z M196,92.5h14.5v4.7H196V92.5z M197,93.2v1.2h12.5v-1.2H197z M197,95.2v1.3h12.5v-1.3H197
		z M197.1,101.1v1.5h5.6v-1.5H197.1z M197.1,103.3v1.5h5.6v-1.5H197.1z M209.3,101.1h-5.6v1.5h5.6V101.1z M203.7,103.3v1.5h5.6v-1.5
		H203.7z"/>
</g>
<g>
	<path style="fill:#66361F;" d="M129.9,363.6l-0.4,3.6h4.1c-0.1,2.2-0.2,4-0.3,5.4c-0.1,1.8-1,2.6-2.8,2.5c-0.5,0.1-1,0.1-1.6,0.1
		c-0.1-0.4-0.2-0.8-0.3-1.2c0.6,0.1,1.2,0.1,1.8,0.1c1.2,0.1,1.8-0.5,1.9-1.6c0-0.2,0-0.5,0.1-1c0.1-1.4,0.2-2.5,0.2-3.4h-4.1
		l0.5-5.5h3.9v-3.8h-4.4v-0.9h5.4v5.7H129.9z M135.3,365.1h4.8v-2.5H136v-4.8h9.1v4.8h-4v2.5h4.8v5.2h-4.8v3c1.2,0,2.4-0.1,3.5-0.2
		c-0.4-0.4-0.8-0.9-1.2-1.6l0.9-0.5c0.1,0.2,0.3,0.4,0.5,0.8c0.8,1.1,1.5,2.1,2,3l-0.9,0.5c-0.2-0.5-0.4-0.9-0.7-1.2
		c-3.4,0.2-7.1,0.4-11,0.6l-0.2-1.2c1.9-0.1,3.9-0.1,5.9-0.2v-3h-4.8V365.1z M136.4,366.1v3.4h3.8v-3.4H136.4z M137.1,358.7v3h7v-3
		H137.1z M144.9,366.1h-3.8v3.4h3.8V366.1z"/>
	<path style="fill:#66361F;" d="M153,375.4h-1.1v-10.3c-0.9,1-2,2.1-3.3,3.2c-0.3-0.4-0.5-0.7-0.7-0.9c2.6-2.1,4.7-4.5,6.3-7.1h-5.6
		v-0.9h6.2c0.5-0.8,0.9-1.7,1.3-2.7l1.1,0.2c-0.4,0.8-0.8,1.6-1.2,2.4h10.6v0.9h-11.2c-0.5,0.9-1.1,1.8-1.8,2.7h10.7v9.9
		c0.1,1.4-0.7,2.1-2.3,2.1c-0.7,0.1-1.6,0.1-2.7,0.1c0-0.4-0.1-0.8-0.3-1.1c0.7,0,1.7,0,2.8,0c1,0.1,1.5-0.4,1.5-1.2v-1.7H153V375.4
		z M153,364v2.6h10.2V364H153z M153,367.5v2.7h10.2v-2.7H153z"/>
	<path style="fill:#66361F;" d="M175.5,356.8h1.1c0,2,0,3.5-0.1,4.5h8.8c0,0.4,0,1.1-0.1,2c-0.1,3.4-0.1,5.8-0.2,7.3
		c-0.1,2.8-1.3,4.2-3.8,4.1c-1.5,0.1-2.6,0.1-3.3,0.1c-0.1-0.2-0.1-0.4-0.2-0.7c-0.1-0.2-0.1-0.4-0.1-0.5c0.9,0.1,2.1,0.1,3.4,0.1
		c1.9,0.2,2.9-0.9,2.9-3.3c0-0.4,0-0.9,0.1-1.7c0.1-2.9,0.2-5,0.2-6.3h-7.7c-0.1,0.2-0.1,0.3-0.1,0.3c-0.1,5.9-2.5,10.1-7.3,12.7
		c-0.1-0.1-0.2-0.2-0.3-0.3c-0.3-0.3-0.4-0.5-0.5-0.5c4.6-2.6,7-6.4,7-11.5c0-0.2,0-0.4,0-0.6h-6.4v-1h6.5
		C175.4,359.3,175.5,357.8,175.5,356.8z"/>
	<path style="fill:#66361F;" d="M188.8,360h2c0.4-1.2,0.7-2.3,0.9-3.2l1.1,0.2c-0.3,1-0.6,2-0.9,3h4v15h-1.1v-1.6h-5v1.7h-1V360z
		 M189.8,361v5.3h5V361H189.8z M189.8,367.2v5.4h5v-5.4H189.8z M197.6,364.3c-0.1-0.1-0.3-0.2-0.5-0.3c-0.2-0.1-0.4-0.2-0.5-0.2
		c1.1-1.9,2.1-4.2,3-6.9l1.1,0.2c-0.3,0.9-0.7,1.9-1.1,2.9h6.5c0,0.3,0,0.7,0,1.2c-0.1,4.6-0.2,8.2-0.4,10.7c0.1,2-1.1,3.1-3.4,3.1
		c-1,0-2.1,0-3,0c0-0.1,0-0.1-0.1-0.2c-0.1-0.4-0.1-0.7-0.2-0.9c0.7,0.1,1.8,0.1,3.2,0.1c1.7,0.1,2.5-0.7,2.5-2.3
		c0.1-1.3,0.2-4,0.2-8.2c0.1-1.2,0.1-2.1,0.1-2.6h-5.8C198.6,362.5,198,363.6,197.6,364.3z M198.5,365.2l0.8-0.6
		c0.1,0.2,0.3,0.4,0.5,0.6c1.1,1.4,2,2.6,2.7,3.5l-0.9,0.6C200.5,367.9,199.5,366.5,198.5,365.2z"/>
	<path style="fill:#66361F;" d="M225,358.7c-0.7,0-1.7,0.1-3.2,0.2c-1.7,0.1-2.9,0.1-3.8,0.2v4.1h7.1v0.9h-7.1v4.1h8.8v1h-8.8v3.8
		c0.1,1.5-0.8,2.3-2.6,2.3c-1.1,0-2.1,0-2.9,0c-0.1-0.3-0.2-0.7-0.3-1.2c0.6,0.1,1.6,0.1,3,0.1c1.2,0.1,1.8-0.4,1.7-1.4v-3.5h-8.9
		v-1h8.9V364h-7.5v-0.9h7.5v-4c-2.8,0.1-5.3,0.1-7.7,0.2c0-0.4-0.1-0.7-0.2-1c5.8-0.1,11-0.3,15.6-0.6L225,358.7z"/>
	<path style="fill:#66361F;" d="M229.7,357.8h7v3.3h-6c0.1,1.9-0.6,3.6-2,5.1c-0.1-0.1-0.3-0.2-0.5-0.4c-0.2-0.2-0.3-0.3-0.3-0.3
		c1.4-1.1,2-2.9,1.9-5.3V357.8z M230.7,360.3h4.9v-1.6h-4.9V360.3z M230.9,362.6h5.9v3.4h-5.9V362.6z M232.1,375.4h-0.9v-8h13.1v5.9
		c0,1.2-0.6,1.8-1.9,1.8c-0.5,0.1-1.4,0.1-2.8,0.1c0-0.1,0-0.3-0.1-0.5c-0.1-0.3-0.1-0.4-0.2-0.5c0.6,0.1,1.5,0.1,2.7,0.1
		c0.8,0.1,1.2-0.3,1.2-1.2v-0.4h-11.2V375.4z M231.9,363.4v1.9h4v-1.9H231.9z M232.1,368.2v1.5h11.2v-1.5H232.1z M232.1,370.5v1.5
		h11.2v-1.5H232.1z M237.5,361.7h2.7c-0.4-0.5-0.9-1.1-1.4-1.7l0.8-0.5c0.2,0.2,0.5,0.6,0.9,1.2c0.3,0.3,0.4,0.5,0.5,0.6l-0.9,0.5
		h2.3c0.4-0.5,0.8-1,1.3-1.7c0.2-0.3,0.3-0.4,0.4-0.5l0.9,0.5c-0.1,0.2-0.3,0.4-0.5,0.6c-0.4,0.5-0.7,0.9-0.9,1.2h2.7v0.9h-4.1v1.7
		h3.5v0.8h-3.5v1.6h-0.9V365h-3.4v-0.8h3.4v-1.7h-3.9V361.7z M237.9,358.6h4.1c-0.3-0.5-0.5-1-0.8-1.6l0.9-0.4
		c0.1,0.1,0.1,0.3,0.2,0.5c0.3,0.6,0.5,1,0.6,1.2l-0.7,0.2h4v0.8h-8.3V358.6z"/>
</g>
<g>
	<path style="fill:#66361F;" d="M27.5,606.2h5.2v5.7h-3.8l-0.4,3.6h4.1c-0.1,2.2-0.2,4-0.3,5.4c-0.1,1.8-1.1,2.7-2.9,2.5
		c-0.4,0.1-0.9,0.1-1.6,0.1c0-0.4-0.1-0.8-0.2-1.2c0.4,0.1,1,0.1,1.7,0.1c1.2,0.1,1.9-0.5,2-1.6c0.1-1.2,0.2-2.7,0.2-4.4h-4.1
		l0.5-5.5h3.8v-3.8h-4.2V606.2z M33.5,619h5.6v-2.6h-4.6v-8.2h6.1c0.2-0.3,0.5-0.7,1-1.4c0.6-0.8,1-1.4,1.2-1.7l0.9,0.5
		c-0.6,0.9-1.3,1.7-2,2.6h3v8.2h-4.6v2.6h5.6v0.9h-5.6v3.8h-1v-3.8h-5.6V619z M35.5,609.1v2.7h3.6v-2.7H35.5z M35.5,612.7v2.8h3.6
		v-2.8H35.5z M35.7,605.7l0.8-0.5c0.1,0.1,0.2,0.3,0.4,0.5c0.8,0.9,1.4,1.5,1.6,1.8l-0.9,0.6c-0.2-0.2-0.5-0.6-1-1.2
		C36.1,606.3,35.8,605.9,35.7,605.7z M43.7,609.1h-3.6v2.7h3.6V609.1z M40.1,612.7v2.8h3.6v-2.8H40.1z"/>
	<path style="fill:#66361F;" d="M47.9,613.7h0.9v7.3c0.2-0.1,0.5-0.1,0.9-0.2c0.4-0.1,0.7-0.2,0.9-0.2v-8.9h-2.4v-5.8h5v5.8h-1.6v3
		h2v0.9h-2v4.8c0.7-0.1,1.4-0.2,2.1-0.4c0,0.4,0,0.8,0,1c-2.1,0.3-4.3,0.7-6.6,1.2l-0.2-0.9c0.1-0.1,0.3-0.1,0.5-0.1
		c0.2-0.1,0.4-0.1,0.5-0.1V613.7z M49.2,606.9v4.1h3.1v-4.1H49.2z M57.4,605.2h1v8.2c0.2,4.8-1.3,8.3-4.5,10.3
		c-0.1-0.1-0.2-0.2-0.3-0.4c-0.2-0.2-0.4-0.4-0.5-0.5c2.6-1.6,4-4.1,4.1-7.3c-0.9,0.7-2,1.6-3.2,2.5l-0.5-1c0.6-0.4,1.3-0.9,2.2-1.6
		c0.7-0.5,1.3-0.8,1.6-1.1c0-0.1,0-0.3,0-0.5c0.1-0.2,0.1-0.4,0.1-0.5V605.2z M53.9,608.6l0.9-0.5c0.5,0.8,1.1,2.1,2,3.9
		c-0.6-1.3-0.6-1.2,0.1,0.2l-0.9,0.5c0-0.1,0-0.1-0.1-0.2C55.2,611.2,54.5,609.8,53.9,608.6z M65,617.6c-0.4-0.3-0.9-0.6-1.6-1.1
		c-0.7-0.5-1.3-0.8-1.6-1.1v5.8c0,0.6,0.4,0.9,1.1,0.9h0.6c0.8,0,1.2-0.3,1.3-1c0.2-0.7,0.2-1.4,0.2-2.1c0.2,0.1,0.4,0.2,0.9,0.3
		c0.1,0,0.1,0,0.2,0c-0.1,0.4-0.1,0.9-0.2,1.5c-0.1,0.3-0.1,0.5-0.1,0.6c-0.2,1.2-0.9,1.8-2.1,1.7h-0.9c-1.4,0-2-0.6-2-1.8v-16.2
		h1.1v9.2c0.1,0.1,0.2,0.1,0.4,0.2c1.4,0.8,2.5,1.5,3.4,2.1L65,617.6z M62.2,612.3c0.8-1.2,1.6-2.7,2.3-4.2l0.9,0.5
		c-0.5,1-1.3,2.4-2.3,4.2L62.2,612.3z"/>
	<path style="fill:#66361F;" d="M74.5,605.1h1.1c0,2,0,3.5-0.1,4.5h8.8c0,0.4,0,1.1-0.1,2c-0.1,3.4-0.1,5.8-0.2,7.3
		c-0.1,2.8-1.3,4.2-3.8,4.1c-1.5,0.1-2.6,0.1-3.3,0.1c-0.1-0.2-0.1-0.4-0.2-0.7c-0.1-0.2-0.1-0.4-0.1-0.5c0.9,0.1,2.1,0.1,3.4,0.1
		c1.9,0.2,2.9-0.9,2.9-3.3c0-0.4,0-0.9,0.1-1.7c0.1-2.9,0.2-5,0.2-6.3h-7.7c-0.1,0.2-0.1,0.3-0.1,0.3c-0.1,5.9-2.5,10.1-7.3,12.7
		c-0.1-0.1-0.2-0.2-0.3-0.3c-0.3-0.3-0.4-0.5-0.5-0.5c4.6-2.6,7-6.4,7-11.5c0-0.2,0-0.4,0-0.6h-6.4v-1h6.5
		C74.4,607.6,74.5,606.1,74.5,605.1z"/>
	<path style="fill:#66361F;" d="M87.6,617.5c-0.1-0.1-0.1-0.2-0.2-0.3c-0.3-0.4-0.4-0.6-0.5-0.6c1.9-1.6,3.5-3.8,4.9-6.4l0.9,0.5
		c-0.6,1-1.2,2-1.9,3v10.1h-1V615C89.3,615.9,88.5,616.7,87.6,617.5z M87.9,611.5c-0.2-0.3-0.4-0.6-0.6-0.9c1.7-1.4,3.3-3.2,4.6-5.5
		l0.9,0.6C91.4,608,89.8,610,87.9,611.5z M94.2,606.2h10.1v8.7h-5.5c0.5,1.6,1,2.8,1.6,3.7c2-1.1,3.4-2,4.3-2.7l0.7,0.8
		c-1.5,1-3,1.9-4.5,2.7c0.9,1.1,2.5,2.2,4.8,3.2c-0.2,0.3-0.4,0.6-0.7,0.9c-4.1-1.8-6.5-4.7-7.3-8.6h-2.5v7.1c0.4-0.2,1-0.5,2-0.9
		c0.8-0.5,1.3-0.8,1.6-0.9c0.1,0.1,0.1,0.3,0.2,0.5c0.1,0.3,0.1,0.4,0.1,0.5c-0.7,0.3-1.9,0.9-3.7,2c-0.1,0.1-0.1,0.1-0.2,0.1
		c-0.4,0.2-0.7,0.4-0.9,0.6l-0.8-1c0.4-0.4,0.5-1,0.5-1.6V606.2z M95.3,607v3h7.9v-3H95.3z M95.3,613.9h7.9v-3h-7.9V613.9z"/>
	<path style="fill:#66361F;" d="M108.9,611.9l-0.4,3.6h4.1c-0.1,2.2-0.2,4-0.3,5.4c-0.1,1.8-1,2.6-2.8,2.5c-0.5,0.1-1,0.1-1.6,0.1
		c-0.1-0.4-0.2-0.8-0.3-1.2c0.6,0.1,1.2,0.1,1.8,0.1c1.2,0.1,1.8-0.5,1.9-1.6c0-0.2,0-0.5,0.1-1c0.1-1.4,0.2-2.5,0.2-3.4h-4.1
		l0.5-5.5h3.9v-3.8h-4.4v-0.9h5.4v5.7H108.9z M114.3,613.4h4.8v-2.5H115v-4.8h9.1v4.8h-4v2.5h4.8v5.2h-4.8v3c1.2,0,2.4-0.1,3.5-0.2
		c-0.4-0.4-0.8-0.9-1.2-1.6l0.9-0.5c0.1,0.2,0.3,0.4,0.5,0.8c0.8,1.1,1.5,2.1,2,3l-0.9,0.5c-0.2-0.5-0.4-0.9-0.7-1.2
		c-3.4,0.2-7.1,0.4-11,0.6l-0.2-1.2c1.9-0.1,3.9-0.1,5.9-0.2v-3h-4.8V613.4z M115.4,614.4v3.4h3.8v-3.4H115.4z M116.1,607v3h7v-3
		H116.1z M123.9,614.4h-3.8v3.4h3.8V614.4z"/>
	<path style="fill:#66361F;" d="M127.8,608.3h2c0.4-1.2,0.7-2.3,0.9-3.2l1.1,0.2c-0.3,1-0.6,2-0.9,3h4v15h-1.1v-1.6h-5v1.7h-1V608.3
		z M128.8,609.3v5.3h5v-5.3H128.8z M128.8,615.5v5.4h5v-5.4H128.8z M136.6,612.6c-0.1-0.1-0.3-0.2-0.5-0.3c-0.2-0.1-0.4-0.2-0.5-0.2
		c1.1-1.9,2.1-4.2,3-6.9l1.1,0.2c-0.3,0.9-0.7,1.9-1.1,2.9h6.5c0,0.3,0,0.7,0,1.2c-0.1,4.6-0.2,8.2-0.4,10.7c0.1,2-1.1,3.1-3.4,3.1
		c-1,0-2.1,0-3,0c0-0.1,0-0.1-0.1-0.2c-0.1-0.4-0.1-0.7-0.2-0.9c0.7,0.1,1.8,0.1,3.2,0.1c1.7,0.1,2.5-0.7,2.5-2.3
		c0.1-1.3,0.2-4,0.2-8.2c0.1-1.2,0.1-2.1,0.1-2.6h-5.8C137.6,610.8,137,611.9,136.6,612.6z M137.5,613.5l0.8-0.6
		c0.1,0.2,0.3,0.4,0.5,0.6c1.1,1.4,2,2.6,2.7,3.5l-0.9,0.6C139.5,616.2,138.5,614.8,137.5,613.5z"/>
	<path style="fill:#66361F;" d="M148.2,606.2h4.3v15.5c0.1,1.2-0.5,1.8-1.7,1.9c-0.6,0-1,0-1.2,0c0-0.1,0-0.2-0.1-0.3
		c-0.1-0.3-0.1-0.5-0.2-0.7c0.4,0.1,0.8,0.1,1.2,0.1c0.7,0.1,1.1-0.3,1-0.9v-4.7h-2.3c0,2.7-0.5,4.9-1.5,6.7
		c-0.3-0.2-0.5-0.3-0.9-0.5c1-1.6,1.4-4,1.3-7V606.2z M149.2,607.1v4.1h2.3v-4.1H149.2z M149.2,612v4.1h2.3V612H149.2z M160,622.2
		c2.1,0.1,4.1,0.1,5.9-0.1c-0.2,0.4-0.3,0.7-0.3,1.1c-1.5,0-2.6,0-3.2,0c-0.8,0-1.6,0-2.6-0.1c-2,0.1-3.5-0.6-4.5-2
		c-0.6,0.7-1.3,1.5-2,2.6l-0.7-0.8c0.7-0.9,1.4-1.8,2.3-2.7v-7.5h-1.6v-0.9h2.6v8.4C156.8,621.6,158.2,622.2,160,622.2z
		 M155.6,609.5c-0.3-0.6-0.8-1.4-1.3-2.4c-0.2-0.3-0.4-0.5-0.5-0.7l0.9-0.5c0.5,0.7,1.1,1.8,1.9,3.1L155.6,609.5z M164.3,613.9h-5.2
		v5.6c1-0.6,1.9-1,2.7-1.4c0,0.2,0,0.4,0.1,0.6c0,0.2,0,0.3,0,0.4c-0.3,0.1-0.7,0.3-1.2,0.6c-0.7,0.3-1.2,0.5-1.5,0.7
		c-0.1,0.1-0.2,0.2-0.4,0.3c-0.2,0.1-0.4,0.2-0.5,0.3l-0.6-0.8c0.3-0.4,0.5-0.8,0.5-1.3v-12.7h6.2V613.9z M159.1,607.2v2.5h4.3v-2.5
		H159.1z M159.1,613h4.3v-2.5h-4.3V613z M164.9,620.4c-0.3-0.3-0.7-0.7-1.2-1.2c-1.6-1.6-2.7-2.8-3.5-3.6l0.7-0.6
		c0.6,0.6,1.1,1.1,1.7,1.7c0.8-0.7,1.6-1.4,2.3-2l0.7,0.7c-0.4,0.4-1,0.9-1.9,1.6c-0.2,0.2-0.4,0.3-0.5,0.4c0.8,0.8,1.6,1.6,2.4,2.3
		L164.9,620.4z"/>
</g>
<g>
	<path style="fill:#66361F;" d="M721.7,108l1.2,0.1c-0.2,0.7-0.3,1.4-0.5,2c1.7,3.1,4.6,4.9,8.8,5.5c-0.2,0.3-0.4,0.7-0.5,1.1
		c-4.3-0.9-7.2-2.7-8.8-5.5c-1.1,2.8-4.1,4.7-8.8,5.7c-0.1-0.1-0.1-0.2-0.2-0.3c-0.1-0.1-0.2-0.4-0.4-0.8
		C718.3,115,721.4,112.4,721.7,108z M714.6,99.4h14.5v7.8h-14.8v-0.9H728v-2.5h-12.9v-0.9H728v-2.5h-13.4V99.4z M714.4,109.5
		l0.8-0.6c0.3,0.3,0.7,0.8,1.4,1.5c0.6,0.7,1.1,1.2,1.4,1.5l-0.9,0.7C716.2,111.5,715.3,110.5,714.4,109.5z M725.8,111.9
		c0.9-0.9,1.9-1.9,2.8-3l0.9,0.6c-0.2,0.2-0.5,0.5-0.9,1c-0.8,0.8-1.4,1.5-1.9,2L725.8,111.9z"/>
	<path style="fill:#66361F;" d="M735.4,98.2l1,0.2c-0.2,0.6-0.4,1.2-0.7,1.7h7.1v0.9h-7.6c-0.5,1.1-1.2,2.1-2,3.1
		c-0.1-0.2-0.3-0.4-0.7-0.8C733.8,101.8,734.8,100.1,735.4,98.2z M734.5,103h7.2c0,0.5,0,1.3,0,2.3c-0.1,1.1-0.1,1.9-0.1,2.5h1.6
		v0.9h-1.6c0,1.4-0.1,2.8-0.2,4.1h1.6v0.9h-1.6c0,0.1,0,0.2-0.1,0.4c0,0.2,0,0.3,0,0.3c0,1.4-0.8,2.1-2.4,2.1c-0.6,0-1.4,0-2.2,0
		c0-0.1,0-0.2-0.1-0.3c-0.1-0.3-0.1-0.5-0.2-0.7c0.8,0.1,1.5,0.1,2.3,0.1c1,0,1.6-0.4,1.6-1.2c0-0.2,0-0.4,0-0.6h-6.7l0.4-4.9h-1.5
		v-0.9h1.6L734.5,103z M740.4,112.8c0-1.3,0.1-2.7,0.2-4.1H735l-0.2,4.1H740.4z M735.4,103.8l-0.3,4h5.5c0.1-0.9,0.1-2.3,0.1-4
		H735.4z M736.6,110l0.7-0.5c0.2,0.2,0.5,0.5,0.8,1c0.3,0.4,0.5,0.8,0.7,1l-0.8,0.5C737.6,111.3,737.1,110.6,736.6,110z
		 M736.8,105.1l0.7-0.5c0.3,0.3,0.6,0.8,1.1,1.4c0.2,0.3,0.3,0.4,0.4,0.5l-0.7,0.5c-0.3-0.3-0.6-0.8-1.1-1.4
		C737,105.3,736.9,105.2,736.8,105.1z M750.8,116.7c-1.7-1.3-2.9-2.6-3.8-3.8c-0.8,1.2-2.2,2.6-4.2,4c-0.2-0.3-0.4-0.6-0.7-0.9
		c1.9-1.3,3.4-2.7,4.3-4.1c-0.9-1.5-1.6-3.8-2-7c-0.3,0.7-0.6,1.4-1.1,2c-0.1-0.2-0.3-0.4-0.7-0.8c1.5-2.6,2.5-5.2,3.1-8l1,0.2
		c-0.3,1.1-0.7,2.3-1,3.4h5.6v0.9h-1.2c-0.4,4-1.2,7.1-2.4,9.1c0.8,1.4,2.1,2.7,3.9,3.9C751.3,116,751.1,116.3,750.8,116.7z
		 M745.4,102.8c-0.2,0.2-0.3,0.4-0.3,0.7c0.4,3.1,1,5.6,2,7.4c1-1.8,1.7-4.5,2-8.1H745.4z"/>
	<path style="fill:#66361F;" d="M753.3,101.5h2c0.4-1.2,0.7-2.3,0.9-3.2l1.1,0.2c-0.3,1-0.6,2-0.9,3h4v15h-1.1V115h-5v1.7h-1V101.5z
		 M754.3,102.5v5.3h5v-5.3H754.3z M754.3,108.7v5.4h5v-5.4H754.3z M762.1,105.8c-0.1-0.1-0.3-0.2-0.5-0.3c-0.2-0.1-0.4-0.2-0.5-0.2
		c1.1-1.9,2.1-4.2,3-6.9l1.1,0.2c-0.3,0.9-0.7,1.9-1.1,2.9h6.5c0,0.3,0,0.7,0,1.2c-0.1,4.6-0.2,8.2-0.4,10.7c0.1,2-1.1,3.1-3.4,3.1
		c-1,0-2.1,0-3,0c0-0.1,0-0.1-0.1-0.2c-0.1-0.4-0.1-0.7-0.2-0.9c0.7,0.1,1.8,0.1,3.2,0.1c1.7,0.1,2.5-0.7,2.5-2.3
		c0.1-1.3,0.2-4,0.2-8.2c0.1-1.2,0.1-2.1,0.1-2.6h-5.8C763,104,762.5,105.1,762.1,105.8z M762.9,106.7l0.8-0.6
		c0.1,0.2,0.3,0.4,0.5,0.6c1.1,1.4,2,2.6,2.7,3.5l-0.9,0.6C765,109.4,764,108,762.9,106.7z"/>
	<path style="fill:#66361F;" d="M773.5,116.9c-0.1-0.1-0.2-0.2-0.4-0.4c-0.2-0.3-0.4-0.4-0.5-0.5c5.5-2.6,8.3-6.3,8.6-11.2h-8.5
		v-1.1h8.6c0.2-1.7,0.2-3.5,0.2-5.3h1.1c0,2.3,0,4.1-0.1,5.3h8.7v1.1h-8.7c0.8,5.1,3.7,8.6,8.8,10.8c-0.5,0.5-0.7,0.9-0.8,1
		c-4.9-2.2-7.8-5.6-8.6-10C781.4,111,778.5,114.4,773.5,116.9z"/>
	<path style="fill:#66361F;" d="M792.6,113.9l-0.1-1.1l3.2-0.2v-12.2h-3v-1h18.5v1h-3.6v11.5l3.8-0.2c-0.1,0.2-0.1,0.5-0.1,0.9
		l-3.7,0.2v3.9h-1V113L792.6,113.9z M796.8,100.5v3.3h9.8v-3.3H796.8z M796.8,104.7v3.3h9.8v-3.3H796.8z M796.8,109v3.6l9.8-0.5v-3
		H796.8z"/>
	<path style="fill:#66361F;" d="M813.1,115.9c-0.1-0.2-0.3-0.4-0.5-0.9c-0.1-0.1-0.2-0.1-0.2-0.2c3-1.1,5.5-3,7.7-5.5h-7.4v-1h8.5
		v-2.8h1.1v2.8h8.8v1h-7.7c2,2.5,4.7,4.3,8,5.3c-0.1,0.1-0.2,0.3-0.3,0.5c-0.2,0.3-0.3,0.4-0.4,0.5c-3.6-1.4-6.3-3.5-8.2-6.3h-0.2
		v7.6h-1.1v-7.6C819.2,112.2,816.5,114.4,813.1,115.9z M828.1,105.1c0.9,0,1.7,0,2.5,0c-0.1,0.3-0.2,0.7-0.2,1h-2.5
		c-1.6,0-2.4-0.7-2.3-2v-3.9H818v1.3c0.2,2.5-1.1,4.3-3.8,5.5c-0.1-0.1-0.2-0.2-0.3-0.4c-0.2-0.2-0.3-0.4-0.4-0.5
		c2.5-1,3.6-2.6,3.4-4.7v-2.3h9.8v4.7C826.6,104.7,827.1,105.1,828.1,105.1z"/>
</g>
<g>
	<path style="fill:#66361F;" d="M680.3,258c-0.1-0.1-0.2-0.2-0.4-0.4c-0.2-0.3-0.4-0.4-0.5-0.5c5.5-2.6,8.3-6.3,8.6-11.2h-8.5v-1.1
		h8.6c0.2-1.7,0.2-3.5,0.2-5.3h1.1c0,2.3,0,4.1-0.1,5.3h8.7v1.1h-8.7c0.8,5.1,3.7,8.6,8.8,10.8c-0.5,0.5-0.7,0.9-0.8,1
		c-4.9-2.2-7.8-5.6-8.6-10C688.1,252.1,685.3,255.5,680.3,258z"/>
	<path style="fill:#66361F;" d="M700.5,240.5h5.2v16.6h-0.9v-1.6h-3.3v2h-1V240.5z M701.5,241.5v3.8h3.3v-3.8H701.5z M701.5,246.2
		v3.8h3.3v-3.8H701.5z M701.5,250.9v3.8h3.3v-3.8H701.5z M709.1,256.4c0.2-0.1,0.4-0.2,0.9-0.4c0.6-0.2,1.4-0.6,2.5-1.2
		c0,0.4,0.1,0.7,0.2,1c-0.7,0.3-1.8,0.8-3.3,1.6c-0.1,0.1-0.2,0.2-0.4,0.3c-0.3,0.2-0.5,0.3-0.6,0.4l-0.7-0.8
		c0.3-0.4,0.5-0.9,0.5-1.5v-15.5h8.6v8.8h-4.6c0.3,1.3,0.8,2.4,1.3,3.4c1.4-0.9,2.7-1.7,3.8-2.5l0.6,0.9c-0.5,0.3-1.3,0.8-2.4,1.5
		c-0.6,0.4-1.1,0.7-1.4,0.9c0.8,1.3,2.2,2.4,4.2,3.4c-0.3,0.3-0.6,0.6-0.8,0.9c-3.5-1.8-5.7-4.6-6.3-8.4h-2V256.4z M709.1,241.2v3
		h6.6v-3H709.1z M709.1,248.1h6.6v-3h-6.6V248.1z"/>
	<path style="fill:#66361F;" d="M720.2,240.7h4.7v15.9H724v-1.3h-2.7v1.7h-1V240.7z M721.2,241.6v3.7h2.7v-3.7H721.2z M721.2,246.2
		v3.6h2.7v-3.6H721.2z M721.2,250.6v3.7h2.7v-3.7H721.2z M726.7,243.6h4.8v-1.6h-5.2v-0.9h5.2v-1.7h1v1.7h5.5v0.9h-5.5v1.6h4.8v0.9
		h-4.8v1.7h5.7v0.9h-12.3v-0.9h5.5v-1.7h-4.8V243.6z M728.1,258h-1v-9.5h9.8v7.2c0.1,1.4-0.6,2.1-2,2c-0.2,0-0.6,0-1.2,0
		c-0.6,0.1-1,0.1-1.2,0.1c0-0.4-0.1-0.8-0.2-1.1c0.6,0.1,1.4,0.1,2.4,0.1c0.9,0.1,1.4-0.3,1.3-1.1v-1.2h-7.8V258z M728.1,249.4v1.7
		h7.8v-1.7H728.1z M728.1,252v1.7h7.8V252H728.1z"/>
	<path style="fill:#66361F;" d="M744.3,258h-1.1v-10.3c-0.9,1-2,2.1-3.3,3.2c-0.3-0.4-0.5-0.7-0.7-0.9c2.6-2.1,4.7-4.5,6.3-7.1h-5.6
		V242h6.2c0.5-0.8,0.9-1.7,1.3-2.7l1.1,0.2c-0.4,0.8-0.8,1.6-1.2,2.4h10.6v0.9h-11.2c-0.5,0.9-1.1,1.8-1.8,2.7h10.7v9.9
		c0.1,1.4-0.7,2.1-2.3,2.1c-0.7,0.1-1.6,0.1-2.7,0.1c0-0.4-0.1-0.8-0.3-1.1c0.7,0,1.7,0,2.8,0c1,0.1,1.5-0.4,1.5-1.2v-1.7h-10.2V258
		z M744.3,246.6v2.6h10.2v-2.6H744.3z M744.3,250.1v2.7h10.2v-2.7H744.3z"/>
	<path style="fill:#66361F;" d="M759.4,244.2v-0.9h5.8v1c-0.8,1.6-1.5,2.8-2.1,3.7V258H762v-8.8c-0.6,0.8-1.4,1.6-2.3,2.3
		c-0.2-0.3-0.4-0.6-0.6-0.9c2.2-1.7,3.9-3.8,5.1-6.4H759.4z M761.4,239.8l0.9-0.4c0.2,0.4,0.5,1,1,1.8c0.2,0.4,0.4,0.7,0.5,0.9
		l-0.9,0.5c-0.3-0.6-0.8-1.5-1.4-2.7C761.5,240,761.5,240,761.4,239.8z M763.3,249.1l0.6-0.7c0.7,0.6,1.4,1.2,2.1,1.9l-0.8,0.7
		c-0.2-0.2-0.6-0.6-1.2-1.2C763.7,249.4,763.4,249.2,763.3,249.1z M771.5,239.4h1v3.3h4.8v11h-1.1v-1.1h-3.8v5.5h-1v-5.5h-3.8v1.1
		h-1v-11h4.8V239.4z M767.7,243.6v3.6h3.8v-3.6H767.7z M767.7,248.1v3.5h3.8v-3.5H767.7z M776.2,243.6h-3.8v3.6h3.8V243.6z
		 M772.5,248.1v3.5h3.8v-3.5H772.5z"/>
	<path style="fill:#66361F;" d="M779.5,240.5h18.4v1h-9l-0.9,3.6h8.8v10.6c0,1.4-0.6,2-1.8,2c-0.2,0-0.6,0-1.2,0.1c-0.6,0-0.9,0-1,0
		c0-0.1,0-0.2-0.1-0.4c-0.1-0.4-0.1-0.6-0.2-0.8c0.1,0,0.2,0,0.4,0c0.6,0.1,1.1,0.1,1.5,0.1c0.9,0,1.4-0.4,1.4-1.1v-9.5h-4.1v10.8
		h-1.1v-10.8h-4v10.8h-1v-10.8h-4V258h-1v-12.9h6.2l0.9-3.6h-8.3V240.5z"/>
	<path style="fill:#66361F;" d="M802.2,239.3l1,0.2c-0.2,0.6-0.4,1.2-0.7,1.7h7.1v0.9H802c-0.5,1.1-1.2,2.1-2,3.1
		c-0.1-0.2-0.3-0.4-0.7-0.8C800.6,242.9,801.6,241.2,802.2,239.3z M801.3,244.1h7.2c0,0.5,0,1.3,0,2.3c-0.1,1.1-0.1,1.9-0.1,2.5h1.6
		v0.9h-1.6c0,1.4-0.1,2.8-0.2,4.1h1.6v0.9h-1.6c0,0.1,0,0.2-0.1,0.4c0,0.2,0,0.3,0,0.3c0,1.4-0.8,2.1-2.4,2.1c-0.6,0-1.4,0-2.2,0
		c0-0.1,0-0.2-0.1-0.3c-0.1-0.3-0.1-0.5-0.2-0.7c0.8,0.1,1.5,0.1,2.3,0.1c1,0,1.6-0.4,1.6-1.2c0-0.2,0-0.4,0-0.6h-6.7l0.4-4.9h-1.5
		v-0.9h1.6L801.3,244.1z M807.2,253.9c0-1.3,0.1-2.7,0.2-4.1h-5.6l-0.2,4.1H807.2z M802.2,244.9l-0.3,4h5.5c0.1-0.9,0.1-2.3,0.1-4
		H802.2z M803.4,251.1l0.7-0.5c0.2,0.2,0.5,0.5,0.8,1c0.3,0.4,0.5,0.8,0.7,1l-0.8,0.5C804.3,252.4,803.9,251.7,803.4,251.1z
		 M803.6,246.2l0.7-0.5c0.3,0.3,0.6,0.8,1.1,1.4c0.2,0.3,0.3,0.4,0.4,0.5l-0.7,0.5c-0.3-0.3-0.6-0.8-1.1-1.4
		C803.8,246.5,803.7,246.3,803.6,246.2z M817.5,257.8c-1.7-1.3-2.9-2.6-3.8-3.8c-0.8,1.2-2.2,2.6-4.2,4c-0.2-0.3-0.4-0.6-0.7-0.9
		c1.9-1.3,3.4-2.7,4.3-4.1c-0.9-1.5-1.6-3.8-2-7c-0.3,0.7-0.6,1.4-1.1,2c-0.1-0.2-0.3-0.4-0.7-0.8c1.5-2.6,2.5-5.2,3.1-8l1,0.2
		c-0.3,1.1-0.7,2.3-1,3.4h5.6v0.9h-1.2c-0.4,4-1.2,7.1-2.4,9.1c0.8,1.4,2.1,2.7,3.9,3.9C818.1,257.1,817.9,257.4,817.5,257.8z
		 M812.2,243.9c-0.2,0.2-0.3,0.4-0.3,0.7c0.4,3.1,1,5.6,2,7.4c1-1.8,1.7-4.5,2-8.1H812.2z"/>
	<path style="fill:#66361F;" d="M820,246.2l-0.8-0.8c1-1.6,1.9-3.6,2.7-6.1l1,0.2c-0.3,1-0.6,1.9-0.9,2.7h3.7v0.9h-4.1
		C821.1,244.3,820.5,245.3,820,246.2z M820.7,245.8h4.5v0.9h-2.3v3h2.7v0.9h-2.7v4.8c1.2-0.9,2.1-1.6,2.5-2c0.1,0.4,0.2,0.8,0.2,1.1
		c-0.2,0.2-0.6,0.4-1.2,0.9c-0.7,0.5-1.2,0.8-1.5,1c-0.1,0.1-0.2,0.1-0.3,0.2c-0.3,0.2-0.5,0.4-0.6,0.5l-0.8-1
		c0.4-0.3,0.6-0.8,0.6-1.6v-4h-2.5v-0.9h2.5v-3h-1.2V245.8z M836.7,243.2v7.3h-3v4.6c-0.1,1,0.4,1.5,1.4,1.5h0.5
		c0.8,0.1,1.2-0.3,1.3-1c0.2-0.7,0.2-1.5,0.2-2.3c0.4,0.1,0.7,0.2,1,0.4c0,0.6-0.1,1.3-0.2,2.2c-0.2,1.1-0.9,1.6-2.2,1.6h-0.9
		c-1.5,0-2.2-0.8-2.2-2.3v-4.8h-2.3c0,2.1-0.3,3.6-1,4.6c-0.6,0.9-1.9,1.9-3.9,2.9c-0.1-0.1-0.1-0.1-0.2-0.2
		c-0.2-0.3-0.4-0.5-0.5-0.7c1.9-0.8,3.1-1.7,3.6-2.5c0.6-0.8,0.9-2.1,0.9-4.1h-2.4v-7.3h5.5c0.5-0.8,1.3-2,2.4-3.8l0.9,0.5
		c-0.5,0.8-1.2,1.9-2.2,3.2H836.7z M827.7,240.1l0.9-0.5c0.2,0.2,0.4,0.4,0.6,0.8c0.8,1.1,1.4,1.8,1.6,2l-0.9,0.6
		c-0.2-0.2-0.5-0.8-1.2-1.6C828.2,240.7,827.9,240.3,827.7,240.1z M827.9,244.1v5.5h7.8v-5.5H827.9z"/>
</g>
<g>
	<path style="fill:#66361F;" d="M651.8,559.7v-0.9h5.8v1c-0.8,1.6-1.5,2.8-2.1,3.7v10.1h-1.1v-8.8c-0.6,0.8-1.4,1.6-2.3,2.3
		c-0.2-0.3-0.4-0.6-0.6-0.9c2.2-1.7,3.9-3.8,5.1-6.4H651.8z M653.8,555.3l0.9-0.4c0.2,0.4,0.5,1,1,1.8c0.2,0.4,0.4,0.7,0.5,0.9
		l-0.9,0.5c-0.3-0.6-0.8-1.5-1.4-2.7C653.9,555.5,653.9,555.5,653.8,555.3z M655.7,564.6l0.6-0.7c0.7,0.6,1.4,1.2,2.1,1.9l-0.8,0.7
		c-0.2-0.2-0.6-0.6-1.2-1.2C656.1,564.9,655.8,564.7,655.7,564.6z M663.8,554.9h1v3.3h4.8v11h-1.1v-1.1h-3.8v5.5h-1v-5.5h-3.8v1.1
		h-1v-11h4.8V554.9z M660.1,559.1v3.6h3.8v-3.6H660.1z M660.1,563.6v3.5h3.8v-3.5H660.1z M668.6,559.1h-3.8v3.6h3.8V559.1z
		 M664.9,563.6v3.5h3.8v-3.5H664.9z"/>
	<path style="fill:#66361F;" d="M671.9,562.8h18.5v0.9h-3v7.4c0.1,1.4-0.7,2.1-2.3,2.2c-0.1,0-0.4,0-0.8,0c-0.8,0.1-1.5,0.1-1.9,0.1
		c0-0.1,0-0.2-0.1-0.3c-0.1-0.4-0.1-0.7-0.2-0.9c1,0.1,1.9,0.1,2.7,0.1c1.1,0.1,1.6-0.3,1.6-1.2v-7.4h-14.4V562.8z M673.4,562.2
		c0-0.1,0-0.1-0.1-0.2c-0.1-0.2-0.3-0.5-0.5-0.8c4.2-0.5,6.7-1.5,7.4-3.1h-7.3v-0.9h7.6c0.2-0.5,0.2-1.3,0.2-2.3h1
		c0.1,0.9,0,1.6-0.2,2.3h7.6v0.9h-7.8c-0.1,0.1-0.1,0.3-0.2,0.5c-0.1,0.1-0.1,0.1-0.1,0.2c2.6,0.8,5,1.7,7.4,2.5l-0.5,1
		c-2.6-1-5.1-1.9-7.5-2.7C679.4,560.8,677,561.7,673.4,562.2z M674.2,565.7h8.4v4.8h-7.3v1.2h-1.1V565.7z M675.2,566.7v3h6.2v-3
		H675.2z"/>
	<path style="fill:#66361F;" d="M691.9,556h18.4v1h-9l-0.9,3.6h8.8v10.6c0,1.4-0.6,2-1.8,2c-0.2,0-0.6,0-1.2,0.1c-0.6,0-0.9,0-1,0
		c0-0.1,0-0.2-0.1-0.4c-0.1-0.4-0.1-0.6-0.2-0.8c0.1,0,0.2,0,0.4,0c0.6,0.1,1.1,0.1,1.5,0.1c0.9,0,1.4-0.4,1.4-1.1v-9.5h-4.1v10.8
		H703v-10.8h-4v10.8h-1v-10.8h-4v11.9h-1v-12.9h6.2l0.9-3.6h-8.3V556z"/>
	<path style="fill:#66361F;" d="M716.7,573.5h-1.1v-10.3c-0.9,1-2,2.1-3.3,3.2c-0.3-0.4-0.5-0.7-0.7-0.9c2.6-2.1,4.7-4.5,6.3-7.1
		h-5.6v-0.9h6.2c0.5-0.8,0.9-1.7,1.3-2.7l1.1,0.2c-0.4,0.8-0.8,1.6-1.2,2.4h10.6v0.9h-11.2c-0.5,0.9-1.1,1.8-1.8,2.7H728v9.9
		c0.1,1.4-0.7,2.1-2.3,2.1c-0.7,0.1-1.6,0.1-2.7,0.1c0-0.4-0.1-0.8-0.3-1.1c0.7,0,1.7,0,2.8,0c1,0.1,1.5-0.4,1.5-1.2v-1.7h-10.2
		V573.5z M716.7,562.1v2.6h10.2v-2.6H716.7z M716.7,565.6v2.7h10.2v-2.7H716.7z"/>
	<path style="fill:#66361F;" d="M742,555l1-0.3c0.1,0.4,0.3,1,0.6,1.9c-0.2-0.6-0.2-0.4,0.2,0.6h6.6v1H736v4.8
		c0,2.7-0.2,4.8-0.6,6.2c-0.5,1.5-1.3,2.9-2.6,4.3c-0.3-0.3-0.6-0.6-0.9-0.8c2-2,3-4.5,3-7.3c-0.9,0.6-1.9,1.2-3,1.8l-0.3-1.2
		c1-0.5,2.1-1.1,3.4-1.8c0-0.4,0-0.8,0-1.2v-5.9h7.8C742.5,556.4,742.3,555.7,742,555z M731.7,559.6l0.9-0.3c0.5,1.1,1,2.4,1.6,3.8
		l-0.9,0.4c-0.3-0.7-0.6-1.6-1.1-2.7C731.9,560.2,731.8,559.8,731.7,559.6z M743.6,564.9l4.5-3h-10.6V561h12.1v1.1l-4.9,3.4v5.3
		c0.1,1.6-0.8,2.4-2.5,2.3c-0.7,0-1.6,0-2.5,0c0-0.1,0-0.2-0.1-0.3c-0.1-0.4-0.1-0.7-0.2-0.8c0.6,0.1,1.5,0.1,2.7,0.1
		c1.1,0,1.6-0.4,1.6-1.3V564.9z"/>
	<path style="fill:#66361F;" d="M753.9,569.1l0.9,0.5c-0.6,0.9-1.3,2-2.3,3.2c-0.1-0.1-0.2-0.2-0.5-0.4c-0.2-0.1-0.3-0.2-0.4-0.2
		C752.7,571,753.4,570,753.9,569.1z M769.9,559.8c-3.8-1.1-6.7-2.4-8.8-3.9c-2.2,1.8-5.2,3.2-8.8,4.3c-0.2-0.3-0.3-0.6-0.5-0.9
		c3.8-1,6.8-2.5,9.2-4.5l1.2,0.2l-0.4,0.3c2.4,1.6,5.3,2.8,8.6,3.5C770.2,559.1,770,559.4,769.9,559.8z M754.8,567.8h-0.9v-7.4h7.4
		v5.5c0.1,1.3-0.6,2-1.9,2c-0.6,0-1.1,0-1.5,0c0-0.3-0.1-0.6-0.2-0.9c0.2,0,0.4,0,0.8,0c0.4,0.1,0.6,0.1,0.8,0.1c0.7,0,1-0.4,1-1.1
		v-0.4h-5.5V567.8z M754.8,561.3v1.2h5.5v-1.2H754.8z M754.8,563.4v1.3h5.5v-1.3H754.8z M756.7,568.9h1v1.9c-0.1,1,0.4,1.4,1.6,1.3
		h3.8c1.1,0.1,1.7-0.3,1.9-1c0.1-0.2,0.2-0.6,0.3-1.1c0-0.3,0-0.4,0.1-0.5c0.2,0.1,0.4,0.2,0.8,0.4c0.1,0.1,0.2,0.1,0.2,0.1
		c0,0.1,0,0.2-0.1,0.4c-0.1,0.5-0.2,0.9-0.4,1.1c-0.3,1.1-1.1,1.7-2.6,1.6h-4.4c-1.7,0.1-2.4-0.6-2.3-2.2V568.9z M757.4,558.4h7.4
		v0.8h-7.4V558.4z M760,568.7l0.8-0.6c0.5,0.4,1.2,1.1,2.2,2.1l-0.8,0.7C761.6,570.3,760.8,569.5,760,568.7z M763.4,560.9h1v4.8h-1
		V560.9z M767,560.3h1v5.6c0,1.4-0.7,2-2.1,2c-0.4,0.1-0.9,0.1-1.6,0.1c0-0.3-0.1-0.7-0.2-1.1c0.6,0.1,1.1,0.1,1.6,0.1
		c0.9,0.1,1.3-0.3,1.2-1.2V560.3z M767.5,569.5l0.9-0.5c0.3,0.4,0.8,0.9,1.3,1.6c0.4,0.5,0.7,0.8,0.9,1.1l-0.9,0.6
		C769.2,571.6,768.4,570.6,767.5,569.5z"/>
	<path style="fill:#66361F;" d="M772,570.1l-0.3-1.1c1-0.3,2.1-0.5,3.4-0.9v-9.8h-3.3v-1h7.3v1h-3v9.5c0.8-0.2,1.8-0.5,3-0.8
		c0,0.2,0.1,0.6,0.2,1.1C777.7,568.6,775.2,569.2,772,570.1z M779.5,559h2.7c0.1-0.9,0.1-2.3,0.1-4h1.1c0,1.8,0,3.1-0.1,4h6.2
		c-0.1,4.5-0.2,8.2-0.4,11.1c0,2-1.1,3-3.2,3c-0.5,0.1-1.5,0.1-2.8,0.1c-0.1-0.2-0.1-0.5-0.2-0.8c-0.1-0.2-0.1-0.3-0.1-0.4
		c0.6,0.1,1.6,0.1,3,0.1c1.5,0.1,2.2-0.6,2.2-1.9c0.2-2.3,0.3-5.7,0.4-10.2h-5.2c0,0.2,0,0.5,0,0.9c-0.1,0.4-0.1,0.7-0.1,0.9
		c-0.2,5.3-2.2,9.2-5.9,11.6c-0.1-0.1-0.3-0.3-0.5-0.5c-0.2-0.2-0.3-0.3-0.4-0.3c3.7-2.1,5.6-5.7,5.8-10.9c0-0.2,0-0.4,0-0.7
		c0.1-0.5,0.1-0.8,0.1-1.1h-2.7V559z"/>
	<path style="fill:#66361F;" d="M800.9,561.4c-0.1-0.2-0.3-0.3-0.5-0.5c-0.3-0.3-0.4-0.5-0.5-0.6c-3,0.1-5.1,0.2-6.5,0.3
		c-0.5,0-1,0.1-1.3,0.2l-0.5-1c0.4-0.2,0.8-0.5,1.2-0.9c1.2-1.4,2.3-2.7,3.2-4l1,0.5c-1.4,1.8-2.7,3.2-3.8,4.4c0.2,0,0.5,0,1-0.1
		c2.1-0.1,3.8-0.1,4.8-0.2c-0.5-0.6-1.1-1.2-1.7-1.8l0.8-0.6c1.1,1.1,2.3,2.4,3.6,3.8L800.9,561.4z M793.8,573.4h-1v-11h7.3v9
		c0.1,1.2-0.5,1.9-1.8,1.9c-0.6,0-1.2,0-1.9,0c0-0.3-0.1-0.7-0.2-1c0.2,0,0.4,0,0.9,0c0.4,0.1,0.7,0.1,0.9,0.1c0.7,0,1.1-0.3,1-0.9
		v-2h-5.3V573.4z M793.8,563.2v2.2h5.3v-2.2H793.8z M793.8,566.3v2.2h5.3v-2.2H793.8z M802.7,564.5h1v3.4c2.1-0.8,4.1-1.7,5.9-2.7
		l0.5,0.9c-2.1,1.1-4.3,2.1-6.5,2.9v1.9c-0.1,0.9,0.4,1.3,1.5,1.2h2.3c1,0,1.6-0.3,1.7-1c0.1-0.5,0.2-1.1,0.2-2
		c0.2,0.1,0.4,0.1,0.6,0.2c0.2,0.1,0.3,0.2,0.4,0.2c-0.1,0.5-0.2,1.2-0.3,2c-0.2,1.2-1,1.8-2.5,1.8h-2.7c-1.6,0.1-2.3-0.7-2.3-2.1
		V564.5z M802.7,554.9h1v3.7c1.5-0.5,3.4-1.4,5.5-2.6l0.6,0.9c-1.9,1-3.9,1.9-6.2,2.8v1.2c-0.1,0.9,0.4,1.4,1.5,1.3h2.3
		c0.9,0,1.5-0.4,1.6-1.2c0.2-0.4,0.3-1.1,0.3-2.1c0.4,0.2,0.7,0.3,1,0.3c-0.1,0.4-0.1,1-0.2,1.6c-0.1,0.2-0.1,0.3-0.1,0.4
		c-0.3,1.3-1.1,1.9-2.6,1.9H805c-1.6,0.1-2.4-0.7-2.3-2.1V554.9z"/>
	<path style="fill:#66361F;" d="M812.4,558.1h2c0.4-1.2,0.7-2.3,0.9-3.2l1.1,0.2c-0.3,1-0.6,2-0.9,3h4v15h-1.1v-1.6h-5v1.7h-1V558.1
		z M813.4,559.1v5.3h5v-5.3H813.4z M813.4,565.3v5.4h5v-5.4H813.4z M821.3,562.4c-0.1-0.1-0.3-0.2-0.5-0.3c-0.2-0.1-0.4-0.2-0.5-0.2
		c1.1-1.9,2.1-4.2,3-6.9l1.1,0.2c-0.3,0.9-0.7,1.9-1.1,2.9h6.5c0,0.3,0,0.7,0,1.2c-0.1,4.6-0.2,8.2-0.4,10.7c0.1,2-1.1,3.1-3.4,3.1
		c-1,0-2.1,0-3,0c0-0.1,0-0.1-0.1-0.2c-0.1-0.4-0.1-0.7-0.2-0.9c0.7,0.1,1.8,0.1,3.2,0.1c1.7,0.1,2.5-0.7,2.5-2.3
		c0.1-1.3,0.2-4,0.2-8.2c0.1-1.2,0.1-2.1,0.1-2.6h-5.8C822.2,560.6,821.7,561.7,821.3,562.4z M822.1,563.3l0.8-0.6
		c0.1,0.2,0.3,0.4,0.5,0.6c1.1,1.4,2,2.6,2.7,3.5l-0.9,0.6C824.2,566,823.2,564.6,822.1,563.3z"/>
	<path style="fill:#66361F;" d="M839.8,563l0.9-0.5c0.3,0.4,0.9,1.1,1.6,2.1l-0.8,0.4h9v1h-9c0.6,1.2,1.4,2.3,2.3,3.1
		c1.8-0.8,3.3-1.5,4.4-2.1l0.6,1c-0.4,0.2-0.9,0.4-1.6,0.7c-1.1,0.5-1.9,0.8-2.5,1.1c1.1,0.8,3.1,1.4,5.8,2
		c-0.3,0.3-0.5,0.7-0.6,1.1c-4.6-0.9-7.6-3-9-6.3c-1,1-2,1.8-2.9,2.3v3.2c1.5-0.5,3-0.9,4.5-1.2c0,0.4,0,0.7,0,1
		c-1.3,0.3-2.7,0.7-4.1,1.2c-0.4,0.2-0.8,0.3-1.2,0.5l-0.6-0.8c0.3-0.4,0.4-0.8,0.4-1.2v-2c-1.4,0.9-2.9,1.6-4.6,2.2
		c-0.1-0.1-0.1-0.3-0.2-0.5c-0.2-0.2-0.3-0.4-0.4-0.5c3.6-1.2,6.4-2.8,8.4-4.8h-8.3v-1h9.5c-0.2-0.3-0.5-0.8-0.9-1.3
		C840.1,563.4,839.9,563.1,839.8,563z M837.7,555.1l0.9,0.5c-0.7,0.9-1.5,1.8-2.3,2.6v5.5h-1v-4.5c-0.9,0.8-1.9,1.5-2.8,2.1
		c-0.1-0.1-0.1-0.2-0.2-0.3c-0.3-0.4-0.4-0.6-0.5-0.6C834.3,558.9,836.3,557.1,837.7,555.1z M841.3,555.3l1-0.2
		c0.3,1.5,0.7,2.6,1,3.5l7-0.5l0.1,0.9l-6.6,0.5c0.4,0.7,1,1.5,1.8,2.3c0.7,0.7,1.5,1,2.3,1c0.6,0,1.1-0.4,1.3-1.1
		c0.2-0.5,0.3-1,0.5-1.6c0.3,0.2,0.6,0.4,0.9,0.5c-0.1,0.4-0.3,1-0.5,1.8c-0.4,0.9-1.1,1.4-2.1,1.5c-1,0-2-0.4-2.9-1.2
		c-0.9-0.8-1.7-1.8-2.3-3l-4.9,0.3l-0.2-0.9l4.7-0.3C841.8,557.8,841.5,556.6,841.3,555.3z M844.5,555.9l0.5-0.8
		c0.3,0.2,0.7,0.4,1.2,0.7c0.3,0.2,0.9,0.6,1.6,1.1l-0.6,0.8c-0.2-0.1-0.5-0.3-1.1-0.7C845.4,556.4,844.9,556,844.5,555.9z"/>
	<path style="fill:#66361F;" d="M860.8,561.4l6-4.3h-13V556h14.8v1.2L862,562v1.8h8.6v1.1H862v6c0.1,1.5-0.8,2.3-2.5,2.3
		c-0.6,0.1-1.6,0.1-2.8,0.1c0-0.5-0.1-0.9-0.2-1.3c0.7,0.1,1.6,0.1,2.7,0.1c1.1,0,1.7-0.5,1.6-1.4v-5.8h-9.1v-1.1h9.1V561.4z"/>
</g>
<g>
	<g>
		<line style="fill:none;stroke:#713D1F;stroke-width:1.5;stroke-miterlimit:10;" x1="221.4" y1="101.9" x2="222.2" y2="101.9"/>
		
			<line style="fill:none;stroke:#713D1F;stroke-width:1.5;stroke-miterlimit:10;stroke-dasharray:1.5063,1.5063;" x1="223.7" y1="101.9" x2="385.6" y2="101.9"/>
		<line style="fill:none;stroke:#713D1F;stroke-width:1.5;stroke-miterlimit:10;" x1="386.3" y1="101.9" x2="387.1" y2="101.9"/>
	</g>
</g>
<circle style="fill:none;stroke:#713D1F;stroke-width:1.5;stroke-miterlimit:10;stroke-dasharray:1.5;" cx="396.4" cy="101.9" r="8.4"/>
<g>
	<g>
		<line style="fill:none;stroke:#713D1F;stroke-width:1.5;stroke-miterlimit:10;" x1="253.4" y1="366.8" x2="254.1" y2="366.8"/>
		
			<line style="fill:none;stroke:#713D1F;stroke-width:1.5;stroke-miterlimit:10;stroke-dasharray:1.4926,1.4926;" x1="255.6" y1="366.8" x2="320.5" y2="366.8"/>
		<line style="fill:none;stroke:#713D1F;stroke-width:1.5;stroke-miterlimit:10;" x1="321.3" y1="366.8" x2="322" y2="366.8"/>
	</g>
</g>
<circle style="fill:none;stroke:#713D1F;stroke-width:1.5;stroke-miterlimit:10;stroke-dasharray:1.5;" cx="332.7" cy="366.8" r="8.4"/>
<g>
	<g>
		<line style="fill:none;stroke:#713D1F;stroke-width:1.5;stroke-miterlimit:10;" x1="170.7" y1="614.8" x2="171.4" y2="614.8"/>
		
			<line style="fill:none;stroke:#713D1F;stroke-width:1.5;stroke-miterlimit:10;stroke-dasharray:1.4878,1.4878;" x1="172.9" y1="614.8" x2="294.2" y2="614.8"/>
		<line style="fill:none;stroke:#713D1F;stroke-width:1.5;stroke-miterlimit:10;" x1="294.9" y1="614.8" x2="295.7" y2="614.8"/>
	</g>
</g>
<circle style="fill:none;stroke:#713D1F;stroke-width:1.5;stroke-miterlimit:10;stroke-dasharray:1.5;" cx="304" cy="614.8" r="8.4"/>
<g>
	<g>
		<line style="fill:none;stroke:#713D1F;stroke-width:1.5;stroke-miterlimit:10;" x1="708" y1="108" x2="707.3" y2="108"/>
		
			<line style="fill:none;stroke:#713D1F;stroke-width:1.5;stroke-miterlimit:10;stroke-dasharray:1.5104,1.5104;" x1="705.8" y1="108" x2="582.7" y2="108"/>
		<line style="fill:none;stroke:#713D1F;stroke-width:1.5;stroke-miterlimit:10;" x1="581.9" y1="108" x2="581.2" y2="108"/>
	</g>
</g>
<circle style="fill:none;stroke:#713D1F;stroke-width:1.5;stroke-miterlimit:10;stroke-dasharray:1.5;" cx="572.8" cy="108" r="8.4"/>
<g>
	<g>
		<line style="fill:none;stroke:#713D1F;stroke-width:1.5;stroke-miterlimit:10;" x1="674" y1="249.3" x2="673.2" y2="249.3"/>
		
			<line style="fill:none;stroke:#713D1F;stroke-width:1.5;stroke-miterlimit:10;stroke-dasharray:1.4985,1.4985;" x1="671.7" y1="249.3" x2="537.6" y2="249.3"/>
		<line style="fill:none;stroke:#713D1F;stroke-width:1.5;stroke-miterlimit:10;" x1="536.9" y1="249.3" x2="536.1" y2="249.3"/>
	</g>
</g>
<circle style="fill:none;stroke:#713D1F;stroke-width:1.5;stroke-miterlimit:10;stroke-dasharray:1.5;" cx="527.8" cy="249.3" r="8.4"/>
<g>
	<g>
		<line style="fill:none;stroke:#713D1F;stroke-width:1.5;stroke-miterlimit:10;" x1="641.5" y1="563.5" x2="640.8" y2="563.5"/>
		
			<line style="fill:none;stroke:#713D1F;stroke-width:1.5;stroke-miterlimit:10;stroke-dasharray:1.5141,1.5141;" x1="639.2" y1="563.5" x2="555.2" y2="563.5"/>
		<line style="fill:none;stroke:#713D1F;stroke-width:1.5;stroke-miterlimit:10;" x1="554.5" y1="563.5" x2="553.7" y2="563.5"/>
	</g>
</g>
<circle style="fill:none;stroke:#713D1F;stroke-width:1.5;stroke-miterlimit:10;stroke-dasharray:1.5;" cx="542.7" cy="563.5" r="8.4"/>
</svg>
