<?xml version="1.0" encoding="utf-8"?>
<!-- Generator: Adobe Illustrator 17.0.0, SVG Export Plug-In . SVG Version: 6.00 Build 0)  -->
<!DOCTYPE svg PUBLIC "-//W3C//DTD SVG 1.1//EN" "http://www.w3.org/Graphics/SVG/1.1/DTD/svg11.dtd">
<svg version="1.1" id="图层_1" xmlns="http://www.w3.org/2000/svg" xmlns:xlink="http://www.w3.org/1999/xlink" x="0px" y="0px"
	 width="159.063px" height="210.23px" viewBox="0 0 159.063 210.23" enable-background="new 0 0 159.063 210.23"
	 xml:space="preserve">
<g id="Shape_2_31_">
	<g>
		<path fill-rule="evenodd" clip-rule="evenodd" fill="#9C6342" d="M83.564,111.278c-2.517-0.041-6.295-0.119-9.41-1.583
			c-3.361-1.58-4.828-4.148-5.924-6.342c-0.465-0.929-0.224,1.622,1.467,4.132c-0.996,0.565-1.639,1.559-1.639,2.22
			c0,0.634,0.973-0.584,1.998-0.731c0.324-0.046,0.568-0.077,0.759-0.099c0.387,0.404,0.823,0.782,1.307,1.128
			c-0.638,0.565-1.065,1.611-1.182,2.416c-0.065,0.456,1.154-0.365,1.804-0.716c0.541-0.292,1.06-0.494,1.406-0.614
			C79.022,112.93,85.861,111.313,83.564,111.278z"/>
	</g>
</g>
<g id="Shape_2_29_">
	<g>
		<path fill-rule="evenodd" clip-rule="evenodd" fill="#9C6342" d="M48.451,49.314c-2.517-0.041-6.295-0.119-9.41-1.583
			c-3.361-1.58-4.828-4.148-5.924-6.342c-0.465-0.929-0.224,1.622,1.467,4.132c-0.996,0.565-1.639,1.559-1.639,2.22
			c0,0.634,0.973-0.584,1.998-0.731c0.324-0.046,0.568-0.077,0.759-0.099c0.387,0.404,0.823,0.782,1.307,1.127
			c-0.638,0.565-1.065,1.611-1.182,2.416c-0.065,0.456,1.154-0.365,1.804-0.716c0.541-0.292,1.06-0.494,1.406-0.614
			C43.909,50.966,50.748,49.35,48.451,49.314z"/>
	</g>
</g>
<g id="形状_78_2_">
	<g>
		<path fill-rule="evenodd" clip-rule="evenodd" fill="#FFC07D" d="M115.139,19.919c-22.716,14.752-27.76,48.084-27.76,48.084
			s3.807,14.102,19.828,5.453c16.021-8.649,37.043-34.458,41.144-52.05S137.855,5.167,115.139,19.919z"/>
	</g>
</g>
<g id="形状_79_2_">
	<g>
		<path fill-rule="evenodd" clip-rule="evenodd" fill="#FF9B48" d="M118.113,32.807C95.334,49.011,95.31,68.498,95.31,68.498
			s-6.905,7.703,7.931,1.983c14.836-5.72,28.788-33.048,29.743-35.196C133.939,33.138,140.892,16.604,118.113,32.807z"/>
	</g>
</g>
<g id="形状_80_2_">
	<g>
		<path fill-rule="evenodd" clip-rule="evenodd" fill="#FFC07D" d="M61.602,78.413c0,0-11.445-25.934-29.247-37.674
			C14.553,28.999,8.163,29.79,8.065,35.782c-0.098,5.991,3.732,40.462,46.597,50.563C97.527,96.445,61.602,78.413,61.602,78.413z"/>
	</g>
</g>
<g id="形状_81_2_">
	<g>
		<path fill-rule="evenodd" clip-rule="evenodd" fill="#FF9B48" d="M57.636,77.421C53.273,69.004,32.18,52.775,31.363,52.14
			c-0.817-0.635-12.062-8.988-7.436,6.94c4.627,15.928,30.734,24.786,30.734,24.786S61.999,85.839,57.636,77.421z"/>
	</g>
</g>
<radialGradient id="SVGID_1_" cx="85.9629" cy="134.0394" r="57.129" gradientUnits="userSpaceOnUse">
	<stop  offset="0" style="stop-color:#FECD97"/>
	<stop  offset="1" style="stop-color:#FFC07A"/>
</radialGradient>
<path fill-rule="evenodd" clip-rule="evenodd" fill="url(#SVGID_1_)" d="M84.947,63.448c0,0-30.937-1.976-35.195,27.264
	c-4.258,29.24,7.361,45.774-1.487,58.494c-8.849,12.72,22.273,26.28,41.144,19.829c3.76-0.385-5.021,12.272-5.67,13.979
	c-1.958,5.149-2.067,21.057,19.026,21.635s15.395-26.196,15.395-26.196s-6.052-15.822,2.974-42.631
	C130.16,109.013,126.689,67.574,84.947,63.448z"/>
<path fill-rule="evenodd" clip-rule="evenodd" fill="#66361F" d="M85.026,63.448c0,0-30.937-1.976-35.195,27.264
	c-0.663,4.554-0.941,8.798-0.971,12.769c3.309-2.924,8.742-9.96,8.902-12.769c0.234-4.102,5.81,21.275,15.367,15.863
	c9.557-5.413,22.886-20.653,23.794-24.29c0.909-3.637,14.753,24.656,21.811,13.88c1.964-2.999,2.51-4.559,2.708-6.748
	C116.444,76.709,106.007,65.31,85.026,63.448z"/>
<path fill-rule="evenodd" clip-rule="evenodd" fill="#FFCE99" d="M66.413,127.687c-6.931-4.897-5.866-6.767-9.994-6.029
	c-7.749,1.384-5.773,3.395-5.72,3.178c0.053-0.217-0.01-5.913,4.854-6.191c5.27-0.301,7.649,2.442,9.463,5.767
	C67.294,128.592,66.413,127.687,66.413,127.687"/>
<g id="形状_70_2_">
	<g>
		<path fill-rule="evenodd" clip-rule="evenodd" fill="#FFFFFF" d="M112.164,114.104c0.076,0.023-13.828,8.365-26.768,9.419
			c0,0,2.281,14.71,19.828,10.41C114.09,131.802,115.359,120.87,112.164,114.104z"/>
	</g>
</g>
<g id="形状_71_2_">
	<g>
		<path fill-rule="evenodd" clip-rule="evenodd" fill="#FFFFFF" d="M50.696,124.018c0,0,1.162,13.03,8.923,13.88
			c7.761,0.85,7.302-4.519,7.347-7.709C67.011,126.999,55.255,117.202,50.696,124.018z"/>
	</g>
</g>
<path fill-rule="evenodd" clip-rule="evenodd" fill="#FFCE99" d="M84.022,123.196c7.542,0.332,14.092-4.666,18.22-3.928
	c7.749,1.384,11.972-7.276,10.142-6.403c-0.202,0.096,0.068-1.936-7.592,0.68c-4.646,1.587-10.749,5.689-16.546,7.314
	C84.022,122.045,84.022,123.196,84.022,123.196"/>
<path fill-rule="evenodd" clip-rule="evenodd" fill="#FFA083" d="M57.636,142.36c-0.105-2.319-3.817-2.621-6.125-2.583
	c-0.222,2.477-0.771,4.796-1.822,6.992C52.138,146.5,57.765,145.215,57.636,142.36z"/>
<g id="形状_73_4_">
	<g>
		<path fill-rule="evenodd" clip-rule="evenodd" fill="#FFA083" d="M118.613,135.133c-0.216-0.686-1.307-2.263-7.44-0.209
			c-7.225,2.42-6.106,4.891-5.808,5.437c0.581,1.065,2.087,2.097,7.295,0.511S119.081,136.617,118.613,135.133z"/>
	</g>
</g>
<g id="形状_74_2_">
	<g>
		<path fill-rule="evenodd" clip-rule="evenodd" fill="#512A15" d="M58.132,151.282c-7.592,0.221-7.556,2.076-6.94,3.47
			c4.236,9.583,16.326,1.032,16.854-1.487C68.574,150.746,65.724,151.061,58.132,151.282z"/>
	</g>
</g>
<path fill-rule="evenodd" clip-rule="evenodd" fill="#FF9D63" d="M91.84,155.744c-6.749,10.88-24.556,11.65-31.431,11.521
	c1.205,0.484,2.458,0.925,3.746,1.32c22.927-0.483,28.062-10.922,28.677-12.346C93.24,155.292,92.438,154.836,91.84,155.744z"/>
<g id="形状_69_2_">
	<g>
		<path fill-rule="evenodd" clip-rule="evenodd" fill="#512A15" d="M112.164,114.104c-1.219-1.604-4.157,4.649-17.846,7.931
			c0,0,5.294,12.607,13.88,7.436C114.37,125.821,113.384,115.707,112.164,114.104z"/>
	</g>
</g>
<g id="形状_65_2_">
	<g>
		<path fill-rule="evenodd" clip-rule="evenodd" fill="#A85726" d="M64.08,115.591c-7.428-16.353-15.206-6.969-15.206-6.969
			l0.026,1.52c8.59-6.643,13.276,4.307,13.693,5.448C63.213,117.285,64.533,116.587,64.08,115.591z"/>
	</g>
</g>
<g id="形状_82_4_">
	<g>
		<path fill-rule="evenodd" clip-rule="evenodd" fill="#A85726" d="M106.712,102.207c-0.86-0.902-15.474-10.61-21.811,14.376
			c-0.434,1.718,0.978,1.749,1.487,0c1.021-1.814,5.563-18.176,19.333-13.384C107.073,103.669,107.571,103.109,106.712,102.207z"/>
	</g>
</g>
<g id="形状_67_2_">
	<g>
		<path fill-rule="evenodd" clip-rule="evenodd" fill="#733F21" d="M118.609,114.6c-1.836,0.191-4.731-1.104-5.948-1.983
			c-2.039-1.471-18.193,11.79-27.264,9.914c-2.042-0.395-2.186,1.136-0.496,1.487c1.896,0.766,15.857-0.894,27.264-9.419
			c0.089-0.103,2.028,1.972,6.444,0.991C121.127,115.032,119.964,114.459,118.609,114.6z"/>
	</g>
</g>
<path fill-rule="evenodd" clip-rule="evenodd" fill="#E5432E" d="M117.31,81.378c-11.203-7.806-47.295-29.104-66.442,4.102
	c-0.489,1.651-0.885,3.419-1.163,5.327c-0.28,1.923-0.488,3.788-0.641,5.604c2.093-4.941,8.701-16.244,25.922-17.997
	c21.066-2.144,30.146-0.736,46.685,11.592C120.522,87.001,119.08,84.039,117.31,81.378z"/>
<g id="形状_68_6_">
	<g>
		<path fill-rule="evenodd" clip-rule="evenodd" fill="#512A15" d="M66.673,127.897c0,0-8.445-6.941-10.041-5.236
			c-0.785,0.59,2.265,11.952,7.067,13.168C68.501,137.045,66.673,127.897,66.673,127.897z"/>
	</g>
</g>
<g id="形状_68_4_">
	<g>
		<path fill-rule="evenodd" clip-rule="evenodd" fill="#733F21" d="M66.731,127.964c0,0-3.621-5.866-9.419-6.94
			c-5.797-1.074-6.94,3.47-6.94,3.47c-1.507,0.582-2.613-0.257-2.974-0.991c-0.361-0.735-0.872-1.164-0.496,0
			c0.764,2.362,4.018,3.201,4.157,2.398c0.085-3.396,5.123-4.13,9.585-1.575c2.684,1.537,4.883,3.277,5.778,3.834
			C67.015,128.528,66.731,127.964,66.731,127.964z"/>
	</g>
</g>
<g id="形状_77_21_">
	<g>
		<path fill-rule="evenodd" clip-rule="evenodd" fill="#E5432E" d="M84.405,17.44C65.682,30.786,62.557,51.818,62.593,51.644
			c-1.621-7.615-10.071-20.237-16.359-28.751s-11.521,14.533-4.957,27.76C47.842,63.88,64.08,74.447,64.08,74.447
			s-0.896,13.791,14.376-4.957c15.272-18.749,18.425-39.078,19.333-49.571S92.939,11.002,84.405,17.44z"/>
	</g>
</g>
<ellipse transform="matrix(0.9777 -0.21 0.21 0.9777 -25.0015 23.8606)" fill-rule="evenodd" clip-rule="evenodd" fill="#FFFFFF" cx="99.837" cy="129.639" rx="3.859" ry="1.579"/>
<ellipse transform="matrix(0.9657 -0.2595 0.2595 0.9657 -32.4671 19.991)" fill-rule="evenodd" clip-rule="evenodd" fill="#FFFFFF" cx="59.481" cy="132.963" rx="2.383" ry="1.657"/>
<g id="Shape_2_26_">
	<g>
		<path fill-rule="evenodd" clip-rule="evenodd" fill="#9C6342" d="M61.831,137.859c-1.52-0.035-3.926,0.069-5.685-1.337
			c-1.817-1.452-2.916-3.502-3.578-5.354c-0.286-0.8-0.133,1.454,0.943,3.611c-0.022,0.011-0.041,0.006-0.064,0.021
			c-0.676,0.452-1.118,1.377-1.118,1.974c0,0.536,0.588-0.493,1.207-0.617c0.445-0.089,0.655-0.113,0.741-0.12
			c0.23,0.313,0.484,0.608,0.766,0.873c-0.441,0.437-0.735,1.419-0.812,2.155c-0.039,0.385,0.697-0.308,1.09-0.604
			c0.564-0.425,1.098-0.631,1.098-0.631s-0.003-0.006-0.003-0.006C59.334,139.165,63.177,137.888,61.831,137.859z"/>
	</g>
</g>
<g id="Shape_2_23_">
	<g>
		<path fill-rule="evenodd" clip-rule="evenodd" fill="#9C6342" d="M115.204,129.118c-0.165-0.532-0.93-1.172-1.873-1.379
			c0.736-2.442,0.294-4.556,0.152-3.692c-0.336,2.039-0.877,4.472-3.189,6.581c-2.143,1.955-5.165,2.958-7.183,3.619
			c-1.838,0.6,4.067,0.197,7.532-2.499c0.308,0.011,0.778,0.044,1.287,0.144c0.611,0.12,1.797,0.477,1.63,0.127
			c-0.295-0.619-0.9-1.354-1.554-1.65c0.303-0.399,0.561-0.812,0.772-1.234c0.16-0.03,0.364-0.066,0.636-0.11
			C114.273,128.891,115.362,129.629,115.204,129.118z"/>
	</g>
</g>
<path opacity="0.6" fill-rule="evenodd" clip-rule="evenodd" fill="#DD7528" d="M89.408,169.035c0,0,5.921-1.546,14.987-8.573
	c1.721-1.334-3.092,14.732-17.867,17.751C86.528,178.213,92.553,168.905,89.408,169.035z"/>
</svg>
