<?xml version="1.0" encoding="utf-8"?>
<!-- Generator: Adobe Illustrator 17.0.2, SVG Export Plug-In . SVG Version: 6.00 Build 0)  -->
<!DOCTYPE svg PUBLIC "-//W3C//DTD SVG 1.1//EN" "http://www.w3.org/Graphics/SVG/1.1/DTD/svg11.dtd">
<svg version="1.1" id="图层_1" xmlns="http://www.w3.org/2000/svg" xmlns:xlink="http://www.w3.org/1999/xlink" x="0px" y="0px"
	 width="412.417px" height="105.75px" viewBox="0 6.75 412.417 105.75" enable-background="new 0 6.75 412.417 105.75"
	 xml:space="preserve">
<g>
	<path fill="#FF6600" d="M2.375,94.363h23.297v2.062H2.375V94.363z"/>
	<path fill="#FF6600" d="M26.398,104.324c1.578-0.148,3.18-0.309,4.805-0.48v-3.973h-4.289v-1.664h4.289v-2.93h1.828v2.93h4.453
		v1.664h-4.453v3.762c1.531-0.18,3.086-0.371,4.664-0.574c0.016,0.328,0.055,0.883,0.117,1.664
		c-3.344,0.453-6.992,0.922-10.945,1.406L26.398,104.324z M26.703,85.832h11.062v1.664h-5.367c-1.102,2.266-2.062,4.062-2.883,5.391
		c1.891-0.094,3.578-0.184,5.062-0.27c-0.43-0.938-0.875-1.863-1.336-2.777l1.477-0.703c1.094,2.047,2.086,4.07,2.977,6.07
		c-0.609,0.297-1.164,0.562-1.664,0.797c-0.25-0.625-0.508-1.246-0.773-1.863c-2.297,0.18-4.312,0.355-6.047,0.527
		c-0.625,0.109-1.18,0.242-1.664,0.398l-0.867-1.617c0.562-0.312,1.031-0.75,1.406-1.312c0.766-1.234,1.559-2.781,2.379-4.641
		h-3.762V85.832z M37.273,93.051c1.5-2.641,2.734-5.531,3.703-8.672l1.711,0.586c-0.453,1.289-0.934,2.531-1.441,3.727h8.051v1.664
		h-2.156c-0.156,4.969-1.109,8.777-2.859,11.426c1.469,1.695,3.305,3.043,5.508,4.043c-0.516,0.625-0.992,1.195-1.43,1.711
		c-2.188-1.258-3.926-2.664-5.215-4.219c-1.32,1.555-3.254,3.039-5.801,4.453c-0.25-0.391-0.641-0.914-1.172-1.57
		c2.664-1.367,4.629-2.805,5.895-4.312c-1.555-2.211-2.523-5.188-2.906-8.93c-0.25,0.453-0.504,0.898-0.762,1.336
		C38.117,93.949,37.742,93.535,37.273,93.051z M43.156,100.34c1.336-2.297,2.059-5.625,2.168-9.984H40.59
		C40.809,94.793,41.664,98.121,43.156,100.34z"/>
	<path fill="#FF6600" d="M51.523,89.957l1.547,0.352c-0.281,1.891-0.672,3.898-1.172,6.023c-0.422-0.156-0.961-0.305-1.617-0.445
		C50.75,94.184,51.164,92.207,51.523,89.957z M53.703,84.66h1.805v4.5l1.008-0.562c0.812,1.266,1.508,2.453,2.086,3.562
		l-1.453,0.938c-0.547-1.156-1.094-2.18-1.641-3.07v17.742h-1.805V84.66z M57.359,105.074h7.594v-6.281h-6.047v-1.641h6.047V91.48
		h-3.797c-0.578,1.484-1.25,2.961-2.016,4.43c-0.672-0.547-1.195-0.906-1.57-1.078c1.562-2.828,2.656-5.719,3.281-8.672l1.852,0.492
		c-0.266,1.078-0.578,2.141-0.938,3.188h3.188v-5.156h1.852v5.156h6.164v1.641h-6.164v5.672H72.5v1.641h-5.695v6.281h6.891v1.641
		H57.359V105.074z"/>
	<path fill="#FF6600" d="M79.25,98.676l1.781,0.539c-0.25,0.82-0.535,1.598-0.855,2.332c1.188,1.922,2.957,3.074,5.309,3.457v-7.055
		H74.797v-1.641h22.547v1.641H87.36v2.344h8.344v1.594H87.36v3.258c3,0.062,6.477,0.031,10.43-0.094
		c-0.25,0.672-0.469,1.289-0.656,1.852c-4.594,0.016-8.125-0.008-10.594-0.07c-3.305-0.039-5.691-1.266-7.16-3.68
		c-1.07,1.93-2.426,3.492-4.066,4.688c-0.312-0.469-0.695-0.977-1.148-1.523C76.68,104.629,78.375,102.082,79.25,98.676z
		 M78.078,85.457h15.938v9.773h-1.781v-0.938H79.859v0.938h-1.781V85.457z M92.234,87.051H79.859v2.039h12.375V87.051z
		 M79.859,92.699h12.375v-2.062H79.859V92.699z"/>
	<path fill="#FF6600" d="M109.578,107.254v-7.453h-6.82c-0.266,3.25-1.211,5.945-2.836,8.086c-0.406-0.516-0.867-1.055-1.383-1.617
		c1.016-1.438,1.703-3.031,2.062-4.781c0.344-1.688,0.516-4.078,0.516-7.172V85.95h19.102v18.633c0,1.859-0.883,2.789-2.648,2.789
		c-1.078,0-2.289-0.023-3.633-0.07c-0.078-0.516-0.195-1.164-0.352-1.945c1.359,0.094,2.461,0.141,3.305,0.141
		c0.969,0,1.453-0.461,1.453-1.383v-4.312h-6.891v7.453h-1.875V107.254z M102.887,98.113h6.691V93.73h-6.586
		C103.039,95.246,103.004,96.707,102.887,98.113z M102.992,87.684v4.359h6.586v-4.359H102.992z M118.344,87.684h-6.891v4.359h6.891
		V87.684z M111.453,98.113h6.891V93.73h-6.891V98.113z"/>
	<path fill="#FF6600" d="M132.219,85.316l1.688-1.008c0.75,0.891,1.492,1.859,2.227,2.906l-1.148,0.727h8.742v10.383h-1.875v-1.219
		h-14.801c-0.211,4.5-1.371,8.094-3.48,10.781c-0.422-0.516-0.875-1.031-1.359-1.547c2-2.438,3-6.094,3-10.969v-7.43h8.941
		C133.582,87.066,132.938,86.191,132.219,85.316z M127.086,89.629v5.789h14.766v-5.789H127.086z"/>
	<path fill="#FF6600" d="M146.211,95.887c2.266-3.312,3.953-7.086,5.062-11.32l1.781,0.516c-0.609,1.992-1.297,3.863-2.062,5.613
		v16.863h-1.734V94.223c-0.703,1.273-1.453,2.469-2.25,3.586C146.773,97.168,146.508,96.527,146.211,95.887z M169.812,101.582
		c-0.531,0.641-0.992,1.219-1.383,1.734c-3.125-2.406-5.422-6.477-6.891-12.211v9.891h3.445v1.688h-3.445v4.898h-1.734v-4.898
		h-3.445v-1.688h3.445v-9.891h-0.059c-1.453,5.398-3.848,9.594-7.184,12.586c-0.359-0.453-0.773-0.945-1.242-1.477
		c3.016-2.758,5.273-6.461,6.773-11.109h-5.508v-1.688h7.219v-4.781h1.734v4.781h7.477v1.688h-5.965
		C164.543,95.965,166.797,99.457,169.812,101.582z"/>
	<path fill="#FF6600" d="M170.141,100.621c1.812-0.359,3.805-0.797,5.977-1.312c-0.016,0.625-0.008,1.18,0.023,1.664
		c-1.781,0.375-3.664,0.836-5.648,1.383L170.141,100.621z M173.609,89.066l-0.539,6.445h2.367l0.609-7.898h-5.32V86.02h7.102
		l-0.727,9.492h1.477c-0.109,3.297-0.211,6.008-0.305,8.133c-0.047,2.375-1.078,3.562-3.094,3.562c-0.844,0-1.836-0.023-2.977-0.07
		c-0.078-0.578-0.18-1.195-0.305-1.852c1.125,0.141,2.125,0.211,3,0.211c1.094,0,1.672-0.664,1.734-1.992
		c0.094-1.719,0.172-3.852,0.234-6.398h-5.625l0.75-8.039L173.609,89.066L173.609,89.066z M187.273,84.707l-0.445,0.75
		c1.891,3.359,4.234,5.805,7.031,7.336c-0.5,0.625-0.914,1.172-1.242,1.641c-2.75-2.031-4.992-4.477-6.727-7.336
		c-1.594,2.828-3.82,5.367-6.68,7.617c-0.281-0.406-0.672-0.898-1.172-1.477c3.109-2.156,5.492-5,7.148-8.531H187.273z
		 M178.766,104.887h8.461c1.125-2.781,2.125-5.688,3-8.719l1.781,0.562c-0.922,2.797-1.898,5.516-2.93,8.156h4.125v1.617h-14.438
		L178.766,104.887L178.766,104.887z M179.961,97.387l1.641-0.516c0.766,2.219,1.406,4.195,1.922,5.93l-1.734,0.586
		C181.273,101.387,180.664,99.387,179.961,97.387z M181.156,93.332h9.656v1.617h-9.656V93.332z M183.992,96.332l1.664-0.445
		c0.656,2.344,1.195,4.391,1.617,6.141l-1.711,0.492C185.109,100.363,184.586,98.301,183.992,96.332z"/>
	<path fill="#FF6600" d="M202.438,100.645c0.031,0.734,0.086,1.43,0.164,2.086c-2.141,1.391-3.734,2.508-4.781,3.352l-1.125-1.547
		c0.531-0.516,0.797-1.219,0.797-2.109v-8.344h-2.977v-1.688h4.758v10.406C200.289,102.129,201.344,101.41,202.438,100.645z
		 M197.703,85.27c1.203,1.188,2.352,2.391,3.445,3.609l-1.641,1.359c-1.141-1.469-2.211-2.719-3.211-3.75L197.703,85.27z
		 M202.367,96.566v-1.617h12.773v1.617c-1.234,2.711-2.758,4.836-4.57,6.375c1.992,1.312,4.391,2.227,7.195,2.742
		c-0.547,0.703-1.023,1.336-1.43,1.898c-2.789-0.805-5.219-1.973-7.289-3.504c-2.125,1.438-4.812,2.668-8.062,3.691
		c-0.406-0.578-0.812-1.141-1.219-1.688c3.102-0.836,5.695-1.902,7.781-3.199c-1.812-1.75-3.129-3.855-3.949-6.316L202.367,96.566
		L202.367,96.566z M212.211,87.426h-5.859v0.68c0,2.875-1.312,5.016-3.938,6.422c-0.422-0.516-0.875-1-1.359-1.453
		c2.312-1.188,3.469-2.828,3.469-4.922v-2.461h9.516v4.781c0,0.703,0.359,1.055,1.078,1.055h2.578
		c-0.078,0.641-0.141,1.219-0.188,1.734h-3.094c-1.469,0-2.203-0.812-2.203-2.438L212.211,87.426L212.211,87.426z M205.367,96.566
		c0.789,1.992,2.027,3.746,3.715,5.262c1.656-1.281,2.98-3.035,3.973-5.262H205.367z"/>
	<path fill="#FF6600" d="M228.031,101.113c0.047,0.812,0.102,1.492,0.164,2.039c-2.5,1.562-4.562,2.922-6.188,4.078l-1.125-1.594
		c0.547-0.469,0.82-1.18,0.82-2.133v-9.281h-3.328v-1.688h5.203v11.391C224.938,103.098,226.422,102.16,228.031,101.113z
		 M220.766,84.918c1.703,1.75,2.938,3.047,3.703,3.891l-1.641,1.383c-0.984-1.297-2.148-2.641-3.492-4.031L220.766,84.918z
		 M225.875,92.676h6.82v-8.062h2.016v8.062h6.867v1.688h-6.867v13.219h-2.016v-13.22h-6.82V92.676z"/>
	<path fill="#FF6600" d="M243.336,88.434h2.367c0.578-1.422,1.055-2.719,1.43-3.891l1.969,0.562
		c-0.492,1.195-0.969,2.305-1.43,3.328h4.688v18.656h-1.875v-1.828h-5.273v1.992h-1.875V88.434H243.336z M250.484,90.191h-5.273
		v5.695h5.273V90.191z M245.211,103.504h5.273v-5.93h-5.273V103.504z M252.711,93.238c1.469-2.328,2.711-5.227,3.727-8.695
		l1.969,0.492c-0.398,1.18-0.805,2.289-1.219,3.328h7.547c-0.188,8.031-0.344,13.086-0.469,15.164
		c-0.109,2.453-1.398,3.68-3.867,3.68c-1.422,0-2.867-0.047-4.336-0.141c-0.094-0.781-0.219-1.477-0.375-2.086h0.07
		c1.562,0.219,2.992,0.328,4.289,0.328c1.422,0,2.188-0.75,2.297-2.25c0.172-2.328,0.297-6.641,0.375-12.938h-6.281
		c-0.68,1.508-1.383,2.836-2.109,3.984C253.906,93.809,253.367,93.52,252.711,93.238z M254.773,94.832l1.43-1.055
		c1.734,2.047,3.117,3.82,4.148,5.32l-1.734,1.219C257.508,98.504,256.227,96.676,254.773,94.832z"/>
	<path fill="#FF6600" d="M266.328,99.332c1.453-2.375,2.602-5.148,3.445-8.32h-3.234v-1.57h3.375v-4.688h1.711v4.688h3.281v1.57
		h-3.281v3.023l0.703-0.609c0.969,0.969,2.008,2.07,3.117,3.305l-1.266,1.172c-0.969-1.203-1.82-2.203-2.555-3v12.75h-1.711V94.879
		c-0.859,2.703-1.805,4.875-2.836,6.516C266.859,100.723,266.609,100.035,266.328,99.332z M276.148,85.645h11.555V97.48h-1.711
		v-0.516h-4.383c0.484,1.406,1.109,2.672,1.875,3.797c1.594-0.938,3.086-1.914,4.477-2.93l1.148,1.477
		c-1.531,0.953-3.086,1.844-4.664,2.672c1.391,1.578,3.141,2.812,5.25,3.703c-0.516,0.5-1.008,1.047-1.477,1.641
		c-4.125-2.359-6.898-5.812-8.32-10.359h-2.016v7.711c1.062-0.438,2.422-1.07,4.078-1.898c0.016,0.75,0.062,1.367,0.141,1.852
		c-1.484,0.656-2.859,1.359-4.125,2.109c-0.562,0.359-1.016,0.695-1.359,1.008l-1.266-1.617c0.531-0.453,0.797-1.156,0.797-2.109
		V85.645z M285.992,87.262h-8.109v3.258h8.109V87.262z M285.992,95.348V92.09h-8.109v3.258H285.992z"/>
	<path fill="#FF6600" d="M313.555,101.488c-0.406,0.406-0.938,0.953-1.594,1.641c-3.781-2.914-6.797-6.648-9.047-11.203v9.281h5.367
		v1.641h-5.367v4.805h-1.828v-4.805h-5.555v-1.641h5.555v-9.281c-1.992,3.969-5.047,7.797-9.164,11.484
		c-0.609-0.578-1.125-1.047-1.547-1.406c4.445-3.648,7.77-7.508,9.973-11.578h-9.457v-1.734h10.195v-4.219h1.828v4.219h10.195v1.734
		h-9.527C306.066,95.098,309.391,98.785,313.555,101.488z"/>
</g>
<g>
	<path fill="#FF6600" d="M18.132,15.64c0,0.529-0.085,1.07-0.254,1.62c-0.169,0.552-0.424,1.064-0.762,1.541
		c-0.339,0.477-0.773,0.895-1.303,1.255c-0.529,0.36-1.155,0.635-1.874,0.826v0.127c0.635,0.106,1.244,0.286,1.827,0.54
		c0.582,0.254,1.096,0.604,1.541,1.048s0.805,0.985,1.08,1.62c0.275,0.635,0.413,1.387,0.413,2.256c0,1.144-0.238,2.134-0.715,2.97
		c-0.477,0.837-1.102,1.52-1.874,2.049c-0.773,0.529-1.657,0.921-2.653,1.175s-2.012,0.381-3.05,0.381c-0.36,0-0.784,0-1.271,0
		c-0.487,0-0.995-0.016-1.525-0.048s-1.059-0.074-1.588-0.127s-0.995-0.131-1.398-0.238V10.748c0.784-0.127,1.694-0.233,2.732-0.318
		c1.038-0.084,2.171-0.127,3.399-0.127c0.826,0,1.668,0.069,2.526,0.206c0.858,0.138,1.636,0.402,2.335,0.794
		c0.699,0.392,1.275,0.937,1.731,1.636C17.905,13.639,18.132,14.539,18.132,15.64z M9.015,20.342c0.36,0,0.794-0.011,1.303-0.032
		c0.508-0.02,0.932-0.053,1.271-0.095c0.508-0.169,0.985-0.376,1.43-0.619c0.445-0.243,0.842-0.529,1.191-0.858
		c0.349-0.328,0.625-0.71,0.826-1.144c0.201-0.434,0.302-0.905,0.302-1.414c0-0.699-0.132-1.275-0.397-1.731
		c-0.265-0.455-0.619-0.821-1.064-1.096c-0.445-0.275-0.953-0.471-1.525-0.588c-0.572-0.116-1.155-0.175-1.747-0.175
		c-0.699,0-1.34,0.016-1.922,0.048c-0.582,0.032-1.022,0.079-1.318,0.143v7.561C7.363,20.342,9.015,20.342,9.015,20.342z
		 M10.762,30.762c0.678,0,1.334-0.079,1.97-0.238c0.635-0.159,1.197-0.413,1.684-0.762c0.487-0.349,0.874-0.778,1.16-1.287
		c0.286-0.508,0.429-1.112,0.429-1.811c0-0.867-0.175-1.566-0.524-2.097c-0.349-0.529-0.806-0.942-1.366-1.239
		c-0.561-0.297-1.191-0.497-1.89-0.604c-0.699-0.106-1.398-0.159-2.097-0.159H7.363v7.974c0.148,0.042,0.36,0.074,0.635,0.095
		c0.275,0.021,0.572,0.043,0.89,0.064c0.318,0.021,0.646,0.037,0.985,0.048C10.21,30.757,10.508,30.762,10.762,30.762z"/>
	<path fill="#FF6600" d="M22.771,18.087c0.805-0.487,1.742-0.846,2.812-1.08c1.07-0.233,2.187-0.349,3.352-0.349
		c1.101,0,1.986,0.148,2.653,0.445c0.667,0.297,1.175,0.683,1.525,1.16c0.349,0.477,0.582,1.001,0.699,1.573
		c0.116,0.572,0.175,1.144,0.175,1.716c0,1.271-0.032,2.51-0.095,3.717c-0.064,1.207-0.095,2.351-0.095,3.431
		c0,0.784,0.032,1.525,0.095,2.224c0.064,0.699,0.18,1.345,0.349,1.938h-1.874l-0.667-2.224h-0.159
		c-0.191,0.297-0.429,0.588-0.715,0.874c-0.286,0.286-0.63,0.54-1.032,0.762c-0.402,0.222-0.868,0.408-1.398,0.556
		c-0.529,0.147-1.133,0.222-1.811,0.222c-0.679,0-1.308-0.107-1.89-0.318c-0.583-0.212-1.085-0.514-1.509-0.905
		c-0.424-0.392-0.757-0.863-1.001-1.414c-0.244-0.551-0.365-1.175-0.365-1.874c0-0.932,0.191-1.71,0.572-2.335
		c0.381-0.625,0.916-1.122,1.604-1.493c0.687-0.37,1.513-0.635,2.478-0.794c0.964-0.159,2.027-0.238,3.193-0.238
		c0.297,0,0.588,0,0.874,0c0.286,0,0.576,0.021,0.874,0.064c0.064-0.635,0.095-1.207,0.095-1.716c0-1.164-0.233-1.98-0.699-2.446
		c-0.466-0.465-1.313-0.699-2.542-0.699c-0.36,0-0.747,0.027-1.16,0.082c-0.413,0.055-0.837,0.131-1.271,0.229
		c-0.434,0.098-0.847,0.218-1.239,0.359c-0.392,0.142-0.736,0.299-1.032,0.474L22.771,18.087z M27.282,30.826
		c0.592,0,1.122-0.079,1.588-0.238c0.466-0.159,0.868-0.36,1.207-0.604c0.338-0.243,0.619-0.514,0.842-0.81
		c0.222-0.297,0.387-0.582,0.492-0.858v-2.637c-0.297-0.02-0.598-0.037-0.905-0.048c-0.307-0.011-0.609-0.016-0.905-0.016
		c-0.657,0-1.298,0.037-1.922,0.111c-0.625,0.074-1.175,0.212-1.652,0.413c-0.477,0.202-0.858,0.477-1.144,0.826
		c-0.286,0.349-0.429,0.79-0.429,1.318c0,0.741,0.265,1.35,0.794,1.827C25.778,30.588,26.456,30.826,27.282,30.826z"/>
	<path fill="#FF6600" d="M45.771,28.475c0-0.635-0.191-1.133-0.572-1.493c-0.381-0.36-0.852-0.662-1.414-0.905
		c-0.561-0.244-1.175-0.477-1.843-0.699c-0.667-0.222-1.281-0.508-1.843-0.858c-0.561-0.349-1.032-0.8-1.414-1.35
		c-0.381-0.551-0.572-1.291-0.572-2.224c0-1.525,0.434-2.641,1.303-3.352c0.867-0.71,2.076-1.064,3.622-1.064
		c1.144,0,2.101,0.101,2.875,0.302c0.773,0.201,1.445,0.439,2.017,0.715l-0.604,2.097c-0.487-0.233-1.075-0.439-1.763-0.619
		c-0.688-0.18-1.424-0.27-2.208-0.27c-0.933,0-1.616,0.159-2.049,0.477c-0.434,0.318-0.651,0.868-0.651,1.652
		c0,0.552,0.191,0.98,0.572,1.287c0.381,0.307,0.852,0.582,1.414,0.826c0.561,0.244,1.175,0.482,1.843,0.715
		c0.667,0.233,1.281,0.54,1.843,0.921c0.561,0.381,1.032,0.863,1.414,1.445c0.381,0.582,0.572,1.35,0.572,2.303
		c0,0.678-0.111,1.313-0.334,1.906c-0.222,0.593-0.567,1.102-1.032,1.525c-0.466,0.424-1.043,0.757-1.731,1.001
		c-0.688,0.243-1.498,0.365-2.43,0.365c-1.207,0-2.235-0.116-3.082-0.349c-0.847-0.233-1.557-0.508-2.129-0.826l0.762-2.16
		c0.487,0.275,1.123,0.529,1.906,0.762c0.783,0.233,1.578,0.349,2.383,0.349c0.911,0,1.663-0.18,2.256-0.54
		C45.474,30.053,45.771,29.407,45.771,28.475z"/>
	<path fill="#FF6600" d="M52.156,12.082c0-0.487,0.164-0.905,0.492-1.255c0.328-0.349,0.747-0.524,1.255-0.524
		c0.508,0,0.942,0.175,1.303,0.524c0.36,0.349,0.54,0.768,0.54,1.255c0,0.488-0.18,0.89-0.54,1.207
		c-0.36,0.318-0.794,0.477-1.303,0.477c-0.508,0-0.927-0.159-1.255-0.477C52.32,12.972,52.156,12.57,52.156,12.082z M52.696,16.911
		h2.542v15.884h-2.542V16.911z"/>
	<path fill="#FF6600" d="M71.502,31.747c-0.635,0.466-1.387,0.821-2.256,1.064c-0.868,0.243-1.779,0.365-2.732,0.365
		c-1.228,0-2.266-0.196-3.113-0.588c-0.847-0.392-1.541-0.953-2.081-1.684c-0.54-0.731-0.932-1.61-1.175-2.637
		c-0.244-1.027-0.365-2.166-0.365-3.415c0-2.69,0.592-4.749,1.779-6.179s2.891-2.144,5.115-2.144c1.017,0,1.879,0.079,2.589,0.238
		c0.71,0.159,1.35,0.387,1.923,0.683l-0.732,2.192c-0.487-0.275-1.027-0.492-1.62-0.651c-0.593-0.159-1.228-0.238-1.906-0.238
		c-3.007,0-4.511,2.033-4.511,6.1c0,0.806,0.079,1.573,0.238,2.303c0.159,0.731,0.424,1.378,0.794,1.938
		c0.371,0.561,0.858,1.011,1.461,1.35c0.604,0.339,1.35,0.508,2.24,0.508c0.762,0,1.445-0.116,2.049-0.349
		c0.604-0.233,1.096-0.498,1.477-0.794L71.502,31.747z"/>
	<path fill="#FF6600" d="M94.313,31.747c-0.635,0.466-1.387,0.821-2.256,1.064c-0.868,0.243-1.78,0.365-2.732,0.365
		c-1.229,0-2.267-0.196-3.113-0.588c-0.847-0.392-1.541-0.953-2.081-1.684c-0.539-0.731-0.932-1.61-1.175-2.637
		c-0.244-1.027-0.365-2.166-0.365-3.415c0-2.69,0.593-4.749,1.78-6.179c1.186-1.43,2.89-2.144,5.115-2.144
		c1.016,0,1.88,0.079,2.589,0.238c0.71,0.159,1.35,0.387,1.923,0.683l-0.731,2.192c-0.488-0.275-1.028-0.492-1.62-0.651
		c-0.594-0.159-1.229-0.238-1.906-0.238c-3.007,0-4.511,2.033-4.511,6.1c0,0.806,0.079,1.573,0.239,2.303
		c0.159,0.731,0.423,1.378,0.793,1.938c0.371,0.561,0.858,1.011,1.461,1.35c0.604,0.339,1.35,0.508,2.24,0.508
		c0.762,0,1.445-0.116,2.049-0.349c0.604-0.233,1.095-0.498,1.477-0.794L94.313,31.747z"/>
	<path fill="#FF6600" d="M96.917,24.853c0-2.69,0.598-4.749,1.795-6.179c1.196-1.43,2.917-2.144,5.163-2.144
		c1.186,0,2.219,0.196,3.097,0.588c0.878,0.392,1.603,0.953,2.176,1.684c0.573,0.731,0.995,1.61,1.271,2.637
		c0.275,1.028,0.413,2.166,0.413,3.415c0,2.69-0.599,4.749-1.795,6.179c-1.197,1.43-2.918,2.144-5.162,2.144
		c-1.187,0-2.219-0.196-3.098-0.588c-0.879-0.392-1.603-0.953-2.176-1.684c-0.571-0.731-0.995-1.61-1.27-2.637
		C97.055,27.241,96.917,26.104,96.917,24.853z M99.554,24.853c0,0.806,0.079,1.578,0.239,2.319c0.159,0.741,0.407,1.387,0.747,1.938
		c0.339,0.551,0.784,0.995,1.334,1.334c0.551,0.339,1.218,0.508,2.002,0.508c2.88,0.021,4.321-2.012,4.321-6.1
		c0-0.826-0.079-1.61-0.238-2.351c-0.16-0.741-0.409-1.387-0.747-1.938c-0.339-0.551-0.784-0.99-1.334-1.318
		c-0.551-0.328-1.219-0.492-2.001-0.492C100.994,18.733,99.554,20.766,99.554,24.853z"/>
	<path fill="#FF6600" d="M125.033,32.796v-9.054c0-1.652-0.239-2.896-0.716-3.733c-0.477-0.837-1.349-1.255-2.621-1.255
		c-1.123,0-2.049,0.302-2.779,0.905c-0.731,0.604-1.244,1.361-1.541,2.271v10.865h-2.542V16.911h1.779l0.477,1.938h0.127
		c0.508-0.678,1.192-1.233,2.049-1.668c0.858-0.434,1.88-0.651,3.066-0.651c0.868,0,1.632,0.101,2.288,0.302
		c0.656,0.201,1.201,0.556,1.636,1.064c0.434,0.508,0.762,1.191,0.985,2.049c0.222,0.858,0.334,1.943,0.334,3.256v9.594H125.033z"/>
	<path fill="#FF6600" d="M139.202,28.475c0-0.635-0.191-1.133-0.572-1.493c-0.381-0.36-0.853-0.662-1.414-0.905
		c-0.562-0.244-1.175-0.477-1.843-0.699c-0.667-0.222-1.281-0.508-1.843-0.858c-0.561-0.349-1.032-0.8-1.414-1.35
		c-0.381-0.551-0.572-1.291-0.572-2.224c0-1.525,0.434-2.641,1.303-3.352c0.867-0.71,2.076-1.064,3.622-1.064
		c1.144,0,2.102,0.101,2.875,0.302c0.773,0.201,1.446,0.439,2.017,0.715l-0.604,2.097c-0.488-0.233-1.076-0.439-1.763-0.619
		c-0.688-0.18-1.424-0.27-2.208-0.27c-0.933,0-1.615,0.159-2.049,0.477c-0.434,0.318-0.65,0.868-0.65,1.652
		c0,0.552,0.191,0.98,0.571,1.287c0.381,0.307,0.852,0.582,1.415,0.826c0.56,0.244,1.175,0.482,1.843,0.715
		c0.667,0.233,1.28,0.54,1.843,0.921c0.561,0.381,1.032,0.863,1.414,1.445c0.382,0.582,0.572,1.35,0.572,2.303
		c0,0.678-0.111,1.313-0.334,1.906c-0.222,0.593-0.567,1.102-1.032,1.525c-0.466,0.424-1.044,0.757-1.732,1.001
		c-0.687,0.243-1.498,0.365-2.43,0.365c-1.206,0-2.234-0.116-3.081-0.349c-0.848-0.233-1.558-0.508-2.129-0.826l0.762-2.16
		c0.487,0.275,1.123,0.529,1.906,0.762s1.578,0.349,2.383,0.349c0.91,0,1.663-0.18,2.256-0.54
		C138.905,30.053,139.202,29.407,139.202,28.475z"/>
	<path fill="#FF6600" d="M145.588,12.082c0-0.487,0.164-0.905,0.492-1.255c0.328-0.349,0.747-0.524,1.255-0.524
		c0.508,0,0.942,0.175,1.303,0.524c0.361,0.349,0.54,0.768,0.54,1.255c0,0.488-0.18,0.89-0.54,1.207
		c-0.36,0.318-0.793,0.477-1.303,0.477s-0.927-0.159-1.255-0.477C145.752,12.972,145.588,12.57,145.588,12.082z M146.127,16.911
		h2.542v15.884h-2.542V16.911z"/>
	<path fill="#FF6600" d="M161.09,28.475c0-0.635-0.191-1.133-0.572-1.493c-0.381-0.36-0.853-0.662-1.414-0.905
		c-0.562-0.244-1.175-0.477-1.843-0.699c-0.667-0.222-1.281-0.508-1.843-0.858c-0.561-0.349-1.032-0.8-1.414-1.35
		c-0.381-0.551-0.572-1.291-0.572-2.224c0-1.525,0.434-2.641,1.303-3.352c0.867-0.71,2.076-1.064,3.622-1.064
		c1.144,0,2.102,0.101,2.875,0.302c0.773,0.201,1.446,0.439,2.017,0.715l-0.604,2.097c-0.488-0.233-1.076-0.439-1.763-0.619
		c-0.688-0.18-1.424-0.27-2.208-0.27c-0.933,0-1.615,0.159-2.049,0.477s-0.65,0.868-0.65,1.652c0,0.552,0.191,0.98,0.571,1.287
		c0.381,0.307,0.852,0.582,1.415,0.826c0.56,0.244,1.175,0.482,1.843,0.715c0.667,0.233,1.28,0.54,1.843,0.921
		c0.561,0.381,1.033,0.863,1.414,1.445c0.382,0.582,0.572,1.35,0.572,2.303c0,0.678-0.111,1.313-0.334,1.906
		c-0.222,0.593-0.567,1.102-1.032,1.525c-0.466,0.424-1.044,0.757-1.732,1.001c-0.687,0.243-1.498,0.365-2.43,0.365
		c-1.206,0-2.234-0.116-3.081-0.349c-0.848-0.233-1.558-0.508-2.129-0.826l0.762-2.16c0.487,0.275,1.123,0.529,1.906,0.762
		s1.578,0.349,2.383,0.349c0.91,0,1.663-0.18,2.256-0.54C160.793,30.053,161.09,29.407,161.09,28.475z"/>
	<path fill="#FF6600" d="M165.379,16.911h2.478v-3.145l2.542-0.731v3.876h4.321v2.224h-4.321v8.8c0,1.101,0.138,1.88,0.413,2.335
		c0.275,0.455,0.741,0.683,1.398,0.683c0.551,0,1.017-0.058,1.398-0.175c0.382-0.116,0.805-0.27,1.271-0.461l0.571,1.938
		c-0.571,0.275-1.196,0.498-1.874,0.667c-0.678,0.169-1.408,0.254-2.191,0.254c-1.293,0-2.203-0.365-2.733-1.096
		c-0.529-0.731-0.793-1.954-0.793-3.669v-9.277h-2.478L165.379,16.911L165.379,16.911z"/>
	<path fill="#FF6600" d="M189.84,31.525c-0.635,0.508-1.435,0.911-2.399,1.207c-0.965,0.296-1.986,0.445-3.067,0.445
		c-1.207,0-2.256-0.196-3.144-0.588c-0.889-0.392-1.62-0.953-2.192-1.684c-0.571-0.731-0.995-1.604-1.27-2.621
		c-0.275-1.017-0.414-2.16-0.414-3.431c0-2.711,0.604-4.776,1.812-6.195c1.206-1.418,2.932-2.129,5.177-2.129
		c0.72,0,1.44,0.079,2.16,0.238c0.719,0.159,1.366,0.461,1.938,0.905c0.571,0.445,1.038,1.076,1.398,1.89
		c0.359,0.815,0.54,1.89,0.54,3.225c0,0.699-0.064,1.472-0.191,2.319h-10.198c0,0.932,0.095,1.758,0.286,2.478
		s0.487,1.329,0.89,1.827c0.402,0.498,0.927,0.879,1.573,1.144c0.645,0.265,1.434,0.397,2.367,0.397c0.719,0,1.44-0.127,2.16-0.381
		c0.719-0.254,1.26-0.551,1.62-0.89L189.84,31.525z M184.376,18.754c-1.25,0-2.25,0.329-3.001,0.985
		c-0.753,0.657-1.202,1.779-1.35,3.368h7.879c0-1.61-0.307-2.737-0.921-3.383C186.367,19.077,185.498,18.754,184.376,18.754z"/>
	<path fill="#FF6600" d="M204.581,32.796v-9.054c0-1.652-0.239-2.896-0.716-3.733c-0.477-0.837-1.349-1.255-2.621-1.255
		c-1.122,0-2.049,0.302-2.779,0.905c-0.731,0.604-1.244,1.361-1.541,2.271v10.865h-2.542V16.911h1.779l0.477,1.938h0.127
		c0.508-0.678,1.192-1.233,2.049-1.668c0.858-0.434,1.88-0.651,3.066-0.651c0.868,0,1.632,0.101,2.288,0.302
		c0.656,0.201,1.201,0.556,1.636,1.064c0.434,0.508,0.762,1.191,0.985,2.049c0.222,0.858,0.334,1.943,0.334,3.256v9.594H204.581z"/>
	<path fill="#FF6600" d="M222.593,31.747c-0.635,0.466-1.387,0.821-2.256,1.064c-0.868,0.243-1.78,0.365-2.732,0.365
		c-1.229,0-2.267-0.196-3.113-0.588c-0.847-0.392-1.541-0.953-2.081-1.684c-0.539-0.731-0.932-1.61-1.175-2.637
		c-0.244-1.027-0.365-2.166-0.365-3.415c0-2.69,0.593-4.749,1.78-6.179c1.186-1.43,2.89-2.144,5.115-2.144
		c1.016,0,1.88,0.079,2.589,0.238s1.35,0.387,1.923,0.683l-0.731,2.192c-0.488-0.275-1.028-0.492-1.62-0.651
		c-0.594-0.159-1.229-0.238-1.906-0.238c-3.007,0-4.511,2.033-4.511,6.1c0,0.806,0.079,1.573,0.239,2.303
		c0.159,0.731,0.423,1.378,0.793,1.938c0.371,0.561,0.858,1.011,1.461,1.35c0.604,0.339,1.35,0.508,2.24,0.508
		c0.762,0,1.445-0.116,2.049-0.349c0.604-0.233,1.095-0.498,1.477-0.794L222.593,31.747z"/>
	<path fill="#FF6600" d="M230.773,27.204l0.893,3.05h0.16l0.702-3.082l3.092-10.261h2.542l-4.702,14.264
		c-0.36,1.038-0.715,2.044-1.064,3.018c-0.349,0.974-0.736,1.843-1.16,2.605c-0.423,0.762-0.9,1.371-1.429,1.827
		c-0.53,0.455-1.144,0.683-1.843,0.683c-0.762,0-1.387-0.106-1.874-0.318l0.445-2.192c0.275,0.106,0.539,0.159,0.793,0.159
		c0.593,0,1.165-0.312,1.716-0.937c0.551-0.625,1.006-1.7,1.366-3.225l-6.386-15.884h2.923L230.773,27.204z"/>
	<path fill="#FF6600" d="M249.375,12.082c0-0.487,0.164-0.905,0.492-1.255c0.328-0.349,0.747-0.524,1.255-0.524
		c0.508,0,0.942,0.175,1.303,0.524c0.361,0.349,0.54,0.768,0.54,1.255c0,0.488-0.18,0.89-0.54,1.207
		c-0.36,0.318-0.793,0.477-1.303,0.477c-0.509,0-0.927-0.159-1.255-0.477C249.539,12.972,249.375,12.57,249.375,12.082z
		 M249.914,16.911h2.542v15.884h-2.542V16.911z"/>
	<path fill="#FF6600" d="M264.878,28.475c0-0.635-0.192-1.133-0.572-1.493c-0.381-0.36-0.853-0.662-1.414-0.905
		c-0.562-0.244-1.175-0.477-1.843-0.699c-0.667-0.222-1.281-0.508-1.843-0.858c-0.561-0.349-1.033-0.8-1.414-1.35
		c-0.381-0.551-0.572-1.291-0.572-2.224c0-1.525,0.434-2.641,1.303-3.352c0.867-0.71,2.076-1.064,3.622-1.064
		c1.144,0,2.102,0.101,2.875,0.302s1.446,0.439,2.017,0.715l-0.604,2.097c-0.488-0.233-1.076-0.439-1.763-0.619
		c-0.688-0.18-1.424-0.27-2.208-0.27c-0.933,0-1.615,0.159-2.049,0.477s-0.65,0.868-0.65,1.652c0,0.552,0.191,0.98,0.571,1.287
		c0.381,0.307,0.852,0.582,1.415,0.826c0.56,0.244,1.175,0.482,1.843,0.715c0.667,0.233,1.28,0.54,1.843,0.921
		c0.561,0.381,1.033,0.863,1.414,1.445c0.382,0.582,0.572,1.35,0.572,2.303c0,0.678-0.111,1.313-0.334,1.906
		c-0.222,0.593-0.567,1.102-1.033,1.525c-0.466,0.424-1.044,0.757-1.732,1.001c-0.687,0.243-1.498,0.365-2.43,0.365
		c-1.206,0-2.234-0.116-3.081-0.349c-0.848-0.233-1.558-0.508-2.129-0.826l0.762-2.16c0.487,0.275,1.122,0.529,1.906,0.762
		s1.578,0.349,2.383,0.349c0.91,0,1.663-0.18,2.256-0.54C264.58,30.053,264.878,29.407,264.878,28.475z"/>
	<path fill="#FF6600" d="M2.375,54.857h2.478v-3.145l2.542-0.73v3.875h4.321v2.224H7.394v8.801c0,1.101,0.138,1.88,0.413,2.335
		C8.083,68.673,8.549,68.9,9.205,68.9c0.551,0,1.017-0.058,1.398-0.175c0.381-0.116,0.805-0.27,1.271-0.46l0.572,1.937
		c-0.572,0.275-1.197,0.498-1.874,0.667c-0.679,0.169-1.409,0.254-2.192,0.254c-1.292,0-2.204-0.365-2.732-1.095
		c-0.529-0.731-0.794-1.955-0.794-3.669v-9.278H2.375V54.857z"/>
	<path fill="#FF6600" d="M25.439,70.742v-9.054c0-0.827-0.048-1.551-0.143-2.176s-0.27-1.145-0.524-1.558
		c-0.254-0.413-0.598-0.725-1.032-0.937c-0.434-0.212-1.001-0.318-1.7-0.318c-0.995,0-1.896,0.323-2.7,0.969
		c-0.806,0.646-1.324,1.478-1.557,2.494v10.58h-2.542V48.504h2.542v8.133h0.127c0.551-0.656,1.213-1.18,1.986-1.572
		s1.731-0.588,2.875-0.588c0.89,0,1.663,0.101,2.319,0.302c0.657,0.202,1.202,0.556,1.636,1.064
		c0.434,0.508,0.752,1.191,0.953,2.049c0.201,0.858,0.302,1.943,0.302,3.255v9.594H25.439z"/>
	<path fill="#FF6600" d="M44.215,69.471c-0.635,0.508-1.435,0.911-2.399,1.207s-1.986,0.445-3.066,0.445
		c-1.207,0-2.256-0.196-3.145-0.588c-0.89-0.391-1.62-0.953-2.192-1.683c-0.572-0.731-0.995-1.604-1.271-2.622
		c-0.276-1.017-0.413-2.16-0.413-3.431c0-2.711,0.604-4.776,1.811-6.195c1.207-1.419,2.933-2.129,5.178-2.129
		c0.719,0,1.44,0.079,2.16,0.238c0.72,0.159,1.366,0.461,1.938,0.905c0.572,0.445,1.037,1.075,1.398,1.89
		c0.36,0.816,0.54,1.891,0.54,3.225c0,0.699-0.064,1.472-0.191,2.319H34.365c0,0.933,0.095,1.758,0.286,2.478
		c0.191,0.72,0.487,1.33,0.89,1.827c0.402,0.498,0.927,0.879,1.573,1.144c0.645,0.266,1.434,0.397,2.367,0.397
		c0.72,0,1.44-0.128,2.16-0.381c0.719-0.254,1.26-0.551,1.62-0.89L44.215,69.471z M38.75,56.7c-1.25,0-2.251,0.328-3.002,0.985
		c-0.752,0.657-1.202,1.779-1.35,3.367h7.879c0-1.609-0.307-2.737-0.921-3.383C40.74,57.023,39.872,56.7,38.75,56.7z"/>
	<path fill="#FF6600" d="M55.492,54.857h2.478v-0.89c0-0.974,0.079-1.821,0.238-2.542c0.159-0.72,0.418-1.307,0.778-1.763
		c0.36-0.455,0.826-0.794,1.398-1.017c0.572-0.222,1.281-0.334,2.129-0.334c0.678,0,1.276,0.043,1.795,0.127
		c0.518,0.086,1.064,0.244,1.636,0.477l-0.572,2.129c-0.487-0.211-0.948-0.349-1.382-0.413c-0.434-0.064-0.842-0.095-1.223-0.095
		c-0.552,0-0.98,0.086-1.287,0.254c-0.307,0.169-0.529,0.419-0.667,0.747c-0.138,0.328-0.222,0.731-0.254,1.207
		c-0.032,0.477-0.048,1.032-0.048,1.668v0.444h4.225v2.224h-4.225v13.661H57.97V57.081h-2.478
		C55.492,57.081,55.492,54.857,55.492,54.857z"/>
	<path fill="#FF6600" d="M69.661,54.857v9.054c0,0.827,0.048,1.552,0.143,2.176c0.095,0.626,0.259,1.145,0.492,1.558
		s0.551,0.725,0.954,0.937c0.402,0.212,0.91,0.318,1.524,0.318c0.572,0,1.081-0.09,1.526-0.27c0.445-0.18,0.843-0.429,1.191-0.747
		c0.349-0.317,0.657-0.682,0.922-1.096c0.264-0.413,0.481-0.852,0.651-1.318V54.857h2.541v11.373c0,0.762,0.027,1.552,0.079,2.368
		c0.054,0.815,0.143,1.529,0.271,2.144h-1.747l-0.634-2.51h-0.159c-0.488,0.826-1.145,1.514-1.97,2.065
		c-0.825,0.551-1.875,0.826-3.145,0.826c-0.848,0-1.594-0.101-2.24-0.302c-0.646-0.201-1.186-0.556-1.62-1.064
		c-0.434-0.508-0.762-1.191-0.985-2.049c-0.222-0.858-0.334-1.942-0.334-3.255v-9.596H69.661z"/>
	<path fill="#FF6600" d="M94.695,70.742v-9.054c0-1.652-0.239-2.896-0.716-3.733c-0.477-0.836-1.349-1.255-2.621-1.255
		c-1.123,0-2.049,0.302-2.779,0.905c-0.731,0.604-1.244,1.361-1.541,2.271v10.865h-2.542V54.857h1.779l0.477,1.938h0.127
		c0.508-0.679,1.192-1.234,2.049-1.669c0.858-0.433,1.88-0.65,3.066-0.65c0.868,0,1.632,0.101,2.288,0.302
		c0.656,0.202,1.201,0.556,1.636,1.064c0.435,0.508,0.762,1.191,0.985,2.049c0.222,0.858,0.334,1.943,0.334,3.255v9.595H94.695z"/>
	<path fill="#FF6600" d="M114.073,65.278c0,1.081,0.011,2.061,0.032,2.939c0.02,0.879,0.116,1.743,0.286,2.59h-1.716l-0.635-2.256
		h-0.127c-0.424,0.742-1.039,1.355-1.843,1.843c-0.805,0.488-1.746,0.731-2.827,0.731c-2.118,0-3.691-0.667-4.719-2.001
		c-1.027-1.334-1.541-3.42-1.541-6.258c0-2.711,0.641-4.771,1.923-6.179c1.28-1.408,3.044-2.114,5.289-2.114
		c0.784,0,1.403,0.043,1.858,0.128c0.455,0.085,0.948,0.222,1.477,0.413v-6.608h2.542L114.073,65.278L114.073,65.278z
		 M107.656,68.899c1.08,0,1.937-0.281,2.573-0.842c0.635-0.561,1.069-1.414,1.303-2.557v-7.879
		c-0.381-0.297-0.815-0.508-1.303-0.635c-0.488-0.128-1.133-0.191-1.938-0.191c-1.461,0-2.605,0.482-3.431,1.445
		c-0.827,0.965-1.239,2.505-1.239,4.622c0,0.868,0.069,1.673,0.206,2.414c0.137,0.742,0.365,1.378,0.682,1.906
		c0.318,0.53,0.736,0.948,1.255,1.255C106.284,68.746,106.913,68.899,107.656,68.899z"/>
	<path fill="#FF6600" d="M118.712,56.033c0.804-0.487,1.742-0.847,2.812-1.08c1.07-0.234,2.187-0.349,3.352-0.349
		c1.101,0,1.986,0.148,2.653,0.445c0.668,0.297,1.175,0.683,1.526,1.16c0.349,0.477,0.582,1.001,0.699,1.572
		c0.116,0.572,0.175,1.145,0.175,1.716c0,1.271-0.032,2.51-0.095,3.717c-0.064,1.207-0.095,2.351-0.095,3.432
		c0,0.784,0.032,1.525,0.095,2.224c0.064,0.699,0.18,1.345,0.349,1.938h-1.874l-0.668-2.225h-0.159
		c-0.191,0.297-0.429,0.588-0.715,0.874c-0.286,0.286-0.631,0.54-1.032,0.762c-0.403,0.222-0.868,0.408-1.398,0.556
		c-0.53,0.148-1.133,0.222-1.812,0.222c-0.679,0-1.307-0.106-1.89-0.318c-0.582-0.211-1.085-0.513-1.509-0.905
		c-0.424-0.392-0.757-0.863-1.001-1.415c-0.244-0.551-0.365-1.175-0.365-1.874c0-0.932,0.191-1.71,0.571-2.335
		c0.382-0.625,0.916-1.123,1.604-1.493c0.687-0.371,1.514-0.635,2.478-0.793c0.964-0.16,2.028-0.239,3.193-0.239
		c0.297,0,0.588,0,0.874,0s0.576,0.021,0.874,0.064c0.063-0.636,0.094-1.207,0.094-1.716c0-1.164-0.234-1.98-0.699-2.445
		c-0.466-0.466-1.313-0.699-2.542-0.699c-0.36,0-0.747,0.026-1.159,0.082c-0.414,0.055-0.837,0.13-1.271,0.229
		c-0.434,0.098-0.847,0.218-1.239,0.359c-0.392,0.141-0.736,0.299-1.032,0.474L118.712,56.033z M123.222,68.772
		c0.593,0,1.123-0.079,1.589-0.238c0.465-0.159,0.867-0.36,1.206-0.604c0.339-0.244,0.619-0.514,0.842-0.81s0.387-0.582,0.493-0.859
		v-2.637c-0.297-0.02-0.599-0.036-0.905-0.048c-0.308-0.011-0.609-0.016-0.905-0.016c-0.657,0-1.297,0.037-1.922,0.111
		c-0.625,0.074-1.175,0.212-1.652,0.413c-0.477,0.202-0.858,0.477-1.144,0.826c-0.286,0.349-0.429,0.79-0.429,1.318
		c0,0.742,0.265,1.35,0.794,1.827C121.719,68.534,122.396,68.772,123.222,68.772z"/>
	<path fill="#FF6600" d="M144.031,70.742v-8.991c0-0.846-0.038-1.582-0.111-2.208c-0.075-0.624-0.218-1.148-0.429-1.572
		c-0.212-0.424-0.514-0.741-0.905-0.953s-0.905-0.318-1.541-0.318c-0.974,0-1.783,0.297-2.43,0.89
		c-0.646,0.594-1.095,1.335-1.349,2.225v10.927h-2.542V54.857h1.779l0.477,1.938h0.127c0.572-0.679,1.234-1.234,1.986-1.669
		c0.752-0.433,1.731-0.65,2.939-0.65c1.017,0,1.848,0.196,2.494,0.588c0.645,0.392,1.149,1.075,1.509,2.048
		c0.487-0.826,1.16-1.471,2.017-1.937c0.858-0.466,1.827-0.699,2.907-0.699c0.89,0,1.641,0.101,2.256,0.302
		c0.614,0.202,1.122,0.556,1.526,1.064c0.402,0.508,0.694,1.197,0.874,2.065c0.179,0.868,0.27,1.97,0.27,3.304v9.531h-2.542v-9.562
		c0-0.762-0.037-1.424-0.111-1.986c-0.075-0.561-0.222-1.027-0.445-1.398s-0.53-0.645-0.921-0.827
		c-0.392-0.179-0.905-0.27-1.541-0.27c-1.059,0-1.886,0.297-2.479,0.89c-0.593,0.594-1.016,1.441-1.27,2.542v10.612H144.031z"/>
	<path fill="#FF6600" d="M172.114,69.471c-0.635,0.508-1.435,0.911-2.399,1.207c-0.965,0.297-1.986,0.445-3.067,0.445
		c-1.207,0-2.256-0.196-3.144-0.588c-0.89-0.391-1.62-0.953-2.192-1.683c-0.571-0.731-0.995-1.604-1.27-2.622
		c-0.275-1.016-0.414-2.159-0.414-3.431c0-2.711,0.604-4.776,1.812-6.195c1.206-1.419,2.932-2.129,5.177-2.129
		c0.72,0,1.44,0.079,2.16,0.238c0.719,0.159,1.366,0.461,1.938,0.905c0.571,0.445,1.038,1.075,1.398,1.89
		c0.359,0.816,0.54,1.891,0.54,3.225c0,0.699-0.064,1.472-0.191,2.319h-10.198c0,0.933,0.095,1.758,0.286,2.478
		c0.191,0.72,0.487,1.33,0.89,1.827c0.402,0.498,0.927,0.879,1.573,1.144c0.645,0.266,1.434,0.397,2.367,0.397
		c0.719,0,1.44-0.128,2.16-0.381c0.719-0.254,1.26-0.551,1.62-0.89L172.114,69.471z M166.65,56.7c-1.25,0-2.25,0.328-3.001,0.985
		c-0.753,0.657-1.202,1.779-1.35,3.367h7.879c0-1.609-0.307-2.737-0.921-3.383C168.641,57.023,167.772,56.7,166.65,56.7z"/>
	<path fill="#FF6600" d="M186.855,70.742v-9.054c0-1.652-0.239-2.896-0.716-3.733c-0.477-0.836-1.349-1.255-2.621-1.255
		c-1.123,0-2.049,0.302-2.779,0.905c-0.731,0.604-1.244,1.361-1.541,2.271v10.865h-2.542V54.857h1.779l0.477,1.938h0.127
		c0.508-0.679,1.192-1.234,2.049-1.669c0.858-0.433,1.88-0.65,3.066-0.65c0.868,0,1.632,0.101,2.288,0.302
		c0.656,0.202,1.201,0.556,1.636,1.064c0.435,0.508,0.762,1.191,0.985,2.049c0.222,0.858,0.334,1.943,0.334,3.255v9.595H186.855z"/>
	<path fill="#FF6600" d="M191.938,54.857h2.478v-3.145l2.542-0.73v3.875h4.321v2.224h-4.321v8.801c0,1.101,0.138,1.88,0.413,2.335
		c0.275,0.456,0.741,0.683,1.398,0.683c0.551,0,1.017-0.058,1.398-0.175c0.382-0.116,0.805-0.27,1.271-0.46l0.571,1.937
		c-0.571,0.275-1.196,0.498-1.874,0.667c-0.678,0.169-1.408,0.254-2.191,0.254c-1.293,0-2.203-0.365-2.733-1.095
		c-0.529-0.731-0.793-1.955-0.793-3.669v-9.278h-2.478L191.938,54.857L191.938,54.857z"/>
	<path fill="#FF6600" d="M204.55,56.033c0.804-0.487,1.742-0.847,2.812-1.08c1.07-0.234,2.187-0.349,3.352-0.349
		c1.101,0,1.986,0.148,2.653,0.445c0.668,0.297,1.175,0.683,1.526,1.16c0.349,0.477,0.582,1.001,0.699,1.572
		c0.117,0.572,0.175,1.145,0.175,1.716c0,1.271-0.032,2.51-0.095,3.717c-0.064,1.207-0.095,2.351-0.095,3.432
		c0,0.784,0.032,1.525,0.095,2.224c0.064,0.699,0.18,1.345,0.349,1.938h-1.874l-0.668-2.225h-0.159
		c-0.191,0.297-0.429,0.588-0.715,0.874c-0.286,0.286-0.631,0.54-1.032,0.762c-0.403,0.222-0.868,0.408-1.398,0.556
		c-0.53,0.148-1.133,0.222-1.812,0.222s-1.307-0.106-1.89-0.318c-0.582-0.211-1.085-0.513-1.509-0.905
		c-0.424-0.392-0.757-0.863-1.001-1.415c-0.244-0.551-0.365-1.175-0.365-1.874c0-0.932,0.191-1.71,0.571-2.335
		c0.382-0.625,0.916-1.123,1.604-1.493c0.687-0.371,1.514-0.635,2.478-0.793c0.964-0.16,2.028-0.239,3.193-0.239
		c0.297,0,0.588,0,0.874,0s0.576,0.021,0.874,0.064c0.063-0.636,0.094-1.207,0.094-1.716c0-1.164-0.234-1.98-0.699-2.445
		c-0.466-0.466-1.313-0.699-2.542-0.699c-0.36,0-0.747,0.026-1.159,0.082c-0.414,0.055-0.837,0.13-1.271,0.229
		c-0.434,0.098-0.847,0.218-1.239,0.359c-0.392,0.141-0.736,0.299-1.033,0.474L204.55,56.033z M209.06,68.772
		c0.593,0,1.123-0.079,1.589-0.238c0.465-0.159,0.867-0.36,1.206-0.604c0.339-0.244,0.619-0.514,0.842-0.81s0.387-0.582,0.493-0.859
		v-2.637c-0.297-0.02-0.599-0.036-0.905-0.048c-0.308-0.011-0.609-0.016-0.905-0.016c-0.657,0-1.297,0.037-1.922,0.111
		c-0.625,0.074-1.175,0.212-1.652,0.413c-0.477,0.202-0.858,0.477-1.144,0.826c-0.286,0.349-0.429,0.79-0.429,1.318
		c0,0.742,0.265,1.35,0.794,1.827C207.557,68.534,208.235,68.772,209.06,68.772z"/>
	<path fill="#FF6600" d="M223.388,66.834c0,0.741,0.128,1.27,0.382,1.588c0.254,0.319,0.613,0.477,1.08,0.477
		c0.275,0,0.572-0.02,0.89-0.064c0.318-0.042,0.679-0.137,1.081-0.286l0.286,2.002c-0.34,0.169-0.811,0.307-1.415,0.413
		c-0.604,0.106-1.128,0.159-1.573,0.159c-0.953,0-1.737-0.27-2.351-0.81c-0.614-0.539-0.921-1.455-0.921-2.747V48.504h2.542
		L223.388,66.834L223.388,66.834z"/>
	<path fill="#FF6600" d="M236.224,54.857h2.478v-3.145l2.542-0.73v3.875h4.321v2.224h-4.321v8.801c0,1.101,0.138,1.88,0.413,2.335
		c0.275,0.456,0.741,0.683,1.398,0.683c0.551,0,1.017-0.058,1.398-0.175c0.382-0.116,0.805-0.27,1.271-0.46l0.571,1.937
		c-0.571,0.275-1.196,0.498-1.874,0.667c-0.678,0.169-1.408,0.254-2.191,0.254c-1.293,0-2.203-0.365-2.733-1.095
		c-0.529-0.731-0.793-1.955-0.793-3.669v-9.278h-2.478L236.224,54.857L236.224,54.857z"/>
	<path fill="#FF6600" d="M248.199,62.8c0-2.69,0.598-4.749,1.795-6.179c1.196-1.43,2.917-2.144,5.163-2.144
		c1.186,0,2.219,0.196,3.097,0.588c0.878,0.392,1.603,0.953,2.176,1.683c0.572,0.731,0.995,1.61,1.271,2.637
		c0.275,1.027,0.413,2.166,0.413,3.415c0,2.69-0.599,4.749-1.795,6.179c-1.197,1.43-2.918,2.144-5.162,2.144
		c-1.187,0-2.219-0.196-3.098-0.588c-0.879-0.391-1.603-0.953-2.176-1.683c-0.571-0.731-0.995-1.61-1.27-2.637
		C248.336,65.188,248.199,64.049,248.199,62.8z M250.836,62.8c0,0.805,0.079,1.578,0.239,2.319c0.159,0.742,0.407,1.387,0.747,1.938
		c0.339,0.551,0.784,0.995,1.334,1.334c0.551,0.339,1.218,0.508,2.002,0.508c2.88,0.021,4.321-2.012,4.321-6.1
		c0-0.826-0.079-1.609-0.238-2.351c-0.16-0.741-0.409-1.386-0.747-1.938c-0.339-0.55-0.784-0.989-1.334-1.318
		s-1.219-0.493-2.001-0.493C252.276,56.679,250.836,58.712,250.836,62.8z"/>
	<path fill="#FF6600" d="M287.625,48.504h2.542V63.34c0,1.334-0.175,2.489-0.524,3.463c-0.349,0.974-0.848,1.774-1.493,2.399
		c-0.646,0.625-1.424,1.085-2.335,1.382s-1.918,0.445-3.019,0.445c-2.626,0-4.607-0.593-5.94-1.78
		c-1.334-1.186-2.002-2.986-2.002-5.4V48.504h2.637v14.105c0,1.123,0.111,2.07,0.334,2.843c0.222,0.774,0.556,1.398,1.001,1.874
		c0.446,0.477,1.002,0.822,1.669,1.032c0.667,0.212,1.445,0.318,2.335,0.318c1.716,0,2.944-0.471,3.686-1.415
		c0.74-0.942,1.112-2.493,1.112-4.653L287.625,48.504L287.625,48.504z"/>
	<path fill="#FF6600" d="M301.094,59.432l-6.767-10.929h3.177l4.511,7.529l0.793,1.811l0.762-1.811l4.765-7.529h2.923L304.27,59.21
		l7.308,11.532h-3.082l-5.019-7.974l-0.859-1.906l-0.826,1.906l-5.146,7.974h-2.955L301.094,59.432z"/>
	<path fill="#FF6600" d="M335.626,65.278c0,1.081,0.011,2.061,0.032,2.939c0.02,0.879,0.116,1.743,0.286,2.59h-1.716l-0.635-2.256
		h-0.127c-0.424,0.742-1.039,1.355-1.843,1.843c-0.805,0.488-1.746,0.731-2.827,0.731c-2.118,0-3.691-0.667-4.719-2.001
		s-1.541-3.42-1.541-6.258c0-2.711,0.641-4.771,1.923-6.179c1.28-1.408,3.044-2.114,5.289-2.114c0.784,0,1.403,0.043,1.858,0.128
		c0.455,0.085,0.948,0.222,1.477,0.413v-6.608h2.542L335.626,65.278L335.626,65.278z M329.21,68.899c1.08,0,1.937-0.281,2.573-0.842
		c0.635-0.561,1.069-1.414,1.303-2.557v-7.879c-0.381-0.297-0.815-0.508-1.303-0.635c-0.488-0.128-1.133-0.191-1.938-0.191
		c-1.461,0-2.605,0.482-3.431,1.445c-0.827,0.965-1.239,2.505-1.239,4.622c0,0.868,0.069,1.673,0.207,2.414
		c0.137,0.742,0.365,1.378,0.682,1.906c0.318,0.53,0.736,0.948,1.255,1.255C327.837,68.746,328.467,68.899,329.21,68.899z"/>
	<path fill="#FF6600" d="M352.115,69.471c-0.635,0.508-1.435,0.911-2.399,1.207c-0.965,0.297-1.986,0.445-3.067,0.445
		c-1.207,0-2.256-0.196-3.144-0.588c-0.89-0.391-1.62-0.953-2.192-1.683c-0.571-0.731-0.995-1.604-1.27-2.622
		c-0.275-1.016-0.414-2.159-0.414-3.431c0-2.711,0.604-4.776,1.812-6.195c1.206-1.419,2.932-2.129,5.177-2.129
		c0.72,0,1.44,0.079,2.16,0.238c0.719,0.159,1.366,0.461,1.938,0.905c0.571,0.445,1.038,1.075,1.398,1.89
		c0.359,0.816,0.54,1.891,0.54,3.225c0,0.699-0.064,1.472-0.191,2.319h-10.198c0,0.933,0.095,1.758,0.286,2.478
		c0.191,0.72,0.487,1.33,0.89,1.827c0.402,0.498,0.927,0.879,1.573,1.144c0.645,0.266,1.434,0.397,2.367,0.397
		c0.719,0,1.44-0.128,2.16-0.381c0.719-0.254,1.26-0.551,1.62-0.89L352.115,69.471z M346.65,56.7c-1.25,0-2.25,0.328-3.001,0.985
		c-0.753,0.657-1.202,1.779-1.35,3.367h7.879c0-1.609-0.307-2.737-0.921-3.383C348.641,57.023,347.773,56.7,346.65,56.7z"/>
	<path fill="#FF6600" d="M363.647,66.421c0-0.635-0.192-1.132-0.572-1.492s-0.853-0.662-1.414-0.905
		c-0.562-0.243-1.175-0.477-1.843-0.699c-0.667-0.222-1.281-0.508-1.843-0.858c-0.561-0.349-1.033-0.799-1.414-1.35
		c-0.381-0.551-0.572-1.292-0.572-2.224c0-1.526,0.434-2.642,1.303-3.352c0.867-0.71,2.076-1.064,3.622-1.064
		c1.144,0,2.102,0.101,2.875,0.302c0.773,0.202,1.446,0.439,2.017,0.715l-0.604,2.097c-0.488-0.233-1.076-0.439-1.763-0.619
		c-0.688-0.179-1.424-0.27-2.208-0.27c-0.933,0-1.615,0.159-2.049,0.477c-0.434,0.318-0.65,0.868-0.65,1.652
		c0,0.551,0.191,0.98,0.571,1.287c0.381,0.308,0.852,0.582,1.415,0.826c0.56,0.244,1.175,0.483,1.843,0.716
		c0.667,0.234,1.28,0.54,1.843,0.921c0.561,0.381,1.033,0.864,1.414,1.445c0.382,0.582,0.572,1.35,0.572,2.303
		c0,0.679-0.111,1.313-0.334,1.906s-0.567,1.101-1.033,1.525c-0.466,0.424-1.044,0.757-1.732,1.001
		c-0.687,0.244-1.498,0.365-2.43,0.365c-1.206,0-2.234-0.116-3.081-0.349c-0.848-0.233-1.558-0.508-2.129-0.827l0.762-2.159
		c0.487,0.275,1.122,0.529,1.906,0.762c0.784,0.234,1.578,0.349,2.383,0.349c0.91,0,1.663-0.18,2.256-0.54
		C363.35,68,363.647,67.353,363.647,66.421z"/>
	<path fill="#FF6600" d="M370.033,50.029c0-0.487,0.164-0.905,0.492-1.255c0.328-0.349,0.747-0.525,1.255-0.525
		s0.942,0.175,1.303,0.525c0.36,0.349,0.54,0.768,0.54,1.255s-0.18,0.89-0.54,1.207c-0.36,0.317-0.793,0.476-1.303,0.476
		s-0.927-0.159-1.255-0.476C370.196,50.918,370.033,50.516,370.033,50.029z M370.572,54.857h2.542v15.884h-2.542V54.857z"/>
	<path fill="#FF6600" d="M390.713,71.473c0,2.054-0.545,3.569-1.636,4.542c-1.091,0.974-2.706,1.461-4.845,1.461
		c-1.27,0-2.293-0.079-3.066-0.238c-0.774-0.16-1.435-0.365-1.986-0.619l0.667-2.16c0.487,0.191,1.027,0.371,1.62,0.54
		c0.593,0.169,1.366,0.254,2.319,0.254c0.89,0,1.615-0.079,2.176-0.239c0.561-0.159,1.011-0.424,1.35-0.793
		c0.339-0.372,0.572-0.848,0.699-1.43c0.127-0.582,0.191-1.276,0.191-2.081v-1.525h-0.127c-0.424,0.614-0.965,1.085-1.62,1.414
		c-0.657,0.328-1.515,0.493-2.573,0.493c-2.14,0-3.713-0.668-4.719-2.002s-1.509-3.409-1.509-6.227c0-2.711,0.646-4.771,1.938-6.179
		c1.292-1.408,3.198-2.114,5.718-2.114c1.206,0,2.239,0.095,3.097,0.286c0.858,0.191,1.626,0.413,2.302,0.667v15.95H390.713z
		 M384.328,68.868c1.08,0,1.927-0.27,2.542-0.81c0.613-0.54,1.048-1.382,1.303-2.526v-8.133c-0.847-0.402-1.927-0.604-3.24-0.604
		c-1.44,0-2.573,0.487-3.399,1.46c-0.827,0.974-1.239,2.5-1.239,4.576c0,0.89,0.074,1.705,0.222,2.445
		c0.148,0.742,0.381,1.378,0.699,1.906c0.318,0.53,0.731,0.942,1.239,1.239S383.586,68.868,384.328,68.868z"/>
	<path fill="#FF6600" d="M405.804,70.742v-9.054c0-1.652-0.239-2.896-0.716-3.733c-0.477-0.836-1.349-1.255-2.621-1.255
		c-1.122,0-2.049,0.302-2.779,0.905c-0.731,0.604-1.244,1.361-1.541,2.271v10.865h-2.542V54.857h1.779l0.477,1.938h0.127
		c0.508-0.679,1.192-1.234,2.049-1.669c0.858-0.433,1.88-0.65,3.066-0.65c0.868,0,1.632,0.101,2.288,0.302
		c0.656,0.202,1.201,0.556,1.636,1.064s0.762,1.191,0.985,2.049c0.222,0.858,0.334,1.943,0.334,3.255v9.595H405.804z"/>
</g>
</svg>
