<?xml version="1.0" encoding="utf-8"?>
<!-- Generator: Adobe Illustrator 17.0.2, SVG Export Plug-In . SVG Version: 6.00 Build 0)  -->
<!DOCTYPE svg PUBLIC "-//W3C//DTD SVG 1.1//EN" "http://www.w3.org/Graphics/SVG/1.1/DTD/svg11.dtd">
<svg version="1.1" id="图层_1" xmlns="http://www.w3.org/2000/svg" xmlns:xlink="http://www.w3.org/1999/xlink" x="0px" y="0px"
	 width="372px" height="105px" viewBox="0 0 372 105" enable-background="new 0 0 372 105" xml:space="preserve">
<g>
	<g>
		<path fill="#FF6600" d="M13.078,100.421v-7.453h-6.82c-0.266,3.25-1.211,5.945-2.836,8.086c-0.406-0.516-0.867-1.055-1.383-1.617
			c1.016-1.438,1.703-3.031,2.062-4.781c0.344-1.688,0.516-4.078,0.516-7.172v-8.367h19.102v18.633c0,1.859-0.883,2.789-2.648,2.789
			c-1.078,0-2.289-0.023-3.633-0.07c-0.078-0.516-0.195-1.164-0.352-1.945c1.359,0.094,2.461,0.141,3.305,0.141
			c0.969,0,1.453-0.461,1.453-1.383v-4.312h-6.891v7.453H13.078z M6.387,91.28h6.691v-4.383H6.492
			C6.539,88.413,6.504,89.874,6.387,91.28z M6.492,80.85v4.359h6.586V80.85H6.492z M21.844,80.85h-6.891v4.359h6.891V80.85z
			 M14.953,91.28h6.891v-4.383h-6.891V91.28z"/>
		<path fill="#FF6600" d="M35.719,78.483l1.688-1.008c0.75,0.891,1.492,1.859,2.227,2.906l-1.148,0.727h8.742v10.383h-1.875v-1.219
			H30.551c-0.211,4.5-1.371,8.094-3.48,10.781c-0.422-0.516-0.875-1.031-1.359-1.547c2-2.438,3-6.094,3-10.969v-7.43h8.941
			C37.082,80.233,36.438,79.358,35.719,78.483z M30.586,82.796v5.789h14.766v-5.789H30.586z"/>
		<path fill="#FF6600" d="M49.711,89.053c2.266-3.312,3.953-7.086,5.062-11.32l1.781,0.516c-0.609,1.992-1.297,3.863-2.062,5.613
			v16.863h-1.734V87.389c-0.703,1.273-1.453,2.469-2.25,3.586C50.273,90.335,50.008,89.694,49.711,89.053z M73.312,94.749
			c-0.531,0.641-0.992,1.219-1.383,1.734c-3.125-2.406-5.422-6.477-6.891-12.211v9.891h3.445v1.688h-3.445v4.898h-1.734V95.85
			h-3.445v-1.688h3.445v-9.891h-0.059c-1.453,5.398-3.848,9.594-7.184,12.586c-0.359-0.453-0.773-0.945-1.242-1.477
			c3.016-2.758,5.273-6.461,6.773-11.109h-5.508v-1.688h7.219v-4.781h1.734v4.781h7.477v1.688h-5.965
			C68.043,89.132,70.297,92.624,73.312,94.749z"/>
		<path fill="#FF6600" d="M73.641,93.788c1.812-0.359,3.805-0.797,5.977-1.312c-0.016,0.625-0.008,1.18,0.023,1.664
			c-1.781,0.375-3.664,0.836-5.648,1.383L73.641,93.788z M77.109,82.233l-0.539,6.445h2.367l0.609-7.898h-5.32v-1.594h7.102
			l-0.727,9.492h1.477c-0.109,3.297-0.211,6.008-0.305,8.133c-0.047,2.375-1.078,3.562-3.094,3.562c-0.844,0-1.836-0.023-2.977-0.07
			c-0.078-0.578-0.18-1.195-0.305-1.852c1.125,0.141,2.125,0.211,3,0.211c1.094,0,1.672-0.664,1.734-1.992
			c0.094-1.719,0.172-3.852,0.234-6.398h-5.625l0.75-8.039H77.109z M90.773,77.874l-0.445,0.75c1.891,3.359,4.234,5.805,7.031,7.336
			c-0.5,0.625-0.914,1.172-1.242,1.641c-2.75-2.031-4.992-4.477-6.727-7.336c-1.594,2.828-3.82,5.367-6.68,7.617
			c-0.281-0.406-0.672-0.898-1.172-1.477c3.109-2.156,5.492-5,7.148-8.531H90.773z M82.266,98.053h8.461
			c1.125-2.781,2.125-5.688,3-8.719l1.781,0.562c-0.922,2.797-1.898,5.516-2.93,8.156h4.125v1.617H82.266V98.053z M83.461,90.553
			l1.641-0.516c0.766,2.219,1.406,4.195,1.922,5.93l-1.734,0.586C84.773,94.553,84.164,92.553,83.461,90.553z M84.656,86.499h9.656
			v1.617h-9.656V86.499z M87.492,89.499l1.664-0.445c0.656,2.344,1.195,4.391,1.617,6.141l-1.711,0.492
			C88.609,93.53,88.086,91.467,87.492,89.499z"/>
		<path fill="#FF6600" d="M105.938,93.811c0.031,0.734,0.086,1.43,0.164,2.086c-2.141,1.391-3.734,2.508-4.781,3.352l-1.125-1.547
			c0.531-0.516,0.797-1.219,0.797-2.109v-8.344h-2.977v-1.688h4.758v10.406C103.789,95.296,104.844,94.577,105.938,93.811z
			 M101.203,78.436c1.203,1.188,2.352,2.391,3.445,3.609l-1.641,1.359c-1.141-1.469-2.211-2.719-3.211-3.75L101.203,78.436z
			 M105.867,89.733v-1.617h12.773v1.617c-1.234,2.711-2.758,4.836-4.57,6.375c1.992,1.312,4.391,2.227,7.195,2.742
			c-0.547,0.703-1.023,1.336-1.43,1.898c-2.789-0.805-5.219-1.973-7.289-3.504c-2.125,1.438-4.812,2.668-8.062,3.691
			c-0.406-0.578-0.812-1.141-1.219-1.688c3.102-0.836,5.695-1.902,7.781-3.199c-1.812-1.75-3.129-3.855-3.949-6.316H105.867z
			 M115.711,80.592h-5.859v0.68c0,2.875-1.312,5.016-3.938,6.422c-0.422-0.516-0.875-1-1.359-1.453
			c2.312-1.188,3.469-2.828,3.469-4.922v-2.461h9.516v4.781c0,0.703,0.359,1.055,1.078,1.055h2.578
			c-0.078,0.641-0.141,1.219-0.188,1.734h-3.094c-1.469,0-2.203-0.812-2.203-2.438V80.592z M108.867,89.733
			c0.789,1.992,2.027,3.746,3.715,5.262c1.656-1.281,2.98-3.035,3.973-5.262H108.867z"/>
		<path fill="#FF6600" d="M131.531,94.28c0.047,0.812,0.102,1.492,0.164,2.039c-2.5,1.562-4.562,2.922-6.188,4.078l-1.125-1.594
			c0.547-0.469,0.82-1.18,0.82-2.133v-9.281h-3.328v-1.688h5.203v11.391C128.438,96.264,129.922,95.327,131.531,94.28z
			 M124.266,78.085c1.703,1.75,2.938,3.047,3.703,3.891l-1.641,1.383c-0.984-1.297-2.148-2.641-3.492-4.031L124.266,78.085z
			 M129.375,85.842h6.82V77.78h2.016v8.062h6.867v1.688h-6.867v13.219h-2.016V87.53h-6.82V85.842z"/>
		<path fill="#FF6600" d="M146.836,81.6h2.367c0.578-1.422,1.055-2.719,1.43-3.891l1.969,0.562c-0.492,1.195-0.969,2.305-1.43,3.328
			h4.688v18.656h-1.875v-1.828h-5.273v1.992h-1.875V81.6z M153.984,83.358h-5.273v5.695h5.273V83.358z M148.711,96.671h5.273v-5.93
			h-5.273V96.671z M156.211,86.405c1.469-2.328,2.711-5.227,3.727-8.695l1.969,0.492c-0.398,1.18-0.805,2.289-1.219,3.328h7.547
			c-0.188,8.031-0.344,13.086-0.469,15.164c-0.109,2.453-1.398,3.68-3.867,3.68c-1.422,0-2.867-0.047-4.336-0.141
			c-0.094-0.781-0.219-1.477-0.375-2.086h0.07c1.562,0.219,2.992,0.328,4.289,0.328c1.422,0,2.188-0.75,2.297-2.25
			c0.172-2.328,0.297-6.641,0.375-12.938h-6.281c-0.68,1.508-1.383,2.836-2.109,3.984C157.406,86.975,156.867,86.686,156.211,86.405
			z M158.273,87.999l1.43-1.055c1.734,2.047,3.117,3.82,4.148,5.32l-1.734,1.219C161.008,91.671,159.727,89.842,158.273,87.999z"/>
		<path fill="#FF6600" d="M169.828,92.499c1.453-2.375,2.602-5.148,3.445-8.32h-3.234v-1.57h3.375v-4.688h1.711v4.688h3.281v1.57
			h-3.281v3.023l0.703-0.609c0.969,0.969,2.008,2.07,3.117,3.305l-1.266,1.172c-0.969-1.203-1.82-2.203-2.555-3v12.75h-1.711V88.046
			c-0.859,2.703-1.805,4.875-2.836,6.516C170.359,93.889,170.109,93.202,169.828,92.499z M179.648,78.811h11.555v11.836h-1.711
			v-0.516h-4.383c0.484,1.406,1.109,2.672,1.875,3.797c1.594-0.938,3.086-1.914,4.477-2.93l1.148,1.477
			c-1.531,0.953-3.086,1.844-4.664,2.672c1.391,1.578,3.141,2.812,5.25,3.703c-0.516,0.5-1.008,1.047-1.477,1.641
			c-4.125-2.359-6.898-5.812-8.32-10.359h-2.016v7.711c1.062-0.438,2.422-1.07,4.078-1.898c0.016,0.75,0.062,1.367,0.141,1.852
			c-1.484,0.656-2.859,1.359-4.125,2.109c-0.562,0.359-1.016,0.695-1.359,1.008l-1.266-1.617c0.531-0.453,0.797-1.156,0.797-2.109
			V78.811z M189.492,80.428h-8.109v3.258h8.109V80.428z M189.492,88.514v-3.258h-8.109v3.258H189.492z"/>
		<path fill="#FF6600" d="M217.055,94.655c-0.406,0.406-0.938,0.953-1.594,1.641c-3.781-2.914-6.797-6.648-9.047-11.203v9.281h5.367
			v1.641h-5.367v4.805h-1.828v-4.805h-5.555v-1.641h5.555v-9.281c-1.992,3.969-5.047,7.797-9.164,11.484
			c-0.609-0.578-1.125-1.047-1.547-1.406c4.445-3.648,7.77-7.508,9.973-11.578h-9.457v-1.734h10.195v-4.219h1.828v4.219h10.195
			v1.734h-9.527C209.566,88.264,212.891,91.952,217.055,94.655z"/>
	</g>
	<path fill="#FF6600" d="M4.22,3.767h12.192v2.368H6.876v7.648h8.896v2.368H6.876v10.016H4.22V3.767z"/>
	<path fill="#FF6600" d="M33.628,3.767h2.56v14.944c0,1.344-0.176,2.507-0.527,3.488c-0.353,0.981-0.854,1.787-1.504,2.416
		c-0.651,0.629-1.436,1.093-2.353,1.392c-0.917,0.299-1.931,0.448-3.04,0.448c-2.646,0-4.64-0.597-5.983-1.792
		c-1.345-1.195-2.017-3.008-2.017-5.44V3.767h2.656v14.208c0,1.131,0.112,2.085,0.336,2.864c0.224,0.779,0.561,1.408,1.008,1.888
		c0.448,0.48,1.008,0.827,1.681,1.04c0.672,0.213,1.456,0.32,2.352,0.32c1.729,0,2.965-0.475,3.712-1.424s1.12-2.512,1.12-4.688
		V3.767z"/>
	<path fill="#FF6600" d="M45.66,11.511l-1.728-3.232h-0.128l0.319,3.232v14.656h-2.496V3.415h1.408l10.72,14.944l1.664,3.072h0.16
		l-0.352-3.072V3.767h2.496v22.751h-1.408L45.66,11.511z"/>
	<path fill="#FF6600" d="M63.163,3.767c0.405-0.064,0.858-0.112,1.36-0.144c0.501-0.032,1.023-0.053,1.568-0.064
		c0.544-0.011,1.076-0.021,1.6-0.032c0.522-0.01,1.008-0.016,1.456-0.016c1.792,0,3.344,0.277,4.656,0.832
		c1.312,0.555,2.395,1.328,3.248,2.32c0.853,0.992,1.487,2.182,1.903,3.568c0.416,1.387,0.624,2.912,0.624,4.576
		c0,1.515-0.197,2.971-0.592,4.368c-0.395,1.397-1.019,2.635-1.872,3.712s-1.963,1.941-3.328,2.592
		c-1.365,0.651-3.019,0.976-4.96,0.976c-0.341,0-0.784-0.006-1.328-0.016c-0.544-0.012-1.104-0.032-1.68-0.064
		s-1.109-0.059-1.6-0.08c-0.491-0.021-0.844-0.054-1.057-0.096V3.767z M69.211,5.879c-0.277,0-0.581,0-0.911,0
		c-0.331,0-0.656,0.011-0.977,0.032c-0.32,0.021-0.613,0.043-0.88,0.064c-0.267,0.021-0.475,0.043-0.624,0.064v17.92
		c0.106,0.021,0.309,0.038,0.608,0.048c0.298,0.011,0.607,0.021,0.928,0.032s0.629,0.021,0.928,0.032
		c0.299,0.011,0.501,0.016,0.608,0.016c1.493,0,2.746-0.256,3.76-0.768c1.013-0.512,1.824-1.2,2.432-2.064
		c0.608-0.864,1.04-1.856,1.296-2.976c0.257-1.12,0.385-2.277,0.385-3.472c0-1.045-0.118-2.096-0.353-3.152
		c-0.234-1.056-0.64-2.01-1.216-2.864c-0.576-0.853-1.35-1.552-2.32-2.096S70.684,5.879,69.211,5.879z"/>
	<path fill="#FF6600" d="M94.727,19.959h-8.215l-2.229,6.208h-2.656l8.48-22.752h1.216l8.512,22.752H97.02L94.727,19.959z
		 M87.372,17.654h6.559l-2.483-6.816l-0.796-3.392h-0.032l-0.796,3.456L87.372,17.654z"/>
	<path fill="#FF6600" d="M120.026,11.127l0.32-3.36h-0.16l-1.216,3.072l-5.824,10.112h-0.8l-6.176-10.144l-1.152-3.04h-0.16
		l0.448,3.328v15.072h-2.496v-22.4h1.984l7.008,11.456l1.056,2.496h0.064l0.992-2.56l6.688-11.392h2.08v22.4h-2.656V11.127z"/>
	<path fill="#FF6600" d="M128.122,3.767h12.192v2.368h-9.536v7.328h8.736v2.368h-8.736v7.968h9.696v2.368h-12.353V3.767z"/>
	<path fill="#FF6600" d="M149.307,11.511l-1.728-3.232h-0.128l0.319,3.232v14.656h-2.496V3.415h1.408l10.72,14.944l1.664,3.072h0.16
		l-0.352-3.072V3.767h2.496v22.751h-1.408L149.307,11.511z"/>
	<path fill="#FF6600" d="M181.273,6.134h-6.976v20.032h-2.656V6.134h-6.976V3.767h16.607V6.134z"/>
	<path fill="#FF6600" d="M195.205,19.959h-8.215l-2.229,6.208h-2.656l8.48-22.752h1.216l8.512,22.752h-2.815L195.205,19.959z
		 M187.851,17.654h6.559l-2.483-6.816l-0.796-3.392h-0.032l-0.796,3.456L187.851,17.654z"/>
	<path fill="#FF6600" d="M216.537,26.167h-13.248v-22.4h2.656v20.032h10.592V26.167z"/>
	<path fill="#FF6600" d="M229.945,20.471c0-0.896-0.267-1.626-0.8-2.192c-0.534-0.565-1.2-1.066-2-1.504
		c-0.8-0.437-1.67-0.848-2.608-1.232s-1.808-0.848-2.607-1.392c-0.801-0.544-1.468-1.216-2-2.016
		c-0.534-0.8-0.801-1.818-0.801-3.056c0-1.749,0.608-3.136,1.824-4.16s2.944-1.536,5.185-1.536c1.301,0,2.484,0.096,3.552,0.288
		c1.066,0.192,1.898,0.438,2.496,0.736l-0.8,2.368c-0.491-0.242-1.212-0.474-2.16-0.693c-0.95-0.22-2.021-0.331-3.216-0.331
		c-1.408,0-2.465,0.315-3.169,0.944c-0.703,0.63-1.056,1.371-1.056,2.224c0,0.832,0.267,1.525,0.8,2.08
		c0.533,0.555,1.2,1.051,2,1.488c0.801,0.438,1.669,0.87,2.608,1.296c0.938,0.427,1.808,0.923,2.608,1.488
		c0.8,0.565,1.466,1.243,2,2.032c0.532,0.789,0.8,1.771,0.8,2.944c0,0.96-0.171,1.824-0.513,2.592
		c-0.341,0.768-0.843,1.43-1.504,1.984c-0.661,0.555-1.461,0.982-2.399,1.28c-0.939,0.298-2.006,0.448-3.2,0.448
		c-1.6,0-2.923-0.123-3.968-0.368c-1.046-0.245-1.856-0.517-2.433-0.815l0.896-2.368c0.49,0.27,1.216,0.535,2.176,0.794
		c0.96,0.26,2.037,0.39,3.232,0.39c0.704,0,1.364-0.069,1.983-0.208s1.152-0.363,1.601-0.672c0.447-0.309,0.805-0.699,1.071-1.168
		C229.812,21.666,229.945,21.111,229.945,20.471z"/>
	<path fill="#FF6600" d="M259.832,6.134h-6.976v20.032H250.2V6.134h-6.976V3.767h16.607V6.134z"/>
	<path fill="#FF6600" d="M262.2,14.966c0-3.733,0.789-6.597,2.368-8.592c1.578-1.995,3.829-2.992,6.752-2.992
		c1.578,0,2.944,0.278,4.096,0.832c1.152,0.555,2.106,1.339,2.864,2.352c0.757,1.014,1.317,2.229,1.68,3.648
		c0.362,1.419,0.544,3.003,0.544,4.752c0,3.734-0.795,6.598-2.384,8.592c-1.59,1.995-3.855,2.992-6.8,2.992
		c-1.558,0-2.907-0.277-4.048-0.832c-1.142-0.554-2.091-1.338-2.849-2.352c-0.757-1.013-1.317-2.229-1.68-3.648
		C262.381,18.3,262.2,16.716,262.2,14.966z M265.017,14.966c0,1.238,0.122,2.411,0.367,3.52c0.245,1.11,0.624,2.085,1.137,2.928
		c0.512,0.843,1.168,1.515,1.968,2.016c0.8,0.501,1.744,0.752,2.832,0.752c1.984,0,3.541-0.752,4.672-2.256
		c1.131-1.504,1.696-3.824,1.696-6.96c0-1.216-0.123-2.384-0.368-3.504c-0.246-1.12-0.63-2.101-1.152-2.944
		s-1.184-1.515-1.983-2.016c-0.801-0.501-1.755-0.752-2.864-0.752c-1.963,0-3.504,0.752-4.624,2.256
		C265.576,9.511,265.017,11.831,265.017,14.966z"/>
	<path fill="#FF6600" d="M17.084,42.766h2.56v14.944c0,1.344-0.176,2.507-0.527,3.488c-0.353,0.981-0.854,1.787-1.504,2.416
		c-0.651,0.629-1.436,1.093-2.353,1.392s-1.931,0.448-3.04,0.448c-2.646,0-4.64-0.597-5.983-1.792
		c-1.345-1.194-2.017-3.008-2.017-5.44V42.766h2.656v14.208c0,1.132,0.112,2.086,0.336,2.864c0.224,0.779,0.561,1.408,1.008,1.888
		c0.448,0.48,1.008,0.827,1.681,1.04c0.672,0.214,1.456,0.32,2.352,0.32c1.729,0,2.965-0.475,3.712-1.424s1.12-2.512,1.12-4.688
		V42.766z"/>
	<path fill="#FF6600" d="M35.195,59.47c0-0.896-0.267-1.626-0.8-2.191c-0.534-0.565-1.2-1.066-2-1.504s-1.67-0.849-2.608-1.232
		s-1.808-0.848-2.607-1.392c-0.801-0.544-1.468-1.217-2-2.017c-0.534-0.8-0.801-1.818-0.801-3.056c0-1.749,0.608-3.136,1.824-4.16
		s2.944-1.536,5.185-1.536c1.301,0,2.484,0.096,3.552,0.288c1.066,0.192,1.898,0.438,2.496,0.736l-0.8,2.368
		c-0.491-0.242-1.212-0.474-2.16-0.694c-0.95-0.22-2.021-0.33-3.216-0.33c-1.408,0-2.465,0.315-3.169,0.944
		c-0.703,0.629-1.056,1.371-1.056,2.224c0,0.832,0.267,1.525,0.8,2.08s1.2,1.051,2,1.488c0.801,0.438,1.669,0.869,2.608,1.296
		c0.938,0.427,1.808,0.923,2.608,1.487c0.8,0.566,1.466,1.243,2,2.032c0.532,0.79,0.8,1.771,0.8,2.944
		c0,0.96-0.171,1.824-0.513,2.592c-0.341,0.769-0.843,1.43-1.504,1.984s-1.461,0.981-2.399,1.279
		c-0.939,0.299-2.006,0.448-3.2,0.448c-1.6,0-2.923-0.123-3.968-0.368c-1.046-0.244-1.856-0.517-2.433-0.815l0.896-2.368
		c0.49,0.27,1.216,0.535,2.176,0.795s2.037,0.389,3.232,0.389c0.704,0,1.364-0.068,1.983-0.208c0.619-0.138,1.152-0.362,1.601-0.672
		c0.447-0.309,0.805-0.698,1.071-1.168C35.062,60.666,35.195,60.111,35.195,59.47z"/>
	<path fill="#FF6600" d="M42.075,42.766h12.192v2.368h-9.536v7.328h8.736v2.368h-8.736v7.968h9.696v2.368H42.075V42.766z"/>
	<path fill="#FF6600" d="M59.228,42.991c0.811-0.149,1.744-0.267,2.8-0.353c1.057-0.085,2.021-0.128,2.896-0.128
		c0.981,0,1.914,0.107,2.8,0.32c0.885,0.214,1.664,0.565,2.336,1.056c0.672,0.491,1.211,1.131,1.616,1.92
		c0.405,0.79,0.608,1.75,0.608,2.88c0,1.75-0.48,3.169-1.44,4.257s-2.176,1.813-3.647,2.176l1.535,1.184l5.568,8.864h-3.104
		l-6.177-9.664l-3.136-0.479v10.144h-2.656V42.991z M64.988,44.815c-0.278,0-0.566,0-0.864,0c-0.299,0-0.587,0.011-0.864,0.031
		c-0.277,0.021-0.539,0.043-0.784,0.064s-0.442,0.054-0.592,0.096v8.256h2.496c1.472,0,2.688-0.362,3.647-1.088
		c0.961-0.725,1.44-1.855,1.44-3.392c0-1.152-0.395-2.102-1.184-2.849C67.494,45.188,66.396,44.815,64.988,44.815z"/>
	<path fill="#FF6600" d="M86.811,42.766h12.192v2.368h-9.536v7.328h8.736v2.368h-8.736v7.968h9.696v2.368H86.811V42.766z"/>
	<path fill="#FF6600" d="M109.53,53.775l-6.816-11.009h3.2l4.544,7.584l0.8,1.824l0.769-1.824l4.8-7.584h2.944l-7.04,10.784
		l7.359,11.616h-3.104l-5.056-8.032l-0.864-1.92l-0.832,1.92l-5.185,8.032h-2.976L109.53,53.775z"/>
	<path fill="#FF6600" d="M123.738,42.991c0.811-0.192,1.686-0.32,2.624-0.384c0.938-0.064,1.867-0.097,2.784-0.097
		c0.981,0,1.979,0.097,2.992,0.288c1.013,0.192,1.936,0.544,2.768,1.057c0.832,0.512,1.51,1.216,2.032,2.111
		c0.522,0.896,0.784,2.038,0.784,3.424c0,1.366-0.245,2.518-0.736,3.456c-0.491,0.939-1.142,1.702-1.952,2.288
		c-0.811,0.587-1.738,1.008-2.783,1.265c-1.046,0.256-2.123,0.384-3.232,0.384c-0.107,0-0.283,0-0.528,0s-0.501-0.005-0.768-0.017
		c-0.268-0.01-0.528-0.026-0.784-0.048c-0.256-0.021-0.438-0.042-0.544-0.063v8.512h-2.656V42.991z M129.211,44.815
		c-0.556,0-1.089,0.011-1.601,0.031c-0.512,0.021-0.917,0.075-1.216,0.16v9.28c0.106,0.043,0.277,0.069,0.512,0.08
		s0.48,0.021,0.736,0.032s0.501,0.016,0.736,0.016c0.234,0,0.404,0,0.512,0c0.725,0,1.445-0.069,2.16-0.208
		c0.714-0.139,1.359-0.389,1.936-0.752c0.576-0.362,1.04-0.875,1.393-1.536c0.352-0.661,0.527-1.504,0.527-2.528
		c0-0.874-0.165-1.604-0.496-2.191s-0.768-1.057-1.312-1.408s-1.157-0.603-1.84-0.752C130.575,44.889,129.893,44.815,129.211,44.815
		z"/>
	<path fill="#FF6600" d="M141.626,42.766h12.192v2.368h-9.536v7.328h8.736v2.368h-8.736v7.968h9.696v2.368h-12.353V42.766z"/>
	<path fill="#FF6600" d="M158.778,42.991c0.811-0.149,1.744-0.267,2.8-0.353c1.057-0.085,2.021-0.128,2.896-0.128
		c0.981,0,1.914,0.107,2.8,0.32c0.885,0.214,1.664,0.565,2.336,1.056c0.672,0.491,1.211,1.131,1.616,1.92
		c0.405,0.79,0.608,1.75,0.608,2.88c0,1.75-0.48,3.169-1.44,4.257s-2.176,1.813-3.647,2.176l1.535,1.184l5.568,8.864h-3.104
		l-6.177-9.664l-3.136-0.479v10.144h-2.656V42.991z M164.539,44.815c-0.278,0-0.566,0-0.864,0c-0.299,0-0.587,0.011-0.864,0.031
		c-0.277,0.021-0.539,0.043-0.784,0.064s-0.442,0.054-0.592,0.096v8.256h2.496c1.472,0,2.688-0.362,3.647-1.088
		c0.961-0.725,1.44-1.855,1.44-3.392c0-1.152-0.395-2.102-1.184-2.849C167.045,45.188,165.946,44.815,164.539,44.815z"/>
	<path fill="#FF6600" d="M178.426,42.766h2.656v22.4h-2.656V42.766z"/>
	<path fill="#FF6600" d="M187.129,42.766h12.192v2.368h-9.536v7.328h8.736v2.368h-8.736v7.968h9.696v2.368h-12.353V42.766z"/>
	<path fill="#FF6600" d="M208.312,50.51l-1.728-3.231h-0.128l0.319,3.231v14.656h-2.496V42.415h1.408l10.72,14.944l1.664,3.071h0.16
		l-0.352-3.071V42.766h2.496v22.752h-1.408L208.312,50.51z"/>
	<path fill="#FF6600" d="M240.152,64.239c-0.64,0.491-1.45,0.832-2.432,1.023c-0.981,0.192-2.027,0.288-3.136,0.288
		c-1.345,0-2.604-0.229-3.776-0.688c-1.174-0.459-2.197-1.157-3.072-2.097c-0.875-0.938-1.567-2.138-2.08-3.6
		c-0.512-1.461-0.768-3.194-0.768-5.2c0-2.09,0.282-3.866,0.848-5.328c0.565-1.461,1.312-2.655,2.24-3.584
		c0.928-0.928,1.968-1.604,3.12-2.031s2.325-0.641,3.52-0.641c1.28,0,2.325,0.069,3.137,0.208c0.811,0.14,1.504,0.325,2.08,0.561
		l-0.641,2.367c-1.023-0.512-2.485-0.768-4.384-0.768c-0.875,0-1.739,0.16-2.592,0.48c-0.854,0.319-1.616,0.843-2.288,1.567
		c-0.672,0.726-1.211,1.675-1.616,2.849c-0.405,1.173-0.607,2.613-0.607,4.319c0,1.536,0.191,2.88,0.575,4.032
		c0.385,1.152,0.912,2.112,1.584,2.88c0.673,0.769,1.461,1.344,2.368,1.729c0.907,0.384,1.894,0.575,2.96,0.575
		c0.96,0,1.797-0.096,2.513-0.288c0.714-0.191,1.316-0.437,1.808-0.735L240.152,64.239z"/>
	<path fill="#FF6600" d="M244.089,42.766h12.192v2.368h-9.536v7.328h8.736v2.368h-8.736v7.968h9.696v2.368h-12.353V42.766z"/>
	<path fill="#FF6600" d="M269.784,42.766c0.405-0.063,0.858-0.111,1.36-0.144c0.501-0.032,1.023-0.053,1.568-0.064
		c0.544-0.01,1.076-0.021,1.6-0.031c0.522-0.011,1.008-0.017,1.456-0.017c1.792,0,3.344,0.277,4.656,0.832
		c1.312,0.556,2.395,1.328,3.248,2.32c0.853,0.992,1.487,2.182,1.903,3.568s0.624,2.911,0.624,4.575
		c0,1.516-0.197,2.972-0.592,4.368c-0.395,1.397-1.019,2.635-1.872,3.712c-0.854,1.078-1.963,1.941-3.328,2.592
		c-1.365,0.651-3.019,0.977-4.96,0.977c-0.341,0-0.784-0.006-1.328-0.016c-0.544-0.012-1.104-0.032-1.68-0.064
		s-1.109-0.059-1.6-0.08c-0.491-0.021-0.844-0.054-1.057-0.096V42.766z M275.832,44.879c-0.277,0-0.581,0-0.911,0
		c-0.331,0-0.656,0.011-0.977,0.032s-0.613,0.043-0.88,0.063c-0.267,0.021-0.475,0.043-0.624,0.064v17.92
		c0.106,0.021,0.309,0.037,0.608,0.048c0.298,0.011,0.607,0.021,0.928,0.032s0.629,0.021,0.928,0.032s0.501,0.016,0.608,0.016
		c1.493,0,2.746-0.256,3.76-0.768c1.013-0.513,1.824-1.2,2.432-2.064c0.608-0.864,1.04-1.855,1.296-2.976
		c0.257-1.12,0.385-2.277,0.385-3.473c0-1.045-0.118-2.096-0.353-3.151c-0.234-1.057-0.64-2.011-1.216-2.864
		c-0.576-0.853-1.35-1.552-2.32-2.096S277.305,44.879,275.832,44.879z"/>
	<path fill="#FF6600" d="M290.712,42.766h12.192v2.368h-9.536v7.328h8.736v2.368h-8.736v7.968h9.696v2.368h-12.353V42.766z"/>
	<path fill="#FF6600" d="M317.977,59.47c0-0.896-0.267-1.626-0.8-2.191c-0.534-0.565-1.2-1.066-2-1.504s-1.67-0.849-2.608-1.232
		s-1.808-0.848-2.607-1.392c-0.801-0.544-1.468-1.217-2-2.017c-0.534-0.8-0.801-1.818-0.801-3.056c0-1.749,0.608-3.136,1.824-4.16
		s2.944-1.536,5.185-1.536c1.301,0,2.484,0.096,3.552,0.288c1.066,0.192,1.898,0.438,2.496,0.736l-0.8,2.368
		c-0.491-0.242-1.212-0.474-2.16-0.694c-0.95-0.22-2.021-0.33-3.216-0.33c-1.408,0-2.465,0.315-3.169,0.944
		c-0.703,0.629-1.056,1.371-1.056,2.224c0,0.832,0.267,1.525,0.8,2.08s1.2,1.051,2,1.488c0.801,0.438,1.669,0.869,2.608,1.296
		c0.938,0.427,1.808,0.923,2.608,1.487c0.8,0.566,1.466,1.243,2,2.032c0.532,0.79,0.8,1.771,0.8,2.944
		c0,0.96-0.171,1.824-0.513,2.592c-0.341,0.769-0.843,1.43-1.504,1.984s-1.461,0.981-2.399,1.279
		c-0.939,0.299-2.006,0.448-3.2,0.448c-1.6,0-2.923-0.123-3.968-0.368c-1.046-0.244-1.856-0.517-2.433-0.815l0.896-2.368
		c0.49,0.27,1.216,0.535,2.176,0.795s2.037,0.389,3.232,0.389c0.704,0,1.364-0.068,1.983-0.208c0.619-0.138,1.152-0.362,1.601-0.672
		c0.447-0.309,0.805-0.698,1.071-1.168C317.843,60.666,317.977,60.111,317.977,59.47z"/>
	<path fill="#FF6600" d="M325.464,42.766h2.656v22.4h-2.656V42.766z"/>
	<path fill="#FF6600" d="M341.72,53.999h7.52v9.856c-0.342,0.256-0.752,0.49-1.232,0.703c-0.479,0.214-0.991,0.396-1.535,0.544
		c-0.544,0.149-1.11,0.262-1.696,0.337c-0.587,0.074-1.157,0.111-1.712,0.111c-1.43,0-2.742-0.229-3.937-0.688
		c-1.194-0.459-2.229-1.163-3.104-2.112c-0.875-0.949-1.558-2.154-2.048-3.616c-0.491-1.461-0.736-3.184-0.736-5.168
		c0-2.068,0.299-3.84,0.896-5.312c0.597-1.473,1.376-2.672,2.336-3.601c0.96-0.928,2.036-1.604,3.231-2.031
		c1.194-0.427,2.389-0.641,3.584-0.641c1.28,0,2.336,0.069,3.168,0.208c0.832,0.14,1.536,0.325,2.112,0.561l-0.672,2.367
		c-1.024-0.512-2.485-0.768-4.384-0.768c-0.896,0-1.787,0.155-2.673,0.464c-0.885,0.31-1.68,0.827-2.384,1.552
		c-0.704,0.726-1.28,1.676-1.728,2.849c-0.448,1.173-0.672,2.624-0.672,4.352c0,1.579,0.18,2.944,0.542,4.097
		c0.361,1.151,0.866,2.106,1.516,2.863c0.648,0.758,1.43,1.323,2.345,1.696s1.914,0.56,2.999,0.56c1.361,0,2.521-0.267,3.479-0.8
		v-6.24l-5.216-0.64V53.999z"/>
	<path fill="#FF6600" d="M357.783,50.51l-1.728-3.231h-0.128l0.319,3.231v14.656h-2.496V42.415h1.408l10.72,14.944l1.664,3.071h0.16
		l-0.352-3.071V42.766h2.496v22.752h-1.408L357.783,50.51z"/>
</g>
</svg>
