<?xml version="1.0" encoding="utf-8"?>
<!-- Generator: Adobe Illustrator 17.0.2, SVG Export Plug-In . SVG Version: 6.00 Build 0)  -->
<!DOCTYPE svg PUBLIC "-//W3C//DTD SVG 1.1//EN" "http://www.w3.org/Graphics/SVG/1.1/DTD/svg11.dtd">
<svg version="1.1" id="图层_1" xmlns="http://www.w3.org/2000/svg" xmlns:xlink="http://www.w3.org/1999/xlink" x="0px" y="0px"
	 width="486.25px" height="67.083px" viewBox="0 0 486.25 67.083" enable-background="new 0 0 486.25 67.083" xml:space="preserve">
<g>
	<g>
		<path fill="#FF6600" d="M1.888,4.686h10.317V6.69h-8.07v6.472h7.528v2.004H4.136v8.476H1.888V4.686z"/>
		<path fill="#FF6600" d="M17.621,10.102v7.718c0,0.704,0.041,1.323,0.122,1.855c0.081,0.532,0.221,0.975,0.42,1.327
			c0.198,0.352,0.469,0.619,0.812,0.799c0.343,0.18,0.776,0.271,1.3,0.271c0.487,0,0.921-0.076,1.301-0.23
			c0.378-0.153,0.718-0.366,1.015-0.636c0.299-0.271,0.559-0.582,0.786-0.934c0.226-0.352,0.41-0.726,0.554-1.124v-9.045h2.167
			v9.695c0,0.65,0.022,1.323,0.068,2.017c0.045,0.696,0.122,1.305,0.229,1.828h-1.489l-0.542-2.139h-0.135
			c-0.416,0.704-0.975,1.291-1.679,1.76c-0.704,0.47-1.598,0.704-2.681,0.704c-0.723,0-1.358-0.085-1.909-0.257
			s-1.011-0.474-1.381-0.907c-0.371-0.433-0.65-1.015-0.839-1.747c-0.19-0.731-0.284-1.656-0.284-2.776v-8.178H17.621z"/>
		<path fill="#FF6600" d="M38.959,23.642v-7.718c0-1.408-0.203-2.468-0.61-3.182c-0.405-0.713-1.15-1.07-2.234-1.07
			c-0.957,0-1.747,0.257-2.369,0.772c-0.623,0.515-1.061,1.16-1.313,1.936v9.261h-2.167v-13.54h1.516l0.406,1.652h0.108
			c0.433-0.578,1.015-1.052,1.746-1.422c0.731-0.37,1.603-0.555,2.613-0.555c0.74,0,1.39,0.085,1.951,0.257
			c0.559,0.172,1.024,0.474,1.394,0.907c0.371,0.433,0.651,1.015,0.839,1.747c0.19,0.731,0.284,1.657,0.284,2.776v8.178
			C41.123,23.642,38.959,23.642,38.959,23.642z"/>
		<path fill="#FF6600" d="M55.478,18.984c0,0.921,0.009,1.756,0.027,2.505c0.018,0.749,0.099,1.485,0.244,2.207h-1.463l-0.542-1.923
			h-0.108c-0.361,0.632-0.885,1.156-1.571,1.571c-0.686,0.416-1.489,0.623-2.41,0.623c-1.806,0-3.146-0.569-4.021-1.706
			c-0.876-1.137-1.313-2.915-1.313-5.335c0-2.31,0.546-4.066,1.638-5.267c1.092-1.2,2.595-1.801,4.509-1.801
			c0.668,0,1.196,0.036,1.584,0.108c0.388,0.072,0.807,0.19,1.259,0.352V4.686h2.166L55.478,18.984L55.478,18.984z M50.008,22.071
			c0.921,0,1.652-0.239,2.193-0.718s0.911-1.205,1.11-2.18v-6.716c-0.326-0.253-0.696-0.433-1.11-0.542
			c-0.416-0.108-0.966-0.162-1.652-0.162c-1.246,0-2.221,0.41-2.925,1.232c-0.704,0.822-1.056,2.135-1.056,3.94
			c0,0.74,0.058,1.427,0.176,2.058c0.118,0.632,0.311,1.174,0.582,1.625c0.271,0.452,0.627,0.808,1.07,1.07
			C48.839,21.94,49.376,22.071,50.008,22.071z"/>
		<path fill="#FF6600" d="M59.433,11.104c0.686-0.416,1.485-0.722,2.397-0.921c0.911-0.199,1.863-0.298,2.857-0.298
			c0.938,0,1.692,0.126,2.261,0.379c0.569,0.253,1.003,0.582,1.3,0.988c0.297,0.406,0.497,0.853,0.596,1.34
			c0.099,0.487,0.149,0.975,0.149,1.462c0,1.083-0.027,2.139-0.081,3.168c-0.054,1.029-0.082,2.004-0.082,2.925
			c0,0.669,0.027,1.3,0.082,1.896c0.053,0.596,0.153,1.147,0.298,1.652h-1.598L67.042,21.8h-0.135
			c-0.162,0.253-0.366,0.501-0.609,0.745s-0.538,0.46-0.88,0.65c-0.344,0.19-0.74,0.348-1.192,0.474
			c-0.451,0.126-0.966,0.19-1.544,0.19s-1.115-0.091-1.611-0.271c-0.497-0.18-0.925-0.438-1.286-0.772
			c-0.361-0.334-0.646-0.735-0.853-1.205c-0.208-0.47-0.311-1.002-0.311-1.598c0-0.794,0.162-1.458,0.487-1.99
			c0.325-0.532,0.78-0.956,1.368-1.273c0.586-0.316,1.29-0.542,2.111-0.677c0.822-0.135,1.729-0.203,2.722-0.203
			c0.252,0,0.501,0,0.745,0s0.492,0.018,0.745,0.054c0.053-0.542,0.081-1.029,0.081-1.462c0-0.993-0.198-1.687-0.596-2.085
			c-0.397-0.397-1.119-0.596-2.166-0.596c-0.307,0-0.636,0.024-0.988,0.07c-0.352,0.047-0.713,0.112-1.083,0.195
			c-0.371,0.084-0.723,0.186-1.056,0.306c-0.334,0.12-0.627,0.255-0.88,0.404L59.433,11.104z M63.278,21.963
			c0.505,0,0.957-0.068,1.354-0.203c0.398-0.135,0.74-0.306,1.03-0.515c0.289-0.207,0.528-0.438,0.718-0.691
			c0.19-0.252,0.329-0.496,0.42-0.731v-2.248c-0.253-0.018-0.511-0.031-0.772-0.041c-0.262-0.009-0.519-0.014-0.772-0.014
			c-0.559,0-1.106,0.032-1.638,0.095c-0.533,0.063-1.003,0.18-1.408,0.352c-0.406,0.172-0.731,0.406-0.975,0.704
			c-0.244,0.298-0.366,0.673-0.366,1.124c0,0.632,0.226,1.151,0.677,1.557C61.997,21.76,62.574,21.963,63.278,21.963z"/>
		<path fill="#FF6600" d="M81.014,23.642v-7.664c0-0.722-0.031-1.349-0.095-1.882c-0.063-0.532-0.185-0.979-0.366-1.34
			c-0.181-0.361-0.438-0.632-0.772-0.812c-0.334-0.18-0.772-0.271-1.313-0.271c-0.83,0-1.522,0.253-2.072,0.758
			c-0.55,0.506-0.934,1.137-1.15,1.896v9.315H73.08v-13.54h1.516l0.406,1.652h0.108c0.487-0.578,1.051-1.052,1.692-1.422
			c0.641-0.37,1.476-0.555,2.505-0.555c0.866,0,1.574,0.167,2.126,0.501c0.55,0.334,0.979,0.916,1.287,1.747
			c0.415-0.704,0.988-1.254,1.719-1.652c0.731-0.397,1.557-0.596,2.479-0.596c0.758,0,1.398,0.085,1.922,0.257
			c0.523,0.172,0.957,0.474,1.3,0.907c0.343,0.433,0.591,1.02,0.745,1.76c0.153,0.74,0.23,1.679,0.23,2.816v8.124h-2.167v-8.151
			c0-0.65-0.031-1.214-0.095-1.692c-0.063-0.478-0.19-0.876-0.378-1.192c-0.19-0.316-0.452-0.55-0.786-0.704
			c-0.334-0.153-0.771-0.23-1.313-0.23c-0.902,0-1.606,0.253-2.112,0.758c-0.506,0.506-0.866,1.228-1.082,2.166v9.045
			C83.181,23.642,81.014,23.642,81.014,23.642z"/>
		<path fill="#FF6600" d="M104.953,22.559c-0.542,0.433-1.223,0.776-2.045,1.029c-0.822,0.253-1.692,0.379-2.613,0.379
			c-1.029,0-1.922-0.167-2.681-0.501c-0.758-0.334-1.381-0.812-1.869-1.435c-0.487-0.623-0.849-1.368-1.082-2.234
			c-0.235-0.867-0.352-1.841-0.352-2.925c0-2.31,0.514-4.071,1.543-5.281c1.03-1.209,2.501-1.814,4.415-1.814
			c0.614,0,1.227,0.068,1.841,0.203c0.614,0.135,1.164,0.393,1.652,0.772c0.487,0.379,0.884,0.916,1.191,1.611
			c0.307,0.696,0.461,1.611,0.461,2.749c0,0.596-0.054,1.255-0.162,1.977h-8.693c0,0.795,0.082,1.499,0.244,2.112
			c0.162,0.614,0.416,1.133,0.758,1.557c0.343,0.424,0.79,0.75,1.34,0.975c0.55,0.226,1.222,0.338,2.017,0.338
			c0.614,0,1.227-0.108,1.841-0.325c0.614-0.217,1.075-0.469,1.381-0.758L104.953,22.559z M100.295,11.673
			c-1.065,0-1.918,0.28-2.558,0.839c-0.641,0.559-1.025,1.516-1.151,2.87h6.717c0-1.372-0.262-2.333-0.786-2.884
			C101.992,11.948,101.252,11.673,100.295,11.673z"/>
		<path fill="#FF6600" d="M117.518,23.642v-7.718c0-1.408-0.203-2.468-0.61-3.182c-0.405-0.713-1.15-1.07-2.234-1.07
			c-0.957,0-1.747,0.257-2.369,0.772c-0.623,0.515-1.061,1.16-1.313,1.936v9.261h-2.167v-13.54h1.516l0.406,1.652h0.108
			c0.433-0.578,1.015-1.052,1.746-1.422c0.731-0.37,1.603-0.555,2.613-0.555c0.74,0,1.39,0.085,1.951,0.257
			c0.559,0.172,1.024,0.474,1.394,0.907c0.371,0.433,0.651,1.015,0.839,1.747c0.19,0.731,0.284,1.657,0.284,2.776v8.178
			C119.682,23.642,117.518,23.642,117.518,23.642z"/>
		<path fill="#FF6600" d="M121.85,10.102h2.112V7.421l2.167-0.623v3.304h3.683v1.896h-3.683v7.501c0,0.938,0.118,1.603,0.352,1.99
			c0.234,0.388,0.631,0.582,1.192,0.582c0.469,0,0.866-0.05,1.191-0.149c0.326-0.099,0.686-0.23,1.083-0.393l0.487,1.652
			c-0.487,0.234-1.021,0.424-1.598,0.569c-0.579,0.144-1.201,0.217-1.868,0.217c-1.102,0-1.879-0.311-2.329-0.934
			c-0.452-0.623-0.678-1.665-0.678-3.128v-7.907h-2.112L121.85,10.102L121.85,10.102z"/>
		<path fill="#FF6600" d="M132.601,11.104c0.686-0.416,1.485-0.722,2.397-0.921c0.911-0.199,1.863-0.298,2.857-0.298
			c0.938,0,1.692,0.126,2.261,0.379c0.569,0.253,1.003,0.582,1.3,0.988c0.297,0.406,0.497,0.853,0.596,1.34
			c0.099,0.487,0.149,0.975,0.149,1.462c0,1.083-0.027,2.139-0.081,3.168c-0.054,1.029-0.082,2.004-0.082,2.925
			c0,0.669,0.027,1.3,0.082,1.896c0.053,0.596,0.153,1.147,0.298,1.652h-1.598l-0.569-1.896h-0.135
			c-0.162,0.253-0.366,0.501-0.609,0.745s-0.538,0.46-0.88,0.65c-0.344,0.19-0.74,0.348-1.192,0.474
			c-0.451,0.126-0.966,0.19-1.544,0.19c-0.577,0-1.115-0.091-1.611-0.271c-0.497-0.18-0.925-0.438-1.286-0.772
			c-0.361-0.334-0.646-0.735-0.853-1.205c-0.208-0.47-0.311-1.002-0.311-1.598c0-0.794,0.162-1.458,0.487-1.99
			c0.325-0.532,0.78-0.956,1.368-1.273c0.586-0.316,1.29-0.542,2.111-0.677s1.729-0.203,2.722-0.203c0.252,0,0.501,0,0.745,0
			s0.492,0.018,0.745,0.054c0.053-0.542,0.081-1.029,0.081-1.462c0-0.993-0.198-1.687-0.596-2.085
			c-0.397-0.397-1.119-0.596-2.166-0.596c-0.307,0-0.636,0.024-0.988,0.07c-0.352,0.047-0.713,0.112-1.083,0.195
			c-0.371,0.084-0.723,0.186-1.056,0.306c-0.334,0.12-0.627,0.255-0.88,0.404L132.601,11.104z M136.447,21.963
			c0.505,0,0.957-0.068,1.354-0.203c0.398-0.135,0.74-0.306,1.03-0.515c0.289-0.207,0.528-0.438,0.718-0.691
			c0.19-0.252,0.329-0.496,0.42-0.731v-2.248c-0.253-0.018-0.511-0.031-0.772-0.041c-0.262-0.009-0.519-0.014-0.772-0.014
			c-0.559,0-1.106,0.032-1.638,0.095c-0.533,0.063-1.003,0.18-1.408,0.352c-0.406,0.172-0.731,0.406-0.975,0.704
			c-0.244,0.298-0.366,0.673-0.366,1.124c0,0.632,0.226,1.151,0.677,1.557C135.165,21.76,135.742,21.963,136.447,21.963z"/>
		<path fill="#FF6600" d="M148.658,20.311c0,0.632,0.109,1.083,0.326,1.354c0.217,0.271,0.523,0.406,0.921,0.406
			c0.234,0,0.487-0.018,0.758-0.054c0.271-0.036,0.578-0.118,0.921-0.244l0.244,1.706c-0.289,0.145-0.69,0.261-1.205,0.352
			c-0.514,0.09-0.961,0.135-1.34,0.135c-0.812,0-1.48-0.23-2.004-0.691c-0.524-0.46-0.785-1.241-0.785-2.342V4.686h2.166
			L148.658,20.311L148.658,20.311z"/>
		<path fill="#FF6600" d="M160.113,19.959c0-0.542-0.162-0.966-0.487-1.273c-0.325-0.306-0.726-0.564-1.205-0.772
			c-0.478-0.207-1.002-0.406-1.57-0.596c-0.57-0.19-1.092-0.433-1.571-0.731s-0.88-0.681-1.205-1.151
			c-0.325-0.47-0.487-1.101-0.487-1.896c0-1.3,0.37-2.252,1.11-2.857c0.74-0.604,1.77-0.907,3.087-0.907
			c0.975,0,1.792,0.085,2.451,0.257c0.658,0.172,1.231,0.375,1.719,0.609l-0.514,1.787c-0.415-0.198-0.916-0.374-1.503-0.528
			c-0.586-0.153-1.214-0.23-1.882-0.23c-0.795,0-1.377,0.135-1.747,0.406c-0.37,0.271-0.555,0.74-0.555,1.408
			c0,0.47,0.162,0.835,0.487,1.097c0.325,0.262,0.726,0.497,1.205,0.704c0.478,0.208,1.003,0.41,1.571,0.609
			c0.568,0.199,1.092,0.46,1.571,0.785c0.477,0.325,0.879,0.736,1.205,1.232c0.325,0.497,0.487,1.151,0.487,1.963
			c0,0.578-0.095,1.12-0.285,1.625c-0.19,0.505-0.482,0.938-0.879,1.3c-0.398,0.361-0.89,0.646-1.476,0.853
			c-0.586,0.207-1.278,0.311-2.072,0.311c-1.029,0-1.905-0.099-2.627-0.298c-0.723-0.199-1.326-0.433-1.814-0.704l0.65-1.841
			c0.416,0.234,0.957,0.452,1.625,0.65c0.668,0.199,1.346,0.298,2.031,0.298c0.776,0,1.417-0.153,1.923-0.46
			C159.86,21.304,160.113,20.754,160.113,19.959z"/>
		<path fill="#FF6600" d="M185.243,6.689h-5.903v16.952h-2.248V6.689h-5.903V4.686h14.054L185.243,6.689
			C185.242,6.689,185.243,6.689,185.243,6.689z"/>
		<path fill="#FF6600" d="M187.057,16.872c0-2.292,0.51-4.048,1.53-5.267c1.02-1.219,2.486-1.828,4.4-1.828
			c1.01,0,1.891,0.167,2.64,0.501c0.749,0.334,1.367,0.812,1.854,1.435c0.487,0.623,0.849,1.373,1.083,2.248
			c0.234,0.876,0.352,1.847,0.352,2.911c0,2.292-0.51,4.048-1.53,5.267c-1.021,1.219-2.487,1.828-4.4,1.828
			c-1.011,0-1.891-0.167-2.64-0.501c-0.75-0.334-1.368-0.812-1.855-1.435c-0.487-0.623-0.849-1.372-1.082-2.248
			C187.174,18.907,187.057,17.936,187.057,16.872z M189.304,16.872c0,0.686,0.068,1.345,0.203,1.977s0.347,1.182,0.636,1.652
			c0.289,0.47,0.668,0.849,1.137,1.137c0.47,0.289,1.038,0.433,1.707,0.433c2.454,0.018,3.683-1.714,3.683-5.199
			c0-0.704-0.068-1.372-0.202-2.004c-0.135-0.631-0.348-1.182-0.637-1.652c-0.289-0.47-0.668-0.844-1.137-1.124
			c-0.47-0.28-1.038-0.42-1.706-0.42C190.532,11.655,189.304,13.388,189.304,16.872z"/>
	</g>
	<g>
		<path fill="#FF6600" d="M221.948,4.903h2.166V17.55c0,1.137-0.149,2.122-0.447,2.952c-0.298,0.83-0.723,1.512-1.273,2.045
			c-0.55,0.532-1.214,0.925-1.99,1.178c-0.776,0.253-1.634,0.379-2.573,0.379c-2.239,0-3.927-0.505-5.064-1.516
			c-1.137-1.01-1.706-2.545-1.706-4.604V4.903h2.248v12.023c0,0.958,0.095,1.765,0.284,2.424c0.19,0.659,0.474,1.192,0.853,1.598
			c0.379,0.406,0.853,0.7,1.422,0.88c0.569,0.181,1.232,0.271,1.99,0.271c1.462,0,2.509-0.402,3.141-1.205
			c0.632-0.803,0.948-2.126,0.948-3.967L221.948,4.903L221.948,4.903z"/>
		<path fill="#FF6600" d="M234.458,20.176c0-0.542-0.162-0.966-0.487-1.274c-0.324-0.306-0.725-0.564-1.205-0.771
			c-0.477-0.207-1.002-0.406-1.57-0.596c-0.569-0.19-1.092-0.434-1.571-0.731c-0.478-0.299-0.88-0.681-1.205-1.151
			c-0.325-0.47-0.487-1.101-0.487-1.895c0-1.3,0.37-2.252,1.11-2.857c0.74-0.605,1.769-0.907,3.086-0.907
			c0.975,0,1.792,0.086,2.451,0.257c0.659,0.172,1.231,0.375,1.719,0.609l-0.514,1.787c-0.415-0.198-0.916-0.374-1.502-0.528
			c-0.586-0.153-1.215-0.229-1.883-0.229c-0.795,0-1.377,0.135-1.747,0.405c-0.37,0.271-0.554,0.74-0.554,1.408
			c0,0.47,0.162,0.835,0.487,1.097c0.325,0.262,0.726,0.497,1.204,0.704c0.479,0.207,1.004,0.41,1.571,0.609
			c0.569,0.199,1.091,0.46,1.57,0.786c0.477,0.325,0.879,0.735,1.205,1.232c0.326,0.497,0.487,1.15,0.487,1.962
			c0,0.579-0.094,1.12-0.284,1.625c-0.19,0.506-0.482,0.938-0.879,1.3c-0.399,0.361-0.891,0.647-1.476,0.853
			c-0.586,0.207-1.278,0.311-2.072,0.311c-1.028,0-1.904-0.099-2.627-0.298c-0.723-0.198-1.327-0.434-1.814-0.704l0.65-1.841
			c0.415,0.234,0.956,0.451,1.625,0.65c0.668,0.199,1.345,0.298,2.03,0.298c0.777,0,1.418-0.153,1.924-0.46
			C234.205,21.521,234.458,20.971,234.458,20.176z"/>
		<path fill="#FF6600" d="M249.785,22.775c-0.542,0.434-1.223,0.777-2.045,1.029c-0.822,0.253-1.692,0.379-2.613,0.379
			c-1.029,0-1.922-0.167-2.681-0.501c-0.758-0.334-1.381-0.812-1.869-1.435c-0.487-0.622-0.849-1.367-1.082-2.234
			c-0.235-0.867-0.352-1.841-0.352-2.925c0-2.31,0.514-4.071,1.543-5.281c1.03-1.209,2.501-1.814,4.415-1.814
			c0.614,0,1.227,0.068,1.841,0.203c0.614,0.135,1.164,0.393,1.652,0.771c0.487,0.379,0.884,0.916,1.191,1.611
			c0.307,0.695,0.461,1.611,0.461,2.749c0,0.596-0.054,1.255-0.162,1.977h-8.693c0,0.795,0.082,1.499,0.244,2.112
			c0.162,0.614,0.416,1.133,0.758,1.557c0.343,0.425,0.79,0.75,1.34,0.975c0.55,0.226,1.222,0.338,2.017,0.338
			c0.614,0,1.227-0.108,1.841-0.325c0.614-0.217,1.075-0.47,1.381-0.758L249.785,22.775z M245.128,11.89
			c-1.065,0-1.918,0.279-2.558,0.839c-0.641,0.56-1.025,1.516-1.151,2.871h6.717c0-1.372-0.262-2.333-0.786-2.884
			C246.824,12.165,246.084,11.89,245.128,11.89z"/>
		<path fill="#FF6600" d="M260.048,12.405c-0.542-0.18-1.056-0.271-1.543-0.271c-0.777,0-1.391,0.212-1.842,0.637
			c-0.451,0.424-0.73,0.961-0.839,1.61v9.478h-2.167v-13.54h1.516l0.406,1.652h0.108c0.342-0.614,0.754-1.087,1.232-1.422
			c0.477-0.334,1.087-0.502,1.828-0.502c0.523,0,1.11,0.091,1.759,0.271L260.048,12.405z"/>
		<path fill="#FF6600" d="M270.311,4.903h10.317v2.004h-8.069v6.201h7.393v2.004h-7.393v6.743h8.205v2.004h-10.454V4.903z"/>
		<path fill="#FF6600" d="M288.157,16.926l-4.549-6.607h2.654l2.573,3.737l0.758,1.544l0.786-1.544l2.627-3.737h2.437l-4.576,6.499
			l4.847,7.041h-2.573l-2.87-4.116l-0.812-1.625l-0.839,1.625l-2.925,4.116h-2.41L288.157,16.926z"/>
		<path fill="#FF6600" d="M298.555,10.319h1.489l0.406,1.625h0.108c0.415-0.631,0.952-1.115,1.611-1.449
			c0.658-0.334,1.412-0.501,2.261-0.501c1.805,0,3.151,0.532,4.035,1.598s1.327,2.807,1.327,5.226c0,1.138-0.149,2.163-0.447,3.074
			c-0.298,0.912-0.718,1.684-1.259,2.315c-0.542,0.632-1.196,1.12-1.962,1.463c-0.768,0.342-1.621,0.514-2.559,0.514
			c-0.668,0-1.196-0.041-1.584-0.122c-0.388-0.082-0.808-0.222-1.258-0.42v5.633h-2.167L298.555,10.319L298.555,10.319z
			 M304.025,11.89c-0.921,0-1.647,0.239-2.18,0.718c-0.532,0.478-0.906,1.205-1.123,2.18v6.716c0.325,0.253,0.694,0.447,1.11,0.582
			c0.415,0.135,0.966,0.202,1.652,0.202c1.246,0,2.234-0.465,2.965-1.394s1.097-2.298,1.097-4.103c0-0.74-0.063-1.413-0.19-2.018
			c-0.126-0.604-0.33-1.119-0.61-1.543c-0.279-0.424-0.641-0.754-1.082-0.988C305.22,12.008,304.675,11.89,304.025,11.89z"/>
		<path fill="#FF6600" d="M323.09,22.775c-0.542,0.434-1.223,0.777-2.044,1.029c-0.822,0.253-1.693,0.379-2.613,0.379
			c-1.029,0-1.922-0.167-2.681-0.501c-0.758-0.334-1.381-0.812-1.869-1.435c-0.487-0.622-0.849-1.367-1.082-2.234
			c-0.235-0.867-0.352-1.841-0.352-2.925c0-2.31,0.514-4.071,1.543-5.281c1.03-1.209,2.501-1.814,4.415-1.814
			c0.614,0,1.227,0.068,1.841,0.203c0.614,0.135,1.164,0.393,1.652,0.771c0.487,0.379,0.884,0.916,1.191,1.611
			c0.307,0.695,0.461,1.611,0.461,2.749c0,0.596-0.054,1.255-0.162,1.977h-8.693c0,0.795,0.082,1.499,0.244,2.112
			c0.162,0.614,0.415,1.133,0.758,1.557c0.343,0.425,0.79,0.75,1.34,0.975c0.55,0.226,1.222,0.338,2.017,0.338
			c0.614,0,1.227-0.108,1.841-0.325c0.614-0.217,1.075-0.47,1.381-0.758L323.09,22.775z M318.432,11.89
			c-1.065,0-1.918,0.279-2.558,0.839c-0.641,0.56-1.025,1.516-1.151,2.871h6.717c0-1.372-0.262-2.333-0.786-2.884
			C320.128,12.165,319.388,11.89,318.432,11.89z"/>
		<path fill="#FF6600" d="M333.352,12.405c-0.542-0.18-1.056-0.271-1.543-0.271c-0.777,0-1.391,0.212-1.842,0.637
			c-0.451,0.424-0.73,0.961-0.839,1.61v9.478h-2.167v-13.54h1.516l0.406,1.652h0.108c0.342-0.614,0.754-1.087,1.232-1.422
			c0.477-0.334,1.087-0.502,1.828-0.502c0.523,0,1.11,0.091,1.759,0.271L333.352,12.405z"/>
		<path fill="#FF6600" d="M336.168,6.202c0-0.415,0.14-0.772,0.42-1.07c0.279-0.299,0.636-0.447,1.07-0.447
			c0.434,0,0.803,0.149,1.11,0.447c0.306,0.298,0.46,0.654,0.46,1.07c0,0.416-0.154,0.758-0.46,1.029
			c-0.307,0.271-0.677,0.406-1.11,0.406s-0.79-0.135-1.07-0.406C336.308,6.962,336.168,6.619,336.168,6.202z M336.629,10.319h2.167
			v13.54h-2.167V10.319z"/>
		<path fill="#FF6600" d="M353.309,22.775c-0.542,0.434-1.223,0.777-2.044,1.029c-0.822,0.253-1.693,0.379-2.613,0.379
			c-1.029,0-1.922-0.167-2.681-0.501c-0.758-0.334-1.381-0.812-1.869-1.435c-0.487-0.622-0.849-1.367-1.082-2.234
			c-0.235-0.867-0.352-1.841-0.352-2.925c0-2.31,0.514-4.071,1.543-5.281c1.03-1.209,2.501-1.814,4.415-1.814
			c0.614,0,1.227,0.068,1.841,0.203c0.614,0.135,1.164,0.393,1.652,0.771c0.487,0.379,0.884,0.916,1.191,1.611
			c0.307,0.695,0.461,1.611,0.461,2.749c0,0.596-0.054,1.255-0.162,1.977h-8.693c0,0.795,0.082,1.499,0.244,2.112
			c0.162,0.614,0.415,1.133,0.758,1.557c0.343,0.425,0.79,0.75,1.34,0.975c0.55,0.226,1.222,0.338,2.017,0.338
			c0.614,0,1.227-0.108,1.841-0.325c0.614-0.217,1.075-0.47,1.381-0.758L353.309,22.775z M348.652,11.89
			c-1.065,0-1.918,0.279-2.558,0.839c-0.641,0.56-1.025,1.516-1.151,2.871h6.717c0-1.372-0.262-2.333-0.786-2.884
			C350.348,12.165,349.608,11.89,348.652,11.89z"/>
		<path fill="#FF6600" d="M365.875,23.859v-7.718c0-1.408-0.203-2.468-0.61-3.182c-0.405-0.713-1.15-1.07-2.234-1.07
			c-0.957,0-1.747,0.257-2.369,0.771c-0.623,0.515-1.061,1.16-1.313,1.936v9.261h-2.167v-13.54h1.516l0.406,1.652h0.108
			c0.433-0.578,1.016-1.051,1.746-1.422c0.731-0.371,1.603-0.555,2.613-0.555c0.74,0,1.39,0.086,1.951,0.257
			c0.559,0.172,1.024,0.475,1.394,0.907c0.37,0.432,0.651,1.015,0.839,1.746c0.19,0.731,0.284,1.657,0.284,2.776v8.178h-2.164
			V23.859L365.875,23.859z"/>
		<path fill="#FF6600" d="M381.229,22.966c-0.542,0.397-1.182,0.7-1.923,0.906c-0.74,0.207-1.516,0.311-2.329,0.311
			c-1.047,0-1.931-0.167-2.654-0.501s-1.313-0.812-1.774-1.435c-0.46-0.622-0.795-1.372-1.003-2.247
			c-0.207-0.876-0.311-1.847-0.311-2.911c0-2.292,0.505-4.048,1.516-5.267c1.01-1.219,2.464-1.828,4.359-1.828
			c0.867,0,1.603,0.068,2.207,0.203c0.605,0.135,1.151,0.329,1.638,0.582l-0.622,1.869c-0.415-0.234-0.876-0.42-1.381-0.555
			c-0.506-0.135-1.048-0.202-1.626-0.202c-2.563,0-3.845,1.733-3.845,5.199c0,0.686,0.068,1.34,0.203,1.963
			c0.135,0.622,0.361,1.174,0.677,1.652c0.316,0.478,0.731,0.862,1.247,1.15c0.514,0.289,1.15,0.433,1.909,0.433
			c0.65,0,1.232-0.098,1.746-0.298c0.515-0.198,0.934-0.424,1.259-0.677L381.229,22.966z"/>
		<path fill="#FF6600" d="M394.091,22.775c-0.542,0.434-1.223,0.777-2.044,1.029c-0.822,0.253-1.693,0.379-2.613,0.379
			c-1.029,0-1.922-0.167-2.681-0.501c-0.758-0.334-1.381-0.812-1.868-1.435c-0.487-0.622-0.849-1.367-1.082-2.234
			c-0.235-0.867-0.352-1.841-0.352-2.925c0-2.31,0.514-4.071,1.543-5.281c1.03-1.209,2.501-1.814,4.415-1.814
			c0.614,0,1.227,0.068,1.841,0.203c0.614,0.135,1.164,0.393,1.652,0.771c0.487,0.379,0.884,0.916,1.191,1.611
			c0.307,0.695,0.461,1.611,0.461,2.749c0,0.596-0.054,1.255-0.162,1.977h-8.693c0,0.795,0.082,1.499,0.244,2.112
			c0.162,0.614,0.415,1.133,0.758,1.557c0.343,0.425,0.79,0.75,1.34,0.975c0.55,0.226,1.222,0.338,2.017,0.338
			c0.614,0,1.227-0.108,1.841-0.325c0.614-0.217,1.075-0.47,1.381-0.758L394.091,22.775z M389.433,11.89
			c-1.065,0-1.918,0.279-2.558,0.839c-0.641,0.56-1.025,1.516-1.151,2.871h6.717c0-1.372-0.262-2.333-0.786-2.884
			C391.13,12.165,390.391,11.89,389.433,11.89z"/>
		<path fill="#FF6600" d="M405.411,4.903c0.343-0.053,0.726-0.094,1.151-0.122c0.424-0.027,0.866-0.045,1.327-0.054
			c0.46-0.008,0.911-0.018,1.354-0.026c0.442-0.009,0.853-0.014,1.232-0.014c1.516,0,2.83,0.234,3.94,0.704
			c1.11,0.471,2.027,1.124,2.749,1.963s1.258,1.847,1.61,3.019c0.352,1.173,0.528,2.463,0.528,3.872
			c0,1.283-0.167,2.515-0.501,3.696c-0.334,1.182-0.862,2.23-1.584,3.141c-0.723,0.912-1.661,1.643-2.816,2.193
			c-1.155,0.551-2.555,0.827-4.197,0.827c-0.289,0-0.663-0.005-1.124-0.014c-0.46-0.01-0.934-0.027-1.422-0.054
			c-0.487-0.027-0.938-0.05-1.354-0.068c-0.416-0.018-0.714-0.046-0.895-0.081V4.903H405.411z M410.529,6.691
			c-0.234,0-0.492,0-0.771,0c-0.28,0-0.555,0.009-0.827,0.027c-0.272,0.018-0.519,0.036-0.745,0.053
			c-0.226,0.018-0.402,0.036-0.528,0.054V21.99c0.09,0.018,0.261,0.031,0.515,0.041c0.252,0.009,0.514,0.018,0.785,0.027
			c0.272,0.009,0.532,0.018,0.785,0.027c0.253,0.009,0.424,0.014,0.515,0.014c1.263,0,2.324-0.217,3.182-0.65
			c0.857-0.434,1.544-1.015,2.058-1.747c0.515-0.731,0.88-1.57,1.097-2.518c0.217-0.948,0.326-1.927,0.326-2.939
			c0-0.884-0.1-1.774-0.299-2.667c-0.198-0.894-0.542-1.702-1.029-2.424s-1.142-1.313-1.963-1.774
			C412.808,6.92,411.774,6.691,410.529,6.691z"/>
		<path fill="#FF6600" d="M432.787,22.775c-0.542,0.434-1.223,0.777-2.044,1.029c-0.822,0.253-1.693,0.379-2.613,0.379
			c-1.029,0-1.922-0.167-2.681-0.501c-0.758-0.334-1.381-0.812-1.869-1.435c-0.487-0.622-0.849-1.367-1.082-2.234
			c-0.235-0.867-0.352-1.841-0.352-2.925c0-2.31,0.514-4.071,1.543-5.281c1.03-1.209,2.501-1.814,4.415-1.814
			c0.614,0,1.227,0.068,1.841,0.203c0.614,0.135,1.164,0.393,1.652,0.771c0.487,0.379,0.884,0.916,1.191,1.611
			c0.307,0.695,0.461,1.611,0.461,2.749c0,0.596-0.054,1.255-0.162,1.977h-8.693c0,0.795,0.082,1.499,0.244,2.112
			c0.162,0.614,0.415,1.133,0.758,1.557c0.343,0.425,0.79,0.75,1.34,0.975c0.55,0.226,1.222,0.338,2.017,0.338
			c0.614,0,1.227-0.108,1.841-0.325c0.614-0.217,1.075-0.47,1.381-0.758L432.787,22.775z M428.13,11.89
			c-1.065,0-1.918,0.279-2.558,0.839c-0.641,0.56-1.025,1.516-1.151,2.871h6.717c0-1.372-0.262-2.333-0.786-2.884
			C429.826,12.165,429.087,11.89,428.13,11.89z"/>
		<path fill="#FF6600" d="M442.618,20.176c0-0.542-0.162-0.966-0.487-1.274c-0.325-0.306-0.726-0.564-1.205-0.771
			c-0.479-0.207-1.002-0.406-1.57-0.596c-0.569-0.19-1.092-0.434-1.571-0.731c-0.478-0.299-0.88-0.681-1.205-1.151
			c-0.325-0.47-0.487-1.101-0.487-1.895c0-1.3,0.37-2.252,1.11-2.857c0.74-0.605,1.769-0.907,3.087-0.907
			c0.975,0,1.792,0.086,2.451,0.257c0.658,0.172,1.231,0.375,1.719,0.609l-0.514,1.787c-0.416-0.198-0.916-0.374-1.503-0.528
			c-0.586-0.153-1.214-0.229-1.882-0.229c-0.795,0-1.377,0.135-1.747,0.405c-0.37,0.271-0.555,0.74-0.555,1.408
			c0,0.47,0.162,0.835,0.487,1.097c0.325,0.262,0.726,0.497,1.205,0.704c0.479,0.207,1.003,0.41,1.571,0.609
			c0.569,0.199,1.092,0.46,1.571,0.786c0.477,0.325,0.879,0.735,1.205,1.232c0.325,0.497,0.487,1.15,0.487,1.962
			c0,0.579-0.095,1.12-0.285,1.625c-0.19,0.506-0.482,0.938-0.879,1.3c-0.398,0.361-0.89,0.647-1.476,0.853
			c-0.586,0.207-1.278,0.311-2.072,0.311c-1.029,0-1.905-0.099-2.627-0.298c-0.722-0.199-1.326-0.434-1.814-0.704l0.65-1.841
			c0.416,0.234,0.957,0.451,1.625,0.65c0.668,0.199,1.346,0.298,2.031,0.298c0.776,0,1.417-0.153,1.923-0.46
			C442.365,21.521,442.618,20.971,442.618,20.176z"/>
		<path fill="#FF6600" d="M448.06,6.202c0-0.415,0.14-0.772,0.42-1.07c0.279-0.299,0.636-0.447,1.07-0.447
			c0.434,0,0.803,0.149,1.11,0.447c0.306,0.298,0.46,0.654,0.46,1.07c0,0.416-0.154,0.758-0.46,1.029
			c-0.307,0.271-0.677,0.406-1.11,0.406s-0.79-0.135-1.07-0.406C448.2,6.962,448.06,6.619,448.06,6.202z M448.521,10.319h2.167
			v13.54h-2.167V10.319z"/>
		<path fill="#FF6600" d="M465.689,24.482c0,1.75-0.465,3.041-1.394,3.872c-0.931,0.83-2.307,1.247-4.13,1.247
			c-1.083,0-1.955-0.068-2.614-0.203c-0.658-0.135-1.223-0.311-1.692-0.528l0.569-1.841c0.415,0.162,0.875,0.316,1.381,0.46
			c0.505,0.145,1.164,0.217,1.977,0.217c0.758,0,1.376-0.068,1.854-0.203c0.478-0.135,0.862-0.361,1.151-0.677
			c0.289-0.316,0.487-0.723,0.596-1.218c0.108-0.498,0.163-1.088,0.163-1.775v-1.3h-0.108c-0.362,0.524-0.823,0.926-1.382,1.206
			c-0.559,0.279-1.291,0.419-2.193,0.419c-1.824,0-3.164-0.569-4.021-1.706c-0.858-1.137-1.286-2.907-1.286-5.307
			c0-2.31,0.55-4.067,1.651-5.268c1.102-1.2,2.727-1.801,4.875-1.801c1.029,0,1.909,0.081,2.64,0.244
			c0.73,0.162,1.385,0.352,1.962,0.569v13.594C465.688,24.482,465.689,24.482,465.689,24.482z M460.247,22.262
			c0.921,0,1.642-0.23,2.166-0.691c0.525-0.46,0.895-1.178,1.11-2.153v-6.932c-0.723-0.342-1.643-0.514-2.762-0.514
			c-1.228,0-2.194,0.416-2.898,1.246c-0.704,0.83-1.056,2.131-1.056,3.899c0,0.758,0.063,1.453,0.19,2.085
			c0.125,0.632,0.325,1.174,0.596,1.625c0.27,0.451,0.622,0.803,1.056,1.056C459.083,22.136,459.615,22.262,460.247,22.262z"/>
		<path fill="#FF6600" d="M478.552,23.859v-7.718c0-1.408-0.203-2.468-0.61-3.182c-0.405-0.713-1.15-1.07-2.234-1.07
			c-0.957,0-1.747,0.257-2.369,0.771c-0.623,0.515-1.061,1.16-1.313,1.936v9.261h-2.167v-13.54h1.516l0.406,1.652h0.108
			c0.433-0.578,1.016-1.051,1.746-1.422c0.731-0.371,1.603-0.555,2.613-0.555c0.74,0,1.39,0.086,1.951,0.257
			c0.559,0.172,1.024,0.475,1.394,0.907c0.37,0.432,0.651,1.015,0.839,1.746c0.19,0.731,0.284,1.657,0.284,2.776v8.178h-2.164
			L478.552,23.859L478.552,23.859z"/>
	</g>
</g>
<g>
	<path fill="#FF6600" d="M12.927,59.263V51.81h-6.82c-0.266,3.25-1.211,5.945-2.836,8.086c-0.406-0.516-0.867-1.055-1.383-1.617
		c1.016-1.438,1.703-3.031,2.062-4.781c0.344-1.688,0.516-4.078,0.516-7.172v-8.367h19.102v18.633c0,1.859-0.883,2.789-2.648,2.789
		c-1.078,0-2.289-0.023-3.633-0.07c-0.078-0.516-0.195-1.164-0.352-1.945c1.359,0.094,2.461,0.141,3.305,0.141
		c0.969,0,1.453-0.461,1.453-1.383v-4.312h-6.891v7.453h-1.875C12.927,59.265,12.927,59.263,12.927,59.263z M6.236,50.123h6.691
		V45.74H6.341C6.388,47.257,6.353,48.717,6.236,50.123z M6.341,39.693v4.359h6.586v-4.359H6.341z M21.693,39.693h-6.891v4.359h6.891
		V39.693z M14.802,50.123h6.891V45.74h-6.891C14.802,45.741,14.802,50.123,14.802,50.123z"/>
	<path fill="#FF6600" d="M35.568,37.326l1.688-1.008c0.75,0.891,1.492,1.859,2.227,2.906l-1.148,0.727h8.742v10.383h-1.876v-1.219
		H30.4c-0.211,4.5-1.371,8.094-3.48,10.781c-0.422-0.516-0.875-1.031-1.359-1.547c2-2.438,3-6.094,3-10.969v-7.43h8.941
		C36.931,39.076,36.287,38.201,35.568,37.326z M30.435,41.638v5.789h14.766v-5.789H30.435z"/>
	<path fill="#FF6600" d="M49.56,47.896c2.266-3.312,3.953-7.086,5.062-11.32l1.781,0.516c-0.609,1.992-1.297,3.863-2.062,5.613
		v16.863h-1.734V46.232c-0.703,1.273-1.453,2.469-2.25,3.586C50.123,49.177,49.857,48.537,49.56,47.896z M73.162,53.592
		c-0.531,0.641-0.992,1.219-1.383,1.734c-3.125-2.406-5.422-6.477-6.891-12.211v9.891h3.445v1.688h-3.445v4.898h-1.734v-4.898
		h-3.445v-1.688h3.445v-9.891h-0.059c-1.453,5.398-3.848,9.594-7.184,12.586c-0.359-0.453-0.773-0.945-1.242-1.477
		c3.016-2.758,5.273-6.461,6.773-11.109h-5.508v-1.688h7.219v-4.781h1.734v4.781h7.477v1.688h-5.965
		C67.892,47.974,70.146,51.467,73.162,53.592z"/>
	<path fill="#FF6600" d="M73.49,52.632c1.812-0.359,3.805-0.797,5.977-1.312c-0.016,0.625-0.008,1.18,0.023,1.664
		c-1.781,0.375-3.664,0.836-5.648,1.383L73.49,52.632z M76.959,41.076l-0.539,6.445h2.367l0.609-7.898h-5.32v-1.594h7.102
		l-0.727,9.492h1.477c-0.109,3.297-0.211,6.008-0.305,8.133c-0.047,2.375-1.078,3.562-3.094,3.562c-0.844,0-1.836-0.023-2.977-0.07
		c-0.078-0.578-0.18-1.195-0.305-1.852c1.125,0.141,2.125,0.211,3,0.211c1.094,0,1.672-0.664,1.734-1.992
		c0.094-1.719,0.172-3.852,0.234-6.398h-5.624l0.75-8.039C75.341,41.076,76.959,41.076,76.959,41.076z M90.623,36.717l-0.445,0.75
		c1.891,3.359,4.234,5.805,7.031,7.336c-0.5,0.625-0.914,1.172-1.242,1.641c-2.75-2.031-4.992-4.477-6.727-7.336
		c-1.594,2.828-3.82,5.367-6.68,7.617c-0.281-0.406-0.672-0.898-1.172-1.477c3.109-2.156,5.492-5,7.148-8.531
		C88.536,36.717,90.623,36.717,90.623,36.717z M82.115,56.896h8.461c1.125-2.781,2.125-5.688,3-8.719l1.781,0.562
		c-0.922,2.797-1.898,5.516-2.93,8.156h4.125v1.617H82.115V56.896z M83.31,49.396l1.641-0.516c0.766,2.219,1.406,4.195,1.922,5.93
		l-1.734,0.586C84.623,53.396,84.013,51.396,83.31,49.396z M84.505,45.342h9.656v1.617h-9.656V45.342z M87.341,48.342l1.664-0.445
		c0.656,2.344,1.195,4.391,1.617,6.141l-1.711,0.492C88.459,52.373,87.935,50.311,87.341,48.342z"/>
	<path fill="#FF6600" d="M105.787,52.654c0.031,0.734,0.086,1.43,0.164,2.086c-2.141,1.391-3.734,2.508-4.781,3.352l-1.125-1.547
		c0.531-0.516,0.797-1.219,0.797-2.109v-8.344h-2.977v-1.688h4.758V54.81C103.638,54.138,104.693,53.421,105.787,52.654z
		 M101.052,37.279c1.203,1.188,2.352,2.391,3.445,3.609l-1.641,1.359c-1.141-1.469-2.211-2.719-3.211-3.75L101.052,37.279z
		 M105.716,48.576v-1.617h12.773v1.617c-1.234,2.711-2.758,4.836-4.57,6.375c1.992,1.312,4.391,2.227,7.195,2.742
		c-0.547,0.703-1.023,1.336-1.43,1.898c-2.789-0.805-5.219-1.973-7.289-3.504c-2.125,1.438-4.812,2.668-8.062,3.691
		c-0.406-0.578-0.812-1.141-1.219-1.688c3.102-0.836,5.695-1.902,7.781-3.199c-1.812-1.75-3.129-3.855-3.949-6.316h-1.23V48.576z
		 M115.56,39.436h-5.859v0.68c0,2.875-1.312,5.016-3.938,6.422c-0.422-0.516-0.875-1-1.359-1.453
		c2.312-1.188,3.469-2.828,3.469-4.922v-2.461h9.516v4.781c0,0.703,0.359,1.055,1.078,1.055h2.578
		c-0.078,0.641-0.141,1.219-0.188,1.734h-3.094c-1.469,0-2.203-0.812-2.203-2.438C115.56,42.833,115.56,39.436,115.56,39.436z
		 M108.716,48.576c0.789,1.992,2.027,3.746,3.715,5.262c1.656-1.281,2.98-3.035,3.973-5.262H108.716z"/>
	<path fill="#FF6600" d="M131.38,53.123c0.047,0.812,0.102,1.492,0.164,2.039c-2.5,1.562-4.562,2.922-6.188,4.078l-1.125-1.594
		c0.547-0.469,0.82-1.18,0.82-2.133v-9.281h-3.328v-1.688h5.203v11.391C128.287,55.107,129.771,54.171,131.38,53.123z
		 M124.115,36.927c1.703,1.75,2.938,3.047,3.703,3.891l-1.641,1.383c-0.984-1.297-2.148-2.641-3.492-4.031L124.115,36.927z
		 M129.224,44.686h6.82v-8.062h2.016v8.062h6.867v1.688h-6.867v13.219h-2.016v-13.22h-6.82V44.686z"/>
	<path fill="#FF6600" d="M146.685,40.443h2.367c0.578-1.422,1.055-2.719,1.43-3.891l1.969,0.562
		c-0.492,1.195-0.969,2.305-1.43,3.328h4.688v18.656h-1.875V57.27h-5.273v1.992h-1.875V40.443H146.685z M153.834,42.201h-5.273
		v5.695h5.273V42.201z M148.56,55.513h5.273v-5.93h-5.273V55.513z M156.06,45.248c1.469-2.328,2.711-5.227,3.727-8.695l1.969,0.492
		c-0.398,1.18-0.805,2.289-1.219,3.328h7.546c-0.188,8.031-0.344,13.086-0.469,15.164c-0.109,2.453-1.398,3.68-3.867,3.68
		c-1.421,0-2.867-0.047-4.335-0.141c-0.094-0.781-0.219-1.477-0.375-2.086h0.07c1.562,0.219,2.992,0.328,4.289,0.328
		c1.422,0,2.188-0.75,2.297-2.25c0.172-2.328,0.297-6.641,0.375-12.938h-6.281c-0.68,1.508-1.383,2.836-2.109,3.984
		C157.255,45.818,156.716,45.529,156.06,45.248z M158.123,46.842l1.43-1.055c1.734,2.047,3.117,3.82,4.148,5.32l-1.734,1.219
		C160.857,50.513,159.576,48.686,158.123,46.842z"/>
	<path fill="#FF6600" d="M169.677,51.342c1.453-2.375,2.602-5.148,3.445-8.32h-3.234v-1.57h3.375v-4.688h1.711v4.688h3.281v1.57
		h-3.281v3.023l0.703-0.609c0.969,0.969,2.008,2.07,3.117,3.305l-1.266,1.172c-0.969-1.203-1.82-2.203-2.555-3v12.75h-1.711V46.888
		c-0.859,2.703-1.805,4.875-2.836,6.516C170.208,52.732,169.958,52.046,169.677,51.342z M179.497,37.654h11.555V49.49h-1.711v-0.516
		h-4.383c0.484,1.406,1.109,2.672,1.875,3.797c1.594-0.938,3.086-1.914,4.477-2.93l1.148,1.477
		c-1.531,0.953-3.086,1.844-4.664,2.672c1.391,1.578,3.141,2.812,5.25,3.703c-0.516,0.5-1.008,1.047-1.477,1.641
		c-4.125-2.359-6.898-5.812-8.32-10.359h-2.016v7.711c1.062-0.438,2.422-1.07,4.078-1.898c0.016,0.75,0.062,1.367,0.141,1.852
		c-1.484,0.656-2.859,1.359-4.125,2.109c-0.562,0.359-1.016,0.695-1.359,1.008L178.7,58.14c0.531-0.453,0.797-1.156,0.797-2.109
		V37.654L179.497,37.654z M189.341,39.271h-8.109v3.258h8.109V39.271z M189.341,47.357v-3.258h-8.109v3.258H189.341z"/>
	<path fill="#FF6600" d="M216.903,53.498c-0.406,0.406-0.938,0.953-1.594,1.641c-3.781-2.914-6.797-6.648-9.047-11.203v9.281h5.367
		v1.641h-5.367v4.805h-1.828v-4.805h-5.555v-1.641h5.555v-9.281c-1.992,3.969-5.047,7.797-9.164,11.484
		c-0.609-0.578-1.125-1.047-1.547-1.406c4.445-3.648,7.77-7.508,9.973-11.578h-9.457v-1.734h10.195v-4.219h1.828v4.219h10.195v1.734
		h-9.527C209.415,47.107,212.739,50.796,216.903,53.498z"/>
</g>
</svg>
