<?xml version="1.0" encoding="utf-8"?>
<!-- Generator: Adobe Illustrator 17.1.0, SVG Export Plug-In . SVG Version: 6.00 Build 0)  -->
<!DOCTYPE svg PUBLIC "-//W3C//DTD SVG 1.1//EN" "http://www.w3.org/Graphics/SVG/1.1/DTD/svg11.dtd">
<svg version="1.1" id="图层_1" xmlns="http://www.w3.org/2000/svg" xmlns:xlink="http://www.w3.org/1999/xlink" x="0px" y="0px"
	 viewBox="0 0 488.9 309.8" style="enable-background:new 0 0 488.9 309.8;" xml:space="preserve">
<g>
	<g id="矩形_3_12_">
		<g>
			<rect x="7.2" y="3.9" style="fill-rule:evenodd;clip-rule:evenodd;fill:#FFFFFF;" width="475.2" height="297"/>
		</g>
		<g>
			<rect x="7.2" y="3.9" style="fill:none;stroke:#D8D8D8;stroke-miterlimit:10;" width="475.2" height="297"/>
		</g>
	</g>
	<g>
		<path style="fill:#FF6600;" d="M136.2,102.1c0.7-1.4,1.4-2.9,2-4.4c-0.6-0.4-1.1-0.8-1.7-1.2c1.1-2.1,1.5-4.5,1.5-7.1v-5.1h11.4
			c0-0.2,0-0.5,0-0.9c-0.1-0.5-0.1-0.9-0.1-1.1h3.3c0,0.7,0,1.4,0.1,2h1.6c-0.3-0.3-0.6-0.7-1-1.1l2.2-1.2c0.5,0.4,1.1,1,1.9,1.8
			l-1,0.6h2.1v2.9h-5.7c0.1,1.3,0.2,2.4,0.4,3.2c0.7-0.9,1.5-1.9,2.1-3.1l2.8,1.6c-1.5,2.3-2.8,3.9-3.8,4.8c0.1,0.1,0.1,0.2,0.2,0.3
			c0.1,0.1,0.1,0.2,0.2,0.3c0.2,0.4,0.4,0.6,0.7,0.6c0.2-0.1,0.4-0.3,0.5-0.6c0.1-0.2,0.2-0.6,0.3-1.2c0.1-0.4,0.1-0.7,0.2-0.9
			c0.1,0.1,0.3,0.2,0.6,0.3c0.5,0.2,1.2,0.4,2,0.7c-0.1,0.2-0.1,0.6-0.2,0.9c-0.1,0.5-0.3,1.1-0.6,1.9c-0.2,0.9-0.8,1.5-1.8,2
			c0.6,0.8,1.3,1.9,2.2,3.3c-0.1-0.1,0,0,0.2,0.3l-3.1,1.5c-0.2-0.4-0.6-1-1-1.8c-0.3-0.4-0.6-0.8-0.7-1.1c-0.2,0.9-0.4,1.5-0.6,1.9
			c-0.5,1.4-1.7,2-3.6,1.9h-5.6c-2,0.1-2.9-0.9-2.9-3v-2.8c-0.9,2.2-1.6,3.9-2.3,5.1L136.2,102.1z M145.5,98.1l2.3-1.4h-5.9v-5.7
			h7.2v3.1c0.5-0.4,1-0.7,1.5-1c-0.4-1.4-0.7-3.3-0.9-5.9h-8.4v2.2c0.1,3.2-0.5,5.9-1.6,8.4l1.8,0.6v-0.7h3.6v2.5
			c-0.1,0.9,0.3,1.4,1.2,1.3h2.6c1,0.1,1.5-0.3,1.6-1.1c0.2-0.6,0.3-1.2,0.5-1.8c0.9,0.4,1.9,0.7,2.8,1c0-0.1-0.1-0.2-0.2-0.4
			c-0.1-0.1-0.1-0.2-0.2-0.3l1.5-0.7c-1.1-0.2-2.1-0.9-3-2.1c-0.1,0.1-0.3,0.3-0.6,0.5c-0.4,0.3-0.7,0.6-0.9,0.7
			c-0.1-0.2-0.3-0.6-0.6-1.1c-0.2-0.6-0.5-1.1-0.6-1.4v1.9h-0.6c0.2,0.2,0.5,0.6,0.8,1c0.5,0.6,0.9,1.1,1.1,1.4l-3,1.9
			C146.9,100.2,146.3,99.2,145.5,98.1z M149.2,90.2h-7.4v-2.3h7.4V90.2z M146.3,94.5v-1.2h-1.8v1.2H146.3z"/>
		<path style="fill:#FF6600;" d="M177.9,82.3h3.3v4.4h1.2V90h-1.2v11.4c0.1,1.9-0.9,2.9-2.9,2.9c-1,0-2,0-3.1,0
			c-0.2-1.2-0.4-2.2-0.6-3.1c0.8,0,1.5,0,2,0c0.8,0,1.2-0.3,1.2-0.9V97l-2,0.8c-0.2-0.8-0.6-1.9-1.1-3.3c-0.2-0.4-0.3-0.8-0.4-1v8.3
			c0,1.6-0.8,2.4-2.4,2.5c-0.6,0.1-1.5,0.1-3,0.1c-0.1-0.4-0.2-0.9-0.3-1.7c-0.1-0.4-0.1-0.6-0.2-0.8c-0.7,0.6-1.6,1.1-2.5,1.7
			c-0.1-0.1-0.2-0.3-0.3-0.6c-0.2-0.4-0.5-0.8-0.7-1c-0.3,0.2-0.7,0.6-1.3,1c-0.7,0.7-1.3,1.2-1.7,1.5l-1.6-2.6
			c0.6-0.5,0.8-1.1,0.8-1.8v-7.5H160V89h4.5v9.7c0.2-0.2,0.5-0.4,0.9-0.7c0.1-0.2,0.2-0.3,0.4-0.4h-0.6v-2.8h0.8V84.5h2.2
			c0.1-0.3,0.2-0.7,0.3-1.2c0.1-0.4,0.1-0.8,0.2-1l3.6,0.3c-0.1,0.1-0.1,0.3-0.2,0.6c-0.1,0.2-0.2,0.6-0.5,1.4h2.7v7.9l2.1-0.8
			c0.5,1.3,1,2.5,1.4,3.7V90h-3.1v-3.2h3.1V82.3z M163.3,82.3c0.1,0.2,0.3,0.5,0.5,0.8c0.9,1.6,1.6,2.8,1.9,3.4l-3.1,1.5
			c-0.1-0.2-0.3-0.5-0.5-0.9c-0.7-1.4-1.3-2.6-1.8-3.4L163.3,82.3z M166.1,100.1c1.1-0.7,1.9-1.5,2.5-2.4h-2.5
			C166.1,98.5,166.1,99.3,166.1,100.1z M170.3,101.6c0.7,0.1,1.1-0.2,1-0.8v-2.2c-0.7,1.2-1.6,2.2-2.5,3.1
			C169.4,101.6,169.9,101.6,170.3,101.6z M169.1,87.2v1h2.2v-1H169.1z M169.1,90.4v1.1h2.2v-1.1H169.1z M169.1,93.8v1.1h2.2v-1.1
			H169.1z"/>
		<path style="fill:#FF6600;" d="M183.8,86.4v-3.1h9.7v3.1h-1v2.7c2.3-1.5,4.1-3.9,5.5-7l3.7,0.3c-0.1,0.1-0.1,0.3-0.2,0.6
			c-0.1,0.2-0.2,0.4-0.3,0.6c1.4,2.5,3.2,4.4,5.4,5.8c-0.1,0.1-0.2,0.3-0.3,0.6c-0.6,1.3-0.9,2.2-1.1,2.8c-2.6-1.8-4.5-3.8-5.8-6.1
			c-1.4,2.2-3.3,4.2-5.8,6.2c-0.2-0.4-0.4-1-0.7-1.9c-0.2-0.4-0.3-0.7-0.4-0.9v7.6c0.1-0.1,0.3-0.1,0.5-0.1c0.2-0.1,0.4-0.1,0.6-0.1
			c-0.1,1.4-0.1,2.5,0,3.3c-0.1,0-0.3,0-0.6,0.1c-0.2,0-0.4,0-0.5,0v3.5h-3v-3c-0.4,0.1-1,0.2-1.8,0.3c-1.5,0.1-2.7,0.3-3.5,0.5
			l-0.6-3.2c0.4,0,0.8-0.1,1.2-0.2V86.4H183.8z M187.8,86.4v2h1.7v-2H187.8z M187.8,91.2v2.1h1.7v-2.1H187.8z M187.8,98.4
			c0.6-0.1,1.1-0.2,1.7-0.3V96h-1.7V98.4z M195.4,96.8c0.6,0.4,1.4,0.9,2.4,1.5c0.4,0.3,0.7,0.5,0.9,0.6l2.3-2.6h-7.5v-3.2h5
			c-0.5-1-1.1-1.9-1.8-2.9l2.7-1.5c0.3,0.5,0.7,1.1,1.3,1.9c0.4,0.6,0.6,1,0.8,1.3l-2,1.1h5.6v3.3l-3.6,4.4c0.7,0.5,1.4,0.9,2.1,1.2
			l-2.1,2.7c-1.4-1-3.4-2.4-6-4.1c-0.9-0.6-1.5-1-2-1.3L195.4,96.8z"/>
		<path style="fill:#FF6600;" d="M208.2,83.9h8.2V101c1.1-1.9,1.6-4.9,1.6-9.2v-7.9c3.5-0.3,7-0.7,10.3-1.2l1.3,3.5
			c-1.2,0.2-3.1,0.4-5.6,0.6c-1.1,0.1-1.9,0.2-2.5,0.3v3h8.5v3.4h-2.6v10.5h-3.6V93.6h-2.3c0.1,4.5-0.9,8.2-3,11.1
			c-0.5-0.4-1.2-1.1-2.2-1.9c-0.4-0.3-0.6-0.5-0.7-0.6c0.3-0.3,0.6-0.7,0.7-1.1h-4.7v1.4h-3.3V83.9z M211.5,87.4v10.2h1.5V87.4
			H211.5z"/>
		<path style="fill:#FF6600;" d="M238,83.2l-0.7,14.2h-3.6L233,83.2H238z M237.8,103.6h-4.6v-4.3h4.6V103.6z"/>
	</g>
	<g id="alimama.com_拷贝_6_">
		<g>
			<path style="fill-rule:evenodd;clip-rule:evenodd;fill:#CBCBCB;" d="M424.8,279.2c-0.8,1.6-1.6,3.1-2.4,4.8h1.2
				c0.2-0.4,0.3-0.7,0.6-1.1c0.6,0,1.1,0,1.7,0c-0.1-0.4-0.2-0.6-0.3-0.9h-0.9c0.3-0.5,0.4-0.8,0.8-1.6c0.4,1.2,0.9,2.5,1.3,3.6h1.1
				c-0.6-1.7-1.1-3.1-1.7-4.8H424.8z M428,284h1l0.2-4.8l-1,0L428,284z M429.6,284h1.1l0.1-3.6h-1L429.6,284z M429.8,279.2l0,0.8
				c0,0,0.8,0,1,0l0-0.8C429.9,279.2,429.9,279.2,429.8,279.2z M436.3,280.4c-0.2-0.1-0.4-0.1-0.6-0.1c-0.1,0-0.2,0-0.3,0
				c-0.1,0-0.2,0.1-0.3,0.1c-0.1,0-0.2,0.1-0.2,0.1c-0.1,0.1-0.1,0.1-0.2,0.2c0,0.1-0.1,0.1-0.1,0.2c0-0.1-0.1-0.2-0.1-0.3
				c0-0.1-0.1-0.1-0.1-0.2c-0.1,0-0.1-0.1-0.2-0.1c-0.1,0-0.2-0.1-0.3-0.1c-0.1,0-0.2,0-0.3,0c-0.1,0-0.3,0-0.4,0.1
				c-0.1,0-0.2,0.1-0.3,0.1c-0.1,0.1-0.2,0.1-0.2,0.2c-0.1,0.1-0.1,0.2-0.2,0.3l0-0.6h-0.9l-0.2,3.6c0,0,0.8,0,1,0
				c0-0.3,0-0.7,0-1.2c0-0.5,0.1-0.9,0.1-1c0.1-0.2,0.1-0.3,0.3-0.4c0.1-0.1,0.3-0.2,0.4-0.2c0.1,0,0.2,0,0.2,0
				c0.1,0,0.1,0.1,0.2,0.1c0.1,0.1,0.1,0.1,0.1,0.2c0,0.1,0,0.2,0,0.3c0,0.2,0,0.6,0,1.1c0,0.6-0.1,0.9-0.1,1.1c0.2,0,0.8,0,1,0l0-1
				c0-0.3,0-0.6,0-0.8c0-0.2,0-0.4,0.1-0.5c0-0.1,0.1-0.2,0.2-0.3c0.1-0.1,0.2-0.2,0.2-0.2c0.1,0,0.2-0.1,0.3-0.1
				c0.1,0,0.2,0,0.3,0.1c0.1,0,0.1,0.1,0.2,0.2c0.1,0.1,0.1,0.2,0.1,0.4c0,0.1,0,0.3,0,0.5l0,0.8c0,0.3,0,0.6-0.1,0.9
				c0.2,0,0.8,0,1,0c0-0.3,0-0.6,0-1.1c0-0.5,0-0.8,0.1-1.1c0-0.2,0-0.4,0-0.5c0-0.2-0.1-0.4-0.2-0.5
				C436.6,280.6,436.5,280.5,436.3,280.4z M440.1,280.4c-0.2-0.1-0.5-0.1-0.7-0.1c-0.2,0-0.5,0-0.7,0c-0.2,0-0.8,0.2-0.8,0.2
				l-0.1,0.7c0,0,1-0.3,1.4-0.3c0.1,0,0.2,0,0.3,0c0.1,0,0.2,0.1,0.2,0.1c0.1,0.1,0.1,0.1,0.1,0.2c0,0,0,0.1,0,0.1
				c0,0-0.1,0.1-0.1,0.1c0,0-0.1,0.1-0.1,0.1c-0.1,0-0.1,0.1-0.2,0.1c-0.1,0-0.2,0-0.3,0.1c-0.3,0.1-0.6,0.1-0.8,0.2
				c-0.2,0.1-0.4,0.1-0.5,0.2c-0.1,0.1-0.2,0.2-0.3,0.2c-0.1,0.1-0.1,0.2-0.2,0.3c0,0.1-0.1,0.2-0.1,0.3c0,0.2,0,0.3,0.1,0.5
				c0.1,0.2,0.2,0.3,0.4,0.4c0.2,0.1,0.4,0.1,0.7,0.1c0.1,0,0.2,0,0.3,0c0.1,0,0.2,0,0.4-0.1c0.1-0.3,0.1-0.5,0.2-0.6
				c-0.1,0-0.3,0.1-0.3,0.1c-0.1,0-0.2,0-0.2,0c-0.1,0-0.2,0-0.3,0c-0.1,0-0.2-0.1-0.2-0.1c-0.1-0.1-0.1-0.2-0.1-0.3
				c0-0.1,0-0.1,0-0.2c0-0.1,0.1-0.1,0.1-0.2c0,0,0.1-0.1,0.2-0.1c0.1,0,0.2-0.1,0.2-0.1c0.1,0,0.2-0.1,0.4-0.1
				c0.1,0,0.3-0.1,0.3-0.1c0.1,0,0.1,0,0.2-0.1c0,0,0.1-0.1,0.2-0.1l-0.1,1.8h1c0,0,0-1.1,0.1-1.7c0-0.5,0.1-0.9,0.1-1
				c0-0.2-0.1-0.4-0.2-0.6C440.5,280.6,440.3,280.5,440.1,280.4z M446.4,280.4c-0.2-0.1-0.4-0.1-0.6-0.1c-0.1,0-0.2,0-0.3,0
				c-0.1,0-0.2,0.1-0.3,0.1c-0.1,0-0.2,0.1-0.2,0.1c-0.1,0.1-0.1,0.1-0.2,0.2c0,0.1-0.1,0.1-0.1,0.2c0-0.1-0.1-0.2-0.1-0.3
				c0-0.1-0.1-0.1-0.1-0.2c-0.1,0-0.1-0.1-0.2-0.1c-0.1,0-0.2-0.1-0.3-0.1c-0.1,0-0.2,0-0.3,0c-0.1,0-0.3,0-0.4,0.1
				c-0.1,0-0.2,0.1-0.3,0.1c-0.1,0.1-0.2,0.1-0.2,0.2c-0.1,0.1-0.1,0.2-0.2,0.3l0-0.6h-1l-0.2,3.6h1c0,0,0-0.7,0-1.2
				c0-0.5,0.1-0.9,0.1-1c0.1-0.2,0.1-0.3,0.3-0.4c0.1-0.1,0.3-0.2,0.4-0.2c0.1,0,0.2,0,0.2,0c0.1,0,0.1,0.1,0.2,0.1
				c0,0.1,0.1,0.1,0.1,0.2c0,0.1,0,0.2,0,0.3c0,0.2,0,0.6,0,1.1c0,0.6-0.1,0.9-0.1,1.1c0.2,0,0.8,0,1,0l0-1c0-0.3,0-0.6,0-0.8
				c0-0.2,0-0.4,0.1-0.5c0-0.1,0.1-0.2,0.2-0.3c0.1-0.1,0.2-0.2,0.2-0.2c0.1,0,0.2-0.1,0.3-0.1c0.1,0,0.2,0,0.3,0.1
				c0.1,0,0.1,0.1,0.2,0.2c0.1,0.1,0.1,0.2,0.1,0.4c0,0.1,0,0.3,0,0.5l0,0.8c0,0.3,0,0.6-0.1,0.9c0.2,0,0.8,0,1,0c0-0.3,0-0.6,0-1.1
				c0-0.5,0-0.8,0.1-1.1c0-0.2,0-0.4,0-0.5c0-0.2-0.1-0.4-0.2-0.5C446.7,280.6,446.6,280.5,446.4,280.4z M450.2,280.4
				c-0.2-0.1-0.5-0.1-0.7-0.1c-0.2,0-0.5,0-0.7,0c-0.2,0-0.8,0.2-0.8,0.2l-0.1,0.7c0,0,1-0.3,1.4-0.3c0.1,0,0.2,0,0.3,0
				c0.1,0,0.2,0.1,0.2,0.1c0.1,0.1,0.1,0.1,0.1,0.2c0,0,0,0.1,0,0.1c0,0-0.1,0.1-0.1,0.1c0,0-0.1,0.1-0.1,0.1
				c-0.1,0-0.1,0.1-0.2,0.1c-0.1,0-0.2,0-0.3,0.1c-0.3,0.1-0.6,0.1-0.8,0.2c-0.2,0.1-0.4,0.1-0.5,0.2c-0.1,0.1-0.2,0.2-0.3,0.2
				c-0.1,0.1-0.1,0.2-0.2,0.3c0,0.1-0.1,0.2-0.1,0.3c0,0.2,0,0.3,0.1,0.5c0.1,0.2,0.2,0.3,0.4,0.4c0.2,0.1,0.4,0.1,0.7,0.1
				c0.1,0,0.2,0,0.3,0c0.1,0,0.2,0,0.4-0.1c0.1-0.3,0.1-0.5,0.2-0.6c-0.1,0-0.3,0.1-0.3,0.1c-0.1,0-0.2,0-0.2,0c-0.1,0-0.2,0-0.3,0
				c-0.1,0-0.2-0.1-0.2-0.1c-0.1-0.1-0.1-0.2-0.1-0.3c0-0.1,0-0.1,0-0.2c0-0.1,0.1-0.1,0.1-0.2c0,0,0.1-0.1,0.2-0.1
				c0.1,0,0.2-0.1,0.2-0.1c0.1,0,0.2-0.1,0.4-0.1c0.1,0,0.3-0.1,0.3-0.1c0.1,0,0.1,0,0.2-0.1c0,0,0.1-0.1,0.2-0.1l-0.1,1.8h1
				c0,0,0-1.1,0.1-1.7c0-0.5,0.1-0.9,0.1-1c0-0.2-0.1-0.4-0.2-0.6C450.6,280.6,450.4,280.5,450.2,280.4z M451.3,283
				c0,0.5,0,0.8,0,0.9c0.3,0,1,0,1,0s0-0.8,0-0.9C452,283,451.3,283,451.3,283z M453.9,281.4c0.1-0.1,0.2-0.2,0.4-0.3
				c0.1-0.1,0.3-0.1,0.5-0.1c0.3,0,0.6,0.1,0.9,0.2l-0.1-0.8c-0.2-0.1-0.4-0.1-0.6-0.1c-0.2,0-0.3,0-0.5,0c-0.3,0-0.5,0-0.7,0.1
				c-0.2,0.1-0.4,0.2-0.6,0.3c-0.2,0.2-0.3,0.4-0.4,0.7c-0.1,0.3-0.1,0.6-0.1,0.8c0,0.2,0,0.4,0.1,0.6c0.1,0.2,0.1,0.4,0.3,0.5
				c0.1,0.1,0.2,0.3,0.4,0.4c0.2,0.1,0.3,0.2,0.5,0.2c0.2,0,0.4,0.1,0.5,0.1c0.3,0,0.7,0,1-0.1c0-0.2,0.1-0.3,0.1-0.5
				c0-0.1,0-0.2,0.1-0.3c-0.2,0.1-0.3,0.1-0.5,0.1c-0.2,0-0.3,0-0.4,0c-0.2,0-0.4,0-0.6-0.1c-0.2-0.1-0.3-0.2-0.4-0.4
				c-0.1-0.2-0.1-0.4-0.1-0.6c0-0.2,0-0.3,0.1-0.5C453.7,281.6,453.8,281.5,453.9,281.4z M459.3,280.8c-0.2-0.2-0.4-0.3-0.6-0.4
				c-0.2-0.1-0.5-0.1-0.8-0.1c-0.3,0-0.6,0.1-0.8,0.1c-0.3,0.1-0.5,0.2-0.7,0.4c-0.2,0.2-0.3,0.4-0.4,0.6c-0.1,0.2-0.1,0.5-0.1,0.7
				c0,0.3,0,0.5,0.1,0.7c0.1,0.2,0.2,0.4,0.4,0.6c0.2,0.2,0.4,0.3,0.6,0.4c0.2,0.1,0.5,0.1,0.8,0.1c0.3,0,0.6,0,0.8-0.1
				c0.3-0.1,0.5-0.2,0.6-0.4c0.2-0.2,0.3-0.4,0.4-0.6c0.1-0.2,0.1-0.5,0.1-0.8c0-0.3,0-0.5-0.1-0.7
				C459.6,281.2,459.4,281,459.3,280.8z M458.7,282.7c-0.1,0.2-0.2,0.3-0.4,0.4c-0.2,0.1-0.3,0.2-0.5,0.2c-0.2,0-0.4,0-0.5-0.1
				c-0.1-0.1-0.3-0.2-0.3-0.4c-0.1-0.2-0.1-0.3-0.1-0.5c0-0.2,0-0.4,0.1-0.6c0.1-0.2,0.2-0.3,0.4-0.4c0.2-0.1,0.3-0.1,0.5-0.1
				c0.2,0,0.4,0,0.5,0.1c0.1,0.1,0.2,0.2,0.3,0.4c0.1,0.2,0.1,0.3,0.1,0.5C458.8,282.3,458.7,282.6,458.7,282.7z M465.6,280.7
				c-0.1-0.1-0.2-0.2-0.4-0.3c-0.2-0.1-0.4-0.1-0.6-0.1c-0.1,0-0.2,0-0.3,0c-0.1,0-0.2,0.1-0.3,0.1c-0.1,0-0.2,0.1-0.2,0.1
				c-0.1,0.1-0.1,0.1-0.2,0.2c0,0.1-0.1,0.1-0.1,0.2c0-0.1-0.1-0.2-0.1-0.3c0-0.1-0.1-0.1-0.1-0.2c-0.1,0-0.1-0.1-0.2-0.1
				c-0.1,0-0.2-0.1-0.3-0.1c-0.1,0-0.2,0-0.3,0c-0.1,0-0.3,0-0.4,0.1c-0.1,0-0.2,0.1-0.3,0.1c-0.1,0.1-0.2,0.1-0.2,0.2
				c-0.1,0.1-0.1,0.2-0.2,0.3l0-0.6c-0.2,0-0.7,0-0.9,0c0,0.4-0.1,3.2-0.2,3.6c0.2,0,0.8,0,1,0c0-0.3,0-0.7,0-1.2
				c0-0.5,0.1-0.9,0.1-1c0.1-0.2,0.1-0.3,0.3-0.4c0.1-0.1,0.3-0.2,0.4-0.2c0.1,0,0.2,0,0.2,0c0.1,0,0.1,0.1,0.2,0.1
				c0.1,0.1,0.1,0.1,0.1,0.2c0,0.1,0,0.2,0,0.3c0,0.2,0,0.6,0,1.1c0,0.6-0.1,0.9-0.1,1.1c0.2,0,0.8,0,1,0l0-1c0-0.3,0-0.6,0-0.8
				c0-0.2,0-0.4,0.1-0.5c0-0.1,0.1-0.2,0.2-0.3c0.1-0.1,0.2-0.2,0.2-0.2c0.1,0,0.2-0.1,0.3-0.1c0.1,0,0.2,0,0.3,0.1
				c0.1,0,0.1,0.1,0.2,0.2c0.1,0.1,0.1,0.2,0.1,0.4c0,0.1,0,0.3,0,0.5l0,0.8c0,0.3,0,0.6-0.1,0.9c0.2,0,0.8,0,1,0c0-0.3,0-0.6,0-1.1
				c0-0.5,0-0.8,0.1-1.1c0-0.2,0-0.4,0-0.5C465.7,281.1,465.7,280.9,465.6,280.7z"/>
		</g>
	</g>
	<g id="阿里妈妈_拷贝_6_">
		<g>
			<path style="fill-rule:evenodd;clip-rule:evenodd;fill:#FF6600;" d="M426.5,269.2c1.5,0,3,0,4.5,0c0,2.2,0,4.5,0,6.6
				c0,0.1-0.2,0.3-0.3,0.3c-0.2,0-0.3,0-0.6,0v1.1c0.3,0,0.6,0,1,0c0.9,0,1.4-0.4,1.4-1.1c0-1.7,0-5.1,0-6.8h0.5v-1h-6.4V269.2z
				 M449.4,274c-0.4,0-1,0.4-1,1c1.3,0,3.4,0,4.8,0c0,0.3,0,0.5,0,0.9c0.5,0,0.3,0,0.8,0c0.3,0,0.7-0.2,0.7-0.7c0-1.1,0-2,0-3.2
				c-0.2,0-0.4,0-0.6,0c0-0.9,0-2.6,0-3.3c0-0.3-0.3-0.6-0.6-0.6h-4.7v1h3.6c0,0.9,0,1.9,0,2.8c-0.9,0-1,0-1.7,0
				c-0.1,0-0.2-0.1-0.2-0.2c0-0.5,0-1.2,0-1.8c0-0.1-0.1-0.3-0.4-0.3h-1.1v2.5c0,0.5,0.4,0.9,0.9,0.9c0,0,1.8,0,3.4,0v0.9H449.4z
				 M430.3,274.3c0-1.2,0-2.8,0-4.4h-3.7v5.6c1.1,0,2.5,0,2.5,0C430,275.5,430.3,275,430.3,274.3z M428.7,274.5c-0.3,0-0.6,0-0.9,0
				v-3.5c0.4,0,0.9,0,1.3,0c0,1.1,0,2.3,0,3.2C429,274.3,428.9,274.5,428.7,274.5z M422.3,268.5c0,2,0,4.7,0,8.7h1.4
				c0-2.5,0-5.3,0-8c0.3,0,0.7,0,1,0c0,1.5,0,2.9,0,4.3c0,0.6-0.5,0.8-0.5,0.8v1.1c1,0,1.8-1,1.8-1.9c0-1.6,0-3.7,0-5.4
				c-1.2,0-2.2,0-3.4,0C422.3,268.2,422.3,268.5,422.3,268.5z M465.2,272c0-0.9,0-2.6,0-3.3c0-0.3-0.3-0.6-0.6-0.6H460v1
				c1.2,0,2.4,0,3.6,0v2.8c-0.9,0-1,0-1.7,0c-0.1,0-0.2-0.1-0.2-0.2c0-0.5,0-1.2,0-1.8c0-0.1-0.1-0.3-0.4-0.3c-0.3,0-0.7,0-1.1,0
				v2.5c0,0.5,0.4,0.9,0.9,0.9c0,0,1.8,0,3.4,0v0.9h-3.7c-0.4,0-1.1,0.4-1.1,1c1.3,0,3.3,0,4.7,0v1c0,0.2-0.1,0.2-0.3,0.2h-0.5
				c0,0.5,0,0.7,0,1h0.8c0.3,0,0.2,0,0.5,0c0.7,0,1-0.5,1-0.9c0-1.3,0-3,0-4.3C465.7,272,465.4,272,465.2,272z M458.6,275.5
				c0.5-0.6,0.8-1.2,0.8-2.4c0-1.3,0-2.6,0-4c0-0.1-0.1-0.3-0.3-0.3c-0.5,0-1.2,0-1.8,0v-0.6H456c0,0.2,0,0.4,0,0.6
				c-0.1,0-0.3,0-0.5,0v1h0.5v3.2c0,1.2,0.4,1.9,0.9,2.4c-0.6,0.4-1.2,0.7-2.1,0.7c-0.1,0-0.2,0-0.4,0c-1.3,0-2.9,0-4.2,0
				c-1.3,0-2.5-0.2-3-0.8c0.4-0.6,0.7-1.1,0.8-2.3c0-1.2,0-2.3,0-3.9c0-0.2-0.2-0.3-0.3-0.3c-0.5,0-1.1,0-1.8,0v-0.6
				c-0.6,0-0.8,0-1.3,0v0.6c-0.2,0-0.3,0-0.5,0v1c0.2,0,0.3,0,0.5,0c0,1.1,0,2.2,0,3.2c0.1,1.2,0.5,1.6,1,2.4
				c-0.7,0.5-1.5,0.7-2.5,0.8c-1.2,0-2.2,0-3.7,0c0-0.3,0-0.6,0-0.8h3.7v-1.1h-3.7c0-0.3,0-0.5,0-0.8c1.1,0,2.5,0,2.8,0
				c0,0,0.9,0,0.9-1c0-1,0-2.9,0-4.3c-2.9,0-5.9,0-8.9,0c-0.1,0-0.3,0.2-0.3,0.3c0,0.2,0,3.5,0,5c1.2,0,2.5,0,3.7,0v0.8h-3.7
				c0,0.3,0,0.7,0,1.1h3.7c0,0.3,0,0.5,0,0.8h-4.4c0,0.3,0,0.7,0,1c3.3,0,7.3,0,10.5,0c0.9,0,1.9-0.4,2.7-0.9c1,0.7,2,0.9,3.8,0.9
				c0.5,0,1.1,0,1.8,0c0.9,0,1.7,0,2.5,0c1.5,0,2.4-0.3,3.3-0.8c0.8,0.5,1.6,0.8,2.9,0.8v0h2v-1h-2
				C459.9,276.1,459.2,276,458.6,275.5z M437.6,272.5h-2.3v-1.1h2.3V272.5z M437.6,270.3h-2.3v-1.1c0.8,0,1.5,0,2.3,0V270.3z
				 M439.4,269.2h2.3v1.1h-2.3V269.2z M439.4,271.4c0.8,0,1.5,0,2.3,0c0,0.4,0,0.8,0,1.1h-2.3C439.4,272.2,439.4,271.7,439.4,271.4z
				 M446.8,273.1c0,0.7-0.2,0.9-0.3,1.4c-0.2-0.4-0.4-0.6-0.5-1.4c0-0.9,0-2.2,0-3.2h0.8V273.1z M458.1,273.1c0,0.7-0.2,1-0.4,1.4
				c-0.2-0.4-0.4-0.7-0.4-1.4c0-1,0-2.2,0-3.2h0.8C458.1,270.9,458.1,272.1,458.1,273.1z"/>
		</g>
	</g>
	<g id="矩形_5_拷贝__x2B__v_xA0_剪贴路径_64_">
		<rect x="7.2" y="3.9" style="fill:none;" width="69.3" height="297"/>
	</g>
	<g id="矩形_5_拷贝__x2B__v_xA0_剪贴路径_63_">
		<rect x="6.5" y="3.9" style="fill:none;" width="69.3" height="297"/>
	</g>
	<g id="矩形_5_拷贝__x2B__v_xA0_剪贴路径_62_">
		<rect x="7.2" y="3.9" style="fill:none;" width="69.3" height="297"/>
	</g>
	<g id="矩形_5_拷贝__x2B__v_xA0_剪贴路径_61_">
		<rect x="6.5" y="3.9" style="fill:none;" width="69.3" height="297"/>
	</g>
	<g id="矩形_5_拷贝__x2B__v_xA0_剪贴路径_60_">
		<rect x="7.2" y="3.9" style="fill:none;" width="69.3" height="297"/>
	</g>
	<g id="矩形_5_拷贝__x2B__v_xA0_剪贴路径_59_">
		<rect x="6.5" y="3.9" style="fill:none;" width="69.3" height="297"/>
	</g>
	<g id="矩形_5_拷贝__x2B__v_xA0_剪贴路径_58_">
		<rect x="7.2" y="3.9" style="fill:none;" width="69.3" height="297"/>
	</g>
	<g id="矩形_5_拷贝__x2B__v_xA0_剪贴路径_57_">
		<rect x="6.5" y="3.9" style="fill:none;" width="69.3" height="297"/>
	</g>
	<g id="矩形_5_拷贝__x2B__v_xA0_剪贴路径_56_">
		<rect x="7.2" y="3.9" style="fill:none;" width="69.3" height="297"/>
	</g>
	<g id="矩形_5_拷贝__x2B__v_xA0_剪贴路径_55_">
		<rect x="6.5" y="3.9" style="fill:none;" width="69.3" height="297"/>
	</g>
	<g id="矩形_5_拷贝__x2B__v_xA0_剪贴路径_54_">
		<rect x="7.2" y="3.9" style="fill:none;" width="69.3" height="297"/>
	</g>
	<g id="矩形_5_拷贝__x2B__v_xA0_剪贴路径_53_">
		<rect x="6.5" y="3.9" style="fill:none;" width="69.3" height="297"/>
	</g>
	<g id="矩形_5_拷贝__x2B__v_xA0_剪贴路径_52_">
		<rect x="7.2" y="3.9" style="fill:none;" width="69.3" height="297"/>
	</g>
	<g id="矩形_5_拷贝__x2B__v_xA0_剪贴路径_51_">
		<rect x="6.5" y="3.9" style="fill:none;" width="69.3" height="297"/>
	</g>
	<g id="矩形_5_拷贝__x2B__v_xA0_剪贴路径_50_">
		<rect x="7.2" y="3.9" style="fill:none;" width="69.3" height="297"/>
	</g>
	<g id="矩形_5_拷贝__x2B__v_xA0_剪贴路径_49_">
		<rect x="6.5" y="3.9" style="fill:none;" width="69.3" height="297"/>
	</g>
	<rect x="7.5" y="3.3" style="fill:#FF6D00;" width="61.8" height="297"/>
	<g>
		<defs>
			<rect id="SVGID_1_" x="7.5" y="3.4" width="61.8" height="296.9"/>
		</defs>
		<clipPath id="SVGID_2_">
			<use xlink:href="#SVGID_1_"  style="overflow:visible;"/>
		</clipPath>
		<g style="clip-path:url(#SVGID_2_);">
			<defs>
				<polygon id="SVGID_3_" points="98.2,4.3 -26.8,3.3 -26.8,307.5 98.2,307.7 				"/>
			</defs>
			<clipPath id="SVGID_4_">
				<use xlink:href="#SVGID_3_"  style="overflow:visible;"/>
			</clipPath>
			<path style="clip-path:url(#SVGID_4_);fill:#F95E00;" d="M154.1,302.4c-0.6,0.9-1.3,1.7-2.2,2.4c0.3,0.6,0.5,1.2,0.7,1.8
				C153.2,305.3,153.7,303.9,154.1,302.4 M-9.7,277.6C-18.8,282.9-23,295-21.3,307c1.4,9.9,3.9,17.3,14.5,26.7c0,0,8.3,6.6,20.9,6.6
				c3.4,0,7.2-0.5,11.2-1.8c-0.4-0.2-0.7-0.5-1.1-0.8c-7.5-4.7-15.1-10.9-21.3-18.8C2.9,318.9-13.7,298.7-9.7,277.6 M88.8,223.9
				c-22.3,0-36.7,8-45.4,18.2c-1.2,1.4-2.3,2.7-3.4,4.1c6.6,1.4,12.8,4.3,18.3,7.8c6.5-2.8,13.1-4.8,19.7-5.7
				c4.1-0.6,8.2-0.9,12.4-0.9c29.9,0,60.6,15.2,65.4,39.7c-0.1-3.1-0.3-6.5-0.9-10.1c-4.6-31.5-34.9-52.9-65.8-53
				C89.1,223.9,89,223.9,88.8,223.9"/>
			<path style="clip-path:url(#SVGID_4_);fill:#F04400;" d="M90.4,247.4c-4.2,0-8.3,0.3-12.4,0.9c-6.5,0.9-13.2,2.9-19.7,5.7
				c12.1,7.5,21.2,17.8,25.3,21.6c11.7,11.2,20.3,15.1,31.9,15.1c1.7,0,3.5-0.1,5.3-0.2c1.3-0.1,2.6-0.1,3.9-0.1
				c15.6,0,23.8,7.1,27.1,14.4c0.8-0.7,1.5-1.5,2.2-2.4c1.2-4.4,1.9-9.5,1.8-15.3C151,262.7,120.3,247.4,90.4,247.4"/>
			<path style="clip-path:url(#SVGID_4_);fill:#E0E0E0;" d="M25.5,338.5C25.4,338.5,25.4,338.5,25.5,338.5c1.9,1.4,4,2.5,6.2,3.5
				C29.6,341,27.6,339.8,25.5,338.5"/>
			<path style="clip-path:url(#SVGID_4_);fill:#E0E0E0;" d="M24.3,337.8c0.4,0.3,0.7,0.5,1.1,0.8c0,0,0.1,0,0.1,0
				C25.1,338.3,24.7,338,24.3,337.8"/>
			<path style="clip-path:url(#SVGID_4_);fill:#FC6800;" d="M31.2,245.2c-7.7,0-15.8,2.3-24.1,8.1c-10.4,7.4-15.2,15.9-16.8,24.2
				c3.1-1.8,6.7-2.8,10.9-2.8l0.1,0h0.2c21.6,0,25.8-12.4,38.6-28.6C37.2,245.6,34.2,245.2,31.2,245.2"/>
			<path style="clip-path:url(#SVGID_4_);fill:#F65A00;" d="M40.1,246.2c-12.8,16.2-17,28.6-38.6,28.6H1.3l-0.1,0
				c-4.2,0-7.8,1-10.9,2.8c-4,21.1,12.7,41.3,12.7,41.3c6.2,8,13.8,14.1,21.3,18.8c-7.4-5.4-12.7-13.3-14-22.2
				c-3.4-23.3,20.8-49.7,48.1-61.6C52.8,250.6,46.7,247.7,40.1,246.2"/>
			<path style="clip-path:url(#SVGID_4_);fill:#F04400;" d="M152.6,306.6c-3.6,8.9-9.8,14.6-16.6,18.6c-6.6,3.9-15.3,5-23.2,5
				c-11.3,0-21.1-2.3-21.1-2.3s-3.4-0.8-8.5-1.5c-9.7,6.9-21.7,15.9-28.3,17.5c-2.9,0.7-5.9,1.1-8.8,1.1c-5,0-10-1.1-14.5-3
				c13.6,7,25.2,9.5,25.2,9.5c9.6,1.7,18.6,2.5,26.9,2.5c24,0,42.1-6.4,53.4-14.5c11.6-8.3,16.7-19,16.6-26.8
				C153.7,310.8,153.4,308.7,152.6,306.6"/>
			<path style="clip-path:url(#SVGID_4_);fill:#F04400;" d="M151.9,304.8c-9.6,8.2-33.1,4.6-56.2,13.7c-2.7,1.1-7.2,4.2-12.4,7.9
				c5.1,0.8,8.5,1.5,8.5,1.5s9.8,2.3,21.1,2.3c7.9,0,16.6-1.1,23.2-5c6.8-4,13-9.8,16.6-18.6C152.4,306,152.2,305.4,151.9,304.8"/>
			<path style="clip-path:url(#SVGID_4_);fill:#F04400;" d="M64.6,325c-9.3,0-18.9,1.4-24.9,5.9c-5,3.8-9.8,6.2-14.3,7.7
				c2.1,1.3,4.2,2.4,6.2,3.5c4.5,1.9,9.4,3,14.5,3c2.9,0,5.9-0.3,8.8-1.1c6.6-1.7,18.6-10.6,28.3-17.5C78.2,325.7,71.5,325,64.6,325
				"/>
			<path style="clip-path:url(#SVGID_4_);fill:#F04400;" d="M58.4,254c-27.3,11.9-51.5,38.3-48.1,61.6c1.3,8.9,6.6,16.8,14,22.2
				c0.4,0.2,0.8,0.5,1.2,0.7c4.5-1.4,9.3-3.9,14.3-7.7c5.9-4.5,15.5-5.9,24.9-5.9c6.9,0,13.6,0.7,18.6,1.5c5.2-3.7,9.8-6.8,12.4-7.9
				c23.1-9.1,46.6-5.6,56.2-13.7c-3.3-7.3-11.5-14.4-27.1-14.4c-1.2,0-2.5,0-3.9,0.1c-1.9,0.1-3.6,0.2-5.3,0.2
				c-11.7,0-20.2-3.9-31.9-15.1C79.6,271.8,70.5,261.6,58.4,254"/>
		</g>
		<g id="矩形_10_7_" style="clip-path:url(#SVGID_2_);">
			<g>
				<path style="fill-rule:evenodd;clip-rule:evenodd;fill:#FB5701;" d="M75.5,8.4c-0.6-5.8-5.6-9.9-11.3-9.3
					c-4.8,0.5-8.5,4.4-9.1,9.1c-0.1,0.8-0.1,1.6,0,2.5c0.6,5.8,5.6,9.9,11.3,9.3c4.8-0.5,8.5-4.4,9.1-9.1C75.5,10,75.5,9.2,75.5,8.4
					z M52,20.4c-2.5-0.2-4.7,1.6-5,4c0,0.1,0,0.2,0,0.2c-0.2,2.5,1.7,4.7,4.3,4.9c2.5,0.2,4.7-1.6,5-4c0-0.1,0-0.2,0-0.2
					C56.5,22.8,54.6,20.6,52,20.4z"/>
			</g>
		</g>
	</g>
	<g>
		<defs>
			<rect id="SVGID_5_" x="7.2" y="26.3" width="62.2" height="263.2"/>
		</defs>
		<clipPath id="SVGID_6_">
			<use xlink:href="#SVGID_5_"  style="overflow:visible;"/>
		</clipPath>
		<ellipse style="opacity:0.3;clip-path:url(#SVGID_6_);fill:#60391F;" cx="36.4" cy="268.9" rx="56.7" ry="8.1"/>
		<g id="形状_13_51_" style="clip-path:url(#SVGID_6_);">
			<g>
				<path style="fill:#FF9B48;" d="M28,141.1c0,0-10,4.3-19.9,14.1c-12.9,11.6-20,18.4-26,20.1c-1,0.5-4.5,1.7-6.8,2.2
					c-3,0.8-6.2,0.8-7.2,1.9c-0.5,0.6-0.2,1.5,0.3,1.9c0.5,0.4,2.1,0.4,2.1,0.4s-4.4,1.3-2.8,4c1.5,2.5,11.4-4.5,11.9-1.4
					c0.2,1.7-5.3,2.9-2.7,5c1.2,0.9,5.2-1.4,7.9-3.9c2-1.8,3.9-4.9,10.2-9.2c5.1-3.5,14.5-9.1,24.6-13.3
					C42.2,153.4,28,141.1,28,141.1z"/>
			</g>
		</g>
		<g id="形状_14_51_" style="clip-path:url(#SVGID_6_);">
			<g>
				<path style="fill:#CC7123;" d="M-17.1,179.1c-0.5,0.5-1.7,1.2-2.3,1.6c-1.2,0.7-2.3,1-2.3,1s0.3,0.1,0.8,0
					c1.5-0.4,3.3-1.2,4.2-1.9C-16.1,179.1-16.4,178.4-17.1,179.1z"/>
			</g>
		</g>
		<g id="形状_13_26_" style="clip-path:url(#SVGID_6_);">
			<g>
				<path style="fill-rule:evenodd;clip-rule:evenodd;fill:#FF9B48;" d="M105.7,181.7c0,0,1.6,0,2.1-0.4c0.5-0.4,0.8-1.3,0.3-1.9
					c-1-1.1-4.1-1.1-7.2-1.9c-2.3-0.6-5.8-1.7-6.8-2.2c-6-1.8-13.1-8.5-26-20.1c-9.9-9.8-20.6-14.2-20.6-14.2s-13.4,12.4,9.1,21.8
					c10.1,4.2,19.6,9.9,24.6,13.3c6.2,4.3,8.2,7.4,10.2,9.2c2.8,2.5,6.8,4.8,7.9,3.9c2.6-2.1-2.9-3.3-2.7-5
					c0.4-3.1,10.4,3.9,11.9,1.4C110.1,183,105.7,181.7,105.7,181.7z"/>
			</g>
		</g>
		<g id="形状_14_26_" style="clip-path:url(#SVGID_6_);">
			<g>
				<path style="fill-rule:evenodd;clip-rule:evenodd;fill:#CC7123;" d="M111.9,180.7c-0.6-0.4-1.8-1.1-2.3-1.6
					c-0.7-0.7-1.1,0-0.4,0.6c0.9,0.7,2.7,1.6,4.2,1.9c0.5,0.1,0.8,0,0.8,0S113.1,181.4,111.9,180.7z"/>
			</g>
		</g>
		
			<radialGradient id="SVGID_7_" cx="-3206.7866" cy="21.293" r="103.0228" gradientTransform="matrix(0.4524 0 0 0.4205 1490.5881 154.589)" gradientUnits="userSpaceOnUse">
			<stop  offset="0" style="stop-color:#FFC07D"/>
			<stop  offset="0.5713" style="stop-color:#FEB162"/>
			<stop  offset="1" style="stop-color:#FEA852"/>
		</radialGradient>
		<path style="clip-path:url(#SVGID_6_);fill-rule:evenodd;clip-rule:evenodd;fill:url(#SVGID_7_);" d="M108.3,270.9
			c-6.7,2.4-20.7,1.5-28.7,1.1c-8.3-0.4-26.1-2.9-29.4-3.8c-7-1.9-3-6.3-2.3-9.4c0.7-3.2,1-6.4,0.9-9.9c-0.1-1.2-0.1-3.3-2.2-3.2
			c-2.2,0.7-4.3,1.1-6.2,1.2c0,0,0,0,0,0c-0.2,0-0.3,0-0.5,0c-0.1,0-0.2,0-0.3,0c-0.1,0-0.2,0-0.3,0c-0.1,0-0.3,0-0.5,0
			c-0.1,0-0.1,0-0.2,0c-0.1,0-0.3,0-0.5,0c-0.1,0-0.2,0-0.2,0c-0.1,0-0.2,0-0.4,0s-0.2,0-0.4,0c-0.1,0-0.2,0-0.2,0
			c-0.2,0-0.3,0-0.5,0c-0.1,0-0.1,0-0.2,0c-0.2,0-0.3,0-0.5,0c-0.1,0-0.2,0-0.3,0c-0.1,0-0.2,0-0.3,0c-0.2,0-0.3,0-0.5,0
			c0,0,0,0,0,0c-1.9-0.2-4-0.6-6.2-1.2c-2-0.1-2.1,2.1-2.2,3.2c-0.2,3.5,0.2,6.7,0.9,9.9c0.7,3.1,4.6,7.5-2.3,9.4
			c-3.3,0.9-22.7,3.3-31.1,3.9c-9,0.6-23.8,0.7-28-1.1c-2.3-1-2.5-7,3.9-10.2c7.9-4.1,41-2.3,43.2-2.4c4.6-0.3,3.7-1.8,3.7-4.1
			c0.1-4.3-3.5-6.5-6.5-8.5c-3-1.9-18.2-8.6-18.2-23.3c0-7.6,2.1-17.8,11.9-32.4c23.9-35.5,24.7-55.2,24.7-55.2l1.9-0.1
			c0.1-0.4,0.1-0.6,0.1-0.6l7.1,0.3l7.1-0.3c0,0,0,0.2,0.1,0.6l1.9,0.1c0,0,0.9,19.8,24.7,55.2c9.8,14.6,11.9,24.8,11.9,32.4
			c0,14.8-15.2,21.4-18.2,23.3c-3,1.9-6.6,4.1-6.5,8.5c0,2.3-0.7,4.4,3.9,4.5c2.2,0,35.1-2,43.1,2C111.8,264,110.7,270,108.3,270.9z
			"/>
		<path style="clip-path:url(#SVGID_6_);fill-rule:evenodd;clip-rule:evenodd;fill:#DD7528;" d="M28,306.9c-7.1,1.9-6.3,5.2-5.2,7.9
			c0.1,0.3,0.3,0.6,0.5,1c0.4,0.1,0.9,0.1,1.3,0.2c-2.5-5.7,1.1-7.4,4.2-8.6C30.1,306.8,29,306.6,28,306.9z"/>
		<path style="clip-path:url(#SVGID_6_);fill-rule:evenodd;clip-rule:evenodd;fill:#DD7528;" d="M28.3,306.6
			c-6.1,1.4-5.2,6.5-4.2,8.9c0.1,0.3,0.2,0.5,0.3,0.8c0.4,0,0.8,0,1.2,0c-1.7-5.2,0.5-7.5,2.3-8.7C28.9,307,30.5,306.1,28.3,306.6z"
			/>
		<path style="clip-path:url(#SVGID_6_);fill-rule:evenodd;clip-rule:evenodd;fill:#DD7528;" d="M162.2,315.7
			c0.1-0.2,0.2-0.5,0.3-0.7c0.8-2.6-0.1-7.2-5.1-8.5c-2.7-0.7-1.6,0.6-0.3,1c3,1,4.5,4.5,3.2,8.5
			C160.9,315.9,161.5,315.8,162.2,315.7z"/>
		<path style="clip-path:url(#SVGID_6_);fill-rule:evenodd;clip-rule:evenodd;fill:#DD7528;" d="M144.5,315.6
			c1.4-3.2,0.2-7.9-3.3-9.2c-1.4-0.3-0.1,0.9,0.9,1.9c1.3,1.4,2,4.7,0.8,7.2c-0.2,0.4-0.3,0.6-0.4,0.8c0.5,0,1,0,1.5,0
			C144.2,316.2,144.4,315.9,144.5,315.6z"/>
		<g id="形状_12_18_" style="clip-path:url(#SVGID_6_);">
			<g>
				
					<linearGradient id="SVGID_8_" gradientUnits="userSpaceOnUse" x1="233.1881" y1="302.8427" x2="232.4634" y2="237.6165" gradientTransform="matrix(1 0 0 1 -195.468 -98.5448)">
					<stop  offset="0" style="stop-color:#FFC28A"/>
					<stop  offset="0.7938" style="stop-color:#FFCD9F"/>
					<stop  offset="1" style="stop-color:#FFD0A5"/>
				</linearGradient>
				<path style="fill-rule:evenodd;clip-rule:evenodd;fill:url(#SVGID_8_);" d="M48.7,161.5c-5-8.1-17.2-7.3-22.1,0.6
					c-5.8,9.5-12.9,35.4-7.9,50.2c4.1,12.2,33,13,37.5,1.3C62.2,197.9,54,170,48.7,161.5z"/>
			</g>
		</g>
		<path style="opacity:0.6;clip-path:url(#SVGID_6_);fill-rule:evenodd;clip-rule:evenodd;fill:#DD7528;" d="M3.7,199.1
			c0,0,13.4,3.3,34.9,3.3c20.3,0,24-1.2,34.7-3.6C73.6,199.2,40.6,256.6,3.7,199.1z"/>
		<g id="形状_11_拷贝_2_18_" style="clip-path:url(#SVGID_6_);">
			<g>
				<path style="fill-rule:evenodd;clip-rule:evenodd;fill:#FFBF80;" d="M72.5,199.2c-0.3,0.2-0.6,0.3-0.9,0.4
					c-9.9,4.4-21.5,5.8-30.7,6.1c-9,0.1-22.3-0.7-33.3-5.1c-1-0.4-2.3-0.8-3.2-1.3c-2.5-1.2-3,1.9-3,3.8c0.1,7.9,1.9,32.8,24.5,41.2
					c0.9,0.6,3.7,2,9.3,2.3c1.8,0.3,3.9,0.2,6,0c0.2,0,0.4,0,0.7,0c3.4-0.4,6.4-1.2,9.2-2.4c0.2-0.1,0.3-0.1,0.3-0.1v0
					c17.2-7.6,22-29.5,23.4-40.2c0.1-0.8,0.2-1.5,0.2-2.2C75.2,198.8,73.3,198.7,72.5,199.2z"/>
			</g>
		</g>
		<path style="opacity:0.6;clip-path:url(#SVGID_6_);fill-rule:evenodd;clip-rule:evenodd;fill:#DD7528;" d="M46.6,134.8
			c-2.6,1.6-6.3,3.7-8.3,4c-3.1,0.4-6.5-0.1-9.9-4c0,0.3-0.1,1.6-0.6,4c1,3.2,3.1,6.5,7.7,7.1c5.4,0.6,9.3-3.7,11.7-7.4
			C46.7,136.1,46.6,134.8,46.6,134.8L46.6,134.8z"/>
		<g id="形状_9_18_" style="clip-path:url(#SVGID_6_);">
			<g>
				<path style="fill-rule:evenodd;clip-rule:evenodd;fill:#FFC07D;" d="M28,74.7C16.6,49.8-0.7,40.2-0.7,40.2s-4.5-2.8-5.1,0.3
					c-6.7,39.1,24.3,47.8,24.3,47.8S39.3,99.7,28,74.7z"/>
			</g>
		</g>
		<g id="形状_10_18_" style="clip-path:url(#SVGID_6_);">
			<g>
				<path style="fill-rule:evenodd;clip-rule:evenodd;fill:#FF9B48;" d="M24.4,80.5C20.2,61.3,4.1,54.7,4.1,54.7s-3.3-2.4-3.4,0.9
					c1.3,24.6,21.9,28.5,21.9,28.5S25.4,84.9,24.4,80.5z"/>
			</g>
		</g>
		<g id="形状_9_拷贝_18_" style="clip-path:url(#SVGID_6_);">
			<g>
				<path style="fill:#FFC07D;" d="M82.4,40.4c-0.6-3.1-5.1-0.3-5.1-0.3s-17.4,9.6-28.7,34.5C37.3,99.6,58,88.2,58,88.2
					S89.1,79.5,82.4,40.4z"/>
			</g>
		</g>
		<g id="形状_10_拷贝_20_" style="clip-path:url(#SVGID_6_);">
			<g>
				<path style="fill:#FF9B48;" d="M72.4,54.7c0,0-16,6.6-20.3,25.8c-1,4.4,1.8,3.7,1.8,3.7s20.6-3.9,21.9-28.5
					C75.8,52.3,72.4,54.7,72.4,54.7z"/>
			</g>
		</g>
		<g id="脸_50_" style="clip-path:url(#SVGID_6_);">
			<g>
				
					<radialGradient id="SVGID_9_" cx="-2778.0115" cy="181.857" r="66.5381" gradientTransform="matrix(0.4524 5.950227e-03 -4.140144e-03 0.3148 1295.7643 96.9277)" gradientUnits="userSpaceOnUse">
					<stop  offset="0" style="stop-color:#FECD97"/>
					<stop  offset="1" style="stop-color:#FFC07A"/>
				</radialGradient>
				<path style="fill:url(#SVGID_9_);" d="M61.3,97c-1.1-3.6-2.2-8.7-3.7-13c-3.3-9.6-11.1-12.8-19.3-12.7C30,71.5,22.1,75,18.9,84
					c-1.5,4.3-2.4,9.4-3.5,13c-1.1,3.6-3.6,18.7,2.6,28.1c0,0.1,2.7,3.3,7.6,8.2c4.1,4.1,6.4,7.4,11.6,7.7c0,0,0.1,0,0.1,0
					c0,0,0.1,0,0.1,0c0.4,0,0.9,0,1.3,0c0.1,0,0.2,0,0.2,0c6.4-0.4,8.6-4.5,12.6-8.1c5.2-4.7,7.2-7.8,7.2-7.9
					C64.9,115.7,62.4,100.5,61.3,97z"/>
			</g>
		</g>
		<path style="clip-path:url(#SVGID_6_);fill-rule:evenodd;clip-rule:evenodd;fill:#66361F;" d="M38,100c-0.1,0.1,9-2.6,12.9-12.4
			c0-0.2,4.1,7.4,10.6,10.4c-0.1-0.4-0.2-0.7-0.3-1c-1-4.2-1.9-8.3-3.4-12.6c-3.3-9.6-11.4-13.1-19.6-13C30,71.5,22.1,75,18.9,84
			c-1.5,4.3-2.8,9.8-3.5,13c0,0.2-0.1,0.3-0.1,0.5c2.2-0.3,6.2-2.1,10-9.5C25,88,27,94.6,38,100z"/>
		<path style="clip-path:url(#SVGID_6_);fill-rule:evenodd;clip-rule:evenodd;fill:#E5432E;" d="M60.1,92.8c-0.4-1.6-0.9-3.3-1.3-5
			c-3.2-4.2-9.9-10.9-20.2-10.8c-11.9,0.1-17.8,6.5-20.7,10.6c-0.4,1.6-0.8,3.2-1.2,4.7c2.8-2.9,10.3-9.3,21.9-9.3
			C48.9,83,56.3,89.2,60.1,92.8z"/>
		<g id="形状_3_拷贝_18_" style="clip-path:url(#SVGID_6_);">
			<g>
				<path style="fill-rule:evenodd;clip-rule:evenodd;fill:#E5432E;" d="M59.8,45.9c-0.4-0.6-0.8-0.4-1.2-0.3
					c-14.5,6.8-18.9,19.6-20.2,25.9c-1.9-7.7-7.1-19.6-20.3-26c-0.5-0.3-1.2-0.4-1.4,0.5c0,0-4.7,21.4,17,32.4
					c-4.5,3.4-9.3,7.9,4.6,2.1c15.1,6.3,8.8,1.2,4.5-2C64.6,67.5,59.8,45.9,59.8,45.9z"/>
			</g>
		</g>
		<g id="形状_73_18_" style="clip-path:url(#SVGID_6_);">
			<g>
				<path style="fill-rule:evenodd;clip-rule:evenodd;fill:#AD4023;" d="M37.6,69c0,0-1,2.2-0.8,4.9c0.2,3.2,0.9,4.7,1,3.5
					c0-0.9,0.4-4.1,0.6-5.9C38.5,71,37.6,69,37.6,69z"/>
			</g>
		</g>
		<g id="形状_82_18_" style="clip-path:url(#SVGID_6_);">
			<g>
				<path style="fill-rule:evenodd;clip-rule:evenodd;fill:#CA4825;" d="M47.6,78.7c-0.6-0.3-2.9-1.3-3.3-1.1
					c-2,1.3-4.2,3.5-1.2,2.7C45.2,79.9,48.2,79.1,47.6,78.7z M32.4,77.8c-0.8-0.2-3.4,0.9-3.4,0.9s1,0.5,2.2,0.9
					c1.2,0.3,3.8,1.3,3.7,0.6C34.7,79.3,33.6,78.1,32.4,77.8z"/>
			</g>
		</g>
		<path style="clip-path:url(#SVGID_6_);fill-rule:evenodd;clip-rule:evenodd;fill:#FFCE99;" d="M28.8,111.3
			c-2.5-6.1-6.2-7.4-8.8-6.9c-4.9,0.9-5.5,3.4-5.5,3.2s-0.1-4.4,4-5.4c3.8-0.9,7.6,0.6,9.2,3.2c1.5,2.3,1.4,5.9,1.4,5.9"/>
		<path style="clip-path:url(#SVGID_6_);fill-rule:evenodd;clip-rule:evenodd;fill:#FFCE99;" d="M47.5,111.3
			c2.5-6.1,6.2-7.4,8.8-6.9c4.9,0.9,5.5,3.4,5.5,3.2c0-0.1,0.1-4.4-4-5.4c-3.8-0.9-7.6,0.6-9.2,3.2c-1.5,2.3-1.4,5.9-1.4,5.9"/>
		<g id="形状_4_50_" style="clip-path:url(#SVGID_6_);">
			<g>
				<path style="fill:#FFFFFF;" d="M23,104.8c-2-0.9-6.2-0.5-7.8,0.9c0,0-2.5,10.2,6.5,11.1c4.4,0.2,7-2.2,7.4-4.7
					C29.5,109.4,25.3,105.9,23,104.8z"/>
			</g>
		</g>
		<g id="形状_6_50_" style="clip-path:url(#SVGID_6_);">
			<g>
				<path style="fill-rule:evenodd;clip-rule:evenodd;fill:#512A15;" d="M27.3,107.2c0,0-2.3-3.1-5.3-3.9c-1.1-0.3-3.5,0.3-3.5,0.3
					s-3.6,3-0.9,8c1.6,2.6,4.1,3.7,6.3,3.5c2.7-0.3,4.3-2.2,4.5-4.3C28.6,108.7,27.3,107.2,27.3,107.2z"/>
			</g>
		</g>
		<g id="形状_48_18_" style="clip-path:url(#SVGID_6_);">
			<g>
				<path style="fill:#FFFFFF;" d="M16.7,111.2c-0.4,0.8,0,1.8,0.7,1.9c1.3,0.3,2.8-0.9,2.6-2.1C19.9,110.2,17.3,110.1,16.7,111.2z"
					/>
			</g>
		</g>
		<g id="形状_36_副本_50_" style="clip-path:url(#SVGID_6_);">
			<g>
				<path style="fill-rule:evenodd;clip-rule:evenodd;fill:#A85726;" d="M26.2,98.9c-3.3-1.4-6.7-0.9-6.1,0.4
					c0.2,0.6,1.9-0.4,4.6,0.4c3.7,1.2,3.5,3.2,4.4,3C30.5,102.3,28.1,99.7,26.2,98.9z"/>
			</g>
		</g>
		<g id="形状_4_27_" style="clip-path:url(#SVGID_6_);">
			<g>
				<path style="fill:#FFFFFF;" d="M61.5,105.8c-1.6-1.4-5.8-1.7-7.8-0.9c-4.8,1.8-6.5,4.6-6.1,7.3c0.4,2.5,3,4.9,7.4,4.7
					C63.9,115.9,61.5,105.8,61.5,105.8z"/>
			</g>
		</g>
		<g id="形状_6_27_" style="clip-path:url(#SVGID_6_);">
			<g>
				<path style="fill-rule:evenodd;clip-rule:evenodd;fill:#512A15;" d="M58.3,104.2c0,0-2-0.5-3.1-0.3c-3,0.7-5.5,2.6-5.5,2.6
					c0,0-0.9,3.3-0.4,4.7c1,2.6,1.9,3.8,4.6,3.9c2.2,0.1,4.7-0.7,5.7-3.9C60.8,107.5,58.3,104.2,58.3,104.2z"/>
			</g>
		</g>
		<g id="形状_48_副本_18_" style="clip-path:url(#SVGID_6_);">
			<g>
				<path style="fill:#FFFFFF;" d="M52,111.3c-0.6-1.1-3,0.2-3.1,1c-0.2,1.3,0.5,1.7,1.5,1.4C51.6,113.5,52.5,112.3,52,111.3z"/>
			</g>
		</g>
		<g id="形状_36_副本_27_" style="clip-path:url(#SVGID_6_);">
			<g>
				<path style="fill-rule:evenodd;clip-rule:evenodd;fill:#A85726;" d="M50.5,98.9c-1.9,0.8-4.3,2.9-3.3,3.7c1,0.7,1.6-1.6,4.2-2.5
					c3.2-1.1,5.6,0.1,5.7-0.7C57.4,98.1,53.8,97.6,50.5,98.9z"/>
			</g>
		</g>
		<g id="Shape_2_50_" style="clip-path:url(#SVGID_6_);">
			<g>
				<path style="fill-rule:evenodd;clip-rule:evenodd;fill:#9C6342;" d="M60.4,114.6c0.9-1.4,1-2.7,0.8-2.2
					c-0.6,1.2-1.4,2.6-3.2,3.4c-1.7,0.8-3.7,0.8-5.1,0.9c-1.2,0,2.4,0.9,5.1-0.1c0.2,0.1,0.5,0.2,0.8,0.3c0.3,0.2,1,0.6,1,0.4
					c-0.1-0.4-0.3-1-0.6-1.3c0.3-0.2,0.5-0.4,0.7-0.6c0.1,0,0.2,0,0.4,0.1c0.5,0.1,1.1,0.7,1.1,0.4
					C61.3,115.4,60.9,114.9,60.4,114.6z"/>
			</g>
		</g>
		<g id="形状_65_副本_50_" style="clip-path:url(#SVGID_6_);">
			<g>
				<path style="fill-rule:evenodd;clip-rule:evenodd;fill:#713D1F;" d="M64.9,104.6c-0.2,0.3-0.7,0.8-1.3,1.1
					c-0.5,0.2-1.3,0.4-2,0.2c0,0,0-0.1-0.1-0.1c-0.5-1-2-2-3.5-2.3c-2.4-0.5-4.5-0.2-6.3,0.6c-2.3,1.1-4,3.2-4.5,6.1
					c-0.2,1.2,0.1,1.9,0.4,0.9c0.9-2.6,1.7-4,4.1-5.2c1.8-1,4.1-1.7,7.5-0.1c1.1,0.6,1.8,1.7,2,2.5c0.1,0.3,0.4,1.3,0.5,0.6
					c0-0.3,0.1-0.6,0.1-1c0.2,0,0.6,0,1.2-0.2c0.5-0.2,1.3-0.8,1.6-1.5C65.2,105.3,65.2,104.1,64.9,104.6z"/>
			</g>
		</g>
		<g id="Shape_2_27_" style="clip-path:url(#SVGID_6_);">
			<g>
				<path style="fill-rule:evenodd;clip-rule:evenodd;fill:#9C6342;" d="M23.6,116.6c-1.4,0-3.4-0.1-5.1-0.9
					c-1.8-0.8-2.6-2.2-3.2-3.4c-0.3-0.5-0.1,0.9,0.8,2.2c-0.5,0.3-0.9,0.8-0.9,1.2c0,0.3,0.5-0.3,1.1-0.4c0.2,0,0.3,0,0.4-0.1
					c0.2,0.2,0.4,0.4,0.7,0.6c-0.3,0.3-0.6,0.9-0.6,1.3c0,0.2,0.6-0.2,1-0.4c0.3-0.2,0.6-0.3,0.8-0.3
					C21.1,117.5,24.8,116.6,23.6,116.6z"/>
			</g>
		</g>
		<g id="形状_65_副本_27_" style="clip-path:url(#SVGID_6_);">
			<g>
				<path style="fill-rule:evenodd;clip-rule:evenodd;fill:#713D1F;" d="M29,110.1c-0.5-2.8-2.1-5-4.5-6.1c-1.8-0.8-3.8-1.1-6.3-0.6
					c-1.4,0.3-2.7,1.2-3.2,1.9c-0.1,0.2-0.2,0.3-0.3,0.5c0,0,0,0,0,0c-0.7,0.3-1.6,0.1-2.1-0.2c-0.6-0.3-1.2-0.8-1.3-1.1
					c-0.3-0.5-0.3,0.7,0.1,1.5c0.4,0.7,1.2,1.3,1.6,1.5c0.6,0.3,1.1,0.3,1.3,0.2c0,0.4,0,0.7,0,1c0.1,0.6,0.4-0.1,0.5-0.3
					c0.4-1.2,0.8-2.3,2-2.8c3.4-1.7,5.7-0.9,7.5,0.1c2.4,1.3,3.2,2.9,4.1,5.2C29,112.1,29.2,111.3,29,110.1z"/>
			</g>
		</g>
		<g id="腮红2_18_" style="clip-path:url(#SVGID_6_);">
			<g>
				<path style="fill-rule:evenodd;clip-rule:evenodd;fill:#FFA083;" d="M22.7,119.7c-3.5-0.4-5.1,0.8-5.1,1.9
					c0,0.9,1.3,2.7,4.6,2.9c4.1,0.2,5.3-1.1,5.4-1.8C27.6,121.9,27.1,120.2,22.7,119.7z"/>
			</g>
		</g>
		<g id="腮红2_副本_18_" style="clip-path:url(#SVGID_6_);">
			<g>
				<path style="fill-rule:evenodd;clip-rule:evenodd;fill:#FFA083;" d="M53.9,119.7c-4.3,0.5-4.9,2.2-4.8,2.9c0,0.7,1.3,2,5.4,1.8
					c3.3-0.2,4.5-2,4.6-2.9C59,120.5,57.4,119.3,53.9,119.7z"/>
			</g>
		</g>
		<path style="clip-path:url(#SVGID_6_);fill-rule:evenodd;clip-rule:evenodd;fill:#512A15;" d="M38,138.6c-2.2,0-5.8-2-5.5-4.3
			c0.2-1.8,2-2.4,5.5-2.4c3.6,0,5.4,0.6,5.6,2.4C43.8,136.4,40.8,138.6,38,138.6z"/>
		<g id="形状_20_18_" style="clip-path:url(#SVGID_6_);">
			<g>
				<path style="fill:#FCEACB;" d="M29.7,178.6c-6.7-5.2-15-1.8-15-0.5c0.5,14.1,14,12.7,14,12.7c4.7-0.5,5.2-3.8,5.2-3.8
					S34.2,182,29.7,178.6z"/>
			</g>
		</g>
		<g id="形状_21_18_" style="clip-path:url(#SVGID_6_);">
			<g>
				<path style="fill:#FFBD99;" d="M32,186.3c-0.9-4.8-10.9-6.4-10.7-4.5c0.5,7.9,9.3,7.2,9.3,7.2S32.4,188.8,32,186.3z"/>
			</g>
		</g>
		<g id="形状_20_拷贝_18_" style="clip-path:url(#SVGID_6_);">
			<g>
				<path style="fill:#FCEACB;" d="M45.9,179.1c-4.6,4.2-3.2,9.2-3.2,9.2s0.3,1.9,5.1,2.4c0,0,13.5,1.4,14-12.7
					C61.7,176.7,53.2,172.5,45.9,179.1z"/>
			</g>
		</g>
		<g id="形状_21_拷贝_18_" style="clip-path:url(#SVGID_6_);">
			<g>
				<path style="fill-rule:evenodd;clip-rule:evenodd;fill:#FFBD99;" d="M44.4,186.3c-0.3,2.5,1.4,2.8,1.4,2.8s8.8,0.7,9.3-7.2
					C55.3,179.9,45.3,181.5,44.4,186.3z"/>
			</g>
		</g>
		<g id="形状_23_18_" style="opacity:0.4;clip-path:url(#SVGID_6_);">
			<g>
				<path style="fill-rule:evenodd;clip-rule:evenodd;fill:#DD7528;" d="M48.3,206.4c-5.4-1-20.2-2-21.9,1.7
					c-1.6,3.7-5.4,1.9-4.6,12.4c0,0,1.3,6.7,6.5,5.4c1.6-0.6,2.2-2.8,2.2-5c0-2.2,0.9-2.3,2.9-2.3c4.5,0.1,7,0.5,10.1-1.5
					c1.7-1.1,2.8,1.4,2.5,4.1c-0.3,3.1,0.3,4.4,2.8,4.9c2.3,0.5,4.2-0.5,4.9-2.9c0.7-2.5,0.9-5.2,0.9-5.2S53.7,207.4,48.3,206.4z"/>
			</g>
		</g>
		<path style="clip-path:url(#SVGID_6_);fill-rule:evenodd;clip-rule:evenodd;fill:#FCEBCE;" d="M49.2,199.2c0,0,6,4.1,5.7,17.5
			c-0.2,4.6-2.4,6.9-4.8,6.8c-2.4-0.1-2.6-2.7-2.3-5.4c0.1-1.1,0.4-4.5-0.8-9.3C45.8,203.9,49.2,199.2,49.2,199.2z"/>
		<path style="clip-path:url(#SVGID_6_);fill-rule:evenodd;clip-rule:evenodd;fill:#FCEBCE;" d="M25.9,200.8c0,0-4.8,4.6-4.4,15.6
			c0.2,4.6,2.3,7.2,4.7,7.1c2.4-0.2,2.5-2.1,2.4-4.2c-0.1-1.9-0.5-4.9,0.8-9.7C30.6,204.7,25.9,200.8,25.9,200.8z"/>
		<path style="clip-path:url(#SVGID_6_);fill-rule:evenodd;clip-rule:evenodd;fill:#F6BF96;" d="M49.7,220.2c-0.1,0.9-0.2,2.4-0.5,3
			c0.1,0.1,0.2,0.1,0.4,0.1c0.1-0.4,0.3-1,0.4-1.6C50.2,220.3,49.8,218.7,49.7,220.2z"/>
		<path style="clip-path:url(#SVGID_6_);fill-rule:evenodd;clip-rule:evenodd;fill:#F6BF96;" d="M51.6,220.2c0,0.7,0,2.2-0.4,3.1
			c0.2-0.1,0.4-0.1,0.6-0.2c0.2-0.5,0.2-1.2,0.3-1.7C52.1,220.3,51.6,219.3,51.6,220.2z"/>
		<path style="clip-path:url(#SVGID_6_);fill-rule:evenodd;clip-rule:evenodd;fill:#F6BF96;" d="M27.1,221.8
			c-0.2-0.8-0.6-2.6-0.7-2.1c-0.1,0.9,0.1,2.1,0.4,3c0.1,0.2,0.2,0.5,0.3,0.6c0.2-0.1,0.4-0.2,0.6-0.3
			C27.4,222.7,27.2,222.3,27.1,221.8z"/>
		<path style="clip-path:url(#SVGID_6_);fill-rule:evenodd;clip-rule:evenodd;fill:#F6BF96;" d="M25.2,222c-0.5-1.4-0.6-2.9-0.7-1.8
			c-0.1,1.2,0.2,2.2,0.7,3c0,0.1,0.1,0.1,0.1,0.2c0.2,0,0.3,0,0.5,0C25.6,223,25.4,222.6,25.2,222z"/>
		<g id="脸_27_" style="clip-path:url(#SVGID_6_);">
			<g>
				<path style="fill:#FCEBCE;" d="M50.1,195.2c-2.3-8.3-7.8-10.4-11.9-10.4c-4.1-0.1-10.2,2.1-12.1,10.2c-0.4,2.8-2,5.1-1.4,8.6
					c0.5,3.6,1.7,5.3,6.7,8.6c1,0.8,1.8,0.8,3,1.7c1.2,0.9,2.6,1.3,5,1c0,0,0.1,0,0.1,0c1-0.2,1.7-0.5,2.4-1c1.2-0.9,2-0.9,3-1.7
					c5-3.4,6.2-5.1,6.7-8.6C52.1,200.1,50.6,196.9,50.1,195.2z"/>
			</g>
		</g>
		<g id="形状_77_18_" style="clip-path:url(#SVGID_6_);">
			<g>
				
					<ellipse transform="matrix(8.524854e-02 -0.9964 0.9964 8.524854e-02 -180.1495 217.1994)" style="fill-rule:evenodd;clip-rule:evenodd;fill:#FFDECC;" cx="28.2" cy="206.7" rx="1.1" ry="1.9"/>
			</g>
		</g>
		<g id="形状_77_副本_18_" style="clip-path:url(#SVGID_6_);">
			<g>
				
					<ellipse transform="matrix(-3.273038e-02 -0.9995 0.9995 -3.273038e-02 -157.4577 261.0328)" style="fill:#FFDECC;" cx="47.6" cy="206.7" rx="1.1" ry="1.9"/>
			</g>
		</g>
		<path style="clip-path:url(#SVGID_6_);fill:#F7CC9D;" d="M30.8,191.4c0.4,1.7,1.3,2,2.4,2.2c1.3,0.2,2.1-1,2.5-1.6
			c0,0,0.9,1.7,2.1,2.1c1.3,0.4,2.2,0,2.7-0.9c0.3-0.5,0.2-1.4,0.2-1.4s1.1,1.2,2.7,0.7c1-0.3,1.1-1.1,1.1-1.7
			c0.1-0.6-0.1-1.1-0.1-1.1s1.1,1.2,0.8,2.6c-0.2,1-1.1,1.7-2.1,1.5c-0.7-0.1-1.9-0.9-1.9-0.9s-0.1,1.3-1,1.9
			c-0.9,0.6-2.2,0.5-3,0.1c-0.8-0.5-1.6-1.6-1.6-1.6s-0.5,1.1-1.6,1.6c-0.7,0.3-2,0.4-2.8-0.8C30.4,192.9,30.8,191.4,30.8,191.4z"/>
		<g id="形状_75_18_" style="clip-path:url(#SVGID_6_);">
			<g>
				<path style="fill-rule:evenodd;clip-rule:evenodd;fill:#552F19;" d="M28.6,202.2c-2-0.2-2.6,0-2.5,0.4c0.1,0.3,0.5-0.1,2.4,0.3
					c3.1,0.6,4.4,2.7,4.7,1.8C33.6,203.9,31.1,202.5,28.6,202.2z"/>
			</g>
		</g>
		<g id="形状_75_副本_18_" style="clip-path:url(#SVGID_6_);">
			<g>
				<path style="fill-rule:evenodd;clip-rule:evenodd;fill:#713D1F;" d="M47.7,202.2c-2.4,0.2-5,1.6-4.7,2.6
					c0.3,0.9,1.7-1.2,4.7-1.8c1.9-0.4,2.3,0,2.4-0.3C50.4,202.2,49.8,202.1,47.7,202.2z"/>
			</g>
		</g>
		<g id="形状_19_18_" style="clip-path:url(#SVGID_6_);">
			<g>
				<path style="fill:#57301B;" d="M38,211.7c-3.9,0-3.5,1.2-3.5,1.2s0.7,2.4,3.7,2.4c3-0.1,3.5-2.4,3.5-2.4S41.9,211.7,38,211.7z"
					/>
			</g>
		</g>
	</g>
	<g>
		<g>
			<path style="fill:#FF6600;" d="M134.6,126.9h13v35.2h1v-35.2h13v-1h-27V126.9z M180.7,137.8c-0.8-0.8-1.8-1.4-2.9-1.8
				c-1.1-0.4-2.4-0.6-3.7-0.6c-1.3,0-2.5,0.2-3.5,0.5c-1,0.4-2,0.9-2.8,1.5c-0.8,0.6-1.5,1.4-2,2.2c-0.5,0.8-0.9,1.8-1.1,2.8h-0.1
				v-16.6h-1v36.2h1v-14.8c0-1.5,0.2-2.8,0.6-4.2c0.4-1.3,1-2.5,1.8-3.5c0.8-1,1.8-1.8,3-2.4c1.2-0.6,2.6-0.9,4.1-0.9
				c1.1,0,2.2,0.2,3.2,0.5c1,0.3,1.9,0.8,2.6,1.5c0.8,0.7,1.4,1.6,1.8,2.6c0.4,1.1,0.7,2.4,0.7,3.9v17.1h1v-17.3
				c0-1.5-0.2-2.9-0.7-4C182.2,139.6,181.6,138.6,180.7,137.8z M208.5,161c-0.3-0.1-0.6-0.2-0.8-0.5c-0.2-0.2-0.3-0.6-0.3-1.1v-16.6
				c0-1.4-0.3-2.6-0.8-3.5c-0.5-0.9-1.1-1.7-1.9-2.3c-0.8-0.6-1.7-1-2.7-1.2c-1-0.2-2.1-0.4-3.3-0.4c-1.6,0-3,0.2-4.2,0.7
				c-1.2,0.4-2.2,1-3,1.8c-0.8,0.8-1.5,1.7-1.9,2.8c-0.4,1.1-0.7,2.2-0.8,3.4h1c0.2-2.4,1-4.3,2.5-5.7c1.5-1.3,3.7-2,6.4-2
				c1.7,0,3.1,0.2,4.1,0.7c1,0.5,1.8,1,2.3,1.7c0.5,0.7,0.9,1.5,1,2.3c0.1,0.8,0.2,1.7,0.2,2.4c0,1-0.2,1.7-0.6,2.3
				c-0.4,0.5-1,0.9-1.8,1.2c-0.8,0.3-1.9,0.4-3.2,0.5c-1.3,0.1-2.8,0.2-4.6,0.3c-1.1,0.1-2.2,0.2-3.2,0.4c-1.1,0.2-2,0.6-2.9,1.2
				c-0.8,0.6-1.5,1.3-2.1,2.3c-0.5,1-0.8,2.3-0.8,3.9c0,2.3,0.8,4.1,2.4,5.2c1.6,1.2,3.7,1.7,6.3,1.7c1.4,0,2.6-0.2,3.8-0.5
				c1.1-0.4,2.2-0.8,3.1-1.4c0.9-0.6,1.6-1.3,2.2-2.1c0.6-0.8,1-1.6,1.3-2.4h0.1v3.4c0,1,0.3,1.6,0.8,2c0.6,0.4,1.2,0.5,2,0.5h1.5
				v-1c-0.3,0-0.7,0.1-1.1,0.1C209.3,161.1,208.9,161.1,208.5,161z M206.4,151.6c0,1.3-0.2,2.5-0.7,3.8c-0.5,1.2-1.1,2.3-2,3.2
				c-0.9,0.9-2,1.7-3.3,2.3c-1.3,0.6-2.8,0.9-4.5,0.9c-1.4,0-2.6-0.2-3.6-0.5c-1-0.4-1.7-0.8-2.4-1.4c-0.6-0.6-1-1.2-1.3-1.9
				c-0.3-0.7-0.4-1.5-0.4-2.2c0-1.4,0.2-2.5,0.7-3.4c0.4-0.9,1-1.5,1.8-2c0.7-0.5,1.6-0.8,2.6-1c1-0.2,2-0.3,3-0.4
				c1-0.1,2.1-0.1,3.1-0.2c1.1,0,2.1-0.1,3-0.3c0.9-0.1,1.7-0.3,2.4-0.6c0.7-0.3,1.2-0.6,1.6-1.1h0.1V151.6z M230.5,137.8
				c-0.8-0.8-1.8-1.4-2.9-1.8c-1.1-0.4-2.4-0.6-3.7-0.6c-1.3,0-2.5,0.2-3.5,0.5c-1,0.4-2,0.9-2.8,1.5c-0.8,0.6-1.5,1.4-2,2.2
				c-0.5,0.8-0.9,1.8-1.1,2.8h-0.1V136h-1v26.1h1v-14.8c0-1.5,0.2-2.8,0.6-4.2c0.4-1.3,1-2.5,1.8-3.5c0.8-1,1.8-1.8,3-2.4
				c1.2-0.6,2.6-0.9,4.1-0.9c1.1,0,2.2,0.2,3.2,0.5c1,0.3,1.9,0.8,2.6,1.5c0.8,0.7,1.4,1.6,1.8,2.6c0.4,1.1,0.7,2.4,0.7,3.9v17.1h1
				v-17.3c0-1.5-0.2-2.9-0.7-4C231.9,139.6,231.3,138.6,230.5,137.8z M259.1,136h-1.5l-18,15v-25.1h-1v36.2h1v-9.8l6.7-5.6
				l12.2,15.4h1.4l-12.8-16.1L259.1,136z M283.3,160.7L273,136h-1.1l10.8,25.8l-1.9,4.8c-0.3,0.8-0.6,1.4-1,1.9s-0.8,0.8-1.2,1
				c-0.5,0.2-1,0.4-1.6,0.4c-0.6,0.1-1.4,0.1-2.3,0.1v1c0.8,0,1.5,0,2.2-0.1c0.7-0.1,1.3-0.2,1.9-0.4c0.6-0.2,1.1-0.6,1.6-1.1
				c0.5-0.5,0.9-1.2,1.2-2.1l12-31.3h-1.1L283.3,160.7z M315,139.6c-1-1.2-2.2-2.3-3.7-3c-1.5-0.8-3.1-1.1-5-1.1
				c-1.9,0-3.6,0.4-5.1,1.1c-1.5,0.8-2.7,1.8-3.7,3c-1,1.3-1.7,2.7-2.3,4.3c-0.5,1.6-0.8,3.4-0.8,5.1c0,1.8,0.3,3.5,0.8,5.1
				c0.5,1.6,1.3,3.1,2.3,4.3c1,1.3,2.2,2.2,3.7,3c1.5,0.7,3.1,1.1,5,1.1c1.9,0,3.6-0.4,5.1-1.1c1.5-0.7,2.7-1.7,3.7-3
				c1-1.2,1.7-2.7,2.3-4.3c0.5-1.6,0.8-3.4,0.8-5.1c0-1.8-0.3-3.5-0.8-5.1C316.7,142.2,316,140.8,315,139.6z M316.3,153.8
				c-0.5,1.5-1.1,2.9-2.1,4c-0.9,1.2-2,2.1-3.4,2.8c-1.3,0.7-2.9,1-4.6,1c-1.8,0-3.3-0.3-4.6-1c-1.3-0.7-2.5-1.6-3.4-2.8
				c-0.9-1.2-1.6-2.5-2.1-4c-0.5-1.5-0.7-3.1-0.7-4.8c0-1.6,0.2-3.2,0.7-4.7c0.5-1.5,1.1-2.9,2.1-4c0.9-1.2,2-2.1,3.4-2.8
				c1.3-0.7,2.9-1.1,4.6-1.1c1.7,0,3.3,0.4,4.6,1.1c1.3,0.7,2.5,1.6,3.4,2.8c0.9,1.2,1.6,2.5,2.1,4c0.5,1.5,0.7,3.1,0.7,4.7
				C317,150.7,316.8,152.3,316.3,153.8z M341,136v14.8c0,1.5-0.2,2.8-0.6,4.2c-0.4,1.3-1,2.5-1.8,3.5c-0.8,1-1.8,1.8-3,2.4
				c-1.2,0.6-2.6,0.9-4.1,0.9c-1.1,0-2.2-0.2-3.2-0.5c-1-0.3-1.9-0.8-2.6-1.5c-0.8-0.7-1.4-1.6-1.8-2.6c-0.4-1.1-0.7-2.4-0.7-3.9
				V136h-1v17.3c0,1.5,0.2,2.9,0.7,4c0.5,1.2,1.1,2.1,1.9,2.9c0.8,0.8,1.8,1.4,2.9,1.8c1.1,0.4,2.4,0.6,3.7,0.6c2.6,0,4.7-0.7,6.3-2
				c1.6-1.3,2.6-3,3.1-5h0.1v6.4h1V136H341z"/>
		</g>
	</g>
</g>
</svg>
