<?xml version="1.0" encoding="utf-8"?>
<!-- Generator: Adobe Illustrator 17.1.0, SVG Export Plug-In . SVG Version: 6.00 Build 0)  -->
<!DOCTYPE svg PUBLIC "-//W3C//DTD SVG 1.1//EN" "http://www.w3.org/Graphics/SVG/1.1/DTD/svg11.dtd">
<svg version="1.1" id="图层_1" xmlns="http://www.w3.org/2000/svg" xmlns:xlink="http://www.w3.org/1999/xlink" x="0px" y="0px"
	 viewBox="0 0 827.7 604.7" style="enable-background:new 0 0 827.7 604.7;" xml:space="preserve">
<rect x="7.7" y="156.9" style="fill:#FFFFFF;stroke:#D8D8D8;stroke-miterlimit:10;" width="301.7" height="441.9"/>
<rect x="519.5" y="156.7" style="fill:#FFFFFF;stroke:#D8D8D8;stroke-miterlimit:10;" width="301.7" height="441.9"/>
<circle style="fill:none;stroke:#D8D8D8;" cx="98.7" cy="187.7" r="4.2"/>
<circle style="fill:none;stroke:#D8D8D8;" cx="219.4" cy="187.7" r="4.2"/>
<rect x="361.4" y="156" style="fill:#FF6600;" width="103.7" height="441.8"/>
<g>
	<path style="fill:#FFFFFF;" d="M392.7,585.1h-0.5l-0.6-2.3c0-0.1,0-0.2,0-0.3c0,0,0,0.1,0,0.2c0,0.1,0,0.1,0,0.2l-0.6,2.3h-0.5
		l-0.9-3h0.5l0.7,2.4c0,0,0,0.1,0,0.2c0,0,0,0.1,0,0.1h0c0-0.1,0-0.1,0-0.2c0,0,0,0,0-0.1l0.6-2.4h0.5l0.6,2.4c0,0,0,0.1,0,0.1
		c0,0.1,0,0.1,0,0.1h0c0-0.1,0-0.1,0-0.2l0.7-2.4h0.5L392.7,585.1z"/>
	<path style="fill:#FFFFFF;" d="M396.9,585.1h-0.5l-0.6-2.3c0-0.1,0-0.2,0-0.3c0,0,0,0.1,0,0.2c0,0.1,0,0.1,0,0.2l-0.6,2.3h-0.5
		l-0.9-3h0.5l0.7,2.4c0,0,0,0.1,0,0.2c0,0,0,0.1,0,0.1h0c0-0.1,0-0.1,0-0.2c0,0,0,0,0-0.1l0.6-2.4h0.5l0.6,2.4c0,0,0,0.1,0,0.1
		c0,0.1,0,0.1,0,0.1h0c0-0.1,0-0.1,0-0.2l0.7-2.4h0.5L396.9,585.1z"/>
	<path style="fill:#FFFFFF;" d="M401.1,585.1h-0.5l-0.6-2.3c0-0.1,0-0.2,0-0.3c0,0,0,0.1,0,0.2c0,0.1,0,0.1,0,0.2l-0.6,2.3h-0.5
		l-0.9-3h0.5l0.7,2.4c0,0,0,0.1,0,0.2c0,0,0,0.1,0,0.1h0c0-0.1,0-0.1,0-0.2c0,0,0,0,0-0.1l0.6-2.4h0.5l0.6,2.4c0,0,0,0.1,0,0.1
		c0,0.1,0,0.1,0,0.1h0c0-0.1,0-0.1,0-0.2l0.7-2.4h0.5L401.1,585.1z"/>
	<path style="fill:#FFFFFF;" d="M402.7,585.1v-0.6h0.6v0.6H402.7z"/>
	<path style="fill:#FFFFFF;" d="M404.5,583l-0.4-0.1c0.2-0.6,0.6-0.9,1.4-0.9c0.8,0,1.2,0.4,1.2,1.2v1.2c0,0.3,0,0.6,0.2,0.7h-0.4
		c-0.1-0.1-0.1-0.2-0.1-0.4c-0.2,0.3-0.6,0.5-1.2,0.5c-0.6,0-1-0.3-1-0.8c0-0.6,0.4-0.9,1.1-1c0.6-0.1,0.9-0.1,1.1-0.2
		c0-0.6-0.2-0.8-0.8-0.8C404.9,582.4,404.6,582.6,404.5,583z M406.2,583.9v-0.4c-0.1,0.1-0.4,0.2-0.9,0.2c-0.6,0.1-0.8,0.3-0.8,0.6
		c0,0.3,0.2,0.5,0.7,0.5C405.8,584.8,406.1,584.5,406.2,583.9z"/>
	<path style="fill:#FFFFFF;" d="M407.4,581h0.4v4.1h-0.4V581z"/>
	<path style="fill:#FFFFFF;" d="M408.6,581h0.4v0.6h-0.4V581z M408.6,582.1h0.4v3h-0.4V582.1z"/>
	<path style="fill:#FFFFFF;" d="M413.9,583.1v2h-0.4v-1.9c0-0.6-0.2-0.9-0.6-0.9c-0.5,0-0.7,0.3-0.8,0.9v1.9h-0.4v-1.9
		c0-0.6-0.2-0.9-0.6-0.9c-0.5,0-0.7,0.3-0.8,0.8v1.9h-0.4v-3h0.4v0.5c0.2-0.4,0.5-0.5,0.8-0.5c0.5,0,0.8,0.2,0.9,0.6
		c0.2-0.4,0.5-0.6,0.9-0.6C413.6,582,414,582.4,413.9,583.1z"/>
	<path style="fill:#FFFFFF;" d="M415,583l-0.4-0.1c0.2-0.6,0.6-0.9,1.4-0.9c0.8,0,1.2,0.4,1.2,1.2v1.2c0,0.3,0,0.6,0.2,0.7h-0.4
		c-0.1-0.1-0.1-0.2-0.1-0.4c-0.2,0.3-0.6,0.5-1.2,0.5c-0.6,0-1-0.3-1-0.8c0-0.6,0.4-0.9,1.1-1c0.6-0.1,0.9-0.1,1.1-0.2
		c0-0.6-0.2-0.8-0.8-0.8C415.4,582.4,415.1,582.6,415,583z M416.7,583.9v-0.4c-0.1,0.1-0.4,0.2-0.9,0.2c-0.6,0.1-0.8,0.3-0.8,0.6
		c0,0.3,0.2,0.5,0.7,0.5C416.3,584.8,416.6,584.5,416.7,583.9z"/>
	<path style="fill:#FFFFFF;" d="M422,583.1v2h-0.4v-1.9c0-0.6-0.2-0.9-0.6-0.9c-0.5,0-0.7,0.3-0.8,0.9v1.9h-0.4v-1.9
		c0-0.6-0.2-0.9-0.6-0.9c-0.5,0-0.7,0.3-0.8,0.8v1.9h-0.4v-3h0.4v0.5c0.2-0.4,0.5-0.5,0.8-0.5c0.5,0,0.8,0.2,0.9,0.6
		c0.2-0.4,0.5-0.6,0.9-0.6C421.7,582,422,582.4,422,583.1z"/>
	<path style="fill:#FFFFFF;" d="M423.1,583l-0.4-0.1c0.2-0.6,0.6-0.9,1.4-0.9c0.8,0,1.2,0.4,1.2,1.2v1.2c0,0.3,0,0.6,0.2,0.7h-0.4
		c-0.1-0.1-0.1-0.2-0.1-0.4c-0.2,0.3-0.6,0.5-1.2,0.5c-0.6,0-1-0.3-1-0.8c0-0.6,0.4-0.9,1.1-1c0.6-0.1,0.9-0.1,1.1-0.2
		c0-0.6-0.2-0.8-0.8-0.8C423.5,582.4,423.2,582.6,423.1,583z M424.7,583.9v-0.4c-0.1,0.1-0.4,0.2-0.9,0.2c-0.6,0.1-0.8,0.3-0.8,0.6
		c0,0.3,0.2,0.5,0.7,0.5C424.3,584.8,424.7,584.5,424.7,583.9z"/>
	<path style="fill:#FFFFFF;" d="M426.1,585.1v-0.6h0.6v0.6H426.1z"/>
	<path style="fill:#FFFFFF;" d="M428.9,582.4c-0.6,0-0.9,0.4-0.9,1.2c0,0.8,0.3,1.2,0.9,1.2c0.5,0,0.8-0.3,0.8-0.8l0.5,0.1
		c-0.1,0.7-0.5,1.1-1.3,1c-0.9,0-1.3-0.5-1.4-1.6c0-1,0.5-1.6,1.3-1.6c0.7,0,1.1,0.3,1.2,0.9l-0.4,0.1
		C429.5,582.6,429.3,582.4,428.9,582.4z"/>
	<path style="fill:#FFFFFF;" d="M431.8,585.2c-0.9-0.1-1.4-0.6-1.4-1.5c0-1.1,0.5-1.6,1.5-1.6c0.9,0,1.3,0.6,1.4,1.6
		C433.2,584.6,432.7,585.2,431.8,585.2z M431.8,582.4c-0.6,0-1,0.4-1,1.3c0,0.8,0.3,1.2,1,1.2c0.6,0,0.9-0.4,0.9-1.2
		C432.7,582.8,432.4,582.4,431.8,582.4z"/>
	<path style="fill:#FFFFFF;" d="M437.9,583.1v2h-0.4v-1.9c0-0.6-0.2-0.9-0.6-0.9c-0.5,0-0.7,0.3-0.8,0.9v1.9h-0.4v-1.9
		c0-0.6-0.2-0.9-0.6-0.9c-0.5,0-0.7,0.3-0.8,0.8v1.9h-0.4v-3h0.4v0.5c0.2-0.4,0.5-0.5,0.8-0.5c0.5,0,0.8,0.2,0.9,0.6
		c0.2-0.4,0.5-0.6,0.9-0.6C437.6,582,437.9,582.4,437.9,583.1z"/>
</g>
<g>
	<path style="fill:#FFFFFF;" d="M414.2,267c-1,0.3-2.1,0.6-3.3,0.9c-1.1-1.2-2.2-2.3-3.2-3.4c-0.8-0.7-1.4-1.2-1.7-1.4l2.3-1.9
		c0.6,0.5,1.3,0.8,2.1,0.8h4.6v-1.8h3v4.8h-5.9c0.2,0.2,0.5,0.5,1,0.9C413.6,266.4,413.9,266.8,414.2,267z M424,270.3v3.4h-5v4.8
		h-3.1v-4.8h-6.7v5.3h-2.9v-12.7h2.9v4.1H424z M424.2,263.9c-1.4,1.2-2.5,2.3-3.4,3l-2-2.6c0.1-0.1,0.3-0.2,0.5-0.3
		c1.2-1,2.3-1.9,3-2.6L424.2,263.9z"/>
	<path style="fill:#FFFFFF;" d="M417.2,280.5v7.2c0.8,0.1,1.8,0.1,2.9,0.1v-6.2h3v16.1h-3v-6.4c-0.4,0-0.9,0-1.5-0.1
		c-0.6,0-1.1,0-1.4,0v7.6h-3v-7.2c-2.8,1-4.5,3.6-5.4,7.6c-1-0.7-2.1-1.3-3.1-1.9c1.2-4.1,3.1-6.6,5.6-7.6c-2.3-1-4.3-3.5-5.8-7.6
		c1.1-0.7,2.1-1.3,2.8-1.9c1.5,4.4,3.5,6.8,5.9,7.3v-6.9H417.2z"/>
	<path style="fill:#FFFFFF;" d="M423.1,300.3v18.6h-3.2v-8.2h-3.7l1.7,1.5c-1.6,2.2-3.1,4.3-4.6,6.2l-2.7-2.3c1.7-2,3.2-3.8,4.4-5.5
		h-9.3v-3.6h14.3v-6.8H423.1z"/>
	<path style="fill:#FFFFFF;" d="M413.5,322.6l-1.2,3c-0.7-0.2-1.8-0.6-3.3-1.1c-1.6-0.5-2.8-0.9-3.6-1.2l1.2-3
		C409.4,321.4,411.7,322.1,413.5,322.6z M416.4,337.9h-3c-1.6-1.1-3-2.2-4.1-3.4c-0.5,1.2-0.9,2.8-1.2,4.6c-0.4-0.3-1-0.7-2-1.2
		c-0.3-0.2-0.5-0.3-0.7-0.4c0.6-2.4,1.2-4.4,2-5.8c-0.9-1.7-1.6-3.6-2.1-5.7c0.3-0.2,0.6-0.4,1.1-0.6c0.7-0.4,1.2-0.7,1.6-0.9
		c0.4,1.8,0.9,3.2,1.3,4.4c0.9-0.8,1.9-1.7,3-2.6l1.2,1.9v-2.4h2.7V337.9z M413.7,329c-1.1,0.9-2,1.8-2.7,2.7
		c0.7,0.9,1.6,1.8,2.7,2.6V329z M419.1,322.2c-0.5,0.6-1.2,1.5-2.2,2.7c-0.3,0.3-0.5,0.5-0.6,0.7l-2.5-2.3c0.8-0.8,1.8-1.8,3-3.2
		L419.1,322.2z M419.9,337.5v1.6c-0.9-0.2-1.8-0.3-2.7-0.5c0-0.2,0-0.5,0-1c-0.1-0.6-0.1-1.1-0.1-1.6c-0.1-1.7,0.7-2.5,2.3-2.5h1.2
		v-3.3c-1.8,0-3.2-1.1-4.3-3.2c0.7-0.7,1.4-1.4,2.1-2.1c0.8,1.8,1.9,2.6,3.3,2.4h1.6v9.2h-2.8C420.2,336.5,419.9,336.8,419.9,337.5z
		 M424.1,322.8c-0.9,1.2-1.8,2.3-2.7,3.4l-2.4-2.3c1-0.9,1.9-2,2.9-3.1L424.1,322.8z"/>
	<path style="fill:#FFFFFF;" d="M405.5,346.3v-3.2h7.3c-0.4-0.3-0.8-0.8-1.4-1.5c-0.2-0.3-0.4-0.4-0.5-0.5c0.7-0.2,1.8-0.6,3.4-1.1
		c1.8,2,3.5,3.5,5.3,4.4v-4.1h2.8v5.5c0.3,0.1,0.6,0.2,1.2,0.4c0.3,0.1,0.5,0.2,0.7,0.2L424,350c-0.5-0.2-1.1-0.4-1.6-0.6v9.6h-2.8
		v-10.8c-0.2-0.1-0.5-0.3-0.8-0.5l-0.2-0.1v9.7h-10.2c-1.9,0.2-2.9-0.8-2.8-3c-0.1-0.9-0.1-2.1-0.1-3.5c1-0.2,1.9-0.4,2.6-0.7
		c0,0.9,0,1.8,0,2.6c-0.1,0.9,0.3,1.4,1.1,1.4v-7.8H405.5z M412.5,346.3h-0.9v7.8h0.9V346.3z M416,346.3h-1v7.8h1V346.3z"/>
	<path style="fill:#FFFFFF;" d="M423.8,375.6c-0.3,0.1-0.7,0.2-1.4,0.4c-0.6,0.2-1.1,0.3-1.4,0.4v2.3h-2.5v-2.9H417v2.7h-2.5v-2.7
		h-1.6v2.7h-2.5v-2.7h-1.6v3h-2.3v-8h-1.1v-2.9h3.1l-1.3-2.1c0.3-0.3,0.8-0.6,1.6-1c0.6-0.3,1-0.5,1.2-0.7c-1.4-0.7-2.7-1.7-4.1-3
		c0.5-0.2,1.1-0.5,1.9-0.8c0.6-0.2,1-0.4,1.2-0.5c1.2,1.1,2.5,1.9,3.9,2.6c0.4-0.3,1-0.6,1.9-1.1c1.1-0.7,2-1.2,2.7-1.6l1.4,2.2
		c-0.9,0.6-1.8,1.1-2.7,1.6c1.1,0.3,2.3,0.5,3.6,0.5v-3.8h2.8v6.8c-1.7-0.1-3.3-0.2-4.7-0.5c1.8,1.1,3.9,2,6.3,2.6l-0.5,3.1
		c-1-0.3-1.9-0.6-2.8-0.9v1.9c0.8-0.2,1.6-0.4,2.5-0.7L423.8,375.6z M410.4,370.8h-1.6v2.2h1.6V370.8z M413.8,367.1
		c1-0.2,1.9-0.4,2.7-0.7c-1.1-0.2-2.2-0.4-3.3-0.9c-0.6,0.3-1.4,0.8-2.3,1.4c-0.8,0.5-1.4,0.8-1.7,1h5.8
		C414.6,367.7,414.2,367.4,413.8,367.1z M414.5,370.8h-1.6v2.2h1.6V370.8z M418.5,370.8H417v2.2h1.5V370.8z"/>
	<path style="fill:#FFFFFF;" d="M424.1,393l-0.5,2.9c-0.9-0.2-1.9-0.5-2.8-0.9v4h-2.7v-0.7c-3.2-0.2-5.7-0.8-7.6-1.7
		c-0.7,0.7-1.5,1.5-2.3,2.4c-1-0.5-1.9-1-2.7-1.4c0.8-1.1,1.6-2,2.4-2.7c-0.9-0.9-1.8-1.9-2.7-3c0.8-0.5,1.5-0.9,2.2-1.4v-2.9h-0.9
		v-2.6h9.2v1.7h2.3v-1.9h2.7v1.9h3.2v2.9h-3.2v1.6h-2.5C420,391.9,421.9,392.5,424.1,393z M405.6,384.1v-2.7h8
		c-0.6-0.3-1.1-0.6-1.6-0.9c1.4-0.2,2.8-0.4,4.1-0.6c1.9,0.9,4.5,1.7,7.9,2.6l-0.5,2.9c-1.4-0.4-2.7-0.8-3.9-1.2H405.6z
		 M410.6,393.2c1.2-0.5,2.7-0.9,4.3-1.2c-0.1-0.1-0.2-0.1-0.3-0.2c-0.2-0.2-0.3-0.3-0.4-0.3c0.2-0.1,0.4-0.1,0.7-0.2
		c0.3-0.1,0.4-0.2,0.5-0.2h-6.9C409.2,392,409.9,392.6,410.6,393.2z M413.2,387.5h-3.3v1.1h3.3V387.5z M418.1,394.1
		c-1.9,0.1-3.4,0.3-4.7,0.8c1.2,0.4,2.8,0.6,4.7,0.8V394.1z M417.1,390.6c0.3,0.2,0.6,0.3,0.9,0.4v-1.5h-2.3v1.5
		C416.2,390.9,416.7,390.7,417.1,390.6z"/>
	<path style="fill:#FFFFFF;" d="M409.7,418.2c-2.5,0-3.8-1.1-3.8-3.4c-0.1-0.9-0.1-2.1-0.1-3.6c0.2-0.1,0.5-0.1,0.9-0.2
		c0.6-0.1,1.3-0.3,2.1-0.5c-0.1,0.6-0.1,1.6-0.1,2.8c-0.1,1.1,0.4,1.7,1.6,1.7c0.5,0,1.6,0,3.3,0c2.2,0.1,3.7,0.1,4.6,0.1v-2.7
		c-0.8-0.3-1.6-0.7-2.4-1.1c0.4-0.8,0.9-1.6,1.3-2.4h-11.3v-3h1.1v-2.3h-1.2v-3h15.4v2.2c1,0.3,2,0.4,2.9,0.5l-0.4,3.4
		c-0.2-0.1-0.4-0.1-0.6-0.2c-0.6-0.1-1.2-0.3-1.9-0.5v2.8h-3.3c2.2,1,4.3,1.8,6.2,2.3l-0.7,3.1c-0.3-0.1-0.6-0.2-1.1-0.3
		c-0.5-0.2-0.9-0.3-1.2-0.4v4.8C415.5,418.4,411.6,418.3,409.7,418.2z M412.5,403.7h-2.7v2.3h2.7V403.7z M416.1,412.1
		c-0.6,0.5-1.5,1.1-2.7,2c-0.5,0.4-0.9,0.6-1.2,0.9l-1.7-2.7c1.7-1.1,3-2,4-2.7L416.1,412.1z M418.2,403.7h-2.7v2.3h2.7V403.7z"/>
	<path style="fill:#FFFFFF;" d="M405.5,429.9v-3h9.5c-0.3-0.2-0.7-0.5-1-0.8c0.2,0,0.5,0,0.8-0.1c0.4-0.1,0.6-0.1,0.8-0.2
		c-1.1,0-2,0-2.7,0c-0.2-0.4-0.3-0.8-0.3-1.2H408c-1.5,0.1-2.3-0.6-2.3-2c-0.1-0.7-0.2-1.4-0.2-2.2c0.1,0,0.2,0,0.4-0.1
		c0.7-0.1,1.5-0.3,2.4-0.5v1.2c0,0.5,0.3,0.7,0.8,0.6h2.6c-0.2-0.5-0.3-1.1-0.5-1.7l3.3-0.2c0,0.1,0,0.2,0.1,0.4
		c0.1,0.4,0.2,0.9,0.3,1.6h3.3v-1.6h2.8v1.6h3.1v2.9H421v1.3h-2.3c1.4,0.9,3.2,1.6,5.6,2.3l-0.4,3.3c-0.3-0.1-0.8-0.3-1.4-0.5
		c-0.7-0.3-1.2-0.4-1.5-0.5v2.3c0.8-0.3,1.7-0.5,2.6-0.9l0.3,3.1c-0.2,0.1-0.4,0.1-0.7,0.2c-0.5,0.2-1.2,0.4-2.2,0.6v2.7h-2.5v-3.1
		h-1.6v2.9h-2.5v-2.9h-1.5v2.9h-2.5v-2.9h-1.6v3.3h-2.3v-8.8H405.5z M410.4,429.9h-1.6v2.5h1.6V429.9z M414.4,429.9h-1.5v2.5h1.5
		V429.9z M415.6,424.7c0.1,0.3,0.2,0.7,0.2,1.1c0.6-0.1,1.2-0.2,1.8-0.4c0.2,0.2,0.3,0.3,0.5,0.3v-1H415.6z M418.5,429.9h-1.6v2.5
		h1.6V429.9z"/>
	<path style="fill:#FFFFFF;" d="M415.3,445.1c-2.5,0-4.4-0.2-5.8-0.5c-1.2-0.3-2.6-0.9-4.1-1.8c0.7-0.9,1.5-1.9,2.2-3
		c1.1,0.8,2.1,1.3,3.1,1.6c0.9,0.2,2.5,0.3,4.6,0.3h6.7v6.8c0.4-0.1,1-0.3,1.8-0.5c0.2-0.1,0.3-0.1,0.3-0.1l0.2,4.2
		c-0.2,0.1-0.6,0.2-1.1,0.3c-0.6,0.1-1,0.2-1.2,0.2v6.1h-3.1v-13.6H415.3z"/>
</g>
<circle style="fill:none;stroke:#D8D8D8;" cx="602.7" cy="185.8" r="4.2"/>
<circle style="fill:none;stroke:#D8D8D8;" cx="723.4" cy="185.8" r="4.2"/>
<g>
	<path style="fill:#E0690E;" d="M564.2,573h0.4c0.1,0,0.1,0,0.2,0c0,0,0.1,0,0.1-0.1c0,0,0-0.1,0-0.1c0-0.1,0-0.1-0.1-0.1
		c0,0-0.1-0.1-0.2-0.1h-0.4V573z M564,573.8v-1.3h0.6c0.1,0,0.2,0,0.3,0c0.1,0,0.1,0.1,0.1,0.1c0,0.1,0.1,0.1,0.1,0.2
		c0,0.1,0,0.2-0.1,0.2c-0.1,0.1-0.1,0.1-0.3,0.1c0,0,0.1,0,0.1,0.1c0,0,0.1,0.1,0.1,0.2l0.2,0.4h-0.2l-0.2-0.3
		c0-0.1-0.1-0.1-0.1-0.2c0,0-0.1-0.1-0.1-0.1c0,0-0.1,0-0.1,0c0,0-0.1,0-0.1,0h-0.2v0.6H564"/>
	<path style="fill-rule:evenodd;clip-rule:evenodd;fill:#E0690E;" d="M564.5,574.4c0.7,0,1.2-0.5,1.2-1.2c0-0.7-0.5-1.2-1.2-1.2
		c-0.7,0-1.2,0.5-1.2,1.2C563.3,573.9,563.9,574.4,564.5,574.4z M563.5,573.2c0-0.6,0.5-1,1-1c0.6,0,1,0.5,1,1c0,0.6-0.5,1-1,1
		C564,574.2,563.5,573.8,563.5,573.2"/>
</g>
<g>
	<g id="形状_2_copy_3_副本_4_33_">
		<g>
			<path style="fill-rule:evenodd;clip-rule:evenodd;fill:#CCCCCC;" d="M54.5,367.9c-1.7,3.3-3.2,6.3-5,9.8h2.4
				c0.4-0.8,0.7-1.3,1.2-2.3c1.2,0,2.2,0,3.4,0c-0.3-0.7-0.4-1.3-0.6-1.9H54c0.6-1.1,0.9-1.7,1.7-3.3c0.9,2.6,1.8,5.1,2.6,7.4h2.2
				c-1.2-3.4-2.3-6.4-3.4-9.8H54.5z M61.1,377.7h2.1l0.4-9.8l-2,0L61.1,377.7z M64.4,377.7h2.2l0.3-7.3h-2.1L64.4,377.7z
				 M64.8,367.9l-0.1,1.6c0,0,1.6,0,2.1,0l0.1-1.6C65,367.9,65,367.9,64.8,367.9z M78.1,370.4c-0.4-0.1-0.8-0.2-1.2-0.2
				c-0.2,0-0.5,0-0.7,0.1c-0.2,0-0.4,0.1-0.6,0.2c-0.2,0.1-0.3,0.2-0.5,0.3c-0.1,0.1-0.3,0.2-0.4,0.3c-0.1,0.1-0.2,0.3-0.3,0.4
				c-0.1-0.2-0.2-0.4-0.3-0.5c-0.1-0.1-0.2-0.2-0.3-0.3c-0.1-0.1-0.3-0.2-0.4-0.3c-0.2-0.1-0.3-0.1-0.5-0.2c-0.2,0-0.4-0.1-0.6-0.1
				c-0.3,0-0.6,0-0.8,0.1c-0.3,0.1-0.5,0.2-0.7,0.3c-0.2,0.1-0.4,0.2-0.5,0.4c-0.1,0.1-0.3,0.3-0.4,0.5l0.1-1.2H68l-0.3,7.3
				c0,0,1.6,0,2,0c0-0.6,0-1.5,0.1-2.5c0.1-1.1,0.1-1.8,0.3-2.1c0.1-0.4,0.3-0.7,0.6-0.9c0.3-0.2,0.5-0.3,0.9-0.3
				c0.2,0,0.3,0,0.5,0.1c0.1,0.1,0.3,0.2,0.4,0.3c0.1,0.1,0.2,0.3,0.2,0.4c0,0.1,0.1,0.3,0.1,0.5c0,0.4,0,1.2-0.1,2.3
				c-0.1,1.1-0.1,1.9-0.1,2.3c0.4,0,1.7,0,2,0l0-2c0-0.7,0.1-1.3,0.1-1.7c0-0.4,0.1-0.8,0.2-1c0.1-0.2,0.2-0.5,0.3-0.6
				c0.2-0.2,0.3-0.3,0.5-0.4c0.2-0.1,0.4-0.1,0.6-0.1c0.2,0,0.4,0,0.6,0.1c0.2,0.1,0.3,0.2,0.4,0.4c0.1,0.2,0.2,0.4,0.2,0.8
				c0,0.3,0,0.6,0,1.1l-0.1,1.6c0,0.7-0.1,1.3-0.1,1.9c0.4,0,1.7,0,2,0c0-0.5,0-1.3,0.1-2.3c0-1,0.1-1.7,0.1-2.2
				c0-0.4,0.1-0.8,0.1-1c0-0.4-0.1-0.8-0.3-1.1C78.8,370.8,78.5,370.5,78.1,370.4z M85.9,370.4c-0.4-0.1-0.9-0.2-1.4-0.2
				c-0.5,0-0.9,0-1.4,0.1c-0.5,0.1-1.7,0.3-1.7,0.3L81,372c0,0,2-0.6,2.9-0.6c0.2,0,0.4,0,0.6,0.1c0.2,0.1,0.4,0.1,0.5,0.3
				c0.1,0.1,0.2,0.3,0.2,0.5c0,0.1,0,0.2-0.1,0.3c0,0.1-0.1,0.2-0.2,0.3c-0.1,0.1-0.2,0.2-0.3,0.2c-0.1,0.1-0.3,0.1-0.5,0.2
				c-0.2,0.1-0.4,0.1-0.6,0.1c-0.7,0.1-1.2,0.3-1.7,0.4c-0.4,0.1-0.7,0.3-1,0.4c-0.2,0.2-0.4,0.3-0.5,0.5c-0.1,0.2-0.2,0.4-0.3,0.6
				c-0.1,0.2-0.1,0.4-0.1,0.6c0,0.4,0.1,0.7,0.3,1.1c0.2,0.4,0.5,0.6,0.9,0.8c0.4,0.2,0.9,0.2,1.5,0.2c0.2,0,0.4,0,0.6,0
				c0.2,0,0.5,0,0.8-0.1c0.1-0.5,0.3-0.9,0.4-1.2c-0.3,0.1-0.5,0.2-0.7,0.2c-0.2,0-0.3,0-0.5,0c-0.2,0-0.4,0-0.6-0.1
				c-0.2-0.1-0.3-0.2-0.4-0.3c-0.1-0.1-0.2-0.3-0.2-0.5c0-0.1,0-0.2,0.1-0.3c0-0.1,0.1-0.2,0.2-0.3c0.1-0.1,0.2-0.2,0.4-0.3
				c0.1-0.1,0.3-0.1,0.5-0.2c0.2-0.1,0.4-0.1,0.7-0.2c0.3-0.1,0.5-0.1,0.6-0.2c0.1,0,0.2-0.1,0.3-0.1c0.1,0,0.2-0.1,0.4-0.3
				l-0.2,3.8h2c0,0,0.1-2.3,0.1-3.5c0.1-1.1,0.1-1.8,0.1-2.1c0-0.5-0.1-0.9-0.4-1.2C86.6,370.7,86.3,370.5,85.9,370.4z M98.7,370.4
				c-0.4-0.1-0.8-0.2-1.2-0.2c-0.2,0-0.5,0-0.7,0.1c-0.2,0-0.4,0.1-0.6,0.2c-0.2,0.1-0.3,0.2-0.5,0.3c-0.1,0.1-0.3,0.2-0.4,0.3
				c-0.1,0.1-0.2,0.3-0.3,0.4c-0.1-0.2-0.2-0.4-0.3-0.5c-0.1-0.1-0.2-0.2-0.3-0.3c-0.1-0.1-0.3-0.2-0.4-0.3
				c-0.2-0.1-0.3-0.1-0.5-0.2c-0.2,0-0.4-0.1-0.6-0.1c-0.3,0-0.6,0-0.8,0.1c-0.3,0.1-0.5,0.2-0.7,0.3c-0.2,0.1-0.4,0.2-0.5,0.4
				c-0.1,0.1-0.3,0.3-0.4,0.5l0.1-1.2h-1.9l-0.3,7.3h2c0,0,0-1.5,0.1-2.5c0.1-1.1,0.1-1.8,0.3-2.1c0.1-0.4,0.3-0.7,0.6-0.9
				c0.3-0.2,0.5-0.3,0.9-0.3c0.2,0,0.3,0,0.5,0.1c0.1,0.1,0.3,0.2,0.4,0.3c0.1,0.1,0.2,0.3,0.2,0.4c0,0.1,0.1,0.3,0.1,0.5
				c0,0.4,0,1.2-0.1,2.3c-0.1,1.1-0.1,1.9-0.1,2.3c0.4,0,1.7,0,2,0l0-2c0-0.7,0.1-1.3,0.1-1.7c0-0.4,0.1-0.8,0.2-1
				c0.1-0.2,0.2-0.5,0.3-0.6c0.2-0.2,0.3-0.3,0.5-0.4c0.2-0.1,0.4-0.1,0.6-0.1c0.2,0,0.4,0,0.6,0.1c0.2,0.1,0.3,0.2,0.4,0.4
				c0.1,0.2,0.2,0.4,0.2,0.8c0,0.3,0,0.6,0,1.1l-0.1,1.6c0,0.7-0.1,1.3-0.1,1.9c0.4,0,1.7,0,2,0c0-0.5,0-1.3,0.1-2.3
				c0-1,0.1-1.7,0.1-2.2c0-0.4,0.1-0.8,0.1-1c0-0.4-0.1-0.8-0.3-1.1C99.3,370.8,99,370.5,98.7,370.4z M106.4,370.4
				c-0.4-0.1-0.9-0.2-1.5-0.2c-0.5,0-0.9,0-1.4,0.1c-0.5,0.1-1.7,0.3-1.7,0.3l-0.2,1.4c0,0,2-0.6,2.9-0.6c0.2,0,0.4,0,0.6,0.1
				c0.2,0.1,0.4,0.1,0.5,0.3c0.1,0.1,0.2,0.3,0.2,0.5c0,0.1,0,0.2-0.1,0.3c0,0.1-0.1,0.2-0.2,0.3c-0.1,0.1-0.2,0.2-0.3,0.2
				c-0.1,0.1-0.3,0.1-0.5,0.2c-0.2,0.1-0.4,0.1-0.6,0.1c-0.7,0.1-1.2,0.3-1.7,0.4c-0.4,0.1-0.7,0.3-1,0.4c-0.2,0.2-0.4,0.3-0.5,0.5
				c-0.1,0.2-0.2,0.4-0.3,0.6c-0.1,0.2-0.1,0.4-0.1,0.6c0,0.4,0.1,0.7,0.3,1.1c0.2,0.4,0.5,0.6,0.9,0.8c0.4,0.2,0.9,0.2,1.5,0.2
				c0.2,0,0.4,0,0.6,0c0.2,0,0.5,0,0.8-0.1c0.1-0.5,0.3-0.9,0.4-1.2c-0.3,0.1-0.5,0.2-0.7,0.2c-0.2,0-0.3,0-0.5,0
				c-0.2,0-0.4,0-0.6-0.1c-0.2-0.1-0.3-0.2-0.4-0.3c-0.1-0.1-0.2-0.3-0.2-0.5c0-0.1,0-0.2,0.1-0.3c0-0.1,0.1-0.2,0.2-0.3
				c0.1-0.1,0.2-0.2,0.4-0.3c0.1-0.1,0.3-0.1,0.5-0.2c0.2-0.1,0.4-0.1,0.7-0.2c0.3-0.1,0.5-0.1,0.6-0.2c0.1,0,0.2-0.1,0.3-0.1
				c0.1,0,0.2-0.1,0.4-0.3l-0.2,3.8h2c0,0,0.1-2.3,0.1-3.5c0.1-1.1,0.1-1.8,0.1-2.1c0-0.5-0.1-0.9-0.4-1.2
				C107.2,370.7,106.8,370.5,106.4,370.4z M108.7,375.7c0,0.9-0.1,1.6-0.1,1.9c0.7,0,2,0,2,0s0.1-1.6,0.1-1.9
				C110.2,375.7,108.7,375.7,108.7,375.7z M114,372.4c0.2-0.2,0.5-0.4,0.7-0.5c0.3-0.1,0.6-0.2,0.9-0.2c0.5,0,1.2,0.1,1.9,0.4
				l-0.1-1.6c-0.5-0.1-0.8-0.2-1.2-0.2c-0.3,0-0.7-0.1-1-0.1c-0.6,0-1.1,0.1-1.5,0.2c-0.5,0.1-0.9,0.4-1.2,0.7
				c-0.4,0.4-0.7,0.8-0.8,1.4c-0.2,0.6-0.3,1.1-0.3,1.7c0,0.5,0.1,0.9,0.2,1.3c0.1,0.4,0.3,0.8,0.5,1.1c0.2,0.3,0.5,0.5,0.8,0.7
				c0.3,0.2,0.6,0.3,1,0.4c0.4,0.1,0.7,0.1,1.1,0.1c0.7,0,1.3-0.1,2-0.2c0.1-0.4,0.1-0.7,0.2-0.9c0-0.2,0.1-0.5,0.1-0.7
				c-0.3,0.1-0.7,0.2-1,0.3c-0.3,0.1-0.6,0.1-0.8,0.1c-0.4,0-0.8-0.1-1.2-0.3c-0.3-0.2-0.6-0.4-0.7-0.8c-0.1-0.3-0.2-0.7-0.2-1.2
				c0-0.3,0-0.6,0.1-1C113.7,372.9,113.8,372.6,114,372.4z M125,371.2c-0.4-0.3-0.8-0.6-1.3-0.7c-0.5-0.2-1-0.2-1.6-0.2
				c-0.6,0-1.2,0.1-1.7,0.3c-0.6,0.2-1,0.5-1.4,0.9c-0.4,0.4-0.6,0.8-0.8,1.3c-0.2,0.5-0.3,1-0.3,1.5c0,0.5,0.1,1,0.3,1.5
				c0.2,0.5,0.5,0.9,0.8,1.2c0.4,0.3,0.8,0.6,1.3,0.7c0.5,0.2,1,0.2,1.6,0.2c0.6,0,1.2-0.1,1.7-0.3c0.5-0.2,1-0.5,1.3-0.8
				c0.4-0.4,0.6-0.8,0.8-1.3c0.2-0.5,0.3-1,0.3-1.6c0-0.5-0.1-1-0.3-1.5C125.6,371.9,125.3,371.5,125,371.2z M123.7,375.2
				c-0.2,0.4-0.4,0.7-0.7,0.9c-0.3,0.2-0.7,0.3-1.1,0.3c-0.4,0-0.8-0.1-1.1-0.3c-0.3-0.2-0.5-0.5-0.6-0.8c-0.1-0.3-0.2-0.7-0.2-1.1
				c0-0.5,0.1-0.9,0.2-1.3c0.2-0.4,0.4-0.7,0.7-0.9c0.3-0.2,0.7-0.3,1.1-0.3c0.4,0,0.8,0.1,1.1,0.3c0.3,0.2,0.5,0.5,0.6,0.8
				c0.1,0.3,0.2,0.7,0.2,1.1C124,374.3,123.9,374.8,123.7,375.2z M137.8,371c-0.2-0.3-0.5-0.5-0.9-0.6c-0.4-0.1-0.8-0.2-1.2-0.2
				c-0.2,0-0.5,0-0.7,0.1c-0.2,0-0.4,0.1-0.6,0.2c-0.2,0.1-0.3,0.2-0.5,0.3c-0.1,0.1-0.3,0.2-0.4,0.3c-0.1,0.1-0.2,0.3-0.3,0.4
				c-0.1-0.2-0.2-0.4-0.3-0.5s-0.2-0.2-0.3-0.3c-0.1-0.1-0.3-0.2-0.4-0.3c-0.2-0.1-0.3-0.1-0.5-0.2c-0.2,0-0.4-0.1-0.6-0.1
				c-0.3,0-0.6,0-0.8,0.1c-0.3,0.1-0.5,0.2-0.7,0.3c-0.2,0.1-0.4,0.2-0.5,0.4c-0.1,0.1-0.3,0.3-0.4,0.5l0.1-1.2c-0.3,0-1.5,0-1.9,0
				c0,0.8-0.3,6.5-0.3,7.3c0.4,0,1.6,0,2,0c0-0.6,0-1.5,0.1-2.5c0.1-1.1,0.1-1.8,0.3-2.1c0.1-0.4,0.3-0.7,0.6-0.9
				c0.3-0.2,0.5-0.3,0.9-0.3c0.2,0,0.3,0,0.5,0.1c0.1,0.1,0.3,0.2,0.4,0.3c0.1,0.1,0.2,0.3,0.2,0.4c0,0.1,0,0.3,0,0.5
				c0,0.4,0,1.2-0.1,2.3c-0.1,1.1-0.1,1.9-0.1,2.3c0.4,0,1.6,0,2,0l0-2c0-0.7,0.1-1.3,0.1-1.7c0-0.4,0.1-0.8,0.2-1
				c0.1-0.2,0.2-0.5,0.3-0.6c0.2-0.2,0.3-0.3,0.5-0.4c0.2-0.1,0.4-0.1,0.6-0.1c0.2,0,0.4,0,0.6,0.1c0.2,0.1,0.3,0.2,0.4,0.4
				c0.1,0.2,0.2,0.4,0.2,0.8c0,0.3,0,0.6,0,1.1l-0.1,1.6c0,0.7-0.1,1.3-0.1,1.9c0.4,0,1.7,0,2,0c0-0.5,0-1.3,0.1-2.3
				c0-1,0.1-1.7,0.1-2.2c0-0.4,0-0.8,0-1C138.1,371.7,138,371.3,137.8,371z"/>
		</g>
	</g>
	<g id="形状_2_copy_3_副本_5_33_">
		<g>
			<path style="fill-rule:evenodd;clip-rule:evenodd;fill:#FF6600;" d="M58.3,347.5c3,0,6.1,0,9.1,0c0,4.5,0,9.2,0,13.5
				c0,0.3-0.3,0.7-0.7,0.7c-0.5,0-0.7,0-1.3,0v2.2c0.7,0,1.3,0,2,0c1.8,0,2.9-0.9,2.9-2.3c0-3.5,0-10.4,0-14h1.1v-2.1H58.3V347.5z
				 M104.8,357.2c-0.8,0-2.1,0.8-2.1,2.1c2.6,0,6.9-0.1,9.7-0.1c0,0.5,0,1.1,0,1.8c1,0,0.6,0,1.6,0c0.6,0,1.3-0.5,1.3-1.4
				c0-2.3,0-4.1,0-6.5c-0.4,0-0.9,0-1.3,0c0-1.8,0-5.4,0-6.7c0-0.5-0.5-1.1-1.2-1.1h-9.6v2.1h7.4c0,1.9,0,3.8,0,5.7
				c-1.8,0-2,0-3.5,0c-0.2,0-0.4-0.2-0.4-0.4c0-1,0-2.5,0-3.8c0-0.3-0.3-0.6-0.8-0.6h-2.2v5.1c0,1,0.9,1.8,1.8,1.8c0,0,3.7,0,6.9,0
				v1.9H104.8z M66,357.8c0-2.4,0-5.8,0-9.1h-7.6v11.6c2.2,0,5,0,5,0C65.4,360.3,66,359.2,66,357.8z M62.8,358.2c-0.5,0-1.1,0-1.9,0
				V351c0.8,0,1.8,0,2.6,0c0,2.2,0,4.6,0,6.5C63.4,357.9,63.2,358.2,62.8,358.2z M49.7,345.9c0,4.2,0,9.6,0,17.9h2.8
				c0-5.2,0-10.9,0-16.3c0.7,0,1.4,0,2.1,0c0,3.1,0,5.9,0,8.9c0,1.2-1.1,1.6-1.1,1.6v2.3c2,0,3.7-2,3.7-3.9c0-3.4,0-7.7,0-11
				c-2.5,0-4.5,0-7,0C49.7,345.4,49.7,345.9,49.7,345.9z M137.2,353.2c0-1.8,0-5.4,0-6.7c0-0.5-0.5-1.1-1.2-1.1h-9.6v2.1
				c2.4,0,4.9,0,7.4,0v5.7c-1.8,0-2,0-3.5,0c-0.2,0-0.4-0.2-0.4-0.4c0-1,0-2.5,0-3.8c0-0.3-0.3-0.6-0.8-0.6c-0.6,0-1.5,0-2.2,0v5.1
				c0,1,0.9,1.8,1.8,1.8c0,0,3.7,0,6.9,0v1.9h-7.5c-0.8,0-2.2,0.7-2.2,2.1c2.6,0,6.8,0,9.7,0v2c0,0.3-0.3,0.5-0.6,0.5h-1.1
				c0,1,0,1.5,0,2.1h1.7c0.5,0,0.4,0,0.9,0c1.4,0,2-1,2-1.8c0-2.6,0-6.1,0-8.8C138.1,353.2,137.6,353.2,137.2,353.2z M123.7,360.3
				c1-1.1,1.6-2.4,1.7-5c0-2.8,0-5.4,0-8.1c0-0.2-0.3-0.5-0.6-0.5c-1.1,0-2.4,0-3.6,0v-1.3h-2.8c0,0.4,0,0.8,0,1.3
				c-0.3,0-0.7,0-0.9,0v2.1h0.9v6.6c0,2.5,0.8,3.8,1.9,5c-1.2,0.8-2.5,1.4-4.2,1.4c-0.2,0-0.5,0-0.7,0c-2.6,0-5.8,0-8.6,0
				c-2.6,0-5.2-0.5-6.1-1.6c0.9-1.2,1.4-2.2,1.7-4.8c0-2.5,0-4.7,0-8c0-0.4-0.4-0.7-0.7-0.7c-1.1,0-2.2,0-3.6,0v-1.3
				c-1.2,0-1.6,0-2.7,0v1.3c-0.3,0-0.5,0-0.9,0v2.1c0.4,0,0.6,0,0.9,0c0,2.2,0,4.6,0,6.6c0.2,2.5,1,3.4,2,4.9
				c-1.4,1-3.2,1.4-5.2,1.5c-2.4,0-4.6,0-7.6,0c0-0.5,0-1.3,0-1.6h7.6v-2.2h-7.6c0-0.5,0-1.1,0-1.6c2.2,0,5.1,0,5.7,0
				c0,0,1.9,0,1.9-2c0-2.1,0-6,0-8.8c-6,0-12.1,0-18.1,0c-0.3,0-0.6,0.3-0.6,0.5c0,0.4,0,7.2,0,10.3c2.5,0,5.1,0,7.6,0v1.6h-7.6
				c0,0.7,0,1.5,0,2.2h7.6c0,0.5,0,1.1,0,1.6h-8.9c0,0.6,0,1.4,0,2.1c6.7,0,14.9,0,21.4,0c1.7,0,3.9-0.9,5.5-1.8
				c2,1.5,4.1,1.8,7.7,1.8c1.1,0,2.3,0,3.6,0c1.9,0,3.5,0,5,0c3,0,4.9-0.6,6.8-1.7c1.7,1,3.3,1.7,6,1.7v0h4v-2.1h-4
				C126.3,361.5,124.8,361.3,123.7,360.3z M80.9,354.1h-4.7v-2.2h4.7V354.1z M80.9,349.7h-4.7v-2.2c1.6,0,3.1,0,4.7,0V349.7z
				 M84.5,347.5h4.7v2.2h-4.7V347.5z M84.5,351.9c1.6,0,3.1,0,4.7,0c0,0.9,0,1.6,0,2.2h-4.7C84.5,353.5,84.5,352.6,84.5,351.9z
				 M99.6,355.3c-0.1,1.5-0.3,1.8-0.7,2.8c-0.4-0.9-0.8-1.3-0.9-2.8c0-1.9,0-4.6,0-6.6h1.6V355.3z M122.8,355.3
				c-0.1,1.4-0.4,2-0.7,2.8c-0.4-0.7-0.8-1.5-0.8-2.8c0-2,0-4.5,0-6.6h1.6C122.8,350.9,122.8,353.3,122.8,355.3z"/>
		</g>
	</g>
</g>
<g>
	<path style="fill:#EC6C00;" d="M682.7,418.7H680l4.2-8.2h3l4.1,8.2h-3.1l-0.6-1.5h-4.3L682.7,418.7z M686.9,415.4l-1.3-3l-1.4,3
		H686.9z"/>
	<path style="fill:#EC6C00;" d="M691.7,418.7v-8.2h2.6v8.2H691.7z"/>
	<path style="fill:#EC6C00;" d="M696,412.2v-1.7h2.6v1.7H696z M696,418.7V413h2.6v5.7H696z"/>
	<path style="fill:#EC6C00;" d="M700.1,410.5h2.6v3.3c0.3-0.3,0.7-0.6,1.1-0.7c0.4-0.2,0.8-0.2,1.3-0.2c0.9,0,1.6,0.3,2.2,0.9
		c0.5,0.6,0.8,1.3,0.8,2.3c0,0.9-0.3,1.6-0.8,2.1c-0.5,0.5-1.3,0.8-2.1,0.8c-0.5,0-0.9-0.1-1.3-0.3c-0.4-0.2-0.7-0.4-1-0.8
		c0,0.2,0,0.4,0,0.5c0,0.2,0,0.3-0.1,0.4H700c0-0.1,0.1-0.2,0.1-0.4c0-0.2,0-0.3,0-0.6V410.5z M705.4,415.9c0-0.5-0.1-0.9-0.4-1.2
		c-0.2-0.3-0.6-0.4-1-0.4c-0.4,0-0.8,0.1-1,0.4c-0.2,0.3-0.3,0.7-0.3,1.2c0,0.5,0.1,0.9,0.4,1.2c0.2,0.3,0.6,0.4,1,0.4
		c0.4,0,0.7-0.1,1-0.4C705.3,416.8,705.4,416.4,705.4,415.9z"/>
	<path style="fill:#EC6C00;" d="M713.9,417.9c-0.3,0.3-0.6,0.6-1,0.7c-0.4,0.2-0.9,0.2-1.5,0.2c-0.8,0-1.4-0.1-1.9-0.4
		c-0.4-0.3-0.7-0.7-0.7-1.2c0-0.7,0.4-1.2,1.1-1.6c0.8-0.3,2-0.5,3.8-0.5c0,0,0,0,0-0.1c0,0,0-0.1,0-0.1c0-0.3-0.1-0.5-0.3-0.7
		c-0.2-0.1-0.4-0.2-0.8-0.2c-0.3,0-0.6,0.1-0.7,0.2c-0.2,0.1-0.3,0.3-0.3,0.5h-2.4c0-0.6,0.3-1.1,0.9-1.4c0.6-0.3,1.5-0.5,2.7-0.5
		c1.2,0,2,0.2,2.6,0.5c0.6,0.4,0.9,0.9,0.9,1.6v2.9c0,0.2,0,0.3,0,0.4c0,0.1,0,0.2,0.1,0.3H714c0-0.1-0.1-0.3-0.1-0.4
		C713.9,418.2,713.9,418,713.9,417.9z M713.8,416.2c-0.9,0-1.4,0.1-1.7,0.2c-0.3,0.1-0.5,0.3-0.5,0.6c0,0.2,0.1,0.3,0.2,0.4
		c0.2,0.1,0.4,0.2,0.6,0.2c0.4,0,0.8-0.1,1-0.3C713.7,417.1,713.8,416.7,713.8,416.2L713.8,416.2z"/>
	<path style="fill:#EC6C00;" d="M717.8,410.5h2.6v3.3c0.3-0.3,0.7-0.6,1.1-0.7c0.4-0.2,0.8-0.2,1.3-0.2c0.9,0,1.6,0.3,2.2,0.9
		c0.5,0.6,0.8,1.3,0.8,2.3c0,0.9-0.3,1.6-0.8,2.1c-0.5,0.5-1.3,0.8-2.1,0.8c-0.5,0-0.9-0.1-1.3-0.3c-0.4-0.2-0.7-0.4-1-0.8
		c0,0.2,0,0.4,0,0.5c0,0.2,0,0.3-0.1,0.4h-2.6c0-0.1,0.1-0.2,0.1-0.4c0-0.2,0-0.3,0-0.6V410.5z M723.1,415.9c0-0.5-0.1-0.9-0.4-1.2
		c-0.2-0.3-0.6-0.4-1-0.4c-0.4,0-0.8,0.1-1,0.4c-0.2,0.3-0.3,0.7-0.3,1.2c0,0.5,0.1,0.9,0.3,1.2c0.2,0.3,0.6,0.4,1,0.4
		c0.4,0,0.7-0.1,1-0.4C723,416.8,723.1,416.4,723.1,415.9z"/>
	<path style="fill:#EC6C00;" d="M731.6,417.9c-0.3,0.3-0.6,0.6-1,0.7c-0.4,0.2-0.9,0.2-1.5,0.2c-0.8,0-1.4-0.1-1.9-0.4
		c-0.4-0.3-0.7-0.7-0.7-1.2c0-0.7,0.4-1.2,1.1-1.6c0.8-0.3,2-0.5,3.8-0.5c0,0,0,0,0-0.1c0,0,0-0.1,0-0.1c0-0.3-0.1-0.5-0.3-0.7
		c-0.2-0.1-0.4-0.2-0.8-0.2c-0.3,0-0.6,0.1-0.7,0.2c-0.2,0.1-0.3,0.3-0.3,0.5h-2.4c0-0.6,0.3-1.1,0.9-1.4c0.6-0.3,1.5-0.5,2.7-0.5
		c1.2,0,2,0.2,2.6,0.5c0.6,0.4,0.9,0.9,0.9,1.6v2.9c0,0.2,0,0.3,0,0.4c0,0.1,0,0.2,0.1,0.3h-2.4c0-0.1-0.1-0.3-0.1-0.4
		C731.6,418.2,731.6,418,731.6,417.9z M731.6,416.2c-0.9,0-1.4,0.1-1.7,0.2c-0.3,0.1-0.5,0.3-0.5,0.6c0,0.2,0.1,0.3,0.2,0.4
		c0.2,0.1,0.4,0.2,0.6,0.2c0.4,0,0.8-0.1,1-0.3C731.5,417.1,731.6,416.7,731.6,416.2L731.6,416.2z"/>
	<path style="fill:#EC6C00;" d="M742.3,415.5v-1h3.4v3c-0.5,0.4-1.1,0.7-1.6,1c-0.6,0.2-1.1,0.3-1.7,0.3c-0.8,0-1.5-0.2-2.2-0.5
		c-0.7-0.3-1.1-0.8-1.5-1.5c-0.3-0.6-0.5-1.4-0.5-2.2c0-0.8,0.2-1.5,0.5-2.2c0.3-0.7,0.8-1.2,1.4-1.5c0.6-0.3,1.3-0.5,2.1-0.5
		c0.6,0,1.1,0.1,1.6,0.3c0.5,0.2,0.8,0.5,1.1,0.8c0.3,0.3,0.5,0.8,0.6,1.3l-1,0.3c-0.1-0.4-0.3-0.7-0.5-1c-0.2-0.2-0.4-0.4-0.8-0.6
		c-0.3-0.1-0.7-0.2-1.1-0.2c-0.5,0-0.9,0.1-1.3,0.2c-0.4,0.2-0.6,0.3-0.9,0.6c-0.2,0.2-0.4,0.5-0.5,0.8c-0.2,0.5-0.3,1.1-0.3,1.6
		c0,0.7,0.1,1.3,0.4,1.8c0.2,0.5,0.6,0.9,1.1,1.1c0.5,0.2,1,0.4,1.5,0.4c0.5,0,0.9-0.1,1.4-0.3c0.4-0.2,0.8-0.4,1-0.6v-1.5H742.3z"
		/>
	<path style="fill:#EC6C00;" d="M747.2,418.7v-5.9h0.9v0.9c0.2-0.4,0.4-0.7,0.6-0.8c0.2-0.1,0.4-0.2,0.6-0.2c0.3,0,0.7,0.1,1,0.3
		l-0.3,0.9c-0.2-0.1-0.5-0.2-0.7-0.2c-0.2,0-0.4,0.1-0.6,0.2c-0.2,0.1-0.3,0.3-0.4,0.5c-0.1,0.4-0.2,0.7-0.2,1.2v3.1H747.2z"/>
	<path style="fill:#EC6C00;" d="M750.8,415.8c0-1.1,0.3-1.9,0.9-2.4c0.5-0.4,1.1-0.7,1.9-0.7c0.8,0,1.5,0.3,2,0.8
		c0.5,0.5,0.8,1.3,0.8,2.2c0,0.8-0.1,1.4-0.3,1.8c-0.2,0.4-0.6,0.8-1,1c-0.4,0.2-0.9,0.4-1.4,0.4c-0.8,0-1.5-0.3-2-0.8
		C751.1,417.5,750.8,416.8,750.8,415.8z M751.8,415.8c0,0.8,0.2,1.3,0.5,1.7c0.3,0.4,0.7,0.6,1.2,0.6c0.5,0,0.9-0.2,1.2-0.6
		c0.3-0.4,0.5-1,0.5-1.7c0-0.7-0.2-1.3-0.5-1.7c-0.3-0.4-0.7-0.6-1.2-0.6c-0.5,0-0.9,0.2-1.2,0.6C752,414.4,751.8,415,751.8,415.8z"
		/>
	<path style="fill:#EC6C00;" d="M761.5,418.7v-0.9c-0.5,0.7-1.1,1-1.9,1c-0.3,0-0.7-0.1-1-0.2c-0.3-0.1-0.5-0.3-0.7-0.5
		c-0.1-0.2-0.2-0.4-0.3-0.7c0-0.2-0.1-0.5-0.1-0.9v-3.7h1v3.3c0,0.5,0,0.9,0.1,1.1c0.1,0.3,0.2,0.5,0.4,0.6c0.2,0.2,0.5,0.2,0.8,0.2
		c0.3,0,0.6-0.1,0.8-0.2c0.3-0.2,0.4-0.4,0.6-0.6c0.1-0.3,0.2-0.6,0.2-1.2v-3.2h1v5.9H761.5z"/>
	<path style="fill:#EC6C00;" d="M764.2,421v-8.2h0.9v0.8c0.2-0.3,0.5-0.5,0.7-0.7c0.3-0.1,0.6-0.2,1-0.2c0.5,0,0.9,0.1,1.3,0.4
		c0.4,0.3,0.7,0.6,0.9,1.1c0.2,0.5,0.3,1,0.3,1.6c0,0.6-0.1,1.1-0.3,1.6c-0.2,0.5-0.5,0.9-0.9,1.1c-0.4,0.3-0.8,0.4-1.3,0.4
		c-0.3,0-0.6-0.1-0.9-0.2c-0.3-0.1-0.5-0.3-0.7-0.5v2.9H764.2z M765.1,415.8c0,0.8,0.2,1.3,0.5,1.7c0.3,0.4,0.7,0.5,1.1,0.5
		c0.4,0,0.8-0.2,1.1-0.6c0.3-0.4,0.5-1,0.5-1.7c0-0.8-0.2-1.3-0.5-1.7c-0.3-0.4-0.7-0.6-1.1-0.6c-0.4,0-0.8,0.2-1.1,0.6
		C765.2,414.5,765.1,415,765.1,415.8z"/>
</g>
<path style="fill-rule:evenodd;clip-rule:evenodd;fill:#231815;" d="M654,426c-0.1,0-0.4-0.1-0.5-0.3c-1.5-1.5,0.4-3.3,2.7-4.3v-2.9
	c0.5,0.3,0.8,0.4,0.8,0.4l1.8-1.7l-0.6-1.5c5.1-1.8,7.2-2.5,11.4-3.2l-0.7-0.7l1.2-0.7c2.8,0.9,5.5,1.2,5,3.5
	c0.1-1.6-1.9-2.2-4.9-3.1l-0.6,0.4l1.1,0.9c-5,0.9-8.1,1.8-11.8,3.1l0.5,1.3l-1.8,1.8c0.3,0.1,3.5,1.2,6.9-1.2c0,0,0.1,0,0.1-0.1
	c-0.1-0.2-0.3-0.3-0.6-0.6c1,0.1,1.6,0.9,1.5,1.8H665c0-0.3,0-0.6-0.1-0.8c-2.6,1.9-5.6,2.2-8.1,1.3v2.2c-1.2,0.4-3.5,1.8-3.4,3.1
	C653.3,425.6,653.7,425.9,654,426z"/>
<path style="fill-rule:evenodd;clip-rule:evenodd;fill:#EC6C00;" d="M664.4,425.5c-2.8,1.4-5.4,2.5-9.5,2.7
	c-5.3-0.1-6.2-3.6-3.6-7.3c2.4-3.7,6.2-7.1,12.2-9.2c1.7-0.6,4.3-1.3,6.8-1.4c3.5,0,7,1.1,6.8,4.5c-0.1,2.6-3.9,6.3-5.9,8.9
	c-0.8,1.2-1,1.9,0.5,1.8c5.3-0.3,10-2.2,14.5-4.1c-3,2-18.5,9.7-18.5,4.5c0-0.7,0.3-1.4,0.8-2.1c0.5-0.7,1.2-1.5,1.9-2.3
	c1.1-1.2,3.7-4.1,4.6-5.8c1.5-3.3-1.8-3.4-4.7-4.4l-1.2,0.7l0.7,0.7c-4.2,0.7-6.2,1.4-11.4,3.2l0.6,1.5L657,419c0,0-0.3-0.1-0.8-0.4
	v2.9c-2.3,1-4.3,2.8-2.7,4.3c0.2,0.1,0.4,0.3,0.5,0.3l0,0C656.8,427.6,664.4,425.5,664.4,425.5z"/>
<g>
	<path style="fill:#EC6C00;" d="M680.8,426.8h0.4c0.1,0,0.1,0,0.2,0c0,0,0.1,0,0.1-0.1c0,0,0-0.1,0-0.1c0-0.1,0-0.1-0.1-0.1
		c0,0-0.1-0.1-0.2-0.1h-0.4V426.8z M680.7,427.5v-1.3h0.6c0.1,0,0.2,0,0.3,0c0.1,0,0.1,0.1,0.1,0.1c0,0.1,0.1,0.1,0.1,0.2
		c0,0.1,0,0.2-0.1,0.2c-0.1,0.1-0.2,0.1-0.3,0.1c0,0,0.1,0,0.1,0.1c0,0,0.1,0.1,0.1,0.2l0.2,0.4h-0.2l-0.2-0.3
		c0-0.1-0.1-0.1-0.1-0.2c0,0-0.1-0.1-0.1-0.1c0,0-0.1,0-0.1,0c0,0-0.1,0-0.1,0h-0.2v0.6H680.7"/>
	<path style="fill-rule:evenodd;clip-rule:evenodd;fill:#EC6C00;" d="M681.2,428.1c0.7,0,1.2-0.6,1.2-1.2c0-0.7-0.6-1.2-1.2-1.2
		c-0.7,0-1.2,0.6-1.2,1.2C679.9,427.6,680.5,428.1,681.2,428.1z M680.1,426.9c0-0.6,0.5-1,1-1c0.6,0,1,0.5,1,1c0,0.6-0.5,1-1,1
		C680.6,427.9,680.1,427.5,680.1,426.9"/>
</g>
<g>
	<g>
		<path style="fill-rule:evenodd;clip-rule:evenodd;fill:#EC6C00;" d="M691.8,421.5v6.9c0.5,0,1-0.4,1-0.9v-0.4h0.6
			c0.4,0,0.8-0.6,0.8-0.8c0-0.6,0-0.9,0-1.5c0-0.3-0.3-0.5-0.5-0.6c0.2-0.1,0.5-0.4,0.5-0.7c0-0.8,0-1.1,0-2H691.8z M693.2,423.8
			c0,0.1-0.1,0.3-0.2,0.4c0,0-0.1,0.1-0.1,0.1c0,0,0,0,0,0h0.3v2h-0.4c0-1.4,0-2.6,0-4h0.4V423.8z M697.1,426v-3.1h-2.5v4.3h1.2
			c0.2,0,0.4-0.1,0.6-0.2c0.1-0.1,0.2-0.2,0.3-0.3C696.9,426.4,697.1,426.2,697.1,426z M696.1,426.3h-0.5v-2.6h0.5V426.3z
			 M694.4,421.5v0.8h2.9v5.2v0.9c0.3,0,1-0.3,1-1v-5.1c0.2,0,0.4-0.6,0.4-0.8H694.4z"/>
		<path style="fill-rule:evenodd;clip-rule:evenodd;fill:#EC6C00;" d="M703.3,427.6V427h2.1c0.3,0,0.6-0.5,0.7-0.8h-2.8v-0.6h1.6
			c0.4,0,1.2-0.6,1.2-0.9v-3.2h-6.6v4.2h2.7v0.6h-2.7v0.8h2.7v0.6h-2.7v0.8h6.2c0.3,0,0.5-0.5,0.7-0.8H703.3z M703.3,423.9h0.5
			c0.1,0,0.2,0,0.2-0.1c0.1-0.1,0.6-0.6,0.6-0.7h-1.4v-0.9h1.5v2.6h-1.5V423.9z M702.1,424.8h-1.5v-0.9h1.5V424.8z M702.1,423.1
			h-1.5v-0.9h0.7h0.7V423.1z"/>
		<path style="fill-rule:evenodd;clip-rule:evenodd;fill:#EC6C00;" d="M708.2,427.5v-2h4.2c0.4,0,1.1-0.6,1.1-1v-3.1H707v6
			c0,0.5,0.3,1,0.8,1c0.4,0,4.6,0,5,0c0.4,0,0.8-0.6,0.9-0.9H708.2z M712.3,424.7h-1.4v-2.3h1.4V424.7z M708.2,422.4h1.5v2.3h-1.5
			V422.4z"/>
		<path style="fill-rule:evenodd;clip-rule:evenodd;fill:#EC6C00;" d="M715.8,427.5v-2h4.2c0.4,0,1.1-0.6,1.1-1v-3.1h-6.6v6
			c0,0.5,0.3,1,0.8,1c0.4,0,4.6,0,5,0c0.4,0,0.8-0.6,0.9-0.9H715.8z M719.9,424.7h-1.4v-2.3h1.4V424.7z M715.8,422.4h1.5v2.3h-1.5
			V422.4z"/>
	</g>
	<g>
		<path style="fill:#EC6C00;" d="M725.7,426.1v-0.2h0.5v0.2h3c0,0-0.1,0.4-0.7,0.4c-0.7,0-2.2,0-2.2,0s0,0.8,0,1.1
			c0,0.8-0.5,0.9-0.5,0.9v-2h-3.6v-0.4H725.7z"/>
		<path style="fill:#EC6C00;" d="M723.5,427.1h0.5c0,0-0.6,0.7-0.7,0.9c-0.2,0.2-0.4,0.5-0.7,0.5c-0.2,0-0.2,0-0.2,0L723.5,427.1z"
			/>
		<path style="fill:#EC6C00;" d="M728.1,427.1h-0.5c0,0,0.6,0.7,0.7,0.9c0.2,0.2,0.4,0.5,0.7,0.5c0.2,0,0.2,0,0.2,0L728.1,427.1z"/>
		<g>
			<path style="fill:#EC6C00;" d="M728.5,422.1c0.6,0,0.8-0.4,0.8-0.4h-3l0.2-0.3H726l-0.2,0.3h-2l0.2-0.3h-0.5l-1.3,1.7h0.5v2.3
				c0,0,0.1,0,0.1,0c0.8,0,0.9-0.1,0.9-0.1s4.1,0,4.8,0c0.6,0,0.7-0.4,0.7-0.4h-3v-0.7c0,0,1.6,0,2.3,0c0.6,0,0.7-0.4,0.7-0.4h-3
				v-0.7c0,0,1.6,0,2.3,0c0.6,0,0.7-0.4,0.7-0.4h-3v-0.6C726.2,422.1,728,422.1,728.5,422.1z M725.7,424.9h-2.5v-0.6h2.5V424.9z
				 M725.7,423.9h-2.5v-0.6h2.5V423.9z M725.7,422.8h-2.5l0-0.2l0.1-0.2l0.2-0.2h2.2V422.8z"/>
		</g>
	</g>
	<path style="fill:#EC6C00;" d="M730.6,421.5v7h5.9c0.4,0,0.6-0.4,0.6-0.9v-6.2H730.6z M736.6,427.6c0,0.3-0.1,0.5-0.4,0.5H731v-6.2
		h5.6V427.6z"/>
	<path style="fill:#EC6C00;" d="M733.3,424.5l-1.5,2.7c0,0,0.5,0.1,0.7-0.4l1.3-2.3L733.3,424.5z"/>
	<path style="fill:#EC6C00;" d="M735.1,426.6c0,0.1-0.1,0.2-0.2,0.2h-0.5v0.4h0.6c0.4,0,0.5-0.1,0.5-0.6c0,0,0-2.6,0-2.6
		c0.5,0,0.5-0.4,0.5-0.4l-0.5,0v-0.9h-0.5v0.9h-3.4v0.4h3.4V426.6z"/>
</g>
<g>
	<defs>
		<rect id="SVGID_1_" x="520.3" y="216" width="199.6" height="381.8"/>
	</defs>
	<clipPath id="SVGID_2_">
		<use xlink:href="#SVGID_1_"  style="overflow:visible;"/>
	</clipPath>
	<path style="clip-path:url(#SVGID_2_);fill-rule:evenodd;clip-rule:evenodd;fill:#FF6600;" d="M615.4,657.9
		c3.8,0.1,60.4-3.5,74.1,3.5c10.9,5.6,9,16,4.8,17.5c-11.6,4.2-35.6,2.6-49.3,2c-14.3-0.6-44.8-5-50.5-6.6c-12-3.3-5.2-10.8-4-16.2
		c1.2-5.6,1.8-11.1,1.5-17.1c-0.1-2-0.2-5.8-3.7-5.6c-3.8,1.2-7.4,1.8-10.7,2.1c0,0,0,0-0.1,0c-0.3,0-0.5,0-0.8,0.1
		c-0.2,0-0.4,0-0.6,0c-0.2,0-0.3,0-0.5,0c-0.3,0-0.5,0-0.8,0c-0.1,0-0.3,0-0.4,0c-0.3,0-0.5,0-0.8,0c-0.1,0-0.3,0-0.4,0
		c-0.2,0-0.4,0-0.6,0s-0.4,0-0.6,0c-0.1,0-0.3,0-0.4,0c-0.3,0-0.5,0-0.8,0c-0.1,0-0.3,0-0.4,0c-0.3,0-0.5,0-0.8,0
		c-0.2,0-0.3,0-0.5,0c-0.2,0-0.4,0-0.6,0c-0.3,0-0.5,0-0.8-0.1c0,0,0,0-0.1,0c-3.3-0.3-6.9-1-10.7-2.1c-3.5-0.2-3.6,3.6-3.7,5.6
		c-0.3,6,0.3,11.5,1.5,17.1c1.1,5.4,8,12.8-4,16.2c-5.7,1.6-39.1,5.7-53.4,6.7c-15.4,1-40.9,1.2-48.2-1.9c-4-1.7-4.2-12,6.7-17.6
		c13.7-7,70.6-3.9,74.3-4.1c7.9-0.6,6.4-3.1,6.4-7.1c0.1-7.4-6-11.3-11.2-14.5c-5.2-3.3-31.3-14.8-31.3-40.2
		c0-13,3.6-30.6,20.4-55.7c12.1-17.9,20.7-33.5,26.9-46.6c-17.1,7.2-33.1,16.7-41.7,22.7c-10.7,7.4-14,12.8-17.5,15.9
		c-4.8,4.2-11.6,8.2-13.7,6.6c-4.5-3.5,5-5.7,4.6-8.6c-0.7-5.3-17.9,6.7-20.4,2.5c-2.7-4.7,4.8-6.9,4.8-6.9s-2.8,0-3.6-0.7
		c-0.8-0.7-1.3-2.2-0.4-3.2c1.7-1.9,7.1-2,12.3-3.3c4-1,10-3,11.7-3.9c10.3-3,22.5-14.7,44.7-34.7c14.1-14,28.4-21.4,32.8-23.6
		c0.8-3.3,1.3-5.9,1.6-7.8c-2-1.8-3.9-3.9-6.1-6.1c-8.5-8.5-12.2-14.1-12.2-14.2c-10.7-16.2-6.4-42.3-4.5-48.4
		c1.4-4.3,2.6-10,4-15.5c-8.3-2.9-50.9-21-40.5-81.8c1.1-5.3,8.8-0.5,8.8-0.5s14.3,8,29.6,27.1c-1.5-9.7,0.1-17,0.1-17
		c0.4-1.6,1.5-1.4,2.5-0.9c22.5,11,31.6,31.1,34.9,44.4l0,0c0.1,0,0.1,0,0.2,0c2.4-11.1,10.1-32.7,34.7-44.2c0.6-0.3,1.4-0.5,2,0.5
		c0,0,1.7,7.6,0.1,17.7c15.5-19.6,30.1-27.7,30.1-27.7s7.7-4.9,8.8,0.5c10.4,60.7-32.3,78.8-40.6,81.7c1.6,5.6,2.9,11.3,4.2,15.6
		c1.9,6.1,6.2,32.2-4.5,48.4c0.1,0.1-4.3,6.9-13.2,14.9c-2.4,2.1-4.2,4.1-6.1,5.9c0.3,1.7,0.7,4,1.4,6.8c5.3,2.6,18.6,10,31.9,23.1
		c22.2,20,34.4,31.6,44.7,34.7c1.7,0.9,7.7,2.9,11.7,3.9c5.2,1.3,10.6,1.4,12.3,3.3c0.9,1,0.4,2.5-0.4,3.2c-0.8,0.7-3.6,0.7-3.6,0.7
		s7.6,2.3,4.8,6.9c-2.5,4.2-19.7-7.8-20.4-2.5c-0.4,2.8,9.1,5,4.6,8.6c-2,1.6-8.9-2.4-13.7-6.6c-3.5-3.1-6.8-8.5-17.5-15.9
		c-8.5-5.8-24.1-15.2-40.9-22.3c6.2,13.2,14.9,29,27.2,47.2c16.9,25.1,20.4,42.7,20.4,55.7c0,25.4-26.1,36.9-31.3,40.2
		c-5.2,3.3-11.3,7.1-11.2,14.5C608.8,654.1,607.5,657.7,615.4,657.9z"/>
</g>
<g>
	<defs>
		<rect id="SVGID_3_" x="78.6" y="-4.8" width="169" height="192.6"/>
	</defs>
	<clipPath id="SVGID_4_">
		<use xlink:href="#SVGID_3_"  style="overflow:visible;"/>
	</clipPath>
	<path style="clip-path:url(#SVGID_4_);fill:none;stroke:#D8D8D8;" d="M220.3,170.2c0,90-27.4,163-61.2,163s-61.2-73-61.2-163
		c0-90,27.4-163,61.2-163C191.1,7.2,220.3,80.2,220.3,170.2z"/>
</g>
<g>
	<defs>
		<rect id="SVGID_5_" x="582.6" y="-4.8" width="169" height="192.2"/>
	</defs>
	<clipPath id="SVGID_6_">
		<use xlink:href="#SVGID_5_"  style="overflow:visible;"/>
	</clipPath>
	<path style="clip-path:url(#SVGID_6_);fill:none;stroke:#D8D8D8;" d="M724.3,169.9c0,90-27.4,163-61.2,163s-61.2-73-61.2-163
		c0-90,27.4-163,61.2-163C695.1,6.9,724.3,79.9,724.3,169.9z"/>
</g>
<g>
	<defs>
		<rect id="SVGID_7_" x="97.4" y="268.6" width="211.3" height="329.5"/>
	</defs>
	<clipPath id="SVGID_8_">
		<use xlink:href="#SVGID_7_"  style="overflow:visible;"/>
	</clipPath>
	<g id="形状_13_2_" style="clip-path:url(#SVGID_8_);">
		<g>
			<path style="fill:#FF9B48;" d="M240.5,454.1c0,0-17.1,7.3-34,24.1c-22,19.9-34.2,31.4-44.4,34.4c-1.7,0.9-7.7,2.9-11.6,3.8
				c-5.2,1.3-10.5,1.3-12.3,3.3c-0.9,1-0.4,2.5,0.4,3.2c0.8,0.7,3.6,0.7,3.6,0.7s-7.5,2.2-4.8,6.9c2.5,4.2,19.5-7.8,20.3-2.5
				c0.4,2.8-9.1,5-4.6,8.5c2,1.6,8.8-2.4,13.6-6.6c3.5-3.1,6.7-8.4,17.4-15.8c8.6-6,24.8-15.6,42.1-22.8
				C264.7,475.2,240.5,454.1,240.5,454.1z"/>
		</g>
	</g>
	<g id="形状_14_2_" style="clip-path:url(#SVGID_8_);">
		<g>
			<path style="fill:#CC7123;" d="M149.5,519.1c-0.8,0.8-2.9,2-3.9,2.7c-2.1,1.3-4,1.7-4,1.7s0.5,0.1,1.4-0.1c2.5-0.7,5.7-2,7.2-3.3
				C151.3,519.1,150.6,518,149.5,519.1z"/>
		</g>
	</g>
	<g id="形状_13_1_" style="clip-path:url(#SVGID_8_);">
		<g>
			<path style="fill-rule:evenodd;clip-rule:evenodd;fill:#FF9B48;" d="M373.2,523.5c0,0,2.8,0,3.6-0.7c0.8-0.7,1.3-2.2,0.4-3.2
				c-1.7-1.9-7.1-2-12.3-3.3c-3.9-1-9.9-3-11.6-3.8c-10.3-3-22.4-14.6-44.4-34.4c-16.9-16.7-35.2-24.2-35.2-24.2s-23,21.3,15.5,37.4
				c17.2,7.2,33.4,16.8,42.1,22.8c10.7,7.4,13.9,12.7,17.4,15.8c4.7,4.2,11.6,8.2,13.6,6.6c4.5-3.5-5-5.7-4.6-8.5
				c0.7-5.3,17.8,6.7,20.3,2.5C380.8,525.8,373.2,523.5,373.2,523.5z"/>
		</g>
	</g>
	<g id="形状_14_1_" style="clip-path:url(#SVGID_8_);">
		<g>
			<path style="fill-rule:evenodd;clip-rule:evenodd;fill:#CC7123;" d="M370,521.8c-1-0.6-3.1-1.9-3.9-2.7c-1.2-1.1-1.8,0-0.7,1
				c1.5,1.3,4.7,2.7,7.2,3.3c0.9,0.2,1.4,0.1,1.4,0.1S372.1,523,370,521.8z"/>
		</g>
	</g>
	
		<radialGradient id="SVGID_9_" cx="260.7075" cy="492.4936" r="79.6906" gradientTransform="matrix(1 0 0 0.9295 0 34.6991)" gradientUnits="userSpaceOnUse">
		<stop  offset="0" style="stop-color:#FFC07D"/>
		<stop  offset="0.5713" style="stop-color:#FEB162"/>
		<stop  offset="1" style="stop-color:#FEA852"/>
	</radialGradient>
	<path style="clip-path:url(#SVGID_8_);fill-rule:evenodd;clip-rule:evenodd;fill:url(#SVGID_9_);" d="M377.7,676.1
		c-11.5,4.1-35.3,2.6-49,2c-14.3-0.6-44.6-5-50.2-6.5c-12-3.3-5.2-10.7-4-16.1c1.2-5.5,1.8-11,1.5-17c-0.1-2-0.2-5.7-3.7-5.5
		c-3.8,1.1-7.4,1.8-10.7,2.1c0,0,0,0-0.1,0c-0.3,0-0.5,0.1-0.8,0.1c-0.2,0-0.4,0-0.6,0c-0.2,0-0.3,0-0.5,0c-0.3,0-0.5,0-0.8,0
		c-0.1,0-0.3,0-0.4,0c-0.3,0-0.5,0-0.8,0c-0.1,0-0.3,0-0.4,0c-0.2,0-0.4,0-0.6,0c-0.2,0-0.4,0-0.6,0c-0.1,0-0.3,0-0.4,0
		c-0.3,0-0.5,0-0.8,0c-0.1,0-0.3,0-0.4,0c-0.3,0-0.5,0-0.8,0c-0.2,0-0.3,0-0.5,0c-0.2,0-0.4,0-0.6,0c-0.3,0-0.5,0-0.8-0.1
		c0,0,0,0-0.1,0c-3.3-0.3-6.9-1-10.7-2.1c-3.5-0.2-3.6,3.6-3.7,5.5c-0.3,6,0.3,11.5,1.5,17c1.1,5.4,7.9,12.8-4,16.1
		c-5.6,1.6-38.9,5.7-53.1,6.6c-15.3,1-40.6,1.2-47.9-1.9c-4-1.7-4.2-12,6.6-17.5c13.6-7,70.1-3.9,73.8-4.1c7.9-0.6,6.3-3.1,6.4-7
		c0.1-7.4-6-11.2-11.1-14.4c-5.2-3.3-31.1-14.7-31.1-39.9c0-13,3.6-30.5,20.3-55.4c40.8-60.6,42.3-94.5,42.3-94.5l3.3-0.1
		c0.1-0.6,0.2-1,0.2-1l12.1,0.5l12.1-0.5c0,0,0.1,0.3,0.2,1l3.3,0.1c0,0,1.5,33.8,42.3,94.5c16.8,24.9,20.3,42.4,20.3,55.4
		c0,25.2-25.9,36.6-31.1,39.9c-5.2,3.3-11.3,7.1-11.1,14.4c0.1,4-1.2,7.5,6.6,7.7c3.7,0.1,60-3.5,73.6,3.5
		C383.7,664.3,381.8,674.6,377.7,676.1z"/>
	<path style="clip-path:url(#SVGID_8_);fill-rule:evenodd;clip-rule:evenodd;fill:#DD7528;" d="M148.5,663.1
		c-11.8,3.1-10.4,8.6-8.7,13c0.2,0.5,0.5,1.1,0.8,1.6c0.7,0.1,1.4,0.2,2.2,0.3c-4.1-9.4,1.8-12.4,7-14.2
		C152.1,663,150.1,662.7,148.5,663.1z"/>
	<path style="clip-path:url(#SVGID_8_);fill-rule:evenodd;clip-rule:evenodd;fill:#DD7528;" d="M162.9,662.7
		c-10.1,2.3-8.6,10.8-7,14.8c0.2,0.5,0.4,0.9,0.6,1.2c0.7,0,1.3,0,2,0c-2.9-8.7,0.8-12.4,3.8-14.4
		C163.8,663.3,166.5,661.9,162.9,662.7z"/>
	<path style="clip-path:url(#SVGID_8_);fill-rule:evenodd;clip-rule:evenodd;fill:#DD7528;" d="M371.2,677.7
		c0.1-0.4,0.3-0.8,0.4-1.2c1.3-4.3-0.1-11.9-8.4-14c-4.6-1.1-2.6,0.9-0.6,1.6c4.9,1.6,7.5,7.5,5.3,14.1
		C369,678,370.1,677.8,371.2,677.7z"/>
	<path style="clip-path:url(#SVGID_8_);fill-rule:evenodd;clip-rule:evenodd;fill:#DD7528;" d="M355.7,677.6
		c2.4-5.3,0.3-13.1-5.4-15.3c-2.3-0.5-0.1,1.4,1.5,3.1c2.2,2.3,3.3,7.8,1.4,12c-0.3,0.6-0.5,1-0.6,1.4c0.8,0,1.6,0,2.5,0
		C355.2,678.5,355.5,678.1,355.7,677.6z"/>
	<g id="形状_12_1_" style="clip-path:url(#SVGID_8_);">
		<g>
			
				<linearGradient id="SVGID_10_" gradientUnits="userSpaceOnUse" x1="260.8339" y1="498.0776" x2="259.5947" y2="386.5523" gradientTransform="matrix(1 0 0 1 -3.7472 64.0992)">
				<stop  offset="0" style="stop-color:#FFC28A"/>
				<stop  offset="0.7938" style="stop-color:#FFCD9F"/>
				<stop  offset="1" style="stop-color:#FFD0A5"/>
			</linearGradient>
			<path style="fill-rule:evenodd;clip-rule:evenodd;fill:url(#SVGID_10_);" d="M275.9,488.9c-8.5-13.9-29.5-12.5-37.8,1
				c-10,16.3-22.1,60.6-13.5,85.8c7.1,20.8,56.5,22.2,64.1,2.2C299,551.3,284.9,503.6,275.9,488.9z"/>
		</g>
	</g>
	<path style="opacity:0.6;clip-path:url(#SVGID_8_);fill-rule:evenodd;clip-rule:evenodd;fill:#DD7528;" d="M198.9,553.4
		c0,0,22.9,5.7,59.7,5.7c34.7,0,41.1-2,59.3-6.2C318.5,553.4,262,651.6,198.9,553.4z"/>
	<g id="形状_11_拷贝_2_1_" style="clip-path:url(#SVGID_8_);">
		<g>
			<path style="fill-rule:evenodd;clip-rule:evenodd;fill:#FFBF80;" d="M316.5,553.4c-0.5,0.3-1,0.5-1.5,0.7
				c-16.8,7.5-36.8,9.9-52.4,10.3c-15.4,0.1-38.2-1.3-57-8.7c-1.6-0.7-4-1.4-5.6-2.2c-4.3-2.1-5.2,3.3-5.1,6.4
				c0.2,13.5,3.2,56.1,41.8,70.5c1.6,1,6.3,3.4,15.9,3.9c3.1,0.5,6.7,0.4,10.2-0.1c0.4,0,0.8,0,1.1-0.1c5.8-0.6,11-2,15.7-4
				c0.3-0.1,0.5-0.2,0.5-0.2v0c29.4-13,37.6-50.5,40-68.7c0.2-1.4,0.3-2.6,0.4-3.7C321.3,552.8,318,552.6,316.5,553.4z"/>
		</g>
	</g>
	<path style="opacity:0.6;clip-path:url(#SVGID_8_);fill-rule:evenodd;clip-rule:evenodd;fill:#DD7528;" d="M272.2,443.4
		c-4.5,2.7-10.7,6.4-14.2,6.9c-5.2,0.8-11.1-0.1-17-6.8c0,0.5-0.2,2.8-1,6.8c1.7,5.4,5.3,11.2,13.1,12.1c9.1,1.1,16-6.3,20.1-12.7
		c-0.8-4.2-0.9-6.3-0.9-6.3L272.2,443.4z"/>
	<g id="形状_9_1_" style="clip-path:url(#SVGID_8_);">
		<g>
			<path style="fill-rule:evenodd;clip-rule:evenodd;fill:#FFC07D;" d="M240.4,340.7c-19.4-42.7-49-59.1-49-59.1s-7.7-4.9-8.7,0.4
				c-11.4,66.8,41.6,81.7,41.6,81.7S259.8,383.3,240.4,340.7z"/>
		</g>
	</g>
	<g id="形状_10_1_" style="clip-path:url(#SVGID_8_);">
		<g>
			<path style="fill-rule:evenodd;clip-rule:evenodd;fill:#FF9B48;" d="M234.4,350.5c-7.3-32.8-34.7-44.1-34.7-44.1s-5.7-4-5.8,1.6
				c2.3,42.1,37.4,48.8,37.4,48.8S236,358.1,234.4,350.5z"/>
		</g>
	</g>
	<g id="形状_9_拷贝_1_" style="clip-path:url(#SVGID_8_);">
		<g>
			<path style="fill:#FFC07D;" d="M333.5,281.9c-1.1-5.3-8.7-0.4-8.7-0.4s-29.7,16.4-49.1,59.1c-19.4,42.6,16.1,23,16.1,23
				S344.9,348.7,333.5,281.9z"/>
		</g>
	</g>
	<g id="形状_10_拷贝_1_" style="clip-path:url(#SVGID_8_);">
		<g>
			<path style="fill:#FF9B48;" d="M316.5,306.3c0,0-27.4,11.3-34.7,44.1c-1.6,7.6,3.1,6.3,3.1,6.3s35.1-6.7,37.4-48.8
				C322.2,302.3,316.5,306.3,316.5,306.3z"/>
		</g>
	</g>
	<g id="脸_2_" style="clip-path:url(#SVGID_8_);">
		<g>
			
				<radialGradient id="SVGID_11_" cx="261.907" cy="384.1003" r="51.4689" gradientTransform="matrix(0.9999 1.315258e-02 -9.151512e-03 0.6957 -0.2094 177.5224)" gradientUnits="userSpaceOnUse">
				<stop  offset="0" style="stop-color:#FECD97"/>
				<stop  offset="1" style="stop-color:#FFC07A"/>
			</radialGradient>
			<path style="fill:url(#SVGID_11_);" d="M297.4,378.6c-1.9-6.1-3.7-14.9-6.3-22.2c-5.7-16.4-19-21.9-33.1-21.6
				c-14.2,0.2-27.7,6.3-33.1,21.7c-2.5,7.3-4.1,16.1-6,22.2c-1.9,6.1-6.1,32,4.5,48.1c-0.1,0.1,4.5,5.7,13,14.1
				c6.9,6.9,10.9,12.6,19.8,13.2c0.1,0,0.1,0,0.2,0c0.1,0,0.1,0,0.2,0c0.7,0,1.5,0,2.3,0c0.1,0,0.3,0,0.4-0.1
				c11-0.7,14.6-7.6,21.5-13.8c8.9-8,12.3-13.4,12.2-13.5C303.5,410.7,299.3,384.7,297.4,378.6z"/>
		</g>
	</g>
	<path style="clip-path:url(#SVGID_8_);fill-rule:evenodd;clip-rule:evenodd;fill:#66361F;" d="M257.6,383.9
		c-0.1,0.1,15.4-4.5,22-21.3c0-0.4,7,12.6,18.2,17.7c-0.2-0.7-0.3-1.2-0.5-1.7c-1.7-7.3-3.2-14.3-5.7-21.6
		c-5.7-16.4-19.5-22.5-33.6-22.2c-14.2,0.2-27.7,6.3-33.1,21.7c-2.5,7.3-4.8,16.7-6,22.2c-0.1,0.3-0.2,0.6-0.3,0.9
		c3.8-0.6,10.6-3.6,17-16.3C235.4,363.4,238.7,374.6,257.6,383.9z"/>
	<path style="clip-path:url(#SVGID_8_);fill-rule:evenodd;clip-rule:evenodd;fill:#E5432E;" d="M295.4,371.5
		c-0.7-2.8-1.5-5.7-2.3-8.6c-5.5-7.2-16.9-18.6-34.6-18.4c-20.4,0.2-30.4,11.1-35.4,18.1c-0.7,2.7-1.4,5.4-2,8
		c4.8-5,17.6-15.9,37.4-15.8C276.2,354.8,288.9,365.4,295.4,371.5z"/>
	<g id="形状_3_拷贝_1_" style="clip-path:url(#SVGID_8_);">
		<g>
			<path style="fill-rule:evenodd;clip-rule:evenodd;fill:#E5432E;" d="M294.8,291.4c-0.6-1-1.4-0.7-2-0.4
				c-24.8,11.6-32.3,33.4-34.6,44.3c-3.2-13.1-12.2-33.4-34.8-44.5c-0.9-0.5-2-0.7-2.5,0.9c0,0-8.1,36.6,29.1,55.3
				c-7.7,5.9-15.9,13.5,7.9,3.5c25.8,10.8,15.1,2,7.7-3.5C303,328.3,294.8,291.4,294.8,291.4z"/>
		</g>
	</g>
	<g id="形状_73_1_" style="clip-path:url(#SVGID_8_);">
		<g>
			<path style="fill-rule:evenodd;clip-rule:evenodd;fill:#AD4023;" d="M256.9,330.8c0,0-1.6,3.8-1.4,8.4c0.3,5.4,1.6,8,1.7,5.9
				c0-1.5,0.7-7,1.1-10C258.4,334.3,256.9,330.8,256.9,330.8z"/>
		</g>
	</g>
	<g id="形状_82_1_" style="clip-path:url(#SVGID_8_);">
		<g>
			<path style="fill-rule:evenodd;clip-rule:evenodd;fill:#CA4825;" d="M273.9,347.5c-1-0.5-5-2.2-5.6-1.8c-3.5,2.2-7.1,5.9-2.1,4.7
				C269.8,349.5,275,348,273.9,347.5z M248,345.8c-1.3-0.4-5.8,1.6-5.8,1.6s1.7,0.9,3.8,1.5c2.1,0.6,6.6,2.3,6.2,0.9
				C251.9,348.5,250,346.4,248,345.8z"/>
		</g>
	</g>
	<path style="clip-path:url(#SVGID_8_);fill-rule:evenodd;clip-rule:evenodd;fill:#FFCE99;" d="M241.9,403.1
		c-4.2-10.4-10.7-12.6-15.1-11.8c-8.3,1.5-9.4,5.7-9.4,5.5c0.1-0.2-0.2-7.5,6.9-9.3c6.4-1.6,12.9,1,15.7,5.4
		c2.6,4,2.3,10.2,2.3,10.2"/>
	<path style="clip-path:url(#SVGID_8_);fill-rule:evenodd;clip-rule:evenodd;fill:#FFCE99;" d="M273.8,403.1
		c4.2-10.4,10.7-12.6,15.1-11.8c8.3,1.5,9.4,5.7,9.4,5.5c-0.1-0.2,0.2-7.5-6.9-9.3c-6.4-1.6-12.9,1-15.7,5.4
		c-2.6,4-2.3,10.2-2.3,10.2"/>
	<g id="形状_4_2_" style="clip-path:url(#SVGID_8_);">
		<g>
			<path style="fill:#FFFFFF;" d="M231.9,392.1c-3.4-1.6-10.5-0.8-13.4,1.6c0,0-4.2,17.4,11,19c7.6,0.3,12-3.7,12.7-8
				C243,399.9,235.8,394,231.9,392.1z"/>
		</g>
	</g>
	<g id="形状_6_2_" style="clip-path:url(#SVGID_8_);">
		<g>
			<path style="fill-rule:evenodd;clip-rule:evenodd;fill:#512A15;" d="M239.3,396.2c0-0.1-3.9-5.4-9-6.6c-1.9-0.5-6,0.5-6,0.5
				s-6.2,5.1-1.6,13.6c2.7,4.5,6.9,6.4,10.7,6c4.6-0.5,7.3-3.8,7.7-7.4C241.4,398.7,239.3,396.2,239.3,396.2z"/>
		</g>
	</g>
	<g id="形状_48_1_" style="clip-path:url(#SVGID_8_);">
		<g>
			<path style="fill:#FFFFFF;" d="M226.9,402.7c-0.2-1.4-4.7-1.6-5.7,0.3c-0.7,1.4,0.1,3,1.2,3.3
				C224.6,406.7,227.2,404.6,226.9,402.7z"/>
		</g>
	</g>
	<g id="形状_36_副本_2_" style="clip-path:url(#SVGID_8_);">
		<g>
			<path style="fill-rule:evenodd;clip-rule:evenodd;fill:#A85726;" d="M237.4,382c-5.6-2.4-11.5-1.6-10.5,0.7
				c0.4,1,3.2-0.7,7.8,0.7c6.2,2,6,5.5,7.5,5.1C244.8,387.8,240.6,383.4,237.4,382z"/>
		</g>
	</g>
	<g id="形状_4_1_" style="clip-path:url(#SVGID_8_);">
		<g>
			<path style="fill:#FFFFFF;" d="M297.7,393.7c-2.8-2.4-9.9-2.9-13.4-1.6c-8.2,3-11.2,7.8-10.4,12.5c0.7,4.4,5.1,8.3,12.7,8
				C301.9,411.1,297.7,393.7,297.7,393.7z"/>
		</g>
	</g>
	<g id="形状_6_1_" style="clip-path:url(#SVGID_8_);">
		<g>
			<path style="fill-rule:evenodd;clip-rule:evenodd;fill:#512A15;" d="M292.3,391c0,0-3.5-0.9-5.4-0.4c-5.2,1.2-9.3,4.4-9.3,4.5
				c0,0-1.5,5.7-0.6,8.1c1.7,4.5,3.3,6.5,7.9,6.6c3.8,0.1,8.1-1.3,9.7-6.7C296.6,396.7,292.3,391,292.3,391z"/>
		</g>
	</g>
	<g id="形状_48_副本_1_" style="clip-path:url(#SVGID_8_);">
		<g>
			<path style="fill:#FFFFFF;" d="M281.5,403.2c-1-1.8-5.1,0.4-5.3,1.8c-0.3,2.3,0.9,2.9,2.6,2.4C280.7,406.9,282.4,405,281.5,403.2
				z"/>
		</g>
	</g>
	<g id="形状_36_副本_1_" style="clip-path:url(#SVGID_8_);">
		<g>
			<path style="fill-rule:evenodd;clip-rule:evenodd;fill:#A85726;" d="M278.9,381.9c-3.2,1.3-7.4,5-5.6,6.2
				c1.7,1.2,2.8-2.7,7.2-4.2c5.5-1.8,9.5,0.2,9.8-1.2C290.7,380.7,284.5,379.7,278.9,381.9z"/>
		</g>
	</g>
	<g id="Shape_2_2_" style="clip-path:url(#SVGID_8_);">
		<g>
			<path style="fill-rule:evenodd;clip-rule:evenodd;fill:#9C6342;" d="M295.9,408.8c1.6-2.3,1.8-4.6,1.3-3.8c-1,2-2.4,4.4-5.4,5.8
				c-2.9,1.3-6.3,1.4-8.6,1.5c-2.1,0,4.2,1.5,8.6-0.2c0.3,0.1,0.8,0.3,1.3,0.6c0.6,0.3,1.7,1.1,1.7,0.7c-0.1-0.7-0.5-1.7-1.1-2.2
				c0.4-0.3,0.8-0.7,1.2-1c0.2,0,0.4,0,0.7,0.1c0.9,0.1,1.8,1.3,1.8,0.7C297.4,410.2,296.8,409.3,295.9,408.8z"/>
		</g>
	</g>
	<g id="形状_65_副本_2_" style="clip-path:url(#SVGID_8_);">
		<g>
			<path style="fill-rule:evenodd;clip-rule:evenodd;fill:#713D1F;" d="M303.6,391.7c-0.3,0.5-1.2,1.4-2.3,1.9
				c-0.9,0.4-2.2,0.7-3.4,0.3c0-0.1-0.1-0.2-0.1-0.3c-0.8-1.6-3.5-3.5-6.1-4c-4.2-0.8-7.7-0.3-10.7,1.1c-4,1.9-6.8,5.5-7.6,10.4
				c-0.4,2.1,0.1,3.3,0.8,1.5c1.5-4.4,3-6.8,7-9c3.2-1.7,7.1-3,12.9-0.1c2,1,3.1,2.9,3.4,4.3c0.1,0.5,0.6,2.2,0.8,1.1
				c0.1-0.5,0.1-1.1,0.2-1.7c0.4,0,1.1,0,2.1-0.4c0.8-0.3,2.2-1.3,2.8-2.5C304.1,393,304.1,390.8,303.6,391.7z"/>
		</g>
	</g>
	<g id="Shape_2_1_" style="clip-path:url(#SVGID_8_);">
		<g>
			<path style="fill-rule:evenodd;clip-rule:evenodd;fill:#9C6342;" d="M232.9,412.3c-2.3,0-5.8-0.1-8.6-1.5
				c-3.1-1.5-4.4-3.8-5.4-5.8c-0.4-0.9-0.2,1.5,1.3,3.8c-0.9,0.5-1.5,1.4-1.5,2c0,0.6,0.9-0.5,1.8-0.7c0.3,0,0.5-0.1,0.7-0.1
				c0.4,0.4,0.8,0.7,1.2,1c-0.6,0.5-1,1.5-1.1,2.2c-0.1,0.4,1.1-0.3,1.7-0.7c0.5-0.3,1-0.5,1.3-0.6
				C228.7,413.8,235,412.3,232.9,412.3z"/>
		</g>
	</g>
	<g id="形状_65_副本_1_" style="clip-path:url(#SVGID_8_);">
		<g>
			<path style="fill-rule:evenodd;clip-rule:evenodd;fill:#713D1F;" d="M242.2,401.2c-0.8-4.9-3.6-8.5-7.6-10.4
				c-3-1.4-6.6-2-10.7-1.1c-2.3,0.5-4.6,2-5.5,3.3c-0.2,0.3-0.3,0.6-0.5,0.9c0,0,0,0,0,0c-1.3,0.4-2.7,0.1-3.6-0.3
				c-1-0.5-2-1.4-2.3-1.9c-0.5-0.9-0.5,1.2,0.2,2.6c0.6,1.2,2,2.2,2.8,2.5c1.1,0.4,1.8,0.5,2.2,0.4c0,0.6,0,1.2,0.1,1.7
				c0.1,1.1,0.7-0.1,0.8-0.6c0.7-2.1,1.4-3.9,3.4-4.8c5.8-2.8,9.7-1.6,12.9,0.1c4,2.2,5.5,4.9,7,9
				C242.2,404.5,242.6,403.2,242.2,401.2z"/>
		</g>
	</g>
	<g id="腮红2_1_" style="clip-path:url(#SVGID_8_);">
		<g>
			<path style="fill-rule:evenodd;clip-rule:evenodd;fill:#FFA083;" d="M231.5,417.5c-6-0.6-8.7,1.4-8.7,3.3c0,1.5,2.2,4.6,7.8,4.9
				c7,0.4,9.1-1.9,9.2-3.1C239.8,421.3,238.9,418.3,231.5,417.5z"/>
		</g>
	</g>
	<g id="腮红2_副本_1_" style="clip-path:url(#SVGID_8_);">
		<g>
			<path style="fill-rule:evenodd;clip-rule:evenodd;fill:#FFA083;" d="M284.7,417.5c-7.4,0.8-8.3,3.7-8.3,5
				c0.1,1.2,2.1,3.5,9.2,3.1c5.6-0.3,7.8-3.4,7.8-4.9C293.4,418.9,290.7,416.9,284.7,417.5z"/>
		</g>
	</g>
	<path style="clip-path:url(#SVGID_8_);fill-rule:evenodd;clip-rule:evenodd;fill:#512A15;" d="M257.5,449.9c-3.8,0-9.9-3.5-9.4-7.3
		c0.4-3,3.5-4.1,9.5-4.1c6.1,0,9.2,1,9.5,4.1C267.4,446,262.3,449.9,257.5,449.9z"/>
	<g id="形状_20_1_" style="clip-path:url(#SVGID_8_);">
		<g>
			<path style="fill:#FCEACB;" d="M243.4,518.2c-11.4-8.9-25.6-3.1-25.6-0.9c0.9,24.1,23.9,21.7,23.9,21.7c8-0.9,9-6.5,9-6.5
				S251.1,524.1,243.4,518.2z"/>
		</g>
	</g>
	<g id="形状_21_1_" style="clip-path:url(#SVGID_8_);">
		<g>
			<path style="fill:#FFBD99;" d="M247.4,531.4c-1.6-8.3-18.6-11-18.3-7.6c0.8,13.4,15.9,12.3,15.9,12.3S247.9,535.6,247.4,531.4z"
				/>
		</g>
	</g>
	<g id="形状_20_拷贝_1_" style="clip-path:url(#SVGID_8_);">
		<g>
			<path style="fill:#FCEACB;" d="M271,519.2c-7.9,7.1-5.6,15.8-5.6,15.8s0.6,3.2,8.6,4.1c0,0,23.1,2.4,24-21.7
				C298.1,515.1,283.5,507.9,271,519.2z"/>
		</g>
	</g>
	<g id="形状_21_拷贝_1_" style="clip-path:url(#SVGID_8_);">
		<g>
			<path style="fill-rule:evenodd;clip-rule:evenodd;fill:#FFBD99;" d="M268.5,531.4c-0.6,4.3,2.5,4.7,2.5,4.7s15.1,1.1,15.9-12.3
				C287.1,520.4,270.1,523.1,268.5,531.4z"/>
		</g>
	</g>
	<g id="形状_23_1_" style="opacity:0.4;clip-path:url(#SVGID_8_);">
		<g>
			<path style="fill-rule:evenodd;clip-rule:evenodd;fill:#DD7528;" d="M275.1,565.8c-9.3-1.7-34.6-3.4-37.4,2.9
				c-2.8,6.3-9.2,3.2-7.8,21.1c0,0,2.2,11.4,11.1,9.2c2.7-1.1,3.8-4.7,3.7-8.6c0-3.8,1.6-3.9,4.9-3.9c7.7,0.2,11.9,0.8,17.3-2.5
				c2.9-1.8,4.8,2.4,4.3,6.9c-0.6,5.3,0.5,7.5,4.8,8.4c3.9,0.9,7.2-0.9,8.3-4.9c1.2-4.2,1.5-8.9,1.5-8.9S284.4,567.5,275.1,565.8z"
				/>
		</g>
	</g>
	<path style="clip-path:url(#SVGID_8_);fill-rule:evenodd;clip-rule:evenodd;fill:#FCEBCE;" d="M276.8,553.5c0,0,10.3,7,9.7,30
		c-0.3,7.8-4.1,11.8-8.1,11.5c-4.1-0.3-4.5-4.7-3.9-9.3c0.2-1.8,0.8-7.7-1.4-15.9C270.9,561.6,276.8,553.5,276.8,553.5z"/>
	<path style="clip-path:url(#SVGID_8_);fill-rule:evenodd;clip-rule:evenodd;fill:#FCEBCE;" d="M236.8,556.3c0,0-8.1,7.9-7.5,26.6
		c0.3,7.8,4,12.3,8.1,12.1c4.1-0.3,4.3-3.6,4-7.2c-0.2-3.2-0.9-8.5,1.3-16.6C244.9,562.9,236.8,556.3,236.8,556.3z"/>
	<path style="clip-path:url(#SVGID_8_);fill-rule:evenodd;clip-rule:evenodd;fill:#F6BF96;" d="M277.6,589.3
		c-0.1,1.6-0.4,4.1-0.8,5.2c0.2,0.1,0.4,0.2,0.6,0.2c0.2-0.7,0.5-1.7,0.6-2.7C278.3,589.5,277.7,586.9,277.6,589.3z"/>
	<path style="clip-path:url(#SVGID_8_);fill-rule:evenodd;clip-rule:evenodd;fill:#F6BF96;" d="M280.9,589.4c0,1.1,0,3.8-0.7,5.3
		c0.3-0.1,0.7-0.2,1-0.3c0.3-0.8,0.4-2,0.4-2.9C281.7,589.6,280.9,587.9,280.9,589.4z"/>
	<path style="clip-path:url(#SVGID_8_);fill-rule:evenodd;clip-rule:evenodd;fill:#F6BF96;" d="M238.8,592c-0.4-1.4-1-4.4-1.1-3.6
		c-0.2,1.5,0.2,3.5,0.7,5.1c0.1,0.4,0.3,0.8,0.5,1.1c0.4-0.1,0.7-0.3,0.9-0.4C239.4,593.6,239.1,592.9,238.8,592z"/>
	<path style="clip-path:url(#SVGID_8_);fill-rule:evenodd;clip-rule:evenodd;fill:#F6BF96;" d="M235.7,592.5c-0.9-2.5-1-4.9-1.1-3.1
		c-0.2,2.1,0.3,3.7,1.1,5.1c0.1,0.1,0.1,0.2,0.2,0.3c0.3,0.1,0.6,0.1,0.9,0.1C236.4,594.2,236,593.4,235.7,592.5z"/>
	<g id="脸_1_" style="clip-path:url(#SVGID_8_);">
		<g>
			<path style="fill:#FCEBCE;" d="M278.2,546.6c-4-14.2-13.4-17.8-20.3-17.7c-6.9-0.2-17.4,3.5-20.6,17.4c-0.8,4.8-3.3,8.7-2.5,14.8
				c0.9,6.1,2.9,9,11.4,14.8c1.8,1.3,3.1,1.3,5.1,2.9c2.1,1.6,4.4,2.3,8.5,1.8c0.1,0,0.1,0,0.2,0c1.6-0.3,2.9-0.9,4.1-1.8
				c2.1-1.6,3.4-1.6,5.1-2.9c8.5-5.7,10.5-8.7,11.4-14.8C281.6,555,279,549.5,278.2,546.6z"/>
		</g>
	</g>
	<g id="形状_77_1_" style="clip-path:url(#SVGID_8_);">
		<g>
			
				<ellipse transform="matrix(8.523916e-02 -0.9964 0.9964 8.523916e-02 -343.937 757.9861)" style="fill-rule:evenodd;clip-rule:evenodd;fill:#FFDECC;" cx="240.8" cy="566.3" rx="1.9" ry="3.3"/>
		</g>
	</g>
	<g id="形状_77_副本_1_" style="clip-path:url(#SVGID_8_);">
		<g>
			
				<ellipse transform="matrix(-3.271715e-02 -0.9995 0.9995 -3.271715e-02 -283.0829 858.632)" style="fill:#FFDECC;" cx="274" cy="566.3" rx="1.9" ry="3.3"/>
		</g>
	</g>
	<path style="clip-path:url(#SVGID_8_);fill:#F7CC9D;" d="M245.2,540.1c0.8,2.9,2.2,3.4,4.1,3.7c2.3,0.3,3.6-1.8,4.3-2.7
		c0,0,1.5,2.9,3.6,3.5c2.3,0.7,3.8,0,4.6-1.5c0.5-0.9,0.3-2.4,0.3-2.4s1.9,2,4.7,1.2c1.7-0.4,1.8-1.9,1.9-2.9c0.1-1-0.3-1.9-0.3-1.9
		s2,2,1.4,4.4c-0.4,1.7-1.8,2.9-3.7,2.6c-1.3-0.2-3.3-1.5-3.3-1.5s-0.1,2.2-1.7,3.3c-1.5,1-3.7,0.9-5.1,0.1
		c-1.4-0.8-2.7-2.8-2.7-2.8s-0.8,1.8-2.8,2.7c-1.2,0.5-3.4,0.6-4.7-1.4C244.6,542.6,245.2,540.1,245.2,540.1z"/>
	<g id="形状_75_1_" style="clip-path:url(#SVGID_8_);">
		<g>
			<path style="fill-rule:evenodd;clip-rule:evenodd;fill:#552F19;" d="M241.5,558.7c-3.5-0.3-4.5,0-4.2,0.7
				c0.2,0.6,0.9-0.1,4.1,0.5c5.3,1.1,7.5,4.6,8.1,3.1C250.1,561.5,245.7,559,241.5,558.7z"/>
		</g>
	</g>
	<g id="形状_75_副本_1_" style="clip-path:url(#SVGID_8_);">
		<g>
			<path style="fill-rule:evenodd;clip-rule:evenodd;fill:#713D1F;" d="M274.2,558.7c-4.2,0.4-8.6,2.8-8,4.4c0.6,1.5,2.8-2,8.1-3.1
				c3.2-0.7,3.9,0,4.1-0.5C278.7,558.6,277.7,558.4,274.2,558.7z"/>
		</g>
	</g>
	<g id="形状_19_1_" style="clip-path:url(#SVGID_8_);">
		<g>
			<path style="fill:#57301B;" d="M257.6,574.8c-6.6-0.1-6,2-6,2s1.1,4.2,6.3,4c5.1-0.1,6-4,6-4S264.3,574.9,257.6,574.8z"/>
		</g>
	</g>
</g>
<rect x="395.6" y="529.8" style="fill:#FFFFFF;" width="35.6" height="35.6"/>
<g>
	<rect x="420.9" y="537.6" width="1.3" height="1.3"/>
	<rect x="422.1" y="538.8" width="1.2" height="1.2"/>
	<rect x="422.1" y="541.3" width="1.2" height="1.3"/>
	<rect x="415.9" y="537.6" width="1.3" height="1.3"/>
	<rect x="422.1" y="546.3" width="1.2" height="1.3"/>
	<rect x="422.1" y="552.5" width="1.2" height="1.3"/>
	<rect x="422.1" y="542.5" width="1.2" height="1.2"/>
	<rect x="422.1" y="547.5" width="1.2" height="1.3"/>
	<rect x="413.4" y="537.6" width="1.3" height="1.3"/>
	<rect x="403.4" y="547.5" width="1.2" height="1.3"/>
	<rect x="403.4" y="542.5" width="1.2" height="1.2"/>
	<rect x="403.4" y="551.3" width="1.2" height="1.3"/>
	<rect x="408.4" y="537.6" width="1.2" height="1.3"/>
	<rect x="403.4" y="538.8" width="1.2" height="1.2"/>
	<rect x="404.6" y="537.6" width="1.3" height="1.3"/>
	<rect x="404.6" y="541.3" width="1.3" height="1.3"/>
	<rect x="404.6" y="538.8" width="1.3" height="1.2"/>
	<rect x="404.6" y="542.5" width="1.3" height="1.2"/>
	<rect x="404.6" y="546.3" width="1.3" height="1.3"/>
	<rect x="404.6" y="545" width="1.3" height="1.3"/>
	<rect x="404.6" y="543.8" width="1.3" height="1.2"/>
	<rect x="409.6" y="538.8" width="1.3" height="1.2"/>
	<rect x="415.9" y="538.8" width="1.3" height="1.2"/>
	<rect x="418.4" y="538.8" width="1.3" height="1.2"/>
	<rect x="412.1" y="538.8" width="1.3" height="1.2"/>
	<rect x="413.4" y="538.8" width="1.3" height="1.2"/>
	<rect x="413.4" y="556.3" width="1.3" height="1.3"/>
	<rect x="415.9" y="556.3" width="1.3" height="1.3"/>
	<rect x="410.9" y="556.3" width="1.2" height="1.3"/>
	<rect x="418.4" y="556.3" width="1.3" height="1.3"/>
	<rect x="409.6" y="556.3" width="1.3" height="1.3"/>
	<rect x="404.6" y="552.5" width="1.3" height="1.3"/>
	<rect x="404.6" y="551.3" width="1.3" height="1.3"/>
	<rect x="404.6" y="550" width="1.3" height="1.2"/>
	<rect x="404.6" y="556.3" width="1.3" height="1.3"/>
	<rect x="404.6" y="555" width="1.3" height="1.2"/>
	<rect x="409.6" y="558.8" width="1.3" height="1.3"/>
	<rect x="402.1" y="538.8" width="1.3" height="1.2"/>
	<rect x="402.1" y="547.5" width="1.3" height="1.3"/>
	<rect x="402.1" y="546.3" width="1.3" height="1.3"/>
	<rect x="402.1" y="536.3" width="1.3" height="1.3"/>
	<rect x="402.1" y="543.8" width="1.3" height="1.2"/>
	<rect x="402.1" y="548.8" width="1.3" height="1.3"/>
	<rect x="412.1" y="536.3" width="1.3" height="1.3"/>
	<rect x="409.6" y="536.3" width="1.3" height="1.3"/>
	<rect x="413.4" y="536.3" width="1.3" height="1.3"/>
	<rect x="404.6" y="536.3" width="1.3" height="1.3"/>
	<rect x="403.4" y="555" width="1.2" height="1.2"/>
	<rect x="402.1" y="550" width="1.3" height="1.2"/>
	<rect x="413.4" y="558.8" width="1.3" height="1.3"/>
	<rect x="415.9" y="558.8" width="1.3" height="1.3"/>
	<rect x="410.9" y="558.8" width="1.2" height="1.3"/>
	<rect x="404.6" y="558.8" width="1.3" height="1.3"/>
	<rect x="402.1" y="555" width="1.3" height="1.2"/>
	<rect x="402.1" y="558.8" width="1.3" height="1.3"/>
	<rect x="402.1" y="557.5" width="1.3" height="1.3"/>
	<rect x="420.9" y="538.8" width="1.3" height="1.2"/>
	<rect x="419.6" y="557.5" width="1.2" height="1.3"/>
	<rect x="418.4" y="557.5" width="1.3" height="1.3"/>
	<rect x="415.9" y="557.5" width="1.3" height="1.3"/>
	<rect x="413.4" y="557.5" width="1.3" height="1.3"/>
	<rect x="423.4" y="557.5" width="1.3" height="1.3"/>
	<rect x="420.9" y="557.5" width="1.3" height="1.3"/>
	<rect x="423.4" y="556.3" width="1.3" height="1.3"/>
	<rect x="422.1" y="557.5" width="1.2" height="1.3"/>
	<rect x="423.4" y="555" width="1.3" height="1.2"/>
	<rect x="404.6" y="557.5" width="1.3" height="1.3"/>
	<rect x="410.9" y="557.5" width="1.2" height="1.3"/>
	<rect x="412.1" y="557.5" width="1.3" height="1.3"/>
	<rect x="408.4" y="557.5" width="1.2" height="1.3"/>
	<rect x="407.1" y="557.5" width="1.3" height="1.3"/>
	<rect x="423.4" y="551.3" width="1.3" height="1.3"/>
	<rect x="423.4" y="541.3" width="1.3" height="1.3"/>
	<rect x="423.4" y="538.8" width="1.3" height="1.2"/>
	<rect x="423.4" y="536.3" width="1.3" height="1.3"/>
	<rect x="417.1" y="536.3" width="1.2" height="1.3"/>
	<rect x="418.4" y="536.3" width="1.3" height="1.3"/>
	<rect x="420.9" y="536.3" width="1.3" height="1.3"/>
	<rect x="423.4" y="548.8" width="1.3" height="1.3"/>
	<rect x="423.4" y="552.5" width="1.3" height="1.3"/>
	<rect x="423.4" y="553.8" width="1.3" height="1.3"/>
	<rect x="423.4" y="543.8" width="1.3" height="1.2"/>
	<rect x="418.4" y="545" width="1.3" height="1.3"/>
	<rect x="408.4" y="545" width="1.2" height="1.3"/>
	<rect x="414.6" y="542.5" width="1.2" height="1.2"/>
	<rect x="417.1" y="546.3" width="1.2" height="1.3"/>
	<rect x="417.1" y="543.8" width="1.2" height="1.2"/>
	<rect x="410.9" y="542.5" width="1.2" height="1.2"/>
	<rect x="418.4" y="547.5" width="1.3" height="1.3"/>
	<rect x="418.4" y="550" width="1.3" height="1.2"/>
	<rect x="418.4" y="546.3" width="1.3" height="1.3"/>
	<rect x="418.4" y="541.3" width="1.3" height="1.3"/>
	<rect x="418.4" y="543.8" width="1.3" height="1.2"/>
	<rect x="408.4" y="551.3" width="1.2" height="1.3"/>
	<rect x="417.1" y="541.3" width="1.2" height="1.3"/>
	<rect x="418.4" y="552.5" width="1.3" height="1.3"/>
	<rect x="410.9" y="552.5" width="1.2" height="1.3"/>
	<rect x="417.1" y="552.5" width="1.2" height="1.3"/>
	<rect x="415.9" y="552.5" width="1.3" height="1.3"/>
	<rect x="410.9" y="545" width="1.2" height="1.3"/>
	<rect x="410.9" y="546.3" width="1.2" height="1.3"/>
	<rect x="412.1" y="545" width="1.3" height="1.3"/>
	<rect x="413.4" y="545" width="1.3" height="1.3"/>
	<rect x="412.1" y="550" width="1.3" height="1.2"/>
	<rect x="410.9" y="548.8" width="1.2" height="1.3"/>
	<rect x="414.6" y="545" width="1.2" height="1.3"/>
	<rect x="410.9" y="550" width="1.2" height="1.2"/>
	<rect x="410.9" y="547.5" width="1.2" height="1.3"/>
	<rect x="412.1" y="547.5" width="1.3" height="1.3"/>
	<rect x="413.4" y="547.5" width="1.3" height="1.3"/>
	<rect x="414.6" y="547.5" width="1.2" height="1.3"/>
	<rect x="413.4" y="548.8" width="1.3" height="1.3"/>
	<rect x="409.6" y="548.8" width="1.3" height="1.3"/>
	<rect x="409.6" y="545" width="1.3" height="1.3"/>
	<rect x="409.6" y="547.5" width="1.3" height="1.3"/>
	<rect x="409.6" y="551.3" width="1.3" height="1.3"/>
	<rect x="413.4" y="551.3" width="1.3" height="1.3"/>
	<rect x="415.9" y="550" width="1.3" height="1.2"/>
	<rect x="415.9" y="547.5" width="1.3" height="1.3"/>
	<rect x="410.9" y="543.8" width="1.2" height="1.2"/>
	<rect x="415.9" y="548.8" width="1.3" height="1.3"/>
	<rect x="414.6" y="543.8" width="1.2" height="1.2"/>
	<rect x="414.6" y="551.3" width="1.2" height="1.3"/>
	<rect x="405.9" y="551.3" width="1.2" height="1.3"/>
	<rect x="409.6" y="555" width="1.3" height="1.2"/>
	<rect x="407.1" y="555" width="1.3" height="1.2"/>
	<rect x="408.4" y="540" width="1.2" height="1.3"/>
	<rect x="409.6" y="540" width="1.3" height="1.3"/>
	<rect x="405.9" y="545" width="1.2" height="1.3"/>
	<rect x="405.9" y="542.5" width="1.2" height="1.2"/>
	<rect x="407.1" y="540" width="1.3" height="1.3"/>
	<rect x="420.9" y="550" width="1.3" height="1.2"/>
	<rect x="420.9" y="551.3" width="1.3" height="1.3"/>
	<rect x="420.9" y="552.5" width="1.3" height="1.3"/>
	<rect x="420.9" y="545" width="1.3" height="1.3"/>
	<rect x="420.9" y="542.5" width="1.3" height="1.2"/>
	<rect x="413.4" y="555" width="1.3" height="1.2"/>
	<rect x="412.1" y="555" width="1.3" height="1.2"/>
	<rect x="420.9" y="555" width="1.3" height="1.2"/>
	<rect x="418.4" y="555" width="1.3" height="1.2"/>
	<rect x="407.1" y="548.8" width="1.3" height="1.3"/>
	<rect x="407.1" y="553.8" width="1.3" height="1.3"/>
	<rect x="407.1" y="547.5" width="1.3" height="1.3"/>
	<rect x="413.4" y="541.3" width="1.3" height="1.3"/>
	<rect x="409.6" y="541.3" width="1.3" height="1.3"/>
	<rect x="407.1" y="545" width="1.3" height="1.3"/>
	<rect x="407.1" y="541.3" width="1.3" height="1.3"/>
	<rect x="419.6" y="541.3" width="1.2" height="1.3"/>
	<rect x="413.4" y="553.8" width="1.3" height="1.3"/>
	<rect x="417.1" y="540" width="1.2" height="1.3"/>
	<rect x="415.9" y="540" width="1.3" height="1.3"/>
	<rect x="418.4" y="553.8" width="1.3" height="1.3"/>
	<rect x="419.6" y="552.5" width="1.2" height="1.3"/>
	<rect x="419.6" y="548.8" width="1.2" height="1.3"/>
	<rect x="424.6" y="546.3" width="1.2" height="1.3"/>
	<rect x="398.4" y="546.3" width="1.2" height="1.3"/>
	<rect x="398.4" y="555" width="1.2" height="1.2"/>
	<rect x="398.4" y="551.3" width="1.2" height="1.3"/>
	<rect x="398.4" y="542.5" width="1.2" height="1.2"/>
	<rect x="398.4" y="538.8" width="1.2" height="1.2"/>
	<rect x="398.4" y="541.3" width="1.2" height="1.3"/>
	<rect x="410.9" y="562.5" width="1.2" height="1.3"/>
	<rect x="408.4" y="562.5" width="1.2" height="1.3"/>
	<rect x="417.1" y="562.5" width="1.2" height="1.3"/>
	<rect x="414.6" y="562.5" width="1.2" height="1.3"/>
	<rect x="413.4" y="562.5" width="1.3" height="1.3"/>
	<rect x="402.1" y="562.5" width="1.3" height="1.3"/>
	<rect x="398.4" y="562.5" width="1.2" height="1.3"/>
	<rect x="418.4" y="562.5" width="1.3" height="1.3"/>
	<rect x="403.4" y="562.5" width="1.2" height="1.3"/>
	<rect x="399.6" y="562.5" width="1.3" height="1.3"/>
	<rect x="404.6" y="562.5" width="1.3" height="1.3"/>
	<rect x="400.9" y="562.5" width="1.2" height="1.3"/>
	<rect x="427.1" y="545" width="1.2" height="1.3"/>
	<rect x="427.1" y="538.8" width="1.2" height="1.2"/>
	<rect x="427.1" y="556.3" width="1.2" height="1.3"/>
	<rect x="427.1" y="547.5" width="1.2" height="1.3"/>
	<rect x="427.1" y="557.5" width="1.2" height="1.3"/>
	<rect x="427.1" y="548.8" width="1.2" height="1.3"/>
	<rect x="427.1" y="552.5" width="1.2" height="1.3"/>
	<rect x="408.4" y="532.6" width="1.2" height="1.3"/>
	<rect x="414.6" y="532.6" width="1.2" height="1.3"/>
	<rect x="413.4" y="532.6" width="1.3" height="1.3"/>
	<rect x="412.1" y="532.6" width="1.3" height="1.3"/>
	<rect x="409.6" y="532.6" width="1.3" height="1.3"/>
	<rect x="404.6" y="532.6" width="1.3" height="1.3"/>
	<rect x="420.9" y="532.6" width="1.3" height="1.3"/>
	<rect x="417.1" y="532.6" width="1.2" height="1.3"/>
	<rect x="415.9" y="532.6" width="1.3" height="1.3"/>
	<rect x="399.6" y="531.3" width="1.3" height="1.3"/>
	<rect x="398.4" y="531.3" width="1.2" height="1.3"/>
	<rect x="400.9" y="531.3" width="1.2" height="1.3"/>
	<rect x="397.1" y="531.3" width="1.3" height="1.3"/>
	<rect x="402.1" y="531.3" width="1.3" height="1.3"/>
	<rect x="397.1" y="536.3" width="1.3" height="1.3"/>
	<rect x="397.1" y="532.6" width="1.3" height="1.3"/>
	<rect x="403.4" y="531.3" width="1.2" height="1.3"/>
	<rect x="397.1" y="533.8" width="1.3" height="1.2"/>
	<rect x="412.1" y="531.3" width="1.3" height="1.3"/>
	<rect x="413.4" y="531.3" width="1.3" height="1.3"/>
	<rect x="397.1" y="537.6" width="1.3" height="1.3"/>
	<rect x="409.6" y="531.3" width="1.3" height="1.3"/>
	<rect x="404.6" y="531.3" width="1.3" height="1.3"/>
	<rect x="408.4" y="531.3" width="1.2" height="1.3"/>
	<rect x="397.1" y="556.3" width="1.3" height="1.3"/>
	<rect x="397.1" y="555" width="1.3" height="1.2"/>
	<rect x="397.1" y="551.3" width="1.3" height="1.3"/>
	<rect x="397.1" y="557.5" width="1.3" height="1.3"/>
	<rect x="397.1" y="558.8" width="1.3" height="1.3"/>
	<rect x="397.1" y="562.5" width="1.3" height="1.3"/>
	<rect x="397.1" y="538.8" width="1.3" height="1.2"/>
	<rect x="397.1" y="560" width="1.3" height="1.2"/>
	<rect x="397.1" y="561.2" width="1.3" height="1.3"/>
	<rect x="397.1" y="543.8" width="1.3" height="1.2"/>
	<rect x="397.1" y="542.5" width="1.3" height="1.2"/>
	<rect x="397.1" y="548.8" width="1.3" height="1.3"/>
	<rect x="397.1" y="546.3" width="1.3" height="1.3"/>
	<rect x="397.1" y="535.1" width="1.3" height="1.3"/>
	<rect x="428.4" y="555" width="1.3" height="1.2"/>
	<rect x="428.4" y="552.5" width="1.3" height="1.3"/>
	<rect x="428.4" y="557.5" width="1.3" height="1.3"/>
	<rect x="428.4" y="546.3" width="1.3" height="1.3"/>
	<rect x="428.4" y="548.8" width="1.3" height="1.3"/>
	<rect x="428.4" y="558.8" width="1.3" height="1.3"/>
	<rect x="428.4" y="550" width="1.3" height="1.2"/>
	<rect x="428.4" y="556.3" width="1.3" height="1.3"/>
	<rect x="417.1" y="531.3" width="1.2" height="1.3"/>
	<rect x="423.4" y="562.5" width="1.3" height="1.3"/>
	<rect x="420.9" y="562.5" width="1.3" height="1.3"/>
	<rect x="425.9" y="562.5" width="1.3" height="1.3"/>
	<rect x="428.4" y="562.5" width="1.3" height="1.3"/>
	<rect x="424.6" y="531.3" width="1.2" height="1.3"/>
	<rect x="428.4" y="545" width="1.3" height="1.3"/>
	<rect x="427.1" y="531.3" width="1.2" height="1.3"/>
	<rect x="428.4" y="531.3" width="1.3" height="1.3"/>
	<rect x="423.4" y="531.3" width="1.3" height="1.3"/>
	<rect x="420.9" y="531.3" width="1.3" height="1.3"/>
	<rect x="422.1" y="531.3" width="1.2" height="1.3"/>
	<rect x="428.4" y="532.6" width="1.3" height="1.3"/>
	<rect x="425.9" y="531.3" width="1.3" height="1.3"/>
	<rect x="428.4" y="541.3" width="1.3" height="1.3"/>
	<rect x="428.4" y="533.8" width="1.3" height="1.2"/>
	<rect x="428.4" y="543.8" width="1.3" height="1.2"/>
	<rect x="428.4" y="535.1" width="1.3" height="1.3"/>
	<rect x="428.4" y="536.3" width="1.3" height="1.3"/>
	<rect x="428.4" y="538.8" width="1.3" height="1.2"/>
	<rect x="428.4" y="537.6" width="1.3" height="1.3"/>
	<rect x="400.9" y="555" width="1.2" height="1.2"/>
	<rect x="400.9" y="552.5" width="1.2" height="1.3"/>
	<rect x="400.9" y="558.8" width="1.2" height="1.3"/>
	<rect x="400.9" y="560" width="1.2" height="1.2"/>
	<rect x="400.9" y="557.5" width="1.2" height="1.3"/>
	<rect x="402.1" y="560" width="1.3" height="1.2"/>
	<rect x="400.9" y="538.8" width="1.2" height="1.2"/>
	<rect x="400.9" y="541.3" width="1.2" height="1.3"/>
	<rect x="400.9" y="536.3" width="1.2" height="1.3"/>
	<rect x="422.1" y="560" width="1.2" height="1.2"/>
	<rect x="417.1" y="560" width="1.2" height="1.2"/>
	<rect x="404.6" y="560" width="1.3" height="1.2"/>
	<rect x="425.9" y="560" width="1.3" height="1.2"/>
	<rect x="424.6" y="560" width="1.2" height="1.2"/>
	<rect x="425.9" y="557.5" width="1.3" height="1.3"/>
	<rect x="409.6" y="560" width="1.3" height="1.2"/>
	<rect x="407.1" y="560" width="1.3" height="1.2"/>
	<rect x="413.4" y="560" width="1.3" height="1.2"/>
	<rect x="410.9" y="560" width="1.2" height="1.2"/>
	<rect x="424.6" y="548.8" width="1.2" height="1.3"/>
	<rect x="424.6" y="547.5" width="1.2" height="1.3"/>
	<rect x="424.6" y="543.8" width="1.2" height="1.2"/>
	<rect x="424.6" y="545" width="1.2" height="1.3"/>
	<rect x="424.6" y="538.8" width="1.2" height="1.2"/>
	<rect x="422.1" y="558.8" width="1.2" height="1.3"/>
	<rect x="408.4" y="535.1" width="1.2" height="1.3"/>
	<rect x="409.6" y="535.1" width="1.3" height="1.3"/>
	<rect x="400.9" y="535.1" width="1.2" height="1.3"/>
	<rect x="424.6" y="536.3" width="1.2" height="1.3"/>
	<rect x="402.1" y="535.1" width="1.3" height="1.3"/>
	<rect x="404.6" y="535.1" width="1.3" height="1.3"/>
	<rect x="407.1" y="535.1" width="1.3" height="1.3"/>
	<rect x="423.4" y="535.1" width="1.3" height="1.3"/>
	<rect x="420.9" y="535.1" width="1.3" height="1.3"/>
	<rect x="427.1" y="560" width="1.2" height="1.2"/>
	<rect x="417.1" y="535.1" width="1.2" height="1.3"/>
	<rect x="415.9" y="535.1" width="1.3" height="1.3"/>
	<rect x="424.6" y="535.1" width="1.2" height="1.3"/>
	<rect x="399.6" y="555" width="1.3" height="1.2"/>
	<rect x="399.6" y="557.5" width="1.3" height="1.3"/>
	<rect x="399.6" y="552.5" width="1.3" height="1.3"/>
	<rect x="399.6" y="551.3" width="1.3" height="1.3"/>
	<rect x="399.6" y="558.8" width="1.3" height="1.3"/>
	<rect x="399.6" y="560" width="1.3" height="1.2"/>
	<rect x="399.6" y="542.5" width="1.3" height="1.2"/>
	<rect x="399.6" y="543.8" width="1.3" height="1.2"/>
	<rect x="399.6" y="546.3" width="1.3" height="1.3"/>
	<rect x="419.6" y="561.2" width="1.2" height="1.3"/>
	<rect x="418.4" y="561.2" width="1.3" height="1.3"/>
	<rect x="427.1" y="561.2" width="1.2" height="1.3"/>
	<rect x="425.9" y="561.2" width="1.3" height="1.3"/>
	<rect x="424.6" y="561.2" width="1.2" height="1.3"/>
	<rect x="404.6" y="561.2" width="1.3" height="1.3"/>
	<rect x="414.6" y="561.2" width="1.2" height="1.3"/>
	<rect x="408.4" y="561.2" width="1.2" height="1.3"/>
	<rect x="399.6" y="538.8" width="1.3" height="1.2"/>
	<rect x="413.4" y="561.2" width="1.3" height="1.3"/>
	<rect x="410.9" y="561.2" width="1.2" height="1.3"/>
	<rect x="425.9" y="538.8" width="1.3" height="1.2"/>
	<rect x="425.9" y="541.3" width="1.3" height="1.3"/>
	<rect x="425.9" y="536.3" width="1.3" height="1.3"/>
	<rect x="424.6" y="533.8" width="1.2" height="1.2"/>
	<rect x="423.4" y="533.8" width="1.3" height="1.2"/>
	<rect x="425.9" y="542.5" width="1.3" height="1.2"/>
	<rect x="425.9" y="533.8" width="1.3" height="1.2"/>
	<rect x="425.9" y="535.1" width="1.3" height="1.3"/>
	<rect x="425.9" y="548.8" width="1.3" height="1.3"/>
	<rect x="425.9" y="550" width="1.3" height="1.2"/>
	<rect x="425.9" y="545" width="1.3" height="1.3"/>
	<rect x="425.9" y="551.3" width="1.3" height="1.3"/>
	<rect x="404.6" y="533.8" width="1.3" height="1.2"/>
	<rect x="407.1" y="533.8" width="1.3" height="1.2"/>
	<rect x="402.1" y="533.8" width="1.3" height="1.2"/>
	<rect x="420.9" y="533.8" width="1.3" height="1.2"/>
	<rect x="399.6" y="535.1" width="1.3" height="1.3"/>
	<rect x="399.6" y="533.8" width="1.3" height="1.2"/>
	<rect x="400.9" y="533.8" width="1.2" height="1.2"/>
	<rect x="399.6" y="536.3" width="1.3" height="1.3"/>
	<rect x="417.1" y="533.8" width="1.2" height="1.2"/>
	<rect x="409.6" y="533.8" width="1.3" height="1.2"/>
	<rect x="414.6" y="533.8" width="1.2" height="1.2"/>
	<rect x="413.4" y="533.8" width="1.3" height="1.2"/>
</g>
</svg>
