<?xml version="1.0" encoding="utf-8"?>
<!-- Generator: Adobe Illustrator 17.1.0, SVG Export Plug-In . SVG Version: 6.00 Build 0)  -->
<!DOCTYPE svg PUBLIC "-//W3C//DTD SVG 1.1//EN" "http://www.w3.org/Graphics/SVG/1.1/DTD/svg11.dtd">
<svg version="1.1" id="图层_1" xmlns="http://www.w3.org/2000/svg" xmlns:xlink="http://www.w3.org/1999/xlink" x="0px" y="0px"
	 viewBox="0 0 827.7 604.7" style="enable-background:new 0 0 827.7 604.7;" xml:space="preserve">
<g>
	<defs>
		<rect id="SVGID_1_" x="513.5" y="157.7" width="300.2" height="438.9"/>
	</defs>
	<clipPath id="SVGID_2_">
		<use xlink:href="#SVGID_1_"  style="overflow:visible;"/>
	</clipPath>
	<rect x="513.5" y="142.1" style="clip-path:url(#SVGID_2_);fill:#FFFFFF;" width="300.2" height="454.5"/>
</g>
<rect x="358.4" y="156.7" style="fill:#FFFFFF;stroke:#D8D8D8;stroke-miterlimit:10;" width="103.2" height="440.9"/>
<g>
	<path style="fill:#FF6600;" d="M389.7,576.7l-0.6-2.2h0l-0.6,2.2h-0.5l-0.9-2.7h0.5l0.6,2.2h0l0.6-2.2h0.5l0.6,2.2h0l0.6-2.2h0.5
		l-0.9,2.7H389.7z"/>
	<path style="fill:#FF6600;" d="M393.7,576.7l-0.6-2.2h0l-0.6,2.2h-0.5l-0.9-2.7h0.5l0.6,2.2h0l0.6-2.2h0.5l0.6,2.2h0l0.6-2.2h0.5
		l-0.9,2.7H393.7z"/>
	<path style="fill:#FF6600;" d="M397.7,576.7l-0.6-2.2h0l-0.6,2.2h-0.5l-0.9-2.7h0.5l0.6,2.2h0l0.6-2.2h0.5l0.6,2.2h0l0.6-2.2h0.5
		l-0.9,2.7H397.7z"/>
	<path style="fill:#FF6600;" d="M399.9,576.1v0.6h-0.6v-0.6H399.9z"/>
	<path style="fill:#FF6600;" d="M402.8,576.8c-0.1,0-0.2,0-0.3-0.1c-0.1-0.1-0.1-0.2-0.1-0.3c-0.1,0.1-0.3,0.3-0.4,0.3
		c-0.2,0.1-0.3,0.1-0.5,0.1c-0.1,0-0.2,0-0.3,0s-0.2-0.1-0.3-0.1c-0.1-0.1-0.1-0.1-0.2-0.2c0-0.1-0.1-0.2-0.1-0.4
		c0-0.2,0-0.3,0.1-0.4c0.1-0.1,0.1-0.2,0.2-0.2c0.1-0.1,0.2-0.1,0.3-0.1c0.1,0,0.2-0.1,0.3-0.1c0.1,0,0.2,0,0.4-0.1
		c0.1,0,0.2,0,0.3-0.1c0.1,0,0.2-0.1,0.2-0.1c0,0,0.1-0.1,0.1-0.2c0-0.1,0-0.2-0.1-0.2c0-0.1-0.1-0.1-0.1-0.1
		c-0.1,0-0.1-0.1-0.2-0.1s-0.1,0-0.2,0c-0.2,0-0.3,0-0.5,0.1s-0.2,0.2-0.2,0.4h-0.5c0-0.2,0-0.3,0.1-0.4c0.1-0.1,0.1-0.2,0.3-0.3
		c0.1-0.1,0.2-0.1,0.4-0.2c0.1,0,0.3,0,0.4,0c0.1,0,0.2,0,0.4,0c0.1,0,0.2,0.1,0.3,0.1s0.2,0.1,0.2,0.2c0.1,0.1,0.1,0.2,0.1,0.4v1.4
		c0,0.1,0,0.2,0,0.2c0,0,0.1,0.1,0.1,0.1c0,0,0.1,0,0.1,0v0.3C403,576.8,402.9,576.8,402.8,576.8z M402.1,575.4c-0.1,0-0.2,0-0.3,0
		s-0.2,0-0.3,0s-0.2,0-0.3,0.1s-0.1,0.1-0.2,0.2c-0.1,0.1-0.1,0.2-0.1,0.3c0,0.1,0,0.1,0,0.2c0,0.1,0.1,0.1,0.1,0.1
		c0,0,0.1,0.1,0.2,0.1c0.1,0,0.1,0,0.2,0c0.1,0,0.3,0,0.4-0.1s0.2-0.1,0.3-0.2c0.1-0.1,0.1-0.1,0.1-0.2c0-0.1,0-0.1,0-0.2v-0.5
		C402.3,575.4,402.2,575.4,402.1,575.4z"/>
	<path style="fill:#FF6600;" d="M404,573v3.8h-0.5V573H404z"/>
	<path style="fill:#FF6600;" d="M404.7,573.5V573h0.5v0.6H404.7z M405.2,574v2.7h-0.5V574H405.2z"/>
	<path style="fill:#FF6600;" d="M406.3,574v0.4h0c0.2-0.3,0.5-0.5,0.9-0.5c0.2,0,0.3,0,0.5,0.1s0.2,0.2,0.3,0.4
		c0.1-0.1,0.2-0.3,0.4-0.3c0.1-0.1,0.3-0.1,0.5-0.1c0.1,0,0.3,0,0.4,0c0.1,0,0.2,0.1,0.3,0.1s0.1,0.1,0.2,0.2s0.1,0.2,0.1,0.4v2
		h-0.5v-1.8c0-0.1,0-0.2,0-0.2c0-0.1,0-0.1-0.1-0.2c0-0.1-0.1-0.1-0.2-0.1c-0.1,0-0.2,0-0.3,0c-0.2,0-0.4,0.1-0.5,0.2
		c-0.1,0.1-0.2,0.3-0.2,0.5v1.7h-0.5v-1.8c0-0.1,0-0.2,0-0.2s0-0.1-0.1-0.2s-0.1-0.1-0.2-0.1s-0.1,0-0.3,0c-0.1,0-0.2,0-0.3,0.1
		c-0.1,0.1-0.2,0.1-0.2,0.2c-0.1,0.1-0.1,0.2-0.1,0.2c0,0.1,0,0.1,0,0.2v1.7h-0.5V574H406.3z"/>
	<path style="fill:#FF6600;" d="M412.5,576.8c-0.1,0-0.2,0-0.3-0.1c-0.1-0.1-0.1-0.2-0.1-0.3c-0.1,0.1-0.3,0.3-0.4,0.3
		c-0.2,0.1-0.3,0.1-0.5,0.1c-0.1,0-0.2,0-0.3,0s-0.2-0.1-0.3-0.1c-0.1-0.1-0.1-0.1-0.2-0.2c0-0.1-0.1-0.2-0.1-0.4
		c0-0.2,0-0.3,0.1-0.4c0.1-0.1,0.1-0.2,0.2-0.2c0.1-0.1,0.2-0.1,0.3-0.1c0.1,0,0.2-0.1,0.3-0.1c0.1,0,0.2,0,0.4-0.1
		c0.1,0,0.2,0,0.3-0.1c0.1,0,0.2-0.1,0.2-0.1c0,0,0.1-0.1,0.1-0.2c0-0.1,0-0.2-0.1-0.2c0-0.1-0.1-0.1-0.1-0.1
		c-0.1,0-0.1-0.1-0.2-0.1s-0.1,0-0.2,0c-0.2,0-0.3,0-0.5,0.1s-0.2,0.2-0.2,0.4h-0.5c0-0.2,0-0.3,0.1-0.4c0.1-0.1,0.1-0.2,0.3-0.3
		c0.1-0.1,0.2-0.1,0.4-0.2c0.1,0,0.3,0,0.4,0c0.1,0,0.2,0,0.4,0c0.1,0,0.2,0.1,0.3,0.1s0.2,0.1,0.2,0.2c0.1,0.1,0.1,0.2,0.1,0.4v1.4
		c0,0.1,0,0.2,0,0.2c0,0,0.1,0.1,0.1,0.1c0,0,0.1,0,0.1,0v0.3C412.7,576.8,412.6,576.8,412.5,576.8z M411.8,575.4
		c-0.1,0-0.2,0-0.3,0s-0.2,0-0.3,0s-0.2,0-0.3,0.1s-0.1,0.1-0.2,0.2c-0.1,0.1-0.1,0.2-0.1,0.3c0,0.1,0,0.1,0,0.2
		c0,0.1,0.1,0.1,0.1,0.1c0,0,0.1,0.1,0.2,0.1c0.1,0,0.1,0,0.2,0c0.1,0,0.3,0,0.4-0.1s0.2-0.1,0.3-0.2c0.1-0.1,0.1-0.1,0.1-0.2
		c0-0.1,0-0.1,0-0.2v-0.5C412,575.4,411.9,575.4,411.8,575.4z"/>
	<path style="fill:#FF6600;" d="M413.6,574v0.4h0c0.2-0.3,0.5-0.5,0.9-0.5c0.2,0,0.3,0,0.5,0.1s0.2,0.2,0.3,0.4
		c0.1-0.1,0.2-0.3,0.4-0.3c0.1-0.1,0.3-0.1,0.5-0.1c0.1,0,0.3,0,0.4,0c0.1,0,0.2,0.1,0.3,0.1s0.1,0.1,0.2,0.2s0.1,0.2,0.1,0.4v2
		h-0.5v-1.8c0-0.1,0-0.2,0-0.2c0-0.1,0-0.1-0.1-0.2c0-0.1-0.1-0.1-0.2-0.1c-0.1,0-0.2,0-0.3,0c-0.2,0-0.4,0.1-0.5,0.2
		c-0.1,0.1-0.2,0.3-0.2,0.5v1.7h-0.5v-1.8c0-0.1,0-0.2,0-0.2s0-0.1-0.1-0.2s-0.1-0.1-0.2-0.1s-0.1,0-0.3,0c-0.1,0-0.2,0-0.3,0.1
		c-0.1,0.1-0.2,0.1-0.2,0.2c-0.1,0.1-0.1,0.2-0.1,0.2c0,0.1,0,0.1,0,0.2v1.7h-0.5V574H413.6z"/>
	<path style="fill:#FF6600;" d="M419.8,576.8c-0.1,0-0.2,0-0.3-0.1c-0.1-0.1-0.1-0.2-0.1-0.3c-0.1,0.1-0.3,0.3-0.4,0.3
		c-0.2,0.1-0.3,0.1-0.5,0.1c-0.1,0-0.2,0-0.3,0s-0.2-0.1-0.3-0.1c-0.1-0.1-0.1-0.1-0.2-0.2c0-0.1-0.1-0.2-0.1-0.4
		c0-0.2,0-0.3,0.1-0.4c0.1-0.1,0.1-0.2,0.2-0.2c0.1-0.1,0.2-0.1,0.3-0.1c0.1,0,0.2-0.1,0.3-0.1c0.1,0,0.2,0,0.4-0.1
		c0.1,0,0.2,0,0.3-0.1c0.1,0,0.2-0.1,0.2-0.1c0,0,0.1-0.1,0.1-0.2c0-0.1,0-0.2-0.1-0.2c0-0.1-0.1-0.1-0.1-0.1
		c-0.1,0-0.1-0.1-0.2-0.1s-0.1,0-0.2,0c-0.2,0-0.3,0-0.5,0.1s-0.2,0.2-0.2,0.4h-0.5c0-0.2,0-0.3,0.1-0.4c0.1-0.1,0.1-0.2,0.3-0.3
		c0.1-0.1,0.2-0.1,0.4-0.2c0.1,0,0.3,0,0.4,0c0.1,0,0.2,0,0.4,0c0.1,0,0.2,0.1,0.3,0.1s0.2,0.1,0.2,0.2c0.1,0.1,0.1,0.2,0.1,0.4v1.4
		c0,0.1,0,0.2,0,0.2c0,0,0.1,0.1,0.1,0.1c0,0,0.1,0,0.1,0v0.3C420.1,576.8,420,576.8,419.8,576.8z M419.2,575.4c-0.1,0-0.2,0-0.3,0
		s-0.2,0-0.3,0s-0.2,0-0.3,0.1s-0.1,0.1-0.2,0.2c-0.1,0.1-0.1,0.2-0.1,0.3c0,0.1,0,0.1,0,0.2c0,0.1,0.1,0.1,0.1,0.1
		c0,0,0.1,0.1,0.2,0.1c0.1,0,0.1,0,0.2,0c0.1,0,0.3,0,0.4-0.1s0.2-0.1,0.3-0.2c0.1-0.1,0.1-0.1,0.1-0.2c0-0.1,0-0.1,0-0.2v-0.5
		C419.4,575.4,419.3,575.4,419.2,575.4z"/>
	<path style="fill:#FF6600;" d="M421.3,576.1v0.6h-0.6v-0.6H421.3z"/>
	<path style="fill:#FF6600;" d="M423.7,574.5c-0.1-0.1-0.3-0.1-0.5-0.1c-0.2,0-0.3,0-0.4,0.1c-0.1,0.1-0.2,0.1-0.3,0.2
		c-0.1,0.1-0.1,0.2-0.1,0.3s0,0.3,0,0.4c0,0.1,0,0.3,0,0.4c0,0.1,0.1,0.2,0.1,0.3s0.1,0.2,0.2,0.2c0.1,0.1,0.2,0.1,0.4,0.1
		c0.2,0,0.4-0.1,0.5-0.2c0.1-0.1,0.2-0.3,0.2-0.5h0.5c0,0.3-0.2,0.6-0.4,0.8s-0.5,0.3-0.8,0.3c-0.2,0-0.4,0-0.6-0.1
		c-0.2-0.1-0.3-0.2-0.4-0.3c-0.1-0.1-0.2-0.3-0.2-0.4s-0.1-0.4-0.1-0.6c0-0.2,0-0.4,0.1-0.6c0.1-0.2,0.1-0.3,0.2-0.5
		c0.1-0.1,0.2-0.2,0.4-0.3s0.4-0.1,0.6-0.1c0.2,0,0.3,0,0.4,0.1s0.3,0.1,0.4,0.2c0.1,0.1,0.2,0.2,0.3,0.3c0.1,0.1,0.1,0.3,0.1,0.4
		h-0.5C423.9,574.7,423.8,574.6,423.7,574.5z"/>
	<path style="fill:#FF6600;" d="M424.8,574.8c0.1-0.2,0.1-0.3,0.3-0.5c0.1-0.1,0.3-0.2,0.4-0.3s0.4-0.1,0.6-0.1c0.2,0,0.4,0,0.6,0.1
		s0.3,0.2,0.4,0.3c0.1,0.1,0.2,0.3,0.3,0.5c0.1,0.2,0.1,0.4,0.1,0.6s0,0.4-0.1,0.6c-0.1,0.2-0.1,0.3-0.3,0.5
		c-0.1,0.1-0.3,0.2-0.4,0.3c-0.2,0.1-0.4,0.1-0.6,0.1c-0.2,0-0.4,0-0.6-0.1c-0.2-0.1-0.3-0.2-0.4-0.3c-0.1-0.1-0.2-0.3-0.3-0.5
		s-0.1-0.4-0.1-0.6S424.8,575,424.8,574.8z M425.3,575.8c0,0.1,0.1,0.2,0.2,0.3c0.1,0.1,0.2,0.2,0.3,0.2c0.1,0,0.2,0.1,0.3,0.1
		c0.1,0,0.2,0,0.3-0.1c0.1,0,0.2-0.1,0.3-0.2c0.1-0.1,0.1-0.2,0.2-0.3c0-0.1,0.1-0.3,0.1-0.4s0-0.3-0.1-0.4c0-0.1-0.1-0.2-0.2-0.3
		c-0.1-0.1-0.2-0.2-0.3-0.2c-0.1,0-0.2-0.1-0.3-0.1c-0.1,0-0.2,0-0.3,0.1c-0.1,0-0.2,0.1-0.3,0.2c-0.1,0.1-0.1,0.2-0.2,0.3
		s-0.1,0.3-0.1,0.4S425.2,575.7,425.3,575.8z"/>
	<path style="fill:#FF6600;" d="M428.4,574v0.4h0c0.2-0.3,0.5-0.5,0.9-0.5c0.2,0,0.3,0,0.5,0.1s0.2,0.2,0.3,0.4
		c0.1-0.1,0.2-0.3,0.4-0.3c0.1-0.1,0.3-0.1,0.5-0.1c0.1,0,0.3,0,0.4,0c0.1,0,0.2,0.1,0.3,0.1s0.1,0.1,0.2,0.2s0.1,0.2,0.1,0.4v2
		h-0.5v-1.8c0-0.1,0-0.2,0-0.2c0-0.1,0-0.1-0.1-0.2c0-0.1-0.1-0.1-0.2-0.1c-0.1,0-0.2,0-0.3,0c-0.2,0-0.4,0.1-0.5,0.2
		c-0.1,0.1-0.2,0.3-0.2,0.5v1.7h-0.5v-1.8c0-0.1,0-0.2,0-0.2s0-0.1-0.1-0.2s-0.1-0.1-0.2-0.1s-0.1,0-0.3,0c-0.1,0-0.2,0-0.3,0.1
		c-0.1,0.1-0.2,0.1-0.2,0.2c-0.1,0.1-0.1,0.2-0.1,0.2c0,0.1,0,0.1,0,0.2v1.7h-0.5V574H428.4z"/>
</g>
<g>
	<path style="fill:#FF6600;" d="M410.6,288.6c-1,0.3-2.1,0.6-3.3,0.9c-1.1-1.2-2.1-2.3-3.2-3.4c-0.8-0.7-1.4-1.2-1.7-1.4l2.3-1.9
		c0.6,0.5,1.3,0.8,2.1,0.8h4.6v-1.8h2.9v4.8h-5.9c0.2,0.2,0.5,0.5,1,0.9C410,288,410.3,288.3,410.6,288.6z M420.4,291.9v3.3h-5v4.7
		h-3.1v-4.7h-6.7v5.3h-2.9v-12.6h2.9v4H420.4z M420.6,285.4c-1.3,1.2-2.5,2.2-3.3,3l-2-2.6c0.1-0.1,0.3-0.2,0.5-0.3
		c1.2-1,2.2-1.9,3-2.6L420.6,285.4z"/>
	<path style="fill:#FF6600;" d="M413.6,302v7.1c0.8,0.1,1.8,0.1,2.9,0.1v-6.1h3v16h-3v-6.4c-0.4,0-0.9,0-1.5-0.1c-0.6,0-1.1,0-1.4,0
		v7.5h-3V313c-2.7,1-4.5,3.6-5.4,7.6c-1-0.7-2.1-1.3-3.1-1.9c1.2-4,3.1-6.6,5.6-7.6c-2.3-1-4.3-3.5-5.8-7.5c1.1-0.7,2.1-1.3,2.8-1.9
		c1.5,4.3,3.5,6.7,5.9,7.2V302H413.6z"/>
	<path style="fill:#FF6600;" d="M419.4,321.7v18.5h-3.2v-8.1h-3.7l1.7,1.5c-1.6,2.2-3.1,4.3-4.6,6.2l-2.7-2.2c1.7-2,3.2-3.8,4.3-5.4
		h-9.2v-3.6h14.2v-6.7H419.4z"/>
	<path style="fill:#FF6600;" d="M409.9,343.9l-1.2,2.9c-0.7-0.2-1.8-0.6-3.3-1.1c-1.6-0.5-2.8-0.9-3.6-1.2l1.2-2.9
		C405.8,342.7,408.1,343.4,409.9,343.9z M412.8,359.1h-2.9c-1.6-1.1-2.9-2.2-4-3.3c-0.5,1.2-0.9,2.8-1.2,4.6c-0.4-0.3-1-0.6-2-1.2
		c-0.3-0.2-0.5-0.3-0.7-0.4c0.6-2.4,1.2-4.4,2-5.8c-0.9-1.7-1.6-3.6-2.1-5.7c0.3-0.2,0.6-0.4,1.1-0.6c0.7-0.4,1.2-0.7,1.6-0.9
		c0.4,1.8,0.9,3.2,1.3,4.3c0.9-0.8,1.9-1.7,3-2.6l1.2,1.9V347h2.7V359.1z M410.1,350.3c-1.1,0.9-2,1.8-2.7,2.7
		c0.7,0.9,1.6,1.8,2.7,2.6V350.3z M415.5,343.5c-0.5,0.6-1.2,1.5-2.2,2.6c-0.3,0.3-0.5,0.5-0.6,0.7l-2.5-2.2c0.8-0.8,1.8-1.8,3-3.2
		L415.5,343.5z M416.3,358.7v1.6c-0.9-0.2-1.8-0.3-2.6-0.5c0-0.2,0-0.5,0-1c-0.1-0.6-0.1-1.1-0.1-1.6c-0.1-1.7,0.7-2.5,2.3-2.5h1.2
		v-3.3c-1.8,0-3.2-1.1-4.3-3.2c0.7-0.7,1.4-1.4,2.1-2.1c0.8,1.8,1.9,2.6,3.3,2.4h1.6v9.2h-2.8C416.5,357.7,416.3,358,416.3,358.7z
		 M420.4,344.1c-0.9,1.2-1.8,2.3-2.7,3.3l-2.4-2.2c1-0.9,1.9-2,2.9-3.1L420.4,344.1z"/>
	<path style="fill:#FF6600;" d="M402,367.5v-3.2h7.2c-0.4-0.3-0.8-0.8-1.4-1.5c-0.2-0.3-0.4-0.4-0.5-0.5c0.7-0.2,1.8-0.6,3.3-1.1
		c1.8,2,3.5,3.5,5.3,4.4v-4.1h2.8v5.4c0.3,0.1,0.6,0.2,1.2,0.4c0.3,0.1,0.5,0.2,0.7,0.2l-0.2,3.6c-0.5-0.2-1.1-0.4-1.6-0.6v9.5h-2.8
		v-10.8c-0.2-0.1-0.5-0.3-0.8-0.5l-0.2-0.1v9.7h-10.2c-1.9,0.2-2.8-0.8-2.8-2.9c-0.1-0.9-0.1-2.1-0.1-3.5c1-0.2,1.9-0.4,2.6-0.7
		c0,0.9,0,1.8,0,2.6c-0.1,0.9,0.3,1.4,1.1,1.4v-7.8H402z M409,367.5H408v7.8h0.9V367.5z M412.4,367.5h-1v7.8h1V367.5z"/>
	<path style="fill:#FF6600;" d="M420.1,396.6c-0.3,0.1-0.7,0.2-1.4,0.4c-0.6,0.2-1.1,0.3-1.4,0.4v2.3h-2.5v-2.9h-1.5v2.6h-2.5v-2.6
		h-1.6v2.6h-2.5v-2.6h-1.6v3H403v-8h-1.1V389h3.1l-1.3-2.1c0.3-0.3,0.8-0.6,1.6-1c0.6-0.3,1-0.5,1.2-0.7c-1.3-0.7-2.7-1.7-4.1-2.9
		c0.5-0.2,1.1-0.5,1.9-0.8c0.6-0.2,1-0.4,1.2-0.5c1.2,1.1,2.5,1.9,3.9,2.6c0.4-0.3,1-0.6,1.9-1.1c1.1-0.7,2-1.2,2.6-1.6l1.4,2.2
		c-0.9,0.6-1.8,1.1-2.6,1.6c1.1,0.3,2.3,0.5,3.6,0.5v-3.8h2.8v6.7c-1.7-0.1-3.3-0.2-4.7-0.5c1.8,1.1,3.9,2,6.3,2.6l-0.5,3.1
		c-1-0.3-1.9-0.6-2.8-0.9v1.9c0.8-0.2,1.6-0.4,2.5-0.7L420.1,396.6z M406.9,391.9h-1.6v2.2h1.6V391.9z M410.2,388.1
		c1-0.2,1.9-0.4,2.6-0.7c-1.1-0.2-2.2-0.4-3.3-0.9c-0.6,0.3-1.3,0.8-2.3,1.4c-0.8,0.5-1.3,0.8-1.7,1h5.8
		C411,388.7,410.6,388.4,410.2,388.1z M410.9,391.9h-1.6v2.2h1.6V391.9z M414.9,391.9h-1.5v2.2h1.5V391.9z"/>
	<path style="fill:#FF6600;" d="M420.4,413.9l-0.5,2.9c-0.9-0.2-1.9-0.5-2.8-0.9v4h-2.7v-0.7c-3.2-0.2-5.7-0.8-7.5-1.7
		c-0.7,0.7-1.5,1.5-2.2,2.4c-1-0.5-1.9-1-2.7-1.4c0.8-1.1,1.6-2,2.4-2.6c-0.9-0.9-1.8-1.9-2.6-3c0.8-0.5,1.5-0.9,2.2-1.4v-2.9H403
		v-2.6h9.2v1.7h2.3v-1.9h2.7v1.9h3.2v2.9h-3.2v1.6h-2.5C416.3,412.8,418.3,413.4,420.4,413.9z M402.1,405v-2.6h8
		c-0.6-0.3-1.1-0.6-1.6-0.9c1.4-0.2,2.8-0.4,4.1-0.6c1.9,0.9,4.5,1.7,7.8,2.6l-0.5,2.9c-1.3-0.4-2.6-0.8-3.9-1.2H402.1z M407,414.1
		c1.2-0.5,2.7-0.9,4.3-1.2c-0.1-0.1-0.2-0.1-0.3-0.2c-0.2-0.2-0.3-0.3-0.4-0.3c0.2-0.1,0.4-0.1,0.7-0.2c0.3-0.1,0.4-0.2,0.5-0.2
		h-6.9C405.6,412.9,406.3,413.6,407,414.1z M409.6,408.5h-3.3v1.1h3.3V408.5z M414.5,415c-1.9,0.1-3.4,0.3-4.7,0.8
		c1.2,0.4,2.8,0.6,4.7,0.8V415z M413.5,411.6c0.3,0.2,0.6,0.3,0.9,0.4v-1.5h-2.3v1.5C412.6,411.8,413.1,411.7,413.5,411.6z"/>
	<path style="fill:#FF6600;" d="M406.1,439c-2.5,0-3.7-1.1-3.8-3.4c-0.1-0.9-0.1-2.1-0.1-3.6c0.2-0.1,0.5-0.1,0.9-0.2
		c0.6-0.1,1.3-0.3,2.1-0.5c-0.1,0.6-0.1,1.6-0.1,2.8c-0.1,1.1,0.4,1.7,1.6,1.7c0.5,0,1.6,0,3.3,0c2.2,0.1,3.7,0.1,4.6,0.1v-2.7
		c-0.8-0.3-1.6-0.7-2.4-1.1c0.4-0.8,0.9-1.6,1.3-2.4h-11.2v-3h1.1v-2.2h-1.2v-3h15.4v2.2c1,0.3,2,0.4,2.9,0.5l-0.4,3.4
		c-0.2-0.1-0.4-0.1-0.6-0.2c-0.6-0.1-1.2-0.3-1.9-0.5v2.8h-3.3c2.2,1,4.3,1.8,6.2,2.3l-0.7,3.1c-0.3-0.1-0.6-0.2-1.1-0.3
		c-0.5-0.2-0.9-0.3-1.2-0.4v4.7C411.9,439.2,408,439.1,406.1,439z M409,424.5h-2.7v2.2h2.7V424.5z M412.5,432.9
		c-0.6,0.5-1.4,1.1-2.6,2c-0.5,0.4-0.9,0.6-1.2,0.9l-1.7-2.6c1.7-1.1,3-2,4-2.7L412.5,432.9z M414.6,424.5h-2.7v2.2h2.7V424.5z"/>
	<path style="fill:#FF6600;" d="M402,450.7v-3h9.5c-0.3-0.2-0.6-0.5-1-0.8c0.2,0,0.5,0,0.8-0.1c0.4-0.1,0.6-0.1,0.8-0.2
		c-1.1,0-2,0-2.7,0c-0.2-0.4-0.3-0.8-0.3-1.2h-4.5c-1.5,0.1-2.3-0.6-2.3-2c-0.1-0.7-0.2-1.4-0.2-2.2c0.1,0,0.2,0,0.4-0.1
		c0.7-0.1,1.5-0.3,2.4-0.5v1.2c0,0.5,0.3,0.7,0.8,0.6h2.6c-0.2-0.5-0.3-1.1-0.5-1.7l3.3-0.2c0,0.1,0,0.2,0.1,0.4
		c0.1,0.4,0.2,0.9,0.3,1.6h3.3V441h2.8v1.6h3.1v2.9h-3.1v1.3H415c1.3,0.9,3.2,1.6,5.6,2.2l-0.4,3.3c-0.3-0.1-0.8-0.3-1.4-0.5
		c-0.7-0.3-1.2-0.4-1.5-0.5v2.3c0.8-0.3,1.7-0.5,2.6-0.9l0.3,3.1c-0.2,0.1-0.4,0.1-0.7,0.2c-0.5,0.2-1.2,0.4-2.2,0.6v2.6h-2.5v-3.1
		h-1.6v2.9h-2.5v-2.9h-1.5v2.9h-2.5v-2.9h-1.6v3.3h-2.3v-8.8H402z M406.9,450.7h-1.6v2.5h1.6V450.7z M410.8,450.7h-1.5v2.5h1.5
		V450.7z M412,445.5c0.1,0.3,0.2,0.7,0.2,1.1c0.6-0.1,1.2-0.2,1.8-0.4c0.2,0.2,0.3,0.3,0.5,0.3v-1H412z M414.9,450.7h-1.6v2.5h1.6
		V450.7z"/>
	<path style="fill:#FF6600;" d="M411.7,465.7c-2.5,0-4.4-0.2-5.7-0.5c-1.2-0.3-2.6-0.9-4.1-1.8c0.7-0.9,1.4-1.9,2.2-2.9
		c1.1,0.8,2.1,1.3,3.1,1.6c0.9,0.2,2.5,0.3,4.6,0.3h6.7v6.7c0.4-0.1,1-0.3,1.8-0.5c0.2-0.1,0.3-0.1,0.3-0.1l0.2,4.2
		c-0.2,0.1-0.6,0.2-1.1,0.3c-0.6,0.1-1,0.2-1.2,0.2v6.1h-3.1v-13.6H411.7z"/>
</g>
<rect x="513.6" y="157.4" style="fill:none;stroke:#D8D8D8;stroke-miterlimit:10;" width="300.2" height="439.6"/>
<g>
	<defs>
		<rect id="SVGID_3_" x="6.2" y="158.3" width="300.2" height="438.9"/>
	</defs>
	<clipPath id="SVGID_4_">
		<use xlink:href="#SVGID_3_"  style="overflow:visible;"/>
	</clipPath>
	<rect x="6.2" y="142.8" style="clip-path:url(#SVGID_4_);fill:#FFFFFF;" width="300.2" height="454.5"/>
</g>
<g>
	<g id="形状_2_copy_3_副本_4_49_">
		<g>
			<path style="fill-rule:evenodd;clip-rule:evenodd;fill:#CCCCCC;" d="M185.3,240.5c-1.7,3.3-3.2,6.2-4.9,9.7h2.4
				c0.4-0.8,0.7-1.3,1.2-2.3c1.2,0,2.2,0,3.4,0c-0.3-0.7-0.4-1.3-0.6-1.8h-1.9c0.6-1.1,0.9-1.7,1.7-3.2c0.9,2.5,1.8,5.1,2.6,7.4h2.2
				c-1.2-3.4-2.3-6.3-3.4-9.7H185.3z M191.9,250.2h2.1l0.4-9.7l-2,0L191.9,250.2z M195.1,250.2h2.2l0.3-7.2h-2.1L195.1,250.2z
				 M195.6,240.5l-0.1,1.6c0,0,1.6,0,2,0l0.1-1.6C195.8,240.5,195.8,240.5,195.6,240.5z M208.8,243c-0.4-0.1-0.8-0.2-1.2-0.2
				c-0.2,0-0.5,0-0.7,0.1c-0.2,0-0.4,0.1-0.6,0.2c-0.2,0.1-0.3,0.2-0.5,0.3c-0.1,0.1-0.3,0.2-0.4,0.3c-0.1,0.1-0.2,0.3-0.3,0.4
				c-0.1-0.2-0.2-0.4-0.3-0.5c-0.1-0.1-0.2-0.2-0.3-0.3c-0.1-0.1-0.3-0.2-0.4-0.3c-0.2-0.1-0.3-0.1-0.5-0.2c-0.2,0-0.4-0.1-0.6-0.1
				c-0.3,0-0.6,0-0.8,0.1c-0.3,0.1-0.5,0.2-0.7,0.3c-0.2,0.1-0.4,0.2-0.5,0.4c-0.1,0.1-0.3,0.3-0.4,0.5l0.1-1.1h-1.9l-0.3,7.2
				c0,0,1.6,0,2,0c0-0.6,0-1.5,0.1-2.5c0.1-1.1,0.1-1.8,0.3-2.1c0.1-0.4,0.3-0.7,0.6-0.9c0.3-0.2,0.5-0.3,0.9-0.3
				c0.2,0,0.3,0,0.5,0.1c0.1,0.1,0.3,0.2,0.4,0.3c0.1,0.1,0.2,0.3,0.2,0.4c0,0.1,0.1,0.3,0.1,0.5c0,0.4,0,1.2-0.1,2.3
				c-0.1,1.1-0.1,1.9-0.1,2.2c0.4,0,1.6,0,2,0l0-2c0-0.7,0.1-1.3,0.1-1.7c0-0.4,0.1-0.8,0.2-1c0.1-0.2,0.2-0.5,0.3-0.6
				c0.1-0.2,0.3-0.3,0.5-0.4c0.2-0.1,0.4-0.1,0.6-0.1c0.2,0,0.4,0,0.6,0.1c0.2,0.1,0.3,0.2,0.4,0.4c0.1,0.2,0.2,0.4,0.2,0.8
				c0,0.3,0,0.6,0,1l-0.1,1.6c0,0.7-0.1,1.3-0.1,1.9c0.4,0,1.7,0,2,0c0-0.5,0-1.3,0.1-2.3c0-1,0.1-1.7,0.1-2.2c0-0.4,0-0.8,0-1
				c0-0.4-0.1-0.8-0.3-1.1C209.5,243.3,209.2,243.1,208.8,243z M216.5,242.9c-0.4-0.1-0.9-0.2-1.4-0.2c-0.5,0-0.9,0-1.4,0.1
				c-0.5,0.1-1.7,0.3-1.7,0.3l-0.2,1.3c0,0,2-0.6,2.9-0.6c0.2,0,0.4,0,0.6,0.1c0.2,0,0.3,0.1,0.5,0.3c0.1,0.1,0.2,0.3,0.2,0.5
				c0,0.1,0,0.2-0.1,0.3c0,0.1-0.1,0.2-0.2,0.3c-0.1,0.1-0.2,0.2-0.3,0.2c-0.1,0.1-0.3,0.1-0.5,0.2c-0.2,0.1-0.4,0.1-0.6,0.1
				c-0.7,0.1-1.2,0.3-1.6,0.4c-0.4,0.1-0.7,0.3-1,0.4c-0.2,0.2-0.4,0.3-0.5,0.5c-0.1,0.2-0.2,0.3-0.3,0.5c-0.1,0.2-0.1,0.4-0.1,0.6
				c0,0.4,0.1,0.7,0.3,1.1c0.2,0.4,0.5,0.6,0.9,0.8c0.4,0.2,0.9,0.2,1.5,0.2c0.2,0,0.4,0,0.6,0c0.2,0,0.5,0,0.8-0.1
				c0.1-0.5,0.2-0.9,0.3-1.2c-0.3,0.1-0.5,0.2-0.7,0.2c-0.2,0-0.3,0-0.5,0c-0.2,0-0.4,0-0.6-0.1c-0.2-0.1-0.3-0.2-0.4-0.3
				c-0.1-0.1-0.2-0.3-0.2-0.5c0-0.1,0-0.2,0.1-0.3c0-0.1,0.1-0.2,0.2-0.3c0.1-0.1,0.2-0.2,0.4-0.3c0.1-0.1,0.3-0.1,0.5-0.2
				c0.2-0.1,0.4-0.1,0.7-0.2c0.3-0.1,0.5-0.1,0.6-0.2c0.1,0,0.2-0.1,0.3-0.1c0.1,0,0.2-0.1,0.4-0.2l-0.2,3.8h2c0,0,0.1-2.3,0.1-3.4
				c0.1-1.1,0.1-1.8,0.1-2.1c0-0.5-0.1-0.9-0.4-1.1C217.3,243.3,217,243.1,216.5,242.9z M229.3,243c-0.4-0.1-0.8-0.2-1.2-0.2
				c-0.2,0-0.5,0-0.7,0.1c-0.2,0-0.4,0.1-0.6,0.2c-0.2,0.1-0.3,0.2-0.5,0.3c-0.1,0.1-0.3,0.2-0.4,0.3c-0.1,0.1-0.2,0.3-0.3,0.4
				c-0.1-0.2-0.2-0.4-0.3-0.5c-0.1-0.1-0.2-0.2-0.3-0.3c-0.1-0.1-0.3-0.2-0.4-0.3c-0.2-0.1-0.3-0.1-0.5-0.2c-0.2,0-0.4-0.1-0.6-0.1
				c-0.3,0-0.6,0-0.8,0.1c-0.3,0.1-0.5,0.2-0.7,0.3c-0.2,0.1-0.4,0.2-0.5,0.4c-0.1,0.1-0.3,0.3-0.4,0.5l0.1-1.1h-1.9l-0.3,7.2h2
				c0,0,0-1.5,0.1-2.5c0.1-1.1,0.1-1.8,0.3-2.1c0.1-0.4,0.3-0.7,0.6-0.9c0.3-0.2,0.5-0.3,0.9-0.3c0.2,0,0.3,0,0.5,0.1
				c0.1,0.1,0.3,0.2,0.4,0.3c0.1,0.1,0.2,0.3,0.2,0.4c0,0.1,0.1,0.3,0.1,0.5c0,0.4,0,1.2-0.1,2.3c-0.1,1.1-0.1,1.9-0.1,2.2
				c0.4,0,1.6,0,2,0l0-2c0-0.7,0.1-1.3,0.1-1.7c0-0.4,0.1-0.8,0.2-1c0.1-0.2,0.2-0.5,0.3-0.6c0.2-0.2,0.3-0.3,0.5-0.4
				c0.2-0.1,0.4-0.1,0.6-0.1c0.2,0,0.4,0,0.6,0.1c0.2,0.1,0.3,0.2,0.4,0.4c0.1,0.2,0.2,0.4,0.2,0.8c0,0.3,0,0.6,0,1l-0.1,1.6
				c0,0.7-0.1,1.3-0.1,1.9c0.4,0,1.7,0,2,0c0-0.5,0-1.3,0.1-2.3c0-1,0.1-1.7,0.1-2.2c0-0.4,0-0.8,0-1c0-0.4-0.1-0.8-0.3-1.1
				C229.9,243.3,229.6,243.1,229.3,243z M237,242.9c-0.4-0.1-0.9-0.2-1.4-0.2c-0.5,0-0.9,0-1.4,0.1c-0.5,0.1-1.7,0.3-1.7,0.3
				l-0.2,1.3c0,0,2-0.6,2.9-0.6c0.2,0,0.4,0,0.6,0.1c0.2,0,0.4,0.1,0.5,0.3c0.1,0.1,0.2,0.3,0.2,0.5c0,0.1,0,0.2-0.1,0.3
				c0,0.1-0.1,0.2-0.2,0.3c-0.1,0.1-0.2,0.2-0.3,0.2c-0.1,0.1-0.3,0.1-0.5,0.2c-0.2,0.1-0.4,0.1-0.6,0.1c-0.7,0.1-1.2,0.3-1.6,0.4
				c-0.4,0.1-0.7,0.3-1,0.4c-0.2,0.2-0.4,0.3-0.5,0.5c-0.1,0.2-0.2,0.3-0.3,0.5c-0.1,0.2-0.1,0.4-0.1,0.6c0,0.4,0.1,0.7,0.3,1.1
				c0.2,0.4,0.5,0.6,0.9,0.8c0.4,0.2,0.9,0.2,1.5,0.2c0.2,0,0.4,0,0.6,0c0.2,0,0.5,0,0.8-0.1c0.1-0.5,0.2-0.9,0.4-1.2
				c-0.3,0.1-0.5,0.2-0.7,0.2c-0.2,0-0.3,0-0.5,0c-0.2,0-0.4,0-0.6-0.1c-0.2-0.1-0.3-0.2-0.4-0.3c-0.1-0.1-0.2-0.3-0.2-0.5
				c0-0.1,0-0.2,0.1-0.3c0-0.1,0.1-0.2,0.2-0.3c0.1-0.1,0.2-0.2,0.4-0.3c0.1-0.1,0.3-0.1,0.5-0.2c0.2-0.1,0.4-0.1,0.7-0.2
				c0.3-0.1,0.5-0.1,0.6-0.2c0.1,0,0.2-0.1,0.3-0.1c0.1,0,0.2-0.1,0.4-0.2l-0.2,3.8h2c0,0,0.1-2.3,0.1-3.4c0.1-1.1,0.1-1.8,0.1-2.1
				c0-0.5-0.1-0.9-0.4-1.1C237.7,243.3,237.4,243.1,237,242.9z M239.2,248.3c0,0.9-0.1,1.6-0.1,1.9c0.7,0,2,0,2,0s0.1-1.6,0.1-1.9
				C240.7,248.3,239.2,248.3,239.2,248.3z M244.5,244.9c0.2-0.2,0.5-0.4,0.7-0.5c0.3-0.1,0.6-0.2,0.9-0.2c0.5,0,1.1,0.1,1.9,0.4
				l-0.1-1.6c-0.4-0.1-0.8-0.2-1.2-0.2c-0.3,0-0.6-0.1-1-0.1c-0.6,0-1.1,0.1-1.5,0.2c-0.5,0.1-0.9,0.4-1.2,0.7
				c-0.4,0.3-0.7,0.8-0.8,1.4c-0.2,0.5-0.3,1.1-0.3,1.7c0,0.5,0.1,0.9,0.2,1.3c0.1,0.4,0.3,0.8,0.5,1.1c0.2,0.3,0.5,0.5,0.8,0.7
				c0.3,0.2,0.6,0.3,1,0.4c0.4,0.1,0.7,0.1,1.1,0.1c0.7,0,1.3-0.1,2-0.2c0.1-0.4,0.1-0.7,0.2-0.9c0-0.2,0.1-0.5,0.1-0.7
				c-0.3,0.1-0.7,0.2-1,0.3c-0.3,0.1-0.6,0.1-0.8,0.1c-0.4,0-0.8-0.1-1.2-0.3c-0.3-0.2-0.6-0.4-0.7-0.8c-0.1-0.3-0.2-0.7-0.2-1.2
				c0-0.3,0-0.6,0.1-0.9C244.2,245.4,244.3,245.1,244.5,244.9z M255.4,243.7c-0.4-0.3-0.8-0.6-1.3-0.7c-0.5-0.2-1-0.2-1.6-0.2
				c-0.6,0-1.2,0.1-1.7,0.3c-0.6,0.2-1,0.5-1.4,0.9c-0.4,0.4-0.6,0.8-0.8,1.3c-0.2,0.5-0.3,1-0.3,1.5c0,0.5,0.1,1,0.3,1.5
				c0.2,0.5,0.5,0.9,0.8,1.2c0.4,0.3,0.8,0.6,1.3,0.7c0.5,0.2,1,0.2,1.6,0.2c0.6,0,1.2-0.1,1.7-0.3c0.5-0.2,1-0.5,1.3-0.8
				c0.4-0.4,0.6-0.8,0.8-1.3c0.2-0.5,0.3-1,0.3-1.6c0-0.5-0.1-1-0.3-1.5C256,244.4,255.8,244.1,255.4,243.7z M254.2,247.7
				c-0.2,0.4-0.4,0.7-0.7,0.9c-0.3,0.2-0.7,0.3-1.1,0.3c-0.4,0-0.8-0.1-1.1-0.3c-0.3-0.2-0.5-0.5-0.6-0.8c-0.1-0.3-0.2-0.7-0.2-1.1
				c0-0.5,0.1-0.9,0.2-1.3c0.2-0.4,0.4-0.7,0.7-0.9c0.3-0.2,0.7-0.3,1.1-0.3c0.4,0,0.8,0.1,1.1,0.3c0.3,0.2,0.5,0.5,0.6,0.8
				c0.1,0.3,0.2,0.7,0.2,1.1C254.4,246.9,254.4,247.3,254.2,247.7z M268.2,243.6c-0.2-0.3-0.5-0.5-0.9-0.6c-0.4-0.1-0.8-0.2-1.2-0.2
				c-0.2,0-0.5,0-0.7,0.1c-0.2,0-0.4,0.1-0.6,0.2c-0.2,0.1-0.3,0.2-0.5,0.3c-0.1,0.1-0.3,0.2-0.4,0.3c-0.1,0.1-0.2,0.3-0.3,0.4
				c-0.1-0.2-0.2-0.4-0.3-0.5c-0.1-0.1-0.2-0.2-0.3-0.3c-0.1-0.1-0.3-0.2-0.4-0.3c-0.2-0.1-0.3-0.1-0.5-0.2c-0.2,0-0.4-0.1-0.6-0.1
				c-0.3,0-0.6,0-0.8,0.1c-0.3,0.1-0.5,0.2-0.7,0.3c-0.2,0.1-0.4,0.2-0.5,0.4c-0.1,0.1-0.3,0.3-0.4,0.5l0.1-1.1c-0.3,0-1.5,0-1.9,0
				c0,0.8-0.3,6.4-0.3,7.2c0.4,0,1.6,0,2,0c0-0.6,0-1.5,0.1-2.5c0.1-1.1,0.1-1.8,0.3-2.1c0.1-0.4,0.3-0.7,0.6-0.9
				c0.3-0.2,0.5-0.3,0.9-0.3c0.2,0,0.3,0,0.5,0.1c0.1,0.1,0.3,0.2,0.4,0.3c0.1,0.1,0.2,0.3,0.2,0.4c0,0.1,0,0.3,0,0.5
				c0,0.4,0,1.2-0.1,2.3c-0.1,1.1-0.1,1.9-0.1,2.2c0.4,0,1.6,0,2,0l0-2c0-0.7,0.1-1.3,0.1-1.7c0-0.4,0.1-0.8,0.2-1
				c0.1-0.2,0.2-0.5,0.3-0.6c0.1-0.2,0.3-0.3,0.5-0.4c0.2-0.1,0.4-0.1,0.6-0.1c0.2,0,0.4,0,0.6,0.1c0.2,0.1,0.3,0.2,0.4,0.4
				c0.1,0.2,0.2,0.4,0.2,0.8c0,0.3,0,0.6,0,1l-0.1,1.6c0,0.7-0.1,1.3-0.1,1.9c0.4,0,1.7,0,2,0c0-0.5,0-1.3,0.1-2.3
				c0-1,0.1-1.7,0.1-2.2c0-0.4,0-0.8,0-1C268.5,244.3,268.4,243.9,268.2,243.6z"/>
		</g>
	</g>
	<g id="形状_2_copy_3_副本_5_49_">
		<g>
			<path style="fill-rule:evenodd;clip-rule:evenodd;fill:#FF6600;" d="M189.1,220.2c3,0,6,0,9.1,0c0,4.5,0,9.2,0,13.4
				c0,0.3-0.3,0.7-0.7,0.7c-0.5,0-0.7,0-1.3,0v2.2c0.7,0,1.3,0,2,0c1.7,0,2.9-0.9,2.9-2.3c0-3.5,0-10.4,0-13.9h1v-2.1h-13V220.2z
				 M235.4,229.8c-0.8,0-2.1,0.8-2.1,2.1c2.6,0,6.8-0.1,9.7-0.1c0,0.5,0,1.1,0,1.7c1,0,0.6,0,1.6,0c0.6,0,1.3-0.5,1.3-1.4
				c0-2.3,0-4.1,0-6.4c-0.4,0-0.9,0-1.3,0c0-1.8,0-5.4,0-6.7c0-0.5-0.5-1.1-1.2-1.1h-9.5v2.1h7.3c0,1.9,0,3.8,0,5.7
				c-1.7,0-2,0-3.5,0c-0.2,0-0.4-0.2-0.4-0.4c0-1,0-2.5,0-3.8c0-0.3-0.3-0.6-0.8-0.6h-2.2v5.1c0,1,0.9,1.8,1.8,1.8c0,0,3.7,0,6.8,0
				v1.9H235.4z M196.8,230.5c0-2.4,0-5.8,0-9h-7.6v11.5c2.2,0,5,0,5,0C196.1,232.9,196.8,231.8,196.8,230.5z M193.6,230.8
				c-0.5,0-1.1,0-1.9,0v-7.2c0.8,0,1.8,0,2.6,0c0,2.2,0,4.6,0,6.5C194.2,230.5,194,230.8,193.6,230.8z M180.6,218.6
				c0,4.1,0,9.5,0,17.8h2.8c0-5.2,0-10.9,0-16.3c0.7,0,1.4,0,2.1,0c0,3.1,0,5.9,0,8.8c0,1.2-1.1,1.6-1.1,1.6v2.3c2,0,3.7-2,3.7-3.9
				c0-3.3,0-7.6,0-11c-2.5,0-4.5,0-7,0C180.6,218.1,180.6,218.6,180.6,218.6z M267.6,225.9c0-1.8,0-5.4,0-6.7c0-0.5-0.5-1.1-1.2-1.1
				h-9.5v2.1c2.4,0,4.9,0,7.3,0v5.7c-1.7,0-2,0-3.5,0c-0.2,0-0.4-0.2-0.4-0.4c0-1,0-2.5,0-3.8c0-0.3-0.3-0.6-0.8-0.6
				c-0.6,0-1.5,0-2.2,0v5c0,1,0.9,1.8,1.8,1.8c0,0,3.7,0,6.8,0v1.9h-7.5c-0.8,0-2.2,0.7-2.2,2.1c2.6,0,6.8,0,9.6,0v1.9
				c0,0.3-0.3,0.5-0.6,0.5h-1.1c0,0.9,0,1.5,0,2.1h1.7c0.5,0,0.4,0,0.9,0c1.4,0,2-1,2-1.8c0-2.6,0-6.1,0-8.7
				C268.5,225.9,268,225.9,267.6,225.9z M254.1,232.9c1-1.1,1.6-2.4,1.7-5c0-2.7,0-5.4,0-8.1c0-0.2-0.3-0.5-0.6-0.5
				c-1.1,0-2.4,0-3.6,0v-1.3h-2.8c0,0.4,0,0.8,0,1.3c-0.3,0-0.7,0-0.9,0v2.1h0.9v6.5c0,2.5,0.8,3.8,1.9,5c-1.2,0.8-2.5,1.4-4.2,1.4
				c-0.2,0-0.5,0-0.7,0c-2.6,0-5.8,0-8.6,0c-2.6,0-5.2-0.5-6.1-1.6c0.9-1.2,1.4-2.2,1.7-4.7c0-2.5,0-4.7,0-7.9
				c0-0.4-0.4-0.7-0.7-0.7c-1.1,0-2.2,0-3.6,0v-1.3c-1.1,0-1.6,0-2.7,0v1.3c-0.3,0-0.5,0-0.9,0v2.1c0.4,0,0.6,0,0.9,0
				c0,2.2,0,4.5,0,6.5c0.2,2.5,1,3.4,2,4.8c-1.4,1-3.1,1.4-5.2,1.5c-2.4,0-4.6,0-7.6,0c0-0.5,0-1.3,0-1.6h7.6v-2.2h-7.6
				c0-0.5,0-1.1,0-1.6c2.2,0,5,0,5.7,0c0,0,1.8,0,1.9-2c0-2.1,0-5.9,0-8.8c-6,0-12.1,0-18.1,0c-0.3,0-0.6,0.3-0.6,0.5
				c0,0.4,0,7.1,0,10.3c2.5,0,5,0,7.6,0v1.6h-7.6c0,0.7,0,1.5,0,2.2h7.6c0,0.5,0,1.1,0,1.6h-8.8c0,0.6,0,1.4,0,2.1
				c6.6,0,14.9,0,21.3,0c1.7,0,3.9-0.9,5.5-1.8c2,1.5,4.1,1.8,7.7,1.8c1.1,0,2.3,0,3.6,0c1.9,0,3.5,0,5,0c3,0,4.9-0.6,6.8-1.7
				c1.7,1,3.3,1.6,6,1.7v0h4v-2.1h-4C256.8,234.1,255.3,233.9,254.1,232.9z M211.6,226.8H207v-2.2h4.6V226.8z M211.6,222.4H207v-2.2
				c1.6,0,3.1,0,4.6,0V222.4z M215.1,220.2h4.7v2.2h-4.7V220.2z M215.1,224.6c1.6,0,3.1,0,4.6,0c0,0.9,0,1.6,0,2.2h-4.7
				C215.1,226.2,215.1,225.3,215.1,224.6z M230.2,228c-0.1,1.5-0.3,1.8-0.7,2.8c-0.4-0.9-0.8-1.3-0.9-2.8c0-1.9,0-4.5,0-6.5h1.6V228
				z M253.2,228c-0.1,1.3-0.4,2-0.7,2.8c-0.4-0.7-0.8-1.5-0.8-2.8c0-2,0-4.5,0-6.5h1.6C253.2,223.5,253.2,225.9,253.2,228z"/>
		</g>
	</g>
</g>
<rect x="6.2" y="158.3" style="fill:none;stroke:#D8D8D8;stroke-miterlimit:10;" width="300.2" height="438.9"/>
<g>
	<g id="形状_2_copy_3_副本_4_47_">
		<g>
			<path style="fill-rule:evenodd;clip-rule:evenodd;fill:#CCCCCC;" d="M694.5,240.5c-1.7,3.3-3.2,6.2-4.9,9.7h2.4
				c0.4-0.8,0.7-1.3,1.2-2.3c1.2,0,2.2,0,3.4,0c-0.3-0.7-0.4-1.3-0.6-1.8H694c0.6-1.1,0.9-1.7,1.7-3.2c0.9,2.5,1.8,5.1,2.6,7.4h2.2
				c-1.2-3.4-2.3-6.3-3.4-9.7H694.5z M701.1,250.2h2.1l0.4-9.7l-2,0L701.1,250.2z M704.3,250.2h2.2l0.3-7.2h-2.1L704.3,250.2z
				 M704.7,240.5l-0.1,1.6c0,0,1.6,0,2,0l0.1-1.6C705,240.5,704.9,240.5,704.7,240.5z M718,243c-0.4-0.1-0.8-0.2-1.2-0.2
				c-0.2,0-0.5,0-0.7,0.1c-0.2,0-0.4,0.1-0.6,0.2c-0.2,0.1-0.3,0.2-0.5,0.3c-0.1,0.1-0.3,0.2-0.4,0.3c-0.1,0.1-0.2,0.3-0.3,0.4
				c-0.1-0.2-0.2-0.4-0.3-0.5c-0.1-0.1-0.2-0.2-0.3-0.3c-0.1-0.1-0.3-0.2-0.4-0.3c-0.2-0.1-0.3-0.1-0.5-0.2c-0.2,0-0.4-0.1-0.6-0.1
				c-0.3,0-0.6,0-0.8,0.1c-0.3,0.1-0.5,0.2-0.7,0.3c-0.2,0.1-0.4,0.2-0.5,0.4c-0.1,0.1-0.3,0.3-0.4,0.5l0.1-1.1h-1.9l-0.3,7.2
				c0,0,1.6,0,2,0c0-0.6,0-1.5,0.1-2.5c0.1-1.1,0.1-1.8,0.3-2.1c0.1-0.4,0.3-0.7,0.6-0.9c0.3-0.2,0.5-0.3,0.9-0.3
				c0.2,0,0.3,0,0.5,0.1c0.1,0.1,0.3,0.2,0.4,0.3c0.1,0.1,0.2,0.3,0.2,0.4c0,0.1,0.1,0.3,0.1,0.5c0,0.4,0,1.2-0.1,2.3
				c-0.1,1.1-0.1,1.9-0.1,2.2c0.4,0,1.6,0,2,0l0-2c0-0.7,0.1-1.3,0.1-1.7c0-0.4,0.1-0.8,0.2-1c0.1-0.2,0.2-0.5,0.3-0.6
				c0.1-0.2,0.3-0.3,0.5-0.4c0.2-0.1,0.4-0.1,0.6-0.1c0.2,0,0.4,0,0.6,0.1c0.2,0.1,0.3,0.2,0.4,0.4c0.1,0.2,0.2,0.4,0.2,0.8
				c0,0.3,0,0.6,0,1l-0.1,1.6c0,0.7-0.1,1.3-0.1,1.9c0.4,0,1.7,0,2,0c0-0.5,0-1.3,0.1-2.3c0-1,0.1-1.7,0.1-2.2c0-0.4,0-0.8,0-1
				c0-0.4-0.1-0.8-0.3-1.1C718.6,243.3,718.3,243.1,718,243z M725.7,242.9c-0.4-0.1-0.9-0.2-1.4-0.2c-0.5,0-0.9,0-1.4,0.1
				c-0.5,0.1-1.7,0.3-1.7,0.3l-0.2,1.3c0,0,2-0.6,2.9-0.6c0.2,0,0.4,0,0.6,0.1c0.2,0,0.3,0.1,0.5,0.3c0.1,0.1,0.2,0.3,0.2,0.5
				c0,0.1,0,0.2-0.1,0.3c0,0.1-0.1,0.2-0.2,0.3c-0.1,0.1-0.2,0.2-0.3,0.2c-0.1,0.1-0.3,0.1-0.5,0.2c-0.2,0.1-0.4,0.1-0.6,0.1
				c-0.7,0.1-1.2,0.3-1.6,0.4c-0.4,0.1-0.7,0.3-1,0.4c-0.2,0.2-0.4,0.3-0.5,0.5c-0.1,0.2-0.2,0.3-0.3,0.5c-0.1,0.2-0.1,0.4-0.1,0.6
				c0,0.4,0.1,0.7,0.3,1.1c0.2,0.4,0.5,0.6,0.9,0.8c0.4,0.2,0.9,0.2,1.5,0.2c0.2,0,0.4,0,0.6,0c0.2,0,0.5,0,0.8-0.1
				c0.1-0.5,0.2-0.9,0.3-1.2c-0.3,0.1-0.5,0.2-0.7,0.2c-0.2,0-0.3,0-0.5,0c-0.2,0-0.4,0-0.6-0.1c-0.2-0.1-0.3-0.2-0.4-0.3
				c-0.1-0.1-0.2-0.3-0.2-0.5c0-0.1,0-0.2,0.1-0.3c0-0.1,0.1-0.2,0.2-0.3c0.1-0.1,0.2-0.2,0.4-0.3c0.1-0.1,0.3-0.1,0.5-0.2
				c0.2-0.1,0.4-0.1,0.7-0.2c0.3-0.1,0.5-0.1,0.6-0.2c0.1,0,0.2-0.1,0.3-0.1c0.1,0,0.2-0.1,0.4-0.2l-0.2,3.8h2c0,0,0.1-2.3,0.1-3.4
				c0.1-1.1,0.1-1.8,0.1-2.1c0-0.5-0.1-0.9-0.4-1.1C726.4,243.3,726.1,243.1,725.7,242.9z M738.4,243c-0.4-0.1-0.8-0.2-1.2-0.2
				c-0.2,0-0.5,0-0.7,0.1c-0.2,0-0.4,0.1-0.6,0.2c-0.2,0.1-0.3,0.2-0.5,0.3c-0.1,0.1-0.3,0.2-0.4,0.3c-0.1,0.1-0.2,0.3-0.3,0.4
				c-0.1-0.2-0.2-0.4-0.3-0.5c-0.1-0.1-0.2-0.2-0.3-0.3c-0.1-0.1-0.3-0.2-0.4-0.3c-0.2-0.1-0.3-0.1-0.5-0.2c-0.2,0-0.4-0.1-0.6-0.1
				c-0.3,0-0.6,0-0.8,0.1c-0.3,0.1-0.5,0.2-0.7,0.3c-0.2,0.1-0.4,0.2-0.5,0.4c-0.1,0.1-0.3,0.3-0.4,0.5l0.1-1.1h-1.9l-0.3,7.2h2
				c0,0,0-1.5,0.1-2.5c0.1-1.1,0.1-1.8,0.3-2.1c0.1-0.4,0.3-0.7,0.6-0.9c0.3-0.2,0.5-0.3,0.9-0.3c0.2,0,0.3,0,0.5,0.1
				c0.1,0.1,0.3,0.2,0.4,0.3c0.1,0.1,0.2,0.3,0.2,0.4c0,0.1,0.1,0.3,0.1,0.5c0,0.4,0,1.2-0.1,2.3c-0.1,1.1-0.1,1.9-0.1,2.2
				c0.4,0,1.6,0,2,0l0-2c0-0.7,0.1-1.3,0.1-1.7c0-0.4,0.1-0.8,0.2-1c0.1-0.2,0.2-0.5,0.3-0.6c0.2-0.2,0.3-0.3,0.5-0.4
				c0.2-0.1,0.4-0.1,0.6-0.1c0.2,0,0.4,0,0.6,0.1c0.2,0.1,0.3,0.2,0.4,0.4c0.1,0.2,0.2,0.4,0.2,0.8c0,0.3,0,0.6,0,1l-0.1,1.6
				c0,0.7-0.1,1.3-0.1,1.9c0.4,0,1.7,0,2,0c0-0.5,0-1.3,0.1-2.3c0-1,0.1-1.7,0.1-2.2c0-0.4,0-0.8,0-1c0-0.4-0.1-0.8-0.3-1.1
				C739.1,243.3,738.8,243.1,738.4,243z M746.1,242.9c-0.4-0.1-0.9-0.2-1.4-0.2c-0.5,0-0.9,0-1.4,0.1c-0.5,0.1-1.7,0.3-1.7,0.3
				l-0.2,1.3c0,0,2-0.6,2.9-0.6c0.2,0,0.4,0,0.6,0.1c0.2,0,0.4,0.1,0.5,0.3c0.1,0.1,0.2,0.3,0.2,0.5c0,0.1,0,0.2-0.1,0.3
				c0,0.1-0.1,0.2-0.2,0.3c-0.1,0.1-0.2,0.2-0.3,0.2c-0.1,0.1-0.3,0.1-0.5,0.2c-0.2,0.1-0.4,0.1-0.6,0.1c-0.7,0.1-1.2,0.3-1.6,0.4
				c-0.4,0.1-0.7,0.3-1,0.4c-0.2,0.2-0.4,0.3-0.5,0.5c-0.1,0.2-0.2,0.3-0.3,0.5c-0.1,0.2-0.1,0.4-0.1,0.6c0,0.4,0.1,0.7,0.3,1.1
				c0.2,0.4,0.5,0.6,0.9,0.8c0.4,0.2,0.9,0.2,1.5,0.2c0.2,0,0.4,0,0.6,0c0.2,0,0.5,0,0.8-0.1c0.1-0.5,0.2-0.9,0.4-1.2
				c-0.3,0.1-0.5,0.2-0.7,0.2c-0.2,0-0.3,0-0.5,0c-0.2,0-0.4,0-0.6-0.1c-0.2-0.1-0.3-0.2-0.4-0.3c-0.1-0.1-0.2-0.3-0.2-0.5
				c0-0.1,0-0.2,0.1-0.3c0-0.1,0.1-0.2,0.2-0.3c0.1-0.1,0.2-0.2,0.4-0.3c0.1-0.1,0.3-0.1,0.5-0.2c0.2-0.1,0.4-0.1,0.7-0.2
				c0.3-0.1,0.5-0.1,0.6-0.2c0.1,0,0.2-0.1,0.3-0.1c0.1,0,0.2-0.1,0.4-0.2l-0.2,3.8h2c0,0,0.1-2.3,0.1-3.4c0.1-1.1,0.1-1.8,0.1-2.1
				c0-0.5-0.1-0.9-0.4-1.1C746.9,243.3,746.5,243.1,746.1,242.9z M748.4,248.3c0,0.9-0.1,1.6-0.1,1.9c0.7,0,2,0,2,0s0.1-1.6,0.1-1.9
				C749.9,248.3,748.4,248.3,748.4,248.3z M753.7,244.9c0.2-0.2,0.5-0.4,0.7-0.5c0.3-0.1,0.6-0.2,0.9-0.2c0.5,0,1.1,0.1,1.9,0.4
				l-0.1-1.6c-0.4-0.1-0.8-0.2-1.2-0.2c-0.3,0-0.6-0.1-1-0.1c-0.6,0-1.1,0.1-1.5,0.2c-0.5,0.1-0.9,0.4-1.2,0.7
				c-0.4,0.3-0.7,0.8-0.8,1.4c-0.2,0.5-0.3,1.1-0.3,1.7c0,0.5,0.1,0.9,0.2,1.3c0.1,0.4,0.3,0.8,0.5,1.1c0.2,0.3,0.5,0.5,0.8,0.7
				c0.3,0.2,0.6,0.3,1,0.4c0.4,0.1,0.7,0.1,1.1,0.1c0.7,0,1.3-0.1,2-0.2c0.1-0.4,0.1-0.7,0.2-0.9c0-0.2,0.1-0.5,0.1-0.7
				c-0.3,0.1-0.7,0.2-1,0.3c-0.3,0.1-0.6,0.1-0.8,0.1c-0.4,0-0.8-0.1-1.2-0.3c-0.3-0.2-0.6-0.4-0.7-0.8c-0.1-0.3-0.2-0.7-0.2-1.2
				c0-0.3,0-0.6,0.1-0.9C753.3,245.4,753.5,245.1,753.7,244.9z M764.6,243.7c-0.4-0.3-0.8-0.6-1.3-0.7c-0.5-0.2-1-0.2-1.6-0.2
				c-0.6,0-1.2,0.1-1.7,0.3c-0.6,0.2-1,0.5-1.4,0.9c-0.4,0.4-0.6,0.8-0.8,1.3c-0.2,0.5-0.3,1-0.3,1.5c0,0.5,0.1,1,0.3,1.5
				c0.2,0.5,0.5,0.9,0.8,1.2c0.4,0.3,0.8,0.6,1.3,0.7c0.5,0.2,1,0.2,1.6,0.2c0.6,0,1.2-0.1,1.7-0.3c0.5-0.2,1-0.5,1.3-0.8
				c0.4-0.4,0.6-0.8,0.8-1.3c0.2-0.5,0.3-1,0.3-1.6c0-0.5-0.1-1-0.3-1.5C765.2,244.4,764.9,244.1,764.6,243.7z M763.3,247.7
				c-0.2,0.4-0.4,0.7-0.7,0.9c-0.3,0.2-0.7,0.3-1.1,0.3c-0.4,0-0.8-0.1-1.1-0.3c-0.3-0.2-0.5-0.5-0.6-0.8c-0.1-0.3-0.2-0.7-0.2-1.1
				c0-0.5,0.1-0.9,0.2-1.3c0.2-0.4,0.4-0.7,0.7-0.9c0.3-0.2,0.7-0.3,1.1-0.3c0.4,0,0.8,0.1,1.1,0.3c0.3,0.2,0.5,0.5,0.6,0.8
				c0.1,0.3,0.2,0.7,0.2,1.1C763.6,246.9,763.5,247.3,763.3,247.7z M777.3,243.6c-0.2-0.3-0.5-0.5-0.9-0.6c-0.4-0.1-0.8-0.2-1.2-0.2
				c-0.2,0-0.5,0-0.7,0.1c-0.2,0-0.4,0.1-0.6,0.2c-0.2,0.1-0.3,0.2-0.5,0.3c-0.1,0.1-0.3,0.2-0.4,0.3c-0.1,0.1-0.2,0.3-0.3,0.4
				c-0.1-0.2-0.2-0.4-0.3-0.5c-0.1-0.1-0.2-0.2-0.3-0.3c-0.1-0.1-0.3-0.2-0.4-0.3c-0.2-0.1-0.3-0.1-0.5-0.2c-0.2,0-0.4-0.1-0.6-0.1
				c-0.3,0-0.6,0-0.8,0.1c-0.3,0.1-0.5,0.2-0.7,0.3c-0.2,0.1-0.4,0.2-0.5,0.4c-0.1,0.1-0.3,0.3-0.4,0.5l0.1-1.1c-0.3,0-1.5,0-1.9,0
				c0,0.8-0.3,6.4-0.3,7.2c0.4,0,1.6,0,2,0c0-0.6,0-1.5,0.1-2.5c0.1-1.1,0.1-1.8,0.3-2.1c0.1-0.4,0.3-0.7,0.6-0.9
				c0.3-0.2,0.5-0.3,0.9-0.3c0.2,0,0.3,0,0.5,0.1c0.1,0.1,0.3,0.2,0.4,0.3c0.1,0.1,0.2,0.3,0.2,0.4c0,0.1,0,0.3,0,0.5
				c0,0.4,0,1.2-0.1,2.3c-0.1,1.1-0.1,1.9-0.1,2.2c0.4,0,1.6,0,2,0l0-2c0-0.7,0.1-1.3,0.1-1.7c0-0.4,0.1-0.8,0.2-1
				c0.1-0.2,0.2-0.5,0.3-0.6c0.1-0.2,0.3-0.3,0.5-0.4c0.2-0.1,0.4-0.1,0.6-0.1c0.2,0,0.4,0,0.6,0.1c0.2,0.1,0.3,0.2,0.4,0.4
				c0.1,0.2,0.2,0.4,0.2,0.8c0,0.3,0,0.6,0,1l-0.1,1.6c0,0.7-0.1,1.3-0.1,1.9c0.4,0,1.7,0,2,0c0-0.5,0-1.3,0.1-2.3
				c0-1,0.1-1.7,0.1-2.2c0-0.4,0-0.8,0-1C777.7,244.3,777.5,243.9,777.3,243.6z"/>
		</g>
	</g>
	<g id="形状_2_copy_3_副本_5_47_">
		<g>
			<path style="fill-rule:evenodd;clip-rule:evenodd;fill:#FF6600;" d="M698.2,220.2c3,0,6,0,9.1,0c0,4.5,0,9.2,0,13.4
				c0,0.3-0.3,0.7-0.7,0.7c-0.5,0-0.7,0-1.3,0v2.2c0.7,0,1.3,0,2,0c1.7,0,2.9-0.9,2.9-2.3c0-3.5,0-10.4,0-13.9h1v-2.1h-13V220.2z
				 M744.6,229.8c-0.8,0-2.1,0.8-2.1,2.1c2.6,0,6.8-0.1,9.7-0.1c0,0.5,0,1.1,0,1.7c1,0,0.6,0,1.6,0c0.6,0,1.3-0.5,1.3-1.4
				c0-2.3,0-4.1,0-6.4c-0.4,0-0.9,0-1.3,0c0-1.8,0-5.4,0-6.7c0-0.5-0.5-1.1-1.2-1.1H743v2.1h7.3c0,1.9,0,3.8,0,5.7c-1.7,0-2,0-3.5,0
				c-0.2,0-0.4-0.2-0.4-0.4c0-1,0-2.5,0-3.8c0-0.3-0.3-0.6-0.8-0.6h-2.2v5.1c0,1,0.9,1.8,1.8,1.8c0,0,3.7,0,6.8,0v1.9H744.6z
				 M705.9,230.5c0-2.4,0-5.8,0-9h-7.6v11.5c2.2,0,5,0,5,0C705.3,232.9,705.9,231.9,705.9,230.5z M702.7,230.8c-0.5,0-1.1,0-1.9,0
				v-7.2c0.8,0,1.8,0,2.6,0c0,2.2,0,4.6,0,6.5C703.4,230.5,703.1,230.8,702.7,230.8z M689.7,218.6c0,4.1,0,9.5,0,17.8h2.8
				c0-5.2,0-10.9,0-16.3c0.7,0,1.4,0,2.1,0c0,3.1,0,5.9,0,8.8c0,1.2-1.1,1.6-1.1,1.6v2.3c2,0,3.7-2,3.7-3.9c0-3.3,0-7.6,0-11
				c-2.5,0-4.5,0-7,0C689.7,218.1,689.7,218.6,689.7,218.6z M776.8,225.9c0-1.8,0-5.4,0-6.7c0-0.5-0.5-1.1-1.2-1.1h-9.5v2.1
				c2.4,0,4.9,0,7.3,0v5.7c-1.7,0-2,0-3.5,0c-0.2,0-0.4-0.2-0.4-0.4c0-1,0-2.5,0-3.8c0-0.3-0.3-0.6-0.8-0.6c-0.6,0-1.5,0-2.2,0v5
				c0,1,0.9,1.8,1.8,1.8c0,0,3.7,0,6.8,0v1.9h-7.5c-0.8,0-2.2,0.7-2.2,2.1c2.6,0,6.8,0,9.6,0v1.9c0,0.3-0.3,0.5-0.6,0.5h-1.1
				c0,0.9,0,1.5,0,2.1h1.7c0.5,0,0.4,0,0.9,0c1.4,0,2-1,2-1.8c0-2.6,0-6.1,0-8.7C777.6,225.9,777.1,225.9,776.8,225.9z M763.3,232.9
				c1-1.1,1.6-2.4,1.7-5c0-2.7,0-5.4,0-8.1c0-0.2-0.3-0.5-0.6-0.5c-1.1,0-2.4,0-3.6,0v-1.3H758c0,0.4,0,0.8,0,1.3
				c-0.3,0-0.7,0-0.9,0v2.1h0.9v6.5c0,2.5,0.8,3.8,1.9,5c-1.2,0.8-2.5,1.4-4.2,1.4c-0.2,0-0.5,0-0.7,0c-2.6,0-5.8,0-8.6,0
				c-2.6,0-5.2-0.5-6.1-1.6c0.9-1.2,1.4-2.2,1.7-4.7c0-2.5,0-4.7,0-7.9c0-0.4-0.4-0.7-0.7-0.7c-1.1,0-2.2,0-3.6,0v-1.3
				c-1.1,0-1.6,0-2.7,0v1.3c-0.3,0-0.5,0-0.9,0v2.1c0.4,0,0.6,0,0.9,0c0,2.2,0,4.5,0,6.5c0.2,2.5,1,3.4,2,4.8
				c-1.4,1-3.1,1.4-5.2,1.5c-2.4,0-4.6,0-7.6,0c0-0.5,0-1.3,0-1.6h7.6v-2.2h-7.6c0-0.5,0-1.1,0-1.6c2.2,0,5,0,5.7,0c0,0,1.8,0,1.9-2
				c0-2.1,0-5.9,0-8.8c-6,0-12.1,0-18.1,0c-0.3,0-0.6,0.3-0.6,0.5c0,0.4,0,7.1,0,10.3c2.5,0,5,0,7.6,0v1.6h-7.6c0,0.7,0,1.5,0,2.2
				h7.6c0,0.5,0,1.1,0,1.6h-8.8c0,0.6,0,1.4,0,2.1c6.6,0,14.9,0,21.3,0c1.7,0,3.9-0.9,5.5-1.8c2,1.5,4.1,1.8,7.7,1.8
				c1.1,0,2.3,0,3.6,0c1.9,0,3.5,0,5,0c3,0,4.9-0.6,6.8-1.7c1.7,1,3.3,1.6,6,1.7v0h4v-2.1h-4C765.9,234.2,764.4,233.9,763.3,232.9z
				 M720.8,226.8h-4.6v-2.2h4.6V226.8z M720.8,222.4h-4.6v-2.2c1.6,0,3.1,0,4.6,0V222.4z M724.3,220.2h4.7v2.2h-4.7V220.2z
				 M724.3,224.6c1.6,0,3.1,0,4.6,0c0,0.9,0,1.6,0,2.2h-4.7C724.3,226.2,724.3,225.3,724.3,224.6z M739.3,228
				c-0.1,1.5-0.3,1.8-0.7,2.8c-0.4-0.9-0.8-1.3-0.9-2.8c0-1.9,0-4.5,0-6.5h1.6V228z M762.4,228c-0.1,1.3-0.4,2-0.7,2.8
				c-0.4-0.7-0.8-1.5-0.8-2.8c0-2,0-4.5,0-6.5h1.6C762.4,223.5,762.4,225.9,762.4,228z"/>
		</g>
	</g>
</g>
<path style="fill:none;stroke:#FF6600;stroke-miterlimit:10;" d="M225.9,317.7c0,0-9.6-7.4-10.3-20.3c-0.7-12.9,7-3.1,7-3.1l6,8.2
	c0,0-1.5-12.2,1.9-11.8c3.5,0.4,6.5,10.8,6.5,10.8s4.6-10.6,9.3-12c4.7-1.4,1.1,16.1-3.9,20c0,0,3.1,1.3,3.3,1.6
	c0,0,12.2-19.3,18.8-20.3c6.5-1,4.5,9.5,4.5,9.5s-2.2,17.5-17.8,21.4c0,0,0.3,10.5-3.1,15.7c-2.6,3.9-3.6,7.4-1.7,12
	c1.9,4.6,3,5.8,0.7,7.2c-2.3,1.5-6.1,3.1-10.9,1.3c-4.7-1.8-2-2.5-1.3-4.4c0.7-1.8,2.2-9.1-1-9.7c-3.1-0.6-14.2-2.4-11-11.6
	C226.2,323.1,225.9,317.7,225.9,317.7z"/>
<path style="fill:none;stroke:#FF6600;stroke-miterlimit:10;" d="M146.5,336.6c-0.5-7.6-1.1-14.8-1-17c0,0-12.8-2.4-15.3-14.1
	c-2.6-11.7,3.8-6.6,11.2-1.6c0,0-1.9-5.2,0.4-4.9c2.3,0.3,7.8,3.8,9.8,6.8c0,0,1.1-5.5,2.4-7.6c1.3-2.1,5.7-7,7-4.9
	c1.3,2.1,0.4,6,0.4,6s4.9-11.2,8.2-9.6c3.3,1.6,2.3,18.6-3.9,23.8c0,0,7.2,10.4,8.8,18.2c1.6,7.7-7,17.3-6.4,20.3
	c0.4,2.1,3.2,7-1.4,8.4c-4.6,1.4-8.1-1.2-8.5-3.3c-0.4-2.1,1.6-7.8-1.1-8.6C154.5,347.7,147,343.8,146.5,336.6z"/>
<path style="fill:none;stroke:#FF6600;stroke-miterlimit:10;" d="M67.8,301.9c0,0,0.1-9.9,3-9.9c2.9,0,3.8,7.2,3.8,7.2
	s0.9-9.8,4.1-9.8c3.2,0,5.9,11.7,1.8,19.7c0,0,3.3,2.3,5.1,5.1c1.8,2.8,5.8,3.4,9.2,2.5c3.4-0.9,5.2,3.4,4.4,7.3
	c-1.3,5.9-6.7,10.2-10.6,11.5c-3.9,1.3-8.8,2.2-9.4,6c-0.6,3.8,4.7,6.3,2,10c-2.7,3.7-9.6,2-11.3-0.4c-1.7-2.4,0.3-5.6-0.1-7.7
	c-0.4-2.1-1.1-3.9-2.8-5.8s-5.2-5.8-6.3-10.9c-1.1-5.1-0.3-10.1-0.3-10.1s-9,2.1-16.5-3.6c-7.6-5.7-8-11.5,8.5-10.8
	c0,0-7.9-7.7,1.6-6.1C63.2,297.7,67.8,301.9,67.8,301.9z"/>
<path style="fill:#FF6600;" d="M63,487.1c0,0-4.2-1.6-5.8-7.3c-1.7-5.7,1.5-9.3,10.4,1.6c0,0,3.4-3.9,6.7-5c3.3-1.1,8.7-2.1,7.1,2.8
	c-1.6,4.9-6,7.9-7.6,8.3c0,0,1.5,0.6,1.8,1.5c0,0,6.1-4.1,8.3-6.1c3.1-2.8,8.5-9.7,11.2-5c2.7,4.6,3.1,20.4-13,19.8
	c0,0,1,4.3-1.1,9.6c-2.1,5.3-4.8,10.4-0.9,14.8c3.9,4.4,8.2,4.1,6.7,8.4c-1.4,4.3-6.1,7.6-8.5,8.5c-2.4,0.9-8,2.8-8.5-4.3
	c-0.5-7-3.2-14.8-8.2-14.8s-11.2-4.4-12.8-7.6c-1.6-3.2-2.7-7.6,0.6-10.3s6.3-6.4,6.7-7.7c0,0-3.7-1.7-5.9-7
	c-2.2-5.2,0.1-16.3,3.1-11.8c3.1,4.4,5.7,11.1,8,12.8C61.1,488.2,61.6,487.3,63,487.1z"/>
<path style="fill:#FF6600;" d="M147.6,487.8c0,0,1.6-6.1,5.3-10.1c3.7-4,8.4-6,7.8-1.6c-0.6,4.5-3.2,13.3-5.8,16.1
	c0,0,1.4-0.2,2,0.1c0,0,1.9-9,7.1-13.8c5.3-4.8,16.3-9.3,15-2.4c-1.2,6.9-9.6,17.2-14.6,19.2c0,0,9.1,7.3,5.1,21.8
	c-4,14.5-2.3,16.4-1,19.4c1.2,3-0.2,6.6-5.9,6.1c-5.7-0.5-7.6-4-6.1-6.1c1.5-2.1,1.3-5.9-0.3-5.5c-1.7,0.4-8.5-0.1-11.3-1.8
	c-2.8-1.8-3.4-4.3-2.6-5.5c0.8-1.2,2.1-1.2,1-8.3c-1-7.1-1.1-12.5,0.7-14.9c0,0-5.5-1.8-10.9-7.3c-5.5-5.5-11.1-20.7,5.9-7.6
	c0,0-1.2-10,2-8.6C144.3,478.3,147.6,487.8,147.6,487.8z"/>
<path style="fill:#FF6600;" d="M230.1,495.1c0,0-5.8-2.1-7-9.3c-1.2-7.2-1.1-23.7,8.5-4.2c0,0-0.6-6.8,1.4-5.8c2,1,4.6,6,5.6,8.5
	c0,0,1.5-3.2,4.5-5.1c2.9-1.9,10.2-7.2,8.4,1.8c0,0,2.9-3.6,5.8-5.2c2.9-1.6,9-5.2,5.6,5.4c-3.4,10.7-12.2,12.6-12.2,12.6
	s2.4,3.1,3,12.6s-6.9,14-6.2,19.4c0.7,5.4,3.2,7.6-0.1,11.1c-3.3,3.5-13.8,3.5-14.3-0.6c-0.5-4.1,5.9-12,1.6-13
	c-4.4-1-8.2-3-10.3-6.5c-2.1-3.5-0.9-6.8,0.4-7.5c1.3-0.6,2.1-2.7,3.1-6.9C228.6,498.3,230.1,495.1,230.1,495.1z"/>
<g>
	<path style="fill:#FF6600;" d="M55.7,399.1c0,0-6.3-0.1-7.6-8c-1.3-7.9-1-16.3,3.3-11.6c4.3,4.7,8.5,11.2,9.8,12.3
		c0,0,0.3-0.5,0.9-0.6c0,0-3.6-2.9-4.8-6.9c-1.2-3.9-3-10.2,2.1-6.2c5.1,4,7,8.1,7,8.1s3.4-3.7,6.6-4.9c3.2-1.3,11.6-4.3,8.9,0.9
		c-2.7,5.2-7.5,7.9-9.5,8.5c0,0,2.7,1.2,3.7,2.3c0,0,7.9-6.4,10-9.1s5.7-6.7,7.3-0.4c1.6,6.2-3,18.5-12.8,18.7c0,0,1.7,7.4-4.9,15.8
		c-6.6,8.4-3.8,17.1-3.4,19.5c0.4,2.4,3,5.5-4.2,7.6c-7.2,2.1-11.9,0.1-12.9-0.4c-1-0.5-2.7-1.4-1.4-3.4c1.3-1.9,11.9-17.2,6.4-18.4
		c-5.5-1.2-9.5-5.8-9.4-10.5C51,407.8,55.2,408,55.7,399.1z"/>
</g>
<g>
	<path style="fill:none;stroke:#FF6600;stroke-miterlimit:10;" d="M148.9,394.7c0,0-2.8-3-4.2-7.5c-1.4-4.5-2.3-10.7,0.6-10.5
		c2.9,0.1,5.8,5.1,5.8,5.1s0.3-6.4,3.2-2.9c2.9,3.5,3.6,9,3.6,9s4.2-4.7,7.8-6.4c3.6-1.7,8.3-4.2,5.2,3.2c0,0,9.2-8.6,12.2-6.8
		c3,1.8-2.1,21.7-13.1,24c0,0,3.7,8.3-0.5,16.2c-4.2,7.8-3.5,13-3.4,13.9c0.1,0.9,1.5,5.4-3.2,9.2c-4.7,3.9-9.6,1.3-10.6,0
		c-1-1.3-0.7-3.1,0.8-4.2c1.5-1.1,3.7-3.7,3.4-6.1c-0.3-2.4-1.3-3.2-2.9-3.3c-1.6-0.1-8.7,0-12.4-2.9c-3.8-2.9-4.4-5.1-4.4-6.7
		c0.1-1.7,1.1-3.1,2.5-2.9c1.3,0.2,3.9-0.7,3.9-3.4C143.2,409.1,142.6,397.5,148.9,394.7z"/>
</g>
<g>
	<defs>
		<path id="SVGID_5_" d="M250.3,387.8c0,0,5.1-1.8,6.4-1c1.3,0.9-1.4,8.2-8.1,9.8c0,0,1.5,1.6,1.9,2.5c0,0,9.4-6.5,11.5-8.2
			c2-1.7,5.4-2.3,5.7,1.2c0.4,3.4-4.9,12.9-15.2,12c0,0,2.4,7.7-1.6,15c-4,7.3,1.1,12.9,2.2,13.9c1.1,1,0.8,2.1-0.6,3.8
			s-5,4.6-7.6,5.7c-2.6,1.1-9.2,3.5-8.7,0c0.4-3.5,2-17.4-1.5-17.7c-3.6-0.3-14.1,1-15.7-12.4c0,0-2.1-7,3.4-4.2c0,0,1.8,1,3.8-1.3
			c1.2-1.9,6.8-8.9,10.8-9.4c0,0-2.3-2.5-3.1-8.2c-0.8-5.7-0.8-18.5,5.7-3.8c0,0,2.4-9.5,6-8.9C249.2,377.2,250.8,384.7,250.3,387.8
			z"/>
	</defs>
	<use xlink:href="#SVGID_5_"  style="overflow:visible;fill:#FF6600;"/>
	<clipPath id="SVGID_6_">
		<use xlink:href="#SVGID_5_"  style="overflow:visible;"/>
	</clipPath>
</g>
<path style="fill:none;stroke:#FF6600;stroke-miterlimit:10;" d="M731.3,318.1c0,0-9.6-7.4-10.3-20.3c-0.7-12.9,7-3.1,7-3.1l6,8.2
	c0,0-1.5-12.2,1.9-11.8s6.5,10.8,6.5,10.8c5.1,1.2,5.2-10.4,9.3-12c4.6-1.7,1.1,16.1-3.9,20c0,0,1.7,0.3,3.3,1.6c0,0,0,0,0.1,0
	c0.7-1,12.4-19.3,18.8-20.3c6.5-1,4.5,9.5,4.5,9.5s-2.2,17.5-17.8,21.4c0,0,0.3,10.5-3.1,15.7c-2.6,3.9-3.6,7.4-1.7,12
	c1.9,4.6,3,5.8,0.7,7.2c-2.3,1.5-6.1,3.1-10.9,1.3c-4.7-1.8-2-2.5-1.3-4.4c0.7-1.8,2.2-9.1-1-9.7c-3.1-0.6-14.2-2.4-11-11.6
	C731.6,323.5,731.3,318.1,731.3,318.1z"/>
<path style="fill:none;stroke:#FF6600;stroke-miterlimit:10;" d="M651.9,337c-0.5-7.6-1.1-14.8-1-17c0,0-12.8-2.4-15.3-14.1
	c-2.6-11.7,3.8-6.6,11.2-1.6c0,0-1.9-5.2,0.4-4.9c2.3,0.3,7.8,3.8,9.8,6.8c0,0,1.1-5.5,2.4-7.6c1.3-2.1,5.7-7,7-4.9
	c1.3,2.1,0.4,6,0.4,6s4.9-11.2,8.2-9.6c3.3,1.6,2.3,18.6-3.9,23.8c0,0,7.2,10.4,8.8,18.2c1.6,7.7-7,17.3-6.4,20.3
	c0.4,2.1,3.2,7-1.4,8.4c-4.6,1.4-8.1-1.2-8.5-3.3c-0.4-2.1,1.6-7.8-1.1-8.6C659.9,348.1,652.4,344.2,651.9,337z"/>
<path style="fill:none;stroke:#FF6600;stroke-miterlimit:10;" d="M573.2,302.3c0,0,0.1-9.9,3-9.9s3.8,7.2,3.8,7.2s0.9-9.8,4.1-9.8
	c3.2,0,5.9,11.7,1.8,19.7c0,0,3.3,2.3,5.1,5.1c1.8,2.8,5.8,3.4,9.2,2.5c3.4-0.9,5.2,3.4,4.4,7.3c-1.3,5.9-6.7,10.2-10.6,11.5
	c-3.9,1.3-8.8,2.2-9.4,6c-0.6,3.8,4.7,6.3,2,10c-2.7,3.7-9.6,2-11.3-0.4c-1.7-2.4,0.3-5.6-0.1-7.7c-0.4-2.1-1.1-3.9-2.8-5.8
	c-1.7-1.9-5.2-5.8-6.3-10.9s-0.3-10.1-0.3-10.1s-9,2.1-16.5-3.6c-7.6-5.7-8-11.5,8.5-10.8c0,0-7.9-7.7,1.6-6.1
	C568.6,298.1,573.2,302.3,573.2,302.3z"/>
<path style="fill:#FF6600;" d="M568.3,487.5c0,0-4.2-1.6-5.8-7.3c-1.7-5.7,1.5-9.3,10.4,1.6c0,0,3.4-3.9,6.7-5
	c3.3-1.1,8.7-2.1,7.1,2.8c-1.6,4.9-6,7.9-7.6,8.3c0,0,1.5,0.6,1.8,1.5c0,0,6.1-4.1,8.3-6.1c3.1-2.8,8.5-9.7,11.2-5
	c2.7,4.6,3.1,20.4-13,19.8c0,0,1,4.3-1.1,9.6c-2.1,5.3-4.8,10.4-0.9,14.8s8.2,4.1,6.7,8.4c-1.4,4.3-6.1,7.6-8.5,8.5s-8,2.8-8.5-4.3
	c-0.5-7-3.2-14.8-8.2-14.8c-4.9,0.1-11.2-4.4-12.8-7.6c-1.6-3.2-2.7-7.6,0.6-10.3c3.3-2.7,6.3-6.4,6.7-7.7c0,0-3.7-1.7-5.9-7
	c-2.2-5.2,0.1-16.3,3.1-11.8c3.1,4.4,5.7,11.1,8,12.8C566.5,488.6,567,487.7,568.3,487.5z"/>
<path style="fill:#FF6600;" d="M653,488.2c0,0,1.6-6.1,5.3-10.1c3.7-4,8.4-6,7.8-1.6c-0.6,4.5-3.2,13.3-5.8,16.1c0,0,1.4-0.2,2,0.1
	c0,0,1.9-9,7.1-13.8c5.3-4.8,16.3-9.3,15-2.4c-1.2,6.9-9.6,17.2-14.6,19.2c0,0,9.1,7.3,5.1,21.8s-2.3,16.4-1,19.4
	c1.2,3-0.2,6.6-5.9,6.1c-5.7-0.5-7.6-4-6.1-6.1c1.5-2.1,1.3-5.9-0.3-5.5c-1.7,0.4-8.5-0.1-11.3-1.8c-2.8-1.8-3.4-4.3-2.6-5.5
	c0.8-1.2,2.1-1.2,1-8.3c-1-7.1-1.1-12.5,0.7-14.9c0,0-5.5-1.8-10.9-7.3c-5.5-5.5-11.1-20.7,5.9-7.6c0,0-1.2-10,2-8.6
	C649.7,478.7,653,488.2,653,488.2z"/>
<path style="fill:#FF6600;" d="M735.4,495.5c0,0-5.8-2.1-7-9.3c-1.2-7.2-1.1-23.7,8.5-4.2c0,0-0.6-6.8,1.4-5.8c2,1,4.6,6,5.6,8.5
	c0,0,1.5-3.2,4.5-5.1c2.9-1.9,10.2-7.2,8.4,1.8c0,0,2.9-3.6,5.8-5.2c2.9-1.6,9-5.2,5.6,5.4c-3.4,10.7-12.2,12.6-12.2,12.6
	s2.4,3.1,3,12.6c0.6,9.5-6.9,14-6.2,19.4c0.7,5.4,3.2,7.6-0.1,11.1c-3.3,3.5-13.8,3.5-14.3-0.6c-0.5-4.1,5.9-12,1.6-13
	c-4.4-1-8.2-3-10.3-6.5c-2.1-3.5-0.9-6.8,0.4-7.4c1.3-0.6,2.1-2.7,3.1-6.9C733.9,498.7,735.4,495.5,735.4,495.5z"/>
<g>
	<path style="fill:#FF6600;" d="M561.1,399.5c0,0-6.3-0.1-7.6-8c-1.3-7.9-1-16.3,3.3-11.6c4.3,4.7,8.5,11.2,9.8,12.3
		c0,0,0.3-0.5,0.9-0.6c0,0-3.6-2.9-4.8-6.9c-1.2-3.9-3-10.2,2.1-6.2c5.1,4,7,8.1,7,8.1s3.4-3.7,6.6-4.9c3.2-1.3,11.6-4.3,8.9,0.9
		c-2.7,5.2-7.5,7.9-9.5,8.5c0,0,2.7,1.2,3.7,2.3c0,0,7.9-6.4,10-9.1s5.7-6.7,7.3-0.4c1.6,6.2-3,18.5-12.8,18.7c0,0,1.7,7.5-4.9,15.8
		c-6.6,8.4-3.8,17.1-3.4,19.5c0.4,2.4,3,5.5-4.2,7.6c-7.2,2.1-11.9,0.1-12.9-0.4c-1-0.5-2.7-1.4-1.4-3.4c1.3-1.9,11.9-17.2,6.4-18.4
		c-5.5-1.2-9.5-5.8-9.4-10.5C556.3,408.1,560.6,408.4,561.1,399.5z"/>
</g>
<g>
	<path style="fill:none;stroke:#FF6600;stroke-miterlimit:10;" d="M654.2,395.1c0,0-2.8-3-4.2-7.5c-1.4-4.5-2.3-10.7,0.6-10.5
		c2.9,0.1,5.8,5.1,5.8,5.1s0.3-6.4,3.2-2.9s3.6,9,3.6,9s4.2-4.7,7.8-6.4c3.6-1.7,8.3-4.2,5.2,3.2c0,0,9.2-8.6,12.2-6.8
		c3,1.8-2.1,21.7-13.1,24c0,0,3.7,8.3-0.5,16.2c-4.2,7.8-3.5,13-3.4,13.9c0.1,0.9,1.5,5.4-3.2,9.2c-4.7,3.9-9.6,1.3-10.6,0
		c-1-1.3-0.7-3.1,0.8-4.2c1.5-1.1,3.7-3.7,3.4-6.1c-0.3-2.4-1.3-3.2-2.9-3.3c-1.6-0.1-8.7,0-12.4-2.9c-3.8-2.9-4.4-5.1-4.4-6.7
		c0.1-1.7,1.1-3.1,2.5-2.9c1.3,0.2,3.9-0.7,3.9-3.4C648.6,409.5,648,397.9,654.2,395.1z"/>
</g>
<g>
	<defs>
		<path id="SVGID_7_" d="M755.7,388.2c0,0,5.1-1.8,6.4-1c1.3,0.9-1.4,8.2-8.1,9.8c0,0,1.5,1.6,1.9,2.5c0,0,9.4-6.5,11.5-8.2
			c2-1.7,5.4-2.3,5.7,1.2c0.4,3.4-4.9,12.9-15.2,12c0,0,2.4,7.7-1.6,15c-4,7.3,1.1,12.9,2.2,13.9c1.1,1,0.8,2.1-0.6,3.8
			c-1.4,1.7-5,4.6-7.6,5.7c-2.6,1.1-9.2,3.5-8.7,0c0.4-3.5,2-17.4-1.5-17.7c-3.6-0.3-14.1,1-15.7-12.4c0,0-2.1-7,3.4-4.2
			c0,0,2.5,0.6,3.8-1.3c1.2-1.9,6.8-8.9,10.8-9.4c0,0-2.3-2.5-3.1-8.2c-0.8-5.7-0.8-18.5,5.7-3.8c0,0,2.4-9.5,6-8.9
			C754.5,377.6,756.2,385.1,755.7,388.2z"/>
	</defs>
	<use xlink:href="#SVGID_7_"  style="overflow:visible;fill:#FF6600;"/>
	<clipPath id="SVGID_8_">
		<use xlink:href="#SVGID_7_"  style="overflow:visible;"/>
	</clipPath>
</g>
<circle style="fill:none;stroke:#D8D8D8;" cx="88.7" cy="186.5" r="4.2"/>
<circle style="fill:none;stroke:#D8D8D8;" cx="209.5" cy="186.5" r="4.2"/>
<g>
	<defs>
		<rect id="SVGID_9_" x="68.9" y="-12.1" width="169" height="200"/>
	</defs>
	<clipPath id="SVGID_10_">
		<use xlink:href="#SVGID_9_"  style="overflow:visible;"/>
	</clipPath>
	<path style="clip-path:url(#SVGID_10_);fill:none;stroke:#D8D8D8;" d="M210.6,170.3c0,90-27.4,163-61.2,163s-61.2-73-61.2-163
		c0-90,27.4-163,61.2-163C181.4,7.2,210.6,80.2,210.6,170.3z"/>
</g>
<circle style="fill:none;stroke:#D8D8D8;" cx="599" cy="186.5" r="4.2"/>
<circle style="fill:none;stroke:#D8D8D8;" cx="719.7" cy="186.5" r="4.2"/>
<g>
	<defs>
		<rect id="SVGID_11_" x="579.2" y="-12.1" width="169" height="200"/>
	</defs>
	<clipPath id="SVGID_12_">
		<use xlink:href="#SVGID_11_"  style="overflow:visible;"/>
	</clipPath>
	<path style="clip-path:url(#SVGID_12_);fill:none;stroke:#D8D8D8;" d="M720.9,170.3c0,90-27.4,163-61.2,163
		c-33.8,0-61.2-73-61.2-163c0-90,27.4-163,61.2-163C691.7,7.2,720.9,80.2,720.9,170.3z"/>
</g>
<rect x="392.1" y="525.8" style="fill:#FFFFFF;" width="35.6" height="35.6"/>
<g>
	<rect x="417.3" y="533.6" width="1.3" height="1.3"/>
	<rect x="418.6" y="534.8" width="1.2" height="1.2"/>
	<rect x="418.6" y="537.3" width="1.2" height="1.3"/>
	<rect x="412.3" y="533.6" width="1.3" height="1.3"/>
	<rect x="418.6" y="542.3" width="1.2" height="1.3"/>
	<rect x="418.6" y="548.5" width="1.2" height="1.3"/>
	<rect x="418.6" y="538.6" width="1.2" height="1.2"/>
	<rect x="418.6" y="543.5" width="1.2" height="1.3"/>
	<rect x="409.8" y="533.6" width="1.3" height="1.3"/>
	<rect x="399.8" y="543.5" width="1.2" height="1.3"/>
	<rect x="399.8" y="538.6" width="1.2" height="1.2"/>
	<rect x="399.8" y="547.3" width="1.2" height="1.3"/>
	<rect x="404.8" y="533.6" width="1.2" height="1.3"/>
	<rect x="399.8" y="534.8" width="1.2" height="1.2"/>
	<rect x="401.1" y="533.6" width="1.3" height="1.3"/>
	<rect x="401.1" y="537.3" width="1.3" height="1.3"/>
	<rect x="401.1" y="534.8" width="1.3" height="1.2"/>
	<rect x="401.1" y="538.6" width="1.3" height="1.2"/>
	<rect x="401.1" y="542.3" width="1.3" height="1.3"/>
	<rect x="401.1" y="541" width="1.3" height="1.3"/>
	<rect x="401.1" y="539.8" width="1.3" height="1.2"/>
	<rect x="406.1" y="534.8" width="1.3" height="1.2"/>
	<rect x="412.3" y="534.8" width="1.3" height="1.2"/>
	<rect x="414.8" y="534.8" width="1.3" height="1.2"/>
	<rect x="408.6" y="534.8" width="1.3" height="1.2"/>
	<rect x="409.8" y="534.8" width="1.3" height="1.2"/>
	<rect x="409.8" y="552.3" width="1.3" height="1.3"/>
	<rect x="412.3" y="552.3" width="1.3" height="1.3"/>
	<rect x="407.3" y="552.3" width="1.2" height="1.3"/>
	<rect x="414.8" y="552.3" width="1.3" height="1.3"/>
	<rect x="406.1" y="552.3" width="1.3" height="1.3"/>
	<rect x="401.1" y="548.5" width="1.3" height="1.3"/>
	<rect x="401.1" y="547.3" width="1.3" height="1.3"/>
	<rect x="401.1" y="546" width="1.3" height="1.2"/>
	<rect x="401.1" y="552.3" width="1.3" height="1.3"/>
	<rect x="401.1" y="551" width="1.3" height="1.2"/>
	<rect x="406.1" y="554.8" width="1.3" height="1.3"/>
	<rect x="398.6" y="534.8" width="1.3" height="1.2"/>
	<rect x="398.6" y="543.5" width="1.3" height="1.3"/>
	<rect x="398.6" y="542.3" width="1.3" height="1.3"/>
	<rect x="398.6" y="532.3" width="1.3" height="1.3"/>
	<rect x="398.6" y="539.8" width="1.3" height="1.2"/>
	<rect x="398.6" y="544.8" width="1.3" height="1.3"/>
	<rect x="408.6" y="532.3" width="1.3" height="1.3"/>
	<rect x="406.1" y="532.3" width="1.3" height="1.3"/>
	<rect x="409.8" y="532.3" width="1.3" height="1.3"/>
	<rect x="401.1" y="532.3" width="1.3" height="1.3"/>
	<rect x="399.8" y="551" width="1.2" height="1.2"/>
	<rect x="398.6" y="546" width="1.3" height="1.2"/>
	<rect x="409.8" y="554.8" width="1.3" height="1.3"/>
	<rect x="412.3" y="554.8" width="1.3" height="1.3"/>
	<rect x="407.3" y="554.8" width="1.2" height="1.3"/>
	<rect x="401.1" y="554.8" width="1.3" height="1.3"/>
	<rect x="398.6" y="551" width="1.3" height="1.2"/>
	<rect x="398.6" y="554.8" width="1.3" height="1.3"/>
	<rect x="398.6" y="553.5" width="1.3" height="1.3"/>
	<rect x="417.3" y="534.8" width="1.3" height="1.2"/>
	<rect x="416.1" y="553.5" width="1.2" height="1.3"/>
	<rect x="414.8" y="553.5" width="1.3" height="1.3"/>
	<rect x="412.3" y="553.5" width="1.3" height="1.3"/>
	<rect x="409.8" y="553.5" width="1.3" height="1.3"/>
	<rect x="419.9" y="553.5" width="1.3" height="1.3"/>
	<rect x="417.3" y="553.5" width="1.3" height="1.3"/>
	<rect x="419.9" y="552.3" width="1.3" height="1.3"/>
	<rect x="418.6" y="553.5" width="1.2" height="1.3"/>
	<rect x="419.9" y="551" width="1.3" height="1.2"/>
	<rect x="401.1" y="553.5" width="1.3" height="1.3"/>
	<rect x="407.3" y="553.5" width="1.2" height="1.3"/>
	<rect x="408.6" y="553.5" width="1.3" height="1.3"/>
	<rect x="404.8" y="553.5" width="1.2" height="1.3"/>
	<rect x="403.6" y="553.5" width="1.3" height="1.3"/>
	<rect x="419.9" y="547.3" width="1.3" height="1.3"/>
	<rect x="419.9" y="537.3" width="1.3" height="1.3"/>
	<rect x="419.9" y="534.8" width="1.3" height="1.2"/>
	<rect x="419.9" y="532.3" width="1.3" height="1.3"/>
	<rect x="413.6" y="532.3" width="1.2" height="1.3"/>
	<rect x="414.8" y="532.3" width="1.3" height="1.3"/>
	<rect x="417.3" y="532.3" width="1.3" height="1.3"/>
	<rect x="419.9" y="544.8" width="1.3" height="1.3"/>
	<rect x="419.9" y="548.5" width="1.3" height="1.3"/>
	<rect x="419.9" y="549.8" width="1.3" height="1.3"/>
	<rect x="419.9" y="539.8" width="1.3" height="1.2"/>
	<rect x="414.8" y="541" width="1.3" height="1.3"/>
	<rect x="404.8" y="541" width="1.2" height="1.3"/>
	<rect x="411.1" y="538.6" width="1.2" height="1.2"/>
	<rect x="413.6" y="542.3" width="1.2" height="1.3"/>
	<rect x="413.6" y="539.8" width="1.2" height="1.2"/>
	<rect x="407.3" y="538.6" width="1.2" height="1.2"/>
	<rect x="414.8" y="543.5" width="1.3" height="1.3"/>
	<rect x="414.8" y="546" width="1.3" height="1.2"/>
	<rect x="414.8" y="542.3" width="1.3" height="1.3"/>
	<rect x="414.8" y="537.3" width="1.3" height="1.3"/>
	<rect x="414.8" y="539.8" width="1.3" height="1.2"/>
	<rect x="404.8" y="547.3" width="1.2" height="1.3"/>
	<rect x="413.6" y="537.3" width="1.2" height="1.3"/>
	<rect x="414.8" y="548.5" width="1.3" height="1.3"/>
	<rect x="407.3" y="548.5" width="1.2" height="1.3"/>
	<rect x="413.6" y="548.5" width="1.2" height="1.3"/>
	<rect x="412.3" y="548.5" width="1.3" height="1.3"/>
	<rect x="407.3" y="541" width="1.2" height="1.3"/>
	<rect x="407.3" y="542.3" width="1.2" height="1.3"/>
	<rect x="408.6" y="541" width="1.3" height="1.3"/>
	<rect x="409.8" y="541" width="1.3" height="1.3"/>
	<rect x="408.6" y="546" width="1.3" height="1.2"/>
	<rect x="407.3" y="544.8" width="1.2" height="1.3"/>
	<rect x="411.1" y="541" width="1.2" height="1.3"/>
	<rect x="407.3" y="546" width="1.2" height="1.2"/>
	<rect x="407.3" y="543.5" width="1.2" height="1.3"/>
	<rect x="408.6" y="543.5" width="1.3" height="1.3"/>
	<rect x="409.8" y="543.5" width="1.3" height="1.3"/>
	<rect x="411.1" y="543.5" width="1.2" height="1.3"/>
	<rect x="409.8" y="544.8" width="1.3" height="1.3"/>
	<rect x="406.1" y="544.8" width="1.3" height="1.3"/>
	<rect x="406.1" y="541" width="1.3" height="1.3"/>
	<rect x="406.1" y="543.5" width="1.3" height="1.3"/>
	<rect x="406.1" y="547.3" width="1.3" height="1.3"/>
	<rect x="409.8" y="547.3" width="1.3" height="1.3"/>
	<rect x="412.3" y="546" width="1.3" height="1.2"/>
	<rect x="412.3" y="543.5" width="1.3" height="1.3"/>
	<rect x="407.3" y="539.8" width="1.2" height="1.2"/>
	<rect x="412.3" y="544.8" width="1.3" height="1.3"/>
	<rect x="411.1" y="539.8" width="1.2" height="1.2"/>
	<rect x="411.1" y="547.3" width="1.2" height="1.3"/>
	<rect x="402.3" y="547.3" width="1.2" height="1.3"/>
	<rect x="406.1" y="551" width="1.3" height="1.2"/>
	<rect x="403.6" y="551" width="1.3" height="1.2"/>
	<rect x="404.8" y="536.1" width="1.2" height="1.3"/>
	<rect x="406.1" y="536.1" width="1.3" height="1.3"/>
	<rect x="402.3" y="541" width="1.2" height="1.3"/>
	<rect x="402.3" y="538.6" width="1.2" height="1.2"/>
	<rect x="403.6" y="536.1" width="1.3" height="1.3"/>
	<rect x="417.3" y="546" width="1.3" height="1.2"/>
	<rect x="417.3" y="547.3" width="1.3" height="1.3"/>
	<rect x="417.3" y="548.5" width="1.3" height="1.3"/>
	<rect x="417.3" y="541" width="1.3" height="1.3"/>
	<rect x="417.3" y="538.6" width="1.3" height="1.2"/>
	<rect x="409.8" y="551" width="1.3" height="1.2"/>
	<rect x="408.6" y="551" width="1.3" height="1.2"/>
	<rect x="417.3" y="551" width="1.3" height="1.2"/>
	<rect x="414.8" y="551" width="1.3" height="1.2"/>
	<rect x="403.6" y="544.8" width="1.3" height="1.3"/>
	<rect x="403.6" y="549.8" width="1.3" height="1.3"/>
	<rect x="403.6" y="543.5" width="1.3" height="1.3"/>
	<rect x="409.8" y="537.3" width="1.3" height="1.3"/>
	<rect x="406.1" y="537.3" width="1.3" height="1.3"/>
	<rect x="403.6" y="541" width="1.3" height="1.3"/>
	<rect x="403.6" y="537.3" width="1.3" height="1.3"/>
	<rect x="416.1" y="537.3" width="1.2" height="1.3"/>
	<rect x="409.8" y="549.8" width="1.3" height="1.3"/>
	<rect x="413.6" y="536.1" width="1.2" height="1.3"/>
	<rect x="412.3" y="536.1" width="1.3" height="1.3"/>
	<rect x="414.8" y="549.8" width="1.3" height="1.3"/>
	<rect x="416.1" y="548.5" width="1.2" height="1.3"/>
	<rect x="416.1" y="544.8" width="1.2" height="1.3"/>
	<rect x="421.1" y="542.3" width="1.2" height="1.3"/>
	<rect x="394.8" y="542.3" width="1.2" height="1.3"/>
	<rect x="394.8" y="551" width="1.2" height="1.2"/>
	<rect x="394.8" y="547.3" width="1.2" height="1.3"/>
	<rect x="394.8" y="538.6" width="1.2" height="1.2"/>
	<rect x="394.8" y="534.8" width="1.2" height="1.2"/>
	<rect x="394.8" y="537.3" width="1.2" height="1.3"/>
	<rect x="407.3" y="558.5" width="1.2" height="1.3"/>
	<rect x="404.8" y="558.5" width="1.2" height="1.3"/>
	<rect x="413.6" y="558.5" width="1.2" height="1.3"/>
	<rect x="411.1" y="558.5" width="1.2" height="1.3"/>
	<rect x="409.8" y="558.5" width="1.3" height="1.3"/>
	<rect x="398.6" y="558.5" width="1.3" height="1.3"/>
	<rect x="394.8" y="558.5" width="1.2" height="1.3"/>
	<rect x="414.8" y="558.5" width="1.3" height="1.3"/>
	<rect x="399.8" y="558.5" width="1.2" height="1.3"/>
	<rect x="396.1" y="558.5" width="1.3" height="1.3"/>
	<rect x="401.1" y="558.5" width="1.3" height="1.3"/>
	<rect x="397.3" y="558.5" width="1.2" height="1.3"/>
	<rect x="423.6" y="541" width="1.2" height="1.3"/>
	<rect x="423.6" y="534.8" width="1.2" height="1.2"/>
	<rect x="423.6" y="552.3" width="1.2" height="1.3"/>
	<rect x="423.6" y="543.5" width="1.2" height="1.3"/>
	<rect x="423.6" y="553.5" width="1.2" height="1.3"/>
	<rect x="423.6" y="544.8" width="1.2" height="1.3"/>
	<rect x="423.6" y="548.5" width="1.2" height="1.3"/>
	<rect x="404.8" y="528.6" width="1.2" height="1.3"/>
	<rect x="411.1" y="528.6" width="1.2" height="1.3"/>
	<rect x="409.8" y="528.6" width="1.3" height="1.3"/>
	<rect x="408.6" y="528.6" width="1.3" height="1.3"/>
	<rect x="406.1" y="528.6" width="1.3" height="1.3"/>
	<rect x="401.1" y="528.6" width="1.3" height="1.3"/>
	<rect x="417.3" y="528.6" width="1.3" height="1.3"/>
	<rect x="413.6" y="528.6" width="1.2" height="1.3"/>
	<rect x="412.3" y="528.6" width="1.3" height="1.3"/>
	<rect x="396.1" y="527.3" width="1.3" height="1.3"/>
	<rect x="394.8" y="527.3" width="1.2" height="1.3"/>
	<rect x="397.3" y="527.3" width="1.2" height="1.3"/>
	<rect x="393.6" y="527.3" width="1.3" height="1.3"/>
	<rect x="398.6" y="527.3" width="1.3" height="1.3"/>
	<rect x="393.6" y="532.3" width="1.3" height="1.3"/>
	<rect x="393.6" y="528.6" width="1.3" height="1.3"/>
	<rect x="399.8" y="527.3" width="1.2" height="1.3"/>
	<rect x="393.6" y="529.8" width="1.3" height="1.2"/>
	<rect x="408.6" y="527.3" width="1.3" height="1.3"/>
	<rect x="409.8" y="527.3" width="1.3" height="1.3"/>
	<rect x="393.6" y="533.6" width="1.3" height="1.3"/>
	<rect x="406.1" y="527.3" width="1.3" height="1.3"/>
	<rect x="401.1" y="527.3" width="1.3" height="1.3"/>
	<rect x="404.8" y="527.3" width="1.2" height="1.3"/>
	<rect x="393.6" y="552.3" width="1.3" height="1.3"/>
	<rect x="393.6" y="551" width="1.3" height="1.2"/>
	<rect x="393.6" y="547.3" width="1.3" height="1.3"/>
	<rect x="393.6" y="553.5" width="1.3" height="1.3"/>
	<rect x="393.6" y="554.8" width="1.3" height="1.3"/>
	<rect x="393.6" y="558.5" width="1.3" height="1.3"/>
	<rect x="393.6" y="534.8" width="1.3" height="1.2"/>
	<rect x="393.6" y="556" width="1.3" height="1.2"/>
	<rect x="393.6" y="557.3" width="1.3" height="1.3"/>
	<rect x="393.6" y="539.8" width="1.3" height="1.2"/>
	<rect x="393.6" y="538.6" width="1.3" height="1.2"/>
	<rect x="393.6" y="544.8" width="1.3" height="1.3"/>
	<rect x="393.6" y="542.3" width="1.3" height="1.3"/>
	<rect x="393.6" y="531.1" width="1.3" height="1.3"/>
	<rect x="424.9" y="551" width="1.3" height="1.2"/>
	<rect x="424.9" y="548.5" width="1.3" height="1.3"/>
	<rect x="424.9" y="553.5" width="1.3" height="1.3"/>
	<rect x="424.9" y="542.3" width="1.3" height="1.3"/>
	<rect x="424.9" y="544.8" width="1.3" height="1.3"/>
	<rect x="424.9" y="554.8" width="1.3" height="1.3"/>
	<rect x="424.9" y="546" width="1.3" height="1.2"/>
	<rect x="424.9" y="552.3" width="1.3" height="1.3"/>
	<rect x="413.6" y="527.3" width="1.2" height="1.3"/>
	<rect x="419.9" y="558.5" width="1.3" height="1.3"/>
	<rect x="417.3" y="558.5" width="1.3" height="1.3"/>
	<rect x="422.4" y="558.5" width="1.3" height="1.3"/>
	<rect x="424.9" y="558.5" width="1.3" height="1.3"/>
	<rect x="421.1" y="527.3" width="1.2" height="1.3"/>
	<rect x="424.9" y="541" width="1.3" height="1.3"/>
	<rect x="423.6" y="527.3" width="1.2" height="1.3"/>
	<rect x="424.9" y="527.3" width="1.3" height="1.3"/>
	<rect x="419.9" y="527.3" width="1.3" height="1.3"/>
	<rect x="417.3" y="527.3" width="1.3" height="1.3"/>
	<rect x="418.6" y="527.3" width="1.2" height="1.3"/>
	<rect x="424.9" y="528.6" width="1.3" height="1.3"/>
	<rect x="422.4" y="527.3" width="1.3" height="1.3"/>
	<rect x="424.9" y="537.3" width="1.3" height="1.3"/>
	<rect x="424.9" y="529.8" width="1.3" height="1.2"/>
	<rect x="424.9" y="539.8" width="1.3" height="1.2"/>
	<rect x="424.9" y="531.1" width="1.3" height="1.3"/>
	<rect x="424.9" y="532.3" width="1.3" height="1.3"/>
	<rect x="424.9" y="534.8" width="1.3" height="1.2"/>
	<rect x="424.9" y="533.6" width="1.3" height="1.3"/>
	<rect x="397.3" y="551" width="1.2" height="1.2"/>
	<rect x="397.3" y="548.5" width="1.2" height="1.3"/>
	<rect x="397.3" y="554.8" width="1.2" height="1.3"/>
	<rect x="397.3" y="556" width="1.2" height="1.2"/>
	<rect x="397.3" y="553.5" width="1.2" height="1.3"/>
	<rect x="398.6" y="556" width="1.3" height="1.2"/>
	<rect x="397.3" y="534.8" width="1.2" height="1.2"/>
	<rect x="397.3" y="537.3" width="1.2" height="1.3"/>
	<rect x="397.3" y="532.3" width="1.2" height="1.3"/>
	<rect x="418.6" y="556" width="1.2" height="1.2"/>
	<rect x="413.6" y="556" width="1.2" height="1.2"/>
	<rect x="401.1" y="556" width="1.3" height="1.2"/>
	<rect x="422.4" y="556" width="1.3" height="1.2"/>
	<rect x="421.1" y="556" width="1.2" height="1.2"/>
	<rect x="422.4" y="553.5" width="1.3" height="1.3"/>
	<rect x="406.1" y="556" width="1.3" height="1.2"/>
	<rect x="403.6" y="556" width="1.3" height="1.2"/>
	<rect x="409.8" y="556" width="1.3" height="1.2"/>
	<rect x="407.3" y="556" width="1.2" height="1.2"/>
	<rect x="421.1" y="544.8" width="1.2" height="1.3"/>
	<rect x="421.1" y="543.5" width="1.2" height="1.3"/>
	<rect x="421.1" y="539.8" width="1.2" height="1.2"/>
	<rect x="421.1" y="541" width="1.2" height="1.3"/>
	<rect x="421.1" y="534.8" width="1.2" height="1.2"/>
	<rect x="418.6" y="554.8" width="1.2" height="1.3"/>
	<rect x="404.8" y="531.1" width="1.2" height="1.3"/>
	<rect x="406.1" y="531.1" width="1.3" height="1.3"/>
	<rect x="397.3" y="531.1" width="1.2" height="1.3"/>
	<rect x="421.1" y="532.3" width="1.2" height="1.3"/>
	<rect x="398.6" y="531.1" width="1.3" height="1.3"/>
	<rect x="401.1" y="531.1" width="1.3" height="1.3"/>
	<rect x="403.6" y="531.1" width="1.3" height="1.3"/>
	<rect x="419.9" y="531.1" width="1.3" height="1.3"/>
	<rect x="417.3" y="531.1" width="1.3" height="1.3"/>
	<rect x="423.6" y="556" width="1.2" height="1.2"/>
	<rect x="413.6" y="531.1" width="1.2" height="1.3"/>
	<rect x="412.3" y="531.1" width="1.3" height="1.3"/>
	<rect x="421.1" y="531.1" width="1.2" height="1.3"/>
	<rect x="396.1" y="551" width="1.3" height="1.2"/>
	<rect x="396.1" y="553.5" width="1.3" height="1.3"/>
	<rect x="396.1" y="548.5" width="1.3" height="1.3"/>
	<rect x="396.1" y="547.3" width="1.3" height="1.3"/>
	<rect x="396.1" y="554.8" width="1.3" height="1.3"/>
	<rect x="396.1" y="556" width="1.3" height="1.2"/>
	<rect x="396.1" y="538.6" width="1.3" height="1.2"/>
	<rect x="396.1" y="539.8" width="1.3" height="1.2"/>
	<rect x="396.1" y="542.3" width="1.3" height="1.3"/>
	<rect x="416.1" y="557.3" width="1.2" height="1.3"/>
	<rect x="414.8" y="557.3" width="1.3" height="1.3"/>
	<rect x="423.6" y="557.3" width="1.2" height="1.3"/>
	<rect x="422.4" y="557.3" width="1.3" height="1.3"/>
	<rect x="421.1" y="557.3" width="1.2" height="1.3"/>
	<rect x="401.1" y="557.3" width="1.3" height="1.3"/>
	<rect x="411.1" y="557.3" width="1.2" height="1.3"/>
	<rect x="404.8" y="557.3" width="1.2" height="1.3"/>
	<rect x="396.1" y="534.8" width="1.3" height="1.2"/>
	<rect x="409.8" y="557.3" width="1.3" height="1.3"/>
	<rect x="407.3" y="557.3" width="1.2" height="1.3"/>
	<rect x="422.4" y="534.8" width="1.3" height="1.2"/>
	<rect x="422.4" y="537.3" width="1.3" height="1.3"/>
	<rect x="422.4" y="532.3" width="1.3" height="1.3"/>
	<rect x="421.1" y="529.8" width="1.2" height="1.2"/>
	<rect x="419.9" y="529.8" width="1.3" height="1.2"/>
	<rect x="422.4" y="538.6" width="1.3" height="1.2"/>
	<rect x="422.4" y="529.8" width="1.3" height="1.2"/>
	<rect x="422.4" y="531.1" width="1.3" height="1.3"/>
	<rect x="422.4" y="544.8" width="1.3" height="1.3"/>
	<rect x="422.4" y="546" width="1.3" height="1.2"/>
	<rect x="422.4" y="541" width="1.3" height="1.3"/>
	<rect x="422.4" y="547.3" width="1.3" height="1.3"/>
	<rect x="401.1" y="529.8" width="1.3" height="1.2"/>
	<rect x="403.6" y="529.8" width="1.3" height="1.2"/>
	<rect x="398.6" y="529.8" width="1.3" height="1.2"/>
	<rect x="417.3" y="529.8" width="1.3" height="1.2"/>
	<rect x="396.1" y="531.1" width="1.3" height="1.3"/>
	<rect x="396.1" y="529.8" width="1.3" height="1.2"/>
	<rect x="397.3" y="529.8" width="1.2" height="1.2"/>
	<rect x="396.1" y="532.3" width="1.3" height="1.3"/>
	<rect x="413.6" y="529.8" width="1.2" height="1.2"/>
	<rect x="406.1" y="529.8" width="1.3" height="1.2"/>
	<rect x="411.1" y="529.8" width="1.2" height="1.2"/>
	<rect x="409.8" y="529.8" width="1.3" height="1.2"/>
</g>
</svg>
