<?xml version="1.0" encoding="utf-8"?>
<!-- Generator: Adobe Illustrator 17.1.0, SVG Export Plug-In . SVG Version: 6.00 Build 0)  -->
<!DOCTYPE svg PUBLIC "-//W3C//DTD SVG 1.1//EN" "http://www.w3.org/Graphics/SVG/1.1/DTD/svg11.dtd">
<svg version="1.1" id="图层_1" xmlns="http://www.w3.org/2000/svg" xmlns:xlink="http://www.w3.org/1999/xlink" x="0px" y="0px"
	 viewBox="0 0 880.8 644.5" style="enable-background:new 0 0 880.8 644.5;" xml:space="preserve">
<rect x="8" y="9.2" style="fill:#FFFFFF;stroke:#D8D8D8;stroke-miterlimit:10;" width="866.8" height="626.9"/>
<g>
	<g id="形状_2_copy_3_副本_4_6_">
		<g>
			<path style="fill-rule:evenodd;clip-rule:evenodd;fill:#CCCCCC;" d="M801.2,604.2c-1,2-1.9,3.7-3,5.8h1.4
				c0.3-0.5,0.4-0.8,0.7-1.4c0.7,0,1.3,0,2.1,0c-0.2-0.4-0.3-0.8-0.4-1.1h-1.1c0.3-0.7,0.5-1,1-1.9c0.5,1.5,1.1,3,1.6,4.4h1.3
				c-0.7-2-1.4-3.8-2.1-5.8H801.2z M805.1,610h1.2l0.3-5.8l-1.2,0L805.1,610z M807.1,610h1.3l0.2-4.3h-1.3L807.1,610z M807.4,604.2
				l0,0.9c0,0,1,0,1.2,0l0-0.9C807.5,604.2,807.5,604.2,807.4,604.2z M815.3,605.7c-0.2-0.1-0.5-0.1-0.7-0.1c-0.1,0-0.3,0-0.4,0
				c-0.1,0-0.3,0.1-0.4,0.1c-0.1,0-0.2,0.1-0.3,0.2c-0.1,0.1-0.2,0.1-0.2,0.2c-0.1,0.1-0.1,0.1-0.2,0.2c-0.1-0.1-0.1-0.2-0.2-0.3
				c0-0.1-0.1-0.1-0.2-0.2c-0.1-0.1-0.2-0.1-0.3-0.1c-0.1,0-0.2-0.1-0.3-0.1c-0.1,0-0.2,0-0.4,0c-0.2,0-0.3,0-0.5,0.1
				c-0.2,0-0.3,0.1-0.4,0.2c-0.1,0.1-0.2,0.1-0.3,0.2c-0.1,0.1-0.2,0.2-0.3,0.3l0-0.7h-1.2l-0.2,4.3c0,0,1,0,1.2,0
				c0-0.4,0-0.9,0-1.5c0-0.6,0.1-1,0.2-1.3c0.1-0.2,0.2-0.4,0.3-0.5c0.2-0.1,0.3-0.2,0.5-0.2c0.1,0,0.2,0,0.3,0.1
				c0.1,0,0.2,0.1,0.2,0.2c0.1,0.1,0.1,0.2,0.1,0.2c0,0.1,0,0.2,0,0.3c0,0.2,0,0.7-0.1,1.4c0,0.7-0.1,1.1-0.1,1.3c0.3,0,1,0,1.2,0
				l0-1.2c0-0.4,0-0.8,0.1-1c0-0.3,0.1-0.5,0.1-0.6c0-0.1,0.1-0.3,0.2-0.4c0.1-0.1,0.2-0.2,0.3-0.2c0.1,0,0.2-0.1,0.4-0.1
				c0.1,0,0.2,0,0.3,0.1c0.1,0,0.2,0.1,0.2,0.2c0.1,0.1,0.1,0.3,0.1,0.5c0,0.2,0,0.4,0,0.6l-0.1,1c0,0.4,0,0.8-0.1,1.1
				c0.3,0,1,0,1.2,0c0-0.3,0-0.8,0-1.4c0-0.6,0.1-1,0.1-1.3c0-0.3,0-0.5,0-0.6c0-0.3-0.1-0.5-0.2-0.6
				C815.7,605.9,815.6,605.8,815.3,605.7z M820,605.7c-0.3-0.1-0.6-0.1-0.9-0.1c-0.3,0-0.6,0-0.9,0.1c-0.3,0-1,0.2-1,0.2l-0.1,0.8
				c0,0,1.2-0.4,1.7-0.4c0.1,0,0.3,0,0.4,0c0.1,0,0.2,0.1,0.3,0.2c0.1,0.1,0.1,0.2,0.1,0.3c0,0.1,0,0.1,0,0.2c0,0.1-0.1,0.1-0.1,0.2
				c-0.1,0-0.1,0.1-0.2,0.1c-0.1,0-0.2,0.1-0.3,0.1c-0.1,0-0.2,0.1-0.3,0.1c-0.4,0.1-0.7,0.2-1,0.3c-0.2,0.1-0.4,0.2-0.6,0.3
				c-0.1,0.1-0.2,0.2-0.3,0.3c-0.1,0.1-0.1,0.2-0.2,0.3c0,0.1-0.1,0.2-0.1,0.4c0,0.2,0.1,0.4,0.2,0.6c0.1,0.2,0.3,0.4,0.5,0.5
				c0.2,0.1,0.5,0.1,0.9,0.1c0.1,0,0.2,0,0.3,0c0.1,0,0.3,0,0.5-0.1c0.1-0.3,0.2-0.6,0.2-0.7c-0.2,0.1-0.3,0.1-0.4,0.1
				c-0.1,0-0.2,0-0.3,0c-0.1,0-0.3,0-0.4-0.1c-0.1,0-0.2-0.1-0.3-0.2c-0.1-0.1-0.1-0.2-0.1-0.3c0-0.1,0-0.1,0-0.2
				c0-0.1,0.1-0.1,0.1-0.2c0.1-0.1,0.1-0.1,0.2-0.2c0.1,0,0.2-0.1,0.3-0.1c0.1,0,0.3-0.1,0.4-0.1c0.2,0,0.3-0.1,0.4-0.1
				c0.1,0,0.1-0.1,0.2-0.1c0.1,0,0.1-0.1,0.3-0.1l-0.1,2.2h1.2c0,0,0-1.4,0.1-2c0-0.7,0.1-1.1,0.1-1.2c0-0.3-0.1-0.5-0.2-0.7
				C820.5,605.9,820.3,605.8,820,605.7z M827.7,605.7c-0.2-0.1-0.5-0.1-0.7-0.1c-0.1,0-0.3,0-0.4,0c-0.1,0-0.3,0.1-0.4,0.1
				c-0.1,0-0.2,0.1-0.3,0.2c-0.1,0.1-0.2,0.1-0.2,0.2c-0.1,0.1-0.1,0.1-0.2,0.2c-0.1-0.1-0.1-0.2-0.2-0.3c0-0.1-0.1-0.1-0.2-0.2
				c-0.1-0.1-0.2-0.1-0.3-0.1c-0.1,0-0.2-0.1-0.3-0.1c-0.1,0-0.2,0-0.4,0c-0.2,0-0.3,0-0.5,0.1c-0.2,0-0.3,0.1-0.4,0.2
				c-0.1,0.1-0.2,0.1-0.3,0.2c-0.1,0.1-0.2,0.2-0.3,0.3l0-0.7h-1.2l-0.2,4.3h1.2c0,0,0-0.9,0-1.5c0-0.6,0.1-1,0.2-1.3
				c0.1-0.2,0.2-0.4,0.3-0.5c0.2-0.1,0.3-0.2,0.5-0.2c0.1,0,0.2,0,0.3,0.1c0.1,0,0.2,0.1,0.2,0.2c0.1,0.1,0.1,0.2,0.1,0.2
				c0,0.1,0,0.2,0,0.3c0,0.2,0,0.7-0.1,1.4c0,0.7-0.1,1.1-0.1,1.3c0.3,0,1,0,1.2,0l0-1.2c0-0.4,0-0.8,0.1-1c0-0.3,0.1-0.5,0.1-0.6
				c0-0.1,0.1-0.3,0.2-0.4c0.1-0.1,0.2-0.2,0.3-0.2c0.1,0,0.2-0.1,0.4-0.1c0.1,0,0.2,0,0.3,0.1c0.1,0,0.2,0.1,0.2,0.2
				c0.1,0.1,0.1,0.3,0.1,0.5c0,0.2,0,0.4,0,0.6l-0.1,1c0,0.4,0,0.8-0.1,1.1c0.3,0,1,0,1.2,0c0-0.3,0-0.8,0-1.4c0-0.6,0.1-1,0.1-1.3
				c0-0.3,0-0.5,0-0.6c0-0.3-0.1-0.5-0.2-0.6C828.1,605.9,827.9,605.8,827.7,605.7z M832.3,605.7c-0.3-0.1-0.6-0.1-0.9-0.1
				c-0.3,0-0.6,0-0.9,0.1c-0.3,0-1,0.2-1,0.2l-0.1,0.8c0,0,1.2-0.4,1.7-0.4c0.1,0,0.3,0,0.4,0c0.1,0,0.2,0.1,0.3,0.2
				c0.1,0.1,0.1,0.2,0.1,0.3c0,0.1,0,0.1,0,0.2c0,0.1-0.1,0.1-0.1,0.2c-0.1,0-0.1,0.1-0.2,0.1c-0.1,0-0.2,0.1-0.3,0.1
				c-0.1,0-0.2,0.1-0.3,0.1c-0.4,0.1-0.7,0.2-1,0.3c-0.2,0.1-0.4,0.2-0.6,0.3c-0.1,0.1-0.2,0.2-0.3,0.3c-0.1,0.1-0.1,0.2-0.2,0.3
				c0,0.1-0.1,0.2-0.1,0.4c0,0.2,0.1,0.4,0.2,0.6c0.1,0.2,0.3,0.4,0.5,0.5c0.2,0.1,0.5,0.1,0.9,0.1c0.1,0,0.2,0,0.3,0
				c0.1,0,0.3,0,0.5-0.1c0.1-0.3,0.2-0.6,0.2-0.7c-0.2,0.1-0.3,0.1-0.4,0.1c-0.1,0-0.2,0-0.3,0c-0.1,0-0.3,0-0.4-0.1
				c-0.1,0-0.2-0.1-0.3-0.2c-0.1-0.1-0.1-0.2-0.1-0.3c0-0.1,0-0.1,0-0.2c0-0.1,0.1-0.1,0.1-0.2c0.1-0.1,0.1-0.1,0.2-0.2
				c0.1,0,0.2-0.1,0.3-0.1c0.1,0,0.3-0.1,0.4-0.1c0.2,0,0.3-0.1,0.4-0.1c0.1,0,0.1-0.1,0.2-0.1c0.1,0,0.1-0.1,0.3-0.1l-0.1,2.2h1.2
				c0,0,0-1.4,0.1-2c0-0.7,0.1-1.1,0.1-1.2c0-0.3-0.1-0.5-0.2-0.7C832.8,605.9,832.6,605.8,832.3,605.7z M833.7,608.9
				c0,0.6,0,0.9,0,1.1c0.4,0,1.2,0,1.2,0s0-0.9,0.1-1.1C834.6,608.9,833.7,608.9,833.7,608.9z M836.9,606.9c0.1-0.1,0.3-0.2,0.4-0.3
				c0.2-0.1,0.4-0.1,0.6-0.1c0.3,0,0.7,0.1,1.1,0.2l-0.1-0.9c-0.3-0.1-0.5-0.1-0.7-0.1c-0.2,0-0.4,0-0.6,0c-0.3,0-0.6,0-0.9,0.1
				c-0.3,0.1-0.5,0.2-0.7,0.4c-0.2,0.2-0.4,0.5-0.5,0.8c-0.1,0.3-0.2,0.7-0.2,1c0,0.3,0,0.5,0.1,0.8c0.1,0.3,0.2,0.5,0.3,0.6
				c0.1,0.2,0.3,0.3,0.5,0.4c0.2,0.1,0.4,0.2,0.6,0.2c0.2,0,0.4,0.1,0.7,0.1c0.4,0,0.8,0,1.2-0.1c0-0.2,0.1-0.4,0.1-0.5
				c0-0.1,0-0.3,0.1-0.4c-0.2,0.1-0.4,0.1-0.6,0.2c-0.2,0-0.3,0-0.5,0c-0.3,0-0.5-0.1-0.7-0.2c-0.2-0.1-0.4-0.3-0.4-0.5
				c-0.1-0.2-0.1-0.4-0.1-0.7c0-0.2,0-0.4,0.1-0.6C836.7,607.2,836.8,607,836.9,606.9z M843.4,606.2c-0.2-0.2-0.5-0.3-0.8-0.4
				c-0.3-0.1-0.6-0.1-0.9-0.1c-0.4,0-0.7,0.1-1,0.2c-0.3,0.1-0.6,0.3-0.8,0.5c-0.2,0.2-0.4,0.5-0.5,0.8c-0.1,0.3-0.2,0.6-0.2,0.9
				c0,0.3,0.1,0.6,0.2,0.9c0.1,0.3,0.3,0.5,0.5,0.7c0.2,0.2,0.5,0.3,0.8,0.4c0.3,0.1,0.6,0.1,0.9,0.1c0.4,0,0.7-0.1,1-0.2
				c0.3-0.1,0.6-0.3,0.8-0.5c0.2-0.2,0.4-0.5,0.5-0.8c0.1-0.3,0.2-0.6,0.2-0.9c0-0.3-0.1-0.6-0.2-0.9
				C843.8,606.6,843.7,606.4,843.4,606.2z M842.7,608.5c-0.1,0.2-0.2,0.4-0.4,0.5c-0.2,0.1-0.4,0.2-0.7,0.2c-0.2,0-0.5-0.1-0.6-0.2
				c-0.2-0.1-0.3-0.3-0.4-0.5c-0.1-0.2-0.1-0.4-0.1-0.7c0-0.3,0-0.5,0.1-0.8c0.1-0.2,0.2-0.4,0.4-0.5c0.2-0.1,0.4-0.2,0.7-0.2
				c0.3,0,0.5,0.1,0.6,0.2c0.2,0.1,0.3,0.3,0.4,0.5c0.1,0.2,0.1,0.4,0.1,0.6C842.8,608,842.8,608.3,842.7,608.5z M851.2,606.1
				c-0.1-0.2-0.3-0.3-0.5-0.4c-0.2-0.1-0.5-0.1-0.7-0.1c-0.1,0-0.3,0-0.4,0c-0.1,0-0.3,0.1-0.4,0.1c-0.1,0-0.2,0.1-0.3,0.2
				c-0.1,0.1-0.2,0.1-0.2,0.2c-0.1,0.1-0.1,0.1-0.2,0.2c-0.1-0.1-0.1-0.2-0.2-0.3c0-0.1-0.1-0.1-0.2-0.2c-0.1-0.1-0.2-0.1-0.3-0.1
				c-0.1,0-0.2-0.1-0.3-0.1c-0.1,0-0.2,0-0.4,0c-0.2,0-0.3,0-0.5,0.1c-0.2,0-0.3,0.1-0.4,0.2c-0.1,0.1-0.2,0.1-0.3,0.2
				c-0.1,0.1-0.2,0.2-0.3,0.3l0-0.7c-0.2,0-0.9,0-1.2,0c0,0.5-0.2,3.8-0.2,4.3c0.3,0,1,0,1.2,0c0-0.4,0-0.9,0-1.5
				c0-0.6,0.1-1,0.2-1.3c0.1-0.2,0.2-0.4,0.3-0.5c0.2-0.1,0.3-0.2,0.5-0.2c0.1,0,0.2,0,0.3,0.1c0.1,0,0.2,0.1,0.2,0.2
				c0.1,0.1,0.1,0.2,0.1,0.2c0,0.1,0,0.2,0,0.3c0,0.2,0,0.7-0.1,1.4c0,0.7-0.1,1.1-0.1,1.3c0.3,0,1,0,1.2,0l0-1.2c0-0.4,0-0.8,0.1-1
				c0-0.3,0.1-0.5,0.1-0.6c0-0.1,0.1-0.3,0.2-0.4c0.1-0.1,0.2-0.2,0.3-0.2c0.1,0,0.2-0.1,0.4-0.1c0.1,0,0.2,0,0.3,0.1
				c0.1,0,0.2,0.1,0.2,0.2c0.1,0.1,0.1,0.3,0.1,0.5c0,0.2,0,0.4,0,0.6l-0.1,1c0,0.4,0,0.8-0.1,1.1c0.3,0,1,0,1.2,0
				c0-0.3,0-0.8,0-1.4c0-0.6,0.1-1,0.1-1.3c0-0.3,0-0.5,0-0.6C851.3,606.5,851.3,606.3,851.2,606.1z"/>
		</g>
	</g>
	<g id="形状_2_copy_3_副本_5_6_">
		<g>
			<path style="fill-rule:evenodd;clip-rule:evenodd;fill:#FF6600;" d="M803.4,592.2c1.8,0,3.6,0,5.5,0c0,2.7,0,5.5,0,7.9
				c0,0.2-0.2,0.4-0.4,0.4c-0.3,0-0.4,0-0.8,0v1.3c0.4,0,0.8,0,1.2,0c1.1,0,1.8-0.5,1.8-1.4c0-2.1,0-6.2,0-8.3h0.6v-1.2h-7.9V592.2z
				 M831.4,597.9c-0.5,0-1.3,0.5-1.3,1.3c1.6,0,4.1,0,5.8,0c0,0.3,0,0.6,0,1c0.6,0,0.4,0,0.9,0c0.3,0,0.8-0.3,0.8-0.8
				c0-1.4,0-2.4,0-3.8c-0.3,0-0.5,0-0.8,0c0-1,0-3.2,0-4c0-0.3-0.3-0.7-0.7-0.7h-5.7v1.2h4.4c0,1.1,0,2.3,0,3.4c-1.1,0-1.2,0-2.1,0
				c-0.1,0-0.3-0.1-0.3-0.2c0-0.6,0-1.5,0-2.2c0-0.2-0.2-0.4-0.5-0.4h-1.3v3c0,0.6,0.5,1.1,1.1,1.1c0,0,2.2,0,4.1,0v1.1H831.4z
				 M808.1,598.3c0-1.4,0-3.4,0-5.4h-4.6v6.8c1.3,0,3,0,3,0C807.7,599.8,808.1,599.1,808.1,598.3z M806.1,598.5c-0.3,0-0.7,0-1.2,0
				v-4.3c0.5,0,1.1,0,1.5,0c0,1.3,0,2.7,0,3.9C806.5,598.3,806.4,598.5,806.1,598.5z M798.3,591.2c0,2.5,0,5.7,0,10.6h1.7
				c0-3.1,0-6.5,0-9.6c0.4,0,0.9,0,1.3,0c0,1.8,0,3.5,0,5.2c0,0.7-0.6,1-0.6,1v1.4c1.2,0,2.2-1.2,2.2-2.3c0-2,0-4.5,0-6.5
				c-1.5,0-2.7,0-4.2,0C798.3,590.9,798.3,591.2,798.3,591.2z M850.8,595.6c0-1,0-3.2,0-4c0-0.3-0.3-0.7-0.7-0.7h-5.7v1.2
				c1.5,0,2.9,0,4.4,0v3.4c-1.1,0-1.2,0-2.1,0c-0.1,0-0.3-0.1-0.3-0.2c0-0.6,0-1.5,0-2.2c0-0.2-0.2-0.4-0.5-0.4c-0.4,0-0.9,0-1.3,0
				v3c0,0.6,0.5,1.1,1.1,1.1c0,0,2.2,0,4.1,0v1.1h-4.5c-0.5,0-1.3,0.4-1.3,1.2c1.6,0,4.1,0,5.8,0v1.2c0,0.2-0.2,0.3-0.4,0.3h-0.7
				c0,0.6,0,0.9,0,1.2h1c0.3,0,0.2,0,0.6,0c0.9,0,1.2-0.6,1.2-1.1c0-1.6,0-3.6,0-5.2C851.3,595.6,851,595.6,850.8,595.6z
				 M842.7,599.7c0.6-0.7,0.9-1.4,1-2.9c0-1.6,0-3.2,0-4.8c0-0.1-0.2-0.3-0.3-0.3c-0.6,0-1.5,0-2.2,0v-0.8h-1.7c0,0.3,0,0.5,0,0.8
				c-0.2,0-0.4,0-0.6,0v1.2h0.6v3.9c0,1.5,0.5,2.3,1.1,2.9c-0.7,0.5-1.5,0.8-2.5,0.8c-0.1,0-0.3,0-0.4,0c-1.6,0-3.5,0-5.2,0
				c-1.6,0-3.1-0.3-3.7-1c0.5-0.7,0.8-1.3,1-2.8c0-1.5,0-2.8,0-4.7c0-0.2-0.2-0.4-0.4-0.4c-0.7,0-1.3,0-2.2,0v-0.8c-0.7,0-1,0-1.6,0
				v0.8c-0.2,0-0.3,0-0.6,0v1.2c0.3,0,0.4,0,0.6,0c0,1.3,0,2.7,0,3.9c0.1,1.5,0.6,2,1.2,2.9c-0.9,0.6-1.9,0.8-3.1,0.9
				c-1.4,0-2.7,0-4.6,0c0-0.3,0-0.7,0-1h4.6v-1.3h-4.6c0-0.3,0-0.6,0-1c1.3,0,3,0,3.4,0c0,0,1.1,0,1.1-1.2c0-1.3,0-3.5,0-5.2
				c-3.6,0-7.3,0-10.9,0c-0.2,0-0.3,0.2-0.3,0.3c0,0.3,0,4.2,0,6.1c1.5,0,3,0,4.6,0v1h-4.6c0,0.4,0,0.9,0,1.3h4.6c0,0.3,0,0.6,0,1
				h-5.3c0,0.4,0,0.8,0,1.2c4,0,9,0,12.9,0c1,0,2.4-0.5,3.3-1.1c1.2,0.9,2.5,1.1,4.6,1.1c0.7,0,1.4,0,2.2,0c1.1,0,2.1,0,3,0
				c1.8,0,3-0.4,4.1-1c1,0.6,2,1,3.6,1v0h2.4v-1.2h-2.4C844.3,600.5,843.4,600.3,842.7,599.7z M817,596.1h-2.8v-1.3h2.8V596.1z
				 M817,593.5h-2.8v-1.3c0.9,0,1.9,0,2.8,0V593.5z M819.1,592.2h2.8v1.3h-2.8V592.2z M819.1,594.8c0.9,0,1.9,0,2.8,0
				c0,0.5,0,0.9,0,1.3h-2.8C819.1,595.8,819.1,595.2,819.1,594.8z M828.2,596.8c-0.1,0.9-0.2,1.1-0.4,1.6c-0.3-0.5-0.5-0.8-0.6-1.6
				c0-1.1,0-2.7,0-3.9h1V596.8z M842.1,596.8c0,0.8-0.2,1.2-0.4,1.6c-0.3-0.4-0.5-0.9-0.5-1.6c0-1.2,0-2.6,0-3.9h0.9
				C842.1,594.2,842.1,595.6,842.1,596.8z"/>
		</g>
	</g>
</g>
<g>
	<path style="fill:#FF6600;" d="M564,181.2h14.7c0.2-4.7,0.3-7.8,0.3-9.4h7.3c-0.2,3.8-0.3,7-0.3,9.4h14.9v6.4H586
		c1.7,8.1,7.1,13.3,16,15.6c-0.4,0.5-1.1,1.3-1.9,2.2c-1.4,1.7-2.4,3-2.9,3.8c-7.3-2.8-12.3-7.3-14.7-13.7
		c-1.8,5.5-6.9,10.3-15.2,14.2c-1.4-2.2-2.9-4.1-4.5-5.7c9.5-3.6,14.7-9.1,15.6-16.4H564V181.2z"/>
	<path style="fill:#FF6600;" d="M604.6,175.2l3.7-2.7c1.5,1.4,3,2.8,4.4,4.3l-3.6,2.5h3.7v-7.6h5.3v7.6h3.1l-2.9-2.5
		c1-0.7,2.4-2.2,4.4-4.5l3.7,2.9c-1.3,1.5-2.6,2.9-3.9,4.1h2.8v4.1c1.7-3.2,3.1-7.1,4-11.8l5.8,0.8c-0.1,0.2-0.2,0.5-0.3,1
		c-0.2,1-0.6,2.3-1.3,4h9.9v6.1h-2.1c-0.6,6.7-2,11.9-4,15.6c1.6,1.7,3.8,3.3,6.5,4.8c-1.2,1.7-2.4,3.6-3.6,5.7
		c-2.7-1.9-4.9-3.7-6.6-5.4c-1.7,1.7-3.9,3.6-6.6,5.7c-0.3-0.4-0.8-1.1-1.5-2.1c-0.5-0.7-1-1.3-1.3-1.8l-1.6,2.7
		c-0.6-0.3-1.6-0.8-2.9-1.4c-1.2-0.6-2.1-1.1-2.8-1.4c-2.5,1.6-6,2.9-10.7,4c-0.1-0.2-0.3-0.5-0.5-1c-0.8-1.9-1.4-3.2-1.8-4
		c1.6-0.3,3.6-0.8,6-1.4c0.3-0.1,0.6-0.2,0.8-0.2c-1.5-0.8-3.2-1.6-5.2-2.4c0.3-0.5,0.8-1.3,1.5-2.2c0.3-0.5,0.5-0.9,0.6-1.1h-3.2
		v-4.8h6c0.4-0.7,0.8-1.4,1.1-2.1h6c-0.1,0.2-0.3,0.5-0.6,1c-0.2,0.5-0.4,0.9-0.6,1.1h8.3v5.1c-1,1.7-2,3.2-3.1,4.6
		c0.3,0.1,0.8,0.3,1.3,0.5c0.9,0.4,1.5,0.7,1.9,0.8c2.3-1.6,4.1-3.2,5.5-4.8c-1.2-2.2-2.1-4.9-2.8-8c-0.1,0.2-0.3,0.6-0.6,1.1
		c-0.2,0.4-0.4,0.8-0.6,1.1c-0.6-1.3-1.2-2.3-1.6-3l-1.3,1.8c-1.2-0.8-2.9-2-5-3.3v1.4h-5.3v-1.9c-1.9,1.6-4,2.9-6.2,4
		c-0.8-1.6-1.6-3.1-2.6-4.6c2.9-1.1,5.1-2.2,6.5-3.3h-5.8v-4.9h3.4c-0.2-0.2-0.5-0.5-0.8-1C606,176.9,605.1,175.8,604.6,175.2z
		 M612.6,198.9c1.3,0.4,2.6,1,3.9,1.6c1-0.8,1.7-1.8,2.3-2.9h-5.3C613.1,198.2,612.8,198.6,612.6,198.9z M620.5,184.9
		c1,0.5,2,1.1,3.2,1.8c0.5-0.8,1-1.6,1.3-2.4h-6.8v3.2L620.5,184.9z M631.4,183.5c0.4,3.8,1.2,7.2,2.4,10.2c1-2.3,1.6-5.7,1.9-10.2
		H631.4z"/>
	<path style="fill:#FF6600;" d="M655,171.7v6.9h2.6v5.9H655v4.8c0.9,0,1.7-0.1,2.4-0.3c0,2.1,0,4.1,0,6.1c-0.8,0.1-1.6,0.3-2.4,0.5
		v8.4c0,0.4,0,0.8,0,1.1c2.5-3.6,3.6-9.9,3.4-18.8v-13.1h25.8v12.3h-7.6v2.6h8.3v4.9h-8.3v2.4h6.8v14.3h-5.7v-1.8h-7.9v1.8h-5.7
		v-13.4c-0.6,5-2.2,9.6-4.7,13.7c-1.2-1.3-2.7-2.8-4.5-4.5c-0.3,2.2-1.7,3.5-4,3.7c-1.4,0.1-2.8,0.2-4.2,0.2c-0.1-0.4-0.2-1-0.3-1.8
		c-0.2-1.6-0.4-2.9-0.6-4c0.5,0.1,1.2,0.2,1.9,0.2c1.1,0,1.6-0.5,1.6-1.4v-5.6c-0.3,0-0.8,0.1-1.3,0.3c-0.8,0.1-1.4,0.2-1.8,0.3
		l-0.5-6.7c1.3-0.2,2.5-0.4,3.6-0.5v-5.7h-2.9v-5.9h2.9v-6.9H655z M664.2,192.9c0,1.1-0.1,1.9-0.2,2.4h6.6v-2.4H664.2z M678.2,180.8
		v-2.6h-13.8v2.6H678.2z M664.4,187.3v0.6h6.3v-2.6h-6.3V187.3z M669.7,200.2v3.2h7.9v-3.2H669.7z"/>
	<path style="fill:#FF6600;" d="M710.6,171.5h6.2v2.1h9.4v4.8h-9.4v1.3h-6.2v-1.3h-7.5v1.3H697v-1.3h-9.4v-4.8h9.4v-2.1h6.2v2.1h7.5
		V171.5z M688.2,188.4v-8h37.3v8h-5.2v7.8h-27.1v-7.8H688.2z M690.3,209.8v-12h33v12h-6.5v-1.4h-20.1v1.4H690.3z M694.5,184.7v1.4
		h24.6v-1.4H694.5z M696.8,202.3v1.9h20.1v-1.9H696.8z M714,190.3h-14.4v1.8H714V190.3z"/>
	<path style="fill:#FF6600;" d="M732.9,171.4l5.8,1c-0.1,0.4-0.3,1-0.6,1.8c-0.2,0.9-0.4,1.5-0.6,1.9h5l3.9-3.2
		c1.6,1.4,3.5,3.1,5.5,5.1l-4.5,3.7c-0.1-0.2-0.4-0.5-0.8-0.8c-1.6-1.9-2.9-3.3-3.9-4.1v4.5h-7.5c-0.3,0.9-0.8,1.7-1.3,2.6h7.9v5.3
		h-3.4v3h3.7v5.1h-3.7v4.6c0.4-0.3,1.2-0.8,2.4-1.4c0.5-0.3,1-0.5,1.3-0.6c0,2.7,0.1,4.5,0.2,5.6c-0.1,0.1-0.3,0.2-0.5,0.3
		c-2.6,1.3-4.4,2.3-5.3,3c-0.2,0.2-0.5,0.4-1,0.6c-0.4,0.3-0.8,0.5-1,0.6l-3.1-4.6c0.9-1,1.3-2.3,1.3-4V197H729v-5.1h3.7v-3H730
		v-4.1c-0.1-0.3-0.4-0.8-0.8-1.4c-0.3-0.6-0.6-1.1-0.8-1.4C730,179.3,731.5,175.8,732.9,171.4z M764.2,172.8l3.9,3.8
		c-0.8,0.6-1.9,1.6-3.6,3c-1,0.9-1.8,1.5-2.4,2.1l-3.9-4.1v4.1h8.4v22c0.1,3.7-1.7,5.6-5.5,5.6c-0.5,0-1.4,0-2.6,0
		c-1.5,0.1-2.7,0.2-3.6,0.2c-0.3-1.6-0.7-3.3-1.1-5.3c1.5,0,3,0,4.4,0c1.6,0.1,2.4-0.6,2.3-2.2h-10.9v7.6h-6v-27.9h8.3v-10h6.3v5.7
		c1.4-1,3.2-2.3,5.5-4.1C763.9,173.1,764.1,172.9,764.2,172.8z M749.6,187.5v2.1h10.9v-2.1H749.6z M749.6,194.6v2.2h10.9v-2.2H749.6
		z"/>
</g>
<g>
	<path style="fill:#FF6600;" d="M604.5,227.9h10.7c0.9-2,1.5-4,1.9-6.1l2.4,0.5c-0.2,0.6-0.5,1.6-1,2.9c-0.4,1.2-0.8,2.1-1,2.7h19
		v31.9h-2.3v-3h-27.5v3h-2.3V227.9z M606.8,229.9v11.3h27.5v-11.3H606.8z M606.8,243.3V255h27.5v-11.6H606.8z"/>
	<path style="fill:#FF6600;" d="M662.7,221.8h2.3v4.8h15.4l-0.8,8.3c-0.9-0.1-1.6-0.2-2.3-0.2l0.6-6.1h-13v9.2h12.1v2.4
		c-2.5,4.8-6,8.8-10.5,12.1c3.7,2,8.7,3.7,15.1,4.9c-0.5,0.8-1,1.6-1.3,2.4c-6.3-1.7-11.5-3.7-15.7-6.1c-4,2.4-9,4.7-14.9,6.7
		c-0.1-0.1-0.2-0.3-0.3-0.5c-0.4-0.7-0.8-1.3-1.1-1.8c5.6-1.6,10.4-3.5,14.4-5.7c-4.2-3.2-7.5-7.3-9.7-12.4h-3.7
		c0.1,8.3-1.6,14.9-5,19.9c-0.4-0.6-1.1-1.2-1.9-1.6c3.3-4.2,4.9-10.9,4.7-19.9v-11.8h15.7V221.8z M649.2,228.7v9.2h13.4v-9.2H649.2
		z M674.8,240h-19.6c2.5,4.9,5.6,8.6,9.4,11C669.2,247.8,672.6,244.1,674.8,240z"/>
	<path style="fill:#FF6600;" d="M699.8,222.1h2.3v7.3h14.1l-0.8,11.5h5.8c-0.1,3.8-0.3,7-0.6,9.6c-0.1,3.3-2.3,4.9-6.5,4.9
		c-1.7,0-3.6,0-5.7,0c0-0.5-0.2-1.2-0.5-2.1c0.9,0.1,2.8,0.2,5.7,0.2c3.1,0.1,4.8-1,4.9-3.3c0.1-0.8,0.2-2.4,0.3-4.6
		c0.1-1.2,0.2-2,0.2-2.5H702v17.1h-2.3V243h-15.4v-2.1h15.4v-9.4h-12.6v-2.1h12.6V222.1z M713.7,231.5H702v9.4h11L713.7,231.5z
		 M712.1,224.7l1.5-1.6c0.6,0.5,1.7,1.3,3.2,2.2c2.5,1.7,4.3,2.9,5.3,3.7l-1.5,1.8c-0.6-0.4-1.6-1.1-2.8-1.9
		C715.3,226.9,713.4,225.5,712.1,224.7z"/>
</g>
<g>
	<path style="fill:#666666;" d="M196.6,581.8h1v-1.4h0.4v1.4h1v0.3h-1v1.5c0.3-0.1,0.7-0.2,1-0.3c0,0.1,0,0.2,0,0.4
		c-0.3,0.1-0.7,0.2-1,0.3v2c0,0.5-0.2,0.7-0.7,0.7c-0.2,0-0.4,0-0.6,0c0-0.1,0-0.3-0.1-0.4c0.1,0,0.2,0,0.3,0c0.1,0,0.2,0,0.3,0
		c0.2,0,0.4-0.1,0.4-0.4v-1.9c-0.1,0-0.2,0.1-0.4,0.1c-0.3,0.1-0.5,0.1-0.6,0.2l-0.1-0.4c0.1,0,0.3-0.1,0.6-0.2
		c0.2-0.1,0.4-0.1,0.5-0.1v-1.6h-1V581.8z M199.4,583.5h3.1v-2.2h-3.2v-0.4h3.6v5.9h-0.4v-0.4h-3.5v-0.4h3.5v-2.3h-3.1V583.5z"/>
	<path style="fill:#666666;" d="M203.8,581h2.5v0.3h-1c-0.1,0.6-0.4,1.2-0.6,1.7h1.4v3.5h-0.3v-0.5h-1v0.5h-0.4v-3
		c-0.1,0.1-0.1,0.2-0.3,0.4c-0.1,0.1-0.2,0.2-0.2,0.3c0-0.1-0.1-0.2-0.2-0.3c0.6-0.8,1.1-1.7,1.3-2.6h-1.1V581z M204.6,583.3v2.4h1
		v-2.4H204.6z M206.4,584.9h2.7v0.3h-2.7V584.9z M207.3,581.5l-0.2,2h1.8l0.2-2.4h-2.6v-0.4h3l-0.3,2.7h0.7c0,0.9-0.1,1.6-0.1,2.3
		c0,0.6-0.3,0.9-1,0.9c-0.3,0-0.6,0-0.9,0c0,0,0-0.1,0-0.2c0-0.1,0-0.2-0.1-0.2c0.2,0,0.5,0,0.9,0c0.4,0,0.7-0.2,0.7-0.5
		c0.1-0.7,0.1-1.3,0.1-2h-2.9l0.2-2.3H207.3z"/>
	<path style="fill:#666666;" d="M211,586.8c0,0,0-0.1-0.1-0.1c-0.1-0.1-0.1-0.1-0.2-0.2c1.8-0.6,2.8-1.4,2.9-2.6h-2.8v-0.4h2.9
		c0.1-0.4,0.1-0.8,0.1-1.4h-2.6v-0.4h3.2c0.5-0.6,0.9-1.1,1.1-1.4l0.4,0.2c-0.3,0.4-0.7,0.8-1,1.2h1.8v0.4h-2.6c0,0.5,0,1-0.1,1.4
		h3.1v0.4h-3c0.4,1.3,1.4,2.1,3,2.5c-0.1,0.1-0.2,0.2-0.2,0.4c-1.7-0.5-2.7-1.4-3.1-2.6C213.7,585.4,212.7,586.2,211,586.8z
		 M212,580.6l0.3-0.2c0.2,0.2,0.4,0.4,0.7,0.8c0.1,0.1,0.2,0.3,0.3,0.3l-0.3,0.2c-0.1-0.1-0.2-0.2-0.4-0.5
		C212.3,580.9,212.1,580.7,212,580.6z"/>
	<path style="fill:#666666;" d="M218.9,583.5c-0.4-0.3-0.7-0.6-1.1-0.9l0.2-0.3c0.4,0.3,0.8,0.6,1.1,0.8L218.9,583.5z M217.9,586.6
		c0.3-0.7,0.6-1.5,0.9-2.4c0.2,0.1,0.3,0.1,0.4,0.2c-0.2,0.4-0.5,1.2-0.9,2.4L217.9,586.6z M219.2,581.7c-0.1-0.1-0.2-0.1-0.3-0.2
		c-0.4-0.3-0.7-0.5-0.9-0.7l0.2-0.3c0.1,0.1,0.4,0.3,0.7,0.5c0.2,0.2,0.4,0.3,0.5,0.4L219.2,581.7z M219.9,583.7h1.8v-1.8h-2v-0.4
		h2.2c-0.1-0.1-0.2-0.5-0.4-1c0,0,0-0.1,0-0.1l0.3-0.1c0.1,0.1,0.1,0.3,0.2,0.5c0.1,0.3,0.2,0.4,0.2,0.6l-0.4,0.1h2.2v0.4h-2v1.8
		h1.8v0.4h-1.8v2.1h2.3v0.4h-5.1v-0.4h2.5V584h-1.8V583.7z"/>
	<path style="fill:#666666;" d="M227,584.7c0,0.6-0.2,1-0.7,1c-0.1,0-0.3,0-0.6,0c0-0.1,0-0.3-0.1-0.4c0.2,0,0.3,0,0.5,0
		c0.3,0,0.5-0.2,0.4-0.7c0-0.6-0.2-1.1-0.7-1.6l0.6-2h-1.1v5.7h-0.4v-6.1h1.8v0.4l-0.6,1.9C226.8,583.6,227,584.2,227,584.7z
		 M227.4,580.9h4.1v0.3h-0.6v4.6c0,0.6-0.3,0.9-0.9,0.9c-0.2,0-0.6,0-1,0c0,0,0-0.1,0-0.1c0-0.1,0-0.2-0.1-0.3c0.3,0,0.7,0,1,0
		c0.4,0,0.7-0.2,0.6-0.5v-4.6h-3.1V580.9z M227.6,582.3h2v2.7h-2V582.3z M228,582.6v2.1h1.2v-2.1H228z"/>
	<path style="fill:#666666;" d="M232.2,584.9h2.7v-0.9h-2.5v-3.2h5.3v3.2h-2.5v0.9h2.8v0.4h-2.8v0.9h3.2v0.4h-6.7v-0.4h3.1v-0.9
		h-2.7V584.9z M232.9,581.1v1.1h2.1v-1.1H232.9z M232.9,582.5v1.1h2.1v-1.1H232.9z M237.5,581.1h-2.1v1.1h2.1V581.1z M235.3,582.5
		v1.1h2.1v-1.1H235.3z"/>
	<path style="fill:#666666;" d="M241.6,586l-0.3,0.2c-0.1-0.1-0.2-0.2-0.4-0.4c-0.2-0.2-0.4-0.3-0.5-0.4c-0.3,0.5-0.7,0.9-1.3,1.4
		c-0.1-0.1-0.2-0.2-0.3-0.3c0.6-0.5,1-0.9,1.3-1.3c-0.3-0.3-0.6-0.6-1-0.9c0.2-0.7,0.3-1.3,0.5-2.1H239v-0.4h0.7
		c0.1-0.2,0.1-0.5,0.2-0.9c0-0.2,0.1-0.4,0.1-0.5l0.4,0c0,0.1,0,0.2-0.1,0.4c-0.1,0.2-0.1,0.5-0.2,1h1.3v0.4
		c-0.1,1.2-0.3,2.2-0.7,2.9C240.9,585.4,241.3,585.7,241.6,586z M241,582.2h-1c-0.1,0.8-0.3,1.4-0.4,2c0.1,0.1,0.2,0.2,0.4,0.3
		c0.2,0.2,0.3,0.3,0.4,0.4C240.6,584.2,240.8,583.3,241,582.2z M241.5,584.9h2.9v0.3h-2.9V584.9z M242.6,581.6l-0.2,1.9h1.9l0.2-2.4
		h-2.8v-0.3h3.2l-0.2,2.7h0.7c0,1.1-0.1,1.9-0.1,2.3c-0.1,0.6-0.4,0.9-1.1,0.9c-0.3,0-0.7,0-1,0c0-0.1,0-0.2-0.1-0.4
		c0.4,0,0.7,0,1.1,0c0.4,0,0.7-0.2,0.7-0.7c0.1-0.7,0.1-1.4,0.1-1.9h-3l0.2-2.3H242.6z"/>
	<path style="fill:#666666;" d="M248.6,586l-0.3,0.2c-0.1-0.1-0.2-0.2-0.4-0.4c-0.2-0.2-0.4-0.3-0.5-0.4c-0.3,0.5-0.7,0.9-1.3,1.4
		c-0.1-0.1-0.2-0.2-0.3-0.3c0.6-0.5,1-0.9,1.3-1.3c-0.3-0.3-0.6-0.6-1-0.9c0.2-0.7,0.3-1.3,0.5-2.1h-0.6v-0.4h0.7
		c0.1-0.2,0.1-0.5,0.2-0.9c0-0.2,0.1-0.4,0.1-0.5l0.4,0c0,0.1,0,0.2-0.1,0.4c-0.1,0.2-0.1,0.5-0.2,1h1.3v0.4
		c-0.1,1.2-0.3,2.2-0.7,2.9C248,585.4,248.3,585.7,248.6,586z M248,582.2h-1c-0.1,0.8-0.3,1.4-0.4,2c0.1,0.1,0.2,0.2,0.4,0.3
		c0.2,0.2,0.3,0.3,0.4,0.4C247.7,584.2,247.9,583.3,248,582.2z M248.6,584.9h2.9v0.3h-2.9V584.9z M249.6,581.6l-0.2,1.9h1.9l0.2-2.4
		h-2.8v-0.3h3.2l-0.2,2.7h0.7c0,1.1-0.1,1.9-0.1,2.3c-0.1,0.6-0.4,0.9-1.1,0.9c-0.3,0-0.7,0-1,0c0-0.1,0-0.2-0.1-0.4
		c0.4,0,0.7,0,1.1,0c0.4,0,0.7-0.2,0.7-0.7c0.1-0.7,0.1-1.4,0.1-1.9h-3l0.2-2.3H249.6z"/>
</g>
<g>
	<defs>
		<rect id="SVGID_1_" x="525.8" y="314.8" width="258.3" height="321"/>
	</defs>
	<clipPath id="SVGID_2_">
		<use xlink:href="#SVGID_1_"  style="overflow:visible;"/>
	</clipPath>
	<g style="clip-path:url(#SVGID_2_);">
		<g id="形状_13_11_">
			<g>
				<path style="fill:#FF9B48;" d="M643.6,495.2c0,0-15.8,6.8-31.4,22.2c-20.3,18.3-31.5,29-41,31.8c-1.5,0.8-7.1,2.6-10.7,3.5
					c-4.8,1.2-9.7,1.2-11.3,3c-0.8,0.9-0.4,2.3,0.4,2.9c0.8,0.6,3.3,0.6,3.3,0.6s-6.9,2.1-4.4,6.3c2.3,3.9,18-7.2,18.7-2.3
					c0.4,2.6-8.4,4.6-4.3,7.9c1.9,1.5,8.2-2.2,12.5-6.1c3.2-2.8,6.2-7.8,16.1-14.6c8-5.5,22.9-14.4,38.8-21.1
					C665.9,514.7,643.6,495.2,643.6,495.2z"/>
			</g>
		</g>
		<g id="形状_14_11_">
			<g>
				<path style="fill:#CC7123;" d="M559.5,555.3c-0.8,0.7-2.7,1.9-3.6,2.5c-1.9,1.2-3.7,1.6-3.7,1.6s0.5,0.1,1.3-0.1
					c2.3-0.6,5.3-1.9,6.6-3.1C561.2,555.3,560.6,554.2,559.5,555.3z"/>
			</g>
		</g>
		<g id="形状_13_9_">
			<g>
				<path style="fill-rule:evenodd;clip-rule:evenodd;fill:#FF9B48;" d="M766.1,559.4c0,0,2.5,0,3.3-0.6c0.8-0.6,1.2-2,0.4-2.9
					c-1.6-1.8-6.5-1.8-11.3-3c-3.6-0.9-9.2-2.7-10.7-3.5c-9.5-2.8-20.7-13.4-41-31.8c-15.6-15.4-32.5-22.4-32.5-22.4
					s-21.2,19.6,14.3,34.5c15.9,6.6,30.9,15.5,38.8,21.1c9.8,6.8,12.9,11.7,16.1,14.6c4.4,3.9,10.7,7.6,12.5,6.1
					c4.1-3.2-4.6-5.2-4.3-7.9c0.7-4.9,16.4,6.2,18.7,2.3C773,561.4,766.1,559.4,766.1,559.4z"/>
			</g>
		</g>
		<g id="形状_14_9_">
			<g>
				<path style="fill-rule:evenodd;clip-rule:evenodd;fill:#CC7123;" d="M763.1,557.7c-0.9-0.6-2.9-1.7-3.6-2.5
					c-1.1-1-1.7,0-0.6,0.9c1.3,1.2,4.3,2.5,6.6,3.1c0.8,0.2,1.3,0.1,1.3,0.1S765,558.9,763.1,557.7z"/>
			</g>
		</g>
		
			<radialGradient id="SVGID_3_" cx="662.1897" cy="530.7115" r="73.5512" gradientTransform="matrix(1 0 0 0.9295 0 37.3918)" gradientUnits="userSpaceOnUse">
			<stop  offset="0" style="stop-color:#FFC07D"/>
			<stop  offset="0.5713" style="stop-color:#FEB162"/>
			<stop  offset="1" style="stop-color:#FEA852"/>
		</radialGradient>
		<path style="fill-rule:evenodd;clip-rule:evenodd;fill:url(#SVGID_3_);" d="M770.2,700.2c-10.6,3.8-32.6,2.4-45.2,1.8
			c-13.2-0.6-41.1-4.6-46.3-6c-11-3.1-4.8-9.9-3.7-14.8c1.1-5.1,1.6-10.1,1.4-15.7c-0.1-1.8-0.2-5.3-3.4-5.1c-3.5,1.1-6.8,1.7-9.9,2
			c0,0,0,0-0.1,0c-0.2,0-0.5,0-0.7,0.1c-0.2,0-0.3,0-0.5,0c-0.2,0-0.3,0-0.5,0c-0.2,0-0.5,0-0.7,0c-0.1,0-0.2,0-0.4,0
			c-0.2,0-0.5,0-0.7,0c-0.1,0-0.3,0-0.4,0c-0.2,0-0.4,0-0.6,0c-0.2,0-0.4,0-0.6,0c-0.1,0-0.3,0-0.4,0c-0.2,0-0.5,0-0.7,0
			c-0.1,0-0.2,0-0.4,0c-0.2,0-0.5,0-0.7,0c-0.2,0-0.3,0-0.5,0c-0.2,0-0.3,0-0.5,0c-0.2,0-0.5,0-0.7-0.1c0,0,0,0-0.1,0
			c-3-0.3-6.4-0.9-9.9-2c-3.2-0.2-3.3,3.3-3.4,5.1c-0.3,5.5,0.3,10.6,1.4,15.7c1.1,5,7.3,11.8-3.7,14.8c-5.2,1.4-35.9,5.3-49,6.1
			c-14.2,0.9-37.5,1.1-44.2-1.8c-3.7-1.6-3.9-11,6.1-16.2c12.5-6.4,64.7-3.6,68.2-3.8c7.3-0.5,5.8-2.8,5.9-6.5
			c0.1-6.8-5.5-10.3-10.3-13.3c-4.8-3-28.7-13.6-28.7-36.8c0-12,3.3-28.1,18.7-51.1c37.7-56,39-87.2,39-87.2l3.1-0.1
			c0.1-0.6,0.2-0.9,0.2-0.9l11.2,0.5l11.2-0.5c0,0,0.1,0.3,0.2,0.9l3.1,0.1c0,0,1.4,31.2,39,87.2c15.5,23,18.7,39.1,18.7,51.1
			c0,23.3-23.9,33.8-28.7,36.8c-4.8,3-10.4,6.5-10.3,13.3c0.1,3.7-1.1,6.9,6.1,7.1c3.5,0.1,55.4-3.2,67.9,3.2
			C775.7,689.2,774,698.8,770.2,700.2z"/>
		<path style="fill-rule:evenodd;clip-rule:evenodd;fill:#DD7528;" d="M558.6,688.2c-10.9,2.9-9.6,8-8,12c0.2,0.5,0.4,1,0.7,1.5
			c0.7,0.1,1.3,0.2,2,0.2c-3.8-8.7,1.7-11.4,6.5-13.1C561.9,688.1,560.1,687.8,558.6,688.2z"/>
		<path style="fill-rule:evenodd;clip-rule:evenodd;fill:#DD7528;" d="M571.9,687.8c-9.3,2.1-7.9,9.9-6.5,13.7
			c0.2,0.4,0.3,0.8,0.5,1.2c0.6,0,1.2,0,1.8,0c-2.6-8,0.8-11.5,3.5-13.3C572.8,688.3,575.3,687,571.9,687.8z"/>
		<path style="fill-rule:evenodd;clip-rule:evenodd;fill:#DD7528;" d="M764.2,701.6c0.1-0.4,0.3-0.7,0.4-1.1c1.2-3.9-0.1-11-7.8-13
			c-4.2-1.1-2.4,0.9-0.5,1.5c4.6,1.5,6.9,6.9,4.9,13C762.2,701.9,763.2,701.8,764.2,701.6z"/>
		<path style="fill-rule:evenodd;clip-rule:evenodd;fill:#DD7528;" d="M749.9,701.6c2.2-4.8,0.3-12-5-14.2c-2.1-0.5-0.1,1.3,1.4,2.9
			c2,2.1,3.1,7.2,1.3,11.1c-0.3,0.5-0.4,1-0.6,1.3c0.8,0,1.5,0,2.3,0C749.4,702.4,749.7,702,749.9,701.6z"/>
		<g id="形状_12_5_">
			<g>
				
					<linearGradient id="SVGID_4_" gradientUnits="userSpaceOnUse" x1="658.8478" y1="568.5709" x2="657.7041" y2="465.6376" gradientTransform="matrix(1 0 0 1 0 26.4553)">
					<stop  offset="0" style="stop-color:#FFC28A"/>
					<stop  offset="0.7938" style="stop-color:#FFCD9F"/>
					<stop  offset="1" style="stop-color:#FFD0A5"/>
				</linearGradient>
				<path style="fill-rule:evenodd;clip-rule:evenodd;fill:url(#SVGID_4_);" d="M676.2,527.4c-7.8-12.8-27.2-11.5-34.8,1
					c-9.2,15.1-20.4,55.9-12.5,79.2c6.5,19.2,52.1,20.4,59.2,2.1C697.5,585,684.5,541,676.2,527.4z"/>
			</g>
		</g>
		<path style="opacity:0.6;fill-rule:evenodd;clip-rule:evenodd;fill:#DD7528;" d="M605.2,586.9c0,0,21.1,5.3,55.1,5.3
			c32,0,37.9-1.9,54.8-5.7C715.5,586.9,663.4,677.6,605.2,586.9z"/>
		<g id="形状_11_拷贝_2_5_">
			<g>
				<path style="fill-rule:evenodd;clip-rule:evenodd;fill:#FFBF80;" d="M713.7,586.9c-0.5,0.2-0.9,0.4-1.4,0.6
					c-15.5,7-34,9.1-48.4,9.6c-14.2,0.1-35.2-1.2-52.6-8c-1.5-0.6-3.7-1.3-5.1-2c-4-1.9-4.8,3.1-4.7,6c0.2,12.4,3,51.7,38.6,65
					c1.4,0.9,5.8,3.1,14.7,3.6c2.9,0.5,6.2,0.4,9.5-0.1c0.3,0,0.7,0,1.1-0.1c5.4-0.6,10.2-1.9,14.5-3.7c0.3-0.1,0.4-0.2,0.4-0.2v0
					c27.1-12,34.7-46.6,36.9-63.4c0.2-1.2,0.2-2.4,0.4-3.4C718.1,586.4,715.1,586.2,713.7,586.9z"/>
			</g>
		</g>
		<path style="opacity:0.6;fill-rule:evenodd;clip-rule:evenodd;fill:#DD7528;" d="M672.8,485.4c-4.2,2.5-9.9,5.9-13.1,6.4
			c-4.8,0.7-10.2-0.1-15.6-6.3c0,0.4-0.2,2.6-0.9,6.3c1.6,5,4.9,10.3,12.1,11.2c8.4,1,14.7-5.8,18.5-11.7c-0.7-3.9-0.8-5.8-0.8-5.8
			L672.8,485.4z"/>
		<g id="形状_9_5_">
			<g>
				<path style="fill-rule:evenodd;clip-rule:evenodd;fill:#FFC07D;" d="M643.5,390.6c-17.9-39.4-45.2-54.5-45.2-54.5
					s-7.1-4.5-8.1,0.4c-10.5,61.7,38.4,75.4,38.4,75.4S661.3,429.9,643.5,390.6z"/>
			</g>
		</g>
		<g id="形状_10_5_">
			<g>
				<path style="fill-rule:evenodd;clip-rule:evenodd;fill:#FF9B48;" d="M637.9,399.7c-6.8-30.2-32-40.7-32-40.7s-5.3-3.7-5.4,1.4
					c2.1,38.9,34.5,45,34.5,45S639.4,406.7,637.9,399.7z"/>
			</g>
		</g>
		<g id="形状_9_拷贝_5_">
			<g>
				<path style="fill:#FFC07D;" d="M729.4,336.4c-1-4.9-8.1-0.4-8.1-0.4s-27.4,15.2-45.3,54.5c-17.9,39.3,14.9,21.3,14.9,21.3
					S739.9,398,729.4,336.4z"/>
			</g>
		</g>
		<g id="形状_10_拷贝_5_">
			<g>
				<path style="fill:#FF9B48;" d="M713.7,358.9c0,0-25.3,10.5-32.1,40.7c-1.5,7,2.9,5.8,2.9,5.8s32.4-6.2,34.5-45
					C718.9,355.2,713.7,358.9,713.7,358.9z"/>
			</g>
		</g>
		<g id="脸_11_">
			<g>
				
					<radialGradient id="SVGID_5_" cx="659.8382" cy="463.3745" r="47.5036" gradientTransform="matrix(0.9999 1.315258e-02 -9.151512e-03 0.6957 4.2977 158.765)" gradientUnits="userSpaceOnUse">
					<stop  offset="0" style="stop-color:#FECD97"/>
					<stop  offset="1" style="stop-color:#FFC07A"/>
				</radialGradient>
				<path style="fill:url(#SVGID_5_);" d="M696,425.6c-1.8-5.6-3.4-13.7-5.8-20.5c-5.3-15.2-17.5-20.2-30.5-20
					c-13.1,0.2-25.6,5.8-30.5,20c-2.3,6.7-3.8,14.8-5.6,20.5c-1.8,5.6-5.7,29.6,4.1,44.4c0,0.1,4.2,5.2,12,13
					c6.4,6.4,10.1,11.7,18.2,12.2c0.1,0,0.1,0,0.1,0c0.1,0,0.1,0,0.2,0c0.7,0,1.4,0,2.1,0c0.1,0,0.3,0,0.4-0.1
					c10.2-0.7,13.5-7.1,19.9-12.8c8.2-7.4,11.3-12.4,11.3-12.5C701.7,455.2,697.8,431.2,696,425.6z"/>
			</g>
		</g>
		<path style="fill-rule:evenodd;clip-rule:evenodd;fill:#66361F;" d="M659.4,430.4c-0.1,0.1,14.2-4.1,20.3-19.6
			c0-0.3,6.5,11.7,16.8,16.4c-0.1-0.6-0.3-1.1-0.4-1.6c-1.6-6.7-3-13.2-5.3-19.9c-5.3-15.2-18-20.7-31-20.5
			c-13.1,0.2-25.6,5.8-30.5,20c-2.3,6.7-4.4,15.4-5.6,20.5c-0.1,0.2-0.2,0.5-0.2,0.8c3.5-0.5,9.8-3.3,15.7-15
			C638.8,411.6,641.9,421.9,659.4,430.4z"/>
		<path style="fill-rule:evenodd;clip-rule:evenodd;fill:#E5432E;" d="M694.2,419c-0.7-2.6-1.4-5.3-2.1-8c-5-6.6-15.6-17.1-31.9-17
			c-18.9,0.2-28,10.2-32.7,16.7c-0.7,2.5-1.3,5-1.9,7.4c4.4-4.6,16.2-14.7,34.6-14.6C676.5,403.6,688.2,413.4,694.2,419z"/>
		<g id="形状_3_拷贝_5_">
			<g>
				<path style="fill-rule:evenodd;clip-rule:evenodd;fill:#E5432E;" d="M693.6,345.1c-0.6-0.9-1.3-0.7-1.9-0.4
					c-22.8,10.7-29.8,30.8-31.9,40.9c-2.9-12.1-11.2-30.9-32.1-41.1c-0.9-0.4-1.9-0.6-2.3,0.8c0,0-7.4,33.7,26.9,51.1
					c-7.1,5.4-14.6,12.4,7.3,3.3c23.8,10,14,1.8,7.1-3.2C701.2,379.1,693.6,345.1,693.6,345.1z"/>
			</g>
		</g>
		<g id="形状_73_5_">
			<g>
				<path style="fill-rule:evenodd;clip-rule:evenodd;fill:#AD4023;" d="M658.7,381.5c0,0-1.5,3.5-1.3,7.8c0.2,5,1.5,7.4,1.6,5.5
					c0-1.4,0.6-6.5,1-9.2C660,384.7,658.7,381.5,658.7,381.5z"/>
			</g>
		</g>
		<g id="形状_82_5_">
			<g>
				<path style="fill-rule:evenodd;clip-rule:evenodd;fill:#CA4825;" d="M674.4,396.9c-0.9-0.4-4.6-2-5.2-1.7
					c-3.2,2-6.6,5.5-1.9,4.3C670.6,398.7,675.4,397.4,674.4,396.9z M650.5,395.3c-1.2-0.4-5.4,1.5-5.4,1.5s1.6,0.8,3.5,1.4
					c1.9,0.5,6.1,2.1,5.8,0.9C654.1,397.8,652.3,395.9,650.5,395.3z"/>
			</g>
		</g>
		<path style="fill-rule:evenodd;clip-rule:evenodd;fill:#FFCE99;" d="M644.8,448.2c-3.9-9.6-9.8-11.7-13.9-10.9
			c-7.7,1.4-8.7,5.3-8.7,5.1s-0.1-6.9,6.3-8.6c5.9-1.5,11.9,0.9,14.5,5c2.4,3.7,2.1,9.4,2.1,9.4"/>
		<path style="fill-rule:evenodd;clip-rule:evenodd;fill:#FFCE99;" d="M674.3,448.2c3.9-9.6,9.8-11.7,13.9-10.9
			c7.7,1.4,8.7,5.3,8.7,5.1c-0.1-0.2,0.1-6.9-6.3-8.6c-5.9-1.5-11.9,0.9-14.5,5c-2.4,3.7-2.1,9.4-2.1,9.4"/>
		<g id="形状_4_11_">
			<g>
				<path style="fill:#FFFFFF;" d="M635.6,438.1c-3.1-1.5-9.7-0.8-12.3,1.5c0,0-3.9,16.1,10.2,17.5c7,0.3,11.1-3.4,11.7-7.4
					C645.9,445.3,639.2,439.8,635.6,438.1z"/>
			</g>
		</g>
		<g id="形状_6_11_">
			<g>
				<path style="fill-rule:evenodd;clip-rule:evenodd;fill:#512A15;" d="M642.4,441.8c0,0-3.6-4.9-8.3-6.1c-1.7-0.4-5.6,0.5-5.6,0.5
					s-5.7,4.7-1.4,12.6c2.5,4.1,6.4,5.9,9.9,5.5c4.3-0.5,6.8-3.5,7.1-6.8C644.4,444.1,642.4,441.8,642.4,441.8z"/>
			</g>
		</g>
		<g id="形状_48_5_">
			<g>
				<path style="fill:#FFFFFF;" d="M631,447.8c-0.2-1.3-4.4-1.4-5.2,0.3c-0.7,1.3,0.1,2.8,1.1,3C628.9,451.5,631.3,449.6,631,447.8z
					"/>
			</g>
		</g>
		<g id="形状_36_副本_11_">
			<g>
				<path style="fill-rule:evenodd;clip-rule:evenodd;fill:#A85726;" d="M640.7,428.8c-5.2-2.2-10.6-1.5-9.7,0.7
					c0.4,0.9,3-0.7,7.2,0.7c5.8,1.9,5.5,5.1,6.9,4.7C647.5,434.1,643.6,430,640.7,428.8z"/>
			</g>
		</g>
		<g id="形状_4_9_">
			<g>
				<path style="fill:#FFFFFF;" d="M696.3,439.5c-2.6-2.2-9.1-2.6-12.3-1.5c-7.5,2.8-10.3,7.2-9.6,11.5c0.7,4,4.7,7.7,11.7,7.4
					C700.2,455.6,696.3,439.5,696.3,439.5z"/>
			</g>
		</g>
		<g id="形状_6_9_">
			<g>
				<path style="fill-rule:evenodd;clip-rule:evenodd;fill:#512A15;" d="M691.4,437.1c0,0-3.2-0.8-5-0.4c-4.8,1.2-8.6,4.1-8.6,4.1
					c0,0-1.4,5.3-0.6,7.5c1.6,4.2,3,6,7.3,6.1c3.5,0.1,7.5-1.2,9-6.2C695.3,442.3,691.4,437.1,691.4,437.1z"/>
			</g>
		</g>
		<g id="形状_48_副本_5_">
			<g>
				<path style="fill:#FFFFFF;" d="M681.3,448.3c-0.9-1.7-4.7,0.3-4.9,1.6c-0.3,2.1,0.8,2.7,2.4,2.2
					C680.7,451.7,682.2,449.9,681.3,448.3z"/>
			</g>
		</g>
		<g id="形状_36_副本_9_">
			<g>
				<path style="fill-rule:evenodd;clip-rule:evenodd;fill:#A85726;" d="M679,428.7c-3,1.2-6.8,4.6-5.2,5.8c1.6,1.1,2.6-2.5,6.7-3.9
					c5.1-1.7,8.8,0.2,9-1.1C689.9,427.5,684.2,426.6,679,428.7z"/>
			</g>
		</g>
		<g id="Shape_2_11_">
			<g>
				<path style="fill-rule:evenodd;clip-rule:evenodd;fill:#9C6342;" d="M694.7,453.4c1.4-2.1,1.6-4.3,1.2-3.5c-0.9,1.9-2.2,4-5,5.4
					c-2.6,1.2-5.8,1.3-8,1.3c-1.9,0,3.9,1.4,8-0.2c0.3,0.1,0.7,0.3,1.2,0.5c0.6,0.3,1.6,1,1.5,0.6c-0.1-0.7-0.5-1.6-1-2
					c0.4-0.3,0.8-0.6,1.1-1c0.2,0,0.4,0,0.6,0.1c0.9,0.1,1.7,1.2,1.7,0.6C696,454.8,695.5,453.9,694.7,453.4z"/>
			</g>
		</g>
		<g id="形状_65_副本_11_">
			<g>
				<path style="fill-rule:evenodd;clip-rule:evenodd;fill:#713D1F;" d="M701.8,437.7c-0.2,0.5-1.1,1.3-2.1,1.7
					c-0.8,0.4-2,0.6-3.1,0.3c0-0.1-0.1-0.2-0.1-0.2c-0.8-1.5-3.2-3.2-5.6-3.7c-3.8-0.8-7.1-0.3-9.9,1c-3.7,1.7-6.2,5.1-7,9.6
					c-0.3,1.9,0.1,3.1,0.7,1.4c1.4-4.1,2.7-6.2,6.5-8.3c2.9-1.6,6.5-2.7,11.9-0.1c1.8,0.9,2.8,2.7,3.2,4c0.1,0.4,0.6,2,0.7,1
					c0.1-0.5,0.1-1,0.2-1.5c0.4,0,1,0,1.9-0.4c0.8-0.3,2-1.2,2.6-2.3C702.2,438.8,702.2,436.9,701.8,437.7z"/>
			</g>
		</g>
		<g id="Shape_2_9_">
			<g>
				<path style="fill-rule:evenodd;clip-rule:evenodd;fill:#9C6342;" d="M636.5,456.7c-2.1,0-5.3-0.1-8-1.3c-2.8-1.3-4.1-3.5-5-5.4
					c-0.4-0.8-0.2,1.4,1.2,3.5c-0.8,0.5-1.4,1.3-1.4,1.9c0,0.5,0.8-0.5,1.7-0.6c0.3,0,0.5-0.1,0.6-0.1c0.3,0.3,0.7,0.7,1.1,1
					c-0.5,0.5-0.9,1.4-1,2c-0.1,0.4,1-0.3,1.5-0.6c0.5-0.2,0.9-0.4,1.2-0.5C632.6,458.1,638.4,456.7,636.5,456.7z"/>
			</g>
		</g>
		<g id="形状_65_副本_9_">
			<g>
				<path style="fill-rule:evenodd;clip-rule:evenodd;fill:#713D1F;" d="M645.1,446.4c-0.8-4.5-3.3-7.9-7-9.6
					c-2.8-1.3-6.1-1.8-9.9-1c-2.1,0.5-4.3,1.9-5.1,3c-0.2,0.2-0.3,0.5-0.4,0.8c0,0,0,0,0,0c-1.2,0.4-2.4,0.1-3.3-0.3
					c-0.9-0.4-1.8-1.3-2.1-1.7c-0.5-0.8-0.4,1.1,0.2,2.4c0.6,1.1,1.8,2,2.6,2.3c1,0.4,1.7,0.4,2,0.4c0,0.6,0,1.1,0.1,1.5
					c0.1,1,0.6-0.1,0.8-0.5c0.6-1.9,1.3-3.6,3.1-4.4c5.3-2.6,8.9-1.5,11.9,0.1c3.7,2,5.1,4.5,6.5,8.3
					C645.1,449.5,645.5,448.3,645.1,446.4z"/>
			</g>
		</g>
		<g id="腮红2_5_">
			<g>
				<path style="fill-rule:evenodd;clip-rule:evenodd;fill:#FFA083;" d="M635.2,461.5c-5.6-0.6-8,1.3-8,3c0,1.4,2,4.2,7.2,4.5
					c6.5,0.3,8.4-1.8,8.5-2.9C642.9,465,642.1,462.2,635.2,461.5z"/>
			</g>
		</g>
		<g id="腮红2_副本_5_">
			<g>
				<path style="fill-rule:evenodd;clip-rule:evenodd;fill:#FFA083;" d="M684.3,461.5c-6.8,0.7-7.7,3.5-7.6,4.7
					c0.1,1.1,2,3.2,8.5,2.9c5.1-0.3,7.2-3.1,7.2-4.5C692.4,462.8,689.9,460.9,684.3,461.5z"/>
			</g>
		</g>
		<path style="fill-rule:evenodd;clip-rule:evenodd;fill:#512A15;" d="M659.2,491.4c-3.5,0-9.1-3.2-8.7-6.7c0.4-2.8,3.2-3.8,8.7-3.8
			c5.6,0,8.5,0.9,8.8,3.8C668.4,487.8,663.7,491.4,659.2,491.4z"/>
		<g id="形状_20_5_">
			<g>
				<path style="fill:#FCEACB;" d="M646.2,554.4c-10.6-8.2-23.7-2.9-23.6-0.8c0.9,22.2,22.1,20,22.1,20c7.4-0.8,8.3-6,8.3-6
					S653.3,559.9,646.2,554.4z"/>
			</g>
		</g>
		<g id="形状_21_5_">
			<g>
				<path style="fill:#FFBD99;" d="M649.9,566.6c-1.5-7.6-17.1-10.1-16.9-7c0.8,12.4,14.7,11.4,14.7,11.4S650.4,570.5,649.9,566.6z"
					/>
			</g>
		</g>
		<g id="形状_20_拷贝_5_">
			<g>
				<path style="fill:#FCEACB;" d="M671.7,555.3c-7.3,6.6-5.1,14.6-5.1,14.6s0.6,2.9,8,3.8c0,0,21.3,2.2,22.2-20.1
					C696.7,551.5,683.3,544.9,671.7,555.3z"/>
			</g>
		</g>
		<g id="形状_21_拷贝_5_">
			<g>
				<path style="fill-rule:evenodd;clip-rule:evenodd;fill:#FFBD99;" d="M669.4,566.6c-0.5,3.9,2.3,4.3,2.3,4.3s13.9,1,14.7-11.4
					C686.6,556.5,670.9,559,669.4,566.6z"/>
			</g>
		</g>
		<g id="形状_23_5_" style="opacity:0.4;">
			<g>
				<path style="fill-rule:evenodd;clip-rule:evenodd;fill:#DD7528;" d="M675.5,598.4c-8.6-1.6-31.9-3.1-34.5,2.7
					c-2.5,5.8-8.5,3-7.2,19.5c0,0,2,10.5,10.3,8.4c2.5-1,3.5-4.4,3.4-7.9c0-3.5,1.4-3.6,4.6-3.6c7.1,0.2,11,0.7,15.9-2.3
					c2.7-1.7,4.4,2.2,4,6.4c-0.5,4.9,0.5,6.9,4.4,7.8c3.6,0.8,6.6-0.8,7.7-4.6c1.1-3.9,1.4-8.2,1.4-8.2S684.1,600,675.5,598.4z"/>
			</g>
		</g>
		<path style="fill-rule:evenodd;clip-rule:evenodd;fill:#FCEBCE;" d="M677,587c0,0,9.5,6.5,8.9,27.6c-0.2,7.2-3.7,10.9-7.5,10.7
			c-3.8-0.2-4.1-4.3-3.6-8.6c0.2-1.7,0.7-7.1-1.3-14.7C671.6,594.5,677,587,677,587z"/>
		<path style="fill-rule:evenodd;clip-rule:evenodd;fill:#FCEBCE;" d="M640.1,589.6c0,0-7.5,7.3-6.9,24.6c0.2,7.2,3.7,11.4,7.5,11.1
			c3.8-0.2,3.9-3.3,3.7-6.7c-0.2-3-0.8-7.8,1.2-15.4C647.6,595.7,640.1,589.6,640.1,589.6z"/>
		<path style="fill-rule:evenodd;clip-rule:evenodd;fill:#F6BF96;" d="M677.7,620.1c-0.1,1.5-0.4,3.8-0.8,4.8
			c0.2,0.1,0.4,0.2,0.6,0.2c0.2-0.6,0.5-1.5,0.6-2.5C678.5,620.3,677.9,617.8,677.7,620.1z"/>
		<path style="fill-rule:evenodd;clip-rule:evenodd;fill:#F6BF96;" d="M680.8,620.2c0,1,0,3.5-0.7,4.9c0.3-0.1,0.6-0.2,0.9-0.3
			c0.3-0.7,0.4-1.8,0.4-2.7C681.6,620.3,680.8,618.8,680.8,620.2z"/>
		<path style="fill-rule:evenodd;clip-rule:evenodd;fill:#F6BF96;" d="M642,622.6c-0.4-1.3-0.9-4.1-1-3.3c-0.2,1.4,0.2,3.3,0.6,4.8
			c0.1,0.4,0.3,0.7,0.4,1c0.3-0.1,0.6-0.2,0.9-0.4C642.5,624,642.3,623.4,642,622.6z"/>
		<path style="fill-rule:evenodd;clip-rule:evenodd;fill:#F6BF96;" d="M639.1,623c-0.8-2.3-0.9-4.5-1-2.9c-0.2,1.9,0.3,3.5,1,4.7
			c0,0.1,0.1,0.2,0.2,0.3c0.3,0.1,0.5,0.1,0.8,0.1C639.8,624.6,639.4,623.9,639.1,623z"/>
		<g id="脸_9_">
			<g>
				<path style="fill:#FCEBCE;" d="M678.4,580.7c-3.7-13.1-12.3-16.4-18.7-16.3c-6.4-0.2-16.1,3.2-19.1,16.1
					c-0.7,4.5-3.1,8-2.3,13.6c0.8,5.6,2.6,8.3,10.5,13.6c1.6,1.2,2.8,1.2,4.7,2.7c1.9,1.4,4.1,2.1,7.8,1.7c0.1,0,0.1,0,0.2,0
					c1.5-0.3,2.7-0.8,3.8-1.6c1.9-1.4,3.1-1.4,4.7-2.7c7.9-5.3,9.7-8,10.5-13.6C681.5,588.4,679.1,583.3,678.4,580.7z"/>
			</g>
		</g>
		<g id="形状_77_5_">
			<g>
				
					<ellipse transform="matrix(8.527467e-02 -0.9964 0.9964 8.527467e-02 -7.7104 1189.2681)" style="fill-rule:evenodd;clip-rule:evenodd;fill:#FFDECC;" cx="643.8" cy="598.8" rx="1.7" ry="3.1"/>
			</g>
		</g>
		<g id="形状_77_副本_5_">
			<g>
				
					<ellipse transform="matrix(-3.275409e-02 -0.9995 0.9995 -3.275409e-02 97.9925 1292.4969)" style="fill:#FFDECC;" cx="674.4" cy="598.8" rx="1.7" ry="3.1"/>
			</g>
		</g>
		<path style="fill:#F7CC9D;" d="M647.9,574.7c0.7,2.7,2,3.1,3.8,3.4c2.1,0.3,3.3-1.7,3.9-2.5c0,0,1.4,2.7,3.3,3.3
			c2.1,0.7,3.5,0,4.2-1.4c0.5-0.8,0.3-2.2,0.3-2.2s1.7,1.8,4.3,1.1c1.5-0.4,1.7-1.7,1.8-2.6c0.1-0.9-0.2-1.8-0.2-1.8s1.8,1.9,1.3,4
			c-0.4,1.5-1.7,2.6-3.4,2.4c-1.2-0.2-3-1.4-3-1.4s-0.1,2-1.5,3c-1.4,1-3.4,0.9-4.7,0.1c-1.3-0.8-2.5-2.6-2.5-2.6s-0.7,1.7-2.6,2.5
			c-1.1,0.5-3.1,0.6-4.4-1.2C647.4,577,647.9,574.7,647.9,574.7z"/>
		<g id="形状_75_5_">
			<g>
				<path style="fill-rule:evenodd;clip-rule:evenodd;fill:#552F19;" d="M644.5,591.8c-3.2-0.3-4.1,0-3.9,0.7
					c0.2,0.5,0.8-0.1,3.8,0.5c4.9,1,6.9,4.3,7.5,2.9C652.4,594.4,648.3,592.1,644.5,591.8z"/>
			</g>
		</g>
		<g id="形状_75_副本_5_">
			<g>
				<path style="fill-rule:evenodd;clip-rule:evenodd;fill:#713D1F;" d="M674.7,591.8c-3.9,0.3-7.9,2.6-7.4,4.1
					c0.5,1.4,2.6-1.9,7.5-2.9c3-0.6,3.6,0,3.8-0.5C678.8,591.8,677.9,591.5,674.7,591.8z"/>
			</g>
		</g>
		<g id="形状_19_5_">
			<g>
				<path style="fill:#57301B;" d="M659.4,606.7c-6.1-0.1-5.6,1.9-5.6,1.9s1.1,3.8,5.8,3.7c4.7-0.1,5.6-3.7,5.6-3.7
					S665.5,606.7,659.4,606.7z"/>
			</g>
		</g>
	</g>
</g>
<g>
	<rect x="193.7" y="515" style="fill:#FFFFFF;" width="61.3" height="61.3"/>
	<g>
		<rect x="237.3" y="528.5" width="2.2" height="2.2"/>
		<rect x="239.5" y="530.6" width="2.1" height="2.1"/>
		<rect x="239.5" y="534.9" width="2.1" height="2.2"/>
		<rect x="228.7" y="528.5" width="2.2" height="2.2"/>
		<rect x="239.5" y="543.5" width="2.1" height="2.2"/>
		<rect x="239.5" y="554.2" width="2.1" height="2.2"/>
		<rect x="239.5" y="537.1" width="2.1" height="2.2"/>
		<rect x="239.5" y="545.6" width="2.1" height="2.2"/>
		<rect x="224.4" y="528.5" width="2.2" height="2.2"/>
		<rect x="207.1" y="545.6" width="2.1" height="2.2"/>
		<rect x="207.1" y="537.1" width="2.1" height="2.2"/>
		<rect x="207.1" y="552.1" width="2.1" height="2.2"/>
		<rect x="215.8" y="528.5" width="2.1" height="2.2"/>
		<rect x="207.1" y="530.6" width="2.1" height="2.1"/>
		<rect x="209.3" y="528.5" width="2.2" height="2.2"/>
		<rect x="209.3" y="534.9" width="2.2" height="2.2"/>
		<rect x="209.3" y="530.6" width="2.2" height="2.1"/>
		<rect x="209.3" y="537.1" width="2.2" height="2.2"/>
		<rect x="209.3" y="543.5" width="2.2" height="2.2"/>
		<rect x="209.3" y="541.3" width="2.2" height="2.2"/>
		<rect x="209.3" y="539.2" width="2.2" height="2.1"/>
		<rect x="217.9" y="530.6" width="2.2" height="2.1"/>
		<rect x="228.7" y="530.6" width="2.2" height="2.1"/>
		<rect x="233" y="530.6" width="2.2" height="2.1"/>
		<rect x="222.2" y="530.6" width="2.2" height="2.1"/>
		<rect x="224.4" y="530.6" width="2.2" height="2.1"/>
		<rect x="224.4" y="560.7" width="2.2" height="2.2"/>
		<rect x="228.7" y="560.7" width="2.2" height="2.2"/>
		<rect x="220.1" y="560.7" width="2.1" height="2.2"/>
		<rect x="233" y="560.7" width="2.2" height="2.2"/>
		<rect x="217.9" y="560.7" width="2.2" height="2.2"/>
		<rect x="209.3" y="554.2" width="2.2" height="2.2"/>
		<rect x="209.3" y="552.1" width="2.2" height="2.2"/>
		<rect x="209.3" y="550" width="2.2" height="2.1"/>
		<rect x="209.3" y="560.7" width="2.2" height="2.2"/>
		<rect x="209.3" y="558.5" width="2.2" height="2.1"/>
		<rect x="217.9" y="565" width="2.2" height="2.2"/>
		<rect x="205" y="530.6" width="2.2" height="2.1"/>
		<rect x="205" y="545.6" width="2.2" height="2.2"/>
		<rect x="205" y="543.5" width="2.2" height="2.2"/>
		<rect x="205" y="526.3" width="2.2" height="2.2"/>
		<rect x="205" y="539.2" width="2.2" height="2.1"/>
		<rect x="205" y="547.8" width="2.2" height="2.2"/>
		<rect x="222.2" y="526.3" width="2.2" height="2.2"/>
		<rect x="217.9" y="526.3" width="2.2" height="2.2"/>
		<rect x="224.4" y="526.3" width="2.2" height="2.2"/>
		<rect x="209.3" y="526.3" width="2.2" height="2.2"/>
		<rect x="207.1" y="558.5" width="2.1" height="2.1"/>
		<rect x="205" y="550" width="2.2" height="2.1"/>
		<rect x="224.4" y="565" width="2.2" height="2.2"/>
		<rect x="228.7" y="565" width="2.2" height="2.2"/>
		<rect x="220.1" y="565" width="2.1" height="2.2"/>
		<rect x="209.3" y="565" width="2.2" height="2.2"/>
		<rect x="205" y="558.5" width="2.2" height="2.1"/>
		<rect x="205" y="565" width="2.2" height="2.2"/>
		<rect x="205" y="562.8" width="2.2" height="2.2"/>
		<rect x="237.3" y="530.6" width="2.2" height="2.1"/>
		<rect x="235.2" y="562.8" width="2.1" height="2.2"/>
		<rect x="233" y="562.8" width="2.2" height="2.2"/>
		<rect x="228.7" y="562.8" width="2.2" height="2.2"/>
		<rect x="224.4" y="562.8" width="2.2" height="2.2"/>
		<rect x="241.6" y="562.8" width="2.2" height="2.2"/>
		<rect x="237.3" y="562.8" width="2.2" height="2.2"/>
		<rect x="241.6" y="560.7" width="2.2" height="2.2"/>
		<rect x="239.5" y="562.8" width="2.1" height="2.2"/>
		<rect x="241.6" y="558.5" width="2.2" height="2.1"/>
		<rect x="209.3" y="562.8" width="2.2" height="2.2"/>
		<rect x="220.1" y="562.8" width="2.1" height="2.2"/>
		<rect x="222.2" y="562.8" width="2.2" height="2.2"/>
		<rect x="215.8" y="562.8" width="2.1" height="2.2"/>
		<rect x="213.6" y="562.8" width="2.2" height="2.2"/>
		<rect x="241.6" y="552.1" width="2.2" height="2.2"/>
		<rect x="241.6" y="534.9" width="2.2" height="2.2"/>
		<rect x="241.6" y="530.6" width="2.2" height="2.1"/>
		<rect x="241.6" y="526.3" width="2.2" height="2.2"/>
		<rect x="230.9" y="526.3" width="2.1" height="2.2"/>
		<rect x="233" y="526.3" width="2.2" height="2.2"/>
		<rect x="237.3" y="526.3" width="2.2" height="2.2"/>
		<rect x="241.6" y="547.8" width="2.2" height="2.2"/>
		<rect x="241.6" y="554.2" width="2.2" height="2.2"/>
		<rect x="241.6" y="556.4" width="2.2" height="2.2"/>
		<rect x="241.6" y="539.2" width="2.2" height="2.1"/>
		<rect x="233" y="541.3" width="2.2" height="2.2"/>
		<rect x="215.8" y="541.3" width="2.1" height="2.2"/>
		<rect x="226.5" y="537.1" width="2.1" height="2.2"/>
		<rect x="230.9" y="543.5" width="2.1" height="2.2"/>
		<rect x="230.9" y="539.2" width="2.1" height="2.1"/>
		<rect x="220.1" y="537.1" width="2.1" height="2.2"/>
		<rect x="233" y="545.6" width="2.2" height="2.2"/>
		<rect x="233" y="550" width="2.2" height="2.1"/>
		<rect x="233" y="543.5" width="2.2" height="2.2"/>
		<rect x="233" y="534.9" width="2.2" height="2.2"/>
		<rect x="233" y="539.2" width="2.2" height="2.1"/>
		<rect x="215.8" y="552.1" width="2.1" height="2.2"/>
		<rect x="230.9" y="534.9" width="2.1" height="2.2"/>
		<rect x="233" y="554.2" width="2.2" height="2.2"/>
		<rect x="220.1" y="554.2" width="2.1" height="2.2"/>
		<rect x="230.9" y="554.2" width="2.1" height="2.2"/>
		<rect x="228.7" y="554.2" width="2.2" height="2.2"/>
		<rect x="220.1" y="541.3" width="2.1" height="2.2"/>
		<rect x="220.1" y="543.5" width="2.1" height="2.2"/>
		<rect x="222.2" y="541.3" width="2.2" height="2.2"/>
		<rect x="224.4" y="541.3" width="2.2" height="2.2"/>
		<rect x="222.2" y="550" width="2.2" height="2.1"/>
		<rect x="220.1" y="547.8" width="2.1" height="2.2"/>
		<rect x="226.5" y="541.3" width="2.1" height="2.2"/>
		<rect x="220.1" y="550" width="2.1" height="2.1"/>
		<rect x="220.1" y="545.6" width="2.1" height="2.2"/>
		<rect x="222.2" y="545.6" width="2.2" height="2.2"/>
		<rect x="224.4" y="545.6" width="2.2" height="2.2"/>
		<rect x="226.5" y="545.6" width="2.1" height="2.2"/>
		<rect x="224.4" y="547.8" width="2.2" height="2.2"/>
		<rect x="217.9" y="547.8" width="2.2" height="2.2"/>
		<rect x="217.9" y="541.3" width="2.2" height="2.2"/>
		<rect x="217.9" y="545.6" width="2.2" height="2.2"/>
		<rect x="217.9" y="552.1" width="2.2" height="2.2"/>
		<rect x="224.4" y="552.1" width="2.2" height="2.2"/>
		<rect x="228.7" y="550" width="2.2" height="2.1"/>
		<rect x="228.7" y="545.6" width="2.2" height="2.2"/>
		<rect x="220.1" y="539.2" width="2.1" height="2.1"/>
		<rect x="228.7" y="547.8" width="2.2" height="2.2"/>
		<rect x="226.5" y="539.2" width="2.1" height="2.1"/>
		<rect x="226.5" y="552.1" width="2.1" height="2.2"/>
		<rect x="211.4" y="552.1" width="2.1" height="2.2"/>
		<rect x="217.9" y="558.5" width="2.2" height="2.1"/>
		<rect x="213.6" y="558.5" width="2.2" height="2.1"/>
		<rect x="215.8" y="532.7" width="2.1" height="2.2"/>
		<rect x="217.9" y="532.7" width="2.2" height="2.2"/>
		<rect x="211.4" y="541.3" width="2.1" height="2.2"/>
		<rect x="211.4" y="537.1" width="2.1" height="2.2"/>
		<rect x="213.6" y="532.7" width="2.2" height="2.2"/>
		<rect x="237.3" y="550" width="2.2" height="2.1"/>
		<rect x="237.3" y="552.1" width="2.2" height="2.2"/>
		<rect x="237.3" y="554.2" width="2.2" height="2.2"/>
		<rect x="237.3" y="541.3" width="2.2" height="2.2"/>
		<rect x="237.3" y="537.1" width="2.2" height="2.2"/>
		<rect x="224.4" y="558.5" width="2.2" height="2.1"/>
		<rect x="222.2" y="558.5" width="2.2" height="2.1"/>
		<rect x="237.3" y="558.5" width="2.2" height="2.1"/>
		<rect x="233" y="558.5" width="2.2" height="2.1"/>
		<rect x="213.6" y="547.8" width="2.2" height="2.2"/>
		<rect x="213.6" y="556.4" width="2.2" height="2.2"/>
		<rect x="213.6" y="545.6" width="2.2" height="2.2"/>
		<rect x="224.4" y="534.9" width="2.2" height="2.2"/>
		<rect x="217.9" y="534.9" width="2.2" height="2.2"/>
		<rect x="213.6" y="541.3" width="2.2" height="2.2"/>
		<rect x="213.6" y="534.9" width="2.2" height="2.2"/>
		<rect x="235.2" y="534.9" width="2.1" height="2.2"/>
		<rect x="224.4" y="556.4" width="2.2" height="2.2"/>
		<rect x="230.9" y="532.7" width="2.1" height="2.2"/>
		<rect x="228.7" y="532.7" width="2.2" height="2.2"/>
		<rect x="233" y="556.4" width="2.2" height="2.2"/>
		<rect x="235.2" y="554.2" width="2.1" height="2.2"/>
		<rect x="235.2" y="547.8" width="2.1" height="2.2"/>
		<rect x="243.8" y="543.5" width="2.1" height="2.2"/>
		<rect x="198.5" y="543.5" width="2.1" height="2.2"/>
		<rect x="198.5" y="558.5" width="2.1" height="2.1"/>
		<rect x="198.5" y="552.1" width="2.1" height="2.2"/>
		<rect x="198.5" y="537.1" width="2.1" height="2.2"/>
		<rect x="198.5" y="530.6" width="2.1" height="2.1"/>
		<rect x="198.5" y="534.9" width="2.1" height="2.2"/>
		<rect x="220.1" y="571.4" width="2.1" height="2.2"/>
		<rect x="215.8" y="571.4" width="2.1" height="2.2"/>
		<rect x="230.9" y="571.4" width="2.1" height="2.2"/>
		<rect x="226.5" y="571.4" width="2.1" height="2.2"/>
		<rect x="224.4" y="571.4" width="2.2" height="2.2"/>
		<rect x="205" y="571.4" width="2.2" height="2.2"/>
		<rect x="198.5" y="571.4" width="2.1" height="2.2"/>
		<rect x="233" y="571.4" width="2.2" height="2.2"/>
		<rect x="207.1" y="571.4" width="2.1" height="2.2"/>
		<rect x="200.7" y="571.4" width="2.2" height="2.2"/>
		<rect x="209.3" y="571.4" width="2.2" height="2.2"/>
		<rect x="202.8" y="571.4" width="2.1" height="2.2"/>
		<rect x="248.1" y="541.3" width="2.1" height="2.2"/>
		<rect x="248.1" y="530.6" width="2.1" height="2.1"/>
		<rect x="248.1" y="560.7" width="2.1" height="2.2"/>
		<rect x="248.1" y="545.6" width="2.1" height="2.2"/>
		<rect x="248.1" y="562.8" width="2.1" height="2.2"/>
		<rect x="248.1" y="547.8" width="2.1" height="2.2"/>
		<rect x="248.1" y="554.2" width="2.1" height="2.2"/>
		<rect x="215.8" y="519.9" width="2.1" height="2.2"/>
		<rect x="226.5" y="519.9" width="2.1" height="2.2"/>
		<rect x="224.4" y="519.9" width="2.2" height="2.2"/>
		<rect x="222.2" y="519.9" width="2.2" height="2.2"/>
		<rect x="217.9" y="519.9" width="2.2" height="2.2"/>
		<rect x="209.3" y="519.9" width="2.2" height="2.2"/>
		<rect x="237.3" y="519.9" width="2.2" height="2.2"/>
		<rect x="230.9" y="519.9" width="2.1" height="2.2"/>
		<rect x="228.7" y="519.9" width="2.2" height="2.2"/>
		<rect x="200.7" y="517.7" width="2.2" height="2.2"/>
		<rect x="198.5" y="517.7" width="2.1" height="2.2"/>
		<rect x="202.8" y="517.7" width="2.1" height="2.2"/>
		<rect x="196.4" y="517.7" width="2.2" height="2.2"/>
		<rect x="205" y="517.7" width="2.2" height="2.2"/>
		<rect x="196.4" y="526.3" width="2.2" height="2.2"/>
		<rect x="196.4" y="519.9" width="2.2" height="2.2"/>
		<rect x="207.1" y="517.7" width="2.1" height="2.2"/>
		<rect x="196.4" y="522" width="2.2" height="2.1"/>
		<rect x="222.2" y="517.7" width="2.2" height="2.2"/>
		<rect x="224.4" y="517.7" width="2.2" height="2.2"/>
		<rect x="196.4" y="528.5" width="2.2" height="2.2"/>
		<rect x="217.9" y="517.7" width="2.2" height="2.2"/>
		<rect x="209.3" y="517.7" width="2.2" height="2.2"/>
		<rect x="215.8" y="517.7" width="2.1" height="2.2"/>
		<rect x="196.4" y="560.7" width="2.2" height="2.2"/>
		<rect x="196.4" y="558.5" width="2.2" height="2.1"/>
		<rect x="196.4" y="552.1" width="2.2" height="2.2"/>
		<rect x="196.4" y="562.8" width="2.2" height="2.2"/>
		<rect x="196.4" y="565" width="2.2" height="2.2"/>
		<rect x="196.4" y="571.4" width="2.2" height="2.2"/>
		<rect x="196.4" y="530.6" width="2.2" height="2.1"/>
		<rect x="196.4" y="567.1" width="2.2" height="2.1"/>
		<rect x="196.4" y="569.3" width="2.2" height="2.2"/>
		<rect x="196.4" y="539.2" width="2.2" height="2.1"/>
		<rect x="196.4" y="537.1" width="2.2" height="2.2"/>
		<rect x="196.4" y="547.8" width="2.2" height="2.2"/>
		<rect x="196.4" y="543.5" width="2.2" height="2.2"/>
		<rect x="196.4" y="524.2" width="2.2" height="2.2"/>
		<rect x="250.2" y="558.5" width="2.2" height="2.1"/>
		<rect x="250.2" y="554.2" width="2.2" height="2.2"/>
		<rect x="250.2" y="562.8" width="2.2" height="2.2"/>
		<rect x="250.2" y="543.5" width="2.2" height="2.2"/>
		<rect x="250.2" y="547.8" width="2.2" height="2.2"/>
		<rect x="250.2" y="565" width="2.2" height="2.2"/>
		<rect x="250.2" y="550" width="2.2" height="2.1"/>
		<rect x="250.2" y="560.7" width="2.2" height="2.2"/>
		<rect x="230.9" y="517.7" width="2.1" height="2.2"/>
		<rect x="241.6" y="571.4" width="2.2" height="2.2"/>
		<rect x="237.3" y="571.4" width="2.2" height="2.2"/>
		<rect x="245.9" y="571.4" width="2.2" height="2.2"/>
		<rect x="250.2" y="571.4" width="2.2" height="2.2"/>
		<rect x="243.8" y="517.7" width="2.1" height="2.2"/>
		<rect x="250.2" y="541.3" width="2.2" height="2.2"/>
		<rect x="248.1" y="517.7" width="2.1" height="2.2"/>
		<rect x="250.2" y="517.7" width="2.2" height="2.2"/>
		<rect x="241.6" y="517.7" width="2.2" height="2.2"/>
		<rect x="237.3" y="517.7" width="2.2" height="2.2"/>
		<rect x="239.5" y="517.7" width="2.1" height="2.2"/>
		<rect x="250.2" y="519.9" width="2.2" height="2.2"/>
		<rect x="245.9" y="517.7" width="2.2" height="2.2"/>
		<rect x="250.2" y="534.9" width="2.2" height="2.2"/>
		<rect x="250.2" y="522" width="2.2" height="2.1"/>
		<rect x="250.2" y="539.2" width="2.2" height="2.1"/>
		<rect x="250.2" y="524.2" width="2.2" height="2.2"/>
		<rect x="250.2" y="526.3" width="2.2" height="2.2"/>
		<rect x="250.2" y="530.6" width="2.2" height="2.1"/>
		<rect x="250.2" y="528.5" width="2.2" height="2.2"/>
		<rect x="202.8" y="558.5" width="2.1" height="2.1"/>
		<rect x="202.8" y="554.2" width="2.1" height="2.2"/>
		<rect x="202.8" y="565" width="2.1" height="2.2"/>
		<rect x="202.8" y="567.1" width="2.1" height="2.1"/>
		<rect x="202.8" y="562.8" width="2.1" height="2.2"/>
		<rect x="205" y="567.1" width="2.2" height="2.1"/>
		<rect x="202.8" y="530.6" width="2.1" height="2.1"/>
		<rect x="202.8" y="534.9" width="2.1" height="2.2"/>
		<rect x="202.8" y="526.3" width="2.1" height="2.2"/>
		<rect x="239.5" y="567.1" width="2.1" height="2.1"/>
		<rect x="230.9" y="567.1" width="2.1" height="2.1"/>
		<rect x="209.3" y="567.1" width="2.2" height="2.1"/>
		<rect x="245.9" y="567.1" width="2.2" height="2.1"/>
		<rect x="243.8" y="567.1" width="2.1" height="2.1"/>
		<rect x="245.9" y="562.8" width="2.2" height="2.2"/>
		<rect x="217.9" y="567.1" width="2.2" height="2.1"/>
		<rect x="213.6" y="567.1" width="2.2" height="2.1"/>
		<rect x="224.4" y="567.1" width="2.2" height="2.1"/>
		<rect x="220.1" y="567.1" width="2.1" height="2.1"/>
		<rect x="243.8" y="547.8" width="2.1" height="2.2"/>
		<rect x="243.8" y="545.6" width="2.1" height="2.2"/>
		<rect x="243.8" y="539.2" width="2.1" height="2.1"/>
		<rect x="243.8" y="541.3" width="2.1" height="2.2"/>
		<rect x="243.8" y="530.6" width="2.1" height="2.1"/>
		<rect x="239.5" y="565" width="2.1" height="2.2"/>
		<rect x="215.8" y="524.2" width="2.1" height="2.2"/>
		<rect x="217.9" y="524.2" width="2.2" height="2.2"/>
		<rect x="202.8" y="524.2" width="2.1" height="2.2"/>
		<rect x="243.8" y="526.3" width="2.1" height="2.2"/>
		<rect x="205" y="524.2" width="2.2" height="2.2"/>
		<rect x="209.3" y="524.2" width="2.2" height="2.2"/>
		<rect x="213.6" y="524.2" width="2.2" height="2.2"/>
		<rect x="241.6" y="524.2" width="2.2" height="2.2"/>
		<rect x="237.3" y="524.2" width="2.2" height="2.2"/>
		<rect x="248.1" y="567.1" width="2.1" height="2.1"/>
		<rect x="230.9" y="524.2" width="2.1" height="2.2"/>
		<rect x="228.7" y="524.2" width="2.2" height="2.2"/>
		<rect x="243.8" y="524.2" width="2.1" height="2.2"/>
		<rect x="200.7" y="558.5" width="2.2" height="2.1"/>
		<rect x="200.7" y="562.8" width="2.2" height="2.2"/>
		<rect x="200.7" y="554.2" width="2.2" height="2.2"/>
		<rect x="200.7" y="552.1" width="2.2" height="2.2"/>
		<rect x="200.7" y="565" width="2.2" height="2.2"/>
		<rect x="200.7" y="567.1" width="2.2" height="2.1"/>
		<rect x="200.7" y="537.1" width="2.2" height="2.2"/>
		<rect x="200.7" y="539.2" width="2.2" height="2.1"/>
		<rect x="200.7" y="543.5" width="2.2" height="2.2"/>
		<rect x="235.2" y="569.3" width="2.1" height="2.2"/>
		<rect x="233" y="569.3" width="2.2" height="2.2"/>
		<rect x="248.1" y="569.3" width="2.1" height="2.2"/>
		<rect x="245.9" y="569.3" width="2.2" height="2.2"/>
		<rect x="243.8" y="569.3" width="2.1" height="2.2"/>
		<rect x="209.3" y="569.3" width="2.2" height="2.2"/>
		<rect x="226.5" y="569.3" width="2.1" height="2.2"/>
		<rect x="215.8" y="569.3" width="2.1" height="2.2"/>
		<rect x="200.7" y="530.6" width="2.2" height="2.1"/>
		<rect x="224.4" y="569.3" width="2.2" height="2.2"/>
		<rect x="220.1" y="569.3" width="2.1" height="2.2"/>
		<rect x="245.9" y="530.6" width="2.2" height="2.1"/>
		<rect x="245.9" y="534.9" width="2.2" height="2.2"/>
		<rect x="245.9" y="526.3" width="2.2" height="2.2"/>
		<rect x="243.8" y="522" width="2.1" height="2.1"/>
		<rect x="241.6" y="522" width="2.2" height="2.1"/>
		<rect x="245.9" y="537.1" width="2.2" height="2.2"/>
		<rect x="245.9" y="522" width="2.2" height="2.1"/>
		<rect x="245.9" y="524.2" width="2.2" height="2.2"/>
		<rect x="245.9" y="547.8" width="2.2" height="2.2"/>
		<rect x="245.9" y="550" width="2.2" height="2.1"/>
		<rect x="245.9" y="541.3" width="2.2" height="2.2"/>
		<rect x="245.9" y="552.1" width="2.2" height="2.2"/>
		<rect x="209.3" y="522" width="2.2" height="2.1"/>
		<rect x="213.6" y="522" width="2.2" height="2.1"/>
		<rect x="205" y="522" width="2.2" height="2.1"/>
		<rect x="237.3" y="522" width="2.2" height="2.1"/>
		<rect x="200.7" y="524.2" width="2.2" height="2.2"/>
		<rect x="200.7" y="522" width="2.2" height="2.1"/>
		<rect x="202.8" y="522" width="2.1" height="2.1"/>
		<rect x="200.7" y="526.3" width="2.2" height="2.2"/>
		<rect x="230.9" y="522" width="2.1" height="2.1"/>
		<rect x="217.9" y="522" width="2.2" height="2.1"/>
		<rect x="226.5" y="522" width="2.1" height="2.1"/>
		<rect x="224.4" y="522" width="2.2" height="2.1"/>
	</g>
	<polygon style="fill:#FFFFFF;" points="239.6,552.7 209.3,552.7 209.3,539.2 239.6,539.2 	"/>
	<g>
		<g id="形状_2_copy_3_副本_4_10_">
			<g>
				<path style="fill-rule:evenodd;clip-rule:evenodd;fill:#CCCCCC;" d="M211.7,548c-0.5,1.1-1,2-1.6,3.1h0.8
					c0.1-0.3,0.2-0.4,0.4-0.7c0.4,0,0.7,0,1.1,0c-0.1-0.2-0.1-0.4-0.2-0.6h-0.6c0.2-0.4,0.3-0.6,0.5-1c0.3,0.8,0.6,1.6,0.8,2.4h0.7
					c-0.4-1.1-0.7-2-1.1-3.1H211.7z M213.8,551.1h0.7l0.1-3.1l-0.7,0L213.8,551.1z M214.8,551.1h0.7l0.1-2.3h-0.7L214.8,551.1z
					 M215,548l0,0.5c0,0,0.5,0,0.7,0l0-0.5C215,548,215,548,215,548z M219.2,548.8c-0.1,0-0.2-0.1-0.4-0.1c-0.1,0-0.2,0-0.2,0
					c-0.1,0-0.1,0-0.2,0.1c-0.1,0-0.1,0.1-0.2,0.1c0,0-0.1,0.1-0.1,0.1c0,0-0.1,0.1-0.1,0.1c0-0.1-0.1-0.1-0.1-0.2
					c0,0-0.1-0.1-0.1-0.1c0,0-0.1-0.1-0.1-0.1c-0.1,0-0.1,0-0.2-0.1c-0.1,0-0.1,0-0.2,0c-0.1,0-0.2,0-0.3,0c-0.1,0-0.2,0.1-0.2,0.1
					c-0.1,0-0.1,0.1-0.2,0.1c0,0-0.1,0.1-0.1,0.2l0-0.4H216l-0.1,2.3c0,0,0.5,0,0.7,0c0-0.2,0-0.5,0-0.8c0-0.3,0-0.6,0.1-0.7
					c0-0.1,0.1-0.2,0.2-0.3c0.1-0.1,0.2-0.1,0.3-0.1c0.1,0,0.1,0,0.2,0c0,0,0.1,0.1,0.1,0.1c0,0,0.1,0.1,0.1,0.1c0,0,0,0.1,0,0.2
					c0,0.1,0,0.4,0,0.7c0,0.4,0,0.6,0,0.7c0.1,0,0.5,0,0.7,0l0-0.6c0-0.2,0-0.4,0-0.5c0-0.1,0-0.2,0.1-0.3c0-0.1,0.1-0.1,0.1-0.2
					c0-0.1,0.1-0.1,0.2-0.1c0.1,0,0.1,0,0.2,0c0.1,0,0.1,0,0.2,0c0.1,0,0.1,0.1,0.1,0.1c0,0.1,0.1,0.1,0.1,0.2c0,0.1,0,0.2,0,0.3
					l0,0.5c0,0.2,0,0.4,0,0.6c0.1,0,0.5,0,0.6,0c0-0.2,0-0.4,0-0.7c0-0.3,0-0.6,0-0.7c0-0.1,0-0.2,0-0.3c0-0.1,0-0.3-0.1-0.3
					C219.4,548.9,219.3,548.8,219.2,548.8z M221.7,548.7c-0.1,0-0.3-0.1-0.5-0.1c-0.1,0-0.3,0-0.5,0c-0.2,0-0.5,0.1-0.5,0.1
					l-0.1,0.4c0,0,0.6-0.2,0.9-0.2c0.1,0,0.1,0,0.2,0c0.1,0,0.1,0,0.2,0.1c0,0,0.1,0.1,0.1,0.2c0,0,0,0.1,0,0.1c0,0,0,0.1-0.1,0.1
					c0,0-0.1,0-0.1,0.1c0,0-0.1,0-0.1,0.1c-0.1,0-0.1,0-0.2,0c-0.2,0-0.4,0.1-0.5,0.1c-0.1,0-0.2,0.1-0.3,0.1
					c-0.1,0-0.1,0.1-0.2,0.2c0,0.1-0.1,0.1-0.1,0.2c0,0.1,0,0.1,0,0.2c0,0.1,0,0.2,0.1,0.3c0.1,0.1,0.1,0.2,0.3,0.2
					c0.1,0.1,0.3,0.1,0.5,0.1c0.1,0,0.1,0,0.2,0c0.1,0,0.2,0,0.3,0c0-0.2,0.1-0.3,0.1-0.4c-0.1,0-0.2,0-0.2,0.1c-0.1,0-0.1,0-0.2,0
					c-0.1,0-0.1,0-0.2,0c-0.1,0-0.1-0.1-0.1-0.1c0,0-0.1-0.1-0.1-0.2c0,0,0-0.1,0-0.1c0,0,0-0.1,0.1-0.1c0,0,0.1-0.1,0.1-0.1
					c0,0,0.1,0,0.2-0.1c0.1,0,0.1,0,0.2-0.1c0.1,0,0.2,0,0.2-0.1c0,0,0.1,0,0.1,0c0,0,0.1,0,0.1-0.1l-0.1,1.2h0.6c0,0,0-0.7,0-1.1
					c0-0.4,0-0.6,0-0.7c0-0.2,0-0.3-0.1-0.4C221.9,548.8,221.8,548.8,221.7,548.7z M225.7,548.8c-0.1,0-0.2-0.1-0.4-0.1
					c-0.1,0-0.2,0-0.2,0c-0.1,0-0.1,0-0.2,0.1c-0.1,0-0.1,0.1-0.2,0.1c0,0-0.1,0.1-0.1,0.1c0,0-0.1,0.1-0.1,0.1
					c0-0.1-0.1-0.1-0.1-0.2c0,0-0.1-0.1-0.1-0.1c0,0-0.1-0.1-0.1-0.1c-0.1,0-0.1,0-0.2-0.1c-0.1,0-0.1,0-0.2,0c-0.1,0-0.2,0-0.3,0
					c-0.1,0-0.2,0.1-0.2,0.1c-0.1,0-0.1,0.1-0.2,0.1c0,0-0.1,0.1-0.1,0.2l0-0.4h-0.6l-0.1,2.3h0.7c0,0,0-0.5,0-0.8
					c0-0.3,0-0.6,0.1-0.7c0-0.1,0.1-0.2,0.2-0.3c0.1-0.1,0.2-0.1,0.3-0.1c0.1,0,0.1,0,0.2,0c0,0,0.1,0.1,0.1,0.1
					c0,0,0.1,0.1,0.1,0.1c0,0,0,0.1,0,0.2c0,0.1,0,0.4,0,0.7c0,0.4,0,0.6,0,0.7c0.1,0,0.5,0,0.7,0l0-0.6c0-0.2,0-0.4,0-0.5
					c0-0.1,0-0.2,0.1-0.3c0-0.1,0.1-0.1,0.1-0.2c0-0.1,0.1-0.1,0.2-0.1c0.1,0,0.1,0,0.2,0c0.1,0,0.1,0,0.2,0c0.1,0,0.1,0.1,0.1,0.1
					c0,0.1,0.1,0.1,0.1,0.2c0,0.1,0,0.2,0,0.3l0,0.5c0,0.2,0,0.4,0,0.6c0.1,0,0.5,0,0.6,0c0-0.2,0-0.4,0-0.7c0-0.3,0-0.6,0-0.7
					c0-0.1,0-0.2,0-0.3c0-0.1,0-0.3-0.1-0.3C225.9,548.9,225.9,548.8,225.7,548.8z M228.2,548.7c-0.1,0-0.3-0.1-0.5-0.1
					c-0.1,0-0.3,0-0.5,0c-0.2,0-0.5,0.1-0.5,0.1l-0.1,0.4c0,0,0.6-0.2,0.9-0.2c0.1,0,0.1,0,0.2,0c0.1,0,0.1,0,0.2,0.1
					c0,0,0.1,0.1,0.1,0.2c0,0,0,0.1,0,0.1c0,0,0,0.1-0.1,0.1c0,0-0.1,0-0.1,0.1c0,0-0.1,0-0.2,0.1c-0.1,0-0.1,0-0.2,0
					c-0.2,0-0.4,0.1-0.5,0.1c-0.1,0-0.2,0.1-0.3,0.1c-0.1,0-0.1,0.1-0.2,0.2c0,0.1-0.1,0.1-0.1,0.2c0,0.1,0,0.1,0,0.2
					c0,0.1,0,0.2,0.1,0.3c0.1,0.1,0.1,0.2,0.3,0.2c0.1,0.1,0.3,0.1,0.5,0.1c0.1,0,0.1,0,0.2,0c0.1,0,0.2,0,0.3,0
					c0-0.2,0.1-0.3,0.1-0.4c-0.1,0-0.2,0-0.2,0.1c-0.1,0-0.1,0-0.2,0c-0.1,0-0.1,0-0.2,0c-0.1,0-0.1-0.1-0.1-0.1
					c0,0-0.1-0.1-0.1-0.2c0,0,0-0.1,0-0.1c0,0,0-0.1,0.1-0.1c0,0,0.1-0.1,0.1-0.1c0,0,0.1,0,0.2-0.1c0.1,0,0.1,0,0.2-0.1
					c0.1,0,0.2,0,0.2-0.1c0,0,0.1,0,0.1,0c0,0,0.1,0,0.1-0.1l-0.1,1.2h0.6c0,0,0-0.7,0-1.1c0-0.4,0-0.6,0-0.7c0-0.2,0-0.3-0.1-0.4
					C228.4,548.8,228.3,548.8,228.2,548.7z M228.9,550.4c0,0.3,0,0.5,0,0.6c0.2,0,0.6,0,0.6,0s0-0.5,0-0.6
					C229.4,550.5,228.9,550.4,228.9,550.4z M230.6,549.4c0.1-0.1,0.1-0.1,0.2-0.2c0.1,0,0.2-0.1,0.3-0.1c0.2,0,0.4,0,0.6,0.1l0-0.5
					c-0.1,0-0.3-0.1-0.4-0.1c-0.1,0-0.2,0-0.3,0c-0.2,0-0.3,0-0.5,0.1c-0.1,0-0.3,0.1-0.4,0.2c-0.1,0.1-0.2,0.3-0.3,0.4
					c-0.1,0.2-0.1,0.4-0.1,0.6c0,0.1,0,0.3,0.1,0.4c0,0.1,0.1,0.3,0.2,0.3c0.1,0.1,0.2,0.2,0.3,0.2c0.1,0.1,0.2,0.1,0.3,0.1
					c0.1,0,0.2,0,0.4,0c0.2,0,0.4,0,0.6-0.1c0-0.1,0-0.2,0-0.3c0-0.1,0-0.1,0-0.2c-0.1,0-0.2,0.1-0.3,0.1c-0.1,0-0.2,0-0.2,0
					c-0.1,0-0.3,0-0.4-0.1c-0.1-0.1-0.2-0.1-0.2-0.2c0-0.1-0.1-0.2-0.1-0.4c0-0.1,0-0.2,0-0.3C230.5,549.5,230.6,549.5,230.6,549.4z
					 M234.1,549c-0.1-0.1-0.2-0.2-0.4-0.2c-0.2-0.1-0.3-0.1-0.5-0.1c-0.2,0-0.4,0-0.5,0.1c-0.2,0.1-0.3,0.2-0.4,0.3
					c-0.1,0.1-0.2,0.3-0.2,0.4c-0.1,0.2-0.1,0.3-0.1,0.5c0,0.2,0,0.3,0.1,0.5c0.1,0.2,0.1,0.3,0.3,0.4c0.1,0.1,0.2,0.2,0.4,0.2
					c0.2,0.1,0.3,0.1,0.5,0.1c0.2,0,0.4,0,0.5-0.1c0.2-0.1,0.3-0.1,0.4-0.3c0.1-0.1,0.2-0.3,0.3-0.4c0.1-0.2,0.1-0.3,0.1-0.5
					c0-0.2,0-0.3-0.1-0.5C234.3,549.2,234.2,549.1,234.1,549z M233.7,550.3c-0.1,0.1-0.1,0.2-0.2,0.3c-0.1,0.1-0.2,0.1-0.4,0.1
					c-0.1,0-0.2,0-0.3-0.1c-0.1-0.1-0.2-0.1-0.2-0.3c0-0.1-0.1-0.2-0.1-0.4c0-0.2,0-0.3,0.1-0.4c0.1-0.1,0.1-0.2,0.2-0.3
					c0.1-0.1,0.2-0.1,0.4-0.1c0.1,0,0.2,0,0.3,0.1c0.1,0.1,0.2,0.1,0.2,0.2c0,0.1,0.1,0.2,0.1,0.3
					C233.8,550,233.8,550.1,233.7,550.3z M238.2,549c-0.1-0.1-0.2-0.2-0.3-0.2c-0.1,0-0.2-0.1-0.4-0.1c-0.1,0-0.2,0-0.2,0
					c-0.1,0-0.1,0-0.2,0.1c-0.1,0-0.1,0.1-0.2,0.1c0,0-0.1,0.1-0.1,0.1c0,0-0.1,0.1-0.1,0.1c0-0.1-0.1-0.1-0.1-0.2
					c0,0-0.1-0.1-0.1-0.1c0,0-0.1-0.1-0.1-0.1c-0.1,0-0.1,0-0.2-0.1c-0.1,0-0.1,0-0.2,0c-0.1,0-0.2,0-0.3,0c-0.1,0-0.2,0.1-0.2,0.1
					c-0.1,0-0.1,0.1-0.2,0.1c0,0-0.1,0.1-0.1,0.2l0-0.4c-0.1,0-0.5,0-0.6,0c0,0.3-0.1,2.1-0.1,2.3c0.1,0,0.5,0,0.7,0
					c0-0.2,0-0.5,0-0.8c0-0.3,0-0.6,0.1-0.7c0-0.1,0.1-0.2,0.2-0.3c0.1-0.1,0.2-0.1,0.3-0.1c0.1,0,0.1,0,0.2,0c0,0,0.1,0.1,0.1,0.1
					c0,0,0.1,0.1,0.1,0.1c0,0,0,0.1,0,0.2c0,0.1,0,0.4,0,0.7c0,0.4,0,0.6,0,0.7c0.1,0,0.5,0,0.7,0l0-0.6c0-0.2,0-0.4,0-0.5
					c0-0.1,0-0.2,0.1-0.3c0-0.1,0.1-0.1,0.1-0.2c0-0.1,0.1-0.1,0.2-0.1c0.1,0,0.1,0,0.2,0c0.1,0,0.1,0,0.2,0c0.1,0,0.1,0.1,0.1,0.1
					c0,0.1,0.1,0.1,0.1,0.2c0,0.1,0,0.2,0,0.3l0,0.5c0,0.2,0,0.4,0,0.6c0.1,0,0.5,0,0.6,0c0-0.2,0-0.4,0-0.7c0-0.3,0-0.6,0-0.7
					c0-0.1,0-0.2,0-0.3C238.3,549.2,238.3,549.1,238.2,549z"/>
			</g>
		</g>
		<g id="形状_2_copy_3_副本_5_10_">
			<g>
				<path style="fill-rule:evenodd;clip-rule:evenodd;fill:#FF6600;" d="M212.9,541.5c1,0,1.9,0,2.9,0c0,1.4,0,2.9,0,4.3
					c0,0.1-0.1,0.2-0.2,0.2c-0.2,0-0.2,0-0.4,0v0.7c0.2,0,0.4,0,0.6,0c0.6,0,0.9-0.3,0.9-0.7c0-1.1,0-3.3,0-4.5h0.3v-0.7h-4.2V541.5
					z M227.7,544.6c-0.3,0-0.7,0.3-0.7,0.7c0.8,0,2.2,0,3.1,0c0,0.2,0,0.3,0,0.6c0.3,0,0.2,0,0.5,0c0.2,0,0.4-0.2,0.4-0.4
					c0-0.7,0-1.3,0-2.1c-0.1,0-0.3,0-0.4,0c0-0.6,0-1.7,0-2.1c0-0.2-0.2-0.4-0.4-0.4h-3v0.7h2.3c0,0.6,0,1.2,0,1.8
					c-0.6,0-0.6,0-1.1,0c-0.1,0-0.1-0.1-0.1-0.1c0-0.3,0-0.8,0-1.2c0-0.1-0.1-0.2-0.2-0.2h-0.7v1.6c0,0.3,0.3,0.6,0.6,0.6
					c0,0,1.2,0,2.2,0v0.6H227.7z M215.3,544.8c0-0.8,0-1.8,0-2.9h-2.4v3.7c0.7,0,1.6,0,1.6,0C215.1,545.5,215.3,545.2,215.3,544.8z
					 M214.3,544.9c-0.2,0-0.4,0-0.6,0v-2.3c0.3,0,0.6,0,0.8,0c0,0.7,0,1.5,0,2.1C214.5,544.8,214.4,544.9,214.3,544.9z M210.2,541
					c0,1.3,0,3,0,5.7h0.9c0-1.7,0-3.5,0-5.2c0.2,0,0.5,0,0.7,0c0,1,0,1.9,0,2.8c0,0.4-0.3,0.5-0.3,0.5v0.7c0.6,0,1.2-0.6,1.2-1.2
					c0-1.1,0-2.4,0-3.5c-0.8,0-1.4,0-2.2,0C210.2,540.8,210.2,541,210.2,541z M238,543.3c0-0.6,0-1.7,0-2.1c0-0.2-0.2-0.4-0.4-0.4
					h-3v0.7c0.8,0,1.6,0,2.3,0v1.8c-0.6,0-0.6,0-1.1,0c-0.1,0-0.1-0.1-0.1-0.1c0-0.3,0-0.8,0-1.2c0-0.1-0.1-0.2-0.2-0.2
					c-0.2,0-0.5,0-0.7,0v1.6c0,0.3,0.3,0.6,0.6,0.6c0,0,1.2,0,2.2,0v0.6h-2.4c-0.3,0-0.7,0.2-0.7,0.7c0.8,0,2.2,0,3.1,0v0.6
					c0,0.1-0.1,0.2-0.2,0.2h-0.4c0,0.3,0,0.5,0,0.7h0.5c0.2,0,0.1,0,0.3,0c0.5,0,0.7-0.3,0.6-0.6c0-0.8,0-1.9,0-2.8
					C238.3,543.3,238.1,543.3,238,543.3z M233.7,545.5c0.3-0.4,0.5-0.8,0.5-1.6c0-0.9,0-1.7,0-2.6c0-0.1-0.1-0.2-0.2-0.2
					c-0.3,0-0.8,0-1.1,0v-0.4H232c0,0.1,0,0.3,0,0.4c-0.1,0-0.2,0-0.3,0v0.7h0.3v2.1c0,0.8,0.3,1.2,0.6,1.6
					c-0.4,0.3-0.8,0.4-1.3,0.4c-0.1,0-0.2,0-0.2,0c-0.8,0-1.9,0-2.7,0c-0.8,0-1.6-0.2-2-0.5c0.3-0.4,0.4-0.7,0.5-1.5
					c0-0.8,0-1.5,0-2.5c0-0.1-0.1-0.2-0.2-0.2c-0.4,0-0.7,0-1.1,0v-0.4c-0.4,0-0.5,0-0.9,0v0.4c-0.1,0-0.2,0-0.3,0v0.7
					c0.1,0,0.2,0,0.3,0c0,0.7,0,1.5,0,2.1c0.1,0.8,0.3,1.1,0.6,1.5c-0.5,0.3-1,0.5-1.6,0.5c-0.8,0-1.5,0-2.4,0c0-0.2,0-0.4,0-0.5
					h2.4v-0.7h-2.4c0-0.2,0-0.3,0-0.5c0.7,0,1.6,0,1.8,0c0,0,0.6,0,0.6-0.6c0-0.7,0-1.9,0-2.8c-1.9,0-3.9,0-5.8,0
					c-0.1,0-0.2,0.1-0.2,0.2c0,0.1,0,2.3,0,3.3c0.8,0,1.6,0,2.4,0v0.5h-2.4c0,0.2,0,0.5,0,0.7h2.4c0,0.2,0,0.3,0,0.5h-2.8
					c0,0.2,0,0.5,0,0.7c2.1,0,4.8,0,6.8,0c0.6,0,1.2-0.3,1.7-0.6c0.6,0.5,1.3,0.6,2.5,0.6c0.3,0,0.7,0,1.2,0c0.6,0,1.1,0,1.6,0
					c1,0,1.6-0.2,2.2-0.6c0.5,0.3,1.1,0.5,1.9,0.6v0h1.3V546h-1.3C234.5,545.9,234.1,545.8,233.7,545.5z M220.1,543.6h-1.5v-0.7h1.5
					V543.6z M220.1,542.2h-1.5v-0.7c0.5,0,1,0,1.5,0V542.2z M221.2,541.5h1.5v0.7h-1.5V541.5z M221.2,542.9c0.5,0,1,0,1.5,0
					c0,0.3,0,0.5,0,0.7h-1.5C221.2,543.4,221.2,543.1,221.2,542.9z M226,544c0,0.5-0.1,0.6-0.2,0.9c-0.1-0.3-0.3-0.4-0.3-0.9
					c0-0.6,0-1.4,0-2.1h0.5V544z M233.4,544c0,0.4-0.1,0.6-0.2,0.9c-0.1-0.2-0.3-0.5-0.3-0.9c0-0.6,0-1.4,0-2.1h0.5
					C233.4,542.5,233.4,543.3,233.4,544z"/>
			</g>
		</g>
	</g>
</g>
<g>
	<defs>
		<rect id="SVGID_6_" x="8" y="9.7" width="240.7" height="119.2"/>
	</defs>
	<clipPath id="SVGID_7_">
		<use xlink:href="#SVGID_6_"  style="overflow:visible;"/>
	</clipPath>
	<g style="clip-path:url(#SVGID_7_);">
		<path style="fill:#FD4B00;" d="M11.7-84.3c-25.9,3.3-46.1,11.5-59.9,21.4c-18.6,13.2-26.8,30.1-26.6,42.6c0,1.2,0.1,2.5,0.3,3.9
			c3.6-34,54.8-19.3,105.1-39c5.1-2,14.3-8.4,24.6-15.7c-6.2-2.1-10.1-3.6-10.1-3.6S30.3-81,11.7-84.3"/>
		<path style="fill:#FD4B00;" d="M72.6-83.3c-5.8,3.9-11.7,8.1-17.3,12.1c8.7,2.9,22.1,6.8,36.1,9.1c6.7,1.1,13.6,1.8,20.1,1.8
			c6.4,0,12.4-0.7,17.8-2.2C104.3-77.1,80.8-82,80.8-82C78.1-82.4,75.3-82.9,72.6-83.3"/>
		<path style="fill:#FF6600;" d="M37.6-85.9c-9.2,0-17.8,0.6-25.9,1.6c18.5,3.3,33.5,9.5,33.5,9.5s3.8,1.5,10.1,3.6
			c5.6-3.9,11.5-8.2,17.3-12.1C60.2-85.1,48.5-85.9,37.6-85.9"/>
		<path style="fill:#FED7B2;" d="M172.8-75.1c-1.5,0-3,0.1-4.6,0.2c5.4,7.2,9.1,15.6,10.4,24.5c1.5,10-0.1,20.4-3.9,30.6
			c5.9,14.6,16.7,36.3,11.6,61.1c0.2,0,0.4,0.1,0.6,0.1l0.3,0l0.1,0c2.3,0.4,4.5,0.5,6.7,0.5c24.9,0,40.6-23.6,41.1-49.3
			c0.3-17.3-2-30.6-17.8-49.7c0,0-12.6-13.7-34.4-17.2C179.8-74.8,176.4-75.1,172.8-75.1 M-9.1-86.2c-8,0-15.9,1-23,3.7
			c-23.8,9.1-45.4,28.8-46.1,77.2C-78.9,49.9-32.4,95,21,103.8c0.2,0,0.4,0.1,0.6,0.1c8.1,1.3,15.7,1.9,22.9,1.9
			c26.8,0,46.6-8.5,60.8-20.3c0.3-0.2,0.6-0.5,0.9-0.7c-14-6.3-27.6-14.5-40.2-20.7c-1.6,0.3-3.1-1.1-4.6-0.9
			c-7,1-14.2,1.5-21.4,1.5c-53,0-103.5-28.1-113.8-69.2c-0.7-4.6-0.8-8.5-0.4-12c-0.2-1.3-0.3-2.6-0.3-3.9
			c-0.1-12.4,8-29.3,26.6-42.6c13.8-9.8,34-18,59.9-21.4c-0.8-0.1-1.5-0.3-2.3-0.4C3.5-85.6-2.9-86.2-9.1-86.2"/>
		<path style="fill:#FF9B48;" d="M-74.4-16.5c-0.4,3.5-0.2,7.4,0.4,12C-67.6,39-13.1,66.3,39.8,66.3c7.2,0,14.4-0.5,21.4-1.5
			c1.5-0.2,4.7-0.5,6.3-0.8C54.3,53.9,44.4,43.1,39.4,38.4C22.4,20,5.2,12.8-13.5,12.8c-2.7,0-5.6,0.1-8.5,0.3
			c-2.1,0.1-4.2,0.2-6.2,0.2C-59.6,13.4-72.3-2.7-74.4-16.5 M168.2-75c-9.6,0.7-20.4,3.5-32.2,9.7c-2.1,1.1-4.3,2-6.7,2.7
			c12.1,9.6,23.5,20,36.5,32.2c0,0,4.9,3.9,8.9,10.5c3.9-10.2,5.4-20.6,3.9-30.6C177.3-59.4,173.6-67.7,168.2-75"/>
		<path style="fill:#FDBC52;" d="M116.5-100.9c-5.1,0-10.2,0.6-15.3,1.9c-7.1,1.7-17.6,8.2-28.7,15.7c2.7,0.4,5.4,0.8,8.2,1.3
			c0,0,23.4,4.8,48.5,19.4c2.4-0.7,4.6-1.6,6.7-2.7c11.8-6.2,22.6-9,32.2-9.7C156.6-90.5,137.1-100.9,116.5-100.9"/>
		<path style="fill:#FF6600;" d="M174.3,38.6c-29.6-2-43.7,20.2-68.2,46.1c5.2,1.2,10.5,2,16,2c12.4,0,25.4-3.7,38.6-12.9
			c14.2-10,22-21.2,25.5-32.5C182,40.5,178,38.6,174.3,38.6"/>
		<path style="fill:#FD4B00;" d="M174.7-19.9C158,16.6,110,53,65.9,64c11.3,8.7,25.1,17,40.2,20.7c27.7-23.4,38.2-44.5,68.2-44.5
			c3.7,0,7.7,0.3,12,1C193.8,17.4,182.8-6.6,174.7-19.9"/>
		<path style="fill:#FF6600;" d="M55.3-71.2C45-63.9,35.8-57.5,30.7-55.5c-50.4,19.7-101.6,4.9-105.1,39C-72.3-2.7-59.6,15-28.3,15
			c2,0,4.1-0.1,6.2-0.2c3-0.2,5.8-0.3,8.5-0.3c18.7,0,32.5,6.3,51.3,24c5,4.7,14.9,15.5,28.1,25.6c45.5-8.4,94.1-45.1,108.8-83.9
			c-4-6.5-7.3-10.5-7.3-10.5c-11-14-24.8-24.5-38.1-32.2c-5.4,1.6-11.4,2.2-17.8,2.2c-6.6,0-13.4-0.7-20.1-1.8
			C77.4-64.4,64.1-68.3,55.3-71.2"/>
		<path style="fill:#FED7B2;" d="M197,110.5c-3.1,0-5.9,2.2-6.6,5.4c-0.7,3.5,1.5,6.9,4.9,7.8l0.4,0.1c0.4,0.1,0.9,0.1,1.3,0.1
			c3.1,0,5.9-2.2,6.6-5.4c0.7-3.5-1.5-6.9-4.9-7.8l-0.4-0.1C197.9,110.6,197.5,110.5,197,110.5 M176.6,80.4c-8.3,0-14.9,6.4-15,14.4
			c0,7,4.9,12.9,11.6,14.6c1.1,0.3,2.3,0.5,3.6,0.5c0.1,0,0.3,0,0.4,0c8.3,0,14.9-6.4,15-14.4c0-7-4.9-12.9-11.6-14.6
			c-1.1-0.3-2.3-0.5-3.6-0.5C176.9,80.4,176.7,80.4,176.6,80.4"/>
	</g>
</g>
<g>
	<defs>
		<rect id="SVGID_8_" x="732" y="9.4" width="142.8" height="56.6"/>
	</defs>
	<clipPath id="SVGID_9_">
		<use xlink:href="#SVGID_8_"  style="overflow:visible;"/>
	</clipPath>
	<path style="clip-path:url(#SVGID_9_);fill:#FF9B48;" d="M864.9,19.1c-7.8,0-15.3,2.6-25.2,8.7c-4.3,2.6-13.9,9.5-25.6,14.2
		c4.7,2.6,9.5,4.7,14.4,6.3c3.8,1.2,7.7,2.2,11.7,2.9c4.7,0.8,9.4,1.2,13.9,1.2c23.4,0,42.8-10.9,49.3-30.5c0.2-0.7,0.4-1.3,0.6-2
		c-3.5,2-8,3.3-13.5,3.3c-2.6,0-5.5-0.3-8.6-0.9c-1.2-0.2-2.4-0.5-3.7-0.9c-1.7-0.5-3.4-0.9-5-1.3C870.3,19.4,867.5,19.1,864.9,19.1
		 M806.2-45.7c-8.3,0.2-16.4,3.3-22.5,8.4C791.3-41.3,799.2-44,806.2-45.7"/>
	<path style="clip-path:url(#SVGID_9_);fill:#FED7B2;" d="M783.7-37.3c-4.3,2.3-8.5,5-12.4,8.3c0,0-38.8,30.6-9,62.3
		c6.7,7.1,14,10.9,21.3,12.4c2.8,0.6,5.6,0.9,8.4,0.9c7.7,0,15.2-2,22.1-4.7C788,27.5,766.4-0.8,773.9-23.3
		C775.7-28.8,779.2-33.6,783.7-37.3 M829.1-48.7c-0.5,0-10.3,0-22.9,3.1c0.3,0,0.6,0,0.9,0c2,0,4,0.2,6,0.5c2.8,0.5,5.6,1.3,8.3,2.5
		c9.3,4.1,28.1,26.7,34.9,30.8c27.9,16.8,54.4,7.6,47.6,31.7c5.8-3.3,8.9-8.4,9.9-12.8c1.6-7.3-1.1-18.3-10.5-28.5
		c-9.1-9.9-25.2-19.5-48-24.3C847.4-47.3,838.7-48.4,829.1-48.7C829.2-48.7,829.2-48.7,829.1-48.7"/>
	<path style="clip-path:url(#SVGID_9_);fill:#FF6600;" d="M807.1-45.7c-0.3,0-0.6,0-0.9,0c-7,1.7-14.9,4.3-22.5,8.4
		c-4.5,3.7-8,8.5-9.8,14C766.4-0.8,788,27.5,814,41.9c11.8-4.7,21.3-11.6,25.6-14.2c10-6,17.5-8.7,25.2-8.7c2.7,0,5.4,0.3,8.2,0.9
		c1.6,0.3,3.3,0.8,5,1.3c1.3,0.4,2.5,0.7,3.7,0.9c3.1,0.7,6,0.9,8.6,0.9c5.5,0,10-1.3,13.5-3.3c6.8-24.1-19.7-14.8-47.6-31.7
		c-6.8-4.1-25.6-26.7-34.9-30.8c-2.7-1.2-5.5-2-8.3-2.5C811.2-45.5,809.2-45.7,807.1-45.7"/>
</g>
</svg>
