<?xml version="1.0" encoding="utf-8"?>
<!-- Generator: Adobe Illustrator 17.1.0, SVG Export Plug-In . SVG Version: 6.00 Build 0)  -->
<!DOCTYPE svg PUBLIC "-//W3C//DTD SVG 1.1//EN" "http://www.w3.org/Graphics/SVG/1.1/DTD/svg11.dtd">
<svg version="1.1" id="图层_1" xmlns="http://www.w3.org/2000/svg" xmlns:xlink="http://www.w3.org/1999/xlink" x="0px" y="0px"
	 viewBox="0 0 352.5 778.2" style="enable-background:new 0 0 352.5 778.2;" xml:space="preserve">
<g>
	<rect x="6.8" y="7" style="fill:#FFFFFF;stroke:#D8D8D8;stroke-miterlimit:10;" width="339.3" height="765.4"/>
	<g>
		<path style="fill:#FF6600;" d="M217.6,214.1h-49.9c-4,0-7.3-3.3-7.3-7.3s3.3-7.3,7.3-7.3h49.9c4,0,7.3,3.3,7.3,7.3
			S221.6,214.1,217.6,214.1z"/>
		<path style="fill:#FF6600;" d="M192.6,239.1c-4,0-7.3-3.3-7.3-7.3v-49.9c0-4,3.3-7.3,7.3-7.3s7.3,3.3,7.3,7.3v49.9
			C199.9,235.9,196.6,239.1,192.6,239.1z"/>
		<g>
			<path style="fill:#FDBC52;" d="M249.9,248.3H243c-0.6,0-1-0.4-1-1c0-0.6,0.4-1,1-1h6.9c0.6,0,1,0.4,1,1
				C250.9,247.8,250.4,248.3,249.9,248.3z"/>
			<path style="fill:#FDBC52;" d="M246.4,251.7c-0.6,0-1-0.4-1-1v-6.9c0-0.6,0.4-1,1-1c0.6,0,1,0.4,1,1v6.9
				C247.4,251.3,247,251.7,246.4,251.7z"/>
		</g>
		<g>
			<path style="fill:#FDBC52;" d="M199,353.1h-3.9c-0.3,0-0.6-0.3-0.6-0.6s0.3-0.6,0.6-0.6h3.9c0.3,0,0.6,0.3,0.6,0.6
				S199.3,353.1,199,353.1z"/>
			<path style="fill:#FDBC52;" d="M197.1,355c-0.3,0-0.6-0.3-0.6-0.6v-3.9c0-0.3,0.3-0.6,0.6-0.6s0.6,0.3,0.6,0.6v3.9
				C197.6,354.7,197.4,355,197.1,355z"/>
		</g>
		<path style="fill:#FDBC52;" d="M82.2,204h-4.5c-0.4,0-0.7-0.3-0.7-0.7c0-0.4,0.3-0.7,0.7-0.7h4.5c0.4,0,0.7,0.3,0.7,0.7
			C82.9,203.8,82.6,204,82.2,204z"/>
		<path style="fill:#FDBC52;" d="M79.9,206.3c-0.4,0-0.7-0.3-0.7-0.7v-4.5c0-0.4,0.3-0.7,0.7-0.7c0.4,0,0.7,0.3,0.7,0.7v4.5
			C80.6,206,80.3,206.3,79.9,206.3z"/>
		<g>
			<defs>
				<polygon id="SVGID_1_" points="6.8,438.5 188.2,438.5 187.6,164.9 6.8,164.9 				"/>
			</defs>
			<clipPath id="SVGID_2_">
				<use xlink:href="#SVGID_1_"  style="overflow:visible;"/>
			</clipPath>
			<g style="clip-path:url(#SVGID_2_);">
				<path style="fill:#FF6600;" d="M164,251.3H-13.6c-4.2,0-7.7-3.4-7.7-7.7c0-4.2,3.4-7.7,7.7-7.7H164c4.2,0,7.7,3.4,7.7,7.7
					C171.7,247.8,168.2,251.3,164,251.3z"/>
				<path style="fill:#FF6600;" d="M151.9,295H-1.5c-4.2,0-7.7-3.4-7.7-7.7c0-4.2,3.4-7.7,7.7-7.7h153.4c4.2,0,7.7,3.4,7.7,7.7
					C159.6,291.6,156.1,295,151.9,295z"/>
				<path style="fill:#00A199;" d="M-1.5,315.9c-4.2,0-7.7-3.4-7.7-7.7v-20.9c0-4.2,3.4-7.7,7.7-7.7c4.2,0,7.7,3.4,7.7,7.7v20.9
					C6.2,312.5,2.7,315.9-1.5,315.9z"/>
				<path style="fill:#FF6600;" d="M151.9,315.9H-1.5c-4.2,0-7.7-3.4-7.7-7.7c0-4.2,3.4-7.7,7.7-7.7h153.4c4.2,0,7.7,3.4,7.7,7.7
					C159.6,312.5,156.1,315.9,151.9,315.9z"/>
				<path style="fill:#5C82B4;" d="M151.9,315.9c-4.2,0-7.7-3.4-7.7-7.7v-20.9c0-4.2,3.4-7.7,7.7-7.7s7.7,3.4,7.7,7.7v20.9
					C159.6,312.5,156.1,315.9,151.9,315.9z"/>
				<path style="fill:#EB6300;" d="M-1.5,273.5c-4.2,0-7.7-3.4-7.7-7.7v-21.3c0-4.2,3.4-7.7,7.7-7.7c4.2,0,7.7,3.4,7.7,7.7v21.3
					C6.2,270.1,2.7,273.5-1.5,273.5z"/>
				<path style="fill:#FDBC52;" d="M151.9,273.5H-1.5c-4.2,0-7.7-3.4-7.7-7.7c0-4.2,3.4-7.7,7.7-7.7h153.4c4.2,0,7.7,3.4,7.7,7.7
					C159.6,270.1,156.1,273.5,151.9,273.5z"/>
				<path style="fill:#FF6600;" d="M173.4,412.3c-3.3,0-10.8-0.7-16.9-6.3c-5.5-5-8.3-12.4-8.3-21.8v-53.5c0-4.2,3.4-7.7,7.7-7.7
					c4.2,0,7.7,3.4,7.7,7.7v53.5c0,4.9,1.1,8.4,3.2,10.4c2.8,2.6,6.9,2.4,6.9,2.4c4.2-0.4,8.5,2.7,8.9,7c0.4,4.2-3.4,8-7.6,8.3
					C174.7,412.2,174.2,412.3,173.4,412.3z"/>
				<path style="fill:#FF6600;" d="M155.8,338.3h-35.9c-4.2,0-7.7-3.4-7.7-7.7c0-4.2,3.4-7.7,7.7-7.7h35.9c4.2,0,7.7,3.4,7.7,7.7
					C163.5,334.9,160,338.3,155.8,338.3z"/>
				<path style="fill:#FF6600;" d="M119.9,412.3c-4.2,0-7.7-3.4-7.7-7.7v-74c0-4.2,3.4-7.7,7.7-7.7c4.2,0,7.7,3.4,7.7,7.7v74
					C127.5,408.8,124.1,412.3,119.9,412.3z"/>
				<path style="fill:#EB6300;" d="M-24,412.3c-0.8,0-1.3,0-1.5-0.1c-4.2-0.4-7.3-4.1-7-8.3c0.4-4.2,4.1-7.4,8.3-7c0,0,0,0,0.2,0
					c0.8,0,4.3-0.1,6.7-2.4c2.1-2,3.2-5.5,3.2-10.4v-53.5c0-4.2,3.4-7.7,7.7-7.7c4.2,0,7.7,3.4,7.7,7.7v53.5
					c0,9.5-2.8,16.8-8.3,21.8C-13.2,411.6-20.7,412.3-24,412.3z"/>
				<path style="fill:#5C82B4;" d="M29.5,338.3H-6.4c-4.2,0-7.7-3.4-7.7-7.7c0-4.2,3.4-7.7,7.7-7.7h35.9c4.2,0,7.7,3.4,7.7,7.7
					C37.2,334.9,33.8,338.3,29.5,338.3z"/>
				<path style="fill:#FF6600;" d="M29.5,412.3c-4.2,0-7.7-3.4-7.7-7.7v-74c0-4.2,3.4-7.7,7.7-7.7c4.2,0,7.7,3.4,7.7,7.7v74
					C37.2,408.8,33.8,412.3,29.5,412.3z"/>
				<path style="fill:#B4AB76;" d="M95.7,391.8c-4.2,0-7.7-3.4-7.7-7.7v-53.5c0-4.2,3.4-7.7,7.7-7.7c4.2,0,7.7,3.4,7.7,7.7v53.5
					C103.4,388.4,100,391.8,95.7,391.8z"/>
				<path style="fill:#FF6600;" d="M95.7,338.3H54.7c-4.2,0-7.7-3.4-7.7-7.7c0-4.2,3.4-7.7,7.7-7.7h41.1c4.2,0,7.7,3.4,7.7,7.7
					C103.4,334.9,100,338.3,95.7,338.3z"/>
				<path style="fill:#FDBC52;" d="M54.7,391.8c-4.2,0-7.7-3.4-7.7-7.7v-53.5c0-4.2,3.4-7.7,7.7-7.7s7.7,3.4,7.7,7.7v53.5
					C62.3,388.4,58.9,391.8,54.7,391.8z"/>
				<path style="fill:#FF6600;" d="M29.5,363.4H-6.4c-4.2,0-7.7-3.4-7.7-7.7s3.4-7.7,7.7-7.7h35.9c4.2,0,7.7,3.4,7.7,7.7
					S33.8,363.4,29.5,363.4z"/>
				<path style="fill:#FF6600;" d="M29.5,388.9H-6.4c-4.2,0-7.7-3.4-7.7-7.7c0-4.2,3.4-7.7,7.7-7.7h35.9c4.2,0,7.7,3.4,7.7,7.7
					C37.2,385.5,33.8,388.9,29.5,388.9z"/>
				<path style="fill:#5C82B4;" d="M53.5,412.3c-4.2,0-7.6-3.4-7.7-7.6c0-4.2,3.4-7.7,7.6-7.7c3.1-0.1,13.5-1.5,13.5-15.5
					c0-4.2,3.4-7.7,7.7-7.7c4.2,0,7.7,3.4,7.7,7.7c0,12.2-5.2,21.8-14.5,27C60.9,412.1,54.2,412.3,53.5,412.3
					C53.5,412.3,53.5,412.3,53.5,412.3z"/>
				<path style="fill:#FF6600;" d="M74.6,389c-4.2,0-7.7-3.4-7.7-7.7v-32.2c0-4.2,3.4-7.7,7.7-7.7c4.2,0,7.7,3.4,7.7,7.7v32.2
					C82.3,385.6,78.8,389,74.6,389z"/>
				<path style="fill:#FF6600;" d="M94.5,412.3h-5.9c-4.2,0-7.7-3.4-7.7-7.7s3.4-7.7,7.7-7.7h5.9c4.2,0,7.7,3.4,7.7,7.7
					S98.7,412.3,94.5,412.3z"/>
				<path style="fill:#FF6600;" d="M137.8,378.2c-4.2,0-7.7-3.4-7.7-7.7v-5.9c0-4.2,3.4-7.7,7.7-7.7c4.2,0,7.7,3.4,7.7,7.7v5.9
					C145.5,374.8,142.1,378.2,137.8,378.2z"/>
			</g>
		</g>
		<g>
			<defs>
				<rect id="SVGID_3_" x="121.2" y="7" width="225.8" height="155.8"/>
			</defs>
			<clipPath id="SVGID_4_">
				<use xlink:href="#SVGID_3_"  style="overflow:visible;"/>
			</clipPath>
			<g style="clip-path:url(#SVGID_4_);">
				<path style="fill:none;stroke:#FDBC52;stroke-width:0.5;stroke-miterlimit:10;" d="M186.1,115c-0.1,0-0.2,0-0.3,0
					c-3.2-0.2-5.7-2.9-5.5-6.1c0.2-3.1,2.7-5.5,5.8-5.5c0.1,0,0.2,0,0.3,0c3.2,0.2,5.7,2.9,5.5,6.1C191.8,112.6,189.2,115,186.1,115
					z M186.1,103.6c-3,0-5.5,2.4-5.6,5.4c-0.2,3.1,2.2,5.8,5.3,6c0.1,0,0.2,0,0.3,0c3,0,5.5-2.4,5.6-5.4c0.2-3.1-2.2-5.8-5.3-6
					C186.3,103.6,186.2,103.6,186.1,103.6z"/>
				<path style="fill:none;stroke:#FF6600;stroke-width:0.5;stroke-miterlimit:10;" d="M207.5,105.1c-1,0-2.1-0.1-3.1-0.4
					c-3.4-0.8-6.3-2.9-8.2-5.9c-1.9-3-2.4-6.6-1.6-10c1.4-6,6.7-10.2,12.9-10.2c1,0,2.1,0.1,3.1,0.4c3.4,0.8,6.3,2.9,8.2,5.9
					c1.9,3,2.4,6.6,1.6,10C218.9,100.9,213.7,105.1,207.5,105.1z M207.5,78.8c-6.1,0-11.3,4.1-12.7,10c-0.8,3.4-0.3,6.9,1.6,9.9
					c1.8,3,4.7,5,8.1,5.9c1,0.2,2,0.4,3,0.4c6.1,0,11.3-4.1,12.7-10c0.8-3.4,0.3-6.9-1.6-9.9c-1.8-3-4.7-5-8.1-5.9
					C209.5,78.9,208.5,78.8,207.5,78.8z"/>
				<path style="fill:#FF6600;" d="M239.5,107.4L239.5,107.4c-10.6,0-20.8-3.5-30.4-10.3c-12.6-9-19.9-20.2-21.7-33.2
					C184,38.3,203.5,14,203.7,13.7c24.6-31.8,67.5-40.4,67.9-40.5c11.6-2.1,23-3.1,33.9-3.1c36.5,0,57.8,11.5,67.2,18.4
					c15.6,11.3,21.1,25.1,20.9,34.1c-0.1,6.6-3.2,13.5-8.2,18.5c-7.5,7.4-19.1,10.8-33.3,9.8c-2.4-0.2-4.6-0.3-6.7-0.3
					c-15.3,0-25.8,4.8-39.9,18.3c-0.9,0.9-2,2-3.4,3.3C291,83.7,267.5,107.4,239.5,107.4z M305.5-29.3c-10.8,0-22.2,1-33.8,3.1
					c-0.4,0.1-43.1,8.6-67.6,40.3c-0.2,0.2-19.6,24.3-16.2,49.7c1.7,12.8,8.9,23.8,21.4,32.8c9.5,6.8,19.6,10.2,30,10.2h0
					c27.8,0,51.2-23.6,62.4-35c1.3-1.3,2.4-2.5,3.4-3.4C319.4,54.8,330,50,345.5,50c2.1,0,4.3,0.1,6.7,0.3c1.6,0.1,3.3,0.2,4.8,0.2
					c28.3,0,35.9-18.2,36.1-27.8c0.1-8.9-5.3-22.5-20.7-33.6C363-17.8,341.8-29.3,305.5-29.3z"/>
				<path style="fill:#FF9E12;" d="M311.7,133.6c-17.1,0-41-4-57.2-23.1c-4.8-5.6-8.6-11-12.1-15.7c-11-15.3-18.3-25.4-40.4-25.4
					l-0.3,0c-8.2,0-15.3-3.2-20.5-9.1c-6.8-7.8-9.8-19.7-8.1-31.9c1.8-12.7,5.1-21.4,18.3-33.2c0.1-0.1,10.7-8.5,26.5-8.5
					c11,0,21.9,4.1,32.3,12c6.4,4.9,16.8,7.4,31,7.4c17.1,0,33.8-3.7,34-3.8c0.1,0,12.4-3,26.5-3c12.2,0,22.1,2.2,29.3,6.4
					c20.3,12,28.1,32.1,23.9,61.3c-2.7,18.8-13,36-29,48.3c-15.3,11.8-34.4,18.3-53.8,18.3L311.7,133.6z M202,68.7
					c22.4,0,30.1,10.8,40.9,25.7c3.4,4.8,7.3,10.1,12,15.7C271,129,294.7,133,311.7,133l0.4,0c19.3-0.1,38.3-6.5,53.5-18.2
					c15.9-12.2,26.1-29.2,28.8-47.9c4.2-29-3.5-48.8-23.6-60.7c-7.1-4.2-16.8-6.3-29-6.3c-14,0-26.2,2.9-26.4,2.9
					c-0.2,0-16.9,3.8-34.1,3.8c-14.3,0-24.9-2.5-31.4-7.5c-10.3-7.9-21-11.9-31.9-11.9c-15.5,0-25.9,8.2-26.1,8.3
					c-13.1,11.7-16.4,20.3-18.1,32.9c-1.7,12,1.3,23.8,7.9,31.4c5.1,5.8,12,8.9,20,8.9H202z"/>
				<path style="fill:#FDBC52;" d="M312.6,113.7c-4.8,0-9.8-0.4-14.9-1.1c-19.8-2.9-40.4-14.4-56.3-31.7
					c-15.3-16.6-23.8-35.8-22.7-51.4c0.8-12.5,6.9-24.1,16.8-31.7c9.4-7.3,21.1-10.1,33-7.9c10.6,2,18.3,11.1,26.4,20.8
					c7.1,8.4,14.4,17.1,24.5,22.9c9.8,5.5,19.9,8.1,28.9,10.3c15,3.7,26.9,6.7,26.4,22.2l-0.6,0c0.4-15.1-10.6-17.8-26-21.6
					c-9-2.2-19.2-4.7-29-10.3c-10.3-5.8-17.6-14.6-24.7-23.1c-8.1-9.6-15.7-18.7-26-20.6c-11.7-2.2-23.2,0.6-32.5,7.8
					c-9.7,7.5-15.7,18.9-16.5,31.3c-1,15.4,7.4,34.5,22.6,50.9c15.8,17.2,36.2,28.6,55.9,31.5c23.8,3.4,45.7-1.4,60.1-13.2
					c10-8.3,15.6-19.4,16.2-32l0.6,0c-0.6,12.8-6.3,24-16.4,32.4C346.9,108.7,330.7,113.7,312.6,113.7z"/>
			</g>
		</g>
		<path style="fill:#FF6600;" d="M84.5,207.1c0,0-0.4-0.6-1.6-0.6c-0.4,0-5.4,0-5.8,0c-1.2,0-1.6,0.6-1.6,0.6s-0.6,0.6-0.1,1.6
			c0.6,1.3,1.7,3.5,1.7,3.5h6c0,0,1.1-2.2,1.7-3.5C85.1,207.7,84.5,207.1,84.5,207.1z"/>
		<path style="fill:#FF6600;" d="M84.4,215.7h-8.9c-0.7,0-1.3-0.5-1.3-1c0-0.6,0.6-1,1.3-1h8.9c0.7,0,1.3,0.5,1.3,1
			C85.7,215.2,85.1,215.7,84.4,215.7z"/>
		<path style="fill:#FF6600;" d="M83.5,214.1h-7.1c-0.6,0-1-0.4-1-0.8s0.5-0.8,1-0.8h7.1c0.6,0,1,0.4,1,0.8S84.1,214.1,83.5,214.1z"
			/>
		<path style="fill:#FF6600;" d="M84.5,231.5h-9.2c-0.7,0-1.3-0.5-1.3-1c0-0.6,0.6-1,1.3-1h9.2c0.7,0,1.3,0.5,1.3,1
			C85.9,231,85.3,231.5,84.5,231.5z"/>
		<path style="fill:#FF6600;" d="M87.9,232.8c-3.8-2-4.3-6.7-4.8-11.2c-0.4-3.4-0.3-6-0.3-6.9H77c0.1,0.9,0.1,3.5-0.3,6.9
			c-0.5,4.6-1,9.2-4.8,11.2c-1.3,0.7-2.1,2.1-0.8,3v0.6h17.5v-0.6C90,234.9,89.2,233.5,87.9,232.8z"/>
		<path style="fill:#FF6600;" d="M191.9,433c-4.2,0-7.6,3.4-7.6,7.6c0,4.4,2.8,5.8,4.5,9.5c2,4.3,3.1,8.2,3.1,8.2s1.1-4,3.1-8.3
			c1.7-3.6,4.5-5.1,4.5-9.4C199.5,436.4,196.1,433,191.9,433z M191.9,444.1c-1.9,0-3.4-1.5-3.4-3.4c0-1.9,1.5-3.4,3.4-3.4
			c1.9,0,3.4,1.5,3.4,3.4C195.3,442.6,193.8,444.1,191.9,444.1z"/>
		<g id="阿里妈妈_10_">
			<g>
				<path style="fill-rule:evenodd;clip-rule:evenodd;fill:#FF6600;" d="M254.3,35.5c2.5,0,5,0,7.5,0c0,3.7,0,7.5,0,11
					c0,0.2-0.3,0.5-0.6,0.6c-0.4,0-0.6,0-1,0v1.8c0.6,0,1.1,0,1.6,0c1.4,0,2.4-0.7,2.4-1.9c0-2.8,0-8.5,0-11.4h0.9v-1.7h-10.7V35.5z
					 M292.5,43.4c-0.7,0-1.7,0.7-1.7,1.7c2.2,0,5.6,0,8,0c0,0.4,0,0.9,0,1.4c0.8,0,0.5,0,1.3,0c0.5,0,1.1-0.4,1.1-1.1
					c0-1.9,0-3.4,0-5.3c-0.4,0-0.7,0-1.1,0c0-1.4,0-4.4,0-5.5c0-0.4-0.4-0.9-1-0.9h-7.8v1.7h6c0,1.6,0,3.1,0,4.7c-1.4,0-1.7,0-2.9,0
					c-0.2,0-0.3-0.2-0.3-0.3c0-0.8,0-2,0-3.1c0-0.2-0.2-0.5-0.6-0.5h-1.8v4.1c0,0.8,0.7,1.5,1.5,1.5c0,0,3.1,0,5.6,0v1.5H292.5z
					 M260.7,43.9c0-2,0-4.7,0-7.4h-6.2v9.4c1.8,0,4.1,0,4.1,0C260.1,45.9,260.7,45.1,260.7,43.9z M258,44.2c-0.4,0-0.9,0-1.6,0v-5.9
					c0.7,0,1.4,0,2.1,0c0,1.8,0,3.8,0,5.3C258.6,44,258.4,44.2,258,44.2z M247.3,34.2c0,3.4,0,7.8,0,14.6h2.3c0-4.3,0-8.9,0-13.3
					c0.5,0,1.2,0,1.7,0c0,2.6,0,4.8,0,7.2c0,1-0.9,1.3-0.9,1.3v1.9c1.6,0,3.1-1.7,3.1-3.2c0-2.7,0-6.2,0-9c-2.1,0-3.7,0-5.7,0
					C247.3,33.7,247.3,34.2,247.3,34.2z M319,40.1c0-1.4,0-4.4,0-5.5c0-0.4-0.4-0.9-1-0.9h-7.8v1.7c2,0,4,0,6,0v4.7
					c-1.4,0-1.7,0-2.9,0c-0.2,0-0.3-0.2-0.3-0.3c0-0.8,0-2,0-3.1c0-0.2-0.2-0.5-0.6-0.5c-0.5,0-1.2,0-1.8,0v4.1
					c0,0.8,0.7,1.5,1.5,1.5c0,0,3.1,0,5.6,0v1.5h-6.1c-0.7,0-1.8,0.6-1.8,1.7c2.2,0,5.6,0,7.9,0v1.6c0,0.3-0.2,0.4-0.5,0.4h-0.9
					c0,0.8,0,1.2,0,1.7h1.4c0.4,0,0.3,0,0.8,0c1.2,0,1.7-0.8,1.7-1.5c0-2.2,0-5,0-7.1C319.7,40.1,319.3,40.1,319,40.1z M307.9,45.9
					c0.8-0.9,1.3-2,1.4-4.1c0-2.2,0-4.4,0-6.6c0-0.2-0.2-0.4-0.5-0.4c-0.9,0-2,0-2.9,0v-1h-2.3c0,0.3,0,0.7,0,1c-0.2,0-0.5,0-0.8,0
					v1.7h0.8v5.4c0,2.1,0.7,3.1,1.5,4.1c-1,0.7-2,1.1-3.5,1.1c-0.2,0-0.4,0-0.6,0c-2.2,0-4.8,0-7.1,0c-2.2,0-4.2-0.4-5-1.3
					c0.7-1,1.1-1.8,1.4-3.9c0-2.1,0-3.8,0-6.5c0-0.3-0.3-0.5-0.5-0.6c-0.9,0-1.8,0-2.9,0v-1c-0.9,0-1.3,0-2.2,0v1
					c-0.3,0-0.4,0-0.8,0v1.7c0.3,0,0.5,0,0.8,0c0,1.8,0,3.7,0,5.3c0.2,2.1,0.8,2.8,1.6,4c-1.2,0.8-2.6,1.2-4.2,1.3c-2,0-3.7,0-6.2,0
					c0-0.4,0-1,0-1.3h6.2v-1.8h-6.2c0-0.4,0-0.9,0-1.3c1.8,0,4.2,0,4.7,0c0,0,1.5,0,1.5-1.7c0-1.7,0-4.9,0-7.2c-4.9,0-9.9,0-14.9,0
					c-0.2,0-0.5,0.3-0.5,0.4c0,0.4,0,5.8,0,8.4c2.1,0,4.2,0,6.2,0v1.3h-6.2c0,0.6,0,1.2,0,1.8h6.2c0,0.4,0,0.9,0,1.3h-7.3
					c0,0.5,0,1.2,0,1.7c5.5,0,12.2,0,17.6,0c1.4,0,3.2-0.7,4.5-1.5c1.6,1.2,3.4,1.5,6.3,1.5c0.9,0,1.9,0,3,0c1.5,0,2.9,0,4.1,0
					c2.5,0,4-0.5,5.6-1.4c1.4,0.8,2.7,1.4,4.9,1.4v0h3.3v-1.7h-3.3C310.1,46.9,308.9,46.7,307.9,45.9z M272.9,40.9h-3.8v-1.8h3.8
					V40.9z M272.9,37.3h-3.8v-1.8c1.3,0,2.6,0,3.8,0V37.3z M275.8,35.5h3.8v1.8h-3.8V35.5z M275.8,39.1c1.3,0,2.6,0,3.8,0
					c0,0.7,0,1.3,0,1.8h-3.8C275.8,40.4,275.8,39.7,275.8,39.1z M288.2,41.9c-0.1,1.2-0.3,1.5-0.6,2.3c-0.4-0.7-0.7-1.1-0.8-2.3
					c0-1.6,0-3.7,0-5.3h1.3V41.9z M307.2,41.9c0,1.1-0.3,1.6-0.6,2.3c-0.4-0.6-0.7-1.2-0.7-2.3c0-1.7,0-3.7,0-5.4h1.3
					C307.2,38.2,307.2,40.2,307.2,41.9z"/>
			</g>
		</g>
		<g id="alimama.com_10_">
			<g>
				<path style="fill-rule:evenodd;clip-rule:evenodd;fill:#CBCBCB;" d="M251.4,52.1c-1.4,2.7-2.6,5.1-4.1,8h1.9
					c0.4-0.7,0.6-1.1,1-1.9c1,0,1.8,0,2.8,0c-0.2-0.6-0.4-1-0.5-1.5H251c0.5-0.9,0.7-1.4,1.4-2.7c0.7,2.1,1.5,4.2,2.2,6.1h1.8
					c-1-2.8-1.9-5.2-2.8-8H251.4z M256.8,60.1h1.7l0.4-8l-1.7,0L256.8,60.1z M259.4,60.1h1.8l0.2-5.9h-1.7L259.4,60.1z M259.8,52.1
					l-0.1,1.3c0,0,1.3,0,1.7,0l0.1-1.3C260,52.1,260,52.1,259.8,52.1z M270.7,54.2c-0.3-0.1-0.6-0.2-1-0.2c-0.2,0-0.4,0-0.6,0.1
					c-0.2,0-0.4,0.1-0.5,0.2c-0.1,0.1-0.3,0.1-0.4,0.2c-0.1,0.1-0.2,0.2-0.3,0.3c-0.1,0.1-0.2,0.2-0.2,0.3c-0.1-0.2-0.2-0.3-0.2-0.4
					c-0.1-0.1-0.1-0.2-0.2-0.3c-0.1-0.1-0.2-0.1-0.3-0.2c-0.1-0.1-0.3-0.1-0.4-0.1c-0.2,0-0.3,0-0.5,0c-0.2,0-0.5,0-0.7,0.1
					c-0.2,0.1-0.4,0.1-0.6,0.2c-0.2,0.1-0.3,0.2-0.4,0.3c-0.1,0.1-0.2,0.3-0.3,0.4l0-0.9h-1.6l-0.3,5.9c0,0,1.3,0,1.7,0
					c0-0.5,0-1.2,0.1-2.1c0-0.9,0.1-1.4,0.2-1.7c0.1-0.3,0.2-0.5,0.5-0.7c0.2-0.2,0.4-0.3,0.7-0.3c0.1,0,0.3,0,0.4,0.1
					c0.1,0.1,0.2,0.1,0.3,0.2c0.1,0.1,0.1,0.2,0.2,0.3c0,0.1,0,0.3,0,0.4c0,0.3,0,0.9-0.1,1.9c-0.1,0.9-0.1,1.5-0.1,1.8
					c0.4,0,1.4,0,1.7,0l0-1.6c0-0.6,0-1,0.1-1.4c0-0.4,0.1-0.6,0.1-0.8c0.1-0.2,0.2-0.4,0.3-0.5c0.1-0.1,0.3-0.3,0.4-0.3
					c0.1-0.1,0.3-0.1,0.5-0.1c0.2,0,0.3,0,0.5,0.1c0.1,0.1,0.2,0.2,0.3,0.3c0.1,0.1,0.1,0.4,0.1,0.6c0,0.2,0,0.5,0,0.9l-0.1,1.3
					c0,0.5-0.1,1.1-0.1,1.6c0.3,0,1.4,0,1.7,0c0-0.4,0-1.1,0.1-1.9c0-0.8,0.1-1.4,0.1-1.8c0-0.4,0-0.6,0-0.8c0-0.4-0.1-0.7-0.3-0.9
					C271.3,54.4,271,54.3,270.7,54.2z M277,54.1c-0.4-0.1-0.8-0.1-1.2-0.1c-0.4,0-0.8,0-1.2,0.1c-0.4,0.1-1.4,0.3-1.4,0.3l-0.2,1.1
					c0,0,1.6-0.5,2.4-0.5c0.2,0,0.4,0,0.5,0.1c0.2,0,0.3,0.1,0.4,0.2c0.1,0.1,0.1,0.2,0.1,0.4c0,0.1,0,0.2,0,0.2
					c0,0.1-0.1,0.1-0.2,0.2c-0.1,0.1-0.2,0.1-0.3,0.2c-0.1,0-0.2,0.1-0.4,0.1c-0.2,0-0.3,0.1-0.5,0.1c-0.6,0.1-1,0.2-1.4,0.4
					c-0.3,0.1-0.6,0.2-0.8,0.4c-0.2,0.1-0.3,0.3-0.4,0.4c-0.1,0.1-0.2,0.3-0.3,0.4c-0.1,0.2-0.1,0.3-0.1,0.5c0,0.3,0.1,0.6,0.2,0.9
					c0.1,0.3,0.4,0.5,0.7,0.6c0.3,0.1,0.7,0.2,1.2,0.2c0.1,0,0.3,0,0.5,0c0.2,0,0.4,0,0.7-0.1c0.1-0.4,0.2-0.8,0.3-1
					c-0.2,0.1-0.4,0.1-0.6,0.1c-0.1,0-0.3,0-0.4,0c-0.2,0-0.4,0-0.5-0.1c-0.1,0-0.3-0.1-0.4-0.2c-0.1-0.1-0.1-0.3-0.1-0.4
					c0-0.1,0-0.2,0.1-0.3c0-0.1,0.1-0.2,0.2-0.3c0.1-0.1,0.2-0.2,0.3-0.2c0.1-0.1,0.3-0.1,0.4-0.2c0.1,0,0.3-0.1,0.6-0.2
					c0.2-0.1,0.4-0.1,0.5-0.2c0.1,0,0.2-0.1,0.3-0.1c0.1,0,0.2-0.1,0.3-0.2l-0.2,3.1h1.7c0,0,0-1.9,0.1-2.8c0.1-0.9,0.1-1.5,0.1-1.7
					c0-0.4-0.1-0.7-0.3-0.9C277.7,54.4,277.4,54.2,277,54.1z M287.5,54.2c-0.3-0.1-0.6-0.2-1-0.2c-0.2,0-0.4,0-0.6,0.1
					c-0.2,0-0.4,0.1-0.5,0.2c-0.1,0.1-0.3,0.1-0.4,0.2c-0.1,0.1-0.2,0.2-0.3,0.3c-0.1,0.1-0.2,0.2-0.2,0.3c-0.1-0.2-0.2-0.3-0.2-0.4
					c-0.1-0.1-0.1-0.2-0.2-0.3c-0.1-0.1-0.2-0.1-0.3-0.2c-0.1-0.1-0.3-0.1-0.4-0.1c-0.2,0-0.3,0-0.5,0c-0.2,0-0.5,0-0.7,0.1
					c-0.2,0.1-0.4,0.1-0.6,0.2c-0.2,0.1-0.3,0.2-0.4,0.3c-0.1,0.1-0.2,0.3-0.3,0.4l0-0.9h-1.6l-0.3,5.9h1.7c0,0,0-1.2,0.1-2.1
					c0-0.9,0.1-1.4,0.2-1.7c0.1-0.3,0.2-0.5,0.5-0.7c0.2-0.2,0.4-0.3,0.7-0.3c0.1,0,0.3,0,0.4,0.1c0.1,0.1,0.2,0.1,0.3,0.2
					c0.1,0.1,0.1,0.2,0.2,0.3c0,0.1,0,0.3,0,0.4c0,0.3,0,0.9-0.1,1.9c-0.1,0.9-0.1,1.5-0.1,1.8c0.4,0,1.4,0,1.7,0l0-1.6
					c0-0.6,0-1,0.1-1.4c0-0.4,0.1-0.6,0.1-0.8c0.1-0.2,0.2-0.4,0.3-0.5c0.1-0.1,0.3-0.3,0.4-0.3c0.1-0.1,0.3-0.1,0.5-0.1
					c0.2,0,0.3,0,0.5,0.1c0.1,0.1,0.2,0.2,0.3,0.3c0.1,0.1,0.1,0.4,0.1,0.6c0,0.2,0,0.5,0,0.9l-0.1,1.3c0,0.5-0.1,1.1-0.1,1.6
					c0.3,0,1.4,0,1.7,0c0-0.4,0-1.1,0.1-1.9c0-0.8,0.1-1.4,0.1-1.8c0-0.4,0-0.6,0-0.8c0-0.4-0.1-0.7-0.3-0.9
					C288.1,54.4,287.8,54.3,287.5,54.2z M293.9,54.1c-0.4-0.1-0.8-0.1-1.2-0.1c-0.4,0-0.8,0-1.2,0.1c-0.4,0.1-1.4,0.3-1.4,0.3
					l-0.2,1.1c0,0,1.7-0.5,2.4-0.5c0.2,0,0.4,0,0.5,0.1c0.2,0,0.3,0.1,0.4,0.2c0.1,0.1,0.1,0.2,0.1,0.4c0,0.1,0,0.2-0.1,0.2
					c0,0.1-0.1,0.1-0.2,0.2c-0.1,0.1-0.2,0.1-0.2,0.2c-0.1,0-0.2,0.1-0.4,0.1c-0.2,0-0.3,0.1-0.5,0.1c-0.6,0.1-1,0.2-1.4,0.4
					c-0.3,0.1-0.6,0.2-0.8,0.4c-0.2,0.1-0.3,0.3-0.4,0.4c-0.1,0.1-0.2,0.3-0.3,0.4c-0.1,0.2-0.1,0.3-0.1,0.5c0,0.3,0.1,0.6,0.2,0.9
					c0.2,0.3,0.4,0.5,0.7,0.6c0.3,0.1,0.7,0.2,1.2,0.2c0.1,0,0.3,0,0.5,0c0.2,0,0.4,0,0.7-0.1c0.1-0.4,0.2-0.8,0.3-1
					c-0.2,0.1-0.4,0.1-0.6,0.1c-0.1,0-0.3,0-0.4,0c-0.2,0-0.4,0-0.5-0.1c-0.1,0-0.3-0.1-0.4-0.2c-0.1-0.1-0.1-0.3-0.1-0.4
					c0-0.1,0-0.2,0.1-0.3c0-0.1,0.1-0.2,0.2-0.3c0.1-0.1,0.2-0.2,0.3-0.2c0.1-0.1,0.3-0.1,0.4-0.2c0.1,0,0.3-0.1,0.6-0.2
					c0.2-0.1,0.4-0.1,0.5-0.2c0.1,0,0.2-0.1,0.3-0.1c0.1,0,0.2-0.1,0.3-0.2l-0.2,3.1h1.7c0,0,0-1.9,0.1-2.8c0.1-0.9,0.1-1.5,0.1-1.7
					c0-0.4-0.1-0.7-0.3-0.9C294.5,54.4,294.2,54.2,293.9,54.1z M295.7,58.5c0,0.8-0.1,1.3-0.1,1.6c0.6,0,1.6,0,1.6,0
					s0.1-1.3,0.1-1.6C297,58.5,295.7,58.5,295.7,58.5z M300.1,55.8c0.2-0.2,0.4-0.3,0.6-0.4c0.2-0.1,0.5-0.1,0.8-0.1
					c0.4,0,0.9,0.1,1.5,0.3l-0.1-1.3c-0.4-0.1-0.7-0.1-1-0.2c-0.3,0-0.5,0-0.8,0c-0.5,0-0.9,0.1-1.2,0.2c-0.4,0.1-0.7,0.3-1,0.6
					c-0.3,0.3-0.5,0.7-0.7,1.1c-0.2,0.5-0.2,0.9-0.2,1.4c0,0.4,0,0.7,0.1,1.1c0.1,0.3,0.2,0.6,0.4,0.9c0.2,0.2,0.4,0.4,0.7,0.6
					c0.3,0.2,0.5,0.3,0.8,0.3c0.3,0.1,0.6,0.1,0.9,0.1c0.5,0,1.1-0.1,1.7-0.2c0-0.3,0.1-0.5,0.1-0.8c0-0.2,0.1-0.4,0.1-0.5
					c-0.3,0.1-0.5,0.2-0.8,0.2c-0.3,0-0.5,0.1-0.6,0.1c-0.4,0-0.7-0.1-1-0.2c-0.3-0.1-0.5-0.4-0.6-0.6c-0.1-0.3-0.2-0.6-0.2-1
					c0-0.3,0-0.5,0.1-0.8C299.8,56.2,299.9,55.9,300.1,55.8z M309,54.8c-0.3-0.3-0.6-0.5-1.1-0.6c-0.4-0.1-0.8-0.2-1.3-0.2
					c-0.5,0-1,0.1-1.4,0.2c-0.5,0.2-0.8,0.4-1.1,0.7c-0.3,0.3-0.5,0.6-0.6,1c-0.1,0.4-0.2,0.8-0.2,1.2c0,0.4,0.1,0.8,0.2,1.2
					c0.2,0.4,0.4,0.7,0.7,1c0.3,0.3,0.6,0.5,1,0.6c0.4,0.1,0.8,0.2,1.3,0.2c0.5,0,1-0.1,1.4-0.2c0.4-0.1,0.8-0.4,1.1-0.7
					c0.3-0.3,0.5-0.7,0.7-1.1c0.2-0.4,0.2-0.8,0.2-1.3c0-0.4-0.1-0.8-0.2-1.2C309.5,55.4,309.3,55.1,309,54.8z M308,58
					c-0.1,0.3-0.3,0.6-0.6,0.7c-0.3,0.2-0.6,0.3-0.9,0.3c-0.3,0-0.6-0.1-0.9-0.2c-0.2-0.2-0.4-0.4-0.5-0.6c-0.1-0.3-0.2-0.6-0.2-0.9
					c0-0.4,0.1-0.7,0.2-1.1c0.1-0.3,0.3-0.6,0.6-0.7c0.3-0.2,0.6-0.2,0.9-0.2c0.3,0,0.6,0.1,0.9,0.2c0.2,0.2,0.4,0.4,0.5,0.6
					c0.1,0.3,0.2,0.6,0.2,0.9C308.2,57.3,308.2,57.7,308,58z M319.6,54.7c-0.2-0.2-0.4-0.4-0.7-0.5c-0.3-0.1-0.6-0.2-1-0.2
					c-0.2,0-0.4,0-0.6,0.1c-0.2,0-0.4,0.1-0.5,0.2c-0.1,0.1-0.3,0.1-0.4,0.2c-0.1,0.1-0.2,0.2-0.3,0.3c-0.1,0.1-0.2,0.2-0.2,0.3
					c-0.1-0.2-0.1-0.3-0.2-0.4c-0.1-0.1-0.1-0.2-0.2-0.3c-0.1-0.1-0.2-0.1-0.3-0.2c-0.1-0.1-0.3-0.1-0.4-0.1c-0.2,0-0.3,0-0.5,0
					c-0.2,0-0.5,0-0.7,0.1c-0.2,0.1-0.4,0.1-0.6,0.2c-0.2,0.1-0.3,0.2-0.4,0.3c-0.1,0.1-0.2,0.3-0.3,0.4l0-0.9c-0.3,0-1.3,0-1.6,0
					c0,0.7-0.2,5.3-0.3,5.9c0.4,0,1.3,0,1.7,0c0-0.5,0-1.2,0.1-2.1c0-0.9,0.1-1.4,0.2-1.7c0.1-0.3,0.2-0.5,0.5-0.7
					c0.2-0.2,0.4-0.3,0.7-0.3c0.1,0,0.3,0,0.4,0.1c0.1,0.1,0.2,0.1,0.3,0.2c0.1,0.1,0.1,0.2,0.2,0.3c0,0.1,0,0.3,0,0.4
					c0,0.3,0,0.9-0.1,1.9c-0.1,0.9-0.1,1.5-0.1,1.8c0.4,0,1.4,0,1.7,0l0-1.6c0-0.6,0-1,0.1-1.4c0-0.4,0.1-0.6,0.1-0.8
					c0.1-0.2,0.2-0.4,0.3-0.5c0.1-0.1,0.3-0.3,0.4-0.3c0.1-0.1,0.3-0.1,0.5-0.1c0.2,0,0.3,0,0.5,0.1c0.1,0.1,0.2,0.2,0.3,0.3
					c0.1,0.1,0.1,0.4,0.1,0.6c0,0.2,0,0.5,0,0.9l-0.1,1.3c0,0.5-0.1,1.1-0.1,1.6c0.3,0,1.4,0,1.7,0c0-0.4,0-1.1,0.1-1.9
					c0-0.8,0.1-1.4,0.1-1.8c0-0.4,0-0.6,0-0.8C319.8,55.2,319.7,54.9,319.6,54.7z"/>
			</g>
		</g>
	</g>
	<g>
		<path style="fill:#FF6600;" d="M188.2,298.1c0,1.6-0.5,2.4-1.7,2.5c-0.4,0-0.8,0.1-1.4,0.1c0-0.4-0.1-0.7-0.2-1c0.4,0,0.8,0,1.2,0
			c0.8,0,1.1-0.5,1.1-1.6c0-1.4-0.5-2.8-1.6-4.1l1.4-5h-2.7v14.4h-0.9v-15.2h4.5v0.9l-1.4,4.8C187.7,295.4,188.2,296.8,188.2,298.1z
			 M189.1,288.6h10.1v0.8h-1.6V301c0,1.5-0.7,2.2-2.2,2.2c-0.5,0-1.4,0.1-2.4,0.1c0,0,0-0.1-0.1-0.3c0-0.3,0-0.5-0.1-0.7
			c0.9,0,1.7,0,2.4,0c1.1,0,1.6-0.4,1.6-1.4v-11.6h-7.7V288.6z M189.7,292.1h4.8v6.9h-4.8V292.1z M190.6,293v5.2h3V293H190.6z"/>
		<path style="fill:#FF6600;" d="M201.2,298.5h6.7v-2.3h-6.1v-8H215v8h-6.2v2.3h6.8v0.9h-6.8v2.3h7.8v0.9h-16.4v-0.9h7.7v-2.3h-6.7
			V298.5z M202.7,289v2.8h5.2V289H202.7z M202.7,292.6v2.8h5.2v-2.8H202.7z M214,289h-5.2v2.8h5.2V289z M208.8,292.6v2.8h5.2v-2.8
			H208.8z"/>
		<path style="fill:#FF6600;" d="M224.2,301.4l-0.7,0.6c-0.2-0.2-0.6-0.6-1.1-1c-0.5-0.5-0.9-0.8-1.2-1c-0.7,1.1-1.7,2.3-3.1,3.4
			c-0.2-0.3-0.5-0.5-0.7-0.7c1.4-1.1,2.5-2.2,3.1-3.3c-0.7-0.8-1.5-1.5-2.4-2.2c0.4-1.6,0.8-3.4,1.2-5.2h-1.5v-0.9h1.6
			c0.1-0.5,0.3-1.3,0.4-2.3c0.1-0.6,0.2-1,0.2-1.3l0.9,0.1c0,0.2-0.1,0.6-0.1,1.1c-0.1,0.5-0.3,1.4-0.4,2.4h3.1v0.9
			c-0.3,3.1-0.9,5.5-1.8,7.3C222.6,299.9,223.4,300.6,224.2,301.4z M222.6,291.8h-2.4c-0.3,1.9-0.7,3.6-1.1,5
			c0.2,0.2,0.5,0.4,0.9,0.7c0.5,0.4,0.9,0.7,1.1,1C221.8,296.9,222.4,294.7,222.6,291.8z M224.1,298.6h7.1v0.8h-7.1V298.6z
			 M226.6,290.2l-0.4,4.8h4.7l0.5-6h-6.8v-0.8h7.8l-0.6,6.8h1.6c-0.1,2.9-0.2,4.8-0.3,5.8c-0.1,1.5-1,2.3-2.7,2.3
			c-0.8,0-1.6,0-2.6,0c0-0.3-0.1-0.6-0.2-1c0.9,0,1.8,0.1,2.7,0.1c1.1,0,1.7-0.5,1.8-1.6c0.2-1.8,0.3-3.4,0.3-4.8h-7.3l0.5-5.6
			H226.6z"/>
		<path style="fill:#FF6600;" d="M241.6,301.4l-0.7,0.6c-0.2-0.2-0.6-0.6-1.1-1c-0.5-0.5-0.9-0.8-1.2-1c-0.7,1.1-1.7,2.3-3.1,3.4
			c-0.2-0.3-0.5-0.5-0.7-0.7c1.4-1.1,2.5-2.2,3.1-3.3c-0.7-0.8-1.5-1.5-2.4-2.2c0.4-1.6,0.8-3.4,1.2-5.2h-1.5v-0.9h1.6
			c0.1-0.5,0.3-1.3,0.4-2.3c0.1-0.6,0.2-1,0.2-1.3l0.9,0.1c0,0.2-0.1,0.6-0.1,1.1c-0.1,0.5-0.3,1.4-0.4,2.4h3.1v0.9
			c-0.3,3.1-0.9,5.5-1.8,7.3C240,299.9,240.8,300.6,241.6,301.4z M240,291.8h-2.4c-0.3,1.9-0.7,3.6-1.1,5c0.2,0.2,0.5,0.4,0.9,0.7
			c0.5,0.4,0.9,0.7,1.1,1C239.2,296.9,239.8,294.7,240,291.8z M241.5,298.6h7.1v0.8h-7.1V298.6z M244,290.2l-0.4,4.8h4.7l0.5-6H242
			v-0.8h7.8l-0.6,6.8h1.6c-0.1,2.9-0.2,4.8-0.3,5.8c-0.1,1.5-1,2.3-2.7,2.3c-0.8,0-1.6,0-2.6,0c0-0.3-0.1-0.6-0.2-1
			c0.9,0,1.8,0.1,2.7,0.1c1.1,0,1.7-0.5,1.8-1.6c0.2-1.8,0.3-3.4,0.3-4.8h-7.3l0.5-5.6H244z"/>
		<path style="fill:#FF6600;" d="M252.7,298.8c-0.1-0.4-0.3-0.8-0.5-1.1c1.2-1.8,2.1-3.8,2.7-6.1h-2.4v-0.8h2.4v-3.5h0.9v3.5h2.1
			v0.8h-2.1v2.9l0.5-0.4c0.3,0.2,0.6,0.6,1.1,1c0.5,0.4,0.8,0.7,1,1l-0.7,0.6c-0.5-0.5-1.1-1.2-1.9-2v8.7H255v-10.3
			C254.4,295.5,253.6,297.4,252.7,298.8z M258.3,300.2c-0.2-0.3-0.4-0.5-0.7-0.8c2.6-1.1,4.6-2.6,6-4.3c-0.5,0-1.1,0.1-2,0.1
			c-0.6,0.1-1,0.1-1.3,0.1c-0.3,0-0.7,0.1-1.1,0.1c0.1,0,0,0-0.1,0.1l-0.5-0.9c0.3-0.1,0.5-0.3,0.7-0.6c0.9-1,1.7-2.1,2.7-3.3h-3.6
			v-0.9h5c-0.1-0.4-0.4-1-0.8-1.9c0-0.2-0.1-0.3-0.1-0.3l0.8-0.3c0.2,0.3,0.5,0.9,0.9,1.8c0.1,0.3,0.2,0.5,0.2,0.5l-0.7,0.3h5v0.9
			h-5.5c-1.1,1.5-2.1,2.7-3.1,3.8c1.4,0,2.9-0.1,4.2-0.3c0.5-0.6,0.9-1.3,1.2-2l0.9,0.4C264.5,296.1,261.8,298.6,258.3,300.2z
			 M258.9,303.5c-0.1-0.3-0.3-0.5-0.6-0.8c3.9-1.4,6.9-3.9,9-7.5l0.9,0.5c-1.2,1.7-2.2,3-3.1,3.9c1.2,1,2.4,1.9,3.6,2.9l-0.7,0.8
			c-0.5-0.5-1.2-1-2-1.7c-0.8-0.6-1.3-1.1-1.6-1.4C263.1,301.4,261.2,302.5,258.9,303.5z"/>
		<path style="fill:#FF6600;" d="M271.6,292.4l1,0.3c-0.6,2.3-1.2,4.5-1.8,6.7c-0.3-0.1-0.7-0.2-1-0.3
			C270.3,297.4,270.9,295.2,271.6,292.4z M274.1,290.5h1v9.9c0,1.1,0.5,1.7,1.7,1.6h3.3c1.2,0,1.9-0.4,2-1.4
			c0.1-0.6,0.2-1.4,0.3-2.3c0.1,0,0.3,0.1,0.5,0.1c0.2,0.1,0.4,0.2,0.5,0.2c0,0.5-0.1,1.1-0.3,1.8c0,0.3-0.1,0.5-0.1,0.7
			c-0.3,1.2-1.2,1.8-2.9,1.8h-3.7c-1.6,0-2.4-0.8-2.4-2.4V290.5z M279.5,292.3c-0.6-1.2-1.6-2.7-2.8-4.7l0.9-0.5
			c0.1,0.2,0.3,0.5,0.6,1c0.6,1,1.4,2.2,2.2,3.7L279.5,292.3z M285.2,298.3c-0.9-2.1-1.8-4.1-2.8-6l1-0.4c0.2,0.4,0.5,1,1,1.9
			c0.9,1.8,1.5,3.1,1.9,4L285.2,298.3z"/>
		<path style="fill:#FF6600;" d="M303,297.8c-3.4-0.3-5.9-0.9-7.5-1.6c-2,0.9-4.6,1.5-8,2c0-0.2-0.2-0.5-0.3-0.8
			c0,0-0.1-0.1-0.1-0.1c3-0.3,5.5-0.8,7.3-1.5c-1-0.6-2-1.4-3-2.4c-0.9,0.8-1.7,1.5-2.7,2.1c0,0-0.1-0.1-0.1-0.1
			c-0.1-0.2-0.2-0.4-0.4-0.5c2-1.3,3.5-2.7,4.6-4.2l0.7,0.3c-0.3,0.4-0.6,0.8-0.9,1.1h7.9v1c-1.2,1.1-2.5,2.1-4,2.9
			c1.5,0.6,3.8,1,6.9,1.2c-0.1,0.1-0.2,0.4-0.3,0.7C303.1,297.7,303.1,297.8,303,297.8z M294.8,287.3l0.8-0.1c0.1,0.6,0.3,1.2,0.4,2
			h6.9v2.9H302v-2h-13v2H288v-2.9h7.1c0-0.1-0.1-0.3-0.1-0.6C294.9,288,294.8,287.6,294.8,287.3z M290.1,298.4h10.7v5.1h-0.9v-0.8
			h-8.9v0.8h-0.9V298.4z M290.9,299.2v2.7h8.9v-2.7H290.9z M299.4,292.7h-7.3c1,1.1,2.1,1.9,3.4,2.5
			C297,294.6,298.3,293.8,299.4,292.7z"/>
		<path style="fill:#FF6600;" d="M311.9,287.6l0.8-0.4c0.5,0.7,1,1.5,1.5,2.2l-0.8,0.3h6.2v7.2h-1v-0.9h-11.1c0,3-0.8,5.5-2.2,7.4
			c-0.1-0.1-0.4-0.3-0.8-0.6c0.9-1.2,1.4-2.4,1.7-3.5c0.3-1.1,0.4-2.7,0.4-4.9v-4.8h6.7c-0.1-0.3-0.4-0.8-0.9-1.6
			C312.2,287.9,312,287.7,311.9,287.6z M307.5,290.6v3.9v0.7h11.1v-4.6H307.5z"/>
	</g>
	<g>
		<path style="fill:#FF6600;" d="M179.9,336.9c1-1.9,1.8-4.3,2.4-7l4.1,1.2c-0.9,3.1-1.8,5.6-2.6,7.2L179.9,336.9z M185.1,313.9
			l4.9-0.9c0.5,0.7,1,1.6,1.6,2.7c0.3,0.5,0.5,0.9,0.7,1.1h2.7c0.4-0.7,1-1.8,1.9-3.4c0.1-0.2,0.1-0.4,0.2-0.5l5.1,1.1
			c-0.7,0.9-1.4,1.8-2,2.7h4.2v11.5h-8.9c0.4,0.4,1,1.2,1.8,2.2c0.4,0.5,0.7,0.9,0.9,1.1l-3.7,2.7c-1.1-1.7-2.1-3.3-3.3-4.7l2.1-1.4
			H183v-11.5h3.9c-0.3-0.5-0.8-1.2-1.4-2.1C185.3,314.3,185.2,314.1,185.1,313.9z M199.6,331l3.7-1.8c0.8,1.3,1.9,3,3.1,5.3
			c0.4,0.8,0.7,1.3,0.9,1.6l-4.1,1.8c-0.2-0.3-0.4-0.8-0.7-1.4c-0.4-0.7-0.6-1.2-0.8-1.5c-0.3,1.1-0.5,1.7-0.7,1.9
			c-0.5,1.8-2,2.7-4.5,2.6h-6.3c-2.8,0.1-4.1-1.4-4.1-4.5v-5.5h4.5v4.3c0,1.3,0.6,1.9,1.7,1.8h2.9c1.3,0.1,2-0.4,2-1.5
			c0.1-0.5,0.3-1,0.3-1.6c-0.1,0.1-0.1-0.1,0-0.5c0.9,0.4,1.9,0.7,2.9,0.9C200.4,332.4,200.1,331.7,199.6,331z M199.6,324.4v-3.5
			h-12v3.5H199.6z"/>
		<path style="fill:#FF6600;" d="M229,313.1c0,2.5,0,4.8,0,7h7.1v3.7h-3.9l3.4,1.7c-1.7,3.1-3.4,5.7-5.1,7.8
			c0.2,0.5,0.5,1.1,0.9,1.7c0.1,0.3,0.3,0.4,0.4,0.3c0.1-0.1,0.3-0.3,0.3-0.6c0.2-1.1,0.4-2.5,0.6-4.2c0.5,0.3,1.3,0.6,2.2,1
			c0.6,0.2,1,0.3,1.2,0.5c-0.4,2.8-0.7,4.5-0.9,5.3c-0.4,1.8-1.6,2.7-3.5,2.8c-1.8,0-3.3-1.1-4.5-3.4c-0.1,0.1-0.2,0.1-0.2,0.1
			c-1.7,1.5-3,2.6-4.1,3.4c-0.2-0.2-0.4-0.4-0.8-0.8c-0.8-1-1.5-1.7-2.1-2.1c0.4-0.3,0.9-0.5,1.4-0.7c-0.8-0.7-1.5-1.3-2.4-2
			c0.1,0.7,0.1,1.5,0.2,2.6c0-0.2,0,0,0.1,0.8c-0.4,0.1-0.9,0.2-1.6,0.5c-0.8,0.2-2,0.6-3.4,1c-0.2,0.1-0.3,0.1-0.4,0.2
			c-0.6,0.3-1.1,0.6-1.5,0.8l-1.6-2.7c0.7-0.6,1.1-1.3,1-2.2v-0.7c-0.1,0.1-0.2,0.2-0.3,0.2c-0.4,0.3-1.1,0.7-2,1.2
			c-0.2-0.6-0.5-1.5-0.9-2.8c-0.2-0.4-0.3-0.8-0.3-1c2.1-1,3.7-2.2,4.8-3.4h-4.2v-3.5h5.5c0-0.1-0.1-0.4-0.2-0.7
			c-0.1-0.3-0.2-0.5-0.2-0.7l4.5-0.2c0.1,0.4,0.3,1,0.6,1.6h4.9v3.5h-1.5l2.5,2c-0.4,0.3-0.9,0.7-1.5,1.2c-0.5,0.3-0.8,0.5-0.9,0.7
			c0.2,0.2,0.6,0.5,1,0.8c0.2,0.2,0.4,0.3,0.5,0.3c0.2-0.2,0.6-0.6,1-1c0.2-0.2,0.4-0.4,0.6-0.6c-0.5-2.2-0.9-5.1-1.1-8.8h-15.9
			v-3.7h5.7v-1.5h-4.7v-3.4h4.7v-2.1h4.4v2.1h4.5v3.4H219v1.5h5.6c0-0.8,0-2.1-0.1-3.9c0-1.5,0-2.5,0-3H229z M218.4,329.8
			c0.2,0.2,0.5,0.3,0.9,0.6c0.4,0.3,0.6,0.5,0.8,0.7c0.2-0.2,0.6-0.6,1-1c0.4-0.4,0.8-0.7,1-0.9H218c-0.7,0.8-1.4,1.5-2,2.4v4.2
			c1.1-0.5,2.1-0.8,3-1.1c-0.3-0.2-0.8-0.6-1.5-1.2c-0.6-0.4-1.1-0.8-1.4-1L218.4,329.8z M229.1,315.7l2.9-2.1
			c0.6,0.5,1.5,1.4,2.6,2.6c0.5,0.5,0.9,0.9,1.1,1.1l-3.3,2.5C231.6,318.6,230.4,317.2,229.1,315.7z M229.4,327.9
			c0.7-1.1,1.4-2.5,2.2-4h-2.6C229.2,325.4,229.4,326.7,229.4,327.9z"/>
		<path style="fill:#FF6600;" d="M253.7,319.8c0,0.2,0,0.4,0,0.7c-0.2,2.9-0.3,4.9-0.4,6.2c0,0.2,0,0.3-0.1,0.6c0,0.3,0,0.5-0.1,0.7
			h2.4v6c-0.1,1.2,0.4,1.8,1.3,1.7h1.6c1,0,1.6-0.6,1.8-1.7c0-0.2,0-0.6,0.1-1.1c0.1-1,0.3-1.9,0.3-2.5c0.5,0.2,1.2,0.3,2.1,0.6
			c0.9,0.3,1.6,0.5,2,0.7c-0.2,1.7-0.5,3.3-0.7,4.6c-0.5,2.2-2.1,3.3-4.7,3.3h-4.2c-3,0.1-4.5-1.4-4.4-4.5v-1.7
			c-2,2.9-5.5,5.2-10.3,7.1c-0.8-1.5-1.7-2.8-2.6-3.9c7.3-2.7,10.9-6.1,10.8-10.4c0.1-1.2,0.2-3.3,0.3-6.2H253.7z M240.5,330.9
			v-16.6h21.6v15.5h-4.6v-11.4H245v12.5H240.5z"/>
		<path style="fill:#FF6600;" d="M267.7,339.9V320h8.7l0.6-1.8h-10.4v-3.9h27v3.9H282l-0.6,1.8h11v20H288v-1.7H272v1.6H267.7z
			 M272,323.6v11.2h2.2v-11.2H272z M278.3,323.6v1.8h3.6v-1.8H278.3z M278.3,328.3v1.8h3.6v-1.8H278.3z M278.3,333v1.8h3.6V333
			H278.3z M288,323.6h-2.1v11.2h2.1V323.6z"/>
		<path style="fill:#FF6600;" d="M297.5,326.4c-0.1-0.1-0.2-0.4-0.4-0.8c-0.9-1.6-1.6-2.6-2-3.1c5.5-2.7,9.5-5.8,11.7-9.3l5.5,0.2
			c-0.1,0.1-0.2,0.2-0.2,0.4c-0.2,0.2-0.3,0.4-0.3,0.6c2.6,3.3,6.3,5.9,10.9,7.6c-0.7,1.2-1.5,2.6-2.4,4.2c-1.6-0.8-3-1.6-4.2-2.4
			v2.2h-14.5v-2C299.9,325.1,298.5,325.9,297.5,326.4z M295.8,328.1h26v4h-6.3c1.9,1.9,3.7,3.6,5.5,5.3l-3.6,2.9l-1.4-1.7
			c-0.5,0-1.6,0-3.1,0.1c-4.9,0.1-7.8,0.3-8.8,0.3c-1.2,0.1-2.6,0.2-4.1,0.5c-0.2,0.1-0.3,0.1-0.4,0.1l-1.9-3.8
			c1.2-0.6,2.2-1.3,2.9-2.1c0.5-0.5,1-1,1.5-1.6h-6.3V328.1z M309.1,317.7c-1.1,1.2-2.6,2.6-4.6,4.3h9
			C312.1,321,310.7,319.6,309.1,317.7z M304.5,335.4c3.4,0,6.2,0,8.4-0.1c-0.5-0.7-1.1-1.4-1.7-2.1l1.5-1h-5.3
			c-0.4,0.5-1,1.2-1.9,2.1C305,334.8,304.7,335.2,304.5,335.4z"/>
	</g>
	<g>
		<path style="fill:#666666;" d="M187.4,472.1c-0.5-0.4-1-0.9-1.7-1.4l0.4-0.5c0.2,0.2,0.5,0.4,0.9,0.7c0.4,0.3,0.7,0.5,0.9,0.7
			L187.4,472.1z M186.6,478.2l-0.7-0.2c0.6-1.9,1-3.3,1.2-4.2c0.1,0,0.2,0.1,0.3,0.1c0.1,0.1,0.2,0.1,0.3,0.1
			C187.4,475,187.1,476.4,186.6,478.2z M187.7,469.1c-0.3-0.2-0.6-0.6-1.1-1c-0.3-0.2-0.4-0.4-0.6-0.5l0.4-0.4
			c0.1,0.1,0.2,0.2,0.3,0.3c0.6,0.5,1.1,0.9,1.4,1.2L187.7,469.1z M188.5,470.7c-0.1-0.1-0.2-0.2-0.4-0.5c1.1-1,1.8-2.2,2.3-3.4
			l0.6,0.1c-0.2,0.4-0.4,0.7-0.6,1.1h6.3v0.6h-6.7C189.7,469.3,189.1,470,188.5,470.7z M189,476.4l0.4-3h-1.2v-0.6h1.2l0.4-3h6
			c0,1,0,2,0,3h1.2v0.6h-1.3c0,0.3,0,0.8,0,1.3c0,0.5,0,0.9,0,1.1h0.9v0.6h-1c0,1.1-0.6,1.7-1.8,1.7c-0.5,0-1,0-1.5,0
			c0-0.2-0.1-0.5-0.1-0.7c0.5,0,1,0,1.5,0c0.9,0,1.3-0.3,1.4-1H189z M195,475.8c0.1-1,0.1-1.8,0.1-2.4H190l-0.3,2.4H195z
			 M190.3,470.5l-0.3,2.4h5.1c0-0.6,0-1.4,0-2.4H190.3z M191.6,474.3l0.4-0.4c0.5,0.3,0.9,0.7,1.4,1.1l-0.4,0.4
			C192.5,475,192.1,474.6,191.6,474.3z M191.7,471.3l0.4-0.4c0.4,0.3,0.9,0.6,1.4,1.1l-0.4,0.4C192.7,472,192.3,471.6,191.7,471.3z"
			/>
		<path style="fill:#666666;" d="M185.5,484.8c1.6-1.1,2.8-2.4,3.7-4.1l0.7,0.1c0,0-0.1,0.1-0.1,0.2c-0.1,0.1-0.1,0.2-0.1,0.2
			c0.8,0.7,1.7,1.6,2.9,2.6l-0.5,0.5c-0.7-0.8-1.6-1.6-2.6-2.6c-0.9,1.3-2,2.5-3.3,3.5c0,0-0.1-0.1-0.1-0.2
			C185.7,485,185.6,484.9,185.5,484.8z M186.9,484.9h4.6c0,0.8,0,1.6-0.1,2.4c-0.1,1-0.6,1.4-1.6,1.4c-0.4,0-0.8,0-1.2,0
			c0-0.1,0-0.2,0-0.3c0-0.2-0.1-0.3-0.1-0.3c0.1,0,0.3,0,0.6,0c0.3,0,0.5,0,0.7,0c0.7,0,1-0.3,1.1-0.9c0-0.2,0-0.4,0-0.8
			c0-0.4,0-0.7,0-0.9h-3.4v4.7c0,0.6,0.3,0.8,1,0.8h1.7c0.7,0,1.1-0.2,1.3-0.6c0.1-0.4,0.2-0.8,0.2-1.4c0.2,0.1,0.4,0.2,0.7,0.2
			c0,0.4-0.1,0.9-0.3,1.4c-0.2,0.7-0.7,1-1.7,1h-2c-1,0-1.5-0.4-1.5-1.4V484.9z M193.1,482h0.6v7.2h-0.6V482z M195.6,480.8h0.7v9.7
			c0,0.8-0.4,1.2-1.3,1.3c-0.5,0-1,0-1.5,0c0-0.3-0.1-0.5-0.1-0.7c0.5,0,1,0,1.5,0c0.5,0,0.8-0.2,0.8-0.7V480.8z"/>
		<path style="fill:#666666;" d="M186.3,495.2h10v10.6h-0.7v-0.6h-8.7v0.6h-0.6V495.2z M186.9,495.7v8.9h8.7v-8.9H186.9z
			 M187.7,499.4h7.2v0.6h-2.3v2.5c0,0.3,0.2,0.5,0.6,0.5h0.5c0.4,0,0.7-0.2,0.7-0.7c0-0.2,0.1-0.5,0.1-1.2c0.1,0.1,0.3,0.1,0.5,0.2
			c0,0,0.1,0,0.1,0c0,0.2-0.1,0.4-0.1,0.7c-0.1,0.3-0.1,0.4-0.1,0.6c-0.2,0.7-0.6,1-1.2,1h-0.6c-0.8,0-1.2-0.3-1.1-1V500h-1.8
			c0.1,1.8-0.7,3.1-2.3,3.9c0,0-0.1-0.1-0.1-0.1c-0.1-0.2-0.2-0.3-0.3-0.4c1.5-0.7,2.3-1.9,2.2-3.4h-1.9V499.4z M188.3,497.2h6v0.5
			h-6V497.2z"/>
	</g>
	<g>
		<path style="fill:#333333;" d="M191.1,515.1c0.2,0,0.5-0.1,0.7-0.2c0.2-0.1,0.4-0.2,0.5-0.4c0.1-0.2,0.2-0.4,0.2-0.7
			c0-0.4-0.1-0.8-0.4-1c-0.3-0.2-0.6-0.3-1-0.3c-0.5,0-0.9,0.2-1.2,0.5c-0.3,0.3-0.4,0.8-0.4,1.3h-1.9c0-0.5,0.1-1,0.3-1.4
			c0.2-0.4,0.4-0.8,0.7-1.1c0.3-0.3,0.7-0.5,1.1-0.7c0.4-0.2,0.9-0.3,1.4-0.3c0.4,0,0.8,0.1,1.2,0.2c0.4,0.1,0.8,0.3,1.1,0.5
			c0.3,0.2,0.6,0.5,0.8,0.9c0.2,0.3,0.3,0.7,0.3,1.2c0,0.5-0.1,0.9-0.4,1.3c-0.2,0.4-0.6,0.6-1.1,0.8v0c0.6,0.1,1,0.4,1.3,0.8
			c0.3,0.4,0.5,0.9,0.5,1.5c0,0.5-0.1,1-0.3,1.4c-0.2,0.4-0.5,0.8-0.8,1c-0.3,0.3-0.7,0.5-1.2,0.6c-0.5,0.1-0.9,0.2-1.4,0.2
			c-0.6,0-1.1-0.1-1.5-0.2c-0.5-0.2-0.9-0.4-1.2-0.7c-0.3-0.3-0.6-0.7-0.8-1.1c-0.2-0.5-0.3-1-0.3-1.6h1.9c0,0.3,0.1,0.5,0.1,0.8
			c0.1,0.2,0.2,0.5,0.3,0.6c0.1,0.2,0.3,0.3,0.5,0.4c0.2,0.1,0.5,0.2,0.8,0.2c0.5,0,0.8-0.1,1.2-0.4c0.3-0.3,0.5-0.7,0.5-1.2
			c0-0.4-0.1-0.7-0.2-0.9c-0.1-0.2-0.3-0.3-0.6-0.4c-0.2-0.1-0.5-0.1-0.8-0.2c-0.3,0-0.5,0-0.8,0v-1.4
			C190.6,515.1,190.8,515.1,191.1,515.1z"/>
	</g>
	<g>
		<path style="fill:#666666;" d="M187.4,534.2l0.8-2.1h-2.5v-0.7h11.3v0.7h-8.1l-0.5,1.5h7c0,0.4-0.1,1-0.1,1.6c0,0.3,0,0.4,0,0.6
			c-0.1,1.1-0.9,1.6-2.4,1.6c-0.8,0-1.5,0-2.4,0c0-0.2-0.1-0.5-0.1-0.8c0.5,0,1.3,0,2.5,0c1.1,0.1,1.7-0.3,1.8-1.1
			c0-0.2,0.1-0.4,0.1-0.8c0-0.3,0-0.6,0-0.7H187.4z M187.4,526.9h7.7v3.2h-7.7V526.9z M188.1,527.6v2h6.4v-2H188.1z"/>
		<path style="fill:#666666;" d="M185.9,548.1c0-0.1-0.1-0.2-0.2-0.5c0-0.1-0.1-0.2-0.1-0.2c0.8-1.2,1.4-2.7,1.7-4.3h-1.5v-0.6h1.5
			v-2.4h0.6v2.4h1.3v0.6h-1.3v2l0.4-0.3c0.1,0.1,0.3,0.3,0.6,0.6c0.2,0.3,0.4,0.5,0.6,0.6l-0.5,0.4c-0.1-0.1-0.3-0.3-0.5-0.6
			c-0.2-0.2-0.4-0.4-0.5-0.6v6.1h-0.6v-6.9C187,545.9,186.5,547.1,185.9,548.1z M189,551.4c-0.1-0.2-0.2-0.4-0.3-0.6
			c1.7-0.3,3-0.7,3.8-1c-0.2-0.1-0.6-0.2-1-0.4c-0.6-0.2-1-0.5-1.4-0.6c0.4-0.4,0.7-0.8,1-1.3h-1.9v-0.6h2.3c0,0,0.1-0.1,0.1-0.2
			c0.1-0.1,0.3-0.4,0.5-0.7l0.7,0.2c-0.1,0.1-0.2,0.3-0.3,0.5c-0.1,0.1-0.2,0.2-0.2,0.2h4.5v0.6h-1.5c-0.5,1.1-1,1.8-1.5,2.2
			c0.2,0.1,0.6,0.2,1.1,0.4c0.8,0.3,1.4,0.5,1.8,0.7l-0.4,0.6c-1.3-0.6-2.3-1-3-1.3C192.4,550.6,191,551,189,551.4z M189.7,546
			c-0.1-0.2-0.2-0.4-0.4-0.6c1.3-0.4,2.4-1.1,3.3-2h-2.9v-0.6h3v-2.7h0.7v2.7h3.4v0.6h-3.3c0.9,0.9,2,1.5,3.5,1.9
			c-0.1,0.1-0.3,0.3-0.4,0.6c-1.5-0.5-2.6-1.1-3.2-2v1.9h-0.7V544C192,544.8,191,545.5,189.7,546z M190,541.2l0.4-0.4
			c0.3,0.3,0.8,0.7,1.4,1.3l-0.5,0.4C190.9,542.1,190.5,541.6,190,541.2z M191,548.5c0.7,0.3,1.4,0.6,2.1,0.8c0.5-0.4,1-1,1.5-2
			h-2.7C191.6,547.8,191.3,548.2,191,548.5z M194.2,542.2c0.5-0.4,1-0.9,1.5-1.4l0.5,0.4c-0.4,0.4-0.9,0.9-1.5,1.4L194.2,542.2z"/>
	</g>
	<g>
		<path style="fill:#333333;" d="M187.8,560.4c0.2-0.5,0.4-0.9,0.7-1.3c0.3-0.4,0.7-0.7,1.2-0.9c0.5-0.2,1-0.3,1.6-0.3
			c0.5,0,0.9,0.1,1.3,0.2c0.4,0.1,0.8,0.4,1.1,0.6c0.3,0.3,0.6,0.6,0.8,1c0.2,0.4,0.3,0.8,0.3,1.3c0,0.5-0.1,0.9-0.2,1.3
			c-0.2,0.4-0.4,0.7-0.6,1c-0.3,0.3-0.6,0.5-0.9,0.8c-0.3,0.2-0.7,0.5-1,0.7c-0.3,0.2-0.7,0.5-1,0.7c-0.3,0.3-0.6,0.6-0.9,0.9h4.8
			v1.8h-7.4c0-0.6,0.1-1.1,0.3-1.5c0.2-0.4,0.4-0.8,0.7-1.2c0.3-0.3,0.6-0.7,1-0.9c0.4-0.3,0.8-0.6,1.2-0.9c0.2-0.2,0.5-0.3,0.7-0.5
			c0.2-0.2,0.5-0.3,0.7-0.5c0.2-0.2,0.4-0.4,0.5-0.6c0.1-0.2,0.2-0.5,0.2-0.8c0-0.5-0.1-0.9-0.4-1.1c-0.3-0.3-0.6-0.4-1.1-0.4
			c-0.3,0-0.5,0.1-0.8,0.2c-0.2,0.1-0.4,0.3-0.5,0.5c-0.1,0.2-0.2,0.5-0.3,0.7c-0.1,0.3-0.1,0.5-0.1,0.8h-2
			C187.6,561.4,187.6,560.9,187.8,560.4z"/>
	</g>
	<g>
		<path style="fill:#333333;" d="M180,593c0.2-0.5,0.4-0.9,0.7-1.3c0.3-0.4,0.7-0.7,1.2-0.9c0.5-0.2,1-0.3,1.6-0.3
			c0.5,0,0.9,0.1,1.3,0.2c0.4,0.1,0.8,0.4,1.1,0.6c0.3,0.3,0.6,0.6,0.8,1c0.2,0.4,0.3,0.8,0.3,1.3c0,0.5-0.1,0.9-0.2,1.3
			c-0.2,0.4-0.4,0.7-0.6,1c-0.3,0.3-0.6,0.5-0.9,0.8c-0.3,0.2-0.7,0.5-1,0.7c-0.3,0.2-0.7,0.5-1,0.7c-0.3,0.3-0.6,0.6-0.9,0.9h4.8
			v1.8h-7.4c0-0.6,0.1-1.1,0.3-1.5c0.2-0.4,0.4-0.8,0.7-1.2c0.3-0.3,0.6-0.7,1-0.9c0.4-0.3,0.8-0.6,1.2-0.9c0.2-0.2,0.5-0.3,0.7-0.5
			c0.2-0.2,0.5-0.3,0.7-0.5c0.2-0.2,0.4-0.4,0.5-0.6c0.1-0.2,0.2-0.5,0.2-0.8c0-0.5-0.1-0.9-0.4-1.1c-0.3-0.3-0.6-0.4-1.1-0.4
			c-0.3,0-0.5,0.1-0.8,0.2c-0.2,0.1-0.4,0.3-0.5,0.5c-0.1,0.2-0.2,0.5-0.3,0.7c-0.1,0.3-0.1,0.5-0.1,0.8h-2
			C179.8,594.1,179.8,593.5,180,593z"/>
		<path style="fill:#333333;" d="M187.9,593.3c0.2-0.7,0.5-1.2,0.8-1.6c0.3-0.4,0.7-0.7,1.2-0.9c0.4-0.2,0.9-0.3,1.4-0.3
			c0.5,0,1,0.1,1.4,0.3c0.4,0.2,0.8,0.5,1.2,0.9c0.3,0.4,0.6,0.9,0.8,1.6c0.2,0.7,0.3,1.5,0.3,2.5c0,1-0.1,1.9-0.3,2.5
			c-0.2,0.7-0.5,1.2-0.8,1.6c-0.3,0.4-0.7,0.7-1.2,0.9c-0.4,0.2-0.9,0.3-1.4,0.3c-0.5,0-1-0.1-1.4-0.3c-0.4-0.2-0.8-0.5-1.2-0.9
			c-0.3-0.4-0.6-0.9-0.8-1.6c-0.2-0.7-0.3-1.5-0.3-2.5C187.6,594.8,187.7,594,187.9,593.3z M189.6,596.8c0,0.4,0.1,0.8,0.2,1.2
			c0.1,0.4,0.3,0.7,0.5,1c0.2,0.3,0.5,0.4,1,0.4c0.4,0,0.7-0.1,1-0.4c0.2-0.3,0.4-0.6,0.5-1c0.1-0.4,0.2-0.8,0.2-1.2
			c0-0.4,0-0.8,0-1c0-0.2,0-0.4,0-0.6c0-0.2,0-0.5-0.1-0.8c0-0.3-0.1-0.5-0.1-0.8c-0.1-0.3-0.2-0.5-0.3-0.7
			c-0.1-0.2-0.3-0.4-0.5-0.5c-0.2-0.1-0.4-0.2-0.7-0.2c-0.3,0-0.5,0.1-0.7,0.2s-0.3,0.3-0.5,0.5c-0.1,0.2-0.2,0.4-0.3,0.7
			c-0.1,0.3-0.1,0.5-0.1,0.8c0,0.3,0,0.5-0.1,0.8c0,0.2,0,0.5,0,0.6C189.6,596,189.6,596.4,189.6,596.8z"/>
		<path style="fill:#333333;" d="M198.9,600.8v-6.5h-2.5v-1.5c0.4,0,0.7,0,1-0.1c0.3-0.1,0.6-0.2,0.9-0.3c0.3-0.2,0.5-0.4,0.7-0.6
			c0.2-0.3,0.3-0.6,0.4-1h1.6v10.1H198.9z"/>
	</g>
	<g>
		<path style="fill:#666666;" d="M195.9,610.9c-2.3-1-4-2.3-5.1-3.8c-1.4,1.6-3.2,2.9-5.3,4c-0.1-0.2-0.3-0.4-0.5-0.6
			c2.5-1.2,4.4-2.6,5.8-4.4l0.8,0.1c-0.1,0.1-0.2,0.3-0.3,0.4c1.1,1.5,2.9,2.7,5.2,3.7C196.2,610.4,196.1,610.6,195.9,610.9z
			 M194.6,617.4c-0.1-0.1-0.2-0.2-0.4-0.4c-0.2-0.2-0.3-0.3-0.3-0.4c-2.5,0.1-4.6,0.2-6.1,0.3c-0.1,0-0.2,0-0.3,0
			c-0.3,0-0.5,0.1-0.7,0.1l-0.4-0.7c0.2-0.1,0.5-0.3,0.8-0.5c0.8-0.7,1.6-1.5,2.3-2.4h-4.1v-0.7h10.5v0.7h-5.5c-0.8,1-1.8,2-2.8,2.9
			c2-0.1,3.9-0.2,5.7-0.2c-0.1-0.1-0.2-0.2-0.4-0.4c-0.2-0.1-0.5-0.4-0.9-0.9l0.5-0.4c1.2,1.2,2.2,2,2.8,2.6L194.6,617.4z
			 M187.5,610.4h6.2v0.6h-6.2V610.4z"/>
		<path style="fill:#666666;" d="M187.1,629.1c0.7-0.5,1.3-1,1.7-1.4c0,0.1,0.1,0.3,0.1,0.5c0,0.1,0,0.2,0,0.2
			c-0.6,0.4-1.2,0.9-1.9,1.5c-0.2,0.1-0.3,0.2-0.5,0.4l-0.5-0.4c0.2-0.2,0.3-0.6,0.3-1v-4.4H185V624h2.1V629.1z M187.2,622.6
			c-0.3-0.3-0.7-0.8-1.1-1.4c-0.2-0.2-0.3-0.4-0.4-0.5l0.5-0.4c0.2,0.2,0.4,0.4,0.7,0.7c0.4,0.5,0.7,0.8,1,1.1L187.2,622.6z
			 M187.6,630.6c1.6-0.8,2.9-1.7,4-2.8c-1.5-1.7-2.5-4.1-2.8-6.9l0.6-0.1c0.3,2.8,1.2,4.9,2.7,6.6c1.4-1.6,2.3-3.8,2.7-6.6l0.7,0.1
			c-0.5,3-1.4,5.3-2.9,6.9c1,1,2.3,1.9,3.8,2.6c0,0-0.1,0.1-0.1,0.1c-0.1,0.1-0.2,0.3-0.4,0.6c-1.7-0.9-3-1.8-3.8-2.7
			c-0.8,0.9-2.1,1.8-3.9,2.9C188,631,187.8,630.8,187.6,630.6z M191,620.4l0.5-0.3c0.6,1,1.1,1.8,1.5,2.4l-0.6,0.3
			C192,622,191.5,621.2,191,620.4z"/>
		<path style="fill:#666666;" d="M194.7,641c-0.3-0.3-0.6-0.5-0.8-0.8c-0.3,0-0.8,0-1.4,0c-0.7,0-1.2,0-1.5,0v1.6h4.3v0.6h-4.3v1.5
			h5.4v0.6H185V644h5.3v-1.5h-4.2v-0.6h4.2v-1.6c-0.3,0-0.7,0-1.2,0c-0.6,0-1,0-1.3,0c-0.1,0-0.3,0-0.6,0c-0.2,0-0.4,0-0.5,0
			l-0.3-0.6c0.3-0.1,0.6-0.3,0.8-0.4c0.6-0.4,1.2-0.9,1.9-1.5h-2.3v-0.6h8v0.6h-4.7c-0.7,0.6-1.5,1.2-2.5,1.9c0.6,0,1.6-0.1,3-0.1
			c1.2-0.1,2.2-0.1,2.8-0.1c-0.4-0.3-0.8-0.7-1.1-1l0.4-0.4c1,0.8,1.9,1.5,2.6,2.2L194.7,641z M190,634.1l0.6-0.3
			c0.3,0.4,0.5,0.9,0.8,1.4l-0.4,0.2h5v1.9h-0.7v-1.3h-9.2v1.3h-0.6v-1.9h5.2C190.4,634.8,190.2,634.4,190,634.1z"/>
	</g>
	<g>
		<path style="fill:#666666;" d="M185.9,581.1c0-0.1-0.1-0.2-0.2-0.5c0-0.1-0.1-0.2-0.1-0.2c0.8-1.2,1.4-2.7,1.7-4.3h-1.5v-0.6h1.5
			v-2.4h0.6v2.4h1.3v0.6h-1.3v2l0.4-0.3c0.1,0.1,0.3,0.3,0.6,0.6c0.2,0.3,0.4,0.5,0.6,0.6l-0.5,0.4c-0.1-0.1-0.3-0.3-0.5-0.6
			c-0.2-0.2-0.4-0.4-0.5-0.6v6.1h-0.6v-6.9C187,578.9,186.5,580.1,185.9,581.1z M189,584.4c-0.1-0.2-0.2-0.4-0.3-0.6
			c1.7-0.3,3-0.7,3.8-1c-0.2-0.1-0.6-0.2-1-0.4c-0.6-0.2-1-0.5-1.4-0.6c0.4-0.4,0.7-0.8,1-1.3h-1.9v-0.6h2.3c0,0,0.1-0.1,0.1-0.2
			c0.1-0.1,0.3-0.4,0.5-0.7l0.7,0.2c-0.1,0.1-0.2,0.3-0.3,0.5c-0.1,0.1-0.2,0.2-0.2,0.2h4.5v0.6h-1.5c-0.5,1.1-1,1.8-1.5,2.2
			c0.2,0.1,0.6,0.2,1.1,0.4c0.8,0.3,1.4,0.5,1.8,0.7l-0.4,0.6c-1.3-0.6-2.3-1-3-1.3C192.4,583.6,191,584,189,584.4z M189.7,579
			c-0.1-0.2-0.2-0.4-0.4-0.6c1.3-0.4,2.4-1.1,3.3-2h-2.9v-0.6h3v-2.7h0.7v2.7h3.4v0.6h-3.3c0.9,0.9,2,1.5,3.5,1.9
			c-0.1,0.1-0.3,0.3-0.4,0.6c-1.5-0.5-2.6-1.1-3.2-2v1.9h-0.7V577C192,577.8,191,578.5,189.7,579z M190,574.2l0.4-0.4
			c0.3,0.3,0.8,0.7,1.4,1.3l-0.5,0.4C190.9,575.1,190.5,574.6,190,574.2z M191,581.5c0.7,0.3,1.4,0.6,2.1,0.8c0.5-0.4,1-1,1.5-2
			h-2.7C191.6,580.8,191.3,581.2,191,581.5z M194.2,575.2c0.5-0.4,1-0.9,1.5-1.4l0.5,0.4c-0.4,0.4-0.9,0.9-1.5,1.4L194.2,575.2z"/>
	</g>
</g>
</svg>
