<?xml version="1.0" encoding="utf-8"?>
<!-- Generator: Adobe Illustrator 17.0.0, SVG Export Plug-In . SVG Version: 6.00 Build 0)  -->
<!DOCTYPE svg PUBLIC "-//W3C//DTD SVG 1.1//EN" "http://www.w3.org/Graphics/SVG/1.1/DTD/svg11.dtd">
<svg version="1.1" id="图层_1" xmlns="http://www.w3.org/2000/svg" xmlns:xlink="http://www.w3.org/1999/xlink" x="0px" y="0px"
	 width="367.068px" height="511.671px" viewBox="0 0 367.068 511.671" enable-background="new 0 0 367.068 511.671"
	 xml:space="preserve">
<g id="形状_44_3_">
	<g>
		<path fill-rule="evenodd" clip-rule="evenodd" fill="#EF8E45" d="M173.405,473.633c-8.205-18.206-1.669-31.712-1.669-31.712
			s-13.9-40.287-23.36-7.511c-9.459,32.777-1.112,67.874-1.112,67.874s11.074,0.441,20.857-0.278
			C177.904,501.287,181.61,491.839,173.405,473.633z"/>
	</g>
</g>
<g id="形状_42_3_">
	<g>
		
			<radialGradient id="SVGID_1_" cx="111.6676" cy="231.5487" r="60.5614" gradientTransform="matrix(1 0 0 1.8668 0 -200.7004)" gradientUnits="userSpaceOnUse">
			<stop  offset="0" style="stop-color:#FFC07D"/>
			<stop  offset="0.5713" style="stop-color:#FEB162"/>
			<stop  offset="1" style="stop-color:#FEA852"/>
		</radialGradient>
		<path fill-rule="evenodd" clip-rule="evenodd" fill="url(#SVGID_1_)" d="M334.775,491.794
			c-13.269-3.216-34.401-12.985-66.798-42.741c-18.288-16.798-28.393-28.907-58.847-76.994
			c-52.921-83.56-49.476-181.859-37.159-193.73c5.235-5.046,0.12-53.809-32.216-13.191c-32.336,40.618-28.265,48.444-28.265,48.444
			s-11.679,51.121-42.476,101.641c-38.871,63.764,8.96,163.817,118.408,124.652c0.671-0.195,11.063,20.302,54.2,45.803
			c38.209,22.588,107.114,19.571,114.536,13.678C361.592,495.043,346.313,494.591,334.775,491.794z"/>
	</g>
</g>
<g id="形状_51_6_" opacity="0.6">
	<g>
		<path fill-rule="evenodd" clip-rule="evenodd" fill="#DD7528" d="M113.451,204.703c-2.965,6.942-1.96,8.88-1.96,8.88
			s-1.431,6.261-4.608,16.557c8.861,0.643,37.434-9.944,46.06-30.325C163.762,174.252,127.565,195.665,113.451,204.703z"/>
	</g>
</g>
<g id="形状_49_6_">
	<g>
		<linearGradient id="SVGID_2_" gradientUnits="userSpaceOnUse" x1="83.8827" y1="344.3051" x2="125.9006" y2="217.2009">
			<stop  offset="0" style="stop-color:#FFC28A"/>
			<stop  offset="0.7938" style="stop-color:#FFCD9F"/>
			<stop  offset="1" style="stop-color:#FFD0A5"/>
		</linearGradient>
		<path fill-rule="evenodd" clip-rule="evenodd" fill="url(#SVGID_2_)" d="M103.047,250.816c-1.057,0.151-2.39,0.841-3.928,1.982
			c-6.779,18.02-16.605,40.28-30.105,62.425c-12.855,21.087-18.98,47.638-13.778,70.315c16.129,17.153,47.754-18.103,47.754-18.103
			s9.462-16.697,12.424-58.02C117.365,282.212,115.726,249.003,103.047,250.816z"/>
	</g>
</g>
<g id="形状_47_7_">
	<g>
		<path fill-rule="evenodd" clip-rule="evenodd" fill="#FFBF80" d="M353.681,498.47c-41.806,2.006-68.378-8.47-102.326-28.545
			c-38.516-22.777-64.808-64.377-71.65-74.152c-12.302-17.576-30.203,53.035-30.203,53.035c1.032,0.276-0.465-0.769,0.554-0.491
			c25.967-0.977,37.366-8.441,37.366-8.441s25.065,33.429,59.676,49.425c42.385,19.589,92.064,16.196,105.844,11.473
			C355.691,499.832,357.324,498.295,353.681,498.47z"/>
	</g>
</g>
<g id="形状_46_拷贝_3_">
	<g>
		<path fill-rule="evenodd" clip-rule="evenodd" fill="#FEBF7B" d="M117.23,342.057c-40.81,10.925-62.096,11.769-68.967,12.518
			c-2.846,0.31-2.744,2.826-2.781,3.06c4.901,83.556,77.866,87.903,77.866,87.903C128.692,397.104,117.478,343.059,117.23,342.057z"
			/>
	</g>
</g>
<g id="形状_46_3_">
	<g>
		<path fill-rule="evenodd" clip-rule="evenodd" fill="#FFBF80" d="M117.23,344.281c-28.644,31.267-71.74,19.499-71.756,20.698
			c-0.951,70.77,77.875,82.782,77.875,82.782C128.692,399.328,117.478,345.283,117.23,344.281z"/>
	</g>
</g>
<g id="形状_58_6_">
	<g>
		<path fill-rule="evenodd" clip-rule="evenodd" fill="#FFD2A6" d="M106.999,354.534c-2.804-6.859-7.948-6.431-13.415-10.007
			c-5.179-3.388-5.138-15.544-5.138-15.544l-32.716,29.296l-1.7,10.076c0,0,13.705,0.368,26.177-1.553
			C92.841,364.855,107.834,356.576,106.999,354.534z"/>
	</g>
</g>
<path opacity="0.4" fill-rule="evenodd" clip-rule="evenodd" fill="#DD7528" d="M99.445,355.497c0,0-14.125,6.336-26.83,8.213
	s-23.076,1.581-23.076,1.581l-1.06-0.322l0.596,2.997c-0.983-0.057-1.868-0.121-2.619-0.188c0,0,2.626,21.774,5.788,28.929
	c3.162,7.156,11.369,8.888,18.644,1.262c4.636-4.86,9.989-19.333,11.858-31.399c3.498-0.798,7.277-2.284,13.602-4.269
	L99.445,355.497z"/>
<g id="形状_60_6_">
	<g>
		<path fill-rule="evenodd" clip-rule="evenodd" fill="#FCEBCE" d="M58.553,391.014c-0.811-6.072-6.683-22.397-1.669-39.501
			s-12.236,5.563-12.236,5.563s-4.152,29.922,8.343,37.831C53.116,395.314,59.364,397.086,58.553,391.014z"/>
	</g>
</g>
<g id="形状_59_6_">
	<g>
		<path fill-rule="evenodd" clip-rule="evenodd" fill="#FCEBCE" d="M81.635,342.89c-0.428-8.422-17.798,10.571-17.798,10.571
			s-4.926,21.807-8.621,29.208c-3.695,7.401-0.54,11.032,2.503,13.352c3.042,2.32,9.354-1.431,12.514-8.345
			C73.393,380.762,82.063,351.312,81.635,342.89z"/>
	</g>
</g>
<g id="形状_56_6_">
	<g>
		<path fill-rule="evenodd" clip-rule="evenodd" fill="#FFD6BB" d="M74.291,278.882c-21.366,4.028-18.25,31.761-18.25,31.761
			l10.168,2.616c0,0,7.497-3.021,11.254-10.984C83.795,288.855,74.819,278.782,74.291,278.882z"/>
	</g>
</g>
<g id="形状_57_6_">
	<g>
		<path fill-rule="evenodd" clip-rule="evenodd" fill="#DCA27C" d="M68.415,291.732c-3.588-0.001-6.928,6.596-7.92,10.052
			c-1.068,3.719-0.753,7.251-0.753,7.251s9.981,3.618,11.297,0C74.682,299.023,71.242,291.733,68.415,291.732z"/>
	</g>
</g>
<g id="形状_52_3_">
	<g>
		<path fill-rule="evenodd" clip-rule="evenodd" fill="#FCEBCE" d="M104.786,288.298c0.074-0.893-25.254-5.701-36.71,19.173
			c0,0-26.558-5.891-31.214,20.396c-1.362,7.688-5.434,12.869-9.073,15.125c-3.082,1.911,3.221,31.962,42.722,18.534
			c17.908-5.952,22.135-28.726,13.627-41.726C84.183,319.924,109.19,311.807,104.786,288.298z"/>
	</g>
</g>
<g id="形状_55_3_">
	<g>
		<path fill-rule="evenodd" clip-rule="evenodd" fill="#FFBD99" d="M93.65,297.546c-1.323-2.74-16.543,0.578-21.318,12.109
			c0,0,5.404,1.951,9.024,7.641c0.09-0.051,3.955-1.716,6.897-4.859C92.456,307.948,95.175,300.705,93.65,297.546z"/>
	</g>
</g>
<g id="形状_54_6_">
	<g>
		<path fill-rule="evenodd" clip-rule="evenodd" fill="#694531" d="M33.291,341.193c-1.18-0.911-7.397-0.207-7.393,4.249
			c0.001,1.735,0.679,5.64,4.487,7.687C33.638,354.879,37.669,344.574,33.291,341.193z"/>
	</g>
</g>
<g id="形状_97_4_">
	<g>
		<path fill-rule="evenodd" clip-rule="evenodd" fill="#694531" d="M47.984,334.188c-4.319,1.366-5.895,3.553-4.587,4.422
			c0.471,0.313,1.147,0.091,2.945-0.934c1.53-0.872,5.036-2.041,8.367-2.415c5.226-0.587,6.314,0.688,6.311-0.404
			C61.016,333.434,53.966,332.296,47.984,334.188z"/>
	</g>
</g>
<g id="形状_43_3_">
	<g>
		
			<radialGradient id="SVGID_3_" cx="152.783" cy="266.6805" r="95.299" gradientTransform="matrix(1 0 0 1.3798 0 -101.2851)" gradientUnits="userSpaceOnUse">
			<stop  offset="0" style="stop-color:#FFC07D"/>
			<stop  offset="0.5713" style="stop-color:#FEB162"/>
			<stop  offset="1" style="stop-color:#FEA852"/>
		</radialGradient>
		<path fill-rule="evenodd" clip-rule="evenodd" fill="url(#SVGID_3_)" d="M171.83,320.495
			c-14.992-19.308-55.728-19.308-73.639,23.832c0,0-12.907,25.772-9.314,48.886c5.202,33.462,14.267,40.765,32.311,60.215
			c13.564,14.621,8.11,16.988,5.055,21.153c-2.399,3.271-11.556,9.059-50.726,2.389c-64.76-11.026-78.83,21.882-58.121,25.592
			c20.709,3.71,139.602,0,139.602,0s11.124-0.556,3.893-27.261c-5.739-21.196-0.967-40.972,20.012-62.978
			C199.363,392.962,193.509,348.416,171.83,320.495z"/>
	</g>
</g>
<g id="形状_62_3_">
	<g>
		<path fill-rule="evenodd" clip-rule="evenodd" fill="#DD7528" d="M60.584,487.572c-26.637-4.93-36.319,8.816-34.535,15.874
			c1.448,0.091,3.009,0.172,4.672,0.245c-3.646-8.161,13.298-15.908,30.334-13.09C63.726,491.043,65.168,489.076,60.584,487.572z"/>
	</g>
</g>
<g id="形状_45_3_">
	<g>
		<path fill-rule="evenodd" clip-rule="evenodd" fill="#FF9B48" d="M140.868,226.895c-17.701,0.586-14.739,23.088-14.739,23.088
			c4.461,39.785,2.539,66.075-9.177,75.941c-11.716,9.866-6.926,12.901-6.118,13.074c10.926,2.336,13.543-6.364,13.07-3.338
			c-0.473,3.026-1.677,22.915,4.728,22.532c6.405-0.383,8.322-16.947,8.899-12.518c0.577,4.429,1.287,7.041,1.669,7.511
			c10.728,7.576,6.068-17.37,5.84-21.141c-0.228-3.772-2.813-12.323,3.893-34.493c6.96-23.01,7.613-43.652,7.786-47.289
			C156.893,246.624,158.569,226.31,140.868,226.895z"/>
	</g>
</g>
<g id="形状_14_拷贝_2_3_">
	<g>
		<path fill-rule="evenodd" clip-rule="evenodd" fill="#CC7123" d="M139.966,337.995c-1.019,1.475-1.955,2.909-2.807,6.993
			c0.163-0.173,0.283,0.008,0.371,0.687c0.033,0.254,0.068,0.481,0.102,0.724c0.837-2.492,2.125-5.379,4.004-7.292
			C142.795,338.188,141.04,336.442,139.966,337.995z"/>
	</g>
</g>
<g id="形状_32_3_">
	<g>
		<path fill-rule="evenodd" clip-rule="evenodd" fill="#FFA76C" d="M141.872,11.257c-4.938-4.943-9.856-1.227-10.076,7.74
			c-0.911,37.067-6.819,73.685-6.819,73.685s12.16,5.306,15.962,1.861c3.802-3.446,11.817-4.261,14.67-33.444
			C158.532,31.202,146.81,16.2,141.872,11.257z"/>
	</g>
</g>
<g id="形状_33_3_">
	<g>
		<path fill-rule="evenodd" clip-rule="evenodd" fill="#E08344" d="M145.626,38.711c-2.768-9.29-7.961-7.088-8.608,3.042
			c-0.961,15.058-6.438,52.449-6.438,52.449s-0.935,15.515,5.894,1.504C152.341,63.153,148.274,47.599,145.626,38.711z"/>
	</g>
</g>
<g id="形状_26_3_">
	<g>
		
			<radialGradient id="SVGID_4_" cx="62.6691" cy="182.7497" r="116.1192" gradientTransform="matrix(1 0 0 1.2728 0 -49.8484)" gradientUnits="userSpaceOnUse">
			<stop  offset="0" style="stop-color:#FECD97"/>
			<stop  offset="1" style="stop-color:#FEA852"/>
		</radialGradient>
		<path fill-rule="evenodd" clip-rule="evenodd" fill="url(#SVGID_4_)" d="M181.229,111.126
			c-11.544-23.959-31.334-32.575-50.023-32.575c-25.976,0-47.143,6.774-56.239,35.979c-3.943,12.661-1.405,36.915-5.924,42.807
			c-6.633,8.648-8.69,10.401-11.933,14.758c-3.792,5.095-4.146,9.628-3.286,15.071c2.088,13.208,20.922,36.801,65.828,28.652
			C175.461,205.691,202.047,154.333,181.229,111.126z"/>
	</g>
</g>
<g id="形状_36_3_">
	<g>
		<path fill-rule="evenodd" clip-rule="evenodd" fill="#FFA083" d="M96.927,204.643c-9.892,4.424-19.565,6.072-23.218,6.572
			c1.238,0.642,3.409,1.599,4.774,2.163c10.353-1.215,18.505-4.851,20.537-6.174C100.908,205.974,99.438,203.243,96.927,204.643z"/>
	</g>
</g>
<g id="形状_35_3_">
	<g>
		<path fill-rule="evenodd" clip-rule="evenodd" fill="#FFA083" d="M97.466,180.147c-11.033,0.688-11.207,4.693-11.125,6.383
			c0.082,1.69,2.699,5.223,12.355,4.479c9.656-0.743,11.054-4.719,11.22-6.059C110.064,183.738,108.498,179.459,97.466,180.147z"/>
	</g>
</g>
<g id="形状_27_3_">
	<g>
		<path fill-rule="evenodd" clip-rule="evenodd" fill="#66361F" d="M181.898,111.11c-6.336-13.151-15.828-21.654-25.588-26.672
			c-8.732-3.372-18.305-6.249-26.188-6.715c-21.143-1.25-46.059,7.603-55.155,36.808c-1.947,6.252-2.314,14.217-2.731,22.515
			c2.822,0.067,27.66-0.586,40.435-24.068c0.062-0.333,5.801,22.112,21.71,30.726c3.84,0.772,23.433-5.403,32.687-13.623
			c0.009,9.857,1.944,24.649,14.279,30.561c1.893,0.907,2.924,1.054,3.741,0.857C189.631,145.627,189.693,127.288,181.898,111.11z"
			/>
	</g>
</g>
<g id="形状_28_副本_3_">
	<g>
		<path fill-rule="evenodd" clip-rule="evenodd" fill="#E5432E" d="M144.688,110.968c-4.945-4.185-12.594-10.52-21.48-14.729
			c-10.51-4.978-22.749-7.356-34.288-5.038c-3.973,3.612-7.413,8.171-10.222,13.888c2.788-0.409,4.74-0.751,4.74-0.751
			s38.5,1.276,71.494,21.666C152.623,119.272,148.878,114.513,144.688,110.968z"/>
	</g>
</g>
<g id="形状_37_3_">
	<g>
		<path fill-rule="evenodd" clip-rule="evenodd" fill="#FFFFFF" d="M113.466,153.118c0,0-4.972-8.388-19.316-4.009
			c-14.344,4.38-12.291,16.943-11.996,18.058c0,0,4.207,9.998,20.339,6.699C118.625,170.567,113.466,153.118,113.466,153.118z"/>
	</g>
</g>
<g id="形状_39_3_">
	<g>
		<path fill-rule="evenodd" clip-rule="evenodd" fill="#512A15" d="M112.879,152.827c-3.549-7.366-19.772-3.418-19.842-3.44
			c-0.1-0.058-1.561,0.133-3.337,1.391c0,0-4.962,14.209,6.674,19.194c10.68,4.575,15.945-2.313,16.745-4.561
			C113.407,164.604,115.707,158.697,112.879,152.827z"/>
	</g>
</g>
<path fill-rule="evenodd" clip-rule="evenodd" fill="#FFCE99" d="M82.283,164.272c5.218-12.909,13.23-15.669,18.735-14.685
	c10.332,1.846,13.939,6.507,13.869,6.217c-0.07-0.289-2.616-9.229-11.346-11.388c-7.969-1.97-15.824,2.454-19.325,7.908
	c-3.183,4.957-2.484,11.948-2.484,11.948"/>
<g id="形状_38_3_">
	<g>
		<path fill-rule="evenodd" clip-rule="evenodd" fill="#713D1F" d="M81.896,167.373c0.006-0.035,0.014-0.069,0.02-0.104
			c-0.005-0.007-0.014-0.03-0.02-0.042C81.895,167.262,81.894,167.302,81.896,167.373z M81.933,167.186
			c-0.005,0.028-0.011,0.055-0.016,0.083C81.957,167.333,81.95,167.243,81.933,167.186z M115.699,155.397
			c0,0-7.928-12.983-20.919-8.202c-15.218,5.588-13.035,19.638-13.035,19.638c0.076,0.225,0.121,0.334,0.152,0.394
			c0.005-0.099,0.023-0.087,0.036-0.041c1.248-6.78,3.955-12.767,12.087-16.091c16.45-3.297,20.195,8.756,20.195,8.756
			s0.538-0.704,1.148-1.864C115.859,157.045,115.699,155.397,115.699,155.397z"/>
	</g>
</g>
<g id="形状_40_3_">
	<g>
		<path fill-rule="evenodd" clip-rule="evenodd" fill="#A85726" d="M106.418,136.988c-1.062-0.712-4.956-2.459-10.284-1.212
			c-6.669,1.562-9.09,4.501-10.532,6.564c-1.442,2.063,0.768,2.814,1.439,2.044c1.513-1.737,5.416-3.685,8.119-4.771
			c4.475-1.799,8.561-1.095,10.263-0.626C107.69,139.613,108.053,138.085,106.418,136.988z"/>
	</g>
</g>
<g id="形状_94_4_">
	<g>
		<path fill-rule="evenodd" clip-rule="evenodd" fill="#713D1F" d="M121.244,152.013c-1.439,0.963-4.847,1.966-6.99,1.443
			c-3.135-0.764-1.582,4.044,0.371,4.263c4.228,0.473,6.717-2.704,7.709-4.919C123.618,149.93,122.729,151.019,121.244,152.013z"/>
	</g>
</g>
<g id="形状_95_4_">
	<g>
		<path fill-rule="evenodd" clip-rule="evenodd" fill="#A85726" d="M112.25,167.908c0.679-1.387-1.284,1.52-2.667,2.549
			c-2.276,1.693-4.754,3.204-9.858,3.863c-6.074,0.785-11.684-1.946-13.815-2.89c-0.701-0.311,1.405,2.032,5.042,3.499
			c2.869,1.157,6.184,1.384,10.51,0.678c1.497,0.328,3.195,1.103,4.156,1.776c0.473,0.331,0.563-0.149-0.044-1.313
			c-0.242-0.463-0.767-0.879-1.234-1.181c0.575-0.19,1.12-0.404,1.633-0.644c0.495,0.069,1.332,0.197,2.026,0.365
			c1.199,0.29,2.642,0.997,2.642,0.997s-0.323-1.383-1.475-2.047c-0.452-0.26-0.861-0.39-1.191-0.458
			C109.819,171.794,111.197,170.058,112.25,167.908z"/>
	</g>
</g>
<g id="形状_96_4_">
	<g>
		<path fill-rule="evenodd" clip-rule="evenodd" fill="#FFFFFF" d="M91.541,163.692c-2.913,1.14-4.086,3.962-1.332,4.94
			c2.755,0.978,4.283,1.57,5.661-0.915C97.247,165.234,94.454,162.552,91.541,163.692z"/>
	</g>
</g>
<g id="形状_31_3_">
	<g>
		<path fill-rule="evenodd" clip-rule="evenodd" fill="#FFC07D" d="M187.041,17.953c-4.5-14.089-10.071-6.696-15.665,1.464
			c-5.593,8.161-15.296,22.333-21.948,35.616c-5.31,10.603-9.082,22.673-10.425,32.025c-0.25,1.741-0.684,7.065,0.484,10.168
			c2.774,7.371,13.753,18.358,20.084,14.717C209.797,83.065,191.615,32.275,187.041,17.953z"/>
	</g>
</g>
<g id="形状_34_3_">
	<g>
		<path fill-rule="evenodd" clip-rule="evenodd" fill="#FF9B48" d="M179.331,42.81c-1.455-17.814-16.95,1.516-27.665,24.102
			c-8.289,17.471-11.009,32.798-11.009,32.798s1.332,5.106,7.863,9.398c1.287,0.846,4.083-1.069,6.258-2.939
			C171.869,91.467,181.338,67.398,179.331,42.81z"/>
	</g>
</g>
<g id="形状_29_3_">
	<g>
		<path fill-rule="evenodd" clip-rule="evenodd" fill="#E5432E" d="M91.367,23.825c-0.109-0.036-5.103-2.789-5.284,3.06
			c-0.133,4.284,3.257,22.838,5.097,31.78c-0.238,0.053-25.089-25.768-40.7-31.498c-0.186,0.221-6.822-4.027-5.862,1.905
			c0.959,5.932,5.126,38.117,53.1,65.547c14.765,8.442,22.097,0.772,22.097,0.772S127.638,52.794,91.367,23.825z"/>
	</g>
</g>
<g id="形状_93_3_">
	<g>
		<path fill-rule="evenodd" clip-rule="evenodd" fill="#AA2D24" d="M99.224,87.557c-1.783-6.784-5.594-16.402-8.079-28.918
			c-0.232-0.157-2.454-2.392-5.875-5.636c-0.439,3.876-1.235,18.167,8.538,31.668C98.392,91.002,101.007,94.343,99.224,87.557z"/>
	</g>
</g>
<g id="形状_41_3_">
	<g>
		<path fill-rule="evenodd" clip-rule="evenodd" fill="#713D1F" d="M60.215,176.277c-4.849-1.265-7.431,1.592-7.685,3.811
			c-1.405,8.408,2.465,13.72,5.839,13.118C63.976,192.207,68.398,178.736,60.215,176.277z"/>
	</g>
</g>
<g id="形状_77_38_">
	<g>
		<path fill-rule="evenodd" clip-rule="evenodd" fill="#FFBD99" d="M49.291,340.888c-2.551,0.322-4.51,1.631-4.372,2.921
			c0.136,1.291,2.313,2.074,4.864,1.752c2.554-0.323,4.51-1.631,4.374-2.922C54.022,341.349,51.842,340.566,49.291,340.888z"/>
	</g>
</g>
<path fill-rule="evenodd" clip-rule="evenodd" fill="#F6BF96" d="M62.911,391.568c-0.813,1.184-2.783,3.608-4.591,4.815
	c0.146,0.149,0.353,0.195,0.586,0.252c0.234,0.057,0.528,0.073,0.747,0.065c0.855-0.655,2.061-2.016,2.779-2.96
	C63.94,391.765,64.007,389.978,62.911,391.568z"/>
<path fill-rule="evenodd" clip-rule="evenodd" fill="#F6BF96" d="M59.75,387.879c-0.68,1.265-2.696,4.553-4.362,5.95
	c0.258,0.309,0.561,0.675,0.937,0.929c0.779-0.745,2.131-2.786,2.743-3.802C60.352,388.827,60.666,386.179,59.75,387.879z"/>
<path fill-rule="evenodd" clip-rule="evenodd" fill="#F7CC9D" d="M53.175,316.175c0,0,1.024,2.349,2.636,3.621
	c1.612,1.271,4.675,1.67,6.57,0.274c1.486-1.095,1.955-2.969,1.799-4.31c-0.156-1.342-0.855-2.366-0.855-2.366
	s-0.017,1.622-0.671,3.392c-0.665,1.799-3.168,2.307-5.689,1.193c-2.545-1.124-3.306-4.674-3.306-4.674
	c-0.974,1.201-2.803,3.981-5.548,3.246c-1.886-0.505-2.647-1.93-2.703-4.467c-0.352,0.282-0.698,0.579-1.038,0.891
	c-0.274,1.011-0.393,2.242,0.02,3.497c0.939,2.855,3.609,3.094,5.123,2.503C52.08,317.973,53.175,316.175,53.175,316.175z"/>
</svg>
