<?xml version="1.0" encoding="utf-8"?>
<!-- Generator: Adobe Illustrator 17.1.0, SVG Export Plug-In . SVG Version: 6.00 Build 0)  -->
<!DOCTYPE svg PUBLIC "-//W3C//DTD SVG 1.1//EN" "http://www.w3.org/Graphics/SVG/1.1/DTD/svg11.dtd">
<svg version="1.1" id="图层_1" xmlns="http://www.w3.org/2000/svg" xmlns:xlink="http://www.w3.org/1999/xlink" x="0px" y="0px"
	 viewBox="0 0 910 775" style="enable-background:new 0 0 910 775;" xml:space="preserve">
<g>
	<path style="fill:#66361F;" d="M30.6,186.8h2.6v-7.7h6.3v-2.6h-8.2v-0.9h17.5v0.9h-8.2v2.6H47v7.7h2.6v0.9H47v3.1
		c0.1,1.3-0.7,2-2.3,2c-0.7,0.1-1.6,0.1-2.5,0.1c0-0.1,0-0.3-0.1-0.5c-0.1-0.3-0.1-0.5-0.2-0.6c0.6,0,1.4,0,2.6,0
		c1,0.1,1.4-0.3,1.3-1v-3H34.2v5.4h-1v-5.4h-2.6V186.8z M34.2,180.1v2.8h5.3v-2.8H34.2z M34.2,183.9v3h5.3v-3H34.2z M45.9,180.1
		h-5.2v2.8h5.2V180.1z M40.6,183.9v3h5.2v-3H40.6z"/>
	<path style="fill:#66361F;" d="M51.5,179.1l1,0.2c-0.3,1.6-0.5,3.1-0.9,4.5c-0.1-0.1-0.3-0.1-0.5-0.2c-0.3-0.1-0.4-0.1-0.5-0.1
		C51.1,181.8,51.3,180.3,51.5,179.1z M53.5,174.6h1.1v18.6h-1.1V174.6z M55.3,179l0.9-0.4c0.2,0.3,0.5,0.7,0.9,1.4
		c0.4,0.6,0.7,1.1,0.9,1.4l-0.9,0.5c-0.2-0.3-0.4-0.8-0.8-1.5C55.7,179.8,55.5,179.3,55.3,179z M57.5,178.6h12v1h-9.1v11.5h8.4v1
		h-9.5v-12.5h-1.9V178.6z M62.1,175.1l0.9-0.5c0.4,0.5,0.9,1.3,1.6,2.4c0.2,0.3,0.4,0.5,0.5,0.7l-1,0.5c-0.2-0.3-0.5-0.9-0.9-1.6
		C62.6,175.9,62.3,175.4,62.1,175.1z"/>
	<path style="fill:#66361F;" d="M70.6,182.1l2.8-0.7v-4.7h1.1v4.4l5.1-1.2v-5.3h1.1v5l6.9-1.6c0,0.1,0,0.2,0,0.4
		c-0.1,2.7-0.2,4.7-0.3,5.9c-0.1,2-1,2.9-2.7,2.9c-0.7,0-1.4,0-2,0c-0.1-0.2-0.1-0.5-0.2-0.8c-0.1-0.2-0.1-0.3-0.1-0.4
		c0.2,0,0.5,0,1,0c0.5,0.1,0.8,0.1,1.1,0.1c1.2,0.1,1.8-0.6,1.8-1.9c0.2-1.4,0.2-3,0.2-4.9l-5.7,1.5v8.4h-1.1v-8l-5.1,1.2v7.3
		c-0.1,1.2,0.6,1.8,2,1.8h8.9c1.6,0.1,2.4-0.4,2.6-1.5c0.2-0.8,0.3-1.7,0.3-2.7c0.4,0.2,0.8,0.3,1.2,0.4c-0.1,0.9-0.3,1.9-0.5,2.9
		c-0.3,1.4-1.4,2.1-3.4,2h-9.5c-1.9,0.1-2.9-0.8-2.8-2.6v-7.4l-2.7,0.7L70.6,182.1z"/>
	<path style="fill:#66361F;" d="M108,193c-0.4-0.1-1-0.3-1.8-0.5c-1.2-0.4-3-1-5.3-1.6c-2.3,1.1-5.5,1.9-9.4,2.3
		c-0.1-0.3-0.2-0.7-0.4-1c3.4-0.4,6.2-0.9,8.4-1.7c-1.8-0.6-3.5-1.2-5.3-1.7c0.7-0.7,1.3-1.4,1.8-2.1h-5.3v-0.9h6
		c0.2-0.3,0.5-0.8,1-1.4c0.1-0.3,0.2-0.4,0.3-0.5l1.1,0.5c-0.1,0.2-0.3,0.4-0.5,0.7c-0.3,0.4-0.5,0.6-0.6,0.8h11.6v0.9h-4.3
		c-0.8,1.5-1.8,2.7-3.2,3.6c0.6,0.2,1.6,0.5,2.9,0.8c1.6,0.5,2.8,0.8,3.6,1.1L108,193z M91.3,175.5h17.7v0.9H103v2.3h4.9v4.8H92.3
		v-4.8h4.8v-2.3h-5.9V175.5z M93.3,179.6v2.9h3.8v-2.9H93.3z M100.6,189.8c1.4-0.8,2.5-1.8,3.4-3.2h-6.7c-0.3,0.4-0.7,0.8-1.2,1.4
		c-0.1,0.2-0.2,0.3-0.2,0.3c0.4,0.1,0.9,0.3,1.7,0.5C99,189.3,100,189.6,100.6,189.8z M98.1,176.4v2.3h3.8v-2.3H98.1z M98.1,179.6
		v2.9h3.8v-2.9H98.1z M106.9,179.6H103v2.9h3.9V179.6z"/>
	<path style="fill:#66361F;" d="M113.1,174.6h1.1v3.9h2.2v0.9h-2.2v4.4c0.7-0.3,1.4-0.5,2.1-0.7c0,0.4,0,0.7,0,1
		c-0.4,0.2-1.1,0.4-2.1,0.7v6.2c0.1,1.4-0.6,2-1.9,2c-0.5,0.1-1,0.1-1.4,0.1c0-0.1,0-0.3-0.1-0.5c0-0.3,0-0.4-0.1-0.5
		c0.3,0,0.8,0,1.3,0c0.7,0.1,1.1-0.3,1-1v-5.7c-0.8,0.3-1.6,0.5-2.4,0.9l-0.2-1.2c0.9-0.2,1.8-0.5,2.6-0.8v-4.7h-2.4v-0.9h2.4V174.6
		z M117.5,175.6H128v8.2h-9.5v6.2c-0.1,1,0.6,1.5,2,1.5h5.2c1.4,0,2.1-0.5,2.3-1.4c0.2-0.9,0.3-1.9,0.4-3c0.4,0.2,0.8,0.3,1.2,0.3
		c0,0.1,0,0.3-0.1,0.5c-0.1,1.2-0.2,2.1-0.4,2.5c-0.3,1.5-1.3,2.2-3.2,2.2h-5.9c-1.7,0.1-2.5-0.7-2.4-2.3V175.6z M118.5,176.5v6.3
		h3.7v-6.3H118.5z M126.9,176.5h-3.7v6.3h3.7V176.5z"/>
	<path style="fill:#66361F;" d="M132.7,178.9h4.7c0.4-1.4,0.7-2.9,0.9-4.5l1.2,0.2c-0.1,0.4-0.2,1.1-0.4,2c-0.2,1-0.4,1.8-0.5,2.3
		h10.9v1h-11.2c-0.3,1-0.5,2-0.9,2.9h9.8v0.9c-0.9,2.3-2.3,4.3-4.2,5.8c1.3,0.9,3.4,1.7,6.4,2.3c-0.2,0.2-0.3,0.5-0.5,0.9
		c-0.1,0.1-0.1,0.1-0.1,0.2c-2.8-0.8-5.1-1.7-6.7-2.7c-1.5,0.8-3.9,1.8-7.3,3c-0.1-0.2-0.2-0.5-0.5-0.8c-0.1-0.2-0.1-0.3-0.2-0.3
		c3.3-0.8,5.7-1.7,7-2.6c-1.8-1.5-3.1-3.4-3.9-5.8H137c-1.3,3.2-3.2,6.1-5.6,8.5c-0.1-0.2-0.3-0.3-0.5-0.5c-0.2-0.2-0.3-0.3-0.3-0.3
		c3.3-3.1,5.5-6.9,6.6-11.5h-5.5v-1.2c0.6-1.2,1-2.4,1.4-3.5l1.1,0.3c-0.1,0.2-0.2,0.5-0.3,0.9C133.3,177.6,132.9,178.4,132.7,178.9
		z M146,183.8h-7.8c0.8,2.1,2.1,3.8,3.8,5.2C143.9,187.5,145.2,185.8,146,183.8z M142.9,175.6l0.6-0.8c1.1,0.7,2.3,1.5,3.4,2.3
		l-0.7,0.9C144.7,176.8,143.6,176,142.9,175.6z"/>
	<path style="fill:#66361F;" d="M159.6,186h1v1.5h7.1v0.9h-7.1v3h8.8v0.9h-18.8v-0.9h8.9v-3h-7.1v-0.9h7.1V186z M151.6,175.6h9.8
		v0.9h-2.1v3.6h2.8v0.9h-2.8v4.2h-1V181h-3.6c-0.1,1.8-1,3.4-2.6,4.8c-0.2-0.3-0.4-0.5-0.7-0.7c1.4-1.2,2.2-2.6,2.3-4.1h-2.9v-0.9h3
		c0-0.5,0-1,0-1.6v-2h-2.2V175.6z M154.8,178.5c0,0.6,0,1.1-0.1,1.6h3.5v-3.6h-3.4V178.5z M163.2,176h1v6.3h-1V176z M168.2,174.8
		v8.4c0.1,1.6-0.6,2.3-2,2.3c-0.6,0.1-1.4,0.1-2.3,0.1c0-0.2,0-0.3-0.1-0.5c-0.1-0.3-0.1-0.4-0.2-0.5c0.3,0.1,1,0.1,2.1,0.1
		c1,0.1,1.5-0.4,1.4-1.5v-8.2H168.2z"/>
	<path style="fill:#66361F;" d="M170.9,187.1h4.8c0.1-0.6,0.1-1.4,0.1-2.3h1.2c-0.1,0.8-0.1,1.6-0.1,2.3h6.9v-2.3h1.1v2.3h4.8v0.9
		h-4.8v5.1h-1.1v-5.1h-7c-0.1,2.3-1.6,4-4.4,5.2c-0.2-0.3-0.4-0.6-0.7-0.9c2.7-0.9,4-2.3,4-4.2h-4.8V187.1z M171.7,175.7h17v0.9h-8
		v2.7h7v0.9h-7v2.7h8.6v0.9h-18.3V183h8.6v-2.7h-7v-0.9h7v-2.7h-8V175.7z"/>
	<path style="fill:#66361F;" d="M208.8,185.8c-3.7-0.7-6.6-1.5-8.6-2.5c-2.3,1.1-5.2,2-8.7,2.7c0-0.1-0.1-0.3-0.3-0.7
		c-0.1-0.2-0.2-0.3-0.2-0.3c3.3-0.6,6-1.4,8-2.3c-1.7-1-3.3-2.6-4.8-4.6h-3.1v-0.9h9.3c-0.1-0.2-0.2-0.6-0.5-1.2
		c-0.3-0.6-0.4-1-0.5-1.2l1-0.4c0.4,1,0.8,1.8,1,2.5l-0.9,0.3h8.5v0.9h-2.9c-1.6,2.1-3.3,3.6-4.9,4.6c1.7,0.8,4.3,1.5,8,2
		C209.1,185.2,208.9,185.6,208.8,185.8z M191.4,192.3c1.9-0.8,3.1-1.6,3.5-2.3c0.6-0.7,0.8-2.1,0.8-4.2h1.1c0.1,2.3-0.2,3.9-0.9,4.8
		c-0.5,0.9-1.8,1.8-3.8,2.7C192.1,192.9,191.8,192.6,191.4,192.3z M200.1,182.1c1.7-0.9,3.3-2.3,4.7-4h-9.2
		C196.9,179.9,198.4,181.2,200.1,182.1z M203.4,185.8h1.1v7.3h-1.1V185.8z"/>
	<path style="fill:#66361F;" d="M211.9,178.2h3.6v-1.4h-4.4V176h4.4v-1.5h0.9v1.5h4.2v0.8h-4.2v1.4h3.6v3.5h-3.6v1.2l0.4-0.5
		c1.2,0.5,2.3,1,3.4,1.6l-0.5,0.8c-0.6-0.3-1.6-0.8-2.9-1.4c0.1,0.1,0,0-0.4-0.2v2.1h-0.9v-2.7c-1.2,1.3-2.7,2.3-4.4,2.9
		c-0.1-0.1-0.2-0.2-0.3-0.5c-0.1-0.2-0.2-0.3-0.2-0.3c1.9-0.7,3.5-1.7,4.8-2.9h-3.4V178.2z M211.5,186h17.2v0.9h-8v2h6.6v0.9h-6.6
		v1.9h8.8v0.9h-18.8v-0.9h3.5v-3.4h1v3.4h4.5v-4.8h-8.3V186z M212.8,178.9v2h2.7v-2H212.8z M219.1,180.9v-2h-2.7v2H219.1z
		 M221.1,185.2c-0.2-0.4-0.4-0.7-0.6-0.9c1.6-0.5,2.9-1.2,3.8-2c-0.8-0.8-1.5-2-2-3.6c-0.2,0.3-0.4,0.7-0.8,1.2
		c-0.2,0.3-0.4,0.5-0.5,0.7c-0.1-0.1-0.2-0.2-0.4-0.3c-0.2-0.1-0.4-0.2-0.5-0.2c1.4-1.9,2.4-3.8,3-5.7l1,0.3
		c-0.1,0.4-0.3,0.9-0.6,1.6c-0.1,0.2-0.2,0.4-0.2,0.5h5.9v0.9h-1.1c-0.6,2.1-1.4,3.7-2.4,4.8c0.8,0.6,2,1.2,3.8,1.6
		c-0.3,0.5-0.5,0.8-0.6,1c-1.6-0.6-2.9-1.3-3.8-2C224.3,183.7,222.9,184.5,221.1,185.2z M225,181.7c0.9-0.9,1.6-2.2,2.2-4.1H223
		l-0.1,0.1C223.5,179.5,224.2,180.8,225,181.7z"/>
</g>
<g>
	<path style="fill:#66361F;" d="M114.7,335.6h6.4v14.8h-0.9v-0.9h-4.5v1.2h-0.9V335.6z M115.6,336.4v5.6h1.8v-5.6H115.6z M115.6,343
		v5.6h1.8V343H115.6z M120.1,336.4h-1.8v5.6h1.8V336.4z M118.3,343v5.6h1.8V343H118.3z M122.5,340.2c-0.2-0.3-0.5-0.5-0.8-0.7
		c1.5-1.9,2.6-3.8,3.4-5.9l1,0.3c-0.1,0.2-0.3,0.5-0.5,0.9c-0.2,0.4-0.3,0.7-0.4,0.9h6.2v1c-1.1,2-2.2,3.5-3.4,4.5
		c1.2,1,2.8,1.7,4.6,2.3c-0.1,0.1-0.1,0.2-0.2,0.4c-0.2,0.3-0.3,0.5-0.3,0.6c-2-0.8-3.6-1.6-4.8-2.6c-1.2,1-3,1.9-5.2,2.7
		c-0.2-0.3-0.3-0.6-0.5-0.9c2-0.8,3.7-1.6,4.9-2.6c-1-0.9-1.8-2.1-2.4-3.4C123.6,338.6,123.1,339.4,122.5,340.2z M123.3,345h7.6v7.3
		h-1v-1.2h-5.5v1.2h-1V345z M124.4,346v4.2h5.5V346H124.4z M124.7,336.7L124.7,336.7c-0.1,0.1-0.1,0.1-0.1,0.2
		c0.6,1.4,1.5,2.6,2.7,3.8c1-0.8,2.1-2.1,3-3.9H124.7z"/>
	<path style="fill:#66361F;" d="M147.6,333.7h0.9v2.5h4.1v0.9h-4.1v2.3h-0.9v-2.3h-3.9v2.3h-0.9v-2.3h-3.8v2.3h-1v-2.3h-4.1v-0.9
		h4.1v-2.5h1v2.5h3.8v-2.5h0.9v2.5h3.9V333.7z M134.4,340.4h17.5v3.2h-1v-2.3h-15.5v2.3h-1V340.4z M137.6,350.6h-1v-6.5h6v-1.9h1
		v1.9h6.2v4.5c0.1,1.2-0.6,1.9-2,1.9c-0.6,0-1.2,0-2,0c0-0.3-0.1-0.6-0.2-0.9c0.7,0,1.4,0,2,0c0.9,0.1,1.3-0.3,1.2-1.1v-3.4h-5.2
		v7.2h-1v-7.2h-5V350.6z"/>
	<path style="fill:#66361F;" d="M155.8,336.3h5.3c0.3-1,0.5-1.9,0.7-2.7l1.2,0.2c-0.1,0.1-0.1,0.3-0.2,0.5c-0.1,0.4-0.3,1.1-0.6,2
		h8.3v16h-1.1V351h-12.5v1.2h-1.1V336.3z M156.9,337.3v3.6h12.5v-3.6H156.9z M156.9,341.9v3.7h12.5v-3.7H156.9z M156.9,346.5v3.5
		h12.5v-3.5H156.9z"/>
	<path style="fill:#66361F;" d="M174.2,344c-0.2-0.4-0.3-0.8-0.5-1.1c1.8-2.7,3.2-5.7,4.2-9.2l1,0.3c-0.5,1.6-1,3.1-1.7,4.5v13.8h-1
		v-11.6C175.6,341.9,174.9,343,174.2,344z M184.8,334l1-0.4c0.2,0.5,0.5,1.1,0.9,2c-0.1-0.1,0,0,0.2,0.4l-0.9,0.3h6.6v1h-13.4v-1
		h6.6c0-0.1,0-0.1-0.1-0.2C185.5,335.4,185.1,334.7,184.8,334z M180.4,339.5h11.1v0.9h-11.1V339.5z M180.4,342.6h11.1v1h-11.1V342.6
		z M180.6,345.8h10.6v6.5h-1v-1.2h-8.6v1.2h-1V345.8z M181.6,346.7v3.4h8.6v-3.4H181.6z"/>
	<path style="fill:#66361F;" d="M194.5,336.9h2c0.4-1.2,0.7-2.3,0.9-3.2l1.1,0.2c-0.3,1-0.6,2-0.9,3h4v15h-1.1v-1.6h-5v1.7h-1V336.9
		z M195.5,337.8v5.3h5v-5.3H195.5z M195.5,344.1v5.4h5v-5.4H195.5z M203.3,341.1c-0.1-0.1-0.3-0.2-0.5-0.3c-0.2-0.1-0.4-0.2-0.5-0.2
		c1.1-1.9,2.1-4.2,3-6.9l1.1,0.2c-0.3,0.9-0.7,1.9-1.1,2.9h6.5c0,0.3,0,0.7,0,1.2c-0.1,4.6-0.2,8.2-0.4,10.7c0.1,2-1.1,3.1-3.4,3.1
		c-1,0-2.1,0-3,0c0-0.1,0-0.1-0.1-0.2c-0.1-0.4-0.1-0.7-0.2-0.9c0.7,0.1,1.8,0.1,3.2,0.1c1.7,0.1,2.5-0.7,2.5-2.3
		c0.1-1.3,0.2-4,0.2-8.2c0.1-1.2,0.1-2.1,0.1-2.6H205C204.3,339.3,203.8,340.4,203.3,341.1z M204.2,342l0.8-0.6
		c0.1,0.2,0.3,0.4,0.5,0.6c1.1,1.4,2,2.6,2.7,3.5l-0.9,0.6C206.3,344.7,205.2,343.3,204.2,342z"/>
	<path style="fill:#66361F;" d="M218.1,338.1l1.2,0.4c-1.2,3.4-2.7,6.7-4.3,9.7c-0.4-0.3-0.8-0.5-1.2-0.6
		C215.5,344.9,216.9,341.8,218.1,338.1z M222.8,333.8h1.2v15.9c0.1,1.5-0.8,2.3-2.4,2.3c-0.8,0-1.7,0-2.7,0
		c-0.1-0.4-0.2-0.8-0.3-1.2c0.8,0,1.7,0,2.5,0c1.2,0.1,1.8-0.4,1.7-1.5V333.8z M226.9,338.7l1-0.5c1,1.8,2.6,4.8,4.7,9.1l-1.2,0.5
		C230.1,344.8,228.6,341.7,226.9,338.7z"/>
	<path style="fill:#66361F;" d="M234.1,345.9c-0.2-0.4-0.3-0.7-0.5-0.9c1.5-1.7,2.7-3.8,3.7-6.1l0.9,0.5c-0.4,1-0.9,1.9-1.3,2.7
		v10.3h-0.9v-8.8C235.3,344.4,234.8,345.1,234.1,345.9z M234.4,339.6c-0.1-0.3-0.3-0.6-0.6-0.9c1.4-1.3,2.6-3,3.6-5l0.9,0.5
		C237.3,336.3,236,338.1,234.4,339.6z M243.5,345.8h-3.1v0.9c0.1,2.1-0.6,3.8-2,5c-0.3-0.3-0.5-0.6-0.8-0.8c1.4-0.8,2-2.4,1.8-4.6
		v-1.5h5.1v3.9c0.3-0.3,0.9-0.9,1.9-1.7c0,0.2,0,0.3,0.1,0.5c0,0.2,0,0.4,0.1,0.5c-1.3,1.1-2.2,1.9-2.7,2.3l-0.8-0.8
		c0.4-0.4,0.6-1,0.5-1.6V345.8z M241.8,333.9h0.9v5h2v-3.5h0.9v4.5h-6.8v-4.5h0.9v3.5h2V333.9z M239.1,341.9h6v0.9h-6V341.9z
		 M248.3,333.7l1,0.2c-0.3,1.2-0.7,2.4-1,3.5h4.5v0.9h-1.1c-0.3,4-1,7-2.1,9.1c0.6,1.2,1.7,2.5,3.1,3.9c-0.1,0.1-0.2,0.3-0.3,0.5
		c-0.2,0.2-0.3,0.3-0.4,0.4c-1.3-1.4-2.3-2.6-3-3.8c-0.6,1.1-1.7,2.4-3.3,3.9c-0.1-0.1-0.1-0.1-0.2-0.2c-0.3-0.3-0.5-0.4-0.5-0.5
		c1.6-1.4,2.8-2.8,3.6-4.1c-0.8-1.6-1.3-3.8-1.6-6.6c-0.1,0.2-0.3,0.5-0.5,0.9c-0.2,0.4-0.4,0.7-0.5,0.9c-0.2-0.3-0.4-0.6-0.7-0.9
		C246.7,339.5,247.7,336.9,248.3,333.7z M249.1,346.2c0.9-1.9,1.4-4.6,1.6-7.9H248c-0.2,0.3-0.3,0.6-0.4,0.9
		C248,342.1,248.4,344.5,249.1,346.2z"/>
	<path style="fill:#66361F;" d="M257.6,333.6l1.1,0.2c-0.1,0.2-0.2,0.5-0.4,0.9c-0.2,0.4-0.3,0.7-0.4,0.9h5.7v0.9h-6.2
		c-0.7,1.2-1.6,2.4-2.7,3.6c-0.1-0.2-0.3-0.3-0.6-0.5c-0.1-0.1-0.2-0.2-0.2-0.2C255.5,337.7,256.8,335.8,257.6,333.6z M271.7,352.1
		c-4.6-1-7.5-2.9-8.5-5.6c-0.7,2.6-3.6,4.5-8.7,5.8c-0.2-0.3-0.4-0.7-0.7-1c5.2-1,8-2.8,8.4-5.4h-8.1v-1h8.4
		c0.2-0.8,0.2-1.7,0.2-2.7c-3.2,0.1-5.5,0.2-7,0.2c0-0.1,0-0.2-0.1-0.4c-0.1-0.4-0.1-0.6-0.2-0.6c5.8,0,10.9-0.2,15.1-0.6l0.2,1.1
		c-1.5,0.1-3.8,0.2-7,0.3c0,0.2,0,0.5-0.1,0.9c0,0.9-0.1,1.6-0.2,2h8.8v1H264c1.1,2.8,3.9,4.5,8.4,5.2
		C272.1,351.4,271.9,351.8,271.7,352.1z M260.8,339.3l-0.9,0.6c-0.2-0.3-0.6-0.7-1.2-1.4c-0.3-0.3-0.5-0.5-0.6-0.7l0.8-0.5
		C259.3,337.7,259.9,338.4,260.8,339.3z M266.2,333.6l1.1,0.2c-0.1,0.3-0.3,0.8-0.6,1.3c-0.1,0.2-0.2,0.4-0.2,0.5h6.2v0.9h-6.6
		c-0.7,1.1-1.5,2.3-2.4,3.4c-0.1-0.2-0.4-0.4-0.9-0.7C264.1,337.6,265.3,335.8,266.2,333.6z M269.3,339.2l-0.9,0.6
		c-0.6-0.8-1.2-1.6-1.9-2.2l0.8-0.5C267.8,337.6,268.4,338.3,269.3,339.2z"/>
</g>
<g id="形状_44_2_">
	<g>
		<path style="fill-rule:evenodd;clip-rule:evenodd;fill:#EF8E45;" d="M553.2,720.2c-12.7-28.1-2.6-49-2.6-49s-21.5-62.2-36.1-11.6
			c-14.6,50.6-1.7,104.8-1.7,104.8s17.1,0.7,32.2-0.4C560.1,762.9,565.8,748.3,553.2,720.2z"/>
	</g>
</g>
<g id="形状_42_2_">
	<g>
		
			<radialGradient id="SVGID_1_" cx="552.5881" cy="474.1732" r="93.4838" gradientTransform="matrix(1 0 0 1.8668 -94.7258 -538.6878)" gradientUnits="userSpaceOnUse">
			<stop  offset="0" style="stop-color:#FFC07D"/>
			<stop  offset="0.5713" style="stop-color:#FEB162"/>
			<stop  offset="1" style="stop-color:#FEA852"/>
		</radialGradient>
		<path style="fill-rule:evenodd;clip-rule:evenodd;fill:url(#SVGID_1_);" d="M802.3,748.2c-20.5-5-53.1-20-103.1-66
			c-28.2-25.9-43.8-44.6-90.8-118.8c-81.7-129-76.4-280.7-57.4-299c8.1-7.8,0.2-83.1-49.7-20.4c-49.9,62.7-43.6,74.8-43.6,74.8
			s-18,78.9-65.6,156.9c-60,98.4,13.8,252.9,182.8,192.4c1-0.3,17.1,31.3,83.7,70.7c59,34.9,165.3,30.2,176.8,21.1
			C843.7,753.2,820.1,752.5,802.3,748.2z"/>
	</g>
</g>
<g id="形状_51_2_" style="opacity:0.6;">
	<g>
		<path style="fill-rule:evenodd;clip-rule:evenodd;fill:#DD7528;" d="M460.6,305c-4.6,10.7-3,13.7-3,13.7s-2.2,9.7-7.1,25.6
			c13.7,1,57.8-15.4,71.1-46.8C538.3,258,482.4,291.1,460.6,305z"/>
	</g>
</g>
<g id="形状_49_2_">
	<g>
		
			<linearGradient id="SVGID_2_" gradientUnits="userSpaceOnUse" x1="509.6986" y1="648.2263" x2="574.5583" y2="452.0257" gradientTransform="matrix(1 0 0 1 -94.7258 -127.6867)">
			<stop  offset="0" style="stop-color:#FFC28A"/>
			<stop  offset="0.7938" style="stop-color:#FFCD9F"/>
			<stop  offset="1" style="stop-color:#FFD0A5"/>
		</linearGradient>
		<path style="fill-rule:evenodd;clip-rule:evenodd;fill:url(#SVGID_2_);" d="M444.6,376.2c-1.6,0.2-3.7,1.3-6.1,3.1
			c-10.5,27.8-25.6,62.2-46.5,96.4c-19.8,32.6-29.3,73.5-21.3,108.5c24.9,26.5,73.7-27.9,73.7-27.9s14.6-25.8,19.2-89.6
			C466.7,424.7,464.1,373.4,444.6,376.2z"/>
	</g>
</g>
<g id="形状_47_2_">
	<g>
		<path style="fill-rule:evenodd;clip-rule:evenodd;fill:#FFBF80;" d="M831.4,758.5c-64.5,3.1-105.6-13.1-158-44.1
			c-59.5-35.2-100-99.4-110.6-114.5c-19-27.1-46.6,81.9-46.6,81.9c1.6,0.4-0.7-1.2,0.9-0.8c40.1-1.5,57.7-13,57.7-13
			s38.7,51.6,92.1,76.3c65.4,30.2,142.1,25,163.4,17.7C834.5,760.6,837.1,758.2,831.4,758.5z"/>
	</g>
</g>
<g id="形状_46_拷贝_2_">
	<g>
		<path style="fill-rule:evenodd;clip-rule:evenodd;fill:#FEBF7B;" d="M466.4,517.1c-63,16.9-95.9,18.2-106.5,19.3
			c-4.4,0.5-4.2,4.4-4.3,4.7c7.6,129,120.2,135.7,120.2,135.7C484.1,602,466.8,518.6,466.4,517.1z"/>
	</g>
</g>
<g id="形状_46_2_">
	<g>
		<path style="fill-rule:evenodd;clip-rule:evenodd;fill:#FFBF80;" d="M466.4,520.5c-44.2,48.3-110.7,30.1-110.8,31.9
			c-1.5,109.2,120.2,127.8,120.2,127.8C484.1,605.5,466.8,522,466.4,520.5z"/>
	</g>
</g>
<g id="形状_58_2_">
	<g>
		<path style="fill-rule:evenodd;clip-rule:evenodd;fill:#FFD2A6;" d="M450.7,536.3c-4.3-10.6-12.3-9.9-20.7-15.4
			c-8-5.2-7.9-24-7.9-24l-50.5,45.2l-2.6,15.6c0,0,21.2,0.6,40.4-2.4C428.8,552.3,451.9,539.5,450.7,536.3z"/>
	</g>
</g>
<path style="opacity:0.4;fill-rule:evenodd;clip-rule:evenodd;fill:#DD7528;" d="M439,537.8c0,0-21.8,9.8-41.4,12.7
	c-19.6,2.9-35.6,2.4-35.6,2.4l-1.6-0.5l0.9,4.6c-1.5-0.1-2.9-0.2-4-0.3c0,0,4.1,33.6,8.9,44.7c4.9,11,17.6,13.7,28.8,1.9
	c7.2-7.5,15.4-29.8,18.3-48.5c5.4-1.2,11.2-3.5,21-6.6L439,537.8z"/>
<g id="形状_60_2_">
	<g>
		<path style="fill-rule:evenodd;clip-rule:evenodd;fill:#FCEBCE;" d="M375.9,592.6c-1.3-9.4-10.3-34.6-2.6-61
			c7.7-26.4-18.9,8.6-18.9,8.6s-6.4,46.2,12.9,58.4C367.5,599.3,377.1,602,375.9,592.6z"/>
	</g>
</g>
<g id="形状_59_2_">
	<g>
		<path style="fill-rule:evenodd;clip-rule:evenodd;fill:#FCEBCE;" d="M411.5,518.4c-0.7-13-27.5,16.3-27.5,16.3
			s-7.6,33.7-13.3,45.1c-5.7,11.4-0.8,17,3.9,20.6c4.7,3.6,14.4-2.2,19.3-12.9C398.8,576.8,412.2,531.4,411.5,518.4z"/>
	</g>
</g>
<g id="形状_56_2_">
	<g>
		<path style="fill-rule:evenodd;clip-rule:evenodd;fill:#FFD6BB;" d="M400.2,419.6c-33,6.2-28.2,49-28.2,49l15.7,4
			c0,0,11.6-4.7,17.4-17C414.8,434.9,401,419.4,400.2,419.6z"/>
	</g>
</g>
<g id="形状_57_2_">
	<g>
		<path style="fill-rule:evenodd;clip-rule:evenodd;fill:#DCA27C;" d="M391.1,439.4c-5.5,0-10.7,10.2-12.2,15.5
			c-1.6,5.7-1.2,11.2-1.2,11.2s15.4,5.6,17.4,0C400.8,450.6,395.5,439.4,391.1,439.4z"/>
	</g>
</g>
<g id="形状_52_2_">
	<g>
		<path style="fill-rule:evenodd;clip-rule:evenodd;fill:#FCEBCE;" d="M447.2,434.1c0.1-1.4-39-8.8-56.7,29.6c0,0-41-9.1-48.2,31.5
			c-2.1,11.9-8.4,19.9-14,23.3c-4.8,2.9,5,49.3,65.9,28.6c27.6-9.2,34.2-44.3,21-64.4C415.4,482.9,454,470.4,447.2,434.1z"/>
	</g>
</g>
<g id="形状_55_2_">
	<g>
		<path style="fill-rule:evenodd;clip-rule:evenodd;fill:#FFBD99;" d="M430,448.4c-2-4.2-25.5,0.9-32.9,18.7c0,0,8.3,3,13.9,11.8
			c0.1-0.1,6.1-2.6,10.6-7.5C428.2,464.4,432.4,453.2,430,448.4z"/>
	</g>
</g>
<g id="形状_54_2_">
	<g>
		<path style="fill-rule:evenodd;clip-rule:evenodd;fill:#694531;" d="M335.9,513.7c-1.8-1.4-11.1-0.3-11.1,6.4
			c0,2.6,1,8.5,6.8,11.6C336.5,534.3,342.5,518.8,335.9,513.7z"/>
	</g>
</g>
<g id="形状_97_2_">
	<g>
		<path style="fill-rule:evenodd;clip-rule:evenodd;fill:#694531;" d="M359.6,504.9c-6.7,2.1-9.1,5.5-7.1,6.8
			c0.7,0.5,1.8,0.1,4.5-1.4c2.4-1.3,7.8-3.2,12.9-3.7c8.1-0.9,9.7,1.1,9.7-0.6C379.7,503.8,368.8,502,359.6,504.9z"/>
	</g>
</g>
<g id="形状_43_2_">
	<g>
		
			<radialGradient id="SVGID_3_" cx="616.0546" cy="528.4033" r="147.1055" gradientTransform="matrix(1 0 0 1.3798 -94.7258 -328.374)" gradientUnits="userSpaceOnUse">
			<stop  offset="0" style="stop-color:#FFC07D"/>
			<stop  offset="0.5713" style="stop-color:#FEB162"/>
			<stop  offset="1" style="stop-color:#FEA852"/>
		</radialGradient>
		<path style="fill-rule:evenodd;clip-rule:evenodd;fill:url(#SVGID_3_);" d="M550.7,483.8c-23.1-29.8-86-29.8-113.7,36.8
			c0,0-19.9,39.8-14.4,75.5c8,51.7,22,62.9,49.9,92.9c20.9,22.6,12.5,26.2,7.8,32.7c-3.7,5-17.8,14-78.3,3.7
			c-100-17-121.7,33.8-89.7,39.5c32,5.7,215.5,0,215.5,0s17.2-0.9,6-42.1c-8.9-32.7-1.5-63.2,30.9-97.2
			C593.2,595.6,584.2,526.9,550.7,483.8z"/>
	</g>
</g>
<g id="形状_62_2_">
	<g>
		<path style="fill-rule:evenodd;clip-rule:evenodd;fill:#DD7528;" d="M379,741.7c-41.1-7.6-56.1,13.6-53.3,24.5
			c2.2,0.1,4.6,0.3,7.2,0.4c-5.6-12.6,20.5-24.6,46.8-20.2C383.9,747,386.1,744,379,741.7z"/>
	</g>
</g>
<g id="形状_45_2_">
	<g>
		<path style="fill-rule:evenodd;clip-rule:evenodd;fill:#FF9B48;" d="M502.9,339.3c-27.3,0.9-22.8,35.6-22.8,35.6
			c6.9,61.4,3.9,102-14.2,117.2c-18.1,15.2-10.7,19.9-9.4,20.2c16.9,3.6,20.9-9.8,20.2-5.2c-0.7,4.7-2.6,35.4,7.3,34.8
			c9.9-0.6,12.8-26.2,13.7-19.3c0.9,6.8,2,10.9,2.6,11.6c16.6,11.7,9.4-26.8,9-32.6c-0.4-5.8-4.3-19,6-53.2
			c10.7-35.5,11.8-67.4,12-73C527.7,369.8,530.3,338.4,502.9,339.3z"/>
	</g>
</g>
<g id="形状_14_拷贝_2_2_">
	<g>
		<path style="fill-rule:evenodd;clip-rule:evenodd;fill:#CC7123;" d="M501.5,510.8c-1.6,2.3-3,4.5-4.3,10.8c0.3-0.3,0.4,0,0.6,1.1
			c0.1,0.4,0.1,0.7,0.2,1.1c1.3-3.8,3.3-8.3,6.2-11.3C505.9,511.1,503.2,508.4,501.5,510.8z"/>
	</g>
</g>
<g id="形状_32_2_">
	<g>
		<path style="fill-rule:evenodd;clip-rule:evenodd;fill:#FFA76C;" d="M504.5,6.4c-7.6-7.6-15.2-1.9-15.6,11.9
			c-1.4,57.2-10.5,113.7-10.5,113.7s18.8,8.2,24.6,2.9c5.9-5.3,18.2-6.6,22.6-51.6C530.2,37.2,512.1,14.1,504.5,6.4z"/>
	</g>
</g>
<g id="形状_33_2_">
	<g>
		<path style="fill-rule:evenodd;clip-rule:evenodd;fill:#E08344;" d="M510.3,48.8C506,34.5,498,37.9,497,53.5
			c-1.5,23.2-9.9,81-9.9,81s-1.4,24,9.1,2.3C520.6,86.5,514.4,62.5,510.3,48.8z"/>
	</g>
</g>
<g id="形状_26_2_">
	<g>
		
			<radialGradient id="SVGID_4_" cx="476.9529" cy="398.846" r="179.244" gradientTransform="matrix(1 0 0 1.2728 -94.7258 -236.4795)" gradientUnits="userSpaceOnUse">
			<stop  offset="0" style="stop-color:#FECD97"/>
			<stop  offset="1" style="stop-color:#FEA852"/>
		</radialGradient>
		<path style="fill-rule:evenodd;clip-rule:evenodd;fill:url(#SVGID_4_);" d="M565.2,160.6c-17.8-37-48.4-50.3-77.2-50.3
			c-40.1,0-72.8,10.5-86.8,55.5c-6.1,19.5-2.2,57-9.1,66.1c-10.2,13.3-13.4,16.1-18.4,22.8c-5.9,7.9-6.4,14.9-5.1,23.3
			c3.2,20.4,32.3,56.8,101.6,44.2C556.3,306.6,597.4,227.3,565.2,160.6z"/>
	</g>
</g>
<g id="形状_36_2_">
	<g>
		<path style="fill-rule:evenodd;clip-rule:evenodd;fill:#FFA083;" d="M435.1,305c-15.3,6.8-30.2,9.4-35.8,10.1
			c1.9,1,5.3,2.5,7.4,3.3c16-1.9,28.6-7.5,31.7-9.5C441.3,307,439,302.8,435.1,305z"/>
	</g>
</g>
<g id="形状_35_2_">
	<g>
		<path style="fill-rule:evenodd;clip-rule:evenodd;fill:#FFA083;" d="M435.9,267.1c-17,1.1-17.3,7.2-17.2,9.9s4.2,8.1,19.1,6.9
			c14.9-1.1,17.1-7.3,17.3-9.4C455.4,272.7,453,266.1,435.9,267.1z"/>
	</g>
</g>
<g id="形状_27_2_">
	<g>
		<path style="fill-rule:evenodd;clip-rule:evenodd;fill:#66361F;" d="M566.3,160.6c-9.8-20.3-24.4-33.4-39.5-41.2
			c-13.5-5.2-28.3-9.6-40.4-10.4c-32.6-1.9-71.1,11.7-85.1,56.8c-3,9.7-3.6,21.9-4.2,34.8c4.4,0.1,42.7-0.9,62.4-37.2
			c0.1-0.5,9,34.1,33.5,47.4c5.9,1.2,36.2-8.3,50.5-21c0,15.2,3,38,22,47.2c2.9,1.4,4.5,1.6,5.8,1.3
			C578.2,213.9,578.3,185.5,566.3,160.6z"/>
	</g>
</g>
<g id="形状_28_副本_2_">
	<g>
		<path style="fill-rule:evenodd;clip-rule:evenodd;fill:#E5432E;" d="M508.8,160.4c-7.6-6.5-19.4-16.2-33.2-22.7
			c-16.2-7.7-35.1-11.4-52.9-7.8c-6.1,5.6-11.4,12.6-15.8,21.4c4.3-0.6,7.3-1.2,7.3-1.2s59.4,2,110.4,33.4
			C521.1,173.2,515.3,165.8,508.8,160.4z"/>
	</g>
</g>
<g id="形状_37_2_">
	<g>
		<path style="fill-rule:evenodd;clip-rule:evenodd;fill:#FFFFFF;" d="M460.6,225.4c0,0-7.7-12.9-29.8-6.2s-19,26.2-18.5,27.9
			c0,0,6.5,15.4,31.4,10.3C468.6,252.4,460.6,225.4,460.6,225.4z"/>
	</g>
</g>
<g id="形状_39_2_">
	<g>
		<path style="fill-rule:evenodd;clip-rule:evenodd;fill:#512A15;" d="M459.7,225c-5.5-11.4-30.5-5.3-30.6-5.3
			c-0.2-0.1-2.4,0.2-5.2,2.1c0,0-7.7,21.9,10.3,29.6c16.5,7.1,24.6-3.6,25.8-7C460.5,243.1,464.1,234,459.7,225z"/>
	</g>
</g>
<path style="fill-rule:evenodd;clip-rule:evenodd;fill:#FFCE99;" d="M412.5,242.6c8.1-19.9,20.4-24.2,28.9-22.7
	c15.9,2.8,21.5,10,21.4,9.6c-0.1-0.4-4-14.2-17.5-17.6c-12.3-3-24.4,3.8-29.8,12.2c-4.9,7.7-3.8,18.4-3.8,18.4"/>
<g id="形状_38_2_">
	<g>
		<path style="fill-rule:evenodd;clip-rule:evenodd;fill:#713D1F;" d="M412,247.1c0,0,0,0.1,0,0.1C412,247.4,412,247.2,412,247.1z
			 M411.9,247.4c0-0.1,0-0.1,0-0.2c0,0,0,0,0-0.1C411.9,247.3,411.9,247.3,411.9,247.4z M464.1,228.9c0,0-12.2-20-32.3-12.7
			c-23.5,8.6-20.1,30.3-20.1,30.3c0.1,0.3,0.2,0.5,0.2,0.6c0-0.2,0-0.1,0.1-0.1c1.9-10.5,6.1-19.7,18.7-24.8
			c25.4-5.1,31.2,13.5,31.2,13.5s0.8-1.1,1.8-2.9C464.3,231.5,464.1,228.9,464.1,228.9z"/>
	</g>
</g>
<g id="形状_40_2_">
	<g>
		<path style="fill-rule:evenodd;clip-rule:evenodd;fill:#A85726;" d="M449.8,200.5c-1.6-1.1-7.7-3.8-15.9-1.9
			c-10.3,2.4-14,6.9-16.3,10.1c-2.2,3.2,1.2,4.3,2.2,3.2c2.3-2.7,8.4-5.7,12.5-7.4c6.9-2.8,13.2-1.7,15.8-1
			C451.7,204.6,452.3,202.2,449.8,200.5z"/>
	</g>
</g>
<g id="形状_94_2_">
	<g>
		<path style="fill-rule:evenodd;clip-rule:evenodd;fill:#713D1F;" d="M472.6,223.7c-2.2,1.5-7.5,3-10.8,2.2
			c-4.8-1.2-2.4,6.2,0.6,6.6c6.5,0.7,10.4-4.2,11.9-7.6C476.3,220.5,474.9,222.2,472.6,223.7z"/>
	</g>
</g>
<g id="形状_95_2_">
	<g>
		<path style="fill-rule:evenodd;clip-rule:evenodd;fill:#A85726;" d="M458.8,248.2c1-2.1-2,2.3-4.1,3.9c-3.5,2.6-7.3,4.9-15.2,6
			c-9.4,1.2-18-3-21.3-4.5c-1.1-0.5,2.2,3.1,7.8,5.4c4.4,1.8,9.5,2.1,16.2,1c2.3,0.5,4.9,1.7,6.4,2.7c0.7,0.5,0.9-0.2-0.1-2
			c-0.4-0.7-1.2-1.3-1.9-1.8c0.9-0.3,1.8-0.6,2.6-1c0.8,0.1,2,0.3,3.1,0.6c1.9,0.4,4.1,1.5,4.1,1.5s-0.5-2.1-2.3-3.2
			c-0.7-0.4-1.3-0.6-1.8-0.7C455,254.3,457.1,251.6,458.8,248.2z"/>
	</g>
</g>
<g id="形状_96_2_">
	<g>
		<path style="fill-rule:evenodd;clip-rule:evenodd;fill:#FFFFFF;" d="M426.8,241.7c-4.5,1.8-6.3,6.1-2.1,7.6
			c4.3,1.5,6.6,2.4,8.7-1.4S431.3,240,426.8,241.7z"/>
	</g>
</g>
<g id="形状_31_2_">
	<g>
		<path style="fill-rule:evenodd;clip-rule:evenodd;fill:#FFC07D;" d="M574.2,16.8C567.3-5,558.7,6.4,550,19
			c-8.6,12.6-23.6,34.5-33.9,55c-8.2,16.4-14,35-16.1,49.4c-0.4,2.7-1.1,10.9,0.7,15.7c4.3,11.4,21.2,28.3,31,22.7
			C609.3,117.3,581.3,38.9,574.2,16.8z"/>
	</g>
</g>
<g id="形状_34_2_">
	<g>
		<path style="fill-rule:evenodd;clip-rule:evenodd;fill:#FF9B48;" d="M562.3,55.1c-2.2-27.5-26.2,2.3-42.7,37.2
			c-12.8,27-17,50.6-17,50.6s2.1,7.9,12.1,14.5c2,1.3,6.3-1.6,9.7-4.5C550.8,130.3,565.4,93.1,562.3,55.1z"/>
	</g>
</g>
<g id="形状_29_2_">
	<g>
		<path style="fill-rule:evenodd;clip-rule:evenodd;fill:#E5432E;" d="M426.5,25.8c-0.2-0.1-7.9-4.3-8.2,4.7
			c-0.2,6.6,5,35.3,7.9,49.1c-0.4,0.1-38.7-39.8-62.8-48.6c-0.3,0.3-10.5-6.2-9,2.9c1.5,9.2,7.9,58.8,82,101.2
			c22.8,13,34.1,1.2,34.1,1.2S482.5,70.6,426.5,25.8z"/>
	</g>
</g>
<g id="形状_93_2_">
	<g>
		<path style="fill-rule:evenodd;clip-rule:evenodd;fill:#AA2D24;" d="M438.7,124.2c-2.8-10.5-8.6-25.3-12.5-44.6
			c-0.4-0.2-3.8-3.7-9.1-8.7c-0.7,6-1.9,28,13.2,48.9C437.4,129.5,441.4,134.7,438.7,124.2z"/>
	</g>
</g>
<g id="形状_41_2_">
	<g>
		<path style="fill-rule:evenodd;clip-rule:evenodd;fill:#713D1F;" d="M378.4,261.2c-7.5-2-11.5,2.5-11.9,5.9
			c-2.2,13,3.8,21.2,9,20.2C384.2,285.8,391.1,265,378.4,261.2z"/>
	</g>
</g>
<g id="形状_77_3_">
	<g>
		<path style="fill-rule:evenodd;clip-rule:evenodd;fill:#FFBD99;" d="M369.1,518c-0.2-2-3.6-3.2-7.5-2.7c-3.9,0.5-7,2.5-6.7,4.5
			c0.2,2,3.6,3.2,7.5,2.7C366.3,522,369.3,520,369.1,518z"/>
	</g>
</g>
<path style="fill-rule:evenodd;clip-rule:evenodd;fill:#F6BF96;" d="M382.6,593.5c-1.3,1.8-4.3,5.6-7.1,7.4c0.2,0.2,0.5,0.3,0.9,0.4
	c0.4,0.1,0.8,0.1,1.2,0.1c1.3-1,3.2-3.1,4.3-4.6C384.2,593.8,384.3,591,382.6,593.5z"/>
<path style="fill-rule:evenodd;clip-rule:evenodd;fill:#F6BF96;" d="M377.7,587.8c-1,2-4.2,7-6.7,9.2c0.4,0.5,0.9,1,1.4,1.4
	c1.2-1.1,3.3-4.3,4.2-5.9C378.7,589.3,379.1,585.2,377.7,587.8z"/>
<path style="fill-rule:evenodd;clip-rule:evenodd;fill:#F7CC9D;" d="M367.6,477.1c0,0,1.6,3.6,4.1,5.6c2.5,2,7.2,2.6,10.1,0.4
	c2.3-1.7,3-4.6,2.8-6.7c-0.2-2.1-1.3-3.7-1.3-3.7s0,2.5-1,5.2c-1,2.8-4.9,3.6-8.8,1.8c-3.9-1.7-5.1-7.2-5.1-7.2
	c-1.5,1.9-4.3,6.1-8.6,5c-2.9-0.8-4.1-3-4.2-6.9c-0.5,0.4-1.1,0.9-1.6,1.4c-0.4,1.6-0.6,3.5,0,5.4c1.4,4.4,5.6,4.8,7.9,3.9
	C365.9,479.9,367.6,477.1,367.6,477.1z"/>
<g>
	<path style="fill:#66361F;" d="M7.9,541.4l1.2,0.4c-1.2,3.4-2.7,6.7-4.3,9.7c-0.4-0.3-0.8-0.5-1.2-0.6C5.3,548.2,6.7,545,7.9,541.4
		z M12.6,537.1h1.2V553c0.1,1.5-0.8,2.3-2.4,2.3c-0.8,0-1.7,0-2.7,0c-0.1-0.4-0.2-0.8-0.3-1.2c0.8,0,1.7,0,2.5,0
		c1.2,0.1,1.8-0.4,1.7-1.5V537.1z M16.7,541.9l1-0.5c1,1.8,2.6,4.8,4.7,9.1l-1.2,0.5C19.8,548,18.3,545,16.7,541.9z"/>
	<path style="fill:#66361F;" d="M31.6,545l0.9-0.5c0.3,0.4,0.9,1.1,1.6,2.1l-0.8,0.4h9v1h-9c0.6,1.2,1.4,2.3,2.3,3.1
		c1.8-0.8,3.3-1.5,4.4-2.1l0.6,1c-0.4,0.2-0.9,0.4-1.6,0.7c-1.1,0.5-1.9,0.8-2.5,1.1c1.1,0.8,3.1,1.4,5.8,2
		c-0.3,0.3-0.5,0.7-0.6,1.1c-4.6-0.9-7.6-3-9-6.3c-1,1-2,1.8-2.9,2.3v3.2c1.5-0.5,3-0.9,4.5-1.2c0,0.4,0,0.7,0,1
		c-1.3,0.3-2.7,0.7-4.1,1.2c-0.4,0.2-0.8,0.3-1.2,0.5l-0.6-0.8c0.3-0.4,0.4-0.8,0.4-1.2v-2c-1.4,0.9-2.9,1.6-4.6,2.2
		c-0.1-0.1-0.1-0.3-0.2-0.5c-0.2-0.2-0.3-0.4-0.4-0.5c3.6-1.2,6.4-2.8,8.4-4.8h-8.3v-1h9.5c-0.2-0.3-0.5-0.8-0.9-1.3
		C31.9,545.4,31.8,545.1,31.6,545z M29.5,537.1l0.9,0.5c-0.7,0.9-1.5,1.8-2.3,2.6v5.5h-1v-4.5c-0.9,0.8-1.9,1.5-2.8,2.1
		c-0.1-0.1-0.1-0.2-0.2-0.3c-0.3-0.4-0.4-0.6-0.5-0.6C26.2,540.9,28.1,539.1,29.5,537.1z M33.1,537.3l1-0.2c0.3,1.5,0.7,2.6,1,3.5
		l7-0.5l0.1,0.9l-6.6,0.5c0.4,0.7,1,1.5,1.8,2.3c0.7,0.7,1.5,1,2.3,1c0.6,0,1.1-0.4,1.3-1.1c0.2-0.5,0.3-1,0.5-1.6
		c0.3,0.2,0.6,0.4,0.9,0.5c-0.1,0.4-0.3,1-0.5,1.8c-0.4,0.9-1.1,1.4-2.1,1.5c-1,0-2-0.4-2.9-1.2c-0.9-0.8-1.7-1.8-2.3-3l-4.9,0.3
		l-0.2-0.9l4.7-0.3C33.7,539.8,33.4,538.6,33.1,537.3z M36.4,537.9l0.5-0.8c0.3,0.2,0.7,0.4,1.2,0.7c0.3,0.2,0.9,0.6,1.6,1.1
		l-0.6,0.8c-0.2-0.1-0.5-0.3-1.1-0.7C37.3,538.4,36.7,538,36.4,537.9z"/>
	<path style="fill:#66361F;" d="M50,552.7l0.1,0.9c-1,0.3-2.3,0.8-3.7,1.3c-0.1,0.1-0.2,0.1-0.4,0.2c-0.3,0.1-0.5,0.2-0.6,0.3
		l-0.8-1c0.3-0.3,0.5-0.7,0.5-1.2v-7.4h1v8c0.4-0.1,1-0.3,2-0.6C48.9,553.1,49.5,552.9,50,552.7z M53.4,541h5.3v-2h-5.4v-0.9h6.5
		v6.6H45.1v-6.2c2.4-0.4,4.6-0.8,6.5-1.2l0.4,0.9c-1.2,0.3-3.2,0.6-5.8,0.9v1.8h5.4v0.9h-5.4v1.9h12.6v-1.9h-5.3V541z M47,550.5
		l0.5-0.8c1.1,0.5,2.1,0.9,3,1.4l-0.5,0.9C49.1,551.4,48.1,550.9,47,550.5z M47.2,547.2l0.5-0.8c0.3,0.2,0.7,0.4,1.3,0.6
		c0.8,0.4,1.3,0.6,1.6,0.8l-0.5,0.9C49.3,548.1,48.3,547.6,47.2,547.2z M52.7,554c0.3-0.1,0.7-0.2,1.2-0.4c1.3-0.3,2.2-0.6,2.7-0.8
		l0.1,0.9c-1.1,0.3-2.3,0.8-3.8,1.3c-0.4,0.1-0.7,0.3-1.1,0.5l-0.9-1c0.5-0.3,0.7-0.7,0.6-1.2v-7.4h1V554z M53.6,550.5l0.5-0.9
		c0.3,0.2,0.8,0.4,1.5,0.7c0.7,0.3,1.2,0.5,1.5,0.7l-0.5,0.9c-0.4-0.3-1.1-0.6-2.2-1.1C54,550.6,53.8,550.5,53.6,550.5z M53.8,547.2
		l0.5-0.8c0.6,0.3,1.6,0.7,3,1.4l-0.5,0.9C55.8,548.1,54.8,547.6,53.8,547.2z M58.9,554c-0.6-1.1-0.8-3.8-0.8-8.1h1
		c-0.1,4.1,0.2,6.8,0.9,8c0.2,0.5,0.4,0.7,0.7,0.6c0.3,0,0.5-0.3,0.5-0.9c0.1-0.2,0.2-0.8,0.3-2c0-0.2,0-0.3,0-0.3
		c0.2,0.1,0.4,0.1,0.7,0.2c0.1,0.1,0.2,0.1,0.2,0.1c-0.1,0.9-0.2,1.7-0.3,2.4c-0.2,1-0.7,1.6-1.5,1.6
		C59.9,555.6,59.3,555.1,58.9,554z"/>
	<path style="fill:#66361F;" d="M68.5,547.3l0.7-0.5h-3.1v-3.4h13.7v3.4h-3.1l0.9,0.5c-0.5,0.6-1,1.2-1.6,1.7h6.3v0.9H63.7V549H70
		C69.6,548.5,69.1,547.9,68.5,547.3z M65.4,541.1h7v-1.6h-8.3v-0.9h8.3v-1.7h1v1.7h8.4v0.9h-8.4v1.6h7.1v0.9H65.4V541.1z
		 M65.9,551.4H80v4.1h-1v-0.7H67v0.7h-1V551.4z M67,552.3v1.7h12v-1.7H67z M67.2,544.3v1.7h11.6v-1.7H67.2z M70.9,548.5l-0.8,0.5
		h4.6c0.8-0.9,1.4-1.7,1.8-2.3h-7.2c0.2,0.2,0.4,0.4,0.8,0.9C70.5,548,70.8,548.3,70.9,548.5z"/>
	<path style="fill:#66361F;" d="M90.3,552.4c-0.8-1.2-1.5-2.4-2.2-3.5c-0.9,1.9-2.2,3.8-3.9,5.5c-0.1-0.1-0.1-0.1-0.2-0.2
		c-0.3-0.3-0.5-0.5-0.6-0.6c1.8-1.8,3.2-3.8,4.1-5.8c-1.2-1.8-2.4-3.5-3.4-5.1l0.9-0.5c0.1,0.2,0.3,0.5,0.5,0.9
		c1,1.6,1.8,2.7,2.4,3.5c0.7-1.9,1.2-4,1.4-6.4H84v-1h6.4v1.1c-0.4,3.2-1,5.7-1.8,7.5c0.4,0.5,0.9,1.3,1.5,2.3
		c0.5,0.8,0.9,1.4,1.2,1.7L90.3,552.4z M89.1,554.6c3.7-2.1,5.8-4.9,6.2-8.4c0.2-1.2,0.2-2.6,0.2-4h1.1c0,1.1,0,2-0.1,2.8
		c0.9,4.3,2.9,7.4,5.9,9.2c-0.3,0.3-0.6,0.7-0.9,1c-2.8-2-4.6-4.7-5.5-8c-0.6,3.4-2.7,6.2-6.3,8.4c-0.1-0.1-0.2-0.3-0.4-0.5
		C89.3,554.9,89.2,554.7,89.1,554.6z M91.9,544.8c-0.4-0.3-0.7-0.4-1.1-0.5c1.1-2.1,2-4.6,2.8-7.3l1.1,0.2c-0.1,0.3-0.2,0.6-0.4,1.1
		c-0.2,0.7-0.4,1.2-0.5,1.6h8.2v1.1l-1.8,3.5c-0.1-0.1-0.3-0.1-0.5-0.2c-0.3-0.1-0.4-0.2-0.5-0.2l1.7-3.1h-7.4
		C93,542.2,92.5,543.5,91.9,544.8z"/>
	<path style="fill:#66361F;" d="M111,536.9l1.1,0.2c-0.3,0.9-0.7,1.8-1,2.6h11.2v1h-11.7c-0.7,1.7-1.6,3.2-2.7,4.6v10.2h-1.1v-9
		c-1,1.1-1.8,2-2.6,2.6c-0.2-0.3-0.4-0.5-0.7-0.9c2.8-2.4,4.7-4.9,5.9-7.6h-5.1v-1h5.5C110.3,538.8,110.7,537.9,111,536.9z
		 M115,542.2h1v3.9h5.2v0.9H116v6.1h6.3v0.9h-13.5v-0.9h6.2V547h-5.2v-0.9h5.2V542.2z"/>
	<path style="fill:#66361F;" d="M131.2,553.1l-0.8,0.7c-0.3-0.3-0.7-0.7-1.2-1.2c-0.6-0.5-1-0.9-1.3-1.2c-0.8,1.3-2,2.6-3.6,3.9
		c-0.3-0.3-0.5-0.6-0.8-0.9c1.7-1.3,2.9-2.6,3.6-3.8c-0.8-0.9-1.8-1.7-2.8-2.6c0.5-1.9,0.9-3.9,1.3-6h-1.7v-1h1.9
		c0.2-0.6,0.3-1.5,0.5-2.7c0.1-0.7,0.2-1.2,0.2-1.5l1,0.1c-0.1,0.3-0.1,0.7-0.2,1.2c-0.2,0.6-0.3,1.6-0.5,2.8h3.6v1
		c-0.3,3.5-1,6.4-2,8.4C129.3,551.4,130.2,552.2,131.2,553.1z M129.4,542.1h-2.8c-0.4,2.2-0.8,4.1-1.2,5.7c0.2,0.2,0.5,0.5,1,0.9
		c0.6,0.5,1,0.8,1.2,1.1C128.5,547.9,129.1,545.4,129.4,542.1z M131,549.9h8.2v0.9H131V549.9z M133.9,540.3l-0.5,5.5h5.4l0.6-6.9
		h-7.8V538h9l-0.7,7.8h1.9c-0.1,3.3-0.2,5.5-0.3,6.7c-0.2,1.7-1.2,2.6-3.1,2.7c-0.9,0-1.9,0-3,0c-0.1-0.3-0.1-0.7-0.2-1.1
		c1,0.1,2.1,0.1,3.1,0.1c1.2,0,2-0.6,2.1-1.9c0.2-2.1,0.3-3.9,0.3-5.5h-8.4l0.6-6.5H133.9z"/>
	<path style="fill:#66361F;" d="M151.2,553.1l-0.8,0.7c-0.3-0.3-0.7-0.7-1.2-1.2c-0.6-0.5-1-0.9-1.3-1.2c-0.8,1.3-2,2.6-3.6,3.9
		c-0.3-0.3-0.5-0.6-0.8-0.9c1.7-1.3,2.9-2.6,3.6-3.8c-0.8-0.9-1.8-1.7-2.8-2.6c0.5-1.9,0.9-3.9,1.3-6h-1.7v-1h1.9
		c0.2-0.6,0.3-1.5,0.5-2.7c0.1-0.7,0.2-1.2,0.2-1.5l1,0.1c-0.1,0.3-0.1,0.7-0.2,1.2c-0.2,0.6-0.3,1.6-0.5,2.8h3.6v1
		c-0.3,3.5-1,6.4-2,8.4C149.3,551.4,150.2,552.2,151.2,553.1z M149.4,542.1h-2.8c-0.4,2.2-0.8,4.1-1.2,5.7c0.2,0.2,0.5,0.5,1,0.9
		c0.6,0.5,1,0.8,1.2,1.1C148.5,547.9,149.1,545.4,149.4,542.1z M151,549.9h8.2v0.9H151V549.9z M153.9,540.3l-0.5,5.5h5.4l0.6-6.9
		h-7.8V538h9l-0.7,7.8h1.9c-0.1,3.3-0.2,5.5-0.3,6.7c-0.2,1.7-1.2,2.6-3.1,2.7c-0.9,0-1.9,0-3,0c-0.1-0.3-0.1-0.7-0.2-1.1
		c1,0.1,2.1,0.1,3.1,0.1c1.2,0,2-0.6,2.1-1.9c0.2-2.1,0.3-3.9,0.3-5.5h-8.4l0.6-6.5H153.9z"/>
	<path style="fill:#66361F;" d="M64.9,564h5.6v15.4c0.1,1.4-0.6,2-2,2c-0.6,0-1.1,0-1.5,0c0-0.1,0-0.3-0.1-0.5
		c-0.1-0.3-0.1-0.4-0.2-0.5c0.1,0,0.3,0,0.6,0c0.4,0.1,0.6,0.1,0.8,0.1c0.8,0.1,1.2-0.3,1.2-1.1v-4.5h-3.5c0.1,2.7-0.4,4.9-1.6,6.6
		c-0.2-0.2-0.5-0.3-0.9-0.5c1.1-1.5,1.6-3.8,1.5-7V564z M65.9,564.9v4.1h3.5v-4.1H65.9z M65.9,569.8v4.1h3.5v-4.1H65.9z M71.6,579.5
		h4.9v-9.6h-4.3V569h4.3V563h1v5.9h4.4v0.9h-4.4v9.6h5v1H71.6V579.5z"/>
	<path style="fill:#66361F;" d="M92.7,569.4l6-4.3h-13V564h14.8v1.2l-6.6,4.7v1.8h8.6v1.1h-8.6v6c0.1,1.5-0.8,2.3-2.5,2.3
		c-0.6,0.1-1.6,0.1-2.8,0.1c0-0.5-0.1-0.9-0.2-1.3C89,580,89.9,580,91,580c1.1,0,1.7-0.5,1.6-1.4v-5.8h-9.1v-1.1h9.1V569.4z"/>
	<path style="fill:#66361F;" d="M104.7,575.8h7.7v-2.7h-7V564h15.2v9.2h-7.1v2.7h7.8v1h-7.8v2.7h9v1h-18.9v-1h8.9v-2.7h-7.7V575.8z
		 M106.5,564.9v3.2h5.9v-3.2H106.5z M106.5,569v3.2h5.9V569H106.5z M119.5,564.9h-6v3.2h6V564.9z M113.4,569v3.2h6V569H113.4z"/>
	<path style="fill:#66361F;" d="M124,573.1c-0.1-0.2-0.2-0.4-0.4-0.8c-0.1-0.2-0.1-0.3-0.2-0.4c2.1-2.6,3.6-5.6,4.7-9.1l1.1,0.3
		c-0.6,1.6-1.3,3.2-2,4.7v13.7h-1.1v-11.7C125.6,571,124.8,572.1,124,573.1z M128.9,578.9c-0.1-0.2-0.3-0.4-0.7-0.7
		c-0.1-0.1-0.1-0.1-0.2-0.2c3.2-2.8,5.4-6.1,6.6-9.8h-5.6v-0.9h5.8v-4.3h1v4.3h6v0.9h-5.9c1.2,3.9,3.4,7.1,6.5,9.6
		c-0.1,0.1-0.1,0.1-0.2,0.2c-0.4,0.3-0.6,0.5-0.7,0.7c-2.9-2.8-4.8-5.7-5.7-8.8v11.6h-1V570C133.6,573.3,131.6,576.3,128.9,578.9z"
		/>
	<path style="fill:#66361F;" d="M145.1,576.1l1,0.4c-0.6,1.7-1.2,2.9-1.6,3.8l-1-0.5C143.9,579.1,144.5,577.9,145.1,576.1z
		 M146.1,564.8h4.8c0.2-0.8,0.4-1.5,0.5-2l1.1,0.2c-0.1,0.3-0.2,0.7-0.4,1.2c-0.1,0.3-0.2,0.5-0.2,0.7h7.8v9.6h-13.6V564.8z
		 M147.1,565.7v2h11.5v-2H147.1z M147.1,568.6v2h11.5v-2H147.1z M147.1,571.5v2h11.5v-2H147.1z M148.1,576h1v2.7
		c-0.1,1,0.5,1.5,1.8,1.4h4.1c1.1,0,1.7-0.3,2-1c0.1-0.2,0.2-0.7,0.3-1.3c0-0.3,0-0.5,0.1-0.6c0.1,0.1,0.3,0.1,0.5,0.2
		c0.2,0.1,0.4,0.2,0.5,0.2c0,0.1,0,0.1,0,0.2c-0.2,0.8-0.3,1.3-0.4,1.5c-0.3,1.3-1.3,1.9-2.9,1.9h-4.5c-1.8,0.1-2.7-0.7-2.6-2.4V576
		z M151.6,575.8l0.7-0.6c0.7,0.7,1.5,1.5,2.3,2.3l-0.9,0.7C153.1,577.3,152.3,576.5,151.6,575.8z M159.3,576.5l0.8-0.6
		c0.3,0.4,0.8,0.9,1.3,1.5c0.5,0.6,0.9,1.1,1.2,1.5l-0.9,0.5c-0.1-0.1-0.3-0.3-0.5-0.6C160.4,577.8,159.8,577,159.3,576.5z"/>
</g>
<g>
	<path style="fill:#66361F;" d="M730.6,184.9h15.8v1.1H739v6h8.9v1.1H739v9.1h-1.1v-9.1H729V192h8.9v-6h-7.3V184.9z"/>
	<path style="fill:#66361F;" d="M750.8,195.2c0.1,0,0.1,0,0.2,0c1.1-0.2,2.5-0.4,4.1-0.6c0,0.1,0,0.3-0.1,0.5c0,0.2,0,0.4-0.1,0.5
		c-2.2,0.2-4,0.5-5.4,0.8l-0.5-1c0.4-0.2,0.7-0.5,0.9-0.8c0.5-0.6,1.4-1.8,2.7-3.7c-1.4,0-2.5,0.1-3.4,0.2l-0.3-0.9
		c0.4-0.2,0.6-0.5,0.8-0.8c0.9-1.5,2-3.5,3.2-6.1l1,0.4c-1.4,2.6-2.6,4.7-3.6,6.4c0.4,0,1,0,1.6-0.1c0.6,0,1,0,1.2,0
		c0.6-0.9,1-1.7,1.4-2.3l1,0.5C753.7,191.2,752.1,193.6,750.8,195.2z M749.2,200.3l-0.2-0.9c1.2-0.2,3-0.5,5.4-0.9
		c0.5-0.1,0.8-0.1,1-0.2c0,0.3,0,0.6,0,1.1C753.3,199.7,751.2,200,749.2,200.3z M758.7,196.3l0.9,0.5c-1,1.6-2.1,3-3.2,4.2
		c-0.3-0.3-0.5-0.5-0.9-0.7C756.5,199.3,757.5,198,758.7,196.3z M755.9,185.9h3.5c0.1-0.3,0.3-0.8,0.5-1.3c0.2-0.6,0.3-1,0.4-1.2
		l1,0.2c-0.1,0.2-0.1,0.4-0.2,0.7c-0.1,0.2-0.2,0.8-0.5,1.6h7v0.9h-7.3c-0.1,0.3-0.3,0.8-0.5,1.3c-0.3,0.6-0.4,1.1-0.5,1.4h3.8v4.3
		h4.4v0.9h-4.4v5.1c0.1,1.3-0.6,2-2,2c-0.8,0-1.4,0-2,0c0-0.1-0.1-0.3-0.2-0.7c-0.1-0.2-0.1-0.3-0.1-0.3c0.8,0,1.4,0,1.8,0
		c0.9,0.1,1.4-0.3,1.3-1.2v-4.8h-5.5v-1c0.3-0.5,0.7-1.5,1.2-2.8c0.1-0.2,0.1-0.4,0.2-0.5H756v-0.9h2.1c0.3-0.9,0.6-1.8,0.9-2.7
		h-3.2V185.9z M757.4,193.8h4.5v-3.4h-3C758.4,191.6,757.9,192.7,757.4,193.8z M764.5,196.8l0.9-0.5c0.3,0.5,0.9,1.2,1.6,2.3
		c0.5,0.7,0.9,1.2,1.1,1.5l-0.9,0.6C766.5,199.9,765.7,198.6,764.5,196.8z"/>
	<path style="fill:#66361F;" d="M769.8,186.7h2c0.4-1.2,0.7-2.3,0.9-3.2l1.1,0.2c-0.3,1-0.6,2-0.9,3h4v15h-1.1v-1.6h-5v1.7h-1V186.7
		z M770.8,187.7v5.3h5v-5.3H770.8z M770.8,193.9v5.4h5v-5.4H770.8z M778.6,190.9c-0.1-0.1-0.3-0.2-0.5-0.3c-0.2-0.1-0.4-0.2-0.5-0.2
		c1.1-1.9,2.1-4.2,3-6.9l1.1,0.2c-0.3,0.9-0.7,1.9-1.1,2.9h6.5c0,0.3,0,0.7,0,1.2c-0.1,4.6-0.2,8.2-0.4,10.7c0.1,2-1.1,3.1-3.4,3.1
		c-1,0-2.1,0-3,0c0-0.1,0-0.1-0.1-0.2c-0.1-0.4-0.1-0.7-0.2-0.9c0.7,0.1,1.8,0.1,3.2,0.1c1.7,0.1,2.5-0.7,2.5-2.3
		c0.1-1.3,0.2-4,0.2-8.2c0.1-1.2,0.1-2.1,0.1-2.6h-5.8C779.6,189.2,779,190.3,778.6,190.9z M779.5,191.9l0.8-0.6
		c0.1,0.2,0.3,0.4,0.5,0.6c1.1,1.4,2,2.6,2.7,3.5l-0.9,0.6C781.5,194.6,780.5,193.2,779.5,191.9z"/>
	<path style="fill:#66361F;" d="M789.8,190.3l-0.9-0.5c0.9-1.9,1.6-4,2.2-6.4l1,0.2c-0.3,0.9-0.5,1.9-0.9,2.8h4.4v0.9h-2.2
		c0,1.5-0.1,3.1-0.2,4.7h2.8v0.9h-2.9c0,0.4-0.1,1-0.2,1.7c-0.1,0.3-0.1,0.5-0.1,0.6l0.6-0.5c0.5,0.6,1.2,1.6,2.1,3
		c0.3,0.4,0.5,0.7,0.6,0.9l-0.9,0.6c-0.5-0.9-1.3-2.2-2.4-3.8c-0.4,2.4-1.5,4.6-3.2,6.5c-0.3-0.3-0.5-0.5-0.9-0.8
		c2.1-2,3.2-4.8,3.4-8.3h-3.4V192h3.4c0.1-0.8,0.1-2.4,0.1-4.7H791C790.7,188.4,790.2,189.4,789.8,190.3z M795.6,200.4h6.7
		c0.4-0.6,1.1-1.9,2.1-4c0.2-0.4,0.4-0.7,0.5-0.9l1,0.4c-0.9,1.8-1.7,3.3-2.5,4.5h4.5v1h-12.3V200.4z M796.3,184.5h11.3v0.9h-11.3
		V184.5z M797.2,188.1h9.3v6.4h-9.3V188.1z M797.7,195.9l0.9-0.5c0.4,0.6,0.9,1.6,1.6,2.9c0.2,0.4,0.4,0.7,0.5,0.9l-1,0.5
		C799.2,198.6,798.5,197.4,797.7,195.9z M798.2,189.2v4.5h7.3v-4.5H798.2z"/>
	<path style="fill:#66361F;" d="M811,187.9h4.7c0.4-1.4,0.7-2.9,0.9-4.5l1.2,0.2c-0.1,0.4-0.2,1.1-0.4,2c-0.2,1-0.4,1.8-0.5,2.3
		h10.9v1h-11.2c-0.3,1-0.5,2-0.9,2.9h9.8v0.9c-0.9,2.3-2.3,4.3-4.2,5.8c1.3,0.9,3.4,1.7,6.4,2.3c-0.2,0.2-0.3,0.5-0.5,0.9
		c-0.1,0.1-0.1,0.1-0.1,0.2c-2.8-0.8-5.1-1.7-6.7-2.7c-1.5,0.8-3.9,1.8-7.3,3c-0.1-0.2-0.2-0.5-0.5-0.8c-0.1-0.2-0.1-0.3-0.2-0.3
		c3.3-0.8,5.7-1.7,7-2.6c-1.8-1.5-3.1-3.4-3.9-5.8h-0.2c-1.3,3.2-3.2,6.1-5.6,8.5c-0.1-0.2-0.3-0.3-0.5-0.5
		c-0.2-0.2-0.3-0.3-0.3-0.3c3.3-3.1,5.5-6.9,6.6-11.5h-5.5v-1.2c0.6-1.2,1-2.4,1.4-3.5l1.1,0.3c-0.1,0.2-0.2,0.5-0.3,0.9
		C811.7,186.5,811.3,187.4,811,187.9z M824.4,192.7h-7.8c0.8,2.1,2.1,3.8,3.8,5.2C822.2,196.5,823.6,194.8,824.4,192.7z
		 M821.3,184.5l0.6-0.8c1.1,0.7,2.3,1.5,3.4,2.3l-0.7,0.9C823.1,185.8,822,185,821.3,184.5z"/>
</g>
<g>
	<path style="fill:#66361F;" d="M734.8,282.6h-1.1v-10.3c-0.9,1-2,2.1-3.3,3.2c-0.3-0.4-0.5-0.7-0.7-0.9c2.6-2.1,4.7-4.5,6.3-7.1
		h-5.6v-0.9h6.2c0.5-0.8,0.9-1.7,1.3-2.7l1.1,0.2c-0.4,0.8-0.8,1.6-1.2,2.4h10.6v0.9h-11.2c-0.5,0.9-1.1,1.8-1.8,2.7h10.7v9.9
		c0.1,1.4-0.7,2.1-2.3,2.1c-0.7,0.1-1.6,0.1-2.7,0.1c0-0.4-0.1-0.8-0.3-1.1c0.7,0,1.7,0,2.8,0c1,0.1,1.5-0.4,1.5-1.2v-1.7h-10.2
		V282.6z M734.8,271.1v2.6H745v-2.6H734.8z M734.8,274.6v2.7H745v-2.7H734.8z"/>
	<path style="fill:#66361F;" d="M749.8,281.8c1.2-1.7,2-2.9,2.5-3.8l0.9,0.4c-0.6,1.1-1.4,2.4-2.4,4.1L749.8,281.8z M758.5,263.8h1
		v2.6h8.8v1h-8.8v2.7h7v6.3h-14.2v-6.3h6.2V263.8z M753.3,271.1v4.3h12.1v-4.3H753.3z M756.4,278.1c0.7,1.8,1.2,3,1.4,3.6l-1.1,0.4
		c-0.2-0.9-0.7-2.1-1.3-3.7L756.4,278.1z M761.7,281.9c-0.6-1.5-1.1-2.7-1.6-3.7l0.9-0.3c0.5,1,1.1,2.2,1.7,3.5L761.7,281.9z
		 M767.4,282.1c-0.7-1.2-1.4-2.4-2.2-3.7l0.9-0.5c1,1.7,1.8,2.9,2.2,3.6L767.4,282.1z"/>
	<path style="fill:#66361F;" d="M774.2,268.4l1.2,0.4c-1.2,3.4-2.7,6.7-4.3,9.7c-0.4-0.3-0.8-0.5-1.2-0.6
		C771.5,275.2,773,272.1,774.2,268.4z M778.8,264.1h1.2V280c0.1,1.5-0.8,2.3-2.4,2.3c-0.8,0-1.7,0-2.7,0c-0.1-0.4-0.2-0.8-0.3-1.2
		c0.8,0,1.7,0,2.5,0c1.2,0.1,1.8-0.4,1.7-1.5V264.1z M783,269l1-0.5c1,1.8,2.6,4.8,4.7,9.1l-1.2,0.5C786.1,275.1,784.6,272,783,269z
		"/>
	<path style="fill:#66361F;" d="M798.5,264l1-0.2c0.1,0.2,0.1,0.5,0.2,1c0.1,0.5,0.2,0.8,0.2,1h8v2.6h-1v-1.6h-15.5v1.6h-1.1v-2.6
		h8.5c0-0.2-0.1-0.5-0.2-0.9C798.7,264.4,798.6,264.1,798.5,264z M792.1,269h6.6v-1.3h1v1.3h6.6v0.9h-6.6v1.8h6.2v0.9h-6.2v1.9h8.1
		v0.9h-8.1v1h-1v-1h-8v-0.9h8v-1.9h-6.2v-0.9h6.2v-1.8h-6.6V269z M792.8,277.1h13v5.5h-1.1v-0.9h-10.8v0.9h-1.1V277.1z M793.8,278
		v2.7h10.8V278H793.8z"/>
	<path style="fill:#66361F;" d="M809.9,278.5c2.5-1.8,4.4-3.8,5.7-5.9h-5.5v-0.9h5.9c0.3-0.6,0.6-1.2,0.9-1.9h-5.5V269h5.8
		c0.1-0.2,0.1-0.4,0.2-0.7c0.2-0.5,0.3-0.8,0.3-1.1H811v-0.9h5.2c-0.2-0.3-0.6-0.7-1.2-1.3c-0.3-0.3-0.5-0.5-0.7-0.6l0.9-0.5
		c0.2,0.2,0.4,0.4,0.9,0.8c0.7,0.6,1.1,1,1.3,1.2l-0.8,0.5h5c0.9-0.9,1.7-1.7,2.3-2.4l0.9,0.5c-0.4,0.4-1,1-1.8,1.9h5v0.9h-9
		c-0.1,0.2-0.1,0.4-0.2,0.8c-0.2,0.5-0.3,0.8-0.4,1h8.9v0.9H818c-0.1,0.4-0.3,0.8-0.5,1.4c-0.1,0.2-0.2,0.4-0.2,0.5h11.5v0.9h-12
		c-0.4,0.6-0.8,1.2-1.2,1.8h10.8l-0.5,6.6h2.7v0.9h-17V281h5.9l0.5-2.4h-3.6v-0.9h3.8l0.4-2.3h-3v-0.6c-1.2,1.6-2.8,3.2-4.7,4.6
		C810.5,279.1,810.2,278.8,809.9,278.5z M818.8,278.6l-0.5,2.4h6.2l0.2-2.4H818.8z M825.2,275.4h-5.7l-0.5,2.3h5.9L825.2,275.4z"/>
	<path style="fill:#66361F;" d="M830.6,267.2h2c0.4-1.2,0.7-2.3,0.9-3.2l1.1,0.2c-0.3,1-0.6,2-0.9,3h4v15h-1.1v-1.6h-5v1.7h-1V267.2
		z M831.6,268.1v5.3h5v-5.3H831.6z M831.6,274.4v5.4h5v-5.4H831.6z M839.4,271.4c-0.1-0.1-0.3-0.2-0.5-0.3c-0.2-0.1-0.4-0.2-0.5-0.2
		c1.1-1.9,2.1-4.2,3-6.9l1.1,0.2c-0.3,0.9-0.7,1.9-1.1,2.9h6.5c0,0.3,0,0.7,0,1.2c-0.1,4.6-0.2,8.2-0.4,10.7c0.1,2-1.1,3.1-3.4,3.1
		c-1,0-2.1,0-3,0c0-0.1,0-0.1-0.1-0.2c-0.1-0.4-0.1-0.7-0.2-0.9c0.7,0.1,1.8,0.1,3.2,0.1c1.7,0.1,2.5-0.7,2.5-2.3
		c0.1-1.3,0.2-4,0.2-8.2c0.1-1.2,0.1-2.1,0.1-2.6H841C840.4,269.6,839.8,270.7,839.4,271.4z M840.3,272.3l0.8-0.6
		c0.1,0.2,0.3,0.4,0.5,0.6c1.1,1.4,2,2.6,2.7,3.5l-0.9,0.6C842.3,275,841.3,273.6,840.3,272.3z"/>
	<path style="fill:#66361F;" d="M851,264.9h4.8v15.4c0.1,1.2-0.5,1.8-1.7,1.8c-0.5,0-1,0-1.5,0c-0.1-0.1-0.1-0.3-0.1-0.5
		c-0.1-0.3-0.1-0.4-0.1-0.5c0.4,0.1,0.9,0.1,1.5,0.1c0.7,0.1,1-0.2,0.9-0.9v-4.7H852c0.1,3-0.4,5.2-1.4,6.7
		c-0.3-0.2-0.5-0.4-0.9-0.7c1-1.2,1.4-3.3,1.3-6.1V264.9z M852,265.8v4h2.9v-4H852z M852,270.7v4h2.9v-4H852z M857.8,276.5l0.9,0.2
		c-0.5,1.8-1,3.2-1.4,4.1c-0.1-0.1-0.3-0.2-0.6-0.3c-0.2-0.1-0.3-0.1-0.3-0.1C857.1,278.9,857.5,277.6,857.8,276.5z M857.8,265h9.9
		v9.4h-9.9V265z M858.8,265.8v3.4h3.5v-3.4H858.8z M858.8,270.1v3.4h3.5v-3.4H858.8z M859.7,276.5h1v3.1c-0.1,1.1,0.4,1.7,1.6,1.6
		h0.8c1.1,0.1,1.7-0.3,1.9-1c0-0.1,0.1-0.3,0.2-0.7c0.1-0.6,0.2-1,0.2-1.2c0.1,0.1,0.3,0.1,0.5,0.2c0.2,0.1,0.3,0.1,0.4,0.2
		c-0.1,0.7-0.2,1.3-0.4,1.9c-0.3,1.1-1.1,1.6-2.7,1.6h-1.1c-1.6,0.1-2.4-0.7-2.3-2.3V276.5z M861.4,275.3l0.8-0.5c0.7,1,1.4,2,2,3
		l-0.9,0.5C863,277.7,862.4,276.7,861.4,275.3z M866.7,265.8h-3.4v3.4h3.4V265.8z M863.3,270.1v3.4h3.4v-3.4H863.3z M866.1,276.7
		l0.9-0.5c0.2,0.5,0.6,1.2,1.1,2.1c0.4,0.7,0.6,1.2,0.8,1.6l-0.9,0.4C867.6,279.5,866.9,278.3,866.1,276.7z"/>
	<path style="fill:#66361F;" d="M872.1,275.6c2-0.2,3.6-0.4,4.6-0.5c-0.1,0.1-0.1,0.2-0.1,0.5c-0.1,0.2-0.1,0.4-0.1,0.5
		c-0.3,0.1-0.7,0.1-1.2,0.2c-2.3,0.2-3.9,0.4-4.5,0.5l-0.4-1c0.2-0.2,0.7-0.7,1.4-1.5c0.2-0.2,0.4-0.6,0.8-1.1
		c0.5-0.7,0.9-1.3,1.2-1.6c-1.6,0-2.8,0.1-3.6,0.2l-0.4-1c0.4-0.3,0.8-0.8,1.2-1.4c1.1-1.7,2.1-3.4,3-5.3l1.1,0.3
		c-1.4,2.4-2.7,4.6-4,6.4c0.2,0,0.7,0,1.3,0c0.9-0.1,1.6-0.1,2-0.1c0.6-0.9,1.1-1.8,1.6-2.7l1.1,0.4
		C875.3,271.1,873.6,273.6,872.1,275.6z M870.1,280.8l-0.3-0.9c2.4-0.4,4.7-0.8,7-1.2c-0.1,0.4-0.1,0.7,0,1.1
		C874.6,280.1,872.3,280.4,870.1,280.8z M877.4,265.8H888v0.9h-4.8v13.6h5.5v0.9h-12.4v-0.9h5.8v-13.6h-4.8V265.8z"/>
</g>
<g>
	<path style="fill:#66361F;" d="M755.3,563h1.1v2.8h8.5v1h-8.5v3.3h5.5v1c-1.1,2.8-2.8,5-5.2,6.7c1.6,1.1,4.4,2,8.3,2.6
		c-0.3,0.4-0.5,0.7-0.7,1.1c-4.1-0.9-7-1.8-8.6-2.9c-2,1.1-4.8,2.2-8.6,3.2c-0.1-0.2-0.2-0.5-0.5-0.8c-0.1-0.2-0.1-0.3-0.2-0.3
		c3.8-0.8,6.5-1.8,8.3-2.9c-1.9-1.6-3.5-3.8-4.6-6.7h-1.8v-1h7v-3.3h-8.9v-1h8.9V563z M760.7,571.1h-9.4c1.1,2.8,2.6,4.8,4.5,6.1
		C757.9,575.8,759.5,573.8,760.7,571.1z"/>
	<path style="fill:#66361F;" d="M766.3,574.3l-0.2-1.2c0.9-0.2,1.8-0.4,2.6-0.7v-4.6h-2.3v-0.9h2.3v-3.8h1v3.8h2v0.9h-2v4.3
		c0.3-0.1,0.8-0.3,1.4-0.5c0.4-0.2,0.7-0.3,0.9-0.3c0,0.6,0,0.9,0.1,1.1c-0.3,0.1-0.7,0.2-1.2,0.4c-0.5,0.2-0.8,0.3-1.1,0.3v6.4
		c0.1,1.3-0.5,2-1.8,2c-0.4,0-0.9,0-1.4,0c0-0.3-0.1-0.7-0.2-1c0.2,0,0.4,0,0.6,0c0.3,0.1,0.6,0.1,0.8,0.1c0.7,0.1,1-0.3,0.9-1v-6.1
		C767.9,573.8,767,574,766.3,574.3z M771.3,577.7h6.7v-1.6h-5.4v-0.9h5.4v-1.6c-1.6,0.1-3.4,0.1-5.4,0.1c0-0.3-0.1-0.6-0.2-0.9
		c3.5,0,7.3-0.1,11.6-0.3l0.2,0.9c-1.6,0.1-3.3,0.1-5.2,0.2v1.6h4.9v0.9h-4.9v1.6h5.9v0.9h-5.9v0.8c0.1,1.4-0.7,2.1-2.2,2
		c-0.5,0.1-1.1,0.1-1.9,0.1c-0.1-0.4-0.1-0.8-0.2-1c0.7,0,1.3,0,2,0c0.9,0.1,1.4-0.3,1.3-1.2v-0.7h-6.7V577.7z M778.1,563.1h0.9v2.9
		h5.6v2.8h-0.9v-2h-10.3v2h-1v-2.9h5.7V563.1z M773.4,563.9l0.7-0.7c0.2,0.1,0.3,0.3,0.5,0.5c0.5,0.4,1.1,0.8,1.7,1.4l-0.7,0.7
		c-0.4-0.4-1-0.9-1.9-1.6C773.7,564.1,773.5,564,773.4,563.9z M774.6,568.1h8v3.4h-8V568.1z M775.5,568.9v1.7h6v-1.7H775.5z
		 M783.8,563.9c-0.7,0.5-1.5,1.1-2.5,1.9l-0.6-0.7c0.7-0.5,1.5-1.1,2.4-1.9L783.8,563.9z"/>
	<path style="fill:#66361F;" d="M786.3,574.4h2.7v-9.3h4.6c0.2-0.6,0.4-1.3,0.7-2.2l1,0.2c0,0.1,0,0.2-0.1,0.4
		c-0.1,0.3-0.2,0.8-0.5,1.6h7v8c0.9-0.6,1.7-1.3,2.6-2l0.8,0.7c-1.1,0.9-2.3,1.8-3.4,2.6v4.4c0.1,1.7-0.8,2.6-2.6,2.5
		c-0.7,0.1-1.9,0.1-3.4,0.1c0-0.4-0.1-0.7-0.2-1.1c0.9,0,2,0,3.2,0c1.5,0.1,2.1-0.5,2-1.6v-3.3h-0.3c-3.8,2.6-8.3,4.7-13.4,6.2
		c-0.2-0.3-0.4-0.7-0.6-1c4.9-1.4,9-3.1,12.2-5.2h-12.3V574.4z M790.1,566v2.1h10.6V566H790.1z M790.1,569.1v2.2h10.6v-2.2H790.1z
		 M800.1,574.4c0.2-0.2,0.4-0.3,0.6-0.5v-1.7h-10.6v2.2H800.1z"/>
	<path style="fill:#66361F;" d="M806.6,573.4c-0.1-0.2-0.3-0.5-0.5-0.9l-0.1-0.2c1.9-2.6,3.4-5.7,4.5-9.2l1,0.2
		c-0.5,1.7-1.1,3.3-1.9,4.8v13.6h-1v-11.6C808.1,571.3,807.4,572.4,806.6,573.4z M811.2,578.4c-0.1-0.1-0.2-0.3-0.5-0.5
		c-0.2-0.2-0.3-0.3-0.3-0.3c3-2.7,5-5.8,6.1-9.5h-4.8v-0.9h5.6v-4.1h1.1v4.1h6v0.9h-5.1c1.2,3.8,3.2,6.8,5.9,9.1
		c-0.2,0.2-0.5,0.4-0.8,0.9c-2.9-2.6-4.9-5.9-6-10h-0.1v8.6h3.3v1h-3.3v4h-1.1v-4h-3.2v-1h3.2v-8.6
		C816.2,572.2,814.1,575.7,811.2,578.4z"/>
	<path style="fill:#66361F;" d="M826.7,573.4c0-0.1-0.1-0.3-0.2-0.5c-0.2-0.3-0.3-0.4-0.3-0.5c1.8-2.6,3.2-5.6,4.2-9.2l1,0.2
		c-0.7,2.1-1.2,3.7-1.6,4.6v13.7h-1v-11.6C828.2,571.2,827.5,572.3,826.7,573.4z M831.6,580.4c-0.1-0.1-0.1-0.1-0.2-0.2
		c-0.2-0.3-0.4-0.5-0.5-0.6c2.7-1.2,4.7-3,6.1-5.4h-5.7v-1h6.5v-2.2h1v2.2h6.5v1h-5.6c1.2,2.3,3.1,4,5.6,5.2
		c-0.3,0.2-0.5,0.5-0.7,0.9c-2.8-1.4-4.7-3.3-5.8-5.8v7.3h-1v-7.2C836.3,577.2,834.3,579.2,831.6,580.4z M833,564.1h10.5v6.2H833
		V564.1z M834.1,565v4.2h8.3V565H834.1z"/>
	<path style="fill:#66361F;" d="M846.2,573.4c0.4-0.1,0.9-0.2,1.6-0.3c0.6-0.2,1-0.3,1.3-0.3v-4.7h-2.7v-1h2.7V563h1v4.1h2.3v1h-2.3
		v4.4c0.8-0.2,1.6-0.3,2.3-0.5c0,0.4,0,0.8,0,1c-0.3,0.1-0.7,0.2-1.2,0.3c-0.5,0.1-0.9,0.2-1.2,0.3v5.9c0,1.2-0.6,1.9-1.9,2
		c-0.7,0-1.2,0-1.6,0c0-0.1,0-0.2-0.1-0.4c-0.1-0.4-0.1-0.6-0.2-0.8c0.6,0,1.1,0,1.6,0c0.7,0,1.1-0.3,1.1-0.9v-5.5
		c-0.8,0.2-1.7,0.4-2.7,0.7L846.2,573.4z M853.7,565.7h4.8V563h1.1v2.7h4.8v0.9h-4.8v3.2h5.6v0.9h-12.3v-0.9h5.6v-3.2h-4.8V565.7z
		 M861,571.8h1v1.9h3.1v0.9H862v4.7c0.1,1.4-0.8,2.1-2.5,2c-0.7,0.1-1.5,0.1-2.5,0.1c0-0.4-0.1-0.8-0.2-1.2c0.7,0.1,1.5,0.1,2.5,0.1
		c1.1,0.1,1.7-0.4,1.6-1.4v-4.3h-8.2v-0.9h8.2V571.8z M853.8,576.3l0.8-0.7c0.7,0.6,1.6,1.5,2.7,2.7l-0.9,0.7
		c-0.3-0.3-0.9-0.9-1.9-1.9C854.2,576.7,854,576.4,853.8,576.3z"/>
	<path style="fill:#66361F;" d="M867.3,563.9h16.8v1.1h-7.9v8.6h8.8v1.1h-8.8v7h-1.1v-7h-8.8v-1.1h8.8V565h-7.8V563.9z M868.4,567.3
		l0.9-0.6c1.2,1.5,2.4,3,3.5,4.6l-1,0.7C870.7,570.4,869.6,568.8,868.4,567.3z M879.2,572.1l-0.9-0.7c1.6-1.8,2.9-3.4,3.8-4.7
		l0.9,0.6c-0.5,0.7-1.4,1.8-2.6,3.4C879.9,571.3,879.5,571.8,879.2,572.1z"/>
	<path style="fill:#66361F;" d="M886.6,575.2c-0.2-0.4-0.3-0.7-0.5-0.9c1.6-1.7,2.8-3.7,3.7-5.9l0.9,0.4c-0.4,1-0.9,1.9-1.3,2.8
		v10.2h-1v-8.6C887.8,573.9,887.2,574.6,886.6,575.2z M886.9,569c-0.1-0.1-0.2-0.3-0.4-0.6c-0.1-0.2-0.2-0.3-0.2-0.3
		c1.6-1.6,2.8-3.2,3.4-4.9l0.9,0.5C889.8,565.6,888.5,567.4,886.9,569z M898.7,580.6c-0.5-0.4-1.2-0.8-2.2-1.4
		c-0.6-0.4-1.1-0.7-1.3-0.9c-0.5,1-2,2-4.3,2.9c-0.1-0.2-0.2-0.3-0.4-0.5c-0.1-0.2-0.2-0.3-0.2-0.3c2.8-0.8,4.2-2,4.4-3.4h-3.8v-0.9
		h4c0.1-0.4,0.1-0.7,0.1-1.1h1c-0.1,0.4-0.1,0.7-0.1,1.1h4.2v0.9h-4.4c0,0.1,0,0.3-0.1,0.5c0.1-0.1,0-0.1-0.1,0.2
		c0.8,0.4,1.9,1.1,3.4,2c0.2,0.1,0.4,0.2,0.5,0.2L898.7,580.6z M891.2,568.4c-0.1-0.1-0.2-0.2-0.4-0.3c-0.2-0.2-0.3-0.3-0.4-0.3
		c1.6-1.4,2.9-2.9,3.8-4.8l0.9,0.3c-0.1,0.1-0.1,0.3-0.2,0.5c-0.1,0.2-0.3,0.5-0.6,1h4v0.9l-1.4,1.8h2.3v6.8h-7.4V568
		C891.6,568.1,891.4,568.2,891.2,568.4z M897.2,565.6h-3.5c-0.4,0.6-0.9,1.2-1.6,1.9h3.7L897.2,565.6z M892.6,568.3v2.2h2.3v-2.2
		H892.6z M892.6,571.3v2.1h2.3v-2.1H892.6z M898.2,568.3h-2.3v2.2h2.3V568.3z M895.9,571.3v2.1h2.3v-2.1H895.9z M900.1,570.1h5.1v1
		h-1.8v8.3c0.1,1.3-0.6,2-2,2c-0.6,0-1,0-1.3,0c0-0.1,0-0.3-0.1-0.5c-0.1-0.3-0.1-0.4-0.2-0.5c0.6,0,1,0,1.3,0
		c0.9,0.1,1.3-0.3,1.2-1.1v-8.2h-2.3V570.1z M900.5,564.4h4.1v0.9h-4.1V564.4z"/>
	<path style="fill:#66361F;" d="M747.4,593.7h3.7c0-0.1,0-0.3,0-0.5c0.1-0.3,0.1-0.5,0.1-0.7v-0.6h-4.3V591h4.3v-2h1v2h4v0.9h-4v0.6
		c0,0.5,0,0.9,0,1.2h3.4v0.9h-3.5c-0.1,0.6-0.2,1.2-0.4,1.9h4.6v0.9h-4.9c-0.5,1.5-2,2.9-4.4,4.3c-0.1-0.1-0.2-0.2-0.3-0.4
		c-0.2-0.2-0.3-0.4-0.4-0.5c2-1.1,3.3-2.2,3.9-3.4h-3.6v-0.9h4c0.2-0.5,0.3-1.1,0.4-1.9h-3.6V593.7z M755.3,599.1h1v1.7h6.2v3.7
		c0.1,1.3-0.6,2-2,2c-0.8,0-1.5,0-2.2,0c0-0.3-0.1-0.7-0.2-1c0.3,0,0.6,0,1.1,0.1c0.4,0,0.7,0,0.9,0c0.9,0.1,1.4-0.3,1.3-1.1v-2.7
		h-5.2v5.9h-1v-5.9h-4.9v4.8h-1.1v-5.7h6V599.1z M763.9,590.1v1l-1.6,2.7c1.5,0.8,2.2,1.7,2.2,2.8c0,1.3-0.8,2-2.3,2
		c-0.6,0-1.3,0-2,0c-0.1-0.3-0.2-0.6-0.3-0.9c0.7,0,1.4,0,2.1,0c1,0,1.5-0.4,1.5-1.1c0-0.8-0.8-1.7-2.5-2.6l1.9-3h-4.2v8.4h-1v-9.4
		H763.9z"/>
	<path style="fill:#66361F;" d="M766.4,605.6l-0.2-0.9c0.3,0,0.7-0.1,1.4-0.2c-0.5,0.1-0.4,0.1,0.2,0v-14.2h6.4v13.4
		c0.1,0,0.1,0,0.2,0c0.3-0.1,0.7-0.2,1-0.2c0,0.4,0,0.7,0,1c-1.8,0.2-4.6,0.5-8.4,1C766.8,605.6,766.6,605.6,766.4,605.6z
		 M768.9,591.2v3.7h4.4v-3.7H768.9z M768.9,595.8v3.7h4.4v-3.7H768.9z M768.9,604.4c0.5-0.1,1.2-0.2,2.2-0.3c1-0.1,1.7-0.2,2.2-0.2
		v-3.5h-4.4V604.4z M778.3,589.1h1.1c-0.1,0.4-0.1,1.1-0.1,2c-0.1,0.9-0.1,1.6-0.1,2h4.9c-0.1,1.1-0.1,2.8-0.2,5.1
		c-0.1,3.2-0.2,5.3-0.2,6.5c0,1.7-0.8,2.5-2.5,2.5c-0.2,0-0.5,0-1,0c-0.6,0.1-1.1,0.1-1.5,0.1c-0.1-0.4-0.1-0.8-0.2-1.1
		c0.3,0,0.8,0,1.3,0.1c0.5,0,0.9,0,1.1,0c1.1,0,1.7-0.5,1.8-1.6c0.2-3.7,0.3-7.2,0.3-10.5h-3.8c0,0.2,0,0.5,0,1
		c-0.1,0.5-0.1,0.8-0.1,1.1c-0.1,5.2-1.5,9-4.2,11.3c-0.3-0.3-0.5-0.5-0.9-0.8c2.7-2,4-5.5,4.1-10.5c0-0.2,0-0.5,0-0.9
		c0.1-0.5,0.1-0.9,0.1-1.2h-2.4v-1h2.4C778.2,591.8,778.3,590.5,778.3,589.1z"/>
	<path style="fill:#66361F;" d="M786.7,590.1h5.2v5.7h-3.8l-0.4,3.6h4.1c-0.1,2.2-0.2,4-0.3,5.4c-0.1,1.8-1.1,2.7-2.9,2.5
		c-0.4,0.1-0.9,0.1-1.6,0.1c0-0.4-0.1-0.8-0.2-1.2c0.4,0.1,1,0.1,1.7,0.1c1.2,0.1,1.9-0.5,2-1.6c0.1-1.2,0.2-2.7,0.2-4.4h-4.1
		l0.5-5.5h3.8V591h-4.2V590.1z M792.7,602.9h5.6v-2.6h-4.6v-8.2h6.1c0.2-0.3,0.5-0.7,1-1.4c0.6-0.8,1-1.4,1.2-1.7l0.9,0.5
		c-0.6,0.9-1.3,1.7-2,2.6h3v8.2h-4.6v2.6h5.6v0.9h-5.6v3.8h-1v-3.8h-5.6V602.9z M794.8,593v2.7h3.6V593H794.8z M794.8,596.6v2.8h3.6
		v-2.8H794.8z M794.9,589.6l0.8-0.5c0.1,0.1,0.2,0.3,0.4,0.5c0.8,0.9,1.4,1.5,1.6,1.8l-0.9,0.6c-0.2-0.2-0.5-0.6-1-1.2
		C795.4,590.2,795.1,589.8,794.9,589.6z M803,593h-3.6v2.7h3.6V593z M799.4,596.6v2.8h3.6v-2.8H799.4z"/>
	<path style="fill:#66361F;" d="M807.2,597.6h0.9v7.3c0.2-0.1,0.5-0.1,0.9-0.2c0.4-0.1,0.7-0.2,0.9-0.2v-8.9h-2.4V590h5v5.8h-1.6v3
		h2v0.9h-2v4.8c0.7-0.1,1.4-0.2,2.1-0.4c0,0.4,0,0.8,0,1c-2.1,0.3-4.3,0.7-6.6,1.2l-0.2-0.9c0.1-0.1,0.3-0.1,0.5-0.1
		c0.2-0.1,0.4-0.1,0.5-0.1V597.6z M808.4,590.8v4.1h3.1v-4.1H808.4z M816.6,589.1h1v8.2c0.2,4.8-1.3,8.3-4.5,10.3
		c-0.1-0.1-0.2-0.2-0.3-0.4c-0.2-0.2-0.4-0.4-0.5-0.5c2.6-1.6,4-4.1,4.1-7.3c-0.9,0.7-2,1.6-3.2,2.5l-0.5-1c0.6-0.4,1.3-0.9,2.2-1.6
		c0.7-0.5,1.3-0.8,1.6-1.1c0-0.1,0-0.3,0-0.5c0.1-0.2,0.1-0.4,0.1-0.5V589.1z M813.1,592.5l0.9-0.5c0.5,0.8,1.1,2.1,2,3.9
		c-0.6-1.3-0.6-1.2,0.1,0.2l-0.9,0.5c0-0.1,0-0.1-0.1-0.2C814.4,595.1,813.8,593.7,813.1,592.5z M824.2,601.6
		c-0.4-0.3-0.9-0.6-1.6-1.1c-0.7-0.5-1.3-0.8-1.6-1.1v5.8c0,0.6,0.4,0.9,1.1,0.9h0.6c0.8,0,1.2-0.3,1.3-1c0.2-0.7,0.2-1.4,0.2-2.1
		c0.2,0.1,0.4,0.2,0.9,0.3c0.1,0,0.1,0,0.2,0c-0.1,0.4-0.1,0.9-0.2,1.5c-0.1,0.3-0.1,0.5-0.1,0.6c-0.2,1.2-0.9,1.8-2.1,1.7h-0.9
		c-1.4,0-2-0.6-2-1.8v-16.2h1.1v9.2c0.1,0.1,0.2,0.1,0.4,0.2c1.4,0.8,2.5,1.5,3.4,2.1L824.2,601.6z M821.4,596.2
		c0.8-1.2,1.6-2.7,2.3-4.2l0.9,0.5c-0.5,1-1.3,2.4-2.3,4.2L821.4,596.2z"/>
	<path style="fill:#66361F;" d="M827,592.3h2c0.4-1.2,0.7-2.3,0.9-3.2l1.1,0.2c-0.3,1-0.6,2-0.9,3h4v15H833v-1.6h-5v1.7h-1V592.3z
		 M828,593.2v5.3h5v-5.3H828z M828,599.4v5.4h5v-5.4H828z M835.9,596.5c-0.1-0.1-0.3-0.2-0.5-0.3c-0.2-0.1-0.4-0.2-0.5-0.2
		c1.1-1.9,2.1-4.2,3-6.9l1.1,0.2c-0.3,0.9-0.7,1.9-1.1,2.9h6.5c0,0.3,0,0.7,0,1.2c-0.1,4.6-0.2,8.2-0.4,10.7c0.1,2-1.1,3.1-3.4,3.1
		c-1,0-2.1,0-3,0c0-0.1,0-0.1-0.1-0.2c-0.1-0.4-0.1-0.7-0.2-0.9c0.7,0.1,1.8,0.1,3.2,0.1c1.7,0.1,2.5-0.7,2.5-2.3
		c0.1-1.3,0.2-4,0.2-8.2c0.1-1.2,0.1-2.1,0.1-2.6h-5.8C836.8,594.7,836.3,595.8,835.9,596.5z M836.7,597.4l0.8-0.6
		c0.1,0.2,0.3,0.4,0.5,0.6c1.1,1.4,2,2.6,2.7,3.5l-0.9,0.6C838.8,600.1,837.8,598.7,836.7,597.4z"/>
	<path style="fill:#66361F;" d="M847.3,607.6c-0.1-0.1-0.2-0.2-0.4-0.4c-0.2-0.3-0.4-0.4-0.5-0.5c5.5-2.6,8.3-6.3,8.6-11.2h-8.5
		v-1.1h8.6c0.2-1.7,0.2-3.5,0.2-5.3h1.1c0,2.3,0,4.1-0.1,5.3h8.7v1.1h-8.7c0.8,5.1,3.7,8.6,8.8,10.8c-0.5,0.5-0.7,0.9-0.8,1
		c-4.9-2.2-7.8-5.6-8.6-10C855.1,601.7,852.3,605.1,847.3,607.6z"/>
	<path style="fill:#66361F;" d="M869.2,597.2c0,2.8-0.2,4.8-0.5,6.2c-0.3,1.4-0.8,2.8-1.7,4.3c-0.1-0.1-0.3-0.3-0.7-0.5
		c-0.1-0.1-0.1-0.1-0.2-0.1c0.8-1.3,1.4-2.6,1.6-3.8c0.3-1.2,0.4-3.2,0.4-6.1V590h15.4v4.5h-14.3V597.2z M869.2,590.9v2.6h13.2v-2.6
		H869.2z M869.3,603.2l6.2-0.5v-2.2l-4.9,0.3l-0.2-0.9l5.1-0.4v-2.2c-0.5,0-1.3,0.1-2.3,0.2c-1.1,0.1-2,0.1-2.6,0.2
		c0-0.3-0.1-0.5-0.2-0.9c4.5-0.3,8.6-0.7,12.1-1.1l0.3,0.9c-0.7,0.1-1.8,0.2-3.3,0.3c-1.4,0.2-2.4,0.3-3,0.3v2.2l7-0.5l0.2,0.9
		l-7.1,0.5v2.3l8.3-0.6l0.2,0.9l-8.4,0.6v0.9c-0.1,1.2,0.6,1.7,2,1.6h3c1.1,0.1,1.8-0.3,1.9-1c0.1-0.2,0.1-0.6,0.2-1.3
		c0.1,0.1,0.2,0.1,0.3,0.2c0.2,0.1,0.4,0.1,0.7,0.2c-0.1,0.5-0.2,0.9-0.3,1.3c-0.2,1.1-1.1,1.7-2.7,1.6h-3.4
		c-1.9,0.1-2.9-0.8-2.8-2.4v-1l-6,0.5L869.3,603.2z"/>
	<path style="fill:#66361F;" d="M888,590.5h15.4v8.1h-14.2v5.5c-0.1,1.1,0.7,1.7,2.1,1.6h9.6c1.6,0.1,2.5-0.5,2.7-1.6
		c0.2-0.6,0.3-1.4,0.3-2.6c0.1,0,0.1,0,0.2,0.1c0.4,0.2,0.7,0.3,0.9,0.3c-0.1,0.7-0.2,1.5-0.4,2.4c0-0.1,0,0-0.1,0.3
		c-0.4,1.4-1.5,2.1-3.4,2.1h-10.2c-1.9-0.1-2.9-0.9-3-2.5V590.5z M889.1,591.6v6h6v-6H889.1z M902.3,591.6h-6v6h6V591.6z"/>
</g>
<g>
	<g>
		<line style="fill:none;stroke:#713D1F;stroke-width:1.5;stroke-miterlimit:10;" x1="279.4" y1="344.3" x2="280.1" y2="344.3"/>
		
			<line style="fill:none;stroke:#713D1F;stroke-width:1.5;stroke-miterlimit:10;stroke-dasharray:1.502,1.502;" x1="281.6" y1="344.3" x2="347" y2="344.3"/>
		<line style="fill:none;stroke:#713D1F;stroke-width:1.5;stroke-miterlimit:10;" x1="347.7" y1="344.3" x2="348.5" y2="344.3"/>
	</g>
</g>
<circle style="fill:none;stroke:#713D1F;stroke-width:1.5;stroke-miterlimit:10;stroke-dasharray:1.5;" cx="359.4" cy="344.3" r="8.4"/>
<g>
	<g>
		<line style="fill:none;stroke:#713D1F;stroke-width:1.5;stroke-miterlimit:10;" x1="234.9" y1="184.8" x2="235.7" y2="184.8"/>
		
			<line style="fill:none;stroke:#713D1F;stroke-width:1.5;stroke-miterlimit:10;stroke-dasharray:1.4836,1.4836;" x1="237.2" y1="184.8" x2="364" y2="184.8"/>
		<line style="fill:none;stroke:#713D1F;stroke-width:1.5;stroke-miterlimit:10;" x1="364.8" y1="184.8" x2="365.5" y2="184.8"/>
	</g>
</g>
<circle style="fill:none;stroke:#713D1F;stroke-width:1.5;stroke-miterlimit:10;stroke-dasharray:1.5;" cx="375.7" cy="184.8" r="8.4"/>
<g>
	<g>
		<line style="fill:none;stroke:#713D1F;stroke-width:1.5;stroke-miterlimit:10;" x1="172.2" y1="546.9" x2="173" y2="546.9"/>
		
			<line style="fill:none;stroke:#713D1F;stroke-width:1.5;stroke-miterlimit:10;stroke-dasharray:1.4878,1.4878;" x1="174.5" y1="546.9" x2="295.7" y2="546.9"/>
		<line style="fill:none;stroke:#713D1F;stroke-width:1.5;stroke-miterlimit:10;" x1="296.5" y1="546.9" x2="297.2" y2="546.9"/>
	</g>
</g>
<circle style="fill:none;stroke:#713D1F;stroke-width:1.5;stroke-miterlimit:10;stroke-dasharray:1.5;" cx="305.6" cy="546.9" r="8.4"/>
<g>
	<g>
		<line style="fill:none;stroke:#713D1F;stroke-width:1.5;stroke-miterlimit:10;" x1="724.5" y1="193.2" x2="723.8" y2="193.2"/>
		
			<line style="fill:none;stroke:#713D1F;stroke-width:1.5;stroke-miterlimit:10;stroke-dasharray:1.5104,1.5104;" x1="722.3" y1="193.2" x2="599.2" y2="193.2"/>
		<line style="fill:none;stroke:#713D1F;stroke-width:1.5;stroke-miterlimit:10;" x1="598.4" y1="193.2" x2="597.7" y2="193.2"/>
	</g>
</g>
<circle style="fill:none;stroke:#713D1F;stroke-width:1.5;stroke-miterlimit:10;stroke-dasharray:1.5;" cx="589.3" cy="193.2" r="8.4"/>
<g>
	<g>
		<line style="fill:none;stroke:#713D1F;stroke-width:1.5;stroke-miterlimit:10;" x1="724.5" y1="273.8" x2="723.8" y2="273.8"/>
		
			<line style="fill:none;stroke:#713D1F;stroke-width:1.5;stroke-miterlimit:10;stroke-dasharray:1.5051,1.5051;" x1="722.3" y1="273.8" x2="485.2" y2="273.8"/>
		<line style="fill:none;stroke:#713D1F;stroke-width:1.5;stroke-miterlimit:10;" x1="484.4" y1="273.8" x2="483.7" y2="273.8"/>
	</g>
</g>
<circle style="fill:none;stroke:#713D1F;stroke-width:1.5;stroke-miterlimit:10;stroke-dasharray:1.5;" cx="474.5" cy="273.8" r="8.4"/>
<g>
	<g>
		<line style="fill:none;stroke:#713D1F;stroke-width:1.5;stroke-miterlimit:10;" x1="736.1" y1="572.6" x2="735.3" y2="572.6"/>
		
			<line style="fill:none;stroke:#713D1F;stroke-width:1.5;stroke-miterlimit:10;stroke-dasharray:1.5141,1.5141;" x1="733.8" y1="572.6" x2="649.8" y2="572.6"/>
		<line style="fill:none;stroke:#713D1F;stroke-width:1.5;stroke-miterlimit:10;" x1="649" y1="572.6" x2="648.3" y2="572.6"/>
	</g>
</g>
<circle style="fill:none;stroke:#713D1F;stroke-width:1.5;stroke-miterlimit:10;stroke-dasharray:1.5;" cx="637.3" cy="572.6" r="8.4"/>
</svg>
