<?xml version="1.0" encoding="utf-8"?>
<!-- Generator: Adobe Illustrator 17.0.0, SVG Export Plug-In . SVG Version: 6.00 Build 0)  -->
<!DOCTYPE svg PUBLIC "-//W3C//DTD SVG 1.1//EN" "http://www.w3.org/Graphics/SVG/1.1/DTD/svg11.dtd">
<svg version="1.1" id="图层_1" xmlns="http://www.w3.org/2000/svg" xmlns:xlink="http://www.w3.org/1999/xlink" x="0px" y="0px"
	 width="445.14px" height="720.08px" viewBox="0 0 445.14 720.08" enable-background="new 0 0 445.14 720.08" xml:space="preserve">
<radialGradient id="SVGID_1_" cx="85.5187" cy="391.595" r="93.0483" gradientTransform="matrix(1 0 0 -1 0.14 719.1351)" gradientUnits="userSpaceOnUse">
	<stop  offset="0" style="stop-color:#FFC07D"/>
	<stop  offset="0.5713" style="stop-color:#FEB162"/>
	<stop  offset="1" style="stop-color:#FEA852"/>
</radialGradient>
<path fill="url(#SVGID_1_)" d="M139.409,435.967c0,0-29.994,16.377-38.962-11.963c-6.613-20.897,1.219-37.481,5.195-44.792
	c3.011-5.536,4.992-13.004-4.149-6.238c-3.969,2.938-9.862,9.289-16.249,21.403c-11.176,21.196-15.433,59.124-5.691,86.611
	c7.848,22.144,18.78,28.635,37.054,31.245C134.879,514.844,139.409,435.967,139.409,435.967z"/>
<path fill="#FFBF80" d="M133.008,472.089c0,0-34.071,11.164-45.608-14.057c-13.553-29.628,1.414-70.427-2.157-63.654
	c-11.176,21.196-15.433,59.124-5.691,86.611c7.848,22.144,18.78,28.635,37.054,31.245
	C134.879,514.844,133.008,472.089,133.008,472.089z"/>
<radialGradient id="SVGID_2_" cx="90.5679" cy="108.5104" r="64.2635" gradientTransform="matrix(1 0 0 -0.9267 0.14 698.0161)" gradientUnits="userSpaceOnUse">
	<stop  offset="0" style="stop-color:#FFC07D"/>
	<stop  offset="0.5713" style="stop-color:#FEB162"/>
	<stop  offset="1" style="stop-color:#FEA852"/>
</radialGradient>
<path fill="url(#SVGID_2_)" d="M104.829,499.991c0.94,5.641-2.194-12.535-7.521-12.848c-5.327-0.313-9.401,10.655-9.714,32.277
	c-0.313,21.623-1.401,73.642,8.701,71.135c0,0,6.655,12.535,12.609,6.267c0,0,9.78,6.541,6.267-25.07
	c-0.94-8.461-5.014-14.415-2.507-39.171C115.171,507.826,104.829,499.991,104.829,499.991"/>
<radialGradient id="SVGID_3_" cx="217.503" cy="137.041" r="0" gradientTransform="matrix(1 0 0 -1 0.14 719.1351)" gradientUnits="userSpaceOnUse">
	<stop  offset="0" style="stop-color:#FFC07D"/>
	<stop  offset="0.5713" style="stop-color:#FEB162"/>
	<stop  offset="1" style="stop-color:#FEA852"/>
</radialGradient>
<path fill="url(#SVGID_3_)" d="M217.643,582.094"/>
<radialGradient id="SVGID_4_" cx="406.9494" cy="215.3966" r="112.418" gradientTransform="matrix(1 0 0 -1 0.14 719.1351)" gradientUnits="userSpaceOnUse">
	<stop  offset="0" style="stop-color:#FFC07D"/>
	<stop  offset="0.5713" style="stop-color:#FEB162"/>
	<stop  offset="1" style="stop-color:#FEA852"/>
</radialGradient>
<path fill="url(#SVGID_4_)" d="M212.529,578.961c5.113,3.134,22.538,3.134,35.699,3.134c7.521,0,10.257-2.593,9.316,6.495
	s-6.372,23.902,13.37,17.948s56.048-41.52,77.089-105.606c3.395-10.34-2.866-13.795-2.866-13.795s-2.148-7.201-9.355-8.454
	c-7.208-1.253-9.34,3.68-9.34,3.68s-5.701-1.751-10.089,10.422c-5.748,15.944-23.261,57.461-37.918,78.029
	c-2.473,3.47,0.627-8.774,7.521-22.876c6.894-14.102,9.088-54.539-0.313-60.8C276.243,480.876,212.529,578.961,212.529,578.961z"/>
<path fill="#DD7528" d="M96.294,590.555c0,0,2.303,0.778,3.986-0.568c2.554-2.043,2.854-4.844,2.354-9.186
	c-0.113-0.985-1.068-6.471-2.941-9.536c-0.382-0.626,1.771,7.228,1.692,11.155c-0.076,3.831-0.314,4.832-1.742,6.64
	C98.214,590.868,96.294,590.555,96.294,590.555z"/>
<path fill="#DD7528" d="M108.903,596.823c0,0,1.4-0.279,2.879-1.463c2.244-1.795,2.421-4.844,1.982-8.658
	c-0.1-0.866-0.592-4.878-1.924-9.021c-0.197-0.613,0.873,6.993,0.827,10.443c-0.027,2.04,0.137,3.831-1.237,6.045
	C110.362,595.888,108.903,596.823,108.903,596.823z"/>
<path fill="#DD7528" d="M326.687,482.503c0,0,3.033,0.107,4.306,2.067c1.666,2.566,1.655,5.896-0.523,10.601
	c-0.494,1.068-4.512,9.789-7.585,12.65c-0.628,0.584,4.799-8.873,6.233-13.289c1.398-4.308,1.17-7.396,0.376-9.342
	C328.525,482.815,326.687,482.503,326.687,482.503z"/>
<path fill="#DD7528" d="M345.138,487.137c0,0,1.208,1.346,1.548,2.792c0.728,3.096-0.18,8.529-2.102,12.438
	c-0.436,0.887-2.489,4.989-5.465,8.926c-0.441,0.583,3.594-7.143,4.873-10.839c0.756-2.186,1.78-6.361,1.802-9.42
	C345.809,488.77,345.138,487.137,345.138,487.137z"/>
<radialGradient id="SVGID_5_" cx="191.4729" cy="424.0089" r="244.8368" gradientTransform="matrix(1 0 0 -1 0.14 719.1351)" gradientUnits="userSpaceOnUse">
	<stop  offset="0" style="stop-color:#FFC07D"/>
	<stop  offset="0.5713" style="stop-color:#FEB162"/>
	<stop  offset="1" style="stop-color:#FEA852"/>
</radialGradient>
<path fill="url(#SVGID_5_)" d="M159.768,273.977c10.615,12.517,21.868,29.058,2.043,81.888
	c-23.709,63.181-37.66,82.617-36.223,111.354c1.437,28.736-17.212,109.917,71.137,116.382c88.35,6.466,99.844-76.151,88.35-119.974
	c-11.495-43.823-54.454-95.29-63.587-117.819c-7.659-18.895-13.425-38.534,7.999-53.008c25.55-17.262-61.566-17.843-61.566-17.843"
	/>
<path opacity="0.3" fill="#DD7528" enable-background="new    " d="M223.798,297.352c0,0-25.072,3.553-38.432-1.942
	c-6.986-2.874,9.56,17.853,29.344,20.207C214.71,315.617,214.851,305.303,223.798,297.352z"/>
<g id="形状_12_8_">
	<g>
		
			<linearGradient id="SVGID_6_" gradientUnits="userSpaceOnUse" x1="264.7473" y1="237.3082" x2="263.1756" y2="378.7666" gradientTransform="matrix(1 0 0 -1 -47.9703 719.1351)">
			<stop  offset="0" style="stop-color:#FFC28A"/>
			<stop  offset="0.7938" style="stop-color:#FFCD9F"/>
			<stop  offset="1" style="stop-color:#FFD0A5"/>
		</linearGradient>
		<path fill="url(#SVGID_6_)" d="M233.186,396.505c-13.879-27.635-33.941-23.994-41.415-4.058
			c-8.032,21.425-16.995,78.002-9.952,108.017c5.936,25.296,58.698,25.783,68.241,2.342
			C262.853,471.386,242.413,414.877,233.186,396.505z"/>
	</g>
</g>
<path fill="#FF9B48" d="M163.387,378.99c4.181,29.416,14.39,67.332,42.631,87.341c26.449,18.74,11.678-10.61,11.678-10.61
	s-20.639-16.365-29.06-102.225C185.342,319.908,156.495,330.5,163.387,378.99z"/>
<path fill="#FF9B48" d="M220.662,357.862c5.37,31.511,7.976,37.11,8.961,57.925c2.55,53.896,8.426,30.513,10.838,23.219
	c7.016-21.218,6.411-45.425,0.616-64.603c-5.313-17.582-15.296-34.252-23.672-39.421
	C217.405,334.983,218.359,348.074,220.662,357.862"/>
<path fill="#FCEBCE" d="M201.83,452.968c0,0-13.996-5.154-15.597-17.753s2.476-16.632,10.021-12.393
	c9.244,5.194,12.351,10.673,14.109,21.895C212.625,459.163,201.83,452.968,201.83,452.968z"/>
<path fill="#FCEBCE" d="M237.288,446.246c0,0-3.152-6.247,6.934-17.278c10.086-11.032,12.923-3.375,13.869,5.376
	c0.946,8.751-2.206,15.212-12.923,17.813C234.451,454.756,237.288,446.246,237.288,446.246z"/>
<path fill="#FFBD99" d="M202.878,449.389c0,0-9.591-2.129-10.594-10.023s1.551-10.421,6.279-7.765
	c5.792,3.254,7.739,6.687,8.84,13.719C208.82,454.371,202.878,449.389,202.878,449.389z"/>
<path fill="#FFBD99" d="M240.865,447.016c0,0-2.013-3.99,4.429-11.036c6.442-7.046,8.956-2.188,8.858,3.433
	c-0.123,7.023-6.742,9.322-10.055,10.234C237.306,451.517,240.865,447.016,240.865,447.016z"/>
<path opacity="0.6" fill="#DD7528" enable-background="new    " d="M158.115,481.322c0,0,19.255,0.973,63.123,0.141
	c32.241-0.611,40.581-2.065,66.323-5.288C288.31,476.081,210.808,588.773,158.115,481.322z"/>
<path fill="#FFBF80" d="M146.508,478.481c0,0,94.675,26.524,141.053-2.306c0,0,14.043,94.351-66.437,106.792
	c-53.933,8.337-82.919-12.723-91.087-37.98C121.869,519.731,146.508,478.481,146.508,478.481z"/>
<path opacity="0.4" fill="#DD7528" enable-background="new    " d="M184.604,507.685c0,0-5.437,11.698,7.069,10.851
	c12.506-0.846,16.766-18.689,16.766-21.027c0,0,5.063,2.923,12.907,4.174s11.521,0.081,17.303-3.101
	c2.265-1.247,3.007-2.027,4.597-3.135c0,0,2.899,14.089,12.118,17.618c9.219,3.528,12.087-2.106,9.589-6.994
	c-2.497-4.888-13.843-9.397-15.804-18.43s-38.967-3.215-44.72-1.715S184.604,507.685,184.604,507.685z"/>
<path fill="#FCEBCE" d="M198.446,476.294c0,0-4.107,12.559-10.217,21.659s-3.392,13.024-0.981,14.187
	c2.411,1.163,8.054,3.03,13.861-7.396s6.512-21.837,6.512-21.837L198.446,476.294z"/>
<path fill="#FCEBCE" d="M245.05,486.676c0,0,2.181,9.004,7.934,15.757c5.753,6.753,12.506,8.254,14.257,5.252
	c1.751-3.001,0.25-6.581-2.501-11.044s-9.244-7.205-13.001-17.464C247.982,468.917,245.05,486.676,245.05,486.676z"/>
<path fill="#F6BF96" d="M260.382,503.173c0.871,1.727,1.903,4.402,2.113,5.804c0.457,0.273,0.942,0.177,1.218,0.104
	c-0.161-0.869-0.716-2.168-1.215-3.366C261.312,502.875,259.024,500.486,260.382,503.173z"/>
<path fill="#F6BF96" d="M264.053,501.64c0.824,1.081,2.822,4.079,3.31,6.11c0.257-0.331,0.668-0.738,0.627-1.476
	c-0.31-0.983-1.023-2.269-1.723-3.148C264.76,501.234,262.947,500.185,264.053,501.64z"/>
<path fill="#F6BF96" d="M194.092,506.943c-0.775,1.801-1.627,4.561-1.713,5.976c-0.472,0.315-1.243,0.189-1.552,0.142
	c0.087-0.88,0.311-1.915,0.733-3.155C192.564,506.969,195.3,504.14,194.092,506.943z"/>
<path fill="#F6BF96" d="M189.508,505.516c-0.79,1.154-2.415,4.222-2.739,6.289c-0.444-0.118-0.807-0.523-1.242-1.09
	c0.238-1.008,1.04-2.572,1.714-3.512C188.694,505.178,190.567,503.963,189.508,505.516z"/>
<path fill="#FCEBCE" d="M224.73,435.371c13.317,0,21.384,16.549,26.427,23.483c5.043,6.934,6.149,18.767,0,25.531
	c-3.152,3.467-5.678,3.819-11.347,8.51c-5.749,4.757-16.969,3.921-24.306-0.748c-5.547-3.53-6.546-3.543-12.07-6.661
	c-6.576-3.712-16.684-15.269-2.078-37.204C209.427,436.16,216.713,435.371,224.73,435.371z"/>
<path fill="#F7CC9D" d="M210.941,445.897c0.57,3.406,2.204,4.18,4.31,4.702c2.592,0.643,4.308-1.698,5.213-2.715
	c0,0,1.408,3.48,3.802,4.48c2.553,1.067,4.386,0.352,5.486-1.263c0.667-0.978,0.663-2.778,0.663-2.778s1.946,2.49,5.26,1.937
	c1.974-0.329,2.29-1.982,2.528-3.095c0.238-1.112-0.093-2.23-0.093-2.23s2.05,2.558,1.177,5.223c-0.619,1.888-2.4,3.11-4.511,2.625
	c-1.464-0.337-3.606-2.068-3.606-2.068s-0.393,2.535-2.257,3.587s-4.414,0.682-5.945-0.411c-1.531-1.093-2.791-3.507-2.791-3.507
	s-1.115,2.021-3.519,2.859c-1.419,0.494-3.976,0.335-5.322-2.069C209.983,448.754,210.941,445.897,210.941,445.897z"/>
<radialGradient id="SVGID_7_" cx="196.43" cy="236.5269" r="17.9541" gradientTransform="matrix(1 0 0 -1 0.14 719.1351)" gradientUnits="userSpaceOnUse">
	<stop  offset="0" style="stop-color:#FFDECC"/>
	<stop  offset="0.5179" style="stop-color:#F9DCC0"/>
	<stop  offset="1" style="stop-color:#FCEBCE"/>
</radialGradient>
<path fill="url(#SVGID_7_)" d="M215.503,492.147c-5.547-3.53-6.546-3.543-12.07-6.661c-6.576-3.712-16.684-15.269-2.078-37.204
	c3.433-5.156,14.254,8.012,17.613,18.562C223.505,481.098,219.72,494.83,215.503,492.147z"/>
<radialGradient id="SVGID_8_" cx="256.2259" cy="234.7002" r="19.5953" gradientTransform="matrix(1 0 0 -1 0.14 719.1351)" gradientUnits="userSpaceOnUse">
	<stop  offset="0" style="stop-color:#FFDECC"/>
	<stop  offset="0.5179" style="stop-color:#F9DCC0"/>
	<stop  offset="1" style="stop-color:#FCEBCE"/>
</radialGradient>
<path fill="url(#SVGID_8_)" d="M251.157,458.854c5.043,6.934,6.149,18.767,0,25.531c-3.152,3.467-5.678,3.819-11.347,8.51
	c-5.749,4.757-14.321,3.961-21.42,0.806C212.381,491.031,246.113,451.92,251.157,458.854z"/>
<path fill="#57301B" d="M210.641,477.141c7.35,0.493,6.77-6.976,6.7-8.465c-0.087-1.842-1.098-2.06-1.263-0.26
	c-0.243,2.651-0.992,6.828-5.246,6.435c-5.062-0.468-7.283-5.263-8.153-6.885c-0.229-0.426-1.005-1.672-0.822,0.271
	C202.055,470.33,204.618,476.737,210.641,477.141z"/>
<path fill="#57301B" d="M246.45,476.706c-6.974,0.459-8.088-6.566-8.088-8.056c0-1.474,0.625-1.935,1.122-0.198
	c0.798,2.789,1.814,5.776,6.08,5.991c4.46,0.225,4.818-4.783,5.195-6.584c0.329-1.572,1.002-1.115,0.979,0.006
	C251.697,469.964,251.347,476.384,246.45,476.706z"/>
<g id="形状_77_11_">
	<g>
		<path fill="#FFBD99" d="M207.852,479.221c-2.637-0.226-4.88,0.809-5.006,2.311c-0.129,1.502,1.904,2.9,4.54,3.125
			c2.64,0.226,4.88-0.809,5.008-2.311S210.489,479.447,207.852,479.221z"/>
	</g>
</g>
<path fill="#57301B" d="M231.133,485.476c-3.692,0-9.905,0.782-8.667,3.527c1.413,3.13,5.689,4.461,8.595,4.543
	s7.219-2.366,7.299-5.193C238.44,485.561,233.413,485.476,231.133,485.476z"/>
<g id="形状_77_16_">
	<g>
		
			<ellipse transform="matrix(-0.9964 0.0853 -0.0853 -0.9964 534.316 941.0122)" fill="#FFBD99" cx="247.055" cy="481.921" rx="4.793" ry="2.728"/>
	</g>
</g>
<radialGradient id="SVGID_9_" cx="119.5239" cy="167.535" r="70.4058" gradientTransform="matrix(1 0 0 -1 0.14 719.1351)" gradientUnits="userSpaceOnUse">
	<stop  offset="0" style="stop-color:#FFC07D"/>
	<stop  offset="0.5713" style="stop-color:#FEB162"/>
	<stop  offset="1" style="stop-color:#FEA852"/>
</radialGradient>
<path fill="url(#SVGID_9_)" d="M120.43,472.325c-10.255,9.339-24.178,29.733-13.396,60.773
	c10.782,31.04,38.228,42.476,51.951,28.099c13.723-14.377,13.396-37.901,4.901-65.674
	C155.391,467.75,138.727,455.661,120.43,472.325z"/>
<path fill="#FFC07D" d="M171.851,181.431c0,0-29.622-28.203-40.411-42.177c-15.713-20.352-27.606-23.373-28.994-4.569
	c-1.119,15.163-1.17,41.229,24.202,55.815c26,14.947,46.075,7.275,46.075,7.275S174.659,184.266,171.851,181.431z"/>
<path fill="#FFC07D" d="M210.257,179.672c0,0,23.166-21.998,31.341-34.496c7.569-11.571,27.957-41.718,34.34-25.335
	s12.826,63.951-48.138,77.272S210.257,179.672,210.257,179.672z"/>
<path fill="#FF9B48" d="M164.244,188.099c0,0-18.94-16.715-25.635-24.466c-9.751-11.289-17.811-14.27-19.804-6.012
	c-1.607,6.659,0.749,20.383,13.674,28.38c17.012,10.525,31.471,9.56,31.471,9.56S166.03,189.756,164.244,188.099z"/>
<path fill="#FF9B48" d="M218.732,186.511c0,0,20.135-18.864,25.713-25.075c4.473-4.98,17.096-21.437,20.85-14.665
	c3.754,6.772,2.651,29.461-27.213,40.802C206.395,199.606,218.732,186.511,218.732,186.511z"/>
<radialGradient id="SVGID_10_" cx="251.7849" cy="469.2504" r="60.3172" gradientTransform="matrix(1 0 0 -1 0.14 719.1351)" gradientUnits="userSpaceOnUse">
	<stop  offset="0" style="stop-color:#FECD97"/>
	<stop  offset="1" style="stop-color:#FFC07A"/>
</radialGradient>
<path fill="url(#SVGID_10_)" d="M156.617,194.889c-5.002,9.897-12.962,32.149-5.675,62.49c2.444,10.178,9.347,19.072,16.978,25.667
	c24.42,21.104,48.092,12.973,55.024,11.75c10.251-1.809,36.178-15.685,40.701-35.277c4.522-19.593-9.355-23.393-13.868-28.336
	c-6.331-6.934-10.388-22.789-18.089-37.686c-7.117-13.766-24.155-21.211-38.105-21.323
	C171.151,171.993,161.315,185.595,156.617,194.889z"/>
<path fill="#FFA083" d="M262.688,243.81c-3.766,0.418-7.597,1.82-9.485,4.221c-4.185,5.32,6.709,5.867,6.709,5.867
	c1.265,0.122,2.901-0.042,4.574-0.425C264.66,249.507,263.93,246.367,262.688,243.81z"/>
<path fill="#FFCE99" d="M157.253,227.508c0,0,2.031-9.771,11.935-12.374c9.998-2.628,22.312,2.007,24.509,11.134
	c1.239,5.144-25.777-1.557-25.777-1.557"/>
<path fill="#FFFFFF" d="M158.259,228.297c0,0-0.832,9.166,3.16,13.903c4.155,4.931,12.882,6.314,20.524,3.751
	c11.55-3.874,13.691-18.634,10.632-22.054C186.143,216.707,161.505,216.038,158.259,228.297z"/>
<g id="Shape_2_17_">
	<g>
		<path fill="#9C6342" d="M177.442,246.865c-2.59,0.544-6.593,0.207-9.901-0.969c-3.336-1.186-4.935-3.167-6.869-4.933
			c-0.999-0.912,0.354,2.84,4.138,5.208c-0.729,0.809-1.054,1.853-0.9,2.471c0.161,0.647,0.844-0.843,1.853-1.253
			c0.349-0.142,0.608-0.241,0.804-0.313c0.257,0.106,0.516,0.212,0.789,0.303c0.383,0.127,0.764,0.231,1.142,0.323
			c-0.48,0.74-0.639,1.883-0.557,2.714c0.049,0.482,1.084-0.665,1.659-1.188c0.612-0.557,1.231-0.96,1.51-1.131
			C175.956,248.417,179.457,246.44,177.442,246.865z"/>
	</g>
</g>
<path fill="#512A15" d="M171.693,219.012c-7.83,0.572-14.555,5.553-13.865,13.645c0.828,9.723,7.506,15.069,14.633,14.484
	c10.06-0.827,10.982-8.79,10.387-16.027C182.199,223.221,175.496,218.734,171.693,219.012z"/>
<path fill="#A85726" d="M158.187,210.148c0,0,5.685-6.486,14.759-6.484c14.193,0.003,18.503,9.479,14.931,8.562
	c-2.848-0.731-3.307-6.59-16.05-5.294c-4.868,0.495-9.954,3.935-11.276,5.302C158.899,213.941,156.367,212.777,158.187,210.148z"/>
<path fill="#713D1F" d="M157.253,227.508c0,0-3.844,0.239-5.939-2.682c-1.571-2.19-2.211-2.19-1.066,0.451
	c1.608,3.711,4.676,5.111,7.545,5.761c0,0,6.782-10.014,16.238-11.098c11.588-1.327,15.755,0.948,19.667,6.327
	c0,0-2.197-10.506-19.596-8.974C163.155,218.258,157.253,227.508,157.253,227.508z"/>
<path fill="#4F2914" d="M226.778,258.533c-1.411-1.284-1.266-5.201,4.247-6.128c7.493-1.259,26.06-2.153,20.038,6.128
	C246.377,264.977,233.263,264.434,226.778,258.533z"/>
<path fill="#FFA083" d="M166.684,263.143c4.434,1.263,14.293-0.194,13.709-4.816c-0.584-4.622-14.174-6.643-19.25-2.164
	C156.067,260.642,166.684,263.143,166.684,263.143z"/>
<ellipse transform="matrix(-0.0954 -0.9954 0.9954 -0.0954 -31.563 437.4521)" fill="#FFFFFF" cx="182.984" cy="233.067" rx="2.434" ry="4.622"/>
<path fill="#FFCE99" d="M220.03,225.439c0,0,0.624-11,10.698-12.843c5.558-1.016,10.559-0.416,12.756,8.711
	c1.239,5.144-19.323-1.894-19.323-1.894"/>
<path fill="#FFFFFF" d="M219.532,228.21c0,0,1.012,3.994,5.003,8.731c4.155,4.931-1.284,6.952,9.757,6.341
	c14.514-0.804,11.753-19.877,8.694-23.296C236.554,212.796,222.778,215.951,219.532,228.21z"/>
<g id="Shape_2_15_">
	<g>
		<path fill="#9C6342" d="M243.452,239.457c2.198-3.232,2.063-7.142,1.573-6.017c-0.947,2.179-1.565,4.474-3.788,6.468
			c-2.205,1.977-6.566,3.321-8.756,3.48c-1.714,0.122,2.561,1.109,6.597-0.487c0.21,0.066,0.881,0.292,1.611,0.704
			c0.613,0.346,1.784,1.164,1.669,0.694c-0.2-0.813-0.689-1.859-1.301-2.435c0.272-0.184,0.538-0.38,0.794-0.598
			c0.185-0.157,0.352-0.325,0.519-0.493c0.175,0.017,0.409,0.044,0.726,0.088c0.916,0.126,1.921,1.361,1.841,0.706
			C244.86,240.94,244.276,240.035,243.452,239.457z"/>
	</g>
</g>
<path fill="#512A15" d="M227.957,218.735c-7.851,0.082-9.016,8.264-8.565,13.545c0.639,7.489,6.635,11.524,10.911,11.015
	c8.348-0.994,9.277-9.758,8.834-13.924C238.344,221.918,234.264,218.669,227.957,218.735z"/>
<path fill="#A85726" d="M217.519,210.714c0,0,4.186-4.782,10.971-6.177c9.233-1.898,10.746,5.118,8.558,4.836
	c-1.744-0.225-1.95-3.542-9.813-1.939c-3.003,0.612-7.854,4.405-8.747,5.221C217.803,213.281,215.812,212.524,217.519,210.714z"/>
<path fill="#713D1F" d="M242.196,217.895c0,0,2.338-0.547,3.421-3.492c0.676-1.839,1.608-3.578,1.421-0.98
	c-0.262,3.65-1.613,6.294-3.4,7.462c0,0-5.305-4.784-11.901-3.744c-4.231,0.667-10.262,2.684-11.706,8.298
	c0,0,0.876-8.298,11.16-10.614C238.71,213.131,242.196,217.895,242.196,217.895z"/>
<ellipse transform="matrix(-0.0954 -0.9954 0.9954 -0.0954 32.1255 491.407)" fill="#FFFFFF" cx="239.344" cy="231.107" rx="2.434" ry="4.622"/>
<path fill="#FFA083" d="M214.009,285.033c7.773-2.591,21.338-2.247,24.7-1.219c4.892,1.496,1.565,2.896-0.365,2.286
	c-1.93-0.61-17.836-0.992-24.03,1.524C209.437,289.606,208.704,286.802,214.009,285.033z"/>
<path fill="#66361F" d="M149.925,214.403c-0.919,5.507,20.728-9.978,28.23-18.095c2.581-2.793,8.834,8.293,28.666,13.521
	c7.865,2.073,14.888-11.593,16.403-14.422c0.901-1.683,15.895,16.019,15.089,12.749c-6.826-27.705-30.78-35.869-44.731-35.981
	C171.151,171.993,154.813,185.12,149.925,214.403z"/>
<path fill="#E5432E" d="M152.634,203.057c0,0,20.642-19.895,44.944-19.183c24.302,0.712,30.852,6.49,35.051,10.32
	c0,0-1.224-3.194-6.747-8.676c0,0-9.408-7.368-15.187-7.729c0,0,6.895,0.188,18.496-12.906c12.513-14.122,9.876-31.082,9.347-35.755
	c-0.392-3.464-0.601-8.487-8.805-5.959c-6.838,2.107-24.604,9.331-29.542,34.596c-4.529,23.169-1.132-4.25-23.007-21.774
	c-8.664-6.941-18.6-9.997-26.24-10.835c-2.976-0.326-9.341-0.361-9.334,5.598c0.004,3.616,3.375,30.764,21.794,41.418
	s21.315,6.381,21.315,6.381s-18.453,4.355-28.28,15.314C156.437,193.867,154.017,197.886,152.634,203.057z"/>
<path fill="#DEC8B5" d="M353.09,475.631c-1.653-0.733-2.734-1.059-2.61-2.305c0.089-0.9,1.19-1.495,3.243-0.783
	c1.838,0.637,14.091,6.379,10.681,18.604c-0.104,0.372-0.557,2.274-1.985,1.653c-1.008-0.439-0.759-1.801-0.685-2.258
	C362.035,488.675,363.254,480.138,353.09,475.631z"/>
<path fill="#DEC8B5" d="M363.792,472.58c-1.291-0.572-2.135-0.827-2.038-1.8c0.07-0.703,0.929-1.167,2.533-0.612
	c1.435,0.497,11.003,4.981,8.34,14.526c-0.081,0.29-0.435,1.776-1.55,1.29c-0.787-0.343-0.593-1.407-0.535-1.763
	C370.777,482.766,371.728,476.1,363.792,472.58z"/>
</svg>
