<?xml version="1.0" encoding="utf-8"?>
<!-- Generator: Adobe Illustrator 17.0.0, SVG Export Plug-In . SVG Version: 6.00 Build 0)  -->
<!DOCTYPE svg PUBLIC "-//W3C//DTD SVG 1.1//EN" "http://www.w3.org/Graphics/SVG/1.1/DTD/svg11.dtd">
<svg version="1.1" id="图层_1" xmlns="http://www.w3.org/2000/svg" xmlns:xlink="http://www.w3.org/1999/xlink" x="0px" y="0px"
	 width="180.197px" height="222.465px" viewBox="0 0 180.197 222.465" enable-background="new 0 0 180.197 222.465"
	 xml:space="preserve">
<radialGradient id="SVGID_1_" cx="-307.8966" cy="175.5799" r="49.6244" gradientTransform="matrix(-0.9917 0.1282 0.1282 0.9917 -243.1134 22.4372)" gradientUnits="userSpaceOnUse">
	<stop  offset="0" style="stop-color:#FFDECC"/>
	<stop  offset="0.5179" style="stop-color:#F9DCC0"/>
	<stop  offset="1" style="stop-color:#FCEBCE"/>
</radialGradient>
<path fill="url(#SVGID_1_)" d="M107.357,169.947c0,0-0.231,8.058,7.255,17.181c7.486,9.123-5.594,31.894-36.777,25.438
	c-27.27-5.646-18.152-19.321-14.985-31.669C66.604,166.264,107.357,169.947,107.357,169.947z"/>
<path fill-rule="evenodd" clip-rule="evenodd" fill="#FCEBCE" d="M128.062,88.536c0,0,30.515-2.611,35.977-25.091
	c9.489-39.056-6.642-37.872-21.412-33.001c-18.095,5.967-28.923,15.912-35.976,35.341C97.572,90.796,128.062,88.536,128.062,88.536z
	"/>
<path fill-rule="evenodd" clip-rule="evenodd" fill="#FCEBCE" d="M70.379,73.075c0,0,6.707-35.617-23.601-49.627
	C12.579,7.638,15.04,32.204,19.543,50.718c3.902,16.043,12.432,21.513,32.759,30.987S70.379,73.075,70.379,73.075z"/>
<path fill-rule="evenodd" clip-rule="evenodd" fill="#FFBD99" d="M120.487,78.446c0,0,21.245-0.415,26.734-15.972
	c5.489-15.557,1.149-21.704-10.007-18.249c-13.668,4.232-19.258,10.384-24.588,24.157C105.765,86.111,120.487,78.446,120.487,78.446
	z"/>
<path fill-rule="evenodd" clip-rule="evenodd" fill="#FFBD99" d="M64.182,69.275c0,0,6.339-13.808-11.812-26.824
	s-21.656,1.931-17.873,15.188c4.727,16.563,20.234,18.236,27.844,18.508C77.939,76.702,64.182,69.275,64.182,69.275z"/>
<path fill-rule="evenodd" clip-rule="evenodd" fill="#FCEBCE" d="M88.343,50.124c-35.681-3.633-55.041,33.78-61.003,57.114
	c-4.317,16.894-13.052,37.522-5.296,48.922c5.36,7.879,13.721,12.998,21.766,21.881c12.009,13.26,16.841,13.159,27.771,14.761
	c18.514,2.713,32.491-7.657,44.623-14.01c34.686-18.166,38.188-31.023,20.152-84.595C126.905,66.128,113.612,52.697,88.343,50.124z"
	/>
<radialGradient id="SVGID_2_" cx="20.068" cy="154.1756" r="44.0442" gradientUnits="userSpaceOnUse">
	<stop  offset="0" style="stop-color:#FFDECC"/>
	<stop  offset="0.2546" style="stop-color:#F9DCC0"/>
	<stop  offset="1" style="stop-color:#FCEBCE"/>
</radialGradient>
<path fill-rule="evenodd" clip-rule="evenodd" fill="url(#SVGID_2_)" d="M27.34,107.237c-4.317,16.894-13.77,33.198-6.275,46.739
	c7.205,13.017,17.881,18.771,22.745,24.063c12.105,13.172,16.841,13.159,27.771,14.761c9.347,1.37,9.34-33.498-3.471-58.332
	C55.546,110.116,30.292,95.684,27.34,107.237z"/>
<radialGradient id="SVGID_3_" cx="145.5462" cy="158.7649" r="50.6072" gradientUnits="userSpaceOnUse">
	<stop  offset="0" style="stop-color:#FFDECC"/>
	<stop  offset="0.2546" style="stop-color:#F9DCC0"/>
	<stop  offset="1" style="stop-color:#FCEBCE"/>
</radialGradient>
<path fill-rule="evenodd" clip-rule="evenodd" fill="url(#SVGID_3_)" d="M71.581,192.801c18.514,2.713,32.491-7.657,44.623-14.01
	c34.686-18.166,38.188-31.023,20.152-84.595C126.905,66.128,60.651,191.199,71.581,192.801z"/>
<path fill="#F7CC9D" d="M116.714,79.115c-1.527,8.26-5.439,10.076-10.46,11.264c-6.178,1.462-10.127-4.296-12.217-6.805
	c0,0-3.518,8.407-9.245,10.745c-6.107,2.494-10.416,0.684-12.942-3.284c-1.531-2.405-1.429-6.781-1.429-6.781
	s-4.742,5.978-12.57,4.505c-4.662-0.877-5.326-4.908-5.835-7.623c-0.507-2.714,0.335-5.417,0.335-5.417s-4.992,6.139-3.059,12.653
	c1.37,4.614,5.529,7.655,10.559,6.558c3.489-0.761,8.655-4.886,8.655-4.886s0.801,6.178,5.166,8.808
	c4.366,2.631,10.428,1.83,14.114-0.767c3.686-2.597,6.797-8.419,6.797-8.419s2.539,4.958,8.195,7.089
	c3.337,1.257,9.409,0.97,12.724-4.824C118.839,86.1,116.714,79.115,116.714,79.115z"/>
<g id="形状_77_43_">
	<g>
		<path fill-rule="evenodd" clip-rule="evenodd" fill="#FFBD99" d="M129.482,150.156c-5.379,0.151-9.674,2.751-9.589,5.816
			s4.513,5.427,9.899,5.276c5.379-0.151,9.669-2.751,9.583-5.816C139.295,152.368,134.862,150.005,129.482,150.156z"/>
	</g>
</g>
<path fill="#57301B" d="M71.683,168.617c8.497-0.058,19.4,2.603,19.044,6.613c-0.582,6.553-11.41,9.727-20.941,8.826
	c-6.605-0.624-15.651-5.017-15.471-9.822C54.569,167.404,66.435,168.653,71.683,168.617z"/>
<g id="形状_77_36_">
	<g>
		<path fill-rule="evenodd" clip-rule="evenodd" fill="#FFBD99" d="M33.803,142.551c-5.34-0.679-9.983,1.236-10.364,4.278
			c-0.387,3.042,3.627,6.051,8.965,6.73c5.345,0.679,9.983-1.236,10.37-4.278C43.16,146.24,39.141,143.23,33.803,142.551z"/>
	</g>
</g>
<path fill="#57301B" d="M132.698,127.895c-3.513,0.713-28.74,11.599-34.279,15.378c-5.539,3.778-2.776,4.06,0.588,2.368
	c2.304-1.159,30.323-12.521,33.857-13.58C136.945,130.837,136.988,127.025,132.698,127.895z"/>
<path fill="#57301B" d="M55.272,141.67c-2.235-3.429-19.217-20.997-23.166-23.478c-3.95-2.481-4.821,0.709-2.741,2.245
	s23.633,21.243,24.537,22.364C54.805,143.922,57.32,144.814,55.272,141.67z"/>
<path fill="#F6B490" d="M67.608,149.016c0,0-6.692,2.681-8.245,4.79c-1.554,2.109,0,2.855,2.276,1.164
	c1.5-1.114,6.692-4.212,8.109-4.754C71.663,149.483,71.342,147.312,67.608,149.016z"/>
<path fill="#F6B490" d="M76.981,150.281c0,0-6.692,2.681-8.245,4.79c-1.554,2.109,0,2.855,2.276,1.164
	c1.5-1.114,6.692-4.212,8.109-4.754C81.036,150.748,80.715,148.577,76.981,150.281z"/>
<path fill="#F6B490" d="M85.967,150.853c0,0-6.692,2.681-8.245,4.79c-1.554,2.109,0,2.855,2.276,1.164
	c1.5-1.114,6.692-4.212,8.109-4.754C90.021,151.32,89.701,149.149,85.967,150.853z"/>
</svg>
