<?xml version="1.0" encoding="utf-8"?>
<!-- Generator: Adobe Illustrator 17.0.0, SVG Export Plug-In . SVG Version: 6.00 Build 0)  -->
<!DOCTYPE svg PUBLIC "-//W3C//DTD SVG 1.1//EN" "http://www.w3.org/Graphics/SVG/1.1/DTD/svg11.dtd">
<svg version="1.1" id="图层_1" xmlns="http://www.w3.org/2000/svg" xmlns:xlink="http://www.w3.org/1999/xlink" x="0px" y="0px"
	 width="180.197px" height="222.465px" viewBox="0 0 180.197 222.465" enable-background="new 0 0 180.197 222.465"
	 xml:space="preserve">
<path fill="#FFDAB8" d="M63.512,79.24c0,0-9.481-27.827,12.814-55.623s30.233-7.069,33.894,1.221
	c3.661,8.29,4.322,30.943,0.359,37.77c-3.964,6.827-19.322,26.82-19.322,26.82L63.512,79.24z"/>
<path fill="#FCEACB" d="M93.555,66.002c0,0,20.428-28.817,45.406-36.735c24.568-7.788,43.292-5.885,40.616,14.308
	c-2.248,16.962-10.759,43.643-55.114,54.664C71.163,111.482,93.555,66.002,93.555,66.002z"/>
<path fill="#FFBD99" d="M105.732,82.648c0,0,8.707-26.337,35.786-31.982c22.875-4.769,19.611,6.269,15.911,15.241
	s-15.475,23.733-42.674,25.485C85.886,93.252,105.732,82.648,105.732,82.648z"/>
<radialGradient id="SVGID_1_" cx="84.1799" cy="146.0382" r="73.6327" fx="125.9288" fy="194.6152" gradientTransform="matrix(1 0 0 0.6854 0 45.9485)" gradientUnits="userSpaceOnUse">
	<stop  offset="0" style="stop-color:#FFDECC"/>
	<stop  offset="0.5179" style="stop-color:#F9DCC0"/>
	<stop  offset="1" style="stop-color:#FCEBCE"/>
</radialGradient>
<path fill="url(#SVGID_1_)" d="M137.397,100.281c0,0-8.704-34.102-48.85-36.001c-30.47-1.442-43.46,9.514-52.561,25.148
	c-8.945,15.365-5.32,28.184-23.957,39.871c-13.331,8.36-10.741,20.572-0.778,34.52c9.708,13.591,26.793,19.746,41.649,21.867
	c18.471,2.637,12.616,10.608,10.189,19.293c-6.26,22.399,37.876,14.172,45.35-4.435c3.188-7.938-5.313-11.097,3.908-25.865
	C117.718,166.076,149.18,147.655,137.397,100.281z"/>
<path fill="#FFDAB8" d="M55.471,186.086c0,0,16.277,1.379,26.618-1.745c10.77-3.254,5.134,3.973-17.98,17.308
	c0,0,3.405-7.486,0.825-11.084C63.089,187.991,58.914,187.021,55.471,186.086z"/>
<g id="形状_77_23_">
	<g>
		<path fill-rule="evenodd" clip-rule="evenodd" fill="#FFBD99" d="M105.711,143.07c-0.44-4.183-7.499-6.716-15.76-5.673
			c-8.263,1.043-14.607,5.281-14.159,9.462c0.44,4.183,7.49,6.718,15.752,5.675C99.815,151.489,106.151,147.253,105.711,143.07z"/>
	</g>
</g>
<path fill="#57301B" d="M78.367,113.022c-13.659,1.389-18.103,8.68-19.778,12.226c-1.216,2.572-0.038,5.648,2.515,3.062
	c4.824-4.886,8.428-8.355,18.81-9.754c9.013-1.214,16.156,1.869,19.401,5.53c0.853,0.963,1.61,0.09,1.012-1.48
	C98.956,119.008,92.513,111.584,78.367,113.022z"/>
<path fill="#57301B" d="M8.202,129.55c-5.846,1.741-11.039,6.204-5.717,17.751c4.555,9.884,15.441,4.434,17.593-6.636
	C21.993,130.814,16.409,128.428,8.202,129.55z"/>
<path fill="#F7CC9D" d="M38.656,85.165c0,0-2.574,18.386,22.498,3.175c0.585-0.355,1.209-0.839,1.731,0.215
	c0.425,0.857,2.624,8.176,9.97,8.176c7.646,0,14.146-7.267,15.915-13.755c0.771-2.828-2.512,1.389-3.078,1.92
	c-1.448,1.361-12.893,13.852-20.827-0.609c-0.441-0.803-1.046-2.259-3.256-1.003c-1.452,0.825-19.022,11.354-20.276-1.768
	C41.333,81.516,39.379,84.144,38.656,85.165z"/>
</svg>
