<?xml version="1.0" encoding="utf-8"?>
<!-- Generator: Adobe Illustrator 17.1.0, SVG Export Plug-In . SVG Version: 6.00 Build 0)  -->
<!DOCTYPE svg PUBLIC "-//W3C//DTD SVG 1.1//EN" "http://www.w3.org/Graphics/SVG/1.1/DTD/svg11.dtd">
<svg version="1.1" id="图层_1" xmlns="http://www.w3.org/2000/svg" xmlns:xlink="http://www.w3.org/1999/xlink" x="0px" y="0px"
	 viewBox="0 0 243.7 115.7" style="enable-background:new 0 0 243.7 115.7;" xml:space="preserve">
<rect x="1.9" y="1.9" style="fill:#DDDEE0;stroke:#CCCCCC;stroke-miterlimit:10;" width="240" height="112"/>
<rect x="31.9" y="2.9" style="fill:#FFFFFF;" width="180" height="110"/>
<g>
	<g>
		<path style="fill-rule:evenodd;clip-rule:evenodd;fill:#FFEFEF;" d="M31.9,112.9c3.4,0,6.7,0,10.1,0c0-36.7,0-73.3,0-110
			c-3.4,0-6.7,0-10.1,0C31.9,39.6,31.9,76.3,31.9,112.9z M47.3,112.9c3.4,0,6.7,0,10.1,0c0-36.7,0-73.3,0-110c-3.4,0-6.7,0-10.1,0
			C47.3,39.6,47.3,76.3,47.3,112.9z M62.8,112.9c3.4,0,6.7,0,10.1,0c0-36.7,0-73.3,0-110c-3.4,0-6.7,0-10.1,0
			C62.8,39.6,62.8,76.3,62.8,112.9z M78.2,112.9c3.4,0,6.7,0,10.1,0c0-36.7,0-73.3,0-110c-3.4,0-6.7,0-10.1,0
			C78.2,39.6,78.2,76.3,78.2,112.9z M93.7,112.9c3.4,0,6.7,0,10.1,0c0-36.7,0-73.3,0-110c-3.4,0-6.7,0-10.1,0
			C93.7,39.6,93.7,76.3,93.7,112.9z M109.1,112.9c3.4,0,6.7,0,10.1,0c0-36.7,0-73.3,0-110c-3.4,0-6.7,0-10.1,0
			C109.1,39.6,109.1,76.3,109.1,112.9z M124.6,112.9c3.4,0,6.7,0,10.1,0c0-36.7,0-73.3,0-110c-3.4,0-6.7,0-10.1,0
			C124.6,39.6,124.6,76.3,124.6,112.9z M140,112.9c3.4,0,6.7,0,10.1,0c0-36.7,0-73.3,0-110c-3.4,0-6.7,0-10.1,0
			C140,39.6,140,76.3,140,112.9z M155.5,112.9c3.4,0,6.7,0,10.1,0c0-36.7,0-73.3,0-110c-3.4,0-6.7,0-10.1,0
			C155.5,39.6,155.5,76.3,155.5,112.9z M170.9,112.9c3.4,0,6.7,0,10.1,0c0-36.7,0-73.3,0-110c-3.4,0-6.7,0-10.1,0
			C170.9,39.6,170.9,76.3,170.9,112.9z M186.4,112.9c3.4,0,6.7,0,10.1,0c0-36.7,0-73.3,0-110c-3.4,0-6.7,0-10.1,0
			C186.4,39.6,186.4,76.3,186.4,112.9z M201.8,2.9c0,36.7,0,73.3,0,110c3.4,0,6.7,0,10.1,0c0-36.7,0-73.3,0-110
			C208.5,2.9,205.2,2.9,201.8,2.9z"/>
	</g>
</g>
</svg>
