<?xml version="1.0" encoding="utf-8"?>
<!-- Generator: Adobe Illustrator 17.1.0, SVG Export Plug-In . SVG Version: 6.00 Build 0)  -->
<!DOCTYPE svg PUBLIC "-//W3C//DTD SVG 1.1//EN" "http://www.w3.org/Graphics/SVG/1.1/DTD/svg11.dtd">
<svg version="1.1" id="图层_1" xmlns="http://www.w3.org/2000/svg" xmlns:xlink="http://www.w3.org/1999/xlink" x="0px" y="0px"
	 viewBox="0 0 210.9 116.2" style="enable-background:new 0 0 210.9 116.2;" xml:space="preserve">
<rect x="2.7" y="2.3" style="fill:#DDDEE0;stroke:#CCCCCC;stroke-miterlimit:10;" width="205.9" height="112"/>
<rect x="15.7" y="3.3" style="fill:#FFFFFF;" width="180" height="110"/>
<g>
	<g>
		<path style="fill-rule:evenodd;clip-rule:evenodd;fill:#FFEFEF;" d="M15.7,113.3c3.4,0,6.7,0,10.1,0c0-36.7,0-73.3,0-110
			c-3.4,0-6.7,0-10.1,0C15.7,39.9,15.7,76.6,15.7,113.3z M31.1,113.3c3.4,0,6.7,0,10.1,0c0-36.7,0-73.3,0-110c-3.4,0-6.7,0-10.1,0
			C31.1,39.9,31.1,76.6,31.1,113.3z M46.6,113.3c3.4,0,6.7,0,10.1,0c0-36.7,0-73.3,0-110c-3.4,0-6.7,0-10.1,0
			C46.6,39.9,46.6,76.6,46.6,113.3z M62,113.3c3.4,0,6.7,0,10.1,0c0-36.7,0-73.3,0-110c-3.4,0-6.7,0-10.1,0
			C62,39.9,62,76.6,62,113.3z M77.5,113.3c3.4,0,6.7,0,10.1,0c0-36.7,0-73.3,0-110c-3.4,0-6.7,0-10.1,0
			C77.5,39.9,77.5,76.6,77.5,113.3z M92.9,113.3c3.4,0,6.7,0,10.1,0c0-36.7,0-73.3,0-110c-3.4,0-6.7,0-10.1,0
			C92.9,39.9,92.9,76.6,92.9,113.3z M108.3,113.3c3.4,0,6.7,0,10.1,0c0-36.7,0-73.3,0-110c-3.4,0-6.7,0-10.1,0
			C108.3,39.9,108.3,76.6,108.3,113.3z M123.8,113.3c3.4,0,6.7,0,10.1,0c0-36.7,0-73.3,0-110c-3.4,0-6.7,0-10.1,0
			C123.8,39.9,123.8,76.6,123.8,113.3z M139.2,113.3c3.4,0,6.7,0,10.1,0c0-36.7,0-73.3,0-110c-3.4,0-6.7,0-10.1,0
			C139.2,39.9,139.2,76.6,139.2,113.3z M154.7,113.3c3.4,0,6.7,0,10.1,0c0-36.7,0-73.3,0-110c-3.4,0-6.7,0-10.1,0
			C154.7,39.9,154.7,76.6,154.7,113.3z M170.1,113.3c3.4,0,6.7,0,10.1,0c0-36.7,0-73.3,0-110c-3.4,0-6.7,0-10.1,0
			C170.1,39.9,170.1,76.6,170.1,113.3z M185.6,3.3c0,36.7,0,73.3,0,110c3.4,0,6.7,0,10.1,0c0-36.7,0-73.3,0-110
			C192.3,3.3,188.9,3.3,185.6,3.3z"/>
	</g>
</g>
</svg>
