<?xml version="1.0" encoding="utf-8"?>
<!-- Generator: Adobe Illustrator 17.1.0, SVG Export Plug-In . SVG Version: 6.00 Build 0)  -->
<!DOCTYPE svg PUBLIC "-//W3C//DTD SVG 1.1//EN" "http://www.w3.org/Graphics/SVG/1.1/DTD/svg11.dtd">
<svg version="1.1" id="图层_1" xmlns="http://www.w3.org/2000/svg" xmlns:xlink="http://www.w3.org/1999/xlink" x="0px" y="0px"
	 viewBox="0 0 1024 1024" enable-background="new 0 0 1024 1024" xml:space="preserve">
<polyline fill="none" stroke="#211816" stroke-width="0.25" points="64.9,381.5 64.9,370.9 81.9,370.9 81.9,381 "/>
<polyline fill="none" stroke="#211816" stroke-width="0.25" points="58.6,404.8 48,404.8 48,387.8 58.6,387.8 "/>
<g>
	<line fill="none" stroke="#211816" stroke-width="0.25" x1="64.9" y1="387.8" x2="64.9" y2="608.9"/>
	<line fill="none" stroke="#211816" stroke-width="0.25" x1="81.9" y1="387.8" x2="81.9" y2="608.9"/>
	<line fill="none" stroke="#211816" stroke-width="0.25" x1="98.9" y1="387.8" x2="98.9" y2="608.9"/>
	<line fill="none" stroke="#211816" stroke-width="0.25" x1="217.9" y1="387.8" x2="217.9" y2="608.9"/>
	<line fill="none" stroke="#211816" stroke-width="0.25" x1="200.9" y1="387.8" x2="200.9" y2="608.9"/>
	<line fill="none" stroke="#211816" stroke-width="0.25" x1="115.9" y1="387.8" x2="115.9" y2="608.9"/>
	<line fill="none" stroke="#211816" stroke-width="0.25" x1="132.9" y1="387.8" x2="132.9" y2="608.9"/>
	<line fill="none" stroke="#211816" stroke-width="0.25" x1="149.9" y1="387.8" x2="149.9" y2="608.9"/>
	<line fill="none" stroke="#211816" stroke-width="0.25" x1="166.9" y1="387.8" x2="166.9" y2="608.9"/>
	<line fill="none" stroke="#211816" stroke-width="0.25" x1="234.9" y1="387.8" x2="234.9" y2="608.9"/>
	<line fill="none" stroke="#211816" stroke-width="0.25" x1="183.9" y1="387.8" x2="183.9" y2="608.9"/>
	<line fill="none" stroke="#211816" stroke-width="0.25" x1="251.9" y1="387.8" x2="251.9" y2="608.9"/>
	<line fill="none" stroke="#211816" stroke-width="0.25" x1="269" y1="387.8" x2="269" y2="608.9"/>
	<line fill="none" stroke="#211816" stroke-width="0.25" x1="286" y1="387.8" x2="286" y2="608.9"/>
	<line fill="none" stroke="#211816" stroke-width="0.25" x1="405" y1="387.8" x2="405" y2="608.9"/>
	<line fill="none" stroke="#211816" stroke-width="0.25" x1="388" y1="387.8" x2="388" y2="608.9"/>
	<line fill="none" stroke="#211816" stroke-width="0.25" x1="303" y1="387.8" x2="303" y2="608.9"/>
	<line fill="none" stroke="#211816" stroke-width="0.25" x1="320" y1="387.8" x2="320" y2="608.9"/>
	<line fill="none" stroke="#211816" stroke-width="0.25" x1="337" y1="387.8" x2="337" y2="608.9"/>
	<line fill="none" stroke="#211816" stroke-width="0.25" x1="354" y1="387.8" x2="354" y2="608.9"/>
	<line fill="none" stroke="#211816" stroke-width="0.25" x1="422" y1="387.8" x2="422" y2="608.9"/>
	<line fill="none" stroke="#211816" stroke-width="0.25" x1="371" y1="387.8" x2="371" y2="608.9"/>
	<line fill="none" stroke="#211816" stroke-width="0.25" x1="439" y1="387.8" x2="439" y2="608.9"/>
	<line fill="none" stroke="#211816" stroke-width="0.25" x1="456" y1="387.8" x2="456" y2="608.9"/>
	<line fill="none" stroke="#211816" stroke-width="0.25" x1="473.1" y1="387.8" x2="473.1" y2="608.9"/>
	<line fill="none" stroke="#211816" stroke-width="0.25" x1="592.1" y1="387.8" x2="592.1" y2="608.9"/>
	<line fill="none" stroke="#211816" stroke-width="0.25" x1="575.1" y1="387.8" x2="575.1" y2="608.9"/>
	<line fill="none" stroke="#211816" stroke-width="0.25" x1="490.1" y1="387.8" x2="490.1" y2="608.9"/>
	<line fill="none" stroke="#211816" stroke-width="0.25" x1="507.1" y1="387.8" x2="507.1" y2="608.9"/>
	<line fill="none" stroke="#211816" stroke-width="0.25" x1="524.1" y1="387.8" x2="524.1" y2="608.9"/>
	<line fill="none" stroke="#211816" stroke-width="0.25" x1="541.1" y1="387.8" x2="541.1" y2="608.9"/>
	<line fill="none" stroke="#211816" stroke-width="0.25" x1="609.1" y1="387.8" x2="609.1" y2="608.9"/>
	<line fill="none" stroke="#211816" stroke-width="0.25" x1="558.1" y1="387.8" x2="558.1" y2="608.9"/>
	<line fill="none" stroke="#211816" stroke-width="0.25" x1="694.2" y1="387.8" x2="694.2" y2="608.9"/>
	<line fill="none" stroke="#211816" stroke-width="0.25" x1="677.1" y1="387.8" x2="677.1" y2="608.9"/>
	<line fill="none" stroke="#211816" stroke-width="0.25" x1="626.1" y1="387.8" x2="626.1" y2="608.9"/>
	<line fill="none" stroke="#211816" stroke-width="0.25" x1="643.1" y1="387.8" x2="643.1" y2="608.9"/>
	<line fill="none" stroke="#211816" stroke-width="0.25" x1="711.2" y1="387.8" x2="711.2" y2="608.9"/>
	<line fill="none" stroke="#211816" stroke-width="0.25" x1="660.1" y1="387.8" x2="660.1" y2="608.9"/>
	<line fill="none" stroke="#211816" stroke-width="0.25" x1="728.2" y1="387.8" x2="728.2" y2="608.9"/>
	<line fill="none" stroke="#211816" stroke-width="0.25" x1="745.2" y1="387.8" x2="745.2" y2="608.9"/>
</g>
<g>
	<line fill="none" stroke="#211816" stroke-width="0.25" x1="64.9" y1="540.9" x2="745.2" y2="540.9"/>
	<line fill="none" stroke="#211816" stroke-width="0.25" x1="64.9" y1="557.9" x2="745.2" y2="557.9"/>
	<line fill="none" stroke="#211816" stroke-width="0.25" x1="64.9" y1="608.9" x2="745.2" y2="608.9"/>
	<line fill="none" stroke="#211816" stroke-width="0.25" x1="64.9" y1="591.9" x2="745.2" y2="591.9"/>
	<line fill="none" stroke="#211816" stroke-width="0.25" x1="64.9" y1="523.8" x2="745.2" y2="523.8"/>
	<line fill="none" stroke="#211816" stroke-width="0.25" x1="64.9" y1="574.9" x2="745.2" y2="574.9"/>
	<line fill="none" stroke="#211816" stroke-width="0.25" x1="64.9" y1="438.8" x2="745.2" y2="438.8"/>
	<line fill="none" stroke="#211816" stroke-width="0.25" x1="64.9" y1="455.8" x2="745.2" y2="455.8"/>
	<line fill="none" stroke="#211816" stroke-width="0.25" x1="64.9" y1="506.8" x2="745.2" y2="506.8"/>
	<line fill="none" stroke="#211816" stroke-width="0.25" x1="64.9" y1="489.8" x2="745.2" y2="489.8"/>
	<line fill="none" stroke="#211816" stroke-width="0.25" x1="64.9" y1="421.8" x2="745.2" y2="421.8"/>
	<line fill="none" stroke="#211816" stroke-width="0.25" x1="64.9" y1="472.8" x2="745.2" y2="472.8"/>
	<line fill="none" stroke="#211816" stroke-width="0.25" x1="64.9" y1="404.8" x2="745.2" y2="404.8"/>
	<line fill="none" stroke="#211816" stroke-width="0.25" x1="64.9" y1="387.8" x2="745.2" y2="387.8"/>
</g>
<g>
	<path d="M39.6,325.5c0.6-0.4,1.4-0.6,2.2-0.6c1.6,0,2.3,0.8,2.3,2.5v4.2h-1.1v-1h0c-0.4,0.8-1.1,1.2-2,1.2c-0.6,0-1.1-0.2-1.5-0.5
		s-0.6-0.8-0.6-1.4c0-1.2,0.7-1.9,2.2-2.1l1.9-0.3c0-1.1-0.4-1.6-1.3-1.6c-0.8,0-1.5,0.3-2.1,0.8V325.5z M41.5,328.5
		c-0.5,0.1-0.9,0.2-1.1,0.4s-0.3,0.5-0.3,0.8c0,0.3,0.1,0.6,0.3,0.8s0.5,0.3,0.9,0.3c0.5,0,0.9-0.2,1.2-0.5s0.5-0.8,0.5-1.3v-0.6
		L41.5,328.5z"/>
	<path d="M52.5,326.9h-6V326h6V326.9z M52.5,329.6h-6v-0.9h6V329.6z"/>
	<path d="M60.6,329.2h-1.2v2.4h-1.1v-2.4h-4.2v-0.7l4-6h1.3v5.8h1.2V329.2z M58.3,328.3v-3.8c0-0.3,0-0.6,0-0.9h0
		c-0.1,0.1-0.2,0.4-0.3,0.7l-2.7,4H58.3z"/>
	<path d="M71.4,331.6h-1.1v-3.7c0-0.7-0.1-1.2-0.3-1.5s-0.6-0.5-1.1-0.5c-0.4,0-0.8,0.2-1.1,0.6s-0.5,0.9-0.5,1.4v3.7h-1.1v-3.8
		c0-1.2-0.5-1.8-1.4-1.8c-0.4,0-0.8,0.2-1.1,0.6s-0.4,0.9-0.4,1.4v3.7H62v-6.5h1.1v1h0c0.5-0.8,1.1-1.2,2-1.2c0.4,0,0.8,0.1,1.1,0.4
		s0.6,0.6,0.7,1c0.5-0.9,1.2-1.3,2.2-1.3c1.4,0,2.1,0.9,2.1,2.6V331.6z"/>
	<path d="M82.6,331.6h-1.1v-3.7c0-0.7-0.1-1.2-0.3-1.5s-0.6-0.5-1.1-0.5c-0.4,0-0.8,0.2-1.1,0.6s-0.5,0.9-0.5,1.4v3.7h-1.1v-3.8
		c0-1.2-0.5-1.8-1.4-1.8c-0.4,0-0.8,0.2-1.1,0.6s-0.4,0.9-0.4,1.4v3.7h-1.1v-6.5h1.1v1h0c0.5-0.8,1.1-1.2,2-1.2
		c0.4,0,0.8,0.1,1.1,0.4s0.6,0.6,0.7,1c0.5-0.9,1.2-1.3,2.2-1.3c1.4,0,2.1,0.9,2.1,2.6V331.6z"/>
</g>
<g>
	<line fill="none" stroke="#D8413C" stroke-width="0.25" x1="115.9" y1="438.8" x2="115.9" y2="557.8"/>
	<line fill="none" stroke="#D8413C" stroke-width="0.25" x1="124.4" y1="438.8" x2="124.4" y2="557.8"/>
	<line fill="none" stroke="#D8413C" stroke-width="0.25" x1="132.9" y1="438.8" x2="132.9" y2="557.8"/>
	<line fill="none" stroke="#D8413C" stroke-width="0.25" x1="141.4" y1="438.8" x2="141.4" y2="557.8"/>
	<line fill="none" stroke="#D8413C" stroke-width="0.25" x1="149.9" y1="438.8" x2="149.9" y2="557.8"/>
	<line fill="none" stroke="#D8413C" stroke-width="0.25" x1="158.4" y1="438.8" x2="158.4" y2="557.8"/>
	<line fill="none" stroke="#D8413C" stroke-width="0.25" x1="166.9" y1="438.8" x2="166.9" y2="557.8"/>
	<line fill="none" stroke="#D8413C" stroke-width="0.25" x1="175.4" y1="438.8" x2="175.4" y2="557.8"/>
	<line fill="none" stroke="#D8413C" stroke-width="0.25" x1="183.9" y1="438.8" x2="183.9" y2="557.8"/>
	<line fill="none" stroke="#D8413C" stroke-width="0.25" x1="192.4" y1="438.8" x2="192.4" y2="557.8"/>
	<line fill="none" stroke="#D8413C" stroke-width="0.25" x1="200.9" y1="438.8" x2="200.9" y2="557.8"/>
	<line fill="none" stroke="#D8413C" stroke-width="0.25" x1="209.4" y1="438.8" x2="209.4" y2="557.8"/>
	<line fill="none" stroke="#D8413C" stroke-width="0.25" x1="217.9" y1="438.8" x2="217.9" y2="557.8"/>
	<line fill="none" stroke="#D8413C" stroke-width="0.25" x1="226.4" y1="438.8" x2="226.4" y2="557.8"/>
	<line fill="none" stroke="#D8413C" stroke-width="0.25" x1="234.9" y1="438.8" x2="234.9" y2="557.8"/>
	<line fill="none" stroke="#D8413C" stroke-width="0.25" x1="243.4" y1="438.8" x2="243.4" y2="557.8"/>
	<line fill="none" stroke="#D8413C" stroke-width="0.25" x1="251.9" y1="438.8" x2="251.9" y2="557.8"/>
	<line fill="none" stroke="#D8413C" stroke-width="0.25" x1="260.5" y1="438.8" x2="260.5" y2="557.8"/>
	<line fill="none" stroke="#D8413C" stroke-width="0.25" x1="269" y1="438.8" x2="269" y2="557.8"/>
	<line fill="none" stroke="#D8413C" stroke-width="0.25" x1="277.5" y1="438.8" x2="277.5" y2="557.8"/>
	<line fill="none" stroke="#D8413C" stroke-width="0.25" x1="286" y1="438.8" x2="286" y2="557.8"/>
	<line fill="none" stroke="#D8413C" stroke-width="0.25" x1="294.5" y1="438.8" x2="294.5" y2="557.8"/>
	<line fill="none" stroke="#D8413C" stroke-width="0.25" x1="303" y1="438.8" x2="303" y2="557.8"/>
	<line fill="none" stroke="#D8413C" stroke-width="0.25" x1="311.5" y1="438.8" x2="311.5" y2="557.8"/>
	<line fill="none" stroke="#D8413C" stroke-width="0.25" x1="320" y1="438.8" x2="320" y2="557.8"/>
	<line fill="none" stroke="#D8413C" stroke-width="0.25" x1="328.5" y1="438.8" x2="328.5" y2="557.8"/>
	<line fill="none" stroke="#D8413C" stroke-width="0.25" x1="337" y1="438.8" x2="337" y2="557.8"/>
	<line fill="none" stroke="#D8413C" stroke-width="0.25" x1="345.5" y1="438.8" x2="345.5" y2="557.8"/>
	<line fill="none" stroke="#D8413C" stroke-width="0.25" x1="354" y1="438.8" x2="354" y2="557.8"/>
	<line fill="none" stroke="#D8413C" stroke-width="0.25" x1="362.5" y1="438.8" x2="362.5" y2="557.8"/>
	<line fill="none" stroke="#D8413C" stroke-width="0.25" x1="371" y1="438.8" x2="371" y2="557.8"/>
	<line fill="none" stroke="#D8413C" stroke-width="0.25" x1="379.5" y1="438.8" x2="379.5" y2="557.8"/>
	<line fill="none" stroke="#D8413C" stroke-width="0.25" x1="388" y1="438.8" x2="388" y2="557.8"/>
	<line fill="none" stroke="#D8413C" stroke-width="0.25" x1="396.5" y1="438.8" x2="396.5" y2="557.8"/>
	<line fill="none" stroke="#D8413C" stroke-width="0.25" x1="405" y1="438.8" x2="405" y2="557.8"/>
	<line fill="none" stroke="#D8413C" stroke-width="0.25" x1="413.5" y1="438.8" x2="413.5" y2="557.8"/>
	<line fill="none" stroke="#D8413C" stroke-width="0.25" x1="422" y1="438.8" x2="422" y2="557.8"/>
	<line fill="none" stroke="#D8413C" stroke-width="0.25" x1="430.5" y1="438.8" x2="430.5" y2="557.8"/>
	<line fill="none" stroke="#D8413C" stroke-width="0.25" x1="439" y1="438.8" x2="439" y2="557.8"/>
	<line fill="none" stroke="#D8413C" stroke-width="0.25" x1="447.5" y1="438.8" x2="447.5" y2="557.8"/>
	<line fill="none" stroke="#D8413C" stroke-width="0.25" x1="456" y1="438.8" x2="456" y2="557.8"/>
	<line fill="none" stroke="#D8413C" stroke-width="0.25" x1="464.5" y1="438.8" x2="464.5" y2="557.8"/>
	<line fill="none" stroke="#D8413C" stroke-width="0.25" x1="473.1" y1="438.8" x2="473.1" y2="557.8"/>
	<line fill="none" stroke="#D8413C" stroke-width="0.25" x1="481.6" y1="438.8" x2="481.6" y2="557.8"/>
	<line fill="none" stroke="#D8413C" stroke-width="0.25" x1="490.1" y1="438.8" x2="490.1" y2="557.8"/>
	<line fill="none" stroke="#D8413C" stroke-width="0.25" x1="498.6" y1="438.8" x2="498.6" y2="557.8"/>
	<line fill="none" stroke="#D8413C" stroke-width="0.25" x1="507.1" y1="438.8" x2="507.1" y2="557.8"/>
	<line fill="none" stroke="#D8413C" stroke-width="0.25" x1="515.6" y1="438.8" x2="515.6" y2="557.8"/>
	<line fill="none" stroke="#D8413C" stroke-width="0.25" x1="524.1" y1="438.8" x2="524.1" y2="557.8"/>
	<line fill="none" stroke="#D8413C" stroke-width="0.25" x1="532.6" y1="438.8" x2="532.6" y2="557.8"/>
	<line fill="none" stroke="#D8413C" stroke-width="0.25" x1="541.1" y1="438.8" x2="541.1" y2="557.8"/>
	<line fill="none" stroke="#D8413C" stroke-width="0.25" x1="549.6" y1="438.8" x2="549.6" y2="557.8"/>
	<line fill="none" stroke="#D8413C" stroke-width="0.25" x1="558.1" y1="438.8" x2="558.1" y2="557.8"/>
	<line fill="none" stroke="#D8413C" stroke-width="0.25" x1="566.6" y1="438.8" x2="566.6" y2="557.8"/>
	<line fill="none" stroke="#D8413C" stroke-width="0.25" x1="575.1" y1="438.8" x2="575.1" y2="557.8"/>
	<line fill="none" stroke="#D8413C" stroke-width="0.25" x1="583.6" y1="438.8" x2="583.6" y2="557.8"/>
	<line fill="none" stroke="#D8413C" stroke-width="0.25" x1="592.1" y1="438.8" x2="592.1" y2="557.8"/>
	<line fill="none" stroke="#D8413C" stroke-width="0.25" x1="600.6" y1="438.8" x2="600.6" y2="557.8"/>
	<line fill="none" stroke="#D8413C" stroke-width="0.25" x1="609.1" y1="438.8" x2="609.1" y2="557.8"/>
	<line fill="none" stroke="#D8413C" stroke-width="0.25" x1="617.6" y1="438.8" x2="617.6" y2="557.8"/>
	<line fill="none" stroke="#D8413C" stroke-width="0.25" x1="626.1" y1="438.8" x2="626.1" y2="557.8"/>
	<line fill="none" stroke="#D8413C" stroke-width="0.25" x1="634.6" y1="438.8" x2="634.6" y2="557.8"/>
	<line fill="none" stroke="#D8413C" stroke-width="0.25" x1="643.1" y1="438.8" x2="643.1" y2="557.8"/>
	<line fill="none" stroke="#D8413C" stroke-width="0.25" x1="651.6" y1="438.8" x2="651.6" y2="557.8"/>
	<line fill="none" stroke="#D8413C" stroke-width="0.25" x1="660.1" y1="438.8" x2="660.1" y2="557.8"/>
	<line fill="none" stroke="#D8413C" stroke-width="0.25" x1="668.6" y1="438.8" x2="668.6" y2="557.8"/>
	<line fill="none" stroke="#D8413C" stroke-width="0.25" x1="677.1" y1="438.8" x2="677.1" y2="557.8"/>
	<line fill="none" stroke="#D8413C" stroke-width="0.25" x1="685.7" y1="438.8" x2="685.7" y2="557.8"/>
	<line fill="none" stroke="#D8413C" stroke-width="0.25" x1="694.2" y1="438.8" x2="694.2" y2="557.8"/>
</g>
<g>
	<line fill="none" stroke="#D8413C" stroke-width="0.25" x1="115.9" y1="557.9" x2="694.2" y2="557.9"/>
	<line fill="none" stroke="#D8413C" stroke-width="0.25" x1="115.9" y1="549.4" x2="694.2" y2="549.4"/>
	<line fill="none" stroke="#D8413C" stroke-width="0.25" x1="115.9" y1="540.9" x2="694.2" y2="540.9"/>
	<line fill="none" stroke="#D8413C" stroke-width="0.25" x1="115.9" y1="532.3" x2="694.2" y2="532.3"/>
	<line fill="none" stroke="#D8413C" stroke-width="0.25" x1="115.9" y1="523.8" x2="694.2" y2="523.8"/>
	<line fill="none" stroke="#D8413C" stroke-width="0.25" x1="115.9" y1="515.3" x2="694.2" y2="515.3"/>
	<line fill="none" stroke="#D8413C" stroke-width="0.25" x1="115.9" y1="506.8" x2="694.2" y2="506.8"/>
	<line fill="none" stroke="#D8413C" stroke-width="0.25" x1="115.9" y1="498.3" x2="694.2" y2="498.3"/>
	<line fill="none" stroke="#D8413C" stroke-width="0.25" x1="115.9" y1="489.8" x2="694.2" y2="489.8"/>
	<line fill="none" stroke="#D8413C" stroke-width="0.25" x1="115.9" y1="481.3" x2="694.2" y2="481.3"/>
	<line fill="none" stroke="#D8413C" stroke-width="0.25" x1="115.9" y1="472.8" x2="694.2" y2="472.8"/>
	<line fill="none" stroke="#D8413C" stroke-width="0.25" x1="115.9" y1="464.3" x2="694.2" y2="464.3"/>
	<line fill="none" stroke="#D8413C" stroke-width="0.25" x1="115.9" y1="455.8" x2="694.2" y2="455.8"/>
	<line fill="none" stroke="#D8413C" stroke-width="0.25" x1="115.9" y1="447.3" x2="694.2" y2="447.3"/>
	<line fill="none" stroke="#D8413C" stroke-width="0.25" x1="115.9" y1="438.8" x2="694.2" y2="438.8"/>
</g>
<g>
	<g id="形状_2_copy_3_副本_5_14_">
		<g>
			<path fill-rule="evenodd" clip-rule="evenodd" fill="#FF6600" d="M171,452.4c19.6,0,39.2,0,58.9,0c0,29.3,0,59.6,0,86.9
				c0,1.7-2.2,4.3-4.6,4.4c-3.1,0-4.4,0-8.3,0v14.2c4.5,0,8.4,0,12.8,0c11.3,0,18.9-5.5,18.9-14.9c0-22.5,0-67.4,0-90.5h6.8v-13.6
				H171V452.4z M520.6,539.9c6.3,0,3.9,0,10.2,0c3.6,0,8.7-3.1,8.7-8.8c0-14.9,0-26.6,0-41.6c-2.8,0-5.8,0-8.3,0c0-11.4,0-35,0-43.3
				c0-3.5-3.4-7.3-7.8-7.3h-61.6v13.6h47.5c0,12.3,0,24.8,0,37.1c-11.3,0-13,0-22.9,0c-1.3,0-2.7-1.4-2.7-2.5c0-6.2,0-16.2,0-24.4
				c0-1.9-1.9-4.1-4.9-4.1h-14v32.8c0,6.4,5.5,11.6,11.6,11.6c0,0,24.2,0,44.3,0v12.2h-49c-5.4,0-13.8,5.1-13.8,13.7
				c17,0,44.3-0.4,62.7-0.4C520.6,532,520.6,535.7,520.6,539.9z M220.9,519.3c0-15.5,0-37.4,0-58.7h-49v74.6c14.3,0.1,32.5,0,32.5,0
				C216.7,535.3,220.9,528.3,220.9,519.3z M200.1,521.6c-3.5,0-7.4,0-12.4,0V475c5.3,0,11.4,0,16.7,0c0,14.1,0,29.9,0,42.2
				C204.3,519.7,202.8,521.6,200.1,521.6z M115.9,442.2c0,26.8,0,61.8,0,115.6H134c0-33.7,0-70.5,0-105.4c4.3,0,9.3,0,13.6,0
				c0,20.2,0,38.4,0,57.2c0,7.8-6.8,10.5-6.8,10.6v15c12.8,0,24.2-13.1,24.2-25.1c0-21.7,0-49.4,0-71.2c-16.4,0-28.9,0-45.2,0
				C115.8,438.8,115.9,442.2,115.9,442.2z M680.6,489.5c0-11.4,0-35,0-43.4c0-3.5-3.4-7.3-7.8-7.3h-61.6v13.6c15.8,0,31.7,0,47.5,0
				v37.1c-11.3,0-13.1,0-22.9,0c-1.3,0-2.7-1.4-2.7-2.5c0-6.2,0-16.2,0-24.4c0-1.9-1.9-4-4.9-4c-3.9,0-9.5,0-14,0v32.7
				c0,6.4,5.5,11.6,11.6,11.6c0,0,24.2,0,44.3,0v12.2h-48.4c-5.4,0-14.1,4.8-14.1,13.4c17,0,43.9,0,62.4,0v12.6
				c0,2.1-1.7,3.1-4.1,3.1h-7.2c0,6.1,0,9.5,0,13.5h11c3.3,0,2.6,0.1,6,0.1c9.2,0,13.2-6.6,13.1-11.8c0-17.1,0.1-39.5,0.1-56.6
				C686,489.5,683,489.5,680.6,489.5z M593.1,535.2c6.6-7.3,10.2-15.8,11-32.2c0-17.8,0-35,0-52.5c0-1.5-1.9-3.4-3.7-3.4
				c-6.9,0-15.7,0-23.2,0v-8.2h-18.1c0,2.8,0,5.5,0,8.2c-1.9,0-4.2,0-6.1,0v13.6h6.1V503c0,16.4,5.4,24.6,12.1,32.2
				c-8,5.5-16.1,9-27.2,9c-1.5,0-3.1,0-4.7,0c-17,0-37.6,0.1-55.7,0.1c-17,0-33.4-3.1-39.6-10.6c5.8-7.9,8.9-14.3,10.7-30.7
				c0.1-16.4,0.1-30.4,0-51.4c-0.3-2.3-2.3-4.3-4.3-4.5c-7.1,0-14.3,0-23.2,0v-8.2c-7.4,0-10.2,0-17.7,0v8.2c-2,0-3.5,0-6,0v13.6
				c2.7,0,4.1,0,6,0c0,14,0.1,29.5,0.1,42.3c1.4,16.4,6.6,21.8,12.9,31.4c-9.2,6.4-20.4,9.2-33.4,9.9c-15.6,0-29.5,0-49.1,0
				c0-3.3,0-8.2,0-10.6h49.1v-14.3h-49.1c0-3.4,0-7.1,0-10.5c14.1,0,32.7,0,37,0c0,0,11.9,0,12.1-13.2c0.2-13.8,0-38.5,0-56.9
				c-38.8,0-78.2,0-117.1,0c-1.9,0-3.7,2-3.7,3.5c0,2.8,0,46.2,0,66.6c16.4,0,32.8,0,49.1,0v10.5h-49.1c0,4.4,0,9.6,0,14.3h49
				c0,3.5,0,7.1,0,10.6H260c0,3.9,0,9.1,0,13.5c43.1,0,96.4,0.2,138.2,0c11.3,0,25.3-5.9,35.4-11.7c12.7,9.8,26.7,11.8,49.9,11.7
				c7.1,0,14.9,0,23.5,0c12.1,0,22.9,0,32.4,0c19.5,0,31.8-4.1,43.8-11.2c11,6.6,21.5,10.7,38.6,11.2v0h26v-13.5h-26
				C610.2,543.2,600.6,541.4,593.1,535.2z M317.3,495.3h-30.2V481h30.2V495.3z M317.4,466.7h-30.2v-14.3c10.1,0,20.1,0,30.2,0V466.7
				z M340,452.4h30.2v14.3H340V452.4z M340,481c10.1,0,20.1,0,30.2,0c0,5.7,0,10.2,0,14.3H340C340,491.5,340,485.6,340,481z
				 M437.7,503c-0.7,9.4-2.1,11.7-4.4,17.9c-2.9-5.8-5.2-8.5-6-17.9c0-12.3,0-29.4,0-42.3h10.4V503z M587.2,503
				c-0.4,8.8-2.4,13-4.8,17.9c-2.9-4.7-5.3-9.6-5.3-17.9c0-13.1,0-28.9,0-42.4h10.1C587.2,474.2,587.2,489.8,587.2,503z"/>
		</g>
	</g>
</g>
<g>
	<g id="形状_2_copy_3_副本_5_8_">
		<g>
			<path fill-rule="evenodd" clip-rule="evenodd" fill="#FF6600" d="M44.9,741.1c1.7,0,3.5,0,5.2,0c0,2.6,0,5.3,0,7.7
				c0,0.2-0.2,0.4-0.4,0.4c-0.3,0-0.4,0-0.7,0v1.3c0.4,0,0.7,0,1.1,0c1,0,1.7-0.5,1.7-1.3c0-2,0-6,0-8.1h0.6v-1.2h-7.5V741.1z
				 M71.7,746.7c-0.5,0-1.2,0.5-1.2,1.2c1.5,0,3.9,0,5.6,0c0,0.3,0,0.6,0,1c0.6,0,0.3,0,0.9,0c0.3,0,0.8-0.3,0.8-0.8
				c0-1.3,0-2.4,0-3.7c-0.3,0-0.5,0-0.7,0c0-1,0-3.1,0-3.9c0-0.3-0.3-0.6-0.7-0.6h-5.5v1.2H75c0,1.1,0,2.2,0,3.3c-1,0-1.2,0-2,0
				c-0.1,0-0.2-0.1-0.2-0.2c0-0.6,0-1.4,0-2.2c0-0.2-0.2-0.4-0.4-0.4h-1.2v2.9c0,0.6,0.5,1,1,1c0,0,2.2,0,3.9,0v1.1H71.7z
				 M49.3,747.1c0-1.4,0-3.3,0-5.2H45v6.6c1.3,0,2.9,0,2.9,0C49,748.5,49.3,747.9,49.3,747.1z M47.5,747.3c-0.3,0-0.7,0-1.1,0v-4.2
				c0.5,0,1,0,1.5,0c0,1.3,0,2.7,0,3.8C47.9,747.1,47.7,747.3,47.5,747.3z M40,740.2c0,2.4,0,5.5,0,10.3h1.6c0-3,0-6.3,0-9.4
				c0.4,0,0.8,0,1.2,0c0,1.8,0,3.4,0,5.1c0,0.7-0.6,0.9-0.6,0.9v1.3c1.1,0,2.2-1.2,2.2-2.2c0-1.9,0-4.4,0-6.3c-1.5,0-2.6,0-4,0
				C40,739.9,40,740.2,40,740.2z M90.3,744.4c0-1,0-3.1,0-3.9c0-0.3-0.3-0.6-0.7-0.6h-5.5v1.2c1.4,0,2.8,0,4.2,0v3.3c-1,0-1.2,0-2,0
				c-0.1,0-0.2-0.1-0.2-0.2c0-0.6,0-1.4,0-2.2c0-0.2-0.2-0.4-0.4-0.4c-0.3,0-0.8,0-1.3,0v2.9c0,0.6,0.5,1,1,1c0,0,2.2,0,3.9,0v1.1
				H85c-0.5,0-1.3,0.4-1.3,1.2c1.5,0,3.9,0,5.6,0v1.1c0,0.2-0.1,0.3-0.4,0.3h-0.6c0,0.5,0,0.8,0,1.2h1c0.3,0,0.2,0,0.5,0
				c0.8,0,1.2-0.6,1.2-1.1c0-1.5,0-3.5,0-5C90.8,744.4,90.5,744.4,90.3,744.4z M82.5,748.5c0.6-0.6,0.9-1.4,1-2.9c0-1.6,0-3.1,0-4.7
				c0-0.1-0.2-0.3-0.3-0.3c-0.6,0-1.4,0-2.1,0v-0.7h-1.6c0,0.2,0,0.5,0,0.7c-0.2,0-0.4,0-0.5,0v1.2h0.5v3.8c0,1.5,0.5,2.2,1.1,2.9
				c-0.7,0.5-1.4,0.8-2.4,0.8c-0.1,0-0.3,0-0.4,0c-1.5,0-3.3,0-5,0c-1.5,0-3-0.3-3.5-0.9c0.5-0.7,0.8-1.3,1-2.7c0-1.5,0-2.7,0-4.6
				c0-0.2-0.2-0.4-0.4-0.4c-0.6,0-1.3,0-2.1,0v-0.7c-0.7,0-0.9,0-1.6,0v0.7c-0.2,0-0.3,0-0.5,0v1.2c0.2,0,0.4,0,0.5,0
				c0,1.2,0,2.6,0,3.8c0.1,1.5,0.6,1.9,1.2,2.8c-0.8,0.6-1.8,0.8-3,0.9c-1.4,0-2.6,0-4.4,0c0-0.3,0-0.7,0-0.9h4.4v-1.3H60
				c0-0.3,0-0.6,0-0.9c1.3,0,2.9,0,3.3,0c0,0,1.1,0,1.1-1.2c0-1.2,0-3.4,0-5.1c-3.5,0-7,0-10.4,0c-0.2,0-0.3,0.2-0.3,0.3
				c0,0.3,0,4.1,0,5.9c1.5,0,2.9,0,4.4,0v0.9h-4.4c0,0.4,0,0.9,0,1.3h4.4c0,0.3,0,0.6,0,0.9h-5.1c0,0.4,0,0.8,0,1.2
				c3.8,0,8.6,0,12.3,0c1,0,2.3-0.5,3.1-1c1.1,0.9,2.4,1,4.4,1c0.6,0,1.3,0,2.1,0c1.1,0,2,0,2.9,0c1.7,0,2.8-0.4,3.9-1
				c1,0.6,1.9,1,3.4,1v0h2.3v-1.2H85C84,749.2,83.2,749.1,82.5,748.5z M57.9,745h-2.7v-1.3h2.7V745z M57.9,742.4h-2.7v-1.3
				c0.9,0,1.8,0,2.7,0V742.4z M60,741.1h2.7v1.3H60V741.1z M60,743.7c0.9,0,1.8,0,2.7,0c0,0.5,0,0.9,0,1.3H60
				C60,744.6,60,744.1,60,743.7z M68.7,745.7c-0.1,0.8-0.2,1-0.4,1.6c-0.3-0.5-0.5-0.8-0.5-1.6c0-1.1,0-2.6,0-3.8h0.9V745.7z
				 M82,745.7c0,0.8-0.2,1.2-0.4,1.6c-0.3-0.4-0.5-0.9-0.5-1.6c0-1.2,0-2.6,0-3.8H82C82,743.1,82,744.5,82,745.7z"/>
		</g>
	</g>
</g>
<g>
	<path d="M71.1,361.7c0.6-0.4,1.4-0.6,2.2-0.6c1.6,0,2.3,0.8,2.3,2.5v4.2h-1.1v-1h0c-0.4,0.8-1.1,1.2-2,1.2c-0.6,0-1.1-0.2-1.5-0.5
		s-0.6-0.8-0.6-1.4c0-1.2,0.7-1.9,2.2-2.1l1.9-0.3c0-1.1-0.4-1.6-1.3-1.6c-0.8,0-1.5,0.3-2.1,0.8V361.7z M73,364.7
		c-0.5,0.1-0.9,0.2-1.1,0.4s-0.3,0.5-0.3,0.8c0,0.3,0.1,0.6,0.3,0.8s0.5,0.3,0.9,0.3c0.5,0,0.9-0.2,1.2-0.5s0.5-0.8,0.5-1.3v-0.6
		L73,364.7z"/>
</g>
<g>
	<path d="M386.2,641.1c0.6,0.5,1.3,0.7,2.1,0.7c0.6,0,1.1-0.2,1.5-0.5s0.5-0.7,0.5-1.2c0-1.1-0.8-1.7-2.5-1.7h-0.8v-0.9h0.7
		c1.5,0,2.2-0.5,2.2-1.6c0-1-0.6-1.5-1.7-1.5c-0.6,0-1.2,0.2-1.8,0.6v-1.1c0.6-0.3,1.3-0.5,2.1-0.5c0.8,0,1.4,0.2,1.9,0.6
		s0.7,0.9,0.7,1.6c0,1.2-0.6,2-1.8,2.3v0c0.7,0.1,1.2,0.3,1.6,0.7s0.6,0.9,0.6,1.5c0,0.8-0.3,1.5-0.9,2s-1.4,0.8-2.3,0.8
		c-0.9,0-1.6-0.2-2.1-0.5V641.1z"/>
	<path d="M393.2,641.1c0.6,0.5,1.3,0.7,2.1,0.7c0.6,0,1.1-0.2,1.5-0.5s0.5-0.7,0.5-1.2c0-1.1-0.8-1.7-2.5-1.7h-0.8v-0.9h0.7
		c1.5,0,2.2-0.5,2.2-1.6c0-1-0.6-1.5-1.7-1.5c-0.6,0-1.2,0.2-1.8,0.6v-1.1c0.6-0.3,1.3-0.5,2.1-0.5c0.8,0,1.4,0.2,1.9,0.6
		s0.7,0.9,0.7,1.6c0,1.2-0.6,2-1.8,2.3v0c0.7,0.1,1.2,0.3,1.6,0.7s0.6,0.9,0.6,1.5c0,0.8-0.3,1.5-0.9,2s-1.4,0.8-2.3,0.8
		c-0.9,0-1.6-0.2-2.1-0.5V641.1z"/>
	<path d="M400.1,642c0-0.2,0.1-0.4,0.2-0.5s0.3-0.2,0.5-0.2c0.2,0,0.4,0.1,0.5,0.2s0.2,0.3,0.2,0.5c0,0.2-0.1,0.4-0.2,0.5
		s-0.3,0.2-0.6,0.2c-0.2,0-0.4-0.1-0.5-0.2S400.1,642.2,400.1,642z"/>
	<path d="M408.3,634.7c-0.5-0.2-1-0.4-1.5-0.4c-0.8,0-1.4,0.3-1.9,1s-0.7,1.6-0.7,2.8h0c0.4-0.8,1.1-1.2,2.1-1.2
		c0.8,0,1.4,0.3,1.9,0.8s0.7,1.2,0.7,2c0,0.9-0.3,1.6-0.8,2.2s-1.2,0.9-2.1,0.9c-0.9,0-1.6-0.4-2.2-1.1s-0.8-1.7-0.8-3.1
		c0-1.6,0.3-2.9,1-3.8s1.6-1.4,2.7-1.4c0.6,0,1.2,0.1,1.5,0.3V634.7z M404.2,639.6c0,0.6,0.2,1.1,0.5,1.5s0.7,0.6,1.3,0.6
		c0.5,0,0.9-0.2,1.2-0.6s0.5-0.8,0.5-1.4c0-0.6-0.1-1.1-0.4-1.5s-0.7-0.5-1.3-0.5c-0.5,0-0.9,0.2-1.3,0.5S404.2,639.1,404.2,639.6z"
		/>
	<path d="M415.8,633.9l-3.6,8.7H411l3.4-8.1h-4.5v-1h5.9V633.9z"/>
	<path d="M417.5,636.6c0.6-0.4,1.4-0.6,2.2-0.6c1.6,0,2.3,0.8,2.3,2.5v4.2H421v-1h0c-0.4,0.8-1.1,1.2-2,1.2c-0.6,0-1.1-0.2-1.5-0.5
		s-0.6-0.8-0.6-1.4c0-1.2,0.7-1.9,2.2-2.1l1.9-0.3c0-1.1-0.4-1.6-1.3-1.6c-0.8,0-1.5,0.3-2.1,0.8V636.6z M419.5,639.5
		c-0.5,0.1-0.9,0.2-1.1,0.4s-0.3,0.5-0.3,0.8c0,0.3,0.1,0.6,0.3,0.8s0.5,0.3,0.9,0.3c0.5,0,0.9-0.2,1.2-0.5s0.5-0.8,0.5-1.3v-0.6
		L419.5,639.5z"/>
</g>
<g>
	<path d="M39.6,393.9c0.6-0.4,1.4-0.6,2.2-0.6c1.6,0,2.3,0.8,2.3,2.5v4.2h-1.1v-1h0c-0.4,0.8-1.1,1.2-2,1.2c-0.6,0-1.1-0.2-1.5-0.5
		s-0.6-0.8-0.6-1.4c0-1.2,0.7-1.9,2.2-2.1l1.9-0.3c0-1.1-0.4-1.6-1.3-1.6c-0.8,0-1.5,0.3-2.1,0.8V393.9z M41.5,396.9
		c-0.5,0.1-0.9,0.2-1.1,0.4s-0.3,0.5-0.3,0.8c0,0.3,0.1,0.6,0.3,0.8s0.5,0.3,0.9,0.3c0.5,0,0.9-0.2,1.2-0.5s0.5-0.8,0.5-1.3v-0.6
		L41.5,396.9z"/>
</g>
<g>
	<line fill="none" stroke="#000000" stroke-width="0.25" x1="91" y1="728.8" x2="40" y2="728.8"/>
	<line fill="none" stroke="#000000" stroke-width="0.25" x1="40" y1="735" x2="40" y2="728.8"/>
	<g>
		<line fill="none" stroke="#000000" stroke-width="0.25" x1="91" y1="735" x2="91" y2="728.8"/>
	</g>
</g>
<line fill-rule="evenodd" clip-rule="evenodd" fill="none" stroke="#211816" stroke-width="0.25" x1="108.5" y1="719.2" x2="108.5" y2="791.2"/>
<polyline fill-rule="evenodd" clip-rule="evenodd" fill="none" stroke="#000000" stroke-width="0.25" points="115.9,616.8 
	115.9,624.9 688.9,624.9 688.9,616.8 "/>
<polyline fill="none" stroke="#211816" stroke-width="0.25" points="754.2,557.8 764.8,557.8 764.8,438.8 754.7,438.8 "/>
<g>
	<path d="M778.2,494.4l-3.6,8.7h-1.2l3.4-8.1h-4.5v-1h5.9V494.4z"/>
	<path d="M780,497.1c0.6-0.4,1.4-0.6,2.2-0.6c1.6,0,2.3,0.8,2.3,2.5v4.2h-1.1v-1h0c-0.4,0.8-1.1,1.2-2,1.2c-0.6,0-1.1-0.2-1.5-0.5
		s-0.6-0.8-0.6-1.4c0-1.2,0.7-1.9,2.2-2.1l1.9-0.3c0-1.1-0.4-1.6-1.3-1.6c-0.8,0-1.5,0.3-2.1,0.8V497.1z M781.9,500.1
		c-0.5,0.1-0.9,0.2-1.1,0.4s-0.3,0.5-0.3,0.8c0,0.3,0.1,0.6,0.3,0.8s0.5,0.3,0.9,0.3c0.5,0,0.9-0.2,1.2-0.5s0.5-0.8,0.5-1.3v-0.6
		L781.9,500.1z"/>
</g>
<g>
	<path d="M53.5,724.3h-5.2v-1h2v-6.9l-2.1,0.6v-1.1l3.2-0.9v8.3h2V724.3z"/>
	<path d="M60.4,724.3h-5.5v-1l2.6-2.6c0.7-0.7,1.2-1.3,1.5-1.7s0.4-0.9,0.4-1.3c0-0.5-0.1-0.9-0.4-1.2s-0.7-0.4-1.3-0.4
		c-0.8,0-1.6,0.3-2.3,1v-1.2c0.7-0.6,1.5-0.8,2.5-0.8c0.8,0,1.5,0.2,1.9,0.7s0.7,1,0.7,1.8c0,0.6-0.2,1.1-0.5,1.7s-0.9,1.2-1.7,2.1
		l-2.1,2v0h4.2V724.3z"/>
	<path d="M71.6,724.3h-1.1v-3.7c0-0.7-0.1-1.2-0.3-1.5s-0.6-0.5-1.1-0.5c-0.4,0-0.8,0.2-1.1,0.6s-0.5,0.9-0.5,1.4v3.7h-1.1v-3.8
		c0-1.2-0.5-1.8-1.4-1.8c-0.4,0-0.8,0.2-1.1,0.6s-0.4,0.9-0.4,1.4v3.7h-1.1v-6.5h1.1v1h0c0.5-0.8,1.1-1.2,2-1.2
		c0.4,0,0.8,0.1,1.1,0.4s0.6,0.6,0.7,1c0.5-0.9,1.2-1.3,2.2-1.3c1.4,0,2.1,0.9,2.1,2.6V724.3z"/>
	<path d="M82.8,724.3h-1.1v-3.7c0-0.7-0.1-1.2-0.3-1.5s-0.6-0.5-1.1-0.5c-0.4,0-0.8,0.2-1.1,0.6s-0.5,0.9-0.5,1.4v3.7h-1.1v-3.8
		c0-1.2-0.5-1.8-1.4-1.8c-0.4,0-0.8,0.2-1.1,0.6s-0.4,0.9-0.4,1.4v3.7h-1.1v-6.5h1.1v1h0c0.5-0.8,1.1-1.2,2-1.2
		c0.4,0,0.8,0.1,1.1,0.4s0.6,0.6,0.7,1c0.5-0.9,1.2-1.3,2.2-1.3c1.4,0,2.1,0.9,2.1,2.6V724.3z"/>
</g>
</svg>
