<?xml version="1.0" encoding="utf-8"?>
<!-- Generator: Adobe Illustrator 17.0.0, SVG Export Plug-In . SVG Version: 6.00 Build 0)  -->
<!DOCTYPE svg PUBLIC "-//W3C//DTD SVG 1.1//EN" "http://www.w3.org/Graphics/SVG/1.1/DTD/svg11.dtd">
<svg version="1.1" id="图层_1" xmlns="http://www.w3.org/2000/svg" xmlns:xlink="http://www.w3.org/1999/xlink" x="0px" y="0px"
	 width="535.892px" height="663.026px" viewBox="0 0 535.892 663.026" enable-background="new 0 0 535.892 663.026"
	 xml:space="preserve">
<path fill="#F29251" d="M259.773,594.43c0,0,8.743,22.223,13.479,27.687s-15.665,3.643-36.066-3.279
	c-20.401-6.922-49.546,10.565-44.81,18.944c4.736,8.379,14.937,9.108,43.717,9.108s83.062,1.093,82.333-7.286
	c-0.729-8.379-28.78-20.766-30.966-51.367C285.275,557.635,259.773,594.43,259.773,594.43z"/>
<path fill="#E9A57A" d="M88.549,583.501c0,0,20.037-13.115,52.096-16.394s-33.152-55.01-33.152-55.01L88.549,583.501z"/>
<radialGradient id="SVGID_1_" cx="214.159" cy="233.2587" r="234.52" gradientUnits="userSpaceOnUse">
	<stop  offset="0" style="stop-color:#FFC07D"/>
	<stop  offset="0.5713" style="stop-color:#FEB162"/>
	<stop  offset="1" style="stop-color:#FEA852"/>
</radialGradient>
<path fill="url(#SVGID_1_)" d="M127.406,274.631c0,0,34.248-5.794,12.025,88.925s-73.226,117.671-32.788,172.317
	c13.844,20.401,25.137,30.237,27.687,31.695c2.55,1.457-0.607,8.506,27.687,33.881c28.173,22.126,17.851,26.23,0,25.137
	c-17.851-1.093-24.409,1.093-59.018-8.015c-34.609-9.108-69.218-6.752-69.218,23.097c0,19.43,57.56,14.791,176.325,7.14
	c26.594-2.186,4.736-13.115,0-26.594c-2.915-6.551-2.55-23.048-2.55-23.048c15.696,0,51.367,17.948,111.114-20.304
	c5.829-4.007,56.468,12.022,106.742-14.937c50.274-26.959,81.453-55.425,92.382-90.034c10.929-34.609,5.616-35.652,5.616-35.652
	s-3.279-3.643-7.286,2.914c-4.007,6.558-30.607,46.069-69.161,54.886c-41.924,9.587-64.176,4.244-104.25-30.603
	s-70.311-93.865-85.612-120.095s-61.303-101.238-61.303-101.238s-7.434-11.409-6.582-31.59S127.406,274.631,127.406,274.631z"/>
<path fill="#D3722B" d="M53.084,653.847c0,0,2.335-29.92,40.079-18.736c6.558,1.943,1.943,4.372,0.486,3.643
	s-33.516-13.844-37.888,15.29L53.084,653.847z"/>
<path fill="#FFBF80" d="M134.33,567.568c0,0-18.625-37.621-2.793-101.739c15.848-64.181-26.23-12.751-28.78,5.465
	C100.207,489.51,81.748,521.398,134.33,567.568"/>
<path fill="#FFBF80" d="M207.556,599.635c0,0-4.068-30.343,35.095-63.025c41.032-34.242,115.689,19.384,176.126,3.366
	c46.23-12.253,80.989-35.891,89.559-46.695c6.512-8.209-23,57.874-117.499,83.733c-34.375,9.407-60.399,0.371-69.137,1.66
	s-28.897,32.133-97.423,23.264C217.635,601.214,215.006,600.258,207.556,599.635"/>
<path opacity="0.6" fill="#DD7528" d="M187.118,338.833c0,0,6.646,73.807-12.263,81.822c-18.909,8.015-30.951,11.658-41.688,12.022
	c-10.737,0.364,4.632-29.873,4.632-29.873s14.869-2.186,16.326-18.944s2.021-25.924,2.386-31.388S176.146,338.802,187.118,338.833"
	/>
<path fill="#FFDFC2" d="M297.297,404.99c-4.007-4.007-36.795-9.472-40.438-9.472c0,0,50.274-35.702,23.68-40.802
	c-7.951-1.371-17.836,15.619-22.6,25.975c5.76-15.642,16.756-50.692-4.358-41.276c-26.959,12.022-8.743,53.917-8.743,53.917
	s-81.095-11.426-99.565-2.07c-18.47,9.356-1.712,3.892-1.712,3.892s41.134-6.516,96.541,1.093c0,0-88.162,35.338-107.835,57.56
	s0,4.007,0,4.007s95.084-57.925,114.392-59.382c0,0-8.379,33.152-5.465,37.159c2.914,4.007,7.65,4.372,10.929,4.007
	c3.279-0.364-4.372-23.316-1.457-41.167c0,0,13.844,18.944,15.301,26.959c1.457,8.015,10.565,6.03,12.022,2.104
	c1.457-3.926-17.851-19.226-21.494-29.063c0,0,33.881,4.736,38.981,11.658C295.475,410.091,301.304,408.998,297.297,404.99z
	 M249.208,390.418c0,0-10.705-32.788,5.941-40.438C271.795,342.33,249.208,390.418,249.208,390.418z M255.149,391.147
	c0,0,14.096-24.044,20.654-28.78s7.65,1.457,6.922,2.55C281.996,366.01,265.461,388.961,255.149,391.147z"/>
<path fill="#FFDFC2" d="M210.956,268.193c0,0-7.286-12.933-10.565-16.576c-3.279-3.643-47.08,54.282-56.51,98.727
	c0,0-0.915-1.822-6.083,0c-5.168,1.822-7.354,56.103-37.227,92.17S66.326,558.558,67.055,567.568
	c0.729,9.011,13.115,31.962,21.494,35.969c0,0,16.758-88.891,34.973-118.764c18.215-29.873,25.137-128.236,25.137-128.236
	S188.733,250.889,210.956,268.193z"/>
<radialGradient id="SVGID_2_" cx="172.4423" cy="305.6889" r="74.2654" gradientUnits="userSpaceOnUse">
	<stop  offset="0" style="stop-color:#FFC07D"/>
	<stop  offset="0.5713" style="stop-color:#FEB162"/>
	<stop  offset="1" style="stop-color:#FEA852"/>
</radialGradient>
<path fill="url(#SVGID_2_)" d="M156.674,349.98c0,0,4.736,47.341-9.472,51.358c-14.208,4.017-18.18,4.168-46.631,5.838
	c-12.708,0.746-34.609,3.764-41.866,23.319c-2.887,7.779-0.418,10.877,3.128,11.776c0,0,0.395,5.557,5.15,6.807
	c8.452,2.222,14.21-7.744,15.251-5.593c3.212,6.635,10.929,4.857,17.244-5.343c4.857-7.529,25.178-7.647,49.546-15.665
	c18.66-7.825,24.773-8.743,28.78-25.501c4.007-16.758,3.347-53.917,14.06-67.397C202.577,316.099,156.674,349.98,156.674,349.98z"/>
<path fill="#E58C44" d="M61.833,442.271c0,0-0.564-6.153,1.7-9.59c0.813-1.233-0.958-1.461-1.579,0
	c-0.531,1.25-0.988,3.275-0.726,9.347L61.833,442.271z"/>
<path fill="#E58C44" d="M81.419,443.241c0,0-1.611-2.775-0.297-5.706c0.626-1.397,1.128-0.565,0.898,0.121
	c-0.208,0.623-1.412,1.764,0.214,5.829C82.234,443.485,82.044,442.988,81.419,443.241z"/>
<radialGradient id="SVGID_3_" cx="53.1958" cy="264.0434" r="142.0081" fx="46.6311" fy="290.5203" gradientTransform="matrix(0.787 0.617 -0.7312 0.9326 204.3981 -15.0271)" gradientUnits="userSpaceOnUse">
	<stop  offset="0" style="stop-color:#FECD97"/>
	<stop  offset="1" style="stop-color:#FFC07A"/>
</radialGradient>
<path fill="url(#SVGID_3_)" d="M152.651,118.585c-14.423-3.146-47.613-7.623-70.614,25.92S67.342,214.56,67.342,214.56
	s3.282,9.435-5.023,14.227s-16.108,17.133-1.7,33.516c18.421,20.947,77.233,25.259,114.698-16.756
	c6.389-8.306,13.15-20.187,14.752-42.261C194.152,147.012,171.818,122.766,152.651,118.585z"/>
<path fill="#FFCE99" d="M116.845,200.112c0,0-3.52-29.795,23.886-28.052c16.822,1.069,24.013,14.082,23.085,32.014
	S116.845,200.112,116.845,200.112z"/>
<path fill="#FFCE99" d="M65.96,203.154c0,0,0.217-12.444,9.868-11.006s13.478,11.504,14.888,17.509S65.96,203.154,65.96,203.154z"/>
<path fill="#FFA083" d="M90.917,276.754c0,0,14.208-7.65,22.951-8.561c2.004,0,2.368,1.093,1.093,2.004
	c-1.275,0.911-17.289,6.441-20.037,7.013L90.917,276.754z"/>
<path fill="#FFA083" d="M143.923,231.307c0,0-1.548-5.93,14.117-7.974c15.665-2.044,16.576,2.601,16.758,2.965
	c0.182,0.364,0.789,5.829-14.724,8.015C144.561,236.498,143.923,231.307,143.923,231.307z"/>
<path fill="#FFC07D" d="M144.336,115.636c0,0,30.071-51.085,37.535-69.56c7.464-18.475,25.375-47.471,35.52-9.483
	s2.09,83.011-41.5,104.177S144.336,115.636,144.336,115.636z"/>
<path fill="#FFC07D" d="M95.759,142.78c0,0-45.921-31.153-65.556-55.039C13.282,67.156,4.155,88.884,7.907,109.278
	s16.619,61.703,71.734,54.266C82.919,163.09,95.759,142.78,95.759,142.78z"/>
<path fill="#FF9B48" d="M156.667,125.362c0,0,21.749-33.284,29.439-51.14c7.689-17.855,25.373-30.176,22.228,3.761
	s-28.139,52.429-44.178,54.703C148.115,134.961,156.667,125.362,156.667,125.362z"/>
<path fill="#FF9B48" d="M91.008,150.012c0,0-16.964-1.687-42.26-25.237c-30.002-27.93-27.456-2.118-17.222,10.318
	c19.404,23.579,39.546,24.531,54.825,23.5S91.008,150.012,91.008,150.012z"/>
<path fill="#66361F" d="M150.08,117.669c-14.423-3.146-45.043-7-68.043,26.542c-8.746,12.755-12.959,26.199-14.83,37.968
	c1.854-0.987,4.657-4.167,7.619-7.968c5.82-7.468,7.231-12.638,10.199-15.89c0.334,0.616,5.329,7.134,5.745,7.663
	c4.868,6.189,6.507,5.614,8.05,5.957s12.001-4.629,24.86-15.43c8.306-6.389,17.693-16.18,17.693-16.18s9.53,11.11,15.225,17.037
	c8.401,8.744,14.787,11.742,14.787,11.742s5.958-0.598,12.778-6.389c1.167-0.991,2.007-2.146,2.955-3.1
	C181.012,129.489,163.89,120.681,150.08,117.669z"/>
<path fill="#FFFFFF" d="M116.674,201.803c-0.66-5.324,1.748-24.052,15.592-25.144s26.959,13.391,29.873,25.049
	c2.914,11.658-2.842,16.501-12.199,18.649c-10.71,2.458-16.773,1.77-24.049-2.499C118.572,213.563,117.035,204.714,116.674,201.803z
	"/>
<path fill="#512A15" d="M155.802,187.75c0,0-10.741-10.044-18.693-1.255c-7.951,8.788-3.085,24.863,7.533,29.992
	c6.592,3.184,17.886,0.952,18.274-8.091C163.305,199.353,159.405,190.335,155.802,187.75z"/>
<path fill="#713D1F" d="M116.782,199.716c0,0-0.921,0.752-0.677-1.524c0.795-7.417,3.201-24.111,21.311-24.111
	c21.952,0,26.645,21.866,26.399,29.994c0,0,6.164,0.624,8.16-3.9c0,0,0.729,5.214-8.431,7.998c0,0-0.785,1.863-0.987,2.48
	c-0.202,0.617-0.975-30.066-25.942-32.045C129.198,178.018,119.902,179.928,116.782,199.716z"/>
<path fill="#A85726" d="M120.834,169.702c-0.336,0.677-1.368,3.069,0.074,3.749c1.624,0.766,2.395-1.17,2.98-2.193
	c0.366-0.64,8.279-16.423,21.731-5.703c1.717,1.599,2.436,0.565,1.593-0.708C146.146,163.239,131.009,149.224,120.834,169.702z"/>
<path fill="#FFFFFF" d="M67.809,216.634c0,0,0.198,14.764,18.938,9.799c7.995-2.371,6.954-9.268,3.189-17.106
	c-3.765-7.838-8.125-12.198-15.458-13.981C67.145,193.562,64.707,202.647,67.809,216.634z"/>
<path fill="#512A15" d="M82.665,200.501c0,0-10.237-3.393-8.578,11.676c2.81,18.493,15.152,13.215,16.451,12.283
	c0.734-0.527,4.322-3.664,0.494-12.584S82.665,200.501,82.665,200.501z"/>
<path fill="#713D1F" d="M62.319,211.332c0,0,0.911,5.303,5.49,5.303c0,0-3.623-18.798,5.295-19.526
	c5.907-0.482,14.517,4.725,19.077,18.775c0,0-2.89-22.671-19.174-21.714c-5.04,0.4-9.106,6.732-6.155,20.38
	C66.851,214.549,64.505,214.613,62.319,211.332z"/>
<path fill="#A85726" d="M66.742,184.73c0,0,8.116-6.391,14.436,2.559c0.725,1.027,1.459,1.614,2.339,1.174
	c0.881-0.44,0.294-1.761,0-2.495s-6.979-11.252-16.45-3.414L66.742,184.73z"/>
<path fill="#512A15" d="M52.614,245.058c0,0-0.379-6.465,13.877-8.95c14.256-2.486,21.465,0.25,20.471,4.475
	c-0.994,4.225-11.372,12.14-21.627,12.926S52.387,248.223,52.614,245.058z"/>
<path fill="#9C6342" d="M140.73,221.772c0,0,14.66-0.201,20.797-7.942c0,0-1.001,2.996-2.984,4.295c0,0,1.443,0.351,2.427,2.344
	c0,0-2.329-1.543-3.967-1.157c-0.334,0.079,0.042,0.121-1.765,1.033c0,0,1.563,1.294,1.712,3.317c0,0-3.539-2.312-4.646-2.096
	C149.825,222.05,146.956,222.602,140.73,221.772z"/>
<path fill="#9C6342" d="M69.286,222.127c0,0,3.896,4.646,14.474,5.056c0,0-5.776,1.681-8.763,0.331c0,0-3.191,1.014-4.377,2.779
	c0,0-0.082-2.155,2.259-3.534c0,0-0.855-0.189-1.541-0.873c0,0-1.499-0.224-3.321,1.548c0,0-0.307-1.248,2.216-2.72
	C70.234,224.713,69.473,223.556,69.286,222.127z"/>
<ellipse fill="#FFFFFF" cx="136.694" cy="210.134" rx="5.357" ry="3.765"/>
<ellipse fill="#FFFFFF" cx="76.896" cy="219.725" rx="3.751" ry="3.09"/>
<path fill="#E5432E" d="M70.944,166.745c0,0,30.485-58.211,108.382-17.818c12.322,5.785-19.014-29.189-52.163-27.732
	c0,0,26.032-16.618,21.773-63.229c-2.164-23.68-46.784,21.684-44.787,58.479c0,0-10.091-23.157-51.52-39.32
	c-18.847-7.353,6.248,57.374,40.139,54.446C92.767,131.572,80.874,135.56,70.944,166.745z"/>
</svg>
