<?xml version="1.0" encoding="utf-8"?>
<!-- Generator: Adobe Illustrator 17.0.0, SVG Export Plug-In . SVG Version: 6.00 Build 0)  -->
<!DOCTYPE svg PUBLIC "-//W3C//DTD SVG 1.1//EN" "http://www.w3.org/Graphics/SVG/1.1/DTD/svg11.dtd">
<svg version="1.1" id="图层_1" xmlns="http://www.w3.org/2000/svg" xmlns:xlink="http://www.w3.org/1999/xlink" x="0px" y="0px"
	 width="367.068px" height="511.671px" viewBox="0 0 367.068 511.671" enable-background="new 0 0 367.068 511.671"
	 xml:space="preserve">
<g id="形状_13_8_">
	<g>
		<path fill="#FF9B48" d="M163.369,226.148c0,0-21.227,9.106-42.233,29.87c-27.319,24.668-42.384,38.994-55.11,42.75
			c-2.072,1.067-9.509,3.557-14.392,4.763c-6.438,1.596-13.074,1.672-15.21,4.036c-1.08,1.193-0.477,3.109,0.552,3.946
			c1.028,0.84,4.447,0.854,4.447,0.854s-9.33,2.779-5.941,8.528c3.087,5.238,24.244-9.64,25.168-3.073
			c0.492,3.507-11.257,6.205-5.726,10.557c2.488,1.957,10.968-2.96,16.843-8.198c4.287-3.819,8.365-10.458,21.593-19.586
			c10.724-7.398,30.84-19.379,52.234-28.307C193.374,252.346,163.369,226.148,163.369,226.148z"/>
	</g>
</g>
<g id="形状_14_18_">
	<g>
		<path fill="#CC7123" d="M50.339,306.862c-1.021,0.967-3.624,2.54-4.897,3.308c-2.615,1.573-4.917,2.138-4.917,2.138
			s0.682,0.181,1.74-0.104c3.078-0.823,7.071-2.544,8.883-4.117C52.574,306.857,51.81,305.47,50.339,306.862z"/>
	</g>
</g>
<g id="形状_13_6_">
	<g>
		<path fill="#FF9B48" d="M328.085,312.366c0,0,3.421-0.013,4.447-0.854c1.03-0.836,1.631-2.753,0.551-3.946
			c-2.133-2.363-8.772-2.44-15.207-4.036c-4.881-1.206-12.32-3.697-14.394-4.763c-12.726-3.755-27.789-18.082-55.11-42.75
			c-21.003-20.764-43.724-30.09-43.724-30.09s-28.514,26.417,19.266,46.359c21.396,8.928,41.51,20.908,52.236,28.307
			c13.228,9.129,17.304,15.768,21.593,19.586c5.875,5.238,14.353,10.155,16.843,8.198c5.532-4.352-6.218-7.05-5.726-10.557
			c0.922-6.566,22.081,8.311,25.168,3.073C337.417,315.146,328.085,312.366,328.085,312.366z"/>
	</g>
</g>
<g id="形状_14_15_">
	<g>
		<path fill="#CC7123" d="M324.068,310.17c-1.274-0.768-3.878-2.341-4.899-3.308c-1.469-1.392-2.232-0.005-0.809,1.224
			c1.812,1.573,5.807,3.294,8.885,4.117c1.057,0.285,1.74,0.104,1.74,0.104S326.679,311.743,324.068,310.17z"/>
	</g>
</g>
<radialGradient id="SVGID_1_" cx="188.2768" cy="224.6145" r="98.9036" gradientTransform="matrix(1 0 0 -0.9295 0.14 482.6208)" gradientUnits="userSpaceOnUse">
	<stop  offset="0" style="stop-color:#FFC07D"/>
	<stop  offset="0.5713" style="stop-color:#FEB162"/>
	<stop  offset="1" style="stop-color:#FEA852"/>
</radialGradient>
<path fill="url(#SVGID_1_)" d="M333.63,501.697c-14.267,5.134-43.842,3.191-60.807,2.423c-17.695-0.8-55.296-6.169-62.305-8.108
	c-14.842-4.103-6.395-13.273-4.978-19.944c1.455-6.86,2.181-13.639,1.83-21.073c-0.115-2.458-0.249-7.099-4.589-6.869
	c-4.714,1.423-9.154,2.237-13.253,2.625c-0.027,0.005-0.056,0.009-0.084,0.009c-0.334,0.031-0.666,0.063-0.994,0.086
	c-0.228,0.018-0.461,0.036-0.694,0.05c-0.215,0.018-0.429,0.031-0.642,0.045c-0.316,0.018-0.637,0.031-0.96,0.045
	c-0.158,0.009-0.316,0.018-0.474,0.023c-0.317,0.009-0.637,0.018-0.961,0.023c-0.172,0.005-0.346,0.009-0.515,0.009
	c-0.246,0.005-0.497,0.005-0.746,0.005c-0.249,0-0.499,0-0.746-0.005c-0.17,0-0.344-0.004-0.516-0.009
	c-0.323-0.005-0.644-0.013-0.963-0.023c-0.156-0.005-0.314-0.013-0.472-0.023c-0.323-0.013-0.646-0.027-0.961-0.045
	c-0.212-0.014-0.427-0.027-0.641-0.045c-0.233-0.013-0.466-0.031-0.694-0.05c-0.33-0.023-0.66-0.055-0.994-0.086
	c-0.027,0-0.056-0.005-0.083-0.009c-4.099-0.388-8.54-1.202-13.253-2.625c-4.341-0.23-4.474,4.411-4.589,6.869
	c-0.35,7.435,0.375,14.213,1.83,21.073c1.417,6.671,9.863,15.84-4.978,19.944c-7.009,1.939-48.236,7.082-65.912,8.234
	c-19.042,1.243-50.415,1.473-59.44-2.368c-4.985-2.124-5.202-14.85,8.214-21.729c16.868-8.65,87.014-4.791,91.649-5.116
	c9.791-0.687,7.843-3.787,7.927-8.7c0.161-9.179-7.387-13.874-13.829-17.933c-6.442-4.058-38.642-18.235-38.642-49.54
	c0-16.093,4.411-37.795,25.206-68.702c50.629-75.251,52.492-117.235,52.492-117.235l4.117-0.167
	c0.151-0.798,0.235-1.222,0.235-1.222l15.042,0.608l15.042-0.608c0,0,0.083,0.424,0.235,1.222l4.117,0.167
	c0,0,1.862,41.984,52.492,117.235c20.795,30.907,25.206,52.609,25.206,68.702c0,31.305-32.2,45.482-38.642,49.54
	c-6.442,4.059-13.99,8.754-13.829,17.933c0.083,4.913-1.517,9.287,8.211,9.495c4.643,0.104,74.494-4.33,91.364,4.32
	C341.069,487.028,338.728,499.863,333.63,501.697z"/>
<path fill="#DD7528" d="M49.159,485.613c-14.679,3.905-12.943,10.702-10.81,16.188c0.263,0.677,0.594,1.328,0.945,1.963
	c0.876,0.119,1.774,0.232,2.727,0.332c-5.069-11.681,2.251-15.332,8.721-17.616C53.584,485.478,51.184,485.075,49.159,485.613z"/>
<path fill="#DD7528" d="M67.049,485.062c-12.545,2.811-10.659,13.35-8.745,18.393c0.213,0.561,0.457,1.069,0.714,1.547
	c0.814,0.014,1.623,0.031,2.446,0.038c-3.56-10.761,1.043-15.407,4.701-17.882C68.192,485.788,71.53,484.058,67.049,485.062z"/>
<path fill="#DD7528" d="M325.527,503.663c0.176-0.497,0.357-0.94,0.529-1.5c1.604-5.283-0.122-14.828-10.444-17.417
	c-5.663-1.419-3.213,1.171-0.709,1.989c6.133,2.011,9.269,9.278,6.544,17.499C322.857,504.07,324.212,503.88,325.527,503.663z"/>
<path fill="#DD7528" d="M306.293,503.636c2.973-6.521,0.361-16.202-6.698-19.031c-2.807-0.683-0.186,1.776,1.835,3.882
	c2.729,2.838,4.144,9.694,1.744,14.882c-0.339,0.727-0.574,1.279-0.768,1.749c1.021,0,2.038-0.005,3.051-0.013
	C305.742,504.694,306.026,504.223,306.293,503.636z"/>
<g id="形状_12_12_">
	<g>
		
			<linearGradient id="SVGID_2_" gradientUnits="userSpaceOnUse" x1="-82.3354" y1="148.6991" x2="-83.8734" y2="287.1125" gradientTransform="matrix(1 0 0 -1 266.2582 509.0365)">
			<stop  offset="0" style="stop-color:#FFC28A"/>
			<stop  offset="0.7938" style="stop-color:#FFCD9F"/>
			<stop  offset="1" style="stop-color:#FFD0A5"/>
		</linearGradient>
		<path fill="url(#SVGID_2_)" d="M207.276,269.448c-10.518-17.196-36.581-15.496-46.861,1.302
			c-12.392,20.251-27.455,75.196-16.809,106.479c8.776,25.787,70.119,27.491,79.612,2.757
			C235.942,346.832,218.405,287.648,207.276,269.448z"/>
	</g>
</g>
<path opacity="0.6" fill="#DD7528" enable-background="new    " d="M111.758,349.402c0,0,28.422,7.063,74.08,7.063
	c43.051,0,51.027-2.499,73.644-7.646C260.138,349.456,189.999,471.337,111.758,349.402z"/>
<g id="形状_11_拷贝_2_2_">
	<g>
		<path fill="#FFBF80" d="M257.635,349.447c-0.61,0.33-1.259,0.583-1.891,0.868c-20.906,9.346-45.676,12.252-65.067,12.844
			c-19.13,0.131-47.391-1.582-70.681-10.819c-2.043-0.809-4.924-1.776-6.89-2.721c-5.314-2.553-6.435,4.103-6.37,8.004
			c0.278,16.74,3.99,69.579,51.922,87.466c1.941,1.22,7.787,4.167,19.767,4.894c3.882,0.651,8.334,0.493,12.719-0.068
			c0.47-0.032,0.933-0.054,1.415-0.09c7.197-0.755,13.659-2.499,19.467-5.003c0.368-0.131,0.572-0.203,0.572-0.203v-0.037
			c36.428-16.138,46.716-62.642,49.595-85.306c0.215-1.681,0.33-3.236,0.527-4.623C263.56,348.683,259.504,348.435,257.635,349.447z
			"/>
	</g>
</g>
<path opacity="0.6" fill="#DD7528" enable-background="new    " d="M202.668,212.916c-5.612,3.325-13.287,7.913-17.571,8.543
	c-6.508,0.955-13.745-0.127-21.039-8.42c-0.035,0.572-0.257,3.454-1.249,8.491c2.101,6.711,6.594,13.854,16.256,14.996
	c11.355,1.342,19.798-7.764,24.891-15.758c-0.984-5.179-1.104-7.844-1.104-7.844L202.668,212.916z"/>
<g id="形状_9_4_">
	<g>
		<path fill="#FFC07D" d="M163.231,85.408c-24.034-52.939-60.823-73.344-60.823-73.344S92.886,6.04,91.575,12.62
			c-14.163,82.925,51.658,101.404,51.658,101.404S187.264,138.347,163.231,85.408z"/>
	</g>
</g>
<g id="形状_10_4_">
	<g>
		<path fill="#FF9B48" d="M155.731,97.633c-9.077-40.663-43.049-54.729-43.049-54.729s-7.106-4.989-7.219,1.943
			c2.811,52.268,46.381,60.563,46.381,60.563S157.76,107.071,155.731,97.633z"/>
	</g>
</g>
<g id="形状_9_拷贝_3_">
	<g>
		<path fill="#FFC07D" d="M278.748,12.53c-1.311-6.576-10.842-0.556-10.842-0.556s-36.834,20.395-60.895,73.307
			c-24.063,52.912,20.018,28.6,20.018,28.6S292.93,95.411,278.748,12.53z"/>
	</g>
</g>
<g id="形状_10_拷贝_3_">
	<g>
		<path fill="#FF9B48" d="M257.616,42.798c0,0-34.01,14.06-43.098,54.7c-2.029,9.436,3.893,7.775,3.893,7.775
			s43.618-8.291,46.433-60.531C264.732,37.811,257.616,42.798,257.616,42.798z"/>
	</g>
</g>
<g id="脸_13_">
	<g>
		
			<radialGradient id="SVGID_3_" cx="-78.8763" cy="221.9712" r="63.8776" gradientTransform="matrix(0.9999 0.0132 0.0092 -0.6957 262.0713 374.3347)" gradientUnits="userSpaceOnUse">
			<stop  offset="0" style="stop-color:#FECD97"/>
			<stop  offset="1" style="stop-color:#FFC07A"/>
		</radialGradient>
		<path fill="url(#SVGID_3_)" d="M233.944,132.553c-2.366-7.536-4.617-18.436-7.767-27.5c-7.093-20.405-23.543-27.145-41.035-26.86
			c-17.659,0.289-34.41,7.789-41.076,26.939c-3.155,9.065-5.127,19.966-7.497,27.502c-2.37,7.538-7.617,39.747,5.554,59.732
			c-0.066,0.137,5.624,7.014,16.109,17.501c8.616,8.621,13.553,15.698,24.517,16.371c0.068,0.007,0.133,0.018,0.199,0.02
			c0.079,0.002,0.154,0,0.23,0.002c0.902,0.041,1.837,0.045,2.825-0.002c0.174-0.009,0.348-0.038,0.52-0.074
			c13.673-0.929,18.163-9.481,26.7-17.151c11.021-9.902,15.239-16.617,15.176-16.755
			C241.55,172.295,236.312,140.091,233.944,132.553z"/>
	</g>
</g>
<path fill="#66361F" d="M184.616,139.025c-0.149,0.122,19.105-5.543,27.326-26.386c-0.055-0.445,8.697,15.687,22.567,22.011
	c-0.196-0.811-0.431-1.53-0.565-2.097c-2.108-9.012-3.972-17.689-7.123-26.752c-7.093-20.405-24.187-27.893-41.679-27.608
	c-17.659,0.289-34.41,7.789-41.076,26.939c-3.155,9.065-5.943,20.723-7.497,27.502c-0.073,0.319-0.208,0.73-0.314,1.125
	c4.73-0.723,13.115-4.42,21.134-20.181C156.958,113.635,161.102,127.557,184.616,139.025z"/>
<path fill="#E5432E" d="M231.477,123.688c-0.9-3.45-1.835-7.099-2.852-10.713c-6.769-8.926-20.96-23.051-42.897-22.845
	c-25.353,0.237-37.682,13.759-43.941,22.479c-0.908,3.335-1.731,6.716-2.524,9.947c5.984-6.207,21.835-19.734,46.465-19.645
	C207.705,102.988,223.387,116.116,231.477,123.688z"/>
<g id="形状_3_拷贝_2_">
	<g>
		<path fill="#E5432E" d="M230.719,24.289c-0.773-1.211-1.72-0.922-2.499-0.556c-30.705,14.343-40.116,41.425-42.957,54.95
			c-3.95-16.318-15.108-41.502-43.139-55.228c-1.155-0.565-2.54-0.827-3.055,1.109c0,0-10.011,45.379,36.149,68.65
			c-9.532,7.308-19.683,16.731,9.772,4.38c31.96,13.454,18.774,2.456,9.586-4.288C240.897,70.031,230.719,24.289,230.719,24.289z"/>
	</g>
</g>
<g id="形状_73_6_">
	<g>
		<path fill="#AA2D24" d="M183.726,73.238c0,0-2.032,4.695-1.751,10.474c0.328,6.733,2.015,9.967,2.101,7.38
			c0.061-1.864,0.847-8.707,1.313-12.431C185.533,77.503,183.726,73.238,183.726,73.238z"/>
	</g>
</g>
<g id="形状_82_6_">
	<g>
		<path fill="#C13021" d="M204.84,93.918c-1.229-0.578-6.146-2.747-6.942-2.242c-4.298,2.734-8.849,7.344-2.61,5.787
			C199.758,96.347,206.207,94.562,204.84,93.918z M172.663,91.821c-1.668-0.491-7.231,1.952-7.231,1.952s2.138,1.125,4.748,1.826
			c2.61,0.698,8.161,2.816,7.748,1.177C177.516,95.138,175.121,92.544,172.663,91.821z"/>
	</g>
</g>
<path fill="#FFCE99" d="M165.014,162.931c-5.218-12.909-13.23-15.669-18.735-14.685c-10.332,1.846-11.715,7.134-11.644,6.844
	s-0.195-9.338,8.535-11.497c7.969-1.97,16.022,1.271,19.524,6.725c3.182,4.957,2.872,12.613,2.872,12.613"/>
<path fill="#FFCE99" d="M204.687,162.931c5.218-12.909,13.23-15.669,18.735-14.685c10.332,1.846,11.715,7.134,11.644,6.844
	c-0.07-0.289,0.195-9.338-8.535-11.497c-7.969-1.97-16.022,1.271-19.523,6.725c-3.183,4.957-2.873,12.613-2.873,12.613"/>
<g id="形状_4_8_">
	<g>
		<path fill="#FFFFFF" d="M152.604,149.276c-4.185-1.961-13.092-1.019-16.581,1.95c0,0-5.229,21.611,13.709,23.525
			c9.409,0.366,14.893-4.58,15.783-9.985C166.469,158.968,157.5,151.572,152.604,149.276z"/>
	</g>
</g>
<g id="形状_6_8_">
	<g>
		<path fill="#512A15" d="M161.841,154.305c-0.005-0.063-4.82-6.655-11.214-8.207c-2.341-0.567-7.507,0.66-7.507,0.66
			s-7.692,6.273-1.943,16.929c3.403,5.532,8.604,7.94,13.325,7.425c5.755-0.63,9.077-4.75,9.54-9.206
			C164.503,157.448,161.841,154.305,161.841,154.305z"/>
	</g>
</g>
<g id="形状_48_3_">
	<g>
		<path fill="#FFFFFF" d="M146.421,162.351c-0.298-1.728-5.891-1.93-7.048,0.373c-0.881,1.758,0.088,3.755,1.482,4.058
			C143.628,167.388,146.844,164.816,146.421,162.351z"/>
	</g>
</g>
<g id="形状_36_副本_7_">
	<g>
		<path fill="#A85726" d="M159.507,136.748c-6.937-2.965-14.247-1.996-13.048,0.929c0.489,1.193,4.014-0.929,9.696,0.903
			c7.75,2.498,7.421,6.845,9.322,6.296C168.648,143.96,163.45,138.432,159.507,136.748z"/>
	</g>
</g>
<g id="形状_4_6_">
	<g>
		<path fill="#FFFFFF" d="M234.319,151.227c-3.487-2.969-12.24-3.538-16.581-1.95c-10.15,3.717-13.865,9.692-12.909,15.49
			c0.888,5.405,6.374,10.351,15.781,9.985C239.55,172.838,234.319,151.227,234.319,151.227z"/>
	</g>
</g>
<g id="形状_6_6_">
	<g>
		<path fill="#512A15" d="M227.664,147.914c0,0-4.325-1.121-6.666-0.554c-6.395,1.55-11.579,5.514-11.585,5.579
			c0,0-1.916,7.071-0.777,10.035c2.16,5.613,4.049,8.006,9.836,8.209c4.72,0.167,10.06-1.588,12.082-8.331
			C232.938,154.905,227.664,147.914,227.664,147.914z"/>
	</g>
</g>
<g id="形状_48_副本_2_">
	<g>
		<path fill="#FFFFFF" d="M214.161,163.056c-1.245-2.257-6.361,0.463-6.587,2.203c-0.366,2.85,1.085,3.586,3.268,2.987
			C213.279,167.58,215.345,165.205,214.161,163.056z"/>
	</g>
</g>
<g id="形状_36_副本_5_">
	<g>
		<path fill="#A85726" d="M211.011,136.652c-3.976,1.602-9.149,6.252-6.948,7.751c2.127,1.448,3.455-3.412,8.953-5.237
			c6.865-2.278,11.852,0.282,12.166-1.489C225.647,135.063,217.952,133.856,211.011,136.652z"/>
	</g>
</g>
<g id="Shape_2_53_">
	<g>
		<path fill="#9C6342" d="M232.079,169.943c1.928-2.862,2.202-5.771,1.673-4.711c-1.25,2.501-2.922,5.43-6.754,7.231
			c-3.552,1.67-7.859,1.758-10.731,1.805c-2.616,0.041,5.18,1.883,10.737-0.216c0.394,0.137,0.986,0.367,1.603,0.7
			c0.741,0.4,2.131,1.336,2.057,0.816c-0.134-0.918-0.621-2.11-1.349-2.754c0.552-0.394,1.05-0.825,1.491-1.286
			c0.218,0.025,0.496,0.06,0.866,0.112c1.166,0.168,2.277,1.557,2.277,0.834C233.948,171.721,233.216,170.587,232.079,169.943z"/>
	</g>
</g>
<g id="形状_65_副本_7_">
	<g>
		<path fill="#713D1F" d="M241.64,148.802c-0.334,0.617-1.536,1.751-2.809,2.343c-1.096,0.512-2.707,0.866-4.211,0.434
			c-0.046-0.107-0.081-0.215-0.134-0.321c-1.015-2.029-4.339-4.339-7.516-4.966c-5.174-1.024-9.569-0.418-13.311,1.315
			c-4.983,2.309-8.404,6.862-9.446,12.907c-0.445,2.576,0.163,4.115,0.933,1.826c1.842-5.489,3.697-8.404,8.711-11.131
			c3.925-2.138,8.788-3.683,15.953-0.174c2.427,1.188,3.801,3.656,4.241,5.358c0.156,0.601,0.804,2.734,0.981,1.356
			c0.082-0.632,0.166-1.33,0.205-2.057c0.516,0.031,1.376-0.033,2.604-0.528c1.042-0.418,2.723-1.649,3.487-3.116
			C242.228,150.321,242.255,147.668,241.64,148.802z"/>
	</g>
</g>
<g id="Shape_2_51_">
	<g>
		<path fill="#9C6342" d="M153.86,174.268c-2.87-0.047-7.177-0.136-10.729-1.805c-3.832-1.801-5.504-4.73-6.754-7.231
			c-0.53-1.06-0.256,1.85,1.672,4.711c-1.136,0.644-1.869,1.777-1.869,2.531c0,0.723,1.109-0.666,2.278-0.834
			c0.369-0.053,0.647-0.088,0.865-0.112c0.441,0.46,0.939,0.892,1.49,1.285c-0.727,0.644-1.214,1.836-1.348,2.755
			c-0.074,0.52,1.315-0.416,2.057-0.816c0.617-0.333,1.209-0.563,1.602-0.7C148.682,176.152,156.479,174.309,153.86,174.268z"/>
	</g>
</g>
<g id="形状_65_副本_5_">
	<g>
		<path fill="#713D1F" d="M165.481,160.514c-1.042-6.044-4.463-10.598-9.445-12.907c-3.742-1.733-8.155-2.429-13.314-1.315
			c-2.872,0.622-5.726,2.522-6.804,4.079c-0.233,0.336-0.418,0.728-0.583,1.139c-0.011,0.004-0.018,0.002-0.029,0.006
			c-1.568,0.542-3.29,0.167-4.445-0.371c-1.272-0.592-2.472-1.726-2.807-2.343c-0.617-1.134-0.59,1.518,0.31,3.245
			c0.764,1.466,2.447,2.698,3.489,3.116c1.317,0.531,2.224,0.569,2.722,0.523c-0.019,0.776,0.012,1.498,0.085,2.062
			c0.178,1.378,0.852-0.149,1.046-0.739c0.859-2.603,1.752-4.786,4.178-5.974c7.165-3.509,12.026-1.964,15.953,0.174
			c5.012,2.728,6.797,6.065,8.711,11.131C165.402,164.599,165.926,163.09,165.481,160.514z"/>
	</g>
</g>
<g id="腮红2_8_">
	<g>
		<path fill="#FFA083" d="M152.147,180.815c-7.504-0.789-10.813,1.71-10.788,4.052c0.02,1.896,2.75,5.703,9.658,6.067
			c8.709,0.461,11.274-2.418,11.371-3.86C162.496,185.467,161.346,181.782,152.147,180.815z"/>
	</g>
</g>
<g id="腮红2_副本_3_">
	<g>
		<path fill="#FFA083" d="M218.194,180.815c-9.199,0.967-10.349,4.652-10.24,6.259c0.097,1.442,2.661,4.32,11.37,3.86
			c6.908-0.364,9.637-4.171,9.658-6.067C229.007,182.525,225.698,180.026,218.194,180.815z"/>
	</g>
</g>
<path fill="#512A15" d="M184.444,220.998c-4.748,0-12.288-4.324-11.678-9.074c0.485-3.773,4.291-5.085,11.743-5.085
	c7.534,0,11.452,1.268,11.823,5.109C196.741,216.191,190.452,220.998,184.444,220.998z"/>
<g id="形状_20_6_">
	<g>
		<path fill="#FCEACB" d="M166.975,305.714c-14.195-11.011-31.813-3.9-31.795-1.112c1.163,29.909,29.717,26.944,29.717,26.944
			c9.958-1.125,11.11-8.054,11.11-8.054S176.454,313.072,166.975,305.714z"/>
	</g>
</g>
<g id="形状_21_6_">
	<g>
		<path fill="#FFBD99" d="M171.84,322.101c-1.977-10.281-23.053-13.607-22.773-9.445c1.044,16.672,19.718,15.28,19.718,15.28
			S172.533,327.38,171.84,322.101z"/>
	</g>
</g>
<g id="形状_20_拷贝_4_">
	<g>
		<path fill="#FCEACB" d="M201.229,306.943c-9.775,8.821-6.892,19.605-6.892,19.605s0.741,3.959,10.726,5.089
			c0,0,28.637,2.969,29.803-26.989C234.884,301.859,216.759,292.931,201.229,306.943z"/>
	</g>
</g>
<g id="形状_21_拷贝_4_">
	<g>
		<path fill="#FFBD99" d="M198.101,322.178c-0.696,5.283,3.065,5.839,3.065,5.839s18.728,1.396,19.774-15.298
			C221.22,308.547,200.086,311.878,198.101,322.178z"/>
	</g>
</g>
<g id="形状_23_4_" opacity="0.4">
	<g>
		<path fill="#DD7528" d="M206.279,364.885c-11.535-2.12-42.956-4.189-46.381,3.611c-3.426,7.801-11.423,3.972-9.719,26.239
			c0,0,2.689,14.159,13.806,11.361c3.389-1.36,4.673-5.884,4.628-10.634c-0.045-4.723,1.943-4.894,6.133-4.786
			c9.576,0.244,14.778,1.003,21.43-3.118c3.627-2.251,5.961,2.969,5.346,8.596c-0.719,6.553,0.651,9.287,5.907,10.462
			c4.865,1.089,8.885-1.121,10.301-6.123c1.494-5.265,1.891-11.054,1.891-11.054S217.814,367.005,206.279,364.885z"/>
	</g>
</g>
<path fill="#FCEBCE" d="M208.362,349.533c0,0,12.722,8.718,12.008,37.171c-0.332,9.73-5.035,14.647-10.094,14.326
	c-5.061-0.317-5.577-5.803-4.822-11.565c0.301-2.278,0.931-9.572-1.733-19.727C201.057,359.584,208.362,349.533,208.362,349.533z"/>
<path fill="#FCEBCE" d="M158.742,352.999c0,0-10.114,9.78-9.253,33.018c0.332,9.734,4.964,15.302,10.046,14.986
	c5.082-0.321,5.29-4.42,4.994-8.966c-0.258-3.972-1.074-10.493,1.602-20.653C168.804,361.22,158.742,352.999,158.742,352.999z"/>
<path fill="#F6BF96" d="M209.334,394.057c-0.122,1.971-0.505,5.103-1.043,6.446c0.245,0.117,0.518,0.202,0.799,0.28
	c0.306-0.849,0.622-2.082,0.8-3.396C210.308,394.274,209.522,390.988,209.334,394.057z"/>
<path fill="#F6BF96" d="M213.467,394.143c0.002,1.388-0.024,4.662-0.882,6.614c0.413-0.11,0.824-0.23,1.219-0.415
	c0.355-0.991,0.484-2.478,0.544-3.623C214.477,394.319,213.467,392.276,213.467,394.143z"/>
<path fill="#F6BF96" d="M161.287,397.388c-0.497-1.722-1.256-5.487-1.39-4.443c-0.237,1.853,0.215,4.393,0.834,6.39
	c0.164,0.528,0.362,0.956,0.571,1.337c0.442-0.145,0.835-0.327,1.171-0.554C162.005,399.315,161.613,398.527,161.287,397.388z"/>
<path fill="#F6BF96" d="M157.398,397.943c-1.069-3.051-1.179-6.051-1.39-3.886c-0.253,2.612,0.434,4.646,1.39,6.386
	c0.066,0.121,0.168,0.274,0.267,0.423c0.361,0.072,0.73,0.08,1.099,0.09C158.298,400.108,157.813,399.129,157.398,397.943z"/>
<g id="脸_11_">
	<g>
		<path fill="#FCEBCE" d="M210.172,341.059c-4.926-17.571-16.606-22.09-25.202-21.968c-8.611-0.24-21.591,4.361-25.628,21.625
			c-0.943,6.01-4.149,10.765-3.055,18.335c1.094,7.57,3.563,11.213,14.166,18.335c2.203,1.663,3.794,1.663,6.386,3.611
			c2.594,1.948,5.495,2.815,10.555,2.224c0.079-0.009,0.158-0.027,0.235-0.05c2.022-0.339,3.604-1.094,5.082-2.205
			c2.59-1.948,4.178-1.948,6.381-3.611c10.589-7.118,13.056-10.756,14.15-18.321C214.333,351.463,211.164,344.593,210.172,341.059z"
			/>
	</g>
</g>
<g id="形状_77_46_">
	<g>
		<path fill="#FFBD99" d="M163.949,363.118c-2.269-0.194-4.199,0.696-4.307,1.989c-0.111,1.292,1.638,2.495,3.907,2.689
			c2.271,0.194,4.199-0.696,4.309-1.989C167.968,364.514,166.218,363.312,163.949,363.118z"/>
	</g>
</g>
<g id="形状_77_副本_6_">
	<g>
		
			<ellipse transform="matrix(-0.9995 0.0327 -0.0327 -0.9995 421.5854 724.0257)" fill="#FFBD99" cx="204.872" cy="365.46" rx="4.124" ry="2.347"/>
	</g>
</g>
<path fill="#F7CC9D" d="M169.208,332.945c0.94,3.568,2.753,4.23,5.045,4.58c2.82,0.43,4.417-2.227,5.279-3.398
	c0,0,1.839,3.564,4.483,4.394c2.82,0.885,4.7-0.055,5.712-1.88c0.614-1.106,0.434-3.02,0.434-3.02s2.314,2.458,5.785,1.546
	c2.067-0.543,2.242-2.332,2.387-3.539c0.144-1.206-0.317-2.362-0.317-2.362s2.431,2.52,1.763,5.44
	c-0.473,2.069-2.248,3.543-4.542,3.233c-1.591-0.215-4.038-1.846-4.038-1.846s-0.17,2.735-2.05,4.036
	c-1.88,1.302-4.628,1.157-6.364,0.145c-1.735-1.013-3.312-3.458-3.312-3.458s-0.988,2.259-3.463,3.386
	c-1.461,0.664-4.197,0.746-5.864-1.68C168.468,336.079,169.208,332.945,169.208,332.945z"/>
<g id="形状_75_4_">
	<g>
		<path fill="#552F19" d="M164.582,355.982c-4.339-0.393-5.536-0.041-5.258,0.89c0.214,0.719,1.114-0.149,5.107,0.678
			c6.539,1.351,9.341,5.735,10.049,3.878C175.232,359.448,169.777,356.452,164.582,355.982z"/>
	</g>
</g>
<g id="形状_75_副本_4_">
	<g>
		<path fill="#713D1F" d="M205.203,355.982c-5.193,0.47-10.648,3.467-9.897,5.446c0.708,1.858,3.509-2.526,10.049-3.878
			c3.995-0.827,4.892,0.041,5.107-0.678C210.742,355.941,209.542,355.589,205.203,355.982z"/>
	</g>
</g>
<g id="形状_19_6_">
	<g>
		<path fill="#57301B" d="M184.616,375.998c-8.218-0.095-7.5,2.499-7.5,2.499s1.421,5.152,7.777,5.003
			c6.357-0.154,7.498-5.003,7.498-5.003S192.832,376.093,184.616,375.998z"/>
	</g>
</g>
</svg>
