<?xml version="1.0" encoding="utf-8"?>
<!-- Generator: Adobe Illustrator 17.0.0, SVG Export Plug-In . SVG Version: 6.00 Build 0)  -->
<!DOCTYPE svg PUBLIC "-//W3C//DTD SVG 1.1//EN" "http://www.w3.org/Graphics/SVG/1.1/DTD/svg11.dtd">
<svg version="1.1" id="图层_1" xmlns="http://www.w3.org/2000/svg" xmlns:xlink="http://www.w3.org/1999/xlink" x="0px" y="0px"
	 width="345.934px" height="511.671px" viewBox="0 0 345.934 511.671" enable-background="new 0 0 345.934 511.671"
	 xml:space="preserve">
<g id="形状_13_12_">
	<g>
		<path fill="#FF9B48" d="M155.911,224.036c0,0-20.963,9.065-41.707,29.737c-26.979,24.558-41.856,38.82-54.424,42.559
			c-2.046,1.062-9.39,3.541-14.212,4.742c-6.357,1.589-12.911,1.665-15.02,4.018c-1.067,1.188-0.471,3.095,0.545,3.928
			c1.015,0.837,4.391,0.85,4.391,0.85s-9.214,2.767-5.867,8.49c3.048,5.214,23.942-9.596,24.854-3.06
			c0.486,3.491-11.117,6.178-5.655,10.51c2.457,1.948,10.832-2.947,16.633-8.161c4.233-3.802,8.261-10.411,21.324-19.499
			c10.591-7.365,30.456-19.292,51.583-28.18C185.543,250.117,155.911,224.036,155.911,224.036z"/>
	</g>
</g>
<g id="形状_14_22_">
	<g>
		<path fill="#CC7123" d="M46.447,309.789c-1.345,0.35-4.346,0.464-5.813,0.52c-3.011,0.109-5.271-0.509-5.271-0.509
			s0.503,0.487,1.552,0.749c3.053,0.767,7.326,1.193,9.644,0.697C48.38,310.863,48.384,309.286,46.447,309.789z"/>
	</g>
</g>
<g id="形状_13_10_">
	<g>
		<path fill-rule="evenodd" clip-rule="evenodd" fill="#FF9B48" d="M318.575,309.869c0,0,3.379-0.013,4.392-0.85
			c1.017-0.833,1.611-2.74,0.544-3.928c-2.106-2.353-8.663-2.429-15.018-4.018c-4.82-1.201-12.166-3.68-14.215-4.742
			c-12.568-3.739-27.443-18.001-54.424-42.559c-20.741-20.671-43.179-29.955-43.179-29.955s-28.159,26.299,19.026,46.152
			c21.13,8.888,40.992,20.815,51.585,28.18c13.063,9.088,17.088,15.697,21.324,19.499c5.802,5.214,14.175,10.109,16.633,8.161
			c5.463-4.332-6.141-7.019-5.655-10.51c0.911-6.537,21.806,8.274,24.854,3.06C327.791,312.636,318.575,309.869,318.575,309.869z"/>
	</g>
</g>
<g id="脸_5_">
	<g>
		
			<radialGradient id="SVGID_1_" cx="557.8499" cy="298.3805" r="135.8067" gradientTransform="matrix(0.9857 0.0131 -0.0143 1.0986 -370.8421 -50.0459)" gradientUnits="userSpaceOnUse">
			<stop  offset="0" style="stop-color:#FECD97"/>
			<stop  offset="1" style="stop-color:#FEA852"/>
		</radialGradient>
		<path fill="url(#SVGID_1_)" d="M225.607,130.86c-2.337-7.503-4.559-18.354-7.67-27.377c-7.005-20.313-23.25-27.024-40.523-26.74
			c-17.439,0.288-33.981,7.754-40.564,26.819c-3.115,9.025-5.063,19.877-7.404,27.379c-2.341,7.504-7.522,39.57,5.485,59.465
			c-0.065,0.137,5.554,6.982,15.908,17.423c8.509,8.582,13.384,15.628,24.212,16.298c0.067,0.007,0.132,0.018,0.196,0.02
			c0.078,0.002,0.152,0,0.228,0.002c0.891,0.041,1.814,0.045,2.79-0.002c0.172-0.009,0.344-0.038,0.513-0.074
			c13.503-0.925,17.937-9.439,26.367-17.074c10.883-9.857,15.049-16.543,14.987-16.68
			C233.118,170.424,227.946,138.364,225.607,130.86z"/>
	</g>
</g>
<g id="形状_14_20_">
	<g>
		<path fill-rule="evenodd" clip-rule="evenodd" fill="#CC7123" d="M313.218,310.226c-1.465-0.117-4.459-0.358-5.788-0.765
			c-1.912-0.586-1.974,0.99-0.174,1.451c2.295,0.594,6.584,0.349,9.666-0.289c1.06-0.217,1.583-0.682,1.583-0.682
			S316.219,310.463,313.218,310.226z"/>
	</g>
</g>
<radialGradient id="SVGID_2_" cx="402.0199" cy="201.539" r="100.2129" gradientTransform="matrix(0.9858 0 0 1.022 -0.3125 1.3843)" gradientUnits="userSpaceOnUse">
	<stop  offset="0" style="stop-color:#FFC07D"/>
	<stop  offset="0.5713" style="stop-color:#FEB162"/>
	<stop  offset="1" style="stop-color:#FEA852"/>
</radialGradient>
<path fill-rule="evenodd" clip-rule="evenodd" fill="url(#SVGID_2_)" d="M324.017,497.747c-14.226,4.712-36.502,5.109-60.05,4.819
	c-17.491-0.215-54.469,0.479-61.528-0.851c-12.926-2.435-6.315-15.62-4.916-22.262c1.437-6.83,2.153-20.799,1.807-28.2
	c-0.114-2.447-0.245-7.068-4.532-6.838c-4.655,1.417-9.04,2.227-13.088,2.614c-0.027,0.005-0.056,0.009-0.083,0.009
	c-0.33,0.031-0.658,0.063-0.982,0.086c-0.225,0.018-0.455,0.036-0.685,0.049c-0.212,0.018-0.424,0.031-0.634,0.045
	c-0.312,0.018-0.629,0.031-0.948,0.045c-0.156,0.009-0.313,0.018-0.468,0.023c-0.313,0.009-0.629,0.018-0.949,0.023
	c-0.17,0.005-0.341,0.009-0.509,0.009c-0.243,0.005-0.491,0.005-0.736,0.005c-0.245,0-0.493,0-0.736-0.005
	c-0.168,0-0.34-0.004-0.509-0.009c-0.319-0.005-0.636-0.013-0.951-0.023c-0.154-0.005-0.31-0.013-0.466-0.023
	c-0.319-0.013-0.638-0.027-0.949-0.045c-0.21-0.014-0.421-0.027-0.633-0.045c-0.23-0.013-0.46-0.031-0.685-0.049
	c-0.326-0.023-0.652-0.054-0.982-0.086c-0.027,0-0.056-0.005-0.082-0.009c-4.048-0.387-8.433-1.196-13.088-2.614
	c-4.287-0.229-4.418,4.391-4.532,6.838c-0.346,7.401,0.37,21.37,1.807,28.2c1.399,6.641,7.426,19.826-4.916,22.262
	c-7.048,1.391-47.599,0.841-65.09,0.977c-26.636,0.206-50.153-2.574-58.699-7.171c-6.332-3.406-5.137-14.784,8.111-21.632
	c16.658-8.612,85.93,4.858,90.507,4.534c9.669-0.684,7.745-10.991,7.828-15.881c0.159-9.138-7.295-13.812-13.657-17.852
	c-6.362-4.04-38.161-18.154-38.161-49.319c0-16.022,4.356-37.626,24.892-68.395c49.999-74.915,50.603-109.278,51.529-113.435
	c0.927-4.157,5.217-11.7,19.467-11.47c14.25,0.231,19.879,8.532,21.108,13.287s-0.896,33.096,49.876,111.618
	c20.088,31.068,24.892,52.374,24.892,68.395c0,31.165-31.799,45.279-38.161,49.319c-6.362,4.04-13.815,8.715-13.657,17.852
	c0.082,4.891-1.498,16.467,8.109,16.673c4.586,0.104,73.566-11.531,90.226-2.919C331.363,483.143,331.538,495.256,324.017,497.747z"
	/>
<g id="形状_3_拷贝_4_">
	<g>
		<path fill-rule="evenodd" clip-rule="evenodd" fill="#E5432E" d="M222.423,23.079c-0.763-1.206-1.698-0.918-2.468-0.553
			c-30.323,14.279-39.616,41.24-42.422,54.705c-3.9-16.245-14.92-41.317-42.602-54.981c-1.141-0.562-2.509-0.824-3.017,1.104
			c0,0-9.886,45.176,35.699,68.343c-9.413,7.275-19.438,16.657,9.65,4.36c31.561,13.394,18.541,2.445,9.466-4.269
			C232.474,68.617,222.423,23.079,222.423,23.079z"/>
	</g>
</g>
<path fill-rule="evenodd" clip-rule="evenodd" fill="#66361F" d="M177.497,158.052c9.016,0,22.11-13.008,28.176-25.48
	c-0.054-0.443,9.122,11.588,22.818,17.885c0.126-11.309-5.565-33.363-8.676-42.385c-7.005-20.313-22.547-31.32-42.402-31.329
	c-19.421-0.009-35.057,11.011-41.64,30.076c-3.115,9.025-4.793,17.374-6.328,24.122c-0.072,0.317-2.516,15.203-2.621,15.597
	c4.671-0.72,8.729,0,21.856-13.965C148.255,132.628,164.139,158.052,177.497,158.052z"/>
<g id="形状_9_6_">
	<g>
		
			<radialGradient id="SVGID_3_" cx="473.0122" cy="25.5785" r="86.7022" gradientTransform="matrix(0.9858 0 0 0.9937 -375.1668 -11.4705)" gradientUnits="userSpaceOnUse">
			<stop  offset="0" style="stop-color:#FECD97"/>
			<stop  offset="1" style="stop-color:#FEA852"/>
		</radialGradient>
		<path fill-rule="evenodd" clip-rule="evenodd" fill="url(#SVGID_3_)" d="M155.775,83.925
			c-6.896-57.46-60.065-73.016-60.065-73.016s-9.403-5.997-10.698,0.553c-13.987,82.554,45.072,100.333,49.162,100.336
			C140.531,111.804,157.993,102.406,155.775,83.925z"/>
	</g>
</g>
<radialGradient id="SVGID_4_" cx="322.1488" cy="-525.7379" r="179.3223" gradientTransform="matrix(-0.5943 -0.7124 0.7697 -0.6536 681.0348 425.1866)" gradientUnits="userSpaceOnUse">
	<stop  offset="0" style="stop-color:#FECD97"/>
	<stop  offset="1" style="stop-color:#FEA852"/>
</radialGradient>
<path fill="url(#SVGID_4_)" d="M149.385,419.711c0.507,15.2-4.942,30.711-20.364,45.71c-13.976,13.593-24.944,19.292-42.148,24.545
	c-17.66,5.392-31.185,9.496-11.278,12.417c1.268,0.186,34.137,3.753,69.18-4.854c26.887-6.603,43.791-20.352,58.716-45.752
	c26.327-44.803-5.942-82.943-38.045-70.803C145.004,388.703,149.19,413.861,149.385,419.711z"/>
<path fill="#FFBF80" d="M185.719,451.202c-15.045,17.061-30.961,31.859-52.624,39.423c-19.092,6.666-49.008,12.376-49.008,12.376
	c22.479-0.199,43.896,0.483,68.204-7.573c24.675-8.178,38.407-22.162,51.202-43.651c14.529-24.403,5.978-61.609,5.978-61.609
	C205.409,408.344,207.083,426.974,185.719,451.202z"/>
<g id="形状_9_8_">
	<g>
		
			<radialGradient id="SVGID_5_" cx="201.7682" cy="25.5785" r="86.7022" gradientTransform="matrix(-0.9858 0 0 0.9937 462.6929 -11.4705)" gradientUnits="userSpaceOnUse">
			<stop  offset="0" style="stop-color:#FECD97"/>
			<stop  offset="1" style="stop-color:#FEA852"/>
		</radialGradient>
		<path fill-rule="evenodd" clip-rule="evenodd" fill="url(#SVGID_5_)" d="M269.897,11.462c-1.294-6.55-10.698-0.553-10.698-0.553
			s-53.169,15.556-60.065,73.016c-2.218,18.48,15.244,27.879,21.601,27.873C224.825,111.795,283.884,94.017,269.897,11.462z"/>
	</g>
</g>
</svg>
