<?xml version="1.0" encoding="utf-8"?>
<!-- Generator: Adobe Illustrator 17.0.0, SVG Export Plug-In . SVG Version: 6.00 Build 0)  -->
<!DOCTYPE svg PUBLIC "-//W3C//DTD SVG 1.1//EN" "http://www.w3.org/Graphics/SVG/1.1/DTD/svg11.dtd">
<svg version="1.1" id="图层_1" xmlns="http://www.w3.org/2000/svg" xmlns:xlink="http://www.w3.org/1999/xlink" x="0px" y="0px"
	 width="269.183px" height="371.517px" viewBox="0 0 269.183 371.517" enable-background="new 0 0 269.183 371.517"
	 xml:space="preserve">
<radialGradient id="SVGID_1_" cx="65.6531" cy="281.8197" r="56.7147" gradientTransform="matrix(1.0359 -0.0612 -0.0612 1.1046 49.527 -84.5892)" gradientUnits="userSpaceOnUse">
	<stop  offset="0" style="stop-color:#FFDECC"/>
	<stop  offset="0.5179" style="stop-color:#F9DCC0"/>
	<stop  offset="1" style="stop-color:#FCEBCE"/>
</radialGradient>
<path fill-rule="evenodd" clip-rule="evenodd" fill="url(#SVGID_1_)" d="M117.995,238.752c0,0-31.14,5.605-79.552-24.77
	c-20.309-12.673-27.36-27.719-21.466-36.245c5.902-8.521,14.811-3.794,24.152,2.372c8.162,5.386,18.983,21.494,43.639,28.435
	c15.963,4.494,23.916-9.444,28.848-5.044C123.715,212.509,117.995,238.752,117.995,238.752z"/>
<path fill-rule="evenodd" clip-rule="evenodd" fill="#F6BF96" d="M26.448,179.151c3.142,3.012,10.348,9.02,7.996,7.957
	c-4.175-1.885-9.099-5.833-12.699-9.401c-0.951-0.944-1.655-1.823-2.25-2.663c0.761-0.596,1.552-1.059,2.379-1.366
	C23.098,175.498,24.365,177.163,26.448,179.151z"/>
<path fill-rule="evenodd" clip-rule="evenodd" fill="#F6BF96" d="M21.272,185.287c5.373,5.664,11.625,9.585,6.816,7.266
	c-5.8-2.801-9.409-6.532-12.118-10.371c-0.189-0.267-0.408-0.635-0.622-0.993c0.219-0.723,0.581-1.381,0.939-2.04
	C17.606,181.018,19.184,183.085,21.272,185.287z"/>
<radialGradient id="SVGID_2_" cx="383.5901" cy="352.3727" r="67.043" gradientTransform="matrix(1.1752 0.1007 0.1007 1.0621 -324.2089 -192.2549)" gradientUnits="userSpaceOnUse">
	<stop  offset="0" style="stop-color:#FFDECC"/>
	<stop  offset="0.5179" style="stop-color:#F9DCC0"/>
	<stop  offset="1" style="stop-color:#FCEBCE"/>
</radialGradient>
<path fill-rule="evenodd" clip-rule="evenodd" fill="url(#SVGID_2_)" d="M144.504,238.633c0,0,35.437,6.639,89.418-20.537
	c22.648-11.334,30.208-25.482,23.288-33.901c-6.929-8.413-16.886-4.241-27.294,1.296c-9.094,4.836-20.894,19.851-48.629,25.509
	c-17.956,3.664-27.362-10.03-32.824-6.009C137.278,213.226,144.504,238.633,144.504,238.633z"/>
<path fill-rule="evenodd" clip-rule="evenodd" fill="#F6BF96" d="M247.699,185.858c-3.358,2.83-11.052,8.476-8.549,7.476
	c4.444-1.775,9.7-5.486,13.549-8.838c1.017-0.887,1.771-1.712,2.409-2.502c-0.803-0.557-1.637-0.99-2.512-1.277
	C251.283,182.426,249.925,183.99,247.699,185.858z"/>
<path fill-rule="evenodd" clip-rule="evenodd" fill="#F6BF96" d="M253.137,191.603c-5.747,5.321-12.411,9.009-7.291,6.826
	c6.176-2.636,10.035-6.142,12.941-9.746c0.203-0.251,0.438-0.596,0.669-0.932c-0.226-0.677-0.604-1.294-0.978-1.911
	C257.062,187.594,255.371,189.535,253.137,191.603z"/>
<radialGradient id="SVGID_3_" cx="136.4586" cy="212.5578" r="77.5777" gradientUnits="userSpaceOnUse">
	<stop  offset="0" style="stop-color:#FFDECC"/>
	<stop  offset="0.5179" style="stop-color:#F9DCC0"/>
	<stop  offset="1" style="stop-color:#FCEBCE"/>
</radialGradient>
<path fill="url(#SVGID_3_)" d="M220.987,347.288c-14.598-17.908-43.27-5.723-55.301-3.28c-9.374,1.904-8.473-11.668,4.043-24.702
	c12.349-12.86,24.353-23.773,3.494-77.146c-8.373-21.425-6.017-38.86-6.017-38.86l-31.347,13.188l-37.092-13.188
	c0,0,2.519,21.156-4.93,42.919c-15.967,46.651-7.505,60.398,5.831,72.593c14.32,13.095,16.517,27.177,7.299,24.622
	c-10.958-3.038-40.211-16.763-54.211,2.146c-12.666,17.108,17.316,15.768,18.614,15.768c1.297,0,47.407,0.02,52.337,0.01
	c4.93-0.01,9.696-4.36,7.603-16.83c-2.093-12.47-4.394-15.716-4.104-17.456c0.242-1.453,2.228,0.534,8.833,0.534
	c5.811,0,7.993-1.901,8.235-0.448c0.29,1.74-1.453,4.901-3.546,17.371c-2.093,12.47,2.673,16.82,7.603,16.83
	c4.93,0.01,51.04-0.01,52.337-0.01C201.964,361.349,234.973,364.447,220.987,347.288z"/>
<path fill="#FCEED7" d="M112.158,265.584c-2.598,12.543-12.272,51.787,22.891,51.787s27.906-36.943,24.278-51.787
	c-3.628-14.843-9.633-25.399-24.278-26.058C120.404,238.866,113.494,259.132,112.158,265.584z"/>
<path fill-rule="evenodd" clip-rule="evenodd" fill="#EFBB93" d="M63.668,361.024c0,0,0.398,0.092,2.183,0.252
	c0,0-0.312-6.51,7.481-10.946c5.267-2.998,1.676-2.41-3.142,0.13C65.183,353.1,64.216,357.411,63.668,361.024z"/>
<path fill-rule="evenodd" clip-rule="evenodd" fill="#EFBB93" d="M52.077,357.54c0,0,0.201,0.345,2.105,1.279
	c0,0-0.631-5.01,5.62-9.59c5.388-3.948,0.359-1.971-2.963,0.628C54.87,351.395,52.183,354.294,52.077,357.54z"/>
<path fill-rule="evenodd" clip-rule="evenodd" fill="#EFBB93" d="M210.974,361.325c0,0-1.298,0.167-2.665,0.082
	c0,0,0.654-5.725-7.139-10.162c-5.267-2.998-1.676-2.41,3.142,0.13C209.317,354.016,210.426,357.712,210.974,361.325z"/>
<path fill-rule="evenodd" clip-rule="evenodd" fill="#EFBB93" d="M221.069,359.166c0,0-0.376,0.575-2.211,0.966
	c0,0,0.737-5.01-5.514-9.59c-5.388-3.948-0.359-1.971,2.963,0.628C218.275,352.709,220.962,355.92,221.069,359.166z"/>
<g id="形状_20_3_">
	<g>
		<path fill="#FCEACB" d="M97.692,44.778C77.439,8.324,33.345,7.428,30.84,13.396C6.034,78.297,69.685,98.021,69.685,98.021
			c22.282,6.683,31.063-7.053,31.063-7.053S111.212,69.132,97.692,44.778z"/>
	</g>
</g>
<g id="形状_21_3_">
	<g>
		<path fill="#FFBD99" d="M53.134,43.256C40.151,79.794,81.281,93.861,81.281,93.861s8.508,2.234,11.844-9.667
			C98.285,60.446,56.334,34.116,53.134,43.256z"/>
	</g>
</g>
<g id="形状_20_拷贝_2_">
	<g>
		<path fill="#FCEACB" d="M239.715,14.14c-2.153-6.105-48.758-11.356-71.663,31.459c-14.415,26.952,0.36,48.237,0.36,48.237
			s4.73,8.064,27.428,2.682C195.841,96.518,260.72,80.49,239.715,14.14z"/>
	</g>
</g>
<g id="形状_21_拷贝_2_">
	<g>
		<path fill-rule="evenodd" clip-rule="evenodd" fill="#FFBD99" d="M215.644,42.717c-2.667-9.331-46.209,14.559-42.446,38.614
			c2.634,12.086,11.284,10.345,11.284,10.345S226.483,80.002,215.644,42.717z"/>
	</g>
</g>
<g id="脸_15_">
	<g>
		<path fill="#FCEBCE" d="M206.422,105.878c-13.642-48.317-45.99-60.743-69.797-60.407c-23.849-0.659-59.796,11.991-70.978,59.463
			c-2.611,16.528-11.49,29.602-8.462,50.417c3.029,20.816,9.869,30.832,39.232,50.417c6.102,4.573,10.508,4.573,17.686,9.93
			c7.185,5.356,15.22,7.742,29.232,6.115c0.219-0.025,0.438-0.075,0.651-0.137c5.601-0.931,9.982-3.007,14.074-6.064
			c7.172-5.356,11.571-5.356,17.673-9.93c29.326-19.573,36.16-29.576,39.188-50.38C217.944,134.486,209.17,115.597,206.422,105.878z
			"/>
	</g>
</g>
<g id="脸_9_">
	<g>
		
			<radialGradient id="SVGID_4_" cx="214.279" cy="224.0082" r="52.6617" gradientTransform="matrix(1.0249 0 0 1.0176 -19.7103 -24.2157)" gradientUnits="userSpaceOnUse">
			<stop  offset="0" style="stop-color:#FFDECC"/>
			<stop  offset="0.5179" style="stop-color:#F9DCC0"/>
			<stop  offset="1" style="stop-color:#FCEBCE"/>
		</radialGradient>
		<path fill="url(#SVGID_4_)" d="M150.478,153.944c-21.451,20.273-14.075,68.736-6.598,67.867c0.219-0.025,0.438-0.075,0.651-0.137
			c5.601-0.931,9.982-3.007,14.074-6.064c7.172-5.356,11.571-5.356,17.673-9.93c29.326-19.573,36.159-29.576,39.188-50.38
			C216.875,145.592,169.229,136.222,150.478,153.944z"/>
	</g>
</g>
<g id="脸_7_">
	<g>
		
			<radialGradient id="SVGID_5_" cx="75.5645" cy="224.2556" r="57.7004" gradientTransform="matrix(1.0249 0 0 1.0176 -19.7103 -24.2157)" gradientUnits="userSpaceOnUse">
			<stop  offset="0" style="stop-color:#FFDECC"/>
			<stop  offset="0.5179" style="stop-color:#F9DCC0"/>
			<stop  offset="1" style="stop-color:#FCEBCE"/>
		</radialGradient>
		<path fill="url(#SVGID_5_)" d="M106.153,145.93c-20.852-16.994-50.36-0.152-48.967,9.421c3.029,20.816,9.869,30.832,39.232,50.417
			c6.102,4.573,10.508,4.573,17.686,9.93c7.185,5.356,29.67,6.039,29.883,5.977C147.011,221.171,130.641,165.887,106.153,145.93z"/>
	</g>
</g>
<g id="形状_77_40_">
	<g>
		<path fill-rule="evenodd" clip-rule="evenodd" fill="#FFBD99" d="M78.407,164.435c-6.131-0.525-11.345,1.881-11.638,5.373
			c-0.299,3.493,4.427,6.741,10.556,7.266c6.137,0.525,11.346-1.881,11.644-5.373C89.268,168.209,84.537,164.961,78.407,164.435z"/>
	</g>
</g>
<g id="形状_77_副本_4_">
	<g>
		<path fill="#FFBD99" d="M188.726,164.412c-6.149,0.208-11.039,3.211-10.929,6.704c0.116,3.505,5.196,6.179,11.344,5.971
			c6.155-0.195,11.045-3.199,10.93-6.704C199.955,166.89,194.88,164.215,188.726,164.412z"/>
	</g>
</g>
<path fill="#F7CC9D" d="M93.485,78.572c1.504,9.855,6.187,12.154,12.244,13.749c7.454,1.963,12.505-4.721,15.156-7.62
	c0,0,3.92,10.103,10.788,13.088c7.324,3.184,12.644,1.197,15.887-3.416c1.965-2.796,2.029-7.991,2.029-7.991s5.514,7.267,15.1,5.81
	c5.71-0.868,6.691-5.625,7.425-8.827c0.733-3.2-0.176-6.438-0.176-6.438s5.811,7.467,3.181,15.122
	c-1.864,5.423-7.055,8.876-13.128,7.388c-4.212-1.032-10.322-6.117-10.322-6.117s-1.239,7.299-6.662,10.257
	c-5.425,2.96-12.767,1.784-17.14-1.432c-4.373-3.217-7.91-10.239-7.91-10.239s-3.301,5.788-10.275,8.106
	c-4.114,1.368-11.49,0.802-15.275-6.193C90.6,86.78,93.485,78.572,93.485,78.572z"/>
<g id="形状_75_2_">
	<g>
		<path fill-rule="evenodd" clip-rule="evenodd" fill="#552F19" d="M80.762,144.571c-11.766,0.354-14.864,1.687-13.816,4.095
			c0.808,1.858,2.94-0.761,13.919,0.162c17.981,1.503,26.919,12.354,28.214,7.141C110.455,150.415,94.849,144.147,80.762,144.571z"
			/>
	</g>
</g>
<g id="形状_75_副本_2_">
	<g>
		<path fill-rule="evenodd" clip-rule="evenodd" fill="#713D1F" d="M190.339,144.188c-14.089-0.028-29.512,6.676-27.986,12.188
			c1.441,5.174,10.071-5.923,28.003-7.931c10.955-1.23,13.154,1.328,13.909-0.552C205.251,145.457,202.11,144.211,190.339,144.188z"
			/>
	</g>
</g>
<g id="形状_19_3_">
	<g>
		<path fill="#57301B" d="M134.295,195.263c-22.207-0.256-20.265,6.754-20.265,6.754s3.84,13.92,21.015,13.518
			c17.176-0.415,20.26-13.518,20.26-13.518S156.496,195.52,134.295,195.263z"/>
	</g>
</g>
</svg>
