<?xml version="1.0" encoding="utf-8"?>
<!-- Generator: Adobe Illustrator 17.0.0, SVG Export Plug-In . SVG Version: 6.00 Build 0)  -->
<!DOCTYPE svg PUBLIC "-//W3C//DTD SVG 1.1//EN" "http://www.w3.org/Graphics/SVG/1.1/DTD/svg11.dtd">
<svg version="1.1" id="图层_1" xmlns="http://www.w3.org/2000/svg" xmlns:xlink="http://www.w3.org/1999/xlink" x="0px" y="0px"
	 width="269.183px" height="371.517px" viewBox="0 0 269.183 371.517" enable-background="new 0 0 269.183 371.517"
	 xml:space="preserve">
<path fill="#FFDAB8" d="M97.551,90.057c0,0-12.032-35.315,16.262-70.59s38.368-8.971,43.015,1.549s5.485,39.27,0.455,47.934
	c-5.03,8.664-24.522,34.037-24.522,34.037L97.551,90.057z"/>
<path fill="#FFDAB8" d="M114.863,327.993c0,0,2.475,2.884,11.406,3.366c8.931,0.483,9.462,10.313,8.014,12.485
	c-1.448,2.172-4.103,4.586-11.103,2.414c-7-2.172-26.392-5.991-38.964-5.087c-19.154,1.378-25.143,13.862-18.511,19.327
	c3.45,2.843,14.774,5.551,31.177,4.827c16.402-0.724,48.394,0.483,51.291-7c2.896-7.482,13.073-8.733,2.414-22.689
	C139.926,321.683,118.725,328.959,114.863,327.993z"/>
<path fill="#FFDAB8" d="M101.308,243.332c0,0-12.31,43.067-19.068,55.135c-6.758,12.068,0.724,21.964,7.965,20.516
	c7.241-1.448,9.477-3.862,10.29-11.827C101.308,299.191,102.273,248.78,101.308,243.332z"/>
<radialGradient id="SVGID_1_" cx="175.1196" cy="301.7646" r="71.2271" fx="215.5045" fy="348.7545" gradientUnits="userSpaceOnUse">
	<stop  offset="0" style="stop-color:#FFDECC"/>
	<stop  offset="0.5179" style="stop-color:#F9DCC0"/>
	<stop  offset="1" style="stop-color:#FCEBCE"/>
</radialGradient>
<path fill="url(#SVGID_1_)" d="M99.288,249.229c0,0-3.762,22.177-4.256,41.112c-0.46,17.632,0.145,29.681,19.073,39.262
	c15.666,7.93,25.487-1.835,28.557,8.367c2.816,9.358,2.691,11.322-8.371,9.011c-16.195-3.383-46.838-8.829-51.979,10.298
	c-5.366,19.965,60.993,10.298,71.935,9.655c10.942-0.644,12.001-7.866,8.261-16.234c-3.74-8.367-4.329-26.266,9.162-24.736
	c1.975,0.224,51.777,11.825,65.117-42.061c0.491-19.309-15.519,28.99-42.538,13.088c0,0-22.55-9.812-31.612-45.083
	c-8.612-33.52-2.303-4.408-5.574-14.267S99.288,249.229,99.288,249.229z"/>
<path fill="#FCEED7" d="M97.222,263.67c0,0-2.798,20.89-2.171,37.199s8.358,22.832,15.892,27.011
	C124.01,335.128,134.728,254.562,97.222,263.67z"/>
<path fill="#FCEACB" d="M141.678,80.719c0,0,19.925-39.571,51.624-49.62c31.178-9.883,54.942-7.469,51.546,18.159
	c-2.853,21.527-13.654,55.387-69.945,69.373C107.26,135.437,141.678,80.719,141.678,80.719z"/>
<path fill="#FFBD99" d="M152.482,94.429c0,0,14.366-30.093,48.128-39.708c28.52-8.122,25.396,6.147,21.53,17.842
	c-3.866,11.695-17.425,31.453-51.693,36.151C134.073,113.7,152.482,94.429,152.482,94.429z"/>
<radialGradient id="SVGID_2_" cx="125.0715" cy="173.0898" r="89.3217" fx="175.7158" fy="232.0171" gradientTransform="matrix(1 0 0 0.6854 0 54.4598)" gradientUnits="userSpaceOnUse">
	<stop  offset="0" style="stop-color:#FFDECC"/>
	<stop  offset="0.5179" style="stop-color:#F9DCC0"/>
	<stop  offset="1" style="stop-color:#FCEBCE"/>
</radialGradient>
<path fill="url(#SVGID_2_)" d="M191.317,121.223c0,0-11.046-43.278-61.995-45.689c-38.669-1.83-58.161,11.888-69.711,31.729
	c-11.352,19.5-8.847,41.228-23.993,52.491c-16.025,11.916-16.837,27.984,4.495,48.845c13.336,13.041,30.336,18.846,43.97,21.01
	c12.666,2.01,15.85,4.103,14.554,23.654c-1.104,16.651,58.314-4.345,60.245-10.137s-5.631-16.668,0.643-27.485
	C165.984,204.506,206.27,181.345,191.317,121.223z"/>
<path fill="#FFDAB8" d="M87.662,230.03c0,0,20.34,1.836,33.463-2.129c13.668-4.129,7.031,5.043-22.303,21.965
	c0,0,0.923-9.106-2.106-14.815C93.696,231.455,92.934,231.858,87.662,230.03z"/>
<g id="形状_77_48_">
	<g>
		<path fill-rule="evenodd" clip-rule="evenodd" fill="#FFBD99" d="M151.104,175.526c-0.559-5.308-9.517-8.524-20.001-7.2
			c-10.487,1.324-18.538,6.702-17.969,12.008c0.559,5.308,9.506,8.526,19.991,7.202C143.622,186.21,151.662,180.834,151.104,175.526
			z"/>
	</g>
</g>
<radialGradient id="SVGID_3_" cx="140.0567" cy="321.8698" r="72.6072" gradientUnits="userSpaceOnUse">
	<stop  offset="0" style="stop-color:#F9C9A8"/>
	<stop  offset="0.5179" style="stop-color:#F9DCC0"/>
	<stop  offset="1" style="stop-color:#FCEBCE"/>
</radialGradient>
<path fill="url(#SVGID_3_)" d="M127.55,259.889c0,0,2.266,33.671,0,45.256s11.929,18.666,18.348,14.804
	c6.419-3.862,11.641-9.406,0-60.06C137.513,223.402,127.55,259.889,127.55,259.889z"/>
<path fill-rule="evenodd" clip-rule="evenodd" fill="#EFBB93" d="M138.273,307.483c-0.369,2.334-1.715,8.533-3.545,11.606
	c0.569,0.339,1.237,0.744,1.959,0.934c0.806-1.579,1.798-5.483,2.196-7.392C139.722,308.629,138.772,304.346,138.273,307.483z"/>
<path fill-rule="evenodd" clip-rule="evenodd" fill="#EFBB93" d="M146.386,309.912c-0.483,2.487-2.045,7.855-4.121,11.08
	c0.451,0,0.759-0.065,1.177-0.137c0.418-0.072,0.933-0.183,1.282-0.349c0.923-1.662,2.275-6.217,2.471-8.299
	C147.619,307.689,147.04,306.568,146.386,309.912z"/>
<path fill-rule="evenodd" clip-rule="evenodd" fill="#EFBB93" d="M91.658,367.871c0,0,0.732,0.207,2.486,0.572
	c0,0,0.063-6.293,8.316-9.799c5.578-2.37,1.943-2.2-3.136-0.233C94.046,360.454,92.62,364.346,91.658,367.871z"/>
<path fill-rule="evenodd" clip-rule="evenodd" fill="#EFBB93" d="M83.942,364.044c0,0,0.16,0.366,1.943,1.514
	c0,0-0.048-5.049,6.69-8.877c5.808-3.3,0.584-1.916-3.016,0.281C87.426,358.263,84.423,360.832,83.942,364.044z"/>
<path fill-rule="evenodd" clip-rule="evenodd" fill="#EEBE9F" d="M68.98,362.275c0,0,0.562,0.284,2.302,0.785
	c0,0-0.015-5.588,8.238-9.095c5.578-2.37,1.943-2.2-3.136-0.233C71.106,355.776,69.942,358.749,68.98,362.275z"/>
<path fill-rule="evenodd" clip-rule="evenodd" fill="#EEBE9F" d="M63.58,357.641c0,0,0.312,1.144,1.56,2.345
	c0,0-0.144-4.899,6.593-8.727c5.808-3.3,0.584-1.916-3.016,0.281C66.585,352.842,64.06,354.429,63.58,357.641z"/>
<path fill-rule="evenodd" clip-rule="evenodd" fill="#EEBE9F" d="M91.363,306.634c-0.267,2.345-0.8,8.645,0.036,12.103
	c-0.589,0.169-1.04,0.269-1.931,0.354c-0.311-1.74-0.085-5.734,0.048-7.679C89.791,307.334,91.718,303.481,91.363,306.634z"/>
<path fill-rule="evenodd" clip-rule="evenodd" fill="#EEBE9F" d="M85.435,306.32c-0.437,2.494-0.936,8.063-0.263,11.813
	c-0.385-0.161-0.627-0.331-0.959-0.547c-0.333-0.216-0.735-0.503-0.976-0.783c-0.221-1.881,0.179-6.615,0.723-8.629
	C85.14,303.805,86.018,302.966,85.435,306.32z"/>
<path fill="#57301B" d="M114.845,163.099c-17.415,0.578-24.235-7.887-26.941-12.085c-1.963-3.046-1.001-7.139,2.647-4.304
	c6.892,5.357,12.01,9.128,25.305,9.124c11.542-0.004,20.008-5.125,23.471-10.312c0.911-1.363,2.01-0.389,1.523,1.7
	C139.734,152.008,132.882,162.5,114.845,163.099z"/>
<path fill="#57301B" d="M30.313,162.977c-7.418,2.21-14.82,8.275-7.256,22.527c7.564,14.252,20.465,4.578,20.463-12.336
	C43.519,164.662,40.729,161.553,30.313,162.977z"/>
<path fill="#F7CC9D" d="M62.709,102.379c0,0-2.948,19.386,24.523,3.366c0.641-0.374,1.826-1.208,2.692,0.375
	c0.487,0.89,2.226,7.861,11.612,8.462c7.007,0.448,14.015-7.653,15.953-14.486c0.845-2.978-2.753,1.463-3.372,2.022
	c-1.586,1.433-14.126,14.588-22.819-0.641c-0.483-0.846-1.146-2.379-3.568-1.056c-1.591,0.869-17.81,10.557-22.398-1.576
	C65.332,98.845,63.501,101.304,62.709,102.379z"/>
</svg>
