<?xml version="1.0" encoding="utf-8"?>
<!-- Generator: Adobe Illustrator 17.0.0, SVG Export Plug-In . SVG Version: 6.00 Build 0)  -->
<!DOCTYPE svg PUBLIC "-//W3C//DTD SVG 1.1//EN" "http://www.w3.org/Graphics/SVG/1.1/DTD/svg11.dtd">
<svg version="1.1" id="图层_1" xmlns="http://www.w3.org/2000/svg" xmlns:xlink="http://www.w3.org/1999/xlink" x="0px" y="0px"
	 width="269.183px" height="371.517px" viewBox="0 0 269.183 371.517" enable-background="new 0 0 269.183 371.517"
	 xml:space="preserve">
<radialGradient id="SVGID_1_" cx="99.1514" cy="259.491" r="56.7147" gradientTransform="matrix(1.048 -0.082 -0.082 1.1401 37.6158 -64.2456)" gradientUnits="userSpaceOnUse">
	<stop  offset="0" style="stop-color:#FFDECC"/>
	<stop  offset="0.5179" style="stop-color:#F9DCC0"/>
	<stop  offset="1" style="stop-color:#FCEBCE"/>
</radialGradient>
<path fill-rule="evenodd" clip-rule="evenodd" fill="url(#SVGID_1_)" d="M118.118,241.247c0,0-31.574,6.346-79.949-24.092
	c-20.295-12.697-27.147-28.083-21.035-36.982c6.12-8.893,15.038-4.182,24.367,2.006c8.151,5.405,18.793,21.817,43.587,28.525
	c16.052,4.343,24.343-10.174,29.247-5.727C124.377,214.084,118.118,241.247,118.118,241.247z"/>
<path fill-rule="evenodd" clip-rule="evenodd" fill="#F6BF96" d="M26.679,181.46c3.12,3.048,10.294,9.112,7.937,8.059
	c-4.185-1.867-9.089-5.849-12.664-9.462c-0.944-0.956-1.639-1.849-2.226-2.705c0.78-0.628,1.588-1.12,2.429-1.452
	C23.36,177.754,24.61,179.448,26.679,181.46z"/>
<path fill-rule="evenodd" clip-rule="evenodd" fill="#F6BF96" d="M21.337,187.88c5.328,5.743,11.575,9.672,6.757,7.368
	c-5.811-2.782-9.391-6.564-12.059-10.472c-0.186-0.272-0.4-0.647-0.611-1.012c0.234-0.749,0.612-1.435,0.986-2.12
	C17.709,183.546,19.266,185.649,21.337,187.88z"/>
<radialGradient id="SVGID_2_" cx="429.553" cy="344.7393" r="47.7606" gradientTransform="matrix(1.1473 0.0291 0.0855 1.0791 -355.7051 -155.4442)" gradientUnits="userSpaceOnUse">
	<stop  offset="0" style="stop-color:#FFDECC"/>
	<stop  offset="0.5179" style="stop-color:#F9DCC0"/>
	<stop  offset="1" style="stop-color:#FCEBCE"/>
</radialGradient>
<path fill-rule="evenodd" clip-rule="evenodd" fill="url(#SVGID_2_)" d="M141.063,241.749c0,0,34.55,4.558,87.636-26.606
	c22.271-13.006,29.832-27.939,23.172-36.107c-6.668-8.162-16.451-3.272-26.689,3.04c-8.946,5.514-20.661,21.599-47.835,29.124
	c-17.593,4.872-26.618-8.53-32.005-4.078C134.312,216.239,141.063,241.749,141.063,241.749z"/>
<path fill-rule="evenodd" clip-rule="evenodd" fill="#F6BF96" d="M241.415,180.702c-3.428,3.041-11.306,9.134-8.721,8.024
	c4.59-1.969,9.975-5.979,13.903-9.577c1.038-0.952,1.802-1.833,2.447-2.673c-0.852-0.56-1.735-0.99-2.655-1.266
	C245.063,177.027,243.688,178.695,241.415,180.702z"/>
<path fill-rule="evenodd" clip-rule="evenodd" fill="#F6BF96" d="M247.241,186.552c-5.855,5.703-12.711,9.726-7.426,7.313
	c6.374-2.913,10.307-6.672,13.244-10.509c0.205-0.267,0.441-0.633,0.673-0.99c-0.254-0.701-0.665-1.334-1.071-1.968
	C251.229,182.266,249.516,184.336,247.241,186.552z"/>
<radialGradient id="SVGID_3_" cx="136.1815" cy="215.7352" r="77.5777" gradientUnits="userSpaceOnUse">
	<stop  offset="0" style="stop-color:#FFDECC"/>
	<stop  offset="0.5179" style="stop-color:#F9DCC0"/>
	<stop  offset="1" style="stop-color:#FCEBCE"/>
</radialGradient>
<path fill="url(#SVGID_3_)" d="M220.71,350.465c-14.598-17.908-43.27-5.723-55.301-3.28c-9.374,1.904-8.473-11.668,4.043-24.702
	c12.349-12.86,24.353-23.773,3.494-77.146c-8.373-21.425-6.017-38.86-6.017-38.86l-31.347,13.188l-37.092-13.188
	c0,0,2.519,21.156-4.93,42.919c-15.967,46.651-7.505,60.398,5.831,72.593c14.32,13.095,16.517,27.177,7.299,24.622
	c-10.958-3.038-40.211-16.763-54.211,2.146c-12.666,17.108,17.316,15.768,18.614,15.768c1.297,0,47.407,0.02,52.337,0.01
	c4.93-0.01,9.696-4.36,7.603-16.83c-2.093-12.47-4.394-15.716-4.104-17.456c0.242-1.453,2.911,0.534,8.833,0.534
	c4.919,0,7.993-1.901,8.235-0.448c0.29,1.74-1.453,4.901-3.546,17.371c-2.093,12.47,2.673,16.82,7.603,16.83
	c4.93,0.01,51.04-0.01,52.337-0.01C201.687,364.527,234.696,367.624,220.71,350.465z"/>
<g id="脸_17_">
	<g>
		
			<radialGradient id="SVGID_4_" cx="409.656" cy="253.1312" r="120.1238" gradientTransform="matrix(1.0083 0 0 1.0104 -275.0015 -14.2746)" gradientUnits="userSpaceOnUse">
			<stop  offset="0" style="stop-color:#FFDECC"/>
			<stop  offset="0.5179" style="stop-color:#F9DCC0"/>
			<stop  offset="1" style="stop-color:#FCEBCE"/>
		</radialGradient>
		<path fill="url(#SVGID_4_)" d="M201.787,108.627c-13.421-47.974-45.245-60.312-68.667-59.979
			c-23.463-0.654-58.828,11.906-69.829,59.041c-2.568,16.41-11.304,29.392-8.324,50.059c2.979,20.669,9.709,30.614,38.596,50.059
			c6.003,4.541,10.338,4.541,17.399,9.859c7.069,5.318,14.973,7.687,28.759,6.071c0.215-0.025,0.431-0.075,0.64-0.136
			c5.51-0.925,9.82-2.986,13.846-6.021c7.056-5.318,11.383-5.318,17.387-9.859c28.851-19.434,35.574-29.367,38.554-50.022
			C213.123,137.032,204.491,118.277,201.787,108.627z"/>
	</g>
</g>
<g id="形状_20_拷贝_6_">
	<g>
		
			<radialGradient id="SVGID_5_" cx="436.8609" cy="97.5438" r="75.3745" gradientTransform="matrix(1 0 0 1 -265.8205 0.0377)" gradientUnits="userSpaceOnUse">
			<stop  offset="0" style="stop-color:#FFDECC"/>
			<stop  offset="0.5179" style="stop-color:#F9DCC0"/>
			<stop  offset="1" style="stop-color:#FCEBCE"/>
		</radialGradient>
		<path fill="url(#SVGID_5_)" d="M250.949,19.591c-1.322-6.337-47.433-18.176-75.21,21.651c-18.816,26.98-8.789,39.742-4.839,45.515
			c3.95,5.773,14.281,11.84,28.133,10.717C199.033,97.474,262.945,88.144,250.949,19.591z"/>
	</g>
</g>
<g id="形状_20_8_">
	<g>
		
			<radialGradient id="SVGID_6_" cx="417.5003" cy="14.1723" r="70.4861" gradientTransform="matrix(0.9893 -0.146 0.146 0.9893 -314.8655 141.062)" gradientUnits="userSpaceOnUse">
			<stop  offset="0" style="stop-color:#FFDECC"/>
			<stop  offset="0.5179" style="stop-color:#F9DCC0"/>
			<stop  offset="1" style="stop-color:#FCEBCE"/>
		</radialGradient>
		<path fill="url(#SVGID_6_)" d="M94.249,42.189C72.095,6.857,23.472,9.885,22.505,19.979
			c-6.299,65.757,47.903,77.726,47.903,77.726c20.168,0.559,27.398-15.251,27.398-15.251S109.551,66.592,94.249,42.189z"/>
	</g>
</g>
<radialGradient id="SVGID_7_" cx="287.9059" cy="561.3591" r="104.434" gradientTransform="matrix(0.9125 0.409 -0.409 0.9125 91.5198 -369.0193)" gradientUnits="userSpaceOnUse">
	<stop  offset="0" style="stop-color:#FFDECC"/>
	<stop  offset="0.5179" style="stop-color:#F9DCC0"/>
	<stop  offset="1" style="stop-color:#FCEBCE"/>
</radialGradient>
<path fill-rule="evenodd" clip-rule="evenodd" fill="url(#SVGID_7_)" d="M117.401,267.193c-5.637,12.579,0.195,25.32,18,26.219
	c13.512,0.682,19.875,11.072,14.093,23.973c-2.704,6.034-16.079,12.753-34.477-1.009c-15.912-11.903-18.198-34.313-4.029-52.056
	S119.813,261.811,117.401,267.193z"/>
</svg>
