<?xml version="1.0" encoding="utf-8"?>
<!-- Generator: Adobe Illustrator 17.0.0, SVG Export Plug-In . SVG Version: 6.00 Build 0)  -->
<!DOCTYPE svg PUBLIC "-//W3C//DTD SVG 1.1//EN" "http://www.w3.org/Graphics/SVG/1.1/DTD/svg11.dtd">
<svg version="1.1" id="图层_1" xmlns="http://www.w3.org/2000/svg" xmlns:xlink="http://www.w3.org/1999/xlink" x="0px" y="0px"
	 width="484.975px" height="769.731px" viewBox="0 0 484.975 769.731" enable-background="new 0 0 484.975 769.731"
	 xml:space="preserve">
<g id="形状_13">
	<g>
		<path fill="#FF9B48" d="M215.975,339.257c0,0-32.061,13.754-63.788,45.116c-41.262,37.258-64.016,58.896-83.238,64.568
			c-3.129,1.611-14.362,5.372-21.737,7.194c-9.723,2.41-19.747,2.526-22.972,6.096c-1.631,1.802-0.72,4.696,0.833,5.959
			c1.552,1.269,6.716,1.29,6.716,1.29s-14.092,4.198-8.973,12.881c4.662,7.911,36.617-14.56,38.013-4.642
			c0.744,5.297-17.003,9.372-8.648,15.946c3.758,2.955,16.566-4.471,25.44-12.382c6.475-5.768,12.635-15.795,32.614-29.583
			c16.198-11.174,46.58-29.269,78.894-42.754C261.296,378.827,215.975,339.257,215.975,339.257z"/>
	</g>
</g>
<g id="形状_14">
	<g>
		<path fill="#CC7123" d="M45.258,461.167c-1.543,1.461-5.474,3.836-7.396,4.996c-3.949,2.376-7.427,3.228-7.427,3.228
			s1.03,0.273,2.627-0.156c4.649-1.243,10.68-3.843,13.417-6.219C48.633,461.16,47.479,459.065,45.258,461.167z"/>
	</g>
</g>
<g id="形状_13_2_">
	<g>
		<path fill-rule="evenodd" clip-rule="evenodd" fill="#FF9B48" d="M464.76,469.481c0,0,5.167-0.02,6.717-1.29
			c1.556-1.263,2.464-4.157,0.833-5.959c-3.221-3.57-13.249-3.686-22.969-6.096c-7.372-1.822-18.607-5.583-21.741-7.194
			c-19.222-5.672-41.972-27.31-83.238-64.568c-31.723-31.362-66.04-45.447-66.04-45.447s-43.068,39.901,29.099,70.02
			c32.317,13.484,62.695,31.579,78.897,42.754c19.979,13.788,26.136,23.815,32.614,29.583c8.873,7.911,21.679,15.337,25.44,12.382
			c8.355-6.573-9.392-10.649-8.648-15.946c1.393-9.918,33.351,12.553,38.013,4.642C478.856,473.679,464.76,469.481,464.76,469.481z"
			/>
	</g>
</g>
<g id="形状_14_2_">
	<g>
		<path fill-rule="evenodd" clip-rule="evenodd" fill="#CC7123" d="M458.692,466.163c-1.925-1.16-5.857-3.535-7.399-4.996
			c-2.219-2.102-3.372-0.007-1.222,1.849c2.737,2.376,8.771,4.976,13.419,6.219c1.597,0.43,2.628,0.156,2.628,0.156
			S462.637,468.539,458.692,466.163z"/>
	</g>
</g>
<radialGradient id="SVGID_1_" cx="253.8078" cy="411.3123" r="149.3823" gradientTransform="matrix(1 0 0 0.9295 0 28.9793)" gradientUnits="userSpaceOnUse">
	<stop  offset="0" style="stop-color:#FFC07D"/>
	<stop  offset="0.5713" style="stop-color:#FEB162"/>
	<stop  offset="1" style="stop-color:#FEA852"/>
</radialGradient>
<path fill-rule="evenodd" clip-rule="evenodd" fill="url(#SVGID_1_)" d="M473.136,755.443c-21.549,7.754-66.218,4.819-91.842,3.659
	c-26.726-1.208-83.517-9.317-94.104-12.246c-22.417-6.198-9.659-20.047-7.519-30.123c2.198-10.362,3.294-20.6,2.764-31.829
	c-0.174-3.713-0.375-10.723-6.932-10.375c-7.12,2.15-13.826,3.379-20.017,3.965c-0.041,0.007-0.085,0.014-0.127,0.014
	c-0.505,0.048-1.007,0.096-1.501,0.13c-0.345,0.027-0.696,0.055-1.048,0.075c-0.324,0.027-0.649,0.048-0.969,0.069
	c-0.477,0.027-0.962,0.047-1.45,0.068c-0.239,0.014-0.478,0.027-0.716,0.034c-0.478,0.014-0.962,0.027-1.451,0.034
	c-0.259,0.007-0.522,0.013-0.778,0.013c-0.372,0.007-0.751,0.007-1.126,0.007c-0.375,0-0.754,0-1.126-0.007
	c-0.257,0-0.519-0.006-0.779-0.013c-0.488-0.007-0.972-0.02-1.454-0.034c-0.236-0.007-0.475-0.02-0.713-0.034
	c-0.489-0.02-0.976-0.041-1.451-0.068c-0.321-0.021-0.644-0.041-0.969-0.069c-0.352-0.02-0.703-0.047-1.048-0.075
	c-0.498-0.034-0.997-0.082-1.502-0.13c-0.041,0-0.085-0.007-0.126-0.014c-6.191-0.586-12.898-1.815-20.017-3.965
	c-6.556-0.348-6.758,6.662-6.932,10.375c-0.529,11.229,0.566,21.467,2.764,31.829c2.14,10.076,14.897,23.925-7.519,30.123
	c-10.587,2.929-72.855,10.696-99.552,12.437c-28.76,1.877-76.145,2.225-89.777-3.577c-7.529-3.208-7.856-22.43,12.406-32.819
	c25.477-13.065,131.425-7.236,138.425-7.727c14.788-1.037,11.846-5.72,11.973-13.14c0.243-13.863-11.157-20.955-20.887-27.085
	c-9.73-6.129-58.364-27.542-58.364-74.824c0-24.307,6.662-57.085,38.071-103.767c76.47-113.658,79.283-177.07,79.283-177.07
	l6.218-0.252c0.229-1.205,0.355-1.846,0.355-1.846l22.72,0.918l22.72-0.918c0,0,0.126,0.641,0.355,1.846l6.218,0.252
	c0,0,2.812,63.412,79.282,177.07c31.409,46.682,38.071,79.459,38.071,103.767c0,47.282-48.635,68.695-58.364,74.824
	c-9.73,6.13-21.13,13.222-20.887,27.085c0.126,7.42-2.291,14.028,12.402,14.341c7.013,0.157,112.514-6.539,137.995,6.526
	C484.371,733.286,480.835,752.672,473.136,755.443z"/>
<path fill-rule="evenodd" clip-rule="evenodd" fill="#DD7528" d="M43.476,731.15c-22.171,5.898-19.549,16.164-16.328,24.451
	c0.397,1.022,0.897,2.006,1.427,2.964c1.322,0.18,2.68,0.35,4.119,0.502c-7.656-17.643,3.4-23.157,13.171-26.606
	C50.158,730.945,46.534,730.337,43.476,731.15z"/>
<path fill-rule="evenodd" clip-rule="evenodd" fill="#DD7528" d="M70.496,730.317c-18.948,4.245-16.099,20.164-13.208,27.781
	c0.322,0.847,0.69,1.615,1.079,2.336c1.23,0.021,2.452,0.046,3.695,0.058c-5.377-16.254,1.575-23.27,7.101-27.008
	C72.222,731.414,77.264,728.802,70.496,730.317z"/>
<path fill-rule="evenodd" clip-rule="evenodd" fill="#DD7528" d="M460.897,758.412c0.266-0.751,0.54-1.42,0.799-2.266
	c2.423-7.979-0.184-22.396-15.775-26.307c-8.553-2.143-4.853,1.768-1.072,3.003c9.263,3.038,14,14.014,9.884,26.43
	C456.863,759.026,458.911,758.74,460.897,758.412z"/>
<path fill-rule="evenodd" clip-rule="evenodd" fill="#DD7528" d="M431.847,758.372c4.491-9.85,0.546-24.471-10.116-28.744
	c-4.239-1.031-0.28,2.683,2.771,5.863c4.123,4.287,6.259,14.642,2.634,22.478c-0.512,1.099-0.867,1.931-1.16,2.641
	c1.543,0,3.078-0.007,4.608-0.02C431.013,759.969,431.443,759.258,431.847,758.372z"/>
<g id="形状_12">
	<g>
		<linearGradient id="SVGID_2_" gradientUnits="userSpaceOnUse" x1="247.0203" y1="541.9354" x2="244.6974" y2="332.8782">
			<stop  offset="0" style="stop-color:#FFC28A"/>
			<stop  offset="0.7938" style="stop-color:#FFCD9F"/>
			<stop  offset="1" style="stop-color:#FFD0A5"/>
		</linearGradient>
		<path fill-rule="evenodd" clip-rule="evenodd" fill="url(#SVGID_2_)" d="M282.293,404.658
			c-15.887-25.972-55.252-23.406-70.777,1.966c-18.716,30.587-41.467,113.575-25.389,160.824
			c13.256,38.948,105.907,41.521,120.244,4.164C325.589,521.537,299.101,432.146,282.293,404.658z"/>
	</g>
</g>
<path opacity="0.6" fill-rule="evenodd" clip-rule="evenodd" fill="#DD7528" d="M138.024,525.419c0,0,42.928,10.668,111.889,10.668
	c65.023,0,77.071-3.774,111.231-11.549C362.134,525.501,256.197,709.587,138.024,525.419z"/>
<g id="形状_11_拷贝_2">
	<g>
		<path fill-rule="evenodd" clip-rule="evenodd" fill="#FFBF80" d="M358.354,525.487c-0.922,0.498-1.901,0.881-2.857,1.311
			c-31.577,14.116-68.989,18.505-98.276,19.399c-28.894,0.198-71.579-2.389-106.756-16.341c-3.085-1.222-7.437-2.683-10.406-4.109
			c-8.027-3.856-9.72,6.198-9.621,12.089c0.419,25.283,6.027,105.091,78.422,132.108c2.932,1.843,11.761,6.294,29.856,7.392
			c5.863,0.984,12.587,0.744,19.211-0.102c0.71-0.048,1.41-0.082,2.137-0.136c10.87-1.14,20.631-3.775,29.402-7.557
			c0.556-0.198,0.863-0.307,0.863-0.307v-0.055c55.02-24.375,70.559-94.613,74.907-128.845c0.324-2.539,0.498-4.887,0.795-6.983
			C367.303,524.334,361.176,523.958,358.354,525.487z"/>
	</g>
</g>
<path opacity="0.6" fill-rule="evenodd" clip-rule="evenodd" fill="#DD7528" d="M275.332,319.273
	c-8.476,5.022-20.068,11.951-26.538,12.903c-9.83,1.442-20.761-0.192-31.776-12.718c-0.053,0.864-0.388,5.217-1.886,12.825
	c3.173,10.136,9.96,20.925,24.553,22.649c17.15,2.027,29.903-11.727,37.595-23.801c-1.486-7.822-1.667-11.847-1.667-11.847
	L275.332,319.273z"/>
<g id="形状_9_1_">
	<g>
		<path fill-rule="evenodd" clip-rule="evenodd" fill="#FFC07D" d="M215.767,126.687c-36.3-79.958-91.866-110.777-91.866-110.777
			s-14.382-9.098-16.361,0.839c-21.392,125.248,78.023,153.159,78.023,153.159S252.067,206.645,215.767,126.687z"/>
	</g>
</g>
<g id="形状_10_1_">
	<g>
		<path fill-rule="evenodd" clip-rule="evenodd" fill="#FF9B48" d="M204.44,145.151c-13.71-61.416-65.02-82.661-65.02-82.661
			s-10.733-7.536-10.904,2.935c4.246,78.944,70.053,91.473,70.053,91.473S207.505,159.406,204.44,145.151z"/>
	</g>
</g>
<g id="形状_9_拷贝_1_">
	<g>
		<path fill="#FFC07D" d="M390.243,16.613c-1.979-9.932-16.375-0.839-16.375-0.839s-55.634,30.805-91.975,110.722
			c-36.344,79.917,30.235,43.198,30.235,43.198S411.663,141.796,390.243,16.613z"/>
	</g>
</g>
<g id="形状_10_拷贝_1_">
	<g>
		<path fill="#FF9B48" d="M358.325,62.329c0,0-51.368,21.235-65.095,82.617c-3.065,14.252,5.88,11.743,5.88,11.743
			s65.88-12.522,70.132-91.425C369.072,54.797,358.325,62.329,358.325,62.329z"/>
	</g>
</g>
<g id="脸_4_">
	<g>
		
			<radialGradient id="SVGID_3_" cx="249.0317" cy="328.2816" r="96.4797" gradientTransform="matrix(0.9999 0.0132 -0.0092 0.6957 3.0258 96.609)" gradientUnits="userSpaceOnUse">
			<stop  offset="0" style="stop-color:#FECD97"/>
			<stop  offset="1" style="stop-color:#FFC07A"/>
		</radialGradient>
		<path fill="url(#SVGID_3_)" d="M322.571,197.894c-3.574-11.383-6.973-27.846-11.731-41.535
			c-10.713-30.819-35.559-40.999-61.978-40.569c-26.673,0.437-51.972,11.764-62.04,40.689c-4.765,13.692-7.744,30.156-11.324,41.538
			c-3.58,11.385-11.505,60.034,8.389,90.218c-0.099,0.208,8.495,10.594,24.33,26.433c13.013,13.02,20.471,23.71,37.031,24.727
			c0.102,0.01,0.201,0.027,0.3,0.031c0.12,0.003,0.232,0,0.348,0.003c1.362,0.062,2.775,0.068,4.266-0.003
			c0.263-0.014,0.526-0.058,0.785-0.113c20.652-1.403,27.433-14.32,40.327-25.904c16.645-14.955,23.017-25.099,22.921-25.307
			C334.059,257.92,326.148,209.28,322.571,197.894z"/>
	</g>
</g>
<path fill-rule="evenodd" clip-rule="evenodd" fill="#66361F" d="M248.067,207.669c-0.225,0.185,28.856-8.372,41.273-39.853
	c-0.082-0.672,13.136,23.693,34.084,33.246c-0.296-1.225-0.651-2.311-0.853-3.167c-3.185-13.611-6-26.717-10.758-40.406
	c-10.713-30.819-36.532-42.129-62.951-41.699c-26.673,0.437-51.972,11.764-62.04,40.689c-4.765,13.692-8.976,31.3-11.324,41.538
	c-0.11,0.482-0.315,1.103-0.475,1.7c7.143-1.092,19.809-6.676,31.921-30.481C206.293,169.321,212.552,190.348,248.067,207.669z"/>
<path fill-rule="evenodd" clip-rule="evenodd" fill="#E5432E" d="M318.845,184.505c-1.359-5.211-2.771-10.723-4.308-16.18
	c-10.224-13.481-31.658-34.816-64.791-34.505c-38.293,0.358-56.914,20.781-66.368,33.952c-1.372,5.037-2.614,10.143-3.812,15.024
	c9.038-9.375,32.979-29.805,70.18-29.672C282.94,153.239,306.626,173.068,318.845,184.505z"/>
<g id="形状_3_拷贝">
	<g>
		<path fill-rule="evenodd" clip-rule="evenodd" fill="#E5432E" d="M317.701,34.374c-1.167-1.829-2.597-1.392-3.775-0.839
			c-46.377,21.664-60.59,62.568-64.882,82.996c-5.965-24.646-22.819-62.685-65.157-83.415c-1.745-0.853-3.837-1.25-4.615,1.675
			c0,0-15.121,68.54,54.599,103.687c-14.397,11.038-29.729,25.271,14.759,6.615c48.271,20.321,28.357,3.709,14.478-6.477
			C333.073,103.462,317.701,34.374,317.701,34.374z"/>
	</g>
</g>
<g id="形状_73">
	<g>
		<path fill-rule="evenodd" clip-rule="evenodd" fill="#AA2D24" d="M246.722,108.305c0,0-3.068,7.092-2.645,15.819
			c0.495,10.17,3.044,15.054,3.174,11.146c0.092-2.815,1.28-13.15,1.983-18.775C249.452,114.748,246.722,108.305,246.722,108.305z"
			/>
	</g>
</g>
<g id="形状_82">
	<g>
		<path fill-rule="evenodd" clip-rule="evenodd" fill="#C13021" d="M278.613,139.54c-1.857-0.874-9.283-4.15-10.484-3.386
			c-6.491,4.13-13.365,11.093-3.942,8.741C270.937,143.208,280.677,140.512,278.613,139.54z M230.013,136.372
			c-2.519-0.741-10.921,2.949-10.921,2.949s3.229,1.699,7.171,2.757c3.941,1.055,12.327,4.253,11.703,1.778
			C237.344,141.383,233.726,137.464,230.013,136.372z"/>
	</g>
</g>
<path fill-rule="evenodd" clip-rule="evenodd" fill="#FFCE99" d="M218.461,243.777c-7.881-19.498-19.983-23.666-28.298-22.18
	c-15.605,2.788-17.694,10.775-17.587,10.338c0.106-0.437-0.294-14.104,12.891-17.365c12.037-2.976,24.199,1.92,29.488,10.157
	c4.807,7.487,4.338,19.05,4.338,19.05"/>
<path fill-rule="evenodd" clip-rule="evenodd" fill="#FFCE99" d="M278.383,243.777c7.881-19.498,19.983-23.666,28.298-22.18
	c15.605,2.788,17.694,10.775,17.587,10.338c-0.106-0.437,0.295-14.104-12.891-17.365c-12.037-2.976-24.199,1.92-29.487,10.157
	c-4.807,7.487-4.339,19.05-4.339,19.05"/>
<g id="形状_4_3_">
	<g>
		<path fill="#FFFFFF" d="M199.716,223.153c-6.321-2.962-19.774-1.539-25.044,2.945c0,0-7.898,32.641,20.706,35.532
			c14.211,0.553,22.495-6.918,23.839-15.082C220.658,237.791,207.112,226.62,199.716,223.153z"/>
	</g>
</g>
<g id="形状_6_3_">
	<g>
		<path fill-rule="evenodd" clip-rule="evenodd" fill="#512A15" d="M213.668,230.747c-0.007-0.096-7.28-10.051-16.938-12.396
			c-3.536-0.856-11.338,0.997-11.338,0.997s-11.617,9.474-2.935,25.57c5.139,8.355,12.996,11.993,20.126,11.215
			c8.692-0.952,13.71-7.174,14.409-13.905C217.689,235.494,213.668,230.747,213.668,230.747z"/>
	</g>
</g>
<g id="形状_48_1_">
	<g>
		<path fill="#FFFFFF" d="M190.379,242.9c-0.451-2.611-8.898-2.915-10.645,0.563c-1.331,2.655,0.133,5.672,2.239,6.129
			C186.16,250.508,191.017,246.623,190.379,242.9z"/>
	</g>
</g>
<g id="形状_36_副本_3_">
	<g>
		<path fill-rule="evenodd" clip-rule="evenodd" fill="#A85726" d="M210.143,204.23c-10.478-4.478-21.518-3.015-19.707,1.403
			c0.739,1.801,6.063-1.403,14.645,1.364c11.706,3.774,11.208,10.338,14.079,9.509C223.95,215.123,216.098,206.773,210.143,204.23z"
			/>
	</g>
</g>
<g id="形状_4_1_">
	<g>
		<path fill="#FFFFFF" d="M323.138,226.098c-5.266-4.485-18.488-5.344-25.044-2.945c-15.33,5.614-20.942,14.639-19.498,23.396
			c1.341,8.164,9.628,15.634,23.835,15.082C331.039,258.739,323.138,226.098,323.138,226.098z"/>
	</g>
</g>
<g id="形状_6_1_">
	<g>
		<path fill-rule="evenodd" clip-rule="evenodd" fill="#512A15" d="M313.086,221.095c0,0-6.532-1.693-10.068-0.836
			c-9.658,2.341-17.488,8.328-17.498,8.426c0,0-2.894,10.68-1.174,15.157c3.263,8.478,6.116,12.092,14.857,12.399
			c7.129,0.252,15.194-2.399,18.249-12.584C321.053,231.654,313.086,221.095,313.086,221.095z"/>
	</g>
</g>
<g id="形状_48_副本">
	<g>
		<path fill="#FFFFFF" d="M292.691,243.965c-1.881-3.41-9.608,0.7-9.949,3.327c-0.553,4.304,1.638,5.416,4.935,4.512
			C291.36,250.798,294.479,247.21,292.691,243.965z"/>
	</g>
</g>
<g id="形状_36_副本_4_">
	<g>
		<path fill-rule="evenodd" clip-rule="evenodd" fill="#A85726" d="M287.933,204.085c-6.005,2.419-13.819,9.443-10.494,11.706
			c3.212,2.187,5.218-5.154,13.523-7.909c10.369-3.441,17.901,0.426,18.376-2.249C310.04,201.685,298.417,199.862,287.933,204.085z"
			/>
	</g>
</g>
<g id="Shape_2_13_">
	<g>
		<path fill-rule="evenodd" clip-rule="evenodd" fill="#9C6342" d="M319.76,254.37c2.914-4.323,3.322-8.719,2.521-7.119
			c-1.888,3.778-4.413,8.201-10.201,10.921c-5.365,2.522-11.871,2.655-16.208,2.727c-3.951,0.061,7.824,2.845,16.217-0.327
			c0.596,0.207,1.49,0.555,2.421,1.057c1.12,0.604,3.219,2.017,3.106,1.232c-0.202-1.381-0.933-3.174-2.025-4.149
			c0.834-0.596,1.581-1.256,2.248-1.952c0.329,0.037,0.746,0.09,1.299,0.169c1.761,0.253,3.44,2.352,3.44,1.26
			C322.578,257.053,321.473,255.344,319.76,254.37z"/>
	</g>
</g>
<g id="形状_65_副本_3_">
	<g>
		<path fill-rule="evenodd" clip-rule="evenodd" fill="#713D1F" d="M334.195,222.436c-0.505,0.932-2.321,2.645-4.242,3.539
			c-1.656,0.773-4.088,1.308-6.36,0.655c-0.07-0.161-0.123-0.325-0.203-0.485c-1.533-3.064-6.553-6.553-11.352-7.501
			c-7.815-1.546-14.453-0.631-20.105,1.987c-7.526,3.488-12.693,10.365-14.267,19.494c-0.672,3.891,0.246,6.215,1.41,2.758
			c2.782-8.29,5.583-12.693,13.157-16.812c5.929-3.229,13.273-5.563,24.096-0.263c3.665,1.795,5.741,5.522,6.406,8.092
			c0.236,0.908,1.215,4.13,1.481,2.048c0.124-0.954,0.25-2.008,0.309-3.107c0.779,0.046,2.079-0.05,3.933-0.797
			c1.573-0.631,4.113-2.491,5.267-4.706C335.083,224.73,335.124,220.723,334.195,222.436z"/>
	</g>
</g>
<g id="Shape_2_3_">
	<g>
		<path fill-rule="evenodd" clip-rule="evenodd" fill="#9C6342" d="M201.614,260.9c-4.334-0.071-10.84-0.205-16.205-2.727
			c-5.788-2.72-8.314-7.143-10.201-10.921c-0.801-1.601-0.393,2.796,2.521,7.119c-1.713,0.973-2.818,2.683-2.818,3.819
			c0,1.092,1.675-1.006,3.44-1.26c0.553-0.079,0.971-0.132,1.299-0.169c0.666,0.696,1.413,1.356,2.246,1.951
			c-1.092,0.975-1.822,2.768-2.023,4.15c-0.113,0.785,1.986-0.628,3.106-1.232c0.932-0.503,1.826-0.85,2.42-1.058
			C193.793,263.745,205.569,260.961,201.614,260.9z"/>
	</g>
</g>
<g id="形状_65_副本_1_">
	<g>
		<path fill-rule="evenodd" clip-rule="evenodd" fill="#713D1F" d="M219.166,240.125c-1.573-9.129-6.74-16.006-14.266-19.494
			c-5.652-2.618-12.317-3.669-20.109-1.987c-4.338,0.939-8.648,3.809-10.276,6.161c-0.355,0.512-0.651,1.098-0.902,1.725
			c-0.009,0.003-0.014,0.002-0.023,0.005c-2.369,0.819-4.969,0.252-6.713-0.56c-1.921-0.894-3.734-2.607-4.239-3.539
			c-0.932-1.713-0.891,2.293,0.468,4.901c1.153,2.215,3.696,4.075,5.27,4.706c1.982,0.799,3.348,0.859,4.102,0.79
			c-0.029,1.176,0.027,2.259,0.138,3.114c0.269,2.082,1.286-0.225,1.58-1.116c1.297-3.932,2.646-7.229,6.311-9.024
			c10.822-5.3,18.163-2.966,24.095,0.263c7.57,4.12,10.266,9.161,13.157,16.812C219.047,246.296,219.839,244.016,219.166,240.125z"
			/>
	</g>
</g>
<g id="腮红2_1_">
	<g>
		<path fill-rule="evenodd" clip-rule="evenodd" fill="#FFA083" d="M199.027,270.787c-11.334-1.191-16.331,2.583-16.294,6.12
			c0.031,2.863,4.154,8.614,14.587,9.163c13.154,0.696,17.028-3.652,17.174-5.829C214.658,277.814,212.921,272.248,199.027,270.787z
			"/>
	</g>
</g>
<g id="腮红2_副本_1_">
	<g>
		<path fill-rule="evenodd" clip-rule="evenodd" fill="#FFA083" d="M298.783,270.787c-13.894,1.461-15.631,7.027-15.467,9.454
			c0.146,2.177,4.02,6.526,17.174,5.829c10.433-0.549,14.556-6.3,14.587-9.163C315.114,273.371,310.117,269.596,298.783,270.787z"/>
	</g>
</g>
<path fill-rule="evenodd" clip-rule="evenodd" fill="#512A15" d="M247.808,331.479c-7.171,0-18.56-6.531-17.638-13.705
	c0.732-5.698,6.482-7.68,17.737-7.68c11.378,0,17.297,1.916,17.857,7.717C266.381,324.22,256.882,331.479,247.808,331.479z"/>
<g id="形状_20">
	<g>
		<path fill="#FCEACB" d="M221.423,459.433c-21.44-16.631-48.051-5.89-48.023-1.679c1.757,45.174,44.883,40.696,44.883,40.696
			c15.04-1.7,16.781-12.164,16.781-12.164S235.739,470.546,221.423,459.433z"/>
	</g>
</g>
<g id="形状_21">
	<g>
		<path fill="#FFBD99" d="M228.77,484.183c-2.986-15.528-34.818-20.552-34.396-14.266c1.577,25.181,29.782,23.078,29.782,23.078
			S229.818,492.157,228.77,484.183z"/>
	</g>
</g>
<g id="形状_20_拷贝">
	<g>
		<path fill="#FCEACB" d="M273.159,461.29c-14.764,13.324-10.409,29.61-10.409,29.61s1.119,5.979,16.201,7.686
			c0,0,43.252,4.485,45.013-40.764C323.991,453.611,296.616,440.126,273.159,461.29z"/>
	</g>
</g>
<g id="形状_21_拷贝">
	<g>
		<path fill-rule="evenodd" clip-rule="evenodd" fill="#FFBD99" d="M268.435,484.299c-1.051,7.979,4.629,8.82,4.629,8.82
			s28.286,2.109,29.866-23.106C303.353,463.713,271.432,468.744,268.435,484.299z"/>
	</g>
</g>
<g id="形状_23_1_" opacity="0.4">
	<g>
		<path fill-rule="evenodd" clip-rule="evenodd" fill="#DD7528" d="M280.787,548.804c-17.423-3.201-64.88-6.328-70.053,5.453
			c-5.174,11.782-17.253,6-14.679,39.631c0,0,4.061,21.385,20.853,17.16c5.119-2.054,7.057-8.887,6.99-16.061
			c-0.068-7.133,2.935-7.392,9.263-7.229c14.464,0.368,22.32,1.515,32.368-4.71c5.478-3.4,9.003,4.485,8.075,12.983
			c-1.086,9.897,0.983,14.027,8.922,15.802c7.348,1.645,13.419-1.693,15.559-9.249c2.256-7.952,2.857-16.696,2.857-16.696
			S298.21,552.006,280.787,548.804z"/>
	</g>
</g>
<path fill-rule="evenodd" clip-rule="evenodd" fill="#FCEBCE" d="M283.933,525.617c0,0,19.215,13.167,18.137,56.143
	c-0.502,14.696-7.604,22.122-15.246,21.638c-7.645-0.478-8.423-8.764-7.283-17.467c0.454-3.44,1.406-14.457-2.618-29.795
	C272.899,540.798,283.933,525.617,283.933,525.617z"/>
<path fill-rule="evenodd" clip-rule="evenodd" fill="#FCEBCE" d="M208.987,530.852c0,0-15.277,14.771-13.976,49.87
	c0.501,14.703,7.498,23.112,15.174,22.634c7.675-0.484,7.989-6.675,7.543-13.542c-0.389-6-1.622-15.849,2.42-31.193
	C224.185,543.269,208.987,530.852,208.987,530.852z"/>
<path fill-rule="evenodd" clip-rule="evenodd" fill="#F6BF96" d="M285.401,592.865c-0.184,2.978-0.763,7.707-1.575,9.737
	c0.37,0.176,0.782,0.305,1.206,0.423c0.462-1.283,0.939-3.145,1.208-5.129C286.872,593.192,285.684,588.23,285.401,592.865z"/>
<path fill-rule="evenodd" clip-rule="evenodd" fill="#F6BF96" d="M291.643,592.994c0.003,2.097-0.036,7.042-1.332,9.99
	c0.623-0.166,1.244-0.348,1.842-0.627c0.536-1.497,0.731-3.743,0.822-5.472C293.169,593.261,291.643,590.175,291.643,592.994z"/>
<path fill-rule="evenodd" clip-rule="evenodd" fill="#F6BF96" d="M212.832,597.896c-0.751-2.601-1.898-8.287-2.099-6.71
	c-0.359,2.799,0.324,6.635,1.26,9.652c0.248,0.798,0.547,1.443,0.863,2.02c0.668-0.219,1.261-0.494,1.768-0.837
	C213.916,600.806,213.324,599.617,212.832,597.896z"/>
<path fill-rule="evenodd" clip-rule="evenodd" fill="#F6BF96" d="M206.958,598.735c-1.614-4.608-1.781-9.14-2.099-5.87
	c-0.382,3.945,0.656,7.017,2.099,9.645c0.1,0.183,0.254,0.413,0.403,0.638c0.545,0.108,1.103,0.121,1.659,0.136
	C208.318,602.004,207.585,600.526,206.958,598.735z"/>
<g id="脸_2_">
	<g>
		<path fill="#FCEBCE" d="M286.667,512.818c-7.44-26.539-25.081-33.365-38.064-33.18c-13.006-0.362-32.61,6.586-38.709,32.661
			c-1.424,9.078-6.266,16.259-4.615,27.692c1.652,11.434,5.382,16.935,21.395,27.692c3.328,2.512,5.731,2.512,9.645,5.454
			c3.918,2.942,8.3,4.253,15.942,3.359c0.119-0.014,0.239-0.041,0.355-0.076c3.055-0.512,5.444-1.652,7.675-3.331
			c3.911-2.942,6.31-2.942,9.638-5.454c15.993-10.751,19.72-16.245,21.372-27.672C292.951,528.531,288.165,518.156,286.667,512.818z
			"/>
	</g>
</g>
<g id="形状_77">
	<g>
		<path fill-rule="evenodd" clip-rule="evenodd" fill="#FFBD99" d="M216.853,546.135c-3.427-0.294-6.342,1.051-6.505,3.003
			c-0.167,1.952,2.474,3.768,5.901,4.062c3.431,0.294,6.342-1.051,6.509-3.003S220.279,546.429,216.853,546.135z"/>
	</g>
</g>
<g id="形状_77_副本">
	<g>
		<path fill="#FFBD99" d="M278.517,546.122c-3.437,0.116-6.17,1.795-6.109,3.747c0.065,1.959,2.904,3.454,6.341,3.338
			c3.44-0.109,6.174-1.788,6.11-3.747C284.794,547.507,281.957,546.012,278.517,546.122z"/>
	</g>
</g>
<path fill="#F7CC9D" d="M224.796,500.563c1.42,5.388,4.158,6.389,7.619,6.917c4.26,0.65,6.671-3.364,7.973-5.133
	c0,0,2.777,5.383,6.771,6.636c4.259,1.336,7.099-0.083,8.628-2.839c0.927-1.671,0.655-4.561,0.655-4.561s3.495,3.713,8.737,2.335
	c3.122-0.821,3.386-3.523,3.605-5.346c0.218-1.822-0.479-3.568-0.479-3.568s3.672,3.807,2.663,8.217
	c-0.715,3.124-3.396,5.351-6.86,4.884c-2.402-0.324-6.099-2.789-6.099-2.789s-0.257,4.13-3.096,6.096
	c-2.84,1.966-6.99,1.747-9.611,0.219c-2.621-1.529-5.003-5.223-5.003-5.223s-1.492,3.412-5.231,5.114
	c-2.206,1.004-6.339,1.126-8.857-2.538C223.678,505.296,224.796,500.563,224.796,500.563z"/>
<g id="形状_75">
	<g>
		<path fill-rule="evenodd" clip-rule="evenodd" fill="#552F19" d="M217.808,535.357c-6.553-0.593-8.362-0.061-7.942,1.345
			c0.324,1.085,1.682-0.225,7.713,1.024c9.877,2.041,14.109,8.662,15.177,5.857C233.893,540.593,225.654,536.067,217.808,535.357z"
			/>
	</g>
</g>
<g id="形状_75_副本">
	<g>
		<path fill-rule="evenodd" clip-rule="evenodd" fill="#713D1F" d="M279.162,535.357c-7.843,0.71-16.082,5.236-14.949,8.225
			c1.069,2.806,5.3-3.816,15.177-5.857c6.034-1.249,7.389,0.061,7.713-1.024C287.527,535.295,285.715,534.764,279.162,535.357z"/>
	</g>
</g>
<g id="形状_19">
	<g>
		<path fill="#57301B" d="M248.067,565.589c-12.413-0.143-11.327,3.775-11.327,3.775s2.147,7.781,11.747,7.556
			c9.601-0.232,11.325-7.556,11.325-7.556S260.477,565.732,248.067,565.589z"/>
	</g>
</g>
</svg>
