<?xml version="1.0" encoding="utf-8"?>
<!-- Generator: Adobe Illustrator 17.0.0, SVG Export Plug-In . SVG Version: 6.00 Build 0)  -->
<!DOCTYPE svg PUBLIC "-//W3C//DTD SVG 1.1//EN" "http://www.w3.org/Graphics/SVG/1.1/DTD/svg11.dtd">
<svg version="1.1" id="图层_1" xmlns="http://www.w3.org/2000/svg" xmlns:xlink="http://www.w3.org/1999/xlink" x="0px" y="0px"
	 width="571.296px" height="790.159px" viewBox="0 0 571.296 790.159" enable-background="new 0 0 571.296 790.159"
	 xml:space="preserve">
<g id="形状_44_2_">
	<g>
		<path fill-rule="evenodd" clip-rule="evenodd" fill="#EF8E45" d="M275.887,730.695c-12.665-28.104-2.576-48.951-2.576-48.951
			s-21.457-62.188-36.059-11.594c-14.602,50.595-1.717,104.772-1.717,104.772s17.094,0.681,32.195-0.429
			C282.832,773.383,288.552,758.799,275.887,730.695z"/>
	</g>
</g>
<g id="形状_42_2_">
	<g>
		
			<radialGradient id="SVGID_1_" cx="180.588" cy="357.0089" r="93.4838" gradientTransform="matrix(1 0 0 1.8668 0 -309.446)" gradientUnits="userSpaceOnUse">
			<stop  offset="0" style="stop-color:#FFC07D"/>
			<stop  offset="0.5713" style="stop-color:#FEB162"/>
			<stop  offset="1" style="stop-color:#FEA852"/>
		</radialGradient>
		<path fill-rule="evenodd" clip-rule="evenodd" fill="url(#SVGID_1_)" d="M524.981,758.729
			c-20.482-4.965-53.103-20.044-103.11-65.975c-28.23-25.93-43.827-44.621-90.838-118.85
			c-81.689-128.986-76.372-280.721-57.359-299.045c8.081-7.789,0.186-83.06-49.729-20.362
			c-49.914,62.698-43.631,74.779-43.631,74.779s-18.027,78.912-65.567,156.896c-60.003,98.428,13.83,252.871,182.777,192.416
			c1.036-0.301,17.077,31.338,83.665,70.702c58.981,34.867,165.344,30.21,176.8,21.114
			C566.377,763.744,542.792,763.047,524.981,758.729z"/>
	</g>
</g>
<g id="形状_51_2_" opacity="0.6">
	<g>
		<path fill-rule="evenodd" clip-rule="evenodd" fill="#DD7528" d="M183.34,315.569c-4.577,10.716-3.025,13.707-3.025,13.707
			s-2.21,9.664-7.113,25.557c13.678,0.993,57.784-15.35,71.099-46.81C261.002,268.564,205.127,301.618,183.34,315.569z"/>
	</g>
</g>
<g id="形状_49_2_">
	<g>
		<linearGradient id="SVGID_2_" gradientUnits="userSpaceOnUse" x1="137.6986" y1="531.062" x2="202.5583" y2="334.8614">
			<stop  offset="0" style="stop-color:#FFC28A"/>
			<stop  offset="0.7938" style="stop-color:#FFCD9F"/>
			<stop  offset="1" style="stop-color:#FFD0A5"/>
		</linearGradient>
		<path fill-rule="evenodd" clip-rule="evenodd" fill="url(#SVGID_2_)" d="M167.282,386.751c-1.632,0.233-3.689,1.298-6.063,3.06
			c-10.465,27.816-25.632,62.177-46.471,96.361c-19.843,32.55-29.297,73.535-21.267,108.539
			c24.896,26.478,73.715-27.944,73.715-27.944s14.606-25.774,19.178-89.561C189.382,435.214,186.852,383.952,167.282,386.751z"/>
	</g>
</g>
<g id="形状_47_2_">
	<g>
		<path fill-rule="evenodd" clip-rule="evenodd" fill="#FFBF80" d="M554.165,769.034c-64.533,3.097-105.55-13.074-157.952-44.063
			c-59.453-35.159-100.039-99.373-110.601-114.463c-18.99-27.131-46.622,81.865-46.622,81.865c1.592,0.426-0.718-1.187,0.855-0.757
			c40.083-1.508,57.679-13.029,57.679-13.029s38.691,51.602,92.117,76.294c65.426,30.238,142.112,25.001,163.383,17.709
			C557.267,771.136,559.788,768.764,554.165,769.034z"/>
	</g>
</g>
<g id="形状_46_拷贝_2_">
	<g>
		<path fill-rule="evenodd" clip-rule="evenodd" fill="#FEBF7B" d="M189.174,527.592c-62.995,16.863-95.853,18.167-106.459,19.323
			c-4.393,0.479-4.235,4.362-4.293,4.723c7.565,128.978,120.195,135.688,120.195,135.688
			C206.867,612.563,189.558,529.138,189.174,527.592z"/>
	</g>
</g>
<g id="形状_46_2_">
	<g>
		<path fill-rule="evenodd" clip-rule="evenodd" fill="#FFBF80" d="M189.174,531.025c-44.215,48.264-110.74,30.1-110.765,31.95
			C76.942,672.217,198.618,690.76,198.618,690.76C206.867,615.997,189.558,532.572,189.174,531.025z"/>
	</g>
</g>
<g id="形状_58_2_">
	<g>
		<path fill-rule="evenodd" clip-rule="evenodd" fill="#FFD2A6" d="M173.382,546.851c-4.328-10.587-12.268-9.927-20.708-15.448
			c-7.995-5.229-7.932-23.995-7.932-23.995L94.24,552.631l-2.624,15.554c0,0,21.156,0.568,40.408-2.397
			C151.527,562.784,174.671,550.003,173.382,546.851z"/>
	</g>
</g>
<path opacity="0.4" fill-rule="evenodd" clip-rule="evenodd" fill="#DD7528" d="M161.721,548.338c0,0-21.804,9.78-41.416,12.678
	s-35.621,2.44-35.621,2.44l-1.636-0.496l0.921,4.627c-1.518-0.088-2.883-0.186-4.042-0.29c0,0,4.054,33.61,8.935,44.656
	c4.881,11.045,17.55,13.72,28.779,1.948c7.156-7.503,15.419-29.842,18.304-48.467c5.399-1.231,11.233-3.525,20.997-6.59
	L161.721,548.338z"/>
<g id="形状_60_2_">
	<g>
		<path fill-rule="evenodd" clip-rule="evenodd" fill="#FCEBCE" d="M98.599,603.163c-1.252-9.372-10.316-34.572-2.576-60.974
			c7.74-26.402-18.888,8.588-18.888,8.588s-6.409,46.189,12.878,58.397C90.206,609.801,99.851,612.535,98.599,603.163z"/>
	</g>
</g>
<g id="形状_59_2_">
	<g>
		<path fill-rule="evenodd" clip-rule="evenodd" fill="#FCEBCE" d="M134.228,528.878c-0.661-13.001-27.473,16.317-27.473,16.317
			s-7.604,33.661-13.307,45.086c-5.703,11.425-0.833,17.03,3.863,20.611c4.696,3.581,14.439-2.209,19.317-12.882
			C121.507,587.338,134.889,541.878,134.228,528.878z"/>
	</g>
</g>
<g id="形状_56_2_">
	<g>
		<path fill-rule="evenodd" clip-rule="evenodd" fill="#FFD6BB" d="M122.893,430.073C89.911,436.291,94.722,479.1,94.722,479.1
			l15.695,4.038c0,0,11.573-4.663,17.372-16.955C137.563,445.467,123.708,429.919,122.893,430.073z"/>
	</g>
</g>
<g id="形状_57_2_">
	<g>
		<path fill-rule="evenodd" clip-rule="evenodd" fill="#DCA27C" d="M113.822,449.909c-5.539-0.002-10.694,10.182-12.225,15.517
			c-1.648,5.742-1.162,11.192-1.162,11.192s15.407,5.584,17.439,0C123.496,461.163,118.186,449.911,113.822,449.909z"/>
	</g>
</g>
<g id="形状_52_2_">
	<g>
		<path fill-rule="evenodd" clip-rule="evenodd" fill="#FCEBCE" d="M169.965,444.608c0.114-1.378-38.983-8.8-56.667,29.595
			c0,0-40.996-9.094-48.183,31.484c-2.102,11.868-8.387,19.865-14.005,23.348c-4.757,2.949,4.971,49.337,65.946,28.609
			c27.644-9.188,34.168-44.342,21.034-64.409C138.162,493.427,176.764,480.897,169.965,444.608z"/>
	</g>
</g>
<g id="形状_55_2_">
	<g>
		<path fill-rule="evenodd" clip-rule="evenodd" fill="#FFBD99" d="M152.776,458.883c-2.043-4.23-25.536,0.891-32.907,18.692
			c0,0,8.342,3.011,13.93,11.795c0.138-0.079,6.105-2.649,10.646-7.5C150.932,474.94,155.13,463.759,152.776,458.883z"/>
	</g>
</g>
<g id="形状_54_2_">
	<g>
		<path fill-rule="evenodd" clip-rule="evenodd" fill="#694531" d="M58.662,524.241c-1.777-1.372-11.136-0.312-11.131,6.398
			c0.002,2.613,1.022,8.491,6.755,11.573C59.185,544.845,65.253,529.33,58.662,524.241z"/>
	</g>
</g>
<g id="形状_97_2_">
	<g>
		<path fill-rule="evenodd" clip-rule="evenodd" fill="#694531" d="M82.285,515.445c-6.666,2.108-9.1,5.484-7.081,6.825
			c0.728,0.483,1.771,0.141,4.546-1.441c2.362-1.347,7.774-3.15,12.915-3.727c8.067-0.906,9.746,1.062,9.742-0.624
			C102.4,514.281,91.519,512.525,82.285,515.445z"/>
	</g>
</g>
<g id="形状_43_2_">
	<g>
		
			<radialGradient id="SVGID_3_" cx="244.0545" cy="411.2389" r="147.1055" gradientTransform="matrix(1 0 0 1.3798 0 -156.1884)" gradientUnits="userSpaceOnUse">
			<stop  offset="0" style="stop-color:#FFC07D"/>
			<stop  offset="0.5713" style="stop-color:#FEB162"/>
			<stop  offset="1" style="stop-color:#FEA852"/>
		</radialGradient>
		<path fill-rule="evenodd" clip-rule="evenodd" fill="url(#SVGID_3_)" d="M273.455,494.308
			c-23.142-29.804-86.023-29.804-113.671,36.788c0,0-19.924,39.783-14.377,75.462c8.03,51.653,22.023,62.925,49.876,92.949
			c20.937,22.569,12.518,26.222,7.802,32.652c-3.703,5.05-17.838,13.983-78.301,3.688C24.819,718.828,3.1,769.626,35.067,775.352
			c31.967,5.726,215.493,0,215.493,0s17.171-0.859,6.01-42.081c-8.859-32.719-1.493-63.246,30.891-97.214
			C315.956,606.17,306.92,537.407,273.455,494.308z"/>
	</g>
</g>
<g id="形状_62_2_">
	<g>
		<path fill-rule="evenodd" clip-rule="evenodd" fill="#DD7528" d="M101.735,752.212c-41.118-7.61-56.063,13.608-53.309,24.503
			c2.236,0.14,4.645,0.266,7.211,0.379c-5.628-12.597,20.528-24.557,46.825-20.206C106.584,757.57,108.81,754.533,101.735,752.212z"
			/>
	</g>
</g>
<g id="形状_45_2_">
	<g>
		<path fill-rule="evenodd" clip-rule="evenodd" fill="#FF9B48" d="M225.662,349.826c-27.324,0.904-22.751,35.64-22.751,35.64
			c6.887,61.413,3.919,101.995-14.166,117.225c-18.085,15.23-10.691,19.915-9.444,20.181c16.865,3.605,20.905-9.824,20.176-5.153
			c-0.729,4.671-2.589,35.371,7.298,34.781c9.887-0.59,12.846-26.159,13.737-19.323c0.891,6.837,1.987,10.869,2.576,11.594
			c16.56,11.694,9.367-26.812,9.015-32.634c-0.352-5.822-4.342-19.022,6.01-53.245c10.743-35.519,11.751-67.381,12.019-72.997
			C250.399,380.279,252.986,348.922,225.662,349.826z"/>
	</g>
</g>
<g id="形状_14_拷贝_2_2_">
	<g>
		<path fill-rule="evenodd" clip-rule="evenodd" fill="#CC7123" d="M224.271,521.322c-1.573,2.276-3.018,4.49-4.333,10.794
			c0.251-0.268,0.437,0.013,0.573,1.061c0.051,0.393,0.105,0.743,0.157,1.117c1.292-3.846,3.279-8.303,6.181-11.256
			C228.637,521.619,225.928,518.925,224.271,521.322z"/>
	</g>
</g>
<g id="形状_32_2_">
	<g>
		<path fill-rule="evenodd" clip-rule="evenodd" fill="#FFA76C" d="M227.212,16.961c-7.623-7.63-15.213-1.894-15.554,11.948
			c-1.407,57.218-10.526,113.742-10.526,113.742s18.77,8.191,24.639,2.872c5.869-5.319,18.24-6.577,22.645-51.624
			C252.93,47.75,234.835,24.592,227.212,16.961z"/>
	</g>
</g>
<g id="形状_33_2_">
	<g>
		<path fill-rule="evenodd" clip-rule="evenodd" fill="#E08344" d="M233.007,59.341c-4.273-14.341-12.289-10.942-13.287,4.695
			c-1.484,23.244-9.938,80.961-9.938,80.961s-1.443,23.95,9.099,2.322C243.373,97.069,237.095,73.061,233.007,59.341z"/>
	</g>
</g>
<g id="形状_26_2_">
	<g>
		
			<radialGradient id="SVGID_4_" cx="104.9528" cy="281.6817" r="179.244" gradientTransform="matrix(1 0 0 1.2728 0 -76.834)" gradientUnits="userSpaceOnUse">
			<stop  offset="0" style="stop-color:#FECD97"/>
			<stop  offset="1" style="stop-color:#FEA852"/>
		</radialGradient>
		<path fill-rule="evenodd" clip-rule="evenodd" fill="url(#SVGID_4_)" d="M287.964,171.122
			c-17.819-36.984-48.369-50.284-77.216-50.284c-40.097,0-72.771,10.457-86.811,55.538c-6.087,19.544-2.169,56.983-9.145,66.078
			c-10.239,13.349-13.414,16.055-18.42,22.781c-5.854,7.864-6.4,14.862-5.072,23.263c3.223,20.388,32.296,56.806,101.614,44.228
			C279.061,317.095,320.1,237.817,287.964,171.122z"/>
	</g>
</g>
<g id="形状_36_2_">
	<g>
		<path fill-rule="evenodd" clip-rule="evenodd" fill="#FFA083" d="M157.834,315.477c-15.27,6.83-30.202,9.373-35.84,10.144
			c1.911,0.991,5.263,2.469,7.369,3.339c15.98-1.876,28.566-7.488,31.702-9.53C163.98,317.531,161.71,313.315,157.834,315.477z"/>
	</g>
</g>
<g id="形状_35_2_">
	<g>
		<path fill-rule="evenodd" clip-rule="evenodd" fill="#FFA083" d="M158.665,277.664c-17.03,1.062-17.3,7.245-17.173,9.853
			s4.166,8.062,19.071,6.915c14.905-1.148,17.064-7.285,17.319-9.353C178.113,283.208,175.696,276.602,158.665,277.664z"/>
	</g>
</g>
<g id="形状_27_2_">
	<g>
		<path fill-rule="evenodd" clip-rule="evenodd" fill="#66361F" d="M288.997,171.097c-9.781-20.3-24.433-33.426-39.497-41.172
			c-13.479-5.205-28.255-9.646-40.424-10.365c-32.637-1.929-71.097,11.736-85.138,56.817c-3.006,9.65-3.572,21.945-4.215,34.755
			c4.356,0.103,42.697-0.905,62.416-37.152c0.095-0.513,8.954,34.133,33.511,47.429c5.928,1.192,36.172-8.34,50.456-21.029
			c0.013,15.215,3.001,38.048,22.041,47.174c2.922,1.401,4.513,1.627,5.775,1.323C300.934,224.378,301.029,196.069,288.997,171.097z
			"/>
	</g>
</g>
<g id="形状_28_副本_2_">
	<g>
		<path fill-rule="evenodd" clip-rule="evenodd" fill="#E5432E" d="M231.559,170.877c-7.633-6.459-19.441-16.239-33.157-22.736
			c-16.223-7.685-35.115-11.355-52.928-7.776c-6.132,5.576-11.443,12.613-15.779,21.437c4.304-0.631,7.317-1.16,7.317-1.16
			s59.43,1.97,110.359,33.445C243.808,183.697,238.027,176.351,231.559,170.877z"/>
	</g>
</g>
<g id="形状_37_2_">
	<g>
		<path fill-rule="evenodd" clip-rule="evenodd" fill="#FFFFFF" d="M183.363,235.941c0,0-7.675-12.949-29.816-6.188
			s-18.973,26.153-18.517,27.875c0,0,6.494,15.434,31.395,10.341C191.327,262.877,183.363,235.941,183.363,235.941z"/>
	</g>
</g>
<g id="形状_39_2_">
	<g>
		<path fill-rule="evenodd" clip-rule="evenodd" fill="#512A15" d="M182.458,235.493c-5.478-11.37-30.52-5.276-30.628-5.31
			c-0.154-0.089-2.409,0.206-5.151,2.147c0,0-7.659,21.933,10.302,29.628c16.485,7.062,24.613-3.571,25.848-7.04
			C183.273,253.671,186.823,244.554,182.458,235.493z"/>
	</g>
</g>
<path fill-rule="evenodd" clip-rule="evenodd" fill="#FFCE99" d="M135.229,253.159c8.054-19.927,20.423-24.186,28.92-22.668
	c15.949,2.85,21.516,10.044,21.408,9.597c-0.109-0.446-4.038-14.247-17.514-17.579c-12.302-3.042-24.426,3.789-29.831,12.206
	c-4.913,7.652-3.834,18.443-3.834,18.443"/>
<g id="形状_38_2_">
	<g>
		<path fill-rule="evenodd" clip-rule="evenodd" fill="#713D1F" d="M134.633,257.946c0.01-0.054,0.021-0.106,0.031-0.16
			c-0.009-0.014-0.02-0.037-0.033-0.062C134.629,257.778,134.629,257.846,134.633,257.946z M134.689,257.656
			c-0.008,0.043-0.017,0.086-0.025,0.13C134.727,257.886,134.715,257.744,134.689,257.656z M186.811,239.459
			c0,0-12.237-20.041-32.292-12.661c-23.49,8.626-20.121,30.314-20.121,30.314c0.112,0.331,0.185,0.515,0.233,0.613
			c0.007-0.168,0.036-0.14,0.058-0.068c1.926-10.466,6.105-19.706,18.658-24.838c25.393-5.089,31.173,13.516,31.173,13.516
			s0.83-1.087,1.772-2.877C187.058,242.003,186.811,239.459,186.811,239.459z"/>
	</g>
</g>
<g id="形状_40_2_">
	<g>
		<path fill-rule="evenodd" clip-rule="evenodd" fill="#A85726" d="M172.484,211.043c-1.639-1.099-7.651-3.796-15.874-1.87
			c-10.294,2.411-14.032,6.948-16.257,10.132c-2.226,3.184,1.185,4.344,2.221,3.155c2.336-2.681,8.36-5.688,12.532-7.365
			c6.907-2.777,13.215-1.69,15.842-0.966C174.449,215.096,175.008,212.737,172.484,211.043z"/>
	</g>
</g>
<g id="形状_94_2_">
	<g>
		<path fill-rule="evenodd" clip-rule="evenodd" fill="#713D1F" d="M195.37,234.236c-2.221,1.487-7.482,3.034-10.79,2.228
			c-4.84-1.18-2.442,6.242,0.573,6.58c6.526,0.73,10.369-4.174,11.899-7.593C199.035,231.021,197.662,232.702,195.37,234.236z"/>
	</g>
</g>
<g id="形状_95_2_">
	<g>
		<path fill-rule="evenodd" clip-rule="evenodd" fill="#A85726" d="M181.486,258.772c1.049-2.142-1.983,2.347-4.118,3.935
			c-3.513,2.613-7.338,4.946-15.216,5.963c-9.377,1.211-18.036-3.003-21.325-4.461c-1.082-0.479,2.168,3.137,7.783,5.401
			c4.429,1.786,9.545,2.136,16.223,1.047c2.31,0.506,4.931,1.703,6.415,2.742c0.73,0.512,0.869-0.23-0.069-2.026
			c-0.366-0.701-1.152-1.332-1.862-1.795c0.901-0.298,1.752-0.635,2.555-1.012c0.773,0.109,2.018,0.302,3.051,0.552
			c1.851,0.448,4.078,1.539,4.078,1.539s-0.498-2.135-2.277-3.159c-0.689-0.397-1.314-0.598-1.82-0.703
			C177.748,264.774,179.863,262.087,181.486,258.772z"/>
	</g>
</g>
<g id="形状_96_2_">
	<g>
		<path fill-rule="evenodd" clip-rule="evenodd" fill="#FFFFFF" d="M149.52,252.264c-4.497,1.76-6.307,6.116-2.056,7.626
			c4.252,1.51,6.612,2.423,8.738-1.412S154.017,250.504,149.52,252.264z"/>
	</g>
</g>
<g id="形状_31_2_">
	<g>
		<path fill-rule="evenodd" clip-rule="evenodd" fill="#FFC07D" d="M296.937,27.299c-6.945-21.747-15.546-10.337-24.18,2.26
			c-8.634,12.597-23.612,34.474-33.879,54.977c-8.196,16.368-14.02,34.998-16.092,49.435c-0.386,2.687-1.056,10.905,0.747,15.696
			c4.282,11.379,21.229,28.337,31.002,22.718C332.063,127.806,303.997,49.405,296.937,27.299z"/>
	</g>
</g>
<g id="形状_34_2_">
	<g>
		<path fill-rule="evenodd" clip-rule="evenodd" fill="#FF9B48" d="M285.034,65.668c-2.245-27.498-26.164,2.341-42.704,37.205
			c-12.794,26.969-16.993,50.628-16.993,50.628s2.057,7.882,12.137,14.507c1.987,1.306,6.303-1.65,9.659-4.537
			C273.516,140.776,288.133,103.622,285.034,65.668z"/>
	</g>
</g>
<g id="形状_29_2_">
	<g>
		<path fill-rule="evenodd" clip-rule="evenodd" fill="#E5432E" d="M149.251,36.363c-0.168-0.055-7.877-4.306-8.156,4.723
			c-0.205,6.612,5.028,35.254,7.868,49.056c-0.367,0.082-38.727-39.776-62.825-48.621c-0.287,0.341-10.53-6.216-9.049,2.94
			c1.48,9.156,7.913,58.838,81.966,101.18c22.791,13.031,34.11,1.192,34.11,1.192S205.24,81.08,149.251,36.363z"/>
	</g>
</g>
<g id="形状_93_2_">
	<g>
		<path fill-rule="evenodd" clip-rule="evenodd" fill="#AA2D24" d="M161.38,134.74c-2.752-10.472-8.635-25.318-12.47-44.638
			c-0.359-0.242-3.787-3.693-9.069-8.701c-0.677,5.983-1.906,28.043,13.18,48.883C160.095,140.059,164.132,145.215,161.38,134.74z"
			/>
	</g>
</g>
<g id="形状_41_2_">
	<g>
		<path fill-rule="evenodd" clip-rule="evenodd" fill="#713D1F" d="M101.165,271.69c-7.485-1.953-11.47,2.457-11.863,5.883
			c-2.169,12.978,3.806,21.178,9.014,20.25C106.97,296.28,113.796,275.486,101.165,271.69z"/>
	</g>
</g>
<g id="形状_77_3_">
	<g>
		<path fill-rule="evenodd" clip-rule="evenodd" fill="#FFBD99" d="M91.814,528.492c-0.21-1.993-3.574-3.201-7.512-2.704
			c-3.938,0.497-6.962,2.517-6.748,4.51c0.21,1.993,3.57,3.202,7.508,2.705C89.004,532.504,92.024,530.485,91.814,528.492z"/>
	</g>
</g>
<path fill-rule="evenodd" clip-rule="evenodd" fill="#F6BF96" d="M105.327,604.018c-1.255,1.827-4.296,5.569-7.086,7.432
	c0.225,0.23,0.544,0.301,0.904,0.389c0.361,0.088,0.815,0.113,1.153,0.101c1.321-1.012,3.181-3.112,4.29-4.568
	C106.915,604.321,107.018,601.563,105.327,604.018z"/>
<path fill-rule="evenodd" clip-rule="evenodd" fill="#F6BF96" d="M100.447,598.324c-1.049,1.953-4.161,7.029-6.733,9.184
	c0.399,0.477,0.866,1.042,1.446,1.434c1.203-1.149,3.29-4.3,4.234-5.869C101.377,599.787,101.861,595.699,100.447,598.324z"/>
<path fill-rule="evenodd" clip-rule="evenodd" fill="#F7CC9D" d="M90.297,487.64c0,0,1.58,3.626,4.069,5.589
	c2.488,1.962,7.217,2.578,10.142,0.423c2.294-1.69,3.018-4.582,2.777-6.654c-0.242-2.071-1.319-3.653-1.319-3.653
	s-0.026,2.503-1.035,5.236c-1.026,2.777-4.89,3.562-8.782,1.842c-3.928-1.735-5.103-7.215-5.103-7.215
	c-1.504,1.854-4.326,6.146-8.564,5.011c-2.912-0.779-4.086-2.98-4.172-6.895c-0.544,0.435-1.077,0.894-1.603,1.375
	c-0.424,1.56-0.606,3.46,0.031,5.399c1.449,4.407,5.572,4.776,7.909,3.864C88.607,490.414,90.297,487.64,90.297,487.64z"/>
</svg>
