<?xml version="1.0" encoding="utf-8"?>
<!-- Generator: Adobe Illustrator 17.0.0, SVG Export Plug-In . SVG Version: 6.00 Build 0)  -->
<!DOCTYPE svg PUBLIC "-//W3C//DTD SVG 1.1//EN" "http://www.w3.org/Graphics/SVG/1.1/DTD/svg11.dtd">
<svg version="1.1" id="图层_1" xmlns="http://www.w3.org/2000/svg" xmlns:xlink="http://www.w3.org/1999/xlink" x="0px" y="0px"
	 width="185.685px" height="255.128px" viewBox="0 0 185.685 255.128" enable-background="new 0 0 185.685 255.128"
	 xml:space="preserve">
<radialGradient id="SVGID_1_" cx="107.491" cy="132.8548" r="93.556" gradientTransform="matrix(0.998 -0.0636 -0.0636 -0.998 -3.6686 263.3673)" gradientUnits="userSpaceOnUse">
	<stop  offset="0" style="stop-color:#FECD97"/>
	<stop  offset="1" style="stop-color:#FFC07A"/>
</radialGradient>
<path fill="url(#SVGID_1_)" d="M93.219,70.322c-17.408,1.839-30.724,9.986-35.178,24.277s-2.154,28.907-7.292,50.904
	c-5.048,21.61,6.612,31.46,11.776,37.06c2.264,2.455,15.562,10.785,23.582,19.033c8.785,9.034,0.417,22.233,3.354,28.848
	c7.077,15.939,29.203,18.837,42.041,3.188c5.838-7.116-7.262-16.772-4.27-32.746c3.305-17.646,15.861-23.748,20.2-41.054
	c3.524-14.055-5.228-40.719-12.943-61.32C125.259,73.864,110.996,68.443,93.219,70.322z"/>
<path fill="#FFCE99" d="M54.294,131.91c0,0-1.889-7.1,5.921-11.161c9.005-4.683,19.561-0.674,22.779,3.404
	s-27.738,10.158-27.738,10.158"/>
<path fill="#FFCE99" d="M108.121,126.858c0,0-1.421-17.698,15.936-16.182c12.519,1.093,15.552,12.079,15.552,12.079"/>
<path fill="#FFFFFF" d="M54.836,130.566c0,0,0.61,7.375,3.745,12.586c4.197,6.975,10.474,10.272,17.894,8.791
	s13.087-13.169,7.461-21.377C78.31,122.357,58.935,118.804,54.836,130.566z"/>
<path fill="#FFFDFC" d="M128.188,113.457c0,0,15.017,2.654,11.528,19.531c-2.337,11.303-9.675,13.064-15.519,12.901
	c-3.959-0.111-12.501-4.317-15.687-16.815C104.858,114.752,128.188,113.457,128.188,113.457z"/>
<path fill="#512A15" d="M117.258,116.392c4.078-4.169,14.762-5.084,20.353,4.053c3.924,6.413,0.394,16.131-2.647,19.154
	c-3.657,3.635-11.571,3.627-16.301-6.632C115.888,126.948,117.258,116.392,117.258,116.392z"/>
<g id="Shape_2_40_">
	<g>
		<path fill="#9C6342" d="M73.622,152.291c-2.597-0.067-6.586-1.079-9.479-2.951c-2.918-1.889-4.303-4.387-5.75-6.512
			c-0.696-1.021-0.175,2.426,2.439,5.47c-1.018,0.565-1.686,1.56-1.701,2.233c-0.014,0.655,1.017-0.582,2.078-0.711
			c0.513-0.062,0.845-0.093,1.054-0.108c0.422,0.355,0.87,0.696,1.368,1.002c0.081,0.05,0.165,0.088,0.247,0.136
			c-0.688,0.561-1.164,1.652-1.306,2.494c-0.078,0.469,1.198-0.351,1.877-0.699c0.777-0.398,1.51-0.623,1.778-0.7
			C71.192,153.727,75.766,152.345,73.622,152.291z"/>
	</g>
</g>
<g id="Shape_2_36_">
	<g>
		<path fill="#9C6342" d="M138.881,139.301c1.338-3.196,0.792-6.035,0.408-4.793c-0.813,2.627-1.11,4.51-3.95,7.601
			c-2.99,3.255-6.804,3.466-9.311,3.761c-2.288,0.269,4.457,1.628,9.468-2.185c0.354,0.056,0.846,0.154,1.367,0.318
			c0.695,0.22,2.028,0.79,1.881,0.36c-0.271-0.782-0.908-1.751-1.661-2.16c0.364-0.417,0.679-0.847,0.955-1.284
			c0.202-0.018,0.495-0.039,0.925-0.059c1.018-0.047,2.189,0.954,2.071,0.339C140.906,140.529,140.029,139.631,138.881,139.301z"/>
	</g>
</g>
<path fill="#512A15" d="M84.076,125.679c-1.804-5.042-17.628-5.84-17.403-2.408c0.607,9.282-0.224,15.739,5.041,22.319
	c3.178,3.971,10.176,4.937,12.767-0.46C87.178,139.51,86.684,132.967,84.076,125.679z"/>
<path fill="#A85726" d="M58.863,117.448c0,0,1.621-4.488,9.542-4.484c10,0.004,10.2,5.155,7.739,3.722
	c-2.909-1.693-4.103-1.934-8.126-1.934c-3.139,0-6.472,1.062-7.944,3.214C58.971,119.578,58.117,118.641,58.863,117.448z"/>
<path fill="#A85726" d="M108.854,109.463c0.816-1.653,3.593-5.29,11.281-5.29c5.434,0,8.049,2.893,8.31,3.191
	c0.822,0.94,0.007,1.658-0.922,1.033c-1.954-1.315-2.889-2.321-7.146-2.244c-4.78,0.087-8.114,1.787-9.595,4.069
	C109.831,111.689,107.722,111.756,108.854,109.463z"/>
<path fill="#713D1F" d="M53.818,130.497c0,0-2.428,0.242-3.483-1.678c-2.116-3.851-1.135,0.084-0.827,0.825
	c0.736,1.771,2.107,3.092,5.44,3.092c0,0,2.101-8.957,14.375-10.064c2.446-0.22,7.776-0.725,14.345,2.125
	c0,0-4.347-4.685-12.172-4.685C57.672,120.112,53.818,130.497,53.818,130.497z"/>
<path fill="#713D1F" d="M108.121,126.858c0,0-0.689-14.473,16.075-14.087c10.486,0.242,15.206,8.137,15.839,9.032
	c0,0,1.569,0.187,3.64-2.691c1.331-1.849,1.452-1.28,0.417,0.988c-2.077,4.552-4.354,3.883-4.354,3.883s-6.217-7.783-15.542-8.592
	C118.716,114.916,112.042,116.392,108.121,126.858z"/>
<path fill="#4F2914" d="M87.049,154.261c-0.988-0.977-2.153-3.372,1.983-4.467c5.621-1.488,19.684-2.448,15.212,3.144
	C99.811,158.482,92.378,159.531,87.049,154.261z"/>
<path fill="#FFA083" d="M56.167,161.061c3.57,0.456,11.103-1.623,10.208-4.915s-11.661-3.348-15.184,0.427
	C47.668,160.348,56.167,161.061,56.167,161.061z"/>
<path fill="#FFA083" d="M131.742,151.414c6.117,1.96,16.727-1.951,12.154-4.817c-5.117-3.208-11.478-1.205-13.659,0.065
	C128.056,147.932,127.405,150.025,131.742,151.414z"/>
<ellipse transform="matrix(-0.0636 -0.998 0.998 -0.0636 -66.9643 217.7212)" fill="#FFFFFF" cx="68.662" cy="140.277" rx="2.39" ry="4.538"/>
<ellipse transform="matrix(-0.0636 -0.998 0.998 -0.0636 -5.1611 261.0989)" fill="#FFFFFF" cx="119.914" cy="132.971" rx="2.39" ry="4.29"/>
<path fill="#FFC07D" d="M72.404,98.445c0,0-34.234,13.963-53.604-20.878c-13.028-23.434-7.868-55.671,5.998-41.765
	s26.119,31.18,52.378,45.91S72.404,98.445,72.404,98.445z"/>
<path fill="#FFC07D" d="M111.434,73.536c0,0,18.759-25.541,34.304-45.48c6.003-7.7,15.501-22.077,24.474-19.986
	c7.102,1.655,11.079,20.733,8.545,33.059c-4.167,20.271-16.281,46.419-55.854,50.006C69.492,95.975,111.434,73.536,111.434,73.536z"
	/>
<path fill="#FF9B48" d="M71.875,99.248c0,0-29.522,1.487-41.22-23.277s6.51-12.047,10.505-8.547s22.979,18.074,31.282,23.378
	C80.744,96.106,71.875,99.248,71.875,99.248z"/>
<path fill="#FF9B48" d="M117.666,80.102c0,0,30.054-29.354,34.66-36.084s16.553-15.784,12.769,4.674
	c-5.239,28.327-36.048,35.136-43.326,37.001C114.49,87.557,117.666,80.102,117.666,80.102"/>
<path fill="#66361F" d="M93.219,70.322c0,0-36.711-3.472-38.382,44.43c0,0,12.26-10.269,16.261-14.72
	c1.954-2.174,3.489,4.413,14.057,9.129c6.835,3.05,9.757,0.991,22.169-15.945c2.545-3.472,3.849,5.512,29.448,11.503
	C136.772,104.719,127.232,61.756,93.219,70.322z"/>
<path fill="#E5432E" d="M82.337,82.064c0,0-26.845-2.538-32.829-32.026c-3.804-18.75-2.647-21.395,15.151-11.589
	c13.778,7.59,18.401,18.075,23.657,25.571c1.966,2.804,3.068-14.864,8.965-25.063c4.113-7.114,6.673-11.534,19.695-19.286
	c6.876-4.093,8.106,14.38,6.803,25.552c-1.155,9.903-6.086,21.191-20.866,33.362c0,0,12.537-0.302,27.676,10.354
	c0,0,0.945,0.357,2.932,6.076c0,0-30.93-24.834-77.411,7.98c0,0,0.141-1.789,1.38-6.501C58.663,92.03,70.255,85.24,82.337,82.064z"
	/>
<path fill="#FFA083" d="M82.808,178.167c2.313,0.002,3.218,0.507,12.165-7.028c1.377-1.159,2.246-1.014,3.767-0.435
	c1.521,0.58,15.794,5.965,18.982,3.526s3.767-1.111,3.043,0c-0.725,1.111-3.298,5.703-22.242-1.135
	c-1.807-0.652-2.101-0.58-2.753,0.145s-7.638,7.933-12.962,6.81C81.089,179.688,81.305,178.166,82.808,178.167z"/>
</svg>
