<?xml version="1.0" encoding="utf-8"?>
<!-- Generator: Adobe Illustrator 17.0.0, SVG Export Plug-In . SVG Version: 6.00 Build 0)  -->
<!DOCTYPE svg PUBLIC "-//W3C//DTD SVG 1.1//EN" "http://www.w3.org/Graphics/SVG/1.1/DTD/svg11.dtd">
<svg version="1.1" id="图层_1" xmlns="http://www.w3.org/2000/svg" xmlns:xlink="http://www.w3.org/1999/xlink" x="0px" y="0px"
	 width="223.425px" height="289.849px" viewBox="0 0 223.425 289.849" enable-background="new 0 0 223.425 289.849"
	 xml:space="preserve">
<radialGradient id="SVGID_1_" cx="136.3819" cy="130.5802" r="93.556" gradientTransform="matrix(0.998 -0.0636 0.0636 0.998 -38.2562 23.2967)" gradientUnits="userSpaceOnUse">
	<stop  offset="0" style="stop-color:#FECD97"/>
	<stop  offset="1" style="stop-color:#FFC07A"/>
</radialGradient>
<path fill="url(#SVGID_1_)" d="M104.219,91.322c-17.408,1.839-30.724,9.986-35.178,24.277c-4.454,14.291-2.154,28.907-7.292,50.904
	c-5.048,21.61,6.612,31.46,11.776,37.06c2.264,2.455,15.562,10.785,23.582,19.033c8.785,9.034,0.417,22.233,3.354,28.848
	c7.077,15.939,29.203,18.837,42.041,3.188c5.838-7.116-7.262-16.772-4.27-32.746c3.305-17.646,15.861-23.748,20.2-41.054
	c3.524-14.055-5.228-40.719-12.943-61.32C136.259,94.864,121.996,89.443,104.219,91.322z"/>
<path fill="#FFCE99" d="M65.294,152.91c0,0-1.889-7.1,5.921-11.161c9.005-4.683,19.561-0.674,22.779,3.404
	s-27.738,10.158-27.738,10.158"/>
<path fill="#FFCE99" d="M119.121,147.858c0,0-1.421-17.698,15.936-16.182c12.519,1.093,15.552,12.079,15.552,12.079"/>
<path fill="#FFFFFF" d="M65.836,151.566c0,0,0.61,7.375,3.745,12.586c4.197,6.975,10.474,10.272,17.894,8.791
	c7.42-1.481,13.087-13.169,7.461-21.377C89.31,143.357,69.935,139.804,65.836,151.566z"/>
<path fill="#FFFDFC" d="M139.188,134.457c0,0,15.017,2.654,11.528,19.531c-2.337,11.303-9.675,13.064-15.519,12.901
	c-3.959-0.111-12.501-4.317-15.687-16.815C115.858,135.752,139.188,134.457,139.188,134.457z"/>
<path fill="#512A15" d="M128.258,137.392c4.078-4.169,14.762-5.084,20.353,4.053c3.924,6.413,0.394,16.131-2.647,19.154
	c-3.657,3.635-11.571,3.627-16.301-6.632C126.888,147.948,128.258,137.392,128.258,137.392z"/>
<g id="Shape_2_40_">
	<g>
		<path fill-rule="evenodd" clip-rule="evenodd" fill="#9C6342" d="M84.622,173.291c-2.597-0.067-6.586-1.079-9.479-2.951
			c-2.918-1.889-4.303-4.387-5.75-6.512c-0.696-1.021-0.175,2.426,2.439,5.47c-1.018,0.565-1.686,1.56-1.701,2.233
			c-0.014,0.655,1.017-0.582,2.078-0.711c0.513-0.062,0.845-0.093,1.054-0.108c0.422,0.355,0.87,0.696,1.368,1.002
			c0.081,0.05,0.165,0.088,0.247,0.136c-0.688,0.561-1.164,1.652-1.306,2.494c-0.078,0.469,1.198-0.351,1.877-0.699
			c0.777-0.398,1.51-0.623,1.778-0.7C82.192,174.727,86.766,173.345,84.622,173.291z"/>
	</g>
</g>
<g id="Shape_2_36_">
	<g>
		<path fill-rule="evenodd" clip-rule="evenodd" fill="#9C6342" d="M149.881,160.301c1.338-3.196,0.792-6.035,0.408-4.793
			c-0.813,2.627-1.11,4.51-3.95,7.601c-2.99,3.255-6.804,3.466-9.311,3.761c-2.288,0.269,4.457,1.628,9.468-2.185
			c0.354,0.056,0.846,0.154,1.367,0.318c0.695,0.22,2.028,0.79,1.881,0.36c-0.271-0.782-0.908-1.751-1.661-2.16
			c0.364-0.417,0.679-0.847,0.955-1.284c0.202-0.018,0.495-0.039,0.925-0.059c1.018-0.047,2.189,0.954,2.071,0.339
			C151.906,161.529,151.029,160.631,149.881,160.301z"/>
	</g>
</g>
<path fill="#512A15" d="M95.076,146.679c-1.804-5.042-17.628-5.84-17.403-2.408c0.607,9.282-0.224,15.739,5.041,22.319
	c3.178,3.971,10.176,4.937,12.767-0.46C98.178,160.51,97.684,153.967,95.076,146.679z"/>
<path fill="#A85726" d="M69.863,138.448c0,0,1.621-4.488,9.542-4.484c10,0.004,10.2,5.155,7.739,3.722
	c-2.909-1.693-4.103-1.934-8.126-1.934c-3.139,0-6.472,1.062-7.944,3.214C69.971,140.578,69.117,139.641,69.863,138.448z"/>
<path fill="#A85726" d="M119.854,130.463c0.816-1.653,3.593-5.29,11.281-5.29c5.434,0,8.049,2.893,8.31,3.191
	c0.822,0.94,0.007,1.658-0.922,1.033c-1.954-1.315-2.889-2.321-7.146-2.244c-4.78,0.087-8.114,1.787-9.595,4.069
	C120.831,132.689,118.722,132.756,119.854,130.463z"/>
<path fill="#713D1F" d="M64.818,151.497c0,0-2.428,0.242-3.483-1.678c-2.116-3.851-1.135,0.084-0.827,0.825
	c0.736,1.771,2.107,3.092,5.44,3.092c0,0,2.101-8.957,14.375-10.064c2.446-0.22,7.776-0.725,14.345,2.125
	c0,0-4.347-4.685-12.172-4.685C68.672,141.112,64.818,151.497,64.818,151.497z"/>
<path fill="#713D1F" d="M119.121,147.858c0,0-0.689-14.473,16.075-14.087c10.486,0.242,15.206,8.137,15.839,9.032
	c0,0,1.569,0.187,3.64-2.691c1.331-1.849,1.452-1.28,0.417,0.988c-2.077,4.552-4.354,3.883-4.354,3.883s-6.217-7.783-15.542-8.592
	C129.716,135.916,123.042,137.392,119.121,147.858z"/>
<path fill="#4F2914" d="M98.049,175.261c-0.988-0.977-2.153-3.372,1.983-4.467c5.621-1.488,19.684-2.448,15.212,3.144
	C110.811,179.482,103.378,180.531,98.049,175.261z"/>
<path fill="#FFA083" d="M67.167,182.061c3.57,0.456,11.103-1.623,10.208-4.915s-11.661-3.348-15.184,0.427
	C58.668,181.348,67.167,182.061,67.167,182.061z"/>
<path fill="#FFA083" d="M142.742,172.414c6.117,1.96,16.727-1.951,12.154-4.817c-5.117-3.208-11.478-1.205-13.659,0.065
	C139.056,168.932,138.405,171.025,142.742,172.414z"/>
<ellipse transform="matrix(0.998 -0.0636 0.0636 0.998 -10.0958 5.3929)" fill="#FFFFFF" cx="79.66" cy="161.273" rx="4.538" ry="2.39"/>
<ellipse transform="matrix(0.998 -0.0636 0.0636 0.998 -9.5273 8.6377)" fill="#FFFFFF" cx="130.911" cy="153.967" rx="4.29" ry="2.39"/>
<path fill="#FFC07D" d="M83.404,119.445c0,0-34.234,13.963-53.604-20.878c-13.028-23.434-7.868-55.671,5.998-41.765
	s26.119,31.18,52.378,45.91S83.404,119.445,83.404,119.445z"/>
<path fill="#FFC07D" d="M122.434,94.536c0,0,18.759-25.541,34.304-45.48c6.003-7.7,15.501-22.077,24.474-19.986
	c7.102,1.655,11.079,20.733,8.545,33.059c-4.167,20.271-16.281,46.419-55.854,50.006C80.492,116.975,122.434,94.536,122.434,94.536z
	"/>
<path fill="#FF9B48" d="M82.875,120.248c0,0-29.522,1.487-41.22-23.277s6.51-12.047,10.505-8.547s22.979,18.074,31.282,23.378
	C91.744,117.106,82.875,120.248,82.875,120.248z"/>
<path fill="#FF9B48" d="M128.666,101.102c0,0,30.054-29.354,34.66-36.084c4.606-6.73,16.553-15.784,12.769,4.674
	c-5.239,28.327-36.048,35.136-43.326,37.001C125.49,108.557,128.666,101.102,128.666,101.102"/>
<path fill="#66361F" d="M104.219,91.322c0,0-36.711-3.472-38.382,44.43c0,0,12.26-10.269,16.261-14.72
	c1.954-2.174,3.489,4.413,14.057,9.129c6.835,3.05,9.757,0.991,22.169-15.945c2.545-3.472,3.849,5.512,29.448,11.503
	C147.772,125.719,138.232,82.756,104.219,91.322z"/>
<path fill="#E5432E" d="M93.337,103.064c0,0-26.845-2.538-32.829-32.026c-3.804-18.75-2.647-21.395,15.151-11.589
	C89.437,67.039,94.06,77.524,99.316,85.02c1.966,2.804,3.068-14.864,8.965-25.063c4.113-7.114,6.673-11.534,19.695-19.286
	c6.876-4.093,8.106,14.38,6.803,25.552c-1.155,9.903-6.086,21.191-20.866,33.362c0,0,12.537-0.302,27.676,10.354
	c0,0,0.945,0.357,2.932,6.076c0,0-30.93-24.834-77.411,7.98c0,0,0.141-1.789,1.38-6.501C69.663,113.03,81.255,106.24,93.337,103.064
	z"/>
<path fill="#FFA083" d="M93.808,199.167c2.313,0.002,3.218,0.507,12.165-7.028c1.377-1.159,2.246-1.014,3.767-0.435
	c1.521,0.58,15.794,5.965,18.982,3.526c3.188-2.439,3.767-1.111,3.043,0c-0.725,1.111-3.298,5.703-22.242-1.135
	c-1.807-0.652-2.101-0.58-2.753,0.145c-0.652,0.725-7.638,7.933-12.962,6.81C92.089,200.688,92.305,199.166,93.808,199.167z"/>
</svg>
