<?xml version="1.0" encoding="utf-8"?>
<!-- Generator: Adobe Illustrator 17.0.0, SVG Export Plug-In . SVG Version: 6.00 Build 0)  -->
<!DOCTYPE svg PUBLIC "-//W3C//DTD SVG 1.1//EN" "http://www.w3.org/Graphics/SVG/1.1/DTD/svg11.dtd">
<svg version="1.1" xmlns="http://www.w3.org/2000/svg" xmlns:xlink="http://www.w3.org/1999/xlink" x="0px" y="0px" width="239px"
	 height="267.064px" viewBox="-39.658 -11.936 239 267.064" enable-background="new -39.658 -11.936 239 267.064"
	 xml:space="preserve">
<g id="图层_1">
	
		<circle fill-rule="evenodd" clip-rule="evenodd" fill="none" stroke="#FFC07D" stroke-miterlimit="10" cx="79.221" cy="152.507" r="89.988"/>
	
		<radialGradient id="SVGID_1_" cx="89.0342" cy="125.0633" r="93.556" gradientTransform="matrix(0.998 -0.0636 0.0636 0.998 -23.7102 3.2807)" gradientUnits="userSpaceOnUse">
		<stop  offset="0" style="stop-color:#FECD97"/>
		<stop  offset="1" style="stop-color:#FFC07A"/>
	</radialGradient>
	<path fill="url(#SVGID_1_)" d="M71.162,68.811c-17.408,1.839-30.724,9.986-35.178,24.277s-2.154,28.907-7.292,50.904
		c-5.048,21.61,6.612,31.46,11.776,37.06c2.264,2.455,15.562,10.785,23.582,19.033c8.785,9.034,0.417,22.233,3.354,28.848
		c7.077,15.939,29.203,18.837,42.041,3.188c5.838-7.116-7.262-16.772-4.27-32.746c3.305-17.646,15.861-23.748,20.2-41.054
		c3.524-14.055-5.228-40.719-12.943-61.32C103.202,72.354,88.939,66.933,71.162,68.811z"/>
	<path fill="#FFCE99" d="M32.237,130.4c0,0-1.889-7.1,5.921-11.161c9.005-4.683,19.561-0.674,22.779,3.404
		s-27.738,10.158-27.738,10.158"/>
	<path fill="#FFCE99" d="M86.065,125.347c0,0-1.421-17.698,15.936-16.182c12.519,1.093,15.552,12.079,15.552,12.079"/>
	<path fill="#FFFFFF" d="M32.78,129.055c0,0,0.61,7.375,3.745,12.586c4.197,6.975,10.474,10.272,17.894,8.791
		c7.42-1.481,13.087-13.169,7.461-21.377S36.878,117.294,32.78,129.055z"/>
	<path fill="#FFFDFC" d="M106.131,111.947c0,0,15.017,2.654,11.528,19.531c-2.337,11.303-9.675,13.064-15.519,12.901
		c-3.959-0.111-12.501-4.317-15.687-16.815C82.802,113.241,106.131,111.947,106.131,111.947z"/>
	<path fill="#512A15" d="M95.202,114.881c4.078-4.169,14.762-5.084,20.353,4.053c3.924,6.413,0.394,16.131-2.647,19.154
		c-3.657,3.635-11.571,3.627-16.301-6.632C93.831,125.438,95.202,114.881,95.202,114.881z"/>
	<g id="Shape_2_40_">
		<g>
			<path fill-rule="evenodd" clip-rule="evenodd" fill="#9C6342" d="M51.565,150.781c-2.597-0.067-6.586-1.078-9.48-2.951
				c-2.918-1.889-4.303-4.387-5.75-6.512c-0.696-1.021-0.175,2.426,2.439,5.47c-1.018,0.565-1.686,1.56-1.701,2.233
				c-0.014,0.655,1.017-0.582,2.078-0.711c0.513-0.062,0.845-0.093,1.054-0.108c0.422,0.355,0.87,0.696,1.368,1.002
				c0.081,0.05,0.165,0.088,0.247,0.136c-0.688,0.561-1.164,1.652-1.306,2.494c-0.077,0.469,1.198-0.351,1.877-0.699
				c0.777-0.398,1.51-0.623,1.778-0.7C49.135,152.217,53.709,150.834,51.565,150.781z"/>
		</g>
	</g>
	<g id="Shape_2_36_">
		<g>
			<path fill-rule="evenodd" clip-rule="evenodd" fill="#9C6342" d="M116.825,137.79c1.338-3.196,0.792-6.035,0.408-4.793
				c-0.813,2.627-1.11,4.51-3.95,7.601c-2.991,3.255-6.804,3.466-9.311,3.761c-2.288,0.269,4.457,1.628,9.468-2.185
				c0.354,0.056,0.846,0.154,1.367,0.318c0.695,0.22,2.028,0.79,1.881,0.36c-0.271-0.782-0.908-1.751-1.661-2.16
				c0.364-0.417,0.679-0.847,0.955-1.284c0.202-0.018,0.495-0.039,0.925-0.059c1.018-0.047,2.189,0.954,2.071,0.339
				C118.85,139.019,117.972,138.12,116.825,137.79z"/>
		</g>
	</g>
	<path fill="#512A15" d="M62.019,124.169c-1.804-5.042-17.628-5.84-17.403-2.408c0.607,9.282-0.224,15.739,5.041,22.319
		c3.178,3.971,10.176,4.937,12.767-0.46C65.121,138,64.627,131.456,62.019,124.169z"/>
	<path fill="#A85726" d="M36.806,115.938c0,0,1.621-4.488,9.542-4.484c10,0.004,10.2,5.155,7.739,3.722
		c-2.909-1.693-4.103-1.934-8.126-1.934c-3.139,0-6.472,1.062-7.944,3.214C36.914,118.067,36.06,117.131,36.806,115.938z"/>
	<path fill="#A85726" d="M86.797,107.953c0.816-1.653,3.593-5.29,11.281-5.29c5.434,0,8.049,2.893,8.31,3.191
		c0.822,0.94,0.007,1.658-0.922,1.033c-1.954-1.315-2.889-2.321-7.146-2.244c-4.78,0.087-8.114,1.787-9.595,4.069
		C87.774,110.179,85.665,110.246,86.797,107.953z"/>
	<path fill="#713D1F" d="M31.762,128.987c0,0-2.428,0.242-3.483-1.678c-2.116-3.851-1.135,0.084-0.827,0.825
		c0.736,1.771,2.107,3.092,5.44,3.092c0,0,2.101-8.957,14.375-10.064c2.446-0.22,7.776-0.725,14.345,2.125
		c0,0-4.347-4.685-12.172-4.685C35.615,118.602,31.762,128.987,31.762,128.987z"/>
	<path fill="#713D1F" d="M86.065,125.347c0,0-0.689-14.473,16.075-14.087c10.486,0.242,15.206,8.137,15.839,9.032
		c0,0,1.569,0.187,3.64-2.691c1.331-1.849,1.452-1.28,0.417,0.988c-2.077,4.552-4.354,3.883-4.354,3.883s-6.217-7.783-15.542-8.592
		C96.659,113.405,89.985,114.881,86.065,125.347z"/>
	<path fill="#4F2914" d="M64.992,152.75c-0.988-0.977-2.153-3.372,1.983-4.467c5.621-1.488,19.684-2.448,15.212,3.144
		C77.754,156.972,70.322,158.021,64.992,152.75z"/>
	<path fill="#FFA083" d="M34.11,159.551c3.57,0.456,11.103-1.623,10.208-4.915s-11.661-3.348-15.184,0.427
		C25.611,158.837,34.11,159.551,34.11,159.551z"/>
	<path fill="#FFA083" d="M109.686,149.904c6.117,1.96,16.727-1.951,12.154-4.817c-5.117-3.208-11.478-1.205-13.659,0.065
		C105.999,146.422,105.349,148.514,109.686,149.904z"/>
	
		<ellipse transform="matrix(0.998 -0.0636 0.0636 0.998 -8.731 3.2449)" fill="#FFFFFF" cx="46.604" cy="138.762" rx="4.538" ry="2.39"/>
	
		<ellipse transform="matrix(0.998 -0.0636 0.0636 0.998 -8.1626 6.4898)" fill="#FFFFFF" cx="97.855" cy="131.456" rx="4.29" ry="2.39"/>
	<path fill="#FFC07D" d="M50.347,96.934c0,0-34.234,13.963-53.604-20.878c-13.028-23.434-7.868-55.671,5.998-41.765
		s26.119,31.18,52.378,45.91S50.347,96.934,50.347,96.934z"/>
	<path fill="#FFC07D" d="M89.377,72.025c0,0,18.759-25.541,34.304-45.48c6.003-7.7,15.501-22.077,24.474-19.986
		c7.102,1.655,11.079,20.733,8.545,33.059c-4.167,20.271-16.281,46.419-55.853,50.006C47.435,94.465,89.377,72.025,89.377,72.025z"
		/>
	<path fill="#FF9B48" d="M49.819,97.737c0,0-29.522,1.487-41.22-23.277s6.51-12.047,10.505-8.547
		c3.995,3.5,22.979,18.074,31.282,23.378C58.688,94.596,49.819,97.737,49.819,97.737z"/>
	<path fill="#FF9B48" d="M95.609,78.591c0,0,30.054-29.354,34.66-36.084c4.606-6.73,16.553-15.784,12.769,4.674
		c-5.239,28.327-36.048,35.136-43.326,37.001C92.433,86.047,95.609,78.591,95.609,78.591"/>
	<path fill="#66361F" d="M71.162,68.811c0,0-36.711-3.472-38.382,44.43c0,0,12.26-10.269,16.261-14.72
		c1.954-2.174,3.489,4.413,14.057,9.129c6.835,3.05,9.757,0.991,22.169-15.945c2.545-3.472,3.849,5.512,29.448,11.503
		C114.715,103.209,105.175,60.246,71.162,68.811z"/>
	<path fill="#E5432E" d="M60.28,80.553c0,0-26.845-2.538-32.829-32.026c-3.804-18.75-2.647-21.395,15.151-11.589
		C56.38,44.529,61.004,55.013,66.259,62.51c1.966,2.804,3.068-14.864,8.965-25.063c4.113-7.114,6.673-11.534,19.695-19.286
		c6.876-4.093,8.106,14.38,6.803,25.552c-1.155,9.903-6.086,21.191-20.866,33.362c0,0,12.537-0.302,27.676,10.354
		c0,0,0.945,0.357,2.932,6.076c0,0-30.93-24.834-77.411,7.98c0,0,0.141-1.789,1.38-6.501C36.607,90.52,48.198,83.729,60.28,80.553z"
		/>
	<path fill="#FFA083" d="M60.751,176.656c2.313,0.002,3.218,0.507,12.165-7.028c1.377-1.159,2.246-1.014,3.767-0.435
		c1.521,0.58,15.794,5.965,18.982,3.526c3.188-2.439,3.767-1.111,3.043,0s-3.298,5.703-22.242-1.135
		c-1.807-0.652-2.101-0.58-2.753,0.145c-0.652,0.725-7.638,7.933-12.962,6.81C59.033,178.178,59.248,176.655,60.751,176.656z"/>
</g>
<g id="图层_2" display="none">
	
		<circle display="inline" fill-rule="evenodd" clip-rule="evenodd" fill="none" stroke="#FFC07D" stroke-miterlimit="10" cx="79.045" cy="152.208" r="89.988"/>
	<g id="形状_57" display="inline">
		<g>
			<path fill-rule="evenodd" clip-rule="evenodd" fill="#FFC07D" d="M74.17,77.55c-3.282-52.563-16.508-58.61-26.744-67.222
				C37.19,1.715,30.526,9.92,37.306,42.131c6.78,32.211,19.516,36.864,19.516,36.864S77.452,130.112,74.17,77.55z"/>
		</g>
	</g>
	<g id="形状_58" display="inline">
		<g>
			<path fill-rule="evenodd" clip-rule="evenodd" fill="#FF9B48" d="M69.11,76.104c-0.662-21.968-10.895-35.58-11.565-37.587
				s-14.213-22.459-10.119,2.891c4.094,25.35,17.348,38.309,17.348,38.309S69.772,98.072,69.11,76.104z"/>
		</g>
	</g>
	<g id="形状_59" display="inline">
		<g>
			<path fill-rule="evenodd" clip-rule="evenodd" fill="#FFC07D" d="M177.045,31.137c-0.143-10.671-18.61-9.996-46.23,10.925
				c-27.62,20.921-29.581,43.688-29.581,43.688s-26.986,25.956,20.326,14.011C168.872,87.816,177.188,41.809,177.045,31.137z"/>
		</g>
	</g>
	<g id="形状_60" display="inline">
		<g>
			<path fill-rule="evenodd" clip-rule="evenodd" fill="#FF9B48" d="M134.162,53.837c-19.718,19.408-25.868,31.305-25.868,31.305
				l-0.059,0.631c0,0-13.371,14.984,11.002,4.856c24.373-10.127,34.369-29.146,40.88-41.987
				C166.627,35.801,153.879,34.429,134.162,53.837z"/>
		</g>
	</g>
	<g id="形状_47_3_" display="inline">
		<g>
			
				<radialGradient id="SVGID_2_" cx="81.8924" cy="148.5379" r="73.3425" gradientTransform="matrix(1 0 0 1 -8.3119 9.0816)" gradientUnits="userSpaceOnUse">
				<stop  offset="0" style="stop-color:#FECD97"/>
				<stop  offset="1" style="stop-color:#FFC07A"/>
			</radialGradient>
			<path fill-rule="evenodd" clip-rule="evenodd" fill="url(#SVGID_2_)" d="M96.622,74.285c0,0-40.793-10.112-53.242,18.381
				c-12.449,28.494-4.086,40.38-13.198,49.742c-9.112,9.361-21.398,2.233-13.284,24.15c8.388,22.657,40.749,25.696,49.846,24.923
				c9.714-0.825,10.519,4.283,10.818,5.41c1.132,4.266,0.353,8.34-9.463,24.443c-11.156,18.302,34.572,39.315,49.65-4.93
				c3.298-11.893-13.065-29.755,5.494-55.284C141.801,135.591,134.023,80.078,96.622,74.285z"/>
		</g>
	</g>
	<path display="inline" fill-rule="evenodd" clip-rule="evenodd" fill="#66361F" d="M96.622,74.286c0,0-40.793-10.113-53.242,18.381
		c-1.297,2.969-2.309,5.739-3.175,8.395c0.488,3.295,1.834,6.601,3.809,10.62c5.669,11.536,20.932-2.153,40.565-17.113
		c0.002,0.204,9.082,19.24,24.086,25.353c4.623,1.793,15.041-7.427,21.19-13.46C124.921,90.347,113.96,76.971,96.622,74.286z"/>
	<g id="形状_49" display="inline">
		<g>
			<path fill-rule="evenodd" clip-rule="evenodd" fill="#A85726" d="M92.819,115.485c-12.526-15.692-30.548,5.762-31.058,6.338
				c-0.509,0.577-0.079,1.982,1.268,0.634c19.143-18.592,27.028-6.498,28.522-5.071C92.575,118.363,94.703,117.845,92.819,115.485z"
				/>
		</g>
	</g>
	<g id="形状_50" display="inline">
		<g>
			<path fill-rule="evenodd" clip-rule="evenodd" fill="#754224" d="M96.356,129.572c0,0-18.568,14.092-36.497,4.294
				c-1.361-0.744-2.609-0.253-0.634,1.902c4.082,4.453,18.207,10.645,36.778-3.49c0,0,1.777,1.818,6.145,0.966
				C106.711,132.352,99.826,132.971,96.356,129.572z"/>
		</g>
	</g>
	<g id="形状_53" display="inline">
		<g>
			<path fill-rule="evenodd" clip-rule="evenodd" fill="#FE915C" d="M57.324,178.868c-1.278,0.243-17.833,3.465-26.226-0.717
				c-1.025-0.511-2.355,0.161-0.929,1.293c4.213,3.344,14.843,4.053,27.789,0.692C59.462,179.745,59.025,178.545,57.324,178.868z"/>
		</g>
	</g>
	<g id="形状_51" display="inline">
		<g>
			<path fill-rule="evenodd" clip-rule="evenodd" fill="#FFA083" d="M88.382,144.641c0,0-10.48,0.165-10.775,4.437
				c-0.296,4.271,8.253,4.904,10.775,5.071s10.867-0.832,11.409-4.437C100.333,146.107,94.503,144.661,88.382,144.641z"/>
		</g>
	</g>
	<path display="inline" fill-rule="evenodd" clip-rule="evenodd" fill="#E5432E" d="M125.767,96.427
		c-8.535-6.206-37.465-24.746-69.953-17.976c-4.817,2.896-9.03,7.118-11.925,13.171c5.451-1.666,17.894-4.568,34.352-2.759
		c20.786,2.286,41.223,6.63,51.128,16.107C128.379,102,127.179,99.139,125.767,96.427z"/>
	<g id="形状_56" display="inline">
		<g>
			<path fill-rule="evenodd" clip-rule="evenodd" fill="#E5432E" d="M101.059,40.058c-11.06,6.182-15.846,15.846-15.846,15.846
				s-0.357-10.44-10.775-28.522C64.019,9.3,62.297,32.049,63.029,48.298c0.732,16.249,13.31,29.156,13.31,29.156h0.634
				c0,0-14.154,14.727,12.677,2.535c26.831-12.191,36.218-31.746,39.931-43.734C133.294,24.267,112.119,33.876,101.059,40.058z"/>
		</g>
	</g>
	<g id="形状_54" display="inline">
		<g>
			<path fill-rule="evenodd" clip-rule="evenodd" fill="#512A15" d="M21.96,148.423c-7.509,0.01-8.024,2.358-7.606,5.071
				c0.198,1.284,3.979,13.771,17.114,0C34.143,150.688,29.576,148.412,21.96,148.423z"/>
		</g>
	</g>
	<path display="inline" opacity="0.6" fill-rule="evenodd" clip-rule="evenodd" fill="#DD7528" d="M70.254,191.456
		c0,0,10.676,0.412,20.284-5.671c2.352-1.489-1.825,15.646-13.571,18.799C76.967,204.584,82.007,192.728,70.254,191.456z"/>
</g>
<g id="图层_3" display="none">
	
		<circle display="inline" fill-rule="evenodd" clip-rule="evenodd" fill="none" stroke="#FFC07D" stroke-miterlimit="10" cx="79.542" cy="152.077" r="89.988"/>
	<g id="Shape_2_35_" display="inline">
		<g>
			<path fill-rule="evenodd" clip-rule="evenodd" fill="#9C6342" d="M74.814,123.079c-3.119-0.051-7.8-0.147-11.661-1.962
				c-4.165-1.958-5.982-5.14-7.341-7.859c-0.576-1.152-0.278,2.01,1.818,5.121c-1.235,0.7-2.031,1.932-2.031,2.751
				c0,0.786,1.206-0.724,2.476-0.906c0.402-0.058,0.704-0.095,0.94-0.122c0.479,0.5,1.02,0.969,1.619,1.397
				c-0.791,0.7-1.319,1.996-1.465,2.994c-0.081,0.565,1.43-0.452,2.235-0.887c0.671-0.362,1.314-0.612,1.742-0.761
				C69.186,125.126,77.66,123.123,74.814,123.079z"/>
		</g>
	</g>
	<g id="Shape_2_33_" display="inline">
		<g>
			<path fill-rule="evenodd" clip-rule="evenodd" fill="#9C6342" d="M31.303,46.295c-3.119-0.051-7.8-0.147-11.661-1.962
				c-4.165-1.958-5.982-5.141-7.341-7.859c-0.576-1.152-0.278,2.01,1.818,5.121c-1.235,0.7-2.031,1.932-2.031,2.751
				c0,0.786,1.206-0.724,2.476-0.906c0.402-0.058,0.704-0.095,0.94-0.122c0.479,0.5,1.02,0.969,1.619,1.397
				c-0.791,0.7-1.319,1.996-1.465,2.994c-0.081,0.565,1.43-0.452,2.235-0.887c0.671-0.362,1.314-0.612,1.742-0.761
				C25.675,48.342,34.15,46.339,31.303,46.295z"/>
		</g>
	</g>
	<g id="形状_78" display="inline">
		<g>
			<path fill-rule="evenodd" clip-rule="evenodd" fill="#FFC07D" d="M113.941,9.869C85.792,28.15,79.542,69.453,79.542,69.453
				s4.718,17.474,24.571,6.757c19.853-10.717,45.902-42.699,50.984-64.498C160.179-10.087,142.09-8.411,113.941,9.869z"/>
		</g>
	</g>
	<g id="形状_79" display="inline">
		<g>
			<path fill-rule="evenodd" clip-rule="evenodd" fill="#FF9B48" d="M117.626,25.84C89.4,45.919,89.37,70.068,89.37,70.068
				s-8.557,9.545,9.828,2.457c18.385-7.088,35.673-40.952,36.856-43.613C137.238,26.25,145.853,5.761,117.626,25.84z"/>
		</g>
	</g>
	<g id="形状_80" display="inline">
		<g>
			<path fill-rule="evenodd" clip-rule="evenodd" fill="#FFC07D" d="M47.6,82.353c0,0-14.182-32.137-36.242-46.685
				c-22.06-14.548-29.978-13.567-30.099-6.143C-18.863,36.95-14.117,79.665,39,92.181C92.116,104.698,47.6,82.353,47.6,82.353z"/>
		</g>
	</g>
	<g id="形状_81" display="inline">
		<g>
			<path fill-rule="evenodd" clip-rule="evenodd" fill="#FF9B48" d="M42.686,81.125c-5.407-10.431-31.544-30.541-32.556-31.328
				c-1.012-0.787-14.947-11.138-9.214,8.6C6.648,78.134,39,89.11,39,89.11S48.092,91.555,42.686,81.125z"/>
		</g>
	</g>
	<radialGradient id="SVGID_3_" cx="77.787" cy="151.2837" r="70.7923" gradientUnits="userSpaceOnUse">
		<stop  offset="0" style="stop-color:#FECD97"/>
		<stop  offset="1" style="stop-color:#FFC07A"/>
	</radialGradient>
	<path display="inline" fill-rule="evenodd" clip-rule="evenodd" fill="url(#SVGID_3_)" d="M76.528,63.81
		c0,0-38.337-2.449-43.613,33.785c-5.277,36.233,9.122,56.722-1.843,72.484c-10.965,15.762,27.6,32.565,50.984,24.571
		c4.659-0.477-6.221,15.207-7.026,17.322c-2.427,6.381-2.562,26.093,23.576,26.81c26.138,0.717,19.077-32.461,19.077-32.461
		s-7.499-19.606,3.686-52.827C132.555,120.272,128.253,68.922,76.528,63.81z"/>
	<path display="inline" fill-rule="evenodd" clip-rule="evenodd" fill="#66361F" d="M76.626,63.81c0,0-38.337-2.449-43.613,33.785
		c-0.822,5.643-1.166,10.903-1.203,15.823c4.101-3.623,10.833-12.342,11.032-15.823c0.289-5.083,7.199,26.363,19.042,19.657
		c11.843-6.707,28.359-25.593,29.485-30.099c1.126-4.507,18.281,30.553,27.028,17.199c2.434-3.716,3.111-5.649,3.355-8.362
		C115.558,80.242,102.625,66.116,76.626,63.81z"/>
	<path display="inline" fill-rule="evenodd" clip-rule="evenodd" fill="#FFCE99" d="M53.561,143.412
		c-8.589-6.068-7.268-8.385-12.385-7.471c-9.602,1.716-7.154,4.207-7.088,3.938s-0.012-7.327,6.015-7.672
		c6.53-0.373,9.479,3.026,11.726,7.146C54.653,144.534,53.561,143.412,53.561,143.412"/>
	<g id="形状_70" display="inline">
		<g>
			<path fill-rule="evenodd" clip-rule="evenodd" fill="#FFFFFF" d="M110.255,126.581c0.094,0.029-17.135,10.365-33.171,11.671
				c0,0,2.826,18.228,24.571,12.9C112.641,148.511,114.214,134.965,110.255,126.581z"/>
		</g>
	</g>
	<g id="形状_71" display="inline">
		<g>
			<path fill-rule="evenodd" clip-rule="evenodd" fill="#FFFFFF" d="M34.086,138.866c0,0,1.44,16.146,11.057,17.2
				c9.617,1.053,9.048-5.6,9.104-9.553C54.303,142.56,39.735,130.42,34.086,138.866z"/>
		</g>
	</g>
	<path display="inline" fill-rule="evenodd" clip-rule="evenodd" fill="#FFCE99" d="M75.382,137.847
		c9.345,0.412,17.462-5.781,22.578-4.867c9.602,1.716,14.836-9.016,12.567-7.934c-0.25,0.119,0.085-2.399-9.407,0.843
		c-5.758,1.966-13.319,7.049-20.503,9.064C75.382,136.421,75.382,137.847,75.382,137.847"/>
	<path display="inline" fill-rule="evenodd" clip-rule="evenodd" fill="#FFA083" d="M42.686,161.594
		c-0.13-2.874-4.729-3.247-7.59-3.201c-0.275,3.07-0.956,5.943-2.258,8.664C35.872,166.725,42.845,165.132,42.686,161.594z"/>
	<g id="形状_73_2_" display="inline">
		<g>
			<path fill-rule="evenodd" clip-rule="evenodd" fill="#FFA083" d="M118.246,152.639c-0.268-0.85-1.62-2.804-9.22-0.259
				c-8.953,2.998-7.566,6.06-7.197,6.738c0.72,1.32,2.586,2.598,9.04,0.634C117.323,157.786,118.826,154.478,118.246,152.639z"/>
		</g>
	</g>
	<g id="形状_74" display="inline">
		<g>
			<path fill-rule="evenodd" clip-rule="evenodd" fill="#512A15" d="M43.3,172.651c-9.408,0.274-9.363,2.572-8.6,4.3
				c5.249,11.875,20.23,1.278,20.885-1.843C56.24,171.987,52.708,172.377,43.3,172.651z"/>
		</g>
	</g>
	<path display="inline" fill-rule="evenodd" clip-rule="evenodd" fill="#FF9D63" d="M85.07,178.179
		c-8.363,13.482-30.429,14.436-38.949,14.277c1.493,0.6,3.046,1.146,4.642,1.636c28.411-0.599,34.774-13.534,35.535-15.298
		C86.805,177.62,85.81,177.054,85.07,178.179z"/>
	<g id="形状_69" display="inline">
		<g>
			<path fill-rule="evenodd" clip-rule="evenodd" fill="#512A15" d="M110.255,126.581c-1.511-1.987-5.151,5.761-22.114,9.828
				c0,0,6.561,15.622,17.2,9.214C112.988,141.1,111.766,128.568,110.255,126.581z"/>
		</g>
	</g>
	<g id="形状_65" display="inline">
		<g>
			<path fill-rule="evenodd" clip-rule="evenodd" fill="#A85726" d="M50.671,128.423c-9.205-20.265-18.842-8.636-18.842-8.636
				l0.032,1.884c10.645-8.231,16.451,5.338,16.968,6.752C49.596,130.523,51.232,129.658,50.671,128.423z"/>
		</g>
	</g>
	<g id="形状_82_2_" display="inline">
		<g>
			<path fill-rule="evenodd" clip-rule="evenodd" fill="#A85726" d="M103.498,111.838c-1.066-1.118-19.175-13.147-27.028,17.814
				c-0.538,2.129,1.211,2.167,1.843,0c1.265-2.248,6.893-22.523,23.956-16.585C103.946,113.65,104.564,112.956,103.498,111.838z"/>
		</g>
	</g>
	<g id="形状_67" display="inline">
		<g>
			<path fill-rule="evenodd" clip-rule="evenodd" fill="#733F21" d="M118.241,127.195c-2.275,0.237-5.862-1.368-7.371-2.457
				c-2.527-1.823-22.545,14.61-33.785,12.285c-2.53-0.49-2.709,1.408-0.614,1.843c2.35,0.95,19.649-1.108,33.785-11.671
				c0.11-0.127,2.513,2.443,7.986,1.229C121.362,127.731,119.92,127.02,118.241,127.195z"/>
		</g>
	</g>
	<path display="inline" fill-rule="evenodd" clip-rule="evenodd" fill="#E5432E" d="M116.631,86.027
		c-13.882-9.673-58.607-36.065-82.332,5.082c-0.606,2.046-1.097,4.237-1.441,6.6c-0.347,2.383-0.605,4.694-0.794,6.944
		c2.594-6.122,10.782-20.129,32.122-22.301c26.104-2.657,37.356-0.912,57.85,14.364C120.612,92.995,118.825,89.325,116.631,86.027z"
		/>
	<g id="形状_68_2_" display="inline">
		<g>
			<path fill-rule="evenodd" clip-rule="evenodd" fill="#512A15" d="M53.884,143.673c0,0-10.465-8.602-12.443-6.489
				c-0.973,0.732,2.806,14.81,8.757,16.317C56.149,155.008,53.884,143.673,53.884,143.673z"/>
		</g>
	</g>
	<g id="形状_68" display="inline">
		<g>
			<path fill-rule="evenodd" clip-rule="evenodd" fill="#733F21" d="M53.955,143.755c0,0-4.487-7.27-11.671-8.6
				c-7.184-1.33-8.6,4.3-8.6,4.3c-1.868,0.722-3.238-0.318-3.686-1.229c-0.448-0.911-1.081-1.443-0.614,0
				c0.947,2.926,4.979,3.967,5.151,2.972c0.105-4.208,6.348-5.117,11.878-1.951c3.326,1.904,6.051,4.061,7.159,4.75
				C54.307,144.455,53.955,143.755,53.955,143.755z"/>
		</g>
	</g>
	<g id="形状_77_29_" display="inline">
		<g>
			<path fill-rule="evenodd" clip-rule="evenodd" fill="#E5432E" d="M75.856,6.798c-23.201,16.538-27.072,42.6-27.028,42.385
				c-2.009-9.437-12.48-25.077-20.271-35.628c-7.791-10.551-14.277,18.008-6.143,34.399c8.134,16.391,28.256,29.485,28.256,29.485
				s-1.11,17.09,17.814-6.143C87.409,48.064,91.316,22.872,92.441,9.869C93.567-3.133,86.432-1.18,75.856,6.798z"/>
		</g>
	</g>
	
		<ellipse transform="matrix(0.9777 -0.21 0.21 0.9777 -28.5106 23.2016)" display="inline" fill-rule="evenodd" clip-rule="evenodd" fill="#FFFFFF" cx="94.98" cy="145.831" rx="4.782" ry="1.957"/>
	
		<ellipse transform="matrix(0.9657 -0.2595 0.2595 0.9657 -37.3725 16.8077)" display="inline" fill-rule="evenodd" clip-rule="evenodd" fill="#FFFFFF" cx="44.972" cy="149.95" rx="2.953" ry="2.053"/>
	<g id="Shape_2_27_" display="inline">
		<g>
			<path fill-rule="evenodd" clip-rule="evenodd" fill="#9C6342" d="M47.884,156.017c-1.884-0.043-4.864,0.086-7.044-1.656
				c-2.252-1.8-3.614-4.34-4.434-6.635c-0.354-0.99-0.165,1.794,1.163,4.464c-0.025,0.012-0.048,0.02-0.074,0.037
				c-0.838,0.56-1.385,1.706-1.385,2.446c0,0.664,0.728-0.611,1.495-0.765c0.551-0.11,0.812-0.14,0.918-0.149
				c0.285,0.388,0.599,0.754,0.949,1.082c-0.546,0.541-0.911,1.758-1.006,2.671c-0.049,0.477,0.863-0.382,1.35-0.749
				c0.699-0.527,1.36-0.782,1.36-0.782s-0.003-0.007-0.004-0.008C44.79,157.635,49.551,156.053,47.884,156.017z"/>
		</g>
	</g>
	<g id="Shape_2_25_" display="inline">
		<g>
			<path fill-rule="evenodd" clip-rule="evenodd" fill="#9C6342" d="M114.022,145.186c-0.204-0.659-1.152-1.452-2.321-1.708
				c0.912-3.026,0.365-5.646,0.188-4.575c-0.417,2.527-1.087,5.542-3.952,8.155c-2.656,2.423-6.401,3.666-8.901,4.485
				c-2.278,0.744,5.042,0.246,9.336-3.096c0.382,0.013,0.963,0.055,1.592,0.179c0.757,0.149,2.226,0.592,2.02,0.157
				c-0.366-0.767-1.115-1.678-1.926-2.044c0.376-0.494,0.695-1.007,0.956-1.529c0.198-0.037,0.45-0.082,0.788-0.136
				C112.869,144.904,114.217,145.819,114.022,145.186z"/>
		</g>
	</g>
	<path display="inline" opacity="0.6" fill-rule="evenodd" clip-rule="evenodd" fill="#DD7528" d="M82.056,194.649
		c0,0,7.337-1.916,18.572-10.623c2.133-1.653-3.832,18.256-22.141,21.996C78.487,206.022,85.953,194.488,82.056,194.649z"/>
</g>
</svg>
