<?xml version="1.0" encoding="utf-8"?>
<!-- Generator: Adobe Illustrator 17.0.0, SVG Export Plug-In . SVG Version: 6.00 Build 0)  -->
<!DOCTYPE svg PUBLIC "-//W3C//DTD SVG 1.1//EN" "http://www.w3.org/Graphics/SVG/1.1/DTD/svg11.dtd">
<svg version="1.1" id="图层_1" xmlns="http://www.w3.org/2000/svg" xmlns:xlink="http://www.w3.org/1999/xlink" x="0px" y="0px"
	 width="185.685px" height="255.128px" viewBox="0 0 185.685 255.128" enable-background="new 0 0 185.685 255.128"
	 xml:space="preserve">
<g id="形状_57">
	<g>
		<path fill-rule="evenodd" clip-rule="evenodd" fill="#FFC07D" d="M68.521,76.944c-3.282-52.563-16.508-58.61-26.744-67.222
			s-16.9-0.407-10.119,31.804c6.78,32.211,19.516,36.864,19.516,36.864S71.802,129.506,68.521,76.944z"/>
	</g>
</g>
<g id="形状_58">
	<g>
		<path fill-rule="evenodd" clip-rule="evenodd" fill="#FF9B48" d="M63.461,75.498c-0.662-21.968-10.895-35.58-11.565-37.587
			c-0.67-2.007-14.213-22.459-10.119,2.891c4.094,25.35,17.348,38.309,17.348,38.309S64.123,97.466,63.461,75.498z"/>
	</g>
</g>
<g id="形状_59">
	<g>
		<path fill-rule="evenodd" clip-rule="evenodd" fill="#FFC07D" d="M171.396,30.532c-0.143-10.671-18.61-9.996-46.23,10.925
			S95.584,85.144,95.584,85.144S68.598,111.1,115.91,99.155C163.223,87.21,171.539,41.203,171.396,30.532z"/>
	</g>
</g>
<g id="形状_60">
	<g>
		<path fill-rule="evenodd" clip-rule="evenodd" fill="#FF9B48" d="M128.513,53.231c-19.718,19.408-25.868,31.305-25.868,31.305
			l-0.059,0.631c0,0-13.371,14.984,11.002,4.856s34.369-29.146,40.88-41.987C160.978,35.195,148.23,33.823,128.513,53.231z"/>
	</g>
</g>
<g id="形状_47_3_">
	<g>
		
			<radialGradient id="SVGID_1_" cx="78.5499" cy="165.5379" r="73.3425" gradientTransform="matrix(1 0 0 1 -10.6186 -8.5243)" gradientUnits="userSpaceOnUse">
			<stop  offset="0" style="stop-color:#FECD97"/>
			<stop  offset="1" style="stop-color:#FFC07A"/>
		</radialGradient>
		<path fill-rule="evenodd" clip-rule="evenodd" fill="url(#SVGID_1_)" d="M90.973,73.68c0,0-40.793-10.112-53.242,18.381
			s-4.086,40.38-13.198,49.742c-9.112,9.361-21.398,2.233-13.284,24.15c8.388,22.657,40.749,25.696,49.846,24.923
			c9.714-0.825,10.519,4.283,10.818,5.41c1.132,4.266,0.353,8.34-9.463,24.443c-11.156,18.302,34.572,39.315,49.65-4.93
			c3.298-11.893-13.065-29.755,5.494-55.284C136.152,134.986,128.374,79.472,90.973,73.68z"/>
	</g>
</g>
<path fill-rule="evenodd" clip-rule="evenodd" fill="#66361F" d="M90.973,73.68c0,0-40.793-10.113-53.242,18.381
	c-1.297,2.969-2.309,5.739-3.175,8.395c0.488,3.295,1.834,6.601,3.809,10.62c5.669,11.536,20.932-2.153,40.565-17.113
	c0.002,0.204,9.082,19.24,24.086,25.353c4.623,1.793,15.041-7.427,21.19-13.46C119.272,89.741,108.311,76.365,90.973,73.68z"/>
<g id="形状_49">
	<g>
		<path fill-rule="evenodd" clip-rule="evenodd" fill="#A85726" d="M87.17,114.879c-12.526-15.692-30.549,5.762-31.058,6.338
			c-0.509,0.577-0.079,1.982,1.268,0.634c19.143-18.592,27.028-6.498,28.522-5.071C86.925,117.758,89.054,117.239,87.17,114.879z"/>
	</g>
</g>
<g id="形状_50">
	<g>
		<path fill-rule="evenodd" clip-rule="evenodd" fill="#754224" d="M90.707,128.966c0,0-18.568,14.092-36.497,4.294
			c-1.361-0.744-2.609-0.253-0.634,1.901c4.082,4.453,18.207,10.645,36.778-3.49c0,0,1.777,1.818,6.145,0.966
			C101.062,131.746,94.177,132.365,90.707,128.966z"/>
	</g>
</g>
<g id="形状_53">
	<g>
		<path fill-rule="evenodd" clip-rule="evenodd" fill="#FE915C" d="M51.675,178.262c-1.278,0.243-17.833,3.465-26.226-0.717
			c-1.025-0.511-2.355,0.161-0.929,1.293c4.213,3.344,14.843,4.053,27.789,0.692C53.813,179.139,53.376,177.939,51.675,178.262z"/>
	</g>
</g>
<g id="形状_51">
	<g>
		<path fill-rule="evenodd" clip-rule="evenodd" fill="#FFA083" d="M82.733,144.035c0,0-10.48,0.165-10.775,4.437
			c-0.296,4.272,8.253,4.904,10.775,5.071s10.867-0.832,11.409-4.437C94.684,145.501,88.854,144.055,82.733,144.035z"/>
	</g>
</g>
<path fill-rule="evenodd" clip-rule="evenodd" fill="#E5432E" d="M120.118,95.822c-8.535-6.206-37.465-24.746-69.953-17.976
	c-4.817,2.896-9.03,7.118-11.925,13.171c5.451-1.666,17.894-4.568,34.352-2.759c20.786,2.286,41.223,6.63,51.128,16.107
	C122.73,101.394,121.53,98.533,120.118,95.822z"/>
<g id="形状_56">
	<g>
		<path fill-rule="evenodd" clip-rule="evenodd" fill="#E5432E" d="M95.409,39.453c-11.06,6.182-15.846,15.846-15.846,15.846
			s-0.357-10.44-10.775-28.523C58.37,8.694,56.648,31.443,57.379,47.693c0.732,16.249,13.31,29.156,13.31,29.156h0.634
			c0,0-14.154,14.727,12.677,2.535c26.831-12.191,36.218-31.746,39.931-43.734S106.469,33.27,95.409,39.453z"/>
	</g>
</g>
<g id="形状_54">
	<g>
		<path fill-rule="evenodd" clip-rule="evenodd" fill="#512A15" d="M16.311,147.817c-7.509,0.01-8.024,2.358-7.606,5.071
			c0.198,1.284,3.979,13.771,17.114,0C28.494,150.082,23.927,147.807,16.311,147.817z"/>
	</g>
</g>
<path opacity="0.6" fill-rule="evenodd" clip-rule="evenodd" fill="#DD7528" d="M64.605,190.85c0,0,10.676,0.412,20.284-5.671
	c2.352-1.489-1.825,15.646-13.571,18.799C71.318,203.978,76.358,192.122,64.605,190.85z"/>
</svg>
