<?xml version="1.0" encoding="utf-8"?>
<!-- Generator: Adobe Illustrator 17.0.0, SVG Export Plug-In . SVG Version: 6.00 Build 0)  -->
<!DOCTYPE svg PUBLIC "-//W3C//DTD SVG 1.1//EN" "http://www.w3.org/Graphics/SVG/1.1/DTD/svg11.dtd">
<svg version="1.1" id="图层_1" xmlns="http://www.w3.org/2000/svg" xmlns:xlink="http://www.w3.org/1999/xlink" x="0px" y="0px"
	 width="185.685px" height="255.128px" viewBox="0 0 185.685 255.128" enable-background="new 0 0 185.685 255.128"
	 xml:space="preserve">
<g id="Shape_2_35_">
	<g>
		<path fill="#9C6342" d="M96.494,135.821c-3.119-0.051-7.8-0.147-11.661-1.962c-4.165-1.958-5.982-5.141-7.341-7.859
			c-0.576-1.152-0.278,2.01,1.818,5.121c-1.235,0.7-2.031,1.932-2.031,2.751c0,0.786,1.206-0.724,2.476-0.906
			c0.402-0.058,0.704-0.095,0.94-0.122c0.479,0.5,1.02,0.969,1.619,1.397c-0.791,0.7-1.319,1.996-1.465,2.994
			c-0.081,0.565,1.43-0.452,2.235-0.887c0.671-0.362,1.314-0.612,1.742-0.761C90.866,137.868,99.34,135.865,96.494,135.821z"/>
	</g>
</g>
<g id="Shape_2_33_">
	<g>
		<path fill="#9C6342" d="M52.983,59.038c-3.119-0.051-7.8-0.147-11.661-1.962c-4.165-1.958-5.982-5.141-7.341-7.859
			c-0.576-1.152-0.278,2.01,1.818,5.121c-1.235,0.7-2.031,1.932-2.031,2.751c0,0.786,1.206-0.724,2.476-0.906
			c0.402-0.058,0.704-0.095,0.94-0.122c0.479,0.5,1.021,0.969,1.619,1.397c-0.791,0.7-1.319,1.996-1.465,2.994
			c-0.081,0.565,1.429-0.452,2.235-0.887c0.671-0.362,1.314-0.612,1.742-0.761C47.355,61.085,55.83,59.082,52.983,59.038z"/>
	</g>
</g>
<g id="形状_78">
	<g>
		<path fill="#FFC07D" d="M135.621,22.612c-28.149,18.28-34.399,59.584-34.399,59.584s4.718,17.474,24.571,6.757
			s45.902-42.699,50.984-64.498C181.859,2.656,163.77,4.332,135.621,22.612z"/>
	</g>
</g>
<g id="形状_79">
	<g>
		<path fill="#FF9B48" d="M139.306,38.583C111.08,58.662,111.05,82.811,111.05,82.811s-8.557,9.545,9.828,2.457
			s35.673-40.952,36.856-43.613C158.917,38.993,167.533,18.504,139.306,38.583z"/>
	</g>
</g>
<g id="形状_80">
	<g>
		<path fill="#FFC07D" d="M69.28,95.096c0,0-14.182-32.137-36.242-46.685S3.06,34.845,2.938,42.269
			c-0.121,7.424,4.625,50.139,57.741,62.655C113.796,117.441,69.28,95.096,69.28,95.096z"/>
	</g>
</g>
<g id="形状_81">
	<g>
		<path fill="#FF9B48" d="M64.365,93.867c-5.407-10.43-31.544-30.54-32.556-31.327s-14.947-11.138-9.214,8.6
			s38.085,30.713,38.085,30.713S69.772,104.298,64.365,93.867z"/>
	</g>
</g>
<radialGradient id="SVGID_1_" cx="99.327" cy="90.1566" r="70.7925" gradientTransform="matrix(1 0 0 -1 0.14 254.1829)" gradientUnits="userSpaceOnUse">
	<stop  offset="0" style="stop-color:#FECD97"/>
	<stop  offset="1" style="stop-color:#FFC07A"/>
</radialGradient>
<path fill="url(#SVGID_1_)" d="M98.208,76.552c0,0-38.337-2.449-43.613,33.785c-5.277,36.233,9.122,56.722-1.843,72.484
	s27.6,32.565,50.984,24.571c4.659-0.477-6.221,15.207-7.026,17.322c-2.427,6.381-2.562,26.093,23.576,26.81
	s19.077-32.461,19.077-32.461s-7.499-19.606,3.686-52.827C154.235,133.014,149.933,81.665,98.208,76.552z"/>
<path fill="#66361F" d="M98.306,76.552c0,0-38.337-2.449-43.613,33.785c-0.822,5.643-1.166,10.903-1.203,15.823
	c4.101-3.623,10.833-12.342,11.032-15.823c0.289-5.083,7.199,26.363,19.042,19.657c11.843-6.707,28.359-25.593,29.485-30.099
	c1.126-4.507,18.281,30.553,27.028,17.199c2.434-3.716,3.111-5.649,3.355-8.362C137.238,92.985,124.305,78.859,98.306,76.552z"/>
<path fill="#FFCE99" d="M75.241,156.155c-8.589-6.068-7.268-8.385-12.385-7.471c-9.602,1.716-7.154,4.207-7.088,3.938
	s-0.012-7.327,6.015-7.672c6.53-0.373,9.479,3.026,11.726,7.146C76.333,157.276,75.241,156.155,75.241,156.155"/>
<g id="形状_70">
	<g>
		<path fill="#FFFFFF" d="M131.935,139.323c0.094,0.029-17.135,10.365-33.171,11.671c0,0,2.826,18.228,24.571,12.9
			C134.321,161.254,135.894,147.708,131.935,139.323z"/>
	</g>
</g>
<g id="形状_71">
	<g>
		<path fill="#FFFFFF" d="M55.766,151.609c0,0,1.44,16.146,11.057,17.2s9.048-5.6,9.104-9.553
			C75.983,155.302,61.415,143.163,55.766,151.609z"/>
	</g>
</g>
<path fill="#FFCE99" d="M97.062,150.59c9.345,0.412,17.462-5.781,22.578-4.867c9.602,1.716,14.836-9.016,12.567-7.934
	c-0.25,0.119,0.085-2.399-9.407,0.843c-5.758,1.966-13.319,7.049-20.503,9.064C97.062,149.163,97.062,150.59,97.062,150.59"/>
<path fill="#FFA083" d="M64.365,174.337c-0.13-2.874-4.729-3.247-7.59-3.201c-0.275,3.07-0.956,5.943-2.258,8.664
	C57.552,179.468,64.525,177.875,64.365,174.337z"/>
<g id="形状_73_2_">
	<g>
		<path fill="#FFA083" d="M139.926,165.382c-0.268-0.85-1.62-2.804-9.22-0.259c-8.953,2.998-7.566,6.06-7.197,6.738
			c0.72,1.32,2.586,2.598,9.04,0.634C139.003,170.529,140.506,167.221,139.926,165.382z"/>
	</g>
</g>
<g id="形状_74">
	<g>
		<path fill="#512A15" d="M64.98,185.393c-9.408,0.274-9.363,2.572-8.6,4.3c5.249,11.875,20.23,1.278,20.885-1.843
			C77.92,184.729,74.388,185.119,64.98,185.393z"/>
	</g>
</g>
<path fill="#FF9D63" d="M106.75,190.922c-8.363,13.482-30.429,14.436-38.949,14.277c1.493,0.6,3.046,1.146,4.642,1.636
	c28.411-0.599,34.774-13.534,35.535-15.298C108.485,190.363,107.49,189.797,106.75,190.922z"/>
<g id="形状_69">
	<g>
		<path fill="#512A15" d="M131.935,139.323c-1.511-1.987-5.151,5.761-22.114,9.828c0,0,6.561,15.622,17.2,9.214
			C134.668,153.843,133.446,141.31,131.935,139.323z"/>
	</g>
</g>
<g id="形状_65">
	<g>
		<path fill="#A85726" d="M72.351,141.166c-9.205-20.265-18.842-8.636-18.842-8.636l0.032,1.884
			c10.645-8.231,16.451,5.338,16.968,6.752C71.276,143.265,72.912,142.4,72.351,141.166z"/>
	</g>
</g>
<g id="形状_82_2_">
	<g>
		<path fill="#A85726" d="M125.178,124.581c-1.066-1.118-19.175-13.147-27.028,17.814c-0.538,2.129,1.211,2.167,1.843,0
			c1.265-2.248,6.893-22.523,23.956-16.585C125.626,126.393,126.244,125.699,125.178,124.581z"/>
	</g>
</g>
<g id="形状_67">
	<g>
		<path fill="#733F21" d="M139.92,139.938c-2.275,0.237-5.862-1.368-7.371-2.457c-2.527-1.823-22.545,14.61-33.785,12.285
			c-2.53-0.49-2.709,1.408-0.614,1.843c2.35,0.95,19.649-1.108,33.785-11.671c0.11-0.127,2.513,2.443,7.985,1.229
			C143.042,140.473,141.6,139.763,139.92,139.938z"/>
	</g>
</g>
<path fill="#E5432E" d="M138.311,98.77c-13.882-9.673-58.607-36.065-82.332,5.082c-0.606,2.046-1.097,4.237-1.441,6.6
	c-0.347,2.383-0.605,4.694-0.794,6.944c2.594-6.122,10.782-20.129,32.122-22.301c26.104-2.657,37.356-0.912,57.85,14.364
	C142.292,105.738,140.505,102.068,138.311,98.77z"/>
<g id="形状_68_2_">
	<g>
		<path fill="#512A15" d="M75.564,156.416c0,0-10.465-8.602-12.443-6.489c-0.973,0.732,2.806,14.81,8.757,16.317
			C77.829,167.751,75.564,156.416,75.564,156.416z"/>
	</g>
</g>
<g id="形状_68">
	<g>
		<path fill="#733F21" d="M75.635,156.498c0,0-4.487-7.269-11.671-8.6c-7.184-1.33-8.6,4.3-8.6,4.3
			c-1.868,0.722-3.238-0.318-3.686-1.229c-0.448-0.911-1.081-1.443-0.614,0c0.947,2.926,4.979,3.967,5.151,2.972
			c0.105-4.209,6.348-5.117,11.878-1.951c3.326,1.904,6.051,4.061,7.159,4.75C75.987,157.198,75.635,156.498,75.635,156.498z"/>
	</g>
</g>
<g id="形状_77_29_">
	<g>
		<path fill="#E5432E" d="M97.536,19.541c-23.201,16.538-27.072,42.6-27.028,42.385c-2.009-9.437-12.48-25.077-20.271-35.628
			S35.96,44.306,44.094,60.697S72.35,90.182,72.35,90.182s-1.11,17.09,17.814-6.143s22.831-48.424,23.957-61.427
			C115.246,9.61,108.112,11.563,97.536,19.541z"/>
	</g>
</g>
<ellipse transform="matrix(-0.21 -0.9777 0.9777 -0.21 -13.8891 305.9345)" fill="#FFFFFF" cx="116.656" cy="158.579" rx="1.957" ry="4.782"/>
<ellipse transform="matrix(-0.2595 -0.9657 0.9657 -0.2595 -73.1693 269.2704)" fill="#FFFFFF" cx="66.648" cy="162.687" rx="2.053" ry="2.953"/>
<g id="Shape_2_27_">
	<g>
		<path fill="#9C6342" d="M69.564,168.76c-1.884-0.043-4.864,0.086-7.044-1.656c-2.252-1.8-3.614-4.34-4.434-6.635
			c-0.354-0.99-0.165,1.794,1.163,4.464c-0.025,0.012-0.048,0.02-0.074,0.037c-0.838,0.56-1.385,1.706-1.385,2.446
			c0,0.664,0.728-0.611,1.495-0.765c0.551-0.11,0.812-0.14,0.918-0.149c0.285,0.388,0.599,0.754,0.949,1.082
			c-0.546,0.541-0.911,1.758-1.006,2.671c-0.049,0.477,0.863-0.382,1.35-0.749c0.699-0.527,1.36-0.782,1.36-0.782
			s-0.003-0.007-0.004-0.008C66.47,170.378,71.231,168.796,69.564,168.76z"/>
	</g>
</g>
<g id="Shape_2_25_">
	<g>
		<path fill="#9C6342" d="M135.702,157.928c-0.204-0.659-1.152-1.452-2.321-1.708c0.912-3.026,0.365-5.646,0.188-4.575
			c-0.417,2.527-1.087,5.542-3.952,8.155c-2.656,2.423-6.401,3.666-8.901,4.485c-2.278,0.744,5.042,0.246,9.336-3.096
			c0.382,0.013,0.963,0.055,1.592,0.179c0.757,0.149,2.226,0.592,2.02,0.157c-0.366-0.767-1.115-1.678-1.926-2.044
			c0.376-0.494,0.695-1.007,0.956-1.529c0.198-0.037,0.45-0.082,0.788-0.136C134.548,157.646,135.897,158.561,135.702,157.928z"/>
	</g>
</g>
<path opacity="0.6" fill="#DD7528" enable-background="new    " d="M103.736,207.392c0,0,7.337-1.916,18.572-10.623
	c2.133-1.653-3.832,18.256-22.141,21.996C100.167,218.765,107.633,207.231,103.736,207.392z"/>
</svg>
