<?xml version="1.0" encoding="utf-8"?>
<!-- Generator: Adobe Illustrator 17.0.0, SVG Export Plug-In . SVG Version: 6.00 Build 0)  -->
<!DOCTYPE svg PUBLIC "-//W3C//DTD SVG 1.1//EN" "http://www.w3.org/Graphics/SVG/1.1/DTD/svg11.dtd">
<svg version="1.1" id="图层_1" xmlns="http://www.w3.org/2000/svg" xmlns:xlink="http://www.w3.org/1999/xlink" x="0px" y="0px"
	 width="185.685px" height="255.128px" viewBox="0 0 185.685 255.128" enable-background="new 0 0 185.685 255.128"
	 xml:space="preserve">
<g id="Shape_2_35_">
	<g>
		<path fill-rule="evenodd" clip-rule="evenodd" fill="#9C6342" d="M99.494,134.821c-3.119-0.051-7.8-0.147-11.661-1.962
			c-4.165-1.958-5.982-5.141-7.341-7.859c-0.576-1.152-0.278,2.01,1.818,5.121c-1.235,0.7-2.031,1.932-2.031,2.751
			c0,0.786,1.206-0.724,2.476-0.906c0.402-0.058,0.704-0.095,0.94-0.122c0.479,0.5,1.02,0.969,1.619,1.397
			c-0.791,0.7-1.319,1.996-1.465,2.994c-0.081,0.565,1.43-0.452,2.235-0.887c0.671-0.362,1.314-0.612,1.742-0.761
			C93.866,136.868,102.34,134.865,99.494,134.821z"/>
	</g>
</g>
<g id="Shape_2_33_">
	<g>
		<path fill-rule="evenodd" clip-rule="evenodd" fill="#9C6342" d="M55.983,58.038c-3.119-0.051-7.8-0.147-11.661-1.962
			c-4.165-1.958-5.982-5.141-7.341-7.859c-0.576-1.152-0.278,2.01,1.818,5.121c-1.235,0.7-2.031,1.932-2.031,2.751
			c0,0.786,1.206-0.724,2.476-0.906c0.402-0.058,0.704-0.095,0.94-0.122c0.479,0.5,1.021,0.969,1.619,1.397
			c-0.791,0.7-1.319,1.996-1.465,2.994c-0.081,0.565,1.429-0.452,2.235-0.887c0.671-0.362,1.314-0.612,1.742-0.761
			C50.355,60.085,58.83,58.082,55.983,58.038z"/>
	</g>
</g>
<g id="形状_78">
	<g>
		<path fill-rule="evenodd" clip-rule="evenodd" fill="#FFC07D" d="M138.621,21.612c-28.149,18.28-34.399,59.584-34.399,59.584
			s4.718,17.474,24.571,6.757c19.853-10.717,45.902-42.699,50.984-64.498C184.859,1.656,166.77,3.332,138.621,21.612z"/>
	</g>
</g>
<g id="形状_79">
	<g>
		<path fill-rule="evenodd" clip-rule="evenodd" fill="#FF9B48" d="M142.306,37.583C114.08,57.662,114.05,81.811,114.05,81.811
			s-8.557,9.545,9.828,2.457c18.385-7.088,35.673-40.952,36.856-43.613C161.917,37.993,170.533,17.504,142.306,37.583z"/>
	</g>
</g>
<g id="形状_80">
	<g>
		<path fill-rule="evenodd" clip-rule="evenodd" fill="#FFC07D" d="M72.28,94.096c0,0-14.182-32.137-36.242-46.685
			S6.06,33.845,5.938,41.269c-0.121,7.424,4.625,50.139,57.741,62.655C116.796,116.441,72.28,94.096,72.28,94.096z"/>
	</g>
</g>
<g id="形状_81">
	<g>
		<path fill-rule="evenodd" clip-rule="evenodd" fill="#FF9B48" d="M67.365,92.867C61.958,82.437,35.821,62.327,34.809,61.54
			c-1.012-0.787-14.947-11.138-9.214,8.6c5.733,19.738,38.085,30.713,38.085,30.713S72.772,103.298,67.365,92.867z"/>
	</g>
</g>
<radialGradient id="SVGID_1_" cx="102.4669" cy="163.0265" r="70.7923" gradientUnits="userSpaceOnUse">
	<stop  offset="0" style="stop-color:#FECD97"/>
	<stop  offset="1" style="stop-color:#FFC07A"/>
</radialGradient>
<path fill-rule="evenodd" clip-rule="evenodd" fill="url(#SVGID_1_)" d="M101.208,75.552c0,0-38.337-2.449-43.613,33.785
	c-5.277,36.233,9.122,56.722-1.843,72.484c-10.965,15.762,27.6,32.565,50.984,24.571c4.659-0.477-6.221,15.207-7.026,17.322
	c-2.427,6.381-2.562,26.093,23.576,26.81c26.138,0.717,19.077-32.461,19.077-32.461s-7.499-19.606,3.686-52.827
	C157.235,132.014,152.933,80.665,101.208,75.552z"/>
<path fill-rule="evenodd" clip-rule="evenodd" fill="#66361F" d="M101.306,75.552c0,0-38.337-2.449-43.613,33.785
	c-0.822,5.643-1.166,10.903-1.203,15.823c4.101-3.623,10.833-12.342,11.032-15.823c0.289-5.083,7.199,26.363,19.042,19.657
	c11.843-6.707,28.359-25.593,29.485-30.099c1.126-4.507,18.281,30.553,27.028,17.199c2.434-3.716,3.111-5.649,3.355-8.362
	C140.238,91.985,127.305,77.859,101.306,75.552z"/>
<path fill-rule="evenodd" clip-rule="evenodd" fill="#FFCE99" d="M78.241,155.155c-8.589-6.068-7.268-8.385-12.385-7.471
	c-9.602,1.716-7.154,4.207-7.088,3.938s-0.012-7.327,6.015-7.672c6.53-0.373,9.479,3.026,11.726,7.146
	C79.333,156.276,78.241,155.155,78.241,155.155"/>
<g id="形状_70">
	<g>
		<path fill-rule="evenodd" clip-rule="evenodd" fill="#FFFFFF" d="M134.935,138.323c0.094,0.029-17.135,10.365-33.171,11.671
			c0,0,2.826,18.228,24.571,12.9C137.321,160.254,138.894,146.708,134.935,138.323z"/>
	</g>
</g>
<g id="形状_71">
	<g>
		<path fill-rule="evenodd" clip-rule="evenodd" fill="#FFFFFF" d="M58.766,150.609c0,0,1.44,16.146,11.057,17.2
			s9.048-5.6,9.104-9.553C78.983,154.302,64.415,142.163,58.766,150.609z"/>
	</g>
</g>
<path fill-rule="evenodd" clip-rule="evenodd" fill="#FFCE99" d="M100.062,149.59c9.345,0.412,17.462-5.781,22.578-4.867
	c9.602,1.716,14.836-9.016,12.567-7.934c-0.25,0.119,0.085-2.399-9.407,0.843c-5.758,1.966-13.319,7.049-20.503,9.064
	C100.062,148.163,100.062,149.59,100.062,149.59"/>
<path fill-rule="evenodd" clip-rule="evenodd" fill="#FFA083" d="M67.365,173.337c-0.13-2.874-4.729-3.247-7.59-3.201
	c-0.275,3.07-0.956,5.943-2.258,8.664C60.552,178.468,67.525,176.875,67.365,173.337z"/>
<g id="形状_73_2_">
	<g>
		<path fill-rule="evenodd" clip-rule="evenodd" fill="#FFA083" d="M142.926,164.382c-0.268-0.85-1.62-2.804-9.22-0.259
			c-8.953,2.998-7.566,6.06-7.197,6.738c0.72,1.32,2.586,2.598,9.04,0.634C142.003,169.529,143.506,166.221,142.926,164.382z"/>
	</g>
</g>
<g id="形状_74">
	<g>
		<path fill-rule="evenodd" clip-rule="evenodd" fill="#512A15" d="M67.98,184.393c-9.408,0.274-9.363,2.572-8.6,4.3
			c5.249,11.875,20.23,1.278,20.885-1.843C80.92,183.729,77.388,184.119,67.98,184.393z"/>
	</g>
</g>
<path fill-rule="evenodd" clip-rule="evenodd" fill="#FF9D63" d="M109.75,189.922c-8.363,13.482-30.429,14.436-38.949,14.277
	c1.493,0.6,3.046,1.146,4.642,1.636c28.411-0.599,34.774-13.534,35.535-15.298C111.485,189.363,110.49,188.797,109.75,189.922z"/>
<g id="形状_69">
	<g>
		<path fill-rule="evenodd" clip-rule="evenodd" fill="#512A15" d="M134.935,138.323c-1.511-1.987-5.151,5.761-22.114,9.828
			c0,0,6.561,15.622,17.2,9.214C137.668,152.843,136.446,140.31,134.935,138.323z"/>
	</g>
</g>
<g id="形状_65">
	<g>
		<path fill-rule="evenodd" clip-rule="evenodd" fill="#A85726" d="M75.351,140.166c-9.205-20.265-18.842-8.636-18.842-8.636
			l0.032,1.884c10.645-8.231,16.451,5.338,16.968,6.752C74.276,142.265,75.912,141.4,75.351,140.166z"/>
	</g>
</g>
<g id="形状_82_2_">
	<g>
		<path fill-rule="evenodd" clip-rule="evenodd" fill="#A85726" d="M128.178,123.581c-1.066-1.118-19.175-13.147-27.028,17.814
			c-0.538,2.129,1.211,2.167,1.843,0c1.265-2.248,6.893-22.523,23.956-16.585C128.626,125.393,129.244,124.699,128.178,123.581z"/>
	</g>
</g>
<g id="形状_67">
	<g>
		<path fill-rule="evenodd" clip-rule="evenodd" fill="#733F21" d="M142.92,138.938c-2.275,0.237-5.862-1.368-7.371-2.457
			c-2.527-1.823-22.545,14.61-33.785,12.285c-2.53-0.49-2.709,1.408-0.614,1.843c2.35,0.95,19.649-1.108,33.785-11.671
			c0.11-0.127,2.513,2.443,7.985,1.229C146.042,139.473,144.6,138.763,142.92,138.938z"/>
	</g>
</g>
<path fill-rule="evenodd" clip-rule="evenodd" fill="#E5432E" d="M141.311,97.77c-13.882-9.673-58.607-36.065-82.332,5.082
	c-0.606,2.046-1.097,4.237-1.441,6.6c-0.347,2.383-0.605,4.694-0.794,6.944c2.594-6.122,10.782-20.129,32.122-22.301
	c26.104-2.657,37.356-0.912,57.85,14.364C145.292,104.738,143.505,101.068,141.311,97.77z"/>
<g id="形状_68_2_">
	<g>
		<path fill-rule="evenodd" clip-rule="evenodd" fill="#512A15" d="M78.564,155.416c0,0-10.465-8.602-12.443-6.489
			c-0.973,0.732,2.806,14.81,8.757,16.317C80.829,166.751,78.564,155.416,78.564,155.416z"/>
	</g>
</g>
<g id="形状_68">
	<g>
		<path fill-rule="evenodd" clip-rule="evenodd" fill="#733F21" d="M78.635,155.498c0,0-4.487-7.269-11.671-8.6
			c-7.184-1.33-8.6,4.3-8.6,4.3c-1.868,0.722-3.238-0.318-3.686-1.229c-0.448-0.911-1.081-1.443-0.614,0
			c0.947,2.926,4.979,3.967,5.151,2.972c0.105-4.209,6.348-5.117,11.878-1.951c3.326,1.904,6.051,4.061,7.159,4.75
			C78.987,156.198,78.635,155.498,78.635,155.498z"/>
	</g>
</g>
<g id="形状_77_29_">
	<g>
		<path fill-rule="evenodd" clip-rule="evenodd" fill="#E5432E" d="M100.536,18.541c-23.201,16.538-27.072,42.6-27.028,42.385
			c-2.009-9.437-12.48-25.077-20.271-35.628c-7.791-10.551-14.277,18.008-6.143,34.399c8.134,16.391,28.256,29.485,28.256,29.485
			s-1.11,17.09,17.814-6.143c18.924-23.233,22.831-48.424,23.957-61.427C118.246,8.61,111.112,10.563,100.536,18.541z"/>
	</g>
</g>
<ellipse transform="matrix(0.9777 -0.21 0.21 0.9777 -30.4265 28.6471)" fill-rule="evenodd" clip-rule="evenodd" fill="#FFFFFF" cx="119.66" cy="157.574" rx="4.782" ry="1.957"/>
<ellipse transform="matrix(0.9657 -0.2595 0.2595 0.9657 -39.5743 23.6146)" fill-rule="evenodd" clip-rule="evenodd" fill="#FFFFFF" cx="69.652" cy="161.693" rx="2.953" ry="2.053"/>
<g id="Shape_2_27_">
	<g>
		<path fill-rule="evenodd" clip-rule="evenodd" fill="#9C6342" d="M72.564,167.76c-1.884-0.043-4.864,0.086-7.044-1.656
			c-2.252-1.8-3.614-4.34-4.434-6.635c-0.354-0.99-0.165,1.794,1.163,4.464c-0.025,0.012-0.048,0.02-0.074,0.037
			c-0.838,0.56-1.385,1.706-1.385,2.446c0,0.664,0.728-0.611,1.495-0.765c0.551-0.11,0.812-0.14,0.918-0.149
			c0.285,0.388,0.599,0.754,0.949,1.082c-0.546,0.541-0.911,1.758-1.006,2.671c-0.049,0.477,0.863-0.382,1.35-0.749
			c0.699-0.527,1.36-0.782,1.36-0.782s-0.003-0.007-0.004-0.008C69.47,169.378,74.231,167.796,72.564,167.76z"/>
	</g>
</g>
<g id="Shape_2_25_">
	<g>
		<path fill-rule="evenodd" clip-rule="evenodd" fill="#9C6342" d="M138.702,156.928c-0.204-0.659-1.152-1.452-2.321-1.708
			c0.912-3.026,0.365-5.646,0.188-4.575c-0.417,2.527-1.087,5.542-3.952,8.155c-2.656,2.423-6.401,3.666-8.901,4.485
			c-2.278,0.744,5.042,0.246,9.336-3.096c0.382,0.013,0.963,0.055,1.592,0.179c0.757,0.149,2.226,0.592,2.02,0.157
			c-0.366-0.767-1.115-1.678-1.926-2.044c0.376-0.494,0.695-1.007,0.956-1.529c0.198-0.037,0.45-0.082,0.788-0.136
			C137.548,156.646,138.897,157.561,138.702,156.928z"/>
	</g>
</g>
<path opacity="0.6" fill-rule="evenodd" clip-rule="evenodd" fill="#DD7528" d="M106.736,206.392c0,0,7.337-1.916,18.572-10.623
	c2.133-1.653-3.832,18.256-22.141,21.996C103.167,217.765,110.633,206.231,106.736,206.392z"/>
</svg>
