<?xml version="1.0" encoding="utf-8"?>
<!-- Generator: Adobe Illustrator 17.0.0, SVG Export Plug-In . SVG Version: 6.00 Build 0)  -->
<!DOCTYPE svg PUBLIC "-//W3C//DTD SVG 1.1//EN" "http://www.w3.org/Graphics/SVG/1.1/DTD/svg11.dtd">
<svg version="1.1" id="图层_1" xmlns="http://www.w3.org/2000/svg" xmlns:xlink="http://www.w3.org/1999/xlink" x="0px" y="0px"
	 width="253.119px" height="478.598px" viewBox="0 0 253.119 478.598" enable-background="new 0 0 253.119 478.598"
	 xml:space="preserve">
<radialGradient id="SVGID_1_" cx="-31.8105" cy="444.2449" r="101.3552" gradientUnits="userSpaceOnUse">
	<stop  offset="0" style="stop-color:#FFC07D"/>
	<stop  offset="0.5713" style="stop-color:#FEB162"/>
	<stop  offset="1" style="stop-color:#FEA852"/>
</radialGradient>
<path fill="url(#SVGID_1_)" d="M114.366,379.423c0,0,10.093,15.981,9.361,23.661c-0.594,6.237,0.047,16.432-25.328,16.432
	s-69.103-4.59-85.843,7.23c-14.427,10.187-5.258,16.432,0,17.089c0,0,2.629,8.544,19.718,4.601c0,0,6.283,5.915,39.948-2.629
	c33.665-8.544,77.729-15.094,69.171-30.88c-8.558-15.786,3.817-21.701,7.488-26.302
	C152.553,384.024,114.366,379.423,114.366,379.423z"/>
<path fill="#DD7528" d="M32.302,448.418c0,0-3.773-2.417-5.052-6.164c-1.413-4.142,0.986-8.533,10.238-9.479
	c3.731-0.382,10.536-0.221,12.752,0.564c1.151,0.408-7.826-0.392-12.829,0.485c-5.214,0.914-9.805,3.775-8.541,8.764
	C29.292,444.255,30.023,446.357,32.302,448.418z"/>
<path fill="#DD7528" d="M12.556,443.835c0,0-8.421-8.994,3.259-13.022c4.949-1.707,8.789-1.708,10.922-1.707
	c1.036,0.001-6.366,1.078-10.27,2.91c-3.98,1.868-5.739,4.161-5.09,8.482C11.723,442.793,12.556,443.835,12.556,443.835z"/>
<radialGradient id="SVGID_2_" cx="73.321" cy="383.756" r="78.8982" gradientUnits="userSpaceOnUse">
	<stop  offset="0" style="stop-color:#FFC07D"/>
	<stop  offset="0.5713" style="stop-color:#FEB162"/>
	<stop  offset="1" style="stop-color:#FEA852"/>
</radialGradient>
<path fill="url(#SVGID_2_)" d="M124.735,394.65c0,0-47.553-6.347-73.681-37.185c-12.499-14.752-30.032-43.183-27.203-81.358
	c0.803-10.838,5.349-6.828,9.363,10.888c4.78,21.1,28.363,40.194,57.177,41.992"/>
<path fill="#FFBF80" d="M124.735,394.65c0,0-47.553-6.347-73.681-37.185c-12.499-14.752-21.091-31.003-25.472-52.306
	c-2.189-10.645,4.311,13.579,15.497,25.227c12.686,13.209,22.715,20.957,51.528,22.756"/>
<radialGradient id="SVGID_3_" cx="109.4231" cy="188.8349" r="127.0914" gradientUnits="userSpaceOnUse">
	<stop  offset="0" style="stop-color:#FFC07D"/>
	<stop  offset="0.5713" style="stop-color:#FEB162"/>
	<stop  offset="1" style="stop-color:#FEA852"/>
</radialGradient>
<path fill="url(#SVGID_3_)" d="M127.414,189.662c0,0,8.11,30.367-19.528,71.275c-22.636,33.504-44.188,90.757-4.252,122.031
	s117.857-2.624,130.122-35.125s9.156-43.368-20.279-88.746s-51.007-59.806-55.858-120.046s-28.82,50.598-28.82,50.598"/>
<g id="形状_12_6_">
	<g>
		<linearGradient id="SVGID_4_" gradientUnits="userSpaceOnUse" x1="109.1431" y1="283.9367" x2="181.7278" y2="283.9367">
			<stop  offset="0" style="stop-color:#FFC28A"/>
			<stop  offset="0.7938" style="stop-color:#FFCD9F"/>
			<stop  offset="1" style="stop-color:#FFD0A5"/>
		</linearGradient>
		<path fill-rule="evenodd" clip-rule="evenodd" fill="url(#SVGID_4_)" d="M166.052,236.446
			c-12.557-22.498-31.356-21.573-42.81,0.937c-9.503,18.675-19.652,64.325-10.532,92.504c7.519,23.228,57.883,24.087,65.371,1.608
			C188.116,301.364,175.229,252.887,166.052,236.446z"/>
	</g>
</g>
<path opacity="0.6" fill-rule="evenodd" clip-rule="evenodd" fill="#DD7528" d="M84.125,316.701c0,0,23.414,1.863,50.946-8.916
	c25.96-10.163,48.621-16.208,63.62-22.081C199.242,285.489,160.09,371.759,84.125,316.701z"/>
<path opacity="0.6" fill="#DD7528" d="M157.762,159.239c0,0-3.054,15.87-4.845,25.52c-3.395,18.3-11.845,27.856-25.503,28.934
	c0,0,1.298-4.248,0.864-16.43l2.41-6.233L157.762,159.239z"/>
<path fill="#FFBF80" d="M210.41,270.739c0,0,37.429,44.117,24.725,76.448c-13.226,33.661-92.617,69.371-131.589,36.904
	c-32.358-26.956-20.366-64.82-20.133-67.654C83.413,316.437,140.608,336.316,210.41,270.739z"/>
<path opacity="0.4" fill="#DD7528" d="M123.929,339.671c0,0,2.862,8.102,6.824,7.13c4.445-1.09,1.66-6.568,1.486-7.13
	c-1.29-4.173-2.205-9.494-1.774-11.505c0,0,8.189,3.879,13.792-1.724s5.671-6.011,7.074-6.31s-4.169,15.217-5.047,16.654
	c-0.878,1.437-0.627,3.12,1.543,3.521c4.337,0.801,8.852-5.676,11.117-12.428c2.266-6.752,3.415-11.662,3.415-15.457
	s-28.734-1.065-31.32-0.921C128.454,311.644,118.398,325.891,123.929,339.671z"/>
<radialGradient id="SVGID_5_" cx="50.0769" cy="488.5578" r="131.1497" gradientUnits="userSpaceOnUse">
	<stop  offset="0" style="stop-color:#FFC07D"/>
	<stop  offset="0.5713" style="stop-color:#FEB162"/>
	<stop  offset="1" style="stop-color:#FEA852"/>
</radialGradient>
<path fill="url(#SVGID_5_)" d="M198.341,271.761c-2.035,3.034-23.302,32.501-24.529,66.841s14.08,37.997,18.126,51.522
	c3.369,11.262,1.886,21.022-6.086,29.956c-10.393,11.647-28.425,13.816-54.715,14.185c-21.24,0.298-46.09,4.853-51.92,12.238
	s1.166,12.438,4.275,13.993c0,0,2.721,8.94,23.321,4.664c0,0,15.865,11.315,82.4-19.045c40.034-18.268,13.993-19.045,19.434-41.2
	c5.442-22.155,16.009-36.23,26.486-57.727c10.477-21.497,9.383-44.113-13.442-75.426C209.038,254.4,200.376,268.726,198.341,271.761
	z"/>
<path fill="#DD7528" d="M83.574,460.194c0,0-8.421-8.994,3.259-13.022c4.949-1.707,8.789-1.708,10.922-1.707
	c1.036,0.001-6.366,1.078-10.27,2.91c-3.98,1.868-5.739,4.161-5.09,8.482C82.741,459.152,83.574,460.194,83.574,460.194z"/>
<path fill="#DD7528" d="M106.831,465.131c0,0-3.773-2.417-5.052-6.164c-1.413-4.142,0.986-8.533,10.238-9.479
	c3.731-0.382,10.536-0.221,12.752,0.564c1.151,0.408-7.826-0.392-12.829,0.485c-5.214,0.914-9.805,3.775-8.541,8.764
	C103.821,460.968,104.552,463.069,106.831,465.131z"/>
<path fill="#FF9B48" d="M128.498,203.059c0,0-33.68,47.991-17.447,84.461c0,0-5.565,9.942-7.364,15.26
	c-3.13,9.249,2.228,9.519,5.159,3.938c0,0-2.613,24.471,17.157,7.831c9.629-8.105-7.356-36.928-5.604-63.294
	C121.356,236.841,128.86,215.181,128.498,203.059z"/>
<path fill="#F9E7CB" d="M122.363,283.78c0,0-1.208-6.198-11.884-6.927s-11.041,2.917-7.76,9.843
	c3.281,6.927,12.061,8.75,18.061,7.656S122.363,283.78,122.363,283.78z"/>
<path fill="#F9E7CB" d="M140.936,278.322c0,0-3.772-8.25,4.715-18.622c8.486-10.372,10.843-1.65,12.258,2.122
	c1.414,3.772,3.064,17.68-7.543,21.451C139.757,287.044,140.936,278.322,140.936,278.322z"/>
<path fill="#FFBD99" d="M121.416,286.427c0,0-0.847-2.919-7.185-4.188c-6.344-1.271-6.993,1.929-4.692,5.951
	c2.875,5.025,7.292,5.29,10.92,4.629C124.086,292.158,121.416,286.427,121.416,286.427z"/>
<path fill="#FFBD99" d="M142.769,278.153c0,0-2.126-4.65,2.657-10.496s6.112-0.93,6.909,1.196c0.797,2.126,1.727,9.964-4.251,12.09
	C142.105,283.069,142.769,278.153,142.769,278.153z"/>
<path fill="#FCEBCE" d="M118.306,317.617c0,0-0.943,11.497,1.886,18.478s5.893,10.281,8.958,8.159
	c3.064-2.122-4.715-16.972-2.122-23.573C129.621,314.081,118.306,317.617,118.306,317.617z"/>
<path fill="#FCEBCE" d="M150.203,312.428c0,0-2.154,13.916-4.23,17.321c-2.075,3.405,2.204,8.844,6.406,3.472
	c4.202-5.372,7.375-23.741,6.514-27.598S150.203,312.428,150.203,312.428z"/>
<path fill-rule="evenodd" clip-rule="evenodd" fill="#F6BF96" d="M148.821,330.789c-0.662,1.106-1.823,2.805-2.537,3.422
	c0.107,0.141,0.239,0.272,0.379,0.402c0.432-0.4,0.985-1.02,1.482-1.728C149.32,331.207,149.85,329.068,148.821,330.789z"/>
<path fill-rule="evenodd" clip-rule="evenodd" fill="#F6BF96" d="M150.677,331.586c-0.344,0.838-1.315,2.933-2.318,3.897
	c0.276,0.036,0.531,0.008,0.981-0.074c0.46-0.509,0.908-1.375,1.228-2.05C151.243,331.943,151.141,330.46,150.677,331.586z"/>
<path fill-rule="evenodd" clip-rule="evenodd" fill="#F6BF96" d="M127.307,340.365c0.519,1.179,1.46,3.009,2.092,3.711
	c-0.124,0.127-0.271,0.241-0.426,0.352c-0.379-0.451-0.85-1.134-1.256-1.898C126.76,340.717,126.5,338.529,127.307,340.365z"/>
<path fill-rule="evenodd" clip-rule="evenodd" fill="#F6BF96" d="M125.367,340.735c0.237,0.874,0.941,3.074,1.816,4.155
	c-0.279,0.002-0.528-0.058-0.964-0.195c-0.393-0.563-0.73-1.477-0.964-2.187C124.761,341.02,125.047,339.56,125.367,340.735z"/>
<path fill="#FCEBCE" d="M120.144,287.611c3.785-7.785,16.988-15.884,28.718-7.781c14.621,10.101,12.603,19.232,10.378,24.092
	c-2.225,4.861-8.835,9.527-11.946,13.221c-3.111,3.694-10.339,11.157-19.672,6.491s-14.742-5.519-12.207-19.906
	C116.528,297.416,116.556,294.993,120.144,287.611z"/>
<radialGradient id="SVGID_6_" cx="118.0811" cy="318.3285" r="11.763" gradientUnits="userSpaceOnUse">
	<stop  offset="0" style="stop-color:#FFDECC"/>
	<stop  offset="0.5179" style="stop-color:#F9DCC0"/>
	<stop  offset="1" style="stop-color:#FCEBCE"/>
</radialGradient>
<path fill="url(#SVGID_6_)" d="M127.623,323.635c-9.476-4.367-14.796-5.528-12.207-19.906
	C118.979,283.937,149.704,333.809,127.623,323.635z"/>
<radialGradient id="SVGID_7_" cx="158.039" cy="311.8092" r="19.3654" gradientUnits="userSpaceOnUse">
	<stop  offset="0" style="stop-color:#FFDECC"/>
	<stop  offset="0.5179" style="stop-color:#F9DCC0"/>
	<stop  offset="1" style="stop-color:#FCEBCE"/>
</radialGradient>
<path fill="url(#SVGID_7_)" d="M159.24,303.923c-3.232,4.258-8.835,9.527-11.946,13.221c-3.111,3.694-7.797,7.98-13.449,7.977
	c-5.618-0.003,0.867-13.162,6.255-22.341C158.14,272.049,164.223,297.359,159.24,303.923z"/>
<path fill="#57301B" d="M147.401,302.771c-2.78,1.201-4.709,0.438-6.842-0.968c-0.786-0.518-0.854-1.788,0.18-1.343
	c1.954,0.841,3.483,1.861,6.324,0.777c2.467-0.942,3.72-3.423,3.995-5.064c0.072-0.431,0.395-0.266,0.478,0.321
	C151.725,297.838,151.195,301.132,147.401,302.771z"/>
<path fill="#57301B" d="M121.958,308.519c3.045-0.237,3.834-1.941,4.108-2.773c0.199-0.603-0.158-1.343-0.659-0.745
	c-0.946,1.129-1.658,1.93-3.962,2.192c-2.001,0.228-3.706-0.554-4.547-1.447c-0.221-0.235-0.367-0.032-0.185,0.345
	C117.129,306.955,118.804,308.765,121.958,308.519z"/>
<path fill="#57301B" d="M134.123,316.076c2.829-0.612,7.72-1.041,7.225,1.267c-0.564,2.632-3.621,4.36-5.834,4.905
	c-2.213,0.544-5.924-0.618-6.453-2.771C128.538,317.351,132.376,316.454,134.123,316.076z"/>
<path fill="#F7CC9D" d="M142.093,283.037c0.451,2.661-0.557,3.65-1.978,4.575c-1.749,1.139-3.616-0.15-4.544-0.67
	c0,0-0.149,2.93-1.66,4.282c-1.612,1.441-3.148,1.383-4.374,0.473c-0.743-0.552-1.201-1.881-1.201-1.881s-0.799,2.337-3.387,2.777
	c-1.542,0.262-2.198-0.877-2.659-1.637c-0.461-0.76-0.502-1.67-0.502-1.67s-0.859,2.414,0.468,4.158
	c0.94,1.235,2.568,1.682,4.003,0.783c0.995-0.623,2.133-2.45,2.133-2.45s0.939,1.771,2.585,2.07
	c1.646,0.299,3.433-0.627,4.284-1.826c0.851-1.199,1.163-3.304,1.163-3.304s1.341,1.207,3.33,1.21
	c1.174,0.002,3.022-0.771,3.4-2.891C143.533,284.901,142.093,283.037,142.093,283.037z"/>
<g id="形状_77_14_">
	<g>
		
			<ellipse transform="matrix(0.9835 -0.1811 0.1811 0.9835 -55.0156 27.207)" fill-rule="evenodd" clip-rule="evenodd" fill="#FFBD99" cx="121.514" cy="314.942" rx="3.59" ry="2.044"/>
	</g>
</g>
<g id="形状_77_12_">
	<g>
		
			<ellipse transform="matrix(0.9499 -0.3126 0.3126 0.9499 -88.2469 62.9761)" fill-rule="evenodd" clip-rule="evenodd" fill="#FFBD99" cx="152.29" cy="306.717" rx="3.59" ry="2.044"/>
	</g>
</g>
<path fill="#FFC07D" d="M101.225,97.589c0,0-32.663-14.244-45.433-26.769s-26.278-16.209-24.067,0s19.156,51.082,62.133,44.696
	S101.225,97.589,101.225,97.589z"/>
<path fill="#FFC07D" d="M121.384,94.55c0,0,10.566-18.419,10.074-42.977c-0.491-24.558,7.613-58.449,26.769-28.979
	s11.542,62.624-14.735,82.271S121.384,94.55,121.384,94.55z"/>
<path fill="#FF9B48" d="M96.357,112.507c0,0-30.531,1.558-40.353-13.308S52.287,80.01,66.092,88.145s22.566,12.382,33.716,14.241
	S96.357,112.507,96.357,112.507z"/>
<path fill="#FF9B48" d="M127.171,97.007c0,0,11.984-20.437,15.386-43.188c2.834-18.949,14.873-19.223,14.887,12.572
	c0.01,22.757-25.902,36.15-28.263,37.64C126.819,105.522,127.171,97.007,127.171,97.007z"/>
<radialGradient id="SVGID_8_" cx="120.7206" cy="187.4936" r="59.8699" gradientUnits="userSpaceOnUse">
	<stop  offset="0" style="stop-color:#FECD97"/>
	<stop  offset="1" style="stop-color:#FFC07A"/>
</radialGradient>
<path fill="url(#SVGID_8_)" d="M109.051,87.326c-5.089,1.498-15.099,7.927-18.503,32.56c-4.375,31.663-2.254,42.563,2.765,50.995
	c5.261,8.839,11.795,11.556,19.23,19.291c6.83,7.105,25.744,15.793,37.807-12.173c8.697-20.162,14.451-26.014,13.826-38.234
	c-0.625-12.221-8.875-26.101-11.687-34.851S133.613,80.095,109.051,87.326z"/>
<path fill="#713D1F" d="M91.323,152.495c0,0,3.416,4.222,10.326,1.721c4.238-1.534,4.78-2.079,6.666-4.76
	c1.191-1.693,2.229-1.409,1.672,0c-1.511,3.818-4.802,5.872-7.665,6.749c-4.717,1.445-9.099,0.477-11.065-1.611
	c0,0-1.443,1.584-4.647,0.679c-0.704-0.199-2.722-1.316,0.023-0.982C87.707,154.422,89.457,155.14,91.323,152.495z"/>
<path fill="#713D1F" d="M154.68,127.915c0,0,1.332,6.598-6.812,10.886c-5.381,2.834-10.551,1.199-12.63,0.003
	c-2.188-1.259-2.659,0.128-0.386,1.586c2.872,1.843,8.06,3.001,13.977,0.59c6.119-2.493,8.473-8.079,7.671-11.259
	c0,0,3.876,0.573,6.344-1.87c1.483-1.468,0.592-1.541-1.025-0.643C159.504,128.494,158.919,128.155,154.68,127.915z"/>
<path fill="#66361F" d="M109.19,87.57c-5.089,1.498-15.238,7.683-18.642,32.317c-0.684,4.947-1.495,12.355-1.495,12.355
	c6.648-3.998,7.733-15.81,9.637-13.484c3.148,3.845,8.128,9.836,14.816,10.481c9.073,0.874,14.711-23.402,19.788-21.206
	c8.114,3.51,20.231,10.294,24.469,9.488c0,0-4.714-11.057-5.134-12.363C149.816,96.408,133.752,80.338,109.19,87.57z"/>
<path fill="#E5432E" d="M91.149,114.701c0,0-0.789,4.286-0.776,6.473c0.006,1.099,8.703-15.234,23.251-18.076
	c14.548-2.843,39.295,2.888,39.295,2.888c-1.216-3.805-2.992-5.973-2.992-5.973s-11.053-10.292-30.45-7.951
	c0,0,29.555-23.889,10.094-59.804c-4.373-8.071-29.811,27.104-24.627,51.006c0,0-11.248-16.708-30.882-27.374
	c-7.37-4.003-6.785,6.146-3.852,16.856c3.016,11.011,8.376,20.782,30.232,26.562C100.441,99.308,92.191,110.368,91.149,114.701z"/>
<path fill="#4F2914" d="M116.632,189.392c0.786,2.829,7.974,4.697,12.181,3.383c4.925-1.539,9.718-6.944,8.828-9.258
	c-0.89-2.315-8.437-0.89-11.607,0S115.742,186.187,116.632,189.392z"/>
<path fill="#FFA083" d="M148.886,153.068c5.929,0.658,14.868-4.857,10.178-6.624c-5.249-1.978-10.671,1.017-12.423,2.575
	C144.889,150.577,144.682,152.602,148.886,153.068z"/>
<path fill="#FFA083" d="M94.447,168.55c5.879,1.012,15.132-3.957,10.556-6.002c-5.121-2.289-10.712,0.375-12.555,1.826
	C90.606,165.824,90.278,167.833,94.447,168.55z"/>
<path fill="#A85726" d="M133.316,128.239c0.182-1.68,2.528-5.223,7.393-6.66c5.044-1.489,7.599,0.408,7.938,0.581
	c1.4,0.711,0.995,1.635-0.337,0.969c-1.234-0.617-4.074-1.362-7.198-0.284c-4.225,1.458-5.758,4.916-6.077,5.908
	C134.653,129.941,133.091,130.316,133.316,128.239z"/>
<path fill="#FF9B48" d="M159.24,203.059c6.448,13.44,8.487,23.526,9.106,41.05c0.477,13.526-2.706,24.946-5.656,31.826
	c0,0-9.976,12.676-10.501,19.427c-0.525,6.751,7.372,3.41,9.235-2.348c0,0-10.419,29.106,2.781,19.642
	c1.337-0.409,18.735-1.349,10.078-33.22c0,0,16.237-42.728,4.895-73.568C161.989,159.127,152.792,189.619,159.24,203.059z"/>
<g id="形状_14_6_">
	<g>
		<path fill="#CC7123" d="M167.797,305.525c-0.222,0.949-1.127,2.853-1.57,3.783c-0.912,1.908-2.029,3.114-2.029,3.114
			s0.464-0.156,0.967-0.724c1.467-1.651,3.119-4.172,3.567-5.773C169.089,304.669,168.117,304.158,167.797,305.525z"/>
	</g>
</g>
<path fill="#A85726" d="M104.745,138.354c-0.884-1.487-4.414-3.321-9.037-2.576c-4.793,0.772-6.061,3.634-6.264,3.94
	c-0.839,1.261-0.102,1.949,0.7,0.758c0.743-1.103,2.749-3.014,5.786-3.346c4.107-0.45,6.689,1.33,7.386,2.118
	C104.201,140.248,105.838,140.192,104.745,138.354z"/>
</svg>
