<?xml version="1.0" encoding="utf-8"?>
<!-- Generator: Adobe Illustrator 17.0.0, SVG Export Plug-In . SVG Version: 6.00 Build 0)  -->
<!DOCTYPE svg PUBLIC "-//W3C//DTD SVG 1.1//EN" "http://www.w3.org/Graphics/SVG/1.1/DTD/svg11.dtd">
<svg version="1.1" id="图层_1" xmlns="http://www.w3.org/2000/svg" xmlns:xlink="http://www.w3.org/1999/xlink" x="0px" y="0px"
	 width="445.14px" height="720.08px" viewBox="0 0 445.14 720.08" enable-background="new 0 0 445.14 720.08" xml:space="preserve">
<radialGradient id="SVGID_1_" cx="68.0495" cy="149.8901" r="101.3552" gradientTransform="matrix(1 0 0 -1 0.14 719.1351)" gradientUnits="userSpaceOnUse">
	<stop  offset="0" style="stop-color:#FFC07D"/>
	<stop  offset="0.5713" style="stop-color:#FEB162"/>
	<stop  offset="1" style="stop-color:#FEA852"/>
</radialGradient>
<path fill="url(#SVGID_1_)" d="M214.366,504.423c0,0,10.093,15.981,9.361,23.661c-0.594,6.237,0.047,16.432-25.328,16.432
	s-69.103-4.59-85.843,7.23c-14.427,10.187-5.258,16.432,0,17.089c0,0,2.629,8.544,19.718,4.601c0,0,6.283,5.915,39.948-2.629
	s77.729-15.094,69.171-30.88c-8.558-15.786,3.817-21.701,7.488-26.302C252.553,509.024,214.366,504.423,214.366,504.423z"/>
<path fill="#DD7528" d="M132.302,573.418c0,0-3.773-2.417-5.052-6.164c-1.413-4.142,0.986-8.533,10.238-9.479
	c3.731-0.382,10.536-0.221,12.752,0.564c1.151,0.408-7.826-0.392-12.829,0.485c-5.214,0.914-9.805,3.775-8.541,8.764
	C129.292,569.255,130.023,571.357,132.302,573.418z"/>
<path fill="#DD7528" d="M112.556,568.835c0,0-8.421-8.994,3.259-13.022c4.949-1.707,8.789-1.708,10.922-1.707
	c1.036,0.001-6.366,1.078-10.27,2.91c-3.98,1.868-5.739,4.161-5.09,8.482C111.723,567.793,112.556,568.835,112.556,568.835z"/>
<radialGradient id="SVGID_2_" cx="173.181" cy="210.379" r="78.8982" gradientTransform="matrix(1 0 0 -1 0.14 719.1351)" gradientUnits="userSpaceOnUse">
	<stop  offset="0" style="stop-color:#FFC07D"/>
	<stop  offset="0.5713" style="stop-color:#FEB162"/>
	<stop  offset="1" style="stop-color:#FEA852"/>
</radialGradient>
<path fill="url(#SVGID_2_)" d="M224.735,519.65c0,0-47.553-6.347-73.681-37.185c-12.499-14.752-30.032-43.183-27.203-81.358
	c0.803-10.838,5.349-6.828,9.363,10.888c4.78,21.1,28.363,40.194,57.177,41.992"/>
<path fill="#FFBF80" d="M224.735,519.65c0,0-47.553-6.347-73.681-37.185c-12.499-14.752-21.091-31.003-25.472-52.306
	c-2.189-10.645,4.311,13.579,15.497,25.227c12.686,13.209,22.715,20.957,51.528,22.756"/>
<radialGradient id="SVGID_3_" cx="209.2831" cy="405.3001" r="127.0914" gradientTransform="matrix(1 0 0 -1 0.14 719.1351)" gradientUnits="userSpaceOnUse">
	<stop  offset="0" style="stop-color:#FFC07D"/>
	<stop  offset="0.5713" style="stop-color:#FEB162"/>
	<stop  offset="1" style="stop-color:#FEA852"/>
</radialGradient>
<path fill="url(#SVGID_3_)" d="M227.414,314.662c0,0,8.11,30.367-19.528,71.275c-22.636,33.504-44.188,90.757-4.252,122.031
	s117.857-2.624,130.122-35.125c12.265-32.501,9.156-43.368-20.279-88.746c-29.435-45.378-51.007-59.806-55.858-120.046
	c-4.851-60.24-28.82,50.598-28.82,50.598"/>
<g id="形状_12_6_">
	<g>
		
			<linearGradient id="SVGID_4_" gradientUnits="userSpaceOnUse" x1="209.0034" y1="310.1986" x2="281.5881" y2="310.1986" gradientTransform="matrix(1 0 0 -1 0.14 719.1351)">
			<stop  offset="0" style="stop-color:#FFC28A"/>
			<stop  offset="0.7938" style="stop-color:#FFCD9F"/>
			<stop  offset="1" style="stop-color:#FFD0A5"/>
		</linearGradient>
		<path fill="url(#SVGID_4_)" d="M266.052,361.446c-12.557-22.498-31.356-21.573-42.81,0.937
			c-9.503,18.675-19.652,64.325-10.532,92.504c7.519,23.228,57.883,24.087,65.371,1.608
			C288.116,426.364,275.229,377.887,266.052,361.446z"/>
	</g>
</g>
<path opacity="0.6" fill="#DD7528" enable-background="new    " d="M184.125,441.701c0,0,23.414,1.863,50.946-8.916
	c25.96-10.163,48.621-16.208,63.62-22.081C299.242,410.489,260.09,496.759,184.125,441.701z"/>
<path opacity="0.6" fill="#DD7528" enable-background="new    " d="M257.762,284.239c0,0-3.054,15.87-4.845,25.52
	c-3.395,18.3-11.845,27.856-25.503,28.934c0,0,1.298-4.248,0.864-16.43l2.41-6.233L257.762,284.239z"/>
<path fill="#FFBF80" d="M310.41,395.739c0,0,37.429,44.117,24.725,76.448c-13.226,33.661-92.617,69.371-131.589,36.904
	c-32.358-26.956-20.366-64.82-20.133-67.654C183.413,441.437,240.608,461.316,310.41,395.739z"/>
<path opacity="0.4" fill="#DD7528" enable-background="new    " d="M223.929,464.671c0,0,2.862,8.102,6.824,7.13
	c4.445-1.09,1.66-6.568,1.486-7.13c-1.29-4.173-2.205-9.494-1.774-11.505c0,0,8.189,3.879,13.792-1.724s5.671-6.011,7.074-6.31
	s-4.169,15.217-5.047,16.654c-0.878,1.437-0.627,3.12,1.543,3.521c4.337,0.801,8.852-5.676,11.117-12.428
	c2.266-6.752,3.415-11.662,3.415-15.457s-28.734-1.065-31.32-0.921C228.454,436.644,218.398,450.891,223.929,464.671z"/>
<radialGradient id="SVGID_5_" cx="149.9369" cy="105.5772" r="131.1497" gradientTransform="matrix(1 0 0 -1 0.14 719.1351)" gradientUnits="userSpaceOnUse">
	<stop  offset="0" style="stop-color:#FFC07D"/>
	<stop  offset="0.5713" style="stop-color:#FEB162"/>
	<stop  offset="1" style="stop-color:#FEA852"/>
</radialGradient>
<path fill="url(#SVGID_5_)" d="M298.341,396.761c-2.035,3.034-23.302,32.501-24.529,66.841s14.08,37.997,18.126,51.522
	c3.369,11.262,1.886,21.022-6.086,29.956c-10.393,11.647-28.425,13.816-54.715,14.185c-21.24,0.298-46.09,4.853-51.92,12.238
	s1.166,12.438,4.275,13.993c0,0,2.721,8.94,23.321,4.664c0,0,15.865,11.315,82.4-19.045c40.034-18.268,13.993-19.045,19.434-41.2
	c5.442-22.155,16.009-36.23,26.486-57.727c10.477-21.497,9.383-44.113-13.442-75.426C309.038,379.4,300.376,393.726,298.341,396.761
	z"/>
<path fill="#DD7528" d="M183.574,585.194c0,0-8.421-8.994,3.259-13.022c4.949-1.707,8.789-1.708,10.922-1.707
	c1.036,0.001-6.366,1.078-10.27,2.91c-3.98,1.868-5.739,4.161-5.09,8.482C182.741,584.152,183.574,585.194,183.574,585.194z"/>
<path fill="#DD7528" d="M206.831,590.131c0,0-3.773-2.417-5.052-6.164c-1.413-4.142,0.986-8.533,10.238-9.479
	c3.731-0.382,10.536-0.221,12.752,0.564c1.151,0.408-7.826-0.392-12.829,0.485c-5.214,0.914-9.805,3.775-8.541,8.764
	C203.821,585.968,204.552,588.069,206.831,590.131z"/>
<path fill="#FF9B48" d="M228.498,328.059c0,0-33.68,47.991-17.447,84.461c0,0-5.565,9.942-7.364,15.26
	c-3.13,9.249,2.228,9.519,5.159,3.938c0,0-2.613,24.471,17.157,7.831c9.629-8.105-7.356-36.928-5.604-63.294
	C221.356,361.841,228.86,340.181,228.498,328.059z"/>
<path fill="#F9E7CB" d="M222.363,408.78c0,0-1.208-6.198-11.884-6.927c-10.676-0.729-11.041,2.917-7.76,9.843
	c3.281,6.927,12.061,8.75,18.061,7.656C226.78,418.258,222.363,408.78,222.363,408.78z"/>
<path fill="#F9E7CB" d="M240.936,403.322c0,0-3.772-8.25,4.715-18.622c8.486-10.372,10.843-1.65,12.258,2.122
	c1.414,3.772,3.064,17.68-7.543,21.451C239.757,412.044,240.936,403.322,240.936,403.322z"/>
<path fill="#FFBD99" d="M221.416,411.427c0,0-0.847-2.919-7.185-4.188c-6.344-1.271-6.993,1.929-4.692,5.951
	c2.875,5.025,7.292,5.29,10.92,4.629C224.086,417.158,221.416,411.427,221.416,411.427z"/>
<path fill="#FFBD99" d="M242.769,403.153c0,0-2.126-4.65,2.657-10.496s6.112-0.93,6.909,1.196s1.727,9.964-4.251,12.09
	C242.105,408.069,242.769,403.153,242.769,403.153z"/>
<path fill="#FCEBCE" d="M218.306,442.617c0,0-0.943,11.497,1.886,18.478c2.829,6.981,5.893,10.281,8.958,8.159
	c3.064-2.122-4.715-16.972-2.122-23.573C229.621,439.081,218.306,442.617,218.306,442.617z"/>
<path fill="#FCEBCE" d="M250.203,437.428c0,0-2.154,13.916-4.23,17.321c-2.075,3.405,2.204,8.844,6.406,3.472
	s7.375-23.741,6.514-27.598C258.032,426.766,250.203,437.428,250.203,437.428z"/>
<path fill="#F6BF96" d="M248.821,455.789c-0.662,1.106-1.823,2.805-2.537,3.422c0.107,0.141,0.239,0.272,0.379,0.402
	c0.432-0.4,0.985-1.02,1.482-1.728C249.32,456.207,249.85,454.068,248.821,455.789z"/>
<path fill="#F6BF96" d="M250.677,456.586c-0.344,0.838-1.315,2.933-2.318,3.897c0.276,0.036,0.531,0.008,0.981-0.074
	c0.46-0.509,0.908-1.375,1.228-2.05C251.243,456.943,251.141,455.46,250.677,456.586z"/>
<path fill="#F6BF96" d="M227.307,465.365c0.519,1.179,1.46,3.009,2.092,3.711c-0.124,0.127-0.271,0.241-0.426,0.352
	c-0.379-0.451-0.85-1.134-1.256-1.898C226.76,465.717,226.5,463.529,227.307,465.365z"/>
<path fill="#F6BF96" d="M225.367,465.735c0.237,0.874,0.941,3.074,1.816,4.155c-0.279,0.002-0.528-0.058-0.964-0.195
	c-0.393-0.563-0.73-1.477-0.964-2.187C224.761,466.02,225.047,464.56,225.367,465.735z"/>
<path fill="#FCEBCE" d="M220.144,412.611c3.785-7.785,16.988-15.884,28.718-7.781c14.621,10.101,12.603,19.232,10.378,24.092
	c-2.225,4.861-8.835,9.527-11.946,13.221s-10.339,11.157-19.672,6.491s-14.742-5.519-12.207-19.906
	C216.528,422.416,216.556,419.993,220.144,412.611z"/>
<radialGradient id="SVGID_6_" cx="217.9411" cy="275.8065" r="11.763" gradientTransform="matrix(1 0 0 -1 0.14 719.1351)" gradientUnits="userSpaceOnUse">
	<stop  offset="0" style="stop-color:#FFDECC"/>
	<stop  offset="0.5179" style="stop-color:#F9DCC0"/>
	<stop  offset="1" style="stop-color:#FCEBCE"/>
</radialGradient>
<path fill="url(#SVGID_6_)" d="M227.623,448.635c-9.476-4.367-14.796-5.528-12.207-19.906
	C218.979,408.937,249.704,458.809,227.623,448.635z"/>
<radialGradient id="SVGID_7_" cx="257.899" cy="282.3258" r="19.3654" gradientTransform="matrix(1 0 0 -1 0.14 719.1351)" gradientUnits="userSpaceOnUse">
	<stop  offset="0" style="stop-color:#FFDECC"/>
	<stop  offset="0.5179" style="stop-color:#F9DCC0"/>
	<stop  offset="1" style="stop-color:#FCEBCE"/>
</radialGradient>
<path fill="url(#SVGID_7_)" d="M259.24,428.923c-3.232,4.258-8.835,9.527-11.946,13.221s-7.797,7.98-13.449,7.977
	c-5.618-0.003,0.867-13.162,6.255-22.341C258.14,397.049,264.223,422.359,259.24,428.923z"/>
<path fill="#57301B" d="M247.401,427.771c-2.78,1.201-4.709,0.438-6.842-0.968c-0.786-0.518-0.854-1.788,0.18-1.343
	c1.954,0.841,3.483,1.861,6.324,0.777c2.467-0.942,3.72-3.423,3.995-5.064c0.072-0.431,0.395-0.266,0.478,0.321
	C251.725,422.838,251.195,426.132,247.401,427.771z"/>
<path fill="#57301B" d="M221.958,433.519c3.045-0.237,3.834-1.941,4.108-2.773c0.199-0.603-0.158-1.343-0.659-0.745
	c-0.946,1.129-1.658,1.93-3.962,2.192c-2.001,0.228-3.706-0.554-4.547-1.447c-0.221-0.235-0.367-0.032-0.185,0.345
	C217.129,431.955,218.804,433.765,221.958,433.519z"/>
<path fill="#57301B" d="M234.123,441.076c2.829-0.612,7.72-1.041,7.225,1.267c-0.564,2.632-3.621,4.36-5.834,4.905
	c-2.213,0.544-5.924-0.618-6.453-2.771C228.538,442.351,232.376,441.454,234.123,441.076z"/>
<path fill="#F7CC9D" d="M242.093,408.037c0.451,2.661-0.557,3.65-1.978,4.575c-1.749,1.139-3.616-0.15-4.544-0.67
	c0,0-0.149,2.93-1.66,4.282c-1.612,1.441-3.148,1.383-4.374,0.473c-0.743-0.552-1.201-1.881-1.201-1.881s-0.799,2.337-3.387,2.777
	c-1.542,0.262-2.198-0.877-2.659-1.637c-0.461-0.76-0.502-1.67-0.502-1.67s-0.859,2.414,0.468,4.158
	c0.94,1.235,2.568,1.682,4.003,0.783c0.995-0.623,2.133-2.45,2.133-2.45s0.939,1.771,2.585,2.07
	c1.646,0.299,3.433-0.627,4.284-1.826c0.851-1.199,1.163-3.304,1.163-3.304s1.341,1.207,3.33,1.21
	c1.174,0.002,3.022-0.771,3.4-2.891C243.533,409.901,242.093,408.037,242.093,408.037z"/>
<g id="形状_77_14_">
	<g>
		
			<ellipse transform="matrix(-0.1811 -0.9835 0.9835 -0.1811 -171.0251 737.4844)" fill="#FFBD99" cx="221.529" cy="439.946" rx="2.044" ry="3.59"/>
	</g>
</g>
<g id="形状_77_12_">
	<g>
		
			<ellipse transform="matrix(-0.3126 -0.9499 0.9499 -0.3126 -78.9269 806.3245)" fill="#FFBD99" cx="252.293" cy="431.721" rx="2.044" ry="3.59"/>
	</g>
</g>
<path fill="#FFC07D" d="M201.225,222.589c0,0-32.663-14.244-45.433-26.769c-12.77-12.525-26.278-16.209-24.067,0
	c2.211,16.209,19.156,51.082,62.133,44.696C236.835,234.13,201.225,222.589,201.225,222.589z"/>
<path fill="#FFC07D" d="M221.384,219.55c0,0,10.566-18.419,10.074-42.977c-0.491-24.558,7.613-58.449,26.769-28.979
	c19.156,29.47,11.542,62.624-14.735,82.271S221.384,219.55,221.384,219.55z"/>
<path fill="#FF9B48" d="M196.357,237.507c0,0-30.531,1.558-40.353-13.308c-9.822-14.866-3.717-19.189,10.088-11.054
	c13.805,8.135,22.566,12.382,33.716,14.241C210.958,229.245,196.357,237.507,196.357,237.507z"/>
<path fill="#FF9B48" d="M227.171,222.007c0,0,11.984-20.437,15.386-43.188c2.834-18.949,14.873-19.223,14.887,12.572
	c0.01,22.757-25.902,36.15-28.263,37.64C226.819,230.522,227.171,222.007,227.171,222.007z"/>
<radialGradient id="SVGID_8_" cx="220.5806" cy="406.6414" r="59.8699" gradientTransform="matrix(1 0 0 -1 0.14 719.1351)" gradientUnits="userSpaceOnUse">
	<stop  offset="0" style="stop-color:#FECD97"/>
	<stop  offset="1" style="stop-color:#FFC07A"/>
</radialGradient>
<path fill="url(#SVGID_8_)" d="M209.051,212.326c-5.089,1.498-15.099,7.927-18.503,32.56c-4.375,31.663-2.254,42.563,2.765,50.995
	c5.261,8.839,11.795,11.556,19.23,19.291c6.83,7.105,25.744,15.793,37.807-12.173c8.697-20.162,14.451-26.014,13.826-38.234
	c-0.625-12.221-8.875-26.101-11.687-34.851S233.613,205.095,209.051,212.326z"/>
<path fill="#713D1F" d="M191.323,277.495c0,0,3.416,4.222,10.326,1.721c4.238-1.534,4.78-2.079,6.666-4.76
	c1.191-1.693,2.229-1.409,1.672,0c-1.511,3.818-4.802,5.872-7.665,6.749c-4.717,1.445-9.099,0.477-11.065-1.611
	c0,0-1.443,1.584-4.647,0.679c-0.704-0.199-2.722-1.316,0.023-0.982C187.707,279.422,189.457,280.14,191.323,277.495z"/>
<path fill="#713D1F" d="M254.68,252.915c0,0,1.332,6.598-6.812,10.886c-5.381,2.834-10.551,1.199-12.63,0.003
	c-2.188-1.259-2.659,0.128-0.386,1.586c2.872,1.843,8.06,3.001,13.977,0.59c6.119-2.493,8.473-8.079,7.671-11.259
	c0,0,3.876,0.573,6.344-1.87c1.483-1.468,0.592-1.541-1.025-0.643C259.504,253.494,258.919,253.155,254.68,252.915z"/>
<path fill="#66361F" d="M209.19,212.57c-5.089,1.498-15.238,7.683-18.642,32.317c-0.684,4.947-1.495,12.355-1.495,12.355
	c6.648-3.998,7.733-15.81,9.637-13.484c3.148,3.845,8.128,9.836,14.816,10.481c9.073,0.874,14.711-23.402,19.788-21.206
	c8.114,3.51,20.231,10.294,24.469,9.488c0,0-4.714-11.057-5.134-12.363C249.816,221.408,233.752,205.338,209.19,212.57z"/>
<path fill="#E5432E" d="M191.149,239.701c0,0-0.789,4.286-0.776,6.473c0.006,1.099,8.703-15.234,23.251-18.076
	c14.548-2.843,39.295,2.888,39.295,2.888c-1.216-3.805-2.992-5.973-2.992-5.973s-11.053-10.292-30.45-7.951
	c0,0,29.555-23.889,10.094-59.804c-4.373-8.071-29.811,27.104-24.627,51.006c0,0-11.248-16.708-30.882-27.374
	c-7.37-4.003-6.785,6.146-3.852,16.856c3.016,11.011,8.376,20.782,30.232,26.562C200.441,224.308,192.191,235.368,191.149,239.701z"
	/>
<path fill="#4F2914" d="M216.632,314.392c0.786,2.829,7.974,4.697,12.181,3.383c4.925-1.539,9.718-6.944,8.828-9.258
	c-0.89-2.315-8.437-0.89-11.607,0C222.864,309.407,215.742,311.187,216.632,314.392z"/>
<path fill="#FFA083" d="M248.886,278.068c5.929,0.658,14.868-4.857,10.178-6.624c-5.249-1.978-10.671,1.017-12.423,2.575
	C244.889,275.577,244.682,277.602,248.886,278.068z"/>
<path fill="#FFA083" d="M194.447,293.55c5.879,1.012,15.132-3.957,10.556-6.002c-5.121-2.289-10.712,0.375-12.555,1.826
	C190.606,290.824,190.278,292.833,194.447,293.55z"/>
<path fill="#A85726" d="M233.316,253.239c0.182-1.68,2.528-5.223,7.393-6.66c5.044-1.489,7.599,0.408,7.938,0.581
	c1.4,0.711,0.995,1.635-0.337,0.969c-1.234-0.617-4.074-1.362-7.198-0.284c-4.225,1.458-5.758,4.916-6.077,5.908
	C234.653,254.941,233.091,255.316,233.316,253.239z"/>
<path fill="#FF9B48" d="M259.24,328.059c6.448,13.44,8.487,23.526,9.106,41.05c0.477,13.526-2.706,24.946-5.656,31.826
	c0,0-9.976,12.676-10.501,19.427c-0.525,6.751,7.372,3.41,9.235-2.348c0,0-10.419,29.106,2.781,19.642
	c1.337-0.409,18.735-1.349,10.078-33.22c0,0,16.237-42.728,4.895-73.568C261.989,284.127,252.792,314.619,259.24,328.059z"/>
<g id="形状_14_6_">
	<g>
		<path fill="#CC7123" d="M267.797,430.525c-0.222,0.949-1.127,2.853-1.57,3.783c-0.912,1.908-2.029,3.114-2.029,3.114
			s0.464-0.156,0.967-0.724c1.467-1.651,3.119-4.172,3.567-5.773C269.089,429.669,268.117,429.158,267.797,430.525z"/>
	</g>
</g>
<path fill="#A85726" d="M204.745,263.354c-0.884-1.487-4.414-3.321-9.037-2.576c-4.793,0.772-6.061,3.634-6.264,3.94
	c-0.839,1.261-0.102,1.949,0.7,0.758c0.743-1.103,2.749-3.014,5.786-3.346c4.107-0.45,6.689,1.33,7.386,2.118
	C204.201,265.248,205.838,265.192,204.745,263.354z"/>
</svg>
