<?xml version="1.0" encoding="utf-8"?>
<!-- Generator: Adobe Illustrator 17.0.0, SVG Export Plug-In . SVG Version: 6.00 Build 0)  -->
<!DOCTYPE svg PUBLIC "-//W3C//DTD SVG 1.1//EN" "http://www.w3.org/Graphics/SVG/1.1/DTD/svg11.dtd">
<svg version="1.1" id="图层_1" xmlns="http://www.w3.org/2000/svg" xmlns:xlink="http://www.w3.org/1999/xlink" x="0px" y="0px"
	 width="445.14px" height="720.08px" viewBox="0 0 445.14 720.08" enable-background="new 0 0 445.14 720.08" xml:space="preserve">
<radialGradient id="SVGID_1_" cx="519.0933" cy="363.6808" r="195.9054" gradientTransform="matrix(0.9999 -0.0136 0.0136 0.9999 -6.6134 2.1557)" gradientUnits="userSpaceOnUse">
	<stop  offset="0" style="stop-color:#FFC07D"/>
	<stop  offset="0.5713" style="stop-color:#FEB162"/>
	<stop  offset="1" style="stop-color:#FEA852"/>
</radialGradient>
<path fill-rule="evenodd" clip-rule="evenodd" fill="url(#SVGID_1_)" d="M300.437,393.218c0,0,37.666,46.675,72.439,37.566
	s35.883-32.323,35.707-45.291c-0.176-12.968-3.533-28.1-4.711-32.34c-2.131-7.665-0.321-18.955,12.868,3.591
	c15.967,27.296,38.986,95.862-19.413,144.023c-45.78,37.754-87.252,24.072-87.252,24.072L300.437,393.218"/>
<path fill-rule="evenodd" clip-rule="evenodd" fill="#FFBF80" d="M326.456,482.318c0,0,52.21,9.867,76.796-10.767
	c24.586-20.634,30.805-51.642,31.185-59.408c0,0,10.137,61.085-52.89,99.821c-38.418,23.612-61.936,12.202-61.936,12.202
	L326.456,482.318z"/>
<radialGradient id="SVGID_2_" cx="211.4706" cy="312.598" r="222.2297" gradientTransform="matrix(0.9999 -0.0136 0.0136 0.9999 -6.6134 2.1557)" gradientUnits="userSpaceOnUse">
	<stop  offset="0" style="stop-color:#FFC07D"/>
	<stop  offset="0.5713" style="stop-color:#FEB162"/>
	<stop  offset="1" style="stop-color:#FEA852"/>
</radialGradient>
<path fill="url(#SVGID_2_)" d="M191.96,254.156c0,0-52.676,134.23-71.35,166.114s-31.346,61.497-29.875,90.963
	c1.472,29.466,43.976,40.684,51.192,58.814c7.215,18.13-13.573,26.989-21.048,29.235s-55.064,11.469-72.114,19.205
	c-17.051,7.737-44.147,25.796-34.274,42.281c0,0,1.29,16.066,24.773,8.242c0,0,7.329,5.798,67.076-25.57
	s77.573-21.424,71.292-49.752c-6.281-28.329-6.926-36.362,3.28-34.892s43.121,17.107,70.232,0.12c0,0,13.031,12.154,6.368,34.761
	c-6.663,22.607,6.18,20.824,28.592,52.687c22.412,31.863,63.158,71.519,70.503,59.625c0,0,28.612,14.623,28.307-7.889
	c0,0,20.781-9.396-9.099-38.477s-92.46-51.163-88.945-75.458c3.471-23.986,48.446-42.264,57.363-67.734
	c5.256-15.014,6.035-40.397-21.031-89.188c-14.559-26.244-71.229-92.739-83.904-179.285S191.96,254.156,191.96,254.156z"/>
<path fill="#DD7528" d="M384.912,698.099c0,0,0.645-9.156-8.561-21.183c-3.485-4.553-5.787-6.719-10.175-10.128
	c-3.76-2.921,2.397-0.298,3.236,0.102C375.84,669.961,390.576,684.427,384.912,698.099z"/>
<path opacity="0.6" fill="#DD7528" d="M238.754,243.78c0,0,0.938,6.996,1.231,8.656c0.293,1.659-41.645,42.196-52.812,14.057
	l3.799-9.827L238.754,243.78z"/>
<g id="形状_12_3_">
	<g>
		
			<linearGradient id="SVGID_3_" gradientUnits="userSpaceOnUse" x1="299.1109" y1="458.2475" x2="297.0396" y2="271.8336" gradientTransform="matrix(0.9999 -0.0136 0.0136 0.9999 -93.0554 -3.9757)">
			<stop  offset="0" style="stop-color:#FFC28A"/>
			<stop  offset="0.7938" style="stop-color:#FFCD9F"/>
			<stop  offset="1" style="stop-color:#FFD0A5"/>
		</linearGradient>
		<path fill-rule="evenodd" clip-rule="evenodd" fill="url(#SVGID_3_)" d="M242.361,335.721
			c-18.555-33.244-46.333-31.878-63.26,1.385c-14.042,27.596-29.04,95.051-15.563,136.69c11.111,34.323,85.532,35.592,96.596,2.376
			C274.964,431.648,255.921,360.015,242.361,335.721z"/>
	</g>
</g>
<path opacity="0.6" fill-rule="evenodd" clip-rule="evenodd" fill="#DD7528" d="M116.936,446.683c0,0,43.738,10.202,90.349,9.57
	c43.949-0.596,75.163-3.77,100.556-4.115C308.774,452.126,198.496,570.079,116.936,446.683z"/>
<path fill="#FFBF80" d="M110.01,457.355c0.105,7.745-2.895,57.117,43.681,94.402s103.164,31.217,134.924-1.829
	c31.76-33.047,31.832-71.984,29.375-88.733c-1.797-12.249-17.208-8.141-11.946-9.485c5.262-1.344-125.954,33.464-184.067-3.192
	C111.362,441.822,110.01,457.355,110.01,457.355z"/>
<path opacity="0.4" fill="#DD7528" d="M172.116,481.112c0,0,12.96,25.064,24.554,23.304c0,0,1.365-8.194-9.006-31.162
	c-1.063-2.354,15.87,11.48,29.598,4.583c6.845-3.439,4.834-4.06,12.214-6.34c7.381-2.28-5.566,17.927-10.54,20.398
	c-4.974,2.471-16.456,16.449-20.143,15.898c0,0,0.853,7.023,4.319,7.893c3.442,0.865,8.896,1.468,12.915,0.211
	s3.241-4.525,3.03-5.323c0,0,29.664-23.665,25.024-48.053c-4.64-24.388-20.478-10.552-21.885-10.933
	C220.788,451.206,163.483,435.357,172.116,481.112z"/>
<path fill="#FCEBCE" d="M182.696,423.778c0,0-20.192,3.592-27.211-19.397c-4.7-15.392,5.413-14.792,17.282-10.046
	c12.275,4.909,20.293,18.129,20.368,23.714C193.21,423.636,182.696,423.778,182.696,423.778z"/>
<path fill="#FCEACB" d="M223.556,414.431c0,0,9.173-16.014,22.929-19.487c13.756-3.473,22.096-4.624,18.03,10.596
	c-4.066,15.22-13.497,22.578-30.916,22.485C216.18,427.933,223.556,414.431,223.556,414.431z"/>
<path fill="#FFBD99" d="M187,421.091c0,0-17.159-0.127-21.613-13.525c-3.602-10.306,4.225-8.169,8.252-6.669
	c4.027,1.5,13.927,8.356,13.322,17.237S187,421.091,187,421.091z"/>
<path fill="#FFBD99" d="M228.591,416.173c0,0,8.679-12.542,18.765-15.754c8-2.547,9.78,3.045,5.579,11.537
	c-2.871,5.803-11.228,10.985-23.732,9.84C216.7,420.651,228.591,416.173,228.591,416.173z"/>
<radialGradient id="SVGID_4_" cx="240.0624" cy="442.7907" r="17.0133" gradientUnits="userSpaceOnUse">
	<stop  offset="0" style="stop-color:#F9D0B5"/>
	<stop  offset="1" style="stop-color:#F9E7CB"/>
</radialGradient>
<path fill="url(#SVGID_4_)" d="M238.595,431.277c0,0,13.233,27.095,12.705,30.381c0,0-8.498,1.055-9.343,0.862
	C241.112,462.328,238.595,431.277,238.595,431.277z"/>
<path fill-rule="evenodd" clip-rule="evenodd" fill="#5E331D" d="M191.797,476.435c-0.667,0.075-2.881,0.309-2.75,3.806
	c0.13,3.497,7.208,29.495,7.208,29.495s-0.668,2.612,2.297,3.284s12.355,1.772,14.351,1.538c3.305-0.388,3.524-1.68,3.7-2.942
	c0.493-3.528-4.946-28.58-5.297-29.943c-0.351-1.363-0.343-3.516-3.961-4.212C202.537,476.538,194.676,476.112,191.797,476.435z"/>
<path fill-rule="evenodd" clip-rule="evenodd" fill="#754E37" d="M189.086,480.707c0,0-0.587-1.945,2.111-2.131
	c3.848-0.265,14.07,0.76,15.287,1.021c1.042,0.223,2.103,0.726,2.369,2.076c0.413,2.091,5.821,29.327,5.599,30.744
	c-0.187,1.192-0.661,2.145-2.885,2.035c-7.978-0.394-11.541-1.156-13.016-1.431c-1.475-0.274-2.687-1.17-3.33-4.503
	C194.585,505.211,188.974,482.895,189.086,480.707"/>
<path fill="#826451" d="M211.404,494.746c0,0,3.002,15.277,3.062,16.49s0.122,3.445-2.792,3.336
	c-2.914-0.11-10.941-0.604-13.769-1.727C195.159,511.753,207.304,500.682,211.404,494.746z"/>
<path fill-rule="evenodd" clip-rule="evenodd" fill="#5E331D" d="M194.295,481.322c0.06,0.862-0.633,1.593-1.548,1.632
	c-0.914,0.039-1.704-0.629-1.763-1.491c-0.06-0.862,0.633-1.593,1.548-1.632C193.446,479.792,194.235,480.459,194.295,481.322z"/>
<path fill="#F9E7CB" d="M173.089,445.304c0,0-8.988,9.507-4.712,28.219c4.276,18.712,20.206,26.809,24.478,25.41l-3.725-17.647
	c0,0-8.923-5.449-8.342-21.979S173.089,445.304,173.089,445.304z"/>
<path fill="#F9E7CB" d="M228.622,460.908c0,0,2.323,10.426-8.337,19.688c-10.66,9.262-19.199,17.155-10.218,22.127
	c9.456,5.235,42.525-27.927,33.082-51.933C233.707,426.785,228.622,460.908,228.622,460.908z"/>
<path fill="#FCEBCE" d="M174.953,434.4c2.295-5.27,11.073-31.699,32.776-30.679s33.254,28.798,35.008,36.99
	s3.242,20.989-8.862,25.097s-14.084,3.477-20.602,7.509s-17.383,2.536-22.037-1.344c-4.654-3.881-10.665-6.624-13.931-9.489
	C172.487,458.257,166.029,454.896,174.953,434.4z"/>
<path fill-rule="evenodd" clip-rule="evenodd" fill="#F6BF96" d="M211.729,495.167c-1.342,1.506-3.625,3.777-4.904,4.516
	c0.123,0.248,0.288,0.489,0.464,0.729c0.781-0.489,1.813-1.279,2.785-2.221C212.374,495.956,213.816,492.823,211.729,495.167z"/>
<path fill-rule="evenodd" clip-rule="evenodd" fill="#F6BF96" d="M215.13,498.04c-0.861,1.126-2.915,3.763-4.823,4.812
	c0.403,0.167,0.811,0.325,1.246,0.421c0.903-0.582,1.931-1.707,2.691-2.598C215.839,498.811,216.289,496.528,215.13,498.04z"/>
<path fill="#F7CC9D" d="M224.623,417.06c-0.719,4.558-1.222,5.688-4.029,6.412c-3.455,0.892-6.998-2.937-8.218-4.284
	c0,0-1.837,4.667-5.023,6.033c-3.397,1.457-5.855,0.525-7.345-1.617c-0.903-1.299-0.921-3.703-0.921-3.703s-3.017,3.997-7.451,3.301
	c-2.641-0.415-2.635-3.265-2.968-4.749c-0.332-1.483,0.096-2.98,0.096-2.98s-2.706,3.443-1.507,6.992
	c0.85,2.514,3.245,4.124,6.059,3.45c1.952-0.468,4.791-2.808,4.791-2.808s0.557,3.381,3.06,4.763
	c2.504,1.382,5.905,0.855,7.936-0.624c2.031-1.479,3.684-4.721,3.684-4.721s1.515,2.686,4.737,3.775
	c1.901,0.642,5.316,0.397,7.084-2.831C226.388,420.219,224.623,417.06,224.623,417.06z"/>
<radialGradient id="SVGID_5_" cx="239.6738" cy="464.3293" r="21.5795" gradientUnits="userSpaceOnUse">
	<stop  offset="0" style="stop-color:#FFDECC"/>
	<stop  offset="0.5179" style="stop-color:#F9DCC0"/>
	<stop  offset="1" style="stop-color:#FCEBCE"/>
</radialGradient>
<path fill="url(#SVGID_5_)" d="M213.732,460.525c0,4.008,1.023,7.752,2.777,10.978c4.357-2.146,7.496-2.347,17.367-5.696
	c12.003-4.073,10.639-16.685,8.905-24.884c-2.665-1.389-5.643-2.191-8.803-2.191C222.796,438.733,213.732,448.49,213.732,460.525z"
	/>
<radialGradient id="SVGID_6_" cx="169.8995" cy="460.5617" r="19.8927" gradientUnits="userSpaceOnUse">
	<stop  offset="0" style="stop-color:#FFDECC"/>
	<stop  offset="0.5179" style="stop-color:#F9DCC0"/>
	<stop  offset="1" style="stop-color:#FCEBCE"/>
</radialGradient>
<path fill="url(#SVGID_6_)" d="M176.076,432.462c-0.113,0-0.221,0.015-0.333,0.017c-0.311,0.769-0.587,1.452-0.79,1.921
	c-8.924,20.497-2.466,23.857,2.353,28.084c3.266,2.865,9.278,5.608,13.931,9.489c0.079,0.066,0.192,0.117,0.274,0.182
	c4.554-4.179,7.427-10.161,7.427-16.83C198.938,442.698,188.702,432.462,176.076,432.462z"/>
<g id="形状_77_9_">
	<g>
		<path fill-rule="evenodd" clip-rule="evenodd" fill="#FFBD99" d="M178.455,451.838c-2.893-0.341-5.393,0.798-5.578,2.545
			c-0.188,1.747,2.003,3.435,4.896,3.776c2.896,0.341,5.393-0.798,5.581-2.544C183.542,453.868,181.347,452.18,178.455,451.838z"/>
	</g>
</g>
<g id="形状_77_副本_2_">
	<g>
		<path fill="#FFBD99" d="M231.838,455.47c-3,0.017-5.422,1.366-5.413,3.01c0.012,1.65,2.455,2.975,5.455,2.958
			c3.003-0.011,5.425-1.36,5.414-3.01C237.281,456.783,234.841,455.458,231.838,455.47z"/>
	</g>
</g>
<path fill="#57301B" d="M219.721,445.357c-1.611,0.946-3.496,2.747-2.646,3.624c0.85,0.878,3.723-1.104,4.864-1.614
	c3.032-1.353,7.456-3.823,16.11-2.19c2.774,0.523,2.601-1.589-0.677-2.284C231.996,441.754,225.258,442.105,219.721,445.357z"/>
<path fill="#57301B" d="M177.344,438.797c4.728,0.8,12.364,3.752,15.269,7.588c1.402,1.851,0.399,3.363-1.549,1.823
	c-1.949-1.54-9.399-7.041-13.569-7.504C174.981,440.426,174.665,438.344,177.344,438.797z"/>
<path fill="#57301B" d="M200.822,464.378c4.263,0.063,10.807,0.851,9.945,4.219c-1.124,4.395-6.644,5.053-10,5.099
	c-3.356,0.046-8.294-2.855-8.338-6.12C192.385,464.352,198.19,464.339,200.822,464.378z"/>
<path fill-rule="evenodd" clip-rule="evenodd" fill="#4C2816" d="M171.337,302.471c0,0-6.864,1.179-5.285,10.753
	c1.578,9.574,25.169,80.403,25.169,80.403s0.717,5.965,7.292,6.962c6.575,0.997,27.014,1.335,31.185,0.12
	c6.907-2.012,6.893-5.626,6.8-9.144c-0.26-9.837-23.241-81.878-23.241-81.878s-1.177-7.226-9.152-7.661
	S171.337,302.471,171.337,302.471z"/>
<path fill-rule="evenodd" clip-rule="evenodd" fill="#664232" d="M166.141,307.782c0,0,0.181-0.717,1.865-0.742
	c8.324-0.122,32.311-0.946,35.003-0.578c2.307,0.315,4.755,1.394,5.825,5.026c1.658,5.627,23.319,78.931,23.372,82.891
	c0.044,3.329-0.613,6.084-5.397,6.418c-17.166,1.2-25.049,0.125-28.297-0.207c-3.248-0.332-6.794-2.495-8.776-11.422
	C187.219,379.206,161.837,309.945,166.141,307.782"/>
<path fill="#826451" d="M188.413,380.918c0,0,24.184-16.744,30.724-34.231c0,0,12.081,41.126,12.662,44.444
	c0.581,3.318,1.542,9.434-4.716,9.966c-6.258,0.532-30.891,1.89-33.377-2.79S188.413,380.918,188.413,380.918z"/>
<ellipse transform="matrix(0.9824 -0.1869 0.1869 0.9824 -55.8765 38.1084)" fill-rule="evenodd" clip-rule="evenodd" fill="#845140" cx="174.144" cy="315.358" rx="3.568" ry="4.337"/>
<ellipse transform="matrix(0.9563 -0.2923 0.2923 0.9563 -84.7622 64.4492)" fill-rule="evenodd" clip-rule="evenodd" fill="#2A1B14" cx="173.3" cy="315.884" rx="2.691" ry="3.299"/>
<ellipse transform="matrix(0.9563 -0.2923 0.2923 0.9563 -84.7622 64.4492)" fill-rule="evenodd" clip-rule="evenodd" fill="#482D23" cx="173.3" cy="315.884" rx="1.476" ry="2.003"/>
<ellipse transform="matrix(0.9563 -0.2923 0.2923 0.9563 -84.3402 64.6119)" fill-rule="evenodd" clip-rule="evenodd" fill="#7C5D52" cx="174.056" cy="314.553" rx="0.77" ry="0.809"/>
<path fill-rule="evenodd" clip-rule="evenodd" fill="#754E37" d="M209.119,312.449c0,0,1.812,0.096,4.463-1.737l0.225,0.708
	c0,0-2.817,1.864-4.502,1.659L209.119,312.449z"/>
<path fill-rule="evenodd" clip-rule="evenodd" fill="#754E37" d="M231.799,391.131c0,0,1.805,0.103,4.457-1.73l0.132,0.907
	c0,0-2.815,1.741-4.501,1.536L231.799,391.131z"/>
<path fill="#FF9B48" d="M271.216,344.131c5.307,10.156,3.744,12.266-4.194,15.748c-9.605,4.214-17.208,10.696-26.769,3.546
	c-4.426-3.31-4.094-4.836-12.855-7.687c0,0,8.186,29.132,8.523,32.096c0.337,2.964,57.874-1.93,68.094-14.538
	c10.221-12.608-11.413-43.591-27.292-65.176c-19.142-26.02-26.681-34.708-31.627-45.638
	C230.859,231.025,247.901,299.512,271.216,344.131z"/>
<path fill="#DD7528" d="M14.491,660.768c0,0-10.488-15.09,18.537-25.155c0,0,9.182-4.135-2.063,2.109
	C19.321,644.189,11.768,650.484,14.491,660.768z"/>
<path fill="#DD7528" d="M39.365,669.009c0,0-26.969-14.617,19.656-31.916c7.175-2.662,1.035,0.904-5.668,4.47
	C47.919,644.454,25.018,656.034,39.365,669.009z"/>
<path fill="#DD7528" d="M356.605,705.988c0,0,5.415-6.229,1.509-16.922c-1.93-5.284-6.701-9.342-11.42-13.568
	c-2.083-1.865-7.569-5.913-9.175-7.172c-5.566-4.363,22.318,5.924,25.151,23.864C364.42,703.268,356.605,705.988,356.605,705.988z"
	/>
<path fill="#FF9B48" d="M192.719,387.386c-1.793-0.866,14.331-7.699,12.153-15.092c-1.869-6.343-12.623,0.291-19.563,0.407
	c-1.349,0.023-3.959-0.754-4.06-0.826c0.03-0.066,1.072-2.362,1.285-4.644l-0.002-0.005c0-0.003,0.001-0.007,0.001-0.01
	l-2.701-8.327c0,0-8.244,11.183-8.513,13.265c-0.269,2.082-17.586-5.106-19.757-11.905c-0.008-0.025-0.007-0.068-0.014-0.094
	c-0.973-3.745,7.347-19.523,16.452-39.253c-1.017-3.567-1.72-6.276-1.95-7.665c-1.578-9.574,5.286-10.753,5.286-10.753
	s1.924-0.068,4.823-0.155c5.387-13.073,10.109-26.711,12.206-39.064c0,0-11.057,22.755-44.584,61.044
	c-0.099,0.112-0.183,0.199-0.283,0.313c-16.884,19.253-22.702,32.229-22.645,41.133c0.051,8.908,5.978,13.742,12.593,16.705
	c13.228,5.925,33.876,4.467,43.195,10.684c7.077,4.721,16.352,5.132,16.729,5.143c0.11,0.003,0.226,0.016,0.335,0.017
	c-0.005-0.005-0.008-0.01-0.013-0.015c5.045,0.089,9.077-1.15,9.639-3.709C204.508,389.223,194.512,388.253,192.719,387.386z"/>
<radialGradient id="SVGID_7_" cx="208.4636" cy="234.9912" r="71.24" gradientTransform="matrix(0.9999 -0.0136 0.0136 0.9999 -6.6134 2.1557)" gradientUnits="userSpaceOnUse">
	<stop  offset="0" style="stop-color:#FECD97"/>
	<stop  offset="1" style="stop-color:#FFC07A"/>
</radialGradient>
<path fill="url(#SVGID_7_)" d="M204.913,96.054c-21.406,0.29-38.407,7.432-44.722,24.616c-6.315,17.183-0.487,43.733-5.536,74.649
	c-4.375,26.786,3.739,37.82,9.704,44.977c3.958,4.749,16.736,23.06,42.817,22.701c24.788-0.341,54.443-25.003,58.209-57.175
	c2.061-17.601-1.4-26.348-2.893-57.466C260.95,116.206,230.32,95.71,204.913,96.054z"/>
<path fill="#FFCE99" d="M156.161,176.634c0,0,1.96-11.621,13.83-7.987c11.869,3.634,19.807,20.788,19.635,27.139
	C189.456,202.137,156.161,176.634,156.161,176.634"/>
<path fill="#FFCE99" d="M224.097,186.002c0,0-1.291-26.593,19.829-23.762c19.099,2.56,18.256,15.707,18.256,15.707"/>
<path fill="#FFFFFF" d="M156.264,181.684c0,0-1.097,10.391,2.414,16.948c4.7,8.776,14.397,13.376,23.551,12.021
	s9.731-13.196,3.361-23.567C179.22,176.716,159.982,164.234,156.264,181.684z"/>
<path fill="#FFFDFC" d="M249.064,167.728c0,0,16.171,3.744,12.885,24.563c-2.949,18.684-13.047,17.798-20.175,17.241
	c-4.83-0.378-18.24-5.337-17.703-23.933C224.69,164.153,249.064,167.728,249.064,167.728z"/>
<path fill="#512A15" d="M235.383,183.833c2.859-9.53,14.799-10.737,20.673,1.645c4.079,8.598,3.133,17.745-0.767,21.251
	c-4.69,4.216-14.536,6.237-19.685-6.584C232.583,192.624,235.383,183.833,235.383,183.833z"/>
<g id="Shape_2_12_">
	<g>
		<path fill-rule="evenodd" clip-rule="evenodd" fill="#9C6342" d="M175.828,210.677c-3.159-0.343-7.607-2.086-10.946-4.659
			c-3.367-2.595-4.91-5.434-6.461-8.169c-0.771-1.36-0.374,3.016,2.819,7.01c-1.169,0.648-1.955,1.748-2.01,2.527
			c-0.057,0.799,1.278-0.648,2.581-0.741c0.456-0.032,0.792-0.05,1.043-0.059c0.396,0.365,0.81,0.722,1.266,1.057
			c0.205,0.151,0.412,0.296,0.62,0.435c-0.785,0.681-1.358,1.884-1.567,2.833c-0.123,0.568,1.485-0.355,2.336-0.738
			c0.717-0.323,1.398-0.532,1.843-0.652C173.08,212.09,178.405,210.954,175.828,210.677z"/>
	</g>
</g>
<g id="Shape_2_10_">
	<g>
		<path fill-rule="evenodd" clip-rule="evenodd" fill="#9C6342" d="M260.047,203.144c1.833-3.824,1.329-7.326,0.783-5.833
			c-1.154,3.159-1.632,5.441-5.29,9.043c-3.852,3.793-8.42,3.625-11.45,3.373c-2.807-0.234,5.198,2.816,11.538-1.44
			c0.43,0.091,1.027,0.24,1.657,0.474c0.836,0.311,2.429,1.089,2.275,0.555c-0.282-0.97-1-2.19-1.891-2.737
			c0.471-0.488,0.886-0.996,1.25-1.513c0.248-0.009,0.605-0.017,1.123-0.015c1.247,0.005,2.615,1.3,2.509,0.541
			C262.437,204.767,261.424,203.619,260.047,203.144z"/>
	</g>
</g>
<path fill="#512A15" d="M175.078,179.945c-3.443,0.047-7.993,2.28-7.859,12.03c0.156,11.375,6.036,16.547,11.986,17.87
	c6.072,1.35,9.672-1.103,10.643-7.79C190.944,194.51,185.526,179.804,175.078,179.945z"/>
<path fill="#A85726" d="M159.738,155.756c0,0,4.137-7.801,15.453-0.861c10.264,6.295,11.111,16.244,6.515,12.227
	c-2.659-2.324-4.912-7.95-9.288-10.199c-5.225-2.685-9.42-0.867-10.804,0.949C159.894,160.131,158.168,157.801,159.738,155.756z"/>
<path fill="#A85726" d="M223.676,158.996c1.81-3.297,6.454-10.973,19.034-9.89c9.37,0.806,12.787,6.844,13.192,7.545
	c1.277,2.211,0.327,3.338-1.586,2.209c-2.525-1.49-4.609-6.203-11.584-6.544c-7.831-0.383-14.086,4.472-15.956,8.62
	C225.459,163.858,221.438,163.073,223.676,158.996z"/>
<path fill="#713D1F" d="M155.26,180.214c0,0-2.629-0.765-3.889-2.945c-1.26-2.18-0.414,0.956-0.062,1.873
	c0.429,1.12,1.6,2.905,4.969,3.965c0,0-0.039-9.77,9.726-9.024c9.765,0.746,21.369,14.034,23.507,22.705
	c0,0-1.991-17.197-17.462-24.017C156.578,165.95,155.26,180.214,155.26,180.214z"/>
<path fill="#713D1F" d="M224.097,186.002c0,0-1.144-22.521,20.158-20.918c12.823,0.965,17.273,10.012,17.991,11.145
	c0,0,3.182,0.808,5.697-3.167c1.733-2.738,1.223-0.603,0.447,1.96c-0.525,1.734-2.241,5.045-6.988,4.924
	c0,0-5.563-9.809-16.033-11.321C238.24,167.596,225.863,170.092,224.097,186.002z"/>
<path fill="#4F2914" d="M186.292,238.852c-1.383-1.827-2.614-4.662,4.005-5.775c8.997-1.512,30.743-1.66,22.877,6.989
	C205.376,248.64,193.747,248.702,186.292,238.852z"/>
<path fill="#FFA083" d="M162.4,221.619c4.255,1.126,13.722-0.186,13.165-4.321s-13.601-5.931-18.478-1.919
	C152.21,219.39,162.4,221.619,162.4,221.619z"/>
<path fill="#FFA083" d="M242.667,219.983c7.352,2.768,20.551-1.359,15.141-5.14c-6.054-4.232-13.946-2.175-16.688-0.757
	C238.378,215.505,237.455,218.021,242.667,219.983z"/>
<ellipse transform="matrix(0.9999 -0.0136 0.0136 0.9999 -2.7098 2.3093)" fill="#FFFFFF" cx="168.994" cy="201.052" rx="5.55" ry="2.923"/>
<ellipse transform="matrix(0.9999 -0.0136 0.0136 0.9999 -2.6915 3.2133)" fill="#FFFFFF" cx="235.688" cy="200.147" rx="5.247" ry="2.923"/>
<path fill="#FFC07D" d="M169.518,129.225c0,0-52.256,9.739-69.433-44.941c-11.553-36.777,5.059-80.678,20.554-57.075
	s27.742,51.481,60.451,79.836S169.518,129.225,169.518,129.225z"/>
<path fill="#FFC07D" d="M232.433,108.961c0,0,21.722-38.129,39.943-68.049c7.036-11.554,22.779-30.219,30.753-31.518
	c10.18-1.659,19.314,26.433,17.987,43.714c-2.183,28.42-14.461,66.237-69.389,77.936
	C177.592,146.833,232.433,108.961,232.433,108.961z"/>
<path fill="#FF9B48" d="M171.201,124.514c0,0-42.004-6.465-51.299-44.728s12.66-15.077,17.27-8.99
	c4.611,6.087,27.12,32.114,37.274,41.99S171.201,124.514,171.201,124.514z"/>
<path fill="#FF9B48" d="M242.087,114.691c0,0,36.894-45.28,42.144-55.269s20.39-24.415,18.78,4.194
	c-2.229,39.614-44.266,54.212-54.15,58.011C238.977,125.426,242.087,114.691,242.087,114.691"/>
<path fill="#66361F" d="M204.646,93.17c0,0-53.596-4.874-47.725,61.122c0,0,8.08-10.889,14.582-14.251s15.896,18.279,22.593,21.32
	c8.334,3.785,17.41-10.093,35.92-25.387c6.54-5.404,30.539,23.09,32.935,20.633C263.947,155.583,264.636,92.239,204.646,93.17z"/>
<path fill="#E5432E" d="M184.275,102.856c0,0-29.37-10.81-42.602-48.199c-11.446-32.344,0.387-31.242,24.281-15.153
	c15.958,10.745,28.727,29.253,32.634,39.746c3.759,10.097-2.005-12.511,38.55-43.303s30.808,0.988,27.553,12.739
	s-14.21,44.493-44.36,51.243c0,0,29.261,14.883,41.303,39.596c0,0,0.636,1.05,1.333,8.377c0.566,5.95-54.593-62.409-106.248-8.598
	c0,0,0.188-4.576,1.196-10.561C158.851,123.175,172.522,108.202,184.275,102.856z"/>
</svg>
