<?xml version="1.0" encoding="utf-8"?>
<!-- Generator: Adobe Illustrator 17.0.0, SVG Export Plug-In . SVG Version: 6.00 Build 0)  -->
<!DOCTYPE svg PUBLIC "-//W3C//DTD SVG 1.1//EN" "http://www.w3.org/Graphics/SVG/1.1/DTD/svg11.dtd">
<svg version="1.1" id="图层_1" xmlns="http://www.w3.org/2000/svg" xmlns:xlink="http://www.w3.org/1999/xlink" x="0px" y="0px"
	 width="460.583px" height="599.544px" viewBox="0 0 460.583 599.544" enable-background="new 0 0 460.583 599.544"
	 xml:space="preserve">
<radialGradient id="SVGID_1_" cx="319.1206" cy="243.3039" r="253.2237" gradientUnits="userSpaceOnUse">
	<stop  offset="0" style="stop-color:#F6BB7C"/>
	<stop  offset="0.5444" style="stop-color:#F4AC64"/>
	<stop  offset="1" style="stop-color:#F3A254"/>
</radialGradient>
<path fill="url(#SVGID_1_)" d="M237.084,190.813c0,0-2.89,56.062-10.756,85.342c-6.886,25.633-4.389,46.97-21.254,88.274
	c-22.563,55.26-58.475,107.799-97.251,125.319c-21.748,9.826-32.682,16.765-85.62,22.725
	c-48.274,5.435,48.219,37.579,153.644,15.259c77.44-16.395,121.105-81.208,121.105-81.208l76.128-65.066
	c0,0-31.947-38.132-41.956-78.73c-5.699-23.115-49.748-80.032-46.515-91.744C287.843,199.271,237.084,190.813,237.084,190.813z"/>
<radialGradient id="SVGID_2_" cx="319.1206" cy="243.3039" r="253.2237" gradientUnits="userSpaceOnUse">
	<stop  offset="0" style="stop-color:#FFC07D"/>
	<stop  offset="0.5713" style="stop-color:#FEB162"/>
	<stop  offset="1" style="stop-color:#FEA852"/>
</radialGradient>
<path fill="url(#SVGID_2_)" d="M237.084,190.813c0,0-2.89,56.062-10.756,85.342c-6.886,25.633-4.389,46.97-21.254,88.274
	c-22.563,55.26-58.475,107.799-97.251,125.319c-21.748,9.826-32.682,16.765-85.62,22.725
	c-48.274,5.435,48.219,37.579,153.644,15.259c77.44-16.395,121.105-81.208,121.105-81.208l76.128-65.066
	c0,0-15.132-46.655-41.956-78.73c-18.315-21.9-47.47-80.822-44.237-92.534S237.084,190.813,237.084,190.813z"/>
<path fill="#FFBF80" d="M205.074,459.614c-15.807,32.653-39.291,42.636-67.232,53.421c-55.2,21.307-127.889,11.865-89.899,18.538
	c22.517,3.955,70.579,8.136,124.477-3.099c55.808-11.634,87.038-46.929,87.038-46.929S216.89,435.207,205.074,459.614z"/>
<path fill="#FFC07D" d="M224.615,115.878c0,0-43.03,2.661-60.958-20.945c-11.753-15.474-12.219-28.34-11.982-38.917
	c0.547-24.417,18.262-50.709,33.364-27.972c11.498,17.31,12.85,21.91,28.634,38.627c15.327,16.234,19.467,20.257,23.871,23.336
	C250.184,98.846,224.615,115.878,224.615,115.878z"/>
<path fill="#FFC07D" d="M288.835,85.84c0,0,16.534-29.176,17.291-57.215s14.399-19.703,22.356-7.957
	c7.957,11.746,24.25,56.836-17.051,75.403S288.835,85.84,288.835,85.84z"/>
<path fill="#FF9B48" d="M226.68,109.532c0,0-48.086-2.357-53.426-39.785c-3.804-26.66,12.69-17.905,20.537-6.903
	c11.243,15.764,22.891,27.696,38.047,34.896C246.995,104.939,226.68,109.532,226.68,109.532z"/>
<path fill="#FF9B48" d="M298.038,89.945c0,0,13.481-26.621,16.293-44.951c1.646-10.728,10.755-14.319,12.125,0
	c2.638,27.571-4.547,36.615-20.461,46.845S298.038,89.945,298.038,89.945z"/>
<linearGradient id="SVGID_3_" gradientUnits="userSpaceOnUse" x1="266.0765" y1="327.5028" x2="350.3232" y2="327.5028" gradientTransform="matrix(0.9981 -0.0609 0.0609 0.9981 -9.2521 31.329)">
	<stop  offset="0" style="stop-color:#FFC28A"/>
	<stop  offset="0.7938" style="stop-color:#FFCD9F"/>
	<stop  offset="1" style="stop-color:#FFD0A5"/>
</linearGradient>
<path fill="url(#SVGID_3_)" d="M302.422,410.491c0,0-4.966-16.401-25.197-89.024c-13.054-46.862,11.523-94.896,34.294-32.965
	c11.844,32.211,36.666,37.581,48.46,75.255C371.795,401.504,349.585,439.299,302.422,410.491z"/>
<path fill="#F9974E" d="M302.139,507.564c0,0-2.131,33.42-9.003,43.88c-6.509,9.908,33.794,14.953,84.332,18.799
	c23.01,1.751,45.428,1.725,49.453,0s16.162,1.304,21.175-6.28c0,0,9.189-4.177-4.204-15.571
	c-20.081-17.083-70.811-7.964-98.495-8.612c-19.091-0.447-31.116,0.562-10.16-32.215S302.139,507.564,302.139,507.564z"/>
<path fill="#DD7528" d="M427.927,569.785c0,0,14.395-11.762-13.897-16.851c-4.495-0.809-3.176,0.03,2.313,1.542
	C420.995,555.758,433.997,559.965,427.927,569.785z"/>
<path fill="#DD7528" d="M448.157,563.807c0,0,6.692-7.465-7.921-12.807c-3.065-1.12-3.614-0.515,0.9,1.492
	C444.291,553.895,451.672,557.078,448.157,563.807z"/>
<path opacity="0.6" fill="#DD7528" d="M263.376,417.415c64.777-12,59.867-4.815,131.224-11.615
	c25.01-2.383,17.114,11.421,17.114,11.421C405.046,422.322,284.453,443.408,263.376,417.415z"/>
<radialGradient id="SVGID_4_" cx="333.1461" cy="389.4704" r="31.0981" gradientUnits="userSpaceOnUse">
	<stop  offset="0" style="stop-color:#FFDECC"/>
	<stop  offset="0.5179" style="stop-color:#F9DCC0"/>
	<stop  offset="1" style="stop-color:#FCEBCE"/>
</radialGradient>
<path fill="url(#SVGID_4_)" d="M310.349,440.638c0,0-0.85-15.043,2.314-28.249c3.164-13.206,13.43-16.667,14.38-25.062
	s45.929,33.059,45.929,33.059l-2.962,29.746L310.349,440.638z"/>
<path fill="#FFBF80" d="M263.376,405.8c85.643,24.221,149.169,4.692,149.169,4.692c3.92,13.109,7.091,34.626-9.398,64.299
	c-18.543,33.37-57.403,57.481-160.755,37.382C172.525,498.586,263.376,405.8,263.376,405.8z"/>
<path opacity="0.4" fill="#DD7528" d="M321.439,416.642c0,0,6.867,40.595,28.95,45.004c10.008,1.998,9.448-4.493,7.707-7.373
	s-9.169-25.127-10.195-26.481c-1.025-1.354,9.007,2.224,13.083,2.66c4.076,0.436,20.906,4.594,28.258,0c0,0,0.774,1.983-0.774,5.272
	c-1.548,3.289-4.836,14.766-0.387,18.893c4.449,4.127,8.034,1.73,9.358-1.776c1.324-3.506,5.875-35.859,0-39.643
	C391.564,409.413,336.178,419.887,321.439,416.642z"/>
<path opacity="0.6" fill="#DD7528" d="M283.025,213.894c-0.07,0.487-35.068-6.621-42.035-16.521c-6.967-9.9,10.983,27.733,49.86,32
	c0,0-3.605-10.317-3.968-14.41"/>
<radialGradient id="SVGID_5_" cx="374.7674" cy="605.6351" r="102.5876" gradientUnits="userSpaceOnUse">
	<stop  offset="0" style="stop-color:#FFC07D"/>
	<stop  offset="0.5713" style="stop-color:#FEB162"/>
	<stop  offset="1" style="stop-color:#FEA852"/>
</radialGradient>
<path fill="url(#SVGID_5_)" d="M225.457,364.429c-22.617,10.616-37.758,25.491-39.72,60.216
	c-2.483,43.957,10.052,51.372,10.606,71.287c0.916,32.934-11.779,48.201-17.704,60.946c-1.737,3.736-9.621,15.959,12.418,20.519
	s112.219,18.108,131.991,9.76c0,0,19.973,4.14,29.64-3.769c0,0,12.841,0.227,10.644-12.515s-30.757-18.894-83.044-19.772
	s-75.135,7.47-58.438-11.424c16.697-18.894,61.035-24.055,72.931-79.529C309.705,390.551,248.074,353.813,225.457,364.429z"/>
<radialGradient id="SVGID_6_" cx="239.059" cy="252.5086" r="168.4992" gradientUnits="userSpaceOnUse">
	<stop  offset="0" style="stop-color:#FFC07D"/>
	<stop  offset="0.5713" style="stop-color:#FEB162"/>
	<stop  offset="1" style="stop-color:#FEA852"/>
</radialGradient>
<path fill="url(#SVGID_6_)" d="M225.457,364.429c-22.617,10.616-31.436,20.871-36.215,51.92
	c-6.805,44.207,10.812,64.019,15.832,85.604c7.564,32.52,0.08,56.617,16.776,37.724c16.697-18.894,61.035-24.055,72.931-79.529
	C309.705,390.551,248.074,353.813,225.457,364.429z"/>
<path fill="#DD7528" d="M322.975,587.062c0,0,1.811-6.162-4.419-12.46c-3.079-3.112-7.684-5.505-12.517-6.477
	c-3.407-0.685-7.232-1.148-8.777-1.518c-5.352-1.282,17.709-3.045,25.53,8.727C327.621,582.603,322.975,587.062,322.975,587.062z"/>
<path fill="#DD7528" d="M352.62,583.158c0,0,3.225-3.724-0.939-9.144c-1.901-2.475-5.96-4.913-9.135-6.419
	c-2.782-1.319-3.478-1.077-5.914-2.159c-3.585-1.593,12.768-0.158,17.713,8.621C357.399,579.478,352.62,583.158,352.62,583.158z"/>
<radialGradient id="SVGID_7_" cx="326.418" cy="180.8983" r="63.4704" gradientUnits="userSpaceOnUse">
	<stop  offset="0" style="stop-color:#FECD97"/>
	<stop  offset="1" style="stop-color:#FFC07A"/>
</radialGradient>
<path fill="url(#SVGID_7_)" d="M244.482,85.086c20.178-11.771,52.964-15.113,85.32,27.643c16.945,22.392,8.684,33.507,28.415,40.917
	c22.592,8.484,0.965,70.442-69.382,62.769c-69.168-7.545-79.976-54.001-73.281-88.886
	C219.187,108.597,229.957,93.558,244.482,85.086z"/>
<path fill="#FFCE99" d="M245.673,140.764c0,0-0.431-14.78,14.802-18.879c15.232-4.098,25.654,5.314,27.621,7.781
	c1.967,2.467-41.505,13.677-41.505,13.677"/>
<path fill="#FFCE99" d="M319.83,123.622c0,0,5.766-17.955,18.052,1.37C343.132,133.25,319.83,123.622,319.83,123.622z"/>
<radialGradient id="SVGID_8_" cx="357.0773" cy="317.5981" r="52.3827" gradientUnits="userSpaceOnUse">
	<stop  offset="0" style="stop-color:#FFC07D"/>
	<stop  offset="0.5713" style="stop-color:#FEB162"/>
	<stop  offset="1" style="stop-color:#FEA852"/>
</radialGradient>
<path fill="url(#SVGID_8_)" d="M290.559,229.066c0,0,11.28,39.394,15.853,49.455c4.573,10.061,16.418,41.21,17.538,43.344
	c1.12,2.134,7.73,9.704,18.266,8.789s27.609-0.61,11.146-53.657c0,0-11.81-32.141-4.885-59.364c2.177-8.559,7.885-17.673,0-17.673
	c-5.689,0-9.616,8.893-8.832,13.853c0,0-8.871-9.134-22.221-3.15c-5.822,2.609-8.321,9.062-5.071,10.742
	c-6.449,7.921-1.613,16.692,3.096,15.937c2.654-0.425,4.113,10.376,14.134,10.747c0,0,0.834,24.393,3.504,38.014
	c2.648,13.511-18.537-20.758-23.493-28.975C300.849,242.632,292.395,230.813,290.559,229.066z"/>
<g id="形状_14_8_">
	<g>
		<path fill="#DD7528" d="M319.144,217.089c-1.256,0.034-3.66,1.116-5.407,2.242c-0.601,0.386-0.912,0.845-0.912,0.845
			s1.296-0.871,2.963-1.323c0.812-0.218,2.473-0.664,3.198-0.636C320.03,218.256,320.131,217.058,319.144,217.089z"/>
	</g>
</g>
<path fill="#FF9B48" d="M262.326,252.315c6.701-22.943-19.565-47.354-32.636-6.854c-8.362,25.909-18.563,48.299-18.521,65.141
	c0.053,21.388,2.683,34.03,37.011,37.911c27.531,3.112,56.398-5.382,64.873-3.908c8.475,1.474,34.63,11.423,37.383-4.053
	c0,0,10.866-8.173,4.97-14.069c-3.861,1.979-13.663,3.895-25.398-2.454c0,0,5.68-7.429,1.533-15.536
	c-4.147-8.107-9.525-2.501-9.357,2.948s-9.411,14.653-11.991,15.389c0,0-65.782,2.263-67.801-9.401
	C239.518,300.825,253.976,280.902,262.326,252.315z"/>
<g id="形状_14_7_">
	<g>
		<path fill="#D3722B" d="M346.906,341.019c-0.84,0.016-2.56,0.048-3.257-0.153c-1.003-0.289-1.391,0.849-0.426,1.056
			c1.227,0.27,3.821-0.201,5.788-0.872c0.676-0.229,1.089-0.6,1.089-0.6S348.633,340.983,346.906,341.019z"/>
	</g>
</g>
<path fill="#FCEBCE" d="M344.837,361.191c0.894,1.824-6.9-31.154-44.143-22.072c-7.357,1.794-2.23,39.167,36.966,34.22
	C376.857,368.392,344.837,361.191,344.837,361.191z"/>
<path fill="#FCEBCE" d="M367.463,359.58c0.393-1.425,14.611-22.617,36.739-18.666c9.133,1.631-2.009,34.738-23.451,32.406
	C364.636,371.568,367.463,359.58,367.463,359.58z"/>
<path fill="#FFBD99" d="M337.454,362.91c0.894,1.824-0.774-18.66-25.338-12.669c-4.223,1.03-1.28,22.482,21.219,19.642
	C355.833,367.043,337.454,362.91,337.454,362.91z"/>
<path fill="#FFBD99" d="M379.465,361.409c0,0,3.674-13.325,20.362-10.345c5.062,0.904-1.113,19.253-12.997,17.96
	C377.898,368.053,379.465,361.409,379.465,361.409z"/>
<path fill="#FCEBCE" d="M326.008,393.596c0,0,0.116,21.727,6.273,36.543c6.158,14.816,17.802,31.408,29.52,27.142
	c11.718-4.267-10.523-19.047-14.098-37.256C344.128,401.816,326.008,393.596,326.008,393.596z"/>
<path fill="#FCEBCE" d="M392.896,412.851c0,0,1.936,13.253,0,19.815s-5.2,24.102,4.728,21.732c9.928-2.37,9.861-41.25,6.395-48.828
	S392.896,412.851,392.896,412.851"/>
<path fill-rule="evenodd" clip-rule="evenodd" fill="#F6BF96" d="M361.025,453.697c-1.392-1.798-4.047-5.881-3.716-4.588
	c0.587,2.296,2.308,5.079,3.972,7.144c0.441,0.546,0.45,0.605,0.874,0.957c0.725-0.405,1.213-0.551,1.502-0.976
	C362.729,455.506,361.942,454.889,361.025,453.697z"/>
<path fill-rule="evenodd" clip-rule="evenodd" fill="#F6BF96" d="M357.11,455.801c-2.952-3.311-4.609-7.062-3.798-4.203
	c0.981,3.449,3.67,6.216,3.876,6.354c0.539-0.008,1.483,0.072,1.976-0.109C358.121,457.011,358.257,457.088,357.11,455.801z"/>
<path fill-rule="evenodd" clip-rule="evenodd" fill="#F6BF96" d="M394.216,451.726c0.37-2.012,0.805-6.372,1.074-5.202
	c0.48,2.077,0.463,4.495,0.086,6.316c-0.128,0.618-0.225,1.246-0.418,1.703c-0.746-0.024-1.006-0.35-1.413-0.57
	C393.986,453.008,393.975,453.057,394.216,451.726z"/>
<path fill-rule="evenodd" clip-rule="evenodd" fill="#F6BF96" d="M398.238,451.975c0.991-3.865,0.765-7.548,1.298-4.928
	c0.641,3.161-0.47,6.721-0.577,6.916c-0.434,0.216-1.051,0.433-1.52,0.492C397.929,453.36,397.853,453.478,398.238,451.975z"/>
<path fill="#FCEBCE" d="M326.227,387.449c0.751-6.375,4.003-32.032,30.123-33.866c28.911-2.03,33.583,22.099,42.24,33.105
	c10.41,13.235,6.175,26.085-2.183,31.667c-2.946,1.968-4.63,12.652-36.108,5.701C338.196,419.176,322.509,418.996,326.227,387.449z"
	/>
<path fill="#57301B" d="M334.967,393.944c-6.325-0.029-6.093,1.893-0.833,2.282c4.761,0.352,13.54-0.025,21.559,0.168
	c6.816,0.164,6.431-2.539,2.327-2.546C354.491,393.843,341.466,393.974,334.967,393.944z"/>
<path fill="#57301B" d="M397.333,393.651c3.823,0.179,4.419,1.731-0.875,2.145c-4.214,0.329-6.248,0.414-12.488,0.288
	c-2.707-0.055-2.973-2.237,3.584-2.298C392.495,393.741,395.006,393.542,397.333,393.651z"/>
<path fill="#57301B" d="M368.525,417.014c-2.067-3.937,6.584-6.317,13.349-6.495c9.438-0.249,10.197,1.211,10.197,3.867
	c0,2.93-5.123,7.821-11.65,7.821C374.846,422.205,370.031,419.883,368.525,417.014z"/>
<path fill="#F7CC9D" d="M346.028,364.577c0.915,4.477,2.127,7.089,5.632,7.868c3.449,0.766,6.061-2.901,7.208-4.289
	c0,0,1.582,4.988,4.794,6.197c3.426,1.29,5.816,0.258,7.194-1.928c0.836-1.325,0.746-3.705,0.746-3.705s2.691,3.2,7.046,2.313
	c2.594-0.528,2.573-2.007,1.748-3.91c-0.598-1.381-1.249-2.694-1.249-2.694s3.727,2.021,4.273,6.3
	c0.332,2.607-3.026,4.225-5.841,3.683c-1.952-0.376-4.866-2.563-4.866-2.563s-0.4,3.37-2.815,4.849
	c-2.415,1.479-5.804,1.11-7.879-0.262c-2.076-1.372-3.856-4.506-3.856-4.506s-1.379,2.725-4.518,3.947
	c-1.852,0.72-5.202,0.606-7.135-2.485C343.823,369.089,346.028,364.577,346.028,364.577z"/>
<radialGradient id="SVGID_9_" cx="337.0556" cy="418.1398" r="30.2445" gradientTransform="matrix(0.9408 0.3391 -0.1896 0.526 99.2376 83.9151)" gradientUnits="userSpaceOnUse">
	<stop  offset="0" style="stop-color:#FFDECC"/>
	<stop  offset="0.5179" style="stop-color:#F9DCC0"/>
	<stop  offset="1" style="stop-color:#FCEBCE"/>
</radialGradient>
<path fill="url(#SVGID_9_)" d="M325.688,395.125c0.002-6.42,69.548,35.326,34.611,28.931
	C337.83,419.944,325.68,418.168,325.688,395.125z"/>
<radialGradient id="SVGID_10_" cx="405.9184" cy="411.9211" r="17.9702" gradientTransform="matrix(0.3219 -0.9468 0.4118 0.14 105.6485 738.5759)" gradientUnits="userSpaceOnUse">
	<stop  offset="0" style="stop-color:#FFDECC"/>
	<stop  offset="0.5179" style="stop-color:#F9DCC0"/>
	<stop  offset="1" style="stop-color:#FCEBCE"/>
</radialGradient>
<path fill="url(#SVGID_10_)" d="M403.131,394.452c3.543,6.96,1.635,18.321-6.724,23.903
	C393.461,420.323,401.243,390.744,403.131,394.452z"/>
<g id="形状_77_17_">
	<g>
		<path fill-rule="evenodd" clip-rule="evenodd" fill="#FFBD99" d="M343.506,406.378c-3.99-0.342-7.384,1.224-7.574,3.497
			c-0.194,2.273,2.881,4.387,6.87,4.729c3.994,0.342,7.384-1.224,7.578-3.497C350.575,408.834,347.495,406.72,343.506,406.378z"/>
	</g>
</g>
<path fill-rule="evenodd" clip-rule="evenodd" fill="#FFBD99" d="M401.298,405.926c-3.514,0.301-6.226,2.163-6.055,4.165
	c0.165,1.93,2.952,3.265,6.303,3.09c1.376-2.063,2.362-4.446,2.844-7.054C403.455,405.92,402.41,405.831,401.298,405.926z"/>
<path fill="#FFFFFF" d="M246.591,143.344c0,0,1.942,8.504,9.884,11.848c8.15,3.432,18.813,2.895,29.834-1.296
	c9.353-3.556,6.195-22.128,1.503-24.15C283.121,127.723,259.176,114.521,246.591,143.344z"/>
<path fill="#FFFFFF" d="M320.389,123.083c0,0-2.603,7.425-0.365,14.573c1.167,3.728,3.37,9.149,11.083,10.347
	c14.007,2.177,11.935-6.312,11.894-8.575c-0.041-2.263-8.455-17-12.027-18.985c-3.572-1.984-9.571,1.898-9.571,1.898"/>
<path fill="#4F2914" d="M327.82,173.386c3.737,3.289,12.716,5.554,18.709,4.677c5.993-0.877,11.255-5.408,12.132-9.354
	c0.877-3.946-6.165-6.518-15.579-6.255C333.667,162.716,320.512,166.955,327.82,173.386z"/>
<path fill="#FFA083" d="M262.325,174.496c8.884-1.432,12.792-4.381,12.441-7.185s-8.203-2.804-13.389-2.453
	s-13.597,1.752-13.071,6.659C248.832,176.423,259.074,175.019,262.325,174.496z"/>
<path fill="none" d="M348.539,155.192c0.709,3.396,11.511,5.193,14.955,2.172c0,0-1.655-2.678-6.954-4.273
	c-0.832-0.251-2.131-1.19-3.218-1.576C353.323,151.515,347.838,151.835,348.539,155.192z"/>
<g id="Shape_2_21_">
	<g>
		<path fill-rule="evenodd" clip-rule="evenodd" fill="#986241" d="M273.669,157.118c-3.948,0.393-8.895,0.269-13.351-0.798
			c-4.807-1.151-7.805-2.995-9.825-5.558c-0.86-1.09,0.351,1.818,3.388,4.391c-1.231,1.005-1.846,2.552-1.662,3.444
			c0.171,0.827,1.033-0.804,2.406-1.493c0.595-0.298,1.002-0.434,1.268-0.496c0.583,0.352,1.217,0.666,1.885,0.944
			c-0.669,0.91-0.938,2.376-0.874,3.451c0.038,0.612,1.405-0.787,2.157-1.42c0.619-0.52,1.233-0.92,1.651-1.171
			C267.633,159.639,276.715,156.815,273.669,157.118z"/>
	</g>
</g>
<g id="Shape_2_19_">
	<g>
		<path fill-rule="evenodd" clip-rule="evenodd" fill="#986241" d="M343.831,144.417c-0.089-0.029-0.162-0.023-0.238-0.025
			c0.498-2.507-0.321-4.741-0.387-3.662c-0.173,2.845-0.273,5.625-3.313,6.843c-3.374,1.352-6.04,0.738-8.786,0.43
			c-2.12-0.238,5.442,2.878,9.616,0.581c0.332,0.072,0.808,0.192,1.311,0.385c0.64,0.245,1.859,0.854,1.745,0.443
			c-0.216-0.77-0.785-1.75-1.495-2.157c0.345-0.423,0.618-0.874,0.827-1.34c0.186-0.004,0.436-0.006,0.778-0.001
			c0.958,0.013,2,1.018,1.925,0.434C345.728,145.696,344.925,144.776,343.831,144.417z"/>
	</g>
</g>
<path fill="#4F2914" d="M266.235,125.605c-6.904,3.988-9.436,29.757,13.169,29.587c20.143-0.152,14.569-23.991,5.205-28.457
	C280.317,124.687,273.14,121.617,266.235,125.605z"/>
<ellipse fill="#FFFFFF" cx="265.263" cy="146.774" rx="5.872" ry="3.657"/>
<path fill="#4F2914" d="M326.99,119.879c-1.98,1.347-3.757,24.028,9.856,25.914c5.668,0.785,10.023-1.361,1.836-18.528
	C334.314,118.103,328.97,118.533,326.99,119.879z"/>
<ellipse transform="matrix(0.9785 -0.2063 0.2063 0.9785 -21.8761 70.9961)" fill="#FFFFFF" cx="329.582" cy="140.423" rx="5.158" ry="2.92"/>
<path fill="#66361F" d="M215.554,127.529c0,0,4.153,3.828,12.179,3.014c4.287-0.435,25.641-28.664,29.864-32.1
	c4.222-3.436,44.566,13.845,53.922,12.758c5.932-0.69,9.539-8.893,9.539-8.893s-31.419-41.302-76.396-17.78
	C221.103,96.849,215.554,127.529,215.554,127.529z"/>
<path fill="#A85726" d="M246.58,121.232c1.399-4.944,9.539-16.589,20.223-12.818c10.684,3.771,7.707,6.673,5.011,5.083
	c-4.315-2.544-8.703-3.84-13.134-1.691c-7.827,3.796-9.977,9.149-10.59,10.646C246.989,125.14,245.539,124.911,246.58,121.232z"/>
<path fill="#A85726" d="M320.89,108.797c2.476,1.454,4.651,5.099,9.441,4.21c3.321-0.616,3.728,1.85,1.53,1.998
	c-3.604,0.243-8.441-0.112-12.316-4.047C316.825,108.197,319.425,107.936,320.89,108.797z"/>
<path fill="#713D1F" d="M245.673,140.764c0,0-4.62-0.597-7.382-2.744c-3.433-2.669,0.764,5.52,8.663,6.8
	c0,0,7.07-17.592,22.629-18.805c13.33-1.038,20.013,5.414,20.48,6.118c2.31,3.485-4.33-11.251-21.113-9.584
	C248.28,124.603,245.673,140.764,245.673,140.764z"/>
<path fill="#713D1F" d="M322.15,122.342c-2.404,2.203-3.385,2.229-1.092-0.868c5.932-8.014,11.859-1.888,17.219,3.504
	c0,0,1.724,0.718,4.902-2.636c2.542-2.683,0.305,5.247-4.495,4.923C338.683,127.265,329.087,115.986,322.15,122.342z"/>
<path fill="#E5432E" d="M216.817,122.446c0,0,1.578-6.478,4.995-12.914c3.417-6.436,22.671-22.704,32.697-24.208
	c0,0-22.629,1.658-36.813-12.321c-9.927-9.783-17.473-26.42-18.149-37.449c-0.676-11.029,11.15-9.36,27.622-1.516
	c20.766,9.889,31.754,30.214,32.703,31.71c5.222,8.23,0.727-7.388,9.61-22.996c9.91-17.413,24.438-22.626,26.566-18.025
	c1.595,3.447,9.54,35.524-15.721,57.339c0,0,19.425,2.655,34.465,13.433c0,0,2.731,2.645,5.433,5.841
	C320.225,101.34,257.424,72.314,216.817,122.446z"/>
<path fill="#F29E66" d="M303.193,202.122c7.485-2.562,19.158-6.437,39.079-3.95c3.956,0.494,3.559,2.684-0.475,2.304
	c-1.437-0.135-20.809-1.76-38.212,4.556C299.035,206.684,298.74,203.647,303.193,202.122z"/>
</svg>
