<?xml version="1.0" encoding="utf-8"?>
<!-- Generator: Adobe Illustrator 17.0.0, SVG Export Plug-In . SVG Version: 6.00 Build 0)  -->
<!DOCTYPE svg PUBLIC "-//W3C//DTD SVG 1.1//EN" "http://www.w3.org/Graphics/SVG/1.1/DTD/svg11.dtd">
<svg version="1.1" id="图层_1" xmlns="http://www.w3.org/2000/svg" xmlns:xlink="http://www.w3.org/1999/xlink" x="0px" y="0px"
	 width="460.583px" height="599.544px" viewBox="0 0 460.583 599.544" enable-background="new 0 0 460.583 599.544"
	 xml:space="preserve">
<radialGradient id="SVGID_1_" cx="318.3174" cy="240.9995" r="253.2237" gradientUnits="userSpaceOnUse">
	<stop  offset="0" style="stop-color:#F6BB7C"/>
	<stop  offset="0.5444" style="stop-color:#F4AC64"/>
	<stop  offset="1" style="stop-color:#F3A254"/>
</radialGradient>
<path fill="url(#SVGID_1_)" d="M236.281,188.508c0,0-2.89,56.062-10.756,85.342c-6.886,25.633-4.389,46.97-21.254,88.274
	c-22.563,55.26-58.475,107.799-97.251,125.319c-21.748,9.826-32.682,16.765-85.62,22.725
	c-48.274,5.435,48.219,37.579,153.644,15.259c77.44-16.395,121.105-81.208,121.105-81.208l76.128-65.066
	c0,0-31.947-38.132-41.956-78.73c-5.699-23.115-49.748-80.032-46.515-91.744S236.281,188.508,236.281,188.508z"/>
<radialGradient id="SVGID_2_" cx="318.3174" cy="240.9995" r="253.2237" gradientUnits="userSpaceOnUse">
	<stop  offset="0" style="stop-color:#FFC07D"/>
	<stop  offset="0.5713" style="stop-color:#FEB162"/>
	<stop  offset="1" style="stop-color:#FEA852"/>
</radialGradient>
<path fill="url(#SVGID_2_)" d="M236.281,188.508c0,0-2.89,56.062-10.756,85.342c-6.886,25.633-4.389,46.97-21.254,88.274
	c-22.563,55.26-58.475,107.799-97.251,125.319c-21.748,9.826-32.682,16.765-85.62,22.725
	c-48.274,5.435,48.219,37.579,153.644,15.259c77.44-16.395,121.105-81.208,121.105-81.208l76.128-65.066
	c0,0-15.132-46.655-41.956-78.73c-18.315-21.9-47.47-80.822-44.237-92.534C289.318,196.176,236.281,188.508,236.281,188.508z"/>
<path fill="#FFBF80" d="M204.271,457.309c-15.807,32.653-39.291,42.636-67.232,53.421c-55.2,21.307-127.889,11.865-89.899,18.538
	c22.517,3.955,70.579,8.136,124.477-3.099c55.808-11.634,87.038-46.929,87.038-46.929S216.086,432.902,204.271,457.309z"/>
<path fill="#FFC07D" d="M223.811,113.574c0,0-43.03,2.661-60.958-20.945c-11.753-15.474-12.219-28.34-11.982-38.917
	c0.547-24.417,18.262-50.709,33.364-27.972c11.498,17.31,12.85,21.91,28.634,38.627c15.327,16.234,19.467,20.257,23.871,23.336
	C249.381,96.542,223.811,113.574,223.811,113.574z"/>
<path fill="#FFC07D" d="M288.031,83.535c0,0,16.534-29.176,17.291-57.215s14.399-19.703,22.356-7.957s24.25,56.836-17.051,75.403
	S288.031,83.535,288.031,83.535z"/>
<path fill="#FF9B48" d="M225.877,107.228c0,0-48.086-2.357-53.426-39.785c-3.804-26.66,12.69-17.905,20.537-6.903
	c11.243,15.764,22.891,27.696,38.047,34.896S225.877,107.228,225.877,107.228z"/>
<path fill="#FF9B48" d="M297.235,87.641c0,0,13.481-26.621,16.293-44.951c1.646-10.728,10.755-14.319,12.125,0
	c2.638,27.571-4.547,36.615-20.461,46.845S297.235,87.641,297.235,87.641z"/>
<linearGradient id="SVGID_3_" gradientUnits="userSpaceOnUse" x1="281.1795" y1="313.2484" x2="365.4261" y2="313.2484" gradientTransform="matrix(0.9981 -0.0609 0.0609 0.9981 -24.2618 44.1725)">
	<stop  offset="0" style="stop-color:#FFC28A"/>
	<stop  offset="0.7938" style="stop-color:#FFCD9F"/>
	<stop  offset="1" style="stop-color:#FFD0A5"/>
</linearGradient>
<path fill="url(#SVGID_3_)" d="M301.618,408.187c0,0-4.966-16.401-25.197-89.024c-13.054-46.862,11.523-94.896,34.294-32.965
	c11.844,32.211,36.666,37.581,48.46,75.256C370.992,399.2,348.782,436.994,301.618,408.187z"/>
<path fill="#F9974E" d="M301.335,505.26c0,0-2.131,33.42-9.003,43.88c-6.509,9.908,33.794,14.953,84.332,18.799
	c23.01,1.751,45.428,1.725,49.453,0s16.162,1.304,21.175-6.28c0,0,9.189-4.177-4.204-15.571
	c-20.081-17.083-70.811-7.964-98.495-8.612c-19.091-0.447-31.116,0.562-10.16-32.215S301.335,505.26,301.335,505.26z"/>
<path fill="#DD7528" d="M427.123,567.481c0,0,14.395-11.762-13.897-16.851c-4.495-0.809-3.176,0.03,2.313,1.542
	C420.192,553.453,433.194,557.66,427.123,567.481z"/>
<path fill="#DD7528" d="M447.353,561.503c0,0,6.692-7.465-7.921-12.807c-3.065-1.121-3.614-0.515,0.9,1.492
	C443.488,551.59,450.869,554.774,447.353,561.503z"/>
<path opacity="0.6" fill="#DD7528" d="M262.573,415.111c64.777-12,59.867-4.815,131.224-11.615
	c25.01-2.383,17.114,11.421,17.114,11.421C404.242,420.017,283.65,441.103,262.573,415.111z"/>
<radialGradient id="SVGID_4_" cx="332.3429" cy="387.166" r="31.0981" gradientUnits="userSpaceOnUse">
	<stop  offset="0" style="stop-color:#FFDECC"/>
	<stop  offset="0.5179" style="stop-color:#F9DCC0"/>
	<stop  offset="1" style="stop-color:#FCEBCE"/>
</radialGradient>
<path fill="url(#SVGID_4_)" d="M309.545,438.334c0,0-0.85-15.043,2.314-28.249c3.164-13.206,13.43-16.666,14.38-25.062
	c0.949-8.396,45.929,33.059,45.929,33.059l-2.962,29.746L309.545,438.334z"/>
<path fill="#FFBF80" d="M262.573,403.495c85.643,24.221,149.169,4.692,149.169,4.692c3.92,13.109,7.091,34.626-9.398,64.299
	c-18.543,33.37-57.403,57.481-160.755,37.383C171.721,496.282,262.573,403.495,262.573,403.495z"/>
<path opacity="0.4" fill="#DD7528" d="M320.636,414.337c0,0,6.867,40.595,28.95,45.004c10.008,1.998,9.448-4.493,7.707-7.373
	c-1.741-2.88-9.169-25.127-10.195-26.481c-1.025-1.354,9.007,2.224,13.083,2.66c4.076,0.436,20.906,4.594,28.258,0
	c0,0,0.774,1.983-0.774,5.272c-1.548,3.289-4.836,14.766-0.387,18.893s8.034,1.73,9.358-1.776c1.324-3.506,5.875-35.859,0-39.643
	S335.375,417.582,320.636,414.337z"/>
<path opacity="0.6" fill="#DD7528" d="M282.222,211.589c-0.07,0.487-35.068-6.621-42.035-16.521s10.983,27.733,49.86,32
	c0,0-3.605-10.317-3.968-14.41"/>
<radialGradient id="SVGID_5_" cx="373.9642" cy="603.3307" r="102.5876" gradientUnits="userSpaceOnUse">
	<stop  offset="0" style="stop-color:#FFC07D"/>
	<stop  offset="0.5713" style="stop-color:#FEB162"/>
	<stop  offset="1" style="stop-color:#FEA852"/>
</radialGradient>
<path fill="url(#SVGID_5_)" d="M224.654,362.125c-22.617,10.616-37.758,25.491-39.72,60.216
	c-2.483,43.957,10.052,51.372,10.606,71.287c0.916,32.934-11.779,48.201-17.704,60.946c-1.737,3.736-9.621,15.959,12.418,20.519
	s112.219,18.108,131.991,9.76c0,0,19.973,4.14,29.64-3.769c0,0,12.841,0.227,10.645-12.515
	c-2.197-12.742-30.757-18.894-83.044-19.772c-52.287-0.879-75.135,7.47-58.438-11.424c16.697-18.894,61.035-24.055,72.931-79.529
	C308.902,388.246,247.271,351.509,224.654,362.125z"/>
<radialGradient id="SVGID_6_" cx="238.2558" cy="250.2042" r="168.4992" gradientUnits="userSpaceOnUse">
	<stop  offset="0" style="stop-color:#FFC07D"/>
	<stop  offset="0.5713" style="stop-color:#FEB162"/>
	<stop  offset="1" style="stop-color:#FEA852"/>
</radialGradient>
<path fill="url(#SVGID_6_)" d="M224.654,362.125c-22.617,10.616-31.436,20.871-36.215,51.92
	c-6.805,44.207,10.812,64.019,15.832,85.604c7.564,32.519,0.08,56.617,16.776,37.724c16.697-18.894,61.035-24.055,72.931-79.529
	C308.902,388.246,247.271,351.509,224.654,362.125z"/>
<path fill="#DD7528" d="M322.172,584.757c0,0,1.811-6.162-4.419-12.46c-3.079-3.112-7.684-5.505-12.517-6.476
	c-3.407-0.685-7.232-1.148-8.777-1.518c-5.352-1.282,17.709-3.045,25.53,8.727C326.818,580.299,322.172,584.757,322.172,584.757z"/>
<path fill="#DD7528" d="M351.817,580.854c0,0,3.225-3.724-0.939-9.144c-1.901-2.475-5.96-4.913-9.135-6.419
	c-2.782-1.319-3.478-1.077-5.914-2.159c-3.585-1.593,12.768-0.158,17.713,8.621C356.595,577.173,351.817,580.854,351.817,580.854z"
	/>
<radialGradient id="SVGID_7_" cx="325.6148" cy="178.5939" r="63.4704" gradientUnits="userSpaceOnUse">
	<stop  offset="0" style="stop-color:#FECD97"/>
	<stop  offset="1" style="stop-color:#FFC07A"/>
</radialGradient>
<path fill="url(#SVGID_7_)" d="M243.678,82.781c20.178-11.771,52.964-15.113,85.32,27.643c16.945,22.392,8.684,33.507,28.415,40.917
	c22.592,8.484,0.965,70.442-69.382,62.769c-69.168-7.545-79.976-54.001-73.281-88.886
	C218.384,106.293,229.154,91.254,243.678,82.781z"/>
<path fill="#FFCE99" d="M244.87,138.46c0,0-0.431-14.78,14.802-18.879c15.232-4.098,25.654,5.314,27.621,7.781
	c1.967,2.467-41.505,13.677-41.505,13.677"/>
<path fill="#FFCE99" d="M319.027,121.317c0,0,5.766-17.955,18.051,1.37C342.328,130.946,319.027,121.317,319.027,121.317z"/>
<radialGradient id="SVGID_8_" cx="356.2741" cy="315.2937" r="52.3827" gradientUnits="userSpaceOnUse">
	<stop  offset="0" style="stop-color:#FFC07D"/>
	<stop  offset="0.5713" style="stop-color:#FEB162"/>
	<stop  offset="1" style="stop-color:#FEA852"/>
</radialGradient>
<path fill="url(#SVGID_8_)" d="M289.756,226.762c0,0,11.28,39.394,15.853,49.455c4.573,10.061,16.418,41.21,17.538,43.344
	c1.12,2.134,7.73,9.704,18.266,8.789c10.536-0.915,27.609-0.61,11.146-53.657c0,0-11.81-32.141-4.885-59.364
	c2.177-8.559,7.885-17.673,0-17.673c-5.689,0-9.616,8.893-8.832,13.853c0,0-8.871-9.134-22.221-3.15
	c-5.822,2.609-8.321,9.062-5.071,10.742c-6.449,7.921-1.613,16.692,3.096,15.937c2.654-0.425,4.113,10.376,14.134,10.747
	c0,0,0.834,24.393,3.504,38.014c2.648,13.511-18.537-20.758-23.493-28.975C300.046,240.328,291.592,228.509,289.756,226.762z"/>
<g id="形状_14_8_">
	<g>
		<path fill="#DD7528" d="M318.341,214.785c-1.256,0.034-3.66,1.117-5.407,2.242c-0.601,0.386-0.912,0.845-0.912,0.845
			s1.296-0.871,2.963-1.323c0.812-0.218,2.473-0.664,3.198-0.636C319.227,215.952,319.328,214.753,318.341,214.785z"/>
	</g>
</g>
<path fill="#FF9B48" d="M261.523,250.011c6.701-22.943-19.565-47.354-32.636-6.854c-8.362,25.909-18.563,48.299-18.521,65.141
	c0.053,21.388,2.683,34.03,37.011,37.911c27.531,3.112,56.398-5.382,64.873-3.908c8.475,1.474,34.63,11.423,37.383-4.053
	c0,0,10.866-8.173,4.97-14.069c-3.861,1.98-13.663,3.895-25.398-2.454c0,0,5.68-7.429,1.533-15.536s-9.525-2.501-9.357,2.948
	s-9.411,14.652-11.991,15.389c0,0-65.782,2.263-67.801-9.401C238.715,298.521,253.173,278.598,261.523,250.011z"/>
<g id="形状_14_7_">
	<g>
		<path fill="#D3722B" d="M346.103,338.715c-0.84,0.016-2.56,0.048-3.257-0.153c-1.003-0.289-1.391,0.849-0.426,1.057
			c1.227,0.27,3.821-0.201,5.788-0.873c0.676-0.229,1.089-0.6,1.089-0.6S347.83,338.678,346.103,338.715z"/>
	</g>
</g>
<path fill="#FCEBCE" d="M344.034,358.887c0.894,1.824-6.9-31.154-44.143-22.072c-7.357,1.794-2.23,39.167,36.966,34.22
	C376.053,366.088,344.034,358.887,344.034,358.887z"/>
<path fill="#FCEBCE" d="M366.66,357.276c0.393-1.425,14.611-22.617,36.739-18.666c9.133,1.631-2.009,34.738-23.451,32.406
	C363.833,369.264,366.66,357.276,366.66,357.276z"/>
<path fill="#FFBD99" d="M336.651,360.605c0.894,1.824-0.774-18.66-25.338-12.669c-4.223,1.03-1.28,22.482,21.219,19.642
	C355.03,364.739,336.651,360.605,336.651,360.605z"/>
<path fill="#FFBD99" d="M378.662,359.105c0,0,3.674-13.325,20.362-10.345c5.062,0.904-1.113,19.253-12.997,17.96
	C377.095,365.749,378.662,359.105,378.662,359.105z"/>
<path fill="#FCEBCE" d="M325.205,391.292c0,0,0.116,21.727,6.273,36.543c6.158,14.816,17.802,31.408,29.52,27.142
	c11.718-4.267-10.523-19.047-14.098-37.256S325.205,391.292,325.205,391.292z"/>
<path fill="#FCEBCE" d="M392.093,410.547c0,0,1.936,13.253,0,19.815s-5.2,24.102,4.728,21.732c9.928-2.37,9.861-41.25,6.395-48.828
	S392.093,410.547,392.093,410.547"/>
<path fill-rule="evenodd" clip-rule="evenodd" fill="#F6BF96" d="M360.221,451.393c-1.392-1.798-4.047-5.881-3.716-4.588
	c0.587,2.296,2.308,5.079,3.972,7.144c0.441,0.546,0.45,0.605,0.874,0.957c0.725-0.405,1.212-0.551,1.502-0.976
	C361.926,453.202,361.139,452.585,360.221,451.393z"/>
<path fill-rule="evenodd" clip-rule="evenodd" fill="#F6BF96" d="M356.306,453.497c-2.952-3.311-4.609-7.062-3.798-4.203
	c0.981,3.448,3.67,6.216,3.876,6.354c0.539-0.008,1.483,0.072,1.976-0.109C357.318,454.706,357.453,454.784,356.306,453.497z"/>
<path fill-rule="evenodd" clip-rule="evenodd" fill="#F6BF96" d="M393.413,449.421c0.37-2.012,0.805-6.372,1.074-5.202
	c0.48,2.077,0.463,4.495,0.086,6.316c-0.128,0.618-0.225,1.246-0.418,1.703c-0.746-0.024-1.006-0.35-1.413-0.57
	C393.182,450.703,393.172,450.752,393.413,449.421z"/>
<path fill-rule="evenodd" clip-rule="evenodd" fill="#F6BF96" d="M397.435,449.671c0.991-3.865,0.765-7.548,1.298-4.928
	c0.641,3.161-0.47,6.721-0.577,6.916c-0.434,0.216-1.051,0.433-1.52,0.492C397.126,451.056,397.05,451.173,397.435,449.671z"/>
<path fill="#FCEBCE" d="M325.423,385.145c0.751-6.375,4.003-32.032,30.123-33.866c28.911-2.03,33.583,22.099,42.24,33.105
	c10.41,13.235,6.175,26.085-2.183,31.667c-2.946,1.968-4.63,12.652-36.108,5.701C337.393,416.871,321.705,416.691,325.423,385.145z"
	/>
<path fill="#57301B" d="M334.164,391.64c-6.325-0.029-6.093,1.893-0.833,2.282c4.761,0.352,13.541-0.025,21.559,0.168
	c6.816,0.164,6.431-2.539,2.327-2.546C353.688,391.538,340.663,391.669,334.164,391.64z"/>
<path fill="#57301B" d="M396.53,391.346c3.823,0.179,4.419,1.731-0.875,2.145c-4.214,0.329-6.248,0.414-12.488,0.288
	c-2.707-0.055-2.973-2.237,3.584-2.298C391.692,391.436,394.203,391.238,396.53,391.346z"/>
<path fill="#57301B" d="M367.722,414.709c-2.067-3.937,6.584-6.317,13.349-6.495c9.438-0.249,10.197,1.211,10.197,3.867
	c0,2.93-5.123,7.821-11.65,7.82C374.043,419.901,369.228,417.578,367.722,414.709z"/>
<path fill="#F7CC9D" d="M345.225,362.273c0.915,4.477,2.127,7.089,5.632,7.868c3.449,0.766,6.061-2.901,7.208-4.289
	c0,0,1.582,4.988,4.794,6.197c3.426,1.29,5.816,0.258,7.194-1.928c0.836-1.325,0.746-3.705,0.746-3.705s2.691,3.2,7.046,2.313
	c2.594-0.528,2.573-2.007,1.748-3.91c-0.598-1.381-1.249-2.694-1.249-2.694s3.727,2.021,4.273,6.3
	c0.332,2.607-3.026,4.225-5.841,3.683c-1.952-0.376-4.866-2.563-4.866-2.563s-0.4,3.37-2.815,4.849
	c-2.415,1.479-5.804,1.11-7.879-0.262c-2.076-1.372-3.856-4.506-3.856-4.506s-1.378,2.725-4.518,3.947
	c-1.852,0.72-5.202,0.606-7.135-2.485C343.019,366.785,345.225,362.273,345.225,362.273z"/>
<radialGradient id="SVGID_9_" cx="336.2524" cy="415.8354" r="30.2445" gradientTransform="matrix(0.9408 0.3391 -0.1896 0.526 98.7532 83.0952)" gradientUnits="userSpaceOnUse">
	<stop  offset="0" style="stop-color:#FFDECC"/>
	<stop  offset="0.5179" style="stop-color:#F9DCC0"/>
	<stop  offset="1" style="stop-color:#FCEBCE"/>
</radialGradient>
<path fill="url(#SVGID_9_)" d="M324.884,392.821c0.002-6.42,69.548,35.326,34.611,28.931
	C337.027,417.639,324.877,415.863,324.884,392.821z"/>
<radialGradient id="SVGID_10_" cx="405.1152" cy="409.6167" r="17.9702" gradientTransform="matrix(0.3219 -0.9468 0.4118 0.14 106.0527 735.8336)" gradientUnits="userSpaceOnUse">
	<stop  offset="0" style="stop-color:#FFDECC"/>
	<stop  offset="0.5179" style="stop-color:#F9DCC0"/>
	<stop  offset="1" style="stop-color:#FCEBCE"/>
</radialGradient>
<path fill="url(#SVGID_10_)" d="M402.328,392.147c3.543,6.96,1.635,18.321-6.724,23.903
	C392.657,418.019,400.44,388.44,402.328,392.147z"/>
<g id="形状_77_17_">
	<g>
		<path fill-rule="evenodd" clip-rule="evenodd" fill="#FFBD99" d="M342.703,404.074c-3.99-0.342-7.384,1.224-7.574,3.497
			c-0.194,2.273,2.881,4.387,6.87,4.729c3.994,0.342,7.384-1.224,7.578-3.497C349.771,406.53,346.692,404.416,342.703,404.074z"/>
	</g>
</g>
<path fill-rule="evenodd" clip-rule="evenodd" fill="#FFBD99" d="M400.495,403.622c-3.514,0.301-6.226,2.163-6.055,4.165
	c0.165,1.93,2.951,3.265,6.303,3.09c1.376-2.063,2.362-4.446,2.844-7.054C402.652,403.615,401.607,403.526,400.495,403.622z"/>
<path fill="#FFFFFF" d="M245.788,141.039c0,0,1.942,8.504,9.884,11.848c8.15,3.432,18.813,2.895,29.834-1.296
	c9.353-3.556,6.195-22.128,1.503-24.15S258.373,112.217,245.788,141.039z"/>
<path fill="#FFFFFF" d="M319.586,120.778c0,0-2.603,7.425-0.365,14.573c1.167,3.728,3.37,9.149,11.083,10.347
	c14.007,2.177,11.935-6.312,11.894-8.575c-0.041-2.263-8.455-17-12.027-18.985c-3.572-1.984-9.571,1.898-9.571,1.898"/>
<path fill="#4F2914" d="M327.017,171.082c3.737,3.289,12.716,5.554,18.709,4.677c5.993-0.877,11.255-5.408,12.132-9.354
	c0.877-3.946-6.165-6.518-15.579-6.255C332.864,160.412,319.709,164.65,327.017,171.082z"/>
<path fill="#FFA083" d="M261.522,172.191c8.884-1.432,12.792-4.381,12.441-7.185s-8.203-2.804-13.389-2.453
	s-13.597,1.752-13.071,6.659C248.029,174.119,258.271,172.715,261.522,172.191z"/>
<path fill="none" d="M347.736,152.888c0.709,3.396,11.511,5.193,14.955,2.172c0,0-1.655-2.678-6.954-4.273
	c-0.832-0.251-2.131-1.191-3.218-1.576C352.519,149.21,347.035,149.53,347.736,152.888z"/>
<g id="Shape_2_21_">
	<g>
		<path fill-rule="evenodd" clip-rule="evenodd" fill="#986241" d="M272.866,154.813c-3.948,0.393-8.895,0.269-13.351-0.798
			c-4.807-1.151-7.805-2.995-9.825-5.558c-0.86-1.09,0.351,1.818,3.388,4.391c-1.231,1.005-1.846,2.552-1.662,3.444
			c0.171,0.827,1.033-0.804,2.406-1.493c0.595-0.298,1.002-0.434,1.268-0.496c0.583,0.352,1.217,0.666,1.885,0.944
			c-0.669,0.91-0.938,2.376-0.874,3.451c0.038,0.612,1.405-0.787,2.157-1.42c0.619-0.52,1.233-0.92,1.651-1.171
			C266.829,157.335,275.911,154.51,272.866,154.813z"/>
	</g>
</g>
<g id="Shape_2_19_">
	<g>
		<path fill-rule="evenodd" clip-rule="evenodd" fill="#986241" d="M343.028,142.113c-0.089-0.029-0.162-0.023-0.238-0.025
			c0.498-2.507-0.321-4.741-0.387-3.662c-0.173,2.845-0.273,5.625-3.313,6.843c-3.374,1.352-6.04,0.738-8.786,0.43
			c-2.12-0.238,5.442,2.878,9.616,0.581c0.332,0.072,0.808,0.192,1.311,0.385c0.64,0.245,1.859,0.854,1.745,0.443
			c-0.216-0.77-0.785-1.75-1.495-2.157c0.345-0.423,0.618-0.874,0.827-1.34c0.186-0.004,0.436-0.006,0.778-0.001
			c0.958,0.013,2,1.018,1.925,0.434C344.925,143.392,344.122,142.471,343.028,142.113z"/>
	</g>
</g>
<path fill="#4F2914" d="M265.432,123.3c-6.904,3.988-9.436,29.757,13.169,29.587c20.143-0.152,14.569-23.991,5.205-28.457
	C279.514,122.383,272.336,119.313,265.432,123.3z"/>
<ellipse fill="#FFFFFF" cx="264.46" cy="144.469" rx="5.872" ry="3.657"/>
<path fill="#4F2914" d="M326.187,117.575c-1.98,1.347-3.757,24.028,9.856,25.914c5.668,0.785,10.023-1.361,1.836-18.528
	C333.511,115.799,328.166,116.228,326.187,117.575z"/>
<ellipse transform="matrix(0.9785 -0.2063 0.2063 0.9785 -21.4181 70.7808)" fill="#FFFFFF" cx="328.779" cy="138.119" rx="5.158" ry="2.92"/>
<path fill="#66361F" d="M214.751,125.224c0,0,4.153,3.828,12.179,3.014c4.287-0.435,25.641-28.664,29.864-32.1
	c4.223-3.436,44.566,13.845,53.922,12.758c5.932-0.69,9.539-8.893,9.539-8.893s-31.419-41.302-76.396-17.78
	C220.3,94.544,214.751,125.224,214.751,125.224z"/>
<path fill="#A85726" d="M245.777,118.928c1.399-4.944,9.539-16.589,20.223-12.818c10.684,3.771,7.707,6.673,5.011,5.083
	c-4.315-2.544-8.703-3.84-13.134-1.691c-7.827,3.796-9.977,9.149-10.59,10.646C246.186,122.836,244.736,122.606,245.777,118.928z"/>
<path fill="#A85726" d="M320.087,106.492c2.476,1.454,4.651,5.099,9.441,4.21c3.321-0.616,3.728,1.85,1.53,1.998
	c-3.604,0.243-8.441-0.112-12.316-4.047C316.022,105.892,318.622,105.632,320.087,106.492z"/>
<path fill="#713D1F" d="M244.87,138.46c0,0-4.62-0.597-7.382-2.744c-3.433-2.669,0.764,5.52,8.663,6.8
	c0,0,7.07-17.592,22.629-18.805c13.33-1.038,20.013,5.414,20.48,6.118c2.31,3.485-4.33-11.251-21.113-9.584
	C247.477,122.299,244.87,138.46,244.87,138.46z"/>
<path fill="#713D1F" d="M321.346,120.038c-2.404,2.203-3.385,2.229-1.092-0.868c5.932-8.014,11.859-1.888,17.219,3.504
	c0,0,1.724,0.718,4.901-2.636c2.542-2.683,0.305,5.247-4.495,4.923C337.88,124.961,328.284,113.682,321.346,120.038z"/>
<path fill="#D74430" d="M216.014,120.142c0,0,1.578-6.478,4.995-12.914c3.417-6.436,22.671-22.704,32.697-24.208
	c0,0-22.629,1.658-36.813-12.321c-9.927-9.783-17.473-26.42-18.149-37.449c-0.676-11.029,11.15-9.36,27.622-1.516
	c20.766,9.889,31.754,30.214,32.703,31.71c5.222,8.23,0.727-7.388,9.61-22.996c9.91-17.413,24.438-22.626,26.566-18.025
	c1.595,3.447,9.54,35.524-15.721,57.339c0,0,19.425,2.655,34.465,13.433c0,0,2.731,2.645,5.433,5.841
	C319.422,99.035,256.621,70.01,216.014,120.142z"/>
<path fill="#F29E66" d="M302.39,199.818c7.485-2.562,19.158-6.437,39.079-3.95c3.956,0.494,3.559,2.684-0.475,2.304
	c-1.437-0.135-20.809-1.76-38.212,4.556C298.232,204.38,297.936,201.342,302.39,199.818z"/>
</svg>
