<?xml version="1.0" encoding="utf-8"?>
<!-- Generator: Adobe Illustrator 17.0.0, SVG Export Plug-In . SVG Version: 6.00 Build 0)  -->
<!DOCTYPE svg PUBLIC "-//W3C//DTD SVG 1.1//EN" "http://www.w3.org/Graphics/SVG/1.1/DTD/svg11.dtd">
<svg version="1.1" id="图层_1" xmlns="http://www.w3.org/2000/svg" xmlns:xlink="http://www.w3.org/1999/xlink" x="0px" y="0px"
	 width="452px" height="755.62px" viewBox="0 0 452 755.62" enable-background="new 0 0 452 755.62" xml:space="preserve">
<g id="图层_1_1_" display="none">
	
		<radialGradient id="SVGID_1_" cx="313.6447" cy="225.3802" r="218.0803" gradientTransform="matrix(1 0 0 -1 0.42 672.0261)" gradientUnits="userSpaceOnUse">
		<stop  offset="0" style="stop-color:#F6BB7C"/>
		<stop  offset="0.5444" style="stop-color:#F4AC64"/>
		<stop  offset="1" style="stop-color:#F3A254"/>
	</radialGradient>
	<path display="inline" fill="url(#SVGID_1_)" d="M243.413,401.439c0,0-2.489,48.282-9.263,73.498
		c-5.931,22.076-3.78,40.451-18.304,76.023c-19.431,47.59-50.359,92.839-83.754,107.927c-18.73,8.462-28.146,14.439-73.737,19.571
		c-41.574,4.68,41.527,32.364,132.32,13.141c66.693-14.12,104.298-69.938,104.298-69.938l65.562-56.036
		c0,0-27.513-32.84-36.133-67.804c-4.908-19.907-42.844-68.925-40.059-79.011S243.413,401.439,243.413,401.439z"/>
	
		<radialGradient id="SVGID_2_" cx="313.6447" cy="225.3802" r="218.0803" gradientTransform="matrix(1 0 0 -1 0.42 672.0261)" gradientUnits="userSpaceOnUse">
		<stop  offset="0" style="stop-color:#FFC07D"/>
		<stop  offset="0.5713" style="stop-color:#FEB162"/>
		<stop  offset="1" style="stop-color:#FEA852"/>
	</radialGradient>
	<path display="inline" fill="url(#SVGID_2_)" d="M243.413,401.439c0,0-2.489,48.282-9.263,73.498
		c-5.931,22.076-3.78,40.451-18.304,76.023c-19.431,47.59-50.359,92.839-83.754,107.927c-18.73,8.462-28.146,14.439-73.737,19.571
		c-41.574,4.68,41.527,32.364,132.32,13.141c66.693-14.12,104.298-69.938,104.298-69.938l65.562-56.036
		c0,0-13.032-40.18-36.133-67.804c-15.773-18.861-40.882-69.605-38.097-79.692S243.413,401.439,243.413,401.439z"/>
	<path display="inline" fill="#FFBF80" d="M215.846,632.935c-13.613,28.121-33.838,36.719-57.902,46.007
		c-47.539,18.35-110.14,10.219-77.422,15.966c19.392,3.406,60.783,7.007,107.201-2.669c48.063-10.019,74.958-40.416,74.958-40.416
		S226.022,611.915,215.846,632.935z"/>
	<path display="inline" fill="#FFC07D" d="M232.675,336.905c0,0-37.058,2.292-52.498-18.038
		c-10.122-13.327-10.523-24.407-10.319-33.516c0.471-21.028,15.727-43.671,28.734-24.09c9.902,14.907,11.067,18.869,24.66,33.266
		c13.2,13.981,16.765,17.445,20.558,20.097C254.695,322.237,232.675,336.905,232.675,336.905z"/>
	<path display="inline" fill="#FFC07D" d="M287.982,311.035c0,0,14.239-25.127,14.892-49.275s12.4-16.969,19.253-6.853
		s20.885,48.948-14.685,64.938C271.873,335.836,287.982,311.035,287.982,311.035z"/>
	<path display="inline" fill="#FF9B48" d="M234.454,331.439c0,0-41.412-2.03-46.011-34.264c-3.276-22.96,10.929-15.42,17.687-5.945
		c9.683,13.576,19.714,23.853,32.767,30.053C251.949,327.484,234.454,331.439,234.454,331.439z"/>
	<path display="inline" fill="#FF9B48" d="M295.908,314.571c0,0,11.61-22.927,14.032-38.712c1.417-9.239,9.263-12.332,10.442,0
		c2.272,23.745-3.916,31.533-17.621,40.344S295.908,314.571,295.908,314.571z"/>
	
		<linearGradient id="SVGID_3_" gradientUnits="userSpaceOnUse" x1="256.8536" y1="158.6358" x2="329.413" y2="158.6358" gradientTransform="matrix(0.9981 -0.0609 -0.0609 -0.9981 30.4645 705.6339)">
		<stop  offset="0" style="stop-color:#FFC28A"/>
		<stop  offset="0.7938" style="stop-color:#FFCD9F"/>
		<stop  offset="1" style="stop-color:#FFD0A5"/>
	</linearGradient>
	<path display="inline" fill="url(#SVGID_3_)" d="M299.683,590.63c0,0-4.277-14.124-21.7-76.669
		c-11.242-40.358,9.924-81.726,29.535-28.39c10.2,27.741,31.578,32.365,41.735,64.811C359.429,582.89,340.301,615.44,299.683,590.63
		z"/>
	<path display="inline" fill="#F9974E" d="M299.439,674.231c0,0-1.835,28.782-7.753,37.79c-5.606,8.533,29.104,12.877,72.628,16.19
		c19.817,1.508,39.123,1.486,42.59,0c3.467-1.486,13.919,1.123,18.236-5.409c0,0,7.914-3.597-3.621-13.41
		c-17.294-14.712-60.984-6.859-84.826-7.417c-16.442-0.385-26.797,0.484-8.75-27.744S299.439,674.231,299.439,674.231z"/>
	<path display="inline" fill="#DD7528" d="M407.77,727.817c0,0,12.397-10.129-11.968-14.513c-3.871-0.696-2.735,0.026,1.992,1.328
		C401.801,715.736,412.998,719.359,407.77,727.817z"/>
	<path display="inline" fill="#DD7528" d="M425.193,722.668c0,0,5.763-6.429-6.822-11.03c-2.64-0.965-3.112-0.444,0.775,1.285
		C421.864,714.132,428.22,716.873,425.193,722.668z"/>
	<path display="inline" opacity="0.6" fill="#DD7528" enable-background="new    " d="M266.056,596.593
		c55.787-10.335,51.559-4.147,113.012-10.003c21.539-2.053,14.739,9.836,14.739,9.836
		C388.065,600.819,284.208,618.979,266.056,596.593z"/>
	
		<radialGradient id="SVGID_4_" cx="325.7237" cy="99.4993" r="26.7822" gradientTransform="matrix(1 0 0 -1 0.42 672.0261)" gradientUnits="userSpaceOnUse">
		<stop  offset="0" style="stop-color:#FFDECC"/>
		<stop  offset="0.5179" style="stop-color:#F9DCC0"/>
		<stop  offset="1" style="stop-color:#FCEBCE"/>
	</radialGradient>
	<path display="inline" fill="url(#SVGID_4_)" d="M306.51,616.593c0,0-0.732-12.955,1.993-24.328s11.566-14.353,12.384-21.584
		s39.555,28.471,39.555,28.471l-2.551,25.618L306.51,616.593z"/>
	<path display="inline" fill="#FFBF80" d="M266.056,586.59c73.757,20.86,128.467,4.041,128.467,4.041
		c3.376,11.29,6.107,29.82-8.094,55.376c-15.97,28.739-49.436,49.504-138.445,32.194C187.814,666.499,266.056,586.59,266.056,586.59
		z"/>
	<path display="inline" opacity="0.4" fill="#DD7528" enable-background="new    " d="M316.061,595.927
		c0,0,5.914,34.961,24.932,38.758c8.619,1.721,8.137-3.869,6.638-6.35c-1.499-2.48-7.897-21.64-8.78-22.806
		c-0.883-1.166,7.757,1.915,11.267,2.291c3.51,0.375,18.005,3.957,24.336,0c0,0,0.666,1.708-0.666,4.54
		c-1.333,2.832-4.165,12.717-0.333,16.271c3.832,3.555,6.919,1.49,8.059-1.53c1.14-3.02,5.06-30.882,0-34.141
		C376.454,589.701,328.755,598.722,316.061,595.927z"/>
	<path display="inline" opacity="0.6" fill="#DD7528" enable-background="new    " d="M282.979,421.317
		c-0.06,0.419-30.201-5.702-36.201-14.228s9.459,23.884,42.941,27.559c0,0-3.104-8.886-3.417-12.41"/>
	
		<radialGradient id="SVGID_5_" cx="361.5686" cy="-86.6652" r="88.3501" gradientTransform="matrix(1 0 0 -1 0.42 672.0261)" gradientUnits="userSpaceOnUse">
		<stop  offset="0" style="stop-color:#FFC07D"/>
		<stop  offset="0.5713" style="stop-color:#FEB162"/>
		<stop  offset="1" style="stop-color:#FEA852"/>
	</radialGradient>
	<path display="inline" fill="url(#SVGID_5_)" d="M233.4,550.961c-19.478,9.143-32.518,21.953-34.207,51.859
		c-2.138,37.857,8.657,44.242,9.134,61.393c0.789,28.363-10.144,41.512-15.247,52.488c-1.496,3.218-8.286,13.744,10.694,17.671
		s96.645,15.595,113.673,8.405c0,0,17.201,3.566,25.526-3.246c0,0,11.059,0.196,9.167-10.778s-26.488-16.271-71.519-17.028
		c-45.03-0.757-64.707,6.433-50.328-9.839c14.379-16.271,52.564-20.717,62.809-68.491
		C305.956,573.457,252.878,541.818,233.4,550.961z"/>
	
		<radialGradient id="SVGID_6_" cx="244.6943" cy="217.4531" r="145.1142" gradientTransform="matrix(1 0 0 -1 0.42 672.0261)" gradientUnits="userSpaceOnUse">
		<stop  offset="0" style="stop-color:#FFC07D"/>
		<stop  offset="0.5713" style="stop-color:#FEB162"/>
		<stop  offset="1" style="stop-color:#FEA852"/>
	</radialGradient>
	<path display="inline" fill="url(#SVGID_6_)" d="M233.4,550.961c-19.478,9.143-27.073,17.975-31.189,44.714
		c-5.861,38.072,9.311,55.135,13.635,73.723c6.515,28.006,0.069,48.76,14.448,32.488c14.379-16.271,52.564-20.717,62.809-68.491
		C305.956,573.457,252.878,541.818,233.4,550.961z"/>
	<path display="inline" fill="#DD7528" d="M317.385,742.695c0,0,1.56-5.307-3.805-10.731c-2.651-2.68-6.618-4.741-10.78-5.578
		c-2.934-0.59-6.229-0.989-7.559-1.307c-4.609-1.104,15.251-2.623,21.987,7.516C321.386,738.856,317.385,742.695,317.385,742.695z"
		/>
	<path display="inline" fill="#DD7528" d="M342.915,739.334c0,0,2.778-3.207-0.808-7.875c-1.637-2.131-5.133-4.231-7.867-5.528
		c-2.396-1.136-2.995-0.927-5.093-1.86c-3.088-1.372,10.996-0.136,15.255,7.425C347.03,736.164,342.915,739.334,342.915,739.334z"/>
	
		<radialGradient id="SVGID_7_" cx="319.9294" cy="279.125" r="54.6617" gradientTransform="matrix(1 0 0 -1 0.42 672.0261)" gradientUnits="userSpaceOnUse">
		<stop  offset="0" style="stop-color:#FECD97"/>
		<stop  offset="1" style="stop-color:#FFC07A"/>
	</radialGradient>
	<path display="inline" fill="url(#SVGID_7_)" d="M249.784,310.386c17.378-10.137,45.613-13.016,73.479,23.807
		c14.593,19.284,7.479,28.857,24.472,35.238c19.456,7.306,0.831,60.666-59.753,54.057c-59.568-6.498-68.876-46.506-63.111-76.55
		C228.001,330.634,237.276,317.682,249.784,310.386z"/>
	<path display="inline" fill="#FFCE99" d="M250.811,358.337c0,0-0.371-12.729,12.747-16.259s22.094,4.577,23.788,6.701
		c1.694,2.125-35.745,11.778-35.745,11.778"/>
	<path display="inline" fill="#FFCE99" d="M314.675,343.574c0,0,4.966-15.463,15.546,1.179
		C334.743,351.866,314.675,343.574,314.675,343.574z"/>
	
		<radialGradient id="SVGID_8_" cx="346.3337" cy="161.397" r="45.1128" gradientTransform="matrix(1 0 0 -1 0.42 672.0261)" gradientUnits="userSpaceOnUse">
		<stop  offset="0" style="stop-color:#FFC07D"/>
		<stop  offset="0.5713" style="stop-color:#FEB162"/>
		<stop  offset="1" style="stop-color:#FEA852"/>
	</radialGradient>
	<path display="inline" fill="url(#SVGID_8_)" d="M289.467,434.384c0,0,9.715,33.927,13.653,42.591s14.139,35.49,15.104,37.328
		c0.965,1.838,6.657,8.357,15.731,7.569c9.074-0.788,23.777-0.525,9.599-46.21c0,0-10.171-27.68-4.207-51.125
		c1.875-7.371,6.791-15.22,0-15.22c-4.9,0-8.281,7.659-7.607,11.93c0,0-7.64-7.866-19.137-2.713
		c-5.014,2.247-7.166,7.804-4.368,9.251c-5.554,6.822-1.39,14.375,2.666,13.725c2.285-0.366,3.543,8.936,12.173,9.255
		c0,0,0.718,21.007,3.018,32.738c2.281,11.636-15.964-17.877-20.233-24.954C298.329,446.068,291.048,435.888,289.467,434.384z"/>
	<g id="形状_14_8_" display="inline">
		<g>
			<path fill="#DD7528" d="M314.085,424.069c-1.082,0.029-3.152,0.962-4.657,1.931c-0.517,0.332-0.786,0.728-0.786,0.728
				s1.117-0.75,2.552-1.139c0.699-0.188,2.13-0.572,2.754-0.548C314.848,425.074,314.935,424.042,314.085,424.069z"/>
		</g>
	</g>
	<path display="inline" fill="#FF9B48" d="M265.152,454.407c5.771-19.759-16.85-40.782-28.107-5.903
		c-7.201,22.313-15.987,41.595-15.951,56.101c0.046,18.419,2.311,29.307,31.874,32.649c23.71,2.68,48.57-4.635,55.87-3.365
		c7.299,1.269,29.824,9.838,32.195-3.491c0,0,9.358-7.039,4.28-12.116c-3.325,1.705-11.766,3.354-21.873-2.113
		c0,0,4.892-6.398,1.32-13.38c-3.571-6.982-8.203-2.154-8.058,2.539s-8.105,12.619-10.327,13.254c0,0-56.653,1.949-58.391-8.097
		C245.51,496.184,257.962,479.026,265.152,454.407z"/>
	<g id="形状_14_7_" display="inline">
		<g>
			<path fill="#D3722B" d="M337.994,530.8c-0.724,0.014-2.204,0.041-2.805-0.132c-0.864-0.249-1.198,0.732-0.367,0.91
				c1.057,0.232,3.291-0.173,4.985-0.751c0.582-0.198,0.938-0.517,0.938-0.517S339.481,530.768,337.994,530.8z"/>
		</g>
	</g>
	<path display="inline" fill="#FCEBCE" d="M336.212,548.172c0.77,1.571-5.942-26.831-38.017-19.008
		c-6.336,1.545-1.92,33.731,31.836,29.47S336.212,548.172,336.212,548.172z"/>
	<path display="inline" fill="#FCEBCE" d="M355.698,546.785c0.338-1.227,12.583-19.478,31.641-16.076
		c7.866,1.404-1.73,29.917-20.197,27.909C353.263,557.109,355.698,546.785,355.698,546.785z"/>
	<path display="inline" fill="#FFBD99" d="M329.854,549.652c0.77,1.571-0.666-16.07-21.822-10.911
		c-3.637,0.887-1.102,19.362,18.274,16.916C345.682,553.212,329.854,549.652,329.854,549.652z"/>
	<path display="inline" fill="#FFBD99" d="M366.034,548.36c0,0,3.164-11.475,17.536-8.909c4.359,0.778-0.959,16.581-11.193,15.468
		C364.685,554.082,366.034,548.36,366.034,548.36z"/>
	<path display="inline" fill="#FCEBCE" d="M319.996,576.08c0,0,0.1,18.711,5.403,31.471c5.303,12.76,15.331,27.049,25.423,23.375
		s-9.062-16.404-12.141-32.085C335.602,583.159,319.996,576.08,319.996,576.08z"/>
	<path display="inline" fill="#FCEBCE" d="M377.602,592.663c0,0,1.667,11.414,0,17.065s-4.478,20.757,4.072,18.716
		s8.492-35.525,5.508-42.051S377.602,592.663,377.602,592.663"/>
	<path display="inline" fill="#F6BF96" d="M350.153,627.84c-1.199-1.548-3.486-5.065-3.201-3.951
		c0.505,1.977,1.988,4.374,3.421,6.153c0.379,0.47,0.387,0.521,0.753,0.824c0.624-0.349,1.044-0.475,1.294-0.841
		C351.621,629.398,350.943,628.866,350.153,627.84z"/>
	<path display="inline" fill="#F6BF96" d="M346.781,629.652c-2.542-2.852-3.969-6.082-3.271-3.62
		c0.845,2.97,3.161,5.354,3.338,5.472c0.464-0.007,1.278,0.062,1.702-0.094C347.653,630.693,347.769,630.76,346.781,629.652z"/>
	<path display="inline" fill="#F6BF96" d="M378.738,626.142c0.318-1.732,0.693-5.488,0.925-4.48
		c0.413,1.789,0.399,3.871,0.074,5.439c-0.11,0.532-0.193,1.073-0.36,1.467c-0.643-0.021-0.867-0.301-1.217-0.49
		C378.54,627.246,378.531,627.288,378.738,626.142z"/>
	<path display="inline" fill="#F6BF96" d="M382.202,626.357c0.853-3.329,0.659-6.5,1.118-4.244c0.552,2.722-0.404,5.789-0.497,5.956
		c-0.374,0.186-0.905,0.373-1.309,0.423C381.936,627.549,381.87,627.651,382.202,626.357z"/>
	<path display="inline" fill="#FCEBCE" d="M320.184,570.786c0.647-5.491,3.448-27.586,25.943-29.166
		c24.898-1.749,28.923,19.032,36.378,28.511c8.965,11.398,5.318,22.465-1.88,27.272c-2.538,1.695-3.987,10.896-31.097,4.91
		C330.493,598.109,316.982,597.954,320.184,570.786z"/>
	<path display="inline" fill="#57301B" d="M327.712,576.38c-5.447-0.025-5.247,1.63-0.717,1.966
		c4.1,0.304,11.661-0.021,18.567,0.145c5.87,0.141,5.539-2.187,2.004-2.193C344.527,576.292,333.309,576.405,327.712,576.38z"/>
	<path display="inline" fill="#57301B" d="M381.423,576.127c3.293,0.154,3.805,1.491-0.754,1.847
		c-3.629,0.284-5.381,0.357-10.755,0.248c-2.331-0.047-2.56-1.926,3.087-1.979C377.256,576.204,379.419,576.033,381.423,576.127z"/>
	<path display="inline" fill="#57301B" d="M356.613,596.247c-1.78-3.391,5.67-5.44,11.496-5.594c8.128-0.214,8.782,1.043,8.782,3.33
		c0,2.524-4.412,6.736-10.033,6.735C362.056,600.718,357.91,598.718,356.613,596.247z"/>
	<path display="inline" fill="#F7CC9D" d="M337.238,551.089c0.788,3.856,1.832,6.105,4.851,6.776c2.971,0.66,5.22-2.498,6.208-3.694
		c0,0,1.362,4.296,4.129,5.337c2.951,1.111,5.009,0.222,6.196-1.661c0.72-1.141,0.642-3.19,0.642-3.19s2.317,2.756,6.068,1.992
		c2.234-0.455,2.216-1.729,1.505-3.367c-0.515-1.189-1.076-2.32-1.076-2.32s3.21,1.741,3.68,5.425
		c0.286,2.245-2.606,3.639-5.03,3.172c-1.681-0.324-4.19-2.208-4.19-2.208s-0.344,2.902-2.424,4.176
		c-2.08,1.274-4.998,0.956-6.786-0.226c-1.788-1.182-3.321-3.88-3.321-3.88s-1.187,2.347-3.891,3.399
		c-1.595,0.62-4.48,0.522-6.145-2.14C335.339,554.974,337.238,551.089,337.238,551.089z"/>
	
		<radialGradient id="SVGID_9_" cx="371.3065" cy="-5.1995" r="26.0471" gradientTransform="matrix(0.9408 0.3391 0.1896 -0.526 -18.8282 468.5856)" gradientUnits="userSpaceOnUse">
		<stop  offset="0" style="stop-color:#FFDECC"/>
		<stop  offset="0.5179" style="stop-color:#F9DCC0"/>
		<stop  offset="1" style="stop-color:#FCEBCE"/>
	</radialGradient>
	<path display="inline" fill="url(#SVGID_9_)" d="M319.72,577.397c0.002-5.529,59.896,30.423,29.808,24.916
		C330.178,598.771,319.714,597.241,319.72,577.397z"/>
	
		<radialGradient id="SVGID_10_" cx="261.9191" cy="90.7864" r="15.4762" gradientTransform="matrix(0.3219 -0.9468 -0.4118 -0.14 341.9185 852.5598)" gradientUnits="userSpaceOnUse">
		<stop  offset="0" style="stop-color:#FFDECC"/>
		<stop  offset="0.5179" style="stop-color:#F9DCC0"/>
		<stop  offset="1" style="stop-color:#FCEBCE"/>
	</radialGradient>
	<path display="inline" fill="url(#SVGID_10_)" d="M386.416,576.817c3.052,5.994,1.408,15.779-5.791,20.586
		C378.088,599.097,384.79,573.624,386.416,576.817z"/>
	<g id="形状_77_17_" display="inline">
		<g>
			<path fill="#FFBD99" d="M335.066,587.088c-3.436-0.294-6.359,1.054-6.523,3.012c-0.167,1.958,2.481,3.778,5.917,4.073
				c3.44,0.294,6.359-1.054,6.526-3.012C341.154,589.203,338.501,587.382,335.066,587.088z"/>
		</g>
	</g>
	<path display="inline" fill="#FFBD99" d="M384.837,586.699c-3.026,0.259-5.362,1.863-5.214,3.587
		c0.142,1.662,2.542,2.812,5.428,2.661c1.185-1.777,2.035-3.829,2.449-6.075C386.695,586.693,385.795,586.617,384.837,586.699z"/>
	<path display="inline" fill="#FFFFFF" d="M251.601,360.558c0,0,1.673,7.324,8.512,10.204c7.019,2.956,16.202,2.493,25.694-1.116
		c8.055-3.063,5.335-19.057,1.295-20.798S262.439,335.736,251.601,360.558z"/>
	<path display="inline" fill="#FFFFFF" d="M315.157,343.109c0,0-2.242,6.395-0.314,12.551c1.005,3.211,2.903,7.879,9.545,8.911
		c12.063,1.875,10.279-5.436,10.244-7.385s-7.282-14.641-10.358-16.35s-8.243,1.635-8.243,1.635"/>
	<path display="inline" fill="#4F2914" d="M321.557,386.431c3.219,2.832,10.951,4.783,16.112,4.028s9.693-4.658,10.448-8.056
		c0.755-3.399-5.309-5.614-13.417-5.387C326.592,377.242,315.263,380.893,321.557,386.431z"/>
	<path display="inline" fill="#FFA083" d="M265.151,387.387c7.651-1.233,11.017-3.773,10.715-6.187
		c-0.302-2.415-7.065-2.415-11.531-2.113s-11.71,1.509-11.257,5.735C253.531,389.047,262.352,387.838,265.151,387.387z"/>
	<path display="inline" fill="none" d="M339.4,370.763c0.611,2.925,9.914,4.472,12.88,1.871c0,0-1.425-2.306-5.989-3.68
		c-0.716-0.216-1.835-1.025-2.771-1.358C343.52,367.596,338.797,367.871,339.4,370.763z"/>
	<g id="Shape_2_21_" display="inline">
		<g>
			<path fill="#986241" d="M274.921,372.421c-3.4,0.338-7.66,0.232-11.498-0.687c-4.14-0.991-6.722-2.58-8.462-4.787
				c-0.741-0.939,0.302,1.566,2.918,3.781c-1.06,0.866-1.59,2.197-1.431,2.966c0.148,0.712,0.889-0.693,2.072-1.286
				c0.512-0.257,0.863-0.374,1.092-0.427c0.502,0.303,1.048,0.573,1.623,0.813c-0.576,0.783-0.808,2.047-0.753,2.972
				c0.033,0.527,1.21-0.678,1.858-1.223c0.533-0.448,1.062-0.792,1.422-1.009C269.722,374.592,277.544,372.16,274.921,372.421z"/>
		</g>
	</g>
	<g id="Shape_2_19_" display="inline">
		<g>
			<path fill="#986241" d="M335.346,361.483c-0.077-0.025-0.139-0.02-0.205-0.021c0.429-2.159-0.277-4.083-0.333-3.154
				c-0.149,2.45-0.235,4.845-2.853,5.893c-2.906,1.164-5.202,0.635-7.566,0.37c-1.825-0.205,4.681,2.474,8.276,0.499
				c0.286,0.061,0.698,0.166,1.134,0.333c0.551,0.211,1.601,0.736,1.503,0.381c-0.186-0.663-0.676-1.508-1.288-1.858
				c0.297-0.364,0.532-0.752,0.712-1.153c0.161-0.004,0.364-0.006,0.67-0.002c0.825,0.011,1.723,0.876,1.658,0.374
				C336.98,362.585,336.288,361.792,335.346,361.483z"/>
		</g>
	</g>
	<path display="inline" fill="#4F2914" d="M268.519,345.281c-5.946,3.434-8.127,25.628,11.342,25.481
		c17.347-0.131,12.547-20.662,4.482-24.508C280.646,344.491,274.465,341.847,268.519,345.281z"/>
	<ellipse display="inline" fill="#FFFFFF" cx="267.681" cy="363.512" rx="5.057" ry="3.15"/>
	<path display="inline" fill="#4F2914" d="M320.842,340.35c-1.705,1.16-3.236,20.693,8.488,22.318
		c4.882,0.676,8.632-1.172,1.582-15.957C327.149,338.821,322.547,339.191,320.842,340.35z"/>
	
		<ellipse transform="matrix(0.2063 0.9785 -0.9785 0.2063 606.7567 -31.9792)" display="inline" fill="#FFFFFF" cx="323.091" cy="358.02" rx="2.515" ry="4.442"/>
	<path display="inline" fill="#66361F" d="M224.871,346.938c0,0,3.577,3.297,10.489,2.596c3.692-0.374,22.083-24.686,25.719-27.645
		c3.636-2.959,38.381,11.924,46.439,10.987c5.109-0.594,8.215-7.659,8.215-7.659s-27.059-35.57-65.794-15.312
		C229.65,320.516,224.871,346.938,224.871,346.938z"/>
	<path display="inline" fill="#A85726" d="M251.591,341.516c1.205-4.257,8.215-14.286,17.416-11.039
		c9.201,3.247,6.638,5.747,4.315,4.378c-3.716-2.191-7.495-3.307-11.311-1.456c-6.741,3.269-8.593,7.879-9.12,9.169
		C251.944,344.881,250.695,344.684,251.591,341.516z"/>
	<path display="inline" fill="#A85726" d="M315.589,330.806c2.132,1.252,4.005,4.391,8.13,3.626c2.86-0.531,3.211,1.594,1.318,1.721
		c-3.104,0.209-7.269-0.096-10.607-3.485C312.087,330.289,314.327,330.065,315.589,330.806z"/>
	<path display="inline" fill="#713D1F" d="M250.811,358.337c0,0-3.979-0.514-6.357-2.363c-2.956-2.298,0.658,4.753,7.461,5.857
		c0,0,6.089-15.151,19.489-16.195c11.48-0.894,17.236,4.663,17.638,5.269c1.989,3.001-3.729-9.689-18.182-8.254
		C253.056,344.419,250.811,358.337,250.811,358.337z"/>
	<path display="inline" fill="#713D1F" d="M316.673,342.471c-2.071,1.897-2.915,1.92-0.94-0.748
		c5.109-6.901,10.213-1.626,14.829,3.018c0,0,1.485,0.618,4.221-2.27c2.189-2.31,0.263,4.519-3.871,4.24
		C330.912,346.711,322.648,336.998,316.673,342.471z"/>
	<path display="inline" fill="#E5432E" d="M225.959,342.561c0,0,1.359-5.579,4.302-11.122c2.943-5.542,19.525-19.553,28.159-20.848
		c0,0-19.488,1.428-31.704-10.611c-8.549-8.426-15.048-22.754-15.631-32.252s9.603-8.061,23.789-1.305
		c17.884,8.517,27.347,26.02,28.164,27.309c4.497,7.088,0.626-6.363,8.276-19.805c8.535-14.996,21.046-19.486,22.879-15.524
		c1.373,2.968,8.216,30.594-13.539,49.381c0,0,16.729,2.286,29.682,11.569c0,0,2.352,2.278,4.679,5.03
		C315.016,324.384,260.931,299.387,225.959,342.561z"/>
	<path display="inline" fill="#F29E66" d="M300.348,411.18c6.446-2.206,16.5-5.543,33.655-3.402
		c3.407,0.425,3.065,2.311-0.409,1.984c-1.238-0.116-17.921-1.516-32.908,3.924C296.767,415.108,296.512,412.492,300.348,411.18z"/>
	<path display="inline" fill="#E5E5E5" d="M385.102,358.404c0,19.914,14.606,36.058,51.959,36.058h86.599
		c36.42,0,52.865-16.144,52.865-36.058v-14.97c0-19.914-14.634-36.058-52.865-36.058h-86.599c-36.447,0-51.959,16.144-51.959,36.058
		"/>
	<path display="inline" fill="#E5E5E5" d="M449.068,389.723c0,0-14.883,19.03-35.848,21.134c-11.109,1.115,4.606-0.473,8.334-22.463
		C424.084,373.47,449.068,389.723,449.068,389.723z"/>
</g>
<g id="图层_2">
	
		<radialGradient id="SVGID_11_" cx="419.3519" cy="194.281" r="70.4488" gradientTransform="matrix(0.9808 -0.1951 -0.3908 -1.9645 108.0058 1008.9631)" gradientUnits="userSpaceOnUse">
		<stop  offset="0" style="stop-color:#FFC07D"/>
		<stop  offset="0.6091" style="stop-color:#FEAA5D"/>
		<stop  offset="1" style="stop-color:#FE9F4D"/>
	</radialGradient>
	<path fill="url(#SVGID_11_)" d="M303.799,447.202c0,0,32.864,17.877,64.785,7.682c34.571-11.042,43.56-29.883,45.634-44.634
		c0.9-6.396-0.435-17.661-2.42-23.97c-3.044-9.678,0.23-14.174,7.26-3.803c3.943,5.818,26.755,39.47,18.323,78.823
		c-5.437,25.377-25.548,59.486-62.756,70.871C273.708,563.051,303.799,447.202,303.799,447.202z"/>
	<path fill="#FFBF80" d="M347.841,492.761c0,0,66.52-0.139,83.663-35.784c8.729-18.15,5.81-32.217,5.81-32.217
		c1.922,7.241,3.178,20.638,0.067,36.541c-4.983,25.47-25.548,59.486-62.756,70.871C273.708,563.051,315.92,502.956,347.841,492.761
		z"/>
	
		<radialGradient id="SVGID_12_" cx="180.6133" cy="-58.2166" r="165.1763" gradientTransform="matrix(1 0 0 -1 0.42 672.0261)" gradientUnits="userSpaceOnUse">
		<stop  offset="0" style="stop-color:#FFC07D"/>
		<stop  offset="0.5713" style="stop-color:#FEB162"/>
		<stop  offset="1" style="stop-color:#FEA852"/>
	</radialGradient>
	<path fill="url(#SVGID_12_)" d="M171.873,513.237c0,0-27.616,80.451,15.211,104.406c32.87,18.385,57.389-4.149,60.846,21.089
		c3.457,25.237-21.089,91.269-3.111,97.837c0,0,10.371,13.829,16.594,2.074c0,0,12.56,13.483,13.021-55.66
		c0,0-2.65-33.995-2.995-41.14s2.212-34.975,3.71-38.201C276.646,600.415,200.095,482.835,171.873,513.237z"/>
	<path fill="#DD7528" d="M261.349,738.59c0,0-6.938,1.319-6.463-16.394c0.233-8.679,2.874-14.667,4.842-18.141
		c0.848-1.497-2.957,10.541-2.992,17.56c-0.031,6.295,0.424,8.851,1.668,12.701C259.288,737.048,261.349,738.59,261.349,738.59z"/>
	<path fill="#DD7528" d="M245.278,736.824c0,0-4.812-0.999-5.978-13.137c-0.353-3.672,1.308-12.244,2.723-15.228
		c0.61-1.286-1.705,8.857-1.18,14.629c0.47,5.176,1.062,7.248,2.434,10.331C244.25,735.607,245.278,736.824,245.278,736.824z"/>
	<path fill="#FF9B48" d="M175.417,369.36c0,0-14.399,29.813-28.285,44.541c-13.886,14.728-26.736,29.962-38.326,31.507
		c-4.369,0.583-12.557-2.307-19.23-5.244c-4.42-1.945-16.959-3.125-7.957,7.237c0,0-18.896-2.622-9.671,8.878
		c6.445,8.034,22.976,11.237,28.198,10.849c0,0-5.053,5.491-3.333,11.355s14.717-4.762,20.235-14.539
		c5.517-9.776,46.66-29.219,58.154-44.106S175.417,369.36,175.417,369.36z"/>
	<g id="形状_14_16_">
		<g>
			<path fill="#CC7123" d="M91.816,448.021c-1.22,0.302-3.885,0.365-5.188,0.395c-2.674,0.058-4.62-0.541-4.62-0.541
				s0.403,0.453,1.309,0.708c2.635,0.747,6.38,1.198,8.473,0.775C93.434,449.033,93.573,447.587,91.816,448.021z"/>
		</g>
	</g>
	
		<radialGradient id="SVGID_13_" cx="196.5246" cy="343.33" r="216.7134" gradientTransform="matrix(1 0 0 -1 0.42 672.0261)" gradientUnits="userSpaceOnUse">
		<stop  offset="0" style="stop-color:#FFC07D"/>
		<stop  offset="0.5713" style="stop-color:#FEB162"/>
		<stop  offset="1" style="stop-color:#FEA852"/>
	</radialGradient>
	<path fill="url(#SVGID_13_)" d="M164.382,338.959c0,0,13.121-2.921,10.94,39.025s-5.356,53.01-5.377,110.629
		c-0.021,57.619,20.136,149.318,135.95,101.87c30.423-17.977,68.007-78.441,17.302-135.599c0,0-44.152-10.177-81.341-64.632
		c-22.961-33.622-18.99-69.83-16.114-88.995C227.272,291.055,164.382,338.959,164.382,338.959z"/>
	<path opacity="0.6" fill="#DD7528" enable-background="new    " d="M172.431,346.178c23.872-0.807,30.02-9.345,30.036-6.914
		c0.032,5.07-10.427,21.094-27.212,21.094C175.099,352.977,172.431,346.178,172.431,346.178"/>
	<g id="形状_12_7_">
		<g>
			
				<linearGradient id="SVGID_14_" gradientUnits="userSpaceOnUse" x1="155.8737" y1="209.7024" x2="247.593" y2="209.7024" gradientTransform="matrix(0.7982 -0.2268 -0.2926 -1.0053 115.3725 736.5391)">
				<stop  offset="0" style="stop-color:#FFC28A"/>
				<stop  offset="0.7938" style="stop-color:#FFCD9F"/>
				<stop  offset="1" style="stop-color:#FFD0A5"/>
			</linearGradient>
			<path fill="url(#SVGID_14_)" d="M270.336,534.509c-16.665-37.604-34.203-88.685-50.284-124.755
				c-14.129-31.692-35.99-22.518-39.425,11.387c-2.849,28.129-1.914,95.832,18.952,131.124
				C216.78,581.358,283.57,564.372,270.336,534.509z"/>
		</g>
	</g>
	<path opacity="0.6" fill="#DD7528" enable-background="new    " d="M172.445,536.059c0,0,13.045-0.934,57.162-15.987
		c35.462-12.099,62.302-36.263,81.648-45.98C311.966,473.736,280.928,600.331,172.445,536.059z"/>
	<path fill="#FF9B48" d="M239.669,389.256c24.657,6.56,84.004,3.373,96.502,4.632c15.656,1.577,25.228-5.94,31.989-22.57
		c9.193-22.611-5.983-12.26-5.983-12.26c2.855-15.148-7.301-20.904-10.716-10.66s-13.198,20.33-13.198,20.33
		c0.427-3.415,1.246-12.647-5.132-15.635s-5.087,14.302-8.074,20.278s-27.848,0.416-52.999-4.706
		c-25.15-5.122-41.309-16.812-47.835-16.812c-4.306,0-6.444,4.715-6.347,13.027C217.978,373.389,222.522,384.694,239.669,389.256z"
		/>
	<g id="形状_14_14_">
		<g>
			<path fill="#CC7123" d="M362.158,358.969c0,0-0.098,1.779-0.849,3.908c-0.367,1.036-1.119,3.156-1.654,4.028
				c-0.77,1.256,0.278,1.664,0.942,0.46c0.852-1.531,1.531-4.703,1.709-7.089C362.368,359.456,362.158,358.969,362.158,358.969z"/>
		</g>
	</g>
	<path fill="#FFDCC0" d="M205.126,528.002c0,0-22.583,7.175-42.014-5.038c-19.431-12.213-5.66-17.504,1.271-14.743
		c6.931,2.761,33.277,12.117,37.835,10.087C206.774,516.277,205.126,528.002,205.126,528.002z"/>
	<path fill="#F6BF96" d="M159.407,513.496c-1.737-0.142-4.63,0.019-5.9,0.369c-0.055-0.257-0.283-0.758-0.298-1.044
		c0.796-0.188,2.232-0.313,3.407-0.313C159.402,512.511,162.11,513.72,159.407,513.496z"/>
	<path fill="#F6BF96" d="M160.181,510.492c-1.179-0.304-4.499-0.828-6.383-0.422c0.202-0.375,0.548-0.758,1.421-1.293
		c0.935-0.128,2.015,0.111,3.004,0.302C160.296,509.475,161.767,510.897,160.181,510.492z"/>
	
		<radialGradient id="SVGID_15_" cx="214.3282" cy="161.2621" r="24.5091" gradientTransform="matrix(1 0 0 -1 0.42 672.0261)" gradientUnits="userSpaceOnUse">
		<stop  offset="0" style="stop-color:#FFDECC"/>
		<stop  offset="0.5179" style="stop-color:#F9DCC0"/>
		<stop  offset="1" style="stop-color:#FCEBCE"/>
	</radialGradient>
	<path fill="url(#SVGID_15_)" d="M194.36,519.487c0,0,12.222,3.185,9.651,19.817c-2.146,13.883,43.78-10.253,45.853-14.628
		s-19.291-3.333-24.649-24.948C220.615,481.168,194.36,519.487,194.36,519.487z"/>
	
		<radialGradient id="SVGID_16_" cx="218.6195" cy="167.5063" r="25.8295" gradientTransform="matrix(1 0 0 -1 0.42 672.0261)" gradientUnits="userSpaceOnUse">
		<stop  offset="0" style="stop-color:#FFDECC"/>
		<stop  offset="0.5179" style="stop-color:#F9DCC0"/>
		<stop  offset="1" style="stop-color:#FCEBCE"/>
	</radialGradient>
	<path fill="url(#SVGID_16_)" d="M223.849,501.943c0,0,9.181-14.945,11.13-24.831c2.549-12.932,13.288-13.07,13.177,3.049
		c-0.111,16.119-13.375,28.489-16.138,34.016C229.254,519.704,223.849,501.943,223.849,501.943z"/>
	<path fill="#F6BF96" d="M242.908,476.405c0.894-1.832,2.48-4.402,3.522-5.472c-0.062-0.558-0.452-0.903-0.689-1.088
		c-0.627,0.689-1.362,1.983-2.05,3.165C242.065,475.815,241.519,479.258,242.908,476.405z"/>
	<path fill="#F6BF96" d="M239.394,474.283c0.382-1.381,1.623-4.968,3.016-6.672c-0.441-0.005-1.045-0.09-1.638,0.415
		c-0.627,0.887-1.251,2.305-1.542,3.452C238.603,473.949,238.878,476.139,239.394,474.283z"/>
	<path fill="#FFBF80" d="M175.33,535.975c6.223,0,58.951,8.643,98.791-35.954s54.706,38.374,51.94,54.277
		s-6.253,33.518-36.646,45.98c-18.902,7.751-102.331,17.364-116.984-54.277C169.748,532.884,175.33,535.975,175.33,535.975z"/>
	
		<radialGradient id="SVGID_17_" cx="405.3566" cy="38.4824" r="61.6106" gradientTransform="matrix(0.9808 -0.1951 -0.3908 -1.9645 46.85 855.9723)" gradientUnits="userSpaceOnUse">
		<stop  offset="0" style="stop-color:#FFC07D"/>
		<stop  offset="0.6091" style="stop-color:#FEAA5D"/>
		<stop  offset="1" style="stop-color:#FE9F4D"/>
	</radialGradient>
	<path fill="url(#SVGID_17_)" d="M335.972,589.485c0,0,7.656-6.646,14.29-6.492c3.259,0.076,5.013-0.346,8.042,4.986
		c24.078,42.384,20.044,57.643,33.045,83.398c4.974,9.853,10.314,12.509,10.314,12.509c12.2,16.798,26.73,10.98,23.351-7.789
		c0.375-1.877,8.133-3.412-13.216-49.603c-7.507-16.243-25.15-49.776-48.798-75.301s-27.027,36.411-27.027,36.411"/>
	<path fill="#DD7528" d="M390.779,657.774c0,0,2.578,16.681,10.935,25.921c0,0-3.985-0.455-8.056-11.879
		C390.699,663.514,390.779,657.774,390.779,657.774z"/>
	<path fill="#DD7528" d="M425.013,675.88c0,0-0.615,3.939-3.304,5.094c-1.383,0.594-7.014,1.685-11.524-8.903
		c-2.65-6.223-3.572-10.141-5.301-23.509c-0.186-1.436,3.738,13.974,6.453,20.628c2.305,5.647,6.914,9.666,10.256,9.219
		C422.661,678.267,423.726,677.978,425.013,675.88z"/>
	
		<radialGradient id="SVGID_18_" cx="242.3161" cy="153.0943" r="102.6596" gradientTransform="matrix(1 0 0 -1 0.42 672.0261)" gradientUnits="userSpaceOnUse">
		<stop  offset="0" style="stop-color:#FFC07D"/>
		<stop  offset="0.5713" style="stop-color:#FEB162"/>
		<stop  offset="1" style="stop-color:#FEA852"/>
	</radialGradient>
	<path fill="url(#SVGID_18_)" d="M278.03,491.896c5.496-21.985,7.743-49.404,47.131-36.21c12.046,4.035,56.17,59.06,41.026,98.438
		c-11.567,30.077-37.245,48.201-63.412,35.405C278.612,577.715,267.659,533.382,278.03,491.896z"/>
	<path fill="#FFC07D" d="M190.971,221.249c0,0,21.465-18.77,30.684-31.708s18.053-24.494,21.434-29.237
		c6.985-9.799,16.804-12.139,20.594,7.952c4.989,26.448-2.684,51.98-21.285,62.007c-11.948,6.44-21.146,7.42-28.274,8.579
		C202.264,240.77,190.971,221.249,190.971,221.249z"/>
	<path fill="#FFC07D" d="M155.961,234.908c0,0-17.382-16.102-26.409-27.662s-20.442-23.593-25.331-27.022
		c-5.86-4.11-11.233-5.329-13.812,4.77s-4.943,36.739,12.036,52.224c17.516,15.975,32.668,13.325,48.143,12.466
		S155.961,234.908,155.961,234.908z"/>
	<path fill="#FF9B48" d="M150.508,246.504c0,0-15.445,1.645-26.718-4.211c-11.273-5.856-17.647-15.256-19.929-23.486
		s1.025-11.717,7.802-7.078s24.702,23.228,38.137,26.256C163.237,241.015,150.508,246.504,150.508,246.504z"/>
	<path fill="#FF9B48" d="M202.467,226.275c0,0,27.465-22.619,34.07-31.625c12.049-16.431,13.093-3.59,13.409-0.676
		s0.951,16.541-10.589,26.687s-27.603,13.545-31.351,13.952C204.258,235.02,202.467,226.275,202.467,226.275z"/>
	
		<radialGradient id="SVGID_19_" cx="120.0418" cy="371.3693" r="66.5864" gradientTransform="matrix(1 0 0 -1 0.42 672.0261)" gradientUnits="userSpaceOnUse">
		<stop  offset="0" style="stop-color:#FECD97"/>
		<stop  offset="1" style="stop-color:#FFC07A"/>
	</radialGradient>
	<path fill="url(#SVGID_19_)" d="M175.906,219.877c-19.821-0.003-34.346,14.891-39.441,29.489
		c-8.441,24.187,1.643,30.646-9.42,34.991c-6.261,2.459-17.747,4.318-14.75,19.825c3.474,17.982,22.126,41.997,58.541,41.997
		c30.423,0,38.367-15.012,44.021-23.278c5.653-8.266,11.414-17.42,12.676-31.737C228.766,277.175,232.605,219.885,175.906,219.877z"
		/>
	<path fill="#66361F" d="M175.906,219.529c-19.818,0.353-33.064,14.177-40.325,32.117c0,0-0.06,1.751,1.49,4.071
		c2.98,4.46,5.771,7.145,10.371,6.338c8.221-1.441,18.425-6.166,39.536-18.358c1.734-1.002,2.177-0.9,3.103,0.324
		c4.318,5.704,18.956,16.249,24.185,17.07c3.424,0.538,11.067-4.018,10.489-6.986C220.042,229.903,196.073,219.17,175.906,219.529z"
		/>
	<path fill="#E5432E" d="M136.465,249.366c0,0,20.837-16.595,61.336-8.861c18.691,3.57,26.793,12.633,26.793,12.633
		s-0.951-5.402-2.837-8.304c-1.349-2.076-14.163-14.643-40.227-17.926c0,0,17.638-0.625,28.141-19.767
		c7.49-13.653,5.491-29.589,4.615-36.585c-1.158-9.256-4.961-8.297-8.533-7.26c-3.967,1.152-15.442,6.914-27.196,24.776
		c-6.835,10.387-10.026,22.126-10.026,23.854c0,1.729-2.804-8.936-10.141-17.862c-6.914-8.412-14.75-13.944-21.925-17.977
		c-7.501-4.217-9.535-2.535-9.881,1.037s-0.807,20.858,4.725,32.497c5.531,11.639,18.553,17.747,26.966,20.051
		c0,0-13.583,5.904-17.997,12.33C138.684,244.322,138.341,244.972,136.465,249.366z"/>
	<path fill="#FF8366" d="M120.04,322.012c8.236,12.326,25.328,23.129,46.376,24.038c8.761,0.378,37.147-17.849,16.174-45.852
		c-2.23-2.978-14.043,9.649-32.279,10.6c-21.414,1.116-20.241-3.916-24.936,2.451C120.275,320.163,117.445,318.127,120.04,322.012z"
		/>
	<g id="腮红2_3_">
		<g>
			<path fill="#FFA083" d="M213.171,284.926c-0.183-1.75-2.107-5.502-12.189-4.829c-8.224,0.549-11.32,3.855-10.857,6.37
				c0.375,2.036,4.023,5.626,11.525,4.731C211.111,290.072,213.335,286.496,213.171,284.926z"/>
		</g>
	</g>
	<path fill="#4F2914" d="M114.306,295.923c0.862,3.653,9.948,6.399,15.387,4.931c6.366-1.718,12.76-8.38,11.739-11.381
		s-10.73-1.56-14.824-0.582S113.33,291.785,114.306,295.923z"/>
	<path fill="#A85726" d="M170.668,260.371c-0.353,0.439-1.352,1.976-0.382,2.663c0.94,0.665,1.315-0.15,2.446-1.174
		c1.154-1.045,10.077-10.424,19.583-4.475c1.969,1.232,2.79,0.032,1.374-1.045C190.47,253.891,179.279,249.663,170.668,260.371z"/>
	<path fill="#713D1F" d="M168.778,280.01c-0.954,0.044-0.831-1.348-0.437-2.758c1.629-5.835,6.981-11.972,17.554-12.927
		c11.238-1.015,16.64,5.02,17.425,5.897c0,0,2.513,0.144,5.04-3.258c1.696-2.283,0.899-0.212,0.257,1.534
		c-0.549,1.492-1.975,3.928-6.1,4.51c0,0-7.244-6.276-16.211-5.74c-4.229,0.253-12.791,2.506-16.331,10.324
		C169.247,279.201,169.225,279.99,168.778,280.01z"/>
	<path fill="#F76531" d="M186.372,306.205c0,0-42.344,4.959-42.114,34.921c0,0,14.101,4.912,23.789,4.93
		s17.301-10.971,18.849-14.139C188.444,328.748,193.495,320.391,186.372,306.205"/>
	<path fill="#FCEBCE" d="M185.226,484.598c0,0-9.821,4.286-15.494-9.001c-5.259-12.321-2.772-19.996,4.066-18.069
		c8.247,2.324,12.493,6.504,15.953,14.687C193.705,481.568,185.226,484.598,185.226,484.598z"/>
	<path fill="#FCEBCE" d="M206.243,475.468c0,0,0.657-11.081,6.01-18.491c6.485-8.977,15.923-10.807,17.398-4.738
		c1.489,6.128,4.796,21.852-16.059,26.546C196.441,482.647,206.243,475.468,206.243,475.468z"/>
	<path fill="#FFBD99" d="M179.033,480.436c0,0-5.126,0.318-7.629-6.577c-2.711-7.466-1.001-11.164,3.138-9.548
		c4.623,1.805,6.451,5.15,7.898,8.595C184.556,477.944,179.033,480.436,179.033,480.436z"/>
	<path fill="#FFBD99" d="M209.569,472.326c0,0,0.386-6.414,3.528-10.703c3.807-5.196,9.622-6.311,10.211-2.742
		s2.815,12.649-9.426,15.366C203.816,476.482,209.569,472.326,209.569,472.326z"/>
	<path fill="#FCEBCE" d="M199.981,468.412c11.445-0.056,18.63,8.395,22.645,16.09c4.015,7.695,6.376,26.477-12.714,34.461
		c-15.551,6.504-44.792,5.359-49.182-10.742c-3.011-11.045,3.097-12.036,5.353-13.347c2.627-1.527,4.352-6.289,7.192-11.382
		C175.898,478.786,185.644,468.482,199.981,468.412z"/>
	<path fill="#57301B" d="M169.003,498.718c3.845-0.591,10.441-0.77,9.59,2.286c-0.971,3.486-5.211,5.556-8.224,6.107
		s-7.897-1.309-8.432-4.24C161.407,499.975,166.628,499.083,169.003,498.718z"/>
	
		<radialGradient id="SVGID_20_" cx="217.9158" cy="170.4802" r="24.3903" gradientTransform="matrix(1 0 0 -1 0.42 672.0261)" gradientUnits="userSpaceOnUse">
		<stop  offset="0" style="stop-color:#FFDECC"/>
		<stop  offset="0.5179" style="stop-color:#F9DCC0"/>
		<stop  offset="1" style="stop-color:#FCEBCE"/>
	</radialGradient>
	<path fill="url(#SVGID_20_)" d="M199.981,468.412c11.443-0.243,18.63,8.395,22.645,16.09c4.015,7.695,6.376,26.477-12.714,34.461
		C194.36,525.466,154.852,469.369,199.981,468.412z"/>
	<path fill="#57301B" d="M203.455,481.504c-6.987,1.025-8.968,7.258-9.089,9.279c-0.104,1.732,1.323,2.707,1.962,0.752
		c1.099-3.363,2.933-6.563,7.127-7.113c6.924-0.908,10.06,3.025,11.815,4.844c0.461,0.478,0.83,0.01,0.485-0.788
		C214.965,486.65,210.691,480.442,203.455,481.504z"/>
	<g id="形状_77_19_">
		<g>
			<path fill="#FFBD99" d="M218.864,495.259c-0.341-1.916-3.362-2.974-6.745-2.368s-5.85,2.651-5.505,4.567
				c0.341,1.916,3.358,2.974,6.741,2.369C216.742,499.22,219.205,497.176,218.864,495.259z"/>
		</g>
	</g>
	<path fill="#F7CC9D" d="M199.491,474.569c-2.51,3.378-3.908,3.846-5.49,3.959c-1.761,0.125-1.746-0.712-2.462-1.257
		c0,0-2.158,2.319-3.585,3.272c-1.521,1.016-2.738,0.844-3.656-0.064c-0.557-0.55-0.86-1.617-0.86-1.617s-0.82,1.43-2.816,2.108
		c-2.042,0.694-2.777,0.269-2.687-0.762c0.065-0.749,0.46-1.422,0.46-1.422s-1.219,1.073-1.219,2.217
		c0.001,1.236,0.712,2.26,3.53,1.117c1.993-0.808,1.967-1.309,1.967-1.309s0.233,1.201,1.503,1.825
		c1.212,0.595,2.421,0.528,4.157-0.658c1.375-0.939,3.144-2.911,3.144-2.911s0.168,1.533,2.611,1.375
		C197.73,480.208,199.491,474.569,199.491,474.569z"/>
	<path fill="#E5E5E5" d="M14.249,67.53c0,26.017,23.961,47.108,53.023,47.108h173.446c30.672,0,54.244-21.091,54.244-47.108v-8.181
		c0-26.017-19.882-47.108-54.244-47.108H67.273c-29.673,0-53.023,21.091-53.023,47.108L14.249,67.53L14.249,67.53z"/>
	<path fill="#E5E5E5" d="M157.203,110.134c0,0,0.024,17.394,7.948,25.386c7.924,7.992-19.751,2.351-28.705-25.386
		C127.493,82.397,157.203,110.134,157.203,110.134z"/>
</g>
<g id="图层_3" display="none">
	
		<radialGradient id="SVGID_21_" cx="183.9897" cy="226.3176" r="98.8006" gradientTransform="matrix(1 0 0 -1 0.42 672.0261)" gradientUnits="userSpaceOnUse">
		<stop  offset="0" style="stop-color:#FFC07D"/>
		<stop  offset="0.5713" style="stop-color:#FEB162"/>
		<stop  offset="1" style="stop-color:#FEA852"/>
	</radialGradient>
	<path display="inline" fill="url(#SVGID_21_)" d="M241.483,560.839c0,0-31.848,17.389-41.371-12.703
		c-7.022-22.189,1.294-39.798,5.516-47.561c3.197-5.878,5.301-13.808-4.406-6.624c-4.214,3.119-10.472,9.863-17.254,22.726
		c-11.867,22.507-16.387,62.779-6.043,91.966c8.333,23.512,19.941,30.405,39.345,33.177S241.483,560.839,241.483,560.839z"/>
	<path display="inline" fill="#FFBF80" d="M234.686,599.193c0,0-36.177,11.855-48.428-14.926
		c-14.391-31.46,1.501-74.781-2.29-67.589c-11.867,22.507-16.387,62.779-6.043,91.966c8.333,23.512,19.941,30.405,39.345,33.177
		S234.686,599.193,234.686,599.193z"/>
	
		<radialGradient id="SVGID_22_" cx="189.3511" cy="-70.2805" r="68.2363" gradientTransform="matrix(1 0 0 -0.9267 0.42 667.1846)" gradientUnits="userSpaceOnUse">
		<stop  offset="0" style="stop-color:#FFC07D"/>
		<stop  offset="0.5713" style="stop-color:#FEB162"/>
		<stop  offset="1" style="stop-color:#FEA852"/>
	</radialGradient>
	<path display="inline" fill="url(#SVGID_22_)" d="M204.765,628.821c0.998,5.989-2.329-13.31-7.986-13.642
		c-5.657-0.333-9.982,11.313-10.315,34.272c-0.333,22.959-1.488,78.195,9.238,75.533c0,0,7.066,13.31,13.388,6.655
		c0,0,10.384,6.945,6.655-26.619c-0.998-8.984-5.324-15.306-2.662-41.593S204.765,628.821,204.765,628.821"/>
	
		<radialGradient id="SVGID_23_" cx="324.133" cy="-43.9729" r="0" gradientTransform="matrix(1 0 0 -1 0.42 672.0261)" gradientUnits="userSpaceOnUse">
		<stop  offset="0" style="stop-color:#FFC07D"/>
		<stop  offset="0.5713" style="stop-color:#FEB162"/>
		<stop  offset="1" style="stop-color:#FEA852"/>
	</radialGradient>
	<path display="inline" fill="url(#SVGID_23_)" d="M324.553,715.999"/>
	
		<radialGradient id="SVGID_24_" cx="525.2914" cy="39.2264" r="119.3677" gradientTransform="matrix(1 0 0 -1 0.42 672.0261)" gradientUnits="userSpaceOnUse">
		<stop  offset="0" style="stop-color:#FFC07D"/>
		<stop  offset="0.5713" style="stop-color:#FEB162"/>
		<stop  offset="1" style="stop-color:#FEA852"/>
	</radialGradient>
	<path display="inline" fill="url(#SVGID_24_)" d="M319.123,712.672c5.429,3.327,23.931,3.327,37.906,3.327
		c7.986,0,10.891-2.753,9.892,6.896s-6.766,25.38,14.197,19.058c20.963-6.322,59.513-44.087,81.855-112.134
		c3.605-10.979-3.044-14.648-3.044-14.648s-2.28-7.646-9.933-8.977s-9.917,3.907-9.917,3.907s-6.053-1.86-10.713,11.066
		c-6.103,16.929-24.699,61.013-40.262,82.853c-2.626,3.684,0.665-9.317,7.986-24.29c7.32-14.973,9.65-57.911-0.333-64.559
		C386.776,608.523,319.123,712.672,319.123,712.672z"/>
	<path display="inline" fill="#DD7528" d="M195.703,724.983c0,0,2.445,0.827,4.233-0.604c2.712-2.17,3.03-5.143,2.499-9.754
		c-0.12-1.046-1.134-6.871-3.123-10.126c-0.406-0.664,1.88,7.675,1.797,11.844c-0.081,4.067-0.333,5.131-1.85,7.051
		C197.742,725.315,195.703,724.983,195.703,724.983z"/>
	<path display="inline" fill="#DD7528" d="M209.091,731.638c0,0,1.486-0.297,3.057-1.553c2.383-1.906,2.571-5.143,2.105-9.194
		c-0.106-0.919-0.628-5.18-2.043-9.579c-0.209-0.651,0.927,7.426,0.878,11.089c-0.029,2.166,0.145,4.068-1.314,6.418
		C210.641,730.646,209.091,731.638,209.091,731.638z"/>
	<path display="inline" fill="#DD7528" d="M440.339,610.252c0,0,3.221,0.113,4.573,2.195c1.769,2.724,1.757,6.26-0.555,11.257
		c-0.525,1.134-4.791,10.394-8.054,13.432c-0.666,0.62,5.096-9.421,6.618-14.11c1.485-4.574,1.243-7.854,0.4-9.92
		C442.29,610.582,440.339,610.252,440.339,610.252z"/>
	<path display="inline" fill="#DD7528" d="M459.93,615.171c0,0,1.283,1.429,1.644,2.964c0.773,3.287-0.192,9.056-2.232,13.207
		c-0.463,0.942-2.643,5.297-5.803,9.478c-0.468,0.619,3.816-7.585,5.174-11.509c0.803-2.321,1.89-6.754,1.913-10.002
		C460.643,616.905,459.93,615.171,459.93,615.171z"/>
	
		<radialGradient id="SVGID_25_" cx="296.4941" cy="260.7352" r="259.9727" gradientTransform="matrix(1 0 0 -1 0.42 672.0261)" gradientUnits="userSpaceOnUse">
		<stop  offset="0" style="stop-color:#FFC07D"/>
		<stop  offset="0.5713" style="stop-color:#FEB162"/>
		<stop  offset="1" style="stop-color:#FEA852"/>
	</radialGradient>
	<path display="inline" fill="url(#SVGID_25_)" d="M263.1,388.834c11.271,13.291,23.22,30.854,2.169,86.951
		c-25.175,67.087-39.988,87.725-38.463,118.237s-18.276,116.712,75.535,123.577c93.811,6.865,106.017-80.859,93.811-127.391
		c-12.205-46.532-57.821-101.18-67.518-125.103c-8.133-20.063-14.255-40.916,8.493-56.285c27.13-18.329-65.372-18.946-65.372-18.946
		"/>
	<path display="inline" opacity="0.3" fill="#DD7528" enable-background="new    " d="M331.089,413.654
		c0,0-26.622,3.773-40.808-2.062c-7.418-3.051,10.151,18.956,31.158,21.457C321.439,433.048,321.589,422.097,331.089,413.654z"/>
	<g id="形状_12_8_" display="inline">
		<g>
			
				<linearGradient id="SVGID_26_" gradientUnits="userSpaceOnUse" x1="299.2856" y1="93.0719" x2="297.6168" y2="243.2753" gradientTransform="matrix(1 0 0 -1 24.3475 702.6054)">
				<stop  offset="0" style="stop-color:#FFC28A"/>
				<stop  offset="0.7938" style="stop-color:#FFCD9F"/>
				<stop  offset="1" style="stop-color:#FFD0A5"/>
			</linearGradient>
			<path fill="url(#SVGID_26_)" d="M341.057,518.937c-14.737-29.343-36.04-25.477-43.976-4.308
				c-8.529,22.75-18.046,82.824-10.567,114.695c6.303,26.86,62.326,27.377,72.46,2.487
				C372.558,598.447,350.855,538.445,341.057,518.937z"/>
		</g>
	</g>
	<path display="inline" fill="#FF9B48" d="M266.943,500.339c4.44,31.234,15.28,71.495,45.266,92.741
		c28.084,19.898,12.4-11.266,12.4-11.266s-21.915-17.376-30.856-108.545C290.255,437.605,259.625,448.852,266.943,500.339z"/>
	<path display="inline" fill="#FF9B48" d="M327.759,477.905c5.702,33.459,8.469,39.404,9.515,61.506
		c2.708,57.228,8.947,32.399,11.508,24.655c7.45-22.53,6.808-48.233,0.654-68.597c-5.642-18.669-16.241-36.37-25.136-41.858
		C324.3,453.611,325.314,467.512,327.759,477.905"/>
	<path display="inline" fill="#FCEBCE" d="M307.763,578.89c0,0-14.862-5.473-16.561-18.851c-1.7-13.378,2.629-17.661,10.641-13.159
		c9.815,5.515,13.115,11.333,14.981,23.248C319.225,585.468,307.763,578.89,307.763,578.89z"/>
	<path display="inline" fill="#FCEBCE" d="M345.413,571.753c0,0-3.347-6.633,7.363-18.346c10.71-11.714,13.722-3.584,14.726,5.708
		c1.004,9.292-2.343,16.153-13.722,18.914S345.413,571.753,345.413,571.753z"/>
	<path display="inline" fill="#FFBD99" d="M308.875,575.09c0,0-10.184-2.26-11.249-10.643s1.647-11.066,6.667-8.245
		c6.15,3.456,8.217,7.101,9.387,14.567C315.185,580.38,308.875,575.09,308.875,575.09z"/>
	<path display="inline" fill="#FFBD99" d="M349.211,572.571c0,0-2.138-4.236,4.703-11.718c6.84-7.482,9.51-2.323,9.406,3.646
		c-0.13,7.458-7.158,9.898-10.677,10.867C345.432,577.349,349.211,572.571,349.211,572.571z"/>
	<path display="inline" opacity="0.6" fill="#DD7528" enable-background="new    " d="M261.345,608.998
		c0,0,20.446,1.033,67.025,0.15c34.234-0.649,43.089-2.193,70.423-5.615C399.589,603.433,317.295,723.091,261.345,608.998z"/>
	<path display="inline" fill="#FFBF80" d="M249.02,605.981c0,0,100.527,28.164,149.773-2.448c0,0,14.911,100.184-70.544,113.394
		c-57.267,8.852-88.045-13.509-96.718-40.328C222.859,649.781,249.02,605.981,249.02,605.981z"/>
	<path display="inline" opacity="0.4" fill="#DD7528" enable-background="new    " d="M289.472,636.99
		c0,0-5.773,12.421,7.506,11.522c13.279-0.899,17.803-19.845,17.803-22.327c0,0,5.376,3.104,13.705,4.432
		c8.329,1.328,12.233,0.086,18.373-3.292c2.405-1.324,3.193-2.152,4.881-3.329c0,0,3.078,14.96,12.867,18.707
		c9.788,3.746,12.834-2.236,10.182-7.426c-2.652-5.19-14.699-9.978-16.781-19.57s-41.376-3.414-47.485-1.821
		C304.414,615.479,289.472,636.99,289.472,636.99z"/>
	<path display="inline" fill="#FCEBCE" d="M304.169,603.659c0,0-4.361,13.336-10.848,22.998c-6.488,9.662-3.601,13.829-1.042,15.065
		c2.56,1.235,8.552,3.217,14.717-7.853c6.166-11.071,6.915-23.187,6.915-23.187L304.169,603.659z"/>
	<path display="inline" fill="#FCEBCE" d="M353.655,614.682c0,0,2.316,9.561,8.424,16.731c6.108,7.171,13.279,8.764,15.138,5.577
		c1.859-3.187,0.266-6.988-2.656-11.727c-2.921-4.739-9.815-7.651-13.805-18.544C356.768,595.826,353.655,614.682,353.655,614.682z"
		/>
	<path display="inline" fill="#F6BF96" d="M369.934,632.199c0.925,1.834,2.02,4.674,2.243,6.163c0.486,0.29,1,0.188,1.293,0.111
		c-0.171-0.923-0.76-2.302-1.29-3.575C370.922,631.883,368.492,629.346,369.934,632.199z"/>
	<path display="inline" fill="#F6BF96" d="M373.833,630.572c0.875,1.148,2.997,4.332,3.515,6.488
		c0.272-0.351,0.709-0.784,0.666-1.567c-0.33-1.044-1.087-2.41-1.829-3.342C374.583,630.14,372.658,629.026,373.833,630.572z"/>
	<path display="inline" fill="#F6BF96" d="M299.546,636.202c-0.823,1.912-1.728,4.843-1.819,6.346
		c-0.501,0.334-1.32,0.201-1.648,0.151c0.092-0.935,0.33-2.033,0.778-3.35C297.924,636.229,300.829,633.226,299.546,636.202z"/>
	<path display="inline" fill="#F6BF96" d="M294.679,634.687c-0.838,1.225-2.564,4.483-2.908,6.678
		c-0.471-0.125-0.857-0.555-1.318-1.157c0.253-1.07,1.104-2.731,1.82-3.729C293.815,634.328,295.804,633.039,294.679,634.687z"/>
	<path display="inline" fill="#FCEBCE" d="M332.078,560.206c14.14,0,22.706,17.572,28.061,24.935s6.529,19.927,0,27.109
		c-3.347,3.682-6.029,4.055-12.048,9.036c-6.104,5.051-18.018,4.163-25.809-0.794c-5.89-3.748-6.95-3.762-12.816-7.073
		c-6.982-3.941-17.715-16.213-2.206-39.504C315.829,561.043,323.566,560.206,332.078,560.206z"/>
	<path display="inline" fill="#F7CC9D" d="M317.437,571.382c0.606,3.617,2.34,4.438,4.577,4.992
		c2.752,0.683,4.575-1.803,5.535-2.883c0,0,1.495,3.696,4.037,4.757c2.711,1.133,4.657,0.373,5.826-1.341
		c0.708-1.039,0.704-2.95,0.704-2.95s2.067,2.644,5.585,2.057c2.096-0.35,2.431-2.105,2.685-3.286
		c0.253-1.181-0.099-2.367-0.099-2.367s2.177,2.716,1.25,5.546c-0.657,2.005-2.548,3.302-4.79,2.787
		c-1.555-0.357-3.829-2.195-3.829-2.195s-0.417,2.691-2.396,3.808c-1.98,1.117-4.687,0.724-6.312-0.436
		c-1.626-1.16-2.964-3.724-2.964-3.724s-1.184,2.146-3.737,3.036c-1.506,0.525-4.222,0.356-5.651-2.197
		C316.419,574.417,317.437,571.382,317.437,571.382z"/>
	
		<radialGradient id="SVGID_27_" cx="301.7576" cy="61.6631" r="19.064" gradientTransform="matrix(1 0 0 -1 0.42 672.0261)" gradientUnits="userSpaceOnUse">
		<stop  offset="0" style="stop-color:#FFDECC"/>
		<stop  offset="0.5179" style="stop-color:#F9DCC0"/>
		<stop  offset="1" style="stop-color:#FCEBCE"/>
	</radialGradient>
	<path display="inline" fill="url(#SVGID_27_)" d="M322.282,620.492c-5.89-3.748-6.95-3.762-12.816-7.073
		c-6.982-3.941-17.715-16.213-2.206-39.504c3.645-5.475,15.136,8.507,18.702,19.71C330.778,608.759,326.758,623.341,322.282,620.492
		z"/>
	
		<radialGradient id="SVGID_28_" cx="365.2501" cy="59.7233" r="20.8067" gradientTransform="matrix(1 0 0 -1 0.42 672.0261)" gradientUnits="userSpaceOnUse">
		<stop  offset="0" style="stop-color:#FFDECC"/>
		<stop  offset="0.5179" style="stop-color:#F9DCC0"/>
		<stop  offset="1" style="stop-color:#FCEBCE"/>
	</radialGradient>
	<path display="inline" fill="url(#SVGID_28_)" d="M360.139,585.14c5.355,7.363,6.529,19.927,0,27.109
		c-3.347,3.682-6.029,4.055-12.048,9.036c-6.104,5.051-15.207,4.206-22.744,0.856C318.966,619.306,354.784,577.777,360.139,585.14z"
		/>
	<path display="inline" fill="#57301B" d="M317.119,604.558c7.805,0.524,7.189-7.407,7.114-8.988
		c-0.092-1.956-1.165-2.187-1.341-0.276c-0.258,2.815-1.054,7.25-5.57,6.833c-5.375-0.497-7.734-5.588-8.657-7.311
		c-0.243-0.453-1.068-1.776-0.873,0.288C308.002,597.325,310.723,604.129,317.119,604.558z"/>
	<path display="inline" fill="#57301B" d="M355.141,604.096c-7.405,0.487-8.588-6.972-8.588-8.555c0-1.565,0.664-2.055,1.191-0.21
		c0.847,2.962,1.926,6.133,6.456,6.361c4.735,0.239,5.116-5.079,5.516-6.992c0.35-1.67,1.063-1.184,1.04,0.006
		C360.713,596.938,360.341,603.754,355.141,604.096z"/>
	<g id="形状_77_11_" display="inline">
		<g>
			<path fill="#FFBD99" d="M314.157,606.767c-2.8-0.24-5.182,0.859-5.315,2.454c-0.136,1.595,2.022,3.079,4.821,3.319
				c2.803,0.24,5.182-0.859,5.318-2.454C319.118,608.49,316.957,607.007,314.157,606.767z"/>
		</g>
	</g>
	<path display="inline" fill="#57301B" d="M338.878,613.408c-3.921,0-10.518,0.831-9.202,3.745c1.5,3.324,6.041,4.737,9.126,4.824
		c3.085,0.087,7.665-2.512,7.751-5.514C346.636,613.498,341.299,613.408,338.878,613.408z"/>
	<g id="形状_77_16_" display="inline">
		<g>
			
				<ellipse transform="matrix(0.9964 -0.0853 0.0853 0.9964 -50.7006 32.5648)" fill="#FFBD99" cx="355.739" cy="609.605" rx="5.089" ry="2.897"/>
		</g>
	</g>
	
		<radialGradient id="SVGID_29_" cx="220.0971" cy="-11.5942" r="74.7583" gradientTransform="matrix(1 0 0 -1 0.42 672.0261)" gradientUnits="userSpaceOnUse">
		<stop  offset="0" style="stop-color:#FFC07D"/>
		<stop  offset="0.5713" style="stop-color:#FEB162"/>
		<stop  offset="1" style="stop-color:#FEA852"/>
	</radialGradient>
	<path display="inline" fill="url(#SVGID_29_)" d="M221.33,599.444c-10.889,9.916-25.673,31.571-14.224,64.53
		c11.449,32.959,40.591,45.101,55.162,29.836c14.571-15.265,14.224-40.244,5.204-69.734
		C258.452,594.587,240.759,581.75,221.33,599.444z"/>
	<path display="inline" fill="#FFC07D" d="M275.93,290.567c0,0-31.453-29.946-42.909-44.784
		c-16.685-21.61-29.313-24.818-30.786-4.852c-1.188,16.1-1.242,43.778,25.698,59.265c27.607,15.871,48.924,7.724,48.924,7.724
		S278.912,293.577,275.93,290.567z"/>
	<path display="inline" fill="#FFC07D" d="M316.71,288.699c0,0,24.599-23.358,33.279-36.628
		c8.037-12.286,29.685-44.297,36.463-26.902c6.778,17.396,13.619,67.905-51.114,82.049
		C270.605,321.362,316.71,288.699,316.71,288.699z"/>
	<path display="inline" fill="#FF9B48" d="M267.853,297.648c0,0-20.111-17.748-27.22-25.979
		c-10.354-11.987-18.912-15.152-21.028-6.384c-1.706,7.071,0.795,21.643,14.52,30.134c18.064,11.175,33.416,10.151,33.416,10.151
		S269.75,299.407,267.853,297.648z"/>
	<path display="inline" fill="#FF9B48" d="M325.71,295.961c0,0,21.38-20.03,27.303-26.625c4.75-5.288,18.153-22.762,22.139-15.572
		s2.815,31.283-28.895,43.324C312.609,309.865,325.71,295.961,325.71,295.961z"/>
	
		<radialGradient id="SVGID_30_" cx="360.5345" cy="308.7736" r="64.0461" gradientTransform="matrix(1 0 0 -1 0.42 672.0261)" gradientUnits="userSpaceOnUse">
		<stop  offset="0" style="stop-color:#FECD97"/>
		<stop  offset="1" style="stop-color:#FFC07A"/>
	</radialGradient>
	<path display="inline" fill="url(#SVGID_30_)" d="M259.755,304.857c-5.311,10.509-13.763,34.136-6.026,66.353
		c2.595,10.807,9.925,20.251,18.028,27.254c25.93,22.409,51.065,13.775,58.425,12.476c10.884-1.921,38.415-16.654,43.217-37.458
		s-9.933-24.839-14.726-30.088c-6.723-7.363-11.03-24.198-19.207-40.015c-7.557-14.617-25.648-22.522-40.461-22.641
		C275.188,280.545,264.743,294.988,259.755,304.857z"/>
	<path display="inline" fill="#FFA083" d="M372.383,356.802c-3.999,0.444-8.067,1.933-10.072,4.482
		c-4.444,5.649,7.124,6.229,7.124,6.229c1.344,0.13,3.08-0.045,4.857-0.451C374.476,362.851,373.702,359.517,372.383,356.802z"/>
	<path display="inline" fill="#FFCE99" d="M260.43,339.493c0,0,2.156-10.375,12.673-13.139c10.617-2.791,23.691,2.132,26.024,11.823
		c1.315,5.462-27.37-1.653-27.37-1.653"/>
	<path display="inline" fill="#FFFFFF" d="M261.499,340.33c0,0-0.883,9.733,3.355,14.763c4.412,5.236,13.678,6.704,21.793,3.982
		c12.264-4.114,14.537-19.786,11.289-23.417C291.106,328.023,264.945,327.313,261.499,340.33z"/>
	<g id="Shape_2_17_" display="inline">
		<g>
			<path fill="#9C6342" d="M281.867,360.047c-2.75,0.577-7.001,0.22-10.513-1.029c-3.542-1.259-5.24-3.363-7.293-5.238
				c-1.06-0.968,0.376,3.015,4.394,5.53c-0.774,0.859-1.119,1.967-0.956,2.624c0.171,0.687,0.897-0.895,1.967-1.33
				c0.371-0.151,0.646-0.256,0.853-0.333c0.273,0.113,0.547,0.226,0.838,0.322c0.407,0.134,0.812,0.246,1.213,0.343
				c-0.51,0.786-0.679,1.999-0.591,2.882c0.052,0.511,1.151-0.706,1.761-1.261c0.65-0.591,1.307-1.019,1.604-1.201
				C280.29,361.694,284.006,359.595,281.867,360.047z"/>
		</g>
	</g>
	<path display="inline" fill="#512A15" d="M275.762,330.472c-8.314,0.608-15.454,5.896-14.723,14.488
		c0.879,10.324,7.97,16.001,15.537,15.379c10.682-0.878,11.661-9.334,11.029-17.018C286.918,334.94,279.801,330.177,275.762,330.472
		z"/>
	<path display="inline" fill="#A85726" d="M261.422,321.059c0,0,6.037-6.887,15.671-6.885c15.07,0.003,19.647,10.065,15.854,9.091
		c-3.024-0.776-3.512-6.998-17.043-5.622c-5.169,0.526-10.569,4.178-11.973,5.63C262.177,325.087,259.49,323.851,261.422,321.059z"
		/>
	<path display="inline" fill="#713D1F" d="M260.43,339.493c0,0-4.081,0.254-6.306-2.848c-1.668-2.326-2.348-2.326-1.132,0.479
		c1.708,3.941,4.965,5.427,8.011,6.117c0,0,7.201-10.633,17.242-11.784c12.304-1.409,16.73,1.006,20.883,6.719
		c0,0-2.333-11.156-20.807-9.529C266.697,329.671,260.43,339.493,260.43,339.493z"/>
	<path display="inline" fill="#4F2914" d="M334.254,372.435c-1.498-1.363-1.344-5.523,4.509-6.506
		c7.956-1.337,27.671-2.286,21.277,6.506C355.064,379.278,341.139,378.702,334.254,372.435z"/>
	<path display="inline" fill="#FFA083" d="M270.444,377.33c4.708,1.341,15.177-0.206,14.556-5.114s-15.05-7.053-20.44-2.298
		C259.17,374.674,270.444,377.33,270.444,377.33z"/>
	
		<ellipse transform="matrix(0.0954 0.9954 -0.9954 0.0954 604.1303 26.021)" display="inline" fill="#FFFFFF" cx="287.748" cy="345.41" rx="2.585" ry="4.908"/>
	<path display="inline" fill="#FFCE99" d="M327.088,337.295c0,0,0.662-11.68,11.359-13.637c5.901-1.079,11.211-0.442,13.545,9.249
		c1.315,5.462-20.517-2.011-20.517-2.011"/>
	<path display="inline" fill="#FFFFFF" d="M326.559,340.238c0,0,1.074,4.241,5.312,9.271c4.412,5.236-1.363,7.382,10.36,6.733
		c15.411-0.853,12.479-21.106,9.231-24.737C344.634,323.871,330.006,327.221,326.559,340.238z"/>
	<g id="Shape_2_15_" display="inline">
		<g>
			<path fill="#9C6342" d="M351.957,352.181c2.334-3.432,2.19-7.584,1.671-6.389c-1.006,2.313-1.661,4.751-4.022,6.868
				c-2.341,2.099-6.972,3.526-9.298,3.695c-1.82,0.13,2.722,1.181,7.008-0.516c0.226,0.071,0.935,0.311,1.708,0.746
				c0.651,0.367,1.894,1.235,1.773,0.737c-0.212-0.862-0.731-1.972-1.38-2.584c0.288-0.195,0.57-0.406,0.842-0.637
				c0.196-0.167,0.374-0.345,0.551-0.523c0.186,0.018,0.434,0.047,0.771,0.093c0.972,0.134,2.04,1.445,1.955,0.749
				C353.453,353.755,352.833,352.793,351.957,352.181z"/>
		</g>
	</g>
	<path display="inline" fill="#512A15" d="M335.505,330.178c-8.336,0.087-9.574,8.775-9.095,14.383
		c0.679,7.952,7.046,12.236,11.585,11.695c8.865-1.056,9.85-10.361,9.38-14.784C346.534,333.556,342.201,330.108,335.505,330.178z"
		/>
	<path display="inline" fill="#A85726" d="M324.421,321.66c0,0,4.445-5.078,11.649-6.559c9.804-2.015,11.41,5.435,9.087,5.135
		c-1.852-0.239-2.07-3.761-10.42-2.059c-3.189,0.65-8.339,4.677-9.288,5.544C324.723,324.386,322.609,323.583,324.421,321.66z"/>
	<path display="inline" fill="#713D1F" d="M350.625,329.285c0,0,2.482-0.58,3.632-3.707c0.718-1.952,1.707-3.799,1.509-1.041
		c-0.279,3.875-1.712,6.683-3.611,7.924c0,0-5.633-5.08-12.636-3.976c-4.492,0.708-10.896,2.85-12.43,8.811
		c0,0,0.93-8.811,11.85-11.27C346.923,324.226,350.625,329.285,350.625,329.285z"/>
	
		<ellipse transform="matrix(0.0954 0.9954 -0.9954 0.0954 656.1956 -35.4351)" display="inline" fill="#FFFFFF" cx="347.595" cy="343.329" rx="2.585" ry="4.908"/>
	<path display="inline" fill="#FFA083" d="M320.695,400.574c8.254-2.751,22.657-2.386,26.227-1.295
		c5.194,1.588,1.661,3.075-0.388,2.428s-18.939-1.053-25.516,1.618C315.84,405.429,315.062,402.452,320.695,400.574z"/>
	<path display="inline" fill="#66361F" d="M252.649,325.577c-0.976,5.848,22.009-10.594,29.975-19.214
		c2.741-2.966,9.38,8.805,30.438,14.357c8.351,2.201,15.808-12.309,17.417-15.314c0.957-1.787,16.877,17.009,16.022,13.537
		c-7.247-29.418-32.683-38.086-47.496-38.206C275.188,280.545,257.839,294.484,252.649,325.577z"/>
	<path display="inline" fill="#E5432E" d="M255.525,313.53c0,0,21.918-21.125,47.723-20.369s32.76,6.891,37.217,10.958
		c0,0-1.299-3.392-7.165-9.212c0,0-9.99-7.824-16.126-8.207c0,0,7.321,0.199,19.64-13.704c13.286-14.995,10.486-33.003,9.924-37.966
		c-0.417-3.679-0.638-9.012-9.349-6.328c-7.261,2.237-26.125,9.908-31.368,36.734c-4.809,24.601-1.202-4.513-24.43-23.12
		c-9.2-7.37-19.75-10.615-27.862-11.505c-3.16-0.346-9.918-0.383-9.911,5.944c0.004,3.84,3.584,32.666,23.142,43.979
		s22.632,6.775,22.632,6.775s-19.594,4.625-30.029,16.261C259.563,303.771,256.994,308.039,255.525,313.53z"/>
	<path display="inline" fill="#DEC8B5" d="M468.373,602.954c-1.755-0.778-2.903-1.124-2.772-2.448
		c0.095-0.956,1.264-1.587,3.444-0.832c1.951,0.676,14.962,6.773,11.341,19.754c-0.11,0.395-0.591,2.415-2.108,1.755
		c-1.07-0.466-0.806-1.913-0.727-2.397C477.872,616.805,479.166,607.741,468.373,602.954z"/>
	<path display="inline" fill="#DEC8B5" d="M479.737,599.715c-1.371-0.608-2.267-0.878-2.164-1.911
		c0.074-0.747,0.987-1.24,2.689-0.65c1.524,0.528,11.683,5.289,8.856,15.424c-0.086,0.308-0.462,1.886-1.646,1.37
		c-0.836-0.364-0.629-1.494-0.568-1.872C487.154,610.531,488.164,603.453,479.737,599.715z"/>
	<path display="inline" fill="#E5E5E5" d="M434.467,136.153c0,18.469-18.387,33.442-42.594,33.442H216.117
		c-24.207,0-42.594-14.972-42.594-33.442v-5.807c0-18.469,18.387-33.442,42.594-33.442h175.756
		c24.207,0,42.594,14.972,42.594,33.442L434.467,136.153L434.467,136.153z"/>
	<path display="inline" fill="#E5E5E5" d="M298.088,165.643c0,0-0.024,15.259-8.054,22.27s20.014,2.062,29.087-22.27
		C328.194,141.311,298.088,165.643,298.088,165.643z"/>
</g>
<g id="图层_4" display="none">
	
		<radialGradient id="SVGID_31_" cx="598.1954" cy="228.1889" r="172.9613" gradientTransform="matrix(0.9999 -0.0136 -0.0136 -0.9999 6.9534 672.1127)" gradientUnits="userSpaceOnUse">
		<stop  offset="0" style="stop-color:#FFC07D"/>
		<stop  offset="0.5713" style="stop-color:#FEB162"/>
		<stop  offset="1" style="stop-color:#FEA852"/>
	</radialGradient>
	<path display="inline" fill="url(#SVGID_31_)" d="M410.452,466.258c0,0,33.255,41.208,63.955,33.167s31.68-28.537,31.525-39.986
		s-3.119-24.809-4.16-28.553c-1.881-6.767-0.283-16.735,11.361,3.171c14.097,24.099,34.42,84.635-17.139,127.155
		c-40.418,33.332-77.033,21.253-77.033,21.253L410.452,466.258"/>
	<path display="inline" fill="#FFBF80" d="M433.423,544.923c0,0,46.095,8.711,67.802-9.506
		c21.706-18.217,27.197-45.593,27.533-52.451c0,0,8.95,53.931-46.695,88.13c-33.919,20.846-54.682,10.773-54.682,10.773
		L433.423,544.923z"/>
	
		<radialGradient id="SVGID_32_" cx="326.6009" cy="273.289" r="196.2025" gradientTransform="matrix(0.9999 -0.0136 -0.0136 -0.9999 6.9534 672.1127)" gradientUnits="userSpaceOnUse">
		<stop  offset="0" style="stop-color:#FFC07D"/>
		<stop  offset="0.5713" style="stop-color:#FEB162"/>
		<stop  offset="1" style="stop-color:#FEA852"/>
	</radialGradient>
	<path display="inline" fill="url(#SVGID_32_)" d="M314.679,343.483c0,0-46.507,118.509-62.994,146.659
		s-27.675,54.294-26.376,80.309c1.299,26.015,38.826,35.919,45.196,51.926c6.37,16.007-11.983,23.829-18.583,25.811
		c-6.6,1.983-48.615,10.125-63.668,16.956s-38.977,22.775-30.26,37.329c0,0,1.139,14.184,21.871,7.277c0,0,6.471,5.119,59.22-22.576
		c52.749-27.694,68.488-18.915,62.942-43.926c-5.546-25.011-6.115-32.103,2.896-30.805c9.011,1.298,38.07,15.103,62.007,0.106
		c0,0,11.505,10.73,5.623,30.69c-5.883,19.959,5.456,18.386,25.243,46.517c19.788,28.131,55.761,63.142,62.245,52.641
		c0,0,25.261,12.911,24.992-6.965c0,0,18.347-8.295-8.034-33.97c-26.381-25.675-81.631-45.171-78.528-66.62
		c3.064-21.177,42.772-37.314,50.645-59.801c4.64-13.256,5.329-35.666-18.568-78.742c-12.854-23.17-62.887-81.877-74.077-158.288
		C345.281,261.6,314.679,343.483,314.679,343.483z"/>
	<path display="inline" fill="#DD7528" d="M485.033,735.432c0,0,0.57-8.083-7.559-18.702c-3.077-4.02-5.109-5.932-8.983-8.942
		c-3.319-2.579,2.116-0.263,2.857,0.09C477.024,710.589,490.033,723.361,485.033,735.432z"/>
	<path display="inline" opacity="0.6" fill="#DD7528" enable-background="new    " d="M355.992,334.322c0,0,0.828,6.177,1.087,7.642
		c0.258,1.465-36.768,37.254-46.627,12.411l3.354-8.676L355.992,334.322z"/>
	<g id="形状_12_3_" display="inline">
		<g>
			
				<linearGradient id="SVGID_33_" gradientUnits="userSpaceOnUse" x1="327.7184" y1="151.1447" x2="325.8897" y2="315.7262" gradientTransform="matrix(0.9999 -0.0136 -0.0136 -0.9999 6.9534 672.1127)">
				<stop  offset="0" style="stop-color:#FFC28A"/>
				<stop  offset="0.7938" style="stop-color:#FFCD9F"/>
				<stop  offset="1" style="stop-color:#FFD0A5"/>
			</linearGradient>
			<path fill="url(#SVGID_33_)" d="M359.177,415.495c-16.382-29.35-40.907-28.144-55.851,1.223
				c-12.398,24.364-25.639,83.919-13.741,120.681c9.809,30.304,75.515,31.424,85.283,2.098
				C387.962,500.187,371.149,436.944,359.177,415.495z"/>
		</g>
	</g>
	<path display="inline" opacity="0.6" fill="#DD7528" enable-background="new    " d="M248.441,513.461
		c0,0,38.615,9.007,79.767,8.449c38.802-0.526,66.36-3.329,88.779-3.633C417.812,518.267,320.45,622.406,248.441,513.461z"/>
	<path display="inline" fill="#FFBF80" d="M242.327,522.883c0.093,6.838-2.556,50.428,38.565,83.346
		c41.121,32.918,91.081,27.561,119.122-1.615c28.041-29.176,28.104-63.553,25.934-78.341c-1.586-10.814-15.193-7.187-10.547-8.374
		s-111.203,29.544-162.51-2.818C243.521,509.17,242.327,522.883,242.327,522.883z"/>
	<path display="inline" opacity="0.4" fill="#DD7528" enable-background="new    " d="M297.159,543.858
		c0,0,11.442,22.128,21.678,20.575c0,0,1.205-7.234-7.952-27.512c-0.939-2.079,14.011,10.136,26.132,4.046
		c6.043-3.036,4.267-3.585,10.784-5.597c6.516-2.013-4.914,15.827-9.306,18.009c-4.392,2.182-14.529,14.522-17.784,14.036
		c0,0,0.753,6.2,3.813,6.969c3.039,0.763,7.854,1.296,11.402,0.187s2.861-3.995,2.675-4.7c0,0,26.19-20.893,22.093-42.425
		c-4.097-21.532-18.079-9.316-19.322-9.653C340.13,517.455,289.538,503.462,297.159,543.858z"/>
	<path display="inline" fill="#FCEBCE" d="M306.5,493.239c0,0-17.827,3.171-24.024-17.125c-4.149-13.59,4.779-13.059,15.258-8.869
		c10.838,4.334,17.916,16.005,17.983,20.937S306.5,493.239,306.5,493.239z"/>
	<path display="inline" fill="#FCEACB" d="M342.574,484.987c0,0,8.099-14.139,20.243-17.205c12.145-3.066,19.508-4.083,15.919,9.355
		s-11.916,19.934-27.295,19.852C336.063,496.907,342.574,484.987,342.574,484.987z"/>
	<path display="inline" fill="#FFBD99" d="M310.3,490.867c0,0-15.15-0.112-19.082-11.941c-3.18-9.099,3.73-7.212,7.285-5.888
		s12.296,7.377,11.761,15.218C309.73,496.097,310.3,490.867,310.3,490.867z"/>
	<path display="inline" fill="#FFBD99" d="M347.02,486.525c0,0,7.662-11.073,16.567-13.909c7.063-2.249,8.635,2.689,4.926,10.186
		c-2.535,5.123-9.913,9.698-20.952,8.687S347.02,486.525,347.02,486.525z"/>
	
		<radialGradient id="SVGID_34_" cx="356.7279" cy="162.0009" r="15.0208" gradientTransform="matrix(1 0 0 -1 0.42 672.0261)" gradientUnits="userSpaceOnUse">
		<stop  offset="0" style="stop-color:#F9D0B5"/>
		<stop  offset="1" style="stop-color:#F9E7CB"/>
	</radialGradient>
	<path display="inline" fill="url(#SVGID_34_)" d="M355.852,499.86c0,0,11.683,23.921,11.217,26.823c0,0-7.503,0.931-8.249,0.761
		S355.852,499.86,355.852,499.86z"/>
	<path display="inline" fill="#5E331D" d="M314.535,539.729c-0.589,0.066-2.543,0.273-2.428,3.36s6.364,26.041,6.364,26.041
		s-0.59,2.306,2.028,2.899c2.618,0.593,10.908,1.565,12.67,1.358c2.918-0.342,3.111-1.483,3.267-2.597
		c0.435-3.115-4.367-25.233-4.677-26.436s-0.303-3.104-3.497-3.718C324.017,539.82,317.077,539.444,314.535,539.729z"/>
	<path display="inline" fill="#754E37" d="M312.141,543.5c0,0-0.518-1.717,1.864-1.881c3.397-0.234,12.423,0.671,13.497,0.901
		c0.92,0.197,1.856,0.641,2.092,1.832c0.365,1.846,5.14,25.892,4.943,27.143c-0.165,1.052-0.584,1.894-2.547,1.797
		c-7.044-0.348-10.189-1.021-11.491-1.263s-2.372-1.033-2.94-3.975C316.996,565.135,312.042,545.432,312.141,543.5"/>
	<path display="inline" fill="#826451" d="M331.846,555.895c0,0,2.65,13.488,2.704,14.559c0.054,1.072,0.108,3.042-2.465,2.945
		s-9.659-0.534-12.157-1.525C317.503,570.911,328.226,561.136,331.846,555.895z"/>
	<path display="inline" fill="#5E331D" d="M316.741,544.043c0.053,0.761-0.559,1.406-1.366,1.441
		c-0.807,0.034-1.504-0.555-1.557-1.317c-0.053-0.761,0.559-1.406,1.366-1.441C315.991,542.692,316.688,543.282,316.741,544.043z"/>
	<path display="inline" fill="#F9E7CB" d="M298.018,512.244c0,0-7.935,8.394-4.16,24.914s17.84,23.669,21.611,22.434l-3.289-15.58
		c0,0-7.878-4.811-7.365-19.404S298.018,512.244,298.018,512.244z"/>
	<path display="inline" fill="#F9E7CB" d="M347.047,526.021c0,0,2.051,9.205-7.361,17.382s-16.951,15.145-9.021,19.535
		c8.349,4.622,37.544-24.657,29.208-45.85C351.537,495.894,347.047,526.021,347.047,526.021z"/>
	<path display="inline" fill="#FCEBCE" d="M299.664,502.617c2.026-4.653,9.776-27.987,28.938-27.086s29.359,25.425,30.908,32.658
		c1.549,7.233,2.863,18.531-7.824,22.157c-10.686,3.627-12.435,3.07-18.189,6.63c-5.755,3.56-15.347,2.239-19.456-1.187
		c-4.109-3.426-9.416-5.848-12.3-8.377C297.487,523.68,291.785,520.713,299.664,502.617z"/>
	<path display="inline" fill="#F6BF96" d="M332.133,556.267c-1.184,1.329-3.201,3.334-4.33,3.987
		c0.109,0.219,0.254,0.432,0.41,0.643c0.69-0.431,1.601-1.129,2.458-1.961C332.702,556.963,333.975,554.197,332.133,556.267z"/>
	<path display="inline" fill="#F6BF96" d="M335.135,558.804c-0.76,0.994-2.574,3.322-4.258,4.248c0.356,0.148,0.716,0.287,1.1,0.372
		c0.797-0.514,1.705-1.507,2.376-2.293C335.762,559.484,336.159,557.468,335.135,558.804z"/>
	<path display="inline" fill="#F7CC9D" d="M343.517,487.308c-0.635,4.024-1.079,5.022-3.558,5.661
		c-3.05,0.787-6.178-2.593-7.256-3.783c0,0-1.622,4.121-4.435,5.326c-2.999,1.286-5.169,0.464-6.485-1.428
		c-0.797-1.147-0.813-3.269-0.813-3.269s-2.664,3.529-6.578,2.914c-2.332-0.366-2.327-2.883-2.621-4.193
		c-0.293-1.309,0.085-2.631,0.085-2.631s-2.389,3.04-1.33,6.173c0.751,2.22,2.865,3.641,5.35,3.046
		c1.723-0.413,4.23-2.479,4.23-2.479s0.492,2.985,2.702,4.205c2.211,1.22,5.213,0.755,7.007-0.551
		c1.793-1.306,3.253-4.168,3.253-4.168s1.337,2.372,4.182,3.333c1.679,0.567,4.694,0.351,6.254-2.5
		C345.075,490.097,343.517,487.308,343.517,487.308z"/>
	
		<radialGradient id="SVGID_35_" cx="356.3847" cy="142.9849" r="19.0522" gradientTransform="matrix(1 0 0 -1 0.42 672.0261)" gradientUnits="userSpaceOnUse">
		<stop  offset="0" style="stop-color:#FFDECC"/>
		<stop  offset="0.5179" style="stop-color:#F9DCC0"/>
		<stop  offset="1" style="stop-color:#FCEBCE"/>
	</radialGradient>
	<path display="inline" fill="url(#SVGID_35_)" d="M333.901,525.682c0,3.539,0.903,6.844,2.452,9.693
		c3.847-1.895,6.618-2.072,15.333-5.029c10.597-3.596,9.393-14.731,7.862-21.969c-2.353-1.227-4.982-1.934-7.772-1.934
		C341.904,506.442,333.901,515.056,333.901,525.682z"/>
	
		<radialGradient id="SVGID_36_" cx="294.7823" cy="146.3112" r="17.5629" gradientTransform="matrix(1 0 0 -1 0.42 672.0261)" gradientUnits="userSpaceOnUse">
		<stop  offset="0" style="stop-color:#FFDECC"/>
		<stop  offset="0.5179" style="stop-color:#F9DCC0"/>
		<stop  offset="1" style="stop-color:#FCEBCE"/>
	</radialGradient>
	<path display="inline" fill="url(#SVGID_36_)" d="M300.655,500.906c-0.099,0-0.195,0.013-0.294,0.015
		c-0.274,0.679-0.518,1.282-0.698,1.696c-7.879,18.096-2.177,21.063,2.077,24.795c2.884,2.53,8.191,4.951,12.3,8.377
		c0.07,0.058,0.169,0.104,0.242,0.161c4.021-3.69,6.557-8.971,6.557-14.859C320.84,509.943,311.803,500.906,300.655,500.906z"/>
	<g id="形状_77_9_" display="inline">
		<g>
			<path fill="#FFBD99" d="M302.755,518.013c-2.554-0.301-4.761,0.705-4.925,2.247c-0.166,1.542,1.768,3.033,4.322,3.334
				c2.557,0.301,4.761-0.705,4.927-2.246C307.247,519.805,305.309,518.314,302.755,518.013z"/>
		</g>
	</g>
	<g id="形状_77_副本_2_" display="inline">
		<g>
			<path fill="#FFBD99" d="M349.886,521.219c-2.649,0.015-4.787,1.206-4.779,2.658c0.011,1.457,2.167,2.627,4.816,2.612
				c2.651-0.01,4.79-1.201,4.779-2.658C354.692,522.379,352.538,521.209,349.886,521.219z"/>
		</g>
	</g>
	<path display="inline" fill="#57301B" d="M339.189,512.291c-1.422,0.835-3.087,2.425-2.336,3.2s3.287-0.975,4.294-1.425
		c2.677-1.195,6.582-3.375,14.223-1.934c2.449,0.462,2.296-1.403-0.598-2.016C350.027,509.11,344.078,509.419,339.189,512.291z"/>
	<path display="inline" fill="#57301B" d="M301.775,506.499c4.174,0.707,10.916,3.312,13.481,6.7
		c1.238,1.635,0.353,2.969-1.368,1.61s-8.298-6.217-11.98-6.625C299.688,507.937,299.41,506.099,301.775,506.499z"/>
	<path display="inline" fill="#57301B" d="M322.504,529.084c3.764,0.055,9.541,0.752,8.78,3.725
		c-0.992,3.88-5.866,4.461-8.829,4.501s-7.323-2.52-7.362-5.403C315.055,529.061,320.18,529.05,322.504,529.084z"/>
	<path display="inline" fill="#4C2816" d="M296.472,386.139c0,0-6.06,1.041-4.666,9.494c1.393,8.453,22.221,70.987,22.221,70.987
		s0.633,5.266,6.438,6.146s23.85,1.179,27.532,0.106c6.098-1.776,6.086-4.967,6.004-8.073c-0.23-8.685-20.519-72.288-20.519-72.288
		s-1.039-6.379-8.08-6.763C318.359,385.363,296.472,386.139,296.472,386.139z"/>
	<path display="inline" fill="#664232" d="M291.884,390.828c0,0,0.159-0.633,1.647-0.655c7.349-0.107,28.527-0.836,30.904-0.511
		c2.037,0.278,4.198,1.23,5.143,4.437c1.464,4.968,20.588,69.687,20.634,73.183c0.039,2.939-0.541,5.371-4.765,5.666
		c-15.156,1.059-22.115,0.11-24.983-0.183s-5.999-2.203-7.749-10.084C310.493,453.887,288.084,392.738,291.884,390.828"/>
	<path display="inline" fill="#826451" d="M311.547,455.399c0,0,21.352-14.783,27.125-30.222c0,0,10.666,36.309,11.179,39.238
		s1.361,8.329-4.164,8.799s-27.273,1.668-29.467-2.463C314.026,466.619,311.547,455.399,311.547,455.399z"/>
	
		<ellipse transform="matrix(0.1869 0.9824 -0.9824 0.1869 633.5893 29.5401)" display="inline" fill="#845140" cx="298.95" cy="397.517" rx="3.829" ry="3.15"/>
	
		<ellipse transform="matrix(0.2923 0.9563 -0.9563 0.2923 591.6381 -3.5271)" display="inline" fill="#2A1B14" cx="298.202" cy="397.985" rx="2.912" ry="2.376"/>
	
		<ellipse transform="matrix(0.2923 0.9563 -0.9563 0.2923 591.6381 -3.5271)" display="inline" fill="#482D23" cx="298.202" cy="397.985" rx="1.769" ry="1.304"/>
	
		<ellipse transform="matrix(0.2923 0.9563 -0.9563 0.2923 590.9865 -4.9967)" display="inline" fill="#7C5D52" cx="298.869" cy="396.81" rx="0.714" ry="0.68"/>
	<path display="inline" fill="#754E37" d="M329.828,394.949c0,0,1.599,0.085,3.94-1.534l0.198,0.625c0,0-2.487,1.645-3.975,1.465
		L329.828,394.949z"/>
	<path display="inline" fill="#754E37" d="M349.852,464.416c0,0,1.594,0.091,3.935-1.528l0.117,0.801c0,0-2.486,1.537-3.974,1.356
		L349.852,464.416z"/>
	<path display="inline" fill="#FF9B48" d="M384.652,422.92c4.686,8.967,3.306,10.829-3.703,13.904
		c-8.48,3.72-15.192,9.443-23.634,3.13c-3.908-2.922-3.615-4.27-11.35-6.786c0,0,7.227,25.72,7.525,28.337
		s51.096-1.704,60.119-12.835c9.024-11.132-10.076-38.486-24.095-57.542c-16.9-22.972-23.556-30.643-27.923-40.293
		C349.022,323.061,364.068,383.527,384.652,422.92z"/>
	<path display="inline" fill="#DD7528" d="M157.995,702.473c0,0-9.26-13.323,16.366-22.209c0,0,8.107-3.651-1.821,1.862
		C162.259,687.836,155.591,693.394,157.995,702.473z"/>
	<path display="inline" fill="#DD7528" d="M179.956,709.749c0,0-23.811-12.905,17.354-28.178c6.334-2.35,0.914,0.798-5.004,3.947
		C187.508,688.07,167.289,698.294,179.956,709.749z"/>
	<path display="inline" fill="#DD7528" d="M460.042,742.397c0,0,4.781-5.5,1.333-14.94c-1.704-4.665-5.916-8.248-10.082-11.979
		c-1.839-1.646-6.682-5.22-8.101-6.332c-4.914-3.852,19.704,5.23,22.205,21.069C466.941,739.996,460.042,742.397,460.042,742.397z"
		/>
	<path display="inline" fill="#FF9B48" d="M315.349,461.109c-1.583-0.765,12.653-6.797,10.73-13.324
		c-1.65-5.6-11.145,0.257-17.272,0.36c-1.191,0.02-3.496-0.666-3.585-0.729c0.026-0.058,0.946-2.085,1.135-4.1l-0.001-0.004
		c0-0.003,0.001-0.006,0.001-0.009l-2.385-7.352c0,0-7.279,9.874-7.516,11.712s-15.527-4.508-17.443-10.511
		c-0.007-0.022-0.006-0.06-0.012-0.083c-0.859-3.306,6.486-17.236,14.525-34.656c-0.898-3.149-1.519-5.541-1.721-6.768
		c-1.393-8.452,4.667-9.494,4.667-9.494s1.698-0.06,4.258-0.137c4.756-11.542,8.925-23.583,10.777-34.488
		c0,0-9.762,20.09-39.362,53.895c-0.087,0.099-0.162,0.176-0.25,0.276c-14.907,16.998-20.043,28.455-19.993,36.316
		c0.045,7.864,5.277,12.133,11.118,14.749c11.679,5.231,29.908,3.944,38.136,9.433c6.248,4.168,14.437,4.531,14.769,4.54
		c0.097,0.003,0.2,0.014,0.296,0.015c-0.004-0.004-0.007-0.009-0.012-0.013c4.454,0.078,8.014-1.015,8.51-3.275
		C325.757,462.731,316.932,461.874,315.349,461.109z"/>
	
		<radialGradient id="SVGID_37_" cx="323.9462" cy="341.8066" r="62.8965" gradientTransform="matrix(0.9999 -0.0136 -0.0136 -0.9999 6.9534 672.1127)" gradientUnits="userSpaceOnUse">
		<stop  offset="0" style="stop-color:#FECD97"/>
		<stop  offset="1" style="stop-color:#FFC07A"/>
	</radialGradient>
	<path display="inline" fill="url(#SVGID_37_)" d="M326.115,203.898c-18.899,0.256-33.909,6.562-39.484,21.733
		s-0.43,38.611-4.888,65.906c-3.862,23.649,3.302,33.391,8.568,39.709c3.494,4.193,14.776,20.359,37.802,20.043
		c21.884-0.301,48.067-22.074,51.392-50.478c1.819-15.54-1.236-23.262-2.554-50.736C375.589,221.69,348.546,203.593,326.115,203.898
		z"/>
	<path display="inline" fill="#FFCE99" d="M283.073,275.04c0,0,1.731-10.26,12.21-7.052s17.487,18.353,17.336,23.96
		C312.468,297.556,283.073,275.04,283.073,275.04"/>
	<path display="inline" fill="#FFCE99" d="M343.052,283.311c0,0-1.14-23.478,17.506-20.979c16.862,2.26,16.118,13.867,16.118,13.867
		"/>
	<path display="inline" fill="#FFFFFF" d="M283.164,279.499c0,0-0.969,9.174,2.131,14.963c4.15,7.749,12.711,11.809,20.793,10.613
		s8.591-11.651,2.968-20.807C303.432,275.112,286.446,264.093,283.164,279.499z"/>
	<path display="inline" fill="#FFFDFC" d="M365.095,267.177c0,0,14.277,3.305,11.376,21.686
		c-2.604,16.495-11.519,15.714-17.812,15.222c-4.264-0.333-16.104-4.712-15.63-21.13
		C343.576,264.021,365.095,267.177,365.095,267.177z"/>
	<path display="inline" fill="#512A15" d="M353.016,281.396c2.524-8.413,13.066-9.48,18.252,1.452
		c3.602,7.591,2.766,15.667-0.677,18.762c-4.14,3.722-12.833,5.507-17.38-5.813C350.544,289.157,353.016,281.396,353.016,281.396z"
		/>
	<g id="Shape_2_12_" display="inline">
		<g>
			<path fill="#9C6342" d="M300.437,305.096c-2.789-0.303-6.716-1.841-9.664-4.113c-2.973-2.291-4.335-4.798-5.704-7.213
				c-0.681-1.201-0.331,2.663,2.489,6.189c-1.032,0.572-1.726,1.544-1.775,2.231c-0.05,0.705,1.128-0.572,2.279-0.654
				c0.402-0.029,0.699-0.044,0.92-0.052c0.349,0.322,0.715,0.638,1.117,0.933c0.181,0.133,0.364,0.261,0.547,0.384
				c-0.693,0.601-1.199,1.663-1.383,2.502c-0.109,0.502,1.311-0.314,2.062-0.652c0.633-0.285,1.234-0.47,1.627-0.575
				C298.01,306.343,302.712,305.341,300.437,305.096z"/>
		</g>
	</g>
	<g id="Shape_2_10_" display="inline">
		<g>
			<path fill="#9C6342" d="M374.784,298.443c1.616-3.374,1.18-6.465,0.699-5.147c-1.019,2.789-1.441,4.804-4.671,7.984
				c-3.401,3.349-7.434,3.201-10.109,2.978c-2.478-0.206,4.589,2.487,10.187-1.271c0.38,0.08,0.907,0.212,1.463,0.418
				c0.738,0.274,2.145,0.961,2.009,0.49c-0.25-0.858-0.885-1.937-1.674-2.419c0.415-0.43,0.778-0.877,1.099-1.333
				c0.219-0.008,0.536-0.015,1.001-0.013c1.101,0.005,2.309,1.147,2.215,0.478C376.902,299.877,376.004,298.861,374.784,298.443z"/>
		</g>
	</g>
	<path display="inline" fill="#512A15" d="M299.774,277.964c-3.04,0.041-7.057,2.013-6.939,10.621
		c0.138,10.043,5.329,14.609,10.582,15.777c5.361,1.192,8.539-0.974,9.396-6.877C313.782,290.823,308.999,277.839,299.774,277.964z"
		/>
	<path display="inline" fill="#A85726" d="M286.231,256.607c0,0,3.653-6.887,13.643-0.76c9.062,5.558,9.81,14.341,5.752,10.795
		c-2.347-2.051-4.336-7.019-8.2-9.004c-4.613-2.371-8.317-0.765-9.538,0.838C286.369,260.47,284.844,258.413,286.231,256.607z"/>
	<path display="inline" fill="#A85726" d="M342.681,259.468c1.598-2.911,5.698-9.688,16.805-8.732
		c8.272,0.712,11.29,6.042,11.647,6.661c1.127,1.952,0.289,2.947-1.4,1.95c-2.229-1.316-4.069-5.476-10.227-5.777
		c-6.914-0.338-12.436,3.948-14.088,7.61C344.255,263.76,340.705,263.068,342.681,259.468z"/>
	<path display="inline" fill="#713D1F" d="M282.277,278.201c0,0-2.321-0.675-3.434-2.6c-1.112-1.925-0.365,0.844-0.055,1.654
		c0.378,0.988,1.413,2.564,4.387,3.5c0,0-0.034-8.626,8.587-7.967s18.866,12.391,20.754,20.046c0,0-1.758-15.183-15.417-21.205
		C283.441,265.607,282.277,278.201,282.277,278.201z"/>
	<path display="inline" fill="#713D1F" d="M343.052,283.311c0,0-1.01-19.883,17.797-18.469c11.321,0.852,15.25,8.84,15.884,9.84
		c0,0,2.809,0.714,5.03-2.796c1.53-2.418,1.08-0.533,0.395,1.731c-0.463,1.531-1.978,4.454-6.169,4.347c0,0-4.912-8.66-14.155-9.995
		C355.539,267.061,344.611,269.264,343.052,283.311z"/>
	<path display="inline" fill="#4F2914" d="M309.675,329.971c-1.221-1.613-2.308-4.116,3.536-5.099
		c7.943-1.335,27.143-1.466,20.198,6.17C326.524,338.612,316.257,338.667,309.675,329.971z"/>
	<path display="inline" fill="#FFA083" d="M288.581,314.757c3.757,0.994,12.115-0.164,11.623-3.815s-12.008-5.236-16.314-1.695
		C279.584,312.789,288.581,314.757,288.581,314.757z"/>
	<path display="inline" fill="#FFA083" d="M359.448,313.313c6.491,2.444,18.144-1.2,13.368-4.538
		c-5.345-3.736-12.312-1.92-14.734-0.668C355.66,309.358,354.845,311.58,359.448,313.313z"/>
	
		<ellipse transform="matrix(0.0136 0.9999 -0.9999 0.0136 586.9685 -1.8334)" display="inline" fill="#FFFFFF" cx="294.413" cy="296.586" rx="2.581" ry="4.9"/>
	
		<ellipse transform="matrix(0.0136 0.9999 -0.9999 0.0136 644.2508 -61.499)" display="inline" fill="#FFFFFF" cx="353.296" cy="295.787" rx="2.581" ry="4.633"/>
	<path display="inline" fill="#FFC07D" d="M294.865,233.184c0,0-46.136,8.598-61.301-39.678
		c-10.2-32.469,4.466-71.229,18.147-50.391c13.68,20.839,24.493,45.452,53.371,70.486S294.865,233.184,294.865,233.184z"/>
	<path display="inline" fill="#FFC07D" d="M350.412,215.292c0,0,19.178-33.664,35.265-60.079
		c6.212-10.201,20.111-26.68,27.152-27.827c8.987-1.465,17.052,23.337,15.88,38.594c-1.927,25.091-12.767,58.479-61.262,68.808
		C301.994,248.729,350.412,215.292,350.412,215.292z"/>
	<path display="inline" fill="#FF9B48" d="M296.351,229.024c0,0-37.085-5.707-45.291-39.49
		c-8.206-33.782,11.177-13.312,15.248-7.937c4.071,5.374,23.944,28.353,32.909,37.072S296.351,229.024,296.351,229.024z"/>
	<path display="inline" fill="#FF9B48" d="M358.935,220.352c0,0,32.573-39.977,37.208-48.796s18.002-21.555,16.58,3.703
		c-1.968,34.974-39.082,47.863-47.808,51.217S358.935,220.352,358.935,220.352"/>
	<path display="inline" fill="#66361F" d="M325.88,201.351c0,0-47.319-4.303-42.136,53.963c0,0,7.133-9.614,12.874-12.582
		s14.034,16.138,19.947,18.823c7.358,3.341,15.371-8.911,31.713-22.414c5.774-4.771,26.962,20.386,29.077,18.216
		C378.235,256.455,378.843,200.529,325.88,201.351z"/>
	<path display="inline" fill="#E5432E" d="M307.894,209.903c0,0-25.93-9.544-37.612-42.554
		c-10.105-28.556,0.342-27.583,21.437-13.379c14.089,9.487,25.362,25.827,28.812,35.091c3.319,8.914-1.77-11.046,34.035-38.231
		s27.2,0.872,24.326,11.247c-2.874,10.374-12.546,39.282-39.165,45.242c0,0,25.834,13.14,36.466,34.959c0,0,0.562,0.927,1.177,7.396
		c0.5,5.253-48.2-55.1-93.804-7.591c0,0,0.166-4.04,1.056-9.324C285.448,227.842,297.518,214.623,307.894,209.903z"/>
	<path display="inline" fill="#E5E5E5" d="M257.23,281.547c0,25.3-16.449,45.809-58.514,45.809h-97.524
		c-41.014,0-58.514-20.509-58.514-45.809v-19.019c0-25.3,15.459-45.809,58.514-45.809h97.524c41.045,0,58.514,20.509,58.514,45.809
		V281.547z"/>
	<path display="inline" fill="#E5E5E5" d="M185.195,322.019c0,0,16.76,21.431,40.37,23.8c12.51,1.255-5.187-0.533-9.385-25.297
		C213.332,303.717,185.195,322.019,185.195,322.019z"/>
</g>
<g id="图层_5" display="none">
	
		<radialGradient id="SVGID_38_" cx="169.231" cy="-42.4091" r="135.179" gradientTransform="matrix(1 0 0 -1 0.42 672.0261)" gradientUnits="userSpaceOnUse">
		<stop  offset="0" style="stop-color:#FFC07D"/>
		<stop  offset="0.5713" style="stop-color:#FEB162"/>
		<stop  offset="1" style="stop-color:#FEA852"/>
	</radialGradient>
	<path display="inline" fill="url(#SVGID_38_)" d="M364.608,627.982c0,0,13.461,21.315,12.485,31.558
		c-0.792,8.319,0.062,21.915-33.78,21.915s-92.164-6.121-114.489,9.643c-19.241,13.586-7.013,21.915,0,22.792
		c0,0,3.506,11.396,26.298,6.136c0,0,8.38,7.889,53.279-3.506c44.9-11.396,103.669-20.132,92.255-41.185s5.09-28.943,9.987-35.079
		C415.539,634.118,364.608,627.982,364.608,627.982z"/>
	<path display="inline" fill="#DD7528" d="M255.159,720.002c0,0-5.033-3.224-6.737-8.222c-1.884-5.524,1.315-11.381,13.654-12.642
		c4.977-0.509,14.052-0.294,17.008,0.752c1.535,0.543-10.438-0.523-17.11,0.646c-6.954,1.219-13.077,5.034-11.392,11.689
		C251.145,714.449,252.119,717.252,255.159,720.002z"/>
	<path display="inline" fill="#DD7528" d="M228.823,713.888c0,0-11.231-11.995,4.346-17.368c6.601-2.277,11.722-2.278,14.567-2.276
		c1.382,0.001-8.491,1.437-13.697,3.881c-5.309,2.492-7.655,5.55-6.788,11.312C227.712,712.499,228.823,713.888,228.823,713.888z"/>
	
		<radialGradient id="SVGID_39_" cx="309.4465" cy="38.2656" r="105.2277" gradientTransform="matrix(1 0 0 -1 0.42 672.0261)" gradientUnits="userSpaceOnUse">
		<stop  offset="0" style="stop-color:#FFC07D"/>
		<stop  offset="0.5713" style="stop-color:#FEB162"/>
		<stop  offset="1" style="stop-color:#FEA852"/>
	</radialGradient>
	<path display="inline" fill="url(#SVGID_39_)" d="M378.439,648.29c0,0-63.422-8.465-98.27-49.595
		c-16.67-19.675-40.054-57.594-36.281-108.509c1.071-14.455,7.134-9.107,12.488,14.521c6.376,28.141,37.829,53.607,76.257,56.006"/>
	<path display="inline" fill="#FFBF80" d="M378.439,648.29c0,0-63.422-8.465-98.27-49.595
		c-16.67-19.675-28.129-41.349-33.972-69.762c-2.92-14.198,5.749,18.11,20.669,33.645c16.919,17.617,30.295,27.951,68.723,30.35"/>
	
		<radialGradient id="SVGID_40_" cx="357.5964" cy="298.2351" r="169.5037" gradientTransform="matrix(1 0 0 -1 0.42 672.0261)" gradientUnits="userSpaceOnUse">
		<stop  offset="0" style="stop-color:#FFC07D"/>
		<stop  offset="0.5713" style="stop-color:#FEB162"/>
		<stop  offset="1" style="stop-color:#FEA852"/>
	</radialGradient>
	<path display="inline" fill="url(#SVGID_40_)" d="M382.012,374.895c0,0,10.817,40.501-26.045,95.061
		c-30.19,44.685-58.934,121.044-5.671,162.755s157.188-3.5,173.545-46.846s12.211-57.84-27.046-118.362
		s-68.029-79.764-74.499-160.108s-38.438,67.484-38.438,67.484"/>
	<g id="形状_12_6_" display="inline">
		<g>
			
				<linearGradient id="SVGID_41_" gradientUnits="userSpaceOnUse" x1="357.2231" y1="171.396" x2="454.0309" y2="171.396" gradientTransform="matrix(1 0 0 -1 0.42 672.0261)">
				<stop  offset="0" style="stop-color:#FFC28A"/>
				<stop  offset="0.7938" style="stop-color:#FFCD9F"/>
				<stop  offset="1" style="stop-color:#FFD0A5"/>
			</linearGradient>
			<path fill="url(#SVGID_41_)" d="M433.544,437.291c-16.747-30.005-41.82-28.772-57.097,1.25
				c-12.674,24.907-26.211,85.792-14.047,123.374c10.028,30.98,77.2,32.125,87.186,2.144
				C462.971,523.873,445.783,459.218,433.544,437.291z"/>
		</g>
	</g>
	<path display="inline" opacity="0.6" fill="#DD7528" enable-background="new    " d="M324.276,544.328
		c0,0,31.227,2.485,67.948-11.891c34.624-13.555,64.846-21.617,84.851-29.449C477.81,502.7,425.592,617.759,324.276,544.328z"/>
	<path display="inline" opacity="0.6" fill="#DD7528" enable-background="new    " d="M422.487,334.319
		c0,0-4.074,21.166-6.462,34.037c-4.528,24.407-15.797,37.152-34.014,38.59c0,0,1.731-5.666,1.152-21.913l3.214-8.313
		L422.487,334.319z"/>
	<path display="inline" fill="#FFBF80" d="M492.704,483.027c0,0,49.92,58.839,32.976,101.96
		c-17.64,44.894-123.524,92.521-175.502,49.22c-43.156-35.952-27.163-86.451-26.852-90.231
		C323.326,543.976,399.609,570.489,492.704,483.027z"/>
	<path display="inline" opacity="0.4" fill="#DD7528" enable-background="new    " d="M377.363,574.964c0,0,3.817,10.806,9.101,9.51
		c5.928-1.454,2.214-8.76,1.982-9.51c-1.721-5.565-2.94-12.662-2.366-15.344c0,0,10.922,5.174,18.395-2.299s7.563-8.017,9.434-8.416
		c1.871-0.398-5.56,20.296-6.731,22.212c-1.171,1.916-0.837,4.161,2.057,4.696c5.784,1.069,11.805-7.57,14.828-16.576
		s4.555-15.554,4.555-20.615s-38.323-1.42-41.772-1.229C383.398,537.584,369.987,556.584,377.363,574.964z"/>
	
		<radialGradient id="SVGID_42_" cx="278.4455" cy="-101.5101" r="174.9164" gradientTransform="matrix(1 0 0 -1 0.42 672.0261)" gradientUnits="userSpaceOnUse">
		<stop  offset="0" style="stop-color:#FFC07D"/>
		<stop  offset="0.5713" style="stop-color:#FEB162"/>
		<stop  offset="1" style="stop-color:#FEA852"/>
	</radialGradient>
	<path display="inline" fill="url(#SVGID_42_)" d="M476.608,484.39c-2.714,4.047-31.079,43.347-32.714,89.147
		c-1.636,45.8,18.779,50.677,24.175,68.715c4.493,15.02,2.516,28.037-8.117,39.952c-13.862,15.534-37.911,18.426-72.975,18.919
		c-28.328,0.398-61.471,6.473-69.247,16.322s1.555,16.589,5.702,18.662c0,0,3.629,11.923,31.103,6.221
		c0,0,21.159,15.092,109.899-25.401c53.394-24.364,18.662-25.401,25.92-54.949c7.257-29.548,21.351-48.32,35.325-76.991
		c13.974-28.671,12.514-58.835-17.927-100.597C490.875,461.236,479.322,480.343,476.608,484.39z"/>
	<path display="inline" fill="#DD7528" d="M323.542,735.706c0,0-11.231-11.995,4.346-17.368c6.601-2.277,11.722-2.278,14.567-2.276
		c1.382,0.001-8.491,1.437-13.697,3.881c-5.309,2.492-7.655,5.55-6.788,11.312C322.43,734.317,323.542,735.706,323.542,735.706z"/>
	<path display="inline" fill="#DD7528" d="M354.56,742.291c0,0-5.033-3.224-6.737-8.222c-1.884-5.524,1.315-11.38,13.654-12.642
		c4.977-0.509,14.052-0.294,17.008,0.752c1.535,0.544-10.438-0.523-17.11,0.646c-6.954,1.219-13.077,5.034-11.392,11.689
		C350.545,736.739,351.519,739.542,354.56,742.291z"/>
	<path display="inline" fill="#FF9B48" d="M383.457,392.762c0,0-44.92,64.007-23.27,112.646c0,0-7.422,13.259-9.822,20.353
		c-4.174,12.335,2.972,12.695,6.88,5.252c0,0-3.486,32.637,22.882,10.444c12.842-10.809-9.811-49.252-7.474-84.416
		C373.932,437.818,383.939,408.93,383.457,392.762z"/>
	<path display="inline" fill="#F9E7CB" d="M375.274,500.421c0,0-1.611-8.266-15.85-9.238c-14.239-0.972-14.726,3.89-10.35,13.128
		s16.086,11.669,24.088,10.211S375.274,500.421,375.274,500.421z"/>
	<path display="inline" fill="#F9E7CB" d="M400.045,493.142c0,0-5.03-11.004,6.288-24.837s14.462-2.201,16.348,2.83
		s4.087,23.579-10.061,28.61S400.045,493.142,400.045,493.142z"/>
	<path display="inline" fill="#FFBD99" d="M374.011,503.951c0,0-1.13-3.892-9.583-5.585c-8.461-1.695-9.326,2.573-6.257,7.937
		c3.834,6.702,9.725,7.055,14.564,6.173C377.573,511.595,374.011,503.951,374.011,503.951z"/>
	<path display="inline" fill="#FFBD99" d="M402.491,492.916c0,0-2.835-6.202,3.544-13.999s8.151-1.24,9.214,1.595
		s2.304,13.29-5.67,16.125C401.605,499.472,402.491,492.916,402.491,492.916z"/>
	<path display="inline" fill="#FCEBCE" d="M369.863,545.55c0,0-1.258,15.334,2.515,24.644s7.86,13.712,11.947,10.882
		c4.087-2.83-6.288-22.636-2.829-31.439C384.954,540.834,369.863,545.55,369.863,545.55z"/>
	<path display="inline" fill="#FCEBCE" d="M412.406,538.629c0,0-2.873,18.56-5.641,23.101s2.94,11.795,8.544,4.63
		s9.836-31.663,8.688-36.808C422.849,524.407,412.406,538.629,412.406,538.629z"/>
	<path display="inline" fill="#F6BF96" d="M410.562,563.118c-0.882,1.475-2.431,3.741-3.384,4.564
		c0.143,0.188,0.319,0.363,0.505,0.536c0.576-0.534,1.313-1.36,1.976-2.304C411.228,563.674,411.934,560.821,410.562,563.118z"/>
	<path display="inline" fill="#F6BF96" d="M413.037,564.18c-0.459,1.117-1.754,3.912-3.091,5.198
		c0.369,0.048,0.708,0.011,1.309-0.099c0.614-0.679,1.211-1.833,1.638-2.734C413.792,564.657,413.656,562.678,413.037,564.18z"/>
	<path display="inline" fill="#F6BF96" d="M381.869,575.889c0.692,1.573,1.948,4.014,2.791,4.949
		c-0.165,0.169-0.362,0.321-0.568,0.469c-0.505-0.601-1.134-1.513-1.674-2.532C381.139,576.359,380.792,573.44,381.869,575.889z"/>
	<path display="inline" fill="#F6BF96" d="M379.281,576.383c0.316,1.166,1.255,4.099,2.422,5.542
		c-0.372,0.002-0.704-0.077-1.286-0.261c-0.525-0.75-0.974-1.969-1.286-2.917C378.473,576.762,378.854,574.816,379.281,576.383z"/>
	<path display="inline" fill="#FCEBCE" d="M372.315,505.53c5.048-10.382,22.657-21.184,38.301-10.377
		c19.5,13.471,16.809,25.649,13.842,32.132c-2.967,6.483-11.784,12.706-15.932,17.633c-4.149,4.927-13.789,14.88-26.236,8.657
		s-19.662-7.36-16.281-26.549C367.492,518.607,367.529,515.375,372.315,505.53z"/>
	
		<radialGradient id="SVGID_43_" cx="369.1437" cy="125.5275" r="15.6884" gradientTransform="matrix(1 0 0 -1 0.42 672.0261)" gradientUnits="userSpaceOnUse">
		<stop  offset="0" style="stop-color:#FFDECC"/>
		<stop  offset="0.5179" style="stop-color:#F9DCC0"/>
		<stop  offset="1" style="stop-color:#FCEBCE"/>
	</radialGradient>
	<path display="inline" fill="url(#SVGID_43_)" d="M382.29,553.576c-12.639-5.824-19.734-7.373-16.281-26.549
		C370.761,500.63,411.74,567.146,382.29,553.576z"/>
	
		<radialGradient id="SVGID_44_" cx="422.4363" cy="134.2222" r="25.8279" gradientTransform="matrix(1 0 0 -1 0.42 672.0261)" gradientUnits="userSpaceOnUse">
		<stop  offset="0" style="stop-color:#FFDECC"/>
		<stop  offset="0.5179" style="stop-color:#F9DCC0"/>
		<stop  offset="1" style="stop-color:#FCEBCE"/>
	</radialGradient>
	<path display="inline" fill="url(#SVGID_44_)" d="M424.458,527.285c-4.311,5.678-11.784,12.706-15.932,17.633
		c-4.149,4.927-10.399,10.642-17.937,10.639c-7.493-0.003,1.156-17.555,8.343-29.797
		C422.991,484.775,431.104,518.532,424.458,527.285z"/>
	<path display="inline" fill="#57301B" d="M408.668,525.749c-3.708,1.602-6.281,0.583-9.126-1.292
		c-1.049-0.691-1.139-2.384,0.24-1.791c2.606,1.122,4.645,2.483,8.434,1.036c3.29-1.256,4.961-4.566,5.328-6.753
		c0.096-0.575,0.527-0.354,0.638,0.428C414.435,519.17,413.728,523.563,408.668,525.749z"/>
	<path display="inline" fill="#57301B" d="M374.735,533.416c4.062-0.316,5.113-2.589,5.479-3.698
		c0.265-0.805-0.211-1.791-0.879-0.994c-1.261,1.506-2.211,2.573-5.284,2.923c-2.668,0.303-4.943-0.739-6.065-1.93
		c-0.295-0.313-0.489-0.043-0.247,0.46C368.294,531.33,370.528,533.743,374.735,533.416z"/>
	<path display="inline" fill="#57301B" d="M390.959,543.495c3.773-0.816,10.296-1.388,9.636,1.69
		c-0.753,3.511-4.829,5.816-7.78,6.542s-7.9-0.824-8.607-3.695C383.51,545.195,388.629,543.998,390.959,543.495z"/>
	<path display="inline" fill="#F7CC9D" d="M401.589,499.43c0.602,3.549-0.742,4.868-2.638,6.102c-2.333,1.519-4.822-0.2-6.06-0.893
		c0,0-0.198,3.908-2.214,5.71c-2.15,1.922-4.199,1.844-5.834,0.631c-0.991-0.736-1.602-2.509-1.602-2.509s-1.066,3.117-4.518,3.704
		c-2.056,0.35-2.932-1.17-3.547-2.184c-0.614-1.014-0.67-2.227-0.67-2.227s-1.145,3.219,0.625,5.545
		c1.254,1.648,3.425,2.243,5.339,1.044c1.327-0.832,2.845-3.268,2.845-3.268s1.253,2.362,3.447,2.761
		c2.195,0.399,4.579-0.836,5.714-2.435c1.134-1.599,1.55-4.407,1.55-4.407s1.788,1.61,4.442,1.614
		c1.566,0.002,4.03-1.028,4.534-3.855C403.509,501.916,401.589,499.43,401.589,499.43z"/>
	<g id="形状_77_14_" display="inline">
		<g>
			<path fill="#FFBD99" d="M378.851,541.115c-0.272-1.482-2.602-2.291-5.203-1.814c-2.601,0.478-4.489,2.067-4.214,3.547
				c0.272,1.482,2.6,2.292,5.2,1.814C377.237,544.184,379.123,542.596,378.851,541.115z"/>
		</g>
	</g>
	<g id="形状_77_12_" display="inline">
		<g>
			<path fill="#FFBD99" d="M419.737,529.516c-0.47-1.431-2.889-1.918-5.4-1.092c-2.512,0.826-4.168,2.656-3.695,4.086
				c0.47,1.431,2.886,1.919,5.398,1.093C418.554,532.776,420.207,530.947,419.737,529.516z"/>
		</g>
	</g>
	<path display="inline" fill="#FFC07D" d="M347.083,252.095c0,0-43.563-18.997-60.595-35.702s-35.047-21.618-32.099,0
		s25.548,68.128,82.868,59.612C394.576,267.489,347.083,252.095,347.083,252.095z"/>
	<path display="inline" fill="#FFC07D" d="M373.969,248.042c0,0,14.091-24.566,13.436-57.32s10.154-77.955,35.702-38.65
		s15.394,83.523-19.652,109.726S373.969,248.042,373.969,248.042z"/>
	<path display="inline" fill="#FF9B48" d="M340.59,271.992c0,0-40.719,2.078-53.82-17.749s-4.957-25.593,13.455-14.743
		s30.097,16.515,44.968,18.993C360.064,260.971,340.59,271.992,340.59,271.992z"/>
	<path display="inline" fill="#FF9B48" d="M381.688,251.318c0,0,15.984-27.257,20.521-57.601
		c3.779-25.272,19.836-25.638,19.854,16.768c0.013,30.351-34.546,48.213-37.695,50.201
		C381.218,262.675,381.688,251.318,381.688,251.318z"/>
	
		<radialGradient id="SVGID_45_" cx="372.664" cy="300.0239" r="79.8494" gradientTransform="matrix(1 0 0 -1 0.42 672.0261)" gradientUnits="userSpaceOnUse">
		<stop  offset="0" style="stop-color:#FECD97"/>
		<stop  offset="1" style="stop-color:#FFC07A"/>
	</radialGradient>
	<path display="inline" fill="url(#SVGID_45_)" d="M357.52,238.408c-6.788,1.998-20.138,10.572-24.678,43.426
		c-5.835,42.23-3.006,56.767,3.688,68.013c7.017,11.789,15.731,15.412,25.648,25.729c9.109,9.476,34.335,21.063,50.424-16.235
		c11.599-26.89,19.273-34.695,18.44-50.994s-11.837-34.811-15.588-46.481C411.703,250.195,390.279,228.763,357.52,238.408z"/>
	<path display="inline" fill="#713D1F" d="M333.876,325.325c0,0,4.556,5.631,13.772,2.296c5.653-2.046,6.375-2.773,8.89-6.349
		c1.589-2.258,2.973-1.879,2.23,0c-2.015,5.092-6.404,7.831-10.223,9.001c-6.291,1.928-12.136,0.636-14.757-2.149
		c0,0-1.925,2.113-6.197,0.905c-0.939-0.266-3.631-1.755,0.03-1.31C329.053,327.894,331.387,328.852,333.876,325.325z"/>
	<path display="inline" fill="#713D1F" d="M418.377,292.541c0,0,1.777,8.8-9.085,14.52c-7.177,3.779-14.072,1.599-16.845,0.004
		c-2.918-1.679-3.546,0.17-0.515,2.116c3.831,2.459,10.75,4.003,18.641,0.787c8.16-3.325,11.3-10.776,10.23-15.017
		c0,0,5.17,0.765,8.46-2.495c1.977-1.959,0.79-2.056-1.367-0.858C424.809,293.313,424.03,292.861,418.377,292.541z"/>
	<path display="inline" fill="#66361F" d="M357.706,238.732c-6.788,1.998-20.324,10.247-24.863,43.101
		c-0.912,6.598-1.994,16.479-1.994,16.479c8.867-5.333,10.314-21.087,12.854-17.984c4.199,5.129,10.84,13.119,19.76,13.979
		c12.1,1.166,19.62-31.212,26.391-28.283c10.822,4.682,26.982,13.729,32.634,12.655c0,0-6.288-14.747-6.847-16.489
		C411.889,250.519,390.464,229.087,357.706,238.732z"/>
	<path display="inline" fill="#E5432E" d="M333.643,274.918c0,0-1.052,5.716-1.036,8.633c0.008,1.466,11.607-20.318,31.01-24.109
		c19.402-3.791,52.408,3.852,52.408,3.852c-1.622-5.075-3.991-7.967-3.991-7.967s-14.742-13.726-40.612-10.604
		c0,0,39.417-31.862,13.463-79.761c-5.833-10.765-39.759,36.15-32.846,68.028c0,0-15.002-22.284-41.187-36.509
		c-9.829-5.34-9.049,8.197-5.137,22.481c4.022,14.686,11.171,27.718,40.321,35.426C346.037,254.388,335.033,269.139,333.643,274.918
		z"/>
	<path display="inline" fill="#4F2914" d="M367.632,374.534c1.048,3.773,10.635,6.265,16.247,4.512
		c6.568-2.052,12.962-9.261,11.774-12.348c-1.187-3.087-11.252-1.187-15.481,0C375.943,367.885,366.444,370.26,367.632,374.534z"/>
	<path display="inline" fill="#FFA083" d="M410.649,326.088c7.908,0.877,19.83-6.477,13.574-8.834
		c-7.001-2.638-14.232,1.356-16.568,3.434S405.041,325.466,410.649,326.088z"/>
	<path display="inline" fill="#FFA083" d="M338.042,346.737c7.841,1.349,20.182-5.278,14.079-8.005
		c-6.831-3.052-14.287,0.501-16.744,2.435C332.92,343.101,332.482,345.78,338.042,346.737z"/>
	<path display="inline" fill="#A85726" d="M389.883,292.973c0.243-2.24,3.372-6.966,9.861-8.882
		c6.727-1.986,10.134,0.544,10.588,0.774c1.867,0.948,1.327,2.18-0.449,1.292c-1.646-0.823-5.433-1.817-9.6-0.379
		c-5.635,1.945-7.679,6.556-8.106,7.88C391.665,295.244,389.582,295.743,389.883,292.973z"/>
	<path display="inline" fill="#FF9B48" d="M424.458,392.762c8.6,17.925,11.32,31.377,12.144,54.749
		c0.637,18.04-3.609,33.271-7.544,42.446c0,0-13.305,16.906-14.005,25.91c-0.7,9.005,9.833,4.548,12.317-3.131
		c0,0-13.896,38.819,3.709,26.197c1.783-0.546,24.987-1.799,13.441-44.306c0,0,21.655-56.987,6.529-98.119
		C428.124,334.169,415.858,374.837,424.458,392.762z"/>
	<g id="形状_14_6_" display="inline">
		<g>
			<path fill="#CC7123" d="M435.871,529.422c-0.296,1.266-1.503,3.805-2.094,5.046c-1.217,2.545-2.706,4.153-2.706,4.153
				s0.618-0.208,1.289-0.966c1.956-2.202,4.16-5.564,4.758-7.7C437.593,528.281,436.297,527.599,435.871,529.422z"/>
		</g>
	</g>
	<path display="inline" fill="#A85726" d="M351.777,306.463c-1.179-1.983-5.887-4.429-12.052-3.436
		c-6.392,1.03-8.083,4.846-8.355,5.255c-1.119,1.682-0.137,2.6,0.934,1.011c0.992-1.472,3.666-4.019,7.717-4.463
		c5.477-0.6,8.921,1.774,9.851,2.825C351.052,308.99,353.234,308.915,351.777,306.463z"/>
	<path display="inline" fill="#E5E5E5" d="M312.229,96.368c0,28.763-22.695,52.08-56.084,52.08h-6.471
		c-29.533,0-53.764-23.317-53.764-52.08V74.746c0-28.763,19.591-52.08,53.764-52.08h6.471c33.389,0,56.084,23.317,56.084,52.08
		L312.229,96.368L312.229,96.368z"/>
	<path display="inline" fill="#E5E5E5" d="M260.979,142.294c0,0,2.718,15.962,19.364,21.096c16.646,5.134-8.25-7.02-3.36-24.506
		S260.979,142.294,260.979,142.294z"/>
</g>
<text transform="matrix(1 0 0 1 87.5439 50.7902)" fill="#66361F" font-family="'FZLTXHJW--GB1-0'" font-size="18.5478">哈哈哈,神机妙算 </text>
<text transform="matrix(1 0 0 1 87.5439 84.1762)" fill="#66361F" font-family="'FZLTXHJW--GB1-0'" font-size="18.5478">中了50块!</text>
</svg>
