<?xml version="1.0" encoding="utf-8"?>
<!-- Generator: Adobe Illustrator 17.0.0, SVG Export Plug-In . SVG Version: 6.00 Build 0)  -->
<!DOCTYPE svg PUBLIC "-//W3C//DTD SVG 1.1//EN" "http://www.w3.org/Graphics/SVG/1.1/DTD/svg11.dtd">
<svg version="1.1" id="图层_1" xmlns="http://www.w3.org/2000/svg" xmlns:xlink="http://www.w3.org/1999/xlink" x="0px" y="0px"
	 width="348.158px" height="537.254px" viewBox="0 0 348.158 537.254" enable-background="new 0 0 348.158 537.254"
	 xml:space="preserve">
<radialGradient id="SVGID_1_" cx="343.9727" cy="356.4463" r="62.216" gradientTransform="matrix(0.9808 -0.1951 0.3908 1.9645 -132.69 -276.6604)" gradientUnits="userSpaceOnUse">
	<stop  offset="0" style="stop-color:#FFC07D"/>
	<stop  offset="0.6091" style="stop-color:#FEAA5D"/>
	<stop  offset="1" style="stop-color:#FE9F4D"/>
</radialGradient>
<path fill-rule="evenodd" clip-rule="evenodd" fill="url(#SVGID_1_)" d="M220.709,269.682c0,0,29.023,15.788,57.214,6.785
	c30.531-9.751,38.47-26.391,40.301-39.418c0.794-5.649-0.385-15.597-2.137-21.168c-2.689-8.547,0.204-12.518,6.412-3.358
	c3.482,5.138,23.628,34.857,16.182,69.612c-4.802,22.411-22.563,52.535-55.423,62.589
	C194.135,371.993,220.709,269.682,220.709,269.682z"/>
<path fill-rule="evenodd" clip-rule="evenodd" fill="#FFBF80" d="M259.604,309.917c0,0,58.746-0.123,73.886-31.602
	c7.709-16.029,5.131-28.452,5.131-28.452c1.698,6.395,2.807,18.226,0.059,32.27c-4.401,22.494-22.563,52.535-55.423,62.589
	C194.135,371.993,231.414,318.921,259.604,309.917z"/>
<radialGradient id="SVGID_2_" cx="112.2894" cy="519.646" r="145.8735" gradientUnits="userSpaceOnUse">
	<stop  offset="0" style="stop-color:#FFC07D"/>
	<stop  offset="0.5713" style="stop-color:#FEB162"/>
	<stop  offset="1" style="stop-color:#FEA852"/>
</radialGradient>
<path fill-rule="evenodd" clip-rule="evenodd" fill="url(#SVGID_2_)" d="M104.2,328c0,0-24.389,71.049,13.434,92.205
	c29.029,16.237,50.682-3.664,53.735,18.624s-18.624,80.603-2.748,86.404c0,0,9.159,12.213,14.655,1.832
	c0,0,11.092,11.907,11.5-49.155c0,0-2.34-30.022-2.645-36.332s1.953-30.888,3.276-33.737C196.729,404.99,129.124,301.151,104.2,328z
	"/>
<path fill="#DD7528" d="M183.22,527.017c0,0-6.127,1.165-5.707-14.478c0.206-7.665,2.538-12.953,4.276-16.021
	c0.749-1.322-2.611,9.309-2.642,15.508c-0.028,5.559,0.374,7.817,1.473,11.216C181.4,525.656,183.22,527.017,183.22,527.017z"/>
<path fill="#DD7528" d="M169.027,525.458c0,0-4.25-0.882-5.28-11.602c-0.312-3.243,1.155-10.813,2.404-13.448
	c0.538-1.136-1.506,7.822-1.042,12.919c0.415,4.571,0.938,6.401,2.149,9.123C168.119,524.384,169.027,525.458,169.027,525.458z"/>
<path fill="#FF9B48" d="M107.33,200.936c0,0-12.716,26.329-24.98,39.336s-23.612,26.46-33.847,27.825
	c-3.858,0.514-11.089-2.037-16.983-4.631c-3.903-1.718-14.977-2.76-7.027,6.391c0,0-16.688-2.316-8.541,7.84
	c5.691,7.095,20.291,9.924,24.903,9.581c0,0-4.463,4.849-2.944,10.028s12.997-4.206,17.87-12.84
	c4.873-8.634,41.207-25.805,51.358-38.952C117.29,232.368,107.33,200.936,107.33,200.936z"/>
<g id="形状_14_16_">
	<g>
		<path fill="#CC7123" d="M33.499,270.405c-1.078,0.267-3.431,0.322-4.582,0.349c-2.361,0.051-4.08-0.478-4.08-0.478
			s0.356,0.4,1.156,0.626c2.327,0.66,5.634,1.058,7.483,0.685C34.928,271.299,35.05,270.022,33.499,270.405z"/>
	</g>
</g>
<radialGradient id="SVGID_3_" cx="126.3413" cy="165.0248" r="191.388" gradientUnits="userSpaceOnUse">
	<stop  offset="0" style="stop-color:#FFC07D"/>
	<stop  offset="0.5713" style="stop-color:#FEB162"/>
	<stop  offset="1" style="stop-color:#FEA852"/>
</radialGradient>
<path fill-rule="evenodd" clip-rule="evenodd" fill="url(#SVGID_3_)" d="M97.584,174.088c0,0,11.588-2.58,9.661,34.465
	c-1.927,37.045-4.73,46.815-4.749,97.7c-0.019,50.886,17.783,131.868,120.062,89.966c26.868-15.876,60.059-69.274,15.28-119.753
	c0,0-38.993-8.988-71.835-57.079c-20.278-29.693-16.771-61.67-14.231-78.595C153.125,131.782,97.584,174.088,97.584,174.088z"/>
<path opacity="0.6" fill-rule="evenodd" clip-rule="evenodd" fill="#DD7528" d="M104.693,180.464
	c21.082-0.712,26.512-8.253,26.526-6.106c0.029,4.478-9.209,18.629-24.032,18.629C107.049,186.468,104.693,180.464,104.693,180.464"
	/>
<g id="形状_12_7_">
	<g>
		
			<linearGradient id="SVGID_4_" gradientUnits="userSpaceOnUse" x1="164.7698" y1="256.1434" x2="245.7725" y2="256.1434" gradientTransform="matrix(0.7982 -0.2268 0.2926 1.0053 -96.4769 87.6879)">
			<stop  offset="0" style="stop-color:#FFC28A"/>
			<stop  offset="0.7938" style="stop-color:#FFCD9F"/>
			<stop  offset="1" style="stop-color:#FFD0A5"/>
		</linearGradient>
		<path fill-rule="evenodd" clip-rule="evenodd" fill="url(#SVGID_4_)" d="M191.157,346.786
			c-14.717-33.209-30.206-78.321-44.408-110.176c-12.478-27.988-31.784-19.887-34.818,10.057
			c-2.516,24.842-1.69,84.633,16.737,115.801C143.859,388.16,202.844,373.159,191.157,346.786z"/>
	</g>
</g>
<path opacity="0.6" fill-rule="evenodd" clip-rule="evenodd" fill="#DD7528" d="M104.705,348.155c0,0,11.52-0.825,50.482-14.118
	c31.318-10.685,55.021-32.026,72.106-40.607C227.921,293.115,200.511,404.916,104.705,348.155z"/>
<path fill="#FF9B48" d="M164.073,218.508c21.775,5.793,74.187,2.979,85.225,4.09c13.826,1.393,22.28-5.245,28.251-19.933
	c8.118-19.968-5.283-10.827-5.283-10.827c2.522-13.378-6.448-18.461-9.464-9.414c-3.016,9.047-11.655,17.954-11.655,17.954
	c0.377-3.016,1.1-11.169-4.532-13.808c-5.632-2.639-4.492,12.631-7.131,17.908c-2.639,5.277-24.594,0.367-46.805-4.156
	c-22.211-4.524-36.481-14.847-42.245-14.847c-3.803,0-5.691,4.164-5.605,11.505C144.917,204.495,148.93,214.479,164.073,218.508z"/>
<g id="形状_14_14_">
	<g>
		<path fill="#CC7123" d="M272.248,191.76c0,0-0.087,1.571-0.75,3.451c-0.324,0.915-0.988,2.787-1.461,3.557
			c-0.68,1.109,0.245,1.47,0.832,0.407c0.752-1.352,1.352-4.153,1.509-6.261C272.433,192.19,272.248,191.76,272.248,191.76z"/>
	</g>
</g>
<path fill="#FFDCC0" d="M133.566,341.039c0,0-19.944,6.337-37.104-4.449s-4.999-15.459,1.122-13.021
	c6.121,2.438,29.388,10.701,33.413,8.908C135.022,330.685,133.566,341.039,133.566,341.039z"/>
<path fill-rule="evenodd" clip-rule="evenodd" fill="#F6BF96" d="M93.191,328.229c-1.534-0.125-4.089,0.017-5.21,0.326
	c-0.049-0.227-0.25-0.669-0.263-0.922c0.703-0.166,1.971-0.276,3.009-0.276C93.186,327.358,95.578,328.426,93.191,328.229z"/>
<path fill-rule="evenodd" clip-rule="evenodd" fill="#F6BF96" d="M93.874,325.575c-1.041-0.268-3.973-0.731-5.637-0.373
	c0.178-0.332,0.484-0.669,1.255-1.142c0.826-0.113,1.78,0.098,2.653,0.267C93.976,324.678,95.275,325.934,93.874,325.575z"/>
<radialGradient id="SVGID_5_" cx="142.0643" cy="325.8157" r="21.6449" gradientUnits="userSpaceOnUse">
	<stop  offset="0" style="stop-color:#FFDECC"/>
	<stop  offset="0.5179" style="stop-color:#F9DCC0"/>
	<stop  offset="1" style="stop-color:#FCEBCE"/>
</radialGradient>
<path fill="url(#SVGID_5_)" d="M124.059,333.52c0,0,10.793,2.813,8.523,17.501c-1.895,12.261,38.664-9.055,40.494-12.918
	s-17.037-2.943-21.768-22.032C147.246,299.679,124.059,333.52,124.059,333.52z"/>
<radialGradient id="SVGID_6_" cx="145.8541" cy="320.3015" r="22.811" gradientUnits="userSpaceOnUse">
	<stop  offset="0" style="stop-color:#FFDECC"/>
	<stop  offset="0.5179" style="stop-color:#F9DCC0"/>
	<stop  offset="1" style="stop-color:#FCEBCE"/>
</radialGradient>
<path fill="url(#SVGID_6_)" d="M150.102,318.026c0,0,8.108-13.198,9.829-21.929c2.252-11.42,11.735-11.542,11.637,2.693
	s-11.812,25.16-14.252,30.041C154.875,333.711,150.102,318.026,150.102,318.026z"/>
<path fill-rule="evenodd" clip-rule="evenodd" fill="#F6BF96" d="M166.933,295.472c0.789-1.618,2.19-3.888,3.111-4.833
	c-0.055-0.493-0.399-0.798-0.608-0.961c-0.553,0.609-1.203,1.751-1.81,2.795C166.189,294.951,165.707,297.991,166.933,295.472z"/>
<path fill-rule="evenodd" clip-rule="evenodd" fill="#F6BF96" d="M163.83,293.598c0.337-1.219,1.434-4.387,2.663-5.892
	c-0.389-0.004-0.923-0.079-1.447,0.366c-0.553,0.783-1.105,2.036-1.362,3.048C163.131,293.303,163.375,295.237,163.83,293.598z"/>
<path fill-rule="evenodd" clip-rule="evenodd" fill="#FFBF80" d="M107.253,348.081c5.496,0,52.062,7.633,87.246-31.753
	s48.313,33.89,45.87,47.934c-2.443,14.044-5.522,29.601-32.363,40.607c-16.693,6.845-90.373,15.335-103.313-47.934
	C102.323,345.351,107.253,348.081,107.253,348.081z"/>
<radialGradient id="SVGID_7_" cx="331.6129" cy="494.0381" r="54.4107" gradientTransform="matrix(0.9808 -0.1951 0.3908 1.9645 -186.6992 -411.7724)" gradientUnits="userSpaceOnUse">
	<stop  offset="0" style="stop-color:#FFC07D"/>
	<stop  offset="0.6091" style="stop-color:#FEAA5D"/>
	<stop  offset="1" style="stop-color:#FE9F4D"/>
</radialGradient>
<path fill-rule="evenodd" clip-rule="evenodd" fill="url(#SVGID_7_)" d="M249.122,395.337c0,0,6.761-5.87,12.62-5.734
	c2.878,0.067,4.427-0.305,7.102,4.403c21.264,37.431,17.702,50.906,29.183,73.652c4.392,8.702,9.109,11.047,9.109,11.047
	c10.774,14.835,23.606,9.696,20.623-6.879c0.332-1.658,7.183-3.013-11.672-43.807c-6.63-14.345-22.211-43.959-43.095-66.501
	c-20.885-22.542-23.868,32.156-23.868,32.156"/>
<path fill-rule="evenodd" clip-rule="evenodd" fill="#DD7528" d="M297.524,455.646c0,0,2.277,14.732,9.657,22.891
	c0,0-3.519-0.402-7.114-10.491C297.454,460.715,297.524,455.646,297.524,455.646z"/>
<path fill="#DD7528" d="M327.757,471.637c0,0-0.543,3.479-2.918,4.499c-1.221,0.524-6.195,1.488-10.177-7.862
	c-2.341-5.496-3.155-8.956-4.681-20.761c-0.164-1.269,3.301,12.341,5.699,18.217c2.035,4.987,6.106,8.536,9.058,8.142
	C325.68,473.744,326.621,473.489,327.757,471.637z"/>
<radialGradient id="SVGID_8_" cx="166.7815" cy="333.0292" r="90.6627" gradientUnits="userSpaceOnUse">
	<stop  offset="0" style="stop-color:#FFC07D"/>
	<stop  offset="0.5713" style="stop-color:#FEB162"/>
	<stop  offset="1" style="stop-color:#FEA852"/>
</radialGradient>
<path fill-rule="evenodd" clip-rule="evenodd" fill="url(#SVGID_8_)" d="M197.951,309.153c4.854-19.416,6.838-43.631,41.623-31.978
	c10.638,3.564,49.606,52.159,36.232,86.935c-10.215,26.562-32.892,42.568-56.002,31.268
	C198.465,384.943,188.792,345.79,197.951,309.153z"/>
<path fill-rule="evenodd" clip-rule="evenodd" fill="#FFC07D" d="M121.066,70.134c0,0,18.957-16.577,27.099-28.003
	c8.142-11.426,15.943-21.632,18.929-25.821c6.169-8.654,14.84-10.72,18.187,7.023c4.406,23.357-2.37,45.905-18.798,54.761
	c-10.551,5.688-18.675,6.553-24.97,7.577C131.039,87.374,121.066,70.134,121.066,70.134z"/>
<path fill-rule="evenodd" clip-rule="evenodd" fill="#FFC07D" d="M90.148,82.197c0,0-15.351-14.22-23.323-24.429
	S48.772,36.932,44.454,33.903c-5.175-3.63-9.92-4.707-12.198,4.212s-4.366,32.446,10.629,46.121
	c15.469,14.108,28.851,11.768,42.517,11.009S90.148,82.197,90.148,82.197z"/>
<path fill-rule="evenodd" clip-rule="evenodd" fill="#FF9B48" d="M85.332,92.438c0,0-13.64,1.453-23.596-3.719
	s-15.585-13.474-17.6-20.741c-2.015-7.268,0.905-10.348,6.89-6.251c5.986,4.097,21.815,20.513,33.681,23.188
	C96.573,87.59,85.332,92.438,85.332,92.438z"/>
<path fill-rule="evenodd" clip-rule="evenodd" fill="#FF9B48" d="M131.218,74.573c0,0,24.256-19.975,30.088-27.929
	c10.641-14.511,11.563-3.17,11.842-0.597c0.279,2.574,0.84,14.608-9.352,23.569c-10.191,8.961-24.378,11.962-27.688,12.321
	C132.8,82.295,131.218,74.573,131.218,74.573z"/>
<radialGradient id="SVGID_9_" cx="58.7963" cy="140.2621" r="58.805" gradientUnits="userSpaceOnUse">
	<stop  offset="0" style="stop-color:#FECD97"/>
	<stop  offset="1" style="stop-color:#FFC07A"/>
</radialGradient>
<path fill-rule="evenodd" clip-rule="evenodd" fill="url(#SVGID_9_)" d="M107.762,68.923C90.257,68.92,77.429,82.074,72.93,94.965
	c-7.455,21.36,1.451,27.064-8.319,30.902c-5.529,2.172-15.673,3.813-13.027,17.508c3.068,15.88,19.54,37.089,51.7,37.089
	c26.868,0,33.884-13.257,38.877-20.558c4.993-7.3,10.08-15.385,11.195-28.028C154.444,119.524,157.835,68.93,107.762,68.923z"/>
<path fill-rule="evenodd" clip-rule="evenodd" fill="#66361F" d="M107.762,68.615c-17.502,0.312-29.2,12.52-35.613,28.363
	c0,0-0.053,1.546,1.316,3.595c2.632,3.939,5.097,6.31,9.159,5.597c7.26-1.273,16.272-5.445,34.916-16.213
	c1.532-0.885,1.922-0.795,2.74,0.286c3.814,5.038,16.741,14.35,21.359,15.075c3.024,0.475,9.774-3.548,9.263-6.17
	C146.74,77.777,125.572,68.298,107.762,68.615z"/>
<path fill-rule="evenodd" clip-rule="evenodd" fill="#E5432E" d="M72.93,94.965c0,0,18.402-14.656,54.168-7.825
	c16.507,3.152,23.662,11.157,23.662,11.157s-0.84-4.771-2.505-7.334c-1.191-1.834-12.508-12.932-35.526-15.831
	c0,0,15.577-0.552,24.852-17.457c6.615-12.057,4.849-26.131,4.076-32.31c-1.023-8.174-4.381-7.328-7.536-6.412
	c-3.504,1.017-13.637,6.106-24.018,21.881c-6.036,9.173-8.854,19.54-8.854,21.067c0,1.527-2.477-7.891-8.956-15.775
	C86.186,38.697,79.266,33.812,72.93,30.25c-6.625-3.724-8.421-2.239-8.726,0.916s-0.712,18.421,4.173,28.699
	s16.385,15.673,23.814,17.708c0,0-11.996,5.214-15.894,10.89C74.89,90.511,74.587,91.085,72.93,94.965z"/>
<path fill-rule="evenodd" clip-rule="evenodd" fill="#FF8366" d="M58.424,159.122c7.273,10.885,22.368,20.426,40.956,21.229
	c7.737,0.334,32.806-15.763,14.284-40.494c-1.97-2.63-12.402,8.522-28.507,9.361c-18.911,0.986-17.876-3.458-22.022,2.164
	C58.632,157.489,56.132,155.691,58.424,159.122z"/>
<g id="腮红2_3_">
	<g>
		<path fill-rule="evenodd" clip-rule="evenodd" fill="#FFA083" d="M140.672,126.37c-0.161-1.545-1.861-4.859-10.764-4.265
			c-7.263,0.485-9.997,3.405-9.588,5.626c0.331,1.798,3.553,4.969,10.178,4.178C138.852,130.914,140.817,127.756,140.672,126.37z"/>
	</g>
</g>
<path fill="#4F2914" d="M53.36,136.082c0.761,3.226,8.786,5.651,13.589,4.355c5.622-1.517,11.269-7.401,10.367-10.051
	c-0.902-2.65-9.476-1.378-13.091-0.514C60.61,130.735,52.498,132.428,53.36,136.082z"/>
<path fill="#A85726" d="M103.135,104.684c-0.312,0.388-1.194,1.745-0.338,2.352c0.83,0.588,1.161-0.133,2.16-1.037
	c1.019-0.923,8.9-9.206,17.295-3.952c1.739,1.088,2.464,0.028,1.214-0.923C120.624,98.962,110.74,95.228,103.135,104.684z"/>
<path fill="#713D1F" d="M101.467,122.029c-0.843,0.039-0.733-1.19-0.386-2.435c1.439-5.153,6.165-10.573,15.503-11.416
	c9.925-0.897,14.695,4.434,15.389,5.208c0,0,2.22,0.127,4.451-2.878c1.497-2.016,0.794-0.187,0.227,1.355
	c-0.485,1.317-1.744,3.469-5.388,3.983c0,0-6.397-5.543-14.316-5.069c-3.735,0.223-11.297,2.214-14.422,9.117
	C101.881,121.314,101.862,122.01,101.467,122.029z"/>
<path fill="#F76531" d="M117.004,145.162c0,0-37.396,4.379-37.192,30.84c0,0,12.454,4.338,21.009,4.354s15.28-9.689,16.647-12.487
	C118.835,165.071,123.295,157.69,117.004,145.162"/>
<path fill="#FCEBCE" d="M115.992,302.708c0,0-8.674,3.786-13.683-7.949c-4.645-10.881-2.448-17.659,3.591-15.957
	c7.283,2.052,11.033,5.744,14.088,12.971C123.481,300.032,115.992,302.708,115.992,302.708z"/>
<path fill="#FCEBCE" d="M134.554,294.645c0,0,0.58-9.786,5.308-16.33c5.727-7.928,14.062-9.544,15.364-4.184
	c1.315,5.411,4.235,19.298-14.183,23.444C125.897,300.985,134.554,294.645,134.554,294.645z"/>
<path fill="#FFBD99" d="M110.523,299.033c0,0-4.527,0.281-6.737-5.808c-2.394-6.594-0.884-9.859,2.771-8.432
	c4.083,1.594,5.697,4.549,6.975,7.591C115.401,296.832,110.523,299.033,110.523,299.033z"/>
<path fill="#FFBD99" d="M137.491,291.87c0,0,0.341-5.665,3.116-9.452c3.362-4.589,8.498-5.573,9.018-2.422
	c0.52,3.152,2.486,11.17-8.324,13.57C132.41,295.54,137.491,291.87,137.491,291.87z"/>
<path fill="#FCEBCE" d="M129.023,288.413c10.108-0.049,16.453,7.414,19.998,14.21s5.631,23.383-11.228,30.433
	c-13.734,5.744-39.558,4.732-43.434-9.487c-2.659-9.754,2.735-10.629,4.728-11.787c2.32-1.348,3.844-5.554,6.351-10.052
	C107.754,297.575,116.362,288.475,129.023,288.413z"/>
<path fill="#57301B" d="M101.665,315.177c3.396-0.522,9.22-0.68,8.469,2.019c-0.857,3.078-4.602,4.907-7.263,5.393
	c-2.661,0.486-6.974-1.156-7.447-3.745C94.957,316.288,99.568,315.5,101.665,315.177z"/>
<radialGradient id="SVGID_10_" cx="145.2327" cy="317.675" r="21.54" gradientUnits="userSpaceOnUse">
	<stop  offset="0" style="stop-color:#FFDECC"/>
	<stop  offset="0.5179" style="stop-color:#F9DCC0"/>
	<stop  offset="1" style="stop-color:#FCEBCE"/>
</radialGradient>
<path fill="url(#SVGID_10_)" d="M129.023,288.413c10.106-0.214,16.453,7.414,19.998,14.21s5.631,23.383-11.228,30.433
	C124.059,338.8,89.168,289.258,129.023,288.413z"/>
<path fill="#57301B" d="M132.091,299.975c-6.171,0.905-7.92,6.41-8.027,8.194c-0.092,1.53,1.168,2.391,1.733,0.665
	c0.971-2.97,2.59-5.796,6.294-6.282c6.115-0.802,8.885,2.672,10.435,4.278c0.408,0.422,0.733,0.009,0.428-0.696
	C142.256,304.52,138.482,299.038,132.091,299.975z"/>
<g id="形状_77_19_">
	<g>
		<path fill-rule="evenodd" clip-rule="evenodd" fill="#FFBD99" d="M145.699,312.123c-0.302-1.692-2.969-2.626-5.956-2.091
			c-2.988,0.535-5.167,2.341-4.862,4.033c0.302,1.692,2.966,2.627,5.953,2.092C143.825,315.621,146.001,313.815,145.699,312.123z"/>
	</g>
</g>
<path fill="#F7CC9D" d="M128.59,293.851c-2.217,2.983-3.451,3.397-4.849,3.496c-1.556,0.11-1.542-0.629-2.174-1.11
	c0,0-1.906,2.048-3.166,2.89c-1.343,0.898-2.418,0.745-3.229-0.057c-0.492-0.486-0.76-1.428-0.76-1.428s-0.724,1.263-2.487,1.862
	c-1.803,0.613-2.452,0.237-2.373-0.673c0.058-0.662,0.406-1.255,0.406-1.255s-1.077,0.948-1.076,1.958
	c0.001,1.091,0.629,1.996,3.118,0.986c1.76-0.714,1.737-1.156,1.737-1.156s0.206,1.061,1.327,1.612
	c1.07,0.526,2.138,0.466,3.671-0.581c1.215-0.83,2.776-2.571,2.776-2.571s0.148,1.354,2.306,1.215
	C127.036,298.831,128.59,293.851,128.59,293.851z"/>
</svg>
