<?xml version="1.0" encoding="utf-8"?>
<!-- Generator: Adobe Illustrator 17.0.0, SVG Export Plug-In . SVG Version: 6.00 Build 0)  -->
<!DOCTYPE svg PUBLIC "-//W3C//DTD SVG 1.1//EN" "http://www.w3.org/Graphics/SVG/1.1/DTD/svg11.dtd">
<svg version="1.1" id="图层_1" xmlns="http://www.w3.org/2000/svg" xmlns:xlink="http://www.w3.org/1999/xlink" x="0px" y="0px"
	 width="159.063px" height="210.23px" viewBox="0 0 159.063 210.23" enable-background="new 0 0 159.063 210.23"
	 xml:space="preserve">
<g id="形状_57_4_">
	<g>
		<path fill-rule="evenodd" clip-rule="evenodd" fill="#FFC07D" d="M56.997,70.68c-2.648-42.418-13.322-47.298-21.583-54.248
			c-8.26-6.95-13.638-0.329-8.166,25.666c5.472,25.994,15.749,29.749,15.749,29.749S59.645,113.098,56.997,70.68z"/>
	</g>
</g>
<g id="形状_58_4_">
	<g>
		<path fill-rule="evenodd" clip-rule="evenodd" fill="#FF9B48" d="M52.913,69.513c-0.534-17.728-8.792-28.713-9.333-30.332
			c-0.541-1.62-11.47-18.124-8.166,2.333C38.718,61.972,49.413,72.43,49.413,72.43S53.447,87.242,52.913,69.513z"/>
	</g>
</g>
<g id="形状_59_4_">
	<g>
		<path fill-rule="evenodd" clip-rule="evenodd" fill="#FFC07D" d="M102.708,42.042C80.419,58.925,78.837,77.298,78.837,77.298
			S57.059,98.244,95.24,88.605c38.181-9.64,44.892-46.767,44.776-55.379C139.9,24.614,124.997,25.159,102.708,42.042z"/>
	</g>
</g>
<g id="形状_60_4_">
	<g>
		<path fill-rule="evenodd" clip-rule="evenodd" fill="#FF9B48" d="M105.409,51.544C89.497,67.206,84.534,76.807,84.534,76.807
			l-0.048,0.509c0,0-10.791,12.092,8.879,3.919c19.669-8.173,27.736-23.521,32.99-33.883
			C131.609,36.989,121.322,35.882,105.409,51.544z"/>
	</g>
</g>
<g id="形状_47_5_">
	<g>
		<radialGradient id="SVGID_1_" cx="56.5209" cy="135.2961" r="59.1869" gradientUnits="userSpaceOnUse">
			<stop  offset="0" style="stop-color:#FECD97"/>
			<stop  offset="1" style="stop-color:#FFC07A"/>
		</radialGradient>
		<path fill-rule="evenodd" clip-rule="evenodd" fill="url(#SVGID_1_)" d="M75.115,68.046c0,0-32.92-8.161-42.966,14.834
			s-3.297,32.587-10.651,40.141c-7.354,7.555-17.268,1.802-10.72,19.489c6.769,18.284,32.884,20.736,40.226,20.113
			c7.839-0.666,8.489,3.456,8.73,4.366c0.914,3.442,0.285,6.73-7.636,19.726c-9.003,14.77,27.9,31.727,40.067-3.978
			c2.661-9.597-10.543-24.012,4.433-44.614C111.574,117.52,105.297,72.72,75.115,68.046z"/>
	</g>
</g>
<path fill-rule="evenodd" clip-rule="evenodd" fill="#66361F" d="M75.115,68.046c0,0-32.92-8.161-42.966,14.834
	c-1.047,2.396-1.864,4.632-2.562,6.775c0.394,2.659,1.48,5.327,3.074,8.57c4.575,9.309,16.892-1.737,32.736-13.81
	c0.002,0.165,7.329,15.526,19.437,20.46c3.731,1.447,12.138-5.993,17.1-10.862C97.952,81.007,89.107,70.213,75.115,68.046z"/>
<g id="形状_49_4_">
	<g>
		<path fill-rule="evenodd" clip-rule="evenodd" fill="#A85726" d="M72.046,101.294c-10.108-12.663-24.652,4.65-25.063,5.115
			c-0.411,0.465-0.064,1.6,1.023,0.512c15.448-15.004,21.811-5.244,23.017-4.092C71.849,103.617,73.566,103.198,72.046,101.294z"/>
	</g>
</g>
<g id="形状_50_2_">
	<g>
		<path fill-rule="evenodd" clip-rule="evenodd" fill="#754224" d="M74.901,112.662c0,0-14.984,11.372-29.453,3.465
			c-1.099-0.6-2.105-0.204-0.511,1.535c3.294,3.594,14.693,8.591,29.68-2.817c0,0,1.434,1.467,4.959,0.779
			C83.257,114.905,77.701,115.405,74.901,112.662z"/>
	</g>
</g>
<g id="形状_53_2_">
	<g>
		<path fill-rule="evenodd" clip-rule="evenodd" fill="#FE915C" d="M43.402,152.443c-1.031,0.196-14.391,2.796-21.164-0.579
			c-0.827-0.412-1.901,0.13-0.75,1.043c3.4,2.699,11.978,3.271,22.425,0.558C45.127,153.151,44.775,152.183,43.402,152.443z"/>
	</g>
</g>
<g id="形状_51_4_">
	<g>
		<path fill-rule="evenodd" clip-rule="evenodd" fill="#FFA083" d="M68.466,124.823c0,0-8.457,0.133-8.695,3.581
			c-0.239,3.447,6.66,3.957,8.695,4.092s8.769-0.672,9.207-3.581C78.11,126.006,73.405,124.838,68.466,124.823z"/>
	</g>
</g>
<path fill-rule="evenodd" clip-rule="evenodd" fill="#E5432E" d="M98.635,85.914c-6.887-5.008-30.234-19.97-56.451-14.506
	c-3.887,2.337-7.287,5.744-9.623,10.629c4.399-1.345,14.441-3.687,27.722-2.226c16.774,1.845,33.267,5.351,41.26,12.998
	C100.743,90.411,99.774,88.102,98.635,85.914z"/>
<g id="形状_56_4_">
	<g>
		<path fill-rule="evenodd" clip-rule="evenodd" fill="#E5432E" d="M78.696,40.425c-8.925,4.989-12.787,12.787-12.787,12.787
			s-0.288-8.425-8.695-23.018c-8.407-14.592-9.798,3.767-9.207,16.88c0.591,13.113,10.741,23.529,10.741,23.529h0.511
			c0,0-11.422,11.884,10.23,2.046c21.652-9.838,29.228-25.619,32.224-35.293S87.621,35.436,78.696,40.425z"/>
	</g>
</g>
<g id="形状_54_4_">
	<g>
		<path fill-rule="evenodd" clip-rule="evenodd" fill="#512A15" d="M14.863,127.874c-6.06,0.008-6.475,1.903-6.138,4.092
			c0.159,1.036,3.211,11.113,13.811,0C24.695,129.703,21.009,127.866,14.863,127.874z"/>
	</g>
</g>
<path opacity="0.6" fill-rule="evenodd" clip-rule="evenodd" fill="#DD7528" d="M53.836,162.602c0,0,8.616,0.332,16.369-4.577
	c1.898-1.202-1.473,12.627-10.952,15.171C59.253,173.196,63.321,163.629,53.836,162.602z"/>
</svg>
