<?xml version="1.0" encoding="utf-8"?>
<!-- Generator: Adobe Illustrator 17.0.0, SVG Export Plug-In . SVG Version: 6.00 Build 0)  -->
<!DOCTYPE svg PUBLIC "-//W3C//DTD SVG 1.1//EN" "http://www.w3.org/Graphics/SVG/1.1/DTD/svg11.dtd">
<svg version="1.1" id="图层_1" xmlns="http://www.w3.org/2000/svg" xmlns:xlink="http://www.w3.org/1999/xlink" x="0px" y="0px"
	 width="203.556px" height="210.23px" viewBox="0 0 203.556 210.23" enable-background="new 0 0 203.556 210.23"
	 xml:space="preserve">
<radialGradient id="SVGID_1_" cx="-211.5399" cy="214.2209" r="168.0895" gradientTransform="matrix(1.0802 -0.2488 0.2587 1.0896 302.2415 -147.7528)" gradientUnits="userSpaceOnUse">
	<stop  offset="0" style="stop-color:#FFC07D"/>
	<stop  offset="0.5713" style="stop-color:#FEB162"/>
	<stop  offset="1" style="stop-color:#FEA852"/>
</radialGradient>
<path fill-rule="evenodd" clip-rule="evenodd" fill="url(#SVGID_1_)" d="M153.894,185.855c9.967-14.581-3.322-12.182-6.46-27.317
	c-2.651-12.79-1.722-18.075,1.768-28.537c2.61-7.823-50.07,18.062-46.804,19.677c2.531,1.252,7.986,10.514,3.322,51.312
	C104.527,211.431,141.621,203.81,153.894,185.855z"/>
<path fill-rule="evenodd" clip-rule="evenodd" fill="#FFC07D" d="M139.601,79.8c0,0,15.728-10.249,24.908-17.314
	c7.908-6.086,15.826-12.294,19.037-15.074c6.633-5.743,16.408-9.845,12.413,9.274c-4.436,21.23-18.415,28.103-33.547,30.816
	c-5.974,1.071-10.38,0.183-15.646-0.36C138.004,86.238,139.601,79.8,139.601,79.8z"/>
<path fill-rule="evenodd" clip-rule="evenodd" fill="#FF9B48" d="M145.928,75.214c0,0,16.007-10.442,25.173-17.653
	c10.497-8.259,10.073-7.52,9.845-3.995c-0.174,2.68-1.234,11.206-14.553,19.546c-11.49,7.195-16.596,7.402-18.954,7.252
	S145.928,75.214,145.928,75.214z"/>
<radialGradient id="SVGID_2_" cx="-528.6782" cy="331.6556" r="48.93" gradientTransform="matrix(1.0605 0.3226 -0.3187 1.0735 727.3036 -82.1704)" gradientUnits="userSpaceOnUse">
	<stop  offset="0" style="stop-color:#FECD97"/>
	<stop  offset="1" style="stop-color:#FFC07A"/>
</radialGradient>
<path fill-rule="evenodd" clip-rule="evenodd" fill="url(#SVGID_2_)" d="M134.268,142.989c5.994-3.484,14.529-9.375,18.747-20.068
	c4.121-10.448,8.799-51.09-23.761-57.63c-15.008-3.015-33.898,7.602-43.134,18.918c-10.989,13.463-10.6,16.498-17.27,16.498
	c-10.809,0-13.564,9.636-12.895,15.229c1.859,15.53,9.999,29.096,29.964,33.389C105.868,153.614,127.395,146.983,134.268,142.989z"
	/>
<path fill-rule="evenodd" clip-rule="evenodd" fill="#66361F" d="M124.598,64.149c-5.526-0.797-24.233,3.809-32.864,14.2
	l3.067,0.873c16.231,4.287,19.689,0,19.533,2.223c-0.101,1.434,11.111,27.315,16.957,26.299c8.196-1.424,13.797-4.003,18.135-7.459
	c1.24-0.988,1.315,4.092,6.216,9.885c0,0,0.407-1.956,0.284-6.355C155.171,76.821,143.502,66.874,124.598,64.149z"/>
<path fill-rule="evenodd" clip-rule="evenodd" fill="#E5432E" d="M95.87,74.346c0,0,8.843,0.122,16.669,2.087
	c23.736,5.96,41.729,16.058,42.493,17.277c0,0,0.162-1.124-0.606-3.785c-0.55-1.904-12.667-14.372-33.099-18.229
	c0,0,4.675-13.09,17.516-3.816c14.696-4.708,25.488-18.96,26.496-24.319c1.155-6.138-1.202-6.2-4.146-6.228
	c-3.269-0.031-13.752,1.642-21.164,9.937c-6.59,7.375-18.449,10.247-18.843,11.573s1.336-8.382-1.56-18.849
	c-1.95-7.049-8.993-17.449-13.115-22.545c-6.917-8.551-9.542-1.283-10.087,1.535c-1.272,6.578-3.288,19.708,0.326,32.89
	c1.833,6.686,4.262,11.963,11.604,17.512c0,0-5.098,0.287-6.541,1.044C100.125,71.315,97.255,73.107,95.87,74.346z"/>
<g id="腮红2_12_">
	<g>
		<path fill-rule="evenodd" clip-rule="evenodd" fill="#FFA083" d="M102.02,112.34c-5.763-0.345-8.467,1.474-8.581,3.093
			c-0.092,1.311,1.804,3.874,7.129,3.94c6.715,0.086,8.864-1.976,9.021-2.976C109.766,115.283,109.085,112.763,102.02,112.34z"/>
	</g>
</g>
<path fill="#4F2914" d="M54.635,107.694c0.217,2.999,1.225,5.647,2.356,5.647c1.726,0,9.636-8.864,8.12-12
	c-1.129-2.335-6.067-3.219-8.548-0.996C54.334,102.343,54.527,106.198,54.635,107.694z"/>
<path fill="#A85726" d="M88.096,82.537c-0.805-0.602,0.748-1.229,0.748-1.229c3.025,2.34,7.296,5.017,15.197,6.667
	c1.384,0.289,1.108,1.419,0.07,1.41C101.773,89.367,95.411,88.005,88.096,82.537z"/>
<path fill-rule="evenodd" clip-rule="evenodd" fill="#FFCE99" d="M105.54,94.432c-8.587-0.611-8.979-2.661-13.417-1.868
	c-8.33,1.488-10.474-1.861-10.417-2.095c0.057-0.233-0.775-2.039,6.454-1.472c5.775,0.453,7.804,0.998,10.983,1.87
	c4.746,1.301,7.982,2.842,7.982,2.842"/>
<path fill="#FFFFFF" d="M81.018,90.867c0,0-2.236,14.072,9.774,15.334c12.01,1.262,15.662-7.909,15.719-11.293L81.018,90.867z"/>
<path fill="#512A15" d="M83.647,91.579c0,0-1.747,11.791,2.184,13.265c3.93,1.474,2.839-12.173,2.839-12.173L83.647,91.579z"/>
<path fill="#713D1F" d="M81.889,89.679c2.95,0.644,8.221,2.03,11.835,2.446c4.171,0.48,9.368,1.161,12.611,1.092
	c0,0,2.137-0.628,3.069-1.583c1.419-1.454,1.163-0.408,0.685,0.738c-0.488,1.17-1.837,2.433-3.494,2.756
	c-5.272-0.048-5.201-0.05-13.513-1.146c-2.586-0.341-8.025-1.256-12.228-2.893L81.889,89.679z"/>
<path fill="#FFA083" d="M64.388,137.131c3.113-0.082,6.259,0.544,7.93,0.909c1.147,0.25,2.295,0.682,1.97,1.609
	c-0.252,0.72-1.664,0.416-2.595,0.264c-0.932-0.152-1.819-0.617-5.466-0.747L64.388,137.131z"/>
<ellipse transform="matrix(0.998 -0.0636 0.0636 0.998 -6.2843 5.8822)" fill="#FFFFFF" cx="89.251" cy="101.649" rx="3.222" ry="1.741"/>
<path fill-rule="evenodd" clip-rule="evenodd" fill="#FFC07D" d="M119.174,72.352c0,0,3.579-20.842,4.295-30.501
	c0.716-9.659,3.811-19.873,5.032-23.626c2.766-8.502,6.001-9.345,11.299-4.723c5.299,4.621,12.147,20.198,8.422,34.919
	c-3.843,15.186-13.728,25.9-16.719,26.072C121.87,75.044,119.874,74.172,119.174,72.352z"/>
<path fill-rule="evenodd" clip-rule="evenodd" fill="#FF9B48" d="M122.173,74.346c0,0,5.038-5.424,7.332-14.239
	c2.109-8.105,2.375-21.187,0.666-26.603s-3.838-9.424-5.141-2.015c-0.95,5.403-4.109,30.733-5.856,40.863
	C119.174,72.352,119.174,73.88,122.173,74.346z"/>
<path fill-rule="evenodd" clip-rule="evenodd" fill="#8DCE63" d="M64.168,45.155c0,0-3.325-3.708-3.836-5.243
	s-2.302-0.767-1.79,0.895s2.941,5.243,4.603,6.266c0,0-2.293,9.848,8.44,12.148c9.32,1.997,14.45-6.01,14.45-8.951
	c0-1.66-1.253-0.209-2.43-0.128c-1.848,0.128-4.056-0.394-8.047-5.241C71.347,39.789,63.921,41.577,64.168,45.155z"/>
<path fill-rule="evenodd" clip-rule="evenodd" fill="#CECECE" d="M54.194,58.71c-0.575,1.812-4.236,8.784-10.869,7.033
	c0,0,5.115-13.366-4.22-13.366c-7.672,0-6.133,12.395,0.639,14.005c0,0-10.713,8.353-25.063-10.23c0,0-2.557-1.79-1.534,1.151
	c1.023,2.941,9.71,13.139,18.542,13.171c8.2,0.03,10.358-3.069,10.358-3.069s9.721,4.116,14.195-7.99
	C57.646,55.613,55.123,55.778,54.194,58.71z M41.225,64.772c-5.911-1.816-6.23-9.899-2.822-10.325
	C45.816,53.52,41.225,64.772,41.225,64.772z"/>
<path fill-rule="evenodd" clip-rule="evenodd" fill="#73A851" d="M63.145,47.073c0,0-2.371,10.252,8.44,12.148
	c12.572,2.204,16.508-11.699,13.53-8.721C75.144,60.471,61.482,46.05,63.145,47.073z"/>
</svg>
