<?xml version="1.0" encoding="utf-8"?>
<!-- Generator: Adobe Illustrator 17.0.0, SVG Export Plug-In . SVG Version: 6.00 Build 0)  -->
<!DOCTYPE svg PUBLIC "-//W3C//DTD SVG 1.1//EN" "http://www.w3.org/Graphics/SVG/1.1/DTD/svg11.dtd">
<svg version="1.1" id="图层_1" xmlns="http://www.w3.org/2000/svg" xmlns:xlink="http://www.w3.org/1999/xlink" x="0px" y="0px"
	 width="159.063px" height="210.23px" viewBox="0 0 159.063 210.23" enable-background="new 0 0 159.063 210.23"
	 xml:space="preserve">
<radialGradient id="SVGID_1_" cx="-340.4952" cy="1.8122" r="168.0895" gradientTransform="matrix(1.0802 -0.2488 -0.2587 -1.0896 455.8391 54.3967)" gradientUnits="userSpaceOnUse">
	<stop  offset="0" style="stop-color:#FFC07D"/>
	<stop  offset="0.5713" style="stop-color:#FEB162"/>
	<stop  offset="1" style="stop-color:#FEA852"/>
</radialGradient>
<path fill="url(#SVGID_1_)" d="M112.306,184.699c9.967-14.581-3.322-12.182-6.46-27.317c-2.651-12.79-1.722-18.075,1.768-28.537
	c2.61-7.823-50.07,18.062-46.804,19.677c2.531,1.252,7.986,10.514,3.322,51.312C62.939,210.275,100.033,202.654,112.306,184.699z"/>
<path fill="#FFC07D" d="M98.013,78.644c0,0,15.728-10.249,24.908-17.314c7.908-6.086,15.826-12.294,19.037-15.074
	c6.633-5.743,16.408-9.845,12.413,9.274c-4.436,21.23-18.415,28.103-33.547,30.816c-5.974,1.071-10.38,0.183-15.646-0.36
	C96.416,85.082,98.013,78.644,98.013,78.644z"/>
<path fill="#FF9B48" d="M104.34,74.058c0,0,16.007-10.442,25.173-17.653c10.497-8.259,10.073-7.52,9.845-3.995
	c-0.174,2.68-1.234,11.206-14.553,19.546c-11.49,7.195-16.596,7.402-18.954,7.252S104.34,74.058,104.34,74.058z"/>
<radialGradient id="SVGID_2_" cx="-513.3026" cy="-29.5125" r="48.93" gradientTransform="matrix(1.0605 0.3226 0.3187 -1.0735 573.1172 236.0639)" gradientUnits="userSpaceOnUse">
	<stop  offset="0" style="stop-color:#FECD97"/>
	<stop  offset="1" style="stop-color:#FFC07A"/>
</radialGradient>
<path fill="url(#SVGID_2_)" d="M92.68,141.833c5.994-3.484,14.529-9.375,18.747-20.068c4.121-10.448,8.799-51.09-23.761-57.63
	c-15.008-3.015-33.898,7.602-43.134,18.918c-10.989,13.463-10.6,16.498-17.27,16.498c-10.809,0-13.564,9.636-12.895,15.229
	c1.859,15.53,9.999,29.096,29.964,33.389C64.28,152.458,85.807,145.827,92.68,141.833z"/>
<path fill="#66361F" d="M83.01,62.993c-5.526-0.797-24.233,3.809-32.864,14.2l3.067,0.873c16.231,4.287,19.689,0,19.533,2.223
	c-0.101,1.434,11.111,27.315,16.957,26.299c8.196-1.424,13.797-4.003,18.135-7.459c1.24-0.988,1.315,4.092,6.216,9.885
	c0,0,0.407-1.956,0.284-6.355C113.583,75.665,101.914,65.718,83.01,62.993z"/>
<path fill="#E5432E" d="M54.282,73.19c0,0,8.843,0.122,16.669,2.087c23.736,5.96,41.729,16.058,42.493,17.277
	c0,0,0.162-1.124-0.606-3.785c-0.55-1.904-12.667-14.372-33.099-18.229c0,0,4.675-13.09,17.516-3.816
	c14.696-4.708,25.488-18.96,26.496-24.319c1.155-6.138-1.202-6.2-4.146-6.228c-3.269-0.031-13.752,1.642-21.164,9.937
	c-6.59,7.375-18.449,10.247-18.843,11.573s1.336-8.382-1.56-18.849c-1.95-7.049-8.993-17.449-13.115-22.545
	c-6.917-8.551-9.542-1.283-10.087,1.535c-1.272,6.578-3.288,19.708,0.326,32.89c1.833,6.686,4.262,11.963,11.604,17.512
	c0,0-5.098,0.287-6.541,1.044C58.537,70.159,55.667,71.951,54.282,73.19z"/>
<g id="腮红2_12_">
	<g>
		<path fill="#FFA083" d="M60.432,111.184c-5.763-0.345-8.467,1.474-8.581,3.093c-0.092,1.311,1.804,3.874,7.129,3.94
			c6.715,0.086,8.864-1.976,9.021-2.976C68.178,114.127,67.497,111.607,60.432,111.184z"/>
	</g>
</g>
<path fill="#4F2914" d="M13.047,106.538c0.217,2.999,1.225,5.647,2.356,5.647c1.726,0,9.636-8.864,8.12-12
	c-1.129-2.335-6.067-3.219-8.548-0.996C12.746,101.187,12.939,105.042,13.047,106.538z"/>
<path fill="#A85726" d="M46.508,81.381c-0.805-0.602,0.748-1.229,0.748-1.229c3.025,2.34,7.296,5.017,15.197,6.667
	c1.384,0.289,1.108,1.419,0.07,1.41C60.185,88.211,53.823,86.849,46.508,81.381z"/>
<path fill="#FFCE99" d="M63.952,93.276c-8.587-0.611-8.979-2.661-13.417-1.868c-8.33,1.488-10.474-1.861-10.417-2.095
	c0.057-0.233-0.775-2.039,6.454-1.472c5.775,0.453,7.804,0.998,10.983,1.87c4.746,1.301,7.982,2.842,7.982,2.842"/>
<path fill="#FFFFFF" d="M39.43,89.711c0,0-2.236,14.072,9.774,15.334s15.662-7.909,15.719-11.293L39.43,89.711z"/>
<path fill="#512A15" d="M42.059,90.423c0,0-1.747,11.791,2.184,13.265c3.93,1.474,2.839-12.173,2.839-12.173L42.059,90.423z"/>
<path fill="#713D1F" d="M40.301,88.523c2.95,0.644,8.221,2.03,11.835,2.446c4.171,0.48,9.368,1.161,12.611,1.092
	c0,0,2.137-0.628,3.069-1.583c1.419-1.454,1.163-0.408,0.685,0.738c-0.488,1.17-1.837,2.433-3.494,2.756
	c-5.272-0.048-5.201-0.05-13.513-1.146c-2.586-0.341-8.025-1.256-12.228-2.893L40.301,88.523z"/>
<path fill="#FFA083" d="M22.8,135.975c3.113-0.082,6.259,0.544,7.93,0.909c1.147,0.25,2.295,0.682,1.97,1.609
	c-0.252,0.72-1.664,0.416-2.595,0.264c-0.932-0.152-1.819-0.617-5.466-0.747L22.8,135.975z"/>
<ellipse transform="matrix(-0.0636 -0.998 0.998 -0.0636 -49.5951 154.4558)" fill="#FFFFFF" cx="47.665" cy="100.495" rx="1.741" ry="3.222"/>
<path fill="#FFC07D" d="M77.586,71.196c0,0,3.579-20.842,4.295-30.501c0.716-9.659,3.811-19.873,5.032-23.626
	c2.766-8.502,6.001-9.345,11.299-4.723c5.299,4.621,12.147,20.198,8.422,34.919c-3.843,15.186-13.728,25.9-16.719,26.072
	C80.282,73.888,78.286,73.016,77.586,71.196z"/>
<path fill="#FF9B48" d="M80.585,73.19c0,0,5.038-5.424,7.332-14.239c2.109-8.105,2.375-21.187,0.666-26.603
	s-3.838-9.424-5.141-2.015c-0.95,5.403-4.109,30.733-5.856,40.863C77.586,71.196,77.586,72.724,80.585,73.19z"/>
<path fill="#8DCE63" d="M27.054,47.929c0,0-3.325-3.708-3.836-5.243s-2.302-0.767-1.79,0.895s2.941,5.243,4.603,6.266
	c0,0-2.293,9.848,8.44,12.148c9.32,1.997,14.45-6.01,14.45-8.951c0-1.66-1.253-0.209-2.43-0.128
	c-1.848,0.128-4.056-0.394-8.047-5.241C34.233,42.563,26.807,44.351,27.054,47.929z"/>
<path fill="#CECECE" d="M25.105,63.053c-0.321,1.011-2.364,4.901-6.065,3.924c0,0,2.854-7.458-2.355-7.458
	c-4.281,0-3.422,6.916,0.357,7.815c0,0-5.978,4.661-13.985-5.708c0,0-1.427-0.999-0.856,0.642s5.418,7.331,10.346,7.349
	c4.576,0.017,5.78-1.712,5.78-1.712s5.424,2.297,7.921-4.458C27.031,61.325,25.624,61.417,25.105,63.053z M17.869,66.436
	c-3.298-1.013-3.476-5.524-1.575-5.761C20.43,60.158,17.869,66.436,17.869,66.436z"/>
<path fill="#73A851" d="M26.031,49.847c0,0-2.371,10.252,8.44,12.148c12.572,2.204,16.508-11.699,13.53-8.721
	C38.03,63.245,24.368,48.824,26.031,49.847z"/>
</svg>
