<?xml version="1.0" encoding="utf-8"?>
<!-- Generator: Adobe Illustrator 17.0.0, SVG Export Plug-In . SVG Version: 6.00 Build 0)  -->
<!DOCTYPE svg PUBLIC "-//W3C//DTD SVG 1.1//EN" "http://www.w3.org/Graphics/SVG/1.1/DTD/svg11.dtd">
<svg version="1.1" id="图层_1" xmlns="http://www.w3.org/2000/svg" xmlns:xlink="http://www.w3.org/1999/xlink" x="0px" y="0px"
	 width="159.063px" height="210.23px" viewBox="0 0 159.063 210.23" enable-background="new 0 0 159.063 210.23"
	 xml:space="preserve">
<path fill-rule="evenodd" clip-rule="evenodd" fill="#FFCE99" d="M42.628,94.566c5.27-0.301,7.649,2.442,9.463,5.767
	c2.279,4.18,1.398,3.275,1.398,3.275"/>
<path fill-rule="evenodd" clip-rule="evenodd" fill="#FFCE99" d="M53.489,103.608c-6.931-4.897-5.866-6.767-9.994-6.029
	c-7.749,1.384-5.773,3.395-5.72,3.178"/>
<g id="形状_41">
	<g>
		<path fill-rule="evenodd" clip-rule="evenodd" fill="#FFC07D" d="M64.096,68.971c-2.435-2.266-3.403-7.663-9.604-21.927
			c-6.733-15.49-12.72-23.88-22.948-29.149C20.95,12.436,21.217,42.396,27.054,57.55c5.836,15.154,22.866,28.323,22.866,28.323
			S66.532,71.237,64.096,68.971z"/>
	</g>
</g>
<g id="形状_44">
	<g>
		<path fill-rule="evenodd" clip-rule="evenodd" fill="#FF9B48" d="M58.016,71.473c-4.689-21.901-16.783-32.49-21.494-36.546
			c-2.185-1.881-6.74-1.94-3.658,14.618c3.081,16.558,20.579,29.693,20.579,29.693S62.705,93.374,58.016,71.473z"/>
	</g>
</g>
<g id="形状_42">
	<g>
		<path fill-rule="evenodd" clip-rule="evenodd" fill="#FFC07D" d="M148.852,25.147c-2.002-17.905-27.379,6.402-33.89,12.697
			C94.312,57.805,91.61,71.667,91.61,71.667s-27.44,27.482,13.416,20.536S150.854,43.053,148.852,25.147z"/>
	</g>
</g>
<g id="形状_43">
	<g>
		<path fill-rule="evenodd" clip-rule="evenodd" fill="#FF9B48" d="M135.061,44.214c-0.127-6.091-4.958-8.951-19.154,3.783
			c-14.528,13.031-19.349,28.349-19.349,28.349s-22.467,19.148,7.115,6.259C133.254,69.716,135.188,50.305,135.061,44.214z"/>
	</g>
</g>
<radialGradient id="SVGID_1_" cx="71.0691" cy="132.1916" r="59.0083" gradientUnits="userSpaceOnUse">
	<stop  offset="0" style="stop-color:#FECD97"/>
	<stop  offset="1" style="stop-color:#FFC07A"/>
</radialGradient>
<path fill-rule="evenodd" clip-rule="evenodd" fill="url(#SVGID_1_)" d="M96.546,154.501c2.418-17.762,20.34-21.896,15.144-59.53
	c-1.735-13.898-7.312-28.474-22.977-34.465c0,0-48.998-9.214-50.653,40.209c-0.113,6.607-3.25,19.739-6.789,25.588
	c-3.538,5.848-2.627,16.986,10.966,26.11c13.593,9.123,22.728,8.102,24.286,8.609c1.558,0.506,8.354-3.482-3.92,31.6
	c-6.131,18.181,38.97,14.93,39.485-5.266C101.959,186.952,94.128,172.264,96.546,154.501z"/>
<path fill-rule="evenodd" clip-rule="evenodd" fill="#66361F" d="M111.723,94.969c-1.735-13.897-8.411-31.218-22.977-34.465
	c-7.16-1.596-39.992-7.51-48.93,27.494c3.264-1.852,7.89-5.82,9.243-7.651c1.311-1.774,1.26,8.354,6.789,12.011
	c5.251,3.472,29.708-9.798,32.898-13.055c1.425-1.455,7.698,16.994,23.351,18.723C111.988,97.029,111.868,96.016,111.723,94.969z"/>
<g id="形状_28">
	<g>
		<path fill-rule="evenodd" clip-rule="evenodd" fill="#A85726" d="M94.979,92.882c-15.196-10.759-25.588,7.311-25.588,7.311
			c-0.448,0.836,0.106,1.819,1.044,0.522c10.406-12.898,22.703-7.192,23.499-6.789C95.469,94.706,96.29,93.815,94.979,92.882z"/>
	</g>
</g>
<path fill-rule="evenodd" clip-rule="evenodd" fill="#FFCE99" d="M71.691,109.501c6.931-4.897,5.866-6.767,9.994-6.029
	c7.749,1.384,18.483,3.544,18.43,3.327c-0.053-0.217-0.158-10.444-11.896-10.192c-7.91,0.17-13.667,6.882-15.48,10.207
	C70.46,110.995,71.691,109.501,71.691,109.501"/>
<g id="形状_29">
	<g>
		<path fill-rule="evenodd" clip-rule="evenodd" fill="#A85726" d="M46.937,97.582c-4.866-8.231-8.293-3.799-8.293-3.799
			l-0.192,1.519c3.211-1.899,6.648,1.685,7.44,2.802C46.685,99.221,47.679,98.838,46.937,97.582z"/>
	</g>
</g>
<path fill-rule="evenodd" clip-rule="evenodd" fill="#FFFFFF" d="M46.415,111.681c0,0-1.761-13.792-8.31-11.666
	c-0.01,0.239-0.037,0.458-0.046,0.7c-0.059,3.466-0.956,8.726-2.301,13.79c0.915,1.941,2.416,3.449,4.912,3.443
	C47.73,117.929,46.415,111.681,46.415,111.681z"/>
<g id="形状_35">
	<g>
		<path fill-rule="evenodd" clip-rule="evenodd" fill="#FFFFFF" d="M99.156,106.982c-0.618-3.065-12.698-15.16-27.676,3.133
			c0,0,1.195,10.22,13.577,10.966C97.439,121.827,99.774,110.046,99.156,106.982z"/>
	</g>
</g>
<g id="形状_33">
	<g>
		<path fill-rule="evenodd" clip-rule="evenodd" fill="#512A15" d="M95.501,101.238c0,0-10.144-4.322-19.843,3.133
			c0,0-1.16,15.284,12.533,13.577C100.863,116.368,96.034,101.923,95.501,101.238z"/>
	</g>
</g>
<g id="形状_30">
	<g>
		<path fill-rule="evenodd" clip-rule="evenodd" fill="#733F21" d="M105.191,105.262c0,0-2.868,1.884-4.99,1.198
			c0,0-1.058-6.685-10.966-7.311c-9.908-0.626-16.811,8.222-17.755,9.888c-0.468,0.929-0.233,1.657,0.522,1.079
			c1.509-1.489,5.37-9.085,17.232-8.877c6.688,0.113,9.898,5.985,10.012,7.426c0,0,4,1.142,6.592-3.239
			C106.559,104.207,105.191,105.262,105.191,105.262z"/>
	</g>
</g>
<g id="形状_36">
	<g>
		<path fill-rule="evenodd" clip-rule="evenodd" fill="#512A15" d="M45.37,125.781c-10.057-0.207-7.218,3.496-6.789,4.178
			c5.491,8.71,15.248,2.046,16.188,0.522C55.71,128.956,55.428,125.987,45.37,125.781z"/>
	</g>
</g>
<path fill-rule="evenodd" clip-rule="evenodd" fill="#FFCE99" d="M46.698,111.215c-6.931-4.897-1.198-10.207-4.303-11.027
	c-7.61-2.01-1.933,0.528-3.942,0.528c-0.393,0-1.028-2.69,1.808-3.292c1.801-0.382,4.155,0.12,5.571,4.612
	c1.424,4.52,1.082,10.577,1.082,10.577"/>
<g id="形状_37">
	<g>
		<path fill-rule="evenodd" clip-rule="evenodd" fill="#FCAA7D" d="M91.324,125.259c-1.692,0.107-7.26,1.284-6.789,4.178
			c0.472,2.893,6.194,3.075,7.311,3.133c1.117,0.058,7.536-0.645,7.833-3.655C99.975,125.903,93.015,125.152,91.324,125.259z"/>
	</g>
</g>
<g id="形状_38">
	<g>
		<path fill-rule="evenodd" clip-rule="evenodd" fill="#FE915C" d="M70.958,151.89c-0.835-0.333-20.646-6.69-29.243-1.567
			c-0.684,0.407-0.476,1.703,1.567,1.044c2.043-0.658,7.7-3.643,27.154,2.089C72.767,154.274,72.747,152.603,70.958,151.89z"/>
	</g>
</g>
<g id="形状_32">
	<g>
		<path fill-rule="evenodd" clip-rule="evenodd" fill="#512A15" d="M41.193,100.715c0,0-4.034,1.952-2.089,8.877
			s6.823,5.522,7.311,3.655C46.903,111.381,45.626,102.011,41.193,100.715z"/>
	</g>
</g>
<path fill-rule="evenodd" clip-rule="evenodd" fill="#E5432E" d="M78.269,63.117c-13.249-1.057-22.757,3.238-29.333,7.927
	c-2.617,2.67-4.921,5.956-6.733,9.985c3.547-3.577,12.114-9.738,28.755-9.035c22.005,0.93,30.611,9.108,40.562,21.789
	c-0.527-3.749-1.346-7.522-2.577-11.151C104.269,76.82,92.611,64.262,78.269,63.117z"/>
<g id="形状_40">
	<g>
		<path fill-rule="evenodd" clip-rule="evenodd" fill="#E5432E" d="M99.156,17.686c-0.935-4.814-4.176-5.162-8.355-3.133
			c-14.579,9.199-19.792,29.064-19.732,29.314c-8.936-37.341-16.933-31.4-18.732-28.895c-2.421,3.371-5.826,15.473-1.37,30.225
			c5.368,17.77,12.785,21.066,12.785,21.066s6.289,6.777,14.611,0.458C101.245,49.121,101.367,29.068,99.156,17.686z"/>
	</g>
</g>
<g id="形状_31">
	<g>
		<path fill-rule="evenodd" clip-rule="evenodd" fill="#733F21" d="M38.08,99.098c0,0-2.025,3.199-5.242,0.573
			c0,0-1.568-1.691-0.522,0.522c1.334,2.825,4.924,1.925,5.661,1.15c0.597-0.628,7.293,0.084,8.438,11.383
			c-0.045,1.439,0.513,1.137,0.522,0.522S46.342,96.623,38.08,99.098z"/>
	</g>
</g>
<ellipse fill-rule="evenodd" clip-rule="evenodd" fill="#FFFFFF" cx="40.26" cy="111.756" rx="2.283" ry="1.177"/>
<ellipse fill-rule="evenodd" clip-rule="evenodd" fill="#FFFFFF" cx="79.113" cy="114.749" rx="3.48" ry="1.816"/>
<g id="Shape_2_38_">
	<g>
		<path fill-rule="evenodd" clip-rule="evenodd" fill="#9C6342" d="M42.543,117.763c-1.636,0.318-2.826,0.185-3.867-0.193
			c-1.303-0.473-2.384-2.064-2.656-3.199c-0.123-0.511-0.437,0.026-0.309,0.925c-0.655,0.149-1.21,0.595-1.351,0.983
			c-0.137,0.38,0.339-0.22,1.257-0.04c0.179,0.035,0.309,0.063,0.417,0.088c0.211,0.442,0.534,0.904,1.016,1.342
			c-0.377,0.273-0.709,0.663-0.829,1.052c-0.195,0.636,0.19,0.277,1.219-0.046c0.399-0.125,0.758-0.118,0.988-0.096
			C40.641,119.529,44.48,117.387,42.543,117.763z"/>
	</g>
</g>
<g id="Shape_2_34_">
	<g>
		<path fill-rule="evenodd" clip-rule="evenodd" fill="#9C6342" d="M96.922,117.19c1.438-2.338,1.549-4.651,1.164-3.792
			c-0.908,2.027-2.139,4.408-5.143,5.979c-2.785,1.456-6.234,1.69-8.535,1.837c-2.095,0.131,4.221,1.292,8.597-0.58
			c0.321,0.094,0.806,0.253,1.313,0.494c0.609,0.288,1.758,0.976,1.679,0.568c-0.142-0.721-0.577-1.646-1.185-2.128
			c0.427-0.333,0.811-0.693,1.147-1.075c0.176,0.011,0.4,0.028,0.698,0.056c0.941,0.088,1.884,1.146,1.857,0.573
			C98.487,118.526,97.857,117.657,96.922,117.19z"/>
	</g>
</g>
<path opacity="0.6" fill-rule="evenodd" clip-rule="evenodd" fill="#DD7528" d="M68.299,161.242c0,0,7.915,1.012,17.502-4.905
	c1.853-1.144-1.887,11.159-16.663,14.177C69.138,170.514,71.069,161.737,68.299,161.242z"/>
</svg>
