<?xml version="1.0" encoding="utf-8"?>
<!-- Generator: Adobe Illustrator 17.0.0, SVG Export Plug-In . SVG Version: 6.00 Build 0)  -->
<!DOCTYPE svg PUBLIC "-//W3C//DTD SVG 1.1//EN" "http://www.w3.org/Graphics/SVG/1.1/DTD/svg11.dtd">
<svg version="1.1" id="图层_1" xmlns="http://www.w3.org/2000/svg" xmlns:xlink="http://www.w3.org/1999/xlink" x="0px" y="0px"
	 width="159.063px" height="210.23px" viewBox="0 0 159.063 210.23" enable-background="new 0 0 159.063 210.23"
	 xml:space="preserve">
<g id="形状_101">
	<g>
		<path fill-rule="evenodd" clip-rule="evenodd" fill="#FFC07D" d="M58.16,49.571c-5.889-15.226-18.119-33.028-24.971-39.086
			c-6.852-6.058-10.872,8.933-7.6,33.114s23.343,33.114,23.343,33.114s10.195-1.201,11.4-7.6
			C61.537,62.714,64.049,64.797,58.16,49.571z"/>
	</g>
</g>
<g id="形状_102">
	<g>
		<path fill-rule="evenodd" clip-rule="evenodd" fill="#FF9B48" d="M47.303,38.171c-1.681-2.321-10.508-9.429-10.314,4.343
			c0.126,20.848,15.2,30.4,15.2,30.4s5.738,2.108,6.514-7.057C59.479,56.691,48.984,40.491,47.303,38.171z"/>
	</g>
</g>
<g id="形状_104">
	<g>
		<path fill-rule="evenodd" clip-rule="evenodd" fill="#FFC07D" d="M120.046,22.428C102.02,36.025,92.903,62.599,92.903,62.599
			s-14.479,20.446,11.943,11.943s34.962-30.856,39.086-48.857C148.055,7.684,138.072,8.831,120.046,22.428z"/>
	</g>
</g>
<g id="形状_103">
	<g>
		<path fill-rule="evenodd" clip-rule="evenodd" fill="#FF9B48" d="M111.903,39.799c-10.624,10.617-14.114,26.057-14.114,26.057
			s-8.713,9.068,4.886,2.714c13.599-6.353,23.961-21.762,27.143-32.028C132.999,26.276,122.527,29.182,111.903,39.799z"/>
	</g>
</g>
<g id="形状_85">
	<g>
		
			<radialGradient id="SVGID_1_" cx="62.5173" cy="140.5808" r="60.2571" gradientTransform="matrix(1 0 0 1 8.9584 -9.3049)" gradientUnits="userSpaceOnUse">
			<stop  offset="0" style="stop-color:#FECD97"/>
			<stop  offset="1" style="stop-color:#FFC07A"/>
		</radialGradient>
		<path fill-rule="evenodd" clip-rule="evenodd" fill="url(#SVGID_1_)" d="M110.274,79.971
			c-6.27-17.645-17.603-21.209-23.343-21.171c0,0-28.577-5.389-38.543,15.2c-9.966,20.589-7.163,29.82-16.286,40.714
			c-12.287,14.673,3.62,34.084,17.372,39.086c11.725,4.265,16.617,2.149,16.605,7.997c-0.012,5.848-2.357,13.961-7.377,21.317
			c-5.02,7.357-2.656,19.443,15.2,21.171c14.531,1.407,29.259-11.654,23.886-27.143c-3.154-9.092-5.87-18.514,4.343-29.314
			C108.547,141.042,122.78,120.839,110.274,79.971z"/>
	</g>
</g>
<g id="形状_87">
	<g>
		<path fill-rule="evenodd" clip-rule="evenodd" fill="#A85726" d="M58.793,87.311c-2.138-11.252-9.668-1.161-9.862-0.826
			c-0.62,1.073,0.152,2.628,1.629,0.543c5.836-8.242,6.988-0.066,7.057,0.543C57.748,88.724,59.098,88.913,58.793,87.311z"/>
	</g>
</g>
<g id="形状_88">
	<g>
		<path fill-rule="evenodd" clip-rule="evenodd" fill="#A85726" d="M96.703,84.856c-5.1-9.219-12.148-0.116-12.486,0.543
			c-0.564,1.099,0.108,1.841,1.086,0.543c5.552-7.369,9.69-0.789,10.049-0.151C95.983,86.912,97.684,86.63,96.703,84.856z"/>
	</g>
</g>
<path fill-rule="evenodd" clip-rule="evenodd" fill="#66361F" d="M110.274,79.971c-6.27-17.645-17.603-21.209-23.343-21.171
	c0,0-28.577-5.389-38.543,15.2c-2.135,4.412-3.663,8.277-4.869,11.774c4.785-1.245,15.726-6.888,15.726-6.888
	s1.574,13.23,7.057,10.857c5.483-2.373,16.996-8.999,17.914-11.943c0.88-2.82,13.069,10.246,28.373,10.821
	C111.949,85.842,111.192,82.969,110.274,79.971z"/>
<g id="形状_91">
	<g>
		<path fill-rule="evenodd" clip-rule="evenodd" fill="#865334" d="M63.046,94.085c-0.234-0.23-14.657-0.543-14.657-0.543
			s-1.803,8.5,3.8,13.571C57.791,112.185,64.423,105.952,63.046,94.085z"/>
	</g>
</g>
<path fill-rule="evenodd" clip-rule="evenodd" fill="#FFCE99" d="M62.573,94.214c-8.334-1.112-6.748-1.568-11.269-0.76
	c-8.486,1.516-9.827,0.52-9.769,0.282c0.058-0.238-2.324-2.407,4.929-3.799c6.577-1.262,9.981-0.625,13.979,1.382
	C64.767,93.49,62.573,94.214,62.573,94.214"/>
<path fill-rule="evenodd" clip-rule="evenodd" fill="#FFFFFF" d="M62.503,94.628c-0.812-2.078-14.782-1.313-21.462-0.825
	c-0.928,3.394-1.685,6.412-2.62,9.238c1.167,5.37,3.836,11.578,9.967,13.844C60.164,121.238,64.503,100.585,62.503,94.628z"/>
<path fill-rule="evenodd" clip-rule="evenodd" fill="#FFCE99" d="M111.111,94.9c-8.747-0.623-16.388-1.69-20.91-0.882
	c-8.486,1.516-11.417,0.3-11.36,0.062c0.058-0.238-0.141-1.799,7.14-3.041c5.937-1.013,10.019-1.618,18.014-0.586
	c4.971,0.642,7.364,3.089,7.364,3.089"/>
<g id="形状_94">
	<g>
		<path fill-rule="evenodd" clip-rule="evenodd" fill="#FFFFFF" d="M111.36,95.171c-0.368-0.609-31.486,0-31.486,0
			s-1.913,20.778,14.114,23.343C110.016,121.078,114.236,104.324,111.36,95.171z"/>
	</g>
</g>
<g id="形状_95">
	<g>
		<path fill-rule="evenodd" clip-rule="evenodd" fill="#512A15" d="M51.103,117.971c-6.674,0.077-6.488,2.131-5.971,3.257
			c4.61,10.048,13.833,2.916,15.2,0C61.073,119.645,57.777,117.894,51.103,117.971z"/>
	</g>
</g>
<g id="形状_96">
	<g>
		<path fill-rule="evenodd" clip-rule="evenodd" fill="#FF8146" d="M60.332,146.742c-0.677-1.196-4.661-5.661-5.971-7.6
			c-1.294-1.914-2.005-0.575-2.171,0.543c-0.166,1.118,0.133,4.982-0.543,7.057c-0.676,2.076,0.696,1.936,1.086,1.086
			c0.699-1.523,1.086-5.971,1.086-5.971s3.357,4.891,5.429,5.971C60.495,148.536,61.009,147.938,60.332,146.742z"/>
	</g>
</g>
<g id="形状_97">
	<g>
		<path fill-rule="evenodd" clip-rule="evenodd" fill="#FFA083" d="M33.732,117.971c-5.586-0.07-4.886,3.257-4.886,3.257
			c0.273,1.297,1.453,2.67,4.886,2.714c3.432,0.045,7.016-0.965,7.057-2.714C40.83,119.478,39.318,118.041,33.732,117.971z"/>
	</g>
</g>
<g id="形状_98">
	<g>
		<path fill-rule="evenodd" clip-rule="evenodd" fill="#FFA083" d="M101.046,121.228c-10.025,0.03-9.094,2.668-9.11,3.257
			c-0.039,1.45,2.502,3.29,8.567,3.257c6.065-0.033,6.815-1.216,7.057-2.714C107.802,123.529,106.622,121.355,101.046,121.228z"/>
	</g>
</g>
<path fill-rule="evenodd" clip-rule="evenodd" fill="#E5432E" d="M110.274,79.971c-0.227-0.638-0.474-1.219-0.713-1.821
	c-30.929-24.906-50.607-15.053-59.474-7.123c-0.608,0.93-1.183,1.908-1.698,2.972c-1.128,2.33-2.073,4.496-2.91,6.554
	c27.816-20.334,60.975,3.172,67.066,7.864C111.912,85.702,111.17,82.896,110.274,79.971z"/>
<g id="形状_91_拷贝">
	<g>
		<path fill-rule="evenodd" clip-rule="evenodd" fill="#512A15" d="M63.046,94.085c-0.234-0.23-14.657-0.543-14.657-0.543
			s-1.803,8.5,3.8,13.571C57.791,112.185,64.423,105.952,63.046,94.085z"/>
	</g>
</g>
<g id="形状_92">
	<g>
		<path fill-rule="evenodd" clip-rule="evenodd" fill="#512A15" d="M111.36,94.628c-0.428-0.064-20.086,0-20.086,0
			s-0.337,9.385,6.514,13.571C104.64,112.386,115.059,106.679,111.36,94.628z"/>
	</g>
</g>
<g id="形状_89">
	<g>
		<path fill-rule="evenodd" clip-rule="evenodd" fill="#733F21" d="M62.587,92.974l-20.97-1.178c0,0-2.895,4.26-7.1,0
			c0,0,1.625,6.505,6.814,2.29c0.198-0.026,21.171,0.543,21.171,0.543s1.144,0.153,1.147-0.743
			C63.653,92.988,62.587,92.974,62.587,92.974z"/>
	</g>
</g>
<g id="形状_90">
	<g>
		<path fill-rule="evenodd" clip-rule="evenodd" fill="#733F21" d="M111.36,93.542c-0.29-0.171-31.155-0.06-32.029,0
			c-0.873,0.06-1.58,1.057,0,1.629c1.738,0.629,31.486,0.543,31.486,0.543s6.351,4.137,10.139-1.868
			C121.762,92.569,118.361,97.666,111.36,93.542z"/>
	</g>
</g>
<g id="形状_100">
	<g>
		<path fill-rule="evenodd" clip-rule="evenodd" fill="#E5432E" d="M86.003,26.803C74.789,37.666,71.461,50.5,71.461,50.5
			s0-12.748-8.958-27.529c-5.944-9.809-10.315,4.635-10.315,18.26c0,18.32,12.486,24.625,12.486,24.625s8.435,5.762,16.828,0.543
			c8.394-5.219,19.815-17.1,23.391-36.228C108.68,9.91,93.673,19.374,86.003,26.803z"/>
	</g>
</g>
<ellipse fill-rule="evenodd" clip-rule="evenodd" fill="#FFFFFF" cx="93.673" cy="105.846" rx="4.551" ry="2.552"/>
<ellipse fill-rule="evenodd" clip-rule="evenodd" fill="#FFFFFF" cx="49.19" cy="104.863" rx="4.64" ry="2.33"/>
<g id="Shape_2_45_">
	<g>
		<path fill-rule="evenodd" clip-rule="evenodd" fill="#9C6342" d="M47.771,116.58c-0.771-0.346-1.593-0.722-3.816-2.61
			c-2.456-2.085-3.523-5.08-4.388-7.132c-0.358-0.849-0.261,0.724,0.538,2.843c-0.976,0.384-1.787,1.338-1.968,2.056
			c-0.169,0.674,0.933-0.425,1.791-0.376c0.536,0.031,0.827,0.066,0.97,0.087c0.402,0.769,0.891,1.539,1.478,2.248
			c-0.62,0.502-1.19,1.469-1.482,2.256c-0.174,0.471,1.019-0.156,1.632-0.398c0.535-0.211,1.027-0.323,1.333-0.379
			C47.127,117.897,49.713,117.451,47.771,116.58z"/>
	</g>
</g>
<g id="Shape_2_43_">
	<g>
		<path fill-rule="evenodd" clip-rule="evenodd" fill="#9C6342" d="M109.779,113.506c1.528-2.853,1.491-5.622,1.108-4.585
			c-0.896,2.423-2.277,5.008-5.462,7.314c-2.927,2.12-7.128,2.005-9.75,2.331c-2.375,0.293,4.94,1.549,9.827-0.832
			c0.366,0.092,0.86,0.236,1.374,0.447c0.718,0.295,2.081,1.018,1.962,0.548c-0.2-0.777-0.704-1.753-1.365-2.302
			c0.51-0.442,0.955-0.922,1.34-1.424c0.159,0.003,0.339,0.007,0.558,0.015c1.083,0.039,2.237,1.208,2.165,0.543
			C111.466,114.912,110.776,114.012,109.779,113.506z"/>
	</g>
</g>
<path opacity="0.6" fill-rule="evenodd" clip-rule="evenodd" fill="#DD7528" d="M64.839,158.42c0,0,5.044,1.997,16.572,0
	c4.137-0.716-0.496,10.039-16.572,12.2C64.839,170.62,67.489,161.08,64.839,158.42z"/>
</svg>
