<?xml version="1.0" encoding="utf-8"?>
<!-- Generator: Adobe Illustrator 17.0.0, SVG Export Plug-In . SVG Version: 6.00 Build 0)  -->
<!DOCTYPE svg PUBLIC "-//W3C//DTD SVG 1.1//EN" "http://www.w3.org/Graphics/SVG/1.1/DTD/svg11.dtd">
<svg version="1.1" id="图层_1" xmlns="http://www.w3.org/2000/svg" xmlns:xlink="http://www.w3.org/1999/xlink" x="0px" y="0px"
	 width="159.063px" height="210.23px" viewBox="0 0 159.063 210.23" enable-background="new 0 0 159.063 210.23"
	 xml:space="preserve">
<path fill="#FFC07D" d="M59.541,84.781c0,0-32.473,2.115-38.933-32.373c-4.345-23.196,8.949-48.672,16.649-33.197
	s13.115,33.313,30.932,52.93S59.541,84.781,59.541,84.781z"/>
<path fill="#FFC07D" d="M89.526,79.833c0,0,15.98-21.595,29.234-38.455c5.118-6.511,16.046-16.71,20.988-16.919
	c6.308-0.267,9.815,17.474,7.751,27.881c-3.396,17.116-16.88,33.846-51.12,36.958C50.166,93.497,89.526,79.833,89.526,79.833z"/>
<path fill="#FF9B48" d="M58.9,80.413c0,0-25.062-6.988-27.925-30.923s8.793-8.243,11.152-4.207s14.147,21.495,19.6,28.237
	S58.9,80.413,58.9,80.413z"/>
<path fill="#FF9B48" d="M94.472,79.339c0,0,25.723-24.837,29.641-30.527s14.172-13.356,11.11,3.917
	c-4.239,23.917-30.854,29.73-37.139,31.319C91.8,85.638,94.472,79.339,94.472,79.339"/>
<radialGradient id="SVGID_1_" cx="71.0462" cy="204.5471" r="90.7924" gradientUnits="userSpaceOnUse">
	<stop  offset="0" style="stop-color:#FFC07D"/>
	<stop  offset="0.5713" style="stop-color:#FEB162"/>
	<stop  offset="1" style="stop-color:#FEA852"/>
</radialGradient>
<path fill="url(#SVGID_1_)" d="M60.209,151.487c0,0,1.483,15.491-4.119,23.729s-6.315,21.187,7.554,24.88
	c17.201,4.581,30.954-4.682,30.838-14.665c-0.054-4.64-11.965-28.841,2.833-44.409S60.209,151.487,60.209,151.487z"/>
<path opacity="0.6" fill="#DD7528" d="M90.324,143.581c0,0-3.438,2.389-3.381,3.419c0.056,1.01-8.898,19.278-26.681,14.953
	c0,0,0.357-7.728-0.218-12.149C59.469,145.382,90.324,143.581,90.324,143.581z"/>
<radialGradient id="SVGID_2_" cx="-7.1164" cy="143.755" r="48.601" gradientTransform="matrix(0.9944 0.1055 -0.1055 0.9944 74.9394 -12.662)" gradientUnits="userSpaceOnUse">
	<stop  offset="0" style="stop-color:#FECD97"/>
	<stop  offset="1" style="stop-color:#FFC07A"/>
</radialGradient>
<path fill="url(#SVGID_2_)" d="M88.467,63.832C67.623,57.9,53.622,67.193,48.532,77.178c-3.817,7.489-4.824,19.617-8.722,28.417
	c-1.299,2.933-4.011,4.274-5.801,6.58c-9.062,11.683,2.117,27.98,6.591,31.899c4.701,4.119,13.198,9.392,26.528,10.298
	c15.141,1.029,28.016-9.679,34.395-18.284c4.239-5.719,9.599-14.006,10.503-27.439C113.042,93.579,103.428,68.089,88.467,63.832z"/>
<path fill="#4F2914" d="M44.048,123.273c-0.53-2.89,1.197-3.616,5.305-3.56c5.585,0.076,18.566,3.16,12.88,7.506
	C56.596,131.527,45.043,128.697,44.048,123.273z"/>
<path fill="#FFA083" d="M35.504,121.055c2.505,0.994,8.354,0.886,8.317-1.668s-7.835-4.595-11.092-2.512
	S35.504,121.055,35.504,121.055z"/>
<path fill="#FFA083" d="M92.891,131.933c5.061,2.079,14.259-0.719,10.556-3.5c-4.144-3.112-9.638-1.735-11.556-0.752
	S89.302,130.459,92.891,131.933z"/>
<path fill="#A85726" d="M49.828,83.357c0,0,13.318,13.977,14.417,15.077c0.989,0.989,3.131,0.906,1.895-1.318
	c-1.236-2.224-13.264-14.829-14.088-15.406C51.229,81.132,49.828,83.357,49.828,83.357z"/>
<path fill="#A85726" d="M99.342,88.465c2.224-0.412-16.889,4.325-19.855,5.211c-2.966,0.886-2.389,2.616,0.494,2.039
	c2.883-0.577,18.372-4.531,20.514-4.531S99.342,88.465,99.342,88.465z"/>
<path fill="#66361F" d="M87.231,63.733c0,0-37.897-9.87-42.511,25.022c0,0,9.721-5.563,15.414-11.899
	c2.995-3.334,4.688,11.444,11.199,13.738c1.979,0.697,7.24,1.085,21.171-7.181c4.467-2.65,1.212,5.343,19.597,23.632
	C112.72,107.66,115.077,71.012,87.231,63.733z"/>
<path fill="#E5432E" d="M65.069,65.809c0,0-13.871-2.43-18.793-26.207c-3.242-15.662,1.569-17.772,14.921-6.253
	c8.918,7.693,13.148,18.384,13.148,18.384s3.577-9.487,18.517-15.748c18.857-7.902,28.312-3.53,21.511,7.909
	c-3.815,6.416-11.55,21.72-30.368,23.627c0,0,21.352,6.114,27.695,26.628c0,0,0.401,1.304,0.726,6.014
	c0.252,3.65-18.759-42.974-64.481-22.65c0,0,0.395-1.736,3.492-5.338C53.691,69.554,57.536,68.203,65.069,65.809z"/>
<path fill="#A85726" d="M67.047,91.925c-0.214-0.915-0.577-1.882,0.494-1.977c1.071-0.095,1.492,2.319,1.716,3.048
	c0.38,1.237,1.525,4.002,0,4.037C67.871,97.065,67.267,92.869,67.047,91.925z"/>
<ellipse transform="matrix(0.9964 0.0853 -0.0853 0.9964 9.0369 -4.0933)" fill="#FFFFFF" cx="52.433" cy="103.735" rx="10.298" ry="11.609"/>
<ellipse fill="#FFFFFF" cx="96.379" cy="110.028" rx="11.278" ry="12.462"/>
<path fill="#FF8366" d="M49.83,150.131c0,0,3.42-5.764,15.949-4.864c12.529,0.9,16.38,4.47,15.175,6.749
	C79.745,154.301,61.039,156.568,49.83,150.131z"/>
<path fill="#F76531" d="M62.943,154.026c0,0,2.531-6.532,13.054-5.535c4.261,0.404,5.159,1.632,5.239,2.595
	c0.123,1.473-2.179,2.001-4.031,2.494C74.997,154.167,68.628,155.031,62.943,154.026z"/>
<path fill="#F6BD4F" d="M26.565,86.823c0,0-10.712-7.884-10.073-3.831c1.007,6.393,3.647,10.133,3.647,10.133
	s-6.348,0.626-7.044,1.326c-0.944,0.95,0.655,3.914,4.82,9.114c-2.993,3.882-5.072,4.963,0.741,5.397
	c4.28,0.32,4.982-0.124,5.364-0.636C24.433,107.772,19.698,100.136,26.565,86.823z"/>
</svg>
