<?xml version="1.0" encoding="utf-8"?>
<!-- Generator: Adobe Illustrator 17.0.0, SVG Export Plug-In . SVG Version: 6.00 Build 0)  -->
<!DOCTYPE svg PUBLIC "-//W3C//DTD SVG 1.1//EN" "http://www.w3.org/Graphics/SVG/1.1/DTD/svg11.dtd">
<svg version="1.1" id="图层_1" xmlns="http://www.w3.org/2000/svg" xmlns:xlink="http://www.w3.org/1999/xlink" x="0px" y="0px"
	 width="159.063px" height="210.23px" viewBox="0 0 159.063 210.23" enable-background="new 0 0 159.063 210.23"
	 xml:space="preserve">
<radialGradient id="SVGID_1_" cx="106.9413" cy="88.4266" r="79.7885" gradientTransform="matrix(0.998 -0.0636 0.0636 0.998 -34.4685 16.5912)" gradientUnits="userSpaceOnUse">
	<stop  offset="0" style="stop-color:#FECD97"/>
	<stop  offset="1" style="stop-color:#FFC07A"/>
</radialGradient>
<path fill="url(#SVGID_1_)" d="M76.229,52.31c-14.846,1.569-26.203,8.517-30.001,20.705s-1.837,24.653-6.219,43.413
	c-4.306,18.43,5.639,26.83,10.043,31.606c1.931,2.094,13.272,9.198,20.112,16.233c7.492,7.705,0.356,18.961,2.86,24.602
	c6.036,13.594,24.905,16.065,35.855,2.719c4.979-6.069-6.193-14.303-3.642-27.927c2.818-15.049,13.527-20.253,17.227-35.013
	c3.005-11.987-4.459-34.727-11.038-52.296C103.555,55.332,91.39,50.708,76.229,52.31z"/>
<path fill="#FFCE99" d="M43.032,104.836c0,0-1.611-6.055,5.049-9.519c7.68-3.994,16.682-0.574,19.427,2.903
	c2.745,3.478-23.656,8.663-23.656,8.663"/>
<path fill="#FFCE99" d="M88.939,100.527c0,0-1.212-15.093,13.591-13.801c10.677,0.932,13.263,10.302,13.263,10.302"/>
<path fill="#FFFFFF" d="M43.495,103.689c0,0,0.52,6.29,3.194,10.734c3.58,5.948,8.933,8.76,15.261,7.497
	c6.328-1.263,11.161-11.231,6.363-18.231C63.515,96.688,46.99,93.659,43.495,103.689z"/>
<path fill="#FFFDFC" d="M106.052,89.098c0,0,12.807,2.264,9.831,16.657c-1.993,9.64-8.252,11.142-13.236,11.002
	c-3.377-0.094-10.661-3.682-13.378-14.341C86.156,90.202,106.052,89.098,106.052,89.098z"/>
<path fill="#512A15" d="M96.731,91.601c3.478-3.555,12.589-4.336,17.358,3.457c3.347,5.469,0.336,13.757-2.258,16.335
	c-3.119,3.1-9.868,3.093-13.902-5.656C95.562,100.604,96.731,91.601,96.731,91.601z"/>
<g id="Shape_2_49_">
	<g>
		<path fill-rule="evenodd" clip-rule="evenodd" fill="#9C6342" d="M59.516,122.218c-2.215-0.057-5.617-0.92-8.085-2.517
			c-2.489-1.611-3.669-3.741-4.904-5.554c-0.593-0.871-0.149,2.069,2.08,4.665c-0.868,0.482-1.438,1.33-1.45,1.904
			c-0.012,0.558,0.867-0.496,1.772-0.606c0.437-0.053,0.72-0.079,0.899-0.092c0.36,0.303,0.742,0.594,1.166,0.855
			c0.07,0.043,0.14,0.075,0.21,0.116c-0.587,0.478-0.993,1.409-1.113,2.127c-0.066,0.4,1.022-0.299,1.601-0.596
			c0.663-0.339,1.287-0.532,1.516-0.597C57.444,123.442,61.345,122.263,59.516,122.218z"/>
	</g>
</g>
<g id="Shape_2_47_">
	<g>
		<path fill-rule="evenodd" clip-rule="evenodd" fill="#9C6342" d="M115.172,111.139c1.141-2.726,0.675-5.147,0.348-4.088
			c-0.693,2.24-0.947,3.846-3.369,6.483c-2.55,2.776-5.803,2.956-7.941,3.208c-1.95,0.229,3.791,1.379,8.063-1.865
			c0.303,0.048,0.727,0.131,1.177,0.273c0.593,0.187,1.73,0.673,1.604,0.307c-0.231-0.667-0.775-1.493-1.416-1.842
			c0.31-0.356,0.579-0.723,0.814-1.095c0.172-0.015,0.422-0.033,0.789-0.05c0.868-0.04,1.867,0.814,1.767,0.289
			C116.899,112.186,116.151,111.42,115.172,111.139z"/>
	</g>
</g>
<path fill="#512A15" d="M68.432,99.522c-1.539-4.3-15.034-4.98-14.842-2.054c0.518,7.916-0.191,13.423,4.299,19.035
	c2.71,3.387,8.679,4.21,10.888-0.392C71.078,111.317,70.656,105.737,68.432,99.522z"/>
<path fill="#A85726" d="M46.929,92.502c0,0,1.382-3.827,8.138-3.824c8.528,0.004,8.699,4.396,6.6,3.174
	c-2.481-1.444-3.499-1.649-6.93-1.649c-2.677,0-5.52,0.906-6.775,2.741C47.022,94.318,46.293,93.519,46.929,92.502z"/>
<path fill="#A85726" d="M89.563,85.692c0.696-1.41,3.065-4.511,9.621-4.511c4.634,0,6.864,2.467,7.087,2.722
	c0.701,0.802,0.006,1.414-0.786,0.881c-1.666-1.122-2.464-1.98-6.095-1.914c-4.076,0.074-6.92,1.524-8.183,3.471
	C90.397,87.591,88.598,87.648,89.563,85.692z"/>
<path fill="#713D1F" d="M42.627,103.631c0,0-2.071,0.206-2.97-1.431c-1.805-3.284-0.968,0.071-0.705,0.704
	c0.628,1.51,1.797,2.637,4.639,2.637c0,0,1.792-7.639,12.259-8.583c2.086-0.188,6.632-0.618,12.234,1.812
	c0,0-3.707-3.996-10.381-3.996C45.913,94.774,42.627,103.631,42.627,103.631z"/>
<path fill="#713D1F" d="M88.939,100.527c0,0-0.588-12.344,13.709-12.014c8.943,0.206,12.968,6.939,13.508,7.703
	c0,0,1.338,0.159,3.104-2.295c1.135-1.577,1.239-1.092,0.356,0.843c-1.771,3.882-3.714,3.311-3.714,3.311s-5.302-6.637-13.255-7.327
	C97.974,90.342,92.282,91.601,88.939,100.527z"/>
<path fill="#4F2914" d="M70.968,123.897c-0.843-0.833-1.836-2.876,1.691-3.81c4.794-1.269,16.787-2.088,12.973,2.681
	C81.851,127.497,75.513,128.392,70.968,123.897z"/>
<path fill="#FFA083" d="M44.63,129.697c3.045,0.389,9.469-1.384,8.705-4.192c-0.764-2.808-9.945-2.855-12.949,0.364
	C37.382,129.089,44.63,129.697,44.63,129.697z"/>
<path fill="#FFA083" d="M109.084,121.469c5.217,1.671,14.265-1.664,10.366-4.108c-4.364-2.736-9.789-1.028-11.649,0.055
	C105.94,118.5,105.385,120.284,109.084,121.469z"/>
<ellipse transform="matrix(0.998 -0.0636 0.0636 0.998 -7.0093 3.7428)" fill="#FFFFFF" cx="55.285" cy="111.968" rx="3.87" ry="2.038"/>
<ellipse transform="matrix(0.998 -0.0636 0.0636 0.998 -6.5245 6.5101)" fill="#FFFFFF" cx="98.994" cy="105.737" rx="3.659" ry="2.038"/>
<path fill="#FFC07D" d="M58.478,76.295c0,0-29.196,11.908-45.716-17.806C1.651,38.504,6.052,11.01,17.877,22.87
	s22.275,26.592,44.67,39.154S58.478,76.295,58.478,76.295z"/>
<path fill="#FFC07D" d="M91.764,55.051c0,0,15.999-21.783,29.256-38.787c5.119-6.567,13.22-18.828,20.872-17.045
	c6.057,1.412,9.449,17.682,7.288,28.194c-3.554,17.288-13.885,39.588-47.634,42.647C55.994,74.189,91.764,55.051,91.764,55.051z"/>
<path fill="#FF9B48" d="M58.027,76.98c0,0-25.177,1.268-35.154-19.851s5.552-10.274,8.959-7.289S51.429,65.254,58.51,69.777
	C65.591,74.301,58.027,76.98,58.027,76.98z"/>
<path fill="#FF9B48" d="M97.079,60.651c0,0,25.631-25.034,29.559-30.774s14.117-13.461,10.89,3.986
	c-4.468,24.158-30.744,29.966-36.951,31.556C94.37,67.01,97.079,60.651,97.079,60.651"/>
<path fill="#66361F" d="M76.229,52.31c0,0-31.309-2.961-32.734,37.892c0,0,10.456-8.758,13.868-12.554
	c1.666-1.854,2.976,3.764,11.988,7.785c5.829,2.601,8.321,0.845,18.907-13.598c2.17-2.961,3.282,4.701,25.115,9.811
	C113.373,81.646,105.237,45.006,76.229,52.31z"/>
<path fill="#E5432E" d="M66.949,62.325c0,0-22.895-2.164-27.998-27.313c-3.245-15.991-2.258-18.246,12.921-9.884
	c11.75,6.474,15.694,15.415,20.176,21.809c1.676,2.391,2.617-12.677,7.646-21.375c3.508-6.067,5.691-9.836,16.797-16.448
	c5.864-3.491,6.913,12.264,5.802,21.792c-0.985,8.445-5.19,18.072-17.795,28.453c0,0,10.692-0.258,23.603,8.83
	c0,0,0.806,0.304,2.5,5.182c0,0-26.378-21.18-66.02,6.806c0,0,0.12-1.526,1.177-5.544C46.759,70.825,56.645,65.033,66.949,62.325z"
	/>
<path fill="#FFA083" d="M67.351,144.285c1.972,0.002,2.744,0.432,10.375-5.994c1.174-0.989,1.915-0.865,3.213-0.371
	c1.298,0.494,13.47,5.087,16.189,3.007c2.719-2.08,3.213-0.947,2.595,0c-0.618,0.947-2.812,4.863-18.969-0.968
	c-1.541-0.556-1.792-0.494-2.348,0.124c-0.556,0.618-6.514,6.765-11.054,5.808C65.885,145.583,66.069,144.284,67.351,144.285z"/>
</svg>
