<?xml version="1.0" encoding="utf-8"?>
<!-- Generator: Adobe Illustrator 17.0.0, SVG Export Plug-In . SVG Version: 6.00 Build 0)  -->
<!DOCTYPE svg PUBLIC "-//W3C//DTD SVG 1.1//EN" "http://www.w3.org/Graphics/SVG/1.1/DTD/svg11.dtd">
<svg version="1.1" id="图层_1" xmlns="http://www.w3.org/2000/svg" xmlns:xlink="http://www.w3.org/1999/xlink" x="0px" y="0px"
	 width="159.063px" height="210.23px" viewBox="0 0 159.063 210.23" enable-background="new 0 0 159.063 210.23"
	 xml:space="preserve">
<radialGradient id="SVGID_1_" cx="-267.4941" cy="205.2607" r="180.4311" gradientTransform="matrix(1.0802 -0.2488 0.2587 1.0896 302.2415 -147.7528)" gradientUnits="userSpaceOnUse">
	<stop  offset="0" style="stop-color:#FFC07D"/>
	<stop  offset="0.5713" style="stop-color:#FEB162"/>
	<stop  offset="1" style="stop-color:#FEA852"/>
</radialGradient>
<path fill-rule="evenodd" clip-rule="evenodd" fill="url(#SVGID_1_)" d="M119.758,178.938c1.349-15.681-6.9-17.835-12.384-27.733
	c-5.758-10.391-8.329-14.835-4.774-25.492c2.658-7.969-54.856,23.709-51.529,25.354c2.579,1.275,30.973-4.797,26.223,36.761
	c-1.216,10.635,8.124,15.72,23.443,13.135C111.045,199.224,118.551,192.966,119.758,178.938z"/>
<path opacity="0.6" fill-rule="evenodd" clip-rule="evenodd" fill="#DD7528" d="M61.233,152.145c0,0,14.097-0.336,28.454-8.897
	c2.039-1.216,4.305,7.827-15.154,19.194C74.533,162.442,71.318,154.089,61.233,152.145z"/>
<path fill-rule="evenodd" clip-rule="evenodd" fill="#FFC07D" d="M88.81,62.239c0,0,18.799-9.609,27.718-17.335
	s17.319-14.507,20.59-17.339c6.757-5.85,14.274-5.637,13.54,9.937c-0.967,20.502-10.947,37.826-26.157,41.549
	c-9.769,2.391-16.602,1.297-21.966,0.744C93.609,78.875,88.81,62.239,88.81,62.239z"/>
<path fill-rule="evenodd" clip-rule="evenodd" fill="#FFC07D" d="M56.076,65.147c0,0-7.993-13.756-11.531-22.963
	C41.007,32.977,35.08,23.908,32.824,20.6c-5.111-7.495-8.383-7.393-11.961-1.379s-7.185,23.761,0.669,37.041
	c8.102,13.7,18.265,14.929,28.291,17.374C59.848,76.081,56.076,65.147,56.076,65.147z"/>
<path fill-rule="evenodd" clip-rule="evenodd" fill="#FF9B48" d="M53.57,70.087c0,0-10.438-1.987-16.668-8.114
	s-8.554-13.63-8.429-19.54s2.977-7.563,6.502-3.137S46.581,59.615,54.783,64.3S53.57,70.087,53.57,70.087z"/>
<path fill-rule="evenodd" clip-rule="evenodd" fill="#FF9B48" d="M93.098,70.086c0,0,26.375-14.695,33.24-21.169
	c12.524-11.811,11.52-1.076,11.359,1.371c-0.162,2.447-1.625,13.771-12.801,20.475c-11.176,6.704-25.162,7.196-28.369,6.992
	S93.098,70.086,93.098,70.086z"/>
<radialGradient id="SVGID_2_" cx="-562.2945" cy="343.4643" r="47.4489" gradientTransform="matrix(1.0605 0.3226 -0.3187 1.0735 727.3036 -82.1704)" gradientUnits="userSpaceOnUse">
	<stop  offset="0" style="stop-color:#FECD97"/>
	<stop  offset="1" style="stop-color:#FFC07A"/>
</radialGradient>
<path fill-rule="evenodd" clip-rule="evenodd" fill="url(#SVGID_2_)" d="M84.266,145.178c6.106-3.549,16.117-12.969,20.413-23.862
	c4.198-10.643,21.842-51.216-23.19-65.318c-14.881-4.66-29.972,3.571-37.292,13.782C32.068,86.7,26.805,97.174,20.523,100.248
	c-6.295,3.081-8.491,9.668-7.809,15.366c1.893,15.82,13.086,30.408,33.423,34.781C66.457,154.765,77.265,149.247,84.266,145.178z"/>
<path fill-rule="evenodd" clip-rule="evenodd" fill="#66361F" d="M79.953,56.375c-15.694-3.076-29.409,1.973-39.177,16.689
	l-3.285,5.245c6.108-0.465,11.205-3.505,15.239-4.531c1.729-0.44,3.35,10.792,6.809,10.792c7.673,0,18.913-6.726,25.687-10.259
	c1.432-0.747,2.772,0.639,3.385,1.729c4.149,7.382,16.295,19.443,20.141,21.313c2.519,1.224,2.447,2.061,2.648-0.399
	C113.334,73.367,99.045,60.117,79.953,56.375z"/>
<path fill-rule="evenodd" clip-rule="evenodd" fill="#E5432E" d="M41.529,71.965c0,0,5.27-4.338,26.141-3.077
	c24.884,1.502,43.157,22.419,43.935,23.66c0,0,0.075-5.267-0.708-7.978c-0.56-1.939-12.196-17.009-27.288-24.883
	c0,0,4.101,1.275,13.288-5.025c10.416-7.143,12.733-15.827,13.353-23.979c0.483-6.344-1.224-6.315-4.223-6.344
	c-3.33-0.032-19.318,3.994-26.868,12.445c-6.712,7.513-7.607,11.476-8.008,12.827c-0.401,1.351-0.977-5.767-5.16-12.827
	c-3.158-5.33-9.692-11.076-15.763-13.857c-5.439-2.492-8.033-1.607-8.156,4.202c-0.083,3.92,0.124,13.346,5.946,22.334
	c4.455,6.877,6.601,7.379,11.967,9.568c0,0-6.731,1.07-11.629,5.055C46.588,65.523,43.997,68.972,41.529,71.965z"/>
<g id="腮红2_13_">
	<g>
		<path fill-rule="evenodd" clip-rule="evenodd" fill="#FFA083" d="M90.131,111.795c-6.593-0.838-9.55,1.329-9.57,3.416
			c-0.016,1.69,2.32,5.133,8.395,5.581c7.659,0.568,9.969-1.952,10.08-3.235C99.16,116.127,98.213,112.822,90.131,111.795z"/>
	</g>
</g>
<path fill="#4F2914" d="M16.998,110.78c-0.298,3.048,3.03,8.274,9.145,8.597c6.078,0.321,15.386-0.926,16.752-7.236
	c0.908-4.194-9.669-4.767-14.269-5.042C25.238,106.898,17.48,105.847,16.998,110.78z"/>
<path fill="#A85726" d="M71.216,88.305c-0.454,0.043-2.077,0.442-2.24,1.394c-0.112,0.653,0.778,0.704,2.007,0.605
	c4.656-0.375,10.979-0.748,20.768,3.718c1.715,0.783,1.922-0.216,0.747-1.057C89.85,91.071,82.09,87.278,71.216,88.305z"/>
<path fill="#713D1F" d="M65.11,97.653c0.078-0.767,2.671-1.031,3.856-1.146c3.049-0.295,7.132-0.235,10.814,0.189
	c4.248,0.489,10.87,2.561,13.717,3.961c0,0,1.294,0,2.243-0.973c1.445-1.482,1.306-0.755,0.82,0.412
	c-0.497,1.192-1.834,2.247-3.523,2.576c0,0-5.031-2.649-13.525-3.769c-2.634-0.347-6.289-0.524-10.583-0.294
	C67.497,98.686,65.003,98.705,65.11,97.653z"/>
<path fill="#713D1F" d="M42.885,95.419c0.365-1.152-1.353-1.725-2.037-1.948c-1.743-0.567-3.291-0.81-6.338-1.173
	c-2.401-0.286-4.895-0.175-6.393,0.429c0,0-1.08-1.388-1.707-2.593c-1.039-1.997-1.082-0.764-0.786,0.301
	c0.339,1.221,0.958,3.147,1.96,3.727c0,0,2.526-0.897,7.296-0.225c1.479,0.208,3.417,0.561,5.906,1.546
	C41.615,95.811,42.623,96.247,42.885,95.419z"/>
<path fill="#A85726" d="M46.558,86.39c0.285,0.114,1.381,0.542,1.315,1.296c-0.045,0.518-0.736,0.555-1.521,0.261
	c-4.901-1.835-7.403-2.249-13.126-2.168l0.889-1.364C36.157,83.994,39.791,83.683,46.558,86.39z"/>
<path fill="#FFA083" d="M44.123,142.352c3.171-0.083,5.725,0.546,7.428,0.918c1.168,0.255,1.818,0.568,1.487,1.513
	c-0.257,0.734-1.175,0.551-2.123,0.395s-3.098-0.991-6.812-1.123c-0.801-0.029-1.191-0.269-1.189-0.794
	C42.918,142.397,44.123,142.352,44.123,142.352z"/>
<path fill="#FFFFFF" d="M105.232,99.499c0.508-1.083,0.54-2.036,0-2.134c-0.574-0.104-0.985,0.447-1.398,1.337
	c-0.169,0.364-6.507,13.799-0.548,14.317c3.168,0.275,3.271-5.406,3.099-6.817c-0.172-1.412-1.79-1.24-1.859,0.482
	c-0.069,1.722,0.035,3.925-0.981,3.994C102.528,110.747,103.913,102.31,105.232,99.499z"/>
</svg>
