<?xml version="1.0" encoding="utf-8"?>
<!-- Generator: Adobe Illustrator 17.0.0, SVG Export Plug-In . SVG Version: 6.00 Build 0)  -->
<!DOCTYPE svg PUBLIC "-//W3C//DTD SVG 1.1//EN" "http://www.w3.org/Graphics/SVG/1.1/DTD/svg11.dtd">
<svg version="1.1" id="图层_1" xmlns="http://www.w3.org/2000/svg" xmlns:xlink="http://www.w3.org/1999/xlink" x="0px" y="0px"
	 width="180.197px" height="222.465px" viewBox="0 0 180.197 222.465" enable-background="new 0 0 180.197 222.465"
	 xml:space="preserve">
<radialGradient id="SVGID_1_" cx="-295.6425" cy="47.0998" r="49.6244" gradientTransform="matrix(-0.9917 0.1282 -0.1282 -0.9917 -201.3263 241.2531)" gradientUnits="userSpaceOnUse">
	<stop  offset="0" style="stop-color:#FFDECC"/>
	<stop  offset="0.5179" style="stop-color:#F9DCC0"/>
	<stop  offset="1" style="stop-color:#FCEBCE"/>
</radialGradient>
<path fill="url(#SVGID_1_)" d="M108.426,169.497c0,0-0.231,8.058,7.255,17.181s-5.594,31.894-36.777,25.438
	c-27.27-5.646-18.152-19.321-14.985-31.669C67.673,165.814,108.426,169.497,108.426,169.497z"/>
<path fill="#FCEBCE" d="M129.131,88.087c0,0,30.515-2.611,35.977-25.091c9.489-39.056-6.642-37.872-21.412-33.001
	c-18.095,5.967-28.923,15.912-35.976,35.341C98.641,90.346,129.131,88.087,129.131,88.087z"/>
<path fill="#FCEBCE" d="M71.448,72.625c0,0,6.707-35.617-23.601-49.627c-34.199-15.809-31.738,8.757-27.235,27.27
	c3.902,16.043,12.432,21.513,32.759,30.987S71.448,72.625,71.448,72.625z"/>
<path fill="#FFBD99" d="M121.556,77.996c0,0,21.245-0.415,26.734-15.972s1.149-21.703-10.007-18.249
	c-13.668,4.232-19.258,10.384-24.588,24.157C106.834,85.661,121.556,77.996,121.556,77.996z"/>
<path fill="#FFBD99" d="M65.251,68.825c0,0,6.339-13.808-11.812-26.824s-21.656,1.931-17.873,15.188
	C40.293,73.752,55.8,75.425,63.41,75.697C79.008,76.253,65.251,68.825,65.251,68.825z"/>
<path fill="#FCEBCE" d="M89.412,49.674c-35.681-3.634-55.041,33.78-61.003,57.114c-4.317,16.894-13.052,37.522-5.296,48.922
	c5.36,7.879,13.721,12.998,21.766,21.881c12.009,13.26,16.841,13.159,27.771,14.761c18.514,2.713,32.491-7.657,44.623-14.01
	c34.686-18.166,38.188-31.023,20.152-84.595C127.974,65.678,114.681,52.247,89.412,49.674z"/>
<radialGradient id="SVGID_2_" cx="22.0868" cy="103.2564" r="43.8343" gradientTransform="matrix(1 0 0 -1.1861 0.14 291.0459)" gradientUnits="userSpaceOnUse">
	<stop  offset="0" style="stop-color:#FFDECC"/>
	<stop  offset="0.5179" style="stop-color:#F9DCC0"/>
	<stop  offset="1" style="stop-color:#FCEBCE"/>
</radialGradient>
<path fill="url(#SVGID_2_)" d="M28.409,106.788c-4.317,16.894-13.77,33.198-6.275,46.739c7.205,13.017,17.881,18.771,22.745,24.063
	c12.105,13.172,16.841,13.159,27.771,14.761c9.347,1.37,9.34-33.498-3.471-58.332C56.615,109.666,31.361,95.235,28.409,106.788z"/>
<radialGradient id="SVGID_3_" cx="135.9116" cy="55.2824" r="45.445" gradientTransform="matrix(1 0 0 -1 0.14 221.52)" gradientUnits="userSpaceOnUse">
	<stop  offset="0" style="stop-color:#FFDECC"/>
	<stop  offset="0.5179" style="stop-color:#F9DCC0"/>
	<stop  offset="1" style="stop-color:#FCEBCE"/>
</radialGradient>
<path fill="url(#SVGID_3_)" d="M72.65,192.351c18.514,2.713,32.491-7.657,44.623-14.01c34.686-18.166,38.188-31.023,20.152-84.595
	C127.974,65.678,61.72,190.749,72.65,192.351z"/>
<path fill="#F7CC9D" d="M117.782,78.665c-1.527,8.26-5.439,10.076-10.46,11.264c-6.178,1.462-10.127-4.296-12.217-6.805
	c0,0-3.518,8.407-9.245,10.745c-6.107,2.494-10.416,0.684-12.942-3.284c-1.531-2.405-1.429-6.781-1.429-6.781
	s-4.742,5.978-12.57,4.505c-4.662-0.877-5.326-4.908-5.835-7.623c-0.507-2.714,0.335-5.417,0.335-5.417s-4.992,6.139-3.059,12.653
	c1.37,4.614,5.529,7.655,10.559,6.558c3.489-0.761,8.655-4.886,8.655-4.886s0.801,6.178,5.166,8.808
	c4.366,2.631,10.428,1.83,14.114-0.767s6.797-8.419,6.797-8.419s2.539,4.958,8.195,7.089c3.337,1.257,9.409,0.97,12.724-4.824
	C119.908,85.65,117.782,78.665,117.782,78.665z"/>
<g id="形状_77_43_">
	<g>
		<path fill="#FFBD99" d="M130.551,149.706c-5.379,0.151-9.674,2.751-9.589,5.816s4.513,5.427,9.899,5.276
			c5.379-0.151,9.669-2.751,9.583-5.816C140.364,151.918,135.931,149.555,130.551,149.706z"/>
	</g>
</g>
<path fill="#57301B" d="M72.751,168.167c8.497-0.058,19.4,2.603,19.044,6.613c-0.582,6.553-11.41,9.727-20.941,8.826
	c-6.605-0.624-15.651-5.017-15.471-9.822C55.638,166.954,67.504,168.203,72.751,168.167z"/>
<g id="形状_77_36_">
	<g>
		<path fill="#FFBD99" d="M34.872,142.102c-5.34-0.679-9.983,1.236-10.364,4.278c-0.387,3.042,3.627,6.051,8.965,6.73
			c5.345,0.679,9.983-1.236,10.37-4.278C44.229,145.79,40.21,142.781,34.872,142.102z"/>
	</g>
</g>
<path fill="#57301B" d="M133.766,127.445c-3.513,0.713-28.74,11.599-34.279,15.378c-5.539,3.778-2.776,4.06,0.588,2.368
	c2.304-1.159,30.323-12.521,33.857-13.58C138.014,130.387,138.057,126.575,133.766,127.445z"/>
<path fill="#57301B" d="M56.341,141.221c-2.235-3.429-19.217-20.997-23.166-23.478c-3.95-2.481-4.821,0.709-2.741,2.245
	s23.633,21.243,24.537,22.364C55.873,143.472,58.389,144.364,56.341,141.221z"/>
<path fill="#F6B490" d="M68.677,148.566c0,0-6.692,2.681-8.245,4.79c-1.554,2.109,0,2.855,2.276,1.164
	c1.5-1.114,6.692-4.212,8.109-4.754C72.732,149.033,72.411,146.863,68.677,148.566z"/>
<path fill="#F6B490" d="M78.05,149.831c0,0-6.692,2.681-8.245,4.79c-1.554,2.109,0,2.855,2.276,1.164
	c1.5-1.114,6.692-4.212,8.109-4.754C82.105,150.298,81.784,148.128,78.05,149.831z"/>
<path fill="#F6B490" d="M87.036,150.403c0,0-6.692,2.681-8.245,4.79c-1.554,2.109,0,2.855,2.276,1.164
	c1.5-1.114,6.692-4.212,8.109-4.754C91.09,150.87,90.769,148.7,87.036,150.403z"/>
</svg>
