<?xml version="1.0" encoding="utf-8"?>
<!-- Generator: Adobe Illustrator 17.0.0, SVG Export Plug-In . SVG Version: 6.00 Build 0)  -->
<!DOCTYPE svg PUBLIC "-//W3C//DTD SVG 1.1//EN" "http://www.w3.org/Graphics/SVG/1.1/DTD/svg11.dtd">
<svg version="1.1" id="图层_1" xmlns="http://www.w3.org/2000/svg" xmlns:xlink="http://www.w3.org/1999/xlink" x="0px" y="0px"
	 width="180.197px" height="210.23px" viewBox="0 0 180.197 210.23" enable-background="new 0 0 180.197 210.23"
	 xml:space="preserve">
<radialGradient id="SVGID_1_" cx="79.3879" cy="139.5901" r="49.6244" gradientTransform="matrix(-0.9917 0.1282 0.1282 0.9917 143.4471 -2.4423)" gradientUnits="userSpaceOnUse">
	<stop  offset="0" style="stop-color:#FFDECC"/>
	<stop  offset="0.5179" style="stop-color:#F9DCC0"/>
	<stop  offset="1" style="stop-color:#FCEBCE"/>
</radialGradient>
<path fill="url(#SVGID_1_)" d="M105.215,159.021c0,0-0.231,8.058,7.255,17.181c7.486,9.123-5.594,31.894-36.777,25.438
	c-27.27-5.646-18.152-19.321-14.985-31.669C64.462,155.338,105.215,159.021,105.215,159.021z"/>
<path fill-rule="evenodd" clip-rule="evenodd" fill="#FCEBCE" d="M125.92,77.611c0,0,30.515-2.611,35.977-25.091
	c9.489-39.056-6.642-37.872-21.412-33.001c-18.095,5.967-28.923,15.912-35.976,35.341C95.43,79.87,125.92,77.611,125.92,77.611z"/>
<path fill-rule="evenodd" clip-rule="evenodd" fill="#FCEBCE" d="M68.237,62.149c0,0,6.707-35.617-23.601-49.627
	c-34.199-15.809-31.738,8.757-27.235,27.27c3.902,16.043,12.432,21.513,32.759,30.987S68.237,62.149,68.237,62.149z"/>
<path fill-rule="evenodd" clip-rule="evenodd" fill="#FFBD99" d="M118.345,67.52c0,0,21.245-0.415,26.734-15.972
	c5.489-15.557,1.149-21.703-10.007-18.249c-13.668,4.232-19.258,10.384-24.588,24.157C103.623,75.185,118.345,67.52,118.345,67.52z"
	/>
<path fill-rule="evenodd" clip-rule="evenodd" fill="#FFBD99" d="M62.04,58.349c0,0,6.339-13.808-11.812-26.824
	s-21.656,1.931-17.873,15.188c4.727,16.563,20.234,18.236,27.844,18.508C75.797,65.777,62.04,58.349,62.04,58.349z"/>
<path fill-rule="evenodd" clip-rule="evenodd" fill="#FCEBCE" d="M86.201,39.198C50.52,35.564,31.16,72.978,25.198,96.312
	c-4.317,16.894-13.052,37.522-5.296,48.922c5.36,7.879,13.721,12.998,21.766,21.881c12.009,13.26,16.841,13.159,27.771,14.761
	c18.514,2.713,32.491-7.657,44.623-14.01c34.686-18.166,38.188-31.023,20.152-84.595C124.763,55.202,111.47,41.771,86.201,39.198z"
	/>
<radialGradient id="SVGID_2_" cx="19.0162" cy="158.1037" r="43.8343" gradientTransform="matrix(1 0 0 1.1861 0 -29.4295)" gradientUnits="userSpaceOnUse">
	<stop  offset="0" style="stop-color:#FFDECC"/>
	<stop  offset="0.5179" style="stop-color:#F9DCC0"/>
	<stop  offset="1" style="stop-color:#FCEBCE"/>
</radialGradient>
<path fill-rule="evenodd" clip-rule="evenodd" fill="url(#SVGID_2_)" d="M25.198,96.312c-4.317,16.894-13.77,33.198-6.275,46.739
	c7.205,13.017,17.881,18.771,22.745,24.063c12.105,13.172,16.841,13.159,27.771,14.761c9.347,1.37,9.34-33.498-3.471-58.332
	C53.404,99.19,28.15,84.759,25.198,96.312z"/>
<radialGradient id="SVGID_3_" cx="132.841" cy="155.7614" r="45.445" gradientUnits="userSpaceOnUse">
	<stop  offset="0" style="stop-color:#FFDECC"/>
	<stop  offset="0.5179" style="stop-color:#F9DCC0"/>
	<stop  offset="1" style="stop-color:#FCEBCE"/>
</radialGradient>
<path fill-rule="evenodd" clip-rule="evenodd" fill="url(#SVGID_3_)" d="M69.439,181.875c18.514,2.713,32.491-7.657,44.623-14.01
	c34.686-18.166,38.188-31.023,20.152-84.595C124.763,55.202,58.509,180.273,69.439,181.875z"/>
<path fill="#F7CC9D" d="M114.571,68.189c-1.527,8.26-5.439,10.076-10.46,11.264c-6.178,1.462-10.127-4.296-12.217-6.805
	c0,0-3.518,8.407-9.245,10.745c-6.107,2.494-10.416,0.684-12.942-3.284c-1.531-2.405-1.429-6.781-1.429-6.781
	s-4.742,5.978-12.57,4.505c-4.662-0.877-5.326-4.908-5.835-7.623c-0.507-2.714,0.335-5.417,0.335-5.417s-4.992,6.139-3.059,12.653
	c1.37,4.614,5.529,7.655,10.559,6.558c3.489-0.761,8.655-4.886,8.655-4.886s0.801,6.178,5.166,8.808
	c4.366,2.631,10.428,1.83,14.114-0.767c3.686-2.597,6.797-8.419,6.797-8.419s2.539,4.958,8.195,7.089
	c3.337,1.257,9.409,0.97,12.724-4.824C116.697,75.174,114.571,68.189,114.571,68.189z"/>
<g id="形状_77_43_">
	<g>
		<path fill-rule="evenodd" clip-rule="evenodd" fill="#FFBD99" d="M127.34,139.23c-5.379,0.151-9.674,2.751-9.589,5.816
			s4.513,5.427,9.899,5.276c5.379-0.151,9.669-2.751,9.583-5.816C137.153,141.442,132.72,139.079,127.34,139.23z"/>
	</g>
</g>
<path fill="#57301B" d="M69.54,157.691c8.497-0.058,19.4,2.603,19.044,6.613c-0.582,6.553-11.41,9.727-20.941,8.826
	c-6.605-0.624-15.651-5.017-15.471-9.822C52.427,156.478,64.293,157.727,69.54,157.691z"/>
<g id="形状_77_36_">
	<g>
		<path fill-rule="evenodd" clip-rule="evenodd" fill="#FFBD99" d="M31.661,131.626c-5.34-0.679-9.983,1.236-10.364,4.278
			c-0.387,3.042,3.627,6.051,8.965,6.73c5.345,0.679,9.983-1.236,10.37-4.278C41.018,135.314,36.999,132.305,31.661,131.626z"/>
	</g>
</g>
<path fill="#57301B" d="M130.555,116.969c-3.513,0.713-28.74,11.599-34.279,15.378c-5.539,3.778-2.776,4.06,0.588,2.368
	c2.304-1.159,30.323-12.521,33.857-13.58C134.803,119.911,134.846,116.099,130.555,116.969z"/>
<path fill="#57301B" d="M53.13,130.745c-2.235-3.429-19.217-20.997-23.166-23.478c-3.95-2.481-4.821,0.709-2.741,2.245
	c2.08,1.536,23.633,21.243,24.537,22.364C52.662,132.996,55.178,133.888,53.13,130.745z"/>
<path fill="#F6B490" d="M65.466,138.09c0,0-6.692,2.681-8.245,4.79c-1.554,2.109,0,2.855,2.276,1.164
	c1.5-1.114,6.692-4.212,8.109-4.754C69.521,138.557,69.2,136.387,65.466,138.09z"/>
<path fill="#F6B490" d="M74.839,139.355c0,0-6.692,2.681-8.245,4.79c-1.554,2.109,0,2.855,2.276,1.164
	c1.5-1.114,6.692-4.212,8.109-4.754C78.894,139.822,78.573,137.652,74.839,139.355z"/>
<path fill="#F6B490" d="M83.825,139.927c0,0-6.692,2.681-8.245,4.79c-1.554,2.109,0,2.855,2.276,1.164
	c1.5-1.114,6.692-4.212,8.109-4.754C87.879,140.394,87.558,138.224,83.825,139.927z"/>
</svg>
