<?xml version="1.0" encoding="utf-8"?>
<!-- Generator: Adobe Illustrator 17.0.0, SVG Export Plug-In . SVG Version: 6.00 Build 0)  -->
<!DOCTYPE svg PUBLIC "-//W3C//DTD SVG 1.1//EN" "http://www.w3.org/Graphics/SVG/1.1/DTD/svg11.dtd">
<svg version="1.1" id="图层_1" xmlns="http://www.w3.org/2000/svg" xmlns:xlink="http://www.w3.org/1999/xlink" x="0px" y="0px"
	 width="180.197px" height="222.465px" viewBox="0 0 180.197 222.465" enable-background="new 0 0 180.197 222.465"
	 xml:space="preserve">
<radialGradient id="SVGID_1_" cx="-293.3603" cy="173.1224" r="52.5738" gradientTransform="matrix(-0.9917 0.1282 0.1282 0.9917 -243.1134 22.4372)" gradientUnits="userSpaceOnUse">
	<stop  offset="0" style="stop-color:#FFDECC"/>
	<stop  offset="0.5179" style="stop-color:#F9DCC0"/>
	<stop  offset="1" style="stop-color:#FCEBCE"/>
</radialGradient>
<path fill="url(#SVGID_1_)" d="M91.631,169.338c0,0,1.04,14.603,7.673,24.364c3.953,5.817-3.325,33.567-39.092,22.124
	c-21.896-7.005-9.507-22.875-7.152-33.417C56.355,167.668,91.631,169.338,91.631,169.338z"/>
<path fill-rule="evenodd" clip-rule="evenodd" fill="#FCEBCE" d="M125.859,88.341c0,0,25.13,0.051,36.445-23.859
	c16.407-34.67-6.721-36.002-21.682-31.369c-18.329,5.676-29.299,15.132-36.446,33.604C94.975,90.495,125.859,88.341,125.859,88.341z
	"/>
<path fill-rule="evenodd" clip-rule="evenodd" fill="#FCEBCE" d="M63.713,74.511c0,0,17.218-30.837-5.827-53.519
	C31.882-4.602,26.42,18.937,24.701,37.525c-1.49,16.107,4.518,23.905,19.95,39.189S63.713,74.511,63.713,74.511z"/>
<path fill-rule="evenodd" clip-rule="evenodd" fill="#FFBD99" d="M118.165,83.958c0,0,21.519-0.398,27.081-15.188
	s1.168-20.633-10.133-17.347c-13.844,4.026-19.508,9.875-24.909,22.969C103.252,91.247,118.165,83.958,118.165,83.958z"/>
<path fill-rule="evenodd" clip-rule="evenodd" fill="#FFBD99" d="M60.811,69.676c0,0,10.047-10.769-2.325-28.622
	s-20.21-5.125-20.921,8.364c-0.888,16.855,12.629,23.355,19.435,26.036C70.949,80.95,60.811,69.676,60.811,69.676z"/>
<path fill-rule="evenodd" clip-rule="evenodd" fill="#FCEBCE" d="M86.191,53.287C52.188,49.048,36.978,75.072,31.15,87.858
	c-9.194,20.171-29.647,42.312-14.285,65.767c6.128,9.356,11.728,13.698,17.31,20.425c11.424,13.767,19.981,14.57,30.938,15.977
	c19.472,2.502,30.334-9.624,42.466-15.977c34.686-18.166,32.643-33.441,21.793-72.964C121.532,72.527,111.395,56.43,86.191,53.287z"
	/>
<radialGradient id="SVGID_2_" cx="8.8962" cy="143.1284" r="41.9261" gradientTransform="matrix(1 0 0 1.138 0 -19.748)" gradientUnits="userSpaceOnUse">
	<stop  offset="0" style="stop-color:#FFDECC"/>
	<stop  offset="0.2546" style="stop-color:#F9DCC0"/>
	<stop  offset="1" style="stop-color:#FCEBCE"/>
</radialGradient>
<path fill-rule="evenodd" clip-rule="evenodd" fill="url(#SVGID_2_)" d="M31.15,87.858c-9.194,20.171-29.647,42.312-14.285,65.767
	c6.128,9.356,11.728,13.698,17.31,20.425c11.424,13.767,19.981,14.57,30.938,15.977C84.584,192.53,36.978,75.072,31.15,87.858z"/>
<radialGradient id="SVGID_3_" cx="129.8315" cy="165.3426" r="41.9096" gradientUnits="userSpaceOnUse">
	<stop  offset="0" style="stop-color:#FFDECC"/>
	<stop  offset="0.2546" style="stop-color:#F9DCC0"/>
	<stop  offset="1" style="stop-color:#FCEBCE"/>
</radialGradient>
<path fill-rule="evenodd" clip-rule="evenodd" fill="url(#SVGID_3_)" d="M65.112,190.028c19.472,2.502,30.334-9.624,42.466-15.977
	c34.686-18.166,32.643-33.441,21.793-72.964C121.532,72.527,54.156,188.62,65.112,190.028z"/>
<path fill="#F7CC9D" d="M112.479,79.956c-2.22,8.101-6.271,9.58-11.374,10.34c-6.28,0.935-9.727-5.136-11.599-7.813
	c0,0-4.216,8.08-10.12,9.925c-6.296,1.969-10.437-0.199-12.618-4.366c-1.322-2.526-0.851-6.877-0.851-6.877
	s-5.23,5.556-12.905,3.427c-4.571-1.268-4.892-5.341-5.169-8.089c-0.276-2.747,0.792-5.369,0.792-5.369s-5.493,5.695-4.118,12.349
	c0.975,4.713,4.862,8.095,9.967,7.427c3.541-0.464,9.037-4.138,9.037-4.138s0.276,6.224,4.403,9.213
	c4.128,2.991,10.237,2.704,14.128,0.429c3.892-2.276,7.484-7.815,7.484-7.815s2.111,5.155,7.567,7.756
	c3.219,1.535,9.294,1.762,13.086-3.731C114.006,87.096,112.479,79.956,112.479,79.956z"/>
<g id="形状_77_44_">
	<g>
		<path fill-rule="evenodd" clip-rule="evenodd" fill="#FFBD99" d="M115.254,146.338c-5.379,0.151-9.674,2.751-9.589,5.816
			c0.086,3.065,4.513,5.427,9.899,5.276c5.379-0.151,9.669-2.751,9.583-5.816C125.068,148.549,120.635,146.187,115.254,146.338z"/>
	</g>
</g>
<path fill="#57301B" d="M63.423,167.064c8.487,0.431,19.218,3.714,18.632,7.697c-0.958,6.509-11.951,9.054-21.414,7.606
	c-6.558-1.003-15.336-5.909-14.881-10.696C46.408,164.869,58.183,166.798,63.423,167.064z"/>
<g id="形状_77_42_">
	<g>
		<path fill-rule="evenodd" clip-rule="evenodd" fill="#FFBD99" d="M28.424,135.488c-5.34-0.679-9.983,1.236-10.364,4.278
			c-0.387,3.042,3.627,6.051,8.965,6.73c5.345,0.679,9.983-1.236,10.37-4.278C37.782,139.176,33.763,136.167,28.424,135.488z"/>
	</g>
</g>
<path fill="#57301B" d="M92.712,130.07c3.239-0.323,27.849,2.758,33.798,3.768c5.123,0.87,3.249,3.267-0.116,2.747
	c-2.304-0.357-29.395-3.094-32.742-3.05C89.785,133.586,88.755,130.465,92.712,130.07z"/>
<path fill="#57301B" d="M19.58,121.824c3.025-0.22,23.89,2.185,27.077,3.333c3.187,1.148,2.179,3.547-3.182,2.068
	c-1.818-0.502-22.948-3.499-24.01-3.525C18.402,123.675,16.807,122.025,19.58,121.824z"/>
<path fill="#875038" d="M105.483,105.084c-0.789-1.137-1.657-1.154-2.208-0.908c-0.668,0.298-0.71,1.476-0.073,2.613
	c0.802,1.434,3.645,6.929,9.879,6.942c6.019,0.012,6.929-3.205,5.018-3.287C116.188,110.364,112.422,115.075,105.483,105.084z"/>
<path fill="#875038" d="M45.38,98.63c0.687-0.96,1.442-0.975,1.922-0.767c0.581,0.252,0.618,1.247,0.064,2.208
	c-0.698,1.211-3.089,6.074-8.514,6.085c-5.239,0.011-6.116-2.928-4.452-2.997C36.062,103.091,39.34,107.072,45.38,98.63z"/>
</svg>
