<?xml version="1.0" encoding="utf-8"?>
<!-- Generator: Adobe Illustrator 17.0.0, SVG Export Plug-In . SVG Version: 6.00 Build 0)  -->
<!DOCTYPE svg PUBLIC "-//W3C//DTD SVG 1.1//EN" "http://www.w3.org/Graphics/SVG/1.1/DTD/svg11.dtd">
<svg version="1.1" id="图层_1" xmlns="http://www.w3.org/2000/svg" xmlns:xlink="http://www.w3.org/1999/xlink" x="0px" y="0px"
	 width="180.197px" height="222.465px" viewBox="0 0 180.197 222.465" enable-background="new 0 0 180.197 222.465"
	 xml:space="preserve">
<radialGradient id="SVGID_1_" cx="89.7544" cy="147.2946" r="52.5738" gradientTransform="matrix(-0.9917 0.1282 0.1282 0.9917 143.4471 -2.4423)" gradientUnits="userSpaceOnUse">
	<stop  offset="0" style="stop-color:#FFDECC"/>
	<stop  offset="0.5179" style="stop-color:#F9DCC0"/>
	<stop  offset="1" style="stop-color:#FCEBCE"/>
</radialGradient>
<path fill="url(#SVGID_1_)" d="M94.927,167.956c0,0,1.04,14.603,7.673,24.364c3.953,5.817-3.325,33.567-39.092,22.124
	c-21.896-7.005-9.507-22.875-7.152-33.417C59.651,166.286,94.927,167.956,94.927,167.956z"/>
<path fill-rule="evenodd" clip-rule="evenodd" fill="#FCEBCE" d="M129.155,86.959c0,0,25.13,0.051,36.445-23.859
	c16.407-34.67-6.721-36.002-21.682-31.369c-18.329,5.676-29.299,15.132-36.446,33.604C98.271,89.113,129.155,86.959,129.155,86.959z
	"/>
<path fill-rule="evenodd" clip-rule="evenodd" fill="#FCEBCE" d="M67.008,73.129c0,0,17.218-30.837-5.827-53.519
	C35.178-5.984,29.716,17.555,27.997,36.143c-1.49,16.107,4.518,23.905,19.95,39.189S67.008,73.129,67.008,73.129z"/>
<path fill-rule="evenodd" clip-rule="evenodd" fill="#FFBD99" d="M121.461,82.576c0,0,21.519-0.398,27.081-15.188
	s1.168-20.633-10.133-17.347c-13.844,4.026-19.508,9.875-24.909,22.969C106.548,89.865,121.461,82.576,121.461,82.576z"/>
<path fill-rule="evenodd" clip-rule="evenodd" fill="#FFBD99" d="M64.107,68.294c0,0,10.047-10.769-2.325-28.622
	s-20.21-5.125-20.921,8.364C39.974,64.89,53.491,71.39,60.297,74.072C74.245,79.567,64.107,68.294,64.107,68.294z"/>
<path fill-rule="evenodd" clip-rule="evenodd" fill="#FCEBCE" d="M89.486,51.905c-34.003-4.239-49.212,21.784-55.041,34.571
	c-9.194,20.171-29.647,42.312-14.285,65.767c6.128,9.356,11.728,13.698,17.31,20.425c11.424,13.767,19.981,14.57,30.938,15.977
	c19.472,2.502,30.334-9.624,42.466-15.977c34.686-18.166,32.643-33.441,21.793-72.964C124.827,71.145,114.691,55.048,89.486,51.905z
	"/>
<radialGradient id="SVGID_2_" cx="11.3119" cy="161.1118" r="41.9261" gradientTransform="matrix(1 0 0 1.138 0 -22.2292)" gradientUnits="userSpaceOnUse">
	<stop  offset="0" style="stop-color:#FFDECC"/>
	<stop  offset="0.5179" style="stop-color:#F9DCC0"/>
	<stop  offset="1" style="stop-color:#FCEBCE"/>
</radialGradient>
<path fill-rule="evenodd" clip-rule="evenodd" fill="url(#SVGID_2_)" d="M34.445,86.476c-9.194,20.171-29.647,42.312-14.285,65.767
	c6.128,9.356,11.728,13.698,17.31,20.425c11.424,13.767,19.981,14.57,30.938,15.977C87.88,191.147,40.274,73.689,34.445,86.476z"/>
<radialGradient id="SVGID_3_" cx="126.9656" cy="166.6012" r="41.9096" gradientUnits="userSpaceOnUse">
	<stop  offset="0" style="stop-color:#FFDECC"/>
	<stop  offset="0.5179" style="stop-color:#F9DCC0"/>
	<stop  offset="1" style="stop-color:#FCEBCE"/>
</radialGradient>
<path fill-rule="evenodd" clip-rule="evenodd" fill="url(#SVGID_3_)" d="M68.408,188.646c19.472,2.502,30.334-9.624,42.466-15.977
	c34.686-18.166,32.643-33.441,21.793-72.964C124.827,71.145,57.452,187.238,68.408,188.646z"/>
<path fill="#F7CC9D" d="M115.774,78.574c-2.22,8.101-6.271,9.58-11.374,10.34c-6.28,0.935-9.727-5.136-11.599-7.813
	c0,0-4.216,8.08-10.12,9.925c-6.296,1.969-10.437-0.199-12.618-4.366c-1.322-2.526-0.851-6.877-0.851-6.877
	s-5.23,5.556-12.905,3.427c-4.571-1.268-4.892-5.341-5.169-8.089c-0.276-2.747,0.792-5.369,0.792-5.369s-5.493,5.695-4.118,12.349
	c0.975,4.713,4.862,8.095,9.967,7.427c3.541-0.464,9.037-4.138,9.037-4.138s0.276,6.224,4.403,9.213
	c4.128,2.991,10.237,2.704,14.128,0.429c3.892-2.276,7.484-7.815,7.484-7.815s2.111,5.155,7.567,7.756
	c3.219,1.535,9.294,1.762,13.086-3.731C117.302,85.714,115.774,78.574,115.774,78.574z"/>
<g id="形状_77_44_">
	<g>
		<path fill-rule="evenodd" clip-rule="evenodd" fill="#FFBD99" d="M118.55,144.956c-5.379,0.151-9.674,2.751-9.589,5.816
			c0.086,3.065,4.513,5.427,9.899,5.276c5.379-0.151,9.669-2.751,9.583-5.816C128.363,147.167,123.93,144.804,118.55,144.956z"/>
	</g>
</g>
<path fill="#57301B" d="M66.719,165.682c8.487,0.431,19.218,3.714,18.632,7.697c-0.958,6.509-11.951,9.054-21.414,7.606
	c-6.558-1.003-15.336-5.909-14.881-10.696C49.704,163.486,61.479,165.415,66.719,165.682z"/>
<g id="形状_77_42_">
	<g>
		<path fill-rule="evenodd" clip-rule="evenodd" fill="#FFBD99" d="M31.72,134.106c-5.34-0.679-9.983,1.236-10.364,4.278
			c-0.387,3.042,3.627,6.051,8.965,6.73c5.345,0.679,9.983-1.236,10.37-4.278C41.078,137.794,37.059,134.785,31.72,134.106z"/>
	</g>
</g>
<path fill="#57301B" d="M96.008,128.688c3.239-0.323,27.849,2.758,33.798,3.768c5.123,0.87,3.249,3.267-0.116,2.747
	c-2.304-0.357-29.395-3.094-32.742-3.05C93.081,132.203,92.051,129.083,96.008,128.688z"/>
<path fill="#57301B" d="M22.876,120.441c3.025-0.22,23.89,2.185,27.077,3.333c3.187,1.148,2.179,3.547-3.182,2.068
	c-1.818-0.502-22.948-3.499-24.01-3.525C21.698,122.293,20.103,120.643,22.876,120.441z"/>
<path fill="#875038" d="M108.779,103.702c-0.789-1.137-1.657-1.154-2.208-0.908c-0.668,0.298-0.71,1.476-0.073,2.613
	c0.802,1.434,3.645,6.929,9.879,6.942c6.019,0.012,6.929-3.205,5.018-3.287C119.484,108.982,115.718,113.693,108.779,103.702z"/>
<path fill="#875038" d="M48.676,97.248c0.687-0.96,1.442-0.975,1.922-0.767c0.581,0.252,0.618,1.247,0.064,2.208
	c-0.698,1.211-3.089,6.074-8.514,6.085c-5.239,0.011-6.116-2.928-4.452-2.997S42.636,105.69,48.676,97.248z"/>
</svg>
