<?xml version="1.0" encoding="utf-8"?>
<!-- Generator: Adobe Illustrator 17.0.0, SVG Export Plug-In . SVG Version: 6.00 Build 0)  -->
<!DOCTYPE svg PUBLIC "-//W3C//DTD SVG 1.1//EN" "http://www.w3.org/Graphics/SVG/1.1/DTD/svg11.dtd">
<svg version="1.1" id="图层_1" xmlns="http://www.w3.org/2000/svg" xmlns:xlink="http://www.w3.org/1999/xlink" x="0px" y="0px"
	 width="180.197px" height="222.465px" viewBox="0 0 180.197 222.465" enable-background="new 0 0 180.197 222.465"
	 xml:space="preserve">
<radialGradient id="SVGID_1_" cx="96.9928" cy="155.2187" r="52.6627" gradientUnits="userSpaceOnUse">
	<stop  offset="0" style="stop-color:#FFDECC"/>
	<stop  offset="0.5179" style="stop-color:#F9DCC0"/>
	<stop  offset="1" style="stop-color:#FCEBCE"/>
</radialGradient>
<path fill="url(#SVGID_1_)" d="M77.976,166.693c0,0,0.877,14.592-5.378,24.6s7.08,25.878,38.354,19.874
	c31.273-6.004,1.158-24.459,5.357-38.969S77.976,166.693,77.976,166.693z"/>
<path fill="#F9E7CB" d="M110.955,46.317c0,0,0.966-15.95,26.595-26.212s29.417-1.602,26.859,18.005s-22.663,31.048-38.259,33.125
	C110.554,73.312,110.955,46.317,110.955,46.317z"/>
<path fill="#F9E7CB" d="M65.13,56.391c0,0,1.352-23.364-28.751-40.364S8.765,22.2,8.892,32.591
	c0.127,10.391,9.166,45.373,38.198,44.52S65.13,56.391,65.13,56.391z"/>
<path fill="#FFBD99" d="M118.299,52.285c0,0-0.237-7.836,14.315-15.982c14.565-8.153,18.696-0.814,16.239,10.886
	c-3.069,14.617-13.702,18.772-23.132,20.027S118.299,52.285,118.299,52.285z"/>
<path fill="#FFBD99" d="M60.563,57.699c0,0,0.762-13.168-16.205-22.75s-15.564,3.48-15.492,9.336
	c0.071,5.856,5.166,25.573,21.529,25.092C66.758,68.896,60.563,57.699,60.563,57.699z"/>
<path fill="#FCEBCE" d="M131,63.61c-16.171-29.022-67.415-28.679-83.856,4.219c-6.963,13.932-5.156,21.89-8.316,33.058
	c-5.956,21.045-7.756,38.028,1.374,48.536c9.045,10.41,27.897,17.039,35.403,22.517c9.257,6.755,39.05,14.806,57.543-4.754
	c20.515-21.699,34.526-36.299,20.265-62.797C145.577,89.829,141.306,82.106,131,63.61z"/>
<radialGradient id="SVGID_2_" cx="19.3541" cy="153.6054" r="59.8461" gradientUnits="userSpaceOnUse">
	<stop  offset="0" style="stop-color:#FFDECC"/>
	<stop  offset="0.5179" style="stop-color:#F9DCC0"/>
	<stop  offset="1" style="stop-color:#FCEBCE"/>
</radialGradient>
<path fill="url(#SVGID_2_)" d="M38.828,100.888c-5.956,21.045-7.756,38.028,1.374,48.536c9.045,10.41,27.897,17.039,35.403,22.517
	c3.91,2.853,18.313-27.391,10.543-43.935C75.523,105.38,40.654,94.437,38.828,100.888z"/>
<radialGradient id="SVGID_3_" cx="166.6796" cy="151.2527" r="52.9608" gradientUnits="userSpaceOnUse">
	<stop  offset="0" style="stop-color:#FFDECC"/>
	<stop  offset="0.5179" style="stop-color:#F9DCC0"/>
	<stop  offset="1" style="stop-color:#FCEBCE"/>
</radialGradient>
<path fill="url(#SVGID_3_)" d="M133.148,167.187c20.515-21.699,34.526-36.299,20.265-62.797
	c-3.894-7.236-42.395,8.021-48.794,27.868C98.141,152.353,123.845,177.027,133.148,167.187z"/>
<path fill="#57301B" d="M57.356,124.289c6.21,0.619,11.797,0.33,18.238-2.744c4.182-1.996,1.809-5.549-2.338-3.185
	c-3.89,2.217-7.696,3.291-16.406,2.828c-7.562-0.402-13.469-3.297-15.737-6.255c-0.596-0.778-1.803-0.328-0.851,1.142
	C41.82,118.481,45.569,123.114,57.356,124.289z"/>
<path fill="#57301B" d="M137.793,120.23c-7.587,1.58-13.398-0.88-15.365-2.804c-1.945-1.903-0.781-4.07,1.291-2.819
	c3.914,2.364,8.584,3.641,14.02,2.501c6.253-1.311,10.888-4.442,12.9-7.923c0.504-0.871,1.731-0.487,0.986,1.063
	C149.692,114.268,146.889,118.335,137.793,120.23z"/>
<path fill="#57301B" d="M105.367,157.202c-7.43,0.744-18.038,2.896-16.729,8.844c1.643,7.468,12.348,7.83,18.212,7.411
	c5.864-0.42,15.47-2.793,15.455-11.486C122.295,156.322,109.955,156.743,105.367,157.202z"/>
<path fill="#F7CC9D" d="M64.179,70.895c1.597,7.188,5.161,8.651,9.705,9.527c5.591,1.078,8.982-4.098,10.793-6.366
	c0,0,3.389,7.252,8.599,9.112c5.556,1.984,9.378,0.256,11.539-3.304c1.31-2.158,1.1-5.99,1.1-5.99s4.423,5.083,11.417,3.534
	c4.165-0.923,4.652-4.477,5.035-6.873c0.382-2.395-0.448-4.736-0.448-4.736s4.652,5.216,3.093,10.988
	c-1.105,4.089-4.76,6.891-9.31,6.095c-3.156-0.552-7.91-3.997-7.91-3.997s-0.552,5.441-4.402,7.89
	c-3.851,2.45-9.321,1.947-12.703-0.207c-3.382-2.155-6.336-7.154-6.336-7.154s-2.146,4.429-7.171,6.483
	c-2.965,1.212-8.428,1.16-11.564-3.808C62.459,77.087,64.179,70.895,64.179,70.895z"/>
<g id="形状_77_58_">
	<g>
		<path fill-rule="evenodd" clip-rule="evenodd" fill="#FFBD99" d="M153.142,129.882c-0.4-3.079-5.111-4.998-10.515-4.286
			c-5.403,0.712-9.459,3.777-9.054,6.856c0.405,3.079,5.111,4.998,10.521,4.285C149.496,136.026,153.547,132.961,153.142,129.882z"
			/>
	</g>
</g>
<g id="形状_77_56_">
	<g>
		<path fill-rule="evenodd" clip-rule="evenodd" fill="#FFBD99" d="M51.113,129.649c-5.884-0.029-10.671,2.658-10.688,6.01
			c-0.017,3.353,4.737,6.094,10.628,6.123c5.884,0.029,10.665-2.658,10.682-6.011C61.757,132.419,56.998,129.678,51.113,129.649z"/>
	</g>
</g>
</svg>
