<?xml version="1.0" encoding="utf-8"?>
<!-- Generator: Adobe Illustrator 19.0.0, SVG Export Plug-In . SVG Version: 6.00 Build 0)  -->
<svg version="1.1" id="图层_1" xmlns="http://www.w3.org/2000/svg" xmlns:xlink="http://www.w3.org/1999/xlink" x="0px" y="0px"
	 viewBox="0 0 340 340" style="enable-background:new 0 0 340 340;" xml:space="preserve">
<style type="text/css">
	.st0{fill:none;stroke:#FF6600;stroke-width:4;stroke-miterlimit:10;}
	.st1{fill-rule:evenodd;clip-rule:evenodd;fill:#CCCCCC;}
	.st2{fill-rule:evenodd;clip-rule:evenodd;fill:#FF6600;}
</style>
<g id="底圆_拷贝_11_5_">
	<g id="XMLID_12_">
		<path id="XMLID_13_" class="st0" d="M169.9,10.5C82.9,10.6,10.1,83.4,10,170.4c-0.1,88.5,71.7,160.2,160.1,160.1
			c87-0.1,159.8-72.9,159.9-159.9C330.1,82.2,258.3,10.4,169.9,10.5z"/>
	</g>
</g>
<g id="形状_20">
	<g id="XMLID_48_">
		<path id="XMLID_49_" class="st1" d="M148.3,177c0.5,1.1,1.6,1.8,2.7,1.8c0.4,0,0.8-0.1,1.2-0.3l21.9-9.7c1.5-0.7,2.2-2.4,1.5-4
			c-0.7-1.5-2.4-2.2-4-1.5l-17.7,7.9v-32.6l35.8,17l-5.6,2.6c-1.5,0.7-2.2,2.5-1.5,4c0.5,1.1,1.6,1.7,2.7,1.7c0.4,0,0.8-0.1,1.2-0.3
			l11.4-5.2c0,0,0,0,0,0c0.1-0.1,0.3-0.2,0.4-0.2c0,0,0.1-0.1,0.1-0.1c0.1-0.1,0.3-0.2,0.4-0.3c0,0,0,0,0,0c0.1-0.1,0.2-0.3,0.3-0.4
			c0,0,0-0.1,0.1-0.1c0-0.1,0.1-0.1,0.1-0.2c0,0,0-0.1,0-0.1c0-0.1,0.1-0.2,0.1-0.3c0-0.1,0.1-0.2,0.1-0.3c0-0.1,0-0.2,0-0.3
			c0-0.1,0-0.2,0-0.3c0-0.1,0-0.2,0-0.3c0-0.1,0-0.2,0-0.3c0-0.1,0-0.2-0.1-0.3c0-0.1-0.1-0.2-0.1-0.3c0,0,0-0.1,0-0.1
			c0,0,0-0.1-0.1-0.1c-0.1-0.1-0.1-0.2-0.2-0.3c-0.1-0.1-0.1-0.2-0.2-0.2c-0.1-0.1-0.1-0.2-0.2-0.2c-0.1-0.1-0.1-0.1-0.2-0.2
			c-0.1-0.1-0.2-0.1-0.2-0.2c-0.1-0.1-0.2-0.1-0.3-0.2c0,0-0.1-0.1-0.1-0.1L152.3,131c0,0,0,0-0.1,0c-0.1,0-0.2-0.1-0.3-0.1
			c-0.1,0-0.2-0.1-0.3-0.1c-0.1,0-0.2,0-0.3,0c-0.1,0-0.2,0-0.3,0c0,0,0,0-0.1,0c-0.1,0-0.1,0-0.2,0c-0.1,0-0.2,0-0.3,0
			c-0.1,0-0.2,0-0.3,0.1c-0.1,0-0.2,0.1-0.3,0.1c-0.1,0-0.2,0.1-0.3,0.1c-0.1,0-0.2,0.1-0.3,0.1c-0.1,0-0.1,0.1-0.2,0.2
			c-0.1,0.1-0.2,0.1-0.2,0.2c-0.1,0.1-0.1,0.1-0.2,0.2c-0.1,0.1-0.1,0.2-0.2,0.2c-0.1,0.1-0.1,0.2-0.2,0.3c0,0.1-0.1,0.1-0.1,0.2
			c0,0,0,0,0,0.1c0,0.1-0.1,0.2-0.1,0.3c0,0.1-0.1,0.2-0.1,0.3c0,0.1,0,0.2,0,0.3c0,0.1,0,0.2,0,0.3c0,0,0,0,0,0.1V175
			c0,0.1,0,0.2,0,0.4C148,175.9,148.1,176.4,148.3,177z M254.3,216.1H81.8c-2.5,0-4.5,2-4.5,4.5c0,2.5,2,4.5,4.5,4.5H164v25.5h-26.9
			c-2.5,0-4.5,2-4.5,4.5c0,2.5,2,4.5,4.5,4.5h61.8c2.5,0,4.5-2,4.5-4.5c0-2.5-2-4.5-4.5-4.5H173v-25.5h81.2c2.5,0,4.5-2,4.5-4.5
			C258.8,218.1,256.7,216.1,254.3,216.1z M109.3,205.2h121.5c9.9,0,18-8.1,18-18v-66.8c0-9.9-8.1-18-18-18H109.3
			c-9.9,0-18,8.1-18,18v66.8C91.3,197.1,99.3,205.2,109.3,205.2z M100.3,120.4c0-5,4-9,9-9h121.5c5,0,9,4,9,9v66.8c0,5-4,9-9,9
			H109.3c-5,0-9-4-9-9V120.4z"/>
	</g>
</g>
<g id="形状_20_拷贝">
	<g id="XMLID_14_">
		<path id="XMLID_15_" class="st2" d="M199.9,156.1c0-0.1,0-0.2,0-0.3c0-0.1,0-0.2,0-0.3c0-0.1,0-0.2,0-0.3c0-0.1,0-0.2,0-0.3
			c0-0.1,0-0.2-0.1-0.3c0-0.1-0.1-0.2-0.1-0.3c0,0,0-0.1,0-0.1c0,0,0-0.1-0.1-0.1c-0.1-0.1-0.1-0.2-0.2-0.3
			c-0.1-0.1-0.1-0.2-0.2-0.2c-0.1-0.1-0.1-0.2-0.2-0.2c-0.1-0.1-0.1-0.1-0.2-0.2c-0.1-0.1-0.2-0.1-0.2-0.2c-0.1-0.1-0.2-0.1-0.3-0.2
			c0,0-0.1-0.1-0.1-0.1L152.3,131c0,0,0,0-0.1,0c-0.1,0-0.2-0.1-0.3-0.1c-0.1,0-0.2-0.1-0.3-0.1c-0.1,0-0.2,0-0.3,0
			c-0.1,0-0.2,0-0.3,0c0,0,0,0-0.1,0c-0.1,0-0.1,0-0.2,0c-0.1,0-0.2,0-0.3,0c-0.1,0-0.2,0-0.3,0.1c-0.1,0-0.2,0.1-0.3,0.1
			c-0.1,0-0.2,0.1-0.3,0.1c-0.1,0-0.2,0.1-0.3,0.1c-0.1,0-0.1,0.1-0.2,0.2c-0.1,0.1-0.2,0.1-0.2,0.2c-0.1,0.1-0.1,0.1-0.2,0.2
			c-0.1,0.1-0.1,0.2-0.2,0.2c-0.1,0.1-0.1,0.2-0.2,0.3c0,0.1-0.1,0.1-0.1,0.2c0,0,0,0,0,0.1c0,0.1-0.1,0.2-0.1,0.3
			c0,0.1-0.1,0.2-0.1,0.3c0,0.1,0,0.2,0,0.3c0,0.1,0,0.2,0,0.3c0,0,0,0,0,0.1V175c0,0.1,0,0.2,0,0.4c-0.1,0.5,0,1.1,0.2,1.6
			c0.5,1.1,1.6,1.8,2.7,1.8c0.4,0,0.8-0.1,1.2-0.3l21.9-9.7c1.5-0.7,2.2-2.4,1.5-4c-0.7-1.5-2.4-2.2-4-1.5l-17.7,7.9v-32.6l35.8,17
			l-5.6,2.6c-1.5,0.7-2.2,2.5-1.5,4c0.5,1.1,1.6,1.7,2.7,1.7c0.4,0,0.8-0.1,1.2-0.3l11.4-5.2c0,0,0,0,0,0c0.1-0.1,0.3-0.2,0.4-0.2
			c0,0,0.1-0.1,0.1-0.1c0.1-0.1,0.3-0.2,0.4-0.3c0,0,0,0,0,0c0.1-0.1,0.2-0.3,0.3-0.4c0,0,0-0.1,0.1-0.1c0-0.1,0.1-0.1,0.1-0.2
			c0,0,0-0.1,0-0.1c0-0.1,0.1-0.2,0.1-0.3C199.8,156.3,199.9,156.2,199.9,156.1z"/>
	</g>
</g>
</svg>
