<?xml version="1.0" encoding="utf-8"?>
<!-- Generator: Adobe Illustrator 17.0.0, SVG Export Plug-In . SVG Version: 6.00 Build 0)  -->
<!DOCTYPE svg PUBLIC "-//W3C//DTD SVG 1.1//EN" "http://www.w3.org/Graphics/SVG/1.1/DTD/svg11.dtd">
<svg version="1.1" id="图层_1" xmlns="http://www.w3.org/2000/svg" xmlns:xlink="http://www.w3.org/1999/xlink" x="0px" y="0px"
	 width="159.063px" height="210.23px" viewBox="0 0 159.063 210.23" enable-background="new 0 0 159.063 210.23"
	 xml:space="preserve">
<g id="形状_17">
	<g>
		<path fill-rule="evenodd" clip-rule="evenodd" fill="#FEB063" d="M120.167,192.781c-1.585-5.042-6.594-11.951-6.916-19.27
			c-0.567-12.903-28.213-3.461-28.213-3.461s1.283,9.531-1.904,20.758c-3.186,11.227,13.368,15.938,21.142,15.961
			C116.998,206.806,121.752,197.823,120.167,192.781z"/>
	</g>
</g>
<g id="形状_20_4_">
	<g>
		<path fill-rule="evenodd" clip-rule="evenodd" fill="#FFC07D" d="M60.462,74.265C46.209,46.104,33.192,41.908,25.742,37.797
			c-7.45-4.111-19.738-8.799-18.599,3.211c2.105,25.388,16.136,38.734,25.339,42.76c9.203,4.026,20.588,6.335,20.588,6.335
			S76.048,105.063,60.462,74.265z"/>
	</g>
</g>
<g id="形状_23">
	<g>
		<path fill-rule="evenodd" clip-rule="evenodd" fill="#FF9B48" d="M57.294,77.961c-2.49-4.92-13.509-17.945-15.837-20.06
			c-18.904-15.429-20.06-9.502-20.06-9.502s-2.292,4.781,6.863,18.476C37.414,80.571,55.183,83.24,55.183,83.24
			S59.784,82.881,57.294,77.961z"/>
	</g>
</g>
<g id="形状_21_4_">
	<g>
		<path fill-rule="evenodd" clip-rule="evenodd" fill="#FFC07D" d="M99.403,76.732c0.071,0.109,0.123,0.173,0.123,0.173
			L99.403,76.732z M116.714,8.636c-2.853,1.678-17.425,9.958-22.995,28.149c-6.605,21.57-2.499,28.475-2.499,28.475l8.182,11.472
			c-0.431-0.665-1.624-3.237,3.051-6.41c5.444-3.696,17.113-10.458,21.883-31.425C129.035,18.246,123.462,4.668,116.714,8.636z"/>
	</g>
</g>
<g id="形状_24">
	<g>
		<path fill-rule="evenodd" clip-rule="evenodd" fill="#FF9B48" d="M115.95,28.864c-1.241-5.17-9.864,1.131-13.784,9.504
			c-3.92,8.373-5.807,24.283-5.807,24.283s4.846,4.288,5.279,3.695c0.433-0.593,8.58-8.833,12.142-17.421
			C116.476,42.426,117.4,34.906,115.95,28.864z"/>
	</g>
</g>
<radialGradient id="SVGID_1_" cx="92.3003" cy="118.449" r="103.6147" gradientUnits="userSpaceOnUse">
	<stop  offset="0" style="stop-color:#FECD97"/>
	<stop  offset="1" style="stop-color:#FFC07A"/>
</radialGradient>
<path fill-rule="evenodd" clip-rule="evenodd" fill="url(#SVGID_1_)" d="M125.395,106.784c-3.214-4.768-7.633-21.835-12.142-27.979
	c-4.508-6.144-15.969-26.371-41.176-17.949c0,0-22.074,9.854-20.588,33.258c1.485,23.403,2.447,11.351,1.584,30.618
	s4.241,37.18,36.953,49.095c8.849,3.168,13.769,5.785,21.483,3.157c7.95-2.708,9.521-7.408,11.971-12.886
	C125.507,159.566,143.02,134.353,125.395,106.784z"/>
<path fill-rule="evenodd" clip-rule="evenodd" fill="#66361F" d="M113.252,78.325c-4.508-6.144-15.969-26.371-41.176-17.949
	c0,0-22.074,9.854-20.588,33.258c0.527,8.298,0.987,12.131,1.324,14.491c2.456-2.117,7.699-7.669,10.29-15.928
	c3.388-10.799,2.48,6.769,24.283,10.03c4.214,0.66,10.629-18.801,10.558-21.116c-0.063-2.067,10.68,8.052,20.719,8.651
	C116.923,85.183,115.096,80.838,113.252,78.325z"/>
<path fill-rule="evenodd" clip-rule="evenodd" fill="#E5432E" d="M115.32,81.853c-0.531-1-1.092-2.162-1.628-2.892
	c-1.089-1.484-2.452-3.69-4.447-6.215C97.336,65.381,70.18,53.919,52.154,85.063c-0.603,2.778-0.877,5.807-0.666,9.116
	c0.041,0.654,0.082,1.234,0.123,1.835C56.327,88.577,76.142,64.129,115.32,81.853z"/>
<g id="形状_4">
	<g>
		<path fill-rule="evenodd" clip-rule="evenodd" fill="#A85726" d="M84.745,120.721c-0.07,1.766-0.455,2.171-0.528,2.112
			c-12.301-10.04-30.986-11.614-30.986-11.614l0.139,1.791c23.451,5.824,30.885,11.402,30.847,11.406
			c1.469-0.335,1.421-2.112,1.584-3.695C85.963,119.137,84.815,118.955,84.745,120.721z"/>
	</g>
</g>
<g id="形状_10">
	<g>
		<path fill-rule="evenodd" clip-rule="evenodd" fill="#FFFFFF" d="M84.217,126c-1.509-1.664-25.521-4.929-29.562-2.64
			c0,0-2.359,21.093,21.644,21.116C84.79,144.484,91.025,133.507,84.217,126z"/>
	</g>
</g>
<g id="形状_11">
	<g>
		<path fill-rule="evenodd" clip-rule="evenodd" fill="#FFFFFF" d="M129.616,113.33l-5.279-9.502l-16.365,14.781l-2.112,3.695
			c0,0,2.033,12.516,15.837,10.558C135.502,130.904,129.616,113.33,129.616,113.33z"/>
	</g>
</g>
<path fill-rule="evenodd" clip-rule="evenodd" fill="#FFCE99" d="M106.308,122.053c4.167-10.31,10.132-19.808,14.529-19.023
	c8.252,1.474,2.641-0.276,3.903,0.161c0.225,0.078-3.536-4.256-6.244-3.864c-6.115,0.885-7.538,8.297-10.334,12.652
	c-2.542,3.959-2.294,10.074-2.294,10.074"/>
<g id="形状_12_10_">
	<g>
		<path fill-rule="evenodd" clip-rule="evenodd" fill="#FC9867" d="M90.024,116.497c-0.61-1.347-2.108-1.156-1.584,1.056
			c0.524,2.212,2.112,4.223,2.112,4.223s0.952,0.891,1.056-0.528C91.712,119.83,90.634,117.844,90.024,116.497z"/>
	</g>
</g>
<g id="形状_13_4_">
	<g>
		<path fill-rule="evenodd" clip-rule="evenodd" fill="#FC9867" d="M97.414,114.386c-0.552-1.79-1.616-0.852-1.584,0
			c0.033,0.852,0.307,3.62,0.528,4.751c0.221,1.131,0.929,0.61,1.056,0C97.541,118.527,97.966,116.176,97.414,114.386z"/>
	</g>
</g>
<g id="形状_14_12_">
	<g>
		<path fill-rule="evenodd" clip-rule="evenodd" fill="#FFA083" d="M67.324,149.227c-1.122,0-6.474,0.423-5.807,3.695
			c0.667,3.272,5.807,3.167,5.807,3.167s11.063,0.593,12.142-3.695C80.544,148.106,67.324,149.227,67.324,149.227z"/>
	</g>
</g>
<path fill-rule="evenodd" clip-rule="evenodd" fill="#FFCE99" d="M85.038,126.167c-10.625-4.114-18.216-5.659-22.612-4.873
	c-8.252,1.474-9.251,2.935-9.195,2.704c0.056-0.231-0.591-3.629,6.381-5.353c6.365-1.574,12.952,0.902,17.538,2.65
	C81.679,123.019,85.038,126.167,85.038,126.167"/>
<path fill-rule="evenodd" clip-rule="evenodd" fill="none" d="M132.575,130.267c-9.446,4.379-7.709,8.402-7.709,8.402
	c1.309,1.882,4.52,1.463,7.06,0.746C132.386,136.512,132.633,133.444,132.575,130.267z"/>
<g id="形状_16">
	<g>
		<path fill-rule="evenodd" clip-rule="evenodd" fill="#512A15" d="M115.891,162.02c-0.182-0.925-1.601-3.273-11.086-0.124
			s-8.384,4.913-7.919,6.335c0.465,1.422,7.076,4.281,11.59,2.718C114.939,168.71,116.27,163.95,115.891,162.02z"/>
	</g>
</g>
<g id="形状_9">
	<g>
		<path fill-rule="evenodd" clip-rule="evenodd" fill="#512A15" d="M129.752,115.167c0,0-2.453-6.498-5.943-11.34
			c-2.478-3.439-6.67,1.451-14.781,13.725c0,0,3.073,12.667,15.309,9.502C129.295,125.957,130.901,117.669,129.752,115.167z"/>
	</g>
</g>
<g id="形状_8">
	<g>
		<path fill-rule="evenodd" clip-rule="evenodd" fill="#512A15" d="M84.217,126c-10.633-4.367-19.532-3.695-19.532-3.695
			s-4.151,23.863,15.309,19.532C86.367,140.894,89.54,130.252,84.217,126z"/>
	</g>
</g>
<g id="形状_5">
	<g>
		<path fill-rule="evenodd" clip-rule="evenodd" fill="#A85726" d="M120.114,93.27c-6.189,6.448-14.947,23.273-15.837,22.7
			c-0.497-0.32-1.245-1.257-2.112-2.112c-0.866-0.855-1.388-0.197-1.056,0.528c0.332,0.725,2.872,5.041,3.695,3.695
			c6.701-11.016,16.197-22.528,16.893-23.755C122.126,93.569,121.019,92.257,120.114,93.27z"/>
	</g>
</g>
<g id="形状_6">
	<g>
		<path fill-rule="evenodd" clip-rule="evenodd" fill="#733F21" d="M84.264,125.11c-0.976-0.362-20.173-7.683-31.099-2.843
			c-3.905,1.73-6.999-2.413-6.425-0.974c1.244,3.122,6.331,3.65,6.331,3.65c2.141-1.873,12.812-5.14,31.931,1.798
			C86.037,127.118,87.114,126.167,84.264,125.11z"/>
	</g>
</g>
<g id="形状_7">
	<g>
		<path fill-rule="evenodd" clip-rule="evenodd" fill="#733F21" d="M128.963,99.027c-1.191,1.143-3.18,3.016-5.951,1.923
			c-7.412-2.924-17.295,20.591-17.679,21.354c-0.384,0.763-0.046,1.829,0.528,1.056c0.574-0.773,12.02-22.128,17.949-19.532
			c2.416,1.437,5.08-2.317,6.297-5.344C130.288,98.032,129.737,98.284,128.963,99.027z"/>
	</g>
</g>
<g id="形状_19_4_">
	<g>
		<path fill-rule="evenodd" clip-rule="evenodd" fill="#E5432E" d="M94.247,19.364c0,0-1.805-8.375-11.086,2.112
			c-11.515,12.659-13.69,30.968-13.69,30.968C58.63,38.403,45.68,33.089,45.68,33.089s-8.297-4.804-7.391,4.223
			c3.563,27.741,30.618,32.73,30.618,32.73c1.227,0.307,4.35,1.072,9.502-2.64C101.301,46.994,94.247,19.364,94.247,19.364z"/>
	</g>
</g>
<path fill-rule="evenodd" clip-rule="evenodd" fill="#9C6342" d="M59.497,138.668c0,0,5.584,5.874,14.992,5.77
	c3.001-0.064-0.24,1.304-6.984,0.001c0,0-1.621,0.037-3.058,2.383c0,0-0.132-1.994,0.904-2.968c0,0-0.983-0.089-2.238-1.109
	c0,0-1.323,0.779-1.82,1.731c0,0-0.135-1.731,0.58-2.563C61.873,141.913,60.429,140.63,59.497,138.668z"/>
<g id="Shape_2_41_">
	<g>
		<path fill-rule="evenodd" clip-rule="evenodd" fill="#9C6342" d="M133.806,124.843c-0.285-0.465-1.177-0.885-2.123-0.836
			c0.106-2.779-0.95-5.141-0.875-4.281c0.173,1.981,0.434,5.179-1.218,7.697c-1.531,2.334-4.108,3.99-5.831,5.088
			c-1.57,0.998,3.838-0.787,6.424-4.126c0.29-0.064,0.735-0.145,1.234-0.173c0.598-0.034,1.788,0.016,1.55-0.271
			c-0.425-0.509-1.169-1.053-1.853-1.168c0.174-0.431,0.31-0.871,0.4-1.315c0.147-0.069,0.329-0.153,0.602-0.272
			C132.884,124.853,134.075,125.281,133.806,124.843z"/>
	</g>
</g>
<ellipse transform="matrix(0.9845 -0.1753 0.1753 0.9845 -23.115 13.6843)" fill-rule="evenodd" clip-rule="evenodd" fill="#FFFFFF" cx="65.883" cy="137.651" rx="4.442" ry="2.105"/>
<ellipse transform="matrix(0.908 -0.4189 0.4189 0.908 -42.0616 59.6616)" fill-rule="evenodd" clip-rule="evenodd" fill="#FFFFFF" cx="114.852" cy="125.629" rx="3.864" ry="2.341"/>
</svg>
