<?xml version="1.0" encoding="utf-8"?>
<!-- Generator: Adobe Illustrator 17.0.0, SVG Export Plug-In . SVG Version: 6.00 Build 0)  -->
<!DOCTYPE svg PUBLIC "-//W3C//DTD SVG 1.1//EN" "http://www.w3.org/Graphics/SVG/1.1/DTD/svg11.dtd">
<svg version="1.1" id="图层_1" xmlns="http://www.w3.org/2000/svg" xmlns:xlink="http://www.w3.org/1999/xlink" x="0px" y="0px"
	 width="159.063px" height="210.23px" viewBox="0 0 159.063 210.23" enable-background="new 0 0 159.063 210.23"
	 xml:space="preserve">
<radialGradient id="SVGID_1_" cx="36.6234" cy="188.4883" r="165.8323" gradientTransform="matrix(-1.0605 0.3226 0.3187 1.0735 64.759 -82.1704)" gradientUnits="userSpaceOnUse">
	<stop  offset="0" style="stop-color:#FFC07D"/>
	<stop  offset="0.5713" style="stop-color:#FEB162"/>
	<stop  offset="1" style="stop-color:#FEA852"/>
</radialGradient>
<path fill-rule="evenodd" clip-rule="evenodd" fill="url(#SVGID_1_)" d="M66.47,187.62c-8.336-11.991,1.943-19.857,2.488-30.342
	c0.764-14.71-5.988-19.416-9.124-26.143c-3.293-7.065,43.586,12.518,43.586,12.518s-4.436,20.434,4.748,30.81
	c2.827,3.194-1.781,17.534-15.58,21.733C83.308,199.018,73.927,198.346,66.47,187.62z"/>
<path opacity="0.6" fill-rule="evenodd" clip-rule="evenodd" fill="#DD7528" d="M102.431,153.394c0,0-7.91,3.178-21.91-3.497
	c-3.431-1.636,3.101,18.062,22.851,14.404C103.372,164.3,101.938,157.175,102.431,153.394z"/>
<path fill-rule="evenodd" clip-rule="evenodd" fill="#FFC07D" d="M68.085,68.972c0,0-18.23-11.208-26.686-19.66
	S24.947,33.39,21.846,30.292c-6.407-6.4-13.943-6.868-14.153,8.612c-0.277,20.377,8.659,38.424,23.655,43.483
	c9.632,3.249,16.536,2.783,21.938,2.72C62.273,85.003,68.085,68.972,68.085,68.972z"/>
<path fill-rule="evenodd" clip-rule="evenodd" fill="#FFC07D" d="M96.847,67.472c0,0,8.985-15.464,12.963-25.814
	s9.564-21.563,12.328-25.116c3.313-4.258,6.899-6.313,10.921,0.449c4.022,6.761,11.451,25.564,2.622,40.493
	c-9.108,15.401-20.533,16.782-31.804,19.531S96.847,67.472,96.847,67.472z"/>
<path fill-rule="evenodd" clip-rule="evenodd" fill="#FF9B48" d="M103.25,74.692c0,0,11.418-2.173,18.233-8.876
	c6.815-6.703,9.357-14.909,9.22-21.374c-0.137-6.465-3.256-8.273-7.113-3.432s-12.694,22.227-21.667,27.351
	S103.25,74.692,103.25,74.692z"/>
<path fill-rule="evenodd" clip-rule="evenodd" fill="#FF9B48" d="M60.557,74.217c0,0-23.146-13.298-29.17-19.157
	c-10.991-10.689-10.11-0.974-9.968,1.241c0.142,2.215,1.426,12.462,11.233,18.529c9.808,6.067,22.081,6.512,24.895,6.327
	S60.557,74.217,60.557,74.217z"/>
<radialGradient id="SVGID_2_" cx="-13.1476" cy="180.5988" r="45.9361" gradientTransform="matrix(-1.0605 0.3226 0.3187 1.0735 64.759 -82.1704)" gradientUnits="userSpaceOnUse">
	<stop  offset="0" style="stop-color:#FECD97"/>
	<stop  offset="1" style="stop-color:#FFC07A"/>
</radialGradient>
<path fill-rule="evenodd" clip-rule="evenodd" fill="url(#SVGID_2_)" d="M110.148,151.401c-21.793,6.63-30.05-3.51-36.546-7.286
	c-5.666-3.293-14.954-12.034-18.94-22.141c-3.895-9.875-15.952-48.693,24.663-61.055c14.198-4.322,27.81,3.313,34.602,12.788
	c11.254,15.699,7.453,21.217,14.281,23.32c4.814,1.483,13.642-0.736,14.835,11.161C144.424,121.985,136.234,143.465,110.148,151.401
	"/>
<path fill-rule="evenodd" clip-rule="evenodd" fill="#66361F" d="M79.249,60.667c14.272-4.063,27.288,1.83,36.351,15.486
	l1.786,2.802c-1.945,3.774-2.905,6.672-6.74,6.211c-6.2-0.745-15.425-1.465-34.108-5.661c-1.463-0.328-1.603,0.999-2.171,2.01
	c-3.849,6.85-10.081,15.914-13.65,17.649c-2.337,1.136-10.799-0.845-10.725-3.134C50.653,75.684,64.725,64.801,79.249,60.667z"/>
<path fill-rule="evenodd" clip-rule="evenodd" fill="#E5432E" d="M113.926,73.707c0,0-18.499-7.493-45.846,6.942
	C55.459,87.311,49.992,96.03,49.992,96.03s0.11-4.315,0.836-6.831c0.519-1.8,8.016-13.896,25.98-21.957
	c0,0-12.77,3.391-24.414-8.201c-8.305-8.268-10.303-20.26-11.183-25.524c-1.163-6.964,1.767-7.098,4.55-7.124
	c3.09-0.029,12.55,1.649,24.816,12.039c7.133,6.042,11.945,13.86,12.318,15.113c0.372,1.253,0.085-7.091,3.419-15.163
	c3.142-7.607,7.565-13.326,11.835-17.814c4.466-4.693,6.285-3.917,7.302-1.401c1.017,2.515,5.068,14.949,3.612,24.595
	c-1.457,9.646-9.47,16.912-15,20.417c0,0,11.002,1.321,15.547,5.019C111.251,70.533,111.636,70.93,113.926,73.707z"/>
<path fill-rule="evenodd" clip-rule="evenodd" fill="#FF8366" d="M113.286,150.345c-6.194,2.184-30.453-4.848-21.458-29.725
	c0.957-2.645,12.312,4.575,25.406,0.652c10.865-3.256,12.529-6.849,17.263-3.256c5.141,3.903,7.859,1.407,6.836,4.79
	C138.086,133.54,128.168,145.099,113.286,150.345"/>
<g id="腮红2_9_">
	<g>
		<path fill-rule="evenodd" clip-rule="evenodd" fill="#FFA083" d="M74.742,107.09c-7.499,0.954-8.377,4.02-8.262,5.347
			c0.103,1.19,2.246,3.528,9.353,3.001c5.637-0.416,7.804-3.611,7.789-5.179C83.603,108.323,80.859,106.312,74.742,107.09z"/>
	</g>
</g>
<path fill="#4F2914" d="M138.531,103.266c-0.007,2.842-6.16,6.439-10.371,6.299c-4.93-0.164-10.719-3.968-10.486-6.357
	c0.234-2.389,7.551-3.008,10.7-2.996C131.522,100.225,138.539,100.047,138.531,103.266z"/>
<path fill="#A85726" d="M93.518,87.104c0.348,0.242,1.394,1.138,0.847,1.848c-0.53,0.687-0.974,0.178-2.005-0.319
	c-1.052-0.506-9.463-5.363-14.992,1.023c-1.145,1.322-1.991,0.631-1.209-0.458C77.938,86.722,85.045,81.217,93.518,87.104z"/>
<path fill="#713D1F" d="M101.049,101.07c0.693-0.176,0.305-1.158-0.281-2.095c-2.423-3.876-7.578-7.16-15.358-5.548
	c-8.269,1.713-10.839,7.267-11.213,8.074c0,0-1.769,0.652-4.312-1.264c-1.706-1.286-0.69,0.042,0.146,1.169
	c0.714,0.962,2.26,2.418,5.341,1.941c0,0,3.838-6.13,10.377-7.695c3.084-0.738,9.703-0.97,13.921,3.927
	C100.538,100.585,100.724,101.153,101.049,101.07z"/>
<path fill="#F76531" d="M112.119,150.705c-6.936,2.124-14.756-4.185-16.547-6.145c-1.791-1.96-7.209-6.92-5.159-18.759"/>
<path fill="#F76531" d="M90.412,125.801c0,0,31.401-5.632,37.686,16.145c0,0-9.044,6.635-15.98,8.76"/>
</svg>
