<?xml version="1.0" encoding="utf-8"?>
<!-- Generator: Adobe Illustrator 17.0.0, SVG Export Plug-In . SVG Version: 6.00 Build 0)  -->
<!DOCTYPE svg PUBLIC "-//W3C//DTD SVG 1.1//EN" "http://www.w3.org/Graphics/SVG/1.1/DTD/svg11.dtd">
<svg version="1.1" id="图层_1" xmlns="http://www.w3.org/2000/svg" xmlns:xlink="http://www.w3.org/1999/xlink" x="0px" y="0px"
	 width="180.197px" height="222.465px" viewBox="0 0 180.197 222.465" enable-background="new 0 0 180.197 222.465"
	 xml:space="preserve">
<radialGradient id="SVGID_1_" cx="100.1509" cy="153.8695" r="52.6627" gradientUnits="userSpaceOnUse">
	<stop  offset="0" style="stop-color:#FFDECC"/>
	<stop  offset="0.5179" style="stop-color:#F9DCC0"/>
	<stop  offset="1" style="stop-color:#FCEBCE"/>
</radialGradient>
<path fill="url(#SVGID_1_)" d="M81.134,165.344c0,0,0.877,14.592-5.378,24.6s7.08,25.878,38.354,19.874s1.158-24.459,5.357-38.969
	C123.665,156.337,81.134,165.344,81.134,165.344z"/>
<path fill="#F9E7CB" d="M114.114,44.968c0,0,0.966-15.95,26.595-26.212s29.417-1.602,26.859,18.005
	c-2.558,19.607-22.663,31.048-38.259,33.125C113.712,71.962,114.114,44.968,114.114,44.968z"/>
<path fill="#F9E7CB" d="M68.288,55.042c0,0,1.352-23.364-28.751-40.364S11.923,20.851,12.05,31.242
	c0.127,10.391,9.166,45.373,38.198,44.52S68.288,55.042,68.288,55.042z"/>
<path fill="#FFBD99" d="M121.457,50.936c0,0-0.237-7.836,14.315-15.982c14.565-8.153,18.696-0.814,16.239,10.886
	c-3.069,14.617-13.702,18.772-23.132,20.027S121.457,50.936,121.457,50.936z"/>
<path fill="#FFBD99" d="M63.721,56.35c0,0,0.762-13.168-16.205-22.75s-15.564,3.48-15.492,9.336
	c0.071,5.856,5.166,25.573,21.529,25.092C69.916,67.547,63.721,56.35,63.721,56.35z"/>
<path fill="#FCEBCE" d="M134.158,62.261c-16.171-29.022-67.415-28.679-83.856,4.219c-6.963,13.932-5.156,21.89-8.316,33.058
	c-5.956,21.045-7.756,38.028,1.374,48.536c9.045,10.41,27.897,17.039,35.403,22.517c9.257,6.755,39.05,14.806,57.543-4.754
	c20.515-21.699,34.526-36.299,20.265-62.797C148.735,88.48,144.465,80.757,134.158,62.261z"/>
<radialGradient id="SVGID_2_" cx="27.7937" cy="148.7352" r="59.8461" gradientUnits="userSpaceOnUse">
	<stop  offset="0" style="stop-color:#FFDECC"/>
	<stop  offset="0.2546" style="stop-color:#F9DCC0"/>
	<stop  offset="1" style="stop-color:#FCEBCE"/>
</radialGradient>
<path fill="url(#SVGID_2_)" d="M41.986,99.539c-5.956,21.045-7.756,38.028,1.374,48.536c9.045,10.41,27.897,17.039,35.403,22.517
	c3.91,2.853,18.313-27.391,10.543-43.935C78.681,104.031,43.812,93.087,41.986,99.539z"/>
<radialGradient id="SVGID_3_" cx="166.3167" cy="144.622" r="52.9608" gradientUnits="userSpaceOnUse">
	<stop  offset="0" style="stop-color:#FFDECC"/>
	<stop  offset="0.2546" style="stop-color:#F9DCC0"/>
	<stop  offset="1" style="stop-color:#FCEBCE"/>
</radialGradient>
<path fill="url(#SVGID_3_)" d="M136.306,165.838c20.515-21.699,34.526-36.299,20.265-62.797
	c-3.894-7.236-42.395,8.021-48.794,27.868C101.299,151.004,127.003,175.678,136.306,165.838z"/>
<path fill="#57301B" d="M60.514,122.94c6.21,0.619,11.797,0.33,18.238-2.744c4.182-1.996,1.809-5.549-2.338-3.185
	c-3.89,2.217-7.696,3.291-16.406,2.828c-7.562-0.402-13.469-3.297-15.737-6.255c-0.596-0.778-1.803-0.328-0.851,1.142
	C44.978,117.132,48.727,121.765,60.514,122.94z"/>
<path fill="#57301B" d="M140.951,118.881c-7.587,1.58-13.398-0.88-15.365-2.804c-1.945-1.903-0.781-4.07,1.291-2.819
	c3.914,2.364,8.584,3.641,14.02,2.501c6.253-1.311,10.888-4.442,12.9-7.923c0.504-0.871,1.731-0.487,0.986,1.063
	C152.85,112.919,150.047,116.986,140.951,118.881z"/>
<path fill="#57301B" d="M108.525,155.853c-7.43,0.744-18.038,2.896-16.729,8.844c1.643,7.468,12.348,7.83,18.212,7.411
	c5.864-0.42,15.47-2.793,15.455-11.486C125.453,154.973,113.113,155.394,108.525,155.853z"/>
<path fill="#F7CC9D" d="M67.337,69.546c1.597,7.188,5.161,8.651,9.705,9.527c5.591,1.078,8.982-4.098,10.793-6.366
	c0,0,3.389,7.252,8.599,9.112c5.556,1.984,9.378,0.256,11.539-3.304c1.31-2.158,1.1-5.99,1.1-5.99s4.423,5.083,11.417,3.534
	c4.165-0.923,4.652-4.477,5.035-6.873c0.382-2.395-0.448-4.736-0.448-4.736s4.652,5.216,3.093,10.988
	c-1.105,4.089-4.76,6.891-9.31,6.095c-3.156-0.552-7.91-3.997-7.91-3.997s-0.552,5.441-4.402,7.89
	c-3.851,2.45-9.321,1.947-12.703-0.207c-3.382-2.155-6.336-7.154-6.336-7.154s-2.146,4.429-7.171,6.483
	c-2.965,1.212-8.428,1.16-11.564-3.808C65.618,75.738,67.337,69.546,67.337,69.546z"/>
<g id="形状_77_58_">
	<g>
		<path fill-rule="evenodd" clip-rule="evenodd" fill="#FFBD99" d="M156.3,128.533c-0.4-3.079-5.111-4.998-10.515-4.286
			c-5.403,0.712-9.459,3.777-9.054,6.856c0.405,3.079,5.111,4.998,10.521,4.285C152.655,134.677,156.705,131.611,156.3,128.533z"/>
	</g>
</g>
<g id="形状_77_56_">
	<g>
		<path fill-rule="evenodd" clip-rule="evenodd" fill="#FFBD99" d="M54.271,128.3c-5.884-0.029-10.671,2.658-10.688,6.01
			c-0.017,3.353,4.737,6.094,10.628,6.123c5.884,0.029,10.665-2.658,10.682-6.011C64.915,131.07,60.156,128.329,54.271,128.3z"/>
	</g>
</g>
</svg>
