<?xml version="1.0" encoding="utf-8"?>
<!-- Generator: Adobe Illustrator 17.0.0, SVG Export Plug-In . SVG Version: 6.00 Build 0)  -->
<!DOCTYPE svg PUBLIC "-//W3C//DTD SVG 1.1//EN" "http://www.w3.org/Graphics/SVG/1.1/DTD/svg11.dtd">
<svg version="1.1" id="图层_1" xmlns="http://www.w3.org/2000/svg" xmlns:xlink="http://www.w3.org/1999/xlink" x="0px" y="0px"
	 width="180.197px" height="222.465px" viewBox="0 0 180.197 222.465" enable-background="new 0 0 180.197 222.465"
	 xml:space="preserve">
<radialGradient id="SVGID_1_" cx="-296.791" cy="165.8141" r="54.5408" gradientTransform="matrix(-0.9917 0.1282 0.1282 0.9917 -243.1134 22.4372)" gradientUnits="userSpaceOnUse">
	<stop  offset="0" style="stop-color:#FFDECC"/>
	<stop  offset="0.5179" style="stop-color:#F9DCC0"/>
	<stop  offset="1" style="stop-color:#FCEBCE"/>
</radialGradient>
<path fill="url(#SVGID_1_)" d="M92.998,167.082c0,0,1.001,14.584,8.487,23.707c7.486,9.123-4.698,32.747-35.489,24.627
	c-33.271-8.774-4.284-24.108-10.308-37.961C49.663,163.602,92.998,167.082,92.998,167.082z"/>
<path fill-rule="evenodd" clip-rule="evenodd" fill="#FCEBCE" d="M128.661,94.378c0,0,34.588-2.914,40.78-27.989
	c10.758-43.564-7.526-42.243-24.268-36.809c-20.51,6.657-32.785,17.75-40.78,39.422C94.101,96.9,128.661,94.378,128.661,94.378z"/>
<path fill-rule="evenodd" clip-rule="evenodd" fill="#FCEBCE" d="M71.917,65.447c0,0,6.707-35.617-23.601-49.627
	C14.117,0.01,16.578,24.576,21.081,43.09c3.902,16.043,12.432,21.513,32.759,30.987S71.917,65.447,71.917,65.447z"/>
<path fill-rule="evenodd" clip-rule="evenodd" fill="#FFBD99" d="M122.214,87.186c0,0,24.08-0.463,30.303-17.817
	c6.223-17.353,1.304-24.209-11.342-20.355c-15.492,4.721-21.829,11.584-27.871,26.946C105.526,95.736,122.214,87.186,122.214,87.186
	z"/>
<path fill-rule="evenodd" clip-rule="evenodd" fill="#FFBD99" d="M63.773,60.44c0,0,6.339-13.808-11.812-26.824
	s-21.656,1.931-17.873,15.188c4.727,16.563,20.234,18.236,27.844,18.508C77.53,67.868,63.773,60.44,63.773,60.44z"/>
<path fill-rule="evenodd" clip-rule="evenodd" fill="#FCEBCE" d="M88.881,54.348c-45.507-4.253-47.108,29.697-64.048,46.034
	c-12.551,12.105-22.755,25.675-14.051,47.536c3.525,8.853,7.45,11.492,16.876,23.114c15.142,18.67,44.576,14.491,54.467,11.507
	c12.802-3.862,12.802-3.862,25.269-7.852c19.118-6.118,39.279-19.014,26.77-77.724C127.993,67.998,105.113,55.865,88.881,54.348z"/>
<radialGradient id="SVGID_2_" cx="11.3285" cy="136.7237" r="40.6378" gradientUnits="userSpaceOnUse">
	<stop  offset="0" style="stop-color:#FFDECC"/>
	<stop  offset="0.2546" style="stop-color:#F9DCC0"/>
	<stop  offset="1" style="stop-color:#FCEBCE"/>
</radialGradient>
<path fill-rule="evenodd" clip-rule="evenodd" fill="url(#SVGID_2_)" d="M24.834,100.383
	c-12.551,12.105-22.755,25.675-14.051,47.536c3.525,8.853,7.45,11.492,16.876,23.114c7.719,9.517,28.275-14.03,27.625-36.499
	C54.658,112.926,33.138,92.374,24.834,100.383z"/>
<radialGradient id="SVGID_3_" cx="129.3559" cy="167.1664" r="60.4877" fx="130.7952" fy="167.8219" gradientUnits="userSpaceOnUse">
	<stop  offset="0" style="stop-color:#FFDECC"/>
	<stop  offset="0.2546" style="stop-color:#F9DCC0"/>
	<stop  offset="1" style="stop-color:#FCEBCE"/>
</radialGradient>
<path fill-rule="evenodd" clip-rule="evenodd" fill="url(#SVGID_3_)" d="M81.887,182.54c12.802-3.862,12.802-3.862,25.269-7.852
	c19.118-6.118,39.279-19.014,26.77-77.724c-2.987-14.018-41.972,9.2-55.124,33.536C64.776,156.453,76.783,184.08,81.887,182.54z"/>
<path fill="#F7CC9D" d="M119.617,85.523c-2.975,7.855-7.149,8.945-12.3,9.218c-6.34,0.337-9.198-6.032-10.808-8.874
	c0,0-4.96,7.645-11.012,8.924c-6.454,1.365-10.371-1.184-12.149-5.539c-1.077-2.639-0.197-6.927-0.197-6.927
	s-5.732,5.037-13.171,2.192c-4.431-1.695-4.366-5.78-4.382-8.541c-0.015-2.761,1.296-5.271,1.296-5.271s-6.006,5.151-5.266,11.904
	c0.525,4.784,4.075,8.518,9.221,8.335c3.569-0.127,9.388-3.265,9.388-3.265s-0.314,6.222,3.512,9.588
	c3.827,3.368,9.935,3.66,14.025,1.762c4.09-1.898,8.189-7.072,8.189-7.072s1.614,5.331,6.8,8.437
	c3.06,1.832,9.086,2.632,13.38-2.478C120.463,92.775,119.617,85.523,119.617,85.523z"/>
<path fill="#57301B" d="M103.681,146.442c-13.502-1.238-13.66-15.239-13.483-18.101c0.219-3.541,2.565-4.775,2.839-1.309
	c0.403,5.106,0.629,14.302,10.645,15.476c9.852,1.155,13.133-10.492,14.874-13.59c0.457-0.814,2.007-3.191,1.597,0.542
	C119.712,133.481,115.412,147.518,103.681,146.442z"/>
<path fill="#57301B" d="M31.39,128.132c11.754,5.238,17.278-8.244,18.079-11.009c0.792-2.735-0.128-3.929-1.99-0.973
	c-2.989,4.745-5.392,11.313-13.478,9.406c-8.453-1.993-7.532-13.055-7.269-16.601c0.23-3.096-1.272-2.61-1.833-0.519
	C23.848,112.356,22.268,124.067,31.39,128.132z"/>
<g id="形状_77_30_">
	<g>
		<path fill-rule="evenodd" clip-rule="evenodd" fill="#FFBD99" d="M111.106,154.064c-5.167-1.505-10.052-0.347-10.91,2.596
			c-0.858,2.944,2.632,6.55,7.805,8.057c5.167,1.505,10.047,0.346,10.905-2.598C119.769,159.178,116.274,155.57,111.106,154.064z"/>
	</g>
</g>
<path fill="#57301B" d="M51.501,157.096c8.265,1.906,20.484,5.887,17.316,11.776c-3.442,6.399-12.824,8.181-21.921,4.968
	c-6.304-2.226-14.343-8.536-13.272-14.52C34.978,151.752,46.397,155.919,51.501,157.096z"/>
<g id="形状_77_28_">
	<g>
		<path fill-rule="evenodd" clip-rule="evenodd" fill="#FFBD99" d="M22.488,132.148c-5.09-1.749-10.026-0.816-11.017,2.085
			c-0.996,2.9,2.323,6.661,7.412,8.41c5.096,1.75,10.026,0.816,11.022-2.084S27.578,133.897,22.488,132.148z"/>
	</g>
</g>
<path fill-rule="evenodd" clip-rule="evenodd" fill="#875038" d="M103.646,109.969c-0.521,1.771-0.382,2.619,0.4,2.807
	c0.939,0.226,1.352-0.626,1.602-1.404s2.221-4.625,4.403-4.374c2.182,0.25,3.066,3.726,3.19,4.363
	c0.134,0.686,0.015,2.581,1.413,2.611c1.159,0.025,1.251-1.446,1.001-2.6c-0.25-1.153-1.242-5.782-4.749-6.532
	S104.428,107.313,103.646,109.969z"/>
<path fill-rule="evenodd" clip-rule="evenodd" fill="#875038" d="M40.738,91.438c-0.919,1.601-0.981,2.458-0.264,2.823
	c0.861,0.438,1.46-0.295,1.884-0.993c0.424-0.699,3.236-3.981,5.3-3.231c2.064,0.751,2.116,4.337,2.088,4.985
	c-0.03,0.698-0.585,2.514,0.767,2.868c1.121,0.294,1.553-1.116,1.578-2.296c0.025-1.18,0.136-5.912-3.1-7.457
	S42.116,89.037,40.738,91.438z"/>
</svg>
