<?xml version="1.0" encoding="utf-8"?>
<!-- Generator: Adobe Illustrator 17.1.0, SVG Export Plug-In . SVG Version: 6.00 Build 0)  -->
<!DOCTYPE svg PUBLIC "-//W3C//DTD SVG 1.1//EN" "http://www.w3.org/Graphics/SVG/1.1/DTD/svg11.dtd">
<svg version="1.1" id="图层_1" xmlns="http://www.w3.org/2000/svg" xmlns:xlink="http://www.w3.org/1999/xlink" x="0px" y="0px"
	 viewBox="0 0 265.7 467.7" style="enable-background:new 0 0 265.7 467.7;" xml:space="preserve">
<rect x="5.7" y="4.3" style="fill:#FFFFFF;stroke:#D8D8D8;stroke-miterlimit:10;" width="254.7" height="459"/>
<g>
	<defs>
		<rect id="SVGID_1_" x="70" y="4.5" width="190.5" height="458.7"/>
	</defs>
	<clipPath id="SVGID_2_">
		<use xlink:href="#SVGID_1_"  style="overflow:visible;"/>
	</clipPath>
	<g id="形状_13_43_" style="clip-path:url(#SVGID_2_);">
		<g>
			<path style="fill:#FF9B48;" d="M220.3,302.2c0,0-22.1,9.5-44,31.1c-28.5,25.7-44.1,40.6-57.4,44.5c-2.2,1.1-9.9,3.7-15,5
				c-6.7,1.7-13.6,1.7-15.8,4.2c-1.1,1.2-0.5,3.2,0.6,4.1c1.1,0.9,4.6,0.9,4.6,0.9s-9.7,2.9-6.2,8.9c3.2,5.5,25.3-10,26.2-3.2
				c0.5,3.7-11.7,6.5-6,11c2.6,2,11.4-3.1,17.5-8.5c4.5-4,8.7-10.9,22.5-20.4c11.2-7.7,32.1-20.2,54.4-29.5
				C251.5,329.5,220.3,302.2,220.3,302.2z"/>
		</g>
	</g>
	<g id="形状_14_43_" style="clip-path:url(#SVGID_2_);">
		<g>
			<path style="fill:#CC7123;" d="M103.2,386.4c-1.1,1-3.8,2.6-5.1,3.4c-2.7,1.6-5.1,2.2-5.1,2.2s0.7,0.2,1.8-0.1
				c3.2-0.9,7.4-2.7,9.3-4.3C105.5,386.4,104.7,384.9,103.2,386.4z"/>
		</g>
	</g>
	<g id="形状_13_41_" style="clip-path:url(#SVGID_2_);">
		<g>
			<path style="fill-rule:evenodd;clip-rule:evenodd;fill:#FF9B48;" d="M391.9,392c0,0,3.6,0,4.6-0.9c1.1-0.9,1.7-2.9,0.6-4.1
				c-2.2-2.5-9.1-2.5-15.8-4.2c-5.1-1.3-12.8-3.9-15-5c-13.3-3.9-28.9-18.8-57.4-44.5C287,311.7,263.3,302,263.3,302
				s-29.7,27.5,20.1,48.3c22.3,9.3,43.2,21.8,54.4,29.5c13.8,9.5,18,16.4,22.5,20.4c6.1,5.5,15,10.6,17.5,8.5c5.8-4.5-6.5-7.3-6-11
				c1-6.8,23,8.7,26.2,3.2C401.6,394.9,391.9,392,391.9,392z"/>
		</g>
	</g>
	<g id="形状_14_41_" style="clip-path:url(#SVGID_2_);">
		<g>
			<path style="fill-rule:evenodd;clip-rule:evenodd;fill:#CC7123;" d="M405.6,389.7c-1.3-0.8-4-2.4-5.1-3.4c-1.5-1.5-2.3,0-0.8,1.3
				c1.9,1.6,6,3.4,9.3,4.3c1.1,0.3,1.8,0.1,1.8,0.1S408.3,391.3,405.6,389.7z"/>
		</g>
	</g>
	
		<radialGradient id="SVGID_3_" cx="246.3777" cy="351.8843" r="103.0194" gradientTransform="matrix(1 0 0 0.9295 0 24.7924)" gradientUnits="userSpaceOnUse">
		<stop  offset="0" style="stop-color:#FFC07D"/>
		<stop  offset="0.5713" style="stop-color:#FEB162"/>
		<stop  offset="1" style="stop-color:#FEA852"/>
	</radialGradient>
	<path style="clip-path:url(#SVGID_2_);fill-rule:evenodd;clip-rule:evenodd;fill:url(#SVGID_3_);" d="M397.6,589.2
		c-14.9,5.3-45.7,3.3-63.3,2.5c-18.4-0.8-57.6-6.4-64.9-8.4c-15.5-4.3-6.7-13.8-5.2-20.8c1.5-7.1,2.3-14.2,1.9-22
		c-0.1-2.6-0.3-7.4-4.8-7.2c-4.9,1.5-9.5,2.3-13.8,2.7c0,0-0.1,0-0.1,0c-0.3,0-0.7,0.1-1,0.1c-0.2,0-0.5,0-0.7,0.1
		c-0.2,0-0.4,0-0.7,0c-0.3,0-0.7,0-1,0c-0.2,0-0.3,0-0.5,0c-0.3,0-0.7,0-1,0c-0.2,0-0.4,0-0.5,0c-0.3,0-0.5,0-0.8,0
		c-0.3,0-0.5,0-0.8,0c-0.2,0-0.4,0-0.5,0c-0.3,0-0.7,0-1,0c-0.2,0-0.3,0-0.5,0c-0.3,0-0.7,0-1,0c-0.2,0-0.4,0-0.7,0
		c-0.2,0-0.5,0-0.7-0.1c-0.3,0-0.7-0.1-1-0.1c0,0-0.1,0-0.1,0c-4.3-0.4-8.9-1.3-13.8-2.7c-4.5-0.2-4.7,4.6-4.8,7.2
		c-0.4,7.7,0.4,14.8,1.9,22c1.5,6.9,10.3,16.5-5.2,20.8c-7.3,2-50.2,7.4-68.7,8.6c-19.8,1.3-52.5,1.5-61.9-2.5
		c-5.2-2.2-5.4-15.5,8.6-22.6c17.6-9,90.6-5,95.5-5.3c10.2-0.7,8.2-3.9,8.3-9.1c0.2-9.6-7.7-14.5-14.4-18.7
		c-6.7-4.2-40.3-19-40.3-51.6c0-16.8,4.6-39.4,26.3-71.6c52.7-78.4,54.7-122.1,54.7-122.1l4.3-0.2c0.2-0.8,0.2-1.3,0.2-1.3l15.7,0.6
		l15.7-0.6c0,0,0.1,0.4,0.2,1.3l4.3,0.2c0,0,1.9,43.7,54.7,122.1c21.7,32.2,26.3,54.8,26.3,71.6c0,32.6-33.5,47.4-40.3,51.6
		c-6.7,4.2-14.6,9.1-14.4,18.7c0.1,5.1-1.6,9.7,8.6,9.9c4.8,0.1,77.6-4.5,95.2,4.5C405.4,573.9,402.9,587.3,397.6,589.2z"/>
	<path style="clip-path:url(#SVGID_2_);fill-rule:evenodd;clip-rule:evenodd;fill:#DD7528;" d="M119.2,572.5
		c-15.3,4.1-13.5,11.1-11.3,16.9c0.3,0.7,0.6,1.4,1,2c0.9,0.1,1.8,0.2,2.8,0.3c-5.3-12.2,2.3-16,9.1-18.3
		C123.8,572.3,121.3,571.9,119.2,572.5z"/>
	<path style="clip-path:url(#SVGID_2_);fill-rule:evenodd;clip-rule:evenodd;fill:#DD7528;" d="M120,571.9
		c-13.1,2.9-11.1,13.9-9.1,19.2c0.2,0.6,0.5,1.1,0.7,1.6c0.8,0,1.7,0,2.5,0c-3.7-11.2,1.1-16,4.9-18.6
		C121.1,572.6,124.6,570.8,120,571.9z"/>
	<path style="clip-path:url(#SVGID_2_);fill-rule:evenodd;clip-rule:evenodd;fill:#DD7528;" d="M407.1,591.3c0.2-0.5,0.4-1,0.6-1.6
		c1.7-5.5-0.1-15.4-10.9-18.1c-5.9-1.5-3.3,1.2-0.7,2.1c6.4,2.1,9.7,9.7,6.8,18.2C404.3,591.7,405.7,591.5,407.1,591.3z"/>
	<path style="clip-path:url(#SVGID_2_);fill-rule:evenodd;clip-rule:evenodd;fill:#DD7528;" d="M369.2,591.2
		c3.1-6.8,0.4-16.9-7-19.8c-2.9-0.7-0.2,1.9,1.9,4c2.8,3,4.3,10.1,1.8,15.5c-0.4,0.8-0.6,1.3-0.8,1.8c1.1,0,2.1,0,3.2,0
		C368.6,592.3,368.9,591.8,369.2,591.2z"/>
	<g id="形状_12_21_" style="clip-path:url(#SVGID_2_);">
		<g>
			<linearGradient id="SVGID_4_" gradientUnits="userSpaceOnUse" x1="241.6969" y1="441.9666" x2="240.095" y2="297.7931">
				<stop  offset="0" style="stop-color:#FFC28A"/>
				<stop  offset="0.7938" style="stop-color:#FFCD9F"/>
				<stop  offset="1" style="stop-color:#FFD0A5"/>
			</linearGradient>
			<path style="fill-rule:evenodd;clip-rule:evenodd;fill:url(#SVGID_4_);" d="M266,347.3c-11-17.9-38.1-16.1-48.8,1.4
				c-12.9,21.1-28.6,78.3-17.5,110.9c9.1,26.9,73,28.6,82.9,2.9C295.9,427.9,277.6,366.3,266,347.3z"/>
		</g>
	</g>
	<path style="opacity:0.6;clip-path:url(#SVGID_2_);fill-rule:evenodd;clip-rule:evenodd;fill:#DD7528;" d="M166.5,430.6
		c0,0,29.6,7.4,77.2,7.4c44.8,0,53.2-2.6,76.7-8C321.1,430.6,248,557.6,166.5,430.6z"/>
	<g id="形状_11_拷贝_2_21_" style="clip-path:url(#SVGID_2_);">
		<g>
			<path style="fill-rule:evenodd;clip-rule:evenodd;fill:#FFBF80;" d="M318.5,430.6c-0.6,0.3-1.3,0.6-2,0.9
				c-21.8,9.7-47.6,12.8-67.8,13.4c-19.9,0.1-49.4-1.6-73.6-11.3c-2.1-0.8-5.1-1.9-7.2-2.8c-5.5-2.7-6.7,4.3-6.6,8.3
				c0.3,17.4,4.2,72.5,54.1,91.1c2,1.3,8.1,4.3,20.6,5.1c4,0.7,8.7,0.5,13.2-0.1c0.5,0,1-0.1,1.5-0.1c7.5-0.8,14.2-2.6,20.3-5.2
				c0.4-0.1,0.6-0.2,0.6-0.2v0c37.9-16.8,48.7-65.2,51.7-88.9c0.2-1.8,0.3-3.4,0.5-4.8C324.6,429.8,320.4,429.6,318.5,430.6z"/>
		</g>
	</g>
	<path style="opacity:0.6;clip-path:url(#SVGID_2_);fill-rule:evenodd;clip-rule:evenodd;fill:#DD7528;" d="M261.2,288.4
		c-5.8,3.5-13.8,8.2-18.3,8.9c-6.8,1-14.3-0.1-21.9-8.8c0,0.6-0.3,3.6-1.3,8.8c2.2,7,6.9,14.4,16.9,15.6
		c11.8,1.4,20.6-8.1,25.9-16.4c-1-5.4-1.1-8.2-1.1-8.2L261.2,288.4z"/>
	<g id="形状_9_21_" style="clip-path:url(#SVGID_2_);">
		<g>
			<path style="fill-rule:evenodd;clip-rule:evenodd;fill:#FFC07D;" d="M220.1,155.6c-25-55.1-63.4-76.4-63.4-76.4
				s-9.9-6.3-11.3,0.6c-14.8,86.4,53.8,105.6,53.8,105.6S245.2,210.7,220.1,155.6z"/>
		</g>
	</g>
	<g id="形状_10_21_" style="clip-path:url(#SVGID_2_);">
		<g>
			<path style="fill-rule:evenodd;clip-rule:evenodd;fill:#FF9B48;" d="M212.3,168.3c-9.5-42.4-44.8-57-44.8-57s-7.4-5.2-7.5,2
				c2.9,54.4,48.3,63.1,48.3,63.1S214.4,178.2,212.3,168.3z"/>
		</g>
	</g>
	<g id="形状_9_拷贝_21_" style="clip-path:url(#SVGID_2_);">
		<g>
			<path style="fill:#FFC07D;" d="M340.5,79.7c-1.4-6.8-11.3-0.6-11.3-0.6s-38.4,21.2-63.4,76.4c-25.1,55.1,20.9,29.8,20.9,29.8
				S355.2,166,340.5,79.7z"/>
		</g>
	</g>
	<g id="形状_10_拷贝_21_" style="clip-path:url(#SVGID_2_);">
		<g>
			<path style="fill:#FF9B48;" d="M318.5,111.2c0,0-35.4,14.6-44.9,57c-2.1,9.8,4.1,8.1,4.1,8.1s45.4-8.6,48.4-63.1
				C325.9,106,318.5,111.2,318.5,111.2z"/>
		</g>
	</g>
	<g id="脸_43_" style="clip-path:url(#SVGID_2_);">
		<g>
			
				<radialGradient id="SVGID_5_" cx="243.0841" cy="294.6233" r="66.536" gradientTransform="matrix(0.9999 1.315258e-02 -9.151512e-03 0.6957 2.7173 86.4461)" gradientUnits="userSpaceOnUse">
				<stop  offset="0" style="stop-color:#FECD97"/>
				<stop  offset="1" style="stop-color:#FFC07A"/>
			</radialGradient>
			<path style="fill:url(#SVGID_5_);" d="M293.8,204.7c-2.5-7.8-4.8-19.2-8.1-28.6c-7.4-21.3-24.5-28.3-42.7-28
				c-18.4,0.3-35.8,8.1-42.8,28.1c-3.3,9.4-5.3,20.8-7.8,28.6c-2.5,7.9-7.9,41.4,5.8,62.2c-0.1,0.1,5.9,7.3,16.8,18.2
				c9,9,14.1,16.4,25.5,17.1c0.1,0,0.1,0,0.2,0c0.1,0,0.2,0,0.2,0c0.9,0,1.9,0,2.9,0c0.2,0,0.4,0,0.5-0.1c14.2-1,18.9-9.9,27.8-17.9
				c11.5-10.3,15.9-17.3,15.8-17.5C301.7,246.1,296.3,212.6,293.8,204.7z"/>
		</g>
	</g>
	<path style="clip-path:url(#SVGID_2_);fill-rule:evenodd;clip-rule:evenodd;fill:#66361F;" d="M242.4,211.4
		c-0.2,0.1,19.9-5.8,28.5-27.5c-0.1-0.5,9.1,16.3,23.5,22.9c-0.2-0.8-0.4-1.6-0.6-2.2c-2.2-9.4-4.1-18.4-7.4-27.9
		c-7.4-21.3-25.2-29.1-43.4-28.8c-18.4,0.3-35.8,8.1-42.8,28.1c-3.3,9.4-6.2,21.6-7.8,28.6c-0.1,0.3-0.2,0.8-0.3,1.2
		c4.9-0.8,13.7-4.6,22-21C213.6,185,217.9,199.5,242.4,211.4z"/>
	<path style="clip-path:url(#SVGID_2_);fill-rule:evenodd;clip-rule:evenodd;fill:#E5432E;" d="M291.2,195.5
		c-0.9-3.6-1.9-7.4-3-11.2c-7.1-9.3-21.8-24-44.7-23.8c-26.4,0.2-39.3,14.3-45.8,23.4c-0.9,3.5-1.8,7-2.6,10.4
		c6.2-6.5,22.7-20.6,48.4-20.5C266.5,173.9,282.8,187.6,291.2,195.5z"/>
	<g id="形状_3_拷贝_21_" style="clip-path:url(#SVGID_2_);">
		<g>
			<path style="fill-rule:evenodd;clip-rule:evenodd;fill:#E5432E;" d="M290.4,91.9c-0.8-1.3-1.8-1-2.6-0.6
				c-32,14.9-41.8,43.1-44.7,57.2c-4.1-17-15.7-43.2-44.9-57.5c-1.2-0.6-2.6-0.9-3.2,1.2c0,0-10.4,47.3,37.7,71.5
				c-9.9,7.6-20.5,17.4,10.2,4.6c33.3,14,19.6,2.6,10-4.5C301,139.6,290.4,91.9,290.4,91.9z"/>
		</g>
	</g>
	<g id="形状_73_21_" style="clip-path:url(#SVGID_2_);">
		<g>
			<path style="fill-rule:evenodd;clip-rule:evenodd;fill:#AD4023;" d="M241.5,142.9c0,0-2.1,4.9-1.8,10.9c0.3,7,2.1,10.4,2.2,7.7
				c0.1-1.9,0.9-9.1,1.4-12.9C243.4,147.4,241.5,142.9,241.5,142.9z"/>
		</g>
	</g>
	<g id="形状_82_21_" style="clip-path:url(#SVGID_2_);">
		<g>
			<path style="fill-rule:evenodd;clip-rule:evenodd;fill:#CA4825;" d="M263.5,164.5c-1.3-0.6-6.4-2.9-7.2-2.3
				c-4.5,2.8-9.2,7.6-2.7,6C258.2,167,264.9,165.1,263.5,164.5z M230,162.3c-1.7-0.5-7.5,2-7.5,2s2.2,1.2,4.9,1.9
				c2.7,0.7,8.5,2.9,8.1,1.2C235,165.7,232.5,163,230,162.3z"/>
		</g>
	</g>
	<path style="clip-path:url(#SVGID_2_);fill-rule:evenodd;clip-rule:evenodd;fill:#FFCE99;" d="M222,236.3
		c-5.4-13.4-13.8-16.3-19.5-15.3c-10.8,1.9-12.2,7.4-12.1,7.1c0.1-0.3-0.2-9.7,8.9-12c8.3-2.1,16.7,1.3,20.3,7
		c3.3,5.2,3,13.1,3,13.1"/>
	<path style="clip-path:url(#SVGID_2_);fill-rule:evenodd;clip-rule:evenodd;fill:#FFCE99;" d="M263.3,236.3
		c5.4-13.4,13.8-16.3,19.5-15.3c10.8,1.9,12.2,7.4,12.1,7.1c-0.1-0.3,0.2-9.7-8.9-12c-8.3-2.1-16.7,1.3-20.3,7
		c-3.3,5.2-3,13.1-3,13.1"/>
	<g id="形状_4_43_" style="clip-path:url(#SVGID_2_);">
		<g>
			<path style="fill:#FFFFFF;" d="M209.1,222.1c-4.4-2-13.6-1.1-17.3,2c0,0-5.4,22.5,14.3,24.5c9.8,0.4,15.5-4.8,16.4-10.4
				C223.5,232.2,214.2,224.5,209.1,222.1z"/>
		</g>
	</g>
	<g id="形状_6_43_" style="clip-path:url(#SVGID_2_);">
		<g>
			<path style="fill-rule:evenodd;clip-rule:evenodd;fill:#512A15;" d="M218.7,227.4c0-0.1-5-6.9-11.7-8.5c-2.4-0.6-7.8,0.7-7.8,0.7
				s-8,6.5-2,17.6c3.5,5.8,9,8.3,13.9,7.7c6-0.7,9.5-4.9,9.9-9.6C221.5,230.6,218.7,227.4,218.7,227.4z"/>
		</g>
	</g>
	<g id="形状_48_21_" style="clip-path:url(#SVGID_2_);">
		<g>
			<path style="fill:#FFFFFF;" d="M202.6,235.7c-0.3-1.8-6.1-2-7.3,0.4c-0.9,1.8,0.1,3.9,1.5,4.2C199.7,241,203.1,238.3,202.6,235.7
				z"/>
		</g>
	</g>
	<g id="形状_36_副本_43_" style="clip-path:url(#SVGID_2_);">
		<g>
			<path style="fill-rule:evenodd;clip-rule:evenodd;fill:#A85726;" d="M216.3,209.1c-7.2-3.1-14.8-2.1-13.6,1
				c0.5,1.2,4.2-1,10.1,0.9c8.1,2.6,7.7,7.1,9.7,6.6C225.8,216.6,220.4,210.8,216.3,209.1z"/>
		</g>
	</g>
	<g id="形状_4_41_" style="clip-path:url(#SVGID_2_);">
		<g>
			<path style="fill:#FFFFFF;" d="M294.2,224.2c-3.6-3.1-12.7-3.7-17.3-2c-10.6,3.9-14.4,10.1-13.4,16.1c0.9,5.6,6.6,10.8,16.4,10.4
				C299.6,246.7,294.2,224.2,294.2,224.2z"/>
		</g>
	</g>
	<g id="形状_6_41_" style="clip-path:url(#SVGID_2_);">
		<g>
			<path style="fill-rule:evenodd;clip-rule:evenodd;fill:#512A15;" d="M287.3,220.7c0,0-4.5-1.2-6.9-0.6
				c-6.7,1.6-12.1,5.7-12.1,5.8c0,0-2,7.4-0.8,10.5c2.3,5.8,4.2,8.3,10.2,8.6c4.9,0.2,10.5-1.7,12.6-8.7
				C292.8,228,287.3,220.7,287.3,220.7z"/>
		</g>
	</g>
	<g id="形状_48_副本_21_" style="clip-path:url(#SVGID_2_);">
		<g>
			<path style="fill:#FFFFFF;" d="M273.2,236.5c-1.3-2.4-6.6,0.5-6.9,2.3c-0.4,3,1.1,3.7,3.4,3.1
				C272.3,241.2,274.4,238.7,273.2,236.5z"/>
		</g>
	</g>
	<g id="形状_36_副本_41_" style="clip-path:url(#SVGID_2_);">
		<g>
			<path style="fill-rule:evenodd;clip-rule:evenodd;fill:#A85726;" d="M269.9,209c-4.1,1.7-9.5,6.5-7.2,8.1
				c2.2,1.5,3.6-3.6,9.3-5.5c7.2-2.4,12.3,0.3,12.7-1.6C285.2,207.3,277.1,206.1,269.9,209z"/>
		</g>
	</g>
	<g id="Shape_2_43_" style="clip-path:url(#SVGID_2_);">
		<g>
			<path style="fill-rule:evenodd;clip-rule:evenodd;fill:#9C6342;" d="M291.9,243.6c2-3,2.3-6,1.7-4.9c-1.3,2.6-3,5.7-7,7.5
				c-3.7,1.7-8.2,1.8-11.2,1.9c-2.7,0,5.4,2,11.2-0.2c0.4,0.1,1,0.4,1.7,0.7c0.8,0.4,2.2,1.4,2.1,0.8c-0.1-1-0.6-2.2-1.4-2.9
				c0.6-0.4,1.1-0.9,1.6-1.3c0.2,0,0.5,0.1,0.9,0.1c1.2,0.2,2.4,1.6,2.4,0.9C293.8,245.5,293,244.3,291.9,243.6z"/>
		</g>
	</g>
	<g id="形状_65_副本_43_" style="clip-path:url(#SVGID_2_);">
		<g>
			<path style="fill-rule:evenodd;clip-rule:evenodd;fill:#713D1F;" d="M301.8,221.6c-0.3,0.6-1.6,1.8-2.9,2.4
				c-1.1,0.5-2.8,0.9-4.4,0.5c0-0.1-0.1-0.2-0.1-0.3c-1.1-2.1-4.5-4.5-7.8-5.2c-5.4-1.1-10-0.4-13.9,1.4c-5.2,2.4-8.8,7.1-9.8,13.4
				c-0.5,2.7,0.2,4.3,1,1.9c1.9-5.7,3.9-8.8,9.1-11.6c4.1-2.2,9.2-3.8,16.6-0.2c2.5,1.2,4,3.8,4.4,5.6c0.2,0.6,0.8,2.8,1,1.4
				c0.1-0.7,0.2-1.4,0.2-2.1c0.5,0,1.4,0,2.7-0.5c1.1-0.4,2.8-1.7,3.6-3.2C302.4,223.2,302.5,220.4,301.8,221.6z"/>
		</g>
	</g>
	<g id="Shape_2_41_" style="clip-path:url(#SVGID_2_);">
		<g>
			<path style="fill-rule:evenodd;clip-rule:evenodd;fill:#9C6342;" d="M210.4,248.2c-3,0-7.5-0.1-11.2-1.9c-4-1.9-5.7-4.9-7-7.5
				c-0.6-1.1-0.3,1.9,1.7,4.9c-1.2,0.7-1.9,1.9-1.9,2.6c0,0.8,1.2-0.7,2.4-0.9c0.4-0.1,0.7-0.1,0.9-0.1c0.5,0.5,1,0.9,1.6,1.3
				c-0.8,0.7-1.3,1.9-1.4,2.9c-0.1,0.5,1.4-0.4,2.1-0.8c0.6-0.3,1.3-0.6,1.7-0.7C205,250.1,213.1,248.2,210.4,248.2z"/>
		</g>
	</g>
	<g id="形状_65_副本_41_" style="clip-path:url(#SVGID_2_);">
		<g>
			<path style="fill-rule:evenodd;clip-rule:evenodd;fill:#713D1F;" d="M222.5,233.8c-1.1-6.3-4.6-11-9.8-13.4
				c-3.9-1.8-8.5-2.5-13.9-1.4c-3,0.6-6,2.6-7.1,4.2c-0.2,0.3-0.4,0.8-0.6,1.2c0,0,0,0,0,0c-1.6,0.6-3.4,0.2-4.6-0.4
				c-1.3-0.6-2.6-1.8-2.9-2.4c-0.6-1.2-0.6,1.6,0.3,3.4c0.8,1.5,2.5,2.8,3.6,3.2c1.4,0.6,2.3,0.6,2.8,0.5c0,0.8,0,1.6,0.1,2.1
				c0.2,1.4,0.9-0.2,1.1-0.8c0.9-2.7,1.8-5,4.4-6.2c7.5-3.7,12.5-2,16.6,0.2c5.2,2.8,7.1,6.3,9.1,11.6
				C222.4,238.1,223,236.5,222.5,233.8z"/>
		</g>
	</g>
	<g id="腮红2_21_" style="clip-path:url(#SVGID_2_);">
		<g>
			<path style="fill-rule:evenodd;clip-rule:evenodd;fill:#FFA083;" d="M208.6,255c-7.8-0.8-11.3,1.8-11.2,4.2c0,2,2.9,5.9,10.1,6.3
				c9.1,0.5,11.7-2.5,11.8-4C219.4,259.8,218.2,256,208.6,255z"/>
		</g>
	</g>
	<g id="腮红2_副本_21_" style="clip-path:url(#SVGID_2_);">
		<g>
			<path style="fill-rule:evenodd;clip-rule:evenodd;fill:#FFA083;" d="M277.4,255c-9.6,1-10.8,4.8-10.7,6.5c0.1,1.5,2.8,4.5,11.8,4
				c7.2-0.4,10-4.3,10.1-6.3C288.7,256.8,285.2,254.2,277.4,255z"/>
		</g>
	</g>
	<path style="clip-path:url(#SVGID_2_);fill-rule:evenodd;clip-rule:evenodd;fill:#512A15;" d="M242.2,296.8
		c-4.9,0-12.8-4.5-12.2-9.5c0.5-3.9,4.5-5.3,12.2-5.3c7.8,0,11.9,1.3,12.3,5.3C255,291.8,248.5,296.8,242.2,296.8z"/>
	<g id="形状_20_21_" style="clip-path:url(#SVGID_2_);">
		<g>
			<path style="fill:#FCEACB;" d="M224,385.1c-14.8-11.5-33.1-4.1-33.1-1.2c1.2,31.2,31,28.1,31,28.1c10.4-1.2,11.6-8.4,11.6-8.4
				S233.9,392.7,224,385.1z"/>
		</g>
	</g>
	<g id="形状_21_21_" style="clip-path:url(#SVGID_2_);">
		<g>
			<path style="fill:#FFBD99;" d="M229.1,402.1c-2.1-10.7-24-14.2-23.7-9.8c1.1,17.4,20.5,15.9,20.5,15.9S229.8,407.6,229.1,402.1z"
				/>
		</g>
	</g>
	<g id="形状_20_拷贝_21_" style="clip-path:url(#SVGID_2_);">
		<g>
			<path style="fill:#FCEACB;" d="M259.7,386.4c-10.2,9.2-7.2,20.4-7.2,20.4s0.8,4.1,11.2,5.3c0,0,29.8,3.1,31-28.1
				C294.8,381.1,275.9,371.8,259.7,386.4z"/>
		</g>
	</g>
	<g id="形状_21_拷贝_21_" style="clip-path:url(#SVGID_2_);">
		<g>
			<path style="fill-rule:evenodd;clip-rule:evenodd;fill:#FFBD99;" d="M256.5,402.2c-0.7,5.5,3.2,6.1,3.2,6.1s19.5,1.5,20.6-15.9
				C280.5,388,258.5,391.5,256.5,402.2z"/>
		</g>
	</g>
	<g id="形状_23_21_" style="opacity:0.4;clip-path:url(#SVGID_2_);">
		<g>
			<path style="fill-rule:evenodd;clip-rule:evenodd;fill:#DD7528;" d="M265,446.7c-12-2.2-44.7-4.4-48.3,3.8
				c-3.6,8.1-11.9,4.1-10.1,27.3c0,0,2.8,14.7,14.4,11.8c3.5-1.4,4.9-6.1,4.8-11.1c0-4.9,2-5.1,6.4-5c10,0.3,15.4,1,22.3-3.2
				c3.8-2.3,6.2,3.1,5.6,9c-0.7,6.8,0.7,9.7,6.2,10.9c5.1,1.1,9.3-1.2,10.7-6.4c1.6-5.5,2-11.5,2-11.5S277,448.9,265,446.7z"/>
		</g>
	</g>
	<path style="clip-path:url(#SVGID_2_);fill-rule:evenodd;clip-rule:evenodd;fill:#FCEBCE;" d="M267.2,430.7c0,0,13.3,9.1,12.5,38.7
		c-0.3,10.1-5.2,15.3-10.5,14.9c-5.3-0.3-5.8-6-5-12c0.3-2.4,1-10-1.8-20.5C259.5,441.2,267.2,430.7,267.2,430.7z"/>
	<path style="clip-path:url(#SVGID_2_);fill-rule:evenodd;clip-rule:evenodd;fill:#FCEBCE;" d="M215.5,434.3c0,0-10.5,10.2-9.6,34.4
		c0.3,10.1,5.2,15.9,10.5,15.6c5.3-0.3,5.5-4.6,5.2-9.3c-0.3-4.1-1.1-10.9,1.7-21.5C225.9,442.9,215.5,434.3,215.5,434.3z"/>
	<path style="clip-path:url(#SVGID_2_);fill-rule:evenodd;clip-rule:evenodd;fill:#F6BF96;" d="M268.2,477.1
		c-0.1,2.1-0.5,5.3-1.1,6.7c0.3,0.1,0.5,0.2,0.8,0.3c0.3-0.9,0.6-2.2,0.8-3.5C269.2,477.3,268.4,473.9,268.2,477.1z"/>
	<path style="clip-path:url(#SVGID_2_);fill-rule:evenodd;clip-rule:evenodd;fill:#F6BF96;" d="M272.5,477.2c0,1.4,0,4.9-0.9,6.9
		c0.4-0.1,0.9-0.2,1.3-0.4c0.4-1,0.5-2.6,0.6-3.8C273.5,477.4,272.5,475.2,272.5,477.2z"/>
	<path style="clip-path:url(#SVGID_2_);fill-rule:evenodd;clip-rule:evenodd;fill:#F6BF96;" d="M218.1,480.6
		c-0.5-1.8-1.3-5.7-1.4-4.6c-0.2,1.9,0.2,4.6,0.9,6.7c0.2,0.5,0.4,1,0.6,1.4c0.5-0.2,0.9-0.3,1.2-0.6
		C218.9,482.6,218.5,481.7,218.1,480.6z"/>
	<path style="clip-path:url(#SVGID_2_);fill-rule:evenodd;clip-rule:evenodd;fill:#F6BF96;" d="M214.1,481.1c-1.1-3.2-1.2-6.3-1.4-4
		c-0.3,2.7,0.5,4.8,1.4,6.7c0.1,0.1,0.2,0.3,0.3,0.4c0.4,0.1,0.8,0.1,1.1,0.1C215,483.4,214.5,482.4,214.1,481.1z"/>
	<g id="脸_41_" style="clip-path:url(#SVGID_2_);">
		<g>
			<path style="fill:#FCEBCE;" d="M269,421.9c-5.1-18.3-17.3-23-26.3-22.9c-9-0.2-22.5,4.5-26.7,22.5c-1,6.3-4.3,11.2-3.2,19.1
				c1.1,7.9,3.7,11.7,14.8,19.1c2.3,1.7,4,1.7,6.7,3.8c2.7,2,5.7,2.9,11,2.3c0.1,0,0.2,0,0.2-0.1c2.1-0.4,3.8-1.1,5.3-2.3
				c2.7-2,4.4-2,6.6-3.8c11-7.4,13.6-11.2,14.7-19.1C273.4,432.7,270.1,425.6,269,421.9z"/>
		</g>
	</g>
	<g id="形状_77_21_" style="clip-path:url(#SVGID_2_);">
		<g>
			<path style="fill-rule:evenodd;clip-rule:evenodd;fill:#FFBD99;" d="M220.9,444.9c-2.4-0.2-4.4,0.7-4.5,2.1
				c-0.1,1.3,1.7,2.6,4.1,2.8c2.4,0.2,4.4-0.7,4.5-2.1C225.1,446.3,223.3,445.1,220.9,444.9z"/>
		</g>
	</g>
	<g id="形状_77_副本_21_" style="clip-path:url(#SVGID_2_);">
		<g>
			<path style="fill:#FFBD99;" d="M263.4,444.9c-2.4,0.1-4.3,1.2-4.2,2.6c0,1.4,2,2.4,4.4,2.3c2.4-0.1,4.3-1.2,4.2-2.6
				C267.7,445.8,265.8,444.8,263.4,444.9z"/>
		</g>
	</g>
	<path style="clip-path:url(#SVGID_2_);fill:#F7CC9D;" d="M226.4,413.4c1,3.7,2.9,4.4,5.3,4.8c2.9,0.4,4.6-2.3,5.5-3.5
		c0,0,1.9,3.7,4.7,4.6c2.9,0.9,4.9-0.1,6-2c0.6-1.2,0.5-3.1,0.5-3.1s2.4,2.6,6,1.6c2.2-0.6,2.3-2.4,2.5-3.7c0.2-1.3-0.3-2.5-0.3-2.5
		s2.5,2.6,1.8,5.7c-0.5,2.2-2.3,3.7-4.7,3.4c-1.7-0.2-4.2-1.9-4.2-1.9s-0.2,2.8-2.1,4.2c-2,1.4-4.8,1.2-6.6,0.2
		c-1.8-1.1-3.4-3.6-3.4-3.6s-1,2.4-3.6,3.5c-1.5,0.7-4.4,0.8-6.1-1.8C225.6,416.7,226.4,413.4,226.4,413.4z"/>
	<g id="形状_75_21_" style="clip-path:url(#SVGID_2_);">
		<g>
			<path style="fill-rule:evenodd;clip-rule:evenodd;fill:#552F19;" d="M221.6,437.4c-4.5-0.4-5.8,0-5.5,0.9
				c0.2,0.7,1.2-0.2,5.3,0.7c6.8,1.4,9.7,6,10.5,4C232.6,441,227,437.9,221.6,437.4z"/>
		</g>
	</g>
	<g id="形状_75_副本_21_" style="clip-path:url(#SVGID_2_);">
		<g>
			<path style="fill-rule:evenodd;clip-rule:evenodd;fill:#713D1F;" d="M263.9,437.4c-5.4,0.5-11.1,3.6-10.3,5.7
				c0.7,1.9,3.7-2.6,10.5-4c4.2-0.9,5.1,0,5.3-0.7C269.6,437.4,268.4,437,263.9,437.4z"/>
		</g>
	</g>
	<g id="形状_19_21_" style="clip-path:url(#SVGID_2_);">
		<g>
			<path style="fill:#57301B;" d="M242.4,458.3c-8.6-0.1-7.8,2.6-7.8,2.6s1.5,5.4,8.1,5.2c6.6-0.2,7.8-5.2,7.8-5.2
				S251,458.4,242.4,458.3z"/>
		</g>
	</g>
</g>
<g>
	<path style="fill:#666666;" d="M31.2,175.6c0.5,0,0.9,0.1,1.3,0.2c0.4,0.1,0.7,0.3,1,0.6s0.5,0.6,0.6,0.9c0.1,0.4,0.2,0.8,0.2,1.2
		c0,0.5-0.1,0.9-0.2,1.2c-0.1,0.4-0.4,0.7-0.6,0.9s-0.6,0.4-1,0.6c-0.4,0.1-0.8,0.2-1.3,0.2h-3.6v4.4h-1v-10.3H31.2z M31,180.7
		c0.7,0,1.2-0.2,1.7-0.5c0.4-0.3,0.6-0.9,0.6-1.6c0-0.7-0.2-1.2-0.6-1.6c-0.4-0.3-1-0.5-1.7-0.5h-3.4v4.2H31z"/>
	<path style="fill:#666666;" d="M36.4,178.5v1.7h0c0.2-0.6,0.6-1.1,1.1-1.4c0.5-0.3,1.1-0.5,1.7-0.4v0.9c-0.4,0-0.8,0-1.1,0.2
		c-0.3,0.1-0.6,0.3-0.9,0.6c-0.2,0.2-0.4,0.5-0.6,0.9c-0.1,0.3-0.2,0.7-0.2,1.1v4h-0.9v-7.4H36.4z"/>
	<path style="fill:#666666;" d="M44.8,178.6c0.4,0.2,0.8,0.5,1.1,0.8c0.3,0.4,0.5,0.8,0.7,1.2s0.2,1,0.2,1.5c0,0.5-0.1,1-0.2,1.5
		c-0.2,0.5-0.4,0.9-0.7,1.2c-0.3,0.4-0.7,0.6-1.1,0.8c-0.4,0.2-0.9,0.3-1.5,0.3s-1.1-0.1-1.5-0.3c-0.4-0.2-0.8-0.5-1.1-0.8
		c-0.3-0.4-0.5-0.8-0.7-1.2c-0.2-0.5-0.2-1-0.2-1.5c0-0.5,0.1-1,0.2-1.5s0.4-0.9,0.7-1.2c0.3-0.4,0.7-0.6,1.1-0.8
		c0.4-0.2,0.9-0.3,1.5-0.3S44.3,178.4,44.8,178.6z M42.1,179.3c-0.3,0.2-0.6,0.4-0.8,0.7c-0.2,0.3-0.4,0.6-0.5,1
		c-0.1,0.4-0.2,0.8-0.2,1.2c0,0.4,0.1,0.8,0.2,1.2c0.1,0.4,0.3,0.7,0.5,1c0.2,0.3,0.5,0.5,0.8,0.7c0.3,0.2,0.7,0.3,1.1,0.3
		c0.4,0,0.8-0.1,1.1-0.3c0.3-0.2,0.6-0.4,0.8-0.7c0.2-0.3,0.4-0.6,0.5-1c0.1-0.4,0.2-0.8,0.2-1.2c0-0.4-0.1-0.8-0.2-1.2
		c-0.1-0.4-0.3-0.7-0.5-1c-0.2-0.3-0.5-0.5-0.8-0.7c-0.3-0.2-0.7-0.3-1.1-0.3C42.8,179,42.4,179.1,42.1,179.3z"/>
	<path style="fill:#666666;" d="M53.8,185.9v-1.4h0c-0.1,0.2-0.2,0.5-0.4,0.7c-0.2,0.2-0.4,0.4-0.6,0.5c-0.2,0.1-0.5,0.2-0.8,0.3
		c-0.3,0.1-0.5,0.1-0.8,0.1c-0.6,0-1.1-0.1-1.5-0.3c-0.4-0.2-0.8-0.5-1-0.8s-0.5-0.8-0.6-1.3c-0.1-0.5-0.2-1-0.2-1.5
		c0-0.5,0.1-1,0.2-1.5c0.1-0.5,0.3-0.9,0.6-1.3c0.3-0.4,0.6-0.6,1-0.9c0.4-0.2,0.9-0.3,1.5-0.3c0.3,0,0.5,0,0.8,0.1
		c0.3,0.1,0.5,0.2,0.7,0.3s0.4,0.3,0.6,0.5c0.2,0.2,0.3,0.4,0.4,0.7h0v-4.3h0.9v10.3H53.8z M48.8,183.3c0.1,0.4,0.2,0.7,0.4,1
		c0.2,0.3,0.4,0.5,0.8,0.7c0.3,0.2,0.7,0.3,1.1,0.3c0.5,0,0.9-0.1,1.2-0.3c0.3-0.2,0.6-0.4,0.8-0.7c0.2-0.3,0.4-0.6,0.4-1
		s0.1-0.8,0.1-1.1c0-0.4,0-0.8-0.1-1.1s-0.2-0.7-0.4-1c-0.2-0.3-0.5-0.5-0.8-0.7c-0.3-0.2-0.7-0.3-1.2-0.3c-0.4,0-0.8,0.1-1.1,0.3
		c-0.3,0.2-0.6,0.4-0.8,0.7c-0.2,0.3-0.3,0.6-0.4,1c-0.1,0.4-0.1,0.8-0.1,1.1C48.7,182.6,48.8,183,48.8,183.3z"/>
	<path style="fill:#666666;" d="M61.6,185.9v-1.3h0c-0.2,0.5-0.6,0.9-1,1.1c-0.5,0.3-1,0.4-1.5,0.4c-0.5,0-0.9-0.1-1.2-0.2
		c-0.3-0.1-0.6-0.3-0.8-0.6c-0.2-0.2-0.4-0.5-0.5-0.9c-0.1-0.3-0.1-0.7-0.1-1.2v-4.8h0.9v4.8c0,0.7,0.2,1.2,0.5,1.5
		c0.3,0.3,0.8,0.5,1.5,0.5c0.4,0,0.7-0.1,1-0.3s0.5-0.4,0.7-0.7c0.2-0.3,0.3-0.6,0.4-1c0.1-0.4,0.1-0.7,0.1-1.1v-3.9h0.9v7.4H61.6z"
		/>
	<path style="fill:#666666;" d="M68.7,179.5c-0.3-0.3-0.8-0.5-1.4-0.5c-0.4,0-0.8,0.1-1.1,0.3c-0.3,0.2-0.6,0.4-0.8,0.7
		c-0.2,0.3-0.4,0.6-0.5,1c-0.1,0.4-0.2,0.8-0.2,1.2c0,0.4,0.1,0.8,0.2,1.2c0.1,0.4,0.3,0.7,0.5,1c0.2,0.3,0.5,0.5,0.8,0.7
		c0.3,0.2,0.7,0.3,1.1,0.3c0.3,0,0.5-0.1,0.8-0.2c0.2-0.1,0.5-0.3,0.7-0.4c0.2-0.2,0.3-0.4,0.5-0.7s0.2-0.5,0.2-0.8h0.9
		c-0.1,0.9-0.5,1.6-1,2.1c-0.5,0.5-1.2,0.8-2.1,0.8c-0.6,0-1.1-0.1-1.5-0.3c-0.4-0.2-0.8-0.5-1.1-0.8c-0.3-0.4-0.5-0.8-0.7-1.2
		c-0.2-0.5-0.2-1-0.2-1.5c0-0.5,0.1-1,0.2-1.5s0.4-0.9,0.7-1.2c0.3-0.4,0.7-0.6,1.1-0.8c0.4-0.2,0.9-0.3,1.5-0.3
		c0.8,0,1.5,0.2,2,0.6s0.9,1.1,1,1.9h-0.9C69.2,180.2,69,179.8,68.7,179.5z"/>
	<path style="fill:#666666;" d="M74.5,178.5v0.8H73v5c0,0.3,0,0.5,0.1,0.7c0.1,0.2,0.3,0.3,0.6,0.3c0.3,0,0.5,0,0.8,0v0.8
		c-0.1,0-0.3,0-0.4,0c-0.1,0-0.3,0-0.4,0c-0.6,0-1-0.1-1.3-0.4s-0.4-0.7-0.3-1.3v-5.1h-1.3v-0.8h1.3v-2.2H73v2.2H74.5z"/>
	<path style="fill:#666666;" d="M83.6,175.6c1.6,0,2.7,0.5,3.5,1.3s1.2,2.1,1.2,3.8c0,1.7-0.4,3-1.2,3.8c-0.8,0.8-2,1.3-3.5,1.3H80
		v-10.3H83.6z M83.1,185.1c0.7,0,1.4-0.1,1.9-0.2c0.5-0.2,1-0.4,1.3-0.8c0.3-0.3,0.6-0.8,0.8-1.3s0.2-1.2,0.2-2s-0.1-1.4-0.2-2
		c-0.2-0.5-0.4-1-0.8-1.3c-0.3-0.3-0.8-0.6-1.3-0.8c-0.5-0.2-1.2-0.2-1.9-0.2H81v8.6H83.1z"/>
	<path style="fill:#666666;" d="M90.6,175.6v1.5h-0.9v-1.5H90.6z M90.6,178.5v7.4h-0.9v-7.4H90.6z"/>
	<path style="fill:#666666;" d="M93.2,178.5v1.7h0c0.2-0.6,0.6-1.1,1.1-1.4c0.5-0.3,1.1-0.5,1.7-0.4v0.9c-0.4,0-0.8,0-1.1,0.2
		c-0.3,0.1-0.6,0.3-0.9,0.6c-0.2,0.2-0.4,0.5-0.6,0.9c-0.1,0.3-0.2,0.7-0.2,1.1v4h-0.9v-7.4H93.2z"/>
	<path style="fill:#666666;" d="M97.6,183.4c0.1,0.4,0.2,0.7,0.4,0.9c0.2,0.3,0.5,0.5,0.8,0.7c0.3,0.2,0.7,0.3,1.1,0.3
		c0.7,0,1.2-0.2,1.6-0.5c0.4-0.3,0.6-0.8,0.8-1.4h0.9c-0.2,0.8-0.5,1.5-1.1,2c-0.5,0.5-1.2,0.7-2.2,0.7c-0.6,0-1.1-0.1-1.5-0.3
		c-0.4-0.2-0.8-0.5-1-0.8s-0.5-0.8-0.6-1.3c-0.1-0.5-0.2-1-0.2-1.5c0-0.5,0.1-1,0.2-1.4c0.1-0.5,0.3-0.9,0.6-1.3s0.6-0.7,1-0.9
		c0.4-0.2,0.9-0.3,1.5-0.3c0.6,0,1.1,0.1,1.5,0.4c0.4,0.2,0.8,0.6,1,0.9c0.3,0.4,0.5,0.8,0.6,1.3s0.2,1,0.1,1.5h-5.7
		C97.5,182.8,97.5,183.1,97.6,183.4z M102.1,180.7c-0.1-0.3-0.3-0.6-0.5-0.8c-0.2-0.2-0.4-0.4-0.7-0.6c-0.3-0.1-0.6-0.2-1-0.2
		c-0.4,0-0.7,0.1-1,0.2c-0.3,0.1-0.5,0.3-0.7,0.6c-0.2,0.2-0.4,0.5-0.5,0.8c-0.1,0.3-0.2,0.7-0.2,1h4.8
		C102.3,181.3,102.2,181,102.1,180.7z"/>
	<path style="fill:#666666;" d="M108.9,179.5c-0.3-0.3-0.8-0.5-1.4-0.5c-0.4,0-0.8,0.1-1.1,0.3c-0.3,0.2-0.6,0.4-0.8,0.7
		c-0.2,0.3-0.4,0.6-0.5,1c-0.1,0.4-0.2,0.8-0.2,1.2c0,0.4,0.1,0.8,0.2,1.2c0.1,0.4,0.3,0.7,0.5,1c0.2,0.3,0.5,0.5,0.8,0.7
		c0.3,0.2,0.7,0.3,1.1,0.3c0.3,0,0.5-0.1,0.8-0.2c0.2-0.1,0.5-0.3,0.7-0.4c0.2-0.2,0.3-0.4,0.5-0.7s0.2-0.5,0.2-0.8h0.9
		c-0.1,0.9-0.5,1.6-1,2.1c-0.5,0.5-1.2,0.8-2.1,0.8c-0.6,0-1.1-0.1-1.5-0.3c-0.4-0.2-0.8-0.5-1.1-0.8c-0.3-0.4-0.5-0.8-0.7-1.2
		c-0.2-0.5-0.2-1-0.2-1.5c0-0.5,0.1-1,0.2-1.5s0.4-0.9,0.7-1.2c0.3-0.4,0.7-0.6,1.1-0.8c0.4-0.2,0.9-0.3,1.5-0.3
		c0.8,0,1.5,0.2,2,0.6s0.9,1.1,1,1.9h-0.9C109.5,180.2,109.3,179.8,108.9,179.5z"/>
	<path style="fill:#666666;" d="M114.8,178.5v0.8h-1.5v5c0,0.3,0,0.5,0.1,0.7c0.1,0.2,0.3,0.3,0.6,0.3c0.3,0,0.5,0,0.8,0v0.8
		c-0.1,0-0.3,0-0.4,0c-0.1,0-0.3,0-0.4,0c-0.6,0-1-0.1-1.3-0.4s-0.4-0.7-0.3-1.3v-5.1h-1.3v-0.8h1.3v-2.2h0.9v2.2H114.8z"/>
	<path style="fill:#666666;" d="M120.8,178.6c0.4,0.2,0.8,0.5,1.1,0.8c0.3,0.4,0.5,0.8,0.7,1.2s0.2,1,0.2,1.5c0,0.5-0.1,1-0.2,1.5
		c-0.2,0.5-0.4,0.9-0.7,1.2c-0.3,0.4-0.7,0.6-1.1,0.8c-0.4,0.2-0.9,0.3-1.5,0.3s-1.1-0.1-1.5-0.3c-0.4-0.2-0.8-0.5-1.1-0.8
		c-0.3-0.4-0.5-0.8-0.7-1.2c-0.2-0.5-0.2-1-0.2-1.5c0-0.5,0.1-1,0.2-1.5s0.4-0.9,0.7-1.2c0.3-0.4,0.7-0.6,1.1-0.8
		c0.4-0.2,0.9-0.3,1.5-0.3S120.3,178.4,120.8,178.6z M118.1,179.3c-0.3,0.2-0.6,0.4-0.8,0.7c-0.2,0.3-0.4,0.6-0.5,1
		c-0.1,0.4-0.2,0.8-0.2,1.2c0,0.4,0.1,0.8,0.2,1.2c0.1,0.4,0.3,0.7,0.5,1c0.2,0.3,0.5,0.5,0.8,0.7c0.3,0.2,0.7,0.3,1.1,0.3
		c0.4,0,0.8-0.1,1.1-0.3c0.3-0.2,0.6-0.4,0.8-0.7c0.2-0.3,0.4-0.6,0.5-1c0.1-0.4,0.2-0.8,0.2-1.2c0-0.4-0.1-0.8-0.2-1.2
		c-0.1-0.4-0.3-0.7-0.5-1c-0.2-0.3-0.5-0.5-0.8-0.7c-0.3-0.2-0.7-0.3-1.1-0.3C118.8,179,118.5,179.1,118.1,179.3z"/>
	<path style="fill:#666666;" d="M125,178.5v1.7h0c0.2-0.6,0.6-1.1,1.1-1.4c0.5-0.3,1.1-0.5,1.7-0.4v0.9c-0.4,0-0.8,0-1.1,0.2
		c-0.3,0.1-0.6,0.3-0.9,0.6c-0.2,0.2-0.4,0.5-0.6,0.9c-0.1,0.3-0.2,0.7-0.2,1.1v4h-0.9v-7.4H125z"/>
</g>
<g>
	<path style="fill:#666666;" d="M25.4,37c5-0.3,9.3-0.6,13-0.9l0.9,5.4c-1.3,0.2-2.7,0.3-4.2,0.3v3.9h3.7v5.7h-3.7V54
		c1.9,1,3.5,2,5,2.9l-2.5,4.9c-0.2-0.1-0.5-0.3-0.8-0.6c-0.2-0.3-0.8-0.8-1.7-1.4v12.1h-5.6V61.6c-0.9,1.9-1.9,3.4-2.8,4.6
		c-0.1-0.5-0.3-1.2-0.6-2.2c-0.5-2-0.9-3.4-1.2-4.3c2-2.8,3.5-5.6,4.7-8.4h-4.2v-5.7h4.2v-3.6c-1.2,0.1-2.4,0.2-3.6,0.2L25.4,37z
		 M40,58.9h7.6v-2.5h-8.1v-4.9h22.3v4.9h-8.4v2.5h7.6v4.8h-7.6v2.6h9.2v4.5H38v-4.5h9.6v-2.6H40V58.9z M40.3,49.5V36.6h20.5v12.8
		H40.3z M55,44.7v-3.2h-8.8v3.2H55z"/>
	<path style="fill:#666666;" d="M76.3,56.4h-6.2v-7.9c-1,1-2.2,2-3.4,2.9c-0.2-0.8-0.6-2.3-1.2-4.5c-0.3-1.1-0.5-2-0.6-2.5
		c3.8-2.7,6.9-5.9,9.3-9.6l6.1,2c-0.7,1.2-1.9,2.9-3.6,4.9c-0.1,0.1-0.2,0.2-0.3,0.3V56.4z M65,58.6h15.4V56h6.4v2.6h15.5v5.9H86.7
		v7.4h-6.4v-7.4H65V58.6z M96.3,44.7c2.4,0.8,4.3,1.5,5.9,2c-0.2,1.1-0.5,2.7-0.9,4.8c-0.1,0.2-0.2,0.4-0.2,0.5
		c-0.6,2.6-2.7,3.8-6.2,3.7h-6.7c-3.7,0.1-5.5-1.7-5.3-5.4c-1.5,0.6-2.9,1.1-4.5,1.5c-0.6-1.9-1.3-3.6-2-5.3
		c0.5-0.2,1.3-0.5,2.3-0.8c0.8-0.2,2.2-0.7,4.2-1.4v-8.8h6.2v6.3c3.4-1.8,6.3-3.5,8.7-5.1l3.7,4.3c-3.9,2.5-8.1,4.7-12.4,6.7v0.9
		c-0.1,1.3,0.5,2,1.9,1.9h2.6c1.2,0,1.9-0.6,2-1.7C95.8,48.4,96,47,96.3,44.7z"/>
	<path style="fill:#666666;" d="M110.4,44.2l4,3.4c-0.7,0.7-0.9,1-0.6,0.8c-2.6,2.7-4.7,4.8-6.2,6.3l-3.7-3.9
		C106.3,48.8,108.5,46.6,110.4,44.2z M105.2,57.1h10.4c-1.4-1.1-3.1-2.3-4.8-3.4c3.3-2.7,5-5.5,5-8.5c0-0.5,0-1,0-1.4h-10.2v-5.3
		h14.7c-0.3-1.2-0.6-2.3-0.9-3.1l7.3-0.5c0.2,1.3,0.5,2.5,0.8,3.6h13.8v5.3h-9.6v4.2l3.6-3.2c3.3,2.9,5.7,5.1,7.3,6.7l-4.2,3.9
		c-2.3-2.3-4.5-4.5-6.7-6.8v0.8c0.1,3.2-1.4,4.9-4.5,5.1c-1.6,0-3.2,0-4.8,0c-0.3-1.5-0.7-3.2-1.1-4.9c1,0,2,0,2.9,0
		c1,0,1.6-0.6,1.6-1.7v-3.9h-4c0,0.7-0.1,1.3-0.2,1.7c-0.1,4.5-2.1,8.4-5.9,11.6h4.3c0-0.2,0.1-0.5,0.2-0.9c0-0.4,0-0.7,0-0.9h6.5
		c0,0.2-0.1,0.5-0.2,0.9c0,0.4-0.1,0.7-0.2,0.9h15.2v5.3h-13.3c1.9,2.1,6.5,3.4,14,4c-0.9,1.8-1.8,3.6-2.6,5.6
		c-7.8-1.2-13-3.4-15.8-6.5c-2.1,2.9-7.6,5.2-16.6,6.8c-0.2-0.5-0.6-1.3-1.2-2.5c-0.6-1.3-1.1-2.3-1.4-2.8c8.4-1,13.1-2.6,14.1-4.6
		h-13.3V57.1z"/>
</g>
<g>
	<path style="fill:#666666;" d="M29.3,225.6c0,1-0.3,1.5-1,1.6c-0.3,0-0.6,0-1,0c0,0,0-0.1,0-0.1c0-0.3-0.1-0.6-0.1-0.7
		c0.1,0,0.2,0,0.3,0c0.3,0,0.4,0,0.5,0c0.4,0,0.5-0.3,0.5-0.8c0-0.8-0.3-1.6-1-2.4c0.2-0.6,0.5-1.6,0.8-2.9h-1.3v8.6h-0.8v-9.4h2.9
		v0.7c-0.5,1.5-0.8,2.4-0.9,2.8C29,223.9,29.3,224.8,29.3,225.6z M29.7,219.6H36v0.8H35v6.8c0.1,1-0.4,1.5-1.4,1.5
		c-0.3,0-0.8,0-1.5,0c0-0.1-0.1-0.3-0.1-0.5c-0.1-0.2-0.1-0.3-0.1-0.3c0.4,0,0.9,0,1.5,0c0.6,0,0.8-0.2,0.8-0.7v-6.8h-4.6V219.6z
		 M30,221.8h3.1v4.4H30V221.8z M30.7,222.5v3h1.6v-3H30.7z"/>
	<path style="fill:#666666;" d="M37.2,225.7h4v-1.2h-3.7v-5h8.1v5H42v1.2h4.1v0.7H42v1.3h4.7v0.7H36.6v-0.7h4.7v-1.3h-4V225.7z
		 M38.4,220.1v1.5h2.9v-1.5H38.4z M38.4,222.3v1.5h2.9v-1.5H38.4z M44.9,220.1H42v1.5h2.9V220.1z M42,222.3v1.5h2.9v-1.5H42z"/>
	<path style="fill:#666666;" d="M51.5,227.3l-0.6,0.5c-0.2-0.1-0.4-0.3-0.7-0.7c-0.1-0.1-0.3-0.3-0.3-0.3c-0.4,0.6-1,1.3-1.9,2
		c-0.1-0.2-0.3-0.5-0.5-0.7c0.7-0.5,1.3-1.1,1.9-1.9c-0.2-0.1-0.4-0.4-0.7-0.7c-0.3-0.3-0.5-0.5-0.7-0.7c0.2-0.6,0.4-1.6,0.7-3.1
		h-0.9v-0.7h1c0.1-0.4,0.1-1,0.3-1.8c0-0.2,0-0.3,0-0.4l0.8,0.1c0,0.3-0.1,0.7-0.2,1.3c-0.1,0.4-0.1,0.6-0.1,0.8h1.8v0.7
		c-0.2,1.9-0.5,3.3-1,4.2C50.6,226.5,51.1,226.9,51.5,227.3z M50.4,221.9h-1.2c-0.2,1.1-0.4,2-0.6,2.8c0.2,0.1,0.4,0.3,0.7,0.6
		c0.1,0.1,0.3,0.2,0.3,0.3C50,224.6,50.3,223.4,50.4,221.9z M51.3,225.7h4.5v0.8h-4.5V225.7z M53.1,220.7l-0.3,2.9h2.6l0.3-3.5h-4.2
		v-0.7h5.1l-0.4,4.3h1c-0.1,1.8-0.1,3-0.2,3.6c-0.1,1-0.6,1.5-1.7,1.5c-0.7,0-1.2,0-1.6,0c0-0.2-0.1-0.4-0.1-0.6c0-0.1,0-0.2,0-0.3
		c0.2,0,0.8,0,1.7,0c0.6,0,0.9-0.3,1-0.8c0.1-0.5,0.1-1.4,0.2-2.7h-4.4l0.3-3.6H53.1z"/>
	<path style="fill:#666666;" d="M62.3,227.3l-0.6,0.5c-0.2-0.1-0.4-0.3-0.7-0.7c-0.1-0.1-0.3-0.3-0.3-0.3c-0.4,0.6-1,1.3-1.9,2
		c-0.1-0.2-0.3-0.5-0.5-0.7c0.7-0.5,1.3-1.1,1.9-1.9c-0.2-0.1-0.4-0.4-0.7-0.7c-0.3-0.3-0.5-0.5-0.7-0.7c0.2-0.6,0.4-1.6,0.7-3.1
		h-0.9v-0.7h1c0.1-0.4,0.1-1,0.3-1.8c0-0.2,0-0.3,0-0.4l0.8,0.1c0,0.3-0.1,0.7-0.2,1.3c-0.1,0.4-0.1,0.6-0.1,0.8H62v0.7
		c-0.2,1.9-0.5,3.3-1,4.2C61.4,226.5,61.9,226.9,62.3,227.3z M61.2,221.9H60c-0.2,1.1-0.4,2-0.6,2.8c0.2,0.1,0.4,0.3,0.7,0.6
		c0.1,0.1,0.3,0.2,0.3,0.3C60.8,224.6,61.1,223.4,61.2,221.9z M62.1,225.7h4.5v0.8h-4.5V225.7z M63.9,220.7l-0.3,2.9h2.6l0.3-3.5
		h-4.2v-0.7h5.1l-0.4,4.3h1c-0.1,1.8-0.1,3-0.2,3.6c-0.1,1-0.6,1.5-1.7,1.5c-0.7,0-1.2,0-1.6,0c0-0.2-0.1-0.4-0.1-0.6
		c0-0.1,0-0.2,0-0.3c0.2,0,0.8,0,1.7,0c0.6,0,0.9-0.3,1-0.8c0.1-0.5,0.1-1.4,0.2-2.7h-4.4l0.3-3.6H63.9z"/>
</g>
<g>
	<path style="fill:#666666;" d="M25.9,245c0.2-0.1,0.6-0.2,1.1-0.3c0.2-0.1,0.3-0.1,0.4-0.1v-4.1H26v-0.7h1.3v-2.8h0.8v2.8h1.2v0.7
		h-1.2v3.8c0.2-0.1,0.4-0.1,0.8-0.3c0.3-0.1,0.5-0.2,0.6-0.2c0,0.3,0,0.6,0,0.8c-1.2,0.5-2.3,0.8-3.3,1.1L25.9,245z M29.1,241.2
		l0.9-0.3V238h0.8v2.5l1.6-0.5v-3.1h0.8v2.8l2.5-0.9c0,0.2,0,0.6,0,1.1c0,0.9-0.1,1.6-0.1,2.1c0,1.1-0.4,1.6-1.3,1.5
		c-0.2,0-0.4,0-0.8,0c0-0.3-0.1-0.5-0.2-0.8c0.1,0,0.2,0,0.4,0c0.2,0,0.4,0,0.5,0c0.4,0,0.6-0.2,0.6-0.8c0-0.5,0-1.2,0-2.1l-1.6,0.7
		v4.3h-0.8v-4l-1.6,0.6v3.5c0,0.6,0.3,0.9,1,0.8H34c0.8,0,1.2-0.2,1.2-0.7c0.1-0.6,0.2-1.1,0.2-1.5c0.3,0.1,0.5,0.2,0.8,0.3
		c-0.1,0.7-0.2,1.2-0.3,1.7c-0.1,0.7-0.7,1.1-1.8,1.1h-2.6c-1.1,0-1.6-0.5-1.6-1.4v-3.3l-0.8,0.3L29.1,241.2z"/>
	<path style="fill:#666666;" d="M36.7,244.6c0.2-0.1,0.4-0.1,0.8-0.3c0.4-0.1,0.6-0.2,0.8-0.3v-3.8h-1.4v-0.8h1.4v-2.7h0.8v2.7h1.4
		v0.8h-1.4v3.5c0.5-0.2,1-0.3,1.5-0.5c0,0.3,0,0.6,0,0.8c-0.2,0.1-0.5,0.2-0.8,0.3c-1.3,0.5-2.2,0.8-2.8,1.1L36.7,244.6z
		 M43.4,236.8h0.8v3.2h2.4v0.8h-2.4v4.7h2.7v0.7h-7.3v-0.7h1.6v-6.5H42v6.5h1.5V236.8z"/>
	<path style="fill:#666666;" d="M50.7,242.3v1.5h-1.4v-1.5H50.7z M50.7,245.4v1.4h-1.4v-1.4H50.7z"/>
	<path style="fill:#666666;" d="M59.1,239h4v-2.2h0.8v2.2h4v4.6H67v-0.5h-3.2v3.8H63v-3.8h-3.2v0.5h-0.8V239z M59.9,239.7v2.6H63
		v-2.6H59.9z M67,239.7h-3.2v2.6H67V239.7z"/>
	<path style="fill:#666666;" d="M69.8,237.3h8.9v9.4H78v-0.5h-7.4v0.5h-0.8V237.3z M70.6,238.1v7.5H78v-7.5H70.6z M71.4,241.1h2.4
		v-1.4h-2.7v-0.7h6.1v0.7h-2.7v1.4h2.4v0.7h-2.4v2h2.8v0.7H71v-0.7h2.8v-2h-2.4V241.1z M75.1,242.5l0.6-0.5c0.2,0.2,0.5,0.6,1,1.1
		l-0.6,0.5C75.7,243.1,75.4,242.8,75.1,242.5z"/>
	<path style="fill:#666666;" d="M84.1,237H85v3.1h4.2v0.8H85v4.6h5v0.7h-10v-0.7h4V237z"/>
	<path style="fill:#666666;" d="M91.3,239.6c0.6,0.5,1.2,0.9,1.7,1.4l-0.6,0.6c-0.5-0.5-1.1-0.9-1.6-1.4L91.3,239.6z M91,246.5
		c0.2-0.7,0.6-1.8,1-3.5c0-0.2,0.1-0.3,0.1-0.4c0.3,0.1,0.5,0.2,0.8,0.3c-0.3,1.2-0.7,2.5-1,3.8L91,246.5z M91.7,236.9
		c0.5,0.4,1.1,0.8,1.7,1.4l-0.5,0.6c-0.6-0.6-1.2-1.1-1.6-1.5L91.7,236.9z M92.9,239.7c0.9-0.8,1.6-1.8,2.1-3l0.8,0.1
		c-0.1,0.3-0.3,0.6-0.5,0.9h5.4v0.7h-5.8c-0.5,0.8-1,1.4-1.5,1.8c-0.1-0.1-0.2-0.2-0.3-0.4C93,239.8,93,239.7,92.9,239.7z
		 M99.9,239.4c0,0.3,0,0.8,0,1.4c0,0.5,0,0.9,0,1.2h1.1v0.7h-1.1c0,0.3,0,0.6,0,1.1c0,0.4,0,0.7,0,0.8h0.8v0.7h-0.8
		c-0.1,1-0.6,1.5-1.7,1.5c-0.5,0-0.9,0-1.4,0c0-0.1,0-0.3-0.1-0.5c0-0.1,0-0.2,0-0.3c0.4,0,0.8,0,1.4,0c0.6,0,1-0.2,1.1-0.7h-5.3
		l0.3-2.6h-1v-0.7h1.1l0.3-2.6H99.9z M99,244.5c0-0.2,0-0.5,0-0.9c0-0.4,0-0.7,0-1h-4.3l-0.2,1.9H99z M95.1,240l-0.3,1.9h4.2
		c0-0.6,0-1.3,0-1.9H95.1z M96.1,243.3l0.4-0.5c0.4,0.3,0.9,0.7,1.3,1l-0.5,0.5c-0.1-0.1-0.2-0.2-0.4-0.4
		C96.7,243.9,96.5,243.7,96.1,243.3z M96.1,240.7l0.5-0.5c0.4,0.3,0.8,0.7,1.3,1l-0.5,0.5C97,241.4,96.6,241,96.1,240.7z"/>
	<path style="fill:#666666;" d="M101.7,238.3h4.8c-0.2-0.4-0.5-0.8-0.7-1.3l0.8-0.4c0.3,0.5,0.6,0.9,0.8,1.3l-0.7,0.3h5v0.8h-4.6
		v1.4h3.7v3.8c0.1,0.9-0.4,1.3-1.3,1.3c-0.4,0-0.8,0-1.4,0c0-0.2-0.1-0.4-0.2-0.8c0.1,0,0.3,0,0.5,0c0.3,0,0.6,0,0.8,0
		c0.5,0,0.8-0.2,0.8-0.7v-2.9h-2.9v5.5h-0.8v-5.5h-2.8v4.5h-0.8v-5.2h3.6v-1.4h-4.5V238.3z"/>
	<path style="fill:#666666;" d="M112.4,239.6c0.9-0.7,1.7-1.6,2.4-2.8l0.7,0.4c-0.9,1.3-1.8,2.3-2.7,3.2
		C112.7,240.1,112.5,239.8,112.4,239.6z M112.4,242.7c1-0.9,1.8-2.1,2.6-3.5l0.7,0.4c-0.1,0.2-0.3,0.4-0.5,0.8
		c-0.3,0.4-0.4,0.6-0.5,0.8v5.5h-0.8v-4.5c-0.4,0.5-0.7,0.9-1.1,1.3C112.6,243.3,112.5,243,112.4,242.7z M116.8,243.5l0.7,0.4
		c-0.5,0.8-1.1,1.6-1.7,2.3c-0.1-0.1-0.4-0.3-0.6-0.5C115.7,245.2,116.2,244.5,116.8,243.5z M119.6,237c-0.1,0.1-0.2,0.3-0.2,0.3
		c0.8,1.3,1.9,2.3,3.2,2.9c0,0.1-0.1,0.2-0.2,0.3c-0.1,0.1-0.2,0.3-0.3,0.3c-1.2-0.7-2.3-1.7-3.1-2.9c-0.5,0.8-1.2,1.6-2.1,2.3h4.2
		v0.7h-1.7v1.3h2.8v0.7h-2.8v2.5c0.1,0.8-0.3,1.1-1.1,1.1c-0.3,0-0.7,0-1.1,0c0-0.1,0-0.3-0.1-0.6c0-0.1,0-0.2,0-0.2
		c0.1,0,0.3,0,0.5,0c0.2,0,0.4,0,0.5,0c0.4,0,0.6-0.1,0.5-0.5V243h-2.7v-0.7h2.7V241h-1.8v-0.5c-0.1,0.1-0.2,0.2-0.4,0.3
		c-0.2,0.1-0.3,0.3-0.4,0.3c-0.1-0.1-0.1-0.2-0.3-0.3c-0.1-0.2-0.2-0.3-0.3-0.3c1.5-0.9,2.7-2.1,3.5-3.6L119.6,237z M120,244
		l0.6-0.4c0.7,0.8,1.3,1.4,1.8,2l-0.6,0.5c-0.1-0.1-0.2-0.2-0.3-0.4C120.8,244.9,120.3,244.4,120,244z"/>
	<path style="fill:#666666;" d="M123.3,244.1c1.7-0.4,3.1-1.2,4.1-2.1c0-0.1-0.1-0.1-0.2-0.3c-0.1-0.1-0.2-0.2-0.2-0.2
		c-1,0.7-2.1,1.2-3.4,1.6c-0.1-0.2-0.3-0.4-0.5-0.7c1.5-0.3,2.9-1,4.1-1.9h-2.8v-0.7h7.3v0.7h-3.5c-0.3,0.2-0.5,0.4-0.8,0.6
		c0.4,0.4,0.7,0.8,0.9,1.3c1.2-0.6,2.2-1.1,3.1-1.6l0.5,0.7c-0.6,0.3-1.3,0.7-2,1c0.5,1.4,1.5,2.3,3.1,2.8c-0.2,0.2-0.4,0.4-0.6,0.7
		c-1.5-0.6-2.6-1.7-3.1-3.2c-0.1,0-0.2,0.1-0.3,0.2c-0.1,0.1-0.3,0.1-0.3,0.2c0.2,0.5,0.3,1,0.3,1.5c0.1,1.4-0.6,2-1.9,2
		c-0.4,0-0.7,0-1,0c-0.1-0.3-0.1-0.6-0.2-0.8c0.2,0,0.6,0,1.2,0c0.8,0.1,1.2-0.4,1.1-1.2c0-0.3,0-0.5-0.1-0.8
		c-1.1,1.1-2.6,1.9-4.6,2.6c-0.1-0.2-0.2-0.5-0.4-0.8c2-0.5,3.6-1.4,4.9-2.6c-0.1-0.2-0.2-0.4-0.3-0.6c-1.1,1-2.4,1.7-4.1,2.2
		C123.7,244.5,123.5,244.3,123.3,244.1z M127.6,237l0.8-0.3c0.1,0.1,0.1,0.3,0.3,0.5c0.1,0.3,0.2,0.5,0.3,0.7l-0.5,0.1h4.5v1.7h-0.8
		v-1h-7.8v1h-0.8v-1.7h4.6C127.9,237.6,127.8,237.2,127.6,237z"/>
	<path style="fill:#666666;" d="M134.4,239.6c0.7,0.4,1.4,0.9,1.9,1.3c-0.2,0.3-0.4,0.5-0.5,0.8c-0.7-0.6-1.3-1.1-1.9-1.4
		L134.4,239.6z M135.5,242.6c0.3,0.2,0.6,0.3,0.8,0.4c-0.2,0.8-0.6,2-1.1,3.7l-0.9-0.4C134.8,245.2,135.2,244,135.5,242.6z
		 M134.9,236.9c0.4,0.3,0.9,0.7,1.6,1.2c0.1,0.1,0.1,0.1,0.2,0.2c-0.1,0.1-0.2,0.2-0.4,0.5c0.1-0.1,0,0-0.1,0.2c0,0-0.1-0.1-0.1-0.1
		c-0.8-0.6-1.3-1.1-1.7-1.4L134.9,236.9z M137.4,237.4h6.5v0.8h-5.7v7.3h5.8v0.8h-6.7V237.4z"/>
	<path style="fill:#666666;" d="M145.4,237.4h3.3v3.2h-1v1.7h1v0.7h-1v2.1c0.4-0.1,0.8-0.1,1.2-0.2c0,0.2,0,0.4,0,0.7
		c-0.3,0.1-1,0.2-2.1,0.3c-0.9,0.1-1.5,0.2-1.9,0.3l-0.1-0.7c0.2,0,0.4,0,0.6-0.1v-3.8h0.7v3.8c0.3-0.1,0.6-0.1,0.9-0.1v-4.6h-1.6
		V237.4z M146.1,238.1v1.8h1.9v-1.8H146.1z M148.8,239.9c0.7-0.8,1.3-1.9,1.9-3.1l0.8,0.2c0,0.1-0.1,0.2-0.2,0.3
		c0,0.1-0.1,0.3-0.3,0.6h3.2v0.7c-0.6,1-1.2,1.8-1.8,2.4c0.6,0.5,1.5,0.8,2.5,1.1c-0.1,0.2-0.3,0.5-0.5,0.8
		c-1.1-0.4-1.9-0.8-2.6-1.4c-0.8,0.6-1.6,1-2.7,1.4c-0.2-0.3-0.4-0.6-0.5-0.7c1.1-0.4,1.9-0.8,2.5-1.2c-0.4-0.4-0.8-1-1.1-1.6
		c-0.3,0.4-0.5,0.7-0.8,1.1C149.2,240.3,149,240.1,148.8,239.9z M149.6,242.9h4.4v3.9h-0.8v-0.5h-2.9v0.5h-0.8V242.9z M150.3,243.6
		v2h2.9v-2H150.3z M153.3,238.6h-2.7c0,0,0,0.1,0,0.1c0.4,0.7,0.8,1.3,1.3,1.8C152.5,240,152.9,239.3,153.3,238.6z"/>
	<path style="fill:#666666;" d="M161.1,239.3l-0.8,0.3c-0.2-1-0.8-1.5-1.6-1.4c-1.4,0-2.1,1.2-2.1,3.5c0.5-0.8,1.2-1.2,2.2-1.2
		c1.6,0.1,2.4,1,2.5,2.7c-0.1,1.8-1,2.7-2.7,2.9c-2,0-3-1.4-3-4.1c0-3.1,1.1-4.6,3.1-4.6C160,237.4,160.8,238.1,161.1,239.3z
		 M156.6,242.7c0,1.7,0.7,2.6,2,2.7c1.1-0.1,1.6-0.8,1.7-2.1c0-1.3-0.6-2-1.7-2.1C157.6,241.3,156.9,241.8,156.6,242.7z"/>
	<path style="fill:#666666;" d="M165.4,239.2c-0.6,0.6-1.4,1-2.2,1.4v-0.9c1.3-0.6,2.1-1.3,2.5-2.2h0.6v8.6h-0.9V239.2z"/>
	<path style="fill:#666666;" d="M171.7,246.1c-1.9,0-2.8-1.5-2.8-4.3c0-2.8,1-4.3,2.8-4.4c1.8,0.1,2.8,1.5,2.8,4.4
		C174.5,244.6,173.5,246,171.7,246.1z M171.7,238.1c-1.2,0.1-1.7,1.3-1.8,3.6c0,2.4,0.6,3.6,1.8,3.6c1.2,0,1.8-1.2,1.8-3.6
		C173.5,239.3,172.9,238.1,171.7,238.1z"/>
	<path style="fill:#666666;" d="M177.1,243.8V243l0.5-1.1h-2.2v-0.7h10.1v0.7h-7l-0.5,1.1h6.1c-0.1,0.6-0.1,1.2-0.2,1.8
		c-0.1,1.2-0.8,1.8-2.3,1.8c-0.7,0-1.4,0-2.2,0c0,0,0-0.1,0-0.2c0-0.3-0.1-0.5-0.1-0.7c0.8,0.1,1.6,0.1,2.3,0.1c1,0.1,1.4-0.3,1.5-1
		c0-0.1,0-0.2,0-0.3c0-0.3,0.1-0.6,0.1-0.7H177.1z M176.9,237.3h6.9v3h-6.9V237.3z M177.7,238v1.5h5.3V238H177.7z"/>
	<path style="fill:#666666;" d="M27.4,255.5h7.3v9.2h-0.9V264h-5.6v0.7h-0.8V255.5z M28.3,256.2v3.1h5.6v-3.1H28.3z M28.3,260.1v3.2
		h5.6v-3.2H28.3z"/>
	<path style="fill:#666666;" d="M43.7,263.8c0.6,0,0.9-0.2,0.9-0.7v-1.7h-5.4c-0.1,1.3-0.6,2.5-1.5,3.5c-0.2-0.2-0.5-0.4-0.7-0.6
		c1.1-1,1.6-2.8,1.6-5.5v-3.5h6.8v7.9c0.1,1-0.5,1.5-1.6,1.5c-0.6,0-1.1,0-1.4,0c0-0.2-0.1-0.5-0.2-0.8c0.1,0,0.3,0,0.6,0
		C43.2,263.8,43.5,263.8,43.7,263.8z M39.4,258.8c0,0.7,0,1.3,0,1.9h5.3v-2h-5.2V258.8z M39.4,256v2h5.2v-2H39.4z"/>
	<path style="fill:#666666;" d="M52.2,254.8H53v4.3h4.6v0.8h-3.4v3.2c0,0.5,0.2,0.7,0.7,0.7h1.1c0.4,0,0.7-0.2,0.8-0.5
		c0-0.1,0-0.2,0-0.5c0-0.4,0-0.7,0-1c0.1,0,0.1,0.1,0.2,0.1c0.3,0.1,0.6,0.2,0.7,0.2c-0.1,0.8-0.2,1.3-0.3,1.5
		c-0.1,0.6-0.6,0.9-1.5,0.9h-1.2c-0.9,0-1.4-0.5-1.4-1.3v-3.4h-2c0.1,2.5-1,4.1-3.5,4.9c-0.1-0.2-0.3-0.4-0.5-0.7
		c2.2-0.6,3.2-2,3.2-4.2h-3v-0.8h4.6V254.8z M48.4,256.1l0.6-0.5c0.7,0.8,1.4,1.5,2,2.3l-0.7,0.5C49.7,257.6,49,256.8,48.4,256.1z
		 M54.1,258c0.8-0.8,1.5-1.6,2.1-2.4l0.8,0.5c-0.7,0.8-1.4,1.6-2.2,2.3L54.1,258z"/>
	<path style="fill:#666666;" d="M59.1,257h4v-2.2h0.8v2.2h4v4.6H67v-0.5h-3.2v3.8H63v-3.8h-3.2v0.5h-0.8V257z M59.9,257.7v2.6H63
		v-2.6H59.9z M67,257.7h-3.2v2.6H67V257.7z"/>
	<path style="fill:#666666;" d="M70.3,257.9l0.8,0.2c-0.3,1.6-0.7,3-1.1,4.2l-0.8-0.3C69.7,260.5,70.1,259.1,70.3,257.9z
		 M71.8,256.7h0.8v6c0,0.6,0.3,0.9,0.9,0.9h2c0.7,0.1,1.1-0.2,1.1-0.7c0-0.1,0-0.3,0-0.5c0.1-0.4,0.1-0.8,0.1-1.1
		c0.3,0.1,0.6,0.2,0.8,0.3c-0.1,0.6-0.2,1.2-0.3,1.6c-0.1,0.8-0.7,1.2-1.8,1.1h-2.2c-1.1,0-1.6-0.5-1.6-1.5V256.7z M74,254.7
		c0.4,0.6,0.9,1.4,1.5,2.6c0.1,0.1,0.1,0.3,0.2,0.3l-0.8,0.4c-0.5-1-1-2-1.6-3L74,254.7z M77.6,257.5c0.1,0.1,0.1,0.3,0.3,0.5
		c0.7,1.4,1.2,2.5,1.5,3.2l-0.8,0.4c-0.5-1.4-1.1-2.6-1.7-3.8L77.6,257.5z"/>
	<path style="fill:#666666;" d="M86.6,261l1.1,0.3c-0.5,1.8-1.8,2.8-3.7,2.8c-2.4-0.1-3.7-1.5-3.8-4.2c0.1-2.9,1.4-4.4,3.9-4.5
		c1.6,0.1,2.7,0.9,3.4,2.4l-1.1,0.3c-0.5-1.2-1.3-1.8-2.4-1.9c-1.7,0.2-2.7,1.4-2.8,3.6c0.1,2.2,1,3.3,2.8,3.5
		C85.4,263.3,86.3,262.5,86.6,261z"/>
	<path style="fill:#666666;" d="M93.4,255l0.7-0.3c0.1,0.1,0.1,0.3,0.2,0.5c0.2,0.3,0.3,0.5,0.3,0.7l-0.3,0.2h4.1v0.7h-8.3v2.4
		c0,1.6-0.1,2.7-0.2,3.5c-0.1,0.7-0.4,1.5-0.8,2.3c-0.1,0-0.1-0.1-0.2-0.2c-0.1-0.1-0.2-0.2-0.5-0.4c0.4-0.7,0.6-1.3,0.8-2
		c0.1-0.6,0.2-1.7,0.2-3.1V256h4.5C93.7,255.6,93.5,255.3,93.4,255z M90.2,263.6H94v-1.4h-3.1v-0.7H94v-4.4h0.8v4.4h3.1v0.7h-3.1
		v1.4h3.8v0.7h-8.4V263.6z M90.4,260.3c0.8-0.9,1.3-1.8,1.5-2.9l0.8,0.2c-0.1,0.4-0.2,0.7-0.3,1c0.1,0.1,0.3,0.3,0.5,0.5
		c0.4,0.4,0.7,0.7,0.9,0.9l-0.6,0.5c-0.3-0.4-0.7-0.9-1.2-1.3c-0.3,0.5-0.6,1-1.1,1.5C90.7,260.7,90.6,260.5,90.4,260.3z
		 M94.9,260.2c0.8-0.8,1.3-1.7,1.7-2.7l0.8,0.2c0,0,0,0.1,0,0.1c-0.1,0.3-0.3,0.6-0.4,0.8c0.6,0.5,1.1,1,1.6,1.6l-0.6,0.6
		c-0.4-0.5-0.9-1-1.4-1.5c-0.3,0.5-0.6,0.9-1.1,1.4c-0.1-0.1-0.1-0.1-0.3-0.2C95.1,260.3,95,260.2,94.9,260.2z"/>
	<path style="fill:#666666;" d="M99.4,263.9v-0.5c0.5-1.1,1.4-2.1,2.7-3c1.3-0.9,1.9-1.8,1.9-2.5c0-1-0.6-1.5-1.7-1.6
		c-0.9,0.1-1.5,0.6-1.8,1.6l-0.8-0.4c0.5-1.4,1.4-2.1,2.8-2c1.6,0.1,2.4,0.8,2.5,2.2c0.1,1.1-0.6,2.2-2.1,3.2
		c-1.2,0.8-1.9,1.6-2.3,2.4h4.4v0.7H99.4z"/>
	<path style="fill:#666666;" d="M108.8,264.1c-1.9,0-2.8-1.5-2.8-4.3c0-2.8,1-4.3,2.8-4.4c1.8,0.1,2.8,1.5,2.8,4.4
		C111.5,262.6,110.6,264,108.8,264.1z M108.7,256.1c-1.2,0.1-1.7,1.3-1.8,3.6c0,2.4,0.6,3.6,1.8,3.6c1.2,0,1.8-1.2,1.8-3.6
		C110.5,257.3,109.9,256.1,108.7,256.1z"/>
	<path style="fill:#666666;" d="M121.9,258.2h-7.6v0.5c0,1.5-0.1,2.6-0.3,3.5c-0.2,0.9-0.6,1.8-1.2,2.7c-0.3-0.3-0.5-0.6-0.6-0.7
		c0.9-1.2,1.3-3,1.3-5.4v-3.4h8.4V258.2z M114.3,256v1.5h6.8V256H114.3z M119.2,262.6l0.6-0.5c0.9,0.8,1.7,1.5,2.4,2.2l-0.6,0.5
		c-0.2-0.2-0.4-0.5-0.6-0.7c-2.4,0-4.1,0.1-5.1,0.2c-0.2,0-0.4,0-0.7,0.1l-0.3-0.8c0.4-0.1,0.7-0.3,0.9-0.5c0.5-0.5,1-1,1.3-1.5
		h-2.6V261h8.1v0.7H118c-0.6,0.8-1.2,1.4-1.6,1.8c1.3,0,2.6,0,3.9,0C119.9,263.2,119.5,262.8,119.2,262.6z M115.1,259.2h6.4v0.7
		h-6.4V259.2z"/>
</g>
<g>
	<path style="fill:#666666;" d="M26,151.2h10.5v2H26V151.2z M26.4,159h9.8v8.2h-2.5v-0.7h-4.9v0.7h-2.5V159z M27.1,153.8h8.6v4.6
		h-8.6V153.8z M28.9,160.9v1.1h1.3v-1.1H28.9z M28.9,163.7v1.1h1.3v-1.1H28.9z M33.1,155.7h-3.6v0.8h3.6V155.7z M33.8,160.9h-1.3
		v1.1h1.3V160.9z M32.4,163.7v1.1h1.3v-1.1H32.4z M39.2,163h-2.2v-10.8h2.2V163z M39.9,150.5h2.5v13.9c0.1,1.7-0.6,2.6-2.2,2.6
		c-0.5,0-1.4,0.1-2.5,0.1c-0.2-0.9-0.4-1.7-0.5-2.4c0.8,0,1.5,0,2,0c0.6,0,0.9-0.2,0.8-0.8V150.5z"/>
	<path style="fill:#666666;" d="M43.9,165.2c0.6-1.2,1.1-2.7,1.5-4.4l2.5,0.8c-0.6,2-1.1,3.5-1.6,4.5L43.9,165.2z M47.1,150.9
		l3.1-0.6c0.3,0.4,0.6,1,1,1.7c0.2,0.3,0.3,0.6,0.4,0.7h1.7c0.2-0.4,0.6-1.1,1.2-2.1c0-0.1,0.1-0.2,0.1-0.3l3.2,0.7
		c-0.4,0.6-0.8,1.1-1.3,1.7h2.6v7.2h-5.6c0.2,0.3,0.6,0.8,1.1,1.4c0.2,0.3,0.4,0.6,0.6,0.7l-2.3,1.7c-0.7-1.1-1.3-2.1-2-3l1.3-0.8
		h-6.5v-7.2h2.5c-0.2-0.3-0.5-0.8-0.8-1.3C47.3,151.1,47.2,151,47.1,150.9z M56.2,161.6l2.3-1.1c0.5,0.8,1.2,1.9,2,3.3
		c0.2,0.5,0.4,0.8,0.6,1l-2.5,1.1c-0.1-0.2-0.2-0.5-0.4-0.8c-0.2-0.4-0.4-0.7-0.5-0.9c-0.2,0.7-0.3,1.1-0.4,1.2
		c-0.3,1.1-1.2,1.7-2.8,1.6h-3.9c-1.7,0-2.6-0.9-2.5-2.8v-3.4h2.8v2.7c0,0.8,0.4,1.2,1.1,1.1h1.8c0.8,0,1.3-0.3,1.3-0.9
		c0.1-0.3,0.2-0.6,0.2-1c0,0,0,0,0-0.3c0.6,0.2,1.2,0.4,1.8,0.6C56.7,162.4,56.5,162,56.2,161.6z M56.2,157.4v-2.2h-7.5v2.2H56.2z"
		/>
	<path style="fill:#666666;" d="M74.5,150.4c0,1.5,0,3,0,4.4H79v2.3h-2.5l2.1,1.1c-1.1,2-2.1,3.6-3.2,4.9c0.1,0.3,0.3,0.7,0.6,1.1
		c0.1,0.2,0.2,0.3,0.3,0.2c0.1,0,0.2-0.2,0.2-0.4c0.1-0.7,0.3-1.6,0.4-2.6c0.3,0.2,0.8,0.4,1.4,0.6c0.4,0.1,0.6,0.2,0.8,0.3
		c-0.2,1.7-0.4,2.8-0.6,3.3c-0.3,1.1-1,1.7-2.2,1.8c-1.1,0-2.1-0.7-2.8-2.1c0,0-0.1,0.1-0.1,0.1c-1,0.9-1.9,1.6-2.5,2.1
		c-0.1-0.1-0.3-0.3-0.5-0.5c-0.5-0.6-1-1.1-1.3-1.3c0.3-0.2,0.6-0.3,0.8-0.4c-0.5-0.4-1-0.8-1.5-1.3c0,0.4,0.1,1,0.1,1.6
		c0-0.1,0,0,0.1,0.5c-0.2,0-0.6,0.1-1,0.3c-0.5,0.1-1.2,0.4-2.1,0.6c-0.1,0-0.2,0.1-0.3,0.1c-0.4,0.2-0.7,0.4-0.9,0.5l-1-1.7
		c0.5-0.4,0.7-0.8,0.6-1.4V164c0,0-0.1,0.1-0.2,0.1c-0.3,0.2-0.7,0.4-1.3,0.8c-0.1-0.4-0.3-1-0.6-1.8c-0.1-0.3-0.2-0.5-0.2-0.6
		c1.3-0.7,2.3-1.4,3-2.1h-2.6v-2.2h3.4c0-0.1,0-0.2-0.1-0.4c0-0.2-0.1-0.3-0.1-0.4l2.8-0.1c0.1,0.3,0.2,0.6,0.4,1h3.1v2.2h-0.9
		l1.5,1.3c-0.2,0.2-0.5,0.4-0.9,0.8c-0.3,0.2-0.5,0.3-0.6,0.4c0.1,0.1,0.4,0.3,0.6,0.5c0.1,0.1,0.2,0.2,0.3,0.2
		c0.1-0.1,0.4-0.4,0.6-0.6c0.1-0.1,0.3-0.3,0.4-0.4c-0.3-1.4-0.6-3.2-0.7-5.5h-9.9v-2.3h3.6v-0.9h-3v-2.1h3v-1.3h2.7v1.3h2.8v2.1
		h-2.8v0.9h3.5c0-0.5,0-1.3-0.1-2.5c0-0.9,0-1.6,0-1.9H74.5z M67.9,160.8c0.1,0.1,0.3,0.2,0.6,0.4c0.2,0.2,0.4,0.3,0.5,0.4
		c0.1-0.1,0.4-0.4,0.6-0.6c0.3-0.2,0.5-0.4,0.6-0.6h-2.6c-0.4,0.5-0.8,1-1.3,1.5v2.6c0.7-0.3,1.3-0.5,1.9-0.7
		c-0.2-0.1-0.5-0.4-0.9-0.8c-0.4-0.3-0.7-0.5-0.8-0.6L67.9,160.8z M74.6,152l1.8-1.3c0.4,0.3,0.9,0.9,1.6,1.6
		c0.3,0.3,0.6,0.6,0.7,0.7l-2,1.5C76.1,153.8,75.4,152.9,74.6,152z M74.8,159.6c0.4-0.7,0.9-1.5,1.4-2.5h-1.6
		C74.7,158,74.8,158.9,74.8,159.6z"/>
</g>
<g>
	<path style="fill:#666666;" d="M30.1,298.7h0.8v1.4h3.8v5.7h-3.8v1.1c-0.1,0.5,0.3,0.7,0.9,0.7h2c0.6,0,0.9-0.1,1-0.5
		c0.1-0.2,0.1-0.7,0.2-1.3c0.3,0.1,0.6,0.2,0.8,0.3c-0.1,0.5-0.1,1-0.3,1.4c-0.1,0.6-0.7,1-1.7,0.9h-2.3c-1.1,0.1-1.6-0.4-1.5-1.4
		v-1.1h-3v0.7h-0.8V300h3.8V298.7z M27.1,300.8v1.8h3v-1.8H27.1z M27.1,303.3v1.8h3v-1.8H27.1z M33.8,300.8h-3v1.8h3V300.8z
		 M30.9,305h3v-1.8h-3V305z"/>
	<path style="fill:#666666;" d="M40,306.2c0,0.1,0,0.2,0,0.4c0,0.2,0,0.4,0,0.5c-0.6,0.3-1.2,0.7-1.5,1c0,0-0.1,0.1-0.1,0.1
		c-0.1,0.1-0.2,0.2-0.4,0.3l-0.5-0.6c0.3-0.3,0.4-0.5,0.3-0.9v-4h-1.3v-0.7h2.1v4.9c0.1-0.1,0.3-0.2,0.5-0.3
		C39.5,306.5,39.8,306.3,40,306.2z M37.6,298.9c0.2,0.2,0.4,0.5,0.8,0.8c0.4,0.4,0.7,0.7,0.8,0.8l-0.7,0.6c-0.5-0.6-1-1.2-1.5-1.8
		L37.6,298.9z M40.4,304.2h2.3v-1.7h-3.3v-0.8h3.3v-1.7c-0.3,0-0.8,0-1.4,0c-0.6,0-1,0-1.3,0c0-0.1-0.1-0.3-0.1-0.5
		c0-0.1,0-0.2,0-0.3c2.2-0.1,4.3-0.1,6.2-0.3l0.2,0.7c-0.9,0.1-1.8,0.1-2.7,0.2v1.7h3.2v0.8h-3.2v1.7h2.3v4.5H45V308h-3.8v0.7h-0.8
		V304.2z M41.2,305v2.3H45V305H41.2z"/>
	<path style="fill:#666666;" d="M50.5,304.2v1.5H49v-1.5H50.5z M50.5,307.3v1.4H49v-1.4H50.5z"/>
	<path style="fill:#666666;" d="M60.8,307.5V302h-2v-0.7c0.3,0,0.5,0,0.8-0.1c0.2,0,0.5-0.1,0.7-0.2c0.2-0.1,0.4-0.3,0.5-0.4
		c0.1-0.2,0.2-0.4,0.3-0.7h0.7v7.7H60.8z"/>
	<path style="fill:#666666;" d="M64.7,300.9c0.1-0.2,0.3-0.4,0.5-0.6c0.2-0.2,0.4-0.3,0.7-0.4c0.3-0.1,0.6-0.1,0.8-0.1
		c0.4,0,0.8,0.1,1.1,0.2s0.5,0.3,0.7,0.4s0.3,0.4,0.4,0.6c0.1,0.2,0.1,0.5,0.1,0.7c0,0.3-0.1,0.7-0.3,0.9c-0.2,0.3-0.4,0.5-0.8,0.6
		c0.5,0.1,0.8,0.4,1,0.7c0.2,0.3,0.3,0.7,0.3,1.2c0,0.4-0.1,0.7-0.2,1c-0.1,0.3-0.3,0.5-0.5,0.7s-0.5,0.3-0.8,0.4s-0.6,0.2-1,0.2
		c-0.4,0-0.7,0-1-0.1c-0.3-0.1-0.6-0.2-0.8-0.4c-0.2-0.2-0.4-0.4-0.6-0.7c-0.1-0.3-0.2-0.6-0.2-1c0-0.5,0.1-0.8,0.3-1.2
		s0.6-0.6,1-0.7c-0.3-0.1-0.6-0.3-0.8-0.6c-0.2-0.3-0.3-0.6-0.3-1C64.6,301.5,64.6,301.2,64.7,300.9z M65.7,306.4
		c0.3,0.3,0.7,0.4,1.2,0.4c0.2,0,0.4,0,0.6-0.1c0.2-0.1,0.4-0.2,0.5-0.3c0.1-0.1,0.2-0.3,0.3-0.5c0.1-0.2,0.1-0.4,0.1-0.6
		c0-0.2,0-0.4-0.1-0.6c-0.1-0.2-0.2-0.3-0.3-0.5c-0.1-0.1-0.3-0.2-0.5-0.3c-0.2-0.1-0.4-0.1-0.6-0.1c-0.2,0-0.4,0-0.6,0.1
		c-0.2,0.1-0.4,0.2-0.5,0.3c-0.1,0.1-0.3,0.3-0.3,0.5s-0.1,0.4-0.1,0.6C65.3,305.8,65.4,306.1,65.7,306.4z M65.6,302.4
		c0.1,0.2,0.2,0.3,0.3,0.4c0.1,0.1,0.3,0.2,0.4,0.2c0.2,0,0.3,0.1,0.5,0.1c0.4,0,0.7-0.1,0.9-0.3c0.2-0.2,0.4-0.5,0.4-0.9
		s-0.1-0.7-0.4-0.9s-0.5-0.3-0.9-0.3c-0.2,0-0.4,0-0.5,0.1c-0.2,0.1-0.3,0.1-0.4,0.2c-0.1,0.1-0.2,0.2-0.3,0.4
		c-0.1,0.1-0.1,0.3-0.1,0.5C65.5,302,65.6,302.2,65.6,302.4z"/>
	<path style="fill:#666666;" d="M73.9,300.9c-0.2-0.2-0.5-0.3-0.9-0.3c-0.4,0-0.7,0.1-0.9,0.3c-0.2,0.2-0.4,0.4-0.6,0.7
		c-0.1,0.3-0.2,0.6-0.3,0.9c-0.1,0.3-0.1,0.7-0.1,1l0,0c0.2-0.4,0.5-0.6,0.8-0.8c0.3-0.2,0.7-0.2,1.1-0.2c0.4,0,0.7,0.1,1,0.2
		c0.3,0.1,0.5,0.3,0.7,0.5c0.2,0.2,0.4,0.5,0.5,0.8c0.1,0.3,0.2,0.6,0.2,1c0,0.3,0,0.6-0.1,0.9c-0.1,0.3-0.2,0.6-0.4,0.8
		c-0.2,0.2-0.5,0.5-0.8,0.6c-0.3,0.2-0.7,0.2-1.2,0.2c-0.6,0-1-0.1-1.4-0.3s-0.6-0.5-0.8-0.9c-0.2-0.4-0.3-0.8-0.4-1.2
		c-0.1-0.4-0.1-0.8-0.1-1.3c0-0.5,0-1,0.1-1.5c0.1-0.5,0.2-0.9,0.5-1.3c0.2-0.4,0.5-0.7,0.9-0.9s0.8-0.3,1.4-0.3
		c0.6,0,1.1,0.2,1.5,0.5c0.4,0.3,0.6,0.8,0.6,1.5h-0.9C74.3,301.4,74.2,301.1,73.9,300.9z M72.3,303.5c-0.2,0.1-0.4,0.2-0.5,0.4
		s-0.2,0.3-0.3,0.6c-0.1,0.2-0.1,0.4-0.1,0.7s0,0.5,0.1,0.7c0.1,0.2,0.2,0.4,0.3,0.5c0.1,0.2,0.3,0.3,0.5,0.4
		c0.2,0.1,0.4,0.1,0.7,0.1s0.5,0,0.7-0.1c0.2-0.1,0.4-0.2,0.5-0.4s0.2-0.3,0.3-0.5s0.1-0.4,0.1-0.6c0-0.2,0-0.5-0.1-0.7
		c-0.1-0.2-0.2-0.4-0.3-0.6c-0.1-0.2-0.3-0.3-0.5-0.4c-0.2-0.1-0.4-0.1-0.7-0.1S72.5,303.4,72.3,303.5z"/>
	<path style="fill:#666666;" d="M81.8,307.5V302h-2v-0.7c0.3,0,0.5,0,0.8-0.1c0.2,0,0.5-0.1,0.7-0.2c0.2-0.1,0.4-0.3,0.5-0.4
		c0.1-0.2,0.2-0.4,0.3-0.7h0.7v7.7H81.8z"/>
	<path style="fill:#666666;" d="M88.9,300.9c-0.2-0.2-0.5-0.3-0.9-0.3c-0.4,0-0.7,0.1-0.9,0.3c-0.2,0.2-0.4,0.4-0.6,0.7
		c-0.1,0.3-0.2,0.6-0.3,0.9c-0.1,0.3-0.1,0.7-0.1,1l0,0c0.2-0.4,0.5-0.6,0.8-0.8c0.3-0.2,0.7-0.2,1.1-0.2c0.4,0,0.7,0.1,1,0.2
		c0.3,0.1,0.5,0.3,0.7,0.5c0.2,0.2,0.4,0.5,0.5,0.8c0.1,0.3,0.2,0.6,0.2,1c0,0.3,0,0.6-0.1,0.9c-0.1,0.3-0.2,0.6-0.4,0.8
		c-0.2,0.2-0.5,0.5-0.8,0.6c-0.3,0.2-0.7,0.2-1.2,0.2c-0.6,0-1-0.1-1.4-0.3s-0.6-0.5-0.8-0.9c-0.2-0.4-0.3-0.8-0.4-1.2
		c-0.1-0.4-0.1-0.8-0.1-1.3c0-0.5,0-1,0.1-1.5c0.1-0.5,0.2-0.9,0.5-1.3c0.2-0.4,0.5-0.7,0.9-0.9s0.8-0.3,1.4-0.3
		c0.6,0,1.1,0.2,1.5,0.5c0.4,0.3,0.6,0.8,0.6,1.5h-0.9C89.3,301.4,89.2,301.1,88.9,300.9z M87.3,303.5c-0.2,0.1-0.4,0.2-0.5,0.4
		s-0.2,0.3-0.3,0.6c-0.1,0.2-0.1,0.4-0.1,0.7s0,0.5,0.1,0.7c0.1,0.2,0.2,0.4,0.3,0.5c0.1,0.2,0.3,0.3,0.5,0.4
		c0.2,0.1,0.4,0.1,0.7,0.1s0.5,0,0.7-0.1c0.2-0.1,0.4-0.2,0.5-0.4s0.2-0.3,0.3-0.5s0.1-0.4,0.1-0.6c0-0.2,0-0.5-0.1-0.7
		c-0.1-0.2-0.2-0.4-0.3-0.6c-0.1-0.2-0.3-0.3-0.5-0.4c-0.2-0.1-0.4-0.1-0.7-0.1S87.5,303.4,87.3,303.5z"/>
	<path style="fill:#666666;" d="M91.8,300.9c0.1-0.2,0.3-0.4,0.5-0.6c0.2-0.2,0.4-0.3,0.7-0.4c0.3-0.1,0.6-0.1,0.8-0.1
		c0.4,0,0.8,0.1,1.1,0.2s0.5,0.3,0.7,0.4s0.3,0.4,0.4,0.6c0.1,0.2,0.1,0.5,0.1,0.7c0,0.3-0.1,0.7-0.3,0.9c-0.2,0.3-0.4,0.5-0.8,0.6
		c0.5,0.1,0.8,0.4,1,0.7c0.2,0.3,0.3,0.7,0.3,1.2c0,0.4-0.1,0.7-0.2,1c-0.1,0.3-0.3,0.5-0.5,0.7s-0.5,0.3-0.8,0.4s-0.6,0.2-1,0.2
		c-0.4,0-0.7,0-1-0.1c-0.3-0.1-0.6-0.2-0.8-0.4c-0.2-0.2-0.4-0.4-0.6-0.7c-0.1-0.3-0.2-0.6-0.2-1c0-0.5,0.1-0.8,0.3-1.2
		s0.6-0.6,1-0.7c-0.3-0.1-0.6-0.3-0.8-0.6c-0.2-0.3-0.3-0.6-0.3-1C91.6,301.5,91.6,301.2,91.8,300.9z M92.7,306.4
		c0.3,0.3,0.7,0.4,1.2,0.4c0.2,0,0.4,0,0.6-0.1c0.2-0.1,0.4-0.2,0.5-0.3c0.1-0.1,0.2-0.3,0.3-0.5c0.1-0.2,0.1-0.4,0.1-0.6
		c0-0.2,0-0.4-0.1-0.6c-0.1-0.2-0.2-0.3-0.3-0.5c-0.1-0.1-0.3-0.2-0.5-0.3c-0.2-0.1-0.4-0.1-0.6-0.1c-0.2,0-0.4,0-0.6,0.1
		c-0.2,0.1-0.4,0.2-0.5,0.3c-0.1,0.1-0.3,0.3-0.3,0.5s-0.1,0.4-0.1,0.6C92.3,305.8,92.4,306.1,92.7,306.4z M92.7,302.4
		c0.1,0.2,0.2,0.3,0.3,0.4c0.1,0.1,0.3,0.2,0.4,0.2c0.2,0,0.3,0.1,0.5,0.1c0.4,0,0.7-0.1,0.9-0.3c0.2-0.2,0.4-0.5,0.4-0.9
		s-0.1-0.7-0.4-0.9s-0.5-0.3-0.9-0.3c-0.2,0-0.4,0-0.5,0.1c-0.2,0.1-0.3,0.1-0.4,0.2c-0.1,0.1-0.2,0.2-0.3,0.4
		c-0.1,0.1-0.1,0.3-0.1,0.5C92.6,302,92.6,302.2,92.7,302.4z"/>
	<path style="fill:#666666;" d="M97.5,301.4c0.1-0.3,0.3-0.6,0.5-0.9c0.2-0.2,0.5-0.4,0.8-0.6c0.3-0.1,0.7-0.2,1.1-0.2
		c0.3,0,0.6,0,0.9,0.1c0.3,0.1,0.5,0.2,0.8,0.4c0.2,0.2,0.4,0.4,0.5,0.7s0.2,0.6,0.2,1c0,0.3-0.1,0.6-0.2,0.9
		c-0.1,0.3-0.2,0.5-0.4,0.7c-0.2,0.2-0.4,0.4-0.6,0.6c-0.2,0.2-0.5,0.3-0.7,0.5c-0.2,0.1-0.5,0.3-0.7,0.4c-0.2,0.1-0.5,0.3-0.7,0.4
		c-0.2,0.2-0.4,0.3-0.5,0.5c-0.1,0.2-0.2,0.4-0.3,0.6h3.9v0.8h-5c0-0.5,0.1-0.8,0.2-1.2c0.1-0.3,0.3-0.6,0.5-0.8
		c0.2-0.2,0.4-0.4,0.7-0.6s0.5-0.3,0.8-0.5c0.3-0.2,0.6-0.4,0.9-0.6c0.2-0.2,0.4-0.3,0.6-0.5s0.3-0.4,0.4-0.6
		c0.1-0.2,0.1-0.4,0.1-0.7c0-0.2,0-0.4-0.1-0.6s-0.2-0.3-0.3-0.4s-0.3-0.2-0.5-0.3c-0.2-0.1-0.4-0.1-0.6-0.1c-0.3,0-0.5,0.1-0.7,0.2
		c-0.2,0.1-0.3,0.3-0.5,0.4c-0.1,0.2-0.2,0.4-0.3,0.6c-0.1,0.2-0.1,0.5-0.1,0.7h-0.9C97.3,302.1,97.4,301.8,97.5,301.4z"/>
	<path style="fill:#666666;" d="M107.9,300.8l-0.4,2.2l0,0c0.2-0.2,0.4-0.3,0.6-0.4s0.5-0.1,0.8-0.1c0.3,0,0.7,0.1,1,0.2
		c0.3,0.1,0.6,0.3,0.8,0.5c0.2,0.2,0.4,0.5,0.5,0.8c0.1,0.3,0.2,0.7,0.2,1.2c0,0.3-0.1,0.6-0.2,0.9c-0.1,0.3-0.3,0.6-0.5,0.8
		c-0.2,0.2-0.5,0.4-0.8,0.6c-0.3,0.1-0.7,0.2-1.2,0.2c-0.3,0-0.6,0-0.9-0.1c-0.3-0.1-0.5-0.2-0.8-0.4s-0.4-0.4-0.5-0.7
		s-0.2-0.6-0.2-0.9h0.9c0,0.2,0.1,0.4,0.1,0.5c0.1,0.2,0.2,0.3,0.3,0.4s0.3,0.2,0.5,0.3c0.2,0.1,0.4,0.1,0.6,0.1
		c0.2,0,0.4,0,0.6-0.1c0.2-0.1,0.4-0.2,0.5-0.3c0.1-0.2,0.3-0.3,0.4-0.6c0.1-0.2,0.1-0.5,0.1-0.8c0-0.3,0-0.5-0.1-0.7
		c-0.1-0.2-0.2-0.4-0.4-0.6c-0.2-0.2-0.3-0.3-0.5-0.4c-0.2-0.1-0.4-0.1-0.7-0.1c-0.3,0-0.6,0.1-0.8,0.2c-0.2,0.1-0.4,0.3-0.6,0.5
		l-0.8,0l0.7-4h3.8v0.8H107.9z"/>
	<path style="fill:#666666;" d="M117.5,304.9v0.8h-1v1.8h-0.9v-1.8h-3.4v-0.9l3.5-5h0.7v5.1H117.5z M115.6,301.1L115.6,301.1
		l-2.6,3.7h2.6V301.1z"/>
	<path style="fill:#666666;" d="M122.3,302.1c-0.3,0.5-0.6,1.1-0.9,1.7c-0.3,0.6-0.5,1.2-0.6,1.8c-0.2,0.6-0.3,1.2-0.3,1.8h-1
		c0-0.6,0.1-1.3,0.3-1.9c0.2-0.6,0.4-1.2,0.7-1.8c0.3-0.6,0.6-1.1,0.9-1.6c0.3-0.5,0.7-1,1.1-1.4h-4v-0.9h5v0.8
		C123,301.1,122.6,301.6,122.3,302.1z"/>
	<path style="fill:#666666;" d="M126.8,307.5V302h-2v-0.7c0.3,0,0.5,0,0.8-0.1c0.2,0,0.5-0.1,0.7-0.2c0.2-0.1,0.4-0.3,0.5-0.4
		c0.1-0.2,0.2-0.4,0.3-0.7h0.7v7.7H126.8z"/>
</g>
<g>
	<path style="fill:#666666;" d="M31.6,334.7v0.9h-4.3v2.5h4v0.9h-4v2.7h4.3v0.9h-5.4v-7.7H31.6z"/>
	<path style="fill:#666666;" d="M35.7,339v0.9h-3.1V339H35.7z"/>
	<path style="fill:#666666;" d="M37.8,336.8v0.8h0c0.4-0.6,1-1,1.8-1c0.3,0,0.7,0.1,0.9,0.2c0.3,0.1,0.5,0.4,0.6,0.7
		c0.2-0.3,0.4-0.5,0.7-0.7c0.3-0.2,0.6-0.2,1-0.2c0.3,0,0.5,0,0.8,0.1s0.4,0.2,0.6,0.3c0.2,0.1,0.3,0.3,0.4,0.5
		c0.1,0.2,0.1,0.5,0.1,0.7v4.1h-0.9v-3.7c0-0.2,0-0.3,0-0.5c0-0.2-0.1-0.3-0.2-0.4c-0.1-0.1-0.2-0.2-0.3-0.3s-0.3-0.1-0.5-0.1
		c-0.5,0-0.8,0.1-1.1,0.4c-0.3,0.3-0.4,0.6-0.4,1v3.5h-0.9v-3.7c0-0.2,0-0.3,0-0.5c0-0.2-0.1-0.3-0.2-0.4c-0.1-0.1-0.2-0.2-0.3-0.3
		c-0.1-0.1-0.3-0.1-0.5-0.1c-0.3,0-0.5,0.1-0.7,0.2c-0.2,0.1-0.3,0.2-0.5,0.4c-0.1,0.2-0.2,0.3-0.3,0.5c-0.1,0.2-0.1,0.3-0.1,0.4
		v3.5h-0.9v-5.6H37.8z"/>
	<path style="fill:#666666;" d="M50.4,342.5c-0.2,0-0.4-0.1-0.6-0.2c-0.1-0.1-0.2-0.4-0.2-0.7c-0.3,0.3-0.5,0.5-0.9,0.7
		c-0.3,0.1-0.7,0.2-1.1,0.2c-0.3,0-0.5,0-0.7-0.1c-0.2-0.1-0.4-0.1-0.6-0.3c-0.2-0.1-0.3-0.3-0.4-0.5c-0.1-0.2-0.1-0.4-0.1-0.7
		c0-0.3,0.1-0.6,0.2-0.8c0.1-0.2,0.2-0.4,0.4-0.5c0.2-0.1,0.4-0.2,0.6-0.3c0.2-0.1,0.5-0.1,0.7-0.2c0.3-0.1,0.5-0.1,0.7-0.1
		s0.4-0.1,0.6-0.1s0.3-0.1,0.4-0.2s0.2-0.2,0.2-0.4c0-0.2,0-0.4-0.1-0.5c-0.1-0.1-0.2-0.2-0.3-0.3c-0.1-0.1-0.3-0.1-0.4-0.1
		c-0.1,0-0.3,0-0.4,0c-0.4,0-0.7,0.1-1,0.2c-0.3,0.1-0.4,0.4-0.4,0.8h-0.9c0-0.3,0.1-0.6,0.2-0.9c0.1-0.2,0.3-0.4,0.5-0.6
		c0.2-0.1,0.5-0.3,0.7-0.3c0.3-0.1,0.6-0.1,0.9-0.1c0.3,0,0.5,0,0.8,0.1s0.5,0.1,0.7,0.2s0.4,0.3,0.5,0.5c0.1,0.2,0.2,0.5,0.2,0.8
		v2.9c0,0.2,0,0.4,0,0.5c0,0.1,0.1,0.2,0.3,0.2c0.1,0,0.2,0,0.3-0.1v0.7C50.9,342.5,50.7,342.5,50.4,342.5z M49.2,339.7
		c-0.2,0-0.4,0.1-0.6,0.1c-0.2,0-0.4,0.1-0.6,0.1c-0.2,0-0.4,0.1-0.6,0.2c-0.2,0.1-0.3,0.2-0.4,0.3c-0.1,0.1-0.2,0.3-0.2,0.5
		c0,0.2,0,0.3,0.1,0.4c0.1,0.1,0.1,0.2,0.2,0.3c0.1,0.1,0.2,0.1,0.3,0.1c0.1,0,0.3,0,0.4,0c0.3,0,0.6,0,0.8-0.1
		c0.2-0.1,0.4-0.2,0.5-0.3c0.1-0.1,0.2-0.3,0.3-0.4c0.1-0.1,0.1-0.3,0.1-0.4v-0.9C49.5,339.6,49.3,339.7,49.2,339.7z"/>
	<path style="fill:#666666;" d="M52,335.8v-1.1h0.9v1.1H52z M52.9,336.8v5.6H52v-5.6H52.9z"/>
	<path style="fill:#666666;" d="M55.3,334.7v7.7h-0.9v-7.7H55.3z"/>
	<path style="fill:#666666;" d="M57,338v-1.2h1.2v1.2H57z M58.2,341.2v1.2H57v-1.2H58.2z"/>
	<path style="fill:#666666;" d="M63.7,334.7v7.7h-0.9v-7.7H63.7z"/>
	<path style="fill:#666666;" d="M65.2,335.8v-1.1h0.9v1.1H65.2z M66.1,336.8v5.6h-0.9v-5.6H66.1z"/>
	<path style="fill:#666666;" d="M68.4,336.8v0.9h0c0.4-0.7,1-1,1.8-1c0.4,0,0.7,0.1,0.9,0.2c0.2,0.1,0.4,0.2,0.6,0.4
		s0.3,0.4,0.3,0.6s0.1,0.5,0.1,0.8v3.7h-0.9v-3.8c0-0.3-0.1-0.6-0.3-0.8c-0.2-0.2-0.5-0.3-0.8-0.3c-0.3,0-0.5,0-0.7,0.1
		c-0.2,0.1-0.4,0.2-0.5,0.4s-0.2,0.3-0.3,0.6c-0.1,0.2-0.1,0.4-0.1,0.7v3.2h-0.9v-5.6H68.4z"/>
	<path style="fill:#666666;" d="M75.4,343.8c-0.1,0.2-0.2,0.3-0.3,0.5s-0.3,0.2-0.4,0.3c-0.2,0.1-0.3,0.1-0.5,0.1
		c-0.1,0-0.2,0-0.3,0c-0.1,0-0.2,0-0.3-0.1v-0.8c0.1,0,0.2,0.1,0.3,0.1c0.1,0,0.2,0,0.3,0c0.2,0,0.3,0,0.5-0.1
		c0.1-0.1,0.2-0.2,0.3-0.4l0.4-0.9l-2.2-5.6h1l1.6,4.6h0l1.6-4.6h1l-2.4,6.3C75.6,343.4,75.5,343.6,75.4,343.8z"/>
	<path style="fill:#666666;" d="M82.9,342c-0.4,0.3-0.9,0.5-1.6,0.5c-0.4,0-0.8-0.1-1.2-0.2c-0.3-0.1-0.6-0.3-0.8-0.6
		c-0.2-0.3-0.4-0.6-0.5-0.9c-0.1-0.4-0.2-0.8-0.2-1.2c0-0.4,0.1-0.8,0.2-1.2c0.1-0.4,0.3-0.7,0.5-0.9c0.2-0.3,0.5-0.5,0.8-0.6
		c0.3-0.1,0.7-0.2,1.1-0.2c0.5,0,0.9,0.1,1.2,0.3c0.3,0.2,0.6,0.5,0.8,0.8s0.3,0.7,0.4,1c0.1,0.4,0.1,0.7,0.1,1.1h-4.2
		c0,0.2,0,0.5,0.1,0.7s0.2,0.4,0.3,0.6c0.1,0.2,0.3,0.3,0.6,0.4c0.2,0.1,0.5,0.2,0.8,0.2c0.4,0,0.7-0.1,1-0.3
		c0.2-0.2,0.4-0.5,0.5-0.8h0.9C83.6,341.2,83.3,341.7,82.9,342z M82.7,338.5c-0.1-0.2-0.2-0.4-0.3-0.5c-0.1-0.1-0.3-0.3-0.5-0.3
		c-0.2-0.1-0.4-0.1-0.6-0.1c-0.2,0-0.5,0-0.6,0.1c-0.2,0.1-0.4,0.2-0.5,0.3s-0.2,0.3-0.3,0.5c-0.1,0.2-0.1,0.4-0.1,0.6h3.2
		C82.8,338.9,82.8,338.6,82.7,338.5z"/>
	<path style="fill:#666666;" d="M86.2,341.2v1.2H85v-1.2H86.2z"/>
	<path style="fill:#666666;" d="M91.1,337.8c-0.2-0.2-0.5-0.3-0.9-0.3c-0.3,0-0.6,0.1-0.8,0.2c-0.2,0.1-0.4,0.3-0.5,0.5
		c-0.1,0.2-0.2,0.4-0.3,0.7c-0.1,0.3-0.1,0.5-0.1,0.8c0,0.3,0,0.5,0.1,0.8c0.1,0.2,0.2,0.5,0.3,0.7c0.1,0.2,0.3,0.3,0.5,0.5
		s0.5,0.2,0.7,0.2c0.5,0,0.8-0.1,1.1-0.4c0.3-0.2,0.4-0.6,0.5-1h0.9c-0.1,0.7-0.4,1.2-0.8,1.6s-1,0.6-1.7,0.6
		c-0.4,0-0.8-0.1-1.1-0.2c-0.3-0.1-0.6-0.3-0.8-0.6s-0.4-0.6-0.5-0.9c-0.1-0.3-0.2-0.7-0.2-1.2c0-0.4,0.1-0.8,0.2-1.2
		c0.1-0.4,0.3-0.7,0.5-1c0.2-0.3,0.5-0.5,0.8-0.6c0.3-0.2,0.7-0.2,1.2-0.2c0.3,0,0.6,0,0.9,0.1s0.5,0.2,0.7,0.4
		c0.2,0.2,0.4,0.4,0.5,0.6s0.2,0.5,0.3,0.9h-1C91.5,338.3,91.3,338,91.1,337.8z"/>
	<path style="fill:#666666;" d="M93.1,336.8h1.2l1.3,2l1.4-2h1.1l-1.9,2.6l2.2,3h-1.2l-1.6-2.3l-1.6,2.3H93l2.1-2.9L93.1,336.8z"/>
	<path style="fill:#666666;" d="M104.1,339.8c0,0.1,0,0.2,0,0.3c0,0.2,0.1,0.3,0.3,0.3c0.2,0,0.3-0.1,0.5-0.2
		c0.2-0.2,0.3-0.3,0.5-0.6c0.1-0.2,0.3-0.5,0.4-0.8c0.1-0.3,0.1-0.6,0.1-0.9c0-0.4-0.1-0.8-0.2-1.2s-0.4-0.6-0.7-0.9
		c-0.3-0.2-0.6-0.4-0.9-0.6c-0.3-0.1-0.7-0.2-1.1-0.2c-0.5,0-0.9,0.1-1.3,0.3s-0.7,0.4-1,0.8c-0.3,0.3-0.5,0.7-0.7,1.1
		c-0.2,0.4-0.3,0.9-0.3,1.3c0,0.5,0.1,0.9,0.3,1.4c0.2,0.4,0.4,0.8,0.7,1.1c0.3,0.3,0.7,0.5,1.1,0.7s0.8,0.3,1.3,0.3
		c0.5,0,1-0.1,1.5-0.4c0.5-0.2,0.9-0.6,1.2-1h0.7c-0.2,0.3-0.4,0.6-0.6,0.8c-0.2,0.2-0.5,0.4-0.8,0.6c-0.3,0.2-0.6,0.3-0.9,0.4
		s-0.7,0.1-1,0.1c-0.6,0-1.1-0.1-1.6-0.3c-0.5-0.2-0.9-0.5-1.3-0.9c-0.4-0.4-0.6-0.8-0.9-1.3s-0.3-1-0.3-1.6c0-0.6,0.1-1.1,0.3-1.6
		c0.2-0.5,0.5-0.9,0.9-1.3c0.4-0.4,0.8-0.6,1.3-0.9c0.5-0.2,1-0.3,1.5-0.3c0.5,0,1,0.1,1.4,0.2c0.4,0.2,0.8,0.4,1.2,0.7
		c0.3,0.3,0.6,0.6,0.8,1c0.2,0.4,0.3,0.9,0.3,1.3c0,0.5-0.1,0.9-0.3,1.3c-0.2,0.4-0.4,0.7-0.6,1s-0.5,0.5-0.8,0.6s-0.6,0.2-0.8,0.2
		c-0.2,0-0.3-0.1-0.5-0.2c-0.1-0.1-0.2-0.3-0.2-0.5h0c-0.2,0.2-0.4,0.4-0.6,0.5c-0.2,0.1-0.5,0.2-0.7,0.2c-0.2,0-0.4,0-0.6-0.1
		c-0.2-0.1-0.4-0.2-0.5-0.4c-0.1-0.2-0.2-0.3-0.3-0.5s-0.1-0.4-0.1-0.7c0-0.4,0.1-0.7,0.2-1.1s0.3-0.7,0.5-1s0.5-0.5,0.8-0.7
		c0.3-0.2,0.7-0.3,1-0.3c0.3,0,0.5,0.1,0.7,0.2s0.4,0.4,0.5,0.7l0.2-0.7h0.7l-0.9,3.1C104.2,339.6,104.2,339.7,104.1,339.8z
		 M102.3,337.2c-0.2,0.1-0.4,0.3-0.5,0.6c-0.2,0.2-0.3,0.5-0.4,0.7c-0.1,0.3-0.1,0.5-0.1,0.8c0,0.3,0.1,0.6,0.3,0.8
		c0.2,0.2,0.4,0.3,0.7,0.3c0.2,0,0.5-0.1,0.7-0.2c0.2-0.2,0.4-0.3,0.5-0.6c0.2-0.2,0.3-0.5,0.4-0.8c0.1-0.3,0.1-0.5,0.1-0.7
		c0-0.1,0-0.3-0.1-0.4s-0.1-0.2-0.2-0.3c-0.1-0.1-0.2-0.2-0.3-0.2s-0.2-0.1-0.3-0.1C102.7,336.9,102.5,337,102.3,337.2z"/>
	<path style="fill:#666666;" d="M112.1,342.5c-0.2,0-0.4-0.1-0.6-0.2c-0.1-0.1-0.2-0.4-0.2-0.7c-0.3,0.3-0.5,0.5-0.9,0.7
		c-0.3,0.1-0.7,0.2-1.1,0.2c-0.3,0-0.5,0-0.7-0.1c-0.2-0.1-0.4-0.1-0.6-0.3c-0.2-0.1-0.3-0.3-0.4-0.5c-0.1-0.2-0.1-0.4-0.1-0.7
		c0-0.3,0.1-0.6,0.2-0.8c0.1-0.2,0.2-0.4,0.4-0.5c0.2-0.1,0.4-0.2,0.6-0.3c0.2-0.1,0.5-0.1,0.7-0.2c0.3-0.1,0.5-0.1,0.7-0.1
		s0.4-0.1,0.6-0.1s0.3-0.1,0.4-0.2s0.2-0.2,0.2-0.4c0-0.2,0-0.4-0.1-0.5c-0.1-0.1-0.2-0.2-0.3-0.3c-0.1-0.1-0.3-0.1-0.4-0.1
		c-0.1,0-0.3,0-0.4,0c-0.4,0-0.7,0.1-1,0.2c-0.3,0.1-0.4,0.4-0.4,0.8h-0.9c0-0.3,0.1-0.6,0.2-0.9c0.1-0.2,0.3-0.4,0.5-0.6
		c0.2-0.1,0.5-0.3,0.7-0.3c0.3-0.1,0.6-0.1,0.9-0.1c0.3,0,0.5,0,0.8,0.1s0.5,0.1,0.7,0.2s0.4,0.3,0.5,0.5c0.1,0.2,0.2,0.5,0.2,0.8
		v2.9c0,0.2,0,0.4,0,0.5c0,0.1,0.1,0.2,0.3,0.2c0.1,0,0.2,0,0.3-0.1v0.7C112.6,342.5,112.4,342.5,112.1,342.5z M110.8,339.7
		c-0.2,0-0.4,0.1-0.6,0.1c-0.2,0-0.4,0.1-0.6,0.1c-0.2,0-0.4,0.1-0.6,0.2c-0.2,0.1-0.3,0.2-0.4,0.3c-0.1,0.1-0.2,0.3-0.2,0.5
		c0,0.2,0,0.3,0.1,0.4c0.1,0.1,0.1,0.2,0.2,0.3c0.1,0.1,0.2,0.1,0.3,0.1c0.1,0,0.3,0,0.4,0c0.3,0,0.6,0,0.8-0.1
		c0.2-0.1,0.4-0.2,0.5-0.3c0.1-0.1,0.2-0.3,0.3-0.4c0.1-0.1,0.1-0.3,0.1-0.4v-0.9C111.1,339.6,111,339.7,110.8,339.7z"/>
	<path style="fill:#666666;" d="M114.6,334.7v7.7h-0.9v-7.7H114.6z"/>
	<path style="fill:#666666;" d="M116,335.8v-1.1h0.9v1.1H116z M117,336.8v5.6H116v-5.6H117z"/>
	<path style="fill:#666666;" d="M119.3,334.7v2.9h0c0.2-0.3,0.4-0.5,0.7-0.7c0.3-0.1,0.7-0.2,1.1-0.2c0.4,0,0.8,0.1,1.1,0.2
		c0.3,0.2,0.6,0.4,0.8,0.6c0.2,0.3,0.4,0.6,0.5,0.9s0.2,0.7,0.2,1.1c0,0.4-0.1,0.8-0.2,1.1c-0.1,0.4-0.3,0.7-0.5,0.9
		c-0.2,0.3-0.5,0.5-0.8,0.6c-0.3,0.2-0.7,0.2-1.1,0.2c-0.1,0-0.3,0-0.5,0c-0.2,0-0.3-0.1-0.5-0.1c-0.2-0.1-0.3-0.2-0.5-0.3
		c-0.1-0.1-0.3-0.2-0.4-0.4h0v0.7h-0.9v-7.7H119.3z M122.6,338.8c-0.1-0.2-0.2-0.5-0.3-0.7s-0.3-0.3-0.5-0.5s-0.5-0.2-0.8-0.2
		c-0.3,0-0.6,0.1-0.8,0.2c-0.2,0.1-0.4,0.3-0.5,0.5c-0.1,0.2-0.2,0.4-0.3,0.7c-0.1,0.3-0.1,0.5-0.1,0.8c0,0.3,0,0.5,0.1,0.8
		c0.1,0.3,0.2,0.5,0.3,0.7c0.1,0.2,0.3,0.4,0.5,0.5c0.2,0.1,0.5,0.2,0.8,0.2c0.3,0,0.6-0.1,0.8-0.2c0.2-0.1,0.4-0.3,0.5-0.5
		c0.1-0.2,0.2-0.4,0.3-0.7s0.1-0.5,0.1-0.8C122.7,339.3,122.7,339,122.6,338.8z"/>
	<path style="fill:#666666;" d="M129.1,342.5c-0.2,0-0.4-0.1-0.6-0.2c-0.1-0.1-0.2-0.4-0.2-0.7c-0.3,0.3-0.5,0.5-0.9,0.7
		c-0.3,0.1-0.7,0.2-1.1,0.2c-0.3,0-0.5,0-0.7-0.1c-0.2-0.1-0.4-0.1-0.6-0.3c-0.2-0.1-0.3-0.3-0.4-0.5c-0.1-0.2-0.1-0.4-0.1-0.7
		c0-0.3,0.1-0.6,0.2-0.8c0.1-0.2,0.2-0.4,0.4-0.5c0.2-0.1,0.4-0.2,0.6-0.3c0.2-0.1,0.5-0.1,0.7-0.2c0.3-0.1,0.5-0.1,0.7-0.1
		s0.4-0.1,0.6-0.1s0.3-0.1,0.4-0.2s0.2-0.2,0.2-0.4c0-0.2,0-0.4-0.1-0.5c-0.1-0.1-0.2-0.2-0.3-0.3c-0.1-0.1-0.3-0.1-0.4-0.1
		c-0.1,0-0.3,0-0.4,0c-0.4,0-0.7,0.1-1,0.2c-0.3,0.1-0.4,0.4-0.4,0.8h-0.9c0-0.3,0.1-0.6,0.2-0.9c0.1-0.2,0.3-0.4,0.5-0.6
		c0.2-0.1,0.5-0.3,0.7-0.3c0.3-0.1,0.6-0.1,0.9-0.1c0.3,0,0.5,0,0.8,0.1c0.2,0,0.5,0.1,0.7,0.2s0.4,0.3,0.5,0.5
		c0.1,0.2,0.2,0.5,0.2,0.8v2.9c0,0.2,0,0.4,0,0.5c0,0.1,0.1,0.2,0.3,0.2c0.1,0,0.2,0,0.3-0.1v0.7
		C129.6,342.5,129.4,342.5,129.1,342.5z M127.8,339.7c-0.2,0-0.4,0.1-0.6,0.1c-0.2,0-0.4,0.1-0.6,0.1c-0.2,0-0.4,0.1-0.6,0.2
		c-0.2,0.1-0.3,0.2-0.4,0.3c-0.1,0.1-0.2,0.3-0.2,0.5c0,0.2,0,0.3,0.1,0.4c0.1,0.1,0.1,0.2,0.2,0.3c0.1,0.1,0.2,0.1,0.3,0.1
		c0.1,0,0.3,0,0.4,0c0.3,0,0.6,0,0.8-0.1c0.2-0.1,0.4-0.2,0.5-0.3c0.1-0.1,0.2-0.3,0.3-0.4c0.1-0.1,0.1-0.3,0.1-0.4v-0.9
		C128.1,339.6,128,339.7,127.8,339.7z"/>
	<path style="fill:#666666;" d="M131.5,334.7v2.9h0c0.2-0.3,0.4-0.5,0.7-0.7c0.3-0.1,0.7-0.2,1.1-0.2c0.4,0,0.8,0.1,1.1,0.2
		c0.3,0.2,0.6,0.4,0.8,0.6c0.2,0.3,0.4,0.6,0.5,0.9s0.2,0.7,0.2,1.1c0,0.4-0.1,0.8-0.2,1.1c-0.1,0.4-0.3,0.7-0.5,0.9
		c-0.2,0.3-0.5,0.5-0.8,0.6c-0.3,0.2-0.7,0.2-1.1,0.2c-0.1,0-0.3,0-0.5,0c-0.2,0-0.3-0.1-0.5-0.1c-0.2-0.1-0.3-0.2-0.5-0.3
		c-0.1-0.1-0.3-0.2-0.4-0.4h0v0.7h-0.9v-7.7H131.5z M134.8,338.8c-0.1-0.2-0.2-0.5-0.3-0.7s-0.3-0.3-0.5-0.5s-0.5-0.2-0.8-0.2
		c-0.3,0-0.6,0.1-0.8,0.2c-0.2,0.1-0.4,0.3-0.5,0.5c-0.1,0.2-0.2,0.4-0.3,0.7c-0.1,0.3-0.1,0.5-0.1,0.8c0,0.3,0,0.5,0.1,0.8
		c0.1,0.3,0.2,0.5,0.3,0.7c0.1,0.2,0.3,0.4,0.5,0.5c0.2,0.1,0.5,0.2,0.8,0.2c0.3,0,0.6-0.1,0.8-0.2c0.2-0.1,0.4-0.3,0.5-0.5
		c0.1-0.2,0.2-0.4,0.3-0.7s0.1-0.5,0.1-0.8C134.9,339.3,134.9,339,134.8,338.8z"/>
	<path style="fill:#666666;" d="M141.3,342.5c-0.2,0-0.4-0.1-0.6-0.2c-0.1-0.1-0.2-0.4-0.2-0.7c-0.3,0.3-0.5,0.5-0.9,0.7
		c-0.3,0.1-0.7,0.2-1.1,0.2c-0.3,0-0.5,0-0.7-0.1c-0.2-0.1-0.4-0.1-0.6-0.3c-0.2-0.1-0.3-0.3-0.4-0.5c-0.1-0.2-0.1-0.4-0.1-0.7
		c0-0.3,0.1-0.6,0.2-0.8c0.1-0.2,0.2-0.4,0.4-0.5c0.2-0.1,0.4-0.2,0.6-0.3c0.2-0.1,0.5-0.1,0.7-0.2c0.3-0.1,0.5-0.1,0.7-0.1
		s0.4-0.1,0.6-0.1s0.3-0.1,0.4-0.2s0.2-0.2,0.2-0.4c0-0.2,0-0.4-0.1-0.5c-0.1-0.1-0.2-0.2-0.3-0.3c-0.1-0.1-0.3-0.1-0.4-0.1
		c-0.1,0-0.3,0-0.4,0c-0.4,0-0.7,0.1-1,0.2c-0.3,0.1-0.4,0.4-0.4,0.8h-0.9c0-0.3,0.1-0.6,0.2-0.9c0.1-0.2,0.3-0.4,0.5-0.6
		c0.2-0.1,0.5-0.3,0.7-0.3c0.3-0.1,0.6-0.1,0.9-0.1c0.3,0,0.5,0,0.8,0.1s0.5,0.1,0.7,0.2s0.4,0.3,0.5,0.5c0.1,0.2,0.2,0.5,0.2,0.8
		v2.9c0,0.2,0,0.4,0,0.5c0,0.1,0.1,0.2,0.3,0.2c0.1,0,0.2,0,0.3-0.1v0.7C141.8,342.5,141.6,342.5,141.3,342.5z M140,339.7
		c-0.2,0-0.4,0.1-0.6,0.1c-0.2,0-0.4,0.1-0.6,0.1c-0.2,0-0.4,0.1-0.6,0.2c-0.2,0.1-0.3,0.2-0.4,0.3c-0.1,0.1-0.2,0.3-0.2,0.5
		c0,0.2,0,0.3,0.1,0.4c0.1,0.1,0.1,0.2,0.2,0.3c0.1,0.1,0.2,0.1,0.3,0.1c0.1,0,0.3,0,0.4,0c0.3,0,0.6,0,0.8-0.1
		c0.2-0.1,0.4-0.2,0.5-0.3c0.1-0.1,0.2-0.3,0.3-0.4c0.1-0.1,0.1-0.3,0.1-0.4v-0.9C140.3,339.6,140.2,339.7,140,339.7z"/>
	<path style="fill:#666666;" d="M145.8,339v0.9h-3.1V339H145.8z"/>
	<path style="fill:#666666;" d="M147,335.8v-1.1h0.9v1.1H147z M148,336.8v5.6H147v-5.6H148z"/>
	<path style="fill:#666666;" d="M150.3,336.8v0.9h0c0.4-0.7,1-1,1.8-1c0.4,0,0.7,0.1,0.9,0.2c0.2,0.1,0.4,0.2,0.6,0.4
		s0.3,0.4,0.3,0.6s0.1,0.5,0.1,0.8v3.7h-0.9v-3.8c0-0.3-0.1-0.6-0.3-0.8c-0.2-0.2-0.5-0.3-0.8-0.3c-0.3,0-0.5,0-0.7,0.1
		c-0.2,0.1-0.4,0.2-0.5,0.4s-0.2,0.3-0.3,0.6c-0.1,0.2-0.1,0.4-0.1,0.7v3.2h-0.9v-5.6H150.3z"/>
	<path style="fill:#666666;" d="M158.7,337.8c-0.2-0.2-0.5-0.3-0.9-0.3c-0.3,0-0.6,0.1-0.8,0.2c-0.2,0.1-0.4,0.3-0.5,0.5
		c-0.1,0.2-0.2,0.4-0.3,0.7c-0.1,0.3-0.1,0.5-0.1,0.8c0,0.3,0,0.5,0.1,0.8c0.1,0.2,0.2,0.5,0.3,0.7c0.1,0.2,0.3,0.3,0.5,0.5
		s0.5,0.2,0.7,0.2c0.5,0,0.8-0.1,1.1-0.4c0.3-0.2,0.4-0.6,0.5-1h0.9c-0.1,0.7-0.4,1.2-0.8,1.6s-1,0.6-1.7,0.6
		c-0.4,0-0.8-0.1-1.1-0.2c-0.3-0.1-0.6-0.3-0.8-0.6s-0.4-0.6-0.5-0.9c-0.1-0.3-0.2-0.7-0.2-1.2c0-0.4,0.1-0.8,0.2-1.2
		c0.1-0.4,0.3-0.7,0.5-1c0.2-0.3,0.5-0.5,0.8-0.6c0.3-0.2,0.7-0.2,1.2-0.2c0.3,0,0.6,0,0.9,0.1s0.5,0.2,0.7,0.4
		c0.2,0.2,0.4,0.4,0.5,0.6s0.2,0.5,0.3,0.9h-1C159.1,338.3,159,338,158.7,337.8z"/>
	<path style="fill:#666666;" d="M162.6,341.2v1.2h-1.2v-1.2H162.6z"/>
	<path style="fill:#666666;" d="M167.5,337.8c-0.2-0.2-0.5-0.3-0.9-0.3c-0.3,0-0.6,0.1-0.8,0.2c-0.2,0.1-0.4,0.3-0.5,0.5
		c-0.1,0.2-0.2,0.4-0.3,0.7c-0.1,0.3-0.1,0.5-0.1,0.8c0,0.3,0,0.5,0.1,0.8c0.1,0.2,0.2,0.5,0.3,0.7c0.1,0.2,0.3,0.3,0.5,0.5
		s0.5,0.2,0.7,0.2c0.5,0,0.8-0.1,1.1-0.4c0.3-0.2,0.4-0.6,0.5-1h0.9c-0.1,0.7-0.4,1.2-0.8,1.6s-1,0.6-1.7,0.6
		c-0.4,0-0.8-0.1-1.1-0.2c-0.3-0.1-0.6-0.3-0.8-0.6s-0.4-0.6-0.5-0.9c-0.1-0.3-0.2-0.7-0.2-1.2c0-0.4,0.1-0.8,0.2-1.2
		c0.1-0.4,0.3-0.7,0.5-1c0.2-0.3,0.5-0.5,0.8-0.6c0.3-0.2,0.7-0.2,1.2-0.2c0.3,0,0.6,0,0.9,0.1s0.5,0.2,0.7,0.4
		c0.2,0.2,0.4,0.4,0.5,0.6s0.2,0.5,0.3,0.9h-1C167.9,338.3,167.8,338,167.5,337.8z"/>
	<path style="fill:#666666;" d="M169.9,338.5c0.1-0.4,0.3-0.7,0.5-0.9s0.5-0.5,0.9-0.6c0.3-0.2,0.7-0.2,1.2-0.2
		c0.4,0,0.8,0.1,1.2,0.2s0.6,0.4,0.8,0.6s0.4,0.6,0.5,0.9s0.2,0.7,0.2,1.2s-0.1,0.8-0.2,1.1c-0.1,0.4-0.3,0.7-0.5,0.9
		s-0.5,0.5-0.8,0.6s-0.7,0.2-1.2,0.2c-0.4,0-0.8-0.1-1.2-0.2c-0.3-0.1-0.6-0.4-0.9-0.6s-0.4-0.6-0.5-0.9c-0.1-0.4-0.2-0.7-0.2-1.1
		S169.8,338.8,169.9,338.5z M170.8,340.5c0.1,0.3,0.2,0.5,0.4,0.7s0.3,0.3,0.6,0.4c0.2,0.1,0.4,0.1,0.7,0.1s0.5,0,0.7-0.1
		c0.2-0.1,0.4-0.2,0.6-0.4c0.2-0.2,0.3-0.4,0.4-0.7c0.1-0.3,0.1-0.6,0.1-0.9c0-0.3,0-0.6-0.1-0.9c-0.1-0.3-0.2-0.5-0.4-0.7
		c-0.2-0.2-0.3-0.3-0.6-0.4c-0.2-0.1-0.4-0.1-0.7-0.1s-0.5,0-0.7,0.1c-0.2,0.1-0.4,0.2-0.6,0.4c-0.2,0.2-0.3,0.4-0.4,0.7
		c-0.1,0.3-0.1,0.6-0.1,0.9C170.7,339.9,170.7,340.2,170.8,340.5z"/>
	<path style="fill:#666666;" d="M177.1,336.8v0.8h0c0.4-0.6,1-1,1.8-1c0.3,0,0.7,0.1,0.9,0.2c0.3,0.1,0.5,0.4,0.6,0.7
		c0.2-0.3,0.4-0.5,0.7-0.7c0.3-0.2,0.6-0.2,1-0.2c0.3,0,0.5,0,0.8,0.1s0.4,0.2,0.6,0.3c0.2,0.1,0.3,0.3,0.4,0.5
		c0.1,0.2,0.1,0.5,0.1,0.7v4.1h-0.9v-3.7c0-0.2,0-0.3,0-0.5c0-0.2-0.1-0.3-0.2-0.4c-0.1-0.1-0.2-0.2-0.3-0.3s-0.3-0.1-0.5-0.1
		c-0.5,0-0.8,0.1-1.1,0.4c-0.3,0.3-0.4,0.6-0.4,1v3.5h-0.9v-3.7c0-0.2,0-0.3,0-0.5c0-0.2-0.1-0.3-0.2-0.4c-0.1-0.1-0.2-0.2-0.3-0.3
		c-0.1-0.1-0.3-0.1-0.5-0.1c-0.3,0-0.5,0.1-0.7,0.2c-0.2,0.1-0.3,0.2-0.5,0.4c-0.1,0.2-0.2,0.3-0.3,0.5c-0.1,0.2-0.1,0.3-0.1,0.4
		v3.5h-0.9v-5.6H177.1z"/>
</g>
<g>
	<path style="fill:#666666;" d="M26,321.8c1-1.5,1.7-3.1,2.2-5l0.8,0.3c0,0.1-0.1,0.2-0.1,0.3c-0.2,0.5-0.4,1.2-0.8,1.9v7.5h-0.8
		v-5.8c-0.3,0.7-0.7,1.3-1.1,1.7C26.2,322.4,26.1,322.1,26,321.8z M29.8,324.3l0.4-0.6c0.9,0.5,1.6,0.9,2.2,1.3l2-1.9h-4.3v-0.7
		c0.1-0.4,0.3-0.8,0.4-1.3h-1.6v-0.7h1.8c0.1-0.5,0.3-0.9,0.4-1.4h-1.7v-0.7h1.9c0.1-0.3,0.1-0.6,0.2-1.1c0-0.2,0.1-0.3,0.1-0.4h0.9
		c0,0.1-0.1,0.4-0.2,0.7c-0.1,0.3-0.1,0.5-0.2,0.7h3.6v0.7h-3.8c-0.1,0.3-0.1,0.6-0.3,1.1c0,0.1-0.1,0.2-0.1,0.3h4.6v0.7h-4.8
		c-0.1,0.4-0.3,0.8-0.4,1.3h4.6v0.8l-2.3,2.3c0.5,0.2,0.9,0.5,1.2,0.7l-0.5,0.7c-0.7-0.5-1.8-1.2-3.5-2.1
		C30.1,324.5,29.9,324.4,29.8,324.3z"/>
	<path style="fill:#666666;" d="M36.9,324.1h1.5v-5.2h3.1v-0.8H37v-0.6h4.4v-0.8h0.8v0.8h4.4v0.6h-4.4v0.8h3.1v5.2h1.5v0.7h-10
		V324.1z M40.5,324.8l0.5,0.6c-0.2,0.1-0.5,0.2-0.8,0.3c-1.3,0.5-2.2,0.9-2.7,1c-0.2-0.3-0.3-0.6-0.4-0.7
		C38.2,325.7,39.4,325.3,40.5,324.8z M39.1,319.5v0.7h5.5v-0.7H39.1z M39.1,320.8v0.7h5.5v-0.7H39.1z M39.1,322.1v0.7h5.5v-0.7H39.1
		z M39.1,323.4v0.7h5.5v-0.7H39.1z M42.7,325.5l0.4-0.6c1.8,0.5,3,0.9,3.6,1.1l-0.4,0.7C45.2,326.3,44,325.9,42.7,325.5z"/>
	<path style="fill:#666666;" d="M50.7,322.3v1.5h-1.4v-1.5H50.7z M50.7,325.4v1.4h-1.4v-1.4H50.7z"/>
	<path style="fill:#666666;" d="M58.5,320.9c0-0.3,0-0.6,0.1-0.9s0.1-0.6,0.2-0.8c0.1-0.3,0.3-0.5,0.4-0.7s0.4-0.3,0.7-0.5
		c0.3-0.1,0.6-0.2,1-0.2c0.4,0,0.7,0.1,1,0.2c0.3,0.1,0.5,0.3,0.7,0.5s0.3,0.4,0.4,0.7c0.1,0.3,0.2,0.5,0.2,0.8s0.1,0.6,0.1,0.9
		s0,0.6,0,0.9c0,0.3,0,0.6,0,0.9c0,0.3,0,0.6-0.1,0.9c-0.1,0.3-0.1,0.6-0.2,0.8c-0.1,0.3-0.3,0.5-0.4,0.7c-0.2,0.2-0.4,0.3-0.7,0.5
		c-0.3,0.1-0.6,0.2-1,0.2c-0.4,0-0.7-0.1-1-0.2c-0.3-0.1-0.5-0.3-0.7-0.5c-0.2-0.2-0.3-0.4-0.4-0.7c-0.1-0.3-0.2-0.5-0.2-0.8
		c-0.1-0.3-0.1-0.6-0.1-0.9c0-0.3,0-0.6,0-0.9C58.5,321.5,58.5,321.2,58.5,320.9z M59.5,322.7c0,0.4,0.1,0.7,0.2,1
		c0.1,0.3,0.3,0.6,0.5,0.8c0.2,0.2,0.5,0.3,0.9,0.3c0.4,0,0.7-0.1,0.9-0.3c0.2-0.2,0.4-0.5,0.5-0.8c0.1-0.3,0.2-0.6,0.2-1
		c0-0.4,0-0.7,0-1c0-0.2,0-0.4,0-0.6c0-0.2,0-0.5-0.1-0.7s-0.1-0.4-0.1-0.7c-0.1-0.2-0.2-0.4-0.3-0.6s-0.3-0.3-0.4-0.4
		c-0.2-0.1-0.4-0.2-0.7-0.2c-0.3,0-0.5,0-0.7,0.2c-0.2,0.1-0.3,0.2-0.4,0.4s-0.2,0.4-0.3,0.6c-0.1,0.2-0.1,0.4-0.1,0.7
		c0,0.2-0.1,0.5-0.1,0.7c0,0.2,0,0.4,0,0.6C59.5,322,59.5,322.4,59.5,322.7z"/>
	<path style="fill:#666666;" d="M66,318.8l-0.4,2.2l0,0c0.2-0.2,0.4-0.3,0.6-0.4s0.5-0.1,0.8-0.1c0.3,0,0.7,0.1,1,0.2
		c0.3,0.1,0.6,0.3,0.8,0.5c0.2,0.2,0.4,0.5,0.5,0.8c0.1,0.3,0.2,0.7,0.2,1.2c0,0.3-0.1,0.6-0.2,0.9c-0.1,0.3-0.3,0.6-0.5,0.8
		c-0.2,0.2-0.5,0.4-0.8,0.6c-0.3,0.1-0.7,0.2-1.2,0.2c-0.3,0-0.6,0-0.9-0.1c-0.3-0.1-0.5-0.2-0.8-0.4s-0.4-0.4-0.5-0.7
		s-0.2-0.6-0.2-0.9h0.9c0,0.2,0.1,0.4,0.1,0.5c0.1,0.2,0.2,0.3,0.3,0.4s0.3,0.2,0.5,0.3c0.2,0.1,0.4,0.1,0.6,0.1
		c0.2,0,0.4,0,0.6-0.1c0.2-0.1,0.4-0.2,0.5-0.3c0.1-0.2,0.3-0.3,0.4-0.6c0.1-0.2,0.1-0.5,0.1-0.8c0-0.3,0-0.5-0.1-0.7
		c-0.1-0.2-0.2-0.4-0.4-0.6c-0.2-0.2-0.3-0.3-0.5-0.4c-0.2-0.1-0.4-0.1-0.7-0.1c-0.3,0-0.6,0.1-0.8,0.2c-0.2,0.1-0.4,0.3-0.6,0.5
		l-0.8,0l0.7-4h3.8v0.8H66z"/>
	<path style="fill:#666666;" d="M74.5,320.1c-0.3,0.5-0.6,1.1-0.9,1.7c-0.3,0.6-0.5,1.2-0.6,1.8c-0.2,0.6-0.3,1.2-0.3,1.8h-1
		c0-0.6,0.1-1.3,0.3-1.9c0.2-0.6,0.4-1.2,0.7-1.8c0.3-0.6,0.6-1.1,0.9-1.6c0.3-0.5,0.7-1,1.1-1.4h-4V318h5v0.8
		C75.2,319.2,74.8,319.6,74.5,320.1z"/>
	<path style="fill:#666666;" d="M79,325.5V320h-2v-0.7c0.3,0,0.5,0,0.8-0.1c0.2,0,0.5-0.1,0.7-0.2c0.2-0.1,0.4-0.3,0.5-0.4
		c0.1-0.2,0.2-0.4,0.3-0.7h0.7v7.7H79z"/>
	<path style="fill:#666666;" d="M85.9,319c0.1-0.2,0.3-0.4,0.5-0.6c0.2-0.2,0.4-0.3,0.7-0.4s0.6-0.1,0.8-0.1c0.4,0,0.8,0.1,1.1,0.2
		c0.3,0.1,0.5,0.3,0.7,0.4s0.3,0.4,0.4,0.6c0.1,0.2,0.1,0.5,0.1,0.7c0,0.3-0.1,0.7-0.3,0.9c-0.2,0.3-0.4,0.5-0.8,0.6
		c0.5,0.1,0.8,0.4,1,0.7c0.2,0.3,0.3,0.7,0.3,1.2c0,0.4-0.1,0.7-0.2,1c-0.1,0.3-0.3,0.5-0.5,0.7s-0.5,0.3-0.8,0.4s-0.6,0.2-1,0.2
		c-0.4,0-0.7,0-1-0.1c-0.3-0.1-0.6-0.2-0.8-0.4c-0.2-0.2-0.4-0.4-0.6-0.7c-0.1-0.3-0.2-0.6-0.2-1c0-0.5,0.1-0.8,0.3-1.2
		s0.6-0.6,1-0.7c-0.3-0.1-0.6-0.3-0.8-0.6c-0.2-0.3-0.3-0.6-0.3-1C85.8,319.5,85.8,319.2,85.9,319z M86.9,324.4
		c0.3,0.3,0.7,0.4,1.2,0.4c0.2,0,0.4,0,0.6-0.1c0.2-0.1,0.4-0.2,0.5-0.3c0.1-0.1,0.2-0.3,0.3-0.5c0.1-0.2,0.1-0.4,0.1-0.6
		c0-0.2,0-0.4-0.1-0.6c-0.1-0.2-0.2-0.3-0.3-0.5c-0.1-0.1-0.3-0.2-0.5-0.3c-0.2-0.1-0.4-0.1-0.6-0.1c-0.2,0-0.4,0-0.6,0.1
		c-0.2,0.1-0.4,0.2-0.5,0.3c-0.1,0.1-0.3,0.3-0.3,0.5s-0.1,0.4-0.1,0.6C86.5,323.8,86.6,324.2,86.9,324.4z M86.8,320.4
		c0.1,0.2,0.2,0.3,0.3,0.4c0.1,0.1,0.3,0.2,0.4,0.2c0.2,0,0.3,0.1,0.5,0.1c0.4,0,0.7-0.1,0.9-0.3c0.2-0.2,0.4-0.5,0.4-0.9
		s-0.1-0.7-0.4-0.9s-0.5-0.3-0.9-0.3c-0.2,0-0.4,0-0.5,0.1c-0.2,0.1-0.3,0.1-0.4,0.2c-0.1,0.1-0.2,0.2-0.3,0.4
		c-0.1,0.1-0.1,0.3-0.1,0.5C86.7,320.1,86.8,320.2,86.8,320.4z"/>
	<path style="fill:#666666;" d="M92,319c0.1-0.2,0.3-0.4,0.5-0.6c0.2-0.2,0.4-0.3,0.7-0.4s0.6-0.1,0.8-0.1c0.4,0,0.8,0.1,1.1,0.2
		c0.3,0.1,0.5,0.3,0.7,0.4s0.3,0.4,0.4,0.6c0.1,0.2,0.1,0.5,0.1,0.7c0,0.3-0.1,0.7-0.3,0.9c-0.2,0.3-0.4,0.5-0.8,0.6
		c0.5,0.1,0.8,0.4,1,0.7c0.2,0.3,0.3,0.7,0.3,1.2c0,0.4-0.1,0.7-0.2,1c-0.1,0.3-0.3,0.5-0.5,0.7s-0.5,0.3-0.8,0.4s-0.6,0.2-1,0.2
		c-0.4,0-0.7,0-1-0.1c-0.3-0.1-0.6-0.2-0.8-0.4c-0.2-0.2-0.4-0.4-0.6-0.7c-0.1-0.3-0.2-0.6-0.2-1c0-0.5,0.1-0.8,0.3-1.2
		s0.6-0.6,1-0.7c-0.3-0.1-0.6-0.3-0.8-0.6c-0.2-0.3-0.3-0.6-0.3-1C91.8,319.5,91.8,319.2,92,319z M92.9,324.4
		c0.3,0.3,0.7,0.4,1.2,0.4c0.2,0,0.4,0,0.6-0.1c0.2-0.1,0.4-0.2,0.5-0.3c0.1-0.1,0.2-0.3,0.3-0.5c0.1-0.2,0.1-0.4,0.1-0.6
		c0-0.2,0-0.4-0.1-0.6c-0.1-0.2-0.2-0.3-0.3-0.5c-0.1-0.1-0.3-0.2-0.5-0.3c-0.2-0.1-0.4-0.1-0.6-0.1c-0.2,0-0.4,0-0.6,0.1
		c-0.2,0.1-0.4,0.2-0.5,0.3c-0.1,0.1-0.3,0.3-0.3,0.5s-0.1,0.4-0.1,0.6C92.5,323.8,92.6,324.2,92.9,324.4z M92.9,320.4
		c0.1,0.2,0.2,0.3,0.3,0.4c0.1,0.1,0.3,0.2,0.4,0.2c0.2,0,0.3,0.1,0.5,0.1c0.4,0,0.7-0.1,0.9-0.3c0.2-0.2,0.4-0.5,0.4-0.9
		s-0.1-0.7-0.4-0.9s-0.5-0.3-0.9-0.3c-0.2,0-0.4,0-0.5,0.1c-0.2,0.1-0.3,0.1-0.4,0.2c-0.1,0.1-0.2,0.2-0.3,0.4
		c-0.1,0.1-0.1,0.3-0.1,0.5C92.7,320.1,92.8,320.2,92.9,320.4z"/>
	<path style="fill:#666666;" d="M100,325.5V320h-2v-0.7c0.3,0,0.5,0,0.8-0.1c0.2,0,0.5-0.1,0.7-0.2c0.2-0.1,0.4-0.3,0.5-0.4
		c0.1-0.2,0.2-0.4,0.3-0.7h0.7v7.7H100z"/>
	<path style="fill:#666666;" d="M105.1,318.8l-0.4,2.2l0,0c0.2-0.2,0.4-0.3,0.6-0.4s0.5-0.1,0.8-0.1c0.3,0,0.7,0.1,1,0.2
		c0.3,0.1,0.6,0.3,0.8,0.5c0.2,0.2,0.4,0.5,0.5,0.8c0.1,0.3,0.2,0.7,0.2,1.2c0,0.3-0.1,0.6-0.2,0.9c-0.1,0.3-0.3,0.6-0.5,0.8
		c-0.2,0.2-0.5,0.4-0.8,0.6c-0.3,0.1-0.7,0.2-1.2,0.2c-0.3,0-0.6,0-0.9-0.1c-0.3-0.1-0.5-0.2-0.8-0.4s-0.4-0.4-0.5-0.7
		s-0.2-0.6-0.2-0.9h0.9c0,0.2,0.1,0.4,0.1,0.5c0.1,0.2,0.2,0.3,0.3,0.4s0.3,0.2,0.5,0.3c0.2,0.1,0.4,0.1,0.6,0.1
		c0.2,0,0.4,0,0.6-0.1c0.2-0.1,0.4-0.2,0.5-0.3c0.1-0.2,0.3-0.3,0.4-0.6c0.1-0.2,0.1-0.5,0.1-0.8c0-0.3,0-0.5-0.1-0.7
		c-0.1-0.2-0.2-0.4-0.4-0.6c-0.2-0.2-0.3-0.3-0.5-0.4c-0.2-0.1-0.4-0.1-0.7-0.1c-0.3,0-0.6,0.1-0.8,0.2c-0.2,0.1-0.4,0.3-0.6,0.5
		l-0.8,0l0.7-4h3.8v0.8H105.1z"/>
	<path style="fill:#666666;" d="M114.1,318.8l-0.4,2.2l0,0c0.2-0.2,0.4-0.3,0.6-0.4s0.5-0.1,0.8-0.1c0.3,0,0.7,0.1,1,0.2
		c0.3,0.1,0.6,0.3,0.8,0.5c0.2,0.2,0.4,0.5,0.5,0.8c0.1,0.3,0.2,0.7,0.2,1.2c0,0.3-0.1,0.6-0.2,0.9c-0.1,0.3-0.3,0.6-0.5,0.8
		c-0.2,0.2-0.5,0.4-0.8,0.6c-0.3,0.1-0.7,0.2-1.2,0.2c-0.3,0-0.6,0-0.9-0.1c-0.3-0.1-0.5-0.2-0.8-0.4s-0.4-0.4-0.5-0.7
		s-0.2-0.6-0.2-0.9h0.9c0,0.2,0.1,0.4,0.1,0.5c0.1,0.2,0.2,0.3,0.3,0.4s0.3,0.2,0.5,0.3c0.2,0.1,0.4,0.1,0.6,0.1
		c0.2,0,0.4,0,0.6-0.1c0.2-0.1,0.4-0.2,0.5-0.3c0.1-0.2,0.3-0.3,0.4-0.6c0.1-0.2,0.1-0.5,0.1-0.8c0-0.3,0-0.5-0.1-0.7
		c-0.1-0.2-0.2-0.4-0.4-0.6c-0.2-0.2-0.3-0.3-0.5-0.4c-0.2-0.1-0.4-0.1-0.7-0.1c-0.3,0-0.6,0.1-0.8,0.2c-0.2,0.1-0.4,0.3-0.6,0.5
		l-0.8,0l0.7-4h3.8v0.8H114.1z"/>
	<path style="fill:#666666;" d="M121,325.5V320h-2v-0.7c0.3,0,0.5,0,0.8-0.1c0.2,0,0.5-0.1,0.7-0.2c0.2-0.1,0.4-0.3,0.5-0.4
		c0.1-0.2,0.2-0.4,0.3-0.7h0.7v7.7H121z"/>
	<path style="fill:#666666;" d="M125,319c0.1-0.2,0.3-0.4,0.5-0.6c0.2-0.2,0.4-0.3,0.7-0.4s0.6-0.1,0.8-0.1c0.4,0,0.8,0.1,1.1,0.2
		c0.3,0.1,0.5,0.3,0.7,0.4s0.3,0.4,0.4,0.6c0.1,0.2,0.1,0.5,0.1,0.7c0,0.3-0.1,0.7-0.3,0.9c-0.2,0.3-0.4,0.5-0.8,0.6
		c0.5,0.1,0.8,0.4,1,0.7c0.2,0.3,0.3,0.7,0.3,1.2c0,0.4-0.1,0.7-0.2,1c-0.1,0.3-0.3,0.5-0.5,0.7s-0.5,0.3-0.8,0.4
		c-0.3,0.1-0.6,0.2-1,0.2c-0.4,0-0.7,0-1-0.1c-0.3-0.1-0.6-0.2-0.8-0.4c-0.2-0.2-0.4-0.4-0.6-0.7c-0.1-0.3-0.2-0.6-0.2-1
		c0-0.5,0.1-0.8,0.3-1.2s0.6-0.6,1-0.7c-0.3-0.1-0.6-0.3-0.8-0.6c-0.2-0.3-0.3-0.6-0.3-1C124.8,319.5,124.9,319.2,125,319z
		 M126,324.4c0.3,0.3,0.7,0.4,1.2,0.4c0.2,0,0.4,0,0.6-0.1c0.2-0.1,0.4-0.2,0.5-0.3c0.1-0.1,0.2-0.3,0.3-0.5
		c0.1-0.2,0.1-0.4,0.1-0.6c0-0.2,0-0.4-0.1-0.6c-0.1-0.2-0.2-0.3-0.3-0.5c-0.1-0.1-0.3-0.2-0.5-0.3c-0.2-0.1-0.4-0.1-0.6-0.1
		c-0.2,0-0.4,0-0.6,0.1c-0.2,0.1-0.4,0.2-0.5,0.3c-0.1,0.1-0.3,0.3-0.3,0.5s-0.1,0.4-0.1,0.6C125.5,323.8,125.7,324.2,126,324.4z
		 M125.9,320.4c0.1,0.2,0.2,0.3,0.3,0.4c0.1,0.1,0.3,0.2,0.4,0.2c0.2,0,0.3,0.1,0.5,0.1c0.4,0,0.7-0.1,0.9-0.3
		c0.2-0.2,0.4-0.5,0.4-0.9s-0.1-0.7-0.4-0.9c-0.2-0.2-0.5-0.3-0.9-0.3c-0.2,0-0.4,0-0.5,0.1c-0.2,0.1-0.3,0.1-0.4,0.2
		c-0.1,0.1-0.2,0.2-0.3,0.4c-0.1,0.1-0.1,0.3-0.1,0.5C125.8,320.1,125.8,320.2,125.9,320.4z"/>
	<path style="fill:#666666;" d="M131,319c0.1-0.2,0.3-0.4,0.5-0.6c0.2-0.2,0.4-0.3,0.7-0.4s0.6-0.1,0.8-0.1c0.4,0,0.8,0.1,1.1,0.2
		c0.3,0.1,0.5,0.3,0.7,0.4s0.3,0.4,0.4,0.6c0.1,0.2,0.1,0.5,0.1,0.7c0,0.3-0.1,0.7-0.3,0.9c-0.2,0.3-0.4,0.5-0.8,0.6
		c0.5,0.1,0.8,0.4,1,0.7c0.2,0.3,0.3,0.7,0.3,1.2c0,0.4-0.1,0.7-0.2,1c-0.1,0.3-0.3,0.5-0.5,0.7s-0.5,0.3-0.8,0.4s-0.6,0.2-1,0.2
		c-0.4,0-0.7,0-1-0.1c-0.3-0.1-0.6-0.2-0.8-0.4c-0.2-0.2-0.4-0.4-0.6-0.7c-0.1-0.3-0.2-0.6-0.2-1c0-0.5,0.1-0.8,0.3-1.2
		s0.6-0.6,1-0.7c-0.3-0.1-0.6-0.3-0.8-0.6c-0.2-0.3-0.3-0.6-0.3-1C130.8,319.5,130.9,319.2,131,319z M132,324.4
		c0.3,0.3,0.7,0.4,1.2,0.4c0.2,0,0.4,0,0.6-0.1c0.2-0.1,0.4-0.2,0.5-0.3c0.1-0.1,0.2-0.3,0.3-0.5c0.1-0.2,0.1-0.4,0.1-0.6
		c0-0.2,0-0.4-0.1-0.6c-0.1-0.2-0.2-0.3-0.3-0.5c-0.1-0.1-0.3-0.2-0.5-0.3c-0.2-0.1-0.4-0.1-0.6-0.1c-0.2,0-0.4,0-0.6,0.1
		c-0.2,0.1-0.4,0.2-0.5,0.3c-0.1,0.1-0.3,0.3-0.3,0.5s-0.1,0.4-0.1,0.6C131.5,323.8,131.7,324.2,132,324.4z M131.9,320.4
		c0.1,0.2,0.2,0.3,0.3,0.4c0.1,0.1,0.3,0.2,0.4,0.2c0.2,0,0.3,0.1,0.5,0.1c0.4,0,0.7-0.1,0.9-0.3c0.2-0.2,0.4-0.5,0.4-0.9
		s-0.1-0.7-0.4-0.9s-0.5-0.3-0.9-0.3c-0.2,0-0.4,0-0.5,0.1c-0.2,0.1-0.3,0.1-0.4,0.2c-0.1,0.1-0.2,0.2-0.3,0.4
		c-0.1,0.1-0.1,0.3-0.1,0.5C131.8,320.1,131.8,320.2,131.9,320.4z"/>
	<path style="fill:#666666;" d="M138.6,322.1v-0.8h5.8v0.8H138.6z"/>
	<path style="fill:#666666;" d="M149.8,325.5V320h-2v-0.7c0.3,0,0.5,0,0.8-0.1c0.2,0,0.5-0.1,0.7-0.2c0.2-0.1,0.4-0.3,0.5-0.4
		c0.1-0.2,0.2-0.4,0.3-0.7h0.7v7.7H149.8z"/>
	<path style="fill:#666666;" d="M155.8,325.5V320h-2v-0.7c0.3,0,0.5,0,0.8-0.1c0.2,0,0.5-0.1,0.7-0.2c0.2-0.1,0.4-0.3,0.5-0.4
		c0.1-0.2,0.2-0.4,0.3-0.7h0.7v7.7H155.8z"/>
	<path style="fill:#666666;" d="M163,319c-0.2-0.2-0.5-0.3-0.9-0.3c-0.4,0-0.7,0.1-0.9,0.3c-0.2,0.2-0.4,0.4-0.6,0.7
		c-0.1,0.3-0.2,0.6-0.3,0.9c-0.1,0.3-0.1,0.7-0.1,1l0,0c0.2-0.4,0.5-0.6,0.8-0.8c0.3-0.2,0.7-0.2,1.1-0.2c0.4,0,0.7,0.1,1,0.2
		c0.3,0.1,0.5,0.3,0.7,0.5c0.2,0.2,0.4,0.5,0.5,0.8c0.1,0.3,0.2,0.6,0.2,1c0,0.3,0,0.6-0.1,0.9c-0.1,0.3-0.2,0.6-0.4,0.8
		c-0.2,0.2-0.5,0.5-0.8,0.6c-0.3,0.2-0.7,0.2-1.2,0.2c-0.6,0-1-0.1-1.4-0.3s-0.6-0.5-0.8-0.9c-0.2-0.4-0.3-0.8-0.4-1.2
		c-0.1-0.4-0.1-0.8-0.1-1.3c0-0.5,0-1,0.1-1.5c0.1-0.5,0.2-0.9,0.5-1.3c0.2-0.4,0.5-0.7,0.9-0.9s0.8-0.3,1.4-0.3
		c0.6,0,1.1,0.2,1.5,0.5c0.4,0.3,0.6,0.8,0.6,1.5h-0.9C163.3,319.5,163.2,319.2,163,319z M161.3,321.5c-0.2,0.1-0.4,0.2-0.5,0.4
		s-0.2,0.3-0.3,0.6c-0.1,0.2-0.1,0.4-0.1,0.7s0,0.5,0.1,0.7c0.1,0.2,0.2,0.4,0.3,0.5c0.1,0.2,0.3,0.3,0.5,0.4
		c0.2,0.1,0.4,0.1,0.7,0.1s0.5,0,0.7-0.1c0.2-0.1,0.4-0.2,0.5-0.4s0.2-0.3,0.3-0.5s0.1-0.4,0.1-0.6c0-0.2,0-0.5-0.1-0.7
		c-0.1-0.2-0.2-0.4-0.3-0.6c-0.1-0.2-0.3-0.3-0.5-0.4c-0.2-0.1-0.4-0.1-0.7-0.1S161.5,321.5,161.3,321.5z"/>
	<path style="fill:#666666;" d="M169.3,320.1c-0.3,0.5-0.6,1.1-0.9,1.7c-0.3,0.6-0.5,1.2-0.6,1.8c-0.2,0.6-0.3,1.2-0.3,1.8h-1
		c0-0.6,0.1-1.3,0.3-1.9c0.2-0.6,0.4-1.2,0.7-1.8c0.3-0.6,0.6-1.1,0.9-1.6c0.3-0.5,0.7-1,1.1-1.4h-4V318h5v0.8
		C170,319.2,169.7,319.6,169.3,320.1z"/>
	<path style="fill:#666666;" d="M171.4,320.9c0-0.3,0-0.6,0.1-0.9s0.1-0.6,0.2-0.8c0.1-0.3,0.3-0.5,0.4-0.7s0.4-0.3,0.7-0.5
		c0.3-0.1,0.6-0.2,1-0.2c0.4,0,0.7,0.1,1,0.2c0.3,0.1,0.5,0.3,0.7,0.5s0.3,0.4,0.4,0.7c0.1,0.3,0.2,0.5,0.2,0.8s0.1,0.6,0.1,0.9
		s0,0.6,0,0.9c0,0.3,0,0.6,0,0.9c0,0.3,0,0.6-0.1,0.9c-0.1,0.3-0.1,0.6-0.2,0.8c-0.1,0.3-0.3,0.5-0.4,0.7c-0.2,0.2-0.4,0.3-0.7,0.5
		c-0.3,0.1-0.6,0.2-1,0.2c-0.4,0-0.7-0.1-1-0.2c-0.3-0.1-0.5-0.3-0.7-0.5c-0.2-0.2-0.3-0.4-0.4-0.7c-0.1-0.3-0.2-0.5-0.2-0.8
		c-0.1-0.3-0.1-0.6-0.1-0.9c0-0.3,0-0.6,0-0.9C171.4,321.5,171.4,321.2,171.4,320.9z M172.4,322.7c0,0.4,0.1,0.7,0.2,1
		c0.1,0.3,0.3,0.6,0.5,0.8c0.2,0.2,0.5,0.3,0.9,0.3c0.4,0,0.7-0.1,0.9-0.3c0.2-0.2,0.4-0.5,0.5-0.8c0.1-0.3,0.2-0.6,0.2-1
		c0-0.4,0-0.7,0-1c0-0.2,0-0.4,0-0.6c0-0.2,0-0.5-0.1-0.7s-0.1-0.4-0.1-0.7c-0.1-0.2-0.2-0.4-0.3-0.6s-0.3-0.3-0.4-0.4
		c-0.2-0.1-0.4-0.2-0.7-0.2c-0.3,0-0.5,0-0.7,0.2c-0.2,0.1-0.3,0.2-0.4,0.4s-0.2,0.4-0.3,0.6c-0.1,0.2-0.1,0.4-0.1,0.7
		c0,0.2-0.1,0.5-0.1,0.7c0,0.2,0,0.4,0,0.6C172.3,322,172.4,322.4,172.4,322.7z"/>
</g>
<g>
	<g id="形状_2_copy_3_副本_4_5_">
		<g>
			<path style="fill-rule:evenodd;clip-rule:evenodd;fill:#CCCCCC;" d="M29.8,435.7c-1.3,2.5-2.4,4.6-3.7,7.2h1.8
				c0.3-0.6,0.5-1,0.9-1.7c0.9,0,1.6,0,2.5,0c-0.2-0.5-0.3-0.9-0.5-1.4h-1.4c0.4-0.8,0.6-1.3,1.3-2.4c0.7,1.9,1.3,3.8,1.9,5.5h1.6
				c-0.9-2.5-1.7-4.7-2.5-7.2H29.8z M34.7,442.9h1.5l0.3-7.2l-1.5,0L34.7,442.9z M37,442.9h1.6l0.2-5.4h-1.5L37,442.9z M37.4,435.7
				l0,1.2c0,0,1.2,0,1.5,0l0.1-1.2C37.6,435.7,37.5,435.7,37.4,435.7z M47.2,437.6c-0.3-0.1-0.6-0.1-0.9-0.1c-0.2,0-0.4,0-0.5,0.1
				c-0.2,0-0.3,0.1-0.5,0.1c-0.1,0.1-0.3,0.1-0.4,0.2c-0.1,0.1-0.2,0.2-0.3,0.3c-0.1,0.1-0.1,0.2-0.2,0.3c-0.1-0.2-0.1-0.3-0.2-0.4
				c-0.1-0.1-0.1-0.2-0.2-0.2c-0.1-0.1-0.2-0.1-0.3-0.2c-0.1-0.1-0.3-0.1-0.4-0.1c-0.1,0-0.3,0-0.5,0c-0.2,0-0.4,0-0.6,0.1
				c-0.2,0.1-0.4,0.1-0.5,0.2c-0.1,0.1-0.3,0.2-0.4,0.3c-0.1,0.1-0.2,0.2-0.3,0.4l0-0.9h-1.4l-0.2,5.4c0,0,1.2,0,1.5,0
				c0-0.5,0-1.1,0.1-1.9c0-0.8,0.1-1.3,0.2-1.6c0.1-0.3,0.2-0.5,0.4-0.6c0.2-0.2,0.4-0.2,0.7-0.2c0.1,0,0.3,0,0.4,0.1
				c0.1,0,0.2,0.1,0.3,0.2c0.1,0.1,0.1,0.2,0.2,0.3c0,0.1,0,0.2,0,0.4c0,0.3,0,0.9-0.1,1.7c0,0.8-0.1,1.4-0.1,1.7c0.3,0,1.2,0,1.5,0
				l0-1.5c0-0.5,0-0.9,0.1-1.3c0-0.3,0.1-0.6,0.1-0.8c0.1-0.2,0.1-0.3,0.3-0.5c0.1-0.1,0.2-0.2,0.4-0.3c0.1-0.1,0.3-0.1,0.4-0.1
				c0.2,0,0.3,0,0.4,0.1c0.1,0.1,0.2,0.1,0.3,0.3c0.1,0.1,0.1,0.3,0.1,0.6c0,0.2,0,0.5,0,0.8l-0.1,1.2c0,0.5-0.1,1-0.1,1.4
				c0.3,0,1.2,0,1.5,0c0-0.4,0-1,0.1-1.7c0-0.7,0.1-1.3,0.1-1.6c0-0.3,0-0.6,0-0.7c0-0.3-0.1-0.6-0.2-0.8
				C47.7,437.9,47.5,437.7,47.2,437.6z M52.9,437.6c-0.3-0.1-0.7-0.1-1.1-0.1c-0.3,0-0.7,0-1.1,0.1c-0.4,0-1.3,0.2-1.3,0.2l-0.2,1
				c0,0,1.5-0.5,2.1-0.5c0.2,0,0.3,0,0.5,0.1c0.1,0,0.3,0.1,0.3,0.2c0.1,0.1,0.1,0.2,0.1,0.3c0,0.1,0,0.1,0,0.2
				c0,0.1-0.1,0.1-0.1,0.2c-0.1,0.1-0.1,0.1-0.2,0.2c-0.1,0-0.2,0.1-0.3,0.1c-0.1,0-0.3,0.1-0.4,0.1c-0.5,0.1-0.9,0.2-1.2,0.3
				c-0.3,0.1-0.5,0.2-0.7,0.3c-0.2,0.1-0.3,0.2-0.4,0.4c-0.1,0.1-0.2,0.3-0.2,0.4c-0.1,0.1-0.1,0.3-0.1,0.4c0,0.3,0.1,0.5,0.2,0.8
				c0.1,0.3,0.3,0.5,0.6,0.6c0.3,0.1,0.7,0.2,1.1,0.2c0.1,0,0.3,0,0.4,0c0.1,0,0.3,0,0.6-0.1c0.1-0.4,0.2-0.7,0.3-0.9
				c-0.2,0.1-0.4,0.1-0.5,0.1c-0.1,0-0.2,0-0.4,0c-0.2,0-0.3,0-0.5-0.1c-0.1,0-0.2-0.1-0.3-0.2c-0.1-0.1-0.1-0.2-0.1-0.4
				c0-0.1,0-0.2,0.1-0.3c0-0.1,0.1-0.2,0.2-0.2c0.1-0.1,0.2-0.1,0.3-0.2c0.1-0.1,0.2-0.1,0.4-0.2c0.1,0,0.3-0.1,0.5-0.2
				c0.2-0.1,0.4-0.1,0.5-0.1c0.1,0,0.2-0.1,0.2-0.1c0.1,0,0.2-0.1,0.3-0.2l-0.2,2.8h1.5c0,0,0-1.7,0.1-2.5c0.1-0.8,0.1-1.3,0.1-1.5
				c0-0.4-0.1-0.7-0.3-0.8C53.5,437.8,53.2,437.7,52.9,437.6z M62.3,437.6c-0.3-0.1-0.6-0.1-0.9-0.1c-0.2,0-0.4,0-0.5,0.1
				c-0.2,0-0.3,0.1-0.5,0.1c-0.1,0.1-0.3,0.1-0.4,0.2c-0.1,0.1-0.2,0.2-0.3,0.3c-0.1,0.1-0.1,0.2-0.2,0.3c-0.1-0.2-0.1-0.3-0.2-0.4
				c-0.1-0.1-0.1-0.2-0.2-0.2c-0.1-0.1-0.2-0.1-0.3-0.2c-0.1-0.1-0.3-0.1-0.4-0.1c-0.1,0-0.3,0-0.5,0c-0.2,0-0.4,0-0.6,0.1
				c-0.2,0.1-0.4,0.1-0.5,0.2c-0.1,0.1-0.3,0.2-0.4,0.3c-0.1,0.1-0.2,0.2-0.3,0.4l0-0.9h-1.4l-0.2,5.4h1.5c0,0,0-1.1,0.1-1.9
				c0-0.8,0.1-1.3,0.2-1.6c0.1-0.3,0.2-0.5,0.4-0.6c0.2-0.2,0.4-0.2,0.7-0.2c0.1,0,0.3,0,0.4,0.1c0.1,0,0.2,0.1,0.3,0.2
				c0.1,0.1,0.1,0.2,0.2,0.3c0,0.1,0,0.2,0,0.4c0,0.3,0,0.9-0.1,1.7c0,0.8-0.1,1.4-0.1,1.7c0.3,0,1.2,0,1.5,0l0-1.5
				c0-0.5,0-0.9,0.1-1.3c0-0.3,0.1-0.6,0.1-0.8c0.1-0.2,0.1-0.3,0.3-0.5c0.1-0.1,0.2-0.2,0.4-0.3c0.1-0.1,0.3-0.1,0.4-0.1
				c0.2,0,0.3,0,0.4,0.1c0.1,0.1,0.2,0.1,0.3,0.3c0.1,0.1,0.1,0.3,0.1,0.6c0,0.2,0,0.5,0,0.8l-0.1,1.2c0,0.5-0.1,1-0.1,1.4
				c0.3,0,1.2,0,1.5,0c0-0.4,0-1,0.1-1.7c0-0.7,0.1-1.3,0.1-1.6c0-0.3,0-0.6,0-0.7c0-0.3-0.1-0.6-0.2-0.8
				C62.8,437.9,62.6,437.7,62.3,437.6z M68,437.6c-0.3-0.1-0.7-0.1-1.1-0.1c-0.3,0-0.7,0-1.1,0.1c-0.4,0-1.3,0.2-1.3,0.2l-0.2,1
				c0,0,1.5-0.5,2.1-0.5c0.2,0,0.3,0,0.5,0.1c0.1,0,0.3,0.1,0.4,0.2c0.1,0.1,0.1,0.2,0.1,0.3c0,0.1,0,0.1,0,0.2
				c0,0.1-0.1,0.1-0.1,0.2c-0.1,0.1-0.1,0.1-0.2,0.2c-0.1,0-0.2,0.1-0.3,0.1c-0.1,0-0.3,0.1-0.4,0.1c-0.5,0.1-0.9,0.2-1.2,0.3
				c-0.3,0.1-0.5,0.2-0.7,0.3c-0.2,0.1-0.3,0.2-0.4,0.4c-0.1,0.1-0.2,0.3-0.2,0.4c-0.1,0.1-0.1,0.3-0.1,0.4c0,0.3,0.1,0.5,0.2,0.8
				c0.1,0.3,0.3,0.5,0.6,0.6c0.3,0.1,0.7,0.2,1.1,0.2c0.1,0,0.3,0,0.4,0c0.1,0,0.3,0,0.6-0.1c0.1-0.4,0.2-0.7,0.3-0.9
				c-0.2,0.1-0.4,0.1-0.5,0.1c-0.1,0-0.2,0-0.4,0c-0.2,0-0.3,0-0.5-0.1c-0.1,0-0.2-0.1-0.3-0.2c-0.1-0.1-0.1-0.2-0.1-0.4
				c0-0.1,0-0.2,0-0.3c0-0.1,0.1-0.2,0.2-0.2c0.1-0.1,0.2-0.1,0.3-0.2c0.1-0.1,0.2-0.1,0.4-0.2c0.1,0,0.3-0.1,0.5-0.2
				c0.2-0.1,0.4-0.1,0.5-0.1c0.1,0,0.2-0.1,0.2-0.1c0.1,0,0.2-0.1,0.3-0.2l-0.2,2.8h1.5c0,0,0-1.7,0.1-2.5c0.1-0.8,0.1-1.3,0.1-1.5
				c0-0.4-0.1-0.7-0.3-0.8C68.6,437.8,68.4,437.7,68,437.6z M69.7,441.5c0,0.7,0,1.2-0.1,1.4c0.5,0,1.5,0,1.5,0s0.1-1.2,0.1-1.4
				C70.8,441.5,69.7,441.5,69.7,441.5z M73.7,439c0.2-0.2,0.3-0.3,0.5-0.4c0.2-0.1,0.4-0.1,0.7-0.1c0.4,0,0.8,0.1,1.4,0.3l-0.1-1.2
				c-0.3-0.1-0.6-0.1-0.9-0.2c-0.2,0-0.5,0-0.7,0c-0.4,0-0.8,0-1.1,0.1c-0.3,0.1-0.6,0.3-0.9,0.5c-0.3,0.3-0.5,0.6-0.6,1
				c-0.1,0.4-0.2,0.8-0.2,1.3c0,0.3,0,0.7,0.1,1c0.1,0.3,0.2,0.6,0.4,0.8c0.2,0.2,0.4,0.4,0.6,0.5c0.2,0.1,0.5,0.2,0.7,0.3
				c0.3,0.1,0.5,0.1,0.8,0.1c0.5,0,1-0.1,1.5-0.2c0-0.3,0.1-0.5,0.1-0.7c0-0.2,0.1-0.3,0.1-0.5c-0.3,0.1-0.5,0.2-0.7,0.2
				c-0.2,0-0.4,0.1-0.6,0.1c-0.3,0-0.6-0.1-0.9-0.2c-0.3-0.1-0.4-0.3-0.5-0.6c-0.1-0.2-0.2-0.5-0.2-0.9c0-0.2,0-0.5,0.1-0.7
				C73.4,439.4,73.5,439.2,73.7,439z M81.7,438.2c-0.3-0.2-0.6-0.4-0.9-0.5c-0.4-0.1-0.8-0.2-1.2-0.2c-0.4,0-0.9,0.1-1.3,0.2
				c-0.4,0.2-0.7,0.4-1,0.6c-0.3,0.3-0.5,0.6-0.6,0.9c-0.1,0.4-0.2,0.7-0.2,1.1c0,0.4,0.1,0.7,0.2,1.1c0.1,0.3,0.3,0.6,0.6,0.9
				c0.3,0.2,0.6,0.4,0.9,0.5c0.4,0.1,0.8,0.2,1.2,0.2c0.4,0,0.9-0.1,1.2-0.2c0.4-0.1,0.7-0.3,1-0.6c0.3-0.3,0.5-0.6,0.6-1
				c0.1-0.4,0.2-0.8,0.2-1.2c0-0.4-0.1-0.7-0.2-1.1C82.2,438.7,82,438.4,81.7,438.2z M80.8,441.1c-0.1,0.3-0.3,0.5-0.5,0.7
				c-0.2,0.2-0.5,0.2-0.8,0.2c-0.3,0-0.6-0.1-0.8-0.2c-0.2-0.1-0.4-0.3-0.5-0.6c-0.1-0.2-0.1-0.5-0.1-0.8c0-0.3,0.1-0.7,0.2-1
				c0.1-0.3,0.3-0.5,0.5-0.7c0.2-0.2,0.5-0.2,0.8-0.2c0.3,0,0.6,0.1,0.8,0.2c0.2,0.1,0.4,0.3,0.5,0.6c0.1,0.2,0.1,0.5,0.1,0.8
				C81,440.5,80.9,440.8,80.8,441.1z M91.2,438.1c-0.2-0.2-0.4-0.4-0.6-0.5c-0.3-0.1-0.6-0.1-0.9-0.1c-0.2,0-0.4,0-0.5,0.1
				c-0.2,0-0.3,0.1-0.5,0.1c-0.1,0.1-0.3,0.1-0.4,0.2c-0.1,0.1-0.2,0.2-0.3,0.3c-0.1,0.1-0.1,0.2-0.2,0.3c-0.1-0.2-0.1-0.3-0.2-0.4
				c-0.1-0.1-0.1-0.2-0.2-0.2c-0.1-0.1-0.2-0.1-0.3-0.2c-0.1-0.1-0.3-0.1-0.4-0.1c-0.1,0-0.3,0-0.5,0c-0.2,0-0.4,0-0.6,0.1
				c-0.2,0.1-0.4,0.1-0.5,0.2c-0.1,0.1-0.3,0.2-0.4,0.3c-0.1,0.1-0.2,0.2-0.3,0.4l0-0.9c-0.3,0-1.1,0-1.4,0c0,0.6-0.2,4.8-0.2,5.4
				c0.3,0,1.2,0,1.5,0c0-0.5,0-1.1,0.1-1.9c0-0.8,0.1-1.3,0.2-1.6c0.1-0.3,0.2-0.5,0.4-0.6c0.2-0.2,0.4-0.2,0.7-0.2
				c0.1,0,0.3,0,0.4,0.1c0.1,0,0.2,0.1,0.3,0.2c0.1,0.1,0.1,0.2,0.2,0.3c0,0.1,0,0.2,0,0.4c0,0.3,0,0.9-0.1,1.7
				c0,0.8-0.1,1.4-0.1,1.7c0.3,0,1.2,0,1.5,0l0-1.5c0-0.5,0-0.9,0.1-1.3c0-0.3,0.1-0.6,0.1-0.8c0.1-0.2,0.1-0.3,0.3-0.5
				c0.1-0.1,0.2-0.2,0.4-0.3c0.1-0.1,0.3-0.1,0.4-0.1c0.2,0,0.3,0,0.4,0.1c0.1,0.1,0.2,0.1,0.3,0.3c0.1,0.1,0.1,0.3,0.1,0.6
				c0,0.2,0,0.5,0,0.8l-0.1,1.2c0,0.5-0.1,1-0.1,1.4c0.3,0,1.2,0,1.5,0c0-0.4,0-1,0.1-1.7c0-0.7,0.1-1.3,0.1-1.6c0-0.3,0-0.6,0-0.7
				C91.4,438.6,91.4,438.3,91.2,438.1z"/>
		</g>
	</g>
	<g id="形状_2_copy_3_副本_5_5_">
		<g>
			<path style="fill-rule:evenodd;clip-rule:evenodd;fill:#FF6600;" d="M32.6,420.7c2.2,0,4.5,0,6.7,0c0,3.3,0,6.8,0,9.9
				c0,0.2-0.3,0.5-0.5,0.5c-0.4,0-0.5,0-0.9,0v1.6c0.5,0,1,0,1.5,0c1.3,0,2.2-0.6,2.2-1.7c0-2.6,0-7.7,0-10.3h0.8v-1.5h-9.7V420.7z
				 M66.9,427.9c-0.6,0-1.6,0.6-1.6,1.6c1.9,0,5.1,0,7.2,0c0,0.4,0,0.8,0,1.3c0.7,0,0.4,0,1.2,0c0.4,0,1-0.4,1-1c0-1.7,0-3,0-4.8
				c-0.3,0-0.7,0-0.9,0c0-1.3,0-4,0-5c0-0.4-0.4-0.8-0.9-0.8h-7v1.5h5.4c0,1.4,0,2.8,0,4.2c-1.3,0-1.5,0-2.6,0
				c-0.1,0-0.3-0.2-0.3-0.3c0-0.7,0-1.8,0-2.8c0-0.2-0.2-0.5-0.6-0.5h-1.6v3.7c0,0.7,0.6,1.3,1.3,1.3c0,0,2.8,0,5.1,0v1.4H66.9z
				 M38.3,428.3c0-1.8,0-4.3,0-6.7h-5.6v8.5c1.6,0,3.7,0,3.7,0C37.8,430.2,38.3,429.4,38.3,428.3z M35.9,428.6c-0.4,0-0.8,0-1.4,0
				v-5.3c0.6,0,1.3,0,1.9,0c0,1.6,0,3.4,0,4.8C36.4,428.4,36.2,428.6,35.9,428.6z M26.3,419.5c0,3.1,0,7.1,0,13.2h2.1
				c0-3.8,0-8.1,0-12c0.5,0,1.1,0,1.6,0c0,2.3,0,4.4,0,6.5c0,0.9-0.8,1.2-0.8,1.2v1.7c1.5,0,2.8-1.5,2.8-2.9c0-2.5,0-5.6,0-8.1
				c-1.9,0-3.3,0-5.2,0C26.2,419.1,26.3,419.5,26.3,419.5z M90.8,424.9c0-1.3,0-4,0-5c0-0.4-0.4-0.8-0.9-0.8h-7v1.5
				c1.8,0,3.6,0,5.4,0v4.2c-1.3,0-1.5,0-2.6,0c-0.1,0-0.3-0.2-0.3-0.3c0-0.7,0-1.8,0-2.8c0-0.2-0.2-0.5-0.6-0.5c-0.4,0-1.1,0-1.6,0
				v3.7c0,0.7,0.6,1.3,1.3,1.3c0,0,2.8,0,5.1,0v1.4H84c-0.6,0-1.6,0.5-1.6,1.5c1.9,0,5,0,7.1,0v1.4c0,0.2-0.2,0.4-0.5,0.4h-0.8
				c0,0.7,0,1.1,0,1.5h1.3c0.4,0,0.3,0,0.7,0c1.1,0,1.5-0.7,1.5-1.4c0-2,0-4.5,0-6.5C91.4,424.9,91.1,424.9,90.8,424.9z M80.8,430.2
				c0.8-0.8,1.2-1.8,1.3-3.7c0-2,0-4,0-6c0-0.2-0.2-0.4-0.4-0.4c-0.8,0-1.8,0-2.7,0v-0.9h-2.1c0,0.3,0,0.6,0,0.9c-0.2,0-0.5,0-0.7,0
				v1.5h0.7v4.8c0,1.9,0.6,2.8,1.4,3.7c-0.9,0.6-1.8,1-3.1,1c-0.2,0-0.4,0-0.5,0c-1.9,0-4.3,0-6.4,0c-1.9,0-3.8-0.4-4.5-1.2
				c0.7-0.9,1-1.6,1.2-3.5c0-1.9,0-3.5,0-5.9c0-0.3-0.3-0.5-0.5-0.5c-0.8,0-1.6,0-2.6,0v-0.9c-0.9,0-1.2,0-2,0v0.9
				c-0.2,0-0.4,0-0.7,0v1.5c0.3,0,0.5,0,0.7,0c0,1.6,0,3.4,0,4.8c0.2,1.9,0.8,2.5,1.5,3.6c-1,0.7-2.3,1.1-3.8,1.1
				c-1.8,0-3.4,0-5.6,0c0-0.4,0-0.9,0-1.2h5.6v-1.6h-5.6c0-0.4,0-0.8,0-1.2c1.6,0,3.7,0,4.2,0c0,0,1.4,0,1.4-1.5c0-1.6,0-4.4,0-6.5
				c-4.4,0-8.9,0-13.4,0c-0.2,0-0.4,0.2-0.4,0.4c0,0.3,0,5.3,0,7.6c1.9,0,3.7,0,5.6,0v1.2h-5.6c0,0.5,0,1.1,0,1.6h5.6
				c0,0.4,0,0.8,0,1.2h-6.6c0,0.5,0,1,0,1.5c4.9,0,11,0,15.8,0c1.3,0,2.9-0.7,4-1.3c1.4,1.1,3.1,1.3,5.7,1.3c0.8,0,1.7,0,2.7,0
				c1.4,0,2.6,0,3.7,0c2.2,0,3.6-0.5,5-1.3c1.3,0.8,2.5,1.2,4.4,1.3v0h3v-1.5h-3C82.7,431.1,81.6,430.9,80.8,430.2z M49.3,425.6
				h-3.4V424h3.4V425.6z M49.3,422.3h-3.4v-1.6c1.2,0,2.3,0,3.4,0V422.3z M51.9,420.7h3.5v1.6h-3.5V420.7z M51.9,424
				c1.2,0,2.3,0,3.4,0c0,0.7,0,1.2,0,1.6h-3.4C51.9,425.2,51.9,424.5,51.9,424z M63,426.5c-0.1,1.1-0.2,1.3-0.5,2
				c-0.3-0.7-0.6-1-0.7-2c0-1.4,0-3.4,0-4.8H63V426.5z M80.1,426.5c0,1-0.3,1.5-0.5,2c-0.3-0.5-0.6-1.1-0.6-2c0-1.5,0-3.3,0-4.8h1.2
				C80.1,423.2,80.1,425,80.1,426.5z"/>
		</g>
	</g>
</g>
</svg>
