<?xml version="1.0" encoding="utf-8"?>
<!-- Generator: Adobe Illustrator 17.1.0, SVG Export Plug-In . SVG Version: 6.00 Build 0)  -->
<!DOCTYPE svg PUBLIC "-//W3C//DTD SVG 1.1//EN" "http://www.w3.org/Graphics/SVG/1.1/DTD/svg11.dtd">
<svg version="1.1" id="图层_1" xmlns="http://www.w3.org/2000/svg" xmlns:xlink="http://www.w3.org/1999/xlink" x="0px" y="0px"
	 viewBox="0 0 265.7 467.7" style="enable-background:new 0 0 265.7 467.7;" xml:space="preserve">
<rect x="5.5" y="4.3" style="fill:#FFFFFF;stroke:#D8D8D8;stroke-miterlimit:10;" width="254.7" height="459"/>
<g>
	<defs>
		<rect id="SVGID_1_" x="69.7" y="4.5" width="190.5" height="458.7"/>
	</defs>
	<clipPath id="SVGID_2_">
		<use xlink:href="#SVGID_1_"  style="overflow:visible;"/>
	</clipPath>
	<g id="形状_13_47_" style="clip-path:url(#SVGID_2_);">
		<g>
			<path style="fill:#FF9B48;" d="M220,302.2c0,0-22.1,9.5-44,31.1c-28.5,25.7-44.1,40.6-57.4,44.5c-2.2,1.1-9.9,3.7-15,5
				c-6.7,1.7-13.6,1.7-15.8,4.2c-1.1,1.2-0.5,3.2,0.6,4.1C89.5,392,93,392,93,392s-9.7,2.9-6.2,8.9c3.2,5.5,25.3-10,26.2-3.2
				c0.5,3.7-11.7,6.5-6,11c2.6,2,11.4-3.1,17.5-8.5c4.5-4,8.7-10.9,22.5-20.4c11.2-7.7,32.1-20.2,54.4-29.5
				C251.3,329.5,220,302.2,220,302.2z"/>
		</g>
	</g>
	<g id="形状_14_47_" style="clip-path:url(#SVGID_2_);">
		<g>
			<path style="fill:#CC7123;" d="M103.2,386.4c-1.1,1-3.8,2.6-5.1,3.4c-2.7,1.6-5.1,2.2-5.1,2.2s0.7,0.2,1.8-0.1
				c3.2-0.9,7.4-2.7,9.3-4.3C105.5,386.4,104.7,384.9,103.2,386.4z"/>
		</g>
	</g>
	<g id="形状_13_45_" style="clip-path:url(#SVGID_2_);">
		<g>
			<path style="fill-rule:evenodd;clip-rule:evenodd;fill:#FF9B48;" d="M391.6,392c0,0,3.6,0,4.6-0.9c1.1-0.9,1.7-2.9,0.6-4.1
				c-2.2-2.5-9.1-2.5-15.8-4.2c-5.1-1.3-12.8-3.9-15-5c-13.3-3.9-28.9-18.8-57.4-44.5C286.7,311.7,263,302,263,302
				s-29.7,27.5,20.1,48.3c22.3,9.3,43.2,21.8,54.4,29.5c13.8,9.5,18,16.4,22.5,20.4c6.1,5.5,15,10.6,17.5,8.5c5.8-4.5-6.5-7.3-6-11
				c1-6.8,23,8.7,26.2,3.2C401.3,394.9,391.6,392,391.6,392z"/>
		</g>
	</g>
	<g id="形状_14_45_" style="clip-path:url(#SVGID_2_);">
		<g>
			<path style="fill-rule:evenodd;clip-rule:evenodd;fill:#CC7123;" d="M405.3,389.7c-1.3-0.8-4-2.4-5.1-3.4c-1.5-1.5-2.3,0-0.8,1.3
				c1.9,1.6,6,3.4,9.3,4.3c1.1,0.3,1.8,0.1,1.8,0.1S408.1,391.4,405.3,389.7z"/>
		</g>
	</g>
	
		<radialGradient id="SVGID_3_" cx="246.1354" cy="351.8907" r="103.0194" gradientTransform="matrix(1 0 0 0.9295 0 24.7928)" gradientUnits="userSpaceOnUse">
		<stop  offset="0" style="stop-color:#FFC07D"/>
		<stop  offset="0.5713" style="stop-color:#FEB162"/>
		<stop  offset="1" style="stop-color:#FEA852"/>
	</radialGradient>
	<path style="clip-path:url(#SVGID_2_);fill-rule:evenodd;clip-rule:evenodd;fill:url(#SVGID_3_);" d="M397.4,589.2
		c-14.9,5.3-45.7,3.3-63.3,2.5c-18.4-0.8-57.6-6.4-64.9-8.4c-15.5-4.3-6.7-13.8-5.2-20.8c1.5-7.1,2.3-14.2,1.9-22
		c-0.1-2.6-0.3-7.4-4.8-7.2c-4.9,1.5-9.5,2.3-13.8,2.7c0,0-0.1,0-0.1,0c-0.3,0-0.7,0.1-1,0.1c-0.2,0-0.5,0-0.7,0.1
		c-0.2,0-0.4,0-0.7,0c-0.3,0-0.7,0-1,0c-0.2,0-0.3,0-0.5,0c-0.3,0-0.7,0-1,0c-0.2,0-0.4,0-0.5,0c-0.3,0-0.5,0-0.8,0
		c-0.3,0-0.5,0-0.8,0c-0.2,0-0.4,0-0.5,0c-0.3,0-0.7,0-1,0c-0.2,0-0.3,0-0.5,0c-0.3,0-0.7,0-1,0c-0.2,0-0.4,0-0.7,0
		c-0.2,0-0.5,0-0.7-0.1c-0.3,0-0.7-0.1-1-0.1c0,0-0.1,0-0.1,0c-4.3-0.4-8.9-1.3-13.8-2.7c-4.5-0.2-4.7,4.6-4.8,7.2
		c-0.4,7.7,0.4,14.8,1.9,22c1.5,6.9,10.3,16.5-5.2,20.8c-7.3,2-50.2,7.4-68.7,8.6c-19.8,1.3-52.5,1.5-61.9-2.5
		c-5.2-2.2-5.4-15.5,8.6-22.6c17.6-9,90.6-5,95.5-5.3c10.2-0.7,8.2-3.9,8.3-9.1c0.2-9.6-7.7-14.5-14.4-18.7
		c-6.7-4.2-40.3-19-40.3-51.6c0-16.8,4.6-39.4,26.3-71.6c52.7-78.4,54.7-122.1,54.7-122.1l4.3-0.2c0.2-0.8,0.2-1.3,0.2-1.3l15.7,0.6
		l15.7-0.6c0,0,0.1,0.4,0.2,1.3l4.3,0.2c0,0,1.9,43.7,54.7,122.1c21.7,32.2,26.3,54.8,26.3,71.6c0,32.6-33.5,47.4-40.3,51.6
		c-6.7,4.2-14.6,9.1-14.4,18.7c0.1,5.1-1.6,9.7,8.6,9.9c4.8,0.1,77.6-4.5,95.2,4.5C405.1,573.9,402.7,587.3,397.4,589.2z"/>
	<path style="clip-path:url(#SVGID_2_);fill-rule:evenodd;clip-rule:evenodd;fill:#DD7528;" d="M119,572.5
		c-15.3,4.1-13.5,11.1-11.3,16.9c0.3,0.7,0.6,1.4,1,2c0.9,0.1,1.8,0.2,2.8,0.3c-5.3-12.2,2.3-16,9.1-18.3
		C123.6,572.3,121.1,571.9,119,572.5z"/>
	<path style="clip-path:url(#SVGID_2_);fill-rule:evenodd;clip-rule:evenodd;fill:#DD7528;" d="M119.7,571.9
		c-13.1,2.9-11.1,13.9-9.1,19.2c0.2,0.6,0.5,1.1,0.7,1.6c0.8,0,1.7,0,2.5,0c-3.7-11.2,1.1-16,4.9-18.6
		C120.9,572.6,124.4,570.8,119.7,571.9z"/>
	<path style="clip-path:url(#SVGID_2_);fill-rule:evenodd;clip-rule:evenodd;fill:#DD7528;" d="M406.9,591.3c0.2-0.5,0.4-1,0.6-1.6
		c1.7-5.5-0.1-15.4-10.9-18.1c-5.9-1.5-3.3,1.2-0.7,2.1c6.4,2.1,9.7,9.7,6.8,18.2C404.1,591.7,405.5,591.5,406.9,591.3z"/>
	<path style="clip-path:url(#SVGID_2_);fill-rule:evenodd;clip-rule:evenodd;fill:#DD7528;" d="M368.9,591.2
		c3.1-6.8,0.4-16.9-7-19.8c-2.9-0.7-0.2,1.9,1.9,4c2.8,3,4.3,10.1,1.8,15.5c-0.4,0.8-0.6,1.3-0.8,1.8c1.1,0,2.1,0,3.2,0
		C368.3,592.3,368.6,591.8,368.9,591.2z"/>
	<g id="形状_12_23_" style="clip-path:url(#SVGID_2_);">
		<g>
			
				<linearGradient id="SVGID_4_" gradientUnits="userSpaceOnUse" x1="292.0041" y1="370.3807" x2="290.4022" y2="226.2072" gradientTransform="matrix(1 0 0 1 -50.5494 71.5923)">
				<stop  offset="0" style="stop-color:#FFC28A"/>
				<stop  offset="0.7938" style="stop-color:#FFCD9F"/>
				<stop  offset="1" style="stop-color:#FFD0A5"/>
			</linearGradient>
			<path style="fill-rule:evenodd;clip-rule:evenodd;fill:url(#SVGID_4_);" d="M265.8,347.3c-11-17.9-38.1-16.1-48.8,1.4
				c-12.9,21.1-28.6,78.3-17.5,110.9c9.1,26.9,73,28.6,82.9,2.9C295.6,427.9,277.4,366.3,265.8,347.3z"/>
		</g>
	</g>
	<path style="opacity:0.6;clip-path:url(#SVGID_2_);fill-rule:evenodd;clip-rule:evenodd;fill:#DD7528;" d="M166.3,430.6
		c0,0,29.6,7.4,77.2,7.4c44.8,0,53.2-2.6,76.7-8C320.8,430.6,247.8,557.6,166.3,430.6z"/>
	<g id="形状_11_拷贝_2_23_" style="clip-path:url(#SVGID_2_);">
		<g>
			<path style="fill-rule:evenodd;clip-rule:evenodd;fill:#FFBF80;" d="M318.2,430.6c-0.6,0.3-1.3,0.6-2,0.9
				c-21.8,9.7-47.6,12.8-67.8,13.4c-19.9,0.1-49.4-1.6-73.6-11.3c-2.1-0.8-5.1-1.9-7.2-2.8c-5.5-2.7-6.7,4.3-6.6,8.3
				c0.3,17.4,4.2,72.5,54.1,91.1c2,1.3,8.1,4.3,20.6,5.1c4,0.7,8.7,0.5,13.2-0.1c0.5,0,1-0.1,1.5-0.1c7.5-0.8,14.2-2.6,20.3-5.2
				c0.4-0.1,0.6-0.2,0.6-0.2v0c37.9-16.8,48.7-65.2,51.7-88.9c0.2-1.8,0.3-3.4,0.5-4.8C324.4,429.8,320.2,429.6,318.2,430.6z"/>
		</g>
	</g>
	<path style="opacity:0.6;clip-path:url(#SVGID_2_);fill-rule:evenodd;clip-rule:evenodd;fill:#DD7528;" d="M261,288.4
		c-5.8,3.5-13.8,8.2-18.3,8.9c-6.8,1-14.3-0.1-21.9-8.8c0,0.6-0.3,3.6-1.3,8.8c2.2,7,6.9,14.4,16.9,15.6
		c11.8,1.4,20.6-8.1,25.9-16.4c-1-5.4-1.1-8.2-1.1-8.2L261,288.4z"/>
	<g id="形状_9_23_" style="clip-path:url(#SVGID_2_);">
		<g>
			<path style="fill-rule:evenodd;clip-rule:evenodd;fill:#FFC07D;" d="M219.9,155.6c-25-55.1-63.4-76.4-63.4-76.4
				s-9.9-6.3-11.3,0.6c-14.8,86.4,53.8,105.6,53.8,105.6S244.9,210.7,219.9,155.6z"/>
		</g>
	</g>
	<g id="形状_10_23_" style="clip-path:url(#SVGID_2_);">
		<g>
			<path style="fill-rule:evenodd;clip-rule:evenodd;fill:#FF9B48;" d="M212.1,168.3c-9.5-42.4-44.8-57-44.8-57s-7.4-5.2-7.5,2
				c2.9,54.4,48.3,63.1,48.3,63.1S214.2,178.2,212.1,168.3z"/>
		</g>
	</g>
	<g id="形状_9_拷贝_23_" style="clip-path:url(#SVGID_2_);">
		<g>
			<path style="fill:#FFC07D;" d="M340.2,79.7c-1.4-6.8-11.3-0.6-11.3-0.6s-38.4,21.2-63.4,76.4c-25.1,55.1,20.9,29.8,20.9,29.8
				S355,166,340.2,79.7z"/>
		</g>
	</g>
	<g id="形状_10_拷贝_23_" style="clip-path:url(#SVGID_2_);">
		<g>
			<path style="fill:#FF9B48;" d="M318.2,111.2c0,0-35.4,14.6-44.9,57c-2.1,9.8,4.1,8.1,4.1,8.1s45.4-8.6,48.4-63
				C325.6,106,318.2,111.2,318.2,111.2z"/>
		</g>
	</g>
	<g id="脸_47_" style="clip-path:url(#SVGID_2_);">
		<g>
			
				<radialGradient id="SVGID_5_" cx="293.3912" cy="223.0374" r="66.536" gradientTransform="matrix(0.9999 1.315258e-02 -9.151512e-03 0.6957 -48.4829 135.5957)" gradientUnits="userSpaceOnUse">
				<stop  offset="0" style="stop-color:#FECD97"/>
				<stop  offset="1" style="stop-color:#FFC07A"/>
			</radialGradient>
			<path style="fill:url(#SVGID_5_);" d="M293.6,204.7c-2.5-7.8-4.8-19.2-8.1-28.6c-7.4-21.3-24.5-28.3-42.7-28
				c-18.4,0.3-35.8,8.1-42.8,28.1c-3.3,9.4-5.3,20.8-7.8,28.6c-2.5,7.9-7.9,41.4,5.8,62.2c-0.1,0.1,5.9,7.3,16.8,18.2
				c9,9,14.1,16.4,25.5,17.1c0.1,0,0.1,0,0.2,0c0.1,0,0.2,0,0.2,0c0.9,0,1.9,0,2.9,0c0.2,0,0.4,0,0.5-0.1c14.2-1,18.9-9.9,27.8-17.9
				c11.5-10.3,15.9-17.3,15.8-17.5C301.5,246.1,296,212.6,293.6,204.7z"/>
		</g>
	</g>
	<path style="clip-path:url(#SVGID_2_);fill-rule:evenodd;clip-rule:evenodd;fill:#66361F;" d="M242.2,211.5
		c-0.2,0.1,19.9-5.8,28.5-27.5c-0.1-0.5,9.1,16.3,23.5,22.9c-0.2-0.8-0.4-1.6-0.6-2.2c-2.2-9.4-4.1-18.4-7.4-27.9
		c-7.4-21.3-25.2-29.1-43.4-28.8c-18.4,0.3-35.8,8.1-42.8,28.1c-3.3,9.4-6.2,21.6-7.8,28.6c-0.1,0.3-0.2,0.8-0.3,1.2
		c4.9-0.8,13.7-4.6,22-21C213.4,185,217.7,199.5,242.2,211.5z"/>
	<path style="clip-path:url(#SVGID_2_);fill-rule:evenodd;clip-rule:evenodd;fill:#E5432E;" d="M291,195.5c-0.9-3.6-1.9-7.4-3-11.2
		c-7.1-9.3-21.8-24-44.7-23.8c-26.4,0.2-39.2,14.3-45.8,23.4c-0.9,3.5-1.8,7-2.6,10.4c6.2-6.5,22.7-20.6,48.4-20.5
		C266.2,173.9,282.6,187.6,291,195.5z"/>
	<g id="形状_3_拷贝_23_" style="clip-path:url(#SVGID_2_);">
		<g>
			<path style="fill-rule:evenodd;clip-rule:evenodd;fill:#E5432E;" d="M290.2,91.9c-0.8-1.3-1.8-1-2.6-0.6
				c-32,14.9-41.8,43.1-44.7,57.2c-4.1-17-15.7-43.2-44.9-57.5c-1.2-0.6-2.6-0.9-3.2,1.2c0,0-10.4,47.3,37.7,71.5
				c-9.9,7.6-20.5,17.4,10.2,4.6c33.3,14,19.6,2.6,10-4.5C300.8,139.6,290.2,91.9,290.2,91.9z"/>
		</g>
	</g>
	<g id="形状_73_23_" style="clip-path:url(#SVGID_2_);">
		<g>
			<path style="fill-rule:evenodd;clip-rule:evenodd;fill:#AD4023;" d="M241.2,142.9c0,0-2.1,4.9-1.8,10.9c0.3,7,2.1,10.4,2.2,7.7
				c0.1-1.9,0.9-9.1,1.4-12.9C243.1,147.4,241.2,142.9,241.2,142.9z"/>
		</g>
	</g>
	<g id="形状_82_23_" style="clip-path:url(#SVGID_2_);">
		<g>
			<path style="fill-rule:evenodd;clip-rule:evenodd;fill:#CA4825;" d="M263.2,164.5c-1.3-0.6-6.4-2.9-7.2-2.3
				c-4.5,2.8-9.2,7.6-2.7,6C257.9,167,264.7,165.1,263.2,164.5z M229.7,162.3c-1.7-0.5-7.5,2-7.5,2s2.2,1.2,4.9,1.9
				c2.7,0.7,8.5,2.9,8.1,1.2C234.8,165.7,232.3,163,229.7,162.3z"/>
		</g>
	</g>
	<path style="clip-path:url(#SVGID_2_);fill-rule:evenodd;clip-rule:evenodd;fill:#FFCE99;" d="M221.8,236.4
		c-5.4-13.4-13.8-16.3-19.5-15.3c-10.8,1.9-12.2,7.4-12.1,7.1c0.1-0.3-0.2-9.7,8.9-12c8.3-2.1,16.7,1.3,20.3,7
		c3.3,5.2,3,13.1,3,13.1"/>
	<path style="clip-path:url(#SVGID_2_);fill-rule:evenodd;clip-rule:evenodd;fill:#FFCE99;" d="M263.1,236.4
		c5.4-13.4,13.8-16.3,19.5-15.3c10.8,1.9,12.2,7.4,12.1,7.1s0.2-9.7-8.9-12c-8.3-2.1-16.7,1.3-20.3,7c-3.3,5.2-3,13.1-3,13.1"/>
	<g id="形状_4_47_" style="clip-path:url(#SVGID_2_);">
		<g>
			<path style="fill:#FFFFFF;" d="M208.8,222.1c-4.4-2-13.6-1.1-17.3,2c0,0-5.4,22.5,14.3,24.5c9.8,0.4,15.5-4.8,16.4-10.4
				C223.3,232.2,213.9,224.5,208.8,222.1z"/>
		</g>
	</g>
	<g id="形状_6_47_" style="clip-path:url(#SVGID_2_);">
		<g>
			<path style="fill-rule:evenodd;clip-rule:evenodd;fill:#512A15;" d="M218.5,227.4c0-0.1-5-6.9-11.7-8.5c-2.4-0.6-7.8,0.7-7.8,0.7
				s-8,6.5-2,17.6c3.5,5.8,9,8.3,13.9,7.7c6-0.7,9.5-4.9,9.9-9.6C221.2,230.6,218.5,227.4,218.5,227.4z"/>
		</g>
	</g>
	<g id="形状_48_23_" style="clip-path:url(#SVGID_2_);">
		<g>
			<path style="fill:#FFFFFF;" d="M202.4,235.7c-0.3-1.8-6.1-2-7.3,0.4c-0.9,1.8,0.1,3.9,1.5,4.2C199.5,241,202.8,238.3,202.4,235.7
				z"/>
		</g>
	</g>
	<g id="形状_36_副本_47_" style="clip-path:url(#SVGID_2_);">
		<g>
			<path style="fill-rule:evenodd;clip-rule:evenodd;fill:#A85726;" d="M216,209.1c-7.2-3.1-14.8-2.1-13.6,1c0.5,1.2,4.2-1,10.1,0.9
				c8.1,2.6,7.7,7.1,9.7,6.6C225.5,216.6,220.1,210.8,216,209.1z"/>
		</g>
	</g>
	<g id="形状_4_45_" style="clip-path:url(#SVGID_2_);">
		<g>
			<path style="fill:#FFFFFF;" d="M293.9,224.2c-3.6-3.1-12.7-3.7-17.3-2c-10.6,3.9-14.4,10.1-13.4,16.1c0.9,5.6,6.6,10.8,16.4,10.4
				C299.4,246.7,293.9,224.2,293.9,224.2z"/>
		</g>
	</g>
	<g id="形状_6_45_" style="clip-path:url(#SVGID_2_);">
		<g>
			<path style="fill-rule:evenodd;clip-rule:evenodd;fill:#512A15;" d="M287,220.7c0,0-4.5-1.2-6.9-0.6c-6.7,1.6-12.1,5.7-12.1,5.8
				c0,0-2,7.4-0.8,10.5c2.3,5.8,4.2,8.3,10.2,8.6c4.9,0.2,10.5-1.7,12.6-8.7C292.5,228,287,220.7,287,220.7z"/>
		</g>
	</g>
	<g id="形状_48_副本_23_" style="clip-path:url(#SVGID_2_);">
		<g>
			<path style="fill:#FFFFFF;" d="M273,236.5c-1.3-2.4-6.6,0.5-6.9,2.3c-0.4,3,1.1,3.7,3.4,3.1C272,241.2,274.2,238.7,273,236.5z"/>
		</g>
	</g>
	<g id="形状_36_副本_45_" style="clip-path:url(#SVGID_2_);">
		<g>
			<path style="fill-rule:evenodd;clip-rule:evenodd;fill:#A85726;" d="M269.7,209c-4.1,1.7-9.5,6.5-7.2,8.1
				c2.2,1.5,3.6-3.6,9.3-5.5c7.2-2.4,12.3,0.3,12.7-1.6C284.9,207.3,276.9,206.1,269.7,209z"/>
		</g>
	</g>
	<g id="Shape_2_47_" style="clip-path:url(#SVGID_2_);">
		<g>
			<path style="fill-rule:evenodd;clip-rule:evenodd;fill:#9C6342;" d="M291.6,243.7c2-3,2.3-6,1.7-4.9c-1.3,2.6-3,5.7-7,7.5
				c-3.7,1.7-8.2,1.8-11.2,1.9c-2.7,0,5.4,2,11.2-0.2c0.4,0.1,1,0.4,1.7,0.7c0.8,0.4,2.2,1.4,2.1,0.8c-0.1-1-0.6-2.2-1.4-2.9
				c0.6-0.4,1.1-0.9,1.6-1.3c0.2,0,0.5,0.1,0.9,0.1c1.2,0.2,2.4,1.6,2.4,0.9C293.6,245.5,292.8,244.3,291.6,243.7z"/>
		</g>
	</g>
	<g id="形状_65_副本_47_" style="clip-path:url(#SVGID_2_);">
		<g>
			<path style="fill-rule:evenodd;clip-rule:evenodd;fill:#713D1F;" d="M301.6,221.6c-0.3,0.6-1.6,1.8-2.9,2.4
				c-1.1,0.5-2.8,0.9-4.4,0.5c0-0.1-0.1-0.2-0.1-0.3c-1.1-2.1-4.5-4.5-7.8-5.2c-5.4-1.1-10-0.4-13.9,1.4c-5.2,2.4-8.8,7.1-9.8,13.4
				c-0.5,2.7,0.2,4.3,1,1.9c1.9-5.7,3.9-8.8,9.1-11.6c4.1-2.2,9.2-3.8,16.6-0.2c2.5,1.2,4,3.8,4.4,5.6c0.2,0.6,0.8,2.8,1,1.4
				c0.1-0.7,0.2-1.4,0.2-2.1c0.5,0,1.4,0,2.7-0.5c1.1-0.4,2.8-1.7,3.6-3.2C302.2,223.2,302.2,220.5,301.6,221.6z"/>
		</g>
	</g>
	<g id="Shape_2_45_" style="clip-path:url(#SVGID_2_);">
		<g>
			<path style="fill-rule:evenodd;clip-rule:evenodd;fill:#9C6342;" d="M210.1,248.2c-3,0-7.5-0.1-11.2-1.9c-4-1.9-5.7-4.9-7-7.5
				c-0.6-1.1-0.3,1.9,1.7,4.9c-1.2,0.7-1.9,1.9-1.9,2.6c0,0.8,1.2-0.7,2.4-0.9c0.4-0.1,0.7-0.1,0.9-0.1c0.5,0.5,1,0.9,1.6,1.3
				c-0.8,0.7-1.3,1.9-1.4,2.9c-0.1,0.5,1.4-0.4,2.1-0.8c0.6-0.3,1.3-0.6,1.7-0.7C204.7,250.1,212.9,248.2,210.1,248.2z"/>
		</g>
	</g>
	<g id="形状_65_副本_45_" style="clip-path:url(#SVGID_2_);">
		<g>
			<path style="fill-rule:evenodd;clip-rule:evenodd;fill:#713D1F;" d="M222.2,233.8c-1.1-6.3-4.6-11-9.8-13.4
				c-3.9-1.8-8.5-2.5-13.9-1.4c-3,0.6-6,2.6-7.1,4.2c-0.2,0.3-0.4,0.8-0.6,1.2c0,0,0,0,0,0c-1.6,0.6-3.4,0.2-4.6-0.4
				c-1.3-0.6-2.6-1.8-2.9-2.4c-0.6-1.2-0.6,1.6,0.3,3.4c0.8,1.5,2.5,2.8,3.6,3.2c1.4,0.6,2.3,0.6,2.8,0.5c0,0.8,0,1.6,0.1,2.1
				c0.2,1.4,0.9-0.2,1.1-0.8c0.9-2.7,1.8-5,4.4-6.2c7.5-3.7,12.5-2,16.6,0.2c5.2,2.8,7.1,6.3,9.1,11.6
				C222.2,238.1,222.7,236.5,222.2,233.8z"/>
		</g>
	</g>
	<g id="腮红2_23_" style="clip-path:url(#SVGID_2_);">
		<g>
			<path style="fill-rule:evenodd;clip-rule:evenodd;fill:#FFA083;" d="M208.4,255c-7.8-0.8-11.3,1.8-11.2,4.2c0,2,2.9,5.9,10.1,6.3
				c9.1,0.5,11.7-2.5,11.8-4C219.1,259.8,217.9,256,208.4,255z"/>
		</g>
	</g>
	<g id="腮红2_副本_23_" style="clip-path:url(#SVGID_2_);">
		<g>
			<path style="fill-rule:evenodd;clip-rule:evenodd;fill:#FFA083;" d="M277.2,255c-9.6,1-10.8,4.8-10.7,6.5c0.1,1.5,2.8,4.5,11.8,4
				c7.2-0.4,10-4.3,10.1-6.3C288.4,256.8,285,254.2,277.2,255z"/>
		</g>
	</g>
	<path style="clip-path:url(#SVGID_2_);fill-rule:evenodd;clip-rule:evenodd;fill:#512A15;" d="M242,296.8c-4.9,0-12.8-4.5-12.2-9.5
		c0.5-3.9,4.5-5.3,12.2-5.3c7.8,0,11.9,1.3,12.3,5.3C254.8,291.8,248.3,296.8,242,296.8z"/>
	<g id="形状_20_23_" style="clip-path:url(#SVGID_2_);">
		<g>
			<path style="fill:#FCEACB;" d="M223.8,385.1c-14.8-11.5-33.1-4.1-33.1-1.2c1.2,31.2,31,28.1,31,28.1c10.4-1.2,11.6-8.4,11.6-8.4
				S233.7,392.7,223.8,385.1z"/>
		</g>
	</g>
	<g id="形状_21_23_" style="clip-path:url(#SVGID_2_);">
		<g>
			<path style="fill:#FFBD99;" d="M228.9,402.1c-2.1-10.7-24-14.2-23.7-9.8c1.1,17.4,20.5,15.9,20.5,15.9S229.6,407.6,228.9,402.1z"
				/>
		</g>
	</g>
	<g id="形状_20_拷贝_23_" style="clip-path:url(#SVGID_2_);">
		<g>
			<path style="fill:#FCEACB;" d="M259.5,386.4c-10.2,9.2-7.2,20.4-7.2,20.4s0.8,4.1,11.2,5.3c0,0,29.8,3.1,31-28.1
				C294.5,381.1,275.7,371.8,259.5,386.4z"/>
		</g>
	</g>
	<g id="形状_21_拷贝_23_" style="clip-path:url(#SVGID_2_);">
		<g>
			<path style="fill-rule:evenodd;clip-rule:evenodd;fill:#FFBD99;" d="M256.2,402.2c-0.7,5.5,3.2,6.1,3.2,6.1s19.5,1.5,20.6-15.9
				C280.3,388,258.3,391.5,256.2,402.2z"/>
		</g>
	</g>
	<g id="形状_23_23_" style="opacity:0.4;clip-path:url(#SVGID_2_);">
		<g>
			<path style="fill-rule:evenodd;clip-rule:evenodd;fill:#DD7528;" d="M264.7,446.7c-12-2.2-44.7-4.4-48.3,3.8
				c-3.6,8.1-11.9,4.1-10.1,27.3c0,0,2.8,14.7,14.4,11.8c3.5-1.4,4.9-6.1,4.8-11.1c0-4.9,2-5.1,6.4-5c10,0.3,15.4,1,22.3-3.2
				c3.8-2.3,6.2,3.1,5.6,9c-0.7,6.8,0.7,9.7,6.2,10.9c5.1,1.1,9.3-1.2,10.7-6.4c1.6-5.5,2-11.5,2-11.5S276.8,448.9,264.7,446.7z"/>
		</g>
	</g>
	<path style="clip-path:url(#SVGID_2_);fill-rule:evenodd;clip-rule:evenodd;fill:#FCEBCE;" d="M266.9,430.7c0,0,13.3,9.1,12.5,38.7
		c-0.3,10.1-5.2,15.3-10.5,14.9c-5.3-0.3-5.8-6-5-12c0.3-2.4,1-10-1.8-20.5C259.3,441.2,266.9,430.7,266.9,430.7z"/>
	<path style="clip-path:url(#SVGID_2_);fill-rule:evenodd;clip-rule:evenodd;fill:#FCEBCE;" d="M215.2,434.3c0,0-10.5,10.2-9.6,34.4
		c0.3,10.1,5.2,15.9,10.5,15.6c5.3-0.3,5.5-4.6,5.2-9.3c-0.3-4.1-1.1-10.9,1.7-21.5C225.7,442.9,215.2,434.3,215.2,434.3z"/>
	<path style="clip-path:url(#SVGID_2_);fill-rule:evenodd;clip-rule:evenodd;fill:#F6BF96;" d="M267.9,477.1
		c-0.1,2.1-0.5,5.3-1.1,6.7c0.3,0.1,0.5,0.2,0.8,0.3c0.3-0.9,0.6-2.2,0.8-3.5C268.9,477.3,268.1,473.9,267.9,477.1z"/>
	<path style="clip-path:url(#SVGID_2_);fill-rule:evenodd;clip-rule:evenodd;fill:#F6BF96;" d="M272.2,477.2c0,1.4,0,4.9-0.9,6.9
		c0.4-0.1,0.9-0.2,1.3-0.4c0.4-1,0.5-2.6,0.6-3.8C273.3,477.4,272.2,475.2,272.2,477.2z"/>
	<path style="clip-path:url(#SVGID_2_);fill-rule:evenodd;clip-rule:evenodd;fill:#F6BF96;" d="M217.9,480.6
		c-0.5-1.8-1.3-5.7-1.4-4.6c-0.2,1.9,0.2,4.6,0.9,6.7c0.2,0.6,0.4,1,0.6,1.4c0.5-0.2,0.9-0.3,1.2-0.6
		C218.6,482.6,218.2,481.8,217.9,480.6z"/>
	<path style="clip-path:url(#SVGID_2_);fill-rule:evenodd;clip-rule:evenodd;fill:#F6BF96;" d="M213.8,481.1c-1.1-3.2-1.2-6.3-1.4-4
		c-0.3,2.7,0.5,4.8,1.4,6.7c0.1,0.1,0.2,0.3,0.3,0.4c0.4,0.1,0.8,0.1,1.1,0.1C214.8,483.4,214.3,482.4,213.8,481.1z"/>
	<g id="脸_45_" style="clip-path:url(#SVGID_2_);">
		<g>
			<path style="fill:#FCEBCE;" d="M268.8,421.9c-5.1-18.3-17.3-23-26.3-22.9c-9-0.2-22.5,4.5-26.7,22.5c-1,6.3-4.3,11.2-3.2,19.1
				c1.1,7.9,3.7,11.7,14.8,19.1c2.3,1.7,4,1.7,6.7,3.8c2.7,2,5.7,2.9,11,2.3c0.1,0,0.2,0,0.2-0.1c2.1-0.4,3.8-1.1,5.3-2.3
				c2.7-2,4.4-2,6.6-3.8c11-7.4,13.6-11.2,14.7-19.1C273.1,432.7,269.8,425.6,268.8,421.9z"/>
		</g>
	</g>
	<g id="形状_77_23_" style="clip-path:url(#SVGID_2_);">
		<g>
			<path style="fill-rule:evenodd;clip-rule:evenodd;fill:#FFDECC;" d="M220.6,444.9c-2.4-0.2-4.4,0.7-4.5,2.1
				c-0.1,1.3,1.7,2.6,4.1,2.8c2.4,0.2,4.4-0.7,4.5-2.1C224.8,446.3,223,445.1,220.6,444.9z"/>
		</g>
	</g>
	<g id="形状_77_副本_23_" style="clip-path:url(#SVGID_2_);">
		<g>
			<path style="fill:#FFDECC;" d="M263.2,444.9c-2.4,0.1-4.3,1.2-4.2,2.6c0,1.4,2,2.4,4.4,2.3c2.4-0.1,4.3-1.2,4.2-2.6
				C267.5,445.8,265.5,444.8,263.2,444.9z"/>
		</g>
	</g>
	<path style="clip-path:url(#SVGID_2_);fill:#F7CC9D;" d="M226.1,413.4c1,3.7,2.9,4.4,5.3,4.8c2.9,0.4,4.6-2.3,5.5-3.5
		c0,0,1.9,3.7,4.7,4.6c2.9,0.9,4.9-0.1,6-2c0.6-1.2,0.5-3.1,0.5-3.1s2.4,2.6,6,1.6c2.2-0.6,2.3-2.4,2.5-3.7c0.2-1.3-0.3-2.5-0.3-2.5
		s2.5,2.6,1.8,5.7c-0.5,2.2-2.3,3.7-4.7,3.4c-1.7-0.2-4.2-1.9-4.2-1.9s-0.2,2.8-2.1,4.2c-2,1.4-4.8,1.2-6.6,0.2
		c-1.8-1.1-3.4-3.6-3.4-3.6s-1,2.4-3.6,3.5c-1.5,0.7-4.4,0.8-6.1-1.8C225.4,416.7,226.1,413.4,226.1,413.4z"/>
	<g id="形状_75_23_" style="clip-path:url(#SVGID_2_);">
		<g>
			<path style="fill-rule:evenodd;clip-rule:evenodd;fill:#552F19;" d="M221.3,437.4c-4.5-0.4-5.8,0-5.5,0.9
				c0.2,0.7,1.2-0.2,5.3,0.7c6.8,1.4,9.7,6,10.5,4C232.4,441,226.7,437.9,221.3,437.4z"/>
		</g>
	</g>
	<g id="形状_75_副本_23_" style="clip-path:url(#SVGID_2_);">
		<g>
			<path style="fill-rule:evenodd;clip-rule:evenodd;fill:#713D1F;" d="M263.6,437.4c-5.4,0.5-11.1,3.6-10.3,5.7
				c0.7,1.9,3.7-2.6,10.5-4c4.2-0.9,5.1,0,5.3-0.7C269.4,437.4,268.1,437,263.6,437.4z"/>
		</g>
	</g>
	<g id="形状_19_23_" style="clip-path:url(#SVGID_2_);">
		<g>
			<path style="fill:#57301B;" d="M242.2,458.3c-8.6-0.1-7.8,2.6-7.8,2.6s1.5,5.4,8.1,5.2c6.6-0.2,7.8-5.2,7.8-5.2
				S250.7,458.4,242.2,458.3z"/>
		</g>
	</g>
</g>
<g>
	<path style="fill:#666666;" d="M33.5,177.7c-0.2-0.3-0.4-0.6-0.7-0.8c-0.3-0.2-0.6-0.4-0.9-0.5c-0.3-0.1-0.7-0.2-1.1-0.2
		c-0.7,0-1.3,0.1-1.8,0.4c-0.5,0.3-0.9,0.6-1.2,1c-0.3,0.4-0.5,0.9-0.7,1.4c-0.1,0.5-0.2,1.1-0.2,1.7c0,0.6,0.1,1.1,0.2,1.6
		c0.1,0.5,0.4,1,0.7,1.5c0.3,0.4,0.7,0.8,1.2,1c0.5,0.3,1.1,0.4,1.8,0.4c0.5,0,0.9-0.1,1.3-0.3c0.4-0.2,0.7-0.4,1-0.7
		c0.3-0.3,0.5-0.6,0.7-1s0.3-0.8,0.3-1.3h1c-0.1,0.6-0.2,1.2-0.4,1.7s-0.5,0.9-0.9,1.3c-0.4,0.4-0.8,0.6-1.3,0.8
		c-0.5,0.2-1,0.3-1.6,0.3c-0.8,0-1.5-0.1-2.1-0.4c-0.6-0.3-1.1-0.7-1.5-1.2s-0.7-1.1-0.9-1.7s-0.3-1.3-0.3-2s0.1-1.4,0.3-2
		c0.2-0.6,0.5-1.2,0.9-1.7s0.9-0.9,1.5-1.2c0.6-0.3,1.3-0.4,2.1-0.4c0.5,0,1,0.1,1.4,0.2c0.5,0.1,0.9,0.4,1.3,0.6
		c0.4,0.3,0.7,0.6,1,1c0.3,0.4,0.4,0.9,0.5,1.4h-1C33.9,178.3,33.7,178,33.5,177.7z"/>
	<path style="fill:#666666;" d="M37.3,175.6v4.1h0c0.2-0.5,0.5-0.8,0.9-1.1c0.4-0.3,0.9-0.4,1.5-0.4c0.5,0,1,0.1,1.3,0.2
		c0.4,0.1,0.6,0.3,0.8,0.6c0.2,0.2,0.4,0.5,0.4,0.9c0.1,0.4,0.1,0.8,0.1,1.2v4.8h-0.9v-4.6c0-0.3,0-0.6-0.1-0.9s-0.2-0.5-0.3-0.7
		c-0.1-0.2-0.3-0.4-0.6-0.5S40,179,39.6,179c-0.4,0-0.7,0.1-1,0.2c-0.3,0.1-0.5,0.3-0.7,0.5c-0.2,0.2-0.4,0.5-0.5,0.8
		s-0.2,0.7-0.2,1v4.3h-0.9v-10.3H37.3z"/>
	<path style="fill:#666666;" d="M45.1,175.6v1.5h-0.9v-1.5H45.1z M45.1,178.5v7.4h-0.9v-7.4H45.1z"/>
	<path style="fill:#666666;" d="M47.5,183.5c0.1,0.4,0.2,0.7,0.4,0.9c0.2,0.3,0.5,0.5,0.8,0.7c0.3,0.2,0.7,0.3,1.1,0.3
		c0.7,0,1.2-0.2,1.6-0.5c0.4-0.3,0.6-0.8,0.8-1.4H53c-0.2,0.8-0.5,1.5-1.1,2c-0.5,0.5-1.2,0.7-2.2,0.7c-0.6,0-1.1-0.1-1.5-0.3
		c-0.4-0.2-0.8-0.5-1-0.8s-0.5-0.8-0.6-1.3c-0.1-0.5-0.2-1-0.2-1.5c0-0.5,0.1-1,0.2-1.4c0.1-0.5,0.3-0.9,0.6-1.3s0.6-0.7,1-0.9
		c0.4-0.2,0.9-0.3,1.5-0.3c0.6,0,1.1,0.1,1.5,0.4c0.4,0.2,0.8,0.6,1,0.9c0.3,0.4,0.5,0.8,0.6,1.3s0.2,1,0.1,1.5h-5.7
		C47.3,182.8,47.4,183.1,47.5,183.5z M52,180.7c-0.1-0.3-0.3-0.6-0.5-0.8c-0.2-0.2-0.4-0.4-0.7-0.6c-0.3-0.1-0.6-0.2-1-0.2
		c-0.4,0-0.7,0.1-1,0.2c-0.3,0.1-0.5,0.3-0.7,0.6c-0.2,0.2-0.4,0.5-0.5,0.8c-0.1,0.3-0.2,0.7-0.2,1h4.8
		C52.1,181.3,52.1,181,52,180.7z"/>
	<path style="fill:#666666;" d="M55.7,179.2v6.7h-0.9v-6.7h-1.3v-0.8h1.3v-0.7c0-0.3,0-0.6,0.1-0.9c0-0.3,0.1-0.5,0.3-0.7
		s0.3-0.3,0.6-0.4c0.2-0.1,0.5-0.2,0.9-0.2c0.1,0,0.3,0,0.4,0s0.2,0,0.4,0v0.8c-0.1,0-0.2,0-0.3-0.1c-0.1,0-0.2,0-0.3,0
		c-0.2,0-0.4,0-0.6,0.1c-0.1,0.1-0.2,0.2-0.3,0.3c-0.1,0.1-0.1,0.3-0.1,0.5c0,0.2,0,0.4,0,0.6v0.6h1.5v0.8H55.7z"/>
	<path style="fill:#666666;" d="M62.8,178.5v1.3h0c0.2-0.5,0.6-0.8,0.9-1.1c0.4-0.3,0.9-0.4,1.5-0.4c0.5,0,0.9,0.1,1.3,0.4
		c0.4,0.2,0.7,0.6,0.8,1.1c0.2-0.5,0.5-0.9,1-1.1c0.4-0.2,0.9-0.4,1.4-0.4c1.6,0,2.5,0.9,2.5,2.6v5h-0.9v-5c0-0.6-0.1-1.1-0.4-1.4
		c-0.3-0.3-0.7-0.5-1.4-0.5c-0.4,0-0.7,0.1-1,0.2c-0.3,0.1-0.5,0.3-0.6,0.6c-0.2,0.2-0.3,0.5-0.3,0.9s-0.1,0.7-0.1,1v4.2h-0.9v-5
		c0-0.2,0-0.5-0.1-0.7c-0.1-0.2-0.1-0.4-0.3-0.6c-0.1-0.2-0.3-0.3-0.5-0.4c-0.2-0.1-0.4-0.1-0.7-0.1c-0.4,0-0.7,0.1-1,0.2
		s-0.5,0.3-0.7,0.6c-0.2,0.2-0.3,0.5-0.4,0.9c-0.1,0.3-0.1,0.7-0.1,1.1v4.1H62v-7.4H62.8z"/>
	<path style="fill:#666666;" d="M74.2,179.6c0.2-0.3,0.4-0.6,0.6-0.8c0.3-0.2,0.6-0.4,0.9-0.4c0.4-0.1,0.7-0.1,1.2-0.1
		c0.3,0,0.7,0,1,0.1c0.3,0.1,0.6,0.2,0.9,0.4c0.3,0.2,0.5,0.4,0.6,0.7s0.2,0.7,0.2,1.2v3.9c0,0.4,0.2,0.5,0.5,0.5
		c0.1,0,0.2,0,0.3-0.1v0.8c-0.1,0-0.2,0-0.3,0c-0.1,0-0.2,0-0.3,0c-0.2,0-0.4,0-0.6-0.1c-0.1-0.1-0.2-0.2-0.3-0.3s-0.1-0.3-0.2-0.4
		c0-0.2,0-0.3,0-0.5h0c-0.2,0.2-0.3,0.5-0.5,0.6c-0.2,0.2-0.4,0.3-0.6,0.5c-0.2,0.1-0.4,0.2-0.7,0.3c-0.3,0.1-0.6,0.1-0.9,0.1
		c-0.3,0-0.7,0-1-0.1c-0.3-0.1-0.6-0.2-0.8-0.4c-0.2-0.2-0.4-0.4-0.5-0.7s-0.2-0.6-0.2-1c0-0.5,0.1-0.9,0.3-1.2
		c0.2-0.3,0.5-0.5,0.9-0.7c0.4-0.2,0.8-0.3,1.3-0.3c0.5-0.1,1-0.1,1.4-0.2c0.2,0,0.4,0,0.5-0.1c0.1,0,0.3-0.1,0.4-0.2
		c0.1-0.1,0.2-0.2,0.2-0.3c0.1-0.1,0.1-0.3,0.1-0.5c0-0.3-0.1-0.6-0.2-0.8s-0.2-0.4-0.4-0.5c-0.2-0.1-0.4-0.2-0.6-0.2
		c-0.2,0-0.5-0.1-0.8-0.1c-0.6,0-1,0.1-1.4,0.4c-0.4,0.3-0.6,0.7-0.6,1.3h-0.9C73.9,180.3,74,179.9,74.2,179.6z M78.7,181.8
		c-0.1,0.1-0.2,0.2-0.3,0.2c-0.2,0-0.3,0.1-0.4,0.1c-0.4,0.1-0.8,0.1-1.2,0.2c-0.4,0.1-0.8,0.1-1.1,0.2c-0.3,0.1-0.6,0.3-0.8,0.5
		c-0.2,0.2-0.3,0.5-0.3,0.8c0,0.2,0,0.4,0.1,0.6c0.1,0.2,0.2,0.3,0.4,0.5c0.2,0.1,0.3,0.2,0.5,0.3c0.2,0.1,0.4,0.1,0.6,0.1
		c0.3,0,0.7-0.1,1-0.2c0.3-0.1,0.6-0.3,0.8-0.5s0.4-0.4,0.6-0.7c0.1-0.3,0.2-0.6,0.2-1L78.7,181.8L78.7,181.8z"/>
	<path style="fill:#666666;" d="M82.3,178.5v1.7h0c0.2-0.6,0.6-1.1,1.1-1.4c0.5-0.3,1.1-0.5,1.7-0.4v0.9c-0.4,0-0.8,0-1.1,0.2
		c-0.3,0.1-0.6,0.3-0.9,0.6c-0.2,0.2-0.4,0.5-0.6,0.9c-0.1,0.3-0.2,0.7-0.2,1.1v4h-0.9v-7.4H82.3z"/>
	<path style="fill:#666666;" d="M86.9,175.6v6.5l4.1-3.6h1.2l-3.2,2.8l3.4,4.7h-1.1l-2.9-4l-1.5,1.2v2.8H86v-10.3H86.9z"/>
	<path style="fill:#666666;" d="M93.9,183.5c0.1,0.4,0.2,0.7,0.4,0.9c0.2,0.3,0.5,0.5,0.8,0.7c0.3,0.2,0.7,0.3,1.1,0.3
		c0.7,0,1.2-0.2,1.6-0.5c0.4-0.3,0.6-0.8,0.8-1.4h0.9c-0.2,0.8-0.5,1.5-1.1,2c-0.5,0.5-1.2,0.7-2.2,0.7c-0.6,0-1.1-0.1-1.5-0.3
		c-0.4-0.2-0.8-0.5-1-0.8s-0.5-0.8-0.6-1.3c-0.1-0.5-0.2-1-0.2-1.5c0-0.5,0.1-1,0.2-1.4c0.1-0.5,0.3-0.9,0.6-1.3s0.6-0.7,1-0.9
		c0.4-0.2,0.9-0.3,1.5-0.3c0.6,0,1.1,0.1,1.5,0.4c0.4,0.2,0.8,0.6,1,0.9c0.3,0.4,0.5,0.8,0.6,1.3s0.2,1,0.1,1.5h-5.7
		C93.7,182.8,93.8,183.1,93.9,183.5z M98.4,180.7c-0.1-0.3-0.3-0.6-0.5-0.8c-0.2-0.2-0.4-0.4-0.7-0.6c-0.3-0.1-0.6-0.2-1-0.2
		c-0.4,0-0.7,0.1-1,0.2c-0.3,0.1-0.5,0.3-0.7,0.6c-0.2,0.2-0.4,0.5-0.5,0.8c-0.1,0.3-0.2,0.7-0.2,1h4.8
		C98.5,181.3,98.5,181,98.4,180.7z"/>
	<path style="fill:#666666;" d="M103.6,178.5v0.8h-1.5v5c0,0.3,0,0.5,0.1,0.7c0.1,0.2,0.3,0.3,0.6,0.3c0.3,0,0.5,0,0.8,0v0.8
		c-0.1,0-0.3,0-0.4,0c-0.1,0-0.3,0-0.4,0c-0.6,0-1-0.1-1.3-0.4s-0.4-0.7-0.3-1.3v-5.1h-1.3v-0.8h1.3v-2.2h0.9v2.2H103.6z"/>
	<path style="fill:#666666;" d="M105.9,175.6v1.5H105v-1.5H105.9z M105.9,178.5v7.4H105v-7.4H105.9z"/>
	<path style="fill:#666666;" d="M108.5,178.5v1.3h0c0.2-0.5,0.5-0.8,0.9-1.1c0.4-0.3,0.9-0.4,1.5-0.4c0.5,0,1,0.1,1.3,0.2
		c0.4,0.1,0.6,0.3,0.8,0.6c0.2,0.2,0.4,0.5,0.4,0.9c0.1,0.4,0.1,0.8,0.1,1.2v4.8h-0.9v-4.6c0-0.3,0-0.6-0.1-0.9s-0.2-0.5-0.3-0.7
		c-0.1-0.2-0.3-0.4-0.6-0.5s-0.5-0.2-0.9-0.2c-0.4,0-0.7,0.1-1,0.2c-0.3,0.1-0.5,0.3-0.7,0.5c-0.2,0.2-0.4,0.5-0.5,0.8
		s-0.2,0.7-0.2,1v4.3h-0.9v-7.4H108.5z"/>
	<path style="fill:#666666;" d="M121.4,186.8c-0.1,0.4-0.3,0.8-0.6,1.1s-0.6,0.5-1,0.7c-0.4,0.2-0.9,0.2-1.5,0.2
		c-0.4,0-0.7,0-1.1-0.1c-0.4-0.1-0.7-0.2-1-0.4c-0.3-0.2-0.5-0.4-0.7-0.7c-0.2-0.3-0.3-0.6-0.3-1h0.9c0,0.3,0.1,0.5,0.3,0.7
		c0.1,0.2,0.3,0.3,0.5,0.5s0.4,0.2,0.7,0.3s0.5,0.1,0.7,0.1c0.8,0,1.5-0.2,1.8-0.7c0.4-0.5,0.6-1.2,0.6-2.1v-1h0
		c-0.2,0.5-0.5,0.8-0.9,1.1s-0.9,0.4-1.4,0.4c-0.6,0-1.1-0.1-1.5-0.3c-0.4-0.2-0.8-0.5-1-0.8s-0.5-0.8-0.6-1.2
		c-0.1-0.5-0.2-1-0.2-1.5c0-0.5,0.1-1,0.2-1.4c0.1-0.5,0.4-0.9,0.6-1.2c0.3-0.3,0.6-0.6,1.1-0.8s0.9-0.3,1.4-0.3
		c0.3,0,0.5,0,0.8,0.1c0.2,0.1,0.5,0.2,0.7,0.3c0.2,0.1,0.4,0.3,0.5,0.5c0.2,0.2,0.3,0.4,0.4,0.6h0v-1.3h0.9v6.8
		C121.6,185.9,121.6,186.3,121.4,186.8z M119.4,184.8c0.3-0.2,0.5-0.4,0.7-0.7c0.2-0.3,0.4-0.6,0.5-0.9s0.2-0.7,0.2-1.1
		c0-0.4,0-0.7-0.1-1.1c-0.1-0.4-0.2-0.7-0.4-1c-0.2-0.3-0.4-0.5-0.7-0.7c-0.3-0.2-0.7-0.3-1.1-0.3s-0.8,0.1-1.1,0.3
		c-0.3,0.2-0.6,0.4-0.8,0.7c-0.2,0.3-0.3,0.6-0.4,1c-0.1,0.4-0.1,0.7-0.1,1.1c0,0.4,0,0.7,0.1,1.1c0.1,0.4,0.2,0.7,0.4,0.9
		c0.2,0.3,0.5,0.5,0.8,0.7c0.3,0.2,0.7,0.3,1.1,0.3C118.7,185.1,119.1,185,119.4,184.8z"/>
	<path style="fill:#666666;" d="M132,178.6c0.4,0.2,0.8,0.5,1.1,0.8c0.3,0.4,0.5,0.8,0.7,1.2s0.2,1,0.2,1.5c0,0.5-0.1,1-0.2,1.5
		c-0.2,0.5-0.4,0.9-0.7,1.2c-0.3,0.4-0.7,0.6-1.1,0.8c-0.4,0.2-0.9,0.3-1.5,0.3s-1.1-0.1-1.5-0.3c-0.4-0.2-0.8-0.5-1.1-0.8
		c-0.3-0.4-0.5-0.8-0.7-1.2c-0.2-0.5-0.2-1-0.2-1.5c0-0.5,0.1-1,0.2-1.5s0.4-0.9,0.7-1.2c0.3-0.4,0.7-0.6,1.1-0.8
		c0.4-0.2,0.9-0.3,1.5-0.3S131.6,178.4,132,178.6z M129.3,179.3c-0.3,0.2-0.6,0.4-0.8,0.7c-0.2,0.3-0.4,0.6-0.5,1
		c-0.1,0.4-0.2,0.8-0.2,1.2c0,0.4,0.1,0.8,0.2,1.2c0.1,0.4,0.3,0.7,0.5,1c0.2,0.3,0.5,0.5,0.8,0.7c0.3,0.2,0.7,0.3,1.1,0.3
		c0.4,0,0.8-0.1,1.1-0.3c0.3-0.2,0.6-0.4,0.8-0.7c0.2-0.3,0.4-0.6,0.5-1c0.1-0.4,0.2-0.8,0.2-1.2c0-0.4-0.1-0.8-0.2-1.2
		c-0.1-0.4-0.3-0.7-0.5-1c-0.2-0.3-0.5-0.5-0.8-0.7c-0.3-0.2-0.7-0.3-1.1-0.3C130.1,179,129.7,179.1,129.3,179.3z"/>
	<path style="fill:#666666;" d="M136.8,179.2v6.7h-0.9v-6.7h-1.3v-0.8h1.3v-0.7c0-0.3,0-0.6,0.1-0.9c0-0.3,0.1-0.5,0.3-0.7
		s0.3-0.3,0.6-0.4c0.2-0.1,0.5-0.2,0.9-0.2c0.1,0,0.3,0,0.4,0s0.2,0,0.4,0v0.8c-0.1,0-0.2,0-0.3-0.1c-0.1,0-0.2,0-0.3,0
		c-0.2,0-0.4,0-0.6,0.1c-0.1,0.1-0.2,0.2-0.3,0.3c-0.1,0.1-0.1,0.3-0.1,0.5c0,0.2,0,0.4,0,0.6v0.6h1.5v0.8H136.8z"/>
	<path style="fill:#666666;" d="M140.5,179.2v6.7h-0.9v-6.7h-1.3v-0.8h1.3v-0.7c0-0.3,0-0.6,0.1-0.9c0-0.3,0.1-0.5,0.3-0.7
		s0.3-0.3,0.6-0.4c0.2-0.1,0.5-0.2,0.9-0.2c0.1,0,0.3,0,0.4,0s0.2,0,0.4,0v0.8c-0.1,0-0.2,0-0.3-0.1c-0.1,0-0.2,0-0.3,0
		c-0.2,0-0.4,0-0.6,0.1c-0.1,0.1-0.2,0.2-0.3,0.3c-0.1,0.1-0.1,0.3-0.1,0.5c0,0.2,0,0.4,0,0.6v0.6h1.5v0.8H140.5z"/>
	<path style="fill:#666666;" d="M143.7,175.6v1.5h-0.9v-1.5H143.7z M143.7,178.5v7.4h-0.9v-7.4H143.7z"/>
	<path style="fill:#666666;" d="M150,179.5c-0.3-0.3-0.8-0.5-1.4-0.5c-0.4,0-0.8,0.1-1.1,0.3c-0.3,0.2-0.6,0.4-0.8,0.7
		c-0.2,0.3-0.4,0.6-0.5,1c-0.1,0.4-0.2,0.8-0.2,1.2c0,0.4,0.1,0.8,0.2,1.2c0.1,0.4,0.3,0.7,0.5,1c0.2,0.3,0.5,0.5,0.8,0.7
		c0.3,0.2,0.7,0.3,1.1,0.3c0.3,0,0.5-0.1,0.8-0.2c0.2-0.1,0.5-0.3,0.7-0.4c0.2-0.2,0.3-0.4,0.5-0.7s0.2-0.5,0.2-0.8h0.9
		c-0.1,0.9-0.5,1.6-1,2.1c-0.5,0.5-1.2,0.8-2.1,0.8c-0.6,0-1.1-0.1-1.5-0.3c-0.4-0.2-0.8-0.5-1.1-0.8c-0.3-0.4-0.5-0.8-0.7-1.2
		c-0.2-0.5-0.2-1-0.2-1.5c0-0.5,0.1-1,0.2-1.5s0.4-0.9,0.7-1.2c0.3-0.4,0.7-0.6,1.1-0.8c0.4-0.2,0.9-0.3,1.5-0.3
		c0.8,0,1.5,0.2,2,0.6s0.9,1.1,1,1.9h-0.9C150.6,180.3,150.4,179.8,150,179.5z"/>
	<path style="fill:#666666;" d="M153.6,183.5c0.1,0.4,0.2,0.7,0.4,0.9c0.2,0.3,0.5,0.5,0.8,0.7c0.3,0.2,0.7,0.3,1.1,0.3
		c0.7,0,1.2-0.2,1.6-0.5c0.4-0.3,0.6-0.8,0.8-1.4h0.9c-0.2,0.8-0.5,1.5-1.1,2c-0.5,0.5-1.2,0.7-2.2,0.7c-0.6,0-1.1-0.1-1.5-0.3
		c-0.4-0.2-0.8-0.5-1-0.8s-0.5-0.8-0.6-1.3c-0.1-0.5-0.2-1-0.2-1.5c0-0.5,0.1-1,0.2-1.4c0.1-0.5,0.3-0.9,0.6-1.3s0.6-0.7,1-0.9
		c0.4-0.2,0.9-0.3,1.5-0.3c0.6,0,1.1,0.1,1.5,0.4c0.4,0.2,0.8,0.6,1,0.9c0.3,0.4,0.5,0.8,0.6,1.3s0.2,1,0.1,1.5h-5.7
		C153.5,182.8,153.5,183.1,153.6,183.5z M158.1,180.7c-0.1-0.3-0.3-0.6-0.5-0.8c-0.2-0.2-0.4-0.4-0.7-0.6c-0.3-0.1-0.6-0.2-1-0.2
		c-0.4,0-0.7,0.1-1,0.2c-0.3,0.1-0.5,0.3-0.7,0.6c-0.2,0.2-0.4,0.5-0.5,0.8c-0.1,0.3-0.2,0.7-0.2,1h4.8
		C158.3,181.3,158.2,181,158.1,180.7z"/>
	<path style="fill:#666666;" d="M161.3,178.5v1.7h0c0.2-0.6,0.6-1.1,1.1-1.4c0.5-0.3,1.1-0.5,1.7-0.4v0.9c-0.4,0-0.8,0-1.1,0.2
		c-0.3,0.1-0.6,0.3-0.9,0.6c-0.2,0.2-0.4,0.5-0.6,0.9c-0.1,0.3-0.2,0.7-0.2,1.1v4h-0.9v-7.4H161.3z"/>
</g>
<g>
	<path style="fill:#666666;" d="M27.3,36.9h32.5v6.2H47v6.8h11v6H47v7.3h14.4v5.9H25.8v-5.9h14.4V56h-11v-6h11v-6.8H27.3V36.9z"/>
	<path style="fill:#666666;" d="M65.4,36h14.7v-1.9h6.2V36h14.7v4.3H86.3v1.2H98v19h4v4.3H90.6c3.4,0.6,6.8,1.2,10.1,1.7l-1.7,4.8
		c-2.8-0.8-6.7-1.8-11.8-2.9c-0.9-0.2-1.6-0.4-2-0.5l1.4-3.1h-7.1l1.7,3.1c-2.8,0.7-7.1,1.8-13,3.2c-0.3-0.6-0.8-1.7-1.5-3.1
		c-0.3-0.7-0.6-1.2-0.8-1.5c1.8-0.1,4.3-0.5,7.7-1.2c0.9-0.2,1.6-0.4,2.2-0.5H64.3v-4.3h4.2v-19h11.6v-1.2H65.4V36z M74.7,45.4V47
		h17v-1.5H74.7z M74.7,49.9v1.5h17v-1.5H74.7z M74.7,54.6v1.5h17v-1.5H74.7z M74.7,59.2v1.4h17v-1.4H74.7z"/>
	<path style="fill:#666666;" d="M103.9,40.3h4c0.3-2.2,0.5-4.3,0.6-6.5l6.7,0.5c-0.1,0.9-0.3,2.3-0.6,4c-0.1,0.9-0.2,1.6-0.3,2h8.2
		c-0.3,10.1-1.5,16.9-3.7,20.4c1.5,1.3,3.1,2.7,4.8,4.2l-4.5,4.3c-1.2-1.2-2.6-2.4-4-3.6c-1.8,1.6-4,3.5-6.8,5.4
		c-1.8-2.1-3.2-3.6-4.3-4.5c2.8-1.8,5-3.5,6.7-5.1c-0.6-0.6-1.5-1.4-2.8-2.5c-1.3-1.1-2.3-2-2.9-2.5c0.8-3.1,1.5-6.6,2.2-10.5h-3.1
		V40.3z M111.3,54.7c0.3,0.2,0.7,0.6,1.2,1.1c0.6,0.4,1,0.8,1.2,1.1c1.1-2.5,1.9-6.1,2.2-10.8h-2.8
		C112.5,49.4,111.9,52.3,111.3,54.7z M123.5,69.4v-32h16.4v31.7h-6V66h-4.3v3.4H123.5z M129.6,42.8v17.8h4.3V42.8H129.6z"/>
</g>
<g>
	<path style="fill:#666666;" d="M29,225.6c0,1-0.3,1.5-1,1.6c-0.3,0-0.6,0-1,0c0,0,0-0.1,0-0.1c0-0.3-0.1-0.6-0.1-0.7
		c0.1,0,0.2,0,0.3,0c0.3,0,0.4,0,0.5,0c0.4,0,0.5-0.3,0.5-0.8c0-0.8-0.3-1.6-1-2.4c0.2-0.6,0.5-1.6,0.8-2.9h-1.3v8.6h-0.8v-9.4H29
		v0.7c-0.5,1.5-0.8,2.4-0.9,2.8C28.8,223.9,29.1,224.8,29,225.6z M29.4,219.6h6.3v0.8h-0.9v6.8c0.1,1-0.4,1.5-1.4,1.5
		c-0.3,0-0.8,0-1.5,0c0-0.1-0.1-0.3-0.1-0.5c-0.1-0.2-0.1-0.3-0.1-0.3c0.4,0,0.9,0,1.5,0c0.6,0,0.8-0.2,0.8-0.7v-6.8h-4.6V219.6z
		 M29.7,221.8h3.1v4.4h-3.1V221.8z M30.5,222.5v3h1.6v-3H30.5z"/>
	<path style="fill:#666666;" d="M37,225.7h4v-1.2h-3.7v-5h8.1v5h-3.7v1.2h4.1v0.7h-4.1v1.3h4.7v0.7H36.3v-0.7H41v-1.3h-4V225.7z
		 M38.1,220.1v1.5H41v-1.5H38.1z M38.1,222.3v1.5H41v-1.5H38.1z M44.7,220.1h-2.9v1.5h2.9V220.1z M41.8,222.3v1.5h2.9v-1.5H41.8z"/>
	<path style="fill:#666666;" d="M51.2,227.3l-0.6,0.5c-0.2-0.1-0.4-0.3-0.7-0.7c-0.1-0.1-0.3-0.3-0.3-0.3c-0.4,0.6-1,1.3-1.9,2
		c-0.1-0.2-0.3-0.5-0.5-0.7c0.7-0.5,1.3-1.1,1.9-1.9c-0.2-0.1-0.4-0.4-0.7-0.7c-0.3-0.3-0.5-0.5-0.7-0.7c0.2-0.6,0.4-1.6,0.7-3.1
		h-0.9v-0.7h1c0.1-0.4,0.1-1,0.3-1.8c0-0.2,0-0.3,0-0.4l0.8,0.1c0,0.3-0.1,0.7-0.2,1.3c-0.1,0.4-0.1,0.6-0.1,0.8h1.8v0.7
		c-0.2,1.9-0.5,3.3-1,4.2C50.4,226.5,50.8,226.9,51.2,227.3z M50.2,221.9H49c-0.2,1.1-0.4,2-0.6,2.8c0.2,0.1,0.4,0.3,0.7,0.6
		c0.1,0.1,0.3,0.2,0.3,0.3C49.8,224.6,50.1,223.4,50.2,221.9z M51.1,225.7h4.5v0.8h-4.5V225.7z M52.8,220.7l-0.3,2.9h2.6l0.3-3.5
		h-4.2v-0.7h5.1l-0.4,4.3h1c-0.1,1.8-0.1,3-0.2,3.6c-0.1,1-0.6,1.5-1.7,1.5c-0.7,0-1.2,0-1.6,0c0-0.2-0.1-0.4-0.1-0.6
		c0-0.1,0-0.2,0-0.3c0.2,0,0.8,0,1.7,0c0.6,0,0.9-0.3,1-0.8c0.1-0.5,0.1-1.4,0.2-2.7h-4.4l0.3-3.6H52.8z"/>
	<path style="fill:#666666;" d="M62,227.3l-0.6,0.5c-0.2-0.1-0.4-0.3-0.7-0.7c-0.1-0.1-0.3-0.3-0.3-0.3c-0.4,0.6-1,1.3-1.9,2
		c-0.1-0.2-0.3-0.5-0.5-0.7c0.7-0.5,1.3-1.1,1.9-1.9c-0.2-0.1-0.4-0.4-0.7-0.7c-0.3-0.3-0.5-0.5-0.7-0.7c0.2-0.6,0.4-1.6,0.7-3.1
		h-0.9v-0.7h1c0.1-0.4,0.1-1,0.3-1.8c0-0.2,0-0.3,0-0.4l0.8,0.1c0,0.3-0.1,0.7-0.2,1.3c-0.1,0.4-0.1,0.6-0.1,0.8h1.8v0.7
		c-0.2,1.9-0.5,3.3-1,4.2C61.2,226.5,61.6,226.9,62,227.3z M61,221.9h-1.2c-0.2,1.1-0.4,2-0.6,2.8c0.2,0.1,0.4,0.3,0.7,0.6
		c0.1,0.1,0.3,0.2,0.3,0.3C60.6,224.6,60.9,223.4,61,221.9z M61.9,225.7h4.5v0.8h-4.5V225.7z M63.6,220.7l-0.3,2.9H66l0.3-3.5h-4.2
		v-0.7h5.1l-0.4,4.3h1c-0.1,1.8-0.1,3-0.2,3.6c-0.1,1-0.6,1.5-1.7,1.5c-0.7,0-1.2,0-1.6,0c0-0.2-0.1-0.4-0.1-0.6c0-0.1,0-0.2,0-0.3
		c0.2,0,0.8,0,1.7,0c0.6,0,0.9-0.3,1-0.8c0.1-0.5,0.1-1.4,0.2-2.7h-4.4l0.3-3.6H63.6z"/>
</g>
<g>
	<path style="fill:#666666;" d="M25.7,245c0.2-0.1,0.6-0.2,1.1-0.3c0.2-0.1,0.3-0.1,0.4-0.1v-4.1h-1.3v-0.7h1.3v-2.8h0.8v2.8h1.2
		v0.7h-1.2v3.8c0.2-0.1,0.4-0.1,0.8-0.3c0.3-0.1,0.5-0.2,0.6-0.2c0,0.3,0,0.6,0,0.8c-1.2,0.5-2.3,0.8-3.3,1.1L25.7,245z M28.8,241.2
		l0.9-0.3V238h0.8v2.5l1.6-0.5v-3.1h0.8v2.8l2.5-0.9c0,0.2,0,0.6,0,1.1c0,0.9-0.1,1.6-0.1,2.1c0,1.1-0.4,1.6-1.3,1.5
		c-0.2,0-0.4,0-0.8,0c0-0.3-0.1-0.5-0.2-0.8c0.1,0,0.2,0,0.4,0c0.2,0,0.4,0,0.5,0c0.4,0,0.6-0.2,0.6-0.8c0-0.5,0-1.2,0-2.1l-1.6,0.7
		v4.3h-0.8v-4l-1.6,0.6v3.5c0,0.6,0.3,0.9,1,0.8h2.2c0.8,0,1.2-0.2,1.2-0.7c0.1-0.6,0.2-1.1,0.2-1.5c0.3,0.1,0.5,0.2,0.8,0.3
		c-0.1,0.7-0.2,1.2-0.3,1.7c-0.1,0.7-0.7,1.1-1.8,1.1h-2.6c-1.1,0-1.6-0.5-1.6-1.4v-3.3l-0.8,0.3L28.8,241.2z"/>
	<path style="fill:#666666;" d="M36.5,244.6c0.2-0.1,0.4-0.1,0.8-0.3c0.4-0.1,0.6-0.2,0.8-0.3v-3.8h-1.4v-0.8h1.4v-2.7h0.8v2.7h1.4
		v0.8h-1.4v3.5c0.5-0.2,1-0.3,1.5-0.5c0,0.3,0,0.6,0,0.8c-0.2,0.1-0.5,0.2-0.8,0.3c-1.3,0.5-2.2,0.8-2.8,1.1L36.5,244.6z
		 M43.2,236.8H44v3.2h2.4v0.8H44v4.7h2.7v0.7h-7.3v-0.7h1.6v-6.5h0.8v6.5h1.5V236.8z"/>
	<path style="fill:#666666;" d="M50.4,242.3v1.5H49v-1.5H50.4z M50.4,245.5v1.4H49v-1.4H50.4z"/>
	<path style="fill:#666666;" d="M58.8,239h4v-2.2h0.8v2.2h4v4.6h-0.8v-0.5h-3.2v3.8h-0.8v-3.8h-3.2v0.5h-0.8V239z M59.6,239.8v2.6
		h3.2v-2.6H59.6z M66.8,239.8h-3.2v2.6h3.2V239.8z"/>
	<path style="fill:#666666;" d="M69.5,237.4h8.9v9.4h-0.8v-0.5h-7.4v0.5h-0.8V237.4z M70.3,238.1v7.5h7.4v-7.5H70.3z M71.2,241.1
		h2.4v-1.4H71v-0.7H77v0.7h-2.7v1.4h2.4v0.7h-2.4v2h2.8v0.7h-6.4v-0.7h2.8v-2h-2.4V241.1z M74.9,242.5l0.6-0.5
		c0.2,0.2,0.5,0.6,1,1.1l-0.6,0.5C75.5,243.1,75.2,242.8,74.9,242.5z"/>
	<path style="fill:#666666;" d="M83.9,237h0.9v3.1H89v0.8h-4.2v4.6h5v0.7h-10v-0.7h4V237z"/>
	<path style="fill:#666666;" d="M91,239.6c0.6,0.5,1.2,0.9,1.7,1.4l-0.6,0.6c-0.5-0.5-1.1-0.9-1.6-1.4L91,239.6z M90.8,246.5
		c0.2-0.7,0.6-1.8,1-3.5c0-0.2,0.1-0.3,0.1-0.4c0.3,0.1,0.5,0.2,0.8,0.3c-0.3,1.2-0.7,2.5-1,3.8L90.8,246.5z M91.4,236.9
		c0.5,0.4,1.1,0.8,1.7,1.4l-0.5,0.6c-0.6-0.6-1.2-1.1-1.6-1.5L91.4,236.9z M92.7,239.7c0.9-0.8,1.6-1.8,2.1-3l0.8,0.1
		c-0.1,0.3-0.3,0.6-0.5,0.9h5.4v0.7h-5.8c-0.5,0.8-1,1.4-1.5,1.8c-0.1-0.1-0.2-0.2-0.3-0.4C92.8,239.8,92.7,239.7,92.7,239.7z
		 M99.7,239.4c0,0.3,0,0.8,0,1.4c0,0.5,0,0.9,0,1.2h1.1v0.7h-1.1c0,0.3,0,0.6,0,1.1c0,0.4,0,0.7,0,0.8h0.8v0.7h-0.8
		c-0.1,1-0.6,1.5-1.7,1.5c-0.5,0-0.9,0-1.4,0c0-0.1,0-0.3-0.1-0.5c0-0.1,0-0.2,0-0.3c0.4,0,0.8,0,1.4,0c0.6,0,1-0.2,1.1-0.7h-5.3
		l0.3-2.6h-1v-0.7h1.1l0.3-2.6H99.7z M98.8,244.5c0-0.2,0-0.5,0-0.9c0-0.4,0-0.7,0-1h-4.3l-0.2,1.9H98.8z M94.9,240.1l-0.3,1.9h4.2
		c0-0.6,0-1.3,0-1.9H94.9z M95.8,243.3l0.4-0.5c0.4,0.3,0.9,0.7,1.3,1l-0.5,0.5c-0.1-0.1-0.2-0.2-0.4-0.4
		C96.5,243.9,96.2,243.7,95.8,243.3z M95.9,240.7l0.5-0.5c0.4,0.3,0.8,0.7,1.3,1l-0.5,0.5C96.7,241.4,96.3,241,95.9,240.7z"/>
	<path style="fill:#666666;" d="M101.5,238.3h4.8c-0.2-0.4-0.5-0.8-0.7-1.3l0.8-0.4c0.3,0.5,0.6,0.9,0.8,1.3l-0.7,0.3h5v0.8h-4.6
		v1.4h3.7v3.8c0.1,0.9-0.4,1.3-1.3,1.3c-0.4,0-0.8,0-1.4,0c0-0.2-0.1-0.4-0.2-0.8c0.1,0,0.3,0,0.5,0c0.3,0,0.6,0,0.8,0
		c0.5,0,0.8-0.2,0.8-0.7v-2.9h-2.9v5.5H106v-5.5h-2.8v4.5h-0.8v-5.2h3.6v-1.4h-4.5V238.3z"/>
	<path style="fill:#666666;" d="M112.1,239.6c0.9-0.7,1.7-1.6,2.4-2.8l0.7,0.4c-0.9,1.3-1.8,2.3-2.7,3.2
		C112.4,240.1,112.3,239.8,112.1,239.6z M112.1,242.7c1-0.9,1.8-2.1,2.6-3.5l0.7,0.4c-0.1,0.2-0.3,0.4-0.5,0.8
		c-0.3,0.4-0.4,0.6-0.5,0.8v5.5h-0.8v-4.5c-0.4,0.5-0.7,0.9-1.1,1.3C112.3,243.3,112.2,243,112.1,242.7z M116.6,243.5l0.7,0.4
		c-0.5,0.8-1.1,1.6-1.7,2.3c-0.1-0.1-0.4-0.3-0.6-0.5C115.4,245.2,116,244.5,116.6,243.5z M119.4,237c-0.1,0.1-0.2,0.3-0.2,0.3
		c0.8,1.3,1.9,2.3,3.2,2.9c0,0.1-0.1,0.2-0.2,0.3c-0.1,0.1-0.2,0.3-0.3,0.3c-1.2-0.7-2.3-1.7-3.1-2.9c-0.5,0.8-1.2,1.6-2.1,2.3h4.2
		v0.7h-1.7v1.3h2.8v0.7h-2.8v2.5c0.1,0.8-0.3,1.1-1.1,1.1c-0.3,0-0.7,0-1.1,0c0-0.1,0-0.3-0.1-0.6c0-0.1,0-0.2,0-0.2
		c0.1,0,0.3,0,0.5,0c0.2,0,0.4,0,0.5,0c0.4,0,0.6-0.1,0.5-0.5V243h-2.7v-0.7h2.7V241h-1.8v-0.5c-0.1,0.1-0.2,0.2-0.4,0.3
		c-0.2,0.1-0.3,0.3-0.4,0.3c-0.1-0.1-0.1-0.2-0.3-0.3c-0.1-0.2-0.2-0.3-0.3-0.3c1.5-0.9,2.7-2.1,3.5-3.6L119.4,237z M119.7,244
		l0.6-0.4c0.7,0.8,1.3,1.4,1.8,2l-0.6,0.5c-0.1-0.1-0.2-0.2-0.3-0.4C120.6,244.9,120.1,244.4,119.7,244z"/>
	<path style="fill:#666666;" d="M123.1,244.1c1.7-0.4,3.1-1.2,4.1-2.1c0-0.1-0.1-0.1-0.2-0.3c-0.1-0.1-0.2-0.2-0.2-0.2
		c-1,0.7-2.1,1.2-3.4,1.6c-0.1-0.2-0.3-0.4-0.5-0.7c1.5-0.3,2.9-1,4.1-1.9h-2.8v-0.7h7.3v0.7h-3.5c-0.3,0.2-0.5,0.4-0.8,0.6
		c0.4,0.4,0.7,0.8,0.9,1.3c1.2-0.6,2.2-1.1,3.1-1.6l0.5,0.7c-0.6,0.3-1.3,0.7-2,1c0.5,1.4,1.5,2.3,3.1,2.8c-0.2,0.2-0.4,0.4-0.6,0.7
		c-1.5-0.6-2.6-1.7-3.1-3.2c-0.1,0-0.2,0.1-0.3,0.2c-0.1,0.1-0.3,0.1-0.3,0.2c0.2,0.5,0.3,1,0.3,1.5c0.1,1.4-0.6,2-1.9,2
		c-0.4,0-0.7,0-1,0c-0.1-0.3-0.1-0.6-0.2-0.8c0.2,0,0.6,0,1.2,0c0.8,0.1,1.2-0.4,1.1-1.2c0-0.3,0-0.5-0.1-0.8
		c-1.1,1.1-2.6,1.9-4.6,2.6c-0.1-0.2-0.2-0.5-0.4-0.8c2-0.5,3.6-1.4,4.9-2.6c-0.1-0.2-0.2-0.4-0.3-0.6c-1.1,1-2.4,1.7-4.1,2.2
		C123.4,244.5,123.3,244.3,123.1,244.1z M127.4,237l0.8-0.3c0.1,0.1,0.1,0.3,0.3,0.5c0.1,0.3,0.2,0.5,0.3,0.7l-0.5,0.1h4.5v1.7h-0.8
		v-1h-7.8v1h-0.8v-1.7h4.6C127.7,237.6,127.5,237.3,127.4,237z"/>
	<path style="fill:#666666;" d="M134.1,239.6c0.7,0.4,1.4,0.9,1.9,1.3c-0.2,0.3-0.4,0.5-0.5,0.8c-0.7-0.6-1.3-1.1-1.9-1.4
		L134.1,239.6z M135.3,242.6c0.3,0.2,0.6,0.3,0.8,0.4c-0.2,0.8-0.6,2-1.1,3.7l-0.9-0.4C134.5,245.2,134.9,244,135.3,242.6z
		 M134.6,236.9c0.4,0.3,0.9,0.7,1.6,1.2c0.1,0.1,0.1,0.1,0.2,0.2c-0.1,0.1-0.2,0.2-0.4,0.5c0.1-0.1,0,0-0.1,0.2c0,0-0.1-0.1-0.1-0.1
		c-0.8-0.6-1.3-1.1-1.7-1.4L134.6,236.9z M137.1,237.4h6.5v0.8H138v7.3h5.8v0.8h-6.7V237.4z"/>
	<path style="fill:#666666;" d="M145.2,237.4h3.3v3.2h-1v1.7h1v0.7h-1v2.1c0.4-0.1,0.8-0.1,1.2-0.2c0,0.2,0,0.4,0,0.7
		c-0.3,0.1-1,0.2-2.1,0.3c-0.9,0.1-1.5,0.2-1.9,0.3l-0.1-0.7c0.2,0,0.4,0,0.6-0.1v-3.8h0.7v3.8c0.3-0.1,0.6-0.1,0.9-0.1v-4.6h-1.6
		V237.4z M145.9,238.1v1.8h1.9v-1.8H145.9z M148.6,239.9c0.7-0.8,1.3-1.9,1.9-3.1l0.8,0.2c0,0.1-0.1,0.2-0.2,0.3
		c0,0.1-0.1,0.3-0.3,0.6h3.2v0.7c-0.6,1-1.2,1.8-1.8,2.4c0.6,0.5,1.5,0.8,2.5,1.1c-0.1,0.2-0.3,0.5-0.5,0.8
		c-1.1-0.4-1.9-0.8-2.6-1.4c-0.8,0.6-1.6,1-2.7,1.4c-0.2-0.3-0.4-0.6-0.5-0.7c1.1-0.4,1.9-0.8,2.5-1.2c-0.4-0.4-0.8-1-1.1-1.6
		c-0.3,0.4-0.5,0.7-0.8,1.1C149,240.3,148.8,240.1,148.6,239.9z M149.3,242.9h4.4v3.9H153v-0.5h-2.9v0.5h-0.8V242.9z M150.1,243.6v2
		h2.9v-2H150.1z M153.1,238.6h-2.7c0,0,0,0.1,0,0.1c0.4,0.7,0.8,1.3,1.3,1.8C152.2,240,152.7,239.3,153.1,238.6z"/>
	<path style="fill:#666666;" d="M160.9,239.3l-0.8,0.3c-0.2-1-0.8-1.5-1.6-1.4c-1.4,0-2.1,1.2-2.1,3.5c0.5-0.8,1.2-1.2,2.2-1.2
		c1.6,0.1,2.4,1,2.5,2.7c-0.1,1.8-1,2.7-2.7,2.9c-2,0-3-1.4-3-4.1c0-3.1,1.1-4.6,3.1-4.6C159.7,237.4,160.5,238.1,160.9,239.3z
		 M156.4,242.7c0,1.7,0.7,2.6,2,2.7c1.1-0.1,1.6-0.8,1.7-2.1c0-1.3-0.6-2-1.7-2.1C157.3,241.3,156.6,241.8,156.4,242.7z"/>
	<path style="fill:#666666;" d="M165.1,239.2c-0.6,0.6-1.4,1-2.2,1.4v-0.9c1.3-0.6,2.1-1.3,2.5-2.2h0.6v8.6h-0.9V239.2z"/>
	<path style="fill:#666666;" d="M171.5,246.1c-1.9,0-2.8-1.5-2.8-4.3c0-2.8,1-4.3,2.8-4.4c1.8,0.1,2.8,1.5,2.8,4.4
		C174.2,244.6,173.3,246,171.5,246.1z M171.4,238.2c-1.2,0.1-1.7,1.3-1.8,3.6c0,2.4,0.6,3.6,1.8,3.6c1.2,0,1.8-1.2,1.8-3.6
		C173.3,239.3,172.6,238.1,171.4,238.2z"/>
	<path style="fill:#666666;" d="M176.9,243.8V243l0.5-1.1h-2.2v-0.7h10.1v0.7h-7l-0.5,1.1h6.1c-0.1,0.6-0.1,1.2-0.2,1.8
		c-0.1,1.2-0.8,1.8-2.3,1.8c-0.7,0-1.4,0-2.2,0c0,0,0-0.1,0-0.2c0-0.3-0.1-0.5-0.1-0.7c0.8,0.1,1.6,0.1,2.3,0.1c1,0.1,1.4-0.3,1.5-1
		c0-0.1,0-0.2,0-0.3c0-0.3,0.1-0.6,0.1-0.7H176.9z M176.7,237.3h6.9v3h-6.9V237.3z M177.5,238v1.5h5.3V238H177.5z"/>
	<path style="fill:#666666;" d="M27.2,255.5h7.3v9.2h-0.9V264H28v0.7h-0.8V255.5z M28,256.2v3.1h5.6v-3.1H28z M28,260.1v3.2h5.6
		v-3.2H28z"/>
	<path style="fill:#666666;" d="M43.5,263.8c0.6,0,0.9-0.2,0.9-0.7v-1.7H39c-0.1,1.3-0.6,2.5-1.5,3.5c-0.2-0.2-0.5-0.4-0.7-0.6
		c1.1-1,1.6-2.8,1.6-5.5v-3.5h6.8v7.9c0.1,1-0.5,1.5-1.6,1.5c-0.6,0-1.1,0-1.4,0c0-0.2-0.1-0.5-0.2-0.8c0.1,0,0.3,0,0.6,0
		C43,263.8,43.3,263.8,43.5,263.8z M39.1,258.8c0,0.7,0,1.3,0,1.9h5.3v-2h-5.2V258.8z M39.1,256v2h5.2v-2H39.1z"/>
	<path style="fill:#666666;" d="M52,254.8h0.8v4.3h4.6v0.8H54v3.2c0,0.5,0.2,0.7,0.7,0.7h1.1c0.4,0,0.7-0.2,0.8-0.5
		c0-0.1,0-0.2,0-0.5c0-0.4,0-0.7,0-1c0.1,0,0.1,0.1,0.2,0.1c0.3,0.1,0.6,0.2,0.7,0.2c-0.1,0.8-0.2,1.3-0.3,1.5
		c-0.1,0.6-0.6,0.9-1.5,0.9h-1.2c-0.9,0-1.4-0.5-1.4-1.3v-3.4h-2c0.1,2.5-1,4.1-3.5,4.9c-0.1-0.2-0.3-0.4-0.5-0.7
		c2.2-0.6,3.2-2,3.2-4.2h-3v-0.8H52V254.8z M48.2,256.1l0.6-0.5c0.7,0.8,1.4,1.5,2,2.3l-0.7,0.5C49.4,257.6,48.8,256.8,48.2,256.1z
		 M53.9,258c0.8-0.8,1.5-1.6,2.1-2.4l0.8,0.5c-0.7,0.8-1.4,1.6-2.2,2.3L53.9,258z"/>
	<path style="fill:#666666;" d="M58.8,257h4v-2.2h0.8v2.2h4v4.6h-0.8v-0.5h-3.2v3.8h-0.8v-3.8h-3.2v0.5h-0.8V257z M59.6,257.8v2.6
		h3.2v-2.6H59.6z M66.8,257.8h-3.2v2.6h3.2V257.8z"/>
	<path style="fill:#666666;" d="M70.1,257.9l0.8,0.2c-0.3,1.6-0.7,3-1.1,4.2l-0.8-0.3C69.4,260.5,69.8,259.1,70.1,257.9z
		 M71.6,256.7h0.8v6c0,0.6,0.3,0.9,0.9,0.9h2c0.7,0.1,1.1-0.2,1.1-0.7c0-0.1,0-0.3,0-0.5c0.1-0.4,0.1-0.8,0.1-1.1
		c0.3,0.1,0.6,0.2,0.8,0.3c-0.1,0.6-0.2,1.2-0.3,1.6c-0.1,0.8-0.7,1.2-1.8,1.1h-2.2c-1.1,0-1.6-0.5-1.6-1.5V256.7z M73.8,254.7
		c0.4,0.6,0.9,1.4,1.5,2.6c0.1,0.1,0.1,0.3,0.2,0.3l-0.8,0.4c-0.5-1-1-2-1.6-3L73.8,254.7z M77.3,257.5c0.1,0.1,0.1,0.3,0.3,0.5
		c0.7,1.4,1.2,2.5,1.5,3.2l-0.8,0.4c-0.5-1.4-1.1-2.6-1.7-3.8L77.3,257.5z"/>
	<path style="fill:#666666;" d="M86.4,261l1.1,0.3c-0.5,1.8-1.8,2.8-3.7,2.8c-2.4-0.1-3.7-1.5-3.8-4.2c0.1-2.9,1.4-4.4,3.9-4.5
		c1.6,0.1,2.7,0.9,3.4,2.4l-1.1,0.3c-0.5-1.2-1.3-1.8-2.4-1.9c-1.7,0.2-2.7,1.4-2.8,3.6c0.1,2.2,1,3.3,2.8,3.5
		C85.2,263.3,86,262.5,86.4,261z"/>
	<path style="fill:#666666;" d="M93.2,255l0.7-0.3c0.1,0.1,0.1,0.3,0.2,0.5c0.2,0.3,0.3,0.5,0.3,0.7l-0.3,0.2h4.1v0.7h-8.3v2.4
		c0,1.6-0.1,2.7-0.2,3.5c-0.1,0.7-0.4,1.5-0.8,2.3c-0.1,0-0.1-0.1-0.2-0.2c-0.1-0.1-0.2-0.2-0.5-0.4c0.4-0.7,0.6-1.3,0.8-2
		c0.1-0.6,0.2-1.7,0.2-3.1V256h4.5C93.4,255.6,93.3,255.3,93.2,255z M89.9,263.6h3.8v-1.4h-3.1v-0.7h3.1v-4.4h0.8v4.4h3.1v0.7h-3.1
		v1.4h3.8v0.7h-8.4V263.6z M90.1,260.3c0.8-0.9,1.3-1.8,1.5-2.9l0.8,0.2c-0.1,0.4-0.2,0.7-0.3,1c0.1,0.1,0.3,0.3,0.5,0.5
		c0.4,0.4,0.7,0.7,0.9,0.9l-0.6,0.5c-0.3-0.4-0.7-0.9-1.2-1.3c-0.3,0.5-0.6,1-1.1,1.5C90.5,260.7,90.3,260.5,90.1,260.3z
		 M94.6,260.2c0.8-0.8,1.3-1.7,1.7-2.7l0.8,0.2c0,0,0,0.1,0,0.1c-0.1,0.3-0.3,0.6-0.4,0.8c0.6,0.5,1.1,1,1.6,1.6l-0.6,0.6
		c-0.4-0.5-0.9-1-1.4-1.5c-0.3,0.5-0.6,0.9-1.1,1.4c-0.1-0.1-0.1-0.1-0.3-0.2C94.8,260.3,94.7,260.2,94.6,260.2z"/>
	<path style="fill:#666666;" d="M99.1,263.9v-0.5c0.5-1.1,1.4-2.1,2.7-3c1.3-0.9,1.9-1.8,1.9-2.5c0-1-0.6-1.5-1.7-1.6
		c-0.9,0.1-1.5,0.6-1.8,1.6l-0.8-0.4c0.5-1.4,1.4-2.1,2.8-2c1.6,0.1,2.4,0.8,2.5,2.2c0.1,1.1-0.6,2.2-2.1,3.2
		c-1.2,0.8-1.9,1.6-2.3,2.4h4.4v0.7H99.1z"/>
	<path style="fill:#666666;" d="M108.5,264.1c-1.9,0-2.8-1.5-2.8-4.3c0-2.8,1-4.3,2.8-4.4c1.8,0.1,2.8,1.5,2.8,4.4
		C111.2,262.6,110.3,264,108.5,264.1z M108.4,256.2c-1.2,0.1-1.7,1.3-1.8,3.6c0,2.4,0.6,3.6,1.8,3.6c1.2,0,1.8-1.2,1.8-3.6
		C110.3,257.3,109.7,256.1,108.4,256.2z"/>
	<path style="fill:#666666;" d="M121.7,258.2h-7.6v0.5c0,1.5-0.1,2.6-0.3,3.5c-0.2,0.9-0.6,1.8-1.2,2.7c-0.3-0.3-0.5-0.6-0.6-0.7
		c0.9-1.2,1.3-3,1.3-5.4v-3.4h8.4V258.2z M114.1,256v1.5h6.8V256H114.1z M118.9,262.6l0.6-0.5c0.9,0.8,1.7,1.5,2.4,2.2l-0.6,0.5
		c-0.2-0.2-0.4-0.5-0.6-0.7c-2.4,0-4.1,0.1-5.1,0.2c-0.2,0-0.4,0-0.7,0.1l-0.3-0.8c0.4-0.1,0.7-0.3,0.9-0.5c0.5-0.5,1-1,1.3-1.5
		h-2.6V261h8.1v0.7h-4.5c-0.6,0.8-1.2,1.4-1.6,1.8c1.3,0,2.6,0,3.9,0C119.6,263.2,119.3,262.8,118.9,262.6z M114.9,259.2h6.4v0.7
		h-6.4V259.2z"/>
</g>
<g>
	<path style="fill:#666666;" d="M27.2,167.3v-11.7H32l0.2-1h-6.5v-2.2h4c-0.1-0.2-0.3-0.5-0.5-0.8c-0.2-0.3-0.4-0.6-0.6-0.8l3.1-0.3
		c0.2,0.3,0.5,0.8,0.9,1.4c0.1,0.2,0.2,0.4,0.3,0.5h2.4c0.5-0.7,0.9-1.4,1.3-1.9l3.3,0.3c-0.5,0.6-0.9,1.1-1.2,1.6h4v2.2h-7.5
		l-0.2,1h6.2v11.7h-2.9v-0.8h-8.3v0.8H27.2z M30.1,157.7v0.8h8.3v-0.8H30.1z M30.1,160.6v0.9h8.3v-0.9H30.1z M30.1,163.5v0.8h8.3
		v-0.8H30.1z"/>
	<path style="fill:#666666;" d="M59.9,160.9v3.5c0,1.2-0.6,1.9-2,1.9c-0.1,0-0.4,0-0.8,0c-0.6,0-0.9,0.1-1.1,0.1
		c-0.1-0.8-0.3-1.5-0.5-2.2c0.1,0,0.3,0,0.6,0c0.3,0,0.6,0.1,0.7,0.1c0.5,0,0.7-0.2,0.6-0.7V163H55v4.2h-2.6V163h-1.9v3.2H48v-5.3
		h4.4v-0.8h-3.2v-2.9h-1.8v1c0,4-0.5,7.1-1.5,9.1c-0.2-0.2-0.6-0.5-1.1-0.8c-0.5-0.4-0.9-0.7-1.2-0.9c0.9-1.7,1.3-4.2,1.3-7.6v-6.3
		h6.5c-0.1-0.5-0.3-0.9-0.4-1.3l3.4-0.2c0.1,0.4,0.3,0.9,0.4,1.5h5.8v2.3h-2.5v1h2.5v2.2h-2.5v2.9H55v0.8H59.9z M47.5,154v1h1.8v-1
		H47.5z M51.9,154v1h3.7v-1H51.9z M51.9,158.1h3.7v-0.9h-3.7V158.1z"/>
	<path style="fill:#666666;" d="M71.8,150.4h2.7v0.9h4.1v2.1h-4.1v0.6h-2.7v-0.6h-3.2v0.6h-2.7v-0.6h-4.1v-2.1h4.1v-0.9h2.7v0.9h3.2
		V150.4z M62.1,157.8v-3.5h16.2v3.5H76v3.4H64.3v-3.4H62.1z M63,167.3V162h14.3v5.3h-2.8v-0.6h-8.7v0.6H63z M64.9,156.2v0.6h10.7
		v-0.6H64.9z M65.9,164v0.8h8.7V164H65.9z M73.3,158.7H67v0.8h6.3V158.7z"/>
	<path style="fill:#666666;" d="M81.5,150.3l2.5,0.4c0,0.2-0.1,0.4-0.3,0.8c-0.1,0.4-0.2,0.7-0.3,0.8h2.2l1.7-1.4
		c0.7,0.6,1.5,1.4,2.4,2.2l-2,1.6c0-0.1-0.2-0.2-0.4-0.4c-0.7-0.8-1.3-1.5-1.7-1.8v2h-3.2c-0.1,0.4-0.3,0.8-0.6,1.1h3.4v2.3h-1.5
		v1.3h1.6v2.2h-1.6v2c0.2-0.1,0.5-0.4,1.1-0.6c0.2-0.1,0.4-0.2,0.6-0.3c0,1.2,0,2,0.1,2.5c0,0-0.1,0.1-0.2,0.1
		c-1.1,0.6-1.9,1-2.3,1.3c-0.1,0.1-0.2,0.2-0.4,0.3c-0.2,0.1-0.3,0.2-0.4,0.3l-1.3-2c0.4-0.4,0.6-1,0.6-1.8v-1.8h-1.6v-2.2h1.6v-1.3
		h-1.2v-1.8c0-0.1-0.2-0.4-0.4-0.6c-0.1-0.3-0.3-0.5-0.4-0.6C80.3,153.8,80.9,152.3,81.5,150.3z M95.1,151l1.7,1.7
		c-0.3,0.3-0.8,0.7-1.5,1.3c-0.4,0.4-0.8,0.7-1.1,0.9l-1.7-1.8v1.8h3.7v9.7c0,1.6-0.8,2.5-2.4,2.5c-0.2,0-0.6,0-1.1,0
		c-0.7,0-1.2,0.1-1.5,0.1c-0.1-0.7-0.3-1.5-0.5-2.3c0.7,0,1.3,0,1.9,0c0.7,0,1-0.3,1-1h-4.7v3.4h-2.6v-12.3h3.6v-4.4h2.7v2.5
		c0.6-0.4,1.4-1,2.4-1.8C95,151.1,95.1,151,95.1,151z M88.8,157.4v0.9h4.7v-0.9H88.8z M88.8,160.6v1h4.7v-1H88.8z"/>
	<path style="fill:#666666;" d="M98.1,156.1v-4.3h6.5c0-0.1-0.1-0.4-0.2-0.7c-0.1-0.3-0.2-0.5-0.2-0.6l3.6-0.2c0,0.1,0,0.3,0.1,0.6
		c0,0.5,0.1,0.8,0.1,1h6.2v4.3h-1.9v4.3h-10v0.9h10.7v5.8h-2.8v-0.6h-7.9v0.8h-2.8v-11.2H98.1z M100.9,154.1v1h10.6v-1H100.9z
		 M102.4,157.2v1.1h7.2v-1.1H102.4z M110.3,163.5h-7.9v1.1h7.9V163.5z"/>
</g>
<g>
	<path style="fill:#666666;" d="M29.9,298.7h0.8v1.4h3.8v5.7h-3.8v1.1c-0.1,0.5,0.3,0.7,0.9,0.7h2c0.6,0,0.9-0.1,1-0.5
		c0.1-0.2,0.1-0.7,0.2-1.3c0.3,0.1,0.6,0.2,0.8,0.3c-0.1,0.5-0.1,1-0.3,1.4c-0.1,0.6-0.7,1-1.7,0.9h-2.3c-1.1,0.1-1.6-0.4-1.5-1.4
		v-1.1h-3v0.7h-0.8v-6.5h3.8V298.7z M26.9,300.8v1.8h3v-1.8H26.9z M26.9,303.3v1.8h3v-1.8H26.9z M33.6,300.8h-3v1.8h3V300.8z
		 M30.7,305h3v-1.8h-3V305z"/>
	<path style="fill:#666666;" d="M39.7,306.2c0,0.1,0,0.2,0,0.4c0,0.2,0,0.4,0,0.5c-0.6,0.3-1.2,0.7-1.5,1c0,0-0.1,0.1-0.1,0.1
		c-0.1,0.1-0.2,0.2-0.4,0.3l-0.5-0.6c0.3-0.3,0.4-0.5,0.3-0.9v-4h-1.3v-0.7h2.1v4.9c0.1-0.1,0.3-0.2,0.5-0.3
		C39.2,306.5,39.5,306.3,39.7,306.2z M37.4,298.9c0.2,0.2,0.4,0.5,0.8,0.8c0.4,0.4,0.7,0.7,0.8,0.8l-0.7,0.6c-0.5-0.6-1-1.2-1.5-1.8
		L37.4,298.9z M40.1,304.2h2.3v-1.7h-3.3v-0.8h3.3v-1.7c-0.3,0-0.8,0-1.4,0c-0.6,0-1,0-1.3,0c0-0.1-0.1-0.3-0.1-0.5
		c0-0.1,0-0.2,0-0.3c2.2-0.1,4.3-0.1,6.2-0.3l0.2,0.7c-0.9,0.1-1.8,0.1-2.7,0.2v1.7h3.2v0.8h-3.2v1.7h2.3v4.5h-0.8V308h-3.8v0.7
		h-0.8V304.2z M40.9,305v2.3h3.8V305H40.9z"/>
	<path style="fill:#666666;" d="M50.2,304.2v1.5h-1.4v-1.5H50.2z M50.2,307.4v1.4h-1.4v-1.4H50.2z"/>
	<path style="fill:#666666;" d="M60.5,307.5V302h-2v-0.7c0.3,0,0.5,0,0.8-0.1c0.2,0,0.5-0.1,0.7-0.2c0.2-0.1,0.4-0.3,0.5-0.4
		c0.1-0.2,0.2-0.4,0.3-0.7h0.7v7.7H60.5z"/>
	<path style="fill:#666666;" d="M64.5,300.9c0.1-0.2,0.3-0.4,0.5-0.6c0.2-0.2,0.4-0.3,0.7-0.4c0.3-0.1,0.6-0.1,0.8-0.1
		c0.4,0,0.8,0.1,1.1,0.2s0.5,0.3,0.7,0.4s0.3,0.4,0.4,0.6c0.1,0.2,0.1,0.5,0.1,0.7c0,0.3-0.1,0.7-0.3,0.9c-0.2,0.3-0.4,0.5-0.8,0.6
		c0.5,0.1,0.8,0.4,1,0.7c0.2,0.3,0.3,0.7,0.3,1.2c0,0.4-0.1,0.7-0.2,1c-0.1,0.3-0.3,0.5-0.5,0.7c-0.2,0.2-0.5,0.3-0.8,0.4
		c-0.3,0.1-0.6,0.2-1,0.2c-0.4,0-0.7,0-1-0.1c-0.3-0.1-0.6-0.2-0.8-0.4c-0.2-0.2-0.4-0.4-0.6-0.7c-0.1-0.3-0.2-0.6-0.2-1
		c0-0.5,0.1-0.8,0.3-1.2s0.6-0.6,1-0.7c-0.3-0.1-0.6-0.3-0.8-0.6c-0.2-0.3-0.3-0.6-0.3-1C64.3,301.5,64.4,301.2,64.5,300.9z
		 M65.5,306.4c0.3,0.3,0.7,0.4,1.2,0.4c0.2,0,0.4,0,0.6-0.1c0.2-0.1,0.4-0.2,0.5-0.3c0.1-0.1,0.2-0.3,0.3-0.5
		c0.1-0.2,0.1-0.4,0.1-0.6c0-0.2,0-0.4-0.1-0.6c-0.1-0.2-0.2-0.3-0.3-0.5c-0.1-0.1-0.3-0.2-0.5-0.3c-0.2-0.1-0.4-0.1-0.6-0.1
		c-0.2,0-0.4,0-0.6,0.1c-0.2,0.1-0.4,0.2-0.5,0.3s-0.3,0.3-0.3,0.5c-0.1,0.2-0.1,0.4-0.1,0.6C65,305.8,65.2,306.1,65.5,306.4z
		 M65.4,302.4c0.1,0.2,0.2,0.3,0.3,0.4c0.1,0.1,0.3,0.2,0.4,0.2c0.2,0.1,0.3,0.1,0.5,0.1c0.4,0,0.7-0.1,0.9-0.3
		c0.2-0.2,0.4-0.5,0.4-0.9s-0.1-0.7-0.4-0.9c-0.2-0.2-0.5-0.3-0.9-0.3c-0.2,0-0.4,0-0.5,0.1c-0.2,0-0.3,0.1-0.4,0.2
		c-0.1,0.1-0.2,0.2-0.3,0.4c-0.1,0.1-0.1,0.3-0.1,0.5C65.3,302,65.3,302.2,65.4,302.4z"/>
	<path style="fill:#666666;" d="M73.7,300.9c-0.2-0.2-0.5-0.3-0.9-0.3c-0.4,0-0.7,0.1-0.9,0.3c-0.2,0.2-0.4,0.4-0.6,0.7
		c-0.1,0.3-0.2,0.6-0.3,0.9c-0.1,0.3-0.1,0.7-0.1,1l0,0c0.2-0.4,0.5-0.6,0.8-0.8s0.7-0.2,1.1-0.2c0.4,0,0.7,0.1,1,0.2
		c0.3,0.1,0.5,0.3,0.7,0.5c0.2,0.2,0.4,0.5,0.5,0.8c0.1,0.3,0.2,0.6,0.2,1c0,0.3,0,0.6-0.1,0.9c-0.1,0.3-0.2,0.6-0.4,0.8
		c-0.2,0.2-0.5,0.5-0.8,0.6c-0.3,0.2-0.7,0.2-1.2,0.2c-0.6,0-1-0.1-1.4-0.3c-0.3-0.2-0.6-0.5-0.8-0.9c-0.2-0.4-0.3-0.8-0.4-1.2
		c-0.1-0.4-0.1-0.8-0.1-1.3c0-0.5,0-1,0.1-1.5c0.1-0.5,0.2-0.9,0.5-1.3c0.2-0.4,0.5-0.7,0.9-0.9s0.8-0.3,1.4-0.3
		c0.6,0,1.1,0.2,1.5,0.5c0.4,0.3,0.6,0.8,0.6,1.5h-0.9C74,301.4,73.9,301.2,73.7,300.9z M72,303.5c-0.2,0.1-0.4,0.2-0.5,0.4
		c-0.1,0.2-0.2,0.3-0.3,0.6c-0.1,0.2-0.1,0.4-0.1,0.7c0,0.2,0,0.5,0.1,0.7c0.1,0.2,0.2,0.4,0.3,0.5c0.1,0.2,0.3,0.3,0.5,0.4
		c0.2,0.1,0.4,0.1,0.7,0.1s0.5,0,0.7-0.1s0.4-0.2,0.5-0.4s0.2-0.3,0.3-0.5s0.1-0.4,0.1-0.6c0-0.2,0-0.5-0.1-0.7
		c-0.1-0.2-0.2-0.4-0.3-0.6c-0.1-0.2-0.3-0.3-0.5-0.4s-0.4-0.1-0.7-0.1S72.2,303.4,72,303.5z"/>
	<path style="fill:#666666;" d="M81.6,307.5V302h-2v-0.7c0.3,0,0.5,0,0.8-0.1c0.2,0,0.5-0.1,0.7-0.2c0.2-0.1,0.4-0.3,0.5-0.4
		c0.1-0.2,0.2-0.4,0.3-0.7h0.7v7.7H81.6z"/>
	<path style="fill:#666666;" d="M88.7,300.9c-0.2-0.2-0.5-0.3-0.9-0.3c-0.4,0-0.7,0.1-0.9,0.3c-0.2,0.2-0.4,0.4-0.6,0.7
		c-0.1,0.3-0.2,0.6-0.3,0.9c-0.1,0.3-0.1,0.7-0.1,1l0,0c0.2-0.4,0.5-0.6,0.8-0.8s0.7-0.2,1.1-0.2c0.4,0,0.7,0.1,1,0.2
		c0.3,0.1,0.5,0.3,0.7,0.5c0.2,0.2,0.4,0.5,0.5,0.8c0.1,0.3,0.2,0.6,0.2,1c0,0.3,0,0.6-0.1,0.9c-0.1,0.3-0.2,0.6-0.4,0.8
		c-0.2,0.2-0.5,0.5-0.8,0.6c-0.3,0.2-0.7,0.2-1.2,0.2c-0.6,0-1-0.1-1.4-0.3c-0.3-0.2-0.6-0.5-0.8-0.9c-0.2-0.4-0.3-0.8-0.4-1.2
		c-0.1-0.4-0.1-0.8-0.1-1.3c0-0.5,0-1,0.1-1.5c0.1-0.5,0.2-0.9,0.5-1.3c0.2-0.4,0.5-0.7,0.9-0.9s0.8-0.3,1.4-0.3
		c0.6,0,1.1,0.2,1.5,0.5c0.4,0.3,0.6,0.8,0.6,1.5h-0.9C89.1,301.4,88.9,301.2,88.7,300.9z M87,303.5c-0.2,0.1-0.4,0.2-0.5,0.4
		c-0.1,0.2-0.2,0.3-0.3,0.6c-0.1,0.2-0.1,0.4-0.1,0.7c0,0.2,0,0.5,0.1,0.7c0.1,0.2,0.2,0.4,0.3,0.5c0.1,0.2,0.3,0.3,0.5,0.4
		c0.2,0.1,0.4,0.1,0.7,0.1s0.5,0,0.7-0.1s0.4-0.2,0.5-0.4s0.2-0.3,0.3-0.5s0.1-0.4,0.1-0.6c0-0.2,0-0.5-0.1-0.7
		c-0.1-0.2-0.2-0.4-0.3-0.6c-0.1-0.2-0.3-0.3-0.5-0.4s-0.4-0.1-0.7-0.1S87.2,303.4,87,303.5z"/>
	<path style="fill:#666666;" d="M91.5,300.9c0.1-0.2,0.3-0.4,0.5-0.6c0.2-0.2,0.4-0.3,0.7-0.4c0.3-0.1,0.6-0.1,0.8-0.1
		c0.4,0,0.8,0.1,1.1,0.2s0.5,0.3,0.7,0.4s0.3,0.4,0.4,0.6c0.1,0.2,0.1,0.5,0.1,0.7c0,0.3-0.1,0.7-0.3,0.9c-0.2,0.3-0.4,0.5-0.8,0.6
		c0.5,0.1,0.8,0.4,1,0.7c0.2,0.3,0.3,0.7,0.3,1.2c0,0.4-0.1,0.7-0.2,1c-0.1,0.3-0.3,0.5-0.5,0.7c-0.2,0.2-0.5,0.3-0.8,0.4
		c-0.3,0.1-0.6,0.2-1,0.2c-0.4,0-0.7,0-1-0.1c-0.3-0.1-0.6-0.2-0.8-0.4c-0.2-0.2-0.4-0.4-0.6-0.7c-0.1-0.3-0.2-0.6-0.2-1
		c0-0.5,0.1-0.8,0.3-1.2s0.6-0.6,1-0.7c-0.3-0.1-0.6-0.3-0.8-0.6c-0.2-0.3-0.3-0.6-0.3-1C91.3,301.5,91.4,301.2,91.5,300.9z
		 M92.5,306.4c0.3,0.3,0.7,0.4,1.2,0.4c0.2,0,0.4,0,0.6-0.1c0.2-0.1,0.4-0.2,0.5-0.3c0.1-0.1,0.2-0.3,0.3-0.5
		c0.1-0.2,0.1-0.4,0.1-0.6c0-0.2,0-0.4-0.1-0.6c-0.1-0.2-0.2-0.3-0.3-0.5c-0.1-0.1-0.3-0.2-0.5-0.3c-0.2-0.1-0.4-0.1-0.6-0.1
		c-0.2,0-0.4,0-0.6,0.1c-0.2,0.1-0.4,0.2-0.5,0.3s-0.3,0.3-0.3,0.5c-0.1,0.2-0.1,0.4-0.1,0.6C92,305.8,92.2,306.1,92.5,306.4z
		 M92.4,302.4c0.1,0.2,0.2,0.3,0.3,0.4c0.1,0.1,0.3,0.2,0.4,0.2c0.2,0.1,0.3,0.1,0.5,0.1c0.4,0,0.7-0.1,0.9-0.3
		c0.2-0.2,0.4-0.5,0.4-0.9s-0.1-0.7-0.4-0.9c-0.2-0.2-0.5-0.3-0.9-0.3c-0.2,0-0.4,0-0.5,0.1c-0.2,0-0.3,0.1-0.4,0.2
		c-0.1,0.1-0.2,0.2-0.3,0.4c-0.1,0.1-0.1,0.3-0.1,0.5C92.3,302,92.3,302.2,92.4,302.4z"/>
	<path style="fill:#666666;" d="M97.2,301.5c0.1-0.3,0.3-0.6,0.5-0.9c0.2-0.2,0.5-0.4,0.8-0.6c0.3-0.1,0.7-0.2,1.1-0.2
		c0.3,0,0.6,0,0.9,0.1c0.3,0.1,0.5,0.2,0.8,0.4c0.2,0.2,0.4,0.4,0.5,0.7s0.2,0.6,0.2,1c0,0.3-0.1,0.6-0.2,0.9
		c-0.1,0.3-0.2,0.5-0.4,0.7s-0.4,0.4-0.6,0.6c-0.2,0.2-0.5,0.3-0.7,0.5c-0.2,0.1-0.5,0.3-0.7,0.4s-0.5,0.3-0.7,0.4s-0.4,0.3-0.5,0.5
		c-0.1,0.2-0.2,0.4-0.3,0.6h3.9v0.8h-5c0-0.5,0.1-0.8,0.2-1.2s0.3-0.6,0.5-0.8c0.2-0.2,0.4-0.4,0.7-0.6c0.2-0.2,0.5-0.3,0.8-0.5
		c0.3-0.2,0.6-0.4,0.9-0.6c0.2-0.2,0.4-0.3,0.6-0.5s0.3-0.4,0.4-0.6c0.1-0.2,0.1-0.4,0.1-0.7c0-0.2,0-0.4-0.1-0.6
		c-0.1-0.2-0.2-0.3-0.3-0.4c-0.1-0.1-0.3-0.2-0.5-0.3c-0.2-0.1-0.4-0.1-0.6-0.1c-0.3,0-0.5,0.1-0.7,0.2c-0.2,0.1-0.3,0.3-0.5,0.4
		c-0.1,0.2-0.2,0.4-0.3,0.6c-0.1,0.2-0.1,0.5-0.1,0.7h-0.9C97.1,302.1,97.1,301.8,97.2,301.5z"/>
	<path style="fill:#666666;" d="M107.6,300.8l-0.4,2.2l0,0c0.2-0.2,0.4-0.3,0.6-0.4c0.3-0.1,0.5-0.1,0.8-0.1c0.3,0,0.7,0.1,1,0.2
		s0.6,0.3,0.8,0.5c0.2,0.2,0.4,0.5,0.5,0.8c0.1,0.3,0.2,0.7,0.2,1.1c0,0.3-0.1,0.6-0.2,0.9c-0.1,0.3-0.3,0.6-0.5,0.8
		c-0.2,0.2-0.5,0.4-0.8,0.6c-0.3,0.1-0.7,0.2-1.2,0.2c-0.3,0-0.6,0-0.9-0.1c-0.3-0.1-0.5-0.2-0.8-0.4s-0.4-0.4-0.5-0.7
		c-0.1-0.3-0.2-0.6-0.2-0.9h0.9c0,0.2,0.1,0.4,0.1,0.5c0.1,0.2,0.2,0.3,0.3,0.4s0.3,0.2,0.5,0.3s0.4,0.1,0.6,0.1
		c0.2,0,0.4,0,0.6-0.1c0.2-0.1,0.4-0.2,0.5-0.3c0.1-0.2,0.3-0.3,0.4-0.6c0.1-0.2,0.1-0.5,0.1-0.8c0-0.3,0-0.5-0.1-0.7
		c-0.1-0.2-0.2-0.4-0.4-0.6c-0.2-0.2-0.3-0.3-0.5-0.4c-0.2-0.1-0.4-0.1-0.7-0.1c-0.3,0-0.6,0.1-0.8,0.2c-0.2,0.1-0.4,0.3-0.6,0.5
		l-0.8,0l0.7-4h3.8v0.8H107.6z"/>
	<path style="fill:#666666;" d="M117.2,304.9v0.8h-1v1.8h-0.9v-1.8H112v-0.9l3.5-5h0.7v5.1H117.2z M115.3,301.1L115.3,301.1
		l-2.6,3.7h2.6V301.1z"/>
	<path style="fill:#666666;" d="M122.1,302.1c-0.3,0.5-0.6,1.1-0.9,1.7c-0.3,0.6-0.5,1.2-0.6,1.8c-0.2,0.6-0.3,1.2-0.3,1.8h-1
		c0-0.6,0.1-1.3,0.3-1.9c0.2-0.6,0.4-1.2,0.7-1.8c0.3-0.6,0.6-1.1,0.9-1.6c0.3-0.5,0.7-1,1.1-1.4h-4V300h5v0.8
		C122.8,301.1,122.4,301.6,122.1,302.1z"/>
	<path style="fill:#666666;" d="M126.6,307.5V302h-2v-0.7c0.3,0,0.5,0,0.8-0.1c0.2,0,0.5-0.1,0.7-0.2c0.2-0.1,0.4-0.3,0.5-0.4
		c0.1-0.2,0.2-0.4,0.3-0.7h0.7v7.7H126.6z"/>
</g>
<g>
	<path style="fill:#666666;" d="M31.4,334.7v0.9h-4.3v2.5h4v0.9h-4v2.7h4.3v0.9h-5.4v-7.7H31.4z"/>
	<path style="fill:#666666;" d="M35.5,339v0.9h-3.1V339H35.5z"/>
	<path style="fill:#666666;" d="M37.6,336.8v0.8h0c0.4-0.6,1-1,1.8-1c0.3,0,0.7,0.1,0.9,0.2c0.3,0.1,0.5,0.4,0.6,0.7
		c0.2-0.3,0.4-0.5,0.7-0.7c0.3-0.2,0.6-0.2,1-0.2c0.3,0,0.5,0,0.8,0.1c0.2,0.1,0.4,0.2,0.6,0.3c0.2,0.1,0.3,0.3,0.4,0.5
		c0.1,0.2,0.1,0.5,0.1,0.7v4.1h-0.9v-3.7c0-0.2,0-0.3,0-0.5c0-0.2-0.1-0.3-0.2-0.4c-0.1-0.1-0.2-0.2-0.3-0.3
		c-0.1-0.1-0.3-0.1-0.5-0.1c-0.5,0-0.8,0.1-1.1,0.4c-0.3,0.3-0.4,0.6-0.4,1v3.5h-0.9v-3.7c0-0.2,0-0.3,0-0.5s-0.1-0.3-0.2-0.4
		c-0.1-0.1-0.2-0.2-0.3-0.3c-0.1-0.1-0.3-0.1-0.5-0.1c-0.3,0-0.5,0.1-0.7,0.2c-0.2,0.1-0.3,0.2-0.5,0.4c-0.1,0.2-0.2,0.3-0.3,0.5
		c-0.1,0.2-0.1,0.3-0.1,0.4v3.5h-0.9v-5.6H37.6z"/>
	<path style="fill:#666666;" d="M50.2,342.5c-0.2,0-0.4-0.1-0.6-0.2c-0.1-0.1-0.2-0.4-0.2-0.7c-0.3,0.3-0.5,0.5-0.9,0.7
		c-0.3,0.1-0.7,0.2-1.1,0.2c-0.3,0-0.5,0-0.7-0.1c-0.2-0.1-0.4-0.1-0.6-0.3c-0.2-0.1-0.3-0.3-0.4-0.5c-0.1-0.2-0.1-0.4-0.1-0.7
		c0-0.3,0.1-0.6,0.2-0.8c0.1-0.2,0.2-0.4,0.4-0.5c0.2-0.1,0.4-0.2,0.6-0.3c0.2-0.1,0.5-0.1,0.7-0.2c0.3,0,0.5-0.1,0.7-0.1
		c0.2,0,0.4-0.1,0.6-0.1s0.3-0.1,0.4-0.2s0.2-0.2,0.2-0.4c0-0.2,0-0.4-0.1-0.5c-0.1-0.1-0.2-0.2-0.3-0.3c-0.1-0.1-0.3-0.1-0.4-0.1
		s-0.3,0-0.4,0c-0.4,0-0.7,0.1-1,0.2c-0.3,0.1-0.4,0.4-0.4,0.8h-0.9c0-0.3,0.1-0.6,0.2-0.9c0.1-0.2,0.3-0.4,0.5-0.6
		c0.2-0.1,0.5-0.3,0.7-0.3c0.3-0.1,0.6-0.1,0.9-0.1c0.3,0,0.5,0,0.8,0.1s0.5,0.1,0.7,0.2c0.2,0.1,0.4,0.3,0.5,0.5
		c0.1,0.2,0.2,0.5,0.2,0.8v2.9c0,0.2,0,0.4,0,0.5c0,0.1,0.1,0.2,0.3,0.2c0.1,0,0.2,0,0.3-0.1v0.7C50.7,342.5,50.5,342.5,50.2,342.5z
		 M48.9,339.7c-0.2,0-0.4,0.1-0.6,0.1c-0.2,0-0.4,0.1-0.6,0.1c-0.2,0-0.4,0.1-0.6,0.2c-0.2,0.1-0.3,0.2-0.4,0.3
		c-0.1,0.1-0.2,0.3-0.2,0.5c0,0.2,0,0.3,0.1,0.4c0.1,0.1,0.1,0.2,0.2,0.3c0.1,0.1,0.2,0.1,0.3,0.1c0.1,0,0.3,0,0.4,0
		c0.3,0,0.6,0,0.8-0.1c0.2-0.1,0.4-0.2,0.5-0.3c0.1-0.1,0.2-0.3,0.3-0.4c0.1-0.1,0.1-0.3,0.1-0.4v-0.9
		C49.3,339.6,49.1,339.7,48.9,339.7z"/>
	<path style="fill:#666666;" d="M51.8,335.8v-1.1h0.9v1.1H51.8z M52.7,336.8v5.6h-0.9v-5.6H52.7z"/>
	<path style="fill:#666666;" d="M55.1,334.7v7.7h-0.9v-7.7H55.1z"/>
	<path style="fill:#666666;" d="M56.7,338v-1.2h1.2v1.2H56.7z M57.9,341.2v1.2h-1.2v-1.2H57.9z"/>
	<path style="fill:#666666;" d="M63.5,334.7v7.7h-0.9v-7.7H63.5z"/>
	<path style="fill:#666666;" d="M65,335.8v-1.1h0.9v1.1H65z M65.9,336.8v5.6H65v-5.6H65.9z"/>
	<path style="fill:#666666;" d="M68.2,336.8v0.9h0c0.4-0.7,1-1,1.8-1c0.4,0,0.7,0.1,0.9,0.2c0.2,0.1,0.4,0.2,0.6,0.4
		c0.2,0.2,0.3,0.4,0.3,0.6c0.1,0.2,0.1,0.5,0.1,0.8v3.7H71v-3.8c0-0.3-0.1-0.6-0.3-0.8c-0.2-0.2-0.5-0.3-0.8-0.3
		c-0.3,0-0.5,0-0.7,0.1c-0.2,0.1-0.4,0.2-0.5,0.4s-0.2,0.3-0.3,0.6c-0.1,0.2-0.1,0.4-0.1,0.7v3.2h-0.9v-5.6H68.2z"/>
	<path style="fill:#666666;" d="M75.2,343.8c-0.1,0.2-0.2,0.3-0.3,0.5c-0.1,0.1-0.3,0.2-0.4,0.3s-0.3,0.1-0.5,0.1
		c-0.1,0-0.2,0-0.3,0c-0.1,0-0.2,0-0.3-0.1v-0.8c0.1,0,0.2,0.1,0.3,0.1c0.1,0,0.2,0,0.3,0c0.2,0,0.3,0,0.5-0.1
		c0.1-0.1,0.2-0.2,0.3-0.4l0.4-0.9l-2.2-5.6h1l1.6,4.6h0l1.6-4.6h1l-2.4,6.3C75.4,343.4,75.3,343.6,75.2,343.8z"/>
	<path style="fill:#666666;" d="M82.7,342c-0.4,0.3-0.9,0.5-1.6,0.5c-0.4,0-0.8-0.1-1.2-0.2c-0.3-0.1-0.6-0.3-0.8-0.6
		c-0.2-0.3-0.4-0.6-0.5-0.9c-0.1-0.4-0.2-0.8-0.2-1.2c0-0.4,0.1-0.8,0.2-1.2s0.3-0.7,0.5-0.9c0.2-0.3,0.5-0.5,0.8-0.6
		c0.3-0.1,0.7-0.2,1.1-0.2c0.5,0,0.9,0.1,1.2,0.3c0.3,0.2,0.6,0.5,0.8,0.8c0.2,0.3,0.3,0.7,0.4,1c0.1,0.4,0.1,0.7,0.1,1.1h-4.2
		c0,0.2,0,0.5,0.1,0.7s0.2,0.4,0.3,0.6c0.1,0.2,0.3,0.3,0.6,0.4c0.2,0.1,0.5,0.2,0.8,0.2c0.4,0,0.7-0.1,1-0.3
		c0.2-0.2,0.4-0.5,0.5-0.8h0.9C83.4,341.3,83.1,341.7,82.7,342z M82.4,338.5c-0.1-0.2-0.2-0.4-0.3-0.5s-0.3-0.3-0.5-0.3
		s-0.4-0.1-0.6-0.1c-0.2,0-0.5,0-0.6,0.1s-0.4,0.2-0.5,0.3c-0.1,0.1-0.2,0.3-0.3,0.5c-0.1,0.2-0.1,0.4-0.1,0.6h3.2
		C82.6,338.9,82.5,338.7,82.4,338.5z"/>
	<path style="fill:#666666;" d="M85.9,341.2v1.2h-1.2v-1.2H85.9z"/>
	<path style="fill:#666666;" d="M90.9,337.8c-0.2-0.2-0.5-0.3-0.9-0.3c-0.3,0-0.6,0.1-0.8,0.2c-0.2,0.1-0.4,0.3-0.5,0.5
		c-0.1,0.2-0.2,0.4-0.3,0.7s-0.1,0.5-0.1,0.8c0,0.3,0,0.5,0.1,0.8c0.1,0.2,0.2,0.5,0.3,0.7c0.1,0.2,0.3,0.3,0.5,0.5s0.5,0.2,0.7,0.2
		c0.5,0,0.8-0.1,1.1-0.4c0.3-0.2,0.4-0.6,0.5-1h0.9c-0.1,0.7-0.4,1.2-0.8,1.6c-0.4,0.4-1,0.6-1.7,0.6c-0.4,0-0.8-0.1-1.1-0.2
		c-0.3-0.1-0.6-0.3-0.8-0.6s-0.4-0.6-0.5-0.9c-0.1-0.3-0.2-0.7-0.2-1.2s0.1-0.8,0.2-1.2s0.3-0.7,0.5-1c0.2-0.3,0.5-0.5,0.8-0.6
		c0.3-0.2,0.7-0.2,1.2-0.2c0.3,0,0.6,0,0.9,0.1c0.3,0.1,0.5,0.2,0.7,0.4c0.2,0.2,0.4,0.4,0.5,0.6s0.2,0.5,0.3,0.9h-1
		C91.2,338.3,91.1,338,90.9,337.8z"/>
	<path style="fill:#666666;" d="M92.9,336.8H94l1.3,2l1.4-2h1.1l-1.9,2.6l2.2,3h-1.2l-1.6-2.3l-1.6,2.3h-1.1l2.1-2.9L92.9,336.8z"/>
	<path style="fill:#666666;" d="M103.9,339.8c0,0.1,0,0.2,0,0.3c0,0.2,0.1,0.3,0.3,0.3c0.2,0,0.3-0.1,0.5-0.2
		c0.2-0.2,0.3-0.3,0.5-0.6c0.1-0.2,0.3-0.5,0.4-0.8s0.1-0.6,0.1-0.9c0-0.4-0.1-0.8-0.2-1.2s-0.4-0.6-0.7-0.9
		c-0.3-0.2-0.6-0.4-0.9-0.6s-0.7-0.2-1.1-0.2c-0.5,0-0.9,0.1-1.3,0.3s-0.7,0.4-1,0.8c-0.3,0.3-0.5,0.7-0.7,1.1
		c-0.2,0.4-0.3,0.9-0.3,1.3c0,0.5,0.1,0.9,0.3,1.3c0.2,0.4,0.4,0.8,0.7,1.1c0.3,0.3,0.7,0.5,1.1,0.7c0.4,0.2,0.8,0.3,1.3,0.3
		c0.5,0,1-0.1,1.5-0.4c0.5-0.2,0.9-0.6,1.2-1h0.7c-0.2,0.3-0.4,0.6-0.6,0.8c-0.2,0.2-0.5,0.4-0.8,0.6c-0.3,0.2-0.6,0.3-0.9,0.4
		c-0.3,0.1-0.7,0.1-1,0.1c-0.6,0-1.1-0.1-1.6-0.3s-0.9-0.5-1.3-0.9c-0.4-0.4-0.6-0.8-0.9-1.3s-0.3-1-0.3-1.6c0-0.6,0.1-1.1,0.3-1.6
		c0.2-0.5,0.5-0.9,0.9-1.3c0.4-0.4,0.8-0.6,1.3-0.9c0.5-0.2,1-0.3,1.5-0.3c0.5,0,1,0.1,1.4,0.2s0.8,0.4,1.2,0.7s0.6,0.6,0.8,1
		c0.2,0.4,0.3,0.9,0.3,1.3c0,0.5-0.1,0.9-0.3,1.3c-0.2,0.4-0.4,0.7-0.6,1s-0.5,0.5-0.8,0.6c-0.3,0.2-0.6,0.2-0.8,0.2
		c-0.2,0-0.3-0.1-0.5-0.2s-0.2-0.3-0.2-0.5h0c-0.2,0.2-0.4,0.4-0.6,0.5c-0.2,0.1-0.5,0.2-0.7,0.2c-0.2,0-0.4,0-0.6-0.1
		c-0.2-0.1-0.4-0.2-0.5-0.4c-0.1-0.2-0.2-0.3-0.3-0.5c-0.1-0.2-0.1-0.4-0.1-0.7c0-0.4,0.1-0.7,0.2-1.1s0.3-0.7,0.5-1
		s0.5-0.5,0.8-0.7c0.3-0.2,0.7-0.3,1-0.3c0.3,0,0.5,0.1,0.7,0.2c0.2,0.1,0.4,0.4,0.5,0.7l0.2-0.7h0.7l-0.9,3.1
		C104,339.6,103.9,339.7,103.9,339.8z M102.1,337.2c-0.2,0.1-0.4,0.3-0.5,0.6c-0.2,0.2-0.3,0.5-0.4,0.7c-0.1,0.3-0.1,0.5-0.1,0.8
		c0,0.3,0.1,0.6,0.3,0.8s0.4,0.3,0.7,0.3c0.2,0,0.5-0.1,0.7-0.2c0.2-0.2,0.4-0.3,0.5-0.6s0.3-0.5,0.4-0.8c0.1-0.3,0.1-0.5,0.1-0.7
		c0-0.1,0-0.3-0.1-0.4c0-0.1-0.1-0.2-0.2-0.3c-0.1-0.1-0.2-0.2-0.3-0.2s-0.2-0.1-0.3-0.1C102.5,336.9,102.3,337,102.1,337.2z"/>
	<path style="fill:#666666;" d="M111.8,342.5c-0.2,0-0.4-0.1-0.6-0.2c-0.1-0.1-0.2-0.4-0.2-0.7c-0.3,0.3-0.5,0.5-0.9,0.7
		c-0.3,0.1-0.7,0.2-1.1,0.2c-0.3,0-0.5,0-0.7-0.1c-0.2-0.1-0.4-0.1-0.6-0.3c-0.2-0.1-0.3-0.3-0.4-0.5c-0.1-0.2-0.1-0.4-0.1-0.7
		c0-0.3,0.1-0.6,0.2-0.8c0.1-0.2,0.2-0.4,0.4-0.5c0.2-0.1,0.4-0.2,0.6-0.3c0.2-0.1,0.5-0.1,0.7-0.2c0.3,0,0.5-0.1,0.7-0.1
		c0.2,0,0.4-0.1,0.6-0.1s0.3-0.1,0.4-0.2s0.2-0.2,0.2-0.4c0-0.2,0-0.4-0.1-0.5c-0.1-0.1-0.2-0.2-0.3-0.3c-0.1-0.1-0.3-0.1-0.4-0.1
		s-0.3,0-0.4,0c-0.4,0-0.7,0.1-1,0.2c-0.3,0.1-0.4,0.4-0.4,0.8h-0.9c0-0.3,0.1-0.6,0.2-0.9c0.1-0.2,0.3-0.4,0.5-0.6
		c0.2-0.1,0.5-0.3,0.7-0.3c0.3-0.1,0.6-0.1,0.9-0.1c0.3,0,0.5,0,0.8,0.1s0.5,0.1,0.7,0.2c0.2,0.1,0.4,0.3,0.5,0.5
		c0.1,0.2,0.2,0.5,0.2,0.8v2.9c0,0.2,0,0.4,0,0.5c0,0.1,0.1,0.2,0.3,0.2c0.1,0,0.2,0,0.3-0.1v0.7
		C112.3,342.5,112.1,342.5,111.8,342.5z M110.6,339.7c-0.2,0-0.4,0.1-0.6,0.1c-0.2,0-0.4,0.1-0.6,0.1c-0.2,0-0.4,0.1-0.6,0.2
		c-0.2,0.1-0.3,0.2-0.4,0.3c-0.1,0.1-0.2,0.3-0.2,0.5c0,0.2,0,0.3,0.1,0.4c0.1,0.1,0.1,0.2,0.2,0.3c0.1,0.1,0.2,0.1,0.3,0.1
		c0.1,0,0.3,0,0.4,0c0.3,0,0.6,0,0.8-0.1c0.2-0.1,0.4-0.2,0.5-0.3c0.1-0.1,0.2-0.3,0.3-0.4c0.1-0.1,0.1-0.3,0.1-0.4v-0.9
		C110.9,339.6,110.7,339.7,110.6,339.7z"/>
	<path style="fill:#666666;" d="M114.3,334.7v7.7h-0.9v-7.7H114.3z"/>
	<path style="fill:#666666;" d="M115.8,335.8v-1.1h0.9v1.1H115.8z M116.7,336.8v5.6h-0.9v-5.6H116.7z"/>
	<path style="fill:#666666;" d="M119.1,334.7v2.9h0c0.2-0.3,0.4-0.5,0.7-0.7s0.7-0.2,1.1-0.2c0.4,0,0.8,0.1,1.1,0.2
		c0.3,0.2,0.6,0.4,0.8,0.6c0.2,0.3,0.4,0.6,0.5,0.9c0.1,0.4,0.2,0.7,0.2,1.1c0,0.4-0.1,0.8-0.2,1.1c-0.1,0.4-0.3,0.7-0.5,0.9
		c-0.2,0.3-0.5,0.5-0.8,0.6c-0.3,0.2-0.7,0.2-1.1,0.2c-0.1,0-0.3,0-0.5,0c-0.2,0-0.3-0.1-0.5-0.1c-0.2-0.1-0.3-0.2-0.5-0.3
		c-0.1-0.1-0.3-0.2-0.4-0.4h0v0.7h-0.9v-7.7H119.1z M122.4,338.8c-0.1-0.2-0.2-0.5-0.3-0.7s-0.3-0.3-0.5-0.5s-0.5-0.2-0.8-0.2
		c-0.3,0-0.6,0.1-0.8,0.2s-0.4,0.3-0.5,0.5s-0.2,0.4-0.3,0.7c-0.1,0.3-0.1,0.5-0.1,0.8c0,0.3,0,0.5,0.1,0.8c0.1,0.3,0.2,0.5,0.3,0.7
		c0.1,0.2,0.3,0.4,0.5,0.5c0.2,0.1,0.5,0.2,0.8,0.2c0.3,0,0.6-0.1,0.8-0.2c0.2-0.1,0.4-0.3,0.5-0.5c0.1-0.2,0.2-0.4,0.3-0.7
		c0.1-0.3,0.1-0.5,0.1-0.8C122.5,339.3,122.5,339,122.4,338.8z"/>
	<path style="fill:#666666;" d="M128.8,342.5c-0.2,0-0.4-0.1-0.6-0.2c-0.1-0.1-0.2-0.4-0.2-0.7c-0.3,0.3-0.5,0.5-0.9,0.7
		c-0.3,0.1-0.7,0.2-1.1,0.2c-0.3,0-0.5,0-0.7-0.1c-0.2-0.1-0.4-0.1-0.6-0.3c-0.2-0.1-0.3-0.3-0.4-0.5c-0.1-0.2-0.1-0.4-0.1-0.7
		c0-0.3,0.1-0.6,0.2-0.8c0.1-0.2,0.2-0.4,0.4-0.5c0.2-0.1,0.4-0.2,0.6-0.3c0.2-0.1,0.5-0.1,0.7-0.2c0.3,0,0.5-0.1,0.7-0.1
		c0.2,0,0.4-0.1,0.6-0.1s0.3-0.1,0.4-0.2s0.2-0.2,0.2-0.4c0-0.2,0-0.4-0.1-0.5c-0.1-0.1-0.2-0.2-0.3-0.3c-0.1-0.1-0.3-0.1-0.4-0.1
		s-0.3,0-0.4,0c-0.4,0-0.7,0.1-1,0.2c-0.3,0.1-0.4,0.4-0.4,0.8h-0.9c0-0.3,0.1-0.6,0.2-0.9c0.1-0.2,0.3-0.4,0.5-0.6
		c0.2-0.1,0.5-0.3,0.7-0.3c0.3-0.1,0.6-0.1,0.9-0.1c0.3,0,0.5,0,0.8,0.1s0.5,0.1,0.7,0.2c0.2,0.1,0.4,0.3,0.5,0.5
		c0.1,0.2,0.2,0.5,0.2,0.8v2.9c0,0.2,0,0.4,0,0.5c0,0.1,0.1,0.2,0.3,0.2c0.1,0,0.2,0,0.3-0.1v0.7
		C129.3,342.5,129.1,342.5,128.8,342.5z M127.5,339.7c-0.2,0-0.4,0.1-0.6,0.1c-0.2,0-0.4,0.1-0.6,0.1c-0.2,0-0.4,0.1-0.6,0.2
		c-0.2,0.1-0.3,0.2-0.4,0.3c-0.1,0.1-0.2,0.3-0.2,0.5c0,0.2,0,0.3,0.1,0.4c0.1,0.1,0.1,0.2,0.2,0.3c0.1,0.1,0.2,0.1,0.3,0.1
		c0.1,0,0.3,0,0.4,0c0.3,0,0.6,0,0.8-0.1c0.2-0.1,0.4-0.2,0.5-0.3c0.1-0.1,0.2-0.3,0.3-0.4c0.1-0.1,0.1-0.3,0.1-0.4v-0.9
		C127.9,339.6,127.7,339.7,127.5,339.7z"/>
	<path style="fill:#666666;" d="M131.3,334.7v2.9h0c0.2-0.3,0.4-0.5,0.7-0.7s0.7-0.2,1.1-0.2c0.4,0,0.8,0.1,1.1,0.2
		c0.3,0.2,0.6,0.4,0.8,0.6c0.2,0.3,0.4,0.6,0.5,0.9c0.1,0.4,0.2,0.7,0.2,1.1c0,0.4-0.1,0.8-0.2,1.1c-0.1,0.4-0.3,0.7-0.5,0.9
		c-0.2,0.3-0.5,0.5-0.8,0.6c-0.3,0.2-0.7,0.2-1.1,0.2c-0.1,0-0.3,0-0.5,0c-0.2,0-0.3-0.1-0.5-0.1c-0.2-0.1-0.3-0.2-0.5-0.3
		c-0.1-0.1-0.3-0.2-0.4-0.4h0v0.7h-0.9v-7.7H131.3z M134.6,338.8c-0.1-0.2-0.2-0.5-0.3-0.7s-0.3-0.3-0.5-0.5s-0.5-0.2-0.8-0.2
		c-0.3,0-0.6,0.1-0.8,0.2s-0.4,0.3-0.5,0.5s-0.2,0.4-0.3,0.7c-0.1,0.3-0.1,0.5-0.1,0.8c0,0.3,0,0.5,0.1,0.8c0.1,0.3,0.2,0.5,0.3,0.7
		c0.1,0.2,0.3,0.4,0.5,0.5c0.2,0.1,0.5,0.2,0.8,0.2c0.3,0,0.6-0.1,0.8-0.2c0.2-0.1,0.4-0.3,0.5-0.5c0.1-0.2,0.2-0.4,0.3-0.7
		c0.1-0.3,0.1-0.5,0.1-0.8C134.7,339.3,134.7,339,134.6,338.8z"/>
	<path style="fill:#666666;" d="M141,342.5c-0.2,0-0.4-0.1-0.6-0.2c-0.1-0.1-0.2-0.4-0.2-0.7c-0.3,0.3-0.5,0.5-0.9,0.7
		c-0.3,0.1-0.7,0.2-1.1,0.2c-0.3,0-0.5,0-0.7-0.1c-0.2-0.1-0.4-0.1-0.6-0.3c-0.2-0.1-0.3-0.3-0.4-0.5c-0.1-0.2-0.1-0.4-0.1-0.7
		c0-0.3,0.1-0.6,0.2-0.8c0.1-0.2,0.2-0.4,0.4-0.5c0.2-0.1,0.4-0.2,0.6-0.3c0.2-0.1,0.5-0.1,0.7-0.2c0.3,0,0.5-0.1,0.7-0.1
		c0.2,0,0.4-0.1,0.6-0.1s0.3-0.1,0.4-0.2s0.2-0.2,0.2-0.4c0-0.2,0-0.4-0.1-0.5c-0.1-0.1-0.2-0.2-0.3-0.3c-0.1-0.1-0.3-0.1-0.4-0.1
		s-0.3,0-0.4,0c-0.4,0-0.7,0.1-1,0.2c-0.3,0.1-0.4,0.4-0.4,0.8h-0.9c0-0.3,0.1-0.6,0.2-0.9c0.1-0.2,0.3-0.4,0.5-0.6
		c0.2-0.1,0.5-0.3,0.7-0.3c0.3-0.1,0.6-0.1,0.9-0.1c0.3,0,0.5,0,0.8,0.1s0.5,0.1,0.7,0.2c0.2,0.1,0.4,0.3,0.5,0.5
		c0.1,0.2,0.2,0.5,0.2,0.8v2.9c0,0.2,0,0.4,0,0.5c0,0.1,0.1,0.2,0.3,0.2c0.1,0,0.2,0,0.3-0.1v0.7C141.5,342.5,141.3,342.5,141,342.5
		z M139.8,339.7c-0.2,0-0.4,0.1-0.6,0.1c-0.2,0-0.4,0.1-0.6,0.1c-0.2,0-0.4,0.1-0.6,0.2c-0.2,0.1-0.3,0.2-0.4,0.3
		c-0.1,0.1-0.2,0.3-0.2,0.5c0,0.2,0,0.3,0.1,0.4c0.1,0.1,0.1,0.2,0.2,0.3c0.1,0.1,0.2,0.1,0.3,0.1c0.1,0,0.3,0,0.4,0
		c0.3,0,0.6,0,0.8-0.1c0.2-0.1,0.4-0.2,0.5-0.3c0.1-0.1,0.2-0.3,0.3-0.4c0.1-0.1,0.1-0.3,0.1-0.4v-0.9
		C140.1,339.6,139.9,339.7,139.8,339.7z"/>
	<path style="fill:#666666;" d="M145.5,339v0.9h-3.1V339H145.5z"/>
	<path style="fill:#666666;" d="M146.8,335.8v-1.1h0.9v1.1H146.8z M147.7,336.8v5.6h-0.9v-5.6H147.7z"/>
	<path style="fill:#666666;" d="M150,336.8v0.9h0c0.4-0.7,1-1,1.8-1c0.4,0,0.7,0.1,0.9,0.2c0.2,0.1,0.4,0.2,0.6,0.4
		c0.2,0.2,0.3,0.4,0.3,0.6c0.1,0.2,0.1,0.5,0.1,0.8v3.7h-0.9v-3.8c0-0.3-0.1-0.6-0.3-0.8c-0.2-0.2-0.5-0.3-0.8-0.3
		c-0.3,0-0.5,0-0.7,0.1c-0.2,0.1-0.4,0.2-0.5,0.4s-0.2,0.3-0.3,0.6c-0.1,0.2-0.1,0.4-0.1,0.7v3.2h-0.9v-5.6H150z"/>
	<path style="fill:#666666;" d="M158.5,337.8c-0.2-0.2-0.5-0.3-0.9-0.3c-0.3,0-0.6,0.1-0.8,0.2c-0.2,0.1-0.4,0.3-0.5,0.5
		c-0.1,0.2-0.2,0.4-0.3,0.7s-0.1,0.5-0.1,0.8c0,0.3,0,0.5,0.1,0.8c0.1,0.2,0.2,0.5,0.3,0.7c0.1,0.2,0.3,0.3,0.5,0.5s0.5,0.2,0.7,0.2
		c0.5,0,0.8-0.1,1.1-0.4c0.3-0.2,0.4-0.6,0.5-1h0.9c-0.1,0.7-0.4,1.2-0.8,1.6c-0.4,0.4-1,0.6-1.7,0.6c-0.4,0-0.8-0.1-1.1-0.2
		c-0.3-0.1-0.6-0.3-0.8-0.6s-0.4-0.6-0.5-0.9c-0.1-0.3-0.2-0.7-0.2-1.2s0.1-0.8,0.2-1.2s0.3-0.7,0.5-1c0.2-0.3,0.5-0.5,0.8-0.6
		c0.3-0.2,0.7-0.2,1.2-0.2c0.3,0,0.6,0,0.9,0.1c0.3,0.1,0.5,0.2,0.7,0.4c0.2,0.2,0.4,0.4,0.5,0.6s0.2,0.5,0.3,0.9h-1
		C158.9,338.3,158.7,338,158.5,337.8z"/>
	<path style="fill:#666666;" d="M162.4,341.2v1.2h-1.2v-1.2H162.4z"/>
	<path style="fill:#666666;" d="M167.3,337.8c-0.2-0.2-0.5-0.3-0.9-0.3c-0.3,0-0.6,0.1-0.8,0.2c-0.2,0.1-0.4,0.3-0.5,0.5
		c-0.1,0.2-0.2,0.4-0.3,0.7s-0.1,0.5-0.1,0.8c0,0.3,0,0.5,0.1,0.8c0.1,0.2,0.2,0.5,0.3,0.7c0.1,0.2,0.3,0.3,0.5,0.5s0.5,0.2,0.7,0.2
		c0.5,0,0.8-0.1,1.1-0.4c0.3-0.2,0.4-0.6,0.5-1h0.9c-0.1,0.7-0.4,1.2-0.8,1.6c-0.4,0.4-1,0.6-1.7,0.6c-0.4,0-0.8-0.1-1.1-0.2
		c-0.3-0.1-0.6-0.3-0.8-0.6s-0.4-0.6-0.5-0.9c-0.1-0.3-0.2-0.7-0.2-1.2s0.1-0.8,0.2-1.2s0.3-0.7,0.5-1c0.2-0.3,0.5-0.5,0.8-0.6
		c0.3-0.2,0.7-0.2,1.2-0.2c0.3,0,0.6,0,0.9,0.1c0.3,0.1,0.5,0.2,0.7,0.4c0.2,0.2,0.4,0.4,0.5,0.6s0.2,0.5,0.3,0.9h-1
		C167.7,338.3,167.5,338,167.3,337.8z"/>
	<path style="fill:#666666;" d="M169.6,338.5c0.1-0.4,0.3-0.7,0.5-0.9s0.5-0.5,0.9-0.6c0.3-0.2,0.7-0.2,1.2-0.2
		c0.4,0,0.8,0.1,1.2,0.2s0.6,0.4,0.8,0.6s0.4,0.6,0.5,0.9s0.2,0.7,0.2,1.1c0,0.4-0.1,0.8-0.2,1.1s-0.3,0.7-0.5,0.9
		c-0.2,0.3-0.5,0.5-0.8,0.6s-0.7,0.2-1.2,0.2c-0.4,0-0.8-0.1-1.2-0.2c-0.3-0.1-0.6-0.4-0.9-0.6c-0.2-0.3-0.4-0.6-0.5-0.9
		s-0.2-0.7-0.2-1.1C169.5,339.2,169.5,338.8,169.6,338.5z M170.6,340.5c0.1,0.3,0.2,0.5,0.4,0.7c0.2,0.2,0.3,0.3,0.6,0.4
		c0.2,0.1,0.4,0.1,0.7,0.1s0.5,0,0.7-0.1c0.2-0.1,0.4-0.2,0.6-0.4c0.2-0.2,0.3-0.4,0.4-0.7s0.1-0.6,0.1-0.9c0-0.3,0-0.6-0.1-0.9
		s-0.2-0.5-0.4-0.7c-0.2-0.2-0.3-0.3-0.6-0.4c-0.2-0.1-0.4-0.1-0.7-0.1s-0.5,0-0.7,0.1c-0.2,0.1-0.4,0.2-0.6,0.4s-0.3,0.4-0.4,0.7
		c-0.1,0.3-0.1,0.6-0.1,0.9C170.4,340,170.5,340.3,170.6,340.5z"/>
	<path style="fill:#666666;" d="M176.8,336.8v0.8h0c0.4-0.6,1-1,1.8-1c0.3,0,0.7,0.1,0.9,0.2c0.3,0.1,0.5,0.4,0.6,0.7
		c0.2-0.3,0.4-0.5,0.7-0.7c0.3-0.2,0.6-0.2,1-0.2c0.3,0,0.5,0,0.8,0.1c0.2,0.1,0.4,0.2,0.6,0.3c0.2,0.1,0.3,0.3,0.4,0.5
		c0.1,0.2,0.1,0.5,0.1,0.7v4.1h-0.9v-3.7c0-0.2,0-0.3,0-0.5c0-0.2-0.1-0.3-0.2-0.4c-0.1-0.1-0.2-0.2-0.3-0.3
		c-0.1-0.1-0.3-0.1-0.5-0.1c-0.5,0-0.8,0.1-1.1,0.4c-0.3,0.3-0.4,0.6-0.4,1v3.5h-0.9v-3.7c0-0.2,0-0.3,0-0.5s-0.1-0.3-0.2-0.4
		c-0.1-0.1-0.2-0.2-0.3-0.3c-0.1-0.1-0.3-0.1-0.5-0.1c-0.3,0-0.5,0.1-0.7,0.2c-0.2,0.1-0.3,0.2-0.5,0.4c-0.1,0.2-0.2,0.3-0.3,0.5
		c-0.1,0.2-0.1,0.3-0.1,0.4v3.5H176v-5.6H176.8z"/>
</g>
<g>
	<path style="fill:#666666;" d="M25.7,321.8c1-1.5,1.7-3.1,2.2-5l0.8,0.3c0,0.1-0.1,0.2-0.1,0.3c-0.2,0.5-0.4,1.2-0.8,1.9v7.5h-0.8
		v-5.8c-0.3,0.7-0.7,1.3-1.1,1.7C26,322.4,25.8,322.1,25.7,321.8z M29.5,324.3l0.4-0.6c0.9,0.5,1.6,0.9,2.2,1.3l2-1.9h-4.3v-0.7
		c0.1-0.4,0.3-0.8,0.4-1.3h-1.6v-0.7h1.8c0.1-0.5,0.3-0.9,0.4-1.4h-1.7v-0.7H31c0.1-0.3,0.1-0.6,0.2-1.1c0-0.2,0.1-0.3,0.1-0.4h0.9
		c0,0.1-0.1,0.4-0.2,0.7c-0.1,0.3-0.1,0.5-0.2,0.7h3.6v0.7h-3.8c-0.1,0.3-0.1,0.6-0.3,1.1c0,0.1-0.1,0.2-0.1,0.3h4.6v0.7h-4.8
		c-0.1,0.4-0.3,0.8-0.4,1.3h4.6v0.8l-2.3,2.3c0.5,0.2,0.9,0.5,1.2,0.7l-0.5,0.7c-0.7-0.5-1.8-1.2-3.5-2.1
		C29.8,324.5,29.6,324.4,29.5,324.3z"/>
	<path style="fill:#666666;" d="M36.6,324.1h1.5v-5.2h3.1v-0.8h-4.4v-0.6h4.4v-0.8H42v0.8h4.4v0.6H42v0.8h3.1v5.2h1.5v0.7h-10V324.1
		z M40.2,324.9l0.5,0.6c-0.2,0.1-0.5,0.2-0.8,0.3c-1.3,0.5-2.2,0.9-2.7,1c-0.2-0.3-0.3-0.6-0.4-0.7C38,325.7,39.2,325.3,40.2,324.9z
		 M38.9,319.5v0.7h5.5v-0.7H38.9z M38.9,320.8v0.7h5.5v-0.7H38.9z M38.9,322.2v0.7h5.5v-0.7H38.9z M38.9,323.4v0.7h5.5v-0.7H38.9z
		 M42.5,325.5l0.4-0.6c1.8,0.5,3,0.9,3.6,1.1l-0.4,0.7C45,326.3,43.8,325.9,42.5,325.5z"/>
	<path style="fill:#666666;" d="M50.4,322.3v1.5H49v-1.5H50.4z M50.4,325.4v1.4H49v-1.4H50.4z"/>
	<path style="fill:#666666;" d="M58.3,320.9c0-0.3,0-0.6,0.1-0.9s0.1-0.6,0.2-0.8c0.1-0.3,0.3-0.5,0.4-0.7s0.4-0.3,0.7-0.5
		c0.3-0.1,0.6-0.2,1-0.2c0.4,0,0.7,0.1,1,0.2c0.3,0.1,0.5,0.3,0.7,0.5s0.3,0.4,0.4,0.7c0.1,0.3,0.2,0.5,0.2,0.8s0.1,0.6,0.1,0.9
		s0,0.6,0,0.9c0,0.3,0,0.6,0,0.9c0,0.3,0,0.6-0.1,0.9c-0.1,0.3-0.1,0.6-0.2,0.8c-0.1,0.3-0.3,0.5-0.4,0.7c-0.2,0.2-0.4,0.3-0.7,0.5
		c-0.3,0.1-0.6,0.2-1,0.2c-0.4,0-0.7-0.1-1-0.2c-0.3-0.1-0.5-0.3-0.7-0.5c-0.2-0.2-0.3-0.4-0.4-0.7c-0.1-0.3-0.2-0.5-0.2-0.8
		c-0.1-0.3-0.1-0.6-0.1-0.9c0-0.3,0-0.6,0-0.9C58.3,321.5,58.3,321.2,58.3,320.9z M59.3,322.7c0,0.4,0.1,0.7,0.2,1
		c0.1,0.3,0.3,0.6,0.5,0.8c0.2,0.2,0.5,0.3,0.9,0.3c0.4,0,0.7-0.1,0.9-0.3c0.2-0.2,0.4-0.5,0.5-0.8c0.1-0.3,0.2-0.6,0.2-1
		c0-0.4,0-0.7,0-1c0-0.2,0-0.4,0-0.6c0-0.2,0-0.5-0.1-0.7s-0.1-0.4-0.1-0.7c-0.1-0.2-0.2-0.4-0.3-0.6s-0.3-0.3-0.4-0.4
		c-0.2-0.1-0.4-0.2-0.7-0.2c-0.3,0-0.5,0-0.7,0.2c-0.2,0.1-0.3,0.2-0.4,0.4s-0.2,0.4-0.3,0.6c-0.1,0.2-0.1,0.4-0.1,0.7
		c0,0.2-0.1,0.5-0.1,0.7c0,0.2,0,0.4,0,0.6C59.2,322,59.2,322.4,59.3,322.7z"/>
	<path style="fill:#666666;" d="M65.8,318.8l-0.4,2.2l0,0c0.2-0.2,0.4-0.3,0.6-0.4s0.5-0.1,0.8-0.1c0.3,0,0.7,0.1,1,0.2
		c0.3,0.1,0.6,0.3,0.8,0.5c0.2,0.2,0.4,0.5,0.5,0.8c0.1,0.3,0.2,0.7,0.2,1.2c0,0.3-0.1,0.6-0.2,0.9c-0.1,0.3-0.3,0.6-0.5,0.8
		c-0.2,0.2-0.5,0.4-0.8,0.6c-0.3,0.1-0.7,0.2-1.2,0.2c-0.3,0-0.6,0-0.9-0.1c-0.3-0.1-0.5-0.2-0.8-0.4s-0.4-0.4-0.5-0.7
		s-0.2-0.6-0.2-0.9h0.9c0,0.2,0.1,0.4,0.1,0.5c0.1,0.2,0.2,0.3,0.3,0.4s0.3,0.2,0.5,0.3c0.2,0.1,0.4,0.1,0.6,0.1
		c0.2,0,0.4,0,0.6-0.1c0.2-0.1,0.4-0.2,0.5-0.3c0.1-0.2,0.3-0.3,0.4-0.6c0.1-0.2,0.1-0.5,0.1-0.8c0-0.3,0-0.5-0.1-0.7
		c-0.1-0.2-0.2-0.4-0.4-0.6c-0.2-0.2-0.3-0.3-0.5-0.4c-0.2-0.1-0.4-0.1-0.7-0.1c-0.3,0-0.6,0.1-0.8,0.2c-0.2,0.1-0.4,0.3-0.6,0.5
		l-0.8,0l0.7-4h3.8v0.8H65.8z"/>
	<path style="fill:#666666;" d="M74.2,320.1c-0.3,0.5-0.6,1.1-0.9,1.7c-0.3,0.6-0.5,1.2-0.6,1.8c-0.2,0.6-0.3,1.2-0.3,1.8h-1
		c0-0.6,0.1-1.3,0.3-1.9c0.2-0.6,0.4-1.2,0.7-1.8c0.3-0.6,0.6-1.1,0.9-1.6c0.3-0.5,0.7-1,1.1-1.4h-4V318h5v0.8
		C74.9,319.2,74.6,319.6,74.2,320.1z"/>
	<path style="fill:#666666;" d="M78.7,325.5V320h-2v-0.7c0.3,0,0.5,0,0.8-0.1c0.2,0,0.5-0.1,0.7-0.2c0.2-0.1,0.4-0.3,0.5-0.4
		c0.1-0.2,0.2-0.4,0.3-0.7h0.7v7.7H78.7z"/>
	<path style="fill:#666666;" d="M85.7,319c0.1-0.2,0.3-0.4,0.5-0.6c0.2-0.2,0.4-0.3,0.7-0.4s0.6-0.1,0.8-0.1c0.4,0,0.8,0.1,1.1,0.2
		c0.3,0.1,0.5,0.3,0.7,0.4s0.3,0.4,0.4,0.6c0.1,0.2,0.1,0.5,0.1,0.7c0,0.3-0.1,0.7-0.3,0.9c-0.2,0.3-0.4,0.5-0.8,0.6
		c0.5,0.1,0.8,0.4,1,0.7c0.2,0.3,0.3,0.7,0.3,1.2c0,0.4-0.1,0.7-0.2,1c-0.1,0.3-0.3,0.5-0.5,0.7s-0.5,0.3-0.8,0.4s-0.6,0.2-1,0.2
		c-0.4,0-0.7,0-1-0.1c-0.3-0.1-0.6-0.2-0.8-0.4c-0.2-0.2-0.4-0.4-0.6-0.7c-0.1-0.3-0.2-0.6-0.2-1c0-0.5,0.1-0.8,0.3-1.2
		s0.6-0.6,1-0.7c-0.3-0.1-0.6-0.3-0.8-0.6c-0.2-0.3-0.3-0.6-0.3-1C85.5,319.5,85.6,319.2,85.7,319z M86.7,324.5
		c0.3,0.3,0.7,0.4,1.2,0.4c0.2,0,0.4,0,0.6-0.1c0.2-0.1,0.4-0.2,0.5-0.3c0.1-0.1,0.2-0.3,0.3-0.5c0.1-0.2,0.1-0.4,0.1-0.6
		c0-0.2,0-0.4-0.1-0.6c-0.1-0.2-0.2-0.3-0.3-0.5c-0.1-0.1-0.3-0.2-0.5-0.3c-0.2-0.1-0.4-0.1-0.6-0.1c-0.2,0-0.4,0-0.6,0.1
		c-0.2,0.1-0.4,0.2-0.5,0.3c-0.1,0.1-0.3,0.3-0.3,0.5s-0.1,0.4-0.1,0.6C86.2,323.8,86.4,324.2,86.7,324.5z M86.6,320.4
		c0.1,0.2,0.2,0.3,0.3,0.4c0.1,0.1,0.3,0.2,0.4,0.2c0.2,0,0.3,0.1,0.5,0.1c0.4,0,0.7-0.1,0.9-0.3c0.2-0.2,0.4-0.5,0.4-0.9
		s-0.1-0.7-0.4-0.9s-0.5-0.3-0.9-0.3c-0.2,0-0.4,0-0.5,0.1c-0.2,0.1-0.3,0.1-0.4,0.2c-0.1,0.1-0.2,0.2-0.3,0.4
		c-0.1,0.1-0.1,0.3-0.1,0.5C86.5,320.1,86.5,320.2,86.6,320.4z"/>
	<path style="fill:#666666;" d="M91.7,319c0.1-0.2,0.3-0.4,0.5-0.6c0.2-0.2,0.4-0.3,0.7-0.4s0.6-0.1,0.8-0.1c0.4,0,0.8,0.1,1.1,0.2
		c0.3,0.1,0.5,0.3,0.7,0.4s0.3,0.4,0.4,0.6c0.1,0.2,0.1,0.5,0.1,0.7c0,0.3-0.1,0.7-0.3,0.9c-0.2,0.3-0.4,0.5-0.8,0.6
		c0.5,0.1,0.8,0.4,1,0.7c0.2,0.3,0.3,0.7,0.3,1.2c0,0.4-0.1,0.7-0.2,1c-0.1,0.3-0.3,0.5-0.5,0.7s-0.5,0.3-0.8,0.4s-0.6,0.2-1,0.2
		c-0.4,0-0.7,0-1-0.1c-0.3-0.1-0.6-0.2-0.8-0.4c-0.2-0.2-0.4-0.4-0.6-0.7c-0.1-0.3-0.2-0.6-0.2-1c0-0.5,0.1-0.8,0.3-1.2
		s0.6-0.6,1-0.7c-0.3-0.1-0.6-0.3-0.8-0.6c-0.2-0.3-0.3-0.6-0.3-1C91.5,319.5,91.6,319.2,91.7,319z M92.7,324.5
		c0.3,0.3,0.7,0.4,1.2,0.4c0.2,0,0.4,0,0.6-0.1c0.2-0.1,0.4-0.2,0.5-0.3c0.1-0.1,0.2-0.3,0.3-0.5c0.1-0.2,0.1-0.4,0.1-0.6
		c0-0.2,0-0.4-0.1-0.6c-0.1-0.2-0.2-0.3-0.3-0.5c-0.1-0.1-0.3-0.2-0.5-0.3c-0.2-0.1-0.4-0.1-0.6-0.1c-0.2,0-0.4,0-0.6,0.1
		c-0.2,0.1-0.4,0.2-0.5,0.3c-0.1,0.1-0.3,0.3-0.3,0.5s-0.1,0.4-0.1,0.6C92.2,323.8,92.4,324.2,92.7,324.5z M92.6,320.4
		c0.1,0.2,0.2,0.3,0.3,0.4c0.1,0.1,0.3,0.2,0.4,0.2c0.2,0,0.3,0.1,0.5,0.1c0.4,0,0.7-0.1,0.9-0.3c0.2-0.2,0.4-0.5,0.4-0.9
		s-0.1-0.7-0.4-0.9s-0.5-0.3-0.9-0.3c-0.2,0-0.4,0-0.5,0.1c-0.2,0.1-0.3,0.1-0.4,0.2c-0.1,0.1-0.2,0.2-0.3,0.4
		c-0.1,0.1-0.1,0.3-0.1,0.5C92.5,320.1,92.5,320.2,92.6,320.4z"/>
	<path style="fill:#666666;" d="M99.8,325.5V320h-2v-0.7c0.3,0,0.5,0,0.8-0.1c0.2,0,0.5-0.1,0.7-0.2c0.2-0.1,0.4-0.3,0.5-0.4
		c0.1-0.2,0.2-0.4,0.3-0.7h0.7v7.7H99.8z"/>
	<path style="fill:#666666;" d="M104.8,318.8l-0.4,2.2l0,0c0.2-0.2,0.4-0.3,0.6-0.4s0.5-0.1,0.8-0.1c0.3,0,0.7,0.1,1,0.2
		c0.3,0.1,0.6,0.3,0.8,0.5c0.2,0.2,0.4,0.5,0.5,0.8c0.1,0.3,0.2,0.7,0.2,1.2c0,0.3-0.1,0.6-0.2,0.9c-0.1,0.3-0.3,0.6-0.5,0.8
		c-0.2,0.2-0.5,0.4-0.8,0.6c-0.3,0.1-0.7,0.2-1.2,0.2c-0.3,0-0.6,0-0.9-0.1c-0.3-0.1-0.5-0.2-0.8-0.4s-0.4-0.4-0.5-0.7
		s-0.2-0.6-0.2-0.9h0.9c0,0.2,0.1,0.4,0.1,0.5c0.1,0.2,0.2,0.3,0.3,0.4s0.3,0.2,0.5,0.3c0.2,0.1,0.4,0.1,0.6,0.1
		c0.2,0,0.4,0,0.6-0.1c0.2-0.1,0.4-0.2,0.5-0.3c0.1-0.2,0.3-0.3,0.4-0.6c0.1-0.2,0.1-0.5,0.1-0.8c0-0.3,0-0.5-0.1-0.7
		c-0.1-0.2-0.2-0.4-0.4-0.6c-0.2-0.2-0.3-0.3-0.5-0.4c-0.2-0.1-0.4-0.1-0.7-0.1c-0.3,0-0.6,0.1-0.8,0.2c-0.2,0.1-0.4,0.3-0.6,0.5
		l-0.8,0l0.7-4h3.8v0.8H104.8z"/>
	<path style="fill:#666666;" d="M113.8,318.8l-0.4,2.2l0,0c0.2-0.2,0.4-0.3,0.6-0.4s0.5-0.1,0.8-0.1c0.3,0,0.7,0.1,1,0.2
		c0.3,0.1,0.6,0.3,0.8,0.5c0.2,0.2,0.4,0.5,0.5,0.8c0.1,0.3,0.2,0.7,0.2,1.2c0,0.3-0.1,0.6-0.2,0.9c-0.1,0.3-0.3,0.6-0.5,0.8
		c-0.2,0.2-0.5,0.4-0.8,0.6c-0.3,0.1-0.7,0.2-1.2,0.2c-0.3,0-0.6,0-0.9-0.1c-0.3-0.1-0.5-0.2-0.8-0.4s-0.4-0.4-0.5-0.7
		s-0.2-0.6-0.2-0.9h0.9c0,0.2,0.1,0.4,0.1,0.5c0.1,0.2,0.2,0.3,0.3,0.4s0.3,0.2,0.5,0.3c0.2,0.1,0.4,0.1,0.6,0.1
		c0.2,0,0.4,0,0.6-0.1c0.2-0.1,0.4-0.2,0.5-0.3c0.1-0.2,0.3-0.3,0.4-0.6c0.1-0.2,0.1-0.5,0.1-0.8c0-0.3,0-0.5-0.1-0.7
		c-0.1-0.2-0.2-0.4-0.4-0.6c-0.2-0.2-0.3-0.3-0.5-0.4c-0.2-0.1-0.4-0.1-0.7-0.1c-0.3,0-0.6,0.1-0.8,0.2c-0.2,0.1-0.4,0.3-0.6,0.5
		l-0.8,0l0.7-4h3.8v0.8H113.8z"/>
	<path style="fill:#666666;" d="M120.8,325.5V320h-2v-0.7c0.3,0,0.5,0,0.8-0.1c0.2,0,0.5-0.1,0.7-0.2c0.2-0.1,0.4-0.3,0.5-0.4
		c0.1-0.2,0.2-0.4,0.3-0.7h0.7v7.7H120.8z"/>
	<path style="fill:#666666;" d="M124.7,319c0.1-0.2,0.3-0.4,0.5-0.6c0.2-0.2,0.4-0.3,0.7-0.4s0.6-0.1,0.8-0.1c0.4,0,0.8,0.1,1.1,0.2
		c0.3,0.1,0.5,0.3,0.7,0.4s0.3,0.4,0.4,0.6c0.1,0.2,0.1,0.5,0.1,0.7c0,0.3-0.1,0.7-0.3,0.9c-0.2,0.3-0.4,0.5-0.8,0.6
		c0.5,0.1,0.8,0.4,1,0.7c0.2,0.3,0.3,0.7,0.3,1.2c0,0.4-0.1,0.7-0.2,1c-0.1,0.3-0.3,0.5-0.5,0.7s-0.5,0.3-0.8,0.4
		c-0.3,0.1-0.6,0.2-1,0.2c-0.4,0-0.7,0-1-0.1c-0.3-0.1-0.6-0.2-0.8-0.4c-0.2-0.2-0.4-0.4-0.6-0.7c-0.1-0.3-0.2-0.6-0.2-1
		c0-0.5,0.1-0.8,0.3-1.2s0.6-0.6,1-0.7c-0.3-0.1-0.6-0.3-0.8-0.6c-0.2-0.3-0.3-0.6-0.3-1C124.6,319.5,124.6,319.2,124.7,319z
		 M125.7,324.5c0.3,0.3,0.7,0.4,1.2,0.4c0.2,0,0.4,0,0.6-0.1c0.2-0.1,0.4-0.2,0.5-0.3c0.1-0.1,0.2-0.3,0.3-0.5
		c0.1-0.2,0.1-0.4,0.1-0.6c0-0.2,0-0.4-0.1-0.6c-0.1-0.2-0.2-0.3-0.3-0.5c-0.1-0.1-0.3-0.2-0.5-0.3c-0.2-0.1-0.4-0.1-0.6-0.1
		c-0.2,0-0.4,0-0.6,0.1c-0.2,0.1-0.4,0.2-0.5,0.3c-0.1,0.1-0.3,0.3-0.3,0.5s-0.1,0.4-0.1,0.6C125.3,323.8,125.4,324.2,125.7,324.5z
		 M125.6,320.4c0.1,0.2,0.2,0.3,0.3,0.4c0.1,0.1,0.3,0.2,0.4,0.2c0.2,0,0.3,0.1,0.5,0.1c0.4,0,0.7-0.1,0.9-0.3
		c0.2-0.2,0.4-0.5,0.4-0.9s-0.1-0.7-0.4-0.9c-0.2-0.2-0.5-0.3-0.9-0.3c-0.2,0-0.4,0-0.5,0.1c-0.2,0.1-0.3,0.1-0.4,0.2
		c-0.1,0.1-0.2,0.2-0.3,0.4c-0.1,0.1-0.1,0.3-0.1,0.5C125.5,320.1,125.6,320.2,125.6,320.4z"/>
	<path style="fill:#666666;" d="M130.7,319c0.1-0.2,0.3-0.4,0.5-0.6c0.2-0.2,0.4-0.3,0.7-0.4s0.6-0.1,0.8-0.1c0.4,0,0.8,0.1,1.1,0.2
		c0.3,0.1,0.5,0.3,0.7,0.4s0.3,0.4,0.4,0.6c0.1,0.2,0.1,0.5,0.1,0.7c0,0.3-0.1,0.7-0.3,0.9c-0.2,0.3-0.4,0.5-0.8,0.6
		c0.5,0.1,0.8,0.4,1,0.7c0.2,0.3,0.3,0.7,0.3,1.2c0,0.4-0.1,0.7-0.2,1c-0.1,0.3-0.3,0.5-0.5,0.7s-0.5,0.3-0.8,0.4s-0.6,0.2-1,0.2
		c-0.4,0-0.7,0-1-0.1c-0.3-0.1-0.6-0.2-0.8-0.4c-0.2-0.2-0.4-0.4-0.6-0.7c-0.1-0.3-0.2-0.6-0.2-1c0-0.5,0.1-0.8,0.3-1.2
		s0.6-0.6,1-0.7c-0.3-0.1-0.6-0.3-0.8-0.6c-0.2-0.3-0.3-0.6-0.3-1C130.6,319.5,130.6,319.2,130.7,319z M131.7,324.5
		c0.3,0.3,0.7,0.4,1.2,0.4c0.2,0,0.4,0,0.6-0.1c0.2-0.1,0.4-0.2,0.5-0.3c0.1-0.1,0.2-0.3,0.3-0.5c0.1-0.2,0.1-0.4,0.1-0.6
		c0-0.2,0-0.4-0.1-0.6c-0.1-0.2-0.2-0.3-0.3-0.5c-0.1-0.1-0.3-0.2-0.5-0.3c-0.2-0.1-0.4-0.1-0.6-0.1c-0.2,0-0.4,0-0.6,0.1
		c-0.2,0.1-0.4,0.2-0.5,0.3c-0.1,0.1-0.3,0.3-0.3,0.5s-0.1,0.4-0.1,0.6C131.3,323.8,131.4,324.2,131.7,324.5z M131.6,320.4
		c0.1,0.2,0.2,0.3,0.3,0.4c0.1,0.1,0.3,0.2,0.4,0.2c0.2,0,0.3,0.1,0.5,0.1c0.4,0,0.7-0.1,0.9-0.3c0.2-0.2,0.4-0.5,0.4-0.9
		s-0.1-0.7-0.4-0.9s-0.5-0.3-0.9-0.3c-0.2,0-0.4,0-0.5,0.1c-0.2,0.1-0.3,0.1-0.4,0.2c-0.1,0.1-0.2,0.2-0.3,0.4
		c-0.1,0.1-0.1,0.3-0.1,0.5C131.5,320.1,131.6,320.2,131.6,320.4z"/>
	<path style="fill:#666666;" d="M138.4,322.2v-0.8h5.8v0.8H138.4z"/>
	<path style="fill:#666666;" d="M149.6,325.5V320h-2v-0.7c0.3,0,0.5,0,0.8-0.1c0.2,0,0.5-0.1,0.7-0.2c0.2-0.1,0.4-0.3,0.5-0.4
		c0.1-0.2,0.2-0.4,0.3-0.7h0.7v7.7H149.6z"/>
	<path style="fill:#666666;" d="M155.6,325.5V320h-2v-0.7c0.3,0,0.5,0,0.8-0.1c0.2,0,0.5-0.1,0.7-0.2c0.2-0.1,0.4-0.3,0.5-0.4
		c0.1-0.2,0.2-0.4,0.3-0.7h0.7v7.7H155.6z"/>
	<path style="fill:#666666;" d="M162.7,319c-0.2-0.2-0.5-0.3-0.9-0.3c-0.4,0-0.7,0.1-0.9,0.3c-0.2,0.2-0.4,0.4-0.6,0.7
		c-0.1,0.3-0.2,0.6-0.3,0.9c-0.1,0.3-0.1,0.7-0.1,1l0,0c0.2-0.4,0.5-0.6,0.8-0.8c0.3-0.2,0.7-0.2,1.1-0.2c0.4,0,0.7,0.1,1,0.2
		c0.3,0.1,0.5,0.3,0.7,0.5c0.2,0.2,0.4,0.5,0.5,0.8c0.1,0.3,0.2,0.6,0.2,1c0,0.3,0,0.6-0.1,0.9c-0.1,0.3-0.2,0.6-0.4,0.8
		c-0.2,0.2-0.5,0.5-0.8,0.6c-0.3,0.2-0.7,0.2-1.2,0.2c-0.6,0-1-0.1-1.4-0.3s-0.6-0.5-0.8-0.9c-0.2-0.4-0.3-0.8-0.4-1.2
		c-0.1-0.4-0.1-0.8-0.1-1.3c0-0.5,0-1,0.1-1.5c0.1-0.5,0.2-0.9,0.5-1.3c0.2-0.4,0.5-0.7,0.9-0.9s0.8-0.3,1.4-0.3
		c0.6,0,1.1,0.2,1.5,0.5c0.4,0.3,0.6,0.8,0.6,1.5h-0.9C163.1,319.5,163,319.2,162.7,319z M161.1,321.5c-0.2,0.1-0.4,0.2-0.5,0.4
		s-0.2,0.3-0.3,0.6c-0.1,0.2-0.1,0.4-0.1,0.7s0,0.5,0.1,0.7c0.1,0.2,0.2,0.4,0.3,0.5c0.1,0.2,0.3,0.3,0.5,0.4
		c0.2,0.1,0.4,0.1,0.7,0.1s0.5,0,0.7-0.1c0.2-0.1,0.4-0.2,0.5-0.4s0.2-0.3,0.3-0.5s0.1-0.4,0.1-0.6c0-0.2,0-0.5-0.1-0.7
		c-0.1-0.2-0.2-0.4-0.3-0.6c-0.1-0.2-0.3-0.3-0.5-0.4c-0.2-0.1-0.4-0.1-0.7-0.1S161.3,321.5,161.1,321.5z"/>
	<path style="fill:#666666;" d="M169.1,320.1c-0.3,0.5-0.6,1.1-0.9,1.7c-0.3,0.6-0.5,1.2-0.6,1.8c-0.2,0.6-0.3,1.2-0.3,1.8h-1
		c0-0.6,0.1-1.3,0.3-1.9c0.2-0.6,0.4-1.2,0.7-1.8c0.3-0.6,0.6-1.1,0.9-1.6c0.3-0.5,0.7-1,1.1-1.4h-4V318h5v0.8
		C169.8,319.2,169.4,319.6,169.1,320.1z"/>
	<path style="fill:#666666;" d="M171.2,320.9c0-0.3,0-0.6,0.1-0.9s0.1-0.6,0.2-0.8c0.1-0.3,0.3-0.5,0.4-0.7s0.4-0.3,0.7-0.5
		c0.3-0.1,0.6-0.2,1-0.2c0.4,0,0.7,0.1,1,0.2c0.3,0.1,0.5,0.3,0.7,0.5s0.3,0.4,0.4,0.7c0.1,0.3,0.2,0.5,0.2,0.8s0.1,0.6,0.1,0.9
		s0,0.6,0,0.9c0,0.3,0,0.6,0,0.9c0,0.3,0,0.6-0.1,0.9c-0.1,0.3-0.1,0.6-0.2,0.8c-0.1,0.3-0.3,0.5-0.4,0.7c-0.2,0.2-0.4,0.3-0.7,0.5
		c-0.3,0.1-0.6,0.2-1,0.2c-0.4,0-0.7-0.1-1-0.2c-0.3-0.1-0.5-0.3-0.7-0.5c-0.2-0.2-0.3-0.4-0.4-0.7c-0.1-0.3-0.2-0.5-0.2-0.8
		c-0.1-0.3-0.1-0.6-0.1-0.9c0-0.3,0-0.6,0-0.9C171.1,321.5,171.1,321.2,171.2,320.9z M172.1,322.7c0,0.4,0.1,0.7,0.2,1
		c0.1,0.3,0.3,0.6,0.5,0.8c0.2,0.2,0.5,0.3,0.9,0.3c0.4,0,0.7-0.1,0.9-0.3c0.2-0.2,0.4-0.5,0.5-0.8c0.1-0.3,0.2-0.6,0.2-1
		c0-0.4,0-0.7,0-1c0-0.2,0-0.4,0-0.6c0-0.2,0-0.5-0.1-0.7s-0.1-0.4-0.1-0.7c-0.1-0.2-0.2-0.4-0.3-0.6s-0.3-0.3-0.4-0.4
		c-0.2-0.1-0.4-0.2-0.7-0.2c-0.3,0-0.5,0-0.7,0.2c-0.2,0.1-0.3,0.2-0.4,0.4s-0.2,0.4-0.3,0.6c-0.1,0.2-0.1,0.4-0.1,0.7
		c0,0.2-0.1,0.5-0.1,0.7c0,0.2,0,0.4,0,0.6C172.1,322,172.1,322.4,172.1,322.7z"/>
</g>
</svg>
