<?xml version="1.0" encoding="utf-8"?>
<!-- Generator: Adobe Illustrator 17.1.0, SVG Export Plug-In . SVG Version: 6.00 Build 0)  -->
<!DOCTYPE svg PUBLIC "-//W3C//DTD SVG 1.1//EN" "http://www.w3.org/Graphics/SVG/1.1/DTD/svg11.dtd">
<svg version="1.1" id="图层_1" xmlns="http://www.w3.org/2000/svg" xmlns:xlink="http://www.w3.org/1999/xlink" x="0px" y="0px"
	 viewBox="0 0 488.9 309.8" style="enable-background:new 0 0 488.9 309.8;" xml:space="preserve">
<g id="矩形_3_10_">
	<g>
		<rect x="7.3" y="4.3" style="fill-rule:evenodd;clip-rule:evenodd;fill:#FFFFFF;" width="475.2" height="297"/>
	</g>
	<g>
		<rect x="7.3" y="4.3" style="fill:none;stroke:#D8D8D8;stroke-miterlimit:10;" width="475.2" height="297"/>
	</g>
</g>
<g>
	<path style="fill:#FF6600;" d="M142.9,91.8c1.2,1.4,1.7,3,1.7,4.7c0.1,2.5-0.9,4-3.1,4.3c-0.6,0.1-1.1,0.2-1.3,0.2l-0.6-1.9v5.2
		h-3.3V82.8h8v3.3L142.9,91.8z M139.7,86.1v11.1c0.2,0,0.4,0,0.6,0c0.8-0.1,1.1-0.6,1-1.8c-0.1-0.9-0.6-2.1-1.5-3.5
		c0.6-2.7,1-4.7,1.2-5.8H139.7z M144.9,86.6v-3.4H158v3.4h-1.2v13.2c0.1,2.8-1.1,4.2-3.6,4.3c-1.2,0.1-2.7,0.1-4.4,0.1
		c-0.2-1.2-0.5-2.4-0.6-3.5c0.7,0.1,1.7,0.1,3.2,0.1c1.4,0.1,2.1-0.5,1.9-1.9V86.6H144.9z M145.1,88.2h7.1v11h-7.1V88.2z
		 M149.2,91.2h-1.3v4.8h1.3V91.2z"/>
	<path style="fill:#FF6600;" d="M160.8,95V82.9h19.3V95h-7.8v1.3h8.1v3h-8.1v1.3h9.1v3h-22v-3h9.2v-1.3h-8.1v-3h8.1V95H160.8z
		 M164.6,85.9v1.6h4v-1.6H164.6z M164.6,92h4v-1.6h-4V92z M176.3,85.9h-4v1.6h4V85.9z M172.3,92h4v-1.6h-4V92z"/>
	<path style="fill:#FF6600;" d="M182.9,85.9h1.8c0.1-0.4,0.2-1.1,0.3-1.9c0.1-0.9,0.1-1.5,0.2-1.9l3.4,0.3c-0.2,1.3-0.4,2.5-0.6,3.6
		h3.9c-0.1,5.6-0.6,9.6-1.8,12c1.2,1.2,2.2,2.2,3.1,3l-2.4,2.6c-0.9-0.9-1.7-1.7-2.4-2.4c-0.9,1-2.1,2.1-3.4,3.4
		c-0.7-0.9-1.5-1.8-2.3-2.7c1.4-1.1,2.5-2.1,3.3-3.2c-0.2-0.3-0.7-0.8-1.4-1.4c-0.6-0.7-1.1-1.2-1.5-1.6c0.4-2,0.8-4.1,1.2-6.3h-1.4
		V85.9z M186.6,94.6c0.1,0.1,0.3,0.3,0.6,0.5c0.2,0.2,0.4,0.4,0.6,0.6c0.5-1.4,0.8-3.5,1-6.3h-1.2c-0.1,0.9-0.3,2.1-0.6,3.7
		C186.7,93.7,186.6,94.3,186.6,94.6z M191.9,96.2h8.3v3.2h-8.3V96.2z M192.4,83h11.2l-0.8,8.5h2c-0.1,1.1-0.2,2.9-0.3,5.5
		c-0.1,1.5-0.1,2.5-0.1,3.2c0.1,2.8-1.3,4.1-4.4,3.9c-0.7,0.1-1.9,0.1-3.6,0.1c-0.1-0.2-0.1-0.5-0.2-0.8c-0.1-0.5-0.2-1.3-0.5-2.5
		c1.2,0,2.4,0,3.6,0c1,0.1,1.5-0.3,1.5-1.1c0-0.7,0-1.9,0.1-3.8c0.1-0.4,0.1-0.8,0.1-1h-8.6l0.8-7.9h3.6l-0.6,4.5h2.8l0.6-5.3h-7.3
		V83z"/>
	<path style="fill:#FF6600;" d="M206.7,85.9h1.8c0.1-0.4,0.2-1.1,0.3-1.9c0.1-0.9,0.1-1.5,0.2-1.9l3.4,0.3c-0.2,1.3-0.4,2.5-0.6,3.6
		h3.9c-0.1,5.6-0.6,9.6-1.8,12c1.2,1.2,2.2,2.2,3.1,3l-2.4,2.6c-0.9-0.9-1.7-1.7-2.4-2.4c-0.9,1-2.1,2.1-3.4,3.4
		c-0.7-0.9-1.5-1.8-2.3-2.7c1.4-1.1,2.5-2.1,3.3-3.2c-0.2-0.3-0.7-0.8-1.4-1.4c-0.6-0.7-1.1-1.2-1.5-1.6c0.4-2,0.8-4.1,1.2-6.3h-1.4
		V85.9z M210.3,94.6c0.1,0.1,0.3,0.3,0.6,0.5c0.2,0.2,0.4,0.4,0.6,0.6c0.5-1.4,0.8-3.5,1-6.3h-1.2c-0.1,0.9-0.3,2.1-0.6,3.7
		C210.5,93.7,210.4,94.3,210.3,94.6z M215.7,96.2h8.3v3.2h-8.3V96.2z M216.2,83h11.2l-0.8,8.5h2c-0.1,1.1-0.2,2.9-0.3,5.5
		c-0.1,1.5-0.1,2.5-0.1,3.2c0.1,2.8-1.3,4.1-4.4,3.9c-0.7,0.1-1.9,0.1-3.6,0.1c-0.1-0.2-0.1-0.5-0.2-0.8c-0.1-0.5-0.2-1.3-0.5-2.5
		c1.2,0,2.4,0,3.6,0c1,0.1,1.5-0.3,1.5-1.1c0-0.7,0-1.9,0.1-3.8c0.1-0.4,0.1-0.8,0.1-1h-8.6l0.8-7.9h3.6l-0.6,4.5h2.8l0.6-5.3h-7.3
		V83z"/>
	<path style="fill:#FF6600;" d="M231.3,104.1V93.5h9.6v10.7h-3.3v-1h-2.9v1H231.3z M233.2,83.2h17V92h-17V83.2z M234.6,96.5v3.6h2.9
		v-3.6H234.6z M237.1,88.8h9.2v-2.4h-9.2V88.8z M242.3,104.1V93.5h9.7V104h-3.3v-0.9h-3v1H242.3z M245.8,96.5v3.6h3v-3.6H245.8z"/>
	<path style="fill:#FF6600;" d="M262.8,92.1h-4.6v1.4h4.1V104h-2.9v-7.3h-1.3c-0.1,2.7-0.4,5.3-1.1,7.7c-0.2-0.1-0.5-0.3-0.8-0.6
		c-0.6-0.4-1.2-0.8-2-1.4c0.4-1.3,0.6-2.5,0.7-3.6c0.1-1.1,0.2-2.8,0.2-5.2V83h3.2v6h1v-6.6h2.8V89h0.8V92.1z M262.8,100.9v-3.2h1.7
		c-0.4-0.4-0.8-0.8-1.2-1.2c1.1-0.5,2-1,2.7-1.6h-2.5V83.8h3.3c0.2-0.6,0.3-1.2,0.4-1.9l3.8,0.2c-0.1,0.6-0.3,1.2-0.6,1.7h5.6v11.1
		h-6.3c-0.7,0.9-1.7,1.9-3,2.8h2.5v-2h3.5v2h4v3.2h-4v3.2h-3.5v-3.2H262.8z M266.4,86.6v1.6h1.9v-1.6H266.4z M267.9,92.2
		c0.1-0.5,0.2-1,0.3-1.6h-1.8v1.6H267.9z M273,92.2v-1.6h-1.9c0,0.6-0.1,1.1-0.3,1.6H273z M273,86.6h-1.8v1.6h1.8V86.6z"/>
	<path style="fill:#FF6600;" d="M281.1,86.1h-2.8V83h6.8v3.2l-2.8,3.5h2.9c0.1,4-0.5,7.1-1.6,9.3c1.1,0.9,2.5,1.4,4.4,1.5
		c0.4,0.1,1.1,0.1,1.9,0.1v-1H285V97h4.8v-0.7h-4.2v-2.6h4.2v-0.8h-4.1v-2.5h4.1v-0.9H285v-2.6h4.8v-0.8H286v-2.6h3.9V82h3.5v1.4
		h5.5v3.4h1.7v2.6h-1.7v3.4h-5.5v0.8h5.8v2.6h-5.8V97h6.3v2.6h-6.3v1c3.5,0,5.9,0,7.1,0c-0.1,0.3-0.2,0.7-0.5,1.3
		c-0.2,0.9-0.4,1.5-0.5,1.8c-4.4,0-7.9,0-10.4-0.1c-3.5,0-5.8-0.6-7.1-1.9c-0.1,0.1-0.3,0.3-0.5,0.6c-0.8,0.9-1.5,1.6-2,2.1
		c-0.2-0.6-0.7-1.5-1.4-2.7c-0.1-0.2-0.2-0.4-0.3-0.5c0.7-0.6,1.4-1.3,1.9-2c-0.7-1.1-1.3-2.4-1.8-3.8l2.1-2.4h-1.8v-3.2L281.1,86.1
		z M280.1,92.9c0.5,1.5,0.9,2.5,1.2,3.1c0.4-1.1,0.6-2.1,0.6-3.1H280.1z M295.5,85.9h-2.1v0.8h2.1V85.9z M293.4,90.3h2.1v-0.9h-2.1
		V90.3z"/>
	<path style="fill:#FF6600;" d="M309,95.3c0.3,1.2,0.7,2.4,1,3.5c-0.6,0.4-1.3,1.1-2.3,2.1c-0.5,0.4-0.9,0.7-1.1,0.9
		c-0.2,0.2-0.5,0.5-0.8,0.8c-0.3,0.4-0.6,0.7-0.7,0.9l-2.2-2.7c0.6-0.8,0.9-1.7,0.9-2.6v-5.7h-2v-3.5h5.8v7.7
		c0.2-0.2,0.5-0.5,0.9-0.9C308.6,95.7,308.8,95.5,309,95.3z M305.8,82c0.1,0.1,0.2,0.3,0.4,0.5c1.2,1.5,2.1,2.8,2.7,3.8l-3.4,2
		c-0.6-1-1.5-2.5-2.9-4.5L305.8,82z M323.1,91.1v3.5c-1.1,1.9-2.4,3.5-4,4.9c1.5,0.6,3.2,1,5.1,1.4c-0.7,1.2-1.3,2.3-1.8,3.2
		c-2.7-0.7-4.9-1.6-6.6-2.5c-1.7,1-3.9,1.9-6.4,2.6c-0.1-0.2-0.3-0.6-0.6-1c-0.2-0.4-0.7-1.1-1.3-2c2-0.5,3.7-1.1,5.1-1.8
		c-1.1-0.9-2-2.1-3-3.5l2.1-1.5h-2.7v-3.3H323.1z M322.5,87.1h1.9c-0.2,1.1-0.5,2.2-0.6,3.2c-0.4,0.1-1.3,0.1-2.9,0.1
		c-2-0.1-3-0.9-3-2.5V86h-3.5c0,2-1.3,3.7-3.8,5c-0.4-0.4-1.2-1.3-2.5-2.6c1.9-0.9,2.8-2,2.8-3.5c0-0.6,0-1.3,0-2.1h10.7v3.3
		C321.4,86.8,321.8,87.1,322.5,87.1z M312.9,94.5c0.9,1.3,1.9,2.4,3.1,3.2c0.9-0.6,1.9-1.7,3.1-3.2H312.9z"/>
	<path style="fill:#FF6600;" d="M325.9,86.6v-3.4h7.1v3.4H331v4.3h1.8v3.3H331v4.4c0.8-0.1,1.6-0.2,2.3-0.4c0,0.9,0,1.7,0,2.4
		c3.4-2.1,5.1-5.2,5-9.3c0-0.6,0-1.5,0.1-2.8c0-0.6,0-1,0-1.2h3.6c0,0.9-0.1,2.1-0.2,3.7c0,1.5-0.2,2.8-0.5,4.1h1.5v4.8
		c0,0.7,0.2,1.1,0.7,1c0.5,0.1,0.8-0.3,0.8-1c0.1-0.4,0.2-1,0.3-1.8c0.1-0.4,0.1-0.7,0.1-0.8c1.5,0.6,2.6,0.9,3.2,1.1
		c-0.1,0.2-0.1,0.5-0.2,0.8c-0.1,0.4-0.2,1.1-0.5,2.3c-0.2,1.5-1.2,2.3-3,2.3h-1.9c-2,0-3-1-3-3v-1.7c-0.9,1.5-2.6,3.2-5.3,5.1
		c-0.6-0.7-1.3-1.6-2.2-2.7c-0.6,0.1-1.6,0.3-3,0.6c-1.4,0.2-2.4,0.4-3.1,0.6l-0.6-3.6c0.4,0,1.1-0.1,1.9-0.2
		c-0.6,0.1-0.5,0.1,0.2,0v-4.8H326v-3.3h1.6v-4.3H325.9z M333.5,96.8v-14h13.4v13.8h-3.6V86.2H337v10.6H333.5z"/>
	<path style="fill:#FF6600;" d="M358,92.2v-3.5h4.2c0.1-2.5,0.1-4.6,0.1-6.5h3.8c0,1.2-0.1,3.4-0.2,6.5h5.4v3.5h-5.1
		c0.7,3.6,2.6,6.5,5.8,8.7c-1.1,1.2-1.9,2.3-2.4,3.2c-2.7-2-4.4-4.4-5.3-7.2c-0.6,2.3-2.3,4.8-5,7.4c-0.6-0.8-1.1-1.6-1.8-2.5v2.5
		h-3.6V98c-0.5,0.4-1.3,1-2.4,1.9c-0.7,0.6-1.3,1-1.6,1.2l-0.7-4.5c1.1-0.6,2.7-1.7,4.7-3.2v-1.6l-2.8,0.8c-0.7-2.7-1.3-5-1.9-7
		l3-0.9c0.1,0.5,0.3,1.2,0.6,2c0.6,1.9,1,3.3,1.2,4.3v-8.9h3.6v18.3c2.5-2.2,4-5,4.5-8.3H358z M368.7,82.9c0.3,0.4,0.7,0.8,1.1,1.4
		c0.6,0.7,1.1,1.3,1.4,1.8l-2.7,1.9c-0.6-1-1.4-2.1-2.4-3.4L368.7,82.9z"/>
	<path style="fill:#FF6600;" d="M135.3,134.7c4.1-3.6,6.1-9.6,5.9-18h-4.5v-1.3H153v1.5l-2.5,4.8h4.5v1.3c-1.4,3.4-3.1,6.1-5.1,8
		c1.6,1.4,4.2,2.5,7.8,3.4c-0.2,0.2-0.4,0.6-0.6,1c-0.1,0.1-0.1,0.2-0.2,0.3c-3.5-1.2-6.2-2.5-8-3.9c-1.7,1.4-4.3,2.8-7.8,4.3
		c-0.1-0.1-0.2-0.3-0.4-0.6c-0.2-0.2-0.3-0.5-0.5-0.6c3.3-1.1,5.9-2.4,7.6-3.8c-2.2-2.1-4.1-5.2-5.6-9.2c-0.4,5.7-2.4,10.3-5.8,13.9
		C136.3,135.4,135.9,135.1,135.3,134.7z M149.1,121.7l2.6-5h-9c0,0.3,0,0.7-0.1,1.3c0,0.6,0,1-0.1,1.3c1.8,5,3.9,8.5,6.4,10.8
		c1.9-1.7,3.4-4,4.6-7.1h-4.5V121.7z"/>
	<path style="fill:#FF6600;" d="M159.7,120.4c0.3-0.8,0.6-1.5,1.1-2.1c0.5-0.6,1.1-1.1,1.9-1.4s1.7-0.5,2.6-0.5
		c0.8,0,1.5,0.1,2.2,0.4c0.7,0.2,1.3,0.6,1.8,1c0.5,0.4,0.9,1,1.2,1.6c0.3,0.6,0.5,1.4,0.5,2.2c0,0.8-0.1,1.6-0.4,2.2
		c-0.3,0.6-0.6,1.1-1.1,1.6s-0.9,0.9-1.5,1.3c-0.6,0.4-1.1,0.8-1.7,1.1c-0.6,0.4-1.1,0.8-1.7,1.2s-1,0.9-1.4,1.5h7.9v2.9H159
		c0-1,0.1-1.8,0.4-2.5c0.3-0.7,0.7-1.4,1.1-1.9c0.5-0.6,1-1.1,1.7-1.6c0.6-0.5,1.3-1,2-1.4c0.4-0.3,0.8-0.5,1.2-0.8s0.8-0.6,1.1-0.9
		c0.3-0.3,0.6-0.7,0.9-1.1c0.2-0.4,0.3-0.8,0.3-1.4c0-0.8-0.2-1.4-0.7-1.9c-0.5-0.5-1.1-0.7-1.8-0.7c-0.5,0-0.9,0.1-1.2,0.3
		s-0.6,0.5-0.8,0.9s-0.4,0.8-0.4,1.2s-0.1,0.9-0.1,1.3h-3.2C159.4,122.1,159.5,121.2,159.7,120.4z"/>
	<path style="fill:#FF6600;" d="M172.7,120.8c0.3-1.1,0.8-2,1.3-2.6c0.6-0.7,1.2-1.1,1.9-1.4s1.5-0.4,2.3-0.4c0.8,0,1.6,0.1,2.4,0.4
		c0.7,0.3,1.4,0.8,1.9,1.4c0.6,0.7,1,1.5,1.3,2.6c0.3,1.1,0.5,2.5,0.5,4.1c0,1.7-0.2,3.1-0.5,4.2c-0.3,1.1-0.8,2-1.3,2.7
		c-0.6,0.7-1.2,1.1-1.9,1.4c-0.7,0.3-1.5,0.4-2.4,0.4c-0.8,0-1.6-0.1-2.3-0.4s-1.4-0.8-1.9-1.4c-0.6-0.7-1-1.6-1.3-2.7
		c-0.3-1.1-0.5-2.5-0.5-4.2C172.2,123.3,172.4,122,172.7,120.8z M175.7,126.6c0,0.7,0.1,1.3,0.3,1.9c0.2,0.6,0.4,1.2,0.8,1.6
		c0.4,0.4,0.9,0.7,1.6,0.7c0.7,0,1.2-0.2,1.6-0.7c0.4-0.4,0.6-1,0.8-1.6c0.2-0.6,0.3-1.3,0.3-1.9c0-0.7,0-1.2,0-1.7c0-0.3,0-0.6,0-1
		c0-0.4,0-0.8-0.1-1.2c-0.1-0.4-0.1-0.9-0.2-1.3c-0.1-0.4-0.3-0.8-0.5-1.1c-0.2-0.3-0.5-0.6-0.8-0.8c-0.3-0.2-0.7-0.3-1.2-0.3
		c-0.5,0-0.8,0.1-1.2,0.3c-0.3,0.2-0.6,0.5-0.8,0.8c-0.2,0.3-0.4,0.7-0.5,1.1c-0.1,0.4-0.2,0.8-0.2,1.3c0,0.4-0.1,0.8-0.1,1.2
		s0,0.7,0,1C175.6,125.4,175.6,126,175.7,126.6z"/>
	<path style="fill:#FF6600;" d="M190.9,133.3v-10.8h-4.2V120c0.6,0,1.2,0,1.7-0.1s1-0.3,1.5-0.5c0.4-0.3,0.8-0.6,1.1-1
		s0.5-1,0.6-1.6h2.7v16.6H190.9z"/>
	<path style="fill:#FF6600;" d="M203.2,119.5l-0.7,3.8l0,0c0.5-0.5,1-0.8,1.5-1c0.5-0.2,1.1-0.3,1.8-0.3c0.8,0,1.6,0.2,2.2,0.5
		c0.6,0.3,1.2,0.7,1.6,1.2s0.8,1.1,1,1.8s0.3,1.4,0.3,2.2c0,0.9-0.2,1.7-0.5,2.4c-0.3,0.7-0.8,1.4-1.3,1.9c-0.6,0.5-1.2,1-2,1.2
		c-0.7,0.3-1.5,0.4-2.4,0.4c-0.8,0-1.6-0.1-2.3-0.3c-0.7-0.2-1.4-0.5-2-1c-0.6-0.4-1-1-1.4-1.7c-0.3-0.7-0.5-1.4-0.5-2.3h3.4
		c0.1,0.8,0.4,1.4,0.9,1.8c0.5,0.5,1.1,0.7,1.9,0.7c0.4,0,0.8-0.1,1.2-0.3c0.4-0.2,0.7-0.4,0.9-0.7c0.2-0.3,0.4-0.6,0.6-1
		c0.1-0.4,0.2-0.8,0.2-1.2c0-0.4-0.1-0.8-0.2-1.2c-0.1-0.4-0.3-0.7-0.6-1s-0.6-0.5-0.9-0.7c-0.3-0.2-0.8-0.2-1.2-0.2
		c-0.6,0-1.1,0.1-1.5,0.3c-0.4,0.2-0.7,0.6-1.1,1h-3l1.6-9.2h9.3v2.8H203.2z"/>
	<path style="fill:#FF6600;" d="M233,122.1v3.2h-6.1v3.1h7.5v3.4h-7.5v4.2h-3.8v-4.2h-10.8v-3.4h3.1v-5.2c-0.4,0.4-0.9,0.8-1.4,1.4
		c-0.2-0.3-0.4-0.7-0.6-1.3c-0.6-1.1-1-1.8-1.3-2.3c2.3-1.9,4.1-4.3,5.3-7.2l4.4,0.4c-0.4,0.6-0.7,1.3-1.1,1.9h13.2v3.3h-6.9v2.7
		H233z M218.5,119.4c-0.6,0.9-1.3,1.8-2.1,2.7h6.7v-2.7H218.5z M219,125.3v3.1h4.1v-3.1H219z"/>
	<path style="fill:#FF6600;" d="M242.4,122.6v-3.5h3.7c0-0.7,0-1.7,0.1-3c0-1.1,0-1.9,0-2.3h3.7c0,1.1-0.1,2.7-0.2,5
		c0.1-1.7,0.1-1.6,0,0.3h3.9c-1.4-1.2-2.3-2.1-2.9-2.5l2.3-2.4c0.4,0.3,0.9,0.7,1.7,1.3c0.9,0.7,1.6,1.2,1.9,1.5l-1.9,2.1h2.9v3.5
		h-8c-0.2,5.3-2,9.8-5.5,13.6c-0.8-0.8-1.6-1.6-2.5-2.5v2.2H238v-10.1c-0.2,0.2-0.5,0.6-0.8,1.2c-0.4,0.5-0.7,0.9-0.9,1.2
		c-0.2-1.9-0.4-3.6-0.6-5.2c1.9-2.7,3.3-5.8,4.4-9.3l3.8,1.1c-0.6,1.7-1.4,3.4-2.2,5v13.1c2.7-2.8,4.1-6.2,4.3-10.3H242.4z
		 M249.5,123.8h3.7v7.3c-0.1,0.6,0.1,0.8,0.6,0.7c0.4,0.1,0.7-0.2,0.7-0.8c0.2-1.2,0.3-2.5,0.4-3.8c0.2,0.1,0.6,0.2,1.2,0.4
		c1,0.4,1.7,0.6,2.1,0.8c-0.2,1.9-0.4,3.3-0.6,4.4c-0.3,1.7-1.4,2.6-3.3,2.5h-1.8c-2,0.1-3-1-3-3.1V123.8z"/>
	<path style="fill:#FF6600;" d="M265.9,135.9h-3.6v-10c-0.2,0.2-0.5,0.6-0.8,1.1c-0.5,0.7-0.9,1.2-1.2,1.6c-0.1-0.2-0.1-0.6-0.2-1.2
		c-0.1-0.8-0.4-2.1-0.7-3.9c2.1-2.7,3.8-5.9,5.1-9.7l3.8,1.4c-0.6,1.7-1.4,3.3-2.3,4.9v6.7c1.5-0.8,3-1.6,4.3-2.4V114h4v7.5
		c1.9-1.5,3.6-3.1,5-4.8l2.9,2.9c-2.2,2.4-4.9,4.7-7.9,6.9v4.5c-0.1,0.8,0.3,1.2,1.2,1.1h0.7c1.1,0.1,1.6-0.4,1.7-1.4
		c0-0.1,0-0.4,0.1-0.7c0.1-1.2,0.2-2.1,0.3-2.8c1.7,0.6,3,1.1,3.9,1.4c0,0.2,0,0.4-0.1,0.7c-0.2,1.6-0.5,2.8-0.7,3.6
		c-0.2,1.9-1.7,2.7-4.5,2.6h-2.5c-2.9,0.2-4.3-1.1-4.1-4v-2.5c-0.4,0.3-1.1,0.7-1.9,1.1c-0.2,0.1-0.4,0.2-0.6,0.3
		c-0.7-1.2-1.3-2.3-1.9-3.1V135.9z"/>
	<path style="fill:#FF6600;" d="M286.5,117.8h-2.8v-3.2h6.8v3.2l-2.8,3.5h2.9c0.1,4-0.5,7.1-1.6,9.3c1.1,0.9,2.5,1.4,4.4,1.5
		c0.4,0.1,1.1,0.1,1.9,0.1v-1h-4.8v-2.6h4.8v-0.7H291v-2.6h4.2v-0.8h-4.1V122h4.1v-0.9h-4.8v-2.6h4.8v-0.8h-3.9V115h3.9v-1.4h3.5
		v1.4h5.5v3.4h1.7v2.6h-1.7v3.4h-5.5v0.8h5.8v2.6h-5.8v0.7h6.3v2.6h-6.3v1c3.5,0,5.9,0,7.1,0c-0.1,0.3-0.2,0.7-0.5,1.3
		c-0.2,0.9-0.4,1.5-0.5,1.8c-4.4,0-7.9,0-10.4-0.1c-3.5,0-5.8-0.6-7.1-1.9c-0.1,0.1-0.3,0.3-0.5,0.6c-0.8,0.9-1.5,1.6-2,2.1
		c-0.2-0.6-0.7-1.5-1.4-2.7c-0.1-0.2-0.2-0.4-0.3-0.5c0.7-0.6,1.4-1.3,1.9-2c-0.7-1.1-1.3-2.4-1.8-3.8l2.1-2.4h-1.8v-3.2
		L286.5,117.8z M285.4,124.6c0.5,1.5,0.9,2.5,1.2,3.1c0.4-1.1,0.6-2.1,0.6-3.1H285.4z M300.8,117.6h-2.1v0.8h2.1V117.6z M298.7,122
		h2.1v-0.9h-2.1V122z"/>
	<path style="fill:#FF6600;" d="M314.6,126.6c0.3,1.4,0.6,2.5,1,3.5c-1.4,1.3-2.6,2.4-3.6,3.2c-0.5,0.5-1,1-1.5,1.6l-2.2-2.5
		c0.6-0.7,0.9-1.5,0.9-2.5v-5.5h-2.1V121h5.7v7.5c0.1-0.2,0.4-0.5,0.7-0.8C314,127.3,314.3,126.9,314.6,126.6z M310.9,113.8
		c0.5,0.7,1.2,1.8,2.2,3.2c0.3,0.4,0.6,0.8,0.7,1l-3.2,1.9c-0.8-1.5-1.7-3-2.8-4.5L310.9,113.8z M328.9,116.4
		c-1,5.8-2.6,10-4.8,12.6c1.1,1.1,3,2.2,5.6,3.4c-0.3,0.4-0.9,1.3-1.7,2.6c-0.2,0.4-0.4,0.6-0.5,0.7c-2.5-1.2-4.5-2.6-6.1-4
		c-1.6,1.4-3.7,2.8-6.3,4.3c-0.7-1.3-1.4-2.4-2.1-3.2c2.4-1.3,4.4-2.6,5.9-3.9c-2.2-2.8-3.8-6.8-4.8-12l3.5-0.8
		c0.9,4.6,2.2,8,3.9,10.1c1.8-2.2,3.1-5.7,3.9-10.6L328.9,116.4z M321.8,113.7c0.9,1.9,1.6,3.8,2.1,5.6l-3.5,1.1
		c-0.3-1-0.8-2.4-1.5-4.4c-0.2-0.6-0.3-1.1-0.5-1.4L321.8,113.7z"/>
</g>
<g>
	<path style="fill:#666666;" d="M135.3,207.9h1.3v-1.2h-1.5V206h1.9c0.3-0.6,0.5-1.2,0.7-1.8l0.7,0.2c-0.3,0.7-0.6,1.2-0.7,1.6h1
		v0.7h-1.5v1.2h1.3v0.7h-1.3v0.8c0,0.2,0,0.3,0,0.4h1.5v0.7h-1.5c-0.1,1.3-0.6,2.5-1.6,3.4c-0.2-0.2-0.4-0.4-0.6-0.5
		c0.9-0.7,1.4-1.6,1.5-2.9H135v-0.7h1.5c0-0.1,0-0.3,0-0.4v-0.8h-1.3V207.9z M135.3,204.5l0.6-0.2c0.3,0.6,0.5,1,0.7,1.4l-0.6,0.3
		C135.8,205.4,135.6,204.9,135.3,204.5z M140.7,205.4h-1.9v-0.7h2.6v7.7c0.1,0.9-0.4,1.3-1.3,1.3c-0.2,0-0.6,0-1,0c0,0,0-0.1,0-0.2
		c0-0.3-0.1-0.5-0.1-0.7c0.3,0,0.6,0,1,0c0.5,0,0.7-0.2,0.7-0.6v-2.1c-0.2,0.2-0.6,0.4-1,0.7c-0.5,0.3-0.8,0.6-1,0.7l-0.4-0.7
		c0.5-0.3,1.3-0.8,2.4-1.6V205.4z M138.8,206.6l0.7-0.2c0.2,0.5,0.4,1.2,0.7,2.1l-0.7,0.3C139.3,208.1,139.1,207.4,138.8,206.6z
		 M143.7,205.4h-2.1v-0.7h2.8v7.8c0.1,0.9-0.4,1.3-1.3,1.3c-0.4,0-0.8,0-1,0c0-0.1-0.1-0.3-0.1-0.6c0,0.1,0,0,0-0.2
		c0.3,0,0.7,0,1.1,0c0.5,0.1,0.7-0.2,0.7-0.6v-2.2c-0.8,0.6-1.4,1-1.7,1.2l-0.4-0.7c0.7-0.4,1.4-0.9,2.1-1.4V205.4z M142,206.6
		l0.7-0.2c0,0.2,0.1,0.5,0.3,1c0.2,0.6,0.3,0.9,0.3,1.2l-0.7,0.2C142.4,207.9,142.2,207.2,142,206.6z"/>
	<path style="fill:#666666;" d="M148.1,209.9l0.7,0.5c-0.9,1.2-1.7,2.2-2.6,3c-0.2-0.2-0.4-0.3-0.6-0.5
		C146.5,212,147.3,211,148.1,209.9z M146.9,205c1.8,0,4.2-0.2,7.2-0.5l0.3,0.8c-2.5,0.2-4.7,0.3-6.7,0.4l-0.4,2.9h2.9v-2.3h0.8v2.3
		h3.9v0.7H151v3.1c0.1,0.9-0.4,1.4-1.3,1.3c-0.6,0-1.1,0-1.3,0c-0.1-0.3-0.1-0.6-0.2-0.9c0.7,0.1,1.1,0.1,1.3,0.1
		c0.5,0,0.7-0.2,0.7-0.7v-3h-3.9L146.9,205z M152.8,209.9c0.9,0.9,1.8,1.9,2.6,2.9l-0.6,0.6c-0.7-0.9-1.6-1.9-2.6-3L152.8,209.9z"/>
</g>
<g>
	<path style="fill:#666666;" d="M162.6,204.6l-3.5,8.9h-0.9l3.5-8.9H162.6z"/>
	<path style="fill:#666666;" d="M166.3,206.7c0.1-0.4,0.3-0.7,0.5-0.9c0.2-0.3,0.5-0.5,0.9-0.6s0.7-0.2,1.2-0.2c0.4,0,0.7,0.1,1,0.2
		c0.3,0.1,0.6,0.3,0.8,0.5c0.2,0.2,0.4,0.5,0.6,0.8c0.1,0.3,0.2,0.6,0.2,1c0,0.4-0.1,0.7-0.2,1c-0.1,0.3-0.3,0.5-0.5,0.8
		c-0.2,0.2-0.4,0.4-0.7,0.6c-0.2,0.2-0.5,0.4-0.8,0.5c-0.3,0.2-0.5,0.3-0.8,0.5c-0.3,0.2-0.5,0.3-0.7,0.5c-0.2,0.2-0.4,0.4-0.6,0.6
		c-0.2,0.2-0.3,0.4-0.3,0.7h4.3v0.9h-5.5c0-0.5,0.1-0.9,0.3-1.3c0.1-0.4,0.3-0.7,0.5-0.9s0.5-0.5,0.7-0.7s0.6-0.4,0.8-0.6
		c0.4-0.2,0.7-0.4,0.9-0.6c0.3-0.2,0.5-0.4,0.7-0.6c0.2-0.2,0.3-0.4,0.4-0.6c0.1-0.2,0.1-0.5,0.1-0.8c0-0.2,0-0.4-0.1-0.6
		s-0.2-0.3-0.4-0.5c-0.1-0.1-0.3-0.2-0.5-0.3c-0.2-0.1-0.4-0.1-0.6-0.1c-0.3,0-0.5,0.1-0.8,0.2c-0.2,0.1-0.4,0.3-0.5,0.5
		c-0.1,0.2-0.2,0.4-0.3,0.7c-0.1,0.2-0.1,0.5-0.1,0.8h-1C166.1,207.4,166.2,207.1,166.3,206.7z"/>
	<path style="fill:#666666;" d="M172.8,208.2c0-0.3,0.1-0.7,0.1-1c0.1-0.3,0.2-0.6,0.3-0.9c0.1-0.3,0.3-0.5,0.5-0.7s0.5-0.4,0.8-0.5
		c0.3-0.1,0.7-0.2,1.1-0.2s0.8,0.1,1.1,0.2c0.3,0.1,0.6,0.3,0.8,0.5s0.4,0.5,0.5,0.7s0.2,0.6,0.3,0.9c0.1,0.3,0.1,0.6,0.1,1
		c0,0.3,0,0.7,0,1s0,0.6,0,1c0,0.3-0.1,0.7-0.1,1s-0.2,0.6-0.3,0.9s-0.3,0.5-0.5,0.7c-0.2,0.2-0.5,0.4-0.8,0.5
		c-0.3,0.1-0.7,0.2-1.1,0.2c-0.4,0-0.8-0.1-1.1-0.2c-0.3-0.1-0.6-0.3-0.8-0.5c-0.2-0.2-0.4-0.5-0.5-0.7c-0.1-0.3-0.2-0.6-0.3-0.9
		s-0.1-0.6-0.1-1s0-0.7,0-1S172.8,208.6,172.8,208.2z M173.8,210.2c0,0.4,0.1,0.8,0.2,1.1c0.1,0.3,0.3,0.6,0.5,0.9
		c0.2,0.2,0.6,0.4,1,0.4s0.8-0.1,1-0.4c0.2-0.2,0.4-0.5,0.5-0.9c0.1-0.3,0.2-0.7,0.2-1.1c0-0.4,0-0.7,0-1.1c0-0.2,0-0.4,0-0.7
		s0-0.5-0.1-0.7c0-0.2-0.1-0.5-0.2-0.7c-0.1-0.2-0.2-0.4-0.3-0.6s-0.3-0.3-0.5-0.4c-0.2-0.1-0.4-0.2-0.7-0.2s-0.5,0.1-0.7,0.2
		c-0.2,0.1-0.4,0.3-0.5,0.4s-0.2,0.4-0.3,0.6c-0.1,0.2-0.1,0.5-0.2,0.7c0,0.2-0.1,0.5-0.1,0.7s0,0.5,0,0.7
		C173.8,209.5,173.8,209.8,173.8,210.2z"/>
	<path style="fill:#666666;" d="M182.1,213.3v-6h-2.2v-0.8c0.3,0,0.6,0,0.8-0.1s0.5-0.1,0.7-0.2s0.4-0.3,0.6-0.5s0.3-0.5,0.3-0.8
		h0.8v8.4H182.1z"/>
	<path style="fill:#666666;" d="M187.6,205.9l-0.5,2.4l0,0c0.2-0.2,0.4-0.4,0.7-0.5s0.6-0.1,0.9-0.1c0.4,0,0.7,0.1,1.1,0.2
		c0.3,0.1,0.6,0.3,0.9,0.5s0.4,0.5,0.6,0.9s0.2,0.8,0.2,1.3c0,0.4-0.1,0.7-0.2,1c-0.1,0.3-0.3,0.6-0.6,0.9c-0.2,0.3-0.6,0.5-0.9,0.6
		s-0.8,0.2-1.3,0.2c-0.4,0-0.7-0.1-1-0.2c-0.3-0.1-0.6-0.3-0.8-0.5c-0.2-0.2-0.4-0.5-0.6-0.8c-0.1-0.3-0.2-0.6-0.2-1h1
		c0,0.2,0.1,0.4,0.2,0.6s0.2,0.3,0.4,0.5c0.2,0.1,0.3,0.2,0.5,0.3s0.4,0.1,0.7,0.1c0.2,0,0.5,0,0.7-0.1c0.2-0.1,0.4-0.2,0.6-0.4
		c0.2-0.2,0.3-0.4,0.4-0.6c0.1-0.2,0.1-0.5,0.1-0.9c0-0.3,0-0.5-0.1-0.8c-0.1-0.2-0.2-0.4-0.4-0.6s-0.4-0.3-0.6-0.4
		c-0.2-0.1-0.5-0.1-0.8-0.1c-0.3,0-0.6,0.1-0.9,0.2c-0.3,0.1-0.5,0.3-0.7,0.6l-0.9,0l0.8-4.4h4.2v0.9H187.6z"/>
	<path style="fill:#666666;" d="M194.4,212v1.3H193V212H194.4z"/>
	<path style="fill:#666666;" d="M197.5,205.9l-0.5,2.4l0,0c0.2-0.2,0.4-0.4,0.7-0.5s0.6-0.1,0.9-0.1c0.4,0,0.7,0.1,1.1,0.2
		c0.3,0.1,0.6,0.3,0.9,0.5s0.4,0.5,0.6,0.9s0.2,0.8,0.2,1.3c0,0.4-0.1,0.7-0.2,1c-0.1,0.3-0.3,0.6-0.6,0.9c-0.2,0.3-0.6,0.5-0.9,0.6
		s-0.8,0.2-1.3,0.2c-0.4,0-0.7-0.1-1-0.2c-0.3-0.1-0.6-0.3-0.8-0.5c-0.2-0.2-0.4-0.5-0.6-0.8c-0.1-0.3-0.2-0.6-0.2-1h1
		c0,0.2,0.1,0.4,0.2,0.6s0.2,0.3,0.4,0.5c0.2,0.1,0.3,0.2,0.5,0.3s0.4,0.1,0.7,0.1c0.2,0,0.5,0,0.7-0.1c0.2-0.1,0.4-0.2,0.6-0.4
		c0.2-0.2,0.3-0.4,0.4-0.6c0.1-0.2,0.1-0.5,0.1-0.9c0-0.3,0-0.5-0.1-0.8c-0.1-0.2-0.2-0.4-0.4-0.6s-0.4-0.3-0.6-0.4
		c-0.2-0.1-0.5-0.1-0.8-0.1c-0.3,0-0.6,0.1-0.9,0.2c-0.3,0.1-0.5,0.3-0.7,0.6l-0.9,0l0.8-4.4h4.2v0.9H197.5z"/>
	<path style="fill:#666666;" d="M204.3,212v1.3H203V212H204.3z"/>
	<path style="fill:#666666;" d="M205.9,206.7c0.1-0.4,0.3-0.7,0.5-0.9c0.2-0.3,0.5-0.5,0.9-0.6s0.7-0.2,1.2-0.2c0.4,0,0.7,0.1,1,0.2
		c0.3,0.1,0.6,0.3,0.8,0.5c0.2,0.2,0.4,0.5,0.6,0.8c0.1,0.3,0.2,0.6,0.2,1c0,0.4-0.1,0.7-0.2,1c-0.1,0.3-0.3,0.5-0.5,0.8
		c-0.2,0.2-0.4,0.4-0.7,0.6c-0.2,0.2-0.5,0.4-0.8,0.5c-0.3,0.2-0.5,0.3-0.8,0.5c-0.3,0.2-0.5,0.3-0.7,0.5c-0.2,0.2-0.4,0.4-0.6,0.6
		c-0.2,0.2-0.3,0.4-0.3,0.7h4.3v0.9h-5.5c0-0.5,0.1-0.9,0.3-1.3c0.1-0.4,0.3-0.7,0.5-0.9s0.5-0.5,0.7-0.7s0.6-0.4,0.8-0.6
		c0.4-0.2,0.7-0.4,0.9-0.6c0.3-0.2,0.5-0.4,0.7-0.6c0.2-0.2,0.3-0.4,0.4-0.6c0.1-0.2,0.1-0.5,0.1-0.8c0-0.2,0-0.4-0.1-0.6
		s-0.2-0.3-0.4-0.5c-0.1-0.1-0.3-0.2-0.5-0.3c-0.2-0.1-0.4-0.1-0.6-0.1c-0.3,0-0.5,0.1-0.8,0.2c-0.2,0.1-0.4,0.3-0.5,0.5
		c-0.1,0.2-0.2,0.4-0.3,0.7c-0.1,0.2-0.1,0.5-0.1,0.8h-1C205.8,207.4,205.8,207.1,205.9,206.7z"/>
	<path style="fill:#666666;" d="M212.9,206.1c0.1-0.3,0.3-0.5,0.5-0.7c0.2-0.2,0.5-0.3,0.8-0.4c0.3-0.1,0.6-0.1,0.9-0.1
		c0.5,0,0.9,0.1,1.2,0.2c0.3,0.1,0.6,0.3,0.8,0.5c0.2,0.2,0.4,0.4,0.4,0.7c0.1,0.3,0.1,0.5,0.1,0.8c0,0.4-0.1,0.7-0.3,1
		c-0.2,0.3-0.5,0.5-0.8,0.7c0.5,0.2,0.9,0.4,1.1,0.8s0.4,0.8,0.4,1.3c0,0.4-0.1,0.8-0.2,1.1s-0.3,0.6-0.6,0.8
		c-0.2,0.2-0.5,0.4-0.9,0.5c-0.3,0.1-0.7,0.2-1.1,0.2c-0.4,0-0.8-0.1-1.1-0.2c-0.3-0.1-0.7-0.3-0.9-0.5s-0.5-0.5-0.6-0.8
		c-0.1-0.3-0.2-0.7-0.2-1.1c0-0.5,0.1-0.9,0.4-1.3c0.3-0.4,0.6-0.6,1.1-0.8c-0.4-0.1-0.6-0.4-0.9-0.7s-0.3-0.7-0.3-1.1
		C212.6,206.7,212.7,206.4,212.9,206.1z M213.9,212.1c0.3,0.3,0.8,0.4,1.3,0.4c0.3,0,0.5,0,0.7-0.1c0.2-0.1,0.4-0.2,0.5-0.3
		s0.3-0.3,0.4-0.5c0.1-0.2,0.1-0.4,0.1-0.7c0-0.2,0-0.4-0.1-0.6c-0.1-0.2-0.2-0.4-0.4-0.5s-0.3-0.3-0.6-0.3
		c-0.2-0.1-0.4-0.1-0.7-0.1c-0.2,0-0.5,0-0.7,0.1c-0.2,0.1-0.4,0.2-0.6,0.3c-0.2,0.1-0.3,0.3-0.4,0.5c-0.1,0.2-0.1,0.4-0.1,0.7
		C213.4,211.4,213.6,211.8,213.9,212.1z M213.8,207.7c0.1,0.2,0.2,0.3,0.3,0.4s0.3,0.2,0.5,0.2c0.2,0.1,0.4,0.1,0.6,0.1
		c0.4,0,0.7-0.1,1-0.4c0.3-0.2,0.4-0.6,0.4-1s-0.1-0.8-0.4-1s-0.6-0.3-1-0.3c-0.2,0-0.4,0-0.6,0.1c-0.2,0.1-0.3,0.1-0.5,0.2
		c-0.1,0.1-0.2,0.2-0.3,0.4c-0.1,0.2-0.1,0.3-0.1,0.6C213.7,207.3,213.8,207.5,213.8,207.7z"/>
</g>
<g>
	<path style="fill:#FF6600;" d="M138.4,191.8c0,1-0.3,1.5-1,1.5c-0.3,0-0.6,0-1,0c0,0,0-0.1,0-0.1c0-0.3-0.1-0.5-0.1-0.7
		c0.1,0,0.2,0,0.3,0c0.2,0,0.4,0,0.5,0c0.4,0,0.5-0.3,0.5-0.8c0-0.7-0.3-1.5-1-2.4c0.2-0.6,0.5-1.5,0.8-2.8h-1.3v8.5h-0.7v-9.2h2.8
		v0.7c-0.5,1.5-0.8,2.4-0.9,2.7C138.1,190.2,138.4,191,138.4,191.8z M138.8,186h6.1v0.7H144v6.7c0.1,1-0.4,1.5-1.4,1.4
		c-0.3,0-0.8,0-1.5,0c0-0.1-0.1-0.3-0.1-0.5c-0.1-0.2-0.1-0.3-0.1-0.3c0.4,0,0.9,0,1.5,0c0.5,0,0.8-0.2,0.8-0.7v-6.7h-4.5V186z
		 M139.1,188.1h3.1v4.3h-3.1V188.1z M139.8,188.8v2.9h1.6v-2.9H139.8z"/>
	<path style="fill:#FF6600;" d="M146.2,191.9h4v-1.2h-3.6v-4.9h7.9v4.9h-3.6v1.2h4v0.7h-4v1.3h4.6v0.7h-9.9v-0.7h4.6v-1.3h-4V191.9z
		 M147.3,186.5v1.5h2.8v-1.5H147.3z M147.3,188.7v1.4h2.8v-1.4H147.3z M153.7,186.5h-2.8v1.5h2.8V186.5z M150.9,188.7v1.4h2.8v-1.4
		H150.9z"/>
	<path style="fill:#FF6600;" d="M160.1,193.5l-0.6,0.5c-0.2-0.1-0.4-0.3-0.7-0.7c-0.1-0.1-0.2-0.2-0.3-0.3c-0.4,0.6-1,1.2-1.9,2
		c-0.1-0.2-0.3-0.4-0.5-0.7c0.7-0.5,1.3-1.1,1.8-1.9c-0.2-0.1-0.4-0.4-0.7-0.7c-0.3-0.3-0.5-0.5-0.7-0.7c0.2-0.6,0.4-1.6,0.7-3h-0.9
		v-0.7h1c0.1-0.4,0.1-1,0.2-1.7c0-0.2,0-0.3,0-0.4l0.8,0.1c0,0.3-0.1,0.7-0.2,1.2c-0.1,0.4-0.1,0.6-0.1,0.8h1.8v0.7
		c-0.2,1.8-0.5,3.2-1,4.1C159.3,192.7,159.7,193.1,160.1,193.5z M159.1,188.2h-1.2c-0.2,1.1-0.4,2-0.6,2.8c0.2,0.1,0.4,0.3,0.7,0.6
		c0.1,0.1,0.2,0.2,0.3,0.3C158.7,190.9,159,189.7,159.1,188.2z M159.9,192h4.4v0.7h-4.4V192z M161.7,187.1l-0.2,2.8h2.5l0.3-3.5
		h-4.1v-0.7h5l-0.4,4.2h1c-0.1,1.7-0.1,2.9-0.2,3.5c-0.1,1-0.6,1.5-1.7,1.5c-0.7,0-1.2,0-1.6,0c0-0.2-0.1-0.4-0.1-0.6
		c0-0.1,0-0.2,0-0.3c0.2,0,0.8,0,1.7,0c0.6,0,0.9-0.3,0.9-0.8c0.1-0.5,0.1-1.4,0.2-2.7h-4.3l0.3-3.5H161.7z"/>
	<path style="fill:#FF6600;" d="M170.7,193.5l-0.6,0.5c-0.2-0.1-0.4-0.3-0.7-0.7c-0.1-0.1-0.2-0.2-0.3-0.3c-0.4,0.6-1,1.2-1.9,2
		c-0.1-0.2-0.3-0.4-0.5-0.7c0.7-0.5,1.3-1.1,1.8-1.9c-0.2-0.1-0.4-0.4-0.7-0.7c-0.3-0.3-0.5-0.5-0.7-0.7c0.2-0.6,0.4-1.6,0.7-3h-0.9
		v-0.7h1c0.1-0.4,0.1-1,0.2-1.7c0-0.2,0-0.3,0-0.4l0.8,0.1c0,0.3-0.1,0.7-0.2,1.2c-0.1,0.4-0.1,0.6-0.1,0.8h1.8v0.7
		c-0.2,1.8-0.5,3.2-1,4.1C169.8,192.7,170.2,193.1,170.7,193.5z M169.6,188.2h-1.2c-0.2,1.1-0.4,2-0.6,2.8c0.2,0.1,0.4,0.3,0.7,0.6
		c0.1,0.1,0.2,0.2,0.3,0.3C169.3,190.9,169.5,189.7,169.6,188.2z M170.5,192h4.4v0.7h-4.4V192z M172.2,187.1l-0.2,2.8h2.5l0.3-3.5
		h-4.1v-0.7h5l-0.4,4.2h1c-0.1,1.7-0.1,2.9-0.2,3.5c-0.1,1-0.6,1.5-1.7,1.5c-0.7,0-1.2,0-1.6,0c0-0.2-0.1-0.4-0.1-0.6
		c0-0.1,0-0.2,0-0.3c0.2,0,0.8,0,1.7,0c0.6,0,0.9-0.3,0.9-0.8c0.1-0.5,0.1-1.4,0.2-2.7h-4.3l0.3-3.5H172.2z"/>
	<path style="fill:#FF6600;" d="M179.3,190.6v-0.8h5.7v0.8H179.3z"/>
	<path style="fill:#FF6600;" d="M193.3,194.9h-0.8v-3.1h-2.9c-0.1,1.3-0.5,2.5-1.2,3.4c0,0-0.1-0.1-0.1-0.1
		c-0.2-0.2-0.4-0.4-0.5-0.5c0.5-0.6,0.8-1.2,0.9-1.9c0.1-0.7,0.2-1.8,0.2-3.5v-3.2h8.1v7.8c0.1,0.9-0.4,1.3-1.4,1.3
		c-0.4,0-0.8,0-1.2,0c0,0,0-0.1,0-0.2c0-0.3-0.1-0.5-0.1-0.7c0.1,0,0.3,0,0.6,0c0.3,0,0.6,0,0.7,0c0.5,0,0.8-0.2,0.7-0.7v-1.7h-3
		V194.9z M189.7,189.2c0,0.7,0,1.4,0,1.9h2.9v-1.9H189.7z M189.7,186.6v1.9h2.8v-1.9H189.7z M196.3,186.6h-3v1.9h3V186.6z
		 M193.3,189.2v1.9h3v-1.9H193.3z"/>
	<path style="fill:#FF6600;" d="M202.6,185.6l0.7-0.4c0.1,0.1,0.2,0.3,0.3,0.5c0.2,0.4,0.4,0.6,0.5,0.8l-0.5,0.3h3.8v4.4h-0.8v-0.5
		h-6.3c-0.1,1.8-0.5,3.2-1.4,4.4c-0.1-0.1-0.2-0.2-0.3-0.3c-0.1-0.1-0.2-0.2-0.3-0.3c0.9-1,1.4-2.6,1.3-4.8v-2.9h3.8
		c-0.1-0.1-0.1-0.2-0.2-0.4C202.9,186,202.7,185.8,202.6,185.6z M200.4,187.5v2.2v0.3h6.3v-2.5H200.4z"/>
	<path style="fill:#FF6600;" d="M208.8,190.1c1-1.3,1.8-2.9,2.3-4.8l0.7,0.2c-0.3,0.9-0.6,1.8-1,2.6v6.9h-0.7v-5.5
		c-0.1,0.1-0.2,0.3-0.3,0.5c-0.1,0.2-0.3,0.5-0.7,0.9c0,0-0.1-0.1-0.1-0.3C208.9,190.4,208.8,190.2,208.8,190.1z M211,192.8
		c1.4-1.2,2.4-2.8,3-4.7h-2.3v-0.7h2.9v-2h0.8v2h3.1v0.7h-2.5c0.7,2.1,1.6,3.5,3,4.5c-0.1,0.1-0.3,0.4-0.6,0.7
		c-1.5-1.4-2.4-3.1-3-5.2v4.2h1.6v0.7h-1.6v2h-0.8v-2H213v-0.7h1.6v-4.2c-0.4,2-1.4,3.7-3,5.4C211.3,193.2,211.1,192.9,211,192.8z"
		/>
	<path style="fill:#FF6600;" d="M219.4,192.2c0.9-0.2,1.7-0.4,2.5-0.6c0,0.2,0,0.5,0,0.7c-0.4,0.1-1,0.2-1.9,0.5
		c-0.2,0.1-0.4,0.1-0.5,0.1L219.4,192.2z M220.8,187.2l-0.2,2.8h1l0.3-3.4h-2.3v-0.7h3l-0.3,4.1h0.6c0,0.5-0.1,1.3-0.1,2.3
		c0,0.6,0,0.9,0,1.2c0,0.9-0.5,1.4-1.4,1.4c-0.3,0-0.7,0-1.2,0c0-0.2-0.1-0.5-0.2-0.8c0.2,0,0.4,0,0.7,0c0.2,0,0.4,0,0.5,0
		c0.5,0,0.7-0.2,0.7-0.7c0-0.3,0.1-1,0.1-1.9c0-0.4,0-0.7,0-0.9h-2.4l0.3-3.4H220.8z M226.7,185.4c-0.1,0.1-0.1,0.2-0.2,0.4
		c0.8,1.4,1.8,2.4,2.9,3c0,0-0.1,0.1-0.1,0.2c-0.2,0.2-0.3,0.4-0.4,0.5c-1.2-0.8-2.1-1.8-2.8-3c-0.8,1.3-1.8,2.4-2.9,3.1
		c-0.1-0.2-0.3-0.4-0.5-0.6c1.3-0.9,2.4-2.1,3.2-3.7L226.7,185.4z M228.7,190.5c-0.4,1.3-0.9,2.5-1.2,3.4h1.8v0.7h-6.1v-0.7h3.5
		c0.4-1,0.9-2.2,1.3-3.7L228.7,190.5z M223.5,190.7l0.7-0.2c0.1,0.2,0.2,0.5,0.3,0.9c0.3,0.8,0.5,1.4,0.6,1.7l-0.7,0.2
		C224,192.3,223.8,191.5,223.5,190.7z M224.1,189h4.1v0.7h-4.1V189z M225.2,190.3l0.7-0.2c0.3,1.2,0.6,2.1,0.7,2.6l-0.7,0.2
		C225.7,192,225.5,191.1,225.2,190.3z"/>
	<path style="fill:#FF6600;" d="M230.7,187.5h3.9v-2.2h0.8v2.2h3.9v4.5h-0.8v-0.5h-3.1v3.7h-0.8v-3.7h-3.1v0.5h-0.8V187.5z
		 M231.5,188.2v2.5h3.1v-2.5H231.5z M238.5,188.2h-3.1v2.5h3.1V188.2z"/>
	<path style="fill:#FF6600;" d="M241.7,188.3l0.8,0.2c-0.3,1.6-0.7,2.9-1.1,4.1l-0.8-0.3C241.1,190.9,241.4,189.5,241.7,188.3z
		 M243.2,187.2h0.8v5.9c0,0.6,0.3,0.9,0.9,0.9h1.9c0.7,0.1,1.1-0.2,1.1-0.7c0-0.1,0-0.3,0-0.5c0.1-0.4,0.1-0.8,0.1-1
		c0.3,0.1,0.6,0.2,0.8,0.3c-0.1,0.6-0.2,1.1-0.2,1.6c-0.1,0.8-0.7,1.1-1.8,1.1h-2.2c-1,0-1.6-0.5-1.5-1.5V187.2z M245.3,185.2
		c0.4,0.6,0.9,1.4,1.5,2.5c0.1,0.1,0.1,0.2,0.2,0.3l-0.8,0.4c-0.4-1-0.9-2-1.5-2.9L245.3,185.2z M248.8,188c0.1,0.1,0.1,0.3,0.2,0.5
		c0.7,1.3,1.2,2.4,1.5,3.2l-0.8,0.4c-0.5-1.3-1.1-2.6-1.7-3.7L248.8,188z"/>
	<path style="fill:#FF6600;" d="M253.2,190.6v-0.8h5.7v0.8H253.2z"/>
	<path style="fill:#FF6600;" d="M262.2,190.5h3.8v4.5h-0.8v-0.7H263v0.7h-0.7V190.5z M263,191.2v2.6h2.3v-2.6H263z M263.2,185.8h6.8
		v3.6h-6.8V185.8z M264,186.5v2.2h5.3v-2.2H264z M267.3,190.5h3.8v4.5h-0.7v-0.7H268v0.7h-0.8V190.5z M268,191.2v2.6h2.3v-2.6H268z"
		/>
	<path style="fill:#FF6600;" d="M274.7,185.4h0.7v3.2h0.7v0.7h-2.5v1.4h1.9v4.3h-0.7v-3.7h-1.2c0,1.7-0.3,3-0.8,3.8
		c-0.2-0.2-0.4-0.4-0.6-0.6c0.5-0.7,0.7-2.1,0.7-4.1v-4.7h0.7v2.9h1V185.4z M275.9,192.5h1.1c-0.2-0.2-0.3-0.3-0.4-0.5
		c0.6-0.3,1.1-0.6,1.4-1.1h-1.5v-4.7h1.7c0.1-0.2,0.2-0.6,0.3-1.1l0.8,0.1c0,0.1-0.1,0.2-0.1,0.3c-0.1,0.3-0.2,0.5-0.2,0.7h2.5v4.7
		h-2.7c-0.3,0.6-0.8,1.1-1.5,1.5h1.9v-1.2h0.7v1.2h2.3v0.7h-2.3v1.9h-0.7v-1.9h-3.3V192.5z M277.2,186.9v1.4h1.5v-1.4H277.2z
		 M278.4,190.4c0.2-0.4,0.3-0.8,0.3-1.4h-1.5v1.4H278.4z M279.4,189c0,0.5-0.1,1-0.2,1.4h1.7V189H279.4z M280.8,186.9h-1.5v1.4h1.5
		V186.9z"/>
	<path style="fill:#FF6600;" d="M286.7,185.4c-0.1,0.1-0.2,0.2-0.2,0.4c0.7,0.6,1.5,1.3,2.4,2.2l-0.5,0.6c-0.5-0.6-1.3-1.3-2.2-2.2
		c-0.6,0.9-1.3,1.7-2.1,2.4h4.1c0,0.6,0,1.3-0.1,2.1c0,0.9-0.5,1.3-1.5,1.3c-0.6,0-1,0-1.2,0c0-0.3-0.1-0.6-0.1-0.8
		c0.5,0,0.9,0,1.2,0c0.5,0,0.8-0.2,0.8-0.7c0-0.1,0-0.4,0-0.7c0-0.3,0-0.5,0-0.7h-2.6v3.8c-0.1,0.5,0.2,0.7,0.7,0.7h1.4
		c0.6,0,0.9-0.1,1-0.4c0.1-0.2,0.1-0.6,0.2-1.2c0.2,0.1,0.5,0.2,0.8,0.3c-0.1,0.6-0.2,1-0.2,1.2c-0.2,0.6-0.7,0.9-1.5,0.9h-1.7
		c-1,0.1-1.4-0.4-1.4-1.3V189c-0.1,0-0.1,0.1-0.2,0.2c-0.1,0.1-0.2,0.2-0.5,0.4c0-0.1-0.1-0.2-0.2-0.4c-0.1-0.2-0.2-0.3-0.2-0.3
		c1.4-1,2.4-2.2,3.1-3.5L286.7,185.4z M291.3,185.4h0.8v8.3c0,0.9-0.4,1.3-1.2,1.3c-0.4,0-0.9,0-1.5,0c0-0.3-0.1-0.6-0.2-0.9
		c0.2,0,0.4,0,0.7,0c0.3,0,0.5,0,0.7,0c0.5,0,0.8-0.2,0.7-0.6V185.4z M290,192.5h-0.7v-6.1h0.7V192.5z"/>
	<path style="fill:#FF6600;" d="M294.3,192.6l0.7,0.2c-0.2,0.4-0.4,0.9-0.7,1.4c-0.1,0.1-0.1,0.2-0.2,0.3c-0.2-0.1-0.4-0.2-0.7-0.3
		C293.7,193.8,294,193.3,294.3,192.6z M297.7,185.4l0.7-0.2c0.1,0.1,0.2,0.4,0.2,0.7c0.1,0.2,0.1,0.3,0.1,0.4h3.8v0.6h-1.8l0.4,0.2
		c-0.1,0.1-0.4,0.3-0.7,0.6c0.2-0.2,0.2-0.2-0.1,0.1h2.8v0.6h-9.7v-0.6h2.8c0,0-0.1-0.1-0.1-0.1c-0.2-0.2-0.4-0.4-0.7-0.6l0.3-0.2
		h-1.7v-0.6h4c0-0.1-0.1-0.3-0.2-0.5C297.8,185.6,297.8,185.5,297.7,185.4z M294.7,189.1h7.1v3.1h-3.7c0.4,0.3,0.8,0.7,1.1,1
		l-0.6,0.5c0,0-0.1-0.1-0.1-0.1c-0.4-0.4-0.7-0.8-1-1l0.5-0.4h-3.3V189.1z M295.5,189.7v0.7h5.6v-0.7H295.5z M295.5,190.9v0.7h5.6
		v-0.7H295.5z M295.9,192.5h0.7v1.1c-0.1,0.4,0.2,0.6,0.7,0.6h1.9c0.5,0,0.8-0.1,0.9-0.4c0.1-0.2,0.2-0.6,0.2-0.9
		c0.2,0.1,0.5,0.2,0.7,0.3c-0.1,0.4-0.2,0.6-0.2,0.9c-0.1,0.6-0.6,0.9-1.4,0.9h-2.2c-1,0.1-1.4-0.3-1.4-1.2V192.5z M297,187.6
		l-0.3,0.2h2.6c0.1-0.1,0.3-0.3,0.5-0.5c0.2-0.2,0.4-0.4,0.5-0.5h-4.2C296.5,187.1,296.8,187.3,297,187.6z M301.5,193l0.5-0.4
		c0.2,0.2,0.5,0.5,0.9,0.9c0.2,0.2,0.3,0.3,0.4,0.4l-0.6,0.5c-0.1-0.2-0.3-0.4-0.6-0.7C301.8,193.4,301.6,193.2,301.5,193z"/>
	<path style="fill:#FF6600;" d="M303.9,193.4c1.3-0.2,2.5-0.4,3.6-0.6c0,0,0,0.1,0,0.3c0,0.2,0,0.4,0,0.5c-0.4,0.1-0.9,0.2-1.7,0.3
		c-0.7,0.1-1.3,0.2-1.7,0.2L303.9,193.4z M305.3,191.1c0.3,0,0.8-0.1,1.4-0.2c0.3-0.1,0.6-0.1,0.7-0.1c0,0.2,0,0.4-0.1,0.7
		c-1.5,0.2-2.5,0.3-2.9,0.5l-0.2-0.7c0.3-0.2,0.9-0.9,1.7-2.1c-0.1,0-0.1,0-0.2,0c-0.8,0.1-1.3,0.1-1.5,0.2l-0.2-0.7
		c0.5-0.4,1.1-1.5,1.8-3.3l0.8,0.3c-0.7,1.3-1.3,2.2-1.7,2.8c0.1,0,0.4,0,0.7,0c0.3-0.1,0.5-0.1,0.7-0.1c0.2-0.4,0.5-0.9,0.8-1.4
		l0.7,0.4C307.2,188.5,306.3,189.7,305.3,191.1z M306.9,194.6v-0.7h1.2v-8h4.8v8h0.9v0.7H306.9z M308.9,186.6v2h3.3v-2H308.9z
		 M308.9,189.3v2h3.3v-2H308.9z M308.9,192v1.9h3.3V192H308.9z"/>
</g>
<g id="alimama.com_拷贝_4_">
	<g>
		<path style="fill-rule:evenodd;clip-rule:evenodd;fill:#CBCBCB;" d="M424.5,280c-0.8,1.6-1.6,3.1-2.4,4.8h1.2
			c0.2-0.4,0.3-0.7,0.6-1.1c0.6,0,1.1,0,1.7,0c-0.1-0.4-0.2-0.6-0.3-0.9h-0.9c0.3-0.5,0.4-0.8,0.8-1.6c0.4,1.2,0.9,2.5,1.3,3.6h1.1
			c-0.6-1.7-1.1-3.1-1.7-4.8H424.5z M427.8,284.8h1l0.2-4.8l-1,0L427.8,284.8z M429.4,284.8h1.1l0.1-3.6h-1L429.4,284.8z M429.6,280
			l0,0.8c0,0,0.8,0,1,0l0-0.8C429.7,280,429.7,280,429.6,280z M436.1,281.3c-0.2-0.1-0.4-0.1-0.6-0.1c-0.1,0-0.2,0-0.3,0
			c-0.1,0-0.2,0.1-0.3,0.1c-0.1,0-0.2,0.1-0.2,0.1c-0.1,0.1-0.1,0.1-0.2,0.2c0,0.1-0.1,0.1-0.1,0.2c0-0.1-0.1-0.2-0.1-0.3
			c0-0.1-0.1-0.1-0.1-0.2c-0.1,0-0.1-0.1-0.2-0.1c-0.1,0-0.2-0.1-0.3-0.1c-0.1,0-0.2,0-0.3,0c-0.1,0-0.3,0-0.4,0.1
			c-0.1,0-0.2,0.1-0.3,0.1c-0.1,0.1-0.2,0.1-0.2,0.2c-0.1,0.1-0.1,0.2-0.2,0.3l0-0.6h-0.9l-0.2,3.6c0,0,0.8,0,1,0c0-0.3,0-0.7,0-1.2
			c0-0.5,0.1-0.9,0.1-1c0.1-0.2,0.1-0.3,0.3-0.4c0.1-0.1,0.3-0.2,0.4-0.2c0.1,0,0.2,0,0.2,0c0.1,0,0.1,0.1,0.2,0.1
			c0.1,0.1,0.1,0.1,0.1,0.2c0,0.1,0,0.2,0,0.3c0,0.2,0,0.6,0,1.1c0,0.6-0.1,0.9-0.1,1.1c0.2,0,0.8,0,1,0l0-1c0-0.3,0-0.6,0-0.8
			c0-0.2,0-0.4,0.1-0.5c0-0.1,0.1-0.2,0.2-0.3c0.1-0.1,0.2-0.2,0.2-0.2c0.1,0,0.2-0.1,0.3-0.1c0.1,0,0.2,0,0.3,0.1
			c0.1,0,0.1,0.1,0.2,0.2c0.1,0.1,0.1,0.2,0.1,0.4c0,0.1,0,0.3,0,0.5l0,0.8c0,0.3,0,0.6-0.1,0.9c0.2,0,0.8,0,1,0c0-0.3,0-0.6,0-1.1
			c0-0.5,0-0.8,0.1-1.1c0-0.2,0-0.4,0-0.5c0-0.2-0.1-0.4-0.2-0.5C436.4,281.4,436.3,281.3,436.1,281.3z M439.9,281.2
			c-0.2-0.1-0.5-0.1-0.7-0.1c-0.2,0-0.5,0-0.7,0c-0.2,0-0.8,0.2-0.8,0.2l-0.1,0.7c0,0,1-0.3,1.4-0.3c0.1,0,0.2,0,0.3,0
			c0.1,0,0.2,0.1,0.2,0.1c0.1,0.1,0.1,0.1,0.1,0.2c0,0,0,0.1,0,0.1c0,0-0.1,0.1-0.1,0.1c0,0-0.1,0.1-0.1,0.1c-0.1,0-0.1,0.1-0.2,0.1
			c-0.1,0-0.2,0-0.3,0.1c-0.3,0.1-0.6,0.1-0.8,0.2c-0.2,0.1-0.4,0.1-0.5,0.2c-0.1,0.1-0.2,0.2-0.3,0.2c-0.1,0.1-0.1,0.2-0.2,0.3
			c0,0.1-0.1,0.2-0.1,0.3c0,0.2,0,0.3,0.1,0.5c0.1,0.2,0.2,0.3,0.4,0.4c0.2,0.1,0.4,0.1,0.7,0.1c0.1,0,0.2,0,0.3,0
			c0.1,0,0.2,0,0.4-0.1c0.1-0.3,0.1-0.5,0.2-0.6c-0.1,0-0.3,0.1-0.3,0.1c-0.1,0-0.2,0-0.2,0c-0.1,0-0.2,0-0.3,0
			c-0.1,0-0.2-0.1-0.2-0.1c-0.1-0.1-0.1-0.2-0.1-0.3c0-0.1,0-0.1,0-0.2c0-0.1,0.1-0.1,0.1-0.2c0,0,0.1-0.1,0.2-0.1
			c0.1,0,0.2-0.1,0.2-0.1c0.1,0,0.2-0.1,0.4-0.1c0.1,0,0.3-0.1,0.3-0.1c0.1,0,0.1,0,0.2-0.1c0,0,0.1-0.1,0.2-0.1l-0.1,1.8h1
			c0,0,0-1.1,0.1-1.7c0-0.5,0.1-0.9,0.1-1c0-0.2-0.1-0.4-0.2-0.6C440.3,281.4,440.1,281.3,439.9,281.2z M446.2,281.3
			c-0.2-0.1-0.4-0.1-0.6-0.1c-0.1,0-0.2,0-0.3,0c-0.1,0-0.2,0.1-0.3,0.1c-0.1,0-0.2,0.1-0.2,0.1c-0.1,0.1-0.1,0.1-0.2,0.2
			c0,0.1-0.1,0.1-0.1,0.2c0-0.1-0.1-0.2-0.1-0.3c0-0.1-0.1-0.1-0.1-0.2c-0.1,0-0.1-0.1-0.2-0.1c-0.1,0-0.2-0.1-0.3-0.1
			c-0.1,0-0.2,0-0.3,0c-0.1,0-0.3,0-0.4,0.1c-0.1,0-0.2,0.1-0.3,0.1c-0.1,0.1-0.2,0.1-0.2,0.2c-0.1,0.1-0.1,0.2-0.2,0.3l0-0.6h-1
			l-0.2,3.6h1c0,0,0-0.7,0-1.2c0-0.5,0.1-0.9,0.1-1c0.1-0.2,0.1-0.3,0.3-0.4c0.1-0.1,0.3-0.2,0.4-0.2c0.1,0,0.2,0,0.2,0
			c0.1,0,0.1,0.1,0.2,0.1c0,0.1,0.1,0.1,0.1,0.2c0,0.1,0,0.2,0,0.3c0,0.2,0,0.6,0,1.1c0,0.6-0.1,0.9-0.1,1.1c0.2,0,0.8,0,1,0l0-1
			c0-0.3,0-0.6,0-0.8c0-0.2,0-0.4,0.1-0.5c0-0.1,0.1-0.2,0.2-0.3c0.1-0.1,0.2-0.2,0.2-0.2c0.1,0,0.2-0.1,0.3-0.1
			c0.1,0,0.2,0,0.3,0.1c0.1,0,0.1,0.1,0.2,0.2c0.1,0.1,0.1,0.2,0.1,0.4c0,0.1,0,0.3,0,0.5l0,0.8c0,0.3,0,0.6-0.1,0.9
			c0.2,0,0.8,0,1,0c0-0.3,0-0.6,0-1.1c0-0.5,0-0.8,0.1-1.1c0-0.2,0-0.4,0-0.5c0-0.2-0.1-0.4-0.2-0.5
			C446.5,281.4,446.4,281.3,446.2,281.3z M450,281.2c-0.2-0.1-0.5-0.1-0.7-0.1c-0.2,0-0.5,0-0.7,0c-0.2,0-0.8,0.2-0.8,0.2l-0.1,0.7
			c0,0,1-0.3,1.4-0.3c0.1,0,0.2,0,0.3,0c0.1,0,0.2,0.1,0.2,0.1c0.1,0.1,0.1,0.1,0.1,0.2c0,0,0,0.1,0,0.1c0,0-0.1,0.1-0.1,0.1
			c0,0-0.1,0.1-0.1,0.1c-0.1,0-0.1,0.1-0.2,0.1c-0.1,0-0.2,0-0.3,0.1c-0.3,0.1-0.6,0.1-0.8,0.2c-0.2,0.1-0.4,0.1-0.5,0.2
			c-0.1,0.1-0.2,0.2-0.3,0.2c-0.1,0.1-0.1,0.2-0.2,0.3c0,0.1-0.1,0.2-0.1,0.3c0,0.2,0,0.3,0.1,0.5c0.1,0.2,0.2,0.3,0.4,0.4
			c0.2,0.1,0.4,0.1,0.7,0.1c0.1,0,0.2,0,0.3,0c0.1,0,0.2,0,0.4-0.1c0.1-0.3,0.1-0.5,0.2-0.6c-0.1,0-0.3,0.1-0.3,0.1
			c-0.1,0-0.2,0-0.2,0c-0.1,0-0.2,0-0.3,0c-0.1,0-0.2-0.1-0.2-0.1c-0.1-0.1-0.1-0.2-0.1-0.3c0-0.1,0-0.1,0-0.2
			c0-0.1,0.1-0.1,0.1-0.2c0,0,0.1-0.1,0.2-0.1c0.1,0,0.2-0.1,0.2-0.1c0.1,0,0.2-0.1,0.4-0.1c0.1,0,0.3-0.1,0.3-0.1
			c0.1,0,0.1,0,0.2-0.1c0,0,0.1-0.1,0.2-0.1l-0.1,1.8h1c0,0,0-1.1,0.1-1.7c0-0.5,0.1-0.9,0.1-1c0-0.2-0.1-0.4-0.2-0.6
			C450.4,281.4,450.2,281.3,450,281.2z M451.1,283.9c0,0.5,0,0.8,0,0.9c0.3,0,1,0,1,0s0-0.8,0-0.9
			C451.8,283.9,451.1,283.9,451.1,283.9z M453.7,282.2c0.1-0.1,0.2-0.2,0.4-0.3c0.1-0.1,0.3-0.1,0.5-0.1c0.3,0,0.6,0.1,0.9,0.2
			l-0.1-0.8c-0.2-0.1-0.4-0.1-0.6-0.1c-0.2,0-0.3,0-0.5,0c-0.3,0-0.5,0-0.7,0.1c-0.2,0.1-0.4,0.2-0.6,0.3c-0.2,0.2-0.3,0.4-0.4,0.7
			c-0.1,0.3-0.1,0.6-0.1,0.8c0,0.2,0,0.4,0.1,0.6c0.1,0.2,0.1,0.4,0.3,0.5c0.1,0.1,0.2,0.3,0.4,0.4c0.2,0.1,0.3,0.2,0.5,0.2
			c0.2,0,0.4,0.1,0.5,0.1c0.3,0,0.7,0,1-0.1c0-0.2,0.1-0.3,0.1-0.5c0-0.1,0-0.2,0.1-0.3c-0.2,0.1-0.3,0.1-0.5,0.1
			c-0.2,0-0.3,0-0.4,0c-0.2,0-0.4,0-0.6-0.1c-0.2-0.1-0.3-0.2-0.4-0.4c-0.1-0.2-0.1-0.4-0.1-0.6c0-0.2,0-0.3,0.1-0.5
			C453.5,282.5,453.6,282.3,453.7,282.2z M459.1,281.6c-0.2-0.2-0.4-0.3-0.6-0.4c-0.2-0.1-0.5-0.1-0.8-0.1c-0.3,0-0.6,0.1-0.8,0.1
			c-0.3,0.1-0.5,0.2-0.7,0.4c-0.2,0.2-0.3,0.4-0.4,0.6c-0.1,0.2-0.1,0.5-0.1,0.7c0,0.3,0,0.5,0.1,0.7c0.1,0.2,0.2,0.4,0.4,0.6
			s0.4,0.3,0.6,0.4c0.2,0.1,0.5,0.1,0.8,0.1c0.3,0,0.6,0,0.8-0.1c0.3-0.1,0.5-0.2,0.6-0.4c0.2-0.2,0.3-0.4,0.4-0.6
			c0.1-0.2,0.1-0.5,0.1-0.8c0-0.3,0-0.5-0.1-0.7C459.4,282,459.2,281.8,459.1,281.6z M458.5,283.6c-0.1,0.2-0.2,0.3-0.4,0.4
			c-0.2,0.1-0.3,0.2-0.5,0.2c-0.2,0-0.4,0-0.5-0.1c-0.1-0.1-0.3-0.2-0.3-0.4c-0.1-0.2-0.1-0.3-0.1-0.5c0-0.2,0-0.4,0.1-0.6
			c0.1-0.2,0.2-0.3,0.4-0.4c0.2-0.1,0.3-0.1,0.5-0.1c0.2,0,0.4,0,0.5,0.1c0.1,0.1,0.2,0.2,0.3,0.4c0.1,0.2,0.1,0.3,0.1,0.5
			C458.6,283.2,458.5,283.4,458.5,283.6z M465.4,281.6c-0.1-0.1-0.2-0.2-0.4-0.3c-0.2-0.1-0.4-0.1-0.6-0.1c-0.1,0-0.2,0-0.3,0
			c-0.1,0-0.2,0.1-0.3,0.1c-0.1,0-0.2,0.1-0.2,0.1c-0.1,0.1-0.1,0.1-0.2,0.2c0,0.1-0.1,0.1-0.1,0.2c0-0.1-0.1-0.2-0.1-0.3
			c0-0.1-0.1-0.1-0.1-0.2c-0.1,0-0.1-0.1-0.2-0.1c-0.1,0-0.2-0.1-0.3-0.1c-0.1,0-0.2,0-0.3,0c-0.1,0-0.3,0-0.4,0.1
			c-0.1,0-0.2,0.1-0.3,0.1c-0.1,0.1-0.2,0.1-0.2,0.2c-0.1,0.1-0.1,0.2-0.2,0.3l0-0.6c-0.2,0-0.7,0-0.9,0c0,0.4-0.1,3.2-0.2,3.6
			c0.2,0,0.8,0,1,0c0-0.3,0-0.7,0-1.2c0-0.5,0.1-0.9,0.1-1c0.1-0.2,0.1-0.3,0.3-0.4c0.1-0.1,0.3-0.2,0.4-0.2c0.1,0,0.2,0,0.2,0
			c0.1,0,0.1,0.1,0.2,0.1c0.1,0.1,0.1,0.1,0.1,0.2c0,0.1,0,0.2,0,0.3c0,0.2,0,0.6,0,1.1c0,0.6-0.1,0.9-0.1,1.1c0.2,0,0.8,0,1,0l0-1
			c0-0.3,0-0.6,0-0.8c0-0.2,0-0.4,0.1-0.5c0-0.1,0.1-0.2,0.2-0.3c0.1-0.1,0.2-0.2,0.2-0.2c0.1,0,0.2-0.1,0.3-0.1
			c0.1,0,0.2,0,0.3,0.1c0.1,0,0.1,0.1,0.2,0.2c0.1,0.1,0.1,0.2,0.1,0.4c0,0.1,0,0.3,0,0.5l0,0.8c0,0.3,0,0.6-0.1,0.9
			c0.2,0,0.8,0,1,0c0-0.3,0-0.6,0-1.1c0-0.5,0-0.8,0.1-1.1c0-0.2,0-0.4,0-0.5C465.5,281.9,465.5,281.7,465.4,281.6z"/>
	</g>
</g>
<g id="阿里妈妈_拷贝_4_">
	<g>
		<path style="fill-rule:evenodd;clip-rule:evenodd;fill:#FF6600;" d="M426.3,270.1c1.5,0,3,0,4.5,0c0,2.2,0,4.5,0,6.6
			c0,0.1-0.2,0.3-0.3,0.3c-0.2,0-0.3,0-0.6,0v1.1c0.3,0,0.6,0,1,0c0.9,0,1.4-0.4,1.4-1.1c0-1.7,0-5.1,0-6.8h0.5v-1h-6.4V270.1z
			 M449.1,274.8c-0.4,0-1,0.4-1,1c1.3,0,3.4,0,4.8,0c0,0.3,0,0.5,0,0.9c0.5,0,0.3,0,0.8,0c0.3,0,0.7-0.2,0.7-0.7c0-1.1,0-2,0-3.2
			c-0.2,0-0.4,0-0.6,0c0-0.9,0-2.6,0-3.3c0-0.3-0.3-0.6-0.6-0.6h-4.7v1h3.6c0,0.9,0,1.9,0,2.8c-0.9,0-1,0-1.7,0
			c-0.1,0-0.2-0.1-0.2-0.2c0-0.5,0-1.2,0-1.8c0-0.1-0.1-0.3-0.4-0.3h-1.1v2.5c0,0.5,0.4,0.9,0.9,0.9c0,0,1.8,0,3.4,0v0.9H449.1z
			 M430.1,275.1c0-1.2,0-2.8,0-4.4h-3.7v5.6c1.1,0,2.5,0,2.5,0C429.8,276.3,430.1,275.8,430.1,275.1z M428.5,275.3
			c-0.3,0-0.6,0-0.9,0v-3.5c0.4,0,0.9,0,1.3,0c0,1.1,0,2.3,0,3.2C428.8,275.2,428.7,275.3,428.5,275.3z M422.1,269.3
			c0,2,0,4.7,0,8.7h1.4c0-2.5,0-5.3,0-8c0.3,0,0.7,0,1,0c0,1.5,0,2.9,0,4.3c0,0.6-0.5,0.8-0.5,0.8v1.1c1,0,1.8-1,1.8-1.9
			c0-1.6,0-3.7,0-5.4c-1.2,0-2.2,0-3.4,0C422.1,269,422.1,269.3,422.1,269.3z M465,272.9c0-0.9,0-2.6,0-3.3c0-0.3-0.3-0.6-0.6-0.6
			h-4.7v1c1.2,0,2.4,0,3.6,0v2.8c-0.9,0-1,0-1.7,0c-0.1,0-0.2-0.1-0.2-0.2c0-0.5,0-1.2,0-1.8c0-0.1-0.1-0.3-0.4-0.3
			c-0.3,0-0.7,0-1.1,0v2.5c0,0.5,0.4,0.9,0.9,0.9c0,0,1.8,0,3.4,0v0.9h-3.7c-0.4,0-1.1,0.4-1.1,1c1.3,0,3.3,0,4.7,0v1
			c0,0.2-0.1,0.2-0.3,0.2h-0.5c0,0.5,0,0.7,0,1h0.8c0.3,0,0.2,0,0.5,0c0.7,0,1-0.5,1-0.9c0-1.3,0-3,0-4.3
			C465.4,272.9,465.2,272.9,465,272.9z M458.4,276.3c0.5-0.6,0.8-1.2,0.8-2.4c0-1.3,0-2.6,0-4c0-0.1-0.1-0.3-0.3-0.3
			c-0.5,0-1.2,0-1.8,0V269h-1.4c0,0.2,0,0.4,0,0.6c-0.1,0-0.3,0-0.5,0v1h0.5v3.2c0,1.2,0.4,1.9,0.9,2.4c-0.6,0.4-1.2,0.7-2.1,0.7
			c-0.1,0-0.2,0-0.4,0c-1.3,0-2.9,0-4.2,0c-1.3,0-2.5-0.2-3-0.8c0.4-0.6,0.7-1.1,0.8-2.3c0-1.2,0-2.3,0-3.9c0-0.2-0.2-0.3-0.3-0.3
			c-0.5,0-1.1,0-1.8,0V269c-0.6,0-0.8,0-1.3,0v0.6c-0.2,0-0.3,0-0.5,0v1c0.2,0,0.3,0,0.5,0c0,1.1,0,2.2,0,3.2c0.1,1.2,0.5,1.6,1,2.4
			c-0.7,0.5-1.5,0.7-2.5,0.8c-1.2,0-2.2,0-3.7,0c0-0.3,0-0.6,0-0.8h3.7v-1.1h-3.7c0-0.3,0-0.5,0-0.8c1.1,0,2.5,0,2.8,0
			c0,0,0.9,0,0.9-1c0-1,0-2.9,0-4.3c-2.9,0-5.9,0-8.9,0c-0.1,0-0.3,0.2-0.3,0.3c0,0.2,0,3.5,0,5c1.2,0,2.5,0,3.7,0v0.8h-3.7
			c0,0.3,0,0.7,0,1.1h3.7c0,0.3,0,0.5,0,0.8h-4.4c0,0.3,0,0.7,0,1c3.3,0,7.3,0,10.5,0c0.9,0,1.9-0.4,2.7-0.9c1,0.7,2,0.9,3.8,0.9
			c0.5,0,1.1,0,1.8,0c0.9,0,1.7,0,2.5,0c1.5,0,2.4-0.3,3.3-0.8c0.8,0.5,1.6,0.8,2.9,0.8v0h2v-1h-2
			C459.7,276.9,459,276.8,458.4,276.3z M437.4,273.3h-2.3v-1.1h2.3V273.3z M437.4,271.1h-2.3v-1.1c0.8,0,1.5,0,2.3,0V271.1z
			 M439.2,270.1h2.3v1.1h-2.3V270.1z M439.2,272.2c0.8,0,1.5,0,2.3,0c0,0.4,0,0.8,0,1.1h-2.3C439.1,273,439.1,272.6,439.2,272.2z
			 M446.6,273.9c0,0.7-0.2,0.9-0.3,1.4c-0.2-0.4-0.4-0.6-0.5-1.4c0-0.9,0-2.2,0-3.2h0.8V273.9z M457.9,273.9c0,0.7-0.2,1-0.4,1.4
			c-0.2-0.4-0.4-0.7-0.4-1.4c0-1,0-2.2,0-3.2h0.8C457.9,271.7,457.9,272.9,457.9,273.9z"/>
	</g>
</g>
<g id="矩形_5_拷贝__x2B__v_xA0_剪贴路径_48_">
	<rect x="7.6" y="4.7" style="fill:none;" width="69.3" height="297"/>
</g>
<g id="矩形_5_拷贝__x2B__v_xA0_剪贴路径_47_">
	<rect x="7" y="4.7" style="fill:none;" width="69.3" height="297"/>
</g>
<g id="矩形_5_拷贝__x2B__v_xA0_剪贴路径_46_">
	<rect x="7.6" y="4.7" style="fill:none;" width="69.3" height="297"/>
</g>
<g id="矩形_5_拷贝__x2B__v_xA0_剪贴路径_45_">
	<rect x="7" y="4.7" style="fill:none;" width="69.3" height="297"/>
</g>
<g id="矩形_5_拷贝__x2B__v_xA0_剪贴路径_44_">
	<rect x="7.6" y="4.7" style="fill:none;" width="69.3" height="297"/>
</g>
<g id="矩形_5_拷贝__x2B__v_xA0_剪贴路径_43_">
	<rect x="7" y="4.7" style="fill:none;" width="69.3" height="297"/>
</g>
<g id="矩形_5_拷贝__x2B__v_xA0_剪贴路径_42_">
	<rect x="7.6" y="4.7" style="fill:none;" width="69.3" height="297"/>
</g>
<g id="矩形_5_拷贝__x2B__v_xA0_剪贴路径_41_">
	<rect x="7" y="4.7" style="fill:none;" width="69.3" height="297"/>
</g>
<g id="矩形_5_拷贝__x2B__v_xA0_剪贴路径_40_">
	<rect x="7.6" y="4.7" style="fill:none;" width="69.3" height="297"/>
</g>
<g id="矩形_5_拷贝__x2B__v_xA0_剪贴路径_39_">
	<rect x="7" y="4.7" style="fill:none;" width="69.3" height="297"/>
</g>
<g id="矩形_5_拷贝__x2B__v_xA0_剪贴路径_38_">
	<rect x="7.6" y="4.7" style="fill:none;" width="69.3" height="297"/>
</g>
<g id="矩形_5_拷贝__x2B__v_xA0_剪贴路径_37_">
	<rect x="7" y="4.7" style="fill:none;" width="69.3" height="297"/>
</g>
<g id="矩形_5_拷贝__x2B__v_xA0_剪贴路径_36_">
	<rect x="7.6" y="4.7" style="fill:none;" width="69.3" height="297"/>
</g>
<g id="矩形_5_拷贝__x2B__v_xA0_剪贴路径_35_">
	<rect x="7" y="4.7" style="fill:none;" width="69.3" height="297"/>
</g>
<g id="矩形_5_拷贝__x2B__v_xA0_剪贴路径_34_">
	<rect x="7.6" y="4.7" style="fill:none;" width="69.3" height="297"/>
</g>
<g id="矩形_5_拷贝__x2B__v_xA0_剪贴路径_33_">
	<rect x="7" y="4.7" style="fill:none;" width="69.3" height="297"/>
</g>
<g id="矩形_5_拷贝__x2B__v_xA0_剪贴路径_32_">
	<rect x="7.9" y="4.3" style="fill:none;" width="69.3" height="297"/>
</g>
<g id="矩形_5_拷贝__x2B__v_xA0_剪贴路径_31_">
	<rect x="7.3" y="4.3" style="fill:none;" width="69.3" height="297"/>
</g>
<g id="矩形_5_拷贝__x2B__v_xA0_剪贴路径_30_">
	<rect x="7.9" y="4.3" style="fill:none;" width="69.3" height="297"/>
</g>
<g id="矩形_5_拷贝__x2B__v_xA0_剪贴路径_29_">
	<rect x="7.3" y="4.3" style="fill:none;" width="69.3" height="297"/>
</g>
<g id="矩形_5_拷贝__x2B__v_xA0_剪贴路径_28_">
	<rect x="7.9" y="4.3" style="fill:none;" width="69.3" height="297"/>
</g>
<g id="矩形_5_拷贝__x2B__v_xA0_剪贴路径_27_">
	<rect x="7.3" y="4.3" style="fill:none;" width="69.3" height="297"/>
</g>
<g id="矩形_5_拷贝__x2B__v_xA0_剪贴路径_26_">
	<rect x="7.9" y="4.3" style="fill:none;" width="69.3" height="297"/>
</g>
<g id="矩形_5_拷贝__x2B__v_xA0_剪贴路径_25_">
	<rect x="7.3" y="4.3" style="fill:none;" width="69.3" height="297"/>
</g>
<g id="矩形_5_拷贝__x2B__v_xA0_剪贴路径_24_">
	<rect x="7.9" y="4.3" style="fill:none;" width="69.3" height="297"/>
</g>
<g id="矩形_5_拷贝__x2B__v_xA0_剪贴路径_23_">
	<rect x="7.3" y="4.3" style="fill:none;" width="69.3" height="297"/>
</g>
<g id="矩形_5_拷贝__x2B__v_xA0_剪贴路径_22_">
	<rect x="7.9" y="4.3" style="fill:none;" width="69.3" height="297"/>
</g>
<g id="矩形_5_拷贝__x2B__v_xA0_剪贴路径_21_">
	<rect x="7.3" y="4.3" style="fill:none;" width="69.3" height="297"/>
</g>
<g id="矩形_5_拷贝__x2B__v_xA0_剪贴路径_20_">
	<rect x="7.9" y="4.3" style="fill:none;" width="69.3" height="297"/>
</g>
<rect x="7.6" y="4.3" style="fill:#FF6D00;" width="61.8" height="297"/>
<g id="矩形_5_拷贝__x2B__v_xA0_剪贴路径_19_">
	<rect x="7.3" y="4.3" style="fill:none;" width="69.3" height="297"/>
</g>
<g>
	<defs>
		<rect id="SVGID_1_" x="7.6" y="4.4" width="61.8" height="296.9"/>
	</defs>
	<clipPath id="SVGID_2_">
		<use xlink:href="#SVGID_1_"  style="overflow:visible;"/>
	</clipPath>
	<g style="clip-path:url(#SVGID_2_);">
		<defs>
			<polygon id="SVGID_3_" points="98.4,5.3 -26.6,4.3 -26.6,308.5 98.4,308.7 			"/>
		</defs>
		<clipPath id="SVGID_4_">
			<use xlink:href="#SVGID_3_"  style="overflow:visible;"/>
		</clipPath>
		<path style="clip-path:url(#SVGID_4_);fill:#F95E00;" d="M154.2,303.4c-0.6,0.9-1.3,1.7-2.2,2.4c0.3,0.6,0.5,1.2,0.7,1.8
			C153.3,306.3,153.8,304.9,154.2,303.4 M-9.5,278.6c-9.1,5.3-13.3,17.4-11.6,29.4c1.4,9.9,3.9,17.3,14.5,26.7c0,0,8.3,6.6,20.9,6.6
			c3.4,0,7.2-0.5,11.2-1.8c-0.4-0.2-0.7-0.5-1.1-0.8c-7.5-4.7-15.1-10.9-21.3-18.8C3.1,319.9-13.6,299.7-9.5,278.6 M89,224.9
			c-22.3,0-36.7,8-45.4,18.2c-1.2,1.4-2.3,2.7-3.4,4.1c6.6,1.4,12.8,4.3,18.3,7.8c6.5-2.8,13.1-4.8,19.7-5.7
			c4.1-0.6,8.2-0.9,12.4-0.9c29.9,0,60.6,15.2,65.4,39.7c-0.1-3.1-0.3-6.5-0.9-10.1c-4.6-31.5-34.9-52.9-65.8-53
			C89.2,224.9,89.1,224.9,89,224.9"/>
		<path style="clip-path:url(#SVGID_4_);fill:#F04400;" d="M90.6,248.4c-4.2,0-8.3,0.3-12.4,0.9c-6.5,0.9-13.2,2.9-19.7,5.7
			c12.1,7.5,21.2,17.8,25.3,21.6c11.7,11.2,20.3,15.1,31.9,15.1c1.7,0,3.5-0.1,5.3-0.2c1.3-0.1,2.6-0.1,3.9-0.1
			c15.6,0,23.8,7.1,27.1,14.4c0.8-0.7,1.5-1.5,2.2-2.4c1.2-4.4,1.9-9.5,1.8-15.3C151.2,263.7,120.5,248.4,90.6,248.4"/>
		<path style="clip-path:url(#SVGID_4_);fill:#E0E0E0;" d="M25.6,339.5C25.6,339.5,25.6,339.5,25.6,339.5c1.9,1.4,4,2.5,6.2,3.5
			C29.8,342,27.7,340.8,25.6,339.5"/>
		<path style="clip-path:url(#SVGID_4_);fill:#E0E0E0;" d="M24.4,338.8c0.4,0.3,0.7,0.5,1.1,0.8c0,0,0.1,0,0.1,0
			C25.2,339.3,24.8,339,24.4,338.8"/>
		<path style="clip-path:url(#SVGID_4_);fill:#FC6800;" d="M31.3,246.2c-7.7,0-15.8,2.3-24.1,8.1C-3.1,261.8-8,270.2-9.5,278.6
			c3.1-1.8,6.7-2.8,10.9-2.8l0.1,0h0.2c21.6,0,25.8-12.4,38.6-28.6C37.3,246.6,34.4,246.2,31.3,246.2"/>
		<path style="clip-path:url(#SVGID_4_);fill:#F65A00;" d="M40.2,247.2c-12.8,16.2-17,28.6-38.6,28.6H1.4l-0.1,0
			c-4.2,0-7.8,1-10.9,2.8c-4,21.1,12.7,41.3,12.7,41.3c6.2,8,13.8,14.1,21.3,18.8c-7.4-5.4-12.7-13.3-14-22.2
			c-3.4-23.3,20.8-49.7,48.1-61.6C53,251.6,46.8,248.7,40.2,247.2"/>
		<path style="clip-path:url(#SVGID_4_);fill:#F04400;" d="M152.8,307.6c-3.6,8.9-9.8,14.6-16.6,18.6c-6.6,3.9-15.3,5-23.2,5
			c-11.3,0-21.1-2.3-21.1-2.3s-3.4-0.8-8.5-1.5c-9.7,6.9-21.7,15.9-28.3,17.5c-2.9,0.7-5.9,1.1-8.8,1.1c-5,0-10-1.1-14.5-3
			c13.6,7,25.2,9.5,25.2,9.5c9.6,1.7,18.6,2.5,26.9,2.5c24,0,42.1-6.4,53.4-14.5c11.6-8.3,16.7-19,16.6-26.8
			C153.9,311.8,153.5,309.7,152.8,307.6"/>
		<path style="clip-path:url(#SVGID_4_);fill:#F04400;" d="M152.1,305.8c-9.6,8.2-33.1,4.6-56.2,13.7c-2.7,1.1-7.2,4.2-12.4,7.9
			c5.1,0.8,8.5,1.5,8.5,1.5s9.8,2.3,21.1,2.3c7.9,0,16.6-1.1,23.2-5c6.8-4,13-9.8,16.6-18.6C152.6,307,152.3,306.4,152.1,305.8"/>
		<path style="clip-path:url(#SVGID_4_);fill:#F04400;" d="M64.8,326c-9.3,0-18.9,1.4-24.9,5.9c-5,3.8-9.8,6.2-14.3,7.7
			c2.1,1.3,4.2,2.4,6.2,3.5c4.5,1.9,9.4,3,14.5,3c2.9,0,5.9-0.3,8.8-1.1c6.6-1.7,18.6-10.6,28.3-17.5C78.4,326.7,71.6,326,64.8,326"
			/>
		<path style="clip-path:url(#SVGID_4_);fill:#F04400;" d="M58.6,255c-27.3,11.9-51.5,38.3-48.1,61.6c1.3,8.9,6.6,16.8,14,22.2
			c0.4,0.2,0.8,0.5,1.2,0.7c4.5-1.4,9.3-3.9,14.3-7.7c5.9-4.5,15.5-5.9,24.9-5.9c6.9,0,13.6,0.7,18.6,1.5c5.2-3.7,9.8-6.8,12.4-7.9
			c23.1-9.1,46.6-5.6,56.2-13.7c-3.3-7.3-11.5-14.4-27.1-14.4c-1.2,0-2.5,0-3.9,0.1c-1.9,0.1-3.6,0.2-5.3,0.2
			c-11.7,0-20.2-3.9-31.9-15.1C79.8,272.8,70.6,262.6,58.6,255"/>
	</g>
	<g id="矩形_10_24_" style="clip-path:url(#SVGID_2_);">
		<g>
			<path style="fill-rule:evenodd;clip-rule:evenodd;fill:#FB5701;" d="M75.6,9.4C75,3.6,70-0.6,64.4,0.1c-4.8,0.5-8.5,4.4-9.1,9.1
				c-0.1,0.8-0.1,1.6,0,2.5c0.6,5.8,5.6,9.9,11.3,9.3c4.8-0.5,8.5-4.4,9.1-9.1C75.7,11,75.7,10.2,75.6,9.4z M52.2,21.4
				c-2.5-0.2-4.7,1.6-5,4c0,0.1,0,0.2,0,0.2c-0.2,2.5,1.7,4.7,4.3,4.9c2.5,0.2,4.7-1.6,5-4c0-0.1,0-0.2,0-0.2
				C56.7,23.8,54.8,21.6,52.2,21.4z"/>
		</g>
	</g>
</g>
<g id="矩形_5_拷贝__x2B__v_xA0_剪贴路径_18_">
	<rect x="7.9" y="4.3" style="fill:none;" width="69.3" height="297"/>
</g>
<g id="矩形_5_拷贝__x2B__v_xA0_剪贴路径_17_">
	<rect x="7.3" y="4.3" style="fill:none;" width="69.3" height="297"/>
</g>
<g>
	<defs>
		<rect id="SVGID_5_" x="7.7" y="28.1" width="61.8" height="263.2"/>
	</defs>
	<clipPath id="SVGID_6_">
		<use xlink:href="#SVGID_5_"  style="overflow:visible;"/>
	</clipPath>
	<ellipse style="opacity:0.3;clip-path:url(#SVGID_6_);fill:#60391F;" cx="36.5" cy="270.6" rx="56.7" ry="8.1"/>
	<g id="形状_14_24_" style="clip-path:url(#SVGID_6_);">
		<g>
			<path style="fill-rule:evenodd;clip-rule:evenodd;fill:#CC7123;" d="M110.9,182.4c-0.6-0.4-1.8-1.1-2.3-1.6
				c-0.7-0.7-1.1,0-0.4,0.6c0.9,0.7,2.7,1.6,4.2,1.9c0.5,0.1,0.8,0,0.8,0S112.2,183.2,110.9,182.4z"/>
		</g>
	</g>
	<path style="clip-path:url(#SVGID_6_);fill-rule:evenodd;clip-rule:evenodd;fill:#DD7528;" d="M28.1,308.7
		c-7.1,1.9-6.3,5.2-5.2,7.9c0.1,0.3,0.3,0.6,0.5,1c0.4,0.1,0.9,0.1,1.3,0.2c-2.5-5.7,1.1-7.4,4.2-8.6
		C30.2,308.6,29,308.4,28.1,308.7z"/>
	<path style="clip-path:url(#SVGID_6_);fill-rule:evenodd;clip-rule:evenodd;fill:#DD7528;" d="M28.4,308.4
		c-6.1,1.4-5.2,6.5-4.2,8.9c0.1,0.3,0.2,0.5,0.3,0.8c0.4,0,0.8,0,1.2,0c-1.7-5.2,0.5-7.5,2.3-8.7C29,308.8,30.6,307.9,28.4,308.4z"
		/>
	<path style="clip-path:url(#SVGID_6_);fill-rule:evenodd;clip-rule:evenodd;fill:#DD7528;" d="M162.3,317.4
		c0.1-0.2,0.2-0.5,0.3-0.7c0.8-2.6-0.1-7.2-5.1-8.5c-2.7-0.7-1.6,0.6-0.3,1c3,1,4.5,4.5,3.2,8.5C161,317.6,161.6,317.5,162.3,317.4z
		"/>
	<path style="clip-path:url(#SVGID_6_);fill-rule:evenodd;clip-rule:evenodd;fill:#DD7528;" d="M144.6,317.4
		c1.4-3.2,0.2-7.9-3.3-9.2c-1.4-0.3-0.1,0.9,0.9,1.9c1.3,1.4,2,4.7,0.8,7.2c-0.2,0.4-0.3,0.6-0.4,0.8c0.5,0,1,0,1.5,0
		C144.3,317.9,144.4,317.7,144.6,317.4z"/>
	<g id="形状_13_21_" style="clip-path:url(#SVGID_6_);">
		<g>
			<path style="fill:#FF9B48;" d="M28.5,142.3c0,0-10,4.3-20,14.1c-12.9,11.7-20,18.4-26.1,20.2c-1,0.5-4.5,1.7-6.8,2.3
				c-3,0.8-6.2,0.8-7.2,1.9c-0.5,0.6-0.2,1.5,0.3,1.9c0.5,0.4,2.1,0.4,2.1,0.4s-4.4,1.3-2.8,4c1.5,2.5,11.5-4.6,11.9-1.5
				c0.2,1.7-5.3,2.9-2.7,5c1.2,0.9,5.2-1.4,8-3.9c2-1.8,4-4.9,10.2-9.3c5.1-3.5,14.6-9.2,24.7-13.4
				C42.7,154.6,28.5,142.3,28.5,142.3z"/>
		</g>
	</g>
	<g id="形状_13_17_" style="clip-path:url(#SVGID_6_);">
		<g>
			<path style="fill-rule:evenodd;clip-rule:evenodd;fill:#FF9B48;" d="M106.4,183c0,0,1.6,0,2.1-0.4c0.5-0.4,0.8-1.3,0.3-1.9
				c-1-1.1-4.1-1.2-7.2-1.9c-2.3-0.6-5.8-1.7-6.8-2.3c-6-1.8-13.1-8.6-26.1-20.2c-9.9-9.8-20.7-14.2-20.7-14.2s-13.5,12.5,9.1,21.9
				c10.1,4.2,19.6,9.9,24.7,13.4c6.3,4.3,8.2,7.5,10.2,9.3c2.8,2.5,6.8,4.8,8,3.9c2.6-2.1-2.9-3.3-2.7-5c0.4-3.1,10.4,3.9,11.9,1.5
				C110.9,184.3,106.4,183,106.4,183z"/>
		</g>
	</g>
	
		<radialGradient id="SVGID_7_" cx="68.7046" cy="-364.3626" r="98.9" gradientTransform="matrix(0.473 0 0 0.4397 7.8799 325.0194)" gradientUnits="userSpaceOnUse">
		<stop  offset="0" style="stop-color:#FFC07D"/>
		<stop  offset="0.5713" style="stop-color:#FEB162"/>
		<stop  offset="1" style="stop-color:#FEA852"/>
	</radialGradient>
	<path style="clip-path:url(#SVGID_6_);fill-rule:evenodd;clip-rule:evenodd;fill:url(#SVGID_7_);" d="M109.1,272.6
		c-6.7,2.4-20.7,1.5-28.8,1.1c-8.4-0.4-26.2-2.9-29.5-3.8c-7-1.9-3-6.3-2.4-9.4c0.7-3.2,1-6.5,0.9-10c-0.1-1.2-0.1-3.4-2.2-3.2
		c-2.2,0.7-4.3,1.1-6.3,1.2c0,0,0,0,0,0c-0.2,0-0.3,0-0.5,0c-0.1,0-0.2,0-0.3,0c-0.1,0-0.2,0-0.3,0c-0.1,0-0.3,0-0.5,0
		c-0.1,0-0.1,0-0.2,0c-0.1,0-0.3,0-0.5,0c-0.1,0-0.2,0-0.2,0c-0.1,0-0.2,0-0.4,0c-0.1,0-0.2,0-0.4,0c-0.1,0-0.2,0-0.2,0
		c-0.2,0-0.3,0-0.5,0c-0.1,0-0.1,0-0.2,0c-0.2,0-0.3,0-0.5,0c-0.1,0-0.2,0-0.3,0c-0.1,0-0.2,0-0.3,0c-0.2,0-0.3,0-0.5,0c0,0,0,0,0,0
		c-1.9-0.2-4-0.6-6.3-1.2c-2.1-0.1-2.1,2.1-2.2,3.2c-0.2,3.5,0.2,6.7,0.9,10c0.7,3.2,4.7,7.5-2.4,9.4c-3.3,0.9-22.8,3.3-31.2,3.9
		c-9,0.6-23.8,0.7-28.1-1.1c-2.4-1-2.5-7,3.9-10.3c8-4.1,41.2-2.3,43.3-2.4c4.6-0.3,3.7-1.8,3.7-4.1c0.1-4.3-3.5-6.6-6.5-8.5
		c-3-1.9-18.3-8.6-18.3-23.4c0-7.6,2.1-17.9,11.9-32.5C28,155.9,28.9,136,28.9,136l1.9-0.1c0.1-0.4,0.1-0.6,0.1-0.6l7.1,0.3l7.1-0.3
		c0,0,0,0.2,0.1,0.6l1.9,0.1c0,0,0.9,19.9,24.8,55.5c9.8,14.6,11.9,24.9,11.9,32.5c0,14.8-15.2,21.5-18.3,23.4
		c-3,1.9-6.6,4.1-6.5,8.5c0,2.3-0.7,4.4,3.9,4.5c2.2,0,35.2-2,43.2,2C112.6,265.6,111.5,271.7,109.1,272.6z"/>
	<path style="clip-path:url(#SVGID_6_);fill-rule:evenodd;clip-rule:evenodd;fill:#DD7528;" d="M-212.5,264.7
		c-5.9,1.3-5,6.3-4.1,8.7c0.1,0.3,0.2,0.5,0.3,0.7c0.4,0,0.8,0,1.2,0c-1.7-5.1,0.5-7.3,2.2-8.5C-212,265.1-210.4,264.2-212.5,264.7z
		"/>
	<path style="clip-path:url(#SVGID_6_);fill-rule:evenodd;clip-rule:evenodd;fill:#DD7528;" d="M-90.3,273.5
		c0.1-0.2,0.2-0.4,0.3-0.7c0.8-2.5-0.1-7-4.9-8.2c-2.7-0.7-1.5,0.6-0.3,0.9c2.9,1,4.4,4.4,3.1,8.3
		C-91.5,273.7-90.9,273.6-90.3,273.5z"/>
	<path style="clip-path:url(#SVGID_6_);fill-rule:evenodd;clip-rule:evenodd;fill:#DD7528;" d="M-99.4,273.5c1.4-3.1,0.2-7.7-3.2-9
		c-1.3-0.3-0.1,0.8,0.9,1.8c1.3,1.3,2,4.6,0.8,7c-0.2,0.3-0.3,0.6-0.4,0.8c0.5,0,1,0,1.4,0C-99.6,274-99.5,273.8-99.4,273.5z"/>
	<g id="形状_12_9_" style="clip-path:url(#SVGID_6_);">
		<g>
			
				<linearGradient id="SVGID_8_" gradientUnits="userSpaceOnUse" x1="324.966" y1="303.2685" x2="324.2386" y2="237.8013" gradientTransform="matrix(1 0 0 1 -286.7143 -97.5448)">
				<stop  offset="0" style="stop-color:#FFC28A"/>
				<stop  offset="0.7938" style="stop-color:#FFCD9F"/>
				<stop  offset="1" style="stop-color:#FFD0A5"/>
			</linearGradient>
			<path style="fill-rule:evenodd;clip-rule:evenodd;fill:url(#SVGID_8_);" d="M49.3,162.7c-5-8.1-17.3-7.3-22.2,0.6
				c-5.9,9.6-13,35.6-8,50.4c4.2,12.2,33.2,13,37.7,1.3C62.9,199.3,54.6,171.3,49.3,162.7z"/>
		</g>
	</g>
	<path style="opacity:0.6;clip-path:url(#SVGID_6_);fill-rule:evenodd;clip-rule:evenodd;fill:#DD7528;" d="M4.1,200.6
		c0,0,13.4,3.3,35,3.3c20.4,0,24.1-1.2,34.8-3.6C74.3,200.6,41.1,258.2,4.1,200.6z"/>
	<g id="形状_11_拷贝_2_9_" style="clip-path:url(#SVGID_6_);">
		<g>
			<path style="fill-rule:evenodd;clip-rule:evenodd;fill:#FFBF80;" d="M73.1,200.6c-0.3,0.2-0.6,0.3-0.9,0.4
				c-9.9,4.4-21.6,5.8-30.8,6.1c-9,0.1-22.4-0.7-33.4-5.1c-1-0.4-2.3-0.8-3.3-1.3c-2.5-1.2-3,1.9-3,3.8c0.1,7.9,1.9,32.9,24.6,41.4
				c0.9,0.6,3.7,2,9.3,2.3c1.8,0.3,3.9,0.2,6,0c0.2,0,0.4,0,0.7,0c3.4-0.4,6.5-1.2,9.2-2.4c0.2-0.1,0.3-0.1,0.3-0.1v0
				c17.2-7.6,22.1-29.6,23.5-40.3c0.1-0.8,0.2-1.5,0.2-2.2C75.9,200.2,74,200.1,73.1,200.6z"/>
		</g>
	</g>
	<path style="opacity:0.6;clip-path:url(#SVGID_6_);fill-rule:evenodd;clip-rule:evenodd;fill:#DD7528;" d="M47.1,136
		c-2.7,1.6-6.3,3.7-8.3,4c-3.1,0.5-6.5-0.1-10-4c0,0.3-0.1,1.6-0.6,4c1,3.2,3.1,6.6,7.7,7.1c5.4,0.6,9.4-3.7,11.8-7.5
		C47.3,137.3,47.2,136,47.1,136L47.1,136z"/>
	<g id="形状_9_9_" style="clip-path:url(#SVGID_6_);">
		<g>
			<path style="fill-rule:evenodd;clip-rule:evenodd;fill:#FFC07D;" d="M28.5,75.7C17.1,50.6-0.3,41-0.3,41s-4.5-2.8-5.1,0.3
				c-6.7,39.2,24.4,48,24.4,48S39.8,100.7,28.5,75.7z"/>
		</g>
	</g>
	<g id="形状_10_9_" style="clip-path:url(#SVGID_6_);">
		<g>
			<path style="fill-rule:evenodd;clip-rule:evenodd;fill:#FF9B48;" d="M24.9,81.5C20.6,62.2,4.6,55.6,4.6,55.6s-3.4-2.4-3.4,0.9
				c1.3,24.7,21.9,28.6,21.9,28.6S25.9,85.9,24.9,81.5z"/>
		</g>
	</g>
	<g id="形状_9_拷贝_9_" style="clip-path:url(#SVGID_6_);">
		<g>
			<path style="fill:#FFC07D;" d="M83.1,41.2C82.5,38.1,78,41,78,41s-17.4,9.6-28.8,34.7c-11.4,25,9.5,13.5,9.5,13.5
				S89.8,80.4,83.1,41.2z"/>
		</g>
	</g>
	<g id="形状_10_拷贝_11_" style="clip-path:url(#SVGID_6_);">
		<g>
			<path style="fill:#FF9B48;" d="M73.1,55.5c0,0-16.1,6.6-20.4,25.9c-1,4.5,1.8,3.7,1.8,3.7s20.6-3.9,22-28.6
				C76.5,53.2,73.1,55.5,73.1,55.5z"/>
		</g>
	</g>
	<g id="脸_21_" style="clip-path:url(#SVGID_6_);">
		<g>
			
				<radialGradient id="SVGID_9_" cx="671.704" cy="-213.1081" r="63.8754" gradientTransform="matrix(0.473 6.221170e-03 -4.328665e-03 0.3291 -279.7294 204.7685)" gradientUnits="userSpaceOnUse">
				<stop  offset="0" style="stop-color:#FECD97"/>
				<stop  offset="1" style="stop-color:#FFC07A"/>
			</radialGradient>
			<path style="fill:url(#SVGID_9_);" d="M61.9,98c-1.1-3.6-2.2-8.7-3.7-13c-3.4-9.7-11.1-12.8-19.4-12.7C30.5,72.4,22.6,76,19.4,85
				c-1.5,4.3-2.4,9.4-3.5,13c-1.1,3.6-3.6,18.8,2.6,28.3c0,0.1,2.7,3.3,7.6,8.3c4.1,4.1,6.4,7.4,11.6,7.7c0,0,0.1,0,0.1,0
				c0,0,0.1,0,0.1,0c0.4,0,0.9,0,1.3,0c0.1,0,0.2,0,0.2,0c6.5-0.4,8.6-4.5,12.6-8.1c5.2-4.7,7.2-7.9,7.2-7.9
				C65.5,116.8,63,101.6,61.9,98z"/>
		</g>
	</g>
	<path style="clip-path:url(#SVGID_6_);fill-rule:evenodd;clip-rule:evenodd;fill:#66361F;" d="M38.6,101c-0.1,0.1,9-2.6,12.9-12.5
		c0-0.2,4.1,7.4,10.7,10.4c-0.1-0.4-0.2-0.7-0.3-1c-1-4.3-1.9-8.4-3.4-12.7c-3.4-9.7-11.4-13.2-19.7-13.1C30.5,72.4,22.6,76,19.4,85
		c-1.5,4.3-2.8,9.8-3.5,13c0,0.2-0.1,0.3-0.1,0.5c2.2-0.3,6.2-2.1,10-9.5C25.5,89,27.5,95.6,38.6,101z"/>
	<path style="clip-path:url(#SVGID_6_);fill-rule:evenodd;clip-rule:evenodd;fill:#E5432E;" d="M60.7,93.8c-0.4-1.6-0.9-3.4-1.3-5.1
		c-3.2-4.2-9.9-10.9-20.3-10.8c-12,0.1-17.8,6.5-20.8,10.6c-0.4,1.6-0.8,3.2-1.2,4.7c2.8-2.9,10.3-9.3,22-9.3
		C49.5,84,56.9,90.2,60.7,93.8z"/>
	<g id="形状_3_拷贝_9_" style="clip-path:url(#SVGID_6_);">
		<g>
			<path style="fill-rule:evenodd;clip-rule:evenodd;fill:#E5432E;" d="M60.4,46.8c-0.4-0.6-0.8-0.4-1.2-0.3
				c-14.5,6.8-19,19.6-20.3,26c-1.9-7.7-7.1-19.6-20.4-26.1c-0.5-0.3-1.2-0.4-1.4,0.5c0,0-4.7,21.5,17.1,32.5
				c-4.5,3.5-9.3,7.9,4.6,2.1c15.1,6.4,8.9,1.2,4.5-2C65.2,68.4,60.4,46.8,60.4,46.8z"/>
		</g>
	</g>
	<g id="形状_73_9_" style="clip-path:url(#SVGID_6_);">
		<g>
			<path style="fill-rule:evenodd;clip-rule:evenodd;fill:#AA2D24;" d="M38.2,69.9c0,0-1,2.2-0.8,5c0.2,3.2,1,4.7,1,3.5
				c0-0.9,0.4-4.1,0.6-5.9C39,71.9,38.2,69.9,38.2,69.9z"/>
		</g>
	</g>
	<g id="形状_82_9_" style="clip-path:url(#SVGID_6_);">
		<g>
			<path style="fill-rule:evenodd;clip-rule:evenodd;fill:#C13021;" d="M48.1,79.7c-0.6-0.3-2.9-1.3-3.3-1.1c-2,1.3-4.2,3.5-1.2,2.7
				C45.7,80.9,48.8,80,48.1,79.7z M32.9,78.7c-0.8-0.2-3.4,0.9-3.4,0.9s1,0.5,2.2,0.9c1.2,0.3,3.9,1.3,3.7,0.6
				C35.2,80.3,34.1,79.1,32.9,78.7z"/>
		</g>
	</g>
	<path style="clip-path:url(#SVGID_6_);fill-rule:evenodd;clip-rule:evenodd;fill:#FFCE99;" d="M29.3,112.4
		c-2.5-6.1-6.3-7.4-8.9-6.9c-4.9,0.9-5.5,3.4-5.5,3.2c0-0.1-0.1-4.4,4-5.4c3.8-0.9,7.6,0.6,9.2,3.2c1.5,2.3,1.4,6,1.4,6"/>
	<path style="clip-path:url(#SVGID_6_);fill-rule:evenodd;clip-rule:evenodd;fill:#FFCE99;" d="M48.1,112.4c2.5-6.1,6.3-7.4,8.9-6.9
		c4.9,0.9,5.5,3.4,5.5,3.2c0-0.1,0.1-4.4-4-5.4c-3.8-0.9-7.6,0.6-9.2,3.2c-1.5,2.3-1.4,6-1.4,6"/>
	<g id="形状_4_21_" style="clip-path:url(#SVGID_6_);">
		<g>
			<path style="fill:#FFFFFF;" d="M23.4,105.9c-2-0.9-6.2-0.5-7.8,0.9c0,0-2.5,10.2,6.5,11.1c4.5,0.2,7-2.2,7.5-4.7
				C30,110.5,25.8,107,23.4,105.9z"/>
		</g>
	</g>
	<g id="形状_6_21_" style="clip-path:url(#SVGID_6_);">
		<g>
			<path style="fill-rule:evenodd;clip-rule:evenodd;fill:#512A15;" d="M27.8,108.3c0,0-2.3-3.1-5.3-3.9c-1.1-0.3-3.6,0.3-3.6,0.3
				s-3.6,3-0.9,8c1.6,2.6,4.1,3.8,6.3,3.5c2.7-0.3,4.3-2.2,4.5-4.4C29.1,109.8,27.8,108.3,27.8,108.3z"/>
		</g>
	</g>
	<g id="形状_48_9_" style="clip-path:url(#SVGID_6_);">
		<g>
			<path style="fill:#FFFFFF;" d="M17.2,112.3c-0.4,0.8,0,1.8,0.7,1.9c1.3,0.3,2.8-0.9,2.6-2.1C20.4,111.3,17.7,111.2,17.2,112.3z"
				/>
		</g>
	</g>
	<g id="形状_36_副本_21_" style="clip-path:url(#SVGID_6_);">
		<g>
			<path style="fill-rule:evenodd;clip-rule:evenodd;fill:#A85726;" d="M26.7,100c-3.3-1.4-6.7-0.9-6.2,0.4c0.2,0.6,1.9-0.4,4.6,0.4
				c3.7,1.2,3.5,3.2,4.4,3C31,103.4,28.6,100.8,26.7,100z"/>
		</g>
	</g>
	<g id="形状_4_17_" style="clip-path:url(#SVGID_6_);">
		<g>
			<path style="fill:#FFFFFF;" d="M62.1,106.8c-1.6-1.4-5.8-1.7-7.8-0.9c-4.8,1.8-6.6,4.6-6.1,7.3c0.4,2.6,3,4.9,7.5,4.7
				C64.6,117,62.1,106.8,62.1,106.8z"/>
		</g>
	</g>
	<g id="形状_6_17_" style="clip-path:url(#SVGID_6_);">
		<g>
			<path style="fill-rule:evenodd;clip-rule:evenodd;fill:#512A15;" d="M58.9,105.3c0,0-2-0.5-3.2-0.3c-3,0.7-5.5,2.6-5.5,2.6
				c0,0-0.9,3.3-0.4,4.7c1,2.7,1.9,3.8,4.7,3.9c2.2,0.1,4.8-0.8,5.7-3.9C61.4,108.6,58.9,105.3,58.9,105.3z"/>
		</g>
	</g>
	<g id="形状_48_副本_9_" style="clip-path:url(#SVGID_6_);">
		<g>
			<path style="fill:#FFFFFF;" d="M52.6,112.4c-0.6-1.1-3,0.2-3.1,1c-0.2,1.3,0.5,1.7,1.5,1.4C52.1,114.6,53.1,113.4,52.6,112.4z"/>
		</g>
	</g>
	<g id="形状_36_副本_17_" style="clip-path:url(#SVGID_6_);">
		<g>
			<path style="fill-rule:evenodd;clip-rule:evenodd;fill:#A85726;" d="M51.1,99.9c-1.9,0.8-4.3,3-3.3,3.7c1,0.7,1.6-1.6,4.2-2.5
				c3.2-1.1,5.6,0.1,5.8-0.7C58,99.2,54.3,98.6,51.1,99.9z"/>
		</g>
	</g>
	<g id="Shape_2_21_" style="clip-path:url(#SVGID_6_);">
		<g>
			<path style="fill-rule:evenodd;clip-rule:evenodd;fill:#9C6342;" d="M61,115.7c0.9-1.4,1-2.7,0.8-2.2c-0.6,1.2-1.4,2.6-3.2,3.4
				c-1.7,0.8-3.7,0.8-5.1,0.9c-1.2,0,2.4,0.9,5.1-0.1c0.2,0.1,0.5,0.2,0.8,0.3c0.4,0.2,1,0.6,1,0.4c-0.1-0.4-0.3-1-0.6-1.3
				c0.3-0.2,0.5-0.4,0.7-0.6c0.1,0,0.2,0,0.4,0.1c0.6,0.1,1.1,0.7,1.1,0.4C61.9,116.5,61.6,116,61,115.7z"/>
		</g>
	</g>
	<g id="形状_65_副本_21_" style="clip-path:url(#SVGID_6_);">
		<g>
			<path style="fill-rule:evenodd;clip-rule:evenodd;fill:#713D1F;" d="M65.6,105.7c-0.2,0.3-0.7,0.8-1.3,1.1
				c-0.5,0.2-1.3,0.4-2,0.2c0,0,0-0.1-0.1-0.1c-0.5-1-2.1-2.1-3.6-2.3c-2.4-0.5-4.5-0.2-6.3,0.6c-2.4,1.1-4,3.2-4.5,6.1
				c-0.2,1.2,0.1,1.9,0.4,0.9c0.9-2.6,1.7-4,4.1-5.3c1.9-1,4.2-1.7,7.5-0.1c1.1,0.6,1.8,1.7,2,2.5c0.1,0.3,0.4,1.3,0.5,0.6
				c0-0.3,0.1-0.6,0.1-1c0.2,0,0.6,0,1.2-0.2c0.5-0.2,1.3-0.8,1.6-1.5C65.8,106.4,65.8,105.1,65.6,105.7z"/>
		</g>
	</g>
	<g id="Shape_2_17_" style="clip-path:url(#SVGID_6_);">
		<g>
			<path style="fill-rule:evenodd;clip-rule:evenodd;fill:#9C6342;" d="M24,117.7c-1.4,0-3.4-0.1-5.1-0.9c-1.8-0.9-2.6-2.2-3.2-3.4
				c-0.3-0.5-0.1,0.9,0.8,2.2c-0.5,0.3-0.9,0.8-0.9,1.2c0,0.3,0.5-0.3,1.1-0.4c0.2,0,0.3,0,0.4-0.1c0.2,0.2,0.4,0.4,0.7,0.6
				c-0.3,0.3-0.6,0.9-0.6,1.3c0,0.2,0.6-0.2,1-0.4c0.3-0.2,0.6-0.3,0.8-0.3C21.6,118.6,25.3,117.7,24,117.7z"/>
		</g>
	</g>
	<g id="形状_65_副本_17_" style="clip-path:url(#SVGID_6_);">
		<g>
			<path style="fill-rule:evenodd;clip-rule:evenodd;fill:#713D1F;" d="M29.5,111.2c-0.5-2.9-2.1-5-4.5-6.1
				c-1.8-0.8-3.9-1.1-6.3-0.6c-1.4,0.3-2.7,1.2-3.2,1.9c-0.1,0.2-0.2,0.3-0.3,0.5c0,0,0,0,0,0c-0.7,0.3-1.6,0.1-2.1-0.2
				c-0.6-0.3-1.2-0.8-1.3-1.1c-0.3-0.5-0.3,0.7,0.1,1.5c0.4,0.7,1.2,1.3,1.7,1.5c0.6,0.3,1.1,0.3,1.3,0.2c0,0.4,0,0.7,0,1
				c0.1,0.7,0.4-0.1,0.5-0.3c0.4-1.2,0.8-2.3,2-2.8c3.4-1.7,5.7-0.9,7.5,0.1c2.4,1.3,3.2,2.9,4.1,5.3
				C29.5,113.1,29.7,112.4,29.5,111.2z"/>
		</g>
	</g>
	<g id="腮红2_9_" style="clip-path:url(#SVGID_6_);">
		<g>
			<path style="fill-rule:evenodd;clip-rule:evenodd;fill:#FFA083;" d="M23.2,120.8c-3.5-0.4-5.1,0.8-5.1,1.9c0,0.9,1.3,2.7,4.6,2.9
				c4.1,0.2,5.3-1.1,5.4-1.8C28.1,123,27.6,121.3,23.2,120.8z"/>
		</g>
	</g>
	<g id="腮红2_副本_9_" style="clip-path:url(#SVGID_6_);">
		<g>
			<path style="fill-rule:evenodd;clip-rule:evenodd;fill:#FFA083;" d="M54.5,120.8c-4.4,0.5-4.9,2.2-4.8,3c0,0.7,1.3,2,5.4,1.8
				c3.3-0.2,4.6-2,4.6-2.9C59.6,121.6,58,120.4,54.5,120.8z"/>
		</g>
	</g>
	<path style="clip-path:url(#SVGID_6_);fill-rule:evenodd;clip-rule:evenodd;fill:#512A15;" d="M38.5,139.8c-2.2,0-5.8-2-5.5-4.3
		c0.2-1.8,2-2.4,5.6-2.4c3.6,0,5.4,0.6,5.6,2.4C44.3,137.5,41.3,139.8,38.5,139.8z"/>
	<g id="形状_20_9_" style="clip-path:url(#SVGID_6_);">
		<g>
			<path style="fill:#FCEACB;" d="M30.2,179.9c-6.7-5.2-15-1.8-15-0.5c0.6,14.1,14.1,12.7,14.1,12.7c4.7-0.5,5.3-3.8,5.3-3.8
				S34.7,183.4,30.2,179.9z"/>
		</g>
	</g>
	<g id="形状_21_9_" style="clip-path:url(#SVGID_6_);">
		<g>
			<path style="fill:#FFBD99;" d="M32.5,187.6c-0.9-4.9-10.9-6.4-10.8-4.5c0.5,7.9,9.3,7.2,9.3,7.2S32.9,190.1,32.5,187.6z"/>
		</g>
	</g>
	<g id="形状_20_拷贝_9_" style="clip-path:url(#SVGID_6_);">
		<g>
			<path style="fill:#FCEACB;" d="M46.4,180.5c-4.6,4.2-3.3,9.3-3.3,9.3s0.4,1.9,5.1,2.4c0,0,13.5,1.4,14.1-12.8
				C62.4,178.1,53.8,173.8,46.4,180.5z"/>
		</g>
	</g>
	<g id="形状_21_拷贝_9_" style="clip-path:url(#SVGID_6_);">
		<g>
			<path style="fill-rule:evenodd;clip-rule:evenodd;fill:#FFBD99;" d="M45,187.7c-0.3,2.5,1.4,2.8,1.4,2.8s8.9,0.7,9.4-7.2
				C55.9,181.2,45.9,182.8,45,187.7z"/>
		</g>
	</g>
	<g id="形状_23_9_" style="opacity:0.4;clip-path:url(#SVGID_6_);">
		<g>
			<path style="fill-rule:evenodd;clip-rule:evenodd;fill:#DD7528;" d="M48.8,207.9c-5.5-1-20.3-2-21.9,1.7
				c-1.6,3.7-5.4,1.9-4.6,12.4c0,0,1.3,6.7,6.5,5.4c1.6-0.6,2.2-2.8,2.2-5c0-2.2,0.9-2.3,2.9-2.3c4.5,0.1,7,0.5,10.1-1.5
				c1.7-1.1,2.8,1.4,2.5,4.1c-0.3,3.1,0.3,4.4,2.8,4.9c2.3,0.5,4.2-0.5,4.9-2.9c0.7-2.5,0.9-5.2,0.9-5.2S54.3,208.9,48.8,207.9z"/>
		</g>
	</g>
	<path style="clip-path:url(#SVGID_6_);fill-rule:evenodd;clip-rule:evenodd;fill:#FCEBCE;" d="M49.8,200.6c0,0,6,4.1,5.7,17.6
		c-0.2,4.6-2.4,6.9-4.8,6.8c-2.4-0.1-2.6-2.7-2.3-5.5c0.1-1.1,0.4-4.5-0.8-9.3C46.4,205.4,49.8,200.6,49.8,200.6z"/>
	<path style="clip-path:url(#SVGID_6_);fill-rule:evenodd;clip-rule:evenodd;fill:#FCEBCE;" d="M26.3,202.3c0,0-4.8,4.6-4.4,15.6
		c0.2,4.6,2.3,7.2,4.8,7.1c2.4-0.2,2.5-2.1,2.4-4.2c-0.1-1.9-0.5-5,0.8-9.8C31.1,206.1,26.3,202.3,26.3,202.3z"/>
	<path style="clip-path:url(#SVGID_6_);fill-rule:evenodd;clip-rule:evenodd;fill:#F6BF96;" d="M50.3,221.7c-0.1,0.9-0.2,2.4-0.5,3
		c0.1,0.1,0.2,0.1,0.4,0.1c0.1-0.4,0.3-1,0.4-1.6C50.7,221.8,50.4,220.2,50.3,221.7z"/>
	<path style="clip-path:url(#SVGID_6_);fill-rule:evenodd;clip-rule:evenodd;fill:#F6BF96;" d="M52.2,221.7c0,0.7,0,2.2-0.4,3.1
		c0.2-0.1,0.4-0.1,0.6-0.2c0.2-0.5,0.2-1.2,0.3-1.7C52.7,221.8,52.2,220.8,52.2,221.7z"/>
	<path style="clip-path:url(#SVGID_6_);fill-rule:evenodd;clip-rule:evenodd;fill:#F6BF96;" d="M27.5,223.2
		c-0.2-0.8-0.6-2.6-0.7-2.1c-0.1,0.9,0.1,2.1,0.4,3c0.1,0.2,0.2,0.5,0.3,0.6c0.2-0.1,0.4-0.2,0.6-0.3
		C27.9,224.2,27.7,223.8,27.5,223.2z"/>
	<path style="clip-path:url(#SVGID_6_);fill-rule:evenodd;clip-rule:evenodd;fill:#F6BF96;" d="M25.7,223.5
		c-0.5-1.4-0.6-2.9-0.7-1.8c-0.1,1.2,0.2,2.2,0.7,3c0,0.1,0.1,0.1,0.1,0.2c0.2,0,0.3,0,0.5,0C26.1,224.5,25.9,224.1,25.7,223.5z"/>
	<g id="脸_17_" style="clip-path:url(#SVGID_6_);">
		<g>
			<path style="fill:#FCEBCE;" d="M50.7,196.6c-2.3-8.3-7.9-10.4-11.9-10.4c-4.1-0.1-10.2,2.1-12.1,10.2c-0.4,2.8-2,5.1-1.4,8.7
				c0.5,3.6,1.7,5.3,6.7,8.7c1,0.8,1.8,0.8,3,1.7c1.2,0.9,2.6,1.3,5,1.1c0,0,0.1,0,0.1,0c1-0.2,1.7-0.5,2.4-1c1.2-0.9,2-0.9,3-1.7
				c5-3.4,6.2-5.1,6.7-8.7C52.6,201.5,51.1,198.3,50.7,196.6z"/>
		</g>
	</g>
	<g id="形状_77_9_" style="clip-path:url(#SVGID_6_);">
		<g>
			
				<ellipse transform="matrix(8.526078e-02 -0.9964 0.9964 8.526078e-02 -181.125 219.0037)" style="fill-rule:evenodd;clip-rule:evenodd;fill:#FFBD99;" cx="28.7" cy="208.1" rx="1.1" ry="1.9"/>
		</g>
	</g>
	<g id="形状_77_副本_9_" style="clip-path:url(#SVGID_6_);">
		<g>
			
				<ellipse transform="matrix(-3.271978e-02 -0.9995 0.9995 -3.271978e-02 -158.3056 263.08)" style="fill:#FFBD99;" cx="48.2" cy="208.1" rx="1.1" ry="2"/>
		</g>
	</g>
	<path style="clip-path:url(#SVGID_6_);fill:#F7CC9D;" d="M31.3,192.8c0.4,1.7,1.3,2,2.4,2.2c1.3,0.2,2.1-1.1,2.5-1.6
		c0,0,0.9,1.7,2.1,2.1c1.3,0.4,2.2,0,2.7-0.9c0.3-0.5,0.2-1.4,0.2-1.4s1.1,1.2,2.7,0.7c1-0.3,1.1-1.1,1.1-1.7
		c0.1-0.6-0.1-1.1-0.1-1.1s1.1,1.2,0.8,2.6c-0.2,1-1.1,1.7-2.1,1.5c-0.8-0.1-1.9-0.9-1.9-0.9s-0.1,1.3-1,1.9c-0.9,0.6-2.2,0.5-3,0.1
		c-0.8-0.5-1.6-1.6-1.6-1.6s-0.5,1.1-1.6,1.6c-0.7,0.3-2,0.4-2.8-0.8C30.9,194.2,31.3,192.8,31.3,192.8z"/>
	<g id="形状_75_9_" style="clip-path:url(#SVGID_6_);">
		<g>
			<path style="fill-rule:evenodd;clip-rule:evenodd;fill:#552F19;" d="M29.1,203.7c-2.1-0.2-2.6,0-2.5,0.4c0.1,0.3,0.5-0.1,2.4,0.3
				c3.1,0.6,4.4,2.7,4.8,1.8C34.1,205.3,31.6,203.9,29.1,203.7z"/>
		</g>
	</g>
	<g id="形状_75_副本_9_" style="clip-path:url(#SVGID_6_);">
		<g>
			<path style="fill-rule:evenodd;clip-rule:evenodd;fill:#713D1F;" d="M48.3,203.7c-2.5,0.2-5,1.6-4.7,2.6c0.3,0.9,1.7-1.2,4.8-1.8
				c1.9-0.4,2.3,0,2.4-0.3C50.9,203.6,50.4,203.5,48.3,203.7z"/>
		</g>
	</g>
	<g id="形状_19_9_" style="clip-path:url(#SVGID_6_);">
		<g>
			<path style="fill:#57301B;" d="M38.6,213.1c-3.9,0-3.5,1.2-3.5,1.2s0.7,2.4,3.7,2.4c3-0.1,3.5-2.4,3.5-2.4S42.5,213.2,38.6,213.1
				z"/>
		</g>
	</g>
</g>
</svg>
