<?xml version="1.0" encoding="utf-8"?>
<!-- Generator: Adobe Illustrator 17.1.0, SVG Export Plug-In . SVG Version: 6.00 Build 0)  -->
<!DOCTYPE svg PUBLIC "-//W3C//DTD SVG 1.1//EN" "http://www.w3.org/Graphics/SVG/1.1/DTD/svg11.dtd">
<svg version="1.1" id="图层_1" xmlns="http://www.w3.org/2000/svg" xmlns:xlink="http://www.w3.org/1999/xlink" x="0px" y="0px"
	 viewBox="0 0 488.9 309.8" style="enable-background:new 0 0 488.9 309.8;" xml:space="preserve">
<g id="矩形_3_14_">
	<g>
		<rect x="6.6" y="6.3" style="fill-rule:evenodd;clip-rule:evenodd;fill:#292726;" width="475.4" height="297"/>
	</g>
</g>
<g id="阿里妈妈_6_">
	<g>
		<path style="fill-rule:evenodd;clip-rule:evenodd;fill:#FF6600;" d="M425.7,264.7c1.5,0,3,0,4.5,0c0,2.2,0,4.5,0,6.6
			c0,0.1-0.2,0.3-0.3,0.3c-0.2,0-0.3,0-0.6,0v1.1c0.3,0,0.6,0,1,0c0.9,0,1.4-0.4,1.4-1.1c0-1.7,0-5.1,0-6.8h0.5v-1h-6.4V264.7z
			 M448.5,269.5c-0.4,0-1,0.4-1,1c1.3,0,3.4,0,4.8,0c0,0.3,0,0.5,0,0.9c0.5,0,0.3,0,0.8,0c0.3,0,0.7-0.2,0.7-0.7c0-1.1,0-2,0-3.2
			c-0.2,0-0.4,0-0.6,0c0-0.9,0-2.6,0-3.3c0-0.3-0.3-0.6-0.6-0.6h-4.7v1h3.6c0,0.9,0,1.9,0,2.8c-0.9,0-1,0-1.7,0
			c-0.1,0-0.2-0.1-0.2-0.2c0-0.5,0-1.2,0-1.8c0-0.1-0.1-0.3-0.4-0.3H448v2.5c0,0.5,0.4,0.9,0.9,0.9c0,0,1.8,0,3.4,0v0.9H448.5z
			 M429.4,269.8c0-1.2,0-2.8,0-4.4h-3.7v5.6c1.1,0,2.5,0,2.5,0C429.1,271,429.4,270.5,429.4,269.8z M427.9,270c-0.3,0-0.6,0-0.9,0
			v-3.5c0.4,0,0.9,0,1.3,0c0,1.1,0,2.3,0,3.2C428.2,269.8,428.1,270,427.9,270z M421.5,263.9c0,2,0,4.7,0,8.7h1.4c0-2.5,0-5.3,0-8
			c0.3,0,0.7,0,1,0c0,1.5,0,2.9,0,4.3c0,0.6-0.5,0.8-0.5,0.8v1.1c1,0,1.8-1,1.8-1.9c0-1.6,0-3.7,0-5.4c-1.2,0-2.2,0-3.4,0
			C421.5,263.7,421.5,263.9,421.5,263.9z M464.4,267.5c0-0.9,0-2.6,0-3.3c0-0.3-0.3-0.6-0.6-0.6h-4.7v1c1.2,0,2.4,0,3.6,0v2.8
			c-0.9,0-1,0-1.7,0c-0.1,0-0.2-0.1-0.2-0.2c0-0.5,0-1.2,0-1.8c0-0.1-0.1-0.3-0.4-0.3c-0.3,0-0.7,0-1.1,0v2.5c0,0.5,0.4,0.9,0.9,0.9
			c0,0,1.8,0,3.4,0v0.9h-3.7c-0.4,0-1.1,0.4-1.1,1c1.3,0,3.3,0,4.7,0v1c0,0.2-0.1,0.2-0.3,0.2h-0.5c0,0.5,0,0.7,0,1h0.8
			c0.3,0,0.2,0,0.5,0c0.7,0,1-0.5,1-0.9c0-1.3,0-3,0-4.3C464.8,267.5,464.6,267.5,464.4,267.5z M457.7,271c0.5-0.6,0.8-1.2,0.8-2.4
			c0-1.3,0-2.6,0-4c0-0.1-0.1-0.3-0.3-0.3c-0.5,0-1.2,0-1.8,0v-0.6h-1.4c0,0.2,0,0.4,0,0.6c-0.1,0-0.3,0-0.5,0v1h0.5v3.2
			c0,1.2,0.4,1.9,0.9,2.4c-0.6,0.4-1.2,0.7-2.1,0.7c-0.1,0-0.2,0-0.4,0c-1.3,0-2.9,0-4.2,0c-1.3,0-2.5-0.2-3-0.8
			c0.4-0.6,0.7-1.1,0.8-2.3c0-1.2,0-2.3,0-3.9c0-0.2-0.2-0.3-0.3-0.3c-0.5,0-1.1,0-1.8,0v-0.6c-0.6,0-0.8,0-1.3,0v0.6
			c-0.2,0-0.3,0-0.5,0v1c0.2,0,0.3,0,0.5,0c0,1.1,0,2.2,0,3.2c0.1,1.2,0.5,1.6,1,2.4c-0.7,0.5-1.5,0.7-2.5,0.8c-1.2,0-2.2,0-3.7,0
			c0-0.3,0-0.6,0-0.8h3.7v-1.1h-3.7c0-0.3,0-0.5,0-0.8c1.1,0,2.5,0,2.8,0c0,0,0.9,0,0.9-1c0-1,0-2.9,0-4.3c-2.9,0-5.9,0-8.9,0
			c-0.1,0-0.3,0.2-0.3,0.3c0,0.2,0,3.5,0,5c1.2,0,2.5,0,3.7,0v0.8H433c0,0.3,0,0.7,0,1.1h3.7c0,0.3,0,0.5,0,0.8h-4.4
			c0,0.3,0,0.7,0,1c3.3,0,7.3,0,10.5,0c0.9,0,1.9-0.4,2.7-0.9c1,0.7,2,0.9,3.8,0.9c0.5,0,1.1,0,1.8,0c0.9,0,1.7,0,2.5,0
			c1.5,0,2.4-0.3,3.3-0.8c0.8,0.5,1.6,0.8,2.9,0.8v0h2v-1h-2C459,271.6,458.3,271.5,457.7,271z M436.8,268h-2.3v-1.1h2.3V268z
			 M436.8,265.8h-2.3v-1.1c0.8,0,1.5,0,2.3,0V265.8z M438.5,264.7h2.3v1.1h-2.3V264.7z M438.5,266.9c0.8,0,1.5,0,2.3,0
			c0,0.4,0,0.8,0,1.1h-2.3C438.5,267.7,438.5,267.2,438.5,266.9z M445.9,268.5c0,0.7-0.2,0.9-0.3,1.4c-0.2-0.4-0.4-0.6-0.5-1.4
			c0-0.9,0-2.2,0-3.2h0.8V268.5z M457.3,268.5c0,0.7-0.2,1-0.4,1.4c-0.2-0.4-0.4-0.7-0.4-1.4c0-1,0-2.2,0-3.2h0.8
			C457.3,266.4,457.3,267.5,457.3,268.5z"/>
	</g>
</g>
<g id="alimama.com_6_">
	<g>
		<path style="fill-rule:evenodd;clip-rule:evenodd;fill:#CBCBCB;" d="M423.9,274.7c-0.8,1.6-1.6,3.1-2.4,4.8h1.2
			c0.2-0.4,0.3-0.7,0.6-1.1c0.6,0,1.1,0,1.7,0c-0.1-0.4-0.2-0.6-0.3-0.9h-0.9c0.3-0.5,0.4-0.8,0.8-1.6c0.4,1.2,0.9,2.5,1.3,3.6h1.1
			c-0.6-1.7-1.1-3.1-1.7-4.8H423.9z M427.1,279.4h1l0.2-4.8l-1,0L427.1,279.4z M428.7,279.4h1.1l0.1-3.6h-1L428.7,279.4z
			 M428.9,274.7l0,0.8c0,0,0.8,0,1,0l0-0.8C429.1,274.7,429,274.7,428.9,274.7z M435.5,275.9c-0.2-0.1-0.4-0.1-0.6-0.1
			c-0.1,0-0.2,0-0.3,0c-0.1,0-0.2,0.1-0.3,0.1c-0.1,0-0.2,0.1-0.2,0.1c-0.1,0.1-0.1,0.1-0.2,0.2c0,0.1-0.1,0.1-0.1,0.2
			c0-0.1-0.1-0.2-0.1-0.3c0-0.1-0.1-0.1-0.1-0.2c-0.1,0-0.1-0.1-0.2-0.1c-0.1,0-0.2-0.1-0.3-0.1c-0.1,0-0.2,0-0.3,0
			c-0.1,0-0.3,0-0.4,0.1c-0.1,0-0.2,0.1-0.3,0.1c-0.1,0.1-0.2,0.1-0.2,0.2c-0.1,0.1-0.1,0.2-0.2,0.3l0-0.6h-0.9l-0.2,3.6
			c0,0,0.8,0,1,0c0-0.3,0-0.7,0-1.2c0-0.5,0.1-0.9,0.1-1c0.1-0.2,0.1-0.3,0.3-0.4c0.1-0.1,0.3-0.2,0.4-0.2c0.1,0,0.2,0,0.2,0
			c0.1,0,0.1,0.1,0.2,0.1c0.1,0.1,0.1,0.1,0.1,0.2c0,0.1,0,0.2,0,0.3c0,0.2,0,0.6,0,1.1c0,0.6-0.1,0.9-0.1,1.1c0.2,0,0.8,0,1,0l0-1
			c0-0.3,0-0.6,0-0.8c0-0.2,0-0.4,0.1-0.5c0-0.1,0.1-0.2,0.2-0.3c0.1-0.1,0.2-0.2,0.2-0.2c0.1,0,0.2-0.1,0.3-0.1
			c0.1,0,0.2,0,0.3,0.1c0.1,0,0.1,0.1,0.2,0.2c0.1,0.1,0.1,0.2,0.1,0.4c0,0.1,0,0.3,0,0.5l0,0.8c0,0.3,0,0.6-0.1,0.9
			c0.2,0,0.8,0,1,0c0-0.3,0-0.6,0-1.1c0-0.5,0-0.8,0.1-1.1c0-0.2,0-0.4,0-0.5c0-0.2-0.1-0.4-0.2-0.5
			C435.8,276.1,435.6,276,435.5,275.9z M439.3,275.9c-0.2-0.1-0.5-0.1-0.7-0.1c-0.2,0-0.5,0-0.7,0c-0.2,0-0.8,0.2-0.8,0.2l-0.1,0.7
			c0,0,1-0.3,1.4-0.3c0.1,0,0.2,0,0.3,0c0.1,0,0.2,0.1,0.2,0.1c0.1,0.1,0.1,0.1,0.1,0.2c0,0,0,0.1,0,0.1c0,0-0.1,0.1-0.1,0.1
			c0,0-0.1,0.1-0.1,0.1c-0.1,0-0.1,0.1-0.2,0.1c-0.1,0-0.2,0-0.3,0.1c-0.3,0.1-0.6,0.1-0.8,0.2c-0.2,0.1-0.4,0.1-0.5,0.2
			c-0.1,0.1-0.2,0.2-0.3,0.2c-0.1,0.1-0.1,0.2-0.2,0.3c0,0.1-0.1,0.2-0.1,0.3c0,0.2,0,0.3,0.1,0.5c0.1,0.2,0.2,0.3,0.4,0.4
			c0.2,0.1,0.4,0.1,0.7,0.1c0.1,0,0.2,0,0.3,0c0.1,0,0.2,0,0.4-0.1c0.1-0.3,0.1-0.5,0.2-0.6c-0.1,0-0.3,0.1-0.3,0.1
			c-0.1,0-0.2,0-0.2,0c-0.1,0-0.2,0-0.3,0c-0.1,0-0.2-0.1-0.2-0.1c-0.1-0.1-0.1-0.2-0.1-0.3c0-0.1,0-0.1,0-0.2
			c0-0.1,0.1-0.1,0.1-0.2c0,0,0.1-0.1,0.2-0.1c0.1,0,0.2-0.1,0.2-0.1c0.1,0,0.2-0.1,0.4-0.1c0.1,0,0.3-0.1,0.3-0.1
			c0.1,0,0.1,0,0.2-0.1c0,0,0.1-0.1,0.2-0.1l-0.1,1.8h1c0,0,0-1.1,0.1-1.7c0-0.5,0.1-0.9,0.1-1c0-0.2-0.1-0.4-0.2-0.6
			C439.6,276.1,439.5,276,439.3,275.9z M445.5,275.9c-0.2-0.1-0.4-0.1-0.6-0.1c-0.1,0-0.2,0-0.3,0c-0.1,0-0.2,0.1-0.3,0.1
			c-0.1,0-0.2,0.1-0.2,0.1c-0.1,0.1-0.1,0.1-0.2,0.2c0,0.1-0.1,0.1-0.1,0.2c0-0.1-0.1-0.2-0.1-0.3c0-0.1-0.1-0.1-0.1-0.2
			c-0.1,0-0.1-0.1-0.2-0.1c-0.1,0-0.2-0.1-0.3-0.1c-0.1,0-0.2,0-0.3,0c-0.1,0-0.3,0-0.4,0.1c-0.1,0-0.2,0.1-0.3,0.1
			c-0.1,0.1-0.2,0.1-0.2,0.2c-0.1,0.1-0.1,0.2-0.2,0.3l0-0.6h-1l-0.2,3.6h1c0,0,0-0.7,0-1.2c0-0.5,0.1-0.9,0.1-1
			c0.1-0.2,0.1-0.3,0.3-0.4c0.1-0.1,0.3-0.2,0.4-0.2c0.1,0,0.2,0,0.2,0c0.1,0,0.1,0.1,0.2,0.1c0,0.1,0.1,0.1,0.1,0.2
			c0,0.1,0,0.2,0,0.3c0,0.2,0,0.6,0,1.1c0,0.6-0.1,0.9-0.1,1.1c0.2,0,0.8,0,1,0l0-1c0-0.3,0-0.6,0-0.8c0-0.2,0-0.4,0.1-0.5
			c0-0.1,0.1-0.2,0.2-0.3c0.1-0.1,0.2-0.2,0.2-0.2c0.1,0,0.2-0.1,0.3-0.1c0.1,0,0.2,0,0.3,0.1c0.1,0,0.1,0.1,0.2,0.2
			c0.1,0.1,0.1,0.2,0.1,0.4c0,0.1,0,0.3,0,0.5l0,0.8c0,0.3,0,0.6-0.1,0.9c0.2,0,0.8,0,1,0c0-0.3,0-0.6,0-1.1c0-0.5,0-0.8,0.1-1.1
			c0-0.2,0-0.4,0-0.5c0-0.2-0.1-0.4-0.2-0.5C445.8,276.1,445.7,276,445.5,275.9z M449.3,275.9c-0.2-0.1-0.5-0.1-0.7-0.1
			c-0.2,0-0.5,0-0.7,0c-0.2,0-0.8,0.2-0.8,0.2l-0.1,0.7c0,0,1-0.3,1.4-0.3c0.1,0,0.2,0,0.3,0c0.1,0,0.2,0.1,0.2,0.1
			c0.1,0.1,0.1,0.1,0.1,0.2c0,0,0,0.1,0,0.1c0,0-0.1,0.1-0.1,0.1c0,0-0.1,0.1-0.1,0.1c-0.1,0-0.1,0.1-0.2,0.1c-0.1,0-0.2,0-0.3,0.1
			c-0.3,0.1-0.6,0.1-0.8,0.2c-0.2,0.1-0.4,0.1-0.5,0.2c-0.1,0.1-0.2,0.2-0.3,0.2c-0.1,0.1-0.1,0.2-0.2,0.3c0,0.1-0.1,0.2-0.1,0.3
			c0,0.2,0,0.3,0.1,0.5c0.1,0.2,0.2,0.3,0.4,0.4c0.2,0.1,0.4,0.1,0.7,0.1c0.1,0,0.2,0,0.3,0c0.1,0,0.2,0,0.4-0.1
			c0.1-0.3,0.1-0.5,0.2-0.6c-0.1,0-0.3,0.1-0.3,0.1c-0.1,0-0.2,0-0.2,0c-0.1,0-0.2,0-0.3,0c-0.1,0-0.2-0.1-0.2-0.1
			c-0.1-0.1-0.1-0.2-0.1-0.3c0-0.1,0-0.1,0-0.2c0-0.1,0.1-0.1,0.1-0.2c0,0,0.1-0.1,0.2-0.1c0.1,0,0.2-0.1,0.2-0.1
			c0.1,0,0.2-0.1,0.4-0.1c0.1,0,0.3-0.1,0.3-0.1c0.1,0,0.1,0,0.2-0.1c0,0,0.1-0.1,0.2-0.1l-0.1,1.8h1c0,0,0-1.1,0.1-1.7
			c0-0.5,0.1-0.9,0.1-1c0-0.2-0.1-0.4-0.2-0.6C449.7,276.1,449.5,276,449.3,275.9z M450.4,278.5c0,0.5,0,0.8,0,0.9c0.3,0,1,0,1,0
			s0-0.8,0-0.9C451.2,278.5,450.4,278.5,450.4,278.5z M453.1,276.9c0.1-0.1,0.2-0.2,0.4-0.3c0.1-0.1,0.3-0.1,0.5-0.1
			c0.3,0,0.6,0.1,0.9,0.2l-0.1-0.8c-0.2-0.1-0.4-0.1-0.6-0.1c-0.2,0-0.3,0-0.5,0c-0.3,0-0.5,0-0.7,0.1c-0.2,0.1-0.4,0.2-0.6,0.3
			c-0.2,0.2-0.3,0.4-0.4,0.7c-0.1,0.3-0.1,0.6-0.1,0.8c0,0.2,0,0.4,0.1,0.6c0.1,0.2,0.1,0.4,0.3,0.5c0.1,0.1,0.2,0.3,0.4,0.4
			c0.2,0.1,0.3,0.2,0.5,0.2c0.2,0,0.4,0.1,0.5,0.1c0.3,0,0.7,0,1-0.1c0-0.2,0.1-0.3,0.1-0.5c0-0.1,0-0.2,0.1-0.3
			c-0.2,0.1-0.3,0.1-0.5,0.1c-0.2,0-0.3,0-0.4,0c-0.2,0-0.4,0-0.6-0.1c-0.2-0.1-0.3-0.2-0.4-0.4c-0.1-0.2-0.1-0.4-0.1-0.6
			c0-0.2,0-0.3,0.1-0.5C452.9,277.1,452.9,277,453.1,276.9z M458.4,276.3c-0.2-0.2-0.4-0.3-0.6-0.4c-0.2-0.1-0.5-0.1-0.8-0.1
			c-0.3,0-0.6,0.1-0.8,0.1c-0.3,0.1-0.5,0.2-0.7,0.4c-0.2,0.2-0.3,0.4-0.4,0.6c-0.1,0.2-0.1,0.5-0.1,0.7c0,0.3,0,0.5,0.1,0.7
			c0.1,0.2,0.2,0.4,0.4,0.6c0.2,0.2,0.4,0.3,0.6,0.4c0.2,0.1,0.5,0.1,0.8,0.1c0.3,0,0.6,0,0.8-0.1c0.3-0.1,0.5-0.2,0.6-0.4
			c0.2-0.2,0.3-0.4,0.4-0.6c0.1-0.2,0.1-0.5,0.1-0.8c0-0.3,0-0.5-0.1-0.7C458.7,276.6,458.6,276.4,458.4,276.3z M457.8,278.2
			c-0.1,0.2-0.2,0.3-0.4,0.4c-0.2,0.1-0.3,0.2-0.5,0.2c-0.2,0-0.4,0-0.5-0.1c-0.1-0.1-0.3-0.2-0.3-0.4c-0.1-0.2-0.1-0.3-0.1-0.5
			c0-0.2,0-0.4,0.1-0.6c0.1-0.2,0.2-0.3,0.4-0.4c0.2-0.1,0.3-0.1,0.5-0.1c0.2,0,0.4,0,0.5,0.1c0.1,0.1,0.2,0.2,0.3,0.4
			c0.1,0.2,0.1,0.3,0.1,0.5C457.9,277.8,457.9,278,457.8,278.2z M464.7,276.2c-0.1-0.1-0.2-0.2-0.4-0.3c-0.2-0.1-0.4-0.1-0.6-0.1
			c-0.1,0-0.2,0-0.3,0c-0.1,0-0.2,0.1-0.3,0.1c-0.1,0-0.2,0.1-0.2,0.1c-0.1,0.1-0.1,0.1-0.2,0.2c0,0.1-0.1,0.1-0.1,0.2
			c0-0.1-0.1-0.2-0.1-0.3c0-0.1-0.1-0.1-0.1-0.2c-0.1,0-0.1-0.1-0.2-0.1c-0.1,0-0.2-0.1-0.3-0.1c-0.1,0-0.2,0-0.3,0
			c-0.1,0-0.3,0-0.4,0.1c-0.1,0-0.2,0.1-0.3,0.1c-0.1,0.1-0.2,0.1-0.2,0.2c-0.1,0.1-0.1,0.2-0.2,0.3l0-0.6c-0.2,0-0.7,0-0.9,0
			c0,0.4-0.1,3.2-0.2,3.6c0.2,0,0.8,0,1,0c0-0.3,0-0.7,0-1.2c0-0.5,0.1-0.9,0.1-1c0.1-0.2,0.1-0.3,0.3-0.4c0.1-0.1,0.3-0.2,0.4-0.2
			c0.1,0,0.2,0,0.2,0c0.1,0,0.1,0.1,0.2,0.1c0.1,0.1,0.1,0.1,0.1,0.2c0,0.1,0,0.2,0,0.3c0,0.2,0,0.6,0,1.1c0,0.6-0.1,0.9-0.1,1.1
			c0.2,0,0.8,0,1,0l0-1c0-0.3,0-0.6,0-0.8c0-0.2,0-0.4,0.1-0.5c0-0.1,0.1-0.2,0.2-0.3c0.1-0.1,0.2-0.2,0.2-0.2
			c0.1,0,0.2-0.1,0.3-0.1c0.1,0,0.2,0,0.3,0.1c0.1,0,0.1,0.1,0.2,0.2c0.1,0.1,0.1,0.2,0.1,0.4c0,0.1,0,0.3,0,0.5l0,0.8
			c0,0.3,0,0.6-0.1,0.9c0.2,0,0.8,0,1,0c0-0.3,0-0.6,0-1.1c0-0.5,0-0.8,0.1-1.1c0-0.2,0-0.4,0-0.5
			C464.9,276.5,464.8,276.4,464.7,276.2z"/>
	</g>
</g>
<text transform="matrix(1 0 0 1 60.0325 109.9976)" style="fill:#FF6600; font-family:'FZLTTHJW--GB1-0'; font-size:23.76;">感谢聆听！</text>
<g>
	<g>
		<path style="fill:#FF6600;" d="M60.3,134.5h13v35.2h1v-35.2h13v-1h-27V134.5z M106.4,145.4c-0.8-0.8-1.8-1.4-2.9-1.8
			c-1.1-0.4-2.4-0.6-3.7-0.6c-1.3,0-2.5,0.2-3.5,0.5c-1,0.4-2,0.9-2.8,1.5c-0.8,0.6-1.5,1.4-2,2.2c-0.5,0.8-0.9,1.8-1.1,2.8h-0.1
			v-16.6h-1v36.2h1v-14.8c0-1.5,0.2-2.8,0.6-4.2c0.4-1.3,1-2.5,1.8-3.5c0.8-1,1.8-1.8,3-2.4c1.2-0.6,2.6-0.9,4.1-0.9
			c1.1,0,2.2,0.2,3.2,0.5c1,0.3,1.9,0.8,2.6,1.5c0.8,0.7,1.4,1.6,1.8,2.6c0.4,1.1,0.7,2.4,0.7,3.9v17.1h1v-17.3c0-1.5-0.2-2.9-0.7-4
			C107.9,147.2,107.3,146.2,106.4,145.4z M134.3,168.6c-0.3-0.1-0.6-0.2-0.8-0.5c-0.2-0.2-0.3-0.6-0.3-1.1v-16.6
			c0-1.4-0.3-2.6-0.8-3.5c-0.5-0.9-1.1-1.7-1.9-2.3c-0.8-0.6-1.7-1-2.7-1.2c-1-0.2-2.1-0.4-3.3-0.4c-1.6,0-3,0.2-4.2,0.7
			c-1.2,0.4-2.2,1-3,1.8c-0.8,0.8-1.5,1.7-1.9,2.8c-0.4,1.1-0.7,2.2-0.8,3.4h1c0.2-2.4,1-4.3,2.5-5.7c1.5-1.3,3.7-2,6.4-2
			c1.7,0,3.1,0.2,4.1,0.7c1,0.5,1.8,1,2.3,1.7c0.5,0.7,0.9,1.5,1,2.3c0.1,0.8,0.2,1.7,0.2,2.4c0,1-0.2,1.7-0.6,2.3
			c-0.4,0.5-1,0.9-1.8,1.2c-0.8,0.3-1.9,0.4-3.2,0.5c-1.3,0.1-2.8,0.2-4.6,0.3c-1.1,0.1-2.2,0.2-3.2,0.4c-1.1,0.2-2,0.6-2.9,1.2
			c-0.8,0.6-1.5,1.3-2.1,2.3c-0.5,1-0.8,2.3-0.8,3.9c0,2.3,0.8,4.1,2.4,5.2c1.6,1.2,3.7,1.7,6.3,1.7c1.4,0,2.6-0.2,3.8-0.5
			c1.1-0.4,2.2-0.8,3.1-1.4c0.9-0.6,1.6-1.3,2.2-2.1c0.6-0.8,1-1.6,1.3-2.4h0.1v3.4c0,1,0.3,1.6,0.8,2c0.6,0.4,1.2,0.5,2,0.5h1.5v-1
			c-0.3,0-0.7,0.1-1.1,0.1C135,168.7,134.6,168.7,134.3,168.6z M132.1,159.1c0,1.3-0.2,2.5-0.7,3.8c-0.5,1.2-1.1,2.3-2,3.2
			c-0.9,0.9-2,1.7-3.3,2.3c-1.3,0.6-2.8,0.9-4.5,0.9c-1.4,0-2.6-0.2-3.6-0.5c-1-0.4-1.7-0.8-2.4-1.4s-1-1.2-1.3-1.9
			c-0.3-0.7-0.4-1.5-0.4-2.2c0-1.4,0.2-2.5,0.7-3.4c0.4-0.9,1-1.5,1.8-2c0.7-0.5,1.6-0.8,2.6-1c1-0.2,2-0.3,3-0.4
			c1-0.1,2.1-0.1,3.1-0.2c1.1,0,2.1-0.1,3-0.3c0.9-0.1,1.7-0.3,2.4-0.6c0.7-0.3,1.2-0.6,1.6-1.1h0.1V159.1z M156.2,145.4
			c-0.8-0.8-1.8-1.4-2.9-1.8c-1.1-0.4-2.4-0.6-3.7-0.6c-1.3,0-2.5,0.2-3.5,0.5c-1,0.4-2,0.9-2.8,1.5c-0.8,0.6-1.5,1.4-2,2.2
			c-0.5,0.8-0.9,1.8-1.1,2.8H140v-6.4h-1v26.1h1v-14.8c0-1.5,0.2-2.8,0.6-4.2c0.4-1.3,1-2.5,1.8-3.5c0.8-1,1.8-1.8,3-2.4
			c1.2-0.6,2.6-0.9,4.1-0.9c1.1,0,2.2,0.2,3.2,0.5c1,0.3,1.9,0.8,2.6,1.5c0.8,0.7,1.4,1.6,1.8,2.6c0.4,1.1,0.7,2.4,0.7,3.9v17.1h1
			v-17.3c0-1.5-0.2-2.9-0.7-4C157.7,147.2,157,146.2,156.2,145.4z M184.9,143.6h-1.5l-18,15v-25.1h-1v36.2h1v-9.8l6.7-5.6l12.2,15.4
			h1.4l-12.8-16.1L184.9,143.6z M209,168.3l-10.3-24.7h-1.1l10.8,25.8l-1.9,4.8c-0.3,0.8-0.6,1.4-1,1.9c-0.4,0.5-0.8,0.8-1.2,1
			c-0.5,0.2-1,0.4-1.6,0.4c-0.6,0.1-1.4,0.1-2.3,0.1v1c0.8,0,1.5,0,2.2-0.1c0.7-0.1,1.3-0.2,1.9-0.4c0.6-0.2,1.1-0.6,1.6-1.1
			c0.5-0.5,0.9-1.2,1.2-2.1l12-31.3h-1.1L209,168.3z M240.7,147.1c-1-1.2-2.2-2.3-3.7-3c-1.5-0.8-3.1-1.1-5-1.1
			c-1.9,0-3.6,0.4-5.1,1.1c-1.5,0.8-2.7,1.8-3.7,3c-1,1.3-1.7,2.7-2.3,4.3c-0.5,1.6-0.8,3.4-0.8,5.1c0,1.8,0.3,3.5,0.8,5.1
			c0.5,1.6,1.3,3.1,2.3,4.3c1,1.3,2.2,2.2,3.7,3c1.5,0.7,3.1,1.1,5,1.1c1.9,0,3.6-0.4,5.1-1.1c1.5-0.7,2.7-1.7,3.7-3
			c1-1.3,1.7-2.7,2.3-4.3c0.5-1.6,0.8-3.4,0.8-5.1c0-1.8-0.3-3.5-0.8-5.1C242.4,149.8,241.7,148.4,240.7,147.1z M242,161.4
			c-0.5,1.5-1.1,2.9-2.1,4c-0.9,1.2-2,2.1-3.4,2.8c-1.3,0.7-2.9,1-4.6,1c-1.8,0-3.3-0.3-4.6-1c-1.3-0.7-2.5-1.6-3.4-2.8
			c-0.9-1.2-1.6-2.5-2.1-4c-0.5-1.5-0.7-3.1-0.7-4.8c0-1.6,0.2-3.2,0.7-4.7c0.5-1.5,1.1-2.9,2.1-4c0.9-1.2,2-2.1,3.4-2.8
			c1.3-0.7,2.9-1.1,4.6-1.1c1.7,0,3.3,0.4,4.6,1.1c1.3,0.7,2.5,1.6,3.4,2.8c0.9,1.2,1.6,2.5,2.1,4c0.5,1.5,0.7,3.1,0.7,4.7
			C242.7,158.3,242.5,159.9,242,161.4z M266.7,143.6v14.8c0,1.5-0.2,2.8-0.6,4.2c-0.4,1.3-1,2.5-1.8,3.5c-0.8,1-1.8,1.8-3,2.4
			c-1.2,0.6-2.6,0.9-4.1,0.9c-1.1,0-2.2-0.2-3.2-0.5c-1-0.3-1.9-0.8-2.6-1.5c-0.8-0.7-1.4-1.6-1.8-2.6c-0.4-1.1-0.7-2.4-0.7-3.9
			v-17.1h-1v17.3c0,1.5,0.2,2.9,0.7,4c0.5,1.2,1.1,2.1,1.9,2.9c0.8,0.8,1.8,1.4,2.9,1.8c1.1,0.4,2.4,0.6,3.7,0.6
			c2.6,0,4.7-0.7,6.3-2c1.6-1.3,2.6-3,3.1-5h0.1v6.4h1v-26.1H266.7z"/>
	</g>
</g>
<g>
	<defs>
		<rect id="SVGID_1_" x="334.6" y="6.3" width="147.7" height="73.2"/>
	</defs>
	<clipPath id="SVGID_2_">
		<use xlink:href="#SVGID_1_"  style="overflow:visible;"/>
	</clipPath>
	<g style="clip-path:url(#SVGID_2_);">
		<path style="fill:#FD4B00;" d="M480-51.4c-11.4,2-20.6,5.8-20.6,5.8s-2.4,0.9-6.2,2.2c6.3,4.5,12,8.4,15.1,9.6
			c30.9,12.1,62.4,3,64.5,23.9c0.1-0.8,0.2-1.6,0.2-2.4c0.1-7.6-4.9-18-16.3-26.1C508.3-44.3,495.9-49.3,480-51.4"/>
		<path style="fill:#FD4B00;" d="M442.6-50.8c-1.7,0.2-3.3,0.5-5,0.8c0,0-14.4,3-29.8,11.9c3.3,1,7,1.4,10.9,1.4
			c4,0,8.2-0.4,12.4-1.1c8.6-1.4,16.8-3.8,22.1-5.6C449.8-45.8,446.2-48.4,442.6-50.8"/>
		<path style="fill:#FF6600;" d="M464.1-52.4c-6.7,0-13.9,0.5-21.5,1.6c3.6,2.4,7.2,5,10.6,7.4c3.8-1.3,6.2-2.2,6.2-2.2
			s9.2-3.8,20.6-5.8C475-52,469.7-52.4,464.1-52.4"/>
		<path style="fill:#FDBC52;" d="M381.1-45.8c-2.2,0-4.3,0.2-6.3,0.5c-13.4,2.2-21.1,10.6-21.1,10.6c-9.7,11.7-11.1,19.9-10.9,30.5
			c0.3,15.8,10,30.3,25.2,30.3c1.3,0,2.7-0.1,4.1-0.3l0.1,0l0.2,0c0.1,0,0.2,0,0.4-0.1c-3.1-15.2,3.5-28.5,7.1-37.5
			c-2.4-6.3-3.3-12.6-2.4-18.8c0.8-5.5,3.1-10.6,6.4-15.1C383-45.7,382-45.8,381.1-45.8 M492.8-52.6c-3.8,0-7.7,0.4-11.4,1
			c-0.5,0.1-0.9,0.2-1.4,0.2c15.9,2.1,28.3,7.1,36.8,13.1c11.4,8.1,16.4,18.5,16.3,26.1c0,0.8-0.1,1.6-0.2,2.4
			c0.2,2.1,0.1,4.6-0.3,7.4C526.3,22.8,495.3,40,462.7,40c-4.4,0-8.8-0.3-13.1-0.9c-0.9-0.1-1.9,0.7-2.9,0.5
			c-7.7,3.8-16.1,8.8-24.7,12.7c0.2,0.2,0.4,0.3,0.5,0.5c8.7,7.3,20.9,12.5,37.3,12.5c4.4,0,9-0.4,14-1.2c0.1,0,0.2,0,0.4-0.1
			C507,58.6,535.7,31,535.2-2.9c-0.4-29.7-13.7-41.8-28.3-47.4C502.6-52,497.7-52.6,492.8-52.6"/>
		<path style="fill:#FF9B48;" d="M532.9-9.8c-1.3,8.5-9.1,18.3-28.3,18.3c-1.2,0-2.5,0-3.8-0.1c-1.8-0.1-3.6-0.2-5.2-0.2
			c-11.5,0-22,4.4-32.5,15.7c-3.1,2.9-9.2,9.5-17.3,15.7c1,0.2,2.9,0.3,3.9,0.5c4.3,0.6,8.7,0.9,13.1,0.9
			c32.5,0,65.9-16.8,69.9-43.4C533-5.2,533.1-7.7,532.9-9.8 M383.9-45.7c-3.3,4.4-5.6,9.6-6.4,15.1c-0.9,6.1,0,12.5,2.4,18.8
			c2.4-4,5.5-6.4,5.5-6.4c8-7.5,15-13.9,22.4-19.8c-1.5-0.4-2.8-1-4.1-1.6C396.4-43.5,389.8-45.3,383.9-45.7"/>
		<path style="fill:#FDBC52;" d="M415.7-61.6c-12.6,0-24.6,6.4-31.7,15.9c5.9,0.4,12.5,2.1,19.7,6c1.3,0.7,2.7,1.2,4.1,1.6
			C423.2-47,437.6-50,437.6-50c1.7-0.3,3.4-0.6,5-0.8c-6.8-4.6-13.3-8.6-17.6-9.6C421.9-61.2,418.8-61.6,415.7-61.6"/>
		<path style="fill:#FF6600;" d="M380.2,24c-2.3,0-4.7,1.2-7.4,1.6c2.2,6.9,6.9,13.8,15.7,20c8.1,5.7,16.1,7.9,23.7,7.9
			c3.4,0,6.6-0.4,9.8-1.2C407.1,36.4,398.4,22.8,380.2,24"/>
		<path style="fill:#FD4B00;" d="M379.9-11.9c-5,8.2-11.7,22.9-7.1,37.5c2.7-0.4,5.1-0.6,7.4-0.6C398.6,25,405,38,422,52.3
			c9.3-2.2,17.7-7.3,24.7-12.7C419.6,32.9,390.2,10.5,379.9-11.9"/>
		<path style="fill:#FF6600;" d="M453.2-43.4c-5.4,1.8-13.6,4.2-22.1,5.6c-4.1,0.7-8.3,1.1-12.4,1.1c-3.9,0-7.6-0.4-10.9-1.4
			c-8.2,4.8-16.6,11.2-23.4,19.8c0,0-2,2.4-4.5,6.4c9,23.8,38.9,46.3,66.8,51.5c8.1-6.2,14.2-12.8,17.3-15.7
			C475.6,13,484,9.2,495.5,9.2c1.7,0,3.4,0.1,5.2,0.2c1.3,0.1,2.6,0.1,3.8,0.1c19.2,0,27-10.9,28.3-19.3
			c-2.2-20.9-33.6-11.9-64.5-23.9C465.2-35,459.6-38.9,453.2-43.4"/>
		<path style="fill:#FDBC52;" d="M366.2,68.2c-0.3,0-0.5,0-0.8,0.1l-0.2,0c-2.1,0.5-3.4,2.6-3,4.8c0.4,2,2.1,3.3,4,3.3
			c0.3,0,0.5,0,0.8-0.1l0.2,0c2.1-0.5,3.4-2.6,3-4.8C369.9,69.5,368.2,68.2,366.2,68.2 M378.8,49.7c-0.1,0-0.2,0-0.2,0
			c-0.8,0-1.5,0.1-2.2,0.3c-4.1,1.1-7.2,4.7-7.1,9c0,4.9,4.1,8.8,9.2,8.8c0.1,0,0.2,0,0.2,0c0.8,0,1.5-0.1,2.2-0.3
			c4.1-1,7.2-4.7,7.1-9C387.9,53.6,383.8,49.7,378.8,49.7"/>
	</g>
</g>
</svg>
