<?xml version="1.0" encoding="utf-8"?>
<!-- Generator: Adobe Illustrator 17.1.0, SVG Export Plug-In . SVG Version: 6.00 Build 0)  -->
<!DOCTYPE svg PUBLIC "-//W3C//DTD SVG 1.1//EN" "http://www.w3.org/Graphics/SVG/1.1/DTD/svg11.dtd">
<svg version="1.1" id="图层_1" xmlns="http://www.w3.org/2000/svg" xmlns:xlink="http://www.w3.org/1999/xlink" x="0px" y="0px"
	 viewBox="0 0 827.7 604.7" style="enable-background:new 0 0 827.7 604.7;" xml:space="preserve">
<g>
	<defs>
		<rect id="SVGID_1_" x="12.7" y="157.7" width="300.2" height="439"/>
	</defs>
	<clipPath id="SVGID_2_">
		<use xlink:href="#SVGID_1_"  style="overflow:visible;"/>
	</clipPath>
	<rect x="12.7" y="142.8" style="clip-path:url(#SVGID_2_);fill:#FFFFFF;" width="300.2" height="454.6"/>
	<path style="clip-path:url(#SVGID_2_);fill:#FFC07D;" d="M336.3,330.6c0,0,24.2-13.7,28.9,30c4.7,43.7,16.7,107.3-10.7,174.5
		c-27.4,67.2-120.9,164.5-187.6,125.7C100.2,622.2,279.1,339.3,336.3,330.6z"/>
</g>
<g>
	<defs>
		<rect id="SVGID_3_" x="12.7" y="179.9" width="214.9" height="416.9"/>
	</defs>
	<clipPath id="SVGID_4_">
		<use xlink:href="#SVGID_3_"  style="overflow:visible;"/>
	</clipPath>
	<path style="clip-path:url(#SVGID_4_);fill:#FFC07D;" d="M-9.2,330.6c0,0-24.1-13.9-29,29.9c-4.9,43.7-17.1,107.2,9.9,174.5
		c27.1,67.4,120.2,165,187,126.6C225.5,623.2,47.9,339.5-9.2,330.6z"/>
</g>
<g>
	<defs>
		<rect id="SVGID_5_" x="12.7" y="288.4" width="131.2" height="308.9"/>
	</defs>
	<clipPath id="SVGID_6_">
		<use xlink:href="#SVGID_5_"  style="overflow:visible;"/>
	</clipPath>
	<g id="形状_10_拷贝_34_" style="clip-path:url(#SVGID_6_);">
		<g>
			<path style="fill:#FF9B48;" d="M84.2,612.2C73.8,476.4-26.7,415.3-26.7,415.3s-20.1-19.4-23.6,3
				C-64.8,588.6,68.5,635.5,68.5,635.5S86.3,643.6,84.2,612.2z"/>
		</g>
	</g>
</g>
<g>
	<defs>
		<rect id="SVGID_7_" x="181.7" y="288.4" width="131.2" height="308.9"/>
	</defs>
	<clipPath id="SVGID_8_">
		<use xlink:href="#SVGID_7_"  style="overflow:visible;"/>
	</clipPath>
	<g id="形状_10_拷贝_31_" style="clip-path:url(#SVGID_8_);">
		<g>
			<path style="fill:#FF9B48;" d="M375.9,418.2c-3.4-22.4-23.6-3-23.6-3s-100.5,61.2-110.9,196.9c-2.2,31.5,15.7,23.4,15.7,23.4
				S390.4,588.6,375.9,418.2z"/>
		</g>
	</g>
</g>
<g>
	<defs>
		<rect id="SVGID_9_" x="12.7" y="235.9" width="98.1" height="360.9"/>
	</defs>
	<clipPath id="SVGID_10_">
		<use xlink:href="#SVGID_9_"  style="overflow:visible;"/>
	</clipPath>
	<g id="形状_10_拷贝_28_" style="clip-path:url(#SVGID_10_);">
		<g>
			<path style="fill:#FF9B48;" d="M223.5,794.5c0,0-13.2-25.3-23.5-5c-66.9,158.4,46.1,247.4,46.1,247.4s14.6,13.7,22.3-17.2
				C300.7,886.3,223.5,794.5,223.5,794.5z"/>
		</g>
	</g>
</g>
<g>
	<defs>
		<rect id="SVGID_11_" x="12.7" y="243" width="300.2" height="354.3"/>
	</defs>
	<clipPath id="SVGID_12_">
		<use xlink:href="#SVGID_11_"  style="overflow:visible;"/>
	</clipPath>
	<path style="clip-path:url(#SVGID_12_);fill-rule:evenodd;clip-rule:evenodd;fill:#66361F;" d="M167.5,868.8
		c0.8,0.6-97.8-29.2-139.8-139.2c0.3-2.3-44.5,82.7-115.5,116.1c1-4.3,2.2-8.1,2.9-11.1c10.8-47.5,20.3-93.3,36.4-141.1
		c36.3-107.6,123.8-147.1,213.3-145.6C255.2,549.4,340.9,589,375,690c16.1,47.8,30.4,109.3,38.4,145.1c0.4,1.7,1.1,3.9,1.6,5.9
		c-24.2-3.8-67.1-23.3-108.1-106.4C309.1,734.8,287.9,808.3,167.5,868.8z"/>
</g>
<g>
	<defs>
		<rect id="SVGID_13_" x="12.7" y="217.8" width="300.2" height="379.5"/>
	</defs>
	<clipPath id="SVGID_14_">
		<use xlink:href="#SVGID_13_"  style="overflow:visible;"/>
	</clipPath>
	<path style="clip-path:url(#SVGID_14_);fill:#E5432E;" d="M237.6,390.2c3.3-2.8,12.8-12.5,16.6,8.6c3.8,21.1,20.9,88.5-10.2,134.3
		s-87.4,122.6-86.5,30c0.4-39.4,13.7-76.2,29.5-105.6C208.4,417.7,234.3,393,237.6,390.2z"/>
</g>
<g>
	<defs>
		<rect id="SVGID_15_" x="12.7" y="209.3" width="300.2" height="388.1"/>
	</defs>
	<clipPath id="SVGID_16_">
		<use xlink:href="#SVGID_15_"  style="overflow:visible;"/>
	</clipPath>
	<path style="clip-path:url(#SVGID_16_);fill-rule:evenodd;clip-rule:evenodd;fill:#E5432E;" d="M-10,713.6
		c3.3-13.2,6.8-27.2,10.6-41.1c25.2-34.2,77.9-88.4,159.5-87.6c94.3,0.9,140.1,52.7,163.4,86.2c3.4,12.8,6.4,25.7,9.4,38.1
		c-22.2-23.8-81.2-75.6-172.8-75.3C78.4,634.3,20,684.6-10,713.6z"/>
</g>
<g>
	<g id="形状_2_copy_3_副本_4_16_">
		<g>
			<path style="fill-rule:evenodd;clip-rule:evenodd;fill:#CCCCCC;" d="M123.5,249.5c-1.7,3.4-3.2,6.4-4.9,10h2.4
				c0.4-0.9,0.7-1.4,1.2-2.4c1.2,0,2.2,0,3.4,0c-0.3-0.7-0.4-1.3-0.6-1.9h-1.9c0.6-1.1,0.9-1.8,1.7-3.3c0.9,2.6,1.8,5.2,2.6,7.6h2.2
				c-1.2-3.5-2.3-6.5-3.4-10H123.5z M130.1,259.5h2.1l0.4-10l-2,0L130.1,259.5z M133.3,259.5h2.2l0.3-7.5h-2.1L133.3,259.5z
				 M133.8,249.5l-0.1,1.6c0,0,1.6,0,2,0l0.1-1.6C134,249.5,134,249.5,133.8,249.5z M147,252.1c-0.4-0.1-0.8-0.2-1.2-0.2
				c-0.2,0-0.5,0-0.7,0.1c-0.2,0-0.4,0.1-0.6,0.2c-0.2,0.1-0.3,0.2-0.5,0.3c-0.1,0.1-0.3,0.2-0.4,0.4c-0.1,0.1-0.2,0.3-0.3,0.4
				c-0.1-0.2-0.2-0.4-0.3-0.5c-0.1-0.1-0.2-0.2-0.3-0.3c-0.1-0.1-0.3-0.2-0.4-0.3c-0.2-0.1-0.3-0.1-0.5-0.2c-0.2,0-0.4-0.1-0.6-0.1
				c-0.3,0-0.6,0-0.8,0.1c-0.3,0.1-0.5,0.2-0.7,0.3c-0.2,0.1-0.4,0.3-0.5,0.4c-0.1,0.1-0.3,0.3-0.4,0.6l0.1-1.2h-1.9l-0.3,7.5
				c0,0,1.6,0,2,0c0-0.6,0-1.5,0.1-2.6c0.1-1.1,0.1-1.8,0.3-2.2c0.1-0.4,0.3-0.7,0.6-0.9c0.3-0.2,0.5-0.3,0.9-0.3
				c0.2,0,0.3,0,0.5,0.1c0.1,0.1,0.3,0.2,0.4,0.3c0.1,0.1,0.2,0.3,0.2,0.4c0,0.1,0.1,0.3,0.1,0.5c0,0.4,0,1.2-0.1,2.4
				c-0.1,1.2-0.1,1.9-0.1,2.3c0.4,0,1.6,0,2,0l0-2c0-0.7,0.1-1.3,0.1-1.8c0-0.4,0.1-0.8,0.2-1c0.1-0.2,0.2-0.5,0.3-0.7
				c0.1-0.2,0.3-0.3,0.5-0.4c0.2-0.1,0.4-0.1,0.6-0.1c0.2,0,0.4,0,0.6,0.1c0.2,0.1,0.3,0.2,0.4,0.4c0.1,0.2,0.2,0.4,0.2,0.8
				c0,0.3,0,0.7,0,1.1l-0.1,1.7c0,0.7-0.1,1.4-0.1,2c0.4,0,1.7,0,2,0c0-0.6,0-1.4,0.1-2.4c0-1,0.1-1.8,0.1-2.2c0-0.5,0-0.8,0-1
				c0-0.4-0.1-0.8-0.3-1.1C147.7,252.4,147.4,252.2,147,252.1z M154.7,252.1c-0.4-0.1-0.9-0.2-1.4-0.2c-0.5,0-0.9,0-1.4,0.1
				c-0.5,0.1-1.7,0.3-1.7,0.3l-0.2,1.4c0,0,2-0.6,2.9-0.6c0.2,0,0.4,0,0.6,0.1c0.2,0.1,0.3,0.1,0.5,0.3c0.1,0.1,0.2,0.3,0.2,0.5
				c0,0.1,0,0.2-0.1,0.3c0,0.1-0.1,0.2-0.2,0.3c-0.1,0.1-0.2,0.2-0.3,0.2c-0.1,0.1-0.3,0.1-0.5,0.2c-0.2,0.1-0.4,0.1-0.6,0.1
				c-0.7,0.2-1.2,0.3-1.6,0.5c-0.4,0.1-0.7,0.3-1,0.5c-0.2,0.2-0.4,0.3-0.5,0.5c-0.1,0.2-0.2,0.4-0.3,0.6c-0.1,0.2-0.1,0.4-0.1,0.6
				c0,0.4,0.1,0.7,0.3,1.1c0.2,0.4,0.5,0.6,0.9,0.8c0.4,0.2,0.9,0.2,1.5,0.2c0.2,0,0.4,0,0.6,0c0.2,0,0.5-0.1,0.8-0.1
				c0.1-0.6,0.2-1,0.3-1.2c-0.3,0.1-0.5,0.2-0.7,0.2c-0.2,0-0.3,0-0.5,0c-0.2,0-0.4,0-0.6-0.1c-0.2-0.1-0.3-0.2-0.4-0.3
				c-0.1-0.1-0.2-0.3-0.2-0.5c0-0.1,0-0.2,0.1-0.4c0-0.1,0.1-0.2,0.2-0.3c0.1-0.1,0.2-0.2,0.4-0.3c0.1-0.1,0.3-0.2,0.5-0.2
				c0.2-0.1,0.4-0.1,0.7-0.2c0.3-0.1,0.5-0.1,0.6-0.2c0.1,0,0.2-0.1,0.3-0.1c0.1,0,0.2-0.1,0.4-0.3l-0.2,3.9h2c0,0,0.1-2.4,0.1-3.5
				c0.1-1.1,0.1-1.9,0.1-2.1c0-0.5-0.1-0.9-0.4-1.2C155.5,252.4,155.1,252.2,154.7,252.1z M167.4,252.1c-0.4-0.1-0.8-0.2-1.2-0.2
				c-0.2,0-0.5,0-0.7,0.1c-0.2,0-0.4,0.1-0.6,0.2c-0.2,0.1-0.3,0.2-0.5,0.3c-0.1,0.1-0.3,0.2-0.4,0.4c-0.1,0.1-0.2,0.3-0.3,0.4
				c-0.1-0.2-0.2-0.4-0.3-0.5c-0.1-0.1-0.2-0.2-0.3-0.3c-0.1-0.1-0.3-0.2-0.4-0.3c-0.2-0.1-0.3-0.1-0.5-0.2c-0.2,0-0.4-0.1-0.6-0.1
				c-0.3,0-0.6,0-0.8,0.1c-0.3,0.1-0.5,0.2-0.7,0.3c-0.2,0.1-0.4,0.3-0.5,0.4c-0.1,0.1-0.3,0.3-0.4,0.6l0.1-1.2h-1.9l-0.3,7.5h2
				c0,0,0-1.5,0.1-2.6c0.1-1.1,0.1-1.8,0.3-2.2c0.1-0.4,0.3-0.7,0.6-0.9c0.3-0.2,0.5-0.3,0.9-0.3c0.2,0,0.3,0,0.5,0.1
				c0.1,0.1,0.3,0.2,0.4,0.3c0.1,0.1,0.2,0.3,0.2,0.4c0,0.1,0.1,0.3,0.1,0.5c0,0.4,0,1.2-0.1,2.4c-0.1,1.2-0.1,1.9-0.1,2.3
				c0.4,0,1.6,0,2,0l0-2c0-0.7,0.1-1.3,0.1-1.8c0-0.4,0.1-0.8,0.2-1c0.1-0.2,0.2-0.5,0.3-0.7c0.2-0.2,0.3-0.3,0.5-0.4
				c0.2-0.1,0.4-0.1,0.6-0.1c0.2,0,0.4,0,0.6,0.1c0.2,0.1,0.3,0.2,0.4,0.4c0.1,0.2,0.2,0.4,0.2,0.8c0,0.3,0,0.7,0,1.1l-0.1,1.7
				c0,0.7-0.1,1.4-0.1,2c0.4,0,1.7,0,2,0c0-0.6,0-1.4,0.1-2.4c0-1,0.1-1.8,0.1-2.2c0-0.5,0-0.8,0-1c0-0.4-0.1-0.8-0.3-1.1
				C168.1,252.4,167.8,252.2,167.4,252.1z M175.1,252.1c-0.4-0.1-0.9-0.2-1.4-0.2c-0.5,0-0.9,0-1.4,0.1c-0.5,0.1-1.7,0.3-1.7,0.3
				l-0.2,1.4c0,0,2-0.6,2.9-0.6c0.2,0,0.4,0,0.6,0.1c0.2,0.1,0.4,0.1,0.5,0.3c0.1,0.1,0.2,0.3,0.2,0.5c0,0.1,0,0.2-0.1,0.3
				c0,0.1-0.1,0.2-0.2,0.3c-0.1,0.1-0.2,0.2-0.3,0.2c-0.1,0.1-0.3,0.1-0.5,0.2c-0.2,0.1-0.4,0.1-0.6,0.1c-0.7,0.2-1.2,0.3-1.6,0.5
				c-0.4,0.1-0.7,0.3-1,0.5c-0.2,0.2-0.4,0.3-0.5,0.5c-0.1,0.2-0.2,0.4-0.3,0.6c-0.1,0.2-0.1,0.4-0.1,0.6c0,0.4,0.1,0.7,0.3,1.1
				c0.2,0.4,0.5,0.6,0.9,0.8c0.4,0.2,0.9,0.2,1.5,0.2c0.2,0,0.4,0,0.6,0c0.2,0,0.5-0.1,0.8-0.1c0.1-0.6,0.2-1,0.4-1.2
				c-0.3,0.1-0.5,0.2-0.7,0.2c-0.2,0-0.3,0-0.5,0c-0.2,0-0.4,0-0.6-0.1c-0.2-0.1-0.3-0.2-0.4-0.3c-0.1-0.1-0.2-0.3-0.2-0.5
				c0-0.1,0-0.2,0.1-0.4c0-0.1,0.1-0.2,0.2-0.3c0.1-0.1,0.2-0.2,0.4-0.3c0.1-0.1,0.3-0.2,0.5-0.2c0.2-0.1,0.4-0.1,0.7-0.2
				c0.3-0.1,0.5-0.1,0.6-0.2c0.1,0,0.2-0.1,0.3-0.1c0.1,0,0.2-0.1,0.4-0.3l-0.2,3.9h2c0,0,0.1-2.4,0.1-3.5c0.1-1.1,0.1-1.9,0.1-2.1
				c0-0.5-0.1-0.9-0.4-1.2C175.9,252.4,175.6,252.2,175.1,252.1z M177.4,257.5c0,1-0.1,1.6-0.1,2c0.7,0,2,0,2,0s0.1-1.6,0.1-2
				C178.9,257.5,177.4,257.5,177.4,257.5z M182.7,254.1c0.2-0.2,0.5-0.4,0.7-0.5c0.3-0.1,0.6-0.2,0.9-0.2c0.5,0,1.1,0.1,1.9,0.4
				l-0.1-1.6c-0.4-0.1-0.8-0.2-1.2-0.2c-0.3,0-0.6-0.1-1-0.1c-0.6,0-1.1,0.1-1.5,0.2c-0.5,0.1-0.9,0.4-1.2,0.7
				c-0.4,0.4-0.7,0.8-0.8,1.4c-0.2,0.6-0.3,1.2-0.3,1.8c0,0.5,0.1,0.9,0.2,1.4c0.1,0.4,0.3,0.8,0.5,1.1c0.2,0.3,0.5,0.6,0.8,0.7
				c0.3,0.2,0.6,0.3,1,0.4c0.4,0.1,0.7,0.1,1.1,0.1c0.7,0,1.3-0.1,2-0.2c0.1-0.4,0.1-0.7,0.2-0.9c0-0.3,0.1-0.5,0.1-0.7
				c-0.3,0.1-0.7,0.2-1,0.3c-0.3,0.1-0.6,0.1-0.8,0.1c-0.4,0-0.8-0.1-1.2-0.3c-0.3-0.2-0.6-0.4-0.7-0.8c-0.1-0.3-0.2-0.7-0.2-1.2
				c0-0.3,0-0.7,0.1-1C182.4,254.6,182.5,254.3,182.7,254.1z M193.6,252.9c-0.4-0.3-0.8-0.6-1.3-0.7c-0.5-0.2-1-0.3-1.6-0.3
				c-0.6,0-1.2,0.1-1.7,0.3c-0.6,0.2-1,0.5-1.4,0.9c-0.4,0.4-0.6,0.8-0.8,1.3c-0.2,0.5-0.3,1-0.3,1.5c0,0.5,0.1,1,0.3,1.5
				c0.2,0.5,0.5,0.9,0.8,1.2c0.4,0.3,0.8,0.6,1.3,0.8c0.5,0.2,1,0.3,1.6,0.3c0.6,0,1.2-0.1,1.7-0.3c0.5-0.2,1-0.5,1.3-0.9
				c0.4-0.4,0.6-0.8,0.8-1.3c0.2-0.5,0.3-1.1,0.3-1.6c0-0.5-0.1-1-0.3-1.5C194.2,253.6,193.9,253.2,193.6,252.9z M192.4,257
				c-0.2,0.4-0.4,0.7-0.7,0.9c-0.3,0.2-0.7,0.3-1.1,0.3c-0.4,0-0.8-0.1-1.1-0.3c-0.3-0.2-0.5-0.5-0.6-0.8c-0.1-0.3-0.2-0.7-0.2-1.1
				c0-0.5,0.1-0.9,0.2-1.3c0.2-0.4,0.4-0.7,0.7-0.9c0.3-0.2,0.7-0.3,1.1-0.3c0.4,0,0.8,0.1,1.1,0.3c0.3,0.2,0.5,0.5,0.6,0.8
				c0.1,0.3,0.2,0.7,0.2,1.1C192.6,256.1,192.5,256.5,192.4,257z M206.4,252.7c-0.2-0.3-0.5-0.5-0.9-0.7c-0.4-0.1-0.8-0.2-1.2-0.2
				c-0.2,0-0.5,0-0.7,0.1c-0.2,0-0.4,0.1-0.6,0.2c-0.2,0.1-0.3,0.2-0.5,0.3c-0.1,0.1-0.3,0.2-0.4,0.4c-0.1,0.1-0.2,0.3-0.3,0.4
				c-0.1-0.2-0.2-0.4-0.3-0.5c-0.1-0.1-0.2-0.2-0.3-0.3c-0.1-0.1-0.3-0.2-0.4-0.3c-0.2-0.1-0.3-0.1-0.5-0.2c-0.2,0-0.4-0.1-0.6-0.1
				c-0.3,0-0.6,0-0.8,0.1c-0.3,0.1-0.5,0.2-0.7,0.3c-0.2,0.1-0.4,0.3-0.5,0.4c-0.1,0.1-0.3,0.3-0.4,0.6l0.1-1.2c-0.3,0-1.5,0-1.9,0
				c0,0.8-0.3,6.6-0.3,7.5c0.4,0,1.6,0,2,0c0-0.6,0-1.5,0.1-2.6c0.1-1.1,0.1-1.8,0.3-2.2c0.1-0.4,0.3-0.7,0.6-0.9
				c0.3-0.2,0.5-0.3,0.9-0.3c0.2,0,0.3,0,0.5,0.1c0.1,0.1,0.3,0.2,0.4,0.3c0.1,0.1,0.2,0.3,0.2,0.4c0,0.1,0,0.3,0,0.5
				c0,0.4,0,1.2-0.1,2.4c-0.1,1.2-0.1,1.9-0.1,2.3c0.4,0,1.6,0,2,0l0-2c0-0.7,0.1-1.3,0.1-1.8c0-0.4,0.1-0.8,0.2-1
				c0.1-0.2,0.2-0.5,0.3-0.7c0.1-0.2,0.3-0.3,0.5-0.4c0.2-0.1,0.4-0.1,0.6-0.1c0.2,0,0.4,0,0.6,0.1c0.2,0.1,0.3,0.2,0.4,0.4
				c0.1,0.2,0.2,0.4,0.2,0.8c0,0.3,0,0.7,0,1.1l-0.1,1.7c0,0.7-0.1,1.4-0.1,2c0.4,0,1.7,0,2,0c0-0.6,0-1.4,0.1-2.4
				c0-1,0.1-1.8,0.1-2.2c0-0.5,0-0.8,0-1C206.7,253.4,206.6,253,206.4,252.7z"/>
		</g>
	</g>
	<g id="形状_2_copy_3_副本_5_16_">
		<g>
			<path style="fill-rule:evenodd;clip-rule:evenodd;fill:#FF6600;" d="M127.3,228.6c3,0,6,0,9.1,0c0,4.7,0,9.5,0,13.8
				c0,0.3-0.3,0.7-0.7,0.7c-0.5,0-0.7,0-1.3,0v2.3c0.7,0,1.3,0,2,0c1.7,0,2.9-0.9,2.9-2.4c0-3.6,0-10.7,0-14.4h1v-2.2h-13V228.6z
				 M173.6,238.5c-0.8,0-2.1,0.8-2.1,2.2c2.6,0,6.8-0.1,9.7-0.1c0,0.5,0,1.1,0,1.8c1,0,0.6,0,1.6,0c0.6,0,1.3-0.5,1.3-1.4
				c0-2.4,0-4.2,0-6.6c-0.4,0-0.9,0-1.3,0c0-1.8,0-5.6,0-6.9c0-0.5-0.5-1.2-1.2-1.2h-9.5v2.2h7.3c0,2,0,3.9,0,5.9c-1.7,0-2,0-3.5,0
				c-0.2,0-0.4-0.2-0.4-0.4c0-1,0-2.6,0-3.9c0-0.3-0.3-0.6-0.8-0.6h-2.2v5.2c0,1,0.9,1.8,1.8,1.8c0,0,3.7,0,6.8,0v1.9H173.6z
				 M134.9,239.2c0-2.5,0-6,0-9.3h-7.6v11.9c2.2,0,5,0,5,0C134.3,241.7,134.9,240.6,134.9,239.2z M131.7,239.6c-0.5,0-1.1,0-1.9,0
				v-7.4c0.8,0,1.8,0,2.6,0c0,2.2,0,4.7,0,6.7C132.4,239.3,132.2,239.6,131.7,239.6z M118.8,226.9c0,4.3,0,9.8,0,18.4h2.8
				c0-5.4,0-11.2,0-16.8c0.7,0,1.4,0,2.1,0c0,3.2,0,6.1,0,9.1c0,1.2-1.1,1.7-1.1,1.7v2.4c2,0,3.7-2.1,3.7-4c0-3.4,0-7.8,0-11.3
				c-2.5,0-4.5,0-7,0C118.7,226.4,118.8,226.9,118.8,226.9z M205.8,234.4c0-1.8,0-5.6,0-6.9c0-0.5-0.5-1.2-1.2-1.2h-9.5v2.2
				c2.4,0,4.9,0,7.3,0v5.9c-1.7,0-2,0-3.5,0c-0.2,0-0.4-0.2-0.4-0.4c0-1,0-2.6,0-3.9c0-0.3-0.3-0.6-0.8-0.6c-0.6,0-1.5,0-2.2,0v5.2
				c0,1,0.9,1.8,1.8,1.8c0,0,3.7,0,6.8,0v1.9h-7.5c-0.8,0-2.2,0.8-2.2,2.1c2.6,0,6.8,0,9.6,0v2c0,0.3-0.3,0.5-0.6,0.5h-1.1
				c0,1,0,1.5,0,2.1h1.7c0.5,0,0.4,0,0.9,0c1.4,0,2-1,2-1.9c0-2.7,0-6.3,0-9C206.6,234.5,206.2,234.4,205.8,234.4z M192.3,241.7
				c1-1.2,1.6-2.5,1.7-5.1c0-2.8,0-5.6,0-8.3c0-0.2-0.3-0.5-0.6-0.5c-1.1,0-2.4,0-3.6,0v-1.3h-2.8c0,0.4,0,0.9,0,1.3
				c-0.3,0-0.7,0-0.9,0v2.2h0.9v6.7c0,2.6,0.8,3.9,1.9,5.1c-1.2,0.9-2.5,1.4-4.2,1.4c-0.2,0-0.5,0-0.7,0c-2.6,0-5.8,0-8.6,0
				c-2.6,0-5.2-0.5-6.1-1.7c0.9-1.3,1.4-2.3,1.7-4.9c0-2.6,0-4.8,0-8.2c0-0.4-0.4-0.7-0.7-0.7c-1.1,0-2.2,0-3.6,0v-1.3
				c-1.1,0-1.6,0-2.7,0v1.3c-0.3,0-0.5,0-0.9,0v2.2c0.4,0,0.6,0,0.9,0c0,2.2,0,4.7,0,6.7c0.2,2.6,1,3.5,2,5c-1.4,1-3.1,1.5-5.2,1.6
				c-2.4,0-4.6,0-7.6,0c0-0.5,0-1.3,0-1.7h7.6v-2.3h-7.6c0-0.5,0-1.1,0-1.7c2.2,0,5,0,5.7,0c0,0,1.8,0,1.9-2.1c0-2.2,0-6.1,0-9
				c-6,0-12.1,0-18.1,0c-0.3,0-0.6,0.3-0.6,0.6c0,0.4,0,7.3,0,10.6c2.5,0,5,0,7.6,0v1.7h-7.6c0,0.7,0,1.5,0,2.3h7.6
				c0,0.6,0,1.1,0,1.7H141c0,0.6,0,1.5,0,2.1c6.6,0,14.9,0,21.3,0c1.7,0,3.9-0.9,5.5-1.9c2,1.6,4.1,1.9,7.7,1.9c1.1,0,2.3,0,3.6,0
				c1.9,0,3.5,0,5,0c3,0,4.9-0.7,6.8-1.8c1.7,1,3.3,1.7,6,1.8v0h4v-2.1h-4C194.9,243,193.5,242.7,192.3,241.7z M149.8,235.4h-4.6
				v-2.3h4.6V235.4z M149.8,230.8h-4.6v-2.3c1.6,0,3.1,0,4.6,0V230.8z M153.3,228.6h4.7v2.3h-4.7V228.6z M153.3,233.1
				c1.6,0,3.1,0,4.6,0c0,0.9,0,1.6,0,2.3h-4.7C153.3,234.8,153.3,233.8,153.3,233.1z M168.4,236.6c-0.1,1.5-0.3,1.9-0.7,2.8
				c-0.4-0.9-0.8-1.3-0.9-2.8c0-2,0-4.7,0-6.7h1.6V236.6z M191.4,236.6c-0.1,1.4-0.4,2.1-0.7,2.8c-0.4-0.7-0.8-1.5-0.8-2.8
				c0-2.1,0-4.6,0-6.7h1.6C191.4,232,191.4,234.5,191.4,236.6z"/>
		</g>
	</g>
</g>
<g>
	<defs>
		<rect id="SVGID_17_" x="12.1" y="360.8" width="281" height="236.5"/>
	</defs>
	<clipPath id="SVGID_18_">
		<use xlink:href="#SVGID_17_"  style="overflow:visible;"/>
	</clipPath>
	<path style="clip-path:url(#SVGID_18_);fill:#E5432E;" d="M90.5,390.1c-3.3-2.8-12.8-12.4-16.6,8.6c-3.8,21.1-20.9,88.4,10.2,134.1
		c31.2,45.7,87.4,122.5,86.5,30c-0.4-39.4-13.7-76.1-29.5-105.5C119.7,417.6,93.9,392.9,90.5,390.1z"/>
</g>
<rect x="12.7" y="157.7" style="fill:none;stroke:#D8D8D8;stroke-miterlimit:10;" width="300.2" height="439.6"/>
<rect x="364.6" y="157.8" style="fill:#FF6600;" width="103.2" height="439.5"/>
<g>
	<path style="fill:#FFFFFF;" d="M396.8,575.6l-0.6-2.2h0l-0.6,2.2h-0.5l-0.9-2.7h0.5l0.6,2.2h0l0.6-2.2h0.5l0.6,2.2h0l0.6-2.2h0.5
		l-0.9,2.7H396.8z"/>
	<path style="fill:#FFFFFF;" d="M400.8,575.6l-0.6-2.2h0l-0.6,2.2h-0.5l-0.9-2.7h0.5l0.6,2.2h0l0.6-2.2h0.5l0.6,2.2h0l0.6-2.2h0.5
		l-0.9,2.7H400.8z"/>
	<path style="fill:#FFFFFF;" d="M404.8,575.6l-0.6-2.2h0l-0.6,2.2h-0.5l-0.9-2.7h0.5l0.6,2.2h0l0.6-2.2h0.5l0.6,2.2h0l0.6-2.2h0.5
		l-0.9,2.7H404.8z"/>
	<path style="fill:#FFFFFF;" d="M407,575v0.6h-0.6V575H407z"/>
	<path style="fill:#FFFFFF;" d="M409.8,575.6c-0.1,0-0.2,0-0.3-0.1c-0.1-0.1-0.1-0.2-0.1-0.3c-0.1,0.1-0.3,0.3-0.4,0.3
		c-0.2,0.1-0.3,0.1-0.5,0.1c-0.1,0-0.2,0-0.3,0c-0.1,0-0.2-0.1-0.3-0.1c-0.1-0.1-0.1-0.1-0.2-0.2c0-0.1-0.1-0.2-0.1-0.4
		c0-0.2,0-0.3,0.1-0.4c0.1-0.1,0.1-0.2,0.2-0.2c0.1-0.1,0.2-0.1,0.3-0.1c0.1,0,0.2-0.1,0.3-0.1c0.1,0,0.2,0,0.4-0.1
		c0.1,0,0.2,0,0.3-0.1c0.1,0,0.2-0.1,0.2-0.1c0,0,0.1-0.1,0.1-0.2c0-0.1,0-0.2-0.1-0.2c0-0.1-0.1-0.1-0.1-0.1
		c-0.1,0-0.1-0.1-0.2-0.1c-0.1,0-0.1,0-0.2,0c-0.2,0-0.3,0-0.5,0.1c-0.1,0.1-0.2,0.2-0.2,0.4h-0.5c0-0.2,0-0.3,0.1-0.4
		c0.1-0.1,0.1-0.2,0.3-0.3c0.1-0.1,0.2-0.1,0.4-0.2c0.1,0,0.3,0,0.4,0c0.1,0,0.2,0,0.4,0c0.1,0,0.2,0.1,0.3,0.1
		c0.1,0.1,0.2,0.1,0.2,0.2c0.1,0.1,0.1,0.2,0.1,0.4v1.4c0,0.1,0,0.2,0,0.2c0,0,0.1,0.1,0.1,0.1c0,0,0.1,0,0.1,0v0.3
		C410.1,575.6,410,575.6,409.8,575.6z M409.2,574.3c-0.1,0-0.2,0-0.3,0c-0.1,0-0.2,0-0.3,0c-0.1,0-0.2,0-0.3,0.1
		c-0.1,0-0.1,0.1-0.2,0.2c-0.1,0.1-0.1,0.2-0.1,0.3c0,0.1,0,0.1,0,0.2c0,0.1,0.1,0.1,0.1,0.1c0,0,0.1,0.1,0.2,0.1c0.1,0,0.1,0,0.2,0
		c0.1,0,0.3,0,0.4-0.1c0.1,0,0.2-0.1,0.3-0.2c0.1-0.1,0.1-0.1,0.1-0.2c0-0.1,0-0.1,0-0.2v-0.5C409.4,574.2,409.3,574.2,409.2,574.3z
		"/>
	<path style="fill:#FFFFFF;" d="M411.1,571.8v3.8h-0.5v-3.8H411.1z"/>
	<path style="fill:#FFFFFF;" d="M411.8,572.3v-0.6h0.5v0.6H411.8z M412.2,572.8v2.7h-0.5v-2.7H412.2z"/>
	<path style="fill:#FFFFFF;" d="M413.4,572.8v0.4h0c0.2-0.3,0.5-0.5,0.9-0.5c0.2,0,0.3,0,0.5,0.1c0.1,0.1,0.2,0.2,0.3,0.4
		c0.1-0.1,0.2-0.3,0.4-0.3c0.1-0.1,0.3-0.1,0.5-0.1c0.1,0,0.3,0,0.4,0c0.1,0,0.2,0.1,0.3,0.1s0.1,0.1,0.2,0.2c0,0.1,0.1,0.2,0.1,0.4
		v2h-0.5v-1.8c0-0.1,0-0.2,0-0.2c0-0.1,0-0.1-0.1-0.2c0-0.1-0.1-0.1-0.2-0.1c-0.1,0-0.2,0-0.3,0c-0.2,0-0.4,0.1-0.5,0.2
		c-0.1,0.1-0.2,0.3-0.2,0.5v1.7h-0.5v-1.8c0-0.1,0-0.2,0-0.2c0-0.1,0-0.1-0.1-0.2c0-0.1-0.1-0.1-0.2-0.1c-0.1,0-0.1,0-0.3,0
		c-0.1,0-0.2,0-0.3,0.1c-0.1,0.1-0.2,0.1-0.2,0.2c-0.1,0.1-0.1,0.2-0.1,0.2c0,0.1,0,0.1,0,0.2v1.7h-0.5v-2.7H413.4z"/>
	<path style="fill:#FFFFFF;" d="M419.6,575.6c-0.1,0-0.2,0-0.3-0.1c-0.1-0.1-0.1-0.2-0.1-0.3c-0.1,0.1-0.3,0.3-0.4,0.3
		c-0.2,0.1-0.3,0.1-0.5,0.1c-0.1,0-0.2,0-0.3,0c-0.1,0-0.2-0.1-0.3-0.1c-0.1-0.1-0.1-0.1-0.2-0.2c0-0.1-0.1-0.2-0.1-0.4
		c0-0.2,0-0.3,0.1-0.4c0.1-0.1,0.1-0.2,0.2-0.2c0.1-0.1,0.2-0.1,0.3-0.1c0.1,0,0.2-0.1,0.3-0.1c0.1,0,0.2,0,0.4-0.1
		c0.1,0,0.2,0,0.3-0.1c0.1,0,0.2-0.1,0.2-0.1c0,0,0.1-0.1,0.1-0.2c0-0.1,0-0.2-0.1-0.2c0-0.1-0.1-0.1-0.1-0.1
		c-0.1,0-0.1-0.1-0.2-0.1c-0.1,0-0.1,0-0.2,0c-0.2,0-0.3,0-0.5,0.1c-0.1,0.1-0.2,0.2-0.2,0.4h-0.5c0-0.2,0-0.3,0.1-0.4
		c0.1-0.1,0.1-0.2,0.3-0.3c0.1-0.1,0.2-0.1,0.4-0.2c0.1,0,0.3,0,0.4,0c0.1,0,0.2,0,0.4,0c0.1,0,0.2,0.1,0.3,0.1
		c0.1,0.1,0.2,0.1,0.2,0.2c0.1,0.1,0.1,0.2,0.1,0.4v1.4c0,0.1,0,0.2,0,0.2c0,0,0.1,0.1,0.1,0.1c0,0,0.1,0,0.1,0v0.3
		C419.8,575.6,419.7,575.6,419.6,575.6z M418.9,574.3c-0.1,0-0.2,0-0.3,0c-0.1,0-0.2,0-0.3,0c-0.1,0-0.2,0-0.3,0.1
		c-0.1,0-0.1,0.1-0.2,0.2c-0.1,0.1-0.1,0.2-0.1,0.3c0,0.1,0,0.1,0,0.2c0,0.1,0.1,0.1,0.1,0.1c0,0,0.1,0.1,0.2,0.1c0.1,0,0.1,0,0.2,0
		c0.1,0,0.3,0,0.4-0.1c0.1,0,0.2-0.1,0.3-0.2c0.1-0.1,0.1-0.1,0.1-0.2c0-0.1,0-0.1,0-0.2v-0.5C419.1,574.2,419,574.2,418.9,574.3z"
		/>
	<path style="fill:#FFFFFF;" d="M420.7,572.8v0.4h0c0.2-0.3,0.5-0.5,0.9-0.5c0.2,0,0.3,0,0.5,0.1c0.1,0.1,0.2,0.2,0.3,0.4
		c0.1-0.1,0.2-0.3,0.4-0.3c0.1-0.1,0.3-0.1,0.5-0.1c0.1,0,0.3,0,0.4,0c0.1,0,0.2,0.1,0.3,0.1s0.1,0.1,0.2,0.2c0,0.1,0.1,0.2,0.1,0.4
		v2h-0.5v-1.8c0-0.1,0-0.2,0-0.2c0-0.1,0-0.1-0.1-0.2c0-0.1-0.1-0.1-0.2-0.1c-0.1,0-0.2,0-0.3,0c-0.2,0-0.4,0.1-0.5,0.2
		c-0.1,0.1-0.2,0.3-0.2,0.5v1.7H422v-1.8c0-0.1,0-0.2,0-0.2c0-0.1,0-0.1-0.1-0.2c0-0.1-0.1-0.1-0.2-0.1c-0.1,0-0.1,0-0.3,0
		c-0.1,0-0.2,0-0.3,0.1c-0.1,0.1-0.2,0.1-0.2,0.2c-0.1,0.1-0.1,0.2-0.1,0.2c0,0.1,0,0.1,0,0.2v1.7h-0.5v-2.7H420.7z"/>
	<path style="fill:#FFFFFF;" d="M426.9,575.6c-0.1,0-0.2,0-0.3-0.1c-0.1-0.1-0.1-0.2-0.1-0.3c-0.1,0.1-0.3,0.3-0.4,0.3
		c-0.2,0.1-0.3,0.1-0.5,0.1c-0.1,0-0.2,0-0.3,0c-0.1,0-0.2-0.1-0.3-0.1c-0.1-0.1-0.1-0.1-0.2-0.2c0-0.1-0.1-0.2-0.1-0.4
		c0-0.2,0-0.3,0.1-0.4c0.1-0.1,0.1-0.2,0.2-0.2c0.1-0.1,0.2-0.1,0.3-0.1c0.1,0,0.2-0.1,0.3-0.1c0.1,0,0.2,0,0.4-0.1
		c0.1,0,0.2,0,0.3-0.1c0.1,0,0.2-0.1,0.2-0.1c0,0,0.1-0.1,0.1-0.2c0-0.1,0-0.2-0.1-0.2c0-0.1-0.1-0.1-0.1-0.1
		c-0.1,0-0.1-0.1-0.2-0.1c-0.1,0-0.1,0-0.2,0c-0.2,0-0.3,0-0.5,0.1c-0.1,0.1-0.2,0.2-0.2,0.4h-0.5c0-0.2,0-0.3,0.1-0.4
		c0.1-0.1,0.1-0.2,0.3-0.3c0.1-0.1,0.2-0.1,0.4-0.2c0.1,0,0.3,0,0.4,0c0.1,0,0.2,0,0.4,0c0.1,0,0.2,0.1,0.3,0.1
		c0.1,0.1,0.2,0.1,0.2,0.2c0.1,0.1,0.1,0.2,0.1,0.4v1.4c0,0.1,0,0.2,0,0.2c0,0,0.1,0.1,0.1,0.1c0,0,0.1,0,0.1,0v0.3
		C427.2,575.6,427.1,575.6,426.9,575.6z M426.3,574.3c-0.1,0-0.2,0-0.3,0c-0.1,0-0.2,0-0.3,0c-0.1,0-0.2,0-0.3,0.1
		c-0.1,0-0.1,0.1-0.2,0.2c-0.1,0.1-0.1,0.2-0.1,0.3c0,0.1,0,0.1,0,0.2c0,0.1,0.1,0.1,0.1,0.1c0,0,0.1,0.1,0.2,0.1c0.1,0,0.1,0,0.2,0
		c0.1,0,0.3,0,0.4-0.1c0.1,0,0.2-0.1,0.3-0.2c0.1-0.1,0.1-0.1,0.1-0.2c0-0.1,0-0.1,0-0.2v-0.5C426.4,574.2,426.4,574.2,426.3,574.3z
		"/>
	<path style="fill:#FFFFFF;" d="M428.3,575v0.6h-0.6V575H428.3z"/>
	<path style="fill:#FFFFFF;" d="M430.8,573.3c-0.1-0.1-0.3-0.1-0.5-0.1c-0.2,0-0.3,0-0.4,0.1c-0.1,0.1-0.2,0.1-0.3,0.2
		c-0.1,0.1-0.1,0.2-0.1,0.3c0,0.1,0,0.3,0,0.4c0,0.1,0,0.3,0,0.4c0,0.1,0.1,0.2,0.1,0.3c0.1,0.1,0.1,0.2,0.2,0.2
		c0.1,0.1,0.2,0.1,0.4,0.1c0.2,0,0.4-0.1,0.5-0.2c0.1-0.1,0.2-0.3,0.2-0.5h0.5c0,0.3-0.2,0.6-0.4,0.8c-0.2,0.2-0.5,0.3-0.8,0.3
		c-0.2,0-0.4,0-0.6-0.1c-0.2-0.1-0.3-0.2-0.4-0.3c-0.1-0.1-0.2-0.3-0.2-0.4c-0.1-0.2-0.1-0.4-0.1-0.6c0-0.2,0-0.4,0.1-0.6
		c0.1-0.2,0.1-0.3,0.2-0.5c0.1-0.1,0.2-0.2,0.4-0.3c0.2-0.1,0.4-0.1,0.6-0.1c0.2,0,0.3,0,0.4,0.1c0.1,0,0.3,0.1,0.4,0.2
		c0.1,0.1,0.2,0.2,0.3,0.3c0.1,0.1,0.1,0.3,0.1,0.4H431C431,573.5,430.9,573.4,430.8,573.3z"/>
	<path style="fill:#FFFFFF;" d="M431.9,573.6c0.1-0.2,0.1-0.3,0.3-0.5c0.1-0.1,0.3-0.2,0.4-0.3c0.2-0.1,0.4-0.1,0.6-0.1
		c0.2,0,0.4,0,0.6,0.1c0.2,0.1,0.3,0.2,0.4,0.3c0.1,0.1,0.2,0.3,0.3,0.5c0.1,0.2,0.1,0.4,0.1,0.6c0,0.2,0,0.4-0.1,0.6
		c-0.1,0.2-0.1,0.3-0.3,0.5c-0.1,0.1-0.3,0.2-0.4,0.3c-0.2,0.1-0.4,0.1-0.6,0.1c-0.2,0-0.4,0-0.6-0.1c-0.2-0.1-0.3-0.2-0.4-0.3
		c-0.1-0.1-0.2-0.3-0.3-0.5c-0.1-0.2-0.1-0.4-0.1-0.6C431.8,574,431.9,573.8,431.9,573.6z M432.4,574.6c0,0.1,0.1,0.2,0.2,0.3
		c0.1,0.1,0.2,0.2,0.3,0.2c0.1,0,0.2,0.1,0.3,0.1c0.1,0,0.2,0,0.3-0.1c0.1,0,0.2-0.1,0.3-0.2c0.1-0.1,0.1-0.2,0.2-0.3
		c0-0.1,0.1-0.3,0.1-0.4s0-0.3-0.1-0.4c0-0.1-0.1-0.2-0.2-0.3c-0.1-0.1-0.2-0.2-0.3-0.2c-0.1,0-0.2-0.1-0.3-0.1
		c-0.1,0-0.2,0-0.3,0.1c-0.1,0-0.2,0.1-0.3,0.2c-0.1,0.1-0.1,0.2-0.2,0.3c0,0.1-0.1,0.3-0.1,0.4S432.3,574.5,432.4,574.6z"/>
	<path style="fill:#FFFFFF;" d="M435.4,572.8v0.4h0c0.2-0.3,0.5-0.5,0.9-0.5c0.2,0,0.3,0,0.5,0.1s0.2,0.2,0.3,0.4
		c0.1-0.1,0.2-0.3,0.4-0.3c0.1-0.1,0.3-0.1,0.5-0.1c0.1,0,0.3,0,0.4,0c0.1,0,0.2,0.1,0.3,0.1s0.1,0.1,0.2,0.2c0,0.1,0.1,0.2,0.1,0.4
		v2h-0.5v-1.8c0-0.1,0-0.2,0-0.2c0-0.1,0-0.1-0.1-0.2c0-0.1-0.1-0.1-0.2-0.1c-0.1,0-0.2,0-0.3,0c-0.2,0-0.4,0.1-0.5,0.2
		c-0.1,0.1-0.2,0.3-0.2,0.5v1.7h-0.5v-1.8c0-0.1,0-0.2,0-0.2c0-0.1,0-0.1-0.1-0.2c0-0.1-0.1-0.1-0.2-0.1c-0.1,0-0.1,0-0.3,0
		c-0.1,0-0.2,0-0.3,0.1c-0.1,0.1-0.2,0.1-0.2,0.2c-0.1,0.1-0.1,0.2-0.1,0.2c0,0.1,0,0.1,0,0.2v1.7H435v-2.7H435.4z"/>
</g>
<g>
	<path style="fill:#FFFFFF;" d="M417.1,287.5c-1,0.3-2.1,0.6-3.3,0.9c-1.1-1.2-2.1-2.3-3.2-3.4c-0.8-0.7-1.4-1.2-1.7-1.4l2.3-1.9
		c0.6,0.5,1.3,0.8,2.1,0.8h4.6v-1.8h2.9v4.8H415c0.2,0.2,0.5,0.5,1,0.9C416.5,286.8,416.8,287.2,417.1,287.5z M426.9,290.7v3.3h-5
		v4.7h-3.1v-4.7h-6.7v5.3h-2.9v-12.6h2.9v4H426.9z M427.1,284.3c-1.3,1.2-2.5,2.2-3.3,3l-2-2.6c0.1-0.1,0.3-0.2,0.5-0.3
		c1.2-1,2.2-1.9,3-2.6L427.1,284.3z"/>
	<path style="fill:#FFFFFF;" d="M420.1,300.9v7.1c0.8,0.1,1.8,0.1,2.9,0.1V302h3v16h-3v-6.4c-0.4,0-0.9,0-1.5-0.1
		c-0.6,0-1.1,0-1.4,0v7.5h-3v-7.2c-2.7,1-4.5,3.6-5.4,7.6c-1-0.7-2.1-1.3-3.1-1.9c1.2-4,3.1-6.6,5.6-7.6c-2.3-1-4.3-3.5-5.8-7.5
		c1.1-0.7,2.1-1.3,2.8-1.9c1.5,4.3,3.5,6.7,5.9,7.2v-6.8H420.1z"/>
	<path style="fill:#FFFFFF;" d="M425.9,320.6v18.5h-3.2v-8.1H419l1.7,1.5c-1.6,2.2-3.1,4.3-4.6,6.2l-2.7-2.2c1.7-2,3.2-3.8,4.3-5.4
		h-9.2v-3.6h14.2v-6.7H425.9z"/>
	<path style="fill:#FFFFFF;" d="M416.4,342.8l-1.2,2.9c-0.7-0.2-1.8-0.6-3.3-1.1c-1.6-0.5-2.8-0.9-3.6-1.2l1.2-2.9
		C412.3,341.5,414.6,342.3,416.4,342.8z M419.3,358h-2.9c-1.6-1.1-2.9-2.2-4-3.3c-0.5,1.2-0.9,2.8-1.2,4.6c-0.4-0.3-1-0.6-2-1.2
		c-0.3-0.2-0.5-0.3-0.7-0.4c0.6-2.4,1.2-4.4,2-5.8c-0.9-1.7-1.6-3.6-2.1-5.7c0.3-0.2,0.6-0.4,1.1-0.6c0.7-0.4,1.2-0.7,1.6-0.9
		c0.4,1.8,0.9,3.2,1.3,4.3c0.9-0.8,1.9-1.7,3-2.6l1.2,1.9v-2.4h2.7V358z M416.6,349.1c-1.1,0.9-2,1.8-2.7,2.7
		c0.7,0.9,1.6,1.8,2.7,2.6V349.1z M422,342.3c-0.5,0.6-1.2,1.5-2.2,2.6c-0.3,0.3-0.5,0.5-0.6,0.7l-2.5-2.2c0.8-0.8,1.8-1.8,3-3.2
		L422,342.3z M422.8,357.5v1.6c-0.9-0.2-1.8-0.3-2.6-0.5c0-0.2,0-0.5,0-1c-0.1-0.6-0.1-1.1-0.1-1.6c-0.1-1.7,0.7-2.5,2.3-2.5h1.2
		v-3.3c-1.8,0-3.2-1.1-4.3-3.2c0.7-0.7,1.4-1.4,2.1-2.1c0.8,1.8,1.9,2.6,3.3,2.4h1.6v9.2h-2.8C423,356.5,422.8,356.8,422.8,357.5z
		 M426.9,342.9c-0.9,1.2-1.8,2.3-2.7,3.3l-2.4-2.2c1-0.9,1.9-2,2.9-3.1L426.9,342.9z"/>
	<path style="fill:#FFFFFF;" d="M408.5,366.4v-3.2h7.2c-0.4-0.3-0.8-0.8-1.4-1.5c-0.2-0.3-0.4-0.4-0.5-0.5c0.7-0.2,1.8-0.6,3.3-1.1
		c1.8,2,3.5,3.5,5.3,4.4v-4.1h2.8v5.4c0.3,0.1,0.6,0.2,1.2,0.4c0.3,0.1,0.5,0.2,0.7,0.2l-0.2,3.6c-0.5-0.2-1.1-0.4-1.6-0.6v9.5h-2.8
		v-10.8c-0.2-0.1-0.5-0.3-0.8-0.5l-0.2-0.1v9.7h-10.2c-1.9,0.2-2.8-0.8-2.8-2.9c-0.1-0.9-0.1-2.1-0.1-3.5c1-0.2,1.9-0.4,2.6-0.7
		c0,0.9,0,1.8,0,2.6c-0.1,0.9,0.3,1.4,1.1,1.4v-7.8H408.5z M415.5,366.4h-0.9v7.8h0.9V366.4z M418.9,366.4h-1v7.8h1V366.4z"/>
	<path style="fill:#FFFFFF;" d="M426.6,395.4c-0.3,0.1-0.7,0.2-1.4,0.4c-0.6,0.2-1.1,0.3-1.4,0.4v2.3h-2.5v-2.9h-1.5v2.6h-2.5v-2.6
		h-1.6v2.6h-2.5v-2.6h-1.6v3h-2.3v-8h-1.1v-2.9h3.1l-1.3-2.1c0.3-0.3,0.8-0.6,1.6-1c0.6-0.3,1-0.5,1.2-0.7c-1.3-0.7-2.7-1.7-4.1-2.9
		c0.5-0.2,1.1-0.5,1.9-0.8c0.6-0.2,1-0.4,1.2-0.5c1.2,1.1,2.5,1.9,3.9,2.6c0.4-0.3,1-0.6,1.9-1.1c1.1-0.7,2-1.2,2.6-1.6l1.4,2.2
		c-0.9,0.6-1.8,1.1-2.6,1.6c1.1,0.3,2.3,0.5,3.6,0.5v-3.8h2.8v6.7c-1.7-0.1-3.3-0.2-4.7-0.5c1.8,1.1,3.9,2,6.3,2.6l-0.5,3.1
		c-1-0.3-1.9-0.6-2.8-0.9v1.9c0.8-0.2,1.6-0.4,2.5-0.7L426.6,395.4z M413.4,390.7h-1.6v2.2h1.6V390.7z M416.7,387
		c1-0.2,1.9-0.4,2.6-0.7c-1.1-0.2-2.2-0.4-3.3-0.9c-0.6,0.3-1.3,0.8-2.3,1.4c-0.8,0.5-1.3,0.8-1.7,1h5.8
		C417.5,387.6,417.1,387.3,416.7,387z M417.4,390.7h-1.6v2.2h1.6V390.7z M421.4,390.7h-1.5v2.2h1.5V390.7z"/>
	<path style="fill:#FFFFFF;" d="M426.9,412.7l-0.5,2.9c-0.9-0.2-1.9-0.5-2.8-0.9v4H421v-0.7c-3.2-0.2-5.7-0.8-7.5-1.7
		c-0.7,0.7-1.5,1.5-2.2,2.4c-1-0.5-1.9-1-2.7-1.4c0.8-1.1,1.6-2,2.4-2.6c-0.9-0.9-1.8-1.9-2.6-3c0.8-0.5,1.5-0.9,2.2-1.4v-2.9h-0.9
		v-2.6h9.2v1.7h2.3v-1.9h2.7v1.9h3.2v2.9h-3.2v1.6h-2.5C422.9,411.7,424.8,412.3,426.9,412.7z M408.6,403.9v-2.6h8
		c-0.6-0.3-1.1-0.6-1.6-0.9c1.4-0.2,2.8-0.4,4.1-0.6c1.9,0.9,4.5,1.7,7.8,2.6l-0.5,2.9c-1.3-0.4-2.6-0.8-3.9-1.2H408.6z M413.5,413
		c1.2-0.5,2.7-0.9,4.3-1.2c-0.1-0.1-0.2-0.1-0.3-0.2c-0.2-0.2-0.3-0.3-0.4-0.3c0.2-0.1,0.4-0.1,0.7-0.2c0.3-0.1,0.4-0.2,0.5-0.2
		h-6.9C412.2,411.7,412.9,412.4,413.5,413z M416.1,407.3h-3.3v1.1h3.3V407.3z M421,413.8c-1.9,0.1-3.4,0.3-4.7,0.8
		c1.2,0.4,2.8,0.6,4.7,0.8V413.8z M420,410.4c0.3,0.2,0.6,0.3,0.9,0.4v-1.5h-2.3v1.5C419.1,410.7,419.6,410.5,420,410.4z"/>
	<path style="fill:#FFFFFF;" d="M412.6,437.9c-2.5,0-3.7-1.1-3.8-3.4c-0.1-0.9-0.1-2.1-0.1-3.6c0.2-0.1,0.5-0.1,0.9-0.2
		c0.6-0.1,1.3-0.3,2.1-0.5c-0.1,0.6-0.1,1.6-0.1,2.8c-0.1,1.1,0.4,1.7,1.6,1.7c0.5,0,1.6,0,3.3,0c2.2,0.1,3.7,0.1,4.6,0.1v-2.7
		c-0.8-0.3-1.6-0.7-2.4-1.1c0.4-0.8,0.9-1.6,1.3-2.4h-11.2v-3h1.1v-2.2h-1.2v-3h15.4v2.2c1,0.3,2,0.4,2.9,0.5l-0.4,3.4
		c-0.2-0.1-0.4-0.1-0.6-0.2c-0.6-0.1-1.2-0.3-1.9-0.5v2.8h-3.3c2.2,1,4.3,1.8,6.2,2.3l-0.7,3.1c-0.3-0.1-0.6-0.2-1.1-0.3
		c-0.5-0.2-0.9-0.3-1.2-0.4v4.7C418.4,438,414.6,437.9,412.6,437.9z M415.5,423.4h-2.7v2.2h2.7V423.4z M419,431.8
		c-0.6,0.5-1.4,1.1-2.6,2c-0.5,0.4-0.9,0.6-1.2,0.9l-1.7-2.6c1.7-1.1,3-2,4-2.7L419,431.8z M421.1,423.4h-2.7v2.2h2.7V423.4z"/>
	<path style="fill:#FFFFFF;" d="M408.5,449.5v-3h9.5c-0.3-0.2-0.6-0.5-1-0.8c0.2,0,0.5,0,0.8-0.1c0.4-0.1,0.6-0.1,0.8-0.2
		c-1.1,0-2,0-2.7,0c-0.2-0.4-0.3-0.8-0.3-1.2H411c-1.5,0.1-2.3-0.6-2.3-2c-0.1-0.7-0.2-1.4-0.2-2.2c0.1,0,0.2,0,0.4-0.1
		c0.7-0.1,1.5-0.3,2.4-0.5v1.2c0,0.5,0.3,0.7,0.8,0.6h2.6c-0.2-0.5-0.3-1.1-0.5-1.7l3.3-0.2c0,0.1,0,0.2,0.1,0.4
		c0.1,0.4,0.2,0.9,0.3,1.6h3.3v-1.6h2.8v1.6h3.1v2.9h-3.1v1.3h-2.3c1.3,0.9,3.2,1.6,5.6,2.2l-0.4,3.3c-0.3-0.1-0.8-0.3-1.4-0.5
		c-0.7-0.3-1.2-0.4-1.5-0.5v2.3c0.8-0.3,1.7-0.5,2.6-0.9l0.3,3.1c-0.2,0.1-0.4,0.1-0.7,0.2c-0.5,0.2-1.2,0.4-2.2,0.6v2.6h-2.5V455
		h-1.6v2.9h-2.5V455h-1.5v2.9h-2.5V455h-1.6v3.3h-2.3v-8.8H408.5z M413.4,449.5h-1.6v2.5h1.6V449.5z M417.3,449.5h-1.5v2.5h1.5
		V449.5z M418.5,444.3c0.1,0.3,0.2,0.7,0.2,1.1c0.6-0.1,1.2-0.2,1.8-0.4c0.2,0.2,0.3,0.3,0.5,0.3v-1H418.5z M421.4,449.5h-1.6v2.5
		h1.6V449.5z"/>
	<path style="fill:#FFFFFF;" d="M418.2,470.1c-2.5,0-4.4-0.2-5.7-0.5c-1.2-0.3-2.6-0.9-4.1-1.8c0.7-0.9,1.4-1.9,2.2-2.9
		c1.1,0.8,2.1,1.3,3.1,1.6c0.9,0.2,2.5,0.3,4.6,0.3h6.7v6.7c0.4-0.1,1-0.3,1.8-0.5c0.2-0.1,0.3-0.1,0.3-0.1l0.2,4.2
		c-0.2,0.1-0.6,0.2-1.1,0.3c-0.6,0.1-1,0.2-1.2,0.2v6.1h-3.1v-13.6H418.2z"/>
</g>
<g>
	<defs>
		<rect id="SVGID_19_" x="518.9" y="157.7" width="300.2" height="439"/>
	</defs>
	<clipPath id="SVGID_20_">
		<use xlink:href="#SVGID_19_"  style="overflow:visible;"/>
	</clipPath>
	<rect x="518.9" y="142.8" style="clip-path:url(#SVGID_20_);fill:#FFFFFF;" width="300.2" height="454.6"/>
	<path style="clip-path:url(#SVGID_20_);fill:#FFC07D;" d="M842.5,330.6c0,0,24.2-13.7,28.9,30c4.7,43.7,16.7,107.3-10.7,174.5
		c-27.4,67.2-120.9,164.5-187.6,125.7C606.4,622.2,785.3,339.3,842.5,330.6z"/>
</g>
<g>
	<defs>
		<rect id="SVGID_21_" x="518.9" y="179.9" width="214.9" height="416.9"/>
	</defs>
	<clipPath id="SVGID_22_">
		<use xlink:href="#SVGID_21_"  style="overflow:visible;"/>
	</clipPath>
	<path style="clip-path:url(#SVGID_22_);fill:#FFBC80;" d="M497,330.6c0,0-24.1-13.9-29,29.9c-4.9,43.7-17.1,107.2,9.9,174.5
		c27.1,67.4,120.2,165,187,126.6C731.7,623.2,554.1,339.5,497,330.6z"/>
</g>
<g>
	<defs>
		<rect id="SVGID_23_" x="518.9" y="288.4" width="131.2" height="308.9"/>
	</defs>
	<clipPath id="SVGID_24_">
		<use xlink:href="#SVGID_23_"  style="overflow:visible;"/>
	</clipPath>
	<g id="形状_10_拷贝_26_" style="clip-path:url(#SVGID_24_);">
		<g>
			<path style="fill:#FF9B48;" d="M590.4,612.2C580,476.4,479.5,415.3,479.5,415.3s-20.1-19.4-23.6,3
				c-14.5,170.4,118.8,217.3,118.8,217.3S592.5,643.6,590.4,612.2z"/>
		</g>
	</g>
</g>
<g>
	<defs>
		<rect id="SVGID_25_" x="687.9" y="288.4" width="131.2" height="308.9"/>
	</defs>
	<clipPath id="SVGID_26_">
		<use xlink:href="#SVGID_25_"  style="overflow:visible;"/>
	</clipPath>
	<g id="形状_10_拷贝_24_" style="clip-path:url(#SVGID_26_);">
		<g>
			<path style="fill:#FF9B48;" d="M882.1,418.2c-3.4-22.4-23.6-3-23.6-3s-100.5,61.2-110.9,196.9c-2.2,31.5,15.7,23.4,15.7,23.4
				S896.6,588.6,882.1,418.2z"/>
		</g>
	</g>
</g>
<g>
	<defs>
		<rect id="SVGID_27_" x="518.9" y="235.9" width="98.1" height="360.9"/>
	</defs>
	<clipPath id="SVGID_28_">
		<use xlink:href="#SVGID_27_"  style="overflow:visible;"/>
	</clipPath>
	<g id="形状_10_拷贝_19_" style="clip-path:url(#SVGID_28_);">
		<g>
			<path style="fill:#FF9B48;" d="M729.7,794.5c0,0-13.2-25.3-23.5-5c-66.9,158.4,46.1,247.4,46.1,247.4s14.6,13.7,22.3-17.2
				C806.9,886.3,729.7,794.5,729.7,794.5z"/>
		</g>
	</g>
</g>
<g>
	<defs>
		<rect id="SVGID_29_" x="518.9" y="243" width="300.2" height="354.3"/>
	</defs>
	<clipPath id="SVGID_30_">
		<use xlink:href="#SVGID_29_"  style="overflow:visible;"/>
	</clipPath>
	<path style="clip-path:url(#SVGID_30_);fill-rule:evenodd;clip-rule:evenodd;fill:#66361F;" d="M673.7,868.8
		c0.8,0.6-97.8-29.2-139.8-139.2c0.3-2.3-44.5,82.7-115.5,116.1c1-4.3,2.2-8.1,2.9-11.1c10.8-47.5,20.3-93.3,36.4-141.1
		c36.3-107.6,123.8-147.1,213.3-145.6c90.4,1.5,176.1,41.1,210.2,142.1c16.1,47.8,30.4,109.3,38.4,145.1c0.4,1.7,1.1,3.9,1.6,5.9
		c-24.2-3.8-67.1-23.3-108.1-106.4C815.3,734.8,794.1,808.3,673.7,868.8z"/>
</g>
<g>
	<defs>
		<rect id="SVGID_31_" x="518.9" y="217.8" width="300.2" height="379.5"/>
	</defs>
	<clipPath id="SVGID_32_">
		<use xlink:href="#SVGID_31_"  style="overflow:visible;"/>
	</clipPath>
	<path style="clip-path:url(#SVGID_32_);fill:#E5432E;" d="M743.8,390.2c3.3-2.8,12.8-12.5,16.6,8.6c3.8,21.1,20.9,88.5-10.2,134.3
		c-31.2,45.8-87.4,122.6-86.5,30c0.4-39.4,13.7-76.2,29.5-105.6C714.6,417.7,740.5,393,743.8,390.2z"/>
</g>
<g>
	<defs>
		<rect id="SVGID_33_" x="518.9" y="209.3" width="300.2" height="388.1"/>
	</defs>
	<clipPath id="SVGID_34_">
		<use xlink:href="#SVGID_33_"  style="overflow:visible;"/>
	</clipPath>
	<path style="clip-path:url(#SVGID_34_);fill-rule:evenodd;clip-rule:evenodd;fill:#E5432E;" d="M496.2,713.6
		c3.3-13.2,6.8-27.2,10.6-41.1c25.2-34.2,77.9-88.4,159.5-87.6c94.3,0.9,140.1,52.7,163.4,86.2c3.4,12.8,6.4,25.7,9.4,38.1
		c-22.2-23.8-81.2-75.6-172.8-75.3C584.6,634.3,526.2,684.6,496.2,713.6z"/>
</g>
<g>
	<defs>
		<rect id="SVGID_35_" x="518.3" y="360.8" width="281" height="236.5"/>
	</defs>
	<clipPath id="SVGID_36_">
		<use xlink:href="#SVGID_35_"  style="overflow:visible;"/>
	</clipPath>
	<path style="clip-path:url(#SVGID_36_);fill:#E5432E;" d="M596.7,390.1c-3.3-2.8-12.8-12.4-16.6,8.6
		c-3.8,21.1-20.9,88.4,10.2,134.1c31.2,45.7,87.4,122.5,86.5,30c-0.4-39.4-13.7-76.1-29.5-105.5
		C625.9,417.6,600.1,392.9,596.7,390.1z"/>
</g>
<rect x="518.9" y="157.7" style="fill:none;stroke:#D8D8D8;stroke-miterlimit:10;" width="300.2" height="439.6"/>
<g>
	<path style="fill:#EC6C00;" d="M644.6,235h-2.7l4.2-8.2h3l4,8.2h-3l-0.6-1.5h-4.2L644.6,235z M648.8,231.7l-1.3-3l-1.4,3H648.8z"/>
	<path style="fill:#EC6C00;" d="M653.6,235v-8.2h2.6v8.2H653.6z"/>
	<path style="fill:#EC6C00;" d="M657.8,228.5v-1.7h2.6v1.7H657.8z M657.8,235v-5.7h2.6v5.7H657.8z"/>
	<path style="fill:#EC6C00;" d="M661.9,226.8h2.6v3.3c0.3-0.3,0.7-0.6,1-0.7c0.4-0.2,0.8-0.2,1.3-0.2c0.9,0,1.6,0.3,2.2,0.9
		c0.5,0.6,0.8,1.3,0.8,2.3c0,0.9-0.3,1.5-0.8,2.1c-0.5,0.5-1.2,0.8-2.1,0.8c-0.5,0-0.9-0.1-1.3-0.3c-0.4-0.2-0.7-0.4-1-0.8
		c0,0.2,0,0.4,0,0.5c0,0.2,0,0.3-0.1,0.4h-2.6c0-0.1,0.1-0.2,0.1-0.4c0-0.2,0-0.3,0-0.6V226.8z M667.1,232.2c0-0.5-0.1-0.9-0.4-1.2
		c-0.2-0.3-0.6-0.4-1-0.4c-0.4,0-0.8,0.1-1,0.4c-0.2,0.3-0.3,0.7-0.3,1.2c0,0.5,0.1,0.9,0.3,1.2c0.2,0.3,0.6,0.4,1,0.4
		c0.4,0,0.7-0.1,1-0.4C667,233.1,667.1,232.7,667.1,232.2z"/>
	<path style="fill:#EC6C00;" d="M675.6,234.2c-0.2,0.3-0.6,0.6-1,0.7c-0.4,0.2-0.9,0.2-1.4,0.2c-0.8,0-1.4-0.1-1.9-0.4
		c-0.4-0.3-0.7-0.7-0.7-1.2c0-0.7,0.4-1.2,1.1-1.6c0.8-0.3,2-0.5,3.8-0.5c0,0,0,0,0-0.1c0,0,0-0.1,0-0.1c0-0.3-0.1-0.5-0.3-0.7
		c-0.2-0.1-0.4-0.2-0.8-0.2c-0.3,0-0.6,0.1-0.7,0.2c-0.2,0.1-0.3,0.3-0.3,0.5h-2.4c0-0.6,0.3-1.1,0.9-1.4c0.6-0.3,1.5-0.5,2.7-0.5
		c1.2,0,2,0.2,2.6,0.5c0.6,0.4,0.8,0.9,0.8,1.6v2.9c0,0.2,0,0.3,0,0.4c0,0.1,0,0.2,0.1,0.3h-2.4c0-0.1-0.1-0.3-0.1-0.4
		C675.6,234.4,675.6,234.3,675.6,234.2z M675.5,232.5c-0.8,0-1.4,0.1-1.7,0.2c-0.3,0.1-0.5,0.3-0.5,0.6c0,0.2,0.1,0.3,0.2,0.4
		c0.1,0.1,0.4,0.2,0.6,0.2c0.4,0,0.8-0.1,1-0.3C675.4,233.4,675.5,233,675.5,232.5L675.5,232.5z"/>
	<path style="fill:#EC6C00;" d="M679.5,226.8h2.6v3.3c0.3-0.3,0.7-0.6,1-0.7c0.4-0.2,0.8-0.2,1.3-0.2c0.9,0,1.6,0.3,2.2,0.9
		c0.5,0.6,0.8,1.3,0.8,2.3c0,0.9-0.3,1.5-0.8,2.1c-0.5,0.5-1.2,0.8-2.1,0.8c-0.5,0-0.9-0.1-1.3-0.3c-0.4-0.2-0.7-0.4-1-0.8
		c0,0.2,0,0.4,0,0.5c0,0.2,0,0.3-0.1,0.4h-2.6c0-0.1,0.1-0.2,0.1-0.4c0-0.2,0-0.3,0-0.6V226.8z M684.8,232.2c0-0.5-0.1-0.9-0.4-1.2
		c-0.2-0.3-0.6-0.4-1-0.4c-0.4,0-0.8,0.1-1,0.4c-0.2,0.3-0.3,0.7-0.3,1.2c0,0.5,0.1,0.9,0.3,1.2c0.2,0.3,0.6,0.4,1,0.4
		c0.4,0,0.7-0.1,1-0.4C684.7,233.1,684.8,232.7,684.8,232.2z"/>
	<path style="fill:#EC6C00;" d="M693.2,234.2c-0.3,0.3-0.6,0.6-1,0.7c-0.4,0.2-0.9,0.2-1.4,0.2c-0.8,0-1.4-0.1-1.9-0.4
		c-0.4-0.3-0.7-0.7-0.7-1.2c0-0.7,0.4-1.2,1.1-1.6c0.8-0.3,2-0.5,3.8-0.5c0,0,0,0,0-0.1c0,0,0-0.1,0-0.1c0-0.3-0.1-0.5-0.3-0.7
		c-0.2-0.1-0.4-0.2-0.8-0.2c-0.3,0-0.6,0.1-0.7,0.2c-0.2,0.1-0.3,0.3-0.3,0.5h-2.4c0-0.6,0.3-1.1,0.9-1.4c0.6-0.3,1.5-0.5,2.7-0.5
		c1.2,0,2,0.2,2.6,0.5c0.6,0.4,0.8,0.9,0.8,1.6v2.9c0,0.2,0,0.3,0,0.4c0,0.1,0,0.2,0.1,0.3h-2.4c0-0.1-0.1-0.3-0.1-0.4
		C693.3,234.4,693.2,234.3,693.2,234.2z M693.2,232.5c-0.8,0-1.4,0.1-1.7,0.2c-0.3,0.1-0.5,0.3-0.5,0.6c0,0.2,0.1,0.3,0.2,0.4
		c0.2,0.1,0.4,0.2,0.6,0.2c0.4,0,0.8-0.1,1-0.3C693.1,233.4,693.2,233,693.2,232.5L693.2,232.5z"/>
	<path style="fill:#EC6C00;" d="M703.9,231.8v-1h3.4v3c-0.5,0.4-1.1,0.7-1.6,0.9c-0.6,0.2-1.1,0.3-1.7,0.3c-0.8,0-1.5-0.2-2.2-0.5
		c-0.7-0.3-1.1-0.8-1.5-1.5c-0.3-0.6-0.5-1.4-0.5-2.2c0-0.8,0.2-1.5,0.5-2.2c0.3-0.7,0.8-1.2,1.4-1.5c0.6-0.3,1.3-0.5,2.1-0.5
		c0.6,0,1.1,0.1,1.6,0.3c0.5,0.2,0.8,0.5,1.1,0.8c0.3,0.3,0.5,0.8,0.6,1.3l-1,0.3c-0.1-0.4-0.3-0.7-0.5-1c-0.2-0.2-0.4-0.4-0.8-0.6
		c-0.3-0.1-0.7-0.2-1.1-0.2c-0.5,0-0.9,0.1-1.3,0.2c-0.4,0.1-0.6,0.3-0.9,0.6c-0.2,0.2-0.4,0.5-0.5,0.8c-0.2,0.5-0.3,1-0.3,1.6
		c0,0.7,0.1,1.3,0.4,1.8c0.2,0.5,0.6,0.8,1.1,1.1c0.5,0.2,1,0.4,1.5,0.4c0.5,0,0.9-0.1,1.4-0.3c0.4-0.2,0.8-0.4,1-0.6v-1.5H703.9z"
		/>
	<path style="fill:#EC6C00;" d="M708.7,235v-5.9h0.9v0.9c0.2-0.4,0.4-0.7,0.6-0.8c0.2-0.1,0.4-0.2,0.6-0.2c0.3,0,0.7,0.1,1,0.3
		l-0.3,0.9c-0.2-0.1-0.5-0.2-0.7-0.2c-0.2,0-0.4,0.1-0.6,0.2c-0.2,0.1-0.3,0.3-0.4,0.5c-0.1,0.4-0.2,0.7-0.2,1.2v3.1H708.7z"/>
	<path style="fill:#EC6C00;" d="M712.3,232.1c0-1.1,0.3-1.9,0.9-2.4c0.5-0.4,1.1-0.7,1.8-0.7c0.8,0,1.5,0.3,2,0.8
		c0.5,0.5,0.8,1.3,0.8,2.2c0,0.8-0.1,1.3-0.3,1.8c-0.2,0.4-0.6,0.8-1,1c-0.4,0.2-0.9,0.4-1.4,0.4c-0.8,0-1.5-0.3-2-0.8
		C712.6,233.8,712.3,233,712.3,232.1z M713.3,232.1c0,0.8,0.2,1.3,0.5,1.7c0.3,0.4,0.7,0.6,1.2,0.6c0.5,0,0.9-0.2,1.2-0.6
		c0.3-0.4,0.5-0.9,0.5-1.7c0-0.7-0.2-1.3-0.5-1.7c-0.3-0.4-0.7-0.6-1.2-0.6c-0.5,0-0.9,0.2-1.2,0.6
		C713.5,230.7,713.3,231.3,713.3,232.1z"/>
	<path style="fill:#EC6C00;" d="M723,235v-0.9c-0.5,0.7-1.1,1-1.9,1c-0.3,0-0.7-0.1-1-0.2c-0.3-0.1-0.5-0.3-0.7-0.5
		c-0.1-0.2-0.2-0.4-0.3-0.7c0-0.2-0.1-0.5-0.1-0.9v-3.6h1v3.3c0,0.5,0,0.9,0.1,1c0.1,0.3,0.2,0.5,0.4,0.6c0.2,0.1,0.5,0.2,0.8,0.2
		c0.3,0,0.6-0.1,0.8-0.2c0.3-0.2,0.4-0.4,0.6-0.6c0.1-0.3,0.2-0.6,0.2-1.1v-3.1h1v5.9H723z"/>
	<path style="fill:#EC6C00;" d="M725.6,237.2v-8.1h0.9v0.8c0.2-0.3,0.5-0.5,0.7-0.7c0.3-0.1,0.6-0.2,1-0.2c0.5,0,0.9,0.1,1.3,0.4
		c0.4,0.3,0.7,0.6,0.9,1.1c0.2,0.5,0.3,1,0.3,1.5c0,0.6-0.1,1.1-0.3,1.6c-0.2,0.5-0.5,0.8-0.9,1.1c-0.4,0.3-0.8,0.4-1.3,0.4
		c-0.3,0-0.6-0.1-0.9-0.2c-0.3-0.1-0.5-0.3-0.6-0.5v2.9H725.6z M726.5,232.1c0,0.8,0.2,1.3,0.5,1.7c0.3,0.4,0.7,0.5,1.1,0.5
		c0.4,0,0.8-0.2,1.1-0.6c0.3-0.4,0.5-1,0.5-1.7c0-0.7-0.2-1.3-0.5-1.7c-0.3-0.4-0.7-0.6-1.1-0.6c-0.4,0-0.8,0.2-1.1,0.6
		C726.7,230.8,726.5,231.3,726.5,232.1z"/>
</g>
<path style="fill-rule:evenodd;clip-rule:evenodd;fill:#231815;" d="M616,242.3c-0.1,0-0.4-0.1-0.5-0.3c-1.5-1.5,0.4-3.2,2.7-4.2
	v-2.9c0.5,0.3,0.8,0.4,0.8,0.4l1.7-1.7l-0.6-1.5c5.1-1.8,7.2-2.4,11.3-3.1l-0.7-0.7l1.2-0.7c2.8,0.9,5.4,1.2,5,3.5
	c0.1-1.6-1.9-2.2-4.9-3l-0.6,0.4l1.1,0.9c-5,0.9-8,1.8-11.7,3.1l0.5,1.3l-1.8,1.8c0.3,0.1,3.5,1.1,6.8-1.2c0,0,0.1,0,0.1-0.1
	c-0.1-0.2-0.3-0.3-0.6-0.6c1,0.1,1.6,0.9,1.5,1.8h-0.5c0-0.3,0-0.6-0.1-0.8c-2.6,1.9-5.6,2.2-8.1,1.3v2.2c-1.2,0.4-3.4,1.8-3.4,3.1
	C615.4,241.9,615.7,242.1,616,242.3z"/>
<path style="fill-rule:evenodd;clip-rule:evenodd;fill:#EC6C00;" d="M626.4,241.7c-2.8,1.4-5.4,2.5-9.5,2.7
	c-5.3-0.1-6.1-3.6-3.6-7.3c2.4-3.7,6.1-7.1,12.1-9.1c1.7-0.6,4.3-1.3,6.7-1.3c3.5,0,7,1.1,6.7,4.5c-0.1,2.6-3.9,6.3-5.8,8.9
	c-0.8,1.1-1,1.9,0.5,1.8c5.2-0.3,10-2.2,14.4-4c-3,2-18.4,9.7-18.4,4.5c0-0.7,0.3-1.4,0.8-2.1c0.5-0.7,1.2-1.5,1.9-2.3
	c1.1-1.2,3.7-4.1,4.5-5.8c1.5-3.3-1.8-3.4-4.7-4.4l-1.2,0.7l0.7,0.7c-4.2,0.7-6.2,1.4-11.3,3.1l0.6,1.5l-1.7,1.7
	c0,0-0.3-0.1-0.8-0.4v2.9c-2.3,1-4.3,2.7-2.7,4.2c0.2,0.1,0.4,0.3,0.5,0.3l0,0C618.8,243.9,626.4,241.7,626.4,241.7z"/>
<g>
	<path style="fill:#EC6C00;" d="M642.7,243h0.4c0.1,0,0.1,0,0.2,0c0,0,0.1,0,0.1-0.1c0,0,0-0.1,0-0.1c0-0.1,0-0.1-0.1-0.1
		c0,0-0.1-0.1-0.2-0.1h-0.4V243z M642.5,243.7v-1.3h0.6c0.1,0,0.2,0,0.3,0c0.1,0,0.1,0.1,0.1,0.1c0,0.1,0.1,0.1,0.1,0.2
		c0,0.1,0,0.2-0.1,0.2c-0.1,0.1-0.1,0.1-0.3,0.1c0,0,0.1,0,0.1,0.1c0,0,0.1,0.1,0.1,0.2l0.2,0.4h-0.2l-0.2-0.3
		c0-0.1-0.1-0.1-0.1-0.2c0,0-0.1-0.1-0.1-0.1c0,0,0,0-0.1,0c0,0,0,0-0.1,0h-0.2v0.6H642.5"/>
	<path style="fill-rule:evenodd;clip-rule:evenodd;fill:#EC6C00;" d="M643,244.4c0.7,0,1.2-0.5,1.2-1.2c0-0.7-0.5-1.2-1.2-1.2
		c-0.7,0-1.2,0.5-1.2,1.2C641.8,243.8,642.4,244.4,643,244.4z M642,243.1c0-0.6,0.5-1,1-1c0.6,0,1,0.5,1,1c0,0.6-0.5,1-1,1
		C642.5,244.2,642,243.7,642,243.1"/>
</g>
<g>
	<g>
		<path style="fill-rule:evenodd;clip-rule:evenodd;fill:#EC6C00;" d="M653.6,237.7v6.9c0.5,0,1-0.4,1-0.9v-0.4h0.6
			c0.4,0,0.8-0.6,0.8-0.8c0-0.6,0-0.9,0-1.5c0-0.3-0.3-0.5-0.5-0.6c0.2-0.1,0.5-0.4,0.5-0.7c0-0.8,0-1.1,0-2H653.6z M655,240
			c0,0.1-0.1,0.3-0.2,0.4c0,0-0.1,0.1-0.1,0.1c0,0,0,0,0,0h0.3v2h-0.4c0-1.3,0-2.6,0-4h0.4V240z M658.9,242.2v-3.1h-2.4v4.2h1.2
			c0.2,0,0.4-0.1,0.6-0.2c0.1-0.1,0.2-0.2,0.3-0.2C658.7,242.7,658.9,242.4,658.9,242.2z M657.9,242.6h-0.5v-2.6h0.5V242.6z
			 M656.2,237.7v0.8h2.9v5.2v0.9c0.3,0,1-0.3,1-1v-5.1c0.2,0,0.4-0.6,0.4-0.8H656.2z"/>
		<path style="fill-rule:evenodd;clip-rule:evenodd;fill:#EC6C00;" d="M665.1,243.8v-0.6h2.1c0.3,0,0.6-0.5,0.7-0.8h-2.8v-0.5h1.5
			c0.4,0,1.2-0.6,1.2-0.9v-3.2h-6.6v4.1h2.7v0.5h-2.7v0.8h2.7v0.6h-2.7v0.8h6.2c0.3,0,0.5-0.5,0.7-0.8H665.1z M665.1,240.2h0.5
			c0.1,0,0.2,0,0.2-0.1c0.1-0.1,0.6-0.6,0.6-0.7h-1.4v-0.9h1.5v2.6h-1.5V240.2z M663.9,241.1h-1.5v-0.9h1.5V241.1z M663.9,239.4
			h-1.5v-0.9h0.7h0.7V239.4z"/>
		<path style="fill-rule:evenodd;clip-rule:evenodd;fill:#EC6C00;" d="M670,243.8v-1.9h4.2c0.4,0,1.1-0.6,1.1-0.9v-3.1h-6.6v6
			c0,0.5,0.3,1,0.8,1c0.4,0,4.6,0,5,0c0.4,0,0.8-0.6,0.9-0.9H670z M674,240.9h-1.4v-2.3h1.4V240.9z M670,238.6h1.5v2.3H670V238.6z"
			/>
		<path style="fill-rule:evenodd;clip-rule:evenodd;fill:#EC6C00;" d="M677.5,243.8v-1.9h4.2c0.4,0,1.1-0.6,1.1-0.9v-3.1h-6.6v6
			c0,0.5,0.3,1,0.8,1c0.4,0,4.6,0,5,0c0.4,0,0.8-0.6,0.9-0.9H677.5z M681.6,240.9h-1.4v-2.3h1.4V240.9z M677.5,238.6h1.5v2.3h-1.5
			V238.6z"/>
	</g>
	<g>
		<path style="fill:#EC6C00;" d="M687.3,242.3v-0.2h0.5v0.2h3c0,0-0.1,0.4-0.7,0.4c-0.6,0-2.2,0-2.2,0s0,0.7,0,1.1
			c0,0.8-0.5,0.9-0.5,0.9v-2h-3.5v-0.4H687.3z"/>
		<path style="fill:#EC6C00;" d="M685.2,243.3h0.5c0,0-0.6,0.7-0.7,0.9c-0.2,0.2-0.4,0.5-0.7,0.5c-0.2,0-0.2,0-0.2,0L685.2,243.3z"
			/>
		<path style="fill:#EC6C00;" d="M689.7,243.3h-0.5c0,0,0.6,0.7,0.7,0.9c0.2,0.2,0.4,0.5,0.7,0.5c0.2,0,0.2,0,0.2,0L689.7,243.3z"/>
		<g>
			<path style="fill:#EC6C00;" d="M690.1,238.4c0.6,0,0.8-0.4,0.8-0.4h-3l0.2-0.3h-0.5l-0.2,0.3h-2l0.2-0.3h-0.5l-1.3,1.6h0.5v2.2
				c0,0,0.1,0,0.1,0c0.8,0,0.9-0.1,0.9-0.1s4.1,0,4.7,0c0.6,0,0.7-0.4,0.7-0.4h-2.9v-0.7c0,0,1.6,0,2.3,0c0.6,0,0.7-0.4,0.7-0.4h-3
				v-0.6c0,0,1.6,0,2.3,0c0.6,0,0.7-0.4,0.7-0.4h-3v-0.6C687.8,238.4,689.7,238.4,690.1,238.4z M687.3,241.1h-2.5v-0.6h2.5V241.1z
				 M687.3,240.1h-2.5v-0.6h2.5V240.1z M687.3,239.1h-2.5l0-0.2l0.1-0.2l0.2-0.2h2.2V239.1z"/>
		</g>
	</g>
	<path style="fill:#EC6C00;" d="M692.2,237.8v7h5.9c0.4,0,0.6-0.4,0.6-0.9v-6.1H692.2z M698.2,243.8c0,0.3-0.1,0.5-0.4,0.5h-5.2
		v-6.1h5.6V243.8z"/>
	<path style="fill:#EC6C00;" d="M694.9,240.7l-1.5,2.7c0,0,0.5,0.1,0.7-0.4l1.3-2.3L694.9,240.7z"/>
	<path style="fill:#EC6C00;" d="M696.7,242.8c0,0.1-0.1,0.2-0.2,0.2H696v0.4h0.6c0.4,0,0.5-0.1,0.5-0.6c0,0,0-2.6,0-2.6
		c0.5,0,0.5-0.4,0.5-0.4l-0.5,0V239h-0.5v0.9h-3.3v0.4h3.3V242.8z"/>
</g>
<circle style="fill:none;stroke:#D8D8D8;" cx="98.4" cy="186.2" r="4.2"/>
<circle style="fill:none;stroke:#D8D8D8;" cx="219.1" cy="186.2" r="4.2"/>
<circle style="fill:none;stroke:#D8D8D8;" cx="604.1" cy="185.3" r="4.2"/>
<circle style="fill:none;stroke:#D8D8D8;" cx="724.8" cy="185.3" r="4.2"/>
<g>
	<defs>
		<rect id="SVGID_37_" x="78.3" y="-12.3" width="169" height="200.2"/>
	</defs>
	<clipPath id="SVGID_38_">
		<use xlink:href="#SVGID_37_"  style="overflow:visible;"/>
	</clipPath>
	<path style="clip-path:url(#SVGID_38_);fill:none;stroke:#D8D8D8;" d="M220,170.3c0,90-27.4,163-61.2,163s-61.2-73-61.2-163
		c0-90,27.4-163,61.2-163C190.8,7.3,220,80.3,220,170.3z"/>
</g>
<g>
	<defs>
		<rect id="SVGID_39_" x="584.3" y="-13.3" width="169" height="200"/>
	</defs>
	<clipPath id="SVGID_40_">
		<use xlink:href="#SVGID_39_"  style="overflow:visible;"/>
	</clipPath>
	<path style="clip-path:url(#SVGID_40_);fill:none;stroke:#D8D8D8;" d="M726,169.1c0,90-27.4,163-61.2,163c-33.8,0-61.2-73-61.2-163
		c0-90,27.4-163,61.2-163C696.8,6,726,79,726,169.1z"/>
</g>
<rect x="398.2" y="523.8" style="fill:#FFFFFF;" width="35.6" height="35.6"/>
<g>
	<rect x="423.5" y="531.6" width="1.3" height="1.3"/>
	<rect x="424.7" y="532.9" width="1.2" height="1.2"/>
	<rect x="424.7" y="535.4" width="1.2" height="1.3"/>
	<rect x="418.4" y="531.6" width="1.3" height="1.3"/>
	<rect x="424.7" y="540.4" width="1.2" height="1.3"/>
	<rect x="424.7" y="546.6" width="1.2" height="1.3"/>
	<rect x="424.7" y="536.6" width="1.2" height="1.2"/>
	<rect x="424.7" y="541.6" width="1.2" height="1.3"/>
	<rect x="415.9" y="531.6" width="1.3" height="1.3"/>
	<rect x="405.9" y="541.6" width="1.2" height="1.3"/>
	<rect x="405.9" y="536.6" width="1.2" height="1.2"/>
	<rect x="405.9" y="545.4" width="1.2" height="1.3"/>
	<rect x="410.9" y="531.6" width="1.2" height="1.3"/>
	<rect x="405.9" y="532.9" width="1.2" height="1.2"/>
	<rect x="407.2" y="531.6" width="1.3" height="1.3"/>
	<rect x="407.2" y="535.4" width="1.3" height="1.3"/>
	<rect x="407.2" y="532.9" width="1.3" height="1.2"/>
	<rect x="407.2" y="536.6" width="1.3" height="1.2"/>
	<rect x="407.2" y="540.4" width="1.3" height="1.3"/>
	<rect x="407.2" y="539.1" width="1.3" height="1.3"/>
	<rect x="407.2" y="537.9" width="1.3" height="1.2"/>
	<rect x="412.2" y="532.9" width="1.3" height="1.2"/>
	<rect x="418.4" y="532.9" width="1.3" height="1.2"/>
	<rect x="421" y="532.9" width="1.3" height="1.2"/>
	<rect x="414.7" y="532.9" width="1.3" height="1.2"/>
	<rect x="415.9" y="532.9" width="1.3" height="1.2"/>
	<rect x="415.9" y="550.3" width="1.3" height="1.3"/>
	<rect x="418.4" y="550.3" width="1.3" height="1.3"/>
	<rect x="413.4" y="550.3" width="1.2" height="1.3"/>
	<rect x="421" y="550.3" width="1.3" height="1.3"/>
	<rect x="412.2" y="550.3" width="1.3" height="1.3"/>
	<rect x="407.2" y="546.6" width="1.3" height="1.3"/>
	<rect x="407.2" y="545.4" width="1.3" height="1.3"/>
	<rect x="407.2" y="544.1" width="1.3" height="1.2"/>
	<rect x="407.2" y="550.3" width="1.3" height="1.3"/>
	<rect x="407.2" y="549.1" width="1.3" height="1.2"/>
	<rect x="412.2" y="552.8" width="1.3" height="1.3"/>
	<rect x="404.7" y="532.9" width="1.3" height="1.2"/>
	<rect x="404.7" y="541.6" width="1.3" height="1.3"/>
	<rect x="404.7" y="540.4" width="1.3" height="1.3"/>
	<rect x="404.7" y="530.4" width="1.3" height="1.3"/>
	<rect x="404.7" y="537.9" width="1.3" height="1.2"/>
	<rect x="404.7" y="542.9" width="1.3" height="1.3"/>
	<rect x="414.7" y="530.4" width="1.3" height="1.3"/>
	<rect x="412.2" y="530.4" width="1.3" height="1.3"/>
	<rect x="415.9" y="530.4" width="1.3" height="1.3"/>
	<rect x="407.2" y="530.4" width="1.3" height="1.3"/>
	<rect x="405.9" y="549.1" width="1.2" height="1.2"/>
	<rect x="404.7" y="544.1" width="1.3" height="1.2"/>
	<rect x="415.9" y="552.8" width="1.3" height="1.3"/>
	<rect x="418.4" y="552.8" width="1.3" height="1.3"/>
	<rect x="413.4" y="552.8" width="1.2" height="1.3"/>
	<rect x="407.2" y="552.8" width="1.3" height="1.3"/>
	<rect x="404.7" y="549.1" width="1.3" height="1.2"/>
	<rect x="404.7" y="552.8" width="1.3" height="1.3"/>
	<rect x="404.7" y="551.6" width="1.3" height="1.3"/>
	<rect x="423.5" y="532.9" width="1.3" height="1.2"/>
	<rect x="422.2" y="551.6" width="1.2" height="1.3"/>
	<rect x="421" y="551.6" width="1.3" height="1.3"/>
	<rect x="418.4" y="551.6" width="1.3" height="1.3"/>
	<rect x="415.9" y="551.6" width="1.3" height="1.3"/>
	<rect x="426" y="551.6" width="1.3" height="1.3"/>
	<rect x="423.5" y="551.6" width="1.3" height="1.3"/>
	<rect x="426" y="550.3" width="1.3" height="1.3"/>
	<rect x="424.7" y="551.6" width="1.2" height="1.3"/>
	<rect x="426" y="549.1" width="1.3" height="1.2"/>
	<rect x="407.2" y="551.6" width="1.3" height="1.3"/>
	<rect x="413.4" y="551.6" width="1.2" height="1.3"/>
	<rect x="414.7" y="551.6" width="1.3" height="1.3"/>
	<rect x="410.9" y="551.6" width="1.2" height="1.3"/>
	<rect x="409.7" y="551.6" width="1.3" height="1.3"/>
	<rect x="426" y="545.4" width="1.3" height="1.3"/>
	<rect x="426" y="535.4" width="1.3" height="1.3"/>
	<rect x="426" y="532.9" width="1.3" height="1.2"/>
	<rect x="426" y="530.4" width="1.3" height="1.3"/>
	<rect x="419.7" y="530.4" width="1.2" height="1.3"/>
	<rect x="421" y="530.4" width="1.3" height="1.3"/>
	<rect x="423.5" y="530.4" width="1.3" height="1.3"/>
	<rect x="426" y="542.9" width="1.3" height="1.3"/>
	<rect x="426" y="546.6" width="1.3" height="1.3"/>
	<rect x="426" y="547.9" width="1.3" height="1.3"/>
	<rect x="426" y="537.9" width="1.3" height="1.2"/>
	<rect x="421" y="539.1" width="1.3" height="1.3"/>
	<rect x="410.9" y="539.1" width="1.2" height="1.3"/>
	<rect x="417.2" y="536.6" width="1.2" height="1.2"/>
	<rect x="419.7" y="540.4" width="1.2" height="1.3"/>
	<rect x="419.7" y="537.9" width="1.2" height="1.2"/>
	<rect x="413.4" y="536.6" width="1.2" height="1.2"/>
	<rect x="421" y="541.6" width="1.3" height="1.3"/>
	<rect x="421" y="544.1" width="1.3" height="1.2"/>
	<rect x="421" y="540.4" width="1.3" height="1.3"/>
	<rect x="420.9" y="535.4" width="1.3" height="1.3"/>
	<rect x="421" y="537.9" width="1.3" height="1.2"/>
	<rect x="410.9" y="545.4" width="1.2" height="1.3"/>
	<rect x="419.7" y="535.4" width="1.2" height="1.3"/>
	<rect x="421" y="546.6" width="1.3" height="1.3"/>
	<rect x="413.4" y="546.6" width="1.2" height="1.3"/>
	<rect x="419.7" y="546.6" width="1.2" height="1.3"/>
	<rect x="418.4" y="546.6" width="1.3" height="1.3"/>
	<rect x="413.4" y="539.1" width="1.2" height="1.3"/>
	<rect x="413.4" y="540.4" width="1.2" height="1.3"/>
	<rect x="414.7" y="539.1" width="1.3" height="1.3"/>
	<rect x="415.9" y="539.1" width="1.3" height="1.3"/>
	<rect x="414.7" y="544.1" width="1.3" height="1.2"/>
	<rect x="413.4" y="542.9" width="1.2" height="1.3"/>
	<rect x="417.2" y="539.1" width="1.2" height="1.3"/>
	<rect x="413.4" y="544.1" width="1.2" height="1.2"/>
	<rect x="413.4" y="541.6" width="1.2" height="1.3"/>
	<rect x="414.7" y="541.6" width="1.3" height="1.3"/>
	<rect x="415.9" y="541.6" width="1.3" height="1.3"/>
	<rect x="417.2" y="541.6" width="1.2" height="1.3"/>
	<rect x="415.9" y="542.9" width="1.3" height="1.3"/>
	<rect x="412.2" y="542.9" width="1.3" height="1.3"/>
	<rect x="412.2" y="539.1" width="1.3" height="1.3"/>
	<rect x="412.2" y="541.6" width="1.3" height="1.3"/>
	<rect x="412.2" y="545.4" width="1.3" height="1.3"/>
	<rect x="415.9" y="545.4" width="1.3" height="1.3"/>
	<rect x="418.4" y="544.1" width="1.3" height="1.2"/>
	<rect x="418.4" y="541.6" width="1.3" height="1.3"/>
	<rect x="413.4" y="537.9" width="1.2" height="1.2"/>
	<rect x="418.4" y="542.9" width="1.3" height="1.3"/>
	<rect x="417.2" y="537.9" width="1.2" height="1.2"/>
	<rect x="417.2" y="545.4" width="1.2" height="1.3"/>
	<rect x="408.4" y="545.4" width="1.2" height="1.3"/>
	<rect x="412.2" y="549.1" width="1.3" height="1.2"/>
	<rect x="409.7" y="549.1" width="1.3" height="1.2"/>
	<rect x="410.9" y="534.1" width="1.2" height="1.3"/>
	<rect x="412.2" y="534.1" width="1.3" height="1.3"/>
	<rect x="408.4" y="539.1" width="1.2" height="1.3"/>
	<rect x="408.4" y="536.6" width="1.2" height="1.2"/>
	<rect x="409.7" y="534.1" width="1.3" height="1.3"/>
	<rect x="423.5" y="544.1" width="1.3" height="1.2"/>
	<rect x="423.5" y="545.4" width="1.3" height="1.3"/>
	<rect x="423.5" y="546.6" width="1.3" height="1.3"/>
	<rect x="423.5" y="539.1" width="1.3" height="1.3"/>
	<rect x="423.5" y="536.6" width="1.3" height="1.2"/>
	<rect x="415.9" y="549.1" width="1.3" height="1.2"/>
	<rect x="414.7" y="549.1" width="1.3" height="1.2"/>
	<rect x="423.5" y="549.1" width="1.3" height="1.2"/>
	<rect x="421" y="549.1" width="1.3" height="1.2"/>
	<rect x="409.7" y="542.9" width="1.3" height="1.3"/>
	<rect x="409.7" y="547.9" width="1.3" height="1.3"/>
	<rect x="409.7" y="541.6" width="1.3" height="1.3"/>
	<rect x="415.9" y="535.4" width="1.3" height="1.3"/>
	<rect x="412.2" y="535.4" width="1.3" height="1.3"/>
	<rect x="409.7" y="539.1" width="1.3" height="1.3"/>
	<rect x="409.7" y="535.4" width="1.3" height="1.3"/>
	<rect x="422.2" y="535.4" width="1.2" height="1.3"/>
	<rect x="415.9" y="547.9" width="1.3" height="1.3"/>
	<rect x="419.7" y="534.1" width="1.2" height="1.3"/>
	<rect x="418.4" y="534.1" width="1.3" height="1.3"/>
	<rect x="421" y="547.9" width="1.3" height="1.3"/>
	<rect x="422.2" y="546.6" width="1.2" height="1.3"/>
	<rect x="422.2" y="542.9" width="1.2" height="1.3"/>
	<rect x="427.2" y="540.4" width="1.2" height="1.3"/>
	<rect x="400.9" y="540.4" width="1.2" height="1.3"/>
	<rect x="400.9" y="549.1" width="1.2" height="1.2"/>
	<rect x="400.9" y="545.4" width="1.2" height="1.3"/>
	<rect x="400.9" y="536.6" width="1.2" height="1.2"/>
	<rect x="400.9" y="532.9" width="1.2" height="1.2"/>
	<rect x="400.9" y="535.4" width="1.2" height="1.3"/>
	<rect x="413.4" y="556.6" width="1.2" height="1.3"/>
	<rect x="410.9" y="556.6" width="1.2" height="1.3"/>
	<rect x="419.7" y="556.6" width="1.2" height="1.3"/>
	<rect x="417.2" y="556.6" width="1.2" height="1.3"/>
	<rect x="415.9" y="556.6" width="1.3" height="1.3"/>
	<rect x="404.7" y="556.6" width="1.3" height="1.3"/>
	<rect x="400.9" y="556.6" width="1.2" height="1.3"/>
	<rect x="421" y="556.6" width="1.3" height="1.3"/>
	<rect x="405.9" y="556.6" width="1.2" height="1.3"/>
	<rect x="402.2" y="556.6" width="1.3" height="1.3"/>
	<rect x="407.2" y="556.6" width="1.3" height="1.3"/>
	<rect x="403.4" y="556.6" width="1.2" height="1.3"/>
	<rect x="429.7" y="539.1" width="1.2" height="1.3"/>
	<rect x="429.7" y="532.9" width="1.2" height="1.2"/>
	<rect x="429.7" y="550.3" width="1.2" height="1.3"/>
	<rect x="429.7" y="541.6" width="1.2" height="1.3"/>
	<rect x="429.7" y="551.6" width="1.2" height="1.3"/>
	<rect x="429.7" y="542.9" width="1.2" height="1.3"/>
	<rect x="429.7" y="546.6" width="1.2" height="1.3"/>
	<rect x="410.9" y="526.7" width="1.2" height="1.3"/>
	<rect x="417.2" y="526.7" width="1.2" height="1.3"/>
	<rect x="415.9" y="526.7" width="1.3" height="1.3"/>
	<rect x="414.7" y="526.7" width="1.3" height="1.3"/>
	<rect x="412.2" y="526.7" width="1.3" height="1.3"/>
	<rect x="407.2" y="526.7" width="1.3" height="1.3"/>
	<rect x="423.5" y="526.7" width="1.3" height="1.3"/>
	<rect x="419.7" y="526.7" width="1.2" height="1.3"/>
	<rect x="418.4" y="526.7" width="1.3" height="1.3"/>
	<rect x="402.2" y="525.4" width="1.3" height="1.3"/>
	<rect x="400.9" y="525.4" width="1.2" height="1.3"/>
	<rect x="403.4" y="525.4" width="1.2" height="1.3"/>
	<rect x="399.7" y="525.4" width="1.3" height="1.3"/>
	<rect x="404.7" y="525.4" width="1.3" height="1.3"/>
	<rect x="399.7" y="530.4" width="1.3" height="1.3"/>
	<rect x="399.7" y="526.7" width="1.3" height="1.3"/>
	<rect x="405.9" y="525.4" width="1.2" height="1.3"/>
	<rect x="399.7" y="527.9" width="1.3" height="1.2"/>
	<rect x="414.7" y="525.4" width="1.3" height="1.3"/>
	<rect x="415.9" y="525.4" width="1.3" height="1.3"/>
	<rect x="399.7" y="531.6" width="1.3" height="1.3"/>
	<rect x="412.2" y="525.4" width="1.3" height="1.3"/>
	<rect x="407.2" y="525.4" width="1.3" height="1.3"/>
	<rect x="410.9" y="525.4" width="1.2" height="1.3"/>
	<rect x="399.7" y="550.3" width="1.3" height="1.3"/>
	<rect x="399.7" y="549.1" width="1.3" height="1.2"/>
	<rect x="399.7" y="545.4" width="1.3" height="1.3"/>
	<rect x="399.7" y="551.6" width="1.3" height="1.3"/>
	<rect x="399.7" y="552.8" width="1.3" height="1.3"/>
	<rect x="399.7" y="556.6" width="1.3" height="1.3"/>
	<rect x="399.7" y="532.9" width="1.3" height="1.2"/>
	<rect x="399.7" y="554.1" width="1.3" height="1.2"/>
	<rect x="399.7" y="555.3" width="1.3" height="1.3"/>
	<rect x="399.7" y="537.9" width="1.3" height="1.2"/>
	<rect x="399.7" y="536.6" width="1.3" height="1.2"/>
	<rect x="399.7" y="542.9" width="1.3" height="1.3"/>
	<rect x="399.7" y="540.4" width="1.3" height="1.3"/>
	<rect x="399.7" y="529.1" width="1.3" height="1.3"/>
	<rect x="431" y="549.1" width="1.3" height="1.2"/>
	<rect x="431" y="546.6" width="1.3" height="1.3"/>
	<rect x="431" y="551.6" width="1.3" height="1.3"/>
	<rect x="431" y="540.4" width="1.3" height="1.3"/>
	<rect x="431" y="542.9" width="1.3" height="1.3"/>
	<rect x="431" y="552.8" width="1.3" height="1.3"/>
	<rect x="431" y="544.1" width="1.3" height="1.2"/>
	<rect x="431" y="550.3" width="1.3" height="1.3"/>
	<rect x="419.7" y="525.4" width="1.2" height="1.3"/>
	<rect x="426" y="556.6" width="1.3" height="1.3"/>
	<rect x="423.5" y="556.6" width="1.3" height="1.3"/>
	<rect x="428.5" y="556.6" width="1.3" height="1.3"/>
	<rect x="431" y="556.6" width="1.3" height="1.3"/>
	<rect x="427.2" y="525.4" width="1.2" height="1.3"/>
	<rect x="431" y="539.1" width="1.3" height="1.3"/>
	<rect x="429.7" y="525.4" width="1.2" height="1.3"/>
	<rect x="431" y="525.4" width="1.3" height="1.3"/>
	<rect x="426" y="525.4" width="1.3" height="1.3"/>
	<rect x="423.5" y="525.4" width="1.3" height="1.3"/>
	<rect x="424.7" y="525.4" width="1.2" height="1.3"/>
	<rect x="431" y="526.7" width="1.3" height="1.3"/>
	<rect x="428.5" y="525.4" width="1.3" height="1.3"/>
	<rect x="431" y="535.4" width="1.3" height="1.3"/>
	<rect x="431" y="527.9" width="1.3" height="1.2"/>
	<rect x="431" y="537.9" width="1.3" height="1.2"/>
	<rect x="431" y="529.1" width="1.3" height="1.3"/>
	<rect x="431" y="530.4" width="1.3" height="1.3"/>
	<rect x="431" y="532.9" width="1.3" height="1.2"/>
	<rect x="431" y="531.6" width="1.3" height="1.3"/>
	<rect x="403.4" y="549.1" width="1.2" height="1.2"/>
	<rect x="403.4" y="546.6" width="1.2" height="1.3"/>
	<rect x="403.4" y="552.8" width="1.2" height="1.3"/>
	<rect x="403.4" y="554.1" width="1.2" height="1.2"/>
	<rect x="403.4" y="551.6" width="1.2" height="1.3"/>
	<rect x="404.7" y="554.1" width="1.3" height="1.2"/>
	<rect x="403.4" y="532.9" width="1.2" height="1.2"/>
	<rect x="403.4" y="535.4" width="1.2" height="1.3"/>
	<rect x="403.4" y="530.4" width="1.2" height="1.3"/>
	<rect x="424.7" y="554.1" width="1.2" height="1.2"/>
	<rect x="419.7" y="554.1" width="1.2" height="1.2"/>
	<rect x="407.2" y="554.1" width="1.3" height="1.2"/>
	<rect x="428.5" y="554.1" width="1.3" height="1.2"/>
	<rect x="427.2" y="554.1" width="1.2" height="1.2"/>
	<rect x="428.5" y="551.6" width="1.3" height="1.3"/>
	<rect x="412.2" y="554.1" width="1.3" height="1.2"/>
	<rect x="409.7" y="554.1" width="1.3" height="1.2"/>
	<rect x="415.9" y="554.1" width="1.3" height="1.2"/>
	<rect x="413.4" y="554.1" width="1.2" height="1.2"/>
	<rect x="427.2" y="542.9" width="1.2" height="1.3"/>
	<rect x="427.2" y="541.6" width="1.2" height="1.3"/>
	<rect x="427.2" y="537.9" width="1.2" height="1.2"/>
	<rect x="427.2" y="539.1" width="1.2" height="1.3"/>
	<rect x="427.2" y="532.9" width="1.2" height="1.2"/>
	<rect x="424.7" y="552.8" width="1.2" height="1.3"/>
	<rect x="410.9" y="529.1" width="1.2" height="1.3"/>
	<rect x="412.2" y="529.1" width="1.3" height="1.3"/>
	<rect x="403.4" y="529.1" width="1.2" height="1.3"/>
	<rect x="427.2" y="530.4" width="1.2" height="1.3"/>
	<rect x="404.7" y="529.1" width="1.3" height="1.3"/>
	<rect x="407.2" y="529.1" width="1.3" height="1.3"/>
	<rect x="409.7" y="529.1" width="1.3" height="1.3"/>
	<rect x="426" y="529.1" width="1.3" height="1.3"/>
	<rect x="423.5" y="529.1" width="1.3" height="1.3"/>
	<rect x="429.7" y="554.1" width="1.2" height="1.2"/>
	<rect x="419.7" y="529.1" width="1.2" height="1.3"/>
	<rect x="418.4" y="529.1" width="1.3" height="1.3"/>
	<rect x="427.2" y="529.1" width="1.2" height="1.3"/>
	<rect x="402.2" y="549.1" width="1.3" height="1.2"/>
	<rect x="402.2" y="551.6" width="1.3" height="1.3"/>
	<rect x="402.2" y="546.6" width="1.3" height="1.3"/>
	<rect x="402.2" y="545.4" width="1.3" height="1.3"/>
	<rect x="402.2" y="552.8" width="1.3" height="1.3"/>
	<rect x="402.2" y="554.1" width="1.3" height="1.2"/>
	<rect x="402.2" y="536.6" width="1.3" height="1.2"/>
	<rect x="402.2" y="537.9" width="1.3" height="1.2"/>
	<rect x="402.2" y="540.4" width="1.3" height="1.3"/>
	<rect x="422.2" y="555.3" width="1.2" height="1.3"/>
	<rect x="421" y="555.3" width="1.3" height="1.3"/>
	<rect x="429.7" y="555.3" width="1.2" height="1.3"/>
	<rect x="428.5" y="555.3" width="1.3" height="1.3"/>
	<rect x="427.2" y="555.3" width="1.2" height="1.3"/>
	<rect x="407.2" y="555.3" width="1.3" height="1.3"/>
	<rect x="417.2" y="555.3" width="1.2" height="1.3"/>
	<rect x="410.9" y="555.3" width="1.2" height="1.3"/>
	<rect x="402.2" y="532.9" width="1.3" height="1.2"/>
	<rect x="415.9" y="555.3" width="1.3" height="1.3"/>
	<rect x="413.4" y="555.3" width="1.2" height="1.3"/>
	<rect x="428.5" y="532.9" width="1.3" height="1.2"/>
	<rect x="428.5" y="535.4" width="1.3" height="1.3"/>
	<rect x="428.5" y="530.4" width="1.3" height="1.3"/>
	<rect x="427.2" y="527.9" width="1.2" height="1.2"/>
	<rect x="426" y="527.9" width="1.3" height="1.2"/>
	<rect x="428.5" y="536.6" width="1.3" height="1.2"/>
	<rect x="428.5" y="527.9" width="1.3" height="1.2"/>
	<rect x="428.5" y="529.1" width="1.3" height="1.3"/>
	<rect x="428.5" y="542.9" width="1.3" height="1.3"/>
	<rect x="428.5" y="544.1" width="1.3" height="1.2"/>
	<rect x="428.5" y="539.1" width="1.3" height="1.3"/>
	<rect x="428.5" y="545.4" width="1.3" height="1.3"/>
	<rect x="407.2" y="527.9" width="1.3" height="1.2"/>
	<rect x="409.7" y="527.9" width="1.3" height="1.2"/>
	<rect x="404.7" y="527.9" width="1.3" height="1.2"/>
	<rect x="423.5" y="527.9" width="1.3" height="1.2"/>
	<rect x="402.2" y="529.1" width="1.3" height="1.3"/>
	<rect x="402.2" y="527.9" width="1.3" height="1.2"/>
	<rect x="403.4" y="527.9" width="1.2" height="1.2"/>
	<rect x="402.2" y="530.4" width="1.3" height="1.3"/>
	<rect x="419.7" y="527.9" width="1.2" height="1.2"/>
	<rect x="412.2" y="527.9" width="1.3" height="1.2"/>
	<rect x="417.2" y="527.9" width="1.2" height="1.2"/>
	<rect x="415.9" y="527.9" width="1.3" height="1.2"/>
</g>
</svg>
