<?xml version="1.0" encoding="utf-8"?>
<!-- Generator: Adobe Illustrator 17.1.0, SVG Export Plug-In . SVG Version: 6.00 Build 0)  -->
<!DOCTYPE svg PUBLIC "-//W3C//DTD SVG 1.1//EN" "http://www.w3.org/Graphics/SVG/1.1/DTD/svg11.dtd">
<svg version="1.1" id="图层_1" xmlns="http://www.w3.org/2000/svg" xmlns:xlink="http://www.w3.org/1999/xlink" x="0px" y="0px"
	 viewBox="0 0 352.5 778.2" style="enable-background:new 0 0 352.5 778.2;" xml:space="preserve">
<g>
	<rect x="6.6" y="6.4" style="fill:#FF6600;" width="339.3" height="765.4"/>
	<path style="fill:#FFFFFF;" d="M217.3,213.5h-49.9c-4,0-7.3-3.3-7.3-7.3s3.3-7.3,7.3-7.3h49.9c4,0,7.3,3.3,7.3,7.3
		S221.4,213.5,217.3,213.5z"/>
	<path style="fill:#FFFFFF;" d="M192.4,238.5c-4,0-7.3-3.3-7.3-7.3v-49.9c0-4,3.3-7.3,7.3-7.3s7.3,3.3,7.3,7.3v49.9
		C199.7,235.3,196.4,238.5,192.4,238.5z"/>
	<g>
		<path style="fill:#FFFFFF;" d="M249.6,247.7h-6.9c-0.6,0-1-0.4-1-1c0-0.6,0.4-1,1-1h6.9c0.6,0,1,0.4,1,1
			C250.6,247.2,250.2,247.7,249.6,247.7z"/>
		<path style="fill:#FFFFFF;" d="M246.2,251.1c-0.6,0-1-0.4-1-1v-6.9c0-0.6,0.4-1,1-1c0.6,0,1,0.4,1,1v6.9
			C247.2,250.7,246.8,251.1,246.2,251.1z"/>
	</g>
	<g>
		<path style="fill:#FFFFFF;" d="M198.8,352.5h-3.9c-0.3,0-0.6-0.3-0.6-0.6s0.3-0.6,0.6-0.6h3.9c0.3,0,0.6,0.3,0.6,0.6
			S199.1,352.5,198.8,352.5z"/>
		<path style="fill:#FFFFFF;" d="M196.8,354.4c-0.3,0-0.6-0.3-0.6-0.6V350c0-0.3,0.3-0.6,0.6-0.6s0.6,0.3,0.6,0.6v3.9
			C197.4,354.1,197.1,354.4,196.8,354.4z"/>
	</g>
	<path style="fill:#FFFFFF;" d="M82,203.4h-4.5c-0.4,0-0.7-0.3-0.7-0.7c0-0.4,0.3-0.7,0.7-0.7H82c0.4,0,0.7,0.3,0.7,0.7
		C82.6,203.1,82.3,203.4,82,203.4z"/>
	<path style="fill:#FFFFFF;" d="M79.7,205.7c-0.4,0-0.7-0.3-0.7-0.7v-4.5c0-0.4,0.3-0.7,0.7-0.7c0.4,0,0.7,0.3,0.7,0.7v4.5
		C80.4,205.4,80.1,205.7,79.7,205.7z"/>
	<g>
		<defs>
			<polygon id="SVGID_1_" points="6.6,437.9 188,437.9 187.4,164.3 6.6,164.3 			"/>
		</defs>
		<clipPath id="SVGID_2_">
			<use xlink:href="#SVGID_1_"  style="overflow:visible;"/>
		</clipPath>
		<g style="clip-path:url(#SVGID_2_);">
			<path style="fill:#FFFFFF;" d="M163.8,250.7H-13.9c-4.2,0-7.7-3.4-7.7-7.7c0-4.2,3.4-7.7,7.7-7.7h177.6c4.2,0,7.7,3.4,7.7,7.7
				C171.4,247.2,168,250.7,163.8,250.7z"/>
			<path style="fill:#FFFFFF;" d="M151.6,294.4H-1.7c-4.2,0-7.7-3.4-7.7-7.7c0-4.2,3.4-7.7,7.7-7.7h153.4c4.2,0,7.7,3.4,7.7,7.7
				C159.3,291,155.9,294.4,151.6,294.4z"/>
			<path style="fill:#00A199;" d="M-1.7,315.3c-4.2,0-7.7-3.4-7.7-7.7v-20.9c0-4.2,3.4-7.7,7.7-7.7c4.2,0,7.7,3.4,7.7,7.7v20.9
				C5.9,311.9,2.5,315.3-1.7,315.3z"/>
			<path style="fill:#FFFFFF;" d="M151.6,315.3H-1.7c-4.2,0-7.7-3.4-7.7-7.7c0-4.2,3.4-7.7,7.7-7.7h153.4c4.2,0,7.7,3.4,7.7,7.7
				C159.3,311.9,155.9,315.3,151.6,315.3z"/>
			<path style="fill:#FFFFFF;" d="M151.6,315.3c-4.2,0-7.7-3.4-7.7-7.7v-20.9c0-4.2,3.4-7.7,7.7-7.7c4.2,0,7.7,3.4,7.7,7.7v20.9
				C159.3,311.9,155.9,315.3,151.6,315.3z"/>
			<path style="fill:#EB6300;" d="M-1.7,272.9c-4.2,0-7.7-3.4-7.7-7.7V244c0-4.2,3.4-7.7,7.7-7.7c4.2,0,7.7,3.4,7.7,7.7v21.3
				C5.9,269.5,2.5,272.9-1.7,272.9z"/>
			<path style="fill:#FFFFFF;" d="M151.6,272.9H-1.7c-4.2,0-7.7-3.4-7.7-7.7c0-4.2,3.4-7.7,7.7-7.7h153.4c4.2,0,7.7,3.4,7.7,7.7
				C159.3,269.5,155.9,272.9,151.6,272.9z"/>
			<path style="fill:#FFFFFF;" d="M173.1,411.7c-3.3,0-10.8-0.7-16.9-6.3c-5.5-5-8.3-12.4-8.3-21.8V330c0-4.2,3.4-7.7,7.7-7.7
				c4.2,0,7.7,3.4,7.7,7.7v53.5c0,4.9,1.1,8.4,3.2,10.4c2.8,2.6,6.9,2.4,6.9,2.4c4.2-0.4,8.5,2.7,8.9,7c0.4,4.2-3.4,8-7.6,8.3
				C174.5,411.6,173.9,411.7,173.1,411.7z"/>
			<path style="fill:#FFFFFF;" d="M155.6,337.7h-35.9c-4.2,0-7.7-3.4-7.7-7.7s3.4-7.7,7.7-7.7h35.9c4.2,0,7.7,3.4,7.7,7.7
				S159.8,337.7,155.6,337.7z"/>
			<path style="fill:#FFFFFF;" d="M119.6,411.7c-4.2,0-7.7-3.4-7.7-7.7v-74c0-4.2,3.4-7.7,7.7-7.7c4.2,0,7.7,3.4,7.7,7.7v74
				C127.3,408.2,123.9,411.7,119.6,411.7z"/>
			<path style="fill:#EB6300;" d="M-24.2,411.7c-0.8,0-1.3,0-1.5-0.1c-4.2-0.4-7.3-4.1-7-8.3c0.4-4.2,4.1-7.4,8.3-7c0,0,0,0,0.2,0
				c0.8,0,4.3-0.1,6.7-2.4c2.1-2,3.2-5.5,3.2-10.4V330c0-4.2,3.4-7.7,7.7-7.7S1,325.8,1,330v53.5c0,9.5-2.8,16.8-8.3,21.8
				C-13.5,411-21,411.7-24.2,411.7z"/>
			<path style="fill:#FFFFFF;" d="M29.3,337.7H-6.7c-4.2,0-7.7-3.4-7.7-7.7s3.4-7.7,7.7-7.7h35.9c4.2,0,7.7,3.4,7.7,7.7
				S33.5,337.7,29.3,337.7z"/>
			<path style="fill:#FFFFFF;" d="M29.3,411.7c-4.2,0-7.7-3.4-7.7-7.7v-74c0-4.2,3.4-7.7,7.7-7.7c4.2,0,7.7,3.4,7.7,7.7v74
				C37,408.2,33.5,411.7,29.3,411.7z"/>
			<path style="fill:#FFFFFF;" d="M95.5,391.2c-4.2,0-7.7-3.4-7.7-7.7V330c0-4.2,3.4-7.7,7.7-7.7c4.2,0,7.7,3.4,7.7,7.7v53.5
				C103.2,387.8,99.7,391.2,95.5,391.2z"/>
			<path style="fill:#FFFFFF;" d="M95.5,337.7H54.4c-4.2,0-7.7-3.4-7.7-7.7s3.4-7.7,7.7-7.7h41.1c4.2,0,7.7,3.4,7.7,7.7
				S99.7,337.7,95.5,337.7z"/>
			<path style="fill:#FFFFFF;" d="M54.4,391.2c-4.2,0-7.7-3.4-7.7-7.7V330c0-4.2,3.4-7.7,7.7-7.7c4.2,0,7.7,3.4,7.7,7.7v53.5
				C62.1,387.8,58.7,391.2,54.4,391.2z"/>
			<path style="fill:#FFFFFF;" d="M29.3,362.8H-6.7c-4.2,0-7.7-3.4-7.7-7.7s3.4-7.7,7.7-7.7h35.9c4.2,0,7.7,3.4,7.7,7.7
				S33.5,362.8,29.3,362.8z"/>
			<path style="fill:#FFFFFF;" d="M29.3,388.3H-6.7c-4.2,0-7.7-3.4-7.7-7.7c0-4.2,3.4-7.7,7.7-7.7h35.9c4.2,0,7.7,3.4,7.7,7.7
				C37,384.9,33.5,388.3,29.3,388.3z"/>
			<path style="fill:#FFFFFF;" d="M53.2,411.7c-4.2,0-7.6-3.4-7.7-7.6c0-4.2,3.4-7.7,7.6-7.7c3.1-0.1,13.5-1.5,13.5-15.5
				c0-4.2,3.4-7.7,7.7-7.7c4.2,0,7.7,3.4,7.7,7.7c0,12.2-5.2,21.8-14.5,27C60.7,411.5,54,411.7,53.2,411.7
				C53.2,411.7,53.2,411.7,53.2,411.7z"/>
			<path style="fill:#FFFFFF;" d="M74.3,388.4c-4.2,0-7.7-3.4-7.7-7.7v-32.2c0-4.2,3.4-7.7,7.7-7.7c4.2,0,7.7,3.4,7.7,7.7v32.2
				C82,385,78.6,388.4,74.3,388.4z"/>
			<path style="fill:#FFFFFF;" d="M94.2,411.7h-5.9c-4.2,0-7.7-3.4-7.7-7.7s3.4-7.7,7.7-7.7h5.9c4.2,0,7.7,3.4,7.7,7.7
				S98.5,411.7,94.2,411.7z"/>
			<path style="fill:#FFFFFF;" d="M137.6,377.6c-4.2,0-7.7-3.4-7.7-7.7v-5.9c0-4.2,3.4-7.7,7.7-7.7c4.2,0,7.7,3.4,7.7,7.7v5.9
				C145.3,374.2,141.8,377.6,137.6,377.6z"/>
		</g>
	</g>
	<rect x="120.9" y="6.4" style="fill:none;" width="225.8" height="155.8"/>
	<path style="fill:#FFFFFF;" d="M84.3,206.5c0,0-0.4-0.6-1.6-0.6c-0.4,0-5.4,0-5.8,0c-1.2,0-1.6,0.6-1.6,0.6s-0.6,0.6-0.1,1.6
		c0.6,1.3,1.7,3.5,1.7,3.5h6c0,0,1.1-2.2,1.7-3.5C84.9,207.1,84.3,206.5,84.3,206.5z"/>
	<path style="fill:#FFFFFF;" d="M84.1,215.1h-8.9c-0.7,0-1.3-0.5-1.3-1c0-0.6,0.6-1,1.3-1h8.9c0.7,0,1.3,0.5,1.3,1
		C85.4,214.6,84.9,215.1,84.1,215.1z"/>
	<path style="fill:#FFFFFF;" d="M83.2,213.5h-7.1c-0.6,0-1-0.4-1-0.8s0.5-0.8,1-0.8h7.1c0.6,0,1,0.4,1,0.8S83.8,213.5,83.2,213.5z"
		/>
	<path style="fill:#EB6300;" d="M84.3,230.9h-9.2c-0.7,0-1.3-0.5-1.3-1c0-0.6,0.6-1,1.3-1h9.2c0.7,0,1.3,0.5,1.3,1
		C85.7,230.4,85.1,230.9,84.3,230.9z"/>
	<path style="fill:#FFFFFF;" d="M87.6,232.2c-3.8-2-4.3-6.7-4.8-11.2c-0.4-3.4-0.3-6-0.3-6.9h-5.8c0.1,0.9,0.1,3.5-0.3,6.9
		c-0.5,4.6-1,9.2-4.8,11.2c-1.3,0.7-2.1,2.1-0.8,3v0.6h17.5v-0.6C89.8,234.3,89,232.9,87.6,232.2z"/>
	<path style="fill:#FFFFFF;" d="M191.6,432.4c-4.2,0-7.6,3.4-7.6,7.6c0,4.4,2.8,5.8,4.5,9.5c2,4.3,3.1,8.2,3.1,8.2s1.1-4,3.1-8.3
		c1.7-3.6,4.5-5.1,4.5-9.4C199.2,435.8,195.8,432.4,191.6,432.4z M191.6,443.5c-1.9,0-3.4-1.5-3.4-3.4c0-1.9,1.5-3.4,3.4-3.4
		c1.9,0,3.4,1.5,3.4,3.4C195.1,442,193.5,443.5,191.6,443.5z"/>
	<g id="阿里妈妈_7_">
		<g>
			<path style="fill-rule:evenodd;clip-rule:evenodd;fill:#FFFFFF;" d="M254.1,34.9c2.5,0,5,0,7.5,0c0,3.7,0,7.5,0,11
				c0,0.2-0.3,0.5-0.6,0.6c-0.4,0-0.6,0-1,0v1.8c0.6,0,1.1,0,1.6,0c1.4,0,2.4-0.7,2.4-1.9c0-2.8,0-8.5,0-11.4h0.9v-1.7h-10.7V34.9z
				 M292.2,42.8c-0.7,0-1.7,0.7-1.7,1.7c2.2,0,5.6,0,8,0c0,0.4,0,0.9,0,1.4c0.8,0,0.5,0,1.3,0c0.5,0,1.1-0.4,1.1-1.1
				c0-1.9,0-3.4,0-5.3c-0.4,0-0.7,0-1.1,0c0-1.4,0-4.4,0-5.5c0-0.4-0.4-0.9-1-0.9H291v1.7h6c0,1.6,0,3.1,0,4.7c-1.4,0-1.7,0-2.9,0
				c-0.2,0-0.3-0.2-0.3-0.3c0-0.8,0-2,0-3.1c0-0.2-0.2-0.5-0.6-0.5h-1.8v4.1c0,0.8,0.7,1.5,1.5,1.5c0,0,3.1,0,5.6,0v1.5H292.2z
				 M260.4,43.3c0-2,0-4.7,0-7.4h-6.2v9.4c1.8,0,4.1,0,4.1,0C259.9,45.3,260.4,44.5,260.4,43.3z M257.8,43.6c-0.4,0-0.9,0-1.6,0
				v-5.9c0.7,0,1.4,0,2.1,0c0,1.8,0,3.8,0,5.3C258.3,43.4,258.1,43.6,257.8,43.6z M247.1,33.6c0,3.4,0,7.8,0,14.6h2.3
				c0-4.3,0-8.9,0-13.3c0.5,0,1.2,0,1.7,0c0,2.6,0,4.8,0,7.2c0,1-0.9,1.3-0.9,1.3v1.9c1.6,0,3.1-1.7,3.1-3.2c0-2.7,0-6.2,0-9
				c-2.1,0-3.7,0-5.7,0C247.1,33.1,247.1,33.6,247.1,33.6z M318.8,39.5c0-1.4,0-4.4,0-5.5c0-0.4-0.4-0.9-1-0.9H310v1.7c2,0,4,0,6,0
				v4.7c-1.4,0-1.7,0-2.9,0c-0.2,0-0.3-0.2-0.3-0.3c0-0.8,0-2,0-3.1c0-0.2-0.2-0.5-0.6-0.5c-0.5,0-1.2,0-1.8,0v4.1
				c0,0.8,0.7,1.5,1.5,1.5c0,0,3.1,0,5.6,0v1.5h-6.1c-0.7,0-1.8,0.6-1.8,1.7c2.2,0,5.6,0,7.9,0v1.6c0,0.3-0.2,0.4-0.5,0.4H316
				c0,0.8,0,1.2,0,1.7h1.4c0.4,0,0.3,0,0.8,0c1.2,0,1.7-0.8,1.7-1.5c0-2.2,0-5,0-7.1C319.5,39.5,319.1,39.5,318.8,39.5z M307.7,45.3
				c0.8-0.9,1.3-2,1.4-4.1c0-2.2,0-4.4,0-6.6c0-0.2-0.2-0.4-0.5-0.4c-0.9,0-2,0-2.9,0v-1h-2.3c0,0.3,0,0.7,0,1c-0.2,0-0.5,0-0.8,0
				v1.7h0.8v5.4c0,2.1,0.7,3.1,1.5,4.1c-1,0.7-2,1.1-3.5,1.1c-0.2,0-0.4,0-0.6,0c-2.2,0-4.8,0-7.1,0c-2.2,0-4.2-0.4-5-1.3
				c0.7-1,1.1-1.8,1.4-3.9c0-2.1,0-3.8,0-6.5c0-0.3-0.3-0.5-0.5-0.6c-0.9,0-1.8,0-2.9,0v-1c-0.9,0-1.3,0-2.2,0v1c-0.3,0-0.4,0-0.8,0
				v1.7c0.3,0,0.5,0,0.8,0c0,1.8,0,3.7,0,5.3c0.2,2.1,0.8,2.8,1.6,4c-1.2,0.8-2.6,1.2-4.2,1.3c-2,0-3.7,0-6.2,0c0-0.4,0-1,0-1.3h6.2
				v-1.8h-6.2c0-0.4,0-0.9,0-1.3c1.8,0,4.2,0,4.7,0c0,0,1.5,0,1.5-1.7c0-1.7,0-4.9,0-7.2c-4.9,0-9.9,0-14.9,0
				c-0.2,0-0.5,0.3-0.5,0.4c0,0.4,0,5.8,0,8.4c2.1,0,4.2,0,6.2,0v1.3h-6.2c0,0.6,0,1.2,0,1.8h6.2c0,0.4,0,0.9,0,1.3h-7.3
				c0,0.5,0,1.2,0,1.7c5.5,0,12.2,0,17.6,0c1.4,0,3.2-0.7,4.5-1.5c1.6,1.2,3.4,1.5,6.3,1.5c0.9,0,1.9,0,3,0c1.5,0,2.9,0,4.1,0
				c2.5,0,4-0.5,5.6-1.4c1.4,0.8,2.7,1.4,4.9,1.4v0h3.3v-1.7h-3.3C309.8,46.3,308.6,46.1,307.7,45.3z M272.7,40.3h-3.8v-1.8h3.8
				V40.3z M272.7,36.7h-3.8v-1.8c1.3,0,2.6,0,3.8,0V36.7z M275.5,34.9h3.8v1.8h-3.8V34.9z M275.5,38.5c1.3,0,2.6,0,3.8,0
				c0,0.7,0,1.3,0,1.8h-3.8C275.5,39.8,275.5,39.1,275.5,38.5z M287.9,41.3c-0.1,1.2-0.3,1.5-0.6,2.3c-0.4-0.7-0.7-1.1-0.8-2.3
				c0-1.6,0-3.7,0-5.3h1.3V41.3z M306.9,41.3c0,1.1-0.3,1.6-0.6,2.3c-0.4-0.6-0.7-1.2-0.7-2.3c0-1.7,0-3.7,0-5.4h1.3
				C306.9,37.6,306.9,39.6,306.9,41.3z"/>
		</g>
	</g>
	<g id="alimama.com_7_">
		<g>
			<path style="fill-rule:evenodd;clip-rule:evenodd;fill:#FFFFFF;" d="M251.2,51.5c-1.4,2.7-2.6,5.1-4.1,8h1.9
				c0.4-0.7,0.6-1.1,1-1.9c1,0,1.8,0,2.8,0c-0.2-0.6-0.4-1-0.5-1.5h-1.5c0.5-0.9,0.7-1.4,1.4-2.7c0.7,2.1,1.5,4.2,2.2,6.1h1.8
				c-1-2.8-1.9-5.2-2.8-8H251.2z M256.6,59.5h1.7l0.4-8l-1.7,0L256.6,59.5z M259.2,59.5h1.8l0.2-5.9h-1.7L259.2,59.5z M259.6,51.5
				l-0.1,1.3c0,0,1.3,0,1.7,0l0.1-1.3C259.8,51.5,259.8,51.5,259.6,51.5z M270.5,53.6c-0.3-0.1-0.6-0.2-1-0.2c-0.2,0-0.4,0-0.6,0.1
				c-0.2,0-0.4,0.1-0.5,0.2c-0.1,0.1-0.3,0.1-0.4,0.2c-0.1,0.1-0.2,0.2-0.3,0.3c-0.1,0.1-0.2,0.2-0.2,0.3c-0.1-0.2-0.2-0.3-0.2-0.4
				c-0.1-0.1-0.1-0.2-0.2-0.3c-0.1-0.1-0.2-0.1-0.3-0.2c-0.1-0.1-0.3-0.1-0.4-0.1c-0.2,0-0.3,0-0.5,0c-0.2,0-0.5,0-0.7,0.1
				c-0.2,0.1-0.4,0.1-0.6,0.2c-0.2,0.1-0.3,0.2-0.4,0.3c-0.1,0.1-0.2,0.3-0.3,0.4l0-0.9h-1.6l-0.3,5.9c0,0,1.3,0,1.7,0
				c0-0.5,0-1.2,0.1-2.1c0-0.9,0.1-1.4,0.2-1.7c0.1-0.3,0.2-0.5,0.5-0.7c0.2-0.2,0.4-0.3,0.7-0.3c0.1,0,0.3,0,0.4,0.1
				c0.1,0.1,0.2,0.1,0.3,0.2c0.1,0.1,0.1,0.2,0.2,0.3c0,0.1,0,0.3,0,0.4c0,0.3,0,0.9-0.1,1.9c-0.1,0.9-0.1,1.5-0.1,1.8
				c0.4,0,1.4,0,1.7,0l0-1.6c0-0.6,0-1,0.1-1.4c0-0.4,0.1-0.6,0.1-0.8c0.1-0.2,0.2-0.4,0.3-0.5c0.1-0.1,0.3-0.3,0.4-0.3
				c0.1-0.1,0.3-0.1,0.5-0.1c0.2,0,0.3,0,0.5,0.1c0.1,0.1,0.2,0.2,0.3,0.3c0.1,0.1,0.1,0.4,0.1,0.6c0,0.2,0,0.5,0,0.9l-0.1,1.3
				c0,0.5-0.1,1.1-0.1,1.6c0.3,0,1.4,0,1.7,0c0-0.4,0-1.1,0.1-1.9c0-0.8,0.1-1.4,0.1-1.8c0-0.4,0-0.6,0-0.8c0-0.4-0.1-0.7-0.3-0.9
				C271,53.8,270.8,53.7,270.5,53.6z M276.8,53.5c-0.4-0.1-0.8-0.1-1.2-0.1c-0.4,0-0.8,0-1.2,0.1c-0.4,0.1-1.4,0.3-1.4,0.3l-0.2,1.1
				c0,0,1.6-0.5,2.4-0.5c0.2,0,0.4,0,0.5,0.1c0.2,0,0.3,0.1,0.4,0.2c0.1,0.1,0.1,0.2,0.1,0.4c0,0.1,0,0.2,0,0.2
				c0,0.1-0.1,0.1-0.2,0.2c-0.1,0.1-0.2,0.1-0.3,0.2c-0.1,0-0.2,0.1-0.4,0.1c-0.2,0-0.3,0.1-0.5,0.1c-0.6,0.1-1,0.2-1.4,0.4
				c-0.3,0.1-0.6,0.2-0.8,0.4c-0.2,0.1-0.3,0.3-0.4,0.4c-0.1,0.1-0.2,0.3-0.3,0.4c-0.1,0.2-0.1,0.3-0.1,0.5c0,0.3,0.1,0.6,0.2,0.9
				c0.1,0.3,0.4,0.5,0.7,0.6c0.3,0.1,0.7,0.2,1.2,0.2c0.1,0,0.3,0,0.5,0c0.2,0,0.4,0,0.7-0.1c0.1-0.4,0.2-0.8,0.3-1
				c-0.2,0.1-0.4,0.1-0.6,0.1c-0.1,0-0.3,0-0.4,0c-0.2,0-0.4,0-0.5-0.1c-0.1,0-0.3-0.1-0.4-0.2c-0.1-0.1-0.1-0.3-0.1-0.4
				c0-0.1,0-0.2,0.1-0.3c0-0.1,0.1-0.2,0.2-0.3c0.1-0.1,0.2-0.2,0.3-0.2c0.1-0.1,0.3-0.1,0.4-0.2c0.1,0,0.3-0.1,0.6-0.2
				c0.2-0.1,0.4-0.1,0.5-0.2c0.1,0,0.2-0.1,0.3-0.1c0.1,0,0.2-0.1,0.3-0.2l-0.2,3.1h1.7c0,0,0-1.9,0.1-2.8c0.1-0.9,0.1-1.5,0.1-1.7
				c0-0.4-0.1-0.7-0.3-0.9C277.5,53.8,277.2,53.6,276.8,53.5z M287.3,53.6c-0.3-0.1-0.6-0.2-1-0.2c-0.2,0-0.4,0-0.6,0.1
				c-0.2,0-0.4,0.1-0.5,0.2c-0.1,0.1-0.3,0.1-0.4,0.2c-0.1,0.1-0.2,0.2-0.3,0.3c-0.1,0.1-0.2,0.2-0.2,0.3c-0.1-0.2-0.2-0.3-0.2-0.4
				c-0.1-0.1-0.1-0.2-0.2-0.3c-0.1-0.1-0.2-0.1-0.3-0.2c-0.1-0.1-0.3-0.1-0.4-0.1c-0.2,0-0.3,0-0.5,0c-0.2,0-0.5,0-0.7,0.1
				c-0.2,0.1-0.4,0.1-0.6,0.2c-0.2,0.1-0.3,0.2-0.4,0.3c-0.1,0.1-0.2,0.3-0.3,0.4l0-0.9H279l-0.3,5.9h1.7c0,0,0-1.2,0.1-2.1
				c0-0.9,0.1-1.4,0.2-1.7c0.1-0.3,0.2-0.5,0.5-0.7c0.2-0.2,0.4-0.3,0.7-0.3c0.1,0,0.3,0,0.4,0.1c0.1,0.1,0.2,0.1,0.3,0.2
				c0.1,0.1,0.1,0.2,0.2,0.3c0,0.1,0,0.3,0,0.4c0,0.3,0,0.9-0.1,1.9c-0.1,0.9-0.1,1.5-0.1,1.8c0.4,0,1.4,0,1.7,0l0-1.6
				c0-0.6,0-1,0.1-1.4c0-0.4,0.1-0.6,0.1-0.8c0.1-0.2,0.2-0.4,0.3-0.5c0.1-0.1,0.3-0.3,0.4-0.3c0.1-0.1,0.3-0.1,0.5-0.1
				c0.2,0,0.3,0,0.5,0.1c0.1,0.1,0.2,0.2,0.3,0.3c0.1,0.1,0.1,0.4,0.1,0.6c0,0.2,0,0.5,0,0.9l-0.1,1.3c0,0.5-0.1,1.1-0.1,1.6
				c0.3,0,1.4,0,1.7,0c0-0.4,0-1.1,0.1-1.9c0-0.8,0.1-1.4,0.1-1.8c0-0.4,0-0.6,0-0.8c0-0.4-0.1-0.7-0.3-0.9
				C287.8,53.8,287.6,53.7,287.3,53.6z M293.6,53.5c-0.4-0.1-0.8-0.1-1.2-0.1c-0.4,0-0.8,0-1.2,0.1c-0.4,0.1-1.4,0.3-1.4,0.3
				l-0.2,1.1c0,0,1.7-0.5,2.4-0.5c0.2,0,0.4,0,0.5,0.1c0.2,0,0.3,0.1,0.4,0.2c0.1,0.1,0.1,0.2,0.1,0.4c0,0.1,0,0.2-0.1,0.2
				c0,0.1-0.1,0.1-0.2,0.2c-0.1,0.1-0.2,0.1-0.2,0.2c-0.1,0-0.2,0.1-0.4,0.1c-0.2,0-0.3,0.1-0.5,0.1c-0.6,0.1-1,0.2-1.4,0.4
				c-0.3,0.1-0.6,0.2-0.8,0.4c-0.2,0.1-0.3,0.3-0.4,0.4c-0.1,0.1-0.2,0.3-0.3,0.4c-0.1,0.2-0.1,0.3-0.1,0.5c0,0.3,0.1,0.6,0.2,0.9
				c0.2,0.3,0.4,0.5,0.7,0.6c0.3,0.1,0.7,0.2,1.2,0.2c0.1,0,0.3,0,0.5,0c0.2,0,0.4,0,0.7-0.1c0.1-0.4,0.2-0.8,0.3-1
				c-0.2,0.1-0.4,0.1-0.6,0.1c-0.1,0-0.3,0-0.4,0c-0.2,0-0.4,0-0.5-0.1c-0.1,0-0.3-0.1-0.4-0.2c-0.1-0.1-0.1-0.3-0.1-0.4
				c0-0.1,0-0.2,0.1-0.3c0-0.1,0.1-0.2,0.2-0.3c0.1-0.1,0.2-0.2,0.3-0.2c0.1-0.1,0.3-0.1,0.4-0.2c0.1,0,0.3-0.1,0.6-0.2
				c0.2-0.1,0.4-0.1,0.5-0.2c0.1,0,0.2-0.1,0.3-0.1c0.1,0,0.2-0.1,0.3-0.2l-0.2,3.1h1.7c0,0,0-1.9,0.1-2.8c0.1-0.9,0.1-1.5,0.1-1.7
				c0-0.4-0.1-0.7-0.3-0.9C294.3,53.8,294,53.6,293.6,53.5z M295.5,57.9c0,0.8-0.1,1.3-0.1,1.6c0.6,0,1.6,0,1.6,0s0.1-1.3,0.1-1.6
				C296.7,57.9,295.5,57.9,295.5,57.9z M299.9,55.1c0.2-0.2,0.4-0.3,0.6-0.4c0.2-0.1,0.5-0.1,0.8-0.1c0.4,0,0.9,0.1,1.5,0.3
				l-0.1-1.3c-0.4-0.1-0.7-0.1-1-0.2c-0.3,0-0.5,0-0.8,0c-0.5,0-0.9,0.1-1.2,0.2c-0.4,0.1-0.7,0.3-1,0.6c-0.3,0.3-0.5,0.7-0.7,1.1
				c-0.2,0.5-0.2,0.9-0.2,1.4c0,0.4,0,0.7,0.1,1.1c0.1,0.3,0.2,0.6,0.4,0.9c0.2,0.2,0.4,0.4,0.7,0.6c0.3,0.2,0.5,0.3,0.8,0.3
				c0.3,0.1,0.6,0.1,0.9,0.1c0.5,0,1.1-0.1,1.7-0.2c0-0.3,0.1-0.5,0.1-0.8c0-0.2,0.1-0.4,0.1-0.5c-0.3,0.1-0.5,0.2-0.8,0.2
				c-0.3,0-0.5,0.1-0.6,0.1c-0.4,0-0.7-0.1-1-0.2c-0.3-0.1-0.5-0.4-0.6-0.6c-0.1-0.3-0.2-0.6-0.2-1c0-0.3,0-0.5,0.1-0.8
				C299.6,55.6,299.7,55.3,299.9,55.1z M308.8,54.2c-0.3-0.3-0.6-0.5-1.1-0.6c-0.4-0.1-0.8-0.2-1.3-0.2c-0.5,0-1,0.1-1.4,0.2
				c-0.5,0.2-0.8,0.4-1.1,0.7c-0.3,0.3-0.5,0.6-0.6,1c-0.1,0.4-0.2,0.8-0.2,1.2c0,0.4,0.1,0.8,0.2,1.2c0.2,0.4,0.4,0.7,0.7,1
				c0.3,0.3,0.6,0.5,1,0.6c0.4,0.1,0.8,0.2,1.3,0.2c0.5,0,1-0.1,1.4-0.2c0.4-0.1,0.8-0.4,1.1-0.7c0.3-0.3,0.5-0.7,0.7-1.1
				c0.2-0.4,0.2-0.8,0.2-1.3c0-0.4-0.1-0.8-0.2-1.2C309.3,54.8,309.1,54.5,308.8,54.2z M307.8,57.4c-0.1,0.3-0.3,0.6-0.6,0.7
				c-0.3,0.2-0.6,0.3-0.9,0.3c-0.3,0-0.6-0.1-0.9-0.2c-0.2-0.2-0.4-0.4-0.5-0.6c-0.1-0.3-0.2-0.6-0.2-0.9c0-0.4,0.1-0.7,0.2-1.1
				c0.1-0.3,0.3-0.6,0.6-0.7c0.3-0.2,0.6-0.2,0.9-0.2c0.3,0,0.6,0.1,0.9,0.2c0.2,0.2,0.4,0.4,0.5,0.6c0.1,0.3,0.2,0.6,0.2,0.9
				C308,56.7,307.9,57.1,307.8,57.4z M319.3,54.1c-0.2-0.2-0.4-0.4-0.7-0.5c-0.3-0.1-0.6-0.2-1-0.2c-0.2,0-0.4,0-0.6,0.1
				c-0.2,0-0.4,0.1-0.5,0.2c-0.1,0.1-0.3,0.1-0.4,0.2c-0.1,0.1-0.2,0.2-0.3,0.3c-0.1,0.1-0.2,0.2-0.2,0.3c-0.1-0.2-0.1-0.3-0.2-0.4
				c-0.1-0.1-0.1-0.2-0.2-0.3c-0.1-0.1-0.2-0.1-0.3-0.2c-0.1-0.1-0.3-0.1-0.4-0.1c-0.2,0-0.3,0-0.5,0c-0.2,0-0.5,0-0.7,0.1
				c-0.2,0.1-0.4,0.1-0.6,0.2c-0.2,0.1-0.3,0.2-0.4,0.3c-0.1,0.1-0.2,0.3-0.3,0.4l0-0.9c-0.3,0-1.3,0-1.6,0c0,0.7-0.2,5.3-0.3,5.9
				c0.4,0,1.3,0,1.7,0c0-0.5,0-1.2,0.1-2.1c0-0.9,0.1-1.4,0.2-1.7c0.1-0.3,0.2-0.5,0.5-0.7c0.2-0.2,0.4-0.3,0.7-0.3
				c0.1,0,0.3,0,0.4,0.1c0.1,0.1,0.2,0.1,0.3,0.2c0.1,0.1,0.1,0.2,0.2,0.3c0,0.1,0,0.3,0,0.4c0,0.3,0,0.9-0.1,1.9
				c-0.1,0.9-0.1,1.5-0.1,1.8c0.4,0,1.4,0,1.7,0l0-1.6c0-0.6,0-1,0.1-1.4c0-0.4,0.1-0.6,0.1-0.8c0.1-0.2,0.2-0.4,0.3-0.5
				c0.1-0.1,0.3-0.3,0.4-0.3c0.1-0.1,0.3-0.1,0.5-0.1c0.2,0,0.3,0,0.5,0.1c0.1,0.1,0.2,0.2,0.3,0.3c0.1,0.1,0.1,0.4,0.1,0.6
				c0,0.2,0,0.5,0,0.9l-0.1,1.3c0,0.5-0.1,1.1-0.1,1.6c0.3,0,1.4,0,1.7,0c0-0.4,0-1.1,0.1-1.9c0-0.8,0.1-1.4,0.1-1.8
				c0-0.4,0-0.6,0-0.8C319.6,54.6,319.5,54.3,319.3,54.1z"/>
		</g>
	</g>
	<g>
		<path style="fill:#FFFFFF;" d="M188,297.5c0,1.6-0.5,2.4-1.7,2.5c-0.4,0-0.8,0.1-1.4,0.1c0-0.4-0.1-0.7-0.2-1c0.4,0,0.8,0,1.2,0
			c0.8,0,1.1-0.5,1.1-1.6c0-1.4-0.5-2.8-1.6-4.1l1.4-5h-2.7v14.4h-0.9v-15.2h4.5v0.9l-1.4,4.8C187.5,294.8,188,296.2,188,297.5z
			 M188.9,288H199v0.8h-1.6v11.6c0,1.5-0.7,2.2-2.2,2.2c-0.5,0-1.4,0.1-2.4,0.1c0,0,0-0.1-0.1-0.3c0-0.3,0-0.5-0.1-0.7
			c0.9,0,1.7,0,2.4,0c1.1,0,1.6-0.4,1.6-1.4v-11.6h-7.7V288z M189.4,291.5h4.8v6.9h-4.8V291.5z M190.4,292.4v5.2h3v-5.2H190.4z"/>
		<path style="fill:#FFFFFF;" d="M200.9,297.9h6.7v-2.3h-6.1v-8h13.2v8h-6.2v2.3h6.8v0.9h-6.8v2.3h7.8v0.9h-16.4v-0.9h7.7v-2.3h-6.7
			V297.9z M202.5,288.4v2.8h5.2v-2.8H202.5z M202.5,292v2.8h5.2V292H202.5z M213.8,288.4h-5.2v2.8h5.2V288.4z M208.5,292v2.8h5.2
			V292H208.5z"/>
		<path style="fill:#FFFFFF;" d="M224,300.8l-0.7,0.6c-0.2-0.2-0.6-0.6-1.1-1c-0.5-0.5-0.9-0.8-1.2-1c-0.7,1.1-1.7,2.3-3.1,3.4
			c-0.2-0.3-0.5-0.5-0.7-0.7c1.4-1.1,2.5-2.2,3.1-3.3c-0.7-0.8-1.5-1.5-2.4-2.2c0.4-1.6,0.8-3.4,1.2-5.2h-1.5v-0.9h1.6
			c0.1-0.5,0.3-1.3,0.4-2.3c0.1-0.6,0.2-1,0.2-1.3l0.9,0.1c0,0.2-0.1,0.6-0.1,1.1c-0.1,0.5-0.3,1.4-0.4,2.4h3.1v0.9
			c-0.3,3.1-0.9,5.5-1.8,7.3C222.3,299.3,223.1,300,224,300.8z M222.4,291.2H220c-0.3,1.9-0.7,3.6-1.1,5c0.2,0.2,0.5,0.4,0.9,0.7
			c0.5,0.4,0.9,0.7,1.1,1C221.6,296.3,222.1,294.1,222.4,291.2z M223.8,298h7.1v0.8h-7.1V298z M226.3,289.6l-0.4,4.8h4.7l0.5-6h-6.8
			v-0.8h7.8l-0.6,6.8h1.6c-0.1,2.9-0.2,4.8-0.3,5.8c-0.1,1.5-1,2.3-2.7,2.3c-0.8,0-1.6,0-2.6,0c0-0.3-0.1-0.6-0.2-1
			c0.9,0,1.8,0.1,2.7,0.1c1.1,0,1.7-0.5,1.8-1.6c0.2-1.8,0.3-3.4,0.3-4.8h-7.3l0.5-5.6H226.3z"/>
		<path style="fill:#FFFFFF;" d="M241.4,300.8l-0.7,0.6c-0.2-0.2-0.6-0.6-1.1-1c-0.5-0.5-0.9-0.8-1.2-1c-0.7,1.1-1.7,2.3-3.1,3.4
			c-0.2-0.3-0.5-0.5-0.7-0.7c1.4-1.1,2.5-2.2,3.1-3.3c-0.7-0.8-1.5-1.5-2.4-2.2c0.4-1.6,0.8-3.4,1.2-5.2H235v-0.9h1.6
			c0.1-0.5,0.3-1.3,0.4-2.3c0.1-0.6,0.2-1,0.2-1.3l0.9,0.1c0,0.2-0.1,0.6-0.1,1.1c-0.1,0.5-0.3,1.4-0.4,2.4h3.1v0.9
			c-0.3,3.1-0.9,5.5-1.8,7.3C239.7,299.3,240.5,300,241.4,300.8z M239.8,291.2h-2.4c-0.3,1.9-0.7,3.6-1.1,5c0.2,0.2,0.5,0.4,0.9,0.7
			c0.5,0.4,0.9,0.7,1.1,1C239,296.3,239.5,294.1,239.8,291.2z M241.2,298h7.1v0.8h-7.1V298z M243.7,289.6l-0.4,4.8h4.7l0.5-6h-6.8
			v-0.8h7.8l-0.6,6.8h1.6c-0.1,2.9-0.2,4.8-0.3,5.8c-0.1,1.5-1,2.3-2.7,2.3c-0.8,0-1.6,0-2.6,0c0-0.3-0.1-0.6-0.2-1
			c0.9,0,1.8,0.1,2.7,0.1c1.1,0,1.7-0.5,1.8-1.6c0.2-1.8,0.3-3.4,0.3-4.8h-7.3l0.5-5.6H243.7z"/>
		<path style="fill:#FFFFFF;" d="M252.4,298.2c-0.1-0.4-0.3-0.8-0.5-1.1c1.2-1.8,2.1-3.8,2.7-6.1h-2.4v-0.8h2.4v-3.5h0.9v3.5h2.1
			v0.8h-2.1v2.9l0.5-0.4c0.3,0.2,0.6,0.6,1.1,1c0.5,0.4,0.8,0.7,1,1l-0.7,0.6c-0.5-0.5-1.1-1.2-1.9-2v8.7h-0.9v-10.3
			C254.2,294.9,253.4,296.8,252.4,298.2z M258,299.6c-0.2-0.3-0.4-0.5-0.7-0.8c2.6-1.1,4.6-2.6,6-4.3c-0.5,0-1.1,0.1-2,0.1
			c-0.6,0.1-1,0.1-1.3,0.1c-0.3,0-0.7,0.1-1.1,0.1c0.1,0,0,0-0.1,0.1l-0.5-0.9c0.3-0.1,0.5-0.3,0.7-0.6c0.9-1,1.7-2.1,2.7-3.3h-3.6
			v-0.9h5c-0.1-0.4-0.4-1-0.8-1.9c0-0.2-0.1-0.3-0.1-0.3l0.8-0.3c0.2,0.3,0.5,0.9,0.9,1.8c0.1,0.3,0.2,0.5,0.2,0.5l-0.7,0.3h5v0.9
			h-5.5c-1.1,1.5-2.1,2.7-3.1,3.8c1.4,0,2.9-0.1,4.2-0.3c0.5-0.6,0.9-1.3,1.2-2l0.9,0.4C264.2,295.5,261.5,298,258,299.6z
			 M258.6,302.9c-0.1-0.3-0.3-0.5-0.6-0.8c3.9-1.4,6.9-3.9,9-7.5l0.9,0.5c-1.2,1.7-2.2,3-3.1,3.9c1.2,1,2.4,1.9,3.6,2.9l-0.7,0.8
			c-0.5-0.5-1.2-1-2-1.7c-0.8-0.6-1.3-1.1-1.6-1.4C262.8,300.8,260.9,301.9,258.6,302.9z"/>
		<path style="fill:#FFFFFF;" d="M271.3,291.8l1,0.3c-0.6,2.3-1.2,4.5-1.8,6.7c-0.3-0.1-0.7-0.2-1-0.3
			C270.1,296.8,270.7,294.6,271.3,291.8z M273.9,289.9h1v9.9c0,1.1,0.5,1.7,1.7,1.6h3.3c1.2,0,1.9-0.4,2-1.4
			c0.1-0.6,0.2-1.4,0.3-2.3c0.1,0,0.3,0.1,0.5,0.1c0.2,0.1,0.4,0.2,0.5,0.2c0,0.5-0.1,1.1-0.3,1.8c0,0.3-0.1,0.5-0.1,0.7
			c-0.3,1.2-1.2,1.8-2.9,1.8h-3.7c-1.6,0-2.4-0.8-2.4-2.4V289.9z M279.2,291.7c-0.6-1.2-1.6-2.7-2.8-4.7l0.9-0.5
			c0.1,0.2,0.3,0.5,0.6,1c0.6,1,1.4,2.2,2.2,3.7L279.2,291.7z M285,297.7c-0.9-2.1-1.8-4.1-2.8-6l1-0.4c0.2,0.4,0.5,1,1,1.9
			c0.9,1.8,1.5,3.1,1.9,4L285,297.7z"/>
		<path style="fill:#FFFFFF;" d="M302.8,297.2c-3.4-0.3-5.9-0.9-7.5-1.6c-2,0.9-4.6,1.5-8,2c0-0.2-0.2-0.5-0.3-0.8
			c0,0-0.1-0.1-0.1-0.1c3-0.3,5.5-0.8,7.3-1.5c-1-0.6-2-1.4-3-2.4c-0.9,0.8-1.7,1.5-2.7,2.1c0,0-0.1-0.1-0.1-0.1
			c-0.1-0.2-0.2-0.4-0.4-0.5c2-1.3,3.5-2.7,4.6-4.2l0.7,0.3c-0.3,0.4-0.6,0.8-0.9,1.1h7.9v1c-1.2,1.1-2.5,2.1-4,2.9
			c1.5,0.6,3.8,1,6.9,1.2c-0.1,0.1-0.2,0.4-0.3,0.7C302.9,297.1,302.9,297.2,302.8,297.2z M294.5,286.7l0.8-0.1
			c0.1,0.6,0.3,1.2,0.4,2h6.9v2.9h-0.9v-2h-13v2h-0.9v-2.9h7.1c0-0.1-0.1-0.3-0.1-0.6C294.7,287.4,294.6,287,294.5,286.7z
			 M289.8,297.8h10.7v5.1h-0.9v-0.8h-8.9v0.8h-0.9V297.8z M290.7,298.6v2.7h8.9v-2.7H290.7z M299.2,292.1h-7.3
			c1,1.1,2.1,1.9,3.4,2.5C296.8,294,298.1,293.2,299.2,292.1z"/>
		<path style="fill:#FFFFFF;" d="M311.7,287l0.8-0.4c0.5,0.7,1,1.5,1.5,2.2l-0.8,0.3h6.2v7.2h-1v-0.9h-11.1c0,3-0.8,5.5-2.2,7.4
			c-0.1-0.1-0.4-0.3-0.8-0.6c0.9-1.2,1.4-2.4,1.7-3.5c0.3-1.1,0.4-2.7,0.4-4.9v-4.8h6.7c-0.1-0.3-0.4-0.8-0.9-1.6
			C311.9,287.3,311.8,287.1,311.7,287z M307.3,290v3.9v0.7h11.1V290H307.3z"/>
	</g>
	<g>
		<path style="fill:#FFFFFF;" d="M179.7,336.3c1-1.9,1.8-4.3,2.4-7l4,1.2c-0.9,3.1-1.8,5.6-2.6,7.2L179.7,336.3z M184.9,313.3
			l4.9-0.9c0.4,0.7,1,1.6,1.6,2.7c0.3,0.5,0.5,0.9,0.7,1.1h2.7c0.4-0.7,1-1.8,1.9-3.4c0.1-0.2,0.1-0.4,0.2-0.5l5.1,1.1
			c-0.7,0.9-1.4,1.8-2,2.7h4.2v11.5h-8.9c0.4,0.4,1,1.2,1.8,2.2c0.4,0.5,0.7,0.9,0.9,1.1l-3.7,2.7c-1.1-1.7-2.1-3.3-3.3-4.7l2.1-1.4
			h-10.4v-11.5h3.9c-0.3-0.5-0.8-1.2-1.4-2.1C185.1,313.7,185,313.5,184.9,313.3z M199.4,330.4l3.7-1.8c0.8,1.3,1.9,3,3.1,5.3
			c0.4,0.8,0.7,1.3,0.9,1.6l-4,1.8c-0.2-0.3-0.4-0.8-0.7-1.4c-0.4-0.7-0.6-1.2-0.8-1.5c-0.3,1.1-0.5,1.7-0.7,1.9
			c-0.4,1.8-2,2.7-4.5,2.6h-6.3c-2.8,0.1-4.1-1.4-4.1-4.5v-5.5h4.5v4.3c0,1.3,0.6,1.9,1.7,1.8h2.9c1.3,0.1,2-0.4,2-1.5
			c0.1-0.5,0.3-1,0.3-1.6c-0.1,0.1-0.1-0.1,0-0.5c0.9,0.4,1.9,0.7,2.9,0.9C200.2,331.8,199.8,331.1,199.4,330.4z M199.4,323.8v-3.5
			h-12v3.5H199.4z"/>
		<path style="fill:#FFFFFF;" d="M228.8,312.5c0,2.5,0,4.8,0,7h7.1v3.7h-3.9l3.4,1.7c-1.7,3.1-3.4,5.7-5.1,7.8
			c0.2,0.5,0.5,1.1,0.9,1.7c0.1,0.3,0.3,0.4,0.5,0.3c0.1-0.1,0.3-0.3,0.3-0.6c0.2-1.1,0.4-2.5,0.6-4.2c0.5,0.3,1.3,0.6,2.2,1
			c0.6,0.2,1,0.3,1.2,0.5c-0.4,2.8-0.7,4.5-0.9,5.3c-0.4,1.8-1.6,2.7-3.5,2.8c-1.8,0-3.3-1.1-4.5-3.4c-0.1,0.1-0.2,0.1-0.2,0.1
			c-1.7,1.5-3,2.6-4.1,3.4c-0.2-0.2-0.4-0.4-0.8-0.8c-0.8-1-1.5-1.7-2.1-2.1c0.5-0.3,0.9-0.5,1.4-0.7c-0.8-0.7-1.5-1.3-2.4-2
			c0.1,0.7,0.1,1.5,0.2,2.6c0-0.2,0,0,0.1,0.8c-0.4,0.1-0.9,0.2-1.6,0.5c-0.8,0.2-2,0.6-3.4,1c-0.2,0.1-0.3,0.1-0.4,0.2
			c-0.6,0.3-1.1,0.6-1.5,0.8l-1.6-2.7c0.7-0.6,1.1-1.3,1-2.2v-0.7c-0.1,0.1-0.2,0.2-0.3,0.2c-0.4,0.3-1.1,0.7-2,1.2
			c-0.2-0.6-0.4-1.5-0.9-2.8c-0.2-0.4-0.3-0.8-0.3-1c2.1-1,3.7-2.2,4.8-3.4h-4.2V325h5.5c0-0.1-0.1-0.4-0.2-0.7
			c-0.1-0.3-0.2-0.5-0.2-0.7l4.5-0.2c0.1,0.4,0.3,1,0.6,1.6h4.9v3.5h-1.5l2.5,2c-0.4,0.3-0.9,0.7-1.5,1.2c-0.4,0.3-0.8,0.5-0.9,0.7
			c0.2,0.2,0.6,0.5,1,0.8c0.2,0.2,0.4,0.3,0.4,0.3c0.2-0.2,0.6-0.6,1-1c0.2-0.2,0.4-0.4,0.6-0.6c-0.5-2.2-0.9-5.1-1.1-8.8h-15.9
			v-3.7h5.7V318h-4.7v-3.4h4.7v-2.1h4.4v2.1h4.5v3.4h-4.5v1.5h5.6c0-0.8,0-2.1-0.1-3.9c0-1.5,0-2.5,0-3H228.8z M218.2,329.2
			c0.2,0.2,0.5,0.3,0.9,0.6c0.4,0.3,0.6,0.5,0.8,0.7c0.2-0.2,0.6-0.6,1-1c0.4-0.4,0.8-0.7,1-0.9h-4.2c-0.7,0.8-1.4,1.5-2,2.4v4.2
			c1.1-0.5,2.1-0.8,3-1.1c-0.3-0.2-0.8-0.6-1.5-1.2c-0.6-0.4-1.1-0.8-1.3-1L218.2,329.2z M228.9,315.1l2.9-2.1
			c0.6,0.5,1.5,1.4,2.6,2.6c0.5,0.5,0.9,0.9,1.1,1.1l-3.3,2.5C231.3,318,230.2,316.6,228.9,315.1z M229.2,327.3
			c0.7-1.1,1.4-2.5,2.2-4h-2.6C229,324.8,229.1,326.1,229.2,327.3z"/>
		<path style="fill:#FFFFFF;" d="M253.5,319.2c0,0.2,0,0.4,0,0.7c-0.2,2.9-0.3,4.9-0.4,6.2c0,0.2,0,0.3-0.1,0.6c0,0.3,0,0.5-0.1,0.7
			h2.4v6c-0.1,1.2,0.4,1.8,1.4,1.7h1.6c1,0,1.6-0.6,1.8-1.7c0-0.2,0-0.6,0.1-1.1c0.1-1,0.3-1.9,0.3-2.5c0.5,0.2,1.2,0.3,2.1,0.6
			c0.9,0.3,1.6,0.5,2,0.7c-0.2,1.7-0.5,3.3-0.7,4.6c-0.5,2.2-2.1,3.3-4.7,3.3H255c-3,0.1-4.5-1.4-4.4-4.5v-1.7
			c-2,2.9-5.5,5.2-10.3,7.1c-0.8-1.5-1.7-2.8-2.6-3.9c7.3-2.7,10.9-6.1,10.8-10.4c0.1-1.2,0.2-3.3,0.3-6.2H253.5z M240.2,330.3
			v-16.6h21.6v15.5h-4.6v-11.4h-12.5v12.5H240.2z"/>
		<path style="fill:#FFFFFF;" d="M267.5,339.3v-19.9h8.7l0.6-1.8h-10.4v-3.9h27v3.9h-11.6l-0.6,1.8h11v20h-4.4v-1.7h-16.1v1.6H267.5
			z M271.7,323v11.2h2.2V323H271.7z M278,323v1.8h3.6V323H278z M278,327.7v1.8h3.6v-1.8H278z M278,332.4v1.8h3.6v-1.8H278z
			 M287.8,323h-2.1v11.2h2.1V323z"/>
		<path style="fill:#FFFFFF;" d="M297.3,325.8c-0.1-0.1-0.2-0.4-0.4-0.8c-0.9-1.6-1.6-2.6-2-3.1c5.5-2.7,9.4-5.8,11.7-9.3l5.5,0.2
			c-0.1,0.1-0.2,0.2-0.2,0.4c-0.2,0.2-0.3,0.4-0.3,0.6c2.6,3.3,6.3,5.9,10.9,7.6c-0.7,1.2-1.5,2.6-2.4,4.2c-1.6-0.8-3-1.6-4.2-2.4
			v2.2h-14.5v-2C299.7,324.5,298.3,325.3,297.3,325.8z M295.6,327.5h26v4h-6.3c1.9,1.9,3.7,3.6,5.5,5.3l-3.6,2.9l-1.4-1.7
			c-0.5,0-1.6,0-3.1,0.1c-4.9,0.1-7.8,0.3-8.8,0.3c-1.2,0.1-2.6,0.2-4.1,0.5c-0.2,0.1-0.3,0.1-0.4,0.1l-1.9-3.8
			c1.2-0.6,2.2-1.3,2.9-2.1c0.5-0.5,1-1,1.5-1.6h-6.3V327.5z M308.9,317.1c-1.1,1.2-2.6,2.6-4.6,4.3h9
			C311.9,320.4,310.4,319,308.9,317.1z M304.2,334.8c3.4,0,6.2,0,8.4-0.1c-0.5-0.7-1.1-1.4-1.7-2.1l1.5-1h-5.3
			c-0.4,0.5-1,1.2-1.9,2.1C304.8,334.2,304.5,334.6,304.2,334.8z"/>
	</g>
	<g>
		<path style="fill:#FFFFFF;" d="M187.1,471.5c-0.5-0.4-1-0.9-1.7-1.4l0.4-0.5c0.2,0.2,0.5,0.4,0.9,0.7c0.4,0.3,0.7,0.5,0.9,0.7
			L187.1,471.5z M186.4,477.6l-0.7-0.2c0.6-1.9,1-3.3,1.2-4.2c0.1,0,0.2,0.1,0.3,0.1c0.1,0.1,0.2,0.1,0.3,0.1
			C187.2,474.4,186.8,475.8,186.4,477.6z M187.5,468.5c-0.3-0.2-0.6-0.6-1.1-1c-0.3-0.2-0.4-0.4-0.6-0.5l0.4-0.4
			c0.1,0.1,0.2,0.2,0.3,0.3c0.6,0.5,1.1,0.9,1.4,1.2L187.5,468.5z M188.3,470.1c-0.1-0.1-0.2-0.2-0.4-0.5c1.1-1,1.8-2.2,2.3-3.4
			l0.6,0.1c-0.2,0.4-0.4,0.7-0.6,1.1h6.3v0.6h-6.7C189.4,468.7,188.9,469.4,188.3,470.1z M188.7,475.8l0.4-3h-1.2v-0.6h1.2l0.4-3h6
			c0,1,0,2,0,3h1.2v0.6h-1.3c0,0.3,0,0.8,0,1.3c0,0.5,0,0.9,0,1.1h0.9v0.6h-1c0,1.1-0.6,1.7-1.8,1.7c-0.5,0-1,0-1.5,0
			c0-0.2-0.1-0.5-0.1-0.7c0.5,0,1,0,1.5,0c0.9,0,1.3-0.3,1.4-1H188.7z M194.8,475.2c0.1-1,0.1-1.8,0.1-2.4h-5.2l-0.3,2.4H194.8z
			 M190.1,469.9l-0.3,2.4h5.1c0-0.6,0-1.4,0-2.4H190.1z M191.4,473.7l0.4-0.4c0.5,0.3,0.9,0.7,1.4,1.1l-0.4,0.4
			C192.3,474.4,191.8,474,191.4,473.7z M191.5,470.7l0.4-0.4c0.4,0.3,0.9,0.6,1.4,1.1l-0.4,0.4C192.5,471.4,192,471,191.5,470.7z"/>
		<path style="fill:#FFFFFF;" d="M185.3,484.2c1.6-1.1,2.8-2.4,3.7-4.1l0.7,0.1c0,0-0.1,0.1-0.1,0.2c-0.1,0.1-0.1,0.2-0.1,0.2
			c0.8,0.7,1.7,1.6,2.9,2.6l-0.5,0.5c-0.7-0.8-1.6-1.6-2.6-2.6c-0.9,1.3-2,2.5-3.3,3.5c0,0-0.1-0.1-0.1-0.2
			C185.5,484.4,185.4,484.3,185.3,484.2z M186.6,484.3h4.6c0,0.8,0,1.6-0.1,2.4c-0.1,1-0.6,1.4-1.6,1.4c-0.4,0-0.8,0-1.2,0
			c0-0.1,0-0.2,0-0.3c0-0.2-0.1-0.3-0.1-0.3c0.1,0,0.3,0,0.6,0c0.3,0,0.5,0,0.7,0c0.7,0,1-0.3,1.1-0.9c0-0.2,0-0.4,0-0.8
			c0-0.4,0-0.7,0-0.9h-3.4v4.7c0,0.6,0.3,0.8,1,0.8h1.7c0.7,0,1.1-0.2,1.3-0.6c0.1-0.4,0.2-0.8,0.2-1.4c0.2,0.1,0.4,0.2,0.7,0.2
			c0,0.4-0.1,0.9-0.3,1.4c-0.2,0.7-0.7,1-1.7,1h-2c-1,0-1.5-0.4-1.5-1.4V484.3z M192.9,481.4h0.6v7.2h-0.6V481.4z M195.4,480.2h0.7
			v9.7c0,0.8-0.4,1.2-1.3,1.3c-0.5,0-1,0-1.5,0c0-0.3-0.1-0.5-0.1-0.7c0.5,0,1,0,1.5,0c0.5,0,0.8-0.2,0.8-0.7V480.2z"/>
		<path style="fill:#FFFFFF;" d="M186.1,494.6h10v10.6h-0.7v-0.6h-8.7v0.6h-0.6V494.6z M186.7,495.1v8.9h8.7v-8.9H186.7z
			 M187.5,498.8h7.2v0.6h-2.3v2.5c0,0.3,0.2,0.5,0.6,0.5h0.5c0.4,0,0.7-0.2,0.7-0.7c0-0.2,0.1-0.5,0.1-1.2c0.1,0.1,0.3,0.1,0.5,0.2
			c0,0,0.1,0,0.1,0c0,0.2-0.1,0.4-0.1,0.7c-0.1,0.3-0.1,0.4-0.1,0.6c-0.2,0.7-0.6,1-1.2,1h-0.6c-0.8,0-1.2-0.3-1.1-1v-2.5H190
			c0.1,1.8-0.7,3.1-2.3,3.9c0,0-0.1-0.1-0.1-0.1c-0.1-0.2-0.2-0.3-0.3-0.4c1.5-0.7,2.3-1.9,2.2-3.4h-1.9V498.8z M188,496.6h6v0.5h-6
			V496.6z"/>
	</g>
	<g>
		<path style="fill:#FFFFFF;" d="M190.8,514.5c0.2,0,0.5-0.1,0.7-0.2c0.2-0.1,0.4-0.2,0.5-0.4c0.1-0.2,0.2-0.4,0.2-0.7
			c0-0.4-0.1-0.8-0.4-1c-0.3-0.2-0.6-0.3-1-0.3c-0.5,0-0.9,0.2-1.2,0.5c-0.3,0.3-0.4,0.8-0.4,1.3h-1.9c0-0.5,0.1-1,0.3-1.4
			c0.2-0.4,0.4-0.8,0.7-1.1c0.3-0.3,0.7-0.5,1.1-0.7c0.4-0.2,0.9-0.3,1.4-0.3c0.4,0,0.8,0.1,1.2,0.2c0.4,0.1,0.8,0.3,1.1,0.5
			c0.3,0.2,0.6,0.5,0.8,0.9c0.2,0.3,0.3,0.7,0.3,1.2c0,0.5-0.1,0.9-0.4,1.3c-0.2,0.4-0.6,0.6-1.1,0.8v0c0.6,0.1,1,0.4,1.3,0.8
			c0.3,0.4,0.5,0.9,0.5,1.5c0,0.5-0.1,1-0.3,1.4c-0.2,0.4-0.5,0.8-0.8,1c-0.3,0.3-0.7,0.5-1.2,0.6c-0.5,0.1-0.9,0.2-1.4,0.2
			c-0.6,0-1.1-0.1-1.5-0.2c-0.5-0.2-0.9-0.4-1.2-0.7c-0.3-0.3-0.6-0.7-0.8-1.1c-0.2-0.5-0.3-1-0.3-1.6h1.9c0,0.3,0.1,0.5,0.1,0.8
			c0.1,0.2,0.2,0.5,0.3,0.6c0.1,0.2,0.3,0.3,0.5,0.4c0.2,0.1,0.5,0.2,0.8,0.2c0.5,0,0.8-0.1,1.2-0.4c0.3-0.3,0.5-0.7,0.5-1.2
			c0-0.4-0.1-0.7-0.2-0.9c-0.1-0.2-0.3-0.3-0.6-0.4c-0.2-0.1-0.5-0.1-0.8-0.2c-0.3,0-0.5,0-0.8,0v-1.4
			C190.3,514.5,190.6,514.5,190.8,514.5z"/>
	</g>
	<g>
		<path style="fill:#FFFFFF;" d="M187.1,533.6l0.8-2.1h-2.5v-0.7h11.3v0.7h-8.1l-0.5,1.5h7c0,0.4-0.1,1-0.1,1.6c0,0.3,0,0.4,0,0.6
			c-0.1,1.1-0.9,1.6-2.4,1.6c-0.8,0-1.5,0-2.4,0c0-0.2-0.1-0.5-0.1-0.8c0.5,0,1.3,0,2.5,0c1.1,0.1,1.7-0.3,1.8-1.1
			c0-0.2,0.1-0.4,0.1-0.8c0-0.3,0-0.6,0-0.7H187.1z M187.2,526.3h7.7v3.2h-7.7V526.3z M187.8,527v2h6.4v-2H187.8z"/>
		<path style="fill:#FFFFFF;" d="M185.6,547.5c0-0.1-0.1-0.2-0.2-0.5c0-0.1-0.1-0.2-0.1-0.2c0.8-1.2,1.4-2.7,1.7-4.3h-1.5V542h1.5
			v-2.4h0.6v2.4h1.3v0.6h-1.3v2l0.4-0.3c0.1,0.1,0.3,0.3,0.6,0.6c0.2,0.3,0.4,0.5,0.6,0.6l-0.5,0.4c-0.1-0.1-0.3-0.3-0.5-0.6
			c-0.2-0.2-0.4-0.4-0.5-0.6v6.1h-0.6v-6.9C186.7,545.3,186.3,546.5,185.6,547.5z M188.8,550.8c-0.1-0.2-0.2-0.4-0.3-0.6
			c1.7-0.3,3-0.7,3.8-1c-0.2-0.1-0.6-0.2-1-0.4c-0.6-0.2-1-0.5-1.4-0.6c0.4-0.4,0.7-0.8,1-1.3H189v-0.6h2.3c0,0,0.1-0.1,0.1-0.2
			c0.1-0.1,0.3-0.4,0.5-0.7l0.7,0.2c-0.1,0.1-0.2,0.3-0.3,0.5c-0.1,0.1-0.2,0.2-0.2,0.2h4.5v0.6h-1.5c-0.5,1.1-1,1.8-1.5,2.2
			c0.2,0.1,0.6,0.2,1.1,0.4c0.8,0.3,1.4,0.5,1.8,0.7l-0.4,0.6c-1.3-0.6-2.3-1-3-1.3C192.1,550,190.7,550.4,188.8,550.8z
			 M189.5,545.4c-0.1-0.2-0.2-0.4-0.4-0.6c1.3-0.4,2.4-1.1,3.3-2h-2.9v-0.6h3v-2.7h0.7v2.7h3.4v0.6h-3.3c0.9,0.9,2,1.5,3.5,1.9
			c-0.1,0.1-0.3,0.3-0.4,0.6c-1.5-0.5-2.6-1.1-3.2-2v1.9h-0.7v-1.8C191.8,544.2,190.8,544.9,189.5,545.4z M189.8,540.6l0.4-0.4
			c0.3,0.3,0.8,0.7,1.4,1.3l-0.5,0.4C190.7,541.5,190.2,541,189.8,540.6z M190.7,547.9c0.7,0.3,1.4,0.6,2.1,0.8c0.5-0.4,1-1,1.5-2
			h-2.7C191.4,547.2,191.1,547.6,190.7,547.9z M193.9,541.6c0.5-0.4,1-0.9,1.5-1.4l0.5,0.4c-0.4,0.4-0.9,0.9-1.5,1.4L193.9,541.6z"
			/>
	</g>
	<g>
		<path style="fill:#FFFFFF;" d="M187.6,559.8c0.2-0.5,0.4-0.9,0.7-1.3c0.3-0.4,0.7-0.7,1.2-0.9c0.5-0.2,1-0.3,1.6-0.3
			c0.5,0,0.9,0.1,1.3,0.2c0.4,0.1,0.8,0.4,1.1,0.6c0.3,0.3,0.6,0.6,0.8,1c0.2,0.4,0.3,0.8,0.3,1.3c0,0.5-0.1,0.9-0.2,1.3
			c-0.2,0.4-0.4,0.7-0.6,1c-0.3,0.3-0.6,0.5-0.9,0.8c-0.3,0.2-0.7,0.5-1,0.7c-0.3,0.2-0.7,0.5-1,0.7c-0.3,0.3-0.6,0.6-0.9,0.9h4.8
			v1.8h-7.4c0-0.6,0.1-1.1,0.3-1.5c0.2-0.4,0.4-0.8,0.7-1.2c0.3-0.3,0.6-0.7,1-0.9c0.4-0.3,0.8-0.6,1.2-0.9c0.2-0.2,0.5-0.3,0.7-0.5
			c0.2-0.2,0.5-0.3,0.7-0.5c0.2-0.2,0.4-0.4,0.5-0.6c0.1-0.2,0.2-0.5,0.2-0.8c0-0.5-0.1-0.9-0.4-1.1c-0.3-0.3-0.6-0.4-1.1-0.4
			c-0.3,0-0.5,0.1-0.8,0.2c-0.2,0.1-0.4,0.3-0.5,0.5c-0.1,0.2-0.2,0.5-0.3,0.7c-0.1,0.3-0.1,0.5-0.1,0.8h-2
			C187.3,560.8,187.4,560.3,187.6,559.8z"/>
	</g>
	<g>
		<path style="fill:#FFFFFF;" d="M179.8,592.4c0.2-0.5,0.4-0.9,0.7-1.3c0.3-0.4,0.7-0.7,1.2-0.9c0.5-0.2,1-0.3,1.6-0.3
			c0.5,0,0.9,0.1,1.3,0.2c0.4,0.1,0.8,0.4,1.1,0.6c0.3,0.3,0.6,0.6,0.8,1c0.2,0.4,0.3,0.8,0.3,1.3c0,0.5-0.1,0.9-0.2,1.3
			c-0.2,0.4-0.4,0.7-0.6,1c-0.3,0.3-0.6,0.5-0.9,0.8c-0.3,0.2-0.7,0.5-1,0.7c-0.3,0.2-0.7,0.5-1,0.7c-0.3,0.3-0.6,0.6-0.9,0.9h4.8
			v1.8h-7.4c0-0.6,0.1-1.1,0.3-1.5c0.2-0.4,0.4-0.8,0.7-1.2c0.3-0.3,0.6-0.7,1-0.9c0.4-0.3,0.8-0.6,1.2-0.9c0.2-0.2,0.5-0.3,0.7-0.5
			c0.2-0.2,0.5-0.3,0.7-0.5c0.2-0.2,0.4-0.4,0.5-0.6c0.1-0.2,0.2-0.5,0.2-0.8c0-0.5-0.1-0.9-0.4-1.1c-0.3-0.3-0.6-0.4-1.1-0.4
			c-0.3,0-0.5,0.1-0.8,0.2c-0.2,0.1-0.4,0.3-0.5,0.5c-0.1,0.2-0.2,0.5-0.3,0.7c-0.1,0.3-0.1,0.5-0.1,0.8h-2
			C179.5,593.5,179.6,592.9,179.8,592.4z"/>
		<path style="fill:#FFFFFF;" d="M187.6,592.7c0.2-0.7,0.5-1.2,0.8-1.6c0.3-0.4,0.7-0.7,1.2-0.9c0.4-0.2,0.9-0.3,1.4-0.3
			c0.5,0,1,0.1,1.4,0.3c0.4,0.2,0.8,0.5,1.2,0.9c0.3,0.4,0.6,0.9,0.8,1.6c0.2,0.7,0.3,1.5,0.3,2.5c0,1-0.1,1.9-0.3,2.5
			c-0.2,0.7-0.5,1.2-0.8,1.6c-0.3,0.4-0.7,0.7-1.2,0.9c-0.4,0.2-0.9,0.3-1.4,0.3c-0.5,0-1-0.1-1.4-0.3c-0.4-0.2-0.8-0.5-1.2-0.9
			c-0.3-0.4-0.6-0.9-0.8-1.6c-0.2-0.7-0.3-1.5-0.3-2.5C187.3,594.2,187.4,593.4,187.6,592.7z M189.4,596.2c0,0.4,0.1,0.8,0.2,1.2
			c0.1,0.4,0.3,0.7,0.5,1c0.2,0.3,0.5,0.4,1,0.4c0.4,0,0.7-0.1,1-0.4c0.2-0.3,0.4-0.6,0.5-1c0.1-0.4,0.2-0.8,0.2-1.2
			c0-0.4,0-0.8,0-1c0-0.2,0-0.4,0-0.6c0-0.2,0-0.5-0.1-0.8c0-0.3-0.1-0.5-0.1-0.8c-0.1-0.3-0.2-0.5-0.3-0.7
			c-0.1-0.2-0.3-0.4-0.5-0.5c-0.2-0.1-0.4-0.2-0.7-0.2c-0.3,0-0.5,0.1-0.7,0.2c-0.2,0.1-0.3,0.3-0.5,0.5c-0.1,0.2-0.2,0.4-0.3,0.7
			c-0.1,0.3-0.1,0.5-0.1,0.8c0,0.3,0,0.5-0.1,0.8c0,0.2,0,0.5,0,0.6C189.4,595.4,189.4,595.8,189.4,596.2z"/>
		<path style="fill:#FFFFFF;" d="M198.6,600.2v-6.5h-2.5v-1.5c0.4,0,0.7,0,1-0.1c0.3-0.1,0.6-0.2,0.9-0.3c0.3-0.2,0.5-0.4,0.7-0.6
			c0.2-0.3,0.3-0.6,0.4-1h1.6v10.1H198.6z"/>
	</g>
	<g>
		<path style="fill:#FFFFFF;" d="M195.6,610.3c-2.3-1-4-2.3-5.1-3.8c-1.4,1.6-3.2,2.9-5.3,4c-0.1-0.2-0.3-0.4-0.5-0.6
			c2.5-1.2,4.4-2.6,5.8-4.4l0.8,0.1c-0.1,0.1-0.2,0.3-0.3,0.4c1.1,1.5,2.9,2.7,5.2,3.7C196,609.8,195.8,610,195.6,610.3z
			 M194.4,616.8c-0.1-0.1-0.2-0.2-0.4-0.4c-0.2-0.2-0.3-0.3-0.3-0.4c-2.5,0.1-4.6,0.2-6.1,0.3c-0.1,0-0.2,0-0.3,0
			c-0.3,0-0.5,0.1-0.7,0.1l-0.4-0.7c0.2-0.1,0.5-0.3,0.8-0.5c0.8-0.7,1.6-1.5,2.3-2.4h-4.1v-0.7h10.5v0.7h-5.5c-0.8,1-1.8,2-2.8,2.9
			c2-0.1,3.9-0.2,5.7-0.2c-0.1-0.1-0.2-0.2-0.4-0.4c-0.2-0.1-0.5-0.4-0.9-0.9l0.5-0.4c1.2,1.2,2.2,2,2.8,2.6L194.4,616.8z
			 M187.3,609.8h6.2v0.6h-6.2V609.8z"/>
		<path style="fill:#FFFFFF;" d="M186.8,628.5c0.7-0.5,1.3-1,1.7-1.4c0,0.1,0.1,0.3,0.1,0.5c0,0.1,0,0.2,0,0.2
			c-0.6,0.4-1.2,0.9-1.9,1.5c-0.2,0.1-0.3,0.2-0.5,0.4l-0.5-0.4c0.2-0.2,0.3-0.6,0.3-1v-4.4h-1.4v-0.6h2.1V628.5z M187,622
			c-0.3-0.3-0.7-0.8-1.1-1.4c-0.2-0.2-0.3-0.4-0.4-0.5l0.5-0.4c0.2,0.2,0.4,0.4,0.7,0.7c0.4,0.5,0.7,0.8,1,1.1L187,622z M187.4,630
			c1.6-0.8,2.9-1.7,4-2.8c-1.5-1.7-2.5-4.1-2.8-6.9l0.6-0.1c0.3,2.8,1.2,4.9,2.7,6.6c1.4-1.6,2.3-3.8,2.7-6.6l0.7,0.1
			c-0.5,3-1.4,5.3-2.9,6.9c1,1,2.3,1.9,3.8,2.6c0,0-0.1,0.1-0.1,0.1c-0.1,0.1-0.2,0.3-0.4,0.6c-1.7-0.9-3-1.8-3.8-2.7
			c-0.8,0.9-2.1,1.8-3.9,2.9C187.7,630.4,187.6,630.2,187.4,630z M190.8,619.8l0.5-0.3c0.6,1,1.1,1.8,1.5,2.4l-0.6,0.3
			C191.7,621.4,191.3,620.6,190.8,619.8z"/>
		<path style="fill:#FFFFFF;" d="M194.5,640.4c-0.3-0.3-0.6-0.5-0.8-0.8c-0.3,0-0.8,0-1.4,0c-0.7,0-1.2,0-1.5,0v1.6h4.3v0.6h-4.3
			v1.5h5.4v0.6h-11.3v-0.6h5.3v-1.5h-4.2v-0.6h4.2v-1.6c-0.3,0-0.7,0-1.2,0c-0.6,0-1,0-1.3,0c-0.1,0-0.3,0-0.6,0c-0.2,0-0.4,0-0.5,0
			l-0.3-0.6c0.3-0.1,0.6-0.3,0.8-0.4c0.6-0.4,1.2-0.9,1.9-1.5h-2.3v-0.6h8v0.6h-4.7c-0.7,0.6-1.5,1.2-2.5,1.9c0.6,0,1.6-0.1,3-0.1
			c1.2-0.1,2.2-0.1,2.8-0.1c-0.4-0.3-0.8-0.7-1.1-1l0.4-0.4c1,0.8,1.9,1.5,2.6,2.2L194.5,640.4z M189.8,633.5l0.6-0.3
			c0.3,0.4,0.5,0.9,0.8,1.4l-0.4,0.2h5v1.9H195v-1.3h-9.2v1.3h-0.6v-1.9h5.2C190.2,634.2,190,633.8,189.8,633.5z"/>
	</g>
	<g>
		<path style="fill:#FFFFFF;" d="M185.6,580.5c0-0.1-0.1-0.2-0.2-0.5c0-0.1-0.1-0.2-0.1-0.2c0.8-1.2,1.4-2.7,1.7-4.3h-1.5V575h1.5
			v-2.4h0.6v2.4h1.3v0.6h-1.3v2l0.4-0.3c0.1,0.1,0.3,0.3,0.6,0.6c0.2,0.3,0.4,0.5,0.6,0.6l-0.5,0.4c-0.1-0.1-0.3-0.3-0.5-0.6
			c-0.2-0.2-0.4-0.4-0.5-0.6v6.1h-0.6v-6.9C186.7,578.3,186.3,579.5,185.6,580.5z M188.8,583.8c-0.1-0.2-0.2-0.4-0.3-0.6
			c1.7-0.3,3-0.7,3.8-1c-0.2-0.1-0.6-0.2-1-0.4c-0.6-0.2-1-0.5-1.4-0.6c0.4-0.4,0.7-0.8,1-1.3H189v-0.6h2.3c0,0,0.1-0.1,0.1-0.2
			c0.1-0.1,0.3-0.4,0.5-0.7l0.7,0.2c-0.1,0.1-0.2,0.3-0.3,0.5c-0.1,0.1-0.2,0.2-0.2,0.2h4.5v0.6h-1.5c-0.5,1.1-1,1.8-1.5,2.2
			c0.2,0.1,0.6,0.2,1.1,0.4c0.8,0.3,1.4,0.5,1.8,0.7l-0.4,0.6c-1.3-0.6-2.3-1-3-1.3C192.1,583,190.7,583.4,188.8,583.8z
			 M189.5,578.4c-0.1-0.2-0.2-0.4-0.4-0.6c1.3-0.4,2.4-1.1,3.3-2h-2.9v-0.6h3v-2.7h0.7v2.7h3.4v0.6h-3.3c0.9,0.9,2,1.5,3.5,1.9
			c-0.1,0.1-0.3,0.3-0.4,0.6c-1.5-0.5-2.6-1.1-3.2-2v1.9h-0.7v-1.8C191.8,577.2,190.8,577.9,189.5,578.4z M189.8,573.6l0.4-0.4
			c0.3,0.3,0.8,0.7,1.4,1.3l-0.5,0.4C190.7,574.5,190.2,574,189.8,573.6z M190.7,580.9c0.7,0.3,1.4,0.6,2.1,0.8c0.5-0.4,1-1,1.5-2
			h-2.7C191.4,580.2,191.1,580.6,190.7,580.9z M193.9,574.6c0.5-0.4,1-0.9,1.5-1.4l0.5,0.4c-0.4,0.4-0.9,0.9-1.5,1.4L193.9,574.6z"
			/>
	</g>
</g>
</svg>
