<?xml version="1.0" encoding="utf-8"?>
<!-- Generator: Adobe Illustrator 17.0.2, SVG Export Plug-In . SVG Version: 6.00 Build 0)  -->
<!DOCTYPE svg PUBLIC "-//W3C//DTD SVG 1.1//EN" "http://www.w3.org/Graphics/SVG/1.1/DTD/svg11.dtd">
<svg version="1.1" id="图层_1" xmlns="http://www.w3.org/2000/svg" xmlns:xlink="http://www.w3.org/1999/xlink" x="0px" y="0px"
	 width="1914.191px" height="1029.103px" viewBox="0 0 1914.191 1029.103" enable-background="new 0 0 1914.191 1029.103"
	 xml:space="preserve">
<g>
	<rect x="415.12" y="266.987" fill="#F0F0F0" width="1.896" height="447.664"/>
	<rect x="604.808" y="266.987" fill="#F0F0F0" width="1.896" height="447.664"/>
	<rect x="794.496" y="266.987" fill="#F0F0F0" width="1.896" height="447.664"/>
	<rect x="982.184" y="266.987" fill="#F0F0F0" width="1.896" height="447.664"/>
	<rect x="1173.872" y="266.987" fill="#F0F0F0" width="1.896" height="447.664"/>
	<rect x="1363.56" y="266.987" fill="#F0F0F0" width="1.896" height="447.664"/>
	<rect x="509.965" y="266.987" fill="#F0F0F0" width="1.896" height="447.664"/>
	<rect x="699.652" y="266.987" fill="#F0F0F0" width="1.896" height="447.664"/>
	<rect x="887.341" y="266.987" fill="#F0F0F0" width="1.896" height="447.664"/>
	<rect x="1079.028" y="266.987" fill="#F0F0F0" width="1.896" height="447.664"/>
	<rect x="1268.717" y="266.987" fill="#F0F0F0" width="1.896" height="447.664"/>
	<rect x="1458.404" y="266.987" fill="#F0F0F0" width="1.896" height="447.664"/>
	<rect x="416.068" y="713.702" fill="#F0F0F0" width="1044.18" height="1.896"/>
	<g>
		<path fill="#CCCCCC" d="M402.237,767.975c0,0.476-0.043,0.911-0.129,1.306c-0.087,0.396-0.235,0.732-0.445,1.01
			c-0.21,0.278-0.486,0.492-0.828,0.644c-0.343,0.151-0.768,0.228-1.274,0.228c-0.173,0-0.344-0.015-0.514-0.042
			s-0.326-0.064-0.468-0.111c-0.142-0.046-0.266-0.096-0.37-0.148c-0.105-0.052-0.175-0.097-0.209-0.134
			c-0.033-0.037-0.062-0.074-0.083-0.111s-0.04-0.082-0.056-0.134c-0.016-0.053-0.026-0.117-0.032-0.195
			c-0.006-0.077-0.01-0.171-0.01-0.282c0-0.136,0.005-0.248,0.015-0.338c0.009-0.09,0.025-0.16,0.051-0.213
			c0.024-0.053,0.054-0.09,0.088-0.111s0.075-0.032,0.125-0.032c0.049,0,0.112,0.023,0.189,0.069s0.17,0.098,0.278,0.152
			c0.107,0.056,0.232,0.107,0.375,0.153c0.142,0.046,0.309,0.069,0.5,0.069c0.21,0,0.39-0.026,0.537-0.079
			c0.148-0.052,0.271-0.149,0.371-0.291c0.099-0.143,0.173-0.338,0.222-0.589c0.05-0.25,0.074-0.575,0.074-0.977v-8.577
			c0-0.043,0.013-0.083,0.037-0.12s0.068-0.068,0.13-0.093s0.144-0.043,0.245-0.056c0.103-0.012,0.23-0.019,0.385-0.019
			c0.148,0,0.274,0.007,0.38,0.019c0.104,0.013,0.187,0.031,0.245,0.056s0.102,0.056,0.13,0.093c0.027,0.037,0.041,0.077,0.041,0.12
			V767.975z"/>
		<path fill="#CCCCCC" d="M411.5,770.772c0,0.074-0.025,0.13-0.074,0.167c-0.05,0.037-0.118,0.064-0.204,0.083
			c-0.087,0.019-0.213,0.028-0.38,0.028c-0.16,0-0.289-0.01-0.384-0.028c-0.097-0.019-0.166-0.046-0.209-0.083
			s-0.064-0.093-0.064-0.167v-0.833c-0.364,0.389-0.771,0.691-1.218,0.907c-0.448,0.217-0.922,0.324-1.422,0.324
			c-0.438,0-0.836-0.057-1.19-0.171c-0.355-0.114-0.657-0.279-0.908-0.496c-0.25-0.216-0.444-0.481-0.583-0.796
			c-0.139-0.315-0.208-0.673-0.208-1.075c0-0.469,0.096-0.876,0.287-1.222c0.19-0.346,0.466-0.634,0.824-0.862
			c0.357-0.228,0.796-0.399,1.314-0.514c0.52-0.114,1.103-0.171,1.751-0.171h1.148v-0.648c0-0.321-0.034-0.605-0.102-0.853
			c-0.068-0.247-0.178-0.452-0.329-0.616c-0.151-0.163-0.348-0.287-0.588-0.37c-0.241-0.083-0.537-0.125-0.89-0.125
			c-0.376,0-0.715,0.045-1.014,0.135c-0.3,0.089-0.562,0.188-0.787,0.296c-0.226,0.108-0.414,0.207-0.565,0.297
			c-0.151,0.089-0.264,0.134-0.338,0.134c-0.05,0-0.093-0.013-0.13-0.037s-0.069-0.062-0.098-0.111
			c-0.027-0.049-0.048-0.112-0.06-0.189c-0.013-0.077-0.019-0.162-0.019-0.255c0-0.154,0.011-0.276,0.032-0.366
			c0.021-0.089,0.074-0.174,0.157-0.254c0.084-0.08,0.228-0.175,0.431-0.283c0.204-0.107,0.438-0.206,0.704-0.296
			s0.556-0.164,0.871-0.223c0.314-0.059,0.633-0.088,0.954-0.088c0.599,0,1.107,0.068,1.528,0.204
			c0.419,0.136,0.759,0.335,1.019,0.598c0.259,0.262,0.447,0.588,0.564,0.977s0.177,0.843,0.177,1.361V770.772z M409.98,766.965
			h-1.306c-0.42,0-0.784,0.036-1.093,0.106c-0.31,0.071-0.565,0.177-0.77,0.315c-0.203,0.139-0.354,0.306-0.449,0.5
			s-0.144,0.418-0.144,0.672c0,0.432,0.138,0.776,0.412,1.032c0.275,0.257,0.659,0.385,1.153,0.385c0.401,0,0.773-0.103,1.116-0.306
			c0.343-0.204,0.702-0.516,1.079-0.936V766.965z"/>
		<path fill="#CCCCCC" d="M421.484,770.763c0,0.05-0.013,0.091-0.037,0.125c-0.025,0.034-0.065,0.063-0.121,0.088
			s-0.133,0.043-0.231,0.056s-0.222,0.019-0.37,0.019c-0.154,0-0.281-0.006-0.38-0.019s-0.176-0.031-0.231-0.056
			s-0.096-0.054-0.12-0.088c-0.025-0.034-0.037-0.075-0.037-0.125v-4.881c0-0.476-0.037-0.858-0.111-1.148
			c-0.074-0.291-0.183-0.541-0.324-0.751c-0.143-0.21-0.326-0.37-0.551-0.481c-0.226-0.111-0.486-0.167-0.783-0.167
			c-0.383,0-0.766,0.137-1.148,0.408s-0.784,0.67-1.204,1.194v5.826c0,0.05-0.013,0.091-0.037,0.125s-0.064,0.063-0.12,0.088
			s-0.133,0.043-0.231,0.056c-0.1,0.013-0.226,0.019-0.38,0.019c-0.148,0-0.271-0.006-0.371-0.019
			c-0.099-0.013-0.177-0.031-0.235-0.056c-0.06-0.024-0.1-0.054-0.121-0.088s-0.032-0.075-0.032-0.125v-8.336
			c0-0.05,0.01-0.091,0.028-0.125s0.055-0.065,0.11-0.093s0.127-0.046,0.214-0.056c0.086-0.009,0.2-0.014,0.342-0.014
			c0.136,0,0.249,0.005,0.339,0.014c0.089,0.01,0.158,0.028,0.208,0.056s0.085,0.059,0.106,0.093s0.032,0.075,0.032,0.125v1.103
			c0.47-0.525,0.938-0.909,1.403-1.153c0.467-0.244,0.938-0.366,1.413-0.366c0.556,0,1.023,0.095,1.402,0.282
			c0.38,0.188,0.688,0.44,0.922,0.755c0.234,0.315,0.403,0.685,0.505,1.107s0.153,0.931,0.153,1.523V770.763z"/>
	</g>
	<g>
		<g>
			<path fill="#CCCCCC" d="M372.567,711.229c0,0.92-0.072,1.76-0.217,2.52c-0.146,0.76-0.387,1.412-0.723,1.959
				c-0.337,0.546-0.776,0.97-1.32,1.269c-0.543,0.3-1.213,0.449-2.01,0.449c-0.753,0-1.388-0.134-1.903-0.402
				s-0.931-0.664-1.246-1.186c-0.314-0.522-0.538-1.164-0.671-1.927s-0.199-1.638-0.199-2.626c0-0.914,0.074-1.752,0.223-2.515
				c0.147-0.763,0.389-1.417,0.722-1.964c0.334-0.546,0.772-0.969,1.315-1.269s1.21-0.449,2.001-0.449
				c0.759,0,1.396,0.135,1.912,0.403s0.931,0.663,1.246,1.186c0.314,0.521,0.538,1.163,0.672,1.926
				C372.501,709.365,372.567,710.241,372.567,711.229z M370.937,711.34c0-0.599-0.021-1.136-0.064-1.611
				c-0.044-0.476-0.106-0.896-0.19-1.26c-0.083-0.364-0.191-0.678-0.324-0.94s-0.291-0.479-0.477-0.648s-0.396-0.293-0.635-0.37
				c-0.237-0.077-0.505-0.116-0.801-0.116c-0.525,0-0.951,0.124-1.278,0.371s-0.585,0.586-0.773,1.019s-0.316,0.938-0.385,1.519
				c-0.067,0.581-0.102,1.204-0.102,1.871c0,0.896,0.047,1.656,0.139,2.283c0.093,0.627,0.239,1.138,0.44,1.533
				c0.2,0.396,0.457,0.683,0.769,0.861s0.69,0.269,1.135,0.269c0.346,0,0.649-0.056,0.912-0.167s0.488-0.27,0.677-0.477
				c0.188-0.207,0.344-0.455,0.467-0.746c0.124-0.29,0.223-0.611,0.297-0.963c0.074-0.353,0.125-0.733,0.152-1.144
				C370.924,712.212,370.937,711.784,370.937,711.34z"/>
		</g>
	</g>
	<g>
		<g>
			<path fill="#CCCCCC" d="M360.632,628.295c0,0.111-0.008,0.21-0.023,0.297c-0.016,0.086-0.037,0.159-0.065,0.218
				c-0.027,0.059-0.064,0.102-0.11,0.129c-0.047,0.028-0.098,0.042-0.153,0.042h-6.622c-0.087,0-0.162-0.011-0.228-0.032
				c-0.064-0.021-0.12-0.058-0.166-0.106c-0.047-0.05-0.081-0.121-0.103-0.213c-0.021-0.093-0.032-0.207-0.032-0.343
				c0-0.124,0.005-0.231,0.015-0.324s0.03-0.175,0.062-0.246c0.032-0.07,0.072-0.142,0.12-0.213c0.047-0.07,0.109-0.146,0.186-0.227
				l2.396-2.464c0.554-0.568,0.998-1.077,1.332-1.528c0.334-0.45,0.592-0.861,0.772-1.231c0.182-0.371,0.301-0.707,0.358-1.01
				c0.057-0.303,0.086-0.587,0.086-0.853c0-0.265-0.045-0.517-0.134-0.755c-0.09-0.237-0.219-0.445-0.388-0.625
				c-0.169-0.179-0.38-0.321-0.635-0.426c-0.255-0.105-0.549-0.157-0.88-0.157c-0.389,0-0.737,0.052-1.046,0.157
				c-0.31,0.104-0.58,0.219-0.812,0.343c-0.232,0.123-0.427,0.237-0.583,0.343c-0.156,0.104-0.272,0.157-0.349,0.157
				c-0.045,0-0.085-0.013-0.12-0.037s-0.063-0.064-0.086-0.12s-0.04-0.13-0.053-0.223s-0.019-0.204-0.019-0.333
				c0-0.093,0.003-0.173,0.009-0.241c0.007-0.067,0.018-0.126,0.033-0.176c0.015-0.05,0.035-0.096,0.06-0.139
				c0.024-0.044,0.074-0.098,0.148-0.162c0.074-0.065,0.202-0.153,0.385-0.265c0.182-0.111,0.41-0.221,0.685-0.328
				c0.275-0.108,0.578-0.199,0.908-0.273s0.678-0.111,1.042-0.111c0.58,0,1.088,0.082,1.523,0.245
				c0.436,0.164,0.797,0.388,1.084,0.672s0.501,0.614,0.644,0.991c0.142,0.377,0.213,0.777,0.213,1.204
				c0,0.383-0.034,0.764-0.102,1.144c-0.068,0.38-0.212,0.79-0.431,1.231c-0.22,0.442-0.536,0.933-0.949,1.474
				c-0.414,0.54-0.964,1.162-1.649,1.866l-1.898,1.981h5.215c0.049,0,0.097,0.015,0.144,0.042c0.046,0.027,0.086,0.069,0.12,0.125
				s0.059,0.125,0.074,0.208C360.624,628.087,360.632,628.184,360.632,628.295z"/>
			<path fill="#CCCCCC" d="M370.643,622.96c0,0.92-0.072,1.76-0.217,2.52c-0.146,0.76-0.387,1.412-0.723,1.959
				c-0.337,0.546-0.776,0.97-1.32,1.269c-0.543,0.3-1.213,0.449-2.01,0.449c-0.753,0-1.388-0.134-1.903-0.402
				s-0.931-0.664-1.246-1.186c-0.314-0.522-0.538-1.164-0.671-1.927s-0.199-1.638-0.199-2.626c0-0.914,0.074-1.752,0.223-2.515
				c0.147-0.763,0.389-1.417,0.722-1.964c0.334-0.546,0.772-0.969,1.315-1.269s1.21-0.449,2.001-0.449
				c0.759,0,1.396,0.135,1.912,0.403s0.931,0.663,1.246,1.186c0.314,0.521,0.538,1.163,0.672,1.926
				C370.577,621.097,370.643,621.973,370.643,622.96z M369.013,623.071c0-0.599-0.021-1.136-0.064-1.611
				c-0.044-0.476-0.106-0.896-0.19-1.26c-0.083-0.364-0.191-0.678-0.324-0.94s-0.291-0.479-0.477-0.648s-0.396-0.293-0.635-0.37
				c-0.237-0.077-0.505-0.116-0.801-0.116c-0.525,0-0.951,0.124-1.278,0.371s-0.585,0.586-0.773,1.019s-0.316,0.938-0.385,1.519
				c-0.067,0.581-0.102,1.204-0.102,1.871c0,0.896,0.047,1.656,0.139,2.283c0.093,0.627,0.239,1.138,0.44,1.533
				c0.2,0.396,0.457,0.683,0.769,0.861s0.69,0.269,1.135,0.269c0.346,0,0.649-0.056,0.912-0.167s0.488-0.27,0.677-0.477
				c0.188-0.207,0.344-0.455,0.467-0.746c0.124-0.29,0.223-0.611,0.297-0.963c0.074-0.353,0.125-0.733,0.152-1.144
				C369,623.944,369.013,623.516,369.013,623.071z"/>
		</g>
	</g>
	<g>
		<g>
			<path fill="#CCCCCC" d="M361.14,537.304c0,0.203-0.03,0.364-0.093,0.481c-0.062,0.117-0.147,0.176-0.259,0.176h-1.353v2.52
				c0,0.05-0.013,0.091-0.038,0.125s-0.07,0.063-0.134,0.088s-0.146,0.043-0.248,0.056s-0.232,0.019-0.391,0.019
				c-0.153,0-0.28-0.006-0.382-0.019s-0.183-0.031-0.243-0.056s-0.102-0.054-0.124-0.088s-0.033-0.075-0.033-0.125v-2.52h-4.903
				c-0.073,0-0.135-0.009-0.184-0.027s-0.094-0.053-0.134-0.103c-0.039-0.049-0.067-0.12-0.082-0.213
				c-0.016-0.093-0.023-0.213-0.023-0.361c0-0.117,0.003-0.222,0.01-0.314c0.006-0.093,0.018-0.178,0.036-0.255
				s0.043-0.151,0.073-0.223c0.03-0.07,0.067-0.146,0.11-0.227l4.272-7.28c0.031-0.049,0.077-0.093,0.137-0.129
				c0.06-0.037,0.137-0.068,0.231-0.093c0.094-0.025,0.211-0.042,0.35-0.051c0.138-0.01,0.302-0.015,0.49-0.015
				c0.208,0,0.389,0.008,0.543,0.023s0.279,0.035,0.373,0.061c0.095,0.024,0.167,0.057,0.218,0.097
				c0.05,0.04,0.075,0.088,0.075,0.144v7.65h1.353c0.104,0,0.189,0.055,0.255,0.162C361.108,536.916,361.14,537.081,361.14,537.304z
				 M357.844,530.07h-0.019l-3.854,6.576h3.872V530.07z"/>
			<path fill="#CCCCCC" d="M370.643,534.692c0,0.92-0.072,1.76-0.217,2.52c-0.146,0.76-0.387,1.412-0.723,1.959
				c-0.337,0.546-0.776,0.97-1.32,1.269c-0.543,0.3-1.213,0.449-2.01,0.449c-0.753,0-1.388-0.134-1.903-0.402
				s-0.931-0.664-1.246-1.186c-0.314-0.522-0.538-1.164-0.671-1.927s-0.199-1.638-0.199-2.626c0-0.914,0.074-1.752,0.223-2.515
				c0.147-0.763,0.389-1.417,0.722-1.964c0.334-0.546,0.772-0.969,1.315-1.269s1.21-0.449,2.001-0.449
				c0.759,0,1.396,0.135,1.912,0.403s0.931,0.663,1.246,1.186c0.314,0.521,0.538,1.163,0.672,1.926
				C370.577,532.828,370.643,533.704,370.643,534.692z M369.013,534.803c0-0.599-0.021-1.136-0.064-1.611
				c-0.044-0.476-0.106-0.896-0.19-1.26c-0.083-0.364-0.191-0.678-0.324-0.94s-0.291-0.479-0.477-0.648s-0.396-0.293-0.635-0.37
				c-0.237-0.077-0.505-0.116-0.801-0.116c-0.525,0-0.951,0.124-1.278,0.371s-0.585,0.586-0.773,1.019s-0.316,0.938-0.385,1.519
				c-0.067,0.581-0.102,1.204-0.102,1.871c0,0.896,0.047,1.656,0.139,2.283c0.093,0.627,0.239,1.138,0.44,1.533
				c0.2,0.396,0.457,0.683,0.769,0.861s0.69,0.269,1.135,0.269c0.346,0,0.649-0.056,0.912-0.167s0.488-0.27,0.677-0.477
				c0.188-0.207,0.344-0.455,0.467-0.746c0.124-0.29,0.223-0.611,0.297-0.963c0.074-0.353,0.125-0.733,0.152-1.144
				C369,535.675,369.013,535.247,369.013,534.803z"/>
		</g>
	</g>
	<g>
		<g>
			<path fill="#CCCCCC" d="M360.937,448.564c0,0.525-0.081,1.033-0.241,1.523c-0.161,0.491-0.407,0.924-0.741,1.297
				c-0.333,0.374-0.756,0.673-1.269,0.898s-1.118,0.338-1.815,0.338c-0.5,0-0.941-0.062-1.324-0.185
				c-0.383-0.124-0.717-0.3-1.001-0.528s-0.52-0.51-0.708-0.843c-0.188-0.334-0.34-0.713-0.454-1.14
				c-0.114-0.426-0.196-0.892-0.245-1.398c-0.05-0.506-0.074-1.05-0.074-1.63c0-0.513,0.027-1.031,0.083-1.557
				c0.056-0.524,0.154-1.03,0.297-1.519c0.142-0.487,0.335-0.946,0.578-1.375c0.244-0.43,0.55-0.803,0.917-1.121
				c0.368-0.318,0.808-0.569,1.32-0.755s1.108-0.278,1.787-0.278c0.229,0,0.46,0.015,0.695,0.042
				c0.234,0.028,0.45,0.065,0.648,0.111c0.197,0.046,0.364,0.098,0.5,0.152c0.136,0.056,0.226,0.101,0.269,0.135
				s0.075,0.071,0.097,0.111c0.022,0.04,0.039,0.083,0.052,0.13c0.012,0.046,0.021,0.099,0.027,0.157s0.01,0.131,0.01,0.218
				c0,0.111-0.002,0.207-0.005,0.287s-0.016,0.145-0.037,0.194s-0.05,0.086-0.083,0.111c-0.034,0.024-0.079,0.037-0.135,0.037
				c-0.068,0-0.16-0.021-0.278-0.065c-0.117-0.043-0.259-0.091-0.426-0.144c-0.167-0.052-0.369-0.1-0.606-0.144
				c-0.238-0.043-0.514-0.064-0.829-0.064c-0.574,0-1.068,0.117-1.481,0.352c-0.414,0.235-0.752,0.55-1.015,0.945
				c-0.263,0.395-0.457,0.854-0.583,1.375c-0.127,0.521-0.199,1.066-0.218,1.635c0.16-0.093,0.341-0.186,0.542-0.277
				c0.2-0.093,0.419-0.177,0.657-0.251c0.237-0.073,0.489-0.134,0.755-0.18c0.266-0.047,0.55-0.07,0.852-0.07
				c0.648,0,1.195,0.088,1.64,0.265c0.444,0.176,0.805,0.42,1.079,0.731s0.471,0.68,0.588,1.103S360.937,448.07,360.937,448.564z
				 M359.325,448.712c0-0.358-0.035-0.684-0.106-0.978c-0.071-0.293-0.189-0.542-0.356-0.745c-0.167-0.204-0.389-0.361-0.667-0.473
				c-0.277-0.111-0.62-0.167-1.028-0.167c-0.229,0-0.457,0.021-0.685,0.061c-0.229,0.04-0.449,0.096-0.663,0.167
				c-0.213,0.07-0.416,0.154-0.611,0.25c-0.194,0.096-0.372,0.199-0.532,0.31c0,0.797,0.051,1.464,0.153,2.001
				c0.102,0.537,0.25,0.968,0.444,1.292s0.437,0.556,0.727,0.694c0.291,0.14,0.63,0.209,1.02,0.209c0.395,0,0.737-0.074,1.027-0.223
				c0.291-0.148,0.531-0.347,0.723-0.597c0.191-0.251,0.332-0.531,0.422-0.844C359.28,449.359,359.325,449.039,359.325,448.712z"/>
			<path fill="#CCCCCC" d="M370.643,446.424c0,0.92-0.072,1.76-0.217,2.52c-0.146,0.76-0.387,1.412-0.723,1.959
				c-0.337,0.546-0.776,0.97-1.32,1.269c-0.543,0.3-1.213,0.449-2.01,0.449c-0.753,0-1.388-0.134-1.903-0.402
				s-0.931-0.664-1.246-1.186c-0.314-0.522-0.538-1.164-0.671-1.927s-0.199-1.638-0.199-2.626c0-0.914,0.074-1.752,0.223-2.515
				c0.147-0.763,0.389-1.417,0.722-1.964c0.334-0.546,0.772-0.969,1.315-1.269s1.21-0.449,2.001-0.449
				c0.759,0,1.396,0.135,1.912,0.403s0.931,0.663,1.246,1.186c0.314,0.521,0.538,1.163,0.672,1.926
				C370.577,444.561,370.643,445.437,370.643,446.424z M369.013,446.535c0-0.599-0.021-1.136-0.064-1.611
				c-0.044-0.476-0.106-0.896-0.19-1.26c-0.083-0.364-0.191-0.678-0.324-0.94s-0.291-0.479-0.477-0.648s-0.396-0.293-0.635-0.37
				c-0.237-0.077-0.505-0.116-0.801-0.116c-0.525,0-0.951,0.124-1.278,0.371s-0.585,0.586-0.773,1.019s-0.316,0.938-0.385,1.519
				c-0.067,0.581-0.102,1.204-0.102,1.871c0,0.896,0.047,1.656,0.139,2.283c0.093,0.627,0.239,1.138,0.44,1.533
				c0.2,0.396,0.457,0.683,0.769,0.861s0.69,0.269,1.135,0.269c0.346,0,0.649-0.056,0.912-0.167s0.488-0.27,0.677-0.477
				c0.188-0.207,0.344-0.455,0.467-0.746c0.124-0.29,0.223-0.611,0.297-0.963c0.074-0.353,0.125-0.733,0.152-1.144
				C369,447.407,369.013,446.98,369.013,446.535z"/>
		</g>
	</g>
	<g>
		<g>
			<path fill="#CCCCCC" d="M360.909,361.101c0,0.519-0.093,0.98-0.277,1.385c-0.186,0.404-0.453,0.746-0.802,1.023
				c-0.349,0.278-0.779,0.488-1.292,0.63s-1.099,0.213-1.76,0.213c-0.617,0-1.17-0.064-1.658-0.194
				c-0.487-0.13-0.901-0.321-1.241-0.574c-0.339-0.253-0.599-0.565-0.777-0.936c-0.18-0.37-0.269-0.793-0.269-1.269
				c0-0.377,0.062-0.723,0.185-1.038c0.124-0.314,0.302-0.604,0.533-0.87s0.517-0.514,0.856-0.746
				c0.34-0.231,0.723-0.452,1.148-0.662c-0.37-0.191-0.697-0.394-0.981-0.606s-0.525-0.444-0.723-0.694s-0.348-0.518-0.449-0.802
				c-0.102-0.283-0.152-0.593-0.152-0.926c0-0.42,0.075-0.813,0.227-1.181s0.38-0.688,0.686-0.959s0.694-0.486,1.167-0.644
				c0.472-0.157,1.023-0.236,1.653-0.236c0.604,0,1.128,0.072,1.569,0.218s0.806,0.343,1.093,0.593
				c0.288,0.25,0.499,0.545,0.635,0.885c0.136,0.339,0.204,0.703,0.204,1.093c0,0.314-0.051,0.617-0.153,0.907
				c-0.102,0.291-0.251,0.565-0.449,0.824c-0.197,0.26-0.439,0.502-0.727,0.728s-0.616,0.437-0.986,0.635
				c0.438,0.216,0.829,0.438,1.172,0.666c0.342,0.229,0.629,0.475,0.861,0.736c0.231,0.263,0.407,0.541,0.527,0.834
				S360.909,360.749,360.909,361.101z M359.298,361.268c0-0.284-0.053-0.542-0.157-0.773c-0.105-0.231-0.265-0.447-0.478-0.648
				c-0.213-0.2-0.479-0.396-0.797-0.583c-0.317-0.188-0.687-0.385-1.106-0.589c-0.389,0.191-0.73,0.383-1.023,0.574
				s-0.534,0.39-0.723,0.593c-0.188,0.204-0.33,0.419-0.426,0.644c-0.096,0.226-0.144,0.475-0.144,0.746
				c0,0.599,0.205,1.062,0.616,1.39c0.41,0.327,1.023,0.49,1.838,0.49c0.791,0,1.388-0.165,1.793-0.495
				C359.095,362.285,359.298,361.836,359.298,361.268z M358.908,354.951c0-0.26-0.044-0.494-0.134-0.704s-0.221-0.39-0.394-0.537
				c-0.173-0.148-0.388-0.261-0.644-0.339c-0.257-0.077-0.548-0.115-0.876-0.115c-0.666,0-1.171,0.151-1.514,0.454
				s-0.515,0.716-0.515,1.241c0,0.24,0.042,0.464,0.125,0.671c0.084,0.207,0.214,0.403,0.39,0.588
				c0.176,0.186,0.398,0.366,0.667,0.542s0.588,0.36,0.958,0.552c0.624-0.321,1.103-0.677,1.436-1.065
				C358.742,355.85,358.908,355.42,358.908,354.951z"/>
			<path fill="#CCCCCC" d="M370.643,358.155c0,0.92-0.072,1.76-0.217,2.52c-0.146,0.76-0.387,1.412-0.723,1.959
				c-0.337,0.546-0.776,0.97-1.32,1.269c-0.543,0.3-1.213,0.449-2.01,0.449c-0.753,0-1.388-0.134-1.903-0.402
				s-0.931-0.664-1.246-1.186c-0.314-0.522-0.538-1.164-0.671-1.927s-0.199-1.638-0.199-2.626c0-0.914,0.074-1.752,0.223-2.515
				c0.147-0.763,0.389-1.417,0.722-1.964c0.334-0.546,0.772-0.969,1.315-1.269s1.21-0.449,2.001-0.449
				c0.759,0,1.396,0.135,1.912,0.403s0.931,0.663,1.246,1.186c0.314,0.521,0.538,1.163,0.672,1.926
				C370.577,356.292,370.643,357.168,370.643,358.155z M369.013,358.267c0-0.599-0.021-1.136-0.064-1.611
				c-0.044-0.476-0.106-0.896-0.19-1.26c-0.083-0.364-0.191-0.678-0.324-0.94s-0.291-0.479-0.477-0.648s-0.396-0.293-0.635-0.37
				c-0.237-0.077-0.505-0.116-0.801-0.116c-0.525,0-0.951,0.124-1.278,0.371s-0.585,0.586-0.773,1.019s-0.316,0.938-0.385,1.519
				c-0.067,0.581-0.102,1.204-0.102,1.871c0,0.896,0.047,1.656,0.139,2.283c0.093,0.627,0.239,1.138,0.44,1.533
				c0.2,0.396,0.457,0.683,0.769,0.861s0.69,0.269,1.135,0.269c0.346,0,0.649-0.056,0.912-0.167s0.488-0.27,0.677-0.477
				c0.188-0.207,0.344-0.455,0.467-0.746c0.124-0.29,0.223-0.611,0.297-0.963c0.074-0.353,0.125-0.733,0.152-1.144
				C369,359.139,369.013,358.711,369.013,358.267z"/>
		</g>
	</g>
	<g>
		<g>
			<path fill="#CCCCCC" d="M349.123,275.279c0,0.117-0.009,0.216-0.027,0.297c-0.019,0.08-0.044,0.145-0.074,0.194
				c-0.031,0.049-0.066,0.085-0.106,0.106c-0.041,0.021-0.082,0.032-0.125,0.032h-6.262c-0.043,0-0.083-0.011-0.12-0.032
				s-0.073-0.058-0.106-0.106c-0.034-0.05-0.061-0.114-0.079-0.194c-0.019-0.081-0.027-0.18-0.027-0.297
				c0-0.111,0.009-0.207,0.027-0.287s0.042-0.146,0.069-0.199c0.028-0.053,0.062-0.093,0.103-0.12
				c0.04-0.028,0.084-0.042,0.134-0.042h2.501v-9.113l-2.315,1.38c-0.117,0.062-0.212,0.099-0.282,0.11
				c-0.071,0.013-0.129-0.001-0.172-0.041s-0.072-0.106-0.088-0.199s-0.023-0.21-0.023-0.353c0-0.104,0.005-0.194,0.015-0.269
				c0.009-0.073,0.022-0.136,0.041-0.185c0.019-0.05,0.045-0.093,0.079-0.13c0.033-0.037,0.078-0.074,0.134-0.111l2.761-1.769
				c0.024-0.019,0.056-0.034,0.093-0.047c0.036-0.012,0.083-0.024,0.139-0.037c0.056-0.012,0.12-0.02,0.194-0.022
				c0.074-0.004,0.167-0.005,0.277-0.005c0.148,0,0.272,0.006,0.371,0.019s0.176,0.029,0.231,0.051s0.093,0.05,0.111,0.083
				c0.019,0.034,0.027,0.069,0.027,0.106v10.531h2.168c0.049,0,0.096,0.014,0.139,0.042c0.043,0.027,0.078,0.067,0.106,0.12
				c0.027,0.053,0.049,0.119,0.064,0.199S349.123,275.167,349.123,275.279z"/>
			<path fill="#CCCCCC" d="M359.107,269.888c0,0.92-0.072,1.76-0.217,2.52c-0.146,0.76-0.387,1.412-0.723,1.959
				c-0.337,0.546-0.776,0.97-1.32,1.269c-0.543,0.3-1.213,0.449-2.01,0.449c-0.753,0-1.388-0.134-1.903-0.402
				s-0.931-0.664-1.246-1.186c-0.314-0.522-0.538-1.164-0.671-1.927s-0.199-1.638-0.199-2.626c0-0.914,0.074-1.752,0.223-2.515
				c0.147-0.763,0.389-1.417,0.722-1.964c0.334-0.546,0.772-0.969,1.315-1.269s1.21-0.449,2.001-0.449
				c0.759,0,1.396,0.135,1.912,0.403s0.931,0.663,1.246,1.186c0.314,0.521,0.538,1.163,0.672,1.926
				C359.041,268.025,359.107,268.901,359.107,269.888z M357.477,269.999c0-0.599-0.021-1.136-0.064-1.611
				c-0.044-0.476-0.106-0.896-0.19-1.26c-0.083-0.364-0.191-0.678-0.324-0.94s-0.291-0.479-0.477-0.648s-0.396-0.293-0.635-0.37
				c-0.237-0.077-0.505-0.116-0.801-0.116c-0.525,0-0.951,0.124-1.278,0.371s-0.585,0.586-0.773,1.019s-0.316,0.938-0.385,1.519
				c-0.067,0.581-0.102,1.204-0.102,1.871c0,0.896,0.047,1.656,0.139,2.283c0.093,0.627,0.239,1.138,0.44,1.533
				c0.2,0.396,0.457,0.683,0.769,0.861s0.69,0.269,1.135,0.269c0.346,0,0.649-0.056,0.912-0.167s0.488-0.27,0.677-0.477
				c0.188-0.207,0.344-0.455,0.467-0.746c0.124-0.29,0.223-0.611,0.297-0.963c0.074-0.353,0.125-0.733,0.152-1.144
				C357.464,270.871,357.477,270.444,357.477,269.999z"/>
			<path fill="#CCCCCC" d="M368.721,269.888c0,0.92-0.072,1.76-0.217,2.52c-0.146,0.76-0.387,1.412-0.723,1.959
				c-0.337,0.546-0.776,0.97-1.32,1.269c-0.543,0.3-1.213,0.449-2.01,0.449c-0.753,0-1.388-0.134-1.903-0.402
				s-0.931-0.664-1.246-1.186c-0.314-0.522-0.538-1.164-0.671-1.927s-0.199-1.638-0.199-2.626c0-0.914,0.074-1.752,0.223-2.515
				c0.147-0.763,0.389-1.417,0.722-1.964c0.334-0.546,0.772-0.969,1.315-1.269s1.21-0.449,2.001-0.449
				c0.759,0,1.396,0.135,1.912,0.403s0.931,0.663,1.246,1.186c0.314,0.521,0.538,1.163,0.672,1.926
				C368.655,268.025,368.721,268.901,368.721,269.888z M367.092,269.999c0-0.599-0.021-1.136-0.064-1.611
				c-0.044-0.476-0.106-0.896-0.19-1.26c-0.083-0.364-0.191-0.678-0.324-0.94s-0.291-0.479-0.477-0.648s-0.396-0.293-0.635-0.37
				c-0.237-0.077-0.505-0.116-0.801-0.116c-0.525,0-0.951,0.124-1.278,0.371s-0.585,0.586-0.773,1.019s-0.316,0.938-0.385,1.519
				c-0.067,0.581-0.102,1.204-0.102,1.871c0,0.896,0.047,1.656,0.139,2.283c0.093,0.627,0.239,1.138,0.44,1.533
				c0.2,0.396,0.457,0.683,0.769,0.861s0.69,0.269,1.135,0.269c0.346,0,0.649-0.056,0.912-0.167s0.488-0.27,0.677-0.477
				c0.188-0.207,0.344-0.455,0.467-0.746c0.124-0.29,0.223-0.611,0.297-0.963c0.074-0.353,0.125-0.733,0.152-1.144
				C367.078,270.871,367.092,270.444,367.092,269.999z"/>
		</g>
	</g>
	<g>
		<path fill="#CCCCCC" d="M499.41,759.695c0,0.117-0.007,0.22-0.019,0.306c-0.013,0.087-0.034,0.156-0.065,0.208
			c-0.03,0.053-0.066,0.092-0.106,0.116s-0.082,0.037-0.125,0.037h-4.39v4.075h4.149c0.043,0,0.084,0.011,0.125,0.032
			c0.04,0.021,0.075,0.058,0.106,0.106c0.03,0.05,0.052,0.116,0.064,0.199c0.013,0.084,0.019,0.19,0.019,0.319
			c0,0.118-0.006,0.218-0.019,0.302c-0.013,0.083-0.034,0.151-0.064,0.203c-0.031,0.053-0.066,0.093-0.106,0.121
			c-0.041,0.027-0.082,0.041-0.125,0.041h-4.149v4.992c0,0.044-0.013,0.085-0.037,0.125c-0.025,0.041-0.068,0.071-0.13,0.093
			c-0.062,0.022-0.143,0.04-0.241,0.056s-0.229,0.023-0.389,0.023c-0.148,0-0.274-0.008-0.38-0.023
			c-0.104-0.016-0.188-0.033-0.25-0.056c-0.062-0.021-0.105-0.052-0.13-0.093c-0.024-0.04-0.037-0.081-0.037-0.125v-11.096
			c0-0.241,0.063-0.409,0.19-0.505c0.126-0.096,0.261-0.144,0.402-0.144h5.391c0.043,0,0.085,0.013,0.125,0.037
			s0.076,0.065,0.106,0.12c0.031,0.056,0.053,0.129,0.065,0.218C499.403,759.474,499.41,759.577,499.41,759.695z"/>
		<path fill="#CCCCCC" d="M508.486,766.234c0,0.241-0.061,0.412-0.182,0.514c-0.121,0.103-0.259,0.153-0.414,0.153h-5.489
			c0,0.463,0.046,0.88,0.14,1.25c0.093,0.371,0.248,0.688,0.465,0.954c0.218,0.266,0.5,0.47,0.848,0.611
			c0.347,0.143,0.772,0.213,1.274,0.213c0.397,0,0.751-0.032,1.062-0.097c0.31-0.065,0.578-0.138,0.805-0.218
			s0.413-0.153,0.559-0.218s0.256-0.098,0.33-0.098c0.044,0,0.082,0.011,0.116,0.033c0.034,0.021,0.061,0.054,0.08,0.097
			c0.018,0.043,0.032,0.104,0.041,0.181c0.01,0.077,0.015,0.172,0.015,0.282c0,0.081-0.004,0.15-0.01,0.209
			s-0.014,0.111-0.022,0.157c-0.01,0.046-0.025,0.088-0.047,0.125s-0.05,0.072-0.083,0.106c-0.034,0.034-0.135,0.09-0.301,0.167
			c-0.167,0.077-0.384,0.152-0.648,0.227c-0.266,0.074-0.573,0.141-0.922,0.199s-0.721,0.088-1.116,0.088
			c-0.686,0-1.286-0.096-1.802-0.287s-0.949-0.476-1.301-0.852c-0.353-0.377-0.618-0.85-0.797-1.417
			c-0.179-0.568-0.269-1.229-0.269-1.982c0-0.717,0.093-1.36,0.278-1.932c0.185-0.57,0.452-1.056,0.801-1.454
			s0.771-0.704,1.265-0.917c0.493-0.213,1.046-0.319,1.657-0.319c0.654,0,1.212,0.105,1.672,0.315s0.839,0.492,1.135,0.847
			c0.297,0.355,0.514,0.772,0.653,1.251c0.139,0.479,0.208,0.989,0.208,1.532V766.234z M506.949,765.779
			c0.019-0.803-0.16-1.433-0.536-1.89c-0.376-0.456-0.934-0.685-1.673-0.685c-0.379,0-0.711,0.07-0.997,0.213
			c-0.286,0.142-0.525,0.33-0.718,0.564c-0.192,0.235-0.342,0.508-0.447,0.82c-0.105,0.312-0.164,0.638-0.177,0.977H506.949z"/>
		<path fill="#CCCCCC" d="M518.48,766.484c0,0.723-0.078,1.372-0.236,1.95c-0.157,0.577-0.389,1.069-0.694,1.477
			c-0.306,0.408-0.681,0.72-1.125,0.936c-0.445,0.217-0.954,0.324-1.528,0.324c-0.266,0-0.512-0.026-0.736-0.078
			c-0.226-0.053-0.446-0.138-0.662-0.255c-0.217-0.117-0.433-0.266-0.648-0.444c-0.217-0.18-0.445-0.396-0.686-0.648v1.019
			c0,0.05-0.013,0.093-0.037,0.13s-0.064,0.066-0.12,0.088s-0.125,0.038-0.209,0.051c-0.083,0.013-0.189,0.019-0.319,0.019
			c-0.124,0-0.229-0.006-0.314-0.019c-0.087-0.013-0.158-0.029-0.214-0.051s-0.092-0.051-0.11-0.088s-0.028-0.08-0.028-0.13v-12.374
			c0-0.05,0.011-0.093,0.032-0.13s0.062-0.068,0.121-0.093c0.059-0.024,0.137-0.043,0.235-0.056c0.1-0.012,0.223-0.019,0.371-0.019
			c0.154,0,0.28,0.007,0.38,0.019c0.099,0.013,0.176,0.031,0.231,0.056s0.096,0.056,0.12,0.093s0.037,0.08,0.037,0.13v4.992
			c0.247-0.253,0.486-0.467,0.718-0.64s0.459-0.312,0.681-0.421c0.223-0.108,0.444-0.187,0.667-0.236s0.457-0.074,0.704-0.074
			c0.604,0,1.122,0.12,1.552,0.361c0.429,0.241,0.777,0.563,1.046,0.968s0.465,0.879,0.589,1.422
			C518.419,765.304,518.48,765.878,518.48,766.484z M516.896,766.659c0-0.426-0.032-0.84-0.098-1.241s-0.179-0.756-0.34-1.064
			c-0.162-0.309-0.376-0.558-0.644-0.746c-0.267-0.188-0.599-0.282-0.997-0.282c-0.198,0-0.395,0.027-0.587,0.083
			s-0.388,0.148-0.587,0.278s-0.405,0.296-0.62,0.5c-0.214,0.204-0.442,0.46-0.685,0.769v3.325c0.423,0.513,0.826,0.903,1.212,1.172
			c0.385,0.269,0.785,0.402,1.202,0.402c0.385,0,0.714-0.092,0.987-0.277s0.495-0.431,0.666-0.736s0.295-0.648,0.373-1.028
			C516.857,767.433,516.896,767.049,516.896,766.659z"/>
	</g>
	<g>
		<path fill="#CCCCCC" d="M599.106,770.753c0,0.05-0.013,0.093-0.038,0.13s-0.07,0.066-0.134,0.088
			c-0.063,0.022-0.145,0.04-0.243,0.056s-0.228,0.023-0.387,0.023c-0.146,0-0.271-0.008-0.377-0.023
			c-0.104-0.016-0.188-0.033-0.248-0.056c-0.061-0.021-0.103-0.051-0.128-0.088c-0.026-0.037-0.038-0.08-0.038-0.13v-10.438h-0.019
			l-4.224,10.485c-0.019,0.043-0.045,0.08-0.079,0.111c-0.034,0.03-0.083,0.057-0.148,0.078c-0.064,0.021-0.142,0.037-0.231,0.047
			c-0.09,0.009-0.196,0.014-0.319,0.014c-0.13,0-0.241-0.006-0.333-0.019c-0.093-0.013-0.17-0.029-0.232-0.051
			c-0.062-0.021-0.109-0.048-0.144-0.079c-0.033-0.03-0.057-0.064-0.069-0.102l-4.038-10.485h-0.009v10.438
			c0,0.05-0.013,0.093-0.038,0.13c-0.026,0.037-0.07,0.066-0.134,0.088c-0.063,0.022-0.146,0.04-0.248,0.056
			s-0.232,0.023-0.392,0.023c-0.152,0-0.279-0.008-0.381-0.023c-0.103-0.016-0.184-0.033-0.244-0.056
			c-0.061-0.021-0.102-0.051-0.124-0.088c-0.021-0.037-0.033-0.08-0.033-0.13v-11.021c0-0.26,0.069-0.444,0.207-0.556
			s0.292-0.167,0.461-0.167h0.979c0.2,0,0.376,0.019,0.526,0.056s0.282,0.096,0.395,0.176c0.113,0.081,0.207,0.183,0.282,0.306
			c0.075,0.124,0.142,0.269,0.198,0.436l3.427,8.679h0.046l3.566-8.65c0.068-0.186,0.144-0.343,0.226-0.473s0.171-0.233,0.269-0.311
			c0.097-0.077,0.205-0.133,0.324-0.167c0.119-0.033,0.258-0.051,0.414-0.051h1.025c0.095,0,0.184,0.014,0.269,0.042
			c0.085,0.027,0.157,0.071,0.217,0.13s0.108,0.133,0.146,0.222c0.038,0.09,0.057,0.199,0.057,0.329V770.753z"/>
		<path fill="#CCCCCC" d="M608.396,770.772c0,0.074-0.025,0.13-0.074,0.167c-0.05,0.037-0.118,0.064-0.204,0.083
			c-0.087,0.019-0.213,0.028-0.38,0.028c-0.16,0-0.289-0.01-0.384-0.028c-0.097-0.019-0.166-0.046-0.209-0.083
			s-0.064-0.093-0.064-0.167v-0.833c-0.364,0.389-0.771,0.691-1.218,0.907c-0.448,0.217-0.922,0.324-1.422,0.324
			c-0.438,0-0.836-0.057-1.19-0.171c-0.355-0.114-0.657-0.279-0.908-0.496c-0.25-0.216-0.444-0.481-0.583-0.796
			c-0.139-0.315-0.208-0.673-0.208-1.075c0-0.469,0.096-0.876,0.287-1.222c0.19-0.346,0.466-0.634,0.824-0.862
			c0.357-0.228,0.796-0.399,1.314-0.514c0.52-0.114,1.103-0.171,1.751-0.171h1.148v-0.648c0-0.321-0.034-0.605-0.102-0.853
			c-0.068-0.247-0.178-0.452-0.329-0.616c-0.151-0.163-0.348-0.287-0.588-0.37c-0.241-0.083-0.537-0.125-0.89-0.125
			c-0.376,0-0.715,0.045-1.014,0.135c-0.3,0.089-0.562,0.188-0.787,0.296c-0.226,0.108-0.414,0.207-0.565,0.297
			c-0.151,0.089-0.264,0.134-0.338,0.134c-0.05,0-0.093-0.013-0.13-0.037s-0.069-0.062-0.098-0.111
			c-0.027-0.049-0.048-0.112-0.06-0.189c-0.013-0.077-0.019-0.162-0.019-0.255c0-0.154,0.011-0.276,0.032-0.366
			c0.021-0.089,0.074-0.174,0.157-0.254c0.084-0.08,0.228-0.175,0.431-0.283c0.204-0.107,0.438-0.206,0.704-0.296
			s0.556-0.164,0.871-0.223c0.314-0.059,0.633-0.088,0.954-0.088c0.599,0,1.107,0.068,1.528,0.204
			c0.419,0.136,0.759,0.335,1.019,0.598c0.259,0.262,0.447,0.588,0.564,0.977s0.177,0.843,0.177,1.361V770.772z M606.877,766.965
			h-1.306c-0.42,0-0.784,0.036-1.093,0.106c-0.31,0.071-0.565,0.177-0.77,0.315c-0.203,0.139-0.354,0.306-0.449,0.5
			s-0.144,0.418-0.144,0.672c0,0.432,0.138,0.776,0.412,1.032c0.275,0.257,0.659,0.385,1.153,0.385c0.401,0,0.773-0.103,1.116-0.306
			c0.343-0.204,0.702-0.516,1.079-0.936V766.965z"/>
		<path fill="#CCCCCC" d="M616.074,762.974c0,0.136-0.003,0.25-0.01,0.342c-0.006,0.093-0.019,0.166-0.037,0.218
			c-0.018,0.053-0.041,0.093-0.069,0.121c-0.027,0.027-0.066,0.041-0.115,0.041c-0.05,0-0.11-0.014-0.181-0.041
			c-0.071-0.028-0.151-0.056-0.241-0.084c-0.089-0.027-0.189-0.054-0.301-0.078c-0.111-0.025-0.231-0.037-0.361-0.037
			c-0.154,0-0.306,0.03-0.454,0.093c-0.147,0.062-0.304,0.163-0.468,0.306c-0.163,0.142-0.335,0.33-0.514,0.564
			s-0.377,0.521-0.593,0.861v5.483c0,0.05-0.013,0.091-0.037,0.125s-0.064,0.063-0.12,0.088s-0.133,0.043-0.231,0.056
			c-0.1,0.013-0.226,0.019-0.38,0.019c-0.148,0-0.271-0.006-0.371-0.019c-0.099-0.013-0.177-0.031-0.235-0.056
			c-0.06-0.024-0.1-0.054-0.121-0.088s-0.032-0.075-0.032-0.125v-8.336c0-0.05,0.01-0.091,0.028-0.125s0.055-0.065,0.11-0.093
			s0.127-0.046,0.214-0.056c0.086-0.009,0.2-0.014,0.342-0.014c0.136,0,0.249,0.005,0.339,0.014c0.089,0.01,0.158,0.028,0.208,0.056
			s0.085,0.059,0.106,0.093s0.032,0.075,0.032,0.125v1.213c0.229-0.333,0.443-0.604,0.644-0.814c0.201-0.21,0.391-0.375,0.57-0.496
			c0.179-0.12,0.356-0.203,0.532-0.25c0.176-0.046,0.354-0.069,0.532-0.069c0.081,0,0.172,0.005,0.273,0.014
			c0.103,0.01,0.209,0.026,0.319,0.052c0.111,0.024,0.212,0.052,0.302,0.083c0.089,0.031,0.152,0.062,0.189,0.093
			c0.037,0.03,0.062,0.06,0.074,0.088c0.013,0.027,0.023,0.063,0.032,0.106c0.01,0.043,0.016,0.106,0.019,0.189
			C616.072,762.719,616.074,762.831,616.074,762.974z"/>
	</g>
	<g>
		<path fill="#CCCCCC" d="M693.076,770.43c0.049,0.137,0.075,0.246,0.078,0.329c0.003,0.084-0.02,0.146-0.069,0.19
			c-0.049,0.043-0.131,0.07-0.245,0.083s-0.268,0.019-0.459,0.019s-0.344-0.005-0.458-0.014c-0.114-0.01-0.201-0.025-0.26-0.047
			s-0.102-0.051-0.129-0.088c-0.028-0.037-0.055-0.083-0.079-0.139l-1.028-2.918h-4.982l-0.982,2.881
			c-0.019,0.056-0.043,0.104-0.074,0.144c-0.03,0.04-0.075,0.074-0.134,0.102c-0.059,0.028-0.143,0.048-0.25,0.061
			c-0.108,0.013-0.249,0.019-0.422,0.019c-0.179,0-0.325-0.008-0.439-0.023s-0.194-0.045-0.241-0.088
			c-0.046-0.043-0.068-0.106-0.064-0.189c0.003-0.084,0.029-0.193,0.078-0.329l4.021-11.133c0.024-0.068,0.057-0.124,0.097-0.167
			s0.099-0.077,0.176-0.102c0.077-0.025,0.177-0.042,0.297-0.051c0.12-0.01,0.273-0.015,0.458-0.015
			c0.198,0,0.361,0.005,0.491,0.015c0.13,0.009,0.234,0.025,0.314,0.051c0.081,0.024,0.143,0.06,0.186,0.106
			c0.043,0.046,0.077,0.104,0.102,0.171L693.076,770.43z M687.917,760.604h-0.01l-2.065,5.974h4.168L687.917,760.604z"/>
		<path fill="#CCCCCC" d="M702.569,766.466c0,0.729-0.078,1.384-0.236,1.964c-0.157,0.58-0.389,1.073-0.694,1.478
			s-0.684,0.716-1.135,0.936c-0.45,0.219-0.966,0.328-1.547,0.328c-0.247,0-0.476-0.024-0.686-0.074
			c-0.21-0.049-0.415-0.126-0.615-0.231c-0.201-0.104-0.4-0.237-0.598-0.398c-0.197-0.16-0.407-0.349-0.63-0.564v4.168
			c0,0.049-0.013,0.093-0.037,0.13s-0.064,0.067-0.12,0.092c-0.056,0.025-0.133,0.044-0.231,0.056
			c-0.1,0.013-0.226,0.019-0.38,0.019c-0.148,0-0.271-0.006-0.371-0.019c-0.099-0.012-0.177-0.03-0.235-0.056
			c-0.06-0.024-0.1-0.055-0.121-0.092s-0.032-0.081-0.032-0.13v-11.643c0-0.056,0.01-0.101,0.028-0.135
			c0.019-0.033,0.055-0.062,0.11-0.088c0.056-0.024,0.127-0.041,0.214-0.051c0.086-0.009,0.19-0.014,0.314-0.014
			c0.13,0,0.236,0.005,0.319,0.014c0.084,0.01,0.153,0.026,0.209,0.051c0.056,0.025,0.094,0.055,0.115,0.088
			c0.021,0.034,0.032,0.079,0.032,0.135v1.121c0.254-0.26,0.497-0.485,0.732-0.677c0.234-0.191,0.471-0.351,0.708-0.477
			c0.238-0.127,0.481-0.223,0.731-0.287c0.251-0.065,0.515-0.098,0.792-0.098c0.605,0,1.121,0.117,1.547,0.353
			c0.427,0.234,0.773,0.556,1.042,0.963s0.465,0.882,0.589,1.422C702.508,765.288,702.569,765.862,702.569,766.466z
			 M700.985,766.642c0-0.426-0.032-0.838-0.098-1.236s-0.177-0.752-0.335-1.061c-0.159-0.309-0.371-0.556-0.639-0.741
			c-0.268-0.185-0.6-0.277-0.997-0.277c-0.199,0-0.395,0.029-0.587,0.088c-0.193,0.059-0.389,0.151-0.588,0.278
			c-0.198,0.126-0.406,0.293-0.624,0.5s-0.447,0.461-0.689,0.764v3.316c0.423,0.512,0.823,0.904,1.202,1.176
			s0.776,0.407,1.192,0.407c0.386,0,0.717-0.092,0.993-0.277s0.5-0.433,0.671-0.741s0.297-0.654,0.377-1.037
			C700.945,767.417,700.985,767.031,700.985,766.642z"/>
		<path fill="#CCCCCC" d="M709.738,762.975c0,0.136-0.003,0.25-0.01,0.342c-0.006,0.093-0.019,0.166-0.037,0.218
			c-0.018,0.053-0.041,0.093-0.069,0.121c-0.027,0.027-0.066,0.041-0.115,0.041c-0.05,0-0.11-0.014-0.181-0.041
			c-0.071-0.028-0.151-0.056-0.241-0.084c-0.089-0.027-0.189-0.054-0.301-0.078c-0.111-0.025-0.231-0.037-0.361-0.037
			c-0.154,0-0.306,0.03-0.454,0.093c-0.147,0.062-0.304,0.163-0.468,0.306c-0.163,0.142-0.335,0.33-0.514,0.564
			s-0.377,0.521-0.593,0.861v5.483c0,0.05-0.013,0.091-0.037,0.125s-0.064,0.063-0.12,0.088s-0.133,0.043-0.231,0.056
			c-0.1,0.013-0.226,0.019-0.38,0.019c-0.148,0-0.271-0.006-0.371-0.019c-0.099-0.013-0.177-0.031-0.235-0.056
			c-0.06-0.024-0.1-0.054-0.121-0.088s-0.032-0.075-0.032-0.125v-8.336c0-0.05,0.01-0.091,0.028-0.125s0.055-0.065,0.11-0.093
			s0.127-0.046,0.214-0.056c0.086-0.009,0.2-0.014,0.342-0.014c0.136,0,0.249,0.005,0.339,0.014c0.089,0.01,0.158,0.028,0.208,0.056
			s0.085,0.059,0.106,0.093s0.032,0.075,0.032,0.125v1.213c0.229-0.333,0.443-0.604,0.644-0.814c0.201-0.21,0.391-0.375,0.57-0.496
			c0.179-0.12,0.356-0.203,0.532-0.25c0.176-0.046,0.354-0.069,0.532-0.069c0.081,0,0.172,0.005,0.273,0.014
			c0.103,0.01,0.209,0.026,0.319,0.052c0.111,0.024,0.212,0.052,0.302,0.083c0.089,0.031,0.152,0.062,0.189,0.093
			c0.037,0.03,0.062,0.06,0.074,0.088c0.013,0.027,0.023,0.063,0.032,0.106c0.01,0.043,0.016,0.106,0.019,0.189
			C709.736,762.72,709.738,762.832,709.738,762.975z"/>
	</g>
	<g>
		<path fill="#CCCCCC" d="M788.952,770.754c0,0.05-0.013,0.093-0.038,0.13s-0.07,0.066-0.134,0.088
			c-0.063,0.022-0.145,0.04-0.243,0.056s-0.228,0.023-0.387,0.023c-0.146,0-0.271-0.008-0.377-0.023
			c-0.104-0.016-0.188-0.033-0.248-0.056c-0.061-0.021-0.103-0.051-0.128-0.088c-0.026-0.037-0.038-0.08-0.038-0.13v-10.438h-0.019
			l-4.224,10.485c-0.019,0.043-0.045,0.08-0.079,0.111c-0.034,0.03-0.083,0.057-0.148,0.078c-0.064,0.021-0.142,0.037-0.231,0.047
			c-0.09,0.009-0.196,0.014-0.319,0.014c-0.13,0-0.241-0.006-0.333-0.019c-0.093-0.013-0.17-0.029-0.232-0.051
			c-0.062-0.021-0.109-0.048-0.144-0.079c-0.033-0.03-0.057-0.064-0.069-0.102l-4.038-10.485h-0.009v10.438
			c0,0.05-0.013,0.093-0.038,0.13c-0.026,0.037-0.07,0.066-0.134,0.088c-0.063,0.022-0.146,0.04-0.248,0.056
			s-0.232,0.023-0.392,0.023c-0.152,0-0.279-0.008-0.381-0.023c-0.103-0.016-0.184-0.033-0.244-0.056
			c-0.061-0.021-0.102-0.051-0.124-0.088c-0.021-0.037-0.033-0.08-0.033-0.13v-11.021c0-0.26,0.069-0.444,0.207-0.556
			s0.292-0.167,0.461-0.167h0.979c0.2,0,0.376,0.019,0.526,0.056s0.282,0.096,0.395,0.176c0.113,0.081,0.207,0.183,0.282,0.306
			c0.075,0.124,0.142,0.269,0.198,0.436l3.427,8.679h0.046l3.566-8.65c0.068-0.186,0.144-0.343,0.226-0.473s0.171-0.233,0.269-0.311
			c0.097-0.077,0.205-0.133,0.324-0.167c0.119-0.033,0.258-0.051,0.414-0.051h1.025c0.095,0,0.184,0.014,0.269,0.042
			c0.085,0.027,0.157,0.071,0.217,0.13s0.108,0.133,0.146,0.222c0.038,0.09,0.057,0.199,0.057,0.329V770.754z"/>
		<path fill="#CCCCCC" d="M798.242,770.773c0,0.074-0.025,0.13-0.074,0.167c-0.05,0.037-0.118,0.064-0.204,0.083
			c-0.087,0.019-0.213,0.028-0.38,0.028c-0.16,0-0.289-0.01-0.384-0.028c-0.097-0.019-0.166-0.046-0.209-0.083
			s-0.064-0.093-0.064-0.167v-0.833c-0.364,0.389-0.771,0.691-1.218,0.907c-0.448,0.217-0.922,0.324-1.422,0.324
			c-0.438,0-0.836-0.057-1.19-0.171c-0.355-0.114-0.657-0.279-0.908-0.496c-0.25-0.216-0.444-0.481-0.583-0.796
			c-0.139-0.315-0.208-0.673-0.208-1.075c0-0.469,0.096-0.876,0.287-1.222c0.19-0.346,0.466-0.634,0.824-0.862
			c0.357-0.228,0.796-0.399,1.314-0.514c0.52-0.114,1.103-0.171,1.751-0.171h1.148v-0.648c0-0.321-0.034-0.605-0.102-0.853
			c-0.068-0.247-0.178-0.452-0.329-0.616c-0.151-0.163-0.348-0.287-0.588-0.37c-0.241-0.083-0.537-0.125-0.89-0.125
			c-0.376,0-0.715,0.045-1.014,0.135c-0.3,0.089-0.562,0.188-0.787,0.296c-0.226,0.108-0.414,0.207-0.565,0.297
			c-0.151,0.089-0.264,0.134-0.338,0.134c-0.05,0-0.093-0.013-0.13-0.037s-0.069-0.062-0.098-0.111
			c-0.027-0.049-0.048-0.112-0.06-0.189c-0.013-0.077-0.019-0.162-0.019-0.255c0-0.154,0.011-0.276,0.032-0.366
			c0.021-0.089,0.074-0.174,0.157-0.254c0.084-0.08,0.228-0.175,0.431-0.283c0.204-0.107,0.438-0.206,0.704-0.296
			s0.556-0.164,0.871-0.223c0.314-0.059,0.633-0.088,0.954-0.088c0.599,0,1.107,0.068,1.528,0.204
			c0.419,0.136,0.759,0.335,1.019,0.598c0.259,0.262,0.447,0.588,0.564,0.977s0.177,0.843,0.177,1.361V770.773z M796.722,766.966
			h-1.306c-0.42,0-0.784,0.036-1.093,0.106c-0.31,0.071-0.565,0.177-0.77,0.315c-0.203,0.139-0.354,0.306-0.449,0.5
			s-0.144,0.418-0.144,0.672c0,0.432,0.138,0.776,0.412,1.032c0.275,0.257,0.659,0.385,1.153,0.385c0.401,0,0.773-0.103,1.116-0.306
			c0.343-0.204,0.702-0.516,1.079-0.936V766.966z"/>
		<path fill="#CCCCCC" d="M804.494,770.995l-1.111,3.065c-0.037,0.099-0.132,0.175-0.283,0.228
			c-0.151,0.052-0.381,0.078-0.689,0.078c-0.161,0-0.291-0.008-0.39-0.022c-0.099-0.016-0.174-0.042-0.227-0.079
			s-0.082-0.087-0.088-0.148s0.009-0.136,0.046-0.222l1.148-2.899c-0.056-0.024-0.107-0.064-0.157-0.12s-0.083-0.114-0.102-0.177
			l-2.974-7.965c-0.049-0.13-0.074-0.231-0.074-0.306s0.025-0.133,0.074-0.176c0.05-0.043,0.13-0.073,0.241-0.088
			c0.111-0.016,0.26-0.023,0.444-0.023c0.186,0,0.33,0.005,0.436,0.014c0.104,0.01,0.188,0.026,0.25,0.051
			c0.062,0.025,0.106,0.061,0.135,0.106c0.027,0.047,0.057,0.11,0.088,0.19l2.38,6.688h0.028l2.297-6.725
			c0.037-0.117,0.081-0.193,0.134-0.228c0.053-0.033,0.132-0.059,0.236-0.073c0.105-0.016,0.256-0.023,0.454-0.023
			c0.173,0,0.314,0.008,0.426,0.023c0.111,0.015,0.193,0.045,0.245,0.088c0.053,0.043,0.079,0.102,0.079,0.176
			s-0.019,0.167-0.056,0.277L804.494,770.995z"/>
	</g>
	<g>
		<path fill="#CCCCCC" d="M878.753,767.976c0,0.476-0.043,0.911-0.129,1.306c-0.087,0.396-0.235,0.732-0.445,1.01
			c-0.21,0.278-0.486,0.492-0.828,0.644c-0.343,0.151-0.768,0.228-1.274,0.228c-0.173,0-0.344-0.015-0.514-0.042
			s-0.326-0.064-0.468-0.111c-0.142-0.046-0.266-0.096-0.37-0.148c-0.105-0.052-0.175-0.097-0.209-0.134
			c-0.033-0.037-0.062-0.074-0.083-0.111s-0.04-0.082-0.056-0.134c-0.016-0.053-0.026-0.117-0.032-0.195
			c-0.006-0.077-0.01-0.171-0.01-0.282c0-0.136,0.005-0.248,0.015-0.338c0.009-0.09,0.025-0.16,0.051-0.213
			c0.024-0.053,0.054-0.09,0.088-0.111s0.075-0.032,0.125-0.032c0.049,0,0.112,0.023,0.189,0.069s0.17,0.098,0.278,0.152
			c0.107,0.056,0.232,0.107,0.375,0.153c0.142,0.046,0.309,0.069,0.5,0.069c0.21,0,0.39-0.026,0.537-0.079
			c0.148-0.052,0.271-0.149,0.371-0.291c0.099-0.143,0.173-0.338,0.222-0.589c0.05-0.25,0.074-0.575,0.074-0.977v-8.577
			c0-0.043,0.013-0.083,0.037-0.12s0.068-0.068,0.13-0.093s0.144-0.043,0.245-0.056c0.103-0.012,0.23-0.019,0.385-0.019
			c0.148,0,0.274,0.007,0.38,0.019c0.104,0.013,0.187,0.031,0.245,0.056s0.102,0.056,0.13,0.093c0.027,0.037,0.041,0.077,0.041,0.12
			V767.976z"/>
		<path fill="#CCCCCC" d="M888.877,770.764c0,0.05-0.012,0.091-0.033,0.125s-0.06,0.063-0.115,0.088s-0.128,0.043-0.218,0.056
			s-0.199,0.019-0.329,0.019c-0.142,0-0.258-0.006-0.347-0.019c-0.09-0.013-0.161-0.031-0.214-0.056
			c-0.052-0.024-0.088-0.054-0.106-0.088s-0.027-0.075-0.027-0.125v-1.103c-0.476,0.525-0.944,0.908-1.408,1.148
			c-0.463,0.241-0.933,0.361-1.407,0.361c-0.556,0-1.023-0.093-1.403-0.277c-0.38-0.186-0.688-0.438-0.922-0.755
			c-0.234-0.318-0.402-0.688-0.505-1.111c-0.102-0.423-0.152-0.938-0.152-1.543v-5.057c0-0.05,0.011-0.091,0.032-0.125
			s0.063-0.065,0.125-0.093s0.142-0.046,0.241-0.056c0.099-0.009,0.222-0.014,0.37-0.014s0.271,0.005,0.37,0.014
			c0.099,0.01,0.178,0.028,0.236,0.056s0.101,0.059,0.125,0.093s0.037,0.075,0.037,0.125v4.854c0,0.487,0.035,0.878,0.106,1.172
			c0.071,0.293,0.179,0.543,0.324,0.75s0.329,0.367,0.551,0.481c0.223,0.114,0.482,0.171,0.778,0.171
			c0.383,0,0.765-0.136,1.144-0.407c0.38-0.271,0.783-0.67,1.209-1.194v-5.826c0-0.05,0.011-0.091,0.032-0.125
			s0.063-0.065,0.125-0.093c0.062-0.027,0.141-0.046,0.236-0.056c0.096-0.009,0.221-0.014,0.375-0.014
			c0.148,0,0.272,0.005,0.371,0.014c0.099,0.01,0.176,0.028,0.231,0.056s0.097,0.059,0.125,0.093
			c0.027,0.034,0.042,0.075,0.042,0.125V770.764z"/>
		<path fill="#CCCCCC" d="M898.88,770.764c0,0.05-0.013,0.091-0.037,0.125c-0.025,0.034-0.065,0.063-0.121,0.088
			s-0.133,0.043-0.231,0.056s-0.222,0.019-0.37,0.019c-0.154,0-0.281-0.006-0.38-0.019s-0.176-0.031-0.231-0.056
			s-0.096-0.054-0.12-0.088c-0.025-0.034-0.037-0.075-0.037-0.125v-4.881c0-0.476-0.037-0.858-0.111-1.148
			c-0.074-0.291-0.183-0.541-0.324-0.751c-0.143-0.21-0.326-0.37-0.551-0.481c-0.226-0.111-0.486-0.167-0.783-0.167
			c-0.383,0-0.766,0.137-1.148,0.408s-0.784,0.67-1.204,1.194v5.826c0,0.05-0.013,0.091-0.037,0.125s-0.064,0.063-0.12,0.088
			s-0.133,0.043-0.231,0.056c-0.1,0.013-0.226,0.019-0.38,0.019c-0.148,0-0.271-0.006-0.371-0.019
			c-0.099-0.013-0.177-0.031-0.235-0.056c-0.06-0.024-0.1-0.054-0.121-0.088s-0.032-0.075-0.032-0.125v-8.336
			c0-0.05,0.01-0.091,0.028-0.125s0.055-0.065,0.11-0.093s0.127-0.046,0.214-0.056c0.086-0.009,0.2-0.014,0.342-0.014
			c0.136,0,0.249,0.005,0.339,0.014c0.089,0.01,0.158,0.028,0.208,0.056s0.085,0.059,0.106,0.093s0.032,0.075,0.032,0.125v1.103
			c0.47-0.525,0.938-0.909,1.403-1.153c0.467-0.244,0.938-0.366,1.413-0.366c0.556,0,1.023,0.095,1.402,0.282
			c0.38,0.188,0.688,0.44,0.922,0.755c0.234,0.315,0.403,0.685,0.505,1.107s0.153,0.931,0.153,1.523V770.764z"/>
	</g>
	<g>
		<path fill="#CCCCCC" d="M977.528,767.976c0,0.476-0.043,0.911-0.129,1.306c-0.087,0.396-0.235,0.732-0.445,1.01
			c-0.21,0.278-0.486,0.492-0.828,0.644c-0.343,0.151-0.768,0.228-1.274,0.228c-0.173,0-0.344-0.015-0.514-0.042
			s-0.326-0.064-0.468-0.111c-0.142-0.046-0.266-0.096-0.37-0.148c-0.105-0.052-0.175-0.097-0.209-0.134
			c-0.033-0.037-0.062-0.074-0.083-0.111s-0.04-0.082-0.056-0.134c-0.016-0.053-0.026-0.117-0.032-0.195
			c-0.006-0.077-0.01-0.171-0.01-0.282c0-0.136,0.005-0.248,0.015-0.338c0.009-0.09,0.025-0.16,0.051-0.213
			c0.024-0.053,0.054-0.09,0.088-0.111s0.075-0.032,0.125-0.032c0.049,0,0.112,0.023,0.189,0.069s0.17,0.098,0.278,0.152
			c0.107,0.056,0.232,0.107,0.375,0.153c0.142,0.046,0.309,0.069,0.5,0.069c0.21,0,0.39-0.026,0.537-0.079
			c0.148-0.052,0.271-0.149,0.371-0.291c0.099-0.143,0.173-0.338,0.222-0.589c0.05-0.25,0.074-0.575,0.074-0.977v-8.577
			c0-0.043,0.013-0.083,0.037-0.12s0.068-0.068,0.13-0.093s0.144-0.043,0.245-0.056c0.103-0.012,0.23-0.019,0.385-0.019
			c0.148,0,0.274,0.007,0.38,0.019c0.104,0.013,0.187,0.031,0.245,0.056s0.102,0.056,0.13,0.093c0.027,0.037,0.041,0.077,0.041,0.12
			V767.976z"/>
		<path fill="#CCCCCC" d="M987.652,770.764c0,0.05-0.012,0.091-0.033,0.125s-0.06,0.063-0.115,0.088s-0.128,0.043-0.218,0.056
			s-0.199,0.019-0.329,0.019c-0.142,0-0.258-0.006-0.347-0.019c-0.09-0.013-0.161-0.031-0.214-0.056
			c-0.052-0.024-0.088-0.054-0.106-0.088s-0.027-0.075-0.027-0.125v-1.103c-0.476,0.525-0.944,0.908-1.408,1.148
			c-0.463,0.241-0.933,0.361-1.407,0.361c-0.556,0-1.023-0.093-1.403-0.277c-0.38-0.186-0.688-0.438-0.922-0.755
			c-0.234-0.318-0.402-0.688-0.505-1.111c-0.102-0.423-0.152-0.938-0.152-1.543v-5.057c0-0.05,0.011-0.091,0.032-0.125
			s0.063-0.065,0.125-0.093s0.142-0.046,0.241-0.056c0.099-0.009,0.222-0.014,0.37-0.014s0.271,0.005,0.37,0.014
			c0.099,0.01,0.178,0.028,0.236,0.056s0.101,0.059,0.125,0.093s0.037,0.075,0.037,0.125v4.854c0,0.487,0.035,0.878,0.106,1.172
			c0.071,0.293,0.179,0.543,0.324,0.75s0.329,0.367,0.551,0.481c0.223,0.114,0.482,0.171,0.778,0.171
			c0.383,0,0.765-0.136,1.144-0.407c0.38-0.271,0.783-0.67,1.209-1.194v-5.826c0-0.05,0.011-0.091,0.032-0.125
			s0.063-0.065,0.125-0.093c0.062-0.027,0.141-0.046,0.236-0.056c0.096-0.009,0.221-0.014,0.375-0.014
			c0.148,0,0.272,0.005,0.371,0.014c0.099,0.01,0.176,0.028,0.231,0.056s0.097,0.059,0.125,0.093
			c0.027,0.034,0.042,0.075,0.042,0.125V770.764z"/>
		<path fill="#CCCCCC" d="M992.005,770.764c0,0.05-0.013,0.091-0.037,0.125s-0.064,0.063-0.12,0.088s-0.133,0.043-0.231,0.056
			c-0.1,0.013-0.226,0.019-0.38,0.019c-0.148,0-0.271-0.006-0.371-0.019c-0.099-0.013-0.177-0.031-0.235-0.056
			c-0.06-0.024-0.1-0.054-0.121-0.088s-0.032-0.075-0.032-0.125V758.39c0-0.05,0.011-0.093,0.032-0.13s0.062-0.068,0.121-0.093
			c0.059-0.024,0.137-0.043,0.235-0.056c0.1-0.012,0.223-0.019,0.371-0.019c0.154,0,0.28,0.007,0.38,0.019
			c0.099,0.013,0.176,0.031,0.231,0.056s0.096,0.056,0.12,0.093s0.037,0.08,0.037,0.13V770.764z"/>
	</g>
	<g>
		<path fill="#CCCCCC" d="M1073.32,770.43c0.049,0.137,0.075,0.246,0.078,0.329c0.003,0.084-0.02,0.146-0.069,0.19
			c-0.049,0.043-0.131,0.07-0.245,0.083s-0.268,0.019-0.459,0.019s-0.344-0.005-0.458-0.014c-0.114-0.01-0.201-0.025-0.26-0.047
			s-0.102-0.051-0.129-0.088c-0.028-0.037-0.055-0.083-0.079-0.139l-1.028-2.918h-4.982l-0.982,2.881
			c-0.019,0.056-0.043,0.104-0.074,0.144c-0.03,0.04-0.075,0.074-0.134,0.102c-0.059,0.028-0.143,0.048-0.25,0.061
			c-0.108,0.013-0.249,0.019-0.422,0.019c-0.179,0-0.325-0.008-0.439-0.023s-0.194-0.045-0.241-0.088
			c-0.046-0.043-0.068-0.106-0.064-0.189c0.003-0.084,0.029-0.193,0.078-0.329l4.021-11.133c0.024-0.068,0.057-0.124,0.097-0.167
			s0.099-0.077,0.176-0.102c0.077-0.025,0.177-0.042,0.297-0.051c0.12-0.01,0.273-0.015,0.458-0.015
			c0.198,0,0.361,0.005,0.491,0.015c0.13,0.009,0.234,0.025,0.314,0.051c0.081,0.024,0.143,0.06,0.186,0.106
			c0.043,0.046,0.077,0.104,0.102,0.171L1073.32,770.43z M1068.161,760.604h-0.01l-2.065,5.974h4.168L1068.161,760.604z"/>
		<path fill="#CCCCCC" d="M1082.286,770.764c0,0.05-0.012,0.091-0.033,0.125s-0.06,0.063-0.115,0.088s-0.128,0.043-0.218,0.056
			s-0.199,0.019-0.329,0.019c-0.142,0-0.258-0.006-0.347-0.019c-0.09-0.013-0.161-0.031-0.214-0.056
			c-0.052-0.024-0.088-0.054-0.106-0.088s-0.027-0.075-0.027-0.125v-1.103c-0.476,0.525-0.944,0.908-1.408,1.148
			c-0.463,0.241-0.933,0.361-1.407,0.361c-0.556,0-1.023-0.093-1.403-0.277c-0.38-0.186-0.688-0.438-0.922-0.755
			c-0.234-0.318-0.402-0.688-0.505-1.111c-0.102-0.423-0.152-0.938-0.152-1.543v-5.057c0-0.05,0.011-0.091,0.032-0.125
			s0.063-0.065,0.125-0.093s0.142-0.046,0.241-0.056c0.099-0.009,0.222-0.014,0.37-0.014s0.271,0.005,0.37,0.014
			c0.099,0.01,0.178,0.028,0.236,0.056s0.101,0.059,0.125,0.093s0.037,0.075,0.037,0.125v4.854c0,0.487,0.035,0.878,0.106,1.172
			c0.071,0.293,0.179,0.543,0.324,0.75s0.329,0.367,0.551,0.481c0.223,0.114,0.482,0.171,0.778,0.171
			c0.383,0,0.765-0.136,1.144-0.407c0.38-0.271,0.783-0.67,1.209-1.194v-5.826c0-0.05,0.011-0.091,0.032-0.125
			s0.063-0.065,0.125-0.093c0.062-0.027,0.141-0.046,0.236-0.056c0.096-0.009,0.221-0.014,0.375-0.014
			c0.148,0,0.272,0.005,0.371,0.014c0.099,0.01,0.176,0.028,0.231,0.056s0.097,0.059,0.125,0.093
			c0.027,0.034,0.042,0.075,0.042,0.125V770.764z"/>
		<path fill="#CCCCCC" d="M1092.075,762.808c0,0.216-0.029,0.372-0.088,0.468s-0.134,0.144-0.227,0.144h-1.195
			c0.217,0.222,0.368,0.468,0.454,0.736c0.087,0.269,0.13,0.548,0.13,0.838c0,0.481-0.077,0.908-0.231,1.278
			s-0.375,0.684-0.662,0.94c-0.287,0.256-0.629,0.452-1.023,0.588c-0.396,0.136-0.834,0.204-1.315,0.204
			c-0.34,0-0.662-0.045-0.968-0.135s-0.542-0.202-0.709-0.338c-0.111,0.111-0.202,0.237-0.273,0.38
			c-0.07,0.142-0.106,0.306-0.106,0.49c0,0.217,0.101,0.396,0.302,0.537c0.2,0.143,0.468,0.22,0.801,0.232l2.177,0.092
			c0.413,0.013,0.793,0.07,1.139,0.172s0.646,0.247,0.898,0.436c0.254,0.188,0.451,0.42,0.593,0.694
			c0.143,0.274,0.214,0.594,0.214,0.959c0,0.383-0.081,0.747-0.241,1.093c-0.161,0.346-0.406,0.649-0.736,0.912
			s-0.752,0.469-1.265,0.62s-1.117,0.228-1.815,0.228c-0.673,0-1.245-0.058-1.718-0.172s-0.86-0.27-1.162-0.468
			c-0.303-0.197-0.522-0.434-0.658-0.708c-0.136-0.275-0.203-0.573-0.203-0.894c0-0.204,0.024-0.402,0.074-0.593
			c0.049-0.191,0.125-0.374,0.227-0.547s0.229-0.338,0.38-0.495c0.151-0.158,0.325-0.313,0.523-0.468
			c-0.303-0.154-0.526-0.35-0.672-0.584s-0.218-0.487-0.218-0.76c0-0.376,0.077-0.713,0.231-1.009
			c0.154-0.297,0.346-0.562,0.574-0.797c-0.191-0.229-0.343-0.486-0.453-0.773c-0.111-0.287-0.167-0.635-0.167-1.042
			c0-0.476,0.08-0.901,0.24-1.278c0.161-0.376,0.383-0.694,0.667-0.954c0.284-0.259,0.625-0.458,1.023-0.598
			c0.398-0.139,0.832-0.208,1.302-0.208c0.253,0,0.489,0.014,0.708,0.042c0.22,0.027,0.425,0.066,0.616,0.115h2.52
			c0.104,0,0.184,0.051,0.236,0.153C1092.049,762.442,1092.075,762.598,1092.075,762.808z M1090.455,771.607
			c0-0.358-0.147-0.635-0.44-0.829s-0.689-0.298-1.19-0.311l-2.158-0.073c-0.197,0.154-0.359,0.301-0.485,0.439
			c-0.127,0.139-0.228,0.271-0.302,0.398c-0.074,0.126-0.125,0.251-0.152,0.375c-0.028,0.123-0.042,0.25-0.042,0.38
			c0,0.401,0.204,0.705,0.611,0.912s0.976,0.311,1.704,0.311c0.463,0,0.851-0.045,1.163-0.135c0.312-0.089,0.562-0.208,0.755-0.356
			c0.19-0.148,0.328-0.318,0.412-0.51C1090.413,772.017,1090.455,771.817,1090.455,771.607z M1089.685,765.003
			c0-0.568-0.155-1.012-0.468-1.329c-0.312-0.318-0.755-0.478-1.329-0.478c-0.296,0-0.554,0.05-0.773,0.148
			c-0.219,0.099-0.401,0.234-0.546,0.407c-0.146,0.173-0.253,0.372-0.324,0.598s-0.106,0.462-0.106,0.708
			c0,0.55,0.155,0.982,0.468,1.297c0.312,0.315,0.748,0.473,1.311,0.473c0.303,0,0.564-0.048,0.787-0.144s0.406-0.229,0.551-0.398
			c0.146-0.17,0.254-0.365,0.324-0.588C1089.65,765.475,1089.685,765.243,1089.685,765.003z"/>
	</g>
	<g>
		<path fill="#CCCCCC" d="M1167.241,767.633c0,0.562-0.104,1.062-0.311,1.501s-0.494,0.811-0.861,1.116
			c-0.367,0.305-0.8,0.535-1.297,0.689s-1.032,0.231-1.606,0.231c-0.401,0-0.773-0.034-1.116-0.102
			c-0.343-0.068-0.648-0.151-0.917-0.25s-0.494-0.201-0.676-0.306c-0.183-0.105-0.31-0.194-0.38-0.269
			c-0.071-0.074-0.124-0.168-0.157-0.283c-0.034-0.113-0.052-0.267-0.052-0.458c0-0.136,0.007-0.248,0.019-0.338
			c0.013-0.09,0.031-0.162,0.056-0.218s0.056-0.094,0.093-0.116c0.037-0.021,0.08-0.032,0.13-0.032c0.086,0,0.208,0.053,0.366,0.157
			c0.157,0.105,0.359,0.22,0.606,0.343c0.247,0.124,0.545,0.239,0.894,0.348s0.752,0.162,1.209,0.162
			c0.346,0,0.662-0.046,0.949-0.139s0.534-0.224,0.741-0.394c0.206-0.17,0.365-0.379,0.477-0.626
			c0.111-0.246,0.167-0.527,0.167-0.843c0-0.339-0.077-0.63-0.231-0.87c-0.154-0.241-0.358-0.452-0.611-0.635
			c-0.254-0.182-0.542-0.349-0.866-0.5s-0.656-0.306-0.996-0.463c-0.339-0.157-0.67-0.332-0.99-0.523
			c-0.321-0.191-0.608-0.417-0.862-0.676c-0.253-0.26-0.458-0.563-0.615-0.913c-0.157-0.349-0.236-0.767-0.236-1.255
			c0-0.5,0.091-0.946,0.273-1.338c0.182-0.393,0.435-0.721,0.759-0.986s0.71-0.468,1.158-0.607c0.447-0.139,0.931-0.208,1.449-0.208
			c0.266,0,0.533,0.023,0.802,0.069c0.269,0.047,0.521,0.108,0.759,0.186c0.238,0.077,0.449,0.163,0.635,0.259
			s0.308,0.173,0.366,0.231c0.059,0.06,0.097,0.105,0.115,0.14s0.034,0.077,0.047,0.13c0.012,0.052,0.021,0.115,0.027,0.189
			s0.01,0.17,0.01,0.287c0,0.111-0.005,0.21-0.015,0.296c-0.009,0.087-0.022,0.159-0.041,0.218c-0.019,0.06-0.045,0.103-0.079,0.13
			c-0.034,0.028-0.072,0.042-0.115,0.042c-0.068,0-0.175-0.043-0.32-0.13c-0.145-0.086-0.322-0.184-0.532-0.292
			c-0.21-0.107-0.459-0.206-0.746-0.296s-0.609-0.135-0.968-0.135c-0.333,0-0.623,0.045-0.87,0.135s-0.451,0.208-0.611,0.356
			c-0.161,0.148-0.281,0.324-0.361,0.528c-0.08,0.203-0.12,0.42-0.12,0.647c0,0.334,0.077,0.621,0.231,0.861
			c0.154,0.241,0.359,0.454,0.615,0.64c0.257,0.186,0.549,0.355,0.876,0.51s0.66,0.31,1,0.468c0.34,0.157,0.673,0.33,1,0.519
			s0.619,0.41,0.876,0.667c0.256,0.256,0.463,0.559,0.62,0.907S1167.241,767.157,1167.241,767.633z"/>
		<path fill="#CCCCCC" d="M1176.457,766.235c0,0.241-0.061,0.412-0.182,0.514c-0.121,0.103-0.259,0.153-0.414,0.153h-5.489
			c0,0.463,0.046,0.88,0.14,1.25c0.093,0.371,0.248,0.688,0.465,0.954c0.218,0.266,0.5,0.47,0.848,0.611
			c0.347,0.143,0.772,0.213,1.274,0.213c0.397,0,0.751-0.032,1.062-0.097c0.31-0.065,0.578-0.138,0.805-0.218
			s0.413-0.153,0.559-0.218s0.256-0.098,0.33-0.098c0.044,0,0.082,0.011,0.116,0.033c0.034,0.021,0.061,0.054,0.08,0.097
			c0.018,0.043,0.032,0.104,0.041,0.181c0.01,0.077,0.015,0.172,0.015,0.282c0,0.081-0.004,0.15-0.01,0.209
			s-0.014,0.111-0.022,0.157c-0.01,0.046-0.025,0.088-0.047,0.125s-0.05,0.072-0.083,0.106c-0.034,0.034-0.135,0.09-0.301,0.167
			c-0.167,0.077-0.384,0.152-0.648,0.227c-0.266,0.074-0.573,0.141-0.922,0.199s-0.721,0.088-1.116,0.088
			c-0.686,0-1.286-0.096-1.802-0.287s-0.949-0.476-1.301-0.852c-0.353-0.377-0.618-0.85-0.797-1.417
			c-0.179-0.568-0.269-1.229-0.269-1.982c0-0.717,0.093-1.36,0.278-1.932c0.185-0.57,0.452-1.056,0.801-1.454
			s0.771-0.704,1.265-0.917c0.493-0.213,1.046-0.319,1.657-0.319c0.654,0,1.212,0.105,1.672,0.315s0.839,0.492,1.135,0.847
			c0.297,0.355,0.514,0.772,0.653,1.251c0.139,0.479,0.208,0.989,0.208,1.532V766.235z M1174.92,765.78
			c0.019-0.803-0.16-1.433-0.536-1.89c-0.376-0.456-0.934-0.685-1.673-0.685c-0.379,0-0.711,0.07-0.997,0.213
			c-0.286,0.142-0.525,0.33-0.718,0.564c-0.192,0.235-0.342,0.508-0.447,0.82c-0.105,0.312-0.164,0.638-0.177,0.977H1174.92z"/>
		<path fill="#CCCCCC" d="M1186.45,766.466c0,0.729-0.078,1.384-0.236,1.964c-0.157,0.58-0.389,1.073-0.694,1.478
			s-0.684,0.716-1.135,0.936c-0.45,0.219-0.966,0.328-1.547,0.328c-0.247,0-0.476-0.024-0.686-0.074
			c-0.21-0.049-0.415-0.126-0.615-0.231c-0.201-0.104-0.4-0.237-0.598-0.398c-0.197-0.16-0.407-0.349-0.63-0.564v4.168
			c0,0.049-0.013,0.093-0.037,0.13s-0.064,0.067-0.12,0.092c-0.056,0.025-0.133,0.044-0.231,0.056
			c-0.1,0.013-0.226,0.019-0.38,0.019c-0.148,0-0.271-0.006-0.371-0.019c-0.099-0.012-0.177-0.03-0.235-0.056
			c-0.06-0.024-0.1-0.055-0.121-0.092s-0.032-0.081-0.032-0.13v-11.643c0-0.056,0.01-0.101,0.028-0.135
			c0.019-0.033,0.055-0.062,0.11-0.088c0.056-0.024,0.127-0.041,0.214-0.051c0.086-0.009,0.19-0.014,0.314-0.014
			c0.13,0,0.236,0.005,0.319,0.014c0.084,0.01,0.153,0.026,0.209,0.051c0.056,0.025,0.094,0.055,0.115,0.088
			c0.021,0.034,0.032,0.079,0.032,0.135v1.121c0.254-0.26,0.497-0.485,0.732-0.677c0.234-0.191,0.471-0.351,0.708-0.477
			c0.238-0.127,0.481-0.223,0.731-0.287c0.251-0.065,0.515-0.098,0.792-0.098c0.605,0,1.121,0.117,1.547,0.353
			c0.427,0.234,0.773,0.556,1.042,0.963s0.465,0.882,0.589,1.422C1186.388,765.288,1186.45,765.862,1186.45,766.466z
			 M1184.866,766.642c0-0.426-0.032-0.838-0.098-1.236s-0.177-0.752-0.335-1.061c-0.159-0.309-0.371-0.556-0.639-0.741
			c-0.268-0.185-0.6-0.277-0.997-0.277c-0.199,0-0.395,0.029-0.587,0.088c-0.193,0.059-0.389,0.151-0.588,0.278
			c-0.198,0.126-0.406,0.293-0.624,0.5s-0.447,0.461-0.689,0.764v3.316c0.423,0.512,0.823,0.904,1.202,1.176
			s0.776,0.407,1.192,0.407c0.386,0,0.717-0.092,0.993-0.277s0.5-0.433,0.671-0.741s0.297-0.654,0.377-1.037
			C1184.826,767.417,1184.866,767.031,1184.866,766.642z"/>
	</g>
	<g>
		<path fill="#CCCCCC" d="M1266.964,764.863c0,0.97-0.114,1.844-0.343,2.621c-0.229,0.778-0.569,1.44-1.023,1.987
			c-0.453,0.546-1.023,0.966-1.708,1.26c-0.686,0.293-1.485,0.439-2.399,0.439c-0.901,0-1.681-0.134-2.339-0.402
			c-0.657-0.269-1.201-0.659-1.63-1.172s-0.749-1.148-0.959-1.908s-0.314-1.633-0.314-2.621c0-0.944,0.114-1.803,0.343-2.575
			c0.229-0.771,0.571-1.428,1.028-1.968c0.456-0.54,1.027-0.957,1.713-1.251c0.686-0.293,1.485-0.439,2.399-0.439
			c0.883,0,1.651,0.133,2.306,0.398s1.2,0.652,1.635,1.162c0.436,0.51,0.76,1.14,0.973,1.89S1266.964,763.895,1266.964,764.863z
			 M1265.278,764.975c0-0.679-0.06-1.311-0.181-1.894c-0.12-0.584-0.32-1.09-0.601-1.52c-0.281-0.429-0.655-0.764-1.124-1.005
			s-1.049-0.361-1.739-0.361s-1.271,0.13-1.739,0.39c-0.469,0.259-0.85,0.604-1.143,1.037c-0.292,0.432-0.502,0.937-0.629,1.514
			c-0.126,0.578-0.189,1.185-0.189,1.82c0,0.704,0.059,1.353,0.176,1.945s0.314,1.104,0.592,1.533c0.278,0.429,0.649,0.763,1.115,1
			s1.05,0.356,1.753,0.356c0.696,0,1.282-0.13,1.758-0.389c0.475-0.26,0.856-0.61,1.146-1.052s0.496-0.952,0.62-1.532
			C1265.217,766.237,1265.278,765.623,1265.278,764.975z"/>
		<path fill="#CCCCCC" d="M1275.301,769.495c0,0.104-0.004,0.195-0.01,0.272s-0.017,0.143-0.032,0.194
			c-0.016,0.053-0.034,0.1-0.056,0.14s-0.071,0.099-0.148,0.176s-0.208,0.173-0.394,0.287s-0.394,0.216-0.625,0.306
			s-0.483,0.162-0.755,0.218s-0.553,0.083-0.843,0.083c-0.6,0-1.13-0.099-1.593-0.296c-0.464-0.198-0.852-0.486-1.163-0.866
			s-0.55-0.846-0.713-1.398c-0.164-0.553-0.245-1.19-0.245-1.913c0-0.821,0.1-1.526,0.301-2.116c0.2-0.59,0.476-1.073,0.824-1.449
			c0.349-0.377,0.76-0.656,1.231-0.839c0.473-0.182,0.983-0.272,1.533-0.272c0.266,0,0.523,0.024,0.773,0.073
			c0.25,0.05,0.48,0.115,0.69,0.195c0.209,0.08,0.396,0.173,0.56,0.277c0.164,0.105,0.283,0.194,0.357,0.269
			c0.073,0.074,0.125,0.133,0.152,0.176c0.027,0.044,0.051,0.095,0.069,0.153s0.031,0.125,0.037,0.199s0.01,0.167,0.01,0.277
			c0,0.241-0.028,0.409-0.084,0.505s-0.123,0.144-0.203,0.144c-0.093,0-0.199-0.051-0.32-0.152c-0.12-0.103-0.272-0.215-0.458-0.338
			c-0.186-0.124-0.409-0.236-0.672-0.339c-0.263-0.102-0.572-0.152-0.931-0.152c-0.734,0-1.298,0.282-1.69,0.848
			c-0.392,0.564-0.588,1.385-0.588,2.459c0,0.537,0.051,1.008,0.152,1.412c0.103,0.404,0.252,0.743,0.449,1.015
			c0.198,0.271,0.44,0.474,0.728,0.606s0.616,0.199,0.986,0.199c0.352,0,0.661-0.056,0.926-0.167
			c0.266-0.111,0.496-0.232,0.69-0.365s0.358-0.254,0.491-0.361c0.133-0.108,0.236-0.162,0.31-0.162
			c0.044,0,0.081,0.012,0.111,0.037c0.031,0.024,0.058,0.066,0.079,0.125s0.037,0.133,0.046,0.222
			C1275.296,769.265,1275.301,769.371,1275.301,769.495z"/>
		<path fill="#CCCCCC" d="M1281.663,770.153c0,0.179-0.013,0.321-0.037,0.426c-0.024,0.105-0.062,0.183-0.111,0.231
			c-0.05,0.05-0.123,0.096-0.223,0.14c-0.099,0.043-0.211,0.078-0.338,0.106c-0.126,0.027-0.261,0.051-0.402,0.069
			c-0.143,0.019-0.284,0.027-0.427,0.027c-0.432,0-0.803-0.057-1.111-0.171s-0.562-0.287-0.759-0.519
			c-0.198-0.231-0.342-0.525-0.431-0.88c-0.09-0.355-0.135-0.773-0.135-1.256v-4.871h-1.167c-0.093,0-0.167-0.05-0.223-0.148
			s-0.083-0.26-0.083-0.481c0-0.117,0.008-0.216,0.023-0.297c0.015-0.08,0.035-0.146,0.06-0.199c0.025-0.052,0.058-0.089,0.098-0.11
			c0.04-0.022,0.085-0.033,0.134-0.033h1.158v-1.981c0-0.043,0.011-0.084,0.032-0.121s0.062-0.069,0.12-0.097
			c0.06-0.028,0.138-0.048,0.236-0.061c0.099-0.012,0.223-0.019,0.371-0.019c0.154,0,0.28,0.007,0.38,0.019
			c0.099,0.013,0.176,0.032,0.231,0.061c0.056,0.027,0.096,0.06,0.12,0.097s0.037,0.078,0.037,0.121v1.981h2.14
			c0.049,0,0.093,0.011,0.13,0.033c0.037,0.021,0.069,0.059,0.097,0.11c0.028,0.053,0.048,0.119,0.061,0.199
			c0.012,0.081,0.019,0.18,0.019,0.297c0,0.222-0.028,0.383-0.084,0.481c-0.055,0.099-0.129,0.148-0.222,0.148h-2.14v4.649
			c0,0.574,0.085,1.008,0.255,1.301c0.17,0.294,0.474,0.44,0.912,0.44c0.142,0,0.269-0.014,0.38-0.042
			c0.111-0.027,0.21-0.057,0.296-0.088c0.087-0.03,0.161-0.06,0.223-0.088c0.062-0.027,0.117-0.042,0.167-0.042
			c0.03,0,0.06,0.008,0.088,0.023c0.027,0.016,0.049,0.045,0.064,0.088s0.029,0.103,0.042,0.176
			C1281.656,769.948,1281.663,770.041,1281.663,770.153z"/>
	</g>
	<g>
		<path fill="#CCCCCC" d="M1359.114,770.338c0,0.123-0.021,0.229-0.062,0.314c-0.041,0.087-0.096,0.157-0.162,0.213
			c-0.067,0.056-0.143,0.096-0.226,0.121c-0.083,0.024-0.166,0.036-0.249,0.036h-0.526c-0.167,0-0.312-0.017-0.437-0.051
			c-0.124-0.033-0.242-0.096-0.354-0.185c-0.111-0.09-0.224-0.212-0.335-0.366s-0.23-0.352-0.355-0.593l-3.656-6.817
			c-0.191-0.352-0.384-0.721-0.578-1.106s-0.375-0.761-0.542-1.125h-0.019c0.012,0.444,0.021,0.898,0.027,1.361
			s0.01,0.923,0.01,1.38v7.233c0,0.044-0.014,0.085-0.039,0.125c-0.026,0.041-0.07,0.071-0.133,0.093
			c-0.062,0.022-0.143,0.04-0.244,0.056c-0.101,0.016-0.229,0.023-0.386,0.023s-0.285-0.008-0.386-0.023
			c-0.102-0.016-0.182-0.033-0.24-0.056c-0.059-0.021-0.101-0.052-0.127-0.093c-0.025-0.04-0.039-0.081-0.039-0.125v-11.059
			c0-0.247,0.07-0.423,0.211-0.528c0.14-0.104,0.293-0.157,0.459-0.157h0.783c0.185,0,0.34,0.016,0.464,0.047
			c0.124,0.03,0.236,0.081,0.335,0.152s0.194,0.17,0.286,0.297c0.093,0.126,0.189,0.285,0.291,0.477l2.811,5.261
			c0.174,0.321,0.341,0.635,0.502,0.94s0.316,0.606,0.465,0.903c0.149,0.296,0.297,0.588,0.443,0.875s0.291,0.576,0.435,0.866h0.009
			c-0.013-0.488-0.02-0.996-0.023-1.524c-0.003-0.527-0.004-1.035-0.004-1.523v-6.502c0-0.043,0.013-0.083,0.039-0.12
			c0.025-0.037,0.069-0.069,0.132-0.098c0.062-0.027,0.144-0.048,0.244-0.06c0.101-0.013,0.233-0.019,0.396-0.019
			c0.144,0,0.268,0.006,0.372,0.019c0.104,0.012,0.186,0.032,0.244,0.06c0.059,0.028,0.101,0.061,0.127,0.098
			s0.039,0.077,0.039,0.12V770.338z"/>
		<path fill="#CCCCCC" d="M1369.877,766.503c0,0.68-0.09,1.305-0.269,1.876c-0.18,0.571-0.446,1.063-0.802,1.477
			c-0.355,0.414-0.8,0.736-1.334,0.969c-0.534,0.231-1.152,0.347-1.856,0.347c-0.686,0-1.283-0.102-1.792-0.306
			c-0.51-0.203-0.935-0.5-1.274-0.889c-0.339-0.39-0.593-0.861-0.759-1.417c-0.167-0.556-0.25-1.186-0.25-1.89
			c0-0.68,0.088-1.305,0.264-1.876s0.441-1.063,0.797-1.478c0.354-0.413,0.798-0.734,1.329-0.963
			c0.53-0.229,1.151-0.343,1.861-0.343c0.686,0,1.283,0.102,1.792,0.306c0.51,0.204,0.934,0.5,1.273,0.89
			c0.34,0.389,0.595,0.861,0.765,1.417S1369.877,765.806,1369.877,766.503z M1368.293,766.605c0-0.45-0.042-0.876-0.127-1.277
			c-0.084-0.401-0.223-0.754-0.415-1.057c-0.193-0.302-0.455-0.542-0.785-0.718c-0.331-0.176-0.742-0.264-1.234-0.264
			c-0.454,0-0.846,0.08-1.173,0.241c-0.327,0.16-0.597,0.387-0.808,0.681c-0.212,0.293-0.37,0.641-0.473,1.042
			s-0.154,0.84-0.154,1.314c0,0.457,0.042,0.887,0.127,1.288c0.084,0.401,0.224,0.752,0.42,1.051c0.196,0.3,0.46,0.537,0.79,0.714
			c0.33,0.176,0.741,0.264,1.233,0.264c0.449,0,0.838-0.08,1.168-0.241c0.331-0.16,0.602-0.386,0.813-0.676s0.367-0.636,0.467-1.037
			C1368.243,767.529,1368.293,767.087,1368.293,766.605z"/>
		<path fill="#CCCCCC" d="M1378.88,762.409c0,0.024-0.002,0.051-0.005,0.079c-0.003,0.027-0.008,0.057-0.014,0.088
			c-0.007,0.03-0.015,0.064-0.023,0.102c-0.01,0.037-0.021,0.077-0.032,0.12l-2.844,7.919c-0.024,0.068-0.058,0.124-0.098,0.167
			s-0.1,0.077-0.181,0.103c-0.08,0.024-0.182,0.041-0.306,0.051c-0.123,0.009-0.277,0.014-0.463,0.014
			c-0.185,0-0.34-0.006-0.463-0.019c-0.124-0.013-0.224-0.031-0.301-0.056s-0.138-0.059-0.181-0.102s-0.077-0.096-0.102-0.158
			l-2.835-7.919c-0.024-0.074-0.045-0.139-0.06-0.194c-0.016-0.056-0.025-0.097-0.028-0.125c-0.003-0.027-0.005-0.051-0.005-0.069
			c0-0.05,0.013-0.093,0.037-0.13c0.025-0.037,0.066-0.066,0.125-0.088s0.136-0.035,0.232-0.042
			c0.096-0.006,0.214-0.009,0.356-0.009c0.179,0,0.322,0.005,0.431,0.014c0.107,0.01,0.191,0.026,0.25,0.051
			c0.059,0.025,0.102,0.056,0.13,0.093c0.027,0.037,0.054,0.084,0.078,0.139l2.353,6.873l0.037,0.111l0.028-0.111l2.324-6.873
			c0.013-0.055,0.034-0.102,0.065-0.139c0.03-0.037,0.075-0.067,0.134-0.093c0.059-0.024,0.139-0.041,0.241-0.051
			c0.102-0.009,0.236-0.014,0.402-0.014c0.143,0,0.26,0.003,0.353,0.009c0.093,0.007,0.165,0.022,0.218,0.047
			c0.052,0.024,0.089,0.054,0.11,0.088S1378.88,762.36,1378.88,762.409z"/>
	</g>
	<g>
		<path fill="#CCCCCC" d="M1455.603,764.486c0.034,1.037-0.068,1.947-0.309,2.729c-0.238,0.784-0.605,1.438-1.099,1.964
			c-0.491,0.525-1.104,0.928-1.836,1.205c-0.732,0.277-1.61,0.434-2.635,0.467l-2.537,0.084c-0.142,0.004-0.278-0.039-0.407-0.131
			c-0.13-0.092-0.199-0.257-0.207-0.498l-0.351-10.683c-0.008-0.241,0.05-0.411,0.174-0.512c0.122-0.1,0.256-0.152,0.397-0.156
			l2.712-0.09c1.038-0.033,1.917,0.072,2.643,0.317c0.725,0.245,1.337,0.611,1.839,1.097c0.501,0.488,0.889,1.086,1.161,1.792
			C1455.423,762.78,1455.574,763.584,1455.603,764.486z M1453.931,764.606c-0.021-0.648-0.123-1.248-0.301-1.802
			c-0.179-0.554-0.445-1.028-0.802-1.424c-0.356-0.396-0.8-0.7-1.333-0.912c-0.531-0.21-1.211-0.303-2.038-0.275l-1.62,0.053
			l0.307,9.322l1.639-0.054c0.765-0.025,1.407-0.142,1.925-0.351c0.519-0.208,0.947-0.516,1.286-0.922s0.586-0.911,0.742-1.512
			C1453.893,766.128,1453.958,765.419,1453.931,764.606z"/>
		<path fill="#CCCCCC" d="M1465.037,765.584c0.008,0.241-0.047,0.414-0.165,0.52c-0.118,0.106-0.254,0.162-0.409,0.167l-5.486,0.181
			c0.016,0.463,0.075,0.877,0.181,1.244c0.105,0.368,0.271,0.681,0.496,0.938c0.227,0.258,0.516,0.453,0.868,0.583
			c0.351,0.131,0.778,0.188,1.28,0.171c0.397-0.013,0.749-0.057,1.058-0.132c0.307-0.075,0.573-0.156,0.797-0.244
			c0.225-0.087,0.408-0.167,0.552-0.236c0.143-0.068,0.252-0.105,0.326-0.108c0.044-0.001,0.082,0.009,0.117,0.029
			s0.062,0.052,0.083,0.095c0.02,0.042,0.036,0.103,0.047,0.179c0.013,0.077,0.021,0.172,0.024,0.282
			c0.002,0.081,0.001,0.15-0.003,0.209s-0.011,0.112-0.018,0.158c-0.009,0.046-0.022,0.089-0.043,0.127
			c-0.021,0.037-0.047,0.073-0.079,0.108c-0.033,0.035-0.132,0.095-0.296,0.177c-0.163,0.083-0.378,0.165-0.64,0.248
			c-0.264,0.083-0.568,0.159-0.915,0.229c-0.346,0.07-0.717,0.111-1.112,0.125c-0.686,0.022-1.289-0.054-1.811-0.228
			s-0.965-0.444-1.328-0.809c-0.364-0.365-0.646-0.828-0.843-1.39c-0.197-0.562-0.31-1.22-0.334-1.973
			c-0.023-0.717,0.048-1.362,0.215-1.939c0.166-0.577,0.418-1.07,0.753-1.479c0.335-0.41,0.747-0.729,1.233-0.959
			c0.486-0.229,1.035-0.354,1.646-0.374c0.654-0.021,1.214,0.066,1.681,0.261c0.467,0.195,0.855,0.465,1.163,0.81
			c0.308,0.346,0.538,0.755,0.693,1.229c0.154,0.474,0.24,0.982,0.258,1.524L1465.037,765.584z M1463.485,765.181
			c-0.008-0.803-0.207-1.427-0.598-1.871c-0.391-0.443-0.955-0.653-1.694-0.629c-0.379,0.013-0.709,0.094-0.989,0.246
			c-0.281,0.15-0.515,0.347-0.699,0.587c-0.185,0.241-0.325,0.519-0.42,0.835c-0.096,0.314-0.144,0.643-0.146,0.981
			L1463.485,765.181z"/>
		<path fill="#CCCCCC" d="M1473.457,768.57c0.004,0.104,0.003,0.196-0.001,0.273c-0.003,0.077-0.012,0.143-0.025,0.195
			s-0.031,0.101-0.051,0.142c-0.021,0.04-0.067,0.101-0.142,0.181c-0.075,0.079-0.203,0.18-0.385,0.3s-0.386,0.229-0.614,0.326
			s-0.479,0.177-0.747,0.241c-0.27,0.064-0.55,0.102-0.84,0.111c-0.6,0.02-1.133-0.062-1.602-0.243
			c-0.471-0.183-0.868-0.458-1.19-0.828c-0.324-0.369-0.578-0.826-0.759-1.374c-0.183-0.547-0.284-1.182-0.309-1.904
			c-0.026-0.82,0.05-1.528,0.231-2.125c0.181-0.596,0.44-1.088,0.775-1.475c0.337-0.389,0.738-0.682,1.204-0.88
			c0.467-0.197,0.974-0.305,1.523-0.322c0.266-0.009,0.524,0.007,0.774,0.048c0.252,0.041,0.484,0.1,0.697,0.173
			c0.212,0.073,0.402,0.159,0.568,0.259c0.168,0.1,0.29,0.185,0.366,0.257c0.076,0.071,0.13,0.128,0.158,0.171
			s0.054,0.093,0.073,0.15c0.021,0.059,0.036,0.124,0.044,0.198c0.009,0.074,0.016,0.167,0.019,0.277
			c0.009,0.24-0.015,0.409-0.067,0.507c-0.051,0.097-0.117,0.147-0.197,0.149c-0.093,0.003-0.2-0.044-0.325-0.142
			c-0.123-0.099-0.279-0.206-0.469-0.322c-0.189-0.117-0.417-0.223-0.684-0.316c-0.265-0.093-0.576-0.134-0.935-0.122
			c-0.734,0.024-1.287,0.325-1.661,0.902c-0.373,0.577-0.543,1.404-0.508,2.478c0.018,0.537,0.084,1.005,0.199,1.406
			c0.115,0.4,0.276,0.734,0.482,1c0.207,0.264,0.456,0.458,0.746,0.581c0.292,0.124,0.623,0.18,0.993,0.167
			c0.352-0.012,0.659-0.077,0.919-0.197c0.263-0.12,0.489-0.249,0.679-0.388c0.19-0.139,0.351-0.265,0.479-0.377
			s0.231-0.17,0.305-0.172c0.044-0.002,0.081,0.009,0.112,0.033c0.031,0.023,0.059,0.064,0.082,0.122
			c0.023,0.059,0.042,0.132,0.054,0.221C1473.445,768.34,1473.453,768.445,1473.457,768.57z"/>
	</g>
</g>
<path fill="#DCDCDC" stroke="#DCDCDC" stroke-linecap="round" stroke-linejoin="round" stroke-miterlimit="10" d="M428.536,578.175
	c-0.471,0-0.921-0.267-1.134-0.721c-0.292-0.626-0.021-1.369,0.604-1.662c0.785-0.366,79.255-36.954,141.352-59.045
	c11.201-3.984,35.267-4.021,63.132-4.062c31.403-0.048,66.996-0.102,93.746-5.733c0.679-0.137,1.34,0.291,1.481,0.966
	c0.142,0.676-0.291,1.339-0.966,1.481c-27.004,5.685-62.733,5.738-94.258,5.786c-27.635,0.041-51.501,0.077-62.298,3.918
	c-61.982,22.05-140.347,58.588-141.131,58.955C428.893,578.138,428.713,578.175,428.536,578.175z"/>
<path fill="#DCDCDC" stroke="#DCDCDC" stroke-linecap="round" stroke-linejoin="round" stroke-miterlimit="10" d="M1269.287,529.887
	c-0.695,0-1.408-0.016-2.139-0.046c-11.147-0.47-16.499-1.935-22.696-3.63c-11.207-3.066-25.149-6.877-83.691-6.1
	c-59.1,0.774-102.604-4.431-129.317-15.523c-22.042-9.152-27.271-20.227-29.783-25.549c-0.548-1.159-0.98-2.075-1.387-2.576
	c-0.436-0.535-0.354-1.323,0.182-1.758c0.536-0.437,1.323-0.354,1.758,0.182c0.598,0.735,1.088,1.772,1.708,3.085
	c4.844,10.261,19.575,41.48,156.807,39.64c58.886-0.788,73.024,3.079,84.385,6.188c6.051,1.656,11.276,3.086,22.142,3.544
	c13.789,0.588,20.503-4.668,28.258-10.746c8.635-6.767,18.382-14.413,40.034-14.255c0.69,0.006,1.245,0.57,1.239,1.261
	c-0.006,0.687-0.564,1.239-1.25,1.239c-0.003,0-0.007,0-0.011,0c-20.752-0.16-29.754,6.893-38.471,13.723
	C1289.635,524.379,1282.607,529.887,1269.287,529.887z"/>
<path fill="#DCDCDC" stroke="#DCDCDC" stroke-linecap="round" stroke-linejoin="round" stroke-miterlimit="10" d="M733.201,520.925"
	/>
<path fill="#DCDCDC" stroke="#DCDCDC" stroke-linecap="round" stroke-linejoin="round" stroke-miterlimit="10" d="M941.868,581.675
	c-21.973,0-40.061-13.034-52.307-37.694c-9.172-18.467-11.904-37.193-11.931-37.38c-0.098-0.684,0.378-1.316,1.062-1.413
	c0.682-0.103,1.316,0.378,1.413,1.062c0.026,0.184,2.715,18.563,11.722,36.673c11.963,24.056,28.799,36.253,50.041,36.253
	c21.563,0,39.409-11.902,53.044-35.378c9.428-16.232,14.141-33.528,16.11-42.394c0.149-0.674,0.81-1.093,1.492-0.949
	c0.674,0.15,1.099,0.818,0.949,1.492c-2.002,9.006-6.792,26.582-16.39,43.106C982.96,569.354,964.385,581.675,941.868,581.675z"/>
<path fill="#DCDCDC" stroke="#DCDCDC" stroke-linecap="round" stroke-linejoin="round" stroke-miterlimit="10" d="M931.875,590.604
	c-35.801,0-70.272-45.34-71.84-47.429c-0.414-0.552-0.303-1.335,0.25-1.75c0.551-0.416,1.334-0.302,1.75,0.25
	c0.406,0.541,41.076,54.019,78.277,45.487c24.316-5.576,42.052-36.038,52.714-90.539c0.133-0.677,0.786-1.117,1.467-0.986
	c0.678,0.133,1.119,0.789,0.986,1.467c-10.869,55.562-29.243,86.682-54.611,92.496C937.875,590.285,934.867,590.604,931.875,590.604
	z"/>
<path fill="#D2D2D2" d="M1351.302,520.216c0.427-0.002,0.85-0.009,1.279-0.009c7.829,0,15.596,0.458,23.201,1.344
	c7.604,1.365,14.938,2.041,22.099,2.684c18.494,1.661,35.963,3.23,53.572,17.066c0.312,0.244,0.686,0.373,1.08,0.373
	c0.541,0,1.043-0.244,1.377-0.669c0.596-0.759,0.464-1.861-0.295-2.458c-18.424-14.475-36.395-16.089-55.445-17.8
	c-3.903-0.351-7.856-0.707-11.871-1.18c-0.125-0.053-0.254-0.095-0.391-0.118c-3.071-0.518-6.229-0.956-9.433-1.33
	c-3.497-0.625-7.038-1.385-10.642-2.381c-15.733-4.351-44.383-7.471-76.638-8.347c-2.325-0.063-4.68-0.111-7.045-0.151
	c0.199-7.647,0.378-15.255,0.519-22.759c8.042-52.29,14.53-104.372-7.511-129.168c-0.129-4.668-0.523-8.726-1.203-11.989
	c2.521,1.442,4.812,3.213,6.889,5.321c16.478,16.73,15.945,51.801,15.475,82.743c-0.4,26.35-0.746,49.106,8.839,58.3
	c7.637,7.324,26.449,17.064,54.335,20.409c6.229,0.749,12.663,1.128,19.123,1.128c25.246,0,50.361-5.622,74.646-16.709
	c0.426-0.194,0.75-0.542,0.913-0.98c0.163-0.438,0.146-0.913-0.048-1.339c-0.389-0.85-1.456-1.255-2.319-0.864
	c-23.826,10.877-48.453,16.393-73.195,16.393c-6.313,0-12.605-0.371-18.703-1.102c-27.03-3.243-45.083-12.512-52.33-19.463
	c-8.483-8.136-8.132-31.244-7.761-55.723c0.479-31.628,1.024-67.476-16.48-85.248c-7.292-7.404-17.325-11.158-29.819-11.158
	c-1.525,0-3.048,0.154-4.566,0.445c-3.921-1.807-7.428-2.689-10.604-2.689c-1.731,0-3.389,0.273-4.925,0.812
	c-7.857,2.759-12.208,12.173-15.442,25.496c-19.906,25.402-37.84,65.92-51.374,96.503c-7.875,17.792-14.096,31.846-17.496,35.357
	c-0.065,0.068-0.12,0.142-0.173,0.218c-28.281,19.824-53.812,22.727-73.735,22.727c-8.461,0-16.437-0.569-24.153-1.121
	c-6.495-0.464-12.63-0.902-18.26-0.902c-2.314,0-4.701,0.07-7.102,0.279c1.042-9.145,0.428-18.879-0.223-29.116
	c-0.416-6.529-0.847-13.28-0.847-20.116c0-21.478-0.223-39.188-3.026-55.301c-0.52-2.98-0.977-5.872-1.432-8.751
	c-1.954-12.369-3.642-23.052-9.22-32.295c-0.767-1.27-1.623-2.864-2.452-4.408c-6.969-12.964-18.632-34.662-55.953-34.662
	c-37.474,0-64.935,14.4-81.62,42.803c-13.174,22.422-19.854,54.202-19.854,94.456c0,11.169,1.172,21.397,2.305,31.289
	c0.903,7.884,1.751,15.358,1.875,22.433c-0.311,0.008-0.614,0.024-0.932,0.024c-4.834,0-9.95-0.747-15.367-1.537
	c-5.617-0.818-11.425-1.664-17.184-1.664c-2.69,0-5.143,0.181-7.496,0.552c-7.339,1.158-11.36,2.571-14.292,4.041
	c-0.222-0.061-0.456-0.079-0.689-0.044c-1.77,0.261-4.002,0.394-6.633,0.394c-13.079,0-35.577-3.422-49.118-8.949
	c-3.958-1.615-8.62-2.866-13.557-4.191c-11.688-3.138-24.569-6.606-29.866-15.81c0.108-1.094,0.217-2.189,0.326-3.281
	c7.979-80.226,15.514-156.002-17.392-169.714c-4.01-1.67-8.374-1.397-12.821,0.812c-2.043,1.015-4.105,2.448-6.18,4.242
	c-2.708-0.536-5.438-0.66-8.183-0.337c-27.195,3.199-51.667,46.829-75.334,89.025c-13.566,24.189-26.381,47.038-38.597,60.007
	c-41.55,44.117-83.073,44.117-113.392,44.117c-0.965,0-1.75,0.785-1.75,1.75s0.785,1.75,1.75,1.75
	c17.31,0,35.818-0.478,55.056-6.187c22.532-6.688,42.448-19.455,60.885-39.03c12.51-13.283,25.426-36.312,39.102-60.695
	c18.828-33.57,39.792-70.94,61.269-83.243c-6.472,8.188-13.914,21.535-22.283,39.964c-25.549,22.016-39.158,61.842-48.892,94.863
	c-18.016,29.33-35.686,53.083-51.111,55.856c-0.274,0.049-0.522,0.167-0.738,0.329c-30.655,3.625-64.902,11.163-94.115,26.852
	c-0.849,0.457-1.169,1.521-0.713,2.37c0.438,0.82,1.541,1.157,2.37,0.714c16.22-8.711,34.05-14.872,51.955-19.233
	c0.261,0.091,0.541,0.13,0.823,0.087c1.391-0.22,4.144-0.331,8.184-0.331c10.309,0,27.719,0.71,44.555,1.396l0.127,0.006
	c16.195,0.66,31.492,1.283,40.361,1.283c0.051,0,0.102-0.002,0.162-0.007c0.155-0.016,16.6-1.499,33.987-1.743
	c28.945-0.412,38.33,2.71,41.174,5.295c3.608,3.281,4.821,11.587,6.104,20.381c2.277,15.603,5.11,35.02,24.008,35.02
	c3.391,0,12.407-1.008,14.132-1.686c4.413-1.734,4.857-10.006,5.422-20.484c0.515-9.558,1.098-20.391,4.911-25.476
	c2.023-2.697,12.662-8.971,67.607-8.971c7.31,0,15.255,0.114,23.66,0.338c0.2,0,0.39-0.04,0.569-0.101
	c1.589,0.446,3.168,0.89,4.722,1.33c13.428,3.799,26.111,7.386,36.783,7.386c7.907,0,14.302-1.965,19.441-6.113
	c4.296,14.841,13.471,28.359,26.872,39.226c15.437,12.518,35.695,20.605,51.611,20.605c47.98,0,62.058-22.851,68.823-33.833
	c5.105-8.292,11.019-20.659,15.208-32.82c7.017,2.497,15.376,3.701,25.204,3.701c8.5,0,17.854-0.897,27.802-2.322
	c6.874,0.733,14.296,1.096,22.346,1.096c13.035,0,28.192-0.946,45.984-2.87c0.075,0.05,0.149,0.099,0.233,0.137
	c4.724,2.176,12.698,3.233,24.379,3.233c10.27,0,22.247-0.793,33.885-1.562c10.63-0.703,20.67-1.368,28.659-1.368
	c7.553,0,12.271,0.611,14.427,1.869c6.901,4.025,9.08,23.249,10.522,35.975c0.55,4.848,1.023,9.034,1.65,11.889
	c2.023,9.221,9.283,14.23,15.172,14.983c0.588,0.075,1.176,0.113,1.746,0.113c2.388,0,4.518-0.672,6.261-1.882
	c0.577-0.116,1.051-0.516,1.271-1.048c0.783-0.767,1.463-1.658,1.99-2.695c1.316-2.586,1.88-9.542,2.596-18.366
	c1.078-13.287,2.419-29.823,6.674-36.914c4.597-7.663,20.022-13.402,40.666-15.692c54.373,5.327,93.591,21.754,119.208,49.805
	c0.33,0.362,0.802,0.57,1.293,0.57c0.438,0,0.857-0.163,1.18-0.458c0.346-0.315,0.547-0.746,0.568-1.213s-0.141-0.914-0.456-1.259
	C1430.704,543.425,1396.888,527.373,1351.302,520.216z M936.535,596.175c-15.163,0-34.558-7.781-49.408-19.825
	c-10.048-8.148-21.589-20.982-26.247-39.139c4.256-4.557,7.505-10.975,9.945-19.412c0.81-0.531,1.607-1.126,2.391-1.79
	c2.281,22.614,7.721,37.183,16.478,44.28c4.699,3.809,10.431,5.66,17.522,5.66c5.655,0,11.562-1.136,17.287-2.236
	c0.334-0.064,0.665-0.127,0.997-0.191c8.857,6.116,15.298,7.954,15.721,8.07c0.374,0.119,3.819,1.173,9.484,1.173
	c4.63,0,9.394-0.706,14.159-2.098c21.972-6.419,37.838-25.813,47.505-41.529c1.558,0.953,3.207,1.813,4.947,2.582
	c-4.095,11.939-9.915,24.126-14.939,32.286C995.453,575.249,982.562,596.175,936.535,596.175z M656.266,326.5
	c1.538-0.181,3.059-0.203,4.568-0.086c-4.883,5.065-9.813,12.03-14.705,20.35c-2.639-0.002-5.409,0.313-8.298,0.945
	c5.255-9.371,10.289-16.574,14.851-20.515C653.877,326.874,655.071,326.641,656.266,326.5z M682.082,338.612
	c10.254,11.108,14.361,56.576,12.21,135.139l-0.005,0.178c-0.098,3.595-0.169,6.192-0.169,7.497c0,4.24,0.865,7.794,2.38,10.811
	c-0.846,8.523-1.686,17.09-2.468,25.598c-3.606-2.033-6.869-4.344-9.768-6.944c0.079-3.544,0.163-7.115,0.247-10.709
	c0.549-23.327,1.103-46.942,0.348-68.429c5.478-34.46,7.859-65.658-3.472-80.01c-4.168-5.278-10.029-8.16-17.422-8.564
	c-3.817-0.211-7.823,1.284-11.992,4.158c-0.637-0.127-1.282-0.236-1.938-0.32c5.279-8.817,10.298-15.458,15.015-19.872
	C670.8,328.687,676.415,332.473,682.082,338.612z M697.047,523.312c0.364,0.169,0.732,0.334,1.103,0.499
	c-0.382-0.007-0.766-0.014-1.145-0.021C697.019,523.63,697.033,523.471,697.047,523.312z M693.499,523.718
	c-3.292-0.07-6.453-0.146-9.488-0.229c0.046-2.678,0.098-5.379,0.155-8.101c2.884,2.323,6.054,4.411,9.516,6.254
	C693.619,522.336,693.56,523.026,693.499,523.718z M681.01,500.122c-0.058,2.458-0.115,4.906-0.171,7.342
	c-0.602-0.656-1.208-1.309-1.771-1.995c-2.154-2.625-3.992-5.424-5.572-8.357c1.703-10.774,3.725-21.925,5.732-32.996
	c0.836-4.612,1.675-9.239,2.493-13.852C681.802,466.406,681.405,483.34,681.01,500.122z M588.142,498.931
	c-1.012-0.911-1.546-1.801-1.524-2.625c0.065-2.435,3.055-9.22,7.825-18.471C592.119,485.413,590.007,492.517,588.142,498.931z
	 M603.349,461.348c20.554-36.751,53.595-89.103,60.807-93.701c2.072,4.555,3.62,19.536,4.281,39.778
	c-4.988,25.374-10.295,56.541-2.229,81.303c-0.935,7.989-2.074,13.347-3.339,15.103c-2.585,3.585-12.078,5.726-25.393,5.726
	c-13.897,0-29.132-2.229-39.757-5.817c-2.576-0.87-4.761-1.796-6.498-2.732C594.53,489.644,598.642,475.991,603.349,461.348z
	 M667.945,357.346c1.837,0.167,3.223,0.836,4.21,2.039c1.528,1.862,2.194,4.938,2.267,8.915
	C672.576,364.102,670.434,360.419,667.945,357.346z M668.771,424.888c0.023,3.471,0.025,7.027,0.001,10.66
	c-0.109,16.616-0.693,31.577-1.613,43.282C663.895,462.1,665.72,443.104,668.771,424.888z M663.325,357.409
	c4.523,4.586,7.981,11.159,10.607,19.267c-0.555,4.872-1.525,10.431-2.668,16.401c-0.865-13.763-2.333-24.772-4.615-28.135
	c-0.62-0.913-1.718-1.277-2.852-0.938c-7.278,2.129-35.741,48.532-44.291,62.703c-3.581,5.936-7.22,12.091-10.745,18.183
	c1.146-3.406,2.318-6.836,3.514-10.279c10.288-29.615,20.13-53.764,29.325-72.097C648.181,359.618,655.396,357.832,663.325,357.409z
	 M675.785,463.492c-1.72,9.484-3.424,18.879-4.934,27.985c-0.402-0.992-0.778-1.997-1.129-3.013
	c1.67-14.451,2.433-35.048,2.55-52.893c0.059-8.949-0.036-18.599-0.331-27.83c0.335-1.701,0.67-3.39,1.001-5.055
	c1.25-6.284,2.421-12.178,3.312-17.555c3.03,13.037,4.502,28.927,5.112,46.313C679.691,441.941,677.732,452.758,675.785,463.492z
	 M677.465,376.496c0.939-8.799,0.51-15.537-2.604-19.332c-1.832-2.232-4.479-3.364-7.868-3.364c-0.783,0-1.556,0.02-2.326,0.044
	c-0.681-0.626-1.38-1.218-2.104-1.767c-1.908-1.445-3.959-2.594-6.144-3.45c2.377-1.28,4.655-1.969,6.815-1.969
	c0.181,0,0.361,0.006,0.539,0.015c6.437,0.354,11.299,2.721,14.866,7.238c8.71,11.033,8.576,33.656,5.236,60.188
	C682.74,399.861,680.759,387.041,677.465,376.496z M659.49,354.197c-4.7,0.492-9.15,1.44-13.362,2.802
	c2.249-2.348,4.439-4.35,6.562-5.949C655.117,351.702,657.373,352.748,659.49,354.197z M648.179,350.285
	c-0.037,0.032-0.074,0.063-0.111,0.095c0.018-0.031,0.037-0.065,0.055-0.097C648.142,350.285,648.161,350.284,648.179,350.285z
	 M590.231,504.43c1.792,0.917,3.907,1.793,6.369,2.625c10.827,3.658,26.915,6.021,40.985,6.021c8.565,0,23.608-0.936,28.122-7.2
	c1.206-1.674,2.219-5.417,3.063-10.525c0.347,0.766,0.708,1.524,1.086,2.274c-1.388,8.81-2.549,17.298-3.315,25.277
	c-22.533-0.916-36.628-2.155-47.629-3.123c-10.202-0.896-18.261-1.604-28.045-1.604c-1.426,0-2.942,0-4.533,0.003
	C587.43,514.238,588.737,509.609,590.231,504.43z M672.657,502.57c1.128,1.766,2.357,3.477,3.705,5.12
	c1.352,1.647,2.812,3.208,4.366,4.691c-0.081,3.707-0.155,7.379-0.217,11.01c-3.655-0.108-7.122-0.225-10.417-0.349
	C670.717,516.508,671.603,509.641,672.657,502.57z M680.456,526.89c-0.27,18.119-0.183,35.071,0.966,49.624
	c-11.537-6.541-13.625-25.659-11.637-49.982C673.155,526.659,676.708,526.779,680.456,526.89z M573.043,517.431
	c0.288-0.951,16.975-55.873,36.725-106.97c7.388-12.646,14.732-24.76,21.78-34.972c-11.818,26.247-22.84,57.495-31.712,85.15
	c-9.494,17.153-16.607,31.52-16.718,35.571c-0.061,2.263,1.279,4.378,3.979,6.332c-1.724,5.98-3.207,11.263-4.417,15.647
	c-3.162,0.015-6.587,0.047-10.235,0.111C572.72,518.083,572.935,517.788,573.043,517.431z M726.979,527.64
	c4.451,0.022,9.073,0.035,13.889,0.035c5.33,0,10.545,0.335,15.646,0.901c-3.387,0.064-7.08,0.099-11.146,0.099
	C738.836,528.675,732.72,528.316,726.979,527.64z M617.983,389.92c2.462-5.929,4.942-11.686,7.416-17.169
	c2.553-2.16,5.225-4.136,8.027-5.897C628.417,373.57,623.258,381.399,617.983,389.92z M598.977,429.144
	c-0.168,0.459-0.334,0.906-0.503,1.368c-16.032,43.878-28.655,85.492-28.781,85.906c-0.136,0.447-0.089,0.921,0.132,1.333
	c0.128,0.239,0.311,0.435,0.524,0.589c-3.575,0.074-7.351,0.181-11.297,0.337c5.047-7.491,9.287-22.229,14.467-40.247
	c1.081-3.761,2.206-7.671,3.388-11.686C584.271,454.755,591.659,441.889,598.977,429.144z M683.955,526.989
	c2.958,0.08,6.036,0.155,9.236,0.223c-1.908,22.084-3.251,43.437-3.02,62.068c-1.14,0.155-2.447,0.313-3.752,0.451
	C683.87,572.898,683.598,550.992,683.955,526.989z M697.791,473.846c0.812-29.636,3.282-119.819-13.137-137.607
	c-5.323-5.768-10.843-9.678-16.481-11.721c1.223-0.91,2.427-1.677,3.604-2.262c3.588-1.784,6.796-2.018,9.918-0.714
	c29.601,12.332,23.183,86.113,15.926,159.385C697.635,479.491,697.705,476.962,697.791,473.846z M644.1,350.298
	c-1.676,2.983-3.345,6.115-5.005,9.377c-0.031,0.036-0.062,0.073-0.092,0.109c-3.652,1.686-7.108,3.699-10.387,5.99
	c2.329-4.936,4.642-9.584,6.922-13.865C638.559,351.025,641.427,350.486,644.1,350.298z M606.528,409.063
	c-3.494,5.989-7.025,12.139-10.585,18.339c-4.931,8.588-9.895,17.231-14.852,25.615c8.395-26.47,19.735-55.021,37.684-73.987
	C614.877,388.019,610.794,398.025,606.528,409.063z M554.436,518.877c-6.606,0.316-13.63,0.774-20.941,1.438
	c11.747-7.503,24.123-23.439,36.656-42.831C564.622,496.712,559.834,513.352,554.436,518.877z M581.717,521.695
	c-1.199,4.39-2.033,7.539-2.456,9.149c-2.089,0.164-3.482,0.288-3.95,0.331c-8.835-0.003-24.088-0.625-40.236-1.284
	c-13.056-0.532-26.442-1.078-36.71-1.294C530.515,522.651,561.311,521.812,581.717,521.695z M585.365,521.68
	c1.949-0.005,3.792-0.005,5.502-0.005c9.639,0,17.241,0.669,27.784,1.596c10.992,0.966,25.083,2.205,47.578,3.122
	c-2.242,27.169,0.587,47.855,15.548,54.197c0.317,3.292,0.696,6.446,1.146,9.447c-0.798,0.052-1.528,0.084-2.121,0.084
	c-15.869,0-18.246-16.279-20.544-32.024c-1.377-9.432-2.677-18.341-7.215-22.466c-4.558-4.143-17.692-6.243-39.04-6.243
	c-11.901,0-23.637,0.661-31.048,1.183C583.451,528.708,584.266,525.675,585.365,521.68z M696.698,527.284
	c3.656,0.071,7.475,0.133,11.456,0.186c10.604,3.13,23.026,4.705,37.215,4.705c12.222,0,21.295-0.312,28.196-0.844
	c3.336,0.693,6.612,1.452,9.829,2.251c-3.543-0.046-7.001-0.072-10.327-0.072c-41.688,0-65.44,3.487-70.598,10.365
	c-4.452,5.937-5.064,17.336-5.606,27.402c-0.375,6.946-0.887,16.452-3.193,17.393C693.47,570.245,694.806,549.131,696.698,527.284z
	 M798.194,524.954c3.22-1.989,6.549-4.045,16.614-5.634c2.163-0.342,4.432-0.507,6.937-0.507c5.521,0,11.199,0.826,16.709,1.629
	c5.585,0.813,10.86,1.581,16.005,1.581c0.277,0,0.555-0.005,0.833-0.01c0.122,4.81,0.73,9.542,1.802,14.161
	c-4.699,4.397-10.645,6.424-18.23,6.424c-9.941,0-22.059-3.428-36.104-7.401c-5.996-1.695-12.259-3.462-18.771-5.074
	C792.005,528.767,795.06,526.889,798.194,524.954z M952.535,331.008c35.229,0,46.272,20.545,52.871,32.82
	c0.848,1.579,1.725,3.212,2.538,4.559c5.224,8.657,6.862,19.027,8.759,31.034l0.017,0.104c0.443,2.803,0.902,5.701,1.425,8.699
	c2.755,15.836,2.974,33.393,2.974,54.7c0,6.965,0.435,13.774,0.854,20.359c0.613,9.614,1.198,18.796,0.366,27.324
	c-10.479-9.899-17.191-23.432-20.754-41.031c-3.232-15.962-0.583-32.007,1.979-47.534c0.368-2.225,0.731-4.436,1.075-6.628
	c2.945,18.829,4.391,42.83,3.605,73.465c-0.024,0.964,0.74,1.769,1.751,1.795c0.94,0,1.725-0.765,1.749-1.705
	c0.875-34.106-1.017-62.362-5.638-84.569c1.321-13.141,0.524-25.244-7.072-35.144c-3.169-4.13-7.384-7.717-12.733-10.8
	c-12.757-14.4-27.594-15.357-36.842-15.953c-1.475-0.095-2.867-0.185-4.063-0.318c-0.582-0.064-1.202-0.098-1.843-0.098
	c-3.562,0-7.938,1.03-12.693,2.843c-11.987-0.526-21.576,2.423-29.349,9.025c-7.612,6.466-12.752,16.091-16.339,27.628
	c-7.353,10.662-13.552,24.492-13.552,40.841c0,16.7,1.17,31.53,3.17,44.685c-1.28,17.251-3.077,34.126-6.891,48.131
	c-2.613,1.488-5.64,2.515-9.16,2.98c-0.139-7.173-0.988-14.664-1.893-22.563c-1.123-9.796-2.283-19.926-2.283-30.892
	c0-39.623,6.518-70.807,19.37-92.684C889.945,344.827,916.39,331.008,952.535,331.008z M1167.972,480.286
	c-4.824,9.834-9.595,18.983-14.393,26.924c-7.248,4.007-15.453,7.188-24.771,9.343c-0.456,0.105-0.843,0.382-1.091,0.778
	c-0.247,0.396-0.326,0.865-0.221,1.32c0.185,0.8,0.882,1.359,1.695,1.359c0.137,0,0.274-0.017,0.403-0.048
	c7.424-1.716,14.164-4.049,20.293-6.907c-0.972,1.47-1.946,2.898-2.923,4.253c-11.061,1.939-21.873,4.064-32.475,6.156l0.097,0.49
	l-0.196-0.471c-14.667,2.895-28.223,5.567-40.641,7.382c-19.138-2.067-34.128-7.059-45.51-15.358
	c1.476-0.083,3.025-0.124,4.653-0.124c5.487,0,11.521,0.432,17.922,0.89c7.135,0.51,15.222,1.087,23.693,1.087
	C1097.327,517.36,1131.835,513.512,1167.972,480.286z M1269.867,341.455c0.833,2.624,1.381,6.092,1.664,10.218
	c-6.335-5.692-11.934-10.041-16.924-13.121c5.736,0.104,10.795,1.031,15.239,2.805
	C1269.855,341.39,1269.857,341.423,1269.867,341.455z M1248.486,339.166c5.901,2.914,12.922,8.063,21.208,15.557
	c0.711,0.644,1.386,1.325,2.045,2.021c0.034,1.931,0.02,3.969-0.037,6.095c-0.896-1.493-1.857-2.782-2.891-3.845
	c-0.847-0.872-1.742-1.585-2.676-2.159c-1.076-3.241-2.441-5.834-4.156-7.672c-2.055-2.203-4.56-3.32-7.444-3.32
	c-7.178,0-12.244,6.869-17.782,18.229c-7.172,5.497-13.911,13.27-20.344,22.541c1.545-9.551,2.995-18.334,4.741-25.8
	C1230.08,349.47,1239.315,341.397,1248.486,339.166z M1279.164,484.247c-0.516,3.351-1.037,6.702-1.558,10.047
	c-0.672,4.318-1.339,8.608-1.99,12.862c-2.047-0.017-4.098-0.028-6.152-0.028c-2.014,0-4.024,0.032-6.036,0.047
	c0.423-18.7,1.827-38.929,3.17-58.275c0.89-12.823,1.744-25.165,2.308-36.585c2.357-11.439,4.102-22.758,5.149-33.082
	C1279.448,402.467,1279.926,442.321,1279.164,484.247z M1175.272,473.234c2.158-2.184,4.24-4.386,6.252-6.602
	c-1.163,2.938-2.296,5.94-3.345,8.936c-2.219,6.34-3.755,11.786-4.639,16.367c-4.07,4.189-8.597,8.025-13.649,11.42
	C1165.01,494.309,1170.099,484.059,1175.272,473.234z M1260.368,355.175c-6.157,0-11.995,1.741-17.571,4.882
	c3.785-6.688,7.469-10.715,11.738-10.715c1.901,0,3.499,0.722,4.886,2.207c0.909,0.974,1.707,2.226,2.404,3.733
	C1261.346,355.218,1260.862,355.175,1260.368,355.175z M1260.368,358.675c1.019,0,1.981,0.204,2.903,0.6
	c3.209,11.077,3.239,30.244,2.144,52.679c-1.26,6.058-2.688,12.151-4.28,18.147c-0.985,3.71-2.011,7.302-3.068,10.79
	c1.842-39.39-0.515-74.462-0.553-74.995c-0.009-0.126-0.03-0.249-0.063-0.365c-0.216-0.744-0.904-1.264-1.675-1.264
	c-0.008,0-0.017,0-0.025,0c-4.896-2.002-11.491,1.214-19.648,9.57c1.143-2.576,2.249-5.005,3.331-7.261
	C1246.082,361.561,1253.044,358.675,1260.368,358.675z M1210.439,420.048c0.471-2.211,0.917-4.414,1.344-6.607
	c3.32-5.579,6.622-10.788,9.85-15.552C1218.358,404.959,1214.689,412.4,1210.439,420.048z M1204.453,430.28
	c-2.795,4.538-5.821,9.117-9.102,13.705c0.385-0.792,0.771-1.584,1.166-2.383c3.154-6.38,6.381-12.518,9.625-18.352
	C1205.611,425.591,1205.048,427.937,1204.453,430.28z M1201.338,441.396c-5.042,16.338-12.153,32.075-22.932,45.107
	c2.144-7.788,5.682-17.482,10.384-28.292C1193.37,452.624,1197.537,446.994,1201.338,441.396z M1176.699,493.833
	c16.327-17.091,25.321-39.681,31.107-62.464c10.508-17.162,17.841-33.55,23.643-46.875c8.736-10.88,16.313-17.301,21.264-17.301
	c0.494,0,0.961,0.067,1.393,0.2c0.347,5.559,1.352,23.853,1.209,46.97c-0.071,11.457-0.445,25.153-1.468,39.338
	c-10.711,29.917-24.179,49.306-38.218,54.442c-1.502,0.023-3.032,0.038-4.614,0.038c-0.001,0-0.002,0-0.003,0
	c-15.304,0-30.418-1.134-33.005-2.476C1175.867,504.595,1175.519,500.346,1176.699,493.833z M1252.815,465.819
	c-1.289,13.004-3.193,26.005-5.98,37.694c-0.002,0.005-0.165,0.459-1.573,1.104c-3.602,1.648-11.207,2.781-21.554,3.278
	C1236.099,499.611,1245.787,482.58,1252.815,465.819z M1269.563,387.778c-0.044-9.612-0.57-17.978-1.835-24.644
	c1.352,1.845,2.557,4.204,3.631,7.011C1270.997,375.645,1270.394,381.578,1269.563,387.778z M1233.025,372.14
	c-1.119,2.518-2.273,5.175-3.485,7.966c-0.357,0.823-0.719,1.655-1.084,2.496c-0.694,0.872-1.395,1.769-2.107,2.7
	c-4.122,5.397-8.453,11.709-12.812,18.624c0.513-2.929,1-5.824,1.468-8.671C1220.758,386.231,1226.75,378.293,1233.025,372.14z
	 M1208.442,412.265c-5.179,8.734-10.301,18.157-15.062,27.785c-1.573,3.182-4.468,9.183-7.612,16.394
	c-1.812,2.19-3.693,4.375-5.645,6.551c0.839-1.783,1.68-3.573,2.526-5.374c8.617-18.351,17.689-37.668,27.443-54.317
	C1209.573,406.26,1209.026,409.251,1208.442,412.265z M1172.742,497.733c-0.413,5.877,0.795,9.596,3.653,11.078
	c2.136,1.107,7.8,1.888,14.637,2.372c-5.828,0.608-11.634,1.262-17.389,2.006c-7.395,0.956-14.661,2.073-21.821,3.28
	c1.418-2.087,2.829-4.29,4.236-6.592C1162.285,506.375,1167.82,502.291,1172.742,497.733z M1250.237,504.331
	c3.626-15.208,5.796-32.7,7.04-50.02c3.058-8.523,5.377-16.388,6.962-22.27c-0.358,5.463-0.744,11.022-1.133,16.62
	c-1.382,19.912-2.778,40.046-3.207,58.541c-4.17,0.052-8.334,0.135-12.491,0.253
	C1249.013,506.593,1249.942,505.567,1250.237,504.331z M1270.156,510.67c1.65,0,3.29,0.007,4.924,0.018
	c-0.274,1.811-0.544,3.616-0.809,5.412c-3.669,0.103-7.325,0.239-10.966,0.404c0.007-1.913,0.026-3.848,0.057-5.802
	C1265.629,510.683,1267.894,510.67,1270.156,510.67z M1273.758,519.613c-2.404,16.634-4.312,32.511-4.878,46.984
	c-4.022-11.338-5.477-27.802-5.574-46.588C1266.778,519.851,1270.261,519.715,1273.758,519.613z M1276.852,579.283
	c-1.748-1.427-3.29-3.278-4.646-5.506c0.107-16.276,2.269-34.73,5.099-54.245c0.337-0.008,0.674-0.016,1.011-0.023
	c-0.096,3.466-0.194,6.919-0.292,10.349C1277.532,547.26,1277.059,563.939,1276.852,579.283z M1277.821,516.019
	c0.237-1.603,0.479-3.215,0.723-4.83c-0.043,1.607-0.086,3.213-0.13,4.817C1278.216,516.01,1278.018,516.015,1277.821,516.019z
	 M1272.263,579.708c1.372,1.531,2.881,2.812,4.539,3.822c-0.034,3.3-0.053,6.529-0.057,9.689c-0.939,0.625-2.056,1.001-3.299,1.122
	C1272.783,589.736,1272.402,584.849,1272.263,579.708z M1290.017,515.868c-2.704,0-5.404,0.023-8.1,0.063
	c0.047-1.723,0.094-3.445,0.14-5.166c28.967,0.459,54.68,2.591,72.473,5.981c-0.65-0.006-1.302-0.02-1.951-0.02
	c-7.072,0-13.918,0.36-20.433,1.07C1318.977,516.513,1304.947,515.868,1290.017,515.868z M1274.848,369.617
	c0.186-3.02,0.302-5.915,0.342-8.651c14.626,20.458,13.028,57.229,7.777,97.044C1283.052,420.134,1281.347,387.41,1274.848,369.617z
	 M1223.366,352.666c2.669-8.299,6.112-13.971,11.216-15.763c1.141-0.399,2.394-0.602,3.725-0.602c1.581,0,3.3,0.292,5.146,0.843
	C1236.629,339.943,1229.906,345.396,1223.366,352.666z M1212.699,387.631c-0.323,2-0.652,4.034-0.989,6.092
	c-11.398,18.053-21.893,40.396-32.229,62.409c-2.401,5.113-4.772,10.157-7.125,15.088c-2.146,2.154-4.367,4.294-6.672,6.417
	c-2.997,2.759-5.969,5.298-8.917,7.659c3.449-6.61,7.787-16.408,13.053-28.306c11.757-26.566,28.263-63.857,46.338-89.465
	C1214.951,373.706,1213.856,380.471,1212.699,387.631z M993.077,367.848c1.172,1.134,2.236,2.312,3.179,3.541
	c4.658,6.071,6.521,13.054,6.852,20.798C1000.387,382.671,997.046,374.542,993.077,367.848z M940.575,345.841
	c1.687-0.243,3.192-0.314,4.434-0.176c1.319,0.146,2.817,0.242,4.267,0.335c7.02,0.453,16.664,1.079,26.129,7.443
	C966.13,350.025,954.604,347.52,940.575,345.841z M901.077,363.631c-2.589,2.317-5.592,5.244-8.669,8.723
	c2.959-6.369,6.665-11.735,11.369-15.73c5.246-4.457,11.444-7.078,18.813-7.939C915.334,352.474,907.758,357.652,901.077,363.631z
	 M875.118,422.425c0-10.769,2.854-20.413,6.951-28.716c-3.421,16.356-4.76,35.21-5.97,53.907
	C875.392,438.767,875.118,430.267,875.118,422.425z M872.813,511.476c-0.154,0.154-0.309,0.309-0.466,0.459
	c0.125-0.53,0.255-1.054,0.376-1.59C872.751,510.727,872.783,511.098,872.813,511.476z M875.535,494.809
	c-0.001-0.049-0.012-0.095-0.017-0.143c0.655-4.667,1.199-9.469,1.669-14.348c1.214,5.738,2.592,11.104,4.095,16.127
	c-1.345,4.106-3.034,7.89-5.244,11.124C875.787,503.545,875.618,499.298,875.535,494.809z M917.994,403.72
	c6.659-9.371,14.385-14.745,21.195-14.745c0.353,0,0.705,0.015,1.053,0.044c0.437,0.037,0.869,0.059,1.303,0.088
	c-13.292,12.256-26.028,33.802-37.981,64.324c-0.809,2.066-1.589,4.117-2.347,6.151C901.894,439.491,906.687,419.63,917.994,403.72z
	 M946.483,389.447c2.15,0.191,4.157,0.51,5.876,1.263c17.948,7.856,26.071,40.955,22.866,93.273c-0.052,0.85-0.09,1.481-0.106,1.869
	c-2.089,50.568-21.282,58.119-32.54,58.119c-13.788-0.001-28.012-11.265-31.519-21.334c-5.254-15.087-9.198-33.689-9.834-52.657
	C911.065,441.702,926.652,405.803,946.483,389.447z M952.214,381.325c-2.296,1.237-4.579,2.751-6.846,4.524
	c-0.569-0.038-1.142-0.074-1.722-0.108c-1.018-0.06-2.057-0.121-3.109-0.209c-8.298-0.719-17.659,5.273-25.396,16.159
	c-8.856,12.463-14.844,29.965-16.858,49.283c-0.637,6.107-0.86,12.375-0.702,18.744c-5.063,14.681-8.585,27.286-10.327,33.883
	c-0.847-2.411-1.633-4.844-2.374-7.289c1.174-3.679,2.219-7.853,3.1-12.632c2.293-12.456,3.725-25.127,5.11-37.39
	c4.886-43.258,9.105-80.617,48.665-80.617c14.292,0,24.733,3.904,32,12.074C966.546,376.328,959.273,377.526,952.214,381.325z
	 M882.93,501.697c6.685,20.114,15.363,34.211,23.28,43.839c5.327,6.479,10.628,11.416,15.437,15.159
	c-4.813,0.91-9.714,1.735-14.351,1.735c-6.415,0-11.308-1.544-15.399-4.86c-8.393-6.802-13.497-21.525-15.477-44.781
	C878.798,509.986,880.996,506.368,882.93,501.697z M908.783,543.155c-8.262-10.088-14.573-21.632-19.381-33.822
	c0-0.001,0.001-0.001,0.001-0.002c0.085-0.359,3.129-12.929,8.706-30.081c1.24,14.635,4.471,29.677,9.646,44.538
	c3.901,11.201,19.163,23.683,34.826,23.684c12.51,0,33.826-7.986,36.036-61.475c0.015-0.382,0.054-1.009,0.106-1.874
	c3.297-53.816-5.568-88.131-24.962-96.62c-1.062-0.465-2.166-0.786-3.303-1.026c1.126-0.754,2.263-1.45,3.414-2.07
	c7.675-4.135,15.583-4.834,23.347-2.077c1.525,2.377,2.876,5.002,4.038,7.914c6.082,15.246,6.637,35.753,7.226,57.479
	c0.453,16.723,0.922,34.014,4.054,49.488c2.077,10.258,5.688,18.382,11.043,24.529c-26.815,28.76-52.665,36.435-63.712,36.435
	c-4.315,0-8.796,0.736-13.489,1.618C921.048,555.987,914.897,550.621,908.783,543.155z M939.868,561.675
	c3.492,0,13.135-0.742,27.213-7.615c13.534-6.607,26.63-16.632,38.928-29.794c1.091,1.039,2.237,2.016,3.452,2.92
	c-9.299,15.153-24.524,33.895-45.407,40.072c-4.453,1.317-8.928,1.985-13.3,1.985c-5.226,0-8.385-0.96-8.53-1.005
	c-0.088-0.025-4.795-1.4-11.64-5.643C933.816,562.057,936.919,561.675,939.868,561.675z M1006.252,519.247
	c-4.979-5.71-8.362-13.239-10.284-22.731c-3.073-15.177-3.538-32.315-3.987-48.903c-1.19-43.937-2.314-85.438-50.226-85.438
	c-19.583,0-32.406,8.146-40.355,25.634c-6.956,15.307-9.303,36.089-11.793,58.137c-1.376,12.183-2.8,24.779-5.07,37.102
	c-0.432,2.344-0.906,4.664-1.448,6.931c-2.036-7.686-3.598-15.455-4.771-23.136c0.391-5.321,0.738-10.67,1.08-15.979
	c1.551-24.085,3.139-48.681,8.938-67.705c5.073-7.269,10.69-12.995,15.076-16.92c9.853-8.819,19.767-14.633,27.853-17.786
	c0.963,0.051,1.937,0.117,2.934,0.215c22.294,2.196,38.849,6.386,50.04,12.708c7.301,8.489,13.912,21.834,18.375,42.941
	c-0.571,5.448-1.515,11.18-2.502,17.158c-2.614,15.831-5.316,32.202-1.958,48.798c3.723,18.385,10.773,32.45,21.599,42.743
	C1014.971,514.024,1010.324,515.891,1006.252,519.247z M866.457,520.056c-1.784,5.31-3.923,9.601-6.506,12.957
	c-0.667-3.542-1.069-7.271-1.157-11.192C861.366,521.569,863.942,521.04,866.457,520.056z M1008.678,521.77
	c3.396-2.74,7.549-4.526,12.862-5.493c-0.011,0.059-0.02,0.118-0.031,0.177c-0.717,3.754-1.779,7.763-3.068,11.848
	C1014.744,526.59,1011.497,524.418,1008.678,521.77z M1024.885,517.405c7.03,5.384,15.383,9.497,25.163,12.436
	c3.383,1.017,6.938,1.889,10.672,2.629c-5.181,0.495-10.133,0.773-14.848,0.773c-3.802,0-7.401-0.187-10.697-0.556
	c-4.981-0.556-9.469-1.567-13.489-3.044C1023.027,525.428,1024.127,521.291,1024.885,517.405z M1115.144,526.903
	c18.915-3.733,38.475-7.594,58.948-10.242c27.097-3.505,56.533-5.527,85.738-5.916c-0.033,2-0.054,3.979-0.061,5.934
	c-34.348,1.74-67.127,5.998-94.679,9.586l-7.115,0.925c-25.326,3.275-44.984,4.802-61.865,4.802c-2.401,0-4.733-0.045-7.033-0.111
	C1097.51,530.38,1106.237,528.661,1115.144,526.903z M1158.426,530.66l7.138-0.928c27.43-3.572,60.056-7.809,94.21-9.549
	c0.123,23.233,2.345,42.831,8.934,54.503c-0.013,6.844,0.341,13.315,1.159,19.339c-4.401-1.159-9.29-5.148-10.789-11.975
	c-0.587-2.676-1.052-6.78-1.59-11.534c-1.611-14.219-3.818-33.691-12.237-38.603c-2.737-1.598-7.944-2.341-16.384-2.341
	c-7.996,0-18.065,0.667-28.74,1.374c-11.411,0.756-23.211,1.537-33.553,1.537c-6.309,0-11.445-0.3-15.486-0.908
	C1153.491,531.285,1155.929,530.983,1158.426,530.66z M1281.526,529.889c0.099-3.482,0.198-6.969,0.295-10.456
	c2.738-0.041,5.481-0.064,8.228-0.064c9.482,0,18.596,0.261,27.352,0.78c-14.889,3.219-25.076,8.447-29.033,15.043
	c-4.678,7.796-6.055,24.788-7.161,38.443c-0.284,3.505-0.574,7.059-0.905,10.049
	C1280.469,567.161,1280.985,548.963,1281.526,529.889z M793.299,523.732c-3.356,1.69-8.237,3.191-19.437,4.083
	c-10.417-2.144-21.424-3.64-32.995-3.64c-11.792,0-22.452-0.071-32.133-0.198c-4.07-1.224-7.865-2.676-11.353-4.376
	c0.691-7.587,1.433-15.228,2.186-22.85c6.719,7.618,18.591,10.814,29.505,13.744c4.828,1.296,9.389,2.521,13.135,4.05
	c13.912,5.679,37.09,9.193,50.586,9.193h0.006C792.972,523.738,793.129,523.733,793.299,523.732z M792.793,523.238L792.793,523.238
	L792.793,523.238L792.793,523.238z"/>
</svg>
