<?xml version="1.0" encoding="utf-8"?>
<!-- Generator: Adobe Illustrator 17.1.0, SVG Export Plug-In . SVG Version: 6.00 Build 0)  -->
<!DOCTYPE svg PUBLIC "-//W3C//DTD SVG 1.1//EN" "http://www.w3.org/Graphics/SVG/1.1/DTD/svg11.dtd">
<svg version="1.1" id="图层_1" xmlns="http://www.w3.org/2000/svg" xmlns:xlink="http://www.w3.org/1999/xlink" x="0px" y="0px"
	 viewBox="0 0 68.6 88.4" enable-background="new 0 0 68.6 88.4" xml:space="preserve">
<g>
	<path d="M10.6,29.1V23H8.4v-0.8c0.3,0,0.6,0,0.8-0.1c0.3,0,0.5-0.1,0.7-0.2s0.4-0.3,0.6-0.5c0.2-0.2,0.3-0.5,0.3-0.8h0.8v8.5H10.6z
		"/>
	<path d="M14.7,22.4c0.1-0.4,0.3-0.7,0.5-1c0.2-0.3,0.5-0.5,0.9-0.6c0.4-0.2,0.8-0.2,1.2-0.2c0.4,0,0.7,0.1,1,0.2
		c0.3,0.1,0.6,0.3,0.8,0.5c0.2,0.2,0.4,0.5,0.6,0.8c0.1,0.3,0.2,0.7,0.2,1.1c0,0.4-0.1,0.7-0.2,1c-0.1,0.3-0.3,0.5-0.5,0.8
		c-0.2,0.2-0.4,0.4-0.7,0.6s-0.5,0.4-0.8,0.5c-0.3,0.2-0.5,0.3-0.8,0.5c-0.3,0.2-0.5,0.3-0.7,0.5c-0.2,0.2-0.4,0.4-0.6,0.6
		c-0.2,0.2-0.3,0.4-0.3,0.7h4.4v0.9h-5.6c0-0.5,0.1-0.9,0.3-1.3c0.1-0.4,0.3-0.7,0.5-0.9c0.2-0.3,0.5-0.5,0.7-0.7
		c0.3-0.2,0.6-0.4,0.9-0.6c0.4-0.2,0.7-0.4,0.9-0.6c0.3-0.2,0.5-0.4,0.7-0.6c0.2-0.2,0.3-0.4,0.4-0.6s0.1-0.5,0.1-0.8
		c0-0.2,0-0.4-0.1-0.6c-0.1-0.2-0.2-0.3-0.4-0.5c-0.1-0.1-0.3-0.2-0.5-0.3s-0.4-0.1-0.6-0.1c-0.3,0-0.5,0.1-0.8,0.2
		c-0.2,0.1-0.4,0.3-0.5,0.5c-0.1,0.2-0.2,0.4-0.3,0.7s-0.1,0.5-0.1,0.8h-1C14.6,23.2,14.6,22.8,14.7,22.4z"/>
	<path d="M22.5,22.9v0.9h0c0.5-0.7,1.1-1.1,2-1.1c0.4,0,0.7,0.1,1,0.2c0.3,0.2,0.5,0.4,0.7,0.8c0.2-0.3,0.5-0.6,0.8-0.8
		c0.3-0.2,0.7-0.3,1.1-0.3c0.3,0,0.6,0,0.8,0.1c0.3,0.1,0.5,0.2,0.6,0.3c0.2,0.1,0.3,0.3,0.4,0.6c0.1,0.2,0.1,0.5,0.1,0.8v4.5h-1V25
		c0-0.2,0-0.4,0-0.5c0-0.2-0.1-0.3-0.2-0.4s-0.2-0.2-0.4-0.3c-0.2-0.1-0.4-0.1-0.6-0.1c-0.5,0-0.9,0.1-1.2,0.4
		c-0.3,0.3-0.4,0.7-0.4,1.2v3.9h-1V25c0-0.2,0-0.4-0.1-0.6s-0.1-0.3-0.2-0.4s-0.2-0.2-0.4-0.3c-0.1-0.1-0.3-0.1-0.6-0.1
		c-0.3,0-0.6,0.1-0.8,0.2c-0.2,0.1-0.4,0.3-0.5,0.4s-0.2,0.3-0.3,0.5c-0.1,0.2-0.1,0.3-0.1,0.5v3.9h-1v-6.2H22.5z"/>
	<path d="M32.7,22.9v0.9h0c0.5-0.7,1.1-1.1,2-1.1c0.4,0,0.7,0.1,1,0.2c0.3,0.2,0.5,0.4,0.7,0.8c0.2-0.3,0.5-0.6,0.8-0.8
		c0.3-0.2,0.7-0.3,1.1-0.3c0.3,0,0.6,0,0.8,0.1c0.3,0.1,0.5,0.2,0.6,0.3c0.2,0.1,0.3,0.3,0.4,0.6c0.1,0.2,0.1,0.5,0.1,0.8v4.5h-1V25
		c0-0.2,0-0.4,0-0.5c0-0.2-0.1-0.3-0.2-0.4s-0.2-0.2-0.4-0.3c-0.2-0.1-0.4-0.1-0.6-0.1c-0.5,0-0.9,0.1-1.2,0.4
		c-0.3,0.3-0.4,0.7-0.4,1.2v3.9h-1V25c0-0.2,0-0.4-0.1-0.6s-0.1-0.3-0.2-0.4s-0.2-0.2-0.4-0.3c-0.1-0.1-0.3-0.1-0.6-0.1
		c-0.3,0-0.6,0.1-0.8,0.2c-0.2,0.1-0.4,0.3-0.5,0.4s-0.2,0.3-0.3,0.5c-0.1,0.2-0.1,0.3-0.1,0.5v3.9h-1v-6.2H32.7z"/>
</g>
<line fill-rule="evenodd" clip-rule="evenodd" fill="none" stroke="#211816" stroke-width="0.25" x1="68.6" y1="0" x2="68.6" y2="88.4"/>
<g>
	<g id="形状_2_copy_3_副本_4_8_">
		<g>
			<path fill-rule="evenodd" clip-rule="evenodd" fill="#CCCCCC" d="M3,61c-1,1.9-1.8,3.6-2.9,5.6h1.4c0.3-0.5,0.4-0.8,0.7-1.3
				c0.7,0,1.3,0,2,0c-0.1-0.4-0.2-0.7-0.4-1.1H2.8c0.3-0.6,0.5-1,1-1.9c0.5,1.5,1,2.9,1.5,4.3h1.2c-0.7-2-1.3-3.7-2-5.6H3z
				 M6.8,66.6H8L8.3,61l-1.2,0L6.8,66.6z M8.7,66.6h1.2l0.2-4.2H8.9L8.7,66.6z M8.9,61l0,0.9c0,0,0.9,0,1.2,0l0-0.9
				C9.1,61,9.1,61,8.9,61z M16.6,62.4c-0.2-0.1-0.4-0.1-0.7-0.1c-0.1,0-0.3,0-0.4,0c-0.1,0-0.2,0.1-0.4,0.1c-0.1,0-0.2,0.1-0.3,0.2
				c-0.1,0.1-0.2,0.1-0.2,0.2c-0.1,0.1-0.1,0.1-0.2,0.2c-0.1-0.1-0.1-0.2-0.2-0.3c0-0.1-0.1-0.1-0.2-0.2c-0.1-0.1-0.1-0.1-0.2-0.1
				c-0.1,0-0.2-0.1-0.3-0.1c-0.1,0-0.2,0-0.4,0c-0.2,0-0.3,0-0.5,0.1c-0.2,0-0.3,0.1-0.4,0.2c-0.1,0.1-0.2,0.1-0.3,0.2
				c-0.1,0.1-0.2,0.2-0.2,0.3l0-0.7h-1.1l-0.2,4.2c0,0,0.9,0,1.2,0c0-0.4,0-0.8,0-1.5c0-0.6,0.1-1,0.1-1.2c0.1-0.2,0.2-0.4,0.3-0.5
				c0.1-0.1,0.3-0.2,0.5-0.2c0.1,0,0.2,0,0.3,0.1c0.1,0,0.1,0.1,0.2,0.2c0.1,0.1,0.1,0.2,0.1,0.2c0,0.1,0,0.2,0,0.3
				c0,0.2,0,0.7-0.1,1.3c0,0.7-0.1,1.1-0.1,1.3c0.3,0,0.9,0,1.2,0l0-1.1c0-0.4,0-0.7,0.1-1c0-0.3,0.1-0.4,0.1-0.6
				c0-0.1,0.1-0.3,0.2-0.4c0.1-0.1,0.2-0.2,0.3-0.2c0.1,0,0.2-0.1,0.3-0.1c0.1,0,0.2,0,0.3,0.1c0.1,0,0.2,0.1,0.2,0.2
				c0.1,0.1,0.1,0.2,0.1,0.4c0,0.2,0,0.4,0,0.6l0,0.9c0,0.4,0,0.8-0.1,1.1c0.2,0,1,0,1.2,0c0-0.3,0-0.8,0-1.3c0-0.6,0.1-1,0.1-1.2
				c0-0.3,0-0.4,0-0.6c0-0.2-0.1-0.5-0.2-0.6C17,62.6,16.8,62.5,16.6,62.4z M21,62.4c-0.3-0.1-0.5-0.1-0.8-0.1c-0.3,0-0.5,0-0.8,0.1
				c-0.3,0-1,0.2-1,0.2l-0.1,0.8c0,0,1.2-0.4,1.7-0.4c0.1,0,0.3,0,0.4,0c0.1,0,0.2,0.1,0.3,0.2c0.1,0.1,0.1,0.2,0.1,0.3
				c0,0.1,0,0.1,0,0.2c0,0.1-0.1,0.1-0.1,0.1c0,0-0.1,0.1-0.2,0.1c-0.1,0-0.2,0.1-0.3,0.1C20,64,19.8,64,19.7,64
				c-0.4,0.1-0.7,0.2-0.9,0.3c-0.2,0.1-0.4,0.2-0.5,0.3c-0.1,0.1-0.2,0.2-0.3,0.3c-0.1,0.1-0.1,0.2-0.2,0.3c0,0.1-0.1,0.2-0.1,0.3
				c0,0.2,0.1,0.4,0.2,0.6c0.1,0.2,0.3,0.4,0.5,0.4c0.2,0.1,0.5,0.1,0.9,0.1c0.1,0,0.2,0,0.3,0c0.1,0,0.3,0,0.5-0.1
				c0.1-0.3,0.1-0.5,0.2-0.7C20,66,19.9,66,19.8,66c-0.1,0-0.2,0-0.3,0c-0.1,0-0.3,0-0.4,0c-0.1,0-0.2-0.1-0.3-0.2
				c-0.1-0.1-0.1-0.2-0.1-0.3c0-0.1,0-0.1,0-0.2c0-0.1,0.1-0.1,0.1-0.2c0.1-0.1,0.1-0.1,0.2-0.2c0.1,0,0.2-0.1,0.3-0.1
				c0.1,0,0.2-0.1,0.4-0.1c0.2,0,0.3-0.1,0.4-0.1c0.1,0,0.1,0,0.2-0.1c0.1,0,0.1-0.1,0.2-0.1l-0.1,2.2h1.2c0,0,0-1.3,0.1-2
				c0-0.6,0.1-1,0.1-1.2c0-0.3-0.1-0.5-0.2-0.7C21.5,62.6,21.3,62.5,21,62.4z M28.4,62.4c-0.2-0.1-0.4-0.1-0.7-0.1
				c-0.1,0-0.3,0-0.4,0c-0.1,0-0.2,0.1-0.4,0.1c-0.1,0-0.2,0.1-0.3,0.2c-0.1,0.1-0.2,0.1-0.2,0.2c-0.1,0.1-0.1,0.1-0.2,0.2
				c-0.1-0.1-0.1-0.2-0.2-0.3c0-0.1-0.1-0.1-0.2-0.2c-0.1-0.1-0.1-0.1-0.2-0.1c-0.1,0-0.2-0.1-0.3-0.1c-0.1,0-0.2,0-0.4,0
				c-0.2,0-0.3,0-0.5,0.1c-0.2,0-0.3,0.1-0.4,0.2c-0.1,0.1-0.2,0.1-0.3,0.2c-0.1,0.1-0.2,0.2-0.2,0.3l0-0.7h-1.1l-0.2,4.2h1.2
				c0,0,0-0.8,0-1.5c0-0.6,0.1-1,0.1-1.2c0.1-0.2,0.2-0.4,0.3-0.5c0.1-0.1,0.3-0.2,0.5-0.2c0.1,0,0.2,0,0.3,0.1
				c0.1,0,0.1,0.1,0.2,0.2c0.1,0.1,0.1,0.2,0.1,0.2c0,0.1,0,0.2,0,0.3c0,0.2,0,0.7-0.1,1.3c0,0.7-0.1,1.1-0.1,1.3c0.3,0,0.9,0,1.2,0
				l0-1.1c0-0.4,0-0.7,0.1-1c0-0.3,0.1-0.4,0.1-0.6c0-0.1,0.1-0.3,0.2-0.4c0.1-0.1,0.2-0.2,0.3-0.2c0.1,0,0.2-0.1,0.3-0.1
				c0.1,0,0.2,0,0.3,0.1c0.1,0,0.2,0.1,0.2,0.2c0.1,0.1,0.1,0.2,0.1,0.4c0,0.2,0,0.4,0,0.6l0,0.9c0,0.4,0,0.8-0.1,1.1
				c0.2,0,1,0,1.2,0c0-0.3,0-0.8,0-1.3c0-0.6,0-1,0.1-1.2c0-0.3,0-0.4,0-0.6c0-0.2-0.1-0.5-0.2-0.6C28.8,62.6,28.6,62.5,28.4,62.4z
				 M32.8,62.4c-0.3-0.1-0.5-0.1-0.8-0.1c-0.3,0-0.5,0-0.8,0.1c-0.3,0-1,0.2-1,0.2L30,63.3c0,0,1.2-0.4,1.7-0.4c0.1,0,0.3,0,0.4,0
				c0.1,0,0.2,0.1,0.3,0.2c0.1,0.1,0.1,0.2,0.1,0.3c0,0.1,0,0.1,0,0.2c0,0.1-0.1,0.1-0.1,0.1c0,0-0.1,0.1-0.2,0.1
				c-0.1,0-0.2,0.1-0.3,0.1c-0.1,0-0.2,0.1-0.3,0.1c-0.4,0.1-0.7,0.2-0.9,0.3c-0.2,0.1-0.4,0.2-0.5,0.3c-0.1,0.1-0.2,0.2-0.3,0.3
				c-0.1,0.1-0.1,0.2-0.2,0.3c0,0.1-0.1,0.2-0.1,0.3c0,0.2,0.1,0.4,0.2,0.6c0.1,0.2,0.3,0.4,0.5,0.4c0.2,0.1,0.5,0.1,0.9,0.1
				c0.1,0,0.2,0,0.3,0c0.1,0,0.3,0,0.5-0.1c0.1-0.3,0.1-0.5,0.2-0.7C31.8,66,31.7,66,31.6,66c-0.1,0-0.2,0-0.3,0c-0.1,0-0.3,0-0.4,0
				c-0.1,0-0.2-0.1-0.3-0.2c-0.1-0.1-0.1-0.2-0.1-0.3c0-0.1,0-0.1,0-0.2c0-0.1,0.1-0.1,0.1-0.2c0.1-0.1,0.1-0.1,0.2-0.2
				c0.1,0,0.2-0.1,0.3-0.1c0.1,0,0.2-0.1,0.4-0.1c0.2,0,0.3-0.1,0.4-0.1c0.1,0,0.1,0,0.2-0.1c0.1,0,0.1-0.1,0.2-0.1l-0.1,2.2h1.2
				c0,0,0-1.3,0.1-2c0-0.6,0.1-1,0.1-1.2c0-0.3-0.1-0.5-0.2-0.7C33.3,62.6,33.1,62.5,32.8,62.4z M34.1,65.5c0,0.5,0,0.9,0,1.1
				c0.4,0,1.2,0,1.2,0s0-0.9,0.1-1.1C35,65.5,34.1,65.5,34.1,65.5z M37.2,63.5c0.1-0.1,0.3-0.2,0.4-0.3c0.2-0.1,0.3-0.1,0.5-0.1
				c0.3,0,0.7,0.1,1.1,0.2l-0.1-0.9c-0.3-0.1-0.5-0.1-0.7-0.1c-0.2,0-0.4,0-0.6,0c-0.3,0-0.6,0-0.9,0.1c-0.3,0.1-0.5,0.2-0.7,0.4
				c-0.2,0.2-0.4,0.5-0.5,0.8c-0.1,0.3-0.2,0.6-0.2,1c0,0.3,0,0.5,0.1,0.8c0.1,0.2,0.2,0.5,0.3,0.6c0.1,0.2,0.3,0.3,0.5,0.4
				c0.2,0.1,0.4,0.2,0.6,0.2c0.2,0,0.4,0.1,0.6,0.1c0.4,0,0.8,0,1.2-0.1c0-0.2,0.1-0.4,0.1-0.5c0-0.1,0-0.3,0.1-0.4
				c-0.2,0.1-0.4,0.1-0.6,0.2c-0.2,0-0.3,0-0.4,0c-0.3,0-0.5-0.1-0.7-0.2c-0.2-0.1-0.3-0.3-0.4-0.4c-0.1-0.2-0.1-0.4-0.1-0.7
				c0-0.2,0-0.4,0.1-0.5C37,63.8,37.1,63.7,37.2,63.5z M43.5,62.9c-0.2-0.2-0.4-0.3-0.7-0.4c-0.3-0.1-0.6-0.1-0.9-0.1
				c-0.3,0-0.7,0.1-1,0.2c-0.3,0.1-0.6,0.3-0.8,0.5c-0.2,0.2-0.4,0.5-0.5,0.7c-0.1,0.3-0.1,0.6-0.1,0.9c0,0.3,0.1,0.6,0.2,0.9
				c0.1,0.3,0.3,0.5,0.5,0.7c0.2,0.2,0.4,0.3,0.7,0.4c0.3,0.1,0.6,0.1,0.9,0.1c0.3,0,0.7-0.1,1-0.2c0.3-0.1,0.6-0.3,0.8-0.5
				c0.2-0.2,0.4-0.5,0.5-0.8c0.1-0.3,0.2-0.6,0.2-0.9c0-0.3-0.1-0.6-0.2-0.8C43.8,63.3,43.7,63.1,43.5,62.9z M42.8,65.2
				c-0.1,0.2-0.2,0.4-0.4,0.5c-0.2,0.1-0.4,0.2-0.6,0.2c-0.2,0-0.4-0.1-0.6-0.2c-0.2-0.1-0.3-0.3-0.4-0.5c-0.1-0.2-0.1-0.4-0.1-0.6
				c0-0.3,0-0.5,0.1-0.8c0.1-0.2,0.2-0.4,0.4-0.5c0.2-0.1,0.4-0.2,0.6-0.2c0.2,0,0.4,0.1,0.6,0.2c0.2,0.1,0.3,0.3,0.4,0.4
				c0.1,0.2,0.1,0.4,0.1,0.6C42.9,64.7,42.9,64.9,42.8,65.2z M50.8,62.8c-0.1-0.2-0.3-0.3-0.5-0.4c-0.2-0.1-0.4-0.1-0.7-0.1
				c-0.1,0-0.3,0-0.4,0c-0.1,0-0.2,0.1-0.4,0.1c-0.1,0-0.2,0.1-0.3,0.2c-0.1,0.1-0.2,0.1-0.2,0.2c-0.1,0.1-0.1,0.1-0.2,0.2
				c-0.1-0.1-0.1-0.2-0.2-0.3c0-0.1-0.1-0.1-0.2-0.2c-0.1-0.1-0.1-0.1-0.2-0.1c-0.1,0-0.2-0.1-0.3-0.1c-0.1,0-0.2,0-0.4,0
				c-0.2,0-0.3,0-0.5,0.1c-0.2,0-0.3,0.1-0.4,0.2c-0.1,0.1-0.2,0.1-0.3,0.2c-0.1,0.1-0.2,0.2-0.2,0.3l0-0.7c-0.2,0-0.9,0-1.1,0
				c0,0.5-0.1,3.7-0.2,4.2c0.3,0,0.9,0,1.2,0c0-0.4,0-0.8,0-1.5c0-0.6,0.1-1,0.1-1.2c0.1-0.2,0.2-0.4,0.3-0.5
				c0.1-0.1,0.3-0.2,0.5-0.2c0.1,0,0.2,0,0.3,0.1c0.1,0,0.1,0.1,0.2,0.2c0.1,0.1,0.1,0.2,0.1,0.2c0,0.1,0,0.2,0,0.3
				c0,0.2,0,0.7-0.1,1.3c0,0.7-0.1,1.1-0.1,1.3c0.3,0,0.9,0,1.2,0l0-1.1c0-0.4,0-0.7,0.1-1c0-0.3,0.1-0.4,0.1-0.6
				c0-0.1,0.1-0.3,0.2-0.4c0.1-0.1,0.2-0.2,0.3-0.2c0.1,0,0.2-0.1,0.3-0.1c0.1,0,0.2,0,0.3,0.1c0.1,0,0.2,0.1,0.2,0.2
				c0.1,0.1,0.1,0.2,0.1,0.4c0,0.2,0,0.4,0,0.6l0,0.9c0,0.4,0,0.8-0.1,1.1c0.2,0,1,0,1.2,0c0-0.3,0-0.8,0-1.3c0-0.6,0.1-1,0.1-1.2
				c0-0.3,0-0.4,0-0.6C51,63.2,51,63,50.8,62.8z"/>
		</g>
	</g>
	<g id="形状_2_copy_3_副本_5_13_">
		<g>
			<path fill-rule="evenodd" clip-rule="evenodd" fill="#FF6600" d="M5.1,49.2c1.7,0,3.5,0,5.2,0c0,2.6,0,5.3,0,7.7
				c0,0.2-0.2,0.4-0.4,0.4c-0.3,0-0.4,0-0.7,0v1.3c0.4,0,0.7,0,1.1,0c1,0,1.7-0.5,1.7-1.3c0-2,0-6,0-8.1h0.6V48H5.1V49.2z
				 M31.9,54.8c-0.5,0-1.2,0.5-1.2,1.2c1.5,0,3.9,0,5.6,0c0,0.3,0,0.6,0,1c0.6,0,0.3,0,0.9,0c0.3,0,0.8-0.3,0.8-0.8
				c0-1.3,0-2.4,0-3.7c-0.3,0-0.5,0-0.7,0c0-1,0-3.1,0-3.9c0-0.3-0.3-0.6-0.7-0.6H31v1.2h4.2c0,1.1,0,2.2,0,3.3c-1,0-1.2,0-2,0
				c-0.1,0-0.2-0.1-0.2-0.2c0-0.6,0-1.4,0-2.2c0-0.2-0.2-0.4-0.4-0.4h-1.2v2.9c0,0.6,0.5,1,1,1c0,0,2.2,0,3.9,0v1.1H31.9z M9.5,55.2
				c0-1.4,0-3.3,0-5.2H5.2v6.6c1.3,0,2.9,0,2.9,0C9.2,56.6,9.5,56,9.5,55.2z M7.7,55.4c-0.3,0-0.7,0-1.1,0v-4.2c0.5,0,1,0,1.5,0
				c0,1.3,0,2.7,0,3.8C8.1,55.2,7.9,55.4,7.7,55.4z M0.2,48.3c0,2.4,0,5.5,0,10.3h1.6c0-3,0-6.3,0-9.4c0.4,0,0.8,0,1.2,0
				c0,1.8,0,3.4,0,5.1c0,0.7-0.6,0.9-0.6,0.9v1.3c1.1,0,2.2-1.2,2.2-2.2c0-1.9,0-4.4,0-6.3c-1.5,0-2.6,0-4,0
				C0.2,48,0.2,48.3,0.2,48.3z M50.5,52.5c0-1,0-3.1,0-3.9c0-0.3-0.3-0.6-0.7-0.6h-5.5v1.2c1.4,0,2.8,0,4.2,0v3.3c-1,0-1.2,0-2,0
				c-0.1,0-0.2-0.1-0.2-0.2c0-0.6,0-1.4,0-2.2c0-0.2-0.2-0.4-0.4-0.4c-0.3,0-0.8,0-1.3,0v2.9c0,0.6,0.5,1,1,1c0,0,2.2,0,3.9,0v1.1
				h-4.3c-0.5,0-1.3,0.4-1.3,1.2c1.5,0,3.9,0,5.6,0v1.1c0,0.2-0.1,0.3-0.4,0.3h-0.6c0,0.5,0,0.8,0,1.2h1c0.3,0,0.2,0,0.5,0
				c0.8,0,1.2-0.6,1.2-1.1c0-1.5,0-3.5,0-5C51,52.6,50.7,52.6,50.5,52.5z M42.7,56.6c0.6-0.6,0.9-1.4,1-2.9c0-1.6,0-3.1,0-4.7
				c0-0.1-0.2-0.3-0.3-0.3c-0.6,0-1.4,0-2.1,0V48h-1.6c0,0.2,0,0.5,0,0.7c-0.2,0-0.4,0-0.5,0V50h0.5v3.8c0,1.5,0.5,2.2,1.1,2.9
				c-0.7,0.5-1.4,0.8-2.4,0.8c-0.1,0-0.3,0-0.4,0c-1.5,0-3.3,0-5,0c-1.5,0-3-0.3-3.5-0.9c0.5-0.7,0.8-1.3,1-2.7c0-1.5,0-2.7,0-4.6
				c0-0.2-0.2-0.4-0.4-0.4c-0.6,0-1.3,0-2.1,0V48c-0.7,0-0.9,0-1.6,0v0.7c-0.2,0-0.3,0-0.5,0V50c0.2,0,0.4,0,0.5,0
				c0,1.2,0,2.6,0,3.8c0.1,1.5,0.6,1.9,1.2,2.8c-0.8,0.6-1.8,0.8-3,0.9c-1.4,0-2.6,0-4.4,0c0-0.3,0-0.7,0-0.9h4.4v-1.3h-4.4
				c0-0.3,0-0.6,0-0.9c1.3,0,2.9,0,3.3,0c0,0,1.1,0,1.1-1.2c0-1.2,0-3.4,0-5.1c-3.5,0-7,0-10.4,0c-0.2,0-0.3,0.2-0.3,0.3
				c0,0.3,0,4.1,0,5.9c1.5,0,2.9,0,4.4,0v0.9h-4.4c0,0.4,0,0.9,0,1.3h4.4c0,0.3,0,0.6,0,0.9H13c0,0.4,0,0.8,0,1.2
				c3.8,0,8.6,0,12.3,0c1,0,2.3-0.5,3.1-1c1.1,0.9,2.4,1,4.4,1c0.6,0,1.3,0,2.1,0c1.1,0,2,0,2.9,0c1.7,0,2.8-0.4,3.9-1
				c1,0.6,1.9,1,3.4,1v0h2.3v-1.2h-2.3C44.2,57.3,43.3,57.2,42.7,56.6z M18.1,53.1h-2.7v-1.3h2.7V53.1z M18.1,50.5h-2.7v-1.3
				c0.9,0,1.8,0,2.7,0V50.5z M20.1,49.2h2.7v1.3h-2.7V49.2z M20.1,51.8c0.9,0,1.8,0,2.7,0c0,0.5,0,0.9,0,1.3h-2.7
				C20.1,52.7,20.1,52.2,20.1,51.8z M28.8,53.8c-0.1,0.8-0.2,1-0.4,1.6c-0.3-0.5-0.5-0.8-0.5-1.6c0-1.1,0-2.6,0-3.8h0.9V53.8z
				 M42.2,53.8c0,0.8-0.2,1.2-0.4,1.6c-0.3-0.4-0.5-0.9-0.5-1.6c0-1.2,0-2.6,0-3.8h0.9C42.2,51.2,42.2,52.6,42.2,53.8z"/>
		</g>
	</g>
</g>
<polyline fill="none" stroke="#000000" stroke-width="0.25" points="0.2,42.8 0.2,36.6 51.2,36.6 51.2,42.8 "/>
</svg>
