<?xml version="1.0" encoding="utf-8"?>
<!-- Generator: Adobe Illustrator 17.1.0, SVG Export Plug-In . SVG Version: 6.00 Build 0)  -->
<!DOCTYPE svg PUBLIC "-//W3C//DTD SVG 1.1//EN" "http://www.w3.org/Graphics/SVG/1.1/DTD/svg11.dtd">
<svg version="1.1" id="图层_1" xmlns="http://www.w3.org/2000/svg" xmlns:xlink="http://www.w3.org/1999/xlink" x="0px" y="0px"
	 viewBox="0 0 259.6 134.8" enable-background="new 0 0 259.6 134.8" xml:space="preserve">
<g>
	<g id="形状_2_copy_3_副本_4_53_">
		<g>
			<path fill-rule="evenodd" clip-rule="evenodd" fill="#CCCCCC" d="M43,84.8c-3.9,7.5-7.3,14.2-11.3,22.1h5.4c1-1.9,1.5-3,2.8-5.3
				c2.8,0,5,0,7.8,0c-0.6-1.6-1-2.9-1.5-4.2H42c1.3-2.5,2-3.9,3.9-7.4c2,5.8,4.1,11.6,6,16.9h4.9C54,99.2,51.6,92.5,49,84.8H43z
				 M58,106.9h4.7l1-22.2l-4.6,0L58,106.9z M65.4,106.9h4.9l0.6-16.5h-4.7L65.4,106.9z M66.4,84.8l-0.1,3.6c0,0,3.6,0,4.7,0l0.2-3.5
				C66.9,84.8,66.9,84.8,66.4,84.8z M96.6,90.5c-0.8-0.3-1.7-0.5-2.7-0.5c-0.6,0-1.1,0.1-1.6,0.2c-0.5,0.1-1,0.2-1.4,0.4
				c-0.4,0.2-0.8,0.4-1.1,0.7c-0.3,0.3-0.6,0.5-0.8,0.8c-0.2,0.3-0.4,0.6-0.7,1c-0.2-0.5-0.4-0.9-0.6-1.2c-0.2-0.3-0.4-0.5-0.7-0.7
				c-0.3-0.2-0.6-0.4-1-0.6c-0.4-0.2-0.8-0.3-1.2-0.4c-0.5-0.1-0.9-0.1-1.4-0.1c-0.7,0-1.3,0.1-1.9,0.2c-0.6,0.2-1.1,0.4-1.6,0.6
				c-0.5,0.3-0.8,0.6-1.1,0.9c-0.3,0.3-0.6,0.7-1,1.2l0.1-2.6h-4.4l-0.7,16.5c0,0,3.6,0,4.6,0c0-1.4,0.1-3.3,0.2-5.7
				c0.1-2.4,0.3-4,0.6-4.9c0.3-0.8,0.7-1.5,1.3-2c0.6-0.5,1.2-0.7,2-0.7c0.4,0,0.8,0.1,1.1,0.2c0.3,0.1,0.6,0.4,0.8,0.7
				c0.2,0.3,0.4,0.6,0.5,0.9c0.1,0.3,0.1,0.7,0.1,1.2c0,0.9-0.1,2.6-0.2,5.2c-0.1,2.6-0.2,4.3-0.3,5.1c1,0,3.7,0,4.6,0l0.1-4.5
				c0.1-1.6,0.1-2.9,0.2-3.9c0.1-1,0.2-1.8,0.4-2.3c0.2-0.6,0.4-1,0.8-1.4c0.3-0.4,0.7-0.7,1.1-0.9c0.4-0.2,0.8-0.3,1.3-0.3
				c0.5,0,0.9,0.1,1.3,0.3c0.4,0.2,0.7,0.5,0.9,0.8c0.2,0.4,0.4,1,0.4,1.8c0,0.7,0,1.4-0.1,2.4l-0.2,3.7c-0.1,1.5-0.2,3-0.3,4.4
				c1,0,3.8,0,4.6,0c0-1.2,0.1-3,0.2-5.3c0.1-2.3,0.2-3.9,0.3-4.9c0.1-1,0.1-1.8,0.1-2.3c0-1-0.2-1.8-0.7-2.5
				C98.1,91.3,97.4,90.8,96.6,90.5z M114.1,90.4c-1-0.3-2.1-0.4-3.3-0.4c-1.1,0-2.1,0.1-3.3,0.2c-1.1,0.1-3.9,0.7-3.9,0.7l-0.5,3.1
				c0,0,4.6-1.4,6.5-1.4c0.5,0,1,0.1,1.5,0.2c0.4,0.1,0.8,0.3,1.1,0.6c0.3,0.3,0.4,0.6,0.4,1.1c0,0.2,0,0.4-0.1,0.6
				c-0.1,0.2-0.2,0.4-0.4,0.6c-0.2,0.2-0.4,0.3-0.7,0.5c-0.3,0.1-0.6,0.2-1.1,0.4c-0.4,0.1-0.9,0.2-1.3,0.3c-1.6,0.3-2.8,0.7-3.7,1
				c-0.9,0.3-1.7,0.7-2.2,1c-0.5,0.4-0.9,0.7-1.2,1.1c-0.3,0.4-0.6,0.8-0.7,1.2c-0.2,0.5-0.2,0.9-0.2,1.4c0,0.8,0.2,1.6,0.6,2.4
				c0.4,0.8,1.1,1.4,1.9,1.8c0.9,0.4,2,0.6,3.4,0.6c0.4,0,0.8,0,1.3,0c0.5,0,1.1-0.1,1.8-0.2c0.3-1.2,0.6-2.1,0.8-2.8
				c-0.7,0.2-1.2,0.4-1.6,0.4c-0.4,0.1-0.8,0.1-1.1,0.1c-0.5,0-1-0.1-1.4-0.2c-0.4-0.1-0.7-0.4-1-0.7c-0.3-0.3-0.4-0.7-0.4-1.2
				c0-0.3,0.1-0.5,0.2-0.8c0.1-0.2,0.3-0.5,0.5-0.7c0.2-0.2,0.5-0.4,0.8-0.6c0.3-0.2,0.7-0.3,1.1-0.5c0.4-0.1,1-0.3,1.6-0.5
				c0.7-0.2,1.2-0.3,1.4-0.4c0.3-0.1,0.5-0.2,0.7-0.3c0.2-0.1,0.5-0.3,0.9-0.6l-0.6,8.6h4.6c0,0,0.1-5.3,0.3-7.8
				c0.2-2.5,0.3-4.1,0.3-4.7c0-1.1-0.3-2-0.8-2.6C115.9,91.2,115.1,90.7,114.1,90.4z M143.1,90.5c-0.8-0.3-1.7-0.5-2.7-0.5
				c-0.6,0-1.1,0.1-1.6,0.2c-0.5,0.1-1,0.2-1.4,0.4c-0.4,0.2-0.8,0.4-1.1,0.7c-0.3,0.3-0.6,0.5-0.8,0.8c-0.2,0.3-0.4,0.6-0.7,1
				c-0.2-0.5-0.4-0.9-0.6-1.2c-0.2-0.3-0.4-0.5-0.7-0.7c-0.3-0.2-0.6-0.4-1-0.6c-0.4-0.2-0.8-0.3-1.2-0.4c-0.5-0.1-0.9-0.1-1.4-0.1
				c-0.7,0-1.3,0.1-1.9,0.2c-0.6,0.2-1.1,0.4-1.6,0.6c-0.5,0.3-0.8,0.6-1.1,0.9c-0.3,0.3-0.6,0.7-0.9,1.2l0.1-2.6h-4.4l-0.7,16.5
				h4.6c0,0,0.1-3.3,0.2-5.7c0.1-2.4,0.3-4,0.6-4.9c0.3-0.8,0.7-1.5,1.3-2c0.6-0.5,1.2-0.7,2-0.7c0.4,0,0.8,0.1,1.1,0.2
				c0.3,0.1,0.6,0.4,0.8,0.7c0.2,0.3,0.4,0.6,0.5,0.9c0.1,0.3,0.1,0.7,0.1,1.2c0,0.9-0.1,2.6-0.2,5.2c-0.1,2.6-0.2,4.3-0.3,5.1
				c1,0,3.7,0,4.6,0l0.1-4.5c0.1-1.6,0.1-2.9,0.2-3.9c0.1-1,0.2-1.8,0.4-2.3c0.2-0.6,0.4-1,0.8-1.4c0.3-0.4,0.7-0.7,1.1-0.9
				c0.4-0.2,0.8-0.3,1.3-0.3c0.5,0,0.9,0.1,1.3,0.3c0.4,0.2,0.7,0.5,0.9,0.8c0.2,0.4,0.4,1,0.4,1.8c0,0.7,0,1.4-0.1,2.4l-0.2,3.7
				c-0.1,1.5-0.2,3-0.3,4.4c1,0,3.8,0,4.6,0c0-1.2,0.1-3,0.2-5.3c0.1-2.3,0.2-3.9,0.3-4.9c0.1-1,0.1-1.8,0.1-2.3
				c0-1-0.2-1.8-0.7-2.5C144.6,91.3,144,90.8,143.1,90.5z M160.7,90.4c-1-0.3-2.1-0.4-3.3-0.4c-1.1,0-2.1,0.1-3.3,0.2
				c-1.1,0.1-3.9,0.7-3.9,0.7l-0.5,3.1c0,0,4.6-1.4,6.5-1.4c0.5,0,1,0.1,1.5,0.2c0.4,0.1,0.8,0.3,1.1,0.6c0.3,0.3,0.4,0.6,0.4,1.1
				c0,0.2,0,0.4-0.1,0.6c-0.1,0.2-0.2,0.4-0.4,0.6c-0.2,0.2-0.4,0.3-0.7,0.5c-0.3,0.1-0.6,0.2-1.1,0.4c-0.4,0.1-0.9,0.2-1.3,0.3
				c-1.6,0.3-2.8,0.7-3.7,1c-0.9,0.3-1.7,0.7-2.2,1c-0.5,0.4-0.9,0.7-1.2,1.1c-0.3,0.4-0.6,0.8-0.7,1.2c-0.2,0.5-0.2,0.9-0.2,1.4
				c0,0.8,0.2,1.6,0.6,2.4c0.4,0.8,1.1,1.4,1.9,1.8c0.9,0.4,2,0.6,3.4,0.6c0.4,0,0.8,0,1.3,0c0.5,0,1.1-0.1,1.8-0.2
				c0.3-1.2,0.6-2.1,0.8-2.8c-0.6,0.2-1.2,0.4-1.6,0.4c-0.4,0.1-0.7,0.1-1.1,0.1c-0.5,0-1-0.1-1.4-0.2c-0.4-0.1-0.7-0.4-1-0.7
				c-0.3-0.3-0.4-0.7-0.4-1.2c0-0.3,0.1-0.5,0.2-0.8c0.1-0.2,0.3-0.5,0.5-0.7c0.2-0.2,0.5-0.4,0.8-0.6c0.3-0.2,0.7-0.3,1.1-0.5
				c0.4-0.1,1-0.3,1.6-0.5c0.7-0.2,1.2-0.3,1.4-0.4c0.3-0.1,0.5-0.2,0.7-0.3c0.2-0.1,0.5-0.3,0.9-0.6l-0.6,8.6h4.6
				c0,0,0.1-5.3,0.3-7.8c0.2-2.5,0.3-4.1,0.3-4.7c0-1.1-0.3-2-0.8-2.6C162.5,91.2,161.7,90.7,160.7,90.4z M165.9,102.6
				c-0.1,2.1-0.1,3.6-0.2,4.4c1.5,0,4.6,0,4.6,0s0.2-3.6,0.2-4.4C169.3,102.6,165.9,102.6,165.9,102.6z M178,94.9
				c0.5-0.5,1-0.9,1.7-1.2c0.7-0.2,1.4-0.4,2.1-0.4c1.2,0,2.6,0.3,4.2,0.8l-0.2-3.6c-1-0.2-1.9-0.4-2.7-0.5
				c-0.7-0.1-1.5-0.1-2.2-0.1c-1.3,0-2.4,0.1-3.5,0.4c-1,0.3-2,0.8-2.8,1.6c-0.8,0.8-1.5,1.8-1.9,3.1c-0.4,1.3-0.7,2.6-0.7,3.9
				c0,1,0.1,2,0.4,3c0.3,1,0.7,1.8,1.2,2.5c0.5,0.7,1.1,1.2,1.8,1.6c0.7,0.4,1.5,0.7,2.3,0.9c0.8,0.2,1.7,0.2,2.5,0.2
				c1.5,0,3-0.2,4.6-0.5c0.1-0.8,0.2-1.5,0.3-2.1c0.1-0.6,0.2-1.1,0.2-1.5c-0.8,0.3-1.5,0.5-2.2,0.6c-0.7,0.1-1.3,0.2-1.8,0.2
				c-1,0-1.9-0.2-2.7-0.6c-0.8-0.4-1.3-1-1.6-1.7c-0.3-0.8-0.5-1.6-0.5-2.7c0-0.7,0.1-1.5,0.3-2.2C177.1,96.1,177.5,95.4,178,94.9z
				 M202.8,92.2c-0.8-0.7-1.8-1.3-2.9-1.7c-1.1-0.4-2.3-0.6-3.6-0.6c-1.3,0-2.6,0.2-3.9,0.7c-1.3,0.5-2.3,1.1-3.1,2
				c-0.8,0.8-1.4,1.8-1.8,2.9c-0.4,1.1-0.6,2.2-0.6,3.4c0,1.2,0.2,2.3,0.6,3.4c0.4,1.1,1,2,1.8,2.7c0.8,0.7,1.8,1.3,2.9,1.7
				c1.1,0.4,2.3,0.6,3.6,0.6c1.4,0,2.6-0.2,3.8-0.6c1.2-0.4,2.2-1,3-1.9c0.8-0.8,1.4-1.8,1.8-3c0.4-1.1,0.6-2.3,0.6-3.6
				c0-1.2-0.2-2.3-0.6-3.3C204.1,93.9,203.5,93,202.8,92.2z M200,101.3c-0.4,0.9-0.9,1.6-1.6,2.1c-0.7,0.5-1.6,0.7-2.5,0.7
				c-0.9,0-1.7-0.2-2.4-0.7c-0.7-0.5-1.2-1.1-1.5-1.8c-0.3-0.7-0.4-1.6-0.4-2.5c0-1.1,0.2-2.1,0.5-3c0.4-0.9,0.9-1.6,1.7-2.1
				c0.7-0.5,1.6-0.7,2.5-0.7c1,0,1.8,0.2,2.4,0.7c0.7,0.4,1.1,1,1.4,1.8c0.3,0.7,0.4,1.6,0.4,2.5C200.5,99.4,200.3,100.4,200,101.3z
				 M231.9,91.9c-0.5-0.7-1.1-1.2-2-1.5c-0.8-0.3-1.7-0.5-2.7-0.5c-0.6,0-1.1,0.1-1.6,0.2c-0.5,0.1-1,0.2-1.4,0.4
				c-0.4,0.2-0.8,0.4-1.1,0.7c-0.3,0.3-0.6,0.5-0.8,0.8c-0.2,0.3-0.4,0.6-0.7,1c-0.2-0.5-0.4-0.9-0.6-1.2c-0.2-0.3-0.4-0.5-0.7-0.7
				c-0.3-0.2-0.6-0.4-1-0.6c-0.4-0.2-0.8-0.3-1.2-0.4c-0.5-0.1-0.9-0.1-1.4-0.1c-0.6,0-1.3,0.1-1.9,0.2c-0.6,0.2-1.1,0.4-1.6,0.6
				c-0.5,0.3-0.8,0.6-1.1,0.9c-0.3,0.3-0.6,0.7-1,1.2l0.1-2.6c-0.8,0-3.5,0-4.4,0c0,1.8-0.6,14.7-0.7,16.5c1,0,3.6,0,4.6,0
				c0-1.4,0.1-3.3,0.2-5.7c0.1-2.4,0.3-4,0.6-4.9c0.3-0.8,0.7-1.5,1.3-2c0.6-0.5,1.2-0.7,2-0.7c0.4,0,0.8,0.1,1.1,0.2
				c0.3,0.1,0.6,0.4,0.8,0.7c0.2,0.3,0.4,0.6,0.5,0.9c0.1,0.3,0.1,0.7,0.1,1.2c0,0.9-0.1,2.6-0.2,5.2c-0.1,2.6-0.2,4.3-0.3,5.1
				c1,0,3.7,0,4.6,0l0.1-4.5c0.1-1.6,0.1-2.9,0.2-3.9c0.1-1,0.2-1.8,0.4-2.3c0.2-0.6,0.4-1,0.8-1.4c0.3-0.4,0.7-0.7,1.1-0.9
				c0.4-0.2,0.8-0.3,1.3-0.3c0.5,0,0.9,0.1,1.3,0.3c0.4,0.2,0.7,0.5,0.9,0.8c0.2,0.4,0.4,1,0.4,1.8c0,0.7,0,1.4-0.1,2.4l-0.2,3.7
				c-0.1,1.5-0.2,3-0.3,4.4c1,0,3.8,0,4.6,0c0-1.2,0.1-3,0.2-5.3c0.1-2.3,0.2-3.9,0.3-4.9c0.1-1,0.1-1.8,0.1-2.3
				C232.6,93.4,232.4,92.6,231.9,91.9z"/>
		</g>
	</g>
	<g>
		<path fill="#FF6600" d="M31.6,77.9V31.6h16V37l-3.6,13c3,3.5,4.4,7.3,4.3,11.3c0.3,5.4-1.8,8.2-6.1,8.5c-1.2,0.3-2.4,0.4-3.4,0.4
			c-0.4-2.2-0.9-4.1-1.4-5.9v13.6H31.6z M37.2,37V64c0.7,0.1,1.6,0.2,2.6,0.2c2,0,3-1.4,2.8-4.3c-0.1-2.8-1.5-5.9-4-9.3L41.9,37
			H37.2z M49.4,38.1v-5.7h29.4v5.7h-3.4v31c0.3,5.4-2.2,8.1-7.3,8.1c-2.4,0.1-5.3,0.2-8.7,0.2c0-0.3-0.1-0.7-0.2-1.4
			c-0.4-1.9-0.7-3.3-1-4.3c1.6,0.1,4,0.2,7.1,0.2c3.1,0.1,4.6-1.3,4.5-4.3V38.1H49.4z M50.4,66V43.1h15V66H50.4z M55.5,48.4v12.3
			h5.1V48.4H55.5z"/>
		<path fill="#FF6600" d="M84.2,66.6v-5.1h18.4v-4.5H85.4V31.6h40.9v25.5h-17.4v4.5h18.4v5.1h-18.4v4.5H130v4.9H81.6v-4.9h21.1v-4.5
			H84.2z M91.5,36.6v5.5h11.1v-5.5H91.5z M91.5,46.8V52h11.1v-5.3H91.5z M120.3,36.6h-11.3v5.5h11.3V36.6z M108.9,46.8V52h11.3v-5.3
			H108.9z"/>
		<path fill="#FF6600" d="M150.6,75.1c-0.9-0.9-2.2-2.2-3.8-3.6c-0.9-0.9-1.6-1.6-2-2c-2,2.7-4.8,5.5-8.3,8.5
			c-1.2-1.4-2.4-2.8-3.6-4.5c3.5-2.6,6.2-5.3,8.1-8.1l-6.7-6.5c1.1-5,2-9.9,2.8-14.6h-3.6v-5.5h4.5c0.4-3.1,0.7-6.2,1-9.3l5.7,0.4
			l-1.2,8.9h8.7v4.9c-0.5,9.2-2,16.1-4.3,20.7c0.8,0.7,2,1.8,3.4,3.2c1.5,1.5,2.6,2.6,3.4,3.2L150.6,75.1z M146.8,44.3h-4.5
			c-0.8,4.6-1.7,8.8-2.6,12.8c0.4,0.4,1,1,1.8,1.8c0.9,0.7,1.6,1.2,2,1.6C145.2,56.5,146.2,51.1,146.8,44.3z M152.6,66.8v-5.3h19.2
			v5.3H152.6z M163.2,77.3c-0.1-1.6-0.5-3.4-1.2-5.5c2.2,0.1,4.9,0.2,8.1,0.2c2.6,0,3.9-1.2,4-3.6c0.1-2.6,0.3-6.5,0.6-11.9h-20
			l1.8-17h5.9L161.2,51h9.1l1.2-13.8h-17.4v-5.5H178L176.1,51h4.7c-0.1,2.6-0.3,6.5-0.4,11.7c-0.3,3.1-0.4,5.3-0.4,6.7
			c0.1,5.3-2.8,7.9-8.9,7.9C168.8,77.3,166.1,77.3,163.2,77.3z"/>
		<path fill="#FF6600" d="M202.5,75.1c-0.9-0.9-2.2-2.2-3.8-3.6c-0.9-0.9-1.6-1.6-2-2c-2,2.7-4.8,5.5-8.3,8.5
			c-1.2-1.4-2.4-2.8-3.6-4.5c3.5-2.6,6.2-5.3,8.1-8.1l-6.7-6.5c1.1-5,2-9.9,2.8-14.6h-3.6v-5.5h4.5c0.4-3.1,0.7-6.2,1-9.3l5.7,0.4
			l-1.2,8.9h8.7v4.9c-0.5,9.2-2,16.1-4.3,20.7c0.8,0.7,2,1.8,3.4,3.2c1.5,1.5,2.6,2.6,3.4,3.2L202.5,75.1z M198.6,44.3h-4.5
			c-0.8,4.6-1.7,8.8-2.6,12.8c0.4,0.4,1,1,1.8,1.8c0.9,0.7,1.6,1.2,2,1.6C197,56.5,198.1,51.1,198.6,44.3z M204.5,66.8v-5.3h19.2
			v5.3H204.5z M215,77.3c-0.1-1.6-0.5-3.4-1.2-5.5c2.2,0.1,4.9,0.2,8.1,0.2c2.6,0,3.9-1.2,4-3.6c0.1-2.6,0.3-6.5,0.6-11.9h-20
			l1.8-17h5.9L213,51h9.1l1.2-13.8h-17.4v-5.5h23.9L228,51h4.7c-0.1,2.6-0.3,6.5-0.4,11.7c-0.3,3.1-0.4,5.3-0.4,6.7
			c0.1,5.3-2.8,7.9-8.9,7.9C220.6,77.3,218,77.3,215,77.3z"/>
	</g>
</g>
<rect x="1.7" y="1.3" fill="none" stroke="#CCCCCC" width="257.3" height="132.7"/>
<line fill="none" stroke="#CCCCCC" x1="2.5" y1="1.9" x2="259" y2="134.1"/>
</svg>
