<?xml version="1.0" encoding="utf-8"?>
<!-- Generator: Adobe Illustrator 17.1.0, SVG Export Plug-In . SVG Version: 6.00 Build 0)  -->
<!DOCTYPE svg PUBLIC "-//W3C//DTD SVG 1.1//EN" "http://www.w3.org/Graphics/SVG/1.1/DTD/svg11.dtd">
<svg version="1.1" id="图层_1" xmlns="http://www.w3.org/2000/svg" xmlns:xlink="http://www.w3.org/1999/xlink" x="0px" y="0px"
	 viewBox="0 383.6 1000 232.5" enable-background="new 0 383.6 1000 232.5" xml:space="preserve">
<g>
	<g id="形状_2_copy_3_副本_4_48_">
		<g>
			<path fill="#CCCCCC" d="M539.8,493.2c-7.8,15.5-14.9,29.1-23.1,45.4h11c2-3.8,3.2-6.2,5.6-10.8c5.8,0,10.2,0,15.9,0
				c-1.2-3.4-2-5.8-3-8.6h-8.8c2.6-5.2,4-8,8-15.1c4,11.9,8.2,23.7,12.3,34.6h10c-5.6-15.9-10.6-29.7-15.9-45.4
				C551.8,493.2,539.8,493.2,539.8,493.2z M570.5,538.6h9.6l2-45.4h-9.4L570.5,538.6z M585.6,538.6h10l1.2-33.9h-9.6L585.6,538.6z
				 M587.6,493.2l-0.2,7.2c0,0,7.4,0,9.6,0l0.4-7.2C588.8,493.2,588.6,493.2,587.6,493.2z M649.5,504.8c-1.8-0.6-3.6-1-5.4-1
				c-1.2,0-2.2,0.2-3.2,0.4c-1,0.2-2,0.4-2.8,0.8s-1.6,0.8-2.2,1.4c-0.6,0.6-1.2,1-1.6,1.6c-0.4,0.6-0.8,1.2-1.4,2
				c-0.4-1-0.8-1.8-1.2-2.4c-0.4-0.6-0.8-1-1.4-1.4s-1.2-0.8-2-1.2s-1.6-0.6-2.6-0.8c-1-0.2-1.8-0.2-2.8-0.2c-1.4,0-2.6,0.2-3.8,0.4
				c-1.2,0.4-2.4,0.8-3.2,1.4c-1,0.6-1.6,1.2-2.2,1.8c-0.6,0.6-1.2,1.4-2,2.6l0.2-5.4h-9l-1.4,33.9c0,0,7.4,0,9.4,0
				c0-2.8,0.2-6.8,0.4-11.9c0.2-5,0.6-8.2,1.2-10c0.6-1.6,1.4-3,2.6-4c1.2-1,2.6-1.6,4-1.6c0.8,0,1.6,0.2,2.2,0.4
				c0.6,0.2,1.2,0.8,1.6,1.4c0.4,0.6,0.8,1.2,1,2c0.2,0.6,0.2,1.4,0.2,2.4c0,1.8-0.2,5.4-0.4,10.6c-0.2,5.2-0.6,8.8-0.6,10.4
				c2,0,7.6,0,9.4,0l0.2-9.2c0.2-3.2,0.2-6,0.4-8c0.2-2,0.4-3.6,0.8-4.8c0.4-1.2,1-2.2,1.6-3c0.6-0.8,1.4-1.4,2.2-1.8
				c0.8-0.4,1.8-0.6,2.8-0.6c1,0,1.8,0.2,2.6,0.6c0.8,0.4,1.4,1,1.8,1.8c0.4,0.8,0.8,2,0.8,3.6c0,1.4,0,3-0.2,4.8l-0.4,7.6
				c-0.2,3.2-0.4,6.2-0.6,9c2,0,7.8,0,9.4,0c0-2.6,0.2-6.2,0.4-10.8c0.2-4.6,0.4-8,0.6-10c0.2-2,0.2-3.6,0.2-4.6c0-2-0.4-3.6-1.4-5
				C652.7,506.4,651.3,505.4,649.5,504.8z M685.4,504.8c-2-0.6-4.2-0.8-6.8-0.8c-2.2,0-4.4,0.2-6.6,0.4c-2.2,0.2-8,1.4-8,1.4l-1,6.2
				c0,0,9.4-2.8,13.5-2.8c1,0,2,0.2,3,0.4c0.8,0.2,1.6,0.6,2.2,1.2s0.8,1.4,0.8,2.2c0,0.4,0,0.8-0.2,1.2c-0.2,0.4-0.4,0.8-0.8,1.2
				c-0.4,0.4-0.8,0.8-1.4,1c-0.6,0.2-1.2,0.4-2.2,0.8c-1,0.2-1.8,0.4-2.6,0.6c-3.2,0.6-5.8,1.4-7.6,2c-2,0.6-3.4,1.4-4.4,2
				c-1,0.8-1.8,1.4-2.4,2.2c-0.6,0.8-1.2,1.6-1.4,2.6c-0.4,1-0.4,1.8-0.4,2.8c0,1.6,0.4,3.4,1.2,5c0.8,1.6,2.2,2.8,4,3.6
				c1.8,0.8,4,1.2,6.8,1.2c0.8,0,1.6,0,2.6,0s2.2-0.2,3.8-0.4c0.6-2.4,1.2-4.4,1.6-5.6c-1.4,0.4-2.4,0.8-3.2,0.8
				c-0.8,0.2-1.6,0.2-2.2,0.2c-1.2,0-2-0.2-2.8-0.4c-0.8-0.2-1.4-0.8-2-1.4c-0.6-0.6-0.8-1.4-0.8-2.4c0-0.6,0.2-1.2,0.4-1.6
				c0.2-0.4,0.6-1,1-1.4c0.4-0.4,1-0.8,1.8-1.2c0.6-0.4,1.4-0.6,2.2-1c0.8-0.2,2-0.6,3.4-1c1.4-0.4,2.4-0.6,3-0.8
				c0.6-0.2,1-0.4,1.4-0.6c0.4-0.2,1-0.6,2-1.2L682,539h9.4c0,0,0.2-10.8,0.6-16.1c0.4-5.2,0.6-8.4,0.6-9.6c0-2.4-0.6-4.2-1.8-5.4
				C689.2,506.2,687.6,505.2,685.4,504.8z M745.1,504.8c-1.8-0.6-3.6-1-5.4-1c-1.2,0-2.2,0.2-3.2,0.4c-1,0.2-2,0.4-2.8,0.8
				s-1.6,0.8-2.2,1.4s-1.2,1-1.6,1.6c-0.4,0.6-0.8,1.2-1.4,2c-0.4-1-0.8-1.8-1.2-2.4c-0.4-0.6-0.8-1-1.4-1.4c-0.6-0.4-1.2-0.8-2-1.2
				s-1.6-0.6-2.6-0.8c-1-0.2-1.8-0.2-2.8-0.2c-1.4,0-2.6,0.2-3.8,0.4c-1.2,0.4-2.4,0.8-3.2,1.4c-1,0.6-1.6,1.2-2.2,1.8
				c-0.6,0.6-1.2,1.4-2,2.6l0.2-5.4h-9l-1.4,33.9h9.4c0,0,0.2-6.8,0.4-11.9c0.2-5,0.6-8.2,1.2-10c0.6-1.6,1.4-3,2.6-4
				c1.2-1,2.6-1.6,4-1.6c0.8,0,1.6,0.2,2.2,0.4c0.6,0.2,1.2,0.8,1.6,1.4c0.4,0.6,0.8,1.2,1,2c0.2,0.6,0.2,1.4,0.2,2.4
				c0,1.8-0.2,5.4-0.4,10.6c-0.2,5.2-0.6,8.8-0.6,10.4c2,0,7.6,0,9.4,0l0.2-9.2c0.2-3.2,0.2-6,0.4-8c0.2-2,0.4-3.6,0.8-4.8
				c0.4-1.2,1-2.2,1.6-3c0.6-0.8,1.4-1.4,2.2-1.8c0.8-0.4,1.8-0.6,2.8-0.6c1,0,1.8,0.2,2.6,0.6c0.8,0.4,1.4,1,1.8,1.8
				c0.4,0.8,0.8,2,0.8,3.6c0,1.4,0,3-0.2,4.8l-0.4,7.6c-0.2,3.2-0.4,6.2-0.6,9c2,0,7.8,0,9.4,0c0-2.6,0.2-6.2,0.4-10.8
				c0.2-4.6,0.4-8,0.6-10c0.2-2,0.2-3.6,0.2-4.6c0-2-0.4-3.6-1.4-5C748.1,506.4,746.7,505.4,745.1,504.8z M781,504.8
				c-2-0.6-4.2-0.8-6.8-0.8c-2.2,0-4.4,0.2-6.6,0.4c-2.4,0.2-8,1.4-8,1.4l-1,6.2c0,0,9.4-2.8,13.5-2.8c1,0,2,0.2,3,0.4
				c1,0.2,1.6,0.6,2.2,1.2s0.8,1.4,0.8,2.2c0,0.4,0,0.8-0.2,1.2c-0.2,0.4-0.4,0.8-0.8,1.2c-0.4,0.4-0.8,0.8-1.4,1
				c-0.6,0.2-1.2,0.4-2.2,0.8c-1,0.2-1.8,0.4-2.6,0.6c-3.2,0.6-5.8,1.4-7.6,2c-2,0.6-3.4,1.4-4.4,2c-1,0.8-1.8,1.4-2.4,2.2
				c-0.6,0.8-1.2,1.6-1.4,2.6c-0.4,1-0.6,1.8-0.6,2.8c0,1.6,0.4,3.4,1.2,5c0.8,1.6,2.2,2.8,4,3.6c1.8,0.8,4,1.2,6.8,1.2
				c0.8,0,1.6,0,2.6,0c1,0,2.2-0.2,3.8-0.4c0.6-2.4,1.2-4.4,1.6-5.6c-1.4,0.4-2.4,0.8-3.2,0.8c-0.8,0.2-1.6,0.2-2.2,0.2
				c-1.2,0-2-0.2-2.8-0.4c-0.8-0.2-1.6-0.8-2-1.4c-0.6-0.6-0.8-1.4-0.8-2.4c0-0.6,0.2-1.2,0.4-1.6c0.2-0.4,0.6-1,1-1.4
				c0.4-0.4,1-0.8,1.8-1.2c0.6-0.4,1.4-0.6,2.2-1c0.8-0.2,2-0.6,3.4-1c1.4-0.4,2.4-0.6,3-0.8c0.6-0.2,1-0.4,1.4-0.6
				c0.4-0.2,1-0.6,2-1.2l-1.2,17.7h9.4c0,0,0.2-10.8,0.6-16.1c0.4-5.2,0.6-8.4,0.6-9.6c0-2.4-0.6-4.2-1.8-5.4
				C784.7,506.2,783,505.2,781,504.8z M791.7,529.5c-0.2,4.4-0.2,7.4-0.4,9c3.2,0,9.4,0,9.4,0s0.4-7.4,0.4-9
				C798.7,529.7,791.7,529.5,791.7,529.5z M816.4,513.9c1-1,2.2-1.8,3.4-2.4c1.4-0.6,2.8-0.8,4.2-0.8c2.4,0,5.4,0.6,8.6,1.6
				l-0.4-7.2c-2-0.6-3.8-0.8-5.4-1c-1.6-0.2-3-0.2-4.4-0.2c-2.6,0-5,0.2-7,0.8c-2.2,0.6-4,1.6-5.8,3.4c-1.8,1.6-3,3.8-4,6.2
				c-1,2.6-1.4,5.2-1.4,8c0,2,0.2,4.2,0.8,6.2c0.6,2,1.4,3.6,2.4,5c1,1.4,2.4,2.6,3.8,3.4c1.4,0.8,3,1.4,4.6,1.8s3.4,0.4,5.2,0.4
				c3,0,6.2-0.4,9.4-1c0.2-1.6,0.4-3.2,0.8-4.2c0.2-1.2,0.4-2.2,0.4-3c-1.6,0.6-3.2,1-4.6,1.2c-1.4,0.2-2.6,0.4-3.6,0.4
				c-2,0-3.8-0.4-5.4-1.2c-1.6-0.8-2.8-2-3.4-3.6c-0.6-1.6-1-3.4-1-5.4c0-1.6,0.2-3,0.6-4.4C814.8,516.3,815.6,515.1,816.4,513.9z
				 M867.4,508.4c-1.6-1.4-3.6-2.6-6-3.4c-2.4-0.8-4.8-1.2-7.4-1.2c-2.8,0-5.4,0.4-8,1.4c-2.6,1-4.6,2.2-6.4,4
				c-1.6,1.8-2.8,3.6-3.6,6c-0.8,2.2-1.2,4.6-1.2,7s0.4,4.6,1.2,6.8s2.2,4,3.8,5.6c1.6,1.6,3.6,2.6,6,3.4c2.4,0.8,4.8,1.2,7.4,1.2
				c2.8,0,5.4-0.4,7.8-1.2c2.4-0.8,4.4-2.2,6.2-3.8c1.6-1.8,2.8-3.8,3.8-6c0.8-2.4,1.2-4.8,1.2-7.2c0-2.4-0.4-4.6-1.2-6.8
				C870.2,511.9,869,509.8,867.4,508.4z M861.6,526.9c-0.8,1.8-1.8,3.2-3.4,4.2c-1.4,1-3.2,1.4-5.2,1.4c-1.8,0-3.6-0.4-5-1.4
				c-1.4-1-2.4-2.2-3-3.6c-0.6-1.6-1-3.2-1-5.2c0-2.2,0.4-4.2,1.2-6c0.8-1.8,1.8-3.2,3.4-4.2c1.6-1,3.2-1.4,5.2-1.4s3.6,0.4,5,1.4
				c1.4,1,2.4,2.2,2.8,3.6c0.6,1.6,0.8,3.2,0.8,5C862.8,523.1,862.4,525.1,861.6,526.9z M927.1,507.8c-1-1.4-2.4-2.4-4-3
				c-1.8-0.6-3.6-1-5.4-1c-1.2,0-2.2,0.2-3.2,0.4c-1,0.2-2,0.4-2.8,0.8s-1.6,0.8-2.2,1.4c-0.6,0.6-1.2,1-1.6,1.6
				c-0.4,0.6-0.8,1.2-1.4,2c-0.4-1-0.8-1.8-1.2-2.4c-0.4-0.6-0.8-1-1.4-1.4s-1.2-0.8-2-1.2s-1.6-0.6-2.6-0.8c-1-0.2-1.8-0.2-2.8-0.2
				c-1.4,0-2.6,0.2-3.8,0.4c-1.2,0.4-2.4,0.8-3.2,1.4c-1,0.6-1.6,1.2-2.2,1.8c-0.6,0.6-1.2,1.4-2,2.6l0.2-5.4c-1.6,0-7,0-9,0
				c0,3.8-1.2,30.1-1.4,33.9c2,0,7.4,0,9.4,0c0-2.8,0.2-6.8,0.4-11.9c0.2-5,0.6-8.2,1.2-10c0.6-1.6,1.4-3,2.6-4c1.2-1,2.6-1.6,4-1.6
				c0.8,0,1.6,0.2,2.2,0.4c0.6,0.2,1.2,0.8,1.6,1.4c0.4,0.6,0.8,1.2,1,2c0.2,0.6,0.2,1.4,0.2,2.4c0,1.8-0.2,5.4-0.4,10.6
				c-0.2,5.2-0.6,8.8-0.6,10.4c2,0,7.6,0,9.4,0l0.2-9.2c0.2-3.2,0.2-6,0.4-8c0.2-2,0.4-3.6,0.8-4.8c0.4-1.2,1-2.2,1.6-3
				c0.6-0.8,1.4-1.4,2.2-1.8c0.8-0.4,1.8-0.6,2.8-0.6c1,0,1.8,0.2,2.6,0.6c0.8,0.4,1.4,1,1.8,1.8c0.6,0.8,0.8,2,0.8,3.6
				c0,1.4,0,3-0.2,4.8l-0.4,7.6c-0.2,3.2-0.4,6.2-0.6,9c2,0,7.8,0,9.4,0c0-2.6,0.2-6.2,0.4-10.8c0.2-4.6,0.4-8,0.6-10
				c0.2-2,0.2-3.6,0.2-4.6C928.5,510.8,928.1,509.2,927.1,507.8z"/>
		</g>
	</g>
	<g id="形状_2_copy_3_副本_5_48_">
		<g>
			<path fill="#FF6600" d="M120.5,464.8c14.3,0,28.3,0,42.4,0c0,21.1,0,43,0,62.7c0,1.2-1.6,3-3.2,3.2c-2.2,0-3.2,0-6,0V541
				c3.2,0,6,0,9.2,0c8.2,0,13.7-4,13.7-10.8c0-16.3,0-48.6,0-65.3h4.8V455h-60.9V464.8z M372.8,528.1c4.6,0,2.8,0,7.4,0
				c2.6,0,6.2-2.2,6.2-6.4c0-10.8,0-19.1,0-30.1c-2,0-4.2,0-6,0c0-8.2,0-25.3,0-31.3c0-2.4-2.4-5.2-5.6-5.2h-44.4v9.8h34.4
				c0,8.8,0,17.9,0,26.7c-8.2,0-9.4,0-16.5,0c-1,0-2-1-2-1.8c0-4.4,0-11.7,0-17.7c0-1.4-1.4-3-3.6-3h-10v23.7c0,4.6,4,8.4,8.4,8.4
				c0,0,17.5,0,31.9,0v8.8h-35.6c-3.8,0-9.8,3.6-9.8,9.8c12.3,0,31.9-0.2,45.2-0.2C372.8,522.3,372.8,524.9,372.8,528.1z
				 M156.5,513.3c0-11.2,0-26.9,0-42.4h-35.4v53.8c10.4,0,23.5,0,23.5,0C153.5,524.7,156.5,519.7,156.5,513.3z M141.6,514.9
				c-2.6,0-5.2,0-9,0v-33.7c3.8,0,8.2,0,12.1,0c0,10.2,0,21.5,0,30.5C144.6,513.5,143.4,514.9,141.6,514.9z M80.8,457.6
				c0,19.3,0,44.6,0,83.4h13.1c0-24.3,0-50.8,0-76.1c3,0,6.6,0,9.8,0c0,14.7,0,27.7,0,41.4c0,5.6-5,7.6-5,7.6v10.8
				c9.2,0,17.5-9.4,17.5-18.1c0-15.7,0-35.6,0-51.4c-11.9,0-20.9,0-32.5,0C80.8,455,80.8,457.6,80.8,457.6z M488.1,491.6
				c0-8.2,0-25.3,0-31.3c0-2.4-2.4-5.2-5.6-5.2h-44.4v9.8c11.5,0,22.9,0,34.4,0v26.7c-8.2,0-9.4,0-16.5,0c-1,0-2-1-2-1.8
				c0-4.4,0-11.7,0-17.7c0-1.4-1.4-2.8-3.6-2.8c-2.8,0-6.8,0-10,0V493c0,4.6,4,8.4,8.4,8.4c0,0,17.5,0,31.9,0v8.8h-35
				c-3.8,0-10.2,3.4-10.2,9.6c12.3,0,31.7,0,45,0v9c0,1.6-1.2,2.2-3,2.2h-5.2c0,4.4,0,6.8,0,9.8h8c2.4,0,1.8,0,4.2,0
				c6.6,0,9.4-4.8,9.4-8.6c0-12.3,0-28.5,0-40.8C492.2,491.6,490,491.6,488.1,491.6z M425.1,524.7c4.8-5.2,7.4-11.5,8-23.3
				c0-12.9,0-25.3,0-38c0-1-1.4-2.4-2.6-2.4c-5,0-11.2,0-16.7,0v-6h-13.1c0,2,0,4,0,6c-1.4,0-3,0-4.4,0v9.8h4.4v30.5
				c0,11.9,3.8,17.7,8.6,23.3c-5.8,4-11.7,6.4-19.7,6.4c-1,0-2.2,0-3.4,0c-12.3,0-27.1,0-40.2,0c-12.3,0-24.1-2.2-28.5-7.6
				c4.2-5.6,6.4-10.2,7.6-22.1c0-11.9,0-21.9,0-37.2c-0.2-1.6-1.6-3.2-3.2-3.2c-5.2,0-10.4,0-16.7,0v-6c-5.4,0-7.4,0-12.7,0v6
				c-1.4,0-2.4,0-4.4,0v9.8c2,0,3,0,4.4,0c0,10,0,21.3,0,30.5c1,11.9,4.8,15.7,9.2,22.7c-6.6,4.6-14.7,6.6-24.1,7.2
				c-11.2,0-21.3,0-35.4,0c0-2.4,0-5.8,0-7.6h35.4v-10.2h-35.4c0-2.4,0-5,0-7.6c10.2,0,23.7,0,26.7,0c0,0,8.6,0,8.6-9.4
				c0.2-10,0-27.7,0-41c-27.9,0-56.4,0-84.6,0c-1.4,0-2.6,1.4-2.6,2.6c0,2,0,33.3,0,48c11.9,0,23.7,0,35.4,0v7.6h-35.2
				c0,3.2,0,7,0,10.2h35.4c0,2.6,0,5,0,7.6h-41.4c0,2.8,0,6.6,0,9.6c31.1,0,69.5,0.2,99.8,0c8.2,0,18.3-4.2,25.5-8.4
				c9.2,7,19.3,8.4,36,8.4c5,0,10.6,0,16.9,0c8.8,0,16.5,0,23.3,0c14.1,0,22.9-3,31.5-8c8,4.8,15.5,7.6,27.9,8l0,0h18.7v-9.8h-18.7
				C437.5,530.3,430.5,529.1,425.1,524.7z M226.2,495.8h-21.7v-10.2h21.7V495.8z M226.2,475.3h-21.7V465c7.2,0,14.5,0,21.7,0V475.3z
				 M242.5,464.8h21.7v10.2h-21.7V464.8z M242.5,485.5c7.2,0,14.5,0,21.7,0c0,4.2,0,7.4,0,10.2h-21.7
				C242.5,493.2,242.5,488.8,242.5,485.5z M313,501.4c-0.4,6.8-1.6,8.4-3.2,12.9c-2-4.2-3.8-6-4.2-12.9c0-8.8,0-21.3,0-30.5h7.4
				L313,501.4L313,501.4z M420.9,501.4c-0.2,6.2-1.8,9.4-3.4,12.9c-2-3.4-3.8-7-3.8-12.9c0-9.4,0-20.9,0-30.5h7.2
				C420.9,480.7,420.9,492,420.9,501.4z"/>
		</g>
	</g>
</g>
<rect x="1.2" y="392.5" fill="none" stroke="#CCCCCC" width="996.6" height="214.3"/>
<line fill="none" stroke="#CCCCCC" x1="1.2" y1="392.5" x2="997.8" y2="606.9"/>
</svg>
