<?xml version="1.0" encoding="utf-8"?>
<!-- Generator: Adobe Illustrator 17.0.0, SVG Export Plug-In . SVG Version: 6.00 Build 0)  -->
<!DOCTYPE svg PUBLIC "-//W3C//DTD SVG 1.1//EN" "http://www.w3.org/Graphics/SVG/1.1/DTD/svg11.dtd">
<svg version="1.1" id="图层_1" xmlns="http://www.w3.org/2000/svg" xmlns:xlink="http://www.w3.org/1999/xlink" x="0px" y="0px"
	 width="493.939px" height="349.651px" viewBox="0 0 493.939 349.651" enable-background="new 0 0 493.939 349.651"
	 xml:space="preserve">
<g>
	<path fill="#FD4B00" d="M144.165,29.863c-39.336,5.088-70.087,17.549-91.096,32.501c-28.312,20.15-40.725,45.86-40.501,64.74
		c0.023,1.881,0.184,3.846,0.496,5.868c5.428-51.804,83.323-29.387,159.965-59.321c7.823-3.056,21.779-12.772,37.486-23.887
		c-9.47-3.141-15.326-5.469-15.326-5.469S172.371,34.855,144.165,29.863"/>
	<path fill="#FD4B00" d="M236.796,31.368c-8.813,5.989-17.801,12.396-26.282,18.397c13.263,4.4,33.616,10.394,54.897,13.822
		c10.224,1.647,20.664,2.701,30.634,2.701c9.676,0,18.909-0.993,27.077-3.401C284.951,40.71,249.3,33.37,249.3,33.37
		C245.082,32.63,240.912,31.963,236.796,31.368"/>
	<path fill="#FF6600" d="M183.537,27.403c-13.94,0-27.076,0.87-39.372,2.461c28.206,4.992,51.024,14.434,51.024,14.434
		s5.856,2.328,15.326,5.469c8.48-6.001,17.469-12.408,26.282-18.397C217.937,28.64,200.168,27.403,183.537,27.403"/>
	<path fill="#FED7B2" d="M389.227,43.788c-2.27,0-4.59,0.078-6.957,0.242c8.216,10.989,13.846,23.685,15.857,37.307
		c2.249,15.235-0.089,30.981-5.987,46.503c9.017,22.21,25.334,55.257,17.606,92.911c0.306,0.047,0.614,0.096,0.923,0.145
		l0.435,0.071L411.3,221c3.496,0.563,6.893,0.834,10.185,0.834c37.879,0,61.826-35.865,62.564-75.022
		c0.495-26.321-3.065-46.563-27.042-75.638c0,0-19.159-20.816-52.283-26.152C399.855,44.238,394.684,43.788,389.227,43.788
		 M112.456,26.848c-12.202,0-24.259,1.58-34.981,5.689C41.242,46.425,8.41,76.333,7.38,150.052
		c-1.172,83.958,69.717,152.514,150.955,165.889c0.29,0.047,0.58,0.095,0.868,0.141c12.354,1.99,23.933,2.909,34.77,2.909
		c40.703,0,70.938-12.975,92.461-30.951c0.454-0.379,0.903-0.756,1.351-1.135c-21.294-9.626-42.057-22.019-61.203-31.432
		c-2.362,0.436-4.725-1.656-7.074-1.322c-10.691,1.52-21.627,2.263-32.59,2.263c-80.59,0-157.535-42.723-173.186-105.209
		c-1.024-6.934-1.221-12.967-0.669-18.234c-0.312-2.022-0.473-3.987-0.496-5.868c-0.224-18.88,12.189-44.59,40.501-64.74
		c21.009-14.952,51.76-27.414,91.096-32.501c-1.145-0.203-2.297-0.398-3.459-0.585C131.577,27.808,121.973,26.847,112.456,26.848"/>
	<path fill="#FF9B48" d="M13.064,132.973c-0.552,5.267-0.355,11.3,0.669,18.234c9.762,66.142,92.596,107.688,173.186,107.688
		c10.964,0,21.9-0.743,32.59-2.264c2.348-0.334,7.19-0.721,9.552-1.157c-20.085-15.462-35.166-31.822-42.794-38.986
		c-25.937-28.02-52.012-38.919-80.516-38.919c-4.156,0-8.471,0.173-12.999,0.487c-3.263,0.226-6.408,0.335-9.44,0.335
		C35.646,178.392,16.294,153.929,13.064,132.973 M382.269,44.03c-14.581,1.01-30.989,5.288-48.95,14.775
		c-3.153,1.665-6.57,3.013-10.198,4.083c18.344,14.668,35.694,30.365,55.507,49.011c0,0,7.457,5.985,13.511,15.942
		c5.898-15.523,8.236-31.268,5.987-46.503C396.116,67.715,390.485,55.019,382.269,44.03"/>
	<path fill="#FDBC52" d="M303.595,4.628c-7.686,0-15.471,0.908-23.202,2.825c-10.73,2.66-26.842,12.53-43.597,23.916
		c4.115,0.595,8.285,1.262,12.504,2.002c0,0,35.65,7.34,73.821,29.518c3.628-1.07,7.045-2.418,10.198-4.083
		c17.961-9.486,34.369-13.764,48.95-14.775C364.58,20.369,334.908,4.628,303.595,4.628"/>
	<path fill="#FF6600" d="M391.503,216.769c-45.08-3.104-66.561,30.769-103.718,70.137c7.876,1.9,16,2.977,24.311,2.977
		c18.872,0,38.718-5.559,58.793-19.65c21.646-15.195,33.432-32.294,38.856-49.482C403.15,219.731,397.102,216.769,391.503,216.769"
		/>
	<path fill="#FD4B00" d="M392.139,127.84c-25.475,55.464-98.384,110.817-165.557,127.634c17.234,13.267,38.155,25.873,61.203,31.432
		c42.124-35.58,58.115-67.659,103.718-67.659c5.599,0,11.647,0.484,18.242,1.504C421.152,184.603,404.426,148.044,392.139,127.84"/>
	<path fill="#FF6600" d="M210.514,49.766c-15.707,11.115-29.662,20.831-37.486,23.887C96.387,103.587,18.492,81.17,13.064,132.973
		c3.23,20.956,22.583,47.897,70.248,47.897c3.032,0,6.177-0.109,9.44-0.335c4.528-0.314,8.843-0.487,12.999-0.487
		c28.504,0,49.374,9.519,78.038,36.44c7.628,7.165,22.709,23.525,42.794,38.986c69.211-12.772,143.13-68.615,165.557-127.634
		c-6.055-9.956-11.033-15.942-11.033-15.942c-16.731-21.271-37.714-37.233-57.985-49.011c-8.168,2.408-17.401,3.401-27.077,3.401
		c-9.97,0-20.409-1.054-30.634-2.701C244.131,60.16,223.778,54.165,210.514,49.766"/>
	<path fill="#FED7B2" d="M426.082,326.216c-4.757,0-9.018,3.372-9.988,8.241c-1.067,5.353,2.236,10.553,7.432,11.878l0.537,0.122
		c0.664,0.132,1.326,0.195,1.978,0.195c4.757,0,9.017-3.373,9.987-8.241c1.067-5.353-2.235-10.553-7.43-11.878l-0.539-0.122
		C427.396,326.279,426.734,326.216,426.082,326.216 M395.015,280.363c-12.566,0-22.728,9.703-22.814,21.925
		c-0.074,10.607,7.465,19.679,17.671,22.281c1.735,0.442,3.544,0.697,5.409,0.742c0.195,0.005,0.389,0.007,0.583,0.007
		c12.567,0,22.727-9.703,22.814-21.924c0.074-10.607-7.466-19.679-17.672-22.281c-1.734-0.442-3.544-0.697-5.408-0.742
		C395.402,280.366,395.209,280.363,395.015,280.363"/>
</g>
</svg>
