<?xml version="1.0" encoding="utf-8"?>
<!-- Generator: Adobe Illustrator 17.1.0, SVG Export Plug-In . SVG Version: 6.00 Build 0)  -->
<!DOCTYPE svg PUBLIC "-//W3C//DTD SVG 1.1//EN" "http://www.w3.org/Graphics/SVG/1.1/DTD/svg11.dtd">
<svg version="1.1" id="图层_1" xmlns="http://www.w3.org/2000/svg" xmlns:xlink="http://www.w3.org/1999/xlink" x="0px" y="0px"
	 viewBox="0 0 904.6 314" enable-background="new 0 0 904.6 314" xml:space="preserve">
<polyline fill="none" stroke="#211816" stroke-width="0.25" points="26.4,60.2 26.4,49.6 43.4,49.6 43.4,59.7 "/>
<polyline fill="none" stroke="#211816" stroke-width="0.25" points="20.2,83.5 9.6,83.5 9.6,66.5 20.2,66.5 "/>
<g>
	<path d="M5.7,8.8c-0.3,0-0.5-0.1-0.6-0.2C4.9,8.5,4.9,8.2,4.9,7.9c-0.3,0.3-0.6,0.6-1,0.7C3.5,8.8,3.1,8.8,2.7,8.8
		c-0.3,0-0.5,0-0.8-0.1C1.6,8.7,1.4,8.6,1.2,8.4C1,8.3,0.9,8.1,0.8,7.9C0.7,7.7,0.6,7.4,0.6,7.1c0-0.4,0.1-0.6,0.2-0.9
		s0.3-0.4,0.5-0.5s0.4-0.2,0.7-0.3s0.5-0.1,0.8-0.2C3,5.1,3.3,5.1,3.5,5.1S4,5,4.2,5s0.3-0.1,0.5-0.2c0.1-0.1,0.2-0.2,0.2-0.4
		c0-0.2,0-0.4-0.1-0.5S4.5,3.5,4.4,3.4C4.2,3.4,4.1,3.3,3.9,3.3c-0.2,0-0.3,0-0.5,0C3,3.3,2.6,3.3,2.3,3.5S1.9,4,1.9,4.4h-1
		c0-0.4,0.1-0.7,0.2-1C1.2,3.2,1.4,3,1.7,2.8c0.2-0.2,0.5-0.3,0.8-0.4c0.3-0.1,0.6-0.1,1-0.1c0.3,0,0.6,0,0.8,0.1
		c0.3,0,0.5,0.1,0.8,0.2S5.5,3,5.6,3.2c0.1,0.2,0.2,0.5,0.2,0.9v3.2c0,0.2,0,0.4,0,0.5S6,7.9,6.1,7.9c0.1,0,0.2,0,0.3-0.1v0.8
		C6.3,8.8,6,8.8,5.7,8.8z M4.3,5.7c-0.2,0-0.4,0.1-0.7,0.1c-0.2,0-0.5,0.1-0.7,0.1C2.7,6,2.5,6,2.3,6.1C2.1,6.2,2,6.3,1.9,6.4
		C1.8,6.6,1.7,6.8,1.7,7c0,0.2,0,0.3,0.1,0.4C1.9,7.6,2,7.7,2.1,7.7s0.2,0.1,0.4,0.2c0.1,0,0.3,0,0.5,0c0.3,0,0.6,0,0.9-0.1
		C4,7.7,4.2,7.6,4.3,7.5C4.5,7.3,4.6,7.2,4.7,7s0.1-0.3,0.1-0.5v-1C4.7,5.6,4.5,5.7,4.3,5.7z"/>
	<path d="M7.2,4.9V4h6v0.8H7.2z M13.3,6.5v0.8h-6V6.5H13.3z"/>
	<path d="M20,5.8v0.9h-1.2v2h-1v-2h-3.7v-1L18,0.2h0.8v5.6H20z M17.9,1.6L17.9,1.6L15,5.8h2.9V1.6z"/>
	<path d="M22.2,2.5v0.9h0c0.5-0.7,1.1-1.1,2-1.1c0.4,0,0.7,0.1,1,0.2C25.6,2.8,25.8,3,26,3.4c0.2-0.3,0.5-0.6,0.8-0.8
		c0.3-0.2,0.7-0.3,1.1-0.3c0.3,0,0.6,0,0.8,0.1c0.3,0.1,0.5,0.2,0.6,0.3c0.2,0.1,0.3,0.3,0.4,0.6C29.9,3.6,30,3.8,30,4.2v4.5h-1V4.6
		c0-0.2,0-0.4,0-0.5c0-0.2-0.1-0.3-0.2-0.4s-0.2-0.2-0.4-0.3c-0.2-0.1-0.4-0.1-0.6-0.1c-0.5,0-0.9,0.1-1.2,0.4
		c-0.3,0.3-0.4,0.7-0.4,1.2v3.9h-1V4.6c0-0.2,0-0.4-0.1-0.6S25,3.8,24.9,3.6s-0.2-0.2-0.4-0.3c-0.1-0.1-0.3-0.1-0.6-0.1
		c-0.3,0-0.6,0.1-0.8,0.2c-0.2,0.1-0.4,0.3-0.5,0.4s-0.2,0.3-0.3,0.5c-0.1,0.2-0.1,0.3-0.1,0.5v3.9h-1V2.5H22.2z"/>
	<path d="M32.5,2.5v0.9h0c0.5-0.7,1.1-1.1,2-1.1c0.4,0,0.7,0.1,1,0.2c0.3,0.2,0.5,0.4,0.7,0.8c0.2-0.3,0.5-0.6,0.8-0.8
		c0.3-0.2,0.7-0.3,1.1-0.3c0.3,0,0.6,0,0.8,0.1c0.3,0.1,0.5,0.2,0.6,0.3c0.2,0.1,0.3,0.3,0.4,0.6c0.1,0.2,0.1,0.5,0.1,0.8v4.5h-1
		V4.6c0-0.2,0-0.4,0-0.5c0-0.2-0.1-0.3-0.2-0.4s-0.2-0.2-0.4-0.3c-0.2-0.1-0.4-0.1-0.6-0.1c-0.5,0-0.9,0.1-1.2,0.4
		c-0.3,0.3-0.4,0.7-0.4,1.2v3.9h-1V4.6c0-0.2,0-0.4-0.1-0.6s-0.1-0.3-0.2-0.4s-0.2-0.2-0.4-0.3c-0.1-0.1-0.3-0.1-0.6-0.1
		c-0.3,0-0.6,0.1-0.8,0.2c-0.2,0.1-0.4,0.3-0.5,0.4s-0.2,0.3-0.3,0.5c-0.1,0.2-0.1,0.3-0.1,0.5v3.9h-1V2.5H32.5z"/>
</g>
<g>
	<path d="M37,46.6c-0.3,0-0.5-0.1-0.6-0.2c-0.2-0.1-0.2-0.4-0.2-0.7c-0.3,0.3-0.6,0.6-1,0.7c-0.4,0.1-0.8,0.2-1.2,0.2
		c-0.3,0-0.5,0-0.8-0.1c-0.2-0.1-0.5-0.2-0.7-0.3c-0.2-0.1-0.3-0.3-0.4-0.5c-0.1-0.2-0.2-0.5-0.2-0.8c0-0.4,0.1-0.6,0.2-0.9
		s0.3-0.4,0.5-0.5s0.4-0.2,0.7-0.3S33.8,43,34,43c0.3-0.1,0.5-0.1,0.8-0.1s0.5-0.1,0.7-0.1s0.3-0.1,0.5-0.2c0.1-0.1,0.2-0.2,0.2-0.4
		c0-0.2,0-0.4-0.1-0.5s-0.2-0.2-0.3-0.3c-0.1-0.1-0.3-0.1-0.4-0.1c-0.2,0-0.3,0-0.5,0c-0.4,0-0.8,0.1-1.1,0.2s-0.4,0.5-0.5,0.9h-1
		c0-0.4,0.1-0.7,0.2-1c0.1-0.3,0.3-0.5,0.6-0.6c0.2-0.2,0.5-0.3,0.8-0.4c0.3-0.1,0.6-0.1,1-0.1c0.3,0,0.6,0,0.8,0.1
		c0.3,0,0.5,0.1,0.8,0.2s0.4,0.3,0.5,0.5c0.1,0.2,0.2,0.5,0.2,0.9V45c0,0.2,0,0.4,0,0.5s0.1,0.2,0.3,0.2c0.1,0,0.2,0,0.3-0.1v0.8
		C37.6,46.6,37.3,46.6,37,46.6z M35.6,43.5c-0.2,0-0.4,0.1-0.7,0.1c-0.2,0-0.5,0.1-0.7,0.1c-0.2,0-0.4,0.1-0.6,0.2
		c-0.2,0.1-0.3,0.2-0.5,0.3c-0.1,0.1-0.2,0.4-0.2,0.6c0,0.2,0,0.3,0.1,0.4c0.1,0.1,0.2,0.2,0.3,0.3s0.2,0.1,0.4,0.2
		c0.1,0,0.3,0,0.5,0c0.3,0,0.6,0,0.9-0.1c0.2-0.1,0.4-0.2,0.6-0.3c0.2-0.1,0.3-0.3,0.3-0.5s0.1-0.3,0.1-0.5v-1
		C36,43.4,35.8,43.4,35.6,43.5z"/>
</g>
<g>
	<path d="M415.3,308.9v0.9h-1.2v2h-1v-2h-3.7v-1l3.9-5.5h0.8v5.6H415.3z M413.2,304.7L413.2,304.7l-2.9,4.2h2.9V304.7z"/>
	<path d="M416.4,305.1c0.1-0.4,0.3-0.7,0.5-1c0.2-0.3,0.5-0.5,0.9-0.6c0.4-0.2,0.8-0.2,1.2-0.2c0.4,0,0.7,0.1,1,0.2
		c0.3,0.1,0.6,0.3,0.8,0.5c0.2,0.2,0.4,0.5,0.6,0.8c0.1,0.3,0.2,0.7,0.2,1.1c0,0.4-0.1,0.7-0.2,1c-0.1,0.3-0.3,0.5-0.5,0.8
		c-0.2,0.2-0.4,0.4-0.7,0.6s-0.5,0.4-0.8,0.5c-0.3,0.2-0.5,0.3-0.8,0.5c-0.3,0.2-0.5,0.3-0.7,0.5c-0.2,0.2-0.4,0.4-0.6,0.6
		c-0.2,0.2-0.3,0.4-0.3,0.7h4.4v0.9h-5.6c0-0.5,0.1-0.9,0.3-1.3c0.1-0.4,0.3-0.7,0.5-0.9c0.2-0.3,0.5-0.5,0.7-0.7
		c0.3-0.2,0.6-0.4,0.9-0.6c0.4-0.2,0.7-0.4,0.9-0.6c0.3-0.2,0.5-0.4,0.7-0.6c0.2-0.2,0.3-0.4,0.4-0.6s0.1-0.5,0.1-0.8
		c0-0.2,0-0.4-0.1-0.6c-0.1-0.2-0.2-0.3-0.4-0.5c-0.1-0.1-0.3-0.2-0.5-0.3s-0.4-0.1-0.6-0.1c-0.3,0-0.5,0.1-0.8,0.2
		c-0.2,0.1-0.4,0.3-0.5,0.5c-0.1,0.2-0.2,0.4-0.3,0.7s-0.1,0.5-0.1,0.8h-1C416.3,305.8,416.3,305.4,416.4,305.1z"/>
	<path d="M424.8,310.4v1.3h-1.3v-1.3H424.8z"/>
	<path d="M430.3,304.5c-0.2-0.2-0.6-0.3-1-0.3c-0.4,0-0.8,0.1-1,0.3s-0.5,0.5-0.6,0.8c-0.1,0.3-0.2,0.7-0.3,1.1
		c-0.1,0.4-0.1,0.7-0.1,1.1l0,0c0.2-0.4,0.5-0.7,0.9-0.9c0.4-0.2,0.8-0.3,1.2-0.3c0.4,0,0.8,0.1,1.1,0.2c0.3,0.1,0.6,0.3,0.8,0.6
		s0.4,0.5,0.5,0.9s0.2,0.7,0.2,1.1c0,0.3,0,0.6-0.1,1s-0.3,0.6-0.5,0.9c-0.2,0.3-0.5,0.5-0.9,0.7c-0.4,0.2-0.8,0.3-1.4,0.3
		c-0.6,0-1.1-0.1-1.5-0.4c-0.4-0.3-0.7-0.6-0.9-1c-0.2-0.4-0.3-0.8-0.4-1.3c-0.1-0.5-0.1-0.9-0.1-1.4c0-0.6,0-1.1,0.2-1.7
		c0.1-0.5,0.3-1,0.5-1.5c0.2-0.4,0.6-0.8,1-1c0.4-0.3,0.9-0.4,1.5-0.4c0.7,0,1.3,0.2,1.7,0.6s0.7,0.9,0.7,1.6h-1
		C430.7,305,430.6,304.7,430.3,304.5z M428.5,307.3c-0.2,0.1-0.4,0.2-0.6,0.4c-0.2,0.2-0.3,0.4-0.3,0.6c-0.1,0.2-0.1,0.5-0.1,0.8
		c0,0.3,0,0.5,0.1,0.7c0.1,0.2,0.2,0.4,0.3,0.6s0.3,0.3,0.6,0.4c0.2,0.1,0.5,0.2,0.8,0.2c0.3,0,0.5,0,0.7-0.2
		c0.2-0.1,0.4-0.2,0.5-0.4c0.1-0.2,0.3-0.4,0.3-0.6c0.1-0.2,0.1-0.5,0.1-0.7c0-0.3,0-0.5-0.1-0.8c-0.1-0.2-0.2-0.4-0.3-0.6
		c-0.1-0.2-0.3-0.3-0.5-0.4c-0.2-0.1-0.5-0.2-0.8-0.2S428.7,307.2,428.5,307.3z"/>
	<path d="M433.4,304.5c0.1-0.3,0.3-0.5,0.6-0.7c0.2-0.2,0.5-0.3,0.8-0.4c0.3-0.1,0.6-0.1,0.9-0.1c0.5,0,0.9,0.1,1.2,0.2
		s0.6,0.3,0.8,0.5s0.4,0.4,0.5,0.7s0.1,0.5,0.1,0.8c0,0.4-0.1,0.7-0.3,1c-0.2,0.3-0.5,0.6-0.9,0.7c0.5,0.2,0.9,0.4,1.1,0.8
		s0.4,0.8,0.4,1.3c0,0.4-0.1,0.8-0.2,1.1c-0.1,0.3-0.3,0.6-0.6,0.8c-0.3,0.2-0.5,0.4-0.9,0.5c-0.3,0.1-0.7,0.2-1.1,0.2
		c-0.4,0-0.8-0.1-1.1-0.2c-0.4-0.1-0.7-0.3-0.9-0.5c-0.3-0.2-0.5-0.5-0.6-0.8c-0.1-0.3-0.2-0.7-0.2-1.1c0-0.5,0.1-0.9,0.4-1.3
		c0.3-0.4,0.6-0.6,1.1-0.8c-0.4-0.1-0.6-0.4-0.9-0.7c-0.2-0.3-0.3-0.7-0.3-1.1C433.2,305.1,433.3,304.8,433.4,304.5z M434.5,310.6
		c0.3,0.3,0.8,0.4,1.3,0.4c0.3,0,0.5,0,0.7-0.1s0.4-0.2,0.6-0.3c0.2-0.1,0.3-0.3,0.4-0.5s0.1-0.4,0.1-0.7c0-0.2,0-0.4-0.1-0.6
		s-0.2-0.4-0.4-0.5c-0.2-0.1-0.3-0.3-0.6-0.3s-0.4-0.1-0.7-0.1c-0.2,0-0.5,0-0.7,0.1c-0.2,0.1-0.4,0.2-0.6,0.3
		c-0.2,0.1-0.3,0.3-0.4,0.5c-0.1,0.2-0.1,0.4-0.1,0.7C434,309.9,434.2,310.3,434.5,310.6z M434.4,306.1c0.1,0.2,0.2,0.3,0.3,0.4
		c0.1,0.1,0.3,0.2,0.5,0.3c0.2,0.1,0.4,0.1,0.6,0.1c0.4,0,0.7-0.1,1-0.4s0.4-0.6,0.4-1c0-0.4-0.1-0.8-0.4-1c-0.3-0.2-0.6-0.3-1-0.3
		c-0.2,0-0.4,0-0.6,0.1c-0.2,0.1-0.3,0.1-0.5,0.3c-0.1,0.1-0.2,0.2-0.3,0.4c-0.1,0.2-0.1,0.3-0.1,0.6
		C434.3,305.7,434.4,305.9,434.4,306.1z"/>
	<path d="M444.7,311.9c-0.3,0-0.5-0.1-0.6-0.2c-0.2-0.1-0.2-0.4-0.2-0.7c-0.3,0.3-0.6,0.6-1,0.7c-0.4,0.1-0.8,0.2-1.2,0.2
		c-0.3,0-0.5,0-0.8-0.1c-0.2-0.1-0.5-0.2-0.7-0.3c-0.2-0.1-0.3-0.3-0.4-0.5c-0.1-0.2-0.2-0.5-0.2-0.8c0-0.4,0.1-0.6,0.2-0.9
		s0.3-0.4,0.5-0.5s0.4-0.2,0.7-0.3s0.5-0.1,0.8-0.2c0.3-0.1,0.5-0.1,0.8-0.1s0.5-0.1,0.7-0.1s0.3-0.1,0.5-0.2
		c0.1-0.1,0.2-0.2,0.2-0.4c0-0.2,0-0.4-0.1-0.5s-0.2-0.2-0.3-0.3c-0.1-0.1-0.3-0.1-0.4-0.1c-0.2,0-0.3,0-0.5,0
		c-0.4,0-0.8,0.1-1.1,0.2s-0.4,0.5-0.5,0.9h-1c0-0.4,0.1-0.7,0.2-1c0.1-0.3,0.3-0.5,0.6-0.6c0.2-0.2,0.5-0.3,0.8-0.4
		c0.3-0.1,0.6-0.1,1-0.1c0.3,0,0.6,0,0.8,0.1c0.3,0,0.5,0.1,0.8,0.2s0.4,0.3,0.5,0.5c0.1,0.2,0.2,0.5,0.2,0.9v3.2c0,0.2,0,0.4,0,0.5
		s0.1,0.2,0.3,0.2c0.1,0,0.2,0,0.3-0.1v0.8C445.2,311.8,445,311.9,444.7,311.9z M443.2,308.8c-0.2,0-0.4,0.1-0.7,0.1
		c-0.2,0-0.5,0.1-0.7,0.1c-0.2,0-0.4,0.1-0.6,0.2c-0.2,0.1-0.3,0.2-0.5,0.3c-0.1,0.1-0.2,0.4-0.2,0.6c0,0.2,0,0.3,0.1,0.4
		c0.1,0.1,0.2,0.2,0.3,0.3s0.2,0.1,0.4,0.2c0.1,0,0.3,0,0.5,0c0.3,0,0.6,0,0.9-0.1c0.2-0.1,0.4-0.2,0.6-0.3c0.2-0.1,0.3-0.3,0.3-0.5
		s0.1-0.3,0.1-0.5v-1C443.6,308.7,443.4,308.7,443.2,308.8z"/>
</g>
<g>
	<path d="M5.5,78.7c-0.3,0-0.5-0.1-0.6-0.2c-0.2-0.1-0.2-0.4-0.2-0.7c-0.3,0.3-0.6,0.6-1,0.7c-0.4,0.1-0.8,0.2-1.2,0.2
		c-0.3,0-0.5,0-0.8-0.1c-0.2-0.1-0.5-0.2-0.7-0.3c-0.2-0.1-0.3-0.3-0.4-0.5c-0.1-0.2-0.2-0.5-0.2-0.8c0-0.4,0.1-0.6,0.2-0.9
		s0.3-0.4,0.5-0.5s0.4-0.2,0.7-0.3s0.5-0.1,0.8-0.2C2.8,75,3.1,75,3.3,75s0.5-0.1,0.7-0.1s0.3-0.1,0.5-0.2c0.1-0.1,0.2-0.2,0.2-0.4
		c0-0.2,0-0.4-0.1-0.5s-0.2-0.2-0.3-0.3c-0.1-0.1-0.3-0.1-0.4-0.1c-0.2,0-0.3,0-0.5,0c-0.4,0-0.8,0.1-1.1,0.2s-0.4,0.5-0.5,0.9h-1
		c0-0.4,0.1-0.7,0.2-1c0.1-0.3,0.3-0.5,0.6-0.6c0.2-0.2,0.5-0.3,0.8-0.4c0.3-0.1,0.6-0.1,1-0.1c0.3,0,0.6,0,0.8,0.1
		c0.3,0,0.5,0.1,0.8,0.2s0.4,0.3,0.5,0.5c0.1,0.2,0.2,0.5,0.2,0.9v3.2c0,0.2,0,0.4,0,0.5s0.1,0.2,0.3,0.2c0.1,0,0.2,0,0.3-0.1v0.8
		C6.1,78.7,5.8,78.7,5.5,78.7z M4.1,75.6c-0.2,0-0.4,0.1-0.7,0.1c-0.2,0-0.5,0.1-0.7,0.1c-0.2,0-0.4,0.1-0.6,0.2
		c-0.2,0.1-0.3,0.2-0.5,0.3c-0.1,0.1-0.2,0.4-0.2,0.6c0,0.2,0,0.3,0.1,0.4c0.1,0.1,0.2,0.2,0.3,0.3s0.2,0.1,0.4,0.2
		c0.1,0,0.3,0,0.5,0c0.3,0,0.6,0,0.9-0.1c0.2-0.1,0.4-0.2,0.6-0.3c0.2-0.1,0.3-0.3,0.3-0.5s0.1-0.3,0.1-0.5v-1
		C4.5,75.5,4.3,75.6,4.1,75.6z"/>
</g>
<polyline fill="none" stroke="#211816" stroke-width="0.25" points="874,219.7 884.7,219.7 884.7,100.6 874.6,100.6 "/>
<g>
	<path d="M896.6,160.3c-0.4,0.6-0.7,1.2-1,1.9s-0.5,1.3-0.7,2.1c-0.2,0.7-0.3,1.4-0.3,2.1h-1.1c0-0.7,0.2-1.4,0.4-2.1
		c0.2-0.7,0.4-1.3,0.7-2s0.6-1.2,1-1.8c0.4-0.6,0.8-1.1,1.3-1.5h-4.5v-1h5.5v0.9C897.4,159.2,896.9,159.7,896.6,160.3z"/>
	<path d="M903.9,166.4c-0.3,0-0.5-0.1-0.6-0.2c-0.2-0.1-0.2-0.4-0.2-0.7c-0.3,0.3-0.6,0.6-1,0.7c-0.4,0.1-0.8,0.2-1.2,0.2
		c-0.3,0-0.5,0-0.8-0.1c-0.2-0.1-0.5-0.2-0.7-0.3c-0.2-0.1-0.3-0.3-0.4-0.5c-0.1-0.2-0.2-0.5-0.2-0.8c0-0.4,0.1-0.6,0.2-0.9
		s0.3-0.4,0.5-0.5s0.4-0.2,0.7-0.3s0.5-0.1,0.8-0.2c0.3-0.1,0.5-0.1,0.8-0.1s0.5-0.1,0.7-0.1s0.3-0.1,0.5-0.2
		c0.1-0.1,0.2-0.2,0.2-0.4c0-0.2,0-0.4-0.1-0.5s-0.2-0.2-0.3-0.3c-0.1-0.1-0.3-0.1-0.4-0.1c-0.2,0-0.3,0-0.5,0
		c-0.4,0-0.8,0.1-1.1,0.2s-0.4,0.5-0.5,0.9h-1c0-0.4,0.1-0.7,0.2-1c0.1-0.3,0.3-0.5,0.6-0.6c0.2-0.2,0.5-0.3,0.8-0.4
		c0.3-0.1,0.6-0.1,1-0.1c0.3,0,0.6,0,0.8,0.1c0.3,0,0.5,0.1,0.8,0.2s0.4,0.3,0.5,0.5c0.1,0.2,0.2,0.5,0.2,0.9v3.2c0,0.2,0,0.4,0,0.5
		s0.1,0.2,0.3,0.2c0.1,0,0.2,0,0.3-0.1v0.8C904.4,166.4,904.2,166.4,903.9,166.4z M902.5,163.3c-0.2,0-0.4,0.1-0.7,0.1
		c-0.2,0-0.5,0.1-0.7,0.1c-0.2,0-0.4,0.1-0.6,0.2c-0.2,0.1-0.3,0.2-0.5,0.3c-0.1,0.1-0.2,0.4-0.2,0.6c0,0.2,0,0.3,0.1,0.4
		c0.1,0.1,0.2,0.2,0.3,0.3s0.2,0.1,0.4,0.2c0.1,0,0.3,0,0.5,0c0.3,0,0.6,0,0.9-0.1c0.2-0.1,0.4-0.2,0.6-0.3c0.2-0.1,0.3-0.3,0.3-0.5
		s0.1-0.3,0.1-0.5v-1C902.8,163.2,902.7,163.2,902.5,163.3z"/>
</g>
<g>
	<line fill="none" stroke="#211816" stroke-width="0.25" x1="26.4" y1="66.5" x2="26.4" y2="270.6"/>
	<line fill="none" stroke="#211816" stroke-width="0.25" x1="43.4" y1="66.5" x2="43.4" y2="270.6"/>
	<line fill="none" stroke="#211816" stroke-width="0.25" x1="60.4" y1="66.5" x2="60.4" y2="270.6"/>
	<line fill="none" stroke="#211816" stroke-width="0.25" x1="179.5" y1="66.5" x2="179.5" y2="270.6"/>
	<line fill="none" stroke="#211816" stroke-width="0.25" x1="162.5" y1="66.5" x2="162.5" y2="270.6"/>
	<line fill="none" stroke="#211816" stroke-width="0.25" x1="77.4" y1="66.5" x2="77.4" y2="270.6"/>
	<line fill="none" stroke="#211816" stroke-width="0.25" x1="94.5" y1="66.5" x2="94.5" y2="270.6"/>
	<line fill="none" stroke="#211816" stroke-width="0.25" x1="111.5" y1="66.5" x2="111.5" y2="270.6"/>
	<line fill="none" stroke="#211816" stroke-width="0.25" x1="128.5" y1="66.5" x2="128.5" y2="270.6"/>
	<line fill="none" stroke="#211816" stroke-width="0.25" x1="196.5" y1="66.5" x2="196.5" y2="270.6"/>
	<line fill="none" stroke="#211816" stroke-width="0.25" x1="145.5" y1="66.5" x2="145.5" y2="270.6"/>
	<line fill="none" stroke="#211816" stroke-width="0.25" x1="213.5" y1="66.5" x2="213.5" y2="270.6"/>
	<line fill="none" stroke="#211816" stroke-width="0.25" x1="230.5" y1="66.5" x2="230.5" y2="270.6"/>
	<line fill="none" stroke="#211816" stroke-width="0.25" x1="247.5" y1="66.5" x2="247.5" y2="270.6"/>
	<line fill="none" stroke="#211816" stroke-width="0.25" x1="366.6" y1="66.5" x2="366.6" y2="270.6"/>
	<line fill="none" stroke="#211816" stroke-width="0.25" x1="349.6" y1="66.5" x2="349.6" y2="270.6"/>
	<line fill="none" stroke="#211816" stroke-width="0.25" x1="264.5" y1="66.5" x2="264.5" y2="270.6"/>
	<line fill="none" stroke="#211816" stroke-width="0.25" x1="281.5" y1="66.5" x2="281.5" y2="270.6"/>
	<line fill="none" stroke="#211816" stroke-width="0.25" x1="298.6" y1="66.5" x2="298.6" y2="270.6"/>
	<line fill="none" stroke="#211816" stroke-width="0.25" x1="315.6" y1="66.5" x2="315.6" y2="270.6"/>
	<line fill="none" stroke="#211816" stroke-width="0.25" x1="383.6" y1="66.5" x2="383.6" y2="270.6"/>
	<line fill="none" stroke="#211816" stroke-width="0.25" x1="332.6" y1="66.5" x2="332.6" y2="270.6"/>
	<line fill="none" stroke="#211816" stroke-width="0.25" x1="400.6" y1="66.5" x2="400.6" y2="270.6"/>
	<line fill="none" stroke="#211816" stroke-width="0.25" x1="417.6" y1="66.5" x2="417.6" y2="270.6"/>
	<line fill="none" stroke="#211816" stroke-width="0.25" x1="434.6" y1="66.5" x2="434.6" y2="270.6"/>
	<line fill="none" stroke="#211816" stroke-width="0.25" x1="553.7" y1="66.5" x2="553.7" y2="270.6"/>
	<line fill="none" stroke="#211816" stroke-width="0.25" x1="536.7" y1="66.5" x2="536.7" y2="270.6"/>
	<line fill="none" stroke="#211816" stroke-width="0.25" x1="451.6" y1="66.5" x2="451.6" y2="270.6"/>
	<line fill="none" stroke="#211816" stroke-width="0.25" x1="468.6" y1="66.5" x2="468.6" y2="270.6"/>
	<line fill="none" stroke="#211816" stroke-width="0.25" x1="485.6" y1="66.5" x2="485.6" y2="270.6"/>
	<line fill="none" stroke="#211816" stroke-width="0.25" x1="502.6" y1="66.5" x2="502.6" y2="270.6"/>
	<line fill="none" stroke="#211816" stroke-width="0.25" x1="570.7" y1="66.5" x2="570.7" y2="270.6"/>
	<line fill="none" stroke="#211816" stroke-width="0.25" x1="519.7" y1="66.5" x2="519.7" y2="270.6"/>
	<line fill="none" stroke="#211816" stroke-width="0.25" x1="655.7" y1="66.5" x2="655.7" y2="270.6"/>
	<line fill="none" stroke="#211816" stroke-width="0.25" x1="638.7" y1="66.5" x2="638.7" y2="270.6"/>
	<line fill="none" stroke="#211816" stroke-width="0.25" x1="587.7" y1="66.5" x2="587.7" y2="270.6"/>
	<line fill="none" stroke="#211816" stroke-width="0.25" x1="604.7" y1="66.5" x2="604.7" y2="270.6"/>
	<line fill="none" stroke="#211816" stroke-width="0.25" x1="672.7" y1="66.5" x2="672.7" y2="270.6"/>
	<line fill="none" stroke="#211816" stroke-width="0.25" x1="621.7" y1="66.5" x2="621.7" y2="270.6"/>
	<line fill="none" stroke="#211816" stroke-width="0.25" x1="689.7" y1="66.5" x2="689.7" y2="270.6"/>
	<line fill="none" stroke="#211816" stroke-width="0.25" x1="706.7" y1="66.5" x2="706.7" y2="270.6"/>
	<line fill="none" stroke="#211816" stroke-width="0.25" x1="723.7" y1="66.5" x2="723.7" y2="270.6"/>
	<line fill="none" stroke="#211816" stroke-width="0.25" x1="740.8" y1="66.5" x2="740.8" y2="270.6"/>
	<line fill="none" stroke="#211816" stroke-width="0.25" x1="757.8" y1="66.5" x2="757.8" y2="270.6"/>
	<line fill="none" stroke="#211816" stroke-width="0.25" x1="774.8" y1="66.5" x2="774.8" y2="270.6"/>
	<line fill="none" stroke="#211816" stroke-width="0.25" x1="791.8" y1="66.5" x2="791.8" y2="270.6"/>
	<line fill="none" stroke="#211816" stroke-width="0.25" x1="808.8" y1="66.5" x2="808.8" y2="270.6"/>
	<line fill="none" stroke="#211816" stroke-width="0.25" x1="825.8" y1="66.5" x2="825.8" y2="270.6"/>
	<line fill="none" stroke="#211816" stroke-width="0.25" x1="842.8" y1="66.5" x2="842.8" y2="270.6"/>
	<line fill="none" stroke="#211816" stroke-width="0.25" x1="859.8" y1="66.5" x2="859.8" y2="270.6"/>
</g>
<g>
	<line fill="none" stroke="#211816" stroke-width="0.25" x1="26.4" y1="219.6" x2="859.8" y2="219.6"/>
	<line fill="none" stroke="#211816" stroke-width="0.25" x1="26.4" y1="236.6" x2="859.8" y2="236.6"/>
	<line fill="none" stroke="#211816" stroke-width="0.25" x1="26.4" y1="270.6" x2="859.8" y2="270.6"/>
	<line fill="none" stroke="#211816" stroke-width="0.25" x1="26.4" y1="202.6" x2="859.8" y2="202.6"/>
	<line fill="none" stroke="#211816" stroke-width="0.25" x1="26.4" y1="253.6" x2="859.8" y2="253.6"/>
	<line fill="none" stroke="#211816" stroke-width="0.25" x1="26.4" y1="117.5" x2="859.8" y2="117.5"/>
	<line fill="none" stroke="#211816" stroke-width="0.25" x1="26.4" y1="134.5" x2="859.8" y2="134.5"/>
	<line fill="none" stroke="#211816" stroke-width="0.25" x1="26.4" y1="185.6" x2="859.8" y2="185.6"/>
	<line fill="none" stroke="#211816" stroke-width="0.25" x1="26.4" y1="168.6" x2="859.8" y2="168.6"/>
	<line fill="none" stroke="#211816" stroke-width="0.25" x1="26.4" y1="100.5" x2="859.8" y2="100.5"/>
	<line fill="none" stroke="#211816" stroke-width="0.25" x1="26.4" y1="151.5" x2="859.8" y2="151.5"/>
	<line fill="none" stroke="#211816" stroke-width="0.25" x1="26.4" y1="83.5" x2="859.8" y2="83.5"/>
	<line fill="none" stroke="#211816" stroke-width="0.25" x1="26.4" y1="66.5" x2="859.8" y2="66.5"/>
</g>
<g>
	<line fill="none" stroke="#D8413C" stroke-width="0.25" x1="77.4" y1="100.5" x2="77.4" y2="219.6"/>
	<line fill="none" stroke="#D8413C" stroke-width="0.25" x1="86" y1="100.5" x2="86" y2="219.6"/>
	<line fill="none" stroke="#D8413C" stroke-width="0.25" x1="94.5" y1="100.5" x2="94.5" y2="219.6"/>
	<line fill="none" stroke="#D8413C" stroke-width="0.25" x1="103" y1="100.5" x2="103" y2="219.6"/>
	<line fill="none" stroke="#D8413C" stroke-width="0.25" x1="111.5" y1="100.5" x2="111.5" y2="219.6"/>
	<line fill="none" stroke="#D8413C" stroke-width="0.25" x1="120" y1="100.5" x2="120" y2="219.6"/>
	<line fill="none" stroke="#D8413C" stroke-width="0.25" x1="128.5" y1="100.5" x2="128.5" y2="219.6"/>
	<line fill="none" stroke="#D8413C" stroke-width="0.25" x1="137" y1="100.5" x2="137" y2="219.6"/>
	<line fill="none" stroke="#D8413C" stroke-width="0.25" x1="145.5" y1="100.5" x2="145.5" y2="219.6"/>
	<line fill="none" stroke="#D8413C" stroke-width="0.25" x1="154" y1="100.5" x2="154" y2="219.6"/>
	<line fill="none" stroke="#D8413C" stroke-width="0.25" x1="162.5" y1="100.5" x2="162.5" y2="219.6"/>
	<line fill="none" stroke="#D8413C" stroke-width="0.25" x1="171" y1="100.5" x2="171" y2="219.6"/>
	<line fill="none" stroke="#D8413C" stroke-width="0.25" x1="179.5" y1="100.5" x2="179.5" y2="219.6"/>
	<line fill="none" stroke="#D8413C" stroke-width="0.25" x1="188" y1="100.5" x2="188" y2="219.6"/>
	<line fill="none" stroke="#D8413C" stroke-width="0.25" x1="196.5" y1="100.5" x2="196.5" y2="219.6"/>
	<line fill="none" stroke="#D8413C" stroke-width="0.25" x1="205" y1="100.5" x2="205" y2="219.6"/>
	<line fill="none" stroke="#D8413C" stroke-width="0.25" x1="213.5" y1="100.5" x2="213.5" y2="219.6"/>
	<line fill="none" stroke="#D8413C" stroke-width="0.25" x1="222" y1="100.5" x2="222" y2="219.6"/>
	<line fill="none" stroke="#D8413C" stroke-width="0.25" x1="230.5" y1="100.5" x2="230.5" y2="219.6"/>
	<line fill="none" stroke="#D8413C" stroke-width="0.25" x1="239" y1="100.5" x2="239" y2="219.6"/>
	<line fill="none" stroke="#D8413C" stroke-width="0.25" x1="247.5" y1="100.5" x2="247.5" y2="219.6"/>
	<line fill="none" stroke="#D8413C" stroke-width="0.25" x1="256" y1="100.5" x2="256" y2="219.6"/>
	<line fill="none" stroke="#D8413C" stroke-width="0.25" x1="264.5" y1="100.5" x2="264.5" y2="219.6"/>
	<line fill="none" stroke="#D8413C" stroke-width="0.25" x1="273" y1="100.5" x2="273" y2="219.6"/>
	<line fill="none" stroke="#D8413C" stroke-width="0.25" x1="281.5" y1="100.5" x2="281.5" y2="219.6"/>
	<line fill="none" stroke="#D8413C" stroke-width="0.25" x1="290" y1="100.5" x2="290" y2="219.6"/>
	<line fill="none" stroke="#D8413C" stroke-width="0.25" x1="298.6" y1="100.5" x2="298.6" y2="219.6"/>
	<line fill="none" stroke="#D8413C" stroke-width="0.25" x1="307.1" y1="100.5" x2="307.1" y2="219.6"/>
	<line fill="none" stroke="#D8413C" stroke-width="0.25" x1="315.6" y1="100.5" x2="315.6" y2="219.6"/>
	<line fill="none" stroke="#D8413C" stroke-width="0.25" x1="324.1" y1="100.5" x2="324.1" y2="219.6"/>
	<line fill="none" stroke="#D8413C" stroke-width="0.25" x1="332.6" y1="100.5" x2="332.6" y2="219.6"/>
	<line fill="none" stroke="#D8413C" stroke-width="0.25" x1="341.1" y1="100.5" x2="341.1" y2="219.6"/>
	<line fill="none" stroke="#D8413C" stroke-width="0.25" x1="349.6" y1="100.5" x2="349.6" y2="219.6"/>
	<line fill="none" stroke="#D8413C" stroke-width="0.25" x1="358.1" y1="100.5" x2="358.1" y2="219.6"/>
	<line fill="none" stroke="#D8413C" stroke-width="0.25" x1="366.6" y1="100.5" x2="366.6" y2="219.6"/>
	<line fill="none" stroke="#D8413C" stroke-width="0.25" x1="375.1" y1="100.5" x2="375.1" y2="219.6"/>
	<line fill="none" stroke="#D8413C" stroke-width="0.25" x1="383.6" y1="100.5" x2="383.6" y2="219.6"/>
	<line fill="none" stroke="#D8413C" stroke-width="0.25" x1="392.1" y1="100.5" x2="392.1" y2="219.6"/>
	<line fill="none" stroke="#D8413C" stroke-width="0.25" x1="400.6" y1="100.5" x2="400.6" y2="219.6"/>
	<line fill="none" stroke="#D8413C" stroke-width="0.25" x1="409.1" y1="100.5" x2="409.1" y2="219.6"/>
	<line fill="none" stroke="#D8413C" stroke-width="0.25" x1="417.6" y1="100.5" x2="417.6" y2="219.6"/>
	<line fill="none" stroke="#D8413C" stroke-width="0.25" x1="426.1" y1="100.5" x2="426.1" y2="219.6"/>
	<line fill="none" stroke="#D8413C" stroke-width="0.25" x1="434.6" y1="100.5" x2="434.6" y2="219.6"/>
	<line fill="none" stroke="#D8413C" stroke-width="0.25" x1="443.1" y1="100.5" x2="443.1" y2="219.6"/>
	<line fill="none" stroke="#D8413C" stroke-width="0.25" x1="451.6" y1="100.5" x2="451.6" y2="219.6"/>
	<line fill="none" stroke="#D8413C" stroke-width="0.25" x1="460.1" y1="100.5" x2="460.1" y2="219.6"/>
	<line fill="none" stroke="#D8413C" stroke-width="0.25" x1="468.6" y1="100.5" x2="468.6" y2="219.6"/>
	<line fill="none" stroke="#D8413C" stroke-width="0.25" x1="477.1" y1="100.5" x2="477.1" y2="219.6"/>
	<line fill="none" stroke="#D8413C" stroke-width="0.25" x1="485.6" y1="100.5" x2="485.6" y2="219.6"/>
	<line fill="none" stroke="#D8413C" stroke-width="0.25" x1="494.1" y1="100.5" x2="494.1" y2="219.6"/>
	<line fill="none" stroke="#D8413C" stroke-width="0.25" x1="502.6" y1="100.5" x2="502.6" y2="219.6"/>
	<line fill="none" stroke="#D8413C" stroke-width="0.25" x1="511.1" y1="100.5" x2="511.1" y2="219.6"/>
	<line fill="none" stroke="#D8413C" stroke-width="0.25" x1="519.7" y1="100.5" x2="519.7" y2="219.6"/>
	<line fill="none" stroke="#D8413C" stroke-width="0.25" x1="528.2" y1="100.5" x2="528.2" y2="219.6"/>
	<line fill="none" stroke="#D8413C" stroke-width="0.25" x1="536.7" y1="100.5" x2="536.7" y2="219.6"/>
	<line fill="none" stroke="#D8413C" stroke-width="0.25" x1="545.2" y1="100.5" x2="545.2" y2="219.6"/>
	<line fill="none" stroke="#D8413C" stroke-width="0.25" x1="553.7" y1="100.5" x2="553.7" y2="219.6"/>
	<line fill="none" stroke="#D8413C" stroke-width="0.25" x1="562.2" y1="100.5" x2="562.2" y2="219.6"/>
	<line fill="none" stroke="#D8413C" stroke-width="0.25" x1="570.7" y1="100.5" x2="570.7" y2="219.6"/>
	<line fill="none" stroke="#D8413C" stroke-width="0.25" x1="579.2" y1="100.5" x2="579.2" y2="219.6"/>
	<line fill="none" stroke="#D8413C" stroke-width="0.25" x1="587.7" y1="100.5" x2="587.7" y2="219.6"/>
	<line fill="none" stroke="#D8413C" stroke-width="0.25" x1="596.2" y1="100.5" x2="596.2" y2="219.6"/>
	<line fill="none" stroke="#D8413C" stroke-width="0.25" x1="604.7" y1="100.5" x2="604.7" y2="219.6"/>
	<line fill="none" stroke="#D8413C" stroke-width="0.25" x1="613.2" y1="100.5" x2="613.2" y2="219.6"/>
	<line fill="none" stroke="#D8413C" stroke-width="0.25" x1="621.7" y1="100.5" x2="621.7" y2="219.6"/>
	<line fill="none" stroke="#D8413C" stroke-width="0.25" x1="630.2" y1="100.5" x2="630.2" y2="219.6"/>
	<line fill="none" stroke="#D8413C" stroke-width="0.25" x1="638.7" y1="100.5" x2="638.7" y2="219.6"/>
	<line fill="none" stroke="#D8413C" stroke-width="0.25" x1="647.2" y1="100.5" x2="647.2" y2="219.6"/>
	<line fill="none" stroke="#D8413C" stroke-width="0.25" x1="655.7" y1="100.5" x2="655.7" y2="219.6"/>
	<line fill="none" stroke="#D8413C" stroke-width="0.25" x1="664.2" y1="100.5" x2="664.2" y2="219.6"/>
	<line fill="none" stroke="#D8413C" stroke-width="0.25" x1="672.7" y1="100.5" x2="672.7" y2="219.6"/>
	<line fill="none" stroke="#D8413C" stroke-width="0.25" x1="681.2" y1="100.5" x2="681.2" y2="219.6"/>
	<line fill="none" stroke="#D8413C" stroke-width="0.25" x1="689.7" y1="100.5" x2="689.7" y2="219.6"/>
	<line fill="none" stroke="#D8413C" stroke-width="0.25" x1="698.2" y1="100.5" x2="698.2" y2="219.6"/>
	<line fill="none" stroke="#D8413C" stroke-width="0.25" x1="706.7" y1="100.5" x2="706.7" y2="219.6"/>
	<line fill="none" stroke="#D8413C" stroke-width="0.25" x1="715.2" y1="100.5" x2="715.2" y2="219.6"/>
	<line fill="none" stroke="#D8413C" stroke-width="0.25" x1="723.7" y1="100.5" x2="723.7" y2="219.6"/>
	<line fill="none" stroke="#D8413C" stroke-width="0.25" x1="732.3" y1="100.5" x2="732.3" y2="219.6"/>
	<line fill="none" stroke="#D8413C" stroke-width="0.25" x1="740.8" y1="100.5" x2="740.8" y2="219.6"/>
	<line fill="none" stroke="#D8413C" stroke-width="0.25" x1="749.3" y1="100.5" x2="749.3" y2="219.6"/>
	<line fill="none" stroke="#D8413C" stroke-width="0.25" x1="757.8" y1="100.5" x2="757.8" y2="219.6"/>
	<line fill="none" stroke="#D8413C" stroke-width="0.25" x1="766.3" y1="100.5" x2="766.3" y2="219.6"/>
	<line fill="none" stroke="#D8413C" stroke-width="0.25" x1="774.8" y1="100.5" x2="774.8" y2="219.6"/>
	<line fill="none" stroke="#D8413C" stroke-width="0.25" x1="783.3" y1="100.5" x2="783.3" y2="219.6"/>
	<line fill="none" stroke="#D8413C" stroke-width="0.25" x1="791.8" y1="100.5" x2="791.8" y2="219.6"/>
	<line fill="none" stroke="#D8413C" stroke-width="0.25" x1="800.3" y1="100.5" x2="800.3" y2="219.6"/>
	<line fill="none" stroke="#D8413C" stroke-width="0.25" x1="808.8" y1="100.5" x2="808.8" y2="219.6"/>
</g>
<g>
	<line fill="none" stroke="#D8413C" stroke-width="0.25" x1="77.4" y1="211.1" x2="808.9" y2="211.1"/>
	<line fill="none" stroke="#D8413C" stroke-width="0.25" x1="77.4" y1="219.6" x2="808.9" y2="219.6"/>
	<line fill="none" stroke="#D8413C" stroke-width="0.25" x1="77.4" y1="202.6" x2="808.9" y2="202.6"/>
	<line fill="none" stroke="#D8413C" stroke-width="0.25" x1="77.4" y1="194.1" x2="808.9" y2="194.1"/>
	<line fill="none" stroke="#D8413C" stroke-width="0.25" x1="77.4" y1="185.6" x2="808.9" y2="185.6"/>
	<line fill="none" stroke="#D8413C" stroke-width="0.25" x1="77.4" y1="177.1" x2="808.9" y2="177.1"/>
	<line fill="none" stroke="#D8413C" stroke-width="0.25" x1="77.4" y1="168.6" x2="808.9" y2="168.6"/>
	<line fill="none" stroke="#D8413C" stroke-width="0.25" x1="77.4" y1="160.1" x2="808.9" y2="160.1"/>
	<line fill="none" stroke="#D8413C" stroke-width="0.25" x1="77.4" y1="151.6" x2="808.9" y2="151.6"/>
	<line fill="none" stroke="#D8413C" stroke-width="0.25" x1="77.4" y1="143.1" x2="808.9" y2="143.1"/>
	<line fill="none" stroke="#D8413C" stroke-width="0.25" x1="77.4" y1="134.6" x2="808.9" y2="134.6"/>
	<line fill="none" stroke="#D8413C" stroke-width="0.25" x1="77.4" y1="126.1" x2="808.9" y2="126.1"/>
	<line fill="none" stroke="#D8413C" stroke-width="0.25" x1="77.4" y1="117.6" x2="808.9" y2="117.6"/>
	<line fill="none" stroke="#D8413C" stroke-width="0.25" x1="77.4" y1="109" x2="808.9" y2="109"/>
	<line fill="none" stroke="#D8413C" stroke-width="0.25" x1="77.4" y1="100.5" x2="808.9" y2="100.5"/>
</g>
<polyline fill-rule="evenodd" clip-rule="evenodd" fill="none" stroke="#000000" stroke-width="0.25" points="77.4,279.6 
	77.4,287.7 803.4,287.7 803.4,279.6 "/>
<g>
	<rect x="439.4" y="100.6" fill-rule="evenodd" clip-rule="evenodd" fill="#CBCBCB" width="2.2" height="118.2"/>
	<g>
		<g id="形状_2_copy_3_副本_4_68_">
			<g>
				<path fill-rule="evenodd" clip-rule="evenodd" fill="#CCCCCC" d="M95.6,183c-6.2,12.2-11.8,23-18.2,35.7h8.7
					c1.6-3,2.5-4.9,4.5-8.5c4.6,0,8,0,12.5,0c-0.9-2.7-1.6-4.7-2.3-6.8h-6.9c2-4.1,3.2-6.4,6.3-11.9c3.2,9.4,6.5,18.7,9.7,27.2h8
					c-4.5-12.5-8.3-23.3-12.5-35.7H95.6z M119.8,218.7h7.5L129,183l-7.5,0L119.8,218.7z M131.6,218.7h8l1-26.6h-7.6L131.6,218.7z
					 M133.3,183l-0.2,5.7c0,0,5.8,0,7.5,0l0.3-5.7C134.2,183,134.1,183,133.3,183z M182,192.2c-1.3-0.5-2.8-0.7-4.3-0.7
					c-0.9,0-1.8,0.1-2.6,0.2c-0.8,0.2-1.6,0.4-2.2,0.7c-0.7,0.3-1.3,0.7-1.8,1.1c-0.5,0.4-1,0.9-1.3,1.3c-0.3,0.4-0.7,0.9-1.1,1.5
					c-0.3-0.8-0.7-1.5-1-1.9c-0.3-0.4-0.7-0.8-1.1-1.2c-0.4-0.3-0.9-0.7-1.5-0.9c-0.6-0.3-1.3-0.5-2-0.6c-0.7-0.1-1.5-0.2-2.3-0.2
					c-1,0-2.1,0.1-3.1,0.4c-1,0.3-1.8,0.6-2.6,1c-0.7,0.4-1.3,0.9-1.8,1.4c-0.5,0.5-1,1.2-1.5,2l0.2-4.2h-7.1l-1.2,26.6
					c0,0,5.9,0,7.5,0c0-2.3,0.1-5.4,0.3-9.3c0.2-3.9,0.5-6.5,0.9-7.8c0.4-1.3,1.1-2.4,2-3.2c0.9-0.8,2-1.2,3.2-1.2
					c0.7,0,1.3,0.1,1.8,0.3c0.5,0.2,0.9,0.6,1.3,1.1c0.4,0.5,0.6,1,0.8,1.5c0.1,0.5,0.2,1.2,0.2,2c0,1.4-0.1,4.3-0.3,8.4
					c-0.2,4.2-0.4,6.9-0.5,8.2c1.6,0,6,0,7.5,0l0.2-7.3c0.1-2.6,0.2-4.7,0.3-6.3c0.1-1.6,0.4-2.8,0.7-3.7c0.3-0.9,0.7-1.7,1.3-2.3
					c0.5-0.7,1.1-1.2,1.8-1.5c0.6-0.3,1.4-0.4,2.1-0.4c0.8,0,1.4,0.1,2,0.4c0.6,0.3,1.1,0.7,1.5,1.4c0.4,0.6,0.6,1.6,0.6,2.8
					c0,1.1,0,2.3-0.1,3.9l-0.3,6c-0.1,2.5-0.3,4.8-0.5,7.1c1.6,0,6.2,0,7.5,0c0-2,0.1-4.9,0.3-8.5c0.2-3.7,0.3-6.3,0.4-8
					c0.1-1.6,0.2-2.9,0.2-3.7c0-1.6-0.4-2.9-1.2-4C184.4,193.5,183.4,192.7,182,192.2z M210.3,192.1c-1.6-0.4-3.4-0.7-5.3-0.7
					c-1.7,0-3.5,0.1-5.3,0.3c-1.8,0.2-6.3,1.2-6.3,1.2l-0.8,4.9c0,0,7.4-2.3,10.6-2.3c0.9,0,1.6,0.1,2.4,0.3c0.7,0.2,1.3,0.5,1.7,1
					c0.4,0.5,0.7,1,0.7,1.7c0,0.4-0.1,0.7-0.2,1c-0.2,0.3-0.4,0.6-0.7,1c-0.3,0.3-0.7,0.6-1.1,0.7c-0.4,0.2-1,0.4-1.7,0.6
					c-0.7,0.2-1.4,0.4-2.1,0.5c-2.5,0.5-4.5,1.1-6,1.6c-1.5,0.5-2.7,1.1-3.5,1.6c-0.8,0.6-1.5,1.2-2,1.8c-0.5,0.6-0.9,1.3-1.2,2
					c-0.3,0.7-0.4,1.5-0.4,2.2c0,1.3,0.3,2.6,1,3.9c0.7,1.3,1.7,2.2,3.1,2.8c1.4,0.6,3.2,0.9,5.4,0.9c0.6,0,1.3,0,2-0.1
					c0.7,0,1.7-0.2,3-0.4c0.5-2,0.9-3.5,1.3-4.5c-1.1,0.4-1.9,0.6-2.5,0.7c-0.6,0.1-1.2,0.1-1.8,0.1c-0.9,0-1.6-0.1-2.3-0.3
					c-0.6-0.2-1.2-0.6-1.6-1.1c-0.4-0.5-0.6-1.2-0.6-1.9c0-0.4,0.1-0.9,0.3-1.3c0.2-0.4,0.4-0.8,0.8-1.1c0.4-0.4,0.8-0.7,1.4-1
					c0.5-0.3,1.1-0.5,1.8-0.8c0.7-0.2,1.6-0.5,2.7-0.8c1.1-0.3,1.9-0.5,2.3-0.7c0.4-0.1,0.8-0.3,1.2-0.5c0.4-0.2,0.9-0.5,1.5-0.9
					l-0.9,13.9h7.4c0,0,0.2-8.6,0.5-12.6c0.3-4.1,0.4-6.6,0.4-7.6c0-1.8-0.5-3.2-1.4-4.2C213.2,193.3,211.9,192.6,210.3,192.1z
					 M257.1,192.2c-1.3-0.5-2.8-0.7-4.3-0.7c-0.9,0-1.8,0.1-2.6,0.2c-0.8,0.2-1.6,0.4-2.2,0.7c-0.7,0.3-1.3,0.7-1.8,1.1
					c-0.5,0.4-1,0.9-1.3,1.3c-0.3,0.4-0.7,0.9-1.1,1.5c-0.4-0.8-0.7-1.5-1-1.9c-0.3-0.4-0.7-0.8-1.1-1.2c-0.4-0.3-0.9-0.7-1.5-0.9
					c-0.6-0.3-1.3-0.5-2-0.6c-0.7-0.1-1.5-0.2-2.3-0.2c-1,0-2.1,0.1-3.1,0.4c-1,0.3-1.9,0.6-2.6,1c-0.7,0.4-1.3,0.9-1.8,1.4
					c-0.5,0.5-1,1.2-1.5,2l0.2-4.2h-7.1l-1.2,26.6h7.5c0,0,0.1-5.4,0.3-9.3c0.2-3.9,0.5-6.5,0.9-7.8c0.4-1.3,1.1-2.4,2-3.2
					c0.9-0.8,2-1.2,3.2-1.2c0.7,0,1.2,0.1,1.8,0.3c0.5,0.2,0.9,0.6,1.3,1.1c0.4,0.5,0.6,1,0.7,1.5c0.1,0.5,0.2,1.2,0.2,2
					c0,1.4-0.1,4.3-0.3,8.4c-0.2,4.2-0.4,6.9-0.5,8.2c1.6,0,6,0,7.5,0l0.2-7.3c0.1-2.6,0.2-4.7,0.3-6.3c0.1-1.6,0.4-2.8,0.7-3.7
					c0.3-0.9,0.7-1.7,1.3-2.3c0.6-0.7,1.1-1.2,1.8-1.5c0.6-0.3,1.3-0.4,2.1-0.4c0.8,0,1.4,0.1,2,0.4c0.6,0.3,1.1,0.7,1.5,1.4
					c0.4,0.6,0.6,1.6,0.6,2.8c0,1.1,0,2.3-0.1,3.9l-0.3,6c-0.1,2.5-0.3,4.8-0.4,7.1c1.6,0,6.2,0,7.5,0c0-2,0.1-4.9,0.3-8.5
					c0.2-3.7,0.3-6.3,0.4-8c0.1-1.6,0.2-2.9,0.2-3.7c0-1.6-0.4-2.9-1.2-4C259.6,193.5,258.5,192.7,257.1,192.2z M285.4,192.1
					c-1.6-0.4-3.4-0.7-5.3-0.7c-1.7,0-3.5,0.1-5.3,0.3c-1.8,0.2-6.3,1.2-6.3,1.2l-0.8,4.9c0,0,7.4-2.3,10.6-2.3
					c0.9,0,1.6,0.1,2.4,0.3c0.7,0.2,1.3,0.5,1.7,1c0.4,0.5,0.7,1,0.7,1.7c0,0.4-0.1,0.7-0.2,1c-0.1,0.3-0.4,0.6-0.7,1
					c-0.3,0.3-0.7,0.6-1.1,0.7c-0.4,0.2-1,0.4-1.7,0.6c-0.7,0.2-1.4,0.4-2.1,0.5c-2.5,0.5-4.5,1.1-6,1.6c-1.5,0.5-2.7,1.1-3.5,1.6
					c-0.8,0.6-1.5,1.2-2,1.8c-0.5,0.6-0.9,1.3-1.2,2c-0.3,0.7-0.4,1.5-0.4,2.2c0,1.3,0.3,2.6,1,3.9c0.7,1.3,1.7,2.2,3.1,2.8
					c1.4,0.6,3.2,0.9,5.4,0.9c0.6,0,1.3,0,2-0.1c0.7,0,1.7-0.2,3-0.4c0.5-2,0.9-3.5,1.3-4.5c-1,0.4-1.9,0.6-2.5,0.7
					c-0.6,0.1-1.2,0.1-1.8,0.1c-0.9,0-1.6-0.1-2.3-0.3c-0.6-0.2-1.2-0.6-1.6-1.1c-0.4-0.5-0.6-1.2-0.6-1.9c0-0.4,0.1-0.9,0.2-1.3
					c0.2-0.4,0.4-0.8,0.8-1.1c0.4-0.4,0.8-0.7,1.3-1c0.5-0.3,1.1-0.5,1.8-0.8c0.7-0.2,1.5-0.5,2.7-0.8c1.1-0.3,1.9-0.5,2.3-0.7
					c0.4-0.1,0.8-0.3,1.2-0.5c0.3-0.2,0.9-0.5,1.5-0.9l-0.9,13.9h7.4c0,0,0.2-8.6,0.5-12.6c0.3-4.1,0.4-6.6,0.4-7.6
					c0-1.8-0.5-3.2-1.4-4.2C288.3,193.3,287.1,192.6,285.4,192.1z M293.8,211.7c-0.1,3.4-0.2,5.8-0.3,7c2.5,0,7.4,0,7.4,0
					s0.3-5.8,0.4-7C299.3,211.7,293.8,211.7,293.8,211.7z M313.3,199.4c0.8-0.9,1.7-1.5,2.7-1.9c1.1-0.4,2.2-0.6,3.4-0.6
					c1.9,0,4.2,0.4,6.8,1.3l-0.4-5.7c-1.6-0.4-3.1-0.7-4.3-0.8c-1.2-0.1-2.4-0.2-3.5-0.2c-2.1,0-3.9,0.2-5.6,0.7
					c-1.7,0.5-3.2,1.3-4.6,2.6c-1.4,1.3-2.4,2.9-3.1,5c-0.7,2-1.1,4.1-1.1,6.3c0,1.7,0.2,3.3,0.6,4.8c0.4,1.6,1.1,2.9,1.9,4
					c0.9,1.1,1.8,2,3,2.7c1.1,0.7,2.3,1.1,3.7,1.4c1.3,0.3,2.7,0.4,4.1,0.4c2.4,0,4.9-0.3,7.4-0.9c0.2-1.3,0.4-2.5,0.6-3.4
					c0.2-0.9,0.3-1.7,0.4-2.4c-1.3,0.5-2.5,0.8-3.6,1c-1.1,0.2-2.1,0.3-2.9,0.3c-1.6,0-3-0.3-4.3-1c-1.3-0.7-2.1-1.6-2.7-2.8
					c-0.5-1.2-0.8-2.6-0.8-4.3c0-1.2,0.2-2.3,0.5-3.5C312,201.2,312.6,200.2,313.3,199.4z M353.3,195c-1.3-1.2-2.9-2.1-4.7-2.7
					c-1.8-0.6-3.8-0.9-5.8-0.9c-2.2,0-4.3,0.4-6.3,1.1c-2,0.8-3.7,1.8-5,3.2c-1.3,1.4-2.3,2.9-2.9,4.7c-0.6,1.7-0.9,3.6-0.9,5.5
					c0,1.9,0.3,3.7,1,5.4c0.7,1.7,1.7,3.2,3,4.4c1.3,1.2,2.9,2.1,4.7,2.7c1.8,0.6,3.8,0.9,5.8,0.9c2.2,0,4.2-0.3,6.2-1
					c1.9-0.7,3.5-1.7,4.8-3c1.3-1.4,2.3-3,3-4.8c0.7-1.8,1-3.8,1-5.8c0-1.9-0.3-3.7-1-5.4C355.6,197.7,354.6,196.2,353.3,195z
					 M348.9,209.6c-0.6,1.5-1.5,2.6-2.6,3.4c-1.2,0.8-2.5,1.1-4,1.1c-1.5,0-2.8-0.4-3.9-1.1c-1.1-0.7-1.9-1.7-2.4-2.9
					c-0.5-1.2-0.7-2.5-0.7-4.1c0-1.7,0.3-3.3,0.9-4.8c0.6-1.5,1.5-2.6,2.7-3.3c1.2-0.7,2.6-1.1,4.1-1.1c1.5,0,2.8,0.4,3.9,1.1
					c1.1,0.7,1.8,1.7,2.3,2.9c0.5,1.2,0.7,2.5,0.7,4C349.7,206.5,349.4,208.2,348.9,209.6z M400.3,194.6c-0.8-1.1-1.8-1.9-3.2-2.4
					c-1.3-0.5-2.8-0.7-4.3-0.7c-0.9,0-1.8,0.1-2.6,0.2c-0.8,0.2-1.6,0.4-2.2,0.7c-0.7,0.3-1.3,0.7-1.8,1.1c-0.5,0.4-1,0.9-1.3,1.3
					c-0.3,0.4-0.7,0.9-1.1,1.5c-0.3-0.8-0.7-1.5-1-1.9c-0.3-0.4-0.7-0.8-1.1-1.2c-0.4-0.3-0.9-0.7-1.6-0.9c-0.6-0.3-1.3-0.5-2-0.6
					c-0.7-0.1-1.5-0.2-2.3-0.2c-1,0-2.1,0.1-3.1,0.4c-1,0.3-1.9,0.6-2.6,1c-0.7,0.4-1.3,0.9-1.8,1.4c-0.5,0.5-1,1.2-1.5,2l0.2-4.2
					c-1.2,0-5.6,0-7.1,0c0,3-0.9,23.7-1.2,26.6c1.6,0,5.9,0,7.5,0c0-2.3,0.1-5.4,0.3-9.3c0.2-3.9,0.5-6.5,0.9-7.8
					c0.4-1.3,1.1-2.4,2-3.2c0.9-0.8,2-1.2,3.2-1.2c0.7,0,1.3,0.1,1.8,0.3c0.5,0.2,1,0.6,1.3,1.1c0.4,0.5,0.6,1,0.7,1.5
					c0.1,0.5,0.2,1.2,0.2,2c0,1.4-0.1,4.3-0.3,8.4c-0.2,4.2-0.4,6.9-0.5,8.2c1.6,0,6,0,7.5,0l0.2-7.3c0.1-2.6,0.2-4.7,0.3-6.3
					c0.1-1.6,0.4-2.8,0.7-3.7c0.3-0.9,0.7-1.7,1.3-2.3c0.5-0.7,1.1-1.2,1.8-1.5c0.6-0.3,1.4-0.4,2.1-0.4c0.8,0,1.4,0.1,2,0.4
					c0.6,0.3,1.1,0.7,1.5,1.4c0.4,0.6,0.6,1.6,0.6,2.8c0,1.1,0,2.3-0.1,3.9l-0.3,6c-0.1,2.5-0.3,4.8-0.4,7.1c1.6,0,6.2,0,7.5,0
					c0-2,0.1-4.9,0.3-8.5c0.2-3.7,0.3-6.3,0.4-8c0.1-1.6,0.2-2.9,0.2-3.7C401.5,197,401.1,195.7,400.3,194.6z"/>
			</g>
		</g>
		<g id="形状_2_copy_3_副本_5_49_">
			<g>
				<path fill-rule="evenodd" clip-rule="evenodd" fill="#FF6600" d="M108.7,108.3c11.1,0,22.3,0,33.4,0c0,16.6,0,33.8,0,49.3
					c0,1-1.3,2.4-2.6,2.5c-1.8,0-2.5,0-4.7,0v8c2.6,0,4.8,0,7.3,0c6.4,0,10.7-3.1,10.7-8.5c0-12.8,0-38.2,0-51.4h3.9v-7.7h-48V108.3
					z M307.1,157.9c3.6,0,2.2,0,5.8,0c2.1,0,4.9-1.7,4.9-5c0-8.5,0-15.1,0-23.6c-1.6,0-3.3,0-4.7,0c0-6.5,0-19.8,0-24.6
					c0-2-1.9-4.1-4.4-4.1h-35v7.7h27c0,7,0,14.1,0,21c-6.4,0-7.4,0-13,0c-0.7,0-1.6-0.8-1.6-1.4c0-3.5,0-9.2,0-13.8
					c0-1.1-1.1-2.3-2.8-2.3h-8v18.6c0,3.6,3.1,6.6,6.6,6.6c0,0,13.7,0,25.1,0v6.9h-27.8c-3.1,0-7.8,2.9-7.8,7.8
					c9.7,0,25.1-0.2,35.6-0.2C307.1,153.5,307.1,155.5,307.1,157.9z M137,146.2c0-8.8,0-21.3,0-33.3h-27.8v42.4c8.1,0,18.4,0,18.4,0
					C134.7,155.3,137,151.3,137,146.2z M125.2,147.6c-2,0-4.2,0-7,0v-26.5c3,0,6.5,0,9.5,0c0,8,0,16.9,0,23.9
					C127.6,146.5,126.8,147.6,125.2,147.6z M77.4,102.5c0,15.2,0,35.1,0,65.6h10.3c0-19.1,0-40,0-59.8c2.4,0,5.3,0,7.7,0
					c0,11.5,0,21.8,0,32.5c0,4.4-3.9,6-3.9,6v8.5c7.2,0,13.7-7.5,13.7-14.3c0-12.3,0-28,0-40.4c-9.3,0-16.4,0-25.7,0
					C77.4,100.5,77.4,102.5,77.4,102.5z M397.9,129.3c0-6.5,0-19.8,0-24.6c0-2-2-4.1-4.4-4.1h-35v7.7c8.9,0,18,0,27,0v21
					c-6.4,0-7.4,0-13,0c-0.7,0-1.6-0.8-1.6-1.4c0-3.5,0-9.2,0-13.8c0-1.1-1.1-2.3-2.8-2.3c-2.2,0-5.4,0-8,0v18.6
					c0,3.6,3.1,6.6,6.6,6.6c0,0,13.7,0,25.1,0v6.9h-27.5c-3.1,0-8,2.7-8,7.6c9.7,0,24.9,0,35.4,0v7.2c0,1.2-1,1.8-2.3,1.8h-4.1
					c0,3.5,0,5.4,0,7.7h6.2c1.9,0,1.5,0,3.4,0c5.2,0,7.5-3.7,7.4-6.7c0-9.7,0.1-22.4,0.1-32.1C401,129.3,399.3,129.3,397.9,129.3z
					 M348.3,155.3c3.7-4.1,5.8-9,6.3-18.3c0-10.1,0-19.8,0-29.8c0-0.8-1.1-2-2.1-1.9c-3.9,0-8.9,0-13.2,0v-4.7H329
					c0,1.6,0,3.1,0,4.7c-1.1,0-2.4,0-3.4,0v7.7h3.4v24c0,9.3,3.1,14,6.9,18.3c-4.6,3.1-9.2,5.1-15.4,5.1c-0.9,0-1.7,0-2.6,0
					c-9.6,0-21.3,0-31.6,0c-9.7,0-19-1.8-22.5-6c3.3-4.5,5.1-8.1,6.1-17.4c0-9.3,0-17.2,0-29.2c-0.1-1.3-1.3-2.5-2.5-2.5
					c-4.1,0-8.1,0-13.1,0v-4.7c-4.2,0-5.8,0-10,0v4.7c-1.1,0-2,0-3.4,0v7.7c1.5,0,2.3,0,3.4,0c0,7.9,0,16.7,0,24
					c0.8,9.3,3.7,12.4,7.3,17.8c-5.2,3.6-11.6,5.2-19,5.6c-8.8,0-16.8,0-27.9,0c0-1.9,0-4.6,0-6h27.9v-8.1h-27.9c0-1.9,0-4,0-6
					c8,0,18.6,0,21,0c0,0,6.8,0,6.9-7.5c0.1-7.8,0-21.8,0-32.3c-22,0-44.4,0-66.5,0c-1.1,0-2.1,1.1-2.1,2c0,1.6,0,26.2,0,37.8
					c9.3,0,18.6,0,27.9,0v6H164c0,2.5,0,5.5,0,8.1h27.8c0,2,0,4,0,6h-32.6c0,2.2,0,5.2,0,7.6c24.5,0,54.7,0.1,78.5,0
					c6.4,0,14.4-3.3,20.1-6.7c7.2,5.6,15.2,6.7,28.3,6.7c4,0,8.4,0,13.3,0c6.9,0,13,0,18.4,0c11.1,0,18.1-2.4,24.9-6.4
					c6.2,3.7,12.2,6.1,21.9,6.4v0h14.8v-7.7h-14.8C358,159.8,352.6,158.8,348.3,155.3z M191.7,132.6h-17.1v-8.1h17.1V132.6z
					 M191.8,116.4h-17.1v-8.1c5.7,0,11.4,0,17.1,0V116.4z M204.7,108.3h17.1v8.1h-17.1V108.3z M204.7,124.5c5.7,0,11.4,0,17.1,0
					c0,3.2,0,5.8,0,8.1h-17.1C204.6,130.5,204.6,127.1,204.7,124.5z M260.1,137c-0.4,5.4-1.2,6.6-2.5,10.2c-1.6-3.3-3-4.8-3.4-10.2
					c0-7,0-16.7,0-24h5.9V137z M345,137c-0.2,5-1.4,7.4-2.7,10.1c-1.6-2.6-3-5.5-3-10.1c0-7.4,0-16.4,0-24h5.7
					C345,120.7,345,129.5,345,137z"/>
			</g>
		</g>
	</g>
	<g>
		<rect x="594.5" y="128.4" fill="#333333" width="13.9" height="4.7"/>
		<polygon fill="#333333" points="593.5,123.9 588.3,137.8 594.8,137.8 600,123.9 		"/>
		<rect x="589.1" y="138.7" fill="#333333" width="17.5" height="4.5"/>
		<rect x="588" y="150.5" fill="#333333" width="19.6" height="4.5"/>
		<rect x="594" y="142.7" fill="#333333" width="6.8" height="24.8"/>
		<polygon fill="#333333" points="607.1,162.3 607.1,167.6 594,172.4 594,166.7 		"/>
		<rect x="619.4" y="123.9" fill="#333333" width="6.8" height="23.3"/>
		<rect x="625.8" y="132.5" fill="#333333" width="13.3" height="4.6"/>
		<path fill="#333333" d="M637.1,147h-27v3.8v0.8v16.9v0.6v3.3h20.4h0.9c3.2,0,5.7-2.6,5.7-5.7c0,0,0-15.1,0-15.1h0V147z
			 M630.4,166.6v2h-13.9v-16.9h13.9V166.6z"/>
		<rect x="645.3" y="125.7" fill="#333333" width="49.1" height="5"/>
		<polygon fill="#333333" points="661.4,130.7 642.5,158.7 650.2,158.7 669.1,130.7 		"/>
		<rect x="660.2" y="142.4" fill="#333333" width="25.1" height="4.9"/>
		<rect x="653.9" y="143.5" fill="#333333" width="6.8" height="23.6"/>
		<rect x="653.9" y="166.8" fill="#333333" width="29.8" height="4.9"/>
		<rect x="683.5" y="142.4" fill="#333333" width="6.8" height="22.5"/>
		<path fill="#333333" d="M683.8,158.5c-0.1,0-0.2,0-0.3,0v8.2h-6c0.7,2.8,3.3,4.9,6.3,4.9c3.6,0,6.5-2.9,6.5-6.5
			C690.3,161.5,687.4,158.5,683.8,158.5z"/>
		<rect x="701.8" y="123.9" fill="#333333" width="43.9" height="4.5"/>
		<rect x="701.8" y="127.6" fill="#333333" width="6.8" height="29.5"/>
		<rect x="708.2" y="132.8" fill="#333333" width="30.9" height="4.2"/>
		<path fill="#333333" d="M745.7,127.4h-2c-0.9-0.8-2.2-1.3-3.5-1.3v1.3h-1.2v3.5v0.3v5.9h1.2c3,0,5.4-2.4,5.4-5.4
			c0-0.1,0-0.3,0-0.4h0V127.4z"/>
		<rect x="708.4" y="141.9" fill="#333333" width="37.6" height="3.9"/>
		<rect x="708.5" y="151.2" fill="#333333" width="37.5" height="4.1"/>
		<rect x="716.6" y="136.7" fill="#333333" width="6.6" height="16.4"/>
		<rect x="730.9" y="136.1" fill="#333333" width="6.6" height="16.4"/>
		<rect x="712.2" y="155.2" fill="#333333" width="6.6" height="12.6"/>
		<polygon fill="#333333" points="726.9,164.3 712.2,167 712.2,172.4 726.9,169 		"/>
		<polygon fill="#333333" points="723.7,156.1 731.8,156.1 746,172.4 738,172.4 		"/>
		<polygon fill="#333333" points="739.4,156.1 746.7,156.1 739.4,165.5 735.5,161 		"/>
		<polyline fill="#333333" points="701.8,157.2 698.9,171.3 705.7,171.3 708.6,157.2 		"/>
		<rect x="781" y="123.9" fill="#333333" width="8.1" height="6.9"/>
		<rect x="767.7" y="130.2" fill="#333333" width="29.3" height="4.7"/>
		<rect x="766.8" y="168.1" fill="#333333" width="36.6" height="4.4"/>
		<polygon fill="#333333" points="771.1,138.8 778.1,138.8 782.5,168.1 775.6,168.1 		"/>
		<polygon fill="#333333" points="791.2,138.8 798.2,138.8 793.7,168.1 786.8,168.1 		"/>
		<rect x="758.5" y="137.2" fill="#333333" width="6.6" height="35.2"/>
		<polygon fill="#333333" points="762.1,123.9 750.9,146.1 758.1,146.1 769.1,123.9 		"/>
		<path fill="#333333" d="M792.4,130.2c0.1,2.6,2.2,4.7,4.8,4.7c2.6,0,4.8-2.1,4.8-4.7H792.4z"/>
		<g>
			<path fill="#999999" d="M593.6,198c0,1.8-0.6,2.8-1.8,2.8c-0.5,0.1-1.1,0.1-1.8,0.1c0-0.1,0-0.1-0.1-0.2c-0.1-0.6-0.1-1-0.2-1.2
				c0.2,0,0.4,0,0.6,0c0.5,0.1,0.8,0.1,1,0c0.7,0,1-0.5,1-1.5c0-1.4-0.6-2.8-1.8-4.3c0.4-1.1,0.9-2.8,1.5-5.3h-2.4v15.6h-1.4V187
				h5.2v1.3c-0.9,2.7-1.4,4.4-1.6,5C593,194.9,593.6,196.5,593.6,198z M594.2,187.2h11.3v1.4h-1.7v12.3c0.1,1.9-0.8,2.8-2.6,2.7
				c-0.5,0.1-1.4,0.1-2.7,0.1c-0.1-0.3-0.1-0.6-0.2-1c-0.1-0.3-0.2-0.5-0.2-0.6c0.7,0,1.6,0.1,2.7,0.1c1,0,1.5-0.4,1.4-1.2v-12.3
				h-8.2V187.2z M594.8,191.1h5.6v8h-5.6V191.1z M596.1,192.4v5.4h3v-5.4H596.1z"/>
			<path fill="#999999" d="M616.8,198.1h7.3V196h-6.6v-9.1H632v9.1h-6.6v2.1h7.3v1.3h-7.3v2.4h8.5v1.2h-18.3v-1.2h8.4v-2.4h-7.3
				V198.1z M618.8,188.1v2.7h5.2v-2.7H618.8z M618.8,192.1v2.7h5.2v-2.7H618.8z M630.7,188.1h-5.2v2.7h5.2V188.1z M625.4,192.1v2.7
				h5.2v-2.7H625.4z"/>
			<path fill="#999999" d="M651.4,201.1l-1.1,1c-0.3-0.2-0.7-0.6-1.3-1.2c-0.3-0.3-0.5-0.5-0.6-0.6c-0.7,1.1-1.9,2.3-3.5,3.7
				c-0.3-0.4-0.5-0.8-0.8-1.2c1.3-0.9,2.4-2.1,3.3-3.4c-0.3-0.3-0.7-0.7-1.3-1.2c-0.6-0.6-1-1-1.3-1.2c0.3-1.1,0.7-2.9,1.2-5.6h-1.7
				V190h1.8c0.1-0.7,0.3-1.8,0.5-3.2c0-0.4,0.1-0.6,0.1-0.8l1.4,0.2c-0.1,0.5-0.2,1.3-0.3,2.3c-0.1,0.7-0.2,1.1-0.2,1.4h3.3v1.3
				c-0.3,3.4-0.9,5.9-1.8,7.6C649.8,199.6,650.6,200.3,651.4,201.1z M649.5,191.3h-2.2c-0.3,2-0.7,3.7-1.1,5.1
				c0.3,0.2,0.7,0.6,1.2,1.1c0.3,0.3,0.5,0.4,0.6,0.5C648.8,196.3,649.3,194.1,649.5,191.3z M651.1,198.2h8.1v1.4h-8.1V198.2z
				 M654.2,189.1l-0.5,5.3h4.6l0.6-6.4h-7.6v-1.3h9.1l-0.8,7.7h1.8c-0.1,3.2-0.2,5.4-0.3,6.5c-0.1,1.8-1.1,2.7-3.1,2.7
				c-1.2,0-2.2,0-3,0c-0.1-0.3-0.1-0.7-0.2-1.1c-0.1-0.3-0.1-0.4-0.1-0.5c0.4,0,1.4,0.1,3.1,0.1c1.1,0,1.7-0.5,1.7-1.5
				c0.1-1,0.2-2.6,0.3-4.9h-8l0.6-6.5H654.2z"/>
			<path fill="#999999" d="M679.7,201.1l-1.1,1c-0.3-0.2-0.7-0.6-1.3-1.2c-0.3-0.3-0.5-0.5-0.6-0.6c-0.7,1.1-1.9,2.3-3.5,3.7
				c-0.3-0.4-0.5-0.8-0.8-1.2c1.3-0.9,2.4-2.1,3.3-3.4c-0.3-0.3-0.7-0.7-1.3-1.2c-0.6-0.6-1-1-1.3-1.2c0.3-1.1,0.7-2.9,1.2-5.6h-1.7
				V190h1.8c0.1-0.7,0.3-1.8,0.5-3.2c0-0.4,0.1-0.6,0.1-0.8l1.4,0.2c-0.1,0.5-0.2,1.3-0.3,2.3c-0.1,0.7-0.2,1.1-0.2,1.4h3.3v1.3
				c-0.3,3.4-0.9,5.9-1.8,7.6C678.2,199.6,679,200.3,679.7,201.1z M677.8,191.3h-2.2c-0.3,2-0.7,3.7-1.1,5.1
				c0.3,0.2,0.7,0.6,1.2,1.1c0.3,0.3,0.5,0.4,0.6,0.5C677.1,196.3,677.6,194.1,677.8,191.3z M679.4,198.2h8.1v1.4h-8.1V198.2z
				 M682.6,189.1l-0.5,5.3h4.6l0.6-6.4h-7.6v-1.3h9.1l-0.8,7.7h1.8c-0.1,3.2-0.2,5.4-0.3,6.5c-0.1,1.8-1.1,2.7-3.1,2.7
				c-1.2,0-2.2,0-3,0c-0.1-0.3-0.1-0.7-0.2-1.1c-0.1-0.3-0.1-0.4-0.1-0.5c0.4,0,1.4,0.1,3.1,0.1c1.1,0,1.7-0.5,1.7-1.5
				c0.1-1,0.2-2.6,0.3-4.9h-8l0.6-6.5H682.6z"/>
			<path fill="#999999" d="M700.9,188.9h6.5v1.2h-3.5c0,0.9,0,1.8,0,2.7h3.2c0,3.4-0.1,6-0.2,7.8c0,1.9-0.8,2.8-2.3,2.7
				c-0.8,0-1.2,0-1.4,0c-0.1-0.4-0.1-0.8-0.2-1.4c0.7,0.1,1.2,0.1,1.5,0.1c0.8,0,1.1-0.4,1.1-1.4c0.1-1.1,0.2-3.3,0.2-6.6h-2
				c0,0.5,0,0.9,0,1.3c-0.1,3.9-0.8,6.6-2.3,8.4c-0.3-0.3-0.6-0.7-0.9-1.1c1.2-1.4,1.8-3.8,1.8-7.2c0-0.5,0.1-1.4,0.1-2.7
				c0.1-1.1,0.1-2,0.1-2.7h-1.7V188.9z M703.2,186.4l1.2-0.5c0.1,0.2,0.2,0.5,0.4,0.8c0.3,0.7,0.6,1.3,0.8,1.8l-1.3,0.5
				C704,188.1,703.7,187.3,703.2,186.4z M711.3,200.4l0.9,1c-0.2,0.1-0.4,0.2-0.6,0.4c-1.3,1-2.5,1.7-3.4,2.2
				c-0.3-0.4-0.6-0.7-0.9-1.1C708.7,202.2,710,201.4,711.3,200.4z M707.6,189.8c0.9-1,1.7-2.4,2.4-4l1.3,0.4
				c-0.2,0.3-0.3,0.6-0.5,1.1c-0.1,0.2-0.2,0.4-0.2,0.5h8.2v1.3h-9c-0.4,0.6-0.8,1.2-1.3,1.8c-0.1,0-0.1-0.1-0.2-0.2
				C708,190.2,707.8,190,707.6,189.8z M709.6,189.8h1.3v1.4h4.5v-1.4h1.3v1.4h1.8v1.2h-1.8v6.6h2.2v1.2h-11.2v-1.2h2v-6.6h-1.8v-1.2
				h1.8V189.8z M710.9,192.5v1.4h4.5v-1.4H710.9z M710.9,195.1v1.4h4.5v-1.4H710.9z M710.9,197.7v1.4h4.5v-1.4H710.9z M714.2,201.3
				l0.8-0.9c1.2,0.8,2.5,1.6,3.8,2.5l-1,1.1C716.7,203,715.5,202.1,714.2,201.3z"/>
			<path fill="#999999" d="M738.7,192.3c2.8,1.5,5.2,2.8,7.4,4l-1,1.4c-2.7-1.7-5.1-3-7-4v10.1h-1.5v-14.9h-7.4v-1.4h17.9v1.4h-9
				v4.4L738.7,192.3z"/>
			<path fill="#999999" d="M759.4,193.3h8.7c0.8-1,1.5-2.2,2.3-3.7l1.4,0.9c-0.8,1.1-1.5,2-2,2.7h5.5v1.3h-14.3v1.3
				c0.1,3.5-0.7,6.2-2.4,8.1c-0.3-0.4-0.6-0.8-1-1.2c1.4-1.3,2.1-3.6,2-6.9V193.3z M765.5,186.3l1.4-0.5c0,0.1,0.1,0.3,0.2,0.6
				c0.3,0.7,0.4,1.2,0.5,1.6h7.9v1.3h-17.8v-1.3h8.3C766,187.5,765.8,186.9,765.5,186.3z M761.6,190.4l1.3-0.8
				c0.1,0.2,0.3,0.4,0.5,0.7c0.8,1,1.3,1.7,1.5,2.1l-1.3,0.9C762.9,192.1,762.2,191.1,761.6,190.4z"/>
			<path fill="#999999" d="M786.8,195.5h7v8.4h-1.4v-1.2h-4.2v1.2h-1.4V195.5z M788.2,196.8v4.7h4.2v-4.7H788.2z M788.6,186.8h12.6
				v6.7h-12.6V186.8z M790.1,188.1v4.1h9.7v-4.1H790.1z M796.1,195.5h7v8.4h-1.4v-1.2h-4.2v1.2h-1.4V195.5z M797.5,196.8v4.8h4.2
				v-4.8H797.5z"/>
		</g>
		<g>
			<g>
				<polygon fill="#BCD0FF" points="492.5,125.8 526.5,130.6 560.2,125.6 526.3,123.4 				"/>
				<polygon fill="#6491FF" points="492.5,125.8 478.4,135.7 487.2,149.4 490.8,138.8 				"/>
				<polygon fill="#4077FF" points="490.8,138.8 509.9,152.4 526.3,195.1 487.2,149.4 				"/>
				<polygon fill="#95B4FF" points="513.2,128.7 490.8,138.8 492.5,125.8 				"/>
				<polygon fill="#BCD0FF" points="509.9,152.4 513.2,128.7 490.8,138.8 				"/>
				<polygon fill="#95B4FF" points="513.2,128.7 526.4,140.2 509.9,152.4 				"/>
				<polygon fill="#95B4FF" points="513.2,128.7 526.5,130.6 539.7,128.6 526.4,140.2 				"/>
				<polygon fill="#6491FF" points="526.4,140.2 509.9,152.4 526.3,195.1 				"/>
				<polygon fill="#BCD0FF" points="539.7,128.6 526.4,140.2 543,152.1 				"/>
				<polygon fill="#4F82FF" points="526.4,140.2 543,152.1 526.3,195.1 				"/>
				<polygon fill="#95B4FF" points="539.7,128.6 562.2,138.5 543,152.1 				"/>
				<polygon fill="#95B4FF" points="562.2,138.5 565.7,149.6 526.4,195 543,152.1 				"/>
				<polygon fill="#BCD0FF" points="560.2,125.6 562.2,138.5 565.7,149.6 574.6,135.5 				"/>
			</g>
			<polygon fill="#7AA1FF" points="560.2,125.6 562.2,138.5 539.7,128.6 			"/>
		</g>
	</g>
</g>
</svg>
