<?xml version="1.0" encoding="utf-8"?>
<!-- Generator: Adobe Illustrator 17.1.0, SVG Export Plug-In . SVG Version: 6.00 Build 0)  -->
<!DOCTYPE svg PUBLIC "-//W3C//DTD SVG 1.1//EN" "http://www.w3.org/Graphics/SVG/1.1/DTD/svg11.dtd">
<svg version="1.1" id="图层_1" xmlns="http://www.w3.org/2000/svg" xmlns:xlink="http://www.w3.org/1999/xlink" x="0px" y="0px"
	 viewBox="0 0 838 254.2" enable-background="new 0 0 838 254.2" xml:space="preserve">
<rect x="0.2" y="29.3" fill="#E5E5E5" width="794" height="187.2"/>
<rect x="34.2" y="63.3" fill="#FFFFFF" width="725.9" height="119.1"/>
<rect x="0.2" y="29.3" fill="#CBCBCB" width="34" height="34"/>
<rect x="0.2" y="182.4" fill="#CBCBCB" width="34" height="34"/>
<rect x="760.2" y="29.3" fill="#CBCBCB" width="34" height="34"/>
<rect x="760.2" y="182.4" fill="#CBCBCB" width="34" height="34"/>
<polyline fill="none" stroke="#211816" stroke-width="0.25" points="0.2,23.3 0.2,12.6 34.2,12.6 34.2,22.8 "/>
<g>
	<path d="M11.4,2c0.1-0.4,0.3-0.7,0.5-1c0.2-0.3,0.5-0.5,0.9-0.6c0.4-0.2,0.8-0.2,1.2-0.2c0.4,0,0.7,0.1,1,0.2
		c0.3,0.1,0.6,0.3,0.8,0.5c0.2,0.2,0.4,0.5,0.6,0.8c0.1,0.3,0.2,0.7,0.2,1.1c0,0.4-0.1,0.7-0.2,1c-0.1,0.3-0.3,0.5-0.5,0.8
		c-0.2,0.2-0.4,0.4-0.7,0.6s-0.5,0.4-0.8,0.5c-0.3,0.2-0.5,0.3-0.8,0.5c-0.3,0.2-0.5,0.3-0.7,0.5c-0.2,0.2-0.4,0.4-0.6,0.6
		c-0.2,0.2-0.3,0.4-0.3,0.7h4.4v0.9H11c0-0.5,0.1-0.9,0.3-1.3c0.1-0.4,0.3-0.7,0.5-0.9C12,6.2,12.3,6,12.6,5.8
		c0.3-0.2,0.6-0.4,0.9-0.6c0.4-0.2,0.7-0.4,0.9-0.6C14.6,4.4,14.9,4.2,15,4c0.2-0.2,0.3-0.4,0.4-0.6s0.1-0.5,0.1-0.8
		c0-0.2,0-0.4-0.1-0.6c-0.1-0.2-0.2-0.3-0.4-0.5c-0.1-0.1-0.3-0.2-0.5-0.3s-0.4-0.1-0.6-0.1c-0.3,0-0.5,0.1-0.8,0.2
		c-0.2,0.1-0.4,0.3-0.5,0.5c-0.1,0.2-0.2,0.4-0.3,0.7s-0.1,0.5-0.1,0.8h-1C11.2,2.7,11.3,2.3,11.4,2z"/>
	<path d="M22.9,8.8c-0.3,0-0.5-0.1-0.6-0.2c-0.2-0.1-0.2-0.4-0.2-0.7c-0.3,0.3-0.6,0.6-1,0.7c-0.4,0.1-0.8,0.2-1.2,0.2
		c-0.3,0-0.5,0-0.8-0.1c-0.2-0.1-0.5-0.2-0.7-0.3c-0.2-0.1-0.3-0.3-0.4-0.5c-0.1-0.2-0.2-0.5-0.2-0.8c0-0.4,0.1-0.6,0.2-0.9
		s0.3-0.4,0.5-0.5s0.4-0.2,0.7-0.3s0.5-0.1,0.8-0.2c0.3-0.1,0.5-0.1,0.8-0.1s0.5-0.1,0.7-0.1s0.3-0.1,0.5-0.2C22,4.6,22,4.4,22,4.3
		c0-0.2,0-0.4-0.1-0.5s-0.2-0.2-0.3-0.3c-0.1-0.1-0.3-0.1-0.4-0.1c-0.2,0-0.3,0-0.5,0c-0.4,0-0.8,0.1-1.1,0.2s-0.4,0.5-0.5,0.9h-1
		c0-0.4,0.1-0.7,0.2-1c0.1-0.3,0.3-0.5,0.6-0.6c0.2-0.2,0.5-0.3,0.8-0.4c0.3-0.1,0.6-0.1,1-0.1c0.3,0,0.6,0,0.8,0.1
		c0.3,0,0.5,0.1,0.8,0.2s0.4,0.3,0.5,0.5C23,3.4,23,3.7,23,4v3.2c0,0.2,0,0.4,0,0.5s0.1,0.2,0.3,0.2c0.1,0,0.2,0,0.3-0.1v0.8
		C23.5,8.8,23.2,8.8,22.9,8.8z M21.5,5.7c-0.2,0-0.4,0.1-0.7,0.1c-0.2,0-0.5,0.1-0.7,0.1c-0.2,0-0.4,0.1-0.6,0.2
		c-0.2,0.1-0.3,0.2-0.5,0.3C19,6.5,18.9,6.7,18.9,7c0,0.2,0,0.3,0.1,0.4c0.1,0.1,0.2,0.2,0.3,0.3s0.2,0.1,0.4,0.2c0.1,0,0.3,0,0.5,0
		c0.3,0,0.6,0,0.9-0.1c0.2-0.1,0.4-0.2,0.6-0.3c0.2-0.1,0.3-0.3,0.3-0.5S22,6.7,22,6.5v-1C21.9,5.6,21.7,5.6,21.5,5.7z"/>
</g>
<polyline fill="none" stroke="#211816" stroke-width="0.25" points="760.2,23.3 760.2,12.6 794.2,12.6 794.2,22.8 "/>
<g>
	<path d="M771.3,2c0.1-0.4,0.3-0.7,0.5-1c0.2-0.3,0.5-0.5,0.9-0.6c0.4-0.2,0.8-0.2,1.2-0.2c0.4,0,0.7,0.1,1,0.2
		c0.3,0.1,0.6,0.3,0.8,0.5c0.2,0.2,0.4,0.5,0.6,0.8c0.1,0.3,0.2,0.7,0.2,1.1c0,0.4-0.1,0.7-0.2,1c-0.1,0.3-0.3,0.5-0.5,0.8
		c-0.2,0.2-0.4,0.4-0.7,0.6s-0.5,0.4-0.8,0.5c-0.3,0.2-0.5,0.3-0.8,0.5c-0.3,0.2-0.5,0.3-0.7,0.5c-0.2,0.2-0.4,0.4-0.6,0.6
		c-0.2,0.2-0.3,0.4-0.3,0.7h4.4v0.9H771c0-0.5,0.1-0.9,0.3-1.3c0.1-0.4,0.3-0.7,0.5-0.9c0.2-0.3,0.5-0.5,0.7-0.7
		c0.3-0.2,0.6-0.4,0.9-0.6c0.4-0.2,0.7-0.4,0.9-0.6c0.3-0.2,0.5-0.4,0.7-0.6c0.2-0.2,0.3-0.4,0.4-0.6s0.1-0.5,0.1-0.8
		c0-0.2,0-0.4-0.1-0.6c-0.1-0.2-0.2-0.3-0.4-0.5c-0.1-0.1-0.3-0.2-0.5-0.3s-0.4-0.1-0.6-0.1c-0.3,0-0.5,0.1-0.8,0.2
		c-0.2,0.1-0.4,0.3-0.5,0.5c-0.1,0.2-0.2,0.4-0.3,0.7s-0.1,0.5-0.1,0.8h-1C771.2,2.7,771.2,2.3,771.3,2z"/>
	<path d="M782.9,8.8c-0.3,0-0.5-0.1-0.6-0.2c-0.2-0.1-0.2-0.4-0.2-0.7c-0.3,0.3-0.6,0.6-1,0.7c-0.4,0.1-0.8,0.2-1.2,0.2
		c-0.3,0-0.5,0-0.8-0.1c-0.2-0.1-0.5-0.2-0.7-0.3c-0.2-0.1-0.3-0.3-0.4-0.5c-0.1-0.2-0.2-0.5-0.2-0.8c0-0.4,0.1-0.6,0.2-0.9
		s0.3-0.4,0.5-0.5s0.4-0.2,0.7-0.3s0.5-0.1,0.8-0.2c0.3-0.1,0.5-0.1,0.8-0.1s0.5-0.1,0.7-0.1s0.3-0.1,0.5-0.2
		c0.1-0.1,0.2-0.2,0.2-0.4c0-0.2,0-0.4-0.1-0.5s-0.2-0.2-0.3-0.3c-0.1-0.1-0.3-0.1-0.4-0.1c-0.2,0-0.3,0-0.5,0
		c-0.4,0-0.8,0.1-1.1,0.2s-0.4,0.5-0.5,0.9h-1c0-0.4,0.1-0.7,0.2-1c0.1-0.3,0.3-0.5,0.6-0.6c0.2-0.2,0.5-0.3,0.8-0.4
		c0.3-0.1,0.6-0.1,1-0.1c0.3,0,0.6,0,0.8,0.1c0.3,0,0.5,0.1,0.8,0.2s0.4,0.3,0.5,0.5c0.1,0.2,0.2,0.5,0.2,0.9v3.2c0,0.2,0,0.4,0,0.5
		s0.1,0.2,0.3,0.2c0.1,0,0.2,0,0.3-0.1v0.8C783.4,8.8,783.2,8.8,782.9,8.8z M781.5,5.7c-0.2,0-0.4,0.1-0.7,0.1
		c-0.2,0-0.5,0.1-0.7,0.1c-0.2,0-0.4,0.1-0.6,0.2c-0.2,0.1-0.3,0.2-0.5,0.3c-0.1,0.1-0.2,0.4-0.2,0.6c0,0.2,0,0.3,0.1,0.4
		c0.1,0.1,0.2,0.2,0.3,0.3s0.2,0.1,0.4,0.2c0.1,0,0.3,0,0.5,0c0.3,0,0.6,0,0.9-0.1c0.2-0.1,0.4-0.2,0.6-0.3c0.2-0.1,0.3-0.3,0.3-0.5
		s0.1-0.3,0.1-0.5v-1C781.8,5.6,781.7,5.6,781.5,5.7z"/>
</g>
<polyline fill="none" stroke="#211816" stroke-width="0.25" points="802.9,182.4 813.5,182.4 813.5,216.4 803.4,216.4 "/>
<g>
	<path d="M821.1,197.6c0.1-0.4,0.3-0.7,0.5-1c0.2-0.3,0.5-0.5,0.9-0.6c0.4-0.2,0.8-0.2,1.2-0.2c0.4,0,0.7,0.1,1,0.2
		c0.3,0.1,0.6,0.3,0.8,0.5c0.2,0.2,0.4,0.5,0.6,0.8c0.1,0.3,0.2,0.7,0.2,1.1c0,0.4-0.1,0.7-0.2,1c-0.1,0.3-0.3,0.5-0.5,0.8
		c-0.2,0.2-0.4,0.4-0.7,0.6s-0.5,0.4-0.8,0.5c-0.3,0.2-0.5,0.3-0.8,0.5c-0.3,0.2-0.5,0.3-0.7,0.5c-0.2,0.2-0.4,0.4-0.6,0.6
		c-0.2,0.2-0.3,0.4-0.3,0.7h4.4v0.9h-5.6c0-0.5,0.1-0.9,0.3-1.3c0.1-0.4,0.3-0.7,0.5-0.9c0.2-0.3,0.5-0.5,0.7-0.7
		c0.3-0.2,0.6-0.4,0.9-0.6c0.4-0.2,0.7-0.4,0.9-0.6c0.3-0.2,0.5-0.4,0.7-0.6c0.2-0.2,0.3-0.4,0.4-0.6s0.1-0.5,0.1-0.8
		c0-0.2,0-0.4-0.1-0.6c-0.1-0.2-0.2-0.3-0.4-0.5c-0.1-0.1-0.3-0.2-0.5-0.3s-0.4-0.1-0.6-0.1c-0.3,0-0.5,0.1-0.8,0.2
		c-0.2,0.1-0.4,0.3-0.5,0.5c-0.1,0.2-0.2,0.4-0.3,0.7s-0.1,0.5-0.1,0.8h-1C820.9,198.3,820.9,197.9,821.1,197.6z"/>
	<path d="M832.6,204.4c-0.3,0-0.5-0.1-0.6-0.2c-0.2-0.1-0.2-0.4-0.2-0.7c-0.3,0.3-0.6,0.6-1,0.7c-0.4,0.1-0.8,0.2-1.2,0.2
		c-0.3,0-0.5,0-0.8-0.1c-0.2-0.1-0.5-0.2-0.7-0.3c-0.2-0.1-0.3-0.3-0.4-0.5c-0.1-0.2-0.2-0.5-0.2-0.8c0-0.4,0.1-0.6,0.2-0.9
		s0.3-0.4,0.5-0.5s0.4-0.2,0.7-0.3s0.5-0.1,0.8-0.2c0.3-0.1,0.5-0.1,0.8-0.1s0.5-0.1,0.7-0.1s0.3-0.1,0.5-0.2
		c0.1-0.1,0.2-0.2,0.2-0.4c0-0.2,0-0.4-0.1-0.5s-0.2-0.2-0.3-0.3c-0.1-0.1-0.3-0.1-0.4-0.1c-0.2,0-0.3,0-0.5,0
		c-0.4,0-0.8,0.1-1.1,0.2s-0.4,0.5-0.5,0.9h-1c0-0.4,0.1-0.7,0.2-1c0.1-0.3,0.3-0.5,0.6-0.6c0.2-0.2,0.5-0.3,0.8-0.4
		c0.3-0.1,0.6-0.1,1-0.1c0.3,0,0.6,0,0.8,0.1c0.3,0,0.5,0.1,0.8,0.2s0.4,0.3,0.5,0.5c0.1,0.2,0.2,0.5,0.2,0.9v3.2c0,0.2,0,0.4,0,0.5
		s0.1,0.2,0.3,0.2c0.1,0,0.2,0,0.3-0.1v0.8C833.2,204.3,832.9,204.4,832.6,204.4z M831.2,201.3c-0.2,0-0.4,0.1-0.7,0.1
		c-0.2,0-0.5,0.1-0.7,0.1c-0.2,0-0.4,0.1-0.6,0.2c-0.2,0.1-0.3,0.2-0.5,0.3c-0.1,0.1-0.2,0.4-0.2,0.6c0,0.2,0,0.3,0.1,0.4
		c0.1,0.1,0.2,0.2,0.3,0.3s0.2,0.1,0.4,0.2c0.1,0,0.3,0,0.5,0c0.3,0,0.6,0,0.9-0.1c0.2-0.1,0.4-0.2,0.6-0.3c0.2-0.1,0.3-0.3,0.3-0.5
		s0.1-0.3,0.1-0.5v-1C831.5,201.2,831.4,201.2,831.2,201.3z"/>
</g>
<polyline fill="none" stroke="#211816" stroke-width="0.25" points="802.9,182.4 813.5,182.4 813.5,63.3 803.4,63.3 "/>
<g>
	<path d="M827.3,123c-0.4,0.6-0.7,1.2-1,1.9s-0.5,1.3-0.7,2.1c-0.2,0.7-0.3,1.4-0.3,2.1h-1.1c0-0.7,0.2-1.4,0.4-2.1
		c0.2-0.7,0.4-1.3,0.7-2s0.6-1.2,1-1.8c0.4-0.6,0.8-1.1,1.3-1.5H823v-1h5.5v0.9C828.1,121.9,827.7,122.4,827.3,123z"/>
	<path d="M834.6,129.1c-0.3,0-0.5-0.1-0.6-0.2c-0.2-0.1-0.2-0.4-0.2-0.7c-0.3,0.3-0.6,0.6-1,0.7c-0.4,0.1-0.8,0.2-1.2,0.2
		c-0.3,0-0.5,0-0.8-0.1c-0.2-0.1-0.5-0.2-0.7-0.3c-0.2-0.1-0.3-0.3-0.4-0.5c-0.1-0.2-0.2-0.5-0.2-0.8c0-0.4,0.1-0.6,0.2-0.9
		s0.3-0.4,0.5-0.5s0.4-0.2,0.7-0.3s0.5-0.1,0.8-0.2c0.3-0.1,0.5-0.1,0.8-0.1s0.5-0.1,0.7-0.1s0.3-0.1,0.5-0.2
		c0.1-0.1,0.2-0.2,0.2-0.4c0-0.2,0-0.4-0.1-0.5s-0.2-0.2-0.3-0.3c-0.1-0.1-0.3-0.1-0.4-0.1c-0.2,0-0.3,0-0.5,0
		c-0.4,0-0.8,0.1-1.1,0.2s-0.4,0.5-0.5,0.9h-1c0-0.4,0.1-0.7,0.2-1c0.1-0.3,0.3-0.5,0.6-0.6c0.2-0.2,0.5-0.3,0.8-0.4
		c0.3-0.1,0.6-0.1,1-0.1c0.3,0,0.6,0,0.8,0.1c0.3,0,0.5,0.1,0.8,0.2s0.4,0.3,0.5,0.5c0.1,0.2,0.2,0.5,0.2,0.9v3.2c0,0.2,0,0.4,0,0.5
		s0.1,0.2,0.3,0.2c0.1,0,0.2,0,0.3-0.1v0.8C835.2,129.1,834.9,129.1,834.6,129.1z M833.2,126c-0.2,0-0.4,0.1-0.7,0.1
		c-0.2,0-0.5,0.1-0.7,0.1c-0.2,0-0.4,0.1-0.6,0.2c-0.2,0.1-0.3,0.2-0.5,0.3c-0.1,0.1-0.2,0.4-0.2,0.6c0,0.2,0,0.3,0.1,0.4
		c0.1,0.1,0.2,0.2,0.3,0.3s0.2,0.1,0.4,0.2c0.1,0,0.3,0,0.5,0c0.3,0,0.6,0,0.9-0.1c0.2-0.1,0.4-0.2,0.6-0.3c0.2-0.1,0.3-0.3,0.3-0.5
		s0.1-0.3,0.1-0.5v-1C833.5,125.9,833.4,126,833.2,126z"/>
</g>
<g>
	<path d="M372.5,248.7v0.9h-1.2v2h-1v-2h-3.7v-1l3.9-5.5h0.8v5.6H372.5z M370.4,244.5L370.4,244.5l-2.9,4.2h2.9V244.5z"/>
	<path d="M373.7,244.9c0.1-0.4,0.3-0.7,0.5-1c0.2-0.3,0.5-0.5,0.9-0.6c0.4-0.2,0.8-0.2,1.2-0.2c0.4,0,0.7,0.1,1,0.2
		c0.3,0.1,0.6,0.3,0.8,0.5c0.2,0.2,0.4,0.5,0.6,0.8c0.1,0.3,0.2,0.7,0.2,1.1c0,0.4-0.1,0.7-0.2,1c-0.1,0.3-0.3,0.5-0.5,0.8
		c-0.2,0.2-0.4,0.4-0.7,0.6s-0.5,0.4-0.8,0.5c-0.3,0.2-0.5,0.3-0.8,0.5c-0.3,0.2-0.5,0.3-0.7,0.5c-0.2,0.2-0.4,0.4-0.6,0.6
		c-0.2,0.2-0.3,0.4-0.3,0.7h4.4v0.9h-5.6c0-0.5,0.1-0.9,0.3-1.3c0.1-0.4,0.3-0.7,0.5-0.9c0.2-0.3,0.5-0.5,0.7-0.7
		c0.3-0.2,0.6-0.4,0.9-0.6c0.4-0.2,0.7-0.4,0.9-0.6c0.3-0.2,0.5-0.4,0.7-0.6c0.2-0.2,0.3-0.4,0.4-0.6s0.1-0.5,0.1-0.8
		c0-0.2,0-0.4-0.1-0.6c-0.1-0.2-0.2-0.3-0.4-0.5c-0.1-0.1-0.3-0.2-0.5-0.3s-0.4-0.1-0.6-0.1c-0.3,0-0.5,0.1-0.8,0.2
		c-0.2,0.1-0.4,0.3-0.5,0.5c-0.1,0.2-0.2,0.4-0.3,0.7s-0.1,0.5-0.1,0.8h-1C373.5,245.6,373.6,245.2,373.7,244.9z"/>
	<path d="M382,250.2v1.3h-1.3v-1.3H382z"/>
	<path d="M387.5,244.3c-0.2-0.2-0.6-0.3-1-0.3c-0.4,0-0.8,0.1-1,0.3s-0.5,0.5-0.6,0.8c-0.1,0.3-0.2,0.7-0.3,1.1
		c-0.1,0.4-0.1,0.7-0.1,1.1l0,0c0.2-0.4,0.5-0.7,0.9-0.9c0.4-0.2,0.8-0.3,1.2-0.3c0.4,0,0.8,0.1,1.1,0.2c0.3,0.1,0.6,0.3,0.8,0.6
		s0.4,0.5,0.5,0.9s0.2,0.7,0.2,1.1c0,0.3,0,0.6-0.1,1s-0.3,0.6-0.5,0.9c-0.2,0.3-0.5,0.5-0.9,0.7c-0.4,0.2-0.8,0.3-1.4,0.3
		c-0.6,0-1.1-0.1-1.5-0.4c-0.4-0.3-0.7-0.6-0.9-1c-0.2-0.4-0.3-0.8-0.4-1.3c-0.1-0.5-0.1-0.9-0.1-1.4c0-0.6,0-1.1,0.2-1.7
		c0.1-0.5,0.3-1,0.5-1.5c0.2-0.4,0.6-0.8,1-1c0.4-0.3,0.9-0.4,1.5-0.4c0.7,0,1.3,0.2,1.7,0.6s0.7,0.9,0.7,1.6h-1
		C387.9,244.9,387.8,244.5,387.5,244.3z M385.7,247.2c-0.2,0.1-0.4,0.2-0.6,0.4c-0.2,0.2-0.3,0.4-0.3,0.6c-0.1,0.2-0.1,0.5-0.1,0.8
		c0,0.3,0,0.5,0.1,0.7c0.1,0.2,0.2,0.4,0.3,0.6s0.3,0.3,0.6,0.4c0.2,0.1,0.5,0.2,0.8,0.2c0.3,0,0.5,0,0.7-0.2
		c0.2-0.1,0.4-0.2,0.5-0.4c0.1-0.2,0.3-0.4,0.3-0.6c0.1-0.2,0.1-0.5,0.1-0.7c0-0.3,0-0.5-0.1-0.8c-0.1-0.2-0.2-0.4-0.3-0.6
		c-0.1-0.2-0.3-0.3-0.5-0.4c-0.2-0.1-0.5-0.2-0.8-0.2S385.9,247.1,385.7,247.2z"/>
	<path d="M390.7,244.3c0.1-0.3,0.3-0.5,0.6-0.7c0.2-0.2,0.5-0.3,0.8-0.4c0.3-0.1,0.6-0.1,0.9-0.1c0.5,0,0.9,0.1,1.2,0.2
		s0.6,0.3,0.8,0.5s0.4,0.4,0.5,0.7s0.1,0.5,0.1,0.8c0,0.4-0.1,0.7-0.3,1c-0.2,0.3-0.5,0.6-0.9,0.7c0.5,0.2,0.9,0.4,1.1,0.8
		s0.4,0.8,0.4,1.3c0,0.4-0.1,0.8-0.2,1.1c-0.1,0.3-0.3,0.6-0.6,0.8c-0.3,0.2-0.5,0.4-0.9,0.5c-0.3,0.1-0.7,0.2-1.1,0.2
		c-0.4,0-0.8-0.1-1.1-0.2c-0.4-0.1-0.7-0.3-0.9-0.5c-0.3-0.2-0.5-0.5-0.6-0.8c-0.1-0.3-0.2-0.7-0.2-1.1c0-0.5,0.1-0.9,0.4-1.3
		c0.3-0.4,0.6-0.6,1.1-0.8c-0.4-0.1-0.6-0.4-0.9-0.7c-0.2-0.3-0.3-0.7-0.3-1.1C390.5,244.9,390.5,244.6,390.7,244.3z M391.8,250.4
		c0.3,0.3,0.8,0.4,1.3,0.4c0.3,0,0.5,0,0.7-0.1s0.4-0.2,0.6-0.3c0.2-0.1,0.3-0.3,0.4-0.5s0.1-0.4,0.1-0.7c0-0.2,0-0.4-0.1-0.6
		s-0.2-0.4-0.4-0.5c-0.2-0.1-0.3-0.3-0.6-0.3s-0.4-0.1-0.7-0.1c-0.2,0-0.5,0-0.7,0.1c-0.2,0.1-0.4,0.2-0.6,0.3
		c-0.2,0.1-0.3,0.3-0.4,0.5c-0.1,0.2-0.1,0.4-0.1,0.7C391.3,249.7,391.4,250.1,391.8,250.4z M391.7,245.9c0.1,0.2,0.2,0.3,0.3,0.4
		c0.1,0.1,0.3,0.2,0.5,0.3c0.2,0.1,0.4,0.1,0.6,0.1c0.4,0,0.7-0.1,1-0.4s0.4-0.6,0.4-1c0-0.4-0.1-0.8-0.4-1c-0.3-0.2-0.6-0.3-1-0.3
		c-0.2,0-0.4,0-0.6,0.1c-0.2,0.1-0.3,0.1-0.5,0.3c-0.1,0.1-0.2,0.2-0.3,0.4c-0.1,0.2-0.1,0.3-0.1,0.6
		C391.6,245.5,391.6,245.7,391.7,245.9z"/>
	<path d="M401.9,251.7c-0.3,0-0.5-0.1-0.6-0.2c-0.2-0.1-0.2-0.4-0.2-0.7c-0.3,0.3-0.6,0.6-1,0.7c-0.4,0.1-0.8,0.2-1.2,0.2
		c-0.3,0-0.5,0-0.8-0.1c-0.2-0.1-0.5-0.2-0.7-0.3c-0.2-0.1-0.3-0.3-0.4-0.5c-0.1-0.2-0.2-0.5-0.2-0.8c0-0.4,0.1-0.6,0.2-0.9
		s0.3-0.4,0.5-0.5s0.4-0.2,0.7-0.3s0.5-0.1,0.8-0.2c0.3-0.1,0.5-0.1,0.8-0.1s0.5-0.1,0.7-0.1s0.3-0.1,0.5-0.2
		c0.1-0.1,0.2-0.2,0.2-0.4c0-0.2,0-0.4-0.1-0.5s-0.2-0.2-0.3-0.3c-0.1-0.1-0.3-0.1-0.4-0.1c-0.2,0-0.3,0-0.5,0
		c-0.4,0-0.8,0.1-1.1,0.2s-0.4,0.5-0.5,0.9h-1c0-0.4,0.1-0.7,0.2-1c0.1-0.3,0.3-0.5,0.6-0.6c0.2-0.2,0.5-0.3,0.8-0.4
		c0.3-0.1,0.6-0.1,1-0.1c0.3,0,0.6,0,0.8,0.1c0.3,0,0.5,0.1,0.8,0.2s0.4,0.3,0.5,0.5c0.1,0.2,0.2,0.5,0.2,0.9v3.2c0,0.2,0,0.4,0,0.5
		s0.1,0.2,0.3,0.2c0.1,0,0.2,0,0.3-0.1v0.8C402.5,251.7,402.2,251.7,401.9,251.7z M400.5,248.6c-0.2,0-0.4,0.1-0.7,0.1
		c-0.2,0-0.5,0.1-0.7,0.1c-0.2,0-0.4,0.1-0.6,0.2c-0.2,0.1-0.3,0.2-0.5,0.3c-0.1,0.1-0.2,0.4-0.2,0.6c0,0.2,0,0.3,0.1,0.4
		c0.1,0.1,0.2,0.2,0.3,0.3s0.2,0.1,0.4,0.2c0.1,0,0.3,0,0.5,0c0.3,0,0.6,0,0.9-0.1c0.2-0.1,0.4-0.2,0.6-0.3c0.2-0.1,0.3-0.3,0.3-0.5
		s0.1-0.3,0.1-0.5v-1C400.8,248.5,400.7,248.5,400.5,248.6z"/>
</g>
<polyline fill-rule="evenodd" clip-rule="evenodd" fill="none" stroke="#000000" stroke-width="0.25" points="34.7,225.4 
	34.7,233.6 759.9,233.6 759.9,225.4 "/>
<polyline fill="none" stroke="#211816" stroke-width="0.25" points="359.8,23.3 359.8,13.1 396.7,13.1 396.7,23.3 "/>
<polyline fill="none" stroke="#211816" stroke-width="0.25" points="398.4,23.3 398.4,13.1 435.3,13.1 435.3,23.3 "/>
<g>
	<path d="M363.5,2.4c0.1-0.4,0.3-0.7,0.5-1c0.2-0.3,0.5-0.5,0.9-0.6c0.4-0.2,0.8-0.2,1.2-0.2c0.4,0,0.7,0.1,1,0.2
		c0.3,0.1,0.6,0.3,0.8,0.5c0.2,0.2,0.4,0.5,0.6,0.8c0.1,0.3,0.2,0.7,0.2,1.1c0,0.4-0.1,0.7-0.2,1c-0.1,0.3-0.3,0.5-0.5,0.8
		c-0.2,0.2-0.4,0.4-0.7,0.6S367,5.8,366.7,6c-0.3,0.2-0.5,0.3-0.8,0.5c-0.3,0.2-0.5,0.3-0.7,0.5c-0.2,0.2-0.4,0.4-0.6,0.6
		c-0.2,0.2-0.3,0.4-0.3,0.7h4.4v0.9h-5.6c0-0.5,0.1-0.9,0.3-1.3c0.1-0.4,0.3-0.7,0.5-0.9c0.2-0.3,0.5-0.5,0.7-0.7
		c0.3-0.2,0.6-0.4,0.9-0.6c0.4-0.2,0.7-0.4,0.9-0.6c0.3-0.2,0.5-0.4,0.7-0.6c0.2-0.2,0.3-0.4,0.4-0.6s0.1-0.5,0.1-0.8
		c0-0.2,0-0.4-0.1-0.6c-0.1-0.2-0.2-0.3-0.4-0.5c-0.1-0.1-0.3-0.2-0.5-0.3s-0.4-0.1-0.6-0.1c-0.3,0-0.5,0.1-0.8,0.2
		c-0.2,0.1-0.4,0.3-0.5,0.5c-0.1,0.2-0.2,0.4-0.3,0.7s-0.1,0.5-0.1,0.8h-1C363.4,3.2,363.4,2.8,363.5,2.4z"/>
	<path d="M371.9,7.8v1.3h-1.3V7.8H371.9z"/>
	<path d="M376.1,9.1V3h-2.2V2.2c0.3,0,0.6,0,0.8-0.1c0.3,0,0.5-0.1,0.7-0.2s0.4-0.3,0.6-0.5c0.2-0.2,0.3-0.5,0.3-0.8h0.8v8.5H376.1z
		"/>
	<path d="M384.5,3.2c-0.4,0.6-0.7,1.2-1,1.9s-0.5,1.3-0.7,2.1c-0.2,0.7-0.3,1.4-0.3,2.1h-1.1c0-0.7,0.2-1.4,0.4-2.1
		c0.2-0.7,0.4-1.3,0.7-2s0.6-1.2,1-1.8c0.4-0.6,0.8-1.1,1.3-1.5h-4.5v-1h5.5v0.9C385.2,2.1,384.8,2.6,384.5,3.2z"/>
	<path d="M391.8,9.3c-0.3,0-0.5-0.1-0.6-0.2c-0.2-0.1-0.2-0.4-0.2-0.7c-0.3,0.3-0.6,0.6-1,0.7c-0.4,0.1-0.8,0.2-1.2,0.2
		c-0.3,0-0.5,0-0.8-0.1c-0.2-0.1-0.5-0.2-0.7-0.3c-0.2-0.1-0.3-0.3-0.4-0.5c-0.1-0.2-0.2-0.5-0.2-0.8c0-0.4,0.1-0.6,0.2-0.9
		s0.3-0.4,0.5-0.5s0.4-0.2,0.7-0.3s0.5-0.1,0.8-0.2c0.3-0.1,0.5-0.1,0.8-0.1s0.5-0.1,0.7-0.1s0.3-0.1,0.5-0.2
		c0.1-0.1,0.2-0.2,0.2-0.4c0-0.2,0-0.4-0.1-0.5s-0.2-0.2-0.3-0.3c-0.1-0.1-0.3-0.1-0.4-0.1c-0.2,0-0.3,0-0.5,0
		c-0.4,0-0.8,0.1-1.1,0.2s-0.4,0.5-0.5,0.9h-1c0-0.4,0.1-0.7,0.2-1c0.1-0.3,0.3-0.5,0.6-0.6c0.2-0.2,0.5-0.3,0.8-0.4
		c0.3-0.1,0.6-0.1,1-0.1c0.3,0,0.6,0,0.8,0.1c0.3,0,0.5,0.1,0.8,0.2s0.4,0.3,0.5,0.5c0.1,0.2,0.2,0.5,0.2,0.9v3.2c0,0.2,0,0.4,0,0.5
		s0.1,0.2,0.3,0.2c0.1,0,0.2,0,0.3-0.1v0.8C392.3,9.2,392.1,9.3,391.8,9.3z M390.3,6.1c-0.2,0-0.4,0.1-0.7,0.1
		c-0.2,0-0.5,0.1-0.7,0.1c-0.2,0-0.4,0.1-0.6,0.2c-0.2,0.1-0.3,0.2-0.5,0.3c-0.1,0.1-0.2,0.4-0.2,0.6c0,0.2,0,0.3,0.1,0.4
		c0.1,0.1,0.2,0.2,0.3,0.3s0.2,0.1,0.4,0.2c0.1,0,0.3,0,0.5,0c0.3,0,0.6,0,0.9-0.1c0.2-0.1,0.4-0.2,0.6-0.3c0.2-0.1,0.3-0.3,0.3-0.5
		s0.1-0.3,0.1-0.5v-1C390.7,6,390.5,6.1,390.3,6.1z"/>
</g>
<g>
	<path d="M401.8,2.3c0.1-0.4,0.3-0.7,0.5-0.9c0.2-0.3,0.5-0.5,0.9-0.6c0.4-0.1,0.8-0.2,1.2-0.2c0.4,0,0.7,0.1,1,0.2
		c0.3,0.1,0.6,0.3,0.8,0.5s0.4,0.5,0.6,0.8c0.1,0.3,0.2,0.7,0.2,1.1c0,0.4-0.1,0.7-0.2,1c-0.1,0.3-0.3,0.5-0.5,0.8
		c-0.2,0.2-0.4,0.4-0.7,0.6s-0.5,0.4-0.8,0.5c-0.3,0.2-0.5,0.3-0.8,0.5c-0.3,0.2-0.5,0.3-0.7,0.5c-0.2,0.2-0.4,0.4-0.6,0.6
		c-0.2,0.2-0.3,0.4-0.3,0.7l4.4,0.1l0,0.9l-5.6-0.1c0-0.5,0.1-0.9,0.3-1.3c0.1-0.4,0.3-0.7,0.5-0.9c0.2-0.3,0.5-0.5,0.7-0.7
		c0.3-0.2,0.6-0.4,0.9-0.6c0.4-0.2,0.7-0.4,1-0.6c0.3-0.2,0.5-0.4,0.7-0.6c0.2-0.2,0.3-0.4,0.4-0.6c0.1-0.2,0.1-0.5,0.1-0.8
		c0-0.2,0-0.4-0.1-0.6c-0.1-0.2-0.2-0.4-0.3-0.5c-0.1-0.1-0.3-0.2-0.5-0.3c-0.2-0.1-0.4-0.1-0.6-0.1c-0.3,0-0.6,0.1-0.8,0.2
		c-0.2,0.1-0.4,0.3-0.5,0.5c-0.1,0.2-0.2,0.4-0.3,0.7c-0.1,0.3-0.1,0.5-0.1,0.8l-1,0C401.7,3,401.7,2.6,401.8,2.3z"/>
	<path d="M410.1,7.7l0,1.3l-1.3,0l0-1.3L410.1,7.7z"/>
	<path d="M414.3,9.1l0.1-6.1l-2.2,0l0-0.8c0.3,0,0.6,0,0.8-0.1c0.3,0,0.5-0.1,0.7-0.2c0.2-0.1,0.4-0.3,0.6-0.5
		c0.2-0.2,0.3-0.5,0.3-0.8l0.8,0l-0.1,8.5L414.3,9.1z"/>
	<path d="M422.7,3.3c-0.4,0.6-0.7,1.2-1,1.9c-0.3,0.7-0.5,1.3-0.7,2c-0.2,0.7-0.3,1.4-0.4,2l-1.1,0c0.1-0.7,0.2-1.4,0.4-2.1
		c0.2-0.7,0.5-1.3,0.8-2c0.3-0.6,0.7-1.2,1.1-1.8c0.4-0.6,0.8-1.1,1.3-1.5l-4.5-0.1l0-1l5.5,0.1l0,0.9
		C423.5,2.2,423.1,2.7,422.7,3.3z"/>
	<path d="M430,9.5c-0.3,0-0.5-0.1-0.6-0.2c-0.2-0.2-0.2-0.4-0.2-0.7c-0.3,0.3-0.6,0.6-1,0.7c-0.4,0.1-0.8,0.2-1.2,0.2
		c-0.3,0-0.5,0-0.8-0.1c-0.2-0.1-0.5-0.2-0.7-0.3c-0.2-0.1-0.3-0.3-0.4-0.5c-0.1-0.2-0.2-0.5-0.1-0.8c0-0.4,0.1-0.6,0.2-0.9
		c0.1-0.2,0.3-0.4,0.5-0.5s0.4-0.2,0.7-0.3s0.5-0.1,0.8-0.2c0.3-0.1,0.5-0.1,0.8-0.1c0.3,0,0.5-0.1,0.7-0.1c0.2,0,0.3-0.1,0.5-0.2
		c0.1-0.1,0.2-0.2,0.2-0.4c0-0.2,0-0.4-0.1-0.5s-0.2-0.2-0.3-0.3c-0.1-0.1-0.3-0.1-0.4-0.2c-0.2,0-0.3,0-0.5,0
		c-0.4,0-0.8,0.1-1.1,0.2c-0.3,0.2-0.5,0.5-0.5,0.9l-1,0c0-0.4,0.1-0.7,0.3-1c0.1-0.3,0.3-0.5,0.6-0.6c0.2-0.2,0.5-0.3,0.8-0.3
		c0.3-0.1,0.6-0.1,1-0.1c0.3,0,0.6,0,0.8,0.1c0.3,0,0.5,0.1,0.7,0.3c0.2,0.1,0.4,0.3,0.5,0.5c0.1,0.2,0.2,0.5,0.2,0.9l0,3.2
		c0,0.2,0,0.4,0,0.5c0,0.1,0.1,0.2,0.3,0.2c0.1,0,0.2,0,0.3-0.1l0,0.8C430.5,9.5,430.3,9.5,430,9.5z M428.6,6.4
		c-0.2,0-0.4,0.1-0.7,0.1c-0.2,0-0.5,0.1-0.7,0.1c-0.2,0-0.4,0.1-0.6,0.2c-0.2,0.1-0.3,0.2-0.5,0.3C426,7.2,426,7.4,426,7.6
		c0,0.2,0,0.3,0.1,0.4c0.1,0.1,0.2,0.2,0.3,0.3c0.1,0.1,0.2,0.1,0.4,0.2c0.1,0,0.3,0.1,0.5,0.1c0.3,0,0.6,0,0.9-0.1
		c0.2-0.1,0.4-0.2,0.6-0.3c0.2-0.1,0.3-0.3,0.3-0.5c0.1-0.2,0.1-0.3,0.1-0.5l0-1C429,6.2,428.8,6.3,428.6,6.4z"/>
</g>
<g>
	<rect x="396.2" y="63.4" fill-rule="evenodd" clip-rule="evenodd" fill="#CBCBCB" width="2.2" height="118.2"/>
	<g>
		<g id="形状_2_copy_3_副本_4_31_">
			<g>
				<path fill-rule="evenodd" clip-rule="evenodd" fill="#CCCCCC" d="M52.4,145.9c-6.2,12.2-11.8,23-18.2,35.7h8.7
					c1.6-3,2.5-4.9,4.5-8.5c4.6,0,8,0,12.5,0c-0.9-2.7-1.6-4.7-2.3-6.8h-6.9c2-4.1,3.2-6.4,6.3-11.9c3.2,9.4,6.5,18.7,9.7,27.2h8
					c-4.5-12.5-8.3-23.3-12.5-35.7H52.4z M76.6,181.6h7.5l1.6-35.8l-7.5,0L76.6,181.6z M88.4,181.6h8l1-26.6h-7.6L88.4,181.6z
					 M90.1,145.9l-0.2,5.7c0,0,5.8,0,7.5,0l0.3-5.7C91,145.9,90.9,145.9,90.1,145.9z M138.8,155.1c-1.3-0.5-2.8-0.7-4.3-0.7
					c-0.9,0-1.8,0.1-2.6,0.2c-0.8,0.2-1.6,0.4-2.2,0.7c-0.7,0.3-1.3,0.7-1.8,1.1c-0.5,0.4-1,0.9-1.3,1.3c-0.3,0.4-0.7,0.9-1.1,1.5
					c-0.3-0.8-0.7-1.5-1-1.9c-0.3-0.4-0.7-0.8-1.1-1.2c-0.4-0.3-0.9-0.7-1.5-0.9c-0.6-0.3-1.3-0.5-2-0.6c-0.7-0.1-1.5-0.2-2.3-0.2
					c-1,0-2.1,0.1-3.1,0.4c-1,0.3-1.8,0.6-2.6,1c-0.7,0.4-1.3,0.9-1.8,1.4c-0.5,0.5-1,1.2-1.5,2l0.2-4.2h-7.1l-1.2,26.6
					c0,0,5.9,0,7.5,0c0-2.3,0.1-5.4,0.3-9.3c0.2-3.9,0.5-6.5,0.9-7.8c0.4-1.3,1.1-2.4,2-3.2c0.9-0.8,2-1.2,3.2-1.2
					c0.7,0,1.3,0.1,1.8,0.3c0.5,0.2,0.9,0.6,1.3,1.1c0.4,0.5,0.6,1,0.8,1.5c0.1,0.5,0.2,1.2,0.2,2c0,1.4-0.1,4.3-0.3,8.4
					c-0.2,4.2-0.4,6.9-0.5,8.2c1.6,0,6,0,7.5,0l0.2-7.3c0.1-2.6,0.2-4.7,0.3-6.3c0.1-1.6,0.4-2.8,0.7-3.7c0.3-0.9,0.7-1.7,1.3-2.3
					c0.5-0.7,1.1-1.2,1.8-1.5c0.6-0.3,1.4-0.4,2.1-0.4c0.8,0,1.4,0.1,2,0.4c0.6,0.3,1.1,0.7,1.5,1.4c0.4,0.6,0.6,1.6,0.6,2.8
					c0,1.1,0,2.3-0.1,3.9l-0.3,6c-0.1,2.5-0.3,4.8-0.5,7.1c1.6,0,6.2,0,7.5,0c0-2,0.1-4.9,0.3-8.5c0.2-3.7,0.3-6.3,0.4-8
					c0.1-1.6,0.2-2.9,0.2-3.7c0-1.6-0.4-2.9-1.2-4C141.2,156.4,140.1,155.6,138.8,155.1z M167.1,155c-1.6-0.4-3.4-0.7-5.3-0.7
					c-1.7,0-3.5,0.1-5.3,0.3c-1.8,0.2-6.3,1.2-6.3,1.2l-0.8,4.9c0,0,7.4-2.3,10.6-2.3c0.9,0,1.6,0.1,2.4,0.3c0.7,0.2,1.3,0.5,1.7,1
					c0.4,0.5,0.7,1,0.7,1.7c0,0.4-0.1,0.7-0.2,1c-0.2,0.3-0.4,0.6-0.7,1c-0.3,0.3-0.7,0.6-1.1,0.7c-0.4,0.2-1,0.4-1.7,0.6
					c-0.7,0.2-1.4,0.4-2.1,0.5c-2.5,0.5-4.5,1.1-6,1.6c-1.5,0.5-2.7,1.1-3.5,1.6c-0.8,0.6-1.5,1.2-2,1.8c-0.5,0.6-0.9,1.3-1.2,2
					c-0.3,0.7-0.4,1.5-0.4,2.2c0,1.3,0.3,2.6,1,3.9c0.7,1.3,1.7,2.2,3.1,2.8c1.4,0.6,3.2,0.9,5.4,0.9c0.6,0,1.3,0,2-0.1
					c0.7,0,1.7-0.2,3-0.4c0.5-2,0.9-3.5,1.3-4.5c-1.1,0.4-1.9,0.6-2.5,0.7c-0.6,0.1-1.2,0.1-1.8,0.1c-0.9,0-1.6-0.1-2.3-0.3
					c-0.6-0.2-1.2-0.6-1.6-1.1c-0.4-0.5-0.6-1.2-0.6-1.9c0-0.4,0.1-0.9,0.3-1.3c0.2-0.4,0.4-0.8,0.8-1.1c0.4-0.4,0.8-0.7,1.4-1
					c0.5-0.3,1.1-0.5,1.8-0.8c0.7-0.2,1.6-0.5,2.7-0.8c1.1-0.3,1.9-0.5,2.3-0.7c0.4-0.1,0.8-0.3,1.2-0.5c0.4-0.2,0.9-0.5,1.5-0.9
					l-0.9,13.9h7.4c0,0,0.2-8.6,0.5-12.6c0.3-4.1,0.4-6.6,0.4-7.6c0-1.8-0.5-3.2-1.4-4.2C170,156.2,168.7,155.5,167.1,155z
					 M213.9,155.1c-1.3-0.5-2.8-0.7-4.3-0.7c-0.9,0-1.8,0.1-2.6,0.2c-0.8,0.2-1.6,0.4-2.2,0.7c-0.7,0.3-1.3,0.7-1.8,1.1
					c-0.5,0.4-1,0.9-1.3,1.3c-0.3,0.4-0.7,0.9-1.1,1.5c-0.4-0.8-0.7-1.5-1-1.9c-0.3-0.4-0.7-0.8-1.1-1.2c-0.4-0.3-0.9-0.7-1.5-0.9
					c-0.6-0.3-1.3-0.5-2-0.6c-0.7-0.1-1.5-0.2-2.3-0.2c-1,0-2.1,0.1-3.1,0.4c-1,0.3-1.9,0.6-2.6,1c-0.7,0.4-1.3,0.9-1.8,1.4
					c-0.5,0.5-1,1.2-1.5,2l0.2-4.2h-7.1l-1.2,26.6h7.5c0,0,0.1-5.4,0.3-9.3c0.2-3.9,0.5-6.5,0.9-7.8c0.4-1.3,1.1-2.4,2-3.2
					c0.9-0.8,2-1.2,3.2-1.2c0.7,0,1.2,0.1,1.8,0.3c0.5,0.2,0.9,0.6,1.3,1.1c0.4,0.5,0.6,1,0.7,1.5c0.1,0.5,0.2,1.2,0.2,2
					c0,1.4-0.1,4.3-0.3,8.4c-0.2,4.2-0.4,6.9-0.5,8.2c1.6,0,6,0,7.5,0l0.2-7.3c0.1-2.6,0.2-4.7,0.3-6.3c0.1-1.6,0.4-2.8,0.7-3.7
					c0.3-0.9,0.7-1.7,1.3-2.3c0.6-0.7,1.1-1.2,1.8-1.5c0.6-0.3,1.3-0.4,2.1-0.4c0.8,0,1.4,0.1,2,0.4c0.6,0.3,1.1,0.7,1.5,1.4
					c0.4,0.6,0.6,1.6,0.6,2.8c0,1.1,0,2.3-0.1,3.9l-0.3,6c-0.1,2.5-0.3,4.8-0.4,7.1c1.6,0,6.2,0,7.5,0c0-2,0.1-4.9,0.3-8.5
					c0.2-3.7,0.3-6.3,0.4-8c0.1-1.6,0.2-2.9,0.2-3.7c0-1.6-0.4-2.9-1.2-4C216.3,156.4,215.3,155.6,213.9,155.1z M242.2,155
					c-1.6-0.4-3.4-0.7-5.3-0.7c-1.7,0-3.5,0.1-5.3,0.3c-1.8,0.2-6.3,1.2-6.3,1.2l-0.8,4.9c0,0,7.4-2.3,10.6-2.3
					c0.9,0,1.6,0.1,2.4,0.3c0.7,0.2,1.3,0.5,1.7,1c0.4,0.5,0.7,1,0.7,1.7c0,0.4-0.1,0.7-0.2,1c-0.1,0.3-0.4,0.6-0.7,1
					c-0.3,0.3-0.7,0.6-1.1,0.7c-0.4,0.2-1,0.4-1.7,0.6c-0.7,0.2-1.4,0.4-2.1,0.5c-2.5,0.5-4.5,1.1-6,1.6c-1.5,0.5-2.7,1.1-3.5,1.6
					c-0.8,0.6-1.5,1.2-2,1.8c-0.5,0.6-0.9,1.3-1.2,2c-0.3,0.7-0.4,1.5-0.4,2.2c0,1.3,0.3,2.6,1,3.9c0.7,1.3,1.7,2.2,3.1,2.8
					c1.4,0.6,3.2,0.9,5.4,0.9c0.6,0,1.3,0,2-0.1c0.7,0,1.7-0.2,3-0.4c0.5-2,0.9-3.5,1.3-4.5c-1,0.4-1.9,0.6-2.5,0.7
					c-0.6,0.1-1.2,0.1-1.8,0.1c-0.9,0-1.6-0.1-2.3-0.3c-0.6-0.2-1.2-0.6-1.6-1.1c-0.4-0.5-0.6-1.2-0.6-1.9c0-0.4,0.1-0.9,0.2-1.3
					c0.2-0.4,0.4-0.8,0.8-1.1c0.4-0.4,0.8-0.7,1.3-1c0.5-0.3,1.1-0.5,1.8-0.8c0.7-0.2,1.5-0.5,2.7-0.8c1.1-0.3,1.9-0.5,2.3-0.7
					c0.4-0.1,0.8-0.3,1.2-0.5c0.3-0.2,0.9-0.5,1.5-0.9l-0.9,13.9h7.4c0,0,0.2-8.6,0.5-12.6c0.3-4.1,0.4-6.6,0.4-7.6
					c0-1.8-0.5-3.2-1.4-4.2C245.1,156.2,243.8,155.5,242.2,155z M250.6,174.6c-0.1,3.4-0.2,5.8-0.3,7c2.5,0,7.4,0,7.4,0
					s0.3-5.8,0.4-7C256.1,174.6,250.6,174.6,250.6,174.6z M270.1,162.2c0.8-0.9,1.7-1.5,2.7-1.9c1.1-0.4,2.2-0.6,3.4-0.6
					c1.9,0,4.2,0.4,6.8,1.3l-0.4-5.7c-1.6-0.4-3.1-0.7-4.3-0.8c-1.2-0.1-2.4-0.2-3.5-0.2c-2.1,0-3.9,0.2-5.6,0.7
					c-1.7,0.5-3.2,1.3-4.6,2.6c-1.4,1.3-2.4,2.9-3.1,5c-0.7,2-1.1,4.1-1.1,6.3c0,1.7,0.2,3.3,0.6,4.8c0.4,1.6,1.1,2.9,1.9,4
					c0.9,1.1,1.8,2,3,2.7c1.1,0.7,2.3,1.1,3.7,1.4c1.3,0.3,2.7,0.4,4.1,0.4c2.4,0,4.9-0.3,7.4-0.9c0.2-1.3,0.4-2.5,0.6-3.4
					c0.2-0.9,0.3-1.7,0.4-2.4c-1.3,0.5-2.5,0.8-3.6,1c-1.1,0.2-2.1,0.3-2.9,0.3c-1.6,0-3-0.3-4.3-1c-1.3-0.7-2.1-1.6-2.7-2.8
					c-0.5-1.2-0.8-2.6-0.8-4.3c0-1.2,0.2-2.3,0.5-3.5C268.8,164.1,269.4,163.1,270.1,162.2z M310.1,157.9c-1.3-1.2-2.9-2.1-4.7-2.7
					c-1.8-0.6-3.8-0.9-5.8-0.9c-2.2,0-4.3,0.4-6.3,1.1c-2,0.8-3.7,1.8-5,3.2c-1.3,1.4-2.3,2.9-2.9,4.7c-0.6,1.7-0.9,3.6-0.9,5.5
					c0,1.9,0.3,3.7,1,5.4c0.7,1.7,1.7,3.2,3,4.4c1.3,1.2,2.9,2.1,4.7,2.7c1.8,0.6,3.8,0.9,5.8,0.9c2.2,0,4.2-0.3,6.2-1
					c1.9-0.7,3.5-1.7,4.8-3c1.3-1.4,2.3-3,3-4.8c0.7-1.8,1-3.8,1-5.8c0-1.9-0.3-3.7-1-5.4C312.4,160.5,311.4,159.1,310.1,157.9z
					 M305.6,172.5c-0.6,1.5-1.5,2.6-2.6,3.4c-1.2,0.8-2.5,1.1-4,1.1c-1.5,0-2.8-0.4-3.9-1.1c-1.1-0.7-1.9-1.7-2.4-2.9
					c-0.5-1.2-0.7-2.5-0.7-4.1c0-1.7,0.3-3.3,0.9-4.8c0.6-1.5,1.5-2.6,2.7-3.3c1.2-0.7,2.6-1.1,4.1-1.1c1.5,0,2.8,0.4,3.9,1.1
					c1.1,0.7,1.8,1.7,2.3,2.9c0.5,1.2,0.7,2.5,0.7,4C306.5,169.4,306.2,171,305.6,172.5z M357.1,157.4c-0.8-1.1-1.8-1.9-3.2-2.4
					c-1.3-0.5-2.8-0.7-4.3-0.7c-0.9,0-1.8,0.1-2.6,0.2c-0.8,0.2-1.6,0.4-2.2,0.7c-0.7,0.3-1.3,0.7-1.8,1.1c-0.5,0.4-1,0.9-1.3,1.3
					c-0.3,0.4-0.7,0.9-1.1,1.5c-0.3-0.8-0.7-1.5-1-1.9c-0.3-0.4-0.7-0.8-1.1-1.2c-0.4-0.3-0.9-0.7-1.6-0.9c-0.6-0.3-1.3-0.5-2-0.6
					c-0.7-0.1-1.5-0.2-2.3-0.2c-1,0-2.1,0.1-3.1,0.4c-1,0.3-1.9,0.6-2.6,1c-0.7,0.4-1.3,0.9-1.8,1.4c-0.5,0.5-1,1.2-1.5,2l0.2-4.2
					c-1.2,0-5.6,0-7.1,0c0,3-0.9,23.7-1.2,26.6c1.6,0,5.9,0,7.5,0c0-2.3,0.1-5.4,0.3-9.3c0.2-3.9,0.5-6.5,0.9-7.8
					c0.4-1.3,1.1-2.4,2-3.2c0.9-0.8,2-1.2,3.2-1.2c0.7,0,1.3,0.1,1.8,0.3c0.5,0.2,1,0.6,1.3,1.1c0.4,0.5,0.6,1,0.7,1.5
					c0.1,0.5,0.2,1.2,0.2,2c0,1.4-0.1,4.3-0.3,8.4c-0.2,4.2-0.4,6.9-0.5,8.2c1.6,0,6,0,7.5,0l0.2-7.3c0.1-2.6,0.2-4.7,0.3-6.3
					c0.1-1.6,0.4-2.8,0.7-3.7c0.3-0.9,0.7-1.7,1.3-2.3c0.5-0.7,1.1-1.2,1.8-1.5c0.6-0.3,1.4-0.4,2.1-0.4c0.8,0,1.4,0.1,2,0.4
					c0.6,0.3,1.1,0.7,1.5,1.4c0.4,0.6,0.6,1.6,0.6,2.8c0,1.1,0,2.3-0.1,3.9l-0.3,6c-0.1,2.5-0.3,4.8-0.4,7.1c1.6,0,6.2,0,7.5,0
					c0-2,0.1-4.9,0.3-8.5c0.2-3.7,0.3-6.3,0.4-8c0.1-1.6,0.2-2.9,0.2-3.7C358.3,159.9,357.9,158.5,357.1,157.4z"/>
			</g>
		</g>
		<g id="形状_2_copy_3_副本_5_31_">
			<g>
				<path fill-rule="evenodd" clip-rule="evenodd" fill="#FF6600" d="M65.5,71.1c11.1,0,22.3,0,33.4,0c0,16.6,0,33.8,0,49.3
					c0,1-1.3,2.4-2.6,2.5c-1.8,0-2.5,0-4.7,0v8c2.6,0,4.8,0,7.3,0c6.4,0,10.7-3.1,10.7-8.5c0-12.8,0-38.2,0-51.4h3.9v-7.7h-48V71.1z
					 M263.9,120.8c3.6,0,2.2,0,5.8,0c2.1,0,4.9-1.7,4.9-5c0-8.5,0-15.1,0-23.6c-1.6,0-3.3,0-4.7,0c0-6.5,0-19.8,0-24.6
					c0-2-1.9-4.1-4.4-4.1h-35v7.7h27c0,7,0,14.1,0,21c-6.4,0-7.4,0-13,0c-0.7,0-1.6-0.8-1.6-1.4c0-3.5,0-9.2,0-13.8
					c0-1.1-1.1-2.3-2.8-2.3h-8v18.6c0,3.6,3.1,6.6,6.6,6.6c0,0,13.7,0,25.1,0v6.9h-27.8c-3.1,0-7.8,2.9-7.8,7.8
					c9.7,0,25.1-0.2,35.6-0.2C263.9,116.3,263.9,118.4,263.9,120.8z M93.8,109.1c0-8.8,0-21.3,0-33.3H66v42.4c8.1,0,18.4,0,18.4,0
					C91.5,118.2,93.8,114.2,93.8,109.1z M82,110.4c-2,0-4.2,0-7,0V84c3,0,6.5,0,9.5,0c0,8,0,16.9,0,23.9
					C84.4,109.3,83.5,110.4,82,110.4z M34.2,65.4c0,15.2,0,35.1,0,65.6h10.3c0-19.1,0-40,0-59.8c2.4,0,5.3,0,7.7,0
					c0,11.5,0,21.8,0,32.5c0,4.4-3.9,6-3.9,6v8.5c7.2,0,13.7-7.5,13.7-14.3c0-12.3,0-28,0-40.4c-9.3,0-16.4,0-25.7,0
					C34.2,63.4,34.2,65.4,34.2,65.4z M354.7,92.2c0-6.5,0-19.8,0-24.6c0-2-2-4.1-4.4-4.1h-35v7.7c8.9,0,18,0,27,0v21
					c-6.4,0-7.4,0-13,0c-0.7,0-1.6-0.8-1.6-1.4c0-3.5,0-9.2,0-13.8c0-1.1-1.1-2.3-2.8-2.3c-2.2,0-5.4,0-8,0v18.6
					c0,3.6,3.1,6.6,6.6,6.6c0,0,13.7,0,25.1,0v6.9h-27.5c-3.1,0-8,2.7-8,7.6c9.7,0,24.9,0,35.4,0v7.2c0,1.2-1,1.8-2.3,1.8h-4.1
					c0,3.5,0,5.4,0,7.7h6.2c1.9,0,1.5,0,3.4,0c5.2,0,7.5-3.7,7.4-6.7c0-9.7,0.1-22.4,0.1-32.1C357.8,92.2,356.1,92.2,354.7,92.2z
					 M305.1,118.1c3.7-4.1,5.8-9,6.3-18.3c0-10.1,0-19.8,0-29.8c0-0.8-1.1-2-2.1-1.9c-3.9,0-8.9,0-13.2,0v-4.7h-10.3
					c0,1.6,0,3.1,0,4.7c-1.1,0-2.4,0-3.4,0v7.7h3.4v24c0,9.3,3.1,14,6.9,18.3c-4.6,3.1-9.2,5.1-15.4,5.1c-0.9,0-1.7,0-2.6,0
					c-9.6,0-21.3,0-31.6,0c-9.7,0-19-1.8-22.5-6c3.3-4.5,5.1-8.1,6.1-17.4c0-9.3,0-17.2,0-29.2c-0.1-1.3-1.3-2.5-2.5-2.5
					c-4.1,0-8.1,0-13.1,0v-4.7c-4.2,0-5.8,0-10,0v4.7c-1.1,0-2,0-3.4,0v7.7c1.5,0,2.3,0,3.4,0c0,7.9,0,16.7,0,24
					c0.8,9.3,3.7,12.4,7.3,17.8c-5.2,3.6-11.6,5.2-19,5.6c-8.8,0-16.8,0-27.9,0c0-1.9,0-4.6,0-6h27.9v-8.1h-27.9c0-1.9,0-4,0-6
					c8,0,18.6,0,21,0c0,0,6.8,0,6.9-7.5c0.1-7.8,0-21.8,0-32.3c-22,0-44.4,0-66.5,0c-1.1,0-2.1,1.1-2.1,2c0,1.6,0,26.2,0,37.8
					c9.3,0,18.6,0,27.9,0v6h-27.9c0,2.5,0,5.5,0,8.1h27.8c0,2,0,4,0,6H116c0,2.2,0,5.2,0,7.6c24.5,0,54.7,0.1,78.5,0
					c6.4,0,14.4-3.3,20.1-6.7c7.2,5.6,15.2,6.7,28.3,6.7c4,0,8.4,0,13.3,0c6.9,0,13,0,18.4,0c11.1,0,18.1-2.4,24.9-6.4
					c6.2,3.7,12.2,6.1,21.9,6.4v0h14.8v-7.7h-14.8C314.7,122.7,309.3,121.7,305.1,118.1z M148.5,95.5h-17.1v-8.1h17.1V95.5z
					 M148.6,79.2h-17.1v-8.1c5.7,0,11.4,0,17.1,0V79.2z M161.5,71.1h17.1v8.1h-17.1V71.1z M161.5,87.4c5.7,0,11.4,0,17.1,0
					c0,3.2,0,5.8,0,8.1h-17.1C161.4,93.3,161.4,90,161.5,87.4z M216.8,99.9c-0.4,5.4-1.2,6.6-2.5,10.2c-1.6-3.3-3-4.8-3.4-10.2
					c0-7,0-16.7,0-24h5.9V99.9z M301.7,99.9c-0.2,5-1.4,7.4-2.7,10.1c-1.6-2.6-3-5.5-3-10.1c0-7.4,0-16.4,0-24h5.7
					C301.7,83.5,301.7,92.4,301.7,99.9z"/>
			</g>
		</g>
	</g>
	<g>
		<rect x="551.3" y="91.3" fill="#333333" width="13.9" height="4.7"/>
		<polygon fill="#333333" points="550.3,86.7 545,100.7 551.5,100.7 556.8,86.7 		"/>
		<rect x="545.9" y="101.5" fill="#333333" width="17.5" height="4.5"/>
		<rect x="544.8" y="113.4" fill="#333333" width="19.6" height="4.5"/>
		<rect x="550.8" y="105.6" fill="#333333" width="6.8" height="24.8"/>
		<polygon fill="#333333" points="563.9,125.2 563.9,130.4 550.8,135.3 550.8,129.6 		"/>
		<rect x="576.2" y="86.7" fill="#333333" width="6.8" height="23.3"/>
		<rect x="582.5" y="95.3" fill="#333333" width="13.3" height="4.6"/>
		<path fill="#333333" d="M593.9,109.9h-27v3.8v0.8v16.9v0.6v3.3h20.4h0.9c3.2,0,5.7-2.6,5.7-5.7c0,0,0-15.1,0-15.1h0V109.9z
			 M587.2,129.4v2h-13.9v-16.9h13.9V129.4z"/>
		<rect x="602.1" y="88.5" fill="#333333" width="49.1" height="5"/>
		<polygon fill="#333333" points="618.2,93.6 599.3,121.5 607,121.5 625.9,93.6 		"/>
		<rect x="617" y="105.3" fill="#333333" width="25.1" height="4.9"/>
		<rect x="610.7" y="106.4" fill="#333333" width="6.8" height="23.6"/>
		<rect x="610.7" y="129.6" fill="#333333" width="29.8" height="4.9"/>
		<rect x="640.3" y="105.3" fill="#333333" width="6.8" height="22.5"/>
		<path fill="#333333" d="M640.6,121.4c-0.1,0-0.2,0-0.3,0v8.2h-6c0.7,2.8,3.3,4.9,6.3,4.9c3.6,0,6.5-2.9,6.5-6.5
			C647.1,124.3,644.2,121.4,640.6,121.4z"/>
		<rect x="658.6" y="86.7" fill="#333333" width="43.9" height="4.5"/>
		<rect x="658.6" y="90.5" fill="#333333" width="6.8" height="29.5"/>
		<rect x="665" y="95.7" fill="#333333" width="30.9" height="4.2"/>
		<path fill="#333333" d="M702.5,90.3h-2c-0.9-0.8-2.2-1.3-3.5-1.3v1.3h-1.2v3.5V94v5.9h1.2c3,0,5.4-2.4,5.4-5.4c0-0.1,0-0.3,0-0.4
			h0V90.3z"/>
		<rect x="665.2" y="104.8" fill="#333333" width="37.6" height="3.9"/>
		<rect x="665.3" y="114" fill="#333333" width="37.5" height="4.1"/>
		<rect x="673.4" y="99.6" fill="#333333" width="6.6" height="16.4"/>
		<rect x="687.7" y="99" fill="#333333" width="6.6" height="16.4"/>
		<rect x="669" y="118" fill="#333333" width="6.6" height="12.6"/>
		<polygon fill="#333333" points="683.7,127.2 669,129.9 669,135.3 683.7,131.9 		"/>
		<polygon fill="#333333" points="680.4,118.9 688.6,118.9 702.8,135.3 694.8,135.3 		"/>
		<polygon fill="#333333" points="696.2,118.9 703.5,118.9 696.2,128.3 692.3,123.9 		"/>
		<polyline fill="#333333" points="658.6,120 655.7,134.2 662.5,134.2 665.4,120 		"/>
		<rect x="737.8" y="86.7" fill="#333333" width="8.1" height="6.9"/>
		<rect x="724.5" y="93.1" fill="#333333" width="29.3" height="4.7"/>
		<rect x="723.5" y="130.9" fill="#333333" width="36.6" height="4.4"/>
		<polygon fill="#333333" points="727.9,101.7 734.9,101.7 739.3,130.9 732.4,130.9 		"/>
		<polygon fill="#333333" points="748,101.7 755,101.7 750.5,130.9 743.6,130.9 		"/>
		<rect x="715.3" y="100.1" fill="#333333" width="6.6" height="35.2"/>
		<polygon fill="#333333" points="718.9,86.7 707.7,109 714.9,109 725.9,86.7 		"/>
		<path fill="#333333" d="M749.2,93.1c0.1,2.6,2.2,4.7,4.8,4.7c2.6,0,4.8-2.1,4.8-4.7H749.2z"/>
		<g>
			<path fill="#999999" d="M550.3,160.8c0,1.8-0.6,2.8-1.8,2.8c-0.5,0.1-1.1,0.1-1.8,0.1c0-0.1,0-0.1-0.1-0.2
				c-0.1-0.6-0.1-1-0.2-1.2c0.2,0,0.4,0,0.6,0c0.5,0.1,0.8,0.1,1,0c0.7,0,1-0.5,1-1.5c0-1.4-0.6-2.8-1.8-4.3
				c0.4-1.1,0.9-2.8,1.5-5.3h-2.4v15.6H545v-16.9h5.2v1.3c-0.9,2.7-1.4,4.4-1.6,5C549.8,157.8,550.4,159.4,550.3,160.8z M551,150.1
				h11.3v1.4h-1.7v12.3c0.1,1.9-0.8,2.8-2.6,2.7c-0.5,0.1-1.4,0.1-2.7,0.1c-0.1-0.3-0.1-0.6-0.2-1c-0.1-0.3-0.2-0.5-0.2-0.6
				c0.7,0,1.6,0.1,2.7,0.1c1,0,1.5-0.4,1.4-1.2v-12.3H551V150.1z M551.6,154h5.6v8h-5.6V154z M552.9,155.3v5.4h3v-5.4H552.9z"/>
			<path fill="#999999" d="M573.6,161h7.3v-2.1h-6.6v-9.1h14.6v9.1h-6.6v2.1h7.3v1.3h-7.3v2.4h8.5v1.2h-18.3v-1.2h8.4v-2.4h-7.3V161
				z M575.6,151v2.7h5.2V151H575.6z M575.6,155v2.7h5.2V155H575.6z M587.4,151h-5.2v2.7h5.2V151z M582.2,155v2.7h5.2V155H582.2z"/>
			<path fill="#999999" d="M608.1,164l-1.1,1c-0.3-0.2-0.7-0.6-1.3-1.2c-0.3-0.3-0.5-0.5-0.6-0.6c-0.7,1.1-1.9,2.3-3.5,3.7
				c-0.3-0.4-0.5-0.8-0.8-1.2c1.3-0.9,2.4-2.1,3.3-3.4c-0.3-0.3-0.7-0.7-1.3-1.2c-0.6-0.6-1-1-1.3-1.2c0.3-1.1,0.7-2.9,1.2-5.6h-1.7
				v-1.3h1.8c0.1-0.7,0.3-1.8,0.5-3.2c0-0.4,0.1-0.6,0.1-0.8l1.4,0.2c-0.1,0.5-0.2,1.3-0.3,2.3c-0.1,0.7-0.2,1.1-0.2,1.4h3.3v1.3
				c-0.3,3.4-0.9,5.9-1.8,7.6C606.6,162.5,607.4,163.2,608.1,164z M606.2,154.1H604c-0.3,2-0.7,3.7-1.1,5.1c0.3,0.2,0.7,0.6,1.2,1.1
				c0.3,0.3,0.5,0.4,0.6,0.5C605.6,159.2,606,156.9,606.2,154.1z M607.8,161.1h8.1v1.4h-8.1V161.1z M611,152l-0.5,5.3h4.6l0.6-6.4
				h-7.6v-1.3h9.1l-0.8,7.7h1.8c-0.1,3.2-0.2,5.4-0.3,6.5c-0.1,1.8-1.1,2.7-3.1,2.7c-1.2,0-2.2,0-3,0c-0.1-0.3-0.1-0.7-0.2-1.1
				c-0.1-0.3-0.1-0.4-0.1-0.5c0.4,0,1.4,0.1,3.1,0.1c1.1,0,1.7-0.5,1.7-1.5c0.1-1,0.2-2.6,0.3-4.9h-8l0.6-6.5H611z"/>
			<path fill="#999999" d="M636.5,164l-1.1,1c-0.3-0.2-0.7-0.6-1.3-1.2c-0.3-0.3-0.5-0.5-0.6-0.6c-0.7,1.1-1.9,2.3-3.5,3.7
				c-0.3-0.4-0.5-0.8-0.8-1.2c1.3-0.9,2.4-2.1,3.3-3.4c-0.3-0.3-0.7-0.7-1.3-1.2c-0.6-0.6-1-1-1.3-1.2c0.3-1.1,0.7-2.9,1.2-5.6h-1.7
				v-1.3h1.8c0.1-0.7,0.3-1.8,0.5-3.2c0-0.4,0.1-0.6,0.1-0.8l1.4,0.2c-0.1,0.5-0.2,1.3-0.3,2.3c-0.1,0.7-0.2,1.1-0.2,1.4h3.3v1.3
				c-0.3,3.4-0.9,5.9-1.8,7.6C635,162.5,635.8,163.2,636.5,164z M634.6,154.1h-2.2c-0.3,2-0.7,3.7-1.1,5.1c0.3,0.2,0.7,0.6,1.2,1.1
				c0.3,0.3,0.5,0.4,0.6,0.5C633.9,159.2,634.4,156.9,634.6,154.1z M636.2,161.1h8.1v1.4h-8.1V161.1z M639.4,152l-0.5,5.3h4.6
				l0.6-6.4h-7.6v-1.3h9.1l-0.8,7.7h1.8c-0.1,3.2-0.2,5.4-0.3,6.5c-0.1,1.8-1.1,2.7-3.1,2.7c-1.2,0-2.2,0-3,0
				c-0.1-0.3-0.1-0.7-0.2-1.1c-0.1-0.3-0.1-0.4-0.1-0.5c0.4,0,1.4,0.1,3.1,0.1c1.1,0,1.7-0.5,1.7-1.5c0.1-1,0.2-2.6,0.3-4.9h-8
				l0.6-6.5H639.4z"/>
			<path fill="#999999" d="M657.7,151.8h6.5v1.2h-3.5c0,0.9,0,1.8,0,2.7h3.2c0,3.4-0.1,6-0.2,7.8c0,1.9-0.8,2.8-2.3,2.7
				c-0.8,0-1.2,0-1.4,0c-0.1-0.4-0.1-0.8-0.2-1.4c0.7,0.1,1.2,0.1,1.5,0.1c0.8,0,1.1-0.4,1.1-1.4c0.1-1.1,0.2-3.3,0.2-6.6h-2
				c0,0.5,0,0.9,0,1.3c-0.1,3.9-0.8,6.6-2.3,8.4c-0.3-0.3-0.6-0.7-0.9-1.1c1.2-1.4,1.8-3.8,1.8-7.2c0-0.5,0.1-1.4,0.1-2.7
				c0-1.1,0.1-2,0.1-2.7h-1.7V151.8z M659.9,149.3l1.2-0.5c0.1,0.2,0.2,0.5,0.4,0.8c0.3,0.7,0.6,1.3,0.8,1.8l-1.3,0.5
				C660.8,151,660.5,150.2,659.9,149.3z M668.1,163.3l0.9,1c-0.2,0.1-0.4,0.2-0.6,0.4c-1.3,1-2.5,1.7-3.4,2.2
				c-0.3-0.4-0.6-0.7-0.9-1.1C665.5,165,666.8,164.2,668.1,163.3z M664.4,152.7c0.9-1,1.7-2.4,2.4-4l1.3,0.4
				c-0.2,0.3-0.3,0.6-0.5,1.1c-0.1,0.2-0.2,0.4-0.2,0.5h8.2v1.3h-9c-0.4,0.6-0.8,1.2-1.3,1.8c-0.1,0-0.1-0.1-0.2-0.2
				C664.8,153.1,664.6,152.8,664.4,152.7z M666.4,152.7h1.3v1.4h4.5v-1.4h1.3v1.4h1.8v1.2h-1.8v6.6h2.2v1.2h-11.2V162h2v-6.6h-1.8
				v-1.2h1.8V152.7z M667.7,155.4v1.4h4.5v-1.4H667.7z M667.7,157.9v1.4h4.5v-1.4H667.7z M667.7,160.5v1.4h4.5v-1.4H667.7z
				 M671,164.2l0.8-0.9c1.2,0.8,2.5,1.6,3.8,2.5l-1,1.1C673.5,165.9,672.3,165,671,164.2z"/>
			<path fill="#999999" d="M695.5,155.1c2.8,1.5,5.2,2.8,7.4,4l-1,1.4c-2.7-1.7-5.1-3-7-4v10.1h-1.5v-14.9H686v-1.4h17.9v1.4h-9v4.4
				L695.5,155.1z"/>
			<path fill="#999999" d="M716.2,156.2h8.7c0.8-1,1.5-2.2,2.3-3.7l1.4,0.9c-0.8,1.1-1.5,2-2,2.7h5.5v1.3h-14.3v1.3
				c0.1,3.5-0.7,6.2-2.4,8.1c-0.3-0.4-0.6-0.8-1-1.2c1.4-1.3,2.1-3.6,2-6.9V156.2z M722.3,149.2l1.4-0.5c0,0.1,0.1,0.3,0.2,0.6
				c0.3,0.7,0.4,1.2,0.5,1.6h7.9v1.3h-17.8v-1.3h8.3C722.8,150.4,722.6,149.8,722.3,149.2z M718.4,153.3l1.3-0.8
				c0.1,0.2,0.3,0.4,0.5,0.7c0.8,1,1.3,1.7,1.5,2.1l-1.3,0.9C719.7,154.9,719,154,718.4,153.3z"/>
			<path fill="#999999" d="M743.6,158.4h7v8.4h-1.4v-1.2H745v1.2h-1.4V158.4z M745,159.7v4.7h4.2v-4.7H745z M745.4,149.6H758v6.7
				h-12.6V149.6z M746.9,150.9v4.1h9.7v-4.1H746.9z M752.9,158.4h7v8.4h-1.4v-1.2h-4.2v1.2h-1.4V158.4z M754.3,159.7v4.8h4.2v-4.8
				H754.3z"/>
		</g>
		<g>
			<g>
				<polygon fill="#BCD0FF" points="449.3,88.7 483.3,93.4 516.9,88.5 483.1,86.2 				"/>
				<polygon fill="#6491FF" points="449.3,88.7 435.2,98.6 443.9,112.3 447.6,101.7 				"/>
				<polygon fill="#4077FF" points="447.6,101.7 466.7,115.3 483.1,157.9 443.9,112.3 				"/>
				<polygon fill="#95B4FF" points="470,91.6 447.6,101.7 449.3,88.7 				"/>
				<polygon fill="#BCD0FF" points="466.7,115.3 470,91.6 447.6,101.7 				"/>
				<polygon fill="#95B4FF" points="470,91.6 483.2,103.1 466.7,115.3 				"/>
				<polygon fill="#95B4FF" points="470,91.6 483.3,93.4 496.5,91.5 483.2,103.1 				"/>
				<polygon fill="#6491FF" points="483.2,103.1 466.7,115.3 483.1,157.9 				"/>
				<polygon fill="#BCD0FF" points="496.5,91.5 483.2,103.1 499.8,115 				"/>
				<polygon fill="#4F82FF" points="483.2,103.1 499.8,115 483.1,157.9 				"/>
				<polygon fill="#95B4FF" points="496.5,91.5 519,101.4 499.8,115 				"/>
				<polygon fill="#95B4FF" points="519,101.4 522.5,112.4 483.1,157.9 499.8,115 				"/>
				<polygon fill="#BCD0FF" points="516.9,88.5 519,101.4 522.5,112.4 531.4,98.3 				"/>
			</g>
			<polygon fill="#7AA1FF" points="516.9,88.5 519,101.4 496.5,91.5 			"/>
		</g>
	</g>
</g>
</svg>
