<?xml version="1.0" encoding="utf-8"?>
<!-- Generator: Adobe Illustrator 17.1.0, SVG Export Plug-In . SVG Version: 6.00 Build 0)  -->
<!DOCTYPE svg PUBLIC "-//W3C//DTD SVG 1.1//EN" "http://www.w3.org/Graphics/SVG/1.1/DTD/svg11.dtd">
<svg version="1.1" id="图层_1" xmlns="http://www.w3.org/2000/svg" xmlns:xlink="http://www.w3.org/1999/xlink" x="0px" y="0px"
	 viewBox="0 0 581.5 214.3" style="enable-background:new 0 0 581.5 214.3;" xml:space="preserve">
<g>
	<g id="形状_2_copy_3_副本_4_88_">
		<g>
			<path style="fill-rule:evenodd;clip-rule:evenodd;fill:#333333;" d="M33.9,148.2C22.9,169.8,13,189,1.6,211.7h15.5
				c2.9-5.4,4.4-8.7,8-15.1c8.1,0,14.2,0,22.3,0c-1.6-4.7-2.8-8.3-4.2-12.1H30.9c3.6-7.2,5.7-11.3,11.1-21.2
				c5.8,16.6,11.6,33.3,17.2,48.4h14.1c-8-22.2-14.8-41.5-22.2-63.5H33.9z M76.9,211.7h13.4l2.9-63.6l-13.3,0L76.9,211.7z M98,211.7
				h14.2l1.8-47.4h-13.6L98,211.7z M100.9,148.1l-0.4,10.2c0,0,10.3,0.1,13.4,0l0.5-10.2C102.5,148.1,102.3,148.1,100.9,148.1z
				 M187.5,164.5c-2.4-0.9-4.9-1.3-7.7-1.3c-1.6,0-3.1,0.1-4.6,0.4c-1.5,0.3-2.8,0.7-4,1.2c-1.2,0.5-2.3,1.2-3.2,1.9
				c-1,0.8-1.7,1.5-2.3,2.3c-0.6,0.7-1.2,1.6-1.9,2.7c-0.6-1.5-1.2-2.6-1.7-3.4c-0.5-0.8-1.2-1.4-1.9-2.1c-0.8-0.6-1.7-1.2-2.8-1.7
				c-1.1-0.5-2.3-0.9-3.6-1.1c-1.3-0.3-2.7-0.4-4.1-0.4c-1.9,0-3.7,0.2-5.4,0.7c-1.8,0.4-3.3,1.1-4.6,1.8c-1.3,0.8-2.4,1.6-3.2,2.5
				c-0.8,0.9-1.7,2.1-2.7,3.6l0.4-7.5h-12.6l-2.1,47.4c0,0,10.5-0.1,13.3,0c0-4.1,0.2-9.6,0.5-16.5c0.3-6.9,0.9-11.6,1.7-13.9
				c0.8-2.4,2-4.3,3.6-5.7c1.7-1.4,3.6-2.1,5.7-2.1c1.2,0,2.2,0.2,3.1,0.6c0.9,0.4,1.7,1,2.4,1.9c0.7,0.9,1.1,1.8,1.3,2.7
				c0.2,0.9,0.3,2.1,0.3,3.5c0,2.6-0.2,7.6-0.6,14.9c-0.4,7.4-0.7,12.3-0.9,14.7c2.9-0.1,10.7-0.1,13.3,0l0.3-12.9
				c0.2-4.6,0.3-8.4,0.6-11.2c0.2-2.8,0.6-5,1.2-6.6c0.5-1.6,1.3-3,2.3-4.1c1-1.2,2-2,3.2-2.6c1.1-0.5,2.4-0.8,3.8-0.8
				c1.3,0,2.5,0.2,3.6,0.7c1.1,0.5,2,1.3,2.7,2.4c0.7,1.1,1,2.8,1,5c0,1.9-0.1,4.2-0.2,6.9l-0.6,10.7c-0.3,4.4-0.5,8.6-0.8,12.6
				c2.8-0.1,11-0.1,13.3,0c0-3.6,0.2-8.6,0.5-15.2c0.3-6.5,0.6-11.2,0.8-14.1c0.2-2.9,0.3-5.1,0.3-6.6c0-2.8-0.7-5.2-2.1-7.1
				C191.8,166.8,189.9,165.4,187.5,164.5z M237.8,164.4c-2.9-0.8-6-1.2-9.4-1.2c-3,0-6.1,0.2-9.4,0.6c-3.2,0.4-11.2,2.1-11.2,2.1
				l-1.4,8.8c0,0,13.1-4,18.8-4c1.5,0,2.9,0.2,4.2,0.5c1.3,0.3,2.3,0.9,3.1,1.7c0.8,0.8,1.2,1.9,1.2,3.1c0,0.6-0.1,1.2-0.4,1.8
				c-0.3,0.6-0.7,1.2-1.2,1.7c-0.6,0.5-1.2,1-2,1.3c-0.8,0.3-1.8,0.7-3.1,1c-1.3,0.4-2.5,0.7-3.7,0.9c-4.5,1-8,1.9-10.8,2.9
				c-2.7,0.9-4.8,1.9-6.2,2.9c-1.4,1-2.6,2.1-3.5,3.2c-0.9,1.1-1.6,2.3-2.1,3.6c-0.5,1.3-0.7,2.6-0.7,4c0,2.3,0.6,4.6,1.8,6.9
				c1.2,2.3,3.1,4,5.6,5c2.5,1.1,5.7,1.6,9.7,1.6c1.1,0,2.3,0,3.6-0.1c1.3-0.1,3.1-0.3,5.3-0.7c0.9-3.5,1.6-6.1,2.3-7.9
				c-1.9,0.6-3.4,1-4.5,1.2c-1.1,0.2-2.2,0.2-3.2,0.2c-1.6,0-2.9-0.2-4.1-0.6c-1.1-0.4-2.1-1-2.9-2c-0.8-0.9-1.1-2.1-1.1-3.4
				c0-0.8,0.1-1.6,0.4-2.3c0.3-0.7,0.8-1.4,1.4-2c0.6-0.6,1.5-1.2,2.4-1.7c0.9-0.5,2-1,3.2-1.4c1.2-0.4,2.8-0.9,4.7-1.4
				c2-0.5,3.3-0.9,4.1-1.2c0.8-0.3,1.5-0.6,2.1-0.9c0.6-0.3,1.5-0.9,2.7-1.6l-1.6,24.6h13.2c0,0,0.4-15.2,0.9-22.5
				c0.5-7.2,0.7-11.8,0.7-13.5c0-3.3-0.8-5.8-2.4-7.5C242.9,166.5,240.7,165.2,237.8,164.4z M321.1,164.5c-2.4-0.9-5-1.3-7.7-1.3
				c-1.6,0-3.1,0.1-4.6,0.4c-1.5,0.3-2.8,0.7-4,1.2c-1.2,0.5-2.3,1.2-3.2,1.9c-1,0.8-1.7,1.5-2.3,2.3c-0.6,0.7-1.2,1.6-1.9,2.7
				c-0.6-1.5-1.2-2.6-1.7-3.4c-0.5-0.8-1.2-1.4-1.9-2.1c-0.8-0.6-1.7-1.2-2.8-1.7c-1.1-0.5-2.3-0.9-3.6-1.1
				c-1.3-0.3-2.7-0.4-4.1-0.4c-1.9,0-3.7,0.2-5.4,0.7c-1.8,0.4-3.3,1.1-4.6,1.8c-1.3,0.8-2.4,1.6-3.2,2.5c-0.8,0.9-1.7,2.1-2.7,3.6
				l0.4-7.5h-12.6l-2.1,47.4h13.3c0,0,0.2-9.6,0.5-16.5c0.3-6.9,0.9-11.6,1.7-13.9c0.8-2.4,2-4.3,3.6-5.7c1.7-1.4,3.6-2.1,5.7-2.1
				c1.2,0,2.2,0.2,3.1,0.6c0.9,0.4,1.7,1,2.4,1.9c0.7,0.9,1.1,1.8,1.3,2.7c0.2,0.9,0.3,2.1,0.3,3.5c0,2.6-0.2,7.6-0.6,14.9
				c-0.4,7.4-0.7,12.3-0.9,14.7c2.9-0.1,10.7-0.1,13.3,0l0.3-12.9c0.2-4.6,0.4-8.4,0.6-11.2c0.2-2.8,0.6-5,1.2-6.6
				c0.5-1.6,1.3-3,2.3-4.1c1-1.2,2-2,3.2-2.6c1.1-0.5,2.4-0.8,3.8-0.8c1.3,0,2.6,0.2,3.6,0.7c1.1,0.5,2,1.3,2.7,2.4
				c0.7,1.1,1.1,2.8,1.1,5c0,1.9-0.1,4.2-0.2,6.9l-0.6,10.7c-0.3,4.4-0.5,8.6-0.8,12.6c2.8-0.1,11-0.1,13.3,0
				c0-3.6,0.2-8.6,0.5-15.2c0.3-6.5,0.6-11.2,0.8-14.1c0.2-2.9,0.3-5.1,0.3-6.6c0-2.8-0.7-5.2-2.1-7.1
				C325.4,166.8,323.5,165.4,321.1,164.5z M371.4,164.4c-2.9-0.8-6-1.2-9.4-1.2c-3,0-6.1,0.2-9.4,0.6c-3.2,0.4-11.2,2.1-11.2,2.1
				l-1.4,8.8c0,0,13.1-4,18.8-4c1.5,0,2.9,0.2,4.2,0.5c1.3,0.3,2.3,0.9,3.1,1.7c0.8,0.8,1.2,1.9,1.2,3.1c0,0.6-0.1,1.2-0.4,1.8
				c-0.3,0.6-0.7,1.2-1.2,1.7c-0.6,0.5-1.2,1-2,1.3c-0.8,0.3-1.8,0.7-3.1,1c-1.3,0.4-2.5,0.7-3.7,0.9c-4.5,1-8,1.9-10.7,2.9
				c-2.7,0.9-4.8,1.9-6.2,2.9c-1.4,1-2.6,2.1-3.5,3.2c-0.9,1.1-1.6,2.3-2.1,3.6c-0.5,1.3-0.7,2.6-0.7,4c0,2.3,0.6,4.6,1.8,6.9
				c1.2,2.3,3.1,4,5.6,5c2.5,1.1,5.7,1.6,9.7,1.6c1.1,0,2.3,0,3.6-0.1c1.3-0.1,3.1-0.3,5.3-0.7c0.9-3.5,1.6-6.1,2.3-7.9
				c-1.9,0.6-3.4,1-4.5,1.2c-1.1,0.2-2.1,0.2-3.2,0.2c-1.6,0-2.9-0.2-4.1-0.6c-1.1-0.4-2.1-1-2.9-2c-0.8-0.9-1.1-2.1-1.1-3.4
				c0-0.8,0.1-1.6,0.4-2.3c0.3-0.7,0.8-1.4,1.4-2c0.7-0.6,1.5-1.2,2.4-1.7c1-0.5,2-1,3.2-1.4c1.2-0.4,2.8-0.9,4.7-1.4
				c2-0.5,3.3-0.9,4.1-1.2c0.8-0.3,1.5-0.6,2.1-0.9c0.6-0.3,1.5-0.9,2.7-1.6l-1.6,24.6h13.2c0,0,0.4-15.2,0.9-22.5
				c0.5-7.2,0.7-11.8,0.7-13.5c0-3.3-0.8-5.8-2.4-7.5C376.5,166.5,374.3,165.2,371.4,164.4z M386.4,199.2
				c-0.2,6.1-0.4,10.3-0.5,12.5c4.4-0.1,13.1,0,13.1,0s0.5-10.3,0.7-12.5C396.1,199.2,386.4,199.2,386.4,199.2z M421,177.2
				c1.3-1.5,3-2.7,4.8-3.4c1.9-0.7,3.9-1.1,6-1.1c3.5,0,7.5,0.8,12.1,2.4l-0.7-10.2c-2.9-0.7-5.5-1.2-7.6-1.4
				c-2.1-0.2-4.2-0.3-6.3-0.3c-3.6,0-7,0.4-9.9,1.2c-3,0.8-5.7,2.4-8.1,4.7c-2.4,2.3-4.3,5.2-5.5,8.8c-1.3,3.6-1.9,7.4-1.9,11.3
				c0,2.9,0.4,5.8,1.1,8.6c0.8,2.8,1.9,5.1,3.4,7.1c1.5,2,3.3,3.5,5.3,4.7c2,1.2,4.2,2,6.5,2.5c2.3,0.5,4.8,0.7,7.3,0.7
				c4.3,0,8.7-0.5,13.2-1.5c0.3-2.4,0.7-4.4,1-6c0.3-1.6,0.5-3.1,0.7-4.3c-2.2,0.8-4.4,1.4-6.4,1.8c-2,0.3-3.7,0.5-5.1,0.5
				c-2.9,0-5.4-0.6-7.6-1.8c-2.2-1.2-3.8-2.9-4.7-5c-0.9-2.2-1.4-4.7-1.4-7.7c0-2.1,0.3-4.2,0.9-6.2
				C418.7,180.6,419.6,178.8,421,177.2z M492.1,169.6c-2.3-2.1-5.1-3.7-8.4-4.7c-3.3-1.1-6.7-1.6-10.3-1.6c-3.9,0-7.6,0.7-11.2,2
				c-3.6,1.3-6.6,3.2-8.9,5.6c-2.3,2.4-4,5.2-5.1,8.3c-1.1,3.1-1.6,6.4-1.6,9.8c0,3.4,0.6,6.6,1.8,9.6c1.2,3.1,3,5.7,5.3,7.8
				c2.3,2.1,5.1,3.7,8.3,4.8c3.3,1.1,6.7,1.6,10.3,1.6c3.9,0,7.6-0.6,11-1.8c3.4-1.2,6.3-3,8.6-5.4c2.3-2.4,4.1-5.3,5.3-8.6
				c1.2-3.3,1.8-6.7,1.8-10.2c0-3.4-0.6-6.5-1.7-9.6C496.1,174.2,494.4,171.7,492.1,169.6z M484.2,195.5c-1,2.6-2.6,4.6-4.7,6
				c-2.1,1.3-4.5,2-7.2,2c-2.7,0-5-0.7-6.9-2c-1.9-1.3-3.3-3-4.2-5.1c-0.9-2.1-1.3-4.5-1.3-7.2c0-3.1,0.5-5.9,1.6-8.5
				c1-2.6,2.6-4.6,4.8-5.9c2.1-1.3,4.5-2,7.2-2c2.7,0,5.1,0.6,7,1.9c1.9,1.3,3.3,3,4.1,5.1c0.8,2.1,1.2,4.5,1.2,7
				C485.7,190,485.2,192.9,484.2,195.5z M575.7,168.7c-1.4-1.9-3.3-3.3-5.6-4.2c-2.4-0.9-4.9-1.3-7.7-1.3c-1.6,0-3.1,0.1-4.6,0.4
				c-1.5,0.3-2.8,0.7-4,1.2c-1.2,0.5-2.3,1.2-3.2,1.9c-1,0.8-1.7,1.5-2.3,2.3c-0.6,0.7-1.2,1.6-1.9,2.7c-0.6-1.5-1.2-2.6-1.7-3.4
				c-0.5-0.8-1.2-1.4-1.9-2.1c-0.8-0.6-1.7-1.2-2.8-1.7c-1.1-0.5-2.3-0.9-3.6-1.1c-1.3-0.3-2.7-0.4-4.1-0.4c-1.9,0-3.7,0.2-5.4,0.7
				c-1.8,0.4-3.3,1.1-4.6,1.8c-1.3,0.8-2.4,1.6-3.2,2.5c-0.8,0.9-1.7,2.1-2.7,3.6l0.4-7.5c-2.2,0.1-10,0.1-12.6,0
				c0,5.3-1.7,42.1-2.1,47.4c2.9-0.1,10.5-0.1,13.3,0c0-4.1,0.2-9.6,0.5-16.5c0.3-6.9,0.9-11.6,1.7-13.9c0.8-2.4,2-4.3,3.6-5.7
				c1.6-1.4,3.6-2.1,5.7-2.1c1.2,0,2.2,0.2,3.1,0.6c0.9,0.4,1.7,1,2.4,1.9c0.7,0.9,1.1,1.8,1.3,2.7c0.2,0.9,0.3,2.1,0.3,3.5
				c0,2.6-0.2,7.6-0.6,14.9c-0.4,7.4-0.7,12.3-0.9,14.7c2.9-0.1,10.7-0.1,13.3,0l0.3-12.9c0.2-4.6,0.4-8.4,0.6-11.2
				c0.2-2.8,0.6-5,1.2-6.6c0.5-1.6,1.3-3,2.3-4.1c1-1.2,2-2,3.2-2.6c1.1-0.5,2.4-0.8,3.8-0.8c1.3,0,2.5,0.2,3.6,0.7
				c1.1,0.5,2,1.3,2.7,2.4c0.7,1.1,1.1,2.8,1.1,5c0,1.9-0.1,4.2-0.2,6.9l-0.6,10.7c-0.3,4.4-0.5,8.6-0.8,12.6c2.8-0.1,11-0.1,13.3,0
				c0-3.6,0.2-8.6,0.5-15.2c0.3-6.5,0.6-11.2,0.8-14.1c0.2-2.9,0.3-5.1,0.3-6.6C577.8,173,577.1,170.6,575.7,168.7z"/>
		</g>
	</g>
	<g id="形状_2_copy_3_副本_5_86_">
		<g>
			<path style="fill-rule:evenodd;clip-rule:evenodd;fill:#333333;" d="M57.2,15.3c19.8,0,39.6,0,59.4,0c0,29.6,0,60.2,0,87.6
				c0,1.7-2.3,4.3-4.6,4.4c-3.1,0-4.5,0-8.3,0v14.3c4.6,0,8.5,0,12.9,0c11.5,0,19.1-5.6,19.1-15.1c0-22.7,0-68,0-91.3h6.9V1.6H57.2
				V15.3z M410,103.6c6.3,0,3.9,0,10.3,0c3.7,0,8.8-3.1,8.8-8.9c0-15.1,0-26.8,0-42c-2.9,0-5.9,0-8.4,0c0-11.5,0-35.3,0-43.7
				c0-3.5-3.5-7.4-7.8-7.4h-62.2v13.7h48c0,12.4,0,25,0,37.4c-11.4,0-13.2,0-23.1,0c-1.3,0-2.8-1.4-2.8-2.5c0-6.3,0-16.3,0-24.6
				c0-1.9-1.9-4.1-5-4.1h-14.1v33.1c0,6.4,5.6,11.7,11.7,11.7c0,0,24.4,0,44.7,0v12.3h-49.4c-5.5,0-13.9,5.2-13.9,13.9
				c17.2,0,44.7-0.4,63.3-0.4C410,95.6,410,99.3,410,103.6z M107.6,82.8c0-15.6,0-37.8,0-59.2H58.1v75.3c14.5,0.1,32.8,0,32.8,0
				C103.4,98.9,107.6,91.8,107.6,82.8z M86.5,85.1c-3.6,0-7.4,0-12.5,0V38c5.3,0,11.5,0,16.8,0c0,14.3,0,30.1,0,42.6
				C90.9,83.2,89.3,85.1,86.5,85.1z M1.6,5c0,27,0,62.3,0,116.6h18.3c0-34,0-71.2,0-106.4c4.3,0,9.4,0,13.7,0c0,20.4,0,38.7,0,57.8
				c0,7.8-6.9,10.6-6.9,10.7v15.1c12.9,0,24.4-13.3,24.4-25.4c0-21.9,0-49.8,0-71.9c-16.5,0-29.1,0-45.6,0C1.5,1.5,1.6,5,1.6,5z
				 M571.4,52.6c0-11.5,0-35.3,0-43.7c0-3.5-3.5-7.4-7.8-7.4h-62.2v13.7c15.9,0,31.9,0,47.9,0v37.4c-11.4,0-13.2,0-23.1,0
				c-1.3,0-2.8-1.4-2.8-2.5c0-6.3,0-16.3,0-24.6c0-2-1.9-4.1-4.9-4.1c-3.9,0-9.6,0-14.2,0v33c0,6.4,5.6,11.7,11.7,11.7
				c0,0,24.4,0,44.7,0v12.3h-48.8c-5.5,0-14.2,4.8-14.2,13.5c17.2,0,44.3,0,63,0v12.7c0,2.1-1.7,3.1-4.2,3.1h-7.2
				c0,6.2,0,9.6,0,13.6h11.1c3.4,0,2.6,0.1,6,0.1c9.3,0,13.3-6.6,13.2-12c0-17.2,0.1-39.9,0.1-57.1
				C576.9,52.7,573.9,52.7,571.4,52.6z M483.1,98.8c6.6-7.3,10.3-15.9,11.1-32.5c0-17.9,0-35.3,0-53c0-1.5-1.9-3.5-3.7-3.4
				c-6.9,0-15.8,0-23.4,0V1.6h-18.3c0,2.8,0,5.5,0,8.3c-1.9,0-4.3,0-6.1,0v13.7h6.1v42.7c0,16.5,5.4,24.9,12.2,32.5
				c-8.1,5.5-16.3,9.1-27.4,9.1c-1.5,0-3.1,0-4.7,0c-17.1,0-37.9,0.1-56.3,0.1c-17.2,0-33.7-3.1-39.9-10.7c5.9-8,9-14.4,10.8-31
				c0.1-16.6,0.1-30.7,0-51.9c-0.3-2.3-2.3-4.4-4.4-4.5c-7.2,0-14.5,0-23.4,0V1.6c-7.5,0-10.3,0-17.8,0v8.3c-2,0-3.5,0-6.1,0v13.7
				c2.7,0,4.2,0,6.1,0c0,14.1,0.1,29.7,0.1,42.7c1.4,16.6,6.6,22,13.1,31.7c-9.3,6.5-20.6,9.3-33.7,10c-15.7,0-29.8,0-49.5,0
				c0-3.4,0-8.2,0-10.7h49.6V82.9h-49.5c0-3.4,0-7.1,0-10.6c14.3,0,33,0,37.3,0c0,0,12.1,0,12.2-13.3c0.2-13.9,0-38.8,0-57.4
				c-39.2,0-79,0-118.2,0c-1.9,0-3.8,2-3.8,3.5c0,2.8,0,46.7,0,67.2c16.5,0,33.1,0,49.6,0v10.6h-49.6c0,4.4,0,9.7,0,14.4h49.4
				c0,3.5,0,7.2,0,10.7h-57.9c0,4,0,9.2,0,13.6c43.5,0,97.3,0.2,139.5,0c11.4,0,25.6-5.9,35.7-11.8c12.8,9.9,26.9,11.9,50.4,11.8
				c7.1,0,15,0,23.7,0c12.2,0,23.1,0,32.7,0c19.7,0,32.1-4.2,44.2-11.3c11.1,6.7,21.7,10.8,39,11.3v0h26.3V108h-26.3
				C500.4,106.9,490.7,105.1,483.1,98.8z M204.8,58.6h-30.4V44.1h30.4V58.6z M204.9,29.7h-30.4V15.2c10.2,0,20.3,0,30.4,0V29.7z
				 M227.8,15.2h30.5v14.4h-30.5V15.2z M227.8,44.1c10.2,0,20.3,0,30.4,0c0,5.8,0,10.3,0,14.4h-30.5
				C227.8,54.7,227.8,48.7,227.8,44.1z M326.3,66.4c-0.7,9.5-2.2,11.8-4.5,18c-2.9-5.9-5.3-8.6-6-18.1c0-12.4,0-29.6,0-42.7h10.5
				V66.4z M477.2,66.4c-0.4,8.8-2.4,13.1-4.9,18c-2.9-4.7-5.3-9.7-5.3-18c0-13.2,0-29.1,0-42.8h10.2C477.2,37.3,477.2,53,477.2,66.4
				z"/>
		</g>
	</g>
</g>
</svg>
