<?xml version="1.0" encoding="utf-8"?>
<!-- Generator: Adobe Illustrator 17.1.0, SVG Export Plug-In . SVG Version: 6.00 Build 0)  -->
<!DOCTYPE svg PUBLIC "-//W3C//DTD SVG 1.1//EN" "http://www.w3.org/Graphics/SVG/1.1/DTD/svg11.dtd">
<svg version="1.1" id="图层_1" xmlns="http://www.w3.org/2000/svg" xmlns:xlink="http://www.w3.org/1999/xlink" x="0px" y="0px"
	 viewBox="0 0 258.8 134" enable-background="new 0 0 258.8 134" xml:space="preserve">
<g>
	<g id="形状_2_copy_3_副本_4_51_">
		<g>
			<path fill-rule="evenodd" clip-rule="evenodd" fill="#CCCCCC" d="M80.4,89.2c-3.1,6-5.8,11.4-9,17.7h4.3c0.8-1.5,1.2-2.4,2.2-4.2
				c2.3,0,4,0,6.2,0c-0.5-1.3-0.8-2.3-1.2-3.4h-3.4c1-2,1.6-3.2,3.1-5.9c1.6,4.6,3.2,9.3,4.8,13.5h3.9c-2.2-6.2-4.1-11.6-6.2-17.7
				H80.4z M92.4,106.9h3.7l0.8-17.7l-3.7,0L92.4,106.9z M98.3,106.9h4l0.5-13.2h-3.8L98.3,106.9z M99.1,89.2L99,92c0,0,2.9,0,3.7,0
				l0.1-2.8C99.5,89.2,99.5,89.2,99.1,89.2z M123.3,93.8c-0.7-0.2-1.4-0.4-2.1-0.4c-0.4,0-0.9,0-1.3,0.1c-0.4,0.1-0.8,0.2-1.1,0.3
				c-0.3,0.1-0.6,0.3-0.9,0.5c-0.3,0.2-0.5,0.4-0.6,0.6c-0.2,0.2-0.3,0.5-0.5,0.8c-0.2-0.4-0.3-0.7-0.5-0.9
				c-0.1-0.2-0.3-0.4-0.5-0.6c-0.2-0.2-0.5-0.3-0.8-0.5c-0.3-0.1-0.6-0.2-1-0.3c-0.4-0.1-0.7-0.1-1.1-0.1c-0.5,0-1,0.1-1.5,0.2
				c-0.5,0.1-0.9,0.3-1.3,0.5c-0.4,0.2-0.7,0.5-0.9,0.7c-0.2,0.3-0.5,0.6-0.8,1l0.1-2.1h-3.5l-0.6,13.2c0,0,2.9,0,3.7,0
				c0-1.1,0-2.7,0.1-4.6c0.1-1.9,0.2-3.2,0.5-3.9c0.2-0.7,0.5-1.2,1-1.6c0.5-0.4,1-0.6,1.6-0.6c0.3,0,0.6,0.1,0.9,0.2
				c0.3,0.1,0.5,0.3,0.7,0.5c0.2,0.2,0.3,0.5,0.4,0.8c0.1,0.3,0.1,0.6,0.1,1c0,0.7-0.1,2.1-0.2,4.2c-0.1,2.1-0.2,3.4-0.3,4.1
				c0.8,0,3,0,3.7,0l0.1-3.6c0-1.3,0.1-2.3,0.2-3.1c0.1-0.8,0.2-1.4,0.3-1.8c0.1-0.4,0.4-0.8,0.6-1.2c0.3-0.3,0.6-0.6,0.9-0.7
				c0.3-0.1,0.7-0.2,1.1-0.2c0.4,0,0.7,0.1,1,0.2c0.3,0.1,0.5,0.4,0.7,0.7c0.2,0.3,0.3,0.8,0.3,1.4c0,0.5,0,1.2-0.1,1.9l-0.2,3
				c-0.1,1.2-0.1,2.4-0.2,3.5c0.8,0,3.1,0,3.7,0c0-1,0.1-2.4,0.1-4.2c0.1-1.8,0.2-3.1,0.2-3.9c0.1-0.8,0.1-1.4,0.1-1.8
				c0-0.8-0.2-1.4-0.6-2C124.5,94.4,123.9,94,123.3,93.8z M137.3,93.7c-0.8-0.2-1.7-0.3-2.6-0.3c-0.8,0-1.7,0.1-2.6,0.2
				c-0.9,0.1-3.1,0.6-3.1,0.6l-0.4,2.5c0,0,3.7-1.1,5.2-1.1c0.4,0,0.8,0,1.2,0.1c0.3,0.1,0.6,0.3,0.9,0.5c0.2,0.2,0.3,0.5,0.3,0.9
				c0,0.2,0,0.3-0.1,0.5c-0.1,0.2-0.2,0.3-0.3,0.5c-0.2,0.2-0.3,0.3-0.6,0.4c-0.2,0.1-0.5,0.2-0.9,0.3c-0.4,0.1-0.7,0.2-1,0.3
				c-1.2,0.3-2.2,0.5-3,0.8c-0.8,0.3-1.3,0.5-1.7,0.8c-0.4,0.3-0.7,0.6-1,0.9c-0.3,0.3-0.4,0.6-0.6,1c-0.1,0.4-0.2,0.7-0.2,1.1
				c0,0.7,0.2,1.3,0.5,1.9c0.3,0.6,0.9,1.1,1.6,1.4c0.7,0.3,1.6,0.4,2.7,0.4c0.3,0,0.7,0,1,0c0.4,0,0.9-0.1,1.5-0.2
				c0.2-1,0.5-1.7,0.6-2.2c-0.5,0.2-0.9,0.3-1.2,0.3c-0.3,0-0.6,0.1-0.9,0.1c-0.4,0-0.8-0.1-1.1-0.2c-0.3-0.1-0.6-0.3-0.8-0.6
				c-0.2-0.3-0.3-0.6-0.3-0.9c0-0.2,0-0.4,0.1-0.6c0.1-0.2,0.2-0.4,0.4-0.6c0.2-0.2,0.4-0.3,0.7-0.5c0.3-0.1,0.6-0.3,0.9-0.4
				c0.3-0.1,0.8-0.2,1.3-0.4c0.5-0.2,0.9-0.3,1.1-0.3c0.2-0.1,0.4-0.2,0.6-0.2c0.2-0.1,0.4-0.2,0.8-0.5l-0.4,6.9h3.7
				c0,0,0.1-4.2,0.2-6.3c0.1-2,0.2-3.3,0.2-3.8c0-0.9-0.2-1.6-0.7-2.1C138.7,94.3,138.1,94,137.3,93.7z M160.5,93.8
				c-0.7-0.2-1.4-0.4-2.1-0.4c-0.4,0-0.9,0-1.3,0.1c-0.4,0.1-0.8,0.2-1.1,0.3c-0.3,0.1-0.6,0.3-0.9,0.5c-0.3,0.2-0.5,0.4-0.6,0.6
				c-0.2,0.2-0.3,0.5-0.5,0.8c-0.2-0.4-0.3-0.7-0.5-0.9c-0.1-0.2-0.3-0.4-0.5-0.6c-0.2-0.2-0.5-0.3-0.8-0.5c-0.3-0.1-0.6-0.2-1-0.3
				c-0.4-0.1-0.7-0.1-1.1-0.1c-0.5,0-1,0.1-1.5,0.2c-0.5,0.1-0.9,0.3-1.3,0.5c-0.4,0.2-0.7,0.5-0.9,0.7c-0.2,0.3-0.5,0.6-0.8,1
				l0.1-2.1h-3.5l-0.6,13.2h3.7c0,0,0-2.7,0.1-4.6c0.1-1.9,0.2-3.2,0.5-3.9c0.2-0.7,0.5-1.2,1-1.6c0.5-0.4,1-0.6,1.6-0.6
				c0.3,0,0.6,0.1,0.9,0.2c0.3,0.1,0.5,0.3,0.7,0.5c0.2,0.2,0.3,0.5,0.4,0.8c0.1,0.3,0.1,0.6,0.1,1c0,0.7-0.1,2.1-0.2,4.2
				c-0.1,2.1-0.2,3.4-0.3,4.1c0.8,0,3,0,3.7,0l0.1-3.6c0-1.3,0.1-2.3,0.2-3.1c0.1-0.8,0.2-1.4,0.3-1.8c0.1-0.4,0.4-0.8,0.6-1.2
				c0.3-0.3,0.6-0.6,0.9-0.7c0.3-0.1,0.7-0.2,1.1-0.2c0.4,0,0.7,0.1,1,0.2c0.3,0.1,0.5,0.4,0.7,0.7c0.2,0.3,0.3,0.8,0.3,1.4
				c0,0.5,0,1.2-0.1,1.9l-0.2,3c-0.1,1.2-0.1,2.4-0.2,3.5c0.8,0,3.1,0,3.7,0c0-1,0.1-2.4,0.1-4.2c0.1-1.8,0.2-3.1,0.2-3.9
				c0.1-0.8,0.1-1.4,0.1-1.8c0-0.8-0.2-1.4-0.6-2C161.7,94.4,161.2,94,160.5,93.8z M174.6,93.7c-0.8-0.2-1.7-0.3-2.6-0.3
				c-0.8,0-1.7,0.1-2.6,0.2c-0.9,0.1-3.1,0.6-3.1,0.6l-0.4,2.5c0,0,3.7-1.1,5.2-1.1c0.4,0,0.8,0,1.2,0.1c0.4,0.1,0.6,0.3,0.9,0.5
				c0.2,0.2,0.3,0.5,0.3,0.9c0,0.2,0,0.3-0.1,0.5c-0.1,0.2-0.2,0.3-0.3,0.5c-0.2,0.2-0.3,0.3-0.6,0.4c-0.2,0.1-0.5,0.2-0.9,0.3
				c-0.4,0.1-0.7,0.2-1,0.3c-1.2,0.3-2.2,0.5-3,0.8c-0.8,0.3-1.3,0.5-1.7,0.8c-0.4,0.3-0.7,0.6-1,0.9c-0.3,0.3-0.4,0.6-0.6,1
				c-0.1,0.4-0.2,0.7-0.2,1.1c0,0.7,0.2,1.3,0.5,1.9c0.3,0.6,0.9,1.1,1.6,1.4c0.7,0.3,1.6,0.4,2.7,0.4c0.3,0,0.7,0,1,0
				c0.4,0,0.9-0.1,1.5-0.2c0.2-1,0.5-1.7,0.6-2.2c-0.5,0.2-0.9,0.3-1.2,0.3c-0.3,0-0.6,0.1-0.9,0.1c-0.4,0-0.8-0.1-1.1-0.2
				c-0.3-0.1-0.6-0.3-0.8-0.6c-0.2-0.3-0.3-0.6-0.3-0.9c0-0.2,0-0.4,0.1-0.6c0.1-0.2,0.2-0.4,0.4-0.6c0.2-0.2,0.4-0.3,0.7-0.5
				c0.3-0.1,0.6-0.3,0.9-0.4c0.3-0.1,0.8-0.2,1.3-0.4c0.5-0.2,0.9-0.3,1.1-0.3c0.2-0.1,0.4-0.2,0.6-0.2c0.2-0.1,0.4-0.2,0.8-0.5
				l-0.4,6.9h3.7c0,0,0.1-4.2,0.2-6.3c0.1-2,0.2-3.3,0.2-3.8c0-0.9-0.2-1.6-0.7-2.1C176,94.3,175.4,94,174.6,93.7z M178.8,103.5
				c-0.1,1.7-0.1,2.9-0.1,3.5c1.2,0,3.6,0,3.6,0s0.1-2.9,0.2-3.5C181.5,103.5,178.8,103.5,178.8,103.5z M188.4,97.3
				c0.4-0.4,0.8-0.7,1.4-0.9c0.5-0.2,1.1-0.3,1.7-0.3c1,0,2.1,0.2,3.4,0.7l-0.2-2.8c-0.8-0.2-1.5-0.3-2.1-0.4
				c-0.6-0.1-1.2-0.1-1.7-0.1c-1,0-1.9,0.1-2.8,0.3c-0.8,0.2-1.6,0.7-2.3,1.3c-0.7,0.6-1.2,1.5-1.5,2.5c-0.4,1-0.5,2.1-0.5,3.1
				c0,0.8,0.1,1.6,0.3,2.4c0.2,0.8,0.5,1.4,1,2c0.4,0.5,0.9,1,1.5,1.3c0.6,0.3,1.2,0.6,1.8,0.7c0.7,0.1,1.3,0.2,2,0.2
				c1.2,0,2.4-0.1,3.7-0.4c0.1-0.7,0.2-1.2,0.3-1.7c0.1-0.5,0.2-0.9,0.2-1.2c-0.6,0.2-1.2,0.4-1.8,0.5c-0.6,0.1-1,0.1-1.4,0.1
				c-0.8,0-1.5-0.2-2.1-0.5c-0.6-0.3-1.1-0.8-1.3-1.4c-0.3-0.6-0.4-1.3-0.4-2.1c0-0.6,0.1-1.2,0.2-1.7
				C187.8,98.3,188.1,97.8,188.4,97.3z M208.3,95.2c-0.6-0.6-1.4-1-2.3-1.3c-0.9-0.3-1.9-0.4-2.9-0.4c-1.1,0-2.1,0.2-3.1,0.6
				c-1,0.4-1.8,0.9-2.5,1.6c-0.6,0.7-1.1,1.4-1.4,2.3c-0.3,0.9-0.5,1.8-0.5,2.7c0,0.9,0.2,1.8,0.5,2.7c0.3,0.9,0.8,1.6,1.5,2.2
				c0.6,0.6,1.4,1,2.3,1.3c0.9,0.3,1.9,0.4,2.9,0.4c1.1,0,2.1-0.2,3.1-0.5c1-0.3,1.8-0.8,2.4-1.5c0.6-0.7,1.1-1.5,1.5-2.4
				c0.3-0.9,0.5-1.9,0.5-2.9c0-0.9-0.2-1.8-0.5-2.7C209.4,96.5,208.9,95.8,208.3,95.2z M206.1,102.4c-0.3,0.7-0.7,1.3-1.3,1.7
				c-0.6,0.4-1.2,0.6-2,0.6c-0.7,0-1.4-0.2-1.9-0.5c-0.5-0.4-0.9-0.8-1.2-1.4c-0.2-0.6-0.4-1.3-0.4-2c0-0.9,0.1-1.7,0.4-2.4
				c0.3-0.7,0.7-1.3,1.3-1.6c0.6-0.4,1.3-0.6,2-0.6c0.8,0,1.4,0.2,1.9,0.5c0.5,0.4,0.9,0.8,1.1,1.4c0.2,0.6,0.3,1.2,0.3,2
				C206.5,100.9,206.4,101.7,206.1,102.4z M231.6,95c-0.4-0.5-0.9-0.9-1.6-1.2c-0.7-0.2-1.4-0.4-2.1-0.4c-0.4,0-0.9,0-1.3,0.1
				c-0.4,0.1-0.8,0.2-1.1,0.3c-0.3,0.1-0.6,0.3-0.9,0.5c-0.3,0.2-0.5,0.4-0.6,0.6c-0.2,0.2-0.3,0.5-0.5,0.8
				c-0.2-0.4-0.3-0.7-0.5-0.9c-0.1-0.2-0.3-0.4-0.5-0.6c-0.2-0.2-0.5-0.3-0.8-0.5c-0.3-0.1-0.6-0.2-1-0.3c-0.4-0.1-0.7-0.1-1.1-0.1
				c-0.5,0-1,0.1-1.5,0.2c-0.5,0.1-0.9,0.3-1.3,0.5c-0.4,0.2-0.7,0.5-0.9,0.7c-0.2,0.3-0.5,0.6-0.8,1l0.1-2.1c-0.6,0-2.8,0-3.5,0
				c0,1.5-0.5,11.7-0.6,13.2c0.8,0,2.9,0,3.7,0c0-1.1,0-2.7,0.1-4.6c0.1-1.9,0.2-3.2,0.5-3.9c0.2-0.7,0.5-1.2,1-1.6
				c0.5-0.4,1-0.6,1.6-0.6c0.3,0,0.6,0.1,0.9,0.2c0.3,0.1,0.5,0.3,0.7,0.5c0.2,0.2,0.3,0.5,0.4,0.8c0.1,0.3,0.1,0.6,0.1,1
				c0,0.7-0.1,2.1-0.2,4.2c-0.1,2.1-0.2,3.4-0.3,4.1c0.8,0,3,0,3.7,0l0.1-3.6c0-1.3,0.1-2.3,0.2-3.1c0.1-0.8,0.2-1.4,0.3-1.8
				c0.1-0.4,0.4-0.8,0.6-1.2c0.3-0.3,0.6-0.6,0.9-0.7c0.3-0.1,0.7-0.2,1.1-0.2c0.4,0,0.7,0.1,1,0.2c0.3,0.1,0.5,0.4,0.7,0.7
				c0.2,0.3,0.3,0.8,0.3,1.4c0,0.5,0,1.2-0.1,1.9l-0.2,3c-0.1,1.2-0.1,2.4-0.2,3.5c0.8,0,3.1,0,3.7,0c0-1,0.1-2.4,0.1-4.2
				c0.1-1.8,0.2-3.1,0.2-3.9c0.1-0.8,0.1-1.4,0.1-1.8C232.2,96.1,232,95.5,231.6,95z"/>
		</g>
	</g>
	<g id="形状_2_copy_3_副本_5_51_">
		<g>
			<path fill-rule="evenodd" clip-rule="evenodd" fill="#FF6600" d="M43.7,42.4c7.2,0,14.3,0,21.5,0c0,10.7,0,21.8,0,31.7
				c0,0.6-0.8,1.6-1.7,1.6c-1.1,0-1.6,0-3,0V81c1.7,0,3.1,0,4.7,0c4.1,0,6.9-2,6.9-5.5c0-8.2,0-24.6,0-33.1h2.5v-5H43.7V42.4z
				 M171.4,74.4c2.3,0,1.4,0,3.7,0c1.3,0,3.2-1.1,3.2-3.2c0-5.5,0-9.7,0-15.2c-1,0-2.1,0-3,0c0-4.2,0-12.8,0-15.8
				c0-1.3-1.3-2.7-2.8-2.7h-22.5v5h17.4c0,4.5,0,9.1,0,13.6c-4.1,0-4.8,0-8.4,0c-0.5,0-1-0.5-1-0.9c0-2.3,0-5.9,0-8.9
				c0-0.7-0.7-1.5-1.8-1.5H151v12c0,2.3,2,4.2,4.2,4.2c0,0,8.8,0,16.2,0v4.5h-17.9c-2,0-5,1.9-5,5c6.2,0,16.2-0.1,22.9-0.1
				C171.4,71.5,171.4,72.9,171.4,74.4z M61.9,66.9c0-5.7,0-13.7,0-21.4H44v27.3c5.2,0,11.9,0,11.9,0C60.4,72.7,61.9,70.2,61.9,66.9z
				 M54.3,67.7c-1.3,0-2.7,0-4.5,0V50.7c1.9,0,4.2,0,6.1,0c0,5.2,0,10.9,0,15.4C55.8,67.1,55.3,67.7,54.3,67.7z M23.5,38.7
				c0,9.8,0,22.6,0,42.2h6.6c0-12.3,0-25.8,0-38.5c1.6,0,3.4,0,5,0c0,7.4,0,14,0,20.9c0,2.8-2.5,3.8-2.5,3.9v5.5
				c4.7,0,8.8-4.8,8.8-9.2c0-7.9,0-18.1,0-26c-6,0-10.6,0-16.5,0C23.5,37.5,23.5,38.7,23.5,38.7z M229.9,56c0-4.2,0-12.8,0-15.8
				c0-1.3-1.3-2.7-2.8-2.7h-22.5v5c5.8,0,11.6,0,17.4,0V56c-4.1,0-4.8,0-8.4,0c-0.5,0-1-0.5-1-0.9c0-2.3,0-5.9,0-8.9
				c0-0.7-0.7-1.5-1.8-1.5c-1.4,0-3.5,0-5.1,0v12c0,2.3,2,4.2,4.2,4.3c0,0,8.8,0,16.2,0v4.5h-17.7c-2,0-5.1,1.7-5.1,4.9
				c6.2,0,16.1,0,22.8,0v4.6c0,0.8-0.6,1.1-1.5,1.1h-2.6c0,2.2,0,3.5,0,4.9h4c1.2,0,1,0,2.2,0c3.4,0,4.8-2.4,4.8-4.3
				c0-6.2,0-14.4,0-20.7C231.9,56,230.8,56,229.9,56z M197.9,72.7c2.4-2.7,3.7-5.8,4-11.8c0-6.5,0-12.8,0-19.2
				c0-0.5-0.7-1.3-1.4-1.2c-2.5,0-5.7,0-8.5,0v-3h-6.6c0,1,0,2,0,3c-0.7,0-1.5,0-2.2,0v5h2.2v15.5c0,6,2,9,4.4,11.8
				c-2.9,2-5.9,3.3-9.9,3.3c-0.6,0-1.1,0-1.7,0c-6.2,0-13.7,0-20.4,0c-6.2,0-12.2-1.1-14.5-3.9c2.1-2.9,3.3-5.2,3.9-11.2
				c0-6,0-11.1,0-18.8c-0.1-0.8-0.8-1.6-1.6-1.6c-2.6,0-5.2,0-8.5,0v-3c-2.7,0-3.7,0-6.5,0v3c-0.7,0-1.3,0-2.2,0v5c1,0,1.5,0,2.2,0
				c0,5.1,0,10.8,0,15.5c0.5,6,2.4,8,4.7,11.5c-3.4,2.3-7.5,3.4-12.2,3.6c-5.7,0-10.8,0-17.9,0c0-1.2,0-3,0-3.9h17.9v-5.2h-17.9
				c0-1.2,0-2.6,0-3.9c5.2,0,12,0,13.5,0c0,0,4.4,0,4.4-4.8c0.1-5,0-14.1,0-20.8c-14.2,0-28.6,0-42.8,0c-0.7,0-1.4,0.7-1.4,1.3
				c0,1,0,16.9,0,24.3c6,0,12,0,18,0v3.9h-18c0,1.6,0,3.5,0,5.2h17.9c0,1.3,0,2.6,0,3.9h-21c0,1.4,0,3.3,0,4.9
				c15.8,0,35.2,0.1,50.5,0c4.1,0,9.3-2.1,12.9-4.3c4.6,3.6,9.8,4.3,18.2,4.3c2.6,0,5.4,0,8.6,0c4.4,0,8.4,0,11.8,0
				c7.1,0,11.6-1.5,16-4.1c4,2.4,7.9,3.9,14.1,4.1v0h9.5V76h-9.5C204.2,75.6,200.7,75,197.9,72.7z M97.1,58.1h-11v-5.2h11V58.1z
				 M97.1,47.7h-11v-5.2c3.7,0,7.3,0,11,0V47.7z M105.4,42.4h11v5.2h-11V42.4z M105.4,52.9c3.7,0,7.3,0,11,0c0,2.1,0,3.7,0,5.2h-11
				C105.4,56.7,105.4,54.6,105.4,52.9z M141.1,60.9c-0.2,3.5-0.8,4.3-1.6,6.5c-1.1-2.1-1.9-3.1-2.2-6.6c0-4.5,0-10.7,0-15.5h3.8
				V60.9z M195.8,60.9c-0.1,3.2-0.9,4.8-1.8,6.5c-1.1-1.7-1.9-3.5-1.9-6.5c0-4.8,0-10.6,0-15.5h3.7
				C195.8,50.4,195.8,56.1,195.8,60.9z"/>
		</g>
	</g>
</g>
<rect x="0.6" y="0.6" fill="none" stroke="#CCCCCC" width="257.3" height="132.7"/>
<line fill="none" stroke="#CCCCCC" x1="0.6" y1="0.6" x2="257.9" y2="133.3"/>
</svg>
