<?xml version="1.0" encoding="utf-8"?>
<!-- Generator: Adobe Illustrator 17.0.0, SVG Export Plug-In . SVG Version: 6.00 Build 0)  -->
<!DOCTYPE svg PUBLIC "-//W3C//DTD SVG 1.1//EN" "http://www.w3.org/Graphics/SVG/1.1/DTD/svg11.dtd">
<svg version="1.1" id="图层_1" xmlns="http://www.w3.org/2000/svg" xmlns:xlink="http://www.w3.org/1999/xlink" x="0px" y="0px"
	 width="1222px" height="597px" viewBox="0 0 1222 597" enable-background="new 0 0 1222 597" xml:space="preserve">
<g>
	<path fill="#FF6600" d="M94.235,165.661c8.307,0,15.881,0.733,22.722,2.199s12.705,3.871,17.591,7.208
		c4.887,3.34,8.673,7.78,11.361,13.315c2.688,5.539,4.032,12.38,4.032,20.523c0,8.795-1.997,16.125-5.986,21.989
		c-3.993,5.864-9.895,10.67-17.713,14.415c10.75,3.096,18.771,8.513,24.065,16.248c5.291,7.738,7.94,17.064,7.94,27.975
		c0,8.795-1.71,16.412-5.131,22.844c-3.42,6.437-8.024,11.689-13.804,15.759c-5.784,4.073-12.38,7.085-19.79,9.04
		c-7.414,1.955-15.026,2.932-22.844,2.932H12.143V165.661H94.235z M89.348,236.27c6.841,0,12.46-1.626,16.858-4.886
		c4.397-3.256,6.597-8.551,6.597-15.881c0-4.07-0.733-7.41-2.199-10.017c-1.466-2.604-3.42-4.642-5.863-6.108
		c-2.443-1.466-5.253-2.481-8.429-3.054c-3.176-0.569-6.475-0.855-9.895-0.855H50.501v40.801H89.348z M91.547,310.298
		c3.745,0,7.33-0.366,10.75-1.099c3.42-0.733,6.433-1.955,9.04-3.665c2.604-1.71,4.681-4.031,6.23-6.963
		c1.546-2.932,2.321-6.677,2.321-11.239c0-8.956-2.527-15.35-7.574-19.179c-5.051-3.825-11.728-5.742-20.034-5.742H50.501v47.887
		H91.547z"/>
	<path fill="#FF6600" d="M213.461,213.792v23.455h0.489c1.626-3.909,3.825-7.532,6.597-10.872c2.768-3.336,5.944-6.188,9.528-8.551
		c3.581-2.359,7.41-4.191,11.483-5.497c4.069-1.302,8.307-1.955,12.705-1.955c2.279,0,4.802,0.408,7.574,1.222v32.25
		c-1.63-0.324-3.584-0.611-5.864-0.855c-2.283-0.244-4.481-0.367-6.597-0.367c-6.352,0-11.727,1.062-16.125,3.176
		c-4.397,2.119-7.94,5.009-10.628,8.673c-2.688,3.665-4.604,7.94-5.741,12.827c-1.142,4.886-1.71,10.181-1.71,15.88v56.927h-34.693
		V213.792H213.461z"/>
	<path fill="#FF6600" d="M280.159,232.36c3.581-5.375,8.143-9.689,13.682-12.949c5.536-3.256,11.766-5.578,18.69-6.963
		c6.921-1.382,13.884-2.077,20.89-2.077c6.352,0,12.785,0.45,19.301,1.344c6.513,0.897,12.46,2.649,17.835,5.253
		c5.375,2.607,9.772,6.23,13.193,10.872c3.42,4.642,5.13,10.792,5.13,18.446v65.722c0,5.703,0.325,11.158,0.978,16.369
		c0.649,5.215,1.791,9.124,3.42,11.728h-35.182c-0.653-1.955-1.184-3.947-1.588-5.986c-0.409-2.035-0.695-4.111-0.855-6.23
		c-5.539,5.703-12.056,9.692-19.545,11.972c-7.494,2.279-15.148,3.42-22.966,3.42c-6.028,0-11.647-0.733-16.858-2.199
		c-5.215-1.466-9.773-3.745-13.682-6.841c-3.909-3.092-6.963-7.001-9.162-11.727c-2.199-4.723-3.298-10.342-3.298-16.858
		c0-7.166,1.26-13.071,3.787-17.713c2.523-4.642,5.78-8.345,9.773-11.117c3.989-2.768,8.551-4.844,13.682-6.23
		c5.13-1.382,10.299-2.481,15.514-3.298c5.211-0.813,10.342-1.466,15.392-1.955c5.047-0.489,9.529-1.222,13.438-2.199
		c3.909-0.977,7.001-2.401,9.284-4.275c2.279-1.871,3.336-4.6,3.176-8.185c0-3.745-0.611-6.719-1.833-8.918
		c-1.221-2.199-2.852-3.909-4.886-5.131c-2.039-1.221-4.398-2.035-7.085-2.443c-2.688-0.405-5.581-0.611-8.673-0.611
		c-6.841,0-12.216,1.466-16.125,4.397c-3.909,2.932-6.192,7.818-6.841,14.659h-34.693
		C274.54,244.496,276.574,237.735,280.159,232.36z M348.691,281.347c-2.199,0.733-4.562,1.344-7.085,1.832
		c-2.527,0.489-5.172,0.897-7.94,1.222c-2.771,0.329-5.539,0.733-8.307,1.222c-2.607,0.489-5.173,1.142-7.696,1.955
		c-2.527,0.817-4.726,1.917-6.597,3.298c-1.874,1.386-3.382,3.138-4.52,5.253c-1.141,2.119-1.71,4.806-1.71,8.062
		c0,3.096,0.569,5.703,1.71,7.818c1.138,2.119,2.688,3.787,4.642,5.008c1.955,1.222,4.234,2.077,6.841,2.565
		c2.604,0.489,5.291,0.733,8.062,0.733c6.841,0,12.132-1.138,15.881-3.42c3.745-2.279,6.513-5.008,8.307-8.185
		c1.791-3.176,2.89-6.391,3.298-9.651c0.405-3.256,0.611-5.864,0.611-7.818v-12.949C352.722,279.598,350.89,280.614,348.691,281.347
		z"/>
	<path fill="#FF6600" d="M448.737,213.792v17.591h0.733c4.397-7.33,10.097-12.663,17.102-16.003
		c7.001-3.336,14.171-5.008,21.5-5.008c9.284,0,16.896,1.264,22.844,3.787c5.944,2.527,10.628,6.028,14.048,10.505
		c3.42,4.482,5.822,9.937,7.208,16.37c1.382,6.437,2.077,13.56,2.077,21.378v77.694h-34.693v-71.341
		c0-10.422-1.63-18.202-4.887-23.333c-3.26-5.131-9.04-7.696-17.347-7.696c-9.448,0-16.289,2.81-20.522,8.429
		c-4.238,5.619-6.353,14.865-6.353,27.73v66.211h-34.693V213.792H448.737z"/>
	<path fill="#FF6600" d="M650.298,323.98c-4.073,6.841-9.406,11.769-16.003,14.781s-14.049,4.52-22.355,4.52
		c-9.448,0-17.755-1.833-24.92-5.497c-7.169-3.665-13.071-8.632-17.713-14.904c-4.642-6.268-8.146-13.476-10.506-21.622
		c-2.363-8.143-3.542-16.614-3.542-25.41c0-8.467,1.18-16.652,3.542-24.554c2.359-7.898,5.864-14.861,10.506-20.889
		c4.642-6.024,10.464-10.872,17.469-14.537c7.001-3.665,15.148-5.497,24.432-5.497c7.49,0,14.617,1.588,21.378,4.764
		c6.757,3.176,12.094,7.86,16.003,14.048h0.489v-63.523h34.694v174.444h-32.984V323.98H650.298z M648.832,261.557
		c-0.977-4.802-2.649-9.04-5.008-12.705c-2.363-3.665-5.417-6.635-9.162-8.918c-3.749-2.279-8.471-3.42-14.17-3.42
		c-5.704,0-10.506,1.142-14.415,3.42c-3.909,2.283-7.047,5.295-9.406,9.04c-2.363,3.749-4.073,8.024-5.131,12.827
		c-1.061,4.806-1.588,9.815-1.588,15.026c0,4.886,0.569,9.773,1.71,14.659c1.138,4.886,2.97,9.246,5.498,13.071
		c2.523,3.829,5.699,6.925,9.528,9.284c3.825,2.363,8.429,3.542,13.804,3.542c5.699,0,10.464-1.138,14.292-3.42
		c3.825-2.279,6.879-5.333,9.162-9.162c2.279-3.825,3.909-8.185,4.886-13.071c0.978-4.886,1.466-9.933,1.466-15.148
		C650.298,271.372,649.81,266.363,648.832,261.557z"/>
	<path fill="#FF6600" d="M115.491,581.132c-8.307,3.501-16.698,5.253-25.165,5.253c-13.357,0-25.371-2.321-36.037-6.963
		c-10.67-4.643-19.668-11.033-26.998-19.18c-7.33-8.143-12.949-17.713-16.858-28.707c-3.909-10.995-5.864-22.844-5.864-35.549
		c0-13.029,1.955-25.123,5.864-36.282c3.909-11.154,9.528-20.889,16.858-29.195c7.33-8.308,16.328-14.82,26.998-19.546
		c10.666-4.723,22.68-7.086,36.037-7.086c8.956,0,17.629,1.344,26.02,4.032c8.387,2.688,15.961,6.638,22.722,11.849
		c6.757,5.215,12.338,11.647,16.736,19.302c4.398,7.658,7.085,16.453,8.063,26.387h-36.648c-2.283-9.773-6.681-17.103-13.193-21.989
		c-6.517-4.886-14.415-7.329-23.699-7.329c-8.635,0-15.965,1.672-21.989,5.008c-6.028,3.341-10.915,7.818-14.659,13.438
		c-3.749,5.619-6.475,12.014-8.185,19.179c-1.71,7.169-2.565,14.579-2.565,22.233c0,7.329,0.855,14.457,2.565,21.378
		c1.71,6.925,4.436,13.155,8.185,18.69c3.745,5.539,8.631,9.979,14.659,13.315c6.024,3.341,13.354,5.009,21.989,5.009
		c12.705,0,22.516-3.215,29.44-9.65c6.921-6.433,10.953-15.759,12.094-27.975H93.257v-28.586h73.296v94.308h-24.432l-3.909-19.79
		C131.372,571.481,123.797,577.631,115.491,581.132z"/>
	<path fill="#FF6600" d="M279.426,582.476v-17.591h-0.733c-4.397,7.329-10.101,12.624-17.102,15.881
		c-7.005,3.256-14.171,4.886-21.5,4.886c-9.284,0-16.9-1.222-22.844-3.664c-5.948-2.443-10.628-5.902-14.048-10.384
		c-3.42-4.479-5.826-9.934-7.208-16.369c-1.386-6.433-2.077-13.561-2.077-21.379v-77.693h34.693v71.342
		c0,10.425,1.626,18.201,4.886,23.332c3.256,5.131,9.04,7.696,17.347,7.696c9.445,0,16.286-2.81,20.523-8.429
		c4.234-5.62,6.353-14.862,6.353-27.73v-66.211h34.693v126.313H279.426z"/>
	<path fill="#FF6600" d="M339.77,436.616v-28.585h34.693v28.585H339.77z M374.463,456.162v126.313H339.77V456.162H374.463z"/>
	<path fill="#FF6600" d="M491.492,566.351c-4.073,6.841-9.406,11.77-16.003,14.781s-14.049,4.52-22.355,4.52
		c-9.448,0-17.755-1.832-24.92-5.497c-7.169-3.665-13.071-8.631-17.713-14.903c-4.642-6.269-8.146-13.476-10.506-21.622
		c-2.363-8.143-3.542-16.614-3.542-25.409c0-8.468,1.18-16.652,3.542-24.555c2.359-7.898,5.864-14.861,10.506-20.89
		c4.642-6.023,10.464-10.872,17.469-14.537c7.001-3.664,15.148-5.497,24.432-5.497c7.49,0,14.617,1.588,21.378,4.765
		c6.757,3.176,12.094,7.86,16.003,14.048h0.489v-63.522h34.693v174.444H491.98v-16.125H491.492z M490.025,503.927
		c-0.977-4.803-2.649-9.04-5.008-12.705c-2.363-3.665-5.417-6.635-9.162-8.918c-3.749-2.278-8.471-3.42-14.17-3.42
		c-5.704,0-10.506,1.142-14.415,3.42c-3.909,2.283-7.047,5.295-9.406,9.04c-2.363,3.749-4.073,8.024-5.131,12.827
		c-1.061,4.807-1.588,9.814-1.588,15.025c0,4.887,0.569,9.773,1.71,14.659c1.138,4.887,2.97,9.246,5.498,13.071
		c2.523,3.829,5.699,6.925,9.528,9.284c3.825,2.363,8.429,3.543,13.804,3.543c5.699,0,10.464-1.138,14.292-3.421
		c3.825-2.278,6.879-5.333,9.162-9.162c2.279-3.824,3.909-8.185,4.886-13.07c0.978-4.887,1.466-9.934,1.466-15.148
		C491.492,513.741,491.003,508.733,490.025,503.927z"/>
	<path fill="#FF6600" d="M588.241,552.18c5.211,5.051,12.705,7.574,22.477,7.574c7.001,0,13.029-1.748,18.08-5.253
		c5.046-3.501,8.143-7.207,9.284-11.116h30.54c-4.887,15.147-12.38,25.981-22.478,32.494c-10.101,6.517-22.317,9.772-36.648,9.772
		c-9.937,0-18.897-1.588-26.875-4.764c-7.982-3.177-14.743-7.696-20.278-13.56c-5.54-5.864-9.815-12.865-12.827-21.012
		c-3.016-8.143-4.52-17.103-4.52-26.875c0-9.445,1.546-18.24,4.642-26.387c3.092-8.144,7.49-15.187,13.193-21.134
		c5.7-5.944,12.499-10.628,20.401-14.049c7.898-3.42,16.652-5.131,26.265-5.131c10.75,0,20.114,2.077,28.097,6.23
		c7.979,4.153,14.537,9.734,19.667,16.735c5.131,7.006,8.834,14.988,11.117,23.943c2.279,8.96,3.092,18.325,2.443,28.098h-91.132
		C580.178,538.986,583.026,547.133,588.241,552.18z M627.454,485.725c-4.154-4.558-10.468-6.841-18.935-6.841
		c-5.539,0-10.139,0.939-13.804,2.81c-3.665,1.874-6.597,4.195-8.795,6.963c-2.199,2.771-3.749,5.703-4.642,8.796
		c-0.897,3.096-1.428,5.863-1.588,8.307h56.438C634.497,496.963,631.607,490.286,627.454,485.725z"/>
	<path fill="#FF6600" d="M727.012,408.031v174.444h-34.693V408.031H727.012z"/>
	<path fill="#FF6600" d="M755.353,436.616v-28.585h34.693v28.585H755.353z M790.046,456.162v126.313h-34.693V456.162H790.046z"/>
	<path fill="#FF6600" d="M850.392,456.162v17.591h0.733c4.397-7.329,10.097-12.663,17.102-16.003
		c7.002-3.337,14.171-5.009,21.501-5.009c9.284,0,16.896,1.264,22.844,3.787c5.943,2.527,10.628,6.028,14.048,10.506
		c3.421,4.481,5.822,9.937,7.208,16.369c1.382,6.437,2.076,13.56,2.076,21.378v77.694H901.21v-71.342
		c0-10.422-1.63-18.202-4.887-23.332c-3.26-5.131-9.039-7.696-17.347-7.696c-9.448,0-16.289,2.81-20.522,8.429
		c-4.237,5.619-6.353,14.865-6.353,27.73v66.211h-34.693V456.162H850.392z"/>
	<path fill="#FF6600" d="M999.424,552.18c5.211,5.051,12.704,7.574,22.478,7.574c7.001,0,13.029-1.748,18.079-5.253
		c5.047-3.501,8.143-7.207,9.284-11.116h30.54c-4.886,15.147-12.38,25.981-22.478,32.494c-10.101,6.517-22.316,9.772-36.647,9.772
		c-9.938,0-18.896-1.588-26.875-4.764c-7.982-3.177-14.743-7.696-20.279-13.56c-5.539-5.864-9.814-12.865-12.826-21.012
		c-3.016-8.143-4.521-17.103-4.521-26.875c0-9.445,1.547-18.24,4.643-26.387c3.092-8.144,7.49-15.187,13.193-21.134
		c5.699-5.944,12.498-10.628,20.4-14.049c7.898-3.42,16.652-5.131,26.265-5.131c10.75,0,20.114,2.077,28.097,6.23
		c7.979,4.153,14.537,9.734,19.668,16.735c5.131,7.006,8.833,14.988,11.116,23.943c2.279,8.96,3.092,18.325,2.443,28.098h-91.132
		C991.361,538.986,994.209,547.133,999.424,552.18z M1038.637,485.725c-4.153-4.558-10.467-6.841-18.935-6.841
		c-5.539,0-10.14,0.939-13.804,2.81c-3.665,1.874-6.597,4.195-8.796,6.963c-2.199,2.771-3.749,5.703-4.642,8.796
		c-0.897,3.096-1.428,5.863-1.589,8.307h56.438C1045.681,496.963,1042.79,490.286,1038.637,485.725z"/>
	<path fill="#FF6600" d="M1131.721,551.08c1.546,2.688,3.543,4.887,5.985,6.597c2.443,1.711,5.253,2.975,8.43,3.787
		c3.176,0.817,6.475,1.222,9.895,1.222c2.443,0,5.009-0.282,7.696-0.855c2.688-0.568,5.131-1.466,7.329-2.688
		c2.199-1.221,4.031-2.848,5.498-4.886c1.466-2.035,2.198-4.601,2.198-7.696c0-5.211-3.462-9.12-10.384-11.728
		c-6.925-2.604-16.575-5.211-28.951-7.818c-5.051-1.138-9.979-2.481-14.781-4.031c-4.807-1.546-9.082-3.58-12.827-6.107
		c-3.749-2.523-6.761-5.7-9.04-9.528c-2.283-3.826-3.42-8.51-3.42-14.049c0-8.143,1.588-14.819,4.764-20.034
		c3.176-5.211,7.368-9.322,12.583-12.339c5.211-3.012,11.074-5.13,17.591-6.352c6.513-1.222,13.193-1.833,20.034-1.833
		s13.476,0.653,19.912,1.955c6.433,1.306,12.174,3.504,17.225,6.597c5.047,3.096,9.242,7.207,12.582,12.338
		c3.337,5.131,5.333,11.605,5.986,19.424h-32.983c-0.488-6.678-3.016-11.197-7.574-13.561c-4.562-2.359-9.937-3.542-16.125-3.542
		c-1.954,0-4.073,0.122-6.353,0.366c-2.282,0.244-4.359,0.774-6.229,1.588c-1.875,0.817-3.463,1.997-4.765,3.543
		c-1.306,1.55-1.954,3.626-1.954,6.229c0,3.097,1.138,5.62,3.42,7.574c2.279,1.955,5.253,3.543,8.918,4.765
		s7.856,2.321,12.582,3.298c4.723,0.978,9.529,2.039,14.415,3.177c5.047,1.142,9.976,2.527,14.781,4.153
		c4.803,1.63,9.078,3.787,12.827,6.475c3.745,2.688,6.757,6.027,9.04,10.017c2.278,3.993,3.42,8.918,3.42,14.782
		c0,8.307-1.672,15.27-5.008,20.889c-3.341,5.619-7.696,10.14-13.071,13.56c-5.375,3.421-11.525,5.826-18.446,7.208
		c-6.925,1.382-13.969,2.076-21.134,2.076c-7.33,0-14.499-0.732-21.5-2.198c-7.005-1.466-13.235-3.909-18.69-7.33
		c-5.459-3.42-9.938-7.94-13.438-13.56c-3.505-5.619-5.417-12.663-5.742-21.134h32.983
		C1129.399,545.179,1130.171,548.393,1131.721,551.08z"/>
</g>
<g>
	<path fill="#999999" d="M374.61,49.413h28.143v34.467h-4.11V78.82h-19.921v5.059h-4.111V49.413z M378.721,53.523v21.186h19.921
		V53.523H378.721z M382.515,11.784h52.491v27.194h-52.491V11.784z M386.626,15.894v18.973h44.27V15.894H386.626z M414.453,49.413
		h28.459v34.467h-4.111V78.82h-19.921v5.059h-4.427V49.413z M418.879,53.523v21.186h19.921V53.523H418.879z"/>
	<path fill="#999999" d="M470.422,9.57h4.111v25.613h5.375v3.794h-19.605v9.17v2.213h14.862v32.57h-4.111V53.839h-10.751
		c0,11.809-1.897,21.71-5.692,29.724c-1.265-0.845-2.53-1.581-3.794-2.213c2.317-4.64,3.794-9.17,4.427-13.597
		c0.633-4.214,0.949-10.751,0.949-19.605V11.784h4.111v23.399h10.119V9.57z M505.837,56.053h4.111v8.854h18.024v3.795h-18.024
		v15.178h-4.111V68.702h-26.562v-3.795h26.562V56.053z M523.229,16.527v35.731h-21.502c-2.742,4.64-7.273,8.854-13.597,12.648
		c-0.845-1.052-1.793-2.104-2.846-3.162c5.479-2.949,9.486-6.111,12.016-9.486h-13.597V16.527h14.229
		c0.42-1.473,1.053-3.686,1.897-6.641c0.208-0.632,0.316-1.156,0.316-1.581l4.11,0.632c-0.212,0.845-0.528,2.11-0.948,3.794
		c-0.633,1.69-1.058,2.955-1.265,3.795H523.229z M487.813,20.321v12.332h13.914V20.321H487.813z M499.197,48.464
		c1.472-3.162,2.317-7.273,2.53-12.332h-13.914v12.332H499.197z M503.624,48.464h15.811V36.132h-13.913
		C505.521,40.771,504.889,44.882,503.624,48.464z M519.435,20.321h-13.913v12.332h13.913V20.321z"/>
	<path fill="#999999" d="M532.399,55.42l-0.316-4.743c3.162-0.632,6.957-1.472,11.383-2.529V27.91h-10.435v-4.111h10.435V8.622
		h4.427v15.178h9.802v4.111h-9.802v19.289c0.42-0.208,1.052-0.42,1.897-0.632c2.105-0.633,4.847-1.265,8.222-1.897
		c0,1.265,0,2.638,0,4.111c-3.162,0.632-6.537,1.477-10.119,2.53v23.399c0.42,5.479-2.426,8.222-8.538,8.222
		c-1.897,0.208-3.587,0.316-5.059,0.316c-0.425-2.53-0.741-4.007-0.949-4.427c1.265,0,3.053,0,5.375,0
		c3.37,0.208,4.951-1.161,4.743-4.111V52.575c-1.265,0.212-3.058,0.632-5.375,1.265C535.562,54.472,533.665,55,532.399,55.42z
		 M606.077,16.527c-12.016,3.587-25.089,6.64-39.21,9.17v1.897c-0.425,4.852,2.104,7.169,7.589,6.957h20.554
		c4.634,0.212,7.273-1.685,7.905-5.692c0.632-1.897,1.156-4.318,1.581-7.273c0.42,0.212,1.052,0.425,1.897,0.632
		c1.052,0.425,1.789,0.741,2.213,0.949c-0.212,0.845-0.425,2.11-0.632,3.794c-0.425,1.69-0.741,3.059-0.949,4.111
		c-1.058,4.852-4.852,7.169-11.384,6.957h-23.083c-6.749,0.213-10.015-2.737-9.802-8.854V8.305h4.111v13.597
		c14.753-2.95,27.298-6.008,37.629-9.17L606.077,16.527z M563.388,46.25h39.843v37.629h-4.111v-4.743h-31.305v4.743h-4.427V46.25z
		 M567.815,50.045v11.067h31.305V50.045H567.815z M567.815,64.591v10.751h31.305V64.591H567.815z"/>
	<path fill="#999999" d="M649.398,8.622h4.427v9.17h35.099v3.794h-35.099v9.803h30.672v43.321c0,5.479-2.846,8.325-8.538,8.538
		c-3.162,0-7.064,0-11.699,0c0-0.632-0.213-1.581-0.633-2.846c-0.213-0.632-0.316-1.161-0.316-1.581
		c2.53,0.208,6.216,0.316,11.068,0.316c4.214,0.208,6.215-1.265,6.008-4.427V35.183h-57.234v48.696h-4.111V31.389h30.356v-9.803
		h-35.416v-3.794h35.416V8.622z M628.528,63.642h21.186v-9.803h-18.656v-3.794h23.399c3.162-4.002,6.008-8.009,8.537-12.016
		l3.795,1.897c-2.529,3.587-5.059,6.957-7.589,10.119h13.28v3.794h-18.656v9.803h21.186v3.794h-21.186v14.546h-4.111V67.437h-21.186
		V63.642z M636.75,40.559l3.162-2.53c1.265,1.265,2.846,3.059,4.743,5.376c1.052,1.265,1.897,2.213,2.529,2.846l-3.794,2.53
		C641.28,45.618,639.066,42.881,636.75,40.559z"/>
</g>
<g>
	<g>
		<g id="形状_2_copy_3_副本_5_10_">
			<g>
				<path fill-rule="evenodd" clip-rule="evenodd" fill="#FF6600" d="M47.259,19.853c11.869,0,23.715-0.003,35.583-0.003
					c0.006,17.722,0.006,36.046,0.006,52.505c0,1.024-1.355,2.605-2.755,2.647c-1.877,0-2.68-0.014-4.992,0v8.561
					c2.739,0.003,5.081,0.006,7.747,0.006c6.86,0,11.423-3.338,11.428-9.021c0-13.611,0-40.729-0.005-54.694h4.11v-8.196H47.259
					V19.853z M258.555,72.752c3.804,0,2.339,0,6.143,0c2.195,0,5.262-1.86,5.262-5.316c-0.003-9.016-0.006-16.068-0.006-25.17
					c-1.712,0.014-3.517,0.008-5.014,0c0.003-6.885,0.003-21.128,0.003-26.203c0-2.086-2.075-4.409-4.699-4.409h-37.263v8.196
					h28.738c0,7.437-0.017,14.981-0.017,22.415c-6.852-0.017-7.878-0.017-13.826,0.008c-0.759,0-1.654-0.848-1.659-1.492
					c0-3.771,0.006-9.786,0.006-14.727c0-1.166-1.152-2.454-2.976-2.454h-8.475v19.814c0,3.84,3.349,7.025,7.019,7.028
					c0,0,14.604,0,26.757,0.019v7.382h-29.605c-3.279,0-8.318,3.112-8.318,8.307c10.29,0,26.749-0.237,37.923-0.237
					C258.549,67.992,258.555,70.192,258.555,72.752z M77.413,60.298c0.014-9.364,0-22.636,0-35.466H47.769v45.107
					c8.67,0.031,19.629,0,19.629,0C74.892,69.938,77.404,65.716,77.413,60.298z M64.816,61.712c-2.131,0.011-4.456,0-7.49,0.011
					V33.51c3.196,0,6.877,0.005,10.07,0.005c0.003,8.553,0,18.046,0.003,25.508C67.398,60.56,66.456,61.712,64.816,61.712z
					 M13.934,13.71c0.003,16.196,0.017,37.346,0,69.859h10.954c-0.005-20.363-0.005-42.639,0-63.733
					c2.582-0.003,5.628-0.008,8.216-0.006c0.014,12.226,0.011,23.191,0,34.599c-0.006,4.699-4.136,6.358-4.136,6.405v9.072
					c7.713-0.02,14.629-7.94,14.629-15.19c0-13.09,0-29.858,0.003-43.06c-9.888,0-17.457-0.003-27.346-0.003
					C13.856,11.641,13.934,13.71,13.934,13.71z M355.269,42.249c0.006-6.891,0.006-21.13,0.006-26.205
					c0-2.086-2.078-4.409-4.702-4.409H313.31v8.196c9.526,0,19.139,0.02,28.724,0.02v22.398c-6.849,0.014-7.917,0-13.827,0.006
					c-0.761,0-1.656-0.848-1.659-1.492c0-3.77,0.003-9.783,0.003-14.727c0-1.168-1.138-2.429-2.962-2.429
					c-2.351,0-5.745-0.006-8.486-0.006v19.794c0,3.84,3.349,7.025,7.019,7.03c0,0,14.604,0,26.757,0.017v7.381h-29.245
					c-3.28,0-8.506,2.878-8.506,8.07c10.29,0,26.557,0.003,37.731,0.003v7.624c0,1.283-1.012,1.871-2.496,1.871h-4.331
					c-0.006,3.709,0,5.756,0,8.177h6.651c2.016,0,1.576,0.033,3.611,0.033c5.564,0,7.99-3.96,7.934-7.161
					c0-10.321,0.056-23.874,0.056-34.192C358.571,42.26,356.766,42.258,355.269,42.249z M302.378,69.913
					c3.977-4.395,6.163-9.54,6.665-19.451c0.014-10.742,0.011-21.133,0.028-31.755c0.003-0.878-1.146-2.08-2.245-2.052
					c-4.141,0-9.484-0.003-14.033-0.008v-4.972h-10.94c0,1.67-0.014,3.304-0.014,4.972c-1.143,0.008-2.56,0.014-3.664,0.008v8.196
					h3.667v25.606c0.011,9.908,3.249,14.892,7.298,19.457c-4.849,3.313-9.755,5.466-16.428,5.466
					c-0.918-0.003-1.855-0.003-2.811-0.003c-10.262-0.003-22.722,0.036-33.698,0.036c-10.284,0-20.201-1.88-23.927-6.408
					c3.528-4.769,5.41-8.651,6.475-18.581c0.053-9.919,0.045-18.361,0.022-31.074c-0.156-1.386-1.386-2.613-2.616-2.691
					c-4.317,0-8.673,0.006-14,0v-4.98c-4.5,0-6.19-0.003-10.686,0v4.98c-1.213,0.014-2.097,0-3.653,0v8.196
					c1.629,0.009,2.49,0,3.653,0c-0.011,8.455,0.041,17.803,0.041,25.569c0.837,9.931,3.98,13.174,7.823,18.991
					c-5.555,3.871-12.326,5.591-20.202,5.999c-9.409-0.02-17.853-0.003-29.674,0c-0.017-2.025-0.005-4.939-0.005-6.408h29.686
					v-8.651h-29.666c0.006-2.05,0.006-4.281,0.006-6.375c8.55,0,19.783,0.009,22.354,0.009c0,0,7.222,0,7.318-7.959
					c0.095-8.341-0.006-23.271-0.011-34.387c-23.459,0-47.296-0.006-70.799-0.006c-1.141,0-2.253,1.216-2.253,2.108
					c0,1.707,0.008,27.951,0,40.229c9.889,0,19.802,0.005,29.694,0.005v6.375h-29.694c0,2.663,0,5.811,0.022,8.651h29.621
					c0,2.125,0.006,4.283,0.006,6.408h-34.674c-0.008,2.381-0.006,5.53-0.006,8.137c26.057,0,58.278,0.106,83.561,0.022
					c6.821-0.022,15.312-3.541,21.375-7.097c7.672,5.937,16.138,7.122,30.176,7.094c4.278-0.009,8.985,0.006,14.178,0.003
					c7.332-0.003,13.818-0.003,19.56-0.003c11.779,0,19.231-2.504,26.481-6.774c6.651,3.988,13.012,6.461,23.35,6.774v-0.017h15.734
					V75.39h-15.734C312.708,74.746,306.947,73.664,302.378,69.913z M135.668,45.81h-18.233v-8.65h18.233V45.81z M135.716,28.498
					h-18.232v-8.653c6.085,0,12.147,0.003,18.232,0.003V28.498z M149.433,19.845h18.257v8.653h-18.257V19.845z M149.433,37.146
					c6.085,0,12.148-0.003,18.232-0.003c-0.011,3.461-0.003,6.186,0,8.648h-18.252C149.414,43.507,149.414,39.907,149.433,37.146z
					 M208.433,50.465c-0.393,5.708-1.291,7.08-2.672,10.812c-1.74-3.505-3.16-5.128-3.6-10.84
					c0.017-7.429-0.003-17.758-0.003-25.583h6.275V50.465z M298.857,50.468c-0.212,5.293-1.45,7.861-2.909,10.809
					c-1.738-2.816-3.182-5.82-3.196-10.809c-0.02-7.925-0.014-17.46,0-25.611h6.105C298.851,33.052,298.851,42.478,298.857,50.468z"
					/>
			</g>
		</g>
	</g>
</g>
</svg>
