<?xml version="1.0" encoding="utf-8"?>
<!-- Generator: Adobe Illustrator 17.0.2, SVG Export Plug-In . SVG Version: 6.00 Build 0)  -->
<!DOCTYPE svg PUBLIC "-//W3C//DTD SVG 1.1//EN" "http://www.w3.org/Graphics/SVG/1.1/DTD/svg11.dtd">
<svg version="1.1" id="图层_1" xmlns="http://www.w3.org/2000/svg" xmlns:xlink="http://www.w3.org/1999/xlink" x="0px" y="0px"
	 width="551px" height="63px" viewBox="-225.5 23.5 551 63" enable-background="new -225.5 23.5 551 63" xml:space="preserve">
<g>
	<g>
		<path fill="#FF6600" d="M-219.836,78.023c2.07,0.922,4.305,1.949,6.703,3.082l5.297-4.582h-13.125v-1.734l1.137-2.906h-5.59
			v-1.781h6.293l1.266-3.211h-6.129V65.11h6.832l1.23-3.117h2.133l-1.23,3.117h11.098v1.781h-11.801l-1.266,3.211h14.566v1.781
			h-15.27l-1.137,2.883h13.664v1.828l-6.234,5.332c1.047,0.5,2.125,1.02,3.234,1.559l-1.148,1.781
			c-3.922-2.062-7.758-3.953-11.508-5.672L-219.836,78.023z"/>
		<path fill="#FF6600" d="M-201.555,81.75h7.523V62.391h1.969V81.75h4.102V62.391h1.969V81.75h7.594v1.734h-23.156L-201.555,81.75
			L-201.555,81.75z M-198.836,66.984c1.281,3.016,2.523,6.219,3.727,9.609l-1.922,0.867c-1.047-3.297-2.219-6.539-3.516-9.727
			L-198.836,66.984z M-185.148,76.805c1.562-3.312,2.875-6.516,3.938-9.609l1.898,0.75c-1.453,3.734-2.836,6.945-4.148,9.633
			L-185.148,76.805z"/>
		<path fill="#FF6600" d="M-177.438,75.562h3.562c0.344-0.594,0.68-1.203,1.008-1.828l1.688,0.539c-0.25,0.438-0.5,0.867-0.75,1.289
			h5.742v1.523c-0.594,1.531-1.492,2.875-2.695,4.031c0.859,0.406,1.734,0.812,2.625,1.219l-1.031,1.617
			c-0.969-0.547-1.977-1.094-3.023-1.641c-1.766,1.266-3.992,2.266-6.68,3c-0.25-0.5-0.516-1.047-0.797-1.641
			c2.281-0.516,4.211-1.258,5.789-2.227c-1.344-0.688-2.75-1.391-4.219-2.109c0.5-0.719,0.984-1.461,1.453-2.227h-2.672
			L-177.438,75.562L-177.438,75.562z M-177.18,67.5h5.391v-5.25h1.734v5.25h4.5v1.547h-4.5v1.43l0.703-0.797
			c1.453,1.062,2.672,2,3.656,2.812l-1.125,1.312c-0.859-0.812-1.938-1.727-3.234-2.742v2.672h-1.734v-3.281
			c-1.422,1.484-3.078,2.789-4.969,3.914c-0.297-0.453-0.633-0.93-1.008-1.43c1.969-1.062,3.773-2.359,5.414-3.891h-4.828
			L-177.18,67.5L-177.18,67.5z M-176.57,63.867l1.336-0.914c0.703,0.859,1.43,1.781,2.18,2.766l-1.453,1.031
			C-175.195,65.734-175.883,64.773-176.57,63.867z M-173.922,78.797c1.109,0.5,2.25,1.023,3.422,1.57
			c1.078-0.922,1.922-2.008,2.531-3.258h-4.875C-173.203,77.688-173.562,78.25-173.922,78.797z M-166.609,62.836l1.453,0.961
			c-0.859,1.125-1.719,2.164-2.578,3.117c-0.359-0.312-0.781-0.641-1.266-0.984C-168.188,64.977-167.391,63.945-166.609,62.836z
			 M-162.344,62.039l1.875,0.281c-0.328,1.516-0.711,2.93-1.148,4.242h7.172v1.594h-1.477c-0.391,4.594-1.391,8.242-3,10.945
			c1.266,1.719,2.875,3.125,4.828,4.219c-0.5,0.688-0.922,1.305-1.266,1.852c-1.906-1.234-3.492-2.703-4.758-4.406
			c-1.438,1.781-3.148,3.328-5.133,4.641c-0.344-0.453-0.789-0.945-1.336-1.477c2.188-1.438,3.961-3.07,5.32-4.898
			c-1.266-2.188-2.102-4.711-2.508-7.57c-0.328,0.578-0.672,1.117-1.031,1.617c-0.312-0.453-0.703-0.953-1.172-1.5
			C-164.164,68.969-162.953,65.789-162.344,62.039z M-157.797,68.156h-4.383c-0.078,0.203-0.164,0.398-0.258,0.586
			c0.281,3.312,1.062,6.148,2.344,8.508C-158.844,74.969-158.078,71.938-157.797,68.156z"/>
		<path fill="#FF6600" d="M-153.625,74.555c1.109-0.305,2.188-0.613,3.234-0.926v-5.355h-2.953v-1.688h2.953v-4.477h1.734v4.477
			h2.555v1.688h-2.555v4.816c0.742-0.234,1.469-0.473,2.18-0.715c0.016,0.703,0.062,1.312,0.141,1.828
			c-0.805,0.258-1.578,0.512-2.32,0.762v7.09c0,1.766-0.773,2.664-2.32,2.695c-0.484,0.016-1.203,0.008-2.156-0.023
			c-0.062-0.625-0.156-1.273-0.281-1.945c0.859,0.094,1.516,0.141,1.969,0.141c0.703,0,1.055-0.398,1.055-1.195V75.54
			c-1.07,0.359-2.07,0.703-3,1.031L-153.625,74.555z M-143.125,76.922h4.828v-2.977h-5.461c-0.172,4.805-1.281,8.516-3.328,11.133
			c-0.375-0.484-0.797-0.977-1.266-1.477c1.953-2.406,2.93-6.102,2.93-11.086v-9.141h13.828v6.797h-1.688v-0.727h-10.453v2.906
			h5.438v-2.461h1.688v2.461h6.188v1.594h-6.188v2.977h4.875v7.922h-1.688v-1.359h-8.016v1.359h-1.688v-7.921H-143.125z
			 M-133.281,64.922h-10.453v2.977h10.453V64.922z M-133.422,78.469h-8.016v3.492h8.016V78.469z"/>
		<path fill="#FF6600" d="M-129.555,63.891h23.156v1.781h-3.891v15.867c0,2.109-1.023,3.172-3.07,3.188
			c-1.469,0-2.898-0.008-4.289-0.023c-0.078-0.719-0.203-1.43-0.375-2.133c1.766,0.125,3.109,0.188,4.031,0.188
			c1.156,0,1.734-0.625,1.734-1.875V65.672h-17.296V63.891z M-126.953,69.141h10.336v9.258h-8.484v1.664h-1.852V69.141z
			 M-118.469,70.805h-6.633v5.93h6.633V70.805z"/>
		<path fill="#FF6600" d="M-105.555,68.578V66.89h7.617v1.734c-0.797,1.406-1.695,2.758-2.695,4.055v1.289l1.008-0.914
			c1.109,1,2.141,1.977,3.094,2.93l-1.359,1.195c-0.797-0.906-1.711-1.883-2.742-2.93v10.758h-1.781V74.836
			c-0.828,0.922-1.711,1.812-2.648,2.672c-0.172-0.609-0.383-1.281-0.633-2.016c2.422-2.125,4.312-4.43,5.672-6.914
			C-100.022,68.578-105.555,68.578-105.555,68.578z M-103.258,62.883l1.641-0.82c0.594,0.953,1.211,2.031,1.852,3.234l-1.734,0.891
			C-102.125,64.906-102.711,63.805-103.258,62.883z M-91.282,66.75h1.828c0,4.391-0.109,7.148-0.328,8.273h1.477v6.422
			c0,0.922,0.43,1.383,1.289,1.383h1.266c0.922,0,1.461-0.406,1.617-1.219c0.109-0.859,0.195-1.961,0.258-3.305
			c0.547,0.25,1.141,0.484,1.781,0.703c-0.125,1.359-0.25,2.453-0.375,3.281c-0.203,1.438-1.148,2.156-2.836,2.156h-2.016
			c-1.859,0-2.789-0.922-2.789-2.766v-5.016c-1.062,3.984-3.688,6.867-7.875,8.648c-0.344-0.484-0.75-1-1.219-1.547
			c4.859-1.859,7.453-5.391,7.781-10.594C-91.329,71.438-91.282,69.297-91.282,66.75z M-96.133,63.352h11.766V77.79h-1.828V64.992
			h-8.109v12.797h-1.828L-96.133,63.352L-96.133,63.352z"/>
		<path fill="#FF6600" d="M-81.672,73.594c2.719-3.609,4.719-7.445,6-11.508l2.039,0.586c-0.742,1.938-1.547,3.762-2.414,5.473
			v16.77h-1.969V71.672c-0.867,1.406-1.789,2.727-2.766,3.961C-81.047,74.961-81.344,74.281-81.672,73.594z M-75.086,76.477
			c2.047-0.953,3.961-2.051,5.742-3.293V62.438h2.016v9.234c2.391-1.93,4.516-4.156,6.375-6.68l1.711,1.242
			c-2.273,3.023-4.969,5.668-8.086,7.934v6.621c0,1.062,0.562,1.594,1.688,1.594h2.977c1.062,0,1.68-0.508,1.852-1.523
			c0.219-1.062,0.359-2.289,0.422-3.68c0.656,0.25,1.344,0.477,2.062,0.68c-0.125,1.312-0.289,2.516-0.492,3.609
			c-0.297,1.797-1.422,2.695-3.375,2.695h-3.961c-2.125,0-3.188-1.047-3.188-3.141v-5.484c-1.461,0.938-3,1.797-4.617,2.578
			C-74.29,77.602-74.665,77.055-75.086,76.477z"/>
		<path fill="#FF6600" d="M-57.719,68.578c1.703-1.891,3.094-4.094,4.172-6.609l1.641,0.445c-0.32,0.656-0.645,1.289-0.973,1.898
			h4.418v1.453l-1.723,2.508h2.988v14.133c0,1.562-0.773,2.352-2.32,2.367c-0.672,0.016-1.367,0-2.086-0.047
			c-0.047-0.391-0.133-0.914-0.258-1.57c0.75,0.078,1.422,0.117,2.016,0.117c0.75,0,1.125-0.367,1.125-1.102v-3.82h-2.109v4.336
			h-1.523v-4.336h-2.086c-0.133,2.945-0.773,5.195-1.922,6.75c-0.359-0.406-0.797-0.805-1.312-1.195
			c1.156-1.703,1.734-3.992,1.734-6.867V69.07c-0.219,0.273-0.438,0.539-0.656,0.797C-56.86,69.508-57.235,69.078-57.719,68.578z
			 M-55.34,68.273h3.27l1.711-2.531h-3.328C-54.227,66.656-54.778,67.5-55.34,68.273z M-54.415,72.609h2.062v-2.953h-2.062V72.609z
			 M-54.415,76.969h2.062v-2.977h-2.062V76.969z M-48.719,69.656h-2.109v2.953h2.109V69.656z M-50.829,76.969h2.109v-2.977h-2.109
			V76.969z M-46.235,63.188h10.547c-0.047,1.531-0.125,2.969-0.234,4.312c-0.109,1.906-1.117,2.859-3.023,2.859
			c-0.656,0-1.461-0.023-2.414-0.07c-0.094-0.656-0.203-1.281-0.328-1.875c1.125,0.141,2.008,0.211,2.648,0.211
			c0.844,0,1.305-0.453,1.383-1.359c0.078-0.703,0.133-1.531,0.164-2.484h-4.441c-0.055,1.555-0.332,2.789-0.832,3.703
			c-0.547,1.062-1.602,2.094-3.164,3.094c-0.25-0.391-0.625-0.891-1.125-1.5c1.297-0.703,2.195-1.477,2.695-2.32
			c0.422-0.68,0.66-1.672,0.715-2.977h-2.59L-46.235,63.188L-46.235,63.188z M-46.469,78.562h5.531v-3.375h-2.836
			c-0.336,0.898-0.688,1.742-1.055,2.531c-0.453-0.266-0.961-0.5-1.523-0.703c0.875-1.875,1.57-3.773,2.086-5.695l1.617,0.445
			c-0.188,0.633-0.379,1.242-0.574,1.828h2.285v-2.531h1.734v2.531h4.195v1.594h-4.195v3.375h4.758v1.594h-4.758v4.922h-1.734
			v-4.922h-5.531V78.562z"/>
		<path fill="#FF6600" d="M-30.204,72.258c0.578,0.406,1.195,0.766,1.852,1.078c-1.297,3.625-2.414,6.906-3.352,9.844l-1.898-1.031
			C-32.368,79.32-31.235,76.023-30.204,72.258z M-31.821,63.422c1.547,1.547,2.914,2.984,4.102,4.312l-1.594,1.453
			c-1.266-1.625-2.562-3.133-3.891-4.523L-31.821,63.422z M-27.672,73.477h6.398c0.141-1.375,0.219-3.203,0.234-5.484h-5.273v-1.688
			h5.285c0.023-1.391,0.035-2.789,0.035-4.195h1.852c0,1.391-0.012,2.789-0.035,4.195h6.012v7.172h2.789v1.688h-8.637
			c1.414,3.57,4.168,6.125,8.262,7.664c-0.625,0.688-1.164,1.312-1.617,1.875c-3.742-1.906-6.328-4.57-7.758-7.992
			c-0.961,3.461-3.523,6.266-7.688,8.414c-0.312-0.469-0.758-1.062-1.336-1.781c4.406-2.094,6.949-4.82,7.629-8.18h-6.152
			C-27.672,75.165-27.672,73.477-27.672,73.477z M-14.969,67.992h-4.23c-0.023,2.18-0.094,4.008-0.211,5.484h4.441V67.992z"/>
		<path fill="#FF6600" d="M-9.274,66.023h11.25c-0.789-1.5-1.406-2.594-1.852-3.281l1.828-0.867
			c0.438,0.672,1.094,1.766,1.969,3.281L2.21,66.023h11.11v1.781H-0.895c-0.055,1.422-0.113,2.633-0.176,3.633h11.32
			c-0.188,3.391-0.391,6.336-0.609,8.836c-0.172,2.828-1.547,4.242-4.125,4.242c-1.188,0-2.773-0.062-4.758-0.188
			c-0.078-0.594-0.195-1.312-0.352-2.156C2.39,82.438,4,82.57,5.234,82.57c1.438,0,2.242-0.852,2.414-2.555
			C7.835,78.156,8,75.883,8.14,73.195H-1.2c-0.438,5.156-2.824,9.156-7.16,12c-0.422-0.5-0.898-1.031-1.43-1.594
			c4.125-2.719,6.336-6.359,6.633-10.922c0.109-1.234,0.199-2.859,0.27-4.875h-6.387V66.023z"/>
		<path fill="#FF6600" d="M37.695,82.664c-0.531,0.625-0.984,1.211-1.359,1.758c-4.125-1.234-7.289-2.746-9.492-4.535v5.285h-1.688
			v-5.25c-2.367,1.672-5.516,3.18-9.445,4.523c-0.359-0.453-0.812-0.984-1.359-1.594c4.031-1.008,7.223-2.25,9.574-3.727H14.89
			v-1.57h10.266v-1.922h1.688v1.922H37.25v1.57h-9.129C30.589,80.789,33.781,81.969,37.695,82.664z M15.57,75.094
			c3.766-0.43,6.699-0.926,8.801-1.488c-1.875-0.5-3.77-0.988-5.684-1.465c0.641-0.688,1.25-1.367,1.828-2.039h-5.578v-1.547h6.844
			c0.594-0.75,1.141-1.492,1.641-2.227l1.898,0.539c-0.422,0.562-0.871,1.125-1.348,1.688h13.09v1.547h-5.039
			c-0.742,1.32-1.746,2.391-3.012,3.211c2.234,0.586,4.332,1.148,6.293,1.688l-0.75,1.57c-2.477-0.781-4.996-1.527-7.559-2.238
			c-2.375,0.938-5.957,1.707-10.746,2.309C16.062,76.141,15.835,75.625,15.57,75.094z M15.57,64.172h9.82
			c-0.297-0.539-0.641-1.094-1.031-1.664l1.664-0.75c0.508,0.797,0.988,1.602,1.441,2.414h8.941v3.539h-1.781v-1.992H17.351v1.992
			H15.57V64.172z M21.359,71.391c1.906,0.469,3.734,0.926,5.484,1.371c1.375-0.609,2.449-1.496,3.223-2.66h-7.465
			C22.203,70.531,21.789,70.961,21.359,71.391z"/>
	</g>
</g>
<g>
	<path fill="#FF6600" d="M-223.273,26.602c0.812-0.192,1.689-0.32,2.63-0.385s1.871-0.097,2.791-0.097c0.983,0,1.983,0.097,3,0.289
		c1.015,0.192,1.94,0.545,2.774,1.059c0.834,0.513,1.513,1.219,2.037,2.117s0.786,2.042,0.786,3.433
		c0,1.368-0.246,2.523-0.738,3.464c-0.492,0.941-1.145,1.706-1.957,2.294c-0.813,0.589-1.743,1.011-2.791,1.268
		c-1.048,0.256-2.128,0.385-3.24,0.385c-0.107,0-0.284,0-0.529,0c-0.246,0-0.502-0.005-0.77-0.017
		c-0.268-0.011-0.529-0.026-0.786-0.048s-0.438-0.043-0.545-0.064v8.533h-2.663V26.602H-223.273z M-217.788,28.43
		c-0.556,0-1.09,0.012-1.604,0.032c-0.514,0.021-0.92,0.075-1.219,0.16v9.304c0.107,0.043,0.278,0.069,0.513,0.08
		s0.481,0.021,0.738,0.031c0.257,0.012,0.502,0.017,0.738,0.017s0.406,0,0.513,0c0.727,0,1.449-0.069,2.166-0.209
		c0.716-0.139,1.363-0.39,1.941-0.754c0.577-0.363,1.042-0.876,1.395-1.539c0.353-0.663,0.529-1.508,0.529-2.534
		c0-0.877-0.166-1.609-0.497-2.197s-0.77-1.059-1.315-1.412s-1.161-0.604-1.845-0.754C-216.419,28.505-217.104,28.43-217.788,28.43z
		"/>
	<path fill="#FF6600" d="M-199.15,35.263c-0.642-0.214-1.251-0.32-1.829-0.32c-0.919,0-1.647,0.251-2.181,0.754
		c-0.535,0.502-0.866,1.139-0.995,1.908v11.228h-2.566v-16.04h1.796l0.481,1.957h0.128c0.406-0.728,0.893-1.289,1.459-1.685
		s1.288-0.594,2.166-0.594c0.62,0,1.315,0.107,2.085,0.321L-199.15,35.263z"/>
	<path fill="#FF6600" d="M-196.712,40.813c0-2.716,0.604-4.796,1.812-6.239c1.208-1.443,2.946-2.165,5.213-2.165
		c1.197,0,2.24,0.197,3.127,0.593s1.62,0.963,2.197,1.7c0.578,0.738,1.005,1.626,1.283,2.663s0.417,2.187,0.417,3.448
		c0,2.716-0.604,4.796-1.812,6.239c-1.208,1.443-2.946,2.165-5.213,2.165c-1.198,0-2.241-0.198-3.128-0.594
		c-0.888-0.395-1.62-0.962-2.197-1.699c-0.577-0.738-1.005-1.625-1.283-2.663C-196.574,43.224-196.712,42.075-196.712,40.813z
		 M-194.05,40.813c0,0.812,0.08,1.594,0.241,2.342c0.16,0.749,0.411,1.4,0.754,1.957c0.342,0.556,0.791,1.005,1.347,1.347
		c0.556,0.343,1.229,0.514,2.021,0.514c2.908,0.021,4.363-2.031,4.363-6.159c0-0.834-0.081-1.625-0.241-2.374
		c-0.161-0.748-0.412-1.4-0.754-1.957c-0.342-0.556-0.792-0.999-1.347-1.331c-0.557-0.331-1.23-0.497-2.021-0.497
		C-192.596,34.632-194.05,36.686-194.05,40.813z"/>
	<path fill="#FF6600" d="M-180.77,32.793h2.502v-0.898c0-0.983,0.08-1.839,0.24-2.566c0.161-0.727,0.422-1.32,0.786-1.78
		c0.363-0.46,0.834-0.802,1.412-1.026c0.577-0.225,1.293-0.337,2.149-0.337c0.685,0,1.289,0.043,1.812,0.128
		c0.524,0.086,1.075,0.246,1.652,0.481l-0.578,2.149c-0.492-0.214-0.958-0.353-1.396-0.417s-0.85-0.097-1.235-0.097
		c-0.556,0-0.989,0.086-1.299,0.257c-0.31,0.172-0.535,0.423-0.673,0.754c-0.14,0.332-0.225,0.738-0.257,1.219
		c-0.032,0.481-0.048,1.043-0.048,1.685v0.449h4.267v2.245h-4.267v13.794h-2.566V35.039h-2.502v-2.246H-180.77z"/>
	<path fill="#FF6600" d="M-157.416,47.549c-0.643,0.514-1.449,0.92-2.422,1.219c-0.975,0.3-2.006,0.449-3.096,0.449
		c-1.219,0-2.277-0.198-3.176-0.594c-0.898-0.395-1.636-0.962-2.213-1.699c-0.577-0.738-1.005-1.62-1.283-2.646
		c-0.278-1.027-0.417-2.182-0.417-3.465c0-2.737,0.609-4.822,1.829-6.256c1.219-1.432,2.962-2.148,5.228-2.148
		c0.727,0,1.455,0.08,2.182,0.24s1.379,0.465,1.957,0.914s1.047,1.086,1.412,1.909c0.363,0.823,0.545,1.908,0.545,3.256
		c0,0.705-0.064,1.486-0.193,2.342h-10.296c0,0.941,0.096,1.775,0.289,2.502c0.192,0.728,0.492,1.342,0.898,1.845
		c0.406,0.502,0.936,0.888,1.588,1.154c0.652,0.268,1.449,0.401,2.391,0.401c0.727,0,1.453-0.129,2.18-0.385
		c0.729-0.257,1.273-0.557,1.637-0.898L-157.416,47.549z M-162.933,34.654c-1.262,0-2.273,0.332-3.032,0.994
		c-0.759,0.663-1.214,1.797-1.363,3.4h7.956c0-1.625-0.311-2.764-0.93-3.416C-160.923,34.98-161.8,34.654-162.933,34.654z"/>
	<path fill="#FF6600" d="M-145.772,44.47c0-0.642-0.192-1.145-0.577-1.508s-0.861-0.668-1.428-0.914
		c-0.567-0.246-1.187-0.481-1.86-0.706s-1.294-0.514-1.86-0.866c-0.567-0.353-1.043-0.807-1.428-1.363s-0.577-1.305-0.577-2.245
		c0-1.54,0.438-2.668,1.314-3.385c0.877-0.716,2.096-1.074,3.657-1.074c1.155,0,2.122,0.102,2.903,0.305
		c0.78,0.203,1.459,0.443,2.037,0.722l-0.609,2.117c-0.492-0.235-1.086-0.444-1.781-0.626c-0.694-0.182-1.438-0.272-2.229-0.272
		c-0.941,0-1.632,0.16-2.069,0.481c-0.438,0.32-0.658,0.877-0.658,1.668c0,0.557,0.192,0.989,0.578,1.299
		c0.385,0.311,0.86,0.589,1.427,0.834c0.566,0.246,1.188,0.487,1.861,0.722c0.673,0.236,1.293,0.546,1.86,0.931
		c0.566,0.385,1.042,0.871,1.428,1.46c0.385,0.588,0.577,1.363,0.577,2.325c0,0.685-0.112,1.326-0.337,1.925
		s-0.572,1.112-1.043,1.54s-1.053,0.765-1.748,1.01c-0.695,0.246-1.513,0.369-2.454,0.369c-1.219,0-2.256-0.117-3.111-0.353
		s-1.572-0.514-2.149-0.834l0.77-2.182c0.492,0.278,1.134,0.535,1.925,0.77c0.791,0.236,1.593,0.354,2.406,0.354
		c0.919,0,1.679-0.182,2.277-0.546C-146.072,46.063-145.772,45.412-145.772,44.47z"/>
	<path fill="#FF6600" d="M-132.267,44.47c0-0.642-0.192-1.145-0.577-1.508s-0.861-0.668-1.428-0.914
		c-0.567-0.246-1.187-0.481-1.86-0.706s-1.294-0.514-1.86-0.866c-0.567-0.353-1.043-0.807-1.428-1.363s-0.577-1.305-0.577-2.245
		c0-1.54,0.438-2.668,1.314-3.385c0.877-0.716,2.096-1.074,3.657-1.074c1.155,0,2.122,0.102,2.903,0.305
		c0.78,0.203,1.459,0.443,2.037,0.722l-0.609,2.117c-0.492-0.235-1.086-0.444-1.781-0.626c-0.694-0.182-1.438-0.272-2.229-0.272
		c-0.941,0-1.632,0.16-2.069,0.481c-0.438,0.32-0.658,0.877-0.658,1.668c0,0.557,0.192,0.989,0.578,1.299
		c0.385,0.311,0.86,0.589,1.427,0.834c0.566,0.246,1.188,0.487,1.861,0.722c0.673,0.236,1.293,0.546,1.86,0.931
		c0.566,0.385,1.042,0.871,1.428,1.46c0.385,0.588,0.577,1.363,0.577,2.325c0,0.685-0.112,1.326-0.337,1.925
		s-0.572,1.112-1.043,1.54s-1.053,0.765-1.748,1.01c-0.695,0.246-1.513,0.369-2.454,0.369c-1.219,0-2.256-0.117-3.111-0.353
		s-1.572-0.514-2.149-0.834l0.77-2.182c0.492,0.278,1.134,0.535,1.925,0.77c0.791,0.236,1.593,0.354,2.406,0.354
		c0.919,0,1.679-0.182,2.277-0.546C-132.567,46.063-132.267,45.412-132.267,44.47z"/>
	<path fill="#FF6600" d="M-125.82,27.917c0-0.492,0.166-0.914,0.497-1.268c0.332-0.353,0.754-0.529,1.268-0.529
		s0.951,0.177,1.315,0.529c0.363,0.354,0.545,0.775,0.545,1.268s-0.182,0.898-0.545,1.219c-0.364,0.321-0.802,0.481-1.315,0.481
		s-0.936-0.16-1.268-0.481C-125.654,28.816-125.82,28.41-125.82,27.917z M-125.274,32.793h2.566v16.039h-2.566V32.793z"/>
	<path fill="#FF6600" d="M-118.121,40.813c0-2.716,0.604-4.796,1.812-6.239c1.207-1.443,2.945-2.165,5.212-2.165
		c1.198,0,2.24,0.197,3.128,0.593s1.62,0.963,2.197,1.7c0.578,0.738,1.005,1.626,1.283,2.663s0.417,2.187,0.417,3.448
		c0,2.716-0.604,4.796-1.812,6.239s-2.946,2.165-5.213,2.165c-1.197,0-2.24-0.198-3.127-0.594c-0.888-0.395-1.62-0.962-2.197-1.699
		c-0.578-0.738-1.006-1.625-1.283-2.663C-117.982,43.224-118.121,42.075-118.121,40.813z M-115.458,40.813
		c0,0.812,0.08,1.594,0.24,2.342c0.161,0.749,0.412,1.4,0.754,1.957c0.342,0.556,0.791,1.005,1.348,1.347
		c0.556,0.343,1.229,0.514,2.021,0.514c2.908,0.021,4.363-2.031,4.363-6.159c0-0.834-0.08-1.625-0.241-2.374
		c-0.16-0.748-0.411-1.4-0.754-1.957c-0.342-0.556-0.791-0.999-1.347-1.331c-0.557-0.331-1.23-0.497-2.021-0.497
		C-114.004,34.632-115.458,36.686-115.458,40.813z"/>
	<path fill="#FF6600" d="M-89.731,48.833V39.69c0-1.668-0.241-2.924-0.722-3.77c-0.481-0.844-1.363-1.267-2.646-1.267
		c-1.134,0-2.069,0.305-2.808,0.914c-0.737,0.609-1.256,1.375-1.556,2.294v10.971h-2.566V32.793h1.797l0.481,1.957h0.128
		c0.514-0.685,1.203-1.246,2.069-1.685s1.897-0.657,3.096-0.657c0.876,0,1.646,0.102,2.31,0.305
		c0.662,0.203,1.213,0.561,1.651,1.074s0.771,1.203,0.995,2.069s0.337,1.962,0.337,3.288v9.688h-2.566V48.833z"/>
	<path fill="#FF6600" d="M-82.738,33.98c0.812-0.491,1.759-0.854,2.839-1.091c1.079-0.234,2.208-0.353,3.384-0.353
		c1.112,0,2.005,0.149,2.679,0.449s1.187,0.689,1.54,1.171c0.353,0.481,0.588,1.011,0.705,1.588s0.177,1.154,0.177,1.732
		c0,1.283-0.032,2.534-0.096,3.753c-0.064,1.219-0.097,2.374-0.097,3.465c0,0.791,0.032,1.539,0.097,2.245
		c0.063,0.706,0.181,1.358,0.353,1.957h-1.893l-0.674-2.246h-0.16c-0.192,0.3-0.434,0.594-0.722,0.883
		c-0.289,0.288-0.637,0.545-1.043,0.77s-0.877,0.412-1.411,0.562c-0.535,0.149-1.145,0.225-1.829,0.225s-1.32-0.107-1.908-0.321
		c-0.589-0.213-1.097-0.518-1.523-0.914c-0.429-0.396-0.766-0.871-1.011-1.428c-0.246-0.556-0.369-1.187-0.369-1.893
		c0-0.94,0.192-1.727,0.577-2.357c0.386-0.631,0.925-1.134,1.62-1.508s1.529-0.642,2.502-0.802c0.974-0.16,2.048-0.241,3.225-0.241
		c0.299,0,0.593,0,0.882,0s0.582,0.022,0.882,0.064c0.064-0.642,0.097-1.219,0.097-1.732c0-1.176-0.235-1.999-0.706-2.47
		c-0.471-0.47-1.326-0.706-2.566-0.706c-0.363,0-0.754,0.028-1.171,0.083c-0.417,0.056-0.845,0.132-1.283,0.231
		c-0.438,0.099-0.855,0.22-1.251,0.362c-0.396,0.144-0.743,0.303-1.042,0.479L-82.738,33.98z M-78.183,46.843
		c0.599,0,1.134-0.08,1.604-0.24c0.471-0.16,0.877-0.363,1.22-0.609c0.342-0.246,0.625-0.519,0.85-0.818s0.39-0.588,0.497-0.866
		v-2.662c-0.3-0.021-0.604-0.037-0.914-0.048c-0.311-0.011-0.615-0.017-0.914-0.017c-0.663,0-1.311,0.038-1.94,0.112
		c-0.632,0.075-1.188,0.214-1.668,0.417c-0.481,0.204-0.866,0.481-1.155,0.834c-0.289,0.354-0.433,0.797-0.433,1.332
		c0,0.748,0.267,1.363,0.802,1.844C-79.702,46.603-79.017,46.843-78.183,46.843z"/>
	<path fill="#FF6600" d="M-63.716,44.887c0,0.748,0.128,1.283,0.385,1.604s0.62,0.481,1.091,0.481c0.277,0,0.577-0.021,0.898-0.064
		c0.32-0.043,0.684-0.139,1.09-0.289l0.289,2.021c-0.342,0.171-0.818,0.31-1.428,0.417c-0.609,0.106-1.139,0.16-1.588,0.16
		c-0.962,0-1.754-0.272-2.373-0.817c-0.621-0.546-0.931-1.471-0.931-2.775V26.377h2.566v18.51H-63.716z"/>
	<path fill="#FF6600" d="M-36.322,43.315c0,1.091,0.011,2.08,0.032,2.968s0.117,1.759,0.289,2.614h-1.732l-0.642-2.278h-0.129
		c-0.428,0.749-1.048,1.369-1.86,1.861c-0.812,0.491-1.764,0.737-2.854,0.737c-2.139,0-3.727-0.674-4.764-2.021
		c-1.038-1.348-1.556-3.454-1.556-6.319c0-2.737,0.646-4.817,1.94-6.239c1.294-1.423,3.074-2.134,5.341-2.134
		c0.791,0,1.417,0.043,1.877,0.129c0.459,0.085,0.957,0.224,1.491,0.417v-6.673h2.566L-36.322,43.315L-36.322,43.315z
		 M-42.801,46.972c1.091,0,1.957-0.283,2.598-0.851c0.642-0.566,1.08-1.427,1.315-2.582v-7.955c-0.385-0.3-0.823-0.514-1.315-0.642
		c-0.492-0.129-1.144-0.192-1.956-0.192c-1.476,0-2.631,0.486-3.465,1.459c-0.834,0.974-1.251,2.529-1.251,4.668
		c0,0.877,0.069,1.689,0.209,2.438c0.139,0.749,0.368,1.391,0.689,1.925c0.32,0.535,0.742,0.957,1.267,1.267
		C-44.186,46.817-43.55,46.972-42.801,46.972z"/>
	<path fill="#FF6600" d="M-31.637,33.98c0.812-0.491,1.759-0.854,2.839-1.091c1.079-0.234,2.208-0.353,3.384-0.353
		c1.112,0,2.005,0.149,2.679,0.449s1.187,0.689,1.54,1.171c0.353,0.481,0.588,1.011,0.705,1.588s0.177,1.154,0.177,1.732
		c0,1.283-0.032,2.534-0.096,3.753c-0.064,1.219-0.097,2.374-0.097,3.465c0,0.791,0.032,1.539,0.097,2.245
		c0.063,0.706,0.181,1.358,0.353,1.957h-1.893l-0.674-2.246h-0.16c-0.192,0.3-0.434,0.594-0.722,0.883
		c-0.289,0.288-0.637,0.545-1.043,0.77s-0.877,0.412-1.411,0.562c-0.535,0.149-1.145,0.225-1.829,0.225s-1.32-0.107-1.908-0.321
		c-0.589-0.213-1.097-0.518-1.523-0.914c-0.429-0.396-0.766-0.871-1.011-1.428c-0.246-0.556-0.369-1.187-0.369-1.893
		c0-0.94,0.192-1.727,0.577-2.357c0.386-0.631,0.925-1.134,1.62-1.508s1.529-0.642,2.502-0.802c0.974-0.16,2.048-0.241,3.225-0.241
		c0.299,0,0.593,0,0.882,0s0.582,0.022,0.882,0.064c0.064-0.642,0.097-1.219,0.097-1.732c0-1.176-0.235-1.999-0.706-2.47
		c-0.471-0.47-1.326-0.706-2.566-0.706c-0.363,0-0.754,0.028-1.171,0.083c-0.417,0.056-0.845,0.132-1.283,0.231
		c-0.438,0.099-0.855,0.22-1.251,0.362c-0.396,0.144-0.743,0.303-1.042,0.479L-31.637,33.98z M-27.083,46.843
		c0.599,0,1.134-0.08,1.604-0.24c0.471-0.16,0.877-0.363,1.22-0.609c0.342-0.246,0.625-0.519,0.85-0.818s0.39-0.588,0.497-0.866
		v-2.662c-0.3-0.021-0.604-0.037-0.914-0.048c-0.311-0.011-0.615-0.017-0.914-0.017c-0.663,0-1.311,0.038-1.94,0.112
		c-0.632,0.075-1.188,0.214-1.668,0.417c-0.481,0.204-0.866,0.481-1.155,0.834c-0.289,0.354-0.433,0.797-0.433,1.332
		c0,0.748,0.267,1.363,0.802,1.844C-28.601,46.603-27.917,46.843-27.083,46.843z"/>
	<path fill="#FF6600" d="M-17.588,32.793h2.503v-3.176l2.565-0.738v3.914h4.363v2.245h-4.363v8.886c0,1.112,0.14,1.898,0.417,2.358
		c0.278,0.46,0.749,0.689,1.412,0.689c0.556,0,1.026-0.059,1.411-0.177c0.385-0.117,0.812-0.272,1.283-0.465l0.577,1.957
		c-0.577,0.277-1.208,0.502-1.893,0.673s-1.422,0.257-2.213,0.257c-1.305,0-2.225-0.369-2.759-1.106
		c-0.535-0.738-0.802-1.973-0.802-3.705v-9.367h-2.503v-2.245H-17.588z"/>
	<path fill="#FF6600" d="M-4.853,33.98c0.812-0.491,1.759-0.854,2.839-1.091c1.079-0.234,2.208-0.353,3.384-0.353
		c1.112,0,2.005,0.149,2.679,0.449s1.187,0.689,1.54,1.171c0.353,0.481,0.588,1.011,0.705,1.588s0.177,1.154,0.177,1.732
		c0,1.283-0.032,2.534-0.096,3.753c-0.064,1.219-0.097,2.374-0.097,3.465c0,0.791,0.032,1.539,0.097,2.245
		c0.063,0.706,0.181,1.358,0.353,1.957H4.834L4.16,46.65H4c-0.192,0.3-0.434,0.594-0.722,0.883c-0.289,0.288-0.637,0.545-1.043,0.77
		s-0.877,0.412-1.411,0.562c-0.535,0.149-1.145,0.225-1.829,0.225s-1.32-0.107-1.908-0.321c-0.589-0.213-1.097-0.518-1.523-0.914
		c-0.429-0.396-0.766-0.871-1.011-1.428c-0.246-0.556-0.369-1.187-0.369-1.893c0-0.94,0.192-1.727,0.577-2.357
		c0.386-0.631,0.925-1.134,1.62-1.508s1.529-0.642,2.502-0.802c0.974-0.16,2.048-0.241,3.225-0.241c0.299,0,0.593,0,0.882,0
		s0.582,0.022,0.882,0.064c0.064-0.642,0.097-1.219,0.097-1.732c0-1.176-0.235-1.999-0.706-2.47
		c-0.471-0.47-1.326-0.706-2.566-0.706c-0.363,0-0.754,0.028-1.171,0.083c-0.417,0.056-0.845,0.132-1.283,0.231
		s-0.855,0.22-1.251,0.362c-0.396,0.144-0.743,0.303-1.042,0.479L-4.853,33.98z M-0.298,46.843c0.599,0,1.134-0.08,1.604-0.24
		c0.471-0.16,0.877-0.363,1.22-0.609c0.342-0.246,0.625-0.519,0.85-0.818s0.39-0.588,0.497-0.866v-2.662
		c-0.3-0.021-0.604-0.037-0.914-0.048c-0.311-0.011-0.615-0.017-0.914-0.017c-0.663,0-1.311,0.038-1.94,0.112
		c-0.632,0.075-1.188,0.214-1.668,0.417c-0.481,0.204-0.866,0.481-1.155,0.834c-0.289,0.354-0.433,0.797-0.433,1.332
		c0,0.748,0.267,1.363,0.802,1.844C-1.817,46.603-1.132,46.843-0.298,46.843z"/>
	<path fill="#FF6600" d="M24.049,42.192l0.897,3.048h0.032l0.802-3.111l3.593-9.335h2.759L25.3,49.185h-1.091l-6.961-16.392H20.2
		L24.049,42.192z"/>
	<path fill="#FF6600" d="M34.891,27.917c0-0.492,0.166-0.914,0.497-1.268c0.332-0.353,0.754-0.529,1.268-0.529
		s0.951,0.177,1.315,0.529c0.363,0.354,0.545,0.775,0.545,1.268s-0.182,0.898-0.545,1.219c-0.364,0.321-0.802,0.481-1.315,0.481
		s-0.936-0.16-1.268-0.481C35.057,28.816,34.891,28.41,34.891,27.917z M35.437,32.793h2.566v16.039h-2.566
		C35.437,48.832,35.437,32.793,35.437,32.793z"/>
	<path fill="#FF6600" d="M50.545,44.47c0-0.642-0.192-1.145-0.577-1.508s-0.861-0.668-1.428-0.914
		c-0.567-0.246-1.187-0.481-1.86-0.706s-1.294-0.514-1.86-0.866c-0.567-0.353-1.043-0.807-1.428-1.363
		c-0.385-0.556-0.577-1.305-0.577-2.245c0-1.54,0.438-2.668,1.314-3.385c0.877-0.716,2.096-1.074,3.657-1.074
		c1.155,0,2.122,0.102,2.903,0.305c0.78,0.203,1.459,0.443,2.037,0.722l-0.609,2.117c-0.492-0.235-1.086-0.444-1.781-0.626
		c-0.694-0.182-1.438-0.272-2.229-0.272c-0.941,0-1.632,0.16-2.069,0.481c-0.438,0.32-0.658,0.877-0.658,1.668
		c0,0.557,0.192,0.989,0.578,1.299c0.385,0.311,0.86,0.589,1.427,0.834c0.566,0.246,1.188,0.487,1.861,0.722
		c0.673,0.236,1.293,0.546,1.86,0.931c0.566,0.385,1.042,0.871,1.428,1.46c0.385,0.588,0.577,1.363,0.577,2.325
		c0,0.685-0.112,1.326-0.337,1.925s-0.572,1.112-1.043,1.54s-1.053,0.765-1.748,1.01c-0.695,0.246-1.513,0.369-2.454,0.369
		c-1.219,0-2.256-0.117-3.111-0.353s-1.572-0.514-2.149-0.834l0.77-2.182c0.492,0.278,1.134,0.535,1.925,0.77
		c0.791,0.236,1.593,0.354,2.406,0.354c0.919,0,1.679-0.182,2.277-0.546C50.246,46.063,50.545,45.412,50.545,44.47z"/>
	<path fill="#FF6600" d="M59.303,32.793v9.143c0,0.834,0.049,1.566,0.145,2.197c0.097,0.631,0.262,1.154,0.497,1.571
		s0.557,0.733,0.963,0.946c0.406,0.214,0.919,0.321,1.54,0.321c0.577,0,1.09-0.091,1.539-0.272c0.449-0.181,0.851-0.434,1.203-0.754
		c0.353-0.321,0.663-0.69,0.931-1.107c0.267-0.417,0.486-0.86,0.657-1.331V32.793h2.566v11.484c0,0.77,0.026,1.566,0.08,2.39
		s0.145,1.545,0.272,2.165h-1.764l-0.642-2.534h-0.16c-0.492,0.834-1.154,1.529-1.988,2.085s-1.893,0.834-3.176,0.834
		c-0.855,0-1.609-0.102-2.262-0.305s-1.198-0.562-1.636-1.074c-0.438-0.514-0.771-1.203-0.995-2.069s-0.336-1.962-0.336-3.288
		v-9.688C56.737,32.793,59.303,32.793,59.303,32.793z"/>
	<path fill="#FF6600" d="M74.027,33.98c0.812-0.491,1.759-0.854,2.839-1.091c1.079-0.234,2.208-0.353,3.384-0.353
		c1.112,0,2.005,0.149,2.679,0.449s1.187,0.689,1.54,1.171c0.353,0.481,0.588,1.011,0.705,1.588s0.177,1.154,0.177,1.732
		c0,1.283-0.032,2.534-0.096,3.753c-0.064,1.219-0.097,2.374-0.097,3.465c0,0.791,0.032,1.539,0.097,2.245
		c0.063,0.706,0.181,1.358,0.353,1.957h-1.893l-0.674-2.246h-0.16c-0.192,0.3-0.434,0.594-0.722,0.883
		c-0.289,0.288-0.637,0.545-1.043,0.77s-0.877,0.412-1.411,0.562c-0.535,0.149-1.145,0.225-1.829,0.225s-1.32-0.107-1.908-0.321
		c-0.589-0.213-1.097-0.518-1.523-0.914c-0.429-0.396-0.766-0.871-1.011-1.428c-0.246-0.556-0.369-1.187-0.369-1.893
		c0-0.94,0.192-1.727,0.577-2.357c0.386-0.631,0.925-1.134,1.62-1.508s1.529-0.642,2.502-0.802c0.974-0.16,2.048-0.241,3.225-0.241
		c0.299,0,0.593,0,0.882,0s0.582,0.022,0.882,0.064c0.064-0.642,0.097-1.219,0.097-1.732c0-1.176-0.235-1.999-0.706-2.47
		c-0.471-0.47-1.326-0.706-2.566-0.706c-0.363,0-0.754,0.028-1.171,0.083c-0.417,0.056-0.845,0.132-1.283,0.231
		c-0.438,0.099-0.855,0.22-1.251,0.362c-0.396,0.144-0.743,0.303-1.042,0.479L74.027,33.98z M78.582,46.843
		c0.599,0,1.134-0.08,1.604-0.24c0.471-0.16,0.877-0.363,1.22-0.609c0.342-0.246,0.625-0.519,0.85-0.818s0.39-0.588,0.497-0.866
		v-2.662c-0.3-0.021-0.604-0.037-0.914-0.048c-0.311-0.011-0.615-0.017-0.914-0.017c-0.663,0-1.311,0.038-1.94,0.112
		c-0.632,0.075-1.188,0.214-1.668,0.417c-0.481,0.204-0.866,0.481-1.155,0.834c-0.289,0.354-0.433,0.797-0.433,1.332
		c0,0.748,0.267,1.363,0.802,1.844C77.063,46.603,77.748,46.843,78.582,46.843z"/>
	<path fill="#FF6600" d="M93.049,44.887c0,0.748,0.128,1.283,0.385,1.604s0.62,0.481,1.091,0.481c0.277,0,0.577-0.021,0.898-0.064
		c0.32-0.043,0.684-0.139,1.09-0.289l0.289,2.021c-0.342,0.171-0.818,0.31-1.428,0.417c-0.609,0.106-1.139,0.16-1.588,0.16
		c-0.962,0-1.754-0.272-2.373-0.817c-0.621-0.546-0.931-1.471-0.931-2.775V26.377h2.566L93.049,44.887L93.049,44.887z"/>
	<path fill="#FF6600" d="M99.561,27.917c0-0.492,0.166-0.914,0.497-1.268c0.332-0.353,0.754-0.529,1.268-0.529
		s0.951,0.177,1.315,0.529c0.363,0.354,0.545,0.775,0.545,1.268s-0.182,0.898-0.545,1.219c-0.364,0.321-0.802,0.481-1.315,0.481
		s-0.936-0.16-1.268-0.481C99.727,28.816,99.561,28.41,99.561,27.917z M100.106,32.793h2.566v16.039h-2.566V32.793z"/>
	<path fill="#FF6600" d="M107.035,46.587l7.41-10.201l1.347-1.348h-8.757v-2.245h11.42v2.245l-7.447,10.298l-1.311,1.251h8.758
		v2.245h-11.42C107.035,48.832,107.035,46.587,107.035,46.587z"/>
	<path fill="#FF6600" d="M122.24,33.98c0.812-0.491,1.759-0.854,2.839-1.091c1.079-0.234,2.208-0.353,3.384-0.353
		c1.112,0,2.005,0.149,2.679,0.449s1.187,0.689,1.54,1.171c0.353,0.481,0.588,1.011,0.705,1.588s0.177,1.154,0.177,1.732
		c0,1.283-0.032,2.534-0.096,3.753c-0.064,1.219-0.097,2.374-0.097,3.465c0,0.791,0.032,1.539,0.097,2.245
		c0.063,0.706,0.181,1.358,0.353,1.957h-1.893l-0.674-2.246h-0.16c-0.192,0.3-0.434,0.594-0.722,0.883
		c-0.289,0.288-0.637,0.545-1.043,0.77s-0.877,0.412-1.411,0.562c-0.535,0.149-1.145,0.225-1.829,0.225s-1.32-0.107-1.908-0.321
		c-0.589-0.213-1.097-0.518-1.523-0.914c-0.429-0.396-0.766-0.871-1.011-1.428c-0.246-0.556-0.369-1.187-0.369-1.893
		c0-0.94,0.192-1.727,0.577-2.357c0.386-0.631,0.925-1.134,1.62-1.508s1.529-0.642,2.502-0.802c0.974-0.16,2.048-0.241,3.225-0.241
		c0.299,0,0.593,0,0.882,0s0.582,0.022,0.882,0.064c0.064-0.642,0.097-1.219,0.097-1.732c0-1.176-0.235-1.999-0.706-2.47
		c-0.471-0.47-1.326-0.706-2.566-0.706c-0.363,0-0.754,0.028-1.171,0.083c-0.417,0.056-0.845,0.132-1.283,0.231
		c-0.438,0.099-0.855,0.22-1.251,0.362c-0.396,0.144-0.743,0.303-1.042,0.479L122.24,33.98z M126.795,46.843
		c0.599,0,1.134-0.08,1.604-0.24c0.471-0.16,0.877-0.363,1.22-0.609c0.342-0.246,0.625-0.519,0.85-0.818s0.39-0.588,0.497-0.866
		v-2.662c-0.3-0.021-0.604-0.037-0.914-0.048c-0.311-0.011-0.615-0.017-0.914-0.017c-0.663,0-1.311,0.038-1.94,0.112
		c-0.632,0.075-1.188,0.214-1.668,0.417c-0.481,0.204-0.866,0.481-1.155,0.834c-0.289,0.354-0.433,0.797-0.433,1.332
		c0,0.748,0.267,1.363,0.802,1.844C125.276,46.603,125.961,46.843,126.795,46.843z"/>
	<path fill="#FF6600" d="M136.289,32.793h2.503v-3.176l2.565-0.738v3.914h4.363v2.245h-4.363v8.886c0,1.112,0.14,1.898,0.417,2.358
		c0.278,0.46,0.749,0.689,1.412,0.689c0.556,0,1.026-0.059,1.411-0.177c0.385-0.117,0.812-0.272,1.283-0.465l0.577,1.957
		c-0.577,0.277-1.208,0.502-1.893,0.673s-1.422,0.257-2.213,0.257c-1.305,0-2.225-0.369-2.759-1.106
		c-0.535-0.738-0.802-1.973-0.802-3.705v-9.367h-2.503v-2.245H136.289z"/>
	<path fill="#FF6600" d="M149.281,27.917c0-0.492,0.166-0.914,0.497-1.268c0.332-0.353,0.754-0.529,1.268-0.529
		s0.951,0.177,1.315,0.529c0.363,0.354,0.545,0.775,0.545,1.268s-0.182,0.898-0.545,1.219c-0.364,0.321-0.802,0.481-1.315,0.481
		s-0.936-0.16-1.268-0.481C149.447,28.816,149.281,28.41,149.281,27.917z M149.827,32.793h2.566v16.039h-2.566V32.793z"/>
	<path fill="#FF6600" d="M156.98,40.813c0-2.716,0.604-4.796,1.812-6.239c1.207-1.443,2.945-2.165,5.212-2.165
		c1.198,0,2.24,0.197,3.128,0.593s1.62,0.963,2.197,1.7c0.578,0.738,1.005,1.626,1.283,2.663s0.417,2.187,0.417,3.448
		c0,2.716-0.604,4.796-1.812,6.239s-2.946,2.165-5.213,2.165c-1.197,0-2.24-0.198-3.127-0.594c-0.888-0.395-1.62-0.962-2.197-1.699
		c-0.578-0.738-1.006-1.625-1.283-2.663C157.119,43.224,156.98,42.075,156.98,40.813z M159.643,40.813
		c0,0.812,0.08,1.594,0.24,2.342c0.161,0.749,0.412,1.4,0.754,1.957c0.342,0.556,0.791,1.005,1.348,1.347
		c0.556,0.343,1.229,0.514,2.021,0.514c2.908,0.021,4.363-2.031,4.363-6.159c0-0.834-0.08-1.625-0.241-2.374
		c-0.16-0.748-0.411-1.4-0.754-1.957c-0.342-0.556-0.791-0.999-1.347-1.331c-0.557-0.331-1.23-0.497-2.021-0.497
		C161.097,34.632,159.643,36.686,159.643,40.813z"/>
	<path fill="#FF6600" d="M185.369,48.833V39.69c0-1.668-0.241-2.924-0.722-3.77c-0.481-0.844-1.363-1.267-2.646-1.267
		c-1.134,0-2.069,0.305-2.808,0.914c-0.737,0.609-1.256,1.375-1.556,2.294v10.971h-2.566V32.793h1.797l0.481,1.957h0.128
		c0.514-0.685,1.203-1.246,2.069-1.685s1.897-0.657,3.096-0.657c0.876,0,1.646,0.102,2.31,0.305
		c0.662,0.203,1.213,0.561,1.651,1.074s0.771,1.203,0.995,2.069s0.337,1.962,0.337,3.288v9.688h-2.566V48.833z"/>
	<path fill="#FF6600" d="M208.241,44.47c0-0.642-0.192-1.145-0.577-1.508s-0.861-0.668-1.428-0.914
		c-0.567-0.246-1.187-0.481-1.86-0.706s-1.294-0.514-1.86-0.866c-0.567-0.353-1.043-0.807-1.428-1.363s-0.577-1.305-0.577-2.245
		c0-1.54,0.438-2.668,1.314-3.385c0.877-0.716,2.096-1.074,3.657-1.074c1.155,0,2.122,0.102,2.903,0.305
		c0.78,0.203,1.459,0.443,2.037,0.722l-0.609,2.117c-0.492-0.235-1.086-0.444-1.781-0.626c-0.694-0.182-1.438-0.272-2.229-0.272
		c-0.941,0-1.632,0.16-2.069,0.481c-0.438,0.32-0.658,0.877-0.658,1.668c0,0.557,0.192,0.989,0.578,1.299
		c0.385,0.311,0.86,0.589,1.427,0.834c0.566,0.246,1.188,0.487,1.861,0.722c0.673,0.236,1.293,0.546,1.86,0.931
		c0.566,0.385,1.042,0.871,1.428,1.46c0.385,0.588,0.577,1.363,0.577,2.325c0,0.685-0.112,1.326-0.337,1.925
		s-0.572,1.112-1.043,1.54s-1.053,0.765-1.748,1.01c-0.695,0.246-1.513,0.369-2.454,0.369c-1.219,0-2.256-0.117-3.111-0.353
		s-1.572-0.514-2.149-0.834l0.77-2.182c0.492,0.278,1.134,0.535,1.925,0.77c0.791,0.236,1.593,0.354,2.406,0.354
		c0.919,0,1.679-0.182,2.277-0.546C207.941,46.063,208.241,45.412,208.241,44.47z"/>
	<path fill="#FF6600" d="M213.791,40.813c0-2.716,0.604-4.796,1.812-6.239c1.207-1.443,2.945-2.165,5.212-2.165
		c1.198,0,2.24,0.197,3.128,0.593s1.62,0.963,2.197,1.7c0.578,0.738,1.005,1.626,1.283,2.663s0.417,2.187,0.417,3.448
		c0,2.716-0.604,4.796-1.812,6.239s-2.946,2.165-5.213,2.165c-1.197,0-2.24-0.198-3.127-0.594c-0.888-0.395-1.62-0.962-2.197-1.699
		c-0.578-0.738-1.006-1.625-1.283-2.663C213.93,43.224,213.791,42.075,213.791,40.813z M216.453,40.813
		c0,0.812,0.08,1.594,0.24,2.342c0.161,0.749,0.412,1.4,0.754,1.957c0.342,0.556,0.791,1.005,1.348,1.347
		c0.556,0.343,1.229,0.514,2.021,0.514c2.908,0.021,4.363-2.031,4.363-6.159c0-0.834-0.08-1.625-0.241-2.374
		c-0.16-0.748-0.411-1.4-0.754-1.957c-0.342-0.556-0.791-0.999-1.347-1.331c-0.557-0.331-1.23-0.497-2.021-0.497
		C217.907,34.632,216.453,36.686,216.453,40.813z"/>
	<path fill="#FF6600" d="M234.737,44.887c0,0.748,0.128,1.283,0.385,1.604c0.257,0.321,0.62,0.481,1.091,0.481
		c0.277,0,0.577-0.021,0.898-0.064c0.32-0.043,0.684-0.139,1.09-0.289l0.289,2.021c-0.342,0.171-0.818,0.31-1.428,0.417
		c-0.609,0.106-1.139,0.16-1.588,0.16c-0.962,0-1.754-0.272-2.373-0.817c-0.621-0.546-0.931-1.471-0.931-2.775V26.377h2.566v18.51
		H234.737z"/>
	<path fill="#FF6600" d="M243.559,32.793v9.143c0,0.834,0.049,1.566,0.145,2.197c0.097,0.631,0.262,1.154,0.497,1.571
		s0.557,0.733,0.963,0.946c0.406,0.214,0.919,0.321,1.54,0.321c0.577,0,1.09-0.091,1.539-0.272s0.851-0.434,1.203-0.754
		c0.353-0.321,0.663-0.69,0.931-1.107c0.267-0.417,0.486-0.86,0.657-1.331V32.793h2.566v11.484c0,0.77,0.026,1.566,0.08,2.39
		s0.145,1.545,0.272,2.165h-1.764l-0.642-2.534h-0.161c-0.492,0.834-1.154,1.529-1.988,2.085s-1.893,0.834-3.176,0.834
		c-0.855,0-1.609-0.102-2.262-0.305s-1.198-0.562-1.636-1.074c-0.438-0.514-0.771-1.203-0.995-2.069s-0.336-1.962-0.336-3.288
		v-9.688C240.992,32.793,243.559,32.793,243.559,32.793z"/>
	<path fill="#FF6600" d="M256.422,32.793h2.503v-3.176l2.565-0.738v3.914h4.363v2.245h-4.363v8.886c0,1.112,0.14,1.898,0.417,2.358
		c0.278,0.46,0.749,0.689,1.412,0.689c0.556,0,1.026-0.059,1.411-0.177c0.385-0.117,0.812-0.272,1.283-0.465l0.577,1.957
		c-0.577,0.277-1.208,0.502-1.893,0.673s-1.422,0.257-2.213,0.257c-1.305,0-2.225-0.369-2.759-1.106
		c-0.535-0.738-0.802-1.973-0.802-3.705v-9.367h-2.503v-2.245H256.422z"/>
	<path fill="#FF6600" d="M269.413,27.917c0-0.492,0.166-0.914,0.497-1.268c0.332-0.353,0.754-0.529,1.268-0.529
		s0.951,0.177,1.315,0.529c0.363,0.354,0.545,0.775,0.545,1.268s-0.182,0.898-0.545,1.219c-0.364,0.321-0.802,0.481-1.315,0.481
		s-0.936-0.16-1.268-0.481C269.579,28.816,269.413,28.41,269.413,27.917z M269.959,32.793h2.566v16.039h-2.566V32.793z"/>
	<path fill="#FF6600" d="M277.112,40.813c0-2.716,0.604-4.796,1.812-6.239c1.207-1.443,2.945-2.165,5.212-2.165
		c1.198,0,2.24,0.197,3.128,0.593s1.62,0.963,2.197,1.7c0.578,0.738,1.005,1.626,1.283,2.663s0.417,2.187,0.417,3.448
		c0,2.716-0.604,4.796-1.812,6.239s-2.946,2.165-5.213,2.165c-1.197,0-2.24-0.198-3.127-0.594c-0.888-0.395-1.62-0.962-2.197-1.699
		c-0.578-0.738-1.006-1.625-1.283-2.663C277.251,43.224,277.112,42.075,277.112,40.813z M279.774,40.813
		c0,0.812,0.08,1.594,0.24,2.342c0.161,0.749,0.412,1.4,0.754,1.957c0.342,0.556,0.791,1.005,1.348,1.347
		c0.556,0.343,1.229,0.514,2.021,0.514c2.908,0.021,4.363-2.031,4.363-6.159c0-0.834-0.08-1.625-0.241-2.374
		c-0.16-0.748-0.411-1.4-0.754-1.957c-0.342-0.556-0.791-0.999-1.347-1.331c-0.557-0.331-1.23-0.497-2.021-0.497
		C281.229,34.632,279.774,36.686,279.774,40.813z"/>
	<path fill="#FF6600" d="M305.502,48.833V39.69c0-1.668-0.241-2.924-0.722-3.77c-0.481-0.844-1.363-1.267-2.646-1.267
		c-1.134,0-2.069,0.305-2.808,0.914c-0.737,0.609-1.256,1.375-1.556,2.294v10.971h-2.566V32.793h1.797l0.481,1.957h0.128
		c0.514-0.685,1.203-1.246,2.069-1.685s1.897-0.657,3.096-0.657c0.876,0,1.646,0.102,2.31,0.305
		c0.662,0.203,1.213,0.561,1.651,1.074s0.771,1.203,0.995,2.069s0.337,1.962,0.337,3.288v9.688h-2.566V48.833z"/>
	<path fill="#FF6600" d="M319.809,44.47c0-0.642-0.192-1.145-0.577-1.508s-0.861-0.668-1.428-0.914
		c-0.567-0.246-1.187-0.481-1.86-0.706s-1.294-0.514-1.86-0.866c-0.567-0.353-1.043-0.807-1.428-1.363s-0.577-1.305-0.577-2.245
		c0-1.54,0.438-2.668,1.314-3.385c0.877-0.716,2.096-1.074,3.657-1.074c1.155,0,2.122,0.102,2.903,0.305
		c0.78,0.203,1.459,0.443,2.037,0.722l-0.609,2.117c-0.492-0.235-1.086-0.444-1.781-0.626c-0.694-0.182-1.438-0.272-2.229-0.272
		c-0.941,0-1.632,0.16-2.069,0.481c-0.438,0.32-0.658,0.877-0.658,1.668c0,0.557,0.192,0.989,0.578,1.299
		c0.385,0.311,0.86,0.589,1.427,0.834c0.566,0.246,1.188,0.487,1.861,0.722c0.673,0.236,1.293,0.546,1.86,0.931
		c0.566,0.385,1.042,0.871,1.428,1.46c0.385,0.588,0.577,1.363,0.577,2.325c0,0.685-0.112,1.326-0.337,1.925
		s-0.572,1.112-1.043,1.54s-1.053,0.765-1.748,1.01c-0.695,0.246-1.513,0.369-2.454,0.369c-1.219,0-2.256-0.117-3.111-0.353
		s-1.572-0.514-2.149-0.834l0.77-2.182c0.492,0.278,1.134,0.535,1.925,0.77c0.791,0.236,1.593,0.354,2.406,0.354
		c0.919,0,1.679-0.182,2.277-0.546C319.509,46.063,319.809,45.412,319.809,44.47z"/>
</g>
</svg>
