<?xml version="1.0" encoding="utf-8"?>
<!-- Generator: Adobe Illustrator 17.1.0, SVG Export Plug-In . SVG Version: 6.00 Build 0)  -->
<!DOCTYPE svg PUBLIC "-//W3C//DTD SVG 1.1//EN" "http://www.w3.org/Graphics/SVG/1.1/DTD/svg11.dtd">
<svg version="1.1" id="图层_1" xmlns="http://www.w3.org/2000/svg" xmlns:xlink="http://www.w3.org/1999/xlink" x="0px" y="0px"
	 viewBox="0 0 377.9 38.2" enable-background="new 0 0 377.9 38.2" xml:space="preserve">
<g>
	<path fill="#FF6600" d="M13.4,21.7c0,2.1,0.2,4.1,0.6,5.9c-4,2.9-6.6,4.9-7.9,6.1l-2.8-3.3c0.9-0.9,1.3-1.9,1.2-3V17.1H0.2v-4.6
		h9.2v12.9C10,24.7,11.4,23.4,13.4,21.7z M2.9,3.7l4-2.5c2.1,2.5,3.8,4.6,5,6.4l-4.5,2.8c-0.2-0.3-0.4-0.7-0.7-1.2
		C5.3,6.9,4,5.1,2.9,3.7z M12.7,33.8v-4.5h7.1V1.3h5v10.1h9.1V16h-9.1v13.4h10.4v4.5H12.7z"/>
	<path fill="#FF6600" d="M38.7,19.4v-4.9h13.8c0.4-1.9,0.6-4.1,0.6-6.5H40.6V3.2H71V8H58.3c-0.1,2.1-0.2,4.3-0.4,6.5h15v4.9H59.3
		c2.7,5.9,7.3,9.9,14,11.9c-0.6,0.4-1.7,1.6-3.3,3.6c-0.4,0.5-0.7,0.9-0.9,1.2C63,33.5,58.4,29,55.5,22.5
		c-2.1,5.3-6.5,9.7-13.2,13.2c-0.9-1.2-2.2-2.6-4-4.2c7.5-3.4,11.9-7.4,13.2-12.2H38.7z"/>
	<path fill="#FF6600" d="M95.4,15.3l3.1-3.1c3.9,2.8,7.7,5.6,11.4,8.6l-3.6,4.5c-4.1-3.6-7.7-6.5-11-8.9v19.3h-5.8V8.3H76.7v-5h34.1
		v5H95.4V15.3z"/>
	<path fill="#FF6600" d="M114.1,14.1l3.1-3.3c2.3,1.5,4.4,3.1,6.2,4.8l-3.3,3.7c-0.1-0.1-0.2-0.2-0.3-0.3
		C118.5,17.7,116.6,16.1,114.1,14.1z M119,20.3c1.5,0.7,3.1,1.3,4.8,1.8c-0.7,1.9-1.7,4.8-3,8.9c-0.7,1.9-1.2,3.3-1.5,4.3
		c-1.7-0.6-3.3-1.1-4.8-1.6C116.3,29.5,117.8,25.1,119,20.3z M114.7,4.6l3-3.3c3.5,2.4,3.8,2.6,0.9,0.6c2.9,2,4.8,3.4,5.9,4.3
		l-3.1,3.7c-0.1-0.1-0.3-0.2-0.6-0.4C118.3,7.3,116.3,5.7,114.7,4.6z M124.9,15.9h21.5v4.3c-1.6,3.3-3.7,6-6.2,8.3
		c1.9,0.9,4.9,1.8,9.2,2.7c-0.6,0.5-1.5,1.8-2.7,4c-0.1,0.3-0.2,0.5-0.3,0.6c-3.9-1-7.4-2.3-10.5-4c-3.2,1.9-6.9,3.3-11.3,4.3
		c-0.7-1.6-1.6-3.1-2.8-4.5c3.7-0.8,6.8-1.8,9.5-3.1c-2-1.8-3.7-3.9-5.2-6.2l3.1-2.1h-4.3V15.9z M145.6,9.8c1.1,0,2.3,0,3.6,0
		c-0.3,1.2-0.6,2.6-0.9,4.3c-2,0-3.7,0-5.2,0c-2.7,0-4-1.3-4-3.9V6.8h-6.4c0,3.3-1.7,6.3-5,9.1c-1.4-1.3-2.8-2.5-4.3-3.7
		c3-2,4.5-4.3,4.5-6.8V2.5h16.2v5.6C143.9,9.2,144.5,9.8,145.6,9.8z M135.8,25.8c2.2-1.6,3.9-3.5,5-5.6h-10.5
		C131.8,22.4,133.7,24.3,135.8,25.8z"/>
	<path fill="#FF6600" d="M163.5,28.8v6.8h-5V20.5c-1.6,1.5-3.3,3-5,4.5c-0.1-0.6-0.3-1.4-0.6-2.5c-0.2-1.3-0.4-2.3-0.6-3
		c3.5-3,6.3-6.3,8.5-10.1h-8.2V4.9h10.4c0.6-1.2,1.1-2.5,1.5-3.9l5.6,0.9c-0.2,0.4-0.5,1-0.9,1.8c-0.2,0.6-0.3,1-0.4,1.2H187v4.5
		h-20.5c-0.4,0.9-0.9,1.7-1.5,2.5h18.7V31c0,3.1-1.7,4.6-5,4.6c-0.7,0-1.7,0-3.1,0.1c-1.5,0-2.6,0-3.3,0c-0.3-1.7-0.7-3.2-1.3-4.6
		c2.1,0.1,4,0.1,5.6,0.1c1.3,0,1.9-0.6,1.9-1.9v-0.6H163.5z M178.5,18.7V16h-15v2.7H178.5z M163.5,22.4v2.7h15v-2.7H163.5z"/>
	<path fill="#FF6600" d="M207,1.2l4.5,1.2c-0.5,1.6-1,3.2-1.6,4.9h5.5c-0.4-0.7-1-1.7-1.8-3c-0.5-0.7-0.8-1.2-1-1.6l3.9-1.8
		c1.3,1.8,2.4,3.5,3.4,5l-2.4,1.3h7.4V11h-6.2v3.9h5.6v3.7h-5.6v3.7h5.6V26h-5.6v3.9h6.4v3.4h-16.2v2.4H204V18.7
		c-0.5,0.7-1,1.4-1.6,2.2c-0.4-1.5-0.9-2.7-1.5-3.7c-0.3,1.3-0.7,2.6-1.3,4c1.4,2.4,2.7,4.8,3.9,7.3l-3.9,2.7
		c-0.2-0.3-0.4-0.8-0.7-1.5c-0.2-0.5-0.7-1.6-1.6-3.3c-1.3,2.4-2.9,4.6-4.9,6.7c-0.2-0.4-0.5-0.9-1-1.6c-0.6-1.2-1.1-2-1.5-2.5
		c2-2.4,3.7-4.8,5-7.4c-1.5-2.9-1.6-3.2-0.4-0.9c-1.2-2.3-2.7-5-4.5-8.3l3.7-1.8c0.4,0.6,0.9,1.5,1.6,2.8c0.8,1.3,1.3,2.3,1.6,3
		c0.7-2.4,1.2-4.9,1.5-7.6h-7.9V4.3H203c-0.2,3.4-0.6,6.6-1.2,9.8C204.1,10.2,205.8,5.9,207,1.2z M208.8,11v3.9h5V11H208.8z
		 M208.8,18.5v3.7h5v-3.7H208.8z M208.8,26v3.9h5V26H208.8z"/>
	<path fill="#FF6600" d="M233.9,1.2l4.3,1c-0.6,2.4-1.3,4.8-2.2,7.1v26.4h-4.2V19.4c-0.7,1.3-1.4,2.6-2.2,4
		c-0.1-0.6-0.2-1.5-0.4-2.7c-0.4-1.7-0.6-2.9-0.7-3.6C230.9,11.9,232.7,6.5,233.9,1.2z M237.3,11.9V7.6h4V1.2h4.9v6.4h3.6v4.2
		c1.3-2.9,2.5-6.4,3.7-10.7l4.6,0.9c-0.2,0.5-0.4,1.3-0.7,2.4c-0.4,1.3-0.7,2.2-0.9,2.8h6.8v4.3h-1.3c-0.3,5.7-1.4,10.7-3.4,15
		c1.4,1.8,3,3.3,4.9,4.6c-0.5,0.8-1.1,2-1.8,3.6c-0.2,0.5-0.3,0.9-0.4,1.2c-2-1.6-3.7-3.2-5.2-4.9c-1.9,2.2-3.7,3.9-5.3,5
		c-0.1-0.1-0.2-0.3-0.3-0.6c-0.8-1.3-1.5-2.4-2.2-3.4h-5.8v1.5H238V16.9h3.3v-5H237.3z M242.3,28h2.8v-7h-2.8V28z M251.2,17.2
		c-0.3,0.4-0.6,0.8-1,1.3c-0.3-1.2-1-2.6-2.1-4.2c0.6-0.8,1.1-1.6,1.5-2.5h-3.4v5h3.3v13.7c1.7-1.2,3-2.6,4-4.3
		C252.3,23.5,251.5,20.5,251.2,17.2z M256,21.2c1-3,1.5-6.2,1.6-9.8h-3.1v0.1c-0.1,0-0.1,0.1-0.1,0.1
		C254.6,15.3,255.1,18.4,256,21.2z"/>
	<path fill="#FF6600" d="M272.8,1.3l5.2,0.9c-0.3,0.9-0.7,2.1-1.2,3.7c-0.1,0.5-0.2,0.8-0.3,1h5.9v6.8c1.9-3.2,3.7-7.3,5.5-12.5
		l4.8,1.2c-0.5,1.6-1,3.1-1.6,4.6h9.2c-0.1,6.8-0.2,14.2-0.4,22.3c-0.3,3.7-2.1,5.6-5.5,5.8c-1.7,0.1-4,0.1-6.8,0.1
		c-0.3-2-0.7-3.7-1.3-5c1.8,0.2,3.6,0.3,5.5,0.3c2.1,0,3.2-0.8,3.3-2.5c0-1.5,0-3.5,0.1-6.1c0.1-3.4,0.1-6.7,0.1-10.1h-6.1
		c-0.2,0.4-0.5,1-1,1.9c-0.6,1.3-1.1,2.2-1.5,2.8c-1.1-0.8-2.5-1.5-4.2-2.2v20.8h-4.9v-2.5h-5v2.8h-4.9V7h3.7
		C272,4.6,272.5,2.7,272.8,1.3z M277.5,17.6v-6.1h-5v6.1H277.5z M272.5,22.2v6.1h5v-6.1H272.5z M283.9,18.8l4-2.8
		c1.8,2,3.6,4.5,5.5,7.4l-4.5,3C287.2,23.4,285.5,20.9,283.9,18.8z"/>
	<path fill="#FF6600" d="M304.5,12.2V7.7h3.6V1.3h4.8v6.4h2.2v4.5h-2.2v5c0.2-0.1,0.6-0.2,1.2-0.4c0.5-0.1,0.8-0.2,1-0.3
		c-0.1,2-0.1,3.6-0.1,4.8c-0.8,0.3-1.5,0.5-2.1,0.7v9.6c0,2.5-1.1,3.8-3.4,3.9c-0.4,0-1,0-1.9,0.1c-0.9,0-1.6,0-2.1,0
		c-0.2-1.5-0.5-2.9-1-4.3c0.8,0,1.6,0,2.5,0s1.3-0.5,1.2-1.6v-6.1c-1.2,0.3-2.4,0.7-3.7,1.2l-0.3-5c0.4-0.1,1-0.2,1.8-0.4
		c1-0.3,1.7-0.5,2.2-0.6v-6.5H304.5z M325.5,3L329,1c0.2,0.3,0.5,0.7,0.9,1.3c0.8,1,1.6,2.2,2.5,3.7l-2.5,1.2h8.6v3.9h-6.7V15h6.4
		v3.6h-6.4v3.9h6.4V26h-6.4v3.9h7.1v3.4h-17.2v2.5h-4.6V17.2c-0.3,0.3-0.5,0.7-0.7,1.2c-0.7-1.7-1.4-3.2-2.2-4.5
		c3-4.4,5-8.7,6.1-12.9l4.6,1.2c-0.2,0.4-0.4,1-0.7,1.8c-0.6,1.5-1.1,2.6-1.5,3.3h5.3c-0.1-0.2-0.2-0.5-0.4-0.9
		C327.1,5.6,326.4,4.4,325.5,3z M321.8,11.1V15h5.5v-3.9H321.8z M321.8,18.5v3.9h5.5v-3.9H321.8z M321.8,26v3.9h5.5V26H321.8z"/>
	<path fill="#FF6600" d="M351,10.1v7.1c0.1,8.4-1.5,14.7-4.8,18.9c0-0.2-1.3-1.4-4-3.7c2.7-3.1,3.9-8.3,3.7-15.7V5.5h12.9
		c-0.1-0.2-0.2-0.5-0.4-1c-0.4-1-0.7-1.7-0.9-2.1l5.6-1.3c0.2,0.5,0.5,1.2,0.9,2.2c0.3,1,0.5,1.7,0.7,2.2h12v4.6H351z"/>
</g>
</svg>
