<?xml version="1.0" encoding="utf-8"?>
<!-- Generator: Adobe Illustrator 17.1.0, SVG Export Plug-In . SVG Version: 6.00 Build 0)  -->
<!DOCTYPE svg PUBLIC "-//W3C//DTD SVG 1.1//EN" "http://www.w3.org/Graphics/SVG/1.1/DTD/svg11.dtd">
<svg version="1.1" id="图层_1" xmlns="http://www.w3.org/2000/svg" xmlns:xlink="http://www.w3.org/1999/xlink" x="0px" y="0px"
	 viewBox="0 0 377.9 38.2" enable-background="new 0 0 377.9 38.2" xml:space="preserve">
<g>
	<path fill="#FF6600" d="M14.2,24c0,0.1,0.1,0.6,0.3,1.5c0.2,0.8,0.3,1.4,0.4,1.8c-1.3,0.9-3.1,2.2-5.5,4c-0.5,0.2-0.8,0.4-1,0.6
		c-0.8,0.7-1.4,1.4-1.9,2.1l-2.4-2.4c1-0.6,1.4-1.8,1.3-3.6V15.7H0.3V13h8.2v15.6c0.2-0.1,0.5-0.3,0.9-0.7C11.4,26.2,13,25,14.2,24z
		 M6.1,1.6c0.8,0.7,2,1.9,3.7,3.6c1.2,1.1,2,1.8,2.4,2.2L9.8,9.6c-0.4-0.4-1-1.1-1.9-2.1c-1.8-1.8-3.1-3.1-4-4L6.1,1.6z M21.2,1h3
		v10.5h10.1v2.7H24.2v16.9H36v2.4H12.1v-2.4h9.1V1z"/>
	<path fill="#FF6600" d="M38.3,32.9c9.1-3.8,14.3-9,15.7-15.7H38.7v-2.7h15.7c0-0.3,0-0.6,0-0.9c0-2.1,0-4.8,0-8H40.8V2.9h31v2.7
		H57.7c0,1-0.1,2.5-0.1,4.6c0,2,0,3.4,0,4.3h16.2v2.7H58c2.5,7.8,7.8,12.8,16,15c-0.6,1-1.2,2-1.9,3.1c-8.4-3.3-13.7-8.4-15.9-15.4
		c-1.9,6.5-7.2,11.8-15.9,15.9C39.8,34.8,39.1,33.9,38.3,32.9z"/>
	<path fill="#FF6600" d="M95.3,12.8c5.4,2.9,10.2,5.4,14.4,7.7l-1.9,2.8c-5.3-3.3-9.9-5.9-13.7-7.9v19.7h-3V6.2H76.7V3.3h35v2.8
		H94.1v8.6L95.3,12.8z"/>
	<path fill="#FF6600" d="M116.2,10.3c1.2,0.9,3.3,2.5,6.2,4.9l-1.9,2.4c-3-2.6-5-4.3-6.1-5.2L116.2,10.3z M119.6,20.6
		c1,0.4,1.9,0.8,2.8,1.2c-1.5,4.5-3,9-4.6,13.7l-3-1C116.4,30.4,118,25.8,119.6,20.6z M117.5,1.1c2.6,1.9,4.7,3.6,6.2,5.2l-2.1,2.1
		c-0.7-0.7-2-1.9-3.9-3.6c-1-0.9-1.7-1.5-2.1-1.8L117.5,1.1z M126.3,18.9v-2.4h19.9v2.4c-1.7,4.1-4.1,7.4-7.1,9.9
		c3.2,1.8,6.9,3,11.1,3.7c-0.8,1.2-1.5,2.2-2.2,3c-4.6-1.5-8.3-3.1-11.3-4.9c-2.7,1.6-6.8,3.3-12.3,5.2c-0.6-0.8-1.2-1.6-1.9-2.5
		c5.2-1.4,9.3-2.9,12-4.6c-2.9-2.5-5-5.7-6.4-9.8H126.3z M141.7,5h-9.4v1c0.3,4.4-1.7,7.6-6.1,9.8c-0.1-0.1-0.3-0.3-0.6-0.7
		c-0.8-0.8-1.3-1.3-1.6-1.5c4-1.7,5.8-4.2,5.5-7.6V2.3h15v7.3c0,1.1,0.5,1.6,1.6,1.6h4c-0.2,1-0.3,1.9-0.3,2.7h-4.5
		c-2.6,0.1-3.8-1.1-3.7-3.7V5z M143.1,18.9h-12.2c1.3,3.3,3.3,6,5.9,8.2C139.4,25.1,141.5,22.4,143.1,18.9z"/>
	<path fill="#FF6600" d="M162.5,35.5h-2.8V17.4c-1.8,2-3.7,3.9-5.8,5.6c-0.5-0.8-1-1.7-1.6-2.7c4.9-4.2,8.8-8.5,11.4-12.9h-10.5V5
		h12c0.8-1.5,1.5-3,2.1-4.6l3,0.6c-0.2,0.6-0.5,1.4-1,2.4c-0.4,0.7-0.7,1.2-0.9,1.6h19.6v2.5h-21.1c-0.4,0.9-1.1,2.1-2.2,3.7
		c-0.2,0.3-0.3,0.5-0.4,0.6h19.3v19.1c0.1,2.7-1.3,4.1-4.3,4.2c-1.2,0.1-3.1,0.1-5.8,0c-0.1-0.8-0.3-1.8-0.6-3
		c2.4,0.2,4.2,0.3,5.5,0.3c1.7,0,2.5-0.7,2.4-2.1v-2.7h-18.1V35.5z M162.5,14.2v4.5h18.1v-4.5H162.5z M162.5,21v4.3h18.1V21H162.5z"
		/>
	<path fill="#FF6600" d="M193.5,9.7c0.5,0.9,1.2,2.3,2.1,4.2c0.9,1.8,1.5,3.2,1.9,4.2c1.1-3.6,1.7-7.3,1.8-11.1h-7.9V4.4h10.7v2.4
		c-0.8,6.4-1.8,11.3-3,14.7c0.8,1.8,2.1,4.5,3.9,8.2c-0.2-0.3-0.1,0,0.3,0.7l-2.5,1c-0.3-0.7-0.8-1.8-1.6-3.4
		c-0.6-1.4-1-2.4-1.3-3.1c-1.5,3.4-3.4,6.6-5.8,9.6c-0.5-0.9-1-1.7-1.6-2.5c2.5-3.4,4.5-6.8,5.9-10.4c-1-2.2-2.4-5.2-4.3-9.1
		c-0.3-0.8-0.5-1.3-0.7-1.6L193.5,9.7z M213.3,1.8l2.2-1.3c0.2,0.2,0.4,0.5,0.7,1c0.8,0.9,1.6,2.1,2.5,3.7l-1.9,1.3h8.2V9h-7.6v5.6
		h7V17h-7v5.6h7V25h-7v5.6h8.3v2.2h-17.7v2.7h-2.7V13.7c-0.9,1.6-1.8,3.2-2.8,4.7c-0.4-0.9-0.8-1.7-1.3-2.5
		c3.4-5.1,5.6-10.2,6.8-15.1l2.7,0.7c-0.2,0.7-0.6,1.7-1.2,3c-0.3,0.9-0.5,1.6-0.7,2.1h7.6c-0.3-0.6-0.9-1.5-1.8-2.7
		C214,3,213.6,2.3,213.3,1.8z M208.1,9v5.6h6.7V9H208.1z M208.1,17v5.6h6.7V17H208.1z M208.1,25v5.6h6.7V25H208.1z"/>
	<path fill="#FF6600" d="M228.1,17.6c3.1-5,5.3-10.7,6.8-17.1l2.7,0.7c-0.8,2.7-1.6,5.3-2.5,7.9v26.4h-2.4V14.8
		c-0.1,0.2-0.2,0.5-0.4,0.9c-1.3,2.2-2.3,3.8-3.1,4.9C228.8,19.7,228.4,18.7,228.1,17.6z M242.4,0.8h2.7v7h5.8v2.4H245v7.3h4.2v13.1
		h-8.5v2.4h-2.7V17.4h4.3v-7.3h-5.6V7.8h5.6V0.8z M240.7,19.8v8.3h5.9v-8.3H240.7z M254.2,0.5l2.5,0.4c-0.4,2.3-0.9,4.4-1.5,6.4h8.6
		v2.5H262c-0.6,6.8-1.9,12.2-3.9,16.2c1.7,2.8,3.8,5,6.2,6.7c-0.6,0.8-1.2,1.6-1.8,2.5c-2.6-2.4-4.6-4.6-5.9-6.5
		c-1.3,2-3.5,4.4-6.7,7.1c-0.3-0.5-0.9-1.2-1.8-2.1c3.3-2.8,5.6-5.4,7-7.9c-1.5-3-2.4-6.6-2.8-10.8c-0.6,1.2-1.2,2.3-1.8,3.3
		c-0.5-0.7-1-1.4-1.6-2.2C251.5,11.5,253.3,6.4,254.2,0.5z M256.8,23.1c1.4-3.5,2.3-7.9,2.7-13.2h-4.9c-0.2,0.3-0.3,0.5-0.3,0.7
		C254.6,15.9,255.5,20.1,256.8,23.1z"/>
	<path fill="#FF6600" d="M267.9,6.4h3.6c1-2.3,1.7-4.3,2.2-5.9l3.1,0.9c-0.3,0.6-0.7,1.5-1.3,2.8c-0.5,1-0.8,1.7-1,2.2h7.3v28.4H279
		V32h-8.3v3.1h-2.8V6.4z M270.7,9.1v8.8h8.3V9.1H270.7z M270.7,20.6v9.1h8.3v-9.1H270.7z M282.3,13.7c2.2-3.7,4.1-8.1,5.6-13.2
		l3.1,0.7c-0.1,0.3-0.2,0.7-0.4,1.3c-0.3,0.8-0.8,2.1-1.5,3.9h11.6c-0.3,12.2-0.5,19.6-0.6,22.3c-0.1,4.4-2.5,6.4-7.3,6.2
		c-1,0-2.2,0-3.7,0.1c-0.9,0-1.5,0-1.8,0c-0.2-1.2-0.4-2.2-0.6-3.1c0.3,0,0.8,0,1.6,0c1.9,0.1,3.4,0.1,4.6,0.1
		c2.8,0.2,4.2-1.1,4.3-4c0.2-3,0.3-9.3,0.4-19h-9.6c-0.2,0.3-0.4,0.8-0.7,1.5c-1.1,2.3-1.9,3.9-2.5,4.8
		C284.1,14.9,283.3,14.3,282.3,13.7z M285.4,16.2l2.2-1.6c2.8,3.4,4.9,6.1,6.4,8.2l-2.7,1.9C289.6,22,287.6,19.2,285.4,16.2z"/>
	<path fill="#FF6600" d="M304.3,19.8c1.7-0.3,3.3-0.7,4.8-1.2V9.9h-4.5V7.3h4.5V0.5h2.7v6.8h4v2.5h-4V18c0.4-0.1,1-0.2,1.8-0.4
		c1.1-0.3,1.9-0.5,2.4-0.7c0,0.2,0,0.6,0,1.2c0.1,0.7,0.1,1.2,0.1,1.5c-0.5,0.2-1.3,0.4-2.4,0.6c-0.9,0.3-1.5,0.5-1.9,0.6v10.8
		c0.1,2.6-1,3.8-3.4,3.7c-0.7,0.1-1.7,0.1-3.1,0.1c0-0.5-0.1-1.2-0.3-2.2c-0.1-0.3-0.1-0.5-0.1-0.7c0.2,0,0.6,0,1.3,0
		c0.7,0.1,1.2,0.1,1.5,0.1c1.1,0,1.6-0.4,1.5-1.2v-9.9c-1.5,0.4-3,0.8-4.5,1.3L304.3,19.8z M313.9,13.7c3.4-4.1,6-8.5,7.9-13.4
		l2.5,0.9c-1,2-1.9,3.9-2.8,5.6h18v2.4h-8.9v5.6h8.5v2.4h-8.5v5.6h8.5v2.4h-8.5v5.6h9.5V33h-19.7v2.7h-2.7V13
		c-0.2,0.3-0.5,0.7-0.9,1.3c-0.5,0.6-0.8,1-1,1.3C315.1,15.1,314.5,14.4,313.9,13.7z M320.3,9.3v5.6h7.6V9.3H320.3z M320.3,17.3v5.6
		h7.6v-5.6H320.3z M320.3,25.3v5.6h7.6v-5.6H320.3z M327,1.8l2.2-1.3c1.2,1.5,2.3,3,3.3,4.6l-2.5,1.5C329.1,4.9,328.1,3.3,327,1.8z"
		/>
	<path fill="#FF6600" d="M359.2,1.6l2.8-1.3c0.2,0.5,0.6,1.2,1.2,2.1c0.8,1.4,1.4,2.4,1.8,3.1L363,6.3h14.5v2.8h-27v6.4
		c0.3,8.5-1.6,15.1-5.8,19.9c-0.8-0.7-1.6-1.4-2.5-2.1c2.1-2.4,3.5-4.8,4.2-7.3c0.7-2.4,1-5.9,1-10.7V6.3h14.4
		C361,4.5,360.1,2.9,359.2,1.6z"/>
</g>
</svg>
