<?xml version="1.0" encoding="utf-8"?>
<!-- Generator: Adobe Illustrator 17.1.0, SVG Export Plug-In . SVG Version: 6.00 Build 0)  -->
<!DOCTYPE svg PUBLIC "-//W3C//DTD SVG 1.1//EN" "http://www.w3.org/Graphics/SVG/1.1/DTD/svg11.dtd">
<svg version="1.1" id="图层_1" xmlns="http://www.w3.org/2000/svg" xmlns:xlink="http://www.w3.org/1999/xlink" x="0px" y="0px"
	 viewBox="0 0 703.5 33.8" enable-background="new 0 0 703.5 33.8" xml:space="preserve">
<g>
	<path fill="#FF6600" d="M0.2,5.4V0.7h21.1v4.8h-7.7v21H8v-21H0.2z"/>
	<path fill="#FF6600" d="M19.8,13.1c0.5-1.2,1.1-2.2,1.9-3.1c0.8-0.9,1.8-1.5,3-2s2.5-0.7,4-0.7c1.5,0,2.8,0.2,4,0.7s2.2,1.1,3,2
		c0.8,0.9,1.5,1.9,1.9,3.1c0.5,1.2,0.7,2.6,0.7,4c0,1.5-0.2,2.8-0.7,4c-0.5,1.2-1.1,2.2-1.9,3.1c-0.8,0.9-1.9,1.5-3,2
		s-2.5,0.7-4,0.7c-1.5,0-2.8-0.2-4-0.7s-2.2-1.1-3-2c-0.8-0.9-1.5-1.9-1.9-3.1s-0.7-2.5-0.7-4C19.1,15.6,19.4,14.3,19.8,13.1z
		 M24.5,19.3c0.1,0.7,0.4,1.3,0.7,1.9c0.3,0.6,0.8,1,1.4,1.4s1.3,0.5,2.2,0.5c0.9,0,1.6-0.2,2.2-0.5c0.6-0.3,1.1-0.8,1.4-1.4
		c0.3-0.6,0.6-1.2,0.7-1.9c0.1-0.7,0.2-1.4,0.2-2.2c0-0.7-0.1-1.5-0.2-2.2c-0.1-0.7-0.4-1.4-0.7-1.9s-0.8-1-1.4-1.4
		c-0.6-0.3-1.3-0.5-2.2-0.5c-0.9,0-1.6,0.2-2.2,0.5c-0.6,0.3-1,0.8-1.4,1.4s-0.6,1.2-0.7,1.9c-0.1,0.7-0.2,1.5-0.2,2.2
		C24.3,17.8,24.3,18.6,24.5,19.3z"/>
	<path fill="#FF6600" d="M56.7,7.8v2.5h0.1c0.7-1,1.5-1.7,2.4-2.2c0.9-0.5,2-0.8,3.3-0.8c1.2,0,2.2,0.2,3.2,0.7
		c1,0.5,1.7,1.3,2.2,2.4c0.6-0.8,1.3-1.5,2.2-2.2c0.9-0.6,2.1-0.9,3.4-0.9c1,0,1.9,0.1,2.7,0.4c0.8,0.2,1.6,0.6,2.2,1.2
		c0.6,0.5,1.1,1.2,1.4,2.1c0.3,0.9,0.5,1.9,0.5,3.1v12.5h-5.1V15.8c0-0.6,0-1.2-0.1-1.8c0-0.6-0.2-1-0.4-1.4s-0.5-0.7-1-1
		s-1-0.4-1.7-0.4s-1.3,0.1-1.7,0.4c-0.4,0.3-0.8,0.6-1,1.1s-0.4,0.9-0.5,1.5c-0.1,0.6-0.1,1.1-0.1,1.7v10.4h-5.1V16
		c0-0.6,0-1.1,0-1.6c0-0.5-0.1-1-0.3-1.5c-0.2-0.5-0.5-0.8-0.9-1.1c-0.4-0.3-1-0.4-1.9-0.4c-0.2,0-0.6,0.1-1,0.2
		c-0.4,0.1-0.8,0.3-1.2,0.6s-0.7,0.7-1,1.3S57,14.7,57,15.6v10.8h-5.1V7.8H56.7z"/>
	<path fill="#FF6600" d="M85,10.5c0.5-0.8,1.2-1.4,2-1.9c0.8-0.5,1.7-0.8,2.8-1c1-0.2,2-0.3,3.1-0.3c0.9,0,1.9,0.1,2.8,0.2
		c1,0.1,1.8,0.4,2.6,0.8s1.4,0.9,1.9,1.6c0.5,0.7,0.8,1.6,0.8,2.7v9.7c0,0.8,0,1.6,0.1,2.4c0.1,0.8,0.3,1.3,0.5,1.7h-5.2
		c-0.1-0.3-0.2-0.6-0.2-0.9c-0.1-0.3-0.1-0.6-0.1-0.9c-0.8,0.8-1.8,1.4-2.9,1.8c-1.1,0.3-2.2,0.5-3.4,0.5c-0.9,0-1.7-0.1-2.5-0.3
		c-0.8-0.2-1.4-0.6-2-1c-0.6-0.5-1-1-1.4-1.7c-0.3-0.7-0.5-1.5-0.5-2.5c0-1.1,0.2-1.9,0.6-2.6c0.4-0.7,0.9-1.2,1.4-1.6
		c0.6-0.4,1.3-0.7,2-0.9c0.8-0.2,1.5-0.4,2.3-0.5c0.8-0.1,1.5-0.2,2.3-0.3c0.7-0.1,1.4-0.2,2-0.3c0.6-0.1,1-0.4,1.4-0.6
		c0.3-0.3,0.5-0.7,0.5-1.2c0-0.6-0.1-1-0.3-1.3c-0.2-0.3-0.4-0.6-0.7-0.8s-0.6-0.3-1-0.4c-0.4-0.1-0.8-0.1-1.3-0.1
		c-1,0-1.8,0.2-2.4,0.6c-0.6,0.4-0.9,1.2-1,2.2h-5.1C84.2,12.3,84.5,11.3,85,10.5z M95.1,17.7c-0.3,0.1-0.7,0.2-1,0.3
		c-0.4,0.1-0.8,0.1-1.2,0.2c-0.4,0-0.8,0.1-1.2,0.2c-0.4,0.1-0.8,0.2-1.1,0.3c-0.4,0.1-0.7,0.3-1,0.5c-0.3,0.2-0.5,0.5-0.7,0.8
		c-0.2,0.3-0.3,0.7-0.3,1.2c0,0.5,0.1,0.8,0.3,1.2s0.4,0.6,0.7,0.7c0.3,0.2,0.6,0.3,1,0.4c0.4,0.1,0.8,0.1,1.2,0.1
		c1,0,1.8-0.2,2.3-0.5c0.6-0.3,1-0.7,1.2-1.2c0.3-0.5,0.4-0.9,0.5-1.4c0.1-0.5,0.1-0.9,0.1-1.2v-1.9C95.7,17.5,95.4,17.6,95.1,17.7z
		"/>
	<path fill="#FF6600" d="M110.6,0.7v13.8l6.4-6.7h6l-7,6.8l7.8,11.8h-6.2l-5.1-8.3l-2,1.9v6.4h-5.1V0.7H110.6z"/>
	<path fill="#FF6600" d="M131.1,21.9c0.8,0.7,1.9,1.1,3.3,1.1c1,0,1.9-0.3,2.7-0.8c0.7-0.5,1.2-1.1,1.4-1.6h4.5
		c-0.7,2.2-1.8,3.8-3.3,4.8c-1.5,1-3.3,1.4-5.4,1.4c-1.5,0-2.8-0.2-4-0.7s-2.2-1.1-3-2c-0.8-0.9-1.4-1.9-1.9-3.1
		c-0.4-1.2-0.7-2.5-0.7-4c0-1.4,0.2-2.7,0.7-3.9s1.1-2.2,1.9-3.1s1.8-1.6,3-2.1s2.5-0.8,3.9-0.8c1.6,0,3,0.3,4.1,0.9
		c1.2,0.6,2.1,1.4,2.9,2.5c0.8,1,1.3,2.2,1.6,3.5c0.3,1.3,0.5,2.7,0.4,4.1h-13.4C130,20,130.4,21.2,131.1,21.9z M136.9,12.1
		c-0.6-0.7-1.5-1-2.8-1c-0.8,0-1.5,0.1-2,0.4c-0.5,0.3-1,0.6-1.3,1c-0.3,0.4-0.6,0.8-0.7,1.3c-0.1,0.5-0.2,0.9-0.2,1.2h8.3
		C138,13.8,137.5,12.8,136.9,12.1z"/>
	<path fill="#FF6600" d="M156.5,4.9V0.7h5.1v4.2H156.5z M161.6,7.8v18.6h-5.1V7.8H161.6z"/>
	<path fill="#FF6600" d="M175.9,7.8v3.4h-3.7v9.2c0,0.9,0.1,1.4,0.4,1.7c0.3,0.3,0.9,0.4,1.7,0.4c0.3,0,0.6,0,0.8,0
		c0.3,0,0.5-0.1,0.8-0.1v4c-0.4,0.1-0.9,0.1-1.4,0.1c-0.5,0-1,0-1.5,0c-0.8,0-1.5-0.1-2.2-0.2s-1.3-0.3-1.9-0.6
		c-0.5-0.3-1-0.8-1.3-1.3c-0.3-0.6-0.5-1.3-0.5-2.3v-11h-3.1V7.8h3.1V2.2h5.1v5.6H175.9z"/>
	<path fill="#FF6600" d="M193.8,21.9c0.8,0.7,1.9,1.1,3.3,1.1c1,0,1.9-0.3,2.7-0.8c0.7-0.5,1.2-1.1,1.4-1.6h4.5
		c-0.7,2.2-1.8,3.8-3.3,4.8c-1.5,1-3.3,1.4-5.4,1.4c-1.5,0-2.8-0.2-4-0.7s-2.2-1.1-3-2c-0.8-0.9-1.4-1.9-1.9-3.1
		c-0.4-1.2-0.7-2.5-0.7-4c0-1.4,0.2-2.7,0.7-3.9s1.1-2.2,1.9-3.1s1.8-1.6,3-2.1s2.5-0.8,3.9-0.8c1.6,0,3,0.3,4.1,0.9
		c1.2,0.6,2.1,1.4,2.9,2.5c0.8,1,1.3,2.2,1.6,3.5c0.3,1.3,0.5,2.7,0.4,4.1h-13.4C192.6,20,193,21.2,193.8,21.9z M199.6,12.1
		c-0.6-0.7-1.5-1-2.8-1c-0.8,0-1.5,0.1-2,0.4c-0.5,0.3-1,0.6-1.3,1c-0.3,0.4-0.6,0.8-0.7,1.3c-0.1,0.5-0.2,0.9-0.2,1.2h8.3
		C200.6,13.8,200.2,12.8,199.6,12.1z"/>
	<path fill="#FF6600" d="M209.7,10.5c0.5-0.8,1.2-1.4,2-1.9c0.8-0.5,1.7-0.8,2.8-1c1-0.2,2-0.3,3.1-0.3c0.9,0,1.9,0.1,2.8,0.2
		c1,0.1,1.8,0.4,2.6,0.8s1.4,0.9,1.9,1.6c0.5,0.7,0.8,1.6,0.8,2.7v9.7c0,0.8,0,1.6,0.1,2.4c0.1,0.8,0.3,1.3,0.5,1.7h-5.2
		c-0.1-0.3-0.2-0.6-0.2-0.9c-0.1-0.3-0.1-0.6-0.1-0.9c-0.8,0.8-1.8,1.4-2.9,1.8c-1.1,0.3-2.2,0.5-3.4,0.5c-0.9,0-1.7-0.1-2.5-0.3
		c-0.8-0.2-1.4-0.6-2-1c-0.6-0.5-1-1-1.4-1.7c-0.3-0.7-0.5-1.5-0.5-2.5c0-1.1,0.2-1.9,0.6-2.6c0.4-0.7,0.9-1.2,1.4-1.6
		c0.6-0.4,1.3-0.7,2-0.9c0.8-0.2,1.5-0.4,2.3-0.5c0.8-0.1,1.5-0.2,2.3-0.3c0.7-0.1,1.4-0.2,2-0.3c0.6-0.1,1-0.4,1.4-0.6
		c0.3-0.3,0.5-0.7,0.5-1.2c0-0.6-0.1-1-0.3-1.3c-0.2-0.3-0.4-0.6-0.7-0.8s-0.6-0.3-1-0.4c-0.4-0.1-0.8-0.1-1.3-0.1
		c-1,0-1.8,0.2-2.4,0.6c-0.6,0.4-0.9,1.2-1,2.2h-5.1C208.8,12.3,209.1,11.3,209.7,10.5z M219.8,17.7c-0.3,0.1-0.7,0.2-1,0.3
		c-0.4,0.1-0.8,0.1-1.2,0.2c-0.4,0-0.8,0.1-1.2,0.2c-0.4,0.1-0.8,0.2-1.1,0.3c-0.4,0.1-0.7,0.3-1,0.5c-0.3,0.2-0.5,0.5-0.7,0.8
		c-0.2,0.3-0.3,0.7-0.3,1.2c0,0.5,0.1,0.8,0.3,1.2s0.4,0.6,0.7,0.7c0.3,0.2,0.6,0.3,1,0.4c0.4,0.1,0.8,0.1,1.2,0.1
		c1,0,1.8-0.2,2.3-0.5c0.6-0.3,1-0.7,1.2-1.2c0.3-0.5,0.4-0.9,0.5-1.4c0.1-0.5,0.1-0.9,0.1-1.2v-1.9
		C220.4,17.5,220.1,17.6,219.8,17.7z"/>
	<path fill="#FF6600" d="M233.9,21.8c0.2,0.4,0.5,0.7,0.9,1s0.8,0.4,1.2,0.6s1,0.2,1.5,0.2c0.4,0,0.7,0,1.1-0.1
		c0.4-0.1,0.8-0.2,1.1-0.4c0.3-0.2,0.6-0.4,0.8-0.7c0.2-0.3,0.3-0.7,0.3-1.1c0-0.8-0.5-1.3-1.5-1.7c-1-0.4-2.4-0.8-4.3-1.2
		c-0.7-0.2-1.5-0.4-2.2-0.6c-0.7-0.2-1.3-0.5-1.9-0.9c-0.6-0.4-1-0.8-1.3-1.4c-0.3-0.6-0.5-1.3-0.5-2.1c0-1.2,0.2-2.2,0.7-3
		c0.5-0.8,1.1-1.4,1.9-1.8c0.8-0.4,1.6-0.8,2.6-0.9c1-0.2,1.9-0.3,3-0.3s2,0.1,2.9,0.3c0.9,0.2,1.8,0.5,2.5,1
		c0.7,0.5,1.4,1.1,1.9,1.8c0.5,0.8,0.8,1.7,0.9,2.9h-4.9c-0.1-1-0.4-1.7-1.1-2s-1.5-0.5-2.4-0.5c-0.3,0-0.6,0-0.9,0.1
		c-0.3,0-0.6,0.1-0.9,0.2c-0.3,0.1-0.5,0.3-0.7,0.5c-0.2,0.2-0.3,0.5-0.3,0.9c0,0.5,0.2,0.8,0.5,1.1c0.3,0.3,0.8,0.5,1.3,0.7
		c0.5,0.2,1.2,0.3,1.9,0.5c0.7,0.1,1.4,0.3,2.1,0.5c0.7,0.2,1.5,0.4,2.2,0.6c0.7,0.2,1.3,0.6,1.9,1c0.6,0.4,1,0.9,1.3,1.5
		c0.3,0.6,0.5,1.3,0.5,2.2c0,1.2-0.2,2.2-0.7,3.1c-0.5,0.8-1.1,1.5-1.9,2c-0.8,0.5-1.7,0.9-2.7,1.1c-1,0.2-2.1,0.3-3.1,0.3
		c-1.1,0-2.1-0.1-3.2-0.3c-1-0.2-2-0.6-2.8-1.1c-0.8-0.5-1.5-1.2-2-2c-0.5-0.8-0.8-1.9-0.8-3.1h4.9
		C233.6,20.9,233.7,21.4,233.9,21.8z"/>
	<path fill="#FF6600" d="M255.8,31.9c-1,0.6-2.4,1-4.1,1c-0.5,0-1,0-1.6-0.1c-0.5,0-1-0.1-1.6-0.1v-4.2c0.5,0,1,0.1,1.5,0.1
		c0.5,0,1,0.1,1.5,0c0.7-0.1,1.2-0.3,1.5-0.8c0.3-0.5,0.5-1,0.5-1.5c0-0.4-0.1-0.8-0.2-1.2l-6.5-17.5h5.4l4.2,12.7h0.1l4.1-12.7h5.3
		l-7.8,20.9C257.6,30.2,256.8,31.3,255.8,31.9z"/>
	<path fill="#FF6600" d="M287.9,7.8v3.4h-3.7v9.2c0,0.9,0.1,1.4,0.4,1.7c0.3,0.3,0.9,0.4,1.7,0.4c0.3,0,0.6,0,0.8,0
		c0.3,0,0.5-0.1,0.8-0.1v4c-0.4,0.1-0.9,0.1-1.4,0.1c-0.5,0-1,0-1.5,0c-0.8,0-1.5-0.1-2.2-0.2s-1.3-0.3-1.9-0.6
		c-0.5-0.3-1-0.8-1.3-1.3c-0.3-0.6-0.5-1.3-0.5-2.3v-11h-3.1V7.8h3.1V2.2h5.1v5.6H287.9z"/>
	<path fill="#FF6600" d="M290.4,13.1c0.5-1.2,1.1-2.2,1.9-3.1c0.8-0.9,1.8-1.5,3-2s2.5-0.7,4-0.7c1.5,0,2.8,0.2,4,0.7s2.2,1.1,3,2
		c0.8,0.9,1.5,1.9,1.9,3.1c0.5,1.2,0.7,2.6,0.7,4c0,1.5-0.2,2.8-0.7,4c-0.5,1.2-1.1,2.2-1.9,3.1c-0.8,0.9-1.9,1.5-3,2
		s-2.5,0.7-4,0.7c-1.5,0-2.8-0.2-4-0.7s-2.2-1.1-3-2c-0.8-0.9-1.5-1.9-1.9-3.1s-0.7-2.5-0.7-4C289.8,15.6,290,14.3,290.4,13.1z
		 M295.1,19.3c0.1,0.7,0.4,1.3,0.7,1.9c0.3,0.6,0.8,1,1.4,1.4s1.3,0.5,2.2,0.5c0.9,0,1.6-0.2,2.2-0.5c0.6-0.3,1.1-0.8,1.4-1.4
		c0.3-0.6,0.6-1.2,0.7-1.9c0.1-0.7,0.2-1.4,0.2-2.2c0-0.7-0.1-1.5-0.2-2.2c-0.1-0.7-0.4-1.4-0.7-1.9s-0.8-1-1.4-1.4
		c-0.6-0.3-1.3-0.5-2.2-0.5c-0.9,0-1.6,0.2-2.2,0.5c-0.6,0.3-1,0.8-1.4,1.4s-0.6,1.2-0.7,1.9c-0.1,0.7-0.2,1.5-0.2,2.2
		C294.9,17.8,294.9,18.6,295.1,19.3z"/>
	<path fill="#FF6600" d="M335.5,24c-0.6,1-1.4,1.7-2.4,2.2c-1,0.4-2.1,0.7-3.3,0.7c-1.4,0-2.6-0.3-3.7-0.8c-1.1-0.5-1.9-1.3-2.6-2.2
		c-0.7-0.9-1.2-2-1.5-3.2s-0.5-2.4-0.5-3.7c0-1.2,0.2-2.5,0.5-3.6s0.9-2.2,1.5-3.1c0.7-0.9,1.5-1.6,2.6-2.1c1-0.5,2.2-0.8,3.6-0.8
		c1.1,0,2.2,0.2,3.1,0.7s1.8,1.2,2.4,2.1h0.1V0.7h5.1v25.7h-4.9L335.5,24L335.5,24z M335.3,14.8c-0.1-0.7-0.4-1.3-0.7-1.9
		c-0.3-0.5-0.8-1-1.4-1.3c-0.6-0.3-1.2-0.5-2.1-0.5s-1.5,0.2-2.1,0.5c-0.6,0.3-1,0.8-1.4,1.3s-0.6,1.2-0.8,1.9s-0.2,1.4-0.2,2.2
		c0,0.7,0.1,1.4,0.3,2.2s0.4,1.4,0.8,1.9c0.4,0.6,0.8,1,1.4,1.4c0.6,0.3,1.2,0.5,2,0.5c0.8,0,1.5-0.2,2.1-0.5c0.6-0.3,1-0.8,1.3-1.4
		c0.3-0.6,0.6-1.2,0.7-1.9c0.1-0.7,0.2-1.5,0.2-2.2C335.5,16.3,335.5,15.5,335.3,14.8z"/>
	<path fill="#FF6600" d="M344.4,13.1c0.5-1.2,1.1-2.2,1.9-3.1c0.8-0.9,1.8-1.5,3-2s2.5-0.7,4-0.7c1.5,0,2.8,0.2,4,0.7s2.2,1.1,3,2
		c0.8,0.9,1.5,1.9,1.9,3.1c0.5,1.2,0.7,2.6,0.7,4c0,1.5-0.2,2.8-0.7,4c-0.5,1.2-1.1,2.2-1.9,3.1c-0.8,0.9-1.9,1.5-3,2
		s-2.5,0.7-4,0.7c-1.5,0-2.8-0.2-4-0.7s-2.2-1.1-3-2c-0.8-0.9-1.5-1.9-1.9-3.1s-0.7-2.5-0.7-4C343.8,15.6,344,14.3,344.4,13.1z
		 M349.1,19.3c0.1,0.7,0.4,1.3,0.7,1.9c0.3,0.6,0.8,1,1.4,1.4s1.3,0.5,2.2,0.5c0.9,0,1.6-0.2,2.2-0.5c0.6-0.3,1.1-0.8,1.4-1.4
		c0.3-0.6,0.6-1.2,0.7-1.9c0.1-0.7,0.2-1.4,0.2-2.2c0-0.7-0.1-1.5-0.2-2.2c-0.1-0.7-0.4-1.4-0.7-1.9s-0.8-1-1.4-1.4
		c-0.6-0.3-1.3-0.5-2.2-0.5c-0.9,0-1.6,0.2-2.2,0.5c-0.6,0.3-1,0.8-1.4,1.4s-0.6,1.2-0.7,1.9c-0.1,0.7-0.2,1.5-0.2,2.2
		C348.9,17.8,348.9,18.6,349.1,19.3z"/>
	<path fill="#FF6600" d="M381.4,0.7V10h0.1c0.6-1,1.5-1.7,2.5-2.1c1.1-0.4,2.2-0.7,3.3-0.7c0.9,0,1.9,0.2,2.8,0.6s1.7,1,2.5,1.8
		c0.7,0.8,1.3,1.8,1.8,3c0.5,1.2,0.7,2.7,0.7,4.4c0,1.7-0.2,3.2-0.7,4.4c-0.5,1.2-1,2.2-1.8,3c-0.7,0.8-1.6,1.4-2.5,1.8
		c-0.9,0.4-1.8,0.6-2.8,0.6c-1.4,0-2.6-0.2-3.7-0.6c-1.1-0.4-1.9-1.2-2.4-2.2h-0.1v2.4h-4.9V0.7H381.4z M389.7,14.8
		c-0.2-0.7-0.4-1.4-0.8-1.9s-0.8-1-1.3-1.3c-0.5-0.3-1.2-0.5-2-0.5c-0.7,0-1.4,0.2-1.9,0.5c-0.6,0.3-1,0.8-1.4,1.3s-0.6,1.2-0.8,1.9
		c-0.2,0.7-0.3,1.5-0.3,2.3c0,0.8,0.1,1.5,0.3,2.2c0.2,0.7,0.4,1.4,0.8,1.9c0.4,0.6,0.8,1,1.4,1.3c0.6,0.3,1.2,0.5,1.9,0.5
		c0.8,0,1.4-0.2,2-0.5s1-0.8,1.3-1.3c0.4-0.6,0.6-1.2,0.8-1.9c0.2-0.7,0.3-1.5,0.3-2.2C390,16.3,389.9,15.6,389.7,14.8z"/>
	<path fill="#FF6600" d="M410.9,26.4v-2.6h-0.1c-0.6,1.1-1.5,1.9-2.5,2.3c-1,0.5-2.1,0.7-3.2,0.7c-1.4,0-2.5-0.2-3.4-0.5
		s-1.6-0.9-2.1-1.5c-0.5-0.7-0.9-1.5-1.1-2.4s-0.3-2-0.3-3.2V7.8h5.1v10.5c0,1.5,0.2,2.7,0.7,3.4c0.5,0.8,1.3,1.1,2.6,1.1
		c1.4,0,2.4-0.4,3-1.2c0.6-0.8,0.9-2.2,0.9-4.1V7.8h5.1v18.6H410.9z"/>
	<path fill="#FF6600" d="M424,21.8c0.2,0.4,0.5,0.7,0.9,1s0.8,0.4,1.2,0.6s1,0.2,1.5,0.2c0.4,0,0.7,0,1.1-0.1
		c0.4-0.1,0.8-0.2,1.1-0.4c0.3-0.2,0.6-0.4,0.8-0.7c0.2-0.3,0.3-0.7,0.3-1.1c0-0.8-0.5-1.3-1.5-1.7c-1-0.4-2.4-0.8-4.3-1.2
		c-0.7-0.2-1.5-0.4-2.2-0.6c-0.7-0.2-1.3-0.5-1.9-0.9c-0.6-0.4-1-0.8-1.3-1.4c-0.3-0.6-0.5-1.3-0.5-2.1c0-1.2,0.2-2.2,0.7-3
		c0.5-0.8,1.1-1.4,1.9-1.8c0.8-0.4,1.6-0.8,2.6-0.9c1-0.2,1.9-0.3,3-0.3s2,0.1,2.9,0.3c0.9,0.2,1.8,0.5,2.5,1
		c0.7,0.5,1.4,1.1,1.9,1.8c0.5,0.8,0.8,1.7,0.9,2.9h-4.9c-0.1-1-0.4-1.7-1.1-2s-1.5-0.5-2.4-0.5c-0.3,0-0.6,0-0.9,0.1
		c-0.3,0-0.6,0.1-0.9,0.2c-0.3,0.1-0.5,0.3-0.7,0.5c-0.2,0.2-0.3,0.5-0.3,0.9c0,0.5,0.2,0.8,0.5,1.1c0.3,0.3,0.8,0.5,1.3,0.7
		c0.5,0.2,1.2,0.3,1.9,0.5c0.7,0.1,1.4,0.3,2.1,0.5c0.7,0.2,1.5,0.4,2.2,0.6c0.7,0.2,1.3,0.6,1.9,1c0.6,0.4,1,0.9,1.3,1.5
		c0.3,0.6,0.5,1.3,0.5,2.2c0,1.2-0.2,2.2-0.7,3.1c-0.5,0.8-1.1,1.5-1.9,2c-0.8,0.5-1.7,0.9-2.7,1.1c-1,0.2-2.1,0.3-3.1,0.3
		c-1.1,0-2.1-0.1-3.2-0.3c-1-0.2-2-0.6-2.8-1.1c-0.8-0.5-1.5-1.2-2-2c-0.5-0.8-0.8-1.9-0.8-3.1h4.9C423.6,20.9,423.8,21.4,424,21.8z
		"/>
	<path fill="#FF6600" d="M439.2,4.9V0.7h5.1v4.2H439.2z M444.3,7.8v18.6h-5.1V7.8H444.3z"/>
	<path fill="#FF6600" d="M453.2,7.8v2.6h0.1c0.6-1.1,1.5-1.9,2.5-2.4c1-0.5,2.1-0.7,3.2-0.7c1.4,0,2.5,0.2,3.4,0.6s1.6,0.9,2.1,1.5
		s0.9,1.5,1.1,2.4s0.3,2,0.3,3.1v11.4h-5.1V15.9c0-1.5-0.2-2.7-0.7-3.4c-0.5-0.8-1.3-1.1-2.6-1.1c-1.4,0-2.4,0.4-3,1.2
		c-0.6,0.8-0.9,2.2-0.9,4.1v9.8h-5.1V7.8H453.2z"/>
	<path fill="#FF6600" d="M475.1,21.9c0.8,0.7,1.9,1.1,3.3,1.1c1,0,1.9-0.3,2.7-0.8c0.7-0.5,1.2-1.1,1.4-1.6h4.5
		c-0.7,2.2-1.8,3.8-3.3,4.8c-1.5,1-3.3,1.4-5.4,1.4c-1.5,0-2.8-0.2-4-0.7s-2.2-1.1-3-2c-0.8-0.9-1.4-1.9-1.9-3.1
		c-0.4-1.2-0.7-2.5-0.7-4c0-1.4,0.2-2.7,0.7-3.9s1.1-2.2,1.9-3.1s1.8-1.6,3-2.1s2.5-0.8,3.9-0.8c1.6,0,3,0.3,4.1,0.9
		c1.2,0.6,2.1,1.4,2.9,2.5c0.8,1,1.3,2.2,1.6,3.5c0.3,1.3,0.5,2.7,0.4,4.1h-13.4C473.9,20,474.4,21.2,475.1,21.9z M480.9,12.1
		c-0.6-0.7-1.5-1-2.8-1c-0.8,0-1.5,0.1-2,0.4c-0.5,0.3-1,0.6-1.3,1c-0.3,0.4-0.6,0.8-0.7,1.3c-0.1,0.5-0.2,0.9-0.2,1.2h8.3
		C481.9,13.8,481.5,12.8,480.9,12.1z"/>
	<path fill="#FF6600" d="M494.6,21.8c0.2,0.4,0.5,0.7,0.9,1s0.8,0.4,1.2,0.6s1,0.2,1.5,0.2c0.4,0,0.7,0,1.1-0.1
		c0.4-0.1,0.8-0.2,1.1-0.4c0.3-0.2,0.6-0.4,0.8-0.7c0.2-0.3,0.3-0.7,0.3-1.1c0-0.8-0.5-1.3-1.5-1.7c-1-0.4-2.4-0.8-4.3-1.2
		c-0.7-0.2-1.5-0.4-2.2-0.6c-0.7-0.2-1.3-0.5-1.9-0.9c-0.6-0.4-1-0.8-1.3-1.4c-0.3-0.6-0.5-1.3-0.5-2.1c0-1.2,0.2-2.2,0.7-3
		c0.5-0.8,1.1-1.4,1.9-1.8c0.8-0.4,1.6-0.8,2.6-0.9c1-0.2,1.9-0.3,3-0.3s2,0.1,2.9,0.3c0.9,0.2,1.8,0.5,2.5,1
		c0.7,0.5,1.4,1.1,1.9,1.8c0.5,0.8,0.8,1.7,0.9,2.9h-4.9c-0.1-1-0.4-1.7-1.1-2s-1.5-0.5-2.4-0.5c-0.3,0-0.6,0-0.9,0.1
		c-0.3,0-0.6,0.1-0.9,0.2c-0.3,0.1-0.5,0.3-0.7,0.5c-0.2,0.2-0.3,0.5-0.3,0.9c0,0.5,0.2,0.8,0.5,1.1c0.3,0.3,0.8,0.5,1.3,0.7
		c0.5,0.2,1.2,0.3,1.9,0.5c0.7,0.1,1.4,0.3,2.1,0.5c0.7,0.2,1.5,0.4,2.2,0.6c0.7,0.2,1.3,0.6,1.9,1c0.6,0.4,1,0.9,1.3,1.5
		c0.3,0.6,0.5,1.3,0.5,2.2c0,1.2-0.2,2.2-0.7,3.1c-0.5,0.8-1.1,1.5-1.9,2c-0.8,0.5-1.7,0.9-2.7,1.1c-1,0.2-2.1,0.3-3.1,0.3
		c-1.1,0-2.1-0.1-3.2-0.3c-1-0.2-2-0.6-2.8-1.1c-0.8-0.5-1.5-1.2-2-2c-0.5-0.8-0.8-1.9-0.8-3.1h4.9
		C494.3,20.9,494.4,21.4,494.6,21.8z"/>
	<path fill="#FF6600" d="M513.9,21.8c0.2,0.4,0.5,0.7,0.9,1s0.8,0.4,1.2,0.6s1,0.2,1.5,0.2c0.4,0,0.7,0,1.1-0.1
		c0.4-0.1,0.8-0.2,1.1-0.4c0.3-0.2,0.6-0.4,0.8-0.7c0.2-0.3,0.3-0.7,0.3-1.1c0-0.8-0.5-1.3-1.5-1.7c-1-0.4-2.4-0.8-4.3-1.2
		c-0.7-0.2-1.5-0.4-2.2-0.6c-0.7-0.2-1.3-0.5-1.9-0.9c-0.6-0.4-1-0.8-1.3-1.4c-0.3-0.6-0.5-1.3-0.5-2.1c0-1.2,0.2-2.2,0.7-3
		c0.5-0.8,1.1-1.4,1.9-1.8c0.8-0.4,1.6-0.8,2.6-0.9c1-0.2,1.9-0.3,3-0.3s2,0.1,2.9,0.3c0.9,0.2,1.8,0.5,2.5,1
		c0.7,0.5,1.4,1.1,1.9,1.8c0.5,0.8,0.8,1.7,0.9,2.9h-4.9c-0.1-1-0.4-1.7-1.1-2s-1.5-0.5-2.4-0.5c-0.3,0-0.6,0-0.9,0.1
		c-0.3,0-0.6,0.1-0.9,0.2c-0.3,0.1-0.5,0.3-0.7,0.5c-0.2,0.2-0.3,0.5-0.3,0.9c0,0.5,0.2,0.8,0.5,1.1c0.3,0.3,0.8,0.5,1.3,0.7
		c0.5,0.2,1.2,0.3,1.9,0.5c0.7,0.1,1.4,0.3,2.1,0.5c0.7,0.2,1.5,0.4,2.2,0.6c0.7,0.2,1.3,0.6,1.9,1c0.6,0.4,1,0.9,1.3,1.5
		c0.3,0.6,0.5,1.3,0.5,2.2c0,1.2-0.2,2.2-0.7,3.1c-0.5,0.8-1.1,1.5-1.9,2c-0.8,0.5-1.7,0.9-2.7,1.1c-1,0.2-2.1,0.3-3.1,0.3
		c-1.1,0-2.1-0.1-3.2-0.3c-1-0.2-2-0.6-2.8-1.1c-0.8-0.5-1.5-1.2-2-2c-0.5-0.8-0.8-1.9-0.8-3.1h4.9
		C513.6,20.9,513.7,21.4,513.9,21.8z"/>
	<path fill="#FF6600" d="M539.7,10.5c0.5-0.8,1.2-1.4,2-1.9c0.8-0.5,1.7-0.8,2.8-1c1-0.2,2-0.3,3.1-0.3c0.9,0,1.9,0.1,2.8,0.2
		c1,0.1,1.8,0.4,2.6,0.8s1.4,0.9,1.9,1.6c0.5,0.7,0.8,1.6,0.8,2.7v9.7c0,0.8,0,1.6,0.1,2.4c0.1,0.8,0.3,1.3,0.5,1.7h-5.2
		c-0.1-0.3-0.2-0.6-0.2-0.9c-0.1-0.3-0.1-0.6-0.1-0.9c-0.8,0.8-1.8,1.4-2.9,1.8c-1.1,0.3-2.2,0.5-3.4,0.5c-0.9,0-1.7-0.1-2.5-0.3
		c-0.8-0.2-1.4-0.6-2-1c-0.6-0.5-1-1-1.4-1.7c-0.3-0.7-0.5-1.5-0.5-2.5c0-1.1,0.2-1.9,0.6-2.6c0.4-0.7,0.9-1.2,1.4-1.6
		c0.6-0.4,1.3-0.7,2-0.9c0.8-0.2,1.5-0.4,2.3-0.5c0.8-0.1,1.5-0.2,2.3-0.3c0.7-0.1,1.4-0.2,2-0.3c0.6-0.1,1-0.4,1.4-0.6
		c0.3-0.3,0.5-0.7,0.5-1.2c0-0.6-0.1-1-0.3-1.3c-0.2-0.3-0.4-0.6-0.7-0.8s-0.6-0.3-1-0.4c-0.4-0.1-0.8-0.1-1.3-0.1
		c-1,0-1.8,0.2-2.4,0.6c-0.6,0.4-0.9,1.2-1,2.2h-5.1C538.8,12.3,539.1,11.3,539.7,10.5z M549.8,17.7c-0.3,0.1-0.7,0.2-1,0.3
		c-0.4,0.1-0.8,0.1-1.2,0.2c-0.4,0-0.8,0.1-1.2,0.2c-0.4,0.1-0.8,0.2-1.1,0.3c-0.4,0.1-0.7,0.3-1,0.5c-0.3,0.2-0.5,0.5-0.7,0.8
		c-0.2,0.3-0.3,0.7-0.3,1.2c0,0.5,0.1,0.8,0.3,1.2s0.4,0.6,0.7,0.7c0.3,0.2,0.6,0.3,1,0.4c0.4,0.1,0.8,0.1,1.2,0.1
		c1,0,1.8-0.2,2.3-0.5c0.6-0.3,1-0.7,1.2-1.2c0.3-0.5,0.4-0.9,0.5-1.4c0.1-0.5,0.1-0.9,0.1-1.2v-1.9
		C550.4,17.5,550.1,17.6,549.8,17.7z"/>
	<path fill="#FF6600" d="M564.5,7.8v2.6h0.1c0.6-1.1,1.5-1.9,2.5-2.4c1-0.5,2.1-0.7,3.2-0.7c1.4,0,2.5,0.2,3.4,0.6s1.6,0.9,2.1,1.5
		s0.9,1.5,1.1,2.4s0.3,2,0.3,3.1v11.4H572V15.9c0-1.5-0.2-2.7-0.7-3.4c-0.5-0.8-1.3-1.1-2.6-1.1c-1.4,0-2.4,0.4-3,1.2
		c-0.6,0.8-0.9,2.2-0.9,4.1v9.8h-5.1V7.8H564.5z"/>
	<path fill="#FF6600" d="M587.9,31.9c-1,0.6-2.4,1-4.1,1c-0.5,0-1,0-1.6-0.1c-0.5,0-1-0.1-1.6-0.1v-4.2c0.5,0,1,0.1,1.5,0.1
		c0.5,0,1,0.1,1.5,0c0.7-0.1,1.2-0.3,1.5-0.8c0.3-0.5,0.5-1,0.5-1.5c0-0.4-0.1-0.8-0.2-1.2l-6.5-17.5h5.4l4.2,12.7h0.1l4.1-12.7h5.3
		l-7.8,20.9C589.6,30.2,588.9,31.3,587.9,31.9z"/>
	<path fill="#FF6600" d="M615.7,26.4l-3.3-12.5h-0.1l-3.2,12.5h-5.3l-5.9-18.6h5.4l3.4,12.6h0.1l3.1-12.6h5l3.2,12.6h0.1l3.4-12.6
		h5.3L621,26.4H615.7z"/>
	<path fill="#FF6600" d="M634.1,0.7v9.7h0.1c0.6-1.1,1.5-1.9,2.5-2.4c1-0.5,2-0.7,3-0.7c1.4,0,2.5,0.2,3.4,0.6s1.6,0.9,2.1,1.5
		s0.9,1.5,1.1,2.4s0.3,2,0.3,3.1v11.4h-5.1V15.9c0-1.5-0.2-2.7-0.7-3.4c-0.5-0.8-1.3-1.1-2.6-1.1c-1.4,0-2.4,0.4-3,1.2
		c-0.6,0.8-0.9,2.2-0.9,4.1v9.8H629V0.7H634.1z"/>
	<path fill="#FF6600" d="M655.8,21.9c0.8,0.7,1.9,1.1,3.3,1.1c1,0,1.9-0.3,2.7-0.8c0.7-0.5,1.2-1.1,1.4-1.6h4.5
		c-0.7,2.2-1.8,3.8-3.3,4.8c-1.5,1-3.3,1.4-5.4,1.4c-1.5,0-2.8-0.2-4-0.7s-2.2-1.1-3-2c-0.8-0.9-1.4-1.9-1.9-3.1
		c-0.4-1.2-0.7-2.5-0.7-4c0-1.4,0.2-2.7,0.7-3.9s1.1-2.2,1.9-3.1s1.8-1.6,3-2.1s2.5-0.8,3.9-0.8c1.6,0,3,0.3,4.1,0.9
		c1.2,0.6,2.1,1.4,2.9,2.5c0.8,1,1.3,2.2,1.6,3.5c0.3,1.3,0.5,2.7,0.4,4.1h-13.4C654.6,20,655,21.2,655.8,21.9z M661.6,12.1
		c-0.6-0.7-1.5-1-2.8-1c-0.8,0-1.5,0.1-2,0.4c-0.5,0.3-1,0.6-1.3,1c-0.3,0.4-0.6,0.8-0.7,1.3c-0.1,0.5-0.2,0.9-0.2,1.2h8.3
		C662.6,13.8,662.2,12.8,661.6,12.1z"/>
	<path fill="#FF6600" d="M675.9,7.8v3.5h0.1c0.2-0.6,0.6-1.1,1-1.6s0.9-0.9,1.4-1.3c0.5-0.3,1.1-0.6,1.7-0.8
		c0.6-0.2,1.2-0.3,1.9-0.3c0.3,0,0.7,0.1,1.1,0.2v4.8c-0.2,0-0.5-0.1-0.9-0.1c-0.3,0-0.7-0.1-1-0.1c-0.9,0-1.7,0.2-2.4,0.5
		c-0.6,0.3-1.2,0.7-1.6,1.3c-0.4,0.5-0.7,1.2-0.8,1.9c-0.2,0.7-0.3,1.5-0.3,2.3v8.4H671V7.8H675.9z"/>
	<path fill="#FF6600" d="M689.8,21.9c0.8,0.7,1.9,1.1,3.3,1.1c1,0,1.9-0.3,2.7-0.8c0.7-0.5,1.2-1.1,1.4-1.6h4.5
		c-0.7,2.2-1.8,3.8-3.3,4.8c-1.5,1-3.3,1.4-5.4,1.4c-1.5,0-2.8-0.2-4-0.7s-2.2-1.1-3-2c-0.8-0.9-1.4-1.9-1.9-3.1
		c-0.4-1.2-0.7-2.5-0.7-4c0-1.4,0.2-2.7,0.7-3.9s1.1-2.2,1.9-3.1s1.8-1.6,3-2.1s2.5-0.8,3.9-0.8c1.6,0,3,0.3,4.1,0.9
		c1.2,0.6,2.1,1.4,2.9,2.5c0.8,1,1.3,2.2,1.6,3.5c0.3,1.3,0.5,2.7,0.4,4.1h-13.4C688.6,20,689.1,21.2,689.8,21.9z M695.6,12.1
		c-0.6-0.7-1.5-1-2.8-1c-0.8,0-1.5,0.1-2,0.4c-0.5,0.3-1,0.6-1.3,1c-0.3,0.4-0.6,0.8-0.7,1.3c-0.1,0.5-0.2,0.9-0.2,1.2h8.3
		C696.6,13.8,696.2,12.8,695.6,12.1z"/>
</g>
</svg>
