<?xml version="1.0" encoding="utf-8"?>
<!-- Generator: Adobe Illustrator 17.1.0, SVG Export Plug-In . SVG Version: 6.00 Build 0)  -->
<!DOCTYPE svg PUBLIC "-//W3C//DTD SVG 1.1//EN" "http://www.w3.org/Graphics/SVG/1.1/DTD/svg11.dtd">
<svg version="1.1" id="图层_1" xmlns="http://www.w3.org/2000/svg" xmlns:xlink="http://www.w3.org/1999/xlink" x="0px" y="0px"
	 viewBox="0 0 185.2 222.9" style="enable-background:new 0 0 185.2 222.9;" xml:space="preserve">
<rect x="1.4" y="1.1" style="fill:#DDDEE0;stroke:#CCCCCC;stroke-miterlimit:10;" width="182" height="220"/>
<rect x="2.4" y="2.1" style="fill:#FFFFFF;" width="180" height="218.6"/>
<g>
	<g>
		<path style="fill-rule:evenodd;clip-rule:evenodd;fill:#FFEFEF;" d="M2.2,220.4c3.4,0,6.7,0,10.1,0c0.2-72.9,0.4-145.8,0.6-218.7
			c-3.4,0-6.7,0-10.1,0C2.5,74.6,2.3,147.5,2.2,220.4z M17.6,220.4c3.4,0,6.7,0,10.1,0C27.9,147.5,28,74.6,28.2,1.7
			c-3.4,0-6.7,0-10.1,0C18,74.6,17.8,147.5,17.6,220.4z M33.1,220.4c3.4,0,6.7,0,10.1,0c0.2-72.9,0.4-145.8,0.6-218.7
			c-3.4,0-6.7,0-10.1,0C33.4,74.6,33.2,147.6,33.1,220.4z M48.5,220.5c3.4,0,6.7,0,10.1,0c0.2-72.9,0.4-145.8,0.6-218.7
			c-3.4,0-6.7,0-10.1,0C48.9,74.7,48.7,147.6,48.5,220.5z M64,220.5c3.4,0,6.7,0,10.1,0c0.2-72.9,0.4-145.8,0.6-218.7
			c-3.4,0-6.7,0-10.1,0C64.3,74.7,64.1,147.6,64,220.5z M79.4,220.6c3.4,0,6.7,0,10.1,0C89.7,147.7,89.8,74.8,90,1.9
			c-3.4,0-6.7,0-10.1,0C79.8,74.8,79.6,147.7,79.4,220.6z M94.9,220.6c3.4,0,6.7,0,10.1,0c0.2-72.9,0.4-145.8,0.6-218.7
			c-3.4,0-6.7,0-10.1,0C95.2,74.8,95,147.7,94.9,220.6z M110.3,220.6c3.4,0,6.7,0,10.1,0c0.2-72.9,0.4-145.8,0.6-218.7
			c-3.4,0-6.7,0-10.1,0C110.7,74.8,110.5,147.8,110.3,220.6z M125.8,220.7c3.4,0,6.7,0,10.1,0c0.2-72.9,0.4-145.8,0.6-218.7
			c-3.4,0-6.7,0-10.1,0C126.1,74.9,125.9,147.8,125.8,220.7z M141.2,220.7c3.4,0,6.7,0,10.1,0c0.2-72.9,0.4-145.8,0.6-218.7
			c-3.4,0-6.7,0-10.1,0C141.6,74.9,141.4,147.8,141.2,220.7z M156.6,220.8c3.4,0,6.7,0,10.1,0c0.2-72.9,0.4-145.8,0.6-218.7
			c-3.4,0-6.7,0-10.1,0C157,75,156.8,147.9,156.6,220.8z M172.7,2.1c-0.2,72.9-0.4,145.8-0.6,218.7c3.4,0,6.7,0,10.1,0
			c0.2-72.9,0.4-145.8,0.6-218.7C179.4,2.1,176,2.1,172.7,2.1z"/>
	</g>
</g>
</svg>
