<?xml version="1.0" encoding="utf-8"?>
<!-- Generator: Adobe Illustrator 17.1.0, SVG Export Plug-In . SVG Version: 6.00 Build 0)  -->
<!DOCTYPE svg PUBLIC "-//W3C//DTD SVG 1.1//EN" "http://www.w3.org/Graphics/SVG/1.1/DTD/svg11.dtd">
<svg version="1.1" id="图层_1" xmlns="http://www.w3.org/2000/svg" xmlns:xlink="http://www.w3.org/1999/xlink" x="0px" y="0px"
	 viewBox="0 0 642.2 451.9" style="enable-background:new 0 0 642.2 451.9;" xml:space="preserve">
<rect x="0.9" y="1" style="fill:#FF6600;fill-opacity:0.75;" width="30" height="30"/>
<rect x="610.9" y="1" style="fill:#FF6600;fill-opacity:0.75;" width="30" height="30"/>
<rect x="0.9" y="421" style="fill:#FF6600;fill-opacity:0.75;" width="30" height="30"/>
<rect x="610.9" y="421" style="fill:#FF6600;fill-opacity:0.75;" width="30" height="30"/>
<g>
	<line style="fill:none;stroke:#FF6600;stroke-width:0.1;" x1="610.9" y1="0.9" x2="610.9" y2="451.1"/>
	<line style="fill:none;stroke:#FF6600;stroke-width:0.1;" x1="571.7" y1="0.9" x2="571.7" y2="451.1"/>
	<line style="fill:none;stroke:#FF6600;stroke-width:0.1;" x1="561.7" y1="0.9" x2="561.7" y2="451.1"/>
	<line style="fill:none;stroke:#FF6600;stroke-width:0.1;" x1="522.5" y1="0.9" x2="522.5" y2="451.1"/>
	<line style="fill:none;stroke:#FF6600;stroke-width:0.1;" x1="512.5" y1="0.9" x2="512.5" y2="451.1"/>
	<line style="fill:none;stroke:#FF6600;stroke-width:0.1;" x1="473.4" y1="0.9" x2="473.4" y2="451.1"/>
	<line style="fill:none;stroke:#FF6600;stroke-width:0.1;" x1="463.4" y1="0.9" x2="463.4" y2="451.1"/>
	<line style="fill:none;stroke:#FF6600;stroke-width:0.1;" x1="424.2" y1="0.9" x2="424.2" y2="451.1"/>
	<line style="fill:none;stroke:#FF6600;stroke-width:0.1;" x1="414.2" y1="0.9" x2="414.2" y2="451.1"/>
	<line style="fill:none;stroke:#FF6600;stroke-width:0.1;" x1="375" y1="0.9" x2="375" y2="451.1"/>
	<line style="fill:none;stroke:#FF6600;stroke-width:0.1;" x1="365" y1="0.9" x2="365" y2="451.1"/>
	<line style="fill:none;stroke:#FF6600;stroke-width:0.1;" x1="325.9" y1="0.9" x2="325.9" y2="451.1"/>
	<line style="fill:none;stroke:#FF6600;stroke-width:0.1;" x1="315.9" y1="0.9" x2="315.9" y2="451.1"/>
	<line style="fill:none;stroke:#FF6600;stroke-width:0.1;" x1="276.7" y1="0.9" x2="276.7" y2="451.1"/>
	<line style="fill:none;stroke:#FF6600;stroke-width:0.1;" x1="266.7" y1="0.9" x2="266.7" y2="451.1"/>
	<line style="fill:none;stroke:#FF6600;stroke-width:0.1;" x1="227.5" y1="0.9" x2="227.5" y2="451.1"/>
	<line style="fill:none;stroke:#FF6600;stroke-width:0.1;" x1="217.5" y1="0.9" x2="217.5" y2="451.1"/>
	<line style="fill:none;stroke:#FF6600;stroke-width:0.1;" x1="178.4" y1="0.9" x2="178.4" y2="451.1"/>
	<line style="fill:none;stroke:#FF6600;stroke-width:0.1;" x1="168.4" y1="0.9" x2="168.4" y2="451.1"/>
	<line style="fill:none;stroke:#FF6600;stroke-width:0.1;" x1="129.2" y1="0.9" x2="129.2" y2="451.1"/>
	<line style="fill:none;stroke:#FF6600;stroke-width:0.1;" x1="119.2" y1="0.9" x2="119.2" y2="451.1"/>
	<line style="fill:none;stroke:#FF6600;stroke-width:0.1;" x1="80" y1="0.9" x2="80" y2="451.1"/>
	<line style="fill:none;stroke:#FF6600;stroke-width:0.1;" x1="70" y1="0.9" x2="70" y2="451.1"/>
	<line style="fill:none;stroke:#FF6600;stroke-width:0.1;" x1="30.9" y1="0.9" x2="30.9" y2="451.1"/>
	<line style="fill:none;stroke:#FF6600;stroke-width:0.1;" x1="0.7" y1="421" x2="641" y2="421"/>
	<line style="fill:none;stroke:#FF6600;stroke-width:0.1;" x1="0.7" y1="397.7" x2="641" y2="397.7"/>
	<line style="fill:none;stroke:#FF6600;stroke-width:0.1;" x1="0.7" y1="387.7" x2="641" y2="387.7"/>
	<line style="fill:none;stroke:#FF6600;stroke-width:0.1;" x1="0.7" y1="364.3" x2="641" y2="364.3"/>
	<line style="fill:none;stroke:#FF6600;stroke-width:0.1;" x1="0.7" y1="354.3" x2="641" y2="354.3"/>
	<line style="fill:none;stroke:#FF6600;stroke-width:0.1;" x1="0.7" y1="331" x2="641" y2="331"/>
	<line style="fill:none;stroke:#FF6600;stroke-width:0.1;" x1="0.7" y1="321" x2="641" y2="321"/>
	<line style="fill:none;stroke:#FF6600;stroke-width:0.1;" x1="0.7" y1="297.7" x2="641" y2="297.7"/>
	<line style="fill:none;stroke:#FF6600;stroke-width:0.1;" x1="0.7" y1="287.7" x2="641" y2="287.7"/>
	<line style="fill:none;stroke:#FF6600;stroke-width:0.1;" x1="0.7" y1="264.3" x2="641" y2="264.3"/>
	<line style="fill:none;stroke:#FF6600;stroke-width:0.1;" x1="0.7" y1="254.3" x2="641" y2="254.3"/>
	<line style="fill:none;stroke:#FF6600;stroke-width:0.1;" x1="0.7" y1="231" x2="641" y2="231"/>
	<line style="fill:none;stroke:#FF6600;stroke-width:0.1;" x1="0.7" y1="221" x2="641" y2="221"/>
	<line style="fill:none;stroke:#FF6600;stroke-width:0.1;" x1="0.7" y1="197.7" x2="641" y2="197.7"/>
	<line style="fill:none;stroke:#FF6600;stroke-width:0.1;" x1="0.7" y1="187.7" x2="641" y2="187.7"/>
	<line style="fill:none;stroke:#FF6600;stroke-width:0.1;" x1="0.7" y1="164.3" x2="641" y2="164.3"/>
	<line style="fill:none;stroke:#FF6600;stroke-width:0.1;" x1="0.7" y1="154.3" x2="641" y2="154.3"/>
	<line style="fill:none;stroke:#FF6600;stroke-width:0.1;" x1="0.7" y1="131" x2="641" y2="131"/>
	<line style="fill:none;stroke:#FF6600;stroke-width:0.1;" x1="0.7" y1="121" x2="641" y2="121"/>
	<line style="fill:none;stroke:#FF6600;stroke-width:0.1;" x1="0.7" y1="97.7" x2="641" y2="97.7"/>
	<line style="fill:none;stroke:#FF6600;stroke-width:0.1;" x1="0.7" y1="87.7" x2="641" y2="87.7"/>
	<line style="fill:none;stroke:#FF6600;stroke-width:0.1;" x1="0.7" y1="64.3" x2="641" y2="64.3"/>
	<line style="fill:none;stroke:#FF6600;stroke-width:0.1;" x1="0.7" y1="54.3" x2="641" y2="54.3"/>
	<line style="fill:none;stroke:#FF6600;stroke-width:0.1;" x1="0.7" y1="31" x2="641" y2="31"/>
</g>
<g>
	<path style="fill:#FF6600;" d="M287.2,243v-37.2h-14.4V197c2,0.1,4-0.1,5.9-0.5c1.9-0.4,3.6-1,5.1-1.9c1.5-0.9,2.8-2.1,3.8-3.6
		c1-1.5,1.7-3.3,2-5.5h9.3V243H287.2z"/>
	<path style="fill:#FF6600;" d="M316.5,198.5c0.9-2.8,2.2-5.3,3.9-7.4c1.7-2.1,3.9-3.7,6.6-4.9c2.7-1.2,5.7-1.8,9.1-1.8
		c2.6,0,5.1,0.4,7.5,1.2s4.5,2,6.3,3.5c1.8,1.5,3.2,3.4,4.3,5.7c1.1,2.2,1.6,4.8,1.6,7.5c0,2.9-0.5,5.4-1.4,7.5
		c-0.9,2.1-2.2,3.9-3.7,5.5c-1.5,1.6-3.3,3.1-5.2,4.4c-1.9,1.3-3.9,2.6-5.9,3.9c-2,1.3-3.9,2.7-5.7,4.1c-1.9,1.5-3.5,3.2-4.9,5.2
		h27.1v10H314c0-3.3,0.5-6.2,1.4-8.7c1-2.5,2.3-4.7,3.9-6.6c1.6-1.9,3.6-3.7,5.8-5.4c2.2-1.6,4.6-3.3,7-5c1.3-0.9,2.6-1.8,4-2.7
		c1.4-0.9,2.7-1.9,3.9-3c1.2-1.1,2.2-2.3,3-3.7c0.8-1.4,1.2-2.9,1.2-4.7c0-2.8-0.8-5-2.4-6.5c-1.6-1.6-3.7-2.3-6.2-2.3
		c-1.7,0-3.1,0.4-4.3,1.2c-1.2,0.8-2.1,1.8-2.8,3.1c-0.7,1.3-1.2,2.7-1.5,4.3c-0.3,1.6-0.5,3.1-0.5,4.6h-11.2
		C315.2,204.4,315.6,201.3,316.5,198.5z"/>
</g>
</svg>
