<?xml version="1.0" encoding="utf-8"?>
<!-- Generator: Adobe Illustrator 17.1.0, SVG Export Plug-In . SVG Version: 6.00 Build 0)  -->
<!DOCTYPE svg PUBLIC "-//W3C//DTD SVG 1.1//EN" "http://www.w3.org/Graphics/SVG/1.1/DTD/svg11.dtd">
<svg version="1.1" id="图层_1" xmlns="http://www.w3.org/2000/svg" xmlns:xlink="http://www.w3.org/1999/xlink" x="0px" y="0px"
	 viewBox="0 0 130 130" style="enable-background:new 0 0 130 130;" xml:space="preserve">
<g id="_x33_2线格_1_">
	<g>
		<path style="fill-rule:evenodd;clip-rule:evenodd;fill:#F2F2F2;" d="M2,1L2,1L1,1v128h128V1H2z M124,2v3h-3V2H124z M64,66v3h-3v-3
			H64z M61,65v-3h3v3H61z M65,66h3v3h-3V66z M65,65v-3h3v3H65z M65,61v-3h3v3H65z M64,61h-3v-3h3V61z M60,61h-3v-3h3V61z M60,62v3
			h-3v-3H60z M60,66v3h-3v-3H60z M60,70v3h-3v-3H60z M61,70h3v3h-3V70z M65,70h3v3h-3V70z M69,70h3v3h-3V70z M69,69v-3h3v3H69z
			 M69,65v-3h3v3H69z M69,61v-3h3v3H69z M69,57v-3h3v3H69z M68,57h-3v-3h3V57z M64,57h-3v-3h3V57z M60,57h-3v-3h3V57z M56,57h-3v-3
			h3V57z M56,58v3h-3v-3H56z M56,62v3h-3v-3H56z M56,66v3h-3v-3H56z M56,70v3h-3v-3H56z M56,74v3h-3v-3H56z M57,74h3v3h-3V74z
			 M61,74h3v3h-3V74z M65,74h3v3h-3V74z M69,74h3v3h-3V74z M73,74h3v3h-3V74z M73,73v-3h3v3H73z M73,69v-3h3v3H73z M73,65v-3h3v3H73
			z M73,61v-3h3v3H73z M73,57v-3h3v3H73z M73,53v-3h3v3H73z M72,53h-3v-3h3V53z M68,53h-3v-3h3V53z M64,53h-3v-3h3V53z M60,53h-3v-3
			h3V53z M56,53h-3v-3h3V53z M52,53h-3v-3h3V53z M52,54v3h-3v-3H52z M52,58v3h-3v-3H52z M52,62v3h-3v-3H52z M52,66v3h-3v-3H52z
			 M52,70v3h-3v-3H52z M52,74v3h-3v-3H52z M52,78v3h-3v-3H52z M53,78h3v3h-3V78z M57,78h3v3h-3V78z M61,78h3v3h-3V78z M65,78h3v3h-3
			V78z M69,78h3v3h-3V78z M73,78h3v3h-3V78z M77,78h3v3h-3V78z M77,77v-3h3v3H77z M77,73v-3h3v3H77z M77,69v-3h3v3H77z M77,65v-3h3
			v3H77z M77,61v-3h3v3H77z M77,57v-3h3v3H77z M77,53v-3h3v3H77z M77,49v-3h3v3H77z M76,49h-3v-3h3V49z M72,49h-3v-3h3V49z M68,49
			h-3v-3h3V49z M64,49h-3v-3h3V49z M60,49h-3v-3h3V49z M56,49h-3v-3h3V49z M52,49h-3v-3h3V49z M48,49h-3v-3h3V49z M48,50v3h-3v-3H48
			z M48,54v3h-3v-3H48z M48,58v3h-3v-3H48z M48,62v3h-3v-3H48z M48,66v3h-3v-3H48z M48,70v3h-3v-3H48z M48,74v3h-3v-3H48z M48,78v3
			h-3v-3H48z M48,82v3h-3v-3H48z M49,82h3v3h-3V82z M53,82h3v3h-3V82z M57,82h3v3h-3V82z M61,82h3v3h-3V82z M65,82h3v3h-3V82z
			 M69,82h3v3h-3V82z M73,82h3v3h-3V82z M77,82h3v3h-3V82z M81,82h3v3h-3V82z M81,81v-3h3v3H81z M81,77v-3h3v3H81z M81,73v-3h3v3H81
			z M81,69v-3h3v3H81z M81,65v-3h3v3H81z M81,61v-3h3v3H81z M81,57v-3h3v3H81z M81,53v-3h3v3H81z M81,49v-3h3v3H81z M81,45v-3h3v3
			H81z M80,45h-3v-3h3V45z M76,45h-3v-3h3V45z M72,45h-3v-3h3V45z M68,45h-3v-3h3V45z M64,45h-3v-3h3V45z M60,45h-3v-3h3V45z M56,45
			h-3v-3h3V45z M52,45h-3v-3h3V45z M48,45h-3v-3h3V45z M44,45h-3v-3h3V45z M44,46v3h-3v-3H44z M44,50v3h-3v-3H44z M44,54v3h-3v-3H44
			z M44,58v3h-3v-3H44z M44,62v3h-3v-3H44z M44,66v3h-3v-3H44z M44,70v3h-3v-3H44z M44,74v3h-3v-3H44z M44,78v3h-3v-3H44z M44,82v3
			h-3v-3H44z M44,86v3h-3v-3H44z M45,86h3v3h-3V86z M49,86h3v3h-3V86z M53,86h3v3h-3V86z M57,86h3v3h-3V86z M61,86h3v3h-3V86z
			 M65,86h3v3h-3V86z M69,86h3v3h-3V86z M73,86h3v3h-3V86z M77,86h3v3h-3V86z M81,86h3v3h-3V86z M85,86h3v3h-3V86z M85,85v-3h3v3H85
			z M85,81v-3h3v3H85z M85,77v-3h3v3H85z M85,73v-3h3v3H85z M85,69v-3h3v3H85z M85,65v-3h3v3H85z M85,61v-3h3v3H85z M85,57v-3h3v3
			H85z M85,53v-3h3v3H85z M85,49v-3h3v3H85z M85,45v-3h3v3H85z M85,41v-3h3v3H85z M84,41h-3v-3h3V41z M80,41h-3v-3h3V41z M76,41h-3
			v-3h3V41z M72,41h-3v-3h3V41z M68,41h-3v-3h3V41z M64,41h-3v-3h3V41z M60,41h-3v-3h3V41z M56,41h-3v-3h3V41z M52,41h-3v-3h3V41z
			 M48,41h-3v-3h3V41z M44,41h-3v-3h3V41z M40,41h-3v-3h3V41z M40,42v3h-3v-3H40z M40,46v3h-3v-3H40z M40,50v3h-3v-3H40z M40,54v3
			h-3v-3H40z M40,58v3h-3v-3H40z M40,62v3h-3v-3H40z M40,66v3h-3v-3H40z M40,70v3h-3v-3H40z M40,74v3h-3v-3H40z M40,78v3h-3v-3H40z
			 M40,82v3h-3v-3H40z M40,86v3h-3v-3H40z M40,90v3h-3v-3H40z M41,90h3v3h-3V90z M45,90h3v3h-3V90z M49,90h3v3h-3V90z M53,90h3v3h-3
			V90z M57,90h3v3h-3V90z M61,90h3v3h-3V90z M65,90h3v3h-3V90z M69,90h3v3h-3V90z M73,90h3v3h-3V90z M77,90h3v3h-3V90z M81,90h3v3
			h-3V90z M85,90h3v3h-3V90z M89,90h3v3h-3V90z M89,89v-3h3v3H89z M89,85v-3h3v3H89z M89,81v-3h3v3H89z M89,77v-3h3v3H89z M89,73v-3
			h3v3H89z M89,69v-3h3v3H89z M89,65v-3h3v3H89z M89,61v-3h3v3H89z M89,57v-3h3v3H89z M89,53v-3h3v3H89z M89,49v-3h3v3H89z M89,45
			v-3h3v3H89z M89,41v-3h3v3H89z M89,37v-3h3v3H89z M88,37h-3v-3h3V37z M84,37h-3v-3h3V37z M80,37h-3v-3h3V37z M76,37h-3v-3h3V37z
			 M72,37h-3v-3h3V37z M68,37h-3v-3h3V37z M64,37h-3v-3h3V37z M60,37h-3v-3h3V37z M56,37h-3v-3h3V37z M52,37h-3v-3h3V37z M48,37h-3
			v-3h3V37z M44,37h-3v-3h3V37z M40,37h-3v-3h3V37z M36,37h-3v-3h3V37z M36,38v3h-3v-3H36z M36,42v3h-3v-3H36z M36,46v3h-3v-3H36z
			 M36,50v3h-3v-3H36z M36,54v3h-3v-3H36z M36,58v3h-3v-3H36z M36,62v3h-3v-3H36z M36,66v3h-3v-3H36z M36,70v3h-3v-3H36z M36,74v3
			h-3v-3H36z M36,78v3h-3v-3H36z M36,82v3h-3v-3H36z M36,86v3h-3v-3H36z M36,90v3h-3v-3H36z M36,94v3h-3v-3H36z M37,94h3v3h-3V94z
			 M41,94h3v3h-3V94z M45,94h3v3h-3V94z M49,94h3v3h-3V94z M53,94h3v3h-3V94z M57,94h3v3h-3V94z M61,94h3v3h-3V94z M65,94h3v3h-3V94
			z M69,94h3v3h-3V94z M73,94h3v3h-3V94z M77,94h3v3h-3V94z M81,94h3v3h-3V94z M85,94h3v3h-3V94z M89,94h3v3h-3V94z M93,94h3v3h-3
			V94z M93,93v-3h3v3H93z M93,89v-3h3v3H93z M93,85v-3h3v3H93z M93,81v-3h3v3H93z M93,77v-3h3v3H93z M93,73v-3h3v3H93z M93,69v-3h3
			v3H93z M93,65v-3h3v3H93z M93,61v-3h3v3H93z M93,57v-3h3v3H93z M93,53v-3h3v3H93z M93,49v-3h3v3H93z M93,45v-3h3v3H93z M93,41v-3
			h3v3H93z M93,37v-3h3v3H93z M93,33v-3h3v3H93z M92,33h-3v-3h3V33z M88,33h-3v-3h3V33z M84,33h-3v-3h3V33z M80,33h-3v-3h3V33z
			 M76,33h-3v-3h3V33z M72,33h-3v-3h3V33z M68,33h-3v-3h3V33z M64,33h-3v-3h3V33z M60,33h-3v-3h3V33z M56,33h-3v-3h3V33z M52,33h-3
			v-3h3V33z M48,33h-3v-3h3V33z M44,33h-3v-3h3V33z M40,33h-3v-3h3V33z M36,33h-3v-3h3V33z M32,33h-3v-3h3V33z M32,34v3h-3v-3H32z
			 M32,38v3h-3v-3H32z M32,42v3h-3v-3H32z M32,46v3h-3v-3H32z M32,50v3h-3v-3H32z M32,54v3h-3v-3H32z M32,58v3h-3v-3H32z M32,62v3
			h-3v-3H32z M32,66v3h-3v-3H32z M32,70v3h-3v-3H32z M32,74v3h-3v-3H32z M32,78v3h-3v-3H32z M32,82v3h-3v-3H32z M32,86v3h-3v-3H32z
			 M32,90v3h-3v-3H32z M32,94v3h-3v-3H32z M32,98v3h-3v-3H32z M33,98h3v3h-3V98z M37,98h3v3h-3V98z M41,98h3v3h-3V98z M45,98h3v3h-3
			V98z M49,98h3v3h-3V98z M53,98h3v3h-3V98z M57,98h3v3h-3V98z M61,98h3v3h-3V98z M65,98h3v3h-3V98z M69,98h3v3h-3V98z M73,98h3v3
			h-3V98z M77,98h3v3h-3V98z M81,98h3v3h-3V98z M85,98h3v3h-3V98z M89,98h3v3h-3V98z M93,98h3v3h-3V98z M97,98h3v3h-3V98z M97,97v-3
			h3v3H97z M97,93v-3h3v3H97z M97,89v-3h3v3H97z M97,85v-3h3v3H97z M97,81v-3h3v3H97z M97,77v-3h3v3H97z M97,73v-3h3v3H97z M97,69
			v-3h3v3H97z M97,65v-3h3v3H97z M97,61v-3h3v3H97z M97,57v-3h3v3H97z M97,53v-3h3v3H97z M97,49v-3h3v3H97z M97,45v-3h3v3H97z
			 M97,41v-3h3v3H97z M97,37v-3h3v3H97z M97,33v-3h3v3H97z M97,29v-3h3v3H97z M96,29h-3v-3h3V29z M92,29h-3v-3h3V29z M88,29h-3v-3h3
			V29z M84,29h-3v-3h3V29z M80,29h-3v-3h3V29z M76,29h-3v-3h3V29z M72,29h-3v-3h3V29z M68,29h-3v-3h3V29z M64,29h-3v-3h3V29z M60,29
			h-3v-3h3V29z M56,29h-3v-3h3V29z M52,29h-3v-3h3V29z M48,29h-3v-3h3V29z M44,29h-3v-3h3V29z M40,29h-3v-3h3V29z M36,29h-3v-3h3V29
			z M32,29h-3v-3h3V29z M28,29h-3v-3h3V29z M28,30v3h-3v-3H28z M28,34v3h-3v-3H28z M28,38v3h-3v-3H28z M28,42v3h-3v-3H28z M28,46v3
			h-3v-3H28z M28,50v3h-3v-3H28z M28,54v3h-3v-3H28z M28,58v3h-3v-3H28z M28,62v3h-3v-3H28z M28,66v3h-3v-3H28z M28,70v3h-3v-3H28z
			 M28,74v3h-3v-3H28z M28,78v3h-3v-3H28z M28,82v3h-3v-3H28z M28,86v3h-3v-3H28z M28,90v3h-3v-3H28z M28,94v3h-3v-3H28z M28,98v3
			h-3v-3H28z M28,102v3h-3v-3H28z M29,102h3v3h-3V102z M33,102h3v3h-3V102z M37,102h3v3h-3V102z M41,102h3v3h-3V102z M45,102h3v3h-3
			V102z M49,102h3v3h-3V102z M53,102h3v3h-3V102z M57,102h3v3h-3V102z M61,102h3v3h-3V102z M65,102h3v3h-3V102z M69,102h3v3h-3V102z
			 M73,102h3v3h-3V102z M77,102h3v3h-3V102z M81,102h3v3h-3V102z M85,102h3v3h-3V102z M89,102h3v3h-3V102z M93,102h3v3h-3V102z
			 M97,102h3v3h-3V102z M101,102h3v3h-3V102z M101,101v-3h3v3H101z M101,97v-3h3v3H101z M101,93v-3h3v3H101z M101,89v-3h3v3H101z
			 M101,85v-3h3v3H101z M101,81v-3h3v3H101z M101,77v-3h3v3H101z M101,73v-3h3v3H101z M101,69v-3h3v3H101z M101,65v-3h3v3H101z
			 M101,61v-3h3v3H101z M101,57v-3h3v3H101z M101,53v-3h3v3H101z M101,49v-3h3v3H101z M101,45v-3h3v3H101z M101,41v-3h3v3H101z
			 M101,37v-3h3v3H101z M101,33v-3h3v3H101z M101,29v-3h3v3H101z M101,25v-3h3v3H101z M100,25h-3v-3h3V25z M96,25h-3v-3h3V25z
			 M92,25h-3v-3h3V25z M88,25h-3v-3h3V25z M84,25h-3v-3h3V25z M80,25h-3v-3h3V25z M76,25h-3v-3h3V25z M72,25h-3v-3h3V25z M68,25h-3
			v-3h3V25z M64,25h-3v-3h3V25z M60,25h-3v-3h3V25z M56,25h-3v-3h3V25z M52,25h-3v-3h3V25z M48,25h-3v-3h3V25z M44,25h-3v-3h3V25z
			 M40,25h-3v-3h3V25z M36,25h-3v-3h3V25z M32,25h-3v-3h3V25z M28,25h-3v-3h3V25z M24,25h-3v-3h3V25z M24,26v3h-3v-3H24z M24,30v3
			h-3v-3H24z M24,34v3h-3v-3H24z M24,38v3h-3v-3H24z M24,42v3h-3v-3H24z M24,46v3h-3v-3H24z M24,50v3h-3v-3H24z M24,54v3h-3v-3H24z
			 M24,58v3h-3v-3H24z M24,62v3h-3v-3H24z M24,66v3h-3v-3H24z M24,70v3h-3v-3H24z M24,74v3h-3v-3H24z M24,78v3h-3v-3H24z M24,82v3
			h-3v-3H24z M24,86v3h-3v-3H24z M24,90v3h-3v-3H24z M24,94v3h-3v-3H24z M24,98v3h-3v-3H24z M24,102v3h-3v-3H24z M24,106v3h-3v-3H24
			z M25,106h3v3h-3V106z M29,106h3v3h-3V106z M33,106h3v3h-3V106z M37,106h3v3h-3V106z M41,106h3v3h-3V106z M45,106h3v3h-3V106z
			 M49,106h3v3h-3V106z M53,106h3v3h-3V106z M57,106h3v3h-3V106z M61,106h3v3h-3V106z M65,106h3v3h-3V106z M69,106h3v3h-3V106z
			 M73,106h3v3h-3V106z M77,106h3v3h-3V106z M81,106h3v3h-3V106z M85,106h3v3h-3V106z M89,106h3v3h-3V106z M93,106h3v3h-3V106z
			 M97,106h3v3h-3V106z M101,106h3v3h-3V106z M105,106h3v3h-3V106z M105,105v-3h3v3H105z M105,101v-3h3v3H105z M105,97v-3h3v3H105z
			 M105,93v-3h3v3H105z M105,89v-3h3v3H105z M105,85v-3h3v3H105z M105,81v-3h3v3H105z M105,77v-3h3v3H105z M105,73v-3h3v3H105z
			 M105,69v-3h3v3H105z M105,65v-3h3v3H105z M105,61v-3h3v3H105z M105,57v-3h3v3H105z M105,53v-3h3v3H105z M105,49v-3h3v3H105z
			 M105,45v-3h3v3H105z M105,41v-3h3v3H105z M105,37v-3h3v3H105z M105,33v-3h3v3H105z M105,29v-3h3v3H105z M105,25v-3h3v3H105z
			 M105,21v-3h3v3H105z M104,21h-3v-3h3V21z M100,21h-3v-3h3V21z M96,21h-3v-3h3V21z M92,21h-3v-3h3V21z M88,21h-3v-3h3V21z M84,21
			h-3v-3h3V21z M80,21h-3v-3h3V21z M76,21h-3v-3h3V21z M72,21h-3v-3h3V21z M68,21h-3v-3h3V21z M64,21h-3v-3h3V21z M60,21h-3v-3h3V21
			z M56,21h-3v-3h3V21z M52,21h-3v-3h3V21z M48,21h-3v-3h3V21z M44,21h-3v-3h3V21z M40,21h-3v-3h3V21z M36,21h-3v-3h3V21z M32,21h-3
			v-3h3V21z M28,21h-3v-3h3V21z M24,21h-3v-3h3V21z M20,21h-3v-3h3V21z M20,22v3h-3v-3H20z M20,26v3h-3v-3H20z M20,30v3h-3v-3H20z
			 M20,34v3h-3v-3H20z M20,38v3h-3v-3H20z M20,42v3h-3v-3H20z M20,46v3h-3v-3H20z M20,50v3h-3v-3H20z M20,54v3h-3v-3H20z M20,58v3
			h-3v-3H20z M20,62v3h-3v-3H20z M20,66v3h-3v-3H20z M20,70v3h-3v-3H20z M20,74v3h-3v-3H20z M20,78v3h-3v-3H20z M20,82v3h-3v-3H20z
			 M20,86v3h-3v-3H20z M20,90v3h-3v-3H20z M20,94v3h-3v-3H20z M20,98v3h-3v-3H20z M20,102v3h-3v-3H20z M20,106v3h-3v-3H20z M20,110
			v3h-3v-3H20z M21,110h3v3h-3V110z M25,110h3v3h-3V110z M29,110h3v3h-3V110z M33,110h3v3h-3V110z M37,110h3v3h-3V110z M41,110h3v3
			h-3V110z M45,110h3v3h-3V110z M49,110h3v3h-3V110z M53,110h3v3h-3V110z M57,110h3v3h-3V110z M61,110h3v3h-3V110z M65,110h3v3h-3
			V110z M69,110h3v3h-3V110z M73,110h3v3h-3V110z M77,110h3v3h-3V110z M81,110h3v3h-3V110z M85,110h3v3h-3V110z M89,110h3v3h-3V110z
			 M93,110h3v3h-3V110z M97,110h3v3h-3V110z M101,110h3v3h-3V110z M105,110h3v3h-3V110z M109,110h3v3h-3V110z M109,109v-3h3v3H109z
			 M109,105v-3h3v3H109z M109,101v-3h3v3H109z M109,97v-3h3v3H109z M109,93v-3h3v3H109z M109,89v-3h3v3H109z M109,85v-3h3v3H109z
			 M109,81v-3h3v3H109z M109,77v-3h3v3H109z M109,73v-3h3v3H109z M109,69v-3h3v3H109z M109,65v-3h3v3H109z M109,61v-3h3v3H109z
			 M109,57v-3h3v3H109z M109,53v-3h3v3H109z M109,49v-3h3v3H109z M109,45v-3h3v3H109z M109,41v-3h3v3H109z M109,37v-3h3v3H109z
			 M109,33v-3h3v3H109z M109,29v-3h3v3H109z M109,25v-3h3v3H109z M109,21v-3h3v3H109z M109,17v-3h3v3H109z M108,17h-3v-3h3V17z
			 M104,17h-3v-3h3V17z M100,17h-3v-3h3V17z M96,17h-3v-3h3V17z M92,17h-3v-3h3V17z M88,17h-3v-3h3V17z M84,17h-3v-3h3V17z M80,17
			h-3v-3h3V17z M76,17h-3v-3h3V17z M72,17h-3v-3h3V17z M68,17h-3v-3h3V17z M64,17h-3v-3h3V17z M60,17h-3v-3h3V17z M56,17h-3v-3h3V17
			z M52,17h-3v-3h3V17z M48,17h-3v-3h3V17z M44,17h-3v-3h3V17z M40,17h-3v-3h3V17z M36,17h-3v-3h3V17z M32,17h-3v-3h3V17z M28,17h-3
			v-3h3V17z M24,17h-3v-3h3V17z M20,17h-3v-3h3V17z M16,17h-3v-3h3V17z M16,18v3h-3v-3H16z M16,22v3h-3v-3H16z M16,26v3h-3v-3H16z
			 M16,30v3h-3v-3H16z M16,34v3h-3v-3H16z M16,38v3h-3v-3H16z M16,42v3h-3v-3H16z M16,46v3h-3v-3H16z M16,50v3h-3v-3H16z M16,54v3
			h-3v-3H16z M16,58v3h-3v-3H16z M16,62v3h-3v-3H16z M16,66v3h-3v-3H16z M16,70v3h-3v-3H16z M16,74v3h-3v-3H16z M16,78v3h-3v-3H16z
			 M16,82v3h-3v-3H16z M16,86v3h-3v-3H16z M16,90v3h-3v-3H16z M16,94v3h-3v-3H16z M16,98v3h-3v-3H16z M16,102v3h-3v-3H16z M16,106v3
			h-3v-3H16z M16,110v3h-3v-3H16z M16,114v3h-3v-3H16z M17,114h3v3h-3V114z M21,114h3v3h-3V114z M25,114h3v3h-3V114z M29,114h3v3h-3
			V114z M33,114h3v3h-3V114z M37,114h3v3h-3V114z M41,114h3v3h-3V114z M45,114h3v3h-3V114z M49,114h3v3h-3V114z M53,114h3v3h-3V114z
			 M57,114h3v3h-3V114z M61,114h3v3h-3V114z M65,114h3v3h-3V114z M69,114h3v3h-3V114z M73,114h3v3h-3V114z M77,114h3v3h-3V114z
			 M81,114h3v3h-3V114z M85,114h3v3h-3V114z M89,114h3v3h-3V114z M93,114h3v3h-3V114z M97,114h3v3h-3V114z M101,114h3v3h-3V114z
			 M105,114h3v3h-3V114z M109,114h3v3h-3V114z M113,114h3v3h-3V114z M113,113v-3h3v3H113z M113,109v-3h3v3H113z M113,105v-3h3v3H113
			z M113,101v-3h3v3H113z M113,97v-3h3v3H113z M113,93v-3h3v3H113z M113,89v-3h3v3H113z M113,85v-3h3v3H113z M113,81v-3h3v3H113z
			 M113,77v-3h3v3H113z M113,73v-3h3v3H113z M113,69v-3h3v3H113z M113,65v-3h3v3H113z M113,61v-3h3v3H113z M113,57v-3h3v3H113z
			 M113,53v-3h3v3H113z M113,49v-3h3v3H113z M113,45v-3h3v3H113z M113,41v-3h3v3H113z M113,37v-3h3v3H113z M113,33v-3h3v3H113z
			 M113,29v-3h3v3H113z M113,25v-3h3v3H113z M113,21v-3h3v3H113z M113,17v-3h3v3H113z M113,13v-3h3v3H113z M112,13h-3v-3h3V13z
			 M108,13h-3v-3h3V13z M104,13h-3v-3h3V13z M100,13h-3v-3h3V13z M96,13h-3v-3h3V13z M92,13h-3v-3h3V13z M88,13h-3v-3h3V13z M84,13
			h-3v-3h3V13z M80,13h-3v-3h3V13z M76,13h-3v-3h3V13z M72,13h-3v-3h3V13z M68,13h-3v-3h3V13z M64,13h-3v-3h3V13z M60,13h-3v-3h3V13
			z M56,13h-3v-3h3V13z M52,13h-3v-3h3V13z M48,13h-3v-3h3V13z M44,13h-3v-3h3V13z M40,13h-3v-3h3V13z M36,13h-3v-3h3V13z M32,13h-3
			v-3h3V13z M28,13h-3v-3h3V13z M24,13h-3v-3h3V13z M20,13h-3v-3h3V13z M16,13h-3v-3h3V13z M12,13H9v-3h3V13z M12,14v3H9v-3H12z
			 M12,18v3H9v-3H12z M12,22v3H9v-3H12z M12,26v3H9v-3H12z M12,30v3H9v-3H12z M12,34v3H9v-3H12z M12,38v3H9v-3H12z M12,42v3H9v-3H12
			z M12,46v3H9v-3H12z M12,50v3H9v-3H12z M12,54v3H9v-3H12z M12,58v3H9v-3H12z M12,62v3H9v-3H12z M12,66v3H9v-3H12z M12,70v3H9v-3
			H12z M12,74v3H9v-3H12z M12,78v3H9v-3H12z M12,82v3H9v-3H12z M12,86v3H9v-3H12z M12,90v3H9v-3H12z M12,94v3H9v-3H12z M12,98v3H9
			v-3H12z M12,102v3H9v-3H12z M12,106v3H9v-3H12z M12,110v3H9v-3H12z M12,114v3H9v-3H12z M12,118v3H9v-3H12z M13,118h3v3h-3V118z
			 M17,118h3v3h-3V118z M21,118h3v3h-3V118z M25,118h3v3h-3V118z M29,118h3v3h-3V118z M33,118h3v3h-3V118z M37,118h3v3h-3V118z
			 M41,118h3v3h-3V118z M45,118h3v3h-3V118z M49,118h3v3h-3V118z M53,118h3v3h-3V118z M57,118h3v3h-3V118z M61,118h3v3h-3V118z
			 M65,118h3v3h-3V118z M69,118h3v3h-3V118z M73,118h3v3h-3V118z M77,118h3v3h-3V118z M81,118h3v3h-3V118z M85,118h3v3h-3V118z
			 M89,118h3v3h-3V118z M93,118h3v3h-3V118z M97,118h3v3h-3V118z M101,118h3v3h-3V118z M105,118h3v3h-3V118z M109,118h3v3h-3V118z
			 M113,118h3v3h-3V118z M117,118h3v3h-3V118z M117,117v-3h3v3H117z M117,113v-3h3v3H117z M117,109v-3h3v3H117z M117,105v-3h3v3H117
			z M117,101v-3h3v3H117z M117,97v-3h3v3H117z M117,93v-3h3v3H117z M117,89v-3h3v3H117z M117,85v-3h3v3H117z M117,81v-3h3v3H117z
			 M117,77v-3h3v3H117z M117,73v-3h3v3H117z M117,69v-3h3v3H117z M117,65v-3h3v3H117z M117,61v-3h3v3H117z M117,57v-3h3v3H117z
			 M117,53v-3h3v3H117z M117,49v-3h3v3H117z M117,45v-3h3v3H117z M117,41v-3h3v3H117z M117,37v-3h3v3H117z M117,33v-3h3v3H117z
			 M117,29v-3h3v3H117z M117,25v-3h3v3H117z M117,21v-3h3v3H117z M117,17v-3h3v3H117z M117,13v-3h3v3H117z M117,9V6h3v3H117z M116,9
			h-3V6h3V9z M112,9h-3V6h3V9z M108,9h-3V6h3V9z M104,9h-3V6h3V9z M100,9h-3V6h3V9z M96,9h-3V6h3V9z M92,9h-3V6h3V9z M88,9h-3V6h3V9
			z M84,9h-3V6h3V9z M80,9h-3V6h3V9z M76,9h-3V6h3V9z M72,9h-3V6h3V9z M68,9h-3V6h3V9z M64,9h-3V6h3V9z M60,9h-3V6h3V9z M56,9h-3V6
			h3V9z M52,9h-3V6h3V9z M48,9h-3V6h3V9z M44,9h-3V6h3V9z M40,9h-3V6h3V9z M36,9h-3V6h3V9z M32,9h-3V6h3V9z M28,9h-3V6h3V9z M24,9
			h-3V6h3V9z M20,9h-3V6h3V9z M16,9h-3V6h3V9z M12,9H9V6h3V9z M8,9H5V6h3V9z M8,10v3H5v-3H8z M8,14v3H5v-3H8z M8,18v3H5v-3H8z M8,22
			v3H5v-3H8z M8,26v3H5v-3H8z M8,30v3H5v-3H8z M8,34v3H5v-3H8z M8,38v3H5v-3H8z M8,42v3H5v-3H8z M8,46v3H5v-3H8z M8,50v3H5v-3H8z
			 M8,54v3H5v-3H8z M8,58v3H5v-3H8z M8,62v3H5v-3H8z M8,66v3H5v-3H8z M8,70v3H5v-3H8z M8,74v3H5v-3H8z M8,78v3H5v-3H8z M8,82v3H5v-3
			H8z M8,86v3H5v-3H8z M8,90v3H5v-3H8z M8,94v3H5v-3H8z M8,98v3H5v-3H8z M8,102v3H5v-3H8z M8,106v3H5v-3H8z M8,110v3H5v-3H8z M8,114
			v3H5v-3H8z M8,118v3H5v-3H8z M8,122v3H5v-3H8z M9,122h3v3H9V122z M13,122h3v3h-3V122z M17,122h3v3h-3V122z M21,122h3v3h-3V122z
			 M25,122h3v3h-3V122z M29,122h3v3h-3V122z M33,122h3v3h-3V122z M37,122h3v3h-3V122z M41,122h3v3h-3V122z M45,122h3v3h-3V122z
			 M49,122h3v3h-3V122z M53,122h3v3h-3V122z M57,122h3v3h-3V122z M61,122h3v3h-3V122z M65,122h3v3h-3V122z M69,122h3v3h-3V122z
			 M73,122h3v3h-3V122z M77,122h3v3h-3V122z M81,122h3v3h-3V122z M85,122h3v3h-3V122z M89,122h3v3h-3V122z M93,122h3v3h-3V122z
			 M97,122h3v3h-3V122z M101,122h3v3h-3V122z M105,122h3v3h-3V122z M109,122h3v3h-3V122z M113,122h3v3h-3V122z M117,122h3v3h-3V122z
			 M121,122h3v3h-3V122z M121,121v-3h3v3H121z M121,117v-3h3v3H121z M121,113v-3h3v3H121z M121,109v-3h3v3H121z M121,105v-3h3v3H121
			z M121,101v-3h3v3H121z M121,97v-3h3v3H121z M121,93v-3h3v3H121z M121,89v-3h3v3H121z M121,85v-3h3v3H121z M121,81v-3h3v3H121z
			 M121,77v-3h3v3H121z M121,73v-3h3v3H121z M121,69v-3h3v3H121z M121,65v-3h3v3H121z M121,61v-3h3v3H121z M121,57v-3h3v3H121z
			 M121,53v-3h3v3H121z M121,49v-3h3v3H121z M121,45v-3h3v3H121z M121,41v-3h3v3H121z M121,37v-3h3v3H121z M121,33v-3h3v3H121z
			 M121,29v-3h3v3H121z M121,25v-3h3v3H121z M121,21v-3h3v3H121z M121,17v-3h3v3H121z M121,13v-3h3v3H121z M121,9V6h3v3H121z M120,2
			v3h-3V2H120z M116,2v3h-3V2H116z M112,2v3h-3V2H112z M108,2v3h-3V2H108z M104,2v3h-3V2H104z M100,2v3h-3V2H100z M96,2v3h-3V2H96z
			 M92,2v3h-3V2H92z M88,2v3h-3V2H88z M84,2v3h-3V2H84z M80,2v3h-3V2H80z M76,2v3h-3V2H76z M72,2v3h-3V2H72z M68,2v3h-3V2H68z M64,2
			v3h-3V2H64z M60,2v3h-3V2H60z M56,2v3h-3V2H56z M52,2v3h-3V2H52z M48,2v3h-3V2H48z M44,2v3h-3V2H44z M40,2v3h-3V2H40z M36,2v3h-3
			V2H36z M32,2v3h-3V2H32z M28,2v3h-3V2H28z M24,2v3h-3V2H24z M20,2v3h-3V2H20z M16,2v3h-3V2H16z M12,2v3H9V2H12z M8,2v3H5V2H8z
			 M2,2h2v3H2V2z M2,6h2v3H2V6z M2,10h2v3H2V10z M2,14h2v3H2V14z M2,18h2v3H2V18z M2,22h2v3H2V22z M2,26h2v3H2V26z M2,30h2v3H2V30z
			 M2,34h2v3H2V34z M2,38h2v3H2V38z M2,42h2v3H2V42z M2,46h2v3H2V46z M2,50h2v3H2V50z M2,54h2v3H2V54z M2,58h2v3H2V58z M2,62h2v3H2
			V62z M2,66h2v3H2V66z M2,70h2v3H2V70z M2,74h2v3H2V74z M2,78h2v3H2V78z M2,82h2v3H2V82z M2,86h2v3H2V86z M2,90h2v3H2V90z M2,94h2
			v3H2V94z M2,98h2v3H2V98z M2,102h2v3H2V102z M2,106h2v3H2V106z M2,110h2v3H2V110z M2,114h2v3H2V114z M2,118h2v3H2V118z M2,122h2v3
			H2V122z M2,128v-2h2v2H2z M5,128v-2h3v2H5z M9,128v-2h3v2H9z M13,128v-2h3v2H13z M17,128v-2h3v2H17z M21,128v-2h3v2H21z M25,128
			v-2h3v2H25z M29,128v-2h3v2H29z M33,128v-2h3v2H33z M37,128v-2h3v2H37z M41,128v-2h3v2H41z M45,128v-2h3v2H45z M49,128v-2h3v2H49z
			 M53,128v-2h3v2H53z M57,128v-2h3v2H57z M61,128v-2h3v2H61z M65,128v-2h3v2H65z M69,128v-2h3v2H69z M73,128v-2h3v2H73z M77,128v-2
			h3v2H77z M81,128v-2h3v2H81z M85,128v-2h3v2H85z M89,128v-2h3v2H89z M93,128v-2h3v2H93z M97,128v-2h3v2H97z M101,128v-2h3v2H101z
			 M105,128v-2h3v2H105z M109,128v-2h3v2H109z M113,128v-2h3v2H113z M117,128v-2h3v2H117z M121,128v-2h3v2H121z M128,128h-3v-2h3
			V128z M128,125h-3v-3h3V125z M128,121h-3v-3h3V121z M128,117h-3v-3h3V117z M128,113h-3v-3h3V113z M128,109h-3v-3h3V109z M128,105
			h-3v-3h3V105z M128,101h-3v-3h3V101z M128,97h-3v-3h3V97z M128,93h-3v-3h3V93z M128,89h-3v-3h3V89z M128,85h-3v-3h3V85z M128,81
			h-3v-3h3V81z M128,77h-3v-3h3V77z M128,73h-3v-3h3V73z M128,69h-3v-3h3V69z M128,65h-3v-3h3V65z M128,61h-3v-3h3V61z M128,57h-3
			v-3h3V57z M128,53h-3v-3h3V53z M128,49h-3v-3h3V49z M128,45h-3v-3h3V45z M128,41h-3v-3h3V41z M128,37h-3v-3h3V37z M128,33h-3v-3h3
			V33z M128,29h-3v-3h3V29z M128,25h-3v-3h3V25z M128,21h-3v-3h3V21z M128,17h-3v-3h3V17z M128,13h-3v-3h3V13z M128,9h-3V6h3V9z
			 M128,5h-3V2h3V5z"/>
	</g>
</g>
<g id="米格_2_">
	<g>
		<path style="fill-rule:evenodd;clip-rule:evenodd;fill:#CCCCCC;" d="M1,1v128h128V1H1z M127.3,2L65,64.3V2H127.3z M64,2v62.3
			L2,2.3V2H64z M2,3.7L63.3,65H2V3.7z M63.3,66L2,127.3V66H63.3z M2.7,128L64,66.7V128H2.7z M65,128V66.7l61.3,61.3H65z M128,128
			h-0.3l-62-62H128V128z M65.7,65L128,2.7V65H65.7z"/>
	</g>
</g>
<path style="fill:none;stroke:#999999;stroke-miterlimit:10;" d="M109,113c0,4.4-3.6,8-8,8H29c-4.4,0-8-3.6-8-8V17c0-4.4,3.6-8,8-8
	h72c4.4,0,8,3.6,8,8V113z"/>
<path style="fill:none;stroke:#999999;stroke-miterlimit:10;" d="M117,109c0,4.4-3.6,8-8,8H21c-4.4,0-8-3.6-8-8V21c0-4.4,3.6-8,8-8
	h88c4.4,0,8,3.6,8,8V109z"/>
<circle style="fill:none;stroke:#999999;stroke-miterlimit:10;" cx="65" cy="65" r="56"/>
<path style="fill:none;stroke:#999999;stroke-miterlimit:10;" d="M121,101c0,4.4-3.6,8-8,8H17c-4.4,0-8-3.6-8-8V29c0-4.4,3.6-8,8-8
	h96c4.4,0,8,3.6,8,8V101z"/>
</svg>
