<?xml version="1.0" encoding="utf-8"?>
<!-- Generator: Adobe Illustrator 17.1.0, SVG Export Plug-In . SVG Version: 6.00 Build 0)  -->
<!DOCTYPE svg PUBLIC "-//W3C//DTD SVG 1.1//EN" "http://www.w3.org/Graphics/SVG/1.1/DTD/svg11.dtd">
<svg version="1.1" id="图层_1" xmlns="http://www.w3.org/2000/svg" xmlns:xlink="http://www.w3.org/1999/xlink" x="0px" y="0px"
	 viewBox="0 0 130.3 130.2" enable-background="new 0 0 130.3 130.2" xml:space="preserve">
<g id="_x31_6方格_3_">
	<g>
		<path fill-rule="evenodd" clip-rule="evenodd" fill="#EBEBEB" d="M129.1,18.1v-1h-16v-16h-1v16h-15v-16h-1v16h-15v-16h-1v16h-30
			v-16h-1v16h-16v-16h-1v16h-15v-16h-1v16h-15v1h15v15h-15v1h15v15h-15v1h15v31h-15v1h15v15h-15v1h15v15h-15v1h15v15h1v-15h15v15h1
			v-15h16v15h1v-15h30v15h1v-15h15v15h1v-15h15v15h1v-15h16v-1h-16v-15h16v-1h-16v-15h16v-1h-16v-31h16v-1h-16v-15h16v-1h-16v-15
			H129.1z M96.1,18.1v15h-15v-15H96.1z M50.1,49.1v-15h30v15H50.1z M80.1,50.1v31h-30v-31H80.1z M49.1,49.1h-16v-15h16V49.1z
			 M49.1,50.1v31h-16v-31H49.1z M49.1,82.1v15h-16v-15H49.1z M50.1,82.1h30v15h-30V82.1z M81.1,82.1h15v15h-15V82.1z M81.1,81.1v-31
			h15v31H81.1z M81.1,49.1v-15h15v15H81.1z M80.1,18.1v15h-30v-15H80.1z M49.1,18.1v15h-16v-15H49.1z M17.1,18.1h15v15h-15V18.1z
			 M17.1,34.1h15v15h-15V34.1z M17.1,50.1h15v31h-15V50.1z M17.1,82.1h15v15h-15V82.1z M17.1,113.1v-15h15v15H17.1z M33.1,113.1v-15
			h16v15H33.1z M50.1,113.1v-15h30v15H50.1z M81.1,113.1v-15h15v15H81.1z M112.1,113.1h-15v-15h15V113.1z M112.1,97.1h-15v-15h15
			V97.1z M112.1,81.1h-15v-31h15V81.1z M112.1,49.1h-15v-15h15V49.1z M112.1,33.1h-15v-15h15V33.1z"/>
	</g>
</g>
<g id="米格_4_">
	<g>
		<path fill-rule="evenodd" clip-rule="evenodd" fill="#D9D9D9" d="M1.1,1.1v128h128V1.1H1.1z M127.4,2.1L65.1,64.4V2.1H127.4z
			 M64.1,2.1v62.3l-62-62V2.1H64.1z M2.1,3.8l61.3,61.3H2.1V3.8z M63.4,66.1L2.1,127.4V66.1H63.4z M2.1,128.1L2.1,128.1L2.1,128.1
			L2.1,128.1z M2.9,128.1l61.3-61.3v61.3H2.9z M65.1,128.1V66.8l61.3,61.3H65.1z M128.1,128.1h-0.3l-62-62h62.3V128.1z M65.9,65.1
			l62.3-62.3v62.3H65.9z M128.1,2.1L128.1,2.1L128.1,2.1L128.1,2.1z"/>
	</g>
</g>
<g>
	<g>
		<path fill-rule="evenodd" clip-rule="evenodd" fill="#D9D9D9" d="M83,66.9L69.1,53v-0.3h-0.3l-1.3-1.3l-0.1,0.1
			c-0.6-0.5-1.4-0.7-2.3-0.7s-1.6,0.3-2.3,0.7l-0.1-0.1l-1.3,1.3h-0.3V53L47.2,66.9c-1.6,1.6-1.6,4.1,0,5.7c1.6,1.6,4.1,1.6,5.7,0
			l8.2-8.2v44.3c0,2.2,1.8,4,4,4c2.2,0,4-1.8,4-4V64.3l8.2,8.2c1.6,1.6,4.1,1.6,5.7,0C84.6,71,84.6,68.4,83,66.9z M69.4,22.8
			L69.4,22.8c-0.3-0.1-0.6-0.1-0.9-0.1c-1.7,0-3,1.3-3,3c0,1.3,0.8,2.3,2,2.8l0,0c0.1,0,0.2,0,0.2,0c0.3,0.1,0.6,0.1,0.9,0.1
			c0.1,0,0.2,0,0.3,0c4.8,0.5,8.4,2.2,11.4,5.2l0,0c0.6,0.7,1.4,1.1,2.3,1.1c1.7,0,3-1.3,3-3c0-1-0.5-1.9-1.3-2.4l0,0
			C80.4,25.9,75.5,23.5,69.4,22.8z M92.1,40.4c0-0.1-0.1-0.2-0.1-0.3c-0.3-0.6-0.6-1.2-0.9-1.8l-0.2,0.1c-0.3-1.4-1.5-2.4-3-2.4
			c-1.7,0-3,1.3-3,3c0,0.5,0.1,0.9,0.3,1.3l0,0c0.4,0.7,0.8,1.4,1.2,2.2c0.1,0.2,0.2,0.4,0.3,0.6c0.1,0.1,0.1,0.3,0.2,0.4l0.1,0
			c0.6,0.6,1.3,0.9,2.2,0.9c1.7,0,3-1.3,3-3c0-0.3-0.1-0.5-0.1-0.8l0,0C92.1,40.6,92.1,40.5,92.1,40.4z M104.4,43
			c-3.6-18.4-19.8-32.4-39.3-32.4c-19.5,0-35.7,13.9-39.3,32.4C16,47.3,9.1,57.2,9.1,68.6c0,14.8,11.5,26.9,26,27.9v0.1h10h0
			c2.2,0,4-1.8,4-4c0-2.2-1.8-4-4-4h0h-9v-0.1c-10.6-0.5-19-9.2-19-19.9c0-9.7,6.9-17.8,16-19.6C34,32.1,48,18.6,65.1,18.6
			c17.1,0,31.1,13.5,31.9,30.4c9.2,1.8,16.1,9.9,16.1,19.6c0,11-9,20-20,20c-0.3,0-0.7,0-1-0.1v0.1h-7h0c-2.2,0-4,1.8-4,4
			c0,2.2,1.8,4,4,4h0h7v0c0.3,0,0.7,0,1,0c15.5,0,28-12.5,28-28C121.1,57.2,114.3,47.3,104.4,43z"/>
	</g>
	<g>
		<path fill="none" stroke="#CCCCCC" stroke-miterlimit="10" d="M83,66.9L69.1,53v-0.3h-0.3l-1.3-1.3l-0.1,0.1
			c-0.6-0.5-1.4-0.7-2.3-0.7s-1.6,0.3-2.3,0.7l-0.1-0.1l-1.3,1.3h-0.3V53L47.2,66.9c-1.6,1.6-1.6,4.1,0,5.7c1.6,1.6,4.1,1.6,5.7,0
			l8.2-8.2v44.3c0,2.2,1.8,4,4,4c2.2,0,4-1.8,4-4V64.3l8.2,8.2c1.6,1.6,4.1,1.6,5.7,0C84.6,71,84.6,68.4,83,66.9z M69.4,22.8
			L69.4,22.8c-0.3-0.1-0.6-0.1-0.9-0.1c-1.7,0-3,1.3-3,3c0,1.3,0.8,2.3,2,2.8l0,0c0.1,0,0.2,0,0.2,0c0.3,0.1,0.6,0.1,0.9,0.1
			c0.1,0,0.2,0,0.3,0c4.8,0.5,8.4,2.2,11.4,5.2l0,0c0.6,0.7,1.4,1.1,2.3,1.1c1.7,0,3-1.3,3-3c0-1-0.5-1.9-1.3-2.4l0,0
			C80.4,25.9,75.5,23.5,69.4,22.8z M92.1,40.4c0-0.1-0.1-0.2-0.1-0.3c-0.3-0.6-0.6-1.2-0.9-1.8l-0.2,0.1c-0.3-1.4-1.5-2.4-3-2.4
			c-1.7,0-3,1.3-3,3c0,0.5,0.1,0.9,0.3,1.3l0,0c0.4,0.7,0.8,1.4,1.2,2.2c0.1,0.2,0.2,0.4,0.3,0.6c0.1,0.1,0.1,0.3,0.2,0.4l0.1,0
			c0.6,0.6,1.3,0.9,2.2,0.9c1.7,0,3-1.3,3-3c0-0.3-0.1-0.5-0.1-0.8l0,0C92.1,40.6,92.1,40.5,92.1,40.4z M104.4,43
			c-3.6-18.4-19.8-32.4-39.3-32.4c-19.5,0-35.7,13.9-39.3,32.4C16,47.3,9.1,57.2,9.1,68.6c0,14.8,11.5,26.9,26,27.9v0.1h10h0
			c2.2,0,4-1.8,4-4c0-2.2-1.8-4-4-4h0h-9v-0.1c-10.6-0.5-19-9.2-19-19.9c0-9.7,6.9-17.8,16-19.6C34,32.1,48,18.6,65.1,18.6
			c17.1,0,31.1,13.5,31.9,30.4c9.2,1.8,16.1,9.9,16.1,19.6c0,11-9,20-20,20c-0.3,0-0.7,0-1-0.1v0.1h-7h0c-2.2,0-4,1.8-4,4
			c0,2.2,1.8,4,4,4h0h7v0c0.3,0,0.7,0,1,0c15.5,0,28-12.5,28-28C121.1,57.2,114.3,47.3,104.4,43z"/>
	</g>
</g>
<circle fill="none" stroke="#999999" stroke-miterlimit="10" cx="65.1" cy="50.1" r="40"/>
<circle fill="none" stroke="#999999" stroke-miterlimit="10" cx="65.1" cy="66.1" r="56"/>
<circle fill="none" stroke="#999999" stroke-miterlimit="10" cx="93.1" cy="68.6" r="28"/>
<circle fill="none" stroke="#999999" stroke-miterlimit="10" cx="37.1" cy="68.6" r="28"/>
</svg>
