<?xml version="1.0" encoding="utf-8"?>
<!-- Generator: Adobe Illustrator 17.1.0, SVG Export Plug-In . SVG Version: 6.00 Build 0)  -->
<!DOCTYPE svg PUBLIC "-//W3C//DTD SVG 1.1//EN" "http://www.w3.org/Graphics/SVG/1.1/DTD/svg11.dtd">
<svg version="1.1" id="图层_1" xmlns="http://www.w3.org/2000/svg" xmlns:xlink="http://www.w3.org/1999/xlink" x="0px" y="0px"
	 viewBox="0 0 186 186" style="enable-background:new 0 0 186 186;" xml:space="preserve">
<g id="形状_583">
	<g>
		<circle style="fill-rule:evenodd;clip-rule:evenodd;fill:#ECECEC;" cx="93" cy="93" r="90"/>
	</g>
</g>
<path style="fill:#FFD6B4;" d="M180,116.9C167.2,98.8,150.4,66,143,66c-10.2,0-21.4,30.8-33.6,30.8S93.9,76,86,76
	c-7.9,0-12.6,27-24,27c-11.4,0-11.5-16-17-16s-8.2,17-16,17c-6.3,0-15-19.6-24.3-27.3C3.6,82.3,3,88.1,3,94c0,12.3,2.5,24.1,7,34.8
	c53.7,0,132.1,0,166.1,0C177.6,124.9,179,121,180,116.9z"/>
<g id="形状_18_副本_8">
	<g>
		<circle style="fill-rule:evenodd;clip-rule:evenodd;fill:#FDBC52;" cx="45.5" cy="89.5" r="3.2"/>
	</g>
</g>
<g id="形状_18_副本_9">
	<g>
		<circle style="fill-rule:evenodd;clip-rule:evenodd;fill:#FDBC52;" cx="86.5" cy="77.5" r="4.5"/>
	</g>
</g>
<g id="形状_18_副本_10">
	<g>
		<circle style="fill-rule:evenodd;clip-rule:evenodd;fill:#FDBC52;" cx="143.5" cy="65.5" r="4.5"/>
	</g>
</g>
<path style="fill:#7A9DAE;" d="M17.2,140.7c-0.1,0.1-0.1,0.2-0.2,0.3c1.9,2.9,3.9,5.8,6.1,8.4c41-0.1,141.3-0.2,136.9-0.2
	c-4.3,0-8-3.4-11.3-7.9L17.2,140.7"/>
<path style="fill-rule:evenodd;clip-rule:evenodd;fill:#F7987D;" d="M16.3,140.7l153.1,0.6c8.7-13.8,13.7-30,13.7-47.5
	c0-1.9-0.1-3.8-0.2-5.6c-4-7.6-8-13.6-12.3-13.6c-12.3,0-21.4,30.9-29.3,30.9c-7.9,0-17.5-18.8-24.4-18.8
	c-7.8,0-18.1,33.7-31.5,33.7c-5.2,0-6.9-18.8-14.5-18.8c-7.7,0-10.3,22.8-19.5,22.8c-9.2,0-20.2-28-33.2-28
	c-4.2,0-9.2,4.6-14.1,10.8C5.9,119.4,10.1,130.7,16.3,140.7"/>
<path style="fill:#848F85;" d="M17.2,140.7 M17.2,140.7 M39.9,111.8c-0.8,0-1.7,0.2-2.5,0.5c5,6.4,9.6,12.3,13.9,12.3
	c1.4,0,2.6-0.5,3.7-1.4C50.6,117.4,46.3,111.8,39.9,111.8"/>
<path style="fill:#80655C;" d="M37.5,112.2c-7.6,2.9-13.7,18.4-20.2,28.4l131.5,0.6c-7.1-9.7-12.9-24.8-20.1-24.8
	c-10.6,0-11.4,19.1-19.4,19.3c-0.1,0-0.1,0-0.2,0c-7.5,0-9.5-11.7-17.4-11.7c-7.9,0-7.2,11.2-20.2,11.2c-0.2,0-0.3,0-0.5,0
	c-6.8-0.1-11.4-6.2-16-12.1c-1.1,0.9-2.4,1.4-3.7,1.4C47.1,124.5,42.5,118.6,37.5,112.2"/>
<g id="形状_18_副本_2">
	<g>
		<circle style="fill-rule:evenodd;clip-rule:evenodd;fill:#4D2D26;" cx="70.7" cy="103.3" r="3.3"/>
	</g>
</g>
<g id="形状_18_副本_6">
	<g>
		<circle style="fill-rule:evenodd;clip-rule:evenodd;fill:#4D2D26;" cx="86.5" cy="120.5" r="2.8"/>
	</g>
</g>
<g id="形状_18_副本_5">
	<g>
		<circle style="fill-rule:evenodd;clip-rule:evenodd;fill:#4D2D26;" cx="141.5" cy="105.5" r="4.8"/>
	</g>
</g>
<g id="形状_18_副本_3">
	<g>
		<circle style="fill-rule:evenodd;clip-rule:evenodd;fill:#4D2D26;" cx="117.5" cy="87.5" r="5"/>
	</g>
</g>
<g id="形状_18_副本_6_2_">
	<g>
		<circle style="fill-rule:evenodd;clip-rule:evenodd;fill:#4D2D26;" cx="18.5" cy="97.5" r="3.4"/>
	</g>
</g>
</svg>
