<?xml version="1.0" encoding="utf-8"?>
<!-- Generator: Adobe Illustrator 17.1.0, SVG Export Plug-In . SVG Version: 6.00 Build 0)  -->
<!DOCTYPE svg PUBLIC "-//W3C//DTD SVG 1.1//EN" "http://www.w3.org/Graphics/SVG/1.1/DTD/svg11.dtd">
<svg version="1.1" id="图层_1" xmlns="http://www.w3.org/2000/svg" xmlns:xlink="http://www.w3.org/1999/xlink" x="0px" y="0px"
	 viewBox="0 0 84.8 27.9" enable-background="new 0 0 84.8 27.9" xml:space="preserve">
<g>
	<path fill="#333333" d="M13.5,22.1c6.3,0,11.1,0,14.5-0.1c-0.4,1.1-0.9,2.4-1.3,4c-4,0-6.9,0-8.5,0c-2-0.1-3.9-0.1-5.7-0.2
		c-2.7-0.1-4.7-1-6-2.8c-1.3,1.2-2.5,2.4-3.6,3.7L1.4,22c0.4-0.3,0.9-0.7,1.5-1.3c0.7-0.6,1.2-1,1.5-1.3v-5.9H1.7V9.2h7v10.3
		C9.8,21.3,11.4,22.2,13.5,22.1z M6.5,0.3c1.3,2,2.4,4,3.4,5.9L5.8,8.1C5.6,7.8,5.4,7.3,5,6.6C4.6,5.5,3.8,4,2.7,2.1L6.5,0.3z
		 M21.2,12.5c0.6,0.6,1.4,1.4,2.4,2.3c1.5,1.6,2.7,2.8,3.5,3.6l-3.5,3c-0.3-0.4-0.8-0.9-1.4-1.5c-1.4-1.7-2.6-3.1-3.6-4.2
		c-1.2,2-3.2,3.9-6.2,5.8c-0.8-0.9-1.8-2.1-3-3.6c4.2-2.3,6.3-5,6.2-8h-5.2V5.9h5.5c0-1.8,0-3.6,0-5.2h4.6c0,2.6,0,4.3-0.1,5.2h6.6
		v3.9h-6.7c-0.1,1.5-0.4,2.8-0.9,4.2L21.2,12.5z"/>
	<path fill="#333333" d="M35,13.2c0.1,5.9-0.6,10.5-2.3,13.8c-0.4-0.4-1-0.9-1.9-1.6c-0.7-0.5-1.1-0.9-1.4-1.2
		c1.2-2.6,1.8-6.3,1.8-11.3V2.3h10.5c-0.2-0.5-0.4-1.1-0.7-1.9l5.1-0.3c0.2,0.7,0.4,1.4,0.7,2.2h9.1v3.1h-4.2v1.2h3.7V9h-2.7
		c0.9,0.8,2,1.4,3.4,1.9c-0.4,0.7-0.9,1.6-1.3,2.5c-1.5-0.7-2.5-1.4-3.1-2.1V13h-3.4v-1.8c-0.4,0.4-1.1,1-2.3,1.8
		c0.1,0,0.1,0.1-0.2,0.2c-0.3-0.6-0.6-1.1-1-1.5l-1,0.9l-1.5-1.4v2.1h-3.4v-2.1c-0.8,0.9-1.7,1.6-2.7,2.1c-0.1-0.2-0.3-0.5-0.5-0.8
		c-0.3-0.4-0.5-0.6-0.7-0.8V13.2z M35.8,16.2c0-0.4-0.1-1-0.2-1.9c-0.1-0.3-0.1-0.5-0.1-0.7c5.1,0,8.7,0,10.7,0
		c2.6-0.1,5.4-0.1,8.2-0.2l0.2,2.5c-2.4,0.1-4.7,0.1-7,0.1v1h6.8v2.2h-6.8v1H56V23h-8.3v0.1c0.1,2.1-1,3.2-3.2,3.3
		c-1,0.1-2.7,0.1-5.1,0.1c0-0.1,0-0.3-0.1-0.5c-0.1-0.5-0.4-1.3-0.7-2.3c1.2,0,2.4,0,3.4,0c0.8,0,1.3-0.2,1.4-0.7h-8.5v-2.7h8.5v-1
		h-7v-2.2h7v-0.9C41.1,16.2,38.6,16.2,35.8,16.2z M35.6,6.6h3.3V5.4H35v5.5c1.2-0.5,2.1-1.1,2.8-1.9h-2.2V6.6z M45.6,6.6h2.7V5.4h-6
		v1.2h2.6V9h-2.6v1.2l1.2-1.1l1.9,1.3c0.7-0.3,1.4-0.8,2.1-1.4h-1.9V6.6z"/>
	<path fill="#333333" d="M65.5,12c1.2,1.8,1.9,3.8,1.9,5.9c0.1,3.2-0.9,5-3.1,5.2c-0.1,0-0.4,0-0.7,0.1c-0.4,0-0.6,0-0.8,0.1l-1-3
		v6.1h-3.5V1.3h8.8v3.8L65.5,12z M61.9,5.2V19h0.8c0.7,0.1,1.1-0.6,1.1-2.1c0-1.2-0.5-2.8-1.6-4.7l1.5-7H61.9z M80.8,18.6
		c1.1,0.4,2.2,0.8,3.3,1.2c0,0.1,0,0.3-0.1,0.5c-0.1,1.6-0.3,2.7-0.5,3.3c-0.1,1.6-1.3,2.4-3.5,2.4H79c-2.5,0.1-3.7-0.9-3.6-3v-5.7
		H74c0.1,4.2-1.8,7.3-5.8,9.4c-0.2-0.3-0.7-0.8-1.4-1.5c-0.7-0.8-1.1-1.4-1.4-1.6c3.4-1.3,4.9-3.4,4.7-6.2h-2.6v-3.7h16.3v3.7h-4.4
		v4.5c0,0.6,0.2,0.9,0.5,0.9c0.4,0,0.5-0.3,0.5-0.8C80.7,21,80.8,19.9,80.8,18.6z M67.5,2.9h5.7c-0.3-0.7-0.5-1.5-0.7-2.3l4.9-0.3
		c0.1,0.4,0.2,1,0.4,2C77.9,2.6,78,2.8,78,2.9h5.6v6h-1.4v3.2H69V9h-1.5V2.9z M71.3,6.6v2h8.4v-2H71.3z"/>
</g>
</svg>
