<?xml version="1.0" encoding="utf-8"?>
<!-- Generator: Adobe Illustrator 17.1.0, SVG Export Plug-In . SVG Version: 6.00 Build 0)  -->
<!DOCTYPE svg PUBLIC "-//W3C//DTD SVG 1.1//EN" "http://www.w3.org/Graphics/SVG/1.1/DTD/svg11.dtd">
<svg version="1.1" id="图层_1" xmlns="http://www.w3.org/2000/svg" xmlns:xlink="http://www.w3.org/1999/xlink" x="0px" y="0px"
	 viewBox="0 0 186 186" style="enable-background:new 0 0 186 186;" xml:space="preserve">
<g>
	<defs>
		<circle id="SVGID_1_" cx="92.4" cy="92" r="90"/>
	</defs>
	<clipPath id="SVGID_2_">
		<use xlink:href="#SVGID_1_"  style="overflow:visible;"/>
	</clipPath>
	<g id="形状_583_1_" style="clip-path:url(#SVGID_2_);">
		<g>
			<circle style="fill-rule:evenodd;clip-rule:evenodd;fill:#ECECEC;" cx="92.9" cy="92" r="90"/>
		</g>
	</g>
	<path style="clip-path:url(#SVGID_2_);fill-rule:evenodd;clip-rule:evenodd;fill:#4D2D26;" d="M127,54H63c-3.3,0-6,2.7-6,6v134
		c0,3.3,2.7,6,6,6h64c3.3,0,6-2.7,6-6V60C133,56.6,130.3,54,127,54"/>
	<path style="clip-path:url(#SVGID_2_);fill-rule:evenodd;clip-rule:evenodd;fill:#84AABC;" d="M125,60H65c-1.1,0-2,0.9-2,2v135
		c0,1.1,0.9,2,2,2h60c1.1,0,2-0.9,2-2V62C127,60.8,126.1,60,125,60"/>
	<path style="clip-path:url(#SVGID_2_);fill-rule:evenodd;clip-rule:evenodd;fill:#F7987D;" d="M-2,70v23h20V70H-2"/>
	<path style="clip-path:url(#SVGID_2_);fill:none;" d="M33,86h-5v7h5V86"/>
	<path style="clip-path:url(#SVGID_2_);fill:#628CBB;" d="M186,85h-9v8h-4h13V85"/>
	<path style="clip-path:url(#SVGID_2_);fill:#5A6038;" d="M177,85h-4v8h4V85"/>
	<path style="clip-path:url(#SVGID_2_);fill:#FDBC52;" d="M163,73h-10v11.8l4,1.2v7h16v-8h4v-8L163,73"/>
	<path style="clip-path:url(#SVGID_2_);fill:#ECBA2E;" d="M146,82.7V93h11h-4v-8.2L146,82.7"/>
	<path style="clip-path:url(#SVGID_2_);fill:#EA8810;" d="M153,84.8V93h4v-7L153,84.8"/>
	<path style="clip-path:url(#SVGID_2_);fill:#5B6623;" d="M142,81.5V93h4V82.7L142,81.5"/>
	<path style="clip-path:url(#SVGID_2_);fill:#5B82AD;" d="M146,73.1c0,0-4,0.7-7.1,2c-3.5,1.4-5.9,3-5.9,3V93h13h-4V81.5l4,1.2V73.1
		"/>
	<path style="clip-path:url(#SVGID_2_);fill:#517DAD;" d="M122,72.6l-16,4V93h9v-8h7V72.6"/>
	<path style="clip-path:url(#SVGID_2_);fill:#325C9F;" d="M122,85h-7v8h7V85"/>
	<path style="clip-path:url(#SVGID_2_);fill:#517DAD;" d="M127,85h-5v8h-7h12V85"/>
	<path style="clip-path:url(#SVGID_2_);fill:#517DAD;" d="M102,88h-9v5h9V88"/>
	<path style="clip-path:url(#SVGID_2_);fill:#325C9F;" d="M93,88h-4v5h4V88"/>
	<path style="clip-path:url(#SVGID_2_);fill:#517DAD;" d="M82.1,76H70v8h5v9h-5h23h-4v-5h4v-5.3L82.1,76"/>
	<path style="clip-path:url(#SVGID_2_);fill:#325C9F;" d="M75,84h-5v9h5V84"/>
	<path style="clip-path:url(#SVGID_2_);fill:#517DAD;" d="M70,84h-7v9h7V84"/>
	<path style="clip-path:url(#SVGID_2_);fill:#302123;" d="M63,84h-1v9h1V84"/>
	<path style="clip-path:url(#SVGID_2_);fill:#436587;" d="M94.3,99.7c-10.9,0-19.7,8.8-19.7,19.7c0,10.9,8.8,19.7,19.7,19.7
		c10.9,0,19.7-8.8,19.7-19.7C114,108.5,105.2,99.7,94.3,99.7"/>
	<path style="clip-path:url(#SVGID_2_);fill-rule:evenodd;clip-rule:evenodd;fill:#FFFFFF;" d="M89,110v0.3l0.2-0.1L89,110z
		 M101.5,117.4l-9.6-5.7l0,0c-0.3-0.1-0.5-0.2-0.8-0.2c-1.2,0-2.1,0.9-2.2,2.1l0,0v12.6l0.2-0.1c0.4,0.7,1.1,1.2,1.9,1.2
		c0.2,0,0.5,0,0.7-0.1l0,0.1l9.7-5.7c0.9-0.3,1.6-1.1,1.6-2.1C103.1,118.5,102.4,117.7,101.5,117.4z"/>
	<path style="clip-path:url(#SVGID_2_);fill-rule:evenodd;clip-rule:evenodd;fill:#FFD6B4;" d="M66.1,113c-0.4-4.4-4.4-8.3-4.4-8.3
		L36,132.8V174l19.9,10.8v-37.2l-3.3-9.8c0,0,7.1-6.6,10.2-10.8C66,122.9,66.5,117.8,66.1,113z"/>
	<path style="clip-path:url(#SVGID_2_);fill-rule:evenodd;clip-rule:evenodd;fill:#FFD6B4;" d="M143.9,125.9c-2.7-2.7-7-2.8-9.5-0.3
		l-4.4,4.4c-2.6,2.6-2.4,6.8,0.3,9.5c2.7,2.7,7,2.8,9.5,0.3l4.4-4.4C146.7,132.8,146.6,128.6,143.9,125.9z"/>
	<path style="clip-path:url(#SVGID_2_);fill-rule:evenodd;clip-rule:evenodd;fill:#FFD6B4;" d="M145.9,139.9c-2.7-2.7-7-2.8-9.5-0.3
		l-7.4,7.4c-2.6,2.6-2.4,6.8,0.3,9.5c2.7,2.7,7,2.8,9.5,0.3l7.4-7.4C148.7,146.8,148.6,142.6,145.9,139.9z"/>
	<path style="clip-path:url(#SVGID_2_);fill-rule:evenodd;clip-rule:evenodd;fill:#FFD6B4;" d="M145.9,155.9c-2.7-2.7-7-2.8-9.5-0.3
		l-7.4,7.4c-2.6,2.6-2.4,6.8,0.3,9.5c2.7,2.7,7,2.8,9.5,0.3l7.4-7.4C148.7,162.8,148.6,158.6,145.9,155.9z"/>
	<path style="clip-path:url(#SVGID_2_);fill-rule:evenodd;clip-rule:evenodd;fill:#FFFFFF;" d="M133.2,130.7c0,0-4.2,3.1-1.3,6.1
		c3.3,3.3,6.6-0.4,6.6-0.4L133.2,130.7z"/>
	<path style="clip-path:url(#SVGID_2_);fill-rule:evenodd;clip-rule:evenodd;fill:#FFFFFF;" d="M133.2,146.7c0,0-4.2,3.1-1.3,6.1
		c3.3,3.3,6.6-0.4,6.6-0.4L133.2,146.7z"/>
	<path style="clip-path:url(#SVGID_2_);fill:#A79E6D;" d="M57,76H44v17h13V76"/>
	<path style="clip-path:url(#SVGID_2_);fill:#ECBA2E;" d="M41,86h-8v7h8V86"/>
	<path style="clip-path:url(#SVGID_2_);fill:#5B82AD;" d="M33,76.3l-15,3.5V93h15h-5v-7h5V76.3"/>
	<path style="clip-path:url(#SVGID_2_);fill:#5F535C;" d="M18,79.8L13,81v12h5V79.8"/>
	<path style="clip-path:url(#SVGID_2_);fill:#5B6623;" d="M33,86h-5v7h5V86"/>
</g>
</svg>
