<?xml version="1.0" encoding="utf-8"?>
<!-- Generator: Adobe Illustrator 17.1.0, SVG Export Plug-In . SVG Version: 6.00 Build 0)  -->
<!DOCTYPE svg PUBLIC "-//W3C//DTD SVG 1.1//EN" "http://www.w3.org/Graphics/SVG/1.1/DTD/svg11.dtd">
<svg version="1.1" id="图层_1" xmlns="http://www.w3.org/2000/svg" xmlns:xlink="http://www.w3.org/1999/xlink" x="0px" y="0px"
	 viewBox="0 0 130.6 129" enable-background="new 0 0 130.6 129" xml:space="preserve">
<g id="底圆_4_">
	<g>
		<circle fill-rule="evenodd" clip-rule="evenodd" fill="#ECECEC" cx="65.3" cy="64.4" r="64"/>
	</g>
</g>
<g id="矩形_129">
	<g>
		<path fill-rule="evenodd" clip-rule="evenodd" fill="#83A0AE" d="M97.3,32.4h-8c-2.2,0-4,1.8-4,4v62c0,2.2,1.8,4,4,4h8
			c2.2,0,4-1.8,4-4v-62C101.3,34.1,99.5,32.4,97.3,32.4z"/>
	</g>
</g>
<g id="矩形_130">
	<g>
		<path fill-rule="evenodd" clip-rule="evenodd" fill="#C7E5F3" d="M85.3,36.4v2h8v-2H85.3z M85.3,50.4h8v-2h-8V50.4z M85.3,62.4h8
			v-2h-8V62.4z M85.3,74.4h8v-2h-8V74.4z M85.3,86.4h8v-2h-8V86.4z M85.3,98.4h8v-2h-8V98.4z M89.3,42.4h-4v2h4V42.4z M89.3,54.4h-4
			v2h4V54.4z M89.3,66.4h-4v2h4V66.4z M89.3,78.4h-4v2h4V78.4z M89.3,90.4h-4v2h4V90.4z"/>
	</g>
</g>
<g id="矩形_134">
	<g>
		<path fill-rule="evenodd" clip-rule="evenodd" fill="#FFD6B4" d="M71.3,32.4h-36c-4.4,0-8,3.6-8,8v54c0,4.4,3.6,8,8,8h30L70,91.9
			l9.4-3.5v-48C79.3,35.9,75.7,32.4,71.3,32.4z"/>
	</g>
</g>
<g id="矩形_139">
	<g>
		<path fill-rule="evenodd" clip-rule="evenodd" fill="#C2ACA7" d="M72.3,40.4h-38c-0.6,0-1,0.4-1,1v2c0,0.6,0.4,1,1,1h38
			c0.6,0,1-0.4,1-1v-2C73.3,40.8,72.9,40.4,72.3,40.4z M72.3,68.4h-38c-0.6,0-1,0.4-1,1v2c0,0.6,0.4,1,1,1h38c0.6,0,1-0.4,1-1v-2
			C73.3,68.8,72.9,68.4,72.3,68.4z M72.3,76.4h-38c-0.6,0-1,0.4-1,1v2c0,0.6,0.4,1,1,1h38c0.6,0,1-0.4,1-1v-2
			C73.3,76.8,72.9,76.4,72.3,76.4z M54.3,84.4h-20c-0.6,0-1,0.4-1,1v2c0,0.6,0.4,1,1,1h20c0.6,0,1-0.4,1-1v-2
			C55.3,84.8,54.9,84.4,54.3,84.4z M54.3,92.4h-20c-0.6,0-1,0.4-1,1v2c0,0.6,0.4,1,1,1h20c0.6,0,1-0.4,1-1v-2
			C55.3,92.8,54.9,92.4,54.3,92.4z"/>
	</g>
</g>
<g id="矩形_140">
	<g>
		<path fill-rule="evenodd" clip-rule="evenodd" fill="#CD7C64" d="M72.3,48.4h-38c-0.6,0-1,0.4-1,1v14c0,0.6,0.4,1,1,1h38
			c0.6,0,1-0.4,1-1v-14C73.3,48.8,72.9,48.4,72.3,48.4z"/>
	</g>
</g>
<g id="形状_648">
	<g>
		<path fill-rule="evenodd" clip-rule="evenodd" fill="#866D62" d="M69.3,88.4c-2.2,0-4,1.8-4,4v10h2c6.6,0,12-5.4,12-12v-2H69.3z"
			/>
	</g>
</g>
</svg>
