<?xml version="1.0" encoding="utf-8"?>
<!-- Generator: Adobe Illustrator 19.0.0, SVG Export Plug-In . SVG Version: 6.00 Build 0)  -->
<svg version="1.1" id="图层_1" xmlns="http://www.w3.org/2000/svg" xmlns:xlink="http://www.w3.org/1999/xlink" x="0px" y="0px"
	 viewBox="0 0 340 340" style="enable-background:new 0 0 340 340;" xml:space="preserve">
<style type="text/css">
	.st0{fill:none;stroke:#FF6600;stroke-width:4;stroke-miterlimit:10;}
	.st1{fill-rule:evenodd;clip-rule:evenodd;fill:#CCCCCC;}
</style>
<g id="底圆_拷贝_11_3_">
	<g id="XMLID_11_">
		<path id="XMLID_12_" class="st0" d="M169.9,10.5C82.9,10.6,10.1,83.4,10,170.4c-0.1,88.5,71.7,160.2,160.1,160.1
			c87-0.1,159.8-72.9,159.9-159.9C330.1,82.2,258.3,10.4,169.9,10.5z"/>
	</g>
</g>
<g id="形状_40">
	<g id="XMLID_29_">
		<path id="XMLID_30_" class="st1" d="M255.7,83.5c-1.2-6-9.9-0.5-9.9-0.5s-16.5,9.2-34,31.3c1.8-11.4-0.1-20-0.1-20
			c-0.7-1.1-1.6-0.8-2.3-0.5c-27.8,13-36.5,37.4-39.3,49.9c-0.1,0-0.1,0-0.2,0c0,0,0,0,0,0c-3.7-15-14-37.7-39.4-50.1
			c-1.1-0.5-2.3-0.8-2.8,1c0,0-1.8,8.2-0.1,19.2c-17.3-21.7-33.5-30.7-33.5-30.7s-8.7-5.5-9.9,0.5c-11.7,68.7,36.4,89.1,45.8,92.4
			c-1.7,6.3-3,12.7-4.6,17.5c-2.2,6.9-7,36.4,5.1,54.7c-0.1,0.1,5.2,6.4,14.8,16c7.9,7.9,12.4,14.4,22.5,15c0.1,0,0.1,0,0.2,0
			c0.1,0,0.1,0,0.2,0c0.8,0,1.7,0,2.6,0c0.2,0,0.3,0,0.5-0.1c12.5-0.9,16.6-8.7,24.5-15.7c10.1-9.1,14-15.2,13.9-15.3
			c12-18.3,7.2-47.8,5.1-54.7c-1.5-4.9-3-11.3-4.8-17.6C219.3,172.5,267.5,152.1,255.7,83.5z M170,271.4c-5.6,0-14.5-5.1-13.8-10.7
			c0.6-4.4,5.1-6,13.8-6c8.9,0,13.5,1.5,13.9,6C184.5,265.7,177,271.4,170,271.4z"/>
	</g>
</g>
</svg>
