<?xml version="1.0" encoding="utf-8"?>
<!-- Generator: Adobe Illustrator 19.0.0, SVG Export Plug-In . SVG Version: 6.00 Build 0)  -->
<svg version="1.1" id="图层_1" xmlns="http://www.w3.org/2000/svg" xmlns:xlink="http://www.w3.org/1999/xlink" x="0px" y="0px"
	 viewBox="0 0 340 340" style="enable-background:new 0 0 340 340;" xml:space="preserve">
<style type="text/css">
	.st0{fill-rule:evenodd;clip-rule:evenodd;fill:#EDEBAC;}
	.st1{fill-rule:evenodd;clip-rule:evenodd;fill:#FAFAFA;}
	.st2{fill-rule:evenodd;clip-rule:evenodd;fill:#87934A;}
	.st3{fill-rule:evenodd;clip-rule:evenodd;fill:#6D7834;}
	.st4{fill-rule:evenodd;clip-rule:evenodd;fill:#FFFFFF;}
	.st5{fill-rule:evenodd;clip-rule:evenodd;fill:#B1B23B;}
	.st6{fill-rule:evenodd;clip-rule:evenodd;fill:#C9CA5A;}
</style>
<g id="底圆_拷贝_7_1_">
	<g id="XMLID_41_">
		<circle id="XMLID_42_" class="st0" cx="170" cy="169.8" r="160"/>
	</g>
</g>
<g id="椭圆_56">
	<g id="XMLID_36_">
		<path id="XMLID_37_" class="st1" d="M145.5,146c-35.1,0-63.5,28.4-63.5,63.5c0,35.1,21.9,51.5,57,51.5c35.1,0,70-16.4,70-51.5
			C209,174.4,180.6,146,145.5,146z"/>
	</g>
</g>
<g id="矩形_12_拷贝">
	<g id="XMLID_25_">
		<path id="XMLID_26_" class="st2" d="M273,249.3c-9.3-1.7-39.8-25.9-51-30.3c-18.6-5.6-68.9-6.7-85.9,0.9
			c-12.5,5.6-26.8,22.3-51.7,29.2c-17.6,4.9-6.6,10.5,1,12.1c17.9,3.8,55.7,6.3,91.3,6.5c38,0.2,67.4-2.9,89.4-5.4
			C284.9,260.2,284.6,251.4,273,249.3z"/>
	</g>
</g>
<g id="形状_17_拷贝_2">
	<g id="XMLID_20_">
		<path id="XMLID_21_" class="st3" d="M205.4,216c-8.8-1-19.2-1.5-29.4-1.4c-6.6,4.4-13,11.9-17.5,24.1c-3.9,10.5-3.9,20.3-1.3,28.9
			c6.5,0.2,13,0.3,19.5,0.3c32.1,0.2,58.1-2,78.7-4.2C267.7,244.6,208.9,236.4,205.4,216z"/>
	</g>
</g>
<g id="多边形_2_拷贝_2">
	<g id="XMLID_48_">
		<path id="XMLID_49_" class="st4" d="M75.5,98.1c-4.8-0.3-10.8,8.4-8.1,11.6c2.5,3,12.4,7.3,14.3,6.4c1.9-1,6.1-5,5.1-7.7
			S80.3,98.4,75.5,98.1z M97.3,83.9c1.1,5.3,2.7,8.3,5.4,9.6c2.7,1.4,5.5-1.1,6-3.8s-0.8-6.1-1.9-9C105.7,77.8,96.5,80.3,97.3,83.9z
			 M272.7,106.6c-4.6-1.1-11.2,9.1-10.1,10.9c1.1,1.8,1,3.1,4.3,3.7c3.4,0.6,8.3-2.3,9.6-5.8C277.6,111.9,276,107.4,272.7,106.6z"/>
	</g>
</g>
<g id="矩形_25">
	<g id="XMLID_15_">
		<path id="XMLID_16_" class="st5" d="M250.3,121.4c-11.2,0.8-61.2-6.6-72.6,52c4.5-27.1-13.5-62.1-67.8-61.2
			c0,0,1.6,35.7,21.4,55.7c13.2,13.3,27,17.5,41.6,17.9c-1.7,13.3,0.4,36.7,4.5,45.6c0.6,1.3,3.6,0.8,4.7-1.3
			c-1.3,1.6-9.1-22.4-3.3-44.9c5.2,0.4,36-1.2,52.9-19.1C242,155.1,251.6,135.1,250.3,121.4z"/>
	</g>
</g>
<g id="矩形_26">
	<g id="XMLID_27_">
		<path id="XMLID_30_" class="st6" d="M213,165.9c-18.3,13.2-35.6,16.7-35.1,21.1c0.1,0.4,0.1,0.9,0.2,1.3c0.2-1.1,0.4-2.1,0.7-3.2
			c5.2,0.4,36-1.2,52.9-19.1c9.5-10.1,18.6-28.1,18.7-41.7C243.7,134.9,232,152.2,213,165.9z M109.9,112.1c0,0,0,0.2,0,0.5
			c52.6,10.5,66.4,53.4,64.4,67.5c-0.2,1.6,1.9-1.1,3.1-6.8c0.1-0.4,0.3-1.1,0.6-2.2C181.3,144.3,162.8,111.2,109.9,112.1z"/>
	</g>
</g>
</svg>
