<?xml version="1.0" encoding="utf-8"?>
<!-- Generator: Adobe Illustrator 19.0.0, SVG Export Plug-In . SVG Version: 6.00 Build 0)  -->
<svg version="1.1" id="图层_1" xmlns="http://www.w3.org/2000/svg" xmlns:xlink="http://www.w3.org/1999/xlink" x="0px" y="0px"
	 viewBox="0 0 340 340" style="enable-background:new 0 0 340 340;" xml:space="preserve">
<style type="text/css">
	.st0{fill-rule:evenodd;clip-rule:evenodd;fill:#FB9382;}
	.st1{fill-rule:evenodd;clip-rule:evenodd;fill:#E06674;}
	.st2{opacity:0.3294;}
	.st3{fill-rule:evenodd;clip-rule:evenodd;fill:#6D2B60;}
	.st4{fill-rule:evenodd;clip-rule:evenodd;fill:#806F59;}
	.st5{fill-rule:evenodd;clip-rule:evenodd;fill:#FAFAFA;}
	.st6{fill-rule:evenodd;clip-rule:evenodd;fill:#FFFFFF;}
	.st7{fill-rule:evenodd;clip-rule:evenodd;fill:#FEE3CA;}
	.st8{fill-rule:evenodd;clip-rule:evenodd;fill:#F7D4CB;}
	.st9{fill-rule:evenodd;clip-rule:evenodd;fill:#FEF2EF;}
</style>
<g id="底圆_拷贝_11_1_">
	<g id="XMLID_71_">
		<circle id="XMLID_72_" class="st0" cx="170" cy="169.8" r="160"/>
	</g>
</g>
<g id="矩形_20">
	<g id="XMLID_67_">
		<path id="XMLID_68_" class="st1" d="M228.6,211.2c-19.6-27.5-95.3-29.2-114.9,2.3c-18.8,30.2-68.9,26.6-57.9,38.4
			c22.7,24.4,197.1,28.1,232.5-2.3C296.1,242.8,248.5,239.1,228.6,211.2z"/>
	</g>
</g>
<g id="矩形_21" class="st2">
	<g id="XMLID_63_">
		<path id="XMLID_64_" class="st3" d="M227,220.8c4.2,1.1,7.6,0.9,10.6,0.1c-3.3-2.9-6.4-6.1-9-9.7c-9-12.7-30-19.8-51.8-20.8
			c-1.9-0.1-3.9-0.1-5.8-0.1c-23.8,0.1-47.5,7.6-57.3,23.3c-2.8,4.5-6.3,8.2-10.1,11.3c-1.4,18.2,5.6,31,26.9,45.1
			c38.4,2.8,83.5,1.4,116.7-5c3.5-1.7,6.5-3.5,8.8-5.4C273.8,245.3,242.5,235.3,227,220.8z"/>
	</g>
</g>
<g id="矩形_15">
	<g id="XMLID_59_">
		<path id="XMLID_60_" class="st4" d="M266.5,172.6c0,0-68.9,20.8-240,68c1,2,2,4,3.1,5.9c45.3-13.5,152.8-45.7,245.9-71.3
			C305.8,166.7,266.5,172.6,266.5,172.6z"/>
	</g>
</g>
<g id="矩形_15_拷贝_2">
	<g id="XMLID_55_">
		<path id="XMLID_56_" class="st5" d="M273.4,160.6c-7.2,5.3-7.6,17.2,0.2,21.7c7.8,4.5,39.9,2.6,48-21
			C304.8,146.4,285.4,151.7,273.4,160.6z"/>
	</g>
</g>
<g id="矩形_15_拷贝">
	<g id="XMLID_51_">
		<path id="XMLID_52_" class="st6" d="M275,160.2c-8.6,2.5-12.7,13.3-7.2,20.5c7.3,9.5,36.6,16.1,52.3-3.3
			C309.3,157.6,289.3,156,275,160.2z"/>
	</g>
</g>
<g id="矩形_15_拷贝_3">
	<g id="XMLID_47_">
		<path id="XMLID_48_" class="st7" d="M263.1,164.2c-2,8.7,6.2,16.7,15.1,15.5c14.7-2.1,32.3-11.8,33.8-34.1
			C289.6,134.6,265.7,152.7,263.1,164.2z"/>
	</g>
</g>
<g id="矩形_15_1_">
	<g id="XMLID_43_">
		<path id="XMLID_44_" class="st4" d="M239.8,105.3l-15.9,20.7C155.6,193.4,75.2,236.2,34.7,255.2c1.4,2.2,2.8,4.3,4.3,6.4
			c46-23.4,146.2-80.5,192.5-136.5C240,114.7,239.8,105.3,239.8,105.3z"/>
	</g>
</g>
<g id="矩形_15_拷贝_2_1_">
	<g id="XMLID_39_">
		<path id="XMLID_40_" class="st6" d="M266.3,71.2c-24.6,0.2-36.5,18.7-39.7,34.5c-2,9.6,6.4,19.4,16.1,17.4
			C252.3,121,277,96.1,266.3,71.2z"/>
	</g>
</g>
<g id="矩形_15_拷贝_1_">
	<g id="XMLID_35_">
		<path id="XMLID_36_" class="st6" d="M275.1,88.2c-23.2-8.2-40.7,5.1-49.1,18.9c-5.1,8.3-0.6,20,9.1,21.8
			C247.9,131.3,276.5,115.3,275.1,88.2z"/>
	</g>
</g>
<g id="矩形_15_拷贝_3_1_">
	<g id="XMLID_31_">
		<path id="XMLID_32_" class="st7" d="M247,65.5c-26.2,7.3-32.4,39.3-26.1,50.6c4.8,8.5,17.3,9,23.6,1.5
			C255,105.2,262.1,84.6,247,65.5z"/>
	</g>
</g>
<g id="矩形_16">
	<g id="XMLID_27_">
		<path id="XMLID_28_" class="st4" d="M174.2,118.6c-16.5,22.7-3.3,38.6,2.4,45.5c5.7,6.9,13.1,4.2,14.5-3.7
			C194.7,140,188.2,128.6,174.2,118.6z"/>
	</g>
</g>
<g id="矩形_16_拷贝">
	<g id="XMLID_23_">
		<path id="XMLID_24_" class="st4" d="M226.9,185.2c-7.3-1.7-16.3,1.5-10.7,14.6c5,11.7,31.3,21.6,45.8,13.8
			C256.1,191.3,236,187.3,226.9,185.2z"/>
	</g>
</g>
<g id="矩形_17">
	<g id="XMLID_19_">
		<path id="XMLID_20_" class="st8" d="M236.3,229.2c-1.5-14.5-4.7-50.5-6.7-65.8c-0.7-5.1-2.2-6.5-7.7-6.5c-25.4,0-84.7,0-104.4,0
			c-8.3,0-8.9,5.4-9.8,11.3c-0.7,6-5.3,56.1-4.5,61.1c0.5,3.1,3.8,8.2,8.6,7.6c17.7,0,99.6-0.1,117.2-0.1
			C234.8,237,236.9,231.8,236.3,229.2z"/>
	</g>
</g>
<g id="矩形_23">
	<g id="XMLID_15_">
		<path id="XMLID_16_" class="st9" d="M221.9,157c-25.4,0-84.7,0-104.4,0c-4.2,0-6.4,1.4-7.7,3.4c12.6,18.1,33.7,39.7,62.8,39.7
			c25.8,0,44.8-19.9,56.8-37.9C228.6,158.2,226.9,157,221.9,157z"/>
	</g>
</g>
</svg>
