<?xml version="1.0" encoding="utf-8"?>
<!-- Generator: Adobe Illustrator 19.0.0, SVG Export Plug-In . SVG Version: 6.00 Build 0)  -->
<svg version="1.1" id="图层_1" xmlns="http://www.w3.org/2000/svg" xmlns:xlink="http://www.w3.org/1999/xlink" x="0px" y="0px"
	 viewBox="0 0 340 340" style="enable-background:new 0 0 340 340;" xml:space="preserve">
<style type="text/css">
	.st0{fill-rule:evenodd;clip-rule:evenodd;fill:#FED7B2;}
	.st1{fill-rule:evenodd;clip-rule:evenodd;fill:#FF6600;}
	.st2{fill-rule:evenodd;clip-rule:evenodd;fill:#DDB997;}
	.st3{fill-rule:evenodd;clip-rule:evenodd;fill:#FFFFFF;}
	.st4{fill-rule:evenodd;clip-rule:evenodd;fill:#FFEEC6;}
	.st5{fill-rule:evenodd;clip-rule:evenodd;fill:#ECDDCF;}
</style>
<g id="底圆_拷贝_8_1_">
	<g id="XMLID_59_">
		<circle id="XMLID_60_" class="st0" cx="170" cy="169.8" r="160"/>
	</g>
</g>
<g id="矩形_12">
	<g id="XMLID_55_">
		<path id="XMLID_56_" class="st1" d="M262.9,251.3c-18.3-8.6-43.6-25.6-43.6-25.6H118c-0.4,0.9-18,17.7-42.8,24.6
			c-17.5,4.9-6.6,10.5,1,12c17.9,3.7,55.6,6,91.2,6c37.9,0,67.3-3.3,89.3-5.9C275.4,260.3,275.4,257.2,262.9,251.3z"/>
	</g>
</g>
<g id="形状_17">
	<g id="XMLID_51_">
		<path id="XMLID_52_" class="st2" d="M235.9,236.3c-2.2-1.4-4.3-2.7-6.2-3.9c-7.3-3.8-15.4-5.7-21.1-6.7h-87.8
			c-0.5,1.5-0.2,3.3,0.9,5.4c8.2,15.6,20.5,28.1,33.4,37.1c4.2,0.1,8.3,0.1,12.5,0.1c32.5,0,58.7-2.4,79.3-4.8
			c0.4-1.6,0.6-3.3,0.6-5.2C247.4,248.4,242.5,241.3,235.9,236.3z"/>
	</g>
</g>
<g id="形状_13">
	<g id="XMLID_41_">
		<path id="XMLID_42_" class="st3" d="M190.1,110.7c-16.7-6.6-3.7-18.6,1.3-31.6c6.5-17-16.8-25.6-19.4-19.2
			c-3,7.3,17.1,10.4,8.5,23.5c-8.8,13.4-12.2,29.7,8.5,33.8C195.6,118.5,197.4,113.6,190.1,110.7z"/>
	</g>
</g>
<g id="形状_13_拷贝">
	<g id="XMLID_36_">
		<path id="XMLID_37_" class="st3" d="M165.8,129.7c-8.6-6.3-7.7-14.9-4.1-23.7c1.5-3.7,0.2-11.3-6.5,0c-7.4,12.4-3.6,21.6,6.7,29.5
			C167.2,139.6,172.1,134.3,165.8,129.7z"/>
	</g>
</g>
<g id="矩形_11_拷贝">
	<g id="XMLID_25_">
		<path id="XMLID_26_" class="st3" d="M243.8,172c-18,1.3-7.1,9.2-7.1,9.2s15.4-3.5,22.9,2.4c13,10.2,1.9,24.1-18.1,25.9
			c-19.8,1.7-27.7-2.6-27.7-2.6l0,9.2c0,0,6.8,3.5,21.9,2.9c19.1-0.8,38.4-7.8,38.4-24.1C274.1,181,262.8,170.6,243.8,172z"/>
	</g>
</g>
<g id="形状_16">
	<g id="XMLID_43_">
		<path id="XMLID_46_" class="st4" d="M236.7,181.2c0,0,4.2-1,9.3-1c-0.7-2.6-1.3-5.3-1.8-8.2c-0.1,0-0.3,0-0.4,0
			C225.7,173.3,236.7,181.2,236.7,181.2z M262.2,209.3c-1.5-1.8-2.9-3.5-4.2-5.2c-4.1,2.7-9.9,4.7-16.6,5.3
			c-19.8,1.7-27.7-2.6-27.7-2.6l0,9.2c0,0,6.8,3.5,21.9,2.9c10.5-0.4,21-2.8,28.4-7.4C263.5,210.8,262.8,210,262.2,209.3z"/>
	</g>
</g>
<g id="矩形_11_拷贝_3">
	<g id="XMLID_20_">
		<path id="XMLID_21_" class="st3" d="M238.6,152.1c-10.5-1.9-40.1-3.1-67-3.1v0c-0.1,0-0.3,0-0.4,0c-0.2,0-0.3,0-0.5,0
			c-0.2,0-0.3,0-0.5,0c-0.1,0-0.3,0-0.4,0v0c-26.9,0-56.5,1.2-67,3.1c-4.9,0.9-8.7,1.9-8,8c0.9,7.9,3.2,21.1,8.1,36.4
			c5,15.6,14.1,29.1,20.1,37.4c5,6.8,10,8.1,15.5,8.1c7.7,0,19.4,0,31.3,0v0c0.3,0,0.6,0,0.9,0c0.3,0,0.6,0,0.9,0v0
			c11.9,0,23.6,0,31.3,0c5.5,0,10.5-1.3,15.5-8.1c6-8.3,15.1-21.8,20.1-37.4c4.9-15.4,7.3-28.5,8.1-36.4
			C247.3,154,243.5,153,238.6,152.1z"/>
	</g>
</g>
<g id="形状_14">
	<g id="XMLID_15_">
		<path id="XMLID_16_" class="st5" d="M171.6,149L171.6,149c-0.1,0-0.3,0-0.4,0c-0.2,0-0.3,0-0.5,0c-0.2,0-0.3,0-0.5,0
			c-0.1,0-0.3,0-0.4,0v0c-17,0-35.1,0.5-48.8,1.3c0.3,20.2,2.9,36.8,7.4,55.6c3.3,13.8,11,27.9,15.9,36c7.2,0,16.3,0,25.5,0v0
			c0.3,0,0.6,0,0.9,0c0.3,0,0.6,0,0.9,0v0c11.9,0,23.6,0,31.3,0c1.9,0,3.8-0.2,5.7-0.7c4.7-6.3,11.4-17.7,16.5-36.9
			c4.3-16.2,6.6-38.3,6.8-53.1C218.3,149.9,194,149.1,171.6,149z"/>
	</g>
</g>
<g id="形状_15">
	<g id="XMLID_27_">
		<path id="XMLID_30_" class="st3" d="M209.7,149.8c-11.7-0.5-25.2-0.8-38.1-0.8v0c-0.1,0-0.3,0-0.4,0c-0.2,0-0.3,0-0.5,0
			c-0.2,0-0.3,0-0.5,0c-0.1,0-0.3,0-0.4,0v0c-18.8,0-39,0.6-53,1.6c-8.6,4.4,4.8,27.4,4.4,13.3c-0.2-7.1,13.5-8.2,23-9.4
			c18.4-2.5,35.2-2.4,47.7-2.6C203,151.8,211.6,150.9,209.7,149.8z M137.1,229.5c-4.9-5.9-5.2,6.7,1.6,12.5c7.7,0,19.3,0,31.2,0v0
			c0.3,0,0.6,0,0.9,0c0.3,0,0.6,0,0.9,0v0h0c-4.4-0.6-11.2-1.1-15.8-2.3C147.4,237.5,141.5,234.8,137.1,229.5z"/>
	</g>
</g>
</svg>
