<?xml version="1.0" encoding="utf-8"?>
<!-- Generator: Adobe Illustrator 19.0.0, SVG Export Plug-In . SVG Version: 6.00 Build 0)  -->
<svg version="1.1" id="图层_1" xmlns="http://www.w3.org/2000/svg" xmlns:xlink="http://www.w3.org/1999/xlink" x="0px" y="0px"
	 viewBox="0 0 301.4 371.6" style="enable-background:new 0 0 301.4 371.6;" xml:space="preserve">
<style type="text/css">
	.st0{fill-rule:evenodd;clip-rule:evenodd;fill:none;stroke:#FF6600;stroke-width:2;stroke-miterlimit:10;}
	.st1{fill-rule:evenodd;clip-rule:evenodd;fill:#9C6342;}
	.st2{fill-rule:evenodd;clip-rule:evenodd;fill:#FFC07D;}
	.st3{fill-rule:evenodd;clip-rule:evenodd;fill:#FF9B48;}
	.st4{fill-rule:evenodd;clip-rule:evenodd;fill:url(#XMLID_250_);}
	.st5{fill-rule:evenodd;clip-rule:evenodd;fill:#66361F;}
	.st6{fill-rule:evenodd;clip-rule:evenodd;fill:#FFCE99;}
	.st7{fill-rule:evenodd;clip-rule:evenodd;fill:#FFFFFF;}
	.st8{fill-rule:evenodd;clip-rule:evenodd;fill:#FFA083;}
	.st9{fill-rule:evenodd;clip-rule:evenodd;fill:#512A15;}
	.st10{fill-rule:evenodd;clip-rule:evenodd;fill:#FF9D63;}
	.st11{fill-rule:evenodd;clip-rule:evenodd;fill:#A85726;}
	.st12{fill-rule:evenodd;clip-rule:evenodd;fill:#733F21;}
	.st13{fill-rule:evenodd;clip-rule:evenodd;fill:#E5432E;}
	.st14{opacity:0.6;fill-rule:evenodd;clip-rule:evenodd;fill:#DD7528;}
</style>
<path id="XMLID_217_" class="st0" d="M228.7,104c38.5,25.4,63.9,69.1,63.9,118.7c-0.1,77.2-64.7,141.8-141.9,141.9
	C72.2,364.6,8.5,301,8.6,222.5c0-28.1,8.6-54.5,23.2-76.8c2.6-3.9,5.4-7.8,8.3-11.4"/>
<g id="XMLID_2_">
	<g id="Shape_2_33_">
		<g id="XMLID_82_">
			<path id="XMLID_83_" class="st1" d="M83.4,77.4c-4.6-0.1-11.4-0.2-17-2.9c-6.1-2.9-8.7-7.5-10.7-11.5c-0.8-1.7-0.4,2.9,2.6,7.5
				c-1.8,1-3,2.8-3,4c0,1.1,1.8-1.1,3.6-1.3c0.6-0.1,1-0.1,1.4-0.2c0.7,0.7,1.5,1.4,2.4,2c-1.1,1-1.9,2.9-2.1,4.4
				c-0.1,0.8,2.1-0.7,3.3-1.3c1-0.5,1.9-0.9,2.5-1.1C75.2,80.4,87.6,77.5,83.4,77.4z"/>
		</g>
	</g>
	<g id="形状_78">
		<g id="XMLID_79_">
			<path id="XMLID_80_" class="st2" d="M204.1,24.2c-41.1,26.7-50.2,87-50.2,87s6.9,25.5,35.9,9.9c29-15.6,67-62.3,74.4-94.2
				S245.2-2.5,204.1,24.2z"/>
		</g>
	</g>
	<g id="形状_79">
		<g id="XMLID_75_">
			<path id="XMLID_76_" class="st3" d="M209.5,47.6c-41.2,29.3-41.3,64.6-41.3,64.6s-12.5,13.9,14.4,3.6
				c26.8-10.3,52.1-59.8,53.8-63.7S250.7,18.2,209.5,47.6z"/>
		</g>
	</g>
	<g id="形状_80">
		<g id="XMLID_71_">
			<path id="XMLID_72_" class="st2" d="M107.2,130.1c0,0-20.7-46.9-52.9-68.2c-32.2-21.2-43.8-19.8-43.9-9
				c-0.2,10.8,6.8,73.2,84.3,91.5C172.2,162.7,107.2,130.1,107.2,130.1z"/>
		</g>
	</g>
	<g id="形状_81">
		<g id="XMLID_67_">
			<path id="XMLID_68_" class="st3" d="M100,128.3C92.1,113,54,83.7,52.5,82.5C51,81.4,30.7,66.3,39.1,95.1
				c8.4,28.8,55.6,44.8,55.6,44.8S107.9,143.5,100,128.3z"/>
		</g>
	</g>
	<radialGradient id="XMLID_250_" cx="151.2905" cy="230.7112" r="103.3617" gradientUnits="userSpaceOnUse">
		<stop  offset="0" style="stop-color:#FECD97"/>
		<stop  offset="1" style="stop-color:#FFC07A"/>
	</radialGradient>
	<path id="XMLID_179_" class="st4" d="M149.5,103c0,0-56-3.6-63.7,49.3c-7.7,52.9,13.3,82.8-2.7,105.8c-16,23,40.3,47.5,74.4,35.9
		c6.8-0.7-9.1,22.2-10.3,25.3c-3.5,9.3-3.7,38.1,34.4,39.1s27.9-47.4,27.9-47.4s-10.9-28.6,5.4-77.1
		C231.3,185.4,225,110.5,149.5,103z"/>
	<path id="XMLID_178_" class="st5" d="M149.6,103c0,0-56-3.6-63.7,49.3c-1.2,8.2-1.7,15.9-1.8,23.1c6-5.3,15.8-18,16.1-23.1
		c0.4-7.4,10.5,38.5,27.8,28.7c17.3-9.8,41.4-37.4,43-43.9c1.6-6.6,26.7,44.6,39.5,25.1c3.6-5.4,4.5-8.2,4.9-12.2
		C206.4,127,187.6,106.4,149.6,103z"/>
	<path id="XMLID_177_" class="st6" d="M115.9,219.2c-12.5-8.9-10.6-12.2-18.1-10.9c-14,2.5-10.4,6.1-10.3,5.7
		c0.1-0.4,0-10.7,8.8-11.2c9.5-0.5,13.8,4.4,17.1,10.4C117.5,220.9,115.9,219.2,115.9,219.2"/>
	<g id="形状_70">
		<g id="XMLID_63_">
			<path id="XMLID_64_" class="st7" d="M198.7,194.6c0.1,0-25,15.1-48.4,17c0,0,4.1,26.6,35.9,18.8
				C202.2,226.7,204.5,206.9,198.7,194.6z"/>
		</g>
	</g>
	<g id="形状_71">
		<g id="XMLID_59_">
			<path id="XMLID_60_" class="st7" d="M87.5,212.6c0,0,2.1,23.6,16.1,25.1c14,1.5,13.2-8.2,13.3-13.9
				C117,218,95.7,200.2,87.5,212.6z"/>
		</g>
	</g>
	<path id="XMLID_162_" class="st6" d="M147.8,211.1c13.6,0.6,25.5-8.4,33-7.1c14,2.5,21.7-13.2,18.3-11.6c-0.4,0.2,0.1-3.5-13.7,1.2
		c-8.4,2.9-19.4,10.3-29.9,13.2C147.8,209,147.8,211.1,147.8,211.1"/>
	<path id="XMLID_161_" class="st8" d="M100,245.8c-0.2-4.2-6.9-4.7-11.1-4.7c-0.4,4.5-1.4,8.7-3.3,12.6
		C90.1,253.3,100.3,250.9,100,245.8z"/>
	<g id="形状_73_2_">
		<g id="XMLID_55_">
			<path id="XMLID_56_" class="st8" d="M210.4,232.7c-0.4-1.2-2.4-4.1-13.5-0.4c-13.1,4.4-11,8.8-10.5,9.8c1.1,1.9,3.8,3.8,13.2,0.9
				C209,240.2,211.2,235.4,210.4,232.7z"/>
		</g>
	</g>
	<g id="形状_74">
		<g id="XMLID_51_">
			<path id="XMLID_52_" class="st9" d="M100.9,261.9c-13.7,0.4-13.7,3.8-12.6,6.3c7.7,17.3,29.5,1.9,30.5-2.7
				C119.8,260.9,114.7,261.5,100.9,261.9z"/>
		</g>
	</g>
	<path id="XMLID_146_" class="st10" d="M161.9,270c-12.2,19.7-44.4,21.1-56.9,20.8c2.2,0.9,4.4,1.7,6.8,2.4
		c41.5-0.9,50.8-19.8,51.9-22.3C164.5,269.2,163,268.3,161.9,270z"/>
	<g id="形状_69">
		<g id="XMLID_47_">
			<path id="XMLID_48_" class="st9" d="M198.7,194.6c-2.2-2.9-7.5,8.4-32.3,14.3c0,0,9.6,22.8,25.1,13.5
				C202.7,215.8,200.9,197.5,198.7,194.6z"/>
		</g>
	</g>
	<g id="形状_65">
		<g id="XMLID_43_">
			<path id="XMLID_44_" class="st11" d="M111.7,197.3c-13.4-29.6-27.5-12.6-27.5-12.6l0,2.8c15.5-12,24,7.8,24.8,9.9
				C110.1,200.4,112.5,199.1,111.7,197.3z"/>
		</g>
	</g>
	<g id="形状_82_2_">
		<g id="XMLID_39_">
			<path id="XMLID_40_" class="st11" d="M188.8,173.1c-1.6-1.6-28-19.2-39.5,26c-0.8,3.1,1.8,3.2,2.7,0c1.8-3.3,10.1-32.9,35-24.2
				C189.5,175.8,190.4,174.7,188.8,173.1z"/>
		</g>
	</g>
	<g id="形状_67">
		<g id="XMLID_35_">
			<path id="XMLID_36_" class="st12" d="M210.4,195.5c-3.3,0.3-8.6-2-10.8-3.6c-3.7-2.7-32.9,21.3-49.3,17.9c-3.7-0.7-4,2.1-0.9,2.7
				c3.4,1.4,28.7-1.6,49.3-17c0.2-0.2,3.7,3.6,11.7,1.8C214.9,196.3,212.8,195.3,210.4,195.5z"/>
		</g>
	</g>
	<path id="XMLID_117_" class="st13" d="M208,135.4c-20.3-14.1-85.6-52.7-120.2,7.4c-0.9,3-1.6,6.2-2.1,9.6
		c-0.5,3.5-0.9,6.9-1.2,10.1c3.8-8.9,15.7-29.4,46.9-32.6c38.1-3.9,54.5-1.3,84.5,21C213.8,145.6,211.2,140.2,208,135.4z"/>
	<g id="形状_68_2_">
		<g id="XMLID_31_">
			<path id="XMLID_32_" class="st9" d="M116.4,219.6c0,0-15.3-12.6-18.2-9.5c-1.4,1.1,4.1,21.6,12.8,23.8
				C119.7,236.1,116.4,219.6,116.4,219.6z"/>
		</g>
	</g>
	<g id="形状_68">
		<g id="XMLID_27_">
			<path id="XMLID_28_" class="st12" d="M116.5,219.7c0,0-6.6-10.6-17-12.6c-10.5-1.9-12.6,6.3-12.6,6.3c-2.7,1.1-4.7-0.5-5.4-1.8
				c-0.7-1.3-1.6-2.1-0.9,0c1.4,4.3,7.3,5.8,7.5,4.3c0.2-6.1,9.3-7.5,17.3-2.8c4.9,2.8,8.8,5.9,10.5,6.9
				C117,220.7,116.5,219.7,116.5,219.7z"/>
		</g>
	</g>
	<g id="形状_77_29_">
		<g id="XMLID_23_">
			<path id="XMLID_24_" class="st13" d="M148.5,19.8C114.6,43.9,108.9,82,109,81.6c-2.9-13.8-18.2-36.6-29.6-52
				c-11.4-15.4-20.8,26.3-9,50.2c11.9,23.9,41.3,43.1,41.3,43.1s-1.6,25,26-9c27.6-33.9,33.3-70.7,35-89.7
				C174.3,5.3,163.9,8.1,148.5,19.8z"/>
		</g>
	</g>
	
		<ellipse id="XMLID_95_" transform="matrix(0.9777 -0.21 0.21 0.9777 -42.8501 42.0166)" class="st7" cx="176.4" cy="222.8" rx="7" ry="2.9"/>
	
		<ellipse id="XMLID_94_" transform="matrix(0.9657 -0.2595 0.2595 0.9657 -55.8243 34.6646)" class="st7" cx="103.4" cy="228.8" rx="4.3" ry="3"/>
	<g id="Shape_2_27_">
		<g id="XMLID_18_">
			<path id="XMLID_19_" class="st1" d="M107.6,237.6c-2.8-0.1-7.1,0.1-10.3-2.4c-3.3-2.6-5.3-6.3-6.5-9.7c-0.5-1.4-0.2,2.6,1.7,6.5
				c0,0-0.1,0-0.1,0.1c-1.2,0.8-2,2.5-2,3.6c0,1,1.1-0.9,2.2-1.1c0.8-0.2,1.2-0.2,1.3-0.2c0.4,0.6,0.9,1.1,1.4,1.6
				c-0.8,0.8-1.3,2.6-1.5,3.9c-0.1,0.7,1.3-0.6,2-1.1c1-0.8,1.9-1.1,2-1.1C103.1,240,110.1,237.7,107.6,237.6z"/>
		</g>
	</g>
	<g id="Shape_2_25_">
		<g id="XMLID_14_">
			<path id="XMLID_15_" class="st1" d="M204.2,221.8c-0.3-1-1.7-2.1-3.4-2.5c1.3-4.4,0.5-8.2,0.3-6.7c-0.6,3.7-1.6,8.1-5.8,11.9
				c-3.9,3.5-9.3,5.4-13,6.5c-3.3,1.1,7.4,0.4,13.6-4.5c0.6,0,1.4,0.1,2.3,0.3c1.1,0.2,3.3,0.9,2.9,0.2c-0.5-1.1-1.6-2.4-2.8-3
				c0.5-0.7,1-1.5,1.4-2.2c0.3-0.1,0.7-0.1,1.1-0.2C202.5,221.4,204.5,222.7,204.2,221.8z"/>
		</g>
	</g>
	<path id="XMLID_3_" class="st14" d="M157.5,294c0,0,10.7-2.8,27.1-15.5c3.1-2.4-5.6,26.7-32.3,32.1
		C152.3,310.6,163.2,293.8,157.5,294z"/>
</g>
</svg>
