<?xml version="1.0" encoding="utf-8"?>
<!-- Generator: Adobe Illustrator 17.1.0, SVG Export Plug-In . SVG Version: 6.00 Build 0)  -->
<!DOCTYPE svg PUBLIC "-//W3C//DTD SVG 1.1//EN" "http://www.w3.org/Graphics/SVG/1.1/DTD/svg11.dtd">
<svg version="1.1" id="图层_1" xmlns="http://www.w3.org/2000/svg" xmlns:xlink="http://www.w3.org/1999/xlink" x="0px" y="0px"
	 viewBox="0 0 377.9 38.2" enable-background="new 0 0 377.9 38.2" xml:space="preserve">
<g>
	<path fill="#FF6600" d="M5.8,34.3L3,31.5c1-1,1.4-2.3,1.3-3.9V16.3H0.2v-3.7h8.2v14c0.6-0.5,1.4-1.2,2.5-2.2c1.2-1,2-1.7,2.5-2.1
		c0.4,1.6,0.8,3,1.2,4.2c-1,0.7-2.5,1.9-4.5,3.7c-0.9,0.9-1.6,1.5-2.1,1.8C7.2,32.7,6.4,33.5,5.8,34.3z M8.8,9.8
		C7,7.4,5.1,5.3,3,3.4l3.1-2.5c2.6,2.6,4.6,4.7,6.1,6.2L8.8,9.8z M11.9,34v-3.7h8.6V0.8h4.2V11h9.8v3.9h-9.8v15.4H36V34H11.9z"/>
	<path fill="#FF6600" d="M40.7,6.4V2.5h30.9v3.9H58.2c0,0.9-0.1,2.2-0.1,4c0,1.8,0,3.1,0,3.9h15.6v3.9h-15
		c1.7,6.8,6.8,11.3,15.4,13.5c-1,1.2-1.8,2.5-2.5,3.9C63,32.6,57.8,28.1,56.2,22c-1.6,5.6-6.7,10.2-15.3,13.8
		c-0.8-1.2-1.6-2.4-2.5-3.7c9-3.3,14-7.9,14.8-14H38.7v-3.9h15c0.1-0.8,0.1-2.1,0.1-3.9c0.1-1.8,0.1-3.1,0.1-4H40.7z"/>
	<path fill="#FF6600" d="M76.5,6.8v-4h35.3v4H94.9v9.1l2.4-3c4,2.3,8.3,4.9,12.9,8l-2.8,3.7c-2.1-1.4-4.9-3.3-8.5-5.6
		c-1.8-1.3-3.1-2.2-4-2.8v19.4h-4.6V6.8H76.5z"/>
	<path fill="#FF6600" d="M120,18.6c-1.4-1.5-3.4-3.2-5.9-5.2l2.7-2.8c1.5,1,3.6,2.6,6.2,4.8L120,18.6z M118.7,35.8l-4-1.6
		c1.4-3.5,2.9-7.9,4.5-13.2c0.9,0.5,2.2,1,3.9,1.5c-0.8,2.3-2,6.1-3.7,11.6C119,34.8,118.8,35.4,118.7,35.8z M121.8,9.1
		c-0.7-0.6-1.7-1.5-3-2.7c-1.4-1.2-2.4-2.1-3.1-2.7l2.7-2.7c0.9,0.7,2.3,1.8,4.2,3.3c0.9,0.7,1.6,1.2,2.1,1.6L121.8,9.1z M148,35.6
		c-4.7-1.3-8.5-2.7-11.6-4.3c-3.4,1.9-7.4,3.4-12,4.6c-0.1-0.1-0.2-0.3-0.3-0.6c-0.8-1.3-1.4-2.3-1.8-3c4.6-1.1,8.1-2.3,10.7-3.7
		c-2.3-2.1-4.4-4.9-6.2-8.5l1.3-0.7h-2.7v-3.6h21.7v4c-2.3,3.8-4.7,6.7-7.3,8.9c2.6,1.5,6,2.5,10.2,3.1c-0.3,0.5-0.7,1.3-1.3,2.4
		C148.4,34.9,148.1,35.3,148,35.6z M126.5,15c-0.9-1-1.8-1.9-2.7-2.8c3.6-1.5,5.2-3.8,4.9-7V1.9h16.2V8c-0.1,1.4,0.5,2,1.9,1.9h3.3
		l-0.6,3.4h-4.3c-2.9,0.1-4.3-1.2-4.2-3.9v-4h-8.6v0.9C132.8,10.1,130.8,12.9,126.5,15z M142.7,19.5h-12c1.9,3.2,3.8,5.5,5.8,7.1
		C138.9,24.8,141,22.4,142.7,19.5z"/>
	<path fill="#FF6600" d="M153.1,8.2V4.6h11c0.3-0.5,0.6-1.2,1-2.2c0.4-0.9,0.7-1.6,0.9-2.1l4.5,0.4c-0.2,0.4-0.5,1-0.9,1.9
		c-0.4,0.8-0.7,1.4-0.9,1.9h19.1v3.6h-20.9c-0.2,0.3-0.4,0.7-0.7,1.3c-0.6,1-1,1.7-1.3,2.1h19.3v19.1c0.2,3.1-1.5,4.6-5,4.6
		c-1.6,0.1-3.6,0.1-5.9,0.1c-0.1-0.6-0.3-1.4-0.6-2.4c-0.1-0.5-0.2-0.9-0.3-1.2c1.6,0,3.3,0,5,0c2,0.2,2.9-0.6,2.7-2.4v-1.3h-17.1
		v7.6h-4V19.2c-1.6,1.7-3.3,3.3-5,4.8c-0.3-0.7-0.8-1.8-1.5-3.4c-0.2-0.3-0.3-0.5-0.3-0.6c4.5-3.7,7.8-7.6,10.1-11.7H153.1z
		 M162.9,15v3.4H180V15H162.9z M162.9,21.5V25H180v-3.4H162.9z"/>
	<path fill="#FF6600" d="M191.8,34.8c-0.3-0.8-0.8-1.8-1.6-3.1c-0.1-0.2-0.2-0.3-0.3-0.4c2.6-3.1,4.5-6.1,5.8-9.2
		c-2.6-4.6-4.5-7.8-5.6-9.8l3-1.9c0.3,0.6,0.8,1.5,1.6,2.8c1.1,2,1.9,3.5,2.5,4.5c0.9-3,1.4-6.2,1.6-9.8h-8.2V4h11.9v3.9
		c-0.1,2.3-0.4,4.4-0.9,6.4c3.1-4.3,5.3-8.9,6.7-14l3.9,0.7c-0.6,2.1-1.3,4-2.1,5.8h6.2c-0.5-1.5-1.2-3.3-2.2-5.3l3.7-0.7
		c0.2,0.4,0.4,1,0.7,1.9c0.7,1.9,1.2,3.2,1.5,3.9l-1.2,0.3h6.8v3.3h-6.8v4.6h6.4V18h-6.4v4.6h6.4v3.3h-6.4v4.8h7.1v3h-16.9v2.4h-3.7
		V15.3c-0.7,1.2-1.5,2.3-2.4,3.3c-0.2-0.6-0.6-1.6-1.2-3c-0.1-0.3-0.2-0.5-0.3-0.6c-0.4,2.4-1,4.6-1.8,6.7c1.1,1.9,2.5,4.6,4.3,8
		c-0.1-0.3,0,0,0.4,0.7l-3.1,1.8l-3.6-6.2C196.6,28.6,194.6,31.5,191.8,34.8z M209.1,10.1v4.6h6.2v-4.6H209.1z M209.1,18v4.6h6.2V18
		H209.1z M209.1,25.8v4.8h6.2v-4.8H209.1z"/>
	<path fill="#FF6600" d="M231.6,35.8v-19c-0.4,0.9-1.1,2.2-2.2,4c-0.2,0.3-0.3,0.5-0.4,0.7c-0.1-0.6-0.2-1.4-0.4-2.5
		c-0.3-1.2-0.5-2-0.6-2.5c2.5-4.7,4.5-10,6.1-16l3.7,0.7c-0.8,2.7-1.6,5.2-2.5,7.6v27H231.6z M237,11V7.4h4.8V0.6h3.7v6.8h4.5V11
		h-4.5v6.1h3.6v14.4h-7.7v1.9h-3.4V17.1h3.9V11H237z M241.3,20.4v7.9h4.5v-7.9H241.3z M262.2,35.5c-2.3-1.9-4.2-3.7-5.6-5.5
		c-1.9,2.3-4,4.3-6.2,6.1c-0.3-0.6-0.9-1.5-1.8-2.7c-0.2-0.3-0.3-0.5-0.4-0.6c2.8-2,4.9-4.1,6.5-6.4c-1.5-2.9-2.4-6.3-2.8-10.4
		c-0.2,0.4-0.5,0.9-0.9,1.5c-0.3,0.4-0.5,0.7-0.6,0.9c-0.6-1.4-1.1-2.6-1.6-3.6c2.4-4.1,4.1-8.9,5.2-14.4l3.9,0.6
		c-0.6,2.1-1.2,4.1-1.9,6.1h8.3v3.4h-1.8c-0.6,7.1-1.8,12.5-3.7,16c1.5,1.9,3.4,3.7,5.6,5.3C263.4,33,262.7,34.2,262.2,35.5z
		 M256.6,22.7c1.3-2.7,2.1-6.7,2.4-12.2h-4.5l-0.1,0.1C254.8,16.2,255.6,20.3,256.6,22.7z"/>
	<path fill="#FF6600" d="M267.5,35.3V6.3h4c0.3-1.1,0.7-2.6,1.2-4.5c0.1-0.6,0.2-1,0.3-1.3l4.2,0.6c-0.4,1.8-0.9,3.5-1.5,5.2h6.4
		v28.9h-3.7v-2.7h-7v2.8H267.5z M271.4,10v7.7h7V10H271.4z M271.4,21.4v7.7h7v-7.7H271.4z M287.6,35.2c-0.2-1.5-0.4-2.7-0.7-3.7
		c0.6,0,1.5,0,2.7,0c1.3,0.1,2.3,0.1,3,0.1c2.7,0,4-1.3,4-3.9c0.1-1.6,0.2-4.9,0.3-10.1c0.1-3.7,0.1-6.2,0.1-7.7h-8.2
		c-0.9,2-1.8,3.8-2.7,5.5c-0.2-0.1-0.5-0.3-0.9-0.6c-0.5-0.3-1.3-0.7-2.5-1.3C285,9.4,286.7,5,288,0.5l4,0.9
		c-0.1,0.4-0.3,0.9-0.6,1.6c-0.4,1.4-0.8,2.5-1.2,3.3h10.7c-0.2,10.8-0.4,18.2-0.6,22.3c0.1,4.5-2,6.6-6.4,6.5
		C292,35.1,289.9,35.2,287.6,35.2z M290.7,25.3c-1.7-2.6-3.5-5.2-5.5-7.9l3.1-1.9c1.8,2.1,3.7,4.6,5.8,7.6L290.7,25.3z"/>
	<path fill="#FF6600" d="M304.5,11V7.3h4V0.6h3.7v6.7h3.3V11h-3.3v6.7l3.1-0.9c-0.5-1.1-0.9-2.2-1.2-3.3c2.8-3.5,5-7.9,6.8-13.2
		l4,0.7c-0.4,1-1,2.4-1.8,4.2c-0.3,0.8-0.5,1.3-0.6,1.6h6.8c-0.3-0.8-0.9-2.1-1.8-4c-0.3-0.6-0.5-1-0.6-1.3l3.9-0.7
		c0.9,1.9,1.7,3.8,2.5,5.8l-1.6,0.3h7.9v3.3h-7.6v4.6h7.1V18h-7.1v4.6h7.1v3.3h-7.1v4.8h7.9v3h-18.6v2.4h-3.7V15
		c-0.2,0.2-0.4,0.5-0.7,0.9c-0.6,0.8-1.1,1.4-1.5,1.8l-0.1-0.7c0,1.4,0,2.6,0,3.7l-3.1,0.9v10.1c0.1,2.5-1.1,3.8-3.6,3.9
		c-0.3,0-0.8,0-1.6,0c-0.9,0.1-1.6,0.1-2.1,0.1c-0.1-1.3-0.3-2.6-0.6-3.9c0.7,0,1.6,0,2.7,0c1.1,0.1,1.6-0.3,1.5-1.3v-7.9l-4,1.2
		l-0.4-4.2l4.5-1V11H304.5z M321.4,10.1v4.6h6.8v-4.6H321.4z M321.4,18v4.6h6.8V18H321.4z M321.4,25.8v4.8h6.8v-4.8H321.4z"/>
	<path fill="#FF6600" d="M345.9,35.8c-0.2-0.1-0.5-0.3-0.9-0.7c-1.4-1-2.4-1.7-3-2.1c1.8-2.4,3-4.7,3.6-6.8c0.6-2.2,0.9-5.4,0.9-9.8
		V5.5h14c-0.7-1.8-1.3-3.3-1.9-4.6l4.9-0.7c0.4,0.9,1,2.3,1.8,4.2c0.1,0.4,0.2,0.7,0.3,0.9l-1.3,0.3h13.7v3.9h-27v7
		c0,4.8-0.3,8.6-1,11.3C349.2,30.3,347.9,33,345.9,35.8z"/>
</g>
</svg>
