<?xml version="1.0" encoding="utf-8"?>
<!-- Generator: Adobe Illustrator 17.1.0, SVG Export Plug-In . SVG Version: 6.00 Build 0)  -->
<!DOCTYPE svg PUBLIC "-//W3C//DTD SVG 1.1//EN" "http://www.w3.org/Graphics/SVG/1.1/DTD/svg11.dtd">
<svg version="1.1" id="图层_1" xmlns="http://www.w3.org/2000/svg" xmlns:xlink="http://www.w3.org/1999/xlink" x="0px" y="0px"
	 viewBox="0 0 377.9 38.2" enable-background="new 0 0 377.9 38.2" xml:space="preserve">
<g>
	<path fill="#FF6600" d="M7.4,30.1c2.3-1.8,4.4-3.4,6.2-4.9c0.1,0.7,0.3,1.4,0.6,2.2c-1.9,1.3-4.1,2.9-6.7,4.8
		C7,32.7,6.4,33.3,5.8,34L4,32.2c1-0.6,1.4-1.7,1.3-3.3V15.3H0.1v-1.9h7.3V30.1z M9.8,9.1C9.4,8.7,8.8,8.1,8.2,7.4
		c-2-2.1-3.5-3.5-4.5-4.3l1.6-1.3C6.8,3,8.8,4.9,11.4,7.6L9.8,9.1z M21.7,0.9h2.1v11h10.5v1.9H23.7v17.8h12.3v2.1H12.2v-2.1h9.5V0.9
		z"/>
	<path fill="#FF6600" d="M40.1,35.8c-0.6-0.9-1.1-1.5-1.6-1.8c9.8-4.1,15.1-9.7,16-17.1h-16v-2.1h16.3c0.2-2,0.3-5.3,0.3-9.9H40.5V3
		h31.3v1.9H57.1c0,4.5-0.1,7.8-0.3,9.9h16.9v2.1H57.6c1.7,8.4,7.1,13.9,16.3,16.5c-0.3,0.4-0.6,0.8-1,1.3c-0.2,0.3-0.3,0.5-0.4,0.6
		c-9.3-3.2-14.7-8.8-16.3-16.9C54.8,25.9,49.5,31.7,40.1,35.8z"/>
	<path fill="#FF6600" d="M76.4,3.4h35.3v2.1H93.5v30.1h-2.2V5.5H76.4V3.4z M107.9,23.2c-4.7-2.9-9.2-5.5-13.7-7.9l1.2-1.9
		c0.7,0.4,1.7,0.9,3,1.6c4.8,2.5,8.5,4.5,11,5.9L107.9,23.2z"/>
	<path fill="#FF6600" d="M119.9,17.1c-1.7-1.4-3.6-2.9-5.8-4.6l1.3-1.3c0.4,0.3,1.1,0.8,2.2,1.6c2,1.4,3.3,2.3,3.9,2.7L119.9,17.1z
		 M114.6,34.9c1.6-3.9,3.1-8.4,4.6-13.5c0.3,0.1,0.7,0.2,1.3,0.4c0.4,0.1,0.7,0.2,0.9,0.3c-2.1,5.8-3.6,10.4-4.6,13.7L114.6,34.9z
		 M122,8c-2-1.9-4-3.6-6.1-5l1.5-1.5c0.3,0.2,0.8,0.6,1.5,1.2c2,1.6,3.5,2.9,4.6,3.9L122,8z M126,18.8v-1.9h20.2v2.2
		c-2.2,4.1-4.8,7.4-7.9,10.1c2.3,1.5,6.1,2.9,11.6,4.3c-0.4,0.5-0.8,1.1-1.3,1.9c-4.9-1.4-8.9-3.1-11.9-5c-3.2,2-7.6,3.9-13.2,5.6
		c-0.3-0.7-0.7-1.3-1.2-1.9c5.8-1.7,10-3.4,12.6-5c-2.8-2.3-5-5.7-6.8-10.2H126z M142.3,4.3h-10.7v1.5c0.4,4.5-1.5,7.6-5.8,9.5
		c-0.6-0.8-1.1-1.4-1.5-1.8c4-1.4,5.7-4,5.3-7.7V2.4h14.5v7c-0.1,1.5,0.7,2.2,2.4,2.1h3.4l-0.3,2.1h-3.7c-2.5,0-3.7-1.1-3.7-3.4V4.3
		z M144,18.8h-13.8c1.9,4.2,4.1,7.2,6.5,9.1C139.6,25.7,142,22.7,144,18.8z"/>
	<path fill="#FF6600" d="M161.6,35.9h-2.1V16.3c-1.8,2-3.9,4-6.2,6.1c-0.6-0.8-1-1.3-1.3-1.6c4.9-4,9-8.5,12-13.5h-10.7V5.5h11.7
		c0.9-1.6,1.7-3.3,2.5-5l2.1,0.4c-0.7,1.6-1.5,3.1-2.4,4.6h20.2v1.8h-21.2c-1,1.8-2.1,3.5-3.4,5h20.3v18.9c0.1,2.7-1.4,4-4.5,4
		c-1.3,0.1-3,0.1-5.2,0.1c0-0.8-0.2-1.5-0.6-2.1c1.4,0,3.2,0,5.3,0c2,0.1,2.9-0.7,2.8-2.4v-3.3h-19.4V35.9z M161.6,14.1V19h19.4
		v-4.9H161.6z M161.6,20.8v5h19.4v-5H161.6z"/>
	<path fill="#FF6600" d="M201.6,31.9c-0.3-0.4-0.7-1.2-1.3-2.4c-1.2-2.2-2.1-3.9-2.7-5c-1.4,3.3-3.5,6.6-6.2,10.1
		c-0.1-0.2-0.3-0.5-0.7-0.9c-0.3-0.4-0.5-0.7-0.7-0.9c2.9-3.3,5-6.8,6.5-10.5c-1.1-2.1-2.7-5-4.8-8.8c-0.5-1-0.9-1.7-1.2-2.2l1.8-1
		c0.2,0.4,0.5,1.1,1,2.1c1.7,3.1,3,5.5,4,7.4c1-3.5,1.8-7.8,2.4-12.9h-9.1V5h11V7c-0.8,6.3-1.8,11.3-3.1,15c0.8,1.5,1.8,3.5,3.1,5.9
		c0.8,1.5,1.3,2.5,1.6,3.1L201.6,31.9z M202.3,17.2c-0.1-0.1-0.4-0.5-1-1.2c-0.2-0.1-0.3-0.2-0.4-0.3c3.5-4.3,6.2-9.3,8.2-15.1
		l1.9,0.6c-0.9,2.3-1.8,4.3-2.7,6.1h17.2v1.8h-7.9v6.4h7.4v1.8h-7.4v6.4h7.4v1.8h-7.4v6.2h8.3v1.8h-18.6v2.5h-2.1v-23
		C204.4,14.4,203.4,15.8,202.3,17.2z M207.5,9.1c-0.1,0.1-0.1,0.2-0.1,0.3v6.1h8.3V9.1H207.5z M207.4,17.2v6.4h8.3v-6.4H207.4z
		 M207.4,25.4v6.2h8.3v-6.2H207.4z M214,1.3l1.8-0.7c0.1,0.2,0.3,0.5,0.6,1c1.2,2,2,3.4,2.4,4.3L217,6.8C216,4.6,215,2.8,214,1.3z"
		/>
	<path fill="#FF6600" d="M228.9,19.9c-0.1-0.2-0.2-0.6-0.4-1.2c-0.3-0.5-0.5-0.8-0.6-1c2.9-4.6,5.3-10.2,7.3-17.1L237,1
		c-0.1,0.4-0.3,1-0.6,1.8c-0.8,2.6-1.5,4.5-2.1,5.8v27.3h-1.9V13.1C231.3,15.5,230.1,17.8,228.9,19.9z M242.5,0.7h1.9v7.6h5.9v1.8
		h-5.9V18h4.3v12.9h-8.6v2.2h-1.9V18h4.3v-7.9h-5.9V8.3h5.9V0.7z M240.2,19.7v9.4h6.7v-9.4H240.2z M262.7,35.3
		c-2.7-2.5-4.7-4.7-5.9-6.5c-1.2,1.9-3.4,4.3-6.7,7.3c-0.1-0.1-0.3-0.3-0.6-0.6c-0.4-0.5-0.7-0.8-0.9-1c3.5-3,5.8-5.5,7.1-7.7
		c-1.7-3.3-2.8-7.5-3.4-12.6c-0.1,0.2-0.2,0.4-0.3,0.7c-0.7,1.3-1.2,2.2-1.6,2.8c-0.1-0.2-0.5-0.7-1.3-1.5c2.8-4.6,4.8-9.7,5.9-15.6
		l1.9,0.1c-0.6,2.5-1.2,4.8-1.9,6.8h8.9v1.8H262c-0.5,7.5-1.8,13.4-4,17.5c1.2,2.2,3.3,4.4,6.2,6.7
		C263.6,34.1,263.1,34.7,262.7,35.3z M256.8,24.6c1.8-3.4,2.9-8.5,3.3-15.3h-5.6c0,0.1-0.1,0.2-0.1,0.3c0,0.3-0.1,0.7-0.4,1.2
		C254.4,16.9,255.4,21.5,256.8,24.6z"/>
	<path fill="#FF6600" d="M267.6,6.7h3.9c0.8-2.4,1.4-4.4,1.8-6.1l2.1,0.4c-0.6,2-1.2,3.9-1.8,5.6h7.6v28.5h-2.1v-3h-9.5v3.3h-1.9
		V6.7z M269.6,8.5v10.1h9.5V8.5H269.6z M269.6,20.3v10.2h9.5V20.3H269.6z M284.4,14.7c-0.2-0.1-0.5-0.3-0.9-0.6
		c-0.4-0.2-0.7-0.3-0.9-0.4c2.2-3.6,4.1-7.9,5.6-13.1l2.1,0.4c-0.6,1.8-1.3,3.6-2.1,5.5h12.3c0,0.5,0,1.3,0,2.4
		c-0.2,8.8-0.4,15.6-0.7,20.3c0.1,3.9-2,5.8-6.4,5.9c-2,0-3.9,0-5.8,0c0-0.1-0.1-0.2-0.1-0.4c-0.1-0.8-0.2-1.3-0.4-1.6
		c1.4,0.1,3.4,0.1,6.1,0.1c3.2,0.1,4.8-1.3,4.8-4.3c0.2-2.5,0.3-7.7,0.4-15.6c0.1-2.3,0.1-3.9,0.1-4.9h-11
		C286.2,11.3,285.2,13.4,284.4,14.7z M286,16.5l1.5-1.2c0.2,0.3,0.5,0.7,0.9,1.2c2.2,2.7,3.9,4.9,5,6.7l-1.6,1.2
		C289.9,21.6,288,18.9,286,16.5z"/>
	<path fill="#FF6600" d="M304.4,22.7l-0.3-1.9c1.7-0.6,3.3-1.1,4.9-1.5v-9.1h-4.6V8.5h4.6V0.6h2.1v7.9h4v1.8h-4v8.5
		c1.3-0.5,2.7-0.9,4.2-1.3c0,0.7,0,1.3,0,1.9c-0.4,0.1-1.1,0.3-2.1,0.6c-0.9,0.3-1.6,0.5-2.1,0.7v11.3c0.1,2.4-1,3.6-3.4,3.6
		c-0.8,0-1.8,0-3,0c0-0.6-0.1-1.3-0.3-2.1c1,0,1.9,0,2.8,0c1.3,0.1,1.9-0.4,1.8-1.6V21.2c-0.4,0.1-1,0.3-1.9,0.6
		C305.9,22.2,305,22.5,304.4,22.7z M315.1,15.9c-0.4-0.4-0.9-0.9-1.5-1.5c3.3-3.6,6-8.2,8.2-13.8l1.9,0.6c-0.9,2.3-1.8,4.3-2.8,6.1
		h18.7v1.8h-9.1v6.4h8.6v1.8h-8.6v6.2h8.6v1.8h-8.6v6.4h9.4v1.5h-20.2v2.8h-1.9V12.3c-0.2,0.3-0.5,0.7-0.9,1.2
		C316.2,14.5,315.6,15.3,315.1,15.9z M319.9,9.1l-0.1,0.3v6.1h8.9V9.1H319.9z M319.7,17.2v6.2h8.9v-6.2H319.7z M319.7,25.2v6.4h8.9
		v-6.4H319.7z M327,1.6l1.8-1c0.3,0.5,0.8,1.3,1.5,2.4c0.9,1.4,1.5,2.4,1.8,3l-1.8,1C329.2,4.9,328.1,3.1,327,1.6z"/>
	<path fill="#FF6600" d="M359.7,1.3l1.9-0.9c1.1,1.7,2.1,3.4,3,5.2l-1.8,0.9h14.8v1.9h-28.1v7.1c0,4.9-0.4,8.8-1.2,11.6
		c-0.7,2.8-2.1,5.6-4.3,8.5c-0.2-0.1-0.5-0.3-0.9-0.7c-0.5-0.3-0.8-0.5-1-0.7c2.1-2.5,3.5-5,4.2-7.6c0.7-2.5,1-6.2,1-11.1V6.5h15.1
		C361.6,4.5,360.6,2.8,359.7,1.3z"/>
</g>
</svg>
