<?xml version="1.0" encoding="utf-8"?>
<!-- Generator: Adobe Illustrator 17.1.0, SVG Export Plug-In . SVG Version: 6.00 Build 0)  -->
<!DOCTYPE svg PUBLIC "-//W3C//DTD SVG 1.1//EN" "http://www.w3.org/Graphics/SVG/1.1/DTD/svg11.dtd">
<svg version="1.1" id="图层_1" xmlns="http://www.w3.org/2000/svg" xmlns:xlink="http://www.w3.org/1999/xlink" x="0px" y="0px"
	 viewBox="0 0 683.8 33.8" enable-background="new 0 0 683.8 33.8" xml:space="preserve">
<g>
	<path fill="#FF6600" d="M0.3,0.2h20.8v3.9h-8.2v21.8H8.4V4.1H0.3V0.2z"/>
	<path fill="#FF6600" d="M28,26.4c-1.5,0-2.8-0.2-4-0.7c-1.2-0.5-2.1-1.2-3-2c-0.8-0.9-1.4-1.9-1.8-3.1c-0.4-1.2-0.6-2.5-0.6-4
		c0-1.4,0.2-2.7,0.6-3.9s1-2.2,1.8-3.1c0.8-0.9,1.8-1.5,3-2c1.2-0.5,2.5-0.7,4-0.7c1.5,0,2.8,0.2,4,0.7c1.2,0.5,2.1,1.2,3,2
		c0.8,0.9,1.4,1.9,1.8,3.1s0.6,2.5,0.6,3.9c0,1.4-0.2,2.8-0.6,4c-0.4,1.2-1,2.2-1.8,3.1c-0.8,0.9-1.8,1.5-3,2
		C30.9,26.2,29.5,26.4,28,26.4z M28,23.2c0.9,0,1.7-0.2,2.4-0.6c0.7-0.4,1.2-0.9,1.7-1.5c0.4-0.6,0.8-1.3,1-2.1s0.3-1.6,0.3-2.4
		c0-0.8-0.1-1.6-0.3-2.4s-0.5-1.5-1-2.1c-0.4-0.6-1-1.1-1.7-1.5C29.7,10.2,29,10,28,10c-0.9,0-1.7,0.2-2.4,0.6
		C25,11,24.4,11.5,24,12.1c-0.4,0.6-0.8,1.3-1,2.1c-0.2,0.8-0.3,1.6-0.3,2.4c0,0.8,0.1,1.6,0.3,2.4c0.2,0.8,0.5,1.5,1,2.1
		c0.4,0.6,1,1.1,1.7,1.5C26.3,23,27.1,23.2,28,23.2z"/>
	<path fill="#FF6600" d="M50.9,7.3h3.9v2.6h0.1c0.3-0.5,0.6-0.9,1-1.3c0.4-0.4,0.8-0.7,1.2-1c0.4-0.3,1-0.5,1.5-0.6
		c0.6-0.2,1.2-0.2,2-0.2c1.1,0,2.2,0.3,3.2,0.8c1,0.5,1.7,1.3,2.1,2.3c0.7-1,1.5-1.7,2.4-2.3c0.9-0.6,2.1-0.8,3.4-0.8
		c2,0,3.5,0.5,4.6,1.4c1.1,1,1.6,2.6,1.6,4.8v12.9h-4.1V15c0-0.7,0-1.4-0.1-2c0-0.6-0.2-1.1-0.4-1.6c-0.2-0.4-0.6-0.8-1-1
		S71.2,10,70.4,10c-1.4,0-2.4,0.4-3,1.3c-0.6,0.9-0.9,2.1-0.9,3.7v10.9h-4.1v-12c0-1.3-0.2-2.3-0.7-2.9s-1.3-1-2.6-1
		c-0.5,0-1,0.1-1.5,0.3s-0.9,0.5-1.3,0.9c-0.4,0.4-0.7,0.9-0.9,1.5c-0.2,0.6-0.3,1.3-0.3,2.1v11.1h-4.1V7.3z"/>
	<path fill="#FF6600" d="M97.8,21.8c0,0.5,0.1,0.9,0.2,1.1c0.1,0.2,0.4,0.3,0.8,0.3c0.1,0,0.3,0,0.4,0c0.2,0,0.4,0,0.6-0.1v2.8
		c-0.1,0-0.3,0.1-0.6,0.2c-0.2,0.1-0.5,0.1-0.7,0.2c-0.2,0-0.5,0.1-0.7,0.1c-0.2,0-0.4,0-0.6,0c-0.8,0-1.5-0.2-2.1-0.5
		S94.2,25,94,24.1c-0.8,0.8-1.8,1.4-3,1.7c-1.2,0.4-2.3,0.5-3.4,0.5c-0.8,0-1.6-0.1-2.4-0.3c-0.8-0.2-1.4-0.6-2-1
		c-0.6-0.4-1.1-1-1.4-1.7c-0.3-0.7-0.5-1.5-0.5-2.4c0-1.2,0.2-2.1,0.6-2.8c0.4-0.7,1-1.3,1.7-1.7c0.7-0.4,1.5-0.7,2.3-0.9
		c0.9-0.2,1.7-0.3,2.6-0.4c0.7-0.1,1.5-0.2,2.1-0.3c0.7-0.1,1.3-0.2,1.8-0.3c0.5-0.1,0.9-0.4,1.2-0.7c0.3-0.3,0.5-0.8,0.5-1.4
		c0-0.5-0.1-1-0.4-1.3c-0.3-0.3-0.6-0.6-0.9-0.8c-0.4-0.2-0.8-0.3-1.2-0.4c-0.5-0.1-0.9-0.1-1.3-0.1c-1.2,0-2.1,0.2-2.8,0.7
		C86.5,11.2,86.1,12,86,13h-4.1c0.1-1.2,0.4-2.2,0.9-3s1.1-1.4,1.9-1.9c0.8-0.5,1.7-0.8,2.6-1c1-0.2,2-0.3,3-0.3
		c0.9,0,1.8,0.1,2.7,0.3c0.9,0.2,1.7,0.5,2.4,0.9c0.7,0.4,1.3,1,1.7,1.7c0.4,0.7,0.6,1.5,0.6,2.5V21.8z M93.7,16.6
		c-0.6,0.4-1.4,0.7-2.3,0.7s-1.8,0.2-2.7,0.4c-0.4,0.1-0.9,0.2-1.3,0.3c-0.4,0.1-0.8,0.3-1.1,0.5c-0.3,0.2-0.6,0.5-0.7,0.9
		c-0.2,0.4-0.3,0.8-0.3,1.3c0,0.5,0.1,0.8,0.4,1.2c0.3,0.3,0.6,0.6,1,0.7c0.4,0.2,0.8,0.3,1.2,0.4c0.4,0.1,0.8,0.1,1.2,0.1
		c0.5,0,0.9-0.1,1.5-0.2s1-0.3,1.5-0.6s0.9-0.7,1.2-1.1c0.3-0.4,0.5-1,0.5-1.6V16.6z"/>
	<path fill="#FF6600" d="M102.3,0.2h4.1v14.6l7.4-7.5h5l-7.1,6.8l7.8,11.8h-5l-5.7-9l-2.4,2.4v6.7h-4.1V0.2z"/>
	<path fill="#FF6600" d="M124.7,17.7c0,0.7,0.1,1.4,0.3,2.1c0.2,0.7,0.5,1.3,0.9,1.8c0.4,0.5,0.9,0.9,1.5,1.2s1.4,0.4,2.2,0.4
		c1.2,0,2.2-0.3,2.9-0.8c0.7-0.5,1.3-1.3,1.6-2.3h3.9c-0.2,1-0.6,1.9-1.1,2.7s-1.2,1.5-1.9,2s-1.6,0.9-2.5,1.2s-1.9,0.4-2.9,0.4
		c-1.5,0-2.8-0.2-3.9-0.7c-1.1-0.5-2.1-1.2-2.9-2c-0.8-0.9-1.4-1.9-1.8-3.1c-0.4-1.2-0.6-2.5-0.6-4c0-1.3,0.2-2.6,0.6-3.8
		c0.4-1.2,1-2.2,1.8-3.1c0.8-0.9,1.7-1.6,2.8-2.1c1.1-0.5,2.4-0.8,3.7-0.8c1.5,0,2.8,0.3,3.9,0.9c1.2,0.6,2.1,1.4,2.9,2.4
		c0.8,1,1.3,2.2,1.7,3.5c0.3,1.3,0.4,2.7,0.3,4H124.7z M134.3,15c0-0.6-0.2-1.3-0.4-1.9c-0.2-0.6-0.5-1.1-0.9-1.6
		c-0.4-0.4-0.9-0.8-1.4-1.1c-0.6-0.3-1.2-0.4-1.9-0.4c-0.7,0-1.4,0.1-2,0.4s-1.1,0.6-1.5,1c-0.4,0.4-0.8,1-1,1.6s-0.4,1.2-0.4,1.9
		H134.3z"/>
	<path fill="#FF6600" d="M151.7,0.2h4.1v3.9h-4.1V0.2z M151.7,7.3h4.1v18.6h-4.1V7.3z"/>
	<path fill="#FF6600" d="M158.4,7.3h3.1V1.7h4.1v5.6h3.7v3.1h-3.7v9.9c0,0.4,0,0.8,0.1,1.1c0,0.3,0.1,0.6,0.3,0.8s0.3,0.4,0.6,0.5
		c0.3,0.1,0.6,0.2,1.1,0.2c0.3,0,0.6,0,0.9,0c0.3,0,0.6-0.1,0.9-0.1v3.2c-0.5,0-0.9,0.1-1.3,0.1c-0.4,0-0.9,0.1-1.3,0.1
		c-1.1,0-2-0.1-2.6-0.3c-0.7-0.2-1.2-0.5-1.5-0.9c-0.4-0.4-0.6-0.9-0.8-1.5c-0.1-0.6-0.2-1.3-0.2-2.1v-11h-3.1V7.3z"/>
	<path fill="#FF6600" d="M185.4,17.7c0,0.7,0.1,1.4,0.3,2.1c0.2,0.7,0.5,1.3,0.9,1.8c0.4,0.5,0.9,0.9,1.5,1.2s1.4,0.4,2.2,0.4
		c1.2,0,2.2-0.3,2.9-0.8c0.7-0.5,1.3-1.3,1.6-2.3h3.9c-0.2,1-0.6,1.9-1.1,2.7s-1.2,1.5-1.9,2s-1.6,0.9-2.5,1.2s-1.9,0.4-2.9,0.4
		c-1.5,0-2.8-0.2-3.9-0.7c-1.1-0.5-2.1-1.2-2.9-2c-0.8-0.9-1.4-1.9-1.8-3.1c-0.4-1.2-0.6-2.5-0.6-4c0-1.3,0.2-2.6,0.6-3.8
		c0.4-1.2,1-2.2,1.8-3.1c0.8-0.9,1.7-1.6,2.8-2.1c1.1-0.5,2.4-0.8,3.7-0.8c1.5,0,2.8,0.3,3.9,0.9c1.2,0.6,2.1,1.4,2.9,2.4
		c0.8,1,1.3,2.2,1.7,3.5c0.3,1.3,0.4,2.7,0.3,4H185.4z M195,15c0-0.6-0.2-1.3-0.4-1.9c-0.2-0.6-0.5-1.1-0.9-1.6
		c-0.4-0.4-0.9-0.8-1.4-1.1c-0.6-0.3-1.2-0.4-1.9-0.4c-0.7,0-1.4,0.1-2,0.4s-1.1,0.6-1.5,1c-0.4,0.4-0.8,1-1,1.6s-0.4,1.2-0.4,1.9
		H195z"/>
	<path fill="#FF6600" d="M217.8,21.8c0,0.5,0.1,0.9,0.2,1.1c0.1,0.2,0.4,0.3,0.8,0.3c0.1,0,0.3,0,0.4,0c0.2,0,0.4,0,0.6-0.1v2.8
		c-0.1,0-0.3,0.1-0.6,0.2c-0.2,0.1-0.5,0.1-0.7,0.2c-0.2,0-0.5,0.1-0.7,0.1c-0.2,0-0.4,0-0.6,0c-0.8,0-1.5-0.2-2.1-0.5
		c-0.6-0.3-0.9-0.9-1.1-1.8c-0.8,0.8-1.8,1.4-3,1.7c-1.2,0.4-2.3,0.5-3.4,0.5c-0.8,0-1.6-0.1-2.4-0.3s-1.4-0.6-2-1
		c-0.6-0.4-1.1-1-1.4-1.7c-0.3-0.7-0.5-1.5-0.5-2.4c0-1.2,0.2-2.1,0.6-2.8c0.4-0.7,1-1.3,1.7-1.7s1.5-0.7,2.3-0.9
		c0.9-0.2,1.7-0.3,2.6-0.4c0.7-0.1,1.5-0.2,2.1-0.3c0.7-0.1,1.3-0.2,1.8-0.3c0.5-0.1,0.9-0.4,1.2-0.7s0.5-0.8,0.5-1.4
		c0-0.5-0.1-1-0.4-1.3c-0.3-0.3-0.6-0.6-0.9-0.8c-0.4-0.2-0.8-0.3-1.2-0.4c-0.5-0.1-0.9-0.1-1.3-0.1c-1.2,0-2.1,0.2-2.8,0.7
		c-0.7,0.5-1.2,1.2-1.3,2.2h-4.1c0.1-1.2,0.4-2.2,0.9-3s1.1-1.4,1.9-1.9c0.8-0.5,1.7-0.8,2.6-1c1-0.2,2-0.3,3-0.3
		c0.9,0,1.8,0.1,2.7,0.3c0.9,0.2,1.7,0.5,2.4,0.9c0.7,0.4,1.3,1,1.7,1.7c0.4,0.7,0.6,1.5,0.6,2.5V21.8z M213.7,16.6
		c-0.6,0.4-1.4,0.7-2.3,0.7s-1.8,0.2-2.7,0.4c-0.4,0.1-0.9,0.2-1.3,0.3c-0.4,0.1-0.8,0.3-1.1,0.5c-0.3,0.2-0.6,0.5-0.7,0.9
		s-0.3,0.8-0.3,1.3c0,0.5,0.1,0.8,0.4,1.2c0.3,0.3,0.6,0.6,1,0.7c0.4,0.2,0.8,0.3,1.2,0.4c0.4,0.1,0.8,0.1,1.2,0.1
		c0.5,0,0.9-0.1,1.5-0.2c0.5-0.1,1-0.3,1.5-0.6c0.5-0.3,0.9-0.7,1.2-1.1c0.3-0.4,0.5-1,0.5-1.6V16.6z"/>
	<path fill="#FF6600" d="M225.4,19.9c0.1,1.2,0.6,2,1.4,2.5c0.8,0.5,1.7,0.7,2.8,0.7c0.4,0,0.8,0,1.3-0.1c0.5-0.1,1-0.2,1.4-0.3
		s0.8-0.4,1.1-0.7s0.4-0.8,0.4-1.3c0-0.5-0.2-1-0.6-1.3c-0.4-0.3-0.8-0.6-1.4-0.8c-0.6-0.2-1.2-0.4-1.9-0.5
		c-0.7-0.1-1.5-0.3-2.2-0.5c-0.8-0.2-1.5-0.4-2.2-0.6c-0.7-0.2-1.3-0.6-1.9-1c-0.6-0.4-1-0.9-1.3-1.6s-0.5-1.4-0.5-2.4
		c0-1,0.2-1.9,0.7-2.5c0.5-0.7,1.1-1.2,1.9-1.7c0.8-0.4,1.6-0.7,2.5-0.9c0.9-0.2,1.8-0.3,2.6-0.3c1,0,1.9,0.1,2.8,0.3s1.7,0.5,2.4,1
		c0.7,0.5,1.3,1.1,1.8,1.8c0.5,0.7,0.8,1.6,0.9,2.6h-4.3c-0.2-1-0.6-1.6-1.3-2c-0.7-0.3-1.5-0.5-2.4-0.5c-0.3,0-0.6,0-1,0.1
		c-0.4,0-0.8,0.1-1.1,0.3c-0.3,0.1-0.6,0.3-0.9,0.6s-0.4,0.6-0.4,1c0,0.5,0.2,0.9,0.5,1.2c0.3,0.3,0.8,0.6,1.4,0.8
		c0.6,0.2,1.2,0.4,1.9,0.5c0.7,0.1,1.5,0.3,2.2,0.5c0.7,0.2,1.5,0.4,2.2,0.6c0.7,0.2,1.4,0.6,1.9,1c0.6,0.4,1,0.9,1.4,1.5
		c0.3,0.6,0.5,1.4,0.5,2.3c0,1.1-0.3,2-0.8,2.8c-0.5,0.8-1.2,1.4-2,1.9c-0.8,0.5-1.7,0.8-2.7,1c-1,0.2-2,0.3-2.9,0.3
		c-1.2,0-2.3-0.1-3.3-0.4c-1-0.3-1.9-0.7-2.6-1.2c-0.7-0.5-1.3-1.2-1.7-2c-0.4-0.8-0.6-1.8-0.7-2.9H225.4z"/>
	<path fill="#FF6600" d="M238.9,7.3h4.5l4.9,13.9h0.1L253,7.3h4.3l-7.2,19.6c-0.3,0.8-0.7,1.6-1,2.4c-0.3,0.8-0.7,1.4-1.2,2
		c-0.5,0.6-1.1,1.1-1.7,1.4c-0.7,0.3-1.6,0.5-2.7,0.5c-1,0-1.9-0.1-2.8-0.2v-3.5c0.3,0,0.7,0.1,1,0.2c0.3,0.1,0.6,0.1,1,0.1
		c0.5,0,0.9-0.1,1.2-0.2c0.3-0.1,0.6-0.3,0.8-0.5c0.2-0.2,0.4-0.5,0.5-0.8c0.1-0.3,0.3-0.7,0.4-1.1l0.5-1.4L238.9,7.3z"/>
	<path fill="#FF6600" d="M267.8,7.3h3.1V1.7h4.1v5.6h3.7v3.1H275v9.9c0,0.4,0,0.8,0.1,1.1c0,0.3,0.1,0.6,0.3,0.8
		c0.1,0.2,0.3,0.4,0.6,0.5c0.3,0.1,0.6,0.2,1.1,0.2c0.3,0,0.6,0,0.9,0c0.3,0,0.6-0.1,0.9-0.1v3.2c-0.5,0-0.9,0.1-1.3,0.1
		c-0.4,0-0.9,0.1-1.3,0.1c-1.1,0-1.9-0.1-2.6-0.3c-0.7-0.2-1.2-0.5-1.5-0.9c-0.4-0.4-0.6-0.9-0.8-1.5s-0.2-1.3-0.2-2.1v-11h-3.1V7.3
		z"/>
	<path fill="#FF6600" d="M290.2,26.4c-1.5,0-2.8-0.2-4-0.7c-1.2-0.5-2.1-1.2-3-2c-0.8-0.9-1.4-1.9-1.8-3.1c-0.4-1.2-0.6-2.5-0.6-4
		c0-1.4,0.2-2.7,0.6-3.9s1-2.2,1.8-3.1c0.8-0.9,1.8-1.5,3-2c1.2-0.5,2.5-0.7,4-0.7c1.5,0,2.8,0.2,4,0.7c1.2,0.5,2.1,1.2,3,2
		c0.8,0.9,1.4,1.9,1.8,3.1s0.6,2.5,0.6,3.9c0,1.4-0.2,2.8-0.6,4c-0.4,1.2-1,2.2-1.8,3.1c-0.8,0.9-1.8,1.5-3,2
		C293,26.2,291.6,26.4,290.2,26.4z M290.2,23.2c0.9,0,1.7-0.2,2.4-0.6s1.2-0.9,1.7-1.5c0.4-0.6,0.8-1.3,1-2.1
		c0.2-0.8,0.3-1.6,0.3-2.4c0-0.8-0.1-1.6-0.3-2.4c-0.2-0.8-0.5-1.5-1-2.1c-0.4-0.6-1-1.1-1.7-1.5s-1.5-0.6-2.4-0.6
		c-0.9,0-1.7,0.2-2.4,0.6s-1.2,0.9-1.7,1.5c-0.4,0.6-0.8,1.3-1,2.1c-0.2,0.8-0.3,1.6-0.3,2.4c0,0.8,0.1,1.6,0.3,2.4
		c0.2,0.8,0.5,1.5,1,2.1c0.4,0.6,1,1.1,1.7,1.5S289.2,23.2,290.2,23.2z"/>
	<path fill="#FF6600" d="M330.5,25.9h-3.9v-2.5h-0.1c-0.6,1.1-1.4,1.9-2.4,2.3s-2.2,0.7-3.3,0.7c-1.5,0-2.7-0.3-3.8-0.8
		c-1.1-0.5-2-1.2-2.7-2.1c-0.7-0.9-1.3-1.9-1.6-3.2c-0.4-1.2-0.5-2.5-0.5-3.9c0-1.7,0.2-3.1,0.7-4.4c0.5-1.2,1.1-2.2,1.8-3
		s1.6-1.4,2.6-1.7c1-0.4,2-0.6,3-0.6c0.6,0,1.2,0.1,1.8,0.2c0.6,0.1,1.2,0.3,1.7,0.5s1.1,0.5,1.5,0.9c0.5,0.4,0.9,0.8,1.2,1.3h0.1
		V0.2h4.1V25.9z M316.2,16.8c0,0.8,0.1,1.6,0.3,2.3c0.2,0.8,0.5,1.5,0.9,2.1c0.4,0.6,1,1.1,1.6,1.4c0.6,0.4,1.4,0.5,2.3,0.5
		c0.9,0,1.7-0.2,2.4-0.6s1.2-0.9,1.6-1.5c0.4-0.6,0.7-1.3,0.9-2.1c0.2-0.8,0.3-1.6,0.3-2.4c0-2.1-0.5-3.7-1.4-4.8
		c-0.9-1.2-2.2-1.7-3.8-1.7c-1,0-1.8,0.2-2.4,0.6c-0.7,0.4-1.2,0.9-1.6,1.5c-0.4,0.6-0.7,1.4-0.9,2.2
		C316.3,15.1,316.2,16,316.2,16.8z"/>
	<path fill="#FF6600" d="M343.5,26.4c-1.5,0-2.8-0.2-4-0.7c-1.2-0.5-2.1-1.2-3-2c-0.8-0.9-1.4-1.9-1.8-3.1c-0.4-1.2-0.6-2.5-0.6-4
		c0-1.4,0.2-2.7,0.6-3.9s1-2.2,1.8-3.1c0.8-0.9,1.8-1.5,3-2c1.2-0.5,2.5-0.7,4-0.7c1.5,0,2.8,0.2,4,0.7c1.2,0.5,2.1,1.2,3,2
		c0.8,0.9,1.4,1.9,1.8,3.1s0.6,2.5,0.6,3.9c0,1.4-0.2,2.8-0.6,4c-0.4,1.2-1,2.2-1.8,3.1c-0.8,0.9-1.8,1.5-3,2
		C346.3,26.2,345,26.4,343.5,26.4z M343.5,23.2c0.9,0,1.7-0.2,2.4-0.6s1.2-0.9,1.7-1.5c0.4-0.6,0.8-1.3,1-2.1
		c0.2-0.8,0.3-1.6,0.3-2.4c0-0.8-0.1-1.6-0.3-2.4c-0.2-0.8-0.5-1.5-1-2.1c-0.4-0.6-1-1.1-1.7-1.5s-1.5-0.6-2.4-0.6
		c-0.9,0-1.7,0.2-2.4,0.6s-1.2,0.9-1.7,1.5c-0.4,0.6-0.8,1.3-1,2.1c-0.2,0.8-0.3,1.6-0.3,2.4c0,0.8,0.1,1.6,0.3,2.4
		c0.2,0.8,0.5,1.5,1,2.1c0.4,0.6,1,1.1,1.7,1.5S342.6,23.2,343.5,23.2z"/>
	<path fill="#FF6600" d="M366.4,0.2h4.1v9.5h0.1c0.3-0.5,0.6-0.9,1-1.2c0.4-0.4,0.9-0.7,1.3-0.9s1-0.4,1.5-0.6
		c0.5-0.1,1.1-0.2,1.6-0.2c1.5,0,2.7,0.3,3.8,0.8c1.1,0.5,2,1.2,2.7,2.1c0.7,0.9,1.3,2,1.6,3.1c0.4,1.2,0.5,2.5,0.5,3.9
		c0,1.2-0.2,2.5-0.5,3.6s-0.8,2.2-1.5,3.1c-0.7,0.9-1.5,1.6-2.5,2.2s-2.2,0.8-3.6,0.8c-0.6,0-1.3,0-1.9-0.1
		c-0.6-0.1-1.2-0.2-1.8-0.5c-0.6-0.2-1.1-0.6-1.6-0.9s-0.9-0.9-1.2-1.5h-0.1v2.6h-3.9V0.2z M380.8,16.6c0-0.8-0.1-1.7-0.3-2.4
		c-0.2-0.8-0.5-1.5-1-2.1c-0.4-0.6-1-1.1-1.6-1.5c-0.6-0.4-1.4-0.6-2.2-0.6c-1.7,0-3,0.6-3.9,1.8c-0.9,1.2-1.3,2.8-1.3,4.8
		c0,0.9,0.1,1.8,0.3,2.6s0.6,1.5,1,2.1c0.5,0.6,1,1,1.6,1.4c0.6,0.3,1.4,0.5,2.2,0.5c0.9,0,1.7-0.2,2.4-0.6s1.2-0.9,1.6-1.5
		c0.4-0.6,0.7-1.3,0.9-2.1C380.7,18.2,380.8,17.4,380.8,16.6z"/>
	<path fill="#FF6600" d="M404.7,25.9h-4v-2.6h-0.1c-0.5,0.9-1.3,1.7-2.2,2.2c-1,0.6-2,0.8-3,0.8c-2.4,0-4.2-0.6-5.3-1.8
		c-1.1-1.2-1.6-3-1.6-5.5V7.3h4.1v11.4c0,1.6,0.3,2.8,0.9,3.5s1.5,1,2.6,1c0.9,0,1.6-0.1,2.2-0.4c0.6-0.3,1-0.6,1.4-1.1
		c0.4-0.4,0.6-1,0.8-1.6s0.2-1.3,0.2-2V7.3h4.1V25.9z"/>
	<path fill="#FF6600" d="M412.1,19.9c0.1,1.2,0.6,2,1.4,2.5c0.8,0.5,1.7,0.7,2.8,0.7c0.4,0,0.8,0,1.3-0.1c0.5-0.1,1-0.2,1.4-0.3
		s0.8-0.4,1.1-0.7c0.3-0.3,0.4-0.8,0.4-1.3c0-0.5-0.2-1-0.6-1.3c-0.4-0.3-0.8-0.6-1.4-0.8c-0.6-0.2-1.2-0.4-1.9-0.5
		c-0.7-0.1-1.5-0.3-2.2-0.5c-0.8-0.2-1.5-0.4-2.2-0.6c-0.7-0.2-1.3-0.6-1.9-1c-0.6-0.4-1-0.9-1.4-1.6s-0.5-1.4-0.5-2.4
		c0-1,0.2-1.9,0.7-2.5c0.5-0.7,1.1-1.2,1.9-1.7c0.8-0.4,1.6-0.7,2.5-0.9c0.9-0.2,1.8-0.3,2.6-0.3c1,0,1.9,0.1,2.8,0.3
		c0.9,0.2,1.7,0.5,2.4,1c0.7,0.5,1.3,1.1,1.8,1.8c0.5,0.7,0.8,1.6,0.9,2.6h-4.3c-0.2-1-0.6-1.6-1.4-2c-0.7-0.3-1.5-0.5-2.4-0.5
		c-0.3,0-0.6,0-1,0.1s-0.8,0.1-1.1,0.3c-0.3,0.1-0.6,0.3-0.9,0.6s-0.4,0.6-0.4,1c0,0.5,0.2,0.9,0.5,1.2c0.3,0.3,0.8,0.6,1.4,0.8
		s1.2,0.4,1.9,0.5c0.7,0.1,1.5,0.3,2.2,0.5c0.7,0.2,1.5,0.4,2.2,0.6c0.7,0.2,1.4,0.6,1.9,1c0.6,0.4,1,0.9,1.4,1.5s0.5,1.4,0.5,2.3
		c0,1.1-0.3,2-0.8,2.8c-0.5,0.8-1.2,1.4-2,1.9c-0.8,0.5-1.7,0.8-2.7,1c-1,0.2-2,0.3-2.9,0.3c-1.2,0-2.3-0.1-3.3-0.4
		c-1-0.3-1.9-0.7-2.6-1.2s-1.3-1.2-1.7-2c-0.4-0.8-0.6-1.8-0.7-2.9H412.1z"/>
	<path fill="#FF6600" d="M427.8,0.2h4.1v3.9h-4.1V0.2z M427.8,7.3h4.1v18.6h-4.1V7.3z"/>
	<path fill="#FF6600" d="M436.4,7.3h3.9V10l0.1,0.1c0.6-1,1.4-1.8,2.4-2.4c1-0.6,2.1-0.9,3.3-0.9c2,0,3.6,0.5,4.8,1.6
		c1.2,1.1,1.8,2.6,1.8,4.8v12.8h-4.1V14.2c0-1.5-0.4-2.5-0.9-3.2s-1.5-1-2.7-1c-0.7,0-1.3,0.1-1.9,0.4c-0.6,0.3-1,0.6-1.4,1
		c-0.4,0.4-0.7,1-0.9,1.6c-0.2,0.6-0.3,1.2-0.3,1.9v11h-4.1V7.3z"/>
	<path fill="#FF6600" d="M460.2,17.7c0,0.7,0.1,1.4,0.3,2.1c0.2,0.7,0.5,1.3,0.9,1.8c0.4,0.5,0.9,0.9,1.5,1.2
		c0.6,0.3,1.4,0.4,2.2,0.4c1.2,0,2.2-0.3,2.9-0.8c0.7-0.5,1.3-1.3,1.6-2.3h3.9c-0.2,1-0.6,1.9-1.1,2.7c-0.5,0.8-1.2,1.5-1.9,2
		s-1.6,0.9-2.5,1.2s-1.9,0.4-2.9,0.4c-1.5,0-2.8-0.2-3.9-0.7c-1.1-0.5-2.1-1.2-2.9-2c-0.8-0.9-1.4-1.9-1.8-3.1
		c-0.4-1.2-0.6-2.5-0.6-4c0-1.3,0.2-2.6,0.6-3.8c0.4-1.2,1-2.2,1.8-3.1c0.8-0.9,1.7-1.6,2.8-2.1c1.1-0.5,2.4-0.8,3.7-0.8
		c1.5,0,2.8,0.3,3.9,0.9c1.2,0.6,2.1,1.4,2.9,2.4c0.8,1,1.3,2.2,1.7,3.5c0.3,1.3,0.4,2.7,0.3,4H460.2z M469.8,15
		c0-0.6-0.2-1.3-0.4-1.9c-0.2-0.6-0.5-1.1-0.9-1.6s-0.9-0.8-1.4-1.1c-0.6-0.3-1.2-0.4-1.9-0.4c-0.7,0-1.4,0.1-2,0.4s-1.1,0.6-1.5,1
		c-0.4,0.4-0.8,1-1,1.6s-0.4,1.2-0.4,1.9H469.8z"/>
	<path fill="#FF6600" d="M480.1,19.9c0.1,1.2,0.6,2,1.4,2.5c0.8,0.5,1.7,0.7,2.8,0.7c0.4,0,0.8,0,1.3-0.1c0.5-0.1,1-0.2,1.4-0.3
		s0.8-0.4,1.1-0.7c0.3-0.3,0.4-0.8,0.4-1.3c0-0.5-0.2-1-0.6-1.3c-0.4-0.3-0.8-0.6-1.4-0.8c-0.6-0.2-1.2-0.4-1.9-0.5
		c-0.7-0.1-1.5-0.3-2.2-0.5c-0.8-0.2-1.5-0.4-2.2-0.6c-0.7-0.2-1.3-0.6-1.9-1c-0.6-0.4-1-0.9-1.4-1.6s-0.5-1.4-0.5-2.4
		c0-1,0.2-1.9,0.7-2.5c0.5-0.7,1.1-1.2,1.9-1.7c0.8-0.4,1.6-0.7,2.5-0.9c0.9-0.2,1.8-0.3,2.6-0.3c1,0,1.9,0.1,2.8,0.3
		c0.9,0.2,1.7,0.5,2.4,1c0.7,0.5,1.3,1.1,1.8,1.8c0.5,0.7,0.8,1.6,0.9,2.6h-4.3c-0.2-1-0.6-1.6-1.4-2c-0.7-0.3-1.5-0.5-2.4-0.5
		c-0.3,0-0.6,0-1,0.1s-0.8,0.1-1.1,0.3c-0.3,0.1-0.6,0.3-0.9,0.6s-0.4,0.6-0.4,1c0,0.5,0.2,0.9,0.5,1.2c0.3,0.3,0.8,0.6,1.4,0.8
		s1.2,0.4,1.9,0.5c0.7,0.1,1.5,0.3,2.2,0.5c0.7,0.2,1.5,0.4,2.2,0.6c0.7,0.2,1.4,0.6,1.9,1c0.6,0.4,1,0.9,1.4,1.5s0.5,1.4,0.5,2.3
		c0,1.1-0.3,2-0.8,2.8c-0.5,0.8-1.2,1.4-2,1.9c-0.8,0.5-1.7,0.8-2.7,1c-1,0.2-2,0.3-2.9,0.3c-1.2,0-2.3-0.1-3.3-0.4
		c-1-0.3-1.9-0.7-2.6-1.2s-1.3-1.2-1.7-2c-0.4-0.8-0.6-1.8-0.7-2.9H480.1z"/>
	<path fill="#FF6600" d="M498.8,19.9c0.1,1.2,0.6,2,1.4,2.5c0.8,0.5,1.7,0.7,2.8,0.7c0.4,0,0.8,0,1.3-0.1c0.5-0.1,1-0.2,1.4-0.3
		s0.8-0.4,1.1-0.7s0.4-0.8,0.4-1.3c0-0.5-0.2-1-0.6-1.3c-0.4-0.3-0.8-0.6-1.4-0.8c-0.6-0.2-1.2-0.4-1.9-0.5
		c-0.7-0.1-1.5-0.3-2.2-0.5c-0.8-0.2-1.5-0.4-2.2-0.6c-0.7-0.2-1.3-0.6-1.9-1c-0.6-0.4-1-0.9-1.3-1.6s-0.5-1.4-0.5-2.4
		c0-1,0.2-1.9,0.7-2.5c0.5-0.7,1.1-1.2,1.9-1.7c0.8-0.4,1.6-0.7,2.5-0.9c0.9-0.2,1.8-0.3,2.6-0.3c1,0,1.9,0.1,2.8,0.3s1.7,0.5,2.4,1
		c0.7,0.5,1.3,1.1,1.8,1.8c0.5,0.7,0.8,1.6,0.9,2.6h-4.3c-0.2-1-0.6-1.6-1.3-2c-0.7-0.3-1.5-0.5-2.4-0.5c-0.3,0-0.6,0-1,0.1
		c-0.4,0-0.8,0.1-1.1,0.3c-0.3,0.1-0.6,0.3-0.9,0.6s-0.4,0.6-0.4,1c0,0.5,0.2,0.9,0.5,1.2c0.3,0.3,0.8,0.6,1.4,0.8
		c0.6,0.2,1.2,0.4,1.9,0.5c0.7,0.1,1.5,0.3,2.2,0.5c0.7,0.2,1.5,0.4,2.2,0.6c0.7,0.2,1.4,0.6,1.9,1c0.6,0.4,1,0.9,1.4,1.5
		c0.3,0.6,0.5,1.4,0.5,2.3c0,1.1-0.3,2-0.8,2.8c-0.5,0.8-1.2,1.4-2,1.9c-0.8,0.5-1.7,0.8-2.7,1c-1,0.2-2,0.3-2.9,0.3
		c-1.2,0-2.3-0.1-3.3-0.4c-1-0.3-1.9-0.7-2.6-1.2c-0.7-0.5-1.3-1.2-1.7-2c-0.4-0.8-0.6-1.8-0.7-2.9H498.8z"/>
	<path fill="#FF6600" d="M540,21.8c0,0.5,0.1,0.9,0.2,1.1c0.1,0.2,0.4,0.3,0.8,0.3c0.1,0,0.3,0,0.4,0s0.4,0,0.6-0.1v2.8
		c-0.1,0-0.3,0.1-0.6,0.2c-0.2,0.1-0.5,0.1-0.7,0.2c-0.2,0-0.5,0.1-0.7,0.1c-0.2,0-0.4,0-0.6,0c-0.8,0-1.5-0.2-2.1-0.5
		c-0.6-0.3-0.9-0.9-1.1-1.8c-0.8,0.8-1.8,1.4-3,1.7s-2.3,0.5-3.4,0.5c-0.8,0-1.6-0.1-2.4-0.3c-0.8-0.2-1.4-0.6-2-1s-1.1-1-1.4-1.7
		c-0.3-0.7-0.5-1.5-0.5-2.4c0-1.2,0.2-2.1,0.6-2.8c0.4-0.7,1-1.3,1.7-1.7c0.7-0.4,1.5-0.7,2.3-0.9c0.9-0.2,1.7-0.3,2.6-0.4
		c0.7-0.1,1.5-0.2,2.1-0.3c0.7-0.1,1.3-0.2,1.8-0.3c0.5-0.1,0.9-0.4,1.2-0.7c0.3-0.3,0.4-0.8,0.4-1.4c0-0.5-0.1-1-0.4-1.3
		c-0.3-0.3-0.6-0.6-0.9-0.8c-0.4-0.2-0.8-0.3-1.2-0.4c-0.5-0.1-0.9-0.1-1.3-0.1c-1.2,0-2.1,0.2-2.8,0.7c-0.7,0.5-1.2,1.2-1.3,2.2
		h-4.1c0.1-1.2,0.4-2.2,0.9-3s1.1-1.4,1.9-1.9c0.8-0.5,1.7-0.8,2.6-1c1-0.2,2-0.3,3-0.3c0.9,0,1.8,0.1,2.7,0.3
		c0.9,0.2,1.7,0.5,2.4,0.9c0.7,0.4,1.3,1,1.7,1.7c0.4,0.7,0.6,1.5,0.6,2.5V21.8z M535.9,16.6c-0.6,0.4-1.4,0.7-2.3,0.7
		s-1.8,0.2-2.7,0.4c-0.4,0.1-0.9,0.2-1.3,0.3c-0.4,0.1-0.8,0.3-1.1,0.5c-0.3,0.2-0.6,0.5-0.7,0.9c-0.2,0.4-0.3,0.8-0.3,1.3
		c0,0.5,0.1,0.8,0.4,1.2c0.3,0.3,0.6,0.6,1,0.7c0.4,0.2,0.8,0.3,1.2,0.4c0.4,0.1,0.8,0.1,1.2,0.1c0.5,0,0.9-0.1,1.5-0.2
		c0.5-0.1,1-0.3,1.5-0.6c0.5-0.3,0.9-0.7,1.2-1.1c0.3-0.4,0.5-1,0.5-1.6V16.6z"/>
	<path fill="#FF6600" d="M544.4,7.3h3.9V10l0.1,0.1c0.6-1,1.4-1.8,2.4-2.4c1-0.6,2.1-0.9,3.3-0.9c2,0,3.6,0.5,4.8,1.6
		c1.2,1.1,1.8,2.6,1.8,4.8v12.8h-4.1V14.2c0-1.5-0.4-2.5-0.9-3.2s-1.5-1-2.7-1c-0.7,0-1.3,0.1-1.9,0.4c-0.6,0.3-1,0.6-1.4,1
		c-0.4,0.4-0.7,1-0.9,1.6c-0.2,0.6-0.3,1.2-0.3,1.9v11h-4.1V7.3z"/>
	<path fill="#FF6600" d="M563,7.3h4.5l4.9,13.9h0.1l4.7-13.9h4.3l-7.2,19.6c-0.3,0.8-0.7,1.6-1,2.4c-0.3,0.8-0.7,1.4-1.2,2
		c-0.5,0.6-1.1,1.1-1.7,1.4c-0.7,0.3-1.6,0.5-2.7,0.5c-1,0-1.9-0.1-2.8-0.2v-3.5c0.3,0,0.7,0.1,1,0.2c0.3,0.1,0.6,0.1,1,0.1
		c0.5,0,0.9-0.1,1.2-0.2c0.3-0.1,0.6-0.3,0.8-0.5c0.2-0.2,0.4-0.5,0.5-0.8c0.1-0.3,0.3-0.7,0.4-1.1l0.5-1.4L563,7.3z"/>
	<path fill="#FF6600" d="M582.1,7.3h4.4l3.6,13.9h0.1l3.5-13.9h4.1l3.3,13.9h0.1L605,7.3h4.2l-5.8,18.6h-4.2l-3.5-13.8h-0.1
		l-3.4,13.8h-4.3L582.1,7.3z"/>
	<path fill="#FF6600" d="M611.8,0.2h4.1v9.5h0.1c0.5-0.8,1.3-1.5,2.2-2.1c1-0.6,2.1-0.8,3.3-0.8c2,0,3.6,0.5,4.8,1.6
		c1.2,1.1,1.8,2.6,1.8,4.8v12.8H624V14.2c0-1.5-0.4-2.5-0.9-3.2s-1.5-1-2.7-1c-0.7,0-1.3,0.1-1.9,0.4c-0.6,0.3-1,0.6-1.4,1
		c-0.4,0.4-0.7,1-0.9,1.6c-0.2,0.6-0.3,1.2-0.3,1.9v11h-4.1V0.2z"/>
	<path fill="#FF6600" d="M635.6,17.7c0,0.7,0.1,1.4,0.3,2.1c0.2,0.7,0.5,1.3,0.9,1.8c0.4,0.5,0.9,0.9,1.5,1.2
		c0.6,0.3,1.4,0.4,2.2,0.4c1.2,0,2.2-0.3,2.9-0.8c0.7-0.5,1.3-1.3,1.6-2.3h3.9c-0.2,1-0.6,1.9-1.1,2.7c-0.5,0.8-1.2,1.5-1.9,2
		s-1.6,0.9-2.5,1.2s-1.9,0.4-2.9,0.4c-1.5,0-2.8-0.2-3.9-0.7c-1.1-0.5-2.1-1.2-2.9-2c-0.8-0.9-1.4-1.9-1.8-3.1
		c-0.4-1.2-0.6-2.5-0.6-4c0-1.3,0.2-2.6,0.6-3.8c0.4-1.2,1-2.2,1.8-3.1c0.8-0.9,1.7-1.6,2.8-2.1c1.1-0.5,2.4-0.8,3.7-0.8
		c1.5,0,2.8,0.3,3.9,0.9c1.2,0.6,2.1,1.4,2.9,2.4c0.8,1,1.3,2.2,1.7,3.5c0.3,1.3,0.4,2.7,0.3,4H635.6z M645.2,15
		c0-0.6-0.2-1.3-0.4-1.9c-0.2-0.6-0.5-1.1-0.9-1.6c-0.4-0.4-0.9-0.8-1.4-1.1c-0.6-0.3-1.2-0.4-1.9-0.4c-0.7,0-1.4,0.1-2,0.4
		s-1.1,0.6-1.5,1c-0.4,0.4-0.8,1-1,1.6s-0.4,1.2-0.4,1.9H645.2z"/>
	<path fill="#FF6600" d="M652.5,7.3h3.9v3.6h0.1c0.1-0.5,0.4-1,0.7-1.5c0.3-0.5,0.8-0.9,1.3-1.3c0.5-0.4,1-0.7,1.6-1
		s1.2-0.4,1.8-0.4c0.5,0,0.8,0,1,0c0.2,0,0.4,0,0.6,0.1v4c-0.3,0-0.6-0.1-0.9-0.1c-0.3,0-0.6-0.1-0.9-0.1c-0.7,0-1.3,0.1-2,0.4
		c-0.6,0.3-1.1,0.7-1.6,1.2s-0.8,1.2-1.1,2s-0.4,1.7-0.4,2.7v8.9h-4.1V7.3z"/>
	<path fill="#FF6600" d="M667.7,17.7c0,0.7,0.1,1.4,0.3,2.1c0.2,0.7,0.5,1.3,0.9,1.8c0.4,0.5,0.9,0.9,1.5,1.2
		c0.6,0.3,1.4,0.4,2.2,0.4c1.2,0,2.2-0.3,2.9-0.8c0.7-0.5,1.3-1.3,1.6-2.3h3.9c-0.2,1-0.6,1.9-1.1,2.7c-0.5,0.8-1.2,1.5-1.9,2
		s-1.6,0.9-2.5,1.2s-1.9,0.4-2.9,0.4c-1.5,0-2.8-0.2-3.9-0.7c-1.1-0.5-2.1-1.2-2.9-2c-0.8-0.9-1.4-1.9-1.8-3.1
		c-0.4-1.2-0.6-2.5-0.6-4c0-1.3,0.2-2.6,0.6-3.8c0.4-1.2,1-2.2,1.8-3.1c0.8-0.9,1.7-1.6,2.8-2.1c1.1-0.5,2.4-0.8,3.7-0.8
		c1.5,0,2.8,0.3,3.9,0.9c1.2,0.6,2.1,1.4,2.9,2.4c0.8,1,1.3,2.2,1.7,3.5c0.3,1.3,0.4,2.7,0.3,4H667.7z M677.3,15
		c0-0.6-0.2-1.3-0.4-1.9c-0.2-0.6-0.5-1.1-0.9-1.6s-0.9-0.8-1.4-1.1c-0.6-0.3-1.2-0.4-1.9-0.4c-0.7,0-1.4,0.1-2,0.4s-1.1,0.6-1.5,1
		c-0.4,0.4-0.8,1-1,1.6s-0.4,1.2-0.4,1.9H677.3z"/>
</g>
</svg>
