<?xml version="1.0" encoding="utf-8"?>
<!-- Generator: Adobe Illustrator 17.1.0, SVG Export Plug-In . SVG Version: 6.00 Build 0)  -->
<!DOCTYPE svg PUBLIC "-//W3C//DTD SVG 1.1//EN" "http://www.w3.org/Graphics/SVG/1.1/DTD/svg11.dtd">
<svg version="1.1" id="图层_1" xmlns="http://www.w3.org/2000/svg" xmlns:xlink="http://www.w3.org/1999/xlink" x="0px" y="0px"
	 viewBox="0 0 663 33.8" enable-background="new 0 0 663 33.8" xml:space="preserve">
<g>
	<path fill="#FF6600" d="M0.4,3.3V0.4h20.6v2.9h-8.6v22.8H9V3.3H0.4z"/>
	<path fill="#FF6600" d="M18.9,13c0.4-1.2,1-2.2,1.7-3.1c0.8-0.9,1.7-1.6,2.8-2.1c1.1-0.5,2.4-0.8,3.9-0.8c1.5,0,2.8,0.3,3.9,0.8
		c1.1,0.5,2.1,1.2,2.8,2.1c0.8,0.9,1.3,1.9,1.7,3.1c0.4,1.2,0.6,2.5,0.6,3.8s-0.2,2.6-0.6,3.8s-1,2.2-1.7,3.1
		c-0.8,0.9-1.7,1.6-2.8,2.1c-1.1,0.5-2.4,0.7-3.9,0.7c-1.5,0-2.8-0.2-3.9-0.7c-1.1-0.5-2.1-1.2-2.8-2.1c-0.8-0.9-1.3-1.9-1.7-3.1
		s-0.6-2.4-0.6-3.8S18.5,14.2,18.9,13z M22,19.9c0.3,0.9,0.7,1.6,1.2,2.2c0.5,0.6,1.1,1,1.9,1.3c0.7,0.3,1.5,0.5,2.2,0.5
		s1.5-0.2,2.2-0.5c0.7-0.3,1.3-0.8,1.9-1.3c0.5-0.6,0.9-1.3,1.2-2.2c0.3-0.9,0.5-1.9,0.5-3c0-1.1-0.2-2.1-0.5-3s-0.7-1.6-1.2-2.2
		c-0.5-0.6-1.1-1.1-1.9-1.4c-0.7-0.3-1.5-0.5-2.2-0.5s-1.5,0.2-2.2,0.5c-0.7,0.3-1.3,0.8-1.9,1.4c-0.5,0.6-0.9,1.3-1.2,2.2
		c-0.3,0.9-0.5,1.9-0.5,3C21.5,18,21.7,19,22,19.9z"/>
	<path fill="#FF6600" d="M52.8,7.5v2.7h0.1c1.4-2.1,3.4-3.2,6-3.2c1.2,0,2.2,0.2,3.1,0.7c0.9,0.5,1.6,1.3,2,2.4
		c0.6-1,1.4-1.8,2.5-2.3s2.1-0.8,3.4-0.8c0.9,0,1.8,0.1,2.5,0.3c0.8,0.2,1.4,0.5,1.9,1c0.5,0.4,1,1,1.3,1.7c0.3,0.7,0.5,1.5,0.5,2.5
		v13.6H73V13.9c0-0.6,0-1.1-0.1-1.6c-0.1-0.5-0.3-0.9-0.5-1.3c-0.3-0.4-0.6-0.7-1.1-0.9c-0.5-0.2-1.1-0.3-1.8-0.3
		c-1.5,0-2.7,0.4-3.6,1.3c-0.9,0.9-1.3,2-1.3,3.5v11.6h-3.1V13.9c0-0.6-0.1-1.2-0.2-1.7c-0.1-0.5-0.3-0.9-0.6-1.3
		c-0.3-0.4-0.6-0.7-1.1-0.9c-0.4-0.2-1-0.3-1.7-0.3c-0.9,0-1.7,0.2-2.3,0.5c-0.6,0.4-1.2,0.8-1.5,1.3c-0.4,0.5-0.7,1-0.9,1.6
		c-0.2,0.5-0.3,1-0.3,1.4v11.6H50V7.5H52.8z"/>
	<path fill="#FF6600" d="M95,26.5c-0.8,0-1.4-0.2-1.9-0.7c-0.5-0.4-0.7-1.2-0.7-2.2c-0.8,1-1.8,1.7-2.9,2.2
		c-1.1,0.4-2.3,0.7-3.6,0.7c-0.8,0-1.6-0.1-2.4-0.3c-0.7-0.2-1.4-0.5-2-0.9c-0.6-0.4-1-1-1.3-1.6s-0.5-1.5-0.5-2.4
		c0-1.1,0.2-1.9,0.5-2.6s0.8-1.2,1.4-1.6s1.3-0.7,2-1c0.8-0.2,1.5-0.4,2.3-0.5c0.8-0.2,1.6-0.3,2.4-0.4s1.4-0.2,2-0.4s1-0.4,1.4-0.7
		c0.3-0.3,0.5-0.7,0.5-1.3c0-0.7-0.1-1.2-0.4-1.6c-0.3-0.4-0.6-0.7-1-0.9c-0.4-0.2-0.8-0.4-1.3-0.4c-0.5-0.1-1-0.1-1.5-0.1
		c-1.3,0-2.4,0.2-3.2,0.7C84,11,83.5,12,83.4,13.3h-3.1c0-1.2,0.3-2.1,0.7-2.9c0.4-0.8,1-1.4,1.7-1.9c0.7-0.5,1.5-0.8,2.5-1.1
		c0.9-0.2,1.9-0.3,3-0.3c0.8,0,1.7,0.1,2.5,0.2C91.6,7.4,92.3,7.7,93,8c0.7,0.4,1.2,0.9,1.6,1.6c0.4,0.7,0.6,1.5,0.6,2.6v9.6
		c0,0.7,0,1.2,0.1,1.6c0.1,0.3,0.4,0.5,0.8,0.5c0.3,0,0.6-0.1,0.9-0.2v2.4C96.6,26.4,95.9,26.5,95,26.5z M90.7,17.2
		c-0.6,0.1-1.3,0.2-2,0.3c-0.7,0.1-1.4,0.2-2.1,0.3c-0.7,0.1-1.3,0.3-1.9,0.5c-0.6,0.2-1,0.6-1.4,1c-0.3,0.4-0.5,1.1-0.5,1.8
		c0,0.5,0.1,0.9,0.3,1.3s0.5,0.6,0.8,0.8s0.7,0.4,1.2,0.5c0.4,0.1,0.9,0.1,1.3,0.1c1,0,1.9-0.1,2.6-0.4c0.7-0.3,1.3-0.6,1.8-1
		c0.5-0.4,0.8-0.9,1-1.4s0.3-1,0.3-1.4v-3.1C91.8,16.8,91.3,17,90.7,17.2z"/>
	<path fill="#FF6600" d="M103.2,0.4v15.2l8.5-8.1h4.1l-7.4,6.8l7.9,11.8h-3.9l-6.4-9.7l-2.9,2.7v7.1h-3.1V0.4H103.2z"/>
	<path fill="#FF6600" d="M131.9,25c-1.4,1.1-3.1,1.6-5.3,1.6c-1.5,0-2.8-0.2-3.9-0.7c-1.1-0.5-2-1.2-2.8-2s-1.3-1.9-1.7-3.1
		s-0.6-2.5-0.6-3.9c0-1.4,0.2-2.7,0.6-3.9c0.4-1.2,1-2.2,1.8-3.1c0.8-0.9,1.7-1.5,2.8-2c1.1-0.5,2.2-0.7,3.5-0.7c1.7,0,3,0.3,4.1,1
		c1.1,0.7,2,1.6,2.6,2.6c0.7,1.1,1.1,2.2,1.4,3.5c0.3,1.2,0.4,2.4,0.3,3.6h-13.9c0,0.8,0.1,1.6,0.3,2.3c0.2,0.7,0.6,1.4,1,1.9
		c0.5,0.6,1.1,1,1.8,1.3c0.7,0.3,1.6,0.5,2.6,0.5c1.3,0,2.4-0.3,3.2-0.9c0.8-0.6,1.4-1.5,1.6-2.7h3C134.2,22.3,133.3,23.9,131.9,25z
		 M131.1,13c-0.3-0.6-0.6-1.2-1.1-1.7c-0.5-0.5-1-0.8-1.7-1.1c-0.6-0.3-1.3-0.4-2.1-0.4c-0.8,0-1.5,0.1-2.1,0.4
		c-0.6,0.3-1.2,0.7-1.6,1.1c-0.5,0.5-0.8,1-1.1,1.7c-0.3,0.6-0.4,1.3-0.5,2h10.7C131.6,14.3,131.4,13.7,131.1,13z"/>
	<path fill="#FF6600" d="M148.2,4.2V0.4h3.1v3.7H148.2z M151.3,7.5v18.6h-3.1V7.5H151.3z"/>
	<path fill="#FF6600" d="M164,7.5v2.7h-3.7v11.6c0,0.4,0,0.6,0.1,0.9s0.2,0.4,0.3,0.5c0.2,0.1,0.4,0.2,0.7,0.2s0.7,0.1,1.2,0.1h1.4
		v2.7h-2.3c-0.8,0-1.5-0.1-2-0.2c-0.6-0.1-1-0.3-1.4-0.6s-0.6-0.7-0.8-1.2c-0.2-0.5-0.3-1.2-0.3-2.1V10.2H154V7.5h3.2V2h3.1v5.6H164
		z"/>
	<path fill="#FF6600" d="M190.5,25c-1.4,1.1-3.1,1.6-5.3,1.6c-1.5,0-2.8-0.2-3.9-0.7c-1.1-0.5-2-1.2-2.8-2s-1.3-1.9-1.7-3.1
		s-0.6-2.5-0.6-3.9c0-1.4,0.2-2.7,0.6-3.9c0.4-1.2,1-2.2,1.8-3.1c0.8-0.9,1.7-1.5,2.8-2c1.1-0.5,2.2-0.7,3.5-0.7c1.7,0,3,0.3,4.1,1
		c1.1,0.7,2,1.6,2.6,2.6c0.7,1.1,1.1,2.2,1.4,3.5c0.3,1.2,0.4,2.4,0.3,3.6h-13.9c0,0.8,0.1,1.6,0.3,2.3c0.2,0.7,0.6,1.4,1,1.9
		c0.5,0.6,1.1,1,1.8,1.3c0.7,0.3,1.6,0.5,2.6,0.5c1.3,0,2.4-0.3,3.2-0.9c0.8-0.6,1.4-1.5,1.6-2.7h3C192.8,22.3,191.9,23.9,190.5,25z
		 M189.8,13c-0.3-0.6-0.6-1.2-1.1-1.7c-0.5-0.5-1-0.8-1.7-1.1c-0.6-0.3-1.3-0.4-2.1-0.4c-0.8,0-1.5,0.1-2.1,0.4
		c-0.6,0.3-1.2,0.7-1.6,1.1c-0.5,0.5-0.8,1-1.1,1.7c-0.3,0.6-0.4,1.3-0.5,2h10.7C190.2,14.3,190.1,13.7,189.8,13z"/>
	<path fill="#FF6600" d="M211,26.5c-0.8,0-1.4-0.2-1.9-0.7c-0.5-0.4-0.7-1.2-0.7-2.2c-0.8,1-1.8,1.7-2.9,2.2
		c-1.1,0.4-2.3,0.7-3.6,0.7c-0.8,0-1.6-0.1-2.4-0.3c-0.7-0.2-1.4-0.5-2-0.9c-0.6-0.4-1-1-1.3-1.6s-0.5-1.5-0.5-2.4
		c0-1.1,0.2-1.9,0.5-2.6s0.8-1.2,1.4-1.6s1.3-0.7,2-1c0.8-0.2,1.5-0.4,2.3-0.5c0.8-0.2,1.6-0.3,2.4-0.4s1.4-0.2,2-0.4s1-0.4,1.4-0.7
		c0.3-0.3,0.5-0.7,0.5-1.3c0-0.7-0.1-1.2-0.4-1.6c-0.3-0.4-0.6-0.7-1-0.9c-0.4-0.2-0.8-0.4-1.3-0.4c-0.5-0.1-1-0.1-1.5-0.1
		c-1.3,0-2.4,0.2-3.2,0.7c-0.9,0.5-1.3,1.4-1.4,2.8h-3.1c0-1.2,0.3-2.1,0.7-2.9c0.4-0.8,1-1.4,1.7-1.9c0.7-0.5,1.5-0.8,2.5-1.1
		c0.9-0.2,1.9-0.3,3-0.3c0.8,0,1.7,0.1,2.5,0.2c0.8,0.1,1.6,0.4,2.2,0.7c0.7,0.4,1.2,0.9,1.6,1.6c0.4,0.7,0.6,1.5,0.6,2.6v9.6
		c0,0.7,0,1.2,0.1,1.6c0.1,0.3,0.4,0.5,0.8,0.5c0.3,0,0.6-0.1,0.9-0.2v2.4C212.7,26.4,211.9,26.5,211,26.5z M206.7,17.2
		c-0.6,0.1-1.3,0.2-2,0.3c-0.7,0.1-1.4,0.2-2.1,0.3c-0.7,0.1-1.3,0.3-1.9,0.5c-0.6,0.2-1,0.6-1.4,1c-0.3,0.4-0.5,1.1-0.5,1.8
		c0,0.5,0.1,0.9,0.3,1.3s0.5,0.6,0.8,0.8s0.7,0.4,1.2,0.5c0.4,0.1,0.9,0.1,1.3,0.1c1,0,1.9-0.1,2.6-0.4c0.7-0.3,1.3-0.6,1.8-1
		c0.5-0.4,0.8-0.9,1-1.4s0.3-1,0.3-1.4v-3.1C207.8,16.8,207.3,17,206.7,17.2z"/>
	<path fill="#FF6600" d="M218.4,22c0.3,0.5,0.7,0.8,1.1,1.1c0.5,0.3,1,0.5,1.6,0.6c0.6,0.1,1.2,0.2,1.8,0.2c0.5,0,1,0,1.5-0.1
		c0.5-0.1,1-0.2,1.5-0.4c0.4-0.2,0.8-0.5,1.1-0.8s0.4-0.8,0.4-1.4c0-0.8-0.3-1.4-0.9-1.8c-0.6-0.4-1.4-0.7-2.2-1
		c-0.9-0.3-1.9-0.5-2.9-0.7s-2-0.5-2.9-0.9c-0.9-0.4-1.7-0.9-2.2-1.6c-0.6-0.7-0.9-1.6-0.9-2.8c0-0.9,0.2-1.7,0.6-2.4s1-1.2,1.6-1.6
		s1.4-0.7,2.2-0.9c0.8-0.2,1.6-0.3,2.5-0.3c1.1,0,2,0.1,2.9,0.3c0.9,0.2,1.7,0.5,2.4,0.9c0.7,0.4,1.2,1,1.6,1.8s0.6,1.7,0.7,2.8
		h-3.1c0-0.6-0.2-1.1-0.5-1.5c-0.3-0.4-0.6-0.7-1-1c-0.4-0.2-0.9-0.4-1.3-0.5c-0.5-0.1-1-0.2-1.5-0.2c-0.5,0-0.9,0-1.4,0.1
		c-0.5,0.1-0.9,0.2-1.3,0.4c-0.4,0.2-0.7,0.4-0.9,0.7c-0.2,0.3-0.4,0.7-0.4,1.2c0,0.5,0.2,1,0.6,1.3c0.4,0.3,0.8,0.6,1.4,0.9
		c0.6,0.2,1.2,0.4,1.9,0.6c0.7,0.2,1.4,0.3,2.2,0.5c0.8,0.2,1.5,0.4,2.2,0.6c0.7,0.2,1.4,0.6,1.9,1c0.6,0.4,1,0.9,1.4,1.5
		c0.3,0.6,0.5,1.3,0.5,2.2c0,1.1-0.2,2.1-0.7,2.8s-1.1,1.3-1.8,1.8c-0.8,0.5-1.6,0.8-2.6,1c-0.9,0.2-1.9,0.3-2.8,0.3
		c-1,0-2-0.1-3-0.3c-0.9-0.2-1.8-0.6-2.5-1.1c-0.7-0.5-1.3-1.1-1.7-1.9c-0.4-0.8-0.7-1.8-0.7-2.9h3.1C217.9,21,218.1,21.5,218.4,22z
		"/>
	<path fill="#FF6600" d="M240.3,30.9c-0.3,0.6-0.7,1.1-1.2,1.5c-0.4,0.4-0.9,0.7-1.4,0.9c-0.5,0.2-1.1,0.3-1.8,0.3
		c-0.4,0-0.7,0-1.1-0.1c-0.4,0-0.7-0.1-1-0.3v-2.8c0.3,0.1,0.6,0.2,0.9,0.3c0.3,0.1,0.6,0.1,0.9,0.1c0.6,0,1.1-0.1,1.5-0.4
		c0.4-0.3,0.7-0.7,1-1.3l1.3-3.1L232,7.5h3.5l5.4,15.2h0.1l5.2-15.2h3.2l-8.1,21.1C241,29.5,240.6,30.3,240.3,30.9z"/>
	<path fill="#FF6600" d="M270,7.5v2.7h-3.7v11.6c0,0.4,0,0.6,0.1,0.9s0.2,0.4,0.3,0.5c0.2,0.1,0.4,0.2,0.7,0.2s0.7,0.1,1.2,0.1h1.4
		v2.7h-2.3c-0.8,0-1.5-0.1-2-0.2c-0.6-0.1-1-0.3-1.4-0.6s-0.6-0.7-0.8-1.2c-0.2-0.5-0.3-1.2-0.3-2.1V10.2h-3.2V7.5h3.2V2h3.1v5.6
		H270z"/>
	<path fill="#FF6600" d="M272.9,13c0.4-1.2,1-2.2,1.7-3.1c0.8-0.9,1.7-1.6,2.8-2.1c1.1-0.5,2.4-0.8,3.9-0.8c1.5,0,2.8,0.3,3.9,0.8
		c1.1,0.5,2.1,1.2,2.8,2.1c0.8,0.9,1.3,1.9,1.7,3.1c0.4,1.2,0.6,2.5,0.6,3.8s-0.2,2.6-0.6,3.8s-1,2.2-1.7,3.1
		c-0.8,0.9-1.7,1.6-2.8,2.1c-1.1,0.5-2.4,0.7-3.9,0.7c-1.5,0-2.8-0.2-3.9-0.7c-1.1-0.5-2.1-1.2-2.8-2.1c-0.8-0.9-1.3-1.9-1.7-3.1
		s-0.6-2.4-0.6-3.8S272.6,14.2,272.9,13z M276.1,19.9c0.3,0.9,0.7,1.6,1.2,2.2c0.5,0.6,1.1,1,1.9,1.3c0.7,0.3,1.5,0.5,2.2,0.5
		s1.5-0.2,2.2-0.5c0.7-0.3,1.3-0.8,1.9-1.3c0.5-0.6,0.9-1.3,1.2-2.2c0.3-0.9,0.5-1.9,0.5-3c0-1.1-0.2-2.1-0.5-3s-0.7-1.6-1.2-2.2
		c-0.5-0.6-1.1-1.1-1.9-1.4c-0.7-0.3-1.5-0.5-2.2-0.5s-1.5,0.2-2.2,0.5c-0.7,0.3-1.3,0.8-1.9,1.4c-0.5,0.6-0.9,1.3-1.2,2.2
		c-0.3,0.9-0.5,1.9-0.5,3C275.6,18,275.8,19,276.1,19.9z"/>
	<path fill="#FF6600" d="M317.6,26.1v-2.5h-0.1c-0.5,1-1.3,1.8-2.4,2.2c-1.1,0.5-2.3,0.7-3.6,0.7c-1.4,0-2.7-0.3-3.8-0.8
		c-1.1-0.5-2-1.2-2.7-2.1c-0.7-0.9-1.2-1.9-1.6-3.1c-0.4-1.2-0.5-2.4-0.5-3.7c0-1.3,0.2-2.6,0.5-3.7c0.3-1.2,0.9-2.2,1.6-3.1
		c0.7-0.9,1.6-1.6,2.7-2.1c1.1-0.5,2.3-0.8,3.7-0.8c0.5,0,1,0,1.5,0.1c0.6,0.1,1.1,0.3,1.7,0.5c0.6,0.2,1.1,0.5,1.6,0.9
		s0.9,0.8,1.2,1.4h0.1V0.4h3.1v25.7H317.6z M306.6,19.5c0.2,0.8,0.6,1.6,1,2.2c0.5,0.6,1.1,1.2,1.8,1.5s1.6,0.6,2.6,0.6
		c1,0,1.9-0.2,2.6-0.6s1.3-0.9,1.8-1.6c0.5-0.7,0.8-1.4,1-2.2c0.2-0.8,0.3-1.7,0.3-2.6c0-0.9-0.1-1.8-0.3-2.6s-0.6-1.6-1-2.2
		c-0.5-0.6-1.1-1.2-1.8-1.6c-0.7-0.4-1.6-0.6-2.7-0.6c-1,0-1.9,0.2-2.6,0.6c-0.7,0.4-1.3,0.9-1.7,1.6c-0.4,0.7-0.7,1.4-0.9,2.3
		c-0.2,0.9-0.3,1.8-0.3,2.7C306.3,17.9,306.4,18.7,306.6,19.5z"/>
	<path fill="#FF6600" d="M325,13c0.4-1.2,1-2.2,1.7-3.1c0.8-0.9,1.7-1.6,2.8-2.1c1.1-0.5,2.4-0.8,3.9-0.8c1.5,0,2.8,0.3,3.9,0.8
		c1.1,0.5,2.1,1.2,2.8,2.1c0.8,0.9,1.3,1.9,1.7,3.1c0.4,1.2,0.6,2.5,0.6,3.8s-0.2,2.6-0.6,3.8s-1,2.2-1.7,3.1
		c-0.8,0.9-1.7,1.6-2.8,2.1c-1.1,0.5-2.4,0.7-3.9,0.7c-1.5,0-2.8-0.2-3.9-0.7c-1.1-0.5-2.1-1.2-2.8-2.1c-0.8-0.9-1.3-1.9-1.7-3.1
		s-0.6-2.4-0.6-3.8S324.6,14.2,325,13z M328.1,19.9c0.3,0.9,0.7,1.6,1.2,2.2c0.5,0.6,1.1,1,1.9,1.3c0.7,0.3,1.5,0.5,2.2,0.5
		s1.5-0.2,2.2-0.5c0.7-0.3,1.3-0.8,1.9-1.3c0.5-0.6,0.9-1.3,1.2-2.2c0.3-0.9,0.5-1.9,0.5-3c0-1.1-0.2-2.1-0.5-3s-0.7-1.6-1.2-2.2
		c-0.5-0.6-1.1-1.1-1.9-1.4c-0.7-0.3-1.5-0.5-2.2-0.5s-1.5,0.2-2.2,0.5c-0.7,0.3-1.3,0.8-1.9,1.4c-0.5,0.6-0.9,1.3-1.2,2.2
		c-0.3,0.9-0.5,1.9-0.5,3C327.6,18,327.8,19,328.1,19.9z"/>
	<path fill="#FF6600" d="M359.2,0.4v9.6h0.1c0.5-1,1.3-1.8,2.4-2.2s2.3-0.7,3.6-0.7c1.4,0,2.7,0.3,3.8,0.8c1.1,0.5,2,1.2,2.7,2.1
		c0.7,0.9,1.2,1.9,1.6,3.1c0.4,1.2,0.5,2.4,0.5,3.7c0,1.3-0.2,2.6-0.5,3.7c-0.3,1.2-0.9,2.2-1.6,3.1c-0.7,0.9-1.6,1.6-2.7,2.1
		c-1.1,0.5-2.3,0.8-3.7,0.8c-0.5,0-1,0-1.5-0.1c-0.6-0.1-1.1-0.3-1.7-0.5c-0.6-0.2-1.1-0.5-1.6-0.9c-0.5-0.4-0.9-0.8-1.2-1.4h-0.1
		v2.5h-3.1V0.4H359.2z M370.2,14.1c-0.2-0.8-0.6-1.6-1-2.2c-0.5-0.6-1.1-1.2-1.8-1.5c-0.7-0.4-1.6-0.6-2.6-0.6c-1,0-1.9,0.2-2.6,0.6
		c-0.7,0.4-1.3,0.9-1.8,1.6c-0.5,0.7-0.8,1.4-1,2.2s-0.3,1.7-0.3,2.6c0,0.9,0.1,1.8,0.3,2.6c0.2,0.9,0.6,1.6,1,2.2
		c0.5,0.6,1.1,1.2,1.8,1.6c0.7,0.4,1.6,0.6,2.7,0.6c1.1,0,1.9-0.2,2.6-0.6s1.3-0.9,1.7-1.6s0.7-1.4,0.9-2.3c0.2-0.9,0.3-1.8,0.3-2.7
		C370.6,15.8,370.5,15,370.2,14.1z"/>
	<path fill="#FF6600" d="M389.9,26.1v-3h-0.1c-0.6,1.2-1.5,2-2.5,2.5c-1,0.5-2.2,0.8-3.6,0.8c-1.2,0-2.2-0.2-3.1-0.5
		c-0.8-0.3-1.5-0.8-2-1.4s-0.9-1.3-1.1-2.1c-0.2-0.8-0.3-1.7-0.3-2.8V7.5h3.1v12.6c0,1.2,0.3,2.1,1,2.7c0.7,0.7,1.6,1,2.8,1
		c0.9,0,1.7-0.1,2.4-0.4c0.7-0.3,1.3-0.7,1.7-1.2c0.5-0.5,0.8-1.1,1-1.9c0.2-0.7,0.3-1.5,0.3-2.3V7.5h3.1v18.6H389.9z"/>
	<path fill="#FF6600" d="M399.8,22c0.3,0.5,0.7,0.8,1.1,1.1c0.5,0.3,1,0.5,1.6,0.6c0.6,0.1,1.2,0.2,1.8,0.2c0.5,0,1,0,1.5-0.1
		c0.5-0.1,1-0.2,1.5-0.4c0.4-0.2,0.8-0.5,1.1-0.8s0.4-0.8,0.4-1.4c0-0.8-0.3-1.4-0.9-1.8c-0.6-0.4-1.4-0.7-2.2-1
		c-0.9-0.3-1.9-0.5-2.9-0.7s-2-0.5-2.9-0.9c-0.9-0.4-1.7-0.9-2.2-1.6c-0.6-0.7-0.9-1.6-0.9-2.8c0-0.9,0.2-1.7,0.6-2.4s1-1.2,1.6-1.6
		s1.4-0.7,2.2-0.9c0.8-0.2,1.6-0.3,2.5-0.3c1.1,0,2,0.1,2.9,0.3c0.9,0.2,1.7,0.5,2.4,0.9c0.7,0.4,1.2,1,1.6,1.8s0.6,1.7,0.7,2.8
		h-3.1c0-0.6-0.2-1.1-0.5-1.5c-0.3-0.4-0.6-0.7-1-1c-0.4-0.2-0.9-0.4-1.3-0.5c-0.5-0.1-1-0.2-1.5-0.2c-0.5,0-0.9,0-1.4,0.1
		c-0.5,0.1-0.9,0.2-1.3,0.4c-0.4,0.2-0.7,0.4-0.9,0.7c-0.2,0.3-0.4,0.7-0.4,1.2c0,0.5,0.2,1,0.6,1.3c0.4,0.3,0.8,0.6,1.4,0.9
		c0.6,0.2,1.2,0.4,1.9,0.6c0.7,0.2,1.4,0.3,2.2,0.5c0.8,0.2,1.5,0.4,2.2,0.6c0.7,0.2,1.4,0.6,1.9,1c0.6,0.4,1,0.9,1.4,1.5
		c0.3,0.6,0.5,1.3,0.5,2.2c0,1.1-0.2,2.1-0.7,2.8s-1.1,1.3-1.8,1.8c-0.8,0.5-1.6,0.8-2.6,1c-0.9,0.2-1.9,0.3-2.8,0.3
		c-1,0-2-0.1-3-0.3c-0.9-0.2-1.8-0.6-2.5-1.1c-0.7-0.5-1.3-1.1-1.7-1.9c-0.4-0.8-0.7-1.8-0.7-2.9h3.1C399.3,21,399.5,21.5,399.8,22z
		"/>
	<path fill="#FF6600" d="M415.6,4.2V0.4h3.1v3.7H415.6z M418.7,7.5v18.6h-3.1V7.5H418.7z"/>
	<path fill="#FF6600" d="M426.3,7.5v3h0.1c1.3-2.3,3.3-3.4,6-3.4c1.2,0,2.2,0.2,3.1,0.5c0.8,0.3,1.5,0.8,2,1.4s0.9,1.3,1.1,2.1
		c0.2,0.8,0.3,1.7,0.3,2.8v12.2h-3.1V13.5c0-1.2-0.3-2.1-1-2.7s-1.6-1-2.8-1c-0.9,0-1.7,0.1-2.4,0.4c-0.7,0.3-1.3,0.7-1.7,1.2
		c-0.5,0.5-0.8,1.1-1,1.9c-0.2,0.7-0.3,1.5-0.3,2.3v10.5h-3.1V7.5H426.3z"/>
	<path fill="#FF6600" d="M456.6,25c-1.4,1.1-3.1,1.6-5.3,1.6c-1.5,0-2.8-0.2-3.9-0.7c-1.1-0.5-2-1.2-2.8-2s-1.3-1.9-1.7-3.1
		s-0.6-2.5-0.6-3.9c0-1.4,0.2-2.7,0.6-3.9c0.4-1.2,1-2.2,1.8-3.1c0.8-0.9,1.7-1.5,2.8-2c1.1-0.5,2.2-0.7,3.5-0.7c1.7,0,3,0.3,4.1,1
		c1.1,0.7,2,1.6,2.6,2.6c0.7,1.1,1.1,2.2,1.4,3.5c0.3,1.2,0.4,2.4,0.3,3.6h-13.9c0,0.8,0.1,1.6,0.3,2.3c0.2,0.7,0.6,1.4,1,1.9
		c0.5,0.6,1.1,1,1.8,1.3c0.7,0.3,1.6,0.5,2.6,0.5c1.3,0,2.4-0.3,3.2-0.9c0.8-0.6,1.4-1.5,1.6-2.7h3C458.9,22.3,458,23.9,456.6,25z
		 M455.9,13c-0.3-0.6-0.6-1.2-1.1-1.7c-0.5-0.5-1-0.8-1.7-1.1c-0.6-0.3-1.3-0.4-2.1-0.4c-0.8,0-1.5,0.1-2.1,0.4
		c-0.6,0.3-1.2,0.7-1.6,1.1c-0.5,0.5-0.8,1-1.1,1.7c-0.3,0.6-0.4,1.3-0.5,2h10.7C456.3,14.3,456.2,13.7,455.9,13z"/>
	<path fill="#FF6600" d="M465.1,22c0.3,0.5,0.7,0.8,1.1,1.1c0.5,0.3,1,0.5,1.6,0.6c0.6,0.1,1.2,0.2,1.8,0.2c0.5,0,1,0,1.5-0.1
		c0.5-0.1,1-0.2,1.5-0.4c0.4-0.2,0.8-0.5,1.1-0.8s0.4-0.8,0.4-1.4c0-0.8-0.3-1.4-0.9-1.8c-0.6-0.4-1.4-0.7-2.2-1
		c-0.9-0.3-1.9-0.5-2.9-0.7s-2-0.5-2.9-0.9c-0.9-0.4-1.7-0.9-2.2-1.6c-0.6-0.7-0.9-1.6-0.9-2.8c0-0.9,0.2-1.7,0.6-2.4s1-1.2,1.6-1.6
		s1.4-0.7,2.2-0.9c0.8-0.2,1.6-0.3,2.5-0.3c1.1,0,2,0.1,2.9,0.3c0.9,0.2,1.7,0.5,2.4,0.9c0.7,0.4,1.2,1,1.6,1.8s0.6,1.7,0.7,2.8
		h-3.1c0-0.6-0.2-1.1-0.5-1.5c-0.3-0.4-0.6-0.7-1-1c-0.4-0.2-0.9-0.4-1.3-0.5c-0.5-0.1-1-0.2-1.5-0.2c-0.5,0-0.9,0-1.4,0.1
		c-0.5,0.1-0.9,0.2-1.3,0.4c-0.4,0.2-0.7,0.4-0.9,0.7c-0.2,0.3-0.4,0.7-0.4,1.2c0,0.5,0.2,1,0.6,1.3c0.4,0.3,0.8,0.6,1.4,0.9
		c0.6,0.2,1.2,0.4,1.9,0.6c0.7,0.2,1.4,0.3,2.2,0.5c0.8,0.2,1.5,0.4,2.2,0.6c0.7,0.2,1.4,0.6,1.9,1c0.6,0.4,1,0.9,1.4,1.5
		c0.3,0.6,0.5,1.3,0.5,2.2c0,1.1-0.2,2.1-0.7,2.8s-1.1,1.3-1.8,1.8c-0.8,0.5-1.6,0.8-2.6,1c-0.9,0.2-1.9,0.3-2.8,0.3
		c-1,0-2-0.1-3-0.3c-0.9-0.2-1.8-0.6-2.5-1.1c-0.7-0.5-1.3-1.1-1.7-1.9c-0.4-0.8-0.7-1.8-0.7-2.9h3.1C464.7,21,464.8,21.5,465.1,22z
		"/>
	<path fill="#FF6600" d="M483.1,22c0.3,0.5,0.7,0.8,1.1,1.1c0.5,0.3,1,0.5,1.6,0.6c0.6,0.1,1.2,0.2,1.8,0.2c0.5,0,1,0,1.5-0.1
		c0.5-0.1,1-0.2,1.5-0.4c0.4-0.2,0.8-0.5,1.1-0.8s0.4-0.8,0.4-1.4c0-0.8-0.3-1.4-0.9-1.8c-0.6-0.4-1.4-0.7-2.2-1
		c-0.9-0.3-1.9-0.5-2.9-0.7s-2-0.5-2.9-0.9c-0.9-0.4-1.7-0.9-2.2-1.6c-0.6-0.7-0.9-1.6-0.9-2.8c0-0.9,0.2-1.7,0.6-2.4s1-1.2,1.6-1.6
		s1.4-0.7,2.2-0.9c0.8-0.2,1.6-0.3,2.5-0.3c1.1,0,2,0.1,2.9,0.3c0.9,0.2,1.7,0.5,2.4,0.9c0.7,0.4,1.2,1,1.6,1.8s0.6,1.7,0.7,2.8
		h-3.1c0-0.6-0.2-1.1-0.5-1.5c-0.3-0.4-0.6-0.7-1-1c-0.4-0.2-0.9-0.4-1.3-0.5c-0.5-0.1-1-0.2-1.5-0.2c-0.5,0-0.9,0-1.4,0.1
		c-0.5,0.1-0.9,0.2-1.3,0.4c-0.4,0.2-0.7,0.4-0.9,0.7c-0.2,0.3-0.4,0.7-0.4,1.2c0,0.5,0.2,1,0.6,1.3c0.4,0.3,0.8,0.6,1.4,0.9
		c0.6,0.2,1.2,0.4,1.9,0.6c0.7,0.2,1.4,0.3,2.2,0.5c0.8,0.2,1.5,0.4,2.2,0.6c0.7,0.2,1.4,0.6,1.9,1c0.6,0.4,1,0.9,1.4,1.5
		c0.3,0.6,0.5,1.3,0.5,2.2c0,1.1-0.2,2.1-0.7,2.8s-1.1,1.3-1.8,1.8c-0.8,0.5-1.6,0.8-2.6,1c-0.9,0.2-1.9,0.3-2.8,0.3
		c-1,0-2-0.1-3-0.3c-0.9-0.2-1.8-0.6-2.5-1.1c-0.7-0.5-1.3-1.1-1.7-1.9c-0.4-0.8-0.7-1.8-0.7-2.9h3.1C482.7,21,482.8,21.5,483.1,22z
		"/>
	<path fill="#FF6600" d="M523.1,26.5c-0.8,0-1.4-0.2-1.9-0.7c-0.5-0.4-0.7-1.2-0.7-2.2c-0.8,1-1.8,1.7-2.9,2.2
		c-1.1,0.4-2.3,0.7-3.6,0.7c-0.8,0-1.6-0.1-2.4-0.3c-0.7-0.2-1.4-0.5-2-0.9c-0.6-0.4-1-1-1.3-1.6s-0.5-1.5-0.5-2.4
		c0-1.1,0.2-1.9,0.5-2.6s0.8-1.2,1.4-1.6s1.3-0.7,2-1c0.8-0.2,1.5-0.4,2.3-0.5c0.8-0.2,1.6-0.3,2.4-0.4s1.4-0.2,2-0.4s1-0.4,1.4-0.7
		c0.3-0.3,0.5-0.7,0.5-1.3c0-0.7-0.1-1.2-0.4-1.6c-0.3-0.4-0.6-0.7-1-0.9c-0.4-0.2-0.8-0.4-1.3-0.4c-0.5-0.1-1-0.1-1.5-0.1
		c-1.3,0-2.4,0.2-3.2,0.7c-0.9,0.5-1.3,1.4-1.4,2.8h-3.1c0-1.2,0.3-2.1,0.7-2.9c0.4-0.8,1-1.4,1.7-1.9c0.7-0.5,1.5-0.8,2.5-1.1
		c0.9-0.2,1.9-0.3,3-0.3c0.8,0,1.7,0.1,2.5,0.2c0.8,0.1,1.6,0.4,2.2,0.7c0.7,0.4,1.2,0.9,1.6,1.6c0.4,0.7,0.6,1.5,0.6,2.6v9.6
		c0,0.7,0,1.2,0.1,1.6c0.1,0.3,0.4,0.5,0.8,0.5c0.3,0,0.6-0.1,0.9-0.2v2.4C524.7,26.4,524,26.5,523.1,26.5z M518.8,17.2
		c-0.6,0.1-1.3,0.2-2,0.3c-0.7,0.1-1.4,0.2-2.1,0.3c-0.7,0.1-1.3,0.3-1.9,0.5c-0.6,0.2-1,0.6-1.4,1c-0.3,0.4-0.5,1.1-0.5,1.8
		c0,0.5,0.1,0.9,0.3,1.3s0.5,0.6,0.8,0.8s0.7,0.4,1.2,0.5c0.4,0.1,0.9,0.1,1.3,0.1c1,0,1.9-0.1,2.6-0.4c0.7-0.3,1.3-0.6,1.8-1
		c0.5-0.4,0.8-0.9,1-1.4s0.3-1,0.3-1.4v-3.1C519.9,16.8,519.4,17,518.8,17.2z"/>
	<path fill="#FF6600" d="M531,7.5v3h0.1c1.3-2.3,3.3-3.4,6-3.4c1.2,0,2.2,0.2,3.1,0.5c0.8,0.3,1.5,0.8,2,1.4s0.9,1.3,1.1,2.1
		c0.2,0.8,0.3,1.7,0.3,2.8v12.2h-3.1V13.5c0-1.2-0.3-2.1-1-2.7s-1.6-1-2.8-1c-0.9,0-1.7,0.1-2.4,0.4c-0.7,0.3-1.3,0.7-1.7,1.2
		c-0.5,0.5-0.8,1.1-1,1.9c-0.2,0.7-0.3,1.5-0.3,2.3v10.5h-3.1V7.5H531z"/>
	<path fill="#FF6600" d="M554.4,30.9c-0.3,0.6-0.7,1.1-1.2,1.5c-0.4,0.4-0.9,0.7-1.4,0.9c-0.5,0.2-1.1,0.3-1.8,0.3
		c-0.4,0-0.7,0-1.1-0.1c-0.4,0-0.7-0.1-1-0.3v-2.8c0.3,0.1,0.6,0.2,0.9,0.3c0.3,0.1,0.6,0.1,0.9,0.1c0.6,0,1.1-0.1,1.5-0.4
		c0.4-0.3,0.7-0.7,1-1.3l1.3-3.1l-7.4-18.5h3.5l5.4,15.2h0.1l5.2-15.2h3.2l-8.1,21.1C555.1,29.5,554.7,30.3,554.4,30.9z"/>
	<path fill="#FF6600" d="M581.3,26.1l-3.8-14.8h-0.1l-3.7,14.8h-3.3l-6-18.6h3.4l4.2,15.2h0.1l3.7-15.2h3.3l3.9,15.2h0.1l4.2-15.2
		h3.2l-5.9,18.6H581.3z"/>
	<path fill="#FF6600" d="M596.5,0.4v9.8h0.1c0.2-0.6,0.6-1.1,1-1.5c0.4-0.4,0.9-0.7,1.5-1s1.1-0.4,1.7-0.6c0.6-0.1,1.2-0.2,1.7-0.2
		c1.2,0,2.2,0.2,3.1,0.5c0.8,0.3,1.5,0.8,2,1.4s0.9,1.3,1.1,2.1c0.2,0.8,0.3,1.7,0.3,2.8v12.2h-3.1V13.5c0-1.2-0.3-2.1-1-2.7
		s-1.6-1-2.8-1c-0.9,0-1.7,0.1-2.4,0.4c-0.7,0.3-1.3,0.7-1.7,1.2c-0.5,0.5-0.8,1.1-1,1.9c-0.2,0.7-0.3,1.5-0.3,2.3v10.5h-3.1V0.4
		H596.5z"/>
	<path fill="#FF6600" d="M626.6,25c-1.4,1.1-3.1,1.6-5.3,1.6c-1.5,0-2.8-0.2-3.9-0.7c-1.1-0.5-2-1.2-2.8-2s-1.3-1.9-1.7-3.1
		s-0.6-2.5-0.6-3.9c0-1.4,0.2-2.7,0.6-3.9c0.4-1.2,1-2.2,1.8-3.1c0.8-0.9,1.7-1.5,2.8-2c1.1-0.5,2.2-0.7,3.5-0.7c1.7,0,3,0.3,4.1,1
		c1.1,0.7,2,1.6,2.6,2.6c0.7,1.1,1.1,2.2,1.4,3.5c0.3,1.2,0.4,2.4,0.3,3.6h-13.9c0,0.8,0.1,1.6,0.3,2.3c0.2,0.7,0.6,1.4,1,1.9
		c0.5,0.6,1.1,1,1.8,1.3c0.7,0.3,1.6,0.5,2.6,0.5c1.3,0,2.4-0.3,3.2-0.9c0.8-0.6,1.4-1.5,1.6-2.7h3C628.9,22.3,628,23.9,626.6,25z
		 M625.9,13c-0.3-0.6-0.6-1.2-1.1-1.7c-0.5-0.5-1-0.8-1.7-1.1c-0.6-0.3-1.3-0.4-2.1-0.4c-0.8,0-1.5,0.1-2.1,0.4
		c-0.6,0.3-1.2,0.7-1.6,1.1c-0.5,0.5-0.8,1-1.1,1.7c-0.3,0.6-0.4,1.3-0.5,2h10.7C626.3,14.3,626.1,13.7,625.9,13z"/>
	<path fill="#FF6600" d="M635.5,7.5v3.9h0.1c0.7-1.5,1.7-2.6,2.7-3.3s2.4-1.1,4.1-1v3.2c-1.2,0-2.3,0.2-3.1,0.5
		c-0.9,0.3-1.6,0.8-2.1,1.5c-0.5,0.6-0.9,1.4-1.2,2.4c-0.2,0.9-0.4,2-0.4,3.2v8.3h-3.1V7.5H635.5z"/>
	<path fill="#FF6600" d="M657.3,25c-1.4,1.1-3.1,1.6-5.3,1.6c-1.5,0-2.8-0.2-3.9-0.7c-1.1-0.5-2-1.2-2.8-2s-1.3-1.9-1.7-3.1
		s-0.6-2.5-0.6-3.9c0-1.4,0.2-2.7,0.6-3.9c0.4-1.2,1-2.2,1.8-3.1c0.8-0.9,1.7-1.5,2.8-2c1.1-0.5,2.2-0.7,3.5-0.7c1.7,0,3,0.3,4.1,1
		c1.1,0.7,2,1.6,2.6,2.6c0.7,1.1,1.1,2.2,1.4,3.5c0.3,1.2,0.4,2.4,0.3,3.6h-13.9c0,0.8,0.1,1.6,0.3,2.3c0.2,0.7,0.6,1.4,1,1.9
		c0.5,0.6,1.1,1,1.8,1.3c0.7,0.3,1.6,0.5,2.6,0.5c1.3,0,2.4-0.3,3.2-0.9c0.8-0.6,1.4-1.5,1.6-2.7h3C659.6,22.3,658.7,23.9,657.3,25z
		 M656.5,13c-0.3-0.6-0.6-1.2-1.1-1.7c-0.5-0.5-1-0.8-1.7-1.1c-0.6-0.3-1.3-0.4-2.1-0.4c-0.8,0-1.5,0.1-2.1,0.4
		c-0.6,0.3-1.2,0.7-1.6,1.1c-0.5,0.5-0.8,1-1.1,1.7c-0.3,0.6-0.4,1.3-0.5,2H657C657,14.3,656.8,13.7,656.5,13z"/>
</g>
</svg>
