<?xml version="1.0" encoding="utf-8"?>
<!-- Generator: Adobe Illustrator 17.1.0, SVG Export Plug-In . SVG Version: 6.00 Build 0)  -->
<!DOCTYPE svg PUBLIC "-//W3C//DTD SVG 1.1//EN" "http://www.w3.org/Graphics/SVG/1.1/DTD/svg11.dtd">
<svg version="1.1" id="图层_1" xmlns="http://www.w3.org/2000/svg" xmlns:xlink="http://www.w3.org/1999/xlink" x="0px" y="0px"
	 viewBox="0 0 663 33.8" enable-background="new 0 0 663 33.8" xml:space="preserve">
<g>
	<path fill="#FF6600" d="M20.9,0.6v2.1h-9v23.6H9.5V2.7H0.6V0.6H20.9z"/>
	<path fill="#FF6600" d="M30.5,8c1.1,0.5,2,1.2,2.8,2.1c0.7,0.9,1.3,1.9,1.7,3.1c0.4,1.2,0.6,2.5,0.6,3.8c0,1.3-0.2,2.6-0.6,3.8
		C34.5,22,34,23.1,33.2,24c-0.7,0.9-1.7,1.6-2.8,2.1c-1.1,0.5-2.3,0.8-3.8,0.8s-2.7-0.3-3.8-0.8c-1.1-0.5-2-1.2-2.8-2.1
		c-0.7-0.9-1.3-1.9-1.7-3.1c-0.4-1.2-0.6-2.5-0.6-3.8c0-1.3,0.2-2.6,0.6-3.8c0.4-1.2,0.9-2.2,1.7-3.1C21,9.3,21.9,8.6,23,8
		c1.1-0.5,2.3-0.8,3.8-0.8S29.4,7.5,30.5,8z M23.9,9.8c-0.8,0.5-1.5,1.1-2,1.8s-0.9,1.6-1.2,2.5c-0.3,0.9-0.4,1.9-0.4,2.9
		c0,1,0.1,2,0.4,2.9c0.3,0.9,0.7,1.8,1.2,2.5s1.2,1.3,2,1.8c0.8,0.5,1.8,0.7,2.8,0.7s2-0.2,2.8-0.7c0.8-0.5,1.5-1.1,2-1.8
		s0.9-1.6,1.2-2.5c0.3-0.9,0.4-1.9,0.4-2.9c0-1-0.1-1.9-0.4-2.9c-0.3-0.9-0.7-1.8-1.2-2.5s-1.2-1.3-2-1.8c-0.8-0.5-1.8-0.7-2.8-0.7
		S24.7,9.4,23.9,9.8z"/>
	<path fill="#FF6600" d="M51,7.8v3.1h0.1c0.6-1.2,1.4-2.1,2.4-2.7c1-0.6,2.2-1,3.7-1c1.2,0,2.3,0.3,3.3,0.9s1.7,1.5,2,2.7
		c0.6-1.2,1.4-2.1,2.4-2.7s2.2-0.9,3.5-0.9c4.1,0,6.2,2.2,6.2,6.5v12.6h-2.3V13.9c0-1.5-0.3-2.7-1-3.5c-0.6-0.8-1.8-1.2-3.4-1.2
		c-1,0-1.8,0.2-2.4,0.6c-0.6,0.4-1.2,0.9-1.5,1.5c-0.4,0.6-0.7,1.3-0.8,2.1c-0.2,0.8-0.2,1.6-0.2,2.5v10.5h-2.3V13.7
		c0-0.6-0.1-1.2-0.2-1.8c-0.1-0.6-0.3-1.1-0.6-1.5c-0.3-0.4-0.7-0.7-1.2-1s-1.1-0.4-1.8-0.4c-1,0-1.8,0.2-2.5,0.5s-1.3,0.8-1.7,1.4
		c-0.4,0.6-0.8,1.3-1,2.2S51.2,15,51.2,16v10.4h-2.3V7.8H51z"/>
	<path fill="#FF6600" d="M79.4,10.7c0.4-0.8,0.9-1.4,1.6-1.9c0.7-0.5,1.4-0.9,2.3-1.1s1.9-0.4,3-0.4c0.8,0,1.6,0.1,2.4,0.2
		c0.8,0.2,1.5,0.5,2.2,0.9c0.6,0.4,1.2,1,1.6,1.8c0.4,0.8,0.6,1.8,0.6,3v9.9c0,0.9,0.4,1.4,1.3,1.4c0.3,0,0.5,0,0.7-0.1v1.9
		c-0.3,0-0.5,0.1-0.7,0.1c-0.2,0-0.5,0-0.8,0c-0.6,0-1-0.1-1.4-0.2c-0.3-0.2-0.6-0.4-0.8-0.7c-0.2-0.3-0.3-0.6-0.4-1
		c-0.1-0.4-0.1-0.8-0.1-1.3h-0.1c-0.4,0.6-0.8,1.1-1.2,1.6c-0.4,0.5-0.9,0.9-1.4,1.2c-0.5,0.3-1.1,0.6-1.8,0.7
		c-0.7,0.2-1.4,0.3-2.4,0.3c-0.9,0-1.7-0.1-2.4-0.3c-0.8-0.2-1.4-0.5-2-1c-0.6-0.4-1-1-1.3-1.7c-0.3-0.7-0.5-1.5-0.5-2.4
		c0-1.3,0.3-2.3,0.9-3c0.6-0.7,1.3-1.3,2.3-1.7c0.9-0.4,2-0.7,3.2-0.8c1.2-0.2,2.4-0.3,3.6-0.5c0.5,0,0.9-0.1,1.3-0.2
		c0.4-0.1,0.7-0.2,0.9-0.4c0.2-0.2,0.4-0.4,0.6-0.7c0.1-0.3,0.2-0.7,0.2-1.2c0-0.8-0.1-1.4-0.4-1.9c-0.3-0.5-0.6-0.9-1-1.2
		c-0.4-0.3-1-0.5-1.5-0.6c-0.6-0.1-1.2-0.2-1.9-0.2c-1.4,0-2.6,0.3-3.5,1c-0.9,0.7-1.4,1.8-1.4,3.3h-2.3
		C78.7,12.4,79,11.4,79.4,10.7z M90.7,16.2c-0.1,0.3-0.4,0.5-0.8,0.6S89.1,17,88.8,17c-1,0.2-2,0.3-3,0.5c-1,0.1-2,0.3-2.8,0.6
		c-0.8,0.3-1.5,0.6-2.1,1.1c-0.5,0.5-0.8,1.2-0.8,2.1c0,0.6,0.1,1.1,0.3,1.5s0.5,0.8,0.9,1.2c0.4,0.3,0.8,0.6,1.3,0.7s1,0.3,1.5,0.3
		c0.9,0,1.7-0.1,2.5-0.4s1.5-0.6,2.1-1.2c0.6-0.5,1.1-1.1,1.4-1.8s0.5-1.5,0.5-2.4L90.7,16.2L90.7,16.2z"/>
	<path fill="#FF6600" d="M99.8,0.6v16.1l10.3-9h3l-7.9,6.9l8.5,11.7h-2.8l-7.3-10.1l-3.7,3.1v7.1h-2.3V0.6H99.8z"/>
	<path fill="#FF6600" d="M117.2,20.2c0.2,0.9,0.6,1.7,1.1,2.4c0.5,0.7,1.1,1.3,1.9,1.7c0.8,0.5,1.7,0.7,2.8,0.7c1.7,0,3-0.4,3.9-1.3
		s1.6-2,1.9-3.5h2.3c-0.5,2.1-1.4,3.7-2.6,4.9c-1.3,1.2-3.1,1.7-5.5,1.7c-1.5,0-2.7-0.3-3.8-0.8c-1.1-0.5-1.9-1.2-2.6-2.1
		c-0.7-0.9-1.2-1.9-1.5-3.1c-0.3-1.2-0.5-2.4-0.5-3.8c0-1.2,0.2-2.4,0.5-3.6s0.8-2.2,1.5-3.2s1.5-1.7,2.6-2.2
		c1.1-0.6,2.3-0.8,3.8-0.8c1.5,0,2.8,0.3,3.8,0.9s1.9,1.4,2.6,2.4c0.7,1,1.1,2.1,1.4,3.3s0.4,2.5,0.4,3.8h-14.3
		C116.9,18.5,117,19.3,117.2,20.2z M128.5,13.3c-0.3-0.8-0.7-1.5-1.2-2.1c-0.5-0.6-1.1-1.1-1.8-1.5c-0.7-0.4-1.5-0.6-2.4-0.6
		c-0.9,0-1.8,0.2-2.5,0.6c-0.7,0.4-1.3,0.9-1.8,1.5s-0.9,1.3-1.2,2.1c-0.3,0.8-0.5,1.6-0.6,2.5h12C128.9,14.9,128.8,14.1,128.5,13.3
		z"/>
	<path fill="#FF6600" d="M146.6,0.6v3.6h-2.3V0.6H146.6z M146.6,7.8v18.6h-2.3V7.8H146.6z"/>
	<path fill="#FF6600" d="M158.3,7.8v1.9h-3.8v12.5c0,0.7,0.1,1.3,0.3,1.7c0.2,0.4,0.7,0.7,1.5,0.7c0.6,0,1.3,0,1.9-0.1v1.9
		c-0.3,0-0.7,0-1,0c-0.3,0-0.7,0-1,0c-1.5,0-2.6-0.3-3.2-0.9c-0.6-0.6-0.9-1.7-0.9-3.3V9.7H149V7.8h3.2V2.2h2.3v5.6H158.3z"/>
	<path fill="#FF6600" d="M173.3,20.2c0.2,0.9,0.6,1.7,1.1,2.4c0.5,0.7,1.1,1.3,1.9,1.7C177,24.8,178,25,179,25c1.7,0,3-0.4,3.9-1.3
		s1.6-2,1.9-3.5h2.3c-0.5,2.1-1.4,3.7-2.6,4.9c-1.3,1.2-3.1,1.7-5.5,1.7c-1.5,0-2.7-0.3-3.8-0.8c-1.1-0.5-1.9-1.2-2.6-2.1
		c-0.7-0.9-1.2-1.9-1.5-3.1c-0.3-1.2-0.5-2.4-0.5-3.8c0-1.2,0.2-2.4,0.5-3.6s0.8-2.2,1.5-3.2s1.5-1.7,2.6-2.2
		c1.1-0.6,2.3-0.8,3.8-0.8c1.5,0,2.8,0.3,3.8,0.9s1.9,1.4,2.6,2.4c0.7,1,1.1,2.1,1.4,3.3s0.4,2.5,0.4,3.8h-14.3
		C172.9,18.5,173,19.3,173.3,20.2z M184.5,13.3c-0.3-0.8-0.7-1.5-1.2-2.1c-0.5-0.6-1.1-1.1-1.8-1.5c-0.7-0.4-1.5-0.6-2.4-0.6
		c-0.9,0-1.8,0.2-2.5,0.6c-0.7,0.4-1.3,0.9-1.8,1.5s-0.9,1.3-1.2,2.1c-0.3,0.8-0.5,1.6-0.6,2.5h12C184.9,14.9,184.8,14.1,184.5,13.3
		z"/>
	<path fill="#FF6600" d="M190.7,10.7c0.4-0.8,0.9-1.4,1.6-1.9c0.7-0.5,1.4-0.9,2.3-1.1s1.9-0.4,3-0.4c0.8,0,1.6,0.1,2.4,0.2
		c0.8,0.2,1.5,0.5,2.2,0.9c0.6,0.4,1.2,1,1.6,1.8c0.4,0.8,0.6,1.8,0.6,3v9.9c0,0.9,0.4,1.4,1.3,1.4c0.3,0,0.5,0,0.7-0.1v1.9
		c-0.3,0-0.5,0.1-0.7,0.1c-0.2,0-0.5,0-0.8,0c-0.6,0-1-0.1-1.4-0.2c-0.3-0.2-0.6-0.4-0.8-0.7c-0.2-0.3-0.3-0.6-0.4-1
		c-0.1-0.4-0.1-0.8-0.1-1.3h-0.1c-0.4,0.6-0.8,1.1-1.2,1.6c-0.4,0.5-0.9,0.9-1.4,1.2c-0.5,0.3-1.1,0.6-1.8,0.7
		c-0.7,0.2-1.4,0.3-2.4,0.3c-0.9,0-1.7-0.1-2.4-0.3c-0.8-0.2-1.4-0.5-2-1c-0.6-0.4-1-1-1.3-1.7c-0.3-0.7-0.5-1.5-0.5-2.4
		c0-1.3,0.3-2.3,0.9-3c0.6-0.7,1.3-1.3,2.3-1.7c0.9-0.4,2-0.7,3.2-0.8c1.2-0.2,2.4-0.3,3.6-0.5c0.5,0,0.9-0.1,1.3-0.2
		c0.4-0.1,0.7-0.2,0.9-0.4c0.2-0.2,0.4-0.4,0.6-0.7c0.1-0.3,0.2-0.7,0.2-1.2c0-0.8-0.1-1.4-0.4-1.9c-0.3-0.5-0.6-0.9-1-1.2
		c-0.4-0.3-1-0.5-1.5-0.6c-0.6-0.1-1.2-0.2-1.9-0.2c-1.4,0-2.6,0.3-3.5,1c-0.9,0.7-1.4,1.8-1.4,3.3h-2.3
		C190.1,12.4,190.4,11.4,190.7,10.7z M202.1,16.2c-0.1,0.3-0.4,0.5-0.8,0.6s-0.8,0.2-1.1,0.3c-1,0.2-2,0.3-3,0.5
		c-1,0.1-2,0.3-2.8,0.6c-0.8,0.3-1.5,0.6-2.1,1.1c-0.5,0.5-0.8,1.2-0.8,2.1c0,0.6,0.1,1.1,0.3,1.5s0.5,0.8,0.9,1.2
		c0.4,0.3,0.8,0.6,1.3,0.7s1,0.3,1.5,0.3c0.9,0,1.7-0.1,2.5-0.4s1.5-0.6,2.1-1.2c0.6-0.5,1.1-1.1,1.4-1.8s0.5-1.5,0.5-2.4
		L202.1,16.2L202.1,16.2z"/>
	<path fill="#FF6600" d="M219.6,11.4c-0.3-0.5-0.6-0.9-1.1-1.3c-0.4-0.3-1-0.6-1.5-0.7s-1.2-0.2-1.8-0.2c-0.5,0-1,0.1-1.5,0.2
		c-0.5,0.1-1,0.3-1.4,0.5c-0.4,0.3-0.8,0.6-1,1s-0.4,0.9-0.4,1.5c0,0.5,0.1,0.9,0.4,1.3s0.6,0.6,1,0.9c0.4,0.2,0.8,0.4,1.3,0.6
		s0.9,0.3,1.3,0.4l3,0.7c0.6,0.1,1.3,0.3,1.9,0.5s1.2,0.6,1.7,1c0.5,0.4,0.9,0.9,1.2,1.5c0.3,0.6,0.5,1.3,0.5,2.1
		c0,1-0.2,1.9-0.7,2.6s-1,1.3-1.7,1.7c-0.7,0.4-1.5,0.8-2.4,1s-1.8,0.3-2.6,0.3c-2.2,0-4-0.5-5.3-1.5c-1.4-1-2.1-2.7-2.3-5h2.3
		c0.1,1.5,0.7,2.7,1.7,3.5c1,0.8,2.3,1.2,3.8,1.2c0.6,0,1.1-0.1,1.7-0.2c0.6-0.1,1.1-0.3,1.6-0.6s0.9-0.7,1.2-1.1
		c0.3-0.4,0.5-1,0.5-1.6c0-0.6-0.1-1-0.3-1.4c-0.2-0.4-0.5-0.7-0.9-0.9s-0.8-0.5-1.3-0.6c-0.5-0.2-1-0.3-1.5-0.4l-2.9-0.6
		c-0.7-0.2-1.4-0.4-2.1-0.7c-0.6-0.3-1.2-0.6-1.6-0.9c-0.5-0.4-0.8-0.8-1.1-1.4c-0.3-0.5-0.4-1.2-0.4-2c0-0.9,0.2-1.7,0.6-2.4
		s1-1.2,1.6-1.6c0.7-0.4,1.4-0.7,2.2-0.9c0.8-0.2,1.6-0.3,2.5-0.3c0.9,0,1.8,0.1,2.6,0.4c0.8,0.2,1.5,0.6,2.1,1.1
		c0.6,0.5,1.1,1.1,1.5,1.9c0.4,0.7,0.6,1.6,0.6,2.6h-2.3C220.1,12.5,219.9,11.9,219.6,11.4z"/>
	<path fill="#FF6600" d="M226.6,7.8l6.1,15.8l5.7-15.8h2.3l-8.1,21.4c-0.3,0.8-0.6,1.4-0.9,2c-0.3,0.5-0.6,0.9-1,1.2
		c-0.3,0.3-0.8,0.5-1.2,0.6s-1.1,0.2-1.8,0.2c-0.5,0-0.8,0-1.1-0.1c-0.3,0-0.5-0.1-0.7-0.1v-1.9c0.3,0,0.5,0.1,0.8,0.1
		s0.5,0.1,0.8,0.1c0.5,0,0.9-0.1,1.2-0.2c0.3-0.1,0.6-0.3,0.8-0.6c0.2-0.3,0.4-0.6,0.6-0.9c0.2-0.4,0.3-0.8,0.5-1.2l0.8-2.1
		l-7.4-18.5H226.6z"/>
	<path fill="#FF6600" d="M260.3,7.8v1.9h-3.8v12.5c0,0.7,0.1,1.3,0.3,1.7c0.2,0.4,0.7,0.7,1.5,0.7c0.6,0,1.3,0,1.9-0.1v1.9
		c-0.3,0-0.7,0-1,0c-0.3,0-0.7,0-1,0c-1.5,0-2.6-0.3-3.2-0.9c-0.6-0.6-0.9-1.7-0.9-3.3V9.7H251V7.8h3.2V2.2h2.3v5.6H260.3z"/>
	<path fill="#FF6600" d="M275.2,8c1.1,0.5,2,1.2,2.8,2.1c0.7,0.9,1.3,1.9,1.7,3.1c0.4,1.2,0.6,2.5,0.6,3.8c0,1.3-0.2,2.6-0.6,3.8
		c-0.4,1.2-0.9,2.2-1.7,3.1c-0.7,0.9-1.7,1.6-2.8,2.1c-1.1,0.5-2.3,0.8-3.8,0.8s-2.7-0.3-3.8-0.8c-1.1-0.5-2-1.2-2.8-2.1
		c-0.7-0.9-1.3-1.9-1.7-3.1c-0.4-1.2-0.6-2.5-0.6-3.8c0-1.3,0.2-2.6,0.6-3.8c0.4-1.2,0.9-2.2,1.7-3.1c0.7-0.9,1.7-1.6,2.8-2.1
		c1.1-0.5,2.3-0.8,3.8-0.8S274.1,7.5,275.2,8z M268.6,9.8c-0.8,0.5-1.5,1.1-2,1.8s-0.9,1.6-1.2,2.5c-0.3,0.9-0.4,1.9-0.4,2.9
		c0,1,0.1,2,0.4,2.9c0.3,0.9,0.7,1.8,1.2,2.5s1.2,1.3,2,1.8c0.8,0.5,1.8,0.7,2.8,0.7s2-0.2,2.8-0.7c0.8-0.5,1.5-1.1,2-1.8
		s0.9-1.6,1.2-2.5c0.3-0.9,0.4-1.9,0.4-2.9c0-1-0.1-1.9-0.4-2.9c-0.3-0.9-0.7-1.8-1.2-2.5s-1.2-1.3-2-1.8c-0.8-0.5-1.8-0.7-2.8-0.7
		S269.4,9.4,268.6,9.8z"/>
	<path fill="#FF6600" d="M307.9,26.3v-3.5h-0.1c-0.2,0.6-0.6,1.2-1.1,1.7s-1,0.9-1.6,1.3s-1.2,0.6-1.9,0.8c-0.7,0.2-1.4,0.3-2,0.3
		c-1.4,0-2.6-0.3-3.7-0.8c-1-0.5-1.9-1.2-2.6-2.1c-0.7-0.9-1.2-1.9-1.5-3.1c-0.3-1.2-0.5-2.4-0.5-3.8c0-1.3,0.2-2.6,0.5-3.8
		c0.3-1.2,0.9-2.2,1.5-3.1c0.7-0.9,1.6-1.6,2.6-2.1c1-0.5,2.3-0.8,3.7-0.8c0.7,0,1.4,0.1,2,0.3c0.7,0.2,1.3,0.4,1.9,0.8
		c0.6,0.3,1.1,0.8,1.5,1.3c0.4,0.5,0.8,1.1,1,1.8h0.1V0.6h2.3v25.7H307.9z M295.4,19.9c0.2,0.9,0.6,1.8,1.1,2.5s1.1,1.3,1.9,1.8
		c0.8,0.5,1.7,0.7,2.8,0.7c1.2,0,2.2-0.2,3-0.7c0.8-0.5,1.5-1.1,2-1.8c0.5-0.7,0.9-1.6,1.1-2.5c0.2-0.9,0.3-1.9,0.3-2.9
		s-0.1-1.9-0.3-2.9c-0.2-0.9-0.6-1.8-1.1-2.5c-0.5-0.7-1.2-1.3-2-1.8s-1.8-0.7-3-0.7c-1.1,0-2,0.2-2.8,0.7c-0.8,0.5-1.4,1.1-1.9,1.8
		c-0.5,0.7-0.9,1.6-1.1,2.5c-0.2,0.9-0.3,1.9-0.3,2.9S295.2,19,295.4,19.9z"/>
	<path fill="#FF6600" d="M325.9,8c1.1,0.5,2,1.2,2.8,2.1c0.7,0.9,1.3,1.9,1.7,3.1c0.4,1.2,0.6,2.5,0.6,3.8c0,1.3-0.2,2.6-0.6,3.8
		c-0.4,1.2-0.9,2.2-1.7,3.1c-0.7,0.9-1.7,1.6-2.8,2.1c-1.1,0.5-2.3,0.8-3.8,0.8s-2.7-0.3-3.8-0.8c-1.1-0.5-2-1.2-2.8-2.1
		c-0.7-0.9-1.3-1.9-1.7-3.1c-0.4-1.2-0.6-2.5-0.6-3.8c0-1.3,0.2-2.6,0.6-3.8c0.4-1.2,0.9-2.2,1.7-3.1c0.7-0.9,1.7-1.6,2.8-2.1
		c1.1-0.5,2.3-0.8,3.8-0.8S324.8,7.5,325.9,8z M319.3,9.8c-0.8,0.5-1.5,1.1-2,1.8s-0.9,1.6-1.2,2.5c-0.3,0.9-0.4,1.9-0.4,2.9
		c0,1,0.1,2,0.4,2.9c0.3,0.9,0.7,1.8,1.2,2.5s1.2,1.3,2,1.8c0.8,0.5,1.8,0.7,2.8,0.7s2-0.2,2.8-0.7c0.8-0.5,1.5-1.1,2-1.8
		s0.9-1.6,1.2-2.5c0.3-0.9,0.4-1.9,0.4-2.9c0-1-0.1-1.9-0.4-2.9c-0.3-0.9-0.7-1.8-1.2-2.5s-1.2-1.3-2-1.8c-0.8-0.5-1.8-0.7-2.8-0.7
		S320.1,9.4,319.3,9.8z"/>
	<path fill="#FF6600" d="M346.6,0.6v10.7h0.1c0.2-0.7,0.6-1.3,1-1.8c0.4-0.5,1-0.9,1.5-1.3c0.6-0.3,1.2-0.6,1.9-0.8
		c0.7-0.2,1.3-0.3,2-0.3c1.4,0,2.6,0.3,3.7,0.8c1,0.5,1.9,1.2,2.6,2.1c0.7,0.9,1.2,1.9,1.5,3.1c0.3,1.2,0.5,2.4,0.5,3.8
		c0,1.3-0.2,2.6-0.5,3.8c-0.3,1.2-0.9,2.2-1.5,3.1c-0.7,0.9-1.6,1.6-2.6,2.1c-1,0.5-2.3,0.8-3.7,0.8c-1.5,0-2.9-0.3-4.1-1
		c-1.2-0.7-2-1.7-2.6-3h-0.1v3.5h-2.1V0.6H346.6z M358.8,14.2c-0.2-0.9-0.6-1.8-1.1-2.5c-0.5-0.7-1.1-1.3-1.9-1.8
		c-0.8-0.5-1.7-0.7-2.8-0.7c-1.2,0-2.2,0.2-3,0.7s-1.5,1.1-2,1.8c-0.5,0.7-0.9,1.6-1.1,2.5c-0.2,0.9-0.3,1.9-0.3,2.9
		s0.1,1.9,0.3,2.9c0.2,0.9,0.6,1.8,1.1,2.5c0.5,0.7,1.2,1.3,2,1.8c0.8,0.5,1.8,0.7,3,0.7c1.1,0,2-0.2,2.8-0.7
		c0.8-0.5,1.4-1.1,1.9-1.8c0.5-0.7,0.9-1.6,1.1-2.5c0.2-0.9,0.3-1.9,0.3-2.9S359.1,15.1,358.8,14.2z"/>
	<path fill="#FF6600" d="M377.9,26.3V23h-0.1c-0.6,1.2-1.5,2.2-2.6,2.9c-1.1,0.7-2.4,1-3.8,1c-1.2,0-2.2-0.2-3-0.5
		c-0.8-0.3-1.5-0.8-2-1.4c-0.5-0.6-0.9-1.3-1.1-2.2c-0.2-0.9-0.4-1.8-0.4-3V7.8h2.3v12.1c0,1.7,0.4,3,1.2,3.8c0.7,0.9,2,1.3,3.8,1.3
		c1,0,1.8-0.2,2.5-0.6s1.3-1,1.7-1.7c0.5-0.7,0.8-1.5,1-2.4c0.2-0.9,0.3-1.8,0.3-2.8V7.8h2.3v18.6H377.9z"/>
	<path fill="#FF6600" d="M395,11.4c-0.3-0.5-0.6-0.9-1.1-1.3c-0.4-0.3-1-0.6-1.5-0.7s-1.2-0.2-1.8-0.2c-0.5,0-1,0.1-1.5,0.2
		c-0.5,0.1-1,0.3-1.4,0.5c-0.4,0.3-0.8,0.6-1,1s-0.4,0.9-0.4,1.5c0,0.5,0.1,0.9,0.4,1.3s0.6,0.6,1,0.9c0.4,0.2,0.8,0.4,1.3,0.6
		s0.9,0.3,1.3,0.4l3,0.7c0.6,0.1,1.3,0.3,1.9,0.5s1.2,0.6,1.7,1c0.5,0.4,0.9,0.9,1.2,1.5c0.3,0.6,0.5,1.3,0.5,2.1
		c0,1-0.2,1.9-0.7,2.6s-1,1.3-1.7,1.7c-0.7,0.4-1.5,0.8-2.4,1s-1.8,0.3-2.6,0.3c-2.2,0-4-0.5-5.3-1.5c-1.4-1-2.1-2.7-2.3-5h2.3
		c0.1,1.5,0.7,2.7,1.7,3.5c1,0.8,2.3,1.2,3.8,1.2c0.6,0,1.1-0.1,1.7-0.2c0.6-0.1,1.1-0.3,1.6-0.6s0.9-0.7,1.2-1.1
		c0.3-0.4,0.5-1,0.5-1.6c0-0.6-0.1-1-0.3-1.4c-0.2-0.4-0.5-0.7-0.9-0.9s-0.8-0.5-1.3-0.6c-0.5-0.2-1-0.3-1.5-0.4l-2.9-0.6
		c-0.7-0.2-1.4-0.4-2.1-0.7c-0.6-0.3-1.2-0.6-1.6-0.9c-0.5-0.4-0.8-0.8-1.1-1.4c-0.3-0.5-0.4-1.2-0.4-2c0-0.9,0.2-1.7,0.6-2.4
		s1-1.2,1.6-1.6c0.7-0.4,1.4-0.7,2.2-0.9c0.8-0.2,1.6-0.3,2.5-0.3c0.9,0,1.8,0.1,2.6,0.4c0.8,0.2,1.5,0.6,2.1,1.1
		c0.6,0.5,1.1,1.1,1.5,1.9c0.4,0.7,0.6,1.6,0.6,2.6h-2.3C395.4,12.5,395.3,11.9,395,11.4z"/>
	<path fill="#FF6600" d="M403.9,0.6v3.6h-2.3V0.6H403.9z M403.9,7.8v18.6h-2.3V7.8H403.9z"/>
	<path fill="#FF6600" d="M410.5,7.8V11h0.1c0.4-1.1,1.2-2,2.3-2.7c1.1-0.7,2.3-1,3.6-1c1.3,0,2.4,0.2,3.3,0.5
		c0.9,0.3,1.6,0.8,2.1,1.4c0.5,0.6,0.9,1.4,1.1,2.2c0.2,0.9,0.3,1.9,0.3,3v12h-2.3V14.8c0-0.8-0.1-1.5-0.2-2.2
		c-0.1-0.7-0.4-1.3-0.8-1.8c-0.4-0.5-0.8-0.9-1.5-1.2c-0.6-0.3-1.4-0.4-2.3-0.4s-1.7,0.2-2.4,0.5c-0.7,0.3-1.3,0.8-1.8,1.3
		c-0.5,0.6-0.9,1.2-1.2,2c-0.3,0.8-0.4,1.6-0.5,2.5v10.8h-2.3V7.8H410.5z"/>
	<path fill="#FF6600" d="M429.3,20.2c0.2,0.9,0.6,1.7,1.1,2.4c0.5,0.7,1.1,1.3,1.9,1.7c0.8,0.5,1.7,0.7,2.8,0.7c1.7,0,3-0.4,3.9-1.3
		s1.6-2,1.9-3.5h2.3c-0.5,2.1-1.4,3.7-2.6,4.9c-1.3,1.2-3.1,1.7-5.5,1.7c-1.5,0-2.7-0.3-3.8-0.8c-1.1-0.5-1.9-1.2-2.6-2.1
		c-0.7-0.9-1.2-1.9-1.5-3.1c-0.3-1.2-0.5-2.4-0.5-3.8c0-1.2,0.2-2.4,0.5-3.6s0.8-2.2,1.5-3.2s1.5-1.7,2.6-2.2
		c1.1-0.6,2.3-0.8,3.8-0.8c1.5,0,2.8,0.3,3.8,0.9s1.9,1.4,2.6,2.4c0.7,1,1.1,2.1,1.4,3.3s0.4,2.5,0.4,3.8h-14.3
		C428.9,18.5,429.1,19.3,429.3,20.2z M440.5,13.3c-0.3-0.8-0.7-1.5-1.2-2.1c-0.5-0.6-1.1-1.1-1.8-1.5c-0.7-0.4-1.5-0.6-2.4-0.6
		c-0.9,0-1.8,0.2-2.5,0.6c-0.7,0.4-1.3,0.9-1.8,1.5s-0.9,1.3-1.2,2.1c-0.3,0.8-0.5,1.6-0.6,2.5h12C440.9,14.9,440.8,14.1,440.5,13.3
		z"/>
	<path fill="#FF6600" d="M457,11.4c-0.3-0.5-0.6-0.9-1.1-1.3c-0.4-0.3-1-0.6-1.5-0.7s-1.2-0.2-1.8-0.2c-0.5,0-1,0.1-1.5,0.2
		c-0.5,0.1-1,0.3-1.4,0.5c-0.4,0.3-0.8,0.6-1,1s-0.4,0.9-0.4,1.5c0,0.5,0.1,0.9,0.4,1.3s0.6,0.6,1,0.9c0.4,0.2,0.8,0.4,1.3,0.6
		s0.9,0.3,1.3,0.4l3,0.7c0.6,0.1,1.3,0.3,1.9,0.5s1.2,0.6,1.7,1c0.5,0.4,0.9,0.9,1.2,1.5c0.3,0.6,0.5,1.3,0.5,2.1
		c0,1-0.2,1.9-0.7,2.6s-1,1.3-1.7,1.7c-0.7,0.4-1.5,0.8-2.4,1s-1.8,0.3-2.6,0.3c-2.2,0-4-0.5-5.3-1.5c-1.4-1-2.1-2.7-2.3-5h2.3
		c0.1,1.5,0.7,2.7,1.7,3.5c1,0.8,2.3,1.2,3.8,1.2c0.6,0,1.1-0.1,1.7-0.2c0.6-0.1,1.1-0.3,1.6-0.6s0.9-0.7,1.2-1.1
		c0.3-0.4,0.5-1,0.5-1.6c0-0.6-0.1-1-0.3-1.4c-0.2-0.4-0.5-0.7-0.9-0.9s-0.8-0.5-1.3-0.6c-0.5-0.2-1-0.3-1.5-0.4l-2.9-0.6
		c-0.7-0.2-1.4-0.4-2.1-0.7c-0.6-0.3-1.2-0.6-1.6-0.9c-0.5-0.4-0.8-0.8-1.1-1.4c-0.3-0.5-0.4-1.2-0.4-2c0-0.9,0.2-1.7,0.6-2.4
		s1-1.2,1.6-1.6c0.7-0.4,1.4-0.7,2.2-0.9c0.8-0.2,1.6-0.3,2.5-0.3c0.9,0,1.8,0.1,2.6,0.4c0.8,0.2,1.5,0.6,2.1,1.1
		c0.6,0.5,1.1,1.1,1.5,1.9c0.4,0.7,0.6,1.6,0.6,2.6h-2.3C457.4,12.5,457.3,11.9,457,11.4z"/>
	<path fill="#FF6600" d="M474.3,11.4c-0.3-0.5-0.6-0.9-1.1-1.3c-0.4-0.3-1-0.6-1.5-0.7s-1.2-0.2-1.8-0.2c-0.5,0-1,0.1-1.5,0.2
		c-0.5,0.1-1,0.3-1.4,0.5c-0.4,0.3-0.8,0.6-1,1s-0.4,0.9-0.4,1.5c0,0.5,0.1,0.9,0.4,1.3s0.6,0.6,1,0.9c0.4,0.2,0.8,0.4,1.3,0.6
		s0.9,0.3,1.3,0.4l3,0.7c0.6,0.1,1.3,0.3,1.9,0.5s1.2,0.6,1.7,1c0.5,0.4,0.9,0.9,1.2,1.5c0.3,0.6,0.5,1.3,0.5,2.1
		c0,1-0.2,1.9-0.7,2.6s-1,1.3-1.7,1.7c-0.7,0.4-1.5,0.8-2.4,1s-1.8,0.3-2.6,0.3c-2.2,0-4-0.5-5.3-1.5c-1.4-1-2.1-2.7-2.3-5h2.3
		c0.1,1.5,0.7,2.7,1.7,3.5c1,0.8,2.3,1.2,3.8,1.2c0.6,0,1.1-0.1,1.7-0.2c0.6-0.1,1.1-0.3,1.6-0.6s0.9-0.7,1.2-1.1
		c0.3-0.4,0.5-1,0.5-1.6c0-0.6-0.1-1-0.3-1.4c-0.2-0.4-0.5-0.7-0.9-0.9s-0.8-0.5-1.3-0.6c-0.5-0.2-1-0.3-1.5-0.4l-2.9-0.6
		c-0.7-0.2-1.4-0.4-2.1-0.7c-0.6-0.3-1.2-0.6-1.6-0.9c-0.5-0.4-0.8-0.8-1.1-1.4c-0.3-0.5-0.4-1.2-0.4-2c0-0.9,0.2-1.7,0.6-2.4
		s1-1.2,1.6-1.6c0.7-0.4,1.4-0.7,2.2-0.9c0.8-0.2,1.6-0.3,2.5-0.3c0.9,0,1.8,0.1,2.6,0.4c0.8,0.2,1.5,0.6,2.1,1.1
		c0.6,0.5,1.1,1.1,1.5,1.9c0.4,0.7,0.6,1.6,0.6,2.6h-2.3C474.7,12.5,474.6,11.9,474.3,11.4z"/>
	<path fill="#FF6600" d="M491.4,10.7c0.4-0.8,0.9-1.4,1.6-1.9c0.7-0.5,1.4-0.9,2.3-1.1s1.9-0.4,3-0.4c0.8,0,1.6,0.1,2.4,0.2
		c0.8,0.2,1.5,0.5,2.2,0.9c0.6,0.4,1.2,1,1.6,1.8c0.4,0.8,0.6,1.8,0.6,3v9.9c0,0.9,0.4,1.4,1.3,1.4c0.3,0,0.5,0,0.7-0.1v1.9
		c-0.3,0-0.5,0.1-0.7,0.1c-0.2,0-0.5,0-0.8,0c-0.6,0-1-0.1-1.4-0.2c-0.3-0.2-0.6-0.4-0.8-0.7c-0.2-0.3-0.3-0.6-0.4-1
		c-0.1-0.4-0.1-0.8-0.1-1.3h-0.1c-0.4,0.6-0.8,1.1-1.2,1.6c-0.4,0.5-0.9,0.9-1.4,1.2c-0.5,0.3-1.1,0.6-1.8,0.7
		c-0.7,0.2-1.4,0.3-2.4,0.3c-0.9,0-1.7-0.1-2.4-0.3c-0.8-0.2-1.4-0.5-2-1c-0.6-0.4-1-1-1.3-1.7c-0.3-0.7-0.5-1.5-0.5-2.4
		c0-1.3,0.3-2.3,0.9-3c0.6-0.7,1.3-1.3,2.3-1.7c0.9-0.4,2-0.7,3.2-0.8c1.2-0.2,2.4-0.3,3.6-0.5c0.5,0,0.9-0.1,1.3-0.2
		c0.4-0.1,0.7-0.2,0.9-0.4c0.2-0.2,0.4-0.4,0.6-0.7c0.1-0.3,0.2-0.7,0.2-1.2c0-0.8-0.1-1.4-0.4-1.9c-0.3-0.5-0.6-0.9-1-1.2
		c-0.4-0.3-1-0.5-1.5-0.6c-0.6-0.1-1.2-0.2-1.9-0.2c-1.4,0-2.6,0.3-3.5,1c-0.9,0.7-1.4,1.8-1.4,3.3h-2.3
		C490.8,12.4,491,11.4,491.4,10.7z M502.7,16.2c-0.1,0.3-0.4,0.5-0.8,0.6s-0.8,0.2-1.1,0.3c-1,0.2-2,0.3-3,0.5c-1,0.1-2,0.3-2.8,0.6
		c-0.8,0.3-1.5,0.6-2.1,1.1c-0.5,0.5-0.8,1.2-0.8,2.1c0,0.6,0.1,1.1,0.3,1.5s0.5,0.8,0.9,1.2c0.4,0.3,0.8,0.6,1.3,0.7s1,0.3,1.5,0.3
		c0.9,0,1.7-0.1,2.5-0.4s1.5-0.6,2.1-1.2c0.6-0.5,1.1-1.1,1.4-1.8s0.5-1.5,0.5-2.4L502.7,16.2L502.7,16.2z"/>
	<path fill="#FF6600" d="M511.9,7.8V11h0.1c0.4-1.1,1.2-2,2.3-2.7c1.1-0.7,2.3-1,3.6-1c1.3,0,2.4,0.2,3.3,0.5
		c0.9,0.3,1.6,0.8,2.1,1.4c0.5,0.6,0.9,1.4,1.1,2.2c0.2,0.9,0.3,1.9,0.3,3v12h-2.3V14.8c0-0.8-0.1-1.5-0.2-2.2
		c-0.1-0.7-0.4-1.3-0.8-1.8c-0.4-0.5-0.8-0.9-1.5-1.2c-0.6-0.3-1.4-0.4-2.3-0.4s-1.7,0.2-2.4,0.5c-0.7,0.3-1.3,0.8-1.8,1.3
		c-0.5,0.6-0.9,1.2-1.2,2c-0.3,0.8-0.4,1.6-0.5,2.5v10.8h-2.3V7.8H511.9z"/>
	<path fill="#FF6600" d="M529.3,7.8l6.1,15.8l5.7-15.8h2.3l-8.1,21.4c-0.3,0.8-0.6,1.4-0.9,2c-0.3,0.5-0.6,0.9-1,1.2
		c-0.3,0.3-0.8,0.5-1.2,0.6s-1.1,0.2-1.8,0.2c-0.5,0-0.8,0-1.1-0.1c-0.3,0-0.5-0.1-0.7-0.1v-1.9c0.3,0,0.5,0.1,0.8,0.1
		s0.5,0.1,0.8,0.1c0.5,0,0.9-0.1,1.2-0.2c0.3-0.1,0.6-0.3,0.8-0.6c0.2-0.3,0.4-0.6,0.6-0.9c0.2-0.4,0.3-0.8,0.5-1.2l0.8-2.1
		l-7.4-18.5H529.3z"/>
	<path fill="#FF6600" d="M546.2,7.8l4.8,15.9h0.1l4.5-15.9h2.6l4.5,15.9h0.1l4.8-15.9h2.4l-6,18.6h-2.5l-4.6-15.6h-0.1l-4.5,15.6
		h-2.5l-6-18.6H546.2z"/>
	<path fill="#FF6600" d="M574.5,0.6V11h0.1c0.4-1.1,1.2-2,2.3-2.7c1.1-0.7,2.3-1,3.6-1c1.3,0,2.4,0.2,3.3,0.5
		c0.9,0.3,1.6,0.8,2.1,1.4c0.5,0.6,0.9,1.4,1.1,2.2c0.2,0.9,0.3,1.9,0.3,3v12h-2.3V14.8c0-0.8-0.1-1.5-0.2-2.2
		c-0.1-0.7-0.4-1.3-0.8-1.8c-0.4-0.5-0.8-0.9-1.5-1.2c-0.6-0.3-1.4-0.4-2.3-0.4s-1.7,0.2-2.4,0.5c-0.7,0.3-1.3,0.8-1.8,1.3
		c-0.5,0.6-0.9,1.2-1.2,2c-0.3,0.8-0.4,1.6-0.5,2.5v10.8h-2.3V0.6H574.5z"/>
	<path fill="#FF6600" d="M593.3,20.2c0.2,0.9,0.6,1.7,1.1,2.4c0.5,0.7,1.1,1.3,1.9,1.7c0.8,0.5,1.7,0.7,2.8,0.7c1.7,0,3-0.4,3.9-1.3
		s1.6-2,1.9-3.5h2.3c-0.5,2.1-1.4,3.7-2.6,4.9c-1.3,1.2-3.1,1.7-5.5,1.7c-1.5,0-2.7-0.3-3.8-0.8c-1.1-0.5-1.9-1.2-2.6-2.1
		c-0.7-0.9-1.2-1.9-1.5-3.1c-0.3-1.2-0.5-2.4-0.5-3.8c0-1.2,0.2-2.4,0.5-3.6s0.8-2.2,1.5-3.2s1.5-1.7,2.6-2.2
		c1.1-0.6,2.3-0.8,3.8-0.8c1.5,0,2.8,0.3,3.8,0.9s1.9,1.4,2.6,2.4c0.7,1,1.1,2.1,1.4,3.3s0.4,2.5,0.4,3.8H593
		C593,18.5,593.1,19.3,593.3,20.2z M604.5,13.3c-0.3-0.8-0.7-1.5-1.2-2.1c-0.5-0.6-1.1-1.1-1.8-1.5c-0.7-0.4-1.5-0.6-2.4-0.6
		c-0.9,0-1.8,0.2-2.5,0.6c-0.7,0.4-1.3,0.9-1.8,1.5s-0.9,1.3-1.2,2.1c-0.3,0.8-0.5,1.6-0.6,2.5h12C605,14.9,604.8,14.1,604.5,13.3z"
		/>
	<path fill="#FF6600" d="M612.4,7.8v4.4h0.1c0.6-1.5,1.5-2.7,2.7-3.5c1.2-0.8,2.7-1.2,4.3-1.1v2.3c-1,0-2,0.1-2.8,0.4
		c-0.8,0.3-1.6,0.8-2.2,1.4c-0.6,0.6-1.1,1.3-1.4,2.1s-0.5,1.7-0.5,2.7v9.9h-2.3V7.8H612.4z"/>
	<path fill="#FF6600" d="M622.7,20.2c0.2,0.9,0.6,1.7,1.1,2.4c0.5,0.7,1.1,1.3,1.9,1.7c0.8,0.5,1.7,0.7,2.8,0.7c1.7,0,3-0.4,3.9-1.3
		s1.6-2,1.9-3.5h2.3c-0.5,2.1-1.4,3.7-2.6,4.9c-1.3,1.2-3.1,1.7-5.5,1.7c-1.5,0-2.7-0.3-3.8-0.8c-1.1-0.5-1.9-1.2-2.6-2.1
		c-0.7-0.9-1.2-1.9-1.5-3.1c-0.3-1.2-0.5-2.4-0.5-3.8c0-1.2,0.2-2.4,0.5-3.6s0.8-2.2,1.5-3.2s1.5-1.7,2.6-2.2
		c1.1-0.6,2.3-0.8,3.8-0.8c1.5,0,2.8,0.3,3.8,0.9s1.9,1.4,2.6,2.4c0.7,1,1.1,2.1,1.4,3.3s0.4,2.5,0.4,3.8h-14.3
		C622.3,18.5,622.5,19.3,622.7,20.2z M633.9,13.3c-0.3-0.8-0.7-1.5-1.2-2.1c-0.5-0.6-1.1-1.1-1.8-1.5c-0.7-0.4-1.5-0.6-2.4-0.6
		c-0.9,0-1.8,0.2-2.5,0.6c-0.7,0.4-1.3,0.9-1.8,1.5s-0.9,1.3-1.2,2.1c-0.3,0.8-0.5,1.6-0.6,2.5h12C634.3,14.9,634.2,14.1,633.9,13.3
		z"/>
</g>
</svg>
