<?xml version="1.0" encoding="utf-8"?>
<!-- Generator: Adobe Illustrator 17.1.0, SVG Export Plug-In . SVG Version: 6.00 Build 0)  -->
<!DOCTYPE svg PUBLIC "-//W3C//DTD SVG 1.1//EN" "http://www.w3.org/Graphics/SVG/1.1/DTD/svg11.dtd">
<svg version="1.1" id="图层_1" xmlns="http://www.w3.org/2000/svg" xmlns:xlink="http://www.w3.org/1999/xlink" x="0px" y="0px"
	 viewBox="0 0 619 33.8" enable-background="new 0 0 619 33.8" xml:space="preserve">
<g>
	<path fill="#FF6600" d="M0.6,2V0.6h19.7V2h-9.1v24.3H9.6V2H0.6z"/>
	<path fill="#FF6600" d="M17.5,17.1c0-1.3,0.2-2.6,0.6-3.7s0.9-2.2,1.6-3.1c0.7-0.9,1.6-1.6,2.7-2.1c1.1-0.5,2.3-0.8,3.6-0.8
		c1.4,0,2.6,0.3,3.6,0.8c1.1,0.5,1.9,1.2,2.7,2.1c0.7,0.9,1.3,1.9,1.6,3.1s0.6,2.4,0.6,3.7c0,1.3-0.2,2.6-0.6,3.7S33,23,32.3,23.9
		c-0.7,0.9-1.6,1.6-2.7,2.1c-1.1,0.5-2.3,0.8-3.6,0.8c-1.4,0-2.6-0.3-3.6-0.8s-1.9-1.2-2.7-2.1C19,23,18.4,22,18.1,20.8
		S17.5,18.4,17.5,17.1z M18.9,17.1c0,1.1,0.2,2.2,0.5,3.2c0.3,1,0.8,1.9,1.4,2.7c0.6,0.8,1.3,1.4,2.2,1.9s1.9,0.7,3.1,0.7
		c1.2,0,2.2-0.2,3.1-0.7c0.9-0.5,1.6-1.1,2.2-1.9c0.6-0.8,1.1-1.7,1.4-2.7c0.3-1,0.5-2.1,0.5-3.2c0-1.1-0.2-2.2-0.5-3.2
		c-0.3-1-0.8-1.9-1.4-2.7c-0.6-0.8-1.3-1.4-2.2-1.9c-0.9-0.5-1.9-0.7-3.1-0.7c-1.2,0-2.2,0.2-3.1,0.7s-1.6,1.1-2.2,1.9
		c-0.6,0.8-1.1,1.7-1.4,2.7C19,14.9,18.9,16,18.9,17.1z"/>
	<path fill="#FF6600" d="M47.7,7.8h1.4v3.8h0.1c0.1-0.6,0.4-1.1,0.8-1.6c0.4-0.5,0.8-1,1.3-1.3c0.5-0.4,1.1-0.7,1.7-0.9
		s1.3-0.3,2-0.3c0.9,0,1.7,0.1,2.3,0.3c0.6,0.2,1.2,0.5,1.7,0.9C59.4,9,59.7,9.4,60,9.9c0.3,0.5,0.4,0.9,0.5,1.4h0.1
		c0.6-1.3,1.3-2.3,2.2-2.9c0.9-0.7,2.1-1,3.7-1c0.8,0,1.6,0.1,2.3,0.4s1.3,0.6,1.8,1.2c0.5,0.5,0.9,1.2,1.2,2s0.4,1.7,0.4,2.8v12.6
		h-1.4V13.7c0-1.2-0.2-2.1-0.5-2.8c-0.4-0.7-0.8-1.2-1.3-1.5c-0.5-0.3-1-0.6-1.5-0.6c-0.5-0.1-0.9-0.1-1.1-0.1
		c-0.8,0-1.6,0.1-2.3,0.4c-0.7,0.3-1.3,0.7-1.8,1.3c-0.5,0.6-0.9,1.3-1.2,2.1c-0.3,0.9-0.4,1.8-0.4,2.9v10.9h-1.4V13.7
		c0-1.2-0.2-2.1-0.5-2.8c-0.3-0.7-0.8-1.2-1.2-1.5c-0.5-0.3-0.9-0.6-1.4-0.6c-0.5-0.1-0.9-0.1-1.2-0.1c-0.6,0-1.3,0.1-2,0.4
		c-0.7,0.3-1.3,0.7-1.9,1.2c-0.6,0.6-1,1.3-1.4,2.1s-0.5,1.9-0.5,3.1v10.9h-1.4V7.8z"/>
	<path fill="#FF6600" d="M88.6,22.7L88.6,22.7c-0.3,0.6-0.6,1.1-1,1.6c-0.4,0.5-0.9,0.9-1.5,1.3c-0.6,0.4-1.3,0.7-2,0.9
		c-0.7,0.2-1.6,0.3-2.4,0.3c-2,0-3.5-0.4-4.6-1.3c-1.1-0.9-1.6-2.2-1.6-3.9c0-1.1,0.2-2,0.6-2.6c0.4-0.7,1-1.2,1.6-1.6
		c0.7-0.4,1.4-0.7,2.2-0.8c0.8-0.2,1.6-0.3,2.3-0.4l2.1-0.2c1-0.1,1.8-0.2,2.3-0.3c0.6-0.2,1-0.4,1.3-0.6c0.3-0.3,0.5-0.6,0.5-1.1
		c0.1-0.4,0.1-1,0.1-1.6c0-0.5-0.1-1-0.3-1.4c-0.2-0.4-0.5-0.8-0.9-1.2s-0.9-0.6-1.6-0.8c-0.6-0.2-1.4-0.3-2.4-0.3
		c-1.7,0-3,0.4-4,1.2c-1,0.8-1.6,2.1-1.7,3.7h-1.4c0.1-2,0.8-3.6,2-4.6c1.2-1,2.9-1.5,5.2-1.5s3.9,0.4,4.9,1.3c1,0.9,1.5,2,1.5,3.4
		v10.8c0,0.3,0,0.5,0,0.8c0,0.3,0.1,0.5,0.1,0.7c0.1,0.2,0.2,0.4,0.4,0.5s0.4,0.2,0.7,0.2c0.2,0,0.6,0,1-0.1v1.2
		c-0.4,0.1-0.7,0.1-1.1,0.1c-0.6,0-1-0.1-1.3-0.2c-0.3-0.1-0.6-0.3-0.7-0.6c-0.2-0.2-0.3-0.5-0.3-0.8c-0.1-0.3-0.1-0.7-0.1-1.1V22.7
		z M88.6,15.8c-0.3,0.4-0.8,0.7-1.5,0.8c-0.7,0.1-1.4,0.3-2.3,0.3l-2.3,0.2c-0.7,0.1-1.3,0.2-2,0.3c-0.7,0.1-1.3,0.4-1.8,0.7
		c-0.5,0.3-1,0.7-1.3,1.3c-0.3,0.5-0.5,1.2-0.5,2.1c0,1.4,0.4,2.4,1.3,3c0.9,0.7,2.1,1,3.6,1c1.6,0,2.8-0.3,3.7-0.8
		c0.9-0.6,1.6-1.2,2.1-1.9c0.5-0.7,0.8-1.4,0.9-2.1s0.2-1.1,0.2-1.4V15.8z"/>
	<path fill="#FF6600" d="M94.4,0.6h1.4v17l11.4-9.8h2l-8.1,6.9l8.7,11.6h-1.9L100,15.8l-4.2,3.6v7h-1.4V0.6z"/>
	<path fill="#FF6600" d="M111.1,17.3v0.2c0,1.1,0.1,2.1,0.4,3.1c0.3,1,0.7,1.8,1.3,2.6s1.3,1.3,2.1,1.8c0.9,0.4,1.8,0.6,3,0.6
		c1.9,0,3.3-0.5,4.4-1.5s1.8-2.3,2.2-4h1.4c-0.4,2.2-1.3,3.8-2.6,5c-1.4,1.2-3.2,1.7-5.4,1.7c-1.4,0-2.6-0.2-3.6-0.7
		c-1-0.5-1.9-1.2-2.6-2c-0.7-0.9-1.2-1.9-1.5-3c-0.3-1.2-0.5-2.4-0.5-3.8c0-1.3,0.2-2.5,0.5-3.7c0.3-1.2,0.9-2.2,1.6-3.1
		c0.7-0.9,1.6-1.6,2.6-2.2s2.3-0.8,3.7-0.8c1.3,0,2.4,0.2,3.4,0.7s1.8,1.1,2.5,2c0.7,0.8,1.2,1.8,1.5,2.9c0.3,1.1,0.5,2.3,0.5,3.5
		c0,0.1,0,0.3,0,0.4c0,0.2,0,0.3,0,0.4H111.1z M124.7,16.1c0-1-0.2-2-0.5-2.9c-0.3-0.9-0.7-1.7-1.3-2.4c-0.6-0.7-1.3-1.2-2.1-1.6
		c-0.8-0.4-1.7-0.6-2.8-0.6c-1.1,0-2.1,0.2-2.9,0.6c-0.8,0.4-1.6,1-2.1,1.7c-0.6,0.7-1,1.5-1.3,2.4c-0.3,0.9-0.5,1.8-0.6,2.8H124.7z
		"/>
	<path fill="#FF6600" d="M139.6,4.3V0.6h1.4v3.7H139.6z M139.6,26.3V7.8h1.4v18.5H139.6z"/>
	<path fill="#FF6600" d="M152.1,9h-4v12.9c0,0.7,0.1,1.3,0.3,1.8s0.4,0.8,0.8,1c0.3,0.2,0.8,0.4,1.3,0.4c0.5,0,1.1,0.1,1.7,0v1.2
		c-0.7,0-1.4,0-2,0s-1.2-0.2-1.7-0.5s-0.9-0.8-1.2-1.4c-0.3-0.6-0.4-1.4-0.4-2.5V9h-3.4V7.8h3.4V2.1h1.4v5.8h4V9z"/>
	<path fill="#FF6600" d="M165.2,17.3v0.2c0,1.1,0.1,2.1,0.4,3.1c0.3,1,0.7,1.8,1.3,2.6s1.3,1.3,2.1,1.8c0.9,0.4,1.8,0.6,3,0.6
		c1.9,0,3.3-0.5,4.4-1.5s1.8-2.3,2.2-4h1.4c-0.4,2.2-1.3,3.8-2.6,5c-1.4,1.2-3.2,1.7-5.4,1.7c-1.4,0-2.6-0.2-3.6-0.7
		c-1-0.5-1.9-1.2-2.6-2c-0.7-0.9-1.2-1.9-1.5-3c-0.3-1.2-0.5-2.4-0.5-3.8c0-1.3,0.2-2.5,0.5-3.7c0.3-1.2,0.9-2.2,1.6-3.1
		c0.7-0.9,1.6-1.6,2.6-2.2s2.3-0.8,3.7-0.8c1.3,0,2.4,0.2,3.4,0.7s1.8,1.1,2.5,2c0.7,0.8,1.2,1.8,1.5,2.9c0.3,1.1,0.5,2.3,0.5,3.5
		c0,0.1,0,0.3,0,0.4c0,0.2,0,0.3,0,0.4H165.2z M178.8,16.1c0-1-0.2-2-0.5-2.9c-0.3-0.9-0.7-1.7-1.3-2.4c-0.6-0.7-1.3-1.2-2.1-1.6
		c-0.8-0.4-1.7-0.6-2.8-0.6c-1.1,0-2.1,0.2-2.9,0.6c-0.8,0.4-1.6,1-2.1,1.7c-0.6,0.7-1,1.5-1.3,2.4c-0.3,0.9-0.5,1.8-0.6,2.8H178.8z
		"/>
	<path fill="#FF6600" d="M195.6,22.7L195.6,22.7c-0.3,0.6-0.6,1.1-1,1.6c-0.4,0.5-0.9,0.9-1.5,1.3c-0.6,0.4-1.3,0.7-2,0.9
		c-0.7,0.2-1.6,0.3-2.4,0.3c-2,0-3.5-0.4-4.6-1.3c-1.1-0.9-1.6-2.2-1.6-3.9c0-1.1,0.2-2,0.6-2.6c0.4-0.7,1-1.2,1.6-1.6
		c0.7-0.4,1.4-0.7,2.2-0.8c0.8-0.2,1.6-0.3,2.3-0.4l2.1-0.2c1-0.1,1.8-0.2,2.3-0.3c0.6-0.2,1-0.4,1.3-0.6c0.3-0.3,0.5-0.6,0.5-1.1
		c0.1-0.4,0.1-1,0.1-1.6c0-0.5-0.1-1-0.3-1.4c-0.2-0.4-0.5-0.8-0.9-1.2s-0.9-0.6-1.6-0.8c-0.6-0.2-1.4-0.3-2.4-0.3
		c-1.7,0-3,0.4-4,1.2c-1,0.8-1.6,2.1-1.7,3.7h-1.4c0.1-2,0.8-3.6,2-4.6c1.2-1,2.9-1.5,5.2-1.5s3.9,0.4,4.9,1.3c1,0.9,1.5,2,1.5,3.4
		v10.8c0,0.3,0,0.5,0,0.8c0,0.3,0.1,0.5,0.1,0.7c0.1,0.2,0.2,0.4,0.4,0.5s0.4,0.2,0.7,0.2c0.2,0,0.6,0,1-0.1v1.2
		c-0.4,0.1-0.7,0.1-1.1,0.1c-0.6,0-1-0.1-1.3-0.2c-0.3-0.1-0.6-0.3-0.7-0.6c-0.2-0.2-0.3-0.5-0.3-0.8c-0.1-0.3-0.1-0.7-0.1-1.1V22.7
		z M195.6,15.8c-0.3,0.4-0.8,0.7-1.5,0.8c-0.7,0.1-1.4,0.3-2.3,0.3l-2.3,0.2c-0.7,0.1-1.3,0.2-2,0.3c-0.7,0.1-1.3,0.4-1.8,0.7
		c-0.5,0.3-1,0.7-1.3,1.3c-0.3,0.5-0.5,1.2-0.5,2.1c0,1.4,0.4,2.4,1.3,3c0.9,0.7,2.1,1,3.6,1c1.6,0,2.8-0.3,3.7-0.8
		c0.9-0.6,1.6-1.2,2.1-1.9c0.5-0.7,0.8-1.4,0.9-2.1s0.2-1.1,0.2-1.4V15.8z"/>
	<path fill="#FF6600" d="M202,20.2c0,0.9,0.2,1.6,0.6,2.3c0.3,0.7,0.8,1.2,1.3,1.7c0.5,0.5,1.2,0.8,1.9,1.1c0.7,0.2,1.5,0.4,2.3,0.4
		c0.6,0,1.2-0.1,1.9-0.2s1.3-0.3,1.9-0.6s1.1-0.7,1.5-1.2c0.4-0.5,0.6-1.2,0.6-2c0-1-0.3-1.8-0.9-2.3c-0.6-0.5-1.4-0.9-2.4-1.2
		c-0.9-0.3-2-0.5-3.1-0.7c-1.1-0.2-2.1-0.5-3.1-0.8c-0.9-0.4-1.7-0.9-2.4-1.5c-0.6-0.7-0.9-1.6-0.9-2.9c0-0.9,0.2-1.7,0.6-2.3
		c0.4-0.6,0.9-1.1,1.6-1.5c0.6-0.4,1.3-0.6,2.1-0.8c0.8-0.2,1.6-0.2,2.4-0.2c1,0,1.9,0.1,2.7,0.3s1.6,0.6,2.2,1
		c0.6,0.5,1.1,1.1,1.4,1.8c0.3,0.7,0.5,1.6,0.5,2.7h-1.4c0-0.8-0.1-1.6-0.4-2.2c-0.3-0.6-0.7-1.1-1.2-1.5c-0.5-0.4-1.1-0.6-1.7-0.8
		c-0.7-0.2-1.4-0.3-2.2-0.3c-0.6,0-1.3,0.1-1.9,0.2c-0.6,0.1-1.2,0.3-1.7,0.6s-0.9,0.7-1.2,1.1s-0.5,1-0.5,1.7
		c0,0.7,0.2,1.3,0.5,1.8s0.8,0.8,1.4,1.1c0.6,0.3,1.2,0.5,2,0.7c0.7,0.2,1.5,0.3,2.2,0.5c0.9,0.2,1.8,0.4,2.6,0.6
		c0.8,0.2,1.5,0.5,2.1,0.9c0.6,0.4,1.1,0.9,1.4,1.5s0.5,1.4,0.5,2.4c0,1-0.2,1.8-0.7,2.5c-0.5,0.6-1,1.2-1.7,1.6
		c-0.7,0.4-1.5,0.7-2.3,0.8c-0.9,0.2-1.7,0.2-2.5,0.2c-1.1,0-2-0.1-2.9-0.4c-0.9-0.3-1.7-0.7-2.4-1.3c-0.7-0.6-1.2-1.3-1.6-2.1
		c-0.4-0.8-0.6-1.8-0.6-2.8H202z"/>
	<path fill="#FF6600" d="M216.4,7.8h1.6l6.9,16.9l6.3-16.9h1.5l-7.9,20.5c-0.4,0.9-0.7,1.7-1.1,2.4c-0.3,0.7-0.7,1.1-1.1,1.5
		c-0.5,0.4-1,0.6-1.7,0.7s-1.5,0.1-2.6,0.1v-1.2c1,0,1.8-0.1,2.3-0.2c0.6-0.2,1.1-0.5,1.5-1c0.3-0.3,0.5-0.8,0.8-1.5
		c0.3-0.7,0.6-1.7,1.1-2.9L216.4,7.8z"/>
	<path fill="#FF6600" d="M251.5,9h-4v12.9c0,0.7,0.1,1.3,0.3,1.8s0.4,0.8,0.8,1c0.3,0.2,0.8,0.4,1.3,0.4c0.5,0,1.1,0.1,1.7,0v1.2
		c-0.7,0-1.4,0-2,0s-1.2-0.2-1.7-0.5s-0.9-0.8-1.2-1.4c-0.3-0.6-0.4-1.4-0.4-2.5V9h-3.4V7.8h3.4V2.1h1.4v5.8h4V9z"/>
	<path fill="#FF6600" d="M252.6,17.1c0-1.3,0.2-2.6,0.6-3.7c0.4-1.2,0.9-2.2,1.6-3.1s1.6-1.6,2.7-2.1c1.1-0.5,2.3-0.8,3.6-0.8
		c1.4,0,2.6,0.3,3.6,0.8c1.1,0.5,1.9,1.2,2.7,2.1s1.3,1.9,1.6,3.1c0.4,1.2,0.6,2.4,0.6,3.7c0,1.3-0.2,2.6-0.6,3.7
		c-0.4,1.2-0.9,2.2-1.6,3.1s-1.6,1.6-2.7,2.1s-2.3,0.8-3.6,0.8c-1.4,0-2.6-0.3-3.6-0.8c-1.1-0.5-1.9-1.2-2.7-2.1s-1.3-1.9-1.6-3.1
		C252.8,19.6,252.6,18.4,252.6,17.1z M254,17.1c0,1.1,0.2,2.2,0.5,3.2c0.3,1,0.8,1.9,1.4,2.7s1.3,1.4,2.2,1.9
		c0.9,0.5,1.9,0.7,3.1,0.7c1.2,0,2.2-0.2,3.1-0.7s1.6-1.1,2.2-1.9s1.1-1.7,1.4-2.7c0.3-1,0.5-2.1,0.5-3.2c0-1.1-0.2-2.2-0.5-3.2
		c-0.3-1-0.8-1.9-1.4-2.7s-1.3-1.4-2.2-1.9s-1.9-0.7-3.1-0.7c-1.2,0-2.2,0.2-3.1,0.7c-0.9,0.5-1.6,1.1-2.2,1.9s-1.1,1.7-1.4,2.7
		C254.1,14.9,254,16,254,17.1z"/>
	<path fill="#FF6600" d="M297.1,22.4L297.1,22.4c-0.8,1.5-1.8,2.6-3,3.3c-1.2,0.7-2.6,1.1-4.2,1.1c-1.4,0-2.6-0.3-3.6-0.8
		c-1-0.5-1.8-1.2-2.5-2.1c-0.6-0.9-1.1-1.9-1.4-3.1c-0.3-1.2-0.5-2.4-0.5-3.7c0-1.4,0.2-2.6,0.5-3.8c0.3-1.2,0.8-2.2,1.5-3.1
		c0.7-0.9,1.5-1.5,2.6-2.1c1-0.5,2.2-0.8,3.6-0.8c0.7,0,1.5,0.1,2.2,0.3c0.7,0.2,1.4,0.5,2,0.9C295,9,295.5,9.4,296,10
		c0.5,0.6,0.8,1.2,1,1.9h0.1V0.6h1.4v25.7h-1.4V22.4z M290.2,25.6c1.2,0,2.2-0.2,3-0.7c0.9-0.5,1.6-1.1,2.1-1.9
		c0.6-0.8,1-1.7,1.3-2.7c0.3-1,0.4-2.1,0.4-3.1c0-1.1-0.1-2.1-0.4-3.2c-0.3-1-0.7-1.9-1.2-2.7c-0.6-0.8-1.3-1.4-2.1-1.9
		c-0.9-0.5-1.9-0.7-3.1-0.7c-1.2,0-2.3,0.2-3.1,0.7c-0.9,0.5-1.6,1.1-2.1,1.9c-0.6,0.8-1,1.7-1.2,2.7c-0.3,1-0.4,2.1-0.4,3.2
		c0,1.1,0.1,2.1,0.4,3.1c0.3,1,0.7,1.9,1.3,2.7c0.6,0.8,1.3,1.4,2.1,1.9C288,25.3,289,25.6,290.2,25.6z"/>
	<path fill="#FF6600" d="M302,17.1c0-1.3,0.2-2.6,0.6-3.7c0.4-1.2,0.9-2.2,1.6-3.1s1.6-1.6,2.7-2.1c1.1-0.5,2.3-0.8,3.6-0.8
		c1.4,0,2.6,0.3,3.6,0.8c1.1,0.5,1.9,1.2,2.7,2.1s1.3,1.9,1.6,3.1c0.4,1.2,0.6,2.4,0.6,3.7c0,1.3-0.2,2.6-0.6,3.7
		c-0.4,1.2-0.9,2.2-1.6,3.1s-1.6,1.6-2.7,2.1s-2.3,0.8-3.6,0.8c-1.4,0-2.6-0.3-3.6-0.8c-1.1-0.5-1.9-1.2-2.7-2.1s-1.3-1.9-1.6-3.1
		C302.1,19.6,302,18.4,302,17.1z M303.3,17.1c0,1.1,0.2,2.2,0.5,3.2c0.3,1,0.8,1.9,1.4,2.7s1.3,1.4,2.2,1.9c0.9,0.5,1.9,0.7,3.1,0.7
		c1.2,0,2.2-0.2,3.1-0.7s1.6-1.1,2.2-1.9s1.1-1.7,1.4-2.7c0.3-1,0.5-2.1,0.5-3.2c0-1.1-0.2-2.2-0.5-3.2c-0.3-1-0.8-1.9-1.4-2.7
		s-1.3-1.4-2.2-1.9s-1.9-0.7-3.1-0.7c-1.2,0-2.2,0.2-3.1,0.7c-0.9,0.5-1.6,1.1-2.2,1.9s-1.1,1.7-1.4,2.7
		C303.5,14.9,303.3,16,303.3,17.1z"/>
	<path fill="#FF6600" d="M332.5,0.6h1.3v11.1h0.1c0.3-0.7,0.6-1.3,1.1-1.9c0.5-0.5,1-1,1.7-1.4c0.6-0.4,1.3-0.6,2-0.8
		c0.7-0.2,1.5-0.3,2.2-0.3c1.4,0,2.6,0.2,3.6,0.7s1.8,1.1,2.5,2c0.7,0.8,1.2,1.8,1.5,2.9s0.5,2.3,0.5,3.6c0,2.2-0.3,4-0.9,5.3
		s-1.3,2.4-2.2,3.1c-0.8,0.7-1.7,1.2-2.6,1.4c-0.9,0.2-1.7,0.3-2.3,0.3c-1.2,0-2.3-0.2-3.1-0.6c-0.9-0.4-1.6-0.8-2.1-1.4
		c-0.6-0.5-1-1-1.3-1.5c-0.3-0.5-0.5-0.9-0.5-1.1h-0.1v4.1h-1.3V0.6z M340.9,25.6c1.2,0,2.3-0.3,3.1-0.8c0.8-0.5,1.5-1.2,2.1-2.1
		c0.5-0.9,0.9-1.8,1.2-2.9c0.2-1.1,0.4-2.1,0.4-3.2c0-1-0.1-2-0.4-3c-0.3-1-0.7-1.8-1.3-2.6c-0.6-0.8-1.3-1.4-2.1-1.8
		c-0.8-0.5-1.8-0.7-2.9-0.7c-1.2,0-2.2,0.2-3.1,0.6c-0.9,0.4-1.6,1-2.2,1.7c-0.6,0.7-1,1.6-1.3,2.6s-0.4,2.1-0.4,3.2
		c0,1.1,0.1,2.2,0.4,3.3c0.3,1.1,0.7,2,1.2,2.9s1.3,1.5,2.2,2S339.7,25.6,340.9,25.6z"/>
	<path fill="#FF6600" d="M366.8,26.3h-1.4v-4h-0.1c-0.2,0.7-0.6,1.3-1,1.9s-1,1-1.5,1.4c-0.6,0.4-1.2,0.7-1.9,0.9
		c-0.7,0.2-1.4,0.3-2.1,0.3c-1.1,0-2-0.1-2.8-0.4s-1.4-0.6-1.9-1c-0.5-0.4-0.9-0.9-1.1-1.5s-0.5-1.1-0.6-1.6
		c-0.1-0.6-0.2-1.1-0.2-1.6c0-0.5,0-1,0-1.3V7.8h1.4v11.7c0,0.5,0,1.1,0.1,1.7c0.1,0.7,0.3,1.3,0.6,2c0.3,0.6,0.9,1.2,1.6,1.6
		c0.7,0.5,1.7,0.7,3,0.7c1,0,2-0.2,2.8-0.6s1.5-0.9,2.1-1.6c0.6-0.7,1-1.5,1.3-2.4c0.3-0.9,0.4-2,0.4-3.1v-10h1.4V26.3z"/>
	<path fill="#FF6600" d="M371.5,20.2c0,0.9,0.2,1.6,0.6,2.3c0.3,0.7,0.8,1.2,1.3,1.7c0.5,0.5,1.2,0.8,1.9,1.1
		c0.7,0.2,1.5,0.4,2.3,0.4c0.6,0,1.2-0.1,1.9-0.2s1.3-0.3,1.9-0.6s1.1-0.7,1.5-1.2c0.4-0.5,0.6-1.2,0.6-2c0-1-0.3-1.8-0.9-2.3
		c-0.6-0.5-1.4-0.9-2.4-1.2c-0.9-0.3-2-0.5-3.1-0.7c-1.1-0.2-2.1-0.5-3.1-0.8c-0.9-0.4-1.7-0.9-2.4-1.5c-0.6-0.7-0.9-1.6-0.9-2.9
		c0-0.9,0.2-1.7,0.6-2.3c0.4-0.6,0.9-1.1,1.6-1.5c0.6-0.4,1.3-0.6,2.1-0.8c0.8-0.2,1.6-0.2,2.4-0.2c1,0,1.9,0.1,2.7,0.3
		s1.6,0.6,2.2,1c0.6,0.5,1.1,1.1,1.4,1.8c0.3,0.7,0.5,1.6,0.5,2.7H383c0-0.8-0.1-1.6-0.4-2.2c-0.3-0.6-0.7-1.1-1.2-1.5
		c-0.5-0.4-1.1-0.6-1.7-0.8c-0.7-0.2-1.4-0.3-2.2-0.3c-0.6,0-1.3,0.1-1.9,0.2c-0.6,0.1-1.2,0.3-1.7,0.6s-0.9,0.7-1.2,1.1
		s-0.5,1-0.5,1.7c0,0.7,0.2,1.3,0.5,1.8s0.8,0.8,1.4,1.1c0.6,0.3,1.2,0.5,2,0.7c0.7,0.2,1.5,0.3,2.2,0.5c0.9,0.2,1.8,0.4,2.6,0.6
		c0.8,0.2,1.5,0.5,2.1,0.9c0.6,0.4,1.1,0.9,1.4,1.5s0.5,1.4,0.5,2.4c0,1-0.2,1.8-0.7,2.5c-0.5,0.6-1,1.2-1.7,1.6
		c-0.7,0.4-1.5,0.7-2.3,0.8c-0.9,0.2-1.7,0.2-2.5,0.2c-1.1,0-2-0.1-2.9-0.4c-0.9-0.3-1.7-0.7-2.4-1.3c-0.7-0.6-1.2-1.3-1.6-2.1
		c-0.4-0.8-0.6-1.8-0.6-2.8H371.5z"/>
	<path fill="#FF6600" d="M388.5,4.3V0.6h1.4v3.7H388.5z M388.5,26.3V7.8h1.4v18.5H388.5z"/>
	<path fill="#FF6600" d="M394.2,7.8h1.4v4h0.1c0.2-0.7,0.6-1.3,1-1.9s1-1,1.5-1.4c0.6-0.4,1.2-0.7,1.9-0.9c0.7-0.2,1.4-0.3,2.1-0.3
		c1.1,0,2,0.1,2.8,0.4c0.8,0.3,1.4,0.6,1.9,1c0.5,0.4,0.9,0.9,1.1,1.5s0.5,1.1,0.6,1.6c0.1,0.6,0.2,1.1,0.2,1.6c0,0.5,0,1,0,1.3
		v11.4h-1.4V14.6c0-0.5,0-1-0.1-1.7c-0.1-0.7-0.3-1.4-0.6-2s-0.9-1.2-1.6-1.6c-0.7-0.5-1.7-0.7-2.9-0.7c-1.1,0-2,0.2-2.8,0.6
		s-1.5,0.9-2.1,1.6c-0.6,0.7-1,1.5-1.3,2.4c-0.3,0.9-0.4,2-0.4,3.1v10h-1.4V7.8z"/>
	<path fill="#FF6600" d="M413.4,17.3v0.2c0,1.1,0.1,2.1,0.4,3.1s0.7,1.8,1.3,2.6c0.6,0.7,1.3,1.3,2.1,1.8c0.9,0.4,1.8,0.6,3,0.6
		c1.9,0,3.3-0.5,4.4-1.5c1.1-1,1.8-2.3,2.2-4h1.4c-0.4,2.2-1.3,3.8-2.6,5c-1.4,1.2-3.2,1.7-5.4,1.7c-1.4,0-2.6-0.2-3.6-0.7
		c-1-0.5-1.9-1.2-2.6-2c-0.7-0.9-1.2-1.9-1.5-3s-0.5-2.4-0.5-3.8c0-1.3,0.2-2.5,0.5-3.7c0.3-1.2,0.9-2.2,1.6-3.1
		c0.7-0.9,1.6-1.6,2.6-2.2c1-0.5,2.3-0.8,3.7-0.8c1.3,0,2.4,0.2,3.4,0.7s1.8,1.1,2.5,2s1.2,1.8,1.5,2.9c0.3,1.1,0.5,2.3,0.5,3.5
		c0,0.1,0,0.3,0,0.4c0,0.2,0,0.3,0,0.4H413.4z M427,16.1c0-1-0.2-2-0.5-2.9s-0.7-1.7-1.3-2.4s-1.3-1.2-2.1-1.6
		c-0.8-0.4-1.7-0.6-2.8-0.6c-1.1,0-2.1,0.2-2.9,0.6c-0.8,0.4-1.6,1-2.1,1.7c-0.6,0.7-1,1.5-1.3,2.4c-0.3,0.9-0.5,1.8-0.6,2.8H427z"
		/>
	<path fill="#FF6600" d="M432.2,20.2c0,0.9,0.2,1.6,0.6,2.3s0.8,1.2,1.3,1.7c0.5,0.5,1.2,0.8,1.9,1.1c0.7,0.2,1.5,0.4,2.3,0.4
		c0.6,0,1.2-0.1,1.9-0.2s1.3-0.3,1.9-0.6c0.6-0.3,1.1-0.7,1.5-1.2c0.4-0.5,0.6-1.2,0.6-2c0-1-0.3-1.8-0.9-2.3
		c-0.6-0.5-1.4-0.9-2.4-1.2c-0.9-0.3-2-0.5-3.1-0.7c-1.1-0.2-2.1-0.5-3.1-0.8c-0.9-0.4-1.7-0.9-2.4-1.5c-0.6-0.7-0.9-1.6-0.9-2.9
		c0-0.9,0.2-1.7,0.6-2.3c0.4-0.6,0.9-1.1,1.6-1.5c0.6-0.4,1.3-0.6,2.1-0.8c0.8-0.2,1.6-0.2,2.4-0.2c1,0,1.9,0.1,2.7,0.3
		s1.6,0.6,2.2,1c0.6,0.5,1.1,1.1,1.4,1.8c0.3,0.7,0.5,1.6,0.5,2.7h-1.4c0-0.8-0.1-1.6-0.4-2.2c-0.3-0.6-0.7-1.1-1.2-1.5
		c-0.5-0.4-1.1-0.6-1.7-0.8c-0.7-0.2-1.4-0.3-2.2-0.3c-0.6,0-1.3,0.1-1.9,0.2c-0.6,0.1-1.2,0.3-1.7,0.6s-0.9,0.7-1.2,1.1
		s-0.5,1-0.5,1.7c0,0.7,0.2,1.3,0.5,1.8c0.4,0.5,0.8,0.8,1.4,1.1c0.6,0.3,1.2,0.5,2,0.7s1.5,0.3,2.2,0.5c0.9,0.2,1.8,0.4,2.6,0.6
		c0.8,0.2,1.5,0.5,2.1,0.9c0.6,0.4,1,0.9,1.4,1.5s0.5,1.4,0.5,2.4c0,1-0.2,1.8-0.7,2.5c-0.5,0.6-1,1.2-1.7,1.6
		c-0.7,0.4-1.5,0.7-2.3,0.8c-0.9,0.2-1.7,0.2-2.5,0.2c-1.1,0-2-0.1-2.9-0.4c-0.9-0.3-1.7-0.7-2.4-1.3c-0.7-0.6-1.2-1.3-1.6-2.1
		c-0.4-0.8-0.6-1.8-0.6-2.8H432.2z"/>
	<path fill="#FF6600" d="M449.6,20.2c0,0.9,0.2,1.6,0.6,2.3c0.3,0.7,0.8,1.2,1.3,1.7c0.5,0.5,1.2,0.8,1.9,1.1
		c0.7,0.2,1.5,0.4,2.3,0.4c0.6,0,1.2-0.1,1.9-0.2s1.3-0.3,1.9-0.6s1.1-0.7,1.5-1.2c0.4-0.5,0.6-1.2,0.6-2c0-1-0.3-1.8-0.9-2.3
		c-0.6-0.5-1.4-0.9-2.4-1.2c-0.9-0.3-2-0.5-3.1-0.7c-1.1-0.2-2.1-0.5-3.1-0.8c-0.9-0.4-1.7-0.9-2.4-1.5c-0.6-0.7-0.9-1.6-0.9-2.9
		c0-0.9,0.2-1.7,0.6-2.3c0.4-0.6,0.9-1.1,1.6-1.5c0.6-0.4,1.3-0.6,2.1-0.8c0.8-0.2,1.6-0.2,2.4-0.2c1,0,1.9,0.1,2.7,0.3
		s1.6,0.6,2.2,1c0.6,0.5,1.1,1.1,1.4,1.8c0.3,0.7,0.5,1.6,0.5,2.7H461c0-0.8-0.1-1.6-0.4-2.2c-0.3-0.6-0.7-1.1-1.2-1.5
		c-0.5-0.4-1.1-0.6-1.7-0.8c-0.7-0.2-1.4-0.3-2.2-0.3c-0.6,0-1.3,0.1-1.9,0.2c-0.6,0.1-1.2,0.3-1.7,0.6s-0.9,0.7-1.2,1.1
		s-0.5,1-0.5,1.7c0,0.7,0.2,1.3,0.5,1.8s0.8,0.8,1.4,1.1c0.6,0.3,1.2,0.5,2,0.7c0.7,0.2,1.5,0.3,2.2,0.5c0.9,0.2,1.8,0.4,2.6,0.6
		c0.8,0.2,1.5,0.5,2.1,0.9c0.6,0.4,1.1,0.9,1.4,1.5s0.5,1.4,0.5,2.4c0,1-0.2,1.8-0.7,2.5c-0.5,0.6-1,1.2-1.7,1.6
		c-0.7,0.4-1.5,0.7-2.3,0.8c-0.9,0.2-1.7,0.2-2.5,0.2c-1.1,0-2-0.1-2.9-0.4c-0.9-0.3-1.7-0.7-2.4-1.3c-0.7-0.6-1.2-1.3-1.6-2.1
		c-0.4-0.8-0.6-1.8-0.6-2.8H449.6z"/>
	<path fill="#FF6600" d="M488.5,22.7L488.5,22.7c-0.3,0.6-0.6,1.1-1,1.6c-0.4,0.5-0.9,0.9-1.5,1.3s-1.3,0.7-2,0.9
		c-0.7,0.2-1.6,0.3-2.4,0.3c-2,0-3.5-0.4-4.6-1.3s-1.6-2.2-1.6-3.9c0-1.1,0.2-2,0.6-2.6c0.4-0.7,1-1.2,1.6-1.6
		c0.7-0.4,1.4-0.7,2.2-0.8c0.8-0.2,1.6-0.3,2.3-0.4l2.1-0.2c1-0.1,1.8-0.2,2.3-0.3c0.6-0.2,1-0.4,1.3-0.6c0.3-0.3,0.5-0.6,0.5-1.1
		c0.1-0.4,0.1-1,0.1-1.6c0-0.5-0.1-1-0.3-1.4c-0.2-0.4-0.5-0.8-0.9-1.2s-0.9-0.6-1.6-0.8c-0.6-0.2-1.4-0.3-2.4-0.3
		c-1.7,0-3,0.4-4,1.2c-1,0.8-1.6,2.1-1.7,3.7h-1.4c0.1-2,0.8-3.6,2-4.6c1.2-1,2.9-1.5,5.2-1.5s3.9,0.4,4.9,1.3s1.5,2,1.5,3.4v10.8
		c0,0.3,0,0.5,0,0.8c0,0.3,0.1,0.5,0.1,0.7c0.1,0.2,0.2,0.4,0.4,0.5s0.4,0.2,0.7,0.2c0.2,0,0.6,0,1-0.1v1.2
		c-0.4,0.1-0.7,0.1-1.1,0.1c-0.6,0-1-0.1-1.3-0.2c-0.3-0.1-0.6-0.3-0.7-0.6c-0.2-0.2-0.3-0.5-0.3-0.8c-0.1-0.3-0.1-0.7-0.1-1.1V22.7
		z M488.5,15.8c-0.3,0.4-0.8,0.7-1.5,0.8c-0.7,0.1-1.4,0.3-2.3,0.3l-2.3,0.2c-0.7,0.1-1.3,0.2-2,0.3c-0.7,0.1-1.3,0.4-1.8,0.7
		c-0.5,0.3-1,0.7-1.3,1.3s-0.5,1.2-0.5,2.1c0,1.4,0.4,2.4,1.3,3c0.9,0.7,2.1,1,3.6,1c1.6,0,2.8-0.3,3.7-0.8c0.9-0.6,1.6-1.2,2.1-1.9
		c0.5-0.7,0.8-1.4,0.9-2.1c0.1-0.7,0.2-1.1,0.2-1.4V15.8z"/>
	<path fill="#FF6600" d="M494.2,7.8h1.4v4h0.1c0.2-0.7,0.6-1.3,1-1.9c0.4-0.5,1-1,1.5-1.4c0.6-0.4,1.2-0.7,1.9-0.9
		c0.7-0.2,1.4-0.3,2.1-0.3c1.1,0,2,0.1,2.8,0.4c0.8,0.3,1.4,0.6,1.9,1s0.9,0.9,1.1,1.5c0.3,0.5,0.5,1.1,0.6,1.6
		c0.1,0.6,0.2,1.1,0.2,1.6c0,0.5,0,1,0,1.3v11.4h-1.4V14.6c0-0.5,0-1-0.1-1.7s-0.3-1.4-0.6-2s-0.9-1.2-1.6-1.6
		c-0.7-0.5-1.7-0.7-2.9-0.7c-1.1,0-2,0.2-2.8,0.6c-0.8,0.4-1.5,0.9-2.1,1.6c-0.6,0.7-1,1.5-1.3,2.4c-0.3,0.9-0.5,2-0.5,3.1v10h-1.4
		V7.8z"/>
	<path fill="#FF6600" d="M510.7,7.8h1.6l6.9,16.9l6.3-16.9h1.5l-7.9,20.5c-0.4,0.9-0.7,1.7-1.1,2.4s-0.7,1.1-1.1,1.5
		c-0.5,0.4-1.1,0.6-1.7,0.7s-1.5,0.1-2.6,0.1v-1.2c1,0,1.8-0.1,2.3-0.2c0.6-0.2,1.1-0.5,1.5-1c0.3-0.3,0.5-0.8,0.8-1.5
		c0.3-0.7,0.6-1.7,1.1-2.9L510.7,7.8z"/>
	<path fill="#FF6600" d="M533.5,24.7L533.5,24.7l5.1-16.9h1.8l5.1,16.9h0.1l5.2-16.9h1.5l-5.9,18.5h-1.7l-5.1-16.8h-0.1l-5.1,16.8
		h-1.7l-5.9-18.5h1.5L533.5,24.7z"/>
	<path fill="#FF6600" d="M555.6,0.6v11.2h0.1c0.2-0.7,0.6-1.3,1-1.9s1-1,1.5-1.4c0.6-0.4,1.2-0.7,1.9-0.9c0.7-0.2,1.4-0.3,2.1-0.3
		c1.1,0,2,0.1,2.8,0.4c0.8,0.3,1.4,0.6,1.9,1c0.5,0.4,0.9,0.9,1.1,1.5s0.5,1.1,0.6,1.6c0.1,0.6,0.2,1.1,0.2,1.6c0,0.5,0,1,0,1.3
		v11.4h-1.4V14.6c0-0.5,0-1-0.1-1.7c-0.1-0.7-0.3-1.4-0.6-2s-0.9-1.2-1.6-1.6c-0.7-0.5-1.7-0.7-2.9-0.7c-1.1,0-2,0.2-2.8,0.6
		s-1.5,0.9-2.1,1.6c-0.6,0.7-1,1.5-1.3,2.4c-0.3,0.9-0.4,2-0.4,3.1v10h-1.4V0.6H555.6z"/>
	<path fill="#FF6600" d="M573.4,17.3v0.2c0,1.1,0.1,2.1,0.4,3.1s0.7,1.8,1.3,2.6c0.6,0.7,1.3,1.3,2.1,1.8c0.9,0.4,1.8,0.6,3,0.6
		c1.9,0,3.3-0.5,4.4-1.5c1.1-1,1.8-2.3,2.2-4h1.4c-0.4,2.2-1.3,3.8-2.6,5c-1.4,1.2-3.2,1.7-5.4,1.7c-1.4,0-2.6-0.2-3.6-0.7
		c-1-0.5-1.9-1.2-2.6-2c-0.7-0.9-1.2-1.9-1.5-3s-0.5-2.4-0.5-3.8c0-1.3,0.2-2.5,0.5-3.7c0.3-1.2,0.9-2.2,1.6-3.1
		c0.7-0.9,1.6-1.6,2.6-2.2c1-0.5,2.3-0.8,3.7-0.8c1.3,0,2.4,0.2,3.4,0.7s1.8,1.1,2.5,2s1.2,1.8,1.5,2.9c0.3,1.1,0.5,2.3,0.5,3.5
		c0,0.1,0,0.3,0,0.4c0,0.2,0,0.3,0,0.4H573.4z M587,16.1c0-1-0.2-2-0.5-2.9s-0.7-1.7-1.3-2.4s-1.3-1.2-2.1-1.6
		c-0.8-0.4-1.7-0.6-2.8-0.6c-1.1,0-2.1,0.2-2.9,0.6c-0.8,0.4-1.6,1-2.1,1.7c-0.6,0.7-1,1.5-1.3,2.4c-0.3,0.9-0.5,1.8-0.6,2.8H587z"
		/>
	<path fill="#FF6600" d="M593,11.9h0.1c0.2-0.6,0.5-1.2,0.9-1.7c0.4-0.5,1-1,1.6-1.4s1.3-0.7,2.1-0.9c0.8-0.2,1.6-0.3,2.4-0.3v1.4
		c-0.7-0.1-1.5,0-2.5,0.2c-0.9,0.2-1.8,0.8-2.6,1.6c-0.3,0.4-0.6,0.7-0.9,1c-0.3,0.3-0.5,0.7-0.6,1.1c-0.2,0.4-0.3,0.9-0.4,1.4
		c-0.1,0.5-0.2,1.1-0.2,1.8v10.1h-1.4V7.8h1.4V11.9z"/>
	<path fill="#FF6600" d="M601.7,17.3v0.2c0,1.1,0.1,2.1,0.4,3.1c0.3,1,0.7,1.8,1.3,2.6c0.6,0.7,1.3,1.3,2.1,1.8
		c0.9,0.4,1.8,0.6,3,0.6c1.9,0,3.3-0.5,4.4-1.5c1.1-1,1.8-2.3,2.2-4h1.4c-0.4,2.2-1.3,3.8-2.6,5s-3.2,1.7-5.4,1.7
		c-1.4,0-2.6-0.2-3.6-0.7c-1-0.5-1.9-1.2-2.6-2c-0.7-0.9-1.2-1.9-1.5-3c-0.3-1.2-0.5-2.4-0.5-3.8c0-1.3,0.2-2.5,0.5-3.7
		c0.3-1.2,0.9-2.2,1.6-3.1c0.7-0.9,1.6-1.6,2.6-2.2c1-0.5,2.3-0.8,3.7-0.8c1.3,0,2.4,0.2,3.4,0.7s1.8,1.1,2.5,2
		c0.7,0.8,1.2,1.8,1.5,2.9c0.3,1.1,0.5,2.3,0.5,3.5c0,0.1,0,0.3,0,0.4c0,0.2,0,0.3,0,0.4H601.7z M615.3,16.1c0-1-0.2-2-0.5-2.9
		c-0.3-0.9-0.7-1.7-1.3-2.4c-0.6-0.7-1.3-1.2-2.1-1.6s-1.7-0.6-2.8-0.6c-1.1,0-2.1,0.2-2.9,0.6s-1.6,1-2.1,1.7
		c-0.6,0.7-1,1.5-1.3,2.4c-0.3,0.9-0.5,1.8-0.6,2.8H615.3z"/>
</g>
</svg>
