<?xml version="1.0" encoding="utf-8"?>
<!-- Generator: Adobe Illustrator 17.1.0, SVG Export Plug-In . SVG Version: 6.00 Build 0)  -->
<!DOCTYPE svg PUBLIC "-//W3C//DTD SVG 1.1//EN" "http://www.w3.org/Graphics/SVG/1.1/DTD/svg11.dtd">
<svg version="1.1" id="图层_1" xmlns="http://www.w3.org/2000/svg" xmlns:xlink="http://www.w3.org/1999/xlink" x="0px" y="0px"
	 viewBox="0 0 597.3 33.8" enable-background="new 0 0 597.3 33.8" xml:space="preserve">
<g>
	<path fill="#FF6600" d="M1.1,1.1h19.2v0.7h-9.3v25h-0.7v-25H1.1V1.1z"/>
	<path fill="#FF6600" d="M17.9,13.9c0.4-1.2,0.9-2.2,1.6-3.1c0.7-0.9,1.6-1.6,2.6-2.1s2.2-0.8,3.6-0.8c1.3,0,2.5,0.3,3.6,0.8
		s1.9,1.3,2.6,2.1c0.7,0.9,1.2,1.9,1.6,3.1c0.4,1.2,0.5,2.4,0.5,3.7c0,1.3-0.2,2.5-0.5,3.7c-0.4,1.2-0.9,2.2-1.6,3.1
		c-0.7,0.9-1.6,1.6-2.6,2.1c-1,0.5-2.2,0.8-3.6,0.8c-1.3,0-2.5-0.3-3.6-0.8c-1-0.5-1.9-1.2-2.6-2.1c-0.7-0.9-1.2-1.9-1.6-3.1
		c-0.4-1.2-0.5-2.4-0.5-3.7C17.4,16.3,17.6,15.1,17.9,13.9z M18.6,20.9c0.3,1.1,0.8,2,1.5,2.9c0.6,0.8,1.4,1.5,2.4,2
		c0.9,0.5,2,0.7,3.3,0.7c1.2,0,2.3-0.2,3.3-0.7c0.9-0.5,1.7-1.2,2.4-2c0.6-0.8,1.1-1.8,1.5-2.9c0.3-1.1,0.5-2.2,0.5-3.4
		c0-1.2-0.2-2.3-0.5-3.3c-0.3-1.1-0.8-2-1.5-2.9c-0.6-0.8-1.4-1.5-2.4-2c-0.9-0.5-2-0.8-3.3-0.8c-1.2,0-2.3,0.3-3.3,0.8
		c-0.9,0.5-1.7,1.2-2.4,2c-0.6,0.8-1.1,1.8-1.5,2.9s-0.5,2.2-0.5,3.3C18.1,18.7,18.3,19.9,18.6,20.9z"/>
	<path fill="#FF6600" d="M47.8,8.3v4.6h0.1c0.2-0.7,0.4-1.4,0.8-2c0.4-0.6,0.8-1.1,1.3-1.6c0.5-0.5,1.1-0.8,1.7-1.1s1.3-0.4,2-0.4
		c1.4,0,2.6,0.3,3.6,1.1c1,0.8,1.6,1.9,1.9,3.2h0.1c0.4-1.3,1.1-2.3,2.1-3.1c1.1-0.8,2.3-1.2,3.7-1.2c1.1,0,2.1,0.2,2.8,0.5
		s1.3,0.8,1.8,1.4s0.8,1.3,1,2.1c0.2,0.8,0.3,1.7,0.3,2.8v12.2h-0.7V14.6c0-0.9-0.1-1.7-0.2-2.5c-0.2-0.7-0.4-1.4-0.8-1.9
		c-0.4-0.5-0.9-0.9-1.6-1.2s-1.5-0.4-2.5-0.4c-0.9,0-1.7,0.2-2.4,0.5c-0.7,0.3-1.3,0.8-1.8,1.4c-0.5,0.6-0.9,1.3-1.2,2.1
		c-0.3,0.8-0.4,1.6-0.4,2.5v11.7h-0.7V14.9c0-0.9-0.1-1.7-0.2-2.4c-0.1-0.8-0.4-1.4-0.7-2s-0.9-1-1.5-1.4c-0.6-0.3-1.5-0.5-2.5-0.5
		c-0.9,0-1.7,0.2-2.5,0.6c-0.7,0.4-1.4,1-1.9,1.7c-0.5,0.7-0.9,1.5-1.2,2.5c-0.3,0.9-0.4,1.9-0.4,3v10.5h-0.7V8.3H47.8z"/>
	<path fill="#FF6600" d="M75.6,11.6c0.3-0.8,0.8-1.4,1.3-2c0.6-0.6,1.3-1,2.2-1.3c0.9-0.3,1.9-0.5,3-0.5c0.8,0,1.6,0.1,2.3,0.3
		c0.7,0.2,1.4,0.5,1.9,0.9c0.6,0.4,1,1,1.3,1.6c0.3,0.7,0.5,1.5,0.5,2.5v11.8c0,0.4,0.1,0.6,0.2,0.8c0.1,0.2,0.3,0.3,0.6,0.3
		c0.2,0.1,0.5,0.1,0.8,0.1c0.3,0,0.5,0,0.8-0.1v0.7h-1.1c-0.5,0-1-0.1-1.4-0.4c-0.4-0.3-0.6-0.7-0.6-1.4v-2.4h-0.1
		c-0.2,0.6-0.5,1.2-0.9,1.7c-0.4,0.6-0.9,1-1.6,1.5c-0.6,0.4-1.4,0.8-2.2,1c-0.8,0.3-1.7,0.4-2.7,0.4c-1.9,0-3.4-0.4-4.5-1.2
		c-1.1-0.8-1.7-2.1-1.7-3.7c0-1.2,0.2-2.1,0.6-2.8s0.9-1.2,1.5-1.6c0.6-0.4,1.3-0.7,2.1-0.8c0.8-0.2,1.5-0.3,2.3-0.3
		c1.3-0.1,2.4-0.1,3.3-0.2c0.9-0.1,1.7-0.2,2.2-0.4c0.6-0.2,1-0.5,1.3-0.8c0.3-0.4,0.4-0.9,0.4-1.6c0-0.6,0-1.1-0.1-1.7
		c-0.1-0.6-0.3-1.2-0.7-1.7S85.7,9.4,85,9.1c-0.7-0.3-1.7-0.5-2.9-0.5c-1.9,0-3.5,0.5-4.5,1.4s-1.7,2.3-1.8,4H75
		C75.1,13.2,75.3,12.4,75.6,11.6z M87.4,15.9c-0.2,0.3-0.6,0.6-1.1,0.8c-0.5,0.2-1.1,0.3-1.7,0.4c-0.6,0.1-1.4,0.2-2.1,0.2
		c-0.8,0-1.5,0.1-2.2,0.1c-0.7,0-1.4,0.1-2.1,0.3c-0.7,0.1-1.3,0.4-1.8,0.7c-0.5,0.3-0.9,0.8-1.3,1.4c-0.3,0.6-0.5,1.4-0.5,2.4
		c0,0.5,0.1,1.1,0.3,1.6c0.2,0.5,0.5,1,0.9,1.4c0.4,0.4,1,0.7,1.7,1s1.5,0.4,2.5,0.4c1.2,0,2.3-0.2,3.2-0.6c0.9-0.4,1.7-0.9,2.4-1.6
		s1.1-1.4,1.4-2.3s0.5-1.8,0.5-2.7L87.4,15.9L87.4,15.9z"/>
	<path fill="#FF6600" d="M93.1,26.8h-0.7V1.1h0.7v17.8l12.8-10.6h1l-8.5,7.1l9.1,11.4h-1l-8.7-10.9l-4.8,4V26.8z"/>
	<path fill="#FF6600" d="M108.5,21.2c0.3,1.1,0.7,2,1.3,2.8c0.6,0.8,1.3,1.4,2.2,1.9c0.9,0.5,2,0.7,3.3,0.7c1.9,0,3.6-0.5,4.8-1.5
		c1.3-1,2.1-2.5,2.4-4.6h0.7c-0.3,2.2-1.1,3.8-2.6,5c-1.4,1.2-3.2,1.8-5.3,1.8c-1.4,0-2.7-0.2-3.7-0.7c-1-0.5-1.9-1.2-2.5-2
		c-0.6-0.9-1.1-1.9-1.4-3.1c-0.3-1.2-0.5-2.5-0.5-3.8c0-1.5,0.2-2.9,0.7-4.1c0.5-1.2,1.1-2.2,1.8-3c0.7-0.8,1.6-1.5,2.6-1.9
		s2-0.6,3-0.6c1.4,0,2.7,0.3,3.7,0.8c1,0.6,1.9,1.3,2.6,2.2c0.7,0.9,1.1,2,1.4,3.1c0.3,1.2,0.4,2.4,0.4,3.7H108
		C108,18.9,108.2,20.1,108.5,21.2z M122.3,13.8c-0.3-1-0.8-1.9-1.4-2.7c-0.6-0.8-1.4-1.4-2.3-1.8c-0.9-0.4-2-0.7-3.2-0.7
		c-1,0-2,0.2-2.8,0.6c-0.9,0.4-1.6,0.9-2.3,1.7c-0.7,0.7-1.2,1.6-1.6,2.6c-0.4,1-0.6,2.2-0.7,3.5h14.8
		C122.8,15.9,122.6,14.8,122.3,13.8z"/>
	<path fill="#FF6600" d="M136.4,4.7V1.1h0.7v3.6H136.4z M136.4,26.8V8.3h0.7v18.5H136.4z"/>
	<path fill="#FF6600" d="M143,23.2c0,0.7,0.1,1.2,0.2,1.6c0.2,0.4,0.4,0.7,0.6,0.9c0.2,0.2,0.5,0.3,0.8,0.3s0.6,0.1,0.9,0.1
		c0.4,0,0.7,0,1,0c0.3,0,0.5,0,0.6-0.1v0.7c-0.2,0-0.4,0-0.6,0.1c-0.2,0-0.6,0-1.1,0c-0.8,0-1.6-0.2-2.1-0.7
		c-0.6-0.5-0.9-1.4-0.9-2.7V9h-3.4V8.3h3.4V2.5h0.7v5.8h4.2V9H143V23.2z"/>
	<path fill="#FF6600" d="M159.8,21.2c0.3,1.1,0.7,2,1.3,2.8c0.6,0.8,1.3,1.4,2.2,1.9c0.9,0.5,2,0.7,3.3,0.7c1.9,0,3.6-0.5,4.8-1.5
		c1.3-1,2.1-2.5,2.4-4.6h0.7c-0.3,2.2-1.1,3.8-2.6,5c-1.4,1.2-3.2,1.8-5.3,1.8c-1.4,0-2.7-0.2-3.7-0.7c-1-0.5-1.9-1.2-2.5-2
		c-0.6-0.9-1.1-1.9-1.4-3.1c-0.3-1.2-0.5-2.5-0.5-3.8c0-1.5,0.2-2.9,0.7-4.1c0.5-1.2,1.1-2.2,1.8-3c0.7-0.8,1.6-1.5,2.6-1.9
		s2-0.6,3-0.6c1.4,0,2.7,0.3,3.7,0.8c1,0.6,1.9,1.3,2.6,2.2c0.7,0.9,1.1,2,1.4,3.1c0.3,1.2,0.4,2.4,0.4,3.7h-15.5
		C159.4,18.9,159.5,20.1,159.8,21.2z M173.7,13.8c-0.3-1-0.8-1.9-1.4-2.7c-0.6-0.8-1.4-1.4-2.3-1.8c-0.9-0.4-2-0.7-3.2-0.7
		c-1,0-2,0.2-2.8,0.6c-0.9,0.4-1.6,0.9-2.3,1.7c-0.7,0.7-1.2,1.6-1.6,2.6c-0.4,1-0.6,2.2-0.7,3.5h14.8
		C174.1,15.9,174,14.8,173.7,13.8z"/>
	<path fill="#FF6600" d="M178.2,11.6c0.3-0.8,0.8-1.4,1.3-2c0.6-0.6,1.3-1,2.2-1.3c0.9-0.3,1.9-0.5,3-0.5c0.8,0,1.6,0.1,2.3,0.3
		c0.7,0.2,1.4,0.5,1.9,0.9c0.6,0.4,1,1,1.3,1.6c0.3,0.7,0.5,1.5,0.5,2.5v11.8c0,0.4,0.1,0.6,0.2,0.8c0.1,0.2,0.3,0.3,0.6,0.3
		c0.2,0.1,0.5,0.1,0.8,0.1c0.3,0,0.5,0,0.8-0.1v0.7h-1.1c-0.5,0-1-0.1-1.4-0.4c-0.4-0.3-0.6-0.7-0.6-1.4v-2.4h-0.1
		c-0.2,0.6-0.5,1.2-0.9,1.7c-0.4,0.6-0.9,1-1.6,1.5c-0.6,0.4-1.4,0.8-2.2,1c-0.8,0.3-1.7,0.4-2.7,0.4c-1.9,0-3.4-0.4-4.5-1.2
		c-1.1-0.8-1.7-2.1-1.7-3.7c0-1.2,0.2-2.1,0.6-2.8s0.9-1.2,1.5-1.6c0.6-0.4,1.3-0.7,2.1-0.8c0.8-0.2,1.5-0.3,2.3-0.3
		c1.3-0.1,2.4-0.1,3.3-0.2c0.9-0.1,1.7-0.2,2.2-0.4c0.6-0.2,1-0.5,1.3-0.8c0.3-0.4,0.4-0.9,0.4-1.6c0-0.6,0-1.1-0.1-1.7
		c-0.1-0.6-0.3-1.2-0.7-1.7s-0.9-0.9-1.6-1.2c-0.7-0.3-1.7-0.5-2.9-0.5c-1.9,0-3.5,0.5-4.5,1.4s-1.7,2.3-1.8,4h-0.7
		C177.7,13.2,177.9,12.4,178.2,11.6z M190.1,15.9c-0.2,0.3-0.6,0.6-1.1,0.8c-0.5,0.2-1.1,0.3-1.7,0.4c-0.6,0.1-1.4,0.2-2.1,0.2
		c-0.8,0-1.5,0.1-2.2,0.1c-0.7,0-1.4,0.1-2.1,0.3c-0.7,0.1-1.3,0.4-1.8,0.7c-0.5,0.3-0.9,0.8-1.3,1.4c-0.3,0.6-0.5,1.4-0.5,2.4
		c0,0.5,0.1,1.1,0.3,1.6c0.2,0.5,0.5,1,0.9,1.4c0.4,0.4,1,0.7,1.7,1s1.5,0.4,2.5,0.4c1.2,0,2.3-0.2,3.2-0.6c0.9-0.4,1.7-0.9,2.4-1.6
		s1.1-1.4,1.4-2.3s0.5-1.8,0.5-2.7L190.1,15.9L190.1,15.9z"/>
	<path fill="#FF6600" d="M206.7,11.4c-0.3-0.6-0.7-1.2-1.2-1.6s-1.2-0.7-1.9-0.9c-0.7-0.2-1.5-0.3-2.4-0.3c-1.3,0-2.3,0.2-3.1,0.5
		c-0.7,0.3-1.3,0.7-1.7,1.2c-0.4,0.4-0.6,0.9-0.7,1.3c-0.1,0.4-0.1,0.7-0.1,0.9c0,0.9,0.2,1.6,0.6,2.1s0.9,0.9,1.5,1.1
		c0.6,0.3,1.3,0.5,2.1,0.7c0.8,0.2,1.6,0.4,2.6,0.7c0.7,0.2,1.4,0.4,2.1,0.6s1.3,0.5,1.9,0.8c0.6,0.4,1,0.8,1.4,1.4
		c0.3,0.6,0.5,1.3,0.5,2.2c0,0.9-0.2,1.7-0.6,2.4c-0.4,0.6-0.9,1.2-1.5,1.6c-0.6,0.4-1.4,0.7-2.2,0.9c-0.8,0.2-1.6,0.3-2.4,0.3
		c-2.5,0-4.3-0.5-5.6-1.6c-1.3-1.1-1.9-2.8-1.9-5.1h0.7c0,2.1,0.6,3.6,1.7,4.6c1.2,1,2.8,1.5,5,1.5c0.7,0,1.4-0.1,2.1-0.2
		s1.4-0.4,1.9-0.8c0.6-0.3,1-0.8,1.4-1.4c0.4-0.6,0.6-1.2,0.6-2c0-0.8-0.2-1.5-0.6-2c-0.4-0.5-0.9-0.9-1.4-1.2s-1.3-0.6-2-0.8
		s-1.5-0.4-2.3-0.6c-0.9-0.2-1.7-0.4-2.3-0.6c-0.7-0.2-1.3-0.4-1.8-0.6c-0.8-0.3-1.3-0.8-1.7-1.4c-0.4-0.6-0.5-1.4-0.5-2.4
		c0-0.5,0.1-1,0.3-1.6c0.2-0.6,0.6-1.1,1.1-1.5s1.2-0.8,1.9-1.1s1.8-0.4,2.9-0.4c2.1,0,3.7,0.5,4.9,1.4c1.2,0.9,1.8,2.4,1.8,4.5
		h-0.7C207.1,12.8,207,12,206.7,11.4z"/>
	<path fill="#FF6600" d="M224.8,8.3l-8.5,22.2c-0.2,0.6-0.5,1.1-0.9,1.5c-0.3,0.3-0.7,0.6-1.1,0.8c-0.4,0.2-0.9,0.3-1.4,0.3
		c-0.5,0-1,0.1-1.6,0.1v-0.7c0.6,0,1.2,0,1.6-0.1s0.8-0.1,1.2-0.3c0.3-0.2,0.6-0.4,0.9-0.7s0.5-0.8,0.7-1.3l1.3-3.4l-7.7-18.3h0.8
		l7.3,17.5l6.6-17.5H224.8z"/>
	<path fill="#FF6600" d="M238.4,23.2c0,0.7,0.1,1.2,0.2,1.6c0.2,0.4,0.4,0.7,0.6,0.9c0.2,0.2,0.5,0.3,0.8,0.3s0.6,0.1,0.9,0.1
		c0.4,0,0.7,0,1,0c0.3,0,0.5,0,0.6-0.1v0.7c-0.2,0-0.4,0-0.6,0.1c-0.2,0-0.6,0-1.1,0c-0.8,0-1.6-0.2-2.1-0.7
		c-0.6-0.5-0.9-1.4-0.9-2.7V9h-3.4V8.3h3.4V2.5h0.7v5.8h4.2V9h-4.2V23.2z"/>
	<path fill="#FF6600" d="M244.6,13.9c0.4-1.2,0.9-2.2,1.6-3.1c0.7-0.9,1.6-1.6,2.6-2.1s2.2-0.8,3.6-0.8c1.3,0,2.5,0.3,3.6,0.8
		s1.9,1.3,2.6,2.1c0.7,0.9,1.2,1.9,1.6,3.1c0.4,1.2,0.5,2.4,0.5,3.7c0,1.3-0.2,2.5-0.5,3.7c-0.4,1.2-0.9,2.2-1.6,3.1
		c-0.7,0.9-1.6,1.6-2.6,2.1c-1,0.5-2.2,0.8-3.6,0.8c-1.3,0-2.5-0.3-3.6-0.8c-1-0.5-1.9-1.2-2.6-2.1c-0.7-0.9-1.2-1.9-1.6-3.1
		c-0.4-1.2-0.5-2.4-0.5-3.7C244.1,16.3,244.3,15.1,244.6,13.9z M245.3,20.9c0.3,1.1,0.8,2,1.5,2.9c0.6,0.8,1.4,1.5,2.4,2
		c0.9,0.5,2,0.7,3.3,0.7c1.2,0,2.3-0.2,3.3-0.7c0.9-0.5,1.7-1.2,2.4-2c0.6-0.8,1.1-1.8,1.5-2.9c0.3-1.1,0.5-2.2,0.5-3.4
		c0-1.2-0.2-2.3-0.5-3.3c-0.3-1.1-0.8-2-1.5-2.9c-0.6-0.8-1.4-1.5-2.4-2c-0.9-0.5-2-0.8-3.3-0.8c-1.2,0-2.3,0.3-3.3,0.8
		c-0.9,0.5-1.7,1.2-2.4,2c-0.6,0.8-1.1,1.8-1.5,2.9s-0.5,2.2-0.5,3.3C244.8,18.7,245,19.9,245.3,20.9z"/>
	<path fill="#FF6600" d="M288.9,1.1v25.7h-0.7v-5.2h-0.1c-0.5,1.7-1.4,3-2.6,4c-1.3,1-2.9,1.5-4.8,1.5c-1.2,0-2.3-0.2-3.3-0.7
		c-1-0.5-1.8-1.1-2.5-2c-0.7-0.9-1.2-1.9-1.6-3c-0.4-1.2-0.5-2.5-0.5-3.9c0-1.3,0.2-2.5,0.5-3.7c0.3-1.2,0.9-2.2,1.5-3.1
		s1.5-1.6,2.5-2.1c1-0.5,2.1-0.8,3.4-0.8c2,0,3.6,0.5,4.9,1.5c1.3,1,2.1,2.4,2.6,4.1h0.1V1.1H288.9z M286.1,10.9
		c-1.4-1.5-3.2-2.3-5.4-2.3c-1.2,0-2.3,0.3-3.2,0.8c-0.9,0.5-1.7,1.2-2.2,2.1c-0.6,0.9-1,1.8-1.3,2.9c-0.3,1.1-0.4,2.1-0.4,3.2
		c0,1.2,0.2,2.3,0.5,3.4s0.7,2,1.3,2.9s1.3,1.5,2.2,2c0.9,0.5,1.9,0.7,3.1,0.7s2.3-0.2,3.2-0.7c0.9-0.5,1.7-1.1,2.3-1.9
		c0.6-0.8,1.1-1.8,1.5-2.8s0.5-2.2,0.5-3.4C288.1,14.7,287.5,12.5,286.1,10.9z"/>
	<path fill="#FF6600" d="M292.6,13.9c0.4-1.2,0.9-2.2,1.6-3.1c0.7-0.9,1.6-1.6,2.6-2.1s2.2-0.8,3.6-0.8c1.3,0,2.5,0.3,3.6,0.8
		s1.9,1.3,2.6,2.1c0.7,0.9,1.2,1.9,1.6,3.1c0.4,1.2,0.5,2.4,0.5,3.7c0,1.3-0.2,2.5-0.5,3.7c-0.4,1.2-0.9,2.2-1.6,3.1
		c-0.7,0.9-1.6,1.6-2.6,2.1c-1,0.5-2.2,0.8-3.6,0.8c-1.3,0-2.5-0.3-3.6-0.8c-1-0.5-1.9-1.2-2.6-2.1c-0.7-0.9-1.2-1.9-1.6-3.1
		c-0.4-1.2-0.5-2.4-0.5-3.7C292.1,16.3,292.3,15.1,292.6,13.9z M293.3,20.9c0.3,1.1,0.8,2,1.5,2.9c0.6,0.8,1.4,1.5,2.4,2
		c0.9,0.5,2,0.7,3.3,0.7c1.2,0,2.3-0.2,3.3-0.7c0.9-0.5,1.7-1.2,2.4-2c0.6-0.8,1.1-1.8,1.5-2.9c0.3-1.1,0.5-2.2,0.5-3.4
		c0-1.2-0.2-2.3-0.5-3.3c-0.3-1.1-0.8-2-1.5-2.9c-0.6-0.8-1.4-1.5-2.4-2c-0.9-0.5-2-0.8-3.3-0.8c-1.2,0-2.3,0.3-3.3,0.8
		c-0.9,0.5-1.7,1.2-2.4,2c-0.6,0.8-1.1,1.8-1.5,2.9s-0.5,2.2-0.5,3.3C292.8,18.7,293,19.9,293.3,20.9z"/>
	<path fill="#FF6600" d="M322.6,13.5c0.4-1.7,1.3-3,2.6-4.1c1.3-1,2.9-1.5,4.9-1.5c1.3,0,2.4,0.3,3.4,0.8c1,0.5,1.8,1.2,2.5,2.1
		s1.2,1.9,1.5,3.1s0.5,2.4,0.5,3.7c0,1.4-0.2,2.7-0.5,3.9c-0.4,1.2-0.9,2.2-1.6,3c-0.7,0.9-1.5,1.5-2.5,2c-1,0.5-2.1,0.7-3.3,0.7
		c-1.9,0-3.5-0.5-4.8-1.5c-1.3-1-2.2-2.4-2.6-4h-0.1v5.2h-0.7V1.1h0.7L322.6,13.5L322.6,13.5z M323,21c0.3,1.1,0.8,2,1.5,2.8
		c0.6,0.8,1.4,1.5,2.4,1.9c0.9,0.5,2,0.7,3.2,0.7c1.2,0,2.2-0.2,3.1-0.7c0.9-0.5,1.6-1.1,2.2-2c0.6-0.8,1-1.8,1.3-2.9
		c0.3-1.1,0.4-2.2,0.4-3.4c0-1.1-0.1-2.2-0.4-3.2c-0.3-1.1-0.7-2-1.3-2.9c-0.6-0.9-1.3-1.5-2.2-2.1c-0.9-0.5-2-0.8-3.3-0.8
		c-2.3,0-4.1,0.8-5.4,2.3c-1.4,1.5-2.1,3.8-2.1,6.7C322.5,18.8,322.7,19.9,323,21z"/>
	<path fill="#FF6600" d="M354.4,26.8v-4.6h-0.1c-0.3,1.4-1.1,2.6-2.2,3.6c-1.1,0.9-2.6,1.4-4.4,1.4c-1,0-1.8-0.1-2.6-0.4
		c-0.8-0.3-1.5-0.7-2.1-1.3c-0.6-0.6-1-1.3-1.4-2.1s-0.5-1.8-0.5-2.9V8.3h0.7v12.2c0,1.1,0.2,2,0.5,2.8c0.3,0.8,0.7,1.4,1.3,1.9
		c0.5,0.5,1.2,0.9,1.9,1.1c0.7,0.2,1.5,0.3,2.2,0.3c1.1,0,2.1-0.2,2.9-0.6c0.8-0.4,1.5-1,2.1-1.7c0.6-0.7,1-1.5,1.3-2.5
		c0.3-0.9,0.4-1.9,0.4-3V8.3h0.7v18.5H354.4z"/>
	<path fill="#FF6600" d="M370.7,11.4c-0.3-0.6-0.7-1.2-1.2-1.6s-1.2-0.7-1.9-0.9c-0.7-0.2-1.5-0.3-2.4-0.3c-1.3,0-2.3,0.2-3.1,0.5
		c-0.7,0.3-1.3,0.7-1.7,1.2c-0.4,0.4-0.6,0.9-0.7,1.3c-0.1,0.4-0.1,0.7-0.1,0.9c0,0.9,0.2,1.6,0.6,2.1s0.9,0.9,1.5,1.1
		c0.6,0.3,1.3,0.5,2.1,0.7c0.8,0.2,1.6,0.4,2.6,0.7c0.7,0.2,1.4,0.4,2.1,0.6s1.3,0.5,1.9,0.8c0.6,0.4,1,0.8,1.4,1.4
		c0.3,0.6,0.5,1.3,0.5,2.2c0,0.9-0.2,1.7-0.6,2.4c-0.4,0.6-0.9,1.2-1.5,1.6c-0.6,0.4-1.4,0.7-2.2,0.9c-0.8,0.2-1.6,0.3-2.4,0.3
		c-2.5,0-4.3-0.5-5.6-1.6c-1.3-1.1-1.9-2.8-1.9-5.1h0.7c0,2.1,0.6,3.6,1.7,4.6c1.2,1,2.8,1.5,5,1.5c0.7,0,1.4-0.1,2.1-0.2
		s1.4-0.4,1.9-0.8c0.6-0.3,1-0.8,1.4-1.4c0.4-0.6,0.6-1.2,0.6-2c0-0.8-0.2-1.5-0.6-2c-0.4-0.5-0.9-0.9-1.4-1.2s-1.3-0.6-2-0.8
		s-1.5-0.4-2.3-0.6c-0.9-0.2-1.7-0.4-2.3-0.6c-0.7-0.2-1.3-0.4-1.8-0.6c-0.8-0.3-1.3-0.8-1.7-1.4c-0.4-0.6-0.5-1.4-0.5-2.4
		c0-0.5,0.1-1,0.3-1.6c0.2-0.6,0.6-1.1,1.1-1.5s1.2-0.8,1.9-1.1s1.8-0.4,2.9-0.4c2.1,0,3.7,0.5,4.9,1.4c1.2,0.9,1.8,2.4,1.8,4.5
		h-0.7C371.2,12.8,371,12,370.7,11.4z"/>
	<path fill="#FF6600" d="M375.8,4.7V1.1h0.7v3.6H375.8z M375.8,26.8V8.3h0.7v18.5H375.8z"/>
	<path fill="#FF6600" d="M381.2,8.3v4.6h0.1c0.2-0.7,0.4-1.4,0.8-2c0.4-0.6,0.8-1.1,1.4-1.6c0.6-0.5,1.2-0.8,2-1.1
		c0.7-0.3,1.6-0.4,2.5-0.4c1,0,1.8,0.1,2.6,0.4c0.8,0.3,1.5,0.7,2.1,1.3c0.6,0.6,1,1.3,1.4,2.1s0.5,1.8,0.5,2.9v12.3h-0.7V14.6
		c0-1.1-0.2-2-0.5-2.8c-0.3-0.8-0.7-1.4-1.3-1.9c-0.5-0.5-1.2-0.9-1.9-1.1c-0.7-0.2-1.5-0.3-2.2-0.3c-1.1,0-2.1,0.2-2.9,0.6
		s-1.5,1-2.1,1.7c-0.6,0.7-1,1.5-1.3,2.5c-0.3,0.9-0.4,1.9-0.4,3v10.5h-0.7V8.3H381.2z"/>
	<path fill="#FF6600" d="M398.5,21.2c0.3,1.1,0.7,2,1.3,2.8c0.6,0.8,1.3,1.4,2.2,1.9c0.9,0.5,2,0.7,3.3,0.7c1.9,0,3.6-0.5,4.8-1.5
		c1.3-1,2.1-2.5,2.4-4.6h0.7c-0.3,2.2-1.1,3.8-2.6,5c-1.4,1.2-3.2,1.8-5.3,1.8c-1.4,0-2.7-0.2-3.7-0.7c-1-0.5-1.9-1.2-2.5-2
		c-0.6-0.9-1.1-1.9-1.4-3.1c-0.3-1.2-0.5-2.5-0.5-3.8c0-1.5,0.2-2.9,0.7-4.1c0.5-1.2,1.1-2.2,1.8-3c0.7-0.8,1.6-1.5,2.6-1.9
		s2-0.6,3-0.6c1.4,0,2.7,0.3,3.7,0.8c1,0.6,1.9,1.3,2.6,2.2c0.7,0.9,1.1,2,1.4,3.1c0.3,1.2,0.4,2.4,0.4,3.7h-15.5
		C398.1,18.9,398.3,20.1,398.5,21.2z M412.4,13.8c-0.3-1-0.8-1.9-1.4-2.7c-0.6-0.8-1.4-1.4-2.3-1.8c-0.9-0.4-2-0.7-3.2-0.7
		c-1,0-2,0.2-2.8,0.6c-0.9,0.4-1.6,0.9-2.3,1.7c-0.7,0.7-1.2,1.6-1.6,2.6c-0.4,1-0.6,2.2-0.7,3.5h14.8
		C412.8,15.9,412.7,14.8,412.4,13.8z"/>
	<path fill="#FF6600" d="M428.1,11.4c-0.3-0.6-0.7-1.2-1.2-1.6s-1.2-0.7-1.9-0.9c-0.7-0.2-1.5-0.3-2.4-0.3c-1.3,0-2.3,0.2-3.1,0.5
		c-0.7,0.3-1.3,0.7-1.7,1.2c-0.4,0.4-0.6,0.9-0.7,1.3c-0.1,0.4-0.1,0.7-0.1,0.9c0,0.9,0.2,1.6,0.6,2.1s0.9,0.9,1.5,1.1
		c0.6,0.3,1.3,0.5,2.1,0.7c0.8,0.2,1.6,0.4,2.6,0.7c0.7,0.2,1.4,0.4,2.1,0.6s1.3,0.5,1.9,0.8c0.6,0.4,1,0.8,1.4,1.4
		c0.3,0.6,0.5,1.3,0.5,2.2c0,0.9-0.2,1.7-0.6,2.4c-0.4,0.6-0.9,1.2-1.5,1.6c-0.6,0.4-1.4,0.7-2.2,0.9c-0.8,0.2-1.6,0.3-2.4,0.3
		c-2.5,0-4.3-0.5-5.6-1.6c-1.3-1.1-1.9-2.8-1.9-5.1h0.7c0,2.1,0.6,3.6,1.7,4.6c1.2,1,2.8,1.5,5,1.5c0.7,0,1.4-0.1,2.1-0.2
		s1.4-0.4,1.9-0.8c0.6-0.3,1-0.8,1.4-1.4c0.4-0.6,0.6-1.2,0.6-2c0-0.8-0.2-1.5-0.6-2c-0.4-0.5-0.9-0.9-1.4-1.2s-1.3-0.6-2-0.8
		s-1.5-0.4-2.3-0.6c-0.9-0.2-1.7-0.4-2.3-0.6c-0.7-0.2-1.3-0.4-1.8-0.6c-0.8-0.3-1.3-0.8-1.7-1.4c-0.4-0.6-0.5-1.4-0.5-2.4
		c0-0.5,0.1-1,0.3-1.6c0.2-0.6,0.6-1.1,1.1-1.5s1.2-0.8,1.9-1.1s1.8-0.4,2.9-0.4c2.1,0,3.7,0.5,4.9,1.4c1.2,0.9,1.8,2.4,1.8,4.5
		h-0.7C428.5,12.8,428.4,12,428.1,11.4z"/>
	<path fill="#FF6600" d="M444.7,11.4c-0.3-0.6-0.7-1.2-1.2-1.6s-1.2-0.7-1.9-0.9c-0.7-0.2-1.5-0.3-2.4-0.3c-1.3,0-2.3,0.2-3.1,0.5
		c-0.7,0.3-1.3,0.7-1.7,1.2c-0.4,0.4-0.6,0.9-0.7,1.3c-0.1,0.4-0.1,0.7-0.1,0.9c0,0.9,0.2,1.6,0.6,2.1s0.9,0.9,1.5,1.1
		c0.6,0.3,1.3,0.5,2.1,0.7c0.8,0.2,1.6,0.4,2.6,0.7c0.7,0.2,1.4,0.4,2.1,0.6s1.3,0.5,1.9,0.8c0.6,0.4,1,0.8,1.4,1.4
		c0.3,0.6,0.5,1.3,0.5,2.2c0,0.9-0.2,1.7-0.6,2.4c-0.4,0.6-0.9,1.2-1.5,1.6c-0.6,0.4-1.4,0.7-2.2,0.9c-0.8,0.2-1.6,0.3-2.4,0.3
		c-2.5,0-4.3-0.5-5.6-1.6c-1.3-1.1-1.9-2.8-1.9-5.1h0.7c0,2.1,0.6,3.6,1.7,4.6c1.2,1,2.8,1.5,5,1.5c0.7,0,1.4-0.1,2.1-0.2
		s1.4-0.4,1.9-0.8c0.6-0.3,1-0.8,1.4-1.4c0.4-0.6,0.6-1.2,0.6-2c0-0.8-0.2-1.5-0.6-2c-0.4-0.5-0.9-0.9-1.4-1.2s-1.3-0.6-2-0.8
		s-1.5-0.4-2.3-0.6c-0.9-0.2-1.7-0.4-2.3-0.6c-0.7-0.2-1.3-0.4-1.8-0.6c-0.8-0.3-1.3-0.8-1.7-1.4c-0.4-0.6-0.5-1.4-0.5-2.4
		c0-0.5,0.1-1,0.3-1.6c0.2-0.6,0.6-1.1,1.1-1.5s1.2-0.8,1.9-1.1s1.8-0.4,2.9-0.4c2.1,0,3.7,0.5,4.9,1.4c1.2,0.9,1.8,2.4,1.8,4.5
		h-0.7C445.2,12.8,445,12,444.7,11.4z"/>
	<path fill="#FF6600" d="M460.3,11.6c0.3-0.8,0.8-1.4,1.3-2c0.6-0.6,1.3-1,2.2-1.3c0.9-0.3,1.9-0.5,3-0.5c0.8,0,1.6,0.1,2.3,0.3
		c0.7,0.2,1.4,0.5,1.9,0.9c0.6,0.4,1,1,1.3,1.6c0.3,0.7,0.5,1.5,0.5,2.5v11.8c0,0.4,0.1,0.6,0.2,0.8c0.1,0.2,0.3,0.3,0.6,0.3
		c0.2,0.1,0.5,0.1,0.8,0.1c0.3,0,0.5,0,0.8-0.1v0.7h-1.1c-0.5,0-1-0.1-1.4-0.4c-0.4-0.3-0.6-0.7-0.6-1.4v-2.4h-0.1
		c-0.2,0.6-0.5,1.2-0.9,1.7c-0.4,0.6-0.9,1-1.6,1.5c-0.6,0.4-1.4,0.8-2.2,1c-0.8,0.3-1.7,0.4-2.7,0.4c-1.9,0-3.4-0.4-4.5-1.2
		c-1.1-0.8-1.7-2.1-1.7-3.7c0-1.2,0.2-2.1,0.6-2.8s0.9-1.2,1.5-1.6c0.6-0.4,1.3-0.7,2.1-0.8c0.8-0.2,1.5-0.3,2.3-0.3
		c1.3-0.1,2.4-0.1,3.3-0.2c0.9-0.1,1.7-0.2,2.2-0.4c0.6-0.2,1-0.5,1.3-0.8c0.3-0.4,0.4-0.9,0.4-1.6c0-0.6,0-1.1-0.1-1.7
		c-0.1-0.6-0.3-1.2-0.7-1.7s-0.9-0.9-1.6-1.2c-0.7-0.3-1.7-0.5-2.9-0.5c-1.9,0-3.5,0.5-4.5,1.4s-1.7,2.3-1.8,4h-0.7
		C459.8,13.2,460,12.4,460.3,11.6z M472.1,15.9c-0.2,0.3-0.6,0.6-1.1,0.8c-0.5,0.2-1.1,0.3-1.7,0.4c-0.6,0.1-1.4,0.2-2.1,0.2
		c-0.8,0-1.5,0.1-2.2,0.1c-0.7,0-1.4,0.1-2.1,0.3c-0.7,0.1-1.3,0.4-1.8,0.7c-0.5,0.3-0.9,0.8-1.3,1.4c-0.3,0.6-0.5,1.4-0.5,2.4
		c0,0.5,0.1,1.1,0.3,1.6c0.2,0.5,0.5,1,0.9,1.4c0.4,0.4,1,0.7,1.7,1s1.5,0.4,2.5,0.4c1.2,0,2.3-0.2,3.2-0.6c0.9-0.4,1.7-0.9,2.4-1.6
		s1.1-1.4,1.4-2.3s0.5-1.8,0.5-2.7L472.1,15.9L472.1,15.9z"/>
	<path fill="#FF6600" d="M477.8,8.3v4.6h0.1c0.2-0.7,0.4-1.4,0.8-2c0.4-0.6,0.8-1.1,1.4-1.6c0.6-0.5,1.2-0.8,2-1.1
		c0.7-0.3,1.6-0.4,2.5-0.4c1,0,1.8,0.1,2.6,0.4c0.8,0.3,1.5,0.7,2.1,1.3c0.6,0.6,1,1.3,1.4,2.1s0.5,1.8,0.5,2.9v12.3h-0.7V14.6
		c0-1.1-0.2-2-0.5-2.8c-0.3-0.8-0.7-1.4-1.3-1.9c-0.5-0.5-1.2-0.9-1.9-1.1c-0.7-0.2-1.5-0.3-2.2-0.3c-1.1,0-2.1,0.2-2.9,0.6
		s-1.5,1-2.1,1.7c-0.6,0.7-1,1.5-1.3,2.5c-0.3,0.9-0.4,1.9-0.4,3v10.5h-0.7V8.3H477.8z"/>
	<path fill="#FF6600" d="M508.2,8.3l-8.5,22.2c-0.2,0.6-0.5,1.1-0.9,1.5c-0.3,0.3-0.7,0.6-1.1,0.8c-0.4,0.2-0.9,0.3-1.4,0.3
		c-0.5,0-1,0.1-1.6,0.1v-0.7c0.6,0,1.2,0,1.6-0.1s0.8-0.1,1.2-0.3c0.3-0.2,0.6-0.4,0.9-0.7s0.5-0.8,0.7-1.3l1.3-3.4l-7.7-18.3h0.8
		l7.3,17.5l6.6-17.5H508.2z"/>
	<path fill="#FF6600" d="M532.7,8.3l-5.9,18.5h-0.9L520.1,9h-0.1l-5.8,17.8h-1l-5.7-18.5h0.7l5.5,17.8h0.1l5.7-17.8h1.1l5.7,17.8
		h0.1L532,8.3H532.7z"/>
	<path fill="#FF6600" d="M535.1,1.1v11.8h0.1c0.2-0.7,0.4-1.4,0.8-2c0.4-0.6,0.8-1.1,1.4-1.6c0.6-0.5,1.2-0.8,2-1.1
		c0.7-0.3,1.6-0.4,2.5-0.4c1,0,1.8,0.1,2.6,0.4c0.8,0.3,1.5,0.7,2.1,1.3c0.6,0.6,1,1.3,1.4,2.1s0.5,1.8,0.5,2.9v12.3h-0.7V14.6
		c0-1.1-0.2-2-0.5-2.8c-0.3-0.8-0.7-1.4-1.3-1.9c-0.5-0.5-1.2-0.9-1.9-1.1c-0.7-0.2-1.5-0.3-2.2-0.3c-1.1,0-2.1,0.2-2.9,0.6
		s-1.5,1-2.1,1.7c-0.6,0.7-1,1.5-1.3,2.5c-0.3,0.9-0.4,1.9-0.4,3v10.5h-0.7V1.1H535.1z"/>
	<path fill="#FF6600" d="M552.5,21.2c0.3,1.1,0.7,2,1.3,2.8c0.6,0.8,1.3,1.4,2.2,1.9c0.9,0.5,2,0.7,3.3,0.7c1.9,0,3.6-0.5,4.8-1.5
		c1.3-1,2.1-2.5,2.4-4.6h0.7c-0.3,2.2-1.1,3.8-2.6,5c-1.4,1.2-3.2,1.8-5.3,1.8c-1.4,0-2.7-0.2-3.7-0.7c-1-0.5-1.9-1.2-2.5-2
		c-0.6-0.9-1.1-1.9-1.4-3.1c-0.3-1.2-0.5-2.5-0.5-3.8c0-1.5,0.2-2.9,0.7-4.1c0.5-1.2,1.1-2.2,1.8-3c0.7-0.8,1.6-1.5,2.6-1.9
		s2-0.6,3-0.6c1.4,0,2.7,0.3,3.7,0.8c1,0.6,1.9,1.3,2.6,2.2c0.7,0.9,1.1,2,1.4,3.1c0.3,1.2,0.4,2.4,0.4,3.7h-15.5
		C552.1,18.9,552.2,20.1,552.5,21.2z M566.4,13.8c-0.3-1-0.8-1.9-1.4-2.7c-0.6-0.8-1.4-1.4-2.3-1.8c-0.9-0.4-2-0.7-3.2-0.7
		c-1,0-2,0.2-2.8,0.6c-0.9,0.4-1.6,0.9-2.3,1.7c-0.7,0.7-1.2,1.6-1.6,2.6c-0.4,1-0.6,2.2-0.7,3.5h14.8
		C566.8,15.9,566.7,14.8,566.4,13.8z"/>
	<path fill="#FF6600" d="M570.4,26.8V8.3h0.7v4.6h0.1c0.2-0.7,0.4-1.4,0.8-2c0.4-0.6,0.8-1.1,1.4-1.6c0.6-0.5,1.3-0.8,2.1-1.1
		c0.8-0.3,1.8-0.4,2.9-0.4v0.7c-1.3-0.1-2.4,0.1-3.3,0.5c-0.9,0.4-1.7,1-2.3,1.7s-1,1.6-1.3,2.5s-0.4,1.9-0.4,3v10.5H570.4z"/>
	<path fill="#FF6600" d="M579.8,21.2c0.3,1.1,0.7,2,1.3,2.8c0.6,0.8,1.3,1.4,2.2,1.9c0.9,0.5,2,0.7,3.3,0.7c1.9,0,3.6-0.5,4.8-1.5
		c1.3-1,2.1-2.5,2.4-4.6h0.7c-0.3,2.2-1.1,3.8-2.6,5c-1.4,1.2-3.2,1.8-5.3,1.8c-1.4,0-2.7-0.2-3.7-0.7c-1-0.5-1.9-1.2-2.5-2
		c-0.6-0.9-1.1-1.9-1.4-3.1c-0.3-1.2-0.5-2.5-0.5-3.8c0-1.5,0.2-2.9,0.7-4.1c0.5-1.2,1.1-2.2,1.8-3c0.7-0.8,1.6-1.5,2.6-1.9
		s2-0.6,3-0.6c1.4,0,2.7,0.3,3.7,0.8c1,0.6,1.9,1.3,2.6,2.2c0.7,0.9,1.1,2,1.4,3.1c0.3,1.2,0.4,2.4,0.4,3.7h-15.5
		C579.4,18.9,579.6,20.1,579.8,21.2z M593.7,13.8c-0.3-1-0.8-1.9-1.4-2.7c-0.6-0.8-1.4-1.4-2.3-1.8c-0.9-0.4-2-0.7-3.2-0.7
		c-1,0-2,0.2-2.8,0.6c-0.9,0.4-1.6,0.9-2.3,1.7c-0.7,0.7-1.2,1.6-1.6,2.6c-0.4,1-0.6,2.2-0.7,3.5h14.8
		C594.1,15.9,594,14.8,593.7,13.8z"/>
</g>
</svg>
