<?xml version="1.0" encoding="utf-8"?>
<!-- Generator: Adobe Illustrator 17.0.0, SVG Export Plug-In . SVG Version: 6.00 Build 0)  -->
<!DOCTYPE svg PUBLIC "-//W3C//DTD SVG 1.1//EN" "http://www.w3.org/Graphics/SVG/1.1/DTD/svg11.dtd">
<svg version="1.1" id="图层_1" xmlns="http://www.w3.org/2000/svg" xmlns:xlink="http://www.w3.org/1999/xlink" x="0px" y="0px"
	 width="496.97px" height="365.152px" viewBox="0 0 496.97 365.152" enable-background="new 0 0 496.97 365.152"
	 xml:space="preserve">
<g>
	<path fill="#FED7B2" d="M450.031,177.387c15.952,59.357,10.787,123.923-63.886,149.084
		c-83.562,28.156-136.487-82.736-217.855-93.769c-63.003-8.543-118.859-0.676-145.555-42.322
		C-0.189,154.618,1.743,88.978,61.695,49.699c47.076-30.843,87.849-42.896,172.034-37.359
		C332.785,18.857,425.313,85.412,450.031,177.387z"/>
	<path fill="#FD4B00" d="M212.152,237.161c65.413,32.927,46.223,77.288,67.769,97.039c41.032,37.616,98.326,16.784,118.476-35.532
		c25.883-67.201-25.629-159.84-95.133-192.181c-69.503-32.341-153.579-29.442-173.449,28.249
		C111.312,188.459,160.382,211.102,212.152,237.161z"/>
	<g>
		<path fill="#FF9B48" d="M279.92,334.2c-21.545-19.751-2.356-64.112-67.769-97.039c-51.769-26.059-100.84-48.703-82.337-102.425
			c6.862-19.925,21.386-33.31,40.32-40.969c-28.013-8.627-55.861-17.736-88.484-8.042C-7.507,112.221,37.456,231.58,94.641,282.281
			c48.987,43.433,128.456,87.021,208.401,66.58C295.021,345.717,287.213,340.887,279.92,334.2z"/>
		<path fill="#FDBC52" d="M478.996,90.211c-27.33-44.604-95.667-79.24-178.584-14.473c-10.332,8.071-20.14,14.105-29.533,18.532
			c10.947,3.217,21.834,7.309,32.384,12.218c67.417,31.37,117.902,119.471,97.252,186.061
			C472.075,228.392,507.399,136.559,478.996,90.211z"/>
	</g>
	<g>
		<path fill="#FF9B48" d="M273.43,95.031c-38.284-11.739-77.569-12.753-106.03-0.107C200.113,105.013,232.837,115.279,273.43,95.031
			z"/>
		<path fill="#FDBC52" d="M336.896,338.173c-10.19,5.107-20.442,9.003-30.693,11.841c36.283,12.15,76.094-9.547,92.193-51.346
			c0.419-1.089,0.816-2.185,1.195-3.287C380.96,311.951,359.905,326.642,336.896,338.173z"/>
	</g>
	<path fill="#FF6600" d="M258.272,280.299c-7.074-14.661-19.689-29.833-46.121-43.138c-51.769-26.059-100.84-48.703-82.337-102.425
		c6.862-19.925,21.386-33.31,40.32-40.969c-28.013-8.627-55.861-17.736-88.484-8.042C23.387,103.04,22.406,160.01,44.676,211.563
		c29.998,17.767,74.646,14.499,123.615,21.138C201.72,237.235,230.348,258.623,258.272,280.299z"/>
	<path fill="#FF6600" d="M450.031,177.387c-14.594-54.301-52.826-99.736-102.08-129.192c-15.132,5.721-31.046,14.659-47.539,27.542
		c-10.332,8.071-20.14,14.105-29.533,18.532c10.947,3.217,21.834,7.309,32.384,12.218c67.417,31.37,117.902,119.471,97.252,186.061
		c22.994-20.615,42.239-44.089,56.839-67.993C456.966,209.015,454.233,193.02,450.031,177.387z"/>
</g>
</svg>
