<?xml version="1.0" encoding="utf-8"?>
<!-- Generator: Adobe Illustrator 17.0.0, SVG Export Plug-In . SVG Version: 6.00 Build 0)  -->
<!DOCTYPE svg PUBLIC "-//W3C//DTD SVG 1.1//EN" "http://www.w3.org/Graphics/SVG/1.1/DTD/svg11.dtd">
<svg version="1.1" id="图层_1" xmlns="http://www.w3.org/2000/svg" xmlns:xlink="http://www.w3.org/1999/xlink" x="0px" y="0px"
	 width="501.515px" height="366.667px" viewBox="0 0 501.515 366.667" enable-background="new 0 0 501.515 366.667"
	 xml:space="preserve">
<g>
	<path fill="none" stroke="#FF6600" stroke-miterlimit="10" d="M339.604,337.613c112.149-56.204,177.989-187.398,142.1-245.962
		c-27.331-44.604-95.667-79.24-178.584-14.473c-90.377,70.594-141.008-13.118-218.762,9.988
		C-4.799,113.661,40.165,233.02,97.35,283.721C153.263,333.296,248.887,383.077,339.604,337.613z"/>
	<path fill="none" stroke="#F7987D" stroke-miterlimit="10" d="M452.74,178.827c15.952,59.357,10.787,123.923-63.886,149.084
		c-83.562,28.156-136.487-82.736-217.855-93.769c-63.003-8.543-118.859-0.676-145.555-42.322
		C2.52,156.058,4.452,90.418,64.403,51.139c47.076-30.843,87.849-42.896,172.034-37.359
		C335.493,20.297,428.021,86.852,452.74,178.827z"/>
	<path fill="none" stroke="#FDBC52" stroke-miterlimit="10" d="M214.86,238.601c65.413,32.927,46.223,77.288,67.769,97.039
		c41.032,37.616,98.326,16.784,118.476-35.532c25.883-67.201-25.629-159.84-95.133-192.181
		c-69.503-32.341-153.579-29.442-173.449,28.249C114.02,189.899,163.091,212.542,214.86,238.601z"/>
</g>
</svg>
