<?xml version="1.0" encoding="utf-8"?>
<!-- Generator: Adobe Illustrator 17.0.0, SVG Export Plug-In . SVG Version: 6.00 Build 0)  -->
<!DOCTYPE svg PUBLIC "-//W3C//DTD SVG 1.1//EN" "http://www.w3.org/Graphics/SVG/1.1/DTD/svg11.dtd">
<svg version="1.1" id="图层_1" xmlns="http://www.w3.org/2000/svg" xmlns:xlink="http://www.w3.org/1999/xlink" x="0px" y="0px"
	 width="263.636px" height="112.121px" viewBox="0 0 263.636 112.121" enable-background="new 0 0 263.636 112.121"
	 xml:space="preserve">
<g>
	<path fill="#FFFFFF" d="M27.32,73.318c-4.564,9.177-8.626,17.306-13.326,26.902h6.386c1.18-2.285,1.828-3.694,3.299-6.402
		c3.333,0,5.855-0.012,9.184-0.012c-0.68-1.996-1.15-3.51-1.716-5.115h-5.078c1.501-3.06,2.336-4.796,4.583-8.972
		c2.373,7.05,4.794,14.094,7.077,20.501h5.832c-3.292-9.403-6.09-17.565-9.163-26.902H27.32z M45.049,100.236h5.525l1.207-26.937
		l-5.476-0.005L45.049,100.236z M53.714,100.236h5.836l0.721-20.066H54.67L53.714,100.236z M54.942,73.299l-0.174,4.316
		c0,0,4.26,0.033,5.504-0.005l0.211-4.311C55.571,73.294,55.51,73.294,54.942,73.299 M90.626,80.255
		c-0.985-0.375-2.032-0.563-3.155-0.563c-0.65,0-1.281,0.064-1.893,0.189c-0.608,0.124-1.16,0.298-1.641,0.521
		c-0.489,0.227-0.934,0.504-1.33,0.828c-0.396,0.33-0.718,0.648-0.95,0.956c-0.24,0.309-0.5,0.698-0.786,1.158
		c-0.252-0.632-0.495-1.107-0.705-1.434c-0.222-0.316-0.485-0.613-0.798-0.873c-0.318-0.262-0.694-0.495-1.137-0.701
		c-0.444-0.202-0.934-0.363-1.476-0.477c-0.54-0.108-1.093-0.166-1.669-0.166c-0.774,0-1.52,0.095-2.243,0.287
		c-0.721,0.19-1.352,0.451-1.894,0.781c-0.538,0.331-0.98,0.687-1.316,1.078c-0.341,0.386-0.716,0.888-1.127,1.506l0.149-3.174
		H63.46l-0.872,20.066c0,0,4.316-0.025,5.49,0c0-1.723,0.072-4.05,0.215-6.973c0.137-2.93,0.366-4.901,0.675-5.912
		c0.317-1.018,0.817-1.82,1.492-2.429c0.683-0.606,1.471-0.905,2.368-0.905c0.487,0,0.914,0.082,1.284,0.253
		c0.374,0.172,0.698,0.439,0.973,0.802c0.276,0.359,0.458,0.739,0.551,1.145c0.091,0.402,0.132,0.89,0.132,1.468
		c0,1.088-0.083,3.201-0.251,6.337c-0.159,3.127-0.288,5.198-0.379,6.214c1.179-0.025,4.426-0.025,5.49,0l0.131-5.49
		c0.068-1.954,0.147-3.541,0.251-4.741c0.101-1.205,0.258-2.142,0.478-2.803c0.218-0.674,0.529-1.256,0.936-1.761
		c0.401-0.503,0.839-0.862,1.307-1.096c0.468-0.216,0.993-0.328,1.567-0.328c0.555,0,1.048,0.101,1.491,0.306
		c0.444,0.201,0.81,0.548,1.099,1.029c0.292,0.487,0.432,1.198,0.432,2.133c0,0.791-0.029,1.761-0.097,2.906l-0.229,4.514
		c-0.106,1.855-0.213,3.63-0.33,5.331c1.145-0.025,4.534-0.025,5.476,0c0.011-1.51,0.079-3.661,0.208-6.424
		c0.129-2.769,0.234-4.767,0.321-5.992c0.091-1.223,0.131-2.147,0.131-2.782c0-1.194-0.28-2.2-0.842-3.007
		C92.393,81.225,91.612,80.629,90.626,80.255 M111.367,80.196c-1.181-0.337-2.478-0.503-3.888-0.503
		c-1.247,0-2.533,0.089-3.868,0.256c-1.333,0.173-4.618,0.891-4.618,0.891l-0.575,3.73c0,0,5.404-1.719,7.739-1.719
		c0.632,0,1.205,0.07,1.725,0.207c0.519,0.139,0.941,0.386,1.27,0.742c0.328,0.355,0.489,0.789,0.489,1.302
		c0,0.263-0.055,0.516-0.161,0.769c-0.112,0.248-0.28,0.485-0.509,0.721c-0.234,0.233-0.503,0.419-0.821,0.56
		c-0.315,0.147-0.738,0.295-1.262,0.445c-0.529,0.15-1.033,0.276-1.522,0.381c-1.837,0.409-3.313,0.816-4.426,1.218
		c-1.12,0.402-1.97,0.813-2.565,1.242c-0.589,0.428-1.069,0.869-1.441,1.332c-0.375,0.461-0.655,0.964-0.849,1.518
		c-0.192,0.553-0.29,1.113-0.29,1.679c0,0.985,0.251,1.965,0.746,2.941c0.493,0.973,1.26,1.684,2.3,2.126
		c1.036,0.451,2.364,0.672,3.982,0.672c0.459,0,0.963-0.015,1.503-0.057c0.538-0.037,1.26-0.139,2.174-0.292
		c0.359-1.493,0.67-2.606,0.941-3.36c-0.769,0.266-1.381,0.43-1.838,0.492c-0.452,0.068-0.885,0.105-1.299,0.105
		c-0.64,0-1.201-0.084-1.673-0.242c-0.473-0.154-0.872-0.435-1.187-0.835c-0.309-0.405-0.467-0.881-0.467-1.436
		c0-0.339,0.062-0.657,0.183-0.958c0.123-0.291,0.315-0.573,0.584-0.848c0.271-0.266,0.603-0.511,0.993-0.723
		c0.394-0.222,0.832-0.414,1.319-0.586c0.489-0.171,1.141-0.374,1.95-0.604c0.804-0.227,1.373-0.398,1.695-0.511
		c0.319-0.109,0.61-0.232,0.863-0.364c0.257-0.134,0.632-0.365,1.119-0.695l-0.664,10.444h5.455c0,0,0.157-6.451,0.359-9.522
		c0.207-3.071,0.308-4.981,0.308-5.732c0-1.381-0.335-2.443-1.002-3.175C113.471,81.067,112.548,80.534,111.367,80.196
		 M145.683,80.255c-0.985-0.375-2.042-0.563-3.155-0.563c-0.65,0-1.287,0.064-1.891,0.189c-0.61,0.124-1.162,0.298-1.644,0.521
		c-0.489,0.227-0.931,0.504-1.333,0.828c-0.392,0.33-0.713,0.648-0.949,0.956c-0.238,0.309-0.496,0.698-0.779,1.158
		c-0.256-0.632-0.498-1.107-0.713-1.434c-0.215-0.316-0.484-0.613-0.8-0.873c-0.308-0.262-0.69-0.495-1.134-0.701
		c-0.443-0.202-0.93-0.363-1.473-0.477c-0.538-0.108-1.092-0.166-1.675-0.166c-0.766,0-1.515,0.095-2.238,0.287
		c-0.721,0.19-1.359,0.451-1.892,0.781c-0.54,0.331-0.981,0.687-1.323,1.078c-0.335,0.386-0.711,0.888-1.12,1.506l0.149-3.174
		h-5.202l-0.863,20.066h5.492c0,0,0.068-4.05,0.207-6.973c0.142-2.93,0.371-4.901,0.679-5.912c0.317-1.018,0.812-1.82,1.493-2.429
		c0.68-0.606,1.47-0.905,2.368-0.905c0.488,0,0.914,0.082,1.285,0.253c0.374,0.172,0.698,0.439,0.973,0.802
		c0.274,0.359,0.458,0.739,0.551,1.145c0.087,0.402,0.132,0.89,0.132,1.468c0,1.088-0.083,3.201-0.249,6.337
		c-0.168,3.127-0.299,5.198-0.383,6.214c1.179-0.025,4.426-0.025,5.49,0l0.134-5.49c0.065-1.954,0.148-3.541,0.247-4.741
		c0.101-1.205,0.26-2.142,0.477-2.803c0.22-0.674,0.531-1.256,0.934-1.761c0.405-0.503,0.844-0.862,1.311-1.096
		c0.469-0.216,0.987-0.328,1.568-0.328c0.552,0,1.046,0.101,1.493,0.306c0.441,0.201,0.811,0.548,1.098,1.029
		c0.288,0.487,0.435,1.198,0.435,2.133c0,0.791-0.033,1.761-0.099,2.906l-0.234,4.514c-0.101,1.855-0.208,3.63-0.328,5.331
		c1.143-0.025,4.536-0.025,5.472,0c0.016-1.51,0.081-3.661,0.208-6.424c0.129-2.769,0.241-4.767,0.326-5.992
		c0.086-1.223,0.133-2.147,0.133-2.782c0-1.194-0.28-2.2-0.846-3.007C147.45,81.225,146.672,80.629,145.683,80.255 M166.425,80.196
		c-1.181-0.337-2.479-0.503-3.889-0.503c-1.246,0-2.532,0.089-3.866,0.256c-1.332,0.173-4.622,0.891-4.622,0.891l-0.575,3.73
		c0,0,5.404-1.719,7.739-1.719c0.634,0,1.209,0.07,1.727,0.207c0.519,0.139,0.941,0.386,1.271,0.742
		c0.327,0.355,0.49,0.789,0.49,1.302c0,0.263-0.056,0.516-0.163,0.769c-0.114,0.248-0.28,0.485-0.511,0.721
		c-0.232,0.233-0.502,0.419-0.816,0.56c-0.319,0.147-0.74,0.295-1.262,0.445c-0.525,0.15-1.035,0.276-1.522,0.381
		c-1.838,0.409-3.312,0.816-4.428,1.218c-1.118,0.402-1.975,0.813-2.565,1.242c-0.589,0.428-1.068,0.869-1.441,1.332
		c-0.37,0.461-0.653,0.964-0.848,1.518c-0.194,0.553-0.289,1.113-0.289,1.679c0,0.985,0.247,1.965,0.743,2.941
		c0.493,0.973,1.264,1.684,2.3,2.126c1.037,0.451,2.364,0.672,3.982,0.672c0.465,0,0.963-0.015,1.501-0.057
		c0.537-0.037,1.264-0.139,2.174-0.292c0.358-1.493,0.672-2.606,0.942-3.36c-0.767,0.266-1.383,0.43-1.835,0.492
		c-0.456,0.068-0.886,0.105-1.298,0.105c-0.641,0-1.203-0.084-1.674-0.242c-0.478-0.154-0.872-0.435-1.188-0.835
		c-0.314-0.405-0.47-0.881-0.47-1.436c0-0.339,0.061-0.657,0.178-0.958c0.126-0.291,0.324-0.573,0.596-0.848
		c0.267-0.266,0.598-0.511,0.991-0.723c0.392-0.222,0.827-0.414,1.318-0.586c0.487-0.171,1.136-0.374,1.947-0.604
		c0.806-0.227,1.37-0.398,1.696-0.511c0.32-0.109,0.604-0.232,0.865-0.364c0.255-0.134,0.63-0.365,1.116-0.695l-0.665,10.444h5.457
		c0,0,0.156-6.451,0.361-9.522c0.201-3.071,0.307-4.981,0.307-5.732c0-1.381-0.339-2.443-1.006-3.175
		C168.528,81.067,167.605,80.534,166.425,80.196 M172.576,94.926c-0.094,2.597-0.163,4.364-0.216,5.31c1.813-0.025,5.393,0,5.393,0
		s0.207-4.347,0.267-5.31C176.595,94.952,172.576,94.926,172.576,94.926 M186.859,85.64c0.555-0.648,1.221-1.125,1.997-1.427
		c0.778-0.304,1.597-0.456,2.468-0.456c1.423,0,3.089,0.335,4.996,1.011l-0.289-4.327c-1.207-0.297-2.249-0.504-3.135-0.601
		c-0.884-0.096-1.747-0.148-2.579-0.148c-1.503,0-2.868,0.177-4.087,0.524c-1.232,0.351-2.342,1.009-3.346,1.97
		c-0.994,0.97-1.76,2.214-2.277,3.743c-0.519,1.525-0.781,3.117-0.781,4.774c0,1.251,0.159,2.467,0.475,3.641
		c0.309,1.177,0.785,2.182,1.416,3.009c0.626,0.831,1.353,1.498,2.184,2.003c0.82,0.511,1.718,0.859,2.681,1.06
		c0.959,0.198,1.964,0.292,3,0.292c1.787,0,3.593-0.216,5.429-0.65c0.14-1.013,0.276-1.861,0.403-2.547
		c0.128-0.68,0.223-1.291,0.29-1.837c-0.923,0.344-1.794,0.591-2.622,0.743c-0.829,0.152-1.531,0.225-2.108,0.225
		c-1.174,0-2.226-0.245-3.147-0.747c-0.921-0.495-1.571-1.212-1.95-2.125c-0.375-0.908-0.562-1.993-0.562-3.241
		c0-0.894,0.115-1.769,0.355-2.63C185.903,87.047,186.3,86.295,186.859,85.64 M216.174,82.389c-0.94-0.89-2.09-1.563-3.442-2.014
		c-1.355-0.452-2.771-0.683-4.245-0.683c-1.589,0-3.13,0.283-4.616,0.849c-1.489,0.57-2.71,1.365-3.666,2.388
		c-0.952,1.027-1.657,2.199-2.102,3.512c-0.454,1.318-0.678,2.698-0.678,4.143c0,1.421,0.249,2.782,0.744,4.084
		c0.493,1.304,1.214,2.409,2.158,3.318c0.954,0.905,2.099,1.584,3.439,2.041c1.336,0.454,2.757,0.68,4.244,0.68
		c1.602,0,3.113-0.253,4.532-0.76c1.415-0.505,2.601-1.265,3.548-2.285c0.951-1.02,1.673-2.229,2.177-3.626
		c0.5-1.39,0.75-2.841,0.75-4.338c0-1.421-0.24-2.77-0.713-4.058C217.827,84.36,217.121,83.278,216.174,82.389 M212.887,93.378
		c-0.427,1.114-1.068,1.951-1.918,2.526c-0.85,0.571-1.837,0.857-2.961,0.857c-1.101,0-2.051-0.276-2.85-0.825
		c-0.8-0.554-1.375-1.277-1.725-2.173c-0.351-0.895-0.524-1.914-0.524-3.06c0-1.302,0.213-2.505,0.639-3.611
		c0.428-1.106,1.08-1.938,1.956-2.493c0.873-0.56,1.871-0.842,2.981-0.842c1.125,0,2.081,0.272,2.864,0.812
		c0.789,0.54,1.348,1.253,1.679,2.149c0.337,0.896,0.5,1.888,0.5,2.979C213.529,91.038,213.317,92.267,212.887,93.378
		 M250.624,82.032c-0.561-0.807-1.34-1.403-2.326-1.777c-0.989-0.375-2.04-0.563-3.155-0.563c-0.657,0-1.288,0.064-1.893,0.189
		c-0.612,0.124-1.16,0.298-1.647,0.521c-0.486,0.227-0.934,0.504-1.329,0.828c-0.398,0.33-0.713,0.648-0.949,0.956
		c-0.239,0.309-0.502,0.698-0.78,1.158c-0.262-0.632-0.496-1.107-0.712-1.434c-0.222-0.316-0.485-0.613-0.798-0.873
		c-0.316-0.262-0.693-0.495-1.137-0.701c-0.445-0.202-0.934-0.363-1.471-0.477c-0.538-0.108-1.098-0.166-1.674-0.166
		c-0.771,0-1.516,0.095-2.237,0.287c-0.729,0.19-1.359,0.451-1.899,0.781c-0.54,0.331-0.98,0.687-1.319,1.078
		c-0.341,0.386-0.712,0.888-1.126,1.506l0.15-3.174c-0.912,0.026-4.108,0.026-5.197,0c0,2.249-0.685,17.829-0.867,20.066
		c1.203-0.025,4.312-0.025,5.494,0c0-1.723,0.066-4.05,0.207-6.973c0.145-2.93,0.368-4.901,0.681-5.912
		c0.316-1.018,0.811-1.82,1.492-2.429c0.68-0.606,1.464-0.905,2.366-0.905c0.489,0,0.916,0.082,1.288,0.253
		c0.37,0.172,0.698,0.439,0.972,0.802c0.275,0.359,0.456,0.739,0.543,1.145c0.093,0.402,0.137,0.89,0.137,1.468
		c0,1.088-0.08,3.201-0.248,6.337c-0.167,3.127-0.295,5.198-0.381,6.214c1.179-0.025,4.424-0.025,5.492,0l0.131-5.49
		c0.061-1.954,0.146-3.541,0.249-4.741c0.096-1.205,0.26-2.142,0.477-2.803c0.215-0.674,0.531-1.256,0.933-1.761
		c0.406-0.503,0.839-0.862,1.305-1.096c0.469-0.216,0.994-0.328,1.575-0.328c0.55,0,1.05,0.101,1.49,0.306
		c0.444,0.201,0.807,0.548,1.094,1.029c0.29,0.487,0.44,1.198,0.44,2.133c0,0.791-0.038,1.761-0.099,2.906l-0.234,4.514
		c-0.101,1.855-0.213,3.63-0.326,5.331c1.143-0.025,4.538-0.025,5.472,0c0.016-1.51,0.079-3.661,0.21-6.424
		c0.126-2.769,0.233-4.767,0.324-5.992c0.084-1.223,0.131-2.147,0.131-2.782C251.474,83.845,251.189,82.839,250.624,82.032"/>
	<path fill="#FFFFFF" d="M37.094,15.871h24.417c0.004,12.16,0.004,24.732,0.004,36.025c0,0.702-0.93,1.789-1.889,1.815
		c-1.289,0-1.84-0.009-3.426,0v5.875c1.879,0.005,3.486,0.005,5.316,0.005c4.708,0,7.838-2.291,7.842-6.191
		c0-9.341,0-27.947-0.004-37.529h2.82v-5.623H37.094V15.871z M161.757,41.94c-2.251,0-5.708,2.135-5.708,5.697
		c7.061,0,18.352-0.159,26.02-0.159c0,1.424,0.005,2.935,0.005,4.689h4.218c1.501,0,3.609-1.274,3.609-3.645
		c0-6.187-0.005-11.024-0.005-17.27c-1.175,0.009-2.412,0.005-3.441,0c0.004-4.725,0.004-14.496,0.004-17.977
		c0-1.432-1.423-3.029-3.224-3.029h-25.567v5.625h19.718c0,5.102-0.011,10.278-0.011,15.38c-4.704-0.009-5.41-0.009-9.487,0.005
		c-0.522,0-1.137-0.582-1.141-1.023c0-2.586,0.003-6.715,0.003-10.107c0-0.798-0.788-1.683-2.038-1.683h-5.817v13.597
		c0,2.633,2.3,4.818,4.818,4.819c0,0,10.021,0,18.358,0.014v5.066H161.757z M57.785,43.624c0.009-6.427,0-15.536,0-24.337h-20.34
		v30.95c5.95,0.021,13.469,0,13.469,0C56.056,50.237,57.779,47.34,57.785,43.624 M49.143,44.592c-1.465,0.009-3.06,0-5.142,0.009
		V25.243c2.194,0,4.721,0.005,6.911,0.005c0.002,5.865,0,12.377,0.002,17.499C50.914,43.804,50.267,44.592,49.143,44.592
		 M14.23,11.657c0.002,11.112,0.012,25.624,0,47.934h7.515c-0.004-13.974-0.004-29.259,0-43.731c1.772,0,3.862-0.004,5.638-0.004
		c0.009,8.386,0.007,15.911,0,23.741c-0.006,3.223-2.839,4.362-2.839,4.393v6.226c5.292-0.014,10.039-5.448,10.039-10.423
		c0-8.982,0-20.488,0.002-29.546c-6.786,0-11.98-0.002-18.764-0.002C14.176,10.238,14.23,11.657,14.23,11.657 M248.435,31.242
		c0.002-4.732,0.002-14.503,0.002-17.985c0-1.43-1.426-3.025-3.225-3.025h-25.565v5.624c6.534,0,13.126,0.014,19.706,0.014v15.371
		c-4.699,0.005-5.434,0-9.486,0.002c-0.524,0-1.137-0.582-1.141-1.024c0-2.59,0.004-6.715,0.004-10.105
		c0-0.804-0.78-1.668-2.032-1.668c-1.613,0-3.941-0.004-5.824-0.004v13.582c0,2.636,2.301,4.82,4.818,4.824
		c0,0,10.018,0,18.356,0.011v5.064h-20.065c-2.249,0-5.836,1.976-5.836,5.537c7.061,0,18.223,0.005,25.89,0.005v5.23
		c0,0.879-0.695,1.282-1.714,1.282h-2.97c-0.004,2.545,0,3.95,0,5.612h4.561c1.385,0,1.085,0.022,2.481,0.022
		c3.814,0,5.479-2.716,5.443-4.915c0-7.078,0.037-16.378,0.037-23.456C250.699,31.247,249.459,31.244,248.435,31.242
		 M212.145,50.223c2.728-3.017,4.228-6.55,4.573-13.349c0.009-7.37,0.009-14.499,0.02-21.787c0-0.604-0.79-1.426-1.542-1.407
		c-2.841,0-6.507-0.003-9.629-0.008V10.26h-7.506c0,1.146-0.011,2.267-0.011,3.411c-0.783,0.008-1.756,0.012-2.514,0.008v5.62h2.518
		V36.87c0.007,6.801,2.227,10.216,5.007,13.353c-3.326,2.272-6.695,3.75-11.271,3.75c-0.631-0.005-1.274-0.005-1.93-0.005
		c-7.041,0-15.589,0.027-23.121,0.027c-7.057,0-13.86-1.289-16.417-4.398c2.419-3.271,3.712-5.933,4.445-12.751
		c0.032-6.803,0.029-12.598,0.014-21.319c-0.106-0.954-0.954-1.796-1.796-1.847c-2.961,0-5.95,0.004-9.603,0V10.26h-7.334v3.419
		c-0.835,0.011-1.438,0-2.505,0v5.625c1.115,0.002,1.707,0,2.505,0c-0.007,5.801,0.028,12.216,0.028,17.541
		c0.573,6.818,2.73,9.041,5.368,13.03c-3.813,2.656-8.458,3.839-13.86,4.119c-6.457-0.016-12.251-0.005-20.363,0
		c-0.011-1.39-0.005-3.391-0.005-4.398h20.372v-5.933h-20.355c0.003-1.411,0.003-2.94,0.003-4.377
		c5.867,0,13.575,0.004,15.338,0.004c0,0,4.955,0,5.019-5.459c0.066-5.721-0.004-15.967-0.005-23.594
		c-16.096,0-32.455-0.005-48.58-0.005c-0.784,0-1.546,0.837-1.546,1.448c0,1.171,0.005,19.175,0,27.602
		c6.785,0,13.586,0.003,20.374,0.003v4.377H77.461c0,1.821,0,3.984,0.017,5.933h20.324c0,1.457,0.003,2.939,0.003,4.398H74.013
		c-0.005,1.634-0.003,3.793-0.003,5.584c17.88,0,39.986,0.071,57.335,0.016c4.678-0.016,10.503-2.432,14.664-4.872
		c5.265,4.074,11.075,4.887,20.707,4.869c2.935-0.005,6.165,0.004,9.727,0.004c5.029-0.004,9.48-0.004,13.419-0.004
		c8.082,0,13.198-1.718,18.171-4.648c4.561,2.738,8.929,4.432,16.019,4.648v-0.012h10.795v-5.6h-10.795
		C219.233,53.535,215.278,52.792,212.145,50.223 M97.756,33.683H85.245v-5.937h12.511V33.683z M97.789,21.802H85.28v-5.933h12.509
		V21.802z M107.2,15.869h12.529v5.933H107.2V15.869z M107.2,27.737c4.175,0,8.335-0.003,12.511-0.003c-0.008,2.378,0,4.244,0,5.937
		h-12.524C107.187,32.102,107.187,29.633,107.2,27.737 M147.684,36.877c-0.271,3.915-0.888,4.856-1.833,7.416
		c-1.196-2.403-2.17-3.518-2.47-7.435c0.012-5.098,0-12.186,0-17.554h4.304V36.877z M209.725,36.877
		c-0.147,3.633-0.994,5.394-1.992,7.416c-1.194-1.931-2.186-3.99-2.196-7.416c-0.013-5.439-0.011-11.978,0-17.573h4.188
		C209.722,24.929,209.722,31.396,209.725,36.877"/>
</g>
</svg>
