<?xml version="1.0" encoding="utf-8"?>
<!-- Generator: Adobe Illustrator 17.0.0, SVG Export Plug-In . SVG Version: 6.00 Build 0)  -->
<!DOCTYPE svg PUBLIC "-//W3C//DTD SVG 1.1//EN" "http://www.w3.org/Graphics/SVG/1.1/DTD/svg11.dtd">
<svg version="1.1" id="图层_1" xmlns="http://www.w3.org/2000/svg" xmlns:xlink="http://www.w3.org/1999/xlink" x="0px" y="0px"
	 width="493.939px" height="349.651px" viewBox="0 0 493.939 349.651" enable-background="new 0 0 493.939 349.651"
	 xml:space="preserve">
<g>
	<g>
		<g id="矩形_10_2_">
			<g>
				<path fill="none" stroke="#FF6600" stroke-miterlimit="10" d="M402.858,281.177c-1.731-0.442-3.538-0.697-5.398-0.741
					c-12.811-0.305-23.267,9.498-23.355,21.896c-0.074,10.597,7.452,19.66,17.639,22.259c1.732,0.442,3.538,0.697,5.399,0.741
					c12.811,0.305,23.267-9.498,23.355-21.896C420.573,292.84,413.045,283.777,402.858,281.177z M430.401,326.553
					c-0.178-0.045-0.356-0.086-0.538-0.122c-5.495-1.09-10.842,2.508-11.943,8.038c-1.065,5.347,2.231,10.543,7.418,11.866
					c0.177,0.045,0.356,0.086,0.537,0.122c5.495,1.091,10.842-2.508,11.943-8.038C438.883,333.071,435.588,327.876,430.401,326.553z
					"/>
			</g>
		</g>
		<g id="矩形_8_2_">
			<g>
				<path fill="none" stroke="#F7987D" stroke-miterlimit="10" d="M458.76,71.446c0,0-19.126-20.796-52.19-26.126
					c-19.337-3.118-43.44-0.946-71.278,13.768c-17.531,9.266-43.277,8.729-67.788,4.778c-36.41-5.869-70.097-19.272-70.097-19.272
					s-24.663-10.213-54.386-15.004c-20.799-3.353-44.07-4.053-63.119,3.255C43.734,46.719,10.96,76.598,9.932,150.244
					C8.762,234.12,79.525,302.609,160.619,315.971c0.289,0.047,0.579,0.095,0.866,0.141c58.652,9.454,99.8-5.274,127.005-28.013
					c48.538-40.571,62.46-76.997,124.013-67.077c0.147,0.024,0.287,0.046,0.434,0.07c0.064,0.011,0.132,0.022,0.196,0.032
					c43.649,7.036,71.819-31.597,72.62-74.114C486.248,120.714,482.694,100.493,458.76,71.446z"/>
			</g>
		</g>
		<g id="矩形_7_5_">
			<g>
				<path fill="none" stroke="#FF6600" stroke-miterlimit="10" d="M399.984,81.599c-6.33-42.912-48.59-76.634-94.363-76.634
					c-7.672,0-15.444,0.906-23.161,2.821c-26.779,6.644-87.131,58.3-107.174,66.134C91.002,106.865,5.201,76.334,16.273,151.398
					c9.745,66.076,92.431,107.582,172.878,107.582c10.944,0,21.861-0.742,32.532-2.261
					C310.798,244.038,411.055,156.664,399.984,81.599z"/>
			</g>
		</g>
		<g id="矩形_9_5_">
			<g>
				<path fill="none" stroke="#FDBC52" stroke-miterlimit="10" d="M382.994,112.13c-48.149-61.261-131.572-78.451-131.572-78.451
					c-23.508-4.127-45.422-5.962-65.646-5.962c-58.427,0-102.708,15.319-130.236,34.926c-28.262,20.13-40.653,45.815-40.429,64.676
					c0.255,21.355,18.445,53.713,70.618,53.713c3.026,0,6.165-0.109,9.422-0.335c4.521-0.314,8.828-0.487,12.977-0.487
					c28.453,0,49.286,9.509,77.899,36.405c16.381,15.398,67.205,73.323,128.08,73.323c18.838,0,38.649-5.553,58.688-19.63
					C462.241,207.473,382.994,112.13,382.994,112.13z"/>
			</g>
		</g>
	</g>
</g>
</svg>
