<?xml version="1.0" encoding="utf-8"?>
<!-- Generator: Adobe Illustrator 16.0.0, SVG Export Plug-In . SVG Version: 6.00 Build 0)  -->
<!DOCTYPE svg PUBLIC "-//W3C//DTD SVG 1.1//EN" "http://www.w3.org/Graphics/SVG/1.1/DTD/svg11.dtd" [
	<!ENTITY ns_extend "http://ns.adobe.com/Extensibility/1.0/">
	<!ENTITY ns_ai "http://ns.adobe.com/AdobeIllustrator/10.0/">
	<!ENTITY ns_graphs "http://ns.adobe.com/Graphs/1.0/">
	<!ENTITY ns_vars "http://ns.adobe.com/Variables/1.0/">
	<!ENTITY ns_imrep "http://ns.adobe.com/ImageReplacement/1.0/">
	<!ENTITY ns_sfw "http://ns.adobe.com/SaveForWeb/1.0/">
	<!ENTITY ns_custom "http://ns.adobe.com/GenericCustomNamespace/1.0/">
	<!ENTITY ns_adobe_xpath "http://ns.adobe.com/XPath/1.0/">
]>
<svg version="1.1" id="图层_1" xmlns:x="&ns_extend;" xmlns:i="&ns_ai;" xmlns:graph="&ns_graphs;"
	 xmlns="http://www.w3.org/2000/svg" xmlns:xlink="http://www.w3.org/1999/xlink" x="0px" y="0px" width="300px" height="186.667px"
	 viewBox="0 0 300 186.667" enable-background="new 0 0 300 186.667" xml:space="preserve">
<metadata>
	<sfw  xmlns="&ns_sfw;">
		<slices></slices>
		<sliceSourceBounds  height="180.427" width="291.531" y="-189.547" x="4.234" bottomLeftOrigin="true"></sliceSourceBounds>
	</sfw>
</metadata>
<g>
	<rect x="5.465" y="37.362" fill="#FAFAFA" width="289.088" height="2.666"/>
	<rect x="5.465" y="73.24" fill="#FAFAFA" width="289.088" height="2.667"/>
	<rect x="5.465" y="109.12" fill="#FAFAFA" width="289.088" height="2.666"/>
	<rect x="5.465" y="144.998" fill="#FAFAFA" width="289.088" height="2.669"/>
	<rect x="100.718" y="3.12" fill="#FAFAFA" width="2.098" height="179.393"/>
	<rect x="68.557" y="3.12" fill="#FAFAFA" width="2.099" height="179.393"/>
	<rect x="36.396" y="3.12" fill="#FAFAFA" width="2.097" height="179.393"/>
	<rect x="229.365" y="3.12" fill="#FAFAFA" width="2.097" height="179.393"/>
	<rect x="197.201" y="3.12" fill="#FAFAFA" width="2.098" height="179.393"/>
	<rect x="261.523" y="3.12" fill="#FAFAFA" width="2.1" height="179.393"/>
	<rect x="165.042" y="3.12" fill="#FAFAFA" width="2.101" height="179.393"/>
	<rect x="132.882" y="3.12" fill="#FAFAFA" width="2.098" height="179.393"/>
	<rect x="4.253" y="180.874" fill="#F0F0F0" width="291.512" height="2.673"/>
	<rect x="4.234" y="3.12" fill="#F0F0F0" width="2.098" height="179.393"/>
	<g>
		<defs>
			<rect id="SVGID_1_" x="4.234" y="3.12" width="291.531" height="180.427"/>
		</defs>
		<clipPath id="SVGID_2_">
			<use xlink:href="#SVGID_1_"  overflow="visible"/>
		</clipPath>
		<path clip-path="url(#SVGID_2_)" fill="#CCCCCC" d="M253.854,129.954c-39.392,0-58.177-27.058-73.27-48.798
			c-9.954-14.342-18.553-26.725-30.3-26.725c-11.771,0-20.474,12.415-30.554,26.791c-15.219,21.711-34.159,48.732-73.328,48.732
			c-0.681,0-1.233-0.552-1.233-1.233c0-0.683,0.553-1.234,1.233-1.234c37.886,0,56.419-26.437,71.311-47.678
			c10.471-14.941,19.516-27.843,32.571-27.843c13.037,0,21.974,12.875,32.327,27.785c14.765,21.266,33.141,47.736,71.242,47.736
			c0.682,0,1.233,0.552,1.233,1.234C255.087,129.402,254.535,129.954,253.854,129.954"/>
		<rect x="45.478" y="127.513" clip-path="url(#SVGID_2_)" fill="#999999" width="65.039" height="2.467"/>
		<rect x="189.739" y="127.513" clip-path="url(#SVGID_2_)" fill="#999999" width="65.037" height="2.467"/>
		<path clip-path="url(#SVGID_2_)" fill="#FF6600" d="M54.109,131.521c0,2.726-2.208,4.932-4.93,4.932H43.63
			c-2.725,0-4.934-2.206-4.934-4.932v-5.549c0-2.723,2.208-4.932,4.934-4.932h5.549c2.721,0,4.93,2.209,4.93,4.932V131.521z"/>
		<path clip-path="url(#SVGID_2_)" fill="#FF6600" d="M116.376,128.746c0,2.725-2.209,4.932-4.932,4.932
			c-2.725,0-4.932-2.207-4.932-4.932s2.208-4.931,4.932-4.931C114.167,123.815,116.376,126.021,116.376,128.746"/>
		<path clip-path="url(#SVGID_2_)" fill="#FF6600" d="M246.147,131.521c0,2.726,2.209,4.932,4.931,4.932h5.55
			c2.725,0,4.934-2.206,4.934-4.932v-5.549c0-2.723-2.209-4.932-4.934-4.932h-5.55c-2.722,0-4.931,2.209-4.931,4.932V131.521z"/>
		<path clip-path="url(#SVGID_2_)" fill="#FF6600" d="M183.882,128.746c0,2.725,2.209,4.932,4.932,4.932
			c2.725,0,4.932-2.207,4.932-4.932s-2.207-4.931-4.932-4.931C186.091,123.815,183.882,126.021,183.882,128.746"/>
	</g>
</g>
</svg>
