<?xml version="1.0" encoding="utf-8"?>
<!-- Generator: Adobe Illustrator 16.0.0, SVG Export Plug-In . SVG Version: 6.00 Build 0)  -->
<!DOCTYPE svg PUBLIC "-//W3C//DTD SVG 1.1//EN" "http://www.w3.org/Graphics/SVG/1.1/DTD/svg11.dtd" [
	<!ENTITY ns_extend "http://ns.adobe.com/Extensibility/1.0/">
	<!ENTITY ns_ai "http://ns.adobe.com/AdobeIllustrator/10.0/">
	<!ENTITY ns_graphs "http://ns.adobe.com/Graphs/1.0/">
	<!ENTITY ns_vars "http://ns.adobe.com/Variables/1.0/">
	<!ENTITY ns_imrep "http://ns.adobe.com/ImageReplacement/1.0/">
	<!ENTITY ns_sfw "http://ns.adobe.com/SaveForWeb/1.0/">
	<!ENTITY ns_custom "http://ns.adobe.com/GenericCustomNamespace/1.0/">
	<!ENTITY ns_adobe_xpath "http://ns.adobe.com/XPath/1.0/">
]>
<svg version="1.1" id="图层_1" xmlns:x="&ns_extend;" xmlns:i="&ns_ai;" xmlns:graph="&ns_graphs;"
	 xmlns="http://www.w3.org/2000/svg" xmlns:xlink="http://www.w3.org/1999/xlink" x="0px" y="0px" width="800px" height="400px"
	 viewBox="0 0 800 400" enable-background="new 0 0 800 400" xml:space="preserve">
<metadata>
	<sfw  xmlns="&ns_sfw;">
		<slices></slices>
		<sliceSourceBounds  height="326" width="542.5" bottomLeftOrigin="true" x="123" y="130.5"></sliceSourceBounds>
	</sfw>
</metadata>
<line fill="none" stroke="#B4B4B4" stroke-width="2" stroke-miterlimit="10" x1="666" y1="345" x2="123.5" y2="345"/>
<line fill="none" stroke="#F0F0F0" stroke-width="2" stroke-miterlimit="10" x1="666" y1="285" x2="123.5" y2="285"/>
<line fill="none" stroke="#B4B4B4" stroke-width="2" stroke-miterlimit="10" x1="210.924" y1="285" x2="123.5" y2="285"/>
<rect x="260.07" y="355.5" fill="none" width="108.216" height="14.5"/>
<text transform="matrix(1 0 0 1 123.5 365.7715)" fill="#666666" font-family="'MicrosoftYaHeiUILight'" font-size="12">底层页面    宽度1280</text>
<rect x="260.07" y="295.5" fill="none" width="108.216" height="14.5"/>
<text transform="matrix(1 0 0 1 123.5 305.7715)" fill="#666666" font-family="'MicrosoftYaHeiUILight'" font-size="12">tips</text>
<line fill="none" stroke="#F0F0F0" stroke-width="2" stroke-miterlimit="10" x1="666" y1="225" x2="123.5" y2="225"/>
<line fill="none" stroke="#B4B4B4" stroke-width="2" stroke-miterlimit="10" x1="331.899" y1="225" x2="123.5" y2="225"/>
<rect x="260.07" y="235.5" fill="none" width="108.216" height="14.5"/>
<text transform="matrix(1 0 0 1 123.5 245.7715)" fill="#666666" font-family="'MicrosoftYaHeiUILight'" font-size="12">组件、跟随浮层</text>
<line fill="none" stroke="#F0F0F0" stroke-width="2" stroke-miterlimit="10" x1="666" y1="165" x2="123.5" y2="165"/>
<line fill="none" stroke="#B4B4B4" stroke-width="2" stroke-miterlimit="10" x1="666" y1="165" x2="123.5" y2="165"/>
<rect x="260.07" y="175.5" fill="none" width="108.216" height="14.5"/>
<text transform="matrix(1 0 0 1 123.5 185.7715)" fill="#666666" font-family="'MicrosoftYaHeiUILight'" font-size="12">投影遮罩层</text>
<line fill="none" stroke="#F0F0F0" stroke-width="2" stroke-miterlimit="10" x1="666" y1="105" x2="123.5" y2="105"/>
<line fill="none" stroke="#B4B4B4" stroke-width="2" stroke-miterlimit="10" x1="513.094" y1="105" x2="123.5" y2="105"/>
<rect x="260.07" y="115.5" fill="none" width="108.216" height="14.5"/>
<text transform="matrix(1 0 0 1 123.5 125.7715)" fill="#666666" font-family="'MicrosoftYaHeiUILight'" font-size="12">页面浮出层</text>
<line fill="none" stroke="#F0F0F0" stroke-width="2" stroke-miterlimit="10" x1="666" y1="45" x2="123.5" y2="45"/>
<line fill="none" stroke="#B4B4B4" stroke-width="2" stroke-miterlimit="10" x1="666" y1="45" x2="123.5" y2="45"/>
<rect x="260.07" y="55.5" fill="none" width="108.216" height="14.5"/>
<text transform="matrix(1 0 0 1 123.5 65.7715)" fill="#666666" font-family="'MicrosoftYaHeiUILight'" font-size="12">新页面</text>
</svg>
