<?xml version="1.0" encoding="utf-8"?>
<!-- Generator: Adobe Illustrator 17.0.2, SVG Export Plug-In . SVG Version: 6.00 Build 0)  -->
<!DOCTYPE svg PUBLIC "-//W3C//DTD SVG 1.1//EN" "http://www.w3.org/Graphics/SVG/1.1/DTD/svg11.dtd">
<svg version="1.1" id="图层_1" xmlns="http://www.w3.org/2000/svg" xmlns:xlink="http://www.w3.org/1999/xlink" x="0px" y="0px"
	 width="1267.333px" height="554px" viewBox="0 674 1267.333 554" enable-background="new 0 674 1267.333 554" xml:space="preserve"
	>
<path opacity="0.04" fill="#FF6600" d="M1192.497,1080.993c-40.592,0-73.497,32.906-73.497,73.497
	c0,40.592,32.905,73.497,73.497,73.497c40.591,0,73.497-32.905,73.497-73.497
	C1265.994,1113.899,1233.088,1080.993,1192.497,1080.993z M1192.497,1202.399c-26.417,0-47.909-21.492-47.909-47.909
	s21.492-47.909,47.909-47.909s47.909,21.492,47.909,47.909S1218.914,1202.399,1192.497,1202.399z"/>
<circle opacity="0.1" fill="#FF6600" cx="940" cy="731.991" r="8"/>
<ellipse opacity="0.1" fill="#FF6600" cx="272.891" cy="709.351" rx="8.984" ry="9.016"/>
<polygon opacity="0.1" fill="#FF6600" points="1024.002,800.003 1048.99,849.989 1048.99,800.003 "/>
<polygon opacity="0.1" fill="#FF6600" points="233.993,1110.985 233.993,1095.993 204.001,1110.985 "/>
<ellipse opacity="0.1" fill="#FF6600" cx="459.422" cy="1194.116" rx="9.734" ry="9.75"/>
<rect x="423" y="822.991" opacity="0.04" fill="#FF6600" width="58" height="58"/>
<rect x="0" y="1064.991" opacity="0.1" fill="#FF6600" width="13.998" height="31.997"/>
<path opacity="0.1" fill="#FF6600" d="M971.509,977.999c8.561,0,15.5-6.721,15.5-15.01v-0.007h-31c0,0.002-0.001,0.005-0.001,0.007
	C956.008,971.278,962.948,977.999,971.509,977.999z"/>
<path opacity="0.04" fill="#FF6600" d="M84.004,751.983v0.009c0,12.146,9.847,21.992,21.994,21.992s21.994-9.846,21.994-21.992
	c0-0.003,0-0.006,0-0.009H84.004z"/>
<path opacity="0.04" fill="#FF6600" d="M648.503,674c-15.185,0-27.493,12.083-27.493,26.99v0.012h54.985v-0.012
	C675.995,686.083,663.687,674,648.503,674z"/>
<polygon opacity="0.1" fill="#FF6600" points="1005.008,861.241 1005.008,854.602 998.382,861.241 "/>
</svg>
