<?xml version="1.0" encoding="utf-8"?>
<!-- Generator: Adobe Illustrator 19.0.0, SVG Export Plug-In . SVG Version: 6.00 Build 0)  -->
<svg version="1.1" id="图层_1" xmlns="http://www.w3.org/2000/svg" xmlns:xlink="http://www.w3.org/1999/xlink" x="0px" y="0px"
	 viewBox="0 0 908 150" style="enable-background:new 0 0 908 150;" xml:space="preserve">
<style type="text/css">
	.st0{fill-rule:evenodd;clip-rule:evenodd;fill:#FF6600;}
</style>
<g id="客户价值驱动品牌策略">
	<g id="XMLID_439_">
		<path id="XMLID_440_" class="st0" d="M8.6,132.2h3.2v-1.8h21.7v1.8h3.2v-13.7h-28V132.2z M11.8,121.3h21.7v6.4H11.8V121.3z
			 M36.2,104.5v-2.7H16.4c0.7-0.8,1.3-1.5,2-2.4l-3.1-1.3c-2.7,3.9-6.6,7.6-11.7,11c0.9,0.8,1.6,1.6,2.2,2.3
			c2.3-1.6,4.5-3.5,6.7-5.5c1.7,2.2,3.9,4.1,6.7,5.6c-5.1,1.7-11.2,2.9-18.4,3.6c0.7,1,1.3,2,1.8,3.1c8-1,14.9-2.6,20.4-4.9
			c5.1,2.1,11.4,3.4,19.1,4c0.7-1.2,1.4-2.4,2.1-3.5c-6.8,0-12.6-0.8-17.4-2.3C30.7,109.7,33.8,107.3,36.2,104.5z M22.9,110.2
			c-3.2-1.4-5.7-3.3-7.6-5.6h16.4C29.5,106.7,26.5,108.6,22.9,110.2z M6.7,97.9h32.1v5.2h3.2v-8H23.7l2-1.2
			c-1.2-1.6-2.4-3.1-3.6-4.4l-2.9,1.8c1.1,1.3,2,2.6,2.8,3.8H3.5v8h3.2V97.9z M70.5,94.9c-1.3-1.9-2.7-3.7-4.1-5.3l-3.1,1.8
			c1.3,1.6,2.5,3.2,3.5,4.8H50.4v13.6c0,8.9-1.8,15.6-5.5,20.1c0.9,0.9,1.7,1.9,2.5,2.8c3.9-4.9,6-11.5,6.4-19.8H81v2.2h3.4v-19h-16
			L70.5,94.9z M81,99.3v10.6H53.9V99.3H81z M120.4,132.3h3.4v-25.1h-3.4V132.3z M98.1,90.4c-2.2,8.1-5.2,15.2-9.1,21.3
			c0.4,0.9,0.9,2.2,1.5,3.7c1.5-2.2,3-4.8,4.5-7.6v24.6h3.2v-31.8c1.1-2.9,2.2-5.9,3.3-9.2L98.1,90.4z M117.7,91.4l0.6-1.1h-3.9
			c-3.1,6.4-7.8,11.6-14.3,15.6c0.8,0.8,1.5,1.7,2.2,2.7c5.8-4.1,10.4-8.9,13.6-14.4c3.4,5.8,7.9,10.4,13.8,13.7
			c0.8-1.1,1.6-2.1,2.4-3C126,102.2,121.2,97.7,117.7,91.4z M108,113.5c0,7.1-2.2,12.7-6.7,16.8c1.1,0.8,2,1.6,2.9,2.4
			c4.8-4.7,7.1-11.2,7.1-19.5v-6.1H108V113.5z M171.8,101.5h-10.4v-3.9H175v-2.9h-13.5v-4.6h-3.3v4.6h-12.5v2.9h12.5v3.9H148v26.6
			h-4.3v2.9h32.2v-2.9h-4.1V101.5z M168.7,128.1h-17.4v-3.9h17.4V128.1z M168.7,121.4h-17.4v-3.9h17.4V121.4z M168.7,114.8h-17.4
			v-3.9h17.4V114.8z M168.7,108.2h-17.4v-3.9h17.4V108.2z M142,90.3c-2.1,8.2-5.1,15.1-8.9,20.8c0.5,1.1,0.9,2.3,1.3,3.5
			c1.4-2,2.7-4.1,3.9-6.4v23.9h3.1v-30.6c1.3-3.2,2.6-6.7,3.7-10.4L142,90.3z M203,124.7c2.2-2.8,4.3-6,6.3-9.6
			c1.8,3.2,3.5,6.3,5.1,9.4l3.1-1.5c-2.1-3.9-4.2-7.7-6.3-11.4c1.9-3.7,3.8-7.8,5.6-12.3l-3.1-1.1c-1.3,3.5-2.8,6.9-4.4,10.2
			c-1.9-3.3-3.9-6.5-5.9-9.7l-2.7,1.4c2.4,4,4.6,7.9,6.8,11.7c-2.2,3.9-4.6,7.7-7.3,11.2L203,124.7z M199.8,95.7h19.1v-3.1h-22.4
			v37.9h23v-3.1h-19.7V95.7z M191.9,92.3h-14v3h10.4l-1.2,15h-5.1l1.4-12.1h-3.2l-1.8,15.1h11.8c-0.1,4.6-0.3,8.3-0.5,10.9
			c-0.2,2.5-1.3,3.7-3.3,3.7c-1.9,0-3.9-0.1-6-0.4c0.2,1.3,0.4,2.5,0.6,3.6c2.3,0.1,4.3,0.1,6,0.1c3.8,0,5.8-2.2,5.9-6.6
			c0.3-3.5,0.5-8.3,0.7-14.4h-3.3L191.9,92.3z M188.7,116.5c-5.4,1.6-9.3,2.6-11.8,3.2l0.9,3.3c5.2-1.6,9-2.7,11.1-3.3
			C188.9,118.8,188.8,117.7,188.7,116.5z M240.6,93.7h-17.2v3.2h17.2V93.7z M251,90.1h-3.5c0,3,0,6,0,8.9H241v3.3h6.4
			c0,1.2-0.1,2.4-0.1,3.6c-0.3,10.6-3.4,18.6-9.4,23.9c0.9,1,1.8,1.9,2.6,2.9c6.7-6.5,10.1-15.4,10.2-26.7c0-1.2,0.1-2.4,0.1-3.7
			h8.2c-0.1,7.6-0.3,14.9-0.8,22c-0.1,2.4-1.2,3.6-3.3,3.6c-1.6,0-3.4-0.2-5.4-0.4c0.3,1.3,0.5,2.6,0.7,3.8c2.1,0.1,4,0.1,5.8,0.1
			c3.4-0.1,5.3-2.1,5.6-6.1c0.4-6.6,0.7-15.3,0.9-26.2h-11.6C250.9,96,251,93.1,251,90.1z M241.6,125.4c-1.5-3.8-3.2-7.7-5-11.6
			l-3,1.3c1.1,2.3,2.1,4.7,3,7.2c-3.8,0.4-7.3,0.7-10.6,1c1.8-3.4,3.9-8.1,6.4-14.2h9.9v-3.2h-20.8v3.2h7.3c-1.5,4.3-3,7.9-4.4,10.7
			c-0.8,1.6-1.8,2.8-3.1,3.5l1.5,3.5c4.5-0.5,9.5-1,14.9-1.5c0.2,0.5,0.4,1.1,0.6,1.6C239.3,126.4,240.4,125.9,241.6,125.4z
			 M275.2,107.5h22.8v1.4h3.4v-17h-29.6v17h3.4V107.5z M275.2,94.9h22.8v9.6h-22.8V94.9z M267.5,132.3h3.3v-2.9h9.8v2.9h3.3v-19.9
			h-16.4V132.3z M270.8,115.4h9.8v11h-9.8V115.4z M289.2,132.3h3.3v-2.9h9.9v2.9h3.3v-19.9h-16.4V132.3z M292.5,115.4h9.9v11.1h-9.9
			V115.4z M315.4,107H326v-2.7h-3.1V90.4h-3.1v13.9h-4.3V91.7h-3.1v23.8c0,6.4-0.9,11.2-2.8,14.5c1,0.9,1.9,1.7,2.7,2.5
			c2.2-3.8,3.3-9.4,3.3-16.8h4.6v16.1h3.1v-18.8h-7.8V107z M342.3,115.8h-3.1v5.5h-8.6c3.8-2.4,6.3-4.9,7.5-7.5h8.1v1.5h3V94.7
			h-11.1c0.5-1.1,1.1-2.4,1.8-3.7l-3.4-1c-0.6,1.8-1.1,3.4-1.7,4.8h-7.3v19.2h6.9c-1.3,1.9-3.5,3.7-6.5,5.2c0.7,0.7,1.3,1.5,1.9,2.2
			h-5.2v3h14.7v7.9h3.1v-7.9h9.7v-3h-9.7V115.8z M339.8,97.5h6.4v5.3h-6.4V97.5z M339.7,105.6h6.5v5.4H339
			C339.4,109.5,339.6,107.7,339.7,105.6z M330.5,97.5h6.2v5.3h-6.2V97.5z M330.5,111v-5.4h6.1c-0.1,2.2-0.4,4-0.9,5.4H330.5z
			 M381.9,98.6c1.7,2,2.9,3.5,3.6,4.5l2.5-1.9c-1.1-1.3-2.3-2.7-3.9-4.2L381.9,98.6z M376.8,101.2c1.2-1.3,2.3-2.8,3.4-4.6h15.2
			v-2.7h-13.7c0.7-1.2,1.3-2.6,1.9-4h-3.5c-1.6,3.6-3.7,6.9-6.3,9.7C375.2,100.2,376.2,100.7,376.8,101.2z M376.2,112.6h12.5v3.6
			c0,1.3-0.7,2-2.1,2c-0.9,0-2-0.1-3.5-0.3c0.2,1,0.4,2.1,0.5,3.2c1.4,0.1,2.6,0.1,3.8,0.1c2.9,0,4.4-1.4,4.4-4.3v-7h-15.6v-3.5
			h18.7v-2.7h-18.7v-2.6H373v2.6h-18.6v2.7H373v3.5h-14.9v11h3.1v-8.3H373v2.8c-5.8,5.8-12.4,10.1-19.9,13c0.7,0.8,1.5,1.7,2.2,2.7
			c6.8-3.1,12.7-7,17.6-11.8v13h3.2v-13.1c3.9,4.3,9.7,8.1,17.4,11.4c0.6-0.9,1.3-1.9,2.3-3.2c-7.7-2.3-14.3-6.3-19.7-12.1V112.6z
			 M361.1,96.5h14.3v-2.7H363c0.8-1.3,1.5-2.6,2.2-4h-3.7c-2,4.2-4.8,7.8-8.4,10.7c0.9,0.9,1.6,1.6,2.1,2.3
			C357.5,100.9,359.4,98.8,361.1,96.5z M366.2,103.1l2.5-1.9c-1.2-1.4-2.5-2.7-3.9-4l-2.2,1.6C363.9,100.2,365.1,101.7,366.2,103.1z
			 M399.4,129h2.8v-3.1h9.4v2.2h2.8V94.2h-15V129z M408.3,97h3.3v11.5h-3.3V97z M408.3,111.4h3.3V123h-3.3V111.4z M402.2,97h3.3
			v11.5h-3.3V97z M402.2,111.4h3.3V123h-3.3V111.4z M429.7,107.6c2.9-2.8,5.4-6.2,7.3-10.2v-2.9h-13.5c0.6-1.2,1.1-2.4,1.7-3.7
			l-3.1-1c-2.1,5.1-4.5,9.6-7.4,13.5c0.7,0.5,1.4,1.3,2.3,2.3c1.1-1.4,2.1-3,3.2-4.7c1.5,2.6,3.1,4.9,4.8,6.7
			c-3,2.3-6.5,4.1-10.4,5.6c0.6,0.8,1.3,1.8,2,3c4.1-1.9,7.7-4,10.7-6.4c3,2.4,6.7,4.4,11.2,5.9c0.5-1.2,1-2.4,1.6-3.6
			C436,111.1,432.5,109.6,429.7,107.6z M427.3,105.7c-2.1-2-3.9-4.6-5.5-7.7l0.3-0.5h11.4C431.6,100.8,429.5,103.6,427.3,105.7z
			 M418.6,132.4h3.2v-2.1H433v2.1h3.2v-16.7h-17.6V132.4z M421.7,118.7H433v8.6h-11.2V118.7z"/>
	</g>
</g>
<g id="Customer_xA0_Driven_xA0_Branding_xA0_Strategy">
	<g id="XMLID_344_">
		<path id="XMLID_345_" class="st0" d="M29,55.7c-1.3,0.4-2.9,0.5-4.7,0.5c-2,0-3.9-0.4-5.5-1.1c-1.7-0.7-3.2-1.8-4.4-3.2
			c-1.3-1.4-2.3-3.2-3-5.4c-0.7-2.2-1.1-4.7-1.1-7.6c0-3.2,0.4-5.9,1.1-8.1c0.8-2.2,1.8-4,3-5.3c1.3-1.4,2.7-2.3,4.3-2.9
			c1.6-0.6,3.2-0.9,4.9-0.9c3.6,0,6.3,0.5,8.2,1.4l1.2-4.4c-1.1-0.4-2.4-0.8-3.9-1.1c-1.5-0.3-3.5-0.4-5.9-0.4
			c-2.2,0-4.4,0.4-6.6,1.2c-2.2,0.8-4.1,2.1-5.8,3.8c-1.7,1.7-3.1,4-4.2,6.7c-1.1,2.7-1.6,6.1-1.6,10c0,3.8,0.5,7,1.4,9.7
			c1,2.7,2.3,5,3.9,6.8c1.6,1.8,3.6,3.1,5.8,3.9c2.2,0.9,4.6,1.3,7.1,1.3c2.1,0,4-0.2,5.9-0.5c1.8-0.4,3.4-1,4.6-1.9l-1.2-3.9
			C31.4,54.9,30.3,55.3,29,55.7z M63.5,51.4V29.9h-4.8v20c-0.3,0.9-0.7,1.7-1.2,2.5c-0.5,0.8-1.1,1.5-1.7,2.1
			c-0.7,0.6-1.4,1.1-2.3,1.4c-0.8,0.3-1.8,0.5-2.9,0.5c-1.2,0-2.1-0.2-2.9-0.6c-0.8-0.4-1.4-1-1.8-1.8c-0.4-0.8-0.8-1.8-0.9-2.9
			c-0.2-1.2-0.3-2.5-0.3-4.1V29.9H40v18.1c0,2.5,0.2,4.5,0.6,6.2c0.4,1.6,1,2.9,1.9,3.9c0.8,1,1.8,1.6,3.1,2
			c1.2,0.4,2.6,0.6,4.2,0.6c2.4,0,4.4-0.5,5.9-1.6c1.6-1,2.8-2.3,3.7-3.9h0.3l1.2,4.7h3.3c-0.2-1.2-0.4-2.5-0.5-4
			C63.6,54.3,63.5,52.9,63.5,51.4z M87,44.5c-1.1-0.7-2.2-1.3-3.5-1.7c-1.3-0.4-2.4-0.9-3.5-1.3c-1.1-0.5-2-1-2.7-1.6
			c-0.7-0.6-1.1-1.4-1.1-2.4c0-1.5,0.4-2.5,1.2-3.1c0.8-0.6,2.1-0.9,3.9-0.9c1.5,0,2.9,0.2,4.2,0.5c1.3,0.3,2.4,0.7,3.3,1.2l1.1-4
			c-1.1-0.5-2.4-1-3.8-1.4c-1.5-0.4-3.3-0.6-5.4-0.6c-2.9,0-5.2,0.7-6.8,2c-1.6,1.3-2.5,3.4-2.5,6.3c0,1.8,0.4,3.2,1.1,4.2
			c0.7,1,1.6,1.9,2.7,2.5c1.1,0.7,2.2,1.2,3.5,1.6c1.3,0.4,2.4,0.9,3.5,1.3c1.1,0.5,1.9,1,2.7,1.7c0.7,0.7,1.1,1.6,1.1,2.8
			c0,1.8-0.6,3-1.7,3.7c-1.1,0.7-2.5,1-4.3,1c-1.5,0-3-0.2-4.5-0.7c-1.5-0.4-2.7-0.9-3.6-1.4l-1.4,4.1c1.1,0.6,2.4,1.1,4,1.6
			c1.6,0.4,3.5,0.7,5.8,0.7c1.8,0,3.3-0.2,4.6-0.7c1.3-0.5,2.4-1.1,3.3-1.9c0.9-0.8,1.5-1.8,1.9-2.9c0.4-1.1,0.6-2.3,0.6-3.6
			c0-1.8-0.4-3.2-1.1-4.3C89,46.1,88.1,45.2,87,44.5z M109.6,56.1c-0.7,0.2-1.6,0.3-2.6,0.3c-1.2,0-2.1-0.4-2.6-1.3
			c-0.5-0.9-0.8-2.3-0.8-4.4V34.1h8.2v-4.2h-8.2v-7.3L98.8,24v5.9h-4.7v4.2h4.7v17.5c0,3.2,0.5,5.6,1.5,6.9c1,1.4,2.7,2.1,5.2,2.1
			c1.5,0,2.9-0.2,4.1-0.5c1.3-0.3,2.5-0.7,3.5-1.3l-1.1-3.7C111.1,55.6,110.3,55.9,109.6,56.1z M139.8,33.5
			c-1.1-1.4-2.5-2.4-4.1-3.2c-1.7-0.7-3.6-1.1-5.9-1.1c-4.2,0-7.5,1.3-9.7,4c-2.3,2.7-3.4,6.6-3.4,11.7c0,2.4,0.3,4.5,0.8,6.5
			c0.5,1.9,1.3,3.6,2.4,5c1.1,1.4,2.4,2.4,4.1,3.2c1.7,0.7,3.6,1.1,5.8,1.1c4.2,0,7.5-1.4,9.8-4c2.3-2.7,3.4-6.6,3.4-11.7
			c0-2.4-0.3-4.5-0.8-6.5C141.7,36.5,140.9,34.9,139.8,33.5z M129.8,56.5c-1.5,0-2.7-0.3-3.8-1c-1-0.6-1.9-1.5-2.5-2.5
			c-0.6-1-1.1-2.3-1.4-3.7c-0.3-1.4-0.5-2.9-0.5-4.4c0-7.7,2.7-11.6,8.2-11.5c1.5,0,2.7,0.3,3.8,0.9c1,0.6,1.9,1.5,2.5,2.5
			c0.6,1,1.1,2.3,1.4,3.7c0.3,1.4,0.5,2.9,0.5,4.4C138,52.7,135.3,56.5,129.8,56.5z M188.3,31.8c-0.8-1-1.7-1.6-2.9-2
			c-1.2-0.4-2.6-0.6-4.3-0.6c-2,0-3.9,0.4-5.5,1.3c-1.6,0.9-2.9,2.1-3.8,3.7c-0.7-1.8-1.6-3.1-2.9-3.9c-1.2-0.7-2.8-1.1-4.7-1.1
			c-2.3,0-4.1,0.4-5.6,1.2c-1.4,0.8-2.7,1.9-3.8,3.1h-0.2l-0.9-3.7h-3.4v30h4.8V39.3c0.5-1.7,1.3-3.1,2.6-4.2
			c1.2-1.1,2.7-1.7,4.6-1.7c1.2,0,2.2,0.2,2.9,0.6c0.7,0.4,1.3,1,1.7,1.8c0.4,0.8,0.7,1.8,0.8,3c0.1,1.2,0.2,2.6,0.2,4.2v17h4.8v-20
			c0.5-2.1,1.3-3.7,2.4-4.8c1.1-1.1,2.7-1.7,4.7-1.7c1.2,0,2.2,0.2,2.9,0.5c0.7,0.3,1.3,0.9,1.7,1.6c0.4,0.7,0.7,1.6,0.8,2.6
			c0.1,1.1,0.2,2.3,0.2,3.7v18.1h4.8v-18c0-2.5-0.2-4.6-0.5-6.2C189.6,34.1,189.1,32.8,188.3,31.8z M218.5,31.4
			c-1.1-0.8-2.3-1.4-3.7-1.7c-1.4-0.3-2.7-0.4-4.1-0.4c-4.2,0-7.5,1.3-9.8,4c-2.3,2.7-3.4,6.6-3.4,11.7c0,2.4,0.3,4.6,0.8,6.5
			c0.5,1.9,1.3,3.6,2.4,5c1.1,1.4,2.5,2.4,4.1,3.2c1.7,0.7,3.7,1.1,5.9,1.1c2,0,4-0.3,5.8-0.8c1.8-0.6,3.3-1.3,4.5-2.3l-1.8-3.5
			c-0.7,0.6-1.7,1.2-3.1,1.7c-1.4,0.5-2.7,0.7-4.1,0.7c-1.8,0-3.3-0.2-4.5-0.7c-1.2-0.5-2.2-1.2-3-2.2c-0.8-0.9-1.3-2.1-1.7-3.5
			c-0.4-1.4-0.5-2.9-0.5-4.7h19.3c0.2-1.6,0.4-3.1,0.4-4.4c0-2.5-0.3-4.5-1-6.1C220.5,33.4,219.6,32.2,218.5,31.4z M202.6,41.6
			c0.3-3,1.1-5.1,2.6-6.4c1.4-1.2,3.3-1.9,5.7-1.9c2.1,0,3.8,0.6,4.9,1.8c1.2,1.2,1.7,3.4,1.7,6.4H202.6z M237,30.4
			c-1.1,0.7-2,1.8-2.7,3.1H234l-0.9-3.7h-3.4v30h4.8v-21c0.2-1.4,0.9-2.6,1.9-3.6c1-0.9,2.4-1.4,4.1-1.4c1.1,0,2.2,0.2,3.4,0.6
			l1-4.6c-1.4-0.4-2.7-0.6-3.9-0.6C239.4,29.3,238,29.7,237,30.4z M292.7,23.4c-1.6-1.9-3.6-3.3-6.1-4.4c-2.5-1-5.4-1.6-8.7-1.6
			c-0.8,0-1.8,0-2.7,0c-1,0-2,0-3,0.1c-1,0-2,0.1-2.9,0.1c-0.9,0.1-1.8,0.1-2.5,0.3V60c0.4,0.1,1.1,0.1,2,0.2c0.9,0,1.9,0.1,3,0.2
			c1.1,0.1,2.1,0.1,3.2,0.1c1,0,1.8,0,2.5,0c3.6,0,6.7-0.6,9.3-1.8c2.6-1.2,4.6-2.8,6.2-4.9c1.6-2,2.8-4.3,3.5-7
			c0.7-2.6,1.1-5.3,1.1-8.2c0-3.1-0.4-6-1.2-8.6C295.5,27.5,294.3,25.2,292.7,23.4z M291.4,45.1c-0.5,2.1-1.3,4-2.4,5.6
			c-1.1,1.6-2.7,2.9-4.6,3.9c-1.9,1-4.3,1.4-7.1,1.4c-0.2,0-0.6,0-1.1,0c-0.6,0-1.1,0-1.7-0.1c-0.6,0-1.2,0-1.7-0.1
			c-0.6,0-0.9,0-1.1-0.1V22.2c0.3,0,0.7-0.1,1.2-0.1c0.5,0,1.1-0.1,1.7-0.1c0.6,0,1.2-0.1,1.8-0.1h1.7c2.8,0,5,0.5,6.9,1.5
			c1.8,1,3.3,2.3,4.3,3.9c1.1,1.6,1.8,3.4,2.3,5.4c0.4,2,0.7,4,0.7,5.9C292.1,40.9,291.9,43,291.4,45.1z M312.6,30.4
			c-1.1,0.7-2,1.8-2.7,3.1h-0.2l-0.9-3.7h-3.4v30h4.8v-21c0.2-1.4,0.9-2.6,1.9-3.6c1-0.9,2.4-1.4,4.1-1.4c1.1,0,2.2,0.2,3.4,0.6
			l1-4.6c-1.4-0.4-2.7-0.6-3.9-0.6C315,29.3,313.7,29.7,312.6,30.4z M329.1,17.5c-1,0-1.8,0.3-2.4,1c-0.6,0.7-0.9,1.5-0.9,2.4
			c0,0.9,0.3,1.7,0.9,2.3c0.6,0.6,1.4,0.9,2.4,0.9c1,0,1.8-0.3,2.5-0.9c0.7-0.6,1-1.4,1-2.3c0-0.9-0.3-1.7-1-2.4
			C330.9,17.8,330.1,17.5,329.1,17.5z M326.8,59.9h4.8v-30h-4.8V59.9z M353.8,47.4l-1.5,5.8h-0.1l-1.7-5.7l-7.2-17.6h-5.5l13,30.7h2
			l12.8-30.7h-5.2L353.8,47.4z M390.1,31.4c-1.1-0.8-2.3-1.4-3.7-1.7c-1.4-0.3-2.7-0.4-4.1-0.4c-4.2,0-7.5,1.3-9.8,4
			c-2.3,2.7-3.4,6.6-3.4,11.7c0,2.4,0.3,4.6,0.8,6.5c0.5,1.9,1.3,3.6,2.4,5c1.1,1.4,2.5,2.4,4.1,3.2c1.7,0.7,3.7,1.1,5.9,1.1
			c2,0,4-0.3,5.8-0.8c1.8-0.6,3.3-1.3,4.5-2.3l-1.8-3.5c-0.7,0.6-1.7,1.2-3.1,1.7c-1.4,0.5-2.7,0.7-4.1,0.7c-1.8,0-3.3-0.2-4.5-0.7
			c-1.2-0.5-2.2-1.2-3-2.2c-0.8-0.9-1.3-2.1-1.7-3.5c-0.4-1.4-0.5-2.9-0.5-4.7h19.3c0.2-1.6,0.4-3.1,0.4-4.4c0-2.5-0.3-4.5-1-6.1
			C392,33.4,391.1,32.2,390.1,31.4z M374.2,41.6c0.3-3,1.1-5.1,2.6-6.4c1.4-1.2,3.3-1.9,5.7-1.9c2.1,0,3.8,0.6,4.9,1.8
			c1.2,1.2,1.7,3.4,1.7,6.4H374.2z M422.8,31.8c-0.8-1-1.9-1.6-3.1-2c-1.2-0.4-2.7-0.6-4.3-0.6c-2.2,0-4.2,0.4-5.8,1.2
			c-1.6,0.8-2.9,1.9-3.9,3.1h-0.2l-0.9-3.7h-3.4v30h4.8V39.4c0.6-1.7,1.5-3.1,2.9-4.3c1.4-1.1,3.1-1.7,5.3-1.7c2.4,0,4,0.8,4.9,2.4
			c0.9,1.6,1.3,3.9,1.3,7v17.1h4.8V41.8c0-2.5-0.2-4.5-0.6-6.2C424.3,34,423.7,32.8,422.8,31.8z M474.4,40.7c-0.8-0.8-1.8-1.5-2.9-2
			c-1.1-0.5-2.2-0.8-3.5-1v-0.2c1.4-0.4,2.5-0.9,3.5-1.6c1-0.7,1.8-1.5,2.5-2.4c0.6-0.9,1.1-1.9,1.4-2.9c0.3-1,0.5-2.1,0.5-3.1
			c0-2.1-0.4-3.8-1.3-5.1c-0.9-1.3-2-2.3-3.3-3.1c-1.3-0.7-2.8-1.2-4.4-1.5c-1.6-0.3-3.2-0.4-4.8-0.4c-2.3,0-4.5,0.1-6.4,0.2
			c-2,0.2-3.7,0.4-5.2,0.6v41.3c0.8,0.2,1.6,0.3,2.6,0.5c1,0.1,2,0.2,3,0.2c1,0.1,2,0.1,2.9,0.1h2.4c2,0,3.9-0.2,5.8-0.7
			c1.9-0.5,3.5-1.2,5-2.2c1.5-1,2.6-2.3,3.5-3.9c0.9-1.6,1.3-3.4,1.3-5.6c0-1.6-0.3-3.1-0.8-4.3C475.9,42.5,475.2,41.5,474.4,40.7z
			 M455.6,22.1c0.6-0.1,1.4-0.2,2.5-0.3c1.1-0.1,2.3-0.1,3.6-0.1c1.1,0,2.2,0.1,3.3,0.3c1.1,0.2,2,0.6,2.9,1.1
			c0.8,0.5,1.5,1.2,2,2.1c0.5,0.9,0.8,1.9,0.8,3.3c0,1-0.2,1.9-0.6,2.7c-0.4,0.8-0.9,1.5-1.6,2.2c-0.7,0.6-1.4,1.2-2.3,1.6
			c-0.8,0.5-1.7,0.9-2.7,1.2c-0.6,0.1-1.4,0.1-2.4,0.2c-1,0-1.8,0.1-2.5,0.1h-3.1V22.1z M471.1,51.8c-0.5,1-1.3,1.8-2.2,2.4
			c-0.9,0.7-2,1.1-3.2,1.4c-1.2,0.3-2.4,0.4-3.7,0.4c-0.5,0-1,0-1.7,0c-0.6,0-1.3,0-1.9-0.1c-0.6,0-1.2-0.1-1.7-0.1
			c-0.5,0-0.9-0.1-1.2-0.2V40.6h5.2c1.3,0,2.6,0.1,4,0.3c1.3,0.2,2.5,0.6,3.6,1.1c1.1,0.6,1.9,1.3,2.6,2.3c0.7,1,1,2.3,1,4
			C471.9,49.7,471.6,50.8,471.1,51.8z M492.4,30.4c-1.1,0.7-2,1.8-2.7,3.1h-0.2l-0.9-3.7h-3.4v30h4.8v-21c0.2-1.4,0.9-2.6,1.9-3.6
			c1-0.9,2.4-1.4,4.1-1.4c1.1,0,2.2,0.2,3.4,0.6l1-4.6c-1.4-0.4-2.7-0.6-3.9-0.6C494.8,29.3,493.4,29.7,492.4,30.4z M525.9,52.2
			c0-2,0.1-4.2,0.2-6.5c0.1-2.3,0.2-4.6,0.2-7c0-1.1-0.1-2.2-0.3-3.2c-0.2-1.1-0.7-2.1-1.3-3c-0.7-0.9-1.6-1.6-2.9-2.2
			c-1.3-0.6-2.9-0.8-5-0.8c-2.2,0-4.3,0.2-6.3,0.7c-2,0.4-3.8,1.1-5.3,2l1.5,3.7c0.6-0.3,1.2-0.6,1.9-0.9c0.7-0.3,1.5-0.5,2.3-0.7
			c0.8-0.2,1.6-0.3,2.4-0.4c0.8-0.1,1.5-0.2,2.2-0.2c2.3,0,3.9,0.4,4.8,1.3c0.9,0.9,1.3,2.4,1.3,4.6c0,1-0.1,2-0.2,3.2
			c-0.6-0.1-1.1-0.1-1.6-0.1h-1.7c-2.2,0-4.2,0.2-6,0.4c-1.8,0.3-3.4,0.8-4.7,1.5c-1.3,0.7-2.3,1.6-3,2.8c-0.7,1.2-1.1,2.7-1.1,4.4
			c0,1.3,0.2,2.5,0.7,3.5c0.5,1,1.1,1.9,1.9,2.7c0.8,0.7,1.7,1.3,2.9,1.7c1.1,0.4,2.3,0.6,3.6,0.6c1.3,0,2.4-0.1,3.4-0.4
			c1-0.3,1.9-0.6,2.6-1.1c0.8-0.4,1.4-0.9,1.9-1.4c0.5-0.5,1-1.1,1.4-1.7h0.3l1.3,4.2h3.5c-0.3-1.1-0.5-2.3-0.7-3.7
			C526,55.1,525.9,53.7,525.9,52.2z M521.4,51.5c-0.2,0.5-0.5,1.1-0.9,1.6c-0.4,0.6-1,1.1-1.6,1.5c-0.6,0.5-1.4,0.8-2.3,1.1
			c-0.9,0.3-1.9,0.4-3,0.4c-1.6,0-2.8-0.4-3.8-1.3c-1-0.9-1.5-2-1.5-3.5c0-1,0.3-1.8,0.8-2.5c0.5-0.7,1.3-1.2,2.2-1.6
			c0.9-0.4,1.9-0.6,3.1-0.8c1.2-0.1,2.4-0.2,3.6-0.2c0.6,0,1.1,0,1.7,0c0.6,0,1.1,0.1,1.7,0.1V51.5z M556.9,31.8
			c-0.8-1-1.9-1.6-3.1-2c-1.2-0.4-2.7-0.6-4.3-0.6c-2.2,0-4.2,0.4-5.8,1.2c-1.6,0.8-2.9,1.9-3.9,3.1h-0.2l-0.9-3.7h-3.4v30h4.8V39.4
			c0.6-1.7,1.5-3.1,2.9-4.3c1.4-1.1,3.1-1.7,5.3-1.7c2.4,0,4,0.8,4.9,2.4c0.9,1.6,1.3,3.9,1.3,7v17.1h4.8V41.8
			c0-2.5-0.2-4.5-0.6-6.2C558.3,34,557.7,32.8,556.9,31.8z M591.2,49.6V17.9h-4.8v12.5c-1-0.4-1.9-0.6-2.8-0.8
			c-0.9-0.2-2-0.2-3.5-0.2c-4.2,0-7.6,1.3-10,4c-2.4,2.7-3.6,6.6-3.6,11.7c0,5.4,1,9.3,2.9,11.8c1.9,2.5,4.9,3.8,8.9,3.8
			c2,0,3.8-0.5,5.3-1.4c1.5-0.9,2.7-2.1,3.5-3.5h0.2l1.2,4.3h3.2c-0.3-1.6-0.5-3.2-0.5-4.9C591.2,53.5,591.2,51.7,591.2,49.6z
			 M586.4,50c-0.4,2.2-1.3,3.8-2.5,4.8c-1.2,1.1-2.8,1.6-4.9,1.6c-1.4,0-2.6-0.3-3.6-0.9c-1-0.6-1.8-1.4-2.4-2.4
			c-0.6-1-1-2.2-1.3-3.6c-0.3-1.4-0.4-2.9-0.4-4.6c0-4,0.8-6.9,2.3-8.7c1.6-1.8,3.7-2.7,6.5-2.7c1.5,0,2.7,0.1,3.7,0.4
			c0.9,0.2,1.7,0.6,2.5,1.2V50z M603.7,17.5c-1,0-1.8,0.3-2.4,1c-0.6,0.7-0.9,1.5-0.9,2.4c0,0.9,0.3,1.7,0.9,2.3
			c0.6,0.6,1.4,0.9,2.4,0.9c1,0,1.8-0.3,2.5-0.9c0.7-0.6,1-1.4,1-2.3c0-0.9-0.3-1.7-1-2.4C605.5,17.8,604.7,17.5,603.7,17.5z
			 M601.4,59.9h4.8v-30h-4.8V59.9z M638.1,31.8c-0.8-1-1.9-1.6-3.1-2c-1.2-0.4-2.7-0.6-4.3-0.6c-2.2,0-4.2,0.4-5.8,1.2
			c-1.6,0.8-2.9,1.9-3.9,3.1h-0.2l-0.9-3.7h-3.4v30h4.8V39.4c0.6-1.7,1.5-3.1,2.9-4.3c1.4-1.1,3.1-1.7,5.3-1.7c2.4,0,4,0.8,4.9,2.4
			c0.9,1.6,1.3,3.9,1.3,7v17.1h4.8V41.8c0-2.5-0.2-4.5-0.6-6.2C639.5,34,638.9,32.8,638.1,31.8z M662.1,29.4c-4.8,0-8.4,1.3-10.8,4
			c-2.4,2.7-3.7,6.6-3.7,11.7c0,5.3,0.9,9.2,2.9,11.8c1.9,2.5,4.9,3.8,8.9,3.8c2,0,3.6-0.3,4.9-0.9c1.2-0.6,2.3-1.5,3.1-2.7h0.2v2.9
			c0,1.5-0.1,2.8-0.4,3.9c-0.2,1.1-0.7,2-1.3,2.7c-0.6,0.7-1.5,1.2-2.6,1.5c-1.1,0.3-2.4,0.5-4.1,0.5c-1.8,0-3.3-0.2-4.4-0.5
			c-1.1-0.3-2.1-0.7-3.1-1l-1.3,4.1c1,0.5,2.3,0.9,3.8,1.2c1.5,0.3,3.4,0.4,5.8,0.4c4,0,7.1-0.9,9.1-2.8c2.1-1.8,3.1-4.7,3.1-8.6
			V31.2c-1.3-0.5-2.7-0.9-4.3-1.3C666.3,29.6,664.4,29.4,662.1,29.4z M667.5,50.1c-0.5,2.2-1.3,3.8-2.5,4.8c-1.2,1-2.8,1.5-4.8,1.5
			c-1.4,0-2.6-0.3-3.5-0.8c-1-0.6-1.7-1.3-2.3-2.3c-0.6-1-1-2.2-1.3-3.6c-0.3-1.4-0.4-2.9-0.4-4.6c0-3.9,0.8-6.8,2.3-8.6
			c1.6-1.8,3.7-2.8,6.4-2.8c2.5,0,4.5,0.4,6.1,1.1V50.1z M716.7,39.5c-1.5-1.1-3.1-2-4.9-2.8c-1.8-0.8-3.4-1.6-4.9-2.4
			c-1.5-0.8-2.8-1.7-3.8-2.8c-1-1-1.5-2.3-1.5-3.9c0-1.6,0.7-3,2-4.2c1.3-1.2,3.3-1.8,5.9-1.8c2.2,0,4.2,0.2,6,0.6
			c1.8,0.4,3.1,0.8,4,1.3l1.5-4.4c-1.1-0.6-2.7-1-4.7-1.4c-2-0.4-4.2-0.5-6.7-0.5c-4.2,0-7.4,1-9.7,2.9c-2.3,1.9-3.4,4.5-3.4,7.8
			c0,2.3,0.5,4.2,1.5,5.7c1,1.5,2.2,2.8,3.8,3.8c1.5,1,3.1,1.9,4.9,2.6c1.8,0.7,3.4,1.5,4.9,2.3c1.5,0.8,2.7,1.8,3.8,2.8
			c1,1.1,1.5,2.4,1.5,4.1c0,1.2-0.3,2.2-0.8,3.1c-0.5,0.9-1.2,1.6-2,2.2c-0.8,0.6-1.8,1-3,1.3c-1.2,0.3-2.4,0.4-3.7,0.4
			c-2.2,0-4.3-0.2-6.1-0.7c-1.8-0.5-3.2-1-4.1-1.5l-1.7,4.4c1.1,0.6,2.6,1.1,4.6,1.5c2,0.5,4.4,0.7,7.4,0.7c2.2,0,4.2-0.3,6-0.8
			c1.8-0.6,3.3-1.4,4.5-2.4c1.2-1,2.2-2.3,2.8-3.7c0.6-1.4,1-3.1,1-4.9c0-2.2-0.5-4-1.5-5.5C719.5,41.8,718.2,40.6,716.7,39.5z
			 M741,56.1c-0.7,0.2-1.6,0.3-2.6,0.3c-1.2,0-2.1-0.4-2.6-1.3c-0.5-0.9-0.8-2.3-0.8-4.4V34.1h8.2v-4.2h-8.2v-7.3l-4.8,1.4v5.9h-4.7
			v4.2h4.7v17.5c0,3.2,0.5,5.6,1.5,6.9c1,1.4,2.7,2.1,5.2,2.1c1.5,0,2.9-0.2,4.1-0.5c1.3-0.3,2.5-0.7,3.5-1.3l-1.1-3.7
			C742.5,55.6,741.7,55.9,741,56.1z M757,30.4c-1.1,0.7-2,1.8-2.7,3.1H754l-0.9-3.7h-3.4v30h4.8v-21c0.2-1.4,0.9-2.6,1.9-3.6
			c1-0.9,2.4-1.4,4.1-1.4c1.1,0,2.2,0.2,3.4,0.6l1-4.6c-1.4-0.4-2.7-0.6-3.9-0.6C759.4,29.3,758,29.7,757,30.4z M790.5,52.2
			c0-2,0.1-4.2,0.2-6.5c0.1-2.3,0.2-4.6,0.2-7c0-1.1-0.1-2.2-0.3-3.2c-0.2-1.1-0.7-2.1-1.3-3c-0.7-0.9-1.6-1.6-2.9-2.2
			c-1.3-0.6-2.9-0.8-5-0.8c-2.2,0-4.3,0.2-6.3,0.7c-2,0.4-3.8,1.1-5.3,2l1.5,3.7c0.6-0.3,1.2-0.6,1.9-0.9c0.7-0.3,1.5-0.5,2.3-0.7
			c0.8-0.2,1.6-0.3,2.4-0.4c0.8-0.1,1.5-0.2,2.2-0.2c2.3,0,3.9,0.4,4.8,1.3c0.9,0.9,1.3,2.4,1.3,4.6c0,1-0.1,2-0.2,3.2
			c-0.6-0.1-1.1-0.1-1.6-0.1h-1.7c-2.2,0-4.2,0.2-6,0.4c-1.8,0.3-3.4,0.8-4.7,1.5c-1.3,0.7-2.3,1.6-3,2.8c-0.7,1.2-1.1,2.7-1.1,4.4
			c0,1.3,0.2,2.5,0.7,3.5c0.5,1,1.1,1.9,1.9,2.7c0.8,0.7,1.7,1.3,2.9,1.7c1.1,0.4,2.3,0.6,3.6,0.6c1.3,0,2.4-0.1,3.4-0.4
			c1-0.3,1.9-0.6,2.6-1.1c0.8-0.4,1.4-0.9,1.9-1.4c0.5-0.5,1-1.1,1.4-1.7h0.3l1.3,4.2h3.5c-0.3-1.1-0.5-2.3-0.7-3.7
			C790.6,55.1,790.5,53.7,790.5,52.2z M786,51.5c-0.2,0.5-0.5,1.1-0.9,1.6c-0.4,0.6-1,1.1-1.6,1.5c-0.6,0.5-1.4,0.8-2.3,1.1
			c-0.9,0.3-1.9,0.4-3,0.4c-1.6,0-2.8-0.4-3.8-1.3c-1-0.9-1.5-2-1.5-3.5c0-1,0.3-1.8,0.8-2.5c0.5-0.7,1.3-1.2,2.2-1.6
			c0.9-0.4,1.9-0.6,3.1-0.8c1.2-0.1,2.4-0.2,3.6-0.2c0.6,0,1.1,0,1.7,0c0.6,0,1.1,0.1,1.7,0.1V51.5z M811.5,56.1
			c-0.7,0.2-1.6,0.3-2.6,0.3c-1.2,0-2.1-0.4-2.6-1.3c-0.5-0.9-0.8-2.3-0.8-4.4V34.1h8.2v-4.2h-8.2v-7.3l-4.8,1.4v5.9H796v4.2h4.7
			v17.5c0,3.2,0.5,5.6,1.5,6.9c1,1.4,2.7,2.1,5.2,2.1c1.5,0,2.9-0.2,4.1-0.5c1.3-0.3,2.5-0.7,3.5-1.3l-1.1-3.7
			C813,55.6,812.2,55.9,811.5,56.1z M839.5,31.4c-1.1-0.8-2.3-1.4-3.7-1.7c-1.4-0.3-2.7-0.4-4.1-0.4c-4.2,0-7.5,1.3-9.8,4
			c-2.3,2.7-3.4,6.6-3.4,11.7c0,2.4,0.3,4.6,0.8,6.5c0.5,1.9,1.3,3.6,2.4,5c1.1,1.4,2.5,2.4,4.1,3.2c1.7,0.7,3.7,1.1,5.9,1.1
			c2,0,4-0.3,5.8-0.8c1.8-0.6,3.3-1.3,4.5-2.3l-1.8-3.5c-0.7,0.6-1.7,1.2-3.1,1.7c-1.4,0.5-2.7,0.7-4.1,0.7c-1.8,0-3.3-0.2-4.5-0.7
			c-1.2-0.5-2.2-1.2-3-2.2c-0.8-0.9-1.3-2.1-1.7-3.5c-0.4-1.4-0.5-2.9-0.5-4.7h19.3c0.2-1.6,0.4-3.1,0.4-4.4c0-2.5-0.3-4.5-1-6.1
			C841.5,33.4,840.6,32.2,839.5,31.4z M823.6,41.6c0.3-3,1.1-5.1,2.6-6.4c1.4-1.2,3.3-1.9,5.7-1.9c2.1,0,3.8,0.6,4.9,1.8
			c1.2,1.2,1.7,3.4,1.7,6.4H823.6z M863.5,29.4c-4.8,0-8.4,1.3-10.8,4c-2.4,2.7-3.7,6.6-3.7,11.7c0,5.3,0.9,9.2,2.9,11.8
			c1.9,2.5,4.9,3.8,8.9,3.8c2,0,3.6-0.3,4.9-0.9c1.2-0.6,2.3-1.5,3.1-2.7h0.2v2.9c0,1.5-0.1,2.8-0.4,3.9c-0.2,1.1-0.7,2-1.3,2.7
			c-0.6,0.7-1.5,1.2-2.6,1.5c-1.1,0.3-2.4,0.5-4.1,0.5c-1.8,0-3.3-0.2-4.4-0.5c-1.1-0.3-2.1-0.7-3.1-1l-1.3,4.1
			c1,0.5,2.3,0.9,3.8,1.2c1.5,0.3,3.4,0.4,5.8,0.4c4,0,7.1-0.9,9.1-2.8c2.1-1.8,3.1-4.7,3.1-8.6V31.2c-1.3-0.5-2.7-0.9-4.3-1.3
			C867.7,29.6,865.8,29.4,863.5,29.4z M868.9,50.1c-0.5,2.2-1.3,3.8-2.5,4.8c-1.2,1-2.8,1.5-4.8,1.5c-1.4,0-2.6-0.3-3.5-0.8
			c-1-0.6-1.7-1.3-2.3-2.3c-0.6-1-1-2.2-1.3-3.6c-0.3-1.4-0.4-2.9-0.4-4.6c0-3.9,0.8-6.8,2.3-8.6c1.6-1.8,3.7-2.8,6.4-2.8
			c2.5,0,4.5,0.4,6.1,1.1V50.1z M900.9,29.9l-5.8,19.4l-1.3,5.8h-0.3l-1.7-5.8l-7.2-19.4H879l12.1,30c-0.7,2.9-1.5,4.9-2.6,6.1
			c-1,1.2-2.1,1.8-3.2,1.8c-0.5,0-1-0.1-1.5-0.3l-0.8,4.1c0.9,0.4,2.1,0.6,3.5,0.6c1.3,0,2.5-0.4,3.5-1.3c1-0.9,1.9-2,2.7-3.5
			c0.8-1.4,1.5-3.1,2.2-4.9c0.7-1.8,1.3-3.7,2-5.7l8.9-26.9H900.9z"/>
	</g>
</g>
</svg>
