<?xml version="1.0" encoding="utf-8"?>
<!-- Generator: Adobe Illustrator 19.0.0, SVG Export Plug-In . SVG Version: 6.00 Build 0)  -->
<svg version="1.1" id="图层_1" xmlns="http://www.w3.org/2000/svg" xmlns:xlink="http://www.w3.org/1999/xlink" x="0px" y="0px"
	 viewBox="0 0 340 340" style="enable-background:new 0 0 340 340;" xml:space="preserve">
<style type="text/css">
	.st0{fill:none;stroke:#FF6600;stroke-width:4;stroke-miterlimit:10;}
	.st1{fill-rule:evenodd;clip-rule:evenodd;fill:#CCCCCC;}
	.st2{fill-rule:evenodd;clip-rule:evenodd;fill:#FF6600;}
</style>
<g id="底圆_拷贝_11_7_">
	<g id="XMLID_11_">
		<path id="XMLID_12_" class="st0" d="M169.9,10.5C82.9,10.6,10.1,83.4,10,170.4c-0.1,88.5,71.7,160.2,160.1,160.1
			c87-0.1,159.8-72.9,159.9-159.9C330.1,82.2,258.3,10.4,169.9,10.5z"/>
	</g>
</g>
<g>
	<g>
		<g id="形状_2_copy_3_副本_4_10_">
			<g id="XMLID_99_">
				<path id="XMLID_100_" class="st1" d="M67.6,195.2c-4.5,8.7-8.4,16.5-13.1,25.6h6.3c1.2-2.2,1.8-3.5,3.2-6.1c3.3,0,5.7,0,9,0
					c-0.7-1.9-1.1-3.3-1.7-4.9h-5c1.5-2.9,2.3-4.6,4.5-8.5c2.3,6.7,4.7,13.4,6.9,19.5h5.7c-3.2-9-6-16.7-9-25.6H67.6z M85,220.9h5.4
					l1.2-25.7l-5.4,0L85,220.9z M93.5,220.9h5.7l0.7-19.1h-5.5L93.5,220.9z M94.7,195.2l-0.2,4.1c0,0,4.2,0,5.4,0l0.2-4.1
					C95.3,195.2,95.2,195.2,94.7,195.2z M129.6,201.8c-1-0.4-2-0.5-3.1-0.5c-0.6,0-1.3,0.1-1.9,0.2c-0.6,0.1-1.1,0.3-1.6,0.5
					c-0.5,0.2-0.9,0.5-1.3,0.8c-0.4,0.3-0.7,0.6-0.9,0.9c-0.2,0.3-0.5,0.7-0.8,1.1c-0.3-0.6-0.5-1.1-0.7-1.4
					c-0.2-0.3-0.5-0.6-0.8-0.8c-0.3-0.2-0.7-0.5-1.1-0.7c-0.4-0.2-0.9-0.3-1.4-0.5c-0.5-0.1-1.1-0.2-1.6-0.2c-0.8,0-1.5,0.1-2.2,0.3
					c-0.7,0.2-1.3,0.4-1.9,0.7c-0.5,0.3-1,0.7-1.3,1c-0.3,0.4-0.7,0.8-1.1,1.4l0.1-3H103l-0.8,19.1c0,0,4.2,0,5.4,0
					c0-1.6,0.1-3.9,0.2-6.6c0.1-2.8,0.4-4.7,0.7-5.6c0.3-1,0.8-1.7,1.5-2.3c0.7-0.6,1.4-0.9,2.3-0.9c0.5,0,0.9,0.1,1.3,0.2
					c0.4,0.2,0.7,0.4,0.9,0.8c0.3,0.3,0.5,0.7,0.5,1.1c0.1,0.4,0.1,0.8,0.1,1.4c0,1-0.1,3.1-0.2,6c-0.2,3-0.3,5-0.4,5.9
					c1.2,0,4.3,0,5.4,0l0.1-5.2c0.1-1.9,0.1-3.4,0.2-4.5c0.1-1.1,0.3-2,0.5-2.7c0.2-0.6,0.5-1.2,0.9-1.7c0.4-0.5,0.8-0.8,1.3-1
					c0.5-0.2,1-0.3,1.5-0.3c0.5,0,1,0.1,1.5,0.3c0.4,0.2,0.8,0.5,1.1,1c0.3,0.5,0.4,1.1,0.4,2c0,0.8,0,1.7-0.1,2.8l-0.2,4.3
					c-0.1,1.8-0.2,3.5-0.3,5.1c1.1,0,4.4,0,5.4,0c0-1.4,0.1-3.5,0.2-6.1c0.1-2.6,0.2-4.5,0.3-5.7c0.1-1.2,0.1-2.1,0.1-2.7
					c0-1.1-0.3-2.1-0.8-2.9C131.3,202.7,130.6,202.2,129.6,201.8z M149.9,201.8c-1.2-0.3-2.4-0.5-3.8-0.5c-1.2,0-2.5,0.1-3.8,0.2
					c-1.3,0.2-4.5,0.8-4.5,0.8l-0.6,3.6c0,0,5.3-1.6,7.6-1.6c0.6,0,1.2,0.1,1.7,0.2c0.5,0.1,0.9,0.4,1.2,0.7
					c0.3,0.3,0.5,0.8,0.5,1.2c0,0.3-0.1,0.5-0.2,0.7c-0.1,0.2-0.3,0.5-0.5,0.7c-0.2,0.2-0.5,0.4-0.8,0.5c-0.3,0.1-0.7,0.3-1.2,0.4
					c-0.5,0.1-1,0.3-1.5,0.4c-1.8,0.4-3.2,0.8-4.3,1.2c-1.1,0.4-1.9,0.8-2.5,1.2c-0.6,0.4-1,0.8-1.4,1.3c-0.4,0.4-0.6,0.9-0.8,1.4
					c-0.2,0.5-0.3,1.1-0.3,1.6c0,0.9,0.2,1.9,0.7,2.8c0.5,0.9,1.2,1.6,2.3,2c1,0.4,2.3,0.6,3.9,0.6c0.5,0,0.9,0,1.5-0.1
					c0.5,0,1.2-0.1,2.1-0.3c0.4-1.4,0.7-2.5,0.9-3.2c-0.8,0.3-1.4,0.4-1.8,0.5c-0.4,0.1-0.9,0.1-1.3,0.1c-0.6,0-1.2-0.1-1.6-0.2
					c-0.5-0.1-0.8-0.4-1.2-0.8c-0.3-0.4-0.5-0.8-0.5-1.4c0-0.3,0.1-0.6,0.2-0.9c0.1-0.3,0.3-0.6,0.6-0.8c0.3-0.3,0.6-0.5,1-0.7
					c0.4-0.2,0.8-0.4,1.3-0.6c0.5-0.2,1.1-0.4,1.9-0.6c0.8-0.2,1.3-0.4,1.7-0.5c0.3-0.1,0.6-0.2,0.8-0.4c0.3-0.1,0.6-0.3,1.1-0.7
					l-0.6,9.9h5.3c0,0,0.2-6.1,0.4-9.1c0.2-2.9,0.3-4.7,0.3-5.5c0-1.3-0.3-2.3-1-3C152,202.6,151.1,202.1,149.9,201.8z M183.5,201.8
					c-1-0.4-2-0.5-3.1-0.5c-0.6,0-1.3,0.1-1.9,0.2c-0.6,0.1-1.1,0.3-1.6,0.5c-0.5,0.2-0.9,0.5-1.3,0.8c-0.4,0.3-0.7,0.6-0.9,0.9
					c-0.2,0.3-0.5,0.7-0.8,1.1c-0.3-0.6-0.5-1.1-0.7-1.4c-0.2-0.3-0.5-0.6-0.8-0.8c-0.3-0.2-0.7-0.5-1.1-0.7
					c-0.4-0.2-0.9-0.3-1.4-0.5c-0.5-0.1-1.1-0.2-1.6-0.2c-0.8,0-1.5,0.1-2.2,0.3c-0.7,0.2-1.3,0.4-1.9,0.7c-0.5,0.3-1,0.7-1.3,1
					c-0.3,0.4-0.7,0.8-1.1,1.4l0.1-3h-5.1l-0.8,19.1h5.4c0,0,0.1-3.9,0.2-6.6c0.1-2.8,0.4-4.7,0.7-5.6c0.3-1,0.8-1.7,1.5-2.3
					c0.7-0.6,1.4-0.9,2.3-0.9c0.5,0,0.9,0.1,1.3,0.2c0.4,0.2,0.7,0.4,1,0.8c0.3,0.3,0.4,0.7,0.5,1.1c0.1,0.4,0.1,0.8,0.1,1.4
					c0,1-0.1,3.1-0.2,6c-0.2,3-0.3,5-0.4,5.9c1.2,0,4.3,0,5.4,0l0.1-5.2c0.1-1.9,0.1-3.4,0.2-4.5c0.1-1.1,0.3-2,0.5-2.7
					c0.2-0.6,0.5-1.2,0.9-1.7c0.4-0.5,0.8-0.8,1.3-1c0.5-0.2,1-0.3,1.5-0.3c0.5,0,1,0.1,1.5,0.3c0.4,0.2,0.8,0.5,1.1,1
					c0.3,0.5,0.4,1.1,0.4,2c0,0.8,0,1.7-0.1,2.8l-0.2,4.3c-0.1,1.8-0.2,3.5-0.3,5.1c1.1,0,4.4,0,5.4,0c0-1.4,0.1-3.5,0.2-6.1
					c0.1-2.6,0.2-4.5,0.3-5.7c0.1-1.2,0.1-2.1,0.1-2.7c0-1.1-0.3-2.1-0.8-2.9C185.3,202.7,184.5,202.2,183.5,201.8z M203.9,201.8
					c-1.2-0.3-2.4-0.5-3.8-0.5c-1.2,0-2.5,0.1-3.8,0.2c-1.3,0.2-4.5,0.8-4.5,0.8l-0.6,3.6c0,0,5.3-1.6,7.6-1.6
					c0.6,0,1.2,0.1,1.7,0.2c0.5,0.1,0.9,0.4,1.2,0.7c0.3,0.3,0.5,0.8,0.5,1.2c0,0.3-0.1,0.5-0.2,0.7c-0.1,0.2-0.3,0.5-0.5,0.7
					c-0.2,0.2-0.5,0.4-0.8,0.5c-0.3,0.1-0.7,0.3-1.2,0.4c-0.5,0.1-1,0.3-1.5,0.4c-1.8,0.4-3.2,0.8-4.3,1.2c-1.1,0.4-1.9,0.8-2.5,1.2
					c-0.6,0.4-1,0.8-1.4,1.3c-0.4,0.4-0.6,0.9-0.8,1.4c-0.2,0.5-0.3,1.1-0.3,1.6c0,0.9,0.2,1.9,0.7,2.8c0.5,0.9,1.2,1.6,2.3,2
					c1,0.4,2.3,0.6,3.9,0.6c0.5,0,0.9,0,1.5-0.1c0.5,0,1.2-0.1,2.1-0.3c0.4-1.4,0.7-2.5,0.9-3.2c-0.8,0.3-1.4,0.4-1.8,0.5
					c-0.4,0.1-0.9,0.1-1.3,0.1c-0.6,0-1.2-0.1-1.6-0.2c-0.5-0.1-0.9-0.4-1.2-0.8c-0.3-0.4-0.5-0.8-0.5-1.4c0-0.3,0.1-0.6,0.2-0.9
					c0.1-0.3,0.3-0.6,0.6-0.8c0.3-0.3,0.6-0.5,1-0.7c0.4-0.2,0.8-0.4,1.3-0.6c0.5-0.2,1.1-0.4,1.9-0.6c0.8-0.2,1.3-0.4,1.7-0.5
					c0.3-0.1,0.6-0.2,0.8-0.4c0.3-0.1,0.6-0.3,1.1-0.7l-0.6,9.9h5.3c0,0,0.2-6.1,0.4-9.1c0.2-2.9,0.3-4.7,0.3-5.5c0-1.3-0.3-2.3-1-3
					C205.9,202.6,205,202.1,203.9,201.8z M209.9,215.8c-0.1,2.5-0.2,4.2-0.2,5.1c1.8,0,5.3,0,5.3,0s0.2-4.1,0.3-5.1
					C213.8,215.8,209.9,215.8,209.9,215.8z M223.9,206.9c0.5-0.6,1.2-1.1,2-1.4c0.8-0.3,1.6-0.4,2.4-0.4c1.4,0,3,0.3,4.9,1l-0.3-4.1
					c-1.2-0.3-2.2-0.5-3.1-0.6c-0.9-0.1-1.7-0.1-2.5-0.1c-1.5,0-2.8,0.2-4,0.5c-1.2,0.3-2.3,1-3.3,1.9c-1,0.9-1.7,2.1-2.2,3.6
					c-0.5,1.5-0.8,3-0.8,4.6c0,1.2,0.2,2.3,0.5,3.5c0.3,1.1,0.8,2.1,1.4,2.9c0.6,0.8,1.3,1.4,2.1,1.9c0.8,0.5,1.7,0.8,2.6,1
					c0.9,0.2,1.9,0.3,2.9,0.3c1.7,0,3.5-0.2,5.3-0.6c0.1-1,0.3-1.8,0.4-2.4c0.1-0.7,0.2-1.2,0.3-1.7c-0.9,0.3-1.8,0.6-2.6,0.7
					c-0.8,0.1-1.5,0.2-2.1,0.2c-1.2,0-2.2-0.2-3.1-0.7c-0.9-0.5-1.5-1.2-1.9-2c-0.4-0.9-0.6-1.9-0.6-3.1c0-0.9,0.1-1.7,0.4-2.5
					C223,208.3,223.3,207.6,223.9,206.9z M252.6,203.8c-0.9-0.8-2.1-1.5-3.4-1.9c-1.3-0.4-2.7-0.6-4.2-0.6c-1.6,0-3.1,0.3-4.5,0.8
					c-1.5,0.5-2.7,1.3-3.6,2.3c-0.9,1-1.6,2.1-2.1,3.3c-0.4,1.3-0.7,2.6-0.7,3.9c0,1.4,0.2,2.6,0.7,3.9c0.5,1.2,1.2,2.3,2.1,3.2
					c0.9,0.9,2.1,1.5,3.4,1.9c1.3,0.4,2.7,0.6,4.2,0.6c1.6,0,3.1-0.2,4.4-0.7c1.4-0.5,2.5-1.2,3.5-2.2c0.9-1,1.6-2.1,2.1-3.5
					c0.5-1.3,0.7-2.7,0.7-4.1c0-1.4-0.2-2.6-0.7-3.9C254.2,205.7,253.5,204.7,252.6,203.8z M249.4,214.3c-0.4,1.1-1,1.9-1.9,2.4
					c-0.8,0.5-1.8,0.8-2.9,0.8c-1.1,0-2-0.3-2.8-0.8c-0.8-0.5-1.3-1.2-1.7-2.1c-0.3-0.9-0.5-1.8-0.5-2.9c0-1.2,0.2-2.4,0.6-3.4
					c0.4-1.1,1.1-1.8,1.9-2.4c0.9-0.5,1.8-0.8,2.9-0.8c1.1,0,2,0.3,2.8,0.8c0.8,0.5,1.3,1.2,1.6,2.1c0.3,0.9,0.5,1.8,0.5,2.8
					C250,212.1,249.8,213.3,249.4,214.3z M286.4,203.5c-0.6-0.8-1.3-1.3-2.3-1.7c-1-0.4-2-0.5-3.1-0.5c-0.6,0-1.3,0.1-1.9,0.2
					c-0.6,0.1-1.1,0.3-1.6,0.5c-0.5,0.2-0.9,0.5-1.3,0.8c-0.4,0.3-0.7,0.6-0.9,0.9c-0.2,0.3-0.5,0.7-0.8,1.1
					c-0.3-0.6-0.5-1.1-0.7-1.4c-0.2-0.3-0.5-0.6-0.8-0.8c-0.3-0.2-0.7-0.5-1.1-0.7c-0.4-0.2-0.9-0.3-1.4-0.5
					c-0.5-0.1-1.1-0.2-1.6-0.2c-0.8,0-1.5,0.1-2.2,0.3c-0.7,0.2-1.3,0.4-1.9,0.7c-0.5,0.3-1,0.7-1.3,1c-0.3,0.4-0.7,0.8-1.1,1.4
					l0.1-3c-0.9,0-4,0-5.1,0c0,2.1-0.7,17-0.8,19.1c1.2,0,4.2,0,5.4,0c0-1.6,0.1-3.9,0.2-6.6c0.1-2.8,0.4-4.7,0.7-5.6
					c0.3-1,0.8-1.7,1.5-2.3c0.7-0.6,1.4-0.9,2.3-0.9c0.5,0,0.9,0.1,1.3,0.2c0.4,0.2,0.7,0.4,1,0.8c0.3,0.3,0.4,0.7,0.5,1.1
					c0.1,0.4,0.1,0.8,0.1,1.4c0,1-0.1,3.1-0.2,6c-0.2,3-0.3,5-0.4,5.9c1.2,0,4.3,0,5.4,0l0.1-5.2c0.1-1.9,0.1-3.4,0.2-4.5
					c0.1-1.1,0.3-2,0.5-2.7c0.2-0.6,0.5-1.2,0.9-1.7c0.4-0.5,0.8-0.8,1.3-1c0.5-0.2,1-0.3,1.5-0.3c0.5,0,1,0.1,1.5,0.3
					c0.4,0.2,0.8,0.5,1.1,1c0.3,0.5,0.4,1.1,0.4,2c0,0.8,0,1.7-0.1,2.8l-0.2,4.3c-0.1,1.8-0.2,3.5-0.3,5.1c1.1,0,4.4,0,5.4,0
					c0-1.4,0.1-3.5,0.2-6.1c0.1-2.6,0.2-4.5,0.3-5.7c0.1-1.2,0.1-2.1,0.1-2.7C287.2,205.2,286.9,204.3,286.4,203.5z"/>
			</g>
		</g>
		<g id="形状_2_copy_3_副本_5_10_">
			<g id="XMLID_104_">
				<path id="XMLID_105_" class="st2" d="M77,141.5c8,0,16,0,24,0c0,11.9,0,24.3,0,35.4c0,0.7-0.9,1.8-1.9,1.8c-1.3,0-1.8,0-3.4,0
					v5.8c1.8,0,3.4,0,5.2,0c4.6,0,7.7-2.3,7.7-6.1c0-9.2,0-27.5,0-36.9h2.8V136H77V141.5z M219.4,177.2c2.6,0,1.6,0,4.1,0
					c1.5,0,3.5-1.3,3.5-3.6c0-6.1,0-10.8,0-17c-1.2,0-2.4,0-3.4,0c0-4.6,0-14.2,0-17.7c0-1.4-1.4-3-3.2-3h-25.1v5.5h19.4
					c0,5,0,10.1,0,15.1c-4.6,0-5.3,0-9.3,0c-0.5,0-1.1-0.6-1.1-1c0-2.5,0-6.6,0-9.9c0-0.8-0.8-1.7-2-1.7h-5.7v13.4
					c0,2.6,2.3,4.7,4.7,4.7c0,0,9.8,0,18,0v5h-20c-2.2,0-5.6,2.1-5.6,5.6c6.9,0,18-0.2,25.6-0.2C219.4,174,219.4,175.5,219.4,177.2z
					 M97.3,168.8c0-6.3,0-15.3,0-23.9h-20v30.4c5.8,0,13.2,0,13.2,0C95.6,175.3,97.3,172.5,97.3,168.8z M88.8,169.8c-1.4,0-3,0-5,0
					v-19c2.2,0,4.6,0,6.8,0c0,5.8,0,12.2,0,17.2C90.6,169,89.9,169.8,88.8,169.8z M54.5,137.4c0,10.9,0,25.2,0,47.1h7.4
					c0-13.7,0-28.7,0-43c1.7,0,3.8,0,5.5,0c0,8.2,0,15.6,0,23.3c0,3.2-2.8,4.3-2.8,4.3v6.1c5.2,0,9.9-5.4,9.9-10.2
					c0-8.8,0-20.1,0-29c-6.7,0-11.8,0-18.4,0C54.5,136,54.5,137.4,54.5,137.4z M284.6,156.6c0-4.6,0-14.2,0-17.7c0-1.4-1.4-3-3.2-3
					h-25.1v5.5c6.4,0,12.9,0,19.4,0v15.1c-4.6,0-5.3,0-9.3,0c-0.5,0-1.1-0.6-1.1-1c0-2.5,0-6.6,0-9.9c0-0.8-0.8-1.6-2-1.6
					c-1.6,0-3.9,0-5.7,0v13.3c0,2.6,2.3,4.7,4.7,4.7c0,0,9.8,0,18,0v5h-19.7c-2.2,0-5.7,1.9-5.7,5.4c6.9,0,17.9,0,25.4,0v5.1
					c0,0.9-0.7,1.3-1.7,1.3h-2.9c0,2.5,0,3.9,0,5.5h4.5c1.4,0,1.1,0,2.4,0c3.8,0,5.4-2.7,5.3-4.8c0-7,0-16.1,0-23
					C286.8,156.6,285.6,156.6,284.6,156.6z M249,175.3c2.7-3,4.2-6.4,4.5-13.1c0-7.2,0-14.2,0-21.4c0-0.6-0.8-1.4-1.5-1.4
					c-2.8,0-6.4,0-9.5,0V136h-7.4c0,1.1,0,2.2,0,3.4c-0.8,0-1.7,0-2.5,0v5.5h2.5v17.3c0,6.7,2.2,10,4.9,13.1
					c-3.3,2.2-6.6,3.7-11.1,3.7c-0.6,0-1.3,0-1.9,0c-6.9,0-15.3,0-22.7,0c-6.9,0-13.6-1.3-16.1-4.3c2.4-3.2,3.6-5.8,4.4-12.5
					c0-6.7,0-12.4,0-20.9c-0.1-0.9-0.9-1.8-1.8-1.8c-2.9,0-5.8,0-9.4,0V136c-3,0-4.2,0-7.2,0v3.4c-0.8,0-1.4,0-2.5,0v5.5
					c1.1,0,1.7,0,2.5,0c0,5.7,0,12,0,17.2c0.6,6.7,2.7,8.9,5.3,12.8c-3.7,2.6-8.3,3.8-13.6,4c-6.3,0-12,0-20,0c0-1.4,0-3.3,0-4.3h20
					v-5.8h-20c0-1.4,0-2.9,0-4.3c5.8,0,13.3,0,15.1,0c0,0,4.9,0,4.9-5.4c0.1-5.6,0-15.7,0-23.2c-15.8,0-31.9,0-47.7,0
					c-0.8,0-1.5,0.8-1.5,1.4c0,1.2,0,18.8,0,27.1c6.7,0,13.3,0,20,0v4.3h-20c0,1.8,0,3.9,0,5.8h20c0,1.4,0,2.9,0,4.3h-23.4
					c0,1.6,0,3.7,0,5.5c17.6,0,39.3,0.1,56.3,0c4.6,0,10.3-2.4,14.4-4.8c5.2,4,10.9,4.8,20.3,4.8c2.9,0,6.1,0,9.6,0
					c4.9,0,9.3,0,13.2,0c7.9,0,13-1.7,17.8-4.6c4.5,2.7,8.8,4.4,15.7,4.6v0h10.6V179h-10.6C255.9,178.5,252,177.8,249,175.3z
					 M136.6,159h-12.3v-5.8h12.3V159z M136.6,147.4h-12.3v-5.8c4.1,0,8.2,0,12.3,0V147.4z M145.9,141.5h12.3v5.8h-12.3V141.5z
					 M145.9,153.2c4.1,0,8.2,0,12.3,0c0,2.3,0,4.2,0,5.8h-12.3C145.9,157.5,145.9,155.1,145.9,153.2z M185.6,162.2
					c-0.3,3.8-0.9,4.8-1.8,7.3c-1.2-2.4-2.1-3.5-2.4-7.3c0-5,0-12,0-17.2h4.2V162.2z M246.6,162.2c-0.1,3.6-1,5.3-2,7.3
					c-1.2-1.9-2.1-3.9-2.2-7.3c0-5.3,0-11.8,0-17.3h4.1C246.6,150.4,246.6,156.8,246.6,162.2z"/>
			</g>
		</g>
	</g>
</g>
</svg>
