<?xml version="1.0" encoding="utf-8"?>
<!-- Generator: Adobe Illustrator 16.0.0, SVG Export Plug-In . SVG Version: 6.00 Build 0)  -->
<!DOCTYPE svg PUBLIC "-//W3C//DTD SVG 1.1//EN" "http://www.w3.org/Graphics/SVG/1.1/DTD/svg11.dtd" [
	<!ENTITY ns_extend "http://ns.adobe.com/Extensibility/1.0/">
	<!ENTITY ns_ai "http://ns.adobe.com/AdobeIllustrator/10.0/">
	<!ENTITY ns_graphs "http://ns.adobe.com/Graphs/1.0/">
	<!ENTITY ns_vars "http://ns.adobe.com/Variables/1.0/">
	<!ENTITY ns_imrep "http://ns.adobe.com/ImageReplacement/1.0/">
	<!ENTITY ns_sfw "http://ns.adobe.com/SaveForWeb/1.0/">
	<!ENTITY ns_custom "http://ns.adobe.com/GenericCustomNamespace/1.0/">
	<!ENTITY ns_adobe_xpath "http://ns.adobe.com/XPath/1.0/">
]>
<svg version="1.1" id="图层_1" xmlns:x="&ns_extend;" xmlns:i="&ns_ai;" xmlns:graph="&ns_graphs;"
	 xmlns="http://www.w3.org/2000/svg" xmlns:xlink="http://www.w3.org/1999/xlink" x="0px" y="0px" width="950.125px"
	 height="189.834px" viewBox="0 0 950.125 189.834" enable-background="new 0 0 950.125 189.834" xml:space="preserve">
<metadata>
	<sfw  xmlns="&ns_sfw;">
		<slices></slices>
		<sliceSourceBounds  height="192.5" width="966" x="-83.5" y="209" bottomLeftOrigin="true"></sliceSourceBounds>
	</sfw>
</metadata>
<rect fill="#FFC795" width="130" height="30"/>
<rect y="30" fill="#FFF9F4" width="130" height="160"/>
<rect x="130" y="30" fill="#FFF6EF" width="200" height="160"/>
<rect x="130" fill="#FFAA5E" width="200" height="30"/>
<rect x="330" fill="#FF8533" width="340" height="30"/>
<rect x="330" y="30" fill="#FFF3EA" width="340" height="160"/>
<rect x="669.974" y="30.006" fill="#FFEFE5" width="280" height="160"/>
<rect x="670" fill="#FF6600" width="280" height="30"/>
<rect x="9.75" y="9.75" fill="none" width="16" height="13.75"/>
<text transform="matrix(1 0 0 1 9.7495 20.0225)" fill="#333333" font-family="'MicrosoftYaHeiUILight'" font-size="12">0s</text>
<rect x="139.75" y="9.75" fill="none" width="35.25" height="13.75"/>
<text transform="matrix(1 0 0 1 139.7495 20.0225)" fill="#333333" font-family="'MicrosoftYaHeiUILight'" font-size="12">0.1s</text>
<rect x="339.75" y="9.75" fill="none" width="35.25" height="13.75"/>
<text transform="matrix(1 0 0 1 339.7495 20.0225)" fill="#333333" font-family="'MicrosoftYaHeiUILight'" font-size="12">2s</text>
<rect x="679.75" y="9.75" fill="none" width="35.25" height="13.75"/>
<text transform="matrix(1 0 0 1 679.749 20.0225)" fill="#333333" font-family="'MicrosoftYaHeiUILight'" font-size="12">10s</text>
<rect x="930.75" y="6.75" fill="none" width="35.25" height="13.75"/>
<text transform="matrix(1 0 0 1 930.749 17.0225)" fill="#333333" font-family="'MicrosoftYaHeiUILight'" font-size="12">...</text>
<rect x="10" y="90" fill="none" width="109.5" height="102.5"/>
<text transform="matrix(1 0 0 1 9.9995 100.2461)" fill="#333333" font-family="'MicrosoftYaHeiUILight'" font-size="12">无需展现加载状态，</text>
<text transform="matrix(1 0 0 1 9.9995 130.2461)" fill="#333333" font-family="'MicrosoftYaHeiUILight'" font-size="12">直接跳转页面。</text>
<rect x="10.25" y="50.25" fill="none" width="109.5" height="102.5"/>
<text transform="matrix(1 0 0 1 10.2495 60.5225)" fill="#FF6600" font-family="'MicrosoftYaHeiUILight'" font-size="12">飞快</text>
<rect x="150" y="90" fill="none" width="109.5" height="102.5"/>
<text transform="matrix(1 0 0 1 149.9995 100.2725)" fill="#333333" font-family="'MicrosoftYaHeiUILight'" font-size="12">仅需展现加载状态</text>
<rect x="150.25" y="50.25" fill="none" width="109.5" height="102.5"/>
<text transform="matrix(1 0 0 1 150.2495 60.5225)" fill="#FF6600" font-family="'MicrosoftYaHeiUILight'" font-size="12">轻快</text>
<rect x="340" y="90" fill="none" width="312.833" height="102.5"/>
<text transform="matrix(1 0 0 1 339.9995 100.2725)" fill="#333333" font-family="'MicrosoftYaHeiUILight'" font-size="12">需展现加载进度条显示实时进度</text>
<rect x="340.25" y="50.25" fill="none" width="109.5" height="102.5"/>
<text transform="matrix(1 0 0 1 340.2495 60.5225)" fill="#FF6600" font-family="'MicrosoftYaHeiUILight'" font-size="12">迟慢</text>
<rect x="680" y="90" fill="none" width="188.168" height="102.5"/>
<text transform="matrix(1 0 0 1 679.999 100.2461)" fill="#333333" font-family="'MicrosoftYaHeiUILight'" font-size="12">需展现加载进度条、百分比数值显示</text>
<text transform="matrix(1 0 0 1 679.999 130.248)" fill="#333333" font-family="'MicrosoftYaHeiUILight'" font-size="12">并按场景提供可关闭选项</text>
<rect x="680.25" y="50.25" fill="none" width="109.5" height="102.5"/>
<text transform="matrix(1 0 0 1 680.249 60.5225)" fill="#FF6600" font-family="'MicrosoftYaHeiUILight'" font-size="12">缓慢</text>
</svg>
