<?xml version="1.0" encoding="utf-8"?>
<!-- Generator: Adobe Illustrator 17.1.0, SVG Export Plug-In . SVG Version: 6.00 Build 0)  -->
<!DOCTYPE svg PUBLIC "-//W3C//DTD SVG 1.1//EN" "http://www.w3.org/Graphics/SVG/1.1/DTD/svg11.dtd">
<svg version="1.1" id="图层_1" xmlns="http://www.w3.org/2000/svg" xmlns:xlink="http://www.w3.org/1999/xlink" x="0px" y="0px"
	 viewBox="0 0 130 130" style="enable-background:new 0 0 130 130;" xml:space="preserve">
<g id="_x31_6方格">
	<g>
		<path style="fill-rule:evenodd;clip-rule:evenodd;fill:#EBEBEB;" d="M129.6,18.4v-1h-16v-16h-1v16h-15v-16h-1v16h-15v-16h-1v16
			h-30v-16h-1v16h-16v-16h-1v16h-15v-16h-1v16h-15v1h15v15h-15v1h15v15h-15v1h15v31h-15v1h15v15h-15v1h15v15h-15v1h15v15h1v-15h15
			v15h1v-15h16v15h1v-15h30v15h1v-15h15v15h1v-15h15v15h1v-15h16v-1h-16v-15h16v-1h-16v-15h16v-1h-16v-31h16v-1h-16v-15h16v-1h-16
			v-15H129.6z M96.6,18.4v15h-15v-15H96.6z M50.6,49.4v-15h30v15H50.6z M80.6,50.4v31h-30v-31H80.6z M49.6,49.4h-16v-15h16V49.4z
			 M49.6,50.4v31h-16v-31H49.6z M49.6,82.4v15h-16v-15H49.6z M50.6,82.4h30v15h-30V82.4z M81.6,82.4h15v15h-15V82.4z M81.6,81.4v-31
			h15v31H81.6z M81.6,49.4v-15h15v15H81.6z M80.6,18.4v15h-30v-15H80.6z M49.6,18.4v15h-16v-15H49.6z M17.6,18.4h15v15h-15V18.4z
			 M17.6,34.4h15v15h-15V34.4z M17.6,50.4h15v31h-15V50.4z M17.6,82.4h15v15h-15V82.4z M17.6,113.4v-15h15v15H17.6z M33.6,113.4v-15
			h16v15H33.6z M50.6,113.4v-15h30v15H50.6z M81.6,113.4v-15h15v15H81.6z M112.6,113.4h-15v-15h15V113.4z M112.6,97.4h-15v-15h15
			V97.4z M112.6,81.4h-15v-31h15V81.4z M112.6,49.4h-15v-15h15V49.4z M112.6,33.4h-15v-15h15V33.4z"/>
	</g>
</g>
<g id="米格">
	<g>
		<path style="fill-rule:evenodd;clip-rule:evenodd;fill:#CCCCCC;" d="M128.6,1.4h-63h-1h-62h-1v1v63v1v62v1h1h62h1h63h1v-1v-62v-1
			v-63v-1H128.6z M127.9,2.4L65.6,64.7V2.4H127.9z M64.6,2.4v62.3l-62-62V2.4H64.6z M2.6,4.1l61.3,61.3H2.6V4.1z M63.9,66.4
			L2.6,127.7V66.4H63.9z M3.3,128.4l61.3-61.3v61.3H3.3z M65.6,128.4V67.1l61.3,61.3H65.6z M128.6,128.4h-0.3l-62-62h62.3V128.4z
			 M66.3,65.4l62.3-62.3v62.3H66.3z M128.6,2.4L128.6,2.4L128.6,2.4L128.6,2.4z"/>
	</g>
</g>
<path style="fill:none;stroke:#999999;stroke-miterlimit:10;" d="M109.6,113.4c0,4.4-3.6,8-8,8h-72c-4.4,0-8-3.6-8-8v-96
	c0-4.4,3.6-8,8-8h72c4.4,0,8,3.6,8,8V113.4z"/>
<path style="fill:none;stroke:#999999;stroke-miterlimit:10;" d="M117.6,109.4c0,4.4-3.6,8-8,8h-88c-4.4,0-8-3.6-8-8v-88
	c0-4.4,3.6-8,8-8h88c4.4,0,8,3.6,8,8V109.4z"/>
<circle style="fill:none;stroke:#999999;stroke-miterlimit:10;" cx="65.6" cy="65.4" r="56"/>
<path style="fill:none;stroke:#999999;stroke-miterlimit:10;" d="M121.6,101.4c0,4.4-3.6,8-8,8h-96c-4.4,0-8-3.6-8-8v-72
	c0-4.4,3.6-8,8-8h96c4.4,0,8,3.6,8,8V101.4z"/>
</svg>
