<?xml version="1.0" encoding="utf-8"?>
<!-- Generator: Adobe Illustrator 17.1.0, SVG Export Plug-In . SVG Version: 6.00 Build 0)  -->
<!DOCTYPE svg PUBLIC "-//W3C//DTD SVG 1.1//EN" "http://www.w3.org/Graphics/SVG/1.1/DTD/svg11.dtd">
<svg version="1.1" id="图层_1" xmlns="http://www.w3.org/2000/svg" xmlns:xlink="http://www.w3.org/1999/xlink" x="0px" y="0px"
	 viewBox="0 0 120 120" enable-background="new 0 0 120 120" xml:space="preserve">
<path fill="none" stroke="#CCCCCC" stroke-miterlimit="10" d="M104,108c0,4.4-3.6,8-8,8H24c-4.4,0-8-3.6-8-8V12c0-4.4,3.6-8,8-8h72
	c4.4,0,8,3.6,8,8V108z"/>
<circle fill="none" stroke="#CCCCCC" stroke-miterlimit="10" cx="60" cy="60" r="56"/>
<path fill="none" stroke="#CCCCCC" stroke-miterlimit="10" d="M112,104c0,4.4-3.6,8-8,8H16c-4.4,0-8-3.6-8-8V16c0-4.4,3.6-8,8-8h88
	c4.4,0,8,3.6,8,8V104z"/>
<path fill="#FF6600" fill-opacity="0.2" stroke="#FF6600" stroke-width="2" stroke-miterlimit="10" d="M116,96c0,4.4-3.6,8-8,8H12
	c-4.4,0-8-3.6-8-8V24c0-4.4,3.6-8,8-8h96c4.4,0,8,3.6,8,8V96z"/>
</svg>
