<?xml version="1.0" encoding="utf-8"?>
<!-- Generator: Adobe Illustrator 17.1.0, SVG Export Plug-In . SVG Version: 6.00 Build 0)  -->
<!DOCTYPE svg PUBLIC "-//W3C//DTD SVG 1.1//EN" "http://www.w3.org/Graphics/SVG/1.1/DTD/svg11.dtd">
<svg version="1.1" id="图层_1" xmlns="http://www.w3.org/2000/svg" xmlns:xlink="http://www.w3.org/1999/xlink" x="0px" y="0px"
	 viewBox="0 0 130.3 130.2" enable-background="new 0 0 130.3 130.2" xml:space="preserve">
<g id="_x31_6方格_4_">
	<g>
		<path fill-rule="evenodd" clip-rule="evenodd" fill="#EBEBEB" d="M129.2,18.1v-1h-16v-16h-1v16h-15v-16h-1v16h-15v-16h-1v16h-30
			v-16h-1v16h-16v-16h-1v16h-15v-16h-1v16h-15v1h15v15h-15v1h15v15h-15v1h15v31h-15v1h15v15h-15v1h15v15h-15v1h15v15h1v-15h15v15h1
			v-15h16v15h1v-15h30v15h1v-15h15v15h1v-15h15v15h1v-15h16v-1h-16v-15h16v-1h-16v-15h16v-1h-16v-31h16v-1h-16v-15h16v-1h-16v-15
			H129.2z M96.2,18.1v15h-15v-15H96.2z M50.2,49.1v-15h30v15H50.2z M80.2,50.1v31h-30v-31H80.2z M49.2,49.1h-16v-15h16V49.1z
			 M49.2,50.1v31h-16v-31H49.2z M49.2,82.1v15h-16v-15H49.2z M50.2,82.1h30v15h-30V82.1z M81.2,82.1h15v15h-15V82.1z M81.2,81.1v-31
			h15v31H81.2z M81.2,49.1v-15h15v15H81.2z M80.2,18.1v15h-30v-15H80.2z M49.2,18.1v15h-16v-15H49.2z M17.2,18.1h15v15h-15V18.1z
			 M17.2,34.1h15v15h-15V34.1z M17.2,50.1h15v31h-15V50.1z M17.2,82.1h15v15h-15V82.1z M17.2,113.1v-15h15v15H17.2z M33.2,113.1v-15
			h16v15H33.2z M50.2,113.1v-15h30v15H50.2z M81.2,113.1v-15h15v15H81.2z M112.2,113.1h-15v-15h15V113.1z M112.2,97.1h-15v-15h15
			V97.1z M112.2,81.1h-15v-31h15V81.1z M112.2,49.1h-15v-15h15V49.1z M112.2,33.1h-15v-15h15V33.1z"/>
	</g>
</g>
<g id="米格_6_">
	<g>
		<path fill-rule="evenodd" clip-rule="evenodd" fill="#D9D9D9" d="M1.2,1.1v128h128V1.1H1.2z M127.5,2.1L65.2,64.4V2.1H127.5z
			 M64.2,2.1v62.3l-62-62V2.1H64.2z M2.2,3.8l61.3,61.3H2.2V3.8z M63.5,66.1L2.2,127.4V66.1H63.5z M2.2,128.1L2.2,128.1L2.2,128.1
			L2.2,128.1z M2.9,128.1l61.3-61.3v61.3H2.9z M65.2,128.1V66.8l61.3,61.3H65.2z M128.2,128.1h-0.3l-62-62h62.3V128.1z M65.9,65.1
			l62.3-62.3v62.3H65.9z M128.2,2.1L128.2,2.1L128.2,2.1L128.2,2.1z"/>
	</g>
</g>
<g>
	<g>
		<path fill-rule="evenodd" clip-rule="evenodd" fill="#D9D9D9" d="M59.7,65.1h-17c-1.7,0-3,1.3-3,3s1.3,3,3,3h17c1.7,0,3-1.3,3-3
			S61.4,65.1,59.7,65.1z M70.7,65.1h-2c-1.7,0-3,1.3-3,3s1.3,3,3,3h2c1.7,0,3-1.3,3-3S72.4,65.1,70.7,65.1z M101.7,9.1h-72
			c-4.4,0-8,3.6-8,8v96c0,4.4,3.6,8,8,8h44h8h0V121c13-1.1,27.4-12.2,28-27.9h0v-76C109.7,12.7,106.1,9.1,101.7,9.1z M81.7,113V99.1
			v-4c0-1.1,0.9-2,2-2h6h1h11C101,102.9,90.7,111.8,81.7,113z M101.7,85.1h-20v0c-0.2,0-0.3,0-0.5,0c-4.4,0-7.5,3.6-7.5,8v20h-40
			c-2.2,0-4-1.8-4-4v-88c0-2.2,1.8-4,4-4h64c2.2,0,4,1.8,4,4V85.1z M87.7,29.1h-44h0c-2.2,0-4,1.8-4,4s1.8,4,4,4h0h44
			c2.2,0,4-1.8,4-4S89.9,29.1,87.7,29.1z M87.7,47.1h-44h0c-2.2,0-4,1.8-4,4c0,2.2,1.8,4,4,4h0h44c2.2,0,4-1.8,4-4
			C91.7,48.9,89.9,47.1,87.7,47.1z"/>
	</g>
	<g>
		<path fill="none" stroke="#CCCCCC" stroke-miterlimit="10" d="M59.7,65.1h-17c-1.7,0-3,1.3-3,3s1.3,3,3,3h17c1.7,0,3-1.3,3-3
			S61.4,65.1,59.7,65.1z M70.7,65.1h-2c-1.7,0-3,1.3-3,3s1.3,3,3,3h2c1.7,0,3-1.3,3-3S72.4,65.1,70.7,65.1z M101.7,9.1h-72
			c-4.4,0-8,3.6-8,8v96c0,4.4,3.6,8,8,8h44h8h0V121c13-1.1,27.4-12.2,28-27.9h0v-76C109.7,12.7,106.1,9.1,101.7,9.1z M81.7,113V99.1
			v-4c0-1.1,0.9-2,2-2h6h1h11C101,102.9,90.7,111.8,81.7,113z M101.7,85.1h-20v0c-0.2,0-0.3,0-0.5,0c-4.4,0-7.5,3.6-7.5,8v20h-40
			c-2.2,0-4-1.8-4-4v-88c0-2.2,1.8-4,4-4h64c2.2,0,4,1.8,4,4V85.1z M87.7,29.1h-44h0c-2.2,0-4,1.8-4,4s1.8,4,4,4h0h44
			c2.2,0,4-1.8,4-4S89.9,29.1,87.7,29.1z M87.7,47.1h-44h0c-2.2,0-4,1.8-4,4c0,2.2,1.8,4,4,4h0h44c2.2,0,4-1.8,4-4
			C91.7,48.9,89.9,47.1,87.7,47.1z"/>
	</g>
</g>
<path fill="none" stroke="#999999" stroke-miterlimit="10" d="M109.7,113.1c0,4.4-3.6,8-8,8l-72,0c-4.4,0-8-3.6-8-8v-96
	c0-4.4,3.6-8,8-8h72c4.4,0,8,3.6,8,8V113.1z"/>
<circle fill="none" stroke="#999999" stroke-miterlimit="10" cx="101.7" cy="17.1" r="8"/>
<circle fill="none" stroke="#999999" stroke-miterlimit="10" cx="29.7" cy="17.1" r="8"/>
<circle fill="none" stroke="#999999" stroke-miterlimit="10" cx="29.7" cy="113.1" r="8"/>
<circle fill-rule="evenodd" clip-rule="evenodd" fill="none" stroke="#999999" stroke-miterlimit="10" cx="78.1" cy="89.4" r="32"/>
</svg>
