<?xml version="1.0" encoding="utf-8"?>
<!-- Generator: Adobe Illustrator 17.1.0, SVG Export Plug-In . SVG Version: 6.00 Build 0)  -->
<!DOCTYPE svg PUBLIC "-//W3C//DTD SVG 1.1//EN" "http://www.w3.org/Graphics/SVG/1.1/DTD/svg11.dtd">
<svg version="1.1" id="图层_1" xmlns="http://www.w3.org/2000/svg" xmlns:xlink="http://www.w3.org/1999/xlink" x="0px" y="0px"
	 viewBox="0 0 155.1 162.4" enable-background="new 0 0 155.1 162.4" xml:space="preserve">
<g id="_x33_2线格_5_">
	<g>
		<path fill-rule="evenodd" clip-rule="evenodd" fill="#F2F2F2" d="M2.5,1.4L2.5,1.4l-1,0v128h128V1.4H2.5z M124.5,2.4v3h-3v-3
			H124.5z M64.5,66.4v3h-2v-3H64.5z M62.5,65.4v-3h2v3H62.5z M65.5,66.4h3v3h-3V66.4z M65.5,65.4v-3h3v3H65.5z M65.5,61.4v-3h3v3
			H65.5z M64.5,61.4h-2v-3h2V61.4z M61.5,61.4h-3v-3h3V61.4z M61.5,62.4v3h-3v-3H61.5z M61.5,66.4v3h-3v-3H61.5z M61.5,70.4v3h-3v-3
			H61.5z M62.5,70.4h2v3h-2V70.4z M65.5,70.4h3v3h-3V70.4z M69.5,70.4h3v3h-3V70.4z M69.5,69.4v-3h3v3H69.5z M69.5,65.4v-3h3v3H69.5
			z M69.5,61.4v-3h3v3H69.5z M69.5,57.4v-3h3v3H69.5z M68.5,57.4h-3v-3h3V57.4z M64.5,57.4h-2v-3h2V57.4z M61.5,57.4h-3v-3h3V57.4z
			 M57.5,57.4h-3v-3h3V57.4z M57.5,58.4v3h-3v-3H57.5z M57.5,62.4v3h-3v-3H57.5z M57.5,66.4v3h-3v-3H57.5z M57.5,70.4v3h-3v-3H57.5z
			 M57.5,74.4v3h-3v-3H57.5z M58.5,74.4h3v3h-3V74.4z M62.5,74.4h2v3h-2V74.4z M65.5,74.4h3v3h-3V74.4z M69.5,74.4h3v3h-3V74.4z
			 M73.5,74.4h3v3h-3V74.4z M73.5,73.4v-3h3v3H73.5z M73.5,69.4v-3h3v3H73.5z M73.5,65.4v-3h3v3H73.5z M73.5,61.4v-3h3v3H73.5z
			 M73.5,57.4v-3h3v3H73.5z M73.5,53.4v-3h3v3H73.5z M72.5,53.4h-3v-3h3V53.4z M68.5,53.4h-3v-3h3V53.4z M64.5,53.4h-2v-3h2V53.4z
			 M61.5,53.4h-3v-3h3V53.4z M57.5,53.4h-3v-3h3V53.4z M53.5,53.4h-3v-3h3V53.4z M53.5,54.4v3h-3v-3H53.5z M53.5,58.4v3h-3v-3H53.5z
			 M53.5,62.4v3h-3v-3H53.5z M53.5,66.4v3h-3v-3H53.5z M53.5,70.4v3h-3v-3H53.5z M53.5,74.4v3h-3v-3H53.5z M53.5,78.4v3h-3v-3H53.5z
			 M54.5,78.4h3v3h-3V78.4z M58.5,78.4h3v3h-3V78.4z M62.5,78.4h2v3h-2V78.4z M65.5,78.4h3v3h-3V78.4z M69.5,78.4h3v3h-3V78.4z
			 M73.5,78.4h3v3h-3V78.4z M77.5,78.4h3v3h-3V78.4z M77.5,77.4v-3h3v3H77.5z M77.5,73.4v-3h3v3H77.5z M77.5,69.4v-3h3v3H77.5z
			 M77.5,65.4v-3h3v3H77.5z M77.5,61.4v-3h3v3H77.5z M77.5,57.4v-3h3v3H77.5z M77.5,53.4v-3h3v3H77.5z M77.5,49.4v-3h3v3H77.5z
			 M76.5,49.4h-3v-3h3V49.4z M72.5,49.4h-3v-3h3V49.4z M68.5,49.4h-3v-3h3V49.4z M64.5,49.4h-2v-3h2V49.4z M61.5,49.4h-3v-3h3V49.4z
			 M57.5,49.4h-3v-3h3V49.4z M53.5,49.4h-3v-3h3V49.4z M49.5,49.4h-3v-3h3V49.4z M49.5,50.4v3h-3v-3H49.5z M49.5,54.4v3h-3v-3H49.5z
			 M49.5,58.4v3h-3v-3H49.5z M49.5,62.4v3h-3v-3H49.5z M49.5,66.4v3h-3v-3H49.5z M49.5,70.4v3h-3v-3H49.5z M49.5,74.4v3h-3v-3H49.5z
			 M49.5,78.4v3h-3v-3H49.5z M49.5,82.4v3h-3v-3H49.5z M50.5,82.4h3v3h-3V82.4z M54.5,82.4h3v3h-3V82.4z M58.5,82.4h3v3h-3V82.4z
			 M62.5,82.4h2v3h-2V82.4z M65.5,82.4h3v3h-3V82.4z M69.5,82.4h3v3h-3V82.4z M73.5,82.4h3v3h-3V82.4z M77.5,82.4h3v3h-3V82.4z
			 M81.5,82.4h3v3h-3V82.4z M81.5,81.4v-3h3v3H81.5z M81.5,77.4v-3h3v3H81.5z M81.5,73.4v-3h3v3H81.5z M81.5,69.4v-3h3v3H81.5z
			 M81.5,65.4v-3h3v3H81.5z M81.5,61.4v-3h3v3H81.5z M81.5,57.4v-3h3v3H81.5z M81.5,53.4v-3h3v3H81.5z M81.5,49.4v-3h3v3H81.5z
			 M81.5,45.4v-3h3v3H81.5z M80.5,45.4h-3v-3h3V45.4z M76.5,45.4h-3v-3h3V45.4z M72.5,45.4h-3v-3h3V45.4z M68.5,45.4h-3v-3h3V45.4z
			 M64.5,45.4h-2v-3h2V45.4z M61.5,45.4h-3v-3h3V45.4z M57.5,45.4h-3v-3h3V45.4z M53.5,45.4h-3v-3h3V45.4z M49.5,45.4h-3v-3h3V45.4z
			 M45.5,45.4h-3v-3h3V45.4z M45.5,46.4v3h-3v-3H45.5z M45.5,50.4v3h-3v-3H45.5z M45.5,54.4v3h-3v-3H45.5z M45.5,58.4v3h-3v-3H45.5z
			 M45.5,62.4v3h-3v-3H45.5z M45.5,66.4v3h-3v-3H45.5z M45.5,70.4v3h-3v-3H45.5z M45.5,74.4v3h-3v-3H45.5z M45.5,78.4v3h-3v-3H45.5z
			 M45.5,82.4v3h-3v-3H45.5z M45.5,86.4v3h-3v-3H45.5z M46.5,86.4h3v3h-3V86.4z M50.5,86.4h3v3h-3V86.4z M54.5,86.4h3v3h-3V86.4z
			 M58.5,86.4h3v3h-3V86.4z M62.5,86.4h2v3h-2V86.4z M65.5,86.4h3v3h-3V86.4z M69.5,86.4h3v3h-3V86.4z M73.5,86.4h3v3h-3V86.4z
			 M77.5,86.4h3v3h-3V86.4z M81.5,86.4h3v3h-3V86.4z M85.5,86.4h3v3h-3V86.4z M85.5,85.4v-3h3v3H85.5z M85.5,81.4v-3h3v3H85.5z
			 M85.5,77.4v-3h3v3H85.5z M85.5,73.4v-3h3v3H85.5z M85.5,69.4v-3h3v3H85.5z M85.5,65.4v-3h3v3H85.5z M85.5,61.4v-3h3v3H85.5z
			 M85.5,57.4v-3h3v3H85.5z M85.5,53.4v-3h3v3H85.5z M85.5,49.4v-3h3v3H85.5z M85.5,45.4v-3h3v3H85.5z M85.5,41.4v-3h3v3H85.5z
			 M84.5,41.4h-3v-3h3V41.4z M80.5,41.4h-3v-3h3V41.4z M76.5,41.4h-3v-3h3V41.4z M72.5,41.4h-3v-3h3V41.4z M68.5,41.4h-3v-3h3V41.4z
			 M64.5,41.4h-2v-3h2V41.4z M61.5,41.4h-3v-3h3V41.4z M57.5,41.4h-3v-3h3V41.4z M53.5,41.4h-3v-3h3V41.4z M49.5,41.4h-3v-3h3V41.4z
			 M45.5,41.4h-3v-3h3V41.4z M41.5,41.4h-3v-3h3V41.4z M41.5,42.4v3h-3v-3H41.5z M41.5,46.4v3h-3v-3H41.5z M41.5,50.4v3h-3v-3H41.5z
			 M41.5,54.4v3h-3v-3H41.5z M41.5,58.4v3h-3v-3H41.5z M41.5,62.4v3h-3v-3H41.5z M41.5,66.4v3h-3v-3H41.5z M41.5,70.4v3h-3v-3H41.5z
			 M41.5,74.4v3h-3v-3H41.5z M41.5,78.4v3h-3v-3H41.5z M41.5,82.4v3h-3v-3H41.5z M41.5,86.4v3h-3v-3H41.5z M41.5,90.4v3h-3v-3H41.5z
			 M42.5,90.4h3v3h-3V90.4z M46.5,90.4h3v3h-3V90.4z M50.5,90.4h3v3h-3V90.4z M54.5,90.4h3v3h-3V90.4z M58.5,90.4h3v3h-3V90.4z
			 M62.5,90.4h2v3h-2V90.4z M65.5,90.4h3v3h-3V90.4z M69.5,90.4h3v3h-3V90.4z M73.5,90.4h3v3h-3V90.4z M77.5,90.4h3v3h-3V90.4z
			 M81.5,90.4h3v3h-3V90.4z M85.5,90.4h3v3h-3V90.4z M89.5,90.4h3v3h-3V90.4z M89.5,89.4v-3h3v3H89.5z M89.5,85.4v-3h3v3H89.5z
			 M89.5,81.4v-3h3v3H89.5z M89.5,77.4v-3h3v3H89.5z M89.5,73.4v-3h3v3H89.5z M89.5,69.4v-3h3v3H89.5z M89.5,65.4v-3h3v3H89.5z
			 M89.5,61.4v-3h3v3H89.5z M89.5,57.4v-3h3v3H89.5z M89.5,53.4v-3h3v3H89.5z M89.5,49.4v-3h3v3H89.5z M89.5,45.4v-3h3v3H89.5z
			 M89.5,41.4v-3h3v3H89.5z M89.5,37.4v-3h3v3H89.5z M88.5,37.4h-3v-3h3V37.4z M84.5,37.4h-3v-3h3V37.4z M80.5,37.4h-3v-3h3V37.4z
			 M76.5,37.4h-3v-3h3V37.4z M72.5,37.4h-3v-3h3V37.4z M68.5,37.4h-3v-3h3V37.4z M64.5,37.4h-2v-3h2V37.4z M61.5,37.4h-3v-3h3V37.4z
			 M57.5,37.4h-3v-3h3V37.4z M53.5,37.4h-3v-3h3V37.4z M49.5,37.4h-3v-3h3V37.4z M45.5,37.4h-3v-3h3V37.4z M41.5,37.4h-3v-3h3V37.4z
			 M37.5,37.4h-3v-3h3V37.4z M37.5,38.4v3h-3v-3H37.5z M37.5,42.4v3h-3v-3H37.5z M37.5,46.4v3h-3v-3H37.5z M37.5,50.4v3h-3v-3H37.5z
			 M37.5,54.4v3h-3v-3H37.5z M37.5,58.4v3h-3v-3H37.5z M37.5,62.4v3h-3v-3H37.5z M37.5,66.4v3h-3v-3H37.5z M37.5,70.4v3h-3v-3H37.5z
			 M37.5,74.4v3h-3v-3H37.5z M37.5,78.4v3h-3v-3H37.5z M37.5,82.4v3h-3v-3H37.5z M37.5,86.4v3h-3v-3H37.5z M37.5,90.4v3h-3v-3H37.5z
			 M37.5,94.4v3h-3v-3H37.5z M38.5,94.4h3v3h-3V94.4z M42.5,94.4h3v3h-3V94.4z M46.5,94.4h3v3h-3V94.4z M50.5,94.4h3v3h-3V94.4z
			 M54.5,94.4h3v3h-3V94.4z M58.5,94.4h3v3h-3V94.4z M62.5,94.4h2v3h-2V94.4z M65.5,94.4h3v3h-3V94.4z M69.5,94.4h3v3h-3V94.4z
			 M73.5,94.4h3v3h-3V94.4z M77.5,94.4h3v3h-3V94.4z M81.5,94.4h3v3h-3V94.4z M85.5,94.4h3v3h-3V94.4z M89.5,94.4h3v3h-3V94.4z
			 M93.5,94.4h3v3h-3V94.4z M93.5,93.4v-3h3v3H93.5z M93.5,89.4v-3h3v3H93.5z M93.5,85.4v-3h3v3H93.5z M93.5,81.4v-3h3v3H93.5z
			 M93.5,77.4v-3h3v3H93.5z M93.5,73.4v-3h3v3H93.5z M93.5,69.4v-3h3v3H93.5z M93.5,65.4v-3h3v3H93.5z M93.5,61.4v-3h3v3H93.5z
			 M93.5,57.4v-3h3v3H93.5z M93.5,53.4v-3h3v3H93.5z M93.5,49.4v-3h3v3H93.5z M93.5,45.4v-3h3v3H93.5z M93.5,41.4v-3h3v3H93.5z
			 M93.5,37.4v-3h3v3H93.5z M93.5,33.4v-3h3v3H93.5z M92.5,33.4h-3v-3h3V33.4z M88.5,33.4h-3v-3h3V33.4z M84.5,33.4h-3v-3h3V33.4z
			 M80.5,33.4h-3v-3h3V33.4z M76.5,33.4h-3v-3h3V33.4z M72.5,33.4h-3v-3h3V33.4z M68.5,33.4h-3v-3h3V33.4z M64.5,33.4h-2v-3h2V33.4z
			 M61.5,33.4h-3v-3h3V33.4z M57.5,33.4h-3v-3h3V33.4z M53.5,33.4h-3v-3h3V33.4z M49.5,33.4h-3v-3h3V33.4z M45.5,33.4h-3v-3h3V33.4z
			 M41.5,33.4h-3v-3h3V33.4z M37.5,33.4h-3v-3h3V33.4z M33.5,33.4h-3v-3h3V33.4z M33.5,34.4v3h-3v-3H33.5z M33.5,38.4v3h-3v-3H33.5z
			 M33.5,42.4v3h-3v-3H33.5z M33.5,46.4v3h-3v-3H33.5z M33.5,50.4v3h-3v-3H33.5z M33.5,54.4v3h-3v-3H33.5z M33.5,58.4v3h-3v-3H33.5z
			 M33.5,62.4v3h-3v-3H33.5z M33.5,66.4v3h-3v-3H33.5z M33.5,70.4v3h-3v-3H33.5z M33.5,74.4v3h-3v-3H33.5z M33.5,78.4v3h-3v-3H33.5z
			 M33.5,82.4v3h-3v-3H33.5z M33.5,86.4v3h-3v-3H33.5z M33.5,90.4v3h-3v-3H33.5z M33.5,94.4v3h-3v-3H33.5z M33.5,98.4v3h-3v-3H33.5z
			 M34.5,98.4h3v3h-3V98.4z M38.5,98.4h3v3h-3V98.4z M42.5,98.4h3v3h-3V98.4z M46.5,98.4h3v3h-3V98.4z M50.5,98.4h3v3h-3V98.4z
			 M54.5,98.4h3v3h-3V98.4z M58.5,98.4h3v3h-3V98.4z M62.5,98.4h2v3h-2V98.4z M65.5,98.4h3v3h-3V98.4z M69.5,98.4h3v3h-3V98.4z
			 M73.5,98.4h3v3h-3V98.4z M77.5,98.4h3v3h-3V98.4z M81.5,98.4h3v3h-3V98.4z M85.5,98.4h3v3h-3V98.4z M89.5,98.4h3v3h-3V98.4z
			 M93.5,98.4h3v3h-3V98.4z M97.5,98.4h3v3h-3V98.4z M97.5,97.4v-3h3v3H97.5z M97.5,93.4v-3h3v3H97.5z M97.5,89.4v-3h3v3H97.5z
			 M97.5,85.4v-3h3v3H97.5z M97.5,81.4v-3h3v3H97.5z M97.5,77.4v-3h3v3H97.5z M97.5,73.4v-3h3v3H97.5z M97.5,69.4v-3h3v3H97.5z
			 M97.5,65.4v-3h3v3H97.5z M97.5,61.4v-3h3v3H97.5z M97.5,57.4v-3h3v3H97.5z M97.5,53.4v-3h3v3H97.5z M97.5,49.4v-3h3v3H97.5z
			 M97.5,45.4v-3h3v3H97.5z M97.5,41.4v-3h3v3H97.5z M97.5,37.4v-3h3v3H97.5z M97.5,33.4v-3h3v3H97.5z M97.5,29.4v-3h3v3H97.5z
			 M96.5,29.4h-3v-3h3V29.4z M92.5,29.4h-3v-3h3V29.4z M88.5,29.4h-3v-3h3V29.4z M84.5,29.4h-3v-3h3V29.4z M80.5,29.4h-3v-3h3V29.4z
			 M76.5,29.4h-3v-3h3V29.4z M72.5,29.4h-3v-3h3V29.4z M68.5,29.4h-3v-3h3V29.4z M64.5,29.4h-2v-3h2V29.4z M61.5,29.4h-3v-3h3V29.4z
			 M57.5,29.4h-3v-3h3V29.4z M53.5,29.4h-3v-3h3V29.4z M49.5,29.4h-3v-3h3V29.4z M45.5,29.4h-3v-3h3V29.4z M41.5,29.4h-3v-3h3V29.4z
			 M37.5,29.4h-3v-3h3V29.4z M33.5,29.4h-3v-3h3V29.4z M29.5,29.4h-3v-3h3V29.4z M29.5,30.4v3h-3v-3H29.5z M29.5,34.4v3h-3v-3H29.5z
			 M29.5,38.4v3h-3v-3H29.5z M29.5,42.4v3h-3v-3H29.5z M29.5,46.4v3h-3v-3H29.5z M29.5,50.4v3h-3v-3H29.5z M29.5,54.4v3h-3v-3H29.5z
			 M29.5,58.4v3h-3v-3H29.5z M29.5,62.4v3h-3v-3H29.5z M29.5,66.4v3h-3v-3H29.5z M29.5,70.4v3h-3v-3H29.5z M29.5,74.4v3h-3v-3H29.5z
			 M29.5,78.4v3h-3v-3H29.5z M29.5,82.4v3h-3v-3H29.5z M29.5,86.4v3h-3v-3H29.5z M29.5,90.4v3h-3v-3H29.5z M29.5,94.4v3h-3v-3H29.5z
			 M29.5,98.4v3h-3v-3H29.5z M29.5,102.4v3h-3v-3H29.5z M30.5,102.4h3v3h-3V102.4z M34.5,102.4h3v3h-3V102.4z M38.5,102.4h3v3h-3
			V102.4z M42.5,102.4h3v3h-3V102.4z M46.5,102.4h3v3h-3V102.4z M50.5,102.4h3v3h-3V102.4z M54.5,102.4h3v3h-3V102.4z M58.5,102.4h3
			v3h-3V102.4z M62.5,102.4h2v3h-2V102.4z M65.5,102.4h3v3h-3V102.4z M69.5,102.4h3v3h-3V102.4z M73.5,102.4h3v3h-3V102.4z
			 M77.5,102.4h3v3h-3V102.4z M81.5,102.4h3v3h-3V102.4z M85.5,102.4h3v3h-3V102.4z M89.5,102.4h3v3h-3V102.4z M93.5,102.4h3v3h-3
			V102.4z M97.5,102.4h3v3h-3V102.4z M101.5,102.4h3v3h-3V102.4z M101.5,101.4v-3h3v3H101.5z M101.5,97.4v-3h3v3H101.5z M101.5,93.4
			v-3h3v3H101.5z M101.5,89.4v-3h3v3H101.5z M101.5,85.4v-3h3v3H101.5z M101.5,81.4v-3h3v3H101.5z M101.5,77.4v-3h3v3H101.5z
			 M101.5,73.4v-3h3v3H101.5z M101.5,69.4v-3h3v3H101.5z M101.5,65.4v-3h3v3H101.5z M101.5,61.4v-3h3v3H101.5z M101.5,57.4v-3h3v3
			H101.5z M101.5,53.4v-3h3v3H101.5z M101.5,49.4v-3h3v3H101.5z M101.5,45.4v-3h3v3H101.5z M101.5,41.4v-3h3v3H101.5z M101.5,37.4
			v-3h3v3H101.5z M101.5,33.4v-3h3v3H101.5z M101.5,29.4v-3h3v3H101.5z M101.5,25.4v-3h3v3H101.5z M100.5,25.4h-3v-3h3V25.4z
			 M96.5,25.4h-3v-3h3V25.4z M92.5,25.4h-3v-3h3V25.4z M88.5,25.4h-3v-3h3V25.4z M84.5,25.4h-3v-3h3V25.4z M80.5,25.4h-3v-3h3V25.4z
			 M76.5,25.4h-3v-3h3V25.4z M72.5,25.4h-3v-3h3V25.4z M68.5,25.4h-3v-3h3V25.4z M64.5,25.4h-2v-3h2V25.4z M61.5,25.4h-3v-3h3V25.4z
			 M57.5,25.4h-3v-3h3V25.4z M53.5,25.4h-3v-3h3V25.4z M49.5,25.4h-3v-3h3V25.4z M45.5,25.4h-3v-3h3V25.4z M41.5,25.4h-3v-3h3V25.4z
			 M37.5,25.4h-3v-3h3V25.4z M33.5,25.4h-3v-3h3V25.4z M29.5,25.4h-3v-3h3V25.4z M25.5,25.4h-3v-3h3V25.4z M25.5,26.4v3h-3v-3H25.5z
			 M25.5,30.4v3h-3v-3H25.5z M25.5,34.4v3h-3v-3H25.5z M25.5,38.4v3h-3v-3H25.5z M25.5,42.4v3h-3v-3H25.5z M25.5,46.4v3h-3v-3H25.5z
			 M25.5,50.4v3h-3v-3H25.5z M25.5,54.4v3h-3v-3H25.5z M25.5,58.4v3h-3v-3H25.5z M25.5,62.4v3h-3v-3H25.5z M25.5,66.4v3h-3v-3H25.5z
			 M25.5,70.4v3h-3v-3H25.5z M25.5,74.4v3h-3v-3H25.5z M25.5,78.4v3h-3v-3H25.5z M25.5,82.4v3h-3v-3H25.5z M25.5,86.4v3h-3v-3H25.5z
			 M25.5,90.4v3h-3v-3H25.5z M25.5,94.4v3h-3v-3H25.5z M25.5,98.4v3h-3v-3H25.5z M25.5,102.4v3h-3v-3H25.5z M25.5,106.4v3h-3v-3
			H25.5z M26.5,106.4h3v3h-3V106.4z M30.5,106.4h3v3h-3V106.4z M34.5,106.4h3v3h-3V106.4z M38.5,106.4h3v3h-3V106.4z M42.5,106.4h3
			v3h-3V106.4z M46.5,106.4h3v3h-3V106.4z M50.5,106.4h3v3h-3V106.4z M54.5,106.4h3v3h-3V106.4z M58.5,106.4h3v3h-3V106.4z
			 M62.5,106.4h2v3h-2V106.4z M65.5,106.4h3v3h-3V106.4z M69.5,106.4h3v3h-3V106.4z M73.5,106.4h3v3h-3V106.4z M77.5,106.4h3v3h-3
			V106.4z M81.5,106.4h3v3h-3V106.4z M85.5,106.4h3v3h-3V106.4z M89.5,106.4h3v3h-3V106.4z M93.5,106.4h3v3h-3V106.4z M97.5,106.4h3
			v3h-3V106.4z M101.5,106.4h3v3h-3V106.4z M105.5,106.4h3v3h-3V106.4z M105.5,105.4v-3h3v3H105.5z M105.5,101.4v-3h3v3H105.5z
			 M105.5,97.4v-3h3v3H105.5z M105.5,93.4v-3h3v3H105.5z M105.5,89.4v-3h3v3H105.5z M105.5,85.4v-3h3v3H105.5z M105.5,81.4v-3h3v3
			H105.5z M105.5,77.4v-3h3v3H105.5z M105.5,73.4v-3h3v3H105.5z M105.5,69.4v-3h3v3H105.5z M105.5,65.4v-3h3v3H105.5z M105.5,61.4
			v-3h3v3H105.5z M105.5,57.4v-3h3v3H105.5z M105.5,53.4v-3h3v3H105.5z M105.5,49.4v-3h3v3H105.5z M105.5,45.4v-3h3v3H105.5z
			 M105.5,41.4v-3h3v3H105.5z M105.5,37.4v-3h3v3H105.5z M105.5,33.4v-3h3v3H105.5z M105.5,29.4v-3h3v3H105.5z M105.5,25.4v-3h3v3
			H105.5z M105.5,21.4v-3h3v3H105.5z M104.5,21.4h-3v-3h3V21.4z M100.5,21.4h-3v-3h3V21.4z M96.5,21.4h-3v-3h3V21.4z M92.5,21.4h-3
			v-3h3V21.4z M88.5,21.4h-3v-3h3V21.4z M84.5,21.4h-3v-3h3V21.4z M80.5,21.4h-3v-3h3V21.4z M76.5,21.4h-3v-3h3V21.4z M72.5,21.4h-3
			v-3h3V21.4z M68.5,21.4h-3v-3h3V21.4z M64.5,21.4h-2v-3h2V21.4z M61.5,21.4h-3v-3h3V21.4z M57.5,21.4h-3v-3h3V21.4z M53.5,21.4h-3
			v-3h3V21.4z M49.5,21.4h-3v-3h3V21.4z M45.5,21.4h-3v-3h3V21.4z M41.5,21.4h-3v-3h3V21.4z M37.5,21.4h-3v-3h3V21.4z M33.5,21.4h-3
			v-3h3V21.4z M29.5,21.4h-3v-3h3V21.4z M25.5,21.4h-3v-3h3V21.4z M21.5,21.4h-3v-3h3V21.4z M21.5,22.4v3h-3v-3H21.5z M21.5,26.4v3
			h-3v-3H21.5z M21.5,30.4v3h-3v-3H21.5z M21.5,34.4v3h-3v-3H21.5z M21.5,38.4v3h-3v-3H21.5z M21.5,42.4v3h-3v-3H21.5z M21.5,46.4v3
			h-3v-3H21.5z M21.5,50.4v3h-3v-3H21.5z M21.5,54.4v3h-3v-3H21.5z M21.5,58.4v3h-3v-3H21.5z M21.5,62.4v3h-3v-3H21.5z M21.5,66.4v3
			h-3v-3H21.5z M21.5,70.4v3h-3v-3H21.5z M21.5,74.4v3h-3v-3H21.5z M21.5,78.4v3h-3v-3H21.5z M21.5,82.4v3h-3v-3H21.5z M21.5,86.4v3
			h-3v-3H21.5z M21.5,90.4v3h-3v-3H21.5z M21.5,94.4v3h-3v-3H21.5z M21.5,98.4v3h-3v-3H21.5z M21.5,102.4v3h-3v-3H21.5z M21.5,106.4
			v3h-3v-3H21.5z M21.5,110.4v3h-3v-3H21.5z M22.5,110.4h3v3h-3V110.4z M26.5,110.4h3v3h-3V110.4z M30.5,110.4h3v3h-3V110.4z
			 M34.5,110.4h3v3h-3V110.4z M38.5,110.4h3v3h-3V110.4z M42.5,110.4h3v3h-3V110.4z M46.5,110.4h3v3h-3V110.4z M50.5,110.4h3v3h-3
			V110.4z M54.5,110.4h3v3h-3V110.4z M58.5,110.4h3v3h-3V110.4z M62.5,110.4h2v3h-2V110.4z M65.5,110.4h3v3h-3V110.4z M69.5,110.4h3
			v3h-3V110.4z M73.5,110.4h3v3h-3V110.4z M77.5,110.4h3v3h-3V110.4z M81.5,110.4h3v3h-3V110.4z M85.5,110.4h3v3h-3V110.4z
			 M89.5,110.4h3v3h-3V110.4z M93.5,110.4h3v3h-3V110.4z M97.5,110.4h3v3h-3V110.4z M101.5,110.4h3v3h-3V110.4z M105.5,110.4h3v3h-3
			V110.4z M109.5,110.4h3v3h-3V110.4z M109.5,109.4v-3h3v3H109.5z M109.5,105.4v-3h3v3H109.5z M109.5,101.4v-3h3v3H109.5z
			 M109.5,97.4v-3h3v3H109.5z M109.5,93.4v-3h3v3H109.5z M109.5,89.4v-3h3v3H109.5z M109.5,85.4v-3h3v3H109.5z M109.5,81.4v-3h3v3
			H109.5z M109.5,77.4v-3h3v3H109.5z M109.5,73.4v-3h3v3H109.5z M109.5,69.4v-3h3v3H109.5z M109.5,65.4v-3h3v3H109.5z M109.5,61.4
			v-3h3v3H109.5z M109.5,57.4v-3h3v3H109.5z M109.5,53.4v-3h3v3H109.5z M109.5,49.4v-3h3v3H109.5z M109.5,45.4v-3h3v3H109.5z
			 M109.5,41.4v-3h3v3H109.5z M109.5,37.4v-3h3v3H109.5z M109.5,33.4v-3h3v3H109.5z M109.5,29.4v-3h3v3H109.5z M109.5,25.4v-3h3v3
			H109.5z M109.5,21.4v-3h3v3H109.5z M109.5,17.4v-3h3v3H109.5z M108.5,17.4h-3v-3h3V17.4z M104.5,17.4h-3v-3h3V17.4z M100.5,17.4
			h-3v-3h3V17.4z M96.5,17.4h-3v-3h3V17.4z M92.5,17.4h-3v-3h3V17.4z M88.5,17.4h-3v-3h3V17.4z M84.5,17.4h-3v-3h3V17.4z M80.5,17.4
			h-3v-3h3V17.4z M76.5,17.4h-3v-3h3V17.4z M72.5,17.4h-3v-3h3V17.4z M68.5,17.4h-3v-3h3V17.4z M64.5,17.4h-2v-3h2V17.4z M61.5,17.4
			h-3v-3h3V17.4z M57.5,17.4h-3v-3h3V17.4z M53.5,17.4h-3v-3h3V17.4z M49.5,17.4h-3v-3h3V17.4z M45.5,17.4h-3v-3h3V17.4z M41.5,17.4
			h-3v-3h3V17.4z M37.5,17.4h-3v-3h3V17.4z M33.5,17.4h-3v-3h3V17.4z M29.5,17.4h-3v-3h3V17.4z M25.5,17.4h-3v-3h3V17.4z M21.5,17.4
			h-3v-3h3V17.4z M17.5,17.4h-3v-3h3V17.4z M17.5,18.4v3h-3v-3H17.5z M17.5,22.4v3h-3v-3H17.5z M17.5,26.4v3h-3v-3H17.5z M17.5,30.4
			v3h-3v-3H17.5z M17.5,34.4v3h-3v-3H17.5z M17.5,38.4v3h-3v-3H17.5z M17.5,42.4v3h-3v-3H17.5z M17.5,46.4v3h-3v-3H17.5z M17.5,50.4
			v3h-3v-3H17.5z M17.5,54.4v3h-3v-3H17.5z M17.5,58.4v3h-3v-3H17.5z M17.5,62.4v3h-3v-3H17.5z M17.5,66.4v3h-3v-3H17.5z M17.5,70.4
			v3h-3v-3H17.5z M17.5,74.4v3h-3v-3H17.5z M17.5,78.4v3h-3v-3H17.5z M17.5,82.4v3h-3v-3H17.5z M17.5,86.4v3h-3v-3H17.5z M17.5,90.4
			v3h-3v-3H17.5z M17.5,94.4v3h-3v-3H17.5z M17.5,98.4v3h-3v-3H17.5z M17.5,102.4v3h-3v-3H17.5z M17.5,106.4v3h-3v-3H17.5z
			 M17.5,110.4v3h-3v-3H17.5z M17.5,114.4v3h-3v-3H17.5z M18.5,114.4h3v3h-3V114.4z M22.5,114.4h3v3h-3V114.4z M26.5,114.4h3v3h-3
			V114.4z M30.5,114.4h3v3h-3V114.4z M34.5,114.4h3v3h-3V114.4z M38.5,114.4h3v3h-3V114.4z M42.5,114.4h3v3h-3V114.4z M46.5,114.4h3
			v3h-3V114.4z M50.5,114.4h3v3h-3V114.4z M54.5,114.4h3v3h-3V114.4z M58.5,114.4h3v3h-3V114.4z M62.5,114.4h2v3h-2V114.4z
			 M65.5,114.4h3v3h-3V114.4z M69.5,114.4h3v3h-3V114.4z M73.5,114.4h3v3h-3V114.4z M77.5,114.4h3v3h-3V114.4z M81.5,114.4h3v3h-3
			V114.4z M85.5,114.4h3v3h-3V114.4z M89.5,114.4h3v3h-3V114.4z M93.5,114.4h3v3h-3V114.4z M97.5,114.4h3v3h-3V114.4z M101.5,114.4
			h3v3h-3V114.4z M105.5,114.4h3v3h-3V114.4z M109.5,114.4h3v3h-3V114.4z M113.5,114.4h3v3h-3V114.4z M113.5,113.4v-3h3v3H113.5z
			 M113.5,109.4v-3h3v3H113.5z M113.5,105.4v-3h3v3H113.5z M113.5,101.4v-3h3v3H113.5z M113.5,97.4v-3h3v3H113.5z M113.5,93.4v-3h3
			v3H113.5z M113.5,89.4v-3h3v3H113.5z M113.5,85.4v-3h3v3H113.5z M113.5,81.4v-3h3v3H113.5z M113.5,77.4v-3h3v3H113.5z M113.5,73.4
			v-3h3v3H113.5z M113.5,69.4v-3h3v3H113.5z M113.5,65.4v-3h3v3H113.5z M113.5,61.4v-3h3v3H113.5z M113.5,57.4v-3h3v3H113.5z
			 M113.5,53.4v-3h3v3H113.5z M113.5,49.4v-3h3v3H113.5z M113.5,45.4v-3h3v3H113.5z M113.5,41.4v-3h3v3H113.5z M113.5,37.4v-3h3v3
			H113.5z M113.5,33.4v-3h3v3H113.5z M113.5,29.4v-3h3v3H113.5z M113.5,25.4v-3h3v3H113.5z M113.5,21.4v-3h3v3H113.5z M113.5,17.4
			v-3h3v3H113.5z M113.5,13.4v-3h3v3H113.5z M112.5,13.4h-3v-3h3V13.4z M108.5,13.4h-3v-3h3V13.4z M104.5,13.4h-3v-3h3V13.4z
			 M100.5,13.4h-3v-3h3V13.4z M96.5,13.4h-3v-3h3V13.4z M92.5,13.4h-3v-3h3V13.4z M88.5,13.4h-3v-3h3V13.4z M84.5,13.4h-3v-3h3V13.4
			z M80.5,13.4h-3v-3h3V13.4z M76.5,13.4h-3v-3h3V13.4z M72.5,13.4h-3v-3h3V13.4z M68.5,13.4h-3v-3h3V13.4z M64.5,13.4h-2v-3h2V13.4
			z M61.5,13.4h-3v-3h3V13.4z M57.5,13.4h-3v-3h3V13.4z M53.5,13.4h-3v-3h3V13.4z M49.5,13.4h-3v-3h3V13.4z M45.5,13.4h-3v-3h3V13.4
			z M41.5,13.4h-3v-3h3V13.4z M37.5,13.4h-3v-3h3V13.4z M33.5,13.4h-3v-3h3V13.4z M29.5,13.4h-3v-3h3V13.4z M25.5,13.4h-3v-3h3V13.4
			z M21.5,13.4h-3v-3h3V13.4z M17.5,13.4h-3v-3h3V13.4z M13.5,13.4h-3v-3h3V13.4z M13.5,14.4v3h-3v-3H13.5z M13.5,18.4v3h-3v-3H13.5
			z M13.5,22.4v3h-3v-3H13.5z M13.5,26.4v3h-3v-3H13.5z M13.5,30.4v3h-3v-3H13.5z M13.5,34.4v3h-3v-3H13.5z M13.5,38.4v3h-3v-3H13.5
			z M13.5,42.4v3h-3v-3H13.5z M13.5,46.4v3h-3v-3H13.5z M13.5,50.4v3h-3v-3H13.5z M13.5,54.4v3h-3v-3H13.5z M13.5,58.4v3h-3v-3H13.5
			z M13.5,62.4v3h-3v-3H13.5z M13.5,66.4v3h-3v-3H13.5z M13.5,70.4v3h-3v-3H13.5z M13.5,74.4v3h-3v-3H13.5z M13.5,78.4v3h-3v-3H13.5
			z M13.5,82.4v3h-3v-3H13.5z M13.5,86.4v3h-3v-3H13.5z M13.5,90.4v3h-3v-3H13.5z M13.5,94.4v3h-3v-3H13.5z M13.5,98.4v3h-3v-3H13.5
			z M13.5,102.4v3h-3v-3H13.5z M13.5,106.4v3h-3v-3H13.5z M13.5,110.4v3h-3v-3H13.5z M13.5,114.4v3h-3v-3H13.5z M13.5,118.4v3h-3v-3
			H13.5z M14.5,118.4h3v3h-3V118.4z M18.5,118.4h3v3h-3V118.4z M22.5,118.4h3v3h-3V118.4z M26.5,118.4h3v3h-3V118.4z M30.5,118.4h3
			v3h-3V118.4z M34.5,118.4h3v3h-3V118.4z M38.5,118.4h3v3h-3V118.4z M42.5,118.4h3v3h-3V118.4z M46.5,118.4h3v3h-3V118.4z
			 M50.5,118.4h3v3h-3V118.4z M54.5,118.4h3v3h-3V118.4z M58.5,118.4h3v3h-3V118.4z M62.5,118.4h2v3h-2V118.4z M65.5,118.4h3v3h-3
			V118.4z M69.5,118.4h3v3h-3V118.4z M73.5,118.4h3v3h-3V118.4z M77.5,118.4h3v3h-3V118.4z M81.5,118.4h3v3h-3V118.4z M85.5,118.4h3
			v3h-3V118.4z M89.5,118.4h3v3h-3V118.4z M93.5,118.4h3v3h-3V118.4z M97.5,118.4h3v3h-3V118.4z M101.5,118.4h3v3h-3V118.4z
			 M105.5,118.4h3v3h-3V118.4z M109.5,118.4h3v3h-3V118.4z M113.5,118.4h3v3h-3V118.4z M117.5,118.4h3v3h-3V118.4z M117.5,117.4v-3
			h3v3H117.5z M117.5,113.4v-3h3v3H117.5z M117.5,109.4v-3h3v3H117.5z M117.5,105.4v-3h3v3H117.5z M117.5,101.4v-3h3v3H117.5z
			 M117.5,97.4v-3h3v3H117.5z M117.5,93.4v-3h3v3H117.5z M117.5,89.4v-3h3v3H117.5z M117.5,85.4v-3h3v3H117.5z M117.5,81.4v-3h3v3
			H117.5z M117.5,77.4v-3h3v3H117.5z M117.5,73.4v-3h3v3H117.5z M117.5,69.4v-3h3v3H117.5z M117.5,65.4v-3h3v3H117.5z M117.5,61.4
			v-3h3v3H117.5z M117.5,57.4v-3h3v3H117.5z M117.5,53.4v-3h3v3H117.5z M117.5,49.4v-3h3v3H117.5z M117.5,45.4v-3h3v3H117.5z
			 M117.5,41.4v-3h3v3H117.5z M117.5,37.4v-3h3v3H117.5z M117.5,33.4v-3h3v3H117.5z M117.5,29.4v-3h3v3H117.5z M117.5,25.4v-3h3v3
			H117.5z M117.5,21.4v-3h3v3H117.5z M117.5,17.4v-3h3v3H117.5z M117.5,13.4v-3h3v3H117.5z M117.5,9.4v-3h3v3H117.5z M116.5,9.4h-3
			v-3h3V9.4z M112.5,9.4h-3v-3h3V9.4z M108.5,9.4h-3v-3h3V9.4z M104.5,9.4h-3v-3h3V9.4z M100.5,9.4h-3v-3h3V9.4z M96.5,9.4h-3v-3h3
			V9.4z M92.5,9.4h-3v-3h3V9.4z M88.5,9.4h-3v-3h3V9.4z M84.5,9.4h-3v-3h3V9.4z M80.5,9.4h-3v-3h3V9.4z M76.5,9.4h-3v-3h3V9.4z
			 M72.5,9.4h-3v-3h3V9.4z M68.5,9.4h-3v-3h3V9.4z M64.5,9.4h-2v-3h2V9.4z M61.5,9.4h-3v-3h3V9.4z M57.5,9.4h-3v-3h3V9.4z M53.5,9.4
			h-3v-3h3V9.4z M49.5,9.4h-3v-3h3V9.4z M45.5,9.4h-3v-3h3V9.4z M41.5,9.4h-3v-3h3V9.4z M37.5,9.4h-3v-3h3V9.4z M33.5,9.4h-3v-3h3
			V9.4z M29.5,9.4h-3v-3h3V9.4z M25.5,9.4h-3v-3h3V9.4z M21.5,9.4h-3v-3h3V9.4z M17.5,9.4h-3v-3h3V9.4z M13.5,9.4h-3v-3h3V9.4z
			 M9.5,9.4h-3v-3h3V9.4z M9.5,10.4v3h-3v-3H9.5z M9.5,14.4v3h-3v-3H9.5z M9.5,18.4v3h-3v-3H9.5z M9.5,22.4v3h-3v-3H9.5z M9.5,26.4
			v3h-3v-3H9.5z M9.5,30.4v3h-3v-3H9.5z M9.5,34.4v3h-3v-3H9.5z M9.5,38.4v3h-3v-3H9.5z M9.5,42.4v3h-3v-3H9.5z M9.5,46.4v3h-3v-3
			H9.5z M9.5,50.4v3h-3v-3H9.5z M9.5,54.4v3h-3v-3H9.5z M9.5,58.4v3h-3v-3H9.5z M9.5,62.4v3h-3v-3H9.5z M9.5,66.4v3h-3v-3H9.5z
			 M9.5,70.4v3h-3v-3H9.5z M9.5,74.4v3h-3v-3H9.5z M9.5,78.4v3h-3v-3H9.5z M9.5,82.4v3h-3v-3H9.5z M9.5,86.4v3h-3v-3H9.5z M9.5,90.4
			v3h-3v-3H9.5z M9.5,94.4v3h-3v-3H9.5z M9.5,98.4v3h-3v-3H9.5z M9.5,102.4v3h-3v-3H9.5z M9.5,106.4v3h-3v-3H9.5z M9.5,110.4v3h-3
			v-3H9.5z M9.5,114.4v3h-3v-3H9.5z M9.5,118.4v3h-3v-3H9.5z M9.5,122.4v3h-3v-3H9.5z M10.5,122.4h3v3h-3V122.4z M14.5,122.4h3v3h-3
			V122.4z M18.5,122.4h3v3h-3V122.4z M22.5,122.4h3v3h-3V122.4z M26.5,122.4h3v3h-3V122.4z M30.5,122.4h3v3h-3V122.4z M34.5,122.4h3
			v3h-3V122.4z M38.5,122.4h3v3h-3V122.4z M42.5,122.4h3v3h-3V122.4z M46.5,122.4h3v3h-3V122.4z M50.5,122.4h3v3h-3V122.4z
			 M54.5,122.4h3v3h-3V122.4z M58.5,122.4h3v3h-3V122.4z M62.5,122.4h2v3h-2V122.4z M65.5,122.4h3v3h-3V122.4z M69.5,122.4h3v3h-3
			V122.4z M73.5,122.4h3v3h-3V122.4z M77.5,122.4h3v3h-3V122.4z M81.5,122.4h3v3h-3V122.4z M85.5,122.4h3v3h-3V122.4z M89.5,122.4h3
			v3h-3V122.4z M93.5,122.4h3v3h-3V122.4z M97.5,122.4h3v3h-3V122.4z M101.5,122.4h3v3h-3V122.4z M105.5,122.4h3v3h-3V122.4z
			 M109.5,122.4h3v3h-3V122.4z M113.5,122.4h3v3h-3V122.4z M117.5,122.4h3v3h-3V122.4z M121.5,122.4h3v3h-3V122.4z M121.5,121.4v-3
			h3v3H121.5z M121.5,117.4v-3h3v3H121.5z M121.5,113.4v-3h3v3H121.5z M121.5,109.4v-3h3v3H121.5z M121.5,105.4v-3h3v3H121.5z
			 M121.5,101.4v-3h3v3H121.5z M121.5,97.4v-3h3v3H121.5z M121.5,93.4v-3h3v3H121.5z M121.5,89.4v-3h3v3H121.5z M121.5,85.4v-3h3v3
			H121.5z M121.5,81.4v-3h3v3H121.5z M121.5,77.4v-3h3v3H121.5z M121.5,73.4v-3h3v3H121.5z M121.5,69.4v-3h3v3H121.5z M121.5,65.4
			v-3h3v3H121.5z M121.5,61.4v-3h3v3H121.5z M121.5,57.4v-3h3v3H121.5z M121.5,53.4v-3h3v3H121.5z M121.5,49.4v-3h3v3H121.5z
			 M121.5,45.4v-3h3v3H121.5z M121.5,41.4v-3h3v3H121.5z M121.5,37.4v-3h3v3H121.5z M121.5,33.4v-3h3v3H121.5z M121.5,29.4v-3h3v3
			H121.5z M121.5,25.4v-3h3v3H121.5z M121.5,21.4v-3h3v3H121.5z M121.5,17.4v-3h3v3H121.5z M121.5,13.4v-3h3v3H121.5z M121.5,9.4v-3
			h3v3H121.5z M120.5,2.4v3h-3v-3H120.5z M116.5,2.4v3h-3v-3H116.5z M112.5,2.4v3h-3v-3H112.5z M108.5,2.4v3h-3v-3H108.5z
			 M104.5,2.4v3h-3v-3H104.5z M100.5,2.4v3h-3v-3H100.5z M96.5,2.4v3h-3v-3H96.5z M92.5,2.4v3h-3v-3H92.5z M88.5,2.4v3h-3v-3H88.5z
			 M84.5,2.4v3h-3v-3H84.5z M80.5,2.4v3h-3v-3H80.5z M76.5,2.4v3h-3v-3H76.5z M72.5,2.4v3h-3v-3H72.5z M68.5,2.4v3h-3v-3H68.5z
			 M64.5,2.4v3h-2v-3H64.5z M61.5,2.4v3h-3v-3H61.5z M57.5,2.4v3h-3v-3H57.5z M53.5,2.4v3h-3v-3H53.5z M49.5,2.4v3h-3v-3H49.5z
			 M45.5,2.4v3h-3v-3H45.5z M41.5,2.4v3h-3v-3H41.5z M37.5,2.4v3h-3v-3H37.5z M33.5,2.4v3h-3v-3H33.5z M29.5,2.4v3h-3v-3H29.5z
			 M25.5,2.4v3h-3v-3H25.5z M21.5,2.4v3h-3v-3H21.5z M17.5,2.4v3h-3v-3H17.5z M13.5,2.4v3h-3v-3H13.5z M9.5,2.4v3h-3v-3H9.5z
			 M2.5,2.4h3v3h-3V2.4z M2.5,6.4h3v3h-3V6.4z M2.5,10.4h3v3h-3V10.4z M2.5,14.4h3v3h-3V14.4z M2.5,18.4h3v3h-3V18.4z M2.5,22.4h3v3
			h-3V22.4z M2.5,26.4h3v3h-3V26.4z M2.5,30.4h3v3h-3V30.4z M2.5,34.4h3v3h-3V34.4z M2.5,38.4h3v3h-3V38.4z M2.5,42.4h3v3h-3V42.4z
			 M2.5,46.4h3v3h-3V46.4z M2.5,50.4h3v3h-3V50.4z M2.5,54.4h3v3h-3V54.4z M2.5,58.4h3v3h-3V58.4z M2.5,62.4h3v3h-3V62.4z M2.5,66.4
			h3v3h-3V66.4z M2.5,70.4h3v3h-3V70.4z M2.5,74.4h3v3h-3V74.4z M2.5,78.4h3v3h-3V78.4z M2.5,82.4h3v3h-3V82.4z M2.5,86.4h3v3h-3
			V86.4z M2.5,90.4h3v3h-3V90.4z M2.5,94.4h3v3h-3V94.4z M2.5,98.4h3v3h-3V98.4z M2.5,102.4h3v3h-3V102.4z M2.5,106.4h3v3h-3V106.4z
			 M2.5,110.4h3v3h-3V110.4z M2.5,114.4h3v3h-3V114.4z M2.5,118.4h3v3h-3V118.4z M2.5,122.4h3v3h-3V122.4z M2.5,128.4v-2h3v2H2.5z
			 M6.5,128.4v-2h3v2H6.5z M10.5,128.4v-2h3v2H10.5z M14.5,128.4v-2h3v2H14.5z M18.5,128.4v-2h3v2H18.5z M22.5,128.4v-2h3v2H22.5z
			 M26.5,128.4v-2h3v2H26.5z M30.5,128.4v-2h3v2H30.5z M34.5,128.4v-2h3v2H34.5z M38.5,128.4v-2h3v2H38.5z M42.5,128.4v-2h3v2H42.5z
			 M46.5,128.4v-2h3v2H46.5z M50.5,128.4v-2h3v2H50.5z M54.5,128.4v-2h3v2H54.5z M58.5,128.4v-2h3v2H58.5z M62.5,128.4v-2h2v2H62.5z
			 M65.5,128.4v-2h3v2H65.5z M69.5,128.4v-2h3v2H69.5z M73.5,128.4v-2h3v2H73.5z M77.5,128.4v-2h3v2H77.5z M81.5,128.4v-2h3v2H81.5z
			 M85.5,128.4v-2h3v2H85.5z M89.5,128.4v-2h3v2H89.5z M93.5,128.4v-2h3v2H93.5z M97.5,128.4v-2h3v2H97.5z M101.5,128.4v-2h3v2
			H101.5z M105.5,128.4v-2h3v2H105.5z M109.5,128.4v-2h3v2H109.5z M113.5,128.4v-2h3v2H113.5z M117.5,128.4v-2h3v2H117.5z
			 M121.5,128.4v-2h3v2H121.5z M128.5,128.4h-3v-2h3V128.4z M128.5,125.4h-3v-3h3V125.4z M128.5,121.4h-3v-3h3V121.4z M128.5,117.4
			h-3v-3h3V117.4z M128.5,113.4h-3v-3h3V113.4z M128.5,109.4h-3v-3h3V109.4z M128.5,105.4h-3v-3h3V105.4z M128.5,101.4h-3v-3h3
			V101.4z M128.5,97.4h-3v-3h3V97.4z M128.5,93.4h-3v-3h3V93.4z M128.5,89.4h-3v-3h3V89.4z M128.5,85.4h-3v-3h3V85.4z M128.5,81.4
			h-3v-3h3V81.4z M128.5,77.4h-3v-3h3V77.4z M128.5,73.4h-3v-3h3V73.4z M128.5,69.4h-3v-3h3V69.4z M128.5,65.4h-3v-3h3V65.4z
			 M128.5,61.4h-3v-3h3V61.4z M128.5,57.4h-3v-3h3V57.4z M128.5,53.4h-3v-3h3V53.4z M128.5,49.4h-3v-3h3V49.4z M128.5,45.4h-3v-3h3
			V45.4z M128.5,41.4h-3v-3h3V41.4z M128.5,37.4h-3v-3h3V37.4z M128.5,33.4h-3v-3h3V33.4z M128.5,29.4h-3v-3h3V29.4z M128.5,25.4h-3
			v-3h3V25.4z M128.5,21.4h-3v-3h3V21.4z M128.5,17.4h-3v-3h3V17.4z M128.5,13.4h-3v-3h3V13.4z M128.5,9.4h-3v-3h3V9.4z M128.5,5.4
			h-3v-3h3V5.4z"/>
	</g>
</g>
<g id="米格_12_">
	<g>
		<path fill-rule="evenodd" clip-rule="evenodd" fill="#D9D9D9" d="M1.5,1.4v128h128V1.4H1.5z M127.8,2.4L65.5,64.7V2.4H127.8z
			 M64.5,2.4v62.3l-62-62V2.4H64.5z M2.5,4.1l61.3,61.3H2.5V4.1z M63.8,66.4L2.5,127.7V66.4H63.8z M3.2,128.4l61.3-61.3v61.3H3.2z
			 M65.5,128.4V67.1l61.3,61.3H65.5z M128.5,128.4h-0.3l-62-62h62.3V128.4z M66.2,65.4l62.3-62.3v62.3H66.2z M128.5,2.4L128.5,2.4
			L128.5,2.4L128.5,2.4z"/>
	</g>
</g>
<g>
	<g>
		<path fill-rule="evenodd" clip-rule="evenodd" fill="#333333" d="M30.5,79.4c1.7,0,3-1.3,3-3v-2c0-1.7-1.3-3-3-3c-1.7,0-3,1.3-3,3
			v2C27.5,78.1,28.8,79.4,30.5,79.4z M74.5,79.4h22c1.7,0,3-1.3,3-3v-22c0-1.7-1.3-3-3-3h-22c-1.7,0-3,1.3-3,3v22
			C71.5,78.1,72.8,79.4,74.5,79.4z M79.5,60.4c0-0.6,0.4-1,1-1h10c0.6,0,1,0.4,1,1v10c0,0.6-0.4,1-1,1h-10c-0.6,0-1-0.4-1-1V60.4z
			 M109.5,13.4h-88c-4.4,0-8,3.6-8,8v88c0,4.4,3.6,8,8,8h88c4.4,0,8-3.6,8-8v-88C117.5,17,113.9,13.4,109.5,13.4z M109.5,105.4
			c0,2.2-1.8,4-4,4h-80c-2.2,0-4-1.8-4-4v-6h88V105.4z M109.5,91.4h-88v-52h88V91.4z M109.5,31.4h-88v-6c0-2.2,1.8-4,4-4h80
			c2.2,0,4,1.8,4,4V31.4z M30.5,68.4c1.7,0,3-1.3,3-3v-11c0-1.7-1.3-3-3-3c-1.7,0-3,1.3-3,3v11C27.5,67.1,28.8,68.4,30.5,68.4z"/>
	</g>
</g>
<circle fill="none" stroke="#FF6600" stroke-miterlimit="10" cx="109.5" cy="109.4" r="8"/>
<g id="矩形_207">
	<g>
		<rect x="94.5" y="13.4" fill-rule="evenodd" clip-rule="evenodd" fill="#FF6600" width="8" height="8"/>
	</g>
</g>
<g id="矩形_208_拷贝">
	<g>
		<path fill-rule="evenodd" clip-rule="evenodd" fill="#FF6600" d="M102.5,13.4v1h42v-1H102.5z M102.5,21.4h42v-1h-42V21.4z"/>
	</g>
</g>
<text transform="matrix(1.002 0 0 1 147.8223 22.4216)" font-family="'MicrosoftYaHei'" font-size="12">8</text>
<g id="矩形_208_拷贝_3">
	<g>
		<path fill-rule="evenodd" clip-rule="evenodd" fill="#FF6600" d="M32.5,80.4v66h1v-66H32.5z M27.5,146.4h1v-66h-1V146.4z"/>
	</g>
</g>
<g id="矩形_207_拷贝_3">
	<g>
		<rect x="27.5" y="74.4" fill-rule="evenodd" clip-rule="evenodd" fill="#FF6600" width="6" height="6"/>
	</g>
</g>
<text transform="matrix(1.002 0 0 1 26.8223 161.4216)" font-family="'MicrosoftYaHei'" font-size="12">6</text>
<g id="椭圆_12">
	<g>
		<path fill-rule="evenodd" clip-rule="evenodd" fill="#FF6600" d="M109.5,109.4v8c4.4,0,8-3.6,8-8H109.5z"/>
	</g>
</g>
<g id="矩形_208_拷贝_4">
	<g>
		<path fill-rule="evenodd" clip-rule="evenodd" fill="#FF6600" d="M109.5,109.4v1h35v-1H109.5z M109.5,117.4h35v-1h-35V117.4z"/>
	</g>
</g>
<text transform="matrix(1.002 0 0 1 147.8223 117.4216)" font-family="'MicrosoftYaHei'" font-size="12">8</text>
</svg>
