<?xml version="1.0" encoding="utf-8"?>
<!-- Generator: Adobe Illustrator 17.1.0, SVG Export Plug-In . SVG Version: 6.00 Build 0)  -->
<!DOCTYPE svg PUBLIC "-//W3C//DTD SVG 1.1//EN" "http://www.w3.org/Graphics/SVG/1.1/DTD/svg11.dtd">
<svg version="1.1" id="图层_1" xmlns="http://www.w3.org/2000/svg" xmlns:xlink="http://www.w3.org/1999/xlink" x="0px" y="0px"
	 viewBox="0 0 155.1 162.4" enable-background="new 0 0 155.1 162.4" xml:space="preserve">
<g id="_x33_2线格_3_">
	<g>
		<path fill-rule="evenodd" clip-rule="evenodd" fill="#F2F2F2" d="M2.4,2.1L2.4,2.1l-1,0v128h128V2.1H2.4z M124.4,3.1v3h-3v-3
			H124.4z M64.4,67.1v3h-2v-3H64.4z M62.4,66.1v-3h2v3H62.4z M65.4,67.1h3v3h-3V67.1z M65.4,66.1v-3h3v3H65.4z M65.4,62.1v-3h3v3
			H65.4z M64.4,62.1h-2v-3h2V62.1z M61.4,62.1h-3v-3h3V62.1z M61.4,63.1v3h-3v-3H61.4z M61.4,67.1v3h-3v-3H61.4z M61.4,71.1v3h-3v-3
			H61.4z M62.4,71.1h2v3h-2V71.1z M65.4,71.1h3v3h-3V71.1z M69.4,71.1h3v3h-3V71.1z M69.4,70.1v-3h3v3H69.4z M69.4,66.1v-3h3v3H69.4
			z M69.4,62.1v-3h3v3H69.4z M69.4,58.1v-3h3v3H69.4z M68.4,58.1h-3v-3h3V58.1z M64.4,58.1h-2v-3h2V58.1z M61.4,58.1h-3v-3h3V58.1z
			 M57.4,58.1h-3v-3h3V58.1z M57.4,59.1v3h-3v-3H57.4z M57.4,63.1v3h-3v-3H57.4z M57.4,67.1v3h-3v-3H57.4z M57.4,71.1v3h-3v-3H57.4z
			 M57.4,75.1v3h-3v-3H57.4z M58.4,75.1h3v3h-3V75.1z M62.4,75.1h2v3h-2V75.1z M65.4,75.1h3v3h-3V75.1z M69.4,75.1h3v3h-3V75.1z
			 M73.4,75.1h3v3h-3V75.1z M73.4,74.1v-3h3v3H73.4z M73.4,70.1v-3h3v3H73.4z M73.4,66.1v-3h3v3H73.4z M73.4,62.1v-3h3v3H73.4z
			 M73.4,58.1v-3h3v3H73.4z M73.4,54.1v-3h3v3H73.4z M72.4,54.1h-3v-3h3V54.1z M68.4,54.1h-3v-3h3V54.1z M64.4,54.1h-2v-3h2V54.1z
			 M61.4,54.1h-3v-3h3V54.1z M57.4,54.1h-3v-3h3V54.1z M53.4,54.1h-3v-3h3V54.1z M53.4,55.1v3h-3v-3H53.4z M53.4,59.1v3h-3v-3H53.4z
			 M53.4,63.1v3h-3v-3H53.4z M53.4,67.1v3h-3v-3H53.4z M53.4,71.1v3h-3v-3H53.4z M53.4,75.1v3h-3v-3H53.4z M53.4,79.1v3h-3v-3H53.4z
			 M54.4,79.1h3v3h-3V79.1z M58.4,79.1h3v3h-3V79.1z M62.4,79.1h2v3h-2V79.1z M65.4,79.1h3v3h-3V79.1z M69.4,79.1h3v3h-3V79.1z
			 M73.4,79.1h3v3h-3V79.1z M77.4,79.1h3v3h-3V79.1z M77.4,78.1v-3h3v3H77.4z M77.4,74.1v-3h3v3H77.4z M77.4,70.1v-3h3v3H77.4z
			 M77.4,66.1v-3h3v3H77.4z M77.4,62.1v-3h3v3H77.4z M77.4,58.1v-3h3v3H77.4z M77.4,54.1v-3h3v3H77.4z M77.4,50.1v-3h3v3H77.4z
			 M76.4,50.1h-3v-3h3V50.1z M72.4,50.1h-3v-3h3V50.1z M68.4,50.1h-3v-3h3V50.1z M64.4,50.1h-2v-3h2V50.1z M61.4,50.1h-3v-3h3V50.1z
			 M57.4,50.1h-3v-3h3V50.1z M53.4,50.1h-3v-3h3V50.1z M49.4,50.1h-3v-3h3V50.1z M49.4,51.1v3h-3v-3H49.4z M49.4,55.1v3h-3v-3H49.4z
			 M49.4,59.1v3h-3v-3H49.4z M49.4,63.1v3h-3v-3H49.4z M49.4,67.1v3h-3v-3H49.4z M49.4,71.1v3h-3v-3H49.4z M49.4,75.1v3h-3v-3H49.4z
			 M49.4,79.1v3h-3v-3H49.4z M49.4,83.1v3h-3v-3H49.4z M50.4,83.1h3v3h-3V83.1z M54.4,83.1h3v3h-3V83.1z M58.4,83.1h3v3h-3V83.1z
			 M62.4,83.1h2v3h-2V83.1z M65.4,83.1h3v3h-3V83.1z M69.4,83.1h3v3h-3V83.1z M73.4,83.1h3v3h-3V83.1z M77.4,83.1h3v3h-3V83.1z
			 M81.4,83.1h3v3h-3V83.1z M81.4,82.1v-3h3v3H81.4z M81.4,78.1v-3h3v3H81.4z M81.4,74.1v-3h3v3H81.4z M81.4,70.1v-3h3v3H81.4z
			 M81.4,66.1v-3h3v3H81.4z M81.4,62.1v-3h3v3H81.4z M81.4,58.1v-3h3v3H81.4z M81.4,54.1v-3h3v3H81.4z M81.4,50.1v-3h3v3H81.4z
			 M81.4,46.1v-3h3v3H81.4z M80.4,46.1h-3v-3h3V46.1z M76.4,46.1h-3v-3h3V46.1z M72.4,46.1h-3v-3h3V46.1z M68.4,46.1h-3v-3h3V46.1z
			 M64.4,46.1h-2v-3h2V46.1z M61.4,46.1h-3v-3h3V46.1z M57.4,46.1h-3v-3h3V46.1z M53.4,46.1h-3v-3h3V46.1z M49.4,46.1h-3v-3h3V46.1z
			 M45.4,46.1h-3v-3h3V46.1z M45.4,47.1v3h-3v-3H45.4z M45.4,51.1v3h-3v-3H45.4z M45.4,55.1v3h-3v-3H45.4z M45.4,59.1v3h-3v-3H45.4z
			 M45.4,63.1v3h-3v-3H45.4z M45.4,67.1v3h-3v-3H45.4z M45.4,71.1v3h-3v-3H45.4z M45.4,75.1v3h-3v-3H45.4z M45.4,79.1v3h-3v-3H45.4z
			 M45.4,83.1v3h-3v-3H45.4z M45.4,87.1v3h-3v-3H45.4z M46.4,87.1h3v3h-3V87.1z M50.4,87.1h3v3h-3V87.1z M54.4,87.1h3v3h-3V87.1z
			 M58.4,87.1h3v3h-3V87.1z M62.4,87.1h2v3h-2V87.1z M65.4,87.1h3v3h-3V87.1z M69.4,87.1h3v3h-3V87.1z M73.4,87.1h3v3h-3V87.1z
			 M77.4,87.1h3v3h-3V87.1z M81.4,87.1h3v3h-3V87.1z M85.4,87.1h3v3h-3V87.1z M85.4,86.1v-3h3v3H85.4z M85.4,82.1v-3h3v3H85.4z
			 M85.4,78.1v-3h3v3H85.4z M85.4,74.1v-3h3v3H85.4z M85.4,70.1v-3h3v3H85.4z M85.4,66.1v-3h3v3H85.4z M85.4,62.1v-3h3v3H85.4z
			 M85.4,58.1v-3h3v3H85.4z M85.4,54.1v-3h3v3H85.4z M85.4,50.1v-3h3v3H85.4z M85.4,46.1v-3h3v3H85.4z M85.4,42.1v-3h3v3H85.4z
			 M84.4,42.1h-3v-3h3V42.1z M80.4,42.1h-3v-3h3V42.1z M76.4,42.1h-3v-3h3V42.1z M72.4,42.1h-3v-3h3V42.1z M68.4,42.1h-3v-3h3V42.1z
			 M64.4,42.1h-2v-3h2V42.1z M61.4,42.1h-3v-3h3V42.1z M57.4,42.1h-3v-3h3V42.1z M53.4,42.1h-3v-3h3V42.1z M49.4,42.1h-3v-3h3V42.1z
			 M45.4,42.1h-3v-3h3V42.1z M41.4,42.1h-3v-3h3V42.1z M41.4,43.1v3h-3v-3H41.4z M41.4,47.1v3h-3v-3H41.4z M41.4,51.1v3h-3v-3H41.4z
			 M41.4,55.1v3h-3v-3H41.4z M41.4,59.1v3h-3v-3H41.4z M41.4,63.1v3h-3v-3H41.4z M41.4,67.1v3h-3v-3H41.4z M41.4,71.1v3h-3v-3H41.4z
			 M41.4,75.1v3h-3v-3H41.4z M41.4,79.1v3h-3v-3H41.4z M41.4,83.1v3h-3v-3H41.4z M41.4,87.1v3h-3v-3H41.4z M41.4,91.1v3h-3v-3H41.4z
			 M42.4,91.1h3v3h-3V91.1z M46.4,91.1h3v3h-3V91.1z M50.4,91.1h3v3h-3V91.1z M54.4,91.1h3v3h-3V91.1z M58.4,91.1h3v3h-3V91.1z
			 M62.4,91.1h2v3h-2V91.1z M65.4,91.1h3v3h-3V91.1z M69.4,91.1h3v3h-3V91.1z M73.4,91.1h3v3h-3V91.1z M77.4,91.1h3v3h-3V91.1z
			 M81.4,91.1h3v3h-3V91.1z M85.4,91.1h3v3h-3V91.1z M89.4,91.1h3v3h-3V91.1z M89.4,90.1v-3h3v3H89.4z M89.4,86.1v-3h3v3H89.4z
			 M89.4,82.1v-3h3v3H89.4z M89.4,78.1v-3h3v3H89.4z M89.4,74.1v-3h3v3H89.4z M89.4,70.1v-3h3v3H89.4z M89.4,66.1v-3h3v3H89.4z
			 M89.4,62.1v-3h3v3H89.4z M89.4,58.1v-3h3v3H89.4z M89.4,54.1v-3h3v3H89.4z M89.4,50.1v-3h3v3H89.4z M89.4,46.1v-3h3v3H89.4z
			 M89.4,42.1v-3h3v3H89.4z M89.4,38.1v-3h3v3H89.4z M88.4,38.1h-3v-3h3V38.1z M84.4,38.1h-3v-3h3V38.1z M80.4,38.1h-3v-3h3V38.1z
			 M76.4,38.1h-3v-3h3V38.1z M72.4,38.1h-3v-3h3V38.1z M68.4,38.1h-3v-3h3V38.1z M64.4,38.1h-2v-3h2V38.1z M61.4,38.1h-3v-3h3V38.1z
			 M57.4,38.1h-3v-3h3V38.1z M53.4,38.1h-3v-3h3V38.1z M49.4,38.1h-3v-3h3V38.1z M45.4,38.1h-3v-3h3V38.1z M41.4,38.1h-3v-3h3V38.1z
			 M37.4,38.1h-3v-3h3V38.1z M37.4,39.1v3h-3v-3H37.4z M37.4,43.1v3h-3v-3H37.4z M37.4,47.1v3h-3v-3H37.4z M37.4,51.1v3h-3v-3H37.4z
			 M37.4,55.1v3h-3v-3H37.4z M37.4,59.1v3h-3v-3H37.4z M37.4,63.1v3h-3v-3H37.4z M37.4,67.1v3h-3v-3H37.4z M37.4,71.1v3h-3v-3H37.4z
			 M37.4,75.1v3h-3v-3H37.4z M37.4,79.1v3h-3v-3H37.4z M37.4,83.1v3h-3v-3H37.4z M37.4,87.1v3h-3v-3H37.4z M37.4,91.1v3h-3v-3H37.4z
			 M37.4,95.1v3h-3v-3H37.4z M38.4,95.1h3v3h-3V95.1z M42.4,95.1h3v3h-3V95.1z M46.4,95.1h3v3h-3V95.1z M50.4,95.1h3v3h-3V95.1z
			 M54.4,95.1h3v3h-3V95.1z M58.4,95.1h3v3h-3V95.1z M62.4,95.1h2v3h-2V95.1z M65.4,95.1h3v3h-3V95.1z M69.4,95.1h3v3h-3V95.1z
			 M73.4,95.1h3v3h-3V95.1z M77.4,95.1h3v3h-3V95.1z M81.4,95.1h3v3h-3V95.1z M85.4,95.1h3v3h-3V95.1z M89.4,95.1h3v3h-3V95.1z
			 M93.4,95.1h3v3h-3V95.1z M93.4,94.1v-3h3v3H93.4z M93.4,90.1v-3h3v3H93.4z M93.4,86.1v-3h3v3H93.4z M93.4,82.1v-3h3v3H93.4z
			 M93.4,78.1v-3h3v3H93.4z M93.4,74.1v-3h3v3H93.4z M93.4,70.1v-3h3v3H93.4z M93.4,66.1v-3h3v3H93.4z M93.4,62.1v-3h3v3H93.4z
			 M93.4,58.1v-3h3v3H93.4z M93.4,54.1v-3h3v3H93.4z M93.4,50.1v-3h3v3H93.4z M93.4,46.1v-3h3v3H93.4z M93.4,42.1v-3h3v3H93.4z
			 M93.4,38.1v-3h3v3H93.4z M93.4,34.1v-3h3v3H93.4z M92.4,34.1h-3v-3h3V34.1z M88.4,34.1h-3v-3h3V34.1z M84.4,34.1h-3v-3h3V34.1z
			 M80.4,34.1h-3v-3h3V34.1z M76.4,34.1h-3v-3h3V34.1z M72.4,34.1h-3v-3h3V34.1z M68.4,34.1h-3v-3h3V34.1z M64.4,34.1h-2v-3h2V34.1z
			 M61.4,34.1h-3v-3h3V34.1z M57.4,34.1h-3v-3h3V34.1z M53.4,34.1h-3v-3h3V34.1z M49.4,34.1h-3v-3h3V34.1z M45.4,34.1h-3v-3h3V34.1z
			 M41.4,34.1h-3v-3h3V34.1z M37.4,34.1h-3v-3h3V34.1z M33.4,34.1h-3v-3h3V34.1z M33.4,35.1v3h-3v-3H33.4z M33.4,39.1v3h-3v-3H33.4z
			 M33.4,43.1v3h-3v-3H33.4z M33.4,47.1v3h-3v-3H33.4z M33.4,51.1v3h-3v-3H33.4z M33.4,55.1v3h-3v-3H33.4z M33.4,59.1v3h-3v-3H33.4z
			 M33.4,63.1v3h-3v-3H33.4z M33.4,67.1v3h-3v-3H33.4z M33.4,71.1v3h-3v-3H33.4z M33.4,75.1v3h-3v-3H33.4z M33.4,79.1v3h-3v-3H33.4z
			 M33.4,83.1v3h-3v-3H33.4z M33.4,87.1v3h-3v-3H33.4z M33.4,91.1v3h-3v-3H33.4z M33.4,95.1v3h-3v-3H33.4z M33.4,99.1v3h-3v-3H33.4z
			 M34.4,99.1h3v3h-3V99.1z M38.4,99.1h3v3h-3V99.1z M42.4,99.1h3v3h-3V99.1z M46.4,99.1h3v3h-3V99.1z M50.4,99.1h3v3h-3V99.1z
			 M54.4,99.1h3v3h-3V99.1z M58.4,99.1h3v3h-3V99.1z M62.4,99.1h2v3h-2V99.1z M65.4,99.1h3v3h-3V99.1z M69.4,99.1h3v3h-3V99.1z
			 M73.4,99.1h3v3h-3V99.1z M77.4,99.1h3v3h-3V99.1z M81.4,99.1h3v3h-3V99.1z M85.4,99.1h3v3h-3V99.1z M89.4,99.1h3v3h-3V99.1z
			 M93.4,99.1h3v3h-3V99.1z M97.4,99.1h3v3h-3V99.1z M97.4,98.1v-3h3v3H97.4z M97.4,94.1v-3h3v3H97.4z M97.4,90.1v-3h3v3H97.4z
			 M97.4,86.1v-3h3v3H97.4z M97.4,82.1v-3h3v3H97.4z M97.4,78.1v-3h3v3H97.4z M97.4,74.1v-3h3v3H97.4z M97.4,70.1v-3h3v3H97.4z
			 M97.4,66.1v-3h3v3H97.4z M97.4,62.1v-3h3v3H97.4z M97.4,58.1v-3h3v3H97.4z M97.4,54.1v-3h3v3H97.4z M97.4,50.1v-3h3v3H97.4z
			 M97.4,46.1v-3h3v3H97.4z M97.4,42.1v-3h3v3H97.4z M97.4,38.1v-3h3v3H97.4z M97.4,34.1v-3h3v3H97.4z M97.4,30.1v-3h3v3H97.4z
			 M96.4,30.1h-3v-3h3V30.1z M92.4,30.1h-3v-3h3V30.1z M88.4,30.1h-3v-3h3V30.1z M84.4,30.1h-3v-3h3V30.1z M80.4,30.1h-3v-3h3V30.1z
			 M76.4,30.1h-3v-3h3V30.1z M72.4,30.1h-3v-3h3V30.1z M68.4,30.1h-3v-3h3V30.1z M64.4,30.1h-2v-3h2V30.1z M61.4,30.1h-3v-3h3V30.1z
			 M57.4,30.1h-3v-3h3V30.1z M53.4,30.1h-3v-3h3V30.1z M49.4,30.1h-3v-3h3V30.1z M45.4,30.1h-3v-3h3V30.1z M41.4,30.1h-3v-3h3V30.1z
			 M37.4,30.1h-3v-3h3V30.1z M33.4,30.1h-3v-3h3V30.1z M29.4,30.1h-3v-3h3V30.1z M29.4,31.1v3h-3v-3H29.4z M29.4,35.1v3h-3v-3H29.4z
			 M29.4,39.1v3h-3v-3H29.4z M29.4,43.1v3h-3v-3H29.4z M29.4,47.1v3h-3v-3H29.4z M29.4,51.1v3h-3v-3H29.4z M29.4,55.1v3h-3v-3H29.4z
			 M29.4,59.1v3h-3v-3H29.4z M29.4,63.1v3h-3v-3H29.4z M29.4,67.1v3h-3v-3H29.4z M29.4,71.1v3h-3v-3H29.4z M29.4,75.1v3h-3v-3H29.4z
			 M29.4,79.1v3h-3v-3H29.4z M29.4,83.1v3h-3v-3H29.4z M29.4,87.1v3h-3v-3H29.4z M29.4,91.1v3h-3v-3H29.4z M29.4,95.1v3h-3v-3H29.4z
			 M29.4,99.1v3h-3v-3H29.4z M29.4,103.1v3h-3v-3H29.4z M30.4,103.1h3v3h-3V103.1z M34.4,103.1h3v3h-3V103.1z M38.4,103.1h3v3h-3
			V103.1z M42.4,103.1h3v3h-3V103.1z M46.4,103.1h3v3h-3V103.1z M50.4,103.1h3v3h-3V103.1z M54.4,103.1h3v3h-3V103.1z M58.4,103.1h3
			v3h-3V103.1z M62.4,103.1h2v3h-2V103.1z M65.4,103.1h3v3h-3V103.1z M69.4,103.1h3v3h-3V103.1z M73.4,103.1h3v3h-3V103.1z
			 M77.4,103.1h3v3h-3V103.1z M81.4,103.1h3v3h-3V103.1z M85.4,103.1h3v3h-3V103.1z M89.4,103.1h3v3h-3V103.1z M93.4,103.1h3v3h-3
			V103.1z M97.4,103.1h3v3h-3V103.1z M101.4,103.1h3v3h-3V103.1z M101.4,102.1v-3h3v3H101.4z M101.4,98.1v-3h3v3H101.4z M101.4,94.1
			v-3h3v3H101.4z M101.4,90.1v-3h3v3H101.4z M101.4,86.1v-3h3v3H101.4z M101.4,82.1v-3h3v3H101.4z M101.4,78.1v-3h3v3H101.4z
			 M101.4,74.1v-3h3v3H101.4z M101.4,70.1v-3h3v3H101.4z M101.4,66.1v-3h3v3H101.4z M101.4,62.1v-3h3v3H101.4z M101.4,58.1v-3h3v3
			H101.4z M101.4,54.1v-3h3v3H101.4z M101.4,50.1v-3h3v3H101.4z M101.4,46.1v-3h3v3H101.4z M101.4,42.1v-3h3v3H101.4z M101.4,38.1
			v-3h3v3H101.4z M101.4,34.1v-3h3v3H101.4z M101.4,30.1v-3h3v3H101.4z M101.4,26.1v-3h3v3H101.4z M100.4,26.1h-3v-3h3V26.1z
			 M96.4,26.1h-3v-3h3V26.1z M92.4,26.1h-3v-3h3V26.1z M88.4,26.1h-3v-3h3V26.1z M84.4,26.1h-3v-3h3V26.1z M80.4,26.1h-3v-3h3V26.1z
			 M76.4,26.1h-3v-3h3V26.1z M72.4,26.1h-3v-3h3V26.1z M68.4,26.1h-3v-3h3V26.1z M64.4,26.1h-2v-3h2V26.1z M61.4,26.1h-3v-3h3V26.1z
			 M57.4,26.1h-3v-3h3V26.1z M53.4,26.1h-3v-3h3V26.1z M49.4,26.1h-3v-3h3V26.1z M45.4,26.1h-3v-3h3V26.1z M41.4,26.1h-3v-3h3V26.1z
			 M37.4,26.1h-3v-3h3V26.1z M33.4,26.1h-3v-3h3V26.1z M29.4,26.1h-3v-3h3V26.1z M25.4,26.1h-3v-3h3V26.1z M25.4,27.1v3h-3v-3H25.4z
			 M25.4,31.1v3h-3v-3H25.4z M25.4,35.1v3h-3v-3H25.4z M25.4,39.1v3h-3v-3H25.4z M25.4,43.1v3h-3v-3H25.4z M25.4,47.1v3h-3v-3H25.4z
			 M25.4,51.1v3h-3v-3H25.4z M25.4,55.1v3h-3v-3H25.4z M25.4,59.1v3h-3v-3H25.4z M25.4,63.1v3h-3v-3H25.4z M25.4,67.1v3h-3v-3H25.4z
			 M25.4,71.1v3h-3v-3H25.4z M25.4,75.1v3h-3v-3H25.4z M25.4,79.1v3h-3v-3H25.4z M25.4,83.1v3h-3v-3H25.4z M25.4,87.1v3h-3v-3H25.4z
			 M25.4,91.1v3h-3v-3H25.4z M25.4,95.1v3h-3v-3H25.4z M25.4,99.1v3h-3v-3H25.4z M25.4,103.1v3h-3v-3H25.4z M25.4,107.1v3h-3v-3
			H25.4z M26.4,107.1h3v3h-3V107.1z M30.4,107.1h3v3h-3V107.1z M34.4,107.1h3v3h-3V107.1z M38.4,107.1h3v3h-3V107.1z M42.4,107.1h3
			v3h-3V107.1z M46.4,107.1h3v3h-3V107.1z M50.4,107.1h3v3h-3V107.1z M54.4,107.1h3v3h-3V107.1z M58.4,107.1h3v3h-3V107.1z
			 M62.4,107.1h2v3h-2V107.1z M65.4,107.1h3v3h-3V107.1z M69.4,107.1h3v3h-3V107.1z M73.4,107.1h3v3h-3V107.1z M77.4,107.1h3v3h-3
			V107.1z M81.4,107.1h3v3h-3V107.1z M85.4,107.1h3v3h-3V107.1z M89.4,107.1h3v3h-3V107.1z M93.4,107.1h3v3h-3V107.1z M97.4,107.1h3
			v3h-3V107.1z M101.4,107.1h3v3h-3V107.1z M105.4,107.1h3v3h-3V107.1z M105.4,106.1v-3h3v3H105.4z M105.4,102.1v-3h3v3H105.4z
			 M105.4,98.1v-3h3v3H105.4z M105.4,94.1v-3h3v3H105.4z M105.4,90.1v-3h3v3H105.4z M105.4,86.1v-3h3v3H105.4z M105.4,82.1v-3h3v3
			H105.4z M105.4,78.1v-3h3v3H105.4z M105.4,74.1v-3h3v3H105.4z M105.4,70.1v-3h3v3H105.4z M105.4,66.1v-3h3v3H105.4z M105.4,62.1
			v-3h3v3H105.4z M105.4,58.1v-3h3v3H105.4z M105.4,54.1v-3h3v3H105.4z M105.4,50.1v-3h3v3H105.4z M105.4,46.1v-3h3v3H105.4z
			 M105.4,42.1v-3h3v3H105.4z M105.4,38.1v-3h3v3H105.4z M105.4,34.1v-3h3v3H105.4z M105.4,30.1v-3h3v3H105.4z M105.4,26.1v-3h3v3
			H105.4z M105.4,22.1v-3h3v3H105.4z M104.4,22.1h-3v-3h3V22.1z M100.4,22.1h-3v-3h3V22.1z M96.4,22.1h-3v-3h3V22.1z M92.4,22.1h-3
			v-3h3V22.1z M88.4,22.1h-3v-3h3V22.1z M84.4,22.1h-3v-3h3V22.1z M80.4,22.1h-3v-3h3V22.1z M76.4,22.1h-3v-3h3V22.1z M72.4,22.1h-3
			v-3h3V22.1z M68.4,22.1h-3v-3h3V22.1z M64.4,22.1h-2v-3h2V22.1z M61.4,22.1h-3v-3h3V22.1z M57.4,22.1h-3v-3h3V22.1z M53.4,22.1h-3
			v-3h3V22.1z M49.4,22.1h-3v-3h3V22.1z M45.4,22.1h-3v-3h3V22.1z M41.4,22.1h-3v-3h3V22.1z M37.4,22.1h-3v-3h3V22.1z M33.4,22.1h-3
			v-3h3V22.1z M29.4,22.1h-3v-3h3V22.1z M25.4,22.1h-3v-3h3V22.1z M21.4,22.1h-3v-3h3V22.1z M21.4,23.1v3h-3v-3H21.4z M21.4,27.1v3
			h-3v-3H21.4z M21.4,31.1v3h-3v-3H21.4z M21.4,35.1v3h-3v-3H21.4z M21.4,39.1v3h-3v-3H21.4z M21.4,43.1v3h-3v-3H21.4z M21.4,47.1v3
			h-3v-3H21.4z M21.4,51.1v3h-3v-3H21.4z M21.4,55.1v3h-3v-3H21.4z M21.4,59.1v3h-3v-3H21.4z M21.4,63.1v3h-3v-3H21.4z M21.4,67.1v3
			h-3v-3H21.4z M21.4,71.1v3h-3v-3H21.4z M21.4,75.1v3h-3v-3H21.4z M21.4,79.1v3h-3v-3H21.4z M21.4,83.1v3h-3v-3H21.4z M21.4,87.1v3
			h-3v-3H21.4z M21.4,91.1v3h-3v-3H21.4z M21.4,95.1v3h-3v-3H21.4z M21.4,99.1v3h-3v-3H21.4z M21.4,103.1v3h-3v-3H21.4z M21.4,107.1
			v3h-3v-3H21.4z M21.4,111.1v3h-3v-3H21.4z M22.4,111.1h3v3h-3V111.1z M26.4,111.1h3v3h-3V111.1z M30.4,111.1h3v3h-3V111.1z
			 M34.4,111.1h3v3h-3V111.1z M38.4,111.1h3v3h-3V111.1z M42.4,111.1h3v3h-3V111.1z M46.4,111.1h3v3h-3V111.1z M50.4,111.1h3v3h-3
			V111.1z M54.4,111.1h3v3h-3V111.1z M58.4,111.1h3v3h-3V111.1z M62.4,111.1h2v3h-2V111.1z M65.4,111.1h3v3h-3V111.1z M69.4,111.1h3
			v3h-3V111.1z M73.4,111.1h3v3h-3V111.1z M77.4,111.1h3v3h-3V111.1z M81.4,111.1h3v3h-3V111.1z M85.4,111.1h3v3h-3V111.1z
			 M89.4,111.1h3v3h-3V111.1z M93.4,111.1h3v3h-3V111.1z M97.4,111.1h3v3h-3V111.1z M101.4,111.1h3v3h-3V111.1z M105.4,111.1h3v3h-3
			V111.1z M109.4,111.1h3v3h-3V111.1z M109.4,110.1v-3h3v3H109.4z M109.4,106.1v-3h3v3H109.4z M109.4,102.1v-3h3v3H109.4z
			 M109.4,98.1v-3h3v3H109.4z M109.4,94.1v-3h3v3H109.4z M109.4,90.1v-3h3v3H109.4z M109.4,86.1v-3h3v3H109.4z M109.4,82.1v-3h3v3
			H109.4z M109.4,78.1v-3h3v3H109.4z M109.4,74.1v-3h3v3H109.4z M109.4,70.1v-3h3v3H109.4z M109.4,66.1v-3h3v3H109.4z M109.4,62.1
			v-3h3v3H109.4z M109.4,58.1v-3h3v3H109.4z M109.4,54.1v-3h3v3H109.4z M109.4,50.1v-3h3v3H109.4z M109.4,46.1v-3h3v3H109.4z
			 M109.4,42.1v-3h3v3H109.4z M109.4,38.1v-3h3v3H109.4z M109.4,34.1v-3h3v3H109.4z M109.4,30.1v-3h3v3H109.4z M109.4,26.1v-3h3v3
			H109.4z M109.4,22.1v-3h3v3H109.4z M109.4,18.1v-3h3v3H109.4z M108.4,18.1h-3v-3h3V18.1z M104.4,18.1h-3v-3h3V18.1z M100.4,18.1
			h-3v-3h3V18.1z M96.4,18.1h-3v-3h3V18.1z M92.4,18.1h-3v-3h3V18.1z M88.4,18.1h-3v-3h3V18.1z M84.4,18.1h-3v-3h3V18.1z M80.4,18.1
			h-3v-3h3V18.1z M76.4,18.1h-3v-3h3V18.1z M72.4,18.1h-3v-3h3V18.1z M68.4,18.1h-3v-3h3V18.1z M64.4,18.1h-2v-3h2V18.1z M61.4,18.1
			h-3v-3h3V18.1z M57.4,18.1h-3v-3h3V18.1z M53.4,18.1h-3v-3h3V18.1z M49.4,18.1h-3v-3h3V18.1z M45.4,18.1h-3v-3h3V18.1z M41.4,18.1
			h-3v-3h3V18.1z M37.4,18.1h-3v-3h3V18.1z M33.4,18.1h-3v-3h3V18.1z M29.4,18.1h-3v-3h3V18.1z M25.4,18.1h-3v-3h3V18.1z M21.4,18.1
			h-3v-3h3V18.1z M17.4,18.1h-3v-3h3V18.1z M17.4,19.1v3h-3v-3H17.4z M17.4,23.1v3h-3v-3H17.4z M17.4,27.1v3h-3v-3H17.4z M17.4,31.1
			v3h-3v-3H17.4z M17.4,35.1v3h-3v-3H17.4z M17.4,39.1v3h-3v-3H17.4z M17.4,43.1v3h-3v-3H17.4z M17.4,47.1v3h-3v-3H17.4z M17.4,51.1
			v3h-3v-3H17.4z M17.4,55.1v3h-3v-3H17.4z M17.4,59.1v3h-3v-3H17.4z M17.4,63.1v3h-3v-3H17.4z M17.4,67.1v3h-3v-3H17.4z M17.4,71.1
			v3h-3v-3H17.4z M17.4,75.1v3h-3v-3H17.4z M17.4,79.1v3h-3v-3H17.4z M17.4,83.1v3h-3v-3H17.4z M17.4,87.1v3h-3v-3H17.4z M17.4,91.1
			v3h-3v-3H17.4z M17.4,95.1v3h-3v-3H17.4z M17.4,99.1v3h-3v-3H17.4z M17.4,103.1v3h-3v-3H17.4z M17.4,107.1v3h-3v-3H17.4z
			 M17.4,111.1v3h-3v-3H17.4z M17.4,115.1v3h-3v-3H17.4z M18.4,115.1h3v3h-3V115.1z M22.4,115.1h3v3h-3V115.1z M26.4,115.1h3v3h-3
			V115.1z M30.4,115.1h3v3h-3V115.1z M34.4,115.1h3v3h-3V115.1z M38.4,115.1h3v3h-3V115.1z M42.4,115.1h3v3h-3V115.1z M46.4,115.1h3
			v3h-3V115.1z M50.4,115.1h3v3h-3V115.1z M54.4,115.1h3v3h-3V115.1z M58.4,115.1h3v3h-3V115.1z M62.4,115.1h2v3h-2V115.1z
			 M65.4,115.1h3v3h-3V115.1z M69.4,115.1h3v3h-3V115.1z M73.4,115.1h3v3h-3V115.1z M77.4,115.1h3v3h-3V115.1z M81.4,115.1h3v3h-3
			V115.1z M85.4,115.1h3v3h-3V115.1z M89.4,115.1h3v3h-3V115.1z M93.4,115.1h3v3h-3V115.1z M97.4,115.1h3v3h-3V115.1z M101.4,115.1
			h3v3h-3V115.1z M105.4,115.1h3v3h-3V115.1z M109.4,115.1h3v3h-3V115.1z M113.4,115.1h3v3h-3V115.1z M113.4,114.1v-3h3v3H113.4z
			 M113.4,110.1v-3h3v3H113.4z M113.4,106.1v-3h3v3H113.4z M113.4,102.1v-3h3v3H113.4z M113.4,98.1v-3h3v3H113.4z M113.4,94.1v-3h3
			v3H113.4z M113.4,90.1v-3h3v3H113.4z M113.4,86.1v-3h3v3H113.4z M113.4,82.1v-3h3v3H113.4z M113.4,78.1v-3h3v3H113.4z M113.4,74.1
			v-3h3v3H113.4z M113.4,70.1v-3h3v3H113.4z M113.4,66.1v-3h3v3H113.4z M113.4,62.1v-3h3v3H113.4z M113.4,58.1v-3h3v3H113.4z
			 M113.4,54.1v-3h3v3H113.4z M113.4,50.1v-3h3v3H113.4z M113.4,46.1v-3h3v3H113.4z M113.4,42.1v-3h3v3H113.4z M113.4,38.1v-3h3v3
			H113.4z M113.4,34.1v-3h3v3H113.4z M113.4,30.1v-3h3v3H113.4z M113.4,26.1v-3h3v3H113.4z M113.4,22.1v-3h3v3H113.4z M113.4,18.1
			v-3h3v3H113.4z M113.4,14.1v-3h3v3H113.4z M112.4,14.1h-3v-3h3V14.1z M108.4,14.1h-3v-3h3V14.1z M104.4,14.1h-3v-3h3V14.1z
			 M100.4,14.1h-3v-3h3V14.1z M96.4,14.1h-3v-3h3V14.1z M92.4,14.1h-3v-3h3V14.1z M88.4,14.1h-3v-3h3V14.1z M84.4,14.1h-3v-3h3V14.1
			z M80.4,14.1h-3v-3h3V14.1z M76.4,14.1h-3v-3h3V14.1z M72.4,14.1h-3v-3h3V14.1z M68.4,14.1h-3v-3h3V14.1z M64.4,14.1h-2v-3h2V14.1
			z M61.4,14.1h-3v-3h3V14.1z M57.4,14.1h-3v-3h3V14.1z M53.4,14.1h-3v-3h3V14.1z M49.4,14.1h-3v-3h3V14.1z M45.4,14.1h-3v-3h3V14.1
			z M41.4,14.1h-3v-3h3V14.1z M37.4,14.1h-3v-3h3V14.1z M33.4,14.1h-3v-3h3V14.1z M29.4,14.1h-3v-3h3V14.1z M25.4,14.1h-3v-3h3V14.1
			z M21.4,14.1h-3v-3h3V14.1z M17.4,14.1h-3v-3h3V14.1z M13.4,14.1h-3v-3h3V14.1z M13.4,15.1v3h-3v-3H13.4z M13.4,19.1v3h-3v-3H13.4
			z M13.4,23.1v3h-3v-3H13.4z M13.4,27.1v3h-3v-3H13.4z M13.4,31.1v3h-3v-3H13.4z M13.4,35.1v3h-3v-3H13.4z M13.4,39.1v3h-3v-3H13.4
			z M13.4,43.1v3h-3v-3H13.4z M13.4,47.1v3h-3v-3H13.4z M13.4,51.1v3h-3v-3H13.4z M13.4,55.1v3h-3v-3H13.4z M13.4,59.1v3h-3v-3H13.4
			z M13.4,63.1v3h-3v-3H13.4z M13.4,67.1v3h-3v-3H13.4z M13.4,71.1v3h-3v-3H13.4z M13.4,75.1v3h-3v-3H13.4z M13.4,79.1v3h-3v-3H13.4
			z M13.4,83.1v3h-3v-3H13.4z M13.4,87.1v3h-3v-3H13.4z M13.4,91.1v3h-3v-3H13.4z M13.4,95.1v3h-3v-3H13.4z M13.4,99.1v3h-3v-3H13.4
			z M13.4,103.1v3h-3v-3H13.4z M13.4,107.1v3h-3v-3H13.4z M13.4,111.1v3h-3v-3H13.4z M13.4,115.1v3h-3v-3H13.4z M13.4,119.1v3h-3v-3
			H13.4z M14.4,119.1h3v3h-3V119.1z M18.4,119.1h3v3h-3V119.1z M22.4,119.1h3v3h-3V119.1z M26.4,119.1h3v3h-3V119.1z M30.4,119.1h3
			v3h-3V119.1z M34.4,119.1h3v3h-3V119.1z M38.4,119.1h3v3h-3V119.1z M42.4,119.1h3v3h-3V119.1z M46.4,119.1h3v3h-3V119.1z
			 M50.4,119.1h3v3h-3V119.1z M54.4,119.1h3v3h-3V119.1z M58.4,119.1h3v3h-3V119.1z M62.4,119.1h2v3h-2V119.1z M65.4,119.1h3v3h-3
			V119.1z M69.4,119.1h3v3h-3V119.1z M73.4,119.1h3v3h-3V119.1z M77.4,119.1h3v3h-3V119.1z M81.4,119.1h3v3h-3V119.1z M85.4,119.1h3
			v3h-3V119.1z M89.4,119.1h3v3h-3V119.1z M93.4,119.1h3v3h-3V119.1z M97.4,119.1h3v3h-3V119.1z M101.4,119.1h3v3h-3V119.1z
			 M105.4,119.1h3v3h-3V119.1z M109.4,119.1h3v3h-3V119.1z M113.4,119.1h3v3h-3V119.1z M117.4,119.1h3v3h-3V119.1z M117.4,118.1v-3
			h3v3H117.4z M117.4,114.1v-3h3v3H117.4z M117.4,110.1v-3h3v3H117.4z M117.4,106.1v-3h3v3H117.4z M117.4,102.1v-3h3v3H117.4z
			 M117.4,98.1v-3h3v3H117.4z M117.4,94.1v-3h3v3H117.4z M117.4,90.1v-3h3v3H117.4z M117.4,86.1v-3h3v3H117.4z M117.4,82.1v-3h3v3
			H117.4z M117.4,78.1v-3h3v3H117.4z M117.4,74.1v-3h3v3H117.4z M117.4,70.1v-3h3v3H117.4z M117.4,66.1v-3h3v3H117.4z M117.4,62.1
			v-3h3v3H117.4z M117.4,58.1v-3h3v3H117.4z M117.4,54.1v-3h3v3H117.4z M117.4,50.1v-3h3v3H117.4z M117.4,46.1v-3h3v3H117.4z
			 M117.4,42.1v-3h3v3H117.4z M117.4,38.1v-3h3v3H117.4z M117.4,34.1v-3h3v3H117.4z M117.4,30.1v-3h3v3H117.4z M117.4,26.1v-3h3v3
			H117.4z M117.4,22.1v-3h3v3H117.4z M117.4,18.1v-3h3v3H117.4z M117.4,14.1v-3h3v3H117.4z M117.4,10.1v-3h3v3H117.4z M116.4,10.1
			h-3v-3h3V10.1z M112.4,10.1h-3v-3h3V10.1z M108.4,10.1h-3v-3h3V10.1z M104.4,10.1h-3v-3h3V10.1z M100.4,10.1h-3v-3h3V10.1z
			 M96.4,10.1h-3v-3h3V10.1z M92.4,10.1h-3v-3h3V10.1z M88.4,10.1h-3v-3h3V10.1z M84.4,10.1h-3v-3h3V10.1z M80.4,10.1h-3v-3h3V10.1z
			 M76.4,10.1h-3v-3h3V10.1z M72.4,10.1h-3v-3h3V10.1z M68.4,10.1h-3v-3h3V10.1z M64.4,10.1h-2v-3h2V10.1z M61.4,10.1h-3v-3h3V10.1z
			 M57.4,10.1h-3v-3h3V10.1z M53.4,10.1h-3v-3h3V10.1z M49.4,10.1h-3v-3h3V10.1z M45.4,10.1h-3v-3h3V10.1z M41.4,10.1h-3v-3h3V10.1z
			 M37.4,10.1h-3v-3h3V10.1z M33.4,10.1h-3v-3h3V10.1z M29.4,10.1h-3v-3h3V10.1z M25.4,10.1h-3v-3h3V10.1z M21.4,10.1h-3v-3h3V10.1z
			 M17.4,10.1h-3v-3h3V10.1z M13.4,10.1h-3v-3h3V10.1z M9.4,10.1h-3v-3h3V10.1z M9.4,11.1v3h-3v-3H9.4z M9.4,15.1v3h-3v-3H9.4z
			 M9.4,19.1v3h-3v-3H9.4z M9.4,23.1v3h-3v-3H9.4z M9.4,27.1v3h-3v-3H9.4z M9.4,31.1v3h-3v-3H9.4z M9.4,35.1v3h-3v-3H9.4z M9.4,39.1
			v3h-3v-3H9.4z M9.4,43.1v3h-3v-3H9.4z M9.4,47.1v3h-3v-3H9.4z M9.4,51.1v3h-3v-3H9.4z M9.4,55.1v3h-3v-3H9.4z M9.4,59.1v3h-3v-3
			H9.4z M9.4,63.1v3h-3v-3H9.4z M9.4,67.1v3h-3v-3H9.4z M9.4,71.1v3h-3v-3H9.4z M9.4,75.1v3h-3v-3H9.4z M9.4,79.1v3h-3v-3H9.4z
			 M9.4,83.1v3h-3v-3H9.4z M9.4,87.1v3h-3v-3H9.4z M9.4,91.1v3h-3v-3H9.4z M9.4,95.1v3h-3v-3H9.4z M9.4,99.1v3h-3v-3H9.4z
			 M9.4,103.1v3h-3v-3H9.4z M9.4,107.1v3h-3v-3H9.4z M9.4,111.1v3h-3v-3H9.4z M9.4,115.1v3h-3v-3H9.4z M9.4,119.1v3h-3v-3H9.4z
			 M9.4,123.1v3h-3v-3H9.4z M10.4,123.1h3v3h-3V123.1z M14.4,123.1h3v3h-3V123.1z M18.4,123.1h3v3h-3V123.1z M22.4,123.1h3v3h-3
			V123.1z M26.4,123.1h3v3h-3V123.1z M30.4,123.1h3v3h-3V123.1z M34.4,123.1h3v3h-3V123.1z M38.4,123.1h3v3h-3V123.1z M42.4,123.1h3
			v3h-3V123.1z M46.4,123.1h3v3h-3V123.1z M50.4,123.1h3v3h-3V123.1z M54.4,123.1h3v3h-3V123.1z M58.4,123.1h3v3h-3V123.1z
			 M62.4,123.1h2v3h-2V123.1z M65.4,123.1h3v3h-3V123.1z M69.4,123.1h3v3h-3V123.1z M73.4,123.1h3v3h-3V123.1z M77.4,123.1h3v3h-3
			V123.1z M81.4,123.1h3v3h-3V123.1z M85.4,123.1h3v3h-3V123.1z M89.4,123.1h3v3h-3V123.1z M93.4,123.1h3v3h-3V123.1z M97.4,123.1h3
			v3h-3V123.1z M101.4,123.1h3v3h-3V123.1z M105.4,123.1h3v3h-3V123.1z M109.4,123.1h3v3h-3V123.1z M113.4,123.1h3v3h-3V123.1z
			 M117.4,123.1h3v3h-3V123.1z M121.4,123.1h3v3h-3V123.1z M121.4,122.1v-3h3v3H121.4z M121.4,118.1v-3h3v3H121.4z M121.4,114.1v-3
			h3v3H121.4z M121.4,110.1v-3h3v3H121.4z M121.4,106.1v-3h3v3H121.4z M121.4,102.1v-3h3v3H121.4z M121.4,98.1v-3h3v3H121.4z
			 M121.4,94.1v-3h3v3H121.4z M121.4,90.1v-3h3v3H121.4z M121.4,86.1v-3h3v3H121.4z M121.4,82.1v-3h3v3H121.4z M121.4,78.1v-3h3v3
			H121.4z M121.4,74.1v-3h3v3H121.4z M121.4,70.1v-3h3v3H121.4z M121.4,66.1v-3h3v3H121.4z M121.4,62.1v-3h3v3H121.4z M121.4,58.1
			v-3h3v3H121.4z M121.4,54.1v-3h3v3H121.4z M121.4,50.1v-3h3v3H121.4z M121.4,46.1v-3h3v3H121.4z M121.4,42.1v-3h3v3H121.4z
			 M121.4,38.1v-3h3v3H121.4z M121.4,34.1v-3h3v3H121.4z M121.4,30.1v-3h3v3H121.4z M121.4,26.1v-3h3v3H121.4z M121.4,22.1v-3h3v3
			H121.4z M121.4,18.1v-3h3v3H121.4z M121.4,14.1v-3h3v3H121.4z M121.4,10.1v-3h3v3H121.4z M120.4,3.1v3h-3v-3H120.4z M116.4,3.1v3
			h-3v-3H116.4z M112.4,3.1v3h-3v-3H112.4z M108.4,3.1v3h-3v-3H108.4z M104.4,3.1v3h-3v-3H104.4z M100.4,3.1v3h-3v-3H100.4z
			 M96.4,3.1v3h-3v-3H96.4z M92.4,3.1v3h-3v-3H92.4z M88.4,3.1v3h-3v-3H88.4z M84.4,3.1v3h-3v-3H84.4z M80.4,3.1v3h-3v-3H80.4z
			 M76.4,3.1v3h-3v-3H76.4z M72.4,3.1v3h-3v-3H72.4z M68.4,3.1v3h-3v-3H68.4z M64.4,3.1v3h-2v-3H64.4z M61.4,3.1v3h-3v-3H61.4z
			 M57.4,3.1v3h-3v-3H57.4z M53.4,3.1v3h-3v-3H53.4z M49.4,3.1v3h-3v-3H49.4z M45.4,3.1v3h-3v-3H45.4z M41.4,3.1v3h-3v-3H41.4z
			 M37.4,3.1v3h-3v-3H37.4z M33.4,3.1v3h-3v-3H33.4z M29.4,3.1v3h-3v-3H29.4z M25.4,3.1v3h-3v-3H25.4z M21.4,3.1v3h-3v-3H21.4z
			 M17.4,3.1v3h-3v-3H17.4z M13.4,3.1v3h-3v-3H13.4z M9.4,3.1v3h-3v-3H9.4z M2.4,3.1h3v3h-3V3.1z M2.4,7.1h3v3h-3V7.1z M2.4,11.1h3
			v3h-3V11.1z M2.4,15.1h3v3h-3V15.1z M2.4,19.1h3v3h-3V19.1z M2.4,23.1h3v3h-3V23.1z M2.4,27.1h3v3h-3V27.1z M2.4,31.1h3v3h-3V31.1
			z M2.4,35.1h3v3h-3V35.1z M2.4,39.1h3v3h-3V39.1z M2.4,43.1h3v3h-3V43.1z M2.4,47.1h3v3h-3V47.1z M2.4,51.1h3v3h-3V51.1z
			 M2.4,55.1h3v3h-3V55.1z M2.4,59.1h3v3h-3V59.1z M2.4,63.1h3v3h-3V63.1z M2.4,67.1h3v3h-3V67.1z M2.4,71.1h3v3h-3V71.1z M2.4,75.1
			h3v3h-3V75.1z M2.4,79.1h3v3h-3V79.1z M2.4,83.1h3v3h-3V83.1z M2.4,87.1h3v3h-3V87.1z M2.4,91.1h3v3h-3V91.1z M2.4,95.1h3v3h-3
			V95.1z M2.4,99.1h3v3h-3V99.1z M2.4,103.1h3v3h-3V103.1z M2.4,107.1h3v3h-3V107.1z M2.4,111.1h3v3h-3V111.1z M2.4,115.1h3v3h-3
			V115.1z M2.4,119.1h3v3h-3V119.1z M2.4,123.1h3v3h-3V123.1z M2.4,129.1v-2h3v2H2.4z M6.4,129.1v-2h3v2H6.4z M10.4,129.1v-2h3v2
			H10.4z M14.4,129.1v-2h3v2H14.4z M18.4,129.1v-2h3v2H18.4z M22.4,129.1v-2h3v2H22.4z M26.4,129.1v-2h3v2H26.4z M30.4,129.1v-2h3v2
			H30.4z M34.4,129.1v-2h3v2H34.4z M38.4,129.1v-2h3v2H38.4z M42.4,129.1v-2h3v2H42.4z M46.4,129.1v-2h3v2H46.4z M50.4,129.1v-2h3v2
			H50.4z M54.4,129.1v-2h3v2H54.4z M58.4,129.1v-2h3v2H58.4z M62.4,129.1v-2h2v2H62.4z M65.4,129.1v-2h3v2H65.4z M69.4,129.1v-2h3v2
			H69.4z M73.4,129.1v-2h3v2H73.4z M77.4,129.1v-2h3v2H77.4z M81.4,129.1v-2h3v2H81.4z M85.4,129.1v-2h3v2H85.4z M89.4,129.1v-2h3v2
			H89.4z M93.4,129.1v-2h3v2H93.4z M97.4,129.1v-2h3v2H97.4z M101.4,129.1v-2h3v2H101.4z M105.4,129.1v-2h3v2H105.4z M109.4,129.1
			v-2h3v2H109.4z M113.4,129.1v-2h3v2H113.4z M117.4,129.1v-2h3v2H117.4z M121.4,129.1v-2h3v2H121.4z M128.4,129.1h-3v-2h3V129.1z
			 M128.4,126.1h-3v-3h3V126.1z M128.4,122.1h-3v-3h3V122.1z M128.4,118.1h-3v-3h3V118.1z M128.4,114.1h-3v-3h3V114.1z M128.4,110.1
			h-3v-3h3V110.1z M128.4,106.1h-3v-3h3V106.1z M128.4,102.1h-3v-3h3V102.1z M128.4,98.1h-3v-3h3V98.1z M128.4,94.1h-3v-3h3V94.1z
			 M128.4,90.1h-3v-3h3V90.1z M128.4,86.1h-3v-3h3V86.1z M128.4,82.1h-3v-3h3V82.1z M128.4,78.1h-3v-3h3V78.1z M128.4,74.1h-3v-3h3
			V74.1z M128.4,70.1h-3v-3h3V70.1z M128.4,66.1h-3v-3h3V66.1z M128.4,62.1h-3v-3h3V62.1z M128.4,58.1h-3v-3h3V58.1z M128.4,54.1h-3
			v-3h3V54.1z M128.4,50.1h-3v-3h3V50.1z M128.4,46.1h-3v-3h3V46.1z M128.4,42.1h-3v-3h3V42.1z M128.4,38.1h-3v-3h3V38.1z
			 M128.4,34.1h-3v-3h3V34.1z M128.4,30.1h-3v-3h3V30.1z M128.4,26.1h-3v-3h3V26.1z M128.4,22.1h-3v-3h3V22.1z M128.4,18.1h-3v-3h3
			V18.1z M128.4,14.1h-3v-3h3V14.1z M128.4,10.1h-3v-3h3V10.1z M128.4,6.1h-3v-3h3V6.1z"/>
	</g>
</g>
<g id="米格_10_">
	<g>
		<path fill-rule="evenodd" clip-rule="evenodd" fill="#D9D9D9" d="M1.4,2.1v128h128V2.1H1.4z M127.7,3.1L65.4,65.4V3.1H127.7z
			 M64.4,3.1v62.3l-62-62V3.1H64.4z M2.4,4.8l61.3,61.3H2.4V4.8z M63.7,67.1L2.4,128.4V67.1H63.7z M3.1,129.1l61.3-61.3v61.3H3.1z
			 M65.4,129.1V67.8l61.3,61.3H65.4z M128.4,129.1h-0.3l-62-62h62.3V129.1z M66.1,66.1l62.3-62.3v62.3H66.1z M128.4,3.1L128.4,3.1
			L128.4,3.1L128.4,3.1z"/>
	</g>
</g>
<g>
	<g>
		<path fill-rule="evenodd" clip-rule="evenodd" fill="#333333" d="M69.7,27.3L69.7,27.3c-0.3-0.1-0.6-0.1-0.9-0.1c-1.7,0-3,1.3-3,3
			c0,1.3,0.8,2.3,2,2.8l0,0c0.1,0,0.2,0,0.2,0c0.3,0.1,0.6,0.1,0.9,0.1c0.1,0,0.2,0,0.3,0c4.8,0.5,8.4,2.2,11.4,5.2l0,0
			c0.6,0.7,1.4,1.1,2.3,1.1c1.7,0,3-1.3,3-3c0-1-0.5-1.9-1.3-2.4l0,0C80.7,30.3,75.7,28,69.7,27.3z M83.3,71.3L69.2,57.2
			c0,0,0,0,0,0s0,0,0,0l-1.4-1.4l0,0c-0.7-0.5-1.4-0.7-2.3-0.7c-0.9,0-1.6,0.3-2.3,0.7l0,0l-1.4,1.4c0,0,0,0,0,0s0,0,0,0L47.5,71.3
			c-1.6,1.6-1.6,4.1,0,5.7c1.6,1.6,4.1,1.6,5.7,0l8.2-8.2v44.3c0,2.2,1.8,4,4,4c2.2,0,4-1.8,4-4V68.7l8.2,8.2c1.6,1.6,4.1,1.6,5.7,0
			C84.9,75.4,84.9,72.9,83.3,71.3z M104.7,47.4C101.1,29,84.9,15.1,65.4,15.1c-19.5,0-35.7,13.9-39.3,32.4
			C16.3,51.8,9.4,61.6,9.4,73.1c0,14.8,11.5,26.9,26,27.9v0.1h10c0,0,0,0,0,0c2.2,0,4-1.8,4-4c0-2.2-1.8-4-4-4c0,0,0,0,0,0h-9V93
			c-10.6-0.5-19-9.2-19-19.9c0-9.7,6.9-17.8,16-19.6c0.8-16.9,14.8-30.4,31.9-30.4c17.1,0,31.1,13.5,31.9,30.4
			c9.2,1.8,16.1,9.9,16.1,19.6c0,11-9,20-20,20c-0.3,0-0.7,0-1-0.1v0.1h-7c0,0,0,0,0,0c-2.2,0-4,1.8-4,4c0,2.2,1.8,4,4,4
			c0,0,0,0,0,0h7v0c0.3,0,0.7,0,1,0c15.5,0,28-12.5,28-28C121.4,61.6,114.5,51.8,104.7,47.4z M92.3,44.9c0-0.1-0.1-0.2-0.1-0.3
			c-0.3-0.6-0.6-1.2-0.9-1.8l-0.2,0.1c-0.3-1.4-1.5-2.4-3-2.4c-1.7,0-3,1.3-3,3c0,0.5,0.1,0.9,0.3,1.3l0,0c0.4,0.7,0.8,1.4,1.2,2.2
			c0.1,0.2,0.2,0.4,0.3,0.6c0.1,0.1,0.1,0.3,0.2,0.4l0.1,0c0.6,0.6,1.3,0.9,2.2,0.9c1.7,0,3-1.3,3-3c0-0.3-0.1-0.5-0.1-0.8l0,0
			C92.4,45,92.4,45,92.3,44.9z"/>
	</g>
</g>
<g id="矩形_207_拷贝">
	<g>
		<rect x="9.4" y="69.1" fill-rule="evenodd" clip-rule="evenodd" fill="#FF6600" width="8" height="8"/>
	</g>
</g>
<g id="矩形_208">
	<g>
		<path fill-rule="evenodd" clip-rule="evenodd" fill="#FF6600" d="M16.4,77.1v62h1v-62H16.4z M9.4,139.1h1v-62h-1V139.1z"/>
	</g>
</g>
<text transform="matrix(1.002 0 0 1 10.7393 153.0886)" font-family="'MicrosoftYaHei'" font-size="12">8</text>
<g id="矩形_208_拷贝_2">
	<g>
		<path fill-rule="evenodd" clip-rule="evenodd" fill="#FF6600" d="M81.6,69.5l-0.7,0.7l65.1,65.1l0.7-0.7L81.6,69.5z M75.9,75.2
			l65.1,65.1l0.7-0.7L76.6,74.5L75.9,75.2z"/>
	</g>
</g>
<g id="矩形_207_拷贝_2">
	<g>
		
			<rect x="71.9" y="65.5" transform="matrix(0.7071 -0.7071 0.7071 0.7071 -26.9447 74.0347)" fill-rule="evenodd" clip-rule="evenodd" fill="#FF6600" width="8" height="8"/>
	</g>
</g>
<text transform="matrix(1.002 0 0 1 144.7393 148.0886)" font-family="'MicrosoftYaHei'" font-size="12">8</text>
<g id="矩形_208_拷贝_5">
	<g>
		<path fill-rule="evenodd" clip-rule="evenodd" fill="#FF6600" d="M72.4,27.1v1h68v-1H72.4z M72.4,33.1h68v-1h-68V33.1z"/>
	</g>
</g>
<g id="矩形_207_拷贝_4">
	<g>
		<rect x="66.4" y="27.1" fill-rule="evenodd" clip-rule="evenodd" fill="#FF6600" width="6" height="6"/>
	</g>
</g>
<text transform="matrix(1.002 0 0 1 145.7393 35.0886)" font-family="'MicrosoftYaHei'" font-size="12">6</text>
</svg>
