<?xml version="1.0" encoding="utf-8"?>
<!-- Generator: Adobe Illustrator 17.1.0, SVG Export Plug-In . SVG Version: 6.00 Build 0)  -->
<!DOCTYPE svg PUBLIC "-//W3C//DTD SVG 1.1//EN" "http://www.w3.org/Graphics/SVG/1.1/DTD/svg11.dtd">
<svg version="1.1" id="图层_1" xmlns="http://www.w3.org/2000/svg" xmlns:xlink="http://www.w3.org/1999/xlink" x="0px" y="0px"
	 viewBox="0 0 181.8 182.2" enable-background="new 0 0 181.8 182.2" xml:space="preserve">
<g id="形状_583_副本">
	<g>
		<circle fill-rule="evenodd" clip-rule="evenodd" fill="#ECECEC" cx="91.1" cy="91.3" r="90"/>
	</g>
</g>
<g id="形状_589">
	<g>
		<path fill-rule="evenodd" clip-rule="evenodd" fill="#FFFFFF" d="M96.1,86.3c-11.8,0-20,2.1-20,2.1l19.7,53.3l20.3-53.2
			C116.1,88.5,107.8,86.3,96.1,86.3z"/>
	</g>
</g>
<g id="形状_588">
	<g>
		<path fill-rule="evenodd" clip-rule="evenodd" fill="#4D2D26" d="M116.2,88.4l-19.2,29.9L76.5,88.1c0,0-25.4,7.4-25.4,20.3
			c0,12.9,0,63.5,0,63.5c12.6,6,26.5,9.4,41.5,9.4c17.9,0,34.5-5.7,48.5-14.6c0,0,0-42.6,0-58.2C141.1,92.9,116.2,88.4,116.2,88.4z"
			/>
	</g>
</g>
<g id="脖子">
	<g>
		<path fill-rule="evenodd" clip-rule="evenodd" fill="#F8B787" d="M85.1,78.3v12c0,1.7,4.9,3,11,3c6.1,0,11-1.3,11-3h0v-12H85.1z"
			/>
	</g>
</g>
<g id="耳朵">
	<g>
		<path fill-rule="evenodd" clip-rule="evenodd" fill="#F8B787" d="M111.8,57.9L111.7,71c0,0,7.1-2,7.1-7.2
			C118.8,58.4,111.8,57.9,111.8,57.9z M73.3,63.9c0,5.2,5.8,7.2,5.8,7.2l1-13.3l-0.3-0.2C79.9,57.5,73.3,58.4,73.3,63.9z"/>
	</g>
</g>
<g id="脸蛋">
	<g>
		<path fill-rule="evenodd" clip-rule="evenodd" fill="#FFD6B4" d="M78.4,45.4v23.8c0,9.8,10.1,18.9,13.7,18.9h9.8
			c3.6,0,11.8-9.1,11.8-19.5V42.5L78.4,45.4z"/>
	</g>
</g>
<g id="矩形_154">
	<g>
		<path fill-rule="evenodd" clip-rule="evenodd" fill="#4D2D26" d="M110.1,38.3c0,0-3.1-8-14.3-8s-15.6,4-19.7,12.3
			c-2.3,4.6-1.7,11.5-0.4,16.7c1.4-1.1,3.1-1.5,3.9-1.7c0.5-5.1,1.2-8.1,1.2-8.1s4.9,1.6,10.4,0c5.6-1.6,12.7-4.8,15.9-3.2
			c0.5,4.9,3.8,6.2,5,9c0.3,0.6,0.5,1.6,0.6,2.8c0.9,0.2,2.3,0.5,3.5,1.3C121,36.5,110.1,38.3,110.1,38.3z"/>
	</g>
</g>
<g id="形状_586_副本">
	<g>
		<path fill-rule="evenodd" clip-rule="evenodd" fill="#4D2D26" d="M62.8,123.3c3.3-6.7,5.3-15.3,5.3-24.5c0-21.8-11-39.5-24.5-39.5
			C30,59.3,19.1,77,19.1,98.8c0,9.3,2,17.8,5.3,24.5H62.8z"/>
	</g>
</g>
<g id="形状_584">
	<g>
		<path fill-rule="evenodd" clip-rule="evenodd" fill="#F7987D" d="M67.5,121.4c-6.4-7.1-19-11-19-11h-9c0,0-16,4-21.4,10.3
			c-3,3.5-3.9,8.2-4.1,14.3v2.9c12.4,21.2,33.2,35.8,57.9,41.3v-2.8l0.1-39.4c0-0.4,0-1.1,0-1.1C72.1,129.9,70.7,124.9,67.5,121.4z"
			/>
	</g>
</g>
<g id="形状_585">
	<g>
		<path fill-rule="evenodd" clip-rule="evenodd" fill="#F8B787" d="M38.1,103.6v8c0,0,3.2,1.3,6.1,1.3c3,0,5.9-1.3,5.9-1.3v-8H38.1z
			"/>
	</g>
</g>
<g id="形状_587">
	<g>
		<path fill-rule="evenodd" clip-rule="evenodd" fill="#FFD6B4" d="M55,83c-0.5,0.6-1.3,1-2.2,1c-1.6,0-2.9-1.2-3-2.8
			c-0.5,0.5-1.2,0.8-2,0.8c-1.5,0-2.7-1.1-3-2.5c-0.5,0.3-1.1,0.5-1.7,0.5c-1.7,0-3-2.6-3-2.6s-1.3,2.2-3,2.2
			c-0.6,0-1.2-0.2-1.7-0.5c-0.1,1.6-1.4,2.8-3,2.8c-0.5,0-1.8,0-1.8,0s0.1,8.4,0.1,13c0,7.6,10.8,14.2,13.5,14.2h0.9
			c2.7,0,12-6.7,12-14.6c0-3.2,0.1-7.3,0.2-9.7C56.3,84.8,55.3,84,55,83z"/>
	</g>
</g>
<g id="形状_605">
	<g>
		<path fill-rule="evenodd" clip-rule="evenodd" fill="#4D2D26" d="M55.4,74.8l-16.2-3.7l-7.2,3.3l-5.8,3.3l2.2,5.7
			c0,0,5.5-0.5,8.2-2.2c2.7-1.7,3.3-3.3,3.3-3.3s3,4.2,8.8,5.7c5.8,1.5,10.8,1.7,10.8,1.7L55.4,74.8z"/>
	</g>
</g>
<g id="形状_600">
	<g>
		<path fill-rule="evenodd" clip-rule="evenodd" fill="#F8B787" d="M159.8,84.7l-0.1,11.4c0,0,6.2-1.7,6.2-6.3
			C165.9,85.1,159.8,84.7,159.8,84.7z M128.2,89.9c0,4.6,5.1,6.3,5.1,6.3l0.9-11.7l-0.2-0.2C133.9,84.3,128.2,85.2,128.2,89.9z"/>
	</g>
</g>
<g id="形状_596">
	<g>
		<path fill-rule="evenodd" clip-rule="evenodd" fill="#84AABC" d="M173.4,120.7c-4.8-4.2-13-9-13-9H134c0,0-7.7,3.4-13.5,8.5
			c-3.2,2.8-4.2,6.6-4.3,11.5v0.1l0.1,46.2c27.6-7.4,49.2-28.7,59.3-55C174.8,121.9,174.4,121.6,173.4,120.7z"/>
	</g>
</g>
<g id="形状_597">
	<g>
		<path fill-rule="evenodd" clip-rule="evenodd" fill="#F8B787" d="M139.1,104.3v9.1c0,0,2.4,1.9,7.8,1.9c5.2,0,8.2-1.9,8.2-1.9
			v-9.1H139.1z"/>
	</g>
</g>
<g id="形状_599">
	<g>
		<path fill-rule="evenodd" clip-rule="evenodd" fill="#4D2D26" d="M148.2,60.2c-14,0-19,4.5-19,10.5c0,6,1.4,15.5,1.4,15.5
			s11.6-0.5,17.4-0.5c5.8,0,15,0.5,15,0.5s1.5-7.3,1.8-13.7C164.9,60.8,151.7,60.2,148.2,60.2z"/>
	</g>
</g>
<g id="形状_598">
	<g>
		<path fill-rule="evenodd" clip-rule="evenodd" fill="#FFD6B4" d="M160.3,79.4c-0.2-2.1-4.6-4.3-4.6-4.3s-3.7,1.4-8.2,1.4
			s-8.1-1.4-8.1-1.4s-5.4,1.9-5.6,4.6c-0.4,4.6-1,11.8-1,16.4c0,7.3,9.9,15.3,12.6,15.3h5c2.7,0,11.1-8,11.1-15.8
			C161.4,90.9,160.7,84,160.3,79.4z"/>
	</g>
</g>
</svg>
