<?xml version="1.0" encoding="utf-8"?>
<!-- Generator: Adobe Illustrator 17.1.0, SVG Export Plug-In . SVG Version: 6.00 Build 0)  -->
<!DOCTYPE svg PUBLIC "-//W3C//DTD SVG 1.1//EN" "http://www.w3.org/Graphics/SVG/1.1/DTD/svg11.dtd">
<svg version="1.1" id="图层_1" xmlns="http://www.w3.org/2000/svg" xmlns:xlink="http://www.w3.org/1999/xlink" x="0px" y="0px"
	 viewBox="0 0 114.4 27.9" enable-background="new 0 0 114.4 27.9" xml:space="preserve">
<g>
	<path fill="#333333" d="M1.8,22.2h10.1v-2.4H4.4v-4h7.4v-2.1H7.1v-2.4c-1.3,0.9-2.7,1.7-4,2.4c-0.9-1.7-1.7-3-2.4-3.9
		C6,7.2,9.8,4.3,12.1,0.9l5.3,0.2c-0.1,0.1-0.2,0.3-0.3,0.5c-0.1,0.1-0.1,0.1-0.1,0.2c2.7,3.3,6.3,5.8,10.8,7.4
		c-0.9,1.3-1.7,2.7-2.4,4.2c-1.4-0.8-2.7-1.6-3.9-2.3v2.5h-4.8v2.1h7.7v4h-7.7v2.4h10.1v3.9H1.8V22.2z M14.5,5
		c-1.2,1.5-2.8,3-4.9,4.6h9.5C17.3,8.3,15.8,6.8,14.5,5z"/>
	<path fill="#333333" d="M36.9,4.9h8.8c0-0.4,0-1.1-0.1-2c0-0.9,0-1.5-0.1-1.9h4c0,0.4,0,0.9,0,1.8c0.1,0.9,0.1,1.6,0.1,2.1h1.9
		c-0.1-0.3-0.4-0.8-0.8-1.5c-0.3-0.4-0.5-0.8-0.7-1.1L53.1,1c0.4,0.6,1,1.5,1.8,2.7C55,3.9,55,4,55,4l-2.2,0.9h2.5v3.7h-5.7
		c0,0.2,0,0.6,0.1,1.2c0,0.5,0,0.9,0,1.2c0,1.4,0.1,2.6,0.2,3.7c0.7-1.5,1.4-3.3,2.1-5.2l3.4,1.4c-1.4,3.6-3,6.9-4.8,9.7
		c0,0.1,0,0.2,0.1,0.4c0,0.2,0,0.4,0,0.5c0.2,0.7,0.4,1.1,0.7,1.1c0.4,0.1,0.6-0.3,0.7-1.2c0.1-0.9,0.3-2,0.4-3.3
		c0.3,0.1,0.7,0.3,1.2,0.4c0.8,0.4,1.4,0.6,1.9,0.8c-0.2,2-0.5,3.5-0.8,4.4c-0.4,2.2-1.6,3.2-3.4,3.2c-1.8,0.1-3-0.9-3.7-2.8
		c-0.9,1-1.8,2-2.7,3c-0.1-0.2-0.4-0.6-0.9-1.2c-0.4-0.5-0.7-0.9-0.9-1.2c-0.9,0.1-2.4,0.3-4.3,0.5c-1.2,0.1-2,0.1-2.4,0.2l-0.3-1.9
		c-1,0.1-2.6,0.4-4.8,0.8c-0.9,0.1-1.6,0.3-2,0.3l-0.7-4.3c0.8-0.1,1.6-0.3,2.3-0.3v-8.3h-1.9V7.6h1.9V1h3.8v6.7h1.6v4.2h-1.6v7.8
		l1.8-0.2v2.1c3.6-0.1,6.6-0.3,8.9-0.5c0.4-0.4,0.8-0.8,1.1-1.2c0-0.1,0-0.3-0.1-0.5c-0.3-2.8-0.5-5.4-0.5-7.9
		c-0.1-0.8-0.1-1.7-0.1-2.6h-9V4.9z M45,10.2v9.6h-7.8v-9.6H45z M40.3,16.2h1.6v-2.5h-1.6V16.2z"/>
	<path fill="#333333" d="M72.8,0.9h4.2v1.4h6.3v3.3h-6.3v0.9h-4.2V5.6h-5v0.9h-4.2V5.6h-6.3V2.3h6.3V0.9h4.2v1.4h5V0.9z M57.7,12.5
		V7h25.2v5.5h-3.5v5.4H61.1v-5.4H57.7z M59.1,27.1v-8.2h22.3v8.2H77v-1H63.5v1H59.1z M61.9,9.9v1h16.6v-1H61.9z M63.5,22v1.3H77V22
		H63.5z M75.1,13.8h-9.7V15h9.7V13.8z"/>
	<path fill="#333333" d="M87.9,0.8l3.9,0.7c-0.1,0.3-0.2,0.7-0.4,1.2c-0.1,0.6-0.3,1-0.4,1.3h3.4l2.6-2.2c1.1,0.9,2.3,2.1,3.7,3.5
		l-3.1,2.5c-0.1-0.1-0.3-0.3-0.5-0.5c-1.1-1.3-2-2.3-2.6-2.8v3.1h-5c-0.2,0.6-0.5,1.2-0.9,1.7h5.4v3.6h-2.3v2.1h2.5v3.5h-2.5v3.2
		c0.3-0.2,0.8-0.5,1.6-1c0.4-0.2,0.7-0.4,0.9-0.4c0,1.8,0,3.1,0.1,3.8c-0.1,0.1-0.2,0.1-0.3,0.2c-1.8,0.9-3,1.6-3.6,2.1
		c-0.1,0.1-0.4,0.3-0.7,0.4c-0.3,0.2-0.5,0.4-0.7,0.4l-2.1-3.2c0.6-0.7,0.9-1.6,0.9-2.7v-2.8h-2.5v-3.5h2.5v-2.1h-1.9V9.9
		c-0.1-0.2-0.3-0.5-0.5-1c-0.2-0.4-0.4-0.8-0.5-1C85.9,6.2,86.9,3.8,87.9,0.8z M109,1.7l2.6,2.6c-0.5,0.4-1.3,1.1-2.4,2.1
		c-0.7,0.6-1.2,1.1-1.6,1.4L104.9,5v2.8h5.7V23c0.1,2.6-1.2,3.8-3.7,3.8c-0.4,0-0.9,0-1.8,0c-1,0.1-1.8,0.1-2.4,0.1
		c-0.2-1.1-0.5-2.3-0.8-3.6c1,0,2,0,3,0c1.1,0.1,1.6-0.4,1.5-1.5h-7.3V27h-4V7.9h5.6V1h4.3v3.9c0.9-0.7,2.2-1.6,3.7-2.8
		C108.8,1.9,108.9,1.8,109,1.7z M99.1,11.8v1.4h7.3v-1.4H99.1z M99.1,16.7v1.5h7.3v-1.5H99.1z"/>
</g>
</svg>
