<?xml version="1.0" encoding="utf-8"?>
<!-- Generator: Adobe Illustrator 17.1.0, SVG Export Plug-In . SVG Version: 6.00 Build 0)  -->
<!DOCTYPE svg PUBLIC "-//W3C//DTD SVG 1.1//EN" "http://www.w3.org/Graphics/SVG/1.1/DTD/svg11.dtd">
<svg version="1.1" id="图层_1" xmlns="http://www.w3.org/2000/svg" xmlns:xlink="http://www.w3.org/1999/xlink" x="0px" y="0px"
	 viewBox="0 0 181.8 182.2" enable-background="new 0 0 181.8 182.2" xml:space="preserve">
<g id="形状_583">
	<g>
		<circle fill-rule="evenodd" clip-rule="evenodd" fill="#ECECEC" cx="90.9" cy="90.6" r="90"/>
	</g>
</g>
<path fill="#FFD6B4" d="M177.9,114.5c-12.9-18.2-29.7-50.9-37-50.9c-10.2,0-21.4,30.8-33.6,30.8S91.8,73.6,83.9,73.6
	c-7.9,0-12.6,27-24,27c-11.4,0-11.5-16-17-16s-8.2,17-16,17c-6.3,0-15-19.6-24.3-27.3c-1.1,5.6-1.7,11.4-1.7,17.3
	c0,12.3,2.5,24.1,7,34.8c53.7,0,132.1,0,166.1,0C175.5,122.5,176.9,118.6,177.9,114.5z"/>
<path fill-rule="evenodd" clip-rule="evenodd" fill="#F7987D" d="M14.2,138.6l153.1,0.6c8.7-13.8,13.7-30.2,13.7-47.7
	c0-1.9-0.1-3.8-0.2-5.7c-4-7.7-8-13.6-12.3-13.6c-12.3,0-21.4,31-29.3,31c-7.9,0-17.5-18.8-24.4-18.8c-7.8,0-18.1,33.8-31.5,33.8
	c-5.2,0-6.9-18.8-14.5-18.8s-10.3,22.9-19.5,22.9C40,122.4,29,94.4,16,94.4c-4.2,0-9.2,4.6-14.1,10.8C3.8,117.3,8,128.6,14.2,138.6z
	"/>
<path fill="#84AABC" d="M157.9,147.1c-13.4,0-20.8-32.8-31.4-32.8s-11.4,19.2-19.4,19.4c-7.7,0.2-9.6-11.8-17.6-11.8
	c-8,0-7.1,11.5-20.7,11.3c-13.5-0.3-18.2-23.6-31.1-23.6c-8.9,0-15.6,18.1-22.9,29.3c1.9,2.9,3.9,5.8,6.1,8.5
	C62,147.3,162.3,147.1,157.9,147.1z"/>
<g id="形状_18_副本_2">
	<g>
		<circle fill-rule="evenodd" clip-rule="evenodd" fill="#4D2D26" cx="68.6" cy="100.8" r="3.3"/>
	</g>
</g>
<g id="形状_18_副本_6">
	<g>
		<circle fill-rule="evenodd" clip-rule="evenodd" fill="#4D2D26" cx="84.4" cy="118.1" r="2.8"/>
	</g>
</g>
<g id="形状_18_副本_8">
	<g>
		<circle fill-rule="evenodd" clip-rule="evenodd" fill="#FDBC52" cx="43.4" cy="87.1" r="3.2"/>
	</g>
</g>
<g id="形状_18_副本_9">
	<g>
		<circle fill-rule="evenodd" clip-rule="evenodd" fill="#FDBC52" cx="84.4" cy="75.1" r="4.5"/>
	</g>
</g>
<g id="形状_18_副本_10">
	<g>
		<circle fill-rule="evenodd" clip-rule="evenodd" fill="#FDBC52" cx="141.4" cy="63.1" r="4.5"/>
	</g>
</g>
<g id="形状_18_副本_5">
	<g>
		<circle fill-rule="evenodd" clip-rule="evenodd" fill="#4D2D26" cx="139.4" cy="103.1" r="4.8"/>
	</g>
</g>
<g id="形状_18_副本_3">
	<g>
		<circle fill-rule="evenodd" clip-rule="evenodd" fill="#4D2D26" cx="115.4" cy="85.1" r="5"/>
	</g>
</g>
<g id="形状_18_副本_6_2_">
	<g>
		<circle fill-rule="evenodd" clip-rule="evenodd" fill="#4D2D26" cx="16.4" cy="95.1" r="3.4"/>
	</g>
</g>
</svg>
