<?xml version="1.0" encoding="utf-8"?>
<!-- Generator: Adobe Illustrator 17.1.0, SVG Export Plug-In . SVG Version: 6.00 Build 0)  -->
<!DOCTYPE svg PUBLIC "-//W3C//DTD SVG 1.1//EN" "http://www.w3.org/Graphics/SVG/1.1/DTD/svg11.dtd">
<svg version="1.1" id="图层_1" xmlns="http://www.w3.org/2000/svg" xmlns:xlink="http://www.w3.org/1999/xlink" x="0px" y="0px"
	 viewBox="0 0 181.8 182.2" enable-background="new 0 0 181.8 182.2" xml:space="preserve">
<g>
	<defs>
		<circle id="SVGID_1_" cx="90.8" cy="91.1" r="90"/>
	</defs>
	<clipPath id="SVGID_2_">
		<use xlink:href="#SVGID_1_"  overflow="visible"/>
	</clipPath>
	<g clip-path="url(#SVGID_2_)">
		<g id="形状_583_1_">
			<g>
				<circle fill-rule="evenodd" clip-rule="evenodd" fill="#ECECEC" cx="90.8" cy="91.1" r="90"/>
			</g>
		</g>
		<g id="形状_619">
			<g>
				<rect x="-4.6" y="69.1" fill-rule="evenodd" clip-rule="evenodd" fill="#F7987D" width="20" height="23"/>
			</g>
		</g>
		<g id="形状_619_副本">
			<g>
				<polygon fill-rule="evenodd" clip-rule="evenodd" fill="#628CBB" points="10.4,80.1 10.4,92.1 30.4,92.1 30.4,75.4 				"/>
			</g>
		</g>
		<g id="形状_619_副本_2">
			<g>
				<rect x="41.4" y="75.1" fill-rule="evenodd" clip-rule="evenodd" fill="#B4AB76" width="15" height="17"/>
			</g>
		</g>
		<g id="形状_619_副本_8">
			<g>
				<path fill-rule="evenodd" clip-rule="evenodd" fill="#628CBB" d="M136.3,74.2c-3.5,1.4-5.9,3-5.9,3v14.9h13V72.3
					C143.4,72.3,139.4,73,136.3,74.2z"/>
			</g>
		</g>
		<g id="形状_619_副本_7">
			<g>
				<rect x="170.4" y="84.1" fill-rule="evenodd" clip-rule="evenodd" fill="#628CBB" width="13" height="8"/>
			</g>
		</g>
		<g id="形状_619_副本_4">
			<g>
				<polygon fill-rule="evenodd" clip-rule="evenodd" fill="#FFC933" points="139.4,80.6 139.4,92.1 154.4,92.1 154.4,85.1 				"/>
			</g>
		</g>
		<g id="形状_619_副本_6">
			<g>
				<rect x="25.4" y="85.1" fill-rule="evenodd" clip-rule="evenodd" fill="#FFC933" width="13" height="7"/>
			</g>
		</g>
		<g id="形状_611">
			<g>
				<path fill-rule="evenodd" clip-rule="evenodd" fill="#4D2D26" d="M124.4,53.1h-64c-3.3,0-6,2.7-6,6v134c0,3.3,2.7,6,6,6h64
					c3.3,0,6-2.7,6-6v-134C130.4,55.8,127.7,53.1,124.4,53.1z"/>
			</g>
		</g>
		<g id="形状_615">
			<g>
				<path fill-rule="evenodd" clip-rule="evenodd" fill="#84AABC" d="M122.4,59.1h-60c-1.1,0-2,0.9-2,2v135c0,1.1,0.9,2,2,2h60
					c1.1,0,2-0.9,2-2v-135C124.4,60,123.5,59.1,122.4,59.1z"/>
			</g>
		</g>
		<g id="形状_617">
			<g>
				<circle fill-rule="evenodd" clip-rule="evenodd" fill="#8197B7" cx="91.6" cy="118.6" r="19.7"/>
			</g>
		</g>
		<g id="形状_612">
			<g>
				<path fill-rule="evenodd" clip-rule="evenodd" fill="#FFFFFF" d="M86.4,109.1v0.3c0.1,0,0.2-0.1,0.2-0.1L86.4,109.1z
					 M98.9,116.6l-9.6-5.7c0,0,0,0,0,0c-0.3-0.1-0.5-0.2-0.8-0.2c-1.2,0-2.1,0.9-2.2,2.1c0,0,0,0,0,0v12.6c0.1,0,0.2-0.1,0.2-0.1
					c0.4,0.7,1.1,1.2,1.9,1.2c0.2,0,0.5,0,0.7-0.1c0,0,0,0,0,0.1l9.7-5.7c0.9-0.3,1.6-1.1,1.6-2.1
					C100.5,117.6,99.8,116.8,98.9,116.6z"/>
			</g>
		</g>
		<g id="形状_619_副本_9" opacity="0.702">
			<g>
				<polygon fill-rule="evenodd" clip-rule="evenodd" fill="#739FE2" points="79.5,75.1 67.4,75.1 67.4,92.1 90.4,92.1 90.4,81.8 
									"/>
			</g>
		</g>
		<g id="形状_613">
			<g>
				<path fill-rule="evenodd" clip-rule="evenodd" fill="#FFD6B4" d="M63.5,112.1c-0.4-4.4-4.4-8.3-4.4-8.3L33.4,132v41.2l19.9,10.8
					v-37.2l-3.3-9.8c0,0,7.1-6.6,10.2-10.8C63.4,122.1,63.9,117,63.5,112.1z"/>
			</g>
		</g>
		<g id="形状_619_副本_11" opacity="0.702">
			<g>
				<rect x="112.4" y="84.1" fill-rule="evenodd" clip-rule="evenodd" fill="#739FE2" width="12" height="8"/>
			</g>
		</g>
		<g id="形状_619_副本_13" opacity="0.702">
			<g>
				<polygon fill-rule="evenodd" clip-rule="evenodd" fill="#739FE2" points="103.4,75.7 103.4,92.1 119.4,92.1 119.4,71.8 				"/>
			</g>
		</g>
		<g id="形状_619_副本_10" opacity="0.702">
			<g>
				<rect x="59.4" y="83.1" fill-rule="evenodd" clip-rule="evenodd" fill="#739FE2" width="13" height="9"/>
			</g>
		</g>
		<g id="形状_619_副本_12" opacity="0.702">
			<g>
				<rect x="86.4" y="87.1" fill-rule="evenodd" clip-rule="evenodd" fill="#739FE2" width="13" height="5"/>
			</g>
		</g>
		<g id="形状_619_副本_5">
			<g>
				<polygon fill-rule="evenodd" clip-rule="evenodd" fill="#FDBC52" points="160.4,72.1 150.4,72.1 150.4,92.1 174.4,92.1 
					174.4,76.1 				"/>
			</g>
		</g>
		<g id="形状_614">
			<g>
				<path fill-rule="evenodd" clip-rule="evenodd" fill="#FFD6B4" d="M141.2,125c-2.7-2.7-7-2.8-9.5-0.3l-4.4,4.4
					c-2.6,2.6-2.4,6.8,0.3,9.5c2.7,2.7,7,2.8,9.5,0.3l4.4-4.4C144.1,132,143.9,127.7,141.2,125z"/>
			</g>
		</g>
		<g id="形状_614_副本_3">
			<g>
				<path fill-rule="evenodd" clip-rule="evenodd" fill="#FFD6B4" d="M143.2,139c-2.7-2.7-7-2.8-9.5-0.3l-7.4,7.4
					c-2.6,2.6-2.4,6.8,0.3,9.5c2.7,2.7,7,2.8,9.5,0.3l7.4-7.4C146.1,146,145.9,141.7,143.2,139z"/>
			</g>
		</g>
		<g id="形状_614_副本_4">
			<g>
				<path fill-rule="evenodd" clip-rule="evenodd" fill="#FFD6B4" d="M143.2,155c-2.7-2.7-7-2.8-9.5-0.3l-7.4,7.4
					c-2.6,2.6-2.4,6.8,0.3,9.5c2.7,2.7,7,2.8,9.5,0.3l7.4-7.4C146.1,162,145.9,157.7,143.2,155z"/>
			</g>
		</g>
		<g id="形状_618">
			<g>
				<path fill-rule="evenodd" clip-rule="evenodd" fill="#FFFFFF" d="M130.5,129.8c0,0-4.2,3.1-1.3,6.1c3.3,3.3,6.6-0.4,6.6-0.4
					L130.5,129.8z"/>
			</g>
		</g>
		<g id="形状_618_副本">
			<g>
				<path fill-rule="evenodd" clip-rule="evenodd" fill="#FFFFFF" d="M130.5,145.8c0,0-4.2,3.1-1.3,6.1c3.3,3.3,6.6-0.4,6.6-0.4
					L130.5,145.8z"/>
			</g>
		</g>
	</g>
</g>
</svg>
