<?xml version="1.0" encoding="utf-8"?>
<!-- Generator: Adobe Illustrator 17.1.0, SVG Export Plug-In . SVG Version: 6.00 Build 0)  -->
<!DOCTYPE svg PUBLIC "-//W3C//DTD SVG 1.1//EN" "http://www.w3.org/Graphics/SVG/1.1/DTD/svg11.dtd">
<svg version="1.1" id="图层_1" xmlns="http://www.w3.org/2000/svg" xmlns:xlink="http://www.w3.org/1999/xlink" x="0px" y="0px"
	 viewBox="0 0 84.8 27.9" enable-background="new 0 0 84.8 27.9" xml:space="preserve">
<g>
	<path fill="#333333" d="M0.7,23.4c0.7-1.3,1.4-3.1,2.3-5.4l3.2,1.1c-0.5,1.4-1.1,2.7-1.6,3.9h1c0.8,0.1,1.2-0.3,1.1-1.1v-4.3H1.7
		v-3.5h4.9v-1.3H1.3V9.4h2.8C3.6,8.8,3,8.1,2.5,7.3l1.9-0.9H1.8V3h4.3C5.9,2.6,5.8,2,5.7,1.4C5.7,1.2,5.6,1.1,5.6,1l4.6-0.3
		c0.2,0.7,0.4,1.4,0.4,2.3h4.2v3.4h-2.7l2.2,0.8c-0.1,0.2-0.4,0.6-0.8,1.1c-0.3,0.5-0.5,0.9-0.8,1.2h2.5v3.5h-4.6v1.3h4.3v3.5h-4.3
		v5.4c0.1,2.2-1,3.4-3.3,3.5c-0.3,0-0.7,0-1.1,0c-0.7,0.1-1.2,0.1-1.6,0.1c-0.1-0.3-0.2-0.8-0.3-1.5c-0.1-0.6-0.1-1-0.2-1.3
		c0,0.1-0.1,0.2-0.2,0.4c-0.1,0.1-0.1,0.3-0.2,0.3L0.7,23.4z M7.9,8.6L6.3,9.4h2.4c0.7-1.1,1.2-2.1,1.8-3.1H6.2
		C6.7,7.1,7.3,7.8,7.9,8.6z M26.2,1.5l1.3,3.8c-0.9,0.1-2.4,0.3-4.4,0.5C21.7,6,20.7,6.1,20,6.2v3.4h7.7v3.9h-2.1v12.9h-3.9V13.5H20
		c0,3.3-0.2,5.8-0.5,7.7c-0.4,1.8-1.1,3.8-2.1,5.9c-1.2-0.8-2.4-1.6-3.6-2.4c0.5-0.9,0.8-1.7,1-2.2l-2.1,1c-0.5-1.3-1.2-2.7-2-4.2
		l3.1-1.3c0.5,1,1,2,1.5,2.8c0.4-1.6,0.5-4.2,0.5-7.8V2.6C19.8,2.3,23.3,2,26.2,1.5z"/>
	<path fill="#333333" d="M55.4,15.9v3.4h-4.8c1.1,1.4,2.9,2.6,5.4,3.5c-0.7,0.9-1.3,2-2,3.3c-2.1-1.1-3.8-2.3-5.1-3.7v4.6H45v-4.7
		c-1.4,1.5-3.2,2.8-5.5,4c-0.1-0.2-0.4-0.6-0.7-1.1c-0.5-0.9-0.9-1.4-1.1-1.6l-0.8,1c-0.7-0.6-1.2-1.2-1.8-1.8
		c-1.1,1.3-2.5,2.8-4.3,4.4c-0.4-0.5-1.1-1.6-2.2-3.4c1.6-1.3,2.9-2.6,3.8-3.8c-1.1-1.1-2.2-2.2-3.4-3.4c0.5-2,1-4.6,1.4-7.5h-1.5
		V5.3h2C31.2,4.8,31.3,4,31.3,3c0.1-1,0.2-1.8,0.2-2.3L35.4,1c-0.1,0.4-0.1,1.1-0.2,2.1C35,4,34.9,4.8,34.8,5.3h3.8V2.9h1.9V0.7h3.7
		v2.2h5.5V0.7h3.8v2.2h1.8v3.3h-1.8v8.4h-4.7v1.3H55.4z M33.1,15.5c0.1,0.1,0.4,0.3,0.7,0.5c0.3,0.2,0.5,0.4,0.7,0.5
		c0.5-1.5,0.9-4,1.3-7.5h-1.4c-0.1,0.6-0.3,1.4-0.4,2.5C33.5,13.3,33.2,14.7,33.1,15.5z M38.9,19.3v-3.4H45v-1.3h-4.5V6.2h-1.4
		c-0.1,6.1-0.8,10.4-1.9,13c0.8,0.8,1.5,1.5,2.2,2.2l-1,1.3c2.2-1.2,3.8-2.3,4.8-3.4H38.9z M44.2,6.2v1.2h5.5V6.2H44.2z M44.2,11.4
		h5.5v-1.2h-5.5V11.4z"/>
	<path fill="#333333" d="M61.5,0.8L66,1.9c-0.1,0.4-0.4,1.1-0.8,2c-0.2,0.7-0.7,2-1.4,3.9v10c2.6-2.3,4.6-5.1,6.2-8.4h-4.7V5.4h5.9
		V0.9h4.3v4.5h6.9v3.9h-5.7c1.9,3.6,4.2,6.4,6.9,8.5c-0.1,0.4-0.4,1.1-0.8,2c-0.4,1.2-0.8,2.1-1,2.8c-1-1.2-2-2.2-2.8-3.2v3.6h-3.5
		v3.7h-4.3v-3.7h-3.5v-3.1c-0.7,0.9-1.4,1.8-2.3,2.8c-0.1-0.4-0.4-1.1-0.8-1.9c-0.4-0.9-0.7-1.5-0.9-1.9v7.7h-4V15.5
		c-0.3,0.4-0.8,1.1-1.4,2c-0.1,0.4-0.3,0.6-0.4,0.8c-0.4-2.8-0.7-4.7-0.9-5.9C58.8,9.1,60.3,5.3,61.5,0.8z M71.3,14
		c-0.9,2-1.9,3.8-3,5.2h3V14z M78.9,19.3c-1.5-1.8-2.6-3.6-3.4-5.4v5.4H78.9z"/>
</g>
</svg>
