<?xml version="1.0" encoding="utf-8"?>
<!-- Generator: Adobe Illustrator 17.1.0, SVG Export Plug-In . SVG Version: 6.00 Build 0)  -->
<!DOCTYPE svg PUBLIC "-//W3C//DTD SVG 1.1//EN" "http://www.w3.org/Graphics/SVG/1.1/DTD/svg11.dtd">
<svg version="1.1" id="图层_1" xmlns="http://www.w3.org/2000/svg" xmlns:xlink="http://www.w3.org/1999/xlink" x="0px" y="0px"
	 viewBox="0 0 130.6 129" enable-background="new 0 0 130.6 129" xml:space="preserve">
<g id="底圆_2_">
	<g>
		<circle fill-rule="evenodd" clip-rule="evenodd" fill="#ECECEC" cx="65.3" cy="64.4" r="64"/>
	</g>
</g>
<g id="椭圆_49">
	<g>
		<path fill-rule="evenodd" clip-rule="evenodd" fill="#84AABC" d="M47.3,98.4c-5.5,0-10,2.7-10,6c0,3.3,4.5,6,10,6
			c5.5,0,10-2.7,10-6C57.3,101.1,52.8,98.4,47.3,98.4z M83.3,98.4c-5.5,0-10,2.7-10,6c0,3.3,4.5,6,10,6c5.5,0,10-2.7,10-6
			C93.3,101.1,88.8,98.4,83.3,98.4z"/>
	</g>
</g>
<g id="矩形_143">
	<g>
		<path fill-rule="evenodd" clip-rule="evenodd" fill="#84AABC" d="M79.3,104.4h8v-20h-8V104.4z M43.3,104.4h8v-20h-8V104.4z
			 M79.3,24.4v8h8v-8H79.3z M43.3,32.4h8v-8h-8V32.4z"/>
	</g>
</g>
<g id="矩形_142_1_">
	<g>
		<path fill-rule="evenodd" clip-rule="evenodd" fill="#DABAA0" d="M95.3,28.4h-60c-2.2,0-4,1.8-4,4v48c0,2.2,1.8,4,4,4h60
			c2.2,0,4-1.8,4-4v-48C99.3,30.2,97.5,28.4,95.3,28.4z"/>
	</g>
</g>
<g id="矩形_146">
	<g>
		<path fill-rule="evenodd" clip-rule="evenodd" fill="#FFD6B4" d="M91.3,32.4h-52c-2.2,0-4,1.8-4,4v40c0,2.2,1.8,4,4,4h52
			c2.2,0,4-1.8,4-4v-40C95.3,34.2,93.5,32.4,91.3,32.4z"/>
	</g>
</g>
<g id="矩形_144">
	<g>
		<path fill-rule="evenodd" clip-rule="evenodd" fill="#CD7C64" d="M85.8,45.7C83,40.7,76.2,59,73.5,64.8c-2.7,5.9-9-5.7-10.9-8
			c-1.9-2.2-5.7,9.2-8.2,11.1c-2.6,1.9-8.3,5-10.9,0c-2.7-5-4.1-5.6-4.1-5.6v14h52v-14C91.3,62.4,92.4,57.7,85.8,45.7z"/>
	</g>
</g>
<g id="矩形_145">
	<g>
		<path fill-rule="evenodd" clip-rule="evenodd" fill="#4D2D26" d="M39.3,38.4v4h24v-4H39.3z M39.3,50.4h24v-4h-24V50.4z"/>
	</g>
</g>
</svg>
