<?xml version="1.0" encoding="utf-8"?>
<!-- Generator: Adobe Illustrator 17.1.0, SVG Export Plug-In . SVG Version: 6.00 Build 0)  -->
<!DOCTYPE svg PUBLIC "-//W3C//DTD SVG 1.1//EN" "http://www.w3.org/Graphics/SVG/1.1/DTD/svg11.dtd">
<svg version="1.1" id="图层_1" xmlns="http://www.w3.org/2000/svg" xmlns:xlink="http://www.w3.org/1999/xlink" x="0px" y="0px"
	 viewBox="0 0 130.6 129" enable-background="new 0 0 130.6 129" xml:space="preserve">
<g>
	<defs>
		<circle id="SVGID_1_" cx="65.5" cy="64.5" r="64"/>
	</defs>
	<clipPath id="SVGID_2_">
		<use xlink:href="#SVGID_1_"  overflow="visible"/>
	</clipPath>
	<g id="底圆_1_" clip-path="url(#SVGID_2_)">
		<g>
			<circle fill-rule="evenodd" clip-rule="evenodd" fill="#ECECEC" cx="65.5" cy="64.5" r="64"/>
		</g>
	</g>
	<g id="暗面" clip-path="url(#SVGID_2_)">
		<g>
			<path fill-rule="evenodd" clip-rule="evenodd" fill="#F7987D" d="M129.4,65.8c-2.6,3.5-7.7,8.6-16,8.6c-12.7,0-16-24-32-24
				c-16,0-22.9,42-32,42c-10.3,0-15.8-28-26-28c-9.6,0-12.8,17.8-18.9,19.8c8.3,25.7,32.4,44.2,60.9,44.2
				C100.3,128.5,128.7,100.6,129.4,65.8z"/>
		</g>
	</g>
	<g id="线" opacity="0.4" clip-path="url(#SVGID_2_)">
		<g>
			<path fill-rule="evenodd" clip-rule="evenodd" fill="#FFFFFF" d="M79.5,56.5v76h4v-76H79.5z M47.5,138.5h4v-44h-4V138.5z
				 M19.5,114.5h4v-44h-4V114.5z"/>
		</g>
	</g>
	<g id="数据线" clip-path="url(#SVGID_2_)">
	</g>
	<g id="数据点" opacity="0.902" clip-path="url(#SVGID_2_)">
		<g>
			<path fill-rule="evenodd" clip-rule="evenodd" fill="#4D2D26" d="M81.5,48.5c-3.3,0-6,2.7-6,6s2.7,6,6,6c3.3,0,6-2.7,6-6
				S84.8,48.5,81.5,48.5z M49.5,84.5c-2.2,0-4,1.8-4,4c0,2.2,1.8,4,4,4s4-1.8,4-4C53.5,86.3,51.7,84.5,49.5,84.5z M21.5,62.5
				c-2.2,0-4,1.8-4,4c0,2.2,1.8,4,4,4s4-1.8,4-4C25.5,64.3,23.7,62.5,21.5,62.5z"/>
		</g>
	</g>
	<g id="气泡" clip-path="url(#SVGID_2_)">
		<g>
			<path fill-rule="evenodd" clip-rule="evenodd" fill="#698EA0" d="M97.5,28.5c0-8.8-7.2-16-16-16c-8.8,0-16,7.2-16,16
				c0,7,4.5,13,10.9,15.1l5.1,6.9l5.1-6.9C92.9,41.5,97.5,35.5,97.5,28.5z"/>
		</g>
	</g>
	<g clip-path="url(#SVGID_2_)">
		<path fill="#FFFFFF" d="M81.2,38c-1.8-0.1-3-0.5-4-1.2c-0.8-0.5-1.4-1.3-1.8-2.3c-0.1-0.4-0.2-0.7-0.3-1.5l4.1-0.7
			c0.1,0.8,0.2,1.3,0.6,1.7c0.3,0.4,0.7,0.5,1.4,0.6v-3.8c-1.6-0.3-2.5-0.6-3.3-1c-1.6-0.8-2.5-2.3-2.5-4.1c0-2,1.2-3.7,3.1-4.4
			c0.9-0.3,1.7-0.5,2.7-0.5v-1.1h1.4v1.1c1.3,0.1,2.3,0.3,3.2,0.8c1.3,0.7,2.1,1.8,2.5,3.5l-4.1,0.7c-0.1-1.1-0.7-1.6-1.6-1.8v3.3
			c2.3,0.4,3.3,0.8,4.1,1.4c1.3,0.9,2,2.2,2,3.9c0,3.2-2.3,5.3-6.2,5.4v1.5h-1.4V38z M81.2,24.1c-1.1,0.1-1.7,0.6-1.7,1.5
			c0,0.5,0.2,0.9,0.7,1.2c0.2,0.1,0.4,0.2,1,0.4V24.1z M82.5,34.7c1.3-0.1,2-0.7,2-1.8c0-0.6-0.3-1.1-0.8-1.4
			c-0.3-0.2-0.5-0.2-1.2-0.4V34.7z"/>
	</g>
</g>
</svg>
