<?xml version="1.0" encoding="utf-8"?>
<!-- Generator: Adobe Illustrator 17.1.0, SVG Export Plug-In . SVG Version: 6.00 Build 0)  -->
<!DOCTYPE svg PUBLIC "-//W3C//DTD SVG 1.1//EN" "http://www.w3.org/Graphics/SVG/1.1/DTD/svg11.dtd">
<svg version="1.1" id="图层_1" xmlns="http://www.w3.org/2000/svg" xmlns:xlink="http://www.w3.org/1999/xlink" x="0px" y="0px"
	 viewBox="0 0 130.6 129" enable-background="new 0 0 130.6 129" xml:space="preserve">
<g id="底圆_3_">
	<g>
		<circle fill-rule="evenodd" clip-rule="evenodd" fill="#ECECEC" cx="65.8" cy="64.5" r="64"/>
	</g>
</g>
<g id="矩形_111" opacity="0.8">
	<g>
		<path fill-rule="evenodd" clip-rule="evenodd" fill="#84AABC" d="M81.8,93.5h-10v-16h-12v16h-10c-1.1,0-2,0.9-2,2v2
			c0,1.1,0.9,2,2,2h32c1.1,0,2-0.9,2-2v-2C83.8,94.4,83,93.5,81.8,93.5z"/>
	</g>
</g>
<g id="矩形_106">
	<g>
		<path fill-rule="evenodd" clip-rule="evenodd" fill="#84AABC" d="M93.8,33.5h-56c-4.4,0-8,3.6-8,8v36c0,4.4,3.6,8,8,8h56
			c4.4,0,8-3.6,8-8v-36C101.8,37.1,98.3,33.5,93.8,33.5z"/>
	</g>
</g>
<g id="矩形_107_拷贝_2">
	<g>
		<path fill-rule="evenodd" clip-rule="evenodd" fill="#FDBC54" d="M91.8,39.5h-52c-2.2,0-4,1.8-4,4v32c0,2.2,1.8,4,4,4h52
			c2.2,0,4-1.8,4-4v-32C95.8,41.3,94.1,39.5,91.8,39.5z"/>
	</g>
</g>
<g id="椭圆_44">
	<g>
		<path fill-rule="evenodd" clip-rule="evenodd" fill="#4D2D26" d="M69.8,63.3v-1.8c0.5-0.5,0.7-1.3,0.7-2.2c0,0,0-1.4,0-2.9
			c0.1,0.1,0.2,0,0.3-0.3c2.1-7.3-1.4-7.5-1.4-7.5s-0.9-3-4-2.8c-3.9,0.3-4.3,1.8-5.5,3.9c-1.1,2.1,0.3,6.9,0.8,6.9
			c0,1.4,0,2.7,0,2.7c0,1.1,0.1,2,1.1,2.5v1.5c0,0-6,3-6,6.1c0,3.1,7,4.1,7,4.1h6c0,0,7-1.1,7-4.1C75.8,66.3,69.8,63.3,69.8,63.3z"
			/>
	</g>
</g>
</svg>
