<?xml version="1.0" encoding="utf-8"?>
<!-- Generator: Adobe Illustrator 17.1.0, SVG Export Plug-In . SVG Version: 6.00 Build 0)  -->
<!DOCTYPE svg PUBLIC "-//W3C//DTD SVG 1.1//EN" "http://www.w3.org/Graphics/SVG/1.1/DTD/svg11.dtd">
<svg version="1.1" id="图层_1" xmlns="http://www.w3.org/2000/svg" xmlns:xlink="http://www.w3.org/1999/xlink" x="0px" y="0px"
	 viewBox="0 0 130.6 129" enable-background="new 0 0 130.6 129" xml:space="preserve">
<g id="底圆_6_">
	<g>
		<circle fill-rule="evenodd" clip-rule="evenodd" fill="#ECECEC" cx="65.3" cy="64.5" r="64"/>
	</g>
</g>
<g id="椭圆_33">
	<g>
		<path fill-rule="evenodd" clip-rule="evenodd" fill="#FFD6B4" d="M69.6,48.2c-1.5-0.5-2.5,1.5-2.5,1.5L67,50.2c0-3.3,0-6.4,0-7.7
			c-0.1-3-0.7-3.6-4-8.7c-3.3-5-9.3-4.7-9.4-4.7c-0.1,0-6-0.3-9.3,4.7c-3.3,5-3.5,5.7-3.6,8.7c0,1,0,3.4,0,6c-0.4-0.4-1-0.6-1.6-0.4
			c-1.5,0.5-1.7,2.5-1.3,3.7c0.4,1.2,1.3,4.1,2.9,4c0,0,0.1,0,0.1,0c0,2.1,0,3.6,0,3.6c0,3.8,0.4,6.6,5,7.6c3.9,0.8,7.7,1,8.1,1v0
			l0,0l0,0v0c0.4,0,4.2-0.2,8.1-1c4.2-0.9,5-3.7,5-7.6c0,0,0-1.8,0-4.2c0.3,0.3,0.6,0.6,1.1,0.6c1.6,0.1,2.5-2.8,2.9-4
			C71.3,50.6,71,48.7,69.6,48.2z"/>
	</g>
</g>
<g id="形状_649">
	<g>
		<path fill-rule="evenodd" clip-rule="evenodd" fill="#4D2D26" d="M64,30.2c0,0-2.4-8.3-10.7-7.7c-10.4,0.7-11.7,4.8-14.8,10.8
			c-3.1,6,0.9,19.4,2.2,18.9c0.1-7.2,1.2-12,1.2-12s3.6,1.1,7.8,0c4.2-1.1,9.5-3.4,12-2.3c0.4,3.5,2.8,4.4,3.8,6.4
			c0.9,2,0.8,10.1,2.3,6.4C73.3,30.7,64,30.2,64,30.2z"/>
	</g>
</g>
<g id="椭圆_35" opacity="0.8">
	<g>
		<path fill-rule="evenodd" clip-rule="evenodd" fill="#FFD6B4" d="M60.2,62.4v-1.5c0,0-0.5-1.5-2.5-1.9c-2-0.4-3.8-0.5-4-0.5h0
			c-0.2,0-2.1,0.1-4,0.5c-2,0.4-2.5,1.9-2.5,1.9v1.5c0,0,0,7.6,0,8.9c0,1.3,0.2,4.7,1.9,7c1.7,2.3,4.6,2.2,4.7,2.2
			c0,0,3,0.1,4.7-2.2c1.7-2.3,1.9-5.6,1.9-7C60.2,70,60.2,62.4,60.2,62.4z"/>
	</g>
</g>
<g id="形状_647">
	<g>
		<path fill-rule="evenodd" clip-rule="evenodd" fill="#84AABC" d="M65.1,70.5l-10.8,8.4l-10.8-8.4c0,0-16.2,2.7-16.2,11.2
			c0,8.5,18.9,16.8,18.9,16.8h16.2c0,0,18.9-8.5,18.9-16.8C81.3,73.3,65.1,70.5,65.1,70.5z"/>
	</g>
</g>
<g id="椭圆_39">
	<g>
		<polygon fill-rule="evenodd" clip-rule="evenodd" fill="#698EA0" points="64.3,68.8 54.3,76.4 44.3,68.8 39.3,71.3 51.8,83.9 
			56.8,83.9 69.3,71.3 		"/>
	</g>
</g>
<g id="椭圆_35_2_" opacity="0.8">
	<g>
		<path fill-rule="evenodd" clip-rule="evenodd" fill="#FFD6B4" d="M87.1,75.9v-1.5c0,0-0.5-1.5-2.5-1.9c-2-0.4-3.8-0.5-4-0.5h0
			c-0.2,0-2.1,0.1-4,0.5c-2,0.4-2.5,1.9-2.5,1.9v1.5c0,0,0,7.6,0,8.9c0,1.3,0.2,4.7,1.9,7c1.7,2.3,4.6,2.2,4.7,2.2
			c0,0,3,0.1,4.7-2.2c1.7-2.3,1.9-5.6,1.9-7C87.2,83.5,87.1,75.9,87.1,75.9z"/>
	</g>
</g>
<g id="椭圆_33_1_">
	<g>
		<ellipse fill-rule="evenodd" clip-rule="evenodd" fill="#FFD6B4" cx="80.3" cy="65.5" rx="15" ry="15.1"/>
	</g>
</g>
<g id="椭圆_38">
	<g>
		<path fill-rule="evenodd" clip-rule="evenodd" fill="#4D2D26" d="M96.8,58.8c-0.2-0.5-4.4-9.5-4.4-9.5l0,0
			c-1.4-3.9-6.2-6.8-11.8-6.8c-5.7,0-10.5,3-11.9,7l0,0c0,0-3.1,4.9-4.2,9.3c-1.7,7.1-0.7,16.3-0.7,16.3l6.7,9.3l6.7-7
			c0,0-7.3-7.3-6.7-7c0.4,0.2,1.2-6.9,1.8-11.8c2.2,1.5,5.1,2.5,8.3,2.5c3.1,0,6-0.9,8.1-2.3c0.5,4.9,1.3,11.8,1.7,11.7
			c0.6-0.3-6.4,7-6.4,7l6.4,7l6.4-9.3C96.8,75.1,98.7,64.9,96.8,58.8z"/>
	</g>
</g>
<g id="形状_647_1_">
	<g>
		<path fill-rule="evenodd" clip-rule="evenodd" fill="#F7987D" d="M90.3,80.8l-10,7.5l-10-7.5c0,0-15,2.5-15,10.1
			c0,7.6,17.5,15.1,17.5,15.1h15c0,0,17.5-7.7,17.5-15.1C105.3,83.4,90.3,80.8,90.3,80.8z"/>
	</g>
</g>
<g id="形状_647_拷贝">
	<g>
		<polygon fill-rule="evenodd" clip-rule="evenodd" fill="#CD7C64" points="90.3,80.8 80.3,88.4 70.3,80.8 64.2,82.5 77.8,95.9 
			82.8,95.9 96.1,82.4 		"/>
	</g>
</g>
</svg>
