<?xml version="1.0" encoding="utf-8"?>
<!-- Generator: Adobe Illustrator 17.1.0, SVG Export Plug-In . SVG Version: 6.00 Build 0)  -->
<!DOCTYPE svg PUBLIC "-//W3C//DTD SVG 1.1//EN" "http://www.w3.org/Graphics/SVG/1.1/DTD/svg11.dtd">
<svg version="1.1" id="图层_1" xmlns="http://www.w3.org/2000/svg" xmlns:xlink="http://www.w3.org/1999/xlink" x="0px" y="0px"
	 viewBox="0 0 954.5 337.9" style="enable-background:new 0 0 954.5 337.9;" xml:space="preserve">
<path style="opacity:0.5;fill:none;stroke:#CCB2AA;stroke-width:8;stroke-miterlimit:10;stroke-dasharray:12,4;enable-background:new    ;" d="
	M32.1,158.8c0-79.3,107.5-143.5,240.1-143.5s240.1,64.3,240.1,143.5"/>
<path style="opacity:0.5;fill:none;stroke:#72645E;stroke-width:8;stroke-miterlimit:10;enable-background:new    ;" d="M32.1,158.8
	c0-79.3,83.4-143.5,186.2-143.5s186.2,64.3,186.2,143.5"/>
<rect x="916" y="254.3" style="fill:none;" width="18.5" height="66"/>
<g style="enable-background:new    ;">
	<path style="fill:#333333;" d="M916.7,262.9h3.4v-5.7h-2.9v-1.1h2.9v-1.9h1.3v1.9h7.2v-1.9h1.3v1.9h2.9v1.1h-2.9v5.7h3.4v1.1h-5
		c1.1,1,2.8,2,5.2,2.9c-0.4,0.5-0.7,0.9-0.9,1.2c-1.1-0.5-2.1-1.1-3-1.6v0.8h-3.9v1.7h6.7v1.1h-14.6v-1.1h6.7v-1.7h-4v-0.8
		c-0.9,0.7-1.9,1.3-3,1.8c-0.2-0.3-0.5-0.7-0.8-1.1c2.1-1,3.8-2.1,5.1-3.2h-4.9V262.9z M924.4,264.6h1.3v1.6h3.6
		c-0.9-0.6-1.7-1.3-2.5-2.2h-3.6c-0.8,0.8-1.6,1.6-2.5,2.2h3.7V264.6z M921.4,257.2v1.2h7.2v-1.2H921.4z M921.4,259.5v1.2h7.2v-1.2
		H921.4z M921.4,261.7v1.2h7.2v-1.2H921.4z"/>
</g>
<g style="enable-background:new    ;">
	<path style="fill:#333333;" d="M917.7,275.2c1,1.1,1.9,2.2,2.9,3.5l-1.1,0.9c-0.8-1.2-1.7-2.4-2.8-3.7L917.7,275.2z M919.3,282.2
		c0.4,0.2,0.9,0.4,1.3,0.6c-0.8,2-1.6,4.3-2.5,6.9l-1.5-0.7C917.5,287.4,918.3,285.1,919.3,282.2z M920.2,281.2
		c1.6-1.9,2.9-4.2,3.9-6.9l1.3,0.4c-0.3,0.7-0.7,1.5-1.2,2.5h9v1.2H929v2.6h3.7v1.1H929v2.7h3.7v1.1H929v2.6h4.4v1.1h-9.6v1.4h-1.3
		v-10.8c-0.5,0.8-1,1.5-1.4,2.1C920.8,281.8,920.5,281.5,920.2,281.2z M923.8,278.4v2.6h3.9v-2.6H923.8z M923.8,282.1v2.7h3.9v-2.7
		H923.8z M923.8,285.9v2.6h3.9v-2.6H923.8z M927,274.9l1.1-0.7c0.5,0.5,1,1.2,1.6,2.1l-1.1,0.8c-0.1-0.1-0.2-0.4-0.4-0.6
		C927.9,276.1,927.5,275.6,927,274.9z"/>
</g>
<g style="enable-background:new    ;">
	<path style="fill:#333333;" d="M916.5,299.9c2.1-1.6,3.9-3.5,5.3-5.8l1.3,0.4c-0.3,0.5-0.6,1-1,1.4h6.8v1.2l-2,2.2h4.6v5.6h-11.6
		v2.8c0,0.9,0.5,1.3,1.6,1.3h8.3c1.2,0.1,1.8-0.3,1.9-1.2c0.1-0.5,0.2-1.2,0.3-2c0.2,0.1,0.6,0.2,1.1,0.4c0.2,0,0.3,0.1,0.4,0.1
		c-0.1,0.8-0.2,1.5-0.4,2c-0.3,1.4-1.2,2-2.9,2h-9c-1.8,0-2.6-0.7-2.6-2.3v-8.1c-0.4,0.3-0.8,0.6-1.2,1c-0.1-0.1-0.3-0.4-0.5-0.6
		C916.7,300.2,916.5,300,916.5,299.9z M927.2,297.1h-6c-0.6,0.8-1.3,1.5-2.1,2.2h6.2L927.2,297.1z M919.9,300.6v3.2h4.5v-3.2H919.9z
		 M930.1,300.6h-4.4v3.2h4.4V300.6z"/>
</g>
<rect x="846.9" y="254.3" style="fill:none;" width="21.2" height="72"/>
<g style="enable-background:new    ;">
	<path style="fill:#333333;" d="M853.8,254.5c0,0-0.1,0.1-0.1,0.1c0,0.1-0.1,0.2-0.2,0.4c0.1,0.1,0.2,0.3,0.4,0.5
		c1.7,2,2.8,3.4,3.4,4.1l-1.1,1c-1.2-1.6-2.3-3.2-3.4-4.6c-1.2,1.9-2.6,3.6-4.3,5.1c-0.1-0.1-0.2-0.2-0.4-0.4
		c-0.3-0.3-0.5-0.5-0.6-0.6c2.2-1.8,3.8-3.8,4.9-6L853.8,254.5z M849.8,265.5c0.7,0.7,1.5,1.3,2.2,2l2.6-3.6h-6.2v-1.3h7.7v1.4
		l-3.2,4.4c0.2,0.1,0.4,0.4,0.8,0.6c0.4,0.3,0.6,0.6,0.8,0.7l-1.1,1.1c-1.2-1.3-2.8-2.8-4.6-4.5L849.8,265.5z M851.3,259.4l1.1-0.6
		c0.2,0.3,0.5,0.9,1,1.6c0.4,0.6,0.6,1,0.7,1.2l-1.3,0.6C852.3,261.3,851.8,260.3,851.3,259.4z M864.2,265.6c0,2-0.8,3-2.5,3
		c-0.7,0-1.3,0-2,0c0-0.2-0.1-0.5-0.2-1.1c0-0.1-0.1-0.3-0.1-0.4c0.1,0,0.4,0,0.7,0c0.5,0,0.9,0.1,1.3,0.1c1,0.1,1.5-0.4,1.5-1.6
		c0-1.5-0.8-2.9-2.5-4.2c0.6-1.3,1.3-2.9,2-4.9h-3.3V271h-1.3v-15.6h6.1v1.3c-0.3,0.6-0.6,1.5-1.1,2.5c-0.4,0.9-0.7,1.6-0.9,2
		C863.5,262.6,864.2,264,864.2,265.6z"/>
</g>
<g style="enable-background:new    ;">
	<path style="fill:#333333;" d="M854.4,289.1c0.7,0,2,0.1,4.1,0.1c2.6,0,4.6-0.1,5.9-0.1c0,0.1-0.1,0.4-0.2,0.7
		c-0.1,0.3-0.2,0.5-0.2,0.6c-5.2,0-8.4,0-9.8,0c-1.7-0.1-3-0.8-4-1.8c-0.3,0.2-1,0.9-2,2l-0.8-1.5c0.2-0.1,0.5-0.4,1.1-0.8
		c0.5-0.4,0.8-0.7,1.1-0.9v-5.8h-2v-1.2h3.3v7.3C851.7,288.6,852.9,289,854.4,289.1z M849.4,274.5c0.6,0.6,1.5,1.7,2.6,3.2
		c-0.1,0.1-0.3,0.3-0.7,0.6c-0.2,0.1-0.4,0.3-0.5,0.4c-0.3-0.5-0.9-1.2-1.6-2.3c-0.4-0.5-0.6-0.9-0.8-1.1L849.4,274.5z M855.5,277
		v3.2h8.4v1.3h-3.2v7h-1.3v-7h-3.9c0,2.7-0.8,5-2.3,7c-0.5-0.4-0.8-0.7-1.1-0.9c1.5-1.7,2.2-4.2,2.1-7.5v-4.2
		c2.6-0.1,5.5-0.4,8.6-0.9l0.4,1.3C860.8,276.6,858.3,276.9,855.5,277z"/>
</g>
<g style="enable-background:new    ;">
	<path style="fill:#333333;" d="M847.4,299.9c2.1-1.6,3.9-3.5,5.3-5.8l1.3,0.4c-0.3,0.5-0.6,1-1,1.4h6.8v1.2l-2,2.2h4.6v5.6h-11.6
		v2.8c0,0.9,0.5,1.3,1.6,1.3h8.3c1.2,0.1,1.8-0.3,1.9-1.2c0.1-0.5,0.2-1.2,0.3-2c0.2,0.1,0.6,0.2,1.1,0.4c0.2,0,0.3,0.1,0.4,0.1
		c-0.1,0.8-0.2,1.5-0.4,2c-0.3,1.4-1.2,2-2.9,2h-9c-1.8,0-2.6-0.7-2.6-2.3v-8.1c-0.4,0.3-0.8,0.6-1.2,1c-0.1-0.1-0.3-0.4-0.5-0.6
		C847.5,300.2,847.4,300,847.4,299.9z M858.1,297.1h-6c-0.6,0.8-1.3,1.5-2.1,2.2h6.2L858.1,297.1z M850.8,300.6v3.2h4.5v-3.2H850.8z
		 M861,300.6h-4.4v3.2h4.4V300.6z"/>
</g>
<rect x="541.1" y="254.3" style="fill:none;" width="20.5" height="66"/>
<g style="enable-background:new    ;">
	<path style="fill:#333333;" d="M543.3,258.8c0.3,0.4,0.8,1.1,1.5,2.2c0.6,0.9,1.1,1.5,1.3,2c0.7-1.7,1.1-3.5,1.3-5.4h-5.3v-1.3h6.8
		v1.3c-0.5,2.8-1.1,5.1-1.8,6.8c0.7,1,1.6,2.4,2.7,4l-1.3,0.7c-0.2-0.3-0.5-0.7-0.8-1.3c-0.6-0.8-1-1.5-1.3-2
		c-0.9,1.6-2.2,3.2-3.9,4.8c-0.2-0.3-0.5-0.7-1-1.2c1.8-1.5,3.1-3.1,4-4.9c-0.1-0.2-0.4-0.6-0.6-1c-1.2-1.9-2.1-3.2-2.6-3.9
		L543.3,258.8z M549.5,258.1h5.7v-3.7h1.3v3.7h2.1v1.3h-2.1v8.6c0.1,1.7-0.7,2.6-2.5,2.6c-1,0-1.8,0-2.5,0c0-0.5-0.1-1-0.3-1.5
		c0.1,0,0.4,0,0.8,0c0.8,0,1.3,0.1,1.7,0.1c1,0.1,1.5-0.4,1.4-1.4v-8.4h-5.7V258.1z M549.8,261.5l1.1-0.6c0.4,0.6,1.1,1.7,2,3.3
		c0.1,0.2,0.3,0.4,0.4,0.6l-1.3,0.8c-0.1-0.2-0.4-0.7-0.7-1.3C550.7,263,550.2,262.1,549.8,261.5z"/>
</g>
<g style="enable-background:new    ;">
	<path style="fill:#333333;" d="M544.2,274.8v5.1h4.8v1.3h-4.8v7.2c0.5-0.2,1.4-0.6,2.5-1.2c0.9-0.4,1.6-0.7,2.1-0.9
		c0,0.6,0,1.1,0.1,1.5c-1.6,0.7-3,1.2-4.2,1.8c-0.4,0.2-0.8,0.5-1.4,1l-1-1.3c0.3-0.3,0.5-0.7,0.5-1.2v-13.3H544.2z M550.2,274.3
		h1.4v7.2c2.2-1.6,4-3.3,5.4-5l1.2,0.8c-1.8,2.1-4,4-6.6,5.8v4.8c0,0.8,0.4,1.2,1.4,1.1h2.3c0.9,0,1.4-0.3,1.5-1.1
		c0.1-0.7,0.3-1.6,0.4-2.6c0.5,0.1,0.9,0.3,1.4,0.4c-0.1,1.2-0.3,2.1-0.4,2.8c-0.3,1.2-1.1,1.8-2.6,1.8h-2.9c-1.7,0-2.6-0.7-2.5-2.2
		V274.3z"/>
</g>
<g style="enable-background:new    ;">
	<path style="fill:#333333;" d="M541.6,299.9c2.1-1.6,3.9-3.5,5.3-5.8l1.3,0.4c-0.3,0.5-0.6,1-1,1.4h6.8v1.2l-2,2.2h4.6v5.6H545v2.8
		c0,0.9,0.5,1.3,1.6,1.3h8.3c1.2,0.1,1.8-0.3,1.9-1.2c0.1-0.5,0.2-1.2,0.3-2c0.2,0.1,0.6,0.2,1.1,0.4c0.2,0,0.3,0.1,0.4,0.1
		c-0.1,0.8-0.2,1.5-0.4,2c-0.3,1.4-1.2,2-2.9,2h-9c-1.8,0-2.6-0.7-2.6-2.3v-8.1c-0.4,0.3-0.8,0.6-1.2,1c-0.1-0.1-0.3-0.4-0.5-0.6
		C541.7,300.2,541.6,300,541.6,299.9z M552.3,297.1h-6c-0.6,0.8-1.3,1.5-2.1,2.2h6.2L552.3,297.1z M545,300.6v3.2h4.5v-3.2H545z
		 M555.2,300.6h-4.4v3.2h4.4V300.6z"/>
</g>
<rect x="465.9" y="254.3" style="fill:none;" width="29.5" height="66"/>
<g style="enable-background:new    ;">
	<path style="fill:#333333;" d="M468.8,265.6l1.3-8.6h-2.6v-1.2h14.9v1.2h-10.9l-0.4,2.5h9.4l-0.7,9.1h3.3v1.1h-16.2v-1.1h11.5
		l0.2-3H468.8z M479,260.7H471l-0.6,3.8h8.3L479,260.7z"/>
</g>
<g style="enable-background:new    ;">
	<path style="fill:#333333;" d="M467.1,278.9v-1.3h6.3v1.3c-0.8,1.1-1.6,2.1-2.5,3v1.1c0.2,0.1,0.4,0.3,0.6,0.4
		c0.8-0.8,1.5-1.6,2.2-2.5l1.1,0.8c-0.4,0.4-1,1-1.9,1.8c-0.3,0.2-0.5,0.4-0.6,0.5c0.3,0.2,0.8,0.6,1.5,1c0.4,0.2,0.7,0.4,0.8,0.6
		l-0.8,1.1c-0.5-0.4-1.2-1-2.2-1.7c-0.4-0.3-0.7-0.5-0.8-0.6v6.5h-1.4v-7.6c-1,0.9-1.8,1.6-2.5,2.1c0-0.2-0.2-0.6-0.4-1.1
		c0-0.2-0.1-0.3-0.1-0.4c2.4-1.7,4.2-3.4,5.3-5.1H467.1z M469.3,275l1.2-0.6c0,0,0.1,0.2,0.2,0.4c0.7,1.1,1,1.7,1.1,2l-1.2,0.6
		c-0.1-0.2-0.4-0.7-0.7-1.3C469.6,275.6,469.5,275.2,469.3,275z M476.5,274.4h1.4v5.7l0.9-0.6c1.7,1.6,3.3,3.1,4.6,4.5l-1.2,1.1
		c-1-1.1-2.4-2.6-4.4-4.6v10.5h-1.4V274.4z"/>
</g>
<g style="enable-background:new    ;">
	<path style="fill:#333333;" d="M466.4,299.9c2.1-1.6,3.9-3.5,5.3-5.8l1.3,0.4c-0.3,0.5-0.6,1-1,1.4h6.8v1.2l-2,2.2h4.6v5.6h-11.6
		v2.8c0,0.9,0.5,1.3,1.6,1.3h8.3c1.2,0.1,1.8-0.3,1.9-1.2c0.1-0.5,0.2-1.2,0.3-2c0.2,0.1,0.6,0.2,1.1,0.4c0.2,0,0.3,0.1,0.4,0.1
		c-0.1,0.8-0.2,1.5-0.4,2c-0.3,1.4-1.2,2-2.9,2h-9c-1.8,0-2.6-0.7-2.6-2.3v-8.1c-0.4,0.3-0.8,0.6-1.2,1c-0.1-0.1-0.3-0.4-0.5-0.6
		C466.6,300.2,466.5,300,466.4,299.9z M477.1,297.1h-6c-0.6,0.8-1.3,1.5-2.1,2.2h6.2L477.1,297.1z M469.8,300.6v3.2h4.5v-3.2H469.8z
		 M480.1,300.6h-4.4v3.2h4.4V300.6z"/>
</g>
<linearGradient id="SVGID_1_" gradientUnits="userSpaceOnUse" x1="27.299" y1="187.6125" x2="925.552" y2="187.6125" gradientTransform="matrix(1 0 0 -1 0 340)">
	<stop  offset="0" style="stop-color:#F79A69"/>
	<stop  offset="8.000000e-02" style="stop-color:#E56B67"/>
	<stop  offset="0.16" style="stop-color:#DB637C"/>
	<stop  offset="0.25" style="stop-color:#D85CE5"/>
	<stop  offset="0.33" style="stop-color:#965EEB"/>
	<stop  offset="0.41" style="stop-color:#5C6AE5"/>
	<stop  offset="0.5" style="stop-color:#87CBF8"/>
	<stop  offset="0.5934" style="stop-color:#8FD3CC"/>
	<stop  offset="0.6651" style="stop-color:#82F8B1"/>
	<stop  offset="0.75" style="stop-color:#ACE8A6"/>
	<stop  offset="0.83" style="stop-color:#EEDE8A"/>
	<stop  offset="0.91" style="stop-color:#F4EB8E"/>
	<stop  offset="1" style="stop-color:#F79A69"/>
</linearGradient>
<rect x="27.3" y="129.2" style="fill:url(#SVGID_1_);" width="898.3" height="46.3"/>
<rect x="18.8" y="254.3" style="fill:none;" width="21.1" height="72"/>
<g style="enable-background:new    ;">
	<path style="fill:#333333;" d="M19.5,262.9h3.4v-5.7H20v-1.1h2.9v-1.9h1.3v1.9h7.2v-1.9h1.3v1.9h2.9v1.1h-2.9v5.7h3.4v1.1h-5
		c1.1,1,2.8,2,5.2,2.9c-0.4,0.5-0.7,0.9-0.9,1.2c-1.1-0.5-2.1-1.1-3-1.6v0.8h-3.9v1.7h6.7v1.1H20.5v-1.1h6.7v-1.7h-4v-0.8
		c-0.9,0.7-1.9,1.3-3,1.8c-0.2-0.3-0.5-0.7-0.8-1.1c2.1-1,3.8-2.1,5.1-3.2h-4.9V262.9z M27.1,264.6h1.3v1.6H32
		c-0.9-0.6-1.7-1.3-2.5-2.2h-3.6c-0.8,0.8-1.6,1.6-2.5,2.2h3.7V264.6z M24.2,257.2v1.2h7.2v-1.2H24.2z M24.2,259.5v1.2h7.2v-1.2
		H24.2z M24.2,261.7v1.2h7.2v-1.2H24.2z"/>
</g>
<g style="enable-background:new    ;">
	<path style="fill:#333333;" d="M20.5,275.2c1,1.1,1.9,2.2,2.9,3.5l-1.1,0.9c-0.8-1.2-1.7-2.4-2.8-3.7L20.5,275.2z M22.1,282.2
		c0.4,0.2,0.9,0.4,1.3,0.6c-0.8,2-1.6,4.3-2.5,6.9l-1.5-0.7C20.2,287.4,21.1,285.1,22.1,282.2z M22.9,281.2c1.6-1.9,2.9-4.2,3.9-6.9
		l1.3,0.4c-0.3,0.7-0.7,1.5-1.2,2.5h9v1.2h-4.1v2.6h3.7v1.1h-3.7v2.7h3.7v1.1h-3.7v2.6h4.4v1.1h-9.6v1.4h-1.3v-10.8
		c-0.5,0.8-1,1.5-1.4,2.1C23.6,281.8,23.2,281.5,22.9,281.2z M26.6,278.4v2.6h3.9v-2.6H26.6z M26.6,282.1v2.7h3.9v-2.7H26.6z
		 M26.6,285.9v2.6h3.9v-2.6H26.6z M29.7,274.9l1.1-0.7c0.5,0.5,1,1.2,1.6,2.1l-1.1,0.8c-0.1-0.1-0.2-0.4-0.4-0.6
		C30.7,276.1,30.3,275.6,29.7,274.9z"/>
</g>
<g style="enable-background:new    ;">
	<path style="fill:#333333;" d="M19.3,299.9c2.1-1.6,3.9-3.5,5.3-5.8l1.3,0.4c-0.3,0.5-0.6,1-1,1.4h6.8v1.2l-2,2.2h4.6v5.6H22.6v2.8
		c0,0.9,0.5,1.3,1.6,1.3h8.3c1.2,0.1,1.8-0.3,1.9-1.2c0.1-0.5,0.2-1.2,0.3-2c0.2,0.1,0.6,0.2,1.1,0.4c0.2,0,0.3,0.1,0.4,0.1
		c-0.1,0.8-0.2,1.5-0.4,2c-0.3,1.4-1.2,2-2.9,2h-9c-1.8,0-2.6-0.7-2.6-2.3v-8.1c-0.4,0.3-0.8,0.6-1.2,1c-0.1-0.1-0.3-0.4-0.5-0.6
		C19.4,300.2,19.3,300,19.3,299.9z M29.9,297.1h-6c-0.6,0.8-1.3,1.5-2.1,2.2h6.2L29.9,297.1z M22.6,300.6v3.2h4.5v-3.2H22.6z
		 M32.9,300.6h-4.4v3.2h4.4V300.6z"/>
</g>
<rect x="395.1" y="254.3" style="fill:none;" width="21" height="66"/>
<g style="enable-background:new    ;">
	<path style="fill:#333333;" d="M397.3,258.8c0.3,0.4,0.8,1.1,1.5,2.2c0.6,0.9,1.1,1.5,1.3,2c0.7-1.7,1.1-3.5,1.3-5.4h-5.3v-1.3h6.8
		v1.3c-0.5,2.8-1.1,5.1-1.8,6.8c0.7,1,1.6,2.4,2.7,4l-1.3,0.7c-0.2-0.3-0.5-0.7-0.8-1.3c-0.6-0.8-1-1.5-1.3-2
		c-0.9,1.6-2.2,3.2-3.9,4.8c-0.2-0.3-0.5-0.7-1-1.2c1.8-1.5,3.1-3.1,4-4.9c-0.1-0.2-0.4-0.6-0.6-1c-1.2-1.9-2.1-3.2-2.6-3.9
		L397.3,258.8z M403.5,258.1h5.7v-3.7h1.3v3.7h2.1v1.3h-2.1v8.6c0.1,1.7-0.7,2.6-2.5,2.6c-1,0-1.8,0-2.5,0c0-0.5-0.1-1-0.3-1.5
		c0.1,0,0.4,0,0.8,0c0.7,0,1.3,0.1,1.7,0.1c1,0.1,1.5-0.4,1.4-1.4v-8.4h-5.7V258.1z M403.8,261.5l1.1-0.6c0.4,0.6,1.1,1.7,2,3.3
		c0.1,0.2,0.3,0.4,0.4,0.6l-1.3,0.8c-0.1-0.2-0.4-0.7-0.7-1.3C404.7,263,404.2,262.1,403.8,261.5z"/>
</g>
<g style="enable-background:new    ;">
	<path style="fill:#333333;" d="M398.2,274.8v5.1h4.8v1.3h-4.8v7.2c0.5-0.2,1.4-0.6,2.5-1.2c0.9-0.4,1.6-0.7,2.1-0.9
		c0,0.6,0,1.1,0.1,1.5c-1.6,0.7-3,1.2-4.2,1.8c-0.4,0.2-0.8,0.5-1.4,1l-1-1.3c0.3-0.3,0.5-0.7,0.5-1.2v-13.3H398.2z M404.2,274.3
		h1.4v7.2c2.2-1.6,4-3.3,5.4-5l1.2,0.8c-1.8,2.1-4,4-6.6,5.8v4.8c0,0.8,0.4,1.2,1.4,1.1h2.3c0.9,0,1.4-0.3,1.5-1.1
		c0.1-0.7,0.3-1.6,0.4-2.6c0.5,0.1,0.9,0.3,1.4,0.4c-0.1,1.2-0.3,2.1-0.4,2.8c-0.3,1.2-1.1,1.8-2.6,1.8h-2.9c-1.7,0-2.6-0.7-2.5-2.2
		V274.3z"/>
</g>
<g style="enable-background:new    ;">
	<path style="fill:#333333;" d="M395.6,299.9c2.1-1.6,3.9-3.5,5.3-5.8l1.3,0.4c-0.3,0.5-0.6,1-1,1.4h6.8v1.2l-2,2.2h4.6v5.6H399v2.8
		c0,0.9,0.5,1.3,1.6,1.3h8.3c1.2,0.1,1.8-0.3,1.9-1.2c0.1-0.5,0.2-1.2,0.3-2c0.2,0.1,0.6,0.2,1.1,0.4c0.2,0,0.3,0.1,0.4,0.1
		c-0.1,0.8-0.2,1.5-0.4,2c-0.3,1.4-1.2,2-2.9,2h-9c-1.8,0-2.6-0.7-2.6-2.3v-8.1c-0.4,0.3-0.8,0.6-1.2,1c-0.1-0.1-0.3-0.4-0.5-0.6
		C395.7,300.2,395.6,300,395.6,299.9z M406.3,297.1h-6c-0.6,0.8-1.3,1.5-2.1,2.2h6.2L406.3,297.1z M399,300.6v3.2h4.5v-3.2H399z
		 M409.2,300.6h-4.4v3.2h4.4V300.6z"/>
</g>
<rect x="94" y="254.3" style="fill:none;" width="28.6" height="66"/>
<g style="enable-background:new    ;">
	<path style="fill:#333333;" d="M100.8,254.5c0,0-0.1,0.1-0.1,0.1c0,0.1-0.1,0.2-0.2,0.4c0.1,0.1,0.2,0.3,0.4,0.5
		c1.7,2,2.8,3.4,3.4,4.1l-1.1,1c-1.2-1.6-2.3-3.2-3.4-4.6c-1.2,1.9-2.6,3.6-4.3,5.1c-0.1-0.1-0.2-0.2-0.4-0.4
		c-0.3-0.3-0.5-0.5-0.6-0.6c2.2-1.8,3.8-3.8,4.9-6L100.8,254.5z M96.9,265.5c0.7,0.7,1.5,1.3,2.2,2l2.6-3.6h-6.2v-1.3h7.7v1.4
		l-3.2,4.4c0.2,0.1,0.4,0.4,0.8,0.6c0.4,0.3,0.6,0.6,0.8,0.7l-1.1,1.1c-1.2-1.3-2.8-2.8-4.6-4.5L96.9,265.5z M98.3,259.4l1.1-0.6
		c0.2,0.3,0.5,0.9,1,1.6c0.4,0.6,0.6,1,0.7,1.2l-1.3,0.6C99.4,261.3,98.9,260.3,98.3,259.4z M111.2,265.6c0,2-0.8,3-2.5,3
		c-0.7,0-1.3,0-2,0c0-0.2-0.1-0.5-0.2-1.1c0-0.1-0.1-0.3-0.1-0.4c0.1,0,0.4,0,0.7,0c0.5,0,0.9,0.1,1.3,0.1c1,0.1,1.5-0.4,1.5-1.6
		c0-1.5-0.8-2.9-2.5-4.2c0.6-1.3,1.3-2.9,2-4.9h-3.3V271h-1.3v-15.6h6.1v1.3c-0.3,0.6-0.6,1.5-1.1,2.5c-0.4,0.9-0.7,1.6-0.9,2
		C110.5,262.6,111.3,264,111.2,265.6z"/>
</g>
<g style="enable-background:new    ;">
	<path style="fill:#333333;" d="M101.5,289.1c0.7,0,2,0.1,4.1,0.1c2.6,0,4.6-0.1,5.9-0.1c0,0.1-0.1,0.4-0.2,0.7
		c-0.1,0.3-0.2,0.5-0.2,0.6c-5.2,0-8.4,0-9.8,0c-1.7-0.1-3-0.8-4-1.8c-0.3,0.2-1,0.9-2,2l-0.8-1.5c0.2-0.1,0.5-0.4,1.1-0.8
		c0.5-0.4,0.8-0.7,1.1-0.9v-5.8h-2v-1.2H98v7.3C98.8,288.6,100,289,101.5,289.1z M96.5,274.5c0.6,0.6,1.5,1.7,2.6,3.2
		c-0.1,0.1-0.3,0.3-0.7,0.6c-0.2,0.1-0.4,0.3-0.5,0.4c-0.3-0.5-0.9-1.2-1.6-2.3c-0.4-0.5-0.6-0.9-0.8-1.1L96.5,274.5z M102.6,277
		v3.2h8.4v1.3h-3.2v7h-1.3v-7h-3.9c0,2.7-0.8,5-2.3,7c-0.5-0.4-0.8-0.7-1.1-0.9c1.5-1.7,2.2-4.2,2.1-7.5v-4.2
		c2.6-0.1,5.5-0.4,8.6-0.9l0.4,1.3C107.8,276.6,105.3,276.9,102.6,277z"/>
</g>
<g style="enable-background:new    ;">
	<path style="fill:#333333;" d="M94.4,299.9c2.1-1.6,3.9-3.5,5.3-5.8l1.3,0.4c-0.3,0.5-0.6,1-1,1.4h6.8v1.2l-2,2.2h4.6v5.6H97.8v2.8
		c0,0.9,0.5,1.3,1.6,1.3h8.3c1.2,0.1,1.8-0.3,1.9-1.2c0.1-0.5,0.2-1.2,0.3-2c0.2,0.1,0.6,0.2,1.1,0.4c0.2,0,0.3,0.1,0.4,0.1
		c-0.1,0.8-0.2,1.5-0.4,2c-0.3,1.4-1.2,2-2.9,2h-9c-1.8,0-2.6-0.7-2.6-2.3v-8.1c-0.4,0.3-0.8,0.6-1.2,1c-0.1-0.1-0.3-0.4-0.5-0.6
		C94.6,300.2,94.5,300,94.4,299.9z M105.1,297.1h-6c-0.6,0.8-1.3,1.5-2.1,2.2h6.2L105.1,297.1z M97.8,300.6v3.2h4.5v-3.2H97.8z
		 M108.1,300.6h-4.4v3.2h4.4V300.6z"/>
</g>
<rect x="172.3" y="254.3" style="fill:none;" width="19.2" height="66"/>
<g style="enable-background:new    ;">
	<path style="fill:#333333;" d="M189.8,269.7c0,0.1-0.1,0.2-0.2,0.4c-0.2,0.4-0.4,0.7-0.4,0.8c-3.9-0.8-6.5-2.3-7.8-4.5
		c-0.9,2.2-3.5,3.8-7.7,4.6c0-0.1-0.1-0.2-0.2-0.4c-0.2-0.4-0.4-0.6-0.5-0.8c4.1-0.6,6.5-1.9,7.3-3.9h-6.9v-1.2h7.2
		c0.1-0.4,0.1-0.9,0.1-1.3h1.3c0,0.5-0.1,0.9-0.2,1.3h7.4v1.2h-6.9C183.8,267.9,186.2,269.2,189.8,269.7z M173.5,258.5h7.2v-4.2h1.3
		v4.2h7.1v1.1H182v1.1l0.4-0.6c2.1,0.7,4.5,1.6,7.2,2.7l-0.6,1.1c-2.8-1.2-5.1-2.1-7-2.7v1.6h-1.3V260c-1.7,1.7-4,3-6.9,4
		c-0.2-0.4-0.5-0.7-0.8-1.1c2.6-0.7,4.7-1.8,6.5-3.2h-6V258.5z M175.1,255.7l0.8-0.8c1.1,0.7,2.1,1.5,3,2.2L178,258
		c-0.2-0.2-0.6-0.4-1-0.8C176.2,256.5,175.6,256,175.1,255.7z M187.7,255.7c-1,0.8-2.1,1.5-3.2,2.4l-0.8-1c0.7-0.5,1.8-1.3,3.2-2.3
		L187.7,255.7z"/>
</g>
<g style="enable-background:new    ;">
	<path style="fill:#333333;" d="M172.8,282.6c1.5-2.6,2.6-5.4,3.2-8.3l1.3,0.3c-0.2,1.1-0.6,2.3-1,3.6v12.7h-1.3v-9.6
		c-0.5,1-1,1.9-1.5,2.7C173.2,283.6,173,283.1,172.8,282.6z M183.9,283.7c0,0.1,0,0.4,0.1,0.8c0,0.4,0,0.6,0.1,0.8
		c-1.2,0.8-2.6,1.7-4.4,2.9c-0.5,0.4-0.8,0.6-0.8,0.8l-1-1.1c0.4-0.4,0.6-0.9,0.6-1.5v-10.1h1.3v10.3
		C181.6,285.2,183,284.3,183.9,283.7z M181.1,275.1l1.2-0.6c0.1,0.1,0.2,0.4,0.4,0.6c0.9,1.7,1.6,2.9,2,3.7l-1.3,0.6
		C182.3,277.3,181.6,275.8,181.1,275.1z M186.7,274.8h1.3c0,1.7,0,3.1-0.1,4.2c-0.1,3.2-0.5,5.6-1.2,7c0.5,0.6,1.3,1.5,2.3,2.7
		c0.4,0.4,0.6,0.7,0.8,0.9l-1.2,0.9c-0.4-0.6-1-1.4-1.9-2.5c-0.3-0.4-0.5-0.7-0.6-0.8c-0.7,1.2-2,2.4-3.9,3.7c0,0-0.1-0.1-0.3-0.3
		c-0.3-0.4-0.6-0.6-0.8-0.8c3.8-1.9,5.6-5.5,5.5-10.9c0-0.4,0-1,0-1.9C186.7,276.1,186.7,275.3,186.7,274.8z"/>
</g>
<g style="enable-background:new    ;">
	<path style="fill:#333333;" d="M172.8,299.9c2.1-1.6,3.9-3.5,5.3-5.8l1.3,0.4c-0.3,0.5-0.6,1-1,1.4h6.8v1.2l-2,2.2h4.6v5.6h-11.6
		v2.8c0,0.9,0.5,1.3,1.6,1.3h8.3c1.2,0.1,1.8-0.3,1.9-1.2c0.1-0.5,0.2-1.2,0.3-2c0.2,0.1,0.6,0.2,1.1,0.4c0.2,0,0.3,0.1,0.4,0.1
		c-0.1,0.8-0.2,1.5-0.4,2c-0.3,1.4-1.2,2-2.9,2h-9c-1.8,0-2.6-0.7-2.6-2.3v-8.1c-0.4,0.3-0.8,0.6-1.2,1c-0.1-0.1-0.3-0.4-0.5-0.6
		C173,300.2,172.9,300,172.8,299.9z M183.5,297.1h-6c-0.6,0.8-1.3,1.5-2.1,2.2h6.2L183.5,297.1z M176.2,300.6v3.2h4.5v-3.2H176.2z
		 M186.5,300.6H182v3.2h4.4V300.6z"/>
</g>
<rect x="774.9" y="254.3" style="fill:none;" width="19.2" height="66"/>
<g style="enable-background:new    ;">
	<path style="fill:#333333;" d="M792.4,269.7c0,0.1-0.1,0.2-0.2,0.4c-0.2,0.4-0.4,0.7-0.4,0.8c-3.9-0.8-6.5-2.3-7.8-4.5
		c-0.9,2.2-3.5,3.8-7.7,4.6c0-0.1-0.1-0.2-0.2-0.4c-0.2-0.4-0.4-0.6-0.5-0.8c4.1-0.6,6.5-1.9,7.3-3.9h-6.9v-1.2h7.2
		c0.1-0.4,0.1-0.9,0.1-1.3h1.3c0,0.5-0.1,0.9-0.2,1.3h7.4v1.2h-6.9C786.3,267.9,788.8,269.2,792.4,269.7z M776,258.5h7.2v-4.2h1.3
		v4.2h7.1v1.1h-7.1v1.1l0.4-0.6c2.1,0.7,4.5,1.6,7.2,2.7l-0.6,1.1c-2.8-1.2-5.1-2.1-7-2.7v1.6h-1.3V260c-1.7,1.7-4,3-6.9,4
		c-0.2-0.4-0.5-0.7-0.8-1.1c2.6-0.7,4.7-1.8,6.5-3.2h-6V258.5z M777.6,255.7l0.8-0.8c1.1,0.7,2.1,1.5,3,2.2l-0.8,0.9
		c-0.2-0.2-0.6-0.4-1-0.8C778.7,256.5,778.1,256,777.6,255.7z M790.3,255.7c-1,0.8-2.1,1.5-3.2,2.4l-0.8-1c0.7-0.5,1.8-1.3,3.2-2.3
		L790.3,255.7z"/>
</g>
<g style="enable-background:new    ;">
	<path style="fill:#333333;" d="M775.3,282.6c1.5-2.6,2.6-5.4,3.2-8.3l1.3,0.3c-0.2,1.1-0.6,2.3-1,3.6v12.7h-1.3v-9.6
		c-0.5,1-1,1.9-1.5,2.7C775.7,283.6,775.5,283.1,775.3,282.6z M786.5,283.7c0,0.1,0,0.4,0.1,0.8c0,0.4,0,0.6,0.1,0.8
		c-1.2,0.8-2.6,1.7-4.4,2.9c-0.5,0.4-0.8,0.6-0.8,0.8l-1-1.1c0.4-0.4,0.6-0.9,0.6-1.5v-10.1h1.3v10.3
		C784.1,285.2,785.5,284.3,786.5,283.7z M783.6,275.1l1.2-0.6c0.1,0.1,0.2,0.4,0.4,0.6c0.9,1.7,1.6,2.9,2,3.7l-1.3,0.6
		C784.9,277.3,784.1,275.8,783.6,275.1z M789.2,274.8h1.3c0,1.7,0,3.1-0.1,4.2c-0.1,3.2-0.5,5.6-1.2,7c0.5,0.6,1.3,1.5,2.3,2.7
		c0.4,0.4,0.6,0.7,0.8,0.9l-1.2,0.9c-0.4-0.6-1-1.4-1.9-2.5c-0.3-0.4-0.5-0.7-0.6-0.8c-0.7,1.2-2,2.4-3.9,3.7c0,0-0.1-0.1-0.3-0.3
		c-0.3-0.4-0.6-0.6-0.8-0.8c3.8-1.9,5.6-5.5,5.5-10.9c0-0.4,0-1,0-1.9C789.2,276.1,789.2,275.3,789.2,274.8z"/>
</g>
<g style="enable-background:new    ;">
	<path style="fill:#333333;" d="M775.3,299.9c2.1-1.6,3.9-3.5,5.3-5.8l1.3,0.4c-0.3,0.5-0.6,1-1,1.4h6.8v1.2l-2,2.2h4.6v5.6h-11.6
		v2.8c0,0.9,0.5,1.3,1.6,1.3h8.3c1.2,0.1,1.8-0.3,1.9-1.2c0.1-0.5,0.2-1.2,0.3-2c0.2,0.1,0.6,0.2,1.1,0.4c0.2,0,0.3,0.1,0.4,0.1
		c-0.1,0.8-0.2,1.5-0.4,2c-0.3,1.4-1.2,2-2.9,2h-9c-1.8,0-2.6-0.7-2.6-2.3v-8.1c-0.4,0.3-0.8,0.6-1.2,1c-0.1-0.1-0.3-0.4-0.5-0.6
		C775.5,300.2,775.4,300,775.3,299.9z M786,297.1h-6c-0.6,0.8-1.3,1.5-2.1,2.2h6.2L786,297.1z M778.7,300.6v3.2h4.5v-3.2H778.7z
		 M789,300.6h-4.4v3.2h4.4V300.6z"/>
</g>
<rect x="243.3" y="254.3" style="fill:none;" width="23.2" height="66"/>
<g style="enable-background:new    ;">
	<path style="fill:#333333;" d="M245,258h6.6v-3.7h1.4v3.7h6.6v7.7h-1.3v-0.9H253v6.3h-1.4v-6.3h-5.3v0.9H245V258z M246.4,259.2v4.3
		h5.3v-4.3H246.4z M258.3,259.2H253v4.3h5.3V259.2z"/>
</g>
<g style="enable-background:new    ;">
	<path style="fill:#333333;" d="M246.6,289.2h6.3v-2.8h-4.4V286c-1.3,1.4-2.6,2.4-4,3.2c-0.2-0.3-0.5-0.6-0.8-1.1
		c2.2-1.5,4-3,5.2-4.8h-4.7v-1.1h5.4c0.3-0.6,0.6-1.1,0.8-1.7h-5.1v-1.1h5.5c0.2-0.6,0.4-1.1,0.5-1.6H245v-1.2h4.3
		c-0.4-0.6-0.9-1.2-1.5-1.8l1.1-0.8c0.7,0.7,1.3,1.4,1.8,2l-0.8,0.6h5.3l-0.6-0.6c0.7-0.7,1.3-1.3,1.8-1.9l1.1,0.8
		c-0.2,0.3-0.6,0.7-1.1,1.1c-0.3,0.3-0.5,0.5-0.6,0.6h4.4v1.2h-7.3c-0.1,0.5-0.3,1.1-0.5,1.6h7.2v1.1h-7.6c-0.1,0.2-0.2,0.5-0.4,0.8
		c-0.2,0.4-0.3,0.7-0.4,0.8h9.7v1.1h-10.3c-0.5,0.8-0.9,1.4-1.3,1.8h9.7v1.1h-4.6v2.8h6.3v1.2h-13.9V289.2z"/>
</g>
<g style="enable-background:new    ;">
	<path style="fill:#333333;" d="M243.8,299.9c2.1-1.6,3.9-3.5,5.3-5.8l1.3,0.4c-0.3,0.5-0.6,1-1,1.4h6.8v1.2l-2,2.2h4.6v5.6h-11.6
		v2.8c0,0.9,0.5,1.3,1.6,1.3h8.3c1.2,0.1,1.8-0.3,1.9-1.2c0.1-0.5,0.2-1.2,0.3-2c0.2,0.1,0.6,0.2,1.1,0.4c0.2,0,0.3,0.1,0.4,0.1
		c-0.1,0.8-0.2,1.5-0.4,2c-0.3,1.4-1.2,2-2.9,2h-9c-1.8,0-2.6-0.7-2.6-2.3v-8.1c-0.4,0.3-0.8,0.6-1.2,1c-0.1-0.1-0.3-0.4-0.5-0.6
		C244,300.2,243.9,300,243.8,299.9z M254.5,297.1h-6c-0.6,0.8-1.3,1.5-2.1,2.2h6.2L254.5,297.1z M247.2,300.6v3.2h4.5v-3.2H247.2z
		 M257.5,300.6H253v3.2h4.4V300.6z"/>
</g>
<rect x="318.9" y="254.3" style="fill:none;" width="23.2" height="66"/>
<g style="enable-background:new    ;">
	<path style="fill:#333333;" d="M320.6,258h6.6v-3.7h1.4v3.7h6.6v7.7h-1.3v-0.9h-5.3v6.3h-1.4v-6.3h-5.3v0.9h-1.3V258z M321.9,259.2
		v4.3h5.3v-4.3H321.9z M333.8,259.2h-5.3v4.3h5.3V259.2z"/>
</g>
<g style="enable-background:new    ;">
	<path style="fill:#333333;" d="M322.2,289.2h6.3v-2.8h-4.4V286c-1.3,1.4-2.6,2.4-4,3.2c-0.2-0.3-0.5-0.6-0.8-1.1
		c2.2-1.5,4-3,5.2-4.8h-4.7v-1.1h5.4c0.3-0.6,0.6-1.1,0.8-1.7h-5.1v-1.1h5.5c0.2-0.6,0.4-1.1,0.5-1.6h-6.4v-1.2h4.3
		c-0.4-0.6-0.9-1.2-1.5-1.8l1.1-0.8c0.7,0.7,1.3,1.4,1.8,2l-0.8,0.6h5.3L330,276c0.7-0.7,1.3-1.3,1.8-1.9l1.1,0.8
		c-0.2,0.3-0.6,0.7-1.1,1.1c-0.3,0.3-0.5,0.5-0.6,0.6h4.4v1.2h-7.3c-0.1,0.5-0.3,1.1-0.5,1.6h7.2v1.1h-7.6c-0.1,0.2-0.2,0.5-0.4,0.8
		c-0.2,0.4-0.3,0.7-0.4,0.8h9.7v1.1H326c-0.5,0.8-0.9,1.4-1.3,1.8h9.7v1.1h-4.6v2.8h6.3v1.2h-13.9V289.2z"/>
</g>
<g style="enable-background:new    ;">
	<path style="fill:#333333;" d="M319.4,299.9c2.1-1.6,3.9-3.5,5.3-5.8l1.3,0.4c-0.3,0.5-0.6,1-1,1.4h6.8v1.2l-2,2.2h4.6v5.6h-11.6
		v2.8c0,0.9,0.5,1.3,1.6,1.3h8.3c1.2,0.1,1.8-0.3,1.9-1.2c0.1-0.5,0.2-1.2,0.3-2c0.2,0.1,0.6,0.2,1.1,0.4c0.2,0,0.3,0.1,0.4,0.1
		c-0.1,0.8-0.2,1.5-0.4,2c-0.3,1.4-1.2,2-2.9,2h-9c-1.8,0-2.6-0.7-2.6-2.3v-8.1c-0.4,0.3-0.8,0.6-1.2,1c-0.1-0.1-0.3-0.4-0.5-0.6
		C319.5,300.2,319.4,300,319.4,299.9z M330,297.1h-6c-0.6,0.8-1.3,1.5-2.1,2.2h6.2L330,297.1z M322.7,300.6v3.2h4.5v-3.2H322.7z
		 M333,300.6h-4.4v3.2h4.4V300.6z"/>
</g>
<rect x="617.9" y="254.3" style="fill:none;" width="23.2" height="66"/>
<g style="enable-background:new    ;">
	<path style="fill:#333333;" d="M619.6,258h6.6v-3.7h1.4v3.7h6.6v7.7h-1.3v-0.9h-5.3v6.3h-1.4v-6.3h-5.3v0.9h-1.3V258z M620.9,259.2
		v4.3h5.3v-4.3H620.9z M632.9,259.2h-5.3v4.3h5.3V259.2z"/>
</g>
<g style="enable-background:new    ;">
	<path style="fill:#333333;" d="M621.2,289.2h6.3v-2.8h-4.4V286c-1.3,1.4-2.6,2.4-4,3.2c-0.2-0.3-0.5-0.6-0.8-1.1
		c2.2-1.5,4-3,5.2-4.8h-4.7v-1.1h5.4c0.3-0.6,0.6-1.1,0.8-1.7h-5.1v-1.1h5.5c0.2-0.6,0.4-1.1,0.5-1.6h-6.4v-1.2h4.3
		c-0.4-0.6-0.9-1.2-1.5-1.8l1.1-0.8c0.7,0.7,1.3,1.4,1.8,2l-0.8,0.6h5.3L629,276c0.7-0.7,1.3-1.3,1.8-1.9l1.1,0.8
		c-0.2,0.3-0.6,0.7-1.1,1.1c-0.3,0.3-0.5,0.5-0.6,0.6h4.4v1.2h-7.3c-0.1,0.5-0.3,1.1-0.5,1.6h7.2v1.1h-7.6c-0.1,0.2-0.2,0.5-0.4,0.8
		c-0.2,0.4-0.3,0.7-0.4,0.8h9.7v1.1H625c-0.5,0.8-0.9,1.4-1.3,1.8h9.7v1.1h-4.6v2.8h6.3v1.2h-13.9V289.2z"/>
</g>
<g style="enable-background:new    ;">
	<path style="fill:#333333;" d="M618.4,299.9c2.1-1.6,3.9-3.5,5.3-5.8l1.3,0.4c-0.3,0.5-0.6,1-1,1.4h6.8v1.2l-2,2.2h4.6v5.6h-11.6
		v2.8c0,0.9,0.5,1.3,1.6,1.3h8.3c1.2,0.1,1.8-0.3,1.9-1.2c0.1-0.5,0.2-1.2,0.3-2c0.2,0.1,0.6,0.2,1.1,0.4c0.2,0,0.3,0.1,0.4,0.1
		c-0.1,0.8-0.2,1.5-0.4,2c-0.3,1.4-1.2,2-2.9,2h-9c-1.8,0-2.6-0.7-2.6-2.3v-8.1c-0.4,0.3-0.8,0.6-1.2,1c-0.1-0.1-0.3-0.4-0.5-0.6
		C618.6,300.2,618.4,300,618.4,299.9z M629.1,297.1h-6c-0.6,0.8-1.3,1.5-2.1,2.2h6.2L629.1,297.1z M621.8,300.6v3.2h4.5v-3.2H621.8z
		 M632,300.6h-4.4v3.2h4.4V300.6z"/>
</g>
<path style="fill:#F79A69;" d="M36.3,230.2c0,4.4-3.6,7.4-8,7.4s-8-3-8-7.4c0-4.4,8-13.2,8-13.2S36.3,225.7,36.3,230.2z"/>
<path style="fill:#E56B67;" d="M111.6,230.2c0,4.4-3.6,7.4-8,7.4s-8-3-8-7.4c0-4.4,8-13.2,8-13.2S111.6,225.7,111.6,230.2z"/>
<path style="fill:#DB637C;" d="M188.1,230.2c0,4.4-3.6,7.4-8,7.4s-8-3-8-7.4c0-4.4,8-13.2,8-13.2S188.1,225.7,188.1,230.2z"/>
<path style="fill:#D85CE5;" d="M262.1,230.2c0,4.4-3.6,7.4-8,7.4c-4.4,0-8-3-8-7.4c0-4.4,8-13.2,8-13.2S262.1,225.7,262.1,230.2z"/>
<path style="fill:#965EEB;" d="M336.5,230.2c0,4.4-3.6,7.4-8,7.4s-8-3-8-7.4c0-4.4,8-13.2,8-13.2S336.5,225.7,336.5,230.2z"/>
<path style="fill:#5C6AE5;" d="M412.5,230.2c0,4.4-3.6,7.4-8,7.4s-8-3-8-7.4c0-4.4,8-13.2,8-13.2S412.5,225.7,412.5,230.2z"/>
<path style="fill:#87CBF8;" d="M482.5,230.2c0,4.4-3.6,7.4-8,7.4s-8-3-8-7.4c0-4.4,8-13.2,8-13.2S482.5,225.7,482.5,230.2z"/>
<path style="fill:#8FD3CC;" d="M558.5,230.2c0,4.4-3.6,7.4-8,7.4s-8-3-8-7.4c0-4.4,8-13.2,8-13.2S558.5,225.7,558.5,230.2z"/>
<path style="fill:#82F8B1;" d="M634.5,230.2c0,4.4-3.6,7.4-8,7.4s-8-3-8-7.4c0-4.4,8-13.2,8-13.2S634.5,225.7,634.5,230.2z"/>
<path style="fill:#ACE8A6;" d="M716.5,230.2c0,4.4-3.6,7.4-8,7.4s-8-3-8-7.4c0-4.4,8-13.2,8-13.2S716.5,225.7,716.5,230.2z"/>
<path style="fill:#EEDE8A;" d="M792.5,230.2c0,4.4-3.6,7.4-8,7.4s-8-3-8-7.4c0-4.4,8-13.2,8-13.2S792.5,225.7,792.5,230.2z"/>
<path style="fill:#FAD48E;" d="M864.5,230.2c0,4.4-3.6,7.4-8,7.4s-8-3-8-7.4c0-4.4,8-13.2,8-13.2S864.5,225.7,864.5,230.2z"/>
<path style="fill:#F79A69;" d="M934.6,230.2c0,4.4-3.6,7.4-8,7.4s-8-3-8-7.4c0-4.4,8-13.2,8-13.2S934.6,225.7,934.6,230.2z"/>
<rect x="698.9" y="254.3" style="fill:none;" width="23.2" height="66"/>
<g style="enable-background:new    ;">
	<path style="fill:#333333;" d="M700.6,258h6.6v-3.7h1.4v3.7h6.6v7.7h-1.3v-0.9h-5.3v6.3h-1.4v-6.3h-5.3v0.9h-1.3V258z M701.9,259.2
		v4.3h5.3v-4.3H701.9z M713.8,259.2h-5.3v4.3h5.3V259.2z"/>
</g>
<g style="enable-background:new    ;">
	<path style="fill:#333333;" d="M702.2,289.2h6.3v-2.8h-4.4V286c-1.3,1.4-2.6,2.4-4,3.2c-0.2-0.3-0.5-0.6-0.8-1.1
		c2.2-1.5,4-3,5.2-4.8h-4.7v-1.1h5.4c0.3-0.6,0.6-1.1,0.8-1.7h-5.1v-1.1h5.5c0.2-0.6,0.4-1.1,0.5-1.6h-6.4v-1.2h4.3
		c-0.4-0.6-0.9-1.2-1.5-1.8l1.1-0.8c0.7,0.7,1.3,1.4,1.8,2l-0.8,0.6h5.3L710,276c0.7-0.7,1.3-1.3,1.8-1.9l1.1,0.8
		c-0.2,0.3-0.6,0.7-1.1,1.1c-0.3,0.3-0.5,0.5-0.6,0.6h4.4v1.2h-7.3c-0.1,0.5-0.3,1.1-0.5,1.6h7.2v1.1h-7.6c-0.1,0.2-0.2,0.5-0.4,0.8
		c-0.2,0.4-0.3,0.7-0.4,0.8h9.7v1.1H706c-0.5,0.8-0.9,1.4-1.3,1.8h9.7v1.1h-4.6v2.8h6.3v1.2h-13.9V289.2z"/>
</g>
<g style="enable-background:new    ;">
	<path style="fill:#333333;" d="M699.4,299.9c2.1-1.6,3.9-3.5,5.3-5.8l1.3,0.4c-0.3,0.5-0.6,1-1,1.4h6.8v1.2l-2,2.2h4.6v5.6h-11.6
		v2.8c0,0.9,0.5,1.3,1.6,1.3h8.3c1.2,0.1,1.8-0.3,1.9-1.2c0.1-0.5,0.2-1.2,0.3-2c0.2,0.1,0.6,0.2,1.1,0.4c0.2,0,0.3,0.1,0.4,0.1
		c-0.1,0.8-0.2,1.5-0.4,2c-0.3,1.4-1.2,2-2.9,2h-9c-1.8,0-2.6-0.7-2.6-2.3v-8.1c-0.4,0.3-0.8,0.6-1.2,1c-0.1-0.1-0.3-0.4-0.5-0.6
		C699.5,300.2,699.4,300,699.4,299.9z M710,297.1h-6c-0.6,0.8-1.3,1.5-2.1,2.2h6.2L710,297.1z M702.7,300.6v3.2h4.5v-3.2H702.7z
		 M713,300.6h-4.4v3.2h4.4V300.6z"/>
</g>
<g>
	<path style="fill:#72645E;" d="M234.6,86.6l-1.8-1.8L217,100.6l-7.4-7.4l-1.8,1.8l8.9,8.9l0.3,0.2l0.3-0.2L234.6,86.6z"/>
</g>
<g>
	<path style="fill:#72645E;" d="M429.9,87.1l16.3,16.4L445,105l-16.3-16.4L429.9,87.1z M446.3,88.4l-17,17.1l-1.3-1.2l17-17.1
		L446.3,88.4z"/>
</g>
</svg>
