<?xml version="1.0" encoding="utf-8"?>
<!-- Generator: Adobe Illustrator 17.0.0, SVG Export Plug-In . SVG Version: 6.00 Build 0)  -->
<!DOCTYPE svg PUBLIC "-//W3C//DTD SVG 1.1//EN" "http://www.w3.org/Graphics/SVG/1.1/DTD/svg11.dtd">
<svg version="1.1" id="图层_1" xmlns="http://www.w3.org/2000/svg" xmlns:xlink="http://www.w3.org/1999/xlink" x="0px" y="0px"
	 width="954.545px" height="337.879px" viewBox="0 0 954.545 337.879" enable-background="new 0 0 954.545 337.879"
	 xml:space="preserve">
<path opacity="0.5" fill="none" stroke="#CCB2AA" stroke-width="8" stroke-miterlimit="10" stroke-dasharray="12,4" d="
	M32.06,158.843c0-79.266,107.515-143.523,240.141-143.523s240.141,64.258,240.141,143.523"/>
<path opacity="0.5" fill="none" stroke="#72645E" stroke-width="8" stroke-miterlimit="10" d="M32.06,158.843
	c0-79.266,83.35-143.523,186.167-143.523s186.167,64.258,186.167,143.523"/>
<rect x="916.011" y="254.309" fill="none" width="18.54" height="65.997"/>
<text transform="matrix(1 0 0 1 916.0112 269.7773)"><tspan x="0" y="0" fill="#333333" font-family="'FZLTHJW--GB1-0'" font-size="18">基</tspan><tspan x="0" y="20" fill="#333333" font-family="'FZLTHJW--GB1-0'" font-size="18">准</tspan><tspan x="0" y="40" fill="#333333" font-family="'FZLTHJW--GB1-0'" font-size="18">色</tspan></text>
<rect x="846.894" y="254.309" fill="none" width="21.162" height="71.996"/>
<text transform="matrix(1 0 0 1 846.8942 269.7783)"><tspan x="0" y="0" fill="#333333" font-family="'FZLTHJW--GB1-0'" font-size="18">邻</tspan><tspan x="0" y="20" fill="#333333" font-family="'FZLTHJW--GB1-0'" font-size="18">近</tspan><tspan x="0" y="40" fill="#333333" font-family="'FZLTHJW--GB1-0'" font-size="18">色</tspan></text>
<rect x="541.084" y="254.309" fill="none" width="20.486" height="65.997"/>
<text transform="matrix(1 0 0 1 541.0845 269.7783)"><tspan x="0" y="0" fill="#333333" font-family="'FZLTHJW--GB1-0'" font-size="18">对</tspan><tspan x="0" y="20" fill="#333333" font-family="'FZLTHJW--GB1-0'" font-size="18">比</tspan><tspan x="0" y="40" fill="#333333" font-family="'FZLTHJW--GB1-0'" font-size="18">色</tspan></text>
<rect x="465.944" y="254.309" fill="none" width="29.541" height="65.997"/>
<text transform="matrix(1 0 0 1 465.9441 269.7783)"><tspan x="0" y="0" fill="#333333" font-family="'FZLTHJW--GB1-0'" font-size="18">互</tspan><tspan x="0" y="20" fill="#333333" font-family="'FZLTHJW--GB1-0'" font-size="18">补</tspan><tspan x="0" y="40" fill="#333333" font-family="'FZLTHJW--GB1-0'" font-size="18">色</tspan></text>
<linearGradient id="SVGID_1_" gradientUnits="userSpaceOnUse" x1="27.2985" y1="152.3877" x2="925.5521" y2="152.3877">
	<stop  offset="0" style="stop-color:#F79A69"/>
	<stop  offset="0.08" style="stop-color:#E56B67"/>
	<stop  offset="0.16" style="stop-color:#DB637C"/>
	<stop  offset="0.25" style="stop-color:#D85CE5"/>
	<stop  offset="0.33" style="stop-color:#965EEB"/>
	<stop  offset="0.41" style="stop-color:#5C6AE5"/>
	<stop  offset="0.5" style="stop-color:#87CBF8"/>
	<stop  offset="0.5934" style="stop-color:#8FD3CC"/>
	<stop  offset="0.6651" style="stop-color:#82F8B1"/>
	<stop  offset="0.75" style="stop-color:#ACE8A6"/>
	<stop  offset="0.83" style="stop-color:#EEDE8A"/>
	<stop  offset="0.91" style="stop-color:#F4EB8E"/>
	<stop  offset="1" style="stop-color:#F79A69"/>
</linearGradient>
<rect x="27.299" y="129.227" fill="url(#SVGID_1_)" width="898.253" height="46.321"/>
<rect x="18.769" y="254.309" fill="none" width="21.06" height="71.996"/>
<text transform="matrix(1 0 0 1 18.7689 269.7783)"><tspan x="0" y="0" fill="#333333" font-family="'FZLTHJW--GB1-0'" font-size="18">基</tspan><tspan x="0" y="20" fill="#333333" font-family="'FZLTHJW--GB1-0'" font-size="18">准</tspan><tspan x="0" y="40" fill="#333333" font-family="'FZLTHJW--GB1-0'" font-size="18">色</tspan></text>
<rect x="395.084" y="254.309" fill="none" width="20.996" height="65.997"/>
<text transform="matrix(1 0 0 1 395.0845 269.7783)"><tspan x="0" y="0" fill="#333333" font-family="'FZLTHJW--GB1-0'" font-size="18">对</tspan><tspan x="0" y="20" fill="#333333" font-family="'FZLTHJW--GB1-0'" font-size="18">比</tspan><tspan x="0" y="40" fill="#333333" font-family="'FZLTHJW--GB1-0'" font-size="18">色</tspan></text>
<rect x="93.952" y="254.309" fill="none" width="28.582" height="65.997"/>
<text transform="matrix(1 0 0 1 93.9522 269.7783)"><tspan x="0" y="0" fill="#333333" font-family="'FZLTHJW--GB1-0'" font-size="18">邻</tspan><tspan x="0" y="20" fill="#333333" font-family="'FZLTHJW--GB1-0'" font-size="18">近</tspan><tspan x="0" y="40" fill="#333333" font-family="'FZLTHJW--GB1-0'" font-size="18">色</tspan></text>
<rect x="172.341" y="254.309" fill="none" width="19.247" height="65.997"/>
<text transform="matrix(1 0 0 1 172.3412 269.7783)"><tspan x="0" y="0" fill="#333333" font-family="'FZLTHJW--GB1-0'" font-size="18">类</tspan><tspan x="0" y="20" fill="#333333" font-family="'FZLTHJW--GB1-0'" font-size="18">似</tspan><tspan x="0" y="40" fill="#333333" font-family="'FZLTHJW--GB1-0'" font-size="18">色</tspan></text>
<rect x="774.852" y="254.309" fill="none" width="19.247" height="65.997"/>
<text transform="matrix(1 0 0 1 774.8521 269.7783)"><tspan x="0" y="0" fill="#333333" font-family="'FZLTHJW--GB1-0'" font-size="18">类</tspan><tspan x="0" y="20" fill="#333333" font-family="'FZLTHJW--GB1-0'" font-size="18">似</tspan><tspan x="0" y="40" fill="#333333" font-family="'FZLTHJW--GB1-0'" font-size="18">色</tspan></text>
<rect x="243.341" y="254.309" fill="none" width="23.243" height="65.997"/>
<text transform="matrix(1 0 0 1 243.341 269.7783)"><tspan x="0" y="0" fill="#333333" font-family="'FZLTHJW--GB1-0'" font-size="18">中</tspan><tspan x="0" y="20" fill="#333333" font-family="'FZLTHJW--GB1-0'" font-size="18">差</tspan><tspan x="0" y="40" fill="#333333" font-family="'FZLTHJW--GB1-0'" font-size="18">色</tspan></text>
<rect x="318.863" y="254.309" fill="none" width="23.243" height="65.997"/>
<text transform="matrix(1 0 0 1 318.8631 269.7783)"><tspan x="0" y="0" fill="#333333" font-family="'FZLTHJW--GB1-0'" font-size="18">中</tspan><tspan x="0" y="20" fill="#333333" font-family="'FZLTHJW--GB1-0'" font-size="18">差</tspan><tspan x="0" y="40" fill="#333333" font-family="'FZLTHJW--GB1-0'" font-size="18">色</tspan></text>
<rect x="617.907" y="254.309" fill="none" width="23.243" height="65.997"/>
<text transform="matrix(1 0 0 1 617.9065 269.7783)"><tspan x="0" y="0" fill="#333333" font-family="'FZLTHJW--GB1-0'" font-size="18">中</tspan><tspan x="0" y="20" fill="#333333" font-family="'FZLTHJW--GB1-0'" font-size="18">差</tspan><tspan x="0" y="40" fill="#333333" font-family="'FZLTHJW--GB1-0'" font-size="18">色</tspan></text>
<path fill="#F79A69" d="M36.342,230.171c0,4.442-3.601,7.402-8.043,7.402s-8.043-2.96-8.043-7.402
	c0-4.442,8.043-13.173,8.043-13.173S36.342,225.728,36.342,230.171z"/>
<path fill="#E56B67" d="M111.621,230.171c0,4.442-3.601,7.402-8.043,7.402c-4.442,0-8.043-2.96-8.043-7.402
	c0-4.442,8.043-13.173,8.043-13.173S111.621,225.728,111.621,230.171z"/>
<path fill="#DB637C" d="M188.05,230.171c0,4.442-3.601,7.402-8.043,7.402c-4.442,0-8.043-2.96-8.043-7.402
	c0-4.442,8.043-13.173,8.043-13.173S188.05,225.728,188.05,230.171z"/>
<path fill="#D85CE5" d="M262.128,230.171c0,4.442-3.601,7.402-8.043,7.402c-4.442,0-8.043-2.96-8.043-7.402
	c0-4.442,8.043-13.173,8.043-13.173S262.128,225.728,262.128,230.171z"/>
<path fill="#965EEB" d="M336.528,230.171c0,4.442-3.601,7.402-8.043,7.402c-4.442,0-8.043-2.96-8.043-7.402
	c0-4.442,8.043-13.173,8.043-13.173S336.528,225.728,336.528,230.171z"/>
<path fill="#5C6AE5" d="M412.512,230.171c0,4.442-3.601,7.402-8.043,7.402c-4.442,0-8.043-2.96-8.043-7.402
	c0-4.442,8.043-13.173,8.043-13.173S412.512,225.728,412.512,230.171z"/>
<path fill="#87CBF8" d="M482.528,230.171c0,4.442-3.601,7.402-8.043,7.402c-4.442,0-8.043-2.96-8.043-7.402
	c0-4.442,8.043-13.173,8.043-13.173S482.528,225.728,482.528,230.171z"/>
<path fill="#8FD3CC" d="M558.528,230.171c0,4.442-3.601,7.402-8.043,7.402s-8.043-2.96-8.043-7.402
	c0-4.442,8.043-13.173,8.043-13.173S558.528,225.728,558.528,230.171z"/>
<path fill="#82F8B1" d="M634.528,230.171c0,4.442-3.601,7.402-8.043,7.402s-8.043-2.96-8.043-7.402
	c0-4.442,8.043-13.173,8.043-13.173S634.528,225.728,634.528,230.171z"/>
<path fill="#ACE8A6" d="M716.528,230.171c0,4.442-3.601,7.402-8.043,7.402s-8.043-2.96-8.043-7.402
	c0-4.442,8.043-13.173,8.043-13.173S716.528,225.728,716.528,230.171z"/>
<path fill="#EEDE8A" d="M792.519,230.171c0,4.442-3.601,7.402-8.043,7.402c-4.442,0-8.043-2.96-8.043-7.402
	c0-4.442,8.043-13.173,8.043-13.173S792.519,225.728,792.519,230.171z"/>
<path fill="#FAD48E" d="M864.528,230.171c0,4.442-3.601,7.402-8.043,7.402s-8.043-2.96-8.043-7.402
	c0-4.442,8.043-13.173,8.043-13.173S864.528,225.728,864.528,230.171z"/>
<path fill="#F79A69" d="M934.552,230.171c0,4.442-3.601,7.402-8.043,7.402s-8.043-2.96-8.043-7.402
	c0-4.442,8.043-13.173,8.043-13.173S934.552,225.728,934.552,230.171z"/>
<rect x="698.863" y="254.309" fill="none" width="23.243" height="65.997"/>
<text transform="matrix(1 0 0 1 698.863 269.7783)"><tspan x="0" y="0" fill="#333333" font-family="'FZLTHJW--GB1-0'" font-size="18">中</tspan><tspan x="0" y="20" fill="#333333" font-family="'FZLTHJW--GB1-0'" font-size="18">差</tspan><tspan x="0" y="40" fill="#333333" font-family="'FZLTHJW--GB1-0'" font-size="18">色</tspan></text>
<g>
	<path fill="#72645E" d="M234.628,86.561l-1.798-1.798l-15.841,15.841l-7.366-7.366l-1.798,1.798l8.903,8.903l0.252,0.243
		l0.27-0.243L234.628,86.561z M234.628,86.561"/>
</g>
<g>
	<path fill="#72645E" d="M429.878,87.082l16.311,16.404l-1.205,1.533l-16.311-16.404L429.878,87.082z M446.293,88.361
		l-17.022,17.119l-1.27-1.21l17.022-17.119L446.293,88.361z M445.444,87.516"/>
</g>
</svg>
