<?xml version="1.0" encoding="utf-8"?>
<!-- Generator: Adobe Illustrator 17.0.0, SVG Export Plug-In . SVG Version: 6.00 Build 0)  -->
<!DOCTYPE svg PUBLIC "-//W3C//DTD SVG 1.1//EN" "http://www.w3.org/Graphics/SVG/1.1/DTD/svg11.dtd">
<svg version="1.1" id="图层_1" xmlns="http://www.w3.org/2000/svg" xmlns:xlink="http://www.w3.org/1999/xlink" x="0px" y="0px"
	 width="954.412px" height="244.118px" viewBox="0 0 954.412 244.118" enable-background="new 0 0 954.412 244.118"
	 xml:space="preserve">
<path opacity="0.5" fill="none" stroke="#CCB2AA" stroke-width="8" stroke-miterlimit="10" stroke-dasharray="12,4" d="
	M30.222,156.021c0-79.266,107.515-143.523,240.141-143.523s240.141,64.258,240.141,143.523"/>
<path opacity="0.5" fill="none" stroke="#72645E" stroke-width="8" stroke-miterlimit="10" d="M30.222,156.021
	c0-79.266,83.35-143.523,186.167-143.523s186.167,64.258,186.167,143.523"/>
<linearGradient id="SVGID_1_" gradientUnits="userSpaceOnUse" x1="25.4608" y1="149.5659" x2="923.7142" y2="149.5659">
	<stop  offset="0" style="stop-color:#F79A69"/>
	<stop  offset="0.08" style="stop-color:#E56B67"/>
	<stop  offset="0.16" style="stop-color:#DB637C"/>
	<stop  offset="0.25" style="stop-color:#D85CE5"/>
	<stop  offset="0.33" style="stop-color:#965EEB"/>
	<stop  offset="0.41" style="stop-color:#5C6AE5"/>
	<stop  offset="0.5" style="stop-color:#87CBF8"/>
	<stop  offset="0.5934" style="stop-color:#8FD3CC"/>
	<stop  offset="0.6651" style="stop-color:#82F8B1"/>
	<stop  offset="0.75" style="stop-color:#ACE8A6"/>
	<stop  offset="0.83" style="stop-color:#EEDE8A"/>
	<stop  offset="0.91" style="stop-color:#F4EB8E"/>
	<stop  offset="1" style="stop-color:#F79A69"/>
</linearGradient>
<rect x="25.461" y="126.406" fill="url(#SVGID_1_)" width="898.253" height="46.321"/>
<path fill="#F79A69" d="M34.504,227.349c0,4.442-3.601,7.402-8.043,7.402s-8.043-2.96-8.043-7.402
	c0-4.442,8.043-13.173,8.043-13.173S34.504,222.907,34.504,227.349z"/>
<path fill="#E56B67" d="M109.783,227.349c0,4.442-3.601,7.402-8.043,7.402c-4.442,0-8.043-2.96-8.043-7.402
	c0-4.442,8.043-13.173,8.043-13.173S109.783,222.907,109.783,227.349z"/>
<path fill="#DB637C" d="M186.212,227.349c0,4.442-3.601,7.402-8.043,7.402c-4.442,0-8.043-2.96-8.043-7.402
	c0-4.442,8.043-13.173,8.043-13.173S186.212,222.907,186.212,227.349z"/>
<path fill="#D85CE5" d="M260.29,227.349c0,4.442-3.601,7.402-8.043,7.402c-4.442,0-8.043-2.96-8.043-7.402
	c0-4.442,8.043-13.173,8.043-13.173S260.29,222.907,260.29,227.349z"/>
<path fill="#965EEB" d="M334.69,227.349c0,4.442-3.601,7.402-8.043,7.402s-8.043-2.96-8.043-7.402
	c0-4.442,8.043-13.173,8.043-13.173S334.69,222.907,334.69,227.349z"/>
<path fill="#5C6AE5" d="M410.674,227.349c0,4.442-3.601,7.402-8.043,7.402s-8.043-2.96-8.043-7.402
	c0-4.442,8.043-13.173,8.043-13.173S410.674,222.907,410.674,227.349z"/>
<path fill="#87CBF8" d="M480.69,227.349c0,4.442-3.601,7.402-8.043,7.402s-8.043-2.96-8.043-7.402
	c0-4.442,8.043-13.173,8.043-13.173S480.69,222.907,480.69,227.349z"/>
<path fill="#8FD3CC" d="M556.69,227.349c0,4.442-3.601,7.402-8.043,7.402c-4.442,0-8.043-2.96-8.043-7.402
	c0-4.442,8.043-13.173,8.043-13.173S556.69,222.907,556.69,227.349z"/>
<path fill="#82F8B1" d="M632.69,227.349c0,4.442-3.601,7.402-8.043,7.402c-4.442,0-8.043-2.96-8.043-7.402
	c0-4.442,8.043-13.173,8.043-13.173S632.69,222.907,632.69,227.349z"/>
<path fill="#ACE8A6" d="M714.69,227.349c0,4.442-3.601,7.402-8.043,7.402c-4.442,0-8.043-2.96-8.043-7.402
	c0-4.442,8.043-13.173,8.043-13.173S714.69,222.907,714.69,227.349z"/>
<path fill="#EEDE8A" d="M790.681,227.349c0,4.442-3.601,7.402-8.043,7.402s-8.043-2.96-8.043-7.402
	c0-4.442,8.043-13.173,8.043-13.173S790.681,222.907,790.681,227.349z"/>
<path fill="#FAD48E" d="M862.69,227.349c0,4.442-3.601,7.402-8.043,7.402c-4.442,0-8.043-2.96-8.043-7.402
	c0-4.442,8.043-13.173,8.043-13.173S862.69,222.907,862.69,227.349z"/>
<path fill="#F79A69" d="M932.714,227.349c0,4.442-3.601,7.402-8.043,7.402c-4.442,0-8.043-2.96-8.043-7.402
	c0-4.442,8.043-13.173,8.043-13.173S932.714,222.907,932.714,227.349z"/>
<g>
	<path fill="#72645E" d="M232.79,83.74l-1.798-1.798l-15.841,15.841l-7.366-7.366l-1.798,1.798l8.903,8.903l0.252,0.243l0.27-0.243
		L232.79,83.74z M232.79,83.74"/>
</g>
<g>
	<path fill="#72645E" d="M428.04,84.26l16.311,16.404l-1.205,1.533l-16.311-16.404L428.04,84.26z M444.455,85.539l-17.022,17.119
		l-1.27-1.21l17.022-17.119L444.455,85.539z M443.606,84.694"/>
</g>
</svg>
