<?xml version="1.0" encoding="utf-8"?>
<!-- Generator: Adobe Illustrator 17.1.0, SVG Export Plug-In . SVG Version: 6.00 Build 0)  -->
<!DOCTYPE svg PUBLIC "-//W3C//DTD SVG 1.1//EN" "http://www.w3.org/Graphics/SVG/1.1/DTD/svg11.dtd">
<svg version="1.1" id="图层_1" xmlns="http://www.w3.org/2000/svg" xmlns:xlink="http://www.w3.org/1999/xlink" x="0px" y="0px"
	 viewBox="0 0 130.3 130.2" enable-background="new 0 0 130.3 130.2" xml:space="preserve">
<g id="_x31_6方格_6_">
	<g>
		<path fill-rule="evenodd" clip-rule="evenodd" fill="#EBEBEB" d="M128.7,18.2v-1h-16v-16h-1v16h-15v-16h-1v16h-15v-16h-1v16h-30
			v-16h-1v16h-16v-16h-1v16h-15v-16h-1v16h-15v1h15v15h-15v1h15v15h-15v1h15v31h-15v1h15v15h-15v1h15v15h-15v1h15v15h1v-15h15v15h1
			v-15h16v15h1v-15h30v15h1v-15h15v15h1v-15h15v15h1v-15h16v-1h-16v-15h16v-1h-16v-15h16v-1h-16v-31h16v-1h-16v-15h16v-1h-16v-15
			H128.7z M95.7,18.2v15h-15v-15H95.7z M49.7,49.2v-15h30v15H49.7z M79.7,50.2v31h-30v-31H79.7z M48.7,49.2h-16v-15h16V49.2z
			 M48.7,50.2v31h-16v-31H48.7z M48.7,82.2v15h-16v-15H48.7z M49.7,82.2h30v15h-30V82.2z M80.7,82.2h15v15h-15V82.2z M80.7,81.2v-31
			h15v31H80.7z M80.7,49.2v-15h15v15H80.7z M79.7,18.2v15h-30v-15H79.7z M48.7,18.2v15h-16v-15H48.7z M16.7,18.2h15v15h-15V18.2z
			 M16.7,34.2h15v15h-15V34.2z M16.7,50.2h15v31h-15V50.2z M16.7,82.2h15v15h-15V82.2z M16.7,113.2v-15h15v15H16.7z M32.7,113.2v-15
			h16v15H32.7z M49.7,113.2v-15h30v15H49.7z M80.7,113.2v-15h15v15H80.7z M111.7,113.2h-15v-15h15V113.2z M111.7,97.2h-15v-15h15
			V97.2z M111.7,81.2h-15v-31h15V81.2z M111.7,49.2h-15v-15h15V49.2z M111.7,33.2h-15v-15h15V33.2z"/>
	</g>
</g>
<g id="米格_8_">
	<g>
		<path fill-rule="evenodd" clip-rule="evenodd" fill="#D9D9D9" d="M0.7,1.2v128h128V1.2H0.7z M127,2.2L64.7,64.5V2.2H127z
			 M63.7,2.2v62.3l-62-62V2.2H63.7z M1.7,3.9L63,65.2H1.7V3.9z M63,66.2L1.7,127.5V66.2H63z M2.4,128.2l61.3-61.3v61.3H2.4z
			 M64.7,128.2V66.9l61.3,61.3H64.7z M127.7,128.2h-0.3l-62-62h62.3V128.2z M65.4,65.2l62.3-62.3v62.3H65.4z M127.7,2.2L127.7,2.2
			L127.7,2.2L127.7,2.2z"/>
	</g>
</g>
<g>
	<g>
		<path fill-rule="evenodd" clip-rule="evenodd" fill="#D9D9D9" d="M29.7,68.2c1.7,0,3-1.3,3-3v-11c0-1.7-1.3-3-3-3
			c-1.7,0-3,1.3-3,3v11C26.7,66.8,28.1,68.2,29.7,68.2z M73.7,79.2h22c1.7,0,3-1.3,3-3v-22c0-1.7-1.3-3-3-3h-22c-1.7,0-3,1.3-3,3v22
			C70.7,77.8,72.1,79.2,73.7,79.2z M78.7,60.2c0-0.6,0.4-1,1-1h10c0.6,0,1,0.4,1,1v10c0,0.6-0.4,1-1,1h-10c-0.6,0-1-0.4-1-1V60.2z
			 M108.7,13.2h-88c-4.4,0-8,3.6-8,8v88c0,4.4,3.6,8,8,8h88c4.4,0,8-3.6,8-8v-88C116.7,16.7,113.1,13.2,108.7,13.2z M108.7,105.2
			c0,2.2-1.8,4-4,4h-80c-2.2,0-4-1.8-4-4v-6h88V105.2z M108.7,91.2h-88v-52h88V91.2z M108.7,31.2h-88v-6c0-2.2,1.8-4,4-4h80
			c2.2,0,4,1.8,4,4V31.2z M29.7,79.2c1.7,0,3-1.3,3-3v-2c0-1.7-1.3-3-3-3c-1.7,0-3,1.3-3,3v2C26.7,77.8,28.1,79.2,29.7,79.2z"/>
	</g>
	<g>
		<path fill="none" stroke="#CCCCCC" stroke-miterlimit="10" d="M29.7,68.2c1.7,0,3-1.3,3-3v-11c0-1.7-1.3-3-3-3c-1.7,0-3,1.3-3,3
			v11C26.7,66.8,28.1,68.2,29.7,68.2z M73.7,79.2h22c1.7,0,3-1.3,3-3v-22c0-1.7-1.3-3-3-3h-22c-1.7,0-3,1.3-3,3v22
			C70.7,77.8,72.1,79.2,73.7,79.2z M78.7,60.2c0-0.6,0.4-1,1-1h10c0.6,0,1,0.4,1,1v10c0,0.6-0.4,1-1,1h-10c-0.6,0-1-0.4-1-1V60.2z
			 M108.7,13.2h-88c-4.4,0-8,3.6-8,8v88c0,4.4,3.6,8,8,8h88c4.4,0,8-3.6,8-8v-88C116.7,16.7,113.1,13.2,108.7,13.2z M108.7,105.2
			c0,2.2-1.8,4-4,4h-80c-2.2,0-4-1.8-4-4v-6h88V105.2z M108.7,91.2h-88v-52h88V91.2z M108.7,31.2h-88v-6c0-2.2,1.8-4,4-4h80
			c2.2,0,4,1.8,4,4V31.2z M29.7,79.2c1.7,0,3-1.3,3-3v-2c0-1.7-1.3-3-3-3c-1.7,0-3,1.3-3,3v2C26.7,77.8,28.1,79.2,29.7,79.2z"/>
	</g>
</g>
<path fill="none" stroke="#999999" stroke-miterlimit="10" d="M116.7,109.2c0,4.4-3.6,8-8,8h-88c-4.4,0-8-3.6-8-8v-88
	c0-4.4,3.6-8,8-8h88c4.4,0,8,3.6,8,8V109.2z"/>
<circle fill="none" stroke="#999999" stroke-miterlimit="10" cx="20.7" cy="21.2" r="8"/>
<circle fill="none" stroke="#999999" stroke-miterlimit="10" cx="108.7" cy="21.2" r="8"/>
<circle fill="none" stroke="#999999" stroke-miterlimit="10" cx="20.7" cy="109.2" r="8"/>
<circle fill="none" stroke="#999999" stroke-miterlimit="10" cx="108.7" cy="109.2" r="8"/>
</svg>
