<?xml version="1.0" encoding="utf-8"?>
<!-- Generator: Adobe Illustrator 17.1.0, SVG Export Plug-In . SVG Version: 6.00 Build 0)  -->
<!DOCTYPE svg PUBLIC "-//W3C//DTD SVG 1.1//EN" "http://www.w3.org/Graphics/SVG/1.1/DTD/svg11.dtd">
<svg version="1.1" id="图层_1" xmlns="http://www.w3.org/2000/svg" xmlns:xlink="http://www.w3.org/1999/xlink" x="0px" y="0px"
	 viewBox="0 0 130.6 129" enable-background="new 0 0 130.6 129" xml:space="preserve">
<g id="底圆_7_">
	<g>
		<circle fill-rule="evenodd" clip-rule="evenodd" fill="#ECECEC" cx="65.3" cy="64.5" r="64"/>
	</g>
</g>
<g id="矩形_103_拷贝_4">
	<g>
		<path fill-rule="evenodd" clip-rule="evenodd" fill="#F7987D" d="M112.2,65.8l-4.9-12.1c-1-2.4-3.2-4-5.8-4.2l-12.9-1
			c-2.3-0.2-4.5,0.8-5.9,2.7l-21.5,30c-1,1.5-1.5,3.2-1.2,5c0.3,1.8,1.3,3.3,2.7,4.4l17.8,13.1c1.5,1.1,3.2,1.5,5,1.2
			c1.8-0.3,3.3-1.2,4.3-2.7l21.5-30C112.8,70.4,113.1,67.9,112.2,65.8z M99.7,63.1c-0.6,0.8-1.6,1.4-2.6,1.5c-1.1,0.2-2.1-0.1-3-0.7
			c-0.9-0.6-1.4-1.5-1.6-2.5c-0.2-1,0.1-2,0.7-2.8c1.3-1.7,3.8-2.1,5.6-0.9c0.9,0.6,1.4,1.5,1.6,2.5
			C100.6,61.3,100.4,62.3,99.7,63.1z"/>
	</g>
</g>
<g id="矩形_103_拷贝_5">
	<g>
		<path fill-rule="evenodd" clip-rule="evenodd" fill="#4D2D26" d="M74,82.7L60.6,46.1c-0.8-2.3-2.8-4-5.2-4.5l-13.3-2.8
			c-2.6-0.5-5.4,0.5-7,2.6l-8.3,10.8c-1.5,1.9-1.9,4.5-1,6.8l13.4,36.6c0.6,1.8,1.9,3.2,3.7,4c1.7,0.8,3.6,0.9,5.4,0.2l21.7-8
			c1.8-0.7,3.2-2,4-3.7C74.6,86.4,74.7,84.4,74,82.7z M45.4,52.1c-0.4,0.9-1.2,1.7-2.1,2c-0.9,0.4-1.9,0.3-2.8-0.1
			c-0.9-0.4-1.6-1.2-1.9-2.2c-0.7-2,0.3-4.2,2.2-5c0.9-0.4,1.9-0.3,2.8,0.1c0.9,0.4,1.6,1.2,1.9,2.2C45.9,50.1,45.8,51.2,45.4,52.1z
			"/>
	</g>
</g>
<g id="矩形_103_拷贝">
	<g>
		<path fill-rule="evenodd" clip-rule="evenodd" fill="#698EA0" d="M89.9,45.3L77.7,34.5c-2.4-2.1-5.8-2.7-8.8-1.5L54,39.1
			c-2.7,1.1-4.6,3.5-5,6.3l-7.5,45.5c-0.4,2.2,0.2,4.4,1.5,6.2c1.3,1.8,3.2,3,5.5,3.4l27.1,4.6c2.2,0.4,4.4-0.1,6.3-1.4
			c1.8-1.3,3-3.2,3.4-5.4l7.5-45.5C93.1,50.1,92,47.2,89.9,45.3z M76.8,53.7c-0.3,1.8-1.2,3.3-2.7,4.3c-1.4,1-3.2,1.4-5,1.1
			c-1.8-0.3-3.3-1.3-4.3-2.7c-1-1.4-1.5-3.2-1.2-5c0.6-3.6,4-6,7.7-5.4c1.8,0.3,3.3,1.3,4.3,2.7C76.7,50.2,77.1,51.9,76.8,53.7z"/>
	</g>
</g>
<g>
	<path fill="#FFFFFF" d="M55.8,77.8c-0.8-1.1-1.1-2.7-0.8-4.5c0.3-1.8,1.1-3.2,2.2-4.1c1.1-0.8,2.5-1,4.1-0.8c1.6,0.3,2.8,1,3.6,2
		c0.8,1.1,1.1,2.7,0.8,4.5c-0.3,1.9-1.1,3.3-2.2,4.1c-1.1,0.8-2.5,1-4,0.8C57.9,79.6,56.6,78.9,55.8,77.8z M74.9,70.4l1.2,1.2
		L56.5,89.6l-1.1-1.2L74.9,70.4z M58.5,73.8c-0.3,2,0.1,3.2,1.4,3.4c1.2,0.2,2.1-0.8,2.4-2.8c0.3-2-0.1-3.2-1.4-3.4
		C59.7,70.9,58.8,71.8,58.5,73.8z M66.4,89.5c-0.8-1.1-1.1-2.7-0.8-4.6c0.3-1.8,1.1-3.2,2.2-4.1c1.1-0.8,2.5-1,4.1-0.8
		c3.4,0.5,5,3,4.4,6.6c-0.3,1.9-1.1,3.3-2.2,4.1c-1.1,0.8-2.5,1-4.1,0.8C68.5,91.3,67.3,90.6,66.4,89.5z M69.1,85.5
		c-0.3,2.1,0.1,3.3,1.4,3.5c1.3,0.2,2.1-0.7,2.4-2.9c0.3-2-0.1-3.1-1.4-3.3C70.3,82.6,69.5,83.5,69.1,85.5z"/>
</g>
</svg>
