<?xml version="1.0" encoding="utf-8"?>
<!-- Generator: Adobe Illustrator 17.1.0, SVG Export Plug-In . SVG Version: 6.00 Build 0)  -->
<!DOCTYPE svg PUBLIC "-//W3C//DTD SVG 1.1//EN" "http://www.w3.org/Graphics/SVG/1.1/DTD/svg11.dtd">
<svg version="1.1" id="图层_1" xmlns="http://www.w3.org/2000/svg" xmlns:xlink="http://www.w3.org/1999/xlink" x="0px" y="0px"
	 viewBox="0 0 130.6 129" enable-background="new 0 0 130.6 129" xml:space="preserve">
<g id="底圆_5_">
	<g>
		<circle fill-rule="evenodd" clip-rule="evenodd" fill="#ECECEC" cx="65.2" cy="64.3" r="64"/>
	</g>
</g>
<g id="矩形_106_1_">
	<g>
		<path fill-rule="evenodd" clip-rule="evenodd" fill="#FFD6B4" d="M83.2,28.3h-40c-4.4,0-8,3.6-8,8v52c0,4.4,3.6,8,8,8h40
			c4.4,0,8-3.6,8-8v-52C91.2,31.9,87.6,28.3,83.2,28.3z"/>
	</g>
</g>
<g id="矩形_119">
	<g>
		<path fill-rule="evenodd" clip-rule="evenodd" fill="#C2ACA7" d="M82.2,66.3h-38c-0.6,0-1,0.4-1,1v2c0,0.6,0.4,1,1,1h38
			c0.6,0,1-0.4,1-1v-2C83.2,66.7,82.7,66.3,82.2,66.3z M82.2,74.3h-38c-0.6,0-1,0.4-1,1v2c0,0.6,0.4,1,1,1h38c0.6,0,1-0.4,1-1v-2
			C83.2,74.7,82.7,74.3,82.2,74.3z M82.2,82.3h-38c-0.6,0-1,0.4-1,1v2c0,0.6,0.4,1,1,1h38c0.6,0,1-0.4,1-1v-2
			C83.2,82.7,82.7,82.3,82.2,82.3z M75.2,38.3h-4v4h4V38.3z M75.2,46.3h-4v4h4V46.3z M75.2,54.3h-4v4h4V54.3z M79.2,38.3v4h4v-4
			H79.2z M79.2,50.3h4v-4h-4V50.3z M79.2,58.3h4v-4h-4V58.3z"/>
	</g>
</g>
<g id="椭圆_21">
	<g>
		<path fill-rule="evenodd" clip-rule="evenodd" fill="#4D2D26" d="M55.2,48.3l-5.4-10.7c-3.9,2-6.6,6-6.6,10.7c0,6.6,5.4,12,12,12
			c5.3,0,9.8-3.4,11.4-8.2L55.2,48.3z"/>
	</g>
</g>
<g id="椭圆_21_拷贝">
	<g>
		<path fill-rule="evenodd" clip-rule="evenodd" fill="#F7987D" d="M55.2,36.3c-1.9,0-3.7,0.5-5.4,1.3l5.4,10.7l11.4,3.8
			c0.4-1.2,0.6-2.5,0.6-3.8C67.2,41.7,61.8,36.3,55.2,36.3z"/>
	</g>
</g>
<g id="矩形_120">
	<g>
		<path fill-rule="evenodd" clip-rule="evenodd" fill="#84AABC" d="M99.4,80.3c-2.5-4.8-7.5-8-13.3-8c-7.3,0-13.4,5.2-14.7,12.2
			c-4.7,0.8-8.3,4.9-8.3,9.8c0,5.5,4.5,10,10,10h24c0.2,0,0.5,0,0.7-0.1c0.4,0,0.9,0.1,1.3,0.1c6.6,0,12-5.4,12-12
			C111.2,85.7,105.9,80.4,99.4,80.3z"/>
	</g>
</g>
<g id="椭圆_22">
	<g>
		<polygon fill-rule="evenodd" clip-rule="evenodd" fill="#FFFFFF" points="95.2,90.3 87.2,80.3 79.2,90.3 83.2,90.3 85.2,87.3 
			85.2,98.3 89.2,98.3 89.2,87.3 91.2,90.3 		"/>
	</g>
</g>
<g id="矩形_121">
	<g>
		<polygon fill-rule="evenodd" clip-rule="evenodd" fill="#FFFFFF" points="87.2,80.3 79.2,90.3 83.2,90.3 87.2,84.3 91.2,90.3 
			95.2,90.3 		"/>
	</g>
</g>
</svg>
