<?xml version="1.0" encoding="utf-8"?>
<!-- Generator: Adobe Illustrator 17.1.0, SVG Export Plug-In . SVG Version: 6.00 Build 0)  -->
<!DOCTYPE svg PUBLIC "-//W3C//DTD SVG 1.1//EN" "http://www.w3.org/Graphics/SVG/1.1/DTD/svg11.dtd">
<svg version="1.1" id="图层_1" xmlns="http://www.w3.org/2000/svg" xmlns:xlink="http://www.w3.org/1999/xlink" x="0px" y="0px"
	 viewBox="0 0 130.6 129" enable-background="new 0 0 130.6 129" xml:space="preserve">
<g id="底圆">
	<g>
		<circle fill-rule="evenodd" clip-rule="evenodd" fill="#ECECEC" cx="64.6" cy="64.5" r="64"/>
	</g>
</g>
<g id="矩形_142">
	<g>
		<path fill-rule="evenodd" clip-rule="evenodd" fill="#84AABC" d="M64.6,20.5l-34,16.8l0.2,42.6l0,0.4c0.1,0.3,1.4,6.7,7.9,12.9
			c5,4.8,17.4,11,22.6,13.7c0.8,0.4,1.4,0.7,1.8,0.9l1.2,0.7l1.5-0.8c3.1-1.5,18.7-9,24.5-14.5c6.5-6.2,7.9-12.7,7.9-12.9l0.2-43
			L64.6,20.5z"/>
	</g>
</g>
<g id="形状_566">
	<g>
		<path fill-rule="evenodd" clip-rule="evenodd" fill="#F7987D" d="M64.6,26.5L34.6,41l0.2,36.8l0,0.4c0.1,0.2,1.2,5.8,7,11.2
			c4.4,4.1,15.3,9.5,20,11.8c0.7,0.4,1.3,0.6,1.6,0.8l1.1,0.6l1.4-0.6c2.7-1.3,16.5-7.8,21.7-12.5c5.8-5.4,6.9-10.9,7-11.2L94.6,41
			L64.6,26.5z"/>
	</g>
</g>
<g id="椭圆_21_拷贝_3">
	<g>
		<path fill-rule="evenodd" clip-rule="evenodd" fill="#715B54" d="M64.6,64.8l-7.1-14c-5.2,2.6-8.9,7.9-8.9,14
			c0,8.7,7.2,15.7,16,15.7c7.1,0,13.1-4.5,15.2-10.7L64.6,64.8z"/>
	</g>
</g>
<g id="椭圆_21_拷贝_2">
	<g>
		<path fill-rule="evenodd" clip-rule="evenodd" fill="#FFD6B4" d="M64.6,49.1c-2.6,0-5,0.6-7.1,1.7l7.1,14l15.2,5
			c0.5-1.6,0.8-3.2,0.8-5C80.6,56.1,73.4,49.1,64.6,49.1z"/>
	</g>
</g>
</svg>
