<?xml version="1.0" encoding="utf-8"?>
<!-- Generator: Adobe Illustrator 17.1.0, SVG Export Plug-In . SVG Version: 6.00 Build 0)  -->
<!DOCTYPE svg PUBLIC "-//W3C//DTD SVG 1.1//EN" "http://www.w3.org/Graphics/SVG/1.1/DTD/svg11.dtd">
<svg version="1.1" id="图层_1" xmlns="http://www.w3.org/2000/svg" xmlns:xlink="http://www.w3.org/1999/xlink" x="0px" y="0px"
	 viewBox="0 0 1009 151" style="enable-background:new 0 0 1009 151;" xml:space="preserve">
<g>
	<g>
		<path style="fill-rule:evenodd;clip-rule:evenodd;fill:#FFEFEF;" d="M3.5,110.1c18.7,0,37.3,0,56,0c0-19.3,0-38.7,0-58
			c-18.7,0-37.3,0-56,0C3.5,71.4,3.5,90.7,3.5,110.1z M89.5,110.1c18.7,0,37.3,0,56,0c0-19.3,0-38.7,0-58c-18.7,0-37.3,0-56,0
			C89.5,71.4,89.5,90.7,89.5,110.1z M175.5,110.1c18.7,0,37.3,0,56,0c0-19.3,0-38.7,0-58c-18.7,0-37.3,0-56,0
			C175.5,71.4,175.5,90.7,175.5,110.1z M261.5,110.1c18.7,0,37.3,0,56,0c0-19.3,0-38.7,0-58c-18.7,0-37.3,0-56,0
			C261.5,71.4,261.5,90.7,261.5,110.1z M347.5,110.1c18.7,0,37.3,0,56,0c0-19.3,0-38.7,0-58c-18.7,0-37.3,0-56,0
			C347.5,71.4,347.5,90.7,347.5,110.1z M433.5,110.1c18.7,0,37.3,0,56,0c0-19.3,0-38.7,0-58c-18.7,0-37.3,0-56,0
			C433.5,71.4,433.5,90.7,433.5,110.1z M519.5,110.1c18.7,0,37.3,0,56,0c0-19.3,0-38.7,0-58c-18.7,0-37.3,0-56,0
			C519.5,71.4,519.5,90.7,519.5,110.1z M605.5,110.1c18.7,0,37.3,0,56,0c0-19.3,0-38.7,0-58c-18.7,0-37.3,0-56,0
			C605.5,71.4,605.5,90.7,605.5,110.1z M691.5,110.1c18.7,0,37.3,0,56,0c0-19.3,0-38.7,0-58c-18.7,0-37.3,0-56,0
			C691.5,71.4,691.5,90.7,691.5,110.1z M777.5,110.1c18.7,0,37.3,0,56,0c0-19.3,0-38.7,0-58c-18.7,0-37.3,0-56,0
			C777.5,71.4,777.5,90.7,777.5,110.1z M863.5,110.1c18.7,0,37.3,0,56,0c0-19.3,0-38.7,0-58c-18.7,0-37.3,0-56,0
			C863.5,71.4,863.5,90.7,863.5,110.1z M949.5,52.1c0,19.3,0,38.7,0,58c18.7,0,37.3,0,56,0c0-19.3,0-38.7,0-58
			C986.8,52.1,968.2,52.1,949.5,52.1z"/>
	</g>
	<g>
		<path style="fill:none;stroke:#FFEAEA;stroke-miterlimit:10;" d="M3.5,110.1c18.7,0,37.3,0,56,0c0-19.3,0-38.7,0-58
			c-18.7,0-37.3,0-56,0C3.5,71.4,3.5,90.7,3.5,110.1z M89.5,110.1c18.7,0,37.3,0,56,0c0-19.3,0-38.7,0-58c-18.7,0-37.3,0-56,0
			C89.5,71.4,89.5,90.7,89.5,110.1z M175.5,110.1c18.7,0,37.3,0,56,0c0-19.3,0-38.7,0-58c-18.7,0-37.3,0-56,0
			C175.5,71.4,175.5,90.7,175.5,110.1z M261.5,110.1c18.7,0,37.3,0,56,0c0-19.3,0-38.7,0-58c-18.7,0-37.3,0-56,0
			C261.5,71.4,261.5,90.7,261.5,110.1z M347.5,110.1c18.7,0,37.3,0,56,0c0-19.3,0-38.7,0-58c-18.7,0-37.3,0-56,0
			C347.5,71.4,347.5,90.7,347.5,110.1z M433.5,110.1c18.7,0,37.3,0,56,0c0-19.3,0-38.7,0-58c-18.7,0-37.3,0-56,0
			C433.5,71.4,433.5,90.7,433.5,110.1z M519.5,110.1c18.7,0,37.3,0,56,0c0-19.3,0-38.7,0-58c-18.7,0-37.3,0-56,0
			C519.5,71.4,519.5,90.7,519.5,110.1z M605.5,110.1c18.7,0,37.3,0,56,0c0-19.3,0-38.7,0-58c-18.7,0-37.3,0-56,0
			C605.5,71.4,605.5,90.7,605.5,110.1z M691.5,110.1c18.7,0,37.3,0,56,0c0-19.3,0-38.7,0-58c-18.7,0-37.3,0-56,0
			C691.5,71.4,691.5,90.7,691.5,110.1z M777.5,110.1c18.7,0,37.3,0,56,0c0-19.3,0-38.7,0-58c-18.7,0-37.3,0-56,0
			C777.5,71.4,777.5,90.7,777.5,110.1z M863.5,110.1c18.7,0,37.3,0,56,0c0-19.3,0-38.7,0-58c-18.7,0-37.3,0-56,0
			C863.5,71.4,863.5,90.7,863.5,110.1z M949.5,52.1c0,19.3,0,38.7,0,58c18.7,0,37.3,0,56,0c0-19.3,0-38.7,0-58
			C986.8,52.1,968.2,52.1,949.5,52.1z"/>
	</g>
</g>
<g>
	<path d="M338.1,60.8l-0.5,2.9l0,0c0.2-0.2,0.5-0.4,0.8-0.5c0.3-0.1,0.7-0.2,1-0.2c0.4,0,0.9,0.1,1.2,0.2c0.4,0.1,0.7,0.4,1,0.6
		c0.3,0.3,0.5,0.6,0.7,1.1s0.3,0.9,0.3,1.5c0,0.4-0.1,0.8-0.2,1.2c-0.1,0.4-0.4,0.7-0.7,1.1s-0.7,0.6-1.1,0.7
		c-0.4,0.2-0.9,0.3-1.5,0.3c-0.4,0-0.8-0.1-1.2-0.2s-0.7-0.3-1-0.5c-0.3-0.2-0.5-0.5-0.7-0.9c-0.2-0.4-0.3-0.8-0.3-1.2h1.2
		c0,0.3,0.1,0.5,0.2,0.7s0.3,0.4,0.4,0.6c0.2,0.2,0.4,0.3,0.6,0.4c0.2,0.1,0.5,0.1,0.8,0.1c0.3,0,0.5,0,0.8-0.1
		c0.3-0.1,0.5-0.2,0.7-0.4c0.2-0.2,0.3-0.4,0.5-0.7c0.1-0.3,0.2-0.6,0.2-1c0-0.3-0.1-0.6-0.2-0.9c-0.1-0.3-0.3-0.5-0.5-0.7
		s-0.4-0.4-0.7-0.5c-0.3-0.1-0.6-0.2-0.9-0.2c-0.4,0-0.7,0.1-1,0.3c-0.3,0.2-0.6,0.4-0.8,0.7l-1-0.1l0.9-5.2h4.9v1H338.1z"/>
	<path d="M346,67.9v1.6h-1.6v-1.6H346z"/>
	<path d="M349.8,60.8l-0.5,2.9l0,0c0.2-0.2,0.5-0.4,0.8-0.5c0.3-0.1,0.7-0.2,1-0.2c0.4,0,0.9,0.1,1.2,0.2c0.4,0.1,0.7,0.4,1,0.6
		c0.3,0.3,0.5,0.6,0.7,1.1s0.3,0.9,0.3,1.5c0,0.4-0.1,0.8-0.2,1.2c-0.1,0.4-0.4,0.7-0.7,1.1s-0.7,0.6-1.1,0.7
		c-0.4,0.2-0.9,0.3-1.5,0.3c-0.4,0-0.8-0.1-1.2-0.2s-0.7-0.3-1-0.5c-0.3-0.2-0.5-0.5-0.7-0.9c-0.2-0.4-0.3-0.8-0.3-1.2h1.2
		c0,0.3,0.1,0.5,0.2,0.7s0.3,0.4,0.4,0.6c0.2,0.2,0.4,0.3,0.6,0.4c0.2,0.1,0.5,0.1,0.8,0.1c0.3,0,0.5,0,0.8-0.1
		c0.3-0.1,0.5-0.2,0.7-0.4c0.2-0.2,0.3-0.4,0.5-0.7c0.1-0.3,0.2-0.6,0.2-1c0-0.3-0.1-0.6-0.2-0.9c-0.1-0.3-0.3-0.5-0.5-0.7
		s-0.4-0.4-0.7-0.5c-0.3-0.1-0.6-0.2-0.9-0.2c-0.4,0-0.7,0.1-1,0.3c-0.3,0.2-0.6,0.4-0.8,0.7l-1-0.1l0.9-5.2h4.9v1H349.8z"/>
	<path d="M356.1,61c0.2-0.3,0.4-0.6,0.6-0.8c0.3-0.2,0.6-0.4,0.9-0.5c0.4-0.1,0.7-0.2,1.1-0.2c0.5,0,1,0.1,1.4,0.2
		c0.4,0.1,0.7,0.3,0.9,0.6c0.2,0.2,0.4,0.5,0.5,0.8c0.1,0.3,0.2,0.6,0.2,0.9c0,0.4-0.1,0.9-0.4,1.2s-0.6,0.6-1,0.8
		c0.6,0.2,1,0.5,1.3,0.9s0.4,0.9,0.4,1.6c0,0.5-0.1,0.9-0.3,1.3c-0.2,0.4-0.4,0.7-0.7,0.9c-0.3,0.3-0.6,0.5-1,0.6
		c-0.4,0.1-0.8,0.2-1.3,0.2c-0.5,0-0.9-0.1-1.3-0.2c-0.4-0.1-0.8-0.3-1.1-0.6c-0.3-0.3-0.5-0.6-0.7-0.9c-0.2-0.4-0.3-0.8-0.3-1.3
		c0-0.6,0.1-1.1,0.4-1.5s0.7-0.7,1.3-0.9c-0.4-0.2-0.8-0.4-1-0.8s-0.4-0.8-0.4-1.2C355.9,61.7,356,61.3,356.1,61z M357.4,68.1
		c0.4,0.3,0.9,0.5,1.5,0.5c0.3,0,0.6,0,0.8-0.1c0.2-0.1,0.5-0.2,0.6-0.4c0.2-0.2,0.3-0.4,0.4-0.6c0.1-0.2,0.1-0.5,0.1-0.8
		c0-0.3-0.1-0.5-0.2-0.7c-0.1-0.2-0.3-0.4-0.4-0.6c-0.2-0.2-0.4-0.3-0.7-0.4c-0.2-0.1-0.5-0.1-0.8-0.1c-0.3,0-0.6,0-0.8,0.1
		c-0.3,0.1-0.5,0.2-0.7,0.4s-0.3,0.4-0.4,0.6c-0.1,0.2-0.2,0.5-0.2,0.8C356.8,67.3,357,67.7,357.4,68.1z M357.3,62.8
		c0.1,0.2,0.2,0.4,0.4,0.5c0.2,0.1,0.3,0.2,0.6,0.3c0.2,0.1,0.4,0.1,0.7,0.1c0.5,0,0.9-0.1,1.2-0.4c0.3-0.3,0.5-0.7,0.5-1.2
		s-0.2-0.9-0.5-1.1c-0.3-0.3-0.7-0.4-1.2-0.4c-0.2,0-0.5,0-0.7,0.1c-0.2,0.1-0.4,0.2-0.6,0.3c-0.2,0.1-0.3,0.3-0.4,0.5
		c-0.1,0.2-0.1,0.4-0.1,0.7C357.2,62.4,357.2,62.6,357.3,62.8z"/>
	<path d="M363.9,61c0.2-0.3,0.4-0.6,0.6-0.8c0.3-0.2,0.6-0.4,0.9-0.5c0.4-0.1,0.7-0.2,1.1-0.2c0.5,0,1,0.1,1.4,0.2
		c0.4,0.1,0.7,0.3,0.9,0.6c0.2,0.2,0.4,0.5,0.5,0.8c0.1,0.3,0.2,0.6,0.2,0.9c0,0.4-0.1,0.9-0.4,1.2s-0.6,0.6-1,0.8
		c0.6,0.2,1,0.5,1.3,0.9s0.4,0.9,0.4,1.6c0,0.5-0.1,0.9-0.3,1.3c-0.2,0.4-0.4,0.7-0.7,0.9c-0.3,0.3-0.6,0.5-1,0.6
		c-0.4,0.1-0.8,0.2-1.3,0.2c-0.5,0-0.9-0.1-1.3-0.2c-0.4-0.1-0.8-0.3-1.1-0.6c-0.3-0.3-0.5-0.6-0.7-0.9c-0.2-0.4-0.3-0.8-0.3-1.3
		c0-0.6,0.1-1.1,0.4-1.5s0.7-0.7,1.3-0.9c-0.4-0.2-0.8-0.4-1-0.8s-0.4-0.8-0.4-1.2C363.7,61.7,363.8,61.3,363.9,61z M365.2,68.1
		c0.4,0.3,0.9,0.5,1.5,0.5c0.3,0,0.6,0,0.8-0.1c0.2-0.1,0.5-0.2,0.6-0.4c0.2-0.2,0.3-0.4,0.4-0.6c0.1-0.2,0.1-0.5,0.1-0.8
		c0-0.3-0.1-0.5-0.2-0.7c-0.1-0.2-0.3-0.4-0.4-0.6c-0.2-0.2-0.4-0.3-0.7-0.4c-0.2-0.1-0.5-0.1-0.8-0.1c-0.3,0-0.6,0-0.8,0.1
		c-0.3,0.1-0.5,0.2-0.7,0.4s-0.3,0.4-0.4,0.6c-0.1,0.2-0.2,0.5-0.2,0.8C364.6,67.3,364.8,67.7,365.2,68.1z M365.1,62.8
		c0.1,0.2,0.2,0.4,0.4,0.5c0.2,0.1,0.3,0.2,0.6,0.3c0.2,0.1,0.4,0.1,0.7,0.1c0.5,0,0.9-0.1,1.2-0.4c0.3-0.3,0.5-0.7,0.5-1.2
		s-0.2-0.9-0.5-1.1c-0.3-0.3-0.7-0.4-1.2-0.4c-0.2,0-0.5,0-0.7,0.1c-0.2,0.1-0.4,0.2-0.6,0.3c-0.2,0.1-0.3,0.3-0.4,0.5
		c-0.1,0.2-0.1,0.4-0.1,0.7C364.9,62.4,365,62.6,365.1,62.8z"/>
	<path d="M371.7,61c0.2-0.3,0.4-0.6,0.6-0.8c0.3-0.2,0.6-0.4,0.9-0.5c0.4-0.1,0.7-0.2,1.1-0.2c0.5,0,1,0.1,1.4,0.2
		c0.4,0.1,0.7,0.3,0.9,0.6c0.2,0.2,0.4,0.5,0.5,0.8c0.1,0.3,0.2,0.6,0.2,0.9c0,0.4-0.1,0.9-0.4,1.2s-0.6,0.6-1,0.8
		c0.6,0.2,1,0.5,1.3,0.9s0.4,0.9,0.4,1.6c0,0.5-0.1,0.9-0.3,1.3c-0.2,0.4-0.4,0.7-0.7,0.9c-0.3,0.3-0.6,0.5-1,0.6
		c-0.4,0.1-0.8,0.2-1.3,0.2c-0.5,0-0.9-0.1-1.3-0.2c-0.4-0.1-0.8-0.3-1.1-0.6c-0.3-0.3-0.5-0.6-0.7-0.9c-0.2-0.4-0.3-0.8-0.3-1.3
		c0-0.6,0.1-1.1,0.4-1.5s0.7-0.7,1.3-0.9c-0.4-0.2-0.8-0.4-1-0.8s-0.4-0.8-0.4-1.2C371.5,61.7,371.5,61.3,371.7,61z M373,68.1
		c0.4,0.3,0.9,0.5,1.5,0.5c0.3,0,0.6,0,0.8-0.1c0.2-0.1,0.5-0.2,0.6-0.4c0.2-0.2,0.3-0.4,0.4-0.6c0.1-0.2,0.1-0.5,0.1-0.8
		c0-0.3-0.1-0.5-0.2-0.7c-0.1-0.2-0.3-0.4-0.4-0.6c-0.2-0.2-0.4-0.3-0.7-0.4c-0.2-0.1-0.5-0.1-0.8-0.1c-0.3,0-0.6,0-0.8,0.1
		c-0.3,0.1-0.5,0.2-0.7,0.4s-0.3,0.4-0.4,0.6c-0.1,0.2-0.2,0.5-0.2,0.8C372.4,67.3,372.6,67.7,373,68.1z M372.9,62.8
		c0.1,0.2,0.2,0.4,0.4,0.5c0.2,0.1,0.3,0.2,0.6,0.3c0.2,0.1,0.4,0.1,0.7,0.1c0.5,0,0.9-0.1,1.2-0.4c0.3-0.3,0.5-0.7,0.5-1.2
		s-0.2-0.9-0.5-1.1c-0.3-0.3-0.7-0.4-1.2-0.4c-0.2,0-0.5,0-0.7,0.1c-0.2,0.1-0.4,0.2-0.6,0.3c-0.2,0.1-0.3,0.3-0.4,0.5
		c-0.1,0.2-0.1,0.4-0.1,0.7C372.7,62.4,372.8,62.6,372.9,62.8z"/>
	<path d="M379.1,61.7c0.1-0.4,0.3-0.8,0.6-1.1c0.3-0.3,0.6-0.6,1-0.7c0.4-0.2,0.9-0.3,1.4-0.3c0.4,0,0.8,0.1,1.2,0.2
		c0.4,0.1,0.7,0.3,1,0.5c0.3,0.2,0.5,0.5,0.7,0.9c0.2,0.4,0.2,0.8,0.2,1.2c0,0.4-0.1,0.8-0.2,1.2c-0.1,0.3-0.3,0.6-0.5,0.9
		c-0.2,0.3-0.5,0.5-0.8,0.7c-0.3,0.2-0.6,0.4-0.9,0.6c-0.3,0.2-0.6,0.4-0.9,0.6c-0.3,0.2-0.6,0.4-0.8,0.6c-0.3,0.2-0.5,0.4-0.7,0.7
		c-0.2,0.2-0.3,0.5-0.4,0.8h5.1v1h-6.5c0-0.6,0.2-1.1,0.3-1.5c0.2-0.4,0.4-0.8,0.6-1.1c0.3-0.3,0.5-0.6,0.9-0.8s0.6-0.5,1-0.7
		c0.4-0.3,0.8-0.5,1.1-0.7s0.6-0.4,0.8-0.7c0.2-0.2,0.4-0.5,0.5-0.7s0.2-0.6,0.2-0.9c0-0.3-0.1-0.5-0.2-0.7s-0.2-0.4-0.4-0.6
		c-0.2-0.2-0.4-0.3-0.6-0.4c-0.2-0.1-0.5-0.1-0.7-0.1c-0.3,0-0.6,0.1-0.9,0.2c-0.2,0.1-0.5,0.3-0.6,0.6c-0.2,0.2-0.3,0.5-0.3,0.8
		c-0.1,0.3-0.1,0.6-0.1,0.9H379C378.9,62.6,379,62.1,379.1,61.7z"/>
	<path d="M386.9,61.7c0.1-0.4,0.3-0.8,0.6-1.1c0.3-0.3,0.6-0.6,1-0.7c0.4-0.2,0.9-0.3,1.4-0.3c0.4,0,0.8,0.1,1.2,0.2
		c0.4,0.1,0.7,0.3,1,0.5c0.3,0.2,0.5,0.5,0.7,0.9c0.2,0.4,0.2,0.8,0.2,1.2c0,0.4-0.1,0.8-0.2,1.2c-0.1,0.3-0.3,0.6-0.5,0.9
		c-0.2,0.3-0.5,0.5-0.8,0.7c-0.3,0.2-0.6,0.4-0.9,0.6c-0.3,0.2-0.6,0.4-0.9,0.6c-0.3,0.2-0.6,0.4-0.8,0.6c-0.3,0.2-0.5,0.4-0.7,0.7
		c-0.2,0.2-0.3,0.5-0.4,0.8h5.1v1h-6.5c0-0.6,0.2-1.1,0.3-1.5c0.2-0.4,0.4-0.8,0.6-1.1c0.3-0.3,0.5-0.6,0.9-0.8s0.6-0.5,1-0.7
		c0.4-0.3,0.8-0.5,1.1-0.7s0.6-0.4,0.8-0.7c0.2-0.2,0.4-0.5,0.5-0.7s0.2-0.6,0.2-0.9c0-0.3-0.1-0.5-0.2-0.7s-0.2-0.4-0.4-0.6
		c-0.2-0.2-0.4-0.3-0.6-0.4c-0.2-0.1-0.5-0.1-0.7-0.1c-0.3,0-0.6,0.1-0.9,0.2c-0.2,0.1-0.5,0.3-0.6,0.6c-0.2,0.2-0.3,0.5-0.3,0.8
		c-0.1,0.3-0.1,0.6-0.1,0.9h-1.2C386.7,62.6,386.8,62.1,386.9,61.7z"/>
	<path d="M397.1,63.8c0,0,0.1,0,0.1,0h0.3c0.3,0,0.5,0,0.7-0.1c0.2-0.1,0.4-0.2,0.6-0.3s0.3-0.3,0.4-0.5c0.1-0.2,0.2-0.4,0.2-0.7
		c0-0.5-0.2-0.9-0.5-1.2s-0.8-0.4-1.3-0.4c-0.3,0-0.6,0.1-0.8,0.2c-0.2,0.1-0.4,0.3-0.6,0.5c-0.2,0.2-0.3,0.4-0.3,0.7
		c-0.1,0.3-0.1,0.5-0.1,0.8h-1.2c0-0.5,0.1-0.9,0.2-1.3c0.1-0.4,0.3-0.7,0.6-1c0.3-0.3,0.6-0.5,0.9-0.7s0.8-0.2,1.3-0.2
		c0.4,0,0.8,0.1,1.2,0.2c0.4,0.1,0.7,0.3,1,0.5c0.3,0.2,0.5,0.5,0.6,0.8c0.2,0.3,0.2,0.7,0.2,1.2c0,0.4-0.1,0.8-0.4,1.2
		c-0.3,0.3-0.6,0.6-1,0.8v0c0.6,0.1,1.1,0.4,1.4,0.9c0.3,0.4,0.4,1,0.4,1.6c0,0.5-0.1,0.9-0.3,1.3c-0.2,0.4-0.4,0.7-0.7,0.9
		c-0.3,0.3-0.7,0.4-1.1,0.6s-0.9,0.2-1.3,0.2c-0.5,0-1-0.1-1.4-0.2c-0.4-0.1-0.8-0.3-1-0.6c-0.3-0.3-0.5-0.6-0.7-1
		c-0.2-0.4-0.2-0.9-0.2-1.4h1.2c0,0.6,0.2,1.2,0.6,1.6c0.4,0.4,0.9,0.6,1.6,0.6c0.3,0,0.6,0,0.8-0.1c0.3-0.1,0.5-0.2,0.7-0.4
		c0.2-0.2,0.4-0.4,0.5-0.6c0.1-0.2,0.2-0.5,0.2-0.8c0-0.3-0.1-0.6-0.2-0.8c-0.1-0.2-0.3-0.4-0.4-0.6c-0.2-0.2-0.4-0.3-0.7-0.4
		c-0.3-0.1-0.5-0.1-0.8-0.1c-0.3,0-0.5,0-0.7,0v-1C397,63.8,397,63.8,397.1,63.8z"/>
	<path d="M407,61c-0.3-0.3-0.7-0.4-1.1-0.4c-0.5,0-0.9,0.1-1.2,0.4c-0.3,0.2-0.5,0.6-0.7,0.9c-0.2,0.4-0.3,0.8-0.4,1.2
		c-0.1,0.4-0.1,0.8-0.1,1.2l0,0c0.3-0.5,0.6-0.8,1-1c0.4-0.2,0.9-0.3,1.4-0.3c0.5,0,0.9,0.1,1.3,0.2c0.4,0.2,0.7,0.4,1,0.7
		c0.3,0.3,0.5,0.6,0.6,1c0.1,0.4,0.2,0.8,0.2,1.3c0,0.4-0.1,0.7-0.2,1.1c-0.1,0.4-0.3,0.7-0.6,1.1s-0.6,0.6-1,0.8
		c-0.4,0.2-1,0.3-1.6,0.3c-0.7,0-1.3-0.1-1.8-0.4s-0.8-0.7-1-1.1c-0.2-0.5-0.4-1-0.5-1.5c-0.1-0.6-0.1-1.1-0.1-1.6
		c0-0.7,0.1-1.3,0.2-2c0.1-0.6,0.3-1.2,0.6-1.7c0.3-0.5,0.7-0.9,1.1-1.2c0.5-0.3,1.1-0.4,1.8-0.4c0.8,0,1.5,0.2,2,0.7
		c0.5,0.4,0.8,1.1,0.8,1.9h-1.2C407.4,61.6,407.3,61.3,407,61z M404.8,64.3c-0.3,0.1-0.5,0.3-0.6,0.5c-0.2,0.2-0.3,0.4-0.4,0.7
		c-0.1,0.3-0.1,0.6-0.1,0.9c0,0.3,0,0.6,0.1,0.9c0.1,0.3,0.2,0.5,0.4,0.7c0.2,0.2,0.4,0.4,0.6,0.5s0.5,0.2,0.9,0.2s0.6-0.1,0.9-0.2
		c0.2-0.1,0.5-0.3,0.6-0.5c0.2-0.2,0.3-0.4,0.4-0.7s0.1-0.5,0.1-0.8c0-0.3,0-0.6-0.1-0.9c-0.1-0.3-0.2-0.5-0.4-0.7s-0.4-0.4-0.6-0.5
		s-0.5-0.2-0.9-0.2S405.1,64.2,404.8,64.3z"/>
	<path d="M410.9,61.3c0.1-0.3,0.2-0.6,0.4-0.9c0.2-0.3,0.4-0.5,0.7-0.6c0.3-0.2,0.6-0.2,1.1-0.2c0.4,0,0.8,0.1,1.1,0.2
		c0.3,0.1,0.5,0.4,0.7,0.6s0.3,0.5,0.4,0.9c0.1,0.3,0.1,0.7,0.1,1.1c0,0.4,0,0.7-0.1,1.1s-0.2,0.6-0.4,0.9c-0.2,0.3-0.4,0.5-0.7,0.6
		s-0.6,0.2-1,0.2c-0.4,0-0.8-0.1-1.1-0.2c-0.3-0.1-0.5-0.3-0.7-0.6c-0.2-0.3-0.3-0.5-0.4-0.9c-0.1-0.3-0.1-0.7-0.1-1.1
		S410.8,61.6,410.9,61.3z M411.8,63c0,0.2,0.1,0.5,0.2,0.7s0.2,0.4,0.4,0.5c0.2,0.1,0.4,0.2,0.6,0.2c0.3,0,0.5-0.1,0.6-0.2
		c0.2-0.1,0.3-0.3,0.4-0.5c0.1-0.2,0.1-0.4,0.2-0.7s0-0.5,0-0.7c0-0.2,0-0.4,0-0.7s-0.1-0.5-0.2-0.7c-0.1-0.2-0.2-0.4-0.4-0.5
		c-0.2-0.1-0.4-0.2-0.6-0.2c-0.3,0-0.5,0.1-0.6,0.2c-0.2,0.1-0.3,0.3-0.4,0.5c-0.1,0.2-0.1,0.4-0.2,0.7s0,0.5,0,0.7
		C411.8,62.6,411.8,62.8,411.8,63z M420.8,59.4l-7.5,10.4h-1.2l7.5-10.4H420.8z M417.8,65.8c0.1-0.3,0.2-0.6,0.4-0.9
		c0.2-0.3,0.4-0.5,0.7-0.6c0.3-0.2,0.6-0.2,1.1-0.2c0.4,0,0.8,0.1,1.1,0.2c0.3,0.1,0.5,0.4,0.7,0.6s0.3,0.5,0.4,0.9
		c0.1,0.3,0.1,0.7,0.1,1.1c0,0.4,0,0.7-0.1,1.1s-0.2,0.6-0.4,0.9c-0.2,0.3-0.4,0.5-0.7,0.6c-0.3,0.2-0.6,0.2-1,0.2
		c-0.4,0-0.8-0.1-1.1-0.2c-0.3-0.1-0.5-0.3-0.7-0.6c-0.2-0.2-0.3-0.5-0.4-0.9c-0.1-0.3-0.1-0.7-0.1-1.1S417.7,66.1,417.8,65.8z
		 M418.8,67.5c0,0.2,0.1,0.5,0.2,0.7s0.2,0.4,0.4,0.5c0.2,0.1,0.4,0.2,0.6,0.2c0.3,0,0.5-0.1,0.6-0.2c0.2-0.1,0.3-0.3,0.4-0.5
		c0.1-0.2,0.1-0.4,0.2-0.7s0-0.5,0-0.7c0-0.2,0-0.4,0-0.7s-0.1-0.5-0.2-0.7c-0.1-0.2-0.2-0.4-0.4-0.5c-0.2-0.1-0.4-0.2-0.6-0.2
		c-0.3,0-0.5,0.1-0.6,0.2c-0.2,0.1-0.3,0.3-0.4,0.5c-0.1,0.2-0.1,0.4-0.2,0.7s0,0.5,0,0.7C418.7,67,418.7,67.3,418.8,67.5z"/>
</g>
<g>
	<path d="M470.2,26.5l-2.3-8.4h0l-2.3,8.4h-1.4l-2.6-10h1.4l2,8.3h0l2.2-8.3h1.4l2.2,8.3h0l2-8.3h1.3l-2.7,10H470.2z"/>
	<path d="M475.4,17.9v-1.5h1.2v1.5H475.4z M476.6,19.2v7.2h-1.2v-7.2H476.6z"/>
	<path d="M483.7,26.5v-1h0c-0.2,0.4-0.5,0.7-0.9,0.9s-0.9,0.3-1.4,0.3c-0.6,0-1-0.1-1.5-0.3c-0.4-0.2-0.8-0.5-1-0.8
		s-0.5-0.7-0.6-1.2c-0.1-0.5-0.2-0.9-0.2-1.5c0-0.5,0.1-1,0.2-1.5c0.1-0.5,0.3-0.9,0.6-1.2s0.6-0.6,1-0.8c0.4-0.2,0.9-0.3,1.4-0.3
		c0.2,0,0.4,0,0.6,0.1c0.2,0,0.4,0.1,0.6,0.2c0.2,0.1,0.4,0.2,0.6,0.4c0.2,0.1,0.4,0.3,0.5,0.5h0v-3.7h1.2v10H483.7z M479.5,23.9
		c0.1,0.3,0.2,0.6,0.4,0.9c0.2,0.3,0.4,0.5,0.7,0.6c0.3,0.1,0.6,0.2,1,0.2c0.4,0,0.7-0.1,1-0.2c0.3-0.2,0.5-0.4,0.7-0.6
		c0.2-0.3,0.3-0.5,0.4-0.9c0.1-0.3,0.1-0.7,0.1-1c0-0.4,0-0.7-0.1-1c-0.1-0.3-0.2-0.6-0.4-0.9c-0.2-0.3-0.4-0.5-0.7-0.6
		c-0.3-0.2-0.6-0.2-1.1-0.2c-0.4,0-0.7,0.1-1,0.2c-0.3,0.2-0.5,0.4-0.7,0.6s-0.3,0.6-0.4,0.9c-0.1,0.3-0.1,0.7-0.1,1
		C479.3,23.2,479.4,23.6,479.5,23.9z"/>
	<path d="M489.8,19.2v1h-1.4v4.5c0,0.1,0,0.3,0,0.3s0.1,0.1,0.1,0.2c0.1,0,0.2,0.1,0.3,0.1c0.1,0,0.3,0,0.5,0h0.5v1h-0.9
		c-0.3,0-0.6,0-0.8-0.1c-0.2,0-0.4-0.1-0.5-0.2c-0.1-0.1-0.2-0.3-0.3-0.5c-0.1-0.2-0.1-0.5-0.1-0.8v-4.6H486v-1h1.2v-2.2h1.2v2.2
		H489.8z"/>
	<path d="M492.4,16.5v3.8h0c0.1-0.2,0.2-0.4,0.4-0.6c0.2-0.2,0.4-0.3,0.6-0.4c0.2-0.1,0.4-0.2,0.7-0.2c0.2,0,0.5-0.1,0.7-0.1
		c0.5,0,0.9,0.1,1.2,0.2s0.6,0.3,0.8,0.5c0.2,0.2,0.3,0.5,0.4,0.8c0.1,0.3,0.1,0.7,0.1,1.1v4.8H496v-4.9c0-0.4-0.1-0.8-0.4-1.1
		c-0.3-0.3-0.6-0.4-1.1-0.4c-0.4,0-0.7,0.1-0.9,0.2c-0.3,0.1-0.5,0.3-0.7,0.5c-0.2,0.2-0.3,0.4-0.4,0.7c-0.1,0.3-0.1,0.6-0.1,0.9
		v4.1h-1.2v-10H492.4z"/>
	<path d="M499.2,20.8v-1.6h1.6v1.6H499.2z M500.8,24.9v1.6h-1.6v-1.6H500.8z"/>
	<path d="M505.7,26.5v-7.1h-2.6v-1c0.3,0,0.7,0,1-0.1c0.3-0.1,0.6-0.1,0.9-0.3c0.3-0.1,0.5-0.3,0.7-0.6c0.2-0.2,0.3-0.6,0.4-0.9h0.9
		v9.9H505.7z"/>
	<path d="M510.3,20.5c0-0.4,0.1-0.8,0.1-1.1c0.1-0.4,0.2-0.7,0.3-1.1c0.1-0.3,0.3-0.6,0.6-0.9c0.2-0.3,0.5-0.5,0.9-0.6
		c0.4-0.1,0.8-0.2,1.3-0.2c0.5,0,1,0.1,1.3,0.2c0.4,0.1,0.7,0.4,0.9,0.6c0.2,0.3,0.4,0.5,0.6,0.9c0.1,0.3,0.2,0.7,0.3,1.1
		c0.1,0.4,0.1,0.8,0.1,1.1s0,0.8,0,1.1c0,0.4,0,0.7,0,1.1c0,0.4-0.1,0.8-0.1,1.1c-0.1,0.4-0.2,0.7-0.3,1.1c-0.1,0.3-0.3,0.6-0.6,0.9
		c-0.2,0.3-0.5,0.5-0.9,0.6c-0.4,0.1-0.8,0.2-1.3,0.2c-0.5,0-1-0.1-1.3-0.2c-0.4-0.1-0.7-0.3-0.9-0.6c-0.2-0.3-0.4-0.5-0.6-0.9
		c-0.1-0.3-0.2-0.7-0.3-1.1c-0.1-0.4-0.1-0.8-0.1-1.1c0-0.4,0-0.8,0-1.1C510.3,21.2,510.3,20.9,510.3,20.5z M511.6,22.8
		c0,0.5,0.1,0.9,0.2,1.3c0.1,0.4,0.3,0.7,0.6,1c0.3,0.3,0.7,0.4,1.2,0.4c0.5,0,0.9-0.1,1.2-0.4c0.3-0.3,0.5-0.6,0.6-1
		c0.1-0.4,0.2-0.8,0.2-1.3c0-0.5,0-0.9,0-1.3c0-0.2,0-0.5,0-0.8s0-0.6-0.1-0.9c0-0.3-0.1-0.6-0.2-0.9c-0.1-0.3-0.2-0.5-0.3-0.7
		s-0.3-0.4-0.6-0.5c-0.2-0.1-0.5-0.2-0.9-0.2s-0.6,0.1-0.9,0.2c-0.2,0.1-0.4,0.3-0.6,0.5s-0.3,0.5-0.3,0.7c-0.1,0.3-0.1,0.6-0.2,0.9
		c0,0.3-0.1,0.6-0.1,0.9c0,0.3,0,0.6,0,0.8C511.6,22,511.6,22.4,511.6,22.8z"/>
	<path d="M518.1,20.5c0-0.4,0.1-0.8,0.1-1.1c0.1-0.4,0.2-0.7,0.3-1.1c0.1-0.3,0.3-0.6,0.6-0.9c0.2-0.3,0.5-0.5,0.9-0.6
		c0.4-0.1,0.8-0.2,1.3-0.2c0.5,0,1,0.1,1.3,0.2c0.4,0.1,0.7,0.4,0.9,0.6c0.2,0.3,0.4,0.5,0.6,0.9c0.1,0.3,0.2,0.7,0.3,1.1
		c0.1,0.4,0.1,0.8,0.1,1.1s0,0.8,0,1.1c0,0.4,0,0.7,0,1.1c0,0.4-0.1,0.8-0.1,1.1c-0.1,0.4-0.2,0.7-0.3,1.1c-0.1,0.3-0.3,0.6-0.6,0.9
		c-0.2,0.3-0.5,0.5-0.9,0.6c-0.4,0.1-0.8,0.2-1.3,0.2c-0.5,0-1-0.1-1.3-0.2c-0.4-0.1-0.7-0.3-0.9-0.6c-0.2-0.3-0.4-0.5-0.6-0.9
		c-0.1-0.3-0.2-0.7-0.3-1.1c-0.1-0.4-0.1-0.8-0.1-1.1c0-0.4,0-0.8,0-1.1C518.1,21.2,518.1,20.9,518.1,20.5z M519.4,22.8
		c0,0.5,0.1,0.9,0.2,1.3c0.1,0.4,0.3,0.7,0.6,1c0.3,0.3,0.7,0.4,1.2,0.4c0.5,0,0.9-0.1,1.2-0.4c0.3-0.3,0.5-0.6,0.6-1
		c0.1-0.4,0.2-0.8,0.2-1.3c0-0.5,0-0.9,0-1.3c0-0.2,0-0.5,0-0.8s0-0.6-0.1-0.9c0-0.3-0.1-0.6-0.2-0.9c-0.1-0.3-0.2-0.5-0.3-0.7
		s-0.3-0.4-0.6-0.5c-0.2-0.1-0.5-0.2-0.9-0.2s-0.6,0.1-0.9,0.2c-0.2,0.1-0.4,0.3-0.6,0.5s-0.3,0.5-0.3,0.7c-0.1,0.3-0.1,0.6-0.2,0.9
		c0,0.3-0.1,0.6-0.1,0.9c0,0.3,0,0.6,0,0.8C519.4,22,519.4,22.4,519.4,22.8z"/>
	<path d="M526.1,18.7c0.1-0.4,0.3-0.8,0.6-1.1c0.3-0.3,0.6-0.6,1-0.7c0.4-0.2,0.9-0.3,1.4-0.3c0.4,0,0.8,0.1,1.2,0.2
		c0.4,0.1,0.7,0.3,1,0.5c0.3,0.2,0.5,0.5,0.7,0.9c0.2,0.4,0.2,0.8,0.2,1.2c0,0.4-0.1,0.8-0.2,1.2c-0.1,0.3-0.3,0.6-0.5,0.9
		c-0.2,0.3-0.5,0.5-0.8,0.7c-0.3,0.2-0.6,0.4-0.9,0.6c-0.3,0.2-0.6,0.4-0.9,0.6c-0.3,0.2-0.6,0.4-0.8,0.6c-0.3,0.2-0.5,0.4-0.7,0.7
		c-0.2,0.2-0.3,0.5-0.4,0.8h5.1v1h-6.5c0-0.6,0.2-1.1,0.3-1.5c0.2-0.4,0.4-0.8,0.6-1.1c0.3-0.3,0.5-0.6,0.9-0.8s0.6-0.5,1-0.7
		c0.4-0.3,0.8-0.5,1.1-0.7s0.6-0.4,0.8-0.7c0.2-0.2,0.4-0.5,0.5-0.7s0.2-0.6,0.2-0.9c0-0.3-0.1-0.5-0.2-0.7s-0.2-0.4-0.4-0.6
		c-0.2-0.2-0.4-0.3-0.6-0.4c-0.2-0.1-0.5-0.1-0.7-0.1c-0.3,0-0.6,0.1-0.9,0.2c-0.2,0.1-0.5,0.3-0.6,0.6c-0.2,0.2-0.3,0.5-0.3,0.8
		c-0.1,0.3-0.1,0.6-0.1,0.9h-1.2C525.9,19.6,525.9,19.1,526.1,18.7z"/>
	<path d="M535.2,19.2v1h0c0.2-0.4,0.5-0.7,0.9-0.9c0.4-0.2,0.9-0.3,1.4-0.3c0.6,0,1,0.1,1.5,0.3c0.4,0.2,0.8,0.5,1,0.8
		s0.5,0.8,0.6,1.2c0.1,0.5,0.2,0.9,0.2,1.5c0,0.5-0.1,1-0.2,1.5c-0.1,0.5-0.3,0.9-0.6,1.2s-0.6,0.6-1,0.8c-0.4,0.2-0.9,0.3-1.4,0.3
		c-0.2,0-0.4,0-0.6-0.1c-0.2,0-0.4-0.1-0.7-0.2s-0.4-0.2-0.6-0.3c-0.2-0.1-0.4-0.3-0.5-0.5h0v3.7H534v-10H535.2z M539.5,21.8
		c-0.1-0.3-0.2-0.6-0.4-0.9c-0.2-0.3-0.4-0.5-0.7-0.6c-0.3-0.1-0.6-0.2-1-0.2c-0.4,0-0.7,0.1-1,0.2c-0.3,0.2-0.5,0.4-0.7,0.6
		c-0.2,0.3-0.3,0.5-0.4,0.9c-0.1,0.3-0.1,0.7-0.1,1c0,0.4,0,0.7,0.1,1c0.1,0.3,0.2,0.6,0.4,0.9c0.2,0.3,0.4,0.5,0.7,0.6
		c0.3,0.2,0.6,0.2,1,0.2c0.4,0,0.8-0.1,1-0.2c0.3-0.2,0.5-0.4,0.7-0.6c0.2-0.3,0.3-0.6,0.4-0.9c0.1-0.3,0.1-0.7,0.1-1
		C539.6,22.5,539.6,22.1,539.5,21.8z"/>
	<path d="M541.7,19.2h1.5l1.7,2.5l1.8-2.5h1.4l-2.5,3.3l2.8,3.9H547l-2-3l-2,3h-1.4l2.7-3.8L541.7,19.2z"/>
</g>
<g>
	<path d="M553.3,61.7c0.1-0.4,0.3-0.8,0.6-1.1c0.3-0.3,0.6-0.6,1-0.7c0.4-0.2,0.9-0.3,1.4-0.3c0.4,0,0.8,0.1,1.2,0.2
		c0.4,0.1,0.7,0.3,1,0.5c0.3,0.2,0.5,0.5,0.7,0.9c0.2,0.4,0.2,0.8,0.2,1.2c0,0.4-0.1,0.8-0.2,1.2c-0.1,0.3-0.3,0.6-0.5,0.9
		s-0.5,0.5-0.8,0.7c-0.3,0.2-0.6,0.4-0.9,0.6c-0.3,0.2-0.6,0.4-0.9,0.6c-0.3,0.2-0.6,0.4-0.8,0.6c-0.3,0.2-0.5,0.4-0.7,0.7
		c-0.2,0.2-0.3,0.5-0.4,0.8h5.1v1h-6.5c0-0.6,0.2-1.1,0.3-1.5s0.4-0.8,0.6-1.1c0.3-0.3,0.5-0.6,0.9-0.8c0.3-0.2,0.6-0.5,1-0.7
		c0.4-0.3,0.8-0.5,1.1-0.7c0.3-0.2,0.6-0.4,0.8-0.7c0.2-0.2,0.4-0.5,0.5-0.7s0.2-0.6,0.2-0.9c0-0.3-0.1-0.5-0.2-0.7
		c-0.1-0.2-0.2-0.4-0.4-0.6c-0.2-0.2-0.4-0.3-0.6-0.4c-0.2-0.1-0.5-0.1-0.7-0.1c-0.3,0-0.6,0.1-0.9,0.2c-0.2,0.1-0.4,0.3-0.6,0.6
		c-0.2,0.2-0.3,0.5-0.3,0.8c-0.1,0.3-0.1,0.6-0.1,0.9h-1.2C553.1,62.6,553.2,62.1,553.3,61.7z"/>
	<path d="M563,67.9v1.6h-1.6v-1.6H563z"/>
	<path d="M566.7,68.2c0.3,0.3,0.8,0.4,1.2,0.4c0.7,0,1.3-0.3,1.6-0.9c0.4-0.6,0.6-1.6,0.6-2.9l0,0c-0.2,0.4-0.5,0.8-1,1
		c-0.4,0.2-0.9,0.4-1.3,0.4c-0.5,0-1-0.1-1.3-0.2c-0.4-0.2-0.7-0.4-1-0.7c-0.3-0.3-0.5-0.6-0.6-1.1c-0.1-0.4-0.2-0.9-0.2-1.3
		c0-0.5,0.1-0.9,0.2-1.3c0.2-0.4,0.4-0.7,0.7-1s0.6-0.5,1-0.7c0.4-0.2,0.8-0.2,1.3-0.2c0.5,0,0.9,0.1,1.3,0.2
		c0.4,0.1,0.8,0.4,1.1,0.7c0.3,0.4,0.6,0.8,0.7,1.4c0.2,0.6,0.3,1.4,0.3,2.3c0,1.7-0.3,3-0.8,4c-0.5,0.9-1.4,1.4-2.6,1.4
		c-0.8,0-1.5-0.2-2.1-0.6s-0.9-1.1-0.9-1.9h1.2C566.1,67.6,566.3,67.9,566.7,68.2z M569.8,62c-0.1-0.3-0.2-0.5-0.4-0.7
		c-0.2-0.2-0.4-0.4-0.6-0.5c-0.3-0.1-0.5-0.2-0.9-0.2c-0.4,0-0.7,0.1-0.9,0.2c-0.2,0.1-0.4,0.3-0.6,0.5c-0.2,0.2-0.3,0.5-0.3,0.7
		c-0.1,0.3-0.1,0.6-0.1,0.9c0,0.3,0,0.5,0.1,0.8c0.1,0.3,0.2,0.5,0.4,0.7c0.2,0.2,0.4,0.4,0.6,0.5s0.5,0.2,0.8,0.2
		c0.3,0,0.6-0.1,0.8-0.2s0.5-0.3,0.6-0.5c0.2-0.2,0.3-0.4,0.4-0.7c0.1-0.3,0.1-0.5,0.1-0.8C569.9,62.6,569.9,62.3,569.8,62z"/>
	<path d="M574.5,68.2c0.3,0.3,0.8,0.4,1.2,0.4c0.7,0,1.3-0.3,1.6-0.9c0.4-0.6,0.6-1.6,0.6-2.9l0,0c-0.2,0.4-0.5,0.8-1,1
		c-0.4,0.2-0.9,0.4-1.3,0.4c-0.5,0-1-0.1-1.3-0.2c-0.4-0.2-0.7-0.4-1-0.7c-0.3-0.3-0.5-0.6-0.6-1.1c-0.1-0.4-0.2-0.9-0.2-1.3
		c0-0.5,0.1-0.9,0.2-1.3c0.2-0.4,0.4-0.7,0.7-1s0.6-0.5,1-0.7c0.4-0.2,0.8-0.2,1.3-0.2c0.5,0,0.9,0.1,1.3,0.2
		c0.4,0.1,0.8,0.4,1.1,0.7c0.3,0.4,0.6,0.8,0.7,1.4c0.2,0.6,0.3,1.4,0.3,2.3c0,1.7-0.3,3-0.8,4c-0.5,0.9-1.4,1.4-2.6,1.4
		c-0.8,0-1.5-0.2-2.1-0.6s-0.9-1.1-0.9-1.9h1.2C573.9,67.6,574.1,67.9,574.5,68.2z M577.6,62c-0.1-0.3-0.2-0.5-0.4-0.7
		c-0.2-0.2-0.4-0.4-0.6-0.5c-0.3-0.1-0.5-0.2-0.9-0.2c-0.4,0-0.7,0.1-0.9,0.2c-0.2,0.1-0.4,0.3-0.6,0.5s-0.3,0.5-0.3,0.7
		c-0.1,0.3-0.1,0.6-0.1,0.9c0,0.3,0,0.5,0.1,0.8c0.1,0.3,0.2,0.5,0.4,0.7c0.2,0.2,0.4,0.4,0.6,0.5c0.2,0.1,0.5,0.2,0.8,0.2
		c0.3,0,0.6-0.1,0.8-0.2s0.5-0.3,0.6-0.5c0.2-0.2,0.3-0.4,0.4-0.7s0.1-0.5,0.1-0.8C577.7,62.6,577.7,62.3,577.6,62z"/>
	<path d="M587,66.1v1h-1.3v2.3h-1.1v-2.3h-4.4V66l4.5-6.5h1v6.6H587z M584.5,61.2L584.5,61.2l-3.3,4.9h3.3V61.2z"/>
	<path d="M590,68.2c0.3,0.3,0.8,0.4,1.2,0.4c0.7,0,1.3-0.3,1.6-0.9c0.4-0.6,0.6-1.6,0.6-2.9l0,0c-0.2,0.4-0.5,0.8-1,1
		c-0.4,0.2-0.9,0.4-1.3,0.4c-0.5,0-1-0.1-1.3-0.2c-0.4-0.2-0.7-0.4-1-0.7c-0.3-0.3-0.5-0.6-0.6-1.1c-0.1-0.4-0.2-0.9-0.2-1.3
		c0-0.5,0.1-0.9,0.2-1.3c0.2-0.4,0.4-0.7,0.7-1s0.6-0.5,1-0.7c0.4-0.2,0.8-0.2,1.3-0.2c0.5,0,0.9,0.1,1.3,0.2
		c0.4,0.1,0.8,0.4,1.1,0.7c0.3,0.4,0.6,0.8,0.7,1.4c0.2,0.6,0.3,1.4,0.3,2.3c0,1.7-0.3,3-0.8,4c-0.5,0.9-1.4,1.4-2.6,1.4
		c-0.8,0-1.5-0.2-2.1-0.6s-0.9-1.1-0.9-1.9h1.2C589.5,67.6,589.7,67.9,590,68.2z M593.1,62c-0.1-0.3-0.2-0.5-0.4-0.7
		c-0.2-0.2-0.4-0.4-0.6-0.5c-0.3-0.1-0.5-0.2-0.9-0.2c-0.4,0-0.7,0.1-0.9,0.2c-0.2,0.1-0.4,0.3-0.6,0.5s-0.3,0.5-0.3,0.7
		c-0.1,0.3-0.1,0.6-0.1,0.9c0,0.3,0,0.5,0.1,0.8c0.1,0.3,0.2,0.5,0.4,0.7c0.2,0.2,0.4,0.4,0.6,0.5c0.2,0.1,0.5,0.2,0.8,0.2
		c0.3,0,0.6-0.1,0.8-0.2s0.5-0.3,0.6-0.5c0.2-0.2,0.3-0.4,0.4-0.7s0.1-0.5,0.1-0.8C593.3,62.6,593.2,62.3,593.1,62z"/>
	<path d="M599.1,69.5v-7.1h-2.6v-1c0.3,0,0.7,0,1-0.1c0.3-0.1,0.6-0.1,0.9-0.3c0.3-0.1,0.5-0.3,0.7-0.6c0.2-0.2,0.3-0.6,0.4-0.9h0.9
		v9.9H599.1z"/>
	<path d="M606.9,69.5v-7.1h-2.6v-1c0.3,0,0.7,0,1-0.1c0.3-0.1,0.6-0.1,0.9-0.3c0.3-0.1,0.5-0.3,0.7-0.6s0.3-0.6,0.4-0.9h0.9v9.9
		H606.9z"/>
	<path d="M613.4,68.2c0.3,0.3,0.8,0.4,1.2,0.4c0.7,0,1.3-0.3,1.6-0.9c0.4-0.6,0.6-1.6,0.6-2.9l0,0c-0.2,0.4-0.5,0.8-1,1
		c-0.4,0.2-0.9,0.4-1.3,0.4c-0.5,0-1-0.1-1.3-0.2c-0.4-0.2-0.7-0.4-1-0.7c-0.3-0.3-0.5-0.6-0.6-1.1c-0.1-0.4-0.2-0.9-0.2-1.3
		c0-0.5,0.1-0.9,0.2-1.3c0.2-0.4,0.4-0.7,0.7-1s0.6-0.5,1-0.7c0.4-0.2,0.8-0.2,1.3-0.2c0.5,0,0.9,0.1,1.3,0.2
		c0.4,0.1,0.8,0.4,1.1,0.7c0.3,0.4,0.6,0.8,0.7,1.4c0.2,0.6,0.3,1.4,0.3,2.3c0,1.7-0.3,3-0.8,4c-0.5,0.9-1.4,1.4-2.6,1.4
		c-0.8,0-1.5-0.2-2.1-0.6s-0.9-1.1-0.9-1.9h1.2C612.8,67.6,613,67.9,613.4,68.2z M616.5,62c-0.1-0.3-0.2-0.5-0.4-0.7
		c-0.2-0.2-0.4-0.4-0.6-0.5c-0.3-0.1-0.5-0.2-0.9-0.2c-0.4,0-0.7,0.1-0.9,0.2c-0.2,0.1-0.4,0.3-0.6,0.5s-0.3,0.5-0.3,0.7
		c-0.1,0.3-0.1,0.6-0.1,0.9c0,0.3,0,0.5,0.1,0.8c0.1,0.3,0.2,0.5,0.4,0.7c0.2,0.2,0.4,0.4,0.6,0.5c0.2,0.1,0.5,0.2,0.8,0.2
		c0.3,0,0.6-0.1,0.8-0.2s0.5-0.3,0.6-0.5c0.2-0.2,0.3-0.4,0.4-0.7s0.1-0.5,0.1-0.8C616.6,62.6,616.6,62.3,616.5,62z"/>
	<path d="M619.8,61c0.2-0.3,0.4-0.6,0.6-0.8c0.3-0.2,0.6-0.4,0.9-0.5c0.3-0.1,0.7-0.2,1.1-0.2c0.5,0,1,0.1,1.4,0.2
		c0.4,0.1,0.7,0.3,0.9,0.6c0.2,0.2,0.4,0.5,0.5,0.8c0.1,0.3,0.2,0.6,0.2,0.9c0,0.4-0.1,0.9-0.4,1.2c-0.2,0.4-0.6,0.6-1,0.8
		c0.6,0.2,1,0.5,1.3,0.9s0.4,0.9,0.4,1.6c0,0.5-0.1,0.9-0.3,1.3c-0.2,0.4-0.4,0.7-0.7,0.9c-0.3,0.3-0.6,0.5-1,0.6
		c-0.4,0.1-0.8,0.2-1.3,0.2c-0.5,0-0.9-0.1-1.3-0.2c-0.4-0.1-0.8-0.3-1.1-0.6c-0.3-0.3-0.5-0.6-0.7-0.9c-0.2-0.4-0.3-0.8-0.3-1.3
		c0-0.6,0.2-1.1,0.4-1.5s0.7-0.7,1.3-0.9c-0.4-0.2-0.8-0.4-1-0.8s-0.4-0.8-0.4-1.2C619.6,61.7,619.7,61.3,619.8,61z M621.1,68.1
		c0.4,0.3,0.9,0.5,1.5,0.5c0.3,0,0.6,0,0.8-0.1c0.2-0.1,0.5-0.2,0.6-0.4c0.2-0.2,0.3-0.4,0.4-0.6s0.1-0.5,0.1-0.8
		c0-0.3-0.1-0.5-0.2-0.7c-0.1-0.2-0.3-0.4-0.4-0.6s-0.4-0.3-0.7-0.4c-0.2-0.1-0.5-0.1-0.8-0.1c-0.3,0-0.6,0-0.8,0.1
		c-0.3,0.1-0.5,0.2-0.7,0.4s-0.3,0.4-0.4,0.6s-0.2,0.5-0.2,0.8C620.5,67.3,620.7,67.7,621.1,68.1z M621,62.8
		c0.1,0.2,0.2,0.4,0.4,0.5c0.2,0.1,0.3,0.2,0.6,0.3c0.2,0.1,0.4,0.1,0.7,0.1c0.5,0,0.9-0.1,1.2-0.4c0.3-0.3,0.5-0.7,0.5-1.2
		s-0.2-0.9-0.5-1.1c-0.3-0.3-0.7-0.4-1.2-0.4c-0.2,0-0.5,0-0.7,0.1c-0.2,0.1-0.4,0.2-0.6,0.3c-0.2,0.1-0.3,0.3-0.4,0.5
		c-0.1,0.2-0.1,0.4-0.1,0.7C620.9,62.4,620.9,62.6,621,62.8z"/>
	<path d="M627.9,61.3c0.1-0.3,0.2-0.6,0.4-0.9c0.2-0.3,0.4-0.5,0.7-0.6c0.3-0.2,0.6-0.2,1.1-0.2c0.4,0,0.8,0.1,1.1,0.2
		c0.3,0.1,0.5,0.4,0.7,0.6c0.2,0.3,0.3,0.5,0.4,0.9s0.1,0.7,0.1,1.1c0,0.4,0,0.7-0.1,1.1c-0.1,0.3-0.2,0.6-0.4,0.9s-0.4,0.5-0.7,0.6
		c-0.3,0.2-0.6,0.2-1,0.2c-0.4,0-0.8-0.1-1.1-0.2c-0.3-0.1-0.5-0.3-0.7-0.6c-0.2-0.3-0.3-0.5-0.4-0.9c-0.1-0.3-0.1-0.7-0.1-1.1
		S627.8,61.6,627.9,61.3z M628.8,63c0,0.2,0.1,0.5,0.2,0.7s0.2,0.4,0.4,0.5c0.2,0.1,0.4,0.2,0.6,0.2c0.3,0,0.5-0.1,0.6-0.2
		s0.3-0.3,0.4-0.5s0.1-0.4,0.2-0.7c0-0.2,0-0.5,0-0.7c0-0.2,0-0.4,0-0.7s-0.1-0.5-0.2-0.7c-0.1-0.2-0.2-0.4-0.4-0.5
		c-0.2-0.1-0.4-0.2-0.6-0.2c-0.3,0-0.5,0.1-0.6,0.2c-0.2,0.1-0.3,0.3-0.4,0.5c-0.1,0.2-0.1,0.4-0.2,0.7c0,0.2,0,0.5,0,0.7
		C628.8,62.6,628.8,62.8,628.8,63z M637.8,59.4l-7.5,10.4h-1.2l7.5-10.4H637.8z M634.8,65.8c0.1-0.3,0.2-0.6,0.4-0.9
		c0.2-0.3,0.4-0.5,0.7-0.6c0.3-0.2,0.6-0.2,1.1-0.2c0.4,0,0.8,0.1,1.1,0.2c0.3,0.1,0.5,0.4,0.7,0.6c0.2,0.3,0.3,0.5,0.4,0.9
		s0.1,0.7,0.1,1.1c0,0.4,0,0.7-0.1,1.1c-0.1,0.3-0.2,0.6-0.4,0.9s-0.4,0.5-0.7,0.6c-0.3,0.2-0.6,0.2-1,0.2c-0.4,0-0.8-0.1-1.1-0.2
		c-0.3-0.1-0.5-0.3-0.7-0.6c-0.2-0.2-0.3-0.5-0.4-0.9c-0.1-0.3-0.1-0.7-0.1-1.1S634.7,66.1,634.8,65.8z M635.8,67.5
		c0,0.2,0.1,0.5,0.2,0.7s0.2,0.4,0.4,0.5c0.2,0.1,0.4,0.2,0.6,0.2c0.3,0,0.5-0.1,0.6-0.2s0.3-0.3,0.4-0.5s0.1-0.4,0.2-0.7
		c0-0.2,0-0.5,0-0.7c0-0.2,0-0.4,0-0.7s-0.1-0.5-0.2-0.7c-0.1-0.2-0.2-0.4-0.4-0.5c-0.2-0.1-0.4-0.2-0.6-0.2c-0.3,0-0.5,0.1-0.6,0.2
		c-0.2,0.1-0.3,0.3-0.4,0.5c-0.1,0.2-0.1,0.4-0.2,0.7c0,0.2,0,0.5,0,0.7C635.7,67,635.7,67.3,635.8,67.5z"/>
</g>
<g>
	<path d="M362.5,119.8l-0.5,2.9l0,0c0.2-0.2,0.5-0.4,0.8-0.5c0.3-0.1,0.7-0.2,1-0.2c0.4,0,0.9,0.1,1.2,0.2c0.4,0.1,0.7,0.4,1,0.6
		c0.3,0.3,0.5,0.6,0.7,1.1s0.3,0.9,0.3,1.5c0,0.4-0.1,0.8-0.2,1.2c-0.1,0.4-0.4,0.7-0.7,1.1s-0.7,0.6-1.1,0.7
		c-0.4,0.2-0.9,0.3-1.5,0.3c-0.4,0-0.8-0.1-1.2-0.2s-0.7-0.3-1-0.5c-0.3-0.2-0.5-0.5-0.7-0.9c-0.2-0.4-0.3-0.8-0.3-1.2h1.2
		c0,0.3,0.1,0.5,0.2,0.7s0.3,0.4,0.4,0.6c0.2,0.2,0.4,0.3,0.6,0.4c0.2,0.1,0.5,0.1,0.8,0.1c0.3,0,0.5,0,0.8-0.1
		c0.3-0.1,0.5-0.2,0.7-0.4c0.2-0.2,0.3-0.4,0.5-0.7c0.1-0.3,0.2-0.6,0.2-1c0-0.3-0.1-0.6-0.2-0.9c-0.1-0.3-0.3-0.5-0.5-0.7
		s-0.4-0.4-0.7-0.5c-0.3-0.1-0.6-0.2-0.9-0.2c-0.4,0-0.7,0.1-1,0.3c-0.3,0.2-0.6,0.4-0.8,0.7l-1-0.1l0.9-5.2h4.9v1H362.5z"/>
	<path d="M373,120c-0.3-0.3-0.7-0.4-1.1-0.4c-0.5,0-0.9,0.1-1.2,0.4c-0.3,0.2-0.5,0.6-0.7,0.9c-0.2,0.4-0.3,0.8-0.4,1.2
		c-0.1,0.4-0.1,0.8-0.1,1.2l0,0c0.3-0.5,0.6-0.8,1-1c0.4-0.2,0.9-0.3,1.4-0.3c0.5,0,0.9,0.1,1.3,0.2c0.4,0.2,0.7,0.4,1,0.7
		c0.3,0.3,0.5,0.6,0.6,1c0.1,0.4,0.2,0.8,0.2,1.3c0,0.4-0.1,0.7-0.2,1.1c-0.1,0.4-0.3,0.7-0.6,1.1s-0.6,0.6-1,0.8
		c-0.4,0.2-1,0.3-1.6,0.3c-0.7,0-1.3-0.1-1.8-0.4s-0.8-0.7-1-1.1c-0.2-0.5-0.4-1-0.5-1.5c-0.1-0.6-0.1-1.1-0.1-1.6
		c0-0.7,0.1-1.3,0.2-2c0.1-0.6,0.3-1.2,0.6-1.7c0.3-0.5,0.7-0.9,1.1-1.2c0.5-0.3,1.1-0.4,1.8-0.4c0.8,0,1.5,0.2,2,0.7
		c0.5,0.4,0.8,1.1,0.8,1.9h-1.2C373.5,120.6,373.3,120.3,373,120z M370.8,123.3c-0.3,0.1-0.5,0.3-0.6,0.5c-0.2,0.2-0.3,0.4-0.4,0.7
		c-0.1,0.3-0.1,0.6-0.1,0.9c0,0.3,0,0.6,0.1,0.9c0.1,0.3,0.2,0.5,0.4,0.7c0.2,0.2,0.4,0.4,0.6,0.5s0.5,0.2,0.9,0.2s0.6-0.1,0.9-0.2
		c0.2-0.1,0.5-0.3,0.6-0.5c0.2-0.2,0.3-0.4,0.4-0.7s0.1-0.5,0.1-0.8c0-0.3,0-0.6-0.1-0.9c-0.1-0.3-0.2-0.5-0.4-0.7s-0.4-0.4-0.6-0.5
		s-0.5-0.2-0.9-0.2S371.1,123.2,370.8,123.3z"/>
	<path d="M377.6,121.2v1h0c0.2-0.4,0.5-0.7,0.9-0.9c0.4-0.2,0.9-0.3,1.4-0.3c0.6,0,1,0.1,1.5,0.3c0.4,0.2,0.8,0.5,1,0.8
		s0.5,0.8,0.6,1.2c0.1,0.5,0.2,0.9,0.2,1.5c0,0.5-0.1,1-0.2,1.5c-0.1,0.5-0.3,0.9-0.6,1.2s-0.6,0.6-1,0.8c-0.4,0.2-0.9,0.3-1.4,0.3
		c-0.2,0-0.4,0-0.6-0.1c-0.2,0-0.4-0.1-0.7-0.2s-0.4-0.2-0.6-0.3c-0.2-0.1-0.4-0.3-0.5-0.5h0v3.7h-1.2v-10H377.6z M381.9,123.8
		c-0.1-0.3-0.2-0.6-0.4-0.9c-0.2-0.3-0.4-0.5-0.7-0.6c-0.3-0.1-0.6-0.2-1-0.2c-0.4,0-0.7,0.1-1,0.2c-0.3,0.2-0.5,0.4-0.7,0.6
		c-0.2,0.3-0.3,0.5-0.4,0.9c-0.1,0.3-0.1,0.7-0.1,1c0,0.4,0,0.7,0.1,1c0.1,0.3,0.2,0.6,0.4,0.9c0.2,0.3,0.4,0.5,0.7,0.6
		c0.3,0.2,0.6,0.2,1,0.2c0.4,0,0.8-0.1,1-0.2c0.3-0.2,0.5-0.4,0.7-0.6c0.2-0.3,0.3-0.6,0.4-0.9c0.1-0.3,0.1-0.7,0.1-1
		C382,124.5,382,124.1,381.9,123.8z"/>
	<path d="M384.1,121.2h1.5l1.7,2.5l1.8-2.5h1.4l-2.5,3.3l2.8,3.9h-1.5l-2-3l-2,3h-1.4l2.7-3.8L384.1,121.2z"/>
</g>
<g>
	<path d="M359.3,139c-0.5-0.4-1.1-0.5-1.8-0.5c-0.6,0-1.1,0.1-1.5,0.3c-0.4,0.2-0.8,0.5-1,0.9c-0.3,0.4-0.5,0.8-0.6,1.3
		s-0.2,1-0.2,1.5c0,0.6,0.1,1.1,0.2,1.6c0.1,0.5,0.3,1,0.6,1.3c0.3,0.4,0.6,0.7,1.1,0.9c0.4,0.2,0.9,0.3,1.5,0.3
		c0.4,0,0.8-0.1,1.2-0.2c0.3-0.1,0.6-0.3,0.9-0.6c0.2-0.3,0.4-0.6,0.6-0.9c0.1-0.4,0.2-0.7,0.3-1.1h1.3c-0.1,1.3-0.6,2.2-1.3,2.9
		c-0.7,0.7-1.7,1-3,1c-0.8,0-1.5-0.1-2-0.4c-0.6-0.3-1.1-0.6-1.4-1.1s-0.7-1-0.9-1.7s-0.3-1.3-0.3-2s0.1-1.4,0.3-2.1
		s0.5-1.2,0.9-1.7c0.4-0.5,0.9-0.9,1.5-1.1s1.3-0.4,2-0.4c0.5,0,1,0.1,1.5,0.2c0.5,0.1,0.9,0.3,1.2,0.6c0.4,0.3,0.7,0.6,0.9,1
		c0.2,0.4,0.4,0.9,0.5,1.4h-1.3C360.1,139.9,359.8,139.4,359.3,139z"/>
	<path d="M363,142.5c0.1-0.5,0.4-0.9,0.7-1.2c0.3-0.3,0.7-0.6,1.1-0.8c0.4-0.2,0.9-0.3,1.5-0.3c0.6,0,1.1,0.1,1.5,0.3
		c0.4,0.2,0.8,0.5,1.1,0.8c0.3,0.3,0.5,0.7,0.7,1.2s0.2,1,0.2,1.5c0,0.5-0.1,1-0.2,1.5c-0.1,0.5-0.4,0.9-0.7,1.2
		c-0.3,0.3-0.7,0.6-1.1,0.8c-0.4,0.2-0.9,0.3-1.5,0.3c-0.6,0-1.1-0.1-1.5-0.3s-0.8-0.5-1.1-0.8c-0.3-0.3-0.5-0.7-0.7-1.2
		c-0.1-0.5-0.2-1-0.2-1.5C362.7,143.5,362.8,143,363,142.5z M364.2,145.2c0.1,0.3,0.3,0.6,0.5,0.9s0.4,0.4,0.7,0.5
		c0.3,0.1,0.6,0.2,0.9,0.2c0.3,0,0.6-0.1,0.9-0.2c0.3-0.1,0.5-0.3,0.7-0.5c0.2-0.2,0.4-0.5,0.5-0.9c0.1-0.3,0.2-0.7,0.2-1.2
		c0-0.4-0.1-0.8-0.2-1.2c-0.1-0.3-0.3-0.6-0.5-0.9c-0.2-0.2-0.4-0.4-0.7-0.5c-0.3-0.1-0.6-0.2-0.9-0.2c-0.3,0-0.6,0.1-0.9,0.2
		c-0.3,0.1-0.5,0.3-0.7,0.5c-0.2,0.2-0.4,0.5-0.5,0.9c-0.1,0.3-0.2,0.7-0.2,1.2C364,144.4,364,144.8,364.2,145.2z"/>
	<path d="M372.4,137.6v10h-1.2v-10H372.4z"/>
	<path d="M379.1,147.6v-1.1h0c-0.3,0.4-0.6,0.8-1,1c-0.4,0.2-0.9,0.3-1.4,0.3c-0.5,0-0.9-0.1-1.2-0.2s-0.6-0.3-0.8-0.5
		c-0.2-0.2-0.3-0.5-0.4-0.8c-0.1-0.3-0.1-0.7-0.1-1.1v-4.8h1.2v4.9c0,0.4,0.1,0.8,0.4,1.1c0.3,0.3,0.6,0.4,1.1,0.4
		c0.4,0,0.7-0.1,0.9-0.2c0.3-0.1,0.5-0.3,0.7-0.5c0.2-0.2,0.3-0.4,0.4-0.7c0.1-0.3,0.1-0.6,0.1-0.9v-4.1h1.2v7.2H379.1z"/>
	<path d="M383.2,140.4v1.1h0c0.5-0.8,1.3-1.2,2.3-1.2c0.4,0,0.9,0.1,1.2,0.3c0.4,0.2,0.6,0.5,0.8,1c0.2-0.4,0.6-0.7,1-0.9
		s0.8-0.3,1.3-0.3c0.4,0,0.7,0,1,0.1c0.3,0.1,0.5,0.2,0.8,0.4s0.4,0.4,0.5,0.7c0.1,0.3,0.2,0.6,0.2,1v5.3H391v-4.7
		c0-0.2,0-0.4-0.1-0.6s-0.1-0.4-0.2-0.5c-0.1-0.1-0.2-0.3-0.4-0.3s-0.4-0.1-0.7-0.1c-0.6,0-1,0.2-1.4,0.5s-0.5,0.8-0.5,1.3v4.5h-1.2
		v-4.7c0-0.2,0-0.4-0.1-0.6c0-0.2-0.1-0.4-0.2-0.5s-0.2-0.3-0.4-0.3c-0.2-0.1-0.4-0.1-0.7-0.1c-0.3,0-0.6,0.1-0.9,0.2
		s-0.4,0.3-0.6,0.5c-0.2,0.2-0.3,0.4-0.3,0.6c-0.1,0.2-0.1,0.4-0.1,0.5v4.5h-1.2v-7.2H383.2z"/>
	<path d="M395.1,140.4v1.1h0c0.5-0.9,1.3-1.3,2.4-1.3c0.5,0,0.9,0.1,1.2,0.2s0.6,0.3,0.8,0.5c0.2,0.2,0.3,0.5,0.4,0.8
		c0.1,0.3,0.1,0.7,0.1,1.1v4.8h-1.2v-4.9c0-0.4-0.1-0.8-0.4-1.1c-0.3-0.3-0.6-0.4-1.1-0.4c-0.4,0-0.7,0.1-0.9,0.2
		c-0.3,0.1-0.5,0.3-0.7,0.5c-0.2,0.2-0.3,0.4-0.4,0.7c-0.1,0.3-0.1,0.6-0.1,0.9v4.1H394v-7.2H395.1z"/>
</g>
<g>
	<path d="M578.1,122.8c0,0,0.1,0,0.1,0h0.3c0.3,0,0.5,0,0.7-0.1c0.2-0.1,0.4-0.2,0.6-0.3c0.2-0.1,0.3-0.3,0.4-0.5
		c0.1-0.2,0.2-0.4,0.2-0.7c0-0.5-0.2-0.9-0.5-1.2s-0.8-0.4-1.3-0.4c-0.3,0-0.6,0.1-0.8,0.2c-0.2,0.1-0.4,0.3-0.6,0.5
		c-0.2,0.2-0.3,0.4-0.3,0.7c-0.1,0.3-0.1,0.5-0.1,0.8h-1.2c0-0.5,0.1-0.9,0.2-1.3s0.3-0.7,0.6-1c0.3-0.3,0.6-0.5,0.9-0.7
		c0.4-0.2,0.8-0.2,1.3-0.2c0.4,0,0.8,0.1,1.2,0.2c0.4,0.1,0.7,0.3,1,0.5c0.3,0.2,0.5,0.5,0.6,0.8c0.2,0.3,0.2,0.7,0.2,1.2
		c0,0.4-0.1,0.8-0.4,1.2c-0.3,0.3-0.6,0.6-1,0.8v0c0.6,0.1,1.1,0.4,1.4,0.9c0.3,0.4,0.4,1,0.4,1.6c0,0.5-0.1,0.9-0.3,1.3
		s-0.4,0.7-0.7,0.9s-0.7,0.4-1.1,0.6c-0.4,0.1-0.9,0.2-1.3,0.2c-0.5,0-1-0.1-1.4-0.2c-0.4-0.1-0.8-0.3-1-0.6c-0.3-0.3-0.5-0.6-0.7-1
		c-0.2-0.4-0.2-0.9-0.2-1.4h1.2c0,0.6,0.2,1.2,0.6,1.6c0.4,0.4,0.9,0.6,1.6,0.6c0.3,0,0.6,0,0.8-0.1c0.3-0.1,0.5-0.2,0.7-0.4
		c0.2-0.2,0.4-0.4,0.5-0.6c0.1-0.2,0.2-0.5,0.2-0.8c0-0.3-0.1-0.6-0.2-0.8c-0.1-0.2-0.3-0.4-0.4-0.6c-0.2-0.2-0.4-0.3-0.7-0.4
		c-0.3-0.1-0.5-0.1-0.8-0.1c-0.3,0-0.5,0-0.7,0v-1C578,122.8,578.1,122.8,578.1,122.8z"/>
	<path d="M583.3,122.5c0-0.4,0.1-0.8,0.1-1.1c0.1-0.4,0.2-0.7,0.3-1.1c0.1-0.3,0.3-0.6,0.6-0.9c0.2-0.3,0.5-0.5,0.9-0.6
		c0.4-0.1,0.8-0.2,1.3-0.2c0.5,0,1,0.1,1.3,0.2c0.4,0.1,0.7,0.4,0.9,0.6c0.2,0.3,0.4,0.5,0.6,0.9c0.1,0.3,0.2,0.7,0.3,1.1
		c0.1,0.4,0.1,0.8,0.1,1.1c0,0.4,0,0.8,0,1.1c0,0.4,0,0.7,0,1.1c0,0.4-0.1,0.8-0.1,1.1c-0.1,0.4-0.2,0.7-0.3,1.1
		c-0.1,0.3-0.3,0.6-0.6,0.9c-0.2,0.3-0.5,0.5-0.9,0.6c-0.4,0.1-0.8,0.2-1.3,0.2c-0.5,0-1-0.1-1.3-0.2c-0.4-0.1-0.7-0.3-0.9-0.6
		c-0.2-0.3-0.4-0.5-0.6-0.9c-0.1-0.3-0.2-0.7-0.3-1.1c-0.1-0.4-0.1-0.8-0.1-1.1c0-0.4,0-0.8,0-1.1
		C583.3,123.2,583.3,122.9,583.3,122.5z M584.6,124.8c0,0.5,0.1,0.9,0.2,1.3c0.1,0.4,0.3,0.7,0.6,1c0.3,0.3,0.7,0.4,1.2,0.4
		c0.5,0,0.9-0.1,1.2-0.4c0.3-0.3,0.5-0.6,0.6-1c0.1-0.4,0.2-0.8,0.2-1.3c0-0.5,0-0.9,0-1.3c0-0.2,0-0.5,0-0.8c0-0.3,0-0.6-0.1-0.9
		c0-0.3-0.1-0.6-0.2-0.9c-0.1-0.3-0.2-0.5-0.3-0.7s-0.3-0.4-0.6-0.5c-0.2-0.1-0.5-0.2-0.9-0.2s-0.6,0.1-0.9,0.2
		c-0.2,0.1-0.4,0.3-0.6,0.5s-0.3,0.5-0.3,0.7c-0.1,0.3-0.1,0.6-0.2,0.9c0,0.3-0.1,0.6-0.1,0.9c0,0.3,0,0.6,0,0.8
		C584.6,124,584.6,124.4,584.6,124.8z"/>
	<path d="M592.6,121.2v1h0c0.2-0.4,0.5-0.7,0.9-0.9c0.4-0.2,0.9-0.3,1.4-0.3c0.6,0,1,0.1,1.5,0.3c0.4,0.2,0.8,0.5,1,0.8
		s0.5,0.8,0.6,1.2c0.1,0.5,0.2,0.9,0.2,1.5c0,0.5-0.1,1-0.2,1.5c-0.1,0.5-0.3,0.9-0.6,1.2s-0.6,0.6-1,0.8s-0.9,0.3-1.4,0.3
		c-0.2,0-0.4,0-0.6-0.1c-0.2,0-0.4-0.1-0.7-0.2s-0.4-0.2-0.6-0.3c-0.2-0.1-0.4-0.3-0.5-0.5h0v3.7h-1.2v-10H592.6z M596.9,123.8
		c-0.1-0.3-0.2-0.6-0.4-0.9c-0.2-0.3-0.4-0.5-0.7-0.6c-0.3-0.1-0.6-0.2-1-0.2c-0.4,0-0.7,0.1-1,0.2c-0.3,0.2-0.5,0.4-0.7,0.6
		c-0.2,0.3-0.3,0.5-0.4,0.9c-0.1,0.3-0.1,0.7-0.1,1c0,0.4,0,0.7,0.1,1c0.1,0.3,0.2,0.6,0.4,0.9s0.4,0.5,0.7,0.6
		c0.3,0.2,0.6,0.2,1.1,0.2c0.4,0,0.8-0.1,1-0.2c0.3-0.2,0.5-0.4,0.7-0.6s0.3-0.6,0.4-0.9c0.1-0.3,0.1-0.7,0.1-1
		C597,124.5,597,124.1,596.9,123.8z"/>
	<path d="M599.1,121.2h1.5l1.7,2.5l1.8-2.5h1.4l-2.5,3.3l2.8,3.9h-1.5l-2-3l-2,3h-1.4l2.7-3.8L599.1,121.2z"/>
</g>
<g>
	<path d="M578.9,147.5c-0.6,0.2-1.2,0.3-1.8,0.3c-0.7,0-1.4-0.1-2-0.4c-0.6-0.3-1.1-0.6-1.5-1.1c-0.4-0.5-0.7-1-0.9-1.6
		c-0.2-0.6-0.3-1.2-0.3-1.9c0-0.7,0.1-1.4,0.3-2.1c0.2-0.7,0.5-1.2,0.9-1.7s0.9-0.9,1.5-1.2c0.6-0.3,1.3-0.4,2.1-0.4
		c0.5,0,1.1,0.1,1.5,0.2c0.5,0.1,0.9,0.3,1.3,0.6c0.4,0.3,0.7,0.6,1,1c0.3,0.4,0.4,0.9,0.5,1.5h-1.3c-0.1-0.4-0.2-0.7-0.4-1
		s-0.4-0.5-0.7-0.7s-0.6-0.3-0.9-0.4c-0.3-0.1-0.7-0.1-1.1-0.1c-0.6,0-1.1,0.1-1.6,0.4c-0.4,0.2-0.8,0.6-1.1,1
		c-0.3,0.4-0.5,0.8-0.6,1.4c-0.1,0.5-0.2,1-0.2,1.6c0,0.5,0.1,1,0.2,1.5c0.2,0.5,0.4,0.9,0.7,1.3s0.6,0.7,1.1,0.9
		c0.4,0.2,0.9,0.3,1.5,0.3c0.5,0,1-0.1,1.4-0.3c0.4-0.2,0.7-0.4,1-0.7s0.5-0.6,0.6-1c0.1-0.4,0.2-0.8,0.2-1.3h-3.2v-1.1h4.4v5.3
		h-0.8l-0.3-1.2C580,146.9,579.5,147.3,578.9,147.5z"/>
	<path d="M588.2,147.6v-1.1h0c-0.3,0.4-0.6,0.8-1,1s-0.9,0.3-1.4,0.3c-0.5,0-0.9-0.1-1.2-0.2c-0.3-0.1-0.6-0.3-0.8-0.5
		c-0.2-0.2-0.3-0.5-0.4-0.8c-0.1-0.3-0.1-0.7-0.1-1.1v-4.8h1.2v4.9c0,0.4,0.1,0.8,0.4,1.1c0.3,0.3,0.6,0.4,1.1,0.4
		c0.4,0,0.7-0.1,0.9-0.2c0.3-0.1,0.5-0.3,0.7-0.5c0.2-0.2,0.3-0.4,0.4-0.7c0.1-0.3,0.1-0.6,0.1-0.9v-4.1h1.2v7.2H588.2z"/>
	<path d="M594.2,140.4v1h-1.4v4.5c0,0.1,0,0.3,0,0.3s0.1,0.1,0.1,0.2c0.1,0,0.2,0.1,0.3,0.1c0.1,0,0.3,0,0.5,0h0.5v1h-0.9
		c-0.3,0-0.6,0-0.8-0.1s-0.4-0.1-0.5-0.2s-0.2-0.3-0.3-0.5c-0.1-0.2-0.1-0.5-0.1-0.8v-4.6h-1.2v-1h1.2v-2.2h1.2v2.2H594.2z"/>
	<path d="M598.6,140.4v1h-1.4v4.5c0,0.1,0,0.3,0,0.3s0.1,0.1,0.1,0.2c0.1,0,0.2,0.1,0.3,0.1c0.1,0,0.3,0,0.5,0h0.5v1h-0.9
		c-0.3,0-0.6,0-0.8-0.1c-0.2,0-0.4-0.1-0.5-0.2c-0.1-0.1-0.2-0.3-0.3-0.5c-0.1-0.2-0.1-0.5-0.1-0.8v-4.6h-1.2v-1h1.2v-2.2h1.2v2.2
		H598.6z"/>
	<path d="M605,147.1c-0.5,0.4-1.2,0.6-2,0.6c-0.6,0-1.1-0.1-1.5-0.3c-0.4-0.2-0.8-0.4-1.1-0.8c-0.3-0.3-0.5-0.7-0.7-1.2
		s-0.2-1-0.2-1.5c0-0.6,0.1-1.1,0.3-1.5c0.2-0.5,0.4-0.9,0.7-1.2c0.3-0.3,0.7-0.6,1.1-0.8c0.4-0.2,0.9-0.3,1.4-0.3
		c0.6,0,1.2,0.1,1.6,0.4c0.4,0.3,0.8,0.6,1,1c0.3,0.4,0.4,0.9,0.5,1.3s0.1,0.9,0.1,1.4h-5.4c0,0.3,0,0.6,0.1,0.9s0.2,0.5,0.4,0.8
		s0.4,0.4,0.7,0.5c0.3,0.1,0.6,0.2,1,0.2c0.5,0,0.9-0.1,1.2-0.4s0.5-0.6,0.6-1.1h1.2C605.9,146.1,605.6,146.7,605,147.1z
		 M604.8,142.5c-0.1-0.3-0.3-0.5-0.4-0.7c-0.2-0.2-0.4-0.3-0.6-0.4s-0.5-0.2-0.8-0.2c-0.3,0-0.6,0.1-0.8,0.2
		c-0.2,0.1-0.5,0.3-0.6,0.4s-0.3,0.4-0.4,0.7c-0.1,0.2-0.2,0.5-0.2,0.8h4.2C604.9,143,604.9,142.7,604.8,142.5z"/>
	<path d="M608.5,140.4v1.5h0c0.3-0.6,0.6-1,1.1-1.3c0.4-0.3,1-0.4,1.6-0.4v1.3c-0.5,0-0.9,0.1-1.2,0.2c-0.3,0.1-0.6,0.3-0.8,0.6
		s-0.4,0.6-0.4,0.9s-0.1,0.8-0.1,1.2v3.2h-1.2v-7.2H608.5z"/>
</g>
<g>
	<g>
		
			<line style="fill:none;stroke:#FF6600;stroke-width:2;stroke-miterlimit:10;stroke-dasharray:6,6;" x1="571.2" y1="21.4" x2="1002.3" y2="21.4"/>
		<g>
			<polygon style="fill:#FF6600;" points="995.7,29.6 994.3,28.1 1001.6,21.4 994.3,14.7 995.7,13.2 1004.5,21.4 			"/>
		</g>
	</g>
</g>
<g>
	<g>
		
			<line style="fill:none;stroke:#FF6600;stroke-width:2;stroke-miterlimit:10;stroke-dasharray:6,6;" x1="349.8" y1="81.1" x2="401.2" y2="81.1"/>
		<g>
			<polygon style="fill:#FF6600;" points="353.8,84.4 350.4,81.1 353.8,77.7 350.9,77.7 347.5,81.1 350.9,84.4 			"/>
		</g>
		<g>
			<polygon style="fill:#FF6600;" points="397.2,84.4 400.6,81.1 397.2,77.7 400.1,77.7 403.5,81.1 400.1,84.4 			"/>
		</g>
	</g>
</g>
<g>
	<g>
		
			<line style="fill:none;stroke:#FF6600;stroke-width:2;stroke-miterlimit:10;stroke-dasharray:6,6;" x1="577.8" y1="81.1" x2="603.2" y2="81.1"/>
		<g>
			<polygon style="fill:#FF6600;" points="581.8,84.4 578.4,81.1 581.8,77.7 578.9,77.7 575.5,81.1 578.9,84.4 			"/>
		</g>
		<g>
			<polygon style="fill:#FF6600;" points="599.2,84.4 602.6,81.1 599.2,77.7 602.1,77.7 605.5,81.1 602.1,84.4 			"/>
		</g>
	</g>
</g>
<g>
	<g>
		
			<line style="fill:none;stroke:#FF6600;stroke-width:2;stroke-miterlimit:10;stroke-dasharray:6,6;" x1="438.6" y1="21.4" x2="7.5" y2="21.4"/>
		<g>
			<polygon style="fill:#FF6600;" points="14.1,13.2 15.5,14.7 8.3,21.4 15.5,28.1 14.1,29.6 5.4,21.4 			"/>
		</g>
	</g>
</g>
<line style="fill:none;stroke:#FF6600;stroke-width:2;stroke-miterlimit:10;" x1="4.5" y1="3.4" x2="4.5" y2="39.4"/>
<line style="fill:none;stroke:#FF6600;stroke-width:2;stroke-miterlimit:10;" x1="1005.5" y1="3.4" x2="1005.5" y2="39.4"/>
</svg>
