<?xml version="1.0" encoding="utf-8"?>
<!-- Generator: Adobe Illustrator 17.1.0, SVG Export Plug-In . SVG Version: 6.00 Build 0)  -->
<!DOCTYPE svg PUBLIC "-//W3C//DTD SVG 1.1//EN" "http://www.w3.org/Graphics/SVG/1.1/DTD/svg11.dtd">
<svg version="1.1" id="图层_1" xmlns="http://www.w3.org/2000/svg" xmlns:xlink="http://www.w3.org/1999/xlink" x="0px" y="0px"
	 viewBox="0 0 478.3 299.5" style="enable-background:new 0 0 478.3 299.5;" xml:space="preserve">
<g id="矩形_3_10_">
	<g>
		<rect x="1.7" y="1.1" style="fill-rule:evenodd;clip-rule:evenodd;fill:#FFFFFF;" width="475.2" height="297"/>
	</g>
	<g>
		<rect x="1.7" y="1.1" style="fill:none;stroke:#E6E6E6;stroke-miterlimit:10;" width="475.2" height="297"/>
	</g>
</g>
<g>
	<path style="fill:#FF6600;" d="M137.4,88.5c1.2,1.4,1.7,3,1.7,4.7c0.1,2.5-0.9,4-3.1,4.3c-0.6,0.1-1.1,0.2-1.3,0.2l-0.6-1.9v5.2
		h-3.3V79.5h8v3.3L137.4,88.5z M134.1,82.9V94c0.2,0,0.4,0,0.6,0c0.8-0.1,1.1-0.6,1-1.8c-0.1-0.9-0.6-2.1-1.5-3.5
		c0.6-2.7,1-4.7,1.2-5.8H134.1z M139.3,83.3v-3.4h13.1v3.4h-1.2v13.2c0.1,2.8-1.1,4.2-3.6,4.3c-1.2,0.1-2.7,0.1-4.4,0.1
		c-0.2-1.2-0.5-2.4-0.6-3.5c0.7,0.1,1.7,0.1,3.2,0.1c1.4,0.1,2.1-0.5,1.9-1.9V83.3H139.3z M139.5,84.9h7.1v11h-7.1V84.9z M143.7,88
		h-1.3v4.8h1.3V88z"/>
	<path style="fill:#FF6600;" d="M155.2,91.8V79.6h19.3v12.2h-7.8v1.3h8.1v3h-8.1v1.3h9.1v3h-22v-3h9.2v-1.3h-8.1v-3h8.1v-1.3H155.2z
		 M159,82.7v1.6h4v-1.6H159z M159,88.7h4v-1.6h-4V88.7z M170.7,82.7h-4v1.6h4V82.7z M166.7,88.7h4v-1.6h-4V88.7z"/>
	<path style="fill:#FF6600;" d="M177.4,82.7h1.8c0.1-0.4,0.2-1.1,0.3-1.9c0.1-0.9,0.1-1.5,0.2-1.9l3.4,0.3c-0.2,1.3-0.4,2.5-0.6,3.6
		h3.9c-0.1,5.6-0.6,9.6-1.8,12c1.2,1.2,2.2,2.2,3.1,3l-2.4,2.6c-0.9-0.9-1.7-1.7-2.4-2.4c-0.9,1-2.1,2.1-3.4,3.4
		c-0.7-0.9-1.5-1.8-2.3-2.7c1.4-1.1,2.5-2.1,3.3-3.2c-0.2-0.3-0.7-0.8-1.4-1.4c-0.6-0.7-1.1-1.2-1.5-1.6c0.4-2,0.8-4.1,1.2-6.3h-1.4
		V82.7z M181,91.3c0.1,0.1,0.3,0.3,0.6,0.5c0.2,0.2,0.4,0.4,0.6,0.6c0.5-1.4,0.8-3.5,1-6.3h-1.2c-0.1,0.9-0.3,2.1-0.6,3.7
		C181.1,90.5,181,91,181,91.3z M186.4,93h8.3v3.2h-8.3V93z M186.8,79.7h11.2l-0.8,8.5h2c-0.1,1.1-0.2,2.9-0.3,5.5
		c-0.1,1.5-0.1,2.5-0.1,3.2c0.1,2.8-1.3,4.1-4.4,3.9c-0.7,0.1-1.9,0.1-3.6,0.1c-0.1-0.2-0.1-0.5-0.2-0.8c-0.1-0.5-0.2-1.3-0.5-2.5
		c1.2,0,2.4,0,3.6,0c1,0.1,1.5-0.3,1.5-1.1c0-0.7,0-1.9,0.1-3.8c0.1-0.4,0.1-0.8,0.1-1h-8.6l0.8-7.9h3.6l-0.6,4.5h2.8l0.6-5.3h-7.3
		V79.7z"/>
	<path style="fill:#FF6600;" d="M201.1,82.7h1.8c0.1-0.4,0.2-1.1,0.3-1.9c0.1-0.9,0.1-1.5,0.2-1.9l3.4,0.3c-0.2,1.3-0.4,2.5-0.6,3.6
		h3.9c-0.1,5.6-0.6,9.6-1.8,12c1.2,1.2,2.2,2.2,3.1,3l-2.4,2.6c-0.9-0.9-1.7-1.7-2.4-2.4c-0.9,1-2.1,2.1-3.4,3.4
		c-0.7-0.9-1.5-1.8-2.3-2.7c1.4-1.1,2.5-2.1,3.3-3.2c-0.2-0.3-0.7-0.8-1.4-1.4c-0.6-0.7-1.1-1.2-1.5-1.6c0.4-2,0.8-4.1,1.2-6.3h-1.4
		V82.7z M204.7,91.3c0.1,0.1,0.3,0.3,0.6,0.5c0.2,0.2,0.4,0.4,0.6,0.6c0.5-1.4,0.8-3.5,1-6.3h-1.2c-0.1,0.9-0.3,2.1-0.6,3.7
		C204.9,90.5,204.8,91,204.7,91.3z M210.1,93h8.3v3.2h-8.3V93z M210.6,79.7h11.2l-0.8,8.5h2c-0.1,1.1-0.2,2.9-0.3,5.5
		c-0.1,1.5-0.1,2.5-0.1,3.2c0.1,2.8-1.3,4.1-4.4,3.9c-0.7,0.1-1.9,0.1-3.6,0.1c-0.1-0.2-0.1-0.5-0.2-0.8c-0.1-0.5-0.2-1.3-0.5-2.5
		c1.2,0,2.4,0,3.6,0c1,0.1,1.5-0.3,1.5-1.1c0-0.7,0-1.9,0.1-3.8c0.1-0.4,0.1-0.8,0.1-1h-8.6l0.8-7.9h3.6l-0.6,4.5h2.8l0.6-5.3h-7.3
		V79.7z"/>
	<path style="fill:#FF6600;" d="M225.7,100.9V90.2h9.6v10.7h-3.3v-1h-2.9v1H225.7z M227.7,79.9h17v8.8h-17V79.9z M229.1,93.3v3.6
		h2.9v-3.6H229.1z M231.6,85.6h9.2v-2.4h-9.2V85.6z M236.8,100.9V90.2h9.7v10.6h-3.3v-0.9h-3v1H236.8z M240.2,93.3v3.6h3v-3.6H240.2
		z"/>
	<path style="fill:#FF6600;" d="M257.3,88.8h-4.6v1.4h4.1v10.5h-2.9v-7.3h-1.3c-0.1,2.7-0.4,5.3-1.1,7.7c-0.2-0.1-0.5-0.3-0.8-0.6
		c-0.6-0.4-1.2-0.8-2-1.4c0.4-1.3,0.6-2.5,0.7-3.6c0.1-1.1,0.2-2.8,0.2-5.2V79.7h3.2v6h1v-6.6h2.8v6.6h0.8V88.8z M257.2,97.6v-3.2
		h1.7c-0.4-0.4-0.8-0.8-1.2-1.2c1.1-0.5,2-1,2.7-1.6h-2.5V80.6h3.3c0.2-0.6,0.3-1.2,0.4-1.9l3.8,0.2c-0.1,0.6-0.3,1.2-0.6,1.7h5.6
		v11.1H264c-0.7,0.9-1.7,1.9-3,2.8h2.5v-2h3.5v2h4v3.2h-4v3.2h-3.5v-3.2H257.2z M260.8,83.3v1.6h1.9v-1.6H260.8z M262.3,88.9
		c0.1-0.5,0.2-1,0.3-1.6h-1.8v1.6H262.3z M267.4,88.9v-1.6h-1.9c0,0.6-0.1,1.1-0.3,1.6H267.4z M267.4,83.3h-1.8v1.6h1.8V83.3z"/>
	<path style="fill:#FF6600;" d="M275.6,82.9h-2.8v-3.2h6.8V83l-2.8,3.5h2.9c0.1,4-0.5,7.1-1.6,9.3c1.1,0.9,2.5,1.4,4.4,1.5
		c0.4,0.1,1.1,0.1,1.9,0.1v-1h-4.8v-2.6h4.8V93h-4.2v-2.6h4.2v-0.8h-4.1v-2.5h4.1v-0.9h-4.8v-2.6h4.8v-0.8h-3.9v-2.6h3.9v-1.4h3.5
		v1.4h5.5v3.4h1.7v2.6h-1.7v3.4h-5.5v0.8h5.8V93h-5.8v0.7h6.3v2.6h-6.3v1c3.5,0,5.9,0,7.1,0c-0.1,0.3-0.2,0.7-0.5,1.3
		c-0.2,0.9-0.4,1.5-0.5,1.8c-4.4,0-7.9,0-10.4-0.1c-3.5,0-5.8-0.6-7.1-1.9c-0.1,0.1-0.3,0.3-0.5,0.6c-0.8,0.9-1.5,1.6-2,2.1
		c-0.2-0.6-0.7-1.5-1.4-2.7c-0.1-0.2-0.2-0.4-0.3-0.5c0.7-0.6,1.4-1.3,1.9-2c-0.7-1.1-1.3-2.4-1.8-3.8l2.1-2.4h-1.8v-3.2L275.6,82.9
		z M274.5,89.7c0.5,1.5,0.9,2.5,1.2,3.1c0.4-1.1,0.6-2.1,0.6-3.1H274.5z M289.9,82.7h-2.1v0.8h2.1V82.7z M287.8,87.1h2.1v-0.9h-2.1
		V87.1z"/>
	<path style="fill:#FF6600;" d="M303.4,92.1c0.3,1.2,0.7,2.4,1,3.5c-0.6,0.4-1.3,1.1-2.3,2.1c-0.5,0.4-0.9,0.7-1.1,0.9
		c-0.2,0.2-0.5,0.5-0.8,0.8c-0.3,0.4-0.6,0.7-0.7,0.9l-2.2-2.7c0.6-0.8,0.9-1.7,0.9-2.6v-5.7h-2v-3.5h5.8v7.7
		c0.2-0.2,0.5-0.5,0.9-0.9C303,92.5,303.2,92.3,303.4,92.1z M300.2,78.7c0.1,0.1,0.2,0.3,0.4,0.5c1.2,1.5,2.1,2.8,2.7,3.8l-3.4,2
		c-0.6-1-1.5-2.5-2.9-4.5L300.2,78.7z M317.5,87.9v3.5c-1.1,1.9-2.4,3.5-4,4.9c1.5,0.6,3.2,1,5.1,1.4c-0.7,1.2-1.3,2.3-1.8,3.2
		c-2.7-0.7-4.9-1.6-6.6-2.5c-1.7,1-3.9,1.9-6.4,2.6c-0.1-0.2-0.3-0.6-0.6-1c-0.2-0.4-0.7-1.1-1.3-2c2-0.5,3.7-1.1,5.1-1.8
		c-1.1-0.9-2-2.1-3-3.5l2.1-1.5h-2.7v-3.3H317.5z M316.9,83.8h1.9c-0.2,1.1-0.5,2.2-0.6,3.2c-0.4,0.1-1.3,0.1-2.9,0.1
		c-2-0.1-3-0.9-3-2.5v-1.8h-3.5c0,2-1.3,3.7-3.8,5c-0.4-0.4-1.2-1.3-2.5-2.6c1.9-0.9,2.8-2,2.8-3.5c0-0.6,0-1.3,0-2.1h10.7v3.3
		C315.9,83.6,316.2,83.9,316.9,83.8z M307.3,91.2c0.9,1.3,1.9,2.4,3.1,3.2c0.9-0.6,1.9-1.7,3.1-3.2H307.3z"/>
	<path style="fill:#FF6600;" d="M320.3,83.3v-3.4h7.1v3.4h-1.9v4.3h1.8V91h-1.8v4.4c0.8-0.1,1.6-0.2,2.3-0.4c0,0.9,0,1.7,0,2.4
		c3.4-2.1,5.1-5.2,5-9.3c0-0.6,0-1.5,0.1-2.8c0-0.6,0-1,0-1.2h3.6c0,0.9-0.1,2.1-0.2,3.7c0,1.5-0.2,2.8-0.5,4.1h1.5v4.8
		c0,0.7,0.2,1.1,0.7,1c0.5,0.1,0.8-0.3,0.8-1c0.1-0.4,0.2-1,0.3-1.8c0.1-0.4,0.1-0.7,0.1-0.8c1.5,0.6,2.6,0.9,3.2,1.1
		c-0.1,0.2-0.1,0.5-0.2,0.8c-0.1,0.4-0.2,1.1-0.5,2.3c-0.2,1.5-1.2,2.3-3,2.3h-1.9c-2,0-3-1-3-3v-1.7c-0.9,1.5-2.6,3.2-5.3,5.1
		c-0.6-0.7-1.3-1.6-2.2-2.7c-0.6,0.1-1.6,0.3-3,0.6c-1.4,0.2-2.4,0.4-3.1,0.6l-0.6-3.6c0.4,0,1.1-0.1,1.9-0.2
		c-0.6,0.1-0.5,0.1,0.2,0V91h-1.6v-3.3h1.6v-4.3H320.3z M327.9,93.6v-14h13.4v13.8h-3.6V83h-6.2v10.6H327.9z"/>
	<path style="fill:#FF6600;" d="M352.4,88.9v-3.5h4.2c0.1-2.5,0.1-4.6,0.1-6.5h3.8c0,1.2-0.1,3.4-0.2,6.5h5.4v3.5h-5.1
		c0.7,3.6,2.6,6.5,5.8,8.7c-1.1,1.2-1.9,2.3-2.4,3.2c-2.7-2-4.4-4.4-5.3-7.2c-0.6,2.3-2.3,4.8-5,7.4c-0.6-0.8-1.1-1.6-1.8-2.5v2.5
		h-3.6v-6.2c-0.5,0.4-1.3,1-2.4,1.9c-0.7,0.6-1.3,1-1.6,1.2l-0.7-4.5c1.1-0.6,2.7-1.7,4.7-3.2v-1.6l-2.8,0.8c-0.7-2.7-1.3-5-1.9-7
		l3-0.9c0.1,0.5,0.3,1.2,0.6,2c0.6,1.9,1,3.3,1.2,4.3v-8.9h3.6v18.3c2.5-2.2,4-5,4.5-8.3H352.4z M363.2,79.6
		c0.3,0.4,0.7,0.8,1.1,1.4c0.6,0.7,1.1,1.3,1.4,1.8l-2.7,1.9c-0.6-1-1.4-2.1-2.4-3.4L363.2,79.6z"/>
	<path style="fill:#FF6600;" d="M129.7,131.5c4.1-3.6,6.1-9.6,5.9-18h-4.5v-1.3h16.2v1.5l-2.5,4.8h4.5v1.3c-1.4,3.4-3.1,6.1-5.1,8
		c1.6,1.4,4.2,2.5,7.8,3.4c-0.2,0.2-0.4,0.6-0.6,1c-0.1,0.1-0.1,0.2-0.2,0.3c-3.5-1.2-6.2-2.5-8-3.9c-1.7,1.4-4.3,2.8-7.8,4.3
		c-0.1-0.1-0.2-0.3-0.4-0.6c-0.2-0.2-0.3-0.5-0.5-0.7c3.3-1.1,5.9-2.4,7.6-3.8c-2.2-2.1-4.1-5.2-5.6-9.2c-0.4,5.7-2.4,10.3-5.8,13.9
		C130.7,132.2,130.3,131.8,129.7,131.5z M143.5,118.5l2.6-5h-9c0,0.3,0,0.7-0.1,1.3c0,0.6,0,1-0.1,1.3c1.8,5,3.9,8.5,6.4,10.8
		c1.9-1.7,3.4-4,4.6-7.1h-4.5V118.5z"/>
	<path style="fill:#FF6600;" d="M154.2,117.2c0.3-0.8,0.6-1.5,1.1-2.1c0.5-0.6,1.1-1.1,1.9-1.4s1.7-0.5,2.6-0.5
		c0.8,0,1.5,0.1,2.2,0.4c0.7,0.2,1.3,0.6,1.8,1c0.5,0.4,0.9,1,1.2,1.6s0.5,1.4,0.5,2.2c0,0.8-0.1,1.6-0.4,2.2
		c-0.3,0.6-0.6,1.1-1.1,1.6c-0.4,0.5-0.9,0.9-1.5,1.3c-0.6,0.4-1.1,0.8-1.7,1.1s-1.1,0.8-1.7,1.2s-1,0.9-1.4,1.5h7.9v2.9h-12.2
		c0-1,0.1-1.8,0.4-2.5c0.3-0.7,0.7-1.4,1.1-1.9c0.5-0.6,1-1.1,1.7-1.6c0.6-0.5,1.3-1,2-1.5c0.4-0.3,0.8-0.5,1.2-0.8
		c0.4-0.3,0.8-0.6,1.1-0.9c0.3-0.3,0.6-0.7,0.9-1.1c0.2-0.4,0.3-0.8,0.3-1.4c0-0.8-0.2-1.4-0.7-1.9c-0.5-0.5-1.1-0.7-1.8-0.7
		c-0.5,0-0.9,0.1-1.2,0.3s-0.6,0.5-0.8,0.9s-0.4,0.8-0.4,1.2c-0.1,0.5-0.1,0.9-0.1,1.3h-3.2C153.8,118.9,153.9,118,154.2,117.2z"/>
	<path style="fill:#FF6600;" d="M167.1,117.6c0.3-1.1,0.8-2,1.3-2.6c0.6-0.7,1.2-1.1,1.9-1.4s1.5-0.4,2.3-0.4c0.8,0,1.6,0.1,2.4,0.4
		c0.7,0.3,1.4,0.8,1.9,1.4c0.6,0.7,1,1.5,1.3,2.6c0.3,1.1,0.5,2.5,0.5,4.1c0,1.7-0.2,3.1-0.5,4.2c-0.3,1.1-0.8,2-1.3,2.7
		c-0.6,0.7-1.2,1.1-1.9,1.4c-0.7,0.3-1.5,0.4-2.4,0.4c-0.8,0-1.6-0.1-2.3-0.4s-1.4-0.8-1.9-1.4c-0.6-0.7-1-1.6-1.3-2.7
		c-0.3-1.1-0.5-2.5-0.5-4.2C166.7,120.1,166.8,118.7,167.1,117.6z M170.1,123.4c0,0.7,0.1,1.3,0.3,1.9c0.2,0.6,0.4,1.2,0.8,1.6
		c0.4,0.4,0.9,0.7,1.6,0.7c0.7,0,1.2-0.2,1.6-0.7c0.4-0.4,0.6-1,0.8-1.6c0.2-0.6,0.3-1.3,0.3-1.9c0-0.7,0-1.2,0-1.7c0-0.3,0-0.6,0-1
		c0-0.4,0-0.8-0.1-1.2c-0.1-0.4-0.1-0.9-0.2-1.3c-0.1-0.4-0.3-0.8-0.5-1.1c-0.2-0.3-0.5-0.6-0.8-0.8c-0.3-0.2-0.7-0.3-1.2-0.3
		c-0.5,0-0.8,0.1-1.2,0.3c-0.3,0.2-0.6,0.5-0.8,0.8s-0.4,0.7-0.5,1.1c-0.1,0.4-0.2,0.8-0.2,1.3c0,0.4-0.1,0.8-0.1,1.2
		c0,0.4,0,0.7,0,1C170,122.2,170,122.7,170.1,123.4z"/>
	<path style="fill:#FF6600;" d="M185.3,130.1v-10.8h-4.2v-2.5c0.6,0,1.2,0,1.7-0.1c0.5-0.1,1-0.3,1.5-0.5c0.4-0.3,0.8-0.6,1.1-1
		s0.5-1,0.6-1.6h2.7v16.6H185.3z"/>
	<path style="fill:#FF6600;" d="M197.6,116.2l-0.7,3.8l0,0c0.5-0.5,1-0.8,1.5-1c0.5-0.2,1.1-0.3,1.8-0.3c0.8,0,1.6,0.2,2.2,0.5
		c0.6,0.3,1.2,0.7,1.6,1.2s0.8,1.1,1,1.8c0.2,0.7,0.3,1.4,0.3,2.2c0,0.9-0.2,1.7-0.5,2.4c-0.3,0.7-0.8,1.4-1.3,1.9
		c-0.6,0.5-1.2,1-2,1.2c-0.7,0.3-1.5,0.4-2.4,0.4c-0.8,0-1.6-0.1-2.3-0.3c-0.7-0.2-1.4-0.5-2-1s-1-1-1.4-1.7
		c-0.3-0.7-0.5-1.4-0.5-2.3h3.4c0.1,0.8,0.4,1.4,0.9,1.8c0.5,0.5,1.1,0.7,1.9,0.7c0.4,0,0.8-0.1,1.2-0.3c0.4-0.2,0.7-0.4,0.9-0.7
		c0.2-0.3,0.4-0.6,0.6-1s0.2-0.8,0.2-1.2c0-0.4-0.1-0.8-0.2-1.2c-0.1-0.4-0.3-0.7-0.6-1s-0.6-0.5-0.9-0.7c-0.3-0.2-0.8-0.2-1.2-0.2
		c-0.6,0-1.1,0.1-1.5,0.3c-0.4,0.2-0.7,0.6-1.1,1h-3l1.6-9.2h9.3v2.8H197.6z"/>
	<path style="fill:#FF6600;" d="M227.4,118.8v3.2h-6.1v3.1h7.5v3.4h-7.5v4.2h-3.8v-4.2h-10.8v-3.4h3.1v-5.2
		c-0.4,0.4-0.9,0.8-1.4,1.4c-0.2-0.3-0.4-0.7-0.6-1.3c-0.6-1.1-1-1.8-1.3-2.3c2.3-1.9,4.1-4.3,5.3-7.2l4.4,0.4
		c-0.4,0.6-0.7,1.3-1.1,1.9h13.2v3.3h-6.9v2.7H227.4z M212.9,116.1c-0.6,0.9-1.3,1.8-2.1,2.7h6.7v-2.7H212.9z M213.4,122.1v3.1h4.1
		v-3.1H213.4z"/>
	<path style="fill:#FF6600;" d="M236.8,119.4v-3.5h3.7c0-0.7,0-1.7,0.1-3c0-1.1,0-1.9,0-2.3h3.7c0,1.1-0.1,2.7-0.2,5
		c0.1-1.7,0.1-1.6,0,0.3h3.9c-1.4-1.2-2.3-2.1-2.9-2.5l2.3-2.4c0.4,0.3,0.9,0.7,1.7,1.3c0.9,0.7,1.6,1.2,1.9,1.5l-1.9,2.1h2.9v3.5
		h-8c-0.2,5.3-2,9.8-5.5,13.6c-0.8-0.8-1.6-1.6-2.5-2.5v2.2h-3.6v-10.1c-0.2,0.2-0.5,0.6-0.8,1.2c-0.4,0.5-0.7,0.9-0.9,1.2
		c-0.2-1.9-0.4-3.6-0.6-5.2c1.9-2.7,3.3-5.8,4.4-9.3l3.8,1.1c-0.6,1.7-1.4,3.4-2.2,5v13.1c2.7-2.8,4.1-6.2,4.3-10.3H236.8z
		 M243.9,120.6h3.7v7.3c-0.1,0.6,0.1,0.8,0.6,0.7c0.4,0.1,0.7-0.2,0.7-0.8c0.2-1.2,0.3-2.5,0.4-3.8c0.2,0.1,0.6,0.2,1.2,0.4
		c1,0.4,1.7,0.7,2.1,0.8c-0.2,1.9-0.4,3.3-0.6,4.4c-0.3,1.7-1.4,2.6-3.3,2.5h-1.8c-2,0.1-3-1-3-3.1V120.6z"/>
	<path style="fill:#FF6600;" d="M260.4,132.7h-3.6v-10c-0.2,0.2-0.5,0.6-0.8,1.1c-0.5,0.7-0.9,1.2-1.2,1.6c-0.1-0.2-0.1-0.7-0.2-1.2
		c-0.1-0.8-0.4-2.1-0.7-3.9c2.1-2.7,3.8-5.9,5.1-9.7l3.8,1.4c-0.6,1.7-1.4,3.3-2.3,4.9v6.7c1.5-0.8,3-1.6,4.3-2.4v-10.3h4v7.5
		c1.9-1.5,3.6-3.1,5-4.8l2.9,2.9c-2.2,2.4-4.9,4.7-7.9,6.9v4.5c-0.1,0.8,0.3,1.2,1.2,1.1h0.7c1.1,0.1,1.6-0.4,1.7-1.4
		c0-0.1,0-0.4,0.1-0.7c0.1-1.2,0.2-2.1,0.3-2.8c1.7,0.6,3,1.1,3.9,1.4c0,0.2,0,0.4-0.1,0.7c-0.2,1.6-0.5,2.8-0.7,3.6
		c-0.2,1.9-1.7,2.7-4.5,2.6h-2.5c-2.9,0.2-4.3-1.1-4.1-4v-2.5c-0.4,0.3-1.1,0.7-1.9,1.1c-0.2,0.1-0.4,0.2-0.6,0.3
		c-0.7-1.2-1.3-2.3-1.9-3.1V132.7z"/>
	<path style="fill:#FF6600;" d="M280.9,114.6h-2.8v-3.2h6.8v3.2l-2.8,3.5h2.9c0.1,4-0.5,7.1-1.6,9.3c1.1,0.9,2.5,1.4,4.4,1.5
		c0.4,0.1,1.1,0.1,1.9,0.1v-1h-4.8v-2.6h4.8v-0.7h-4.2v-2.6h4.2v-0.8h-4.1v-2.5h4.1v-0.9h-4.8v-2.6h4.8v-0.8h-3.9v-2.6h3.9v-1.4h3.5
		v1.4h5.5v3.4h1.7v2.6h-1.7v3.4h-5.5v0.8h5.8v2.6h-5.8v0.7h6.3v2.6h-6.3v1c3.5,0,5.9,0,7.1,0c-0.1,0.3-0.2,0.7-0.5,1.3
		c-0.2,0.9-0.4,1.5-0.5,1.8c-4.4,0-7.9,0-10.4-0.1c-3.5,0-5.8-0.7-7.1-1.9c-0.1,0.1-0.3,0.3-0.5,0.6c-0.8,0.9-1.5,1.6-2,2.1
		c-0.2-0.6-0.7-1.5-1.4-2.7c-0.1-0.2-0.2-0.4-0.3-0.5c0.7-0.6,1.4-1.3,1.9-2c-0.7-1.1-1.3-2.4-1.8-3.8l2.1-2.4h-1.8v-3.2
		L280.9,114.6z M279.9,121.3c0.5,1.5,0.9,2.5,1.2,3.1c0.4-1.1,0.6-2.1,0.6-3.1H279.9z M295.3,114.4h-2.1v0.8h2.1V114.4z
		 M293.1,118.7h2.1v-0.9h-2.1V118.7z"/>
	<path style="fill:#FF6600;" d="M309,123.4c0.3,1.4,0.6,2.5,1,3.5c-1.4,1.3-2.6,2.4-3.6,3.2c-0.5,0.5-1,1-1.5,1.6l-2.2-2.5
		c0.6-0.7,0.9-1.5,0.9-2.5v-5.5h-2.1v-3.5h5.7v7.5c0.1-0.2,0.4-0.5,0.7-0.8C308.4,124,308.7,123.7,309,123.4z M305.3,110.6
		c0.5,0.7,1.2,1.8,2.2,3.2c0.3,0.4,0.6,0.8,0.7,1l-3.2,1.9c-0.8-1.5-1.7-3-2.8-4.5L305.3,110.6z M323.3,113.2
		c-1,5.8-2.6,10-4.8,12.6c1.1,1.1,3,2.2,5.6,3.4c-0.3,0.4-0.9,1.3-1.7,2.6c-0.2,0.4-0.4,0.6-0.5,0.7c-2.5-1.2-4.5-2.6-6.1-4
		c-1.6,1.4-3.7,2.8-6.3,4.3c-0.7-1.3-1.4-2.4-2.1-3.2c2.4-1.3,4.4-2.6,5.9-3.9c-2.2-2.8-3.8-6.8-4.8-12l3.5-0.8
		c0.9,4.6,2.2,8,3.9,10.1c1.8-2.2,3.1-5.7,3.9-10.6L323.3,113.2z M316.2,110.5c0.9,1.9,1.6,3.8,2.1,5.6l-3.5,1.1
		c-0.3-1-0.8-2.4-1.5-4.4c-0.2-0.6-0.3-1.1-0.5-1.4L316.2,110.5z"/>
</g>
<g>
	<path style="fill:#666666;" d="M129.7,204.6h1.3v-1.2h-1.5v-0.7h1.9c0.3-0.6,0.5-1.2,0.7-1.8l0.7,0.2c-0.3,0.7-0.6,1.2-0.7,1.6h1
		v0.7h-1.5v1.2h1.3v0.7h-1.3v0.8c0,0.2,0,0.3,0,0.4h1.5v0.7h-1.5c-0.1,1.3-0.6,2.5-1.6,3.4c-0.2-0.2-0.4-0.4-0.6-0.5
		c0.9-0.7,1.4-1.6,1.5-2.9h-1.4v-0.7h1.5c0-0.1,0-0.3,0-0.4v-0.8h-1.3V204.6z M129.8,201.2l0.6-0.2c0.3,0.5,0.5,1,0.7,1.4l-0.6,0.3
		C130.2,202.1,130,201.6,129.8,201.2z M135.1,202.2h-1.9v-0.7h2.6v7.7c0.1,0.9-0.4,1.3-1.3,1.3c-0.2,0-0.6,0-1,0c0,0,0-0.1,0-0.2
		c0-0.3-0.1-0.5-0.1-0.7c0.3,0,0.6,0,1,0c0.5,0,0.7-0.2,0.7-0.6v-2.1c-0.2,0.2-0.6,0.4-1,0.7s-0.8,0.6-1,0.7l-0.4-0.7
		c0.5-0.3,1.3-0.8,2.4-1.6V202.2z M133.2,203.4l0.7-0.2c0.2,0.5,0.4,1.2,0.7,2.1l-0.7,0.3C133.7,204.9,133.5,204.2,133.2,203.4z
		 M138.1,202.2h-2.1v-0.7h2.8v7.8c0.1,0.9-0.4,1.3-1.3,1.3c-0.4,0-0.8,0-1,0c0-0.1-0.1-0.3-0.1-0.6c0,0.1,0,0,0-0.2
		c0.3,0,0.7,0,1.1,0c0.5,0.1,0.7-0.2,0.7-0.6v-2.2c-0.8,0.6-1.4,1-1.7,1.2l-0.4-0.7c0.7-0.4,1.4-0.9,2.1-1.4V202.2z M136.4,203.3
		l0.7-0.2c0,0.2,0.1,0.5,0.3,1c0.2,0.5,0.3,0.9,0.3,1.2l-0.7,0.2C136.8,204.7,136.6,204,136.4,203.3z"/>
	<path style="fill:#666666;" d="M142.5,206.7l0.7,0.5c-0.9,1.2-1.7,2.2-2.6,3c-0.2-0.2-0.4-0.3-0.6-0.5
		C140.9,208.8,141.7,207.8,142.5,206.7z M141.3,201.7c1.8,0,4.2-0.2,7.2-0.5l0.3,0.8c-2.5,0.2-4.7,0.3-6.7,0.4l-0.4,2.9h2.9V203h0.8
		v2.3h3.9v0.7h-3.9v3.1c0.1,0.9-0.4,1.4-1.3,1.3c-0.6,0-1.1,0-1.3,0c-0.1-0.3-0.1-0.6-0.2-0.9c0.7,0.1,1.1,0.1,1.3,0.1
		c0.5,0,0.7-0.2,0.7-0.7v-3h-3.9L141.3,201.7z M147.2,206.7c0.9,0.9,1.8,1.9,2.6,2.9l-0.6,0.6c-0.7-0.9-1.6-1.9-2.6-3L147.2,206.7z"
		/>
</g>
<g>
	<path style="fill:#666666;" d="M153.1,210.5l2.6-8.1h0.6l-2.6,8.1H153.1z"/>
	<path style="fill:#666666;" d="M159.9,203.4c0.1-0.4,0.3-0.7,0.5-0.9s0.5-0.5,0.9-0.6s0.7-0.2,1.2-0.2c0.4,0,0.7,0.1,1,0.2
		c0.3,0.1,0.6,0.3,0.8,0.5s0.4,0.5,0.6,0.8c0.1,0.3,0.2,0.6,0.2,1c0,0.4-0.1,0.7-0.2,1c-0.1,0.3-0.3,0.5-0.5,0.8
		c-0.2,0.2-0.4,0.4-0.7,0.6c-0.2,0.2-0.5,0.4-0.8,0.5c-0.3,0.2-0.5,0.3-0.8,0.5c-0.3,0.2-0.5,0.3-0.7,0.5c-0.2,0.2-0.4,0.4-0.6,0.6
		c-0.2,0.2-0.3,0.4-0.3,0.7h4.3v0.9h-5.5c0-0.5,0.1-0.9,0.3-1.3c0.1-0.4,0.3-0.7,0.5-0.9c0.2-0.3,0.5-0.5,0.7-0.7
		c0.3-0.2,0.6-0.4,0.8-0.6c0.4-0.2,0.7-0.4,0.9-0.6c0.3-0.2,0.5-0.4,0.7-0.6c0.2-0.2,0.3-0.4,0.4-0.6c0.1-0.2,0.1-0.5,0.1-0.8
		c0-0.2,0-0.4-0.1-0.6c-0.1-0.2-0.2-0.3-0.4-0.5c-0.1-0.1-0.3-0.2-0.5-0.3c-0.2-0.1-0.4-0.1-0.6-0.1c-0.3,0-0.5,0.1-0.8,0.2
		c-0.2,0.1-0.4,0.3-0.5,0.5s-0.2,0.4-0.3,0.7c-0.1,0.2-0.1,0.5-0.1,0.8h-1C159.7,204.2,159.8,203.8,159.9,203.4z"/>
	<path style="fill:#666666;" d="M166.4,205c0-0.3,0.1-0.7,0.1-1s0.2-0.6,0.3-0.9c0.1-0.3,0.3-0.5,0.5-0.7s0.5-0.4,0.8-0.5
		c0.3-0.1,0.7-0.2,1.1-0.2s0.8,0.1,1.1,0.2c0.3,0.1,0.6,0.3,0.8,0.5s0.4,0.5,0.5,0.7s0.2,0.6,0.3,0.9s0.1,0.6,0.1,1c0,0.3,0,0.7,0,1
		c0,0.3,0,0.6,0,1c0,0.3-0.1,0.7-0.1,1c-0.1,0.3-0.2,0.6-0.3,0.9s-0.3,0.5-0.5,0.7c-0.2,0.2-0.5,0.4-0.8,0.5
		c-0.3,0.1-0.7,0.2-1.1,0.2c-0.4,0-0.8-0.1-1.1-0.2c-0.3-0.1-0.6-0.3-0.8-0.5c-0.2-0.2-0.4-0.5-0.5-0.7c-0.1-0.3-0.2-0.6-0.3-0.9
		c-0.1-0.3-0.1-0.6-0.1-1c0-0.3,0-0.7,0-1C166.3,205.6,166.3,205.3,166.4,205z M167.4,207c0,0.4,0.1,0.8,0.2,1.1
		c0.1,0.3,0.3,0.6,0.5,0.9s0.6,0.4,1,0.4s0.8-0.1,1-0.4c0.2-0.2,0.4-0.5,0.5-0.9c0.1-0.3,0.2-0.7,0.2-1.1c0-0.4,0-0.7,0-1.1
		c0-0.2,0-0.4,0-0.7c0-0.2,0-0.5-0.1-0.7c0-0.2-0.1-0.5-0.2-0.7c-0.1-0.2-0.2-0.4-0.3-0.6c-0.1-0.2-0.3-0.3-0.5-0.4
		s-0.4-0.2-0.7-0.2s-0.5,0.1-0.7,0.2c-0.2,0.1-0.4,0.3-0.5,0.4c-0.1,0.2-0.2,0.4-0.3,0.6c-0.1,0.2-0.1,0.5-0.2,0.7
		c0,0.2-0.1,0.5-0.1,0.7c0,0.2,0,0.5,0,0.7C167.4,206.2,167.4,206.6,167.4,207z"/>
	<path style="fill:#666666;" d="M175.7,210.1v-6h-2.2v-0.8c0.3,0,0.6,0,0.8-0.1c0.3,0,0.5-0.1,0.7-0.2c0.2-0.1,0.4-0.3,0.6-0.5
		s0.3-0.5,0.3-0.8h0.8v8.4H175.7z"/>
	<path style="fill:#666666;" d="M181.2,202.7l-0.5,2.4l0,0c0.2-0.2,0.4-0.4,0.7-0.5c0.3-0.1,0.6-0.1,0.9-0.1c0.4,0,0.7,0.1,1.1,0.2
		c0.3,0.1,0.6,0.3,0.9,0.5c0.2,0.2,0.4,0.5,0.6,0.9s0.2,0.8,0.2,1.3c0,0.4-0.1,0.7-0.2,1c-0.1,0.3-0.3,0.6-0.6,0.9
		c-0.2,0.3-0.6,0.5-0.9,0.6s-0.8,0.2-1.3,0.2c-0.4,0-0.7-0.1-1-0.2c-0.3-0.1-0.6-0.3-0.8-0.5c-0.2-0.2-0.4-0.5-0.6-0.8
		s-0.2-0.6-0.2-1h1c0,0.2,0.1,0.4,0.2,0.6c0.1,0.2,0.2,0.3,0.4,0.5s0.3,0.2,0.5,0.3s0.4,0.1,0.7,0.1c0.2,0,0.5,0,0.7-0.1
		s0.4-0.2,0.6-0.4s0.3-0.4,0.4-0.6c0.1-0.2,0.1-0.5,0.1-0.9c0-0.3,0-0.5-0.1-0.8c-0.1-0.2-0.2-0.4-0.4-0.6c-0.2-0.2-0.4-0.3-0.6-0.4
		c-0.2-0.1-0.5-0.1-0.8-0.1c-0.3,0-0.6,0.1-0.9,0.2c-0.3,0.1-0.5,0.3-0.7,0.6l-0.9,0l0.8-4.4h4.2v0.9H181.2z"/>
	<path style="fill:#666666;" d="M187.9,208.7v1.3h-1.3v-1.3H187.9z"/>
	<path style="fill:#666666;" d="M191.1,202.7l-0.5,2.4l0,0c0.2-0.2,0.4-0.4,0.7-0.5c0.3-0.1,0.6-0.1,0.9-0.1c0.4,0,0.7,0.1,1.1,0.2
		c0.3,0.1,0.6,0.3,0.9,0.5c0.2,0.2,0.4,0.5,0.6,0.9s0.2,0.8,0.2,1.3c0,0.4-0.1,0.7-0.2,1c-0.1,0.3-0.3,0.6-0.6,0.9
		c-0.2,0.3-0.6,0.5-0.9,0.6s-0.8,0.2-1.3,0.2c-0.4,0-0.7-0.1-1-0.2c-0.3-0.1-0.6-0.3-0.8-0.5c-0.2-0.2-0.4-0.5-0.6-0.8
		s-0.2-0.6-0.2-1h1c0,0.2,0.1,0.4,0.2,0.6c0.1,0.2,0.2,0.3,0.4,0.5s0.3,0.2,0.5,0.3s0.4,0.1,0.7,0.1c0.2,0,0.5,0,0.7-0.1
		s0.4-0.2,0.6-0.4s0.3-0.4,0.4-0.6c0.1-0.2,0.1-0.5,0.1-0.9c0-0.3,0-0.5-0.1-0.8c-0.1-0.2-0.2-0.4-0.4-0.6c-0.2-0.2-0.4-0.3-0.6-0.4
		c-0.2-0.1-0.5-0.1-0.8-0.1c-0.3,0-0.6,0.1-0.9,0.2c-0.3,0.1-0.5,0.3-0.7,0.6l-0.9,0l0.8-4.4h4.2v0.9H191.1z"/>
	<path style="fill:#666666;" d="M197.9,208.7v1.3h-1.3v-1.3H197.9z"/>
	<path style="fill:#666666;" d="M199.5,203.4c0.1-0.4,0.3-0.7,0.5-0.9s0.5-0.5,0.9-0.6s0.7-0.2,1.2-0.2c0.4,0,0.7,0.1,1,0.2
		c0.3,0.1,0.6,0.3,0.8,0.5s0.4,0.5,0.6,0.8c0.1,0.3,0.2,0.6,0.2,1c0,0.4-0.1,0.7-0.2,1c-0.1,0.3-0.3,0.5-0.5,0.8
		c-0.2,0.2-0.4,0.4-0.7,0.6c-0.2,0.2-0.5,0.4-0.8,0.5c-0.3,0.2-0.5,0.3-0.8,0.5c-0.3,0.2-0.5,0.3-0.7,0.5c-0.2,0.2-0.4,0.4-0.6,0.6
		c-0.2,0.2-0.3,0.4-0.3,0.7h4.3v0.9h-5.5c0-0.5,0.1-0.9,0.3-1.3c0.1-0.4,0.3-0.7,0.5-0.9c0.2-0.3,0.5-0.5,0.7-0.7
		c0.3-0.2,0.6-0.4,0.8-0.6c0.4-0.2,0.7-0.4,0.9-0.6c0.3-0.2,0.5-0.4,0.7-0.6c0.2-0.2,0.3-0.4,0.4-0.6c0.1-0.2,0.1-0.5,0.1-0.8
		c0-0.2,0-0.4-0.1-0.6c-0.1-0.2-0.2-0.3-0.4-0.5c-0.1-0.1-0.3-0.2-0.5-0.3c-0.2-0.1-0.4-0.1-0.6-0.1c-0.3,0-0.5,0.1-0.8,0.2
		c-0.2,0.1-0.4,0.3-0.5,0.5s-0.2,0.4-0.3,0.7c-0.1,0.2-0.1,0.5-0.1,0.8h-1C199.4,204.2,199.4,203.8,199.5,203.4z"/>
	<path style="fill:#666666;" d="M206.4,202.9c0.1-0.3,0.3-0.5,0.5-0.7s0.5-0.3,0.8-0.4s0.6-0.1,0.9-0.1c0.5,0,0.9,0.1,1.2,0.2
		c0.3,0.1,0.6,0.3,0.8,0.5c0.2,0.2,0.4,0.4,0.4,0.7c0.1,0.3,0.1,0.5,0.1,0.8c0,0.4-0.1,0.7-0.3,1c-0.2,0.3-0.5,0.5-0.8,0.7
		c0.5,0.2,0.9,0.4,1.1,0.8s0.4,0.8,0.4,1.3c0,0.4-0.1,0.8-0.2,1.1c-0.1,0.3-0.3,0.6-0.6,0.8c-0.2,0.2-0.5,0.4-0.9,0.5
		c-0.3,0.1-0.7,0.2-1.1,0.2c-0.4,0-0.8-0.1-1.1-0.2c-0.3-0.1-0.7-0.3-0.9-0.5s-0.5-0.5-0.6-0.8c-0.1-0.3-0.2-0.7-0.2-1.1
		c0-0.5,0.1-0.9,0.4-1.3c0.3-0.4,0.6-0.6,1.1-0.8c-0.4-0.1-0.6-0.4-0.9-0.7c-0.2-0.3-0.3-0.7-0.3-1.1
		C206.2,203.4,206.3,203.1,206.4,202.9z M207.5,208.9c0.3,0.3,0.8,0.4,1.3,0.4c0.3,0,0.5,0,0.7-0.1s0.4-0.2,0.5-0.3s0.3-0.3,0.4-0.5
		c0.1-0.2,0.1-0.4,0.1-0.7c0-0.2,0-0.4-0.1-0.6c-0.1-0.2-0.2-0.4-0.4-0.5s-0.3-0.3-0.6-0.3c-0.2-0.1-0.4-0.1-0.7-0.1
		c-0.2,0-0.5,0-0.7,0.1c-0.2,0.1-0.4,0.2-0.6,0.3c-0.2,0.1-0.3,0.3-0.4,0.5c-0.1,0.2-0.1,0.4-0.1,0.7
		C207,208.2,207.2,208.6,207.5,208.9z M207.4,204.4c0.1,0.2,0.2,0.3,0.3,0.4c0.1,0.1,0.3,0.2,0.5,0.2c0.2,0.1,0.4,0.1,0.6,0.1
		c0.4,0,0.7-0.1,1-0.4c0.3-0.2,0.4-0.6,0.4-1s-0.1-0.8-0.4-1s-0.6-0.3-1-0.3c-0.2,0-0.4,0-0.6,0.1s-0.3,0.1-0.5,0.2
		c-0.1,0.1-0.2,0.2-0.3,0.4s-0.1,0.3-0.1,0.6C207.3,204.1,207.3,204.3,207.4,204.4z"/>
</g>
<g>
	<path style="fill:#FF6600;" d="M132.8,188.6c0,1-0.3,1.5-1,1.5c-0.3,0-0.6,0-1,0c0,0,0-0.1,0-0.1c0-0.3-0.1-0.5-0.1-0.7
		c0.1,0,0.2,0,0.3,0c0.2,0,0.4,0,0.5,0c0.4,0,0.5-0.3,0.5-0.8c0-0.7-0.3-1.5-1-2.4c0.2-0.6,0.5-1.5,0.8-2.8h-1.3v8.5h-0.7v-9.2h2.8
		v0.7c-0.5,1.5-0.8,2.4-0.9,2.7C132.5,187,132.8,187.8,132.8,188.6z M133.2,182.8h6.1v0.7h-0.9v6.7c0.1,1-0.4,1.5-1.4,1.4
		c-0.3,0-0.8,0-1.5,0c0-0.1-0.1-0.3-0.1-0.5c-0.1-0.2-0.1-0.3-0.1-0.3c0.4,0,0.9,0,1.5,0c0.5,0,0.8-0.2,0.8-0.7v-6.7h-4.5V182.8z
		 M133.5,184.9h3.1v4.3h-3.1V184.9z M134.2,185.6v2.9h1.6v-2.9H134.2z"/>
	<path style="fill:#FF6600;" d="M140.6,188.7h4v-1.2h-3.6v-4.9h7.9v4.9h-3.6v1.2h4v0.7h-4v1.3h4.6v0.7H140v-0.7h4.6v-1.3h-4V188.7z
		 M141.7,183.3v1.5h2.8v-1.5H141.7z M141.7,185.4v1.4h2.8v-1.4H141.7z M148.1,183.3h-2.8v1.5h2.8V183.3z M145.3,185.4v1.4h2.8v-1.4
		H145.3z"/>
	<path style="fill:#FF6600;" d="M154.5,190.3l-0.6,0.5c-0.2-0.1-0.4-0.3-0.7-0.7c-0.1-0.1-0.2-0.2-0.3-0.3c-0.4,0.6-1,1.2-1.9,2
		c-0.1-0.2-0.3-0.4-0.5-0.7c0.7-0.5,1.3-1.1,1.8-1.9c-0.2-0.1-0.4-0.4-0.7-0.7c-0.3-0.3-0.5-0.5-0.7-0.7c0.2-0.6,0.4-1.6,0.7-3h-0.9
		v-0.7h1c0.1-0.4,0.1-1,0.2-1.7c0-0.2,0-0.3,0-0.4l0.8,0.1c0,0.3-0.1,0.7-0.2,1.2c-0.1,0.4-0.1,0.6-0.1,0.8h1.8v0.7
		c-0.2,1.8-0.5,3.2-1,4.1C153.7,189.5,154.1,189.9,154.5,190.3z M153.5,185h-1.2c-0.2,1.1-0.4,2-0.6,2.8c0.2,0.1,0.4,0.3,0.7,0.6
		c0.1,0.1,0.2,0.2,0.3,0.3C153.1,187.7,153.4,186.5,153.5,185z M154.3,188.7h4.4v0.7h-4.4V188.7z M156.1,183.8l-0.2,2.8h2.5l0.3-3.5
		h-4.1v-0.7h5l-0.4,4.2h1c-0.1,1.7-0.1,2.9-0.2,3.5c-0.1,1-0.6,1.5-1.7,1.5c-0.7,0-1.2,0-1.6,0c0-0.2-0.1-0.4-0.1-0.6
		c0-0.1,0-0.2,0-0.3c0.2,0,0.8,0,1.7,0c0.6,0,0.9-0.3,0.9-0.8c0.1-0.5,0.1-1.4,0.2-2.7H155l0.3-3.5H156.1z"/>
	<path style="fill:#FF6600;" d="M165.1,190.3l-0.6,0.5c-0.2-0.1-0.4-0.3-0.7-0.7c-0.1-0.1-0.2-0.2-0.3-0.3c-0.4,0.6-1,1.2-1.9,2
		c-0.1-0.2-0.3-0.4-0.5-0.7c0.7-0.5,1.3-1.1,1.8-1.9c-0.2-0.1-0.4-0.4-0.7-0.7c-0.3-0.3-0.5-0.5-0.7-0.7c0.2-0.6,0.4-1.6,0.7-3h-0.9
		v-0.7h1c0.1-0.4,0.1-1,0.2-1.7c0-0.2,0-0.3,0-0.4l0.8,0.1c0,0.3-0.1,0.7-0.2,1.2c-0.1,0.4-0.1,0.6-0.1,0.8h1.8v0.7
		c-0.2,1.8-0.5,3.2-1,4.1C164.2,189.5,164.7,189.9,165.1,190.3z M164,185h-1.2c-0.2,1.1-0.4,2-0.6,2.8c0.2,0.1,0.4,0.3,0.7,0.6
		c0.1,0.1,0.2,0.2,0.3,0.3C163.7,187.7,163.9,186.5,164,185z M164.9,188.7h4.4v0.7h-4.4V188.7z M166.6,183.8l-0.2,2.8h2.5l0.3-3.5
		h-4.1v-0.7h5l-0.4,4.2h1c-0.1,1.7-0.1,2.9-0.2,3.5c-0.1,1-0.6,1.5-1.7,1.5c-0.7,0-1.2,0-1.6,0c0-0.2-0.1-0.4-0.1-0.6
		c0-0.1,0-0.2,0-0.3c0.2,0,0.8,0,1.7,0c0.6,0,0.9-0.3,0.9-0.8c0.1-0.5,0.1-1.4,0.2-2.7h-4.3l0.3-3.5H166.6z"/>
	<path style="fill:#FF6600;" d="M173.7,187.4v-0.8h5.7v0.8H173.7z"/>
	<path style="fill:#FF6600;" d="M187.8,191.7H187v-3.1H184c-0.1,1.3-0.5,2.5-1.2,3.4c0,0-0.1-0.1-0.1-0.1c-0.2-0.2-0.4-0.4-0.5-0.5
		c0.5-0.6,0.8-1.2,0.9-1.9c0.1-0.7,0.2-1.8,0.2-3.5v-3.2h8.1v7.8c0.1,0.9-0.4,1.3-1.4,1.3c-0.4,0-0.8,0-1.2,0c0,0,0-0.1,0-0.2
		c0-0.3-0.1-0.5-0.1-0.7c0.1,0,0.3,0,0.6,0c0.3,0,0.6,0,0.7,0c0.5,0,0.8-0.2,0.7-0.7v-1.7h-3V191.7z M184.1,186c0,0.7,0,1.4,0,1.9
		h2.9V186H184.1z M184.1,183.4v1.9h2.8v-1.9H184.1z M190.7,183.4h-3v1.9h3V183.4z M187.8,186v1.9h3V186H187.8z"/>
	<path style="fill:#FF6600;" d="M197,182.3l0.7-0.4c0.1,0.1,0.2,0.3,0.3,0.5c0.2,0.4,0.4,0.6,0.5,0.8l-0.5,0.3h3.8v4.4H201v-0.5
		h-6.3c-0.1,1.8-0.5,3.2-1.4,4.4c-0.1-0.1-0.2-0.2-0.3-0.3c-0.1-0.1-0.2-0.2-0.3-0.3c0.9-1,1.4-2.6,1.3-4.8v-2.9h3.8
		c-0.1-0.1-0.1-0.2-0.2-0.4C197.3,182.8,197.1,182.5,197,182.3z M194.8,184.3v2.2v0.3h6.3v-2.5H194.8z"/>
	<path style="fill:#FF6600;" d="M203.2,186.9c1-1.3,1.8-2.9,2.3-4.8l0.7,0.2c-0.3,0.9-0.6,1.8-1,2.6v6.9h-0.7v-5.5
		c-0.1,0.1-0.2,0.3-0.3,0.5c-0.1,0.2-0.3,0.5-0.7,0.9c0,0-0.1-0.1-0.1-0.3C203.3,187.1,203.3,186.9,203.2,186.9z M205.4,189.6
		c1.4-1.2,2.4-2.8,3-4.7h-2.3v-0.7h2.9v-2h0.8v2h3.1v0.7h-2.5c0.7,2.1,1.6,3.5,3,4.5c-0.1,0.1-0.3,0.4-0.6,0.7
		c-1.5-1.4-2.4-3.1-3-5.2v4.2h1.6v0.7h-1.6v2H209v-2h-1.6v-0.7h1.6v-4.2c-0.4,2-1.4,3.7-3,5.4C205.7,189.9,205.5,189.7,205.4,189.6z
		"/>
	<path style="fill:#FF6600;" d="M213.8,188.9c0.9-0.2,1.7-0.4,2.5-0.6c0,0.2,0,0.5,0,0.7c-0.4,0.1-1,0.2-1.9,0.5
		c-0.2,0.1-0.4,0.1-0.5,0.1L213.8,188.9z M215.2,184l-0.2,2.8h1l0.3-3.4H214v-0.7h3l-0.3,4.1h0.6c0,0.5-0.1,1.3-0.1,2.3
		c0,0.6,0,0.9,0,1.2c0,0.9-0.5,1.4-1.4,1.4c-0.3,0-0.7,0-1.2,0c0-0.2-0.1-0.5-0.2-0.8c0.2,0,0.4,0,0.7,0c0.2,0,0.4,0,0.5,0
		c0.5,0,0.7-0.2,0.7-0.7c0-0.3,0.1-1,0.1-1.9c0-0.4,0-0.7,0-0.9h-2.4l0.3-3.4H215.2z M221.1,182.2c-0.1,0.1-0.1,0.2-0.2,0.4
		c0.8,1.4,1.8,2.4,2.9,3c0,0-0.1,0.1-0.1,0.2c-0.2,0.2-0.3,0.4-0.4,0.5c-1.2-0.8-2.1-1.8-2.8-3c-0.8,1.3-1.8,2.4-2.9,3.1
		c-0.1-0.2-0.3-0.4-0.5-0.6c1.3-0.9,2.4-2.1,3.2-3.7L221.1,182.2z M223.1,187.2c-0.4,1.3-0.9,2.5-1.2,3.4h1.8v0.7h-6.1v-0.7h3.5
		c0.4-1,0.9-2.2,1.3-3.7L223.1,187.2z M217.9,187.4l0.7-0.2c0.1,0.2,0.2,0.5,0.3,0.9c0.3,0.8,0.5,1.4,0.6,1.7l-0.7,0.2
		C218.5,189.1,218.2,188.2,217.9,187.4z M218.5,185.7h4.1v0.7h-4.1V185.7z M219.6,187.1l0.7-0.2c0.3,1.2,0.6,2.1,0.7,2.6l-0.7,0.2
		C220.1,188.7,219.9,187.9,219.6,187.1z"/>
	<path style="fill:#FF6600;" d="M225.1,184.2h3.9V182h0.8v2.2h3.9v4.5h-0.8v-0.5h-3.1v3.7H229v-3.7h-3.1v0.5h-0.8V184.2z M225.9,185
		v2.5h3.1V185H225.9z M232.9,185h-3.1v2.5h3.1V185z"/>
	<path style="fill:#FF6600;" d="M236.1,185.1l0.8,0.2c-0.3,1.6-0.7,2.9-1.1,4.1l-0.8-0.3C235.5,187.6,235.9,186.3,236.1,185.1z
		 M237.6,184h0.8v5.9c0,0.6,0.3,0.9,0.9,0.9h1.9c0.7,0.1,1.1-0.2,1.1-0.7c0-0.1,0-0.3,0-0.5c0.1-0.4,0.1-0.8,0.1-1
		c0.3,0.1,0.6,0.2,0.8,0.3c-0.1,0.6-0.2,1.1-0.2,1.6c-0.1,0.8-0.7,1.1-1.8,1.1h-2.2c-1,0-1.6-0.5-1.5-1.5V184z M239.7,182
		c0.4,0.6,0.9,1.4,1.5,2.5c0.1,0.1,0.1,0.2,0.2,0.3l-0.8,0.4c-0.4-1-0.9-2-1.5-2.9L239.7,182z M243.2,184.8c0.1,0.1,0.1,0.3,0.2,0.5
		c0.7,1.3,1.2,2.4,1.5,3.2l-0.8,0.4c-0.5-1.3-1.1-2.6-1.7-3.7L243.2,184.8z"/>
	<path style="fill:#FF6600;" d="M247.7,187.4v-0.8h5.7v0.8H247.7z"/>
	<path style="fill:#FF6600;" d="M256.6,187.3h3.8v4.5h-0.8v-0.7h-2.3v0.7h-0.7V187.3z M257.4,188v2.6h2.3V188H257.4z M257.6,182.5
		h6.8v3.6h-6.8V182.5z M258.4,183.2v2.2h5.3v-2.2H258.4z M261.7,187.3h3.8v4.5h-0.7v-0.7h-2.3v0.7h-0.8V187.3z M262.5,188v2.6h2.3
		V188H262.5z"/>
	<path style="fill:#FF6600;" d="M269.1,182.1h0.7v3.2h0.7v0.7h-2.5v1.4h1.9v4.3h-0.7V188h-1.2c0,1.7-0.3,3-0.8,3.8
		c-0.2-0.2-0.4-0.4-0.6-0.6c0.5-0.7,0.7-2.1,0.7-4.1v-4.7h0.7v2.9h1V182.1z M270.3,189.3h1.1c-0.2-0.2-0.3-0.3-0.4-0.5
		c0.6-0.3,1.1-0.6,1.4-1.1h-1.5v-4.7h1.7c0.1-0.2,0.2-0.6,0.3-1.1l0.8,0.1c0,0.1-0.1,0.2-0.1,0.3c-0.1,0.3-0.2,0.5-0.2,0.7h2.5v4.7
		h-2.7c-0.3,0.6-0.8,1.1-1.5,1.5h1.9v-1.2h0.7v1.2h2.3v0.7h-2.3v1.9h-0.7v-1.9h-3.3V189.3z M271.6,183.7v1.4h1.5v-1.4H271.6z
		 M272.8,187.1c0.2-0.4,0.3-0.8,0.3-1.4h-1.5v1.4H272.8z M273.8,185.7c0,0.5-0.1,1-0.2,1.4h1.7v-1.4H273.8z M275.3,183.7h-1.5v1.4
		h1.5V183.7z"/>
	<path style="fill:#FF6600;" d="M281.1,182.2c-0.1,0.1-0.2,0.2-0.2,0.4c0.7,0.6,1.5,1.3,2.4,2.2l-0.5,0.6c-0.5-0.6-1.3-1.3-2.2-2.2
		c-0.6,0.9-1.3,1.7-2.1,2.4h4.1c0,0.5,0,1.3-0.1,2.1c0,0.9-0.5,1.3-1.5,1.3c-0.6,0-1,0-1.2,0c0-0.3-0.1-0.6-0.1-0.8
		c0.5,0,0.9,0,1.2,0c0.5,0,0.8-0.2,0.8-0.7c0-0.1,0-0.4,0-0.7c0-0.3,0-0.5,0-0.7h-2.6v3.8c-0.1,0.5,0.2,0.7,0.7,0.7h1.4
		c0.6,0,0.9-0.1,1-0.4c0.1-0.2,0.1-0.6,0.2-1.2c0.2,0.1,0.5,0.2,0.8,0.3c-0.1,0.6-0.2,1-0.2,1.2c-0.2,0.6-0.7,0.9-1.5,0.9h-1.7
		c-1,0.1-1.4-0.4-1.4-1.3v-4.5c-0.1,0-0.1,0.1-0.2,0.2c-0.1,0.1-0.2,0.2-0.5,0.4c0-0.1-0.1-0.2-0.2-0.4c-0.1-0.2-0.2-0.3-0.2-0.3
		c1.4-1,2.4-2.2,3.1-3.5L281.1,182.2z M285.7,182.1h0.8v8.3c0,0.9-0.4,1.3-1.2,1.3c-0.4,0-0.9,0-1.5,0c0-0.3-0.1-0.6-0.2-0.9
		c0.2,0,0.4,0,0.7,0c0.3,0,0.5,0,0.7,0c0.5,0,0.8-0.2,0.7-0.6V182.1z M284.4,189.3h-0.7v-6.1h0.7V189.3z"/>
	<path style="fill:#FF6600;" d="M288.7,189.4l0.7,0.2c-0.2,0.4-0.4,0.9-0.7,1.4c-0.1,0.1-0.1,0.2-0.2,0.3c-0.2-0.1-0.4-0.2-0.7-0.3
		C288.1,190.6,288.4,190,288.7,189.4z M292.1,182.2l0.7-0.2c0.1,0.1,0.2,0.4,0.2,0.7c0.1,0.2,0.1,0.3,0.1,0.4h3.8v0.6h-1.8l0.4,0.2
		c-0.1,0.1-0.4,0.3-0.7,0.6c0.2-0.2,0.2-0.2-0.1,0.1h2.8v0.6h-9.7v-0.6h2.8c0,0-0.1-0.1-0.1-0.1c-0.2-0.2-0.4-0.4-0.7-0.6l0.3-0.2
		h-1.7V183h4c0-0.1-0.1-0.3-0.2-0.5C292.2,182.4,292.2,182.2,292.1,182.2z M289.2,185.8h7.1v3.1h-3.7c0.4,0.3,0.8,0.7,1.1,1
		l-0.6,0.5c0,0-0.1-0.1-0.1-0.1c-0.4-0.4-0.7-0.8-1-1l0.5-0.4h-3.3V185.8z M289.9,186.4v0.7h5.6v-0.7H289.9z M289.9,187.7v0.7h5.6
		v-0.7H289.9z M290.3,189.3h0.7v1.1c-0.1,0.4,0.2,0.6,0.7,0.6h1.9c0.5,0,0.8-0.1,0.9-0.4c0.1-0.2,0.2-0.6,0.2-0.9
		c0.2,0.1,0.5,0.2,0.7,0.3c-0.1,0.4-0.2,0.6-0.2,0.9c-0.1,0.6-0.6,0.9-1.4,0.9h-2.2c-1,0.1-1.4-0.3-1.4-1.2V189.3z M291.5,184.3
		l-0.3,0.2h2.6c0.1-0.1,0.3-0.3,0.5-0.5c0.2-0.2,0.4-0.4,0.5-0.5h-4.2C290.9,183.9,291.2,184.1,291.5,184.3z M295.9,189.7l0.5-0.4
		c0.2,0.2,0.5,0.5,0.9,0.9c0.2,0.2,0.3,0.3,0.4,0.4l-0.6,0.5c-0.1-0.2-0.3-0.4-0.6-0.7C296.3,190.2,296.1,189.9,295.9,189.7z"/>
	<path style="fill:#FF6600;" d="M298.3,190.2c1.3-0.2,2.5-0.4,3.6-0.6c0,0,0,0.1,0,0.3c0,0.2,0,0.4,0,0.5c-0.4,0.1-0.9,0.2-1.7,0.3
		c-0.7,0.1-1.3,0.2-1.7,0.2L298.3,190.2z M299.7,187.8c0.3,0,0.8-0.1,1.4-0.2c0.3-0.1,0.6-0.1,0.7-0.1c0,0.2,0,0.4-0.1,0.7
		c-1.5,0.2-2.5,0.3-2.9,0.5l-0.2-0.7c0.3-0.2,0.9-0.9,1.7-2.1c-0.1,0-0.1,0-0.2,0c-0.8,0.1-1.3,0.1-1.5,0.2l-0.2-0.7
		c0.5-0.4,1.1-1.5,1.8-3.3l0.8,0.3c-0.7,1.3-1.3,2.2-1.7,2.8c0.1,0,0.4,0,0.7,0c0.3-0.1,0.5-0.1,0.7-0.1c0.2-0.4,0.5-0.9,0.8-1.4
		l0.7,0.4C301.6,185.2,300.8,186.4,299.7,187.8z M301.4,191.4v-0.7h1.2v-8h4.8v8h0.9v0.7H301.4z M303.3,183.4v2h3.3v-2H303.3z
		 M303.3,186v2h3.3v-2H303.3z M303.3,188.7v1.9h3.3v-1.9H303.3z"/>
</g>
<g id="alimama.com_拷贝_4_">
	<g>
		<path style="fill-rule:evenodd;clip-rule:evenodd;fill:#CBCBCB;" d="M419,276.8c-0.8,1.6-1.6,3.1-2.4,4.8h1.2
			c0.2-0.4,0.3-0.7,0.6-1.1c0.6,0,1.1,0,1.7,0c-0.1-0.4-0.2-0.6-0.3-0.9h-0.9c0.3-0.5,0.4-0.8,0.8-1.6c0.4,1.2,0.9,2.5,1.3,3.6h1.1
			c-0.6-1.7-1.1-3.1-1.7-4.8H419z M422.2,281.5h1l0.2-4.8l-1,0L422.2,281.5z M423.8,281.5h1.1l0.1-3.6h-1L423.8,281.5z M424,276.8
			l0,0.8c0,0,0.8,0,1,0l0-0.8C424.1,276.8,424.1,276.8,424,276.8z M430.5,278c-0.2-0.1-0.4-0.1-0.6-0.1c-0.1,0-0.2,0-0.3,0
			c-0.1,0-0.2,0.1-0.3,0.1c-0.1,0-0.2,0.1-0.2,0.1c-0.1,0.1-0.1,0.1-0.2,0.2c0,0.1-0.1,0.1-0.1,0.2c0-0.1-0.1-0.2-0.1-0.3
			c0-0.1-0.1-0.1-0.1-0.2c-0.1,0-0.1-0.1-0.2-0.1c-0.1,0-0.2-0.1-0.3-0.1c-0.1,0-0.2,0-0.3,0c-0.1,0-0.3,0-0.4,0.1
			c-0.1,0-0.2,0.1-0.3,0.1c-0.1,0.1-0.2,0.1-0.2,0.2c-0.1,0.1-0.1,0.2-0.2,0.3l0-0.6h-0.9l-0.2,3.6c0,0,0.8,0,1,0c0-0.3,0-0.7,0-1.2
			c0-0.5,0.1-0.9,0.1-1c0.1-0.2,0.1-0.3,0.3-0.4c0.1-0.1,0.3-0.2,0.4-0.2c0.1,0,0.2,0,0.2,0c0.1,0,0.1,0.1,0.2,0.1
			c0.1,0.1,0.1,0.1,0.1,0.2c0,0.1,0,0.2,0,0.3c0,0.2,0,0.6,0,1.1c0,0.6-0.1,0.9-0.1,1.1c0.2,0,0.8,0,1,0l0-1c0-0.3,0-0.6,0-0.8
			c0-0.2,0-0.4,0.1-0.5c0-0.1,0.1-0.2,0.2-0.3c0.1-0.1,0.2-0.2,0.2-0.2c0.1,0,0.2-0.1,0.3-0.1c0.1,0,0.2,0,0.3,0.1
			c0.1,0,0.1,0.1,0.2,0.2c0.1,0.1,0.1,0.2,0.1,0.4c0,0.1,0,0.3,0,0.5l0,0.8c0,0.3,0,0.6-0.1,0.9c0.2,0,0.8,0,1,0c0-0.3,0-0.6,0-1.1
			c0-0.5,0-0.8,0.1-1.1c0-0.2,0-0.4,0-0.5c0-0.2-0.1-0.4-0.2-0.5C430.9,278.2,430.7,278.1,430.5,278z M434.3,278
			c-0.2-0.1-0.5-0.1-0.7-0.1c-0.2,0-0.5,0-0.7,0c-0.2,0-0.8,0.2-0.8,0.2l-0.1,0.7c0,0,1-0.3,1.4-0.3c0.1,0,0.2,0,0.3,0
			c0.1,0,0.2,0.1,0.2,0.1c0.1,0.1,0.1,0.1,0.1,0.2c0,0,0,0.1,0,0.1c0,0-0.1,0.1-0.1,0.1c0,0-0.1,0.1-0.1,0.1c-0.1,0-0.1,0.1-0.2,0.1
			c-0.1,0-0.2,0-0.3,0.1c-0.3,0.1-0.6,0.1-0.8,0.2c-0.2,0.1-0.4,0.1-0.5,0.2c-0.1,0.1-0.2,0.2-0.3,0.2c-0.1,0.1-0.1,0.2-0.2,0.3
			c0,0.1-0.1,0.2-0.1,0.3c0,0.2,0,0.3,0.1,0.5c0.1,0.2,0.2,0.3,0.4,0.4c0.2,0.1,0.4,0.1,0.7,0.1c0.1,0,0.2,0,0.3,0
			c0.1,0,0.2,0,0.4-0.1c0.1-0.3,0.1-0.5,0.2-0.6c-0.1,0-0.3,0.1-0.3,0.1c-0.1,0-0.2,0-0.2,0c-0.1,0-0.2,0-0.3,0
			c-0.1,0-0.2-0.1-0.2-0.1c-0.1-0.1-0.1-0.2-0.1-0.3c0-0.1,0-0.1,0-0.2c0-0.1,0.1-0.1,0.1-0.2c0,0,0.1-0.1,0.2-0.1
			c0.1,0,0.2-0.1,0.2-0.1c0.1,0,0.2-0.1,0.4-0.1c0.1,0,0.3-0.1,0.3-0.1c0.1,0,0.1,0,0.2-0.1c0,0,0.1-0.1,0.2-0.1l-0.1,1.8h1
			c0,0,0-1.1,0.1-1.7c0-0.5,0.1-0.9,0.1-1c0-0.2-0.1-0.4-0.2-0.6C434.7,278.2,434.5,278.1,434.3,278z M440.6,278
			c-0.2-0.1-0.4-0.1-0.6-0.1c-0.1,0-0.2,0-0.3,0c-0.1,0-0.2,0.1-0.3,0.1c-0.1,0-0.2,0.1-0.2,0.1c-0.1,0.1-0.1,0.1-0.2,0.2
			c0,0.1-0.1,0.1-0.1,0.2c0-0.1-0.1-0.2-0.1-0.3c0-0.1-0.1-0.1-0.1-0.2c-0.1,0-0.1-0.1-0.2-0.1c-0.1,0-0.2-0.1-0.3-0.1
			c-0.1,0-0.2,0-0.3,0c-0.1,0-0.3,0-0.4,0.1c-0.1,0-0.2,0.1-0.3,0.1c-0.1,0.1-0.2,0.1-0.2,0.2c-0.1,0.1-0.1,0.2-0.2,0.3l0-0.6h-1
			l-0.2,3.6h1c0,0,0-0.7,0-1.2c0-0.5,0.1-0.9,0.1-1c0.1-0.2,0.1-0.3,0.3-0.4c0.1-0.1,0.3-0.2,0.4-0.2c0.1,0,0.2,0,0.2,0
			c0.1,0,0.1,0.1,0.2,0.1c0,0.1,0.1,0.1,0.1,0.2c0,0.1,0,0.2,0,0.3c0,0.2,0,0.6,0,1.1c0,0.6-0.1,0.9-0.1,1.1c0.2,0,0.8,0,1,0l0-1
			c0-0.3,0-0.6,0-0.8c0-0.2,0-0.4,0.1-0.5c0-0.1,0.1-0.2,0.2-0.3c0.1-0.1,0.2-0.2,0.2-0.2c0.1,0,0.2-0.1,0.3-0.1
			c0.1,0,0.2,0,0.3,0.1c0.1,0,0.1,0.1,0.2,0.2c0.1,0.1,0.1,0.2,0.1,0.4c0,0.1,0,0.3,0,0.5l0,0.8c0,0.3,0,0.6-0.1,0.9
			c0.2,0,0.8,0,1,0c0-0.3,0-0.6,0-1.1c0-0.5,0-0.8,0.1-1.1c0-0.2,0-0.4,0-0.5c0-0.2-0.1-0.4-0.2-0.5
			C440.9,278.2,440.8,278.1,440.6,278z M444.4,278c-0.2-0.1-0.5-0.1-0.7-0.1c-0.2,0-0.5,0-0.7,0c-0.2,0-0.8,0.2-0.8,0.2l-0.1,0.7
			c0,0,1-0.3,1.4-0.3c0.1,0,0.2,0,0.3,0c0.1,0,0.2,0.1,0.2,0.1c0.1,0.1,0.1,0.1,0.1,0.2c0,0,0,0.1,0,0.1c0,0-0.1,0.1-0.1,0.1
			c0,0-0.1,0.1-0.1,0.1c-0.1,0-0.1,0.1-0.2,0.1c-0.1,0-0.2,0-0.3,0.1c-0.3,0.1-0.6,0.1-0.8,0.2c-0.2,0.1-0.4,0.1-0.5,0.2
			c-0.1,0.1-0.2,0.2-0.3,0.2c-0.1,0.1-0.1,0.2-0.2,0.3c0,0.1-0.1,0.2-0.1,0.3c0,0.2,0,0.3,0.1,0.5c0.1,0.2,0.2,0.3,0.4,0.4
			c0.2,0.1,0.4,0.1,0.7,0.1c0.1,0,0.2,0,0.3,0c0.1,0,0.2,0,0.4-0.1c0.1-0.3,0.1-0.5,0.2-0.6c-0.1,0-0.3,0.1-0.3,0.1
			c-0.1,0-0.2,0-0.2,0c-0.1,0-0.2,0-0.3,0c-0.1,0-0.2-0.1-0.2-0.1c-0.1-0.1-0.1-0.2-0.1-0.3c0-0.1,0-0.1,0-0.2
			c0-0.1,0.1-0.1,0.1-0.2c0,0,0.1-0.1,0.2-0.1c0.1,0,0.2-0.1,0.2-0.1c0.1,0,0.2-0.1,0.4-0.1c0.1,0,0.3-0.1,0.3-0.1
			c0.1,0,0.1,0,0.2-0.1c0,0,0.1-0.1,0.2-0.1l-0.1,1.8h1c0,0,0-1.1,0.1-1.7c0-0.5,0.1-0.9,0.1-1c0-0.2-0.1-0.4-0.2-0.6
			C444.8,278.2,444.6,278.1,444.4,278z M445.5,280.6c0,0.5,0,0.8,0,0.9c0.3,0,1,0,1,0s0-0.8,0-0.9
			C446.2,280.6,445.5,280.6,445.5,280.6z M448.1,279c0.1-0.1,0.2-0.2,0.4-0.3c0.1-0.1,0.3-0.1,0.5-0.1c0.3,0,0.6,0.1,0.9,0.2
			l-0.1-0.8c-0.2-0.1-0.4-0.1-0.6-0.1c-0.2,0-0.3,0-0.5,0c-0.3,0-0.5,0-0.7,0.1c-0.2,0.1-0.4,0.2-0.6,0.3c-0.2,0.2-0.3,0.4-0.4,0.7
			c-0.1,0.3-0.1,0.6-0.1,0.8c0,0.2,0,0.4,0.1,0.6c0.1,0.2,0.1,0.4,0.3,0.5c0.1,0.1,0.2,0.3,0.4,0.4c0.2,0.1,0.3,0.2,0.5,0.2
			c0.2,0,0.4,0.1,0.5,0.1c0.3,0,0.7,0,1-0.1c0-0.2,0.1-0.3,0.1-0.5c0-0.1,0-0.2,0.1-0.3c-0.2,0.1-0.3,0.1-0.5,0.1
			c-0.2,0-0.3,0-0.4,0c-0.2,0-0.4,0-0.6-0.1c-0.2-0.1-0.3-0.2-0.4-0.4c-0.1-0.2-0.1-0.4-0.1-0.6c0-0.2,0-0.3,0.1-0.5
			C447.9,279.2,448,279.1,448.1,279z M453.5,278.4c-0.2-0.2-0.4-0.3-0.6-0.4c-0.2-0.1-0.5-0.1-0.8-0.1c-0.3,0-0.6,0.1-0.8,0.1
			c-0.3,0.1-0.5,0.2-0.7,0.4c-0.2,0.2-0.3,0.4-0.4,0.6c-0.1,0.2-0.1,0.5-0.1,0.7c0,0.3,0,0.5,0.1,0.7c0.1,0.2,0.2,0.4,0.4,0.6
			c0.2,0.2,0.4,0.3,0.6,0.4c0.2,0.1,0.5,0.1,0.8,0.1c0.3,0,0.6,0,0.8-0.1c0.3-0.1,0.5-0.2,0.6-0.4c0.2-0.2,0.3-0.4,0.4-0.6
			c0.1-0.2,0.1-0.5,0.1-0.8c0-0.3,0-0.5-0.1-0.7C453.8,278.7,453.7,278.5,453.5,278.4z M452.9,280.3c-0.1,0.2-0.2,0.3-0.4,0.4
			c-0.2,0.1-0.3,0.2-0.5,0.2c-0.2,0-0.4,0-0.5-0.1c-0.1-0.1-0.3-0.2-0.3-0.4c-0.1-0.2-0.1-0.3-0.1-0.5c0-0.2,0-0.4,0.1-0.6
			c0.1-0.2,0.2-0.3,0.4-0.4c0.2-0.1,0.3-0.1,0.5-0.1c0.2,0,0.4,0,0.5,0.1c0.1,0.1,0.2,0.2,0.3,0.4c0.1,0.2,0.1,0.3,0.1,0.5
			C453,279.9,453,280.1,452.9,280.3z M459.8,278.3c-0.1-0.1-0.2-0.2-0.4-0.3c-0.2-0.1-0.4-0.1-0.6-0.1c-0.1,0-0.2,0-0.3,0
			c-0.1,0-0.2,0.1-0.3,0.1c-0.1,0-0.2,0.1-0.2,0.1c-0.1,0.1-0.1,0.1-0.2,0.2c0,0.1-0.1,0.1-0.1,0.2c0-0.1-0.1-0.2-0.1-0.3
			c0-0.1-0.1-0.1-0.1-0.2c-0.1,0-0.1-0.1-0.2-0.1c-0.1,0-0.2-0.1-0.3-0.1c-0.1,0-0.2,0-0.3,0c-0.1,0-0.3,0-0.4,0.1
			c-0.1,0-0.2,0.1-0.3,0.1c-0.1,0.1-0.2,0.1-0.2,0.2c-0.1,0.1-0.1,0.2-0.2,0.3l0-0.6c-0.2,0-0.7,0-0.9,0c0,0.4-0.1,3.2-0.2,3.6
			c0.2,0,0.8,0,1,0c0-0.3,0-0.7,0-1.2c0-0.5,0.1-0.9,0.1-1c0.1-0.2,0.1-0.3,0.3-0.4c0.1-0.1,0.3-0.2,0.4-0.2c0.1,0,0.2,0,0.2,0
			c0.1,0,0.1,0.1,0.2,0.1c0.1,0.1,0.1,0.1,0.1,0.2c0,0.1,0,0.2,0,0.3c0,0.2,0,0.6,0,1.1c0,0.6-0.1,0.9-0.1,1.1c0.2,0,0.8,0,1,0l0-1
			c0-0.3,0-0.6,0-0.8c0-0.2,0-0.4,0.1-0.5c0-0.1,0.1-0.2,0.2-0.3c0.1-0.1,0.2-0.2,0.2-0.2c0.1,0,0.2-0.1,0.3-0.1
			c0.1,0,0.2,0,0.3,0.1c0.1,0,0.1,0.1,0.2,0.2c0.1,0.1,0.1,0.2,0.1,0.4c0,0.1,0,0.3,0,0.5l0,0.8c0,0.3,0,0.6-0.1,0.9
			c0.2,0,0.8,0,1,0c0-0.3,0-0.6,0-1.1c0-0.5,0-0.8,0.1-1.1c0-0.2,0-0.4,0-0.5C459.9,278.6,459.9,278.5,459.8,278.3z"/>
	</g>
</g>
<g id="阿里妈妈_拷贝_4_">
	<g>
		<path style="fill-rule:evenodd;clip-rule:evenodd;fill:#FF6600;" d="M420.7,266.8c1.5,0,3,0,4.5,0c0,2.2,0,4.5,0,6.6
			c0,0.1-0.2,0.3-0.3,0.3c-0.2,0-0.3,0-0.6,0v1.1c0.3,0,0.6,0,1,0c0.9,0,1.4-0.4,1.4-1.1c0-1.7,0-5.1,0-6.8h0.5v-1h-6.4V266.8z
			 M443.6,271.6c-0.4,0-1,0.4-1,1c1.3,0,3.4,0,4.8,0c0,0.3,0,0.5,0,0.9c0.5,0,0.3,0,0.8,0c0.3,0,0.7-0.2,0.7-0.7c0-1.1,0-2,0-3.2
			c-0.2,0-0.4,0-0.6,0c0-0.9,0-2.6,0-3.3c0-0.3-0.3-0.6-0.6-0.6h-4.7v1h3.6c0,0.9,0,1.9,0,2.8c-0.9,0-1,0-1.7,0
			c-0.1,0-0.2-0.1-0.2-0.2c0-0.5,0-1.2,0-1.8c0-0.1-0.1-0.3-0.4-0.3H443v2.5c0,0.5,0.4,0.9,0.9,0.9c0,0,1.8,0,3.4,0v0.9H443.6z
			 M424.5,271.9c0-1.2,0-2.8,0-4.4h-3.7v5.6c1.1,0,2.5,0,2.5,0C424.2,273.1,424.5,272.6,424.5,271.9z M422.9,272.1
			c-0.3,0-0.6,0-0.9,0v-3.5c0.4,0,0.9,0,1.3,0c0,1.1,0,2.3,0,3.2C423.3,271.9,423.1,272.1,422.9,272.1z M416.5,266c0,2,0,4.7,0,8.7
			h1.4c0-2.5,0-5.3,0-8c0.3,0,0.7,0,1,0c0,1.5,0,2.9,0,4.3c0,0.6-0.5,0.8-0.5,0.8v1.1c1,0,1.8-1,1.8-1.9c0-1.6,0-3.7,0-5.4
			c-1.2,0-2.2,0-3.4,0C416.5,265.8,416.5,266,416.5,266z M459.4,269.6c0-0.9,0-2.6,0-3.3c0-0.3-0.3-0.6-0.6-0.6h-4.7v1
			c1.2,0,2.4,0,3.6,0v2.8c-0.9,0-1,0-1.7,0c-0.1,0-0.2-0.1-0.2-0.2c0-0.5,0-1.2,0-1.8c0-0.1-0.1-0.3-0.4-0.3c-0.3,0-0.7,0-1.1,0v2.5
			c0,0.5,0.4,0.9,0.9,0.9c0,0,1.8,0,3.4,0v0.9H455c-0.4,0-1.1,0.4-1.1,1c1.3,0,3.3,0,4.7,0v1c0,0.2-0.1,0.2-0.3,0.2h-0.5
			c0,0.5,0,0.7,0,1h0.8c0.3,0,0.2,0,0.5,0c0.7,0,1-0.5,1-0.9c0-1.3,0-3,0-4.3C459.9,269.6,459.6,269.6,459.4,269.6z M452.8,273.1
			c0.5-0.6,0.8-1.2,0.8-2.4c0-1.3,0-2.6,0-4c0-0.1-0.1-0.3-0.3-0.3c-0.5,0-1.2,0-1.8,0v-0.6h-1.4c0,0.2,0,0.4,0,0.6
			c-0.1,0-0.3,0-0.5,0v1h0.5v3.2c0,1.2,0.4,1.9,0.9,2.4c-0.6,0.4-1.2,0.7-2.1,0.7c-0.1,0-0.2,0-0.4,0c-1.3,0-2.9,0-4.2,0
			c-1.3,0-2.5-0.2-3-0.8c0.4-0.6,0.7-1.1,0.8-2.3c0-1.2,0-2.3,0-3.9c0-0.2-0.2-0.3-0.3-0.3c-0.5,0-1.1,0-1.8,0v-0.6
			c-0.6,0-0.8,0-1.3,0v0.6c-0.2,0-0.3,0-0.5,0v1c0.2,0,0.3,0,0.5,0c0,1.1,0,2.2,0,3.2c0.1,1.2,0.5,1.6,1,2.4
			c-0.7,0.5-1.5,0.7-2.5,0.8c-1.2,0-2.2,0-3.7,0c0-0.3,0-0.6,0-0.8h3.7v-1.1h-3.7c0-0.3,0-0.5,0-0.8c1.1,0,2.5,0,2.8,0
			c0,0,0.9,0,0.9-1c0-1,0-2.9,0-4.3c-2.9,0-5.9,0-8.9,0c-0.1,0-0.3,0.2-0.3,0.3c0,0.2,0,3.5,0,5c1.2,0,2.5,0,3.7,0v0.8h-3.7
			c0,0.3,0,0.7,0,1.1h3.7c0,0.3,0,0.5,0,0.8h-4.4c0,0.3,0,0.7,0,1c3.3,0,7.3,0,10.5,0c0.9,0,1.9-0.4,2.7-0.9c1,0.7,2,0.9,3.8,0.9
			c0.5,0,1.1,0,1.8,0c0.9,0,1.7,0,2.5,0c1.5,0,2.4-0.3,3.3-0.8c0.8,0.5,1.6,0.8,2.9,0.8v0h2v-1h-2
			C454.1,273.7,453.4,273.6,452.8,273.1z M431.8,270.1h-2.3V269h2.3V270.1z M431.8,267.9h-2.3v-1.1c0.8,0,1.5,0,2.3,0V267.9z
			 M433.6,266.8h2.3v1.1h-2.3V266.8z M433.6,269c0.8,0,1.5,0,2.3,0c0,0.4,0,0.8,0,1.1h-2.3C433.6,269.8,433.6,269.3,433.6,269z
			 M441,270.6c0,0.7-0.2,0.9-0.3,1.4c-0.2-0.4-0.4-0.6-0.5-1.4c0-0.9,0-2.2,0-3.2h0.8V270.6z M452.4,270.7c0,0.7-0.2,1-0.4,1.4
			c-0.2-0.4-0.4-0.7-0.4-1.4c0-1,0-2.2,0-3.2h0.8C452.4,268.5,452.4,269.7,452.4,270.7z"/>
	</g>
</g>
<g id="矩形_5_拷贝__x2B__v_xA0_剪贴路径_48_">
	<rect x="2" y="1.5" style="fill:none;" width="69.3" height="297"/>
</g>
<g id="矩形_5_拷贝__x2B__v_xA0_剪贴路径_47_">
	<rect x="1.4" y="1.5" style="fill:none;" width="69.3" height="297"/>
</g>
<g id="矩形_5_拷贝__x2B__v_xA0_剪贴路径_46_">
	<rect x="2" y="1.5" style="fill:none;" width="69.3" height="297"/>
</g>
<g id="矩形_5_拷贝__x2B__v_xA0_剪贴路径_45_">
	<rect x="1.4" y="1.5" style="fill:none;" width="69.3" height="297"/>
</g>
<g id="矩形_5_拷贝__x2B__v_xA0_剪贴路径_44_">
	<rect x="2" y="1.5" style="fill:none;" width="69.3" height="297"/>
</g>
<g id="矩形_5_拷贝__x2B__v_xA0_剪贴路径_43_">
	<rect x="1.4" y="1.5" style="fill:none;" width="69.3" height="297"/>
</g>
<g id="矩形_5_拷贝__x2B__v_xA0_剪贴路径_42_">
	<rect x="2" y="1.5" style="fill:none;" width="69.3" height="297"/>
</g>
<g id="矩形_5_拷贝__x2B__v_xA0_剪贴路径_41_">
	<rect x="1.4" y="1.5" style="fill:none;" width="69.3" height="297"/>
</g>
<g id="矩形_5_拷贝__x2B__v_xA0_剪贴路径_40_">
	<rect x="2" y="1.5" style="fill:none;" width="69.3" height="297"/>
</g>
<g id="矩形_5_拷贝__x2B__v_xA0_剪贴路径_39_">
	<rect x="1.4" y="1.5" style="fill:none;" width="69.3" height="297"/>
</g>
<g id="矩形_5_拷贝__x2B__v_xA0_剪贴路径_38_">
	<rect x="2" y="1.5" style="fill:none;" width="69.3" height="297"/>
</g>
<g id="矩形_5_拷贝__x2B__v_xA0_剪贴路径_37_">
	<rect x="1.4" y="1.5" style="fill:none;" width="69.3" height="297"/>
</g>
<g id="矩形_5_拷贝__x2B__v_xA0_剪贴路径_36_">
	<rect x="2" y="1.5" style="fill:none;" width="69.3" height="297"/>
</g>
<g id="矩形_5_拷贝__x2B__v_xA0_剪贴路径_35_">
	<rect x="1.4" y="1.5" style="fill:none;" width="69.3" height="297"/>
</g>
<g id="矩形_5_拷贝__x2B__v_xA0_剪贴路径_34_">
	<rect x="2" y="1.5" style="fill:none;" width="69.3" height="297"/>
</g>
<g id="矩形_5_拷贝__x2B__v_xA0_剪贴路径_33_">
	<rect x="1.4" y="1.5" style="fill:none;" width="69.3" height="297"/>
</g>
<g id="矩形_5_拷贝__x2B__v_xA0_剪贴路径_32_">
	<rect x="2.4" y="1.1" style="fill:none;" width="69.3" height="297"/>
</g>
<g id="矩形_5_拷贝__x2B__v_xA0_剪贴路径_31_">
	<rect x="1.7" y="1.1" style="fill:none;" width="69.3" height="297"/>
</g>
<g id="矩形_5_拷贝__x2B__v_xA0_剪贴路径_30_">
	<rect x="2.4" y="1.1" style="fill:none;" width="69.3" height="297"/>
</g>
<g id="矩形_5_拷贝__x2B__v_xA0_剪贴路径_29_">
	<rect x="1.7" y="1.1" style="fill:none;" width="69.3" height="297"/>
</g>
<g id="矩形_5_拷贝__x2B__v_xA0_剪贴路径_28_">
	<rect x="2.4" y="1.1" style="fill:none;" width="69.3" height="297"/>
</g>
<g id="矩形_5_拷贝__x2B__v_xA0_剪贴路径_27_">
	<rect x="1.7" y="1.1" style="fill:none;" width="69.3" height="297"/>
</g>
<g id="矩形_5_拷贝__x2B__v_xA0_剪贴路径_26_">
	<rect x="2.4" y="1.1" style="fill:none;" width="69.3" height="297"/>
</g>
<g id="矩形_5_拷贝__x2B__v_xA0_剪贴路径_25_">
	<rect x="1.7" y="1.1" style="fill:none;" width="69.3" height="297"/>
</g>
<g id="矩形_5_拷贝__x2B__v_xA0_剪贴路径_24_">
	<rect x="2.4" y="1.1" style="fill:none;" width="69.3" height="297"/>
</g>
<g id="矩形_5_拷贝__x2B__v_xA0_剪贴路径_23_">
	<rect x="1.7" y="1.1" style="fill:none;" width="69.3" height="297"/>
</g>
<g id="矩形_5_拷贝__x2B__v_xA0_剪贴路径_22_">
	<rect x="2.4" y="1.1" style="fill:none;" width="69.3" height="297"/>
</g>
<g id="矩形_5_拷贝__x2B__v_xA0_剪贴路径_21_">
	<rect x="1.7" y="1.1" style="fill:none;" width="69.3" height="297"/>
</g>
<g id="矩形_5_拷贝__x2B__v_xA0_剪贴路径_20_">
	<rect x="2.4" y="1.1" style="fill:none;" width="69.3" height="297"/>
</g>
<rect x="2.1" y="1.1" style="fill:#FF6D00;" width="61.8" height="297"/>
<g id="矩形_5_拷贝__x2B__v_xA0_剪贴路径_19_">
	<rect x="1.7" y="1.1" style="fill:none;" width="69.3" height="297"/>
</g>
<g>
	<defs>
		<rect id="SVGID_1_" x="2.1" y="1.1" width="61.8" height="296.9"/>
	</defs>
	<clipPath id="SVGID_2_">
		<use xlink:href="#SVGID_1_"  style="overflow:visible;"/>
	</clipPath>
	<g style="clip-path:url(#SVGID_2_);">
		<defs>
			<polygon id="SVGID_3_" points="92.8,2.1 -32.2,1.1 -32.2,305.3 92.8,305.4 			"/>
		</defs>
		<clipPath id="SVGID_4_">
			<use xlink:href="#SVGID_3_"  style="overflow:visible;"/>
		</clipPath>
		<path style="clip-path:url(#SVGID_4_);fill:#F95E00;" d="M148.6,300.2c-0.6,0.9-1.3,1.7-2.2,2.4c0.3,0.6,0.5,1.2,0.7,1.8
			C147.8,303,148.2,301.6,148.6,300.2 M-15.1,275.4c-9.1,5.3-13.3,17.4-11.6,29.4c1.4,9.9,3.9,17.3,14.5,26.7c0,0,8.3,6.6,20.9,6.6
			c3.4,0,7.2-0.5,11.2-1.8c-0.4-0.2-0.7-0.5-1.1-0.8c-7.5-4.7-15.1-10.9-21.3-18.8C-2.5,316.7-19.1,296.4-15.1,275.4 M83.4,221.7
			c-22.3,0-36.7,8-45.4,18.2c-1.2,1.4-2.3,2.7-3.4,4.1c6.6,1.4,12.8,4.3,18.3,7.8c6.5-2.8,13.1-4.8,19.7-5.7
			c4.1-0.6,8.2-0.9,12.4-0.9c29.9,0,60.6,15.2,65.4,39.7c-0.1-3.1-0.3-6.5-0.9-10.1c-4.6-31.5-34.9-52.9-65.8-53
			C83.6,221.7,83.5,221.7,83.4,221.7"/>
		<path style="clip-path:url(#SVGID_4_);fill:#F04400;" d="M85,245.2c-4.2,0-8.3,0.3-12.4,0.9c-6.5,0.9-13.2,2.9-19.7,5.7
			c12.1,7.5,21.2,17.8,25.3,21.6c11.7,11.2,20.3,15.1,31.9,15.1c1.7,0,3.5-0.1,5.3-0.2c1.3-0.1,2.6-0.1,3.9-0.1
			c15.6,0,23.8,7.1,27.1,14.4c0.8-0.7,1.5-1.5,2.2-2.4c1.2-4.4,1.9-9.5,1.8-15.3C145.6,260.4,114.9,245.2,85,245.2"/>
		<path style="clip-path:url(#SVGID_4_);fill:#E0E0E0;" d="M20,336.3C20,336.3,20,336.3,20,336.3c1.9,1.4,4,2.5,6.2,3.5
			C24.2,338.7,22.1,337.5,20,336.3"/>
		<path style="clip-path:url(#SVGID_4_);fill:#E0E0E0;" d="M18.9,335.5c0.4,0.3,0.7,0.5,1.1,0.8c0,0,0.1,0,0.1,0
			C19.6,336,19.2,335.8,18.9,335.5"/>
		<path style="clip-path:url(#SVGID_4_);fill:#FC6800;" d="M25.8,243c-7.7,0-15.8,2.3-24.1,8.1c-10.4,7.4-15.2,15.9-16.8,24.2
			c3.1-1.8,6.7-2.8,10.9-2.8l0.1,0H-4c21.6,0,25.8-12.4,38.6-28.6C31.8,243.3,28.8,243,25.8,243"/>
		<path style="clip-path:url(#SVGID_4_);fill:#F65A00;" d="M34.6,244c-12.8,16.2-17,28.6-38.6,28.6h-0.2l-0.1,0
			c-4.2,0-7.8,1-10.9,2.8c-4,21.1,12.7,41.3,12.7,41.3c6.2,8,13.8,14.1,21.3,18.8c-7.4-5.4-12.7-13.3-14-22.2
			C1.5,290,25.7,263.6,53,251.8C47.4,248.3,41.2,245.4,34.6,244"/>
		<path style="clip-path:url(#SVGID_4_);fill:#F04400;" d="M147.2,304.4c-3.6,8.9-9.8,14.6-16.6,18.6c-6.6,3.9-15.3,5-23.2,5
			c-11.3,0-21.1-2.3-21.1-2.3s-3.4-0.8-8.5-1.5c-9.7,6.9-21.7,15.9-28.3,17.5c-2.9,0.7-5.9,1.1-8.8,1.1c-5,0-10-1.1-14.5-3
			c13.6,7,25.2,9.5,25.2,9.5c9.6,1.7,18.6,2.5,26.9,2.5c24,0,42.1-6.4,53.4-14.5c11.6-8.3,16.7-19,16.6-26.8
			C148.3,308.5,148,306.5,147.2,304.4"/>
		<path style="clip-path:url(#SVGID_4_);fill:#F04400;" d="M146.5,302.5c-9.6,8.2-33.1,4.6-56.2,13.7c-2.7,1.1-7.2,4.2-12.4,7.9
			c5.1,0.8,8.5,1.5,8.5,1.5s9.8,2.3,21.1,2.3c7.9,0,16.6-1.1,23.2-5c6.8-4,13-9.8,16.6-18.6C147,303.8,146.8,303.2,146.5,302.5"/>
		<path style="clip-path:url(#SVGID_4_);fill:#F04400;" d="M59.2,322.7c-9.3,0-18.9,1.4-24.9,5.9c-5,3.8-9.8,6.2-14.3,7.7
			c2.1,1.3,4.2,2.4,6.2,3.5c4.5,1.9,9.4,3,14.5,3c2.9,0,5.9-0.3,8.8-1.1c6.6-1.7,18.6-10.6,28.3-17.5
			C72.8,323.4,66.1,322.7,59.2,322.7"/>
		<path style="clip-path:url(#SVGID_4_);fill:#F04400;" d="M53,251.8C25.7,263.6,1.5,290,4.9,313.3c1.3,8.9,6.6,16.8,14,22.2
			c0.4,0.2,0.8,0.5,1.2,0.7c4.5-1.4,9.3-3.9,14.3-7.7c5.9-4.5,15.5-5.9,24.9-5.9c6.9,0,13.6,0.7,18.6,1.5c5.2-3.7,9.8-6.8,12.4-7.9
			c23.1-9.1,46.6-5.6,56.2-13.7c-3.3-7.3-11.5-14.4-27.1-14.4c-1.2,0-2.5,0-3.9,0.1c-1.9,0.1-3.6,0.2-5.3,0.2
			c-11.7,0-20.2-3.9-31.9-15.1C74.2,269.5,65.1,259.3,53,251.8"/>
	</g>
	<g id="矩形_10_24_" style="clip-path:url(#SVGID_2_);">
		<g>
			<path style="fill-rule:evenodd;clip-rule:evenodd;fill:#FB5701;" d="M70,6.1c-0.6-5.8-5.6-9.9-11.3-9.3c-4.8,0.5-8.5,4.4-9.1,9.1
				c-0.1,0.8-0.1,1.6,0,2.5c0.6,5.8,5.6,9.9,11.3,9.3c4.8-0.5,8.5-4.4,9.1-9.1C70.1,7.8,70.1,7,70,6.1z M46.6,18.1
				c-2.5-0.2-4.7,1.6-5,4c0,0.1,0,0.2,0,0.2c-0.2,2.5,1.7,4.7,4.3,4.9c2.5,0.2,4.7-1.6,5-4c0-0.1,0-0.2,0-0.2
				C51.1,20.6,49.2,18.3,46.6,18.1z"/>
		</g>
	</g>
</g>
<g id="矩形_5_拷贝__x2B__v_xA0_剪贴路径_18_">
	<rect x="2.4" y="1.1" style="fill:none;" width="69.3" height="297"/>
</g>
<g id="矩形_5_拷贝__x2B__v_xA0_剪贴路径_17_">
	<rect x="1.7" y="1.1" style="fill:none;" width="69.3" height="297"/>
</g>
<g>
	<defs>
		<rect id="SVGID_5_" x="2.1" y="24.8" width="61.8" height="263.2"/>
	</defs>
	<clipPath id="SVGID_6_">
		<use xlink:href="#SVGID_5_"  style="overflow:visible;"/>
	</clipPath>
	<ellipse style="opacity:0.3;clip-path:url(#SVGID_6_);fill:#60391F;" cx="30.9" cy="267.4" rx="56.7" ry="8.1"/>
	<g id="形状_14_24_" style="clip-path:url(#SVGID_6_);">
		<g>
			<path style="fill-rule:evenodd;clip-rule:evenodd;fill:#CC7123;" d="M105.4,179.2c-0.6-0.4-1.8-1.1-2.3-1.6
				c-0.7-0.7-1.1,0-0.4,0.6c0.9,0.7,2.7,1.6,4.2,1.9c0.5,0.1,0.8,0,0.8,0S106.6,179.9,105.4,179.2z"/>
		</g>
	</g>
	<path style="clip-path:url(#SVGID_6_);fill-rule:evenodd;clip-rule:evenodd;fill:#DD7528;" d="M22.5,305.4
		c-7.1,1.9-6.3,5.2-5.2,7.9c0.1,0.3,0.3,0.6,0.5,1c0.4,0.1,0.9,0.1,1.3,0.2c-2.5-5.7,1.1-7.4,4.2-8.6
		C24.6,305.4,23.5,305.2,22.5,305.4z"/>
	<path style="clip-path:url(#SVGID_6_);fill-rule:evenodd;clip-rule:evenodd;fill:#DD7528;" d="M22.8,305.2
		c-6.1,1.4-5.2,6.5-4.2,8.9c0.1,0.3,0.2,0.5,0.3,0.8c0.4,0,0.8,0,1.2,0c-1.7-5.2,0.5-7.5,2.3-8.7C23.4,305.5,25,304.7,22.8,305.2z"
		/>
	<path style="clip-path:url(#SVGID_6_);fill-rule:evenodd;clip-rule:evenodd;fill:#DD7528;" d="M156.7,314.2
		c0.1-0.2,0.2-0.5,0.3-0.7c0.8-2.6-0.1-7.2-5.1-8.5c-2.7-0.7-1.6,0.6-0.3,1c3,1,4.5,4.5,3.2,8.5C155.4,314.4,156,314.3,156.7,314.2z
		"/>
	<path style="clip-path:url(#SVGID_6_);fill-rule:evenodd;clip-rule:evenodd;fill:#DD7528;" d="M139,314.2c1.4-3.2,0.2-7.9-3.3-9.2
		c-1.4-0.3-0.1,0.9,0.9,1.9c1.3,1.4,2,4.7,0.8,7.2c-0.2,0.4-0.3,0.6-0.4,0.8c0.5,0,1,0,1.5,0C138.7,314.7,138.9,314.5,139,314.2z"/>
	<g id="形状_13_19_" style="clip-path:url(#SVGID_6_);">
		<g>
			<path style="fill:#FF9B48;" d="M22.9,139c0,0-10,4.3-20,14.1c-12.9,11.7-20,18.4-26.1,20.2c-1,0.5-4.5,1.7-6.8,2.3
				c-3,0.8-6.2,0.8-7.2,1.9c-0.5,0.6-0.2,1.5,0.3,1.9c0.5,0.4,2.1,0.4,2.1,0.4s-4.4,1.3-2.8,4c1.5,2.5,11.5-4.6,11.9-1.5
				c0.2,1.7-5.3,2.9-2.7,5c1.2,0.9,5.2-1.4,8-3.9c2-1.8,4-4.9,10.2-9.3c5.1-3.5,14.6-9.2,24.7-13.4C37.1,151.4,22.9,139,22.9,139z"
				/>
		</g>
	</g>
	<g id="形状_13_17_" style="clip-path:url(#SVGID_6_);">
		<g>
			<path style="fill-rule:evenodd;clip-rule:evenodd;fill:#FF9B48;" d="M100.9,179.8c0,0,1.6,0,2.1-0.4c0.5-0.4,0.8-1.3,0.3-1.9
				c-1-1.1-4.1-1.2-7.2-1.9c-2.3-0.6-5.8-1.7-6.8-2.3c-6-1.8-13.1-8.6-26.1-20.2c-9.9-9.8-20.7-14.2-20.7-14.2s-13.5,12.5,9.1,21.9
				c10.1,4.2,19.6,9.9,24.7,13.4c6.3,4.3,8.2,7.5,10.2,9.3c2.8,2.5,6.8,4.8,8,3.9c2.6-2.1-2.9-3.3-2.7-5c0.4-3.1,10.4,3.9,11.9,1.5
				C105.3,181.1,100.9,179.8,100.9,179.8z"/>
		</g>
	</g>
	
		<radialGradient id="SVGID_7_" cx="493.2091" cy="135.2612" r="98.9036" gradientTransform="matrix(0.473 0 0 0.4397 -198.4854 102.1006)" gradientUnits="userSpaceOnUse">
		<stop  offset="0" style="stop-color:#FFC07D"/>
		<stop  offset="0.5713" style="stop-color:#FEB162"/>
		<stop  offset="1" style="stop-color:#FEA852"/>
	</radialGradient>
	<path style="clip-path:url(#SVGID_6_);fill-rule:evenodd;clip-rule:evenodd;fill:url(#SVGID_7_);" d="M103.5,269.3
		c-6.7,2.4-20.7,1.5-28.8,1.1c-8.4-0.4-26.2-2.9-29.5-3.8c-7-1.9-3-6.3-2.4-9.4c0.7-3.2,1-6.5,0.9-10c-0.1-1.2-0.1-3.4-2.2-3.2
		c-2.2,0.7-4.3,1.1-6.3,1.2c0,0,0,0,0,0c-0.2,0-0.3,0-0.5,0c-0.1,0-0.2,0-0.3,0c-0.1,0-0.2,0-0.3,0c-0.1,0-0.3,0-0.5,0
		c-0.1,0-0.1,0-0.2,0c-0.1,0-0.3,0-0.5,0c-0.1,0-0.2,0-0.2,0c-0.1,0-0.2,0-0.4,0c-0.1,0-0.2,0-0.4,0c-0.1,0-0.2,0-0.2,0
		c-0.2,0-0.3,0-0.5,0c-0.1,0-0.1,0-0.2,0c-0.2,0-0.3,0-0.5,0c-0.1,0-0.2,0-0.3,0c-0.1,0-0.2,0-0.3,0c-0.2,0-0.3,0-0.5,0c0,0,0,0,0,0
		c-1.9-0.2-4-0.6-6.3-1.2c-2.1-0.1-2.1,2.1-2.2,3.2c-0.2,3.5,0.2,6.7,0.9,10c0.7,3.2,4.7,7.5-2.4,9.4c-3.3,0.9-22.8,3.3-31.2,3.9
		c-9,0.6-23.8,0.7-28.1-1.1c-2.4-1-2.5-7,3.9-10.3c8-4.1,41.2-2.3,43.3-2.4c4.6-0.3,3.7-1.8,3.7-4.1c0.1-4.3-3.5-6.6-6.5-8.5
		c-3-1.9-18.3-8.6-18.3-23.4c0-7.6,2.1-17.9,11.9-32.5c23.9-35.6,24.8-55.5,24.8-55.5l1.9-0.1c0.1-0.4,0.1-0.6,0.1-0.6l7.1,0.3
		l7.1-0.3c0,0,0,0.2,0.1,0.6l1.9,0.1c0,0,0.9,19.9,24.8,55.5c9.8,14.6,11.9,24.9,11.9,32.5c0,14.8-15.2,21.5-18.3,23.4
		c-3,1.9-6.6,4.1-6.5,8.5c0,2.3-0.7,4.4,3.9,4.5c2.2,0,35.2-2,43.2,2C107,262.4,105.9,268.5,103.5,269.3z"/>
	<path style="clip-path:url(#SVGID_6_);fill-rule:evenodd;clip-rule:evenodd;fill:#DD7528;" d="M-218.1,261.5
		c-5.9,1.3-5,6.3-4.1,8.7c0.1,0.3,0.2,0.5,0.3,0.7c0.4,0,0.8,0,1.2,0c-1.7-5.1,0.5-7.3,2.2-8.5C-217.6,261.8-216,261-218.1,261.5z"
		/>
	<path style="clip-path:url(#SVGID_6_);fill-rule:evenodd;clip-rule:evenodd;fill:#DD7528;" d="M-95.9,270.3
		c0.1-0.2,0.2-0.4,0.3-0.7c0.8-2.5-0.1-7-4.9-8.2c-2.7-0.7-1.5,0.6-0.3,0.9c2.9,1,4.4,4.4,3.1,8.3
		C-97.1,270.5-96.5,270.4-95.9,270.3z"/>
	<path style="clip-path:url(#SVGID_6_);fill-rule:evenodd;clip-rule:evenodd;fill:#DD7528;" d="M-105,270.3c1.4-3.1,0.2-7.7-3.2-9
		c-1.3-0.3-0.1,0.8,0.9,1.8c1.3,1.3,2,4.6,0.8,7c-0.2,0.3-0.3,0.6-0.4,0.8c0.5,0,1,0,1.4,0C-105.2,270.8-105.1,270.5-105,270.3z"/>
	<g id="形状_12_9_" style="clip-path:url(#SVGID_6_);">
		<g>
			
				<linearGradient id="SVGID_8_" gradientUnits="userSpaceOnUse" x1="52.966" y1="159.7399" x2="52.2386" y2="94.2726" gradientTransform="matrix(1 0 0 1 -20.2971 42.7348)">
				<stop  offset="0" style="stop-color:#FFC28A"/>
				<stop  offset="0.7938" style="stop-color:#FFCD9F"/>
				<stop  offset="1" style="stop-color:#FFD0A5"/>
			</linearGradient>
			<path style="fill-rule:evenodd;clip-rule:evenodd;fill:url(#SVGID_8_);" d="M43.7,159.5c-5-8.1-17.3-7.3-22.2,0.6
				c-5.9,9.6-13,35.6-8,50.4c4.2,12.2,33.2,13,37.7,1.3C57.3,196.1,49,168.1,43.7,159.5z"/>
		</g>
	</g>
	<path style="opacity:0.6;clip-path:url(#SVGID_6_);fill-rule:evenodd;clip-rule:evenodd;fill:#DD7528;" d="M-1.5,197.3
		c0,0,13.4,3.3,35,3.3c20.4,0,24.1-1.2,34.8-3.6C68.7,197.3,35.5,255-1.5,197.3z"/>
	<g id="形状_11_拷贝_2_9_" style="clip-path:url(#SVGID_6_);">
		<g>
			<path style="fill-rule:evenodd;clip-rule:evenodd;fill:#FFBF80;" d="M67.5,197.3c-0.3,0.2-0.6,0.3-0.9,0.4
				c-9.9,4.4-21.6,5.8-30.8,6.1c-9,0.1-22.4-0.7-33.4-5.1c-1-0.4-2.3-0.8-3.3-1.3c-2.5-1.2-3,1.9-3,3.8c0.1,7.9,1.9,32.9,24.6,41.4
				c0.9,0.6,3.7,2,9.3,2.3c1.8,0.3,3.9,0.2,6,0c0.2,0,0.4,0,0.7,0c3.4-0.4,6.5-1.2,9.2-2.4c0.2-0.1,0.3-0.1,0.3-0.1v0
				c17.2-7.6,22.1-29.6,23.5-40.3c0.1-0.8,0.2-1.5,0.2-2.2C70.3,197,68.4,196.8,67.5,197.3z"/>
		</g>
	</g>
	<path style="opacity:0.6;clip-path:url(#SVGID_6_);fill-rule:evenodd;clip-rule:evenodd;fill:#DD7528;" d="M41.5,132.7
		c-2.7,1.6-6.3,3.7-8.3,4c-3.1,0.5-6.5-0.1-10-4c0,0.3-0.1,1.6-0.6,4c1,3.2,3.1,6.6,7.7,7.1c5.4,0.6,9.4-3.7,11.8-7.5
		C41.7,134,41.6,132.8,41.5,132.7L41.5,132.7z"/>
	<g id="形状_9_9_" style="clip-path:url(#SVGID_6_);">
		<g>
			<path style="fill-rule:evenodd;clip-rule:evenodd;fill:#FFC07D;" d="M22.9,72.4C11.5,47.4-5.9,37.7-5.9,37.7s-4.5-2.8-5.1,0.3
				c-6.7,39.2,24.4,48,24.4,48S34.2,97.5,22.9,72.4z"/>
		</g>
	</g>
	<g id="形状_10_9_" style="clip-path:url(#SVGID_6_);">
		<g>
			<path style="fill-rule:evenodd;clip-rule:evenodd;fill:#FF9B48;" d="M19.3,78.2C15,59-1,52.3-1,52.3s-3.4-2.4-3.4,0.9
				C-3.1,78,17.5,81.9,17.5,81.9S20.3,82.7,19.3,78.2z"/>
		</g>
	</g>
	<g id="形状_9_拷贝_9_" style="clip-path:url(#SVGID_6_);">
		<g>
			<path style="fill:#FFC07D;" d="M77.5,38c-0.6-3.1-5.1-0.3-5.1-0.3S55,47.4,43.6,72.4c-11.4,25,9.5,13.5,9.5,13.5
				S84.2,77.2,77.5,38z"/>
		</g>
	</g>
	<g id="形状_10_拷贝_9_" style="clip-path:url(#SVGID_6_);">
		<g>
			<path style="fill:#FF9B48;" d="M67.5,52.3c0,0-16.1,6.6-20.4,25.9c-1,4.5,1.8,3.7,1.8,3.7s20.6-3.9,22-28.6
				C70.9,49.9,67.5,52.3,67.5,52.3z"/>
		</g>
	</g>
	<g id="脸_19_" style="clip-path:url(#SVGID_6_);">
		<g>
			
				<radialGradient id="SVGID_9_" cx="532.9598" cy="-10.0636" r="63.8776" gradientTransform="matrix(0.4729 6.220947e-03 -4.328510e-03 0.3291 -218.8042 135.5641)" gradientUnits="userSpaceOnUse">
				<stop  offset="0" style="stop-color:#FECD97"/>
				<stop  offset="1" style="stop-color:#FFC07A"/>
			</radialGradient>
			<path style="fill:url(#SVGID_9_);" d="M56.3,94.7c-1.1-3.6-2.2-8.7-3.7-13C49.3,72.1,41.5,68.9,33.2,69
				c-8.4,0.1-16.3,3.7-19.4,12.7c-1.5,4.3-2.4,9.4-3.5,13c-1.1,3.6-3.6,18.8,2.6,28.3c0,0.1,2.7,3.3,7.6,8.3
				c4.1,4.1,6.4,7.4,11.6,7.7c0,0,0.1,0,0.1,0c0,0,0.1,0,0.1,0c0.4,0,0.9,0,1.3,0c0.1,0,0.2,0,0.2,0c6.5-0.4,8.6-4.5,12.6-8.1
				c5.2-4.7,7.2-7.9,7.2-7.9C59.9,113.5,57.4,98.3,56.3,94.7z"/>
		</g>
	</g>
	<path style="clip-path:url(#SVGID_6_);fill-rule:evenodd;clip-rule:evenodd;fill:#66361F;" d="M33,97.8c-0.1,0.1,9-2.6,12.9-12.5
		c0-0.2,4.1,7.4,10.7,10.4c-0.1-0.4-0.2-0.7-0.3-1c-1-4.3-1.9-8.4-3.4-12.7C49.6,72.4,41.5,68.9,33.2,69
		c-8.4,0.1-16.3,3.7-19.4,12.7c-1.5,4.3-2.8,9.8-3.5,13c0,0.2-0.1,0.3-0.1,0.5c2.2-0.3,6.2-2.1,10-9.5C19.9,85.8,21.9,92.4,33,97.8z
		"/>
	<path style="clip-path:url(#SVGID_6_);fill-rule:evenodd;clip-rule:evenodd;fill:#E5432E;" d="M55.2,90.5c-0.4-1.6-0.9-3.4-1.3-5.1
		c-3.2-4.2-9.9-10.9-20.3-10.8c-12,0.1-17.8,6.5-20.8,10.6c-0.4,1.6-0.8,3.2-1.2,4.7c2.8-2.9,10.3-9.3,22-9.3
		C43.9,80.8,51.3,87,55.2,90.5z"/>
	<g id="形状_3_拷贝_9_" style="clip-path:url(#SVGID_6_);">
		<g>
			<path style="fill-rule:evenodd;clip-rule:evenodd;fill:#E5432E;" d="M54.8,43.5c-0.4-0.6-0.8-0.4-1.2-0.3
				c-14.5,6.8-19,19.6-20.3,26c-1.9-7.7-7.1-19.6-20.4-26.1c-0.5-0.3-1.2-0.4-1.4,0.5c0,0-4.7,21.5,17.1,32.5
				c-4.5,3.5-9.3,7.9,4.6,2.1c15.1,6.4,8.9,1.2,4.5-2C59.6,65.2,54.8,43.5,54.8,43.5z"/>
		</g>
	</g>
	<g id="形状_73_9_" style="clip-path:url(#SVGID_6_);">
		<g>
			<path style="fill-rule:evenodd;clip-rule:evenodd;fill:#AA2D24;" d="M32.6,66.7c0,0-1,2.2-0.8,5c0.2,3.2,1,4.7,1,3.5
				c0-0.9,0.4-4.1,0.6-5.9C33.4,68.7,32.6,66.7,32.6,66.7z"/>
		</g>
	</g>
	<g id="形状_82_9_" style="clip-path:url(#SVGID_6_);">
		<g>
			<path style="fill-rule:evenodd;clip-rule:evenodd;fill:#C13021;" d="M42.6,76.5c-0.6-0.3-2.9-1.3-3.3-1.1c-2,1.3-4.2,3.5-1.2,2.7
				C40.2,77.6,43.2,76.8,42.6,76.5z M27.3,75.5c-0.8-0.2-3.4,0.9-3.4,0.9s1,0.5,2.2,0.9c1.2,0.3,3.9,1.3,3.7,0.6
				C29.6,77,28.5,75.8,27.3,75.5z"/>
		</g>
	</g>
	<path style="clip-path:url(#SVGID_6_);fill-rule:evenodd;clip-rule:evenodd;fill:#FFCE99;" d="M23.7,109.1
		c-2.5-6.1-6.3-7.4-8.9-6.9c-4.9,0.9-5.5,3.4-5.5,3.2s-0.1-4.4,4-5.4c3.8-0.9,7.6,0.6,9.2,3.2c1.5,2.3,1.4,6,1.4,6"/>
	<path style="clip-path:url(#SVGID_6_);fill-rule:evenodd;clip-rule:evenodd;fill:#FFCE99;" d="M42.5,109.1c2.5-6.1,6.3-7.4,8.9-6.9
		c4.9,0.9,5.5,3.4,5.5,3.2c0-0.1,0.1-4.4-4-5.4c-3.8-0.9-7.6,0.6-9.2,3.2c-1.5,2.3-1.4,6-1.4,6"/>
	<g id="形状_4_19_" style="clip-path:url(#SVGID_6_);">
		<g>
			<path style="fill:#FFFFFF;" d="M17.9,102.6c-2-0.9-6.2-0.5-7.8,0.9c0,0-2.5,10.2,6.5,11.1c4.5,0.2,7-2.2,7.5-4.7
				C24.4,107.2,20.2,103.7,17.9,102.6z"/>
		</g>
	</g>
	<g id="形状_6_19_" style="clip-path:url(#SVGID_6_);">
		<g>
			<path style="fill-rule:evenodd;clip-rule:evenodd;fill:#512A15;" d="M22.2,105c0,0-2.3-3.1-5.3-3.9c-1.1-0.3-3.6,0.3-3.6,0.3
				s-3.6,3-0.9,8c1.6,2.6,4.1,3.8,6.3,3.5c2.7-0.3,4.3-2.2,4.5-4.4C23.5,106.5,22.2,105,22.2,105z"/>
		</g>
	</g>
	<g id="形状_48_9_" style="clip-path:url(#SVGID_6_);">
		<g>
			<path style="fill:#FFFFFF;" d="M11.6,109c-0.4,0.8,0,1.8,0.7,1.9c1.3,0.3,2.8-0.9,2.6-2.1C14.8,108,12.1,107.9,11.6,109z"/>
		</g>
	</g>
	<g id="形状_36_副本_19_" style="clip-path:url(#SVGID_6_);">
		<g>
			<path style="fill-rule:evenodd;clip-rule:evenodd;fill:#A85726;" d="M21.1,96.7c-3.3-1.4-6.7-0.9-6.2,0.4
				c0.2,0.6,1.9-0.4,4.6,0.4c3.7,1.2,3.5,3.2,4.4,3C25.4,100.1,23,97.5,21.1,96.7z"/>
		</g>
	</g>
	<g id="形状_4_17_" style="clip-path:url(#SVGID_6_);">
		<g>
			<path style="fill:#FFFFFF;" d="M56.5,103.6c-1.6-1.4-5.8-1.7-7.8-0.9c-4.8,1.8-6.6,4.6-6.1,7.3c0.4,2.6,3,4.9,7.5,4.7
				C59,113.8,56.5,103.6,56.5,103.6z"/>
		</g>
	</g>
	<g id="形状_6_17_" style="clip-path:url(#SVGID_6_);">
		<g>
			<path style="fill-rule:evenodd;clip-rule:evenodd;fill:#512A15;" d="M53.4,102c0,0-2-0.5-3.2-0.3c-3,0.7-5.5,2.6-5.5,2.6
				c0,0-0.9,3.3-0.4,4.7c1,2.7,1.9,3.8,4.7,3.9c2.2,0.1,4.8-0.8,5.7-3.9C55.9,105.3,53.4,102,53.4,102z"/>
		</g>
	</g>
	<g id="形状_48_副本_9_" style="clip-path:url(#SVGID_6_);">
		<g>
			<path style="fill:#FFFFFF;" d="M47,109.2c-0.6-1.1-3,0.2-3.1,1c-0.2,1.3,0.5,1.7,1.5,1.4C46.6,111.3,47.5,110.2,47,109.2z"/>
		</g>
	</g>
	<g id="形状_36_副本_17_" style="clip-path:url(#SVGID_6_);">
		<g>
			<path style="fill-rule:evenodd;clip-rule:evenodd;fill:#A85726;" d="M45.5,96.7c-1.9,0.8-4.3,3-3.3,3.7c1,0.7,1.6-1.6,4.2-2.5
				c3.2-1.1,5.6,0.1,5.8-0.7C52.4,95.9,48.8,95.4,45.5,96.7z"/>
		</g>
	</g>
	<g id="Shape_2_17_" style="clip-path:url(#SVGID_6_);">
		<g>
			<path style="fill-rule:evenodd;clip-rule:evenodd;fill:#9C6342;" d="M55.4,112.4c0.9-1.4,1-2.7,0.8-2.2c-0.6,1.2-1.4,2.6-3.2,3.4
				c-1.7,0.8-3.7,0.8-5.1,0.9c-1.2,0,2.4,0.9,5.1-0.1c0.2,0.1,0.5,0.2,0.8,0.3c0.4,0.2,1,0.6,1,0.4c-0.1-0.4-0.3-1-0.6-1.3
				c0.3-0.2,0.5-0.4,0.7-0.6c0.1,0,0.2,0,0.4,0.1c0.6,0.1,1.1,0.7,1.1,0.4C56.3,113.3,56,112.7,55.4,112.4z"/>
		</g>
	</g>
	<g id="形状_65_副本_19_" style="clip-path:url(#SVGID_6_);">
		<g>
			<path style="fill-rule:evenodd;clip-rule:evenodd;fill:#713D1F;" d="M60,102.4c-0.2,0.3-0.7,0.8-1.3,1.1c-0.5,0.2-1.3,0.4-2,0.2
				c0,0,0-0.1-0.1-0.1c-0.5-1-2.1-2.1-3.6-2.3c-2.4-0.5-4.5-0.2-6.3,0.6c-2.4,1.1-4,3.2-4.5,6.1c-0.2,1.2,0.1,1.9,0.4,0.9
				c0.9-2.6,1.7-4,4.1-5.3c1.9-1,4.2-1.7,7.5-0.1c1.1,0.6,1.8,1.7,2,2.5c0.1,0.3,0.4,1.3,0.5,0.6c0-0.3,0.1-0.6,0.1-1
				c0.2,0,0.6,0,1.2-0.2c0.5-0.2,1.3-0.8,1.6-1.5C60.2,103.1,60.3,101.9,60,102.4z"/>
		</g>
	</g>
	<g id="Shape_2_15_" style="clip-path:url(#SVGID_6_);">
		<g>
			<path style="fill-rule:evenodd;clip-rule:evenodd;fill:#9C6342;" d="M18.4,114.5c-1.4,0-3.4-0.1-5.1-0.9
				c-1.8-0.9-2.6-2.2-3.2-3.4c-0.3-0.5-0.1,0.9,0.8,2.2c-0.5,0.3-0.9,0.8-0.9,1.2c0,0.3,0.5-0.3,1.1-0.4c0.2,0,0.3,0,0.4-0.1
				c0.2,0.2,0.4,0.4,0.7,0.6c-0.3,0.3-0.6,0.9-0.6,1.3c0,0.2,0.6-0.2,1-0.4c0.3-0.2,0.6-0.3,0.8-0.3C16,115.4,19.7,114.5,18.4,114.5
				z"/>
		</g>
	</g>
	<g id="形状_65_副本_17_" style="clip-path:url(#SVGID_6_);">
		<g>
			<path style="fill-rule:evenodd;clip-rule:evenodd;fill:#713D1F;" d="M23.9,108c-0.5-2.9-2.1-5-4.5-6.1c-1.8-0.8-3.9-1.1-6.3-0.6
				c-1.4,0.3-2.7,1.2-3.2,1.9c-0.1,0.2-0.2,0.3-0.3,0.5c0,0,0,0,0,0c-0.7,0.3-1.6,0.1-2.1-0.2c-0.6-0.3-1.2-0.8-1.3-1.1
				C6,101.9,6,103.1,6.4,104c0.4,0.7,1.2,1.3,1.7,1.5c0.6,0.3,1.1,0.3,1.3,0.2c0,0.4,0,0.7,0,1c0.1,0.7,0.4-0.1,0.5-0.3
				c0.4-1.2,0.8-2.3,2-2.8c3.4-1.7,5.7-0.9,7.5,0.1c2.4,1.3,3.2,2.9,4.1,5.3C23.9,109.9,24.2,109.2,23.9,108z"/>
		</g>
	</g>
	<g id="腮红2_9_" style="clip-path:url(#SVGID_6_);">
		<g>
			<path style="fill-rule:evenodd;clip-rule:evenodd;fill:#FFA083;" d="M17.6,117.6c-3.5-0.4-5.1,0.8-5.1,1.9c0,0.9,1.3,2.7,4.6,2.9
				c4.1,0.2,5.3-1.1,5.4-1.8C22.5,119.8,22,118,17.6,117.6z"/>
		</g>
	</g>
	<g id="腮红2_副本_9_" style="clip-path:url(#SVGID_6_);">
		<g>
			<path style="fill-rule:evenodd;clip-rule:evenodd;fill:#FFA083;" d="M48.9,117.6c-4.4,0.5-4.9,2.2-4.8,3c0,0.7,1.3,2,5.4,1.8
				c3.3-0.2,4.6-2,4.6-2.9C54,118.4,52.4,117.2,48.9,117.6z"/>
		</g>
	</g>
	<path style="clip-path:url(#SVGID_6_);fill-rule:evenodd;clip-rule:evenodd;fill:#512A15;" d="M32.9,136.6c-2.2,0-5.8-2-5.5-4.3
		c0.2-1.8,2-2.4,5.6-2.4c3.6,0,5.4,0.6,5.6,2.4C38.7,134.3,35.8,136.6,32.9,136.6z"/>
	<g id="形状_20_9_" style="clip-path:url(#SVGID_6_);">
		<g>
			<path style="fill:#FCEACB;" d="M24.7,176.6c-6.7-5.2-15-1.8-15-0.5c0.6,14.1,14.1,12.7,14.1,12.7c4.7-0.5,5.3-3.8,5.3-3.8
				S29.1,180.1,24.7,176.6z"/>
		</g>
	</g>
	<g id="形状_21_9_" style="clip-path:url(#SVGID_6_);">
		<g>
			<path style="fill:#FFBD99;" d="M27,184.4c-0.9-4.9-10.9-6.4-10.8-4.5c0.5,7.9,9.3,7.2,9.3,7.2S27.3,186.9,27,184.4z"/>
		</g>
	</g>
	<g id="形状_20_拷贝_9_" style="clip-path:url(#SVGID_6_);">
		<g>
			<path style="fill:#FCEACB;" d="M40.9,177.2c-4.6,4.2-3.3,9.3-3.3,9.3s0.4,1.9,5.1,2.4c0,0,13.5,1.4,14.1-12.8
				C56.8,174.8,48.2,170.6,40.9,177.2z"/>
		</g>
	</g>
	<g id="形状_21_拷贝_9_" style="clip-path:url(#SVGID_6_);">
		<g>
			<path style="fill-rule:evenodd;clip-rule:evenodd;fill:#FFBD99;" d="M39.4,184.4c-0.3,2.5,1.4,2.8,1.4,2.8s8.9,0.7,9.4-7.2
				C50.3,178,40.3,179.6,39.4,184.4z"/>
		</g>
	</g>
	<g id="形状_23_9_" style="opacity:0.4;clip-path:url(#SVGID_6_);">
		<g>
			<path style="fill-rule:evenodd;clip-rule:evenodd;fill:#DD7528;" d="M43.2,204.6c-5.5-1-20.3-2-21.9,1.7
				c-1.6,3.7-5.4,1.9-4.6,12.4c0,0,1.3,6.7,6.5,5.4c1.6-0.6,2.2-2.8,2.2-5c0-2.2,0.9-2.3,2.9-2.3c4.5,0.1,7,0.5,10.1-1.5
				c1.7-1.1,2.8,1.4,2.5,4.1c-0.3,3.1,0.3,4.4,2.8,4.9c2.3,0.5,4.2-0.5,4.9-2.9c0.7-2.5,0.9-5.2,0.9-5.2S48.7,205.6,43.2,204.6z"/>
		</g>
	</g>
	<path style="clip-path:url(#SVGID_6_);fill-rule:evenodd;clip-rule:evenodd;fill:#FCEBCE;" d="M44.2,197.4c0,0,6,4.1,5.7,17.6
		c-0.2,4.6-2.4,6.9-4.8,6.8c-2.4-0.1-2.6-2.7-2.3-5.5c0.1-1.1,0.4-4.5-0.8-9.3C40.8,202.1,44.2,197.4,44.2,197.4z"/>
	<path style="clip-path:url(#SVGID_6_);fill-rule:evenodd;clip-rule:evenodd;fill:#FCEBCE;" d="M20.8,199c0,0-4.8,4.6-4.4,15.6
		c0.2,4.6,2.3,7.2,4.8,7.1c2.4-0.2,2.5-2.1,2.4-4.2c-0.1-1.9-0.5-5,0.8-9.8C25.5,202.9,20.8,199,20.8,199z"/>
	<path style="clip-path:url(#SVGID_6_);fill-rule:evenodd;clip-rule:evenodd;fill:#F6BF96;" d="M44.7,218.4c-0.1,0.9-0.2,2.4-0.5,3
		c0.1,0.1,0.2,0.1,0.4,0.1c0.1-0.4,0.3-1,0.4-1.6C45.1,218.5,44.8,217,44.7,218.4z"/>
	<path style="clip-path:url(#SVGID_6_);fill-rule:evenodd;clip-rule:evenodd;fill:#F6BF96;" d="M46.6,218.5c0,0.7,0,2.2-0.4,3.1
		c0.2-0.1,0.4-0.1,0.6-0.2c0.2-0.5,0.2-1.2,0.3-1.7C47.1,218.5,46.6,217.6,46.6,218.5z"/>
	<path style="clip-path:url(#SVGID_6_);fill-rule:evenodd;clip-rule:evenodd;fill:#F6BF96;" d="M22,220c-0.2-0.8-0.6-2.6-0.7-2.1
		c-0.1,0.9,0.1,2.1,0.4,3c0.1,0.2,0.2,0.5,0.3,0.6c0.2-0.1,0.4-0.2,0.6-0.3C22.3,220.9,22.1,220.5,22,220z"/>
	<path style="clip-path:url(#SVGID_6_);fill-rule:evenodd;clip-rule:evenodd;fill:#F6BF96;" d="M20.1,220.3
		c-0.5-1.4-0.6-2.9-0.7-1.8c-0.1,1.2,0.2,2.2,0.7,3c0,0.1,0.1,0.1,0.1,0.2c0.2,0,0.3,0,0.5,0C20.5,221.3,20.3,220.8,20.1,220.3z"/>
	<g id="脸_17_" style="clip-path:url(#SVGID_6_);">
		<g>
			<path style="fill:#FCEBCE;" d="M45.1,193.4c-2.3-8.3-7.9-10.4-11.9-10.4C29.1,182.9,23,185,21,193.2c-0.4,2.8-2,5.1-1.4,8.7
				c0.5,3.6,1.7,5.3,6.7,8.7c1,0.8,1.8,0.8,3,1.7c1.2,0.9,2.6,1.3,5,1.1c0,0,0.1,0,0.1,0c1-0.2,1.7-0.5,2.4-1c1.2-0.9,2-0.9,3-1.7
				c5-3.4,6.2-5.1,6.7-8.7C47.1,198.3,45.6,195,45.1,193.4z"/>
		</g>
	</g>
	<g id="形状_77_8_" style="clip-path:url(#SVGID_6_);">
		<g>
			
				<ellipse transform="matrix(8.526316e-02 -0.9964 0.9964 8.526316e-02 -182.9946 210.4688)" style="fill-rule:evenodd;clip-rule:evenodd;fill:#FFBD99;" cx="23.1" cy="204.9" rx="1.1" ry="1.9"/>
		</g>
	</g>
	<g id="形状_77_副本_9_" style="clip-path:url(#SVGID_6_);">
		<g>
			
				<ellipse transform="matrix(-3.271978e-02 -0.9995 0.9995 -3.271978e-02 -160.8238 254.1447)" style="fill:#FFBD99;" cx="42.6" cy="204.9" rx="1.1" ry="2"/>
		</g>
	</g>
	<path style="clip-path:url(#SVGID_6_);fill:#F7CC9D;" d="M25.7,189.5c0.4,1.7,1.3,2,2.4,2.2c1.3,0.2,2.1-1.1,2.5-1.6
		c0,0,0.9,1.7,2.1,2.1c1.3,0.4,2.2,0,2.7-0.9c0.3-0.5,0.2-1.4,0.2-1.4s1.1,1.2,2.7,0.7c1-0.3,1.1-1.1,1.1-1.7
		c0.1-0.6-0.1-1.1-0.1-1.1s1.1,1.2,0.8,2.6c-0.2,1-1.1,1.7-2.1,1.5c-0.8-0.1-1.9-0.9-1.9-0.9s-0.1,1.3-1,1.9c-0.9,0.6-2.2,0.5-3,0.1
		c-0.8-0.5-1.6-1.6-1.6-1.6s-0.5,1.1-1.6,1.6c-0.7,0.3-2,0.4-2.8-0.8C25.4,191,25.7,189.5,25.7,189.5z"/>
	<g id="形状_75_9_" style="clip-path:url(#SVGID_6_);">
		<g>
			<path style="fill-rule:evenodd;clip-rule:evenodd;fill:#552F19;" d="M23.5,200.4c-2.1-0.2-2.6,0-2.5,0.4c0.1,0.3,0.5-0.1,2.4,0.3
				c3.1,0.6,4.4,2.7,4.8,1.8C28.6,202.1,26,200.6,23.5,200.4z"/>
		</g>
	</g>
	<g id="形状_75_副本_9_" style="clip-path:url(#SVGID_6_);">
		<g>
			<path style="fill-rule:evenodd;clip-rule:evenodd;fill:#713D1F;" d="M42.7,200.4c-2.5,0.2-5,1.6-4.7,2.6c0.3,0.9,1.7-1.2,4.8-1.8
				c1.9-0.4,2.3,0,2.4-0.3C45.4,200.4,44.8,200.2,42.7,200.4z"/>
		</g>
	</g>
	<g id="形状_19_9_" style="clip-path:url(#SVGID_6_);">
		<g>
			<path style="fill:#57301B;" d="M33,209.9c-3.9,0-3.5,1.2-3.5,1.2s0.7,2.4,3.7,2.4c3-0.1,3.5-2.4,3.5-2.4S36.9,209.9,33,209.9z"/>
		</g>
	</g>
</g>
<g>
	<g id="边距定位点_3_">
		<g>
			<path style="fill-rule:evenodd;clip-rule:evenodd;fill:#FF3029;" d="M460.3,1.1v16.5h16.5V1.1H460.3z M2,17.6h16.5V1.1H2V17.6z
				 M460.3,298h16.5v-16.5h-16.5V298z M2,298h16.5v-16.5H2V298z"/>
		</g>
	</g>
	<g id="米格参考线_3_" style="opacity:0.4;">
		<g>
			<polygon style="fill-rule:evenodd;clip-rule:evenodd;fill:#FF3029;" points="476.7,1.1 476.4,1.1 239.9,149.3 239.5,149.3 
				239.5,1.1 239.2,1.1 239.2,149.3 239.1,149.3 2.6,1.1 2.2,1.5 238.5,149.3 1.9,149.3 1.9,149.6 239.1,149.6 239.2,149.6 
				239.2,149.7 2.2,298 2.6,298 239.2,149.9 239.2,298 239.5,298 239.5,149.8 476.4,298 476.7,298 239.7,149.6 239.7,149.6 
				476.7,149.6 476.7,149.3 240.2,149.3 			"/>
		</g>
	</g>
	<g>
		<line style="fill-rule:evenodd;clip-rule:evenodd;fill:none;stroke:#FF0000;" x1="460.3" y1="17.6" x2="460.3" y2="281.4"/>
		<line style="fill-rule:evenodd;clip-rule:evenodd;fill:none;stroke:#FF0000;" x1="428.3" y1="17.6" x2="428.3" y2="281.4"/>
		<line style="fill-rule:evenodd;clip-rule:evenodd;fill:none;stroke:#FF0000;" x1="423" y1="17.6" x2="423" y2="281.4"/>
		<line style="fill-rule:evenodd;clip-rule:evenodd;fill:none;stroke:#FF0000;" x1="391" y1="17.6" x2="391" y2="281.4"/>
		<line style="fill-rule:evenodd;clip-rule:evenodd;fill:none;stroke:#FF0000;" x1="385.7" y1="17.6" x2="385.7" y2="281.4"/>
		<line style="fill-rule:evenodd;clip-rule:evenodd;fill:none;stroke:#FF0000;" x1="353.8" y1="17.6" x2="353.8" y2="281.4"/>
		<line style="fill-rule:evenodd;clip-rule:evenodd;fill:none;stroke:#FF0000;" x1="348.5" y1="17.6" x2="348.5" y2="281.4"/>
		<line style="fill-rule:evenodd;clip-rule:evenodd;fill:none;stroke:#FF0000;" x1="316.5" y1="17.6" x2="316.5" y2="281.4"/>
		<line style="fill-rule:evenodd;clip-rule:evenodd;fill:none;stroke:#FF0000;" x1="311.2" y1="17.6" x2="311.2" y2="281.4"/>
		<line style="fill-rule:evenodd;clip-rule:evenodd;fill:none;stroke:#FF0000;" x1="279.2" y1="17.6" x2="279.2" y2="281.4"/>
		<line style="fill-rule:evenodd;clip-rule:evenodd;fill:none;stroke:#FF0000;" x1="274" y1="17.6" x2="274" y2="281.4"/>
		<line style="fill-rule:evenodd;clip-rule:evenodd;fill:none;stroke:#FF0000;" x1="242" y1="17.6" x2="242" y2="281.4"/>
		<line style="fill-rule:evenodd;clip-rule:evenodd;fill:none;stroke:#FF0000;" x1="236.7" y1="17.6" x2="236.7" y2="281.4"/>
		<line style="fill-rule:evenodd;clip-rule:evenodd;fill:none;stroke:#FF0000;" x1="204.7" y1="17.6" x2="204.7" y2="281.4"/>
		<line style="fill-rule:evenodd;clip-rule:evenodd;fill:none;stroke:#FF0000;" x1="199.5" y1="17.6" x2="199.5" y2="281.4"/>
		<line style="fill-rule:evenodd;clip-rule:evenodd;fill:none;stroke:#FF0000;" x1="167.5" y1="17.6" x2="167.5" y2="281.4"/>
		<line style="fill-rule:evenodd;clip-rule:evenodd;fill:none;stroke:#FF0000;" x1="162.2" y1="17.6" x2="162.2" y2="281.4"/>
		<line style="fill-rule:evenodd;clip-rule:evenodd;fill:none;stroke:#FF0000;" x1="130.2" y1="17.6" x2="130.2" y2="281.4"/>
		<line style="fill-rule:evenodd;clip-rule:evenodd;fill:none;stroke:#FF0000;" x1="124.9" y1="17.6" x2="124.9" y2="281.4"/>
		<line style="fill-rule:evenodd;clip-rule:evenodd;fill:none;stroke:#FF0000;" x1="93" y1="17.6" x2="93" y2="281.4"/>
		<line style="fill-rule:evenodd;clip-rule:evenodd;fill:none;stroke:#FF0000;" x1="87.7" y1="17.6" x2="87.7" y2="281.4"/>
		<line style="fill-rule:evenodd;clip-rule:evenodd;fill:none;stroke:#FF0000;" x1="55.7" y1="17.6" x2="55.7" y2="281.4"/>
		<line style="fill-rule:evenodd;clip-rule:evenodd;fill:none;stroke:#FF0000;" x1="50.4" y1="17.6" x2="50.4" y2="281.4"/>
		<line style="fill-rule:evenodd;clip-rule:evenodd;fill:none;stroke:#FF0000;" x1="18.4" y1="17.6" x2="18.4" y2="281.4"/>
		<line style="fill-rule:evenodd;clip-rule:evenodd;fill:none;stroke:#FF0000;" x1="18.6" y1="281.5" x2="460.5" y2="281.5"/>
		<line style="fill-rule:evenodd;clip-rule:evenodd;fill:none;stroke:#FF0000;" x1="18.6" y1="264.4" x2="460.5" y2="264.4"/>
		<line style="fill-rule:evenodd;clip-rule:evenodd;fill:none;stroke:#FF0000;" x1="18.6" y1="259.1" x2="460.5" y2="259.1"/>
		<line style="fill-rule:evenodd;clip-rule:evenodd;fill:none;stroke:#FF0000;" x1="18.6" y1="241.9" x2="460.5" y2="241.9"/>
		<line style="fill-rule:evenodd;clip-rule:evenodd;fill:none;stroke:#FF0000;" x1="18.6" y1="236.7" x2="460.5" y2="236.7"/>
		<line style="fill-rule:evenodd;clip-rule:evenodd;fill:none;stroke:#FF0000;" x1="18.6" y1="219.5" x2="460.5" y2="219.5"/>
		<line style="fill-rule:evenodd;clip-rule:evenodd;fill:none;stroke:#FF0000;" x1="18.6" y1="214.2" x2="460.5" y2="214.2"/>
		<line style="fill-rule:evenodd;clip-rule:evenodd;fill:none;stroke:#FF0000;" x1="18.6" y1="197.1" x2="460.5" y2="197.1"/>
		<line style="fill-rule:evenodd;clip-rule:evenodd;fill:none;stroke:#FF0000;" x1="18.6" y1="191.8" x2="460.5" y2="191.8"/>
		<line style="fill-rule:evenodd;clip-rule:evenodd;fill:none;stroke:#FF0000;" x1="18.6" y1="174.6" x2="460.5" y2="174.6"/>
		<line style="fill-rule:evenodd;clip-rule:evenodd;fill:none;stroke:#FF0000;" x1="18.6" y1="169.4" x2="460.5" y2="169.4"/>
		<line style="fill-rule:evenodd;clip-rule:evenodd;fill:none;stroke:#FF0000;" x1="18.6" y1="152.2" x2="460.5" y2="152.2"/>
		<line style="fill-rule:evenodd;clip-rule:evenodd;fill:none;stroke:#FF0000;" x1="18.6" y1="146.9" x2="460.5" y2="146.9"/>
		<line style="fill-rule:evenodd;clip-rule:evenodd;fill:none;stroke:#FF0000;" x1="18.6" y1="129.8" x2="460.5" y2="129.8"/>
		<line style="fill-rule:evenodd;clip-rule:evenodd;fill:none;stroke:#FF0000;" x1="18.6" y1="124.5" x2="460.5" y2="124.5"/>
		<line style="fill-rule:evenodd;clip-rule:evenodd;fill:none;stroke:#FF0000;" x1="18.6" y1="107.3" x2="460.5" y2="107.3"/>
		<line style="fill-rule:evenodd;clip-rule:evenodd;fill:none;stroke:#FF0000;" x1="18.6" y1="102.1" x2="460.5" y2="102.1"/>
		<line style="fill-rule:evenodd;clip-rule:evenodd;fill:none;stroke:#FF0000;" x1="18.6" y1="84.9" x2="460.5" y2="84.9"/>
		<line style="fill-rule:evenodd;clip-rule:evenodd;fill:none;stroke:#FF0000;" x1="18.6" y1="79.6" x2="460.5" y2="79.6"/>
		<line style="fill-rule:evenodd;clip-rule:evenodd;fill:none;stroke:#FF0000;" x1="18.6" y1="62.5" x2="460.5" y2="62.5"/>
		<line style="fill-rule:evenodd;clip-rule:evenodd;fill:none;stroke:#FF0000;" x1="18.6" y1="57.2" x2="460.5" y2="57.2"/>
		<line style="fill-rule:evenodd;clip-rule:evenodd;fill:none;stroke:#FF0000;" x1="18.6" y1="40" x2="460.5" y2="40"/>
		<line style="fill-rule:evenodd;clip-rule:evenodd;fill:none;stroke:#FF0000;" x1="18.6" y1="34.8" x2="460.5" y2="34.8"/>
		<line style="fill-rule:evenodd;clip-rule:evenodd;fill:none;stroke:#FF0000;" x1="18.6" y1="17.6" x2="460.5" y2="17.6"/>
	</g>
</g>
</svg>
