<?xml version="1.0" encoding="utf-8"?>
<!-- Generator: Adobe Illustrator 16.0.0, SVG Export Plug-In . SVG Version: 6.00 Build 0)  -->
<!DOCTYPE svg PUBLIC "-//W3C//DTD SVG 1.1//EN" "http://www.w3.org/Graphics/SVG/1.1/DTD/svg11.dtd" [
	<!ENTITY ns_extend "http://ns.adobe.com/Extensibility/1.0/">
	<!ENTITY ns_ai "http://ns.adobe.com/AdobeIllustrator/10.0/">
	<!ENTITY ns_graphs "http://ns.adobe.com/Graphs/1.0/">
	<!ENTITY ns_vars "http://ns.adobe.com/Variables/1.0/">
	<!ENTITY ns_imrep "http://ns.adobe.com/ImageReplacement/1.0/">
	<!ENTITY ns_sfw "http://ns.adobe.com/SaveForWeb/1.0/">
	<!ENTITY ns_custom "http://ns.adobe.com/GenericCustomNamespace/1.0/">
	<!ENTITY ns_adobe_xpath "http://ns.adobe.com/XPath/1.0/">
]>
<svg version="1.1" id="图层_1" xmlns:x="&ns_extend;" xmlns:i="&ns_ai;" xmlns:graph="&ns_graphs;"
	 xmlns="http://www.w3.org/2000/svg" xmlns:xlink="http://www.w3.org/1999/xlink" x="0px" y="0px" width="926.5px"
	 height="572.75px" viewBox="0 0 926.5 572.75" enable-background="new 0 0 926.5 572.75" xml:space="preserve">
<metadata>
	<sfw  xmlns="&ns_sfw;">
		<slices></slices>
		<sliceSourceBounds  height="703.666" width="1186.438" x="-100.938" y="-70.833" bottomLeftOrigin="true"></sliceSourceBounds>
	</sfw>
</metadata>
<line fill="none" stroke="#DCDCDC" stroke-width="2" stroke-miterlimit="10" x1="0" y1="106.25" x2="137" y2="106.25"/>
<line fill="none" stroke="#DCDCDC" stroke-width="2" stroke-miterlimit="10" x1="137" y1="46.25" x2="0" y2="46.25"/>
<path fill="none" stroke="#333333" stroke-width="2" stroke-miterlimit="10" d="M0.5,106c0,0,52.167-59.75,136.5-59.75"/>
<line fill="none" stroke="#DCDCDC" stroke-width="2" stroke-miterlimit="10" x1="334" y1="106.25" x2="197" y2="106.25"/>
<line fill="none" stroke="#DCDCDC" stroke-width="2" stroke-miterlimit="10" x1="334" y1="46.25" x2="197" y2="46.25"/>
<path fill="none" stroke="#333333" stroke-width="2" stroke-miterlimit="10" d="M198.047,107.25c0-33.646,0.786-61,135.953-61"/>
<line fill="none" stroke="#DCDCDC" stroke-width="2" stroke-miterlimit="10" x1="531" y1="106.25" x2="394" y2="106.25"/>
<line fill="none" stroke="#DCDCDC" stroke-width="2" stroke-miterlimit="10" x1="531" y1="46.25" x2="394" y2="46.25"/>
<path fill="none" stroke="#333333" stroke-width="2" stroke-miterlimit="10" d="M394,106.25c97.667,0,28-60,137-60"/>
<line fill="none" stroke="#DCDCDC" stroke-width="2" stroke-miterlimit="10" x1="728" y1="106.25" x2="591" y2="106.25"/>
<line fill="none" stroke="#DCDCDC" stroke-width="2" stroke-miterlimit="10" x1="728" y1="46.25" x2="591" y2="46.25"/>
<line fill="none" stroke="#DCDCDC" stroke-width="2" stroke-miterlimit="10" x1="925" y1="106.25" x2="788" y2="106.25"/>
<line fill="none" stroke="#DCDCDC" stroke-width="2" stroke-miterlimit="10" x1="925" y1="46.25" x2="788" y2="46.25"/>
<path fill="none" stroke="#333333" stroke-width="2" stroke-miterlimit="10" d="M591.833,106.417C632.333,57.667,669,34.5,728,46.25
	"/>
<path fill="none" stroke="#333333" stroke-width="2" stroke-miterlimit="10" d="M789.042,107.125
	c0-22.477,4.624-56.174,13.458-66.875c6.179-7.484,12.686,14.227,21.833,12.667c5.438-0.927,10.116-9.344,16.354-10.417
	c3.469-0.596,8.438,6,13.188,6c8.644,0,16.521-3.932,25.312-4.812c15.234-1.528,20.875,4.374,45.812,2.562"/>
<rect y="137.917" fill="none" width="398" height="133"/>
<text transform="matrix(1 0 0 1 0 151.6123)" fill="#333333" font-family="'MicrosoftYaHeiUILight'" font-size="16">页面间的切换</text>
<rect y="174.583" fill="none" width="148.333" height="174"/>
<text transform="matrix(1 0 0 1 0 184.8291)" fill="#999999" font-family="'MicrosoftYaHeiUILight'" font-size="12">适用于页面跳转或页面刷新</text>
<text transform="matrix(1 0 0 1 0 214.8291)" fill="#999999" font-family="'MicrosoftYaHeiUILight'" font-size="12">后页面重组刷新效果。如：</text>
<text transform="matrix(1 0 0 1 0 244.8291)" fill="#999999" font-family="'MicrosoftYaHeiUILight'" font-size="12">用户打开新页面</text>
<rect x="197" y="137.917" fill="none" width="398" height="133"/>
<text transform="matrix(1 0 0 1 197 151.6123)" fill="#333333" font-family="'MicrosoftYaHeiUILight'" font-size="16">进场和退场</text>
<rect x="197" y="174.583" fill="none" width="145.333" height="174"/>
<text transform="matrix(1 0 0 1 197 184.8291)" fill="#999999" font-family="'MicrosoftYaHeiUILight'" font-size="12">适用于信息层级的进入和退</text>
<text transform="matrix(1 0 0 1 197 214.8291)" fill="#999999" font-family="'MicrosoftYaHeiUILight'" font-size="12">出、如：用户浏览浮层信息</text>
<text transform="matrix(1 0 0 1 197 244.8291)" fill="#999999" font-family="'MicrosoftYaHeiUILight'" font-size="12">进场、退场效果。</text>
<rect x="394" y="137.917" fill="none" width="398" height="133"/>
<text transform="matrix(1 0 0 1 394 151.666)" fill="#333333" font-family="'FZLTHK--GBK1-0'" font-size="16">唤醒和熄灭</text>
<rect x="394" y="174.583" fill="none" width="150.999" height="174"/>
<text transform="matrix(1 0 0 1 394 184.8291)" fill="#999999" font-family="'MicrosoftYaHeiUILight'" font-size="12">适用于阴影层级、区分页面</text>
<text transform="matrix(1 0 0 1 394 214.8291)" fill="#999999" font-family="'MicrosoftYaHeiUILight'" font-size="12">层级关系。如：弹出浮层后</text>
<text transform="matrix(1 0 0 1 394 244.8291)" fill="#999999" font-family="'MicrosoftYaHeiUILight'" font-size="12">页面黑色浮层熄灭。</text>
<rect x="591" y="137.917" fill="none" width="398" height="133"/>
<text transform="matrix(1 0 0 1 591 151.666)" fill="#333333" font-family="'FZLTHK--GBK1-0'" font-size="16">跟随并呼出</text>
<rect x="591" y="176.917" fill="none" width="150.999" height="174"/>
<text transform="matrix(1 0 0 1 591 187.1631)" fill="#999999" font-family="'MicrosoftYaHeiUILight'" font-size="12">适用于页面跟随浮层，组件</text>
<text transform="matrix(1 0 0 1 591 217.1631)" fill="#999999" font-family="'MicrosoftYaHeiUILight'" font-size="12">的呼出和展现。如：日历跟</text>
<text transform="matrix(1 0 0 1 591 247.1631)" fill="#999999" font-family="'MicrosoftYaHeiUILight'" font-size="12">随浮层、界面跟随浮层。</text>
<rect x="788" y="137.917" fill="none" width="398" height="133"/>
<text transform="matrix(1 0 0 1 788 151.666)" fill="#333333" font-family="'FZLTHK--GBK1-0'" font-size="16">跟随并呼出</text>
<rect x="788" y="174.583" fill="none" width="150.999" height="174"/>
<text transform="matrix(1 0 0 1 788 184.8291)" fill="#999999" font-family="'MicrosoftYaHeiUILight'" font-size="12">适用于页面信息反馈动作。</text>
<text transform="matrix(1 0 0 1 788 214.8291)" fill="#999999" font-family="'MicrosoftYaHeiUILight'" font-size="12">如：用户信息输入错误，弹</text>
<text transform="matrix(1 0 0 1 788 244.8291)" fill="#999999" font-family="'MicrosoftYaHeiUILight'" font-size="12">出错误提示浮层</text>
<linearGradient id="SVGID_1_" gradientUnits="userSpaceOnUse" x1="-8" y1="558.25" x2="918" y2="558.25" gradientTransform="matrix(1 0 0 1 8 -281)">
	<stop  offset="0" style="stop-color:#FFF1E8"/>
	<stop  offset="1" style="stop-color:#FF6600"/>
</linearGradient>
<rect y="272.25" fill="url(#SVGID_1_)" width="926" height="10"/>
<rect x="0.667" y="245.917" fill="none" width="272" height="130"/>
<text transform="matrix(1 0 0 1 0.6675 303.1885)" fill="#FF6600" font-family="'MicrosoftYaHeiUILight'" font-size="12">舒缓</text>
<rect x="902.668" y="292.917" fill="none" width="272" height="130"/>
<text transform="matrix(1 0 0 1 902.668 303.1885)" fill="#FF6600" font-family="'MicrosoftYaHeiUILight'" font-size="12">强烈</text>
<text transform="matrix(1 0 0 1 0 13.6123)" fill="#333333" font-family="'MicrosoftYaHeiUILight'" font-size="16">按基本展现规则划分</text>
<line fill="none" stroke="#DCDCDC" stroke-width="2" stroke-miterlimit="10" x1="0" y1="461.25" x2="137" y2="461.25"/>
<line fill="none" stroke="#DCDCDC" stroke-width="2" stroke-miterlimit="10" x1="137" y1="401.25" x2="0" y2="401.25"/>
<path fill="none" stroke="#333333" stroke-width="2" stroke-miterlimit="10" d="M0.5,461c0,0,20.602-56.047,43.5-70.75
	c11.791-7.571,26.583,25.867,41.5,30.5c8.331,2.588,14.178-17.537,23.667-23.666c3.775-2.438,8.84,12.683,13.667,14.333
	c4.827,1.651,9.416-10.167,14.166-10.167"/>
<rect y="492.917" fill="none" width="398" height="133"/>
<text transform="matrix(1 0 0 1 0 506.6123)" fill="#333333" font-family="'MicrosoftYaHeiUILight'" font-size="16">购物车小球掉落</text>
<rect y="529.583" fill="none" width="148.333" height="174"/>
<text transform="matrix(1 0 0 1 0 539.8291)" fill="#999999" font-family="'MicrosoftYaHeiUILight'" font-size="12">适用于步骤条中分段式步骤</text>
<text transform="matrix(1 0 0 1 0 569.8291)" fill="#999999" font-family="'MicrosoftYaHeiUILight'" font-size="12">提供连续的引导动作。</text>
<text transform="matrix(1 0 0 1 0 368.6123)" fill="#333333" font-family="'MicrosoftYaHeiUILight'" font-size="16">按场景功能划分</text>
</svg>
