<?xml version="1.0" encoding="utf-8"?>
<!-- Generator: Adobe Illustrator 17.1.0, SVG Export Plug-In . SVG Version: 6.00 Build 0)  -->
<!DOCTYPE svg PUBLIC "-//W3C//DTD SVG 1.1//EN" "http://www.w3.org/Graphics/SVG/1.1/DTD/svg11.dtd">
<svg version="1.1" id="图层_1" xmlns="http://www.w3.org/2000/svg" xmlns:xlink="http://www.w3.org/1999/xlink" x="0px" y="0px"
	 viewBox="0 0 256.8 461.2" style="enable-background:new 0 0 256.8 461.2;" xml:space="preserve">
<rect x="0.7" y="0.8" style="fill:#FFFFFF;stroke:#CCCCCC;stroke-miterlimit:10;" width="254.7" height="459"/>
<g>
	<defs>
		<rect id="SVGID_1_" x="65" y="1" width="190.5" height="458.7"/>
	</defs>
	<clipPath id="SVGID_2_">
		<use xlink:href="#SVGID_1_"  style="overflow:visible;"/>
	</clipPath>
	<g id="形状_13_43_" style="clip-path:url(#SVGID_2_);">
		<g>
			<path style="fill:#FF9B48;" d="M215.3,298.7c0,0-22.1,9.5-44,31.1c-28.5,25.7-44.1,40.6-57.4,44.5c-2.2,1.1-9.9,3.7-15,5
				c-6.7,1.7-13.6,1.7-15.8,4.2c-1.1,1.2-0.5,3.2,0.6,4.1c1.1,0.9,4.6,0.9,4.6,0.9s-9.7,2.9-6.2,8.9c3.2,5.5,25.3-10,26.2-3.2
				c0.5,3.7-11.7,6.5-6,11c2.6,2,11.4-3.1,17.5-8.5c4.5-4,8.7-10.9,22.5-20.4c11.2-7.7,32.1-20.2,54.4-29.5
				C246.6,326,215.3,298.7,215.3,298.7z"/>
		</g>
	</g>
	<g id="形状_14_43_" style="clip-path:url(#SVGID_2_);">
		<g>
			<path style="fill:#CC7123;" d="M115.5,382.7c-1.1,1-3.8,2.6-5.1,3.4c-2.7,1.6-5.1,2.2-5.1,2.2s0.7,0.2,1.8-0.1
				c3.2-0.9,7.4-2.7,9.3-4.3C117.8,382.7,117,381.3,115.5,382.7z"/>
		</g>
	</g>
	<g id="形状_13_41_" style="clip-path:url(#SVGID_2_);">
		<g>
			<path style="fill-rule:evenodd;clip-rule:evenodd;fill:#FF9B48;" d="M386.9,388.5c0,0,3.6,0,4.6-0.9c1.1-0.9,1.7-2.9,0.6-4.1
				c-2.2-2.5-9.1-2.5-15.8-4.2c-5.1-1.3-12.8-3.9-15-5c-13.3-3.9-28.9-18.8-57.4-44.5c-21.9-21.6-45.5-31.3-45.5-31.3
				s-29.7,27.5,20.1,48.3c22.3,9.3,43.2,21.8,54.4,29.5c13.8,9.5,18,16.4,22.5,20.4c6.1,5.5,15,10.6,17.5,8.5c5.8-4.5-6.5-7.3-6-11
				c1-6.8,23,8.7,26.2,3.2C396.6,391.4,386.9,388.5,386.9,388.5z"/>
		</g>
	</g>
	<g id="形状_14_41_" style="clip-path:url(#SVGID_2_);">
		<g>
			<path style="fill-rule:evenodd;clip-rule:evenodd;fill:#CC7123;" d="M400.6,386.2c-1.3-0.8-4-2.4-5.1-3.4c-1.5-1.5-2.3,0-0.8,1.3
				c1.9,1.6,6,3.4,9.3,4.3c1.1,0.3,1.8,0.1,1.8,0.1S403.3,387.8,400.6,386.2z"/>
		</g>
	</g>
	
		<radialGradient id="SVGID_3_" cx="241.4071" cy="348.3568" r="103.0194" gradientTransform="matrix(1 0 0 0.9295 0 24.5438)" gradientUnits="userSpaceOnUse">
		<stop  offset="0" style="stop-color:#FFC07D"/>
		<stop  offset="0.5713" style="stop-color:#FEB162"/>
		<stop  offset="1" style="stop-color:#FEA852"/>
	</radialGradient>
	<path style="clip-path:url(#SVGID_2_);fill-rule:evenodd;clip-rule:evenodd;fill:url(#SVGID_3_);" d="M392.7,585.7
		c-14.9,5.3-45.7,3.3-63.3,2.5c-18.4-0.8-57.6-6.4-64.9-8.4c-15.5-4.3-6.7-13.8-5.2-20.8c1.5-7.1,2.3-14.2,1.9-22
		c-0.1-2.6-0.3-7.4-4.8-7.2c-4.9,1.5-9.5,2.3-13.8,2.7c0,0-0.1,0-0.1,0c-0.3,0-0.7,0.1-1,0.1c-0.2,0-0.5,0-0.7,0.1
		c-0.2,0-0.4,0-0.7,0c-0.3,0-0.7,0-1,0c-0.2,0-0.3,0-0.5,0c-0.3,0-0.7,0-1,0c-0.2,0-0.4,0-0.5,0c-0.3,0-0.5,0-0.8,0
		c-0.3,0-0.5,0-0.8,0c-0.2,0-0.4,0-0.5,0c-0.3,0-0.7,0-1,0c-0.2,0-0.3,0-0.5,0c-0.3,0-0.7,0-1,0c-0.2,0-0.4,0-0.7,0
		c-0.2,0-0.5,0-0.7-0.1c-0.3,0-0.7-0.1-1-0.1c0,0-0.1,0-0.1,0c-4.3-0.4-8.9-1.3-13.8-2.7c-4.5-0.2-4.7,4.6-4.8,7.2
		c-0.4,7.7,0.4,14.8,1.9,22c1.5,6.9,10.3,16.5-5.2,20.8c-7.3,2-50.2,7.4-68.7,8.6c-19.8,1.3-52.5,1.5-61.9-2.5
		c-5.2-2.2-5.4-15.5,8.6-22.6c17.6-9,90.6-5,95.5-5.3c10.2-0.7,8.2-3.9,8.3-9.1c0.2-9.6-7.7-14.5-14.4-18.7
		c-6.7-4.2-40.3-19-40.3-51.6c0-16.8,4.6-39.4,26.3-71.6c52.7-78.4,54.7-122.1,54.7-122.1l4.3-0.2c0.2-0.8,0.2-1.3,0.2-1.3l15.7,0.6
		l15.7-0.6c0,0,0.1,0.4,0.2,1.3l4.3,0.2c0,0,1.9,43.7,54.7,122.1c21.7,32.2,26.3,54.8,26.3,71.6c0,32.6-33.5,47.4-40.3,51.6
		c-6.7,4.2-14.6,9.1-14.4,18.7c0.1,5.1-1.6,9.7,8.6,9.9c4.8,0.1,77.6-4.5,95.2,4.5C400.4,570.4,398,583.8,392.7,585.7z"/>
	<path style="clip-path:url(#SVGID_2_);fill-rule:evenodd;clip-rule:evenodd;fill:#DD7528;" d="M114.3,568.9
		C99,573,100.8,580.1,103,585.8c0.3,0.7,0.6,1.4,1,2c0.9,0.1,1.8,0.2,2.8,0.3c-5.3-12.2,2.3-16,9.1-18.3
		C118.9,568.8,116.4,568.4,114.3,568.9z"/>
	<path style="clip-path:url(#SVGID_2_);fill-rule:evenodd;clip-rule:evenodd;fill:#DD7528;" d="M115,568.4
		c-13.1,2.9-11.1,13.9-9.1,19.2c0.2,0.6,0.5,1.1,0.7,1.6c0.8,0,1.7,0,2.5,0c-3.7-11.2,1.1-16,4.9-18.6
		C116.2,569.1,119.7,567.3,115,568.4z"/>
	<path style="clip-path:url(#SVGID_2_);fill-rule:evenodd;clip-rule:evenodd;fill:#DD7528;" d="M402.1,587.7c0.2-0.5,0.4-1,0.6-1.6
		c1.7-5.5-0.1-15.4-10.9-18.1c-5.9-1.5-3.3,1.2-0.7,2.1c6.4,2.1,9.7,9.7,6.8,18.2C399.4,588.2,400.8,588,402.1,587.7z"/>
	<path style="clip-path:url(#SVGID_2_);fill-rule:evenodd;clip-rule:evenodd;fill:#DD7528;" d="M364.2,587.7
		c3.1-6.8,0.4-16.9-7-19.8c-2.9-0.7-0.2,1.9,1.9,4c2.8,3,4.3,10.1,1.8,15.5c-0.4,0.8-0.6,1.3-0.8,1.8c1.1,0,2.1,0,3.2,0
		C363.6,588.8,363.9,588.3,364.2,587.7z"/>
	<g id="形状_12_21_" style="clip-path:url(#SVGID_2_);">
		<g>
			
				<linearGradient id="SVGID_4_" gradientUnits="userSpaceOnUse" x1="546.404" y1="655.3807" x2="544.8021" y2="511.2072" gradientTransform="matrix(1 0 0 1 -309.6776 -216.9416)">
				<stop  offset="0" style="stop-color:#FFC28A"/>
				<stop  offset="0.7938" style="stop-color:#FFCD9F"/>
				<stop  offset="1" style="stop-color:#FFD0A5"/>
			</linearGradient>
			<path style="fill-rule:evenodd;clip-rule:evenodd;fill:url(#SVGID_4_);" d="M261.1,343.8c-11-17.9-38.1-16.1-48.8,1.4
				c-12.9,21.1-28.6,78.3-17.5,110.9c9.1,26.9,73,28.6,82.9,2.9C290.9,424.4,272.6,362.7,261.1,343.8z"/>
		</g>
	</g>
	<path style="opacity:0.6;clip-path:url(#SVGID_2_);fill-rule:evenodd;clip-rule:evenodd;fill:#DD7528;" d="M161.6,427
		c0,0,29.6,7.4,77.2,7.4c44.8,0,53.2-2.6,76.7-8C316.1,427.1,243.1,554.1,161.6,427z"/>
	<g id="形状_11_拷贝_2_21_" style="clip-path:url(#SVGID_2_);">
		<g>
			<path style="fill-rule:evenodd;clip-rule:evenodd;fill:#FFBF80;" d="M313.5,427.1c-0.6,0.3-1.3,0.6-2,0.9
				c-21.8,9.7-47.6,12.8-67.8,13.4c-19.9,0.1-49.4-1.6-73.6-11.3c-2.1-0.8-5.1-1.9-7.2-2.8c-5.5-2.7-6.7,4.3-6.6,8.3
				c0.3,17.4,4.2,72.5,54.1,91.1c2,1.3,8.1,4.3,20.6,5.1c4,0.7,8.7,0.5,13.2-0.1c0.5,0,1-0.1,1.5-0.1c7.5-0.8,14.2-2.6,20.3-5.2
				c0.4-0.1,0.6-0.2,0.6-0.2v0c37.9-16.8,48.7-65.2,51.7-88.9c0.2-1.8,0.3-3.4,0.5-4.8C319.7,426.3,315.5,426,313.5,427.1z"/>
		</g>
	</g>
	<path style="opacity:0.6;clip-path:url(#SVGID_2_);fill-rule:evenodd;clip-rule:evenodd;fill:#DD7528;" d="M256.3,284.9
		c-5.8,3.5-13.8,8.2-18.3,8.9c-6.8,1-14.3-0.1-21.9-8.8c0,0.6-0.3,3.6-1.3,8.8c2.2,7,6.9,14.4,16.9,15.6
		c11.8,1.4,20.6-8.1,25.9-16.4c-1-5.4-1.1-8.2-1.1-8.2L256.3,284.9z"/>
	<g id="形状_9_21_" style="clip-path:url(#SVGID_2_);">
		<g>
			<path style="fill-rule:evenodd;clip-rule:evenodd;fill:#FFC07D;" d="M215.2,152.1c-25-55.1-63.4-76.4-63.4-76.4
				s-9.9-6.3-11.3,0.6c-14.8,86.4,53.8,105.6,53.8,105.6S240.2,207.2,215.2,152.1z"/>
		</g>
	</g>
	<g id="形状_10_21_" style="clip-path:url(#SVGID_2_);">
		<g>
			<path style="fill-rule:evenodd;clip-rule:evenodd;fill:#FF9B48;" d="M207.4,164.8c-9.5-42.4-44.8-57-44.8-57s-7.4-5.2-7.5,2
				c2.9,54.4,48.3,63.1,48.3,63.1S209.5,174.6,207.4,164.8z"/>
		</g>
	</g>
	<g id="形状_9_拷贝_21_" style="clip-path:url(#SVGID_2_);">
		<g>
			<path style="fill:#FFC07D;" d="M335.5,76.2c-1.4-6.8-11.3-0.6-11.3-0.6s-38.4,21.2-63.4,76.4c-25.1,55.1,20.9,29.8,20.9,29.8
				S350.3,162.5,335.5,76.2z"/>
		</g>
	</g>
	<g id="形状_10_拷贝_21_" style="clip-path:url(#SVGID_2_);">
		<g>
			<path style="fill:#FF9B48;" d="M313.5,107.7c0,0-35.4,14.6-44.9,57c-2.1,9.8,4.1,8.1,4.1,8.1s45.4-8.6,48.4-63.1
				C320.9,102.5,313.5,107.7,313.5,107.7z"/>
		</g>
	</g>
	<g id="脸_43_" style="clip-path:url(#SVGID_2_);">
		<g>
			
				<radialGradient id="SVGID_5_" cx="547.7911" cy="508.0374" r="66.536" gradientTransform="matrix(0.9999 1.315258e-02 -9.151512e-03 0.6957 -304.981 -69.5689)" gradientUnits="userSpaceOnUse">
				<stop  offset="0" style="stop-color:#FECD97"/>
				<stop  offset="1" style="stop-color:#FFC07A"/>
			</radialGradient>
			<path style="fill:url(#SVGID_5_);" d="M288.8,201.2c-2.5-7.8-4.8-19.2-8.1-28.6c-7.4-21.3-24.5-28.3-42.7-28
				c-18.4,0.3-35.8,8.1-42.8,28.1c-3.3,9.4-5.3,20.8-7.8,28.6c-2.5,7.9-7.9,41.4,5.8,62.2c-0.1,0.1,5.9,7.3,16.8,18.2
				c9,9,14.1,16.4,25.5,17.1c0.1,0,0.1,0,0.2,0c0.1,0,0.2,0,0.2,0c0.9,0,1.9,0,2.9,0c0.2,0,0.4,0,0.5-0.1c14.2-1,18.9-9.9,27.8-17.9
				c11.5-10.3,15.9-17.3,15.8-17.5C296.8,242.6,291.3,209,288.8,201.2z"/>
		</g>
	</g>
	<path style="clip-path:url(#SVGID_2_);fill-rule:evenodd;clip-rule:evenodd;fill:#66361F;" d="M237.4,207.9
		c-0.2,0.1,19.9-5.8,28.5-27.5c-0.1-0.5,9.1,16.3,23.5,22.9c-0.2-0.8-0.4-1.6-0.6-2.2c-2.2-9.4-4.1-18.4-7.4-27.9
		c-7.4-21.3-25.2-29.1-43.4-28.8c-18.4,0.3-35.8,8.1-42.8,28.1c-3.3,9.4-6.2,21.6-7.8,28.6c-0.1,0.3-0.2,0.8-0.3,1.2
		c4.9-0.8,13.7-4.6,22-21C208.6,181.5,213,196,237.4,207.9z"/>
	<path style="clip-path:url(#SVGID_2_);fill-rule:evenodd;clip-rule:evenodd;fill:#E5432E;" d="M286.3,191.9
		c-0.9-3.6-1.9-7.4-3-11.2c-7.1-9.3-21.8-24-44.7-23.8c-26.4,0.2-39.3,14.3-45.8,23.4c-0.9,3.5-1.8,7-2.6,10.4
		c6.2-6.5,22.7-20.6,48.4-20.5C261.5,170.4,277.8,184.1,286.3,191.9z"/>
	<g id="形状_3_拷贝_21_" style="clip-path:url(#SVGID_2_);">
		<g>
			<path style="fill-rule:evenodd;clip-rule:evenodd;fill:#E5432E;" d="M285.5,88.4c-0.8-1.3-1.8-1-2.6-0.6
				c-32,14.9-41.8,43.1-44.7,57.2c-4.1-17-15.7-43.2-44.9-57.5c-1.2-0.6-2.6-0.9-3.2,1.2c0,0-10.4,47.3,37.7,71.5
				c-9.9,7.6-20.5,17.4,10.2,4.6c33.3,14,19.6,2.6,10-4.5C296.1,136.1,285.5,88.4,285.5,88.4z"/>
		</g>
	</g>
	<g id="形状_73_21_" style="clip-path:url(#SVGID_2_);">
		<g>
			<path style="fill-rule:evenodd;clip-rule:evenodd;fill:#AD4023;" d="M236.5,139.4c0,0-2.1,4.9-1.8,10.9c0.3,7,2.1,10.4,2.2,7.7
				c0.1-1.9,0.9-9.1,1.4-12.9C238.4,143.8,236.5,139.4,236.5,139.4z"/>
		</g>
	</g>
	<g id="形状_82_21_" style="clip-path:url(#SVGID_2_);">
		<g>
			<path style="fill-rule:evenodd;clip-rule:evenodd;fill:#CA4825;" d="M258.5,160.9c-1.3-0.6-6.4-2.9-7.2-2.3
				c-4.5,2.8-9.2,7.6-2.7,6C253.2,163.5,259.9,161.6,258.5,160.9z M225,158.7c-1.7-0.5-7.5,2-7.5,2s2.2,1.2,4.9,1.9
				c2.7,0.7,8.5,2.9,8.1,1.2C230.1,162.2,227.6,159.5,225,158.7z"/>
		</g>
	</g>
	<path style="clip-path:url(#SVGID_2_);fill-rule:evenodd;clip-rule:evenodd;fill:#FFCE99;" d="M217,232.8
		c-5.4-13.4-13.8-16.3-19.5-15.3c-10.8,1.9-12.2,7.4-12.1,7.1c0.1-0.3-0.2-9.7,8.9-12c8.3-2.1,16.7,1.3,20.3,7
		c3.3,5.2,3,13.1,3,13.1"/>
	<path style="clip-path:url(#SVGID_2_);fill-rule:evenodd;clip-rule:evenodd;fill:#FFCE99;" d="M258.4,232.8
		c5.4-13.4,13.8-16.3,19.5-15.3c10.8,1.9,12.2,7.4,12.1,7.1c-0.1-0.3,0.2-9.7-8.9-12c-8.3-2.1-16.7,1.3-20.3,7
		c-3.3,5.2-3,13.1-3,13.1"/>
	<g id="形状_4_43_" style="clip-path:url(#SVGID_2_);">
		<g>
			<path style="fill:#FFFFFF;" d="M204.1,218.6c-4.4-2-13.6-1.1-17.3,2c0,0-5.4,22.5,14.3,24.5c9.8,0.4,15.5-4.8,16.4-10.4
				C218.5,228.7,209.2,221,204.1,218.6z"/>
		</g>
	</g>
	<g id="形状_6_43_" style="clip-path:url(#SVGID_2_);">
		<g>
			<path style="fill-rule:evenodd;clip-rule:evenodd;fill:#512A15;" d="M213.7,223.8c0-0.1-5-6.9-11.7-8.5c-2.4-0.6-7.8,0.7-7.8,0.7
				s-8,6.5-2,17.6c3.5,5.8,9,8.3,13.9,7.7c6-0.7,9.5-4.9,9.9-9.6C216.5,227.1,213.7,223.8,213.7,223.8z"/>
		</g>
	</g>
	<g id="形状_48_21_" style="clip-path:url(#SVGID_2_);">
		<g>
			<path style="fill:#FFFFFF;" d="M197.7,232.2c-0.3-1.8-6.1-2-7.3,0.4c-0.9,1.8,0.1,3.9,1.5,4.2
				C194.8,237.5,198.1,234.8,197.7,232.2z"/>
		</g>
	</g>
	<g id="形状_36_副本_43_" style="clip-path:url(#SVGID_2_);">
		<g>
			<path style="fill-rule:evenodd;clip-rule:evenodd;fill:#A85726;" d="M211.3,205.5c-7.2-3.1-14.8-2.1-13.6,1
				c0.5,1.2,4.2-1,10.1,0.9c8.1,2.6,7.7,7.1,9.7,6.6C220.8,213.1,215.4,207.3,211.3,205.5z"/>
		</g>
	</g>
	<g id="形状_4_41_" style="clip-path:url(#SVGID_2_);">
		<g>
			<path style="fill:#FFFFFF;" d="M289.2,220.6c-3.6-3.1-12.7-3.7-17.3-2c-10.6,3.9-14.4,10.1-13.4,16.1c0.9,5.6,6.6,10.8,16.4,10.4
				C294.7,243.1,289.2,220.6,289.2,220.6z"/>
		</g>
	</g>
	<g id="形状_6_41_" style="clip-path:url(#SVGID_2_);">
		<g>
			<path style="fill-rule:evenodd;clip-rule:evenodd;fill:#512A15;" d="M282.3,217.2c0,0-4.5-1.2-6.9-0.6
				c-6.7,1.6-12.1,5.7-12.1,5.8c0,0-2,7.4-0.8,10.5c2.3,5.8,4.2,8.3,10.2,8.6c4.9,0.2,10.5-1.7,12.6-8.7
				C287.8,224.5,282.3,217.2,282.3,217.2z"/>
		</g>
	</g>
	<g id="形状_48_副本_21_" style="clip-path:url(#SVGID_2_);">
		<g>
			<path style="fill:#FFFFFF;" d="M268.2,232.9c-1.3-2.4-6.6,0.5-6.9,2.3c-0.4,3,1.1,3.7,3.4,3.1
				C267.3,237.7,269.5,235.2,268.2,232.9z"/>
		</g>
	</g>
	<g id="形状_36_副本_41_" style="clip-path:url(#SVGID_2_);">
		<g>
			<path style="fill-rule:evenodd;clip-rule:evenodd;fill:#A85726;" d="M264.9,205.4c-4.1,1.7-9.5,6.5-7.2,8.1
				c2.2,1.5,3.6-3.6,9.3-5.5c7.2-2.4,12.3,0.3,12.7-1.6C280.2,203.8,272.2,202.5,264.9,205.4z"/>
		</g>
	</g>
	<g id="Shape_2_43_" style="clip-path:url(#SVGID_2_);">
		<g>
			<path style="fill-rule:evenodd;clip-rule:evenodd;fill:#9C6342;" d="M286.9,240.1c2-3,2.3-6,1.7-4.9c-1.3,2.6-3,5.7-7,7.5
				c-3.7,1.7-8.2,1.8-11.2,1.9c-2.7,0,5.4,2,11.2-0.2c0.4,0.1,1,0.4,1.7,0.7c0.8,0.4,2.2,1.4,2.1,0.8c-0.1-1-0.6-2.2-1.4-2.9
				c0.6-0.4,1.1-0.9,1.6-1.3c0.2,0,0.5,0.1,0.9,0.1c1.2,0.2,2.4,1.6,2.4,0.9C288.8,242,288.1,240.8,286.9,240.1z"/>
		</g>
	</g>
	<g id="形状_65_副本_43_" style="clip-path:url(#SVGID_2_);">
		<g>
			<path style="fill-rule:evenodd;clip-rule:evenodd;fill:#713D1F;" d="M296.8,218.1c-0.3,0.6-1.6,1.8-2.9,2.4
				c-1.1,0.5-2.8,0.9-4.4,0.5c0-0.1-0.1-0.2-0.1-0.3c-1.1-2.1-4.5-4.5-7.8-5.2c-5.4-1.1-10-0.4-13.9,1.4c-5.2,2.4-8.8,7.1-9.8,13.4
				c-0.5,2.7,0.2,4.3,1,1.9c1.9-5.7,3.9-8.8,9.1-11.6c4.1-2.2,9.2-3.8,16.6-0.2c2.5,1.2,4,3.8,4.4,5.6c0.2,0.6,0.8,2.8,1,1.4
				c0.1-0.7,0.2-1.4,0.2-2.1c0.5,0,1.4,0,2.7-0.5c1.1-0.4,2.8-1.7,3.6-3.2C297.5,219.7,297.5,216.9,296.8,218.1z"/>
		</g>
	</g>
	<g id="Shape_2_41_" style="clip-path:url(#SVGID_2_);">
		<g>
			<path style="fill-rule:evenodd;clip-rule:evenodd;fill:#9C6342;" d="M205.4,244.6c-3,0-7.5-0.1-11.2-1.9c-4-1.9-5.7-4.9-7-7.5
				c-0.6-1.1-0.3,1.9,1.7,4.9c-1.2,0.7-1.9,1.9-1.9,2.6c0,0.8,1.2-0.7,2.4-0.9c0.4-0.1,0.7-0.1,0.9-0.1c0.5,0.5,1,0.9,1.6,1.3
				c-0.8,0.7-1.3,1.9-1.4,2.9c-0.1,0.5,1.4-0.4,2.1-0.8c0.6-0.3,1.3-0.6,1.7-0.7C200,246.6,208.1,244.7,205.4,244.6z"/>
		</g>
	</g>
	<g id="形状_65_副本_41_" style="clip-path:url(#SVGID_2_);">
		<g>
			<path style="fill-rule:evenodd;clip-rule:evenodd;fill:#713D1F;" d="M217.5,230.3c-1.1-6.3-4.6-11-9.8-13.4
				c-3.9-1.8-8.5-2.5-13.9-1.4c-3,0.6-6,2.6-7.1,4.2c-0.2,0.3-0.4,0.8-0.6,1.2c0,0,0,0,0,0c-1.6,0.6-3.4,0.2-4.6-0.4
				c-1.3-0.6-2.6-1.8-2.9-2.4c-0.6-1.2-0.6,1.6,0.3,3.4c0.8,1.5,2.5,2.8,3.6,3.2c1.4,0.6,2.3,0.6,2.8,0.5c0,0.8,0,1.6,0.1,2.1
				c0.2,1.4,0.9-0.2,1.1-0.8c0.9-2.7,1.8-5,4.4-6.2c7.5-3.7,12.5-2,16.6,0.2c5.2,2.8,7.1,6.3,9.1,11.6
				C217.4,234.6,218,233,217.5,230.3z"/>
		</g>
	</g>
	<g id="腮红2_21_" style="clip-path:url(#SVGID_2_);">
		<g>
			<path style="fill-rule:evenodd;clip-rule:evenodd;fill:#FFA083;" d="M203.6,251.4c-7.8-0.8-11.3,1.8-11.2,4.2
				c0,2,2.9,5.9,10.1,6.3c9.1,0.5,11.7-2.5,11.8-4C214.4,256.3,213.2,252.5,203.6,251.4z"/>
		</g>
	</g>
	<g id="腮红2_副本_21_" style="clip-path:url(#SVGID_2_);">
		<g>
			<path style="fill-rule:evenodd;clip-rule:evenodd;fill:#FFA083;" d="M272.4,251.4c-9.6,1-10.8,4.8-10.7,6.5
				c0.1,1.5,2.8,4.5,11.8,4c7.2-0.4,10-4.3,10.1-6.3C283.7,253.2,280.2,250.6,272.4,251.4z"/>
		</g>
	</g>
	<path style="clip-path:url(#SVGID_2_);fill-rule:evenodd;clip-rule:evenodd;fill:#512A15;" d="M237.3,293.3
		c-4.9,0-12.8-4.5-12.2-9.5c0.5-3.9,4.5-5.3,12.2-5.3c7.8,0,11.9,1.3,12.3,5.3C250.1,288.3,243.5,293.3,237.3,293.3z"/>
	<g id="形状_20_21_" style="clip-path:url(#SVGID_2_);">
		<g>
			<path style="fill:#FCEACB;" d="M219.1,381.5c-14.8-11.5-33.1-4.1-33.1-1.2c1.2,31.2,31,28.1,31,28.1c10.4-1.2,11.6-8.4,11.6-8.4
				S228.9,389.2,219.1,381.5z"/>
		</g>
	</g>
	<g id="形状_21_21_" style="clip-path:url(#SVGID_2_);">
		<g>
			<path style="fill:#FFBD99;" d="M224.1,398.6c-2.1-10.7-24-14.2-23.7-9.8c1.1,17.4,20.5,15.9,20.5,15.9S224.9,404.1,224.1,398.6z"
				/>
		</g>
	</g>
	<g id="形状_20_拷贝_21_" style="clip-path:url(#SVGID_2_);">
		<g>
			<path style="fill:#FCEACB;" d="M254.8,382.8c-10.2,9.2-7.2,20.4-7.2,20.4s0.8,4.1,11.2,5.3c0,0,29.8,3.1,31-28.1
				C289.8,377.5,270.9,368.2,254.8,382.8z"/>
		</g>
	</g>
	<g id="形状_21_拷贝_21_" style="clip-path:url(#SVGID_2_);">
		<g>
			<path style="fill-rule:evenodd;clip-rule:evenodd;fill:#FFBD99;" d="M251.5,398.7c-0.7,5.5,3.2,6.1,3.2,6.1s19.5,1.5,20.6-15.9
				C275.6,384.5,253.6,388,251.5,398.7z"/>
		</g>
	</g>
	<g id="形状_23_21_" style="opacity:0.4;clip-path:url(#SVGID_2_);">
		<g>
			<path style="fill-rule:evenodd;clip-rule:evenodd;fill:#DD7528;" d="M260,443.2c-12-2.2-44.7-4.4-48.3,3.8
				c-3.6,8.1-11.9,4.1-10.1,27.3c0,0,2.8,14.7,14.4,11.8c3.5-1.4,4.9-6.1,4.8-11.1c0-4.9,2-5.1,6.4-5c10,0.3,15.4,1,22.3-3.2
				c3.8-2.3,6.2,3.1,5.6,9c-0.7,6.8,0.7,9.7,6.2,10.9c5.1,1.1,9.3-1.2,10.7-6.4c1.6-5.5,2-11.5,2-11.5S272,445.4,260,443.2z"/>
		</g>
	</g>
	<path style="clip-path:url(#SVGID_2_);fill-rule:evenodd;clip-rule:evenodd;fill:#FCEBCE;" d="M262.2,427.2c0,0,13.3,9.1,12.5,38.7
		c-0.3,10.1-5.2,15.3-10.5,14.9c-5.3-0.3-5.8-6-5-12c0.3-2.4,1-10-1.8-20.5C254.6,437.7,262.2,427.2,262.2,427.2z"/>
	<path style="clip-path:url(#SVGID_2_);fill-rule:evenodd;clip-rule:evenodd;fill:#FCEBCE;" d="M210.5,430.8c0,0-10.5,10.2-9.6,34.4
		c0.3,10.1,5.2,15.9,10.5,15.6c5.3-0.3,5.5-4.6,5.2-9.3c-0.3-4.1-1.1-10.9,1.7-21.5C221,439.4,210.5,430.8,210.5,430.8z"/>
	<path style="clip-path:url(#SVGID_2_);fill-rule:evenodd;clip-rule:evenodd;fill:#F6BF96;" d="M263.2,473.6
		c-0.1,2.1-0.5,5.3-1.1,6.7c0.3,0.1,0.5,0.2,0.8,0.3c0.3-0.9,0.6-2.2,0.8-3.5C264.2,473.8,263.4,470.4,263.2,473.6z"/>
	<path style="clip-path:url(#SVGID_2_);fill-rule:evenodd;clip-rule:evenodd;fill:#F6BF96;" d="M267.5,473.7c0,1.4,0,4.9-0.9,6.9
		c0.4-0.1,0.9-0.2,1.3-0.4c0.4-1,0.5-2.6,0.6-3.8C268.6,473.8,267.5,471.7,267.5,473.7z"/>
	<path style="clip-path:url(#SVGID_2_);fill-rule:evenodd;clip-rule:evenodd;fill:#F6BF96;" d="M213.1,477c-0.5-1.8-1.3-5.7-1.4-4.6
		c-0.2,1.9,0.2,4.6,0.9,6.7c0.2,0.5,0.4,1,0.6,1.4c0.5-0.2,0.9-0.3,1.2-0.6C213.9,479,213.5,478.2,213.1,477z"/>
	<path style="clip-path:url(#SVGID_2_);fill-rule:evenodd;clip-rule:evenodd;fill:#F6BF96;" d="M209.1,477.6c-1.1-3.2-1.2-6.3-1.4-4
		c-0.3,2.7,0.5,4.8,1.4,6.7c0.1,0.1,0.2,0.3,0.3,0.4c0.4,0.1,0.8,0.1,1.1,0.1C210,479.9,209.5,478.8,209.1,477.6z"/>
	<g id="脸_41_" style="clip-path:url(#SVGID_2_);">
		<g>
			<path style="fill:#FCEBCE;" d="M264.1,418.4c-5.1-18.3-17.3-23-26.3-22.9c-9-0.2-22.5,4.5-26.7,22.5c-1,6.3-4.3,11.2-3.2,19.1
				c1.1,7.9,3.7,11.7,14.8,19.1c2.3,1.7,4,1.7,6.7,3.8c2.7,2,5.7,2.9,11,2.3c0.1,0,0.2,0,0.2-0.1c2.1-0.4,3.8-1.1,5.3-2.3
				c2.7-2,4.4-2,6.6-3.8c11-7.4,13.6-11.2,14.7-19.1C268.4,429.2,265.1,422,264.1,418.4z"/>
		</g>
	</g>
	<g id="形状_77_21_" style="clip-path:url(#SVGID_2_);">
		<g>
			<path style="fill-rule:evenodd;clip-rule:evenodd;fill:#FFBD99;" d="M215.9,441.3c-2.4-0.2-4.4,0.7-4.5,2.1
				c-0.1,1.3,1.7,2.6,4.1,2.8c2.4,0.2,4.4-0.7,4.5-2.1C220.1,442.8,218.3,441.5,215.9,441.3z"/>
		</g>
	</g>
	<g id="形状_77_副本_21_" style="clip-path:url(#SVGID_2_);">
		<g>
			<path style="fill:#FFBD99;" d="M258.4,441.3c-2.4,0.1-4.3,1.2-4.2,2.6c0,1.4,2,2.4,4.4,2.3c2.4-0.1,4.3-1.2,4.2-2.6
				C262.8,442.3,260.8,441.3,258.4,441.3z"/>
		</g>
	</g>
	<path style="clip-path:url(#SVGID_2_);fill:#F7CC9D;" d="M221.4,409.9c1,3.7,2.9,4.4,5.3,4.8c2.9,0.4,4.6-2.3,5.5-3.5
		c0,0,1.9,3.7,4.7,4.6c2.9,0.9,4.9-0.1,6-2c0.6-1.2,0.5-3.1,0.5-3.1s2.4,2.6,6,1.6c2.2-0.6,2.3-2.4,2.5-3.7c0.2-1.3-0.3-2.5-0.3-2.5
		s2.5,2.6,1.8,5.7c-0.5,2.2-2.3,3.7-4.7,3.4c-1.7-0.2-4.2-1.9-4.2-1.9s-0.2,2.8-2.1,4.2c-2,1.4-4.8,1.2-6.6,0.2
		c-1.8-1.1-3.4-3.6-3.4-3.6s-1,2.4-3.6,3.5c-1.5,0.7-4.4,0.8-6.1-1.8C220.6,413.2,221.4,409.9,221.4,409.9z"/>
	<g id="形状_75_21_" style="clip-path:url(#SVGID_2_);">
		<g>
			<path style="fill-rule:evenodd;clip-rule:evenodd;fill:#552F19;" d="M216.6,433.9c-4.5-0.4-5.8,0-5.5,0.9
				c0.2,0.7,1.2-0.2,5.3,0.7c6.8,1.4,9.7,6,10.5,4C227.7,437.5,222,434.4,216.6,433.9z"/>
		</g>
	</g>
	<g id="形状_75_副本_21_" style="clip-path:url(#SVGID_2_);">
		<g>
			<path style="fill-rule:evenodd;clip-rule:evenodd;fill:#713D1F;" d="M258.9,433.9c-5.4,0.5-11.1,3.6-10.3,5.7
				c0.7,1.9,3.7-2.6,10.5-4c4.2-0.9,5.1,0,5.3-0.7C264.7,433.9,263.4,433.5,258.9,433.9z"/>
		</g>
	</g>
	<g id="形状_19_21_" style="clip-path:url(#SVGID_2_);">
		<g>
			<path style="fill:#57301B;" d="M237.4,454.8c-8.6-0.1-7.8,2.6-7.8,2.6s1.5,5.4,8.1,5.2c6.6-0.2,7.8-5.2,7.8-5.2
				S246,454.9,237.4,454.8z"/>
		</g>
	</g>
</g>
<g>
	<path style="fill:#666666;" d="M26.3,172.1c0.5,0,0.9,0.1,1.3,0.2c0.4,0.1,0.7,0.3,1,0.6s0.5,0.6,0.6,0.9c0.1,0.4,0.2,0.8,0.2,1.2
		c0,0.5-0.1,0.9-0.2,1.2c-0.1,0.4-0.4,0.7-0.6,0.9s-0.6,0.4-1,0.6c-0.4,0.1-0.8,0.2-1.3,0.2h-3.6v4.4h-1v-10.3H26.3z M26.1,177.1
		c0.7,0,1.2-0.2,1.7-0.5c0.4-0.3,0.6-0.9,0.6-1.6c0-0.7-0.2-1.2-0.6-1.6c-0.4-0.3-1-0.5-1.7-0.5h-3.4v4.2H26.1z"/>
	<path style="fill:#666666;" d="M31.4,174.9v1.7h0c0.2-0.6,0.6-1.1,1.1-1.4c0.5-0.3,1.1-0.5,1.7-0.4v0.9c-0.4,0-0.8,0-1.1,0.2
		c-0.3,0.1-0.6,0.3-0.9,0.6c-0.2,0.2-0.4,0.5-0.6,0.9c-0.1,0.3-0.2,0.7-0.2,1.1v4h-0.9v-7.4H31.4z"/>
	<path style="fill:#666666;" d="M39.8,175c0.4,0.2,0.8,0.5,1.1,0.8c0.3,0.4,0.5,0.8,0.7,1.2s0.2,1,0.2,1.5c0,0.5-0.1,1-0.2,1.5
		c-0.2,0.5-0.4,0.9-0.7,1.2c-0.3,0.4-0.7,0.6-1.1,0.8c-0.4,0.2-0.9,0.3-1.5,0.3s-1.1-0.1-1.5-0.3c-0.4-0.2-0.8-0.5-1.1-0.8
		c-0.3-0.4-0.5-0.8-0.7-1.2c-0.2-0.5-0.2-1-0.2-1.5c0-0.5,0.1-1,0.2-1.5s0.4-0.9,0.7-1.2c0.3-0.4,0.7-0.6,1.1-0.8
		c0.4-0.2,0.9-0.3,1.5-0.3S39.3,174.8,39.8,175z M37.1,175.8c-0.3,0.2-0.6,0.4-0.8,0.7c-0.2,0.3-0.4,0.6-0.5,1
		c-0.1,0.4-0.2,0.8-0.2,1.2c0,0.4,0.1,0.8,0.2,1.2c0.1,0.4,0.3,0.7,0.5,1c0.2,0.3,0.5,0.5,0.8,0.7c0.3,0.2,0.7,0.3,1.1,0.3
		c0.4,0,0.8-0.1,1.1-0.3c0.3-0.2,0.6-0.4,0.8-0.7c0.2-0.3,0.4-0.6,0.5-1c0.1-0.4,0.2-0.8,0.2-1.2c0-0.4-0.1-0.8-0.2-1.2
		c-0.1-0.4-0.3-0.7-0.5-1c-0.2-0.3-0.5-0.5-0.8-0.7c-0.3-0.2-0.7-0.3-1.1-0.3C37.8,175.5,37.5,175.6,37.1,175.8z"/>
	<path style="fill:#666666;" d="M48.9,182.4V181h0c-0.1,0.2-0.2,0.5-0.4,0.7c-0.2,0.2-0.4,0.4-0.6,0.5c-0.2,0.1-0.5,0.2-0.8,0.3
		c-0.3,0.1-0.5,0.1-0.8,0.1c-0.6,0-1.1-0.1-1.5-0.3c-0.4-0.2-0.8-0.5-1-0.8s-0.5-0.8-0.6-1.3c-0.1-0.5-0.2-1-0.2-1.5
		c0-0.5,0.1-1,0.2-1.5c0.1-0.5,0.3-0.9,0.6-1.3c0.3-0.4,0.6-0.6,1-0.9c0.4-0.2,0.9-0.3,1.5-0.3c0.3,0,0.5,0,0.8,0.1
		c0.3,0.1,0.5,0.2,0.7,0.3s0.4,0.3,0.6,0.5c0.2,0.2,0.3,0.4,0.4,0.7h0v-4.3h0.9v10.3H48.9z M43.9,179.8c0.1,0.4,0.2,0.7,0.4,1
		c0.2,0.3,0.4,0.5,0.8,0.7c0.3,0.2,0.7,0.3,1.1,0.3c0.5,0,0.9-0.1,1.2-0.3c0.3-0.2,0.6-0.4,0.8-0.7c0.2-0.3,0.4-0.6,0.4-1
		s0.1-0.8,0.1-1.1c0-0.4,0-0.8-0.1-1.1s-0.2-0.7-0.4-1c-0.2-0.3-0.5-0.5-0.8-0.7c-0.3-0.2-0.7-0.3-1.2-0.3c-0.4,0-0.8,0.1-1.1,0.3
		c-0.3,0.2-0.6,0.4-0.8,0.7c-0.2,0.3-0.3,0.6-0.4,1c-0.1,0.4-0.1,0.8-0.1,1.1C43.7,179,43.8,179.4,43.9,179.8z"/>
	<path style="fill:#666666;" d="M56.6,182.4V181h0c-0.2,0.5-0.6,0.9-1,1.1c-0.5,0.3-1,0.4-1.5,0.4c-0.5,0-0.9-0.1-1.2-0.2
		c-0.3-0.1-0.6-0.3-0.8-0.6c-0.2-0.2-0.4-0.5-0.5-0.9c-0.1-0.3-0.1-0.7-0.1-1.2v-4.8h0.9v4.8c0,0.7,0.2,1.2,0.5,1.5
		c0.3,0.3,0.8,0.5,1.5,0.5c0.4,0,0.7-0.1,1-0.3s0.5-0.4,0.7-0.7c0.2-0.3,0.3-0.6,0.4-1c0.1-0.4,0.1-0.7,0.1-1.1v-3.9h0.9v7.4H56.6z"
		/>
	<path style="fill:#666666;" d="M63.7,176c-0.3-0.3-0.8-0.5-1.4-0.5c-0.4,0-0.8,0.1-1.1,0.3c-0.3,0.2-0.6,0.4-0.8,0.7
		c-0.2,0.3-0.4,0.6-0.5,1c-0.1,0.4-0.2,0.8-0.2,1.2c0,0.4,0.1,0.8,0.2,1.2c0.1,0.4,0.3,0.7,0.5,1c0.2,0.3,0.5,0.5,0.8,0.7
		c0.3,0.2,0.7,0.3,1.1,0.3c0.3,0,0.5-0.1,0.8-0.2c0.2-0.1,0.5-0.3,0.7-0.4c0.2-0.2,0.3-0.4,0.5-0.7s0.2-0.5,0.2-0.8h0.9
		c-0.1,0.9-0.5,1.6-1,2.1c-0.5,0.5-1.2,0.8-2.1,0.8c-0.6,0-1.1-0.1-1.5-0.3c-0.4-0.2-0.8-0.5-1.1-0.8c-0.3-0.4-0.5-0.8-0.7-1.2
		c-0.2-0.5-0.2-1-0.2-1.5c0-0.5,0.1-1,0.2-1.5s0.4-0.9,0.7-1.2c0.3-0.4,0.7-0.6,1.1-0.8c0.4-0.2,0.9-0.3,1.5-0.3
		c0.8,0,1.5,0.2,2,0.6s0.9,1.1,1,1.9h-0.9C64.3,176.7,64,176.3,63.7,176z"/>
	<path style="fill:#666666;" d="M69.6,174.9v0.8h-1.5v5c0,0.3,0,0.5,0.1,0.7c0.1,0.2,0.3,0.3,0.6,0.3c0.3,0,0.5,0,0.8,0v0.8
		c-0.1,0-0.3,0-0.4,0c-0.1,0-0.3,0-0.4,0c-0.6,0-1-0.1-1.3-0.4s-0.4-0.7-0.3-1.3v-5.1h-1.3v-0.8h1.3v-2.2h0.9v2.2H69.6z"/>
	<path style="fill:#666666;" d="M78.6,172.1c1.6,0,2.7,0.5,3.5,1.3s1.2,2.1,1.2,3.8c0,1.7-0.4,3-1.2,3.8c-0.8,0.8-2,1.3-3.5,1.3
		h-3.6v-10.3H78.6z M78.1,181.5c0.7,0,1.4-0.1,1.9-0.2c0.5-0.2,1-0.4,1.3-0.8c0.3-0.3,0.6-0.8,0.8-1.3s0.2-1.2,0.2-2s-0.1-1.4-0.2-2
		c-0.2-0.5-0.4-1-0.8-1.3c-0.3-0.3-0.8-0.6-1.3-0.8c-0.5-0.2-1.2-0.2-1.9-0.2H76v8.6H78.1z"/>
	<path style="fill:#666666;" d="M85.7,172.1v1.5h-0.9v-1.5H85.7z M85.7,174.9v7.4h-0.9v-7.4H85.7z"/>
	<path style="fill:#666666;" d="M88.2,174.9v1.7h0c0.2-0.6,0.6-1.1,1.1-1.4c0.5-0.3,1.1-0.5,1.7-0.4v0.9c-0.4,0-0.8,0-1.1,0.2
		c-0.3,0.1-0.6,0.3-0.9,0.6c-0.2,0.2-0.4,0.5-0.6,0.9c-0.1,0.3-0.2,0.7-0.2,1.1v4h-0.9v-7.4H88.2z"/>
	<path style="fill:#666666;" d="M92.6,179.9c0.1,0.4,0.2,0.7,0.4,0.9c0.2,0.3,0.5,0.5,0.8,0.7c0.3,0.2,0.7,0.3,1.1,0.3
		c0.7,0,1.2-0.2,1.6-0.5c0.4-0.3,0.6-0.8,0.8-1.4h0.9c-0.2,0.8-0.5,1.5-1.1,2c-0.5,0.5-1.2,0.7-2.2,0.7c-0.6,0-1.1-0.1-1.5-0.3
		c-0.4-0.2-0.8-0.5-1-0.8s-0.5-0.8-0.6-1.3c-0.1-0.5-0.2-1-0.2-1.5c0-0.5,0.1-1,0.2-1.4c0.1-0.5,0.3-0.9,0.6-1.3s0.6-0.7,1-0.9
		c0.4-0.2,0.9-0.3,1.5-0.3c0.6,0,1.1,0.1,1.5,0.4c0.4,0.2,0.8,0.6,1,0.9c0.3,0.4,0.5,0.8,0.6,1.3s0.2,1,0.1,1.5h-5.7
		C92.5,179.2,92.5,179.6,92.6,179.9z M97.1,177.1c-0.1-0.3-0.3-0.6-0.5-0.8c-0.2-0.2-0.4-0.4-0.7-0.6c-0.3-0.1-0.6-0.2-1-0.2
		c-0.4,0-0.7,0.1-1,0.2c-0.3,0.1-0.5,0.3-0.7,0.6c-0.2,0.2-0.4,0.5-0.5,0.8c-0.1,0.3-0.2,0.7-0.2,1h4.8
		C97.3,177.8,97.2,177.5,97.1,177.1z"/>
	<path style="fill:#666666;" d="M104,176c-0.3-0.3-0.8-0.5-1.4-0.5c-0.4,0-0.8,0.1-1.1,0.3c-0.3,0.2-0.6,0.4-0.8,0.7
		c-0.2,0.3-0.4,0.6-0.5,1c-0.1,0.4-0.2,0.8-0.2,1.2c0,0.4,0.1,0.8,0.2,1.2c0.1,0.4,0.3,0.7,0.5,1c0.2,0.3,0.5,0.5,0.8,0.7
		c0.3,0.2,0.7,0.3,1.1,0.3c0.3,0,0.5-0.1,0.8-0.2c0.2-0.1,0.5-0.3,0.7-0.4c0.2-0.2,0.3-0.4,0.5-0.7s0.2-0.5,0.2-0.8h0.9
		c-0.1,0.9-0.5,1.6-1,2.1c-0.5,0.5-1.2,0.8-2.1,0.8c-0.6,0-1.1-0.1-1.5-0.3c-0.4-0.2-0.8-0.5-1.1-0.8c-0.3-0.4-0.5-0.8-0.7-1.2
		c-0.2-0.5-0.2-1-0.2-1.5c0-0.5,0.1-1,0.2-1.5s0.4-0.9,0.7-1.2c0.3-0.4,0.7-0.6,1.1-0.8c0.4-0.2,0.9-0.3,1.5-0.3
		c0.8,0,1.5,0.2,2,0.6s0.9,1.1,1,1.9h-0.9C104.5,176.7,104.3,176.3,104,176z"/>
	<path style="fill:#666666;" d="M109.8,174.9v0.8h-1.5v5c0,0.3,0,0.5,0.1,0.7c0.1,0.2,0.3,0.3,0.6,0.3c0.3,0,0.5,0,0.8,0v0.8
		c-0.1,0-0.3,0-0.4,0c-0.1,0-0.3,0-0.4,0c-0.6,0-1-0.1-1.3-0.4s-0.4-0.7-0.3-1.3v-5.1h-1.3v-0.8h1.3v-2.2h0.9v2.2H109.8z"/>
	<path style="fill:#666666;" d="M115.8,175c0.4,0.2,0.8,0.5,1.1,0.8c0.3,0.4,0.5,0.8,0.7,1.2s0.2,1,0.2,1.5c0,0.5-0.1,1-0.2,1.5
		c-0.2,0.5-0.4,0.9-0.7,1.2c-0.3,0.4-0.7,0.6-1.1,0.8c-0.4,0.2-0.9,0.3-1.5,0.3s-1.1-0.1-1.5-0.3c-0.4-0.2-0.8-0.5-1.1-0.8
		c-0.3-0.4-0.5-0.8-0.7-1.2c-0.2-0.5-0.2-1-0.2-1.5c0-0.5,0.1-1,0.2-1.5s0.4-0.9,0.7-1.2c0.3-0.4,0.7-0.6,1.1-0.8
		c0.4-0.2,0.9-0.3,1.5-0.3S115.4,174.8,115.8,175z M113.2,175.8c-0.3,0.2-0.6,0.4-0.8,0.7c-0.2,0.3-0.4,0.6-0.5,1
		c-0.1,0.4-0.2,0.8-0.2,1.2c0,0.4,0.1,0.8,0.2,1.2c0.1,0.4,0.3,0.7,0.5,1c0.2,0.3,0.5,0.5,0.8,0.7c0.3,0.2,0.7,0.3,1.1,0.3
		c0.4,0,0.8-0.1,1.1-0.3c0.3-0.2,0.6-0.4,0.8-0.7c0.2-0.3,0.4-0.6,0.5-1c0.1-0.4,0.2-0.8,0.2-1.2c0-0.4-0.1-0.8-0.2-1.2
		c-0.1-0.4-0.3-0.7-0.5-1c-0.2-0.3-0.5-0.5-0.8-0.7c-0.3-0.2-0.7-0.3-1.1-0.3C113.9,175.5,113.5,175.6,113.2,175.8z"/>
	<path style="fill:#666666;" d="M120,174.9v1.7h0c0.2-0.6,0.6-1.1,1.1-1.4c0.5-0.3,1.1-0.5,1.7-0.4v0.9c-0.4,0-0.8,0-1.1,0.2
		c-0.3,0.1-0.6,0.3-0.9,0.6c-0.2,0.2-0.4,0.5-0.6,0.9c-0.1,0.3-0.2,0.7-0.2,1.1v4h-0.9v-7.4H120z"/>
</g>
<g>
	<path style="fill:#666666;" d="M20.4,33.4c5-0.3,9.3-0.6,13-0.9l0.9,5.4c-1.3,0.2-2.7,0.3-4.2,0.3v3.9h3.7v5.7h-3.7v2.6
		c1.9,1,3.5,2,5,2.9l-2.5,4.9c-0.2-0.1-0.5-0.3-0.8-0.6c-0.2-0.3-0.8-0.8-1.7-1.4v12.1h-5.6V58c-0.9,1.9-1.9,3.4-2.8,4.6
		c-0.1-0.5-0.3-1.2-0.6-2.2c-0.5-2-0.9-3.4-1.2-4.3c2-2.8,3.5-5.6,4.7-8.4h-4.2v-5.7h4.2v-3.6c-1.2,0.1-2.4,0.2-3.6,0.2L20.4,33.4z
		 M35,55.4h7.6v-2.5h-8.1V48h22.3v4.9h-8.4v2.5h7.6v4.8h-7.6v2.6h9.2v4.5H33v-4.5h9.6v-2.6H35V55.4z M35.3,46V33.1h20.5V46H35.3z
		 M50.1,41.2v-3.2h-8.8v3.2H50.1z"/>
	<path style="fill:#666666;" d="M71.3,52.9h-6.2V45c-1,1-2.2,2-3.4,2.9c-0.2-0.8-0.6-2.3-1.2-4.5c-0.3-1.1-0.5-2-0.6-2.5
		c3.8-2.7,6.9-5.9,9.3-9.6l6.1,2c-0.7,1.2-1.9,2.9-3.6,4.9c-0.1,0.1-0.2,0.2-0.3,0.3V52.9z M60,55.1h15.4v-2.6h6.4v2.6h15.5V61H81.7
		v7.4h-6.4V61H60V55.1z M91.4,41.2c2.4,0.8,4.3,1.5,5.9,2c-0.2,1.1-0.5,2.7-0.9,4.8c-0.1,0.2-0.2,0.4-0.2,0.5
		c-0.6,2.6-2.7,3.8-6.2,3.7h-6.7c-3.7,0.1-5.5-1.7-5.3-5.4c-1.5,0.6-2.9,1.1-4.5,1.5c-0.6-1.9-1.3-3.6-2-5.3
		c0.5-0.2,1.3-0.5,2.3-0.8c0.8-0.2,2.2-0.7,4.2-1.4V32h6.2v6.3c3.4-1.8,6.3-3.5,8.7-5.1l3.7,4.3c-3.9,2.5-8.1,4.7-12.4,6.7v0.9
		c-0.1,1.3,0.5,2,1.9,1.9h2.6c1.2,0,1.9-0.6,2-1.7C90.8,44.8,91,43.4,91.4,41.2z"/>
	<path style="fill:#666666;" d="M105.5,40.7l4,3.4c-0.7,0.7-0.9,1-0.6,0.8c-2.6,2.7-4.7,4.8-6.2,6.3L99,47.3
		C101.3,45.3,103.5,43.1,105.5,40.7z M100.2,53.5h10.4c-1.4-1.1-3.1-2.3-4.8-3.4c3.3-2.7,5-5.5,5-8.5c0-0.5,0-1,0-1.4h-10.2V35h14.7
		c-0.3-1.2-0.6-2.3-0.9-3.1l7.3-0.5c0.2,1.3,0.5,2.5,0.8,3.6h13.8v5.3h-9.6v4.2l3.6-3.2c3.3,2.9,5.7,5.1,7.3,6.7l-4.2,3.9
		c-2.3-2.3-4.5-4.5-6.7-6.8v0.8c0.1,3.2-1.4,4.9-4.5,5.1c-1.6,0-3.2,0-4.8,0c-0.3-1.5-0.7-3.2-1.1-4.9c1,0,2,0,2.9,0
		c1,0,1.6-0.6,1.6-1.7v-3.9h-4c0,0.7-0.1,1.3-0.2,1.7c-0.1,4.5-2.1,8.4-5.9,11.6h4.3c0-0.2,0.1-0.5,0.2-0.9c0-0.4,0-0.7,0-0.9h6.5
		c0,0.2-0.1,0.5-0.2,0.9c0,0.4-0.1,0.7-0.2,0.9h15.2v5.3h-13.3c1.9,2.1,6.5,3.4,14,4c-0.9,1.8-1.8,3.6-2.6,5.6
		c-7.8-1.2-13-3.4-15.8-6.5c-2.1,2.9-7.6,5.2-16.6,6.8c-0.2-0.5-0.6-1.3-1.2-2.5c-0.6-1.3-1.1-2.3-1.4-2.8c8.4-1,13.1-2.6,14.1-4.6
		h-13.3V53.5z"/>
</g>
<g>
	<path style="fill:#666666;" d="M24.3,222c0,1-0.3,1.5-1,1.6c-0.3,0-0.6,0-1,0c0,0,0-0.1,0-0.1c0-0.3-0.1-0.6-0.1-0.7
		c0.1,0,0.2,0,0.3,0c0.3,0,0.4,0,0.5,0c0.4,0,0.5-0.3,0.5-0.8c0-0.8-0.3-1.6-1-2.4c0.2-0.6,0.5-1.6,0.8-2.9h-1.3v8.6h-0.8V216h2.9
		v0.7c-0.5,1.5-0.8,2.4-0.9,2.8C24,220.4,24.3,221.2,24.3,222z M24.7,216.1H31v0.8h-0.9v6.8c0.1,1-0.4,1.5-1.4,1.5
		c-0.3,0-0.8,0-1.5,0c0-0.1-0.1-0.3-0.1-0.5c-0.1-0.2-0.1-0.3-0.1-0.3c0.4,0,0.9,0,1.5,0c0.6,0,0.8-0.2,0.8-0.7v-6.8h-4.6V216.1z
		 M25,218.2h3.1v4.4H25V218.2z M25.8,219v3h1.6v-3H25.8z"/>
	<path style="fill:#666666;" d="M32.3,222.1h4v-1.2h-3.7v-5h8.1v5h-3.7v1.2h4.1v0.7h-4.1v1.3h4.7v0.7H31.6v-0.7h4.7v-1.3h-4V222.1z
		 M33.4,216.6v1.5h2.9v-1.5H33.4z M33.4,218.8v1.5h2.9v-1.5H33.4z M40,216.6h-2.9v1.5H40V216.6z M37.1,218.8v1.5H40v-1.5H37.1z"/>
	<path style="fill:#666666;" d="M46.5,223.8l-0.6,0.5c-0.2-0.1-0.4-0.3-0.7-0.7c-0.1-0.1-0.3-0.3-0.3-0.3c-0.4,0.6-1,1.3-1.9,2
		c-0.1-0.2-0.3-0.5-0.5-0.7c0.7-0.5,1.3-1.1,1.9-1.9c-0.2-0.1-0.4-0.4-0.7-0.7c-0.3-0.3-0.5-0.5-0.7-0.7c0.2-0.6,0.4-1.6,0.7-3.1
		h-0.9v-0.7h1c0.1-0.4,0.1-1,0.3-1.8c0-0.2,0-0.3,0-0.4l0.8,0.1c0,0.3-0.1,0.7-0.2,1.3c-0.1,0.4-0.1,0.6-0.1,0.8h1.8v0.7
		c-0.2,1.9-0.5,3.3-1,4.2C45.7,222.9,46.1,223.3,46.5,223.8z M45.5,218.3h-1.2c-0.2,1.1-0.4,2-0.6,2.8c0.2,0.1,0.4,0.3,0.7,0.6
		c0.1,0.1,0.3,0.2,0.3,0.3C45.1,221.1,45.3,219.9,45.5,218.3z M46.3,222.2h4.5v0.8h-4.5V222.2z M48.1,217.1l-0.3,2.9h2.6l0.3-3.5
		h-4.2v-0.7h5.1l-0.4,4.3h1c-0.1,1.8-0.1,3-0.2,3.6c-0.1,1-0.6,1.5-1.7,1.5c-0.7,0-1.2,0-1.6,0c0-0.2-0.1-0.4-0.1-0.6
		c0-0.1,0-0.2,0-0.3c0.2,0,0.8,0,1.7,0c0.6,0,0.9-0.3,1-0.8c0.1-0.5,0.1-1.4,0.2-2.7H47l0.3-3.6H48.1z"/>
	<path style="fill:#666666;" d="M57.3,223.8l-0.6,0.5c-0.2-0.1-0.4-0.3-0.7-0.7c-0.1-0.1-0.3-0.3-0.3-0.3c-0.4,0.6-1,1.3-1.9,2
		c-0.1-0.2-0.3-0.5-0.5-0.7c0.7-0.5,1.3-1.1,1.9-1.9c-0.2-0.1-0.4-0.4-0.7-0.7c-0.3-0.3-0.5-0.5-0.7-0.7c0.2-0.6,0.4-1.6,0.7-3.1
		h-0.9v-0.7h1c0.1-0.4,0.1-1,0.3-1.8c0-0.2,0-0.3,0-0.4l0.8,0.1c0,0.3-0.1,0.7-0.2,1.3c-0.1,0.4-0.1,0.6-0.1,0.8H57v0.7
		c-0.2,1.9-0.5,3.3-1,4.2C56.5,222.9,56.9,223.3,57.3,223.8z M56.3,218.3H55c-0.2,1.1-0.4,2-0.6,2.8c0.2,0.1,0.4,0.3,0.7,0.6
		c0.1,0.1,0.3,0.2,0.3,0.3C55.9,221.1,56.1,219.9,56.3,218.3z M57.1,222.2h4.5v0.8h-4.5V222.2z M58.9,217.1l-0.3,2.9h2.6l0.3-3.5
		h-4.2v-0.7h5.1l-0.4,4.3h1c-0.1,1.8-0.1,3-0.2,3.6c-0.1,1-0.6,1.5-1.7,1.5c-0.7,0-1.2,0-1.6,0c0-0.2-0.1-0.4-0.1-0.6
		c0-0.1,0-0.2,0-0.3c0.2,0,0.8,0,1.7,0c0.6,0,0.9-0.3,1-0.8c0.1-0.5,0.1-1.4,0.2-2.7h-4.4l0.3-3.6H58.9z"/>
</g>
<g>
	<path style="fill:#666666;" d="M20.9,241.5c0.2-0.1,0.6-0.2,1.1-0.3c0.2-0.1,0.3-0.1,0.4-0.1v-4.1h-1.3v-0.7h1.3v-2.8h0.8v2.8h1.2
		v0.7h-1.2v3.8c0.2-0.1,0.4-0.1,0.8-0.3c0.3-0.1,0.5-0.2,0.6-0.2c0,0.3,0,0.6,0,0.8c-1.2,0.5-2.3,0.8-3.3,1.1L20.9,241.5z
		 M24.1,237.7l0.9-0.3v-2.8h0.8v2.5l1.6-0.5v-3.1h0.8v2.8l2.5-0.9c0,0.2,0,0.6,0,1.1c0,0.9-0.1,1.6-0.1,2.1c0,1.1-0.4,1.6-1.3,1.5
		c-0.2,0-0.4,0-0.8,0c0-0.3-0.1-0.5-0.2-0.8c0.1,0,0.2,0,0.4,0c0.2,0,0.4,0,0.5,0c0.4,0,0.6-0.2,0.6-0.8c0-0.5,0-1.2,0-2.1l-1.6,0.7
		v4.3h-0.8v-4l-1.6,0.6v3.5c0,0.6,0.3,0.9,1,0.8H29c0.8,0,1.2-0.2,1.2-0.7c0.1-0.6,0.2-1.1,0.2-1.5c0.3,0.1,0.5,0.2,0.8,0.3
		c-0.1,0.7-0.2,1.2-0.3,1.7c-0.1,0.7-0.7,1.1-1.8,1.1h-2.6c-1.1,0-1.6-0.5-1.6-1.4v-3.3l-0.8,0.3L24.1,237.7z"/>
	<path style="fill:#666666;" d="M31.8,241c0.2-0.1,0.4-0.1,0.8-0.3c0.4-0.1,0.6-0.2,0.8-0.3v-3.8h-1.4V236h1.4v-2.7h0.8v2.7h1.4v0.8
		h-1.4v3.5c0.5-0.2,1-0.3,1.5-0.5c0,0.3,0,0.6,0,0.8c-0.2,0.1-0.5,0.2-0.8,0.3c-1.3,0.5-2.2,0.8-2.8,1.1L31.8,241z M38.5,233.3h0.8
		v3.2h2.4v0.8h-2.4v4.7h2.7v0.7h-7.3v-0.7h1.6v-6.5H37v6.5h1.5V233.3z"/>
	<path style="fill:#666666;" d="M45.7,238.8v1.5h-1.4v-1.5H45.7z M45.7,241.9v1.4h-1.4v-1.4H45.7z"/>
	<path style="fill:#666666;" d="M54.1,235.5h4v-2.2h0.8v2.2h4v4.6h-0.8v-0.5h-3.2v3.8h-0.8v-3.8h-3.2v0.5h-0.8V235.5z M54.9,236.2
		v2.6h3.2v-2.6H54.9z M62.1,236.2h-3.2v2.6h3.2V236.2z"/>
	<path style="fill:#666666;" d="M64.8,233.8h8.9v9.4H73v-0.5h-7.4v0.5h-0.8V233.8z M65.6,234.5v7.5H73v-7.5H65.6z M66.4,237.6h2.4
		v-1.4h-2.7v-0.7h6.1v0.7h-2.7v1.4h2.4v0.7h-2.4v2h2.8v0.7h-6.4v-0.7h2.8v-2h-2.4V237.6z M70.2,239l0.6-0.5c0.2,0.2,0.5,0.6,1,1.1
		l-0.6,0.5C70.7,239.6,70.4,239.2,70.2,239z"/>
	<path style="fill:#666666;" d="M79.1,233.4H80v3.1h4.2v0.8H80v4.6h5v0.7h-10v-0.7h4V233.4z"/>
	<path style="fill:#666666;" d="M86.3,236.1c0.6,0.5,1.2,0.9,1.7,1.4l-0.6,0.6c-0.5-0.5-1.1-0.9-1.6-1.4L86.3,236.1z M86.1,243
		c0.2-0.7,0.6-1.8,1-3.5c0-0.2,0.1-0.3,0.1-0.4c0.3,0.1,0.5,0.2,0.8,0.3c-0.3,1.2-0.7,2.5-1,3.8L86.1,243z M86.7,233.4
		c0.5,0.4,1.1,0.8,1.7,1.4l-0.5,0.6c-0.6-0.6-1.2-1.1-1.6-1.5L86.7,233.4z M88,236.1c0.9-0.8,1.6-1.8,2.1-3l0.8,0.1
		c-0.1,0.3-0.3,0.6-0.5,0.9h5.4v0.7h-5.8c-0.5,0.8-1,1.4-1.5,1.8c-0.1-0.1-0.2-0.2-0.3-0.4C88,236.3,88,236.2,88,236.1z M95,235.8
		c0,0.3,0,0.8,0,1.4c0,0.5,0,0.9,0,1.2H96v0.7h-1.1c0,0.3,0,0.6,0,1.1c0,0.4,0,0.7,0,0.8h0.8v0.7h-0.8c-0.1,1-0.6,1.5-1.7,1.5
		c-0.5,0-0.9,0-1.4,0c0-0.1,0-0.3-0.1-0.5c0-0.1,0-0.2,0-0.3c0.4,0,0.8,0,1.4,0c0.6,0,1-0.2,1.1-0.7h-5.3l0.3-2.6h-1v-0.7h1.1
		l0.3-2.6H95z M94,241c0-0.2,0-0.5,0-0.9c0-0.4,0-0.7,0-1h-4.3l-0.2,1.9H94z M90.2,236.5l-0.3,1.9h4.2c0-0.6,0-1.3,0-1.9H90.2z
		 M91.1,239.8l0.4-0.5c0.4,0.3,0.9,0.7,1.3,1l-0.5,0.5c-0.1-0.1-0.2-0.2-0.4-0.4C91.8,240.4,91.5,240.1,91.1,239.8z M91.2,237.1
		l0.5-0.5c0.4,0.3,0.8,0.7,1.3,1l-0.5,0.5C92,237.8,91.6,237.5,91.2,237.1z"/>
	<path style="fill:#666666;" d="M96.7,234.8h4.8c-0.2-0.4-0.5-0.8-0.7-1.3l0.8-0.4c0.3,0.5,0.6,0.9,0.8,1.3l-0.7,0.3h5v0.8h-4.6v1.4
		h3.7v3.8c0.1,0.9-0.4,1.3-1.3,1.3c-0.4,0-0.8,0-1.4,0c0-0.2-0.1-0.4-0.2-0.8c0.1,0,0.3,0,0.5,0c0.3,0,0.6,0,0.8,0
		c0.5,0,0.8-0.2,0.8-0.7v-2.9h-2.9v5.5h-0.8v-5.5h-2.8v4.5h-0.8V237h3.6v-1.4h-4.5V234.8z"/>
	<path style="fill:#666666;" d="M107.4,236.1c0.9-0.7,1.7-1.6,2.4-2.8l0.7,0.4c-0.9,1.3-1.8,2.3-2.7,3.2
		C107.7,236.6,107.6,236.3,107.4,236.1z M107.4,239.2c1-0.9,1.8-2.1,2.6-3.5l0.7,0.4c-0.1,0.2-0.3,0.4-0.5,0.8
		c-0.3,0.4-0.4,0.6-0.5,0.8v5.5h-0.8v-4.5c-0.4,0.5-0.7,0.9-1.1,1.3C107.6,239.8,107.5,239.5,107.4,239.2z M111.8,240l0.7,0.4
		c-0.5,0.8-1.1,1.6-1.7,2.3c-0.1-0.1-0.4-0.3-0.6-0.5C110.7,241.7,111.2,241,111.8,240z M114.6,233.4c-0.1,0.1-0.2,0.3-0.2,0.3
		c0.8,1.3,1.9,2.3,3.2,2.9c0,0.1-0.1,0.2-0.2,0.3c-0.1,0.1-0.2,0.3-0.3,0.3c-1.2-0.7-2.3-1.7-3.1-2.9c-0.5,0.8-1.2,1.6-2.1,2.3h4.2
		v0.7h-1.7v1.3h2.8v0.7h-2.8v2.5c0.1,0.8-0.3,1.1-1.1,1.1c-0.3,0-0.7,0-1.1,0c0-0.1,0-0.3-0.1-0.6c0-0.1,0-0.2,0-0.2
		c0.1,0,0.3,0,0.5,0c0.2,0,0.4,0,0.5,0c0.4,0,0.6-0.1,0.5-0.5v-2.4h-2.7v-0.7h2.7v-1.3h-1.8v-0.5c-0.1,0.1-0.2,0.2-0.4,0.3
		c-0.2,0.1-0.3,0.3-0.4,0.3c-0.1-0.1-0.1-0.2-0.3-0.3c-0.1-0.2-0.2-0.3-0.3-0.3c1.5-0.9,2.7-2.1,3.5-3.6L114.6,233.4z M115,240.4
		l0.6-0.4c0.7,0.8,1.3,1.4,1.8,2l-0.6,0.5c-0.1-0.1-0.2-0.2-0.3-0.4C115.8,241.4,115.4,240.8,115,240.4z"/>
	<path style="fill:#666666;" d="M118.4,240.5c1.7-0.4,3.1-1.2,4.1-2.1c0-0.1-0.1-0.1-0.2-0.3c-0.1-0.1-0.2-0.2-0.2-0.2
		c-1,0.7-2.1,1.2-3.4,1.6c-0.1-0.2-0.3-0.4-0.5-0.7c1.5-0.3,2.9-1,4.1-1.9h-2.8v-0.7h7.3v0.7h-3.5c-0.3,0.2-0.5,0.4-0.8,0.6
		c0.4,0.4,0.7,0.8,0.9,1.3c1.2-0.6,2.2-1.1,3.1-1.6l0.5,0.7c-0.6,0.3-1.3,0.7-2,1c0.5,1.4,1.5,2.3,3.1,2.8c-0.2,0.2-0.4,0.4-0.6,0.7
		c-1.5-0.6-2.6-1.7-3.1-3.2c-0.1,0-0.2,0.1-0.3,0.2c-0.1,0.1-0.3,0.1-0.3,0.2c0.2,0.5,0.3,1,0.3,1.5c0.1,1.4-0.6,2-1.9,2
		c-0.4,0-0.7,0-1,0c-0.1-0.3-0.1-0.6-0.2-0.8c0.2,0,0.6,0,1.2,0c0.8,0.1,1.2-0.4,1.1-1.2c0-0.3,0-0.5-0.1-0.8
		c-1.1,1.1-2.6,1.9-4.6,2.6c-0.1-0.2-0.2-0.5-0.4-0.8c2-0.5,3.6-1.4,4.9-2.6c-0.1-0.2-0.2-0.4-0.3-0.6c-1.1,1-2.4,1.7-4.1,2.2
		C118.7,241,118.5,240.8,118.4,240.5z M122.6,233.4l0.8-0.3c0.1,0.1,0.1,0.3,0.3,0.5c0.1,0.3,0.2,0.5,0.3,0.7l-0.5,0.1h4.5v1.7h-0.8
		v-1h-7.8v1h-0.8v-1.7h4.6C123,234.1,122.8,233.7,122.6,233.4z"/>
	<path style="fill:#666666;" d="M129.4,236.1c0.7,0.4,1.4,0.9,1.9,1.3c-0.2,0.3-0.4,0.5-0.5,0.8c-0.7-0.6-1.3-1.1-1.9-1.4
		L129.4,236.1z M130.5,239.1c0.3,0.2,0.6,0.3,0.8,0.4c-0.2,0.8-0.6,2-1.1,3.7l-0.9-0.4C129.8,241.7,130.2,240.4,130.5,239.1z
		 M129.9,233.4c0.4,0.3,0.9,0.7,1.6,1.2c0.1,0.1,0.1,0.1,0.2,0.2c-0.1,0.1-0.2,0.2-0.4,0.5c0.1-0.1,0,0-0.1,0.2c0,0-0.1-0.1-0.1-0.1
		c-0.8-0.6-1.3-1.1-1.7-1.4L129.9,233.4z M132.4,233.9h6.5v0.8h-5.7v7.3h5.8v0.8h-6.7V233.9z"/>
	<path style="fill:#666666;" d="M140.4,233.9h3.3v3.2h-1v1.7h1v0.7h-1v2.1c0.4-0.1,0.8-0.1,1.2-0.2c0,0.2,0,0.4,0,0.7
		c-0.3,0.1-1,0.2-2.1,0.3c-0.9,0.1-1.5,0.2-1.9,0.3l-0.1-0.7c0.2,0,0.4,0,0.6-0.1V238h0.7v3.8c0.3-0.1,0.6-0.1,0.9-0.1V237h-1.6
		V233.9z M141.2,234.6v1.8h1.9v-1.8H141.2z M143.9,236.3c0.7-0.8,1.3-1.9,1.9-3.1l0.8,0.2c0,0.1-0.1,0.2-0.2,0.3
		c0,0.1-0.1,0.3-0.3,0.6h3.2v0.7c-0.6,1-1.2,1.8-1.8,2.4c0.6,0.5,1.5,0.8,2.5,1.1c-0.1,0.2-0.3,0.5-0.5,0.8
		c-1.1-0.4-1.9-0.8-2.6-1.4c-0.8,0.6-1.6,1-2.7,1.4c-0.2-0.3-0.4-0.6-0.5-0.7c1.1-0.4,1.9-0.8,2.5-1.2c-0.4-0.4-0.8-1-1.1-1.6
		c-0.3,0.4-0.5,0.7-0.8,1.1C144.2,236.8,144.1,236.6,143.9,236.3z M144.6,239.4h4.4v3.9h-0.8v-0.5h-2.9v0.5h-0.8V239.4z
		 M145.4,240.1v2h2.9v-2H145.4z M148.4,235h-2.7c0,0,0,0.1,0,0.1c0.4,0.7,0.8,1.3,1.3,1.8C147.5,236.4,148,235.8,148.4,235z"/>
	<path style="fill:#666666;" d="M156.2,235.8l-0.8,0.3c-0.2-1-0.8-1.5-1.6-1.4c-1.4,0-2.1,1.2-2.1,3.5c0.5-0.8,1.2-1.2,2.2-1.2
		c1.6,0.1,2.4,1,2.5,2.7c-0.1,1.8-1,2.7-2.7,2.9c-2,0-3-1.4-3-4.1c0-3.1,1.1-4.6,3.1-4.6C155,233.9,155.8,234.5,156.2,235.8z
		 M151.7,239.2c0,1.7,0.7,2.6,2,2.7c1.1-0.1,1.6-0.8,1.7-2.1c0-1.3-0.6-2-1.7-2.1C152.6,237.8,151.9,238.3,151.7,239.2z"/>
	<path style="fill:#666666;" d="M160.4,235.6c-0.6,0.6-1.4,1-2.2,1.4v-0.9c1.3-0.6,2.1-1.3,2.5-2.2h0.6v8.6h-0.9V235.6z"/>
	<path style="fill:#666666;" d="M166.8,242.5c-1.9,0-2.8-1.5-2.8-4.3c0-2.8,1-4.3,2.8-4.4c1.8,0.1,2.8,1.5,2.8,4.4
		C169.5,241.1,168.6,242.5,166.8,242.5z M166.7,234.6c-1.2,0.1-1.7,1.3-1.8,3.6c0,2.4,0.6,3.6,1.8,3.6c1.2,0,1.8-1.2,1.8-3.6
		C168.5,235.8,167.9,234.6,166.7,234.6z"/>
	<path style="fill:#666666;" d="M172.1,240.2v-0.8l0.5-1.1h-2.2v-0.7h10.1v0.7h-7l-0.5,1.1h6.1c-0.1,0.6-0.1,1.2-0.2,1.8
		c-0.1,1.2-0.8,1.8-2.3,1.8c-0.7,0-1.4,0-2.2,0c0,0,0-0.1,0-0.2c0-0.3-0.1-0.5-0.1-0.7c0.8,0.1,1.6,0.1,2.3,0.1c1,0.1,1.4-0.3,1.5-1
		c0-0.1,0-0.2,0-0.3c0-0.3,0.1-0.6,0.1-0.7H172.1z M172,233.7h6.9v3H172V233.7z M172.8,234.5v1.5h5.3v-1.5H172.8z"/>
	<path style="fill:#666666;" d="M22.4,251.9h7.3v9.2h-0.9v-0.7h-5.6v0.7h-0.8V251.9z M23.3,252.7v3.1h5.6v-3.1H23.3z M23.3,256.5
		v3.2h5.6v-3.2H23.3z"/>
	<path style="fill:#666666;" d="M38.7,260.3c0.6,0,0.9-0.2,0.9-0.7v-1.7h-5.4c-0.1,1.3-0.6,2.5-1.5,3.5c-0.2-0.2-0.5-0.4-0.7-0.6
		c1.1-1,1.6-2.8,1.6-5.5v-3.5h6.8v7.9c0.1,1-0.5,1.5-1.6,1.5c-0.6,0-1.1,0-1.4,0c0-0.2-0.1-0.5-0.2-0.8c0.1,0,0.3,0,0.6,0
		C38.2,260.3,38.5,260.3,38.7,260.3z M34.4,255.3c0,0.7,0,1.3,0,1.9h5.3v-2h-5.2V255.3z M34.4,252.4v2h5.2v-2H34.4z"/>
	<path style="fill:#666666;" d="M47.2,251.3h0.8v4.3h4.6v0.8h-3.4v3.2c0,0.5,0.2,0.7,0.7,0.7h1.1c0.4,0,0.7-0.2,0.8-0.5
		c0-0.1,0-0.2,0-0.5c0-0.4,0-0.7,0-1c0.1,0,0.1,0.1,0.2,0.1c0.3,0.1,0.6,0.2,0.7,0.2c-0.1,0.8-0.2,1.3-0.3,1.5
		c-0.1,0.6-0.6,0.9-1.5,0.9h-1.2c-0.9,0-1.4-0.5-1.4-1.3v-3.4h-2c0.1,2.5-1,4.1-3.5,4.9c-0.1-0.2-0.3-0.4-0.5-0.7
		c2.2-0.6,3.2-2,3.2-4.2h-3v-0.8h4.6V251.3z M43.5,252.6l0.6-0.5c0.7,0.8,1.4,1.5,2,2.3l-0.7,0.5C44.7,254.1,44.1,253.3,43.5,252.6z
		 M49.1,254.4c0.8-0.8,1.5-1.6,2.1-2.4l0.8,0.5c-0.7,0.8-1.4,1.6-2.2,2.3L49.1,254.4z"/>
	<path style="fill:#666666;" d="M54.1,253.5h4v-2.2h0.8v2.2h4v4.6h-0.8v-0.5h-3.2v3.8h-0.8v-3.8h-3.2v0.5h-0.8V253.5z M54.9,254.2
		v2.6h3.2v-2.6H54.9z M62.1,254.2h-3.2v2.6h3.2V254.2z"/>
	<path style="fill:#666666;" d="M65.3,254.3l0.8,0.2c-0.3,1.6-0.7,3-1.1,4.2l-0.8-0.3C64.7,256.9,65.1,255.6,65.3,254.3z
		 M66.9,253.2h0.8v6c0,0.6,0.3,0.9,0.9,0.9h2c0.7,0.1,1.1-0.2,1.1-0.7c0-0.1,0-0.3,0-0.5c0.1-0.4,0.1-0.8,0.1-1.1
		c0.3,0.1,0.6,0.2,0.8,0.3c-0.1,0.6-0.2,1.2-0.3,1.6c-0.1,0.8-0.7,1.2-1.8,1.1h-2.2c-1.1,0-1.6-0.5-1.6-1.5V253.2z M69.1,251.2
		c0.4,0.6,0.9,1.4,1.5,2.6c0.1,0.1,0.1,0.3,0.2,0.3l-0.8,0.4c-0.5-1-1-2-1.6-3L69.1,251.2z M72.6,254c0.1,0.1,0.1,0.3,0.3,0.5
		c0.7,1.4,1.2,2.5,1.5,3.2l-0.8,0.4c-0.5-1.4-1.1-2.6-1.7-3.8L72.6,254z"/>
	<path style="fill:#666666;" d="M81.7,257.5l1.1,0.3c-0.5,1.8-1.8,2.8-3.7,2.8c-2.4-0.1-3.7-1.5-3.8-4.2c0.1-2.9,1.4-4.4,3.9-4.5
		c1.6,0.1,2.7,0.9,3.4,2.4l-1.1,0.3c-0.5-1.2-1.3-1.8-2.4-1.9c-1.7,0.2-2.7,1.4-2.8,3.6c0.1,2.2,1,3.3,2.8,3.5
		C80.4,259.7,81.3,259,81.7,257.5z"/>
	<path style="fill:#666666;" d="M88.4,251.4l0.7-0.3c0.1,0.1,0.1,0.3,0.2,0.5c0.2,0.3,0.3,0.5,0.3,0.7l-0.3,0.2h4.1v0.7h-8.3v2.4
		c0,1.6-0.1,2.7-0.2,3.5c-0.1,0.7-0.4,1.5-0.8,2.3c-0.1,0-0.1-0.1-0.2-0.2c-0.1-0.1-0.2-0.2-0.5-0.4c0.4-0.7,0.6-1.3,0.8-2
		c0.1-0.6,0.2-1.7,0.2-3.1v-3.2h4.5C88.7,252.1,88.6,251.7,88.4,251.4z M85.2,260.1H89v-1.4h-3.1V258H89v-4.4h0.8v4.4h3.1v0.7h-3.1
		v1.4h3.8v0.7h-8.4V260.1z M85.4,256.8c0.8-0.9,1.3-1.8,1.5-2.9l0.8,0.2c-0.1,0.4-0.2,0.7-0.3,1c0.1,0.1,0.3,0.3,0.5,0.5
		c0.4,0.4,0.7,0.7,0.9,0.9l-0.6,0.5c-0.3-0.4-0.7-0.9-1.2-1.3c-0.3,0.5-0.6,1-1.1,1.5C85.8,257.1,85.6,257,85.4,256.8z M89.9,256.6
		c0.8-0.8,1.3-1.7,1.7-2.7l0.8,0.2c0,0,0,0.1,0,0.1c-0.1,0.3-0.3,0.6-0.4,0.8c0.6,0.5,1.1,1,1.6,1.6l-0.6,0.6
		c-0.4-0.5-0.9-1-1.4-1.5c-0.3,0.5-0.6,0.9-1.1,1.4c-0.1-0.1-0.1-0.1-0.3-0.2C90.1,256.8,90,256.7,89.9,256.6z"/>
	<path style="fill:#666666;" d="M94.4,260.3v-0.5c0.5-1.1,1.4-2.1,2.7-3c1.3-0.9,1.9-1.8,1.9-2.5c0-1-0.6-1.5-1.7-1.6
		c-0.9,0.1-1.5,0.6-1.8,1.6l-0.8-0.4c0.5-1.4,1.4-2.1,2.8-2c1.6,0.1,2.4,0.8,2.5,2.2c0.1,1.1-0.6,2.2-2.1,3.2
		c-1.2,0.8-1.9,1.6-2.3,2.4h4.4v0.7H94.4z"/>
	<path style="fill:#666666;" d="M103.8,260.5c-1.9,0-2.8-1.5-2.8-4.3c0-2.8,1-4.3,2.8-4.4c1.8,0.1,2.8,1.5,2.8,4.4
		C106.5,259.1,105.6,260.5,103.8,260.5z M103.7,252.6c-1.2,0.1-1.7,1.3-1.8,3.6c0,2.4,0.6,3.6,1.8,3.6c1.2,0,1.8-1.2,1.8-3.6
		C105.6,253.8,104.9,252.6,103.7,252.6z"/>
	<path style="fill:#666666;" d="M116.9,254.7h-7.6v0.5c0,1.5-0.1,2.6-0.3,3.5c-0.2,0.9-0.6,1.8-1.2,2.7c-0.3-0.3-0.5-0.6-0.6-0.7
		c0.9-1.2,1.3-3,1.3-5.4v-3.4h8.4V254.7z M109.3,252.5v1.5h6.8v-1.5H109.3z M114.2,259l0.6-0.5c0.9,0.8,1.7,1.5,2.4,2.2l-0.6,0.5
		c-0.2-0.2-0.4-0.5-0.6-0.7c-2.4,0-4.1,0.1-5.1,0.2c-0.2,0-0.4,0-0.7,0.1l-0.3-0.8c0.4-0.1,0.7-0.3,0.9-0.5c0.5-0.5,1-1,1.3-1.5
		h-2.6v-0.7h8.1v0.7H113c-0.6,0.8-1.2,1.4-1.6,1.8c1.3,0,2.6,0,3.9,0C114.9,259.6,114.5,259.3,114.2,259z M110.2,255.7h6.4v0.7h-6.4
		V255.7z"/>
</g>
<g>
	<path style="fill:#666666;" d="M21,147.6h10.5v2H21V147.6z M21.5,155.5h9.8v8.2h-2.5V163h-4.9v0.7h-2.5V155.5z M22.1,150.3h8.6v4.6
		h-8.6V150.3z M23.9,157.4v1.1h1.3v-1.1H23.9z M23.9,160.1v1.1h1.3v-1.1H23.9z M28.1,152.2h-3.6v0.8h3.6V152.2z M28.8,157.4h-1.3
		v1.1h1.3V157.4z M27.4,160.1v1.1h1.3v-1.1H27.4z M34.2,159.5h-2.2v-10.8h2.2V159.5z M35,146.9h2.5v13.9c0.1,1.7-0.6,2.6-2.2,2.6
		c-0.5,0-1.4,0.1-2.5,0.1c-0.2-0.9-0.4-1.7-0.5-2.4c0.8,0,1.5,0,2,0c0.6,0,0.9-0.2,0.8-0.8V146.9z"/>
	<path style="fill:#666666;" d="M38.9,161.7c0.6-1.2,1.1-2.7,1.5-4.4l2.5,0.8c-0.6,2-1.1,3.5-1.6,4.5L38.9,161.7z M42.1,147.3
		l3.1-0.6c0.3,0.4,0.6,1,1,1.7c0.2,0.3,0.3,0.6,0.4,0.7h1.7c0.2-0.4,0.6-1.1,1.2-2.1c0-0.1,0.1-0.2,0.1-0.3l3.2,0.7
		c-0.4,0.6-0.8,1.1-1.3,1.7h2.6v7.2h-5.6c0.2,0.3,0.6,0.8,1.1,1.4c0.2,0.3,0.4,0.6,0.6,0.7l-2.3,1.7c-0.7-1.1-1.3-2.1-2-3l1.3-0.8
		h-6.5v-7.2h2.5c-0.2-0.3-0.5-0.8-0.8-1.3C42.3,147.6,42.2,147.4,42.1,147.3z M51.2,158l2.3-1.1c0.5,0.8,1.2,1.9,2,3.3
		c0.2,0.5,0.4,0.8,0.6,1l-2.5,1.1c-0.1-0.2-0.2-0.5-0.4-0.8c-0.2-0.4-0.4-0.7-0.5-0.9c-0.2,0.7-0.3,1.1-0.4,1.2
		c-0.3,1.1-1.2,1.7-2.8,1.6h-3.9c-1.7,0-2.6-0.9-2.5-2.8v-3.4h2.8v2.7c0,0.8,0.4,1.2,1.1,1.1h1.8c0.8,0,1.3-0.3,1.3-0.9
		c0.1-0.3,0.2-0.6,0.2-1c0,0,0,0,0-0.3c0.6,0.2,1.2,0.4,1.8,0.6C51.7,158.9,51.5,158.5,51.2,158z M51.2,153.9v-2.2h-7.5v2.2H51.2z"
		/>
	<path style="fill:#666666;" d="M69.6,146.9c0,1.5,0,3,0,4.4H74v2.3h-2.5l2.1,1.1c-1.1,2-2.1,3.6-3.2,4.9c0.1,0.3,0.3,0.7,0.6,1.1
		c0.1,0.2,0.2,0.3,0.3,0.2c0.1,0,0.2-0.2,0.2-0.4c0.1-0.7,0.3-1.6,0.4-2.6c0.3,0.2,0.8,0.4,1.4,0.6c0.4,0.1,0.6,0.2,0.8,0.3
		c-0.2,1.7-0.4,2.8-0.6,3.3c-0.3,1.1-1,1.7-2.2,1.8c-1.1,0-2.1-0.7-2.8-2.1c0,0-0.1,0.1-0.1,0.1c-1,0.9-1.9,1.6-2.5,2.1
		c-0.1-0.1-0.3-0.3-0.5-0.5c-0.5-0.6-1-1.1-1.3-1.3c0.3-0.2,0.6-0.3,0.8-0.4c-0.5-0.4-1-0.8-1.5-1.3c0,0.4,0.1,1,0.1,1.6
		c0-0.1,0,0,0.1,0.5c-0.2,0-0.6,0.1-1,0.3c-0.5,0.1-1.2,0.4-2.1,0.6c-0.1,0-0.2,0.1-0.3,0.1c-0.4,0.2-0.7,0.4-0.9,0.5l-1-1.7
		c0.5-0.4,0.7-0.8,0.6-1.4v-0.4c0,0-0.1,0.1-0.2,0.1c-0.3,0.2-0.7,0.4-1.3,0.8c-0.1-0.4-0.3-1-0.6-1.8c-0.1-0.3-0.2-0.5-0.2-0.6
		c1.3-0.7,2.3-1.4,3-2.1h-2.6v-2.2h3.4c0-0.1,0-0.2-0.1-0.4c0-0.2-0.1-0.3-0.1-0.4l2.8-0.1c0.1,0.3,0.2,0.6,0.4,1h3.1v2.2h-0.9
		l1.5,1.3c-0.2,0.2-0.5,0.4-0.9,0.8c-0.3,0.2-0.5,0.3-0.6,0.4c0.1,0.1,0.4,0.3,0.6,0.5c0.1,0.1,0.2,0.2,0.3,0.2
		c0.1-0.1,0.4-0.4,0.6-0.6c0.1-0.1,0.3-0.3,0.4-0.4c-0.3-1.4-0.6-3.2-0.7-5.5H57v-2.3h3.6v-0.9h-3v-2.1h3v-1.3h2.7v1.3h2.8v2.1h-2.8
		v0.9h3.5c0-0.5,0-1.3-0.1-2.5c0-0.9,0-1.6,0-1.9H69.6z M63,157.3c0.1,0.1,0.3,0.2,0.6,0.4c0.2,0.2,0.4,0.3,0.5,0.4
		c0.1-0.1,0.4-0.4,0.6-0.6c0.3-0.2,0.5-0.4,0.6-0.6h-2.6c-0.4,0.5-0.8,1-1.3,1.5v2.6c0.7-0.3,1.3-0.5,1.9-0.7
		c-0.2-0.1-0.5-0.4-0.9-0.8c-0.4-0.3-0.7-0.5-0.8-0.6L63,157.3z M69.6,148.5l1.8-1.3c0.4,0.3,0.9,0.9,1.6,1.6
		c0.3,0.3,0.6,0.6,0.7,0.7l-2,1.5C71.2,150.3,70.5,149.4,69.6,148.5z M69.8,156.1c0.4-0.7,0.9-1.5,1.4-2.5h-1.6
		C69.7,154.5,69.8,155.4,69.8,156.1z"/>
</g>
<g>
	<path style="fill:#666666;" d="M25.1,295.2h0.8v1.4h3.8v5.7h-3.8v1.1c-0.1,0.5,0.3,0.7,0.9,0.7h2c0.6,0,0.9-0.1,1-0.5
		c0.1-0.2,0.1-0.7,0.2-1.3c0.3,0.1,0.6,0.2,0.8,0.3c-0.1,0.5-0.1,1-0.3,1.4c-0.1,0.6-0.7,1-1.7,0.9h-2.3c-1.1,0.1-1.6-0.4-1.5-1.4
		v-1.1h-3v0.7h-0.8v-6.5h3.8V295.2z M22.1,297.3v1.8h3v-1.8H22.1z M22.1,299.7v1.8h3v-1.8H22.1z M28.9,297.3h-3v1.8h3V297.3z
		 M25.9,301.5h3v-1.8h-3V301.5z"/>
	<path style="fill:#666666;" d="M35,302.7c0,0.1,0,0.2,0,0.4c0,0.2,0,0.4,0,0.5c-0.6,0.3-1.2,0.7-1.5,1c0,0-0.1,0.1-0.1,0.1
		c-0.1,0.1-0.2,0.2-0.4,0.3l-0.5-0.6c0.3-0.3,0.4-0.5,0.3-0.9v-4h-1.3v-0.7h2.1v4.9c0.1-0.1,0.3-0.2,0.5-0.3
		C34.5,303,34.8,302.8,35,302.7z M32.7,295.3c0.2,0.2,0.4,0.5,0.8,0.8c0.4,0.4,0.7,0.7,0.8,0.8l-0.7,0.6c-0.5-0.6-1-1.2-1.5-1.8
		L32.7,295.3z M35.4,300.7h2.3V299h-3.3v-0.8h3.3v-1.7c-0.3,0-0.8,0-1.4,0c-0.6,0-1,0-1.3,0c0-0.1-0.1-0.3-0.1-0.5
		c0-0.1,0-0.2,0-0.3c2.2-0.1,4.3-0.1,6.2-0.3l0.2,0.7c-0.9,0.1-1.8,0.1-2.7,0.2v1.7h3.2v0.8h-3.2v1.7h2.3v4.5H40v-0.7h-3.8v0.7h-0.8
		V300.7z M36.2,301.5v2.3H40v-2.3H36.2z"/>
	<path style="fill:#666666;" d="M45.5,300.7v1.5h-1.4v-1.5H45.5z M45.5,303.8v1.4h-1.4v-1.4H45.5z"/>
	<path style="fill:#666666;" d="M55.8,303.9v-5.5h-2v-0.7c0.3,0,0.5,0,0.8-0.1c0.2,0,0.5-0.1,0.7-0.2c0.2-0.1,0.4-0.3,0.5-0.4
		s0.2-0.4,0.3-0.7h0.7v7.7H55.8z"/>
	<path style="fill:#666666;" d="M59.8,297.4c0.1-0.2,0.3-0.4,0.5-0.6c0.2-0.2,0.4-0.3,0.7-0.4c0.3-0.1,0.6-0.1,0.8-0.1
		c0.4,0,0.8,0.1,1.1,0.2s0.5,0.3,0.7,0.4s0.3,0.4,0.4,0.6c0.1,0.2,0.1,0.5,0.1,0.7c0,0.3-0.1,0.7-0.3,0.9c-0.2,0.3-0.4,0.5-0.8,0.6
		c0.5,0.1,0.8,0.4,1,0.7c0.2,0.3,0.3,0.7,0.3,1.2c0,0.4-0.1,0.7-0.2,1c-0.1,0.3-0.3,0.5-0.5,0.7c-0.2,0.2-0.5,0.3-0.8,0.4
		c-0.3,0.1-0.6,0.2-1,0.2c-0.4,0-0.7,0-1-0.1c-0.3-0.1-0.6-0.2-0.8-0.4c-0.2-0.2-0.4-0.4-0.6-0.7c-0.1-0.3-0.2-0.6-0.2-1
		c0-0.5,0.1-0.8,0.3-1.2s0.6-0.6,1-0.7c-0.3-0.1-0.6-0.3-0.8-0.6c-0.2-0.3-0.3-0.6-0.3-1C59.6,297.9,59.7,297.6,59.8,297.4z
		 M60.8,302.9c0.3,0.3,0.7,0.4,1.2,0.4c0.2,0,0.4,0,0.6-0.1c0.2-0.1,0.4-0.2,0.5-0.3c0.1-0.1,0.2-0.3,0.3-0.5
		c0.1-0.2,0.1-0.4,0.1-0.6c0-0.2,0-0.4-0.1-0.6s-0.2-0.3-0.3-0.5c-0.1-0.1-0.3-0.2-0.5-0.3c-0.2-0.1-0.4-0.1-0.6-0.1
		c-0.2,0-0.4,0-0.6,0.1c-0.2,0.1-0.4,0.2-0.5,0.3c-0.1,0.1-0.3,0.3-0.3,0.5c-0.1,0.2-0.1,0.4-0.1,0.6
		C60.3,302.2,60.4,302.6,60.8,302.9z M60.7,298.8c0.1,0.2,0.2,0.3,0.3,0.4c0.1,0.1,0.3,0.2,0.4,0.2c0.2,0.1,0.3,0.1,0.5,0.1
		c0.4,0,0.7-0.1,0.9-0.3c0.2-0.2,0.4-0.5,0.4-0.9s-0.1-0.7-0.4-0.9c-0.2-0.2-0.5-0.3-0.9-0.3c-0.2,0-0.4,0-0.5,0.1
		c-0.2,0.1-0.3,0.1-0.4,0.2c-0.1,0.1-0.2,0.2-0.3,0.4c-0.1,0.1-0.1,0.3-0.1,0.5C60.6,298.5,60.6,298.7,60.7,298.8z"/>
	<path style="fill:#666666;" d="M69,297.4c-0.2-0.2-0.5-0.3-0.9-0.3c-0.4,0-0.7,0.1-0.9,0.3c-0.2,0.2-0.4,0.4-0.6,0.7
		c-0.1,0.3-0.2,0.6-0.3,0.9c-0.1,0.3-0.1,0.7-0.1,1l0,0c0.2-0.4,0.5-0.6,0.8-0.8c0.3-0.2,0.7-0.2,1.1-0.2c0.4,0,0.7,0.1,1,0.2
		c0.3,0.1,0.5,0.3,0.7,0.5s0.4,0.5,0.5,0.8c0.1,0.3,0.2,0.6,0.2,1c0,0.3,0,0.6-0.1,0.9s-0.2,0.6-0.4,0.8s-0.5,0.5-0.8,0.6
		c-0.3,0.2-0.7,0.2-1.2,0.2c-0.6,0-1-0.1-1.4-0.3c-0.3-0.2-0.6-0.5-0.8-0.9c-0.2-0.4-0.3-0.8-0.4-1.2c-0.1-0.4-0.1-0.8-0.1-1.3
		c0-0.5,0-1,0.1-1.5c0.1-0.5,0.2-0.9,0.5-1.3c0.2-0.4,0.5-0.7,0.9-0.9s0.8-0.3,1.4-0.3c0.6,0,1.1,0.2,1.5,0.5
		c0.4,0.3,0.6,0.8,0.6,1.5h-0.9C69.3,297.9,69.2,297.6,69,297.4z M67.3,300c-0.2,0.1-0.4,0.2-0.5,0.4c-0.1,0.2-0.2,0.3-0.3,0.6
		c-0.1,0.2-0.1,0.4-0.1,0.7c0,0.2,0,0.5,0.1,0.7c0.1,0.2,0.2,0.4,0.3,0.5c0.1,0.2,0.3,0.3,0.5,0.4c0.2,0.1,0.4,0.1,0.7,0.1
		s0.5,0,0.7-0.1c0.2-0.1,0.4-0.2,0.5-0.4s0.2-0.3,0.3-0.5s0.1-0.4,0.1-0.6c0-0.2,0-0.5-0.1-0.7c-0.1-0.2-0.2-0.4-0.3-0.6
		c-0.1-0.2-0.3-0.3-0.5-0.4c-0.2-0.1-0.4-0.1-0.7-0.1S67.5,299.9,67.3,300z"/>
	<path style="fill:#666666;" d="M76.8,303.9v-5.5h-2v-0.7c0.3,0,0.5,0,0.8-0.1c0.2,0,0.5-0.1,0.7-0.2c0.2-0.1,0.4-0.3,0.5-0.4
		s0.2-0.4,0.3-0.7h0.7v7.7H76.8z"/>
	<path style="fill:#666666;" d="M84,297.4c-0.2-0.2-0.5-0.3-0.9-0.3c-0.4,0-0.7,0.1-0.9,0.3c-0.2,0.2-0.4,0.4-0.6,0.7
		c-0.1,0.3-0.2,0.6-0.3,0.9c-0.1,0.3-0.1,0.7-0.1,1l0,0c0.2-0.4,0.5-0.6,0.8-0.8c0.3-0.2,0.7-0.2,1.1-0.2c0.4,0,0.7,0.1,1,0.2
		c0.3,0.1,0.5,0.3,0.7,0.5s0.4,0.5,0.5,0.8c0.1,0.3,0.2,0.6,0.2,1c0,0.3,0,0.6-0.1,0.9s-0.2,0.6-0.4,0.8s-0.5,0.5-0.8,0.6
		c-0.3,0.2-0.7,0.2-1.2,0.2c-0.6,0-1-0.1-1.4-0.3c-0.3-0.2-0.6-0.5-0.8-0.9c-0.2-0.4-0.3-0.8-0.4-1.2c-0.1-0.4-0.1-0.8-0.1-1.3
		c0-0.5,0-1,0.1-1.5c0.1-0.5,0.2-0.9,0.5-1.3c0.2-0.4,0.5-0.7,0.9-0.9s0.8-0.3,1.4-0.3c0.6,0,1.1,0.2,1.5,0.5
		c0.4,0.3,0.6,0.8,0.6,1.5h-0.9C84.3,297.9,84.2,297.6,84,297.4z M82.3,300c-0.2,0.1-0.4,0.2-0.5,0.4c-0.1,0.2-0.2,0.3-0.3,0.6
		c-0.1,0.2-0.1,0.4-0.1,0.7c0,0.2,0,0.5,0.1,0.7c0.1,0.2,0.2,0.4,0.3,0.5c0.1,0.2,0.3,0.3,0.5,0.4c0.2,0.1,0.4,0.1,0.7,0.1
		s0.5,0,0.7-0.1c0.2-0.1,0.4-0.2,0.5-0.4s0.2-0.3,0.3-0.5s0.1-0.4,0.1-0.6c0-0.2,0-0.5-0.1-0.7c-0.1-0.2-0.2-0.4-0.3-0.6
		c-0.1-0.2-0.3-0.3-0.5-0.4c-0.2-0.1-0.4-0.1-0.7-0.1S82.5,299.9,82.3,300z"/>
	<path style="fill:#666666;" d="M86.8,297.4c0.1-0.2,0.3-0.4,0.5-0.6c0.2-0.2,0.4-0.3,0.7-0.4c0.3-0.1,0.6-0.1,0.8-0.1
		c0.4,0,0.8,0.1,1.1,0.2s0.5,0.3,0.7,0.4s0.3,0.4,0.4,0.6c0.1,0.2,0.1,0.5,0.1,0.7c0,0.3-0.1,0.7-0.3,0.9c-0.2,0.3-0.4,0.5-0.8,0.6
		c0.5,0.1,0.8,0.4,1,0.7c0.2,0.3,0.3,0.7,0.3,1.2c0,0.4-0.1,0.7-0.2,1c-0.1,0.3-0.3,0.5-0.5,0.7c-0.2,0.2-0.5,0.3-0.8,0.4
		c-0.3,0.1-0.6,0.2-1,0.2c-0.4,0-0.7,0-1-0.1c-0.3-0.1-0.6-0.2-0.8-0.4c-0.2-0.2-0.4-0.4-0.6-0.7c-0.1-0.3-0.2-0.6-0.2-1
		c0-0.5,0.1-0.8,0.3-1.2s0.6-0.6,1-0.7c-0.3-0.1-0.6-0.3-0.8-0.6c-0.2-0.3-0.3-0.6-0.3-1C86.6,297.9,86.7,297.6,86.8,297.4z
		 M87.8,302.9c0.3,0.3,0.7,0.4,1.2,0.4c0.2,0,0.4,0,0.6-0.1c0.2-0.1,0.4-0.2,0.5-0.3c0.1-0.1,0.2-0.3,0.3-0.5
		c0.1-0.2,0.1-0.4,0.1-0.6c0-0.2,0-0.4-0.1-0.6s-0.2-0.3-0.3-0.5c-0.1-0.1-0.3-0.2-0.5-0.3c-0.2-0.1-0.4-0.1-0.6-0.1
		c-0.2,0-0.4,0-0.6,0.1c-0.2,0.1-0.4,0.2-0.5,0.3c-0.1,0.1-0.3,0.3-0.3,0.5c-0.1,0.2-0.1,0.4-0.1,0.6
		C87.3,302.2,87.5,302.6,87.8,302.9z M87.7,298.8c0.1,0.2,0.2,0.3,0.3,0.4c0.1,0.1,0.3,0.2,0.4,0.2c0.2,0.1,0.3,0.1,0.5,0.1
		c0.4,0,0.7-0.1,0.9-0.3c0.2-0.2,0.4-0.5,0.4-0.9s-0.1-0.7-0.4-0.9c-0.2-0.2-0.5-0.3-0.9-0.3c-0.2,0-0.4,0-0.5,0.1
		c-0.2,0.1-0.3,0.1-0.4,0.2c-0.1,0.1-0.2,0.2-0.3,0.4c-0.1,0.1-0.1,0.3-0.1,0.5C87.6,298.5,87.6,298.7,87.7,298.8z"/>
	<path style="fill:#666666;" d="M92.5,297.9c0.1-0.3,0.3-0.6,0.5-0.9c0.2-0.2,0.5-0.4,0.8-0.6c0.3-0.1,0.7-0.2,1.1-0.2
		c0.3,0,0.6,0,0.9,0.1c0.3,0.1,0.5,0.2,0.8,0.4c0.2,0.2,0.4,0.4,0.5,0.7s0.2,0.6,0.2,1c0,0.3-0.1,0.6-0.2,0.9s-0.2,0.5-0.4,0.7
		c-0.2,0.2-0.4,0.4-0.6,0.6c-0.2,0.2-0.5,0.3-0.7,0.5c-0.2,0.1-0.5,0.3-0.7,0.4c-0.2,0.1-0.5,0.3-0.7,0.4c-0.2,0.2-0.4,0.3-0.5,0.5
		c-0.1,0.2-0.2,0.4-0.3,0.6h3.9v0.8h-5c0-0.5,0.1-0.8,0.2-1.2c0.1-0.3,0.3-0.6,0.5-0.8s0.4-0.4,0.7-0.6c0.2-0.2,0.5-0.3,0.8-0.5
		c0.3-0.2,0.6-0.4,0.9-0.6c0.2-0.2,0.4-0.3,0.6-0.5s0.3-0.4,0.4-0.6c0.1-0.2,0.1-0.4,0.1-0.7c0-0.2,0-0.4-0.1-0.6
		c-0.1-0.2-0.2-0.3-0.3-0.4c-0.1-0.1-0.3-0.2-0.5-0.3s-0.4-0.1-0.6-0.1c-0.3,0-0.5,0.1-0.7,0.2c-0.2,0.1-0.3,0.3-0.5,0.4
		c-0.1,0.2-0.2,0.4-0.3,0.6c-0.1,0.2-0.1,0.5-0.1,0.7h-0.9C92.4,298.6,92.4,298.3,92.5,297.9z"/>
	<path style="fill:#666666;" d="M102.9,297.2l-0.4,2.2l0,0c0.2-0.2,0.4-0.3,0.6-0.4c0.3-0.1,0.5-0.1,0.8-0.1c0.3,0,0.7,0.1,1,0.2
		c0.3,0.1,0.6,0.3,0.8,0.5c0.2,0.2,0.4,0.5,0.5,0.8s0.2,0.7,0.2,1.1c0,0.3-0.1,0.6-0.2,0.9c-0.1,0.3-0.3,0.6-0.5,0.8
		c-0.2,0.2-0.5,0.4-0.8,0.6c-0.3,0.1-0.7,0.2-1.2,0.2c-0.3,0-0.6,0-0.9-0.1c-0.3-0.1-0.5-0.2-0.8-0.4s-0.4-0.4-0.5-0.7
		c-0.1-0.3-0.2-0.6-0.2-0.9h0.9c0,0.2,0.1,0.4,0.1,0.5c0.1,0.2,0.2,0.3,0.3,0.4s0.3,0.2,0.5,0.3c0.2,0.1,0.4,0.1,0.6,0.1
		c0.2,0,0.4,0,0.6-0.1s0.4-0.2,0.5-0.3c0.1-0.2,0.3-0.3,0.4-0.6c0.1-0.2,0.1-0.5,0.1-0.8c0-0.3,0-0.5-0.1-0.7
		c-0.1-0.2-0.2-0.4-0.4-0.6s-0.3-0.3-0.5-0.4c-0.2-0.1-0.4-0.1-0.7-0.1c-0.3,0-0.6,0.1-0.8,0.2c-0.2,0.1-0.4,0.3-0.6,0.5l-0.8,0
		l0.7-4h3.8v0.8H102.9z"/>
	<path style="fill:#666666;" d="M112.5,301.3v0.8h-1v1.8h-0.9v-1.8h-3.4v-0.9l3.5-5h0.7v5.1H112.5z M110.6,297.6L110.6,297.6
		l-2.6,3.7h2.6V297.6z"/>
	<path style="fill:#666666;" d="M117.3,298.6c-0.3,0.5-0.6,1.1-0.9,1.7c-0.3,0.6-0.5,1.2-0.6,1.8c-0.2,0.6-0.3,1.2-0.3,1.8h-1
		c0-0.6,0.1-1.3,0.3-1.9c0.2-0.6,0.4-1.2,0.7-1.8c0.3-0.6,0.6-1.1,0.9-1.6c0.3-0.5,0.7-1,1.1-1.4h-4v-0.9h5v0.8
		C118,297.6,117.7,298,117.3,298.6z"/>
	<path style="fill:#666666;" d="M121.9,303.9v-5.5h-2v-0.7c0.3,0,0.5,0,0.8-0.1c0.2,0,0.5-0.1,0.7-0.2c0.2-0.1,0.4-0.3,0.5-0.4
		s0.2-0.4,0.3-0.7h0.7v7.7H121.9z"/>
</g>
<g>
	<path style="fill:#666666;" d="M26.6,331.2v0.9h-4.3v2.5h4v0.9h-4v2.7h4.3v0.9h-5.4v-7.7H26.6z"/>
	<path style="fill:#666666;" d="M30.7,335.4v0.9h-3.1v-0.9H30.7z"/>
	<path style="fill:#666666;" d="M32.8,333.3v0.8h0c0.4-0.6,1-1,1.8-1c0.3,0,0.7,0.1,0.9,0.2c0.3,0.1,0.5,0.4,0.6,0.7
		c0.2-0.3,0.4-0.5,0.7-0.7c0.3-0.2,0.6-0.2,1-0.2c0.3,0,0.5,0,0.8,0.1c0.2,0.1,0.4,0.2,0.6,0.3c0.2,0.1,0.3,0.3,0.4,0.5
		c0.1,0.2,0.1,0.5,0.1,0.7v4.1h-0.9v-3.7c0-0.2,0-0.3,0-0.5c0-0.2-0.1-0.3-0.2-0.4c-0.1-0.1-0.2-0.2-0.3-0.3
		c-0.1-0.1-0.3-0.1-0.5-0.1c-0.5,0-0.8,0.1-1.1,0.4c-0.3,0.3-0.4,0.6-0.4,1v3.5h-0.9v-3.7c0-0.2,0-0.3,0-0.5c0-0.2-0.1-0.3-0.2-0.4
		c-0.1-0.1-0.2-0.2-0.3-0.3c-0.1-0.1-0.3-0.1-0.5-0.1c-0.3,0-0.5,0.1-0.7,0.2c-0.2,0.1-0.3,0.2-0.5,0.4c-0.1,0.2-0.2,0.3-0.3,0.5
		c-0.1,0.2-0.1,0.3-0.1,0.4v3.5H32v-5.6H32.8z"/>
	<path style="fill:#666666;" d="M45.5,339c-0.2,0-0.4-0.1-0.6-0.2c-0.1-0.1-0.2-0.4-0.2-0.7c-0.3,0.3-0.5,0.5-0.9,0.7
		s-0.7,0.2-1.1,0.2c-0.3,0-0.5,0-0.7-0.1c-0.2-0.1-0.4-0.1-0.6-0.3c-0.2-0.1-0.3-0.3-0.4-0.5c-0.1-0.2-0.1-0.4-0.1-0.7
		c0-0.3,0.1-0.6,0.2-0.8s0.2-0.4,0.4-0.5c0.2-0.1,0.4-0.2,0.6-0.3s0.5-0.1,0.7-0.2c0.3-0.1,0.5-0.1,0.7-0.1c0.2,0,0.4-0.1,0.6-0.1
		s0.3-0.1,0.4-0.2s0.2-0.2,0.2-0.4c0-0.2,0-0.4-0.1-0.5c-0.1-0.1-0.2-0.2-0.3-0.3S44,334,43.8,334c-0.1,0-0.3,0-0.4,0
		c-0.4,0-0.7,0.1-1,0.2c-0.3,0.1-0.4,0.4-0.4,0.8h-0.9c0-0.3,0.1-0.6,0.2-0.9c0.1-0.2,0.3-0.4,0.5-0.6c0.2-0.1,0.5-0.3,0.7-0.3
		c0.3-0.1,0.6-0.1,0.9-0.1c0.3,0,0.5,0,0.8,0.1s0.5,0.1,0.7,0.2c0.2,0.1,0.4,0.3,0.5,0.5c0.1,0.2,0.2,0.5,0.2,0.8v2.9
		c0,0.2,0,0.4,0,0.5c0,0.1,0.1,0.2,0.3,0.2c0.1,0,0.2,0,0.3-0.1v0.7C46,338.9,45.8,339,45.5,339z M44.2,336.2
		c-0.2,0-0.4,0.1-0.6,0.1c-0.2,0-0.4,0.1-0.6,0.1c-0.2,0-0.4,0.1-0.6,0.2c-0.2,0.1-0.3,0.2-0.4,0.3s-0.2,0.3-0.2,0.5
		c0,0.2,0,0.3,0.1,0.4c0.1,0.1,0.1,0.2,0.2,0.3c0.1,0.1,0.2,0.1,0.3,0.1c0.1,0,0.3,0,0.4,0c0.3,0,0.6,0,0.8-0.1
		c0.2-0.1,0.4-0.2,0.5-0.3c0.1-0.1,0.2-0.3,0.3-0.4c0.1-0.1,0.1-0.3,0.1-0.4V336C44.5,336.1,44.4,336.1,44.2,336.2z"/>
	<path style="fill:#666666;" d="M47,332.3v-1.1H48v1.1H47z M48,333.3v5.6H47v-5.6H48z"/>
	<path style="fill:#666666;" d="M50.4,331.2v7.7h-0.9v-7.7H50.4z"/>
	<path style="fill:#666666;" d="M52,334.5v-1.2h1.2v1.2H52z M53.2,337.7v1.2H52v-1.2H53.2z"/>
	<path style="fill:#666666;" d="M58.8,331.2v7.7h-0.9v-7.7H58.8z"/>
	<path style="fill:#666666;" d="M60.2,332.3v-1.1h0.9v1.1H60.2z M61.2,333.3v5.6h-0.9v-5.6H61.2z"/>
	<path style="fill:#666666;" d="M63.4,333.3v0.9h0c0.4-0.7,1-1,1.8-1c0.4,0,0.7,0.1,0.9,0.2c0.2,0.1,0.4,0.2,0.6,0.4
		c0.2,0.2,0.3,0.4,0.3,0.6c0.1,0.2,0.1,0.5,0.1,0.8v3.7h-0.9v-3.8c0-0.3-0.1-0.6-0.3-0.8c-0.2-0.2-0.5-0.3-0.8-0.3
		c-0.3,0-0.5,0-0.7,0.1c-0.2,0.1-0.4,0.2-0.5,0.4s-0.2,0.3-0.3,0.6s-0.1,0.4-0.1,0.7v3.2h-0.9v-5.6H63.4z"/>
	<path style="fill:#666666;" d="M70.5,340.3c-0.1,0.2-0.2,0.3-0.3,0.5c-0.1,0.1-0.3,0.2-0.4,0.3c-0.2,0.1-0.3,0.1-0.5,0.1
		c-0.1,0-0.2,0-0.3,0c-0.1,0-0.2,0-0.3-0.1v-0.8c0.1,0,0.2,0.1,0.3,0.1s0.2,0,0.3,0c0.2,0,0.3,0,0.5-0.1s0.2-0.2,0.3-0.4l0.4-0.9
		l-2.2-5.6h1l1.6,4.6h0l1.6-4.6h1l-2.4,6.3C70.7,339.9,70.6,340.1,70.5,340.3z"/>
	<path style="fill:#666666;" d="M77.9,338.5c-0.4,0.3-0.9,0.5-1.6,0.5c-0.4,0-0.8-0.1-1.2-0.2c-0.3-0.1-0.6-0.3-0.8-0.6
		c-0.2-0.3-0.4-0.6-0.5-0.9c-0.1-0.4-0.2-0.8-0.2-1.2c0-0.4,0.1-0.8,0.2-1.2c0.1-0.4,0.3-0.7,0.5-0.9c0.2-0.3,0.5-0.5,0.8-0.6
		s0.7-0.2,1.1-0.2c0.5,0,0.9,0.1,1.2,0.3c0.3,0.2,0.6,0.5,0.8,0.8c0.2,0.3,0.3,0.7,0.4,1c0.1,0.4,0.1,0.7,0.1,1.1h-4.2
		c0,0.2,0,0.5,0.1,0.7s0.2,0.4,0.3,0.6c0.1,0.2,0.3,0.3,0.6,0.4c0.2,0.1,0.5,0.2,0.8,0.2c0.4,0,0.7-0.1,1-0.3
		c0.2-0.2,0.4-0.5,0.5-0.8h0.9C78.6,337.7,78.4,338.2,77.9,338.5z M77.7,334.9c-0.1-0.2-0.2-0.4-0.3-0.5c-0.1-0.1-0.3-0.3-0.5-0.3
		c-0.2-0.1-0.4-0.1-0.6-0.1c-0.2,0-0.5,0-0.6,0.1c-0.2,0.1-0.4,0.2-0.5,0.3c-0.1,0.1-0.2,0.3-0.3,0.5s-0.1,0.4-0.1,0.6h3.2
		C77.8,335.3,77.8,335.1,77.7,334.9z"/>
	<path style="fill:#666666;" d="M81.2,337.7v1.2H80v-1.2H81.2z"/>
	<path style="fill:#666666;" d="M86.1,334.3c-0.2-0.2-0.5-0.3-0.9-0.3c-0.3,0-0.6,0.1-0.8,0.2c-0.2,0.1-0.4,0.3-0.5,0.5
		c-0.1,0.2-0.2,0.4-0.3,0.7c-0.1,0.3-0.1,0.5-0.1,0.8c0,0.3,0,0.5,0.1,0.8c0.1,0.2,0.2,0.5,0.3,0.7c0.1,0.2,0.3,0.3,0.5,0.5
		s0.5,0.2,0.7,0.2c0.5,0,0.8-0.1,1.1-0.4c0.3-0.2,0.4-0.6,0.5-1h0.9c-0.1,0.7-0.4,1.2-0.8,1.6c-0.4,0.4-1,0.6-1.7,0.6
		c-0.4,0-0.8-0.1-1.1-0.2c-0.3-0.1-0.6-0.3-0.8-0.6s-0.4-0.6-0.5-0.9c-0.1-0.3-0.2-0.7-0.2-1.2c0-0.4,0.1-0.8,0.2-1.2
		c0.1-0.4,0.3-0.7,0.5-1s0.5-0.5,0.8-0.6s0.7-0.2,1.2-0.2c0.3,0,0.6,0,0.9,0.1c0.3,0.1,0.5,0.2,0.7,0.4c0.2,0.2,0.4,0.4,0.5,0.6
		s0.2,0.5,0.3,0.9h-1C86.5,334.7,86.4,334.5,86.1,334.3z"/>
	<path style="fill:#666666;" d="M88.1,333.3h1.2l1.3,2l1.4-2h1.1l-1.9,2.6l2.2,3h-1.2l-1.6-2.3l-1.6,2.3H88l2.1-2.9L88.1,333.3z"/>
	<path style="fill:#666666;" d="M99.2,336.2c0,0.1,0,0.2,0,0.3c0,0.2,0.1,0.3,0.3,0.3c0.2,0,0.3-0.1,0.5-0.2
		c0.2-0.2,0.3-0.3,0.5-0.6c0.1-0.2,0.3-0.5,0.4-0.8c0.1-0.3,0.1-0.6,0.1-0.9c0-0.4-0.1-0.8-0.2-1.2s-0.4-0.6-0.7-0.9
		c-0.3-0.2-0.6-0.4-0.9-0.6c-0.3-0.1-0.7-0.2-1.1-0.2c-0.5,0-0.9,0.1-1.3,0.3s-0.7,0.4-1,0.8c-0.3,0.3-0.5,0.7-0.7,1.1
		c-0.2,0.4-0.3,0.9-0.3,1.3c0,0.5,0.1,0.9,0.3,1.4c0.2,0.4,0.4,0.8,0.7,1.1c0.3,0.3,0.7,0.5,1.1,0.7c0.4,0.2,0.8,0.3,1.3,0.3
		c0.5,0,1-0.1,1.5-0.4c0.5-0.2,0.9-0.6,1.2-1h0.7c-0.2,0.3-0.4,0.6-0.6,0.8c-0.2,0.2-0.5,0.4-0.8,0.6c-0.3,0.2-0.6,0.3-0.9,0.4
		c-0.3,0.1-0.7,0.1-1,0.1c-0.6,0-1.1-0.1-1.6-0.3c-0.5-0.2-0.9-0.5-1.3-0.9c-0.4-0.4-0.6-0.8-0.9-1.3s-0.3-1-0.3-1.6
		c0-0.6,0.1-1.1,0.3-1.6c0.2-0.5,0.5-0.9,0.9-1.3c0.4-0.4,0.8-0.6,1.3-0.9c0.5-0.2,1-0.3,1.5-0.3c0.5,0,1,0.1,1.4,0.2
		c0.4,0.2,0.8,0.4,1.2,0.7c0.3,0.3,0.6,0.6,0.8,1s0.3,0.9,0.3,1.3c0,0.5-0.1,0.9-0.3,1.3c-0.2,0.4-0.4,0.7-0.6,1s-0.5,0.5-0.8,0.6
		c-0.3,0.2-0.6,0.2-0.8,0.2c-0.2,0-0.3-0.1-0.5-0.2c-0.1-0.1-0.2-0.3-0.2-0.5h0c-0.2,0.2-0.4,0.4-0.6,0.5c-0.2,0.1-0.5,0.2-0.7,0.2
		c-0.2,0-0.4,0-0.6-0.1c-0.2-0.1-0.4-0.2-0.5-0.4c-0.1-0.2-0.2-0.3-0.3-0.5c-0.1-0.2-0.1-0.4-0.1-0.7c0-0.4,0.1-0.7,0.2-1.1
		s0.3-0.7,0.5-1s0.5-0.5,0.8-0.7c0.3-0.2,0.7-0.3,1-0.3c0.3,0,0.5,0.1,0.7,0.2c0.2,0.1,0.4,0.4,0.5,0.7l0.2-0.7h0.7l-0.9,3.1
		C99.2,336,99.2,336.1,99.2,336.2z M97.3,333.6c-0.2,0.1-0.4,0.3-0.5,0.6s-0.3,0.5-0.4,0.7c-0.1,0.3-0.1,0.5-0.1,0.8
		c0,0.3,0.1,0.6,0.3,0.8c0.2,0.2,0.4,0.3,0.7,0.3c0.2,0,0.5-0.1,0.7-0.2s0.4-0.3,0.5-0.6c0.2-0.2,0.3-0.5,0.4-0.8
		c0.1-0.3,0.1-0.5,0.1-0.7c0-0.1,0-0.3-0.1-0.4c0-0.1-0.1-0.2-0.2-0.3c-0.1-0.1-0.2-0.2-0.3-0.2s-0.2-0.1-0.3-0.1
		C97.8,333.4,97.5,333.5,97.3,333.6z"/>
	<path style="fill:#666666;" d="M107.1,339c-0.2,0-0.4-0.1-0.6-0.2c-0.1-0.1-0.2-0.4-0.2-0.7c-0.3,0.3-0.5,0.5-0.9,0.7
		s-0.7,0.2-1.1,0.2c-0.3,0-0.5,0-0.7-0.1c-0.2-0.1-0.4-0.1-0.6-0.3c-0.2-0.1-0.3-0.3-0.4-0.5c-0.1-0.2-0.1-0.4-0.1-0.7
		c0-0.3,0.1-0.6,0.2-0.8s0.2-0.4,0.4-0.5c0.2-0.1,0.4-0.2,0.6-0.3s0.5-0.1,0.7-0.2c0.3-0.1,0.5-0.1,0.7-0.1c0.2,0,0.4-0.1,0.6-0.1
		s0.3-0.1,0.4-0.2s0.2-0.2,0.2-0.4c0-0.2,0-0.4-0.1-0.5c-0.1-0.1-0.2-0.2-0.3-0.3s-0.3-0.1-0.4-0.1c-0.1,0-0.3,0-0.4,0
		c-0.4,0-0.7,0.1-1,0.2c-0.3,0.1-0.4,0.4-0.4,0.8h-0.9c0-0.3,0.1-0.6,0.2-0.9c0.1-0.2,0.3-0.4,0.5-0.6c0.2-0.1,0.5-0.3,0.7-0.3
		c0.3-0.1,0.6-0.1,0.9-0.1c0.3,0,0.5,0,0.8,0.1s0.5,0.1,0.7,0.2c0.2,0.1,0.4,0.3,0.5,0.5c0.1,0.2,0.2,0.5,0.2,0.8v2.9
		c0,0.2,0,0.4,0,0.5c0,0.1,0.1,0.2,0.3,0.2c0.1,0,0.2,0,0.3-0.1v0.7C107.6,338.9,107.4,339,107.1,339z M105.8,336.2
		c-0.2,0-0.4,0.1-0.6,0.1c-0.2,0-0.4,0.1-0.6,0.1c-0.2,0-0.4,0.1-0.6,0.2c-0.2,0.1-0.3,0.2-0.4,0.3s-0.2,0.3-0.2,0.5
		c0,0.2,0,0.3,0.1,0.4c0.1,0.1,0.1,0.2,0.2,0.3c0.1,0.1,0.2,0.1,0.3,0.1c0.1,0,0.3,0,0.4,0c0.3,0,0.6,0,0.8-0.1
		c0.2-0.1,0.4-0.2,0.5-0.3c0.1-0.1,0.2-0.3,0.3-0.4c0.1-0.1,0.1-0.3,0.1-0.4V336C106.2,336.1,106,336.1,105.8,336.2z"/>
	<path style="fill:#666666;" d="M109.6,331.2v7.7h-0.9v-7.7H109.6z"/>
	<path style="fill:#666666;" d="M111.1,332.3v-1.1h0.9v1.1H111.1z M112,333.3v5.6h-0.9v-5.6H112z"/>
	<path style="fill:#666666;" d="M114.4,331.2v2.9h0c0.2-0.3,0.4-0.5,0.7-0.7c0.3-0.1,0.7-0.2,1.1-0.2c0.4,0,0.8,0.1,1.1,0.2
		c0.3,0.2,0.6,0.4,0.8,0.6c0.2,0.3,0.4,0.6,0.5,0.9c0.1,0.4,0.2,0.7,0.2,1.1s-0.1,0.8-0.2,1.1c-0.1,0.4-0.3,0.7-0.5,0.9
		c-0.2,0.3-0.5,0.5-0.8,0.6c-0.3,0.2-0.7,0.2-1.1,0.2c-0.1,0-0.3,0-0.5,0s-0.3-0.1-0.5-0.1c-0.2-0.1-0.3-0.2-0.5-0.3
		c-0.1-0.1-0.3-0.2-0.4-0.4h0v0.7h-0.9v-7.7H114.4z M117.7,335.3c-0.1-0.2-0.2-0.5-0.3-0.7s-0.3-0.3-0.5-0.5s-0.5-0.2-0.8-0.2
		c-0.3,0-0.6,0.1-0.8,0.2c-0.2,0.1-0.4,0.3-0.5,0.5c-0.1,0.2-0.2,0.4-0.3,0.7c-0.1,0.3-0.1,0.5-0.1,0.8c0,0.3,0,0.5,0.1,0.8
		c0.1,0.3,0.2,0.5,0.3,0.7c0.1,0.2,0.3,0.4,0.5,0.5c0.2,0.1,0.5,0.2,0.8,0.2c0.3,0,0.6-0.1,0.8-0.2c0.2-0.1,0.4-0.3,0.5-0.5
		c0.1-0.2,0.2-0.4,0.3-0.7c0.1-0.3,0.1-0.5,0.1-0.8C117.8,335.8,117.7,335.5,117.7,335.3z"/>
	<path style="fill:#666666;" d="M124.1,339c-0.2,0-0.4-0.1-0.6-0.2c-0.1-0.1-0.2-0.4-0.2-0.7c-0.3,0.3-0.5,0.5-0.9,0.7
		s-0.7,0.2-1.1,0.2c-0.3,0-0.5,0-0.7-0.1c-0.2-0.1-0.4-0.1-0.6-0.3c-0.2-0.1-0.3-0.3-0.4-0.5c-0.1-0.2-0.1-0.4-0.1-0.7
		c0-0.3,0.1-0.6,0.2-0.8s0.2-0.4,0.4-0.5c0.2-0.1,0.4-0.2,0.6-0.3s0.5-0.1,0.7-0.2c0.3-0.1,0.5-0.1,0.7-0.1c0.2,0,0.4-0.1,0.6-0.1
		s0.3-0.1,0.4-0.2s0.2-0.2,0.2-0.4c0-0.2,0-0.4-0.1-0.5c-0.1-0.1-0.2-0.2-0.3-0.3s-0.3-0.1-0.4-0.1c-0.1,0-0.3,0-0.4,0
		c-0.4,0-0.7,0.1-1,0.2c-0.3,0.1-0.4,0.4-0.4,0.8h-0.9c0-0.3,0.1-0.6,0.2-0.9c0.1-0.2,0.3-0.4,0.5-0.6c0.2-0.1,0.5-0.3,0.7-0.3
		c0.3-0.1,0.6-0.1,0.9-0.1c0.3,0,0.5,0,0.8,0.1s0.5,0.1,0.7,0.2c0.2,0.1,0.4,0.3,0.5,0.5c0.1,0.2,0.2,0.5,0.2,0.8v2.9
		c0,0.2,0,0.4,0,0.5c0,0.1,0.1,0.2,0.3,0.2c0.1,0,0.2,0,0.3-0.1v0.7C124.6,338.9,124.4,339,124.1,339z M122.8,336.2
		c-0.2,0-0.4,0.1-0.6,0.1c-0.2,0-0.4,0.1-0.6,0.1c-0.2,0-0.4,0.1-0.6,0.2c-0.2,0.1-0.3,0.2-0.4,0.3s-0.2,0.3-0.2,0.5
		c0,0.2,0,0.3,0.1,0.4c0.1,0.1,0.1,0.2,0.2,0.3c0.1,0.1,0.2,0.1,0.3,0.1c0.1,0,0.3,0,0.4,0c0.3,0,0.6,0,0.8-0.1
		c0.2-0.1,0.4-0.2,0.5-0.3c0.1-0.1,0.2-0.3,0.3-0.4c0.1-0.1,0.1-0.3,0.1-0.4V336C123.2,336.1,123,336.1,122.8,336.2z"/>
	<path style="fill:#666666;" d="M126.6,331.2v2.9h0c0.2-0.3,0.4-0.5,0.7-0.7c0.3-0.1,0.7-0.2,1.1-0.2c0.4,0,0.8,0.1,1.1,0.2
		c0.3,0.2,0.6,0.4,0.8,0.6c0.2,0.3,0.4,0.6,0.5,0.9c0.1,0.4,0.2,0.7,0.2,1.1s-0.1,0.8-0.2,1.1c-0.1,0.4-0.3,0.7-0.5,0.9
		c-0.2,0.3-0.5,0.5-0.8,0.6c-0.3,0.2-0.7,0.2-1.1,0.2c-0.1,0-0.3,0-0.5,0s-0.3-0.1-0.5-0.1c-0.2-0.1-0.3-0.2-0.5-0.3
		c-0.1-0.1-0.3-0.2-0.4-0.4h0v0.7h-0.9v-7.7H126.6z M129.9,335.3c-0.1-0.2-0.2-0.5-0.3-0.7s-0.3-0.3-0.5-0.5s-0.5-0.2-0.8-0.2
		c-0.3,0-0.6,0.1-0.8,0.2c-0.2,0.1-0.4,0.3-0.5,0.5c-0.1,0.2-0.2,0.4-0.3,0.7c-0.1,0.3-0.1,0.5-0.1,0.8c0,0.3,0,0.5,0.1,0.8
		c0.1,0.3,0.2,0.5,0.3,0.7c0.1,0.2,0.3,0.4,0.5,0.5c0.2,0.1,0.5,0.2,0.8,0.2c0.3,0,0.6-0.1,0.8-0.2c0.2-0.1,0.4-0.3,0.5-0.5
		c0.1-0.2,0.2-0.4,0.3-0.7c0.1-0.3,0.1-0.5,0.1-0.8C130,335.8,129.9,335.5,129.9,335.3z"/>
	<path style="fill:#666666;" d="M136.3,339c-0.2,0-0.4-0.1-0.6-0.2c-0.1-0.1-0.2-0.4-0.2-0.7c-0.3,0.3-0.5,0.5-0.9,0.7
		s-0.7,0.2-1.1,0.2c-0.3,0-0.5,0-0.7-0.1c-0.2-0.1-0.4-0.1-0.6-0.3c-0.2-0.1-0.3-0.3-0.4-0.5c-0.1-0.2-0.1-0.4-0.1-0.7
		c0-0.3,0.1-0.6,0.2-0.8s0.2-0.4,0.4-0.5c0.2-0.1,0.4-0.2,0.6-0.3s0.5-0.1,0.7-0.2c0.3-0.1,0.5-0.1,0.7-0.1c0.2,0,0.4-0.1,0.6-0.1
		s0.3-0.1,0.4-0.2s0.2-0.2,0.2-0.4c0-0.2,0-0.4-0.1-0.5c-0.1-0.1-0.2-0.2-0.3-0.3s-0.3-0.1-0.4-0.1c-0.1,0-0.3,0-0.4,0
		c-0.4,0-0.7,0.1-1,0.2c-0.3,0.1-0.4,0.4-0.4,0.8h-0.9c0-0.3,0.1-0.6,0.2-0.9c0.1-0.2,0.3-0.4,0.5-0.6c0.2-0.1,0.5-0.3,0.7-0.3
		c0.3-0.1,0.6-0.1,0.9-0.1c0.3,0,0.5,0,0.8,0.1s0.5,0.1,0.7,0.2c0.2,0.1,0.4,0.3,0.5,0.5c0.1,0.2,0.2,0.5,0.2,0.8v2.9
		c0,0.2,0,0.4,0,0.5c0,0.1,0.1,0.2,0.3,0.2c0.1,0,0.2,0,0.3-0.1v0.7C136.8,338.9,136.6,339,136.3,339z M135,336.2
		c-0.2,0-0.4,0.1-0.6,0.1c-0.2,0-0.4,0.1-0.6,0.1c-0.2,0-0.4,0.1-0.6,0.2c-0.2,0.1-0.3,0.2-0.4,0.3s-0.2,0.3-0.2,0.5
		c0,0.2,0,0.3,0.1,0.4c0.1,0.1,0.1,0.2,0.2,0.3c0.1,0.1,0.2,0.1,0.3,0.1c0.1,0,0.3,0,0.4,0c0.3,0,0.6,0,0.8-0.1
		c0.2-0.1,0.4-0.2,0.5-0.3c0.1-0.1,0.2-0.3,0.3-0.4c0.1-0.1,0.1-0.3,0.1-0.4V336C135.4,336.1,135.2,336.1,135,336.2z"/>
	<path style="fill:#666666;" d="M140.8,335.4v0.9h-3.1v-0.9H140.8z"/>
	<path style="fill:#666666;" d="M142.1,332.3v-1.1h0.9v1.1H142.1z M143,333.3v5.6h-0.9v-5.6H143z"/>
	<path style="fill:#666666;" d="M145.3,333.3v0.9h0c0.4-0.7,1-1,1.8-1c0.4,0,0.7,0.1,0.9,0.2c0.2,0.1,0.4,0.2,0.6,0.4
		c0.2,0.2,0.3,0.4,0.3,0.6c0.1,0.2,0.1,0.5,0.1,0.8v3.7h-0.9v-3.8c0-0.3-0.1-0.6-0.3-0.8c-0.2-0.2-0.5-0.3-0.8-0.3
		c-0.3,0-0.5,0-0.7,0.1c-0.2,0.1-0.4,0.2-0.5,0.4s-0.2,0.3-0.3,0.6s-0.1,0.4-0.1,0.7v3.2h-0.9v-5.6H145.3z"/>
	<path style="fill:#666666;" d="M153.8,334.3c-0.2-0.2-0.5-0.3-0.9-0.3c-0.3,0-0.6,0.1-0.8,0.2c-0.2,0.1-0.4,0.3-0.5,0.5
		c-0.1,0.2-0.2,0.4-0.3,0.7c-0.1,0.3-0.1,0.5-0.1,0.8c0,0.3,0,0.5,0.1,0.8c0.1,0.2,0.2,0.5,0.3,0.7c0.1,0.2,0.3,0.3,0.5,0.5
		s0.5,0.2,0.7,0.2c0.5,0,0.8-0.1,1.1-0.4c0.3-0.2,0.4-0.6,0.5-1h0.9c-0.1,0.7-0.4,1.2-0.8,1.6c-0.4,0.4-1,0.6-1.7,0.6
		c-0.4,0-0.8-0.1-1.1-0.2c-0.3-0.1-0.6-0.3-0.8-0.6s-0.4-0.6-0.5-0.9c-0.1-0.3-0.2-0.7-0.2-1.2c0-0.4,0.1-0.8,0.2-1.2
		c0.1-0.4,0.3-0.7,0.5-1s0.5-0.5,0.8-0.6s0.7-0.2,1.2-0.2c0.3,0,0.6,0,0.9,0.1c0.3,0.1,0.5,0.2,0.7,0.4c0.2,0.2,0.4,0.4,0.5,0.6
		s0.2,0.5,0.3,0.9h-1C154.1,334.7,154,334.5,153.8,334.3z"/>
	<path style="fill:#666666;" d="M157.6,337.7v1.2h-1.2v-1.2H157.6z"/>
	<path style="fill:#666666;" d="M162.6,334.3c-0.2-0.2-0.5-0.3-0.9-0.3c-0.3,0-0.6,0.1-0.8,0.2c-0.2,0.1-0.4,0.3-0.5,0.5
		c-0.1,0.2-0.2,0.4-0.3,0.7c-0.1,0.3-0.1,0.5-0.1,0.8c0,0.3,0,0.5,0.1,0.8c0.1,0.2,0.2,0.5,0.3,0.7c0.1,0.2,0.3,0.3,0.5,0.5
		s0.5,0.2,0.7,0.2c0.5,0,0.8-0.1,1.1-0.4c0.3-0.2,0.4-0.6,0.5-1h0.9c-0.1,0.7-0.4,1.2-0.8,1.6c-0.4,0.4-1,0.6-1.7,0.6
		c-0.4,0-0.8-0.1-1.1-0.2c-0.3-0.1-0.6-0.3-0.8-0.6s-0.4-0.6-0.5-0.9c-0.1-0.3-0.2-0.7-0.2-1.2c0-0.4,0.1-0.8,0.2-1.2
		c0.1-0.4,0.3-0.7,0.5-1s0.5-0.5,0.8-0.6s0.7-0.2,1.2-0.2c0.3,0,0.6,0,0.9,0.1c0.3,0.1,0.5,0.2,0.7,0.4c0.2,0.2,0.4,0.4,0.5,0.6
		s0.2,0.5,0.3,0.9h-1C162.9,334.7,162.8,334.5,162.6,334.3z"/>
	<path style="fill:#666666;" d="M164.9,334.9c0.1-0.4,0.3-0.7,0.5-0.9s0.5-0.5,0.9-0.6c0.3-0.2,0.7-0.2,1.2-0.2
		c0.4,0,0.8,0.1,1.2,0.2s0.6,0.4,0.8,0.6s0.4,0.6,0.5,0.9s0.2,0.7,0.2,1.1c0,0.4-0.1,0.8-0.2,1.1c-0.1,0.4-0.3,0.7-0.5,0.9
		c-0.2,0.3-0.5,0.5-0.8,0.6s-0.7,0.2-1.2,0.2c-0.4,0-0.8-0.1-1.2-0.2c-0.3-0.1-0.6-0.4-0.9-0.6c-0.2-0.3-0.4-0.6-0.5-0.9
		c-0.1-0.4-0.2-0.7-0.2-1.1C164.7,335.7,164.8,335.3,164.9,334.9z M165.8,337c0.1,0.3,0.2,0.5,0.4,0.7c0.2,0.2,0.3,0.3,0.6,0.4
		c0.2,0.1,0.4,0.1,0.7,0.1s0.5,0,0.7-0.1c0.2-0.1,0.4-0.2,0.6-0.4c0.2-0.2,0.3-0.4,0.4-0.7c0.1-0.3,0.1-0.6,0.1-0.9
		c0-0.3,0-0.6-0.1-0.9c-0.1-0.3-0.2-0.5-0.4-0.7c-0.2-0.2-0.3-0.3-0.6-0.4c-0.2-0.1-0.4-0.1-0.7-0.1s-0.5,0-0.7,0.1
		c-0.2,0.1-0.4,0.2-0.6,0.4c-0.2,0.2-0.3,0.4-0.4,0.7c-0.1,0.3-0.1,0.6-0.1,0.9C165.7,336.4,165.7,336.7,165.8,337z"/>
	<path style="fill:#666666;" d="M172.1,333.3v0.8h0c0.4-0.6,1-1,1.8-1c0.3,0,0.7,0.1,0.9,0.2c0.3,0.1,0.5,0.4,0.6,0.7
		c0.2-0.3,0.4-0.5,0.7-0.7c0.3-0.2,0.6-0.2,1-0.2c0.3,0,0.5,0,0.8,0.1c0.2,0.1,0.4,0.2,0.6,0.3c0.2,0.1,0.3,0.3,0.4,0.5
		c0.1,0.2,0.1,0.5,0.1,0.7v4.1h-0.9v-3.7c0-0.2,0-0.3,0-0.5c0-0.2-0.1-0.3-0.2-0.4c-0.1-0.1-0.2-0.2-0.3-0.3
		c-0.1-0.1-0.3-0.1-0.5-0.1c-0.5,0-0.8,0.1-1.1,0.4c-0.3,0.3-0.4,0.6-0.4,1v3.5h-0.9v-3.7c0-0.2,0-0.3,0-0.5c0-0.2-0.1-0.3-0.2-0.4
		c-0.1-0.1-0.2-0.2-0.3-0.3c-0.1-0.1-0.3-0.1-0.5-0.1c-0.3,0-0.5,0.1-0.7,0.2c-0.2,0.1-0.3,0.2-0.5,0.4c-0.1,0.2-0.2,0.3-0.3,0.5
		c-0.1,0.2-0.1,0.3-0.1,0.4v3.5h-0.9v-5.6H172.1z"/>
</g>
<g>
	<path style="fill:#666666;" d="M21,318.2c1-1.5,1.7-3.1,2.2-5l0.8,0.3c0,0.1-0.1,0.2-0.1,0.3c-0.2,0.5-0.4,1.2-0.8,1.9v7.5h-0.8
		v-5.8c-0.3,0.7-0.7,1.3-1.1,1.7C21.2,318.8,21.1,318.5,21,318.2z M24.8,320.8l0.4-0.6c0.9,0.5,1.6,0.9,2.2,1.3l2-1.9h-4.3v-0.7
		c0.1-0.4,0.3-0.8,0.4-1.3h-1.6v-0.7h1.8c0.1-0.5,0.3-0.9,0.4-1.4h-1.7v-0.7h1.9c0.1-0.3,0.1-0.6,0.2-1.1c0-0.2,0.1-0.3,0.1-0.4h0.9
		c0,0.1-0.1,0.4-0.2,0.7c-0.1,0.3-0.1,0.5-0.2,0.7h3.6v0.7h-3.8c-0.1,0.3-0.1,0.6-0.3,1.1c0,0.1-0.1,0.2-0.1,0.3h4.6v0.7h-4.8
		c-0.1,0.4-0.3,0.8-0.4,1.3h4.6v0.8l-2.3,2.3c0.5,0.2,0.9,0.5,1.2,0.7l-0.5,0.7c-0.7-0.5-1.8-1.2-3.5-2.1
		C25.1,321,24.9,320.9,24.8,320.8z"/>
	<path style="fill:#666666;" d="M31.9,320.6h1.5v-5.2h3.1v-0.8h-4.4V314h4.4v-0.8h0.8v0.8h4.4v0.6h-4.4v0.8h3.1v5.2h1.5v0.7h-10
		V320.6z M35.5,321.3L36,322c-0.2,0.1-0.5,0.2-0.8,0.3c-1.3,0.5-2.2,0.9-2.7,1c-0.2-0.3-0.3-0.6-0.4-0.7
		C33.3,322.2,34.4,321.8,35.5,321.3z M34.1,316v0.7h5.5V316H34.1z M34.1,317.3v0.7h5.5v-0.7H34.1z M34.1,318.6v0.7h5.5v-0.7H34.1z
		 M34.1,319.9v0.7h5.5v-0.7H34.1z M37.8,322l0.4-0.6c1.8,0.5,3,0.9,3.6,1.1l-0.4,0.7C40.2,322.8,39,322.4,37.8,322z"/>
	<path style="fill:#666666;" d="M45.7,318.7v1.5h-1.4v-1.5H45.7z M45.7,321.9v1.4h-1.4v-1.4H45.7z"/>
	<path style="fill:#666666;" d="M53.5,317.4c0-0.3,0-0.6,0.1-0.9c0.1-0.3,0.1-0.6,0.2-0.8c0.1-0.3,0.3-0.5,0.4-0.7s0.4-0.3,0.7-0.5
		c0.3-0.1,0.6-0.2,1-0.2c0.4,0,0.7,0.1,1,0.2c0.3,0.1,0.5,0.3,0.7,0.5s0.3,0.4,0.4,0.7c0.1,0.3,0.2,0.5,0.2,0.8
		c0.1,0.3,0.1,0.6,0.1,0.9c0,0.3,0,0.6,0,0.9s0,0.6,0,0.9c0,0.3,0,0.6-0.1,0.9c-0.1,0.3-0.1,0.6-0.2,0.8c-0.1,0.3-0.3,0.5-0.4,0.7
		c-0.2,0.2-0.4,0.3-0.7,0.5c-0.3,0.1-0.6,0.2-1,0.2c-0.4,0-0.7-0.1-1-0.2c-0.3-0.1-0.5-0.3-0.7-0.5c-0.2-0.2-0.3-0.4-0.4-0.7
		c-0.1-0.3-0.2-0.5-0.2-0.8c-0.1-0.3-0.1-0.6-0.1-0.9c0-0.3,0-0.6,0-0.9S53.5,317.7,53.5,317.4z M54.5,319.2c0,0.4,0.1,0.7,0.2,1
		c0.1,0.3,0.3,0.6,0.5,0.8c0.2,0.2,0.5,0.3,0.9,0.3c0.4,0,0.7-0.1,0.9-0.3c0.2-0.2,0.4-0.5,0.5-0.8c0.1-0.3,0.2-0.6,0.2-1
		c0-0.4,0-0.7,0-1c0-0.2,0-0.4,0-0.6c0-0.2,0-0.5-0.1-0.7c0-0.2-0.1-0.4-0.1-0.7c-0.1-0.2-0.2-0.4-0.3-0.6s-0.3-0.3-0.4-0.4
		c-0.2-0.1-0.4-0.2-0.7-0.2c-0.3,0-0.5,0.1-0.7,0.2c-0.2,0.1-0.3,0.2-0.4,0.4s-0.2,0.4-0.3,0.6c-0.1,0.2-0.1,0.4-0.1,0.7
		c0,0.2-0.1,0.5-0.1,0.7c0,0.2,0,0.4,0,0.6C54.5,318.5,54.5,318.8,54.5,319.2z"/>
	<path style="fill:#666666;" d="M61.1,315.3l-0.4,2.2l0,0c0.2-0.2,0.4-0.3,0.6-0.4c0.3-0.1,0.5-0.1,0.8-0.1c0.3,0,0.7,0.1,1,0.2
		c0.3,0.1,0.6,0.3,0.8,0.5c0.2,0.2,0.4,0.5,0.5,0.8s0.2,0.7,0.2,1.1c0,0.3-0.1,0.6-0.2,0.9c-0.1,0.3-0.3,0.6-0.5,0.8
		c-0.2,0.2-0.5,0.4-0.8,0.6c-0.3,0.1-0.7,0.2-1.2,0.2c-0.3,0-0.6,0-0.9-0.1c-0.3-0.1-0.5-0.2-0.8-0.4s-0.4-0.4-0.5-0.7
		c-0.1-0.3-0.2-0.6-0.2-0.9h0.9c0,0.2,0.1,0.4,0.1,0.5c0.1,0.2,0.2,0.3,0.3,0.4s0.3,0.2,0.5,0.3c0.2,0.1,0.4,0.1,0.6,0.1
		c0.2,0,0.4,0,0.6-0.1s0.4-0.2,0.5-0.3c0.1-0.2,0.3-0.3,0.4-0.6c0.1-0.2,0.1-0.5,0.1-0.8c0-0.3,0-0.5-0.1-0.7
		c-0.1-0.2-0.2-0.4-0.4-0.6s-0.3-0.3-0.5-0.4c-0.2-0.1-0.4-0.1-0.7-0.1c-0.3,0-0.6,0.1-0.8,0.2c-0.2,0.1-0.4,0.3-0.6,0.5l-0.8,0
		l0.7-4h3.8v0.8H61.1z"/>
	<path style="fill:#666666;" d="M69.5,316.6c-0.3,0.5-0.6,1.1-0.9,1.7c-0.3,0.6-0.5,1.2-0.6,1.8c-0.2,0.6-0.3,1.2-0.3,1.8h-1
		c0-0.6,0.1-1.3,0.3-1.9c0.2-0.6,0.4-1.2,0.7-1.8c0.3-0.6,0.6-1.1,0.9-1.6c0.3-0.5,0.7-1,1.1-1.4h-4v-0.9h5v0.8
		C70.2,315.6,69.8,316.1,69.5,316.6z"/>
	<path style="fill:#666666;" d="M74,322v-5.5h-2v-0.7c0.3,0,0.5,0,0.8-0.1c0.2,0,0.5-0.1,0.7-0.2c0.2-0.1,0.4-0.3,0.5-0.4
		s0.2-0.4,0.3-0.7h0.7v7.7H74z"/>
	<path style="fill:#666666;" d="M81,315.5c0.1-0.2,0.3-0.4,0.5-0.6c0.2-0.2,0.4-0.3,0.7-0.4c0.3-0.1,0.6-0.1,0.8-0.1
		c0.4,0,0.8,0.1,1.1,0.2s0.5,0.3,0.7,0.4s0.3,0.4,0.4,0.6c0.1,0.2,0.1,0.5,0.1,0.7c0,0.3-0.1,0.7-0.3,0.9c-0.2,0.3-0.4,0.5-0.8,0.6
		c0.5,0.1,0.8,0.4,1,0.7c0.2,0.3,0.3,0.7,0.3,1.2c0,0.4-0.1,0.7-0.2,1c-0.1,0.3-0.3,0.5-0.5,0.7c-0.2,0.2-0.5,0.3-0.8,0.4
		c-0.3,0.1-0.6,0.2-1,0.2c-0.4,0-0.7,0-1-0.1c-0.3-0.1-0.6-0.2-0.8-0.4c-0.2-0.2-0.4-0.4-0.6-0.7c-0.1-0.3-0.2-0.6-0.2-1
		c0-0.5,0.1-0.8,0.3-1.2s0.6-0.6,1-0.7c-0.3-0.1-0.6-0.3-0.8-0.6c-0.2-0.3-0.3-0.6-0.3-1C80.8,316,80.9,315.7,81,315.5z M82,320.9
		c0.3,0.3,0.7,0.4,1.2,0.4c0.2,0,0.4,0,0.6-0.1c0.2-0.1,0.4-0.2,0.5-0.3c0.1-0.1,0.2-0.3,0.3-0.5c0.1-0.2,0.1-0.4,0.1-0.6
		c0-0.2,0-0.4-0.1-0.6s-0.2-0.3-0.3-0.5c-0.1-0.1-0.3-0.2-0.5-0.3c-0.2-0.1-0.4-0.1-0.6-0.1c-0.2,0-0.4,0-0.6,0.1
		c-0.2,0.1-0.4,0.2-0.5,0.3c-0.1,0.1-0.3,0.3-0.3,0.5c-0.1,0.2-0.1,0.4-0.1,0.6C81.5,320.3,81.6,320.7,82,320.9z M81.9,316.9
		c0.1,0.2,0.2,0.3,0.3,0.4c0.1,0.1,0.3,0.2,0.4,0.2c0.2,0.1,0.3,0.1,0.5,0.1c0.4,0,0.7-0.1,0.9-0.3c0.2-0.2,0.4-0.5,0.4-0.9
		s-0.1-0.7-0.4-0.9c-0.2-0.2-0.5-0.3-0.9-0.3c-0.2,0-0.4,0-0.5,0.1c-0.2,0.1-0.3,0.1-0.4,0.2c-0.1,0.1-0.2,0.2-0.3,0.4
		c-0.1,0.1-0.1,0.3-0.1,0.5C81.8,316.5,81.8,316.7,81.9,316.9z"/>
	<path style="fill:#666666;" d="M87,315.5c0.1-0.2,0.3-0.4,0.5-0.6c0.2-0.2,0.4-0.3,0.7-0.4c0.3-0.1,0.6-0.1,0.8-0.1
		c0.4,0,0.8,0.1,1.1,0.2s0.5,0.3,0.7,0.4s0.3,0.4,0.4,0.6c0.1,0.2,0.1,0.5,0.1,0.7c0,0.3-0.1,0.7-0.3,0.9c-0.2,0.3-0.4,0.5-0.8,0.6
		c0.5,0.1,0.8,0.4,1,0.7c0.2,0.3,0.3,0.7,0.3,1.2c0,0.4-0.1,0.7-0.2,1c-0.1,0.3-0.3,0.5-0.5,0.7c-0.2,0.2-0.5,0.3-0.8,0.4
		c-0.3,0.1-0.6,0.2-1,0.2c-0.4,0-0.7,0-1-0.1c-0.3-0.1-0.6-0.2-0.8-0.4c-0.2-0.2-0.4-0.4-0.6-0.7c-0.1-0.3-0.2-0.6-0.2-1
		c0-0.5,0.1-0.8,0.3-1.2s0.6-0.6,1-0.7c-0.3-0.1-0.6-0.3-0.8-0.6c-0.2-0.3-0.3-0.6-0.3-1C86.8,316,86.9,315.7,87,315.5z M88,320.9
		c0.3,0.3,0.7,0.4,1.2,0.4c0.2,0,0.4,0,0.6-0.1c0.2-0.1,0.4-0.2,0.5-0.3c0.1-0.1,0.2-0.3,0.3-0.5c0.1-0.2,0.1-0.4,0.1-0.6
		c0-0.2,0-0.4-0.1-0.6s-0.2-0.3-0.3-0.5c-0.1-0.1-0.3-0.2-0.5-0.3c-0.2-0.1-0.4-0.1-0.6-0.1c-0.2,0-0.4,0-0.6,0.1
		c-0.2,0.1-0.4,0.2-0.5,0.3c-0.1,0.1-0.3,0.3-0.3,0.5c-0.1,0.2-0.1,0.4-0.1,0.6C87.5,320.3,87.7,320.7,88,320.9z M87.9,316.9
		c0.1,0.2,0.2,0.3,0.3,0.4c0.1,0.1,0.3,0.2,0.4,0.2c0.2,0.1,0.3,0.1,0.5,0.1c0.4,0,0.7-0.1,0.9-0.3c0.2-0.2,0.4-0.5,0.4-0.9
		s-0.1-0.7-0.4-0.9c-0.2-0.2-0.5-0.3-0.9-0.3c-0.2,0-0.4,0-0.5,0.1c-0.2,0.1-0.3,0.1-0.4,0.2c-0.1,0.1-0.2,0.2-0.3,0.4
		c-0.1,0.1-0.1,0.3-0.1,0.5C87.8,316.5,87.8,316.7,87.9,316.9z"/>
	<path style="fill:#666666;" d="M95,322v-5.5h-2v-0.7c0.3,0,0.5,0,0.8-0.1c0.2,0,0.5-0.1,0.7-0.2c0.2-0.1,0.4-0.3,0.5-0.4
		s0.2-0.4,0.3-0.7h0.7v7.7H95z"/>
	<path style="fill:#666666;" d="M100.1,315.3l-0.4,2.2l0,0c0.2-0.2,0.4-0.3,0.6-0.4c0.3-0.1,0.5-0.1,0.8-0.1c0.3,0,0.7,0.1,1,0.2
		c0.3,0.1,0.6,0.3,0.8,0.5c0.2,0.2,0.4,0.5,0.5,0.8s0.2,0.7,0.2,1.1c0,0.3-0.1,0.6-0.2,0.9c-0.1,0.3-0.3,0.6-0.5,0.8
		c-0.2,0.2-0.5,0.4-0.8,0.6c-0.3,0.1-0.7,0.2-1.2,0.2c-0.3,0-0.6,0-0.9-0.1c-0.3-0.1-0.5-0.2-0.8-0.4s-0.4-0.4-0.5-0.7
		c-0.1-0.3-0.2-0.6-0.2-0.9h0.9c0,0.2,0.1,0.4,0.1,0.5c0.1,0.2,0.2,0.3,0.3,0.4s0.3,0.2,0.5,0.3c0.2,0.1,0.4,0.1,0.6,0.1
		c0.2,0,0.4,0,0.6-0.1s0.4-0.2,0.5-0.3c0.1-0.2,0.3-0.3,0.4-0.6c0.1-0.2,0.1-0.5,0.1-0.8c0-0.3,0-0.5-0.1-0.7
		c-0.1-0.2-0.2-0.4-0.4-0.6s-0.3-0.3-0.5-0.4c-0.2-0.1-0.4-0.1-0.7-0.1c-0.3,0-0.6,0.1-0.8,0.2c-0.2,0.1-0.4,0.3-0.6,0.5l-0.8,0
		l0.7-4h3.8v0.8H100.1z"/>
	<path style="fill:#666666;" d="M109.1,315.3l-0.4,2.2l0,0c0.2-0.2,0.4-0.3,0.6-0.4c0.3-0.1,0.5-0.1,0.8-0.1c0.3,0,0.7,0.1,1,0.2
		c0.3,0.1,0.6,0.3,0.8,0.5c0.2,0.2,0.4,0.5,0.5,0.8s0.2,0.7,0.2,1.1c0,0.3-0.1,0.6-0.2,0.9c-0.1,0.3-0.3,0.6-0.5,0.8
		c-0.2,0.2-0.5,0.4-0.8,0.6c-0.3,0.1-0.7,0.2-1.2,0.2c-0.3,0-0.6,0-0.9-0.1c-0.3-0.1-0.5-0.2-0.8-0.4s-0.4-0.4-0.5-0.7
		c-0.1-0.3-0.2-0.6-0.2-0.9h0.9c0,0.2,0.1,0.4,0.1,0.5c0.1,0.2,0.2,0.3,0.3,0.4s0.3,0.2,0.5,0.3c0.2,0.1,0.4,0.1,0.6,0.1
		c0.2,0,0.4,0,0.6-0.1s0.4-0.2,0.5-0.3c0.1-0.2,0.3-0.3,0.4-0.6c0.1-0.2,0.1-0.5,0.1-0.8c0-0.3,0-0.5-0.1-0.7
		c-0.1-0.2-0.2-0.4-0.4-0.6s-0.3-0.3-0.5-0.4c-0.2-0.1-0.4-0.1-0.7-0.1c-0.3,0-0.6,0.1-0.8,0.2c-0.2,0.1-0.4,0.3-0.6,0.5l-0.8,0
		l0.7-4h3.8v0.8H109.1z"/>
	<path style="fill:#666666;" d="M116,322v-5.5h-2v-0.7c0.3,0,0.5,0,0.8-0.1c0.2,0,0.5-0.1,0.7-0.2c0.2-0.1,0.4-0.3,0.5-0.4
		s0.2-0.4,0.3-0.7h0.7v7.7H116z"/>
	<path style="fill:#666666;" d="M120,315.5c0.1-0.2,0.3-0.4,0.5-0.6c0.2-0.2,0.4-0.3,0.7-0.4c0.3-0.1,0.6-0.1,0.8-0.1
		c0.4,0,0.8,0.1,1.1,0.2s0.5,0.3,0.7,0.4s0.3,0.4,0.4,0.6c0.1,0.2,0.1,0.5,0.1,0.7c0,0.3-0.1,0.7-0.3,0.9c-0.2,0.3-0.4,0.5-0.8,0.6
		c0.5,0.1,0.8,0.4,1,0.7c0.2,0.3,0.3,0.7,0.3,1.2c0,0.4-0.1,0.7-0.2,1c-0.1,0.3-0.3,0.5-0.5,0.7c-0.2,0.2-0.5,0.3-0.8,0.4
		c-0.3,0.1-0.6,0.2-1,0.2c-0.4,0-0.7,0-1-0.1c-0.3-0.1-0.6-0.2-0.8-0.4c-0.2-0.2-0.4-0.4-0.6-0.7c-0.1-0.3-0.2-0.6-0.2-1
		c0-0.5,0.1-0.8,0.3-1.2s0.6-0.6,1-0.7c-0.3-0.1-0.6-0.3-0.8-0.6c-0.2-0.3-0.3-0.6-0.3-1C119.8,316,119.9,315.7,120,315.5z
		 M121,320.9c0.3,0.3,0.7,0.4,1.2,0.4c0.2,0,0.4,0,0.6-0.1c0.2-0.1,0.4-0.2,0.5-0.3c0.1-0.1,0.2-0.3,0.3-0.5
		c0.1-0.2,0.1-0.4,0.1-0.6c0-0.2,0-0.4-0.1-0.6s-0.2-0.3-0.3-0.5c-0.1-0.1-0.3-0.2-0.5-0.3c-0.2-0.1-0.4-0.1-0.6-0.1
		c-0.2,0-0.4,0-0.6,0.1c-0.2,0.1-0.4,0.2-0.5,0.3c-0.1,0.1-0.3,0.3-0.3,0.5c-0.1,0.2-0.1,0.4-0.1,0.6
		C120.5,320.3,120.7,320.7,121,320.9z M120.9,316.9c0.1,0.2,0.2,0.3,0.3,0.4c0.1,0.1,0.3,0.2,0.4,0.2c0.2,0.1,0.3,0.1,0.5,0.1
		c0.4,0,0.7-0.1,0.9-0.3c0.2-0.2,0.4-0.5,0.4-0.9s-0.1-0.7-0.4-0.9c-0.2-0.2-0.5-0.3-0.9-0.3c-0.2,0-0.4,0-0.5,0.1
		c-0.2,0.1-0.3,0.1-0.4,0.2c-0.1,0.1-0.2,0.2-0.3,0.4c-0.1,0.1-0.1,0.3-0.1,0.5C120.8,316.5,120.8,316.7,120.9,316.9z"/>
	<path style="fill:#666666;" d="M126,315.5c0.1-0.2,0.3-0.4,0.5-0.6c0.2-0.2,0.4-0.3,0.7-0.4c0.3-0.1,0.6-0.1,0.8-0.1
		c0.4,0,0.8,0.1,1.1,0.2s0.5,0.3,0.7,0.4s0.3,0.4,0.4,0.6c0.1,0.2,0.1,0.5,0.1,0.7c0,0.3-0.1,0.7-0.3,0.9c-0.2,0.3-0.4,0.5-0.8,0.6
		c0.5,0.1,0.8,0.4,1,0.7c0.2,0.3,0.3,0.7,0.3,1.2c0,0.4-0.1,0.7-0.2,1c-0.1,0.3-0.3,0.5-0.5,0.7c-0.2,0.2-0.5,0.3-0.8,0.4
		c-0.3,0.1-0.6,0.2-1,0.2c-0.4,0-0.7,0-1-0.1c-0.3-0.1-0.6-0.2-0.8-0.4c-0.2-0.2-0.4-0.4-0.6-0.7c-0.1-0.3-0.2-0.6-0.2-1
		c0-0.5,0.1-0.8,0.3-1.2s0.6-0.6,1-0.7c-0.3-0.1-0.6-0.3-0.8-0.6c-0.2-0.3-0.3-0.6-0.3-1C125.8,316,125.9,315.7,126,315.5z
		 M127,320.9c0.3,0.3,0.7,0.4,1.2,0.4c0.2,0,0.4,0,0.6-0.1c0.2-0.1,0.4-0.2,0.5-0.3c0.1-0.1,0.2-0.3,0.3-0.5
		c0.1-0.2,0.1-0.4,0.1-0.6c0-0.2,0-0.4-0.1-0.6s-0.2-0.3-0.3-0.5c-0.1-0.1-0.3-0.2-0.5-0.3c-0.2-0.1-0.4-0.1-0.6-0.1
		c-0.2,0-0.4,0-0.6,0.1c-0.2,0.1-0.4,0.2-0.5,0.3c-0.1,0.1-0.3,0.3-0.3,0.5c-0.1,0.2-0.1,0.4-0.1,0.6
		C126.5,320.3,126.7,320.7,127,320.9z M126.9,316.9c0.1,0.2,0.2,0.3,0.3,0.4c0.1,0.1,0.3,0.2,0.4,0.2c0.2,0.1,0.3,0.1,0.5,0.1
		c0.4,0,0.7-0.1,0.9-0.3c0.2-0.2,0.4-0.5,0.4-0.9s-0.1-0.7-0.4-0.9c-0.2-0.2-0.5-0.3-0.9-0.3c-0.2,0-0.4,0-0.5,0.1
		c-0.2,0.1-0.3,0.1-0.4,0.2c-0.1,0.1-0.2,0.2-0.3,0.4c-0.1,0.1-0.1,0.3-0.1,0.5C126.8,316.5,126.8,316.7,126.9,316.9z"/>
	<path style="fill:#666666;" d="M133.6,318.6v-0.8h5.8v0.8H133.6z"/>
	<path style="fill:#666666;" d="M144.9,322v-5.5h-2v-0.7c0.3,0,0.5,0,0.8-0.1c0.2,0,0.5-0.1,0.7-0.2c0.2-0.1,0.4-0.3,0.5-0.4
		s0.2-0.4,0.3-0.7h0.7v7.7H144.9z"/>
	<path style="fill:#666666;" d="M150.9,322v-5.5h-2v-0.7c0.3,0,0.5,0,0.8-0.1c0.2,0,0.5-0.1,0.7-0.2c0.2-0.1,0.4-0.3,0.5-0.4
		s0.2-0.4,0.3-0.7h0.7v7.7H150.9z"/>
	<path style="fill:#666666;" d="M158,315.5c-0.2-0.2-0.5-0.3-0.9-0.3c-0.4,0-0.7,0.1-0.9,0.3c-0.2,0.2-0.4,0.4-0.6,0.7
		c-0.1,0.3-0.2,0.6-0.3,0.9c-0.1,0.3-0.1,0.7-0.1,1l0,0c0.2-0.4,0.5-0.6,0.8-0.8c0.3-0.2,0.7-0.2,1.1-0.2c0.4,0,0.7,0.1,1,0.2
		c0.3,0.1,0.5,0.3,0.7,0.5s0.4,0.5,0.5,0.8c0.1,0.3,0.2,0.6,0.2,1c0,0.3,0,0.6-0.1,0.9s-0.2,0.6-0.4,0.8s-0.5,0.5-0.8,0.6
		c-0.3,0.2-0.7,0.2-1.2,0.2c-0.6,0-1-0.1-1.4-0.3c-0.3-0.2-0.6-0.5-0.8-0.9c-0.2-0.4-0.3-0.8-0.4-1.2c-0.1-0.4-0.1-0.8-0.1-1.3
		c0-0.5,0-1,0.1-1.5c0.1-0.5,0.2-0.9,0.5-1.3c0.2-0.4,0.5-0.7,0.9-0.9s0.8-0.3,1.4-0.3c0.6,0,1.1,0.2,1.5,0.5
		c0.4,0.3,0.6,0.8,0.6,1.5h-0.9C158.4,315.9,158.2,315.7,158,315.5z M156.4,318c-0.2,0.1-0.4,0.2-0.5,0.4c-0.1,0.2-0.2,0.3-0.3,0.6
		c-0.1,0.2-0.1,0.4-0.1,0.7c0,0.2,0,0.5,0.1,0.7c0.1,0.2,0.2,0.4,0.3,0.5c0.1,0.2,0.3,0.3,0.5,0.4c0.2,0.1,0.4,0.1,0.7,0.1
		s0.5,0,0.7-0.1c0.2-0.1,0.4-0.2,0.5-0.4s0.2-0.3,0.3-0.5s0.1-0.4,0.1-0.6c0-0.2,0-0.5-0.1-0.7c-0.1-0.2-0.2-0.4-0.3-0.6
		c-0.1-0.2-0.3-0.3-0.5-0.4c-0.2-0.1-0.4-0.1-0.7-0.1S156.5,317.9,156.4,318z"/>
	<path style="fill:#666666;" d="M164.4,316.6c-0.3,0.5-0.6,1.1-0.9,1.7c-0.3,0.6-0.5,1.2-0.6,1.8c-0.2,0.6-0.3,1.2-0.3,1.8h-1
		c0-0.6,0.1-1.3,0.3-1.9c0.2-0.6,0.4-1.2,0.7-1.8c0.3-0.6,0.6-1.1,0.9-1.6c0.3-0.5,0.7-1,1.1-1.4h-4v-0.9h5v0.8
		C165.1,315.6,164.7,316.1,164.4,316.6z"/>
	<path style="fill:#666666;" d="M166.4,317.4c0-0.3,0-0.6,0.1-0.9c0.1-0.3,0.1-0.6,0.2-0.8c0.1-0.3,0.3-0.5,0.4-0.7s0.4-0.3,0.7-0.5
		c0.3-0.1,0.6-0.2,1-0.2c0.4,0,0.7,0.1,1,0.2c0.3,0.1,0.5,0.3,0.7,0.5s0.3,0.4,0.4,0.7c0.1,0.3,0.2,0.5,0.2,0.8
		c0.1,0.3,0.1,0.6,0.1,0.9c0,0.3,0,0.6,0,0.9s0,0.6,0,0.9c0,0.3,0,0.6-0.1,0.9c-0.1,0.3-0.1,0.6-0.2,0.8c-0.1,0.3-0.3,0.5-0.4,0.7
		c-0.2,0.2-0.4,0.3-0.7,0.5c-0.3,0.1-0.6,0.2-1,0.2c-0.4,0-0.7-0.1-1-0.2c-0.3-0.1-0.5-0.3-0.7-0.5c-0.2-0.2-0.3-0.4-0.4-0.7
		c-0.1-0.3-0.2-0.5-0.2-0.8c-0.1-0.3-0.1-0.6-0.1-0.9c0-0.3,0-0.6,0-0.9S166.4,317.7,166.4,317.4z M167.4,319.2c0,0.4,0.1,0.7,0.2,1
		c0.1,0.3,0.3,0.6,0.5,0.8c0.2,0.2,0.5,0.3,0.9,0.3c0.4,0,0.7-0.1,0.9-0.3c0.2-0.2,0.4-0.5,0.5-0.8c0.1-0.3,0.2-0.6,0.2-1
		c0-0.4,0-0.7,0-1c0-0.2,0-0.4,0-0.6c0-0.2,0-0.5-0.1-0.7c0-0.2-0.1-0.4-0.1-0.7c-0.1-0.2-0.2-0.4-0.3-0.6s-0.3-0.3-0.4-0.4
		c-0.2-0.1-0.4-0.2-0.7-0.2c-0.3,0-0.5,0.1-0.7,0.2c-0.2,0.1-0.3,0.2-0.4,0.4s-0.2,0.4-0.3,0.6c-0.1,0.2-0.1,0.4-0.1,0.7
		c0,0.2-0.1,0.5-0.1,0.7c0,0.2,0,0.4,0,0.6C167.4,318.5,167.4,318.8,167.4,319.2z"/>
</g>
<g>
	<g id="形状_2_copy_3_副本_4_5_">
		<g>
			<path style="fill-rule:evenodd;clip-rule:evenodd;fill:#CCCCCC;" d="M24.8,432.2c-1.3,2.5-2.4,4.6-3.7,7.2h1.8
				c0.3-0.6,0.5-1,0.9-1.7c0.9,0,1.6,0,2.5,0c-0.2-0.5-0.3-0.9-0.5-1.4h-1.4c0.4-0.8,0.6-1.3,1.3-2.4c0.7,1.9,1.3,3.8,1.9,5.5h1.6
				c-0.9-2.5-1.7-4.7-2.5-7.2H24.8z M29.7,439.4h1.5l0.3-7.2l-1.5,0L29.7,439.4z M32.1,439.4h1.6l0.2-5.4h-1.5L32.1,439.4z
				 M32.4,432.2l0,1.2c0,0,1.2,0,1.5,0l0.1-1.2C32.6,432.2,32.6,432.2,32.4,432.2z M42.2,434.1c-0.3-0.1-0.6-0.1-0.9-0.1
				c-0.2,0-0.4,0-0.5,0.1c-0.2,0-0.3,0.1-0.5,0.1c-0.1,0.1-0.3,0.1-0.4,0.2c-0.1,0.1-0.2,0.2-0.3,0.3c-0.1,0.1-0.1,0.2-0.2,0.3
				c-0.1-0.2-0.1-0.3-0.2-0.4c-0.1-0.1-0.1-0.2-0.2-0.2c-0.1-0.1-0.2-0.1-0.3-0.2c-0.1-0.1-0.3-0.1-0.4-0.1c-0.1,0-0.3,0-0.5,0
				c-0.2,0-0.4,0-0.6,0.1c-0.2,0.1-0.4,0.1-0.5,0.2c-0.1,0.1-0.3,0.2-0.4,0.3c-0.1,0.1-0.2,0.2-0.3,0.4l0-0.9h-1.4l-0.2,5.4
				c0,0,1.2,0,1.5,0c0-0.5,0-1.1,0.1-1.9c0-0.8,0.1-1.3,0.2-1.6c0.1-0.3,0.2-0.5,0.4-0.6c0.2-0.2,0.4-0.2,0.7-0.2
				c0.1,0,0.3,0,0.4,0.1c0.1,0,0.2,0.1,0.3,0.2c0.1,0.1,0.1,0.2,0.2,0.3c0,0.1,0,0.2,0,0.4c0,0.3,0,0.9-0.1,1.7
				c0,0.8-0.1,1.4-0.1,1.7c0.3,0,1.2,0,1.5,0l0-1.5c0-0.5,0-0.9,0.1-1.3c0-0.3,0.1-0.6,0.1-0.8c0.1-0.2,0.1-0.3,0.3-0.5
				c0.1-0.1,0.2-0.2,0.4-0.3c0.1-0.1,0.3-0.1,0.4-0.1c0.2,0,0.3,0,0.4,0.1c0.1,0.1,0.2,0.1,0.3,0.3c0.1,0.1,0.1,0.3,0.1,0.6
				c0,0.2,0,0.5,0,0.8l-0.1,1.2c0,0.5-0.1,1-0.1,1.4c0.3,0,1.2,0,1.5,0c0-0.4,0-1,0.1-1.7c0-0.7,0.1-1.3,0.1-1.6c0-0.3,0-0.6,0-0.7
				c0-0.3-0.1-0.6-0.2-0.8C42.7,434.3,42.5,434.2,42.2,434.1z M47.9,434.1c-0.3-0.1-0.7-0.1-1.1-0.1c-0.3,0-0.7,0-1.1,0.1
				c-0.4,0-1.3,0.2-1.3,0.2l-0.2,1c0,0,1.5-0.5,2.1-0.5c0.2,0,0.3,0,0.5,0.1c0.1,0,0.3,0.1,0.3,0.2c0.1,0.1,0.1,0.2,0.1,0.3
				c0,0.1,0,0.1,0,0.2c0,0.1-0.1,0.1-0.1,0.2c-0.1,0.1-0.1,0.1-0.2,0.2c-0.1,0-0.2,0.1-0.3,0.1c-0.1,0-0.3,0.1-0.4,0.1
				c-0.5,0.1-0.9,0.2-1.2,0.3c-0.3,0.1-0.5,0.2-0.7,0.3c-0.2,0.1-0.3,0.2-0.4,0.4c-0.1,0.1-0.2,0.3-0.2,0.4
				c-0.1,0.1-0.1,0.3-0.1,0.4c0,0.3,0.1,0.5,0.2,0.8c0.1,0.3,0.3,0.5,0.6,0.6c0.3,0.1,0.7,0.2,1.1,0.2c0.1,0,0.3,0,0.4,0
				c0.1,0,0.3,0,0.6-0.1c0.1-0.4,0.2-0.7,0.3-0.9c-0.2,0.1-0.4,0.1-0.5,0.1c-0.1,0-0.2,0-0.4,0c-0.2,0-0.3,0-0.5-0.1
				c-0.1,0-0.2-0.1-0.3-0.2c-0.1-0.1-0.1-0.2-0.1-0.4c0-0.1,0-0.2,0.1-0.3c0-0.1,0.1-0.2,0.2-0.2c0.1-0.1,0.2-0.1,0.3-0.2
				c0.1-0.1,0.2-0.1,0.4-0.2c0.1,0,0.3-0.1,0.5-0.2c0.2-0.1,0.4-0.1,0.5-0.1c0.1,0,0.2-0.1,0.2-0.1c0.1,0,0.2-0.1,0.3-0.2l-0.2,2.8
				h1.5c0,0,0-1.7,0.1-2.5c0.1-0.8,0.1-1.3,0.1-1.5c0-0.4-0.1-0.7-0.3-0.8C48.5,434.3,48.3,434.1,47.9,434.1z M57.4,434.1
				c-0.3-0.1-0.6-0.1-0.9-0.1c-0.2,0-0.4,0-0.5,0.1c-0.2,0-0.3,0.1-0.5,0.1c-0.1,0.1-0.3,0.1-0.4,0.2c-0.1,0.1-0.2,0.2-0.3,0.3
				c-0.1,0.1-0.1,0.2-0.2,0.3c-0.1-0.2-0.1-0.3-0.2-0.4c-0.1-0.1-0.1-0.2-0.2-0.2c-0.1-0.1-0.2-0.1-0.3-0.2
				c-0.1-0.1-0.3-0.1-0.4-0.1c-0.1,0-0.3,0-0.5,0c-0.2,0-0.4,0-0.6,0.1c-0.2,0.1-0.4,0.1-0.5,0.2c-0.1,0.1-0.3,0.2-0.4,0.3
				c-0.1,0.1-0.2,0.2-0.3,0.4l0-0.9h-1.4l-0.2,5.4h1.5c0,0,0-1.1,0.1-1.9c0-0.8,0.1-1.3,0.2-1.6c0.1-0.3,0.2-0.5,0.4-0.6
				c0.2-0.2,0.4-0.2,0.7-0.2c0.1,0,0.3,0,0.4,0.1c0.1,0,0.2,0.1,0.3,0.2c0.1,0.1,0.1,0.2,0.2,0.3c0,0.1,0,0.2,0,0.4
				c0,0.3,0,0.9-0.1,1.7c0,0.8-0.1,1.4-0.1,1.7c0.3,0,1.2,0,1.5,0l0-1.5c0-0.5,0-0.9,0.1-1.3c0-0.3,0.1-0.6,0.1-0.8
				c0.1-0.2,0.1-0.3,0.3-0.5c0.1-0.1,0.2-0.2,0.4-0.3c0.1-0.1,0.3-0.1,0.4-0.1c0.2,0,0.3,0,0.4,0.1c0.1,0.1,0.2,0.1,0.3,0.3
				c0.1,0.1,0.1,0.3,0.1,0.6c0,0.2,0,0.5,0,0.8l-0.1,1.2c0,0.5-0.1,1-0.1,1.4c0.3,0,1.2,0,1.5,0c0-0.4,0-1,0.1-1.7
				c0-0.7,0.1-1.3,0.1-1.6c0-0.3,0-0.6,0-0.7c0-0.3-0.1-0.6-0.2-0.8C57.9,434.3,57.6,434.2,57.4,434.1z M63.1,434.1
				c-0.3-0.1-0.7-0.1-1.1-0.1c-0.3,0-0.7,0-1.1,0.1c-0.4,0-1.3,0.2-1.3,0.2l-0.2,1c0,0,1.5-0.5,2.1-0.5c0.2,0,0.3,0,0.5,0.1
				c0.1,0,0.3,0.1,0.4,0.2c0.1,0.1,0.1,0.2,0.1,0.3c0,0.1,0,0.1,0,0.2c0,0.1-0.1,0.1-0.1,0.2c-0.1,0.1-0.1,0.1-0.2,0.2
				c-0.1,0-0.2,0.1-0.3,0.1c-0.1,0-0.3,0.1-0.4,0.1c-0.5,0.1-0.9,0.2-1.2,0.3c-0.3,0.1-0.5,0.2-0.7,0.3c-0.2,0.1-0.3,0.2-0.4,0.4
				c-0.1,0.1-0.2,0.3-0.2,0.4c-0.1,0.1-0.1,0.3-0.1,0.4c0,0.3,0.1,0.5,0.2,0.8c0.1,0.3,0.3,0.5,0.6,0.6c0.3,0.1,0.7,0.2,1.1,0.2
				c0.1,0,0.3,0,0.4,0c0.1,0,0.3,0,0.6-0.1c0.1-0.4,0.2-0.7,0.3-0.9c-0.2,0.1-0.4,0.1-0.5,0.1c-0.1,0-0.2,0-0.4,0
				c-0.2,0-0.3,0-0.5-0.1c-0.1,0-0.2-0.1-0.3-0.2c-0.1-0.1-0.1-0.2-0.1-0.4c0-0.1,0-0.2,0-0.3c0-0.1,0.1-0.2,0.2-0.2
				c0.1-0.1,0.2-0.1,0.3-0.2c0.1-0.1,0.2-0.1,0.4-0.2c0.1,0,0.3-0.1,0.5-0.2c0.2-0.1,0.4-0.1,0.5-0.1c0.1,0,0.2-0.1,0.2-0.1
				c0.1,0,0.2-0.1,0.3-0.2l-0.2,2.8h1.5c0,0,0-1.7,0.1-2.5c0.1-0.8,0.1-1.3,0.1-1.5c0-0.4-0.1-0.7-0.3-0.8
				C63.7,434.3,63.4,434.1,63.1,434.1z M64.8,438c0,0.7,0,1.2-0.1,1.4c0.5,0,1.5,0,1.5,0s0.1-1.2,0.1-1.4
				C65.9,438,64.8,438,64.8,438z M68.7,435.5c0.2-0.2,0.3-0.3,0.5-0.4c0.2-0.1,0.4-0.1,0.7-0.1c0.4,0,0.8,0.1,1.4,0.3l-0.1-1.2
				c-0.3-0.1-0.6-0.1-0.9-0.2c-0.2,0-0.5,0-0.7,0c-0.4,0-0.8,0-1.1,0.1c-0.3,0.1-0.6,0.3-0.9,0.5c-0.3,0.3-0.5,0.6-0.6,1
				c-0.1,0.4-0.2,0.8-0.2,1.3c0,0.3,0,0.7,0.1,1c0.1,0.3,0.2,0.6,0.4,0.8c0.2,0.2,0.4,0.4,0.6,0.5c0.2,0.1,0.5,0.2,0.7,0.3
				c0.3,0.1,0.5,0.1,0.8,0.1c0.5,0,1-0.1,1.5-0.2c0-0.3,0.1-0.5,0.1-0.7c0-0.2,0.1-0.3,0.1-0.5c-0.3,0.1-0.5,0.2-0.7,0.2
				c-0.2,0-0.4,0.1-0.6,0.1c-0.3,0-0.6-0.1-0.9-0.2c-0.3-0.1-0.4-0.3-0.5-0.6c-0.1-0.2-0.2-0.5-0.2-0.9c0-0.2,0-0.5,0.1-0.7
				C68.4,435.9,68.5,435.7,68.7,435.5z M76.8,434.6c-0.3-0.2-0.6-0.4-0.9-0.5c-0.4-0.1-0.8-0.2-1.2-0.2c-0.4,0-0.9,0.1-1.3,0.2
				c-0.4,0.2-0.7,0.4-1,0.6c-0.3,0.3-0.5,0.6-0.6,0.9c-0.1,0.4-0.2,0.7-0.2,1.1c0,0.4,0.1,0.7,0.2,1.1c0.1,0.3,0.3,0.6,0.6,0.9
				c0.3,0.2,0.6,0.4,0.9,0.5c0.4,0.1,0.8,0.2,1.2,0.2c0.4,0,0.9-0.1,1.2-0.2c0.4-0.1,0.7-0.3,1-0.6c0.3-0.3,0.5-0.6,0.6-1
				c0.1-0.4,0.2-0.8,0.2-1.2c0-0.4-0.1-0.7-0.2-1.1C77.2,435.2,77,434.9,76.8,434.6z M75.9,437.6c-0.1,0.3-0.3,0.5-0.5,0.7
				c-0.2,0.2-0.5,0.2-0.8,0.2c-0.3,0-0.6-0.1-0.8-0.2c-0.2-0.1-0.4-0.3-0.5-0.6c-0.1-0.2-0.1-0.5-0.1-0.8c0-0.3,0.1-0.7,0.2-1
				c0.1-0.3,0.3-0.5,0.5-0.7c0.2-0.2,0.5-0.2,0.8-0.2c0.3,0,0.6,0.1,0.8,0.2c0.2,0.1,0.4,0.3,0.5,0.6c0.1,0.2,0.1,0.5,0.1,0.8
				C76,437,76,437.3,75.9,437.6z M86.2,434.5c-0.2-0.2-0.4-0.4-0.6-0.5c-0.3-0.1-0.6-0.1-0.9-0.1c-0.2,0-0.4,0-0.5,0.1
				c-0.2,0-0.3,0.1-0.5,0.1c-0.1,0.1-0.3,0.1-0.4,0.2c-0.1,0.1-0.2,0.2-0.3,0.3c-0.1,0.1-0.1,0.2-0.2,0.3c-0.1-0.2-0.1-0.3-0.2-0.4
				c-0.1-0.1-0.1-0.2-0.2-0.2c-0.1-0.1-0.2-0.1-0.3-0.2c-0.1-0.1-0.3-0.1-0.4-0.1c-0.1,0-0.3,0-0.5,0c-0.2,0-0.4,0-0.6,0.1
				c-0.2,0.1-0.4,0.1-0.5,0.2c-0.1,0.1-0.3,0.2-0.4,0.3c-0.1,0.1-0.2,0.2-0.3,0.4l0-0.9c-0.3,0-1.1,0-1.4,0c0,0.6-0.2,4.8-0.2,5.4
				c0.3,0,1.2,0,1.5,0c0-0.5,0-1.1,0.1-1.9c0-0.8,0.1-1.3,0.2-1.6c0.1-0.3,0.2-0.5,0.4-0.6c0.2-0.2,0.4-0.2,0.7-0.2
				c0.1,0,0.3,0,0.4,0.1c0.1,0,0.2,0.1,0.3,0.2c0.1,0.1,0.1,0.2,0.2,0.3c0,0.1,0,0.2,0,0.4c0,0.3,0,0.9-0.1,1.7
				c0,0.8-0.1,1.4-0.1,1.7c0.3,0,1.2,0,1.5,0l0-1.5c0-0.5,0-0.9,0.1-1.3c0-0.3,0.1-0.6,0.1-0.8c0.1-0.2,0.1-0.3,0.3-0.5
				c0.1-0.1,0.2-0.2,0.4-0.3c0.1-0.1,0.3-0.1,0.4-0.1c0.2,0,0.3,0,0.4,0.1c0.1,0.1,0.2,0.1,0.3,0.3c0.1,0.1,0.1,0.3,0.1,0.6
				c0,0.2,0,0.5,0,0.8l-0.1,1.2c0,0.5-0.1,1-0.1,1.4c0.3,0,1.2,0,1.5,0c0-0.4,0-1,0.1-1.7c0-0.7,0.1-1.3,0.1-1.6c0-0.3,0-0.6,0-0.7
				C86.5,435,86.4,434.8,86.2,434.5z"/>
		</g>
	</g>
	<g id="形状_2_copy_3_副本_5_5_">
		<g>
			<path style="fill-rule:evenodd;clip-rule:evenodd;fill:#FF6600;" d="M27.6,417.2c2.2,0,4.5,0,6.7,0c0,3.3,0,6.8,0,9.9
				c0,0.2-0.3,0.5-0.5,0.5c-0.4,0-0.5,0-0.9,0v1.6c0.5,0,1,0,1.5,0c1.3,0,2.2-0.6,2.2-1.7c0-2.6,0-7.7,0-10.3h0.8v-1.5h-9.7V417.2z
				 M61.9,424.3c-0.6,0-1.6,0.6-1.6,1.6c1.9,0,5.1,0,7.2,0c0,0.4,0,0.8,0,1.3c0.7,0,0.4,0,1.2,0c0.4,0,1-0.4,1-1c0-1.7,0-3,0-4.8
				c-0.3,0-0.7,0-0.9,0c0-1.3,0-4,0-5c0-0.4-0.4-0.8-0.9-0.8h-7v1.5h5.4c0,1.4,0,2.8,0,4.2c-1.3,0-1.5,0-2.6,0
				c-0.1,0-0.3-0.2-0.3-0.3c0-0.7,0-1.8,0-2.8c0-0.2-0.2-0.5-0.6-0.5h-1.6v3.7c0,0.7,0.6,1.3,1.3,1.3c0,0,2.8,0,5.1,0v1.4H61.9z
				 M33.3,424.8c0-1.8,0-4.3,0-6.7h-5.6v8.5c1.6,0,3.7,0,3.7,0C32.8,426.6,33.3,425.8,33.3,424.8z M30.9,425.1c-0.4,0-0.8,0-1.4,0
				v-5.3c0.6,0,1.3,0,1.9,0c0,1.6,0,3.4,0,4.8C31.4,424.9,31.2,425.1,30.9,425.1z M21.3,416c0,3.1,0,7.1,0,13.2h2.1
				c0-3.8,0-8.1,0-12c0.5,0,1.1,0,1.6,0c0,2.3,0,4.4,0,6.5c0,0.9-0.8,1.2-0.8,1.2v1.7c1.5,0,2.8-1.5,2.8-2.9c0-2.5,0-5.6,0-8.1
				c-1.9,0-3.3,0-5.2,0C21.3,415.6,21.3,416,21.3,416z M85.8,421.4c0-1.3,0-4,0-5c0-0.4-0.4-0.8-0.9-0.8h-7v1.5c1.8,0,3.6,0,5.4,0
				v4.2c-1.3,0-1.5,0-2.6,0c-0.1,0-0.3-0.2-0.3-0.3c0-0.7,0-1.8,0-2.8c0-0.2-0.2-0.5-0.6-0.5c-0.4,0-1.1,0-1.6,0v3.7
				c0,0.7,0.6,1.3,1.3,1.3c0,0,2.8,0,5.1,0v1.4h-5.5c-0.6,0-1.6,0.5-1.6,1.5c1.9,0,5,0,7.1,0v1.4c0,0.2-0.2,0.4-0.5,0.4h-0.8
				c0,0.7,0,1.1,0,1.5h1.3c0.4,0,0.3,0,0.7,0c1.1,0,1.5-0.7,1.5-1.4c0-2,0-4.5,0-6.5C86.4,421.4,86.1,421.4,85.8,421.4z M75.8,426.6
				c0.8-0.8,1.2-1.8,1.3-3.7c0-2,0-4,0-6c0-0.2-0.2-0.4-0.4-0.4c-0.8,0-1.8,0-2.7,0v-0.9h-2.1c0,0.3,0,0.6,0,0.9c-0.2,0-0.5,0-0.7,0
				v1.5h0.7v4.8c0,1.9,0.6,2.8,1.4,3.7c-0.9,0.6-1.8,1-3.1,1c-0.2,0-0.4,0-0.5,0c-1.9,0-4.3,0-6.4,0c-1.9,0-3.8-0.4-4.5-1.2
				c0.7-0.9,1-1.6,1.2-3.5c0-1.9,0-3.5,0-5.9c0-0.3-0.3-0.5-0.5-0.5c-0.8,0-1.6,0-2.6,0v-0.9c-0.9,0-1.2,0-2,0v0.9
				c-0.2,0-0.4,0-0.7,0v1.5c0.3,0,0.5,0,0.7,0c0,1.6,0,3.4,0,4.8c0.2,1.9,0.8,2.5,1.5,3.6c-1,0.7-2.3,1.1-3.8,1.1
				c-1.8,0-3.4,0-5.6,0c0-0.4,0-0.9,0-1.2h5.6v-1.6h-5.6c0-0.4,0-0.8,0-1.2c1.6,0,3.7,0,4.2,0c0,0,1.4,0,1.4-1.5c0-1.6,0-4.4,0-6.5
				c-4.4,0-8.9,0-13.4,0c-0.2,0-0.4,0.2-0.4,0.4c0,0.3,0,5.3,0,7.6c1.9,0,3.7,0,5.6,0v1.2h-5.6c0,0.5,0,1.1,0,1.6h5.6
				c0,0.4,0,0.8,0,1.2h-6.6c0,0.5,0,1,0,1.5c4.9,0,11,0,15.8,0c1.3,0,2.9-0.7,4-1.3c1.4,1.1,3.1,1.3,5.7,1.3c0.8,0,1.7,0,2.7,0
				c1.4,0,2.6,0,3.7,0c2.2,0,3.6-0.5,5-1.3c1.3,0.8,2.5,1.2,4.4,1.3v0h3v-1.5h-3C77.8,427.5,76.7,427.3,75.8,426.6z M44.3,422.1
				h-3.4v-1.6h3.4V422.1z M44.3,418.8h-3.4v-1.6c1.2,0,2.3,0,3.4,0V418.8z M46.9,417.2h3.5v1.6h-3.5V417.2z M46.9,420.4
				c1.2,0,2.3,0,3.4,0c0,0.7,0,1.2,0,1.6h-3.4C46.9,421.6,46.9,421,46.9,420.4z M58.1,423c-0.1,1.1-0.2,1.3-0.5,2
				c-0.3-0.7-0.6-1-0.7-2c0-1.4,0-3.4,0-4.8h1.2V423z M75.1,423c0,1-0.3,1.5-0.5,2c-0.3-0.5-0.6-1.1-0.6-2c0-1.5,0-3.3,0-4.8h1.2
				C75.1,419.7,75.1,421.4,75.1,423z"/>
		</g>
	</g>
</g>
</svg>
