<?xml version="1.0" encoding="utf-8"?>
<!-- Generator: Adobe Illustrator 17.1.0, SVG Export Plug-In . SVG Version: 6.00 Build 0)  -->
<!DOCTYPE svg PUBLIC "-//W3C//DTD SVG 1.1//EN" "http://www.w3.org/Graphics/SVG/1.1/DTD/svg11.dtd">
<svg version="1.1" id="图层_1" xmlns="http://www.w3.org/2000/svg" xmlns:xlink="http://www.w3.org/1999/xlink" x="0px" y="0px"
	 viewBox="0 0 267.5 470" style="enable-background:new 0 0 267.5 470;" xml:space="preserve">
<rect x="6.3" y="4.3" style="fill:#FFFFFF;stroke:#D8D8D8;stroke-miterlimit:10;" width="254.7" height="459"/>
<g>
	<defs>
		<rect id="SVGID_1_" x="70.6" y="4.5" width="190.5" height="458.7"/>
	</defs>
	<clipPath id="SVGID_2_">
		<use xlink:href="#SVGID_1_"  style="overflow:visible;"/>
	</clipPath>
	<g id="形状_13_43_" style="clip-path:url(#SVGID_2_);">
		<g>
			<path style="fill:#FF9B48;" d="M220.9,302.2c0,0-22.1,9.5-44,31.1c-28.5,25.7-44.1,40.6-57.4,44.5c-2.2,1.1-9.9,3.7-15,5
				c-6.7,1.7-13.6,1.7-15.8,4.2c-1.1,1.2-0.5,3.2,0.6,4.1c1.1,0.9,4.6,0.9,4.6,0.9s-9.7,2.9-6.2,8.9c3.2,5.5,25.3-10,26.2-3.2
				c0.5,3.7-11.7,6.5-6,11c2.6,2,11.4-3.1,17.5-8.5c4.5-4,8.7-10.9,22.5-20.4c11.2-7.7,32.1-20.2,54.4-29.5
				C252.2,329.4,220.9,302.2,220.9,302.2z"/>
		</g>
	</g>
	<g id="形状_14_43_" style="clip-path:url(#SVGID_2_);">
		<g>
			<path style="fill:#CC7123;" d="M121.1,386.2c-1.1,1-3.8,2.6-5.1,3.4c-2.7,1.6-5.1,2.2-5.1,2.2s0.7,0.2,1.8-0.1
				c3.2-0.9,7.4-2.7,9.3-4.3C123.4,386.2,122.6,384.8,121.1,386.2z"/>
		</g>
	</g>
	<g id="形状_13_41_" style="clip-path:url(#SVGID_2_);">
		<g>
			<path style="fill-rule:evenodd;clip-rule:evenodd;fill:#FF9B48;" d="M392.5,392c0,0,3.6,0,4.6-0.9c1.1-0.9,1.7-2.9,0.6-4.1
				c-2.2-2.5-9.1-2.5-15.8-4.2c-5.1-1.3-12.8-3.9-15-5c-13.3-3.9-28.9-18.8-57.4-44.5c-21.9-21.6-45.5-31.3-45.5-31.3
				s-29.7,27.5,20.1,48.3c22.3,9.3,43.2,21.8,54.4,29.5c13.8,9.5,18,16.4,22.5,20.4c6.1,5.5,15,10.6,17.5,8.5c5.8-4.5-6.5-7.3-6-11
				c1-6.8,23,8.7,26.2,3.2C402.2,394.9,392.5,392,392.5,392z"/>
		</g>
	</g>
	<g id="形状_14_41_" style="clip-path:url(#SVGID_2_);">
		<g>
			<path style="fill-rule:evenodd;clip-rule:evenodd;fill:#CC7123;" d="M406.2,389.7c-1.3-0.8-4-2.4-5.1-3.4c-1.5-1.5-2.3,0-0.8,1.3
				c1.9,1.6,6,3.4,9.3,4.3c1.1,0.3,1.8,0.1,1.8,0.1S408.9,391.3,406.2,389.7z"/>
		</g>
	</g>
	
		<radialGradient id="SVGID_3_" cx="247.0031" cy="351.8507" r="103.0194" gradientTransform="matrix(1 0 0 0.9295 0 24.79)" gradientUnits="userSpaceOnUse">
		<stop  offset="0" style="stop-color:#FFC07D"/>
		<stop  offset="0.5713" style="stop-color:#FEB162"/>
		<stop  offset="1" style="stop-color:#FEA852"/>
	</radialGradient>
	<path style="clip-path:url(#SVGID_2_);fill-rule:evenodd;clip-rule:evenodd;fill:url(#SVGID_3_);" d="M398.3,589.2
		c-14.9,5.3-45.7,3.3-63.3,2.5c-18.4-0.8-57.6-6.4-64.9-8.4c-15.5-4.3-6.7-13.8-5.2-20.8c1.5-7.1,2.3-14.2,1.9-22
		c-0.1-2.6-0.3-7.4-4.8-7.2c-4.9,1.5-9.5,2.3-13.8,2.7c0,0-0.1,0-0.1,0c-0.3,0-0.7,0.1-1,0.1c-0.2,0-0.5,0-0.7,0.1
		c-0.2,0-0.4,0-0.7,0c-0.3,0-0.7,0-1,0c-0.2,0-0.3,0-0.5,0c-0.3,0-0.7,0-1,0c-0.2,0-0.4,0-0.5,0c-0.3,0-0.5,0-0.8,0
		c-0.3,0-0.5,0-0.8,0c-0.2,0-0.4,0-0.5,0c-0.3,0-0.7,0-1,0c-0.2,0-0.3,0-0.5,0c-0.3,0-0.7,0-1,0c-0.2,0-0.4,0-0.7,0
		c-0.2,0-0.5,0-0.7-0.1c-0.3,0-0.7-0.1-1-0.1c0,0-0.1,0-0.1,0c-4.3-0.4-8.9-1.3-13.8-2.7c-4.5-0.2-4.7,4.6-4.8,7.2
		c-0.4,7.7,0.4,14.8,1.9,22c1.5,6.9,10.3,16.5-5.2,20.8c-7.3,2-50.2,7.4-68.7,8.6c-19.8,1.3-52.5,1.5-61.9-2.5
		c-5.2-2.2-5.4-15.5,8.6-22.6c17.6-9,90.6-5,95.5-5.3c10.2-0.7,8.2-3.9,8.3-9.1c0.2-9.6-7.7-14.5-14.4-18.7
		c-6.7-4.2-40.3-19-40.3-51.6c0-16.8,4.6-39.4,26.3-71.6c52.7-78.4,54.7-122.1,54.7-122.1l4.3-0.2c0.2-0.8,0.2-1.3,0.2-1.3l15.7,0.6
		l15.7-0.6c0,0,0.1,0.4,0.2,1.3l4.3,0.2c0,0,1.9,43.7,54.7,122.1c21.7,32.2,26.3,54.8,26.3,71.6c0,32.6-33.5,47.4-40.3,51.6
		c-6.7,4.2-14.6,9.1-14.4,18.7c0.1,5.1-1.6,9.7,8.6,9.9c4.8,0.1,77.6-4.5,95.2,4.5C406,573.9,403.6,587.3,398.3,589.2z"/>
	<path style="clip-path:url(#SVGID_2_);fill-rule:evenodd;clip-rule:evenodd;fill:#DD7528;" d="M119.9,572.4
		c-15.3,4.1-13.5,11.1-11.3,16.9c0.3,0.7,0.6,1.4,1,2c0.9,0.1,1.8,0.2,2.8,0.3c-5.3-12.2,2.3-16,9.1-18.3
		C124.5,572.3,122,571.9,119.9,572.4z"/>
	<path style="clip-path:url(#SVGID_2_);fill-rule:evenodd;clip-rule:evenodd;fill:#DD7528;" d="M120.6,571.8
		c-13.1,2.9-11.1,13.9-9.1,19.2c0.2,0.6,0.5,1.1,0.7,1.6c0.8,0,1.7,0,2.5,0c-3.7-11.2,1.1-16,4.9-18.6
		C121.8,572.6,125.3,570.8,120.6,571.8z"/>
	<path style="clip-path:url(#SVGID_2_);fill-rule:evenodd;clip-rule:evenodd;fill:#DD7528;" d="M407.7,591.2c0.2-0.5,0.4-1,0.6-1.6
		c1.7-5.5-0.1-15.4-10.9-18.1c-5.9-1.5-3.3,1.2-0.7,2.1c6.4,2.1,9.7,9.7,6.8,18.2C405,591.6,406.4,591.4,407.7,591.2z"/>
	<path style="clip-path:url(#SVGID_2_);fill-rule:evenodd;clip-rule:evenodd;fill:#DD7528;" d="M369.8,591.2
		c3.1-6.8,0.4-16.9-7-19.8c-2.9-0.7-0.2,1.9,1.9,4c2.8,3,4.3,10.1,1.8,15.5c-0.4,0.8-0.6,1.3-0.8,1.8c1.1,0,2.1,0,3.2,0
		C369.2,592.3,369.5,591.8,369.8,591.2z"/>
	<g id="形状_12_21_" style="clip-path:url(#SVGID_2_);">
		<g>
			<linearGradient id="SVGID_4_" gradientUnits="userSpaceOnUse" x1="242.3224" y1="441.933" x2="240.7204" y2="297.7595">
				<stop  offset="0" style="stop-color:#FFC28A"/>
				<stop  offset="0.7938" style="stop-color:#FFCD9F"/>
				<stop  offset="1" style="stop-color:#FFD0A5"/>
			</linearGradient>
			<path style="fill-rule:evenodd;clip-rule:evenodd;fill:url(#SVGID_4_);" d="M266.6,347.3c-11-17.9-38.1-16.1-48.8,1.4
				c-12.9,21.1-28.6,78.3-17.5,110.9c9.1,26.9,73,28.6,82.9,2.9C296.5,427.9,278.2,366.2,266.6,347.3z"/>
		</g>
	</g>
	<path style="opacity:0.6;clip-path:url(#SVGID_2_);fill-rule:evenodd;clip-rule:evenodd;fill:#DD7528;" d="M167.2,430.5
		c0,0,29.6,7.4,77.2,7.4c44.8,0,53.2-2.6,76.7-8C321.7,430.6,248.7,557.6,167.2,430.5z"/>
	<g id="形状_11_拷贝_2_21_" style="clip-path:url(#SVGID_2_);">
		<g>
			<path style="fill-rule:evenodd;clip-rule:evenodd;fill:#FFBF80;" d="M319.1,430.6c-0.6,0.3-1.3,0.6-2,0.9
				c-21.8,9.7-47.6,12.8-67.8,13.4c-19.9,0.1-49.4-1.6-73.6-11.3c-2.1-0.8-5.1-1.9-7.2-2.8c-5.5-2.7-6.7,4.3-6.6,8.3
				c0.3,17.4,4.2,72.5,54.1,91.1c2,1.3,8.1,4.3,20.6,5.1c4,0.7,8.7,0.5,13.2-0.1c0.5,0,1-0.1,1.5-0.1c7.5-0.8,14.2-2.6,20.3-5.2
				c0.4-0.1,0.6-0.2,0.6-0.2v0c37.9-16.8,48.7-65.2,51.7-88.9c0.2-1.8,0.3-3.4,0.5-4.8C325.3,429.8,321,429.5,319.1,430.6z"/>
		</g>
	</g>
	<path style="opacity:0.6;clip-path:url(#SVGID_2_);fill-rule:evenodd;clip-rule:evenodd;fill:#DD7528;" d="M261.8,288.4
		c-5.8,3.5-13.8,8.2-18.3,8.9c-6.8,1-14.3-0.1-21.9-8.8c0,0.6-0.3,3.6-1.3,8.8c2.2,7,6.9,14.4,16.9,15.6
		c11.8,1.4,20.6-8.1,25.9-16.4c-1-5.4-1.1-8.2-1.1-8.2L261.8,288.4z"/>
	<g id="形状_9_21_" style="clip-path:url(#SVGID_2_);">
		<g>
			<path style="fill-rule:evenodd;clip-rule:evenodd;fill:#FFC07D;" d="M220.8,155.6c-25-55.1-63.4-76.4-63.4-76.4
				s-9.9-6.3-11.3,0.6c-14.8,86.4,53.8,105.6,53.8,105.6S245.8,210.7,220.8,155.6z"/>
		</g>
	</g>
	<g id="形状_10_21_" style="clip-path:url(#SVGID_2_);">
		<g>
			<path style="fill-rule:evenodd;clip-rule:evenodd;fill:#FF9B48;" d="M213,168.3c-9.5-42.4-44.8-57-44.8-57s-7.4-5.2-7.5,2
				c2.9,54.4,48.3,63.1,48.3,63.1S215.1,178.1,213,168.3z"/>
		</g>
	</g>
	<g id="形状_9_拷贝_21_" style="clip-path:url(#SVGID_2_);">
		<g>
			<path style="fill:#FFC07D;" d="M341.1,79.7c-1.4-6.8-11.3-0.6-11.3-0.6s-38.4,21.2-63.4,76.4c-25.1,55.1,20.9,29.8,20.9,29.8
				S355.9,166,341.1,79.7z"/>
		</g>
	</g>
	<g id="形状_10_拷贝_21_" style="clip-path:url(#SVGID_2_);">
		<g>
			<path style="fill:#FF9B48;" d="M319.1,111.2c0,0-35.4,14.6-44.9,57c-2.1,9.8,4.1,8.1,4.1,8.1s45.4-8.6,48.4-63
				C326.5,106,319.1,111.2,319.1,111.2z"/>
		</g>
	</g>
	<g id="脸_43_" style="clip-path:url(#SVGID_2_);">
		<g>
			
				<radialGradient id="SVGID_5_" cx="243.7095" cy="294.5897" r="66.536" gradientTransform="matrix(0.9999 1.315258e-02 -9.151512e-03 0.6957 2.717 86.4277)" gradientUnits="userSpaceOnUse">
				<stop  offset="0" style="stop-color:#FECD97"/>
				<stop  offset="1" style="stop-color:#FFC07A"/>
			</radialGradient>
			<path style="fill:url(#SVGID_5_);" d="M294.4,204.7c-2.5-7.8-4.8-19.2-8.1-28.6c-7.4-21.3-24.5-28.3-42.7-28
				c-18.4,0.3-35.8,8.1-42.8,28.1c-3.3,9.4-5.3,20.8-7.8,28.6c-2.5,7.9-7.9,41.4,5.8,62.2c-0.1,0.1,5.9,7.3,16.8,18.2
				c9,9,14.1,16.4,25.5,17.1c0.1,0,0.1,0,0.2,0c0.1,0,0.2,0,0.2,0c0.9,0,1.9,0,2.9,0c0.2,0,0.4,0,0.5-0.1c14.2-1,18.9-9.9,27.8-17.9
				c11.5-10.3,15.9-17.3,15.8-17.5C302.3,246.1,296.9,212.5,294.4,204.7z"/>
		</g>
	</g>
	<path style="clip-path:url(#SVGID_2_);fill-rule:evenodd;clip-rule:evenodd;fill:#66361F;" d="M243,211.4
		c-0.2,0.1,19.9-5.8,28.5-27.5c-0.1-0.5,9.1,16.3,23.5,22.9c-0.2-0.8-0.4-1.6-0.6-2.2c-2.2-9.4-4.1-18.4-7.4-27.9
		c-7.4-21.3-25.2-29.1-43.4-28.8c-18.4,0.3-35.8,8.1-42.8,28.1c-3.3,9.4-6.2,21.6-7.8,28.6c-0.1,0.3-0.2,0.8-0.3,1.2
		c4.9-0.8,13.7-4.6,22-21C214.2,185,218.6,199.5,243,211.4z"/>
	<path style="clip-path:url(#SVGID_2_);fill-rule:evenodd;clip-rule:evenodd;fill:#E5432E;" d="M291.9,195.4
		c-0.9-3.6-1.9-7.4-3-11.2c-7.1-9.3-21.8-24-44.7-23.8c-26.4,0.2-39.3,14.3-45.8,23.4c-0.9,3.5-1.8,7-2.6,10.4
		c6.2-6.5,22.7-20.6,48.4-20.5C267.1,173.9,283.4,187.5,291.9,195.4z"/>
	<g id="形状_3_拷贝_21_" style="clip-path:url(#SVGID_2_);">
		<g>
			<path style="fill-rule:evenodd;clip-rule:evenodd;fill:#E5432E;" d="M291.1,91.9c-0.8-1.3-1.8-1-2.6-0.6
				c-32,14.9-41.8,43.1-44.7,57.2c-4.1-17-15.7-43.2-44.9-57.5c-1.2-0.6-2.6-0.9-3.2,1.2c0,0-10.4,47.3,37.7,71.5
				c-9.9,7.6-20.5,17.4,10.2,4.6c33.3,14,19.6,2.6,10-4.5C301.7,139.5,291.1,91.9,291.1,91.9z"/>
		</g>
	</g>
	<g id="形状_73_21_" style="clip-path:url(#SVGID_2_);">
		<g>
			<path style="fill-rule:evenodd;clip-rule:evenodd;fill:#AD4023;" d="M242.1,142.9c0,0-2.1,4.9-1.8,10.9c0.3,7,2.1,10.4,2.2,7.7
				c0.1-1.9,0.9-9.1,1.4-12.9C244,147.3,242.1,142.9,242.1,142.9z"/>
		</g>
	</g>
	<g id="形状_82_21_" style="clip-path:url(#SVGID_2_);">
		<g>
			<path style="fill-rule:evenodd;clip-rule:evenodd;fill:#CA4825;" d="M264.1,164.4c-1.3-0.6-6.4-2.9-7.2-2.3
				c-4.5,2.8-9.2,7.6-2.7,6C258.8,167,265.5,165.1,264.1,164.4z M230.6,162.2c-1.7-0.5-7.5,2-7.5,2s2.2,1.2,4.9,1.9
				c2.7,0.7,8.5,2.9,8.1,1.2C235.6,165.7,233.2,163,230.6,162.2z"/>
		</g>
	</g>
	<path style="clip-path:url(#SVGID_2_);fill-rule:evenodd;clip-rule:evenodd;fill:#FFCE99;" d="M222.6,236.3
		c-5.4-13.4-13.8-16.3-19.5-15.3c-10.8,1.9-12.2,7.4-12.1,7.1s-0.2-9.7,8.9-12c8.3-2.1,16.7,1.3,20.3,7c3.3,5.2,3,13.1,3,13.1"/>
	<path style="clip-path:url(#SVGID_2_);fill-rule:evenodd;clip-rule:evenodd;fill:#FFCE99;" d="M264,236.3
		c5.4-13.4,13.8-16.3,19.5-15.3c10.8,1.9,12.2,7.4,12.1,7.1c-0.1-0.3,0.2-9.7-8.9-12c-8.3-2.1-16.7,1.3-20.3,7
		c-3.3,5.2-3,13.1-3,13.1"/>
	<g id="形状_4_43_" style="clip-path:url(#SVGID_2_);">
		<g>
			<path style="fill:#FFFFFF;" d="M209.7,222.1c-4.4-2-13.6-1.1-17.3,2c0,0-5.4,22.5,14.3,24.5c9.8,0.4,15.5-4.8,16.4-10.4
				C224.1,232.2,214.8,224.5,209.7,222.1z"/>
		</g>
	</g>
	<g id="形状_6_43_" style="clip-path:url(#SVGID_2_);">
		<g>
			<path style="fill-rule:evenodd;clip-rule:evenodd;fill:#512A15;" d="M219.3,227.3c0-0.1-5-6.9-11.7-8.5c-2.4-0.6-7.8,0.7-7.8,0.7
				s-8,6.5-2,17.6c3.5,5.8,9,8.3,13.9,7.7c6-0.7,9.5-4.9,9.9-9.6C222.1,230.6,219.3,227.3,219.3,227.3z"/>
		</g>
	</g>
	<g id="形状_48_21_" style="clip-path:url(#SVGID_2_);">
		<g>
			<path style="fill:#FFFFFF;" d="M203.3,235.7c-0.3-1.8-6.1-2-7.3,0.4c-0.9,1.8,0.1,3.9,1.5,4.2C200.4,241,203.7,238.3,203.3,235.7
				z"/>
		</g>
	</g>
	<g id="形状_36_副本_43_" style="clip-path:url(#SVGID_2_);">
		<g>
			<path style="fill-rule:evenodd;clip-rule:evenodd;fill:#A85726;" d="M216.9,209c-7.2-3.1-14.8-2.1-13.6,1c0.5,1.2,4.2-1,10.1,0.9
				c8.1,2.6,7.7,7.1,9.7,6.6C226.4,216.6,221,210.8,216.9,209z"/>
		</g>
	</g>
	<g id="形状_4_41_" style="clip-path:url(#SVGID_2_);">
		<g>
			<path style="fill:#FFFFFF;" d="M294.8,224.1c-3.6-3.1-12.7-3.7-17.3-2c-10.6,3.9-14.4,10.1-13.4,16.1c0.9,5.6,6.6,10.8,16.4,10.4
				C300.3,246.6,294.8,224.1,294.8,224.1z"/>
		</g>
	</g>
	<g id="形状_6_41_" style="clip-path:url(#SVGID_2_);">
		<g>
			<path style="fill-rule:evenodd;clip-rule:evenodd;fill:#512A15;" d="M287.9,220.7c0,0-4.5-1.2-6.9-0.6
				c-6.7,1.6-12.1,5.7-12.1,5.8c0,0-2,7.4-0.8,10.5c2.3,5.8,4.2,8.3,10.2,8.6c4.9,0.2,10.5-1.7,12.6-8.7
				C293.4,228,287.9,220.7,287.9,220.7z"/>
		</g>
	</g>
	<g id="形状_48_副本_21_" style="clip-path:url(#SVGID_2_);">
		<g>
			<path style="fill:#FFFFFF;" d="M273.8,236.4c-1.3-2.4-6.6,0.5-6.9,2.3c-0.4,3,1.1,3.7,3.4,3.1
				C272.9,241.2,275.1,238.7,273.8,236.4z"/>
		</g>
	</g>
	<g id="形状_36_副本_41_" style="clip-path:url(#SVGID_2_);">
		<g>
			<path style="fill-rule:evenodd;clip-rule:evenodd;fill:#A85726;" d="M270.5,208.9c-4.1,1.7-9.5,6.5-7.2,8.1
				c2.2,1.5,3.6-3.6,9.3-5.5c7.2-2.4,12.3,0.3,12.7-1.6C285.8,207.3,277.8,206,270.5,208.9z"/>
		</g>
	</g>
	<g id="Shape_2_43_" style="clip-path:url(#SVGID_2_);">
		<g>
			<path style="fill-rule:evenodd;clip-rule:evenodd;fill:#9C6342;" d="M292.5,243.6c2-3,2.3-6,1.7-4.9c-1.3,2.6-3,5.7-7,7.5
				c-3.7,1.7-8.2,1.8-11.2,1.9c-2.7,0,5.4,2,11.2-0.2c0.4,0.1,1,0.4,1.7,0.7c0.8,0.4,2.2,1.4,2.1,0.8c-0.1-1-0.6-2.2-1.4-2.9
				c0.6-0.4,1.1-0.9,1.6-1.3c0.2,0,0.5,0.1,0.9,0.1c1.2,0.2,2.4,1.6,2.4,0.9C294.4,245.5,293.7,244.3,292.5,243.6z"/>
		</g>
	</g>
	<g id="形状_65_副本_43_" style="clip-path:url(#SVGID_2_);">
		<g>
			<path style="fill-rule:evenodd;clip-rule:evenodd;fill:#713D1F;" d="M302.4,221.6c-0.3,0.6-1.6,1.8-2.9,2.4
				c-1.1,0.5-2.8,0.9-4.4,0.5c0-0.1-0.1-0.2-0.1-0.3c-1.1-2.1-4.5-4.5-7.8-5.2c-5.4-1.1-10-0.4-13.9,1.4c-5.2,2.4-8.8,7.1-9.8,13.4
				c-0.5,2.7,0.2,4.3,1,1.9c1.9-5.7,3.9-8.8,9.1-11.6c4.1-2.2,9.2-3.8,16.6-0.2c2.5,1.2,4,3.8,4.4,5.6c0.2,0.6,0.8,2.8,1,1.4
				c0.1-0.7,0.2-1.4,0.2-2.1c0.5,0,1.4,0,2.7-0.5c1.1-0.4,2.8-1.7,3.6-3.2C303.1,223.2,303.1,220.4,302.4,221.6z"/>
		</g>
	</g>
	<g id="Shape_2_41_" style="clip-path:url(#SVGID_2_);">
		<g>
			<path style="fill-rule:evenodd;clip-rule:evenodd;fill:#9C6342;" d="M211,248.1c-3,0-7.5-0.1-11.2-1.9c-4-1.9-5.7-4.9-7-7.5
				c-0.6-1.1-0.3,1.9,1.7,4.9c-1.2,0.7-1.9,1.9-1.9,2.6c0,0.8,1.2-0.7,2.4-0.9c0.4-0.1,0.7-0.1,0.9-0.1c0.5,0.5,1,0.9,1.6,1.3
				c-0.8,0.7-1.3,1.9-1.4,2.9c-0.1,0.5,1.4-0.4,2.1-0.8c0.6-0.3,1.3-0.6,1.7-0.7C205.6,250.1,213.7,248.2,211,248.1z"/>
		</g>
	</g>
	<g id="形状_65_副本_41_" style="clip-path:url(#SVGID_2_);">
		<g>
			<path style="fill-rule:evenodd;clip-rule:evenodd;fill:#713D1F;" d="M223.1,233.8c-1.1-6.3-4.6-11-9.8-13.4
				c-3.9-1.8-8.5-2.5-13.9-1.4c-3,0.6-6,2.6-7.1,4.2c-0.2,0.3-0.4,0.8-0.6,1.2c0,0,0,0,0,0c-1.6,0.6-3.4,0.2-4.6-0.4
				c-1.3-0.6-2.6-1.8-2.9-2.4c-0.6-1.2-0.6,1.6,0.3,3.4c0.8,1.5,2.5,2.8,3.6,3.2c1.4,0.6,2.3,0.6,2.8,0.5c0,0.8,0,1.6,0.1,2.1
				c0.2,1.4,0.9-0.2,1.1-0.8c0.9-2.7,1.8-5,4.4-6.2c7.5-3.7,12.5-2,16.6,0.2c5.2,2.8,7.1,6.3,9.1,11.6
				C223,238,223.6,236.5,223.1,233.8z"/>
		</g>
	</g>
	<g id="腮红2_21_" style="clip-path:url(#SVGID_2_);">
		<g>
			<path style="fill-rule:evenodd;clip-rule:evenodd;fill:#FFA083;" d="M209.2,254.9c-7.8-0.8-11.3,1.8-11.2,4.2
				c0,2,2.9,5.9,10.1,6.3c9.1,0.5,11.7-2.5,11.8-4C220,259.8,218.8,255.9,209.2,254.9z"/>
		</g>
	</g>
	<g id="腮红2_副本_21_" style="clip-path:url(#SVGID_2_);">
		<g>
			<path style="fill-rule:evenodd;clip-rule:evenodd;fill:#FFA083;" d="M278,254.9c-9.6,1-10.8,4.8-10.7,6.5c0.1,1.5,2.8,4.5,11.8,4
				c7.2-0.4,10-4.3,10.1-6.3C289.3,256.7,285.8,254.1,278,254.9z"/>
		</g>
	</g>
	<path style="clip-path:url(#SVGID_2_);fill-rule:evenodd;clip-rule:evenodd;fill:#512A15;" d="M242.9,296.8
		c-4.9,0-12.8-4.5-12.2-9.5c0.5-3.9,4.5-5.3,12.2-5.3c7.8,0,11.9,1.3,12.3,5.3C255.7,291.8,249.1,296.8,242.9,296.8z"/>
	<g id="形状_20_21_" style="clip-path:url(#SVGID_2_);">
		<g>
			<path style="fill:#FCEACB;" d="M224.7,385c-14.8-11.5-33.1-4.1-33.1-1.2c1.2,31.2,31,28.1,31,28.1c10.4-1.2,11.6-8.4,11.6-8.4
				S234.5,392.7,224.7,385z"/>
		</g>
	</g>
	<g id="形状_21_21_" style="clip-path:url(#SVGID_2_);">
		<g>
			<path style="fill:#FFBD99;" d="M229.7,402.1c-2.1-10.7-24-14.2-23.7-9.8c1.1,17.4,20.5,15.9,20.5,15.9S230.5,407.6,229.7,402.1z"
				/>
		</g>
	</g>
	<g id="形状_20_拷贝_21_" style="clip-path:url(#SVGID_2_);">
		<g>
			<path style="fill:#FCEACB;" d="M260.3,386.3c-10.2,9.2-7.2,20.4-7.2,20.4s0.8,4.1,11.2,5.3c0,0,29.8,3.1,31-28.1
				C295.4,381,276.5,371.7,260.3,386.3z"/>
		</g>
	</g>
	<g id="形状_21_拷贝_21_" style="clip-path:url(#SVGID_2_);">
		<g>
			<path style="fill-rule:evenodd;clip-rule:evenodd;fill:#FFBD99;" d="M257.1,402.2c-0.7,5.5,3.2,6.1,3.2,6.1s19.5,1.5,20.6-15.9
				C281.2,388,259.2,391.5,257.1,402.2z"/>
		</g>
	</g>
	<g id="形状_23_21_" style="opacity:0.4;clip-path:url(#SVGID_2_);">
		<g>
			<path style="fill-rule:evenodd;clip-rule:evenodd;fill:#DD7528;" d="M265.6,446.7c-12-2.2-44.7-4.4-48.3,3.8
				c-3.6,8.1-11.9,4.1-10.1,27.3c0,0,2.8,14.7,14.4,11.8c3.5-1.4,4.9-6.1,4.8-11.1c0-4.9,2-5.1,6.4-5c10,0.3,15.4,1,22.3-3.2
				c3.8-2.3,6.2,3.1,5.6,9c-0.7,6.8,0.7,9.7,6.2,10.9c5.1,1.1,9.3-1.2,10.7-6.4c1.6-5.5,2-11.5,2-11.5S277.6,448.9,265.6,446.7z"/>
		</g>
	</g>
	<path style="clip-path:url(#SVGID_2_);fill-rule:evenodd;clip-rule:evenodd;fill:#FCEBCE;" d="M267.8,430.7c0,0,13.3,9.1,12.5,38.7
		c-0.3,10.1-5.2,15.3-10.5,14.9c-5.3-0.3-5.8-6-5-12c0.3-2.4,1-10-1.8-20.5C260.2,441.1,267.8,430.7,267.8,430.7z"/>
	<path style="clip-path:url(#SVGID_2_);fill-rule:evenodd;clip-rule:evenodd;fill:#FCEBCE;" d="M216.1,434.3c0,0-10.5,10.2-9.6,34.4
		c0.3,10.1,5.2,15.9,10.5,15.6c5.3-0.3,5.5-4.6,5.2-9.3c-0.3-4.1-1.1-10.9,1.7-21.5C226.6,442.9,216.1,434.3,216.1,434.3z"/>
	<path style="clip-path:url(#SVGID_2_);fill-rule:evenodd;clip-rule:evenodd;fill:#F6BF96;" d="M268.8,477.1
		c-0.1,2.1-0.5,5.3-1.1,6.7c0.3,0.1,0.5,0.2,0.8,0.3c0.3-0.9,0.6-2.2,0.8-3.5C269.8,477.3,269,473.9,268.8,477.1z"/>
	<path style="clip-path:url(#SVGID_2_);fill-rule:evenodd;clip-rule:evenodd;fill:#F6BF96;" d="M273.1,477.1c0,1.4,0,4.9-0.9,6.9
		c0.4-0.1,0.9-0.2,1.3-0.4c0.4-1,0.5-2.6,0.6-3.8C274.1,477.3,273.1,475.2,273.1,477.1z"/>
	<path style="clip-path:url(#SVGID_2_);fill-rule:evenodd;clip-rule:evenodd;fill:#F6BF96;" d="M218.7,480.5
		c-0.5-1.8-1.3-5.7-1.4-4.6c-0.2,1.9,0.2,4.6,0.9,6.7c0.2,0.5,0.4,1,0.6,1.4c0.5-0.2,0.9-0.3,1.2-0.6
		C219.5,482.5,219.1,481.7,218.7,480.5z"/>
	<path style="clip-path:url(#SVGID_2_);fill-rule:evenodd;clip-rule:evenodd;fill:#F6BF96;" d="M214.7,481.1c-1.1-3.2-1.2-6.3-1.4-4
		c-0.3,2.7,0.5,4.8,1.4,6.7c0.1,0.1,0.2,0.3,0.3,0.4c0.4,0.1,0.8,0.1,1.1,0.1C215.6,483.4,215.1,482.3,214.7,481.1z"/>
	<g id="脸_41_" style="clip-path:url(#SVGID_2_);">
		<g>
			<path style="fill:#FCEBCE;" d="M269.7,421.9c-5.1-18.3-17.3-23-26.3-22.9c-9-0.2-22.5,4.5-26.7,22.5c-1,6.3-4.3,11.2-3.2,19.1
				c1.1,7.9,3.7,11.7,14.8,19.1c2.3,1.7,4,1.7,6.7,3.8c2.7,2,5.7,2.9,11,2.3c0.1,0,0.2,0,0.2-0.1c2.1-0.4,3.8-1.1,5.3-2.3
				c2.7-2,4.4-2,6.6-3.8c11-7.4,13.6-11.2,14.7-19.1C274,432.7,270.7,425.5,269.7,421.9z"/>
		</g>
	</g>
	<g id="形状_77_21_" style="clip-path:url(#SVGID_2_);">
		<g>
			<path style="fill-rule:evenodd;clip-rule:evenodd;fill:#FFBD99;" d="M221.5,444.8c-2.4-0.2-4.4,0.7-4.5,2.1
				c-0.1,1.3,1.7,2.6,4.1,2.8c2.4,0.2,4.4-0.7,4.5-2.1C225.7,446.3,223.9,445,221.5,444.8z"/>
		</g>
	</g>
	<g id="形状_77_副本_21_" style="clip-path:url(#SVGID_2_);">
		<g>
			<path style="fill:#FFBD99;" d="M264,444.8c-2.4,0.1-4.3,1.2-4.2,2.6c0,1.4,2,2.4,4.4,2.3c2.4-0.1,4.3-1.2,4.2-2.6
				C268.4,445.8,266.4,444.7,264,444.8z"/>
		</g>
	</g>
	<path style="clip-path:url(#SVGID_2_);fill:#F7CC9D;" d="M227,413.4c1,3.7,2.9,4.4,5.3,4.8c2.9,0.4,4.6-2.3,5.5-3.5
		c0,0,1.9,3.7,4.7,4.6c2.9,0.9,4.9-0.1,6-2c0.6-1.2,0.5-3.1,0.5-3.1s2.4,2.6,6,1.6c2.2-0.6,2.3-2.4,2.5-3.7c0.2-1.3-0.3-2.5-0.3-2.5
		s2.5,2.6,1.8,5.7c-0.5,2.2-2.3,3.7-4.7,3.4c-1.7-0.2-4.2-1.9-4.2-1.9s-0.2,2.8-2.1,4.2c-2,1.4-4.8,1.2-6.6,0.2
		c-1.8-1.1-3.4-3.6-3.4-3.6s-1,2.4-3.6,3.5c-1.5,0.7-4.4,0.8-6.1-1.8C226.2,416.7,227,413.4,227,413.4z"/>
	<g id="形状_75_21_" style="clip-path:url(#SVGID_2_);">
		<g>
			<path style="fill-rule:evenodd;clip-rule:evenodd;fill:#552F19;" d="M222.2,437.4c-4.5-0.4-5.8,0-5.5,0.9
				c0.2,0.7,1.2-0.2,5.3,0.7c6.8,1.4,9.7,6,10.5,4C233.3,441,227.6,437.9,222.2,437.4z"/>
		</g>
	</g>
	<g id="形状_75_副本_21_" style="clip-path:url(#SVGID_2_);">
		<g>
			<path style="fill-rule:evenodd;clip-rule:evenodd;fill:#713D1F;" d="M264.5,437.4c-5.4,0.5-11.1,3.6-10.3,5.7
				c0.7,1.9,3.7-2.6,10.5-4c4.2-0.9,5.1,0,5.3-0.7C270.3,437.4,269,437,264.5,437.4z"/>
		</g>
	</g>
	<g id="形状_19_21_" style="clip-path:url(#SVGID_2_);">
		<g>
			<path style="fill:#57301B;" d="M243,458.2c-8.6-0.1-7.8,2.6-7.8,2.6s1.5,5.4,8.1,5.2c6.6-0.2,7.8-5.2,7.8-5.2
				S251.6,458.3,243,458.2z"/>
		</g>
	</g>
</g>
<g>
	<path style="fill:#666666;" d="M31.9,175.6c0.5,0,0.9,0.1,1.3,0.2c0.4,0.1,0.7,0.3,1,0.6s0.5,0.6,0.6,0.9c0.1,0.4,0.2,0.8,0.2,1.2
		c0,0.5-0.1,0.9-0.2,1.2c-0.1,0.4-0.4,0.7-0.6,0.9s-0.6,0.4-1,0.6c-0.4,0.1-0.8,0.2-1.3,0.2h-3.6v4.4h-1v-10.3H31.9z M31.7,180.6
		c0.7,0,1.2-0.2,1.7-0.5c0.4-0.3,0.6-0.9,0.6-1.6c0-0.7-0.2-1.2-0.6-1.6c-0.4-0.3-1-0.5-1.7-0.5h-3.4v4.2H31.7z"/>
	<path style="fill:#666666;" d="M37,178.4v1.7h0c0.2-0.6,0.6-1.1,1.1-1.4c0.5-0.3,1.1-0.5,1.7-0.4v0.9c-0.4,0-0.8,0-1.1,0.2
		c-0.3,0.1-0.6,0.3-0.9,0.6c-0.2,0.2-0.4,0.5-0.6,0.9c-0.1,0.3-0.2,0.7-0.2,1.1v4h-0.9v-7.4H37z"/>
	<path style="fill:#666666;" d="M45.4,178.5c0.4,0.2,0.8,0.5,1.1,0.8c0.3,0.4,0.5,0.8,0.7,1.2s0.2,1,0.2,1.5c0,0.5-0.1,1-0.2,1.5
		c-0.2,0.5-0.4,0.9-0.7,1.2c-0.3,0.4-0.7,0.6-1.1,0.8c-0.4,0.2-0.9,0.3-1.5,0.3s-1.1-0.1-1.5-0.3c-0.4-0.2-0.8-0.5-1.1-0.8
		c-0.3-0.4-0.5-0.8-0.7-1.2c-0.2-0.5-0.2-1-0.2-1.5c0-0.5,0.1-1,0.2-1.5s0.4-0.9,0.7-1.2c0.3-0.4,0.7-0.6,1.1-0.8
		c0.4-0.2,0.9-0.3,1.5-0.3S44.9,178.3,45.4,178.5z M42.7,179.3c-0.3,0.2-0.6,0.4-0.8,0.7c-0.2,0.3-0.4,0.6-0.5,1
		c-0.1,0.4-0.2,0.8-0.2,1.2c0,0.4,0.1,0.8,0.2,1.2c0.1,0.4,0.3,0.7,0.5,1c0.2,0.3,0.5,0.5,0.8,0.7c0.3,0.2,0.7,0.3,1.1,0.3
		c0.4,0,0.8-0.1,1.1-0.3c0.3-0.2,0.6-0.4,0.8-0.7c0.2-0.3,0.4-0.6,0.5-1c0.1-0.4,0.2-0.8,0.2-1.2c0-0.4-0.1-0.8-0.2-1.2
		c-0.1-0.4-0.3-0.7-0.5-1c-0.2-0.3-0.5-0.5-0.8-0.7c-0.3-0.2-0.7-0.3-1.1-0.3C43.4,179,43.1,179.1,42.7,179.3z"/>
	<path style="fill:#666666;" d="M54.4,185.9v-1.4h0c-0.1,0.2-0.2,0.5-0.4,0.7c-0.2,0.2-0.4,0.4-0.6,0.5c-0.2,0.1-0.5,0.2-0.8,0.3
		c-0.3,0.1-0.5,0.1-0.8,0.1c-0.6,0-1.1-0.1-1.5-0.3c-0.4-0.2-0.8-0.5-1-0.8s-0.5-0.8-0.6-1.3c-0.1-0.5-0.2-1-0.2-1.5
		c0-0.5,0.1-1,0.2-1.5c0.1-0.5,0.3-0.9,0.6-1.3c0.3-0.4,0.6-0.6,1-0.9c0.4-0.2,0.9-0.3,1.5-0.3c0.3,0,0.5,0,0.8,0.1
		c0.3,0.1,0.5,0.2,0.7,0.3s0.4,0.3,0.6,0.5c0.2,0.2,0.3,0.4,0.4,0.7h0v-4.3h0.9v10.3H54.4z M49.5,183.3c0.1,0.4,0.2,0.7,0.4,1
		c0.2,0.3,0.4,0.5,0.8,0.7c0.3,0.2,0.7,0.3,1.1,0.3c0.5,0,0.9-0.1,1.2-0.3c0.3-0.2,0.6-0.4,0.8-0.7c0.2-0.3,0.4-0.6,0.4-1
		s0.1-0.8,0.1-1.1c0-0.4,0-0.8-0.1-1.1s-0.2-0.7-0.4-1c-0.2-0.3-0.5-0.5-0.8-0.7c-0.3-0.2-0.7-0.3-1.2-0.3c-0.4,0-0.8,0.1-1.1,0.3
		c-0.3,0.2-0.6,0.4-0.8,0.7c-0.2,0.3-0.3,0.6-0.4,1c-0.1,0.4-0.1,0.8-0.1,1.1C49.3,182.5,49.4,182.9,49.5,183.3z"/>
	<path style="fill:#666666;" d="M62.2,185.9v-1.3h0c-0.2,0.5-0.6,0.9-1,1.1c-0.5,0.3-1,0.4-1.5,0.4c-0.5,0-0.9-0.1-1.2-0.2
		c-0.3-0.1-0.6-0.3-0.8-0.6c-0.2-0.2-0.4-0.5-0.5-0.9c-0.1-0.3-0.1-0.7-0.1-1.2v-4.8h0.9v4.8c0,0.7,0.2,1.2,0.5,1.5
		c0.3,0.3,0.8,0.5,1.5,0.5c0.4,0,0.7-0.1,1-0.3s0.5-0.4,0.7-0.7c0.2-0.3,0.3-0.6,0.4-1c0.1-0.4,0.1-0.7,0.1-1.1v-3.9H63v7.4H62.2z"
		/>
	<path style="fill:#666666;" d="M69.3,179.5c-0.3-0.3-0.8-0.5-1.4-0.5c-0.4,0-0.8,0.1-1.1,0.3c-0.3,0.2-0.6,0.4-0.8,0.7
		c-0.2,0.3-0.4,0.6-0.5,1c-0.1,0.4-0.2,0.8-0.2,1.2c0,0.4,0.1,0.8,0.2,1.2c0.1,0.4,0.3,0.7,0.5,1c0.2,0.3,0.5,0.5,0.8,0.7
		c0.3,0.2,0.7,0.3,1.1,0.3c0.3,0,0.5-0.1,0.8-0.2c0.2-0.1,0.5-0.3,0.7-0.4c0.2-0.2,0.3-0.4,0.5-0.7s0.2-0.5,0.2-0.8h0.9
		c-0.1,0.9-0.5,1.6-1,2.1c-0.5,0.5-1.2,0.8-2.1,0.8c-0.6,0-1.1-0.1-1.5-0.3c-0.4-0.2-0.8-0.5-1.1-0.8c-0.3-0.4-0.5-0.8-0.7-1.2
		c-0.2-0.5-0.2-1-0.2-1.5c0-0.5,0.1-1,0.2-1.5s0.4-0.9,0.7-1.2c0.3-0.4,0.7-0.6,1.1-0.8c0.4-0.2,0.9-0.3,1.5-0.3
		c0.8,0,1.5,0.2,2,0.6s0.9,1.1,1,1.9H70C69.9,180.2,69.6,179.8,69.3,179.5z"/>
	<path style="fill:#666666;" d="M75.2,178.4v0.8h-1.5v5c0,0.3,0,0.5,0.1,0.7c0.1,0.2,0.3,0.3,0.6,0.3c0.3,0,0.5,0,0.8,0v0.8
		c-0.1,0-0.3,0-0.4,0c-0.1,0-0.3,0-0.4,0c-0.6,0-1-0.1-1.3-0.4s-0.4-0.7-0.3-1.3v-5.1h-1.3v-0.8h1.3v-2.2h0.9v2.2H75.2z"/>
	<path style="fill:#666666;" d="M84.2,175.6c1.6,0,2.7,0.5,3.5,1.3s1.2,2.1,1.2,3.8c0,1.7-0.4,3-1.2,3.8c-0.8,0.8-2,1.3-3.5,1.3
		h-3.6v-10.3H84.2z M83.7,185c0.7,0,1.4-0.1,1.9-0.2c0.5-0.2,1-0.4,1.3-0.8c0.3-0.3,0.6-0.8,0.8-1.3s0.2-1.2,0.2-2s-0.1-1.4-0.2-2
		c-0.2-0.5-0.4-1-0.8-1.3c-0.3-0.3-0.8-0.6-1.3-0.8c-0.5-0.2-1.2-0.2-1.9-0.2h-2.1v8.6H83.7z"/>
	<path style="fill:#666666;" d="M91.3,175.6v1.5h-0.9v-1.5H91.3z M91.3,178.4v7.4h-0.9v-7.4H91.3z"/>
	<path style="fill:#666666;" d="M93.8,178.4v1.7h0c0.2-0.6,0.6-1.1,1.1-1.4c0.5-0.3,1.1-0.5,1.7-0.4v0.9c-0.4,0-0.8,0-1.1,0.2
		c-0.3,0.1-0.6,0.3-0.9,0.6c-0.2,0.2-0.4,0.5-0.6,0.9c-0.1,0.3-0.2,0.7-0.2,1.1v4H93v-7.4H93.8z"/>
	<path style="fill:#666666;" d="M98.2,183.4c0.1,0.4,0.2,0.7,0.4,0.9c0.2,0.3,0.5,0.5,0.8,0.7c0.3,0.2,0.7,0.3,1.1,0.3
		c0.7,0,1.2-0.2,1.6-0.5c0.4-0.3,0.6-0.8,0.8-1.4h0.9c-0.2,0.8-0.5,1.5-1.1,2c-0.5,0.5-1.2,0.7-2.2,0.7c-0.6,0-1.1-0.1-1.5-0.3
		c-0.4-0.2-0.8-0.5-1-0.8s-0.5-0.8-0.6-1.3c-0.1-0.5-0.2-1-0.2-1.5c0-0.5,0.1-1,0.2-1.4c0.1-0.5,0.3-0.9,0.6-1.3s0.6-0.7,1-0.9
		c0.4-0.2,0.9-0.3,1.5-0.3c0.6,0,1.1,0.1,1.5,0.4c0.4,0.2,0.8,0.6,1,0.9c0.3,0.4,0.5,0.8,0.6,1.3s0.2,1,0.1,1.5h-5.7
		C98.1,182.7,98.1,183.1,98.2,183.4z M102.7,180.6c-0.1-0.3-0.3-0.6-0.5-0.8c-0.2-0.2-0.4-0.4-0.7-0.6c-0.3-0.1-0.6-0.2-1-0.2
		c-0.4,0-0.7,0.1-1,0.2c-0.3,0.1-0.5,0.3-0.7,0.6c-0.2,0.2-0.4,0.5-0.5,0.8c-0.1,0.3-0.2,0.7-0.2,1h4.8
		C102.9,181.3,102.8,181,102.7,180.6z"/>
	<path style="fill:#666666;" d="M109.6,179.5c-0.3-0.3-0.8-0.5-1.4-0.5c-0.4,0-0.8,0.1-1.1,0.3c-0.3,0.2-0.6,0.4-0.8,0.7
		c-0.2,0.3-0.4,0.6-0.5,1c-0.1,0.4-0.2,0.8-0.2,1.2c0,0.4,0.1,0.8,0.2,1.2c0.1,0.4,0.3,0.7,0.5,1c0.2,0.3,0.5,0.5,0.8,0.7
		c0.3,0.2,0.7,0.3,1.1,0.3c0.3,0,0.5-0.1,0.8-0.2c0.2-0.1,0.5-0.3,0.7-0.4c0.2-0.2,0.3-0.4,0.5-0.7s0.2-0.5,0.2-0.8h0.9
		c-0.1,0.9-0.5,1.6-1,2.1c-0.5,0.5-1.2,0.8-2.1,0.8c-0.6,0-1.1-0.1-1.5-0.3c-0.4-0.2-0.8-0.5-1.1-0.8c-0.3-0.4-0.5-0.8-0.7-1.2
		c-0.2-0.5-0.2-1-0.2-1.5c0-0.5,0.1-1,0.2-1.5s0.4-0.9,0.7-1.2c0.3-0.4,0.7-0.6,1.1-0.8c0.4-0.2,0.9-0.3,1.5-0.3
		c0.8,0,1.5,0.2,2,0.6s0.9,1.1,1,1.9h-0.9C110.1,180.2,109.9,179.8,109.6,179.5z"/>
	<path style="fill:#666666;" d="M115.4,178.4v0.8h-1.5v5c0,0.3,0,0.5,0.1,0.7c0.1,0.2,0.3,0.3,0.6,0.3c0.3,0,0.5,0,0.8,0v0.8
		c-0.1,0-0.3,0-0.4,0c-0.1,0-0.3,0-0.4,0c-0.6,0-1-0.1-1.3-0.4s-0.4-0.7-0.3-1.3v-5.1h-1.3v-0.8h1.3v-2.2h0.9v2.2H115.4z"/>
	<path style="fill:#666666;" d="M121.4,178.5c0.4,0.2,0.8,0.5,1.1,0.8c0.3,0.4,0.5,0.8,0.7,1.2s0.2,1,0.2,1.5c0,0.5-0.1,1-0.2,1.5
		c-0.2,0.5-0.4,0.9-0.7,1.2c-0.3,0.4-0.7,0.6-1.1,0.8c-0.4,0.2-0.9,0.3-1.5,0.3s-1.1-0.1-1.5-0.3c-0.4-0.2-0.8-0.5-1.1-0.8
		c-0.3-0.4-0.5-0.8-0.7-1.2c-0.2-0.5-0.2-1-0.2-1.5c0-0.5,0.1-1,0.2-1.5s0.4-0.9,0.7-1.2c0.3-0.4,0.7-0.6,1.1-0.8
		c0.4-0.2,0.9-0.3,1.5-0.3S121,178.3,121.4,178.5z M118.8,179.3c-0.3,0.2-0.6,0.4-0.8,0.7c-0.2,0.3-0.4,0.6-0.5,1
		c-0.1,0.4-0.2,0.8-0.2,1.2c0,0.4,0.1,0.8,0.2,1.2c0.1,0.4,0.3,0.7,0.5,1c0.2,0.3,0.5,0.5,0.8,0.7c0.3,0.2,0.7,0.3,1.1,0.3
		c0.4,0,0.8-0.1,1.1-0.3c0.3-0.2,0.6-0.4,0.8-0.7c0.2-0.3,0.4-0.6,0.5-1c0.1-0.4,0.2-0.8,0.2-1.2c0-0.4-0.1-0.8-0.2-1.2
		c-0.1-0.4-0.3-0.7-0.5-1c-0.2-0.3-0.5-0.5-0.8-0.7c-0.3-0.2-0.7-0.3-1.1-0.3C119.5,179,119.1,179.1,118.8,179.3z"/>
	<path style="fill:#666666;" d="M125.6,178.4v1.7h0c0.2-0.6,0.6-1.1,1.1-1.4c0.5-0.3,1.1-0.5,1.7-0.4v0.9c-0.4,0-0.8,0-1.1,0.2
		c-0.3,0.1-0.6,0.3-0.9,0.6c-0.2,0.2-0.4,0.5-0.6,0.9c-0.1,0.3-0.2,0.7-0.2,1.1v4h-0.9v-7.4H125.6z"/>
</g>
<g>
	<path style="fill:#666666;" d="M26,36.9c5-0.3,9.3-0.6,13-0.9l0.9,5.4c-1.3,0.2-2.7,0.3-4.2,0.3v3.9h3.7v5.7h-3.7v2.6
		c1.9,1,3.5,2,5,2.9l-2.5,4.9c-0.2-0.1-0.5-0.3-0.8-0.6c-0.2-0.3-0.8-0.8-1.7-1.4v12.1h-5.6V61.5c-0.9,1.9-1.9,3.4-2.8,4.6
		c-0.1-0.5-0.3-1.2-0.6-2.2c-0.5-2-0.9-3.4-1.2-4.3c2-2.8,3.5-5.6,4.7-8.4H26v-5.7h4.2V42c-1.2,0.1-2.4,0.2-3.6,0.2L26,36.9z
		 M40.6,58.9h7.6v-2.5h-8.1v-4.9h22.3v4.9h-8.4v2.5h7.6v4.8h-7.6v2.6h9.2v4.5H38.6v-4.5h9.6v-2.6h-7.6V58.9z M40.9,49.5V36.6h20.5
		v12.8H40.9z M55.7,44.7v-3.2h-8.8v3.2H55.7z"/>
	<path style="fill:#666666;" d="M76.9,56.4h-6.2v-7.9c-1,1-2.2,2-3.4,2.9c-0.2-0.8-0.6-2.3-1.2-4.5c-0.3-1.1-0.5-2-0.6-2.5
		c3.8-2.7,6.9-5.9,9.3-9.6l6.1,2c-0.7,1.2-1.9,2.9-3.6,4.9c-0.1,0.1-0.2,0.2-0.3,0.3V56.4z M65.6,58.6H81v-2.6h6.4v2.6h15.5v5.9
		H87.3v7.4H81v-7.4H65.6V58.6z M97,44.7c2.4,0.8,4.3,1.5,5.9,2c-0.2,1.1-0.5,2.7-0.9,4.8c-0.1,0.2-0.2,0.4-0.2,0.5
		c-0.6,2.6-2.7,3.8-6.2,3.7h-6.7c-3.7,0.1-5.5-1.7-5.3-5.4c-1.5,0.6-2.9,1.1-4.5,1.5c-0.6-1.9-1.3-3.6-2-5.3
		c0.5-0.2,1.3-0.5,2.3-0.8c0.8-0.2,2.2-0.7,4.2-1.4v-8.8h6.2v6.3c3.4-1.8,6.3-3.5,8.7-5.1l3.7,4.3c-3.9,2.5-8.1,4.7-12.4,6.7v0.9
		c-0.1,1.3,0.5,2,1.9,1.9h2.6c1.2,0,1.9-0.6,2-1.7C96.4,48.3,96.6,46.9,97,44.7z"/>
	<path style="fill:#666666;" d="M111.1,44.2l4,3.4c-0.7,0.7-0.9,1-0.6,0.8c-2.6,2.7-4.7,4.8-6.2,6.3l-3.7-3.9
		C106.9,48.8,109.1,46.6,111.1,44.2z M105.8,57h10.4c-1.4-1.1-3.1-2.3-4.8-3.4c3.3-2.7,5-5.5,5-8.5c0-0.5,0-1,0-1.4h-10.2v-5.3h14.7
		c-0.3-1.2-0.6-2.3-0.9-3.1l7.3-0.5c0.2,1.3,0.5,2.5,0.8,3.6h13.8v5.3h-9.6v4.2l3.6-3.2c3.3,2.9,5.7,5.1,7.3,6.7l-4.2,3.9
		c-2.3-2.3-4.5-4.5-6.7-6.8v0.8c0.1,3.2-1.4,4.9-4.5,5.1c-1.6,0-3.2,0-4.8,0c-0.3-1.5-0.7-3.2-1.1-4.9c1,0,2,0,2.9,0
		c1,0,1.6-0.6,1.6-1.7v-3.9h-4c0,0.7-0.1,1.3-0.2,1.7C122,50,120,53.8,116.2,57h4.3c0-0.2,0.1-0.5,0.2-0.9c0-0.4,0-0.7,0-0.9h6.5
		c0,0.2-0.1,0.5-0.2,0.9c0,0.4-0.1,0.7-0.2,0.9h15.2v5.3h-13.3c1.9,2.1,6.5,3.4,14,4c-0.9,1.8-1.8,3.6-2.6,5.6
		c-7.8-1.2-13-3.4-15.8-6.5c-2.1,2.9-7.6,5.2-16.6,6.8c-0.2-0.5-0.6-1.3-1.2-2.5c-0.6-1.3-1.1-2.3-1.4-2.8c8.4-1,13.1-2.6,14.1-4.6
		h-13.3V57z"/>
</g>
<g>
	<path style="fill:#666666;" d="M29.9,225.5c0,1-0.3,1.5-1,1.6c-0.3,0-0.6,0-1,0c0,0,0-0.1,0-0.1c0-0.3-0.1-0.6-0.1-0.7
		c0.1,0,0.2,0,0.3,0c0.3,0,0.4,0,0.5,0c0.4,0,0.5-0.3,0.5-0.8c0-0.8-0.3-1.6-1-2.4c0.2-0.6,0.5-1.6,0.8-2.9h-1.3v8.6h-0.8v-9.4h2.9
		v0.7c-0.5,1.5-0.8,2.4-0.9,2.8C29.6,223.9,29.9,224.7,29.9,225.5z M30.3,219.6h6.3v0.8h-0.9v6.8c0.1,1-0.4,1.5-1.4,1.5
		c-0.3,0-0.8,0-1.5,0c0-0.1-0.1-0.3-0.1-0.5c-0.1-0.2-0.1-0.3-0.1-0.3c0.4,0,0.9,0,1.5,0c0.6,0,0.8-0.2,0.8-0.7v-6.8h-4.6V219.6z
		 M30.6,221.7h3.1v4.4h-3.1V221.7z M31.4,222.5v3H33v-3H31.4z"/>
	<path style="fill:#666666;" d="M37.8,225.6h4v-1.2h-3.7v-5h8.1v5h-3.7v1.2h4.1v0.7h-4.1v1.3h4.7v0.7H37.2v-0.7h4.7v-1.3h-4V225.6z
		 M39,220.1v1.5h2.9v-1.5H39z M39,222.3v1.5h2.9v-1.5H39z M45.6,220.1h-2.9v1.5h2.9V220.1z M42.7,222.3v1.5h2.9v-1.5H42.7z"/>
	<path style="fill:#666666;" d="M52.1,227.3l-0.6,0.5c-0.2-0.1-0.4-0.3-0.7-0.7c-0.1-0.1-0.3-0.3-0.3-0.3c-0.4,0.6-1,1.3-1.9,2
		c-0.1-0.2-0.3-0.5-0.5-0.7c0.7-0.5,1.3-1.1,1.9-1.9c-0.2-0.1-0.4-0.4-0.7-0.7c-0.3-0.3-0.5-0.5-0.7-0.7c0.2-0.6,0.4-1.6,0.7-3.1
		h-0.9v-0.7h1c0.1-0.4,0.1-1,0.3-1.8c0-0.2,0-0.3,0-0.4l0.8,0.1c0,0.3-0.1,0.7-0.2,1.3c-0.1,0.4-0.1,0.6-0.1,0.8h1.8v0.7
		c-0.2,1.9-0.5,3.3-1,4.2C51.2,226.4,51.7,226.8,52.1,227.3z M51.1,221.8h-1.2c-0.2,1.1-0.4,2-0.6,2.8c0.2,0.1,0.4,0.3,0.7,0.6
		c0.1,0.1,0.3,0.2,0.3,0.3C50.7,224.6,50.9,223.4,51.1,221.8z M51.9,225.7h4.5v0.8h-4.5V225.7z M53.7,220.6l-0.3,2.9H56l0.3-3.5
		h-4.2v-0.7h5.1l-0.4,4.3h1c-0.1,1.8-0.1,3-0.2,3.6c-0.1,1-0.6,1.5-1.7,1.5c-0.7,0-1.2,0-1.6,0c0-0.2-0.1-0.4-0.1-0.6
		c0-0.1,0-0.2,0-0.3c0.2,0,0.8,0,1.7,0c0.6,0,0.9-0.3,1-0.8c0.1-0.5,0.1-1.4,0.2-2.7h-4.4l0.3-3.6H53.7z"/>
	<path style="fill:#666666;" d="M62.9,227.3l-0.6,0.5c-0.2-0.1-0.4-0.3-0.7-0.7c-0.1-0.1-0.3-0.3-0.3-0.3c-0.4,0.6-1,1.3-1.9,2
		c-0.1-0.2-0.3-0.5-0.5-0.7c0.7-0.5,1.3-1.1,1.9-1.9c-0.2-0.1-0.4-0.4-0.7-0.7c-0.3-0.3-0.5-0.5-0.7-0.7c0.2-0.6,0.4-1.6,0.7-3.1H59
		v-0.7h1c0.1-0.4,0.1-1,0.3-1.8c0-0.2,0-0.3,0-0.4l0.8,0.1c0,0.3-0.1,0.7-0.2,1.3c-0.1,0.4-0.1,0.6-0.1,0.8h1.8v0.7
		c-0.2,1.9-0.5,3.3-1,4.2C62,226.4,62.5,226.8,62.9,227.3z M61.9,221.8h-1.2c-0.2,1.1-0.4,2-0.6,2.8c0.2,0.1,0.4,0.3,0.7,0.6
		c0.1,0.1,0.3,0.2,0.3,0.3C61.5,224.6,61.7,223.4,61.9,221.8z M62.7,225.7h4.5v0.8h-4.5V225.7z M64.5,220.6l-0.3,2.9h2.6l0.3-3.5H63
		v-0.7H68l-0.4,4.3h1c-0.1,1.8-0.1,3-0.2,3.6c-0.1,1-0.6,1.5-1.7,1.5c-0.7,0-1.2,0-1.6,0c0-0.2-0.1-0.4-0.1-0.6c0-0.1,0-0.2,0-0.3
		c0.2,0,0.8,0,1.7,0c0.6,0,0.9-0.3,1-0.8c0.1-0.5,0.1-1.4,0.2-2.7h-4.4l0.3-3.6H64.5z"/>
</g>
<g>
	<path style="fill:#666666;" d="M26.5,244.9c0.2-0.1,0.6-0.2,1.1-0.3c0.2-0.1,0.3-0.1,0.4-0.1v-4.1h-1.3v-0.7H28v-2.8h0.8v2.8h1.2
		v0.7h-1.2v3.8c0.2-0.1,0.4-0.1,0.8-0.3c0.3-0.1,0.5-0.2,0.6-0.2c0,0.3,0,0.6,0,0.8c-1.2,0.5-2.3,0.8-3.3,1.1L26.5,244.9z
		 M29.7,241.1l0.9-0.3V238h0.8v2.5l1.6-0.5v-3.1h0.8v2.8l2.5-0.9c0,0.2,0,0.6,0,1.1c0,0.9-0.1,1.6-0.1,2.1c0,1.1-0.4,1.6-1.3,1.5
		c-0.2,0-0.4,0-0.8,0c0-0.3-0.1-0.5-0.2-0.8c0.1,0,0.2,0,0.4,0c0.2,0,0.4,0,0.5,0c0.4,0,0.6-0.2,0.6-0.8c0-0.5,0-1.2,0-2.1l-1.6,0.7
		v4.3h-0.8v-4l-1.6,0.6v3.5c0,0.6,0.3,0.9,1,0.8h2.2c0.8,0,1.2-0.2,1.2-0.7c0.1-0.6,0.2-1.1,0.2-1.5c0.3,0.1,0.5,0.2,0.8,0.3
		c-0.1,0.7-0.2,1.2-0.3,1.7c-0.1,0.7-0.7,1.1-1.8,1.1h-2.6c-1.1,0-1.6-0.5-1.6-1.4v-3.3l-0.8,0.3L29.7,241.1z"/>
	<path style="fill:#666666;" d="M37.4,244.5c0.2-0.1,0.4-0.1,0.8-0.3c0.4-0.1,0.6-0.2,0.8-0.3v-3.8h-1.4v-0.8H39v-2.7h0.8v2.7h1.4
		v0.8h-1.4v3.5c0.5-0.2,1-0.3,1.5-0.5c0,0.3,0,0.6,0,0.8c-0.2,0.1-0.5,0.2-0.8,0.3c-1.3,0.5-2.2,0.8-2.8,1.1L37.4,244.5z
		 M44.1,236.8h0.8v3.2h2.4v0.8h-2.4v4.7h2.7v0.7h-7.3v-0.7h1.6v-6.5h0.8v6.5h1.5V236.8z"/>
	<path style="fill:#666666;" d="M51.3,242.3v1.5h-1.4v-1.5H51.3z M51.3,245.4v1.4h-1.4v-1.4H51.3z"/>
	<path style="fill:#666666;" d="M59.7,239h4v-2.2h0.8v2.2h4v4.6h-0.8V243h-3.2v3.8h-0.8V243h-3.2v0.5h-0.8V239z M60.5,239.7v2.6h3.2
		v-2.6H60.5z M67.7,239.7h-3.2v2.6h3.2V239.7z"/>
	<path style="fill:#666666;" d="M70.4,237.3h8.9v9.4h-0.8v-0.5h-7.4v0.5h-0.8V237.3z M71.2,238v7.5h7.4V238H71.2z M72,241.1h2.4
		v-1.4h-2.7V239h6.1v0.7h-2.7v1.4h2.4v0.7h-2.4v2h2.8v0.7h-6.4v-0.7h2.8v-2H72V241.1z M75.8,242.5l0.6-0.5c0.2,0.2,0.5,0.6,1,1.1
		l-0.6,0.5C76.3,243.1,76,242.7,75.8,242.5z"/>
	<path style="fill:#666666;" d="M84.7,236.9h0.9v3.1h4.2v0.8h-4.2v4.6h5v0.7h-10v-0.7h4V236.9z"/>
	<path style="fill:#666666;" d="M91.9,239.5c0.6,0.5,1.2,0.9,1.7,1.4l-0.6,0.6c-0.5-0.5-1.1-0.9-1.6-1.4L91.9,239.5z M91.7,246.5
		c0.2-0.7,0.6-1.8,1-3.5c0-0.2,0.1-0.3,0.1-0.4c0.3,0.1,0.5,0.2,0.8,0.3c-0.3,1.2-0.7,2.5-1,3.8L91.7,246.5z M92.3,236.9
		c0.5,0.4,1.1,0.8,1.7,1.4l-0.5,0.6c-0.6-0.6-1.2-1.1-1.6-1.5L92.3,236.9z M93.6,239.6c0.9-0.8,1.6-1.8,2.1-3l0.8,0.1
		c-0.1,0.3-0.3,0.6-0.5,0.9h5.4v0.7h-5.8c-0.5,0.8-1,1.4-1.5,1.8c-0.1-0.1-0.2-0.2-0.3-0.4C93.6,239.8,93.6,239.7,93.6,239.6z
		 M100.6,239.3c0,0.3,0,0.8,0,1.4c0,0.5,0,0.9,0,1.2h1.1v0.7h-1.1c0,0.3,0,0.6,0,1.1c0,0.4,0,0.7,0,0.8h0.8v0.7h-0.8
		c-0.1,1-0.6,1.5-1.7,1.5c-0.5,0-0.9,0-1.4,0c0-0.1,0-0.3-0.1-0.5c0-0.1,0-0.2,0-0.3c0.4,0,0.8,0,1.4,0c0.6,0,1-0.2,1.1-0.7h-5.3
		l0.3-2.6h-1v-0.7h1.1l0.3-2.6H100.6z M99.6,244.5c0-0.2,0-0.5,0-0.9c0-0.4,0-0.7,0-1h-4.3l-0.2,1.9H99.6z M95.8,240l-0.3,1.9h4.2
		c0-0.6,0-1.3,0-1.9H95.8z M96.7,243.3l0.4-0.5c0.4,0.3,0.9,0.7,1.3,1l-0.5,0.5c-0.1-0.1-0.2-0.2-0.4-0.4
		C97.4,243.9,97.1,243.6,96.7,243.3z M96.8,240.6l0.5-0.5c0.4,0.3,0.8,0.7,1.3,1l-0.5,0.5C97.6,241.3,97.2,241,96.8,240.6z"/>
	<path style="fill:#666666;" d="M102.3,238.3h4.8c-0.2-0.4-0.5-0.8-0.7-1.3l0.8-0.4c0.3,0.5,0.6,0.9,0.8,1.3l-0.7,0.3h5v0.8h-4.6
		v1.4h3.7v3.8c0.1,0.9-0.4,1.3-1.3,1.3c-0.4,0-0.8,0-1.4,0c0-0.2-0.1-0.4-0.2-0.8c0.1,0,0.3,0,0.5,0c0.3,0,0.6,0,0.8,0
		c0.5,0,0.8-0.2,0.8-0.7v-2.9h-2.9v5.5h-0.8v-5.5H104v4.5h-0.8v-5.2h3.6v-1.4h-4.5V238.3z"/>
	<path style="fill:#666666;" d="M113,239.5c0.9-0.7,1.7-1.6,2.4-2.8l0.7,0.4c-0.9,1.3-1.8,2.3-2.7,3.2
		C113.3,240.1,113.2,239.8,113,239.5z M113,242.7c1-0.9,1.8-2.1,2.6-3.5l0.7,0.4c-0.1,0.2-0.3,0.4-0.5,0.8c-0.3,0.4-0.4,0.6-0.5,0.8
		v5.5h-0.8v-4.5c-0.4,0.5-0.7,0.9-1.1,1.3C113.2,243.2,113.1,243,113,242.7z M117.4,243.5l0.7,0.4c-0.5,0.8-1.1,1.6-1.7,2.3
		c-0.1-0.1-0.4-0.3-0.6-0.5C116.3,245.2,116.8,244.5,117.4,243.5z M120.2,236.9c-0.1,0.1-0.2,0.3-0.2,0.3c0.8,1.3,1.9,2.3,3.2,2.9
		c0,0.1-0.1,0.2-0.2,0.3c-0.1,0.1-0.2,0.3-0.3,0.3c-1.2-0.7-2.3-1.7-3.1-2.9c-0.5,0.8-1.2,1.6-2.1,2.3h4.2v0.7h-1.7v1.3h2.8v0.7
		h-2.8v2.5c0.1,0.8-0.3,1.1-1.1,1.1c-0.3,0-0.7,0-1.1,0c0-0.1,0-0.3-0.1-0.6c0-0.1,0-0.2,0-0.2c0.1,0,0.3,0,0.5,0c0.2,0,0.4,0,0.5,0
		c0.4,0,0.6-0.1,0.5-0.5V243h-2.7v-0.7h2.7v-1.3h-1.8v-0.5c-0.1,0.1-0.2,0.2-0.4,0.3c-0.2,0.1-0.3,0.3-0.4,0.3
		c-0.1-0.1-0.1-0.2-0.3-0.3c-0.1-0.2-0.2-0.3-0.3-0.3c1.5-0.9,2.7-2.1,3.5-3.6L120.2,236.9z M120.6,243.9l0.6-0.4
		c0.7,0.8,1.3,1.4,1.8,2l-0.6,0.5c-0.1-0.1-0.2-0.2-0.3-0.4C121.4,244.9,121,244.3,120.6,243.9z"/>
	<path style="fill:#666666;" d="M124,244c1.7-0.4,3.1-1.2,4.1-2.1c0-0.1-0.1-0.1-0.2-0.3c-0.1-0.1-0.2-0.2-0.2-0.2
		c-1,0.7-2.1,1.2-3.4,1.6c-0.1-0.2-0.3-0.4-0.5-0.7c1.5-0.3,2.9-1,4.1-1.9h-2.8v-0.7h7.3v0.7h-3.5c-0.3,0.2-0.5,0.4-0.8,0.6
		c0.4,0.4,0.7,0.8,0.9,1.3c1.2-0.6,2.2-1.1,3.1-1.6l0.5,0.7c-0.6,0.3-1.3,0.7-2,1c0.5,1.4,1.5,2.3,3.1,2.8c-0.2,0.2-0.4,0.4-0.6,0.7
		c-1.5-0.6-2.6-1.7-3.1-3.2c-0.1,0-0.2,0.1-0.3,0.2c-0.1,0.1-0.3,0.1-0.3,0.2c0.2,0.5,0.3,1,0.3,1.5c0.1,1.4-0.6,2-1.9,2
		c-0.4,0-0.7,0-1,0c-0.1-0.3-0.1-0.6-0.2-0.8c0.2,0,0.6,0,1.2,0c0.8,0.1,1.2-0.4,1.1-1.2c0-0.3,0-0.5-0.1-0.8
		c-1.1,1.1-2.6,1.9-4.6,2.6c-0.1-0.2-0.2-0.5-0.4-0.8c2-0.5,3.6-1.4,4.9-2.6c-0.1-0.2-0.2-0.4-0.3-0.6c-1.1,1-2.4,1.7-4.1,2.2
		C124.3,244.5,124.1,244.3,124,244z M128.2,236.9l0.8-0.3c0.1,0.1,0.1,0.3,0.3,0.5c0.1,0.3,0.2,0.5,0.3,0.7l-0.5,0.1h4.5v1.7h-0.8
		v-1h-7.8v1h-0.8v-1.7h4.6C128.6,237.6,128.4,237.2,128.2,236.9z"/>
	<path style="fill:#666666;" d="M135,239.5c0.7,0.4,1.4,0.9,1.9,1.3c-0.2,0.3-0.4,0.5-0.5,0.8c-0.7-0.6-1.3-1.1-1.9-1.4L135,239.5z
		 M136.1,242.6c0.3,0.2,0.6,0.3,0.8,0.4c-0.2,0.8-0.6,2-1.1,3.7l-0.9-0.4C135.4,245.2,135.8,243.9,136.1,242.6z M135.5,236.9
		c0.4,0.3,0.9,0.7,1.6,1.2c0.1,0.1,0.1,0.1,0.2,0.2c-0.1,0.1-0.2,0.2-0.4,0.5c0.1-0.1,0,0-0.1,0.2c0,0-0.1-0.1-0.1-0.1
		c-0.8-0.6-1.3-1.1-1.7-1.4L135.5,236.9z M138,237.4h6.5v0.8h-5.7v7.3h5.8v0.8H138V237.4z"/>
	<path style="fill:#666666;" d="M146,237.4h3.3v3.2h-1v1.7h1v0.7h-1v2.1c0.4-0.1,0.8-0.1,1.2-0.2c0,0.2,0,0.4,0,0.7
		c-0.3,0.1-1,0.2-2.1,0.3c-0.9,0.1-1.5,0.2-1.9,0.3l-0.1-0.7c0.2,0,0.4,0,0.6-0.1v-3.8h0.7v3.8c0.3-0.1,0.6-0.1,0.9-0.1v-4.6H146
		V237.4z M146.8,238.1v1.8h1.9v-1.8H146.8z M149.5,239.8c0.7-0.8,1.3-1.9,1.9-3.1l0.8,0.2c0,0.1-0.1,0.2-0.2,0.3
		c0,0.1-0.1,0.3-0.3,0.6h3.2v0.7c-0.6,1-1.2,1.8-1.8,2.4c0.6,0.5,1.5,0.8,2.5,1.1c-0.1,0.2-0.3,0.5-0.5,0.8
		c-1.1-0.4-1.9-0.8-2.6-1.4c-0.8,0.6-1.6,1-2.7,1.4c-0.2-0.3-0.4-0.6-0.5-0.7c1.1-0.4,1.9-0.8,2.5-1.2c-0.4-0.4-0.8-1-1.1-1.6
		c-0.3,0.4-0.5,0.7-0.8,1.1C149.8,240.3,149.7,240.1,149.5,239.8z M150.2,242.9h4.4v3.9h-0.8v-0.5H151v0.5h-0.8V242.9z M151,243.6v2
		h2.9v-2H151z M154,238.5h-2.7c0,0,0,0.1,0,0.1c0.4,0.7,0.8,1.3,1.3,1.8C153.1,239.9,153.6,239.3,154,238.5z"/>
	<path style="fill:#666666;" d="M161.8,239.3l-0.8,0.3c-0.2-1-0.8-1.5-1.6-1.4c-1.4,0-2.1,1.2-2.1,3.5c0.5-0.8,1.2-1.2,2.2-1.2
		c1.6,0.1,2.4,1,2.5,2.7c-0.1,1.8-1,2.7-2.7,2.9c-2,0-3-1.4-3-4.1c0-3.1,1.1-4.6,3.1-4.6C160.6,237.4,161.4,238,161.8,239.3z
		 M157.3,242.7c0,1.7,0.7,2.6,2,2.7c1.1-0.1,1.6-0.8,1.7-2.1c0-1.3-0.6-2-1.7-2.1C158.2,241.2,157.5,241.8,157.3,242.7z"/>
	<path style="fill:#666666;" d="M166,239.1c-0.6,0.6-1.4,1-2.2,1.4v-0.9c1.3-0.6,2.1-1.3,2.5-2.2h0.6v8.6H166V239.1z"/>
	<path style="fill:#666666;" d="M172.4,246c-1.9,0-2.8-1.5-2.8-4.3c0-2.8,1-4.3,2.8-4.4c1.8,0.1,2.8,1.5,2.8,4.4
		C175.1,244.6,174.2,246,172.4,246z M172.3,238.1c-1.2,0.1-1.7,1.3-1.8,3.6c0,2.4,0.6,3.6,1.8,3.6c1.2,0,1.8-1.2,1.8-3.6
		C174.1,239.3,173.5,238.1,172.3,238.1z"/>
	<path style="fill:#666666;" d="M177.7,243.7V243l0.5-1.1h-2.2v-0.7h10.1v0.7h-7l-0.5,1.1h6.1c-0.1,0.6-0.1,1.2-0.2,1.8
		c-0.1,1.2-0.8,1.8-2.3,1.8c-0.7,0-1.4,0-2.2,0c0,0,0-0.1,0-0.2c0-0.3-0.1-0.5-0.1-0.7c0.8,0.1,1.6,0.1,2.3,0.1c1,0.1,1.4-0.3,1.5-1
		c0-0.1,0-0.2,0-0.3c0-0.3,0.1-0.6,0.1-0.7H177.7z M177.6,237.2h6.9v3h-6.9V237.2z M178.4,238v1.5h5.3V238H178.4z"/>
	<path style="fill:#666666;" d="M28,255.4h7.3v9.2h-0.9v-0.7h-5.6v0.7H28V255.4z M28.9,256.2v3.1h5.6v-3.1H28.9z M28.9,260v3.2h5.6
		V260H28.9z"/>
	<path style="fill:#666666;" d="M44.3,263.8c0.6,0,0.9-0.2,0.9-0.7v-1.7h-5.4c-0.1,1.3-0.6,2.5-1.5,3.5c-0.2-0.2-0.5-0.4-0.7-0.6
		c1.1-1,1.6-2.8,1.6-5.5v-3.5H46v7.9c0.1,1-0.5,1.5-1.6,1.5c-0.6,0-1.1,0-1.4,0c0-0.2-0.1-0.5-0.2-0.8c0.1,0,0.3,0,0.6,0
		C43.8,263.8,44.1,263.8,44.3,263.8z M40,258.8c0,0.7,0,1.3,0,1.9h5.3v-2H40V258.8z M40,255.9v2h5.2v-2H40z"/>
	<path style="fill:#666666;" d="M52.8,254.8h0.8v4.3h4.6v0.8h-3.4v3.2c0,0.5,0.2,0.7,0.7,0.7h1.1c0.4,0,0.7-0.2,0.8-0.5
		c0-0.1,0-0.2,0-0.5c0-0.4,0-0.7,0-1c0.1,0,0.1,0.1,0.2,0.1c0.3,0.1,0.6,0.2,0.7,0.2c-0.1,0.8-0.2,1.3-0.3,1.5
		c-0.1,0.6-0.6,0.9-1.5,0.9h-1.2c-0.9,0-1.4-0.5-1.4-1.3v-3.4h-2c0.1,2.5-1,4.1-3.5,4.9c-0.1-0.2-0.3-0.4-0.5-0.7
		c2.2-0.6,3.2-2,3.2-4.2h-3v-0.8h4.6V254.8z M49,256.1l0.6-0.5c0.7,0.8,1.4,1.5,2,2.3l-0.7,0.5C50.3,257.5,49.7,256.8,49,256.1z
		 M54.7,257.9c0.8-0.8,1.5-1.6,2.1-2.4l0.8,0.5c-0.7,0.8-1.4,1.6-2.2,2.3L54.7,257.9z"/>
	<path style="fill:#666666;" d="M59.7,257h4v-2.2h0.8v2.2h4v4.6h-0.8V261h-3.2v3.8h-0.8V261h-3.2v0.5h-0.8V257z M60.5,257.7v2.6h3.2
		v-2.6H60.5z M67.7,257.7h-3.2v2.6h3.2V257.7z"/>
	<path style="fill:#666666;" d="M70.9,257.8l0.8,0.2c-0.3,1.6-0.7,3-1.1,4.2l-0.8-0.3C70.3,260.4,70.7,259.1,70.9,257.8z
		 M72.5,256.7h0.8v6c0,0.6,0.3,0.9,0.9,0.9h2c0.7,0.1,1.1-0.2,1.1-0.7c0-0.1,0-0.3,0-0.5c0.1-0.4,0.1-0.8,0.1-1.1
		c0.3,0.1,0.6,0.2,0.8,0.3c-0.1,0.6-0.2,1.2-0.3,1.6c-0.1,0.8-0.7,1.2-1.8,1.1H74c-1.1,0-1.6-0.5-1.6-1.5V256.7z M74.7,254.7
		c0.4,0.6,0.9,1.4,1.5,2.6c0.1,0.1,0.1,0.3,0.2,0.3l-0.8,0.4c-0.5-1-1-2-1.6-3L74.7,254.7z M78.2,257.5c0.1,0.1,0.1,0.3,0.3,0.5
		c0.7,1.4,1.2,2.5,1.5,3.2l-0.8,0.4c-0.5-1.4-1.1-2.6-1.7-3.8L78.2,257.5z"/>
	<path style="fill:#666666;" d="M87.3,261l1.1,0.3c-0.5,1.8-1.8,2.8-3.7,2.8c-2.4-0.1-3.7-1.5-3.8-4.2c0.1-2.9,1.4-4.4,3.9-4.5
		c1.6,0.1,2.7,0.9,3.4,2.4l-1.1,0.3c-0.5-1.2-1.3-1.8-2.4-1.9c-1.7,0.2-2.7,1.4-2.8,3.6c0.1,2.2,1,3.3,2.8,3.5
		C86,263.2,86.9,262.5,87.3,261z"/>
	<path style="fill:#666666;" d="M94,254.9l0.7-0.3c0.1,0.1,0.1,0.3,0.2,0.5c0.2,0.3,0.3,0.5,0.3,0.7l-0.3,0.2h4.1v0.7h-8.3v2.4
		c0,1.6-0.1,2.7-0.2,3.5c-0.1,0.7-0.4,1.5-0.8,2.3c-0.1,0-0.1-0.1-0.2-0.2c-0.1-0.1-0.2-0.2-0.5-0.4c0.4-0.7,0.6-1.3,0.8-2
		c0.1-0.6,0.2-1.7,0.2-3.1V256h4.5C94.3,255.6,94.2,255.2,94,254.9z M90.8,263.6h3.8v-1.4h-3.1v-0.7h3.1v-4.4h0.8v4.4h3.1v0.7h-3.1
		v1.4h3.8v0.7h-8.4V263.6z M91,260.3c0.8-0.9,1.3-1.8,1.5-2.9l0.8,0.2c-0.1,0.4-0.2,0.7-0.3,1c0.1,0.1,0.3,0.3,0.5,0.5
		c0.4,0.4,0.7,0.7,0.9,0.9l-0.6,0.5c-0.3-0.4-0.7-0.9-1.2-1.3c-0.3,0.5-0.6,1-1.1,1.5C91.4,260.6,91.2,260.5,91,260.3z M95.5,260.1
		c0.8-0.8,1.3-1.7,1.7-2.7l0.8,0.2c0,0,0,0.1,0,0.1c-0.1,0.3-0.3,0.6-0.4,0.8c0.6,0.5,1.1,1,1.6,1.6l-0.6,0.6
		c-0.4-0.5-0.9-1-1.4-1.5c-0.3,0.5-0.6,0.9-1.1,1.4c-0.1-0.1-0.1-0.1-0.3-0.2C95.7,260.3,95.6,260.2,95.5,260.1z"/>
	<path style="fill:#666666;" d="M100,263.8v-0.5c0.5-1.1,1.4-2.1,2.7-3c1.3-0.9,1.9-1.8,1.9-2.5c0-1-0.6-1.5-1.7-1.6
		c-0.9,0.1-1.5,0.6-1.8,1.6l-0.8-0.4c0.5-1.4,1.4-2.1,2.8-2c1.6,0.1,2.4,0.8,2.5,2.2c0.1,1.1-0.6,2.2-2.1,3.2
		c-1.2,0.8-1.9,1.6-2.3,2.4h4.4v0.7H100z"/>
	<path style="fill:#666666;" d="M109.4,264c-1.9,0-2.8-1.5-2.8-4.3c0-2.8,1-4.3,2.8-4.4c1.8,0.1,2.8,1.5,2.8,4.4
		C112.1,262.6,111.2,264,109.4,264z M109.3,256.1c-1.2,0.1-1.7,1.3-1.8,3.6c0,2.4,0.6,3.6,1.8,3.6c1.2,0,1.8-1.2,1.8-3.6
		C111.1,257.3,110.5,256.1,109.3,256.1z"/>
	<path style="fill:#666666;" d="M122.5,258.2h-7.6v0.5c0,1.5-0.1,2.6-0.3,3.5c-0.2,0.9-0.6,1.8-1.2,2.7c-0.3-0.3-0.5-0.6-0.6-0.7
		c0.9-1.2,1.3-3,1.3-5.4v-3.4h8.4V258.2z M114.9,256v1.5h6.8V256H114.9z M119.8,262.5l0.6-0.5c0.9,0.8,1.7,1.5,2.4,2.2l-0.6,0.5
		c-0.2-0.2-0.4-0.5-0.6-0.7c-2.4,0-4.1,0.1-5.1,0.2c-0.2,0-0.4,0-0.7,0.1l-0.3-0.8c0.4-0.1,0.7-0.3,0.9-0.5c0.5-0.5,1-1,1.3-1.5H115
		V261h8.1v0.7h-4.5c-0.6,0.8-1.2,1.4-1.6,1.8c1.3,0,2.6,0,3.9,0C120.5,263.1,120.1,262.8,119.8,262.5z M115.7,259.1h6.4v0.7h-6.4
		V259.1z"/>
</g>
<g>
	<path style="fill:#666666;" d="M26.6,151.1h10.5v2H26.6V151.1z M27.1,159h9.8v8.2h-2.5v-0.7h-4.9v0.7h-2.5V159z M27.7,153.8h8.6
		v4.6h-8.6V153.8z M29.5,160.9v1.1h1.3v-1.1H29.5z M29.5,163.6v1.1h1.3v-1.1H29.5z M33.7,155.7h-3.6v0.8h3.6V155.7z M34.4,160.9H33
		v1.1h1.3V160.9z M33,163.6v1.1h1.3v-1.1H33z M39.8,163h-2.2v-10.8h2.2V163z M40.6,150.4H43v13.9c0.1,1.7-0.6,2.6-2.2,2.6
		c-0.5,0-1.4,0.1-2.5,0.1c-0.2-0.9-0.4-1.7-0.5-2.4c0.8,0,1.5,0,2,0c0.6,0,0.9-0.2,0.8-0.8V150.4z"/>
	<path style="fill:#666666;" d="M44.5,165.2c0.6-1.2,1.1-2.7,1.5-4.4l2.5,0.8c-0.6,2-1.1,3.5-1.6,4.5L44.5,165.2z M47.7,150.8
		l3.1-0.6c0.3,0.4,0.6,1,1,1.7c0.2,0.3,0.3,0.6,0.4,0.7h1.7c0.2-0.4,0.6-1.1,1.2-2.1c0-0.1,0.1-0.2,0.1-0.3l3.2,0.7
		c-0.4,0.6-0.8,1.1-1.3,1.7h2.6v7.2h-5.6c0.2,0.3,0.6,0.8,1.1,1.4c0.2,0.3,0.4,0.6,0.6,0.7l-2.3,1.7c-0.7-1.1-1.3-2.1-2-3l1.3-0.8
		h-6.5v-7.2h2.5c-0.2-0.3-0.5-0.8-0.8-1.3C47.9,151.1,47.8,150.9,47.7,150.8z M56.8,161.5l2.3-1.1c0.5,0.8,1.2,1.9,2,3.3
		c0.2,0.5,0.4,0.8,0.6,1l-2.5,1.1c-0.1-0.2-0.2-0.5-0.4-0.8c-0.2-0.4-0.4-0.7-0.5-0.9c-0.2,0.7-0.3,1.1-0.4,1.2
		c-0.3,1.1-1.2,1.7-2.8,1.6H51c-1.7,0-2.6-0.9-2.5-2.8v-3.4h2.8v2.7c0,0.8,0.4,1.2,1.1,1.1h1.8c0.8,0,1.3-0.3,1.3-0.9
		c0.1-0.3,0.2-0.6,0.2-1c0,0,0,0,0-0.3c0.6,0.2,1.2,0.4,1.8,0.6C57.3,162.4,57.1,161.9,56.8,161.5z M56.8,157.4v-2.2h-7.5v2.2H56.8z
		"/>
	<path style="fill:#666666;" d="M75.2,150.3c0,1.5,0,3,0,4.4h4.4v2.3h-2.5l2.1,1.1c-1.1,2-2.1,3.6-3.2,4.9c0.1,0.3,0.3,0.7,0.6,1.1
		c0.1,0.2,0.2,0.3,0.3,0.2c0.1,0,0.2-0.2,0.2-0.4c0.1-0.7,0.3-1.6,0.4-2.6c0.3,0.2,0.8,0.4,1.4,0.6c0.4,0.1,0.6,0.2,0.8,0.3
		c-0.2,1.7-0.4,2.8-0.6,3.3c-0.3,1.1-1,1.7-2.2,1.8c-1.1,0-2.1-0.7-2.8-2.1c0,0-0.1,0.1-0.1,0.1c-1,0.9-1.9,1.6-2.5,2.1
		c-0.1-0.1-0.3-0.3-0.5-0.5c-0.5-0.6-1-1.1-1.3-1.3c0.3-0.2,0.6-0.3,0.8-0.4c-0.5-0.4-1-0.8-1.5-1.3c0,0.4,0.1,1,0.1,1.6
		c0-0.1,0,0,0.1,0.5c-0.2,0-0.6,0.1-1,0.3c-0.5,0.1-1.2,0.4-2.1,0.6c-0.1,0-0.2,0.1-0.3,0.1c-0.4,0.2-0.7,0.4-0.9,0.5l-1-1.7
		c0.5-0.4,0.7-0.8,0.6-1.4v-0.4c0,0-0.1,0.1-0.2,0.1c-0.3,0.2-0.7,0.4-1.3,0.8c-0.1-0.4-0.3-1-0.6-1.8c-0.1-0.3-0.2-0.5-0.2-0.6
		c1.3-0.7,2.3-1.4,3-2.1h-2.6v-2.2h3.4c0-0.1,0-0.2-0.1-0.4c0-0.2-0.1-0.3-0.1-0.4l2.8-0.1c0.1,0.3,0.2,0.6,0.4,1h3.1v2.2h-0.9
		l1.5,1.3c-0.2,0.2-0.5,0.4-0.9,0.8c-0.3,0.2-0.5,0.3-0.6,0.4c0.1,0.1,0.4,0.3,0.6,0.5c0.1,0.1,0.2,0.2,0.3,0.2
		c0.1-0.1,0.4-0.4,0.6-0.6c0.1-0.1,0.3-0.3,0.4-0.4c-0.3-1.4-0.6-3.2-0.7-5.5h-9.9v-2.3h3.6v-0.9h-3v-2.1h3v-1.3h2.7v1.3h2.8v2.1
		h-2.8v0.9h3.5c0-0.5,0-1.3-0.1-2.5c0-0.9,0-1.6,0-1.9H75.2z M68.5,160.8c0.1,0.1,0.3,0.2,0.6,0.4c0.2,0.2,0.4,0.3,0.5,0.4
		c0.1-0.1,0.4-0.4,0.6-0.6c0.3-0.2,0.5-0.4,0.6-0.6h-2.6c-0.4,0.5-0.8,1-1.3,1.5v2.6c0.7-0.3,1.3-0.5,1.9-0.7
		c-0.2-0.1-0.5-0.4-0.9-0.8c-0.4-0.3-0.7-0.5-0.8-0.6L68.5,160.8z M75.2,152l1.8-1.3c0.4,0.3,0.9,0.9,1.6,1.6
		c0.3,0.3,0.6,0.6,0.7,0.7l-2,1.5C76.8,153.7,76.1,152.9,75.2,152z M75.4,159.6c0.4-0.7,0.9-1.5,1.4-2.5h-1.6
		C75.3,158,75.4,158.9,75.4,159.6z"/>
</g>
<g>
	<path style="fill:#666666;" d="M30.7,298.7h0.8v1.4h3.8v5.7h-3.8v1.1c-0.1,0.5,0.3,0.7,0.9,0.7h2c0.6,0,0.9-0.1,1-0.5
		c0.1-0.2,0.1-0.7,0.2-1.3c0.3,0.1,0.6,0.2,0.8,0.3c-0.1,0.5-0.1,1-0.3,1.4c-0.1,0.6-0.7,1-1.7,0.9h-2.3c-1.1,0.1-1.6-0.4-1.5-1.4
		v-1.1h-3v0.7H27V300h3.8V298.7z M27.7,300.8v1.8h3v-1.8H27.7z M27.7,303.2v1.8h3v-1.8H27.7z M34.5,300.8h-3v1.8h3V300.8z M31.5,305
		h3v-1.8h-3V305z"/>
	<path style="fill:#666666;" d="M40.6,306.2c0,0.1,0,0.2,0,0.4c0,0.2,0,0.4,0,0.5c-0.6,0.3-1.2,0.7-1.5,1c0,0-0.1,0.1-0.1,0.1
		c-0.1,0.1-0.2,0.2-0.4,0.3l-0.5-0.6c0.3-0.3,0.4-0.5,0.3-0.9v-4h-1.3v-0.7h2.1v4.9c0.1-0.1,0.3-0.2,0.5-0.3
		C40.1,306.5,40.4,306.3,40.6,306.2z M38.3,298.8c0.2,0.2,0.4,0.5,0.8,0.8c0.4,0.4,0.7,0.7,0.8,0.8l-0.7,0.6c-0.5-0.6-1-1.2-1.5-1.8
		L38.3,298.8z M41,304.2h2.3v-1.7H40v-0.8h3.3v-1.7c-0.3,0-0.8,0-1.4,0c-0.6,0-1,0-1.3,0c0-0.1-0.1-0.3-0.1-0.5c0-0.1,0-0.2,0-0.3
		c2.2-0.1,4.3-0.1,6.2-0.3l0.2,0.7c-0.9,0.1-1.8,0.1-2.7,0.2v1.7h3.2v0.8h-3.2v1.7h2.3v4.5h-0.8v-0.7h-3.8v0.7H41V304.2z M41.8,305
		v2.3h3.8V305H41.8z"/>
	<path style="fill:#666666;" d="M51.1,304.2v1.5h-1.4v-1.5H51.1z M51.1,307.3v1.4h-1.4v-1.4H51.1z"/>
	<path style="fill:#666666;" d="M61.4,307.4V302h-2v-0.7c0.3,0,0.5,0,0.8-0.1c0.2,0,0.5-0.1,0.7-0.2c0.2-0.1,0.4-0.3,0.5-0.4
		s0.2-0.4,0.3-0.7h0.7v7.7H61.4z"/>
	<path style="fill:#666666;" d="M65.4,300.9c0.1-0.2,0.3-0.4,0.5-0.6c0.2-0.2,0.4-0.3,0.7-0.4c0.3-0.1,0.6-0.1,0.8-0.1
		c0.4,0,0.8,0.1,1.1,0.2s0.5,0.3,0.7,0.4s0.3,0.4,0.4,0.6c0.1,0.2,0.1,0.5,0.1,0.7c0,0.3-0.1,0.7-0.3,0.9c-0.2,0.3-0.4,0.5-0.8,0.6
		c0.5,0.1,0.8,0.4,1,0.7c0.2,0.3,0.3,0.7,0.3,1.2c0,0.4-0.1,0.7-0.2,1c-0.1,0.3-0.3,0.5-0.5,0.7c-0.2,0.2-0.5,0.3-0.8,0.4
		c-0.3,0.1-0.6,0.2-1,0.2c-0.4,0-0.7,0-1-0.1c-0.3-0.1-0.6-0.2-0.8-0.4c-0.2-0.2-0.4-0.4-0.6-0.7c-0.1-0.3-0.2-0.6-0.2-1
		c0-0.5,0.1-0.8,0.3-1.2s0.6-0.6,1-0.7c-0.3-0.1-0.6-0.3-0.8-0.6c-0.2-0.3-0.3-0.6-0.3-1C65.2,301.4,65.2,301.1,65.4,300.9z
		 M66.3,306.4c0.3,0.3,0.7,0.4,1.2,0.4c0.2,0,0.4,0,0.6-0.1c0.2-0.1,0.4-0.2,0.5-0.3c0.1-0.1,0.2-0.3,0.3-0.5
		c0.1-0.2,0.1-0.4,0.1-0.6c0-0.2,0-0.4-0.1-0.6s-0.2-0.3-0.3-0.5c-0.1-0.1-0.3-0.2-0.5-0.3c-0.2-0.1-0.4-0.1-0.6-0.1
		c-0.2,0-0.4,0-0.6,0.1c-0.2,0.1-0.4,0.2-0.5,0.3c-0.1,0.1-0.3,0.3-0.3,0.5c-0.1,0.2-0.1,0.4-0.1,0.6
		C65.9,305.7,66,306.1,66.3,306.4z M66.3,302.3c0.1,0.2,0.2,0.3,0.3,0.4c0.1,0.1,0.3,0.2,0.4,0.2c0.2,0.1,0.3,0.1,0.5,0.1
		c0.4,0,0.7-0.1,0.9-0.3c0.2-0.2,0.4-0.5,0.4-0.9s-0.1-0.7-0.4-0.9c-0.2-0.2-0.5-0.3-0.9-0.3c-0.2,0-0.4,0-0.5,0.1
		c-0.2,0.1-0.3,0.1-0.4,0.2c-0.1,0.1-0.2,0.2-0.3,0.4c-0.1,0.1-0.1,0.3-0.1,0.5C66.2,302,66.2,302.2,66.3,302.3z"/>
	<path style="fill:#666666;" d="M74.6,300.9c-0.2-0.2-0.5-0.3-0.9-0.3c-0.4,0-0.7,0.1-0.9,0.3c-0.2,0.2-0.4,0.4-0.6,0.7
		c-0.1,0.3-0.2,0.6-0.3,0.9c-0.1,0.3-0.1,0.7-0.1,1l0,0c0.2-0.4,0.5-0.6,0.8-0.8c0.3-0.2,0.7-0.2,1.1-0.2c0.4,0,0.7,0.1,1,0.2
		c0.3,0.1,0.5,0.3,0.7,0.5s0.4,0.5,0.5,0.8c0.1,0.3,0.2,0.6,0.2,1c0,0.3,0,0.6-0.1,0.9s-0.2,0.6-0.4,0.8s-0.5,0.5-0.8,0.6
		c-0.3,0.2-0.7,0.2-1.2,0.2c-0.6,0-1-0.1-1.4-0.3c-0.3-0.2-0.6-0.5-0.8-0.9c-0.2-0.4-0.3-0.8-0.4-1.2c-0.1-0.4-0.1-0.8-0.1-1.3
		c0-0.5,0-1,0.1-1.5c0.1-0.5,0.2-0.9,0.5-1.3c0.2-0.4,0.5-0.7,0.9-0.9s0.8-0.3,1.4-0.3c0.6,0,1.1,0.2,1.5,0.5
		c0.4,0.3,0.6,0.8,0.6,1.5H75C74.9,301.4,74.8,301.1,74.6,300.9z M72.9,303.5c-0.2,0.1-0.4,0.2-0.5,0.4c-0.1,0.2-0.2,0.3-0.3,0.6
		c-0.1,0.2-0.1,0.4-0.1,0.7c0,0.2,0,0.5,0.1,0.7c0.1,0.2,0.2,0.4,0.3,0.5c0.1,0.2,0.3,0.3,0.5,0.4c0.2,0.1,0.4,0.1,0.7,0.1
		s0.5,0,0.7-0.1c0.2-0.1,0.4-0.2,0.5-0.4s0.2-0.3,0.3-0.5s0.1-0.4,0.1-0.6c0-0.2,0-0.5-0.1-0.7c-0.1-0.2-0.2-0.4-0.3-0.6
		c-0.1-0.2-0.3-0.3-0.5-0.4c-0.2-0.1-0.4-0.1-0.7-0.1S73.1,303.4,72.9,303.5z"/>
	<path style="fill:#666666;" d="M82.4,307.4V302h-2v-0.7c0.3,0,0.5,0,0.8-0.1c0.2,0,0.5-0.1,0.7-0.2c0.2-0.1,0.4-0.3,0.5-0.4
		s0.2-0.4,0.3-0.7h0.7v7.7H82.4z"/>
	<path style="fill:#666666;" d="M89.6,300.9c-0.2-0.2-0.5-0.3-0.9-0.3c-0.4,0-0.7,0.1-0.9,0.3c-0.2,0.2-0.4,0.4-0.6,0.7
		c-0.1,0.3-0.2,0.6-0.3,0.9c-0.1,0.3-0.1,0.7-0.1,1l0,0c0.2-0.4,0.5-0.6,0.8-0.8c0.3-0.2,0.7-0.2,1.1-0.2c0.4,0,0.7,0.1,1,0.2
		c0.3,0.1,0.5,0.3,0.7,0.5s0.4,0.5,0.5,0.8c0.1,0.3,0.2,0.6,0.2,1c0,0.3,0,0.6-0.1,0.9s-0.2,0.6-0.4,0.8s-0.5,0.5-0.8,0.6
		c-0.3,0.2-0.7,0.2-1.2,0.2c-0.6,0-1-0.1-1.4-0.3c-0.3-0.2-0.6-0.5-0.8-0.9c-0.2-0.4-0.3-0.8-0.4-1.2c-0.1-0.4-0.1-0.8-0.1-1.3
		c0-0.5,0-1,0.1-1.5c0.1-0.5,0.2-0.9,0.5-1.3c0.2-0.4,0.5-0.7,0.9-0.9s0.8-0.3,1.4-0.3c0.6,0,1.1,0.2,1.5,0.5
		c0.4,0.3,0.6,0.8,0.6,1.5H90C89.9,301.4,89.8,301.1,89.6,300.9z M87.9,303.5c-0.2,0.1-0.4,0.2-0.5,0.4c-0.1,0.2-0.2,0.3-0.3,0.6
		c-0.1,0.2-0.1,0.4-0.1,0.7c0,0.2,0,0.5,0.1,0.7c0.1,0.2,0.2,0.4,0.3,0.5c0.1,0.2,0.3,0.3,0.5,0.4c0.2,0.1,0.4,0.1,0.7,0.1
		s0.5,0,0.7-0.1c0.2-0.1,0.4-0.2,0.5-0.4s0.2-0.3,0.3-0.5s0.1-0.4,0.1-0.6c0-0.2,0-0.5-0.1-0.7c-0.1-0.2-0.2-0.4-0.3-0.6
		c-0.1-0.2-0.3-0.3-0.5-0.4c-0.2-0.1-0.4-0.1-0.7-0.1S88.1,303.4,87.9,303.5z"/>
	<path style="fill:#666666;" d="M92.4,300.9c0.1-0.2,0.3-0.4,0.5-0.6c0.2-0.2,0.4-0.3,0.7-0.4c0.3-0.1,0.6-0.1,0.8-0.1
		c0.4,0,0.8,0.1,1.1,0.2s0.5,0.3,0.7,0.4s0.3,0.4,0.4,0.6c0.1,0.2,0.1,0.5,0.1,0.7c0,0.3-0.1,0.7-0.3,0.9c-0.2,0.3-0.4,0.5-0.8,0.6
		c0.5,0.1,0.8,0.4,1,0.7c0.2,0.3,0.3,0.7,0.3,1.2c0,0.4-0.1,0.7-0.2,1c-0.1,0.3-0.3,0.5-0.5,0.7c-0.2,0.2-0.5,0.3-0.8,0.4
		c-0.3,0.1-0.6,0.2-1,0.2c-0.4,0-0.7,0-1-0.1c-0.3-0.1-0.6-0.2-0.8-0.4c-0.2-0.2-0.4-0.4-0.6-0.7c-0.1-0.3-0.2-0.6-0.2-1
		c0-0.5,0.1-0.8,0.3-1.2s0.6-0.6,1-0.7c-0.3-0.1-0.6-0.3-0.8-0.6c-0.2-0.3-0.3-0.6-0.3-1C92.2,301.4,92.3,301.1,92.4,300.9z
		 M93.4,306.4c0.3,0.3,0.7,0.4,1.2,0.4c0.2,0,0.4,0,0.6-0.1c0.2-0.1,0.4-0.2,0.5-0.3c0.1-0.1,0.2-0.3,0.3-0.5
		c0.1-0.2,0.1-0.4,0.1-0.6c0-0.2,0-0.4-0.1-0.6s-0.2-0.3-0.3-0.5c-0.1-0.1-0.3-0.2-0.5-0.3c-0.2-0.1-0.4-0.1-0.6-0.1
		c-0.2,0-0.4,0-0.6,0.1c-0.2,0.1-0.4,0.2-0.5,0.3c-0.1,0.1-0.3,0.3-0.3,0.5c-0.1,0.2-0.1,0.4-0.1,0.6
		C92.9,305.7,93.1,306.1,93.4,306.4z M93.3,302.3c0.1,0.2,0.2,0.3,0.3,0.4c0.1,0.1,0.3,0.2,0.4,0.2c0.2,0.1,0.3,0.1,0.5,0.1
		c0.4,0,0.7-0.1,0.9-0.3c0.2-0.2,0.4-0.5,0.4-0.9s-0.1-0.7-0.4-0.9c-0.2-0.2-0.5-0.3-0.9-0.3c-0.2,0-0.4,0-0.5,0.1
		c-0.2,0.1-0.3,0.1-0.4,0.2c-0.1,0.1-0.2,0.2-0.3,0.4c-0.1,0.1-0.1,0.3-0.1,0.5C93.2,302,93.2,302.2,93.3,302.3z"/>
	<path style="fill:#666666;" d="M98.1,301.4c0.1-0.3,0.3-0.6,0.5-0.9c0.2-0.2,0.5-0.4,0.8-0.6c0.3-0.1,0.7-0.2,1.1-0.2
		c0.3,0,0.6,0,0.9,0.1c0.3,0.1,0.5,0.2,0.8,0.4c0.2,0.2,0.4,0.4,0.5,0.7s0.2,0.6,0.2,1c0,0.3-0.1,0.6-0.2,0.9s-0.2,0.5-0.4,0.7
		c-0.2,0.2-0.4,0.4-0.6,0.6c-0.2,0.2-0.5,0.3-0.7,0.5c-0.2,0.1-0.5,0.3-0.7,0.4c-0.2,0.1-0.5,0.3-0.7,0.4c-0.2,0.2-0.4,0.3-0.5,0.5
		c-0.1,0.2-0.2,0.4-0.3,0.6h3.9v0.8h-5c0-0.5,0.1-0.8,0.2-1.2c0.1-0.3,0.3-0.6,0.5-0.8s0.4-0.4,0.7-0.6c0.2-0.2,0.5-0.3,0.8-0.5
		c0.3-0.2,0.6-0.4,0.9-0.6c0.2-0.2,0.4-0.3,0.6-0.5s0.3-0.4,0.4-0.6c0.1-0.2,0.1-0.4,0.1-0.7c0-0.2,0-0.4-0.1-0.6
		c-0.1-0.2-0.2-0.3-0.3-0.4c-0.1-0.1-0.3-0.2-0.5-0.3s-0.4-0.1-0.6-0.1c-0.3,0-0.5,0.1-0.7,0.2c-0.2,0.1-0.3,0.3-0.5,0.4
		c-0.1,0.2-0.2,0.4-0.3,0.6c-0.1,0.2-0.1,0.5-0.1,0.7H98C98,302.1,98,301.7,98.1,301.4z"/>
	<path style="fill:#666666;" d="M108.5,300.7l-0.4,2.2l0,0c0.2-0.2,0.4-0.3,0.6-0.4c0.3-0.1,0.5-0.1,0.8-0.1c0.3,0,0.7,0.1,1,0.2
		c0.3,0.1,0.6,0.3,0.8,0.5c0.2,0.2,0.4,0.5,0.5,0.8s0.2,0.7,0.2,1.1c0,0.3-0.1,0.6-0.2,0.9c-0.1,0.3-0.3,0.6-0.5,0.8
		c-0.2,0.2-0.5,0.4-0.8,0.6c-0.3,0.1-0.7,0.2-1.2,0.2c-0.3,0-0.6,0-0.9-0.1c-0.3-0.1-0.5-0.2-0.8-0.4s-0.4-0.4-0.5-0.7
		c-0.1-0.3-0.2-0.6-0.2-0.9h0.9c0,0.2,0.1,0.4,0.1,0.5c0.1,0.2,0.2,0.3,0.3,0.4s0.3,0.2,0.5,0.3c0.2,0.1,0.4,0.1,0.6,0.1
		c0.2,0,0.4,0,0.6-0.1s0.4-0.2,0.5-0.3c0.1-0.2,0.3-0.3,0.4-0.6c0.1-0.2,0.1-0.5,0.1-0.8c0-0.3,0-0.5-0.1-0.7
		c-0.1-0.2-0.2-0.4-0.4-0.6s-0.3-0.3-0.5-0.4c-0.2-0.1-0.4-0.1-0.7-0.1c-0.3,0-0.6,0.1-0.8,0.2c-0.2,0.1-0.4,0.3-0.6,0.5l-0.8,0
		l0.7-4h3.8v0.8H108.5z"/>
	<path style="fill:#666666;" d="M118.1,304.8v0.8h-1v1.8h-0.9v-1.8h-3.4v-0.9l3.5-5h0.7v5.1H118.1z M116.2,301.1L116.2,301.1
		l-2.6,3.7h2.6V301.1z"/>
	<path style="fill:#666666;" d="M122.9,302.1c-0.3,0.5-0.6,1.1-0.9,1.7c-0.3,0.6-0.5,1.2-0.6,1.8c-0.2,0.6-0.3,1.2-0.3,1.8h-1
		c0-0.6,0.1-1.3,0.3-1.9c0.2-0.6,0.4-1.2,0.7-1.8c0.3-0.6,0.6-1.1,0.9-1.6c0.3-0.5,0.7-1,1.1-1.4h-4v-0.9h5v0.8
		C123.6,301.1,123.3,301.5,122.9,302.1z"/>
	<path style="fill:#666666;" d="M127.5,307.4V302h-2v-0.7c0.3,0,0.5,0,0.8-0.1c0.2,0,0.5-0.1,0.7-0.2c0.2-0.1,0.4-0.3,0.5-0.4
		s0.2-0.4,0.3-0.7h0.7v7.7H127.5z"/>
</g>
<g>
	<path style="fill:#666666;" d="M32.2,334.6v0.9h-4.3v2.5h4v0.9h-4v2.7h4.3v0.9h-5.4v-7.7H32.2z"/>
	<path style="fill:#666666;" d="M36.3,338.9v0.9h-3.1v-0.9H36.3z"/>
	<path style="fill:#666666;" d="M38.4,336.8v0.8h0c0.4-0.6,1-1,1.8-1c0.3,0,0.7,0.1,0.9,0.2c0.3,0.1,0.5,0.4,0.6,0.7
		c0.2-0.3,0.4-0.5,0.7-0.7c0.3-0.2,0.6-0.2,1-0.2c0.3,0,0.5,0,0.8,0.1c0.2,0.1,0.4,0.2,0.6,0.3c0.2,0.1,0.3,0.3,0.4,0.5
		c0.1,0.2,0.1,0.5,0.1,0.7v4.1h-0.9v-3.7c0-0.2,0-0.3,0-0.5c0-0.2-0.1-0.3-0.2-0.4c-0.1-0.1-0.2-0.2-0.3-0.3
		c-0.1-0.1-0.3-0.1-0.5-0.1c-0.5,0-0.8,0.1-1.1,0.4c-0.3,0.3-0.4,0.6-0.4,1v3.5H41v-3.7c0-0.2,0-0.3,0-0.5c0-0.2-0.1-0.3-0.2-0.4
		c-0.1-0.1-0.2-0.2-0.3-0.3c-0.1-0.1-0.3-0.1-0.5-0.1c-0.3,0-0.5,0.1-0.7,0.2c-0.2,0.1-0.3,0.2-0.5,0.4c-0.1,0.2-0.2,0.3-0.3,0.5
		c-0.1,0.2-0.1,0.3-0.1,0.4v3.5h-0.9v-5.6H38.4z"/>
	<path style="fill:#666666;" d="M51.1,342.5c-0.2,0-0.4-0.1-0.6-0.2c-0.1-0.1-0.2-0.4-0.2-0.7c-0.3,0.3-0.5,0.5-0.9,0.7
		s-0.7,0.2-1.1,0.2c-0.3,0-0.5,0-0.7-0.1c-0.2-0.1-0.4-0.1-0.6-0.3c-0.2-0.1-0.3-0.3-0.4-0.5c-0.1-0.2-0.1-0.4-0.1-0.7
		c0-0.3,0.1-0.6,0.2-0.8s0.2-0.4,0.4-0.5c0.2-0.1,0.4-0.2,0.6-0.3s0.5-0.1,0.7-0.2c0.3-0.1,0.5-0.1,0.7-0.1c0.2,0,0.4-0.1,0.6-0.1
		s0.3-0.1,0.4-0.2s0.2-0.2,0.2-0.4c0-0.2,0-0.4-0.1-0.5c-0.1-0.1-0.2-0.2-0.3-0.3s-0.3-0.1-0.4-0.1c-0.1,0-0.3,0-0.4,0
		c-0.4,0-0.7,0.1-1,0.2c-0.3,0.1-0.4,0.4-0.4,0.8h-0.9c0-0.3,0.1-0.6,0.2-0.9c0.1-0.2,0.3-0.4,0.5-0.6c0.2-0.1,0.5-0.3,0.7-0.3
		c0.3-0.1,0.6-0.1,0.9-0.1c0.3,0,0.5,0,0.8,0.1s0.5,0.1,0.7,0.2c0.2,0.1,0.4,0.3,0.5,0.5c0.1,0.2,0.2,0.5,0.2,0.8v2.9
		c0,0.2,0,0.4,0,0.5c0,0.1,0.1,0.2,0.3,0.2c0.1,0,0.2,0,0.3-0.1v0.7C51.6,342.4,51.3,342.5,51.1,342.5z M49.8,339.7
		c-0.2,0-0.4,0.1-0.6,0.1c-0.2,0-0.4,0.1-0.6,0.1c-0.2,0-0.4,0.1-0.6,0.2c-0.2,0.1-0.3,0.2-0.4,0.3s-0.2,0.3-0.2,0.5
		c0,0.2,0,0.3,0.1,0.4c0.1,0.1,0.1,0.2,0.2,0.3c0.1,0.1,0.2,0.1,0.3,0.1c0.1,0,0.3,0,0.4,0c0.3,0,0.6,0,0.8-0.1
		c0.2-0.1,0.4-0.2,0.5-0.3c0.1-0.1,0.2-0.3,0.3-0.4c0.1-0.1,0.1-0.3,0.1-0.4v-0.9C50.1,339.6,50,339.6,49.8,339.7z"/>
	<path style="fill:#666666;" d="M52.6,335.8v-1.1h0.9v1.1H52.6z M53.6,336.8v5.6h-0.9v-5.6H53.6z"/>
	<path style="fill:#666666;" d="M56,334.6v7.7H55v-7.7H56z"/>
	<path style="fill:#666666;" d="M57.6,338v-1.2h1.2v1.2H57.6z M58.8,341.2v1.2h-1.2v-1.2H58.8z"/>
	<path style="fill:#666666;" d="M64.4,334.6v7.7h-0.9v-7.7H64.4z"/>
	<path style="fill:#666666;" d="M65.8,335.8v-1.1h0.9v1.1H65.8z M66.8,336.8v5.6h-0.9v-5.6H66.8z"/>
	<path style="fill:#666666;" d="M69,336.8v0.9h0c0.4-0.7,1-1,1.8-1c0.4,0,0.7,0.1,0.9,0.2c0.2,0.1,0.4,0.2,0.6,0.4
		c0.2,0.2,0.3,0.4,0.3,0.6c0.1,0.2,0.1,0.5,0.1,0.8v3.7h-0.9v-3.8c0-0.3-0.1-0.6-0.3-0.8c-0.2-0.2-0.5-0.3-0.8-0.3
		c-0.3,0-0.5,0-0.7,0.1c-0.2,0.1-0.4,0.2-0.5,0.4s-0.2,0.3-0.3,0.6s-0.1,0.4-0.1,0.7v3.2h-0.9v-5.6H69z"/>
	<path style="fill:#666666;" d="M76.1,343.8c-0.1,0.2-0.2,0.3-0.3,0.5c-0.1,0.1-0.3,0.2-0.4,0.3c-0.2,0.1-0.3,0.1-0.5,0.1
		c-0.1,0-0.2,0-0.3,0c-0.1,0-0.2,0-0.3-0.1v-0.8c0.1,0,0.2,0.1,0.3,0.1s0.2,0,0.3,0c0.2,0,0.3,0,0.5-0.1s0.2-0.2,0.3-0.4l0.4-0.9
		l-2.2-5.6h1l1.6,4.6h0l1.6-4.6h1l-2.4,6.3C76.3,343.4,76.2,343.6,76.1,343.8z"/>
	<path style="fill:#666666;" d="M83.5,342c-0.4,0.3-0.9,0.5-1.6,0.5c-0.4,0-0.8-0.1-1.2-0.2c-0.3-0.1-0.6-0.3-0.8-0.6
		c-0.2-0.3-0.4-0.6-0.5-0.9c-0.1-0.4-0.2-0.8-0.2-1.2c0-0.4,0.1-0.8,0.2-1.2c0.1-0.4,0.3-0.7,0.5-0.9c0.2-0.3,0.5-0.5,0.8-0.6
		s0.7-0.2,1.1-0.2c0.5,0,0.9,0.1,1.2,0.3c0.3,0.2,0.6,0.5,0.8,0.8c0.2,0.3,0.3,0.7,0.4,1c0.1,0.4,0.1,0.7,0.1,1.1h-4.2
		c0,0.2,0,0.5,0.1,0.7s0.2,0.4,0.3,0.6c0.1,0.2,0.3,0.3,0.6,0.4c0.2,0.1,0.5,0.2,0.8,0.2c0.4,0,0.7-0.1,1-0.3
		c0.2-0.2,0.4-0.5,0.5-0.8h0.9C84.2,341.2,84,341.7,83.5,342z M83.3,338.4c-0.1-0.2-0.2-0.4-0.3-0.5c-0.1-0.1-0.3-0.3-0.5-0.3
		c-0.2-0.1-0.4-0.1-0.6-0.1c-0.2,0-0.5,0-0.6,0.1c-0.2,0.1-0.4,0.2-0.5,0.3c-0.1,0.1-0.2,0.3-0.3,0.5s-0.1,0.4-0.1,0.6h3.2
		C83.4,338.8,83.4,338.6,83.3,338.4z"/>
	<path style="fill:#666666;" d="M86.8,341.2v1.2h-1.2v-1.2H86.8z"/>
	<path style="fill:#666666;" d="M91.7,337.7c-0.2-0.2-0.5-0.3-0.9-0.3c-0.3,0-0.6,0.1-0.8,0.2c-0.2,0.1-0.4,0.3-0.5,0.5
		c-0.1,0.2-0.2,0.4-0.3,0.7c-0.1,0.3-0.1,0.5-0.1,0.8c0,0.3,0,0.5,0.1,0.8c0.1,0.2,0.2,0.5,0.3,0.7c0.1,0.2,0.3,0.3,0.5,0.5
		s0.5,0.2,0.7,0.2c0.5,0,0.8-0.1,1.1-0.4c0.3-0.2,0.4-0.6,0.5-1h0.9c-0.1,0.7-0.4,1.2-0.8,1.6c-0.4,0.4-1,0.6-1.7,0.6
		c-0.4,0-0.8-0.1-1.1-0.2c-0.3-0.1-0.6-0.3-0.8-0.6s-0.4-0.6-0.5-0.9c-0.1-0.3-0.2-0.7-0.2-1.2c0-0.4,0.1-0.8,0.2-1.2
		c0.1-0.4,0.3-0.7,0.5-1s0.5-0.5,0.8-0.6s0.7-0.2,1.2-0.2c0.3,0,0.6,0,0.9,0.1c0.3,0.1,0.5,0.2,0.7,0.4c0.2,0.2,0.4,0.4,0.5,0.6
		s0.2,0.5,0.3,0.9h-1C92.1,338.2,91.9,337.9,91.7,337.7z"/>
	<path style="fill:#666666;" d="M93.7,336.8h1.2l1.3,2l1.4-2h1.1l-1.9,2.6l2.2,3h-1.2l-1.6-2.3l-1.6,2.3h-1.1l2.1-2.9L93.7,336.8z"
		/>
	<path style="fill:#666666;" d="M104.8,339.7c0,0.1,0,0.2,0,0.3c0,0.2,0.1,0.3,0.3,0.3c0.2,0,0.3-0.1,0.5-0.2
		c0.2-0.2,0.3-0.3,0.5-0.6c0.1-0.2,0.3-0.5,0.4-0.8c0.1-0.3,0.1-0.6,0.1-0.9c0-0.4-0.1-0.8-0.2-1.2s-0.4-0.6-0.7-0.9
		c-0.3-0.2-0.6-0.4-0.9-0.6c-0.3-0.1-0.7-0.2-1.1-0.2c-0.5,0-0.9,0.1-1.3,0.3s-0.7,0.4-1,0.8c-0.3,0.3-0.5,0.7-0.7,1.1
		c-0.2,0.4-0.3,0.9-0.3,1.3c0,0.5,0.1,0.9,0.3,1.4c0.2,0.4,0.4,0.8,0.7,1.1c0.3,0.3,0.7,0.5,1.1,0.7c0.4,0.2,0.8,0.3,1.3,0.3
		c0.5,0,1-0.1,1.5-0.4c0.5-0.2,0.9-0.6,1.2-1h0.7c-0.2,0.3-0.4,0.6-0.6,0.8c-0.2,0.2-0.5,0.4-0.8,0.6c-0.3,0.2-0.6,0.3-0.9,0.4
		c-0.3,0.1-0.7,0.1-1,0.1c-0.6,0-1.1-0.1-1.6-0.3c-0.5-0.2-0.9-0.5-1.3-0.9c-0.4-0.4-0.6-0.8-0.9-1.3s-0.3-1-0.3-1.6
		c0-0.6,0.1-1.1,0.3-1.6c0.2-0.5,0.5-0.9,0.9-1.3c0.4-0.4,0.8-0.6,1.3-0.9c0.5-0.2,1-0.3,1.5-0.3c0.5,0,1,0.1,1.4,0.2
		c0.4,0.2,0.8,0.4,1.2,0.7c0.3,0.3,0.6,0.6,0.8,1s0.3,0.9,0.3,1.3c0,0.5-0.1,0.9-0.3,1.3c-0.2,0.4-0.4,0.7-0.6,1s-0.5,0.5-0.8,0.6
		c-0.3,0.2-0.6,0.2-0.8,0.2c-0.2,0-0.3-0.1-0.5-0.2c-0.1-0.1-0.2-0.3-0.2-0.5h0c-0.2,0.2-0.4,0.4-0.6,0.5c-0.2,0.1-0.5,0.2-0.7,0.2
		c-0.2,0-0.4,0-0.6-0.1c-0.2-0.1-0.4-0.2-0.5-0.4c-0.1-0.2-0.2-0.3-0.3-0.5c-0.1-0.2-0.1-0.4-0.1-0.7c0-0.4,0.1-0.7,0.2-1.1
		s0.3-0.7,0.5-1s0.5-0.5,0.8-0.7c0.3-0.2,0.7-0.3,1-0.3c0.3,0,0.5,0.1,0.7,0.2c0.2,0.1,0.4,0.4,0.5,0.7l0.2-0.7h0.7l-0.9,3.1
		C104.8,339.5,104.8,339.6,104.8,339.7z M102.9,337.1c-0.2,0.1-0.4,0.3-0.5,0.6s-0.3,0.5-0.4,0.7c-0.1,0.3-0.1,0.5-0.1,0.8
		c0,0.3,0.1,0.6,0.3,0.8c0.2,0.2,0.4,0.3,0.7,0.3c0.2,0,0.5-0.1,0.7-0.2s0.4-0.3,0.5-0.6c0.2-0.2,0.3-0.5,0.4-0.8
		c0.1-0.3,0.1-0.5,0.1-0.7c0-0.1,0-0.3-0.1-0.4c0-0.1-0.1-0.2-0.2-0.3c-0.1-0.1-0.2-0.2-0.3-0.2s-0.2-0.1-0.3-0.1
		C103.4,336.9,103.1,337,102.9,337.1z"/>
	<path style="fill:#666666;" d="M112.7,342.5c-0.2,0-0.4-0.1-0.6-0.2c-0.1-0.1-0.2-0.4-0.2-0.7c-0.3,0.3-0.5,0.5-0.9,0.7
		s-0.7,0.2-1.1,0.2c-0.3,0-0.5,0-0.7-0.1c-0.2-0.1-0.4-0.1-0.6-0.3c-0.2-0.1-0.3-0.3-0.4-0.5c-0.1-0.2-0.1-0.4-0.1-0.7
		c0-0.3,0.1-0.6,0.2-0.8s0.2-0.4,0.4-0.5c0.2-0.1,0.4-0.2,0.6-0.3s0.5-0.1,0.7-0.2c0.3-0.1,0.5-0.1,0.7-0.1c0.2,0,0.4-0.1,0.6-0.1
		s0.3-0.1,0.4-0.2s0.2-0.2,0.2-0.4c0-0.2,0-0.4-0.1-0.5c-0.1-0.1-0.2-0.2-0.3-0.3s-0.3-0.1-0.4-0.1c-0.1,0-0.3,0-0.4,0
		c-0.4,0-0.7,0.1-1,0.2c-0.3,0.1-0.4,0.4-0.4,0.8h-0.9c0-0.3,0.1-0.6,0.2-0.9c0.1-0.2,0.3-0.4,0.5-0.6c0.2-0.1,0.5-0.3,0.7-0.3
		c0.3-0.1,0.6-0.1,0.9-0.1c0.3,0,0.5,0,0.8,0.1s0.5,0.1,0.7,0.2c0.2,0.1,0.4,0.3,0.5,0.5c0.1,0.2,0.2,0.5,0.2,0.8v2.9
		c0,0.2,0,0.4,0,0.5c0,0.1,0.1,0.2,0.3,0.2c0.1,0,0.2,0,0.3-0.1v0.7C113.2,342.4,113,342.5,112.7,342.5z M111.4,339.7
		c-0.2,0-0.4,0.1-0.6,0.1c-0.2,0-0.4,0.1-0.6,0.1c-0.2,0-0.4,0.1-0.6,0.2c-0.2,0.1-0.3,0.2-0.4,0.3s-0.2,0.3-0.2,0.5
		c0,0.2,0,0.3,0.1,0.4c0.1,0.1,0.1,0.2,0.2,0.3c0.1,0.1,0.2,0.1,0.3,0.1c0.1,0,0.3,0,0.4,0c0.3,0,0.6,0,0.8-0.1
		c0.2-0.1,0.4-0.2,0.5-0.3c0.1-0.1,0.2-0.3,0.3-0.4c0.1-0.1,0.1-0.3,0.1-0.4v-0.9C111.8,339.6,111.6,339.6,111.4,339.7z"/>
	<path style="fill:#666666;" d="M115.2,334.6v7.7h-0.9v-7.7H115.2z"/>
	<path style="fill:#666666;" d="M116.7,335.8v-1.1h0.9v1.1H116.7z M117.6,336.8v5.6h-0.9v-5.6H117.6z"/>
	<path style="fill:#666666;" d="M120,334.6v2.9h0c0.2-0.3,0.4-0.5,0.7-0.7c0.3-0.1,0.7-0.2,1.1-0.2c0.4,0,0.8,0.1,1.1,0.2
		c0.3,0.2,0.6,0.4,0.8,0.6c0.2,0.3,0.4,0.6,0.5,0.9c0.1,0.4,0.2,0.7,0.2,1.1s-0.1,0.8-0.2,1.1c-0.1,0.4-0.3,0.7-0.5,0.9
		c-0.2,0.3-0.5,0.5-0.8,0.6c-0.3,0.2-0.7,0.2-1.1,0.2c-0.1,0-0.3,0-0.5,0s-0.3-0.1-0.5-0.1c-0.2-0.1-0.3-0.2-0.5-0.3
		c-0.1-0.1-0.3-0.2-0.4-0.4h0v0.7H119v-7.7H120z M123.3,338.8c-0.1-0.2-0.2-0.5-0.3-0.7s-0.3-0.3-0.5-0.5s-0.5-0.2-0.8-0.2
		c-0.3,0-0.6,0.1-0.8,0.2c-0.2,0.1-0.4,0.3-0.5,0.5c-0.1,0.2-0.2,0.4-0.3,0.7c-0.1,0.3-0.1,0.5-0.1,0.8c0,0.3,0,0.5,0.1,0.8
		c0.1,0.3,0.2,0.5,0.3,0.7c0.1,0.2,0.3,0.4,0.5,0.5c0.2,0.1,0.5,0.2,0.8,0.2c0.3,0,0.6-0.1,0.8-0.2c0.2-0.1,0.4-0.3,0.5-0.5
		c0.1-0.2,0.2-0.4,0.3-0.7c0.1-0.3,0.1-0.5,0.1-0.8C123.4,339.3,123.3,339,123.3,338.8z"/>
	<path style="fill:#666666;" d="M129.7,342.5c-0.2,0-0.4-0.1-0.6-0.2c-0.1-0.1-0.2-0.4-0.2-0.7c-0.3,0.3-0.5,0.5-0.9,0.7
		s-0.7,0.2-1.1,0.2c-0.3,0-0.5,0-0.7-0.1c-0.2-0.1-0.4-0.1-0.6-0.3c-0.2-0.1-0.3-0.3-0.4-0.5c-0.1-0.2-0.1-0.4-0.1-0.7
		c0-0.3,0.1-0.6,0.2-0.8s0.2-0.4,0.4-0.5c0.2-0.1,0.4-0.2,0.6-0.3s0.5-0.1,0.7-0.2c0.3-0.1,0.5-0.1,0.7-0.1c0.2,0,0.4-0.1,0.6-0.1
		s0.3-0.1,0.4-0.2s0.2-0.2,0.2-0.4c0-0.2,0-0.4-0.1-0.5c-0.1-0.1-0.2-0.2-0.3-0.3s-0.3-0.1-0.4-0.1c-0.1,0-0.3,0-0.4,0
		c-0.4,0-0.7,0.1-1,0.2c-0.3,0.1-0.4,0.4-0.4,0.8h-0.9c0-0.3,0.1-0.6,0.2-0.9c0.1-0.2,0.3-0.4,0.5-0.6c0.2-0.1,0.5-0.3,0.7-0.3
		c0.3-0.1,0.6-0.1,0.9-0.1c0.3,0,0.5,0,0.8,0.1s0.5,0.1,0.7,0.2c0.2,0.1,0.4,0.3,0.5,0.5c0.1,0.2,0.2,0.5,0.2,0.8v2.9
		c0,0.2,0,0.4,0,0.5c0,0.1,0.1,0.2,0.3,0.2c0.1,0,0.2,0,0.3-0.1v0.7C130.2,342.4,130,342.5,129.7,342.5z M128.4,339.7
		c-0.2,0-0.4,0.1-0.6,0.1c-0.2,0-0.4,0.1-0.6,0.1c-0.2,0-0.4,0.1-0.6,0.2c-0.2,0.1-0.3,0.2-0.4,0.3s-0.2,0.3-0.2,0.5
		c0,0.2,0,0.3,0.1,0.4c0.1,0.1,0.1,0.2,0.2,0.3c0.1,0.1,0.2,0.1,0.3,0.1c0.1,0,0.3,0,0.4,0c0.3,0,0.6,0,0.8-0.1
		c0.2-0.1,0.4-0.2,0.5-0.3c0.1-0.1,0.2-0.3,0.3-0.4c0.1-0.1,0.1-0.3,0.1-0.4v-0.9C128.8,339.6,128.6,339.6,128.4,339.7z"/>
	<path style="fill:#666666;" d="M132.2,334.6v2.9h0c0.2-0.3,0.4-0.5,0.7-0.7c0.3-0.1,0.7-0.2,1.1-0.2c0.4,0,0.8,0.1,1.1,0.2
		c0.3,0.2,0.6,0.4,0.8,0.6c0.2,0.3,0.4,0.6,0.5,0.9c0.1,0.4,0.2,0.7,0.2,1.1s-0.1,0.8-0.2,1.1c-0.1,0.4-0.3,0.7-0.5,0.9
		c-0.2,0.3-0.5,0.5-0.8,0.6c-0.3,0.2-0.7,0.2-1.1,0.2c-0.1,0-0.3,0-0.5,0s-0.3-0.1-0.5-0.1c-0.2-0.1-0.3-0.2-0.5-0.3
		c-0.1-0.1-0.3-0.2-0.4-0.4h0v0.7h-0.9v-7.7H132.2z M135.5,338.8c-0.1-0.2-0.2-0.5-0.3-0.7s-0.3-0.3-0.5-0.5s-0.5-0.2-0.8-0.2
		c-0.3,0-0.6,0.1-0.8,0.2c-0.2,0.1-0.4,0.3-0.5,0.5c-0.1,0.2-0.2,0.4-0.3,0.7c-0.1,0.3-0.1,0.5-0.1,0.8c0,0.3,0,0.5,0.1,0.8
		c0.1,0.3,0.2,0.5,0.3,0.7c0.1,0.2,0.3,0.4,0.5,0.5c0.2,0.1,0.5,0.2,0.8,0.2c0.3,0,0.6-0.1,0.8-0.2c0.2-0.1,0.4-0.3,0.5-0.5
		c0.1-0.2,0.2-0.4,0.3-0.7c0.1-0.3,0.1-0.5,0.1-0.8C135.6,339.3,135.5,339,135.5,338.8z"/>
	<path style="fill:#666666;" d="M141.9,342.5c-0.2,0-0.4-0.1-0.6-0.2c-0.1-0.1-0.2-0.4-0.2-0.7c-0.3,0.3-0.5,0.5-0.9,0.7
		s-0.7,0.2-1.1,0.2c-0.3,0-0.5,0-0.7-0.1c-0.2-0.1-0.4-0.1-0.6-0.3c-0.2-0.1-0.3-0.3-0.4-0.5c-0.1-0.2-0.1-0.4-0.1-0.7
		c0-0.3,0.1-0.6,0.2-0.8s0.2-0.4,0.4-0.5c0.2-0.1,0.4-0.2,0.6-0.3s0.5-0.1,0.7-0.2c0.3-0.1,0.5-0.1,0.7-0.1c0.2,0,0.4-0.1,0.6-0.1
		s0.3-0.1,0.4-0.2s0.2-0.2,0.2-0.4c0-0.2,0-0.4-0.1-0.5c-0.1-0.1-0.2-0.2-0.3-0.3s-0.3-0.1-0.4-0.1c-0.1,0-0.3,0-0.4,0
		c-0.4,0-0.7,0.1-1,0.2c-0.3,0.1-0.4,0.4-0.4,0.8h-0.9c0-0.3,0.1-0.6,0.2-0.9c0.1-0.2,0.3-0.4,0.5-0.6c0.2-0.1,0.5-0.3,0.7-0.3
		c0.3-0.1,0.6-0.1,0.9-0.1c0.3,0,0.5,0,0.8,0.1s0.5,0.1,0.7,0.2c0.2,0.1,0.4,0.3,0.5,0.5c0.1,0.2,0.2,0.5,0.2,0.8v2.9
		c0,0.2,0,0.4,0,0.5c0,0.1,0.1,0.2,0.3,0.2c0.1,0,0.2,0,0.3-0.1v0.7C142.4,342.4,142.2,342.5,141.9,342.5z M140.6,339.7
		c-0.2,0-0.4,0.1-0.6,0.1c-0.2,0-0.4,0.1-0.6,0.1c-0.2,0-0.4,0.1-0.6,0.2c-0.2,0.1-0.3,0.2-0.4,0.3s-0.2,0.3-0.2,0.5
		c0,0.2,0,0.3,0.1,0.4c0.1,0.1,0.1,0.2,0.2,0.3c0.1,0.1,0.2,0.1,0.3,0.1c0.1,0,0.3,0,0.4,0c0.3,0,0.6,0,0.8-0.1
		c0.2-0.1,0.4-0.2,0.5-0.3c0.1-0.1,0.2-0.3,0.3-0.4c0.1-0.1,0.1-0.3,0.1-0.4v-0.9C141,339.6,140.8,339.6,140.6,339.7z"/>
	<path style="fill:#666666;" d="M146.4,338.9v0.9h-3.1v-0.9H146.4z"/>
	<path style="fill:#666666;" d="M147.7,335.8v-1.1h0.9v1.1H147.7z M148.6,336.8v5.6h-0.9v-5.6H148.6z"/>
	<path style="fill:#666666;" d="M150.9,336.8v0.9h0c0.4-0.7,1-1,1.8-1c0.4,0,0.7,0.1,0.9,0.2c0.2,0.1,0.4,0.2,0.6,0.4
		c0.2,0.2,0.3,0.4,0.3,0.6c0.1,0.2,0.1,0.5,0.1,0.8v3.7h-0.9v-3.8c0-0.3-0.1-0.6-0.3-0.8c-0.2-0.2-0.5-0.3-0.8-0.3
		c-0.3,0-0.5,0-0.7,0.1c-0.2,0.1-0.4,0.2-0.5,0.4s-0.2,0.3-0.3,0.6s-0.1,0.4-0.1,0.7v3.2H150v-5.6H150.9z"/>
	<path style="fill:#666666;" d="M159.4,337.7c-0.2-0.2-0.5-0.3-0.9-0.3c-0.3,0-0.6,0.1-0.8,0.2c-0.2,0.1-0.4,0.3-0.5,0.5
		c-0.1,0.2-0.2,0.4-0.3,0.7c-0.1,0.3-0.1,0.5-0.1,0.8c0,0.3,0,0.5,0.1,0.8c0.1,0.2,0.2,0.5,0.3,0.7c0.1,0.2,0.3,0.3,0.5,0.5
		s0.5,0.2,0.7,0.2c0.5,0,0.8-0.1,1.1-0.4c0.3-0.2,0.4-0.6,0.5-1h0.9c-0.1,0.7-0.4,1.2-0.8,1.6c-0.4,0.4-1,0.6-1.7,0.6
		c-0.4,0-0.8-0.1-1.1-0.2c-0.3-0.1-0.6-0.3-0.8-0.6s-0.4-0.6-0.5-0.9c-0.1-0.3-0.2-0.7-0.2-1.2c0-0.4,0.1-0.8,0.2-1.2
		c0.1-0.4,0.3-0.7,0.5-1s0.5-0.5,0.8-0.6s0.7-0.2,1.2-0.2c0.3,0,0.6,0,0.9,0.1c0.3,0.1,0.5,0.2,0.7,0.4c0.2,0.2,0.4,0.4,0.5,0.6
		s0.2,0.5,0.3,0.9h-1C159.7,338.2,159.6,337.9,159.4,337.7z"/>
	<path style="fill:#666666;" d="M163.2,341.2v1.2H162v-1.2H163.2z"/>
	<path style="fill:#666666;" d="M168.2,337.7c-0.2-0.2-0.5-0.3-0.9-0.3c-0.3,0-0.6,0.1-0.8,0.2c-0.2,0.1-0.4,0.3-0.5,0.5
		c-0.1,0.2-0.2,0.4-0.3,0.7c-0.1,0.3-0.1,0.5-0.1,0.8c0,0.3,0,0.5,0.1,0.8c0.1,0.2,0.2,0.5,0.3,0.7c0.1,0.2,0.3,0.3,0.5,0.5
		s0.5,0.2,0.7,0.2c0.5,0,0.8-0.1,1.1-0.4c0.3-0.2,0.4-0.6,0.5-1h0.9c-0.1,0.7-0.4,1.2-0.8,1.6c-0.4,0.4-1,0.6-1.7,0.6
		c-0.4,0-0.8-0.1-1.1-0.2c-0.3-0.1-0.6-0.3-0.8-0.6s-0.4-0.6-0.5-0.9c-0.1-0.3-0.2-0.7-0.2-1.2c0-0.4,0.1-0.8,0.2-1.2
		c0.1-0.4,0.3-0.7,0.5-1s0.5-0.5,0.8-0.6s0.7-0.2,1.2-0.2c0.3,0,0.6,0,0.9,0.1c0.3,0.1,0.5,0.2,0.7,0.4c0.2,0.2,0.4,0.4,0.5,0.6
		s0.2,0.5,0.3,0.9h-1C168.5,338.2,168.4,337.9,168.2,337.7z"/>
	<path style="fill:#666666;" d="M170.5,338.4c0.1-0.4,0.3-0.7,0.5-0.9s0.5-0.5,0.9-0.6c0.3-0.2,0.7-0.2,1.2-0.2
		c0.4,0,0.8,0.1,1.2,0.2s0.6,0.4,0.8,0.6s0.4,0.6,0.5,0.9s0.2,0.7,0.2,1.1c0,0.4-0.1,0.8-0.2,1.1c-0.1,0.4-0.3,0.7-0.5,0.9
		c-0.2,0.3-0.5,0.5-0.8,0.6s-0.7,0.2-1.2,0.2c-0.4,0-0.8-0.1-1.2-0.2c-0.3-0.1-0.6-0.4-0.9-0.6c-0.2-0.3-0.4-0.6-0.5-0.9
		c-0.1-0.4-0.2-0.7-0.2-1.1C170.3,339.2,170.4,338.8,170.5,338.4z M171.4,340.5c0.1,0.3,0.2,0.5,0.4,0.7c0.2,0.2,0.3,0.3,0.6,0.4
		c0.2,0.1,0.4,0.1,0.7,0.1s0.5,0,0.7-0.1c0.2-0.1,0.4-0.2,0.6-0.4c0.2-0.2,0.3-0.4,0.4-0.7c0.1-0.3,0.1-0.6,0.1-0.9
		c0-0.3,0-0.6-0.1-0.9c-0.1-0.3-0.2-0.5-0.4-0.7c-0.2-0.2-0.3-0.3-0.6-0.4c-0.2-0.1-0.4-0.1-0.7-0.1s-0.5,0-0.7,0.1
		c-0.2,0.1-0.4,0.2-0.6,0.4c-0.2,0.2-0.3,0.4-0.4,0.7c-0.1,0.3-0.1,0.6-0.1,0.9C171.3,339.9,171.3,340.2,171.4,340.5z"/>
	<path style="fill:#666666;" d="M177.7,336.8v0.8h0c0.4-0.6,1-1,1.8-1c0.3,0,0.7,0.1,0.9,0.2c0.3,0.1,0.5,0.4,0.6,0.7
		c0.2-0.3,0.4-0.5,0.7-0.7c0.3-0.2,0.6-0.2,1-0.2c0.3,0,0.5,0,0.8,0.1c0.2,0.1,0.4,0.2,0.6,0.3c0.2,0.1,0.3,0.3,0.4,0.5
		c0.1,0.2,0.1,0.5,0.1,0.7v4.1h-0.9v-3.7c0-0.2,0-0.3,0-0.5c0-0.2-0.1-0.3-0.2-0.4c-0.1-0.1-0.2-0.2-0.3-0.3
		c-0.1-0.1-0.3-0.1-0.5-0.1c-0.5,0-0.8,0.1-1.1,0.4c-0.3,0.3-0.4,0.6-0.4,1v3.5h-0.9v-3.7c0-0.2,0-0.3,0-0.5c0-0.2-0.1-0.3-0.2-0.4
		c-0.1-0.1-0.2-0.2-0.3-0.3c-0.1-0.1-0.3-0.1-0.5-0.1c-0.3,0-0.5,0.1-0.7,0.2c-0.2,0.1-0.3,0.2-0.5,0.4c-0.1,0.2-0.2,0.3-0.3,0.5
		c-0.1,0.2-0.1,0.3-0.1,0.4v3.5h-0.9v-5.6H177.7z"/>
</g>
<g>
	<path style="fill:#666666;" d="M26.6,321.7c1-1.5,1.7-3.1,2.2-5l0.8,0.3c0,0.1-0.1,0.2-0.1,0.3c-0.2,0.5-0.4,1.2-0.8,1.9v7.5H28
		v-5.8c-0.3,0.7-0.7,1.3-1.1,1.7C26.8,322.3,26.7,322,26.6,321.7z M30.4,324.3l0.4-0.6c0.9,0.5,1.6,0.9,2.2,1.3l2-1.9h-4.3v-0.7
		c0.1-0.4,0.3-0.8,0.4-1.3h-1.6v-0.7h1.8c0.1-0.5,0.3-0.9,0.4-1.4H30v-0.7h1.9c0.1-0.3,0.1-0.6,0.2-1.1c0-0.2,0.1-0.3,0.1-0.4h0.9
		c0,0.1-0.1,0.4-0.2,0.7c-0.1,0.3-0.1,0.5-0.2,0.7h3.6v0.7h-3.8c-0.1,0.3-0.1,0.6-0.3,1.1c0,0.1-0.1,0.2-0.1,0.3h4.6v0.7H32
		c-0.1,0.4-0.3,0.8-0.4,1.3h4.6v0.8l-2.3,2.3c0.5,0.2,0.9,0.5,1.2,0.7l-0.5,0.7c-0.7-0.5-1.8-1.2-3.5-2.1
		C30.7,324.5,30.5,324.3,30.4,324.3z"/>
	<path style="fill:#666666;" d="M37.5,324.1H39v-5.2h3.1v-0.8h-4.4v-0.6h4.4v-0.8h0.8v0.8h4.4v0.6h-4.4v0.8H46v5.2h1.5v0.7h-10
		V324.1z M41.1,324.8l0.5,0.6c-0.2,0.1-0.5,0.2-0.8,0.3c-1.3,0.5-2.2,0.9-2.7,1c-0.2-0.3-0.3-0.6-0.4-0.7
		C38.9,325.7,40,325.3,41.1,324.8z M39.7,319.5v0.7h5.5v-0.7H39.7z M39.7,320.8v0.7h5.5v-0.7H39.7z M39.7,322.1v0.7h5.5v-0.7H39.7z
		 M39.7,323.4v0.7h5.5v-0.7H39.7z M43.4,325.5l0.4-0.6c1.8,0.5,3,0.9,3.6,1.1l-0.4,0.7C45.8,326.3,44.6,325.9,43.4,325.5z"/>
	<path style="fill:#666666;" d="M51.3,322.2v1.5h-1.4v-1.5H51.3z M51.3,325.4v1.4h-1.4v-1.4H51.3z"/>
	<path style="fill:#666666;" d="M59.1,320.9c0-0.3,0-0.6,0.1-0.9c0.1-0.3,0.1-0.6,0.2-0.8c0.1-0.3,0.3-0.5,0.4-0.7s0.4-0.3,0.7-0.5
		c0.3-0.1,0.6-0.2,1-0.2c0.4,0,0.7,0.1,1,0.2c0.3,0.1,0.5,0.3,0.7,0.5s0.3,0.4,0.4,0.7c0.1,0.3,0.2,0.5,0.2,0.8
		c0.1,0.3,0.1,0.6,0.1,0.9c0,0.3,0,0.6,0,0.9s0,0.6,0,0.9c0,0.3,0,0.6-0.1,0.9c-0.1,0.3-0.1,0.6-0.2,0.8c-0.1,0.3-0.3,0.5-0.4,0.7
		c-0.2,0.2-0.4,0.3-0.7,0.5c-0.3,0.1-0.6,0.2-1,0.2c-0.4,0-0.7-0.1-1-0.2c-0.3-0.1-0.5-0.3-0.7-0.5c-0.2-0.2-0.3-0.4-0.4-0.7
		c-0.1-0.3-0.2-0.5-0.2-0.8c-0.1-0.3-0.1-0.6-0.1-0.9c0-0.3,0-0.6,0-0.9S59.1,321.2,59.1,320.9z M60.1,322.7c0,0.4,0.1,0.7,0.2,1
		c0.1,0.3,0.3,0.6,0.5,0.8c0.2,0.2,0.5,0.3,0.9,0.3c0.4,0,0.7-0.1,0.9-0.3c0.2-0.2,0.4-0.5,0.5-0.8c0.1-0.3,0.2-0.6,0.2-1
		c0-0.4,0-0.7,0-1c0-0.2,0-0.4,0-0.6c0-0.2,0-0.5-0.1-0.7c0-0.2-0.1-0.4-0.1-0.7c-0.1-0.2-0.2-0.4-0.3-0.6s-0.3-0.3-0.4-0.4
		c-0.2-0.1-0.4-0.2-0.7-0.2c-0.3,0-0.5,0.1-0.7,0.2c-0.2,0.1-0.3,0.2-0.4,0.4s-0.2,0.4-0.3,0.6c-0.1,0.2-0.1,0.4-0.1,0.7
		c0,0.2-0.1,0.5-0.1,0.7c0,0.2,0,0.4,0,0.6C60.1,322,60.1,322.3,60.1,322.7z"/>
	<path style="fill:#666666;" d="M66.7,318.8l-0.4,2.2l0,0c0.2-0.2,0.4-0.3,0.6-0.4c0.3-0.1,0.5-0.1,0.8-0.1c0.3,0,0.7,0.1,1,0.2
		c0.3,0.1,0.6,0.3,0.8,0.5c0.2,0.2,0.4,0.5,0.5,0.8s0.2,0.7,0.2,1.1c0,0.3-0.1,0.6-0.2,0.9c-0.1,0.3-0.3,0.6-0.5,0.8
		c-0.2,0.2-0.5,0.4-0.8,0.6c-0.3,0.1-0.7,0.2-1.2,0.2c-0.3,0-0.6,0-0.9-0.1c-0.3-0.1-0.5-0.2-0.8-0.4s-0.4-0.4-0.5-0.7
		c-0.1-0.3-0.2-0.6-0.2-0.9H66c0,0.2,0.1,0.4,0.1,0.5c0.1,0.2,0.2,0.3,0.3,0.4s0.3,0.2,0.5,0.3c0.2,0.1,0.4,0.1,0.6,0.1
		c0.2,0,0.4,0,0.6-0.1s0.4-0.2,0.5-0.3c0.1-0.2,0.3-0.3,0.4-0.6c0.1-0.2,0.1-0.5,0.1-0.8c0-0.3,0-0.5-0.1-0.7
		c-0.1-0.2-0.2-0.4-0.4-0.6s-0.3-0.3-0.5-0.4c-0.2-0.1-0.4-0.1-0.7-0.1c-0.3,0-0.6,0.1-0.8,0.2c-0.2,0.1-0.4,0.3-0.6,0.5l-0.8,0
		l0.7-4h3.8v0.8H66.7z"/>
	<path style="fill:#666666;" d="M75.1,320.1c-0.3,0.5-0.6,1.1-0.9,1.7c-0.3,0.6-0.5,1.2-0.6,1.8c-0.2,0.6-0.3,1.2-0.3,1.8h-1
		c0-0.6,0.1-1.3,0.3-1.9c0.2-0.6,0.4-1.2,0.7-1.8c0.3-0.6,0.6-1.1,0.9-1.6c0.3-0.5,0.7-1,1.1-1.4h-4V318h5v0.8
		C75.8,319.1,75.4,319.6,75.1,320.1z"/>
	<path style="fill:#666666;" d="M79.6,325.5V320h-2v-0.7c0.3,0,0.5,0,0.8-0.1c0.2,0,0.5-0.1,0.7-0.2c0.2-0.1,0.4-0.3,0.5-0.4
		s0.2-0.4,0.3-0.7h0.7v7.7H79.6z"/>
	<path style="fill:#666666;" d="M86.6,318.9c0.1-0.2,0.3-0.4,0.5-0.6c0.2-0.2,0.4-0.3,0.7-0.4c0.3-0.1,0.6-0.1,0.8-0.1
		c0.4,0,0.8,0.1,1.1,0.2s0.5,0.3,0.7,0.4s0.3,0.4,0.4,0.6c0.1,0.2,0.1,0.5,0.1,0.7c0,0.3-0.1,0.7-0.3,0.9c-0.2,0.3-0.4,0.5-0.8,0.6
		c0.5,0.1,0.8,0.4,1,0.7c0.2,0.3,0.3,0.7,0.3,1.2c0,0.4-0.1,0.7-0.2,1c-0.1,0.3-0.3,0.5-0.5,0.7c-0.2,0.2-0.5,0.3-0.8,0.4
		c-0.3,0.1-0.6,0.2-1,0.2c-0.4,0-0.7,0-1-0.1c-0.3-0.1-0.6-0.2-0.8-0.4c-0.2-0.2-0.4-0.4-0.6-0.7c-0.1-0.3-0.2-0.6-0.2-1
		c0-0.5,0.1-0.8,0.3-1.2s0.6-0.6,1-0.7c-0.3-0.1-0.6-0.3-0.8-0.6c-0.2-0.3-0.3-0.6-0.3-1C86.4,319.5,86.5,319.2,86.6,318.9z
		 M87.6,324.4c0.3,0.3,0.7,0.4,1.2,0.4c0.2,0,0.4,0,0.6-0.1c0.2-0.1,0.4-0.2,0.5-0.3c0.1-0.1,0.2-0.3,0.3-0.5
		c0.1-0.2,0.1-0.4,0.1-0.6c0-0.2,0-0.4-0.1-0.6s-0.2-0.3-0.3-0.5c-0.1-0.1-0.3-0.2-0.5-0.3c-0.2-0.1-0.4-0.1-0.6-0.1
		c-0.2,0-0.4,0-0.6,0.1c-0.2,0.1-0.4,0.2-0.5,0.3c-0.1,0.1-0.3,0.3-0.3,0.5c-0.1,0.2-0.1,0.4-0.1,0.6
		C87.1,323.8,87.2,324.1,87.6,324.4z M87.5,320.4c0.1,0.2,0.2,0.3,0.3,0.4c0.1,0.1,0.3,0.2,0.4,0.2c0.2,0.1,0.3,0.1,0.5,0.1
		c0.4,0,0.7-0.1,0.9-0.3c0.2-0.2,0.4-0.5,0.4-0.9s-0.1-0.7-0.4-0.9c-0.2-0.2-0.5-0.3-0.9-0.3c-0.2,0-0.4,0-0.5,0.1
		c-0.2,0.1-0.3,0.1-0.4,0.2c-0.1,0.1-0.2,0.2-0.3,0.4c-0.1,0.1-0.1,0.3-0.1,0.5C87.4,320,87.4,320.2,87.5,320.4z"/>
	<path style="fill:#666666;" d="M92.6,318.9c0.1-0.2,0.3-0.4,0.5-0.6c0.2-0.2,0.4-0.3,0.7-0.4c0.3-0.1,0.6-0.1,0.8-0.1
		c0.4,0,0.8,0.1,1.1,0.2s0.5,0.3,0.7,0.4s0.3,0.4,0.4,0.6c0.1,0.2,0.1,0.5,0.1,0.7c0,0.3-0.1,0.7-0.3,0.9c-0.2,0.3-0.4,0.5-0.8,0.6
		c0.5,0.1,0.8,0.4,1,0.7c0.2,0.3,0.3,0.7,0.3,1.2c0,0.4-0.1,0.7-0.2,1c-0.1,0.3-0.3,0.5-0.5,0.7c-0.2,0.2-0.5,0.3-0.8,0.4
		c-0.3,0.1-0.6,0.2-1,0.2c-0.4,0-0.7,0-1-0.1c-0.3-0.1-0.6-0.2-0.8-0.4c-0.2-0.2-0.4-0.4-0.6-0.7c-0.1-0.3-0.2-0.6-0.2-1
		c0-0.5,0.1-0.8,0.3-1.2s0.6-0.6,1-0.7c-0.3-0.1-0.6-0.3-0.8-0.6c-0.2-0.3-0.3-0.6-0.3-1C92.4,319.5,92.5,319.2,92.6,318.9z
		 M93.6,324.4c0.3,0.3,0.7,0.4,1.2,0.4c0.2,0,0.4,0,0.6-0.1c0.2-0.1,0.4-0.2,0.5-0.3c0.1-0.1,0.2-0.3,0.3-0.5
		c0.1-0.2,0.1-0.4,0.1-0.6c0-0.2,0-0.4-0.1-0.6s-0.2-0.3-0.3-0.5c-0.1-0.1-0.3-0.2-0.5-0.3c-0.2-0.1-0.4-0.1-0.6-0.1
		c-0.2,0-0.4,0-0.6,0.1c-0.2,0.1-0.4,0.2-0.5,0.3c-0.1,0.1-0.3,0.3-0.3,0.5c-0.1,0.2-0.1,0.4-0.1,0.6
		C93.1,323.8,93.2,324.1,93.6,324.4z M93.5,320.4c0.1,0.2,0.2,0.3,0.3,0.4c0.1,0.1,0.3,0.2,0.4,0.2c0.2,0.1,0.3,0.1,0.5,0.1
		c0.4,0,0.7-0.1,0.9-0.3c0.2-0.2,0.4-0.5,0.4-0.9s-0.1-0.7-0.4-0.9c-0.2-0.2-0.5-0.3-0.9-0.3c-0.2,0-0.4,0-0.5,0.1
		c-0.2,0.1-0.3,0.1-0.4,0.2c-0.1,0.1-0.2,0.2-0.3,0.4c-0.1,0.1-0.1,0.3-0.1,0.5C93.4,320,93.4,320.2,93.5,320.4z"/>
	<path style="fill:#666666;" d="M100.6,325.5V320h-2v-0.7c0.3,0,0.5,0,0.8-0.1c0.2,0,0.5-0.1,0.7-0.2c0.2-0.1,0.4-0.3,0.5-0.4
		s0.2-0.4,0.3-0.7h0.7v7.7H100.6z"/>
	<path style="fill:#666666;" d="M105.7,318.8l-0.4,2.2l0,0c0.2-0.2,0.4-0.3,0.6-0.4c0.3-0.1,0.5-0.1,0.8-0.1c0.3,0,0.7,0.1,1,0.2
		c0.3,0.1,0.6,0.3,0.8,0.5c0.2,0.2,0.4,0.5,0.5,0.8s0.2,0.7,0.2,1.1c0,0.3-0.1,0.6-0.2,0.9c-0.1,0.3-0.3,0.6-0.5,0.8
		c-0.2,0.2-0.5,0.4-0.8,0.6c-0.3,0.1-0.7,0.2-1.2,0.2c-0.3,0-0.6,0-0.9-0.1c-0.3-0.1-0.5-0.2-0.8-0.4s-0.4-0.4-0.5-0.7
		c-0.1-0.3-0.2-0.6-0.2-0.9h0.9c0,0.2,0.1,0.4,0.1,0.5c0.1,0.2,0.2,0.3,0.3,0.4s0.3,0.2,0.5,0.3c0.2,0.1,0.4,0.1,0.6,0.1
		c0.2,0,0.4,0,0.6-0.1s0.4-0.2,0.5-0.3c0.1-0.2,0.3-0.3,0.4-0.6c0.1-0.2,0.1-0.5,0.1-0.8c0-0.3,0-0.5-0.1-0.7
		c-0.1-0.2-0.2-0.4-0.4-0.6s-0.3-0.3-0.5-0.4c-0.2-0.1-0.4-0.1-0.7-0.1c-0.3,0-0.6,0.1-0.8,0.2c-0.2,0.1-0.4,0.3-0.6,0.5l-0.8,0
		l0.7-4h3.8v0.8H105.7z"/>
	<path style="fill:#666666;" d="M114.7,318.8l-0.4,2.2l0,0c0.2-0.2,0.4-0.3,0.6-0.4c0.3-0.1,0.5-0.1,0.8-0.1c0.3,0,0.7,0.1,1,0.2
		c0.3,0.1,0.6,0.3,0.8,0.5c0.2,0.2,0.4,0.5,0.5,0.8s0.2,0.7,0.2,1.1c0,0.3-0.1,0.6-0.2,0.9c-0.1,0.3-0.3,0.6-0.5,0.8
		c-0.2,0.2-0.5,0.4-0.8,0.6c-0.3,0.1-0.7,0.2-1.2,0.2c-0.3,0-0.6,0-0.9-0.1c-0.3-0.1-0.5-0.2-0.8-0.4s-0.4-0.4-0.5-0.7
		c-0.1-0.3-0.2-0.6-0.2-0.9h0.9c0,0.2,0.1,0.4,0.1,0.5c0.1,0.2,0.2,0.3,0.3,0.4s0.3,0.2,0.5,0.3c0.2,0.1,0.4,0.1,0.6,0.1
		c0.2,0,0.4,0,0.6-0.1s0.4-0.2,0.5-0.3c0.1-0.2,0.3-0.3,0.4-0.6c0.1-0.2,0.1-0.5,0.1-0.8c0-0.3,0-0.5-0.1-0.7
		c-0.1-0.2-0.2-0.4-0.4-0.6s-0.3-0.3-0.5-0.4c-0.2-0.1-0.4-0.1-0.7-0.1c-0.3,0-0.6,0.1-0.8,0.2c-0.2,0.1-0.4,0.3-0.6,0.5l-0.8,0
		l0.7-4h3.8v0.8H114.7z"/>
	<path style="fill:#666666;" d="M121.6,325.5V320h-2v-0.7c0.3,0,0.5,0,0.8-0.1c0.2,0,0.5-0.1,0.7-0.2c0.2-0.1,0.4-0.3,0.5-0.4
		s0.2-0.4,0.3-0.7h0.7v7.7H121.6z"/>
	<path style="fill:#666666;" d="M125.6,318.9c0.1-0.2,0.3-0.4,0.5-0.6c0.2-0.2,0.4-0.3,0.7-0.4c0.3-0.1,0.6-0.1,0.8-0.1
		c0.4,0,0.8,0.1,1.1,0.2s0.5,0.3,0.7,0.4s0.3,0.4,0.4,0.6c0.1,0.2,0.1,0.5,0.1,0.7c0,0.3-0.1,0.7-0.3,0.9c-0.2,0.3-0.4,0.5-0.8,0.6
		c0.5,0.1,0.8,0.4,1,0.7c0.2,0.3,0.3,0.7,0.3,1.2c0,0.4-0.1,0.7-0.2,1c-0.1,0.3-0.3,0.5-0.5,0.7c-0.2,0.2-0.5,0.3-0.8,0.4
		c-0.3,0.1-0.6,0.2-1,0.2c-0.4,0-0.7,0-1-0.1c-0.3-0.1-0.6-0.2-0.8-0.4c-0.2-0.2-0.4-0.4-0.6-0.7c-0.1-0.3-0.2-0.6-0.2-1
		c0-0.5,0.1-0.8,0.3-1.2s0.6-0.6,1-0.7c-0.3-0.1-0.6-0.3-0.8-0.6c-0.2-0.3-0.3-0.6-0.3-1C125.4,319.5,125.5,319.2,125.6,318.9z
		 M126.6,324.4c0.3,0.3,0.7,0.4,1.2,0.4c0.2,0,0.4,0,0.6-0.1c0.2-0.1,0.4-0.2,0.5-0.3c0.1-0.1,0.2-0.3,0.3-0.5
		c0.1-0.2,0.1-0.4,0.1-0.6c0-0.2,0-0.4-0.1-0.6s-0.2-0.3-0.3-0.5c-0.1-0.1-0.3-0.2-0.5-0.3c-0.2-0.1-0.4-0.1-0.6-0.1
		c-0.2,0-0.4,0-0.6,0.1c-0.2,0.1-0.4,0.2-0.5,0.3c-0.1,0.1-0.3,0.3-0.3,0.5c-0.1,0.2-0.1,0.4-0.1,0.6
		C126.1,323.8,126.3,324.1,126.6,324.4z M126.5,320.4c0.1,0.2,0.2,0.3,0.3,0.4c0.1,0.1,0.3,0.2,0.4,0.2c0.2,0.1,0.3,0.1,0.5,0.1
		c0.4,0,0.7-0.1,0.9-0.3c0.2-0.2,0.4-0.5,0.4-0.9s-0.1-0.7-0.4-0.9c-0.2-0.2-0.5-0.3-0.9-0.3c-0.2,0-0.4,0-0.5,0.1
		c-0.2,0.1-0.3,0.1-0.4,0.2c-0.1,0.1-0.2,0.2-0.3,0.4c-0.1,0.1-0.1,0.3-0.1,0.5C126.4,320,126.4,320.2,126.5,320.4z"/>
	<path style="fill:#666666;" d="M131.6,318.9c0.1-0.2,0.3-0.4,0.5-0.6c0.2-0.2,0.4-0.3,0.7-0.4c0.3-0.1,0.6-0.1,0.8-0.1
		c0.4,0,0.8,0.1,1.1,0.2s0.5,0.3,0.7,0.4s0.3,0.4,0.4,0.6c0.1,0.2,0.1,0.5,0.1,0.7c0,0.3-0.1,0.7-0.3,0.9c-0.2,0.3-0.4,0.5-0.8,0.6
		c0.5,0.1,0.8,0.4,1,0.7c0.2,0.3,0.3,0.7,0.3,1.2c0,0.4-0.1,0.7-0.2,1c-0.1,0.3-0.3,0.5-0.5,0.7c-0.2,0.2-0.5,0.3-0.8,0.4
		c-0.3,0.1-0.6,0.2-1,0.2c-0.4,0-0.7,0-1-0.1c-0.3-0.1-0.6-0.2-0.8-0.4c-0.2-0.2-0.4-0.4-0.6-0.7c-0.1-0.3-0.2-0.6-0.2-1
		c0-0.5,0.1-0.8,0.3-1.2s0.6-0.6,1-0.7c-0.3-0.1-0.6-0.3-0.8-0.6c-0.2-0.3-0.3-0.6-0.3-1C131.4,319.5,131.5,319.2,131.6,318.9z
		 M132.6,324.4c0.3,0.3,0.7,0.4,1.2,0.4c0.2,0,0.4,0,0.6-0.1c0.2-0.1,0.4-0.2,0.5-0.3c0.1-0.1,0.2-0.3,0.3-0.5
		c0.1-0.2,0.1-0.4,0.1-0.6c0-0.2,0-0.4-0.1-0.6s-0.2-0.3-0.3-0.5c-0.1-0.1-0.3-0.2-0.5-0.3c-0.2-0.1-0.4-0.1-0.6-0.1
		c-0.2,0-0.4,0-0.6,0.1c-0.2,0.1-0.4,0.2-0.5,0.3c-0.1,0.1-0.3,0.3-0.3,0.5c-0.1,0.2-0.1,0.4-0.1,0.6
		C132.1,323.8,132.3,324.1,132.6,324.4z M132.5,320.4c0.1,0.2,0.2,0.3,0.3,0.4c0.1,0.1,0.3,0.2,0.4,0.2c0.2,0.1,0.3,0.1,0.5,0.1
		c0.4,0,0.7-0.1,0.9-0.3c0.2-0.2,0.4-0.5,0.4-0.9s-0.1-0.7-0.4-0.9c-0.2-0.2-0.5-0.3-0.9-0.3c-0.2,0-0.4,0-0.5,0.1
		c-0.2,0.1-0.3,0.1-0.4,0.2c-0.1,0.1-0.2,0.2-0.3,0.4c-0.1,0.1-0.1,0.3-0.1,0.5C132.4,320,132.4,320.2,132.5,320.4z"/>
	<path style="fill:#666666;" d="M139.2,322.1v-0.8h5.8v0.8H139.2z"/>
	<path style="fill:#666666;" d="M150.5,325.5V320h-2v-0.7c0.3,0,0.5,0,0.8-0.1c0.2,0,0.5-0.1,0.7-0.2c0.2-0.1,0.4-0.3,0.5-0.4
		s0.2-0.4,0.3-0.7h0.7v7.7H150.5z"/>
	<path style="fill:#666666;" d="M156.5,325.5V320h-2v-0.7c0.3,0,0.5,0,0.8-0.1c0.2,0,0.5-0.1,0.7-0.2c0.2-0.1,0.4-0.3,0.5-0.4
		s0.2-0.4,0.3-0.7h0.7v7.7H156.5z"/>
	<path style="fill:#666666;" d="M163.6,319c-0.2-0.2-0.5-0.3-0.9-0.3c-0.4,0-0.7,0.1-0.9,0.3c-0.2,0.2-0.4,0.4-0.6,0.7
		c-0.1,0.3-0.2,0.6-0.3,0.9c-0.1,0.3-0.1,0.7-0.1,1l0,0c0.2-0.4,0.5-0.6,0.8-0.8c0.3-0.2,0.7-0.2,1.1-0.2c0.4,0,0.7,0.1,1,0.2
		c0.3,0.1,0.5,0.3,0.7,0.5s0.4,0.5,0.5,0.8c0.1,0.3,0.2,0.6,0.2,1c0,0.3,0,0.6-0.1,0.9s-0.2,0.6-0.4,0.8s-0.5,0.5-0.8,0.6
		c-0.3,0.2-0.7,0.2-1.2,0.2c-0.6,0-1-0.1-1.4-0.3c-0.3-0.2-0.6-0.5-0.8-0.9c-0.2-0.4-0.3-0.8-0.4-1.2c-0.1-0.4-0.1-0.8-0.1-1.3
		c0-0.5,0-1,0.1-1.5c0.1-0.5,0.2-0.9,0.5-1.3c0.2-0.4,0.5-0.7,0.9-0.9s0.8-0.3,1.4-0.3c0.6,0,1.1,0.2,1.5,0.5
		c0.4,0.3,0.6,0.8,0.6,1.5H164C164,319.4,163.8,319.2,163.6,319z M161.9,321.5c-0.2,0.1-0.4,0.2-0.5,0.4c-0.1,0.2-0.2,0.3-0.3,0.6
		c-0.1,0.2-0.1,0.4-0.1,0.7c0,0.2,0,0.5,0.1,0.7c0.1,0.2,0.2,0.4,0.3,0.5c0.1,0.2,0.3,0.3,0.5,0.4c0.2,0.1,0.4,0.1,0.7,0.1
		s0.5,0,0.7-0.1c0.2-0.1,0.4-0.2,0.5-0.4s0.2-0.3,0.3-0.5s0.1-0.4,0.1-0.6c0-0.2,0-0.5-0.1-0.7c-0.1-0.2-0.2-0.4-0.3-0.6
		c-0.1-0.2-0.3-0.3-0.5-0.4c-0.2-0.1-0.4-0.1-0.7-0.1S162.1,321.4,161.9,321.5z"/>
	<path style="fill:#666666;" d="M169.9,320.1c-0.3,0.5-0.6,1.1-0.9,1.7c-0.3,0.6-0.5,1.2-0.6,1.8c-0.2,0.6-0.3,1.2-0.3,1.8h-1
		c0-0.6,0.1-1.3,0.3-1.9c0.2-0.6,0.4-1.2,0.7-1.8c0.3-0.6,0.6-1.1,0.9-1.6c0.3-0.5,0.7-1,1.1-1.4h-4V318h5v0.8
		C170.7,319.1,170.3,319.6,169.9,320.1z"/>
	<path style="fill:#666666;" d="M172,320.9c0-0.3,0-0.6,0.1-0.9c0.1-0.3,0.1-0.6,0.2-0.8c0.1-0.3,0.3-0.5,0.4-0.7s0.4-0.3,0.7-0.5
		c0.3-0.1,0.6-0.2,1-0.2c0.4,0,0.7,0.1,1,0.2c0.3,0.1,0.5,0.3,0.7,0.5s0.3,0.4,0.4,0.7c0.1,0.3,0.2,0.5,0.2,0.8
		c0.1,0.3,0.1,0.6,0.1,0.9c0,0.3,0,0.6,0,0.9s0,0.6,0,0.9c0,0.3,0,0.6-0.1,0.9c-0.1,0.3-0.1,0.6-0.2,0.8c-0.1,0.3-0.3,0.5-0.4,0.7
		c-0.2,0.2-0.4,0.3-0.7,0.5c-0.3,0.1-0.6,0.2-1,0.2c-0.4,0-0.7-0.1-1-0.2c-0.3-0.1-0.5-0.3-0.7-0.5c-0.2-0.2-0.3-0.4-0.4-0.7
		c-0.1-0.3-0.2-0.5-0.2-0.8c-0.1-0.3-0.1-0.6-0.1-0.9c0-0.3,0-0.6,0-0.9S172,321.2,172,320.9z M173,322.7c0,0.4,0.1,0.7,0.2,1
		c0.1,0.3,0.3,0.6,0.5,0.8c0.2,0.2,0.5,0.3,0.9,0.3c0.4,0,0.7-0.1,0.9-0.3c0.2-0.2,0.4-0.5,0.5-0.8c0.1-0.3,0.2-0.6,0.2-1
		c0-0.4,0-0.7,0-1c0-0.2,0-0.4,0-0.6c0-0.2,0-0.5-0.1-0.7c0-0.2-0.1-0.4-0.1-0.7c-0.1-0.2-0.2-0.4-0.3-0.6s-0.3-0.3-0.4-0.4
		c-0.2-0.1-0.4-0.2-0.7-0.2c-0.3,0-0.5,0.1-0.7,0.2c-0.2,0.1-0.3,0.2-0.4,0.4s-0.2,0.4-0.3,0.6c-0.1,0.2-0.1,0.4-0.1,0.7
		c0,0.2-0.1,0.5-0.1,0.7c0,0.2,0,0.4,0,0.6C173,322,173,322.3,173,322.7z"/>
</g>
<g>
	<g id="形状_2_copy_3_副本_4_5_">
		<g>
			<path style="fill-rule:evenodd;clip-rule:evenodd;fill:#CCCCCC;" d="M30.4,435.7c-1.3,2.5-2.4,4.6-3.7,7.2h1.8
				c0.3-0.6,0.5-1,0.9-1.7c0.9,0,1.6,0,2.5,0c-0.2-0.5-0.3-0.9-0.5-1.4h-1.4c0.4-0.8,0.6-1.3,1.3-2.4c0.7,1.9,1.3,3.8,1.9,5.5h1.6
				c-0.9-2.5-1.7-4.7-2.5-7.2H30.4z M35.3,442.9h1.5l0.3-7.2l-1.5,0L35.3,442.9z M37.7,442.9h1.6l0.2-5.4h-1.5L37.7,442.9z
				 M38,435.7l0,1.2c0,0,1.2,0,1.5,0l0.1-1.2C38.2,435.7,38.2,435.7,38,435.7z M47.8,437.6c-0.3-0.1-0.6-0.1-0.9-0.1
				c-0.2,0-0.4,0-0.5,0.1c-0.2,0-0.3,0.1-0.5,0.1c-0.1,0.1-0.3,0.1-0.4,0.2c-0.1,0.1-0.2,0.2-0.3,0.3c-0.1,0.1-0.1,0.2-0.2,0.3
				c-0.1-0.2-0.1-0.3-0.2-0.4c-0.1-0.1-0.1-0.2-0.2-0.2c-0.1-0.1-0.2-0.1-0.3-0.2c-0.1-0.1-0.3-0.1-0.4-0.1c-0.1,0-0.3,0-0.5,0
				c-0.2,0-0.4,0-0.6,0.1c-0.2,0.1-0.4,0.1-0.5,0.2c-0.1,0.1-0.3,0.2-0.4,0.3c-0.1,0.1-0.2,0.2-0.3,0.4l0-0.9h-1.4l-0.2,5.4
				c0,0,1.2,0,1.5,0c0-0.5,0-1.1,0.1-1.9c0-0.8,0.1-1.3,0.2-1.6c0.1-0.3,0.2-0.5,0.4-0.6c0.2-0.2,0.4-0.2,0.7-0.2
				c0.1,0,0.3,0,0.4,0.1c0.1,0,0.2,0.1,0.3,0.2c0.1,0.1,0.1,0.2,0.2,0.3c0,0.1,0,0.2,0,0.4c0,0.3,0,0.9-0.1,1.7
				c0,0.8-0.1,1.4-0.1,1.7c0.3,0,1.2,0,1.5,0l0-1.5c0-0.5,0-0.9,0.1-1.3c0-0.3,0.1-0.6,0.1-0.8c0.1-0.2,0.1-0.3,0.3-0.5
				c0.1-0.1,0.2-0.2,0.4-0.3c0.1-0.1,0.3-0.1,0.4-0.1c0.2,0,0.3,0,0.4,0.1c0.1,0.1,0.2,0.1,0.3,0.3c0.1,0.1,0.1,0.3,0.1,0.6
				c0,0.2,0,0.5,0,0.8l-0.1,1.2c0,0.5-0.1,1-0.1,1.4c0.3,0,1.2,0,1.5,0c0-0.4,0-1,0.1-1.7c0-0.7,0.1-1.3,0.1-1.6c0-0.3,0-0.6,0-0.7
				c0-0.3-0.1-0.6-0.2-0.8C48.3,437.8,48.1,437.7,47.8,437.6z M53.5,437.6c-0.3-0.1-0.7-0.1-1.1-0.1c-0.3,0-0.7,0-1.1,0.1
				c-0.4,0-1.3,0.2-1.3,0.2l-0.2,1c0,0,1.5-0.5,2.1-0.5c0.2,0,0.3,0,0.5,0.1c0.1,0,0.3,0.1,0.3,0.2c0.1,0.1,0.1,0.2,0.1,0.3
				c0,0.1,0,0.1,0,0.2c0,0.1-0.1,0.1-0.1,0.2c-0.1,0.1-0.1,0.1-0.2,0.2c-0.1,0-0.2,0.1-0.3,0.1c-0.1,0-0.3,0.1-0.4,0.1
				c-0.5,0.1-0.9,0.2-1.2,0.3c-0.3,0.1-0.5,0.2-0.7,0.3c-0.2,0.1-0.3,0.2-0.4,0.4c-0.1,0.1-0.2,0.3-0.2,0.4
				c-0.1,0.1-0.1,0.3-0.1,0.4c0,0.3,0.1,0.5,0.2,0.8c0.1,0.3,0.3,0.5,0.6,0.6c0.3,0.1,0.7,0.2,1.1,0.2c0.1,0,0.3,0,0.4,0
				c0.1,0,0.3,0,0.6-0.1c0.1-0.4,0.2-0.7,0.3-0.9c-0.2,0.1-0.4,0.1-0.5,0.1c-0.1,0-0.2,0-0.4,0c-0.2,0-0.3,0-0.5-0.1
				c-0.1,0-0.2-0.1-0.3-0.2c-0.1-0.1-0.1-0.2-0.1-0.4c0-0.1,0-0.2,0.1-0.3c0-0.1,0.1-0.2,0.2-0.2c0.1-0.1,0.2-0.1,0.3-0.2
				c0.1-0.1,0.2-0.1,0.4-0.2c0.1,0,0.3-0.1,0.5-0.2c0.2-0.1,0.4-0.1,0.5-0.1c0.1,0,0.2-0.1,0.2-0.1c0.1,0,0.2-0.1,0.3-0.2l-0.2,2.8
				h1.5c0,0,0-1.7,0.1-2.5c0.1-0.8,0.1-1.3,0.1-1.5c0-0.4-0.1-0.7-0.3-0.8C54.1,437.8,53.9,437.6,53.5,437.6z M63,437.6
				c-0.3-0.1-0.6-0.1-0.9-0.1c-0.2,0-0.4,0-0.5,0.1c-0.2,0-0.3,0.1-0.5,0.1c-0.1,0.1-0.3,0.1-0.4,0.2c-0.1,0.1-0.2,0.2-0.3,0.3
				c-0.1,0.1-0.1,0.2-0.2,0.3c-0.1-0.2-0.1-0.3-0.2-0.4c-0.1-0.1-0.1-0.2-0.2-0.2c-0.1-0.1-0.2-0.1-0.3-0.2
				c-0.1-0.1-0.3-0.1-0.4-0.1c-0.1,0-0.3,0-0.5,0c-0.2,0-0.4,0-0.6,0.1c-0.2,0.1-0.4,0.1-0.5,0.2c-0.1,0.1-0.3,0.2-0.4,0.3
				c-0.1,0.1-0.2,0.2-0.3,0.4l0-0.9h-1.4l-0.2,5.4h1.5c0,0,0-1.1,0.1-1.9c0-0.8,0.1-1.3,0.2-1.6c0.1-0.3,0.2-0.5,0.4-0.6
				c0.2-0.2,0.4-0.2,0.7-0.2c0.1,0,0.3,0,0.4,0.1c0.1,0,0.2,0.1,0.3,0.2c0.1,0.1,0.1,0.2,0.2,0.3c0,0.1,0,0.2,0,0.4
				c0,0.3,0,0.9-0.1,1.7c0,0.8-0.1,1.4-0.1,1.7c0.3,0,1.2,0,1.5,0l0-1.5c0-0.5,0-0.9,0.1-1.3c0-0.3,0.1-0.6,0.1-0.8
				c0.1-0.2,0.1-0.3,0.3-0.5c0.1-0.1,0.2-0.2,0.4-0.3c0.1-0.1,0.3-0.1,0.4-0.1c0.2,0,0.3,0,0.4,0.1c0.1,0.1,0.2,0.1,0.3,0.3
				c0.1,0.1,0.1,0.3,0.1,0.6c0,0.2,0,0.5,0,0.8l-0.1,1.2c0,0.5-0.1,1-0.1,1.4c0.3,0,1.2,0,1.5,0c0-0.4,0-1,0.1-1.7
				c0-0.7,0.1-1.3,0.1-1.6c0-0.3,0-0.6,0-0.7c0-0.3-0.1-0.6-0.2-0.8C63.5,437.8,63.2,437.7,63,437.6z M68.7,437.6
				c-0.3-0.1-0.7-0.1-1.1-0.1c-0.3,0-0.7,0-1.1,0.1c-0.4,0-1.3,0.2-1.3,0.2l-0.2,1c0,0,1.5-0.5,2.1-0.5c0.2,0,0.3,0,0.5,0.1
				c0.1,0,0.3,0.1,0.4,0.2c0.1,0.1,0.1,0.2,0.1,0.3c0,0.1,0,0.1,0,0.2c0,0.1-0.1,0.1-0.1,0.2c-0.1,0.1-0.1,0.1-0.2,0.2
				c-0.1,0-0.2,0.1-0.3,0.1c-0.1,0-0.3,0.1-0.4,0.1c-0.5,0.1-0.9,0.2-1.2,0.3c-0.3,0.1-0.5,0.2-0.7,0.3c-0.2,0.1-0.3,0.2-0.4,0.4
				c-0.1,0.1-0.2,0.3-0.2,0.4c-0.1,0.1-0.1,0.3-0.1,0.4c0,0.3,0.1,0.5,0.2,0.8c0.1,0.3,0.3,0.5,0.6,0.6c0.3,0.1,0.7,0.2,1.1,0.2
				c0.1,0,0.3,0,0.4,0c0.1,0,0.3,0,0.6-0.1c0.1-0.4,0.2-0.7,0.3-0.9c-0.2,0.1-0.4,0.1-0.5,0.1c-0.1,0-0.2,0-0.4,0
				c-0.2,0-0.3,0-0.5-0.1c-0.1,0-0.2-0.1-0.3-0.2c-0.1-0.1-0.1-0.2-0.1-0.4c0-0.1,0-0.2,0-0.3c0-0.1,0.1-0.2,0.2-0.2
				c0.1-0.1,0.2-0.1,0.3-0.2c0.1-0.1,0.2-0.1,0.4-0.2c0.1,0,0.3-0.1,0.5-0.2c0.2-0.1,0.4-0.1,0.5-0.1c0.1,0,0.2-0.1,0.2-0.1
				c0.1,0,0.2-0.1,0.3-0.2l-0.2,2.8h1.5c0,0,0-1.7,0.1-2.5c0.1-0.8,0.1-1.3,0.1-1.5c0-0.4-0.1-0.7-0.3-0.8
				C69.2,437.8,69,437.6,68.7,437.6z M70.4,441.5c0,0.7,0,1.2-0.1,1.4c0.5,0,1.5,0,1.5,0s0.1-1.2,0.1-1.4
				C71.5,441.5,70.4,441.5,70.4,441.5z M74.3,439c0.2-0.2,0.3-0.3,0.5-0.4c0.2-0.1,0.4-0.1,0.7-0.1c0.4,0,0.8,0.1,1.4,0.3l-0.1-1.2
				c-0.3-0.1-0.6-0.1-0.9-0.2c-0.2,0-0.5,0-0.7,0c-0.4,0-0.8,0-1.1,0.1c-0.3,0.1-0.6,0.3-0.9,0.5c-0.3,0.3-0.5,0.6-0.6,1
				c-0.1,0.4-0.2,0.8-0.2,1.3c0,0.3,0,0.7,0.1,1c0.1,0.3,0.2,0.6,0.4,0.8c0.2,0.2,0.4,0.4,0.6,0.5c0.2,0.1,0.5,0.2,0.7,0.3
				c0.3,0.1,0.5,0.1,0.8,0.1c0.5,0,1-0.1,1.5-0.2c0-0.3,0.1-0.5,0.1-0.7c0-0.2,0.1-0.3,0.1-0.5c-0.3,0.1-0.5,0.2-0.7,0.2
				c-0.2,0-0.4,0.1-0.6,0.1c-0.3,0-0.6-0.1-0.9-0.2c-0.3-0.1-0.4-0.3-0.5-0.6c-0.1-0.2-0.2-0.5-0.2-0.9c0-0.2,0-0.5,0.1-0.7
				C74,439.4,74.1,439.2,74.3,439z M82.4,438.1c-0.3-0.2-0.6-0.4-0.9-0.5c-0.4-0.1-0.8-0.2-1.2-0.2c-0.4,0-0.9,0.1-1.3,0.2
				c-0.4,0.2-0.7,0.4-1,0.6c-0.3,0.3-0.5,0.6-0.6,0.9c-0.1,0.4-0.2,0.7-0.2,1.1c0,0.4,0.1,0.7,0.2,1.1c0.1,0.3,0.3,0.6,0.6,0.9
				c0.3,0.2,0.6,0.4,0.9,0.5c0.4,0.1,0.8,0.2,1.2,0.2c0.4,0,0.9-0.1,1.2-0.2c0.4-0.1,0.7-0.3,1-0.6c0.3-0.3,0.5-0.6,0.6-1
				c0.1-0.4,0.2-0.8,0.2-1.2c0-0.4-0.1-0.7-0.2-1.1C82.8,438.7,82.6,438.4,82.4,438.1z M81.4,441.1c-0.1,0.3-0.3,0.5-0.5,0.7
				c-0.2,0.2-0.5,0.2-0.8,0.2c-0.3,0-0.6-0.1-0.8-0.2c-0.2-0.1-0.4-0.3-0.5-0.6c-0.1-0.2-0.1-0.5-0.1-0.8c0-0.3,0.1-0.7,0.2-1
				c0.1-0.3,0.3-0.5,0.5-0.7c0.2-0.2,0.5-0.2,0.8-0.2c0.3,0,0.6,0.1,0.8,0.2c0.2,0.1,0.4,0.3,0.5,0.6c0.1,0.2,0.1,0.5,0.1,0.8
				C81.6,440.5,81.6,440.8,81.4,441.1z M91.8,438c-0.2-0.2-0.4-0.4-0.6-0.5c-0.3-0.1-0.6-0.1-0.9-0.1c-0.2,0-0.4,0-0.5,0.1
				c-0.2,0-0.3,0.1-0.5,0.1c-0.1,0.1-0.3,0.1-0.4,0.2c-0.1,0.1-0.2,0.2-0.3,0.3c-0.1,0.1-0.1,0.2-0.2,0.3c-0.1-0.2-0.1-0.3-0.2-0.4
				c-0.1-0.1-0.1-0.2-0.2-0.2c-0.1-0.1-0.2-0.1-0.3-0.2c-0.1-0.1-0.3-0.1-0.4-0.1c-0.1,0-0.3,0-0.5,0c-0.2,0-0.4,0-0.6,0.1
				c-0.2,0.1-0.4,0.1-0.5,0.2c-0.1,0.1-0.3,0.2-0.4,0.3c-0.1,0.1-0.2,0.2-0.3,0.4l0-0.9c-0.3,0-1.1,0-1.4,0c0,0.6-0.2,4.8-0.2,5.4
				c0.3,0,1.2,0,1.5,0c0-0.5,0-1.1,0.1-1.9c0-0.8,0.1-1.3,0.2-1.6c0.1-0.3,0.2-0.5,0.4-0.6c0.2-0.2,0.4-0.2,0.7-0.2
				c0.1,0,0.3,0,0.4,0.1c0.1,0,0.2,0.1,0.3,0.2c0.1,0.1,0.1,0.2,0.2,0.3c0,0.1,0,0.2,0,0.4c0,0.3,0,0.9-0.1,1.7
				c0,0.8-0.1,1.4-0.1,1.7c0.3,0,1.2,0,1.5,0l0-1.5c0-0.5,0-0.9,0.1-1.3c0-0.3,0.1-0.6,0.1-0.8c0.1-0.2,0.1-0.3,0.3-0.5
				c0.1-0.1,0.2-0.2,0.4-0.3c0.1-0.1,0.3-0.1,0.4-0.1c0.2,0,0.3,0,0.4,0.1c0.1,0.1,0.2,0.1,0.3,0.3c0.1,0.1,0.1,0.3,0.1,0.6
				c0,0.2,0,0.5,0,0.8l-0.1,1.2c0,0.5-0.1,1-0.1,1.4c0.3,0,1.2,0,1.5,0c0-0.4,0-1,0.1-1.7c0-0.7,0.1-1.3,0.1-1.6c0-0.3,0-0.6,0-0.7
				C92.1,438.5,92,438.3,91.8,438z"/>
		</g>
	</g>
	<g id="形状_2_copy_3_副本_5_5_">
		<g>
			<path style="fill-rule:evenodd;clip-rule:evenodd;fill:#FF6600;" d="M33.2,420.7c2.2,0,4.5,0,6.7,0c0,3.3,0,6.8,0,9.9
				c0,0.2-0.3,0.5-0.5,0.5c-0.4,0-0.5,0-0.9,0v1.6c0.5,0,1,0,1.5,0c1.3,0,2.2-0.6,2.2-1.7c0-2.6,0-7.7,0-10.3h0.8v-1.5h-9.7V420.7z
				 M67.5,427.8c-0.6,0-1.6,0.6-1.6,1.6c1.9,0,5.1,0,7.2,0c0,0.4,0,0.8,0,1.3c0.7,0,0.4,0,1.2,0c0.4,0,1-0.4,1-1c0-1.7,0-3,0-4.8
				c-0.3,0-0.7,0-0.9,0c0-1.3,0-4,0-5c0-0.4-0.4-0.8-0.9-0.8h-7v1.5h5.4c0,1.4,0,2.8,0,4.2c-1.3,0-1.5,0-2.6,0
				c-0.1,0-0.3-0.2-0.3-0.3c0-0.7,0-1.8,0-2.8c0-0.2-0.2-0.5-0.6-0.5h-1.6v3.7c0,0.7,0.6,1.3,1.3,1.3c0,0,2.8,0,5.1,0v1.4H67.5z
				 M38.9,428.3c0-1.8,0-4.3,0-6.7h-5.6v8.5c1.6,0,3.7,0,3.7,0C38.4,430.1,38.9,429.3,38.9,428.3z M36.5,428.6c-0.4,0-0.8,0-1.4,0
				v-5.3c0.6,0,1.3,0,1.9,0c0,1.6,0,3.4,0,4.8C37,428.4,36.8,428.6,36.5,428.6z M26.9,419.5c0,3.1,0,7.1,0,13.2H29c0-3.8,0-8.1,0-12
				c0.5,0,1.1,0,1.6,0c0,2.3,0,4.4,0,6.5c0,0.9-0.8,1.2-0.8,1.2v1.7c1.5,0,2.8-1.5,2.8-2.9c0-2.5,0-5.6,0-8.1c-1.9,0-3.3,0-5.2,0
				C26.9,419.1,26.9,419.5,26.9,419.5z M91.4,424.9c0-1.3,0-4,0-5c0-0.4-0.4-0.8-0.9-0.8h-7v1.5c1.8,0,3.6,0,5.4,0v4.2
				c-1.3,0-1.5,0-2.6,0c-0.1,0-0.3-0.2-0.3-0.3c0-0.7,0-1.8,0-2.8c0-0.2-0.2-0.5-0.6-0.5c-0.4,0-1.1,0-1.6,0v3.7
				c0,0.7,0.6,1.3,1.3,1.3c0,0,2.8,0,5.1,0v1.4h-5.5c-0.6,0-1.6,0.5-1.6,1.5c1.9,0,5,0,7.1,0v1.4c0,0.2-0.2,0.4-0.5,0.4h-0.8
				c0,0.7,0,1.1,0,1.5h1.3c0.4,0,0.3,0,0.7,0c1.1,0,1.5-0.7,1.5-1.4c0-2,0-4.5,0-6.5C92,424.9,91.7,424.9,91.4,424.9z M81.4,430.1
				c0.8-0.8,1.2-1.8,1.3-3.7c0-2,0-4,0-6c0-0.2-0.2-0.4-0.4-0.4c-0.8,0-1.8,0-2.7,0v-0.9h-2.1c0,0.3,0,0.6,0,0.9c-0.2,0-0.5,0-0.7,0
				v1.5h0.7v4.8c0,1.9,0.6,2.8,1.4,3.7c-0.9,0.6-1.8,1-3.1,1c-0.2,0-0.4,0-0.5,0c-1.9,0-4.3,0-6.4,0c-1.9,0-3.8-0.4-4.5-1.2
				c0.7-0.9,1-1.6,1.2-3.5c0-1.9,0-3.5,0-5.9c0-0.3-0.3-0.5-0.5-0.5c-0.8,0-1.6,0-2.6,0v-0.9c-0.9,0-1.2,0-2,0v0.9
				c-0.2,0-0.4,0-0.7,0v1.5c0.3,0,0.5,0,0.7,0c0,1.6,0,3.4,0,4.8c0.2,1.9,0.8,2.5,1.5,3.6c-1,0.7-2.3,1.1-3.8,1.1
				c-1.8,0-3.4,0-5.6,0c0-0.4,0-0.9,0-1.2h5.6v-1.6h-5.6c0-0.4,0-0.8,0-1.2c1.6,0,3.7,0,4.2,0c0,0,1.4,0,1.4-1.5c0-1.6,0-4.4,0-6.5
				c-4.4,0-8.9,0-13.4,0c-0.2,0-0.4,0.2-0.4,0.4c0,0.3,0,5.3,0,7.6c1.9,0,3.7,0,5.6,0v1.2h-5.6c0,0.5,0,1.1,0,1.6h5.6
				c0,0.4,0,0.8,0,1.2h-6.6c0,0.5,0,1,0,1.5c4.9,0,11,0,15.8,0c1.3,0,2.9-0.7,4-1.3c1.5,1.1,3.1,1.3,5.7,1.3c0.8,0,1.7,0,2.7,0
				c1.4,0,2.6,0,3.7,0c2.2,0,3.6-0.5,5-1.3c1.3,0.8,2.5,1.2,4.4,1.3v0h3v-1.5h-3C83.4,431,82.3,430.8,81.4,430.1z M49.9,425.6h-3.4
				v-1.6h3.4V425.6z M49.9,422.3h-3.4v-1.6c1.2,0,2.3,0,3.4,0V422.3z M52.5,420.7h3.5v1.6h-3.5V420.7z M52.5,423.9
				c1.2,0,2.3,0,3.4,0c0,0.7,0,1.2,0,1.6h-3.4C52.5,425.1,52.5,424.4,52.5,423.9z M63.6,426.4c-0.1,1.1-0.2,1.3-0.5,2
				c-0.3-0.7-0.6-1-0.7-2c0-1.4,0-3.4,0-4.8h1.2V426.4z M80.7,426.4c0,1-0.3,1.5-0.5,2c-0.3-0.5-0.6-1.1-0.6-2c0-1.5,0-3.3,0-4.8
				h1.2C80.7,423.2,80.7,424.9,80.7,426.4z"/>
		</g>
	</g>
</g>
</svg>
