<?xml version="1.0" encoding="utf-8"?>
<!-- Generator: Adobe Illustrator 17.1.0, SVG Export Plug-In . SVG Version: 6.00 Build 0)  -->
<!DOCTYPE svg PUBLIC "-//W3C//DTD SVG 1.1//EN" "http://www.w3.org/Graphics/SVG/1.1/DTD/svg11.dtd">
<svg version="1.1" id="图层_1" xmlns="http://www.w3.org/2000/svg" xmlns:xlink="http://www.w3.org/1999/xlink" x="0px" y="0px"
	 viewBox="0 0 267.5 470" style="enable-background:new 0 0 267.5 470;" xml:space="preserve">
<rect x="6.5" y="5.5" style="fill:#FF6600;" width="254.7" height="459"/>
<path style="fill:#FFFFFF;" d="M7.6,307.5"/>
<path style="fill:#FFFFFF;" d="M6.8,313.3"/>
<path style="fill:#FFFFFF;" d="M10.6,326"/>
<g>
	<path style="fill:#FFFFFF;" d="M128.3,285.1h-3.4l5.2-9.9h3.7l4.9,9.9H135l-0.8-1.8h-5.2L128.3,285.1z M133.4,281.2l-1.6-3.6
		l-1.7,3.6H133.4z"/>
	<path style="fill:#FFFFFF;" d="M139.3,285.1v-9.9h3.2v9.9H139.3z"/>
	<path style="fill:#FFFFFF;" d="M144.4,277.2v-2h3.2v2H144.4z M144.4,285.1v-6.9h3.2v6.9H144.4z"/>
	<path style="fill:#FFFFFF;" d="M149.5,275.2h3.2v4c0.4-0.4,0.8-0.7,1.3-0.9c0.5-0.2,1-0.3,1.6-0.3c1.1,0,2,0.3,2.6,1
		c0.7,0.7,1,1.6,1,2.8c0,1-0.3,1.9-1,2.5c-0.7,0.6-1.5,0.9-2.6,0.9c-0.6,0-1.1-0.1-1.6-0.3c-0.5-0.2-0.9-0.5-1.3-1
		c0,0.2,0,0.4,0,0.6c0,0.2,0,0.4-0.1,0.5h-3.2c0-0.1,0.1-0.3,0.1-0.5c0-0.2,0-0.4,0-0.7V275.2z M155.9,281.7c0-0.6-0.1-1.1-0.4-1.4
		c-0.3-0.4-0.7-0.5-1.2-0.5c-0.5,0-0.9,0.2-1.2,0.5c-0.3,0.3-0.4,0.8-0.4,1.5c0,0.6,0.1,1.1,0.4,1.4c0.3,0.3,0.7,0.5,1.2,0.5
		c0.5,0,0.9-0.2,1.2-0.5C155.8,282.7,155.9,282.3,155.9,281.7z"/>
	<path style="fill:#FFFFFF;" d="M166.3,284.1c-0.3,0.4-0.7,0.7-1.2,0.9c-0.5,0.2-1.1,0.3-1.8,0.3c-1,0-1.8-0.2-2.3-0.5
		c-0.5-0.4-0.8-0.8-0.8-1.5c0-0.9,0.5-1.5,1.4-1.9c0.9-0.4,2.5-0.6,4.6-0.6c0,0,0,0,0-0.1c0,0,0-0.1,0-0.1c0-0.4-0.1-0.6-0.3-0.8
		c-0.2-0.2-0.5-0.3-1-0.3c-0.4,0-0.7,0.1-0.9,0.2c-0.2,0.1-0.3,0.3-0.4,0.6h-3c0-0.8,0.4-1.3,1.1-1.7c0.7-0.4,1.8-0.6,3.3-0.6
		c1.4,0,2.5,0.2,3.2,0.7c0.7,0.4,1,1.1,1,2v3.5c0,0.2,0,0.4,0,0.5c0,0.1,0.1,0.3,0.1,0.4h-3c-0.1-0.2-0.1-0.3-0.1-0.5
		C166.3,284.4,166.3,284.3,166.3,284.1z M166.2,282.1c-1,0-1.8,0.1-2.1,0.2c-0.4,0.1-0.6,0.4-0.6,0.7c0,0.2,0.1,0.4,0.3,0.5
		c0.2,0.1,0.4,0.2,0.8,0.2c0.5,0,1-0.1,1.2-0.4c0.3-0.3,0.4-0.6,0.4-1.1V282.1z"/>
	<path style="fill:#FFFFFF;" d="M171.1,275.2h3.2v4c0.4-0.4,0.8-0.7,1.3-0.9c0.5-0.2,1-0.3,1.6-0.3c1.1,0,2,0.3,2.6,1
		c0.7,0.7,1,1.6,1,2.8c0,1-0.3,1.9-1,2.5c-0.7,0.6-1.5,0.9-2.6,0.9c-0.6,0-1.1-0.1-1.6-0.3c-0.5-0.2-0.9-0.5-1.3-1
		c0,0.2,0,0.4,0,0.6c0,0.2,0,0.4-0.1,0.5H171c0-0.1,0.1-0.3,0.1-0.5c0-0.2,0-0.4,0-0.7V275.2z M177.6,281.7c0-0.6-0.1-1.1-0.4-1.4
		c-0.3-0.4-0.7-0.5-1.2-0.5c-0.5,0-0.9,0.2-1.2,0.5c-0.3,0.3-0.4,0.8-0.4,1.5c0,0.6,0.1,1.1,0.4,1.4c0.3,0.3,0.7,0.5,1.2,0.5
		c0.5,0,0.9-0.2,1.2-0.5C177.5,282.7,177.6,282.3,177.6,281.7z"/>
	<path style="fill:#FFFFFF;" d="M188,284.1c-0.3,0.4-0.7,0.7-1.2,0.9c-0.5,0.2-1.1,0.3-1.8,0.3c-1,0-1.8-0.2-2.3-0.5
		c-0.5-0.4-0.8-0.8-0.8-1.5c0-0.9,0.5-1.5,1.4-1.9c0.9-0.4,2.5-0.6,4.6-0.6c0,0,0,0,0-0.1c0,0,0-0.1,0-0.1c0-0.4-0.1-0.6-0.3-0.8
		c-0.2-0.2-0.5-0.3-1-0.3c-0.4,0-0.7,0.1-0.9,0.2c-0.2,0.1-0.3,0.3-0.4,0.6h-3c0-0.8,0.4-1.3,1.1-1.7c0.7-0.4,1.8-0.6,3.3-0.6
		c1.4,0,2.5,0.2,3.2,0.7c0.7,0.4,1,1.1,1,2v3.5c0,0.2,0,0.4,0,0.5c0,0.1,0.1,0.3,0.1,0.4h-3c-0.1-0.2-0.1-0.3-0.1-0.5
		C188,284.4,188,284.3,188,284.1z M187.9,282.1c-1,0-1.8,0.1-2.1,0.2c-0.4,0.1-0.6,0.4-0.6,0.7c0,0.2,0.1,0.4,0.3,0.5
		c0.2,0.1,0.4,0.2,0.8,0.2c0.5,0,1-0.1,1.2-0.4c0.3-0.3,0.4-0.6,0.4-1.1V282.1z"/>
	<path style="fill:#FFFFFF;" d="M201,281.2v-1.2h4.2v3.7c-0.6,0.5-1.3,0.9-2,1.2c-0.7,0.3-1.4,0.4-2.1,0.4c-1,0-1.9-0.2-2.7-0.6
		c-0.8-0.4-1.4-1-1.8-1.8c-0.4-0.8-0.6-1.7-0.6-2.6c0-1,0.2-1.9,0.6-2.7c0.4-0.8,1-1.5,1.7-1.9c0.8-0.4,1.6-0.6,2.6-0.6
		c0.7,0,1.4,0.1,1.9,0.3c0.6,0.2,1,0.6,1.4,1c0.3,0.4,0.6,1,0.8,1.6l-1.2,0.3c-0.1-0.5-0.3-0.9-0.6-1.2c-0.2-0.3-0.5-0.5-0.9-0.7
		c-0.4-0.2-0.9-0.3-1.4-0.3c-0.6,0-1.1,0.1-1.6,0.3c-0.4,0.2-0.8,0.4-1.1,0.7c-0.3,0.3-0.5,0.6-0.6,1c-0.3,0.6-0.4,1.3-0.4,2
		c0,0.9,0.2,1.6,0.5,2.2c0.3,0.6,0.7,1,1.3,1.3c0.6,0.3,1.2,0.4,1.9,0.4c0.6,0,1.1-0.1,1.7-0.3c0.5-0.2,1-0.5,1.2-0.7v-1.8H201z"/>
	<path style="fill:#FFFFFF;" d="M207,285.1V278h1.1v1.1c0.3-0.5,0.5-0.8,0.8-1c0.2-0.2,0.5-0.2,0.8-0.2c0.4,0,0.8,0.1,1.3,0.4
		l-0.4,1.1c-0.3-0.2-0.6-0.3-0.9-0.3c-0.3,0-0.5,0.1-0.7,0.2c-0.2,0.2-0.4,0.4-0.5,0.7c-0.1,0.4-0.2,0.9-0.2,1.4v3.7H207z"/>
	<path style="fill:#FFFFFF;" d="M211.4,281.5c0-1.3,0.4-2.3,1.1-2.9c0.6-0.5,1.4-0.8,2.3-0.8c1,0,1.8,0.3,2.4,1
		c0.6,0.6,0.9,1.5,0.9,2.7c0,0.9-0.1,1.6-0.4,2.2c-0.3,0.5-0.7,0.9-1.2,1.2c-0.5,0.3-1.1,0.4-1.7,0.4c-1,0-1.8-0.3-2.4-1
		C211.7,283.7,211.4,282.7,211.4,281.5z M212.7,281.5c0,0.9,0.2,1.6,0.6,2.1c0.4,0.5,0.9,0.7,1.5,0.7c0.6,0,1.1-0.2,1.5-0.7
		c0.4-0.5,0.6-1.2,0.6-2.1c0-0.9-0.2-1.6-0.6-2c-0.4-0.5-0.9-0.7-1.5-0.7c-0.6,0-1.1,0.2-1.5,0.7
		C212.9,279.9,212.7,280.6,212.7,281.5z"/>
	<path style="fill:#FFFFFF;" d="M224.5,285.1V284c-0.6,0.8-1.3,1.2-2.3,1.2c-0.4,0-0.8-0.1-1.2-0.2c-0.4-0.2-0.6-0.4-0.8-0.6
		c-0.2-0.2-0.3-0.5-0.4-0.9c0-0.2-0.1-0.6-0.1-1.1V278h1.2v4c0,0.6,0,1.1,0.1,1.3c0.1,0.3,0.2,0.6,0.5,0.8c0.2,0.2,0.6,0.3,0.9,0.3
		c0.4,0,0.7-0.1,1-0.3c0.3-0.2,0.5-0.4,0.7-0.8c0.1-0.3,0.2-0.8,0.2-1.4V278h1.2v7.2H224.5z"/>
	<path style="fill:#FFFFFF;" d="M227.7,287.8V278h1.1v0.9c0.3-0.4,0.6-0.6,0.9-0.8c0.3-0.2,0.7-0.3,1.2-0.3c0.6,0,1.2,0.2,1.6,0.5
		c0.5,0.3,0.8,0.8,1.1,1.3c0.2,0.6,0.4,1.2,0.4,1.9c0,0.7-0.1,1.4-0.4,2c-0.3,0.6-0.6,1-1.2,1.3c-0.5,0.3-1,0.5-1.6,0.5
		c-0.4,0-0.8-0.1-1.1-0.3c-0.3-0.2-0.6-0.4-0.8-0.6v3.5H227.7z M228.8,281.6c0,0.9,0.2,1.6,0.6,2c0.4,0.4,0.8,0.7,1.4,0.7
		c0.5,0,1-0.2,1.4-0.7c0.4-0.5,0.6-1.2,0.6-2.1c0-0.9-0.2-1.6-0.6-2c-0.4-0.5-0.8-0.7-1.3-0.7c-0.5,0-1,0.2-1.4,0.7
		C229,279.9,228.8,280.6,228.8,281.6z"/>
</g>
<path style="fill-rule:evenodd;clip-rule:evenodd;fill:#FFFFFF;" d="M93.1,294c-0.2,0-0.5-0.2-0.7-0.3c-1.9-1.8,0.5-3.9,3.3-5.2V285
	c0.7,0.4,1,0.4,1,0.5l2.1-2.1l-0.7-1.8c6.3-2.2,8.8-3,13.9-3.8l-0.9-0.8l1.5-0.8c3.4,1.1,6.7,1.4,6.1,4.3c0.1-1.9-2.3-2.7-6-3.7
	l-0.7,0.4l1.4,1.1c-6.1,1-9.9,2.2-14.3,3.8l0.6,1.6l-2.2,2.2c0.4,0.1,4.3,1.4,8.4-1.4c0,0,0.1-0.1,0.1-0.1c-0.1-0.2-0.4-0.4-0.7-0.7
	c1.2,0.1,2,1.1,1.8,2.2h-0.6c0-0.4,0-0.7-0.2-1c-3.2,2.3-6.8,2.6-9.9,1.5v2.7c-1.5,0.5-4.2,2.2-4.2,3.8
	C92.4,293.5,92.8,293.8,93.1,294z"/>
<path style="fill-rule:evenodd;clip-rule:evenodd;fill:#FFFFFF;" d="M105.9,293.3c-3.4,1.7-6.6,3.1-11.6,3.3
	c-6.5-0.1-7.5-4.4-4.4-8.9c2.9-4.5,7.5-8.6,14.8-11.1c2.1-0.7,5.2-1.6,8.3-1.6c4.3,0,8.5,1.3,8.3,5.4c-0.2,3.2-4.7,7.6-7.2,10.8
	c-1,1.4-1.2,2.3,0.6,2.2c6.4-0.4,12.2-2.6,17.6-4.9c-3.7,2.5-22.6,11.8-22.6,5.4c0-0.8,0.4-1.7,1-2.6c0.6-0.9,1.4-1.9,2.3-2.8
	c1.3-1.5,4.5-5,5.6-7c1.8-4-2.2-4.2-5.7-5.4l-1.5,0.8l0.9,0.8c-5.1,0.8-7.6,1.7-13.9,3.8l0.7,1.8l-2.1,2.1c-0.1-0.1-0.4-0.1-1-0.5
	v3.5c-2.8,1.2-5.2,3.3-3.3,5.2c0.2,0.2,0.5,0.3,0.7,0.3l0,0C96.6,295.9,105.9,293.3,105.9,293.3z"/>
<g>
	<path style="fill:#FFFFFF;" d="M128.5,294.7h0.5c0.1,0,0.2,0,0.2,0c0.1,0,0.1-0.1,0.1-0.1c0,0,0-0.1,0-0.1c0-0.1,0-0.1-0.1-0.2
		c-0.1,0-0.1-0.1-0.3-0.1h-0.5V294.7z M128.3,295.7V294h0.7c0.1,0,0.3,0,0.3,0c0.1,0,0.1,0.1,0.2,0.2c0,0.1,0.1,0.2,0.1,0.3
		c0,0.1,0,0.2-0.1,0.3c-0.1,0.1-0.2,0.1-0.4,0.2c0.1,0,0.1,0.1,0.1,0.1c0.1,0.1,0.1,0.1,0.2,0.2l0.3,0.5h-0.3l-0.2-0.3
		c-0.1-0.1-0.1-0.2-0.2-0.2c0-0.1-0.1-0.1-0.1-0.1c0,0-0.1,0-0.1,0c0,0-0.1,0-0.1,0h-0.3v0.7H128.3"/>
	<path style="fill-rule:evenodd;clip-rule:evenodd;fill:#FFFFFF;" d="M129,296.5c0.9,0,1.6-0.7,1.6-1.6c0-0.9-0.7-1.6-1.6-1.6
		c-0.9,0-1.6,0.7-1.6,1.6C127.4,295.8,128.1,296.5,129,296.5z M127.6,294.9c0-0.7,0.6-1.3,1.4-1.3c0.7,0,1.4,0.6,1.4,1.3
		c0,0.7-0.6,1.3-1.4,1.3C128.2,296.2,127.6,295.6,127.6,294.9"/>
</g>
<g>
	<g>
		<path style="fill-rule:evenodd;clip-rule:evenodd;fill:#FFFFFF;" d="M139.3,288.4v8.4c0.6,0,1.2-0.5,1.2-1.1v-0.4h0.7
			c0.5,0,1-0.7,1-1c0-0.8,0-1.1,0-1.9c0-0.4-0.4-0.6-0.6-0.7c0.2-0.2,0.6-0.4,0.6-0.8c0-1,0-1.4,0-2.4H139.3z M141.1,291.2
			c0,0.1-0.1,0.4-0.3,0.5c0,0-0.1,0.1-0.1,0.1c0,0,0,0,0,0h0.4v2.4h-0.5c0-1.6,0-3.2,0-4.8h0.5V291.2z M145.8,293.9v-3.8h-3v5.2h1.5
			c0.2,0,0.5-0.1,0.8-0.3c0.1-0.1,0.3-0.2,0.4-0.3C145.6,294.5,145.8,294.2,145.8,293.9z M144.6,294.3H144v-3.2h0.6V294.3z
			 M142.5,288.4v1h3.6v6.3v1.1c0.4,0,1.3-0.4,1.3-1.2v-6.2c0.3,0,0.5-0.7,0.5-1H142.5z"/>
		<path style="fill-rule:evenodd;clip-rule:evenodd;fill:#FFFFFF;" d="M153.4,295.9v-0.8h2.5c0.4,0,0.7-0.6,0.9-1h-3.4v-0.7h1.9
			c0.5,0,1.4-0.7,1.4-1.1v-3.9h-8.1v5h3.3v0.7h-3.3v1h3.3v0.8h-3.4v1h7.6c0.3,0,0.6-0.6,0.8-1H153.4z M153.4,291.4h0.6
			c0.1,0,0.2,0,0.3-0.1c0.1-0.1,0.7-0.8,0.8-0.9h-1.7v-1.1h1.8v3.1h-1.8V291.4z M151.9,292.5h-1.8v-1.1h1.8V292.5z M151.9,290.5
			h-1.8v-1.1h0.9h0.9V290.5z"/>
		<path style="fill-rule:evenodd;clip-rule:evenodd;fill:#FFFFFF;" d="M159.4,295.8v-2.4h5.2c0.5,0,1.3-0.8,1.3-1.2v-3.8h-8v7.3
			c0,0.6,0.4,1.2,1,1.2c0.5,0,5.6,0,6.1,0c0.5,0,1-0.7,1.1-1.1H159.4z M164.4,292.3h-1.7v-2.8h1.7V292.3z M159.4,289.5h1.8v2.8h-1.8
			V289.5z"/>
		<path style="fill-rule:evenodd;clip-rule:evenodd;fill:#FFFFFF;" d="M168.7,295.8v-2.4h5.2c0.5,0,1.3-0.8,1.3-1.2v-3.8h-8v7.3
			c0,0.6,0.4,1.2,1,1.2c0.5,0,5.6,0,6.1,0c0.5,0,1-0.7,1.1-1.1H168.7z M173.7,292.3H172v-2.8h1.7V292.3z M168.7,289.5h1.8v2.8h-1.8
			V289.5z"/>
	</g>
	<g>
		<path style="fill:#FFFFFF;" d="M180.7,294v-0.3h0.6v0.2h3.7c0,0-0.1,0.5-0.9,0.5c-0.8,0-2.7,0-2.7,0s0,0.9,0,1.3
			c0,1-0.6,1.1-0.6,1.1v-2.4h-4.4V294H180.7z"/>
		<path style="fill:#FFFFFF;" d="M178.1,295.3h0.7c0,0-0.7,0.9-0.9,1.1c-0.2,0.2-0.5,0.6-0.9,0.6c-0.2,0-0.3,0-0.3,0L178.1,295.3z"
			/>
		<path style="fill:#FFFFFF;" d="M183.7,295.3H183c0,0,0.7,0.9,0.9,1.1c0.2,0.2,0.5,0.6,0.9,0.6c0.2,0,0.3,0,0.3,0L183.7,295.3z"/>
		<g>
			<path style="fill:#FFFFFF;" d="M184.1,289.3c0.8,0,0.9-0.5,0.9-0.5h-3.6l0.3-0.3h-0.6l-0.3,0.4h-2.5l0.3-0.4H178l-1.6,2h0.7v2.7
				c0,0,0.1,0,0.2,0c1,0,1-0.1,1-0.1s5,0,5.8,0c0.8,0,0.8-0.5,0.8-0.5h-3.6v-0.8c0,0,2,0,2.8,0c0.8,0,0.9-0.5,0.9-0.5h-3.7v-0.8
				c0,0,2,0,2.8,0c0.8,0,0.9-0.5,0.9-0.5h-3.7v-0.8C181.3,289.3,183.6,289.3,184.1,289.3z M180.7,292.6h-3.1v-0.8h3.1V292.6z
				 M180.7,291.3h-3.1v-0.8h3.1V291.3z M180.7,290.1h-3.1l0-0.3l0.2-0.2l0.2-0.3h2.7V290.1z"/>
		</g>
	</g>
	<path style="fill:#FFFFFF;" d="M186.7,288.5v8.5h7.2c0.5,0,0.7-0.5,0.7-1v-7.5H186.7z M194.1,295.9c0,0.3-0.1,0.5-0.5,0.5h-6.3V289
		h6.8V295.9z"/>
	<path style="fill:#FFFFFF;" d="M190.1,292.1l-1.8,3.3c0,0,0.6,0.1,0.9-0.5l1.6-2.8L190.1,292.1z"/>
	<path style="fill:#FFFFFF;" d="M192.2,294.7c0,0.2-0.1,0.3-0.2,0.3h-0.6v0.5h0.8c0.5,0,0.6-0.2,0.6-0.7c0,0,0-3.2,0-3.2
		c0.6,0,0.6-0.5,0.6-0.5l-0.6,0v-1.1h-0.6v1.1h-4.1v0.5h4.1V294.7z"/>
</g>
<g>
	<defs>
		<rect id="SVGID_1_" x="6.3" y="7.6" width="198.3" height="456.8"/>
	</defs>
	<clipPath id="SVGID_2_">
		<use xlink:href="#SVGID_1_"  style="overflow:visible;"/>
	</clipPath>
	<g id="形状_13_39_" style="clip-path:url(#SVGID_2_);">
		<g>
			<path style="fill:#FFFFFF;" d="M175,397.8c0,0,3.6,0,4.7-0.9c1.1-0.9,1.7-2.9,0.6-4.2c-2.3-2.5-9.3-2.6-16.1-4.3
				c-5.2-1.3-13-3.9-15.2-5c-13.5-4-29.4-19.1-58.4-45.3c-22.2-22-44.7-31.6-44.7-31.6s-31.8,27.7,18.8,48.9
				c22.7,9.5,44,22.1,55.3,30c14,9.7,18.3,16.7,22.9,20.7c6.2,5.5,15.2,10.8,17.8,8.7c5.9-4.6-6.6-7.5-6.1-11.2
				c1-7,23.4,8.8,26.7,3.3C184.9,400.7,175,397.8,175,397.8z"/>
		</g>
	</g>
	<g id="形状_14_39_" style="clip-path:url(#SVGID_2_);">
		<g>
			<path style="fill:#FFFFFF;" d="M152.5,395.5c-1.3-0.8-4.1-2.5-5.2-3.5c-1.6-1.5-2.4,0-0.9,1.3c1.9,1.7,6.1,3.5,9.4,4.4
				c1.1,0.3,1.8,0.1,1.8,0.1S155.3,397.1,152.5,395.5z"/>
		</g>
	</g>
	<g id="形状_13_37_" style="clip-path:url(#SVGID_2_);">
		<g>
			<path style="fill-rule:evenodd;clip-rule:evenodd;fill:#FFFFFF;" d="M2.2,306.3c0,0-24.1,9.9-46.3,31.9
				c-28.9,26.1-44.9,41.3-58.4,45.3c-2.2,1.1-10.1,3.8-15.2,5c-6.8,1.7-13.8,1.8-16.1,4.3c-1.1,1.3-0.5,3.3,0.6,4.2
				c1.1,0.9,4.7,0.9,4.7,0.9s-9.9,2.9-6.3,9c3.3,5.5,25.7-10.2,26.7-3.3c0.5,3.7-11.9,6.6-6.1,11.2c2.6,2.1,11.6-3.1,17.8-8.7
				c4.5-4,8.9-11.1,22.9-20.7c11.4-7.8,32.7-20.5,55.3-30C32.4,334.2,2.2,306.3,2.2,306.3z"/>
		</g>
	</g>
	<g id="形状_14_37_" style="clip-path:url(#SVGID_2_);">
		<g>
			<path style="fill-rule:evenodd;clip-rule:evenodd;fill:#FFFFFF;" d="M-137.3,392c-1.1,1-3.8,2.7-5.2,3.5
				c-2.8,1.7-5.2,2.3-5.2,2.3s0.7,0.2,1.8-0.1c3.3-0.9,7.5-2.7,9.4-4.4C-135,392-135.8,390.5-137.3,392z"/>
		</g>
	</g>
	<path style="clip-path:url(#SVGID_2_);fill-rule:evenodd;clip-rule:evenodd;fill:#FFFFFF;" d="M-134.4,598.3
		c15.1,5.4,46.4,3.4,64.4,2.6c18.7-0.8,58.6-6.5,66-8.6c15.7-4.3,6.8-14.1,5.3-21.1c-1.5-7.3-2.3-14.4-1.9-22.3
		c0.1-2.6,0.3-7.5,4.9-7.3c5,1.5,9.7,2.4,14,2.8c0,0,0.1,0,0.1,0c0.4,0,0.7,0.1,1.1,0.1c0.2,0,0.5,0,0.7,0.1c0.2,0,0.5,0,0.7,0
		c0.3,0,0.7,0,1,0c0.2,0,0.3,0,0.5,0c0.3,0,0.7,0,1,0c0.2,0,0.4,0,0.5,0c0.3,0,0.5,0,0.8,0c0.3,0,0.5,0,0.8,0c0.2,0,0.4,0,0.5,0
		c0.3,0,0.7,0,1,0c0.2,0,0.3,0,0.5,0c0.3,0,0.7,0,1,0c0.2,0,0.5,0,0.7,0c0.2,0,0.5,0,0.7-0.1c0.3,0,0.7-0.1,1.1-0.1c0,0,0.1,0,0.1,0
		c4.3-0.4,9-1.3,14-2.8c4.6-0.2,4.7,4.7,4.9,7.3c0.4,7.9-0.4,15.1-1.9,22.3c-1.5,7.1-10.4,16.8,5.3,21.1c7.4,2.1,51.1,7.5,69.8,8.7
		c20.2,1.3,53.4,1.6,62.9-2.5c5.3-2.2,5.5-15.7-8.7-23c-17.9-9.2-92.1-5.1-97-5.4c-10.4-0.7-8.3-4-8.4-9.2
		c-0.2-9.7,7.8-14.7,14.6-19c6.8-4.3,40.9-19.3,40.9-52.5c0-17-4.7-40-26.7-72.7c-53.6-79.7-55.6-124.1-55.6-124.1l-4.4-0.2
		c-0.2-0.8-0.2-1.3-0.2-1.3l-15.9,0.6L8.7,291c0,0-0.1,0.4-0.2,1.3l-4.4,0.2c0,0-2,44.5-55.6,124.1c-22,32.7-26.7,55.7-26.7,72.7
		c0,33.1,34.1,48.2,40.9,52.5c6.8,4.3,14.8,9.3,14.6,19c-0.1,5.2,1.6,9.8-8.7,10.1c-4.9,0.1-78.9-4.6-96.7,4.6
		C-142.3,582.7-139.8,596.3-134.4,598.3z"/>
	<path style="opacity:0.6;clip-path:url(#SVGID_2_);fill-rule:evenodd;clip-rule:evenodd;fill:#FFFFFF;" d="M4.3,292.5
		c5.9,3.5,14.1,8.4,18.6,9c6.9,1,14.6-0.1,22.3-8.9c0,0.6,0.3,3.7,1.3,9c-2.2,7.1-7,14.7-17.2,15.9c-12,1.4-21-8.2-26.4-16.7
		c1-5.5,1.2-8.3,1.2-8.3L4.3,292.5z"/>
	<g id="形状_9_19_" style="clip-path:url(#SVGID_2_);">
		<g>
			<path style="fill-rule:evenodd;clip-rule:evenodd;fill:#FFFFFF;" d="M121.9,80.4c-1.4-7-11.5-0.6-11.5-0.6s-39,21.6-64.4,77.7
				c-25.4,56.1,21.2,30.3,21.2,30.3S136.9,168.2,121.9,80.4z"/>
		</g>
	</g>
	<g id="形状_9_拷贝_19_" style="clip-path:url(#SVGID_2_);">
		<g>
			<path style="fill:#FFFFFF;" d="M-0.3,157.3c-25.5-56-64.5-77.6-64.5-77.6s-10.1-6.4-11.5,0.6c-15,87.8,54.8,107.3,54.8,107.3
				S25.1,213.4-0.3,157.3z"/>
		</g>
	</g>
	<g id="脸_39_" style="clip-path:url(#SVGID_2_);">
		<g>
			<path style="fill:#FFFFFF;" d="M74.2,207.5c-2.5-8-4.6-19.5-7.9-29.1c-7.1-20.3-24.8-28.2-43.5-28.5
				c-18.5-0.3-35.9,6.8-43.5,28.4c-3.3,9.6-5.7,21.1-8.2,29.1c-2.5,8-8.1,42.1,5.9,63.2c-0.1,0.1,4.4,7.3,16.1,17.7
				c9,8.1,13.8,17.2,28.3,18.2c0.2,0,0.4,0.1,0.6,0.1c1,0,2,0,3,0c0.1,0,0.2,0,0.2,0c0.1,0,0.1,0,0.2,0c11.6-0.7,16.8-8.2,26-17.3
				c11.1-11.1,17.1-18.4,17.1-18.5C82.3,249.6,76.8,215.5,74.2,207.5z"/>
		</g>
	</g>
	<g id="形状_3_拷贝_19_" style="clip-path:url(#SVGID_2_);">
		<g>
			<path style="fill-rule:evenodd;clip-rule:evenodd;fill:#FFFFFF;" d="M71.6,93c-0.5-2.1-2-1.8-3.2-1.2
				c-29.7,14.5-41.5,41.2-45.7,58.5c-3-14.3-13-43-45.5-58.2c-0.8-0.4-1.8-0.7-2.6,0.6c0,0-10.8,48.4,38.3,73.1
				c-9.7,7.1-23.7,18.8,10.2,4.5c31.2,13.1,20.4,3.1,10.3-4.6C82.2,141.1,71.6,93,71.6,93z"/>
		</g>
	</g>
	<g id="形状_73_19_" style="clip-path:url(#SVGID_2_);">
		<g>
			<path style="fill-rule:evenodd;clip-rule:evenodd;fill:#FFFFFF;" d="M24.3,144.6c0,0-1.9,4.5-1.8,5.7c0.5,3.9,1.3,11.2,1.4,13.2
				c0.1,2.7,1.9-0.7,2.2-7.8C26.5,149.5,24.3,144.6,24.3,144.6z"/>
		</g>
	</g>
	<path style="clip-path:url(#SVGID_2_);fill-rule:evenodd;clip-rule:evenodd;fill:#FFFFFF;" d="M23.6,301c5,0,13-4.6,12.4-9.6
		c-0.5-4-4.5-5.4-12.4-5.4c-8,0-12.1,1.3-12.5,5.4C10.5,296,17.2,301,23.6,301z"/>
</g>
</svg>
