<?xml version="1.0" encoding="utf-8"?>
<!-- Generator: Adobe Illustrator 17.1.0, SVG Export Plug-In . SVG Version: 6.00 Build 0)  -->
<!DOCTYPE svg PUBLIC "-//W3C//DTD SVG 1.1//EN" "http://www.w3.org/Graphics/SVG/1.1/DTD/svg11.dtd">
<svg version="1.1" id="图层_1" xmlns="http://www.w3.org/2000/svg" xmlns:xlink="http://www.w3.org/1999/xlink" x="0px" y="0px"
	 viewBox="0 0 256.8 461.2" style="enable-background:new 0 0 256.8 461.2;" xml:space="preserve">
<rect x="0.6" y="0.5" style="fill:#FF6600;" width="254.7" height="459"/>
<path style="fill:#FFFFFF;" d="M1.7,302.5"/>
<path style="fill:#FFFFFF;" d="M0.9,308.3"/>
<path style="fill:#FFFFFF;" d="M4.6,321"/>
<g>
	<path style="fill:#FFFFFF;" d="M122.4,280.1H119l5.2-9.9h3.7l4.9,9.9h-3.7l-0.8-1.8h-5.2L122.4,280.1z M127.5,276.2l-1.6-3.6
		l-1.7,3.6H127.5z"/>
	<path style="fill:#FFFFFF;" d="M133.3,280.1v-9.9h3.2v9.9H133.3z"/>
	<path style="fill:#FFFFFF;" d="M138.5,272.2v-2h3.2v2H138.5z M138.5,280.1v-6.9h3.2v6.9H138.5z"/>
	<path style="fill:#FFFFFF;" d="M143.5,270.2h3.2v4c0.4-0.4,0.8-0.7,1.3-0.9c0.5-0.2,1-0.3,1.6-0.3c1.1,0,2,0.3,2.6,1
		c0.7,0.7,1,1.6,1,2.8c0,1-0.3,1.9-1,2.5c-0.7,0.6-1.5,0.9-2.6,0.9c-0.6,0-1.1-0.1-1.6-0.3c-0.5-0.2-0.9-0.5-1.3-1
		c0,0.2,0,0.4,0,0.6c0,0.2,0,0.4-0.1,0.5h-3.2c0-0.1,0.1-0.3,0.1-0.5c0-0.2,0-0.4,0-0.7V270.2z M150,276.7c0-0.6-0.1-1.1-0.4-1.4
		c-0.3-0.4-0.7-0.5-1.2-0.5c-0.5,0-0.9,0.2-1.2,0.5c-0.3,0.3-0.4,0.8-0.4,1.5c0,0.6,0.1,1.1,0.4,1.4c0.3,0.3,0.7,0.5,1.2,0.5
		c0.5,0,0.9-0.2,1.2-0.5C149.8,277.7,150,277.3,150,276.7z"/>
	<path style="fill:#FFFFFF;" d="M160.4,279.1c-0.3,0.4-0.7,0.7-1.2,0.9c-0.5,0.2-1.1,0.3-1.8,0.3c-1,0-1.8-0.2-2.3-0.5
		c-0.5-0.4-0.8-0.8-0.8-1.5c0-0.9,0.5-1.5,1.4-1.9c0.9-0.4,2.5-0.6,4.6-0.6c0,0,0,0,0-0.1c0,0,0-0.1,0-0.1c0-0.4-0.1-0.6-0.3-0.8
		c-0.2-0.2-0.5-0.3-1-0.3c-0.4,0-0.7,0.1-0.9,0.2c-0.2,0.1-0.3,0.3-0.4,0.6h-3c0-0.8,0.4-1.3,1.1-1.7c0.7-0.4,1.8-0.6,3.3-0.6
		c1.4,0,2.5,0.2,3.2,0.7c0.7,0.4,1,1.1,1,2v3.5c0,0.2,0,0.4,0,0.5c0,0.1,0.1,0.3,0.1,0.4h-3c-0.1-0.2-0.1-0.3-0.1-0.5
		C160.4,279.4,160.4,279.3,160.4,279.1z M160.3,277.1c-1,0-1.8,0.1-2.1,0.2c-0.4,0.1-0.6,0.4-0.6,0.7c0,0.2,0.1,0.4,0.3,0.5
		c0.2,0.1,0.4,0.2,0.8,0.2c0.5,0,1-0.1,1.2-0.4c0.3-0.3,0.4-0.6,0.4-1.1V277.1z"/>
	<path style="fill:#FFFFFF;" d="M165.2,270.2h3.2v4c0.4-0.4,0.8-0.7,1.3-0.9c0.5-0.2,1-0.3,1.6-0.3c1.1,0,2,0.3,2.6,1
		c0.7,0.7,1,1.6,1,2.8c0,1-0.3,1.9-1,2.5c-0.7,0.6-1.5,0.9-2.6,0.9c-0.6,0-1.1-0.1-1.6-0.3c-0.5-0.2-0.9-0.5-1.3-1
		c0,0.2,0,0.4,0,0.6c0,0.2,0,0.4-0.1,0.5h-3.2c0-0.1,0.1-0.3,0.1-0.5c0-0.2,0-0.4,0-0.7V270.2z M171.7,276.7c0-0.6-0.1-1.1-0.4-1.4
		c-0.3-0.4-0.7-0.5-1.2-0.5c-0.5,0-0.9,0.2-1.2,0.5c-0.3,0.3-0.4,0.8-0.4,1.5c0,0.6,0.1,1.1,0.4,1.4c0.3,0.3,0.7,0.5,1.2,0.5
		c0.5,0,0.9-0.2,1.2-0.5C171.5,277.7,171.7,277.3,171.7,276.7z"/>
	<path style="fill:#FFFFFF;" d="M182.1,279.1c-0.3,0.4-0.7,0.7-1.2,0.9c-0.5,0.2-1.1,0.3-1.8,0.3c-1,0-1.8-0.2-2.3-0.5
		c-0.5-0.4-0.8-0.8-0.8-1.5c0-0.9,0.5-1.5,1.4-1.9c0.9-0.4,2.5-0.6,4.6-0.6c0,0,0,0,0-0.1c0,0,0-0.1,0-0.1c0-0.4-0.1-0.6-0.3-0.8
		c-0.2-0.2-0.5-0.3-1-0.3c-0.4,0-0.7,0.1-0.9,0.2c-0.2,0.1-0.3,0.3-0.4,0.6h-3c0-0.8,0.4-1.3,1.1-1.7c0.7-0.4,1.8-0.6,3.3-0.6
		c1.4,0,2.5,0.2,3.2,0.7c0.7,0.4,1,1.1,1,2v3.5c0,0.2,0,0.4,0,0.5c0,0.1,0.1,0.3,0.1,0.4h-3c-0.1-0.2-0.1-0.3-0.1-0.5
		C182.1,279.4,182.1,279.3,182.1,279.1z M182,277.1c-1,0-1.8,0.1-2.1,0.2c-0.4,0.1-0.6,0.4-0.6,0.7c0,0.2,0.1,0.4,0.3,0.5
		c0.2,0.1,0.4,0.2,0.8,0.2c0.5,0,1-0.1,1.2-0.4c0.3-0.3,0.4-0.6,0.4-1.1V277.1z"/>
	<path style="fill:#FFFFFF;" d="M195.1,276.2v-1.2h4.2v3.7c-0.6,0.5-1.3,0.9-2,1.2c-0.7,0.3-1.4,0.4-2.1,0.4c-1,0-1.9-0.2-2.7-0.6
		c-0.8-0.4-1.4-1-1.8-1.8c-0.4-0.8-0.6-1.7-0.6-2.6c0-1,0.2-1.9,0.6-2.7c0.4-0.8,1-1.4,1.7-1.9c0.8-0.4,1.6-0.6,2.6-0.6
		c0.7,0,1.4,0.1,1.9,0.3c0.6,0.2,1,0.6,1.4,1c0.3,0.4,0.6,1,0.8,1.6l-1.2,0.3c-0.1-0.5-0.3-0.9-0.6-1.2c-0.2-0.3-0.5-0.5-0.9-0.7
		c-0.4-0.2-0.9-0.3-1.4-0.3c-0.6,0-1.1,0.1-1.6,0.3c-0.4,0.2-0.8,0.4-1.1,0.7c-0.3,0.3-0.5,0.6-0.6,1c-0.3,0.6-0.4,1.3-0.4,2
		c0,0.9,0.2,1.6,0.5,2.2c0.3,0.6,0.7,1,1.3,1.3c0.6,0.3,1.2,0.4,1.9,0.4c0.6,0,1.1-0.1,1.7-0.3c0.5-0.2,1-0.5,1.2-0.7v-1.8H195.1z"
		/>
	<path style="fill:#FFFFFF;" d="M201.1,280.1V273h1.1v1.1c0.3-0.5,0.5-0.8,0.8-1c0.2-0.2,0.5-0.2,0.8-0.2c0.4,0,0.8,0.1,1.3,0.4
		l-0.4,1.1c-0.3-0.2-0.6-0.3-0.9-0.3c-0.3,0-0.5,0.1-0.7,0.2c-0.2,0.2-0.4,0.4-0.5,0.7c-0.1,0.4-0.2,0.9-0.2,1.4v3.7H201.1z"/>
	<path style="fill:#FFFFFF;" d="M205.5,276.5c0-1.3,0.4-2.3,1.1-2.9c0.6-0.5,1.4-0.8,2.3-0.8c1,0,1.8,0.3,2.4,1
		c0.6,0.6,0.9,1.5,0.9,2.7c0,0.9-0.1,1.6-0.4,2.2c-0.3,0.5-0.7,0.9-1.2,1.2c-0.5,0.3-1.1,0.4-1.7,0.4c-1,0-1.8-0.3-2.4-1
		C205.8,278.7,205.5,277.7,205.5,276.5z M206.7,276.5c0,0.9,0.2,1.6,0.6,2.1c0.4,0.5,0.9,0.7,1.5,0.7c0.6,0,1.1-0.2,1.5-0.7
		c0.4-0.5,0.6-1.2,0.6-2.1c0-0.9-0.2-1.6-0.6-2c-0.4-0.5-0.9-0.7-1.5-0.7c-0.6,0-1.1,0.2-1.5,0.7
		C206.9,274.9,206.7,275.6,206.7,276.5z"/>
	<path style="fill:#FFFFFF;" d="M218.6,280.1v-1.1c-0.6,0.8-1.3,1.2-2.3,1.2c-0.4,0-0.8-0.1-1.2-0.2c-0.4-0.2-0.6-0.4-0.8-0.6
		c-0.2-0.2-0.3-0.5-0.4-0.9c0-0.2-0.1-0.6-0.1-1.1V273h1.2v4c0,0.6,0,1.1,0.1,1.3c0.1,0.3,0.2,0.6,0.5,0.8c0.2,0.2,0.6,0.3,0.9,0.3
		c0.4,0,0.7-0.1,1-0.3c0.3-0.2,0.5-0.4,0.7-0.8c0.1-0.3,0.2-0.8,0.2-1.4V273h1.2v7.2H218.6z"/>
	<path style="fill:#FFFFFF;" d="M221.8,282.8V273h1.1v0.9c0.3-0.4,0.6-0.6,0.9-0.8c0.3-0.2,0.7-0.3,1.2-0.3c0.6,0,1.2,0.2,1.6,0.5
		c0.5,0.3,0.8,0.8,1.1,1.3c0.2,0.6,0.4,1.2,0.4,1.9c0,0.7-0.1,1.4-0.4,2c-0.3,0.6-0.6,1-1.2,1.3c-0.5,0.3-1,0.5-1.6,0.5
		c-0.4,0-0.8-0.1-1.1-0.3c-0.3-0.2-0.6-0.4-0.8-0.6v3.5H221.8z M222.9,276.6c0,0.9,0.2,1.6,0.6,2c0.4,0.4,0.8,0.7,1.4,0.7
		c0.5,0,1-0.2,1.4-0.7c0.4-0.5,0.6-1.2,0.6-2.1c0-0.9-0.2-1.6-0.6-2c-0.4-0.5-0.8-0.7-1.4-0.7c-0.5,0-1,0.2-1.4,0.7
		C223.1,275,222.9,275.7,222.9,276.6z"/>
</g>
<path style="fill-rule:evenodd;clip-rule:evenodd;fill:#FFFFFF;" d="M87.2,289c-0.2,0-0.5-0.2-0.7-0.3c-1.9-1.8,0.5-3.9,3.3-5.2V280
	c0.7,0.4,1,0.4,1,0.5l2.1-2.1l-0.7-1.8c6.3-2.2,8.8-3,13.9-3.8l-0.9-0.8l1.5-0.8c3.4,1.1,6.7,1.4,6.1,4.3c0.1-1.9-2.3-2.7-6-3.7
	l-0.7,0.4l1.4,1.1c-6.1,1-9.9,2.2-14.3,3.8l0.6,1.6l-2.2,2.2c0.4,0.1,4.3,1.4,8.4-1.4c0,0,0.1-0.1,0.1-0.1c-0.1-0.2-0.4-0.4-0.7-0.7
	c1.2,0.1,2,1.1,1.8,2.2h-0.6c0-0.4,0-0.7-0.2-1c-3.2,2.3-6.8,2.6-9.9,1.5v2.7c-1.5,0.5-4.2,2.2-4.2,3.8
	C86.5,288.5,86.9,288.8,87.2,289z"/>
<path style="fill-rule:evenodd;clip-rule:evenodd;fill:#FFFFFF;" d="M100,288.3c-3.4,1.7-6.6,3.1-11.6,3.3c-6.5-0.1-7.5-4.4-4.4-8.9
	c2.9-4.5,7.5-8.6,14.8-11.1c2.1-0.7,5.2-1.6,8.3-1.6c4.3,0,8.5,1.3,8.3,5.4c-0.2,3.2-4.7,7.6-7.2,10.8c-1,1.4-1.2,2.3,0.6,2.2
	c6.4-0.4,12.2-2.6,17.6-4.9c-3.7,2.5-22.6,11.8-22.6,5.4c0-0.8,0.4-1.7,1-2.6c0.6-0.9,1.4-1.9,2.3-2.8c1.3-1.5,4.5-5,5.6-7
	c1.8-4-2.2-4.2-5.7-5.4l-1.5,0.8l0.9,0.8c-5.1,0.8-7.6,1.7-13.9,3.8l0.7,1.8l-2.1,2.1c-0.1-0.1-0.4-0.1-1-0.5v3.5
	c-2.8,1.2-5.2,3.3-3.3,5.2c0.2,0.2,0.5,0.3,0.7,0.3l0,0C90.7,290.9,100,288.3,100,288.3z"/>
<g>
	<path style="fill:#FFFFFF;" d="M122.6,289.7h0.5c0.1,0,0.2,0,0.2,0c0.1,0,0.1-0.1,0.1-0.1c0,0,0-0.1,0-0.1c0-0.1,0-0.1-0.1-0.2
		c-0.1,0-0.1-0.1-0.3-0.1h-0.5V289.7z M122.4,290.7V289h0.7c0.1,0,0.3,0,0.3,0c0.1,0,0.1,0.1,0.2,0.2c0,0.1,0.1,0.2,0.1,0.3
		c0,0.1,0,0.2-0.1,0.3c-0.1,0.1-0.2,0.1-0.4,0.2c0.1,0,0.1,0.1,0.1,0.1c0.1,0.1,0.1,0.1,0.2,0.2l0.3,0.5h-0.3l-0.2-0.3
		c-0.1-0.1-0.1-0.2-0.2-0.2c0-0.1-0.1-0.1-0.1-0.1c0,0-0.1,0-0.1,0c0,0-0.1,0-0.1,0h-0.3v0.7H122.4"/>
	<path style="fill-rule:evenodd;clip-rule:evenodd;fill:#FFFFFF;" d="M123,291.5c0.9,0,1.6-0.7,1.6-1.6c0-0.9-0.7-1.6-1.6-1.6
		c-0.9,0-1.6,0.7-1.6,1.6C121.4,290.8,122.2,291.5,123,291.5z M121.7,289.9c0-0.7,0.6-1.3,1.4-1.3c0.7,0,1.4,0.6,1.4,1.3
		c0,0.7-0.6,1.3-1.4,1.3C122.3,291.2,121.7,290.6,121.7,289.9"/>
</g>
<g>
	<g>
		<path style="fill-rule:evenodd;clip-rule:evenodd;fill:#FFFFFF;" d="M133.4,283.4v8.4c0.6,0,1.2-0.5,1.2-1.1v-0.4h0.7
			c0.5,0,1-0.7,1-1c0-0.8,0-1.1,0-1.9c0-0.4-0.4-0.6-0.6-0.7c0.2-0.2,0.6-0.4,0.6-0.8c0-1,0-1.4,0-2.4H133.4z M135.1,286.2
			c0,0.1-0.1,0.4-0.3,0.5c0,0-0.1,0.1-0.1,0.1c0,0,0,0,0,0h0.4v2.4h-0.5c0-1.6,0-3.2,0-4.8h0.5V286.2z M139.9,288.9v-3.8h-3v5.2h1.5
			c0.2,0,0.5-0.1,0.8-0.3c0.1-0.1,0.3-0.2,0.4-0.3C139.7,289.5,139.9,289.2,139.9,288.9z M138.7,289.3H138v-3.2h0.6V289.3z
			 M136.5,283.4v1h3.6v6.3v1.1c0.4,0,1.3-0.4,1.3-1.2v-6.2c0.3,0,0.5-0.7,0.5-1H136.5z"/>
		<path style="fill-rule:evenodd;clip-rule:evenodd;fill:#FFFFFF;" d="M147.5,290.9v-0.8h2.5c0.4,0,0.7-0.6,0.9-1h-3.4v-0.7h1.9
			c0.5,0,1.4-0.7,1.4-1.1v-3.9h-8.1v5h3.3v0.7h-3.3v1h3.3v0.8h-3.4v1h7.6c0.3,0,0.6-0.6,0.8-1H147.5z M147.5,286.4h0.6
			c0.1,0,0.2,0,0.3-0.1c0.1-0.1,0.7-0.8,0.8-0.9h-1.7v-1.1h1.8v3.1h-1.8V286.4z M146,287.5h-1.8v-1.1h1.8V287.5z M146,285.5h-1.8
			v-1.1h0.9h0.9V285.5z"/>
		<path style="fill-rule:evenodd;clip-rule:evenodd;fill:#FFFFFF;" d="M153.5,290.8v-2.4h5.2c0.5,0,1.3-0.8,1.3-1.2v-3.8h-8v7.3
			c0,0.6,0.4,1.2,1,1.2c0.5,0,5.6,0,6.1,0c0.5,0,1-0.7,1.1-1.1H153.5z M158.5,287.3h-1.7v-2.8h1.7V287.3z M153.5,284.5h1.8v2.8h-1.8
			V284.5z"/>
		<path style="fill-rule:evenodd;clip-rule:evenodd;fill:#FFFFFF;" d="M162.8,290.8v-2.4h5.2c0.5,0,1.3-0.8,1.3-1.2v-3.8h-8v7.3
			c0,0.6,0.4,1.2,1,1.2c0.5,0,5.6,0,6.1,0c0.5,0,1-0.7,1.1-1.1H162.8z M167.8,287.3H166v-2.8h1.7V287.3z M162.8,284.5h1.8v2.8h-1.8
			V284.5z"/>
	</g>
	<g>
		<path style="fill:#FFFFFF;" d="M174.8,289v-0.3h0.6v0.2h3.7c0,0-0.1,0.5-0.9,0.5c-0.8,0-2.7,0-2.7,0s0,0.9,0,1.3
			c0,1-0.6,1.1-0.6,1.1v-2.4h-4.4V289H174.8z"/>
		<path style="fill:#FFFFFF;" d="M172.2,290.3h0.7c0,0-0.7,0.9-0.9,1.1c-0.2,0.2-0.5,0.6-0.9,0.6c-0.2,0-0.3,0-0.3,0L172.2,290.3z"
			/>
		<path style="fill:#FFFFFF;" d="M177.8,290.3h-0.7c0,0,0.7,0.9,0.9,1.1c0.2,0.2,0.5,0.6,0.9,0.6c0.2,0,0.3,0,0.3,0L177.8,290.3z"/>
		<g>
			<path style="fill:#FFFFFF;" d="M178.2,284.3c0.8,0,0.9-0.5,0.9-0.5h-3.6l0.3-0.3h-0.6l-0.3,0.4h-2.5l0.3-0.4h-0.6l-1.6,2h0.7v2.7
				c0,0,0.1,0,0.2,0c1,0,1-0.1,1-0.1s5,0,5.8,0c0.8,0,0.8-0.5,0.8-0.5h-3.6v-0.8c0,0,2,0,2.8,0c0.8,0,0.9-0.5,0.9-0.5h-3.7v-0.8
				c0,0,2,0,2.8,0c0.8,0,0.9-0.5,0.9-0.5h-3.7v-0.8C175.4,284.3,177.6,284.3,178.2,284.3z M174.8,287.6h-3.1v-0.8h3.1V287.6z
				 M174.8,286.4h-3.1v-0.8h3.1V286.4z M174.8,285.1h-3.1l0-0.3l0.2-0.2l0.2-0.3h2.7V285.1z"/>
		</g>
	</g>
	<path style="fill:#FFFFFF;" d="M180.8,283.5v8.5h7.2c0.5,0,0.7-0.5,0.7-1v-7.5H180.8z M188.1,290.9c0,0.3-0.1,0.5-0.5,0.5h-6.3V284
		h6.8V290.9z"/>
	<path style="fill:#FFFFFF;" d="M184.1,287.1l-1.8,3.3c0,0,0.6,0.1,0.9-0.5l1.5-2.8L184.1,287.1z"/>
	<path style="fill:#FFFFFF;" d="M186.3,289.7c0,0.2-0.1,0.3-0.2,0.3h-0.6v0.5h0.8c0.5,0,0.6-0.2,0.6-0.7c0,0,0-3.2,0-3.2
		c0.6,0,0.6-0.5,0.6-0.5l-0.6,0V285h-0.6v1.1h-4.1v0.5h4.1V289.7z"/>
</g>
<g>
	<defs>
		<rect id="SVGID_1_" x="0.3" y="2.6" width="198.3" height="456.8"/>
	</defs>
	<clipPath id="SVGID_2_">
		<use xlink:href="#SVGID_1_"  style="overflow:visible;"/>
	</clipPath>
	<g id="形状_13_39_" style="clip-path:url(#SVGID_2_);">
		<g>
			<path style="fill:#FFFFFF;" d="M169.1,392.8c0,0,3.6,0,4.7-0.9c1.1-0.9,1.7-2.9,0.6-4.2c-2.3-2.5-9.3-2.6-16.1-4.3
				c-5.2-1.3-13-3.9-15.2-5c-13.5-4-29.4-19.1-58.4-45.3c-22.2-22-44.7-31.6-44.7-31.6s-31.8,27.7,18.8,48.9
				c22.7,9.5,44,22.1,55.3,30c14,9.7,18.3,16.7,22.9,20.7c6.2,5.5,15.2,10.8,17.8,8.7c5.9-4.6-6.6-7.5-6.1-11.2
				c1-7,23.4,8.8,26.7,3.3C178.9,395.7,169.1,392.8,169.1,392.8z"/>
		</g>
	</g>
	<g id="形状_14_39_" style="clip-path:url(#SVGID_2_);">
		<g>
			<path style="fill:#FFFFFF;" d="M146.6,390.5c-1.3-0.8-4.1-2.5-5.2-3.5c-1.6-1.5-2.4,0-0.9,1.3c1.9,1.7,6.1,3.5,9.4,4.4
				c1.1,0.3,1.8,0.1,1.8,0.1S149.4,392.1,146.6,390.5z"/>
		</g>
	</g>
	<g id="形状_13_37_" style="clip-path:url(#SVGID_2_);">
		<g>
			<path style="fill-rule:evenodd;clip-rule:evenodd;fill:#FFFFFF;" d="M-3.8,301.3c0,0-24.1,9.9-46.3,31.9
				c-28.9,26.1-44.9,41.3-58.4,45.3c-2.2,1.1-10.1,3.8-15.2,5c-6.8,1.7-13.8,1.8-16.1,4.3c-1.1,1.3-0.5,3.3,0.6,4.2
				c1.1,0.9,4.7,0.9,4.7,0.9s-9.9,2.9-6.3,9c3.3,5.5,25.7-10.2,26.7-3.3c0.5,3.7-11.9,6.6-6.1,11.2c2.6,2.1,11.6-3.1,17.8-8.7
				c4.5-4,8.9-11.1,22.9-20.7c11.4-7.8,32.7-20.5,55.3-30C26.4,329.2-3.8,301.3-3.8,301.3z"/>
		</g>
	</g>
	<g id="形状_14_37_" style="clip-path:url(#SVGID_2_);">
		<g>
			<path style="fill-rule:evenodd;clip-rule:evenodd;fill:#FFFFFF;" d="M-143.3,387c-1.1,1-3.8,2.7-5.2,3.5
				c-2.8,1.7-5.2,2.3-5.2,2.3s0.7,0.2,1.8-0.1c3.3-0.9,7.5-2.7,9.4-4.4C-140.9,387-141.7,385.5-143.3,387z"/>
		</g>
	</g>
	<path style="clip-path:url(#SVGID_2_);fill-rule:evenodd;clip-rule:evenodd;fill:#FFFFFF;" d="M-140.4,593.3
		c15.1,5.4,46.4,3.4,64.4,2.6c18.7-0.8,58.6-6.5,66-8.6c15.7-4.3,6.8-14.1,5.3-21.1c-1.5-7.3-2.3-14.4-1.9-22.3
		c0.1-2.6,0.3-7.5,4.9-7.3c5,1.5,9.7,2.4,14,2.8c0,0,0.1,0,0.1,0c0.4,0,0.7,0.1,1.1,0.1c0.2,0,0.5,0,0.7,0.1c0.2,0,0.5,0,0.7,0
		c0.3,0,0.7,0,1,0c0.2,0,0.3,0,0.5,0c0.3,0,0.7,0,1,0c0.2,0,0.4,0,0.5,0c0.3,0,0.5,0,0.8,0c0.3,0,0.5,0,0.8,0c0.2,0,0.4,0,0.5,0
		c0.3,0,0.7,0,1,0c0.2,0,0.3,0,0.5,0c0.3,0,0.7,0,1,0c0.2,0,0.5,0,0.7,0c0.2,0,0.5,0,0.7-0.1c0.3,0,0.7-0.1,1.1-0.1c0,0,0.1,0,0.1,0
		c4.3-0.4,9-1.3,14-2.8c4.6-0.2,4.7,4.7,4.9,7.3c0.4,7.9-0.4,15.1-1.9,22.3c-1.5,7.1-10.4,16.8,5.3,21.1c7.4,2.1,51.1,7.5,69.8,8.7
		c20.2,1.3,53.4,1.6,62.9-2.5c5.3-2.2,5.5-15.7-8.7-23c-17.9-9.2-92.1-5.1-97-5.4c-10.4-0.7-8.3-4-8.4-9.2
		c-0.2-9.7,7.8-14.7,14.6-19c6.8-4.3,40.9-19.3,40.9-52.5c0-17-4.7-40-26.7-72.7C41.2,332,39.2,287.5,39.2,287.5l-4.4-0.2
		c-0.2-0.8-0.2-1.3-0.2-1.3l-15.9,0.6L2.7,286c0,0-0.1,0.4-0.2,1.3l-4.4,0.2c0,0-2,44.5-55.6,124.1c-22,32.7-26.7,55.7-26.7,72.7
		c0,33.1,34.1,48.2,40.9,52.5c6.8,4.3,14.8,9.3,14.6,19c-0.1,5.2,1.6,9.8-8.7,10.1c-4.9,0.1-78.9-4.6-96.7,4.6
		C-148.2,577.8-145.8,591.3-140.4,593.3z"/>
	<path style="opacity:0.6;clip-path:url(#SVGID_2_);fill-rule:evenodd;clip-rule:evenodd;fill:#FFFFFF;" d="M-1.7,287.5
		c5.9,3.5,14.1,8.4,18.6,9c6.9,1,14.6-0.1,22.3-8.9c0,0.6,0.3,3.7,1.3,9c-2.2,7.1-7,14.7-17.2,15.9c-12,1.4-21-8.2-26.4-16.7
		c1-5.5,1.2-8.3,1.2-8.3L-1.7,287.5z"/>
	<g id="形状_9_19_" style="clip-path:url(#SVGID_2_);">
		<g>
			<path style="fill-rule:evenodd;clip-rule:evenodd;fill:#FFFFFF;" d="M116,75.4c-1.4-7-11.5-0.6-11.5-0.6s-39,21.6-64.4,77.7
				c-25.4,56.1,21.2,30.3,21.2,30.3S131,163.2,116,75.4z"/>
		</g>
	</g>
	<g id="形状_9_拷贝_19_" style="clip-path:url(#SVGID_2_);">
		<g>
			<path style="fill:#FFFFFF;" d="M-6.3,152.3c-25.5-56-64.5-77.6-64.5-77.6s-10.1-6.4-11.5,0.6c-15,87.8,54.8,107.3,54.8,107.3
				S19.2,208.4-6.3,152.3z"/>
		</g>
	</g>
	<g id="脸_39_" style="clip-path:url(#SVGID_2_);">
		<g>
			<path style="fill:#FFFFFF;" d="M68.3,202.5c-2.5-8-4.6-19.5-7.9-29.1c-7.1-20.3-24.8-28.2-43.5-28.5
				c-18.5-0.3-35.9,6.8-43.5,28.4c-3.3,9.6-5.7,21.1-8.2,29.1c-2.5,8-8.1,42.1,5.9,63.2c-0.1,0.1,4.4,7.3,16.1,17.7
				c9,8.1,13.8,17.2,28.3,18.2c0.2,0,0.4,0.1,0.6,0.1c1,0,2,0,3,0c0.1,0,0.2,0,0.2,0c0.1,0,0.1,0,0.2,0c11.6-0.7,16.8-8.2,26-17.3
				c11.1-11.1,17.1-18.4,17.1-18.5C76.4,244.6,70.8,210.5,68.3,202.5z"/>
		</g>
	</g>
	<g id="形状_3_拷贝_19_" style="clip-path:url(#SVGID_2_);">
		<g>
			<path style="fill-rule:evenodd;clip-rule:evenodd;fill:#FFFFFF;" d="M65.7,88c-0.5-2.1-2-1.8-3.2-1.2
				c-29.7,14.5-41.5,41.2-45.7,58.5c-3-14.3-13-43-45.5-58.2c-0.8-0.4-1.8-0.7-2.6,0.6c0,0-10.8,48.4,38.3,73.1
				c-9.7,7.1-23.7,18.8,10.2,4.5c31.2,13.1,20.4,3.1,10.3-4.6C76.3,136.1,65.7,88,65.7,88z"/>
		</g>
	</g>
	<g id="形状_73_19_" style="clip-path:url(#SVGID_2_);">
		<g>
			<path style="fill-rule:evenodd;clip-rule:evenodd;fill:#FFFFFF;" d="M18.4,139.6c0,0-1.9,4.5-1.8,5.7c0.5,3.9,1.3,11.2,1.4,13.2
				c0.1,2.7,1.9-0.7,2.2-7.8C20.5,144.6,18.4,139.6,18.4,139.6z"/>
		</g>
	</g>
	<path style="clip-path:url(#SVGID_2_);fill-rule:evenodd;clip-rule:evenodd;fill:#FFFFFF;" d="M17.6,296c5,0,13-4.6,12.4-9.6
		c-0.5-4-4.5-5.4-12.4-5.4c-8,0-12.1,1.3-12.5,5.4C4.6,291,11.3,296,17.6,296z"/>
</g>
</svg>
