<?xml version="1.0" encoding="utf-8"?>
<!-- Generator: Adobe Illustrator 17.1.0, SVG Export Plug-In . SVG Version: 6.00 Build 0)  -->
<!DOCTYPE svg PUBLIC "-//W3C//DTD SVG 1.1//EN" "http://www.w3.org/Graphics/SVG/1.1/DTD/svg11.dtd">
<svg version="1.1" id="图层_1" xmlns="http://www.w3.org/2000/svg" xmlns:xlink="http://www.w3.org/1999/xlink" x="0px" y="0px"
	 viewBox="0 0 265.7 467.7" style="enable-background:new 0 0 265.7 467.7;" xml:space="preserve">
<rect x="5.6" y="3.3" style="fill:#FF6600;" width="254.7" height="459"/>
<path style="fill:#FFFFFF;" d="M6.7,305.4"/>
<path style="fill:#FFFFFF;" d="M5.9,311.2"/>
<path style="fill:#FFFFFF;" d="M9.6,323.9"/>
<g>
	<path style="fill:#FFFFFF;" d="M127.4,283H124l5.2-9.9h3.7l4.9,9.9h-3.7l-0.8-1.8h-5.2L127.4,283z M132.5,279l-1.6-3.6l-1.7,3.6
		H132.5z"/>
	<path style="fill:#FFFFFF;" d="M138.3,283v-9.9h3.2v9.9H138.3z"/>
	<path style="fill:#FFFFFF;" d="M143.5,275.1v-2h3.2v2H143.5z M143.5,283v-6.9h3.2v6.9H143.5z"/>
	<path style="fill:#FFFFFF;" d="M148.6,273.1h3.2v4c0.4-0.4,0.8-0.7,1.3-0.9c0.5-0.2,1-0.3,1.6-0.3c1.1,0,2,0.3,2.6,1
		c0.7,0.7,1,1.6,1,2.8c0,1-0.3,1.9-1,2.5c-0.7,0.6-1.5,0.9-2.6,0.9c-0.6,0-1.1-0.1-1.6-0.3c-0.5-0.2-0.9-0.5-1.3-1
		c0,0.2,0,0.4,0,0.6c0,0.2,0,0.4-0.1,0.5h-3.2c0-0.1,0.1-0.3,0.1-0.5c0-0.2,0-0.4,0-0.7V273.1z M155,279.6c0-0.6-0.1-1.1-0.4-1.4
		c-0.3-0.4-0.7-0.5-1.2-0.5c-0.5,0-0.9,0.2-1.2,0.5c-0.3,0.3-0.4,0.8-0.4,1.5c0,0.6,0.1,1.1,0.4,1.4c0.3,0.3,0.7,0.5,1.2,0.5
		c0.5,0,0.9-0.2,1.2-0.5C154.9,280.6,155,280.2,155,279.6z"/>
	<path style="fill:#FFFFFF;" d="M165.4,282c-0.3,0.4-0.7,0.7-1.2,0.9c-0.5,0.2-1.1,0.3-1.8,0.3c-1,0-1.8-0.2-2.3-0.5
		c-0.5-0.4-0.8-0.8-0.8-1.5c0-0.9,0.5-1.5,1.4-1.9c0.9-0.4,2.5-0.6,4.6-0.6c0,0,0,0,0-0.1c0,0,0-0.1,0-0.1c0-0.4-0.1-0.6-0.3-0.8
		c-0.2-0.2-0.5-0.3-1-0.3c-0.4,0-0.7,0.1-0.9,0.2c-0.2,0.1-0.3,0.3-0.4,0.6h-3c0-0.8,0.4-1.3,1.1-1.7c0.7-0.4,1.8-0.6,3.3-0.6
		c1.4,0,2.5,0.2,3.2,0.7c0.7,0.4,1,1.1,1,2v3.5c0,0.2,0,0.4,0,0.5c0,0.1,0.1,0.3,0.1,0.4h-3c-0.1-0.2-0.1-0.3-0.1-0.5
		C165.4,282.3,165.4,282.1,165.4,282z M165.3,280c-1,0-1.8,0.1-2.1,0.2c-0.4,0.1-0.6,0.4-0.6,0.7c0,0.2,0.1,0.4,0.3,0.5
		c0.2,0.1,0.4,0.2,0.8,0.2c0.5,0,1-0.1,1.2-0.4c0.3-0.3,0.4-0.6,0.4-1.1V280z"/>
	<path style="fill:#FFFFFF;" d="M170.2,273.1h3.2v4c0.4-0.4,0.8-0.7,1.3-0.9c0.5-0.2,1-0.3,1.6-0.3c1.1,0,2,0.3,2.6,1
		c0.7,0.7,1,1.6,1,2.8c0,1-0.3,1.9-1,2.5c-0.7,0.6-1.5,0.9-2.6,0.9c-0.6,0-1.1-0.1-1.6-0.3c-0.5-0.2-0.9-0.5-1.3-1
		c0,0.2,0,0.4,0,0.6c0,0.2,0,0.4-0.1,0.5h-3.2c0-0.1,0.1-0.3,0.1-0.5c0-0.2,0-0.4,0-0.7V273.1z M176.7,279.6c0-0.6-0.1-1.1-0.4-1.4
		c-0.3-0.4-0.7-0.5-1.2-0.5c-0.5,0-0.9,0.2-1.2,0.5c-0.3,0.3-0.4,0.8-0.4,1.5c0,0.6,0.1,1.1,0.4,1.4c0.3,0.3,0.7,0.5,1.2,0.5
		c0.5,0,0.9-0.2,1.2-0.5C176.5,280.6,176.7,280.2,176.7,279.6z"/>
	<path style="fill:#FFFFFF;" d="M187.1,282c-0.3,0.4-0.7,0.7-1.2,0.9c-0.5,0.2-1.1,0.3-1.8,0.3c-1,0-1.8-0.2-2.3-0.5
		c-0.5-0.4-0.8-0.8-0.8-1.5c0-0.9,0.5-1.5,1.4-1.9c0.9-0.4,2.5-0.6,4.6-0.6c0,0,0,0,0-0.1c0,0,0-0.1,0-0.1c0-0.4-0.1-0.6-0.3-0.8
		c-0.2-0.2-0.5-0.3-1-0.3c-0.4,0-0.7,0.1-0.9,0.2c-0.2,0.1-0.3,0.3-0.4,0.6h-3c0-0.8,0.4-1.3,1.1-1.7c0.7-0.4,1.8-0.6,3.3-0.6
		c1.4,0,2.5,0.2,3.2,0.7c0.7,0.4,1,1.1,1,2v3.5c0,0.2,0,0.4,0,0.5c0,0.1,0.1,0.3,0.1,0.4h-3c-0.1-0.2-0.1-0.3-0.1-0.5
		C187.1,282.3,187.1,282.1,187.1,282z M187,280c-1,0-1.8,0.1-2.1,0.2c-0.4,0.1-0.6,0.4-0.6,0.7c0,0.2,0.1,0.4,0.3,0.5
		c0.2,0.1,0.4,0.2,0.8,0.2c0.5,0,1-0.1,1.2-0.4c0.3-0.3,0.4-0.6,0.4-1.1V280z"/>
	<path style="fill:#FFFFFF;" d="M200.1,279.1V278h4.2v3.7c-0.6,0.5-1.3,0.9-2,1.2c-0.7,0.3-1.4,0.4-2.1,0.4c-1,0-1.9-0.2-2.7-0.6
		c-0.8-0.4-1.4-1-1.8-1.8c-0.4-0.8-0.6-1.7-0.6-2.6c0-1,0.2-1.9,0.6-2.7c0.4-0.8,1-1.4,1.7-1.9c0.8-0.4,1.6-0.6,2.6-0.6
		c0.7,0,1.4,0.1,1.9,0.3c0.6,0.2,1,0.6,1.4,1c0.3,0.4,0.6,1,0.8,1.6l-1.2,0.3c-0.1-0.5-0.3-0.9-0.6-1.2c-0.2-0.3-0.5-0.5-0.9-0.7
		c-0.4-0.2-0.9-0.3-1.4-0.3c-0.6,0-1.1,0.1-1.6,0.3c-0.4,0.2-0.8,0.4-1.1,0.7c-0.3,0.3-0.5,0.6-0.6,1c-0.3,0.6-0.4,1.3-0.4,2
		c0,0.9,0.2,1.6,0.5,2.2c0.3,0.6,0.7,1,1.3,1.3c0.6,0.3,1.2,0.4,1.9,0.4c0.6,0,1.1-0.1,1.7-0.3c0.5-0.2,1-0.5,1.2-0.7v-1.8H200.1z"
		/>
	<path style="fill:#FFFFFF;" d="M206.1,283v-7.2h1.1v1.1c0.3-0.5,0.5-0.8,0.8-1c0.2-0.2,0.5-0.2,0.8-0.2c0.4,0,0.8,0.1,1.3,0.4
		l-0.4,1.1c-0.3-0.2-0.6-0.3-0.9-0.3c-0.3,0-0.5,0.1-0.7,0.2c-0.2,0.2-0.4,0.4-0.5,0.7c-0.1,0.4-0.2,0.9-0.2,1.4v3.7H206.1z"/>
	<path style="fill:#FFFFFF;" d="M210.5,279.4c0-1.3,0.4-2.3,1.1-2.9c0.6-0.5,1.4-0.8,2.3-0.8c1,0,1.8,0.3,2.4,1
		c0.6,0.6,0.9,1.5,0.9,2.7c0,0.9-0.1,1.6-0.4,2.2c-0.3,0.5-0.7,0.9-1.2,1.2c-0.5,0.3-1.1,0.4-1.7,0.4c-1,0-1.8-0.3-2.4-1
		C210.8,281.5,210.5,280.6,210.5,279.4z M211.7,279.4c0,0.9,0.2,1.6,0.6,2.1c0.4,0.5,0.9,0.7,1.5,0.7c0.6,0,1.1-0.2,1.5-0.7
		c0.4-0.5,0.6-1.2,0.6-2.1c0-0.9-0.2-1.6-0.6-2c-0.4-0.5-0.9-0.7-1.5-0.7c-0.6,0-1.1,0.2-1.5,0.7
		C211.9,277.8,211.7,278.5,211.7,279.4z"/>
	<path style="fill:#FFFFFF;" d="M223.6,283v-1.1c-0.6,0.8-1.3,1.2-2.3,1.2c-0.4,0-0.8-0.1-1.2-0.2c-0.4-0.2-0.6-0.4-0.8-0.6
		c-0.2-0.2-0.3-0.5-0.4-0.9c0-0.2-0.1-0.6-0.1-1.1v-4.4h1.2v4c0,0.6,0,1.1,0.1,1.3c0.1,0.3,0.2,0.6,0.5,0.8c0.2,0.2,0.6,0.3,0.9,0.3
		c0.4,0,0.7-0.1,1-0.3c0.3-0.2,0.5-0.4,0.7-0.8c0.1-0.3,0.2-0.8,0.2-1.4v-3.8h1.2v7.2H223.6z"/>
	<path style="fill:#FFFFFF;" d="M226.8,285.7v-9.9h1.1v0.9c0.3-0.4,0.6-0.6,0.9-0.8c0.3-0.2,0.7-0.3,1.2-0.3c0.6,0,1.2,0.2,1.6,0.5
		c0.5,0.3,0.8,0.8,1.1,1.3c0.2,0.6,0.4,1.2,0.4,1.9c0,0.7-0.1,1.4-0.4,2c-0.3,0.6-0.6,1-1.2,1.3c-0.5,0.3-1,0.5-1.6,0.5
		c-0.4,0-0.8-0.1-1.1-0.3c-0.3-0.2-0.6-0.4-0.8-0.6v3.5H226.8z M227.9,279.5c0,0.9,0.2,1.6,0.6,2c0.4,0.4,0.8,0.7,1.4,0.7
		c0.5,0,1-0.2,1.4-0.7c0.4-0.5,0.6-1.2,0.6-2.1c0-0.9-0.2-1.6-0.6-2c-0.4-0.5-0.8-0.7-1.4-0.7c-0.5,0-1,0.2-1.4,0.7
		C228.1,277.8,227.9,278.5,227.9,279.5z"/>
</g>
<path style="fill-rule:evenodd;clip-rule:evenodd;fill:#FFFFFF;" d="M92.2,291.9c-0.2,0-0.5-0.2-0.7-0.3c-1.9-1.8,0.5-3.9,3.3-5.2
	v-3.5c0.7,0.4,1,0.4,1,0.5l2.1-2.1l-0.7-1.8c6.3-2.2,8.8-3,13.9-3.8l-0.9-0.8l1.5-0.8c3.4,1.1,6.7,1.4,6.1,4.3
	c0.1-1.9-2.3-2.7-6-3.7l-0.7,0.4l1.4,1.1c-6.1,1-9.9,2.2-14.3,3.8l0.6,1.6l-2.2,2.2c0.4,0.1,4.3,1.4,8.4-1.4c0,0,0.1-0.1,0.1-0.1
	c-0.1-0.2-0.4-0.4-0.7-0.7c1.2,0.1,2,1.1,1.8,2.2h-0.6c0-0.4,0-0.7-0.2-1c-3.2,2.3-6.8,2.6-9.9,1.5v2.7c-1.5,0.5-4.2,2.2-4.2,3.8
	C91.5,291.4,91.9,291.7,92.2,291.9z"/>
<path style="fill-rule:evenodd;clip-rule:evenodd;fill:#FFFFFF;" d="M105,291.2c-3.4,1.7-6.6,3.1-11.6,3.3c-6.5-0.1-7.5-4.4-4.4-8.9
	c2.9-4.5,7.5-8.6,14.8-11.1c2.1-0.7,5.2-1.6,8.3-1.6c4.3,0,8.5,1.3,8.3,5.4c-0.2,3.2-4.7,7.6-7.2,10.8c-1,1.4-1.2,2.3,0.6,2.2
	c6.4-0.4,12.2-2.6,17.6-4.9c-3.7,2.5-22.6,11.8-22.6,5.4c0-0.8,0.4-1.7,1-2.6c0.6-0.9,1.4-1.9,2.3-2.8c1.3-1.5,4.5-5,5.6-7
	c1.8-4-2.2-4.2-5.7-5.4l-1.5,0.8l0.9,0.8c-5.1,0.8-7.6,1.7-13.9,3.8l0.7,1.8l-2.1,2.1c-0.1-0.1-0.4-0.1-1-0.5v3.5
	c-2.8,1.2-5.2,3.3-3.3,5.2c0.2,0.2,0.5,0.3,0.7,0.3l0,0C95.7,293.8,105,291.2,105,291.2z"/>
<g>
	<path style="fill:#FFFFFF;" d="M127.6,292.6h0.5c0.1,0,0.2,0,0.2,0c0.1,0,0.1-0.1,0.1-0.1c0,0,0-0.1,0-0.1c0-0.1,0-0.1-0.1-0.2
		c-0.1,0-0.1-0.1-0.3-0.1h-0.5V292.6z M127.4,293.5v-1.7h0.7c0.1,0,0.3,0,0.3,0c0.1,0,0.1,0.1,0.2,0.2c0,0.1,0.1,0.2,0.1,0.3
		c0,0.1,0,0.2-0.1,0.3c-0.1,0.1-0.2,0.1-0.4,0.2c0.1,0,0.1,0.1,0.1,0.1c0.1,0.1,0.1,0.1,0.2,0.2l0.3,0.5h-0.3l-0.2-0.3
		c-0.1-0.1-0.1-0.2-0.2-0.2c0-0.1-0.1-0.1-0.1-0.1c0,0-0.1,0-0.1,0c0,0-0.1,0-0.1,0h-0.3v0.7H127.4"/>
	<path style="fill-rule:evenodd;clip-rule:evenodd;fill:#FFFFFF;" d="M128.1,294.4c0.9,0,1.6-0.7,1.6-1.6c0-0.9-0.7-1.6-1.6-1.6
		c-0.9,0-1.6,0.7-1.6,1.6C126.5,293.7,127.2,294.4,128.1,294.4z M126.7,292.8c0-0.7,0.6-1.3,1.4-1.3c0.7,0,1.4,0.6,1.4,1.3
		c0,0.7-0.6,1.3-1.4,1.3C127.3,294.1,126.7,293.5,126.7,292.8"/>
</g>
<g>
	<g>
		<path style="fill-rule:evenodd;clip-rule:evenodd;fill:#FFFFFF;" d="M138.4,286.3v8.4c0.6,0,1.2-0.5,1.2-1.1v-0.4h0.7
			c0.5,0,1-0.7,1-1c0-0.8,0-1.1,0-1.9c0-0.4-0.4-0.6-0.6-0.7c0.2-0.2,0.6-0.4,0.6-0.8c0-1,0-1.4,0-2.4H138.4z M140.1,289.1
			c0,0.1-0.1,0.4-0.3,0.5c0,0-0.1,0.1-0.1,0.1c0,0,0,0,0,0h0.4v2.4h-0.5c0-1.6,0-3.2,0-4.8h0.5V289.1z M144.9,291.8V288h-3v5.2h1.5
			c0.2,0,0.5-0.1,0.8-0.3c0.1-0.1,0.3-0.2,0.4-0.3C144.7,292.3,144.9,292.1,144.9,291.8z M143.7,292.2H143V289h0.6V292.2z
			 M141.6,286.3v1h3.6v6.3v1.1c0.4,0,1.3-0.4,1.3-1.2v-6.2c0.3,0,0.5-0.7,0.5-1H141.6z"/>
		<path style="fill-rule:evenodd;clip-rule:evenodd;fill:#FFFFFF;" d="M152.5,293.8V293h2.5c0.4,0,0.7-0.6,0.9-1h-3.4v-0.7h1.9
			c0.5,0,1.4-0.7,1.4-1.1v-3.9h-8.1v5h3.3v0.7h-3.3v1h3.3v0.8h-3.4v1h7.6c0.3,0,0.6-0.6,0.8-1H152.5z M152.5,289.3h0.6
			c0.1,0,0.2,0,0.3-0.1c0.1-0.1,0.7-0.8,0.8-0.9h-1.7v-1.1h1.8v3.1h-1.8V289.3z M151,290.4h-1.8v-1.1h1.8V290.4z M151,288.4h-1.8
			v-1.1h0.9h0.9V288.4z"/>
		<path style="fill-rule:evenodd;clip-rule:evenodd;fill:#FFFFFF;" d="M158.5,293.7v-2.4h5.2c0.5,0,1.3-0.8,1.3-1.2v-3.8h-8v7.3
			c0,0.6,0.4,1.2,1,1.2c0.5,0,5.6,0,6.1,0c0.5,0,1-0.7,1.1-1.1H158.5z M163.5,290.2h-1.7v-2.8h1.7V290.2z M158.5,287.4h1.8v2.8h-1.8
			V287.4z"/>
		<path style="fill-rule:evenodd;clip-rule:evenodd;fill:#FFFFFF;" d="M167.8,293.7v-2.4h5.2c0.5,0,1.3-0.8,1.3-1.2v-3.8h-8v7.3
			c0,0.6,0.4,1.2,1,1.2c0.5,0,5.6,0,6.1,0c0.5,0,1-0.7,1.1-1.1H167.8z M172.8,290.2h-1.7v-2.8h1.7V290.2z M167.8,287.4h1.8v2.8h-1.8
			V287.4z"/>
	</g>
	<g>
		<path style="fill:#FFFFFF;" d="M179.8,291.9v-0.3h0.6v0.2h3.7c0,0-0.1,0.5-0.9,0.5c-0.8,0-2.7,0-2.7,0s0,0.9,0,1.3
			c0,1-0.6,1.1-0.6,1.1v-2.4h-4.4v-0.5H179.8z"/>
		<path style="fill:#FFFFFF;" d="M177.2,293.2h0.7c0,0-0.7,0.9-0.9,1.1c-0.2,0.2-0.5,0.6-0.9,0.6c-0.2,0-0.3,0-0.3,0L177.2,293.2z"
			/>
		<path style="fill:#FFFFFF;" d="M182.8,293.2h-0.7c0,0,0.7,0.9,0.9,1.1c0.2,0.2,0.5,0.6,0.9,0.6c0.2,0,0.3,0,0.3,0L182.8,293.2z"/>
		<g>
			<path style="fill:#FFFFFF;" d="M183.2,287.1c0.8,0,0.9-0.5,0.9-0.5h-3.6l0.3-0.3h-0.6l-0.3,0.4h-2.5l0.3-0.4h-0.6l-1.6,2h0.7v2.7
				c0,0,0.1,0,0.2,0c1,0,1-0.1,1-0.1s5,0,5.8,0c0.8,0,0.8-0.5,0.8-0.5h-3.6v-0.8c0,0,2,0,2.8,0c0.8,0,0.9-0.5,0.9-0.5h-3.7v-0.8
				c0,0,2,0,2.8,0c0.8,0,0.9-0.5,0.9-0.5h-3.7v-0.8C180.4,287.1,182.7,287.1,183.2,287.1z M179.8,290.5h-3.1v-0.8h3.1V290.5z
				 M179.8,289.2h-3.1v-0.8h3.1V289.2z M179.8,287.9h-3.1l0-0.3l0.2-0.2l0.2-0.3h2.7V287.9z"/>
		</g>
	</g>
	<path style="fill:#FFFFFF;" d="M185.8,286.4v8.5h7.2c0.5,0,0.7-0.5,0.7-1v-7.5H185.8z M193.1,293.8c0,0.3-0.1,0.5-0.5,0.5h-6.3
		v-7.5h6.8V293.8z"/>
	<path style="fill:#FFFFFF;" d="M189.1,290l-1.8,3.3c0,0,0.6,0.1,0.9-0.5l1.6-2.8L189.1,290z"/>
	<path style="fill:#FFFFFF;" d="M191.3,292.6c0,0.2-0.1,0.3-0.2,0.3h-0.6v0.5h0.8c0.5,0,0.6-0.2,0.6-0.7c0,0,0-3.2,0-3.2
		c0.6,0,0.6-0.5,0.6-0.5l-0.6,0v-1.1h-0.6v1.1h-4.1v0.5h4.1V292.6z"/>
</g>
<g>
	<defs>
		<rect id="SVGID_1_" x="5.3" y="5.5" width="198.3" height="456.8"/>
	</defs>
	<clipPath id="SVGID_2_">
		<use xlink:href="#SVGID_1_"  style="overflow:visible;"/>
	</clipPath>
	<g id="形状_13_39_" style="clip-path:url(#SVGID_2_);">
		<g>
			<path style="fill:#FFFFFF;" d="M174.1,395.7c0,0,3.6,0,4.7-0.9c1.1-0.9,1.7-2.9,0.6-4.2c-2.3-2.5-9.3-2.6-16.1-4.3
				c-5.2-1.3-13-3.9-15.2-5c-13.5-4-29.4-19.1-58.4-45.3c-22.2-22-44.7-31.6-44.7-31.6s-31.8,27.7,18.8,48.9
				c22.7,9.5,44,22.1,55.3,30c14,9.7,18.3,16.7,22.9,20.7c6.2,5.5,15.2,10.8,17.8,8.7c5.9-4.6-6.6-7.5-6.1-11.2
				c1-7,23.4,8.8,26.7,3.3C184,398.6,174.1,395.7,174.1,395.7z"/>
		</g>
	</g>
	<g id="形状_14_39_" style="clip-path:url(#SVGID_2_);">
		<g>
			<path style="fill:#FFFFFF;" d="M151.6,393.4c-1.3-0.8-4.1-2.5-5.2-3.5c-1.6-1.5-2.4,0-0.9,1.3c1.9,1.7,6.1,3.5,9.4,4.4
				c1.1,0.3,1.8,0.1,1.8,0.1S154.4,395,151.6,393.4z"/>
		</g>
	</g>
	<g id="形状_13_37_" style="clip-path:url(#SVGID_2_);">
		<g>
			<path style="fill-rule:evenodd;clip-rule:evenodd;fill:#FFFFFF;" d="M1.2,304.1c0,0-24.1,9.9-46.3,31.9
				c-28.9,26.1-44.9,41.3-58.4,45.3c-2.2,1.1-10.1,3.8-15.2,5c-6.8,1.7-13.8,1.8-16.1,4.3c-1.1,1.3-0.5,3.3,0.6,4.2
				c1.1,0.9,4.7,0.9,4.7,0.9s-9.9,2.9-6.3,9c3.3,5.5,25.7-10.2,26.7-3.3c0.5,3.7-11.9,6.6-6.1,11.2c2.6,2.1,11.6-3.1,17.8-8.7
				c4.5-4,8.9-11.1,22.9-20.7c11.4-7.8,32.7-20.5,55.3-30C31.4,332.1,1.2,304.1,1.2,304.1z"/>
		</g>
	</g>
	<g id="形状_14_37_" style="clip-path:url(#SVGID_2_);">
		<g>
			<path style="fill-rule:evenodd;clip-rule:evenodd;fill:#FFFFFF;" d="M-138.2,389.8c-1.1,1-3.8,2.7-5.2,3.5
				c-2.8,1.7-5.2,2.3-5.2,2.3s0.7,0.2,1.8-0.1c3.3-0.9,7.5-2.7,9.4-4.4C-135.9,389.8-136.7,388.4-138.2,389.8z"/>
		</g>
	</g>
	<path style="clip-path:url(#SVGID_2_);fill-rule:evenodd;clip-rule:evenodd;fill:#FFFFFF;" d="M-135.3,596.2
		c15.1,5.4,46.4,3.4,64.4,2.6c18.7-0.8,58.6-6.5,66-8.6c15.7-4.3,6.8-14.1,5.3-21.1c-1.5-7.3-2.3-14.4-1.9-22.3
		c0.1-2.6,0.3-7.5,4.9-7.3c5,1.5,9.7,2.4,14,2.8c0,0,0.1,0,0.1,0c0.4,0,0.7,0.1,1.1,0.1c0.2,0,0.5,0,0.7,0.1c0.2,0,0.5,0,0.7,0
		c0.3,0,0.7,0,1,0c0.2,0,0.3,0,0.5,0c0.3,0,0.7,0,1,0c0.2,0,0.4,0,0.5,0c0.3,0,0.5,0,0.8,0c0.3,0,0.5,0,0.8,0c0.2,0,0.4,0,0.5,0
		c0.3,0,0.7,0,1,0c0.2,0,0.3,0,0.5,0c0.3,0,0.7,0,1,0c0.2,0,0.5,0,0.7,0c0.2,0,0.5,0,0.7-0.1c0.3,0,0.7-0.1,1.1-0.1c0,0,0.1,0,0.1,0
		c4.3-0.4,9-1.3,14-2.8c4.6-0.2,4.7,4.7,4.9,7.3c0.4,7.9-0.4,15.1-1.9,22.3c-1.5,7.1-10.4,16.8,5.3,21.1c7.4,2.1,51.1,7.5,69.8,8.7
		c20.2,1.3,53.4,1.6,62.9-2.5c5.3-2.2,5.5-15.7-8.7-23c-17.9-9.2-92.1-5.1-97-5.4c-10.4-0.7-8.3-4-8.4-9.2
		c-0.2-9.7,7.8-14.7,14.6-19c6.8-4.3,40.9-19.3,40.9-52.5c0-17-4.7-40-26.7-72.7c-53.6-79.7-55.6-124.1-55.6-124.1l-4.4-0.2
		c-0.2-0.8-0.2-1.3-0.2-1.3l-15.9,0.6l-15.9-0.6c0,0-0.1,0.4-0.2,1.3l-4.4,0.2c0,0-2,44.5-55.6,124.1c-22,32.7-26.7,55.7-26.7,72.7
		c0,33.1,34.1,48.2,40.9,52.5c6.8,4.3,14.8,9.3,14.6,19c-0.1,5.2,1.6,9.8-8.7,10.1c-4.9,0.1-78.9-4.6-96.7,4.6
		C-143.2,580.6-140.7,594.2-135.3,596.2z"/>
	<path style="opacity:0.6;clip-path:url(#SVGID_2_);fill-rule:evenodd;clip-rule:evenodd;fill:#FFFFFF;" d="M3.3,290.4
		c5.9,3.5,14.1,8.4,18.6,9c6.9,1,14.6-0.1,22.3-8.9c0,0.6,0.3,3.7,1.3,9c-2.2,7.1-7,14.7-17.2,15.9c-12,1.4-21-8.2-26.4-16.7
		c1-5.5,1.2-8.3,1.2-8.3L3.3,290.4z"/>
	<g id="形状_9_19_" style="clip-path:url(#SVGID_2_);">
		<g>
			<path style="fill-rule:evenodd;clip-rule:evenodd;fill:#FFFFFF;" d="M121,78.3c-1.4-7-11.5-0.6-11.5-0.6s-39,21.6-64.4,77.7
				c-25.4,56.1,21.2,30.3,21.2,30.3S136,166.1,121,78.3z"/>
		</g>
	</g>
	<g id="形状_9_拷贝_19_" style="clip-path:url(#SVGID_2_);">
		<g>
			<path style="fill:#FFFFFF;" d="M-1.3,155.2c-25.5-56-64.5-77.6-64.5-77.6s-10.1-6.4-11.5,0.6c-15,87.8,54.8,107.3,54.8,107.3
				S24.2,211.2-1.3,155.2z"/>
		</g>
	</g>
	<g id="脸_39_" style="clip-path:url(#SVGID_2_);">
		<g>
			<path style="fill:#FFFFFF;" d="M73.3,205.4c-2.5-8-4.6-19.5-7.9-29.1C58.3,156,40.6,148,21.9,147.7c-18.5-0.3-35.9,6.8-43.5,28.4
				c-3.3,9.6-5.7,21.1-8.2,29.1c-2.5,8-8.1,42.1,5.9,63.2c-0.1,0.1,4.4,7.3,16.1,17.7c9,8.1,13.8,17.2,28.3,18.2
				c0.2,0,0.4,0.1,0.6,0.1c1,0,2,0,3,0c0.1,0,0.2,0,0.2,0c0.1,0,0.1,0,0.2,0c11.6-0.7,16.8-8.2,26-17.3
				c11.1-11.1,17.1-18.4,17.1-18.5C81.4,247.4,75.8,213.3,73.3,205.4z"/>
		</g>
	</g>
	<g id="形状_3_拷贝_19_" style="clip-path:url(#SVGID_2_);">
		<g>
			<path style="fill-rule:evenodd;clip-rule:evenodd;fill:#FFFFFF;" d="M70.7,90.9c-0.5-2.1-2-1.8-3.2-1.2
				c-29.7,14.5-41.5,41.2-45.7,58.5c-3-14.3-13-43-45.5-58.2c-0.8-0.4-1.8-0.7-2.6,0.6c0,0-10.8,48.4,38.3,73.1
				c-9.7,7.1-23.7,18.8,10.2,4.5c31.2,13.1,20.4,3.1,10.3-4.6C81.3,139,70.7,90.9,70.7,90.9z"/>
		</g>
	</g>
	<g id="形状_73_19_" style="clip-path:url(#SVGID_2_);">
		<g>
			<path style="fill-rule:evenodd;clip-rule:evenodd;fill:#FFFFFF;" d="M23.4,142.5c0,0-1.9,4.5-1.8,5.7c0.5,3.9,1.3,11.2,1.4,13.2
				c0.1,2.7,1.9-0.7,2.2-7.8C25.5,147.4,23.4,142.5,23.4,142.5z"/>
		</g>
	</g>
	<path style="clip-path:url(#SVGID_2_);fill-rule:evenodd;clip-rule:evenodd;fill:#FFFFFF;" d="M22.6,298.9c5,0,13-4.6,12.4-9.6
		c-0.5-4-4.5-5.4-12.4-5.4c-8,0-12.1,1.3-12.5,5.4C9.6,293.8,16.3,298.9,22.6,298.9z"/>
</g>
</svg>
