<?xml version="1.0" encoding="utf-8"?>
<!-- Generator: Adobe Illustrator 17.1.0, SVG Export Plug-In . SVG Version: 6.00 Build 0)  -->
<!DOCTYPE svg PUBLIC "-//W3C//DTD SVG 1.1//EN" "http://www.w3.org/Graphics/SVG/1.1/DTD/svg11.dtd">
<svg version="1.1" id="图层_1" xmlns="http://www.w3.org/2000/svg" xmlns:xlink="http://www.w3.org/1999/xlink" x="0px" y="0px"
	 viewBox="0 0 256.8 461.2" style="enable-background:new 0 0 256.8 461.2;" xml:space="preserve">
<rect x="1.1" y="0.8" style="fill:#FFFFFF;stroke:#CCCCCC;stroke-miterlimit:10;" width="254.7" height="459"/>
<g>
	<defs>
		<rect id="SVGID_1_" x="65.3" y="1" width="190.5" height="458.7"/>
	</defs>
	<clipPath id="SVGID_2_">
		<use xlink:href="#SVGID_1_"  style="overflow:visible;"/>
	</clipPath>
	<g id="形状_13_47_" style="clip-path:url(#SVGID_2_);">
		<g>
			<path style="fill:#FF9B48;" d="M215.7,298.7c0,0-22.1,9.5-44,31.1c-28.5,25.7-44.1,40.6-57.4,44.5c-2.2,1.1-9.9,3.7-15,5
				c-6.7,1.7-13.6,1.7-15.8,4.2c-1.1,1.2-0.5,3.2,0.6,4.1c1.1,0.9,4.6,0.9,4.6,0.9s-9.7,2.9-6.2,8.9c3.2,5.5,25.3-10,26.2-3.2
				c0.5,3.7-11.7,6.5-6,11c2.6,2,11.4-3.1,17.5-8.5c4.5-4,8.7-10.9,22.5-20.4c11.2-7.7,32.1-20.2,54.4-29.5
				C246.9,326,215.7,298.7,215.7,298.7z"/>
		</g>
	</g>
	<g id="形状_14_47_" style="clip-path:url(#SVGID_2_);">
		<g>
			<path style="fill:#CC7123;" d="M115.8,382.7c-1.1,1-3.8,2.6-5.1,3.4c-2.7,1.6-5.1,2.2-5.1,2.2s0.7,0.2,1.8-0.1
				c3.2-0.9,7.4-2.7,9.3-4.3C118.2,382.7,117.4,381.3,115.8,382.7z"/>
		</g>
	</g>
	<g id="形状_13_45_" style="clip-path:url(#SVGID_2_);">
		<g>
			<path style="fill-rule:evenodd;clip-rule:evenodd;fill:#FF9B48;" d="M387.2,388.5c0,0,3.6,0,4.6-0.9c1.1-0.9,1.7-2.9,0.6-4.1
				c-2.2-2.5-9.1-2.5-15.8-4.2c-5.1-1.3-12.8-3.9-15-5c-13.3-3.9-28.9-18.8-57.4-44.5c-21.9-21.6-45.5-31.3-45.5-31.3
				S229,326,278.7,346.7c22.3,9.3,43.2,21.8,54.4,29.5c13.8,9.5,18,16.4,22.5,20.4c6.1,5.5,15,10.6,17.5,8.5c5.8-4.5-6.5-7.3-6-11
				c1-6.8,23,8.7,26.2,3.2C396.9,391.4,387.2,388.5,387.2,388.5z"/>
		</g>
	</g>
	<g id="形状_14_45_" style="clip-path:url(#SVGID_2_);">
		<g>
			<path style="fill-rule:evenodd;clip-rule:evenodd;fill:#CC7123;" d="M401,386.2c-1.3-0.8-4-2.4-5.1-3.4c-1.5-1.5-2.3,0-0.8,1.3
				c1.9,1.6,6,3.4,9.3,4.3c1.1,0.3,1.8,0.1,1.8,0.1S403.7,387.8,401,386.2z"/>
		</g>
	</g>
	
		<radialGradient id="SVGID_3_" cx="241.7473" cy="348.3654" r="103.0194" gradientTransform="matrix(1 0 0 0.9295 0 24.5444)" gradientUnits="userSpaceOnUse">
		<stop  offset="0" style="stop-color:#FFC07D"/>
		<stop  offset="0.5713" style="stop-color:#FEB162"/>
		<stop  offset="1" style="stop-color:#FEA852"/>
	</radialGradient>
	<path style="clip-path:url(#SVGID_2_);fill-rule:evenodd;clip-rule:evenodd;fill:url(#SVGID_3_);" d="M393,585.7
		c-14.9,5.3-45.7,3.3-63.3,2.5c-18.4-0.8-57.6-6.4-64.9-8.4c-15.5-4.3-6.7-13.8-5.2-20.8c1.5-7.1,2.3-14.2,1.9-22
		c-0.1-2.6-0.3-7.4-4.8-7.2c-4.9,1.5-9.5,2.3-13.8,2.7c0,0-0.1,0-0.1,0c-0.3,0-0.7,0.1-1,0.1c-0.2,0-0.5,0-0.7,0.1
		c-0.2,0-0.4,0-0.7,0c-0.3,0-0.7,0-1,0c-0.2,0-0.3,0-0.5,0c-0.3,0-0.7,0-1,0c-0.2,0-0.4,0-0.5,0c-0.3,0-0.5,0-0.8,0
		c-0.3,0-0.5,0-0.8,0c-0.2,0-0.4,0-0.5,0c-0.3,0-0.7,0-1,0c-0.2,0-0.3,0-0.5,0c-0.3,0-0.7,0-1,0c-0.2,0-0.4,0-0.7,0
		c-0.2,0-0.5,0-0.7-0.1c-0.3,0-0.7-0.1-1-0.1c0,0-0.1,0-0.1,0c-4.3-0.4-8.9-1.3-13.8-2.7c-4.5-0.2-4.7,4.6-4.8,7.2
		c-0.4,7.7,0.4,14.8,1.9,22c1.5,6.9,10.3,16.5-5.2,20.8c-7.3,2-50.2,7.4-68.7,8.6c-19.8,1.3-52.5,1.5-61.9-2.5
		c-5.2-2.2-5.4-15.5,8.6-22.6c17.6-9,90.6-5,95.5-5.3c10.2-0.7,8.2-3.9,8.3-9.1c0.2-9.6-7.7-14.5-14.4-18.7
		c-6.7-4.2-40.3-19-40.3-51.6c0-16.8,4.6-39.4,26.3-71.6c52.7-78.4,54.7-122.1,54.7-122.1l4.3-0.2c0.2-0.8,0.2-1.3,0.2-1.3l15.7,0.6
		l15.7-0.6c0,0,0.1,0.4,0.2,1.3l4.3,0.2c0,0,1.9,43.7,54.7,122.1c21.7,32.2,26.3,54.8,26.3,71.6c0,32.6-33.5,47.4-40.3,51.6
		c-6.7,4.2-14.6,9.1-14.4,18.7c0.1,5.1-1.6,9.7,8.6,9.9c4.8,0.1,77.6-4.5,95.2,4.5C400.8,570.4,398.3,583.8,393,585.7z"/>
	<path style="clip-path:url(#SVGID_2_);fill-rule:evenodd;clip-rule:evenodd;fill:#DD7528;" d="M114.6,568.9
		c-15.3,4.1-13.5,11.1-11.3,16.9c0.3,0.7,0.6,1.4,1,2c0.9,0.1,1.8,0.2,2.8,0.3c-5.3-12.2,2.3-16,9.1-18.3
		C119.2,568.8,116.7,568.4,114.6,568.9z"/>
	<path style="clip-path:url(#SVGID_2_);fill-rule:evenodd;clip-rule:evenodd;fill:#DD7528;" d="M115.3,568.4
		c-13.1,2.9-11.1,13.9-9.1,19.2c0.2,0.6,0.5,1.1,0.7,1.6c0.8,0,1.7,0,2.5,0c-3.7-11.2,1.1-16,4.9-18.6
		C116.5,569.1,120,567.3,115.3,568.4z"/>
	<path style="clip-path:url(#SVGID_2_);fill-rule:evenodd;clip-rule:evenodd;fill:#DD7528;" d="M402.5,587.7c0.2-0.5,0.4-1,0.6-1.6
		c1.7-5.5-0.1-15.4-10.9-18.1c-5.9-1.5-3.3,1.2-0.7,2.1c6.4,2.1,9.7,9.7,6.8,18.2C399.7,588.2,401.1,588,402.5,587.7z"/>
	<path style="clip-path:url(#SVGID_2_);fill-rule:evenodd;clip-rule:evenodd;fill:#DD7528;" d="M364.5,587.7
		c3.1-6.8,0.4-16.9-7-19.8c-2.9-0.7-0.2,1.9,1.9,4c2.8,3,4.3,10.1,1.8,15.5c-0.4,0.8-0.6,1.3-0.8,1.8c1.1,0,2.1,0,3.2,0
		C364,588.8,364.3,588.3,364.5,587.7z"/>
	<g id="形状_12_23_" style="clip-path:url(#SVGID_2_);">
		<g>
			
				<linearGradient id="SVGID_4_" gradientUnits="userSpaceOnUse" x1="134.004" y1="417.3807" x2="132.4021" y2="273.2072" gradientTransform="matrix(1 0 0 1 103.0625 21.067)">
				<stop  offset="0" style="stop-color:#FFC28A"/>
				<stop  offset="0.7938" style="stop-color:#FFCD9F"/>
				<stop  offset="1" style="stop-color:#FFD0A5"/>
			</linearGradient>
			<path style="fill-rule:evenodd;clip-rule:evenodd;fill:url(#SVGID_4_);" d="M261.4,343.8c-11-17.9-38.1-16.1-48.8,1.4
				c-12.9,21.1-28.6,78.3-17.5,110.9c9.1,26.9,73,28.6,82.9,2.9C291.3,424.4,273,362.7,261.4,343.8z"/>
		</g>
	</g>
	<path style="opacity:0.6;clip-path:url(#SVGID_2_);fill-rule:evenodd;clip-rule:evenodd;fill:#DD7528;" d="M161.9,427.1
		c0,0,29.6,7.4,77.2,7.4c44.8,0,53.2-2.6,76.7-8C316.5,427.1,243.4,554.1,161.9,427.1z"/>
	<g id="形状_11_拷贝_2_23_" style="clip-path:url(#SVGID_2_);">
		<g>
			<path style="fill-rule:evenodd;clip-rule:evenodd;fill:#FFBF80;" d="M313.8,427.1c-0.6,0.3-1.3,0.6-2,0.9
				c-21.8,9.7-47.6,12.8-67.8,13.4c-19.9,0.1-49.4-1.6-73.6-11.3c-2.1-0.8-5.1-1.9-7.2-2.8c-5.5-2.7-6.7,4.3-6.6,8.3
				c0.3,17.4,4.2,72.5,54.1,91.1c2,1.3,8.1,4.3,20.6,5.1c4,0.7,8.7,0.5,13.2-0.1c0.5,0,1-0.1,1.5-0.1c7.5-0.8,14.2-2.6,20.3-5.2
				c0.4-0.1,0.6-0.2,0.6-0.2v0c37.9-16.8,48.7-65.2,51.7-88.9c0.2-1.8,0.3-3.4,0.5-4.8C320,426.3,315.8,426.1,313.8,427.1z"/>
		</g>
	</g>
	<path style="opacity:0.6;clip-path:url(#SVGID_2_);fill-rule:evenodd;clip-rule:evenodd;fill:#DD7528;" d="M256.6,284.9
		c-5.8,3.5-13.8,8.2-18.3,8.9c-6.8,1-14.3-0.1-21.9-8.8c0,0.6-0.3,3.6-1.3,8.8c2.2,7,6.9,14.4,16.9,15.6
		c11.8,1.4,20.6-8.1,25.9-16.4c-1-5.4-1.1-8.2-1.1-8.2L256.6,284.9z"/>
	<g id="形状_9_23_" style="clip-path:url(#SVGID_2_);">
		<g>
			<path style="fill-rule:evenodd;clip-rule:evenodd;fill:#FFC07D;" d="M215.5,152.1c-25-55.1-63.4-76.4-63.4-76.4
				s-9.9-6.3-11.3,0.6c-14.8,86.4,53.8,105.6,53.8,105.6S240.5,207.2,215.5,152.1z"/>
		</g>
	</g>
	<g id="形状_10_23_" style="clip-path:url(#SVGID_2_);">
		<g>
			<path style="fill-rule:evenodd;clip-rule:evenodd;fill:#FF9B48;" d="M207.7,164.8c-9.5-42.4-44.8-57-44.8-57s-7.4-5.2-7.5,2
				c2.9,54.4,48.3,63.1,48.3,63.1S209.8,174.6,207.7,164.8z"/>
		</g>
	</g>
	<g id="形状_9_拷贝_23_" style="clip-path:url(#SVGID_2_);">
		<g>
			<path style="fill:#FFC07D;" d="M335.8,76.2c-1.4-6.8-11.3-0.6-11.3-0.6s-38.4,21.2-63.4,76.4c-25.1,55.1,20.9,29.8,20.9,29.8
				S350.6,162.5,335.8,76.2z"/>
		</g>
	</g>
	<g id="形状_10_拷贝_23_" style="clip-path:url(#SVGID_2_);">
		<g>
			<path style="fill:#FF9B48;" d="M313.8,107.7c0,0-35.4,14.6-44.9,57c-2.1,9.8,4.1,8.1,4.1,8.1s45.4-8.6,48.4-63.1
				C321.2,102.5,313.8,107.7,313.8,107.7z"/>
		</g>
	</g>
	<g id="脸_47_" style="clip-path:url(#SVGID_2_);">
		<g>
			
				<radialGradient id="SVGID_5_" cx="135.3911" cy="270.0374" r="66.536" gradientTransform="matrix(0.9999 1.315258e-02 -9.151512e-03 0.6957 105.5455 101.449)" gradientUnits="userSpaceOnUse">
				<stop  offset="0" style="stop-color:#FECD97"/>
				<stop  offset="1" style="stop-color:#FFC07A"/>
			</radialGradient>
			<path style="fill:url(#SVGID_5_);" d="M289.2,201.2c-2.5-7.8-4.8-19.2-8.1-28.6c-7.4-21.3-24.5-28.3-42.7-28
				c-18.4,0.3-35.8,8.1-42.8,28.1c-3.3,9.4-5.3,20.8-7.8,28.6c-2.5,7.9-7.9,41.4,5.8,62.2c-0.1,0.1,5.9,7.3,16.8,18.2
				c9,9,14.1,16.4,25.5,17.1c0.1,0,0.1,0,0.2,0c0.1,0,0.2,0,0.2,0c0.9,0,1.9,0,2.9,0c0.2,0,0.4,0,0.5-0.1c14.2-1,18.9-9.9,27.8-17.9
				c11.5-10.3,15.9-17.3,15.8-17.5C297.1,242.6,291.6,209,289.2,201.2z"/>
		</g>
	</g>
	<path style="clip-path:url(#SVGID_2_);fill-rule:evenodd;clip-rule:evenodd;fill:#66361F;" d="M237.8,207.9
		c-0.2,0.1,19.9-5.8,28.5-27.5c-0.1-0.5,9.1,16.3,23.5,22.9c-0.2-0.8-0.4-1.6-0.6-2.2c-2.2-9.4-4.1-18.4-7.4-27.9
		c-7.4-21.3-25.2-29.1-43.4-28.8c-18.4,0.3-35.8,8.1-42.8,28.1c-3.3,9.4-6.2,21.6-7.8,28.6c-0.1,0.3-0.2,0.8-0.3,1.2
		c4.9-0.8,13.7-4.6,22-21C209,181.5,213.3,196,237.8,207.9z"/>
	<path style="clip-path:url(#SVGID_2_);fill-rule:evenodd;clip-rule:evenodd;fill:#E5432E;" d="M286.6,192c-0.9-3.6-1.9-7.4-3-11.2
		c-7.1-9.3-21.8-24-44.7-23.8c-26.4,0.2-39.2,14.3-45.8,23.4c-0.9,3.5-1.8,7-2.6,10.4c6.2-6.5,22.7-20.6,48.4-20.5
		C261.8,170.4,278.2,184.1,286.6,192z"/>
	<g id="形状_3_拷贝_23_" style="clip-path:url(#SVGID_2_);">
		<g>
			<path style="fill-rule:evenodd;clip-rule:evenodd;fill:#E5432E;" d="M285.8,88.4c-0.8-1.3-1.8-1-2.6-0.6
				c-32,14.9-41.8,43.1-44.7,57.2c-4.1-17-15.7-43.2-44.9-57.5c-1.2-0.6-2.6-0.9-3.2,1.2c0,0-10.4,47.3,37.7,71.5
				c-9.9,7.6-20.5,17.4,10.2,4.6c33.3,14,19.6,2.6,10-4.5C296.4,136.1,285.8,88.4,285.8,88.4z"/>
		</g>
	</g>
	<g id="形状_73_23_" style="clip-path:url(#SVGID_2_);">
		<g>
			<path style="fill-rule:evenodd;clip-rule:evenodd;fill:#AD4023;" d="M236.9,139.4c0,0-2.1,4.9-1.8,10.9c0.3,7,2.1,10.4,2.2,7.7
				c0.1-1.9,0.9-9.1,1.4-12.9C238.7,143.8,236.9,139.4,236.9,139.4z"/>
		</g>
	</g>
	<g id="形状_82_23_" style="clip-path:url(#SVGID_2_);">
		<g>
			<path style="fill-rule:evenodd;clip-rule:evenodd;fill:#CA4825;" d="M258.9,160.9c-1.3-0.6-6.4-2.9-7.2-2.3
				c-4.5,2.8-9.2,7.6-2.7,6C253.6,163.5,260.3,161.6,258.9,160.9z M225.3,158.8c-1.7-0.5-7.5,2-7.5,2s2.2,1.2,4.9,1.9
				c2.7,0.7,8.5,2.9,8.1,1.2C230.4,162.2,227.9,159.5,225.3,158.8z"/>
		</g>
	</g>
	<path style="clip-path:url(#SVGID_2_);fill-rule:evenodd;clip-rule:evenodd;fill:#FFCE99;" d="M217.4,232.8
		c-5.4-13.4-13.8-16.3-19.5-15.3c-10.8,1.9-12.2,7.4-12.1,7.1c0.1-0.3-0.2-9.7,8.9-12c8.3-2.1,16.7,1.3,20.3,7
		c3.3,5.2,3,13.1,3,13.1"/>
	<path style="clip-path:url(#SVGID_2_);fill-rule:evenodd;clip-rule:evenodd;fill:#FFCE99;" d="M258.7,232.8
		c5.4-13.4,13.8-16.3,19.5-15.3c10.8,1.9,12.2,7.4,12.1,7.1c-0.1-0.3,0.2-9.7-8.9-12c-8.3-2.1-16.7,1.3-20.3,7
		c-3.3,5.2-3,13.1-3,13.1"/>
	<g id="形状_4_47_" style="clip-path:url(#SVGID_2_);">
		<g>
			<path style="fill:#FFFFFF;" d="M204.4,218.6c-4.4-2-13.6-1.1-17.3,2c0,0-5.4,22.5,14.3,24.5c9.8,0.4,15.5-4.8,16.4-10.4
				C218.9,228.7,209.5,221,204.4,218.6z"/>
		</g>
	</g>
	<g id="形状_6_47_" style="clip-path:url(#SVGID_2_);">
		<g>
			<path style="fill-rule:evenodd;clip-rule:evenodd;fill:#512A15;" d="M214.1,223.8c0-0.1-5-6.9-11.7-8.5c-2.4-0.6-7.8,0.7-7.8,0.7
				s-8,6.5-2,17.6c3.5,5.8,9,8.3,13.9,7.7c6-0.7,9.5-4.9,9.9-9.6C216.8,227.1,214.1,223.8,214.1,223.8z"/>
		</g>
	</g>
	<g id="形状_48_23_" style="clip-path:url(#SVGID_2_);">
		<g>
			<path style="fill:#FFFFFF;" d="M198,232.2c-0.3-1.8-6.1-2-7.3,0.4c-0.9,1.8,0.1,3.9,1.5,4.2C195.1,237.5,198.4,234.8,198,232.2z"
				/>
		</g>
	</g>
	<g id="形状_36_副本_47_" style="clip-path:url(#SVGID_2_);">
		<g>
			<path style="fill-rule:evenodd;clip-rule:evenodd;fill:#A85726;" d="M211.6,205.6c-7.2-3.1-14.8-2.1-13.6,1
				c0.5,1.2,4.2-1,10.1,0.9c8.1,2.6,7.7,7.1,9.7,6.6C221.2,213.1,215.7,207.3,211.6,205.6z"/>
		</g>
	</g>
	<g id="形状_4_45_" style="clip-path:url(#SVGID_2_);">
		<g>
			<path style="fill:#FFFFFF;" d="M289.6,220.6c-3.6-3.1-12.7-3.7-17.3-2c-10.6,3.9-14.4,10.1-13.4,16.1c0.9,5.6,6.6,10.8,16.4,10.4
				C295,243.1,289.6,220.6,289.6,220.6z"/>
		</g>
	</g>
	<g id="形状_6_45_" style="clip-path:url(#SVGID_2_);">
		<g>
			<path style="fill-rule:evenodd;clip-rule:evenodd;fill:#512A15;" d="M282.6,217.2c0,0-4.5-1.2-6.9-0.6
				c-6.7,1.6-12.1,5.7-12.1,5.8c0,0-2,7.4-0.8,10.5c2.3,5.8,4.2,8.3,10.2,8.6c4.9,0.2,10.5-1.7,12.6-8.7
				C288.1,224.5,282.6,217.2,282.6,217.2z"/>
		</g>
	</g>
	<g id="形状_48_副本_23_" style="clip-path:url(#SVGID_2_);">
		<g>
			<path style="fill:#FFFFFF;" d="M268.6,233c-1.3-2.4-6.6,0.5-6.9,2.3c-0.4,3,1.1,3.7,3.4,3.1C267.6,237.7,269.8,235.2,268.6,233z"
				/>
		</g>
	</g>
	<g id="形状_36_副本_45_" style="clip-path:url(#SVGID_2_);">
		<g>
			<path style="fill-rule:evenodd;clip-rule:evenodd;fill:#A85726;" d="M265.3,205.5c-4.1,1.7-9.5,6.5-7.2,8.1
				c2.2,1.5,3.6-3.6,9.3-5.5c7.2-2.4,12.3,0.3,12.7-1.6C280.5,203.8,272.5,202.5,265.3,205.5z"/>
		</g>
	</g>
	<g id="Shape_2_47_" style="clip-path:url(#SVGID_2_);">
		<g>
			<path style="fill-rule:evenodd;clip-rule:evenodd;fill:#9C6342;" d="M287.2,240.1c2-3,2.3-6,1.7-4.9c-1.3,2.6-3,5.7-7,7.5
				c-3.7,1.7-8.2,1.8-11.2,1.9c-2.7,0,5.4,2,11.2-0.2c0.4,0.1,1,0.4,1.7,0.7c0.8,0.4,2.2,1.4,2.1,0.8c-0.1-1-0.6-2.2-1.4-2.9
				c0.6-0.4,1.1-0.9,1.6-1.3c0.2,0,0.5,0.1,0.9,0.1c1.2,0.2,2.4,1.6,2.4,0.9C289.2,242,288.4,240.8,287.2,240.1z"/>
		</g>
	</g>
	<g id="形状_65_副本_47_" style="clip-path:url(#SVGID_2_);">
		<g>
			<path style="fill-rule:evenodd;clip-rule:evenodd;fill:#713D1F;" d="M297.2,218.1c-0.3,0.6-1.6,1.8-2.9,2.4
				c-1.1,0.5-2.8,0.9-4.4,0.5c0-0.1-0.1-0.2-0.1-0.3c-1.1-2.1-4.5-4.5-7.8-5.2c-5.4-1.1-10-0.4-13.9,1.4c-5.2,2.4-8.8,7.1-9.8,13.4
				c-0.5,2.7,0.2,4.3,1,1.9c1.9-5.7,3.9-8.8,9.1-11.6c4.1-2.2,9.2-3.8,16.6-0.2c2.5,1.2,4,3.8,4.4,5.6c0.2,0.6,0.8,2.8,1,1.4
				c0.1-0.7,0.2-1.4,0.2-2.1c0.5,0,1.4,0,2.7-0.5c1.1-0.4,2.8-1.7,3.6-3.2C297.8,219.7,297.8,216.9,297.2,218.1z"/>
		</g>
	</g>
	<g id="Shape_2_45_" style="clip-path:url(#SVGID_2_);">
		<g>
			<path style="fill-rule:evenodd;clip-rule:evenodd;fill:#9C6342;" d="M205.8,244.6c-3,0-7.5-0.1-11.2-1.9c-4-1.9-5.7-4.9-7-7.5
				c-0.6-1.1-0.3,1.9,1.7,4.9c-1.2,0.7-1.9,1.9-1.9,2.6c0,0.8,1.2-0.7,2.4-0.9c0.4-0.1,0.7-0.1,0.9-0.1c0.5,0.5,1,0.9,1.6,1.3
				c-0.8,0.7-1.3,1.9-1.4,2.9c-0.1,0.5,1.4-0.4,2.1-0.8c0.6-0.3,1.3-0.6,1.7-0.7C200.4,246.6,208.5,244.7,205.8,244.6z"/>
		</g>
	</g>
	<g id="形状_65_副本_45_" style="clip-path:url(#SVGID_2_);">
		<g>
			<path style="fill-rule:evenodd;clip-rule:evenodd;fill:#713D1F;" d="M217.9,230.3c-1.1-6.3-4.6-11-9.8-13.4
				c-3.9-1.8-8.5-2.5-13.9-1.4c-3,0.6-6,2.6-7.1,4.2c-0.2,0.3-0.4,0.8-0.6,1.2c0,0,0,0,0,0c-1.6,0.6-3.4,0.2-4.6-0.4
				c-1.3-0.6-2.6-1.8-2.9-2.4c-0.6-1.2-0.6,1.6,0.3,3.4c0.8,1.5,2.5,2.8,3.6,3.2c1.4,0.6,2.3,0.6,2.8,0.5c0,0.8,0,1.6,0.1,2.1
				c0.2,1.4,0.9-0.2,1.1-0.8c0.9-2.7,1.8-5,4.4-6.2c7.5-3.7,12.5-2,16.6,0.2c5.2,2.8,7.1,6.3,9.1,11.6
				C217.8,234.6,218.3,233,217.9,230.3z"/>
		</g>
	</g>
	<g id="腮红2_23_" style="clip-path:url(#SVGID_2_);">
		<g>
			<path style="fill-rule:evenodd;clip-rule:evenodd;fill:#FFA083;" d="M204,251.5c-7.8-0.8-11.3,1.8-11.2,4.2c0,2,2.9,5.9,10.1,6.3
				c9.1,0.5,11.7-2.5,11.8-4C214.7,256.3,213.6,252.5,204,251.5z"/>
		</g>
	</g>
	<g id="腮红2_副本_23_" style="clip-path:url(#SVGID_2_);">
		<g>
			<path style="fill-rule:evenodd;clip-rule:evenodd;fill:#FFA083;" d="M272.8,251.5c-9.6,1-10.8,4.8-10.7,6.5
				c0.1,1.5,2.8,4.5,11.8,4c7.2-0.4,10-4.3,10.1-6.3C284,253.2,280.6,250.6,272.8,251.5z"/>
		</g>
	</g>
	<path style="clip-path:url(#SVGID_2_);fill-rule:evenodd;clip-rule:evenodd;fill:#512A15;" d="M237.6,293.3
		c-4.9,0-12.8-4.5-12.2-9.5c0.5-3.9,4.5-5.3,12.2-5.3c7.8,0,11.9,1.3,12.3,5.3C250.4,288.3,243.9,293.3,237.6,293.3z"/>
	<g id="形状_20_23_" style="clip-path:url(#SVGID_2_);">
		<g>
			<path style="fill:#FCEACB;" d="M219.4,381.6c-14.8-11.5-33.1-4.1-33.1-1.2c1.2,31.2,31,28.1,31,28.1c10.4-1.2,11.6-8.4,11.6-8.4
				S229.3,389.2,219.4,381.6z"/>
		</g>
	</g>
	<g id="形状_21_23_" style="clip-path:url(#SVGID_2_);">
		<g>
			<path style="fill:#FFBD99;" d="M224.5,398.6c-2.1-10.7-24-14.2-23.7-9.8c1.1,17.4,20.5,15.9,20.5,15.9S225.2,404.1,224.5,398.6z"
				/>
		</g>
	</g>
	<g id="形状_20_拷贝_23_" style="clip-path:url(#SVGID_2_);">
		<g>
			<path style="fill:#FCEACB;" d="M255.1,382.8c-10.2,9.2-7.2,20.4-7.2,20.4s0.8,4.1,11.2,5.3c0,0,29.8,3.1,31-28.1
				C290.1,377.5,271.3,368.2,255.1,382.8z"/>
		</g>
	</g>
	<g id="形状_21_拷贝_23_" style="clip-path:url(#SVGID_2_);">
		<g>
			<path style="fill-rule:evenodd;clip-rule:evenodd;fill:#FFBD99;" d="M251.8,398.7c-0.7,5.5,3.2,6.1,3.2,6.1s19.5,1.5,20.6-15.9
				C275.9,384.5,253.9,388,251.8,398.7z"/>
		</g>
	</g>
	<g id="形状_23_23_" style="opacity:0.4;clip-path:url(#SVGID_2_);">
		<g>
			<path style="fill-rule:evenodd;clip-rule:evenodd;fill:#DD7528;" d="M260.4,443.2c-12-2.2-44.7-4.4-48.3,3.8
				c-3.6,8.1-11.9,4.1-10.1,27.3c0,0,2.8,14.7,14.4,11.8c3.5-1.4,4.9-6.1,4.8-11.1c0-4.9,2-5.1,6.4-5c10,0.3,15.4,1,22.3-3.2
				c3.8-2.3,6.2,3.1,5.6,9c-0.7,6.8,0.7,9.7,6.2,10.9c5.1,1.1,9.3-1.2,10.7-6.4c1.6-5.5,2-11.5,2-11.5S272.4,445.4,260.4,443.2z"/>
		</g>
	</g>
	<path style="clip-path:url(#SVGID_2_);fill-rule:evenodd;clip-rule:evenodd;fill:#FCEBCE;" d="M262.5,427.2c0,0,13.3,9.1,12.5,38.7
		c-0.3,10.1-5.2,15.3-10.5,14.9c-5.3-0.3-5.8-6-5-12c0.3-2.4,1-10-1.8-20.5C254.9,437.7,262.5,427.2,262.5,427.2z"/>
	<path style="clip-path:url(#SVGID_2_);fill-rule:evenodd;clip-rule:evenodd;fill:#FCEBCE;" d="M210.8,430.8c0,0-10.5,10.2-9.6,34.4
		c0.3,10.1,5.2,15.9,10.5,15.6c5.3-0.3,5.5-4.6,5.2-9.3c-0.3-4.1-1.1-10.9,1.7-21.5C221.3,439.4,210.8,430.8,210.8,430.8z"/>
	<path style="clip-path:url(#SVGID_2_);fill-rule:evenodd;clip-rule:evenodd;fill:#F6BF96;" d="M263.5,473.6
		c-0.1,2.1-0.5,5.3-1.1,6.7c0.3,0.1,0.5,0.2,0.8,0.3c0.3-0.9,0.6-2.2,0.8-3.5C264.5,473.8,263.7,470.4,263.5,473.6z"/>
	<path style="clip-path:url(#SVGID_2_);fill-rule:evenodd;clip-rule:evenodd;fill:#F6BF96;" d="M267.8,473.7c0,1.4,0,4.9-0.9,6.9
		c0.4-0.1,0.9-0.2,1.3-0.4c0.4-1,0.5-2.6,0.6-3.8C268.9,473.8,267.8,471.7,267.8,473.7z"/>
	<path style="clip-path:url(#SVGID_2_);fill-rule:evenodd;clip-rule:evenodd;fill:#F6BF96;" d="M213.5,477c-0.5-1.8-1.3-5.7-1.4-4.6
		c-0.2,1.9,0.2,4.6,0.9,6.7c0.2,0.5,0.4,1,0.6,1.4c0.5-0.2,0.9-0.3,1.2-0.6C214.2,479,213.8,478.2,213.5,477z"/>
	<path style="clip-path:url(#SVGID_2_);fill-rule:evenodd;clip-rule:evenodd;fill:#F6BF96;" d="M209.4,477.6c-1.1-3.2-1.2-6.3-1.4-4
		c-0.3,2.7,0.5,4.8,1.4,6.7c0.1,0.1,0.2,0.3,0.3,0.4c0.4,0.1,0.8,0.1,1.1,0.1C210.4,479.9,209.9,478.9,209.4,477.6z"/>
	<g id="脸_45_" style="clip-path:url(#SVGID_2_);">
		<g>
			<path style="fill:#FCEBCE;" d="M264.4,418.4c-5.1-18.3-17.3-23-26.3-22.9c-9-0.2-22.5,4.5-26.7,22.5c-1,6.3-4.3,11.2-3.2,19.1
				c1.1,7.9,3.7,11.7,14.8,19.1c2.3,1.7,4,1.7,6.7,3.8c2.7,2,5.7,2.9,11,2.3c0.1,0,0.2,0,0.2-0.1c2.1-0.4,3.8-1.1,5.3-2.3
				c2.7-2,4.4-2,6.6-3.8c11-7.4,13.6-11.2,14.7-19.1C268.7,429.2,265.4,422,264.4,418.4z"/>
		</g>
	</g>
	<g id="形状_77_23_" style="clip-path:url(#SVGID_2_);">
		<g>
			<path style="fill-rule:evenodd;clip-rule:evenodd;fill:#FFDECC;" d="M216.3,441.3c-2.4-0.2-4.4,0.7-4.5,2.1
				c-0.1,1.3,1.7,2.6,4.1,2.8c2.4,0.2,4.4-0.7,4.5-2.1C220.4,442.8,218.6,441.5,216.3,441.3z"/>
		</g>
	</g>
	<g id="形状_77_副本_23_" style="clip-path:url(#SVGID_2_);">
		<g>
			<path style="fill:#FFDECC;" d="M258.8,441.3c-2.4,0.1-4.3,1.2-4.2,2.6c0,1.4,2,2.4,4.4,2.3c2.4-0.1,4.3-1.2,4.2-2.6
				C263.1,442.3,261.2,441.3,258.8,441.3z"/>
		</g>
	</g>
	<path style="clip-path:url(#SVGID_2_);fill:#F7CC9D;" d="M221.7,409.9c1,3.7,2.9,4.4,5.3,4.8c2.9,0.4,4.6-2.3,5.5-3.5
		c0,0,1.9,3.7,4.7,4.6c2.9,0.9,4.9-0.1,6-2c0.6-1.2,0.5-3.1,0.5-3.1s2.4,2.6,6,1.6c2.2-0.6,2.3-2.4,2.5-3.7c0.2-1.3-0.3-2.5-0.3-2.5
		s2.5,2.6,1.8,5.7c-0.5,2.2-2.3,3.7-4.7,3.4c-1.7-0.2-4.2-1.9-4.2-1.9s-0.2,2.8-2.1,4.2c-2,1.4-4.8,1.2-6.6,0.2
		c-1.8-1.1-3.4-3.6-3.4-3.6s-1,2.4-3.6,3.5c-1.5,0.7-4.4,0.8-6.1-1.8C221,413.2,221.7,409.9,221.7,409.9z"/>
	<g id="形状_75_23_" style="clip-path:url(#SVGID_2_);">
		<g>
			<path style="fill-rule:evenodd;clip-rule:evenodd;fill:#552F19;" d="M216.9,433.9c-4.5-0.4-5.8,0-5.5,0.9
				c0.2,0.7,1.2-0.2,5.3,0.7c6.8,1.4,9.7,6,10.5,4C228,437.5,222.3,434.4,216.9,433.9z"/>
		</g>
	</g>
	<g id="形状_75_副本_23_" style="clip-path:url(#SVGID_2_);">
		<g>
			<path style="fill-rule:evenodd;clip-rule:evenodd;fill:#713D1F;" d="M259.2,433.9c-5.4,0.5-11.1,3.6-10.3,5.7
				c0.7,1.9,3.7-2.6,10.5-4c4.2-0.9,5.1,0,5.3-0.7C265,433.9,263.8,433.5,259.2,433.9z"/>
		</g>
	</g>
	<g id="形状_19_23_" style="clip-path:url(#SVGID_2_);">
		<g>
			<path style="fill:#57301B;" d="M237.8,454.8c-8.6-0.1-7.8,2.6-7.8,2.6s1.5,5.4,8.1,5.2c6.6-0.2,7.8-5.2,7.8-5.2
				S246.3,454.9,237.8,454.8z"/>
		</g>
	</g>
</g>
<g>
	<path style="fill:#666666;" d="M29.1,174.2c-0.2-0.3-0.4-0.6-0.7-0.8c-0.3-0.2-0.6-0.4-0.9-0.5s-0.7-0.2-1.1-0.2
		c-0.7,0-1.3,0.1-1.8,0.4c-0.5,0.3-0.9,0.6-1.2,1c-0.3,0.4-0.5,0.9-0.7,1.4c-0.1,0.5-0.2,1.1-0.2,1.7c0,0.6,0.1,1.1,0.2,1.6
		c0.1,0.5,0.4,1,0.7,1.5c0.3,0.4,0.7,0.8,1.2,1c0.5,0.3,1.1,0.4,1.8,0.4c0.5,0,0.9-0.1,1.3-0.3c0.4-0.2,0.7-0.4,1-0.7
		c0.3-0.3,0.5-0.6,0.7-1s0.3-0.8,0.3-1.3h1c-0.1,0.6-0.2,1.2-0.4,1.7s-0.5,0.9-0.9,1.3c-0.4,0.4-0.8,0.6-1.3,0.8s-1,0.3-1.6,0.3
		c-0.8,0-1.5-0.1-2.1-0.4c-0.6-0.3-1.1-0.7-1.5-1.2s-0.7-1.1-0.9-1.7s-0.3-1.3-0.3-2s0.1-1.4,0.3-2c0.2-0.6,0.5-1.2,0.9-1.7
		s0.9-0.9,1.5-1.2c0.6-0.3,1.3-0.4,2.1-0.4c0.5,0,1,0.1,1.4,0.2c0.5,0.1,0.9,0.4,1.3,0.6c0.4,0.3,0.7,0.6,1,1
		c0.3,0.4,0.4,0.9,0.5,1.4h-1C29.5,174.8,29.3,174.5,29.1,174.2z"/>
	<path style="fill:#666666;" d="M32.9,172.1v4.1h0c0.2-0.5,0.5-0.8,0.9-1.1c0.4-0.3,0.9-0.4,1.5-0.4c0.5,0,1,0.1,1.3,0.2
		c0.4,0.1,0.6,0.3,0.8,0.6c0.2,0.2,0.4,0.5,0.4,0.9c0.1,0.4,0.1,0.8,0.1,1.2v4.8h-0.9v-4.6c0-0.3,0-0.6-0.1-0.9s-0.2-0.5-0.3-0.7
		c-0.1-0.2-0.3-0.4-0.6-0.5s-0.5-0.2-0.9-0.2c-0.4,0-0.7,0.1-1,0.2c-0.3,0.1-0.5,0.3-0.7,0.5c-0.2,0.2-0.4,0.5-0.5,0.8
		s-0.2,0.7-0.2,1v4.3H32v-10.3H32.9z"/>
	<path style="fill:#666666;" d="M40.7,172.1v1.5h-0.9v-1.5H40.7z M40.7,175v7.4h-0.9V175H40.7z"/>
	<path style="fill:#666666;" d="M43.1,179.9c0.1,0.4,0.2,0.7,0.4,0.9c0.2,0.3,0.5,0.5,0.8,0.7c0.3,0.2,0.7,0.3,1.1,0.3
		c0.7,0,1.2-0.2,1.6-0.5c0.4-0.3,0.6-0.8,0.8-1.4h0.9c-0.2,0.8-0.5,1.5-1.1,2c-0.5,0.5-1.2,0.7-2.2,0.7c-0.6,0-1.1-0.1-1.5-0.3
		c-0.4-0.2-0.8-0.5-1-0.8s-0.5-0.8-0.6-1.3c-0.1-0.5-0.2-1-0.2-1.5c0-0.5,0.1-1,0.2-1.4c0.1-0.5,0.3-0.9,0.6-1.3s0.6-0.7,1-0.9
		c0.4-0.2,0.9-0.3,1.5-0.3c0.6,0,1.1,0.1,1.5,0.4c0.4,0.2,0.8,0.6,1,0.9c0.3,0.4,0.5,0.8,0.6,1.3s0.2,1,0.1,1.5h-5.7
		C42.9,179.2,43,179.6,43.1,179.9z M47.6,177.2c-0.1-0.3-0.3-0.6-0.5-0.8c-0.2-0.2-0.4-0.4-0.7-0.6c-0.3-0.1-0.6-0.2-1-0.2
		c-0.4,0-0.7,0.1-1,0.2c-0.3,0.1-0.5,0.3-0.7,0.6c-0.2,0.2-0.4,0.5-0.5,0.8c-0.1,0.3-0.2,0.7-0.2,1h4.8
		C47.7,177.8,47.7,177.5,47.6,177.2z"/>
	<path style="fill:#666666;" d="M51.3,175.7v6.7h-0.9v-6.7h-1.3V175h1.3v-0.7c0-0.3,0-0.6,0.1-0.9c0-0.3,0.1-0.5,0.3-0.7
		s0.3-0.3,0.6-0.4c0.2-0.1,0.5-0.2,0.9-0.2c0.1,0,0.3,0,0.4,0s0.2,0,0.4,0v0.8c-0.1,0-0.2,0-0.3-0.1c-0.1,0-0.2,0-0.3,0
		c-0.2,0-0.4,0-0.6,0.1c-0.1,0.1-0.2,0.2-0.3,0.3c-0.1,0.1-0.1,0.3-0.1,0.5c0,0.2,0,0.4,0,0.6v0.6h1.5v0.8H51.3z"/>
	<path style="fill:#666666;" d="M58.4,175v1.3h0c0.2-0.5,0.6-0.8,0.9-1.1c0.4-0.3,0.9-0.4,1.5-0.4c0.5,0,0.9,0.1,1.3,0.4
		c0.4,0.2,0.7,0.6,0.8,1.1c0.2-0.5,0.5-0.9,1-1.1c0.4-0.2,0.9-0.4,1.4-0.4c1.6,0,2.5,0.9,2.5,2.6v5H67v-5c0-0.6-0.1-1.1-0.4-1.4
		c-0.3-0.3-0.7-0.5-1.4-0.5c-0.4,0-0.7,0.1-1,0.2c-0.3,0.1-0.5,0.3-0.6,0.6c-0.2,0.2-0.3,0.5-0.3,0.9s-0.1,0.7-0.1,1v4.2h-0.9v-5
		c0-0.2,0-0.5-0.1-0.7c-0.1-0.2-0.1-0.4-0.3-0.6c-0.1-0.2-0.3-0.3-0.5-0.4c-0.2-0.1-0.4-0.1-0.7-0.1c-0.4,0-0.7,0.1-1,0.2
		s-0.5,0.3-0.7,0.6c-0.2,0.2-0.3,0.5-0.4,0.9c-0.1,0.3-0.1,0.7-0.1,1.1v4.1h-0.9V175H58.4z"/>
	<path style="fill:#666666;" d="M69.8,176.1c0.2-0.3,0.4-0.6,0.6-0.8c0.3-0.2,0.6-0.4,0.9-0.4c0.4-0.1,0.7-0.1,1.2-0.1
		c0.3,0,0.7,0,1,0.1c0.3,0.1,0.6,0.2,0.9,0.4c0.3,0.2,0.5,0.4,0.6,0.7s0.2,0.7,0.2,1.2v3.9c0,0.4,0.2,0.5,0.5,0.5
		c0.1,0,0.2,0,0.3-0.1v0.8c-0.1,0-0.2,0-0.3,0c-0.1,0-0.2,0-0.3,0c-0.2,0-0.4,0-0.6-0.1c-0.1-0.1-0.2-0.2-0.3-0.3s-0.1-0.3-0.2-0.4
		c0-0.2,0-0.3,0-0.5h0c-0.2,0.2-0.3,0.5-0.5,0.6c-0.2,0.2-0.4,0.3-0.6,0.5c-0.2,0.1-0.4,0.2-0.7,0.3c-0.3,0.1-0.6,0.1-0.9,0.1
		c-0.3,0-0.7,0-1-0.1c-0.3-0.1-0.6-0.2-0.8-0.4c-0.2-0.2-0.4-0.4-0.5-0.7s-0.2-0.6-0.2-1c0-0.5,0.1-0.9,0.3-1.2
		c0.2-0.3,0.5-0.5,0.9-0.7c0.4-0.2,0.8-0.3,1.3-0.3c0.5-0.1,1-0.1,1.4-0.2c0.2,0,0.4,0,0.5-0.1c0.1,0,0.3-0.1,0.4-0.2
		c0.1-0.1,0.2-0.2,0.2-0.3c0.1-0.1,0.1-0.3,0.1-0.5c0-0.3-0.1-0.6-0.2-0.8s-0.2-0.4-0.4-0.5c-0.2-0.1-0.4-0.2-0.6-0.2
		c-0.2,0-0.5-0.1-0.8-0.1c-0.6,0-1,0.1-1.4,0.4c-0.4,0.3-0.6,0.7-0.6,1.3h-0.9C69.6,176.8,69.6,176.4,69.8,176.1z M74.3,178.3
		c-0.1,0.1-0.2,0.2-0.3,0.2c-0.2,0-0.3,0.1-0.4,0.1c-0.4,0.1-0.8,0.1-1.2,0.2c-0.4,0.1-0.8,0.1-1.1,0.2c-0.3,0.1-0.6,0.3-0.8,0.5
		c-0.2,0.2-0.3,0.5-0.3,0.8c0,0.2,0,0.4,0.1,0.6c0.1,0.2,0.2,0.3,0.4,0.5c0.2,0.1,0.3,0.2,0.5,0.3c0.2,0.1,0.4,0.1,0.6,0.1
		c0.3,0,0.7-0.1,1-0.2c0.3-0.1,0.6-0.3,0.8-0.5s0.4-0.4,0.6-0.7c0.1-0.3,0.2-0.6,0.2-1L74.3,178.3L74.3,178.3z"/>
	<path style="fill:#666666;" d="M77.9,175v1.7h0c0.2-0.6,0.6-1.1,1.1-1.4c0.5-0.3,1.1-0.5,1.7-0.4v0.9c-0.4,0-0.8,0-1.1,0.2
		c-0.3,0.1-0.6,0.3-0.9,0.6c-0.2,0.2-0.4,0.5-0.6,0.9c-0.1,0.3-0.2,0.7-0.2,1.1v4h-0.9V175H77.9z"/>
	<path style="fill:#666666;" d="M82.5,172.1v6.5l4.1-3.6h1.2l-3.2,2.8l3.4,4.7h-1.1l-2.9-4l-1.5,1.2v2.8h-0.9v-10.3H82.5z"/>
	<path style="fill:#666666;" d="M89.5,179.9c0.1,0.4,0.2,0.7,0.4,0.9c0.2,0.3,0.5,0.5,0.8,0.7c0.3,0.2,0.7,0.3,1.1,0.3
		c0.7,0,1.2-0.2,1.6-0.5c0.4-0.3,0.6-0.8,0.8-1.4H95c-0.2,0.8-0.5,1.5-1.1,2c-0.5,0.5-1.2,0.7-2.2,0.7c-0.6,0-1.1-0.1-1.5-0.3
		c-0.4-0.2-0.8-0.5-1-0.8s-0.5-0.8-0.6-1.3c-0.1-0.5-0.2-1-0.2-1.5c0-0.5,0.1-1,0.2-1.4c0.1-0.5,0.3-0.9,0.6-1.3s0.6-0.7,1-0.9
		c0.4-0.2,0.9-0.3,1.5-0.3c0.6,0,1.1,0.1,1.5,0.4c0.4,0.2,0.8,0.6,1,0.9c0.3,0.4,0.5,0.8,0.6,1.3s0.2,1,0.1,1.5h-5.7
		C89.4,179.2,89.4,179.6,89.5,179.9z M94,177.2c-0.1-0.3-0.3-0.6-0.5-0.8c-0.2-0.2-0.4-0.4-0.7-0.6c-0.3-0.1-0.6-0.2-1-0.2
		c-0.4,0-0.7,0.1-1,0.2c-0.3,0.1-0.5,0.3-0.7,0.6c-0.2,0.2-0.4,0.5-0.5,0.8c-0.1,0.3-0.2,0.7-0.2,1h4.8
		C94.1,177.8,94.1,177.5,94,177.2z"/>
	<path style="fill:#666666;" d="M99.2,175v0.8h-1.5v5c0,0.3,0,0.5,0.1,0.7c0.1,0.2,0.3,0.3,0.6,0.3c0.3,0,0.5,0,0.8,0v0.8
		c-0.1,0-0.3,0-0.4,0c-0.1,0-0.3,0-0.4,0c-0.6,0-1-0.1-1.3-0.4s-0.4-0.7-0.3-1.3v-5.1h-1.3V175h1.3v-2.2h0.9v2.2H99.2z"/>
	<path style="fill:#666666;" d="M101.5,172.1v1.5h-0.9v-1.5H101.5z M101.5,175v7.4h-0.9V175H101.5z"/>
	<path style="fill:#666666;" d="M104.1,175v1.3h0c0.2-0.5,0.5-0.8,0.9-1.1c0.4-0.3,0.9-0.4,1.5-0.4c0.5,0,1,0.1,1.3,0.2
		c0.4,0.1,0.6,0.3,0.8,0.6c0.2,0.2,0.4,0.5,0.4,0.9c0.1,0.4,0.1,0.8,0.1,1.2v4.8h-0.9v-4.6c0-0.3,0-0.6-0.1-0.9s-0.2-0.5-0.3-0.7
		c-0.1-0.2-0.3-0.4-0.6-0.5s-0.5-0.2-0.9-0.2c-0.4,0-0.7,0.1-1,0.2c-0.3,0.1-0.5,0.3-0.7,0.5c-0.2,0.2-0.4,0.5-0.5,0.8
		s-0.2,0.7-0.2,1v4.3h-0.9V175H104.1z"/>
	<path style="fill:#666666;" d="M117,183.3c-0.1,0.4-0.3,0.8-0.6,1.1s-0.6,0.5-1,0.7c-0.4,0.2-0.9,0.2-1.5,0.2c-0.4,0-0.7,0-1.1-0.1
		c-0.4-0.1-0.7-0.2-1-0.4c-0.3-0.2-0.5-0.4-0.7-0.7c-0.2-0.3-0.3-0.6-0.3-1h0.9c0,0.3,0.1,0.5,0.3,0.7c0.1,0.2,0.3,0.3,0.5,0.5
		s0.4,0.2,0.7,0.3s0.5,0.1,0.7,0.1c0.8,0,1.5-0.2,1.8-0.7c0.4-0.5,0.6-1.2,0.6-2.1v-1h0c-0.2,0.5-0.5,0.8-0.9,1.1s-0.9,0.4-1.4,0.4
		c-0.6,0-1.1-0.1-1.5-0.3c-0.4-0.2-0.8-0.5-1-0.8s-0.5-0.8-0.6-1.2c-0.1-0.5-0.2-1-0.2-1.5c0-0.5,0.1-1,0.2-1.4
		c0.1-0.5,0.4-0.9,0.6-1.2c0.3-0.3,0.6-0.6,1.1-0.8s0.9-0.3,1.4-0.3c0.3,0,0.5,0,0.8,0.1c0.2,0.1,0.5,0.2,0.7,0.3
		c0.2,0.1,0.4,0.3,0.5,0.5c0.2,0.2,0.3,0.4,0.4,0.6h0V175h0.9v6.8C117.2,182.3,117.2,182.8,117,183.3z M115,181.3
		c0.3-0.2,0.5-0.4,0.7-0.7c0.2-0.3,0.4-0.6,0.5-0.9s0.2-0.7,0.2-1.1c0-0.4,0-0.7-0.1-1.1c-0.1-0.4-0.2-0.7-0.4-1
		c-0.2-0.3-0.4-0.5-0.7-0.7c-0.3-0.2-0.7-0.3-1.1-0.3s-0.8,0.1-1.1,0.3c-0.3,0.2-0.6,0.4-0.8,0.7c-0.2,0.3-0.3,0.6-0.4,1
		c-0.1,0.4-0.1,0.7-0.1,1.1c0,0.4,0,0.7,0.1,1.1c0.1,0.4,0.2,0.7,0.4,0.9c0.2,0.3,0.5,0.5,0.8,0.7c0.3,0.2,0.7,0.3,1.1,0.3
		C114.3,181.5,114.7,181.4,115,181.3z"/>
	<path style="fill:#666666;" d="M127.6,175.1c0.4,0.2,0.8,0.5,1.1,0.8c0.3,0.4,0.5,0.8,0.7,1.2s0.2,1,0.2,1.5c0,0.5-0.1,1-0.2,1.5
		c-0.2,0.5-0.4,0.9-0.7,1.2c-0.3,0.4-0.7,0.6-1.1,0.8c-0.4,0.2-0.9,0.3-1.5,0.3s-1.1-0.1-1.5-0.3c-0.4-0.2-0.8-0.5-1.1-0.8
		c-0.3-0.4-0.5-0.8-0.7-1.2c-0.2-0.5-0.2-1-0.2-1.5c0-0.5,0.1-1,0.2-1.5s0.4-0.9,0.7-1.2c0.3-0.4,0.7-0.6,1.1-0.8
		c0.4-0.2,0.9-0.3,1.5-0.3S127.2,174.8,127.6,175.1z M125,175.8c-0.3,0.2-0.6,0.4-0.8,0.7c-0.2,0.3-0.4,0.6-0.5,1
		c-0.1,0.4-0.2,0.8-0.2,1.2c0,0.4,0.1,0.8,0.2,1.2c0.1,0.4,0.3,0.7,0.5,1c0.2,0.3,0.5,0.5,0.8,0.7c0.3,0.2,0.7,0.3,1.1,0.3
		c0.4,0,0.8-0.1,1.1-0.3c0.3-0.2,0.6-0.4,0.8-0.7c0.2-0.3,0.4-0.6,0.5-1c0.1-0.4,0.2-0.8,0.2-1.2c0-0.4-0.1-0.8-0.2-1.2
		c-0.1-0.4-0.3-0.7-0.5-1c-0.2-0.3-0.5-0.5-0.8-0.7c-0.3-0.2-0.7-0.3-1.1-0.3C125.7,175.5,125.3,175.6,125,175.8z"/>
	<path style="fill:#666666;" d="M132.4,175.7v6.7h-0.9v-6.7h-1.3V175h1.3v-0.7c0-0.3,0-0.6,0.1-0.9c0-0.3,0.1-0.5,0.3-0.7
		s0.3-0.3,0.6-0.4c0.2-0.1,0.5-0.2,0.9-0.2c0.1,0,0.3,0,0.4,0s0.2,0,0.4,0v0.8c-0.1,0-0.2,0-0.3-0.1c-0.1,0-0.2,0-0.3,0
		c-0.2,0-0.4,0-0.6,0.1c-0.1,0.1-0.2,0.2-0.3,0.3c-0.1,0.1-0.1,0.3-0.1,0.5c0,0.2,0,0.4,0,0.6v0.6h1.5v0.8H132.4z"/>
	<path style="fill:#666666;" d="M136.1,175.7v6.7h-0.9v-6.7h-1.3V175h1.3v-0.7c0-0.3,0-0.6,0.1-0.9c0-0.3,0.1-0.5,0.3-0.7
		s0.3-0.3,0.6-0.4c0.2-0.1,0.5-0.2,0.9-0.2c0.1,0,0.3,0,0.4,0s0.2,0,0.4,0v0.8c-0.1,0-0.2,0-0.3-0.1c-0.1,0-0.2,0-0.3,0
		c-0.2,0-0.4,0-0.6,0.1c-0.1,0.1-0.2,0.2-0.3,0.3c-0.1,0.1-0.1,0.3-0.1,0.5c0,0.2,0,0.4,0,0.6v0.6h1.5v0.8H136.1z"/>
	<path style="fill:#666666;" d="M139.3,172.1v1.5h-0.9v-1.5H139.3z M139.3,175v7.4h-0.9V175H139.3z"/>
	<path style="fill:#666666;" d="M145.6,176c-0.3-0.3-0.8-0.5-1.4-0.5c-0.4,0-0.8,0.1-1.1,0.3c-0.3,0.2-0.6,0.4-0.8,0.7
		c-0.2,0.3-0.4,0.6-0.5,1c-0.1,0.4-0.2,0.8-0.2,1.2c0,0.4,0.1,0.8,0.2,1.2c0.1,0.4,0.3,0.7,0.5,1c0.2,0.3,0.5,0.5,0.8,0.7
		c0.3,0.2,0.7,0.3,1.1,0.3c0.3,0,0.5-0.1,0.8-0.2c0.2-0.1,0.5-0.3,0.7-0.4c0.2-0.2,0.3-0.4,0.5-0.7s0.2-0.5,0.2-0.8h0.9
		c-0.1,0.9-0.5,1.6-1,2.1c-0.5,0.5-1.2,0.8-2.1,0.8c-0.6,0-1.1-0.1-1.5-0.3c-0.4-0.2-0.8-0.5-1.1-0.8c-0.3-0.4-0.5-0.8-0.7-1.2
		c-0.2-0.5-0.2-1-0.2-1.5c0-0.5,0.1-1,0.2-1.5s0.4-0.9,0.7-1.2c0.3-0.4,0.7-0.6,1.1-0.8c0.4-0.2,0.9-0.3,1.5-0.3
		c0.8,0,1.5,0.2,2,0.6s0.9,1.1,1,1.9h-0.9C146.2,176.7,146,176.3,145.6,176z"/>
	<path style="fill:#666666;" d="M149.2,179.9c0.1,0.4,0.2,0.7,0.4,0.9c0.2,0.3,0.5,0.5,0.8,0.7c0.3,0.2,0.7,0.3,1.1,0.3
		c0.7,0,1.2-0.2,1.6-0.5c0.4-0.3,0.6-0.8,0.8-1.4h0.9c-0.2,0.8-0.5,1.5-1.1,2c-0.5,0.5-1.2,0.7-2.2,0.7c-0.6,0-1.1-0.1-1.5-0.3
		c-0.4-0.2-0.8-0.5-1-0.8s-0.5-0.8-0.6-1.3c-0.1-0.5-0.2-1-0.2-1.5c0-0.5,0.1-1,0.2-1.4c0.1-0.5,0.3-0.9,0.6-1.3s0.6-0.7,1-0.9
		c0.4-0.2,0.9-0.3,1.5-0.3c0.6,0,1.1,0.1,1.5,0.4c0.4,0.2,0.8,0.6,1,0.9c0.3,0.4,0.5,0.8,0.6,1.3s0.2,1,0.1,1.5h-5.7
		C149.1,179.2,149.1,179.6,149.2,179.9z M153.7,177.2c-0.1-0.3-0.3-0.6-0.5-0.8c-0.2-0.2-0.4-0.4-0.7-0.6c-0.3-0.1-0.6-0.2-1-0.2
		c-0.4,0-0.7,0.1-1,0.2c-0.3,0.1-0.5,0.3-0.7,0.6c-0.2,0.2-0.4,0.5-0.5,0.8c-0.1,0.3-0.2,0.7-0.2,1h4.8
		C153.9,177.8,153.8,177.5,153.7,177.2z"/>
	<path style="fill:#666666;" d="M156.9,175v1.7h0c0.2-0.6,0.6-1.1,1.1-1.4c0.5-0.3,1.1-0.5,1.7-0.4v0.9c-0.4,0-0.8,0-1.1,0.2
		c-0.3,0.1-0.6,0.3-0.9,0.6c-0.2,0.2-0.4,0.5-0.6,0.9c-0.1,0.3-0.2,0.7-0.2,1.1v4H156V175H156.9z"/>
</g>
<g>
	<path style="fill:#666666;" d="M22.9,33.4h32.5v6.2H42.6v6.8h11v6h-11v7.3H57v5.9H21.4v-5.9h14.4v-7.3h-11v-6h11v-6.8H22.9V33.4z"
		/>
	<path style="fill:#666666;" d="M61,32.5h14.7v-1.9h6.2v1.9h14.7v4.3H81.9v1.2h11.8v19h4v4.3H86.2c3.4,0.6,6.8,1.2,10.1,1.7
		l-1.7,4.8c-2.8-0.8-6.7-1.8-11.8-2.9c-0.9-0.2-1.6-0.4-2-0.5l1.4-3.1h-7.1l1.7,3.1c-2.8,0.7-7.1,1.8-13,3.2
		c-0.3-0.6-0.8-1.7-1.5-3.1c-0.3-0.7-0.6-1.2-0.8-1.5c1.8-0.1,4.3-0.5,7.7-1.2c0.9-0.2,1.6-0.4,2.2-0.5H59.9v-4.3h4.2v-19h11.6v-1.2
		H61V32.5z M70.3,41.9v1.5h17v-1.5H70.3z M70.3,46.4V48h17v-1.5H70.3z M70.3,51v1.5h17V51H70.3z M70.3,55.7v1.4h17v-1.4H70.3z"/>
	<path style="fill:#666666;" d="M99.5,36.8h4c0.3-2.2,0.5-4.3,0.6-6.5l6.7,0.5c-0.1,0.9-0.3,2.3-0.6,4c-0.1,0.9-0.2,1.6-0.3,2h8.2
		c-0.3,10.1-1.5,16.9-3.7,20.4c1.5,1.3,3.1,2.7,4.8,4.2l-4.5,4.3c-1.2-1.2-2.6-2.4-4-3.6c-1.8,1.6-4,3.5-6.8,5.4
		c-1.8-2.1-3.2-3.6-4.3-4.5c2.8-1.8,5-3.5,6.7-5.1c-0.6-0.6-1.5-1.4-2.8-2.5c-1.3-1.1-2.3-2-2.9-2.5c0.8-3.1,1.5-6.6,2.2-10.5h-3.1
		V36.8z M106.9,51.2c0.3,0.2,0.7,0.6,1.2,1.1c0.6,0.4,1,0.8,1.2,1.1c1.1-2.5,1.9-6.1,2.2-10.8h-2.8
		C108.2,45.8,107.5,48.7,106.9,51.2z M119.1,65.9v-32h16.4v31.7h-6v-3.1h-4.3v3.4H119.1z M125.2,39.3v17.8h4.3V39.3H125.2z"/>
</g>
<g>
	<path style="fill:#666666;" d="M24.7,222c0,1-0.3,1.5-1,1.6c-0.3,0-0.6,0-1,0c0,0,0-0.1,0-0.1c0-0.3-0.1-0.6-0.1-0.7
		c0.1,0,0.2,0,0.3,0c0.3,0,0.4,0,0.5,0c0.4,0,0.5-0.3,0.5-0.8c0-0.8-0.3-1.6-1-2.4c0.2-0.6,0.5-1.6,0.8-2.9h-1.3v8.6h-0.8V216h2.9
		v0.7c-0.5,1.5-0.8,2.4-0.9,2.8C24.4,220.4,24.7,221.2,24.7,222z M25,216.1h6.3v0.8h-0.9v6.8c0.1,1-0.4,1.5-1.4,1.5
		c-0.3,0-0.8,0-1.5,0c0-0.1-0.1-0.3-0.1-0.5c-0.1-0.2-0.1-0.3-0.1-0.3c0.4,0,0.9,0,1.5,0c0.6,0,0.8-0.2,0.8-0.7v-6.8H25V216.1z
		 M25.3,218.3h3.1v4.4h-3.1V218.3z M26.1,219v3h1.6v-3H26.1z"/>
	<path style="fill:#666666;" d="M32.6,222.1h4V221H33v-5h8.1v5h-3.7v1.2h4.1v0.7h-4.1v1.3h4.7v0.7H32v-0.7h4.7v-1.3h-4V222.1z
		 M33.7,216.6v1.5h2.9v-1.5H33.7z M33.7,218.8v1.5h2.9v-1.5H33.7z M40.3,216.6h-2.9v1.5h2.9V216.6z M37.4,218.8v1.5h2.9v-1.5H37.4z"
		/>
	<path style="fill:#666666;" d="M46.9,223.8l-0.6,0.5c-0.2-0.1-0.4-0.3-0.7-0.7c-0.1-0.1-0.3-0.3-0.3-0.3c-0.4,0.6-1,1.3-1.9,2
		c-0.1-0.2-0.3-0.5-0.5-0.7c0.7-0.5,1.3-1.1,1.9-1.9c-0.2-0.1-0.4-0.4-0.7-0.7c-0.3-0.3-0.5-0.5-0.7-0.7c0.2-0.6,0.4-1.6,0.7-3.1
		h-0.9v-0.7h1c0.1-0.4,0.1-1,0.3-1.8c0-0.2,0-0.3,0-0.4l0.8,0.1c0,0.3-0.1,0.7-0.2,1.3c-0.1,0.4-0.1,0.6-0.1,0.8h1.8v0.7
		c-0.2,1.9-0.5,3.3-1,4.2C46,222.9,46.4,223.4,46.9,223.8z M45.8,218.3h-1.2c-0.2,1.1-0.4,2-0.6,2.8c0.2,0.1,0.4,0.3,0.7,0.6
		c0.1,0.1,0.3,0.2,0.3,0.3C45.4,221.1,45.7,219.9,45.8,218.3z M46.7,222.2h4.5v0.8h-4.5V222.2z M48.5,217.2l-0.3,2.9h2.6l0.3-3.5
		h-4.2v-0.7H52l-0.4,4.3h1c-0.1,1.8-0.1,3-0.2,3.6c-0.1,1-0.6,1.5-1.7,1.5c-0.7,0-1.2,0-1.6,0c0-0.2-0.1-0.4-0.1-0.6
		c0-0.1,0-0.2,0-0.3c0.2,0,0.8,0,1.7,0c0.6,0,0.9-0.3,1-0.8c0.1-0.5,0.1-1.4,0.2-2.7h-4.4l0.3-3.6H48.5z"/>
	<path style="fill:#666666;" d="M57.7,223.8l-0.6,0.5c-0.2-0.1-0.4-0.3-0.7-0.7c-0.1-0.1-0.3-0.3-0.3-0.3c-0.4,0.6-1,1.3-1.9,2
		c-0.1-0.2-0.3-0.5-0.5-0.7c0.7-0.5,1.3-1.1,1.9-1.9c-0.2-0.1-0.4-0.4-0.7-0.7c-0.3-0.3-0.5-0.5-0.7-0.7c0.2-0.6,0.4-1.6,0.7-3.1
		h-0.9v-0.7h1c0.1-0.4,0.1-1,0.3-1.8c0-0.2,0-0.3,0-0.4l0.8,0.1c0,0.3-0.1,0.7-0.2,1.3c-0.1,0.4-0.1,0.6-0.1,0.8h1.8v0.7
		c-0.2,1.9-0.5,3.3-1,4.2C56.8,222.9,57.2,223.4,57.7,223.8z M56.6,218.3h-1.2c-0.2,1.1-0.4,2-0.6,2.8c0.2,0.1,0.4,0.3,0.7,0.6
		c0.1,0.1,0.3,0.2,0.3,0.3C56.2,221.1,56.5,219.9,56.6,218.3z M57.5,222.2H62v0.8h-4.5V222.2z M59.3,217.2l-0.3,2.9h2.6l0.3-3.5
		h-4.2v-0.7h5.1l-0.4,4.3h1c-0.1,1.8-0.1,3-0.2,3.6c-0.1,1-0.6,1.5-1.7,1.5c-0.7,0-1.2,0-1.6,0c0-0.2-0.1-0.4-0.1-0.6
		c0-0.1,0-0.2,0-0.3c0.2,0,0.8,0,1.7,0c0.6,0,0.9-0.3,1-0.8c0.1-0.5,0.1-1.4,0.2-2.7h-4.4l0.3-3.6H59.3z"/>
</g>
<g>
	<path style="fill:#666666;" d="M21.3,241.5c0.2-0.1,0.6-0.2,1.1-0.3c0.2-0.1,0.3-0.1,0.4-0.1v-4.1h-1.3v-0.7h1.3v-2.8h0.8v2.8h1.2
		v0.7h-1.2v3.8c0.2-0.1,0.4-0.1,0.8-0.3c0.3-0.1,0.5-0.2,0.6-0.2c0,0.3,0,0.6,0,0.8c-1.2,0.5-2.3,0.8-3.3,1.1L21.3,241.5z
		 M24.4,237.7l0.9-0.3v-2.8h0.8v2.5l1.6-0.5v-3.1h0.8v2.8l2.5-0.9c0,0.2,0,0.6,0,1.1c0,0.9-0.1,1.6-0.1,2.1c0,1.1-0.4,1.6-1.3,1.5
		c-0.2,0-0.4,0-0.8,0c0-0.3-0.1-0.5-0.2-0.8c0.1,0,0.2,0,0.4,0c0.2,0,0.4,0,0.5,0c0.4,0,0.6-0.2,0.6-0.8c0-0.5,0-1.2,0-2.1l-1.6,0.7
		v4.3h-0.8v-4l-1.6,0.6v3.5c0,0.6,0.3,0.9,1,0.8h2.2c0.8,0,1.2-0.2,1.2-0.7c0.1-0.6,0.2-1.1,0.2-1.5c0.3,0.1,0.5,0.2,0.8,0.3
		c-0.1,0.7-0.2,1.2-0.3,1.7c-0.1,0.7-0.7,1.1-1.8,1.1h-2.6c-1.1,0-1.6-0.5-1.6-1.4v-3.3l-0.8,0.3L24.4,237.7z"/>
	<path style="fill:#666666;" d="M32.1,241c0.2-0.1,0.4-0.1,0.8-0.3c0.4-0.1,0.6-0.2,0.8-0.3v-3.8h-1.4V236h1.4v-2.7h0.8v2.7h1.4v0.8
		h-1.4v3.5c0.5-0.2,1-0.3,1.5-0.5c0,0.3,0,0.6,0,0.8c-0.2,0.1-0.5,0.2-0.8,0.3c-1.3,0.5-2.2,0.8-2.8,1.1L32.1,241z M38.8,233.3h0.8
		v3.2H42v0.8h-2.4v4.7h2.7v0.7H35v-0.7h1.6v-6.5h0.8v6.5h1.5V233.3z"/>
	<path style="fill:#666666;" d="M46,238.8v1.5h-1.4v-1.5H46z M46,241.9v1.4h-1.4v-1.4H46z"/>
	<path style="fill:#666666;" d="M54.4,235.5h4v-2.2h0.8v2.2h4v4.6h-0.8v-0.5h-3.2v3.8h-0.8v-3.8h-3.2v0.5h-0.8V235.5z M55.2,236.2
		v2.6h3.2v-2.6H55.2z M62.4,236.2h-3.2v2.6h3.2V236.2z"/>
	<path style="fill:#666666;" d="M65.1,233.8h8.9v9.4h-0.8v-0.5h-7.4v0.5h-0.8V233.8z M65.9,234.5v7.5h7.4v-7.5H65.9z M66.8,237.6
		h2.4v-1.4h-2.7v-0.7h6.1v0.7H70v1.4h2.4v0.7H70v2h2.8v0.7h-6.4v-0.7h2.8v-2h-2.4V237.6z M70.5,239l0.6-0.5c0.2,0.2,0.5,0.6,1,1.1
		l-0.6,0.5C71.1,239.6,70.8,239.3,70.5,239z"/>
	<path style="fill:#666666;" d="M79.5,233.4h0.9v3.1h4.2v0.8h-4.2v4.6h5v0.7h-10v-0.7h4V233.4z"/>
	<path style="fill:#666666;" d="M86.7,236.1c0.6,0.5,1.2,0.9,1.7,1.4l-0.6,0.6c-0.5-0.5-1.1-0.9-1.6-1.4L86.7,236.1z M86.4,243
		c0.2-0.7,0.6-1.8,1-3.5c0-0.2,0.1-0.3,0.1-0.4c0.3,0.1,0.5,0.2,0.8,0.3c-0.3,1.2-0.7,2.5-1,3.8L86.4,243z M87,233.4
		c0.5,0.4,1.1,0.8,1.7,1.4l-0.5,0.6c-0.6-0.6-1.2-1.1-1.6-1.5L87,233.4z M88.3,236.1c0.9-0.8,1.6-1.8,2.1-3l0.8,0.1
		c-0.1,0.3-0.3,0.6-0.5,0.9h5.4v0.7h-5.8c-0.5,0.8-1,1.4-1.5,1.8c-0.1-0.1-0.2-0.2-0.3-0.4C88.4,236.3,88.3,236.2,88.3,236.1z
		 M95.3,235.8c0,0.3,0,0.8,0,1.4c0,0.5,0,0.9,0,1.2h1.1v0.7h-1.1c0,0.3,0,0.6,0,1.1c0,0.4,0,0.7,0,0.8H96v0.7h-0.8
		c-0.1,1-0.6,1.5-1.7,1.5c-0.5,0-0.9,0-1.4,0c0-0.1,0-0.3-0.1-0.5c0-0.1,0-0.2,0-0.3c0.4,0,0.8,0,1.4,0c0.6,0,1-0.2,1.1-0.7h-5.3
		l0.3-2.6h-1v-0.7h1.1l0.3-2.6H95.3z M94.4,241c0-0.2,0-0.5,0-0.9c0-0.4,0-0.7,0-1h-4.3l-0.2,1.9H94.4z M90.5,236.5l-0.3,1.9h4.2
		c0-0.6,0-1.3,0-1.9H90.5z M91.4,239.8l0.4-0.5c0.4,0.3,0.9,0.7,1.3,1l-0.5,0.5c-0.1-0.1-0.2-0.2-0.4-0.4
		C92.1,240.4,91.8,240.2,91.4,239.8z M91.5,237.2l0.5-0.5c0.4,0.3,0.8,0.7,1.3,1l-0.5,0.5C92.3,237.8,91.9,237.5,91.5,237.2z"/>
	<path style="fill:#666666;" d="M97.1,234.8h4.8c-0.2-0.4-0.5-0.8-0.7-1.3l0.8-0.4c0.3,0.5,0.6,0.9,0.8,1.3l-0.7,0.3h5v0.8h-4.6v1.4
		h3.7v3.8c0.1,0.9-0.4,1.3-1.3,1.3c-0.4,0-0.8,0-1.4,0c0-0.2-0.1-0.4-0.2-0.8c0.1,0,0.3,0,0.5,0c0.3,0,0.6,0,0.8,0
		c0.5,0,0.8-0.2,0.8-0.7v-2.9h-2.9v5.5h-0.8v-5.5h-2.8v4.5H98V237h3.6v-1.4h-4.5V234.8z"/>
	<path style="fill:#666666;" d="M107.7,236.1c0.9-0.7,1.7-1.6,2.4-2.8l0.7,0.4c-0.9,1.3-1.8,2.3-2.7,3.2
		C108.1,236.6,107.9,236.3,107.7,236.1z M107.7,239.2c1-0.9,1.8-2.1,2.6-3.5l0.7,0.4c-0.1,0.2-0.3,0.4-0.5,0.8
		c-0.3,0.4-0.4,0.6-0.5,0.8v5.5h-0.8v-4.5c-0.4,0.5-0.7,0.9-1.1,1.3C107.9,239.8,107.8,239.5,107.7,239.2z M112.2,240l0.7,0.4
		c-0.5,0.8-1.1,1.6-1.7,2.3c-0.1-0.1-0.4-0.3-0.6-0.5C111,241.7,111.6,241,112.2,240z M115,233.4c-0.1,0.1-0.2,0.3-0.2,0.3
		c0.8,1.3,1.9,2.3,3.2,2.9c0,0.1-0.1,0.2-0.2,0.3c-0.1,0.1-0.2,0.3-0.3,0.3c-1.2-0.7-2.3-1.7-3.1-2.9c-0.5,0.8-1.2,1.6-2.1,2.3h4.2
		v0.7h-1.7v1.3h2.8v0.7h-2.8v2.5c0.1,0.8-0.3,1.1-1.1,1.1c-0.3,0-0.7,0-1.1,0c0-0.1,0-0.3-0.1-0.6c0-0.1,0-0.2,0-0.2
		c0.1,0,0.3,0,0.5,0c0.2,0,0.4,0,0.5,0c0.4,0,0.6-0.1,0.5-0.5v-2.4h-2.7v-0.7h2.7v-1.3h-1.8v-0.5c-0.1,0.1-0.2,0.2-0.4,0.3
		c-0.2,0.1-0.3,0.3-0.4,0.3c-0.1-0.1-0.1-0.2-0.3-0.3c-0.1-0.2-0.2-0.3-0.3-0.3c1.5-0.9,2.7-2.1,3.5-3.6L115,233.4z M115.3,240.4
		l0.6-0.4c0.7,0.8,1.3,1.4,1.8,2l-0.6,0.5c-0.1-0.1-0.2-0.2-0.3-0.4C116.2,241.4,115.7,240.8,115.3,240.4z"/>
	<path style="fill:#666666;" d="M118.7,240.5c1.7-0.4,3.1-1.2,4.1-2.1c0-0.1-0.1-0.1-0.2-0.3c-0.1-0.1-0.2-0.2-0.2-0.2
		c-1,0.7-2.1,1.2-3.4,1.6c-0.1-0.2-0.3-0.4-0.5-0.7c1.5-0.3,2.9-1,4.1-1.9H120v-0.7h7.3v0.7h-3.5c-0.3,0.2-0.5,0.4-0.8,0.6
		c0.4,0.4,0.7,0.8,0.9,1.3c1.2-0.6,2.2-1.1,3.1-1.6l0.5,0.7c-0.6,0.3-1.3,0.7-2,1c0.5,1.4,1.5,2.3,3.1,2.8c-0.2,0.2-0.4,0.4-0.6,0.7
		c-1.5-0.6-2.6-1.7-3.1-3.2c-0.1,0-0.2,0.1-0.3,0.2c-0.1,0.1-0.3,0.1-0.3,0.2c0.2,0.5,0.3,1,0.3,1.5c0.1,1.4-0.6,2-1.9,2
		c-0.4,0-0.7,0-1,0c-0.1-0.3-0.1-0.6-0.2-0.8c0.2,0,0.6,0,1.2,0c0.8,0.1,1.2-0.4,1.1-1.2c0-0.3,0-0.5-0.1-0.8
		c-1.1,1.1-2.6,1.9-4.6,2.6c-0.1-0.2-0.2-0.5-0.4-0.8c2-0.5,3.6-1.4,4.9-2.6c-0.1-0.2-0.2-0.4-0.3-0.6c-1.1,1-2.4,1.7-4.1,2.2
		C119,241,118.9,240.8,118.7,240.5z M123,233.4l0.8-0.3c0.1,0.1,0.1,0.3,0.3,0.5c0.1,0.3,0.2,0.5,0.3,0.7l-0.5,0.1h4.5v1.7h-0.8v-1
		h-7.8v1h-0.8v-1.7h4.6C123.3,234.1,123.1,233.7,123,233.4z"/>
	<path style="fill:#666666;" d="M129.7,236.1c0.7,0.4,1.4,0.9,1.9,1.3c-0.2,0.3-0.4,0.5-0.5,0.8c-0.7-0.6-1.3-1.1-1.9-1.4
		L129.7,236.1z M130.9,239.1c0.3,0.2,0.6,0.3,0.8,0.4c-0.2,0.8-0.6,2-1.1,3.7l-0.9-0.4C130.1,241.7,130.5,240.4,130.9,239.1z
		 M130.2,233.4c0.4,0.3,0.9,0.7,1.6,1.2c0.1,0.1,0.1,0.1,0.2,0.2c-0.1,0.1-0.2,0.2-0.4,0.5c0.1-0.1,0,0-0.1,0.2c0,0-0.1-0.1-0.1-0.1
		c-0.8-0.6-1.3-1.1-1.7-1.4L130.2,233.4z M132.7,233.9h6.5v0.8h-5.7v7.3h5.8v0.8h-6.7V233.9z"/>
	<path style="fill:#666666;" d="M140.8,233.9h3.3v3.2h-1v1.7h1v0.7h-1v2.1c0.4-0.1,0.8-0.1,1.2-0.2c0,0.2,0,0.4,0,0.7
		c-0.3,0.1-1,0.2-2.1,0.3c-0.9,0.1-1.5,0.2-1.9,0.3l-0.1-0.7c0.2,0,0.4,0,0.6-0.1V238h0.7v3.8c0.3-0.1,0.6-0.1,0.9-0.1V237h-1.6
		V233.9z M141.5,234.6v1.8h1.9v-1.8H141.5z M144.2,236.4c0.7-0.8,1.3-1.9,1.9-3.1l0.8,0.2c0,0.1-0.1,0.2-0.2,0.3
		c0,0.1-0.1,0.3-0.3,0.6h3.2v0.7c-0.6,1-1.2,1.8-1.8,2.4c0.6,0.5,1.5,0.8,2.5,1.1c-0.1,0.2-0.3,0.5-0.5,0.8
		c-1.1-0.4-1.9-0.8-2.6-1.4c-0.8,0.6-1.6,1-2.7,1.4c-0.2-0.3-0.4-0.6-0.5-0.7c1.1-0.4,1.9-0.8,2.5-1.2c-0.4-0.4-0.8-1-1.1-1.6
		c-0.3,0.4-0.5,0.7-0.8,1.1C144.6,236.8,144.4,236.6,144.2,236.4z M145,239.4h4.4v3.9h-0.8v-0.5h-2.9v0.5H145V239.4z M145.7,240.1v2
		h2.9v-2H145.7z M148.7,235H146c0,0,0,0.1,0,0.1c0.4,0.7,0.8,1.3,1.3,1.8C147.8,236.4,148.3,235.8,148.7,235z"/>
	<path style="fill:#666666;" d="M156.5,235.8l-0.8,0.3c-0.2-1-0.8-1.5-1.6-1.4c-1.4,0-2.1,1.2-2.1,3.5c0.5-0.8,1.2-1.2,2.2-1.2
		c1.6,0.1,2.4,1,2.5,2.7c-0.1,1.8-1,2.7-2.7,2.9c-2,0-3-1.4-3-4.1c0-3.1,1.1-4.6,3.1-4.6C155.4,233.9,156.2,234.6,156.5,235.8z
		 M152,239.2c0,1.7,0.7,2.6,2,2.7c1.1-0.1,1.6-0.8,1.7-2.1c0-1.3-0.6-2-1.7-2.1C152.9,237.8,152.3,238.3,152,239.2z"/>
	<path style="fill:#666666;" d="M160.7,235.6c-0.6,0.6-1.4,1-2.2,1.4v-0.9c1.3-0.6,2.1-1.3,2.5-2.2h0.6v8.6h-0.9V235.6z"/>
	<path style="fill:#666666;" d="M167.1,242.6c-1.9,0-2.8-1.5-2.8-4.3c0-2.8,1-4.3,2.8-4.4c1.8,0.1,2.8,1.5,2.8,4.4
		C169.8,241.1,168.9,242.5,167.1,242.6z M167,234.6c-1.2,0.1-1.7,1.3-1.8,3.6c0,2.4,0.6,3.6,1.8,3.6c1.2,0,1.8-1.2,1.8-3.6
		C168.9,235.8,168.3,234.6,167,234.6z"/>
	<path style="fill:#666666;" d="M172.5,240.2v-0.8l0.5-1.1h-2.2v-0.7h10.1v0.7h-7l-0.5,1.1h6.1c-0.1,0.6-0.1,1.2-0.2,1.8
		c-0.1,1.2-0.8,1.8-2.3,1.8c-0.7,0-1.4,0-2.2,0c0,0,0-0.1,0-0.2c0-0.3-0.1-0.5-0.1-0.7c0.8,0.1,1.6,0.1,2.3,0.1c1,0.1,1.4-0.3,1.5-1
		c0-0.1,0-0.2,0-0.3c0-0.3,0.1-0.6,0.1-0.7H172.5z M172.3,233.7h6.9v3h-6.9V233.7z M173.1,234.5v1.5h5.3v-1.5H173.1z"/>
	<path style="fill:#666666;" d="M22.8,252h7.3v9.2h-0.9v-0.7h-5.6v0.7h-0.8V252z M23.6,252.7v3.1h5.6v-3.1H23.6z M23.6,256.5v3.2
		h5.6v-3.2H23.6z"/>
	<path style="fill:#666666;" d="M39.1,260.3c0.6,0,0.9-0.2,0.9-0.7v-1.7h-5.4c-0.1,1.3-0.6,2.5-1.5,3.5c-0.2-0.2-0.5-0.4-0.7-0.6
		c1.1-1,1.6-2.8,1.6-5.5v-3.5h6.8v7.9c0.1,1-0.5,1.5-1.6,1.5c-0.6,0-1.1,0-1.4,0c0-0.2-0.1-0.5-0.2-0.8c0.1,0,0.3,0,0.6,0
		C38.6,260.3,38.9,260.3,39.1,260.3z M34.7,255.3c0,0.7,0,1.3,0,1.9H40v-2h-5.2V255.3z M34.7,252.5v2H40v-2H34.7z"/>
	<path style="fill:#666666;" d="M47.6,251.3h0.8v4.3H53v0.8h-3.4v3.2c0,0.5,0.2,0.7,0.7,0.7h1.1c0.4,0,0.7-0.2,0.8-0.5
		c0-0.1,0-0.2,0-0.5c0-0.4,0-0.7,0-1c0.1,0,0.1,0.1,0.2,0.1c0.3,0.1,0.6,0.2,0.7,0.2c-0.1,0.8-0.2,1.3-0.3,1.5
		c-0.1,0.6-0.6,0.9-1.5,0.9h-1.2c-0.9,0-1.4-0.5-1.4-1.3v-3.4h-2c0.1,2.5-1,4.1-3.5,4.9c-0.1-0.2-0.3-0.4-0.5-0.7
		c2.2-0.6,3.2-2,3.2-4.2h-3v-0.8h4.6V251.3z M43.8,252.6l0.6-0.5c0.7,0.8,1.4,1.5,2,2.3l-0.7,0.5C45,254.1,44.4,253.3,43.8,252.6z
		 M49.5,254.4c0.8-0.8,1.5-1.6,2.1-2.4l0.8,0.5c-0.7,0.8-1.4,1.6-2.2,2.3L49.5,254.4z"/>
	<path style="fill:#666666;" d="M54.4,253.5h4v-2.2h0.8v2.2h4v4.6h-0.8v-0.5h-3.2v3.8h-0.8v-3.8h-3.2v0.5h-0.8V253.5z M55.2,254.2
		v2.6h3.2v-2.6H55.2z M62.4,254.2h-3.2v2.6h3.2V254.2z"/>
	<path style="fill:#666666;" d="M65.7,254.4l0.8,0.2c-0.3,1.6-0.7,3-1.1,4.2l-0.8-0.3C65.1,257,65.4,255.6,65.7,254.4z M67.2,253.2
		H68v6c0,0.6,0.3,0.9,0.9,0.9h2c0.7,0.1,1.1-0.2,1.1-0.7c0-0.1,0-0.3,0-0.5c0.1-0.4,0.1-0.8,0.1-1.1c0.3,0.1,0.6,0.2,0.8,0.3
		c-0.1,0.6-0.2,1.2-0.3,1.6c-0.1,0.8-0.7,1.2-1.8,1.1h-2.2c-1.1,0-1.6-0.5-1.6-1.5V253.2z M69.4,251.2c0.4,0.6,0.9,1.4,1.5,2.6
		c0.1,0.1,0.1,0.3,0.2,0.3l-0.8,0.4c-0.5-1-1-2-1.6-3L69.4,251.2z M72.9,254c0.1,0.1,0.1,0.3,0.3,0.5c0.7,1.4,1.2,2.5,1.5,3.2
		l-0.8,0.4c-0.5-1.4-1.1-2.6-1.7-3.8L72.9,254z"/>
	<path style="fill:#666666;" d="M82,257.5l1.1,0.3c-0.5,1.8-1.8,2.8-3.7,2.8c-2.4-0.1-3.7-1.5-3.8-4.2c0.1-2.9,1.4-4.4,3.9-4.5
		c1.6,0.1,2.7,0.9,3.4,2.4l-1.1,0.3c-0.5-1.2-1.3-1.8-2.4-1.9c-1.7,0.2-2.7,1.4-2.8,3.6c0.1,2.2,1,3.3,2.8,3.5
		C80.8,259.7,81.6,259,82,257.5z"/>
	<path style="fill:#666666;" d="M88.8,251.4l0.7-0.3c0.1,0.1,0.1,0.3,0.2,0.5c0.2,0.3,0.3,0.5,0.3,0.7l-0.3,0.2h4.1v0.7h-8.3v2.4
		c0,1.6-0.1,2.7-0.2,3.5c-0.1,0.7-0.4,1.5-0.8,2.3c-0.1,0-0.1-0.1-0.2-0.2c-0.1-0.1-0.2-0.2-0.5-0.4c0.4-0.7,0.6-1.3,0.8-2
		c0.1-0.6,0.2-1.7,0.2-3.1v-3.2h4.5C89.1,252.1,88.9,251.8,88.8,251.4z M85.6,260.1h3.8v-1.4h-3.1V258h3.1v-4.4h0.8v4.4h3.1v0.7
		h-3.1v1.4H94v0.7h-8.4V260.1z M85.7,256.8c0.8-0.9,1.3-1.8,1.5-2.9l0.8,0.2c-0.1,0.4-0.2,0.7-0.3,1c0.1,0.1,0.3,0.3,0.5,0.5
		c0.4,0.4,0.7,0.7,0.9,0.9l-0.6,0.5c-0.3-0.4-0.7-0.9-1.2-1.3c-0.3,0.5-0.6,1-1.1,1.5C86.1,257.1,85.9,257,85.7,256.8z M90.2,256.6
		c0.8-0.8,1.3-1.7,1.7-2.7l0.8,0.2c0,0,0,0.1,0,0.1c-0.1,0.3-0.3,0.6-0.4,0.8c0.6,0.5,1.1,1,1.6,1.6l-0.6,0.6
		c-0.4-0.5-0.9-1-1.4-1.5c-0.3,0.5-0.6,0.9-1.1,1.4c-0.1-0.1-0.1-0.1-0.3-0.2C90.4,256.8,90.3,256.7,90.2,256.6z"/>
	<path style="fill:#666666;" d="M94.8,260.3v-0.5c0.5-1.1,1.4-2.1,2.7-3c1.3-0.9,1.9-1.8,1.9-2.5c0-1-0.6-1.5-1.7-1.6
		c-0.9,0.1-1.5,0.6-1.8,1.6l-0.8-0.4c0.5-1.4,1.4-2.1,2.8-2c1.6,0.1,2.4,0.8,2.5,2.2c0.1,1.1-0.6,2.2-2.1,3.2
		c-1.2,0.8-1.9,1.6-2.3,2.4h4.4v0.7H94.8z"/>
	<path style="fill:#666666;" d="M104.1,260.6c-1.9,0-2.8-1.5-2.8-4.3c0-2.8,1-4.3,2.8-4.4c1.8,0.1,2.8,1.5,2.8,4.4
		C106.8,259.1,105.9,260.5,104.1,260.6z M104,252.6c-1.2,0.1-1.7,1.3-1.8,3.6c0,2.4,0.6,3.6,1.8,3.6c1.2,0,1.8-1.2,1.8-3.6
		C105.9,253.8,105.3,252.6,104,252.6z"/>
	<path style="fill:#666666;" d="M117.3,254.7h-7.6v0.5c0,1.5-0.1,2.6-0.3,3.5c-0.2,0.9-0.6,1.8-1.2,2.7c-0.3-0.3-0.5-0.6-0.6-0.7
		c0.9-1.2,1.3-3,1.3-5.4v-3.4h8.4V254.7z M109.7,252.5v1.5h6.8v-1.5H109.7z M114.5,259l0.6-0.5c0.9,0.8,1.7,1.5,2.4,2.2l-0.6,0.5
		c-0.2-0.2-0.4-0.5-0.6-0.7c-2.4,0-4.1,0.1-5.1,0.2c-0.2,0-0.4,0-0.7,0.1l-0.3-0.8c0.4-0.1,0.7-0.3,0.9-0.5c0.5-0.5,1-1,1.3-1.5
		h-2.6v-0.7h8.1v0.7h-4.5c-0.6,0.8-1.2,1.4-1.6,1.8c1.3,0,2.6,0,3.9,0C115.2,259.7,114.9,259.3,114.5,259z M110.5,255.7h6.4v0.7
		h-6.4V255.7z"/>
</g>
<g>
	<path style="fill:#666666;" d="M22.8,163.7V152h4.8l0.2-1h-6.5v-2.2h4c-0.1-0.2-0.3-0.5-0.5-0.8c-0.2-0.3-0.4-0.6-0.6-0.8l3.1-0.3
		c0.2,0.3,0.5,0.8,0.9,1.4c0.1,0.2,0.2,0.4,0.3,0.5h2.4c0.5-0.7,0.9-1.4,1.3-1.9l3.3,0.3c-0.5,0.6-0.9,1.1-1.2,1.6h4v2.2h-7.5
		l-0.2,1h6.2v11.7H34v-0.8h-8.3v0.8H22.8z M25.7,154.2v0.8H34v-0.8H25.7z M25.7,157.1v0.9H34v-0.9H25.7z M25.7,160v0.8H34V160H25.7z
		"/>
	<path style="fill:#666666;" d="M55.5,157.3v3.5c0,1.2-0.6,1.9-2,1.9c-0.1,0-0.4,0-0.8,0c-0.6,0-0.9,0.1-1.1,0.1
		c-0.1-0.8-0.3-1.5-0.5-2.2c0.1,0,0.3,0,0.6,0c0.3,0,0.6,0.1,0.7,0.1c0.5,0,0.7-0.2,0.6-0.7v-0.4h-2.2v4.2H48v-4.2h-1.9v3.2h-2.5
		v-5.3H48v-0.8h-3.2v-2.9h-1.8v1c0,4-0.5,7.1-1.5,9.1c-0.2-0.2-0.6-0.5-1.1-0.8c-0.5-0.4-0.9-0.7-1.2-0.9c0.9-1.7,1.3-4.2,1.3-7.6
		v-6.3h6.5c-0.1-0.5-0.3-0.9-0.4-1.3l3.4-0.2c0.1,0.4,0.3,0.9,0.4,1.5h5.8v2.3h-2.5v1h2.5v2.2h-2.5v2.9h-3.2v0.8H55.5z M43.1,150.4
		v1h1.8v-1H43.1z M47.5,150.4v1h3.7v-1H47.5z M47.5,154.6h3.7v-0.9h-3.7V154.6z"/>
	<path style="fill:#666666;" d="M67.4,146.9h2.7v0.9h4.1v2.1h-4.1v0.6h-2.7v-0.6h-3.2v0.6h-2.7v-0.6h-4.1v-2.1h4.1v-0.9h2.7v0.9h3.2
		V146.9z M57.7,154.3v-3.5h16.2v3.5h-2.2v3.4H59.9v-3.4H57.7z M58.7,163.7v-5.3H73v5.3h-2.8v-0.6h-8.7v0.6H58.7z M60.5,152.7v0.6
		h10.7v-0.6H60.5z M61.5,160.4v0.8h8.7v-0.8H61.5z M68.9,155.2h-6.3v0.8h6.3V155.2z"/>
	<path style="fill:#666666;" d="M77.1,146.8l2.5,0.4c0,0.2-0.1,0.4-0.3,0.8c-0.1,0.4-0.2,0.7-0.3,0.8h2.2l1.7-1.4
		c0.7,0.6,1.5,1.4,2.4,2.2l-2,1.6c0-0.1-0.2-0.2-0.4-0.4c-0.7-0.8-1.3-1.5-1.7-1.8v2h-3.2c-0.1,0.4-0.3,0.8-0.6,1.1H81v2.3h-1.5v1.3
		h1.6v2.2h-1.6v2c0.2-0.1,0.5-0.4,1.1-0.6c0.2-0.1,0.4-0.2,0.6-0.3c0,1.2,0,2,0.1,2.5c0,0-0.1,0.1-0.2,0.1c-1.1,0.6-1.9,1-2.3,1.3
		c-0.1,0.1-0.2,0.2-0.4,0.3c-0.2,0.1-0.3,0.2-0.4,0.3l-1.3-2c0.4-0.4,0.6-1,0.6-1.8v-1.8h-1.6v-2.2h1.6v-1.3h-1.2v-1.8
		c0-0.1-0.2-0.4-0.4-0.6c-0.1-0.3-0.3-0.5-0.4-0.6C75.9,150.3,76.5,148.8,77.1,146.8z M90.7,147.4l1.7,1.7c-0.3,0.3-0.8,0.7-1.5,1.3
		c-0.4,0.4-0.8,0.7-1.1,0.9l-1.7-1.8v1.8h3.7v9.7c0,1.6-0.8,2.5-2.4,2.5c-0.2,0-0.6,0-1.1,0c-0.7,0-1.2,0.1-1.5,0.1
		c-0.1-0.7-0.3-1.5-0.5-2.3c0.7,0,1.3,0,1.9,0c0.7,0,1-0.3,1-1h-4.7v3.4h-2.6v-12.3h3.6v-4.4h2.7v2.5c0.6-0.4,1.4-1,2.4-1.8
		C90.6,147.5,90.7,147.5,90.7,147.4z M84.4,153.9v0.9h4.7v-0.9H84.4z M84.4,157.1v1h4.7v-1H84.4z"/>
	<path style="fill:#666666;" d="M93.7,152.6v-4.3h6.5c0-0.1-0.1-0.4-0.2-0.7c-0.1-0.3-0.2-0.5-0.2-0.6l3.6-0.2c0,0.1,0,0.3,0.1,0.6
		c0,0.5,0.1,0.8,0.1,1h6.2v4.3H108v4.3H98v0.9h10.7v5.8h-2.8V163H98v0.8h-2.8v-11.2H93.7z M96.5,150.6v1h10.6v-1H96.5z M98,153.7
		v1.1h7.2v-1.1H98z M105.9,159.9H98v1.1h7.9V159.9z"/>
</g>
<g>
	<path style="fill:#666666;" d="M25.5,295.2h0.8v1.4H30v5.7h-3.8v1.1c-0.1,0.5,0.3,0.7,0.9,0.7h2c0.6,0,0.9-0.1,1-0.5
		c0.1-0.2,0.1-0.7,0.2-1.3c0.3,0.1,0.6,0.2,0.8,0.3c-0.1,0.5-0.1,1-0.3,1.4c-0.1,0.6-0.7,1-1.7,0.9H27c-1.1,0.1-1.6-0.4-1.5-1.4
		v-1.1h-3v0.7h-0.8v-6.5h3.8V295.2z M22.5,297.3v1.8h3v-1.8H22.5z M22.5,299.7v1.8h3v-1.8H22.5z M29.2,297.3h-3v1.8h3V297.3z
		 M26.3,301.5h3v-1.8h-3V301.5z"/>
	<path style="fill:#666666;" d="M35.3,302.7c0,0.1,0,0.2,0,0.4c0,0.2,0,0.4,0,0.5c-0.6,0.3-1.2,0.7-1.5,1c0,0-0.1,0.1-0.1,0.1
		c-0.1,0.1-0.2,0.2-0.4,0.3l-0.5-0.6c0.3-0.3,0.4-0.5,0.3-0.9v-4H32v-0.7H34v4.9c0.1-0.1,0.3-0.2,0.5-0.3
		C34.9,303,35.1,302.8,35.3,302.7z M33,295.3c0.2,0.2,0.4,0.5,0.8,0.8c0.4,0.4,0.7,0.7,0.8,0.8l-0.7,0.6c-0.5-0.6-1-1.2-1.5-1.8
		L33,295.3z M35.8,300.7h2.3V299h-3.3v-0.8h3.3v-1.7c-0.3,0-0.8,0-1.4,0c-0.6,0-1,0-1.3,0c0-0.1-0.1-0.3-0.1-0.5c0-0.1,0-0.2,0-0.3
		c2.2-0.1,4.3-0.1,6.2-0.3l0.2,0.7c-0.9,0.1-1.8,0.1-2.7,0.2v1.7H42v0.8h-3.2v1.7h2.3v4.5h-0.8v-0.7h-3.8v0.7h-0.8V300.7z
		 M36.6,301.5v2.3h3.8v-2.3H36.6z"/>
	<path style="fill:#666666;" d="M45.8,300.7v1.5h-1.4v-1.5H45.8z M45.8,303.8v1.4h-1.4v-1.4H45.8z"/>
	<path style="fill:#666666;" d="M56.2,304v-5.5h-2v-0.7c0.3,0,0.5,0,0.8-0.1c0.2,0,0.5-0.1,0.7-0.2c0.2-0.1,0.4-0.3,0.5-0.4
		s0.2-0.4,0.3-0.7h0.7v7.7H56.2z"/>
	<path style="fill:#666666;" d="M60.1,297.4c0.1-0.2,0.3-0.4,0.5-0.6c0.2-0.2,0.4-0.3,0.7-0.4c0.3-0.1,0.6-0.1,0.8-0.1
		c0.4,0,0.8,0.1,1.1,0.2s0.5,0.3,0.7,0.4s0.3,0.4,0.4,0.6c0.1,0.2,0.1,0.5,0.1,0.7c0,0.3-0.1,0.7-0.3,0.9c-0.2,0.3-0.4,0.5-0.8,0.6
		c0.5,0.1,0.8,0.4,1,0.7c0.2,0.3,0.3,0.7,0.3,1.2c0,0.4-0.1,0.7-0.2,1c-0.1,0.3-0.3,0.5-0.5,0.7c-0.2,0.2-0.5,0.3-0.8,0.4
		c-0.3,0.1-0.6,0.2-1,0.2c-0.4,0-0.7,0-1-0.1c-0.3-0.1-0.6-0.2-0.8-0.4c-0.2-0.2-0.4-0.4-0.6-0.7c-0.1-0.3-0.2-0.6-0.2-1
		c0-0.5,0.1-0.8,0.3-1.2s0.6-0.6,1-0.7c-0.3-0.1-0.6-0.3-0.8-0.6c-0.2-0.3-0.3-0.6-0.3-1C59.9,297.9,60,297.7,60.1,297.4z
		 M61.1,302.9c0.3,0.3,0.7,0.4,1.2,0.4c0.2,0,0.4,0,0.6-0.1c0.2-0.1,0.4-0.2,0.5-0.3c0.1-0.1,0.2-0.3,0.3-0.5
		c0.1-0.2,0.1-0.4,0.1-0.6c0-0.2,0-0.4-0.1-0.6s-0.2-0.3-0.3-0.5c-0.1-0.1-0.3-0.2-0.5-0.3c-0.2-0.1-0.4-0.1-0.6-0.1
		c-0.2,0-0.4,0-0.6,0.1c-0.2,0.1-0.4,0.2-0.5,0.3c-0.1,0.1-0.3,0.3-0.3,0.5c-0.1,0.2-0.1,0.4-0.1,0.6
		C60.6,302.3,60.8,302.6,61.1,302.9z M61,298.8c0.1,0.2,0.2,0.3,0.3,0.4c0.1,0.1,0.3,0.2,0.4,0.2c0.2,0.1,0.3,0.1,0.5,0.1
		c0.4,0,0.7-0.1,0.9-0.3c0.2-0.2,0.4-0.5,0.4-0.9s-0.1-0.7-0.4-0.9c-0.2-0.2-0.5-0.3-0.9-0.3c-0.2,0-0.4,0-0.5,0.1
		c-0.2,0.1-0.3,0.1-0.4,0.2c-0.1,0.1-0.2,0.2-0.3,0.4c-0.1,0.1-0.1,0.3-0.1,0.5C60.9,298.5,60.9,298.7,61,298.8z"/>
	<path style="fill:#666666;" d="M69.3,297.4c-0.2-0.2-0.5-0.3-0.9-0.3c-0.4,0-0.7,0.1-0.9,0.3c-0.2,0.2-0.4,0.4-0.6,0.7
		c-0.1,0.3-0.2,0.6-0.3,0.9c-0.1,0.3-0.1,0.7-0.1,1l0,0c0.2-0.4,0.5-0.6,0.8-0.8c0.3-0.2,0.7-0.2,1.1-0.2c0.4,0,0.7,0.1,1,0.2
		c0.3,0.1,0.5,0.3,0.7,0.5s0.4,0.5,0.5,0.8c0.1,0.3,0.2,0.6,0.2,1c0,0.3,0,0.6-0.1,0.9s-0.2,0.6-0.4,0.8s-0.5,0.5-0.8,0.6
		c-0.3,0.2-0.7,0.2-1.2,0.2c-0.6,0-1-0.1-1.4-0.3c-0.3-0.2-0.6-0.5-0.8-0.9c-0.2-0.4-0.3-0.8-0.4-1.2c-0.1-0.4-0.1-0.8-0.1-1.3
		c0-0.5,0-1,0.1-1.5c0.1-0.5,0.2-0.9,0.5-1.3c0.2-0.4,0.5-0.7,0.9-0.9s0.8-0.3,1.4-0.3c0.6,0,1.1,0.2,1.5,0.5
		c0.4,0.3,0.6,0.8,0.6,1.5h-0.9C69.7,297.9,69.5,297.6,69.3,297.4z M67.6,300c-0.2,0.1-0.4,0.2-0.5,0.4c-0.1,0.2-0.2,0.3-0.3,0.6
		c-0.1,0.2-0.1,0.4-0.1,0.7c0,0.2,0,0.5,0.1,0.7c0.1,0.2,0.2,0.4,0.3,0.5c0.1,0.2,0.3,0.3,0.5,0.4c0.2,0.1,0.4,0.1,0.7,0.1
		s0.5,0,0.7-0.1c0.2-0.1,0.4-0.2,0.5-0.4s0.2-0.3,0.3-0.5s0.1-0.4,0.1-0.6c0-0.2,0-0.5-0.1-0.7c-0.1-0.2-0.2-0.4-0.3-0.6
		c-0.1-0.2-0.3-0.3-0.5-0.4c-0.2-0.1-0.4-0.1-0.7-0.1S67.8,299.9,67.6,300z"/>
	<path style="fill:#666666;" d="M77.2,304v-5.5h-2v-0.7c0.3,0,0.5,0,0.8-0.1c0.2,0,0.5-0.1,0.7-0.2c0.2-0.1,0.4-0.3,0.5-0.4
		s0.2-0.4,0.3-0.7h0.7v7.7H77.2z"/>
	<path style="fill:#666666;" d="M84.3,297.4c-0.2-0.2-0.5-0.3-0.9-0.3c-0.4,0-0.7,0.1-0.9,0.3c-0.2,0.2-0.4,0.4-0.6,0.7
		c-0.1,0.3-0.2,0.6-0.3,0.9c-0.1,0.3-0.1,0.7-0.1,1l0,0c0.2-0.4,0.5-0.6,0.8-0.8c0.3-0.2,0.7-0.2,1.1-0.2c0.4,0,0.7,0.1,1,0.2
		c0.3,0.1,0.5,0.3,0.7,0.5s0.4,0.5,0.5,0.8c0.1,0.3,0.2,0.6,0.2,1c0,0.3,0,0.6-0.1,0.9s-0.2,0.6-0.4,0.8s-0.5,0.5-0.8,0.6
		c-0.3,0.2-0.7,0.2-1.2,0.2c-0.6,0-1-0.1-1.4-0.3c-0.3-0.2-0.6-0.5-0.8-0.9c-0.2-0.4-0.3-0.8-0.4-1.2c-0.1-0.4-0.1-0.8-0.1-1.3
		c0-0.5,0-1,0.1-1.5c0.1-0.5,0.2-0.9,0.5-1.3c0.2-0.4,0.5-0.7,0.9-0.9s0.8-0.3,1.4-0.3c0.6,0,1.1,0.2,1.5,0.5
		c0.4,0.3,0.6,0.8,0.6,1.5h-0.9C84.7,297.9,84.5,297.6,84.3,297.4z M82.7,300c-0.2,0.1-0.4,0.2-0.5,0.4c-0.1,0.2-0.2,0.3-0.3,0.6
		c-0.1,0.2-0.1,0.4-0.1,0.7c0,0.2,0,0.5,0.1,0.7c0.1,0.2,0.2,0.4,0.3,0.5c0.1,0.2,0.3,0.3,0.5,0.4c0.2,0.1,0.4,0.1,0.7,0.1
		s0.5,0,0.7-0.1c0.2-0.1,0.4-0.2,0.5-0.4s0.2-0.3,0.3-0.5s0.1-0.4,0.1-0.6c0-0.2,0-0.5-0.1-0.7c-0.1-0.2-0.2-0.4-0.3-0.6
		c-0.1-0.2-0.3-0.3-0.5-0.4c-0.2-0.1-0.4-0.1-0.7-0.1S82.8,299.9,82.7,300z"/>
	<path style="fill:#666666;" d="M87.1,297.4c0.1-0.2,0.3-0.4,0.5-0.6c0.2-0.2,0.4-0.3,0.7-0.4c0.3-0.1,0.6-0.1,0.8-0.1
		c0.4,0,0.8,0.1,1.1,0.2s0.5,0.3,0.7,0.4s0.3,0.4,0.4,0.6c0.1,0.2,0.1,0.5,0.1,0.7c0,0.3-0.1,0.7-0.3,0.9c-0.2,0.3-0.4,0.5-0.8,0.6
		c0.5,0.1,0.8,0.4,1,0.7c0.2,0.3,0.3,0.7,0.3,1.2c0,0.4-0.1,0.7-0.2,1c-0.1,0.3-0.3,0.5-0.5,0.7c-0.2,0.2-0.5,0.3-0.8,0.4
		c-0.3,0.1-0.6,0.2-1,0.2c-0.4,0-0.7,0-1-0.1c-0.3-0.1-0.6-0.2-0.8-0.4c-0.2-0.2-0.4-0.4-0.6-0.7c-0.1-0.3-0.2-0.6-0.2-1
		c0-0.5,0.1-0.8,0.3-1.2s0.6-0.6,1-0.7c-0.3-0.1-0.6-0.3-0.8-0.6c-0.2-0.3-0.3-0.6-0.3-1C87,297.9,87,297.7,87.1,297.4z M88.1,302.9
		c0.3,0.3,0.7,0.4,1.2,0.4c0.2,0,0.4,0,0.6-0.1c0.2-0.1,0.4-0.2,0.5-0.3c0.1-0.1,0.2-0.3,0.3-0.5c0.1-0.2,0.1-0.4,0.1-0.6
		c0-0.2,0-0.4-0.1-0.6s-0.2-0.3-0.3-0.5c-0.1-0.1-0.3-0.2-0.5-0.3c-0.2-0.1-0.4-0.1-0.6-0.1c-0.2,0-0.4,0-0.6,0.1
		c-0.2,0.1-0.4,0.2-0.5,0.3c-0.1,0.1-0.3,0.3-0.3,0.5c-0.1,0.2-0.1,0.4-0.1,0.6C87.7,302.3,87.8,302.6,88.1,302.9z M88,298.8
		c0.1,0.2,0.2,0.3,0.3,0.4c0.1,0.1,0.3,0.2,0.4,0.2c0.2,0.1,0.3,0.1,0.5,0.1c0.4,0,0.7-0.1,0.9-0.3c0.2-0.2,0.4-0.5,0.4-0.9
		s-0.1-0.7-0.4-0.9c-0.2-0.2-0.5-0.3-0.9-0.3c-0.2,0-0.4,0-0.5,0.1c-0.2,0.1-0.3,0.1-0.4,0.2c-0.1,0.1-0.2,0.2-0.3,0.4
		c-0.1,0.1-0.1,0.3-0.1,0.5C87.9,298.5,88,298.7,88,298.8z"/>
	<path style="fill:#666666;" d="M92.8,297.9c0.1-0.3,0.3-0.6,0.5-0.9c0.2-0.2,0.5-0.4,0.8-0.6c0.3-0.1,0.7-0.2,1.1-0.2
		c0.3,0,0.6,0,0.9,0.1c0.3,0.1,0.5,0.2,0.8,0.4c0.2,0.2,0.4,0.4,0.5,0.7s0.2,0.6,0.2,1c0,0.3-0.1,0.6-0.2,0.9s-0.2,0.5-0.4,0.7
		c-0.2,0.2-0.4,0.4-0.6,0.6c-0.2,0.2-0.5,0.3-0.7,0.5c-0.2,0.1-0.5,0.3-0.7,0.4c-0.2,0.1-0.5,0.3-0.7,0.4c-0.2,0.2-0.4,0.3-0.5,0.5
		c-0.1,0.2-0.2,0.4-0.3,0.6h3.9v0.8h-5c0-0.5,0.1-0.8,0.2-1.2c0.1-0.3,0.3-0.6,0.5-0.8s0.4-0.4,0.7-0.6c0.2-0.2,0.5-0.3,0.8-0.5
		c0.3-0.2,0.6-0.4,0.9-0.6c0.2-0.2,0.4-0.3,0.6-0.5s0.3-0.4,0.4-0.6c0.1-0.2,0.1-0.4,0.1-0.7c0-0.2,0-0.4-0.1-0.6
		c-0.1-0.2-0.2-0.3-0.3-0.4c-0.1-0.1-0.3-0.2-0.5-0.3s-0.4-0.1-0.6-0.1c-0.3,0-0.5,0.1-0.7,0.2c-0.2,0.1-0.3,0.3-0.5,0.4
		c-0.1,0.2-0.2,0.4-0.3,0.6c-0.1,0.2-0.1,0.5-0.1,0.7h-0.9C92.7,298.6,92.7,298.3,92.8,297.9z"/>
	<path style="fill:#666666;" d="M103.2,297.2l-0.4,2.2l0,0c0.2-0.2,0.4-0.3,0.6-0.4c0.3-0.1,0.5-0.1,0.8-0.1c0.3,0,0.7,0.1,1,0.2
		c0.3,0.1,0.6,0.3,0.8,0.5c0.2,0.2,0.4,0.5,0.5,0.8s0.2,0.7,0.2,1.1c0,0.3-0.1,0.6-0.2,0.9c-0.1,0.3-0.3,0.6-0.5,0.8
		c-0.2,0.2-0.5,0.4-0.8,0.6c-0.3,0.1-0.7,0.2-1.2,0.2c-0.3,0-0.6,0-0.9-0.1c-0.3-0.1-0.5-0.2-0.8-0.4s-0.4-0.4-0.5-0.7
		c-0.1-0.3-0.2-0.6-0.2-0.9h0.9c0,0.2,0.1,0.4,0.1,0.5c0.1,0.2,0.2,0.3,0.3,0.4s0.3,0.2,0.5,0.3c0.2,0.1,0.4,0.1,0.6,0.1
		c0.2,0,0.4,0,0.6-0.1s0.4-0.2,0.5-0.3c0.1-0.2,0.3-0.3,0.4-0.6c0.1-0.2,0.1-0.5,0.1-0.8c0-0.3,0-0.5-0.1-0.7
		c-0.1-0.2-0.2-0.4-0.4-0.6s-0.3-0.3-0.5-0.4c-0.2-0.1-0.4-0.1-0.7-0.1c-0.3,0-0.6,0.1-0.8,0.2c-0.2,0.1-0.4,0.3-0.6,0.5l-0.8,0
		l0.7-4h3.8v0.8H103.2z"/>
	<path style="fill:#666666;" d="M112.8,301.4v0.8h-1v1.8h-0.9v-1.8h-3.4v-0.9l3.5-5h0.7v5.1H112.8z M110.9,297.6L110.9,297.6
		l-2.6,3.7h2.6V297.6z"/>
	<path style="fill:#666666;" d="M117.7,298.6c-0.3,0.5-0.6,1.1-0.9,1.7c-0.3,0.6-0.5,1.2-0.6,1.8c-0.2,0.6-0.3,1.2-0.3,1.8h-1
		c0-0.6,0.1-1.3,0.3-1.9c0.2-0.6,0.4-1.2,0.7-1.8c0.3-0.6,0.6-1.1,0.9-1.6c0.3-0.5,0.7-1,1.1-1.4h-4v-0.9h5v0.8
		C118.4,297.6,118,298.1,117.7,298.6z"/>
	<path style="fill:#666666;" d="M122.2,304v-5.5h-2v-0.7c0.3,0,0.5,0,0.8-0.1c0.2,0,0.5-0.1,0.7-0.2c0.2-0.1,0.4-0.3,0.5-0.4
		s0.2-0.4,0.3-0.7h0.7v7.7H122.2z"/>
</g>
<g>
	<path style="fill:#666666;" d="M27,331.2v0.9h-4.3v2.5h4v0.9h-4v2.7H27v0.9h-5.4v-7.7H27z"/>
	<path style="fill:#666666;" d="M31.1,335.4v0.9H28v-0.9H31.1z"/>
	<path style="fill:#666666;" d="M33.2,333.3v0.8h0c0.4-0.6,1-1,1.8-1c0.3,0,0.7,0.1,0.9,0.2c0.3,0.1,0.5,0.4,0.6,0.7
		c0.2-0.3,0.4-0.5,0.7-0.7c0.3-0.2,0.6-0.2,1-0.2c0.3,0,0.5,0,0.8,0.1c0.2,0.1,0.4,0.2,0.6,0.3c0.2,0.1,0.3,0.3,0.4,0.5
		c0.1,0.2,0.1,0.5,0.1,0.7v4.1h-0.9v-3.7c0-0.2,0-0.3,0-0.5c0-0.2-0.1-0.3-0.2-0.4c-0.1-0.1-0.2-0.2-0.3-0.3
		c-0.1-0.1-0.3-0.1-0.5-0.1c-0.5,0-0.8,0.1-1.1,0.4c-0.3,0.3-0.4,0.6-0.4,1v3.5h-0.9v-3.7c0-0.2,0-0.3,0-0.5c0-0.2-0.1-0.3-0.2-0.4
		c-0.1-0.1-0.2-0.2-0.3-0.3c-0.1-0.1-0.3-0.1-0.5-0.1c-0.3,0-0.5,0.1-0.7,0.2c-0.2,0.1-0.3,0.2-0.5,0.4c-0.1,0.2-0.2,0.3-0.3,0.5
		c-0.1,0.2-0.1,0.3-0.1,0.4v3.5h-0.9v-5.6H33.2z"/>
	<path style="fill:#666666;" d="M45.8,339c-0.2,0-0.4-0.1-0.6-0.2c-0.1-0.1-0.2-0.4-0.2-0.7c-0.3,0.3-0.5,0.5-0.9,0.7
		s-0.7,0.2-1.1,0.2c-0.3,0-0.5,0-0.7-0.1c-0.2-0.1-0.4-0.1-0.6-0.3c-0.2-0.1-0.3-0.3-0.4-0.5c-0.1-0.2-0.1-0.4-0.1-0.7
		c0-0.3,0.1-0.6,0.2-0.8s0.2-0.4,0.4-0.5c0.2-0.1,0.4-0.2,0.6-0.3s0.5-0.1,0.7-0.2c0.3-0.1,0.5-0.1,0.7-0.1c0.2,0,0.4-0.1,0.6-0.1
		s0.3-0.1,0.4-0.2s0.2-0.2,0.2-0.4c0-0.2,0-0.4-0.1-0.5c-0.1-0.1-0.2-0.2-0.3-0.3s-0.3-0.1-0.4-0.1c-0.1,0-0.3,0-0.4,0
		c-0.4,0-0.7,0.1-1,0.2c-0.3,0.1-0.4,0.4-0.4,0.8h-0.9c0-0.3,0.1-0.6,0.2-0.9c0.1-0.2,0.3-0.4,0.5-0.6c0.2-0.1,0.5-0.3,0.7-0.3
		c0.3-0.1,0.6-0.1,0.9-0.1c0.3,0,0.5,0,0.8,0.1s0.5,0.1,0.7,0.2c0.2,0.1,0.4,0.3,0.5,0.5c0.1,0.2,0.2,0.5,0.2,0.8v2.9
		c0,0.2,0,0.4,0,0.5c0,0.1,0.1,0.2,0.3,0.2c0.1,0,0.2,0,0.3-0.1v0.7C46.3,338.9,46.1,339,45.8,339z M44.5,336.2
		c-0.2,0-0.4,0.1-0.6,0.1c-0.2,0-0.4,0.1-0.6,0.1c-0.2,0-0.4,0.1-0.6,0.2c-0.2,0.1-0.3,0.2-0.4,0.3s-0.2,0.3-0.2,0.5
		c0,0.2,0,0.3,0.1,0.4c0.1,0.1,0.1,0.2,0.2,0.3c0.1,0.1,0.2,0.1,0.3,0.1c0.1,0,0.3,0,0.4,0c0.3,0,0.6,0,0.8-0.1
		c0.2-0.1,0.4-0.2,0.5-0.3c0.1-0.1,0.2-0.3,0.3-0.4c0.1-0.1,0.1-0.3,0.1-0.4V336C44.9,336.1,44.7,336.1,44.5,336.2z"/>
	<path style="fill:#666666;" d="M47.4,332.3v-1.1h0.9v1.1H47.4z M48.3,333.3v5.6h-0.9v-5.6H48.3z"/>
	<path style="fill:#666666;" d="M50.7,331.2v7.7h-0.9v-7.7H50.7z"/>
	<path style="fill:#666666;" d="M52.3,334.5v-1.2h1.2v1.2H52.3z M53.5,337.7v1.2h-1.2v-1.2H53.5z"/>
	<path style="fill:#666666;" d="M59.1,331.2v7.7h-0.9v-7.7H59.1z"/>
	<path style="fill:#666666;" d="M60.6,332.3v-1.1h0.9v1.1H60.6z M61.5,333.3v5.6h-0.9v-5.6H61.5z"/>
	<path style="fill:#666666;" d="M63.8,333.3v0.9h0c0.4-0.7,1-1,1.8-1c0.4,0,0.7,0.1,0.9,0.2c0.2,0.1,0.4,0.2,0.6,0.4
		c0.2,0.2,0.3,0.4,0.3,0.6c0.1,0.2,0.1,0.5,0.1,0.8v3.7h-0.9v-3.8c0-0.3-0.1-0.6-0.3-0.8c-0.2-0.2-0.5-0.3-0.8-0.3
		c-0.3,0-0.5,0-0.7,0.1c-0.2,0.1-0.4,0.2-0.5,0.4s-0.2,0.3-0.3,0.6s-0.1,0.4-0.1,0.7v3.2h-0.9v-5.6H63.8z"/>
	<path style="fill:#666666;" d="M70.8,340.3c-0.1,0.2-0.2,0.3-0.3,0.5c-0.1,0.1-0.3,0.2-0.4,0.3c-0.2,0.1-0.3,0.1-0.5,0.1
		c-0.1,0-0.2,0-0.3,0c-0.1,0-0.2,0-0.3-0.1v-0.8c0.1,0,0.2,0.1,0.3,0.1s0.2,0,0.3,0c0.2,0,0.3,0,0.5-0.1s0.2-0.2,0.3-0.4l0.4-0.9
		l-2.2-5.6h1l1.6,4.6h0l1.6-4.6h1l-2.4,6.3C71,339.9,70.9,340.1,70.8,340.3z"/>
	<path style="fill:#666666;" d="M78.3,338.5c-0.4,0.3-0.9,0.5-1.6,0.5c-0.4,0-0.8-0.1-1.2-0.2c-0.3-0.1-0.6-0.3-0.8-0.6
		c-0.2-0.3-0.4-0.6-0.5-0.9c-0.1-0.4-0.2-0.8-0.2-1.2c0-0.4,0.1-0.8,0.2-1.2c0.1-0.4,0.3-0.7,0.5-0.9c0.2-0.3,0.5-0.5,0.8-0.6
		s0.7-0.2,1.1-0.2c0.5,0,0.9,0.1,1.2,0.3c0.3,0.2,0.6,0.5,0.8,0.8c0.2,0.3,0.3,0.7,0.4,1c0.1,0.4,0.1,0.7,0.1,1.1H75
		c0,0.2,0,0.5,0.1,0.7s0.2,0.4,0.3,0.6c0.1,0.2,0.3,0.3,0.6,0.4c0.2,0.1,0.5,0.2,0.8,0.2c0.4,0,0.7-0.1,1-0.3
		c0.2-0.2,0.4-0.5,0.5-0.8h0.9C79,337.7,78.7,338.2,78.3,338.5z M78.1,334.9c-0.1-0.2-0.2-0.4-0.3-0.5c-0.1-0.1-0.3-0.3-0.5-0.3
		c-0.2-0.1-0.4-0.1-0.6-0.1c-0.2,0-0.5,0-0.6,0.1c-0.2,0.1-0.4,0.2-0.5,0.3c-0.1,0.1-0.2,0.3-0.3,0.5s-0.1,0.4-0.1,0.6h3.2
		C78.2,335.3,78.1,335.1,78.1,334.9z"/>
	<path style="fill:#666666;" d="M81.5,337.7v1.2h-1.2v-1.2H81.5z"/>
	<path style="fill:#666666;" d="M86.5,334.3c-0.2-0.2-0.5-0.3-0.9-0.3c-0.3,0-0.6,0.1-0.8,0.2c-0.2,0.1-0.4,0.3-0.5,0.5
		c-0.1,0.2-0.2,0.4-0.3,0.7c-0.1,0.3-0.1,0.5-0.1,0.8c0,0.3,0,0.5,0.1,0.8c0.1,0.2,0.2,0.5,0.3,0.7c0.1,0.2,0.3,0.3,0.5,0.5
		s0.5,0.2,0.7,0.2c0.5,0,0.8-0.1,1.1-0.4c0.3-0.2,0.4-0.6,0.5-1h0.9c-0.1,0.7-0.4,1.2-0.8,1.6c-0.4,0.4-1,0.6-1.7,0.6
		c-0.4,0-0.8-0.1-1.1-0.2c-0.3-0.1-0.6-0.3-0.8-0.6s-0.4-0.6-0.5-0.9c-0.1-0.3-0.2-0.7-0.2-1.2c0-0.4,0.1-0.8,0.2-1.2
		c0.1-0.4,0.3-0.7,0.5-1s0.5-0.5,0.8-0.6s0.7-0.2,1.2-0.2c0.3,0,0.6,0,0.9,0.1c0.3,0.1,0.5,0.2,0.7,0.4c0.2,0.2,0.4,0.4,0.5,0.6
		s0.2,0.5,0.3,0.9h-1C86.8,334.7,86.7,334.5,86.5,334.3z"/>
	<path style="fill:#666666;" d="M88.5,333.3h1.2l1.3,2l1.4-2h1.1l-1.9,2.6l2.2,3h-1.2l-1.6-2.3l-1.6,2.3h-1.1l2.1-2.9L88.5,333.3z"
		/>
	<path style="fill:#666666;" d="M99.5,336.2c0,0.1,0,0.2,0,0.3c0,0.2,0.1,0.3,0.3,0.3c0.2,0,0.3-0.1,0.5-0.2
		c0.2-0.2,0.3-0.3,0.5-0.6c0.1-0.2,0.3-0.5,0.4-0.8c0.1-0.3,0.1-0.6,0.1-0.9c0-0.4-0.1-0.8-0.2-1.2s-0.4-0.6-0.7-0.9
		c-0.3-0.2-0.6-0.4-0.9-0.6c-0.3-0.1-0.7-0.2-1.1-0.2c-0.5,0-0.9,0.1-1.3,0.3s-0.7,0.4-1,0.8c-0.3,0.3-0.5,0.7-0.7,1.1
		c-0.2,0.4-0.3,0.9-0.3,1.3c0,0.5,0.1,0.9,0.3,1.4c0.2,0.4,0.4,0.8,0.7,1.1c0.3,0.3,0.7,0.5,1.1,0.7c0.4,0.2,0.8,0.3,1.3,0.3
		c0.5,0,1-0.1,1.5-0.4c0.5-0.2,0.9-0.6,1.2-1h0.7c-0.2,0.3-0.4,0.6-0.6,0.8c-0.2,0.2-0.5,0.4-0.8,0.6c-0.3,0.2-0.6,0.3-0.9,0.4
		c-0.3,0.1-0.7,0.1-1,0.1c-0.6,0-1.1-0.1-1.6-0.3c-0.5-0.2-0.9-0.5-1.3-0.9c-0.4-0.4-0.6-0.8-0.9-1.3s-0.3-1-0.3-1.6
		c0-0.6,0.1-1.1,0.3-1.6c0.2-0.5,0.5-0.9,0.9-1.3c0.4-0.4,0.8-0.6,1.3-0.9c0.5-0.2,1-0.3,1.5-0.3c0.5,0,1,0.1,1.4,0.2
		c0.4,0.2,0.8,0.4,1.2,0.7c0.3,0.3,0.6,0.6,0.8,1s0.3,0.9,0.3,1.3c0,0.5-0.1,0.9-0.3,1.3c-0.2,0.4-0.4,0.7-0.6,1s-0.5,0.5-0.8,0.6
		c-0.3,0.2-0.6,0.2-0.8,0.2c-0.2,0-0.3-0.1-0.5-0.2c-0.1-0.1-0.2-0.3-0.2-0.5h0c-0.2,0.2-0.4,0.4-0.6,0.5c-0.2,0.1-0.5,0.2-0.7,0.2
		c-0.2,0-0.4,0-0.6-0.1c-0.2-0.1-0.4-0.2-0.5-0.4c-0.1-0.2-0.2-0.3-0.3-0.5c-0.1-0.2-0.1-0.4-0.1-0.7c0-0.4,0.1-0.7,0.2-1.1
		s0.3-0.7,0.5-1s0.5-0.5,0.8-0.7c0.3-0.2,0.7-0.3,1-0.3c0.3,0,0.5,0.1,0.7,0.2c0.2,0.1,0.4,0.4,0.5,0.7l0.2-0.7h0.7l-0.9,3.1
		C99.6,336.1,99.5,336.1,99.5,336.2z M97.7,333.6c-0.2,0.1-0.4,0.3-0.5,0.6s-0.3,0.5-0.4,0.7c-0.1,0.3-0.1,0.5-0.1,0.8
		c0,0.3,0.1,0.6,0.3,0.8c0.2,0.2,0.4,0.3,0.7,0.3c0.2,0,0.5-0.1,0.7-0.2s0.4-0.3,0.5-0.6c0.2-0.2,0.3-0.5,0.4-0.8
		c0.1-0.3,0.1-0.5,0.1-0.7c0-0.1,0-0.3-0.1-0.4c0-0.1-0.1-0.2-0.2-0.3c-0.1-0.1-0.2-0.2-0.3-0.2s-0.2-0.1-0.3-0.1
		C98.1,333.4,97.9,333.5,97.7,333.6z"/>
	<path style="fill:#666666;" d="M107.4,339c-0.2,0-0.4-0.1-0.6-0.2c-0.1-0.1-0.2-0.4-0.2-0.7c-0.3,0.3-0.5,0.5-0.9,0.7
		s-0.7,0.2-1.1,0.2c-0.3,0-0.5,0-0.7-0.1c-0.2-0.1-0.4-0.1-0.6-0.3c-0.2-0.1-0.3-0.3-0.4-0.5c-0.1-0.2-0.1-0.4-0.1-0.7
		c0-0.3,0.1-0.6,0.2-0.8s0.2-0.4,0.4-0.5c0.2-0.1,0.4-0.2,0.6-0.3s0.5-0.1,0.7-0.2c0.3-0.1,0.5-0.1,0.7-0.1c0.2,0,0.4-0.1,0.6-0.1
		s0.3-0.1,0.4-0.2s0.2-0.2,0.2-0.4c0-0.2,0-0.4-0.1-0.5c-0.1-0.1-0.2-0.2-0.3-0.3s-0.3-0.1-0.4-0.1c-0.1,0-0.3,0-0.4,0
		c-0.4,0-0.7,0.1-1,0.2c-0.3,0.1-0.4,0.4-0.4,0.8h-0.9c0-0.3,0.1-0.6,0.2-0.9c0.1-0.2,0.3-0.4,0.5-0.6c0.2-0.1,0.5-0.3,0.7-0.3
		c0.3-0.1,0.6-0.1,0.9-0.1c0.3,0,0.5,0,0.8,0.1s0.5,0.1,0.7,0.2c0.2,0.1,0.4,0.3,0.5,0.5c0.1,0.2,0.2,0.5,0.2,0.8v2.9
		c0,0.2,0,0.4,0,0.5c0,0.1,0.1,0.2,0.3,0.2c0.1,0,0.2,0,0.3-0.1v0.7C107.9,338.9,107.7,339,107.4,339z M106.2,336.2
		c-0.2,0-0.4,0.1-0.6,0.1c-0.2,0-0.4,0.1-0.6,0.1c-0.2,0-0.4,0.1-0.6,0.2c-0.2,0.1-0.3,0.2-0.4,0.3s-0.2,0.3-0.2,0.5
		c0,0.2,0,0.3,0.1,0.4c0.1,0.1,0.1,0.2,0.2,0.3c0.1,0.1,0.2,0.1,0.3,0.1c0.1,0,0.3,0,0.4,0c0.3,0,0.6,0,0.8-0.1
		c0.2-0.1,0.4-0.2,0.5-0.3c0.1-0.1,0.2-0.3,0.3-0.4c0.1-0.1,0.1-0.3,0.1-0.4V336C106.5,336.1,106.4,336.1,106.2,336.2z"/>
	<path style="fill:#666666;" d="M109.9,331.2v7.7H109v-7.7H109.9z"/>
	<path style="fill:#666666;" d="M111.4,332.3v-1.1h0.9v1.1H111.4z M112.3,333.3v5.6h-0.9v-5.6H112.3z"/>
	<path style="fill:#666666;" d="M114.7,331.2v2.9h0c0.2-0.3,0.4-0.5,0.7-0.7c0.3-0.1,0.7-0.2,1.1-0.2c0.4,0,0.8,0.1,1.1,0.2
		c0.3,0.2,0.6,0.4,0.8,0.6c0.2,0.3,0.4,0.6,0.5,0.9c0.1,0.4,0.2,0.7,0.2,1.1s-0.1,0.8-0.2,1.1c-0.1,0.4-0.3,0.7-0.5,0.9
		c-0.2,0.3-0.5,0.5-0.8,0.6c-0.3,0.2-0.7,0.2-1.1,0.2c-0.1,0-0.3,0-0.5,0s-0.3-0.1-0.5-0.1c-0.2-0.1-0.3-0.2-0.5-0.3
		c-0.1-0.1-0.3-0.2-0.4-0.4h0v0.7h-0.9v-7.7H114.7z M118,335.3c-0.1-0.2-0.2-0.5-0.3-0.7s-0.3-0.3-0.5-0.5s-0.5-0.2-0.8-0.2
		c-0.3,0-0.6,0.1-0.8,0.2c-0.2,0.1-0.4,0.3-0.5,0.5c-0.1,0.2-0.2,0.4-0.3,0.7c-0.1,0.3-0.1,0.5-0.1,0.8c0,0.3,0,0.5,0.1,0.8
		c0.1,0.3,0.2,0.5,0.3,0.7c0.1,0.2,0.3,0.4,0.5,0.5c0.2,0.1,0.5,0.2,0.8,0.2c0.3,0,0.6-0.1,0.8-0.2c0.2-0.1,0.4-0.3,0.5-0.5
		c0.1-0.2,0.2-0.4,0.3-0.7c0.1-0.3,0.1-0.5,0.1-0.8C118.1,335.8,118.1,335.5,118,335.3z"/>
	<path style="fill:#666666;" d="M124.4,339c-0.2,0-0.4-0.1-0.6-0.2c-0.1-0.1-0.2-0.4-0.2-0.7c-0.3,0.3-0.5,0.5-0.9,0.7
		s-0.7,0.2-1.1,0.2c-0.3,0-0.5,0-0.7-0.1c-0.2-0.1-0.4-0.1-0.6-0.3c-0.2-0.1-0.3-0.3-0.4-0.5c-0.1-0.2-0.1-0.4-0.1-0.7
		c0-0.3,0.1-0.6,0.2-0.8s0.2-0.4,0.4-0.5c0.2-0.1,0.4-0.2,0.6-0.3s0.5-0.1,0.7-0.2c0.3-0.1,0.5-0.1,0.7-0.1c0.2,0,0.4-0.1,0.6-0.1
		s0.3-0.1,0.4-0.2s0.2-0.2,0.2-0.4c0-0.2,0-0.4-0.1-0.5c-0.1-0.1-0.2-0.2-0.3-0.3s-0.3-0.1-0.4-0.1c-0.1,0-0.3,0-0.4,0
		c-0.4,0-0.7,0.1-1,0.2c-0.3,0.1-0.4,0.4-0.4,0.8h-0.9c0-0.3,0.1-0.6,0.2-0.9c0.1-0.2,0.3-0.4,0.5-0.6c0.2-0.1,0.5-0.3,0.7-0.3
		c0.3-0.1,0.6-0.1,0.9-0.1c0.3,0,0.5,0,0.8,0.1s0.5,0.1,0.7,0.2c0.2,0.1,0.4,0.3,0.5,0.5c0.1,0.2,0.2,0.5,0.2,0.8v2.9
		c0,0.2,0,0.4,0,0.5c0,0.1,0.1,0.2,0.3,0.2c0.1,0,0.2,0,0.3-0.1v0.7C124.9,338.9,124.7,339,124.4,339z M123.2,336.2
		c-0.2,0-0.4,0.1-0.6,0.1c-0.2,0-0.4,0.1-0.6,0.1c-0.2,0-0.4,0.1-0.6,0.2c-0.2,0.1-0.3,0.2-0.4,0.3s-0.2,0.3-0.2,0.5
		c0,0.2,0,0.3,0.1,0.4c0.1,0.1,0.1,0.2,0.2,0.3c0.1,0.1,0.2,0.1,0.3,0.1c0.1,0,0.3,0,0.4,0c0.3,0,0.6,0,0.8-0.1
		c0.2-0.1,0.4-0.2,0.5-0.3c0.1-0.1,0.2-0.3,0.3-0.4c0.1-0.1,0.1-0.3,0.1-0.4V336C123.5,336.1,123.3,336.1,123.2,336.2z"/>
	<path style="fill:#666666;" d="M126.9,331.2v2.9h0c0.2-0.3,0.4-0.5,0.7-0.7c0.3-0.1,0.7-0.2,1.1-0.2c0.4,0,0.8,0.1,1.1,0.2
		c0.3,0.2,0.6,0.4,0.8,0.6c0.2,0.3,0.4,0.6,0.5,0.9c0.1,0.4,0.2,0.7,0.2,1.1s-0.1,0.8-0.2,1.1c-0.1,0.4-0.3,0.7-0.5,0.9
		c-0.2,0.3-0.5,0.5-0.8,0.6c-0.3,0.2-0.7,0.2-1.1,0.2c-0.1,0-0.3,0-0.5,0s-0.3-0.1-0.5-0.1c-0.2-0.1-0.3-0.2-0.5-0.3
		c-0.1-0.1-0.3-0.2-0.4-0.4h0v0.7H126v-7.7H126.9z M130.2,335.3c-0.1-0.2-0.2-0.5-0.3-0.7s-0.3-0.3-0.5-0.5s-0.5-0.2-0.8-0.2
		c-0.3,0-0.6,0.1-0.8,0.2c-0.2,0.1-0.4,0.3-0.5,0.5c-0.1,0.2-0.2,0.4-0.3,0.7c-0.1,0.3-0.1,0.5-0.1,0.8c0,0.3,0,0.5,0.1,0.8
		c0.1,0.3,0.2,0.5,0.3,0.7c0.1,0.2,0.3,0.4,0.5,0.5c0.2,0.1,0.5,0.2,0.8,0.2c0.3,0,0.6-0.1,0.8-0.2c0.2-0.1,0.4-0.3,0.5-0.5
		c0.1-0.2,0.2-0.4,0.3-0.7c0.1-0.3,0.1-0.5,0.1-0.8C130.3,335.8,130.3,335.5,130.2,335.3z"/>
	<path style="fill:#666666;" d="M136.6,339c-0.2,0-0.4-0.1-0.6-0.2c-0.1-0.1-0.2-0.4-0.2-0.7c-0.3,0.3-0.5,0.5-0.9,0.7
		s-0.7,0.2-1.1,0.2c-0.3,0-0.5,0-0.7-0.1c-0.2-0.1-0.4-0.1-0.6-0.3c-0.2-0.1-0.3-0.3-0.4-0.5c-0.1-0.2-0.1-0.4-0.1-0.7
		c0-0.3,0.1-0.6,0.2-0.8s0.2-0.4,0.4-0.5c0.2-0.1,0.4-0.2,0.6-0.3s0.5-0.1,0.7-0.2c0.3-0.1,0.5-0.1,0.7-0.1c0.2,0,0.4-0.1,0.6-0.1
		s0.3-0.1,0.4-0.2s0.2-0.2,0.2-0.4c0-0.2,0-0.4-0.1-0.5c-0.1-0.1-0.2-0.2-0.3-0.3s-0.3-0.1-0.4-0.1c-0.1,0-0.3,0-0.4,0
		c-0.4,0-0.7,0.1-1,0.2c-0.3,0.1-0.4,0.4-0.4,0.8h-0.9c0-0.3,0.1-0.6,0.2-0.9c0.1-0.2,0.3-0.4,0.5-0.6c0.2-0.1,0.5-0.3,0.7-0.3
		c0.3-0.1,0.6-0.1,0.9-0.1c0.3,0,0.5,0,0.8,0.1s0.5,0.1,0.7,0.2c0.2,0.1,0.4,0.3,0.5,0.5c0.1,0.2,0.2,0.5,0.2,0.8v2.9
		c0,0.2,0,0.4,0,0.5c0,0.1,0.1,0.2,0.3,0.2c0.1,0,0.2,0,0.3-0.1v0.7C137.2,338.9,136.9,339,136.6,339z M135.4,336.2
		c-0.2,0-0.4,0.1-0.6,0.1c-0.2,0-0.4,0.1-0.6,0.1c-0.2,0-0.4,0.1-0.6,0.2c-0.2,0.1-0.3,0.2-0.4,0.3s-0.2,0.3-0.2,0.5
		c0,0.2,0,0.3,0.1,0.4c0.1,0.1,0.1,0.2,0.2,0.3c0.1,0.1,0.2,0.1,0.3,0.1c0.1,0,0.3,0,0.4,0c0.3,0,0.6,0,0.8-0.1
		c0.2-0.1,0.4-0.2,0.5-0.3c0.1-0.1,0.2-0.3,0.3-0.4c0.1-0.1,0.1-0.3,0.1-0.4V336C135.7,336.1,135.6,336.1,135.4,336.2z"/>
	<path style="fill:#666666;" d="M141.1,335.4v0.9H138v-0.9H141.1z"/>
	<path style="fill:#666666;" d="M142.4,332.3v-1.1h0.9v1.1H142.4z M143.3,333.3v5.6h-0.9v-5.6H143.3z"/>
	<path style="fill:#666666;" d="M145.6,333.3v0.9h0c0.4-0.7,1-1,1.8-1c0.4,0,0.7,0.1,0.9,0.2c0.2,0.1,0.4,0.2,0.6,0.4
		c0.2,0.2,0.3,0.4,0.3,0.6c0.1,0.2,0.1,0.5,0.1,0.8v3.7h-0.9v-3.8c0-0.3-0.1-0.6-0.3-0.8c-0.2-0.2-0.5-0.3-0.8-0.3
		c-0.3,0-0.5,0-0.7,0.1c-0.2,0.1-0.4,0.2-0.5,0.4s-0.2,0.3-0.3,0.6s-0.1,0.4-0.1,0.7v3.2h-0.9v-5.6H145.6z"/>
	<path style="fill:#666666;" d="M154.1,334.3c-0.2-0.2-0.5-0.3-0.9-0.3c-0.3,0-0.6,0.1-0.8,0.2c-0.2,0.1-0.4,0.3-0.5,0.5
		c-0.1,0.2-0.2,0.4-0.3,0.7c-0.1,0.3-0.1,0.5-0.1,0.8c0,0.3,0,0.5,0.1,0.8c0.1,0.2,0.2,0.5,0.3,0.7c0.1,0.2,0.3,0.3,0.5,0.5
		s0.5,0.2,0.7,0.2c0.5,0,0.8-0.1,1.1-0.4c0.3-0.2,0.4-0.6,0.5-1h0.9c-0.1,0.7-0.4,1.2-0.8,1.6c-0.4,0.4-1,0.6-1.7,0.6
		c-0.4,0-0.8-0.1-1.1-0.2c-0.3-0.1-0.6-0.3-0.8-0.6s-0.4-0.6-0.5-0.9c-0.1-0.3-0.2-0.7-0.2-1.2c0-0.4,0.1-0.8,0.2-1.2
		c0.1-0.4,0.3-0.7,0.5-1s0.5-0.5,0.8-0.6s0.7-0.2,1.2-0.2c0.3,0,0.6,0,0.9,0.1c0.3,0.1,0.5,0.2,0.7,0.4c0.2,0.2,0.4,0.4,0.5,0.6
		s0.2,0.5,0.3,0.9h-1C154.5,334.7,154.3,334.5,154.1,334.3z"/>
	<path style="fill:#666666;" d="M158,337.7v1.2h-1.2v-1.2H158z"/>
	<path style="fill:#666666;" d="M162.9,334.3c-0.2-0.2-0.5-0.3-0.9-0.3c-0.3,0-0.6,0.1-0.8,0.2c-0.2,0.1-0.4,0.3-0.5,0.5
		c-0.1,0.2-0.2,0.4-0.3,0.7c-0.1,0.3-0.1,0.5-0.1,0.8c0,0.3,0,0.5,0.1,0.8c0.1,0.2,0.2,0.5,0.3,0.7c0.1,0.2,0.3,0.3,0.5,0.5
		s0.5,0.2,0.7,0.2c0.5,0,0.8-0.1,1.1-0.4c0.3-0.2,0.4-0.6,0.5-1h0.9c-0.1,0.7-0.4,1.2-0.8,1.6c-0.4,0.4-1,0.6-1.7,0.6
		c-0.4,0-0.8-0.1-1.1-0.2c-0.3-0.1-0.6-0.3-0.8-0.6s-0.4-0.6-0.5-0.9c-0.1-0.3-0.2-0.7-0.2-1.2c0-0.4,0.1-0.8,0.2-1.2
		c0.1-0.4,0.3-0.7,0.5-1s0.5-0.5,0.8-0.6s0.7-0.2,1.2-0.2c0.3,0,0.6,0,0.9,0.1c0.3,0.1,0.5,0.2,0.7,0.4c0.2,0.2,0.4,0.4,0.5,0.6
		s0.2,0.5,0.3,0.9h-1C163.3,334.7,163.1,334.5,162.9,334.3z"/>
	<path style="fill:#666666;" d="M165.2,334.9c0.1-0.4,0.3-0.7,0.5-0.9s0.5-0.5,0.9-0.6c0.3-0.2,0.7-0.2,1.2-0.2
		c0.4,0,0.8,0.1,1.2,0.2s0.6,0.4,0.8,0.6s0.4,0.6,0.5,0.9s0.2,0.7,0.2,1.1c0,0.4-0.1,0.8-0.2,1.1c-0.1,0.4-0.3,0.7-0.5,0.9
		c-0.2,0.3-0.5,0.5-0.8,0.6s-0.7,0.2-1.2,0.2c-0.4,0-0.8-0.1-1.2-0.2c-0.3-0.1-0.6-0.4-0.9-0.6c-0.2-0.3-0.4-0.6-0.5-0.9
		c-0.1-0.4-0.2-0.7-0.2-1.1C165.1,335.7,165.1,335.3,165.2,334.9z M166.2,337c0.1,0.3,0.2,0.5,0.4,0.7c0.2,0.2,0.3,0.3,0.6,0.4
		c0.2,0.1,0.4,0.1,0.7,0.1s0.5,0,0.7-0.1c0.2-0.1,0.4-0.2,0.6-0.4c0.2-0.2,0.3-0.4,0.4-0.7c0.1-0.3,0.1-0.6,0.1-0.9
		c0-0.3,0-0.6-0.1-0.9c-0.1-0.3-0.2-0.5-0.4-0.7c-0.2-0.2-0.3-0.3-0.6-0.4c-0.2-0.1-0.4-0.1-0.7-0.1s-0.5,0-0.7,0.1
		c-0.2,0.1-0.4,0.2-0.6,0.4c-0.2,0.2-0.3,0.4-0.4,0.7c-0.1,0.3-0.1,0.6-0.1,0.9C166,336.4,166.1,336.7,166.2,337z"/>
	<path style="fill:#666666;" d="M172.4,333.3v0.8h0c0.4-0.6,1-1,1.8-1c0.3,0,0.7,0.1,0.9,0.2c0.3,0.1,0.5,0.4,0.6,0.7
		c0.2-0.3,0.4-0.5,0.7-0.7c0.3-0.2,0.6-0.2,1-0.2c0.3,0,0.5,0,0.8,0.1c0.2,0.1,0.4,0.2,0.6,0.3c0.2,0.1,0.3,0.3,0.4,0.5
		c0.1,0.2,0.1,0.5,0.1,0.7v4.1h-0.9v-3.7c0-0.2,0-0.3,0-0.5c0-0.2-0.1-0.3-0.2-0.4c-0.1-0.1-0.2-0.2-0.3-0.3
		c-0.1-0.1-0.3-0.1-0.5-0.1c-0.5,0-0.8,0.1-1.1,0.4c-0.3,0.3-0.4,0.6-0.4,1v3.5H175v-3.7c0-0.2,0-0.3,0-0.5c0-0.2-0.1-0.3-0.2-0.4
		c-0.1-0.1-0.2-0.2-0.3-0.3c-0.1-0.1-0.3-0.1-0.5-0.1c-0.3,0-0.5,0.1-0.7,0.2c-0.2,0.1-0.3,0.2-0.5,0.4c-0.1,0.2-0.2,0.3-0.3,0.5
		c-0.1,0.2-0.1,0.3-0.1,0.4v3.5h-0.9v-5.6H172.4z"/>
</g>
<g>
	<path style="fill:#666666;" d="M21.3,318.2c1-1.5,1.7-3.1,2.2-5l0.8,0.3c0,0.1-0.1,0.2-0.1,0.3c-0.2,0.5-0.4,1.2-0.8,1.9v7.5h-0.8
		v-5.8c-0.3,0.7-0.7,1.3-1.1,1.7C21.6,318.9,21.5,318.6,21.3,318.2z M25.1,320.8l0.4-0.6c0.9,0.5,1.6,0.9,2.2,1.3l2-1.9h-4.3v-0.7
		c0.1-0.4,0.3-0.8,0.4-1.3h-1.6v-0.7H26c0.1-0.5,0.3-0.9,0.4-1.4h-1.7v-0.7h1.9c0.1-0.3,0.1-0.6,0.2-1.1c0-0.2,0.1-0.3,0.1-0.4h0.9
		c0,0.1-0.1,0.4-0.2,0.7c-0.1,0.3-0.1,0.5-0.2,0.7h3.6v0.7h-3.8c-0.1,0.3-0.1,0.6-0.3,1.1c0,0.1-0.1,0.2-0.1,0.3h4.6v0.7h-4.8
		c-0.1,0.4-0.3,0.8-0.4,1.3h4.6v0.8l-2.3,2.3c0.5,0.2,0.9,0.5,1.2,0.7l-0.5,0.7c-0.7-0.5-1.8-1.2-3.5-2.1
		C25.5,321,25.3,320.9,25.1,320.8z"/>
	<path style="fill:#666666;" d="M32.2,320.6h1.5v-5.2h3.1v-0.8h-4.4V314h4.4v-0.8h0.8v0.8H42v0.6h-4.4v0.8h3.1v5.2h1.5v0.7h-10
		V320.6z M35.9,321.3l0.5,0.6c-0.2,0.1-0.5,0.2-0.8,0.3c-1.3,0.5-2.2,0.9-2.7,1c-0.2-0.3-0.3-0.6-0.4-0.7
		C33.6,322.2,34.8,321.8,35.9,321.3z M34.5,316v0.7H40V316H34.5z M34.5,317.3v0.7H40v-0.7H34.5z M34.5,318.6v0.7H40v-0.7H34.5z
		 M34.5,319.9v0.7H40v-0.7H34.5z M38.1,322l0.4-0.6c1.8,0.5,3,0.9,3.6,1.1l-0.4,0.7C40.6,322.8,39.4,322.4,38.1,322z"/>
	<path style="fill:#666666;" d="M46,318.8v1.5h-1.4v-1.5H46z M46,321.9v1.4h-1.4v-1.4H46z"/>
	<path style="fill:#666666;" d="M53.9,317.4c0-0.3,0-0.6,0.1-0.9c0.1-0.3,0.1-0.6,0.2-0.8c0.1-0.3,0.3-0.5,0.4-0.7s0.4-0.3,0.7-0.5
		c0.3-0.1,0.6-0.2,1-0.2c0.4,0,0.7,0.1,1,0.2c0.3,0.1,0.5,0.3,0.7,0.5s0.3,0.4,0.4,0.7c0.1,0.3,0.2,0.5,0.2,0.8
		c0.1,0.3,0.1,0.6,0.1,0.9c0,0.3,0,0.6,0,0.9s0,0.6,0,0.9c0,0.3,0,0.6-0.1,0.9c-0.1,0.3-0.1,0.6-0.2,0.8c-0.1,0.3-0.3,0.5-0.4,0.7
		c-0.2,0.2-0.4,0.3-0.7,0.5c-0.3,0.1-0.6,0.2-1,0.2c-0.4,0-0.7-0.1-1-0.2c-0.3-0.1-0.5-0.3-0.7-0.5c-0.2-0.2-0.3-0.4-0.4-0.7
		c-0.1-0.3-0.2-0.5-0.2-0.8c-0.1-0.3-0.1-0.6-0.1-0.9c0-0.3,0-0.6,0-0.9S53.9,317.7,53.9,317.4z M54.9,319.2c0,0.4,0.1,0.7,0.2,1
		c0.1,0.3,0.3,0.6,0.5,0.8c0.2,0.2,0.5,0.3,0.9,0.3c0.4,0,0.7-0.1,0.9-0.3c0.2-0.2,0.4-0.5,0.5-0.8c0.1-0.3,0.2-0.6,0.2-1
		c0-0.4,0-0.7,0-1c0-0.2,0-0.4,0-0.6c0-0.2,0-0.5-0.1-0.7c0-0.2-0.1-0.4-0.1-0.7c-0.1-0.2-0.2-0.4-0.3-0.6s-0.3-0.3-0.4-0.4
		c-0.2-0.1-0.4-0.2-0.7-0.2c-0.3,0-0.5,0.1-0.7,0.2c-0.2,0.1-0.3,0.2-0.4,0.4s-0.2,0.4-0.3,0.6c-0.1,0.2-0.1,0.4-0.1,0.7
		c0,0.2-0.1,0.5-0.1,0.7c0,0.2,0,0.4,0,0.6C54.8,318.5,54.8,318.8,54.9,319.2z"/>
	<path style="fill:#666666;" d="M61.4,315.3l-0.4,2.2l0,0c0.2-0.2,0.4-0.3,0.6-0.4c0.3-0.1,0.5-0.1,0.8-0.1c0.3,0,0.7,0.1,1,0.2
		c0.3,0.1,0.6,0.3,0.8,0.5c0.2,0.2,0.4,0.5,0.5,0.8s0.2,0.7,0.2,1.1c0,0.3-0.1,0.6-0.2,0.9c-0.1,0.3-0.3,0.6-0.5,0.8
		c-0.2,0.2-0.5,0.4-0.8,0.6c-0.3,0.1-0.7,0.2-1.2,0.2c-0.3,0-0.6,0-0.9-0.1c-0.3-0.1-0.5-0.2-0.8-0.4s-0.4-0.4-0.5-0.7
		c-0.1-0.3-0.2-0.6-0.2-0.9h0.9c0,0.2,0.1,0.4,0.1,0.5c0.1,0.2,0.2,0.3,0.3,0.4s0.3,0.2,0.5,0.3c0.2,0.1,0.4,0.1,0.6,0.1
		c0.2,0,0.4,0,0.6-0.1s0.4-0.2,0.5-0.3c0.1-0.2,0.3-0.3,0.4-0.6c0.1-0.2,0.1-0.5,0.1-0.8c0-0.3,0-0.5-0.1-0.7
		c-0.1-0.2-0.2-0.4-0.4-0.6s-0.3-0.3-0.5-0.4c-0.2-0.1-0.4-0.1-0.7-0.1c-0.3,0-0.6,0.1-0.8,0.2c-0.2,0.1-0.4,0.3-0.6,0.5l-0.8,0
		l0.7-4h3.8v0.8H61.4z"/>
	<path style="fill:#666666;" d="M69.8,316.6c-0.3,0.5-0.6,1.1-0.9,1.7c-0.3,0.6-0.5,1.2-0.6,1.8c-0.2,0.6-0.3,1.2-0.3,1.8h-1
		c0-0.6,0.1-1.3,0.3-1.9c0.2-0.6,0.4-1.2,0.7-1.8c0.3-0.6,0.6-1.1,0.9-1.6c0.3-0.5,0.7-1,1.1-1.4h-4v-0.9h5v0.8
		C70.5,315.6,70.2,316.1,69.8,316.6z"/>
	<path style="fill:#666666;" d="M74.4,322v-5.5h-2v-0.7c0.3,0,0.5,0,0.8-0.1c0.2,0,0.5-0.1,0.7-0.2c0.2-0.1,0.4-0.3,0.5-0.4
		s0.2-0.4,0.3-0.7h0.7v7.7H74.4z"/>
	<path style="fill:#666666;" d="M81.3,315.5c0.1-0.2,0.3-0.4,0.5-0.6c0.2-0.2,0.4-0.3,0.7-0.4c0.3-0.1,0.6-0.1,0.8-0.1
		c0.4,0,0.8,0.1,1.1,0.2s0.5,0.3,0.7,0.4s0.3,0.4,0.4,0.6c0.1,0.2,0.1,0.5,0.1,0.7c0,0.3-0.1,0.7-0.3,0.9c-0.2,0.3-0.4,0.5-0.8,0.6
		c0.5,0.1,0.8,0.4,1,0.7c0.2,0.3,0.3,0.7,0.3,1.2c0,0.4-0.1,0.7-0.2,1c-0.1,0.3-0.3,0.5-0.5,0.7c-0.2,0.2-0.5,0.3-0.8,0.4
		c-0.3,0.1-0.6,0.2-1,0.2c-0.4,0-0.7,0-1-0.1c-0.3-0.1-0.6-0.2-0.8-0.4c-0.2-0.2-0.4-0.4-0.6-0.7c-0.1-0.3-0.2-0.6-0.2-1
		c0-0.5,0.1-0.8,0.3-1.2s0.6-0.6,1-0.7c-0.3-0.1-0.6-0.3-0.8-0.6c-0.2-0.3-0.3-0.6-0.3-1C81.1,316,81.2,315.7,81.3,315.5z
		 M82.3,320.9c0.3,0.3,0.7,0.4,1.2,0.4c0.2,0,0.4,0,0.6-0.1c0.2-0.1,0.4-0.2,0.5-0.3c0.1-0.1,0.2-0.3,0.3-0.5
		c0.1-0.2,0.1-0.4,0.1-0.6c0-0.2,0-0.4-0.1-0.6s-0.2-0.3-0.3-0.5c-0.1-0.1-0.3-0.2-0.5-0.3c-0.2-0.1-0.4-0.1-0.6-0.1
		c-0.2,0-0.4,0-0.6,0.1c-0.2,0.1-0.4,0.2-0.5,0.3c-0.1,0.1-0.3,0.3-0.3,0.5c-0.1,0.2-0.1,0.4-0.1,0.6
		C81.8,320.3,82,320.7,82.3,320.9z M82.2,316.9c0.1,0.2,0.2,0.3,0.3,0.4c0.1,0.1,0.3,0.2,0.4,0.2c0.2,0.1,0.3,0.1,0.5,0.1
		c0.4,0,0.7-0.1,0.9-0.3c0.2-0.2,0.4-0.5,0.4-0.9s-0.1-0.7-0.4-0.9c-0.2-0.2-0.5-0.3-0.9-0.3c-0.2,0-0.4,0-0.5,0.1
		c-0.2,0.1-0.3,0.1-0.4,0.2c-0.1,0.1-0.2,0.2-0.3,0.4c-0.1,0.1-0.1,0.3-0.1,0.5C82.1,316.5,82.1,316.7,82.2,316.9z"/>
	<path style="fill:#666666;" d="M87.3,315.5c0.1-0.2,0.3-0.4,0.5-0.6c0.2-0.2,0.4-0.3,0.7-0.4c0.3-0.1,0.6-0.1,0.8-0.1
		c0.4,0,0.8,0.1,1.1,0.2s0.5,0.3,0.7,0.4s0.3,0.4,0.4,0.6c0.1,0.2,0.1,0.5,0.1,0.7c0,0.3-0.1,0.7-0.3,0.9c-0.2,0.3-0.4,0.5-0.8,0.6
		c0.5,0.1,0.8,0.4,1,0.7c0.2,0.3,0.3,0.7,0.3,1.2c0,0.4-0.1,0.7-0.2,1c-0.1,0.3-0.3,0.5-0.5,0.7c-0.2,0.2-0.5,0.3-0.8,0.4
		c-0.3,0.1-0.6,0.2-1,0.2c-0.4,0-0.7,0-1-0.1c-0.3-0.1-0.6-0.2-0.8-0.4c-0.2-0.2-0.4-0.4-0.6-0.7c-0.1-0.3-0.2-0.6-0.2-1
		c0-0.5,0.1-0.8,0.3-1.2s0.6-0.6,1-0.7c-0.3-0.1-0.6-0.3-0.8-0.6c-0.2-0.3-0.3-0.6-0.3-1C87.1,316,87.2,315.7,87.3,315.5z
		 M88.3,320.9c0.3,0.3,0.7,0.4,1.2,0.4c0.2,0,0.4,0,0.6-0.1c0.2-0.1,0.4-0.2,0.5-0.3c0.1-0.1,0.2-0.3,0.3-0.5
		c0.1-0.2,0.1-0.4,0.1-0.6c0-0.2,0-0.4-0.1-0.6s-0.2-0.3-0.3-0.5c-0.1-0.1-0.3-0.2-0.5-0.3c-0.2-0.1-0.4-0.1-0.6-0.1
		c-0.2,0-0.4,0-0.6,0.1c-0.2,0.1-0.4,0.2-0.5,0.3c-0.1,0.1-0.3,0.3-0.3,0.5c-0.1,0.2-0.1,0.4-0.1,0.6
		C87.8,320.3,88,320.7,88.3,320.9z M88.2,316.9c0.1,0.2,0.2,0.3,0.3,0.4c0.1,0.1,0.3,0.2,0.4,0.2c0.2,0.1,0.3,0.1,0.5,0.1
		c0.4,0,0.7-0.1,0.9-0.3c0.2-0.2,0.4-0.5,0.4-0.9s-0.1-0.7-0.4-0.9c-0.2-0.2-0.5-0.3-0.9-0.3c-0.2,0-0.4,0-0.5,0.1
		c-0.2,0.1-0.3,0.1-0.4,0.2c-0.1,0.1-0.2,0.2-0.3,0.4c-0.1,0.1-0.1,0.3-0.1,0.5C88.1,316.5,88.1,316.7,88.2,316.9z"/>
	<path style="fill:#666666;" d="M95.4,322v-5.5h-2v-0.7c0.3,0,0.5,0,0.8-0.1c0.2,0,0.5-0.1,0.7-0.2c0.2-0.1,0.4-0.3,0.5-0.4
		s0.2-0.4,0.3-0.7h0.7v7.7H95.4z"/>
	<path style="fill:#666666;" d="M100.4,315.3l-0.4,2.2l0,0c0.2-0.2,0.4-0.3,0.6-0.4c0.3-0.1,0.5-0.1,0.8-0.1c0.3,0,0.7,0.1,1,0.2
		c0.3,0.1,0.6,0.3,0.8,0.5c0.2,0.2,0.4,0.5,0.5,0.8s0.2,0.7,0.2,1.1c0,0.3-0.1,0.6-0.2,0.9c-0.1,0.3-0.3,0.6-0.5,0.8
		c-0.2,0.2-0.5,0.4-0.8,0.6c-0.3,0.1-0.7,0.2-1.2,0.2c-0.3,0-0.6,0-0.9-0.1c-0.3-0.1-0.5-0.2-0.8-0.4s-0.4-0.4-0.5-0.7
		c-0.1-0.3-0.2-0.6-0.2-0.9h0.9c0,0.2,0.1,0.4,0.1,0.5c0.1,0.2,0.2,0.3,0.3,0.4s0.3,0.2,0.5,0.3c0.2,0.1,0.4,0.1,0.6,0.1
		c0.2,0,0.4,0,0.6-0.1s0.4-0.2,0.5-0.3c0.1-0.2,0.3-0.3,0.4-0.6c0.1-0.2,0.1-0.5,0.1-0.8c0-0.3,0-0.5-0.1-0.7
		c-0.1-0.2-0.2-0.4-0.4-0.6s-0.3-0.3-0.5-0.4c-0.2-0.1-0.4-0.1-0.7-0.1c-0.3,0-0.6,0.1-0.8,0.2c-0.2,0.1-0.4,0.3-0.6,0.5l-0.8,0
		l0.7-4h3.8v0.8H100.4z"/>
	<path style="fill:#666666;" d="M109.4,315.3l-0.4,2.2l0,0c0.2-0.2,0.4-0.3,0.6-0.4c0.3-0.1,0.5-0.1,0.8-0.1c0.3,0,0.7,0.1,1,0.2
		c0.3,0.1,0.6,0.3,0.8,0.5c0.2,0.2,0.4,0.5,0.5,0.8s0.2,0.7,0.2,1.1c0,0.3-0.1,0.6-0.2,0.9c-0.1,0.3-0.3,0.6-0.5,0.8
		c-0.2,0.2-0.5,0.4-0.8,0.6c-0.3,0.1-0.7,0.2-1.2,0.2c-0.3,0-0.6,0-0.9-0.1c-0.3-0.1-0.5-0.2-0.8-0.4s-0.4-0.4-0.5-0.7
		c-0.1-0.3-0.2-0.6-0.2-0.9h0.9c0,0.2,0.1,0.4,0.1,0.5c0.1,0.2,0.2,0.3,0.3,0.4s0.3,0.2,0.5,0.3c0.2,0.1,0.4,0.1,0.6,0.1
		c0.2,0,0.4,0,0.6-0.1s0.4-0.2,0.5-0.3c0.1-0.2,0.3-0.3,0.4-0.6c0.1-0.2,0.1-0.5,0.1-0.8c0-0.3,0-0.5-0.1-0.7
		c-0.1-0.2-0.2-0.4-0.4-0.6s-0.3-0.3-0.5-0.4c-0.2-0.1-0.4-0.1-0.7-0.1c-0.3,0-0.6,0.1-0.8,0.2c-0.2,0.1-0.4,0.3-0.6,0.5l-0.8,0
		l0.7-4h3.8v0.8H109.4z"/>
	<path style="fill:#666666;" d="M116.4,322v-5.5h-2v-0.7c0.3,0,0.5,0,0.8-0.1c0.2,0,0.5-0.1,0.7-0.2c0.2-0.1,0.4-0.3,0.5-0.4
		s0.2-0.4,0.3-0.7h0.7v7.7H116.4z"/>
	<path style="fill:#666666;" d="M120.4,315.5c0.1-0.2,0.3-0.4,0.5-0.6c0.2-0.2,0.4-0.3,0.7-0.4c0.3-0.1,0.6-0.1,0.8-0.1
		c0.4,0,0.8,0.1,1.1,0.2s0.5,0.3,0.7,0.4s0.3,0.4,0.4,0.6c0.1,0.2,0.1,0.5,0.1,0.7c0,0.3-0.1,0.7-0.3,0.9c-0.2,0.3-0.4,0.5-0.8,0.6
		c0.5,0.1,0.8,0.4,1,0.7c0.2,0.3,0.3,0.7,0.3,1.2c0,0.4-0.1,0.7-0.2,1c-0.1,0.3-0.3,0.5-0.5,0.7c-0.2,0.2-0.5,0.3-0.8,0.4
		c-0.3,0.1-0.6,0.2-1,0.2c-0.4,0-0.7,0-1-0.1c-0.3-0.1-0.6-0.2-0.8-0.4c-0.2-0.2-0.4-0.4-0.6-0.7c-0.1-0.3-0.2-0.6-0.2-1
		c0-0.5,0.1-0.8,0.3-1.2s0.6-0.6,1-0.7c-0.3-0.1-0.6-0.3-0.8-0.6c-0.2-0.3-0.3-0.6-0.3-1C120.2,316,120.2,315.7,120.4,315.5z
		 M121.3,320.9c0.3,0.3,0.7,0.4,1.2,0.4c0.2,0,0.4,0,0.6-0.1c0.2-0.1,0.4-0.2,0.5-0.3c0.1-0.1,0.2-0.3,0.3-0.5
		c0.1-0.2,0.1-0.4,0.1-0.6c0-0.2,0-0.4-0.1-0.6s-0.2-0.3-0.3-0.5c-0.1-0.1-0.3-0.2-0.5-0.3c-0.2-0.1-0.4-0.1-0.6-0.1
		c-0.2,0-0.4,0-0.6,0.1c-0.2,0.1-0.4,0.2-0.5,0.3c-0.1,0.1-0.3,0.3-0.3,0.5c-0.1,0.2-0.1,0.4-0.1,0.6
		C120.9,320.3,121,320.7,121.3,320.9z M121.2,316.9c0.1,0.2,0.2,0.3,0.3,0.4c0.1,0.1,0.3,0.2,0.4,0.2c0.2,0.1,0.3,0.1,0.5,0.1
		c0.4,0,0.7-0.1,0.9-0.3c0.2-0.2,0.4-0.5,0.4-0.9s-0.1-0.7-0.4-0.9c-0.2-0.2-0.5-0.3-0.9-0.3c-0.2,0-0.4,0-0.5,0.1
		c-0.2,0.1-0.3,0.1-0.4,0.2c-0.1,0.1-0.2,0.2-0.3,0.4c-0.1,0.1-0.1,0.3-0.1,0.5C121.1,316.5,121.2,316.7,121.2,316.9z"/>
	<path style="fill:#666666;" d="M126.4,315.5c0.1-0.2,0.3-0.4,0.5-0.6c0.2-0.2,0.4-0.3,0.7-0.4c0.3-0.1,0.6-0.1,0.8-0.1
		c0.4,0,0.8,0.1,1.1,0.2s0.5,0.3,0.7,0.4s0.3,0.4,0.4,0.6c0.1,0.2,0.1,0.5,0.1,0.7c0,0.3-0.1,0.7-0.3,0.9c-0.2,0.3-0.4,0.5-0.8,0.6
		c0.5,0.1,0.8,0.4,1,0.7c0.2,0.3,0.3,0.7,0.3,1.2c0,0.4-0.1,0.7-0.2,1c-0.1,0.3-0.3,0.5-0.5,0.7c-0.2,0.2-0.5,0.3-0.8,0.4
		c-0.3,0.1-0.6,0.2-1,0.2c-0.4,0-0.7,0-1-0.1c-0.3-0.1-0.6-0.2-0.8-0.4c-0.2-0.2-0.4-0.4-0.6-0.7c-0.1-0.3-0.2-0.6-0.2-1
		c0-0.5,0.1-0.8,0.3-1.2s0.6-0.6,1-0.7c-0.3-0.1-0.6-0.3-0.8-0.6c-0.2-0.3-0.3-0.6-0.3-1C126.2,316,126.2,315.7,126.4,315.5z
		 M127.3,320.9c0.3,0.3,0.7,0.4,1.2,0.4c0.2,0,0.4,0,0.6-0.1c0.2-0.1,0.4-0.2,0.5-0.3c0.1-0.1,0.2-0.3,0.3-0.5
		c0.1-0.2,0.1-0.4,0.1-0.6c0-0.2,0-0.4-0.1-0.6s-0.2-0.3-0.3-0.5c-0.1-0.1-0.3-0.2-0.5-0.3c-0.2-0.1-0.4-0.1-0.6-0.1
		c-0.2,0-0.4,0-0.6,0.1c-0.2,0.1-0.4,0.2-0.5,0.3c-0.1,0.1-0.3,0.3-0.3,0.5c-0.1,0.2-0.1,0.4-0.1,0.6
		C126.9,320.3,127,320.7,127.3,320.9z M127.3,316.9c0.1,0.2,0.2,0.3,0.3,0.4c0.1,0.1,0.3,0.2,0.4,0.2c0.2,0.1,0.3,0.1,0.5,0.1
		c0.4,0,0.7-0.1,0.9-0.3c0.2-0.2,0.4-0.5,0.4-0.9s-0.1-0.7-0.4-0.9c-0.2-0.2-0.5-0.3-0.9-0.3c-0.2,0-0.4,0-0.5,0.1
		c-0.2,0.1-0.3,0.1-0.4,0.2c-0.1,0.1-0.2,0.2-0.3,0.4c-0.1,0.1-0.1,0.3-0.1,0.5C127.1,316.5,127.2,316.7,127.3,316.9z"/>
	<path style="fill:#666666;" d="M134,318.6v-0.8h5.8v0.8H134z"/>
	<path style="fill:#666666;" d="M145.2,322v-5.5h-2v-0.7c0.3,0,0.5,0,0.8-0.1c0.2,0,0.5-0.1,0.7-0.2c0.2-0.1,0.4-0.3,0.5-0.4
		s0.2-0.4,0.3-0.7h0.7v7.7H145.2z"/>
	<path style="fill:#666666;" d="M151.2,322v-5.5h-2v-0.7c0.3,0,0.5,0,0.8-0.1c0.2,0,0.5-0.1,0.7-0.2c0.2-0.1,0.4-0.3,0.5-0.4
		s0.2-0.4,0.3-0.7h0.7v7.7H151.2z"/>
	<path style="fill:#666666;" d="M158.4,315.5c-0.2-0.2-0.5-0.3-0.9-0.3c-0.4,0-0.7,0.1-0.9,0.3c-0.2,0.2-0.4,0.4-0.6,0.7
		c-0.1,0.3-0.2,0.6-0.3,0.9c-0.1,0.3-0.1,0.7-0.1,1l0,0c0.2-0.4,0.5-0.6,0.8-0.8c0.3-0.2,0.7-0.2,1.1-0.2c0.4,0,0.7,0.1,1,0.2
		c0.3,0.1,0.5,0.3,0.7,0.5s0.4,0.5,0.5,0.8c0.1,0.3,0.2,0.6,0.2,1c0,0.3,0,0.6-0.1,0.9s-0.2,0.6-0.4,0.8s-0.5,0.5-0.8,0.6
		c-0.3,0.2-0.7,0.2-1.2,0.2c-0.6,0-1-0.1-1.4-0.3c-0.3-0.2-0.6-0.5-0.8-0.9c-0.2-0.4-0.3-0.8-0.4-1.2c-0.1-0.4-0.1-0.8-0.1-1.3
		c0-0.5,0-1,0.1-1.5c0.1-0.5,0.2-0.9,0.5-1.3c0.2-0.4,0.5-0.7,0.9-0.9s0.8-0.3,1.4-0.3c0.6,0,1.1,0.2,1.5,0.5
		c0.4,0.3,0.6,0.8,0.6,1.5h-0.9C158.7,316,158.6,315.7,158.4,315.5z M156.7,318c-0.2,0.1-0.4,0.2-0.5,0.4c-0.1,0.2-0.2,0.3-0.3,0.6
		c-0.1,0.2-0.1,0.4-0.1,0.7c0,0.2,0,0.5,0.1,0.7c0.1,0.2,0.2,0.4,0.3,0.5c0.1,0.2,0.3,0.3,0.5,0.4c0.2,0.1,0.4,0.1,0.7,0.1
		s0.5,0,0.7-0.1c0.2-0.1,0.4-0.2,0.5-0.4s0.2-0.3,0.3-0.5s0.1-0.4,0.1-0.6c0-0.2,0-0.5-0.1-0.7c-0.1-0.2-0.2-0.4-0.3-0.6
		c-0.1-0.2-0.3-0.3-0.5-0.4c-0.2-0.1-0.4-0.1-0.7-0.1S156.9,317.9,156.7,318z"/>
	<path style="fill:#666666;" d="M164.7,316.6c-0.3,0.5-0.6,1.1-0.9,1.7c-0.3,0.6-0.5,1.2-0.6,1.8c-0.2,0.6-0.3,1.2-0.3,1.8h-1
		c0-0.6,0.1-1.3,0.3-1.9c0.2-0.6,0.4-1.2,0.7-1.8c0.3-0.6,0.6-1.1,0.9-1.6c0.3-0.5,0.7-1,1.1-1.4h-4v-0.9h5v0.8
		C165.4,315.6,165,316.1,164.7,316.6z"/>
	<path style="fill:#666666;" d="M166.8,317.4c0-0.3,0-0.6,0.1-0.9c0.1-0.3,0.1-0.6,0.2-0.8c0.1-0.3,0.3-0.5,0.4-0.7s0.4-0.3,0.7-0.5
		c0.3-0.1,0.6-0.2,1-0.2c0.4,0,0.7,0.1,1,0.2c0.3,0.1,0.5,0.3,0.7,0.5s0.3,0.4,0.4,0.7c0.1,0.3,0.2,0.5,0.2,0.8
		c0.1,0.3,0.1,0.6,0.1,0.9c0,0.3,0,0.6,0,0.9s0,0.6,0,0.9c0,0.3,0,0.6-0.1,0.9c-0.1,0.3-0.1,0.6-0.2,0.8c-0.1,0.3-0.3,0.5-0.4,0.7
		c-0.2,0.2-0.4,0.3-0.7,0.5c-0.3,0.1-0.6,0.2-1,0.2c-0.4,0-0.7-0.1-1-0.2c-0.3-0.1-0.5-0.3-0.7-0.5c-0.2-0.2-0.3-0.4-0.4-0.7
		c-0.1-0.3-0.2-0.5-0.2-0.8c-0.1-0.3-0.1-0.6-0.1-0.9c0-0.3,0-0.6,0-0.9S166.8,317.7,166.8,317.4z M167.7,319.2c0,0.4,0.1,0.7,0.2,1
		c0.1,0.3,0.3,0.6,0.5,0.8c0.2,0.2,0.5,0.3,0.9,0.3c0.4,0,0.7-0.1,0.9-0.3c0.2-0.2,0.4-0.5,0.5-0.8c0.1-0.3,0.2-0.6,0.2-1
		c0-0.4,0-0.7,0-1c0-0.2,0-0.4,0-0.6c0-0.2,0-0.5-0.1-0.7c0-0.2-0.1-0.4-0.1-0.7c-0.1-0.2-0.2-0.4-0.3-0.6s-0.3-0.3-0.4-0.4
		c-0.2-0.1-0.4-0.2-0.7-0.2c-0.3,0-0.5,0.1-0.7,0.2c-0.2,0.1-0.3,0.2-0.4,0.4s-0.2,0.4-0.3,0.6c-0.1,0.2-0.1,0.4-0.1,0.7
		c0,0.2-0.1,0.5-0.1,0.7c0,0.2,0,0.4,0,0.6C167.7,318.5,167.7,318.8,167.7,319.2z"/>
</g>
</svg>
