<?xml version="1.0" encoding="utf-8"?>
<!-- Generator: Adobe Illustrator 17.1.0, SVG Export Plug-In . SVG Version: 6.00 Build 0)  -->
<!DOCTYPE svg PUBLIC "-//W3C//DTD SVG 1.1//EN" "http://www.w3.org/Graphics/SVG/1.1/DTD/svg11.dtd">
<svg version="1.1" id="图层_1" xmlns="http://www.w3.org/2000/svg" xmlns:xlink="http://www.w3.org/1999/xlink" x="0px" y="0px"
	 viewBox="0 0 478.5 299.8" style="enable-background:new 0 0 478.5 299.8;" xml:space="preserve">
<g id="矩形_3_10_">
	<g>
		<rect x="1.8" y="1.4" style="fill-rule:evenodd;clip-rule:evenodd;fill:#FFFFFF;" width="475.2" height="297"/>
	</g>
	<g>
		<rect x="1.8" y="1.4" style="fill:none;stroke:#E6E6E6;stroke-miterlimit:10;" width="475.2" height="297"/>
	</g>
</g>
<g>
	<path style="fill:#FF6600;" d="M137.4,88.8c1.2,1.4,1.7,3,1.7,4.7c0.1,2.5-0.9,4-3.1,4.3c-0.6,0.1-1.1,0.2-1.3,0.2l-0.6-1.9v5.2
		h-3.3V79.8h8v3.3L137.4,88.8z M134.2,83.2v11.1c0.2,0,0.4,0,0.6,0c0.8-0.1,1.1-0.6,1-1.8c-0.1-0.9-0.6-2.1-1.5-3.5
		c0.6-2.7,1-4.7,1.2-5.8H134.2z M139.3,83.6v-3.4h13.1v3.4h-1.2v13.2c0.1,2.8-1.1,4.2-3.6,4.3c-1.2,0.1-2.7,0.1-4.4,0.1
		c-0.2-1.2-0.5-2.4-0.6-3.5c0.7,0.1,1.7,0.1,3.2,0.1c1.4,0.1,2.1-0.5,1.9-1.9V83.6H139.3z M139.5,85.2h7.1v11h-7.1V85.2z
		 M143.7,88.3h-1.3v4.8h1.3V88.3z"/>
	<path style="fill:#FF6600;" d="M155.2,92.1V79.9h19.3v12.2h-7.8v1.3h8.1v3h-8.1v1.3h9.1v3h-22v-3h9.2v-1.3h-8.1v-3h8.1v-1.3H155.2z
		 M159,83v1.6h4V83H159z M159,89h4v-1.6h-4V89z M170.7,83h-4v1.6h4V83z M166.7,89h4v-1.6h-4V89z"/>
	<path style="fill:#FF6600;" d="M177.4,83h1.8c0.1-0.4,0.2-1.1,0.3-1.9c0.1-0.9,0.1-1.5,0.2-1.9l3.4,0.3c-0.2,1.3-0.4,2.5-0.6,3.6
		h3.9c-0.1,5.6-0.6,9.6-1.8,12c1.2,1.2,2.2,2.2,3.1,3l-2.4,2.6c-0.9-0.9-1.7-1.7-2.4-2.4c-0.9,1-2.1,2.1-3.4,3.4
		c-0.7-0.9-1.5-1.8-2.3-2.7c1.4-1.1,2.5-2.1,3.3-3.2c-0.2-0.3-0.7-0.8-1.4-1.4c-0.6-0.7-1.1-1.2-1.5-1.6c0.4-2,0.8-4.1,1.2-6.3h-1.4
		V83z M181,91.6c0.1,0.1,0.3,0.3,0.6,0.5c0.2,0.2,0.4,0.4,0.6,0.6c0.5-1.4,0.8-3.5,1-6.3h-1.2c-0.1,0.9-0.3,2.1-0.6,3.7
		C181.2,90.8,181.1,91.3,181,91.6z M186.4,93.3h8.3v3.2h-8.3V93.3z M186.9,80h11.2l-0.8,8.5h2c-0.1,1.1-0.2,2.9-0.3,5.5
		c-0.1,1.5-0.1,2.5-0.1,3.2c0.1,2.8-1.3,4.1-4.4,3.9c-0.7,0.1-1.9,0.1-3.6,0.1c-0.1-0.2-0.1-0.5-0.2-0.8c-0.1-0.5-0.2-1.3-0.5-2.5
		c1.2,0,2.4,0,3.6,0c1,0.1,1.5-0.3,1.5-1.1c0-0.7,0-1.9,0.1-3.8c0.1-0.4,0.1-0.8,0.1-1H187l0.8-7.9h3.6l-0.6,4.5h2.8l0.6-5.3h-7.3
		V80z"/>
	<path style="fill:#FF6600;" d="M201.2,83h1.8c0.1-0.4,0.2-1.1,0.3-1.9c0.1-0.9,0.1-1.5,0.2-1.9l3.4,0.3c-0.2,1.3-0.4,2.5-0.6,3.6
		h3.9c-0.1,5.6-0.6,9.6-1.8,12c1.2,1.2,2.2,2.2,3.1,3l-2.4,2.6c-0.9-0.9-1.7-1.7-2.4-2.4c-0.9,1-2.1,2.1-3.4,3.4
		c-0.7-0.9-1.5-1.8-2.3-2.7c1.4-1.1,2.5-2.1,3.3-3.2c-0.2-0.3-0.7-0.8-1.4-1.4c-0.6-0.7-1.1-1.2-1.5-1.6c0.4-2,0.8-4.1,1.2-6.3h-1.4
		V83z M204.8,91.6c0.1,0.1,0.3,0.3,0.6,0.5c0.2,0.2,0.4,0.4,0.6,0.6c0.5-1.4,0.8-3.5,1-6.3h-1.2c-0.1,0.9-0.3,2.1-0.6,3.7
		C204.9,90.8,204.8,91.3,204.8,91.6z M210.2,93.3h8.3v3.2h-8.3V93.3z M210.6,80h11.2l-0.8,8.5h2c-0.1,1.1-0.2,2.9-0.3,5.5
		c-0.1,1.5-0.1,2.5-0.1,3.2c0.1,2.8-1.3,4.1-4.4,3.9c-0.7,0.1-1.9,0.1-3.6,0.1c-0.1-0.2-0.1-0.5-0.2-0.8c-0.1-0.5-0.2-1.3-0.5-2.5
		c1.2,0,2.4,0,3.6,0c1,0.1,1.5-0.3,1.5-1.1c0-0.7,0-1.9,0.1-3.8c0.1-0.4,0.1-0.8,0.1-1h-8.6l0.8-7.9h3.6l-0.6,4.5h2.8l0.6-5.3h-7.3
		V80z"/>
	<path style="fill:#FF6600;" d="M225.8,101.2V90.5h9.6v10.7H232v-1h-2.9v1H225.8z M227.7,80.2h17V89h-17V80.2z M229.1,93.6v3.6h2.9
		v-3.6H229.1z M231.6,85.9h9.2v-2.4h-9.2V85.9z M236.8,101.2V90.5h9.7v10.6h-3.3v-0.9h-3v1H236.8z M240.2,93.6v3.6h3v-3.6H240.2z"/>
	<path style="fill:#FF6600;" d="M257.3,89.1h-4.6v1.4h4.1V101h-2.9v-7.3h-1.3c-0.1,2.7-0.4,5.3-1.1,7.7c-0.2-0.1-0.5-0.3-0.8-0.6
		c-0.6-0.4-1.2-0.8-2-1.4c0.4-1.3,0.6-2.5,0.7-3.6c0.1-1.1,0.2-2.8,0.2-5.2V80h3.2v6h1v-6.6h2.8v6.6h0.8V89.1z M257.2,97.9v-3.2h1.7
		c-0.4-0.4-0.8-0.8-1.2-1.2c1.1-0.5,2-1,2.7-1.6h-2.5V80.9h3.3c0.2-0.6,0.3-1.2,0.4-1.9l3.8,0.2c-0.1,0.6-0.3,1.2-0.6,1.7h5.6V92
		h-6.3c-0.7,0.9-1.7,1.9-3,2.8h2.5v-2h3.5v2h4v3.2h-4v3.2h-3.5v-3.2H257.2z M260.8,83.6v1.6h1.9v-1.6H260.8z M262.3,89.2
		c0.1-0.5,0.2-1,0.3-1.6h-1.8v1.6H262.3z M267.4,89.2v-1.6h-1.9c0,0.6-0.1,1.1-0.3,1.6H267.4z M267.4,83.6h-1.8v1.6h1.8V83.6z"/>
	<path style="fill:#FF6600;" d="M275.6,83.2h-2.8V80h6.8v3.2l-2.8,3.5h2.9c0.1,4-0.5,7.1-1.6,9.3c1.1,0.9,2.5,1.4,4.4,1.5
		c0.4,0.1,1.1,0.1,1.9,0.1v-1h-4.8V94h4.8v-0.7h-4.2v-2.6h4.2v-0.8h-4.1v-2.5h4.1v-0.9h-4.8v-2.6h4.8V83h-3.9v-2.6h3.9V79h3.5v1.4
		h5.5v3.4h1.7v2.6h-1.7v3.4h-5.5v0.8h5.8v2.6h-5.8V94h6.3v2.6h-6.3v1c3.5,0,5.9,0,7.1,0c-0.1,0.3-0.2,0.7-0.5,1.3
		c-0.2,0.9-0.4,1.5-0.5,1.8c-4.4,0-7.9,0-10.4-0.1c-3.5,0-5.8-0.6-7.1-1.9c-0.1,0.1-0.3,0.3-0.5,0.6c-0.8,0.9-1.5,1.6-2,2.1
		c-0.2-0.6-0.7-1.5-1.4-2.7c-0.1-0.2-0.2-0.4-0.3-0.5c0.7-0.6,1.4-1.3,1.9-2c-0.7-1.1-1.3-2.4-1.8-3.8l2.1-2.4h-1.8v-3.2L275.6,83.2
		z M274.6,90c0.5,1.5,0.9,2.5,1.2,3.1c0.4-1.1,0.6-2.1,0.6-3.1H274.6z M290,83h-2.1v0.8h2.1V83z M287.8,87.4h2.1v-0.9h-2.1V87.4z"/>
	<path style="fill:#FF6600;" d="M303.4,92.4c0.3,1.2,0.7,2.4,1,3.5c-0.6,0.4-1.3,1.1-2.3,2.1c-0.5,0.4-0.9,0.7-1.1,0.9
		c-0.2,0.2-0.5,0.5-0.8,0.8c-0.3,0.4-0.6,0.7-0.7,0.9l-2.2-2.7c0.6-0.8,0.9-1.7,0.9-2.6v-5.7h-2v-3.5h5.8v7.7
		c0.2-0.2,0.5-0.5,0.9-0.9C303,92.8,303.3,92.6,303.4,92.4z M300.3,79c0.1,0.1,0.2,0.3,0.4,0.5c1.2,1.5,2.1,2.8,2.7,3.8l-3.4,2
		c-0.6-1-1.5-2.5-2.9-4.5L300.3,79z M317.5,88.2v3.5c-1.1,1.9-2.4,3.5-4,4.9c1.5,0.6,3.2,1,5.1,1.4c-0.7,1.2-1.3,2.3-1.8,3.2
		c-2.7-0.7-4.9-1.6-6.6-2.5c-1.7,1-3.9,1.9-6.4,2.6c-0.1-0.2-0.3-0.6-0.6-1c-0.2-0.4-0.7-1.1-1.3-2c2-0.5,3.7-1.1,5.1-1.8
		c-1.1-0.9-2-2.1-3-3.5l2.1-1.5h-2.7v-3.3H317.5z M317,84.1h1.9c-0.2,1.1-0.5,2.2-0.6,3.2c-0.4,0.1-1.3,0.1-2.9,0.1
		c-2-0.1-3-0.9-3-2.5v-1.8h-3.5c0,2-1.3,3.7-3.8,5c-0.4-0.4-1.2-1.3-2.5-2.6c1.9-0.9,2.8-2,2.8-3.5c0-0.6,0-1.3,0-2.1H316v3.3
		C315.9,83.9,316.2,84.2,317,84.1z M307.3,91.5c0.9,1.3,1.9,2.4,3.1,3.2c0.9-0.6,1.9-1.7,3.1-3.2H307.3z"/>
	<path style="fill:#FF6600;" d="M320.3,83.6v-3.4h7.1v3.4h-1.9v4.3h1.8v3.3h-1.8v4.4c0.8-0.1,1.6-0.2,2.3-0.4c0,0.9,0,1.7,0,2.4
		c3.4-2.1,5.1-5.2,5-9.3c0-0.6,0-1.5,0.1-2.8c0-0.6,0-1,0-1.2h3.6c0,0.9-0.1,2.1-0.2,3.7c0,1.5-0.2,2.8-0.5,4.1h1.5V97
		c0,0.7,0.2,1.1,0.7,1c0.5,0.1,0.8-0.3,0.8-1c0.1-0.4,0.2-1,0.3-1.8c0.1-0.4,0.1-0.7,0.1-0.8c1.5,0.6,2.6,0.9,3.2,1.1
		c-0.1,0.2-0.1,0.5-0.2,0.8c-0.1,0.4-0.2,1.1-0.5,2.3c-0.2,1.5-1.2,2.3-3,2.3h-1.9c-2,0-3-1-3-3v-1.7c-0.9,1.5-2.6,3.2-5.3,5.1
		c-0.6-0.7-1.3-1.6-2.2-2.7c-0.6,0.1-1.6,0.3-3,0.6c-1.4,0.2-2.4,0.4-3.1,0.6l-0.6-3.6c0.4,0,1.1-0.1,1.9-0.2
		c-0.6,0.1-0.5,0.1,0.2,0v-4.8h-1.6v-3.3h1.6v-4.3H320.3z M327.9,93.8v-14h13.4v13.8h-3.6V83.3h-6.2v10.6H327.9z"/>
	<path style="fill:#FF6600;" d="M352.4,89.2v-3.5h4.2c0.1-2.5,0.1-4.6,0.1-6.5h3.8c0,1.2-0.1,3.4-0.2,6.5h5.4v3.5h-5.1
		c0.7,3.6,2.6,6.5,5.8,8.7c-1.1,1.2-1.9,2.3-2.4,3.2c-2.7-2-4.4-4.4-5.3-7.2c-0.6,2.3-2.3,4.8-5,7.4c-0.6-0.8-1.1-1.6-1.8-2.5v2.5
		h-3.6v-6.2c-0.5,0.4-1.3,1-2.4,1.9c-0.7,0.6-1.3,1-1.6,1.2l-0.7-4.5c1.1-0.6,2.7-1.7,4.7-3.2v-1.6l-2.8,0.8c-0.7-2.7-1.3-5-1.9-7
		l3-0.9c0.1,0.5,0.3,1.2,0.6,2c0.6,1.9,1,3.3,1.2,4.3v-8.9h3.6v18.3c2.5-2.2,4-5,4.5-8.3H352.4z M363.2,79.9
		c0.3,0.4,0.7,0.8,1.1,1.4c0.6,0.7,1.1,1.3,1.4,1.8l-2.7,1.9c-0.6-1-1.4-2.1-2.4-3.4L363.2,79.9z"/>
	<path style="fill:#FF6600;" d="M129.8,131.7c4.1-3.6,6.1-9.6,5.9-18h-4.5v-1.3h16.2v1.5l-2.5,4.8h4.5v1.3c-1.4,3.4-3.1,6.1-5.1,8
		c1.6,1.4,4.2,2.5,7.8,3.4c-0.2,0.2-0.4,0.6-0.6,1c-0.1,0.1-0.1,0.2-0.2,0.3c-3.5-1.2-6.2-2.5-8-3.9c-1.7,1.4-4.3,2.8-7.8,4.3
		c-0.1-0.1-0.2-0.3-0.4-0.6c-0.2-0.2-0.3-0.5-0.5-0.6c3.3-1.1,5.9-2.4,7.6-3.8c-2.2-2.1-4.1-5.2-5.6-9.2c-0.4,5.7-2.4,10.3-5.8,13.9
		C130.7,132.5,130.3,132.1,129.8,131.7z M143.5,118.8l2.6-5h-9c0,0.3,0,0.7-0.1,1.3c0,0.6,0,1-0.1,1.3c1.8,5,3.9,8.5,6.4,10.8
		c1.9-1.7,3.4-4,4.6-7.1h-4.5V118.8z"/>
	<path style="fill:#FF6600;" d="M154.2,117.5c0.3-0.8,0.6-1.5,1.1-2.1c0.5-0.6,1.1-1.1,1.9-1.4s1.7-0.5,2.6-0.5
		c0.8,0,1.5,0.1,2.2,0.4c0.7,0.2,1.3,0.6,1.8,1c0.5,0.4,0.9,1,1.2,1.6c0.3,0.6,0.5,1.4,0.5,2.2c0,0.8-0.1,1.6-0.4,2.2
		c-0.3,0.6-0.6,1.1-1.1,1.6s-0.9,0.9-1.5,1.3c-0.6,0.4-1.1,0.8-1.7,1.1c-0.6,0.4-1.1,0.8-1.7,1.2s-1,0.9-1.4,1.5h7.9v2.9h-12.2
		c0-1,0.1-1.8,0.4-2.5c0.3-0.7,0.7-1.4,1.1-1.9c0.5-0.6,1-1.1,1.7-1.6c0.6-0.5,1.3-1,2-1.4c0.4-0.3,0.8-0.5,1.2-0.8s0.8-0.6,1.1-0.9
		c0.3-0.3,0.6-0.7,0.9-1.1c0.2-0.4,0.3-0.8,0.3-1.4c0-0.8-0.2-1.4-0.7-1.9c-0.5-0.5-1.1-0.7-1.8-0.7c-0.5,0-0.9,0.1-1.2,0.3
		s-0.6,0.5-0.8,0.9s-0.4,0.8-0.4,1.2s-0.1,0.9-0.1,1.3h-3.2C153.8,119.2,154,118.3,154.2,117.5z"/>
	<path style="fill:#FF6600;" d="M167.2,117.9c0.3-1.1,0.8-2,1.3-2.6c0.6-0.7,1.2-1.1,1.9-1.4s1.5-0.4,2.3-0.4c0.8,0,1.6,0.1,2.4,0.4
		c0.7,0.3,1.4,0.8,1.9,1.4c0.6,0.7,1,1.5,1.3,2.6c0.3,1.1,0.5,2.5,0.5,4.1c0,1.7-0.2,3.1-0.5,4.2c-0.3,1.1-0.8,2-1.3,2.7
		c-0.6,0.7-1.2,1.1-1.9,1.4c-0.7,0.3-1.5,0.4-2.4,0.4c-0.8,0-1.6-0.1-2.3-0.4s-1.4-0.8-1.9-1.4c-0.6-0.7-1-1.6-1.3-2.7
		c-0.3-1.1-0.5-2.5-0.5-4.2C166.7,120.4,166.9,119,167.2,117.9z M170.1,123.7c0,0.7,0.1,1.3,0.3,1.9c0.2,0.6,0.4,1.2,0.8,1.6
		c0.4,0.4,0.9,0.7,1.6,0.7c0.7,0,1.2-0.2,1.6-0.7c0.4-0.4,0.6-1,0.8-1.6c0.2-0.6,0.3-1.3,0.3-1.9c0-0.7,0-1.2,0-1.7c0-0.3,0-0.6,0-1
		c0-0.4,0-0.8-0.1-1.2c-0.1-0.4-0.1-0.9-0.2-1.3c-0.1-0.4-0.3-0.8-0.5-1.1c-0.2-0.3-0.5-0.6-0.8-0.8c-0.3-0.2-0.7-0.3-1.2-0.3
		c-0.5,0-0.8,0.1-1.2,0.3c-0.3,0.2-0.6,0.5-0.8,0.8c-0.2,0.3-0.4,0.7-0.5,1.1c-0.1,0.4-0.2,0.8-0.2,1.3c0,0.4-0.1,0.8-0.1,1.2
		s0,0.7,0,1C170.1,122.4,170.1,123,170.1,123.7z"/>
	<path style="fill:#FF6600;" d="M185.4,130.4v-10.8h-4.2V117c0.6,0,1.2,0,1.7-0.1s1-0.3,1.5-0.5c0.4-0.3,0.8-0.6,1.1-1
		s0.5-1,0.6-1.6h2.7v16.6H185.4z"/>
	<path style="fill:#FF6600;" d="M197.6,116.5l-0.7,3.8l0,0c0.5-0.5,1-0.8,1.5-1c0.5-0.2,1.1-0.3,1.8-0.3c0.8,0,1.6,0.2,2.2,0.5
		c0.6,0.3,1.2,0.7,1.6,1.2s0.8,1.1,1,1.8s0.3,1.4,0.3,2.2c0,0.9-0.2,1.7-0.5,2.4c-0.3,0.7-0.8,1.4-1.3,1.9c-0.6,0.5-1.2,1-2,1.2
		c-0.7,0.3-1.5,0.4-2.4,0.4c-0.8,0-1.6-0.1-2.3-0.3c-0.7-0.2-1.4-0.5-2-1c-0.6-0.4-1-1-1.4-1.7c-0.3-0.7-0.5-1.4-0.5-2.3h3.4
		c0.1,0.8,0.4,1.4,0.9,1.8c0.5,0.5,1.1,0.7,1.9,0.7c0.4,0,0.8-0.1,1.2-0.3c0.4-0.2,0.7-0.4,0.9-0.7c0.2-0.3,0.4-0.6,0.6-1
		c0.1-0.4,0.2-0.8,0.2-1.2c0-0.4-0.1-0.8-0.2-1.2c-0.1-0.4-0.3-0.7-0.6-1s-0.6-0.5-0.9-0.7c-0.3-0.2-0.8-0.2-1.2-0.2
		c-0.6,0-1.1,0.1-1.5,0.3c-0.4,0.2-0.7,0.6-1.1,1h-3l1.6-9.2h9.3v2.8H197.6z"/>
	<path style="fill:#FF6600;" d="M227.5,119.1v3.2h-6.1v3.1h7.5v3.4h-7.5v4.2h-3.8v-4.2h-10.8v-3.4h3.1v-5.2
		c-0.4,0.4-0.9,0.8-1.4,1.4c-0.2-0.3-0.4-0.7-0.6-1.3c-0.6-1.1-1-1.8-1.3-2.3c2.3-1.9,4.1-4.3,5.3-7.2l4.4,0.4
		c-0.4,0.6-0.7,1.3-1.1,1.9h13.2v3.3h-6.9v2.7H227.5z M213,116.4c-0.6,0.9-1.3,1.8-2.1,2.7h6.7v-2.7H213z M213.4,122.4v3.1h4.1v-3.1
		H213.4z"/>
	<path style="fill:#FF6600;" d="M236.8,119.7v-3.5h3.7c0-0.7,0-1.7,0.1-3c0-1.1,0-1.9,0-2.3h3.7c0,1.1-0.1,2.7-0.2,5
		c0.1-1.7,0.1-1.6,0,0.3h3.9c-1.4-1.2-2.3-2.1-2.9-2.5l2.3-2.4c0.4,0.3,0.9,0.7,1.7,1.3c0.9,0.7,1.6,1.2,1.9,1.5l-1.9,2.1h2.9v3.5
		h-8c-0.2,5.3-2,9.8-5.5,13.6c-0.8-0.8-1.6-1.6-2.5-2.5v2.2h-3.6v-10.1c-0.2,0.2-0.5,0.6-0.8,1.2c-0.4,0.5-0.7,0.9-0.9,1.2
		c-0.2-1.9-0.4-3.6-0.6-5.2c1.9-2.7,3.3-5.8,4.4-9.3l3.8,1.1c-0.6,1.7-1.4,3.4-2.2,5V130c2.7-2.8,4.1-6.2,4.3-10.3H236.8z
		 M244,120.9h3.7v7.3c-0.1,0.6,0.1,0.8,0.6,0.7c0.4,0.1,0.7-0.2,0.7-0.8c0.2-1.2,0.3-2.5,0.4-3.8c0.2,0.1,0.6,0.2,1.2,0.4
		c1,0.4,1.7,0.6,2.1,0.8c-0.2,1.9-0.4,3.3-0.6,4.4c-0.3,1.7-1.4,2.6-3.3,2.5H247c-2,0.1-3-1-3-3.1V120.9z"/>
	<path style="fill:#FF6600;" d="M260.4,133h-3.6v-10c-0.2,0.2-0.5,0.6-0.8,1.1c-0.5,0.7-0.9,1.2-1.2,1.6c-0.1-0.2-0.1-0.6-0.2-1.2
		c-0.1-0.8-0.4-2.1-0.7-3.9c2.1-2.7,3.8-5.9,5.1-9.7l3.8,1.4c-0.6,1.7-1.4,3.3-2.3,4.9v6.7c1.5-0.8,3-1.6,4.3-2.4v-10.3h4v7.5
		c1.9-1.5,3.6-3.1,5-4.8l2.9,2.9c-2.2,2.4-4.9,4.7-7.9,6.9v4.5c-0.1,0.8,0.3,1.2,1.2,1.1h0.7c1.1,0.1,1.6-0.4,1.7-1.4
		c0-0.1,0-0.4,0.1-0.7c0.1-1.2,0.2-2.1,0.3-2.8c1.7,0.6,3,1.1,3.9,1.4c0,0.2,0,0.4-0.1,0.7c-0.2,1.6-0.5,2.8-0.7,3.6
		c-0.2,1.9-1.7,2.7-4.5,2.6h-2.5c-2.9,0.2-4.3-1.1-4.1-4V126c-0.4,0.3-1.1,0.7-1.9,1.1c-0.2,0.1-0.4,0.2-0.6,0.3
		c-0.7-1.2-1.3-2.3-1.9-3.1V133z"/>
	<path style="fill:#FF6600;" d="M280.9,114.9h-2.8v-3.2h6.8v3.2l-2.8,3.5h2.9c0.1,4-0.5,7.1-1.6,9.3c1.1,0.9,2.5,1.4,4.4,1.5
		c0.4,0.1,1.1,0.1,1.9,0.1v-1h-4.8v-2.6h4.8V125h-4.2v-2.6h4.2v-0.8h-4.1V119h4.1v-0.9h-4.8v-2.6h4.8v-0.8h-3.9v-2.6h3.9v-1.4h3.5
		v1.4h5.5v3.4h1.7v2.6h-1.7v3.4h-5.5v0.8h5.8v2.6h-5.8v0.7h6.3v2.6h-6.3v1c3.5,0,5.9,0,7.1,0c-0.1,0.3-0.2,0.7-0.5,1.3
		c-0.2,0.9-0.4,1.5-0.5,1.8c-4.4,0-7.9,0-10.4-0.1c-3.5,0-5.8-0.6-7.1-1.9c-0.1,0.1-0.3,0.3-0.5,0.6c-0.8,0.9-1.5,1.6-2,2.1
		c-0.2-0.6-0.7-1.5-1.4-2.7c-0.1-0.2-0.2-0.4-0.3-0.5c0.7-0.6,1.4-1.3,1.9-2c-0.7-1.1-1.3-2.4-1.8-3.8l2.1-2.4h-1.8v-3.2
		L280.9,114.9z M279.9,121.6c0.5,1.5,0.9,2.5,1.2,3.1c0.4-1.1,0.6-2.1,0.6-3.1H279.9z M295.3,114.7h-2.1v0.8h2.1V114.7z M293.2,119
		h2.1v-0.9h-2.1V119z"/>
	<path style="fill:#FF6600;" d="M309,123.7c0.3,1.4,0.6,2.5,1,3.5c-1.4,1.3-2.6,2.4-3.6,3.2c-0.5,0.5-1,1-1.5,1.6l-2.2-2.5
		c0.6-0.7,0.9-1.5,0.9-2.5v-5.5h-2.1V118h5.7v7.5c0.1-0.2,0.4-0.5,0.7-0.8C308.4,124.3,308.8,124,309,123.7z M305.3,110.9
		c0.5,0.7,1.2,1.8,2.2,3.2c0.3,0.4,0.6,0.8,0.7,1l-3.2,1.9c-0.8-1.5-1.7-3-2.8-4.5L305.3,110.9z M323.3,113.5
		c-1,5.8-2.6,10-4.8,12.6c1.1,1.1,3,2.2,5.6,3.4c-0.3,0.4-0.9,1.3-1.7,2.6c-0.2,0.4-0.4,0.6-0.5,0.7c-2.5-1.2-4.5-2.6-6.1-4
		c-1.6,1.4-3.7,2.8-6.3,4.3c-0.7-1.3-1.4-2.4-2.1-3.2c2.4-1.3,4.4-2.6,5.9-3.9c-2.2-2.8-3.8-6.8-4.8-12l3.5-0.8
		c0.9,4.6,2.2,8,3.9,10.1c1.8-2.2,3.1-5.7,3.9-10.6L323.3,113.5z M316.3,110.8c0.9,1.9,1.6,3.8,2.1,5.6l-3.5,1.1
		c-0.3-1-0.8-2.4-1.5-4.4c-0.2-0.6-0.3-1.1-0.5-1.4L316.3,110.8z"/>
</g>
<g>
	<path style="fill:#666666;" d="M129.7,204.9h1.3v-1.2h-1.5V203h1.9c0.3-0.6,0.5-1.2,0.7-1.8l0.7,0.2c-0.3,0.7-0.6,1.2-0.7,1.6h1
		v0.7h-1.5v1.2h1.3v0.7h-1.3v0.8c0,0.2,0,0.3,0,0.4h1.5v0.7h-1.5c-0.1,1.3-0.6,2.5-1.6,3.4c-0.2-0.2-0.4-0.4-0.6-0.5
		c0.9-0.7,1.4-1.6,1.5-2.9h-1.4v-0.7h1.5c0-0.1,0-0.3,0-0.4v-0.8h-1.3V204.9z M129.8,201.5l0.6-0.2c0.3,0.6,0.5,1,0.7,1.4l-0.6,0.3
		C130.2,202.4,130,201.9,129.8,201.5z M135.2,202.5h-1.9v-0.7h2.6v7.7c0.1,0.9-0.4,1.3-1.3,1.3c-0.2,0-0.6,0-1,0c0,0,0-0.1,0-0.2
		c0-0.3-0.1-0.5-0.1-0.7c0.3,0,0.6,0,1,0c0.5,0,0.7-0.2,0.7-0.6v-2.1c-0.2,0.2-0.6,0.4-1,0.7c-0.5,0.3-0.8,0.6-1,0.7l-0.4-0.7
		c0.5-0.3,1.3-0.8,2.4-1.6V202.5z M133.3,203.7l0.7-0.2c0.2,0.5,0.4,1.2,0.7,2.1l-0.7,0.3C133.8,205.2,133.5,204.5,133.3,203.7z
		 M138.2,202.5h-2.1v-0.7h2.8v7.8c0.1,0.9-0.4,1.3-1.3,1.3c-0.4,0-0.8,0-1,0c0-0.1-0.1-0.3-0.1-0.6c0,0.1,0,0,0-0.2
		c0.3,0,0.7,0,1.1,0c0.5,0.1,0.7-0.2,0.7-0.6v-2.2c-0.8,0.6-1.4,1-1.7,1.2l-0.4-0.7c0.7-0.4,1.4-0.9,2.1-1.4V202.5z M136.5,203.6
		l0.7-0.2c0,0.2,0.1,0.5,0.3,1c0.2,0.6,0.3,0.9,0.3,1.2l-0.7,0.2C136.9,205,136.7,204.2,136.5,203.6z"/>
	<path style="fill:#666666;" d="M142.6,207l0.7,0.5c-0.9,1.2-1.7,2.2-2.6,3c-0.2-0.2-0.4-0.3-0.6-0.5
		C140.9,209.1,141.8,208.1,142.6,207z M141.4,202c1.8,0,4.2-0.2,7.2-0.5l0.3,0.8c-2.5,0.2-4.7,0.3-6.7,0.4l-0.4,2.9h2.9v-2.3h0.8
		v2.3h3.9v0.7h-3.9v3.1c0.1,0.9-0.4,1.4-1.3,1.3c-0.6,0-1.1,0-1.3,0c-0.1-0.3-0.1-0.6-0.2-0.9c0.7,0.1,1.1,0.1,1.3,0.1
		c0.5,0,0.7-0.2,0.7-0.7v-3h-3.9L141.4,202z M147.3,207c0.9,0.9,1.8,1.9,2.6,2.9l-0.6,0.6c-0.7-0.9-1.6-1.9-2.6-3L147.3,207z"/>
</g>
<g>
	<path style="fill:#666666;" d="M157,201.7l-3.5,8.9h-0.9l3.5-8.9H157z"/>
	<path style="fill:#666666;" d="M160.8,203.7c0.1-0.4,0.3-0.7,0.5-0.9c0.2-0.3,0.5-0.5,0.9-0.6s0.7-0.2,1.2-0.2c0.4,0,0.7,0.1,1,0.2
		c0.3,0.1,0.6,0.3,0.8,0.5c0.2,0.2,0.4,0.5,0.6,0.8c0.1,0.3,0.2,0.6,0.2,1c0,0.4-0.1,0.7-0.2,1c-0.1,0.3-0.3,0.5-0.5,0.8
		c-0.2,0.2-0.4,0.4-0.7,0.6c-0.2,0.2-0.5,0.4-0.8,0.5c-0.3,0.2-0.5,0.3-0.8,0.5c-0.3,0.2-0.5,0.3-0.7,0.5c-0.2,0.2-0.4,0.4-0.6,0.6
		c-0.2,0.2-0.3,0.4-0.3,0.7h4.3v0.9h-5.5c0-0.5,0.1-0.9,0.3-1.3c0.1-0.4,0.3-0.7,0.5-0.9s0.5-0.5,0.7-0.7s0.6-0.4,0.8-0.6
		c0.4-0.2,0.7-0.4,0.9-0.6c0.3-0.2,0.5-0.4,0.7-0.6c0.2-0.2,0.3-0.4,0.4-0.6c0.1-0.2,0.1-0.5,0.1-0.8c0-0.2,0-0.4-0.1-0.6
		s-0.2-0.3-0.4-0.5c-0.1-0.1-0.3-0.2-0.5-0.3c-0.2-0.1-0.4-0.1-0.6-0.1c-0.3,0-0.5,0.1-0.8,0.2c-0.2,0.1-0.4,0.3-0.5,0.5
		c-0.1,0.2-0.2,0.4-0.3,0.7c-0.1,0.2-0.1,0.5-0.1,0.8h-1C160.6,204.5,160.6,204.1,160.8,203.7z"/>
	<path style="fill:#666666;" d="M167.2,205.3c0-0.3,0.1-0.7,0.1-1c0.1-0.3,0.2-0.6,0.3-0.9c0.1-0.3,0.3-0.5,0.5-0.7s0.5-0.4,0.8-0.5
		c0.3-0.1,0.7-0.2,1.1-0.2s0.8,0.1,1.1,0.2c0.3,0.1,0.6,0.3,0.8,0.5s0.4,0.5,0.5,0.7s0.2,0.6,0.3,0.9c0.1,0.3,0.1,0.6,0.1,1
		c0,0.3,0,0.7,0,1s0,0.6,0,1c0,0.3-0.1,0.7-0.1,1s-0.2,0.6-0.3,0.9s-0.3,0.5-0.5,0.7c-0.2,0.2-0.5,0.4-0.8,0.5
		c-0.3,0.1-0.7,0.2-1.1,0.2c-0.4,0-0.8-0.1-1.1-0.2c-0.3-0.1-0.6-0.3-0.8-0.5c-0.2-0.2-0.4-0.5-0.5-0.7c-0.1-0.3-0.2-0.6-0.3-0.9
		s-0.1-0.6-0.1-1s0-0.7,0-1S167.2,205.6,167.2,205.3z M168.3,207.3c0,0.4,0.1,0.8,0.2,1.1c0.1,0.3,0.3,0.6,0.5,0.9
		c0.2,0.2,0.6,0.4,1,0.4s0.8-0.1,1-0.4c0.2-0.2,0.4-0.5,0.5-0.9c0.1-0.3,0.2-0.7,0.2-1.1c0-0.4,0-0.7,0-1.1c0-0.2,0-0.4,0-0.7
		s0-0.5-0.1-0.7c0-0.2-0.1-0.5-0.2-0.7c-0.1-0.2-0.2-0.4-0.3-0.6s-0.3-0.3-0.5-0.4c-0.2-0.1-0.4-0.2-0.7-0.2s-0.5,0.1-0.7,0.2
		c-0.2,0.1-0.4,0.3-0.5,0.4s-0.2,0.4-0.3,0.6c-0.1,0.2-0.1,0.5-0.2,0.7c0,0.2-0.1,0.5-0.1,0.7s0,0.5,0,0.7
		C168.3,206.5,168.3,206.9,168.3,207.3z"/>
	<path style="fill:#666666;" d="M176.5,210.4v-6h-2.2v-0.8c0.3,0,0.6,0,0.8-0.1s0.5-0.1,0.7-0.2s0.4-0.3,0.6-0.5s0.3-0.5,0.3-0.8
		h0.8v8.4H176.5z"/>
	<path style="fill:#666666;" d="M182.1,203l-0.5,2.4l0,0c0.2-0.2,0.4-0.4,0.7-0.5s0.6-0.1,0.9-0.1c0.4,0,0.7,0.1,1.1,0.2
		c0.3,0.1,0.6,0.3,0.9,0.5s0.4,0.5,0.6,0.9s0.2,0.8,0.2,1.3c0,0.4-0.1,0.7-0.2,1c-0.1,0.3-0.3,0.6-0.6,0.9c-0.2,0.3-0.6,0.5-0.9,0.6
		s-0.8,0.2-1.3,0.2c-0.4,0-0.7-0.1-1-0.2c-0.3-0.1-0.6-0.3-0.8-0.5c-0.2-0.2-0.4-0.5-0.6-0.8c-0.1-0.3-0.2-0.6-0.2-1h1
		c0,0.2,0.1,0.4,0.2,0.6s0.2,0.3,0.4,0.5c0.2,0.1,0.3,0.2,0.5,0.3s0.4,0.1,0.7,0.1c0.2,0,0.5,0,0.7-0.1c0.2-0.1,0.4-0.2,0.6-0.4
		c0.2-0.2,0.3-0.4,0.4-0.6c0.1-0.2,0.1-0.5,0.1-0.9c0-0.3,0-0.5-0.1-0.8c-0.1-0.2-0.2-0.4-0.4-0.6s-0.4-0.3-0.6-0.4
		c-0.2-0.1-0.5-0.1-0.8-0.1c-0.3,0-0.6,0.1-0.9,0.2c-0.3,0.1-0.5,0.3-0.7,0.6l-0.9,0l0.8-4.4h4.2v0.9H182.1z"/>
	<path style="fill:#666666;" d="M188.8,209v1.3h-1.3V209H188.8z"/>
	<path style="fill:#666666;" d="M192,203l-0.5,2.4l0,0c0.2-0.2,0.4-0.4,0.7-0.5s0.6-0.1,0.9-0.1c0.4,0,0.7,0.1,1.1,0.2
		c0.3,0.1,0.6,0.3,0.9,0.5s0.4,0.5,0.6,0.9s0.2,0.8,0.2,1.3c0,0.4-0.1,0.7-0.2,1c-0.1,0.3-0.3,0.6-0.6,0.9c-0.2,0.3-0.6,0.5-0.9,0.6
		s-0.8,0.2-1.3,0.2c-0.4,0-0.7-0.1-1-0.2c-0.3-0.1-0.6-0.3-0.8-0.5c-0.2-0.2-0.4-0.5-0.6-0.8c-0.1-0.3-0.2-0.6-0.2-1h1
		c0,0.2,0.1,0.4,0.2,0.6s0.2,0.3,0.4,0.5c0.2,0.1,0.3,0.2,0.5,0.3s0.4,0.1,0.7,0.1c0.2,0,0.5,0,0.7-0.1c0.2-0.1,0.4-0.2,0.6-0.4
		c0.2-0.2,0.3-0.4,0.4-0.6c0.1-0.2,0.1-0.5,0.1-0.9c0-0.3,0-0.5-0.1-0.8c-0.1-0.2-0.2-0.4-0.4-0.6s-0.4-0.3-0.6-0.4
		c-0.2-0.1-0.5-0.1-0.8-0.1c-0.3,0-0.6,0.1-0.9,0.2c-0.3,0.1-0.5,0.3-0.7,0.6l-0.9,0l0.8-4.4h4.2v0.9H192z"/>
	<path style="fill:#666666;" d="M198.7,209v1.3h-1.3V209H198.7z"/>
	<path style="fill:#666666;" d="M200.4,203.7c0.1-0.4,0.3-0.7,0.5-0.9c0.2-0.3,0.5-0.5,0.9-0.6s0.7-0.2,1.2-0.2c0.4,0,0.7,0.1,1,0.2
		c0.3,0.1,0.6,0.3,0.8,0.5c0.2,0.2,0.4,0.5,0.6,0.8c0.1,0.3,0.2,0.6,0.2,1c0,0.4-0.1,0.7-0.2,1c-0.1,0.3-0.3,0.5-0.5,0.8
		c-0.2,0.2-0.4,0.4-0.7,0.6c-0.2,0.2-0.5,0.4-0.8,0.5c-0.3,0.2-0.5,0.3-0.8,0.5c-0.3,0.2-0.5,0.3-0.7,0.5c-0.2,0.2-0.4,0.4-0.6,0.6
		c-0.2,0.2-0.3,0.4-0.3,0.7h4.3v0.9H200c0-0.5,0.1-0.9,0.3-1.3c0.1-0.4,0.3-0.7,0.5-0.9s0.5-0.5,0.7-0.7s0.6-0.4,0.8-0.6
		c0.4-0.2,0.7-0.4,0.9-0.6c0.3-0.2,0.5-0.4,0.7-0.6c0.2-0.2,0.3-0.4,0.4-0.6c0.1-0.2,0.1-0.5,0.1-0.8c0-0.2,0-0.4-0.1-0.6
		s-0.2-0.3-0.4-0.5c-0.1-0.1-0.3-0.2-0.5-0.3c-0.2-0.1-0.4-0.1-0.6-0.1c-0.3,0-0.5,0.1-0.8,0.2c-0.2,0.1-0.4,0.3-0.5,0.5
		c-0.1,0.2-0.2,0.4-0.3,0.7c-0.1,0.2-0.1,0.5-0.1,0.8h-1C200.2,204.5,200.3,204.1,200.4,203.7z"/>
	<path style="fill:#666666;" d="M207.3,203.2c0.1-0.3,0.3-0.5,0.5-0.7c0.2-0.2,0.5-0.3,0.8-0.4c0.3-0.1,0.6-0.1,0.9-0.1
		c0.5,0,0.9,0.1,1.2,0.2c0.3,0.1,0.6,0.3,0.8,0.5c0.2,0.2,0.4,0.4,0.4,0.7c0.1,0.3,0.1,0.5,0.1,0.8c0,0.4-0.1,0.7-0.3,1
		c-0.2,0.3-0.5,0.5-0.8,0.7c0.5,0.2,0.9,0.4,1.1,0.8s0.4,0.8,0.4,1.3c0,0.4-0.1,0.8-0.2,1.1s-0.3,0.6-0.6,0.8
		c-0.2,0.2-0.5,0.4-0.9,0.5c-0.3,0.1-0.7,0.2-1.1,0.2c-0.4,0-0.8-0.1-1.1-0.2c-0.3-0.1-0.7-0.3-0.9-0.5s-0.5-0.5-0.6-0.8
		c-0.1-0.3-0.2-0.7-0.2-1.1c0-0.5,0.1-0.9,0.4-1.3c0.3-0.4,0.6-0.6,1.1-0.8c-0.4-0.1-0.6-0.4-0.9-0.7s-0.3-0.7-0.3-1.1
		C207.1,203.7,207.2,203.4,207.3,203.2z M208.4,209.2c0.3,0.3,0.8,0.4,1.3,0.4c0.3,0,0.5,0,0.7-0.1c0.2-0.1,0.4-0.2,0.5-0.3
		s0.3-0.3,0.4-0.5c0.1-0.2,0.1-0.4,0.1-0.7c0-0.2,0-0.4-0.1-0.6c-0.1-0.2-0.2-0.4-0.4-0.5s-0.3-0.3-0.6-0.3
		c-0.2-0.1-0.4-0.1-0.7-0.1c-0.2,0-0.5,0-0.7,0.1c-0.2,0.1-0.4,0.2-0.6,0.3c-0.2,0.1-0.3,0.3-0.4,0.5c-0.1,0.2-0.1,0.4-0.1,0.7
		C207.9,208.5,208.1,208.9,208.4,209.2z M208.3,204.7c0.1,0.2,0.2,0.3,0.3,0.4s0.3,0.2,0.5,0.2c0.2,0.1,0.4,0.1,0.6,0.1
		c0.4,0,0.7-0.1,1-0.4c0.3-0.2,0.4-0.6,0.4-1s-0.1-0.8-0.4-1s-0.6-0.3-1-0.3c-0.2,0-0.4,0-0.6,0.1c-0.2,0.1-0.3,0.1-0.5,0.2
		c-0.1,0.1-0.2,0.2-0.3,0.4c-0.1,0.2-0.1,0.3-0.1,0.6C208.2,204.4,208.2,204.6,208.3,204.7z"/>
</g>
<g>
	<path style="fill:#FF6600;" d="M132.9,188.9c0,1-0.3,1.5-1,1.5c-0.3,0-0.6,0-1,0c0,0,0-0.1,0-0.1c0-0.3-0.1-0.5-0.1-0.7
		c0.1,0,0.2,0,0.3,0c0.2,0,0.4,0,0.5,0c0.4,0,0.5-0.3,0.5-0.8c0-0.7-0.3-1.5-1-2.4c0.2-0.6,0.5-1.5,0.8-2.8h-1.3v8.5h-0.7v-9.2h2.8
		v0.7c-0.5,1.5-0.8,2.4-0.9,2.7C132.6,187.2,132.9,188.1,132.9,188.9z M133.2,183.1h6.1v0.7h-0.9v6.7c0.1,1-0.4,1.5-1.4,1.4
		c-0.3,0-0.8,0-1.5,0c0-0.1-0.1-0.3-0.1-0.5c-0.1-0.2-0.1-0.3-0.1-0.3c0.4,0,0.9,0,1.5,0c0.5,0,0.8-0.2,0.8-0.7v-6.7h-4.5V183.1z
		 M133.5,185.2h3.1v4.3h-3.1V185.2z M134.3,185.9v2.9h1.6v-2.9H134.3z"/>
	<path style="fill:#FF6600;" d="M140.6,189h4v-1.2H141v-4.9h7.9v4.9h-3.6v1.2h4v0.7h-4v1.3h4.6v0.7H140v-0.7h4.6v-1.3h-4V189z
		 M141.7,183.6v1.5h2.8v-1.5H141.7z M141.7,185.7v1.4h2.8v-1.4H141.7z M148.2,183.6h-2.8v1.5h2.8V183.6z M145.3,185.7v1.4h2.8v-1.4
		H145.3z"/>
	<path style="fill:#FF6600;" d="M154.6,190.6l-0.6,0.5c-0.2-0.1-0.4-0.3-0.7-0.7c-0.1-0.1-0.2-0.2-0.3-0.3c-0.4,0.6-1,1.2-1.9,2
		c-0.1-0.2-0.3-0.4-0.5-0.7c0.7-0.5,1.3-1.1,1.8-1.9c-0.2-0.1-0.4-0.4-0.7-0.7c-0.3-0.3-0.5-0.5-0.7-0.7c0.2-0.6,0.4-1.6,0.7-3h-0.9
		v-0.7h1c0.1-0.4,0.1-1,0.2-1.7c0-0.2,0-0.3,0-0.4l0.8,0.1c0,0.3-0.1,0.7-0.2,1.2c-0.1,0.4-0.1,0.6-0.1,0.8h1.8v0.7
		c-0.2,1.8-0.5,3.2-1,4.1C153.7,189.8,154.1,190.2,154.6,190.6z M153.5,185.3h-1.2c-0.2,1.1-0.4,2-0.6,2.8c0.2,0.1,0.4,0.3,0.7,0.6
		c0.1,0.1,0.2,0.2,0.3,0.3C153.2,188,153.4,186.8,153.5,185.3z M154.4,189h4.4v0.7h-4.4V189z M156.1,184.1l-0.2,2.8h2.5l0.3-3.5
		h-4.1v-0.7h5l-0.4,4.2h1c-0.1,1.7-0.1,2.9-0.2,3.5c-0.1,1-0.6,1.5-1.7,1.5c-0.7,0-1.2,0-1.6,0c0-0.2-0.1-0.4-0.1-0.6
		c0-0.1,0-0.2,0-0.3c0.2,0,0.8,0,1.7,0c0.6,0,0.9-0.3,0.9-0.8c0.1-0.5,0.1-1.4,0.2-2.7H155l0.3-3.5H156.1z"/>
	<path style="fill:#FF6600;" d="M165.1,190.6l-0.6,0.5c-0.2-0.1-0.4-0.3-0.7-0.7c-0.1-0.1-0.2-0.2-0.3-0.3c-0.4,0.6-1,1.2-1.9,2
		c-0.1-0.2-0.3-0.4-0.5-0.7c0.7-0.5,1.3-1.1,1.8-1.9c-0.2-0.1-0.4-0.4-0.7-0.7c-0.3-0.3-0.5-0.5-0.7-0.7c0.2-0.6,0.4-1.6,0.7-3h-0.9
		v-0.7h1c0.1-0.4,0.1-1,0.2-1.7c0-0.2,0-0.3,0-0.4l0.8,0.1c0,0.3-0.1,0.7-0.2,1.2c-0.1,0.4-0.1,0.6-0.1,0.8h1.8v0.7
		c-0.2,1.8-0.5,3.2-1,4.1C164.3,189.8,164.7,190.2,165.1,190.6z M164.1,185.3h-1.2c-0.2,1.1-0.4,2-0.6,2.8c0.2,0.1,0.4,0.3,0.7,0.6
		c0.1,0.1,0.2,0.2,0.3,0.3C163.7,188,164,186.8,164.1,185.3z M165,189h4.4v0.7H165V189z M166.7,184.1l-0.2,2.8h2.5l0.3-3.5h-4.1
		v-0.7h5l-0.4,4.2h1c-0.1,1.7-0.1,2.9-0.2,3.5c-0.1,1-0.6,1.5-1.7,1.5c-0.7,0-1.2,0-1.6,0c0-0.2-0.1-0.4-0.1-0.6c0-0.1,0-0.2,0-0.3
		c0.2,0,0.8,0,1.7,0c0.6,0,0.9-0.3,0.9-0.8c0.1-0.5,0.1-1.4,0.2-2.7h-4.3l0.3-3.5H166.7z"/>
	<path style="fill:#FF6600;" d="M173.8,187.6v-0.8h5.7v0.8H173.8z"/>
	<path style="fill:#FF6600;" d="M187.8,192H187v-3.1h-2.9c-0.1,1.3-0.5,2.5-1.2,3.4c0,0-0.1-0.1-0.1-0.1c-0.2-0.2-0.4-0.4-0.5-0.5
		c0.5-0.6,0.8-1.2,0.9-1.9c0.1-0.7,0.2-1.8,0.2-3.5v-3.2h8.1v7.8c0.1,0.9-0.4,1.3-1.4,1.3c-0.4,0-0.8,0-1.2,0c0,0,0-0.1,0-0.2
		c0-0.3-0.1-0.5-0.1-0.7c0.1,0,0.3,0,0.6,0c0.3,0,0.6,0,0.7,0c0.5,0,0.8-0.2,0.7-0.7v-1.7h-3V192z M184.2,186.2c0,0.7,0,1.4,0,1.9
		h2.9v-1.9H184.2z M184.2,183.7v1.9h2.8v-1.9H184.2z M190.8,183.7h-3v1.9h3V183.7z M187.8,186.2v1.9h3v-1.9H187.8z"/>
	<path style="fill:#FF6600;" d="M197,182.6l0.7-0.4c0.1,0.1,0.2,0.3,0.3,0.5c0.2,0.4,0.4,0.6,0.5,0.8l-0.5,0.3h3.8v4.4h-0.8v-0.5
		h-6.3c-0.1,1.8-0.5,3.2-1.4,4.4c-0.1-0.1-0.2-0.2-0.3-0.3c-0.1-0.1-0.2-0.2-0.3-0.3c0.9-1,1.4-2.6,1.3-4.8v-2.9h3.8
		c-0.1-0.1-0.1-0.2-0.2-0.4C197.4,183.1,197.2,182.8,197,182.6z M194.8,184.6v2.2v0.3h6.3v-2.5H194.8z"/>
	<path style="fill:#FF6600;" d="M203.3,187.2c1-1.3,1.8-2.9,2.3-4.8l0.7,0.2c-0.3,0.9-0.6,1.8-1,2.6v6.9h-0.7v-5.5
		c-0.1,0.1-0.2,0.3-0.3,0.5c-0.1,0.2-0.3,0.5-0.7,0.9c0,0-0.1-0.1-0.1-0.3C203.4,187.4,203.3,187.2,203.3,187.2z M205.4,189.9
		c1.4-1.2,2.4-2.8,3-4.7h-2.3v-0.7h2.9v-2h0.8v2h3.1v0.7h-2.5c0.7,2.1,1.6,3.5,3,4.5c-0.1,0.1-0.3,0.4-0.6,0.7
		c-1.5-1.4-2.4-3.1-3-5.2v4.2h1.6v0.7h-1.6v2H209v-2h-1.6v-0.7h1.6v-4.2c-0.4,2-1.4,3.7-3,5.4C205.8,190.2,205.6,190,205.4,189.9z"
		/>
	<path style="fill:#FF6600;" d="M213.8,189.2c0.9-0.2,1.7-0.4,2.5-0.6c0,0.2,0,0.5,0,0.7c-0.4,0.1-1,0.2-1.9,0.5
		c-0.2,0.1-0.4,0.1-0.5,0.1L213.8,189.2z M215.3,184.3L215,187h1l0.3-3.4h-2.3v-0.7h3l-0.3,4.1h0.6c0,0.5-0.1,1.3-0.1,2.3
		c0,0.6,0,0.9,0,1.2c0,0.9-0.5,1.4-1.4,1.4c-0.3,0-0.7,0-1.2,0c0-0.2-0.1-0.5-0.2-0.8c0.2,0,0.4,0,0.7,0c0.2,0,0.4,0,0.5,0
		c0.5,0,0.7-0.2,0.7-0.7c0-0.3,0.1-1,0.1-1.9c0-0.4,0-0.7,0-0.9h-2.4l0.3-3.4H215.3z M221.2,182.5c-0.1,0.1-0.1,0.2-0.2,0.4
		c0.8,1.4,1.8,2.4,2.9,3c0,0-0.1,0.1-0.1,0.2c-0.2,0.2-0.3,0.4-0.4,0.5c-1.2-0.8-2.1-1.8-2.8-3c-0.8,1.3-1.8,2.4-2.9,3.1
		c-0.1-0.2-0.3-0.4-0.5-0.6c1.3-0.9,2.4-2.1,3.2-3.7L221.2,182.5z M223.1,187.5c-0.4,1.3-0.9,2.5-1.2,3.4h1.8v0.7h-6.1v-0.7h3.5
		c0.4-1,0.9-2.2,1.3-3.7L223.1,187.5z M218,187.7l0.7-0.2c0.1,0.2,0.2,0.5,0.3,0.9c0.3,0.8,0.5,1.4,0.6,1.7l-0.7,0.2
		C218.5,189.4,218.2,188.5,218,187.7z M218.5,186h4.1v0.7h-4.1V186z M219.7,187.4l0.7-0.2c0.3,1.2,0.6,2.1,0.7,2.6l-0.7,0.2
		C220.2,189,219.9,188.2,219.7,187.4z"/>
	<path style="fill:#FF6600;" d="M225.1,184.5h3.9v-2.2h0.8v2.2h3.9v4.5h-0.8v-0.5h-3.1v3.7H229v-3.7h-3.1v0.5h-0.8V184.5z
		 M225.9,185.3v2.5h3.1v-2.5H225.9z M232.9,185.3h-3.1v2.5h3.1V185.3z"/>
	<path style="fill:#FF6600;" d="M236.2,185.4l0.8,0.2c-0.3,1.6-0.7,2.9-1.1,4.1l-0.8-0.3C235.5,187.9,235.9,186.6,236.2,185.4z
		 M237.6,184.3h0.8v5.9c0,0.6,0.3,0.9,0.9,0.9h1.9c0.7,0.1,1.1-0.2,1.1-0.7c0-0.1,0-0.3,0-0.5c0.1-0.4,0.1-0.8,0.1-1
		c0.3,0.1,0.6,0.2,0.8,0.3c-0.1,0.6-0.2,1.1-0.2,1.6c-0.1,0.8-0.7,1.1-1.8,1.1h-2.2c-1,0-1.6-0.5-1.5-1.5V184.3z M239.8,182.3
		c0.4,0.6,0.9,1.4,1.5,2.5c0.1,0.1,0.1,0.2,0.2,0.3l-0.8,0.4c-0.4-1-0.9-2-1.5-2.9L239.8,182.3z M243.2,185c0.1,0.1,0.1,0.3,0.2,0.5
		c0.7,1.3,1.2,2.4,1.5,3.2l-0.8,0.4c-0.5-1.3-1.1-2.6-1.7-3.7L243.2,185z"/>
	<path style="fill:#FF6600;" d="M247.7,187.6v-0.8h5.7v0.8H247.7z"/>
	<path style="fill:#FF6600;" d="M256.7,187.6h3.8v4.5h-0.8v-0.7h-2.3v0.7h-0.7V187.6z M257.4,188.3v2.6h2.3v-2.6H257.4z
		 M257.7,182.8h6.8v3.6h-6.8V182.8z M258.5,183.5v2.2h5.3v-2.2H258.5z M261.7,187.6h3.8v4.5h-0.7v-0.7h-2.3v0.7h-0.8V187.6z
		 M262.5,188.3v2.6h2.3v-2.6H262.5z"/>
	<path style="fill:#FF6600;" d="M269.2,182.4h0.7v3.2h0.7v0.7h-2.5v1.4h1.9v4.3h-0.7v-3.7h-1.2c0,1.7-0.3,3-0.8,3.8
		c-0.2-0.2-0.4-0.4-0.6-0.6c0.5-0.7,0.7-2.1,0.7-4.1v-4.7h0.7v2.9h1V182.4z M270.3,189.5h1.1c-0.2-0.2-0.3-0.3-0.4-0.5
		c0.6-0.3,1.1-0.6,1.4-1.1H271v-4.7h1.7c0.1-0.2,0.2-0.6,0.3-1.1l0.8,0.1c0,0.1-0.1,0.2-0.1,0.3c-0.1,0.3-0.2,0.5-0.2,0.7h2.5v4.7
		h-2.7c-0.3,0.6-0.8,1.1-1.5,1.5h1.9v-1.2h0.7v1.2h2.3v0.7h-2.3v1.9h-0.7v-1.9h-3.3V189.5z M271.6,184v1.4h1.5V184H271.6z
		 M272.8,187.4c0.2-0.4,0.3-0.8,0.3-1.4h-1.5v1.4H272.8z M273.8,186c0,0.5-0.1,1-0.2,1.4h1.7V186H273.8z M275.3,184h-1.5v1.4h1.5
		V184z"/>
	<path style="fill:#FF6600;" d="M281.2,182.5c-0.1,0.1-0.2,0.2-0.2,0.4c0.7,0.6,1.5,1.3,2.4,2.2l-0.5,0.6c-0.5-0.6-1.3-1.3-2.2-2.2
		c-0.6,0.9-1.3,1.7-2.1,2.4h4.1c0,0.6,0,1.3-0.1,2.1c0,0.9-0.5,1.3-1.5,1.3c-0.6,0-1,0-1.2,0c0-0.3-0.1-0.6-0.1-0.8
		c0.5,0,0.9,0,1.2,0c0.5,0,0.8-0.2,0.8-0.7c0-0.1,0-0.4,0-0.7c0-0.3,0-0.5,0-0.7h-2.6v3.8c-0.1,0.5,0.2,0.7,0.7,0.7h1.4
		c0.6,0,0.9-0.1,1-0.4c0.1-0.2,0.1-0.6,0.2-1.2c0.2,0.1,0.5,0.2,0.8,0.3c-0.1,0.6-0.2,1-0.2,1.2c-0.2,0.6-0.7,0.9-1.5,0.9h-1.7
		c-1,0.1-1.4-0.4-1.4-1.3V186c-0.1,0-0.1,0.1-0.2,0.2c-0.1,0.1-0.2,0.2-0.5,0.4c0-0.1-0.1-0.2-0.2-0.4c-0.1-0.2-0.2-0.3-0.2-0.3
		c1.4-1,2.4-2.2,3.1-3.5L281.2,182.5z M285.8,182.4h0.8v8.3c0,0.9-0.4,1.3-1.2,1.3c-0.4,0-0.9,0-1.5,0c0-0.3-0.1-0.6-0.2-0.9
		c0.2,0,0.4,0,0.7,0c0.3,0,0.5,0,0.7,0c0.5,0,0.8-0.2,0.7-0.6V182.4z M284.5,189.5h-0.7v-6.1h0.7V189.5z"/>
	<path style="fill:#FF6600;" d="M288.7,189.7l0.7,0.2c-0.2,0.4-0.4,0.9-0.7,1.4c-0.1,0.1-0.1,0.2-0.2,0.3c-0.2-0.1-0.4-0.2-0.7-0.3
		C288.2,190.9,288.5,190.3,288.7,189.7z M292.2,182.5l0.7-0.2c0.1,0.1,0.2,0.4,0.2,0.7c0.1,0.2,0.1,0.3,0.1,0.4h3.8v0.6h-1.8
		l0.4,0.2c-0.1,0.1-0.4,0.3-0.7,0.6c0.2-0.2,0.2-0.2-0.1,0.1h2.8v0.6h-9.7v-0.6h2.8c0,0-0.1-0.1-0.1-0.1c-0.2-0.2-0.4-0.4-0.7-0.6
		l0.3-0.2h-1.7v-0.6h4c0-0.1-0.1-0.3-0.2-0.5C292.3,182.7,292.2,182.5,292.2,182.5z M289.2,186.1h7.1v3.1h-3.7
		c0.4,0.3,0.8,0.7,1.1,1l-0.6,0.5c0,0-0.1-0.1-0.1-0.1c-0.4-0.4-0.7-0.8-1-1l0.5-0.4h-3.3V186.1z M289.9,186.7v0.7h5.6v-0.7H289.9z
		 M289.9,188v0.7h5.6V188H289.9z M290.3,189.6h0.7v1.1c-0.1,0.4,0.2,0.6,0.7,0.6h1.9c0.5,0,0.8-0.1,0.9-0.4c0.1-0.2,0.2-0.6,0.2-0.9
		c0.2,0.1,0.5,0.2,0.7,0.3c-0.1,0.4-0.2,0.6-0.2,0.9c-0.1,0.6-0.6,0.9-1.4,0.9h-2.2c-1,0.1-1.4-0.3-1.4-1.2V189.6z M291.5,184.6
		l-0.3,0.2h2.6c0.1-0.1,0.3-0.3,0.5-0.5c0.2-0.2,0.4-0.4,0.5-0.5h-4.2C290.9,184.2,291.2,184.4,291.5,184.6z M296,190l0.5-0.4
		c0.2,0.2,0.5,0.5,0.9,0.9c0.2,0.2,0.3,0.3,0.4,0.4l-0.6,0.5c-0.1-0.2-0.3-0.4-0.6-0.7C296.3,190.5,296.1,190.2,296,190z"/>
	<path style="fill:#FF6600;" d="M298.4,190.5c1.3-0.2,2.5-0.4,3.6-0.6c0,0,0,0.1,0,0.3c0,0.2,0,0.4,0,0.5c-0.4,0.1-0.9,0.2-1.7,0.3
		c-0.7,0.1-1.3,0.2-1.7,0.2L298.4,190.5z M299.8,188.1c0.3,0,0.8-0.1,1.4-0.2c0.3-0.1,0.6-0.1,0.7-0.1c0,0.2,0,0.4-0.1,0.7
		c-1.5,0.2-2.5,0.3-2.9,0.5l-0.2-0.7c0.3-0.2,0.9-0.9,1.7-2.1c-0.1,0-0.1,0-0.2,0c-0.8,0.1-1.3,0.1-1.5,0.2l-0.2-0.7
		c0.5-0.4,1.1-1.5,1.8-3.3l0.8,0.3c-0.7,1.3-1.3,2.2-1.7,2.8c0.1,0,0.4,0,0.7,0c0.3-0.1,0.5-0.1,0.7-0.1c0.2-0.4,0.5-0.9,0.8-1.4
		l0.7,0.4C301.7,185.5,300.8,186.7,299.8,188.1z M301.4,191.6v-0.7h1.2v-8h4.8v8h0.9v0.7H301.4z M303.4,183.7v2h3.3v-2H303.4z
		 M303.4,186.3v2h3.3v-2H303.4z M303.4,189v1.9h3.3V189H303.4z"/>
</g>
<g id="alimama.com_拷贝_4_">
	<g>
		<path style="fill-rule:evenodd;clip-rule:evenodd;fill:#CBCBCB;" d="M419,277.1c-0.8,1.6-1.6,3.1-2.4,4.8h1.2
			c0.2-0.4,0.3-0.7,0.6-1.1c0.6,0,1.1,0,1.7,0c-0.1-0.4-0.2-0.6-0.3-0.9h-0.9c0.3-0.5,0.4-0.8,0.8-1.6c0.4,1.2,0.9,2.5,1.3,3.6h1.1
			c-0.6-1.7-1.1-3.1-1.7-4.8H419z M422.3,281.8h1l0.2-4.8l-1,0L422.3,281.8z M423.8,281.8h1.1l0.1-3.6h-1L423.8,281.8z M424.1,277.1
			l0,0.8c0,0,0.8,0,1,0l0-0.8C424.2,277.1,424.2,277.1,424.1,277.1z M430.6,278.3c-0.2-0.1-0.4-0.1-0.6-0.1c-0.1,0-0.2,0-0.3,0
			c-0.1,0-0.2,0.1-0.3,0.1c-0.1,0-0.2,0.1-0.2,0.1c-0.1,0.1-0.1,0.1-0.2,0.2c0,0.1-0.1,0.1-0.1,0.2c0-0.1-0.1-0.2-0.1-0.3
			c0-0.1-0.1-0.1-0.1-0.2c-0.1,0-0.1-0.1-0.2-0.1c-0.1,0-0.2-0.1-0.3-0.1c-0.1,0-0.2,0-0.3,0c-0.1,0-0.3,0-0.4,0.1
			c-0.1,0-0.2,0.1-0.3,0.1c-0.1,0.1-0.2,0.1-0.2,0.2c-0.1,0.1-0.1,0.2-0.2,0.3l0-0.6h-0.9l-0.2,3.6c0,0,0.8,0,1,0c0-0.3,0-0.7,0-1.2
			c0-0.5,0.1-0.9,0.1-1c0.1-0.2,0.1-0.3,0.3-0.4c0.1-0.1,0.3-0.2,0.4-0.2c0.1,0,0.2,0,0.2,0c0.1,0,0.1,0.1,0.2,0.1
			c0.1,0.1,0.1,0.1,0.1,0.2c0,0.1,0,0.2,0,0.3c0,0.2,0,0.6,0,1.1c0,0.6-0.1,0.9-0.1,1.1c0.2,0,0.8,0,1,0l0-1c0-0.3,0-0.6,0-0.8
			c0-0.2,0-0.4,0.1-0.5c0-0.1,0.1-0.2,0.2-0.3c0.1-0.1,0.2-0.2,0.2-0.2c0.1,0,0.2-0.1,0.3-0.1c0.1,0,0.2,0,0.3,0.1
			c0.1,0,0.1,0.1,0.2,0.2c0.1,0.1,0.1,0.2,0.1,0.4c0,0.1,0,0.3,0,0.5l0,0.8c0,0.3,0,0.6-0.1,0.9c0.2,0,0.8,0,1,0c0-0.3,0-0.6,0-1.1
			c0-0.5,0-0.8,0.1-1.1c0-0.2,0-0.4,0-0.5c0-0.2-0.1-0.4-0.2-0.5C430.9,278.5,430.8,278.4,430.6,278.3z M434.4,278.3
			c-0.2-0.1-0.5-0.1-0.7-0.1c-0.2,0-0.5,0-0.7,0c-0.2,0-0.8,0.2-0.8,0.2l-0.1,0.7c0,0,1-0.3,1.4-0.3c0.1,0,0.2,0,0.3,0
			c0.1,0,0.2,0.1,0.2,0.1c0.1,0.1,0.1,0.1,0.1,0.2c0,0,0,0.1,0,0.1c0,0-0.1,0.1-0.1,0.1c0,0-0.1,0.1-0.1,0.1c-0.1,0-0.1,0.1-0.2,0.1
			c-0.1,0-0.2,0-0.3,0.1c-0.3,0.1-0.6,0.1-0.8,0.2c-0.2,0.1-0.4,0.1-0.5,0.2c-0.1,0.1-0.2,0.2-0.3,0.2c-0.1,0.1-0.1,0.2-0.2,0.3
			c0,0.1-0.1,0.2-0.1,0.3c0,0.2,0,0.3,0.1,0.5c0.1,0.2,0.2,0.3,0.4,0.4c0.2,0.1,0.4,0.1,0.7,0.1c0.1,0,0.2,0,0.3,0
			c0.1,0,0.2,0,0.4-0.1c0.1-0.3,0.1-0.5,0.2-0.6c-0.1,0-0.3,0.1-0.3,0.1c-0.1,0-0.2,0-0.2,0c-0.1,0-0.2,0-0.3,0
			c-0.1,0-0.2-0.1-0.2-0.1c-0.1-0.1-0.1-0.2-0.1-0.3c0-0.1,0-0.1,0-0.2c0-0.1,0.1-0.1,0.1-0.2c0,0,0.1-0.1,0.2-0.1
			c0.1,0,0.2-0.1,0.2-0.1c0.1,0,0.2-0.1,0.4-0.1c0.1,0,0.3-0.1,0.3-0.1c0.1,0,0.1,0,0.2-0.1c0,0,0.1-0.1,0.2-0.1l-0.1,1.8h1
			c0,0,0-1.1,0.1-1.7c0-0.5,0.1-0.9,0.1-1c0-0.2-0.1-0.4-0.2-0.6C434.8,278.4,434.6,278.4,434.4,278.3z M440.6,278.3
			c-0.2-0.1-0.4-0.1-0.6-0.1c-0.1,0-0.2,0-0.3,0c-0.1,0-0.2,0.1-0.3,0.1c-0.1,0-0.2,0.1-0.2,0.1c-0.1,0.1-0.1,0.1-0.2,0.2
			c0,0.1-0.1,0.1-0.1,0.2c0-0.1-0.1-0.2-0.1-0.3c0-0.1-0.1-0.1-0.1-0.2c-0.1,0-0.1-0.1-0.2-0.1c-0.1,0-0.2-0.1-0.3-0.1
			c-0.1,0-0.2,0-0.3,0c-0.1,0-0.3,0-0.4,0.1c-0.1,0-0.2,0.1-0.3,0.1c-0.1,0.1-0.2,0.1-0.2,0.2c-0.1,0.1-0.1,0.2-0.2,0.3l0-0.6h-1
			l-0.2,3.6h1c0,0,0-0.7,0-1.2c0-0.5,0.1-0.9,0.1-1c0.1-0.2,0.1-0.3,0.3-0.4c0.1-0.1,0.3-0.2,0.4-0.2c0.1,0,0.2,0,0.2,0
			c0.1,0,0.1,0.1,0.2,0.1c0,0.1,0.1,0.1,0.1,0.2c0,0.1,0,0.2,0,0.3c0,0.2,0,0.6,0,1.1c0,0.6-0.1,0.9-0.1,1.1c0.2,0,0.8,0,1,0l0-1
			c0-0.3,0-0.6,0-0.8c0-0.2,0-0.4,0.1-0.5c0-0.1,0.1-0.2,0.2-0.3c0.1-0.1,0.2-0.2,0.2-0.2c0.1,0,0.2-0.1,0.3-0.1
			c0.1,0,0.2,0,0.3,0.1c0.1,0,0.1,0.1,0.2,0.2c0.1,0.1,0.1,0.2,0.1,0.4c0,0.1,0,0.3,0,0.5l0,0.8c0,0.3,0,0.6-0.1,0.9
			c0.2,0,0.8,0,1,0c0-0.3,0-0.6,0-1.1c0-0.5,0-0.8,0.1-1.1c0-0.2,0-0.4,0-0.5c0-0.2-0.1-0.4-0.2-0.5
			C441,278.5,440.8,278.4,440.6,278.3z M444.4,278.3c-0.2-0.1-0.5-0.1-0.7-0.1c-0.2,0-0.5,0-0.7,0c-0.2,0-0.8,0.2-0.8,0.2l-0.1,0.7
			c0,0,1-0.3,1.4-0.3c0.1,0,0.2,0,0.3,0c0.1,0,0.2,0.1,0.2,0.1c0.1,0.1,0.1,0.1,0.1,0.2c0,0,0,0.1,0,0.1c0,0-0.1,0.1-0.1,0.1
			c0,0-0.1,0.1-0.1,0.1c-0.1,0-0.1,0.1-0.2,0.1c-0.1,0-0.2,0-0.3,0.1c-0.3,0.1-0.6,0.1-0.8,0.2c-0.2,0.1-0.4,0.1-0.5,0.2
			c-0.1,0.1-0.2,0.2-0.3,0.2c-0.1,0.1-0.1,0.2-0.2,0.3c0,0.1-0.1,0.2-0.1,0.3c0,0.2,0,0.3,0.1,0.5c0.1,0.2,0.2,0.3,0.4,0.4
			c0.2,0.1,0.4,0.1,0.7,0.1c0.1,0,0.2,0,0.3,0c0.1,0,0.2,0,0.4-0.1c0.1-0.3,0.1-0.5,0.2-0.6c-0.1,0-0.3,0.1-0.3,0.1
			c-0.1,0-0.2,0-0.2,0c-0.1,0-0.2,0-0.3,0c-0.1,0-0.2-0.1-0.2-0.1c-0.1-0.1-0.1-0.2-0.1-0.3c0-0.1,0-0.1,0-0.2s0.1-0.1,0.1-0.2
			c0,0,0.1-0.1,0.2-0.1c0.1,0,0.2-0.1,0.2-0.1c0.1,0,0.2-0.1,0.4-0.1c0.1,0,0.3-0.1,0.3-0.1c0.1,0,0.1,0,0.2-0.1
			c0,0,0.1-0.1,0.2-0.1l-0.1,1.8h1c0,0,0-1.1,0.1-1.7c0-0.5,0.1-0.9,0.1-1c0-0.2-0.1-0.4-0.2-0.6
			C444.8,278.4,444.6,278.4,444.4,278.3z M445.6,280.9c0,0.5,0,0.8,0,0.9c0.3,0,1,0,1,0s0-0.8,0-0.9
			C446.3,280.9,445.6,280.9,445.6,280.9z M448.2,279.3c0.1-0.1,0.2-0.2,0.4-0.3c0.1-0.1,0.3-0.1,0.5-0.1c0.3,0,0.6,0.1,0.9,0.2
			l-0.1-0.8c-0.2-0.1-0.4-0.1-0.6-0.1c-0.2,0-0.3,0-0.5,0c-0.3,0-0.5,0-0.7,0.1c-0.2,0.1-0.4,0.2-0.6,0.3c-0.2,0.2-0.3,0.4-0.4,0.7
			c-0.1,0.3-0.1,0.6-0.1,0.8c0,0.2,0,0.4,0.1,0.6c0.1,0.2,0.1,0.4,0.3,0.5c0.1,0.1,0.2,0.3,0.4,0.4c0.2,0.1,0.3,0.2,0.5,0.2
			c0.2,0,0.4,0.1,0.5,0.1c0.3,0,0.7,0,1-0.1c0-0.2,0.1-0.3,0.1-0.5c0-0.1,0-0.2,0.1-0.3c-0.2,0.1-0.3,0.1-0.5,0.1
			c-0.2,0-0.3,0-0.4,0c-0.2,0-0.4,0-0.6-0.1c-0.2-0.1-0.3-0.2-0.4-0.4c-0.1-0.2-0.1-0.4-0.1-0.6c0-0.2,0-0.3,0.1-0.5
			C448,279.5,448.1,279.4,448.2,279.3z M453.5,278.7c-0.2-0.2-0.4-0.3-0.6-0.4c-0.2-0.1-0.5-0.1-0.8-0.1c-0.3,0-0.6,0.1-0.8,0.1
			c-0.3,0.1-0.5,0.2-0.7,0.4c-0.2,0.2-0.3,0.4-0.4,0.6c-0.1,0.2-0.1,0.5-0.1,0.7c0,0.3,0,0.5,0.1,0.7c0.1,0.2,0.2,0.4,0.4,0.6
			s0.4,0.3,0.6,0.4c0.2,0.1,0.5,0.1,0.8,0.1c0.3,0,0.6,0,0.8-0.1c0.3-0.1,0.5-0.2,0.6-0.4c0.2-0.2,0.3-0.4,0.4-0.6
			c0.1-0.2,0.1-0.5,0.1-0.8c0-0.3,0-0.5-0.1-0.7C453.8,279,453.7,278.8,453.5,278.7z M452.9,280.6c-0.1,0.2-0.2,0.3-0.4,0.4
			c-0.2,0.1-0.3,0.2-0.5,0.2c-0.2,0-0.4,0-0.5-0.1c-0.1-0.1-0.3-0.2-0.3-0.4c-0.1-0.2-0.1-0.3-0.1-0.5c0-0.2,0-0.4,0.1-0.6
			c0.1-0.2,0.2-0.3,0.4-0.4c0.2-0.1,0.3-0.1,0.5-0.1c0.2,0,0.4,0,0.5,0.1c0.1,0.1,0.2,0.2,0.3,0.4c0.1,0.2,0.1,0.3,0.1,0.5
			C453,280.2,453,280.4,452.9,280.6z M459.8,278.6c-0.1-0.1-0.2-0.2-0.4-0.3c-0.2-0.1-0.4-0.1-0.6-0.1c-0.1,0-0.2,0-0.3,0
			c-0.1,0-0.2,0.1-0.3,0.1c-0.1,0-0.2,0.1-0.2,0.1c-0.1,0.1-0.1,0.1-0.2,0.2c0,0.1-0.1,0.1-0.1,0.2c0-0.1-0.1-0.2-0.1-0.3
			c0-0.1-0.1-0.1-0.1-0.2c-0.1,0-0.1-0.1-0.2-0.1c-0.1,0-0.2-0.1-0.3-0.1c-0.1,0-0.2,0-0.3,0c-0.1,0-0.3,0-0.4,0.1
			c-0.1,0-0.2,0.1-0.3,0.1c-0.1,0.1-0.2,0.1-0.2,0.2c-0.1,0.1-0.1,0.2-0.2,0.3l0-0.6c-0.2,0-0.7,0-0.9,0c0,0.4-0.1,3.2-0.2,3.6
			c0.2,0,0.8,0,1,0c0-0.3,0-0.7,0-1.2c0-0.5,0.1-0.9,0.1-1c0.1-0.2,0.1-0.3,0.3-0.4c0.1-0.1,0.3-0.2,0.4-0.2c0.1,0,0.2,0,0.2,0
			c0.1,0,0.1,0.1,0.2,0.1c0.1,0.1,0.1,0.1,0.1,0.2c0,0.1,0,0.2,0,0.3c0,0.2,0,0.6,0,1.1c0,0.6-0.1,0.9-0.1,1.1c0.2,0,0.8,0,1,0l0-1
			c0-0.3,0-0.6,0-0.8c0-0.2,0-0.4,0.1-0.5c0-0.1,0.1-0.2,0.2-0.3c0.1-0.1,0.2-0.2,0.2-0.2c0.1,0,0.2-0.1,0.3-0.1
			c0.1,0,0.2,0,0.3,0.1c0.1,0,0.1,0.1,0.2,0.2c0.1,0.1,0.1,0.2,0.1,0.4c0,0.1,0,0.3,0,0.5l0,0.8c0,0.3,0,0.6-0.1,0.9
			c0.2,0,0.8,0,1,0c0-0.3,0-0.6,0-1.1c0-0.5,0-0.8,0.1-1.1c0-0.2,0-0.4,0-0.5C460,278.9,459.9,278.8,459.8,278.6z"/>
	</g>
</g>
<g id="阿里妈妈_拷贝_4_">
	<g>
		<path style="fill-rule:evenodd;clip-rule:evenodd;fill:#FF6600;" d="M420.8,267.1c1.5,0,3,0,4.5,0c0,2.2,0,4.5,0,6.6
			c0,0.1-0.2,0.3-0.3,0.3c-0.2,0-0.3,0-0.6,0v1.1c0.3,0,0.6,0,1,0c0.9,0,1.4-0.4,1.4-1.1c0-1.7,0-5.1,0-6.8h0.5v-1h-6.4V267.1z
			 M443.6,271.9c-0.4,0-1,0.4-1,1c1.3,0,3.4,0,4.8,0c0,0.3,0,0.5,0,0.9c0.5,0,0.3,0,0.8,0c0.3,0,0.7-0.2,0.7-0.7c0-1.1,0-2,0-3.2
			c-0.2,0-0.4,0-0.6,0c0-0.9,0-2.6,0-3.3c0-0.3-0.3-0.6-0.6-0.6h-4.7v1h3.6c0,0.9,0,1.9,0,2.8c-0.9,0-1,0-1.7,0
			c-0.1,0-0.2-0.1-0.2-0.2c0-0.5,0-1.2,0-1.8c0-0.1-0.1-0.3-0.4-0.3h-1.1v2.5c0,0.5,0.4,0.9,0.9,0.9c0,0,1.8,0,3.4,0v0.9H443.6z
			 M424.6,272.2c0-1.2,0-2.8,0-4.4h-3.7v5.6c1.1,0,2.5,0,2.5,0C424.2,273.4,424.6,272.9,424.6,272.2z M423,272.4c-0.3,0-0.6,0-0.9,0
			v-3.5c0.4,0,0.9,0,1.3,0c0,1.1,0,2.3,0,3.2C423.3,272.2,423.2,272.4,423,272.4z M416.6,266.3c0,2,0,4.7,0,8.7h1.4c0-2.5,0-5.3,0-8
			c0.3,0,0.7,0,1,0c0,1.5,0,2.9,0,4.3c0,0.6-0.5,0.8-0.5,0.8v1.1c1,0,1.8-1,1.8-1.9c0-1.6,0-3.7,0-5.4c-1.2,0-2.2,0-3.4,0
			C416.6,266.1,416.6,266.3,416.6,266.3z M459.5,269.9c0-0.9,0-2.6,0-3.3c0-0.3-0.3-0.6-0.6-0.6h-4.7v1c1.2,0,2.4,0,3.6,0v2.8
			c-0.9,0-1,0-1.7,0c-0.1,0-0.2-0.1-0.2-0.2c0-0.5,0-1.2,0-1.8c0-0.1-0.1-0.3-0.4-0.3c-0.3,0-0.7,0-1.1,0v2.5c0,0.5,0.4,0.9,0.9,0.9
			c0,0,1.8,0,3.4,0v0.9H455c-0.4,0-1.1,0.4-1.1,1c1.3,0,3.3,0,4.7,0v1c0,0.2-0.1,0.2-0.3,0.2h-0.5c0,0.5,0,0.7,0,1h0.8
			c0.3,0,0.2,0,0.5,0c0.7,0,1-0.5,1-0.9c0-1.3,0-3,0-4.3C459.9,269.9,459.7,269.9,459.5,269.9z M452.8,273.4
			c0.5-0.6,0.8-1.2,0.8-2.4c0-1.3,0-2.6,0-4c0-0.1-0.1-0.3-0.3-0.3c-0.5,0-1.2,0-1.8,0v-0.6h-1.4c0,0.2,0,0.4,0,0.6
			c-0.1,0-0.3,0-0.5,0v1h0.5v3.2c0,1.2,0.4,1.9,0.9,2.4c-0.6,0.4-1.2,0.7-2.1,0.7c-0.1,0-0.2,0-0.4,0c-1.3,0-2.9,0-4.2,0
			c-1.3,0-2.5-0.2-3-0.8c0.4-0.6,0.7-1.1,0.8-2.3c0-1.2,0-2.3,0-3.9c0-0.2-0.2-0.3-0.3-0.3c-0.5,0-1.1,0-1.8,0v-0.6
			c-0.6,0-0.8,0-1.3,0v0.6c-0.2,0-0.3,0-0.5,0v1c0.2,0,0.3,0,0.5,0c0,1.1,0,2.2,0,3.2c0.1,1.2,0.5,1.6,1,2.4
			c-0.7,0.5-1.5,0.7-2.5,0.8c-1.2,0-2.2,0-3.7,0c0-0.3,0-0.6,0-0.8h3.7v-1.1h-3.7c0-0.3,0-0.5,0-0.8c1.1,0,2.5,0,2.8,0
			c0,0,0.9,0,0.9-1c0-1,0-2.9,0-4.3c-2.9,0-5.9,0-8.9,0c-0.1,0-0.3,0.2-0.3,0.3c0,0.2,0,3.5,0,5c1.2,0,2.5,0,3.7,0v0.8h-3.7
			c0,0.3,0,0.7,0,1.1h3.7c0,0.3,0,0.5,0,0.8h-4.4c0,0.3,0,0.7,0,1c3.3,0,7.3,0,10.5,0c0.9,0,1.9-0.4,2.7-0.9c1,0.7,2,0.9,3.8,0.9
			c0.5,0,1.1,0,1.8,0c0.9,0,1.7,0,2.5,0c1.5,0,2.4-0.3,3.3-0.8c0.8,0.5,1.6,0.8,2.9,0.8v0h2v-1h-2
			C454.1,274,453.4,273.8,452.8,273.4z M431.9,270.4h-2.3v-1.1h2.3V270.4z M431.9,268.2h-2.3v-1.1c0.8,0,1.5,0,2.3,0V268.2z
			 M433.6,267.1h2.3v1.1h-2.3V267.1z M433.6,269.3c0.8,0,1.5,0,2.3,0c0,0.4,0,0.8,0,1.1h-2.3C433.6,270.1,433.6,269.6,433.6,269.3z
			 M441,270.9c0,0.7-0.2,0.9-0.3,1.4c-0.2-0.4-0.4-0.6-0.5-1.4c0-0.9,0-2.2,0-3.2h0.8V270.9z M452.4,270.9c0,0.7-0.2,1-0.4,1.4
			c-0.2-0.4-0.4-0.7-0.4-1.4c0-1,0-2.2,0-3.2h0.8C452.4,268.8,452.4,269.9,452.4,270.9z"/>
	</g>
</g>
<g id="矩形_5_拷贝__x2B__v_xA0_剪贴路径_48_">
	<rect x="2.1" y="1.8" style="fill:none;" width="69.3" height="297"/>
</g>
<g id="矩形_5_拷贝__x2B__v_xA0_剪贴路径_47_">
	<rect x="1.5" y="1.8" style="fill:none;" width="69.3" height="297"/>
</g>
<g id="矩形_5_拷贝__x2B__v_xA0_剪贴路径_46_">
	<rect x="2.1" y="1.8" style="fill:none;" width="69.3" height="297"/>
</g>
<g id="矩形_5_拷贝__x2B__v_xA0_剪贴路径_45_">
	<rect x="1.5" y="1.8" style="fill:none;" width="69.3" height="297"/>
</g>
<g id="矩形_5_拷贝__x2B__v_xA0_剪贴路径_44_">
	<rect x="2.1" y="1.8" style="fill:none;" width="69.3" height="297"/>
</g>
<g id="矩形_5_拷贝__x2B__v_xA0_剪贴路径_43_">
	<rect x="1.5" y="1.8" style="fill:none;" width="69.3" height="297"/>
</g>
<g id="矩形_5_拷贝__x2B__v_xA0_剪贴路径_42_">
	<rect x="2.1" y="1.8" style="fill:none;" width="69.3" height="297"/>
</g>
<g id="矩形_5_拷贝__x2B__v_xA0_剪贴路径_41_">
	<rect x="1.5" y="1.8" style="fill:none;" width="69.3" height="297"/>
</g>
<g id="矩形_5_拷贝__x2B__v_xA0_剪贴路径_40_">
	<rect x="2.1" y="1.8" style="fill:none;" width="69.3" height="297"/>
</g>
<g id="矩形_5_拷贝__x2B__v_xA0_剪贴路径_39_">
	<rect x="1.5" y="1.8" style="fill:none;" width="69.3" height="297"/>
</g>
<g id="矩形_5_拷贝__x2B__v_xA0_剪贴路径_38_">
	<rect x="2.1" y="1.8" style="fill:none;" width="69.3" height="297"/>
</g>
<g id="矩形_5_拷贝__x2B__v_xA0_剪贴路径_37_">
	<rect x="1.5" y="1.8" style="fill:none;" width="69.3" height="297"/>
</g>
<g id="矩形_5_拷贝__x2B__v_xA0_剪贴路径_36_">
	<rect x="2.1" y="1.8" style="fill:none;" width="69.3" height="297"/>
</g>
<g id="矩形_5_拷贝__x2B__v_xA0_剪贴路径_35_">
	<rect x="1.5" y="1.8" style="fill:none;" width="69.3" height="297"/>
</g>
<g id="矩形_5_拷贝__x2B__v_xA0_剪贴路径_34_">
	<rect x="2.1" y="1.8" style="fill:none;" width="69.3" height="297"/>
</g>
<g id="矩形_5_拷贝__x2B__v_xA0_剪贴路径_33_">
	<rect x="1.5" y="1.8" style="fill:none;" width="69.3" height="297"/>
</g>
<g id="矩形_5_拷贝__x2B__v_xA0_剪贴路径_32_">
	<rect x="2.4" y="1.4" style="fill:none;" width="69.3" height="297"/>
</g>
<g id="矩形_5_拷贝__x2B__v_xA0_剪贴路径_31_">
	<rect x="1.8" y="1.4" style="fill:none;" width="69.3" height="297"/>
</g>
<g id="矩形_5_拷贝__x2B__v_xA0_剪贴路径_30_">
	<rect x="2.4" y="1.4" style="fill:none;" width="69.3" height="297"/>
</g>
<g id="矩形_5_拷贝__x2B__v_xA0_剪贴路径_29_">
	<rect x="1.8" y="1.4" style="fill:none;" width="69.3" height="297"/>
</g>
<g id="矩形_5_拷贝__x2B__v_xA0_剪贴路径_28_">
	<rect x="2.4" y="1.4" style="fill:none;" width="69.3" height="297"/>
</g>
<g id="矩形_5_拷贝__x2B__v_xA0_剪贴路径_27_">
	<rect x="1.8" y="1.4" style="fill:none;" width="69.3" height="297"/>
</g>
<g id="矩形_5_拷贝__x2B__v_xA0_剪贴路径_26_">
	<rect x="2.4" y="1.4" style="fill:none;" width="69.3" height="297"/>
</g>
<g id="矩形_5_拷贝__x2B__v_xA0_剪贴路径_25_">
	<rect x="1.8" y="1.4" style="fill:none;" width="69.3" height="297"/>
</g>
<g id="矩形_5_拷贝__x2B__v_xA0_剪贴路径_24_">
	<rect x="2.4" y="1.4" style="fill:none;" width="69.3" height="297"/>
</g>
<g id="矩形_5_拷贝__x2B__v_xA0_剪贴路径_23_">
	<rect x="1.8" y="1.4" style="fill:none;" width="69.3" height="297"/>
</g>
<g id="矩形_5_拷贝__x2B__v_xA0_剪贴路径_22_">
	<rect x="2.4" y="1.4" style="fill:none;" width="69.3" height="297"/>
</g>
<g id="矩形_5_拷贝__x2B__v_xA0_剪贴路径_21_">
	<rect x="1.8" y="1.4" style="fill:none;" width="69.3" height="297"/>
</g>
<g id="矩形_5_拷贝__x2B__v_xA0_剪贴路径_20_">
	<rect x="2.4" y="1.4" style="fill:none;" width="69.3" height="297"/>
</g>
<rect x="2.1" y="1.4" style="fill:#FF6D00;" width="61.8" height="297"/>
<g id="矩形_5_拷贝__x2B__v_xA0_剪贴路径_19_">
	<rect x="1.8" y="1.4" style="fill:none;" width="69.3" height="297"/>
</g>
<g>
	<defs>
		<rect id="SVGID_1_" x="2.1" y="1.4" width="61.8" height="296.9"/>
	</defs>
	<clipPath id="SVGID_2_">
		<use xlink:href="#SVGID_1_"  style="overflow:visible;"/>
	</clipPath>
	<g style="clip-path:url(#SVGID_2_);">
		<defs>
			<polygon id="SVGID_3_" points="92.8,2.4 -32.2,1.4 -32.2,305.6 92.8,305.7 			"/>
		</defs>
		<clipPath id="SVGID_4_">
			<use xlink:href="#SVGID_3_"  style="overflow:visible;"/>
		</clipPath>
		<path style="clip-path:url(#SVGID_4_);fill:#F95E00;" d="M148.7,300.5c-0.6,0.9-1.3,1.7-2.2,2.4c0.3,0.6,0.5,1.2,0.7,1.8
			C147.8,303.3,148.3,301.9,148.7,300.5 M-15.1,275.6c-9.1,5.3-13.3,17.4-11.6,29.4c1.4,9.9,3.9,17.3,14.5,26.7
			c0,0,8.3,6.6,20.9,6.6c3.4,0,7.2-0.5,11.2-1.8c-0.4-0.2-0.7-0.5-1.1-0.8C11.4,331.1,3.8,325-2.4,317
			C-2.4,317-19.1,296.7-15.1,275.6 M83.5,222c-22.3,0-36.7,8-45.4,18.2c-1.2,1.4-2.3,2.7-3.4,4.1c6.6,1.4,12.8,4.3,18.3,7.8
			c6.5-2.8,13.1-4.8,19.7-5.7c4.1-0.6,8.2-0.9,12.4-0.9c29.9,0,60.6,15.2,65.4,39.7c-0.1-3.1-0.3-6.5-0.9-10.1
			c-4.6-31.5-34.9-52.9-65.8-53C83.7,222,83.6,222,83.5,222"/>
		<path style="clip-path:url(#SVGID_4_);fill:#F04400;" d="M85,245.5c-4.2,0-8.3,0.3-12.4,0.9c-6.5,0.9-13.2,2.9-19.7,5.7
			c12.1,7.5,21.2,17.8,25.3,21.6c11.7,11.2,20.3,15.1,31.9,15.1c1.7,0,3.5-0.1,5.3-0.2c1.3-0.1,2.6-0.1,3.9-0.1
			c15.6,0,23.8,7.1,27.1,14.4c0.8-0.7,1.5-1.5,2.2-2.4c1.2-4.4,1.9-9.5,1.8-15.3C145.6,260.7,114.9,245.5,85,245.5"/>
		<path style="clip-path:url(#SVGID_4_);fill:#E0E0E0;" d="M20.1,336.6C20,336.6,20,336.6,20.1,336.6c1.9,1.4,4,2.5,6.2,3.5
			C24.3,339,22.2,337.8,20.1,336.6"/>
		<path style="clip-path:url(#SVGID_4_);fill:#E0E0E0;" d="M18.9,335.8c0.4,0.3,0.7,0.5,1.1,0.8c0,0,0.1,0,0.1,0
			C19.7,336.3,19.3,336.1,18.9,335.8"/>
		<path style="clip-path:url(#SVGID_4_);fill:#FC6800;" d="M25.8,243.3c-7.7,0-15.8,2.3-24.1,8.1c-10.4,7.4-15.2,15.9-16.8,24.2
			c3.1-1.8,6.7-2.8,10.9-2.8l0.1,0h0.2c21.6,0,25.8-12.4,38.6-28.6C31.8,243.6,28.8,243.3,25.8,243.3"/>
		<path style="clip-path:url(#SVGID_4_);fill:#F65A00;" d="M34.7,244.3c-12.8,16.2-17,28.6-38.6,28.6h-0.2l-0.1,0
			c-4.2,0-7.8,1-10.9,2.8c-4,21.1,12.7,41.3,12.7,41.3c6.2,8,13.8,14.1,21.3,18.8c-7.4-5.4-12.7-13.3-14-22.2
			c-3.4-23.3,20.8-49.7,48.1-61.6C47.5,248.6,41.3,245.7,34.7,244.3"/>
		<path style="clip-path:url(#SVGID_4_);fill:#F04400;" d="M147.3,304.7c-3.6,8.9-9.8,14.6-16.6,18.6c-6.6,3.9-15.3,5-23.2,5
			c-11.3,0-21.1-2.3-21.1-2.3s-3.4-0.8-8.5-1.5c-9.7,6.9-21.7,15.9-28.3,17.5c-2.9,0.7-5.9,1.1-8.8,1.1c-5,0-10-1.1-14.5-3
			c13.6,7,25.2,9.5,25.2,9.5c9.6,1.7,18.6,2.5,26.9,2.5c24,0,42.1-6.4,53.4-14.5c11.6-8.3,16.7-19,16.6-26.8
			C148.4,308.8,148,306.8,147.3,304.7"/>
		<path style="clip-path:url(#SVGID_4_);fill:#F04400;" d="M146.5,302.8c-9.6,8.2-33.1,4.6-56.2,13.7c-2.7,1.1-7.2,4.2-12.4,7.9
			c5.1,0.8,8.5,1.5,8.5,1.5s9.8,2.3,21.1,2.3c7.9,0,16.6-1.1,23.2-5c6.8-4,13-9.8,16.6-18.6C147.1,304.1,146.8,303.5,146.5,302.8"/>
		<path style="clip-path:url(#SVGID_4_);fill:#F04400;" d="M59.2,323c-9.3,0-18.9,1.4-24.9,5.9c-5,3.8-9.8,6.2-14.3,7.7
			c2.1,1.3,4.2,2.4,6.2,3.5c4.5,1.9,9.4,3,14.5,3c2.9,0,5.9-0.3,8.8-1.1c6.6-1.7,18.6-10.6,28.3-17.5C72.8,323.7,66.1,323,59.2,323"
			/>
		<path style="clip-path:url(#SVGID_4_);fill:#F04400;" d="M53,252.1c-27.3,11.9-51.5,38.3-48.1,61.6c1.3,8.9,6.6,16.8,14,22.2
			c0.4,0.2,0.8,0.5,1.2,0.7c4.5-1.4,9.3-3.9,14.3-7.7c5.9-4.5,15.5-5.9,24.9-5.9c6.9,0,13.6,0.7,18.6,1.5c5.2-3.7,9.8-6.8,12.4-7.9
			c23.1-9.1,46.6-5.6,56.2-13.7c-3.3-7.3-11.5-14.4-27.1-14.4c-1.2,0-2.5,0-3.9,0.1c-1.9,0.1-3.6,0.2-5.3,0.2
			c-11.7,0-20.2-3.9-31.9-15.1C74.3,269.8,65.1,259.6,53,252.1"/>
	</g>
	<g id="矩形_10_24_" style="clip-path:url(#SVGID_2_);">
		<g>
			<path style="fill-rule:evenodd;clip-rule:evenodd;fill:#FB5701;" d="M70.1,6.4c-0.6-5.8-5.6-9.9-11.3-9.3
				c-4.8,0.5-8.5,4.4-9.1,9.1c-0.1,0.8-0.1,1.6,0,2.5c0.6,5.8,5.6,9.9,11.3,9.3c4.8-0.5,8.5-4.4,9.1-9.1C70.1,8.1,70.2,7.3,70.1,6.4
				z M46.6,18.4c-2.5-0.2-4.7,1.6-5,4c0,0.1,0,0.2,0,0.2c-0.2,2.5,1.7,4.7,4.3,4.9c2.5,0.2,4.7-1.6,5-4c0-0.1,0-0.2,0-0.2
				C51.2,20.8,49.2,18.6,46.6,18.4z"/>
		</g>
	</g>
</g>
<g id="矩形_5_拷贝__x2B__v_xA0_剪贴路径_18_">
	<rect x="2.4" y="1.4" style="fill:none;" width="69.3" height="297"/>
</g>
<g id="矩形_5_拷贝__x2B__v_xA0_剪贴路径_17_">
	<rect x="1.8" y="1.4" style="fill:none;" width="69.3" height="297"/>
</g>
<g>
	<defs>
		<rect id="SVGID_5_" x="2.1" y="25.1" width="61.8" height="263.2"/>
	</defs>
	<clipPath id="SVGID_6_">
		<use xlink:href="#SVGID_5_"  style="overflow:visible;"/>
	</clipPath>
	<ellipse style="opacity:0.3;clip-path:url(#SVGID_6_);fill:#60391F;" cx="30.9" cy="267.7" rx="56.7" ry="8.1"/>
	<g id="形状_14_24_" style="clip-path:url(#SVGID_6_);">
		<g>
			<path style="fill-rule:evenodd;clip-rule:evenodd;fill:#CC7123;" d="M105.4,179.5c-0.6-0.4-1.8-1.1-2.3-1.6
				c-0.7-0.7-1.1,0-0.4,0.6c0.9,0.7,2.7,1.6,4.2,1.9c0.5,0.1,0.8,0,0.8,0S106.6,180.2,105.4,179.5z"/>
		</g>
	</g>
	<path style="clip-path:url(#SVGID_6_);fill-rule:evenodd;clip-rule:evenodd;fill:#DD7528;" d="M22.5,305.7
		c-7.1,1.9-6.3,5.2-5.2,7.9c0.1,0.3,0.3,0.6,0.5,1c0.4,0.1,0.9,0.1,1.3,0.2c-2.5-5.7,1.1-7.4,4.2-8.6
		C24.7,305.7,23.5,305.5,22.5,305.7z"/>
	<path style="clip-path:url(#SVGID_6_);fill-rule:evenodd;clip-rule:evenodd;fill:#DD7528;" d="M22.9,305.5
		c-6.1,1.4-5.2,6.5-4.2,8.9c0.1,0.3,0.2,0.5,0.3,0.8c0.4,0,0.8,0,1.2,0c-1.7-5.2,0.5-7.5,2.3-8.7C23.4,305.8,25,305,22.9,305.5z"/>
	<path style="clip-path:url(#SVGID_6_);fill-rule:evenodd;clip-rule:evenodd;fill:#DD7528;" d="M156.7,314.5
		c0.1-0.2,0.2-0.5,0.3-0.7c0.8-2.6-0.1-7.2-5.1-8.5c-2.7-0.7-1.6,0.6-0.3,1c3,1,4.5,4.5,3.2,8.5
		C155.4,314.7,156.1,314.6,156.7,314.5z"/>
	<path style="clip-path:url(#SVGID_6_);fill-rule:evenodd;clip-rule:evenodd;fill:#DD7528;" d="M139,314.5c1.4-3.2,0.2-7.9-3.3-9.2
		c-1.4-0.3-0.1,0.9,0.9,1.9c1.3,1.4,2,4.7,0.8,7.2c-0.2,0.4-0.3,0.6-0.4,0.8c0.5,0,1,0,1.5,0C138.8,315,138.9,314.8,139,314.5z"/>
	<g id="形状_13_21_" style="clip-path:url(#SVGID_6_);">
		<g>
			<path style="fill:#FF9B48;" d="M23,139.3c0,0-10,4.3-20,14.1c-12.9,11.7-20,18.4-26.1,20.2c-1,0.5-4.5,1.7-6.8,2.3
				c-3,0.8-6.2,0.8-7.2,1.9c-0.5,0.6-0.2,1.5,0.3,1.9c0.5,0.4,2.1,0.4,2.1,0.4s-4.4,1.3-2.8,4c1.5,2.5,11.5-4.6,11.9-1.5
				c0.2,1.7-5.3,2.9-2.7,5c1.2,0.9,5.2-1.4,8-3.9c2-1.8,4-4.9,10.2-9.3c5.1-3.5,14.6-9.2,24.7-13.4C37.2,151.7,23,139.3,23,139.3z"
				/>
		</g>
	</g>
	<g id="形状_13_17_" style="clip-path:url(#SVGID_6_);">
		<g>
			<path style="fill-rule:evenodd;clip-rule:evenodd;fill:#FF9B48;" d="M100.9,180.1c0,0,1.6,0,2.1-0.4c0.5-0.4,0.8-1.3,0.3-1.9
				c-1-1.1-4.1-1.2-7.2-1.9c-2.3-0.6-5.8-1.7-6.8-2.3c-6-1.8-13.1-8.6-26.1-20.2c-9.9-9.8-20.7-14.2-20.7-14.2s-13.5,12.5,9.1,21.9
				c10.1,4.2,19.6,9.9,24.7,13.4c6.3,4.3,8.2,7.5,10.2,9.3c2.8,2.5,6.8,4.8,8,3.9c2.6-2.1-2.9-3.3-2.7-5c0.4-3.1,10.4,3.9,11.9,1.5
				C105.3,181.4,100.9,180.1,100.9,180.1z"/>
		</g>
	</g>
	
		<radialGradient id="SVGID_7_" cx="57.2701" cy="-370.3535" r="98.9036" gradientTransform="matrix(0.473 0 0 0.4397 7.7537 324.6925)" gradientUnits="userSpaceOnUse">
		<stop  offset="0" style="stop-color:#FFC07D"/>
		<stop  offset="0.5713" style="stop-color:#FEB162"/>
		<stop  offset="1" style="stop-color:#FEA852"/>
	</radialGradient>
	<path style="clip-path:url(#SVGID_6_);fill-rule:evenodd;clip-rule:evenodd;fill:url(#SVGID_7_);" d="M103.5,269.6
		c-6.7,2.4-20.7,1.5-28.8,1.1c-8.4-0.4-26.2-2.9-29.5-3.8c-7-1.9-3-6.3-2.4-9.4c0.7-3.2,1-6.5,0.9-10c-0.1-1.2-0.1-3.4-2.2-3.2
		c-2.2,0.7-4.3,1.1-6.3,1.2c0,0,0,0,0,0c-0.2,0-0.3,0-0.5,0c-0.1,0-0.2,0-0.3,0c-0.1,0-0.2,0-0.3,0c-0.1,0-0.3,0-0.5,0
		c-0.1,0-0.1,0-0.2,0c-0.1,0-0.3,0-0.5,0c-0.1,0-0.2,0-0.2,0c-0.1,0-0.2,0-0.4,0c-0.1,0-0.2,0-0.4,0c-0.1,0-0.2,0-0.2,0
		c-0.2,0-0.3,0-0.5,0c-0.1,0-0.1,0-0.2,0c-0.2,0-0.3,0-0.5,0c-0.1,0-0.2,0-0.3,0c-0.1,0-0.2,0-0.3,0c-0.2,0-0.3,0-0.5,0c0,0,0,0,0,0
		c-1.9-0.2-4-0.6-6.3-1.2c-2.1-0.1-2.1,2.1-2.2,3.2c-0.2,3.5,0.2,6.7,0.9,10c0.7,3.2,4.7,7.5-2.4,9.4c-3.3,0.9-22.8,3.3-31.2,3.9
		c-9,0.6-23.8,0.7-28.1-1.1c-2.4-1-2.5-7,3.9-10.3c8-4.1,41.2-2.3,43.3-2.4c4.6-0.3,3.7-1.8,3.7-4.1c0.1-4.3-3.5-6.6-6.5-8.5
		c-3-1.9-18.3-8.6-18.3-23.4c0-7.6,2.1-17.9,11.9-32.5C22.4,152.9,23.3,133,23.3,133l1.9-0.1c0.1-0.4,0.1-0.6,0.1-0.6l7.1,0.3
		l7.1-0.3c0,0,0,0.2,0.1,0.6l1.9,0.1c0,0,0.9,19.9,24.8,55.5c9.8,14.6,11.9,24.9,11.9,32.5c0,14.8-15.2,21.5-18.3,23.4
		c-3,1.9-6.6,4.1-6.5,8.5c0,2.3-0.7,4.4,3.9,4.5c2.2,0,35.2-2,43.2,2C107,262.7,105.9,268.8,103.5,269.6z"/>
	<path style="clip-path:url(#SVGID_6_);fill-rule:evenodd;clip-rule:evenodd;fill:#DD7528;" d="M-218.1,261.8
		c-5.9,1.3-5,6.3-4.1,8.7c0.1,0.3,0.2,0.5,0.3,0.7c0.4,0,0.8,0,1.2,0c-1.7-5.1,0.5-7.3,2.2-8.5
		C-217.5,262.1-215.9,261.3-218.1,261.8z"/>
	<path style="clip-path:url(#SVGID_6_);fill-rule:evenodd;clip-rule:evenodd;fill:#DD7528;" d="M-95.8,270.6
		c0.1-0.2,0.2-0.4,0.3-0.7c0.8-2.5-0.1-7-4.9-8.2c-2.7-0.7-1.5,0.6-0.3,0.9c2.9,1,4.4,4.4,3.1,8.3
		C-97.1,270.8-96.4,270.7-95.8,270.6z"/>
	<path style="clip-path:url(#SVGID_6_);fill-rule:evenodd;clip-rule:evenodd;fill:#DD7528;" d="M-104.9,270.5c1.4-3.1,0.2-7.7-3.2-9
		c-1.3-0.3-0.1,0.8,0.9,1.8c1.3,1.3,2,4.6,0.8,7c-0.2,0.3-0.3,0.6-0.4,0.8c0.5,0,1,0,1.4,0C-105.2,271-105,270.8-104.9,270.5z"/>
	<g id="形状_12_9_" style="clip-path:url(#SVGID_6_);">
		<g>
			
				<linearGradient id="SVGID_8_" gradientUnits="userSpaceOnUse" x1="128.966" y1="300.2685" x2="128.2386" y2="234.8013" gradientTransform="matrix(1 0 0 1 -96.25 -97.5)">
				<stop  offset="0" style="stop-color:#FFC28A"/>
				<stop  offset="0.7938" style="stop-color:#FFCD9F"/>
				<stop  offset="1" style="stop-color:#FFD0A5"/>
			</linearGradient>
			<path style="fill-rule:evenodd;clip-rule:evenodd;fill:url(#SVGID_8_);" d="M43.8,159.8c-5-8.1-17.3-7.3-22.2,0.6
				c-5.9,9.6-13,35.6-8,50.4c4.2,12.2,33.2,13,37.7,1.3C57.3,196.4,49,168.4,43.8,159.8z"/>
		</g>
	</g>
	<path style="opacity:0.6;clip-path:url(#SVGID_6_);fill-rule:evenodd;clip-rule:evenodd;fill:#DD7528;" d="M-1.4,197.6
		c0,0,13.4,3.3,35,3.3c20.4,0,24.1-1.2,34.8-3.6C68.8,197.6,35.6,255.3-1.4,197.6z"/>
	<g id="形状_11_拷贝_2_9_" style="clip-path:url(#SVGID_6_);">
		<g>
			<path style="fill-rule:evenodd;clip-rule:evenodd;fill:#FFBF80;" d="M67.6,197.6c-0.3,0.2-0.6,0.3-0.9,0.4
				c-9.9,4.4-21.6,5.8-30.8,6.1c-9,0.1-22.4-0.7-33.4-5.1c-1-0.4-2.3-0.8-3.3-1.3c-2.5-1.2-3,1.9-3,3.8c0.1,7.9,1.9,32.9,24.6,41.4
				c0.9,0.6,3.7,2,9.3,2.3c1.8,0.3,3.9,0.2,6,0c0.2,0,0.4,0,0.7,0c3.4-0.4,6.5-1.2,9.2-2.4c0.2-0.1,0.3-0.1,0.3-0.1v0
				c17.2-7.6,22.1-29.6,23.5-40.3c0.1-0.8,0.2-1.5,0.2-2.2C70.4,197.3,68.5,197.1,67.6,197.6z"/>
		</g>
	</g>
	<path style="opacity:0.6;clip-path:url(#SVGID_6_);fill-rule:evenodd;clip-rule:evenodd;fill:#DD7528;" d="M41.6,133
		c-2.7,1.6-6.3,3.7-8.3,4c-3.1,0.5-6.5-0.1-10-4c0,0.3-0.1,1.6-0.6,4c1,3.2,3.1,6.6,7.7,7.1c5.4,0.6,9.4-3.7,11.8-7.5
		C41.7,134.3,41.7,133,41.6,133L41.6,133z"/>
	<g id="形状_9_9_" style="clip-path:url(#SVGID_6_);">
		<g>
			<path style="fill-rule:evenodd;clip-rule:evenodd;fill:#FFC07D;" d="M22.9,72.7C11.6,47.7-5.8,38-5.8,38s-4.5-2.8-5.1,0.3
				c-6.7,39.2,24.4,48,24.4,48S34.3,97.8,22.9,72.7z"/>
		</g>
	</g>
	<g id="形状_10_9_" style="clip-path:url(#SVGID_6_);">
		<g>
			<path style="fill-rule:evenodd;clip-rule:evenodd;fill:#FF9B48;" d="M19.4,78.5C15.1,59.3-1,52.6-1,52.6s-3.4-2.4-3.4,0.9
				c1.3,24.7,21.9,28.6,21.9,28.6S20.3,83,19.4,78.5z"/>
		</g>
	</g>
	<g id="形状_9_拷贝_9_" style="clip-path:url(#SVGID_6_);">
		<g>
			<path style="fill:#FFC07D;" d="M77.6,38.3c-0.6-3.1-5.1-0.3-5.1-0.3S55,47.6,43.6,72.7c-11.4,25,9.5,13.5,9.5,13.5
				S84.3,77.5,77.6,38.3z"/>
		</g>
	</g>
	<g id="形状_10_拷贝_11_" style="clip-path:url(#SVGID_6_);">
		<g>
			<path style="fill:#FF9B48;" d="M67.6,52.6c0,0-16.1,6.6-20.4,25.9c-1,4.5,1.8,3.7,1.8,3.7s20.6-3.9,22-28.6
				C70.9,50.2,67.6,52.6,67.6,52.6z"/>
		</g>
	</g>
	<g id="脸_21_" style="clip-path:url(#SVGID_6_);">
		<g>
			
				<radialGradient id="SVGID_9_" cx="257.6034" cy="-219.1884" r="63.8776" gradientTransform="matrix(0.4729 6.220947e-03 -4.328510e-03 0.3291 -89.4345 206.3879)" gradientUnits="userSpaceOnUse">
				<stop  offset="0" style="stop-color:#FECD97"/>
				<stop  offset="1" style="stop-color:#FFC07A"/>
			</radialGradient>
			<path style="fill:url(#SVGID_9_);" d="M56.4,95c-1.1-3.6-2.2-8.7-3.7-13c-3.4-9.7-11.1-12.8-19.4-12.7C24.9,69.5,17,73,13.9,82.1
				c-1.5,4.3-2.4,9.4-3.5,13c-1.1,3.6-3.6,18.8,2.6,28.3c0,0.1,2.7,3.3,7.6,8.3c4.1,4.1,6.4,7.4,11.6,7.7c0,0,0.1,0,0.1,0
				c0,0,0.1,0,0.1,0c0.4,0,0.9,0,1.3,0c0.1,0,0.2,0,0.2,0c6.5-0.4,8.6-4.5,12.6-8.1c5.2-4.7,7.2-7.9,7.2-7.9
				C60,113.8,57.5,98.6,56.4,95z"/>
		</g>
	</g>
	<path style="clip-path:url(#SVGID_6_);fill-rule:evenodd;clip-rule:evenodd;fill:#66361F;" d="M33,98.1c-0.1,0.1,9-2.6,12.9-12.5
		c0-0.2,4.1,7.4,10.7,10.4c-0.1-0.4-0.2-0.7-0.3-1c-1-4.3-1.9-8.4-3.4-12.7c-3.4-9.7-11.4-13.2-19.7-13.1C24.9,69.5,17,73,13.9,82.1
		c-1.5,4.3-2.8,9.8-3.5,13c0,0.2-0.1,0.3-0.1,0.5c2.2-0.3,6.2-2.1,10-9.5C20,86.1,21.9,92.7,33,98.1z"/>
	<path style="clip-path:url(#SVGID_6_);fill-rule:evenodd;clip-rule:evenodd;fill:#E5432E;" d="M55.2,90.8c-0.4-1.6-0.9-3.4-1.3-5.1
		c-3.2-4.2-9.9-10.9-20.3-10.8c-12,0.1-17.8,6.5-20.8,10.6c-0.4,1.6-0.8,3.2-1.2,4.7c2.8-2.9,10.3-9.3,22-9.3
		C44,81,51.4,87.3,55.2,90.8z"/>
	<g id="形状_3_拷贝_9_" style="clip-path:url(#SVGID_6_);">
		<g>
			<path style="fill-rule:evenodd;clip-rule:evenodd;fill:#E5432E;" d="M54.8,43.8c-0.4-0.6-0.8-0.4-1.2-0.3
				c-14.5,6.8-19,19.6-20.3,26c-1.9-7.7-7.1-19.6-20.4-26.1c-0.5-0.3-1.2-0.4-1.4,0.5c0,0-4.7,21.5,17.1,32.5
				c-4.5,3.5-9.3,7.9,4.6,2.1c15.1,6.4,8.9,1.2,4.5-2C59.7,65.5,54.8,43.8,54.8,43.8z"/>
		</g>
	</g>
	<g id="形状_73_9_" style="clip-path:url(#SVGID_6_);">
		<g>
			<path style="fill-rule:evenodd;clip-rule:evenodd;fill:#AA2D24;" d="M32.6,67c0,0-1,2.2-0.8,5c0.2,3.2,1,4.7,1,3.5
				c0-0.9,0.4-4.1,0.6-5.9C33.5,69,32.6,67,32.6,67z"/>
		</g>
	</g>
	<g id="形状_82_9_" style="clip-path:url(#SVGID_6_);">
		<g>
			<path style="fill-rule:evenodd;clip-rule:evenodd;fill:#C13021;" d="M42.6,76.8c-0.6-0.3-2.9-1.3-3.3-1.1c-2,1.3-4.2,3.5-1.2,2.7
				C40.2,77.9,43.3,77.1,42.6,76.8z M27.4,75.8c-0.8-0.2-3.4,0.9-3.4,0.9s1,0.5,2.2,0.9c1.2,0.3,3.9,1.3,3.7,0.6
				C29.7,77.3,28.6,76.1,27.4,75.8z"/>
		</g>
	</g>
	<path style="clip-path:url(#SVGID_6_);fill-rule:evenodd;clip-rule:evenodd;fill:#FFCE99;" d="M23.8,109.4
		c-2.5-6.1-6.3-7.4-8.9-6.9c-4.9,0.9-5.5,3.4-5.5,3.2c0-0.1-0.1-4.4,4-5.4c3.8-0.9,7.6,0.6,9.2,3.2c1.5,2.3,1.4,6,1.4,6"/>
	<path style="clip-path:url(#SVGID_6_);fill-rule:evenodd;clip-rule:evenodd;fill:#FFCE99;" d="M42.5,109.4c2.5-6.1,6.3-7.4,8.9-6.9
		c4.9,0.9,5.5,3.4,5.5,3.2c0-0.1,0.1-4.4-4-5.4c-3.8-0.9-7.6,0.6-9.2,3.2c-1.5,2.3-1.4,6-1.4,6"/>
	<g id="形状_4_21_" style="clip-path:url(#SVGID_6_);">
		<g>
			<path style="fill:#FFFFFF;" d="M17.9,102.9c-2-0.9-6.2-0.5-7.8,0.9c0,0-2.5,10.2,6.5,11.1c4.5,0.2,7-2.2,7.5-4.7
				C24.5,107.5,20.2,104,17.9,102.9z"/>
		</g>
	</g>
	<g id="形状_6_21_" style="clip-path:url(#SVGID_6_);">
		<g>
			<path style="fill-rule:evenodd;clip-rule:evenodd;fill:#512A15;" d="M22.3,105.3c0,0-2.3-3.1-5.3-3.9c-1.1-0.3-3.6,0.3-3.6,0.3
				s-3.6,3-0.9,8c1.6,2.6,4.1,3.8,6.3,3.5c2.7-0.3,4.3-2.2,4.5-4.4C23.5,106.8,22.3,105.3,22.3,105.3z"/>
		</g>
	</g>
	<g id="形状_48_9_" style="clip-path:url(#SVGID_6_);">
		<g>
			<path style="fill:#FFFFFF;" d="M11.6,109.3c-0.4,0.8,0,1.8,0.7,1.9c1.3,0.3,2.8-0.9,2.6-2.1C14.8,108.3,12.2,108.2,11.6,109.3z"
				/>
		</g>
	</g>
	<g id="形状_36_副本_21_" style="clip-path:url(#SVGID_6_);">
		<g>
			<path style="fill-rule:evenodd;clip-rule:evenodd;fill:#A85726;" d="M21.2,97c-3.3-1.4-6.7-0.9-6.2,0.4c0.2,0.6,1.9-0.4,4.6,0.4
				c3.7,1.2,3.5,3.2,4.4,3C25.5,100.4,23,97.8,21.2,97z"/>
		</g>
	</g>
	<g id="形状_4_17_" style="clip-path:url(#SVGID_6_);">
		<g>
			<path style="fill:#FFFFFF;" d="M56.6,103.9c-1.6-1.4-5.8-1.7-7.8-0.9c-4.8,1.8-6.6,4.6-6.1,7.3c0.4,2.6,3,4.9,7.5,4.7
				C59,114.1,56.6,103.9,56.6,103.9z"/>
		</g>
	</g>
	<g id="形状_6_17_" style="clip-path:url(#SVGID_6_);">
		<g>
			<path style="fill-rule:evenodd;clip-rule:evenodd;fill:#512A15;" d="M53.4,102.3c0,0-2-0.5-3.2-0.3c-3,0.7-5.5,2.6-5.5,2.6
				c0,0-0.9,3.3-0.4,4.7c1,2.7,1.9,3.8,4.7,3.9c2.2,0.1,4.8-0.8,5.7-3.9C55.9,105.6,53.4,102.3,53.4,102.3z"/>
		</g>
	</g>
	<g id="形状_48_副本_9_" style="clip-path:url(#SVGID_6_);">
		<g>
			<path style="fill:#FFFFFF;" d="M47,109.5c-0.6-1.1-3,0.2-3.1,1c-0.2,1.3,0.5,1.7,1.5,1.4C46.6,111.6,47.6,110.5,47,109.5z"/>
		</g>
	</g>
	<g id="形状_36_副本_17_" style="clip-path:url(#SVGID_6_);">
		<g>
			<path style="fill-rule:evenodd;clip-rule:evenodd;fill:#A85726;" d="M45.5,97c-1.9,0.8-4.3,3-3.3,3.7c1,0.7,1.6-1.6,4.2-2.5
				c3.2-1.1,5.6,0.1,5.8-0.7C52.5,96.2,48.8,95.6,45.5,97z"/>
		</g>
	</g>
	<g id="Shape_2_21_" style="clip-path:url(#SVGID_6_);">
		<g>
			<path style="fill-rule:evenodd;clip-rule:evenodd;fill:#9C6342;" d="M55.5,112.7c0.9-1.4,1-2.7,0.8-2.2c-0.6,1.2-1.4,2.6-3.2,3.4
				c-1.7,0.8-3.7,0.8-5.1,0.9c-1.2,0,2.4,0.9,5.1-0.1c0.2,0.1,0.5,0.2,0.8,0.3c0.4,0.2,1,0.6,1,0.4c-0.1-0.4-0.3-1-0.6-1.3
				c0.3-0.2,0.5-0.4,0.7-0.6c0.1,0,0.2,0,0.4,0.1c0.6,0.1,1.1,0.7,1.1,0.4C56.4,113.6,56,113,55.5,112.7z"/>
		</g>
	</g>
	<g id="形状_65_副本_21_" style="clip-path:url(#SVGID_6_);">
		<g>
			<path style="fill-rule:evenodd;clip-rule:evenodd;fill:#713D1F;" d="M60,102.7c-0.2,0.3-0.7,0.8-1.3,1.1c-0.5,0.2-1.3,0.4-2,0.2
				c0,0,0-0.1-0.1-0.1c-0.5-1-2.1-2.1-3.6-2.3c-2.4-0.5-4.5-0.2-6.3,0.6c-2.4,1.1-4,3.2-4.5,6.1c-0.2,1.2,0.1,1.9,0.4,0.9
				c0.9-2.6,1.7-4,4.1-5.3c1.9-1,4.2-1.7,7.5-0.1c1.1,0.6,1.8,1.7,2,2.5c0.1,0.3,0.4,1.3,0.5,0.6c0-0.3,0.1-0.6,0.1-1
				c0.2,0,0.6,0,1.2-0.2c0.5-0.2,1.3-0.8,1.6-1.5C60.3,103.4,60.3,102.2,60,102.7z"/>
		</g>
	</g>
	<g id="Shape_2_17_" style="clip-path:url(#SVGID_6_);">
		<g>
			<path style="fill-rule:evenodd;clip-rule:evenodd;fill:#9C6342;" d="M18.5,114.8c-1.4,0-3.4-0.1-5.1-0.9
				c-1.8-0.9-2.6-2.2-3.2-3.4c-0.3-0.5-0.1,0.9,0.8,2.2c-0.5,0.3-0.9,0.8-0.9,1.2c0,0.3,0.5-0.3,1.1-0.4c0.2,0,0.3,0,0.4-0.1
				c0.2,0.2,0.4,0.4,0.7,0.6c-0.3,0.3-0.6,0.9-0.6,1.3c0,0.2,0.6-0.2,1-0.4c0.3-0.2,0.6-0.3,0.8-0.3C16,115.7,19.7,114.8,18.5,114.8
				z"/>
		</g>
	</g>
	<g id="形状_65_副本_17_" style="clip-path:url(#SVGID_6_);">
		<g>
			<path style="fill-rule:evenodd;clip-rule:evenodd;fill:#713D1F;" d="M24,108.3c-0.5-2.9-2.1-5-4.5-6.1c-1.8-0.8-3.9-1.1-6.3-0.6
				c-1.4,0.3-2.7,1.2-3.2,1.9c-0.1,0.2-0.2,0.3-0.3,0.5c0,0,0,0,0,0c-0.7,0.3-1.6,0.1-2.1-0.2c-0.6-0.3-1.2-0.8-1.3-1.1
				c-0.3-0.5-0.3,0.7,0.1,1.5c0.4,0.7,1.2,1.3,1.7,1.5c0.6,0.3,1.1,0.3,1.3,0.2c0,0.4,0,0.7,0,1c0.1,0.7,0.4-0.1,0.5-0.3
				c0.4-1.2,0.8-2.3,2-2.8c3.4-1.7,5.7-0.9,7.5,0.1c2.4,1.3,3.2,2.9,4.1,5.3C24,110.2,24.2,109.5,24,108.3z"/>
		</g>
	</g>
	<g id="腮红2_9_" style="clip-path:url(#SVGID_6_);">
		<g>
			<path style="fill-rule:evenodd;clip-rule:evenodd;fill:#FFA083;" d="M17.7,117.9c-3.5-0.4-5.1,0.8-5.1,1.9c0,0.9,1.3,2.7,4.6,2.9
				c4.1,0.2,5.3-1.1,5.4-1.8C22.6,120.1,22,118.3,17.7,117.9z"/>
		</g>
	</g>
	<g id="腮红2_副本_9_" style="clip-path:url(#SVGID_6_);">
		<g>
			<path style="fill-rule:evenodd;clip-rule:evenodd;fill:#FFA083;" d="M48.9,117.9c-4.4,0.5-4.9,2.2-4.8,3c0,0.7,1.3,2,5.4,1.8
				c3.3-0.2,4.6-2,4.6-2.9C54,118.7,52.5,117.5,48.9,117.9z"/>
		</g>
	</g>
	<path style="clip-path:url(#SVGID_6_);fill-rule:evenodd;clip-rule:evenodd;fill:#512A15;" d="M33,136.9c-2.2,0-5.8-2-5.5-4.3
		c0.2-1.8,2-2.4,5.6-2.4c3.6,0,5.4,0.6,5.6,2.4C38.8,134.6,35.8,136.9,33,136.9z"/>
	<g id="形状_20_9_" style="clip-path:url(#SVGID_6_);">
		<g>
			<path style="fill:#FCEACB;" d="M24.7,176.9c-6.7-5.2-15-1.8-15-0.5c0.6,14.1,14.1,12.7,14.1,12.7c4.7-0.5,5.3-3.8,5.3-3.8
				S29.2,180.4,24.7,176.9z"/>
		</g>
	</g>
	<g id="形状_21_9_" style="clip-path:url(#SVGID_6_);">
		<g>
			<path style="fill:#FFBD99;" d="M27,184.7c-0.9-4.9-10.9-6.4-10.8-4.5c0.5,7.9,9.3,7.2,9.3,7.2S27.3,187.2,27,184.7z"/>
		</g>
	</g>
	<g id="形状_20_拷贝_9_" style="clip-path:url(#SVGID_6_);">
		<g>
			<path style="fill:#FCEACB;" d="M40.9,177.5c-4.6,4.2-3.3,9.3-3.3,9.3s0.4,1.9,5.1,2.4c0,0,13.5,1.4,14.1-12.8
				C56.8,175.1,48.2,170.9,40.9,177.5z"/>
		</g>
	</g>
	<g id="形状_21_拷贝_9_" style="clip-path:url(#SVGID_6_);">
		<g>
			<path style="fill-rule:evenodd;clip-rule:evenodd;fill:#FFBD99;" d="M39.4,184.7c-0.3,2.5,1.4,2.8,1.4,2.8s8.9,0.7,9.4-7.2
				C50.4,178.3,40.4,179.8,39.4,184.7z"/>
		</g>
	</g>
	<g id="形状_23_9_" style="opacity:0.4;clip-path:url(#SVGID_6_);">
		<g>
			<path style="fill-rule:evenodd;clip-rule:evenodd;fill:#DD7528;" d="M43.3,204.9c-5.5-1-20.3-2-21.9,1.7
				c-1.6,3.7-5.4,1.9-4.6,12.4c0,0,1.3,6.7,6.5,5.4c1.6-0.6,2.2-2.8,2.2-5c0-2.2,0.9-2.3,2.9-2.3c4.5,0.1,7,0.5,10.1-1.5
				c1.7-1.1,2.8,1.4,2.5,4.1c-0.3,3.1,0.3,4.4,2.8,4.9c2.3,0.5,4.2-0.5,4.9-2.9c0.7-2.5,0.9-5.2,0.9-5.2S48.7,205.9,43.3,204.9z"/>
		</g>
	</g>
	<path style="clip-path:url(#SVGID_6_);fill-rule:evenodd;clip-rule:evenodd;fill:#FCEBCE;" d="M44.3,197.7c0,0,6,4.1,5.7,17.6
		c-0.2,4.6-2.4,6.9-4.8,6.8c-2.4-0.1-2.6-2.7-2.3-5.5c0.1-1.1,0.4-4.5-0.8-9.3C40.8,202.4,44.3,197.7,44.3,197.7z"/>
	<path style="clip-path:url(#SVGID_6_);fill-rule:evenodd;clip-rule:evenodd;fill:#FCEBCE;" d="M20.8,199.3c0,0-4.8,4.6-4.4,15.6
		c0.2,4.6,2.3,7.2,4.8,7.1c2.4-0.2,2.5-2.1,2.4-4.2c-0.1-1.9-0.5-5,0.8-9.8C25.6,203.2,20.8,199.3,20.8,199.3z"/>
	<path style="clip-path:url(#SVGID_6_);fill-rule:evenodd;clip-rule:evenodd;fill:#F6BF96;" d="M44.7,218.7c-0.1,0.9-0.2,2.4-0.5,3
		c0.1,0.1,0.2,0.1,0.4,0.1c0.1-0.4,0.3-1,0.4-1.6C45.2,218.8,44.8,217.3,44.7,218.7z"/>
	<path style="clip-path:url(#SVGID_6_);fill-rule:evenodd;clip-rule:evenodd;fill:#F6BF96;" d="M46.7,218.8c0,0.7,0,2.2-0.4,3.1
		c0.2-0.1,0.4-0.1,0.6-0.2c0.2-0.5,0.2-1.2,0.3-1.7C47.2,218.8,46.7,217.9,46.7,218.8z"/>
	<path style="clip-path:url(#SVGID_6_);fill-rule:evenodd;clip-rule:evenodd;fill:#F6BF96;" d="M22,220.3c-0.2-0.8-0.6-2.6-0.7-2.1
		c-0.1,0.9,0.1,2.1,0.4,3c0.1,0.2,0.2,0.5,0.3,0.6c0.2-0.1,0.4-0.2,0.6-0.3C22.3,221.2,22.2,220.8,22,220.3z"/>
	<path style="clip-path:url(#SVGID_6_);fill-rule:evenodd;clip-rule:evenodd;fill:#F6BF96;" d="M20.2,220.6
		c-0.5-1.4-0.6-2.9-0.7-1.8c-0.1,1.2,0.2,2.2,0.7,3c0,0.1,0.1,0.1,0.1,0.2c0.2,0,0.3,0,0.5,0C20.6,221.6,20.4,221.1,20.2,220.6z"/>
	<g id="脸_17_" style="clip-path:url(#SVGID_6_);">
		<g>
			<path style="fill:#FCEBCE;" d="M45.1,193.7c-2.3-8.3-7.9-10.4-11.9-10.4c-4.1-0.1-10.2,2.1-12.1,10.2c-0.4,2.8-2,5.1-1.4,8.7
				c0.5,3.6,1.7,5.3,6.7,8.7c1,0.8,1.8,0.8,3,1.7c1.2,0.9,2.6,1.3,5,1.1c0,0,0.1,0,0.1,0c1-0.2,1.7-0.5,2.4-1c1.2-0.9,2-0.9,3-1.7
				c5-3.4,6.2-5.1,6.7-8.7C47.1,198.6,45.6,195.3,45.1,193.7z"/>
		</g>
	</g>
	<g id="形状_77_9_" style="clip-path:url(#SVGID_6_);">
		<g>
			
				<ellipse transform="matrix(8.526316e-02 -0.9964 0.9964 8.526316e-02 -183.2444 210.7845)" style="fill-rule:evenodd;clip-rule:evenodd;fill:#FFBD99;" cx="23.2" cy="205.2" rx="1.1" ry="1.9"/>
		</g>
	</g>
	<g id="形状_77_副本_9_" style="clip-path:url(#SVGID_6_);">
		<g>
			
				<ellipse transform="matrix(-3.274718e-02 -0.9995 0.9995 -3.274718e-02 -161.0676 254.5009)" style="fill:#FFBD99;" cx="42.6" cy="205.2" rx="1.1" ry="2"/>
		</g>
	</g>
	<path style="clip-path:url(#SVGID_6_);fill:#F7CC9D;" d="M25.8,189.8c0.4,1.7,1.3,2,2.4,2.2c1.3,0.2,2.1-1.1,2.5-1.6
		c0,0,0.9,1.7,2.1,2.1c1.3,0.4,2.2,0,2.7-0.9c0.3-0.5,0.2-1.4,0.2-1.4s1.1,1.2,2.7,0.7c1-0.3,1.1-1.1,1.1-1.7
		c0.1-0.6-0.1-1.1-0.1-1.1s1.1,1.2,0.8,2.6c-0.2,1-1.1,1.7-2.1,1.5c-0.8-0.1-1.9-0.9-1.9-0.9s-0.1,1.3-1,1.9c-0.9,0.6-2.2,0.5-3,0.1
		c-0.8-0.5-1.6-1.6-1.6-1.6s-0.5,1.1-1.6,1.6c-0.7,0.3-2,0.4-2.8-0.8C25.4,191.3,25.8,189.8,25.8,189.8z"/>
	<g id="形状_75_9_" style="clip-path:url(#SVGID_6_);">
		<g>
			<path style="fill-rule:evenodd;clip-rule:evenodd;fill:#552F19;" d="M23.6,200.7c-2.1-0.2-2.6,0-2.5,0.4c0.1,0.3,0.5-0.1,2.4,0.3
				c3.1,0.6,4.4,2.7,4.8,1.8C28.6,202.3,26,200.9,23.6,200.7z"/>
		</g>
	</g>
	<g id="形状_75_副本_9_" style="clip-path:url(#SVGID_6_);">
		<g>
			<path style="fill-rule:evenodd;clip-rule:evenodd;fill:#713D1F;" d="M42.8,200.7c-2.5,0.2-5,1.6-4.7,2.6c0.3,0.9,1.7-1.2,4.8-1.8
				c1.9-0.4,2.3,0,2.4-0.3C45.4,200.7,44.8,200.5,42.8,200.7z"/>
		</g>
	</g>
	<g id="形状_19_9_" style="clip-path:url(#SVGID_6_);">
		<g>
			<path style="fill:#57301B;" d="M33,210.2c-3.9,0-3.5,1.2-3.5,1.2s0.7,2.4,3.7,2.4c3-0.1,3.5-2.4,3.5-2.4S36.9,210.2,33,210.2z"/>
		</g>
	</g>
</g>
</svg>
