<?xml version="1.0" encoding="utf-8"?>
<!-- Generator: Adobe Illustrator 17.1.0, SVG Export Plug-In . SVG Version: 6.00 Build 0)  -->
<!DOCTYPE svg PUBLIC "-//W3C//DTD SVG 1.1//EN" "http://www.w3.org/Graphics/SVG/1.1/DTD/svg11.dtd">
<svg version="1.1" id="图层_1" xmlns="http://www.w3.org/2000/svg" xmlns:xlink="http://www.w3.org/1999/xlink" x="0px" y="0px"
	 viewBox="0 0 478.5 299.8" style="enable-background:new 0 0 478.5 299.8;" xml:space="preserve">
<g>
	<g id="矩形_3_12_">
		<g>
			<rect x="1.7" y="1.4" style="fill-rule:evenodd;clip-rule:evenodd;fill:#FFFFFF;" width="475.2" height="297"/>
		</g>
		<g>
			<rect x="1.7" y="1.4" style="fill:none;stroke:#E6E6E6;stroke-miterlimit:10;" width="475.2" height="297"/>
		</g>
	</g>
	<g>
		<path style="fill:#FF6600;" d="M130.6,99.7c0.7-1.4,1.4-2.9,2-4.4c-0.6-0.4-1.1-0.8-1.7-1.2c1.1-2.1,1.5-4.5,1.5-7.1v-5.1h11.4
			c0-0.2,0-0.5,0-0.9c-0.1-0.5-0.1-0.9-0.1-1.1h3.3c0,0.7,0,1.4,0.1,2h1.6c-0.3-0.3-0.6-0.7-1-1.1l2.2-1.2c0.5,0.4,1.1,1,1.9,1.8
			l-1,0.6h2.1v2.9h-5.7c0.1,1.3,0.2,2.4,0.4,3.2c0.7-0.9,1.5-1.9,2.1-3.1l2.8,1.6c-1.5,2.3-2.8,3.9-3.8,4.8c0.1,0.1,0.1,0.2,0.2,0.3
			c0.1,0.1,0.1,0.2,0.2,0.3c0.2,0.4,0.4,0.6,0.7,0.6c0.2-0.1,0.4-0.3,0.5-0.6c0.1-0.2,0.2-0.6,0.3-1.2c0.1-0.4,0.1-0.7,0.2-0.9
			c0.1,0.1,0.3,0.2,0.6,0.3c0.5,0.2,1.2,0.4,2,0.7c-0.1,0.2-0.1,0.6-0.2,0.9c-0.1,0.5-0.3,1.1-0.6,1.9c-0.2,0.9-0.8,1.5-1.8,2
			c0.6,0.8,1.3,1.9,2.2,3.3c-0.1-0.1,0,0,0.2,0.3l-3.1,1.5c-0.2-0.4-0.6-1-1-1.8c-0.3-0.4-0.6-0.8-0.7-1.1c-0.2,0.9-0.4,1.5-0.6,1.9
			c-0.5,1.4-1.7,2-3.6,1.9h-5.6c-2,0.1-2.9-0.9-2.9-3v-2.8c-0.9,2.2-1.6,3.9-2.3,5.1L130.6,99.7z M139.9,95.7l2.3-1.4h-5.9v-5.7h7.2
			v3.1c0.5-0.4,1-0.7,1.5-1c-0.4-1.4-0.7-3.3-0.9-5.9h-8.4v2.2c0.1,3.2-0.5,5.9-1.6,8.4l1.8,0.6v-0.7h3.6v2.5
			c-0.1,0.9,0.3,1.4,1.2,1.3h2.6c1,0.1,1.5-0.3,1.6-1.1c0.2-0.6,0.3-1.2,0.5-1.8c0.9,0.4,1.9,0.7,2.8,1c0-0.1-0.1-0.2-0.2-0.4
			c-0.1-0.1-0.1-0.2-0.2-0.3l1.5-0.7c-1.1-0.2-2.1-0.9-3-2.1c-0.1,0.1-0.3,0.3-0.6,0.5c-0.4,0.3-0.7,0.6-0.9,0.7
			c-0.1-0.2-0.3-0.6-0.6-1.1c-0.2-0.6-0.5-1.1-0.6-1.4v1.9H143c0.2,0.2,0.5,0.6,0.8,1c0.5,0.6,0.9,1.1,1.1,1.4l-3,1.9
			C141.4,97.7,140.7,96.8,139.9,95.7z M143.6,87.8h-7.4v-2.3h7.4V87.8z M140.8,92v-1.2H139V92H140.8z"/>
		<path style="fill:#FF6600;" d="M172.4,79.9h3.3v4.4h1.2v3.2h-1.2v11.4c0.1,1.9-0.9,2.9-2.9,2.9c-1,0-2,0-3.1,0
			c-0.2-1.2-0.4-2.2-0.6-3.1c0.8,0,1.5,0,2,0c0.8,0,1.2-0.3,1.2-0.9v-3.2l-2,0.8c-0.2-0.8-0.6-1.9-1.1-3.3c-0.2-0.4-0.3-0.8-0.4-1
			v8.3c0,1.6-0.8,2.4-2.4,2.5c-0.6,0.1-1.5,0.1-3,0.1c-0.1-0.4-0.2-0.9-0.3-1.7c-0.1-0.4-0.1-0.6-0.2-0.8c-0.7,0.6-1.6,1.1-2.5,1.7
			c-0.1-0.1-0.2-0.3-0.3-0.6c-0.2-0.4-0.5-0.8-0.7-1c-0.3,0.2-0.7,0.6-1.3,1c-0.7,0.7-1.3,1.2-1.7,1.5l-1.6-2.6
			c0.6-0.5,0.8-1.1,0.8-1.8v-7.5h-1.4v-3.5h4.5v9.7c0.2-0.2,0.5-0.4,0.9-0.7c0.1-0.2,0.2-0.3,0.4-0.4h-0.6v-2.8h0.8V82h2.2
			c0.1-0.3,0.2-0.7,0.3-1.2c0.1-0.4,0.1-0.8,0.2-1l3.6,0.3c-0.1,0.1-0.1,0.3-0.2,0.6c-0.1,0.2-0.2,0.6-0.5,1.4h2.7v7.9l2.1-0.8
			c0.5,1.3,1,2.5,1.4,3.7v-5.3h-3.1v-3.2h3.1V79.9z M157.7,79.9c0.1,0.2,0.3,0.5,0.5,0.8c0.9,1.6,1.6,2.8,1.9,3.4l-3.1,1.5
			c-0.1-0.2-0.3-0.5-0.5-0.9c-0.7-1.4-1.3-2.6-1.8-3.4L157.7,79.9z M160.5,97.6c1.1-0.7,1.9-1.5,2.5-2.4h-2.5
			C160.5,96.1,160.5,96.9,160.5,97.6z M164.8,99.2c0.7,0.1,1.1-0.2,1-0.8v-2.2c-0.7,1.2-1.6,2.2-2.5,3.1
			C163.9,99.2,164.4,99.2,164.8,99.2z M163.6,84.7v1h2.2v-1H163.6z M163.6,88v1.1h2.2V88H163.6z M163.6,91.3v1.1h2.2v-1.1H163.6z"/>
		<path style="fill:#FF6600;" d="M178.3,84v-3.1h9.7V84h-1v2.7c2.3-1.5,4.1-3.9,5.5-7l3.7,0.3c-0.1,0.1-0.1,0.3-0.2,0.6
			c-0.1,0.2-0.2,0.4-0.3,0.6c1.4,2.5,3.2,4.4,5.4,5.8c-0.1,0.1-0.2,0.3-0.3,0.6c-0.6,1.3-0.9,2.2-1.1,2.8c-2.6-1.8-4.5-3.8-5.8-6.1
			c-1.4,2.2-3.3,4.2-5.8,6.2c-0.2-0.4-0.4-1-0.7-1.9c-0.2-0.4-0.3-0.7-0.4-0.9v7.6c0.1-0.1,0.3-0.1,0.5-0.1c0.2-0.1,0.4-0.1,0.6-0.1
			c-0.1,1.4-0.1,2.5,0,3.3c-0.1,0-0.3,0-0.6,0.1c-0.2,0-0.4,0-0.5,0v3.5h-3v-3c-0.4,0.1-1,0.2-1.8,0.3c-1.5,0.1-2.7,0.3-3.5,0.5
			l-0.6-3.2c0.4,0,0.8-0.1,1.2-0.2V84H178.3z M182.2,84v2h1.7v-2H182.2z M182.2,88.7v2.1h1.7v-2.1H182.2z M182.2,95.9
			c0.6-0.1,1.1-0.2,1.7-0.3v-2.1h-1.7V95.9z M189.9,94.4c0.6,0.4,1.4,0.9,2.4,1.5c0.4,0.3,0.7,0.5,0.9,0.6l2.3-2.6H188v-3.2h5
			c-0.5-1-1.1-1.9-1.8-2.9l2.7-1.5c0.3,0.5,0.7,1.1,1.3,1.9c0.4,0.6,0.6,1,0.8,1.3l-2,1.1h5.6V94l-3.6,4.4c0.7,0.5,1.4,0.9,2.1,1.2
			l-2.1,2.7c-1.4-1-3.4-2.4-6-4.1c-0.9-0.6-1.5-1-2-1.3L189.9,94.4z"/>
		<path style="fill:#FF6600;" d="M202.7,81.5h8.2v17.1c1.1-1.9,1.6-4.9,1.6-9.2v-7.9c3.5-0.3,7-0.7,10.3-1.2l1.3,3.5
			c-1.2,0.2-3.1,0.4-5.6,0.6c-1.1,0.1-1.9,0.2-2.5,0.3v3h8.5v3.4h-2.6v10.5h-3.6V91.1h-2.3c0.1,4.5-0.9,8.2-3,11.1
			c-0.5-0.4-1.2-1.1-2.2-1.9c-0.4-0.3-0.6-0.5-0.7-0.6c0.3-0.3,0.6-0.7,0.7-1.1H206v1.4h-3.3V81.5z M206,84.9v10.2h1.5V84.9H206z"/>
		<path style="fill:#FF6600;" d="M232.5,80.7l-0.7,14.2h-3.6l-0.6-14.2H232.5z M232.3,101.1h-4.6v-4.3h4.6V101.1z"/>
	</g>
	<g id="alimama.com_拷贝_6_">
		<g>
			<path style="fill-rule:evenodd;clip-rule:evenodd;fill:#CBCBCB;" d="M419.2,276.7c-0.8,1.6-1.6,3.1-2.4,4.8h1.2
				c0.2-0.4,0.3-0.7,0.6-1.1c0.6,0,1.1,0,1.7,0c-0.1-0.4-0.2-0.6-0.3-0.9H419c0.3-0.5,0.4-0.8,0.8-1.6c0.4,1.2,0.9,2.5,1.3,3.6h1.1
				c-0.6-1.7-1.1-3.1-1.7-4.8H419.2z M422.5,281.5h1l0.2-4.8l-1,0L422.5,281.5z M424,281.5h1.1l0.1-3.6h-1L424,281.5z M424.3,276.7
				l0,0.8c0,0,0.8,0,1,0l0-0.8C424.4,276.7,424.4,276.7,424.3,276.7z M430.8,278c-0.2-0.1-0.4-0.1-0.6-0.1c-0.1,0-0.2,0-0.3,0
				c-0.1,0-0.2,0.1-0.3,0.1c-0.1,0-0.2,0.1-0.2,0.1c-0.1,0.1-0.1,0.1-0.2,0.2c0,0.1-0.1,0.1-0.1,0.2c0-0.1-0.1-0.2-0.1-0.3
				c0-0.1-0.1-0.1-0.1-0.2c-0.1,0-0.1-0.1-0.2-0.1c-0.1,0-0.2-0.1-0.3-0.1c-0.1,0-0.2,0-0.3,0c-0.1,0-0.3,0-0.4,0.1
				c-0.1,0-0.2,0.1-0.3,0.1c-0.1,0.1-0.2,0.1-0.2,0.2c-0.1,0.1-0.1,0.2-0.2,0.3l0-0.6h-0.9l-0.2,3.6c0,0,0.8,0,1,0
				c0-0.3,0-0.7,0-1.2c0-0.5,0.1-0.9,0.1-1c0.1-0.2,0.1-0.3,0.3-0.4c0.1-0.1,0.3-0.2,0.4-0.2c0.1,0,0.2,0,0.2,0
				c0.1,0,0.1,0.1,0.2,0.1c0.1,0.1,0.1,0.1,0.1,0.2c0,0.1,0,0.2,0,0.3c0,0.2,0,0.6,0,1.1c0,0.6-0.1,0.9-0.1,1.1c0.2,0,0.8,0,1,0l0-1
				c0-0.3,0-0.6,0-0.8c0-0.2,0-0.4,0.1-0.5c0-0.1,0.1-0.2,0.2-0.3c0.1-0.1,0.2-0.2,0.2-0.2c0.1,0,0.2-0.1,0.3-0.1
				c0.1,0,0.2,0,0.3,0.1c0.1,0,0.1,0.1,0.2,0.2c0.1,0.1,0.1,0.2,0.1,0.4c0,0.1,0,0.3,0,0.5l0,0.8c0,0.3,0,0.6-0.1,0.9
				c0.2,0,0.8,0,1,0c0-0.3,0-0.6,0-1.1c0-0.5,0-0.8,0.1-1.1c0-0.2,0-0.4,0-0.5c0-0.2-0.1-0.4-0.2-0.5C431.1,278.1,431,278,430.8,278
				z M434.6,278c-0.2-0.1-0.5-0.1-0.7-0.1c-0.2,0-0.5,0-0.7,0c-0.2,0-0.8,0.2-0.8,0.2l-0.1,0.7c0,0,1-0.3,1.4-0.3c0.1,0,0.2,0,0.3,0
				c0.1,0,0.2,0.1,0.2,0.1c0.1,0.1,0.1,0.1,0.1,0.2c0,0,0,0.1,0,0.1c0,0-0.1,0.1-0.1,0.1c0,0-0.1,0.1-0.1,0.1
				c-0.1,0-0.1,0.1-0.2,0.1c-0.1,0-0.2,0-0.3,0.1c-0.3,0.1-0.6,0.1-0.8,0.2c-0.2,0.1-0.4,0.1-0.5,0.2c-0.1,0.1-0.2,0.2-0.3,0.2
				c-0.1,0.1-0.1,0.2-0.2,0.3c0,0.1-0.1,0.2-0.1,0.3c0,0.2,0,0.3,0.1,0.5c0.1,0.2,0.2,0.3,0.4,0.4c0.2,0.1,0.4,0.1,0.7,0.1
				c0.1,0,0.2,0,0.3,0c0.1,0,0.2,0,0.4-0.1c0.1-0.3,0.1-0.5,0.2-0.6c-0.1,0-0.3,0.1-0.3,0.1c-0.1,0-0.2,0-0.2,0c-0.1,0-0.2,0-0.3,0
				c-0.1,0-0.2-0.1-0.2-0.1c-0.1-0.1-0.1-0.2-0.1-0.3c0-0.1,0-0.1,0-0.2c0-0.1,0.1-0.1,0.1-0.2c0,0,0.1-0.1,0.2-0.1
				c0.1,0,0.2-0.1,0.2-0.1c0.1,0,0.2-0.1,0.4-0.1c0.1,0,0.3-0.1,0.3-0.1c0.1,0,0.1,0,0.2-0.1c0,0,0.1-0.1,0.2-0.1l-0.1,1.8h1
				c0,0,0-1.1,0.1-1.7c0-0.5,0.1-0.9,0.1-1c0-0.2-0.1-0.4-0.2-0.6C435,278.1,434.8,278,434.6,278z M440.9,278
				c-0.2-0.1-0.4-0.1-0.6-0.1c-0.1,0-0.2,0-0.3,0c-0.1,0-0.2,0.1-0.3,0.1c-0.1,0-0.2,0.1-0.2,0.1c-0.1,0.1-0.1,0.1-0.2,0.2
				c0,0.1-0.1,0.1-0.1,0.2c0-0.1-0.1-0.2-0.1-0.3c0-0.1-0.1-0.1-0.1-0.2c-0.1,0-0.1-0.1-0.2-0.1c-0.1,0-0.2-0.1-0.3-0.1
				c-0.1,0-0.2,0-0.3,0c-0.1,0-0.3,0-0.4,0.1c-0.1,0-0.2,0.1-0.3,0.1c-0.1,0.1-0.2,0.1-0.2,0.2c-0.1,0.1-0.1,0.2-0.2,0.3l0-0.6h-1
				l-0.2,3.6h1c0,0,0-0.7,0-1.2c0-0.5,0.1-0.9,0.1-1c0.1-0.2,0.1-0.3,0.3-0.4c0.1-0.1,0.3-0.2,0.4-0.2c0.1,0,0.2,0,0.2,0
				c0.1,0,0.1,0.1,0.2,0.1c0,0.1,0.1,0.1,0.1,0.2c0,0.1,0,0.2,0,0.3c0,0.2,0,0.6,0,1.1c0,0.6-0.1,0.9-0.1,1.1c0.2,0,0.8,0,1,0l0-1
				c0-0.3,0-0.6,0-0.8c0-0.2,0-0.4,0.1-0.5c0-0.1,0.1-0.2,0.2-0.3c0.1-0.1,0.2-0.2,0.2-0.2c0.1,0,0.2-0.1,0.3-0.1
				c0.1,0,0.2,0,0.3,0.1c0.1,0,0.1,0.1,0.2,0.2c0.1,0.1,0.1,0.2,0.1,0.4c0,0.1,0,0.3,0,0.5l0,0.8c0,0.3,0,0.6-0.1,0.9
				c0.2,0,0.8,0,1,0c0-0.3,0-0.6,0-1.1c0-0.5,0-0.8,0.1-1.1c0-0.2,0-0.4,0-0.5c0-0.2-0.1-0.4-0.2-0.5C441.2,278.1,441,278,440.9,278
				z M444.6,278c-0.2-0.1-0.5-0.1-0.7-0.1c-0.2,0-0.5,0-0.7,0c-0.2,0-0.8,0.2-0.8,0.2l-0.1,0.7c0,0,1-0.3,1.4-0.3c0.1,0,0.2,0,0.3,0
				c0.1,0,0.2,0.1,0.2,0.1c0.1,0.1,0.1,0.1,0.1,0.2c0,0,0,0.1,0,0.1c0,0-0.1,0.1-0.1,0.1c0,0-0.1,0.1-0.1,0.1
				c-0.1,0-0.1,0.1-0.2,0.1c-0.1,0-0.2,0-0.3,0.1c-0.3,0.1-0.6,0.1-0.8,0.2c-0.2,0.1-0.4,0.1-0.5,0.2c-0.1,0.1-0.2,0.2-0.3,0.2
				c-0.1,0.1-0.1,0.2-0.2,0.3c0,0.1-0.1,0.2-0.1,0.3c0,0.2,0,0.3,0.1,0.5c0.1,0.2,0.2,0.3,0.4,0.4c0.2,0.1,0.4,0.1,0.7,0.1
				c0.1,0,0.2,0,0.3,0c0.1,0,0.2,0,0.4-0.1c0.1-0.3,0.1-0.5,0.2-0.6c-0.1,0-0.3,0.1-0.3,0.1c-0.1,0-0.2,0-0.2,0c-0.1,0-0.2,0-0.3,0
				c-0.1,0-0.2-0.1-0.2-0.1c-0.1-0.1-0.1-0.2-0.1-0.3c0-0.1,0-0.1,0-0.2c0-0.1,0.1-0.1,0.1-0.2c0,0,0.1-0.1,0.2-0.1
				c0.1,0,0.2-0.1,0.2-0.1c0.1,0,0.2-0.1,0.4-0.1c0.1,0,0.3-0.1,0.3-0.1c0.1,0,0.1,0,0.2-0.1c0,0,0.1-0.1,0.2-0.1l-0.1,1.8h1
				c0,0,0-1.1,0.1-1.7c0-0.5,0.1-0.9,0.1-1c0-0.2-0.1-0.4-0.2-0.6C445,278.1,444.9,278,444.6,278z M445.8,280.6c0,0.5,0,0.8,0,0.9
				c0.3,0,1,0,1,0s0-0.8,0-0.9C446.5,280.6,445.8,280.6,445.8,280.6z M448.4,278.9c0.1-0.1,0.2-0.2,0.4-0.3c0.1-0.1,0.3-0.1,0.5-0.1
				c0.3,0,0.6,0.1,0.9,0.2l-0.1-0.8c-0.2-0.1-0.4-0.1-0.6-0.1c-0.2,0-0.3,0-0.5,0c-0.3,0-0.5,0-0.7,0.1c-0.2,0.1-0.4,0.2-0.6,0.3
				c-0.2,0.2-0.3,0.4-0.4,0.7c-0.1,0.3-0.1,0.6-0.1,0.8c0,0.2,0,0.4,0.1,0.6c0.1,0.2,0.1,0.4,0.3,0.5c0.1,0.1,0.2,0.3,0.4,0.4
				c0.2,0.1,0.3,0.2,0.5,0.2c0.2,0,0.4,0.1,0.5,0.1c0.3,0,0.7,0,1-0.1c0-0.2,0.1-0.3,0.1-0.5c0-0.1,0-0.2,0.1-0.3
				c-0.2,0.1-0.3,0.1-0.5,0.1c-0.2,0-0.3,0-0.4,0c-0.2,0-0.4,0-0.6-0.1c-0.2-0.1-0.3-0.2-0.4-0.4c-0.1-0.2-0.1-0.4-0.1-0.6
				c0-0.2,0-0.3,0.1-0.5C448.2,279.2,448.3,279,448.4,278.9z M453.7,278.3c-0.2-0.2-0.4-0.3-0.6-0.4c-0.2-0.1-0.5-0.1-0.8-0.1
				c-0.3,0-0.6,0.1-0.8,0.1c-0.3,0.1-0.5,0.2-0.7,0.4c-0.2,0.2-0.3,0.4-0.4,0.6c-0.1,0.2-0.1,0.5-0.1,0.7c0,0.3,0,0.5,0.1,0.7
				c0.1,0.2,0.2,0.4,0.4,0.6c0.2,0.2,0.4,0.3,0.6,0.4c0.2,0.1,0.5,0.1,0.8,0.1c0.3,0,0.6,0,0.8-0.1c0.3-0.1,0.5-0.2,0.6-0.4
				c0.2-0.2,0.3-0.4,0.4-0.6c0.1-0.2,0.1-0.5,0.1-0.8c0-0.3,0-0.5-0.1-0.7C454,278.7,453.9,278.5,453.7,278.3z M453.1,280.3
				c-0.1,0.2-0.2,0.3-0.4,0.4c-0.2,0.1-0.3,0.2-0.5,0.2c-0.2,0-0.4,0-0.5-0.1c-0.1-0.1-0.3-0.2-0.3-0.4c-0.1-0.2-0.1-0.3-0.1-0.5
				c0-0.2,0-0.4,0.1-0.6c0.1-0.2,0.2-0.3,0.4-0.4c0.2-0.1,0.3-0.1,0.5-0.1c0.2,0,0.4,0,0.5,0.1c0.1,0.1,0.2,0.2,0.3,0.4
				c0.1,0.2,0.1,0.3,0.1,0.5C453.3,279.9,453.2,280.1,453.1,280.3z M460,278.3c-0.1-0.1-0.2-0.2-0.4-0.3c-0.2-0.1-0.4-0.1-0.6-0.1
				c-0.1,0-0.2,0-0.3,0c-0.1,0-0.2,0.1-0.3,0.1c-0.1,0-0.2,0.1-0.2,0.1c-0.1,0.1-0.1,0.1-0.2,0.2c0,0.1-0.1,0.1-0.1,0.2
				c0-0.1-0.1-0.2-0.1-0.3c0-0.1-0.1-0.1-0.1-0.2c-0.1,0-0.1-0.1-0.2-0.1c-0.1,0-0.2-0.1-0.3-0.1c-0.1,0-0.2,0-0.3,0
				c-0.1,0-0.3,0-0.4,0.1c-0.1,0-0.2,0.1-0.3,0.1c-0.1,0.1-0.2,0.1-0.2,0.2c-0.1,0.1-0.1,0.2-0.2,0.3l0-0.6c-0.2,0-0.7,0-0.9,0
				c0,0.4-0.1,3.2-0.2,3.6c0.2,0,0.8,0,1,0c0-0.3,0-0.7,0-1.2c0-0.5,0.1-0.9,0.1-1c0.1-0.2,0.1-0.3,0.3-0.4c0.1-0.1,0.3-0.2,0.4-0.2
				c0.1,0,0.2,0,0.2,0c0.1,0,0.1,0.1,0.2,0.1c0.1,0.1,0.1,0.1,0.1,0.2c0,0.1,0,0.2,0,0.3c0,0.2,0,0.6,0,1.1c0,0.6-0.1,0.9-0.1,1.1
				c0.2,0,0.8,0,1,0l0-1c0-0.3,0-0.6,0-0.8c0-0.2,0-0.4,0.1-0.5c0-0.1,0.1-0.2,0.2-0.3c0.1-0.1,0.2-0.2,0.2-0.2
				c0.1,0,0.2-0.1,0.3-0.1c0.1,0,0.2,0,0.3,0.1c0.1,0,0.1,0.1,0.2,0.2c0.1,0.1,0.1,0.2,0.1,0.4c0,0.1,0,0.3,0,0.5l0,0.8
				c0,0.3,0,0.6-0.1,0.9c0.2,0,0.8,0,1,0c0-0.3,0-0.6,0-1.1c0-0.5,0-0.8,0.1-1.1c0-0.2,0-0.4,0-0.5
				C460.2,278.6,460.1,278.4,460,278.3z"/>
		</g>
	</g>
	<g id="阿里妈妈_拷贝_6_">
		<g>
			<path style="fill-rule:evenodd;clip-rule:evenodd;fill:#FF6600;" d="M421,266.8c1.5,0,3,0,4.5,0c0,2.2,0,4.5,0,6.6
				c0,0.1-0.2,0.3-0.3,0.3c-0.2,0-0.3,0-0.6,0v1.1c0.3,0,0.6,0,1,0c0.9,0,1.4-0.4,1.4-1.1c0-1.7,0-5.1,0-6.8h0.5v-1H421V266.8z
				 M443.8,271.5c-0.4,0-1,0.4-1,1c1.3,0,3.4,0,4.8,0c0,0.3,0,0.5,0,0.9c0.5,0,0.3,0,0.8,0c0.3,0,0.7-0.2,0.7-0.7c0-1.1,0-2,0-3.2
				c-0.2,0-0.4,0-0.6,0c0-0.9,0-2.6,0-3.3c0-0.3-0.3-0.6-0.6-0.6h-4.7v1h3.6c0,0.9,0,1.9,0,2.8c-0.9,0-1,0-1.7,0
				c-0.1,0-0.2-0.1-0.2-0.2c0-0.5,0-1.2,0-1.8c0-0.1-0.1-0.3-0.4-0.3h-1.1v2.5c0,0.5,0.4,0.9,0.9,0.9c0,0,1.8,0,3.4,0v0.9H443.8z
				 M424.8,271.8c0-1.2,0-2.8,0-4.4H421v5.6c1.1,0,2.5,0,2.5,0C424.5,273,424.8,272.5,424.8,271.8z M423.2,272c-0.3,0-0.6,0-0.9,0
				v-3.5c0.4,0,0.9,0,1.3,0c0,1.1,0,2.3,0,3.2C423.5,271.9,423.4,272,423.2,272z M416.8,266c0,2,0,4.7,0,8.7h1.4c0-2.5,0-5.3,0-8
				c0.3,0,0.7,0,1,0c0,1.5,0,2.9,0,4.3c0,0.6-0.5,0.8-0.5,0.8v1.1c1,0,1.8-1,1.8-1.9c0-1.6,0-3.7,0-5.4c-1.2,0-2.2,0-3.4,0
				C416.8,265.8,416.8,266,416.8,266z M459.7,269.6c0-0.9,0-2.6,0-3.3c0-0.3-0.3-0.6-0.6-0.6h-4.7v1c1.2,0,2.4,0,3.6,0v2.8
				c-0.9,0-1,0-1.7,0c-0.1,0-0.2-0.1-0.2-0.2c0-0.5,0-1.2,0-1.8c0-0.1-0.1-0.3-0.4-0.3c-0.3,0-0.7,0-1.1,0v2.5
				c0,0.5,0.4,0.9,0.9,0.9c0,0,1.8,0,3.4,0v0.9h-3.7c-0.4,0-1.1,0.4-1.1,1c1.3,0,3.3,0,4.7,0v1c0,0.2-0.1,0.2-0.3,0.2H458
				c0,0.5,0,0.7,0,1h0.8c0.3,0,0.2,0,0.5,0c0.7,0,1-0.5,1-0.9c0-1.3,0-3,0-4.3C460.1,269.6,459.9,269.6,459.7,269.6z M453.1,273
				c0.5-0.6,0.8-1.2,0.8-2.4c0-1.3,0-2.6,0-4c0-0.1-0.1-0.3-0.3-0.3c-0.5,0-1.2,0-1.8,0v-0.6h-1.4c0,0.2,0,0.4,0,0.6
				c-0.1,0-0.3,0-0.5,0v1h0.5v3.2c0,1.2,0.4,1.9,0.9,2.4c-0.6,0.4-1.2,0.7-2.1,0.7c-0.1,0-0.2,0-0.4,0c-1.3,0-2.9,0-4.2,0
				c-1.3,0-2.5-0.2-3-0.8c0.4-0.6,0.7-1.1,0.8-2.3c0-1.2,0-2.3,0-3.9c0-0.2-0.2-0.3-0.3-0.3c-0.5,0-1.1,0-1.8,0v-0.6
				c-0.6,0-0.8,0-1.3,0v0.6c-0.2,0-0.3,0-0.5,0v1c0.2,0,0.3,0,0.5,0c0,1.1,0,2.2,0,3.2c0.1,1.2,0.5,1.6,1,2.4
				c-0.7,0.5-1.5,0.7-2.5,0.8c-1.2,0-2.2,0-3.7,0c0-0.3,0-0.6,0-0.8h3.7v-1.1h-3.7c0-0.3,0-0.5,0-0.8c1.1,0,2.5,0,2.8,0
				c0,0,0.9,0,0.9-1c0-1,0-2.9,0-4.3c-2.9,0-5.9,0-8.9,0c-0.1,0-0.3,0.2-0.3,0.3c0,0.2,0,3.5,0,5c1.2,0,2.5,0,3.7,0v0.8h-3.7
				c0,0.3,0,0.7,0,1.1h3.7c0,0.3,0,0.5,0,0.8h-4.4c0,0.3,0,0.7,0,1c3.3,0,7.3,0,10.5,0c0.9,0,1.9-0.4,2.7-0.9c1,0.7,2,0.9,3.8,0.9
				c0.5,0,1.1,0,1.8,0c0.9,0,1.7,0,2.5,0c1.5,0,2.4-0.3,3.3-0.8c0.8,0.5,1.6,0.8,2.9,0.8v0h2v-1h-2
				C454.4,273.6,453.6,273.5,453.1,273z M432.1,270h-2.3v-1.1h2.3V270z M432.1,267.9h-2.3v-1.1c0.8,0,1.5,0,2.3,0V267.9z
				 M433.8,266.8h2.3v1.1h-2.3V266.8z M433.8,268.9c0.8,0,1.5,0,2.3,0c0,0.4,0,0.8,0,1.1h-2.3C433.8,269.7,433.8,269.3,433.8,268.9z
				 M441.2,270.6c0,0.7-0.2,0.9-0.3,1.4c-0.2-0.4-0.4-0.6-0.5-1.4c0-0.9,0-2.2,0-3.2h0.8V270.6z M452.6,270.6c0,0.7-0.2,1-0.4,1.4
				c-0.2-0.4-0.4-0.7-0.4-1.4c0-1,0-2.2,0-3.2h0.8C452.6,268.4,452.6,269.6,452.6,270.6z"/>
		</g>
	</g>
	<g id="矩形_5_拷贝__x2B__v_xA0_剪贴路径_64_">
		<rect x="1.6" y="1.4" style="fill:none;" width="69.3" height="297"/>
	</g>
	<g id="矩形_5_拷贝__x2B__v_xA0_剪贴路径_63_">
		<rect x="1" y="1.4" style="fill:none;" width="69.3" height="297"/>
	</g>
	<g id="矩形_5_拷贝__x2B__v_xA0_剪贴路径_62_">
		<rect x="1.6" y="1.4" style="fill:none;" width="69.3" height="297"/>
	</g>
	<g id="矩形_5_拷贝__x2B__v_xA0_剪贴路径_61_">
		<rect x="1" y="1.4" style="fill:none;" width="69.3" height="297"/>
	</g>
	<g id="矩形_5_拷贝__x2B__v_xA0_剪贴路径_60_">
		<rect x="1.6" y="1.4" style="fill:none;" width="69.3" height="297"/>
	</g>
	<g id="矩形_5_拷贝__x2B__v_xA0_剪贴路径_59_">
		<rect x="1" y="1.4" style="fill:none;" width="69.3" height="297"/>
	</g>
	<g id="矩形_5_拷贝__x2B__v_xA0_剪贴路径_58_">
		<rect x="1.6" y="1.4" style="fill:none;" width="69.3" height="297"/>
	</g>
	<g id="矩形_5_拷贝__x2B__v_xA0_剪贴路径_57_">
		<rect x="1" y="1.4" style="fill:none;" width="69.3" height="297"/>
	</g>
	<g id="矩形_5_拷贝__x2B__v_xA0_剪贴路径_56_">
		<rect x="1.6" y="1.4" style="fill:none;" width="69.3" height="297"/>
	</g>
	<g id="矩形_5_拷贝__x2B__v_xA0_剪贴路径_55_">
		<rect x="1" y="1.4" style="fill:none;" width="69.3" height="297"/>
	</g>
	<g id="矩形_5_拷贝__x2B__v_xA0_剪贴路径_54_">
		<rect x="1.6" y="1.4" style="fill:none;" width="69.3" height="297"/>
	</g>
	<g id="矩形_5_拷贝__x2B__v_xA0_剪贴路径_53_">
		<rect x="1" y="1.4" style="fill:none;" width="69.3" height="297"/>
	</g>
	<g id="矩形_5_拷贝__x2B__v_xA0_剪贴路径_52_">
		<rect x="1.6" y="1.4" style="fill:none;" width="69.3" height="297"/>
	</g>
	<g id="矩形_5_拷贝__x2B__v_xA0_剪贴路径_51_">
		<rect x="1" y="1.4" style="fill:none;" width="69.3" height="297"/>
	</g>
	<g id="矩形_5_拷贝__x2B__v_xA0_剪贴路径_50_">
		<rect x="1.6" y="1.4" style="fill:none;" width="69.3" height="297"/>
	</g>
	<g id="矩形_5_拷贝__x2B__v_xA0_剪贴路径_49_">
		<rect x="1" y="1.4" style="fill:none;" width="69.3" height="297"/>
	</g>
	<rect x="1.9" y="0.9" style="fill:#FF6D00;" width="61.8" height="297"/>
	<g>
		<defs>
			<rect id="SVGID_1_" x="1.9" y="0.9" width="61.8" height="296.9"/>
		</defs>
		<clipPath id="SVGID_2_">
			<use xlink:href="#SVGID_1_"  style="overflow:visible;"/>
		</clipPath>
		<g style="clip-path:url(#SVGID_2_);">
			<defs>
				<polygon id="SVGID_3_" points="92.7,1.9 -32.3,0.9 -32.3,305.1 92.7,305.2 				"/>
			</defs>
			<clipPath id="SVGID_4_">
				<use xlink:href="#SVGID_3_"  style="overflow:visible;"/>
			</clipPath>
			<path style="clip-path:url(#SVGID_4_);fill:#F95E00;" d="M148.5,300c-0.6,0.9-1.3,1.7-2.2,2.4c0.3,0.6,0.5,1.2,0.7,1.8
				C147.6,302.8,148.1,301.4,148.5,300 M-15.2,275.1c-9.1,5.3-13.3,17.4-11.6,29.4c1.4,9.9,3.9,17.3,14.5,26.7c0,0,8.3,6.6,20.9,6.6
				c3.4,0,7.2-0.5,11.2-1.8c-0.4-0.2-0.7-0.5-1.1-0.8c-7.5-4.7-15.1-10.9-21.3-18.8C-2.6,316.5-19.2,296.2-15.2,275.1 M83.3,221.5
				c-22.3,0-36.7,8-45.4,18.2c-1.2,1.4-2.3,2.7-3.4,4.1c6.6,1.4,12.8,4.3,18.3,7.8c6.5-2.8,13.1-4.8,19.7-5.7
				c4.1-0.6,8.2-0.9,12.4-0.9c29.9,0,60.6,15.2,65.4,39.7c-0.1-3.1-0.3-6.5-0.9-10.1c-4.6-31.5-34.9-52.9-65.8-53
				C83.5,221.5,83.4,221.5,83.3,221.5"/>
			<path style="clip-path:url(#SVGID_4_);fill:#F04400;" d="M84.9,245c-4.2,0-8.3,0.3-12.4,0.9c-6.5,0.9-13.2,2.9-19.7,5.7
				c12.1,7.5,21.2,17.8,25.3,21.6c11.7,11.2,20.3,15.1,31.9,15.1c1.7,0,3.5-0.1,5.3-0.2c1.3-0.1,2.6-0.1,3.9-0.1
				c15.6,0,23.8,7.1,27.1,14.4c0.8-0.7,1.5-1.5,2.2-2.4c1.2-4.4,1.9-9.5,1.8-15.3C145.5,260.2,114.8,245,84.9,245"/>
			<path style="clip-path:url(#SVGID_4_);fill:#E0E0E0;" d="M19.9,336.1C19.9,336.1,19.9,336.1,19.9,336.1c1.9,1.4,4,2.5,6.2,3.5
				C24.1,338.5,22,337.3,19.9,336.1"/>
			<path style="clip-path:url(#SVGID_4_);fill:#E0E0E0;" d="M18.7,335.3c0.4,0.3,0.7,0.5,1.1,0.8c0,0,0.1,0,0.1,0
				C19.5,335.8,19.1,335.6,18.7,335.3"/>
			<path style="clip-path:url(#SVGID_4_);fill:#FC6800;" d="M25.6,242.8c-7.7,0-15.8,2.3-24.1,8.1c-10.4,7.4-15.2,15.9-16.8,24.2
				c3.1-1.8,6.7-2.8,10.9-2.8l0.1,0h0.2c21.6,0,25.8-12.4,38.6-28.6C31.6,243.1,28.7,242.8,25.6,242.8"/>
			<path style="clip-path:url(#SVGID_4_);fill:#F65A00;" d="M34.5,243.8c-12.8,16.2-17,28.6-38.6,28.6h-0.2l-0.1,0
				c-4.2,0-7.8,1-10.9,2.8c-4,21.1,12.7,41.3,12.7,41.3c6.2,8,13.8,14.1,21.3,18.8c-7.4-5.4-12.7-13.3-14-22.2
				c-3.4-23.3,20.8-49.7,48.1-61.6C47.3,248.1,41.1,245.2,34.5,243.8"/>
			<path style="clip-path:url(#SVGID_4_);fill:#F04400;" d="M147.1,304.2c-3.6,8.9-9.8,14.6-16.6,18.6c-6.6,3.9-15.3,5-23.2,5
				c-11.3,0-21.1-2.3-21.1-2.3s-3.4-0.8-8.5-1.5c-9.7,6.9-21.7,15.9-28.3,17.5c-2.9,0.7-5.9,1.1-8.8,1.1c-5,0-10-1.1-14.5-3
				c13.6,7,25.2,9.5,25.2,9.5c9.6,1.7,18.6,2.5,26.9,2.5c24,0,42.1-6.4,53.4-14.5c11.6-8.3,16.7-19,16.6-26.8
				C148.2,308.3,147.8,306.3,147.1,304.2"/>
			<path style="clip-path:url(#SVGID_4_);fill:#F04400;" d="M146.4,302.3c-9.6,8.2-33.1,4.6-56.2,13.7c-2.7,1.1-7.2,4.2-12.4,7.9
				c5.1,0.8,8.5,1.5,8.5,1.5s9.8,2.3,21.1,2.3c7.9,0,16.6-1.1,23.2-5c6.8-4,13-9.8,16.6-18.6C146.9,303.6,146.7,303,146.4,302.3"/>
			<path style="clip-path:url(#SVGID_4_);fill:#F04400;" d="M59.1,322.5c-9.3,0-18.9,1.4-24.9,5.9c-5,3.8-9.8,6.2-14.3,7.7
				c2.1,1.3,4.2,2.4,6.2,3.5c4.5,1.9,9.4,3,14.5,3c2.9,0,5.9-0.3,8.8-1.1C56,339.8,68,330.9,77.7,324
				C72.7,323.2,65.9,322.5,59.1,322.5"/>
			<path style="clip-path:url(#SVGID_4_);fill:#F04400;" d="M52.9,251.6c-27.3,11.9-51.5,38.3-48.1,61.6c1.3,8.9,6.6,16.8,14,22.2
				c0.4,0.2,0.8,0.5,1.2,0.7c4.5-1.4,9.3-3.9,14.3-7.7c5.9-4.5,15.5-5.9,24.9-5.9c6.9,0,13.6,0.7,18.6,1.5c5.2-3.7,9.8-6.8,12.4-7.9
				c23.1-9.1,46.6-5.6,56.2-13.7c-3.3-7.3-11.5-14.4-27.1-14.4c-1.2,0-2.5,0-3.9,0.1c-1.9,0.1-3.6,0.2-5.3,0.2
				c-11.7,0-20.2-3.9-31.9-15.1C74.1,269.3,65,259.1,52.9,251.6"/>
		</g>
		<g id="矩形_10_7_" style="clip-path:url(#SVGID_2_);">
			<g>
				<path style="fill-rule:evenodd;clip-rule:evenodd;fill:#FB5701;" d="M69.9,5.9C69.4,0.2,64.3-4,58.7-3.4
					c-4.8,0.5-8.5,4.4-9.1,9.1c-0.1,0.8-0.1,1.6,0,2.5c0.6,5.8,5.6,9.9,11.3,9.3c4.8-0.5,8.5-4.4,9.1-9.1C70,7.6,70,6.8,69.9,5.9z
					 M46.5,17.9c-2.5-0.2-4.7,1.6-5,4c0,0.1,0,0.2,0,0.2c-0.2,2.5,1.7,4.7,4.3,4.9c2.5,0.2,4.7-1.6,5-4c0-0.1,0-0.2,0-0.2
					C51,20.3,49.1,18.1,46.5,17.9z"/>
			</g>
		</g>
	</g>
	<g>
		<defs>
			<rect id="SVGID_5_" x="1.7" y="23.8" width="62.2" height="263.2"/>
		</defs>
		<clipPath id="SVGID_6_">
			<use xlink:href="#SVGID_5_"  style="overflow:visible;"/>
		</clipPath>
		<ellipse style="opacity:0.3;clip-path:url(#SVGID_6_);fill:#60391F;" cx="30.9" cy="266.4" rx="56.7" ry="8.1"/>
		<g id="形状_13_51_" style="clip-path:url(#SVGID_6_);">
			<g>
				<path style="fill:#FF9B48;" d="M22.5,138.6c0,0-10,4.3-19.9,14.1c-12.9,11.6-20,18.4-26,20.1c-1,0.5-4.5,1.7-6.8,2.2
					c-3,0.8-6.2,0.8-7.2,1.9c-0.5,0.6-0.2,1.5,0.3,1.9c0.5,0.4,2.1,0.4,2.1,0.4s-4.4,1.3-2.8,4c1.5,2.5,11.4-4.5,11.9-1.4
					c0.2,1.7-5.3,2.9-2.7,5c1.2,0.9,5.2-1.4,7.9-3.9c2-1.8,3.9-4.9,10.2-9.2c5.1-3.5,14.5-9.1,24.6-13.3
					C36.6,151,22.5,138.6,22.5,138.6z"/>
			</g>
		</g>
		<g id="形状_14_51_" style="clip-path:url(#SVGID_6_);">
			<g>
				<path style="fill:#CC7123;" d="M-22.7,176.6c-0.5,0.5-1.7,1.2-2.3,1.6c-1.2,0.7-2.3,1-2.3,1s0.3,0.1,0.8,0
					c1.5-0.4,3.3-1.2,4.2-1.9C-21.6,176.6-22,176-22.7,176.6z"/>
			</g>
		</g>
		<g id="形状_13_26_" style="clip-path:url(#SVGID_6_);">
			<g>
				<path style="fill-rule:evenodd;clip-rule:evenodd;fill:#FF9B48;" d="M100.1,179.2c0,0,1.6,0,2.1-0.4c0.5-0.4,0.8-1.3,0.3-1.9
					c-1-1.1-4.1-1.1-7.2-1.9c-2.3-0.6-5.8-1.7-6.8-2.2c-6-1.8-13.1-8.5-26-20.1c-9.9-9.8-20.6-14.2-20.6-14.2S28.5,151,51,160.3
					c10.1,4.2,19.6,9.9,24.6,13.3c6.2,4.3,8.2,7.4,10.2,9.2c2.8,2.5,6.8,4.8,7.9,3.9c2.6-2.1-2.9-3.3-2.7-5
					c0.4-3.1,10.4,3.9,11.9,1.4C104.5,180.5,100.1,179.2,100.1,179.2z"/>
			</g>
		</g>
		<g id="形状_14_26_" style="clip-path:url(#SVGID_6_);">
			<g>
				<path style="fill-rule:evenodd;clip-rule:evenodd;fill:#CC7123;" d="M106.3,178.2c-0.6-0.4-1.8-1.1-2.3-1.6
					c-0.7-0.7-1.1,0-0.4,0.6c0.9,0.7,2.7,1.6,4.2,1.9c0.5,0.1,0.8,0,0.8,0S107.6,178.9,106.3,178.2z"/>
			</g>
		</g>
		
			<radialGradient id="SVGID_7_" cx="-3219.1589" cy="15.6171" r="103.0194" gradientTransform="matrix(0.4524 0 0 0.4205 1490.7003 154.5205)" gradientUnits="userSpaceOnUse">
			<stop  offset="0" style="stop-color:#FFC07D"/>
			<stop  offset="0.5713" style="stop-color:#FEB162"/>
			<stop  offset="1" style="stop-color:#FEA852"/>
		</radialGradient>
		<path style="clip-path:url(#SVGID_6_);fill-rule:evenodd;clip-rule:evenodd;fill:url(#SVGID_7_);" d="M102.7,268.5
			c-6.7,2.4-20.7,1.5-28.7,1.1c-8.3-0.4-26.1-2.9-29.4-3.8c-7-1.9-3-6.3-2.3-9.4c0.7-3.2,1-6.4,0.9-9.9c-0.1-1.2-0.1-3.3-2.2-3.2
			c-2.2,0.7-4.3,1.1-6.2,1.2c0,0,0,0,0,0c-0.2,0-0.3,0-0.5,0c-0.1,0-0.2,0-0.3,0c-0.1,0-0.2,0-0.3,0c-0.1,0-0.3,0-0.5,0
			c-0.1,0-0.1,0-0.2,0c-0.1,0-0.3,0-0.5,0c-0.1,0-0.2,0-0.2,0c-0.1,0-0.2,0-0.4,0c-0.1,0-0.2,0-0.4,0c-0.1,0-0.2,0-0.2,0
			c-0.2,0-0.3,0-0.5,0c-0.1,0-0.1,0-0.2,0c-0.2,0-0.3,0-0.5,0c-0.1,0-0.2,0-0.3,0c-0.1,0-0.2,0-0.3,0c-0.2,0-0.3,0-0.5,0
			c0,0,0,0,0,0c-1.9-0.2-4-0.6-6.2-1.2c-2-0.1-2.1,2.1-2.2,3.2c-0.2,3.5,0.2,6.7,0.9,9.9c0.7,3.1,4.6,7.5-2.3,9.4
			c-3.3,0.9-22.7,3.3-31.1,3.9c-9,0.6-23.8,0.7-28-1.1c-2.3-1-2.5-7,3.9-10.2c7.9-4.1,41-2.3,43.2-2.4c4.6-0.3,3.7-1.8,3.7-4.1
			c0.1-4.3-3.5-6.5-6.5-8.5c-3-1.9-18.2-8.6-18.2-23.3c0-7.6,2.1-17.8,11.9-32.4c23.9-35.5,24.7-55.2,24.7-55.2l1.9-0.1
			c0.1-0.4,0.1-0.6,0.1-0.6L32,132l7.1-0.3c0,0,0,0.2,0.1,0.6l1.9,0.1c0,0,0.9,19.8,24.7,55.2c9.8,14.6,11.9,24.8,11.9,32.4
			c0,14.8-15.2,21.4-18.2,23.3c-3,1.9-6.6,4.1-6.5,8.5c0,2.3-0.7,4.4,3.9,4.5c2.2,0,35.1-2,43.1,2
			C106.2,261.5,105.1,267.6,102.7,268.5z"/>
		<path style="clip-path:url(#SVGID_6_);fill-rule:evenodd;clip-rule:evenodd;fill:#DD7528;" d="M22.5,304.4
			c-7.1,1.9-6.3,5.2-5.2,7.9c0.1,0.3,0.3,0.6,0.5,1c0.4,0.1,0.9,0.1,1.3,0.2c-2.5-5.7,1.1-7.4,4.2-8.6
			C24.6,304.4,23.4,304.2,22.5,304.4z"/>
		<path style="clip-path:url(#SVGID_6_);fill-rule:evenodd;clip-rule:evenodd;fill:#DD7528;" d="M22.8,304.2
			c-6.1,1.4-5.2,6.5-4.2,8.9c0.1,0.3,0.2,0.5,0.3,0.8c0.4,0,0.8,0,1.2,0c-1.7-5.2,0.5-7.5,2.3-8.7C23.3,304.5,25,303.7,22.8,304.2z"
			/>
		<path style="clip-path:url(#SVGID_6_);fill-rule:evenodd;clip-rule:evenodd;fill:#DD7528;" d="M156.6,313.2
			c0.1-0.2,0.2-0.5,0.3-0.7c0.8-2.6-0.1-7.2-5.1-8.5c-2.7-0.7-1.6,0.6-0.3,1c3,1,4.5,4.5,3.2,8.5C155.3,313.4,156,313.3,156.6,313.2
			z"/>
		<path style="clip-path:url(#SVGID_6_);fill-rule:evenodd;clip-rule:evenodd;fill:#DD7528;" d="M139,313.2c1.4-3.2,0.2-7.9-3.3-9.2
			c-1.4-0.3-0.1,0.9,0.9,1.9c1.3,1.4,2,4.7,0.8,7.2c-0.2,0.4-0.3,0.6-0.4,0.8c0.5,0,1,0,1.5,0C138.7,313.7,138.8,313.5,139,313.2z"
			/>
		<g id="形状_12_18_" style="clip-path:url(#SVGID_6_);">
			<g>
				
					<linearGradient id="SVGID_8_" gradientUnits="userSpaceOnUse" x1="84.1881" y1="165.8427" x2="83.4634" y2="100.6165" gradientTransform="matrix(1 0 0 1 -52 36)">
					<stop  offset="0" style="stop-color:#FFC28A"/>
					<stop  offset="0.7938" style="stop-color:#FFCD9F"/>
					<stop  offset="1" style="stop-color:#FFD0A5"/>
				</linearGradient>
				<path style="fill-rule:evenodd;clip-rule:evenodd;fill:url(#SVGID_8_);" d="M43.2,159c-5-8.1-17.2-7.3-22.1,0.6
					c-5.8,9.5-12.9,35.4-7.9,50.2c4.1,12.2,33,13,37.5,1.3C56.7,195.5,48.4,167.6,43.2,159z"/>
			</g>
		</g>
		<path style="opacity:0.6;clip-path:url(#SVGID_6_);fill-rule:evenodd;clip-rule:evenodd;fill:#DD7528;" d="M-1.8,196.7
			c0,0,13.4,3.3,34.9,3.3c20.3,0,24-1.2,34.7-3.6C68.1,196.7,35.1,254.2-1.8,196.7z"/>
		<g id="形状_11_拷贝_2_18_" style="clip-path:url(#SVGID_6_);">
			<g>
				<path style="fill-rule:evenodd;clip-rule:evenodd;fill:#FFBF80;" d="M66.9,196.7c-0.3,0.2-0.6,0.3-0.9,0.4
					c-9.9,4.4-21.5,5.8-30.7,6.1c-9,0.1-22.3-0.7-33.3-5.1c-1-0.4-2.3-0.8-3.2-1.3c-2.5-1.2-3,1.9-3,3.8c0.1,7.9,1.9,32.8,24.5,41.2
					c0.9,0.6,3.7,2,9.3,2.3c1.8,0.3,3.9,0.2,6,0c0.2,0,0.4,0,0.7,0c3.4-0.4,6.4-1.2,9.2-2.4c0.2-0.1,0.3-0.1,0.3-0.1v0
					c17.2-7.6,22-29.5,23.4-40.2c0.1-0.8,0.2-1.5,0.2-2.2C69.7,196.4,67.8,196.2,66.9,196.7z"/>
			</g>
		</g>
		<path style="opacity:0.6;clip-path:url(#SVGID_6_);fill-rule:evenodd;clip-rule:evenodd;fill:#DD7528;" d="M41,132.4
			c-2.6,1.6-6.3,3.7-8.3,4c-3.1,0.4-6.5-0.1-9.9-4c0,0.3-0.1,1.6-0.6,4c1,3.2,3.1,6.5,7.7,7.1c5.4,0.6,9.3-3.7,11.7-7.4
			C41.2,133.6,41.1,132.4,41,132.4L41,132.4z"/>
		<g id="形状_9_18_" style="clip-path:url(#SVGID_6_);">
			<g>
				<path style="fill-rule:evenodd;clip-rule:evenodd;fill:#FFC07D;" d="M22.4,72.3C11.1,47.3-6.2,37.7-6.2,37.7s-4.5-2.8-5.1,0.3
					C-18,77.1,13,85.8,13,85.8S33.8,97.2,22.4,72.3z"/>
			</g>
		</g>
		<g id="形状_10_18_" style="clip-path:url(#SVGID_6_);">
			<g>
				<path style="fill-rule:evenodd;clip-rule:evenodd;fill:#FF9B48;" d="M18.9,78C14.6,58.9-1.4,52.3-1.4,52.3s-3.3-2.4-3.4,0.9
					c1.3,24.6,21.9,28.5,21.9,28.5S19.9,82.5,18.9,78z"/>
			</g>
		</g>
		<g id="形状_9_拷贝_18_" style="clip-path:url(#SVGID_6_);">
			<g>
				<path style="fill:#FFC07D;" d="M76.9,37.9c-0.6-3.1-5.1-0.3-5.1-0.3s-17.4,9.6-28.7,34.5c-11.3,24.9,9.4,13.5,9.4,13.5
					S83.6,77,76.9,37.9z"/>
			</g>
		</g>
		<g id="形状_10_拷贝_20_" style="clip-path:url(#SVGID_6_);">
			<g>
				<path style="fill:#FF9B48;" d="M66.9,52.2c0,0-16,6.6-20.3,25.8c-1,4.4,1.8,3.7,1.8,3.7S69,77.7,70.3,53.1
					C70.3,49.9,66.9,52.2,66.9,52.2z"/>
			</g>
		</g>
		<g id="脸_50_" style="clip-path:url(#SVGID_6_);">
			<g>
				
					<radialGradient id="SVGID_9_" cx="-3107.5137" cy="-121.2169" r="66.536" gradientTransform="matrix(0.4524 5.950419e-03 -4.140278e-03 0.3148 1438.0768 191.8278)" gradientUnits="userSpaceOnUse">
					<stop  offset="0" style="stop-color:#FECD97"/>
					<stop  offset="1" style="stop-color:#FFC07A"/>
				</radialGradient>
				<path style="fill:url(#SVGID_9_);" d="M55.8,94.5c-1.1-3.6-2.2-8.7-3.7-13C48.8,71.9,41,68.8,32.8,68.9
					c-8.3,0.1-16.2,3.7-19.4,12.7c-1.5,4.3-2.4,9.4-3.5,13c-1.1,3.6-3.6,18.7,2.6,28.1c0,0.1,2.7,3.3,7.6,8.2
					c4.1,4.1,6.4,7.4,11.6,7.7c0,0,0.1,0,0.1,0c0,0,0.1,0,0.1,0c0.4,0,0.9,0,1.3,0c0.1,0,0.2,0,0.2,0c6.4-0.4,8.6-4.5,12.6-8.1
					c5.2-4.7,7.2-7.8,7.2-7.9C59.3,113.2,56.9,98.1,55.8,94.5z"/>
			</g>
		</g>
		<path style="clip-path:url(#SVGID_6_);fill-rule:evenodd;clip-rule:evenodd;fill:#66361F;" d="M32.5,97.6
			c-0.1,0.1,9-2.6,12.9-12.4c0-0.2,4.1,7.4,10.6,10.4c-0.1-0.4-0.2-0.7-0.3-1c-1-4.2-1.9-8.3-3.4-12.6c-3.3-9.6-11.4-13.1-19.6-13
			c-8.3,0.1-16.2,3.7-19.4,12.7c-1.5,4.3-2.8,9.8-3.5,13c0,0.2-0.1,0.3-0.1,0.5c2.2-0.3,6.2-2.1,10-9.5
			C19.5,85.6,21.4,92.1,32.5,97.6z"/>
		<path style="clip-path:url(#SVGID_6_);fill-rule:evenodd;clip-rule:evenodd;fill:#E5432E;" d="M54.6,90.3c-0.4-1.6-0.9-3.3-1.3-5
			c-3.2-4.2-9.9-10.9-20.2-10.8C21.1,74.6,15.3,81,12.3,85.1c-0.4,1.6-0.8,3.2-1.2,4.7c2.8-2.9,10.3-9.3,21.9-9.3
			C43.4,80.6,50.8,86.8,54.6,90.3z"/>
		<g id="形状_3_拷贝_18_" style="clip-path:url(#SVGID_6_);">
			<g>
				<path style="fill-rule:evenodd;clip-rule:evenodd;fill:#E5432E;" d="M54.2,43.5c-0.4-0.6-0.8-0.4-1.2-0.3
					C38.6,50,34.1,62.8,32.8,69.1c-1.9-7.7-7.1-19.6-20.3-26c-0.5-0.3-1.2-0.4-1.4,0.5c0,0-4.7,21.4,17,32.4
					c-4.5,3.4-9.3,7.9,4.6,2.1c15.1,6.3,8.8,1.2,4.5-2C59,65,54.2,43.5,54.2,43.5z"/>
			</g>
		</g>
		<g id="形状_73_18_" style="clip-path:url(#SVGID_6_);">
			<g>
				<path style="fill-rule:evenodd;clip-rule:evenodd;fill:#AD4023;" d="M32.1,66.5c0,0-1,2.2-0.8,4.9c0.2,3.2,0.9,4.7,1,3.5
					c0-0.9,0.4-4.1,0.6-5.9C32.9,68.6,32.1,66.5,32.1,66.5z"/>
			</g>
		</g>
		<g id="形状_82_18_" style="clip-path:url(#SVGID_6_);">
			<g>
				<path style="fill-rule:evenodd;clip-rule:evenodd;fill:#CA4825;" d="M42,76.3c-0.6-0.3-2.9-1.3-3.3-1.1c-2,1.3-4.2,3.5-1.2,2.7
					C39.7,77.4,42.7,76.6,42,76.3z M26.9,75.3c-0.8-0.2-3.4,0.9-3.4,0.9s1,0.5,2.2,0.9c1.2,0.3,3.8,1.3,3.7,0.6
					C29.2,76.9,28,75.6,26.9,75.3z"/>
			</g>
		</g>
		<path style="clip-path:url(#SVGID_6_);fill-rule:evenodd;clip-rule:evenodd;fill:#FFCE99;" d="M23.3,108.8
			c-2.5-6.1-6.2-7.4-8.8-6.9c-4.9,0.9-5.5,3.4-5.5,3.2c0-0.1-0.1-4.4,4-5.4c3.8-0.9,7.6,0.6,9.2,3.2c1.5,2.3,1.4,5.9,1.4,5.9"/>
		<path style="clip-path:url(#SVGID_6_);fill-rule:evenodd;clip-rule:evenodd;fill:#FFCE99;" d="M42,108.8c2.5-6.1,6.2-7.4,8.8-6.9
			c4.9,0.9,5.5,3.4,5.5,3.2s0.1-4.4-4-5.4c-3.8-0.9-7.6,0.6-9.2,3.2c-1.5,2.3-1.4,5.9-1.4,5.9"/>
		<g id="形状_4_50_" style="clip-path:url(#SVGID_6_);">
			<g>
				<path style="fill:#FFFFFF;" d="M17.4,102.4c-2-0.9-6.2-0.5-7.8,0.9c0,0-2.5,10.2,6.5,11.1c4.4,0.2,7-2.2,7.4-4.7
					C24,106.9,19.7,103.5,17.4,102.4z"/>
			</g>
		</g>
		<g id="形状_6_50_" style="clip-path:url(#SVGID_6_);">
			<g>
				<path style="fill-rule:evenodd;clip-rule:evenodd;fill:#512A15;" d="M21.8,104.8c0,0-2.3-3.1-5.3-3.9c-1.1-0.3-3.5,0.3-3.5,0.3
					s-3.6,3-0.9,8c1.6,2.6,4.1,3.7,6.3,3.5c2.7-0.3,4.3-2.2,4.5-4.3C23,106.2,21.8,104.8,21.8,104.8z"/>
			</g>
		</g>
		<g id="形状_48_18_" style="clip-path:url(#SVGID_6_);">
			<g>
				<path style="fill:#FFFFFF;" d="M11.2,108.7c-0.4,0.8,0,1.8,0.7,1.9c1.3,0.3,2.8-0.9,2.6-2.1C14.4,107.7,11.7,107.6,11.2,108.7z"
					/>
			</g>
		</g>
		<g id="形状_36_副本_50_" style="clip-path:url(#SVGID_6_);">
			<g>
				<path style="fill-rule:evenodd;clip-rule:evenodd;fill:#A85726;" d="M20.7,96.5c-3.3-1.4-6.7-0.9-6.1,0.4
					c0.2,0.6,1.9-0.4,4.6,0.4c3.7,1.2,3.5,3.2,4.4,3C25,99.9,22.5,97.3,20.7,96.5z"/>
			</g>
		</g>
		<g id="形状_4_27_" style="clip-path:url(#SVGID_6_);">
			<g>
				<path style="fill:#FFFFFF;" d="M55.9,103.3c-1.6-1.4-5.8-1.7-7.8-0.9c-4.8,1.8-6.5,4.6-6.1,7.3c0.4,2.5,3,4.9,7.4,4.7
					C58.4,113.5,55.9,103.3,55.9,103.3z"/>
			</g>
		</g>
		<g id="形状_6_27_" style="clip-path:url(#SVGID_6_);">
			<g>
				<path style="fill-rule:evenodd;clip-rule:evenodd;fill:#512A15;" d="M52.8,101.7c0,0-2-0.5-3.1-0.3c-3,0.7-5.5,2.6-5.5,2.6
					c0,0-0.9,3.3-0.4,4.7c1,2.6,1.9,3.8,4.6,3.9c2.2,0.1,4.7-0.7,5.7-3.9C55.3,105,52.8,101.7,52.8,101.7z"/>
			</g>
		</g>
		<g id="形状_48_副本_18_" style="clip-path:url(#SVGID_6_);">
			<g>
				<path style="fill:#FFFFFF;" d="M46.4,108.9c-0.6-1.1-3,0.2-3.1,1c-0.2,1.3,0.5,1.7,1.5,1.4C46,111,47,109.9,46.4,108.9z"/>
			</g>
		</g>
		<g id="形状_36_副本_27_" style="clip-path:url(#SVGID_6_);">
			<g>
				<path style="fill-rule:evenodd;clip-rule:evenodd;fill:#A85726;" d="M45,96.4c-1.9,0.8-4.3,2.9-3.3,3.7c1,0.7,1.6-1.6,4.2-2.5
					c3.2-1.1,5.6,0.1,5.7-0.7C51.9,95.7,48.2,95.1,45,96.4z"/>
			</g>
		</g>
		<g id="Shape_2_50_" style="clip-path:url(#SVGID_6_);">
			<g>
				<path style="fill-rule:evenodd;clip-rule:evenodd;fill:#9C6342;" d="M54.9,112.1c0.9-1.4,1-2.7,0.8-2.2
					c-0.6,1.2-1.4,2.6-3.2,3.4c-1.7,0.8-3.7,0.8-5.1,0.9c-1.2,0,2.4,0.9,5.1-0.1c0.2,0.1,0.5,0.2,0.8,0.3c0.3,0.2,1,0.6,1,0.4
					c-0.1-0.4-0.3-1-0.6-1.3c0.3-0.2,0.5-0.4,0.7-0.6c0.1,0,0.2,0,0.4,0.1c0.5,0.1,1.1,0.7,1.1,0.4C55.8,113,55.4,112.4,54.9,112.1z
					"/>
			</g>
		</g>
		<g id="形状_65_副本_50_" style="clip-path:url(#SVGID_6_);">
			<g>
				<path style="fill-rule:evenodd;clip-rule:evenodd;fill:#713D1F;" d="M59.4,102.2c-0.2,0.3-0.7,0.8-1.3,1.1
					c-0.5,0.2-1.3,0.4-2,0.2c0,0,0-0.1-0.1-0.1c-0.5-1-2-2-3.5-2.3c-2.4-0.5-4.5-0.2-6.3,0.6c-2.3,1.1-4,3.2-4.5,6.1
					c-0.2,1.2,0.1,1.9,0.4,0.9c0.9-2.6,1.7-4,4.1-5.2c1.8-1,4.1-1.7,7.5-0.1c1.1,0.6,1.8,1.7,2,2.5c0.1,0.3,0.4,1.3,0.5,0.6
					c0-0.3,0.1-0.6,0.1-1c0.2,0,0.6,0,1.2-0.2c0.5-0.2,1.3-0.8,1.6-1.5C59.7,102.9,59.7,101.6,59.4,102.2z"/>
			</g>
		</g>
		<g id="Shape_2_27_" style="clip-path:url(#SVGID_6_);">
			<g>
				<path style="fill-rule:evenodd;clip-rule:evenodd;fill:#9C6342;" d="M18,114.2c-1.4,0-3.4-0.1-5.1-0.9c-1.8-0.8-2.6-2.2-3.2-3.4
					c-0.3-0.5-0.1,0.9,0.8,2.2c-0.5,0.3-0.9,0.8-0.9,1.2c0,0.3,0.5-0.3,1.1-0.4c0.2,0,0.3,0,0.4-0.1c0.2,0.2,0.4,0.4,0.7,0.6
					c-0.3,0.3-0.6,0.9-0.6,1.3c0,0.2,0.6-0.2,1-0.4c0.3-0.2,0.6-0.3,0.8-0.3C15.6,115,19.3,114.2,18,114.2z"/>
			</g>
		</g>
		<g id="形状_65_副本_27_" style="clip-path:url(#SVGID_6_);">
			<g>
				<path style="fill-rule:evenodd;clip-rule:evenodd;fill:#713D1F;" d="M23.5,107.7c-0.5-2.8-2.1-5-4.5-6.1
					c-1.8-0.8-3.8-1.1-6.3-0.6c-1.4,0.3-2.7,1.2-3.2,1.9c-0.1,0.2-0.2,0.3-0.3,0.5c0,0,0,0,0,0c-0.7,0.3-1.6,0.1-2.1-0.2
					c-0.6-0.3-1.2-0.8-1.3-1.1c-0.3-0.5-0.3,0.7,0.1,1.5c0.4,0.7,1.2,1.3,1.6,1.5c0.6,0.3,1.1,0.3,1.3,0.2c0,0.4,0,0.7,0,1
					c0.1,0.6,0.4-0.1,0.5-0.3c0.4-1.2,0.8-2.3,2-2.8c3.4-1.7,5.7-0.9,7.5,0.1c2.4,1.3,3.2,2.9,4.1,5.2
					C23.5,109.6,23.7,108.9,23.5,107.7z"/>
			</g>
		</g>
		<g id="腮红2_18_" style="clip-path:url(#SVGID_6_);">
			<g>
				<path style="fill-rule:evenodd;clip-rule:evenodd;fill:#FFA083;" d="M17.2,117.2c-3.5-0.4-5.1,0.8-5.1,1.9
					c0,0.9,1.3,2.7,4.6,2.9c4.1,0.2,5.3-1.1,5.4-1.8C22.1,119.4,21.5,117.7,17.2,117.2z"/>
			</g>
		</g>
		<g id="腮红2_副本_18_" style="clip-path:url(#SVGID_6_);">
			<g>
				<path style="fill-rule:evenodd;clip-rule:evenodd;fill:#FFA083;" d="M48.3,117.2c-4.3,0.5-4.9,2.2-4.8,2.9c0,0.7,1.3,2,5.4,1.8
					c3.3-0.2,4.5-2,4.6-2.9C53.4,118.1,51.9,116.9,48.3,117.2z"/>
			</g>
		</g>
		<path style="clip-path:url(#SVGID_6_);fill-rule:evenodd;clip-rule:evenodd;fill:#512A15;" d="M32.4,136.2c-2.2,0-5.8-2-5.5-4.3
			c0.2-1.8,2-2.4,5.5-2.4c3.6,0,5.4,0.6,5.6,2.4C38.2,133.9,35.3,136.2,32.4,136.2z"/>
		<g id="形状_20_18_" style="clip-path:url(#SVGID_6_);">
			<g>
				<path style="fill:#FCEACB;" d="M24.2,176.1c-6.7-5.2-15-1.8-15-0.5c0.5,14.1,14,12.7,14,12.7c4.7-0.5,5.2-3.8,5.2-3.8
					S28.7,179.6,24.2,176.1z"/>
			</g>
		</g>
		<g id="形状_21_18_" style="clip-path:url(#SVGID_6_);">
			<g>
				<path style="fill:#FFBD99;" d="M26.5,183.8c-0.9-4.8-10.9-6.4-10.7-4.5c0.5,7.9,9.3,7.2,9.3,7.2S26.8,186.3,26.5,183.8z"/>
			</g>
		</g>
		<g id="形状_20_拷贝_18_" style="clip-path:url(#SVGID_6_);">
			<g>
				<path style="fill:#FCEACB;" d="M40.3,176.7c-4.6,4.2-3.2,9.2-3.2,9.2s0.3,1.9,5.1,2.4c0,0,13.5,1.4,14-12.7
					C56.2,174.3,47.7,170.1,40.3,176.7z"/>
			</g>
		</g>
		<g id="形状_21_拷贝_18_" style="clip-path:url(#SVGID_6_);">
			<g>
				<path style="fill-rule:evenodd;clip-rule:evenodd;fill:#FFBD99;" d="M38.9,183.9c-0.3,2.5,1.4,2.8,1.4,2.8s8.8,0.7,9.3-7.2
					C49.8,177.4,39.8,179,38.9,183.9z"/>
			</g>
		</g>
		<g id="形状_23_18_" style="opacity:0.4;clip-path:url(#SVGID_6_);">
			<g>
				<path style="fill-rule:evenodd;clip-rule:evenodd;fill:#DD7528;" d="M42.7,204c-5.4-1-20.2-2-21.9,1.7
					c-1.6,3.7-5.4,1.9-4.6,12.4c0,0,1.3,6.7,6.5,5.4c1.6-0.6,2.2-2.8,2.2-5c0-2.2,0.9-2.3,2.9-2.3c4.5,0.1,7,0.5,10.1-1.5
					c1.7-1.1,2.8,1.4,2.5,4.1c-0.3,3.1,0.3,4.4,2.8,4.9c2.3,0.5,4.2-0.5,4.9-2.9c0.7-2.5,0.9-5.2,0.9-5.2S48.2,205,42.7,204z"/>
			</g>
		</g>
		<path style="clip-path:url(#SVGID_6_);fill-rule:evenodd;clip-rule:evenodd;fill:#FCEBCE;" d="M43.7,196.8c0,0,6,4.1,5.7,17.5
			c-0.2,4.6-2.4,6.9-4.8,6.8c-2.4-0.1-2.6-2.7-2.3-5.4c0.1-1.1,0.4-4.5-0.8-9.3C40.3,201.5,43.7,196.8,43.7,196.8z"/>
		<path style="clip-path:url(#SVGID_6_);fill-rule:evenodd;clip-rule:evenodd;fill:#FCEBCE;" d="M20.3,198.4c0,0-4.8,4.6-4.4,15.6
			c0.2,4.6,2.3,7.2,4.7,7.1c2.4-0.2,2.5-2.1,2.4-4.2c-0.1-1.9-0.5-4.9,0.8-9.7C25.1,202.3,20.3,198.4,20.3,198.4z"/>
		<path style="clip-path:url(#SVGID_6_);fill-rule:evenodd;clip-rule:evenodd;fill:#F6BF96;" d="M44.2,217.7c-0.1,0.9-0.2,2.4-0.5,3
			c0.1,0.1,0.2,0.1,0.4,0.1c0.1-0.4,0.3-1,0.4-1.6C44.6,217.8,44.3,216.3,44.2,217.7z"/>
		<path style="clip-path:url(#SVGID_6_);fill-rule:evenodd;clip-rule:evenodd;fill:#F6BF96;" d="M46.1,217.8c0,0.7,0,2.2-0.4,3.1
			c0.2-0.1,0.4-0.1,0.6-0.2c0.2-0.5,0.2-1.2,0.3-1.7C46.6,217.9,46.1,216.9,46.1,217.8z"/>
		<path style="clip-path:url(#SVGID_6_);fill-rule:evenodd;clip-rule:evenodd;fill:#F6BF96;" d="M21.5,219.3
			c-0.2-0.8-0.6-2.6-0.7-2.1c-0.1,0.9,0.1,2.1,0.4,3c0.1,0.2,0.2,0.5,0.3,0.6c0.2-0.1,0.4-0.2,0.6-0.3
			C21.9,220.2,21.7,219.8,21.5,219.3z"/>
		<path style="clip-path:url(#SVGID_6_);fill-rule:evenodd;clip-rule:evenodd;fill:#F6BF96;" d="M19.7,219.6
			c-0.5-1.4-0.6-2.9-0.7-1.8c-0.1,1.2,0.2,2.2,0.7,3c0,0.1,0.1,0.1,0.1,0.2c0.2,0,0.3,0,0.5,0C20.1,220.6,19.9,220.1,19.7,219.6z"/>
		<g id="脸_27_" style="clip-path:url(#SVGID_6_);">
			<g>
				<path style="fill:#FCEBCE;" d="M44.6,192.8c-2.3-8.3-7.8-10.4-11.9-10.4c-4.1-0.1-10.2,2.1-12.1,10.2c-0.4,2.8-2,5.1-1.4,8.6
					c0.5,3.6,1.7,5.3,6.7,8.6c1,0.8,1.8,0.8,3,1.7c1.2,0.9,2.6,1.3,5,1c0,0,0.1,0,0.1,0c1-0.2,1.7-0.5,2.4-1c1.2-0.9,2-0.9,3-1.7
					c5-3.4,6.2-5.1,6.7-8.6C46.5,197.7,45,194.4,44.6,192.8z"/>
			</g>
		</g>
		<g id="形状_77_18_" style="clip-path:url(#SVGID_6_);">
			<g>
				
					<ellipse transform="matrix(8.524617e-02 -0.9964 0.9964 8.524617e-02 -182.7637 209.4421)" style="fill-rule:evenodd;clip-rule:evenodd;fill:#FFDECC;" cx="22.7" cy="204.3" rx="1.1" ry="1.9"/>
			</g>
		</g>
		<g id="形状_77_副本_18_" style="clip-path:url(#SVGID_6_);">
			<g>
				
					<ellipse transform="matrix(-3.273038e-02 -0.9995 0.9995 -3.273038e-02 -160.717 252.9682)" style="fill:#FFDECC;" cx="42.1" cy="204.3" rx="1.1" ry="1.9"/>
			</g>
		</g>
		<path style="clip-path:url(#SVGID_6_);fill:#F7CC9D;" d="M25.3,188.9c0.4,1.7,1.3,2,2.4,2.2c1.3,0.2,2.1-1,2.5-1.6
			c0,0,0.9,1.7,2.1,2.1c1.3,0.4,2.2,0,2.7-0.9c0.3-0.5,0.2-1.4,0.2-1.4s1.1,1.2,2.7,0.7c1-0.3,1.1-1.1,1.1-1.7
			c0.1-0.6-0.1-1.1-0.1-1.1s1.1,1.2,0.8,2.6c-0.2,1-1.1,1.7-2.1,1.5c-0.7-0.1-1.9-0.9-1.9-0.9s-0.1,1.3-1,1.9
			c-0.9,0.6-2.2,0.5-3,0.1c-0.8-0.5-1.6-1.6-1.6-1.6s-0.5,1.1-1.6,1.6c-0.7,0.3-2,0.4-2.8-0.8C24.9,190.4,25.3,188.9,25.3,188.9z"/>
		<g id="形状_75_18_" style="clip-path:url(#SVGID_6_);">
			<g>
				<path style="fill-rule:evenodd;clip-rule:evenodd;fill:#552F19;" d="M23.1,199.8c-2-0.2-2.6,0-2.5,0.4c0.1,0.3,0.5-0.1,2.4,0.3
					c3.1,0.6,4.4,2.7,4.7,1.8C28.1,201.4,25.5,200,23.1,199.8z"/>
			</g>
		</g>
		<g id="形状_75_副本_18_" style="clip-path:url(#SVGID_6_);">
			<g>
				<path style="fill-rule:evenodd;clip-rule:evenodd;fill:#713D1F;" d="M42.2,199.8c-2.4,0.2-5,1.6-4.7,2.6
					c0.3,0.9,1.7-1.2,4.7-1.8c1.9-0.4,2.3,0,2.4-0.3C44.8,199.8,44.3,199.6,42.2,199.8z"/>
			</g>
		</g>
		<g id="形状_19_18_" style="clip-path:url(#SVGID_6_);">
			<g>
				<path style="fill:#57301B;" d="M32.5,209.2c-3.9,0-3.5,1.2-3.5,1.2s0.7,2.4,3.7,2.4c3-0.1,3.5-2.4,3.5-2.4
					S36.4,209.3,32.5,209.2z"/>
			</g>
		</g>
	</g>
	<g>
		<g>
			<path style="fill:#FF6600;" d="M129.1,124.4h13v35.2h1v-35.2h13v-1h-27V124.4z M175.2,135.3c-0.8-0.8-1.8-1.4-2.9-1.8
				c-1.1-0.4-2.4-0.6-3.7-0.6c-1.3,0-2.5,0.2-3.5,0.5c-1,0.4-2,0.9-2.8,1.5c-0.8,0.6-1.5,1.4-2,2.2c-0.5,0.8-0.9,1.8-1.1,2.8h-0.1
				v-16.6h-1v36.2h1v-14.8c0-1.5,0.2-2.8,0.6-4.2c0.4-1.3,1-2.5,1.8-3.5c0.8-1,1.8-1.8,3-2.4c1.2-0.6,2.6-0.9,4.1-0.9
				c1.1,0,2.2,0.2,3.2,0.5c1,0.3,1.9,0.8,2.6,1.5c0.8,0.7,1.4,1.6,1.8,2.6c0.4,1.1,0.7,2.4,0.7,3.9v17.1h1v-17.3
				c0-1.5-0.2-2.9-0.7-4C176.7,137.1,176,136.1,175.2,135.3z M203,158.6c-0.3-0.1-0.6-0.2-0.8-0.5c-0.2-0.2-0.3-0.6-0.3-1.1v-16.6
				c0-1.4-0.3-2.6-0.8-3.5c-0.5-0.9-1.1-1.7-1.9-2.3c-0.8-0.6-1.7-1-2.7-1.2c-1-0.2-2.1-0.4-3.3-0.4c-1.6,0-3,0.2-4.2,0.7
				c-1.2,0.4-2.2,1-3,1.8c-0.8,0.8-1.5,1.7-1.9,2.8c-0.4,1.1-0.7,2.2-0.8,3.4h1c0.2-2.4,1-4.3,2.5-5.7c1.5-1.3,3.7-2,6.4-2
				c1.7,0,3.1,0.2,4.1,0.7c1,0.5,1.8,1,2.3,1.7c0.5,0.7,0.9,1.5,1,2.3c0.1,0.8,0.2,1.7,0.2,2.4c0,1-0.2,1.7-0.6,2.3
				c-0.4,0.5-1,0.9-1.8,1.2c-0.8,0.3-1.9,0.4-3.2,0.5c-1.3,0.1-2.8,0.2-4.6,0.3c-1.1,0.1-2.2,0.2-3.2,0.4c-1.1,0.2-2,0.6-2.9,1.2
				c-0.8,0.6-1.5,1.3-2.1,2.3c-0.5,1-0.8,2.3-0.8,3.9c0,2.3,0.8,4.1,2.4,5.2c1.6,1.2,3.7,1.7,6.3,1.7c1.4,0,2.6-0.2,3.8-0.5
				c1.1-0.4,2.2-0.8,3.1-1.4c0.9-0.6,1.6-1.3,2.2-2.1c0.6-0.8,1-1.6,1.3-2.4h0.1v3.4c0,1,0.3,1.6,0.8,2s1.2,0.5,2,0.5h1.5v-1
				c-0.3,0-0.7,0.1-1.1,0.1C203.7,158.7,203.4,158.7,203,158.6z M200.9,149.1c0,1.3-0.2,2.5-0.7,3.8c-0.5,1.2-1.1,2.3-2,3.2
				c-0.9,0.9-2,1.7-3.3,2.3c-1.3,0.6-2.8,0.9-4.5,0.9c-1.4,0-2.6-0.2-3.6-0.5c-1-0.4-1.7-0.8-2.4-1.4c-0.6-0.6-1-1.2-1.3-1.9
				c-0.3-0.7-0.4-1.5-0.4-2.2c0-1.4,0.2-2.5,0.7-3.4c0.4-0.9,1-1.5,1.8-2c0.7-0.5,1.6-0.8,2.6-1c1-0.2,2-0.3,3-0.4
				c1-0.1,2.1-0.1,3.1-0.2c1.1,0,2.1-0.1,3-0.3c0.9-0.1,1.7-0.3,2.4-0.6s1.2-0.6,1.6-1.1h0.1V149.1z M224.9,135.3
				c-0.8-0.8-1.8-1.4-2.9-1.8c-1.1-0.4-2.4-0.6-3.7-0.6c-1.3,0-2.5,0.2-3.5,0.5c-1,0.4-2,0.9-2.8,1.5c-0.8,0.6-1.5,1.4-2,2.2
				c-0.5,0.8-0.9,1.8-1.1,2.8h-0.1v-6.4h-1v26.1h1v-14.8c0-1.5,0.2-2.8,0.6-4.2c0.4-1.3,1-2.5,1.8-3.5c0.8-1,1.8-1.8,3-2.4
				c1.2-0.6,2.6-0.9,4.1-0.9c1.1,0,2.2,0.2,3.2,0.5c1,0.3,1.9,0.8,2.6,1.5c0.8,0.7,1.4,1.6,1.8,2.6c0.4,1.1,0.7,2.4,0.7,3.9v17.1h1
				v-17.3c0-1.5-0.2-2.9-0.7-4C226.4,137.1,225.8,136.1,224.9,135.3z M253.6,133.5h-1.5l-18,15v-25.1h-1v36.2h1v-9.8l6.7-5.6
				l12.2,15.4h1.4l-12.8-16.1L253.6,133.5z M277.8,158.2l-10.3-24.7h-1.1l10.8,25.8l-1.9,4.8c-0.3,0.8-0.6,1.4-1,1.9
				c-0.4,0.5-0.8,0.8-1.2,1c-0.5,0.2-1,0.4-1.6,0.4c-0.6,0.1-1.4,0.1-2.3,0.1v1c0.8,0,1.5,0,2.2-0.1c0.7-0.1,1.3-0.2,1.9-0.4
				c0.6-0.2,1.1-0.6,1.6-1.1c0.5-0.5,0.9-1.2,1.2-2.1l12-31.3h-1.1L277.8,158.2z M309.5,137.1c-1-1.3-2.2-2.3-3.7-3
				c-1.5-0.8-3.1-1.1-5-1.1c-1.9,0-3.6,0.4-5.1,1.1c-1.5,0.8-2.7,1.8-3.7,3c-1,1.3-1.7,2.7-2.3,4.3c-0.5,1.6-0.8,3.4-0.8,5.1
				c0,1.8,0.3,3.5,0.8,5.1c0.5,1.6,1.3,3.1,2.3,4.3c1,1.3,2.2,2.2,3.7,3c1.5,0.7,3.1,1.1,5,1.1c1.9,0,3.6-0.4,5.1-1.1
				c1.5-0.7,2.7-1.7,3.7-3c1-1.3,1.7-2.7,2.3-4.3c0.5-1.6,0.8-3.4,0.8-5.1c0-1.8-0.3-3.5-0.8-5.1
				C311.2,139.8,310.5,138.3,309.5,137.1z M310.8,151.3c-0.5,1.5-1.1,2.9-2.1,4c-0.9,1.2-2,2.1-3.4,2.8c-1.3,0.7-2.9,1-4.6,1
				c-1.8,0-3.3-0.3-4.6-1c-1.3-0.7-2.5-1.6-3.4-2.8c-0.9-1.2-1.6-2.5-2.1-4s-0.7-3.1-0.7-4.8c0-1.6,0.2-3.2,0.7-4.7
				c0.5-1.5,1.1-2.9,2.1-4c0.9-1.2,2-2.1,3.4-2.8c1.3-0.7,2.9-1.1,4.6-1.1c1.7,0,3.3,0.4,4.6,1.1c1.3,0.7,2.5,1.6,3.4,2.8
				c0.9,1.2,1.6,2.5,2.1,4c0.5,1.5,0.7,3.1,0.7,4.7C311.5,148.2,311.2,149.8,310.8,151.3z M335.4,133.5v14.8c0,1.5-0.2,2.8-0.6,4.2
				c-0.4,1.3-1,2.5-1.8,3.5c-0.8,1-1.8,1.8-3,2.4c-1.2,0.6-2.6,0.9-4.1,0.9c-1.1,0-2.2-0.2-3.2-0.5c-1-0.3-1.9-0.8-2.6-1.5
				c-0.8-0.7-1.4-1.6-1.8-2.6c-0.4-1.1-0.7-2.4-0.7-3.9v-17.1h-1v17.3c0,1.5,0.2,2.9,0.7,4s1.1,2.1,1.9,2.9c0.8,0.8,1.8,1.4,2.9,1.8
				c1.1,0.4,2.4,0.6,3.7,0.6c2.6,0,4.7-0.7,6.3-2c1.6-1.3,2.6-3,3.1-5h0.1v6.4h1v-26.1H335.4z"/>
		</g>
	</g>
</g>
</svg>
