<?xml version="1.0" encoding="utf-8"?>
<!-- Generator: Adobe Illustrator 17.1.0, SVG Export Plug-In . SVG Version: 6.00 Build 0)  -->
<!DOCTYPE svg PUBLIC "-//W3C//DTD SVG 1.1//EN" "http://www.w3.org/Graphics/SVG/1.1/DTD/svg11.dtd">
<svg version="1.1" id="图层_1" xmlns="http://www.w3.org/2000/svg" xmlns:xlink="http://www.w3.org/1999/xlink" x="0px" y="0px"
	 viewBox="0 0 488.9 309.8" style="enable-background:new 0 0 488.9 309.8;" xml:space="preserve">
<g id="矩形_3_15_">
	<g>
		<rect x="7.3" y="6.7" style="fill-rule:evenodd;clip-rule:evenodd;fill:#292726;" width="474.3" height="296.5"/>
	</g>
</g>
<g id="阿里妈妈_15_">
	<g>
		<path style="fill-rule:evenodd;clip-rule:evenodd;fill:#FF6600;" d="M425.2,264.7c1.5,0,3,0,4.5,0c0,2.2,0,4.5,0,6.6
			c0,0.1-0.2,0.3-0.3,0.3c-0.2,0-0.3,0-0.6,0v1.1c0.3,0,0.6,0,1,0c0.9,0,1.4-0.4,1.4-1.1c0-1.7,0-5.1,0-6.8h0.5v-1h-6.4V264.7z
			 M448,269.4c-0.4,0-1,0.4-1,1c1.3,0,3.4,0,4.8,0c0,0.3,0,0.5,0,0.9c0.5,0,0.3,0,0.8,0c0.3,0,0.7-0.2,0.7-0.7c0-1.1,0-2,0-3.1
			c-0.2,0-0.4,0-0.6,0c0-0.9,0-2.6,0-3.3c0-0.3-0.3-0.6-0.6-0.6h-4.7v1h3.6c0,0.9,0,1.9,0,2.8c-0.9,0-1,0-1.7,0
			c-0.1,0-0.2-0.1-0.2-0.2c0-0.5,0-1.2,0-1.8c0-0.1-0.1-0.3-0.4-0.3h-1.1v2.5c0,0.5,0.4,0.9,0.9,0.9c0,0,1.8,0,3.4,0v0.9H448z
			 M429,269.7c0-1.2,0-2.8,0-4.4h-3.7v5.6c1.1,0,2.5,0,2.5,0C428.7,270.9,429,270.4,429,269.7z M427.4,269.9c-0.3,0-0.6,0-0.9,0
			v-3.5c0.4,0,0.9,0,1.3,0c0,1.1,0,2.3,0,3.2C427.8,269.7,427.6,269.9,427.4,269.9z M421.1,263.9c0,2,0,4.7,0,8.7h1.4
			c0-2.5,0-5.3,0-8c0.3,0,0.7,0,1,0c0,1.5,0,2.9,0,4.3c0,0.6-0.5,0.8-0.5,0.8v1.1c1,0,1.8-1,1.8-1.9c0-1.6,0-3.7,0-5.4
			c-1.2,0-2.2,0-3.4,0C421,263.6,421.1,263.9,421.1,263.9z M463.9,267.5c0-0.9,0-2.6,0-3.3c0-0.3-0.3-0.6-0.6-0.6h-4.7v1
			c1.2,0,2.4,0,3.6,0v2.8c-0.9,0-1,0-1.7,0c-0.1,0-0.2-0.1-0.2-0.2c0-0.5,0-1.2,0-1.8c0-0.1-0.1-0.3-0.4-0.3c-0.3,0-0.7,0-1.1,0v2.5
			c0,0.5,0.4,0.9,0.9,0.9c0,0,1.8,0,3.4,0v0.9h-3.7c-0.4,0-1.1,0.4-1.1,1c1.3,0,3.3,0,4.7,0v1c0,0.2-0.1,0.2-0.3,0.2h-0.5
			c0,0.5,0,0.7,0,1h0.8c0.3,0,0.2,0,0.5,0c0.7,0,1-0.5,1-0.9c0-1.3,0-3,0-4.3C464.3,267.5,464.1,267.5,463.9,267.5z M457.3,270.9
			c0.5-0.5,0.8-1.2,0.8-2.4c0-1.3,0-2.6,0-4c0-0.1-0.1-0.3-0.3-0.3c-0.5,0-1.2,0-1.8,0v-0.6h-1.4c0,0.2,0,0.4,0,0.6
			c-0.1,0-0.3,0-0.5,0v1h0.5v3.2c0,1.2,0.4,1.9,0.9,2.4c-0.6,0.4-1.2,0.7-2.1,0.7c-0.1,0-0.2,0-0.4,0c-1.3,0-2.9,0-4.2,0
			c-1.3,0-2.5-0.2-3-0.8c0.4-0.6,0.7-1.1,0.8-2.3c0-1.2,0-2.3,0-3.9c0-0.2-0.2-0.3-0.3-0.3c-0.5,0-1.1,0-1.8,0v-0.6
			c-0.6,0-0.8,0-1.3,0v0.6c-0.2,0-0.3,0-0.5,0v1c0.2,0,0.3,0,0.5,0c0,1.1,0,2.2,0,3.2c0.1,1.2,0.5,1.6,1,2.4
			c-0.7,0.5-1.5,0.7-2.5,0.7c-1.2,0-2.2,0-3.7,0c0-0.3,0-0.6,0-0.8h3.7v-1.1h-3.7c0-0.3,0-0.5,0-0.8c1.1,0,2.5,0,2.8,0
			c0,0,0.9,0,0.9-1c0-1,0-2.9,0-4.3c-2.9,0-5.9,0-8.9,0c-0.1,0-0.3,0.2-0.3,0.3c0,0.2,0,3.5,0,5c1.2,0,2.5,0,3.7,0v0.8h-3.7
			c0,0.3,0,0.7,0,1.1h3.7c0,0.3,0,0.5,0,0.8H432c0,0.3,0,0.7,0,1c3.3,0,7.3,0,10.5,0c0.9,0,1.9-0.4,2.7-0.9c1,0.7,2,0.9,3.8,0.9
			c0.5,0,1.1,0,1.8,0c0.9,0,1.7,0,2.5,0c1.5,0,2.4-0.3,3.3-0.8c0.8,0.5,1.6,0.8,2.9,0.8v0h2v-1h-2
			C458.6,271.5,457.8,271.4,457.3,270.9z M436.3,267.9H434v-1.1h2.3V267.9z M436.3,265.7H434v-1.1c0.8,0,1.5,0,2.3,0V265.7z
			 M438.1,264.7h2.3v1.1h-2.3V264.7z M438.1,266.8c0.8,0,1.5,0,2.3,0c0,0.4,0,0.8,0,1.1h-2.3C438.1,267.6,438.1,267.2,438.1,266.8z
			 M445.5,268.5c0,0.7-0.2,0.9-0.3,1.4c-0.2-0.4-0.4-0.6-0.5-1.4c0-0.9,0-2.2,0-3.2h0.8V268.5z M456.8,268.5c0,0.7-0.2,1-0.4,1.4
			c-0.2-0.4-0.4-0.7-0.4-1.4c0-1,0-2.2,0-3.2h0.8C456.8,266.3,456.8,267.5,456.8,268.5z"/>
	</g>
</g>
<g id="alimama.com_15_">
	<g>
		<path style="fill-rule:evenodd;clip-rule:evenodd;fill:#CBCBCB;" d="M423.5,274.6c-0.8,1.6-1.6,3.1-2.4,4.8h1.2
			c0.2-0.4,0.3-0.7,0.6-1.1c0.6,0,1.1,0,1.7,0c-0.1-0.4-0.2-0.6-0.3-0.9h-0.9c0.3-0.5,0.4-0.8,0.8-1.6c0.4,1.2,0.9,2.5,1.3,3.6h1.1
			c-0.6-1.7-1.1-3.1-1.7-4.8H423.5z M426.7,279.4h1l0.2-4.8l-1,0L426.7,279.4z M428.3,279.4h1.1l0.1-3.5h-1L428.3,279.4z
			 M428.5,274.6l0,0.8c0,0,0.8,0,1,0l0-0.8C428.6,274.6,428.6,274.6,428.5,274.6z M435,275.8c-0.2-0.1-0.4-0.1-0.6-0.1
			c-0.1,0-0.2,0-0.3,0c-0.1,0-0.2,0.1-0.3,0.1c-0.1,0-0.2,0.1-0.2,0.1c-0.1,0.1-0.1,0.1-0.2,0.2c0,0.1-0.1,0.1-0.1,0.2
			c0-0.1-0.1-0.2-0.1-0.3c0-0.1-0.1-0.1-0.1-0.2c-0.1,0-0.1-0.1-0.2-0.1c-0.1,0-0.2-0.1-0.3-0.1c-0.1,0-0.2,0-0.3,0
			c-0.1,0-0.3,0-0.4,0.1c-0.1,0-0.2,0.1-0.3,0.1c-0.1,0.1-0.2,0.1-0.2,0.2c-0.1,0.1-0.1,0.2-0.2,0.3l0-0.6h-0.9l-0.2,3.5
			c0,0,0.8,0,1,0c0-0.3,0-0.7,0-1.2c0-0.5,0.1-0.9,0.1-1c0.1-0.2,0.1-0.3,0.3-0.4c0.1-0.1,0.3-0.2,0.4-0.2c0.1,0,0.2,0,0.2,0
			c0.1,0,0.1,0.1,0.2,0.1c0.1,0.1,0.1,0.1,0.1,0.2c0,0.1,0,0.2,0,0.3c0,0.2,0,0.6,0,1.1c0,0.6-0.1,0.9-0.1,1.1c0.2,0,0.8,0,1,0l0-1
			c0-0.3,0-0.6,0-0.8c0-0.2,0-0.4,0.1-0.5c0-0.1,0.1-0.2,0.2-0.3c0.1-0.1,0.2-0.2,0.2-0.2c0.1,0,0.2-0.1,0.3-0.1
			c0.1,0,0.2,0,0.3,0.1c0.1,0,0.1,0.1,0.2,0.2c0.1,0.1,0.1,0.2,0.1,0.4c0,0.1,0,0.3,0,0.5l0,0.8c0,0.3,0,0.6-0.1,0.9
			c0.2,0,0.8,0,1,0c0-0.3,0-0.6,0-1.1c0-0.5,0-0.8,0.1-1.1c0-0.2,0-0.4,0-0.5c0-0.2-0.1-0.4-0.2-0.5
			C435.4,276,435.2,275.9,435,275.8z M438.8,275.8c-0.2-0.1-0.5-0.1-0.7-0.1c-0.2,0-0.5,0-0.7,0c-0.2,0-0.8,0.2-0.8,0.2l-0.1,0.7
			c0,0,1-0.3,1.4-0.3c0.1,0,0.2,0,0.3,0c0.1,0,0.2,0.1,0.2,0.1c0.1,0.1,0.1,0.1,0.1,0.2c0,0,0,0.1,0,0.1c0,0-0.1,0.1-0.1,0.1
			c0,0-0.1,0.1-0.1,0.1c-0.1,0-0.1,0.1-0.2,0.1c-0.1,0-0.2,0-0.3,0.1c-0.3,0.1-0.6,0.1-0.8,0.2c-0.2,0.1-0.4,0.1-0.5,0.2
			c-0.1,0.1-0.2,0.2-0.3,0.2c-0.1,0.1-0.1,0.2-0.2,0.3c0,0.1-0.1,0.2-0.1,0.3c0,0.2,0,0.3,0.1,0.5c0.1,0.2,0.2,0.3,0.4,0.4
			c0.2,0.1,0.4,0.1,0.7,0.1c0.1,0,0.2,0,0.3,0c0.1,0,0.2,0,0.4-0.1c0.1-0.3,0.1-0.5,0.2-0.6c-0.1,0-0.3,0.1-0.3,0.1
			c-0.1,0-0.2,0-0.2,0c-0.1,0-0.2,0-0.3,0c-0.1,0-0.2-0.1-0.2-0.1c-0.1-0.1-0.1-0.2-0.1-0.3c0-0.1,0-0.1,0-0.2
			c0-0.1,0.1-0.1,0.1-0.1c0,0,0.1-0.1,0.2-0.1c0.1,0,0.2-0.1,0.2-0.1c0.1,0,0.2-0.1,0.4-0.1c0.1,0,0.3-0.1,0.3-0.1
			c0.1,0,0.1,0,0.2-0.1c0,0,0.1-0.1,0.2-0.1l-0.1,1.8h1c0,0,0-1.1,0.1-1.7c0-0.5,0.1-0.9,0.1-1c0-0.2-0.1-0.4-0.2-0.6
			C439.2,276,439,275.9,438.8,275.8z M445.1,275.8c-0.2-0.1-0.4-0.1-0.6-0.1c-0.1,0-0.2,0-0.3,0c-0.1,0-0.2,0.1-0.3,0.1
			c-0.1,0-0.2,0.1-0.2,0.1c-0.1,0.1-0.1,0.1-0.2,0.2c0,0.1-0.1,0.1-0.1,0.2c0-0.1-0.1-0.2-0.1-0.3c0-0.1-0.1-0.1-0.1-0.2
			c-0.1,0-0.1-0.1-0.2-0.1c-0.1,0-0.2-0.1-0.3-0.1c-0.1,0-0.2,0-0.3,0c-0.1,0-0.3,0-0.4,0.1c-0.1,0-0.2,0.1-0.3,0.1
			c-0.1,0.1-0.2,0.1-0.2,0.2c-0.1,0.1-0.1,0.2-0.2,0.3l0-0.6h-0.9l-0.2,3.5h1c0,0,0-0.7,0-1.2c0-0.5,0.1-0.9,0.1-1
			c0.1-0.2,0.1-0.3,0.3-0.4c0.1-0.1,0.3-0.2,0.4-0.2c0.1,0,0.2,0,0.2,0c0.1,0,0.1,0.1,0.2,0.1c0,0.1,0.1,0.1,0.1,0.2
			c0,0.1,0,0.2,0,0.3c0,0.2,0,0.6,0,1.1c0,0.6-0.1,0.9-0.1,1.1c0.2,0,0.8,0,1,0l0-1c0-0.3,0-0.6,0-0.8c0-0.2,0-0.4,0.1-0.5
			c0-0.1,0.1-0.2,0.2-0.3c0.1-0.1,0.2-0.2,0.2-0.2c0.1,0,0.2-0.1,0.3-0.1c0.1,0,0.2,0,0.3,0.1c0.1,0,0.1,0.1,0.2,0.2
			c0.1,0.1,0.1,0.2,0.1,0.4c0,0.1,0,0.3,0,0.5l0,0.8c0,0.3,0,0.6-0.1,0.9c0.2,0,0.8,0,1,0c0-0.3,0-0.6,0-1.1c0-0.5,0-0.8,0.1-1.1
			c0-0.2,0-0.4,0-0.5c0-0.2-0.1-0.4-0.2-0.5C445.4,276,445.3,275.9,445.1,275.8z M448.9,275.8c-0.2-0.1-0.5-0.1-0.7-0.1
			c-0.2,0-0.5,0-0.7,0c-0.2,0-0.8,0.2-0.8,0.2l-0.1,0.7c0,0,1-0.3,1.4-0.3c0.1,0,0.2,0,0.3,0c0.1,0,0.2,0.1,0.2,0.1
			c0.1,0.1,0.1,0.1,0.1,0.2c0,0,0,0.1,0,0.1c0,0-0.1,0.1-0.1,0.1c0,0-0.1,0.1-0.1,0.1c-0.1,0-0.1,0.1-0.2,0.1c-0.1,0-0.2,0-0.3,0.1
			c-0.3,0.1-0.6,0.1-0.8,0.2c-0.2,0.1-0.4,0.1-0.5,0.2c-0.1,0.1-0.2,0.2-0.3,0.2c-0.1,0.1-0.1,0.2-0.2,0.3c0,0.1-0.1,0.2-0.1,0.3
			c0,0.2,0,0.3,0.1,0.5c0.1,0.2,0.2,0.3,0.4,0.4c0.2,0.1,0.4,0.1,0.7,0.1c0.1,0,0.2,0,0.3,0c0.1,0,0.2,0,0.4-0.1
			c0.1-0.3,0.1-0.5,0.2-0.6c-0.1,0-0.3,0.1-0.3,0.1c-0.1,0-0.2,0-0.2,0c-0.1,0-0.2,0-0.3,0c-0.1,0-0.2-0.1-0.2-0.1
			c-0.1-0.1-0.1-0.2-0.1-0.3c0-0.1,0-0.1,0-0.2c0-0.1,0.1-0.1,0.1-0.1c0,0,0.1-0.1,0.2-0.1c0.1,0,0.2-0.1,0.2-0.1
			c0.1,0,0.2-0.1,0.4-0.1c0.1,0,0.2-0.1,0.3-0.1c0.1,0,0.1,0,0.2-0.1c0,0,0.1-0.1,0.2-0.1l-0.1,1.8h1c0,0,0-1.1,0.1-1.7
			c0-0.5,0.1-0.9,0.1-1c0-0.2-0.1-0.4-0.2-0.6C449.2,276,449.1,275.9,448.9,275.8z M450,278.4c0,0.5,0,0.8,0,0.9c0.3,0,1,0,1,0
			s0-0.8,0-0.9C450.7,278.4,450,278.4,450,278.4z M452.6,276.8c0.1-0.1,0.2-0.2,0.4-0.3c0.1-0.1,0.3-0.1,0.5-0.1
			c0.3,0,0.6,0.1,0.9,0.2l-0.1-0.8c-0.2-0.1-0.4-0.1-0.6-0.1c-0.2,0-0.3,0-0.5,0c-0.3,0-0.5,0-0.7,0.1c-0.2,0.1-0.4,0.2-0.6,0.3
			c-0.2,0.2-0.3,0.4-0.4,0.7c-0.1,0.3-0.1,0.6-0.1,0.8c0,0.2,0,0.4,0.1,0.6c0.1,0.2,0.1,0.4,0.3,0.5c0.1,0.1,0.2,0.3,0.4,0.4
			c0.2,0.1,0.3,0.2,0.5,0.2c0.2,0,0.4,0.1,0.5,0.1c0.3,0,0.7,0,1-0.1c0-0.2,0.1-0.3,0.1-0.4c0-0.1,0-0.2,0.1-0.3
			c-0.2,0.1-0.3,0.1-0.5,0.1c-0.2,0-0.3,0-0.4,0c-0.2,0-0.4,0-0.6-0.1c-0.2-0.1-0.3-0.2-0.4-0.4c-0.1-0.2-0.1-0.4-0.1-0.6
			c0-0.2,0-0.3,0.1-0.5C452.4,277,452.5,276.9,452.6,276.8z M457.9,276.2c-0.2-0.2-0.4-0.3-0.6-0.4c-0.2-0.1-0.5-0.1-0.8-0.1
			c-0.3,0-0.6,0.1-0.8,0.1c-0.3,0.1-0.5,0.2-0.7,0.4c-0.2,0.2-0.3,0.4-0.4,0.6c-0.1,0.2-0.1,0.5-0.1,0.7c0,0.3,0,0.5,0.1,0.7
			c0.1,0.2,0.2,0.4,0.4,0.6c0.2,0.2,0.4,0.3,0.6,0.4c0.2,0.1,0.5,0.1,0.8,0.1c0.3,0,0.6,0,0.8-0.1c0.3-0.1,0.5-0.2,0.6-0.4
			c0.2-0.2,0.3-0.4,0.4-0.6c0.1-0.2,0.1-0.5,0.1-0.8c0-0.3,0-0.5-0.1-0.7C458.2,276.6,458.1,276.4,457.9,276.2z M457.3,278.1
			c-0.1,0.2-0.2,0.3-0.3,0.4c-0.2,0.1-0.3,0.2-0.5,0.2c-0.2,0-0.4,0-0.5-0.1c-0.1-0.1-0.3-0.2-0.3-0.4c-0.1-0.2-0.1-0.3-0.1-0.5
			c0-0.2,0-0.4,0.1-0.6c0.1-0.2,0.2-0.3,0.4-0.4c0.2-0.1,0.3-0.1,0.5-0.1c0.2,0,0.4,0,0.5,0.1c0.1,0.1,0.2,0.2,0.3,0.4
			c0.1,0.2,0.1,0.3,0.1,0.5C457.4,277.7,457.4,278,457.3,278.1z M464.2,276.1c-0.1-0.1-0.2-0.2-0.4-0.3c-0.2-0.1-0.4-0.1-0.6-0.1
			c-0.1,0-0.2,0-0.3,0c-0.1,0-0.2,0.1-0.3,0.1c-0.1,0-0.2,0.1-0.2,0.1c-0.1,0.1-0.1,0.1-0.2,0.2c0,0.1-0.1,0.1-0.1,0.2
			c0-0.1-0.1-0.2-0.1-0.3c0-0.1-0.1-0.1-0.1-0.2c-0.1,0-0.1-0.1-0.2-0.1c-0.1,0-0.2-0.1-0.3-0.1c-0.1,0-0.2,0-0.3,0
			c-0.1,0-0.3,0-0.4,0.1c-0.1,0-0.2,0.1-0.3,0.1c-0.1,0.1-0.2,0.1-0.2,0.2c-0.1,0.1-0.1,0.2-0.2,0.3l0-0.6c-0.2,0-0.7,0-0.9,0
			c0,0.4-0.1,3.1-0.2,3.5c0.2,0,0.8,0,1,0c0-0.3,0-0.7,0-1.2c0-0.5,0.1-0.9,0.1-1c0.1-0.2,0.1-0.3,0.3-0.4c0.1-0.1,0.3-0.2,0.4-0.2
			c0.1,0,0.2,0,0.2,0c0.1,0,0.1,0.1,0.2,0.1c0.1,0.1,0.1,0.1,0.1,0.2c0,0.1,0,0.2,0,0.3c0,0.2,0,0.6,0,1.1c0,0.6-0.1,0.9-0.1,1.1
			c0.2,0,0.8,0,1,0l0-1c0-0.3,0-0.6,0-0.8c0-0.2,0-0.4,0.1-0.5c0-0.1,0.1-0.2,0.2-0.3c0.1-0.1,0.2-0.2,0.2-0.2
			c0.1,0,0.2-0.1,0.3-0.1c0.1,0,0.2,0,0.3,0.1c0.1,0,0.1,0.1,0.2,0.2c0.1,0.1,0.1,0.2,0.1,0.4c0,0.1,0,0.3,0,0.5l0,0.8
			c0,0.3,0,0.6-0.1,0.9c0.2,0,0.8,0,1,0c0-0.3,0-0.6,0-1.1c0-0.5,0-0.8,0.1-1.1c0-0.2,0-0.4,0-0.5
			C464.4,276.5,464.3,276.3,464.2,276.1z"/>
	</g>
</g>
<g>
	<path style="fill:#FF6600;" d="M67.5,100.2c1.2,1.4,1.7,3,1.7,4.7c0.1,2.5-0.9,4-3.1,4.3c-0.6,0.1-1.1,0.2-1.3,0.2l-0.6-1.9v5.2
		h-3.3V91.2h8v3.3L67.5,100.2z M64.3,94.6v11.1c0.2,0,0.4,0,0.6,0c0.8-0.1,1.1-0.6,1-1.8c-0.1-0.9-0.6-2.1-1.5-3.5
		c0.6-2.7,1-4.7,1.2-5.8H64.3z M69.4,95v-3.4h13.1V95h-1.2v13.2c0.1,2.8-1.1,4.2-3.6,4.3c-1.2,0.1-2.7,0.1-4.4,0.1
		c-0.2-1.2-0.5-2.4-0.6-3.5c0.7,0.1,1.7,0.1,3.1,0.1c1.4,0.1,2.1-0.5,1.9-1.9V95H69.4z M69.6,96.6h7v11h-7V96.6z M73.8,99.7h-1.3
		v4.8h1.3V99.7z"/>
	<path style="fill:#FF6600;" d="M85.3,103.5V91.3h19.3v12.1h-7.8v1.3h8.1v3h-8.1v1.3h9.1v3h-22v-3h9.2v-1.3H85v-3h8.1v-1.3H85.3z
		 M89.1,94.4V96h4v-1.6H89.1z M89.1,100.4h4v-1.6h-4V100.4z M100.8,94.4h-4V96h4V94.4z M96.8,100.4h4v-1.6h-4V100.4z"/>
	<path style="fill:#FF6600;" d="M107.4,94.4h1.8c0.1-0.4,0.2-1.1,0.3-1.9c0.1-0.9,0.1-1.5,0.2-1.9l3.4,0.3c-0.2,1.3-0.4,2.5-0.6,3.6
		h3.9c-0.1,5.6-0.6,9.5-1.8,12c1.2,1.2,2.2,2.2,3.1,3l-2.4,2.6c-0.9-0.9-1.7-1.7-2.4-2.4c-0.9,1-2.1,2.1-3.4,3.4
		c-0.7-0.9-1.5-1.8-2.3-2.7c1.4-1,2.5-2.1,3.3-3.2c-0.2-0.3-0.7-0.8-1.4-1.4c-0.6-0.7-1.1-1.2-1.5-1.6c0.4-2,0.8-4.1,1.2-6.3h-1.4
		V94.4z M111,103c0.1,0.1,0.3,0.3,0.6,0.5c0.2,0.2,0.4,0.4,0.6,0.6c0.5-1.4,0.8-3.5,1-6.3H112c-0.1,0.9-0.3,2.1-0.6,3.7
		C111.2,102.2,111.1,102.7,111,103z M116.4,104.7h8.2v3.2h-8.2V104.7z M116.9,91.4h11.2l-0.8,8.5h2c-0.1,1.1-0.2,2.9-0.3,5.5
		c-0.1,1.5-0.1,2.5-0.1,3.1c0.1,2.8-1.3,4.1-4.4,3.9c-0.7,0.1-1.9,0.1-3.6,0.1c-0.1-0.2-0.1-0.5-0.2-0.8c-0.1-0.5-0.2-1.3-0.5-2.5
		c1.2,0,2.4,0,3.6,0c1,0.1,1.5-0.3,1.5-1.1c0-0.7,0-1.9,0.1-3.8c0.1-0.4,0.1-0.8,0.1-1H117l0.8-7.9h3.6l-0.6,4.5h2.8l0.6-5.3h-7.3
		V91.4z"/>
	<path style="fill:#FF6600;" d="M131.1,94.4h1.8c0.1-0.4,0.2-1.1,0.3-1.9c0.1-0.9,0.1-1.5,0.2-1.9l3.4,0.3c-0.2,1.3-0.4,2.5-0.6,3.6
		h3.9c-0.1,5.6-0.6,9.5-1.8,12c1.2,1.2,2.2,2.2,3.1,3l-2.4,2.6c-0.9-0.9-1.7-1.7-2.4-2.4c-0.9,1-2.1,2.1-3.4,3.4
		c-0.7-0.9-1.5-1.8-2.3-2.7c1.4-1,2.5-2.1,3.3-3.2c-0.2-0.3-0.7-0.8-1.4-1.4c-0.6-0.7-1.1-1.2-1.5-1.6c0.4-2,0.8-4.1,1.2-6.3h-1.4
		V94.4z M134.8,103c0.1,0.1,0.3,0.3,0.6,0.5c0.2,0.2,0.4,0.4,0.6,0.6c0.5-1.4,0.8-3.5,1-6.3h-1.2c-0.1,0.9-0.3,2.1-0.6,3.7
		C134.9,102.2,134.8,102.7,134.8,103z M140.1,104.7h8.2v3.2h-8.2V104.7z M140.6,91.4h11.2l-0.8,8.5h2c-0.1,1.1-0.2,2.9-0.3,5.5
		c-0.1,1.5-0.1,2.5-0.1,3.1c0.1,2.8-1.3,4.1-4.4,3.9c-0.7,0.1-1.9,0.1-3.6,0.1c-0.1-0.2-0.1-0.5-0.2-0.8c-0.1-0.5-0.2-1.3-0.5-2.5
		c1.2,0,2.4,0,3.6,0c1,0.1,1.5-0.3,1.5-1.1c0-0.7,0-1.9,0.1-3.8c0.1-0.4,0.1-0.8,0.1-1h-8.6l0.8-7.9h3.6l-0.6,4.5h2.8l0.6-5.3h-7.3
		V91.4z"/>
	<path style="fill:#FF6600;" d="M155.7,112.5v-10.7h9.5v10.7h-3.3v-1H159v1H155.7z M157.6,91.6h17v8.8h-17V91.6z M159,104.9v3.6h2.9
		v-3.6H159z M161.5,97.3h9.2v-2.4h-9.2V97.3z M166.7,112.5v-10.7h9.7v10.6h-3.3v-0.9h-3v1H166.7z M170.2,104.9v3.6h3v-3.6H170.2z"/>
	<path style="fill:#FF6600;" d="M187.2,100.5h-4.6v1.4h4.1v10.5h-2.9V105h-1.3c-0.1,2.7-0.4,5.3-1.1,7.7c-0.2-0.1-0.5-0.3-0.8-0.6
		c-0.6-0.4-1.2-0.8-2-1.4c0.4-1.3,0.6-2.5,0.6-3.6c0.1-1,0.2-2.8,0.2-5.2V91.4h3.2v6h1v-6.6h2.8v6.6h0.8V100.5z M187.1,109.3v-3.1
		h1.7c-0.4-0.4-0.8-0.8-1.2-1.2c1.1-0.5,2-1,2.7-1.6h-2.5V92.3h3.3c0.2-0.6,0.3-1.2,0.4-1.9l3.8,0.2c-0.1,0.6-0.3,1.2-0.6,1.7h5.6
		v11.1H194c-0.7,0.9-1.7,1.9-3,2.8h2.5v-2h3.5v2h4v3.1h-4v3.2h-3.5v-3.2H187.1z M190.7,95v1.6h1.9V95H190.7z M192.2,100.6
		c0.1-0.5,0.2-1,0.3-1.6h-1.8v1.6H192.2z M197.3,100.6V99h-1.9c0,0.6-0.1,1.1-0.3,1.6H197.3z M197.3,95h-1.8v1.6h1.8V95z"/>
	<path style="fill:#FF6600;" d="M205.4,94.6h-2.8v-3.1h6.8v3.2l-2.8,3.5h2.9c0.1,4-0.5,7.1-1.6,9.3c1,0.9,2.5,1.4,4.4,1.5
		c0.4,0.1,1,0.1,1.9,0.1v-1h-4.8v-2.6h4.8v-0.7H210v-2.6h4.2v-0.8h-4.1v-2.5h4.1v-0.9h-4.8v-2.6h4.8v-0.8h-3.9v-2.6h3.9v-1.4h3.5
		v1.4h5.5v3.4h1.7v2.6h-1.7v3.4h-5.5v0.8h5.7v2.6h-5.7v0.7h6.3v2.6h-6.3v1c3.5,0,5.9,0,7.1,0c-0.1,0.3-0.2,0.7-0.5,1.3
		c-0.2,0.9-0.4,1.5-0.5,1.8c-4.4,0-7.8,0-10.4-0.1c-3.5,0-5.8-0.6-7.1-1.9c-0.1,0.1-0.3,0.3-0.5,0.6c-0.8,0.9-1.5,1.6-2,2.1
		c-0.2-0.6-0.7-1.5-1.4-2.7c-0.1-0.2-0.2-0.4-0.3-0.5c0.7-0.6,1.4-1.3,1.9-2c-0.7-1.1-1.3-2.4-1.8-3.8l2.1-2.4h-1.8v-3.2L205.4,94.6
		z M204.4,101.3c0.5,1.5,0.9,2.5,1.2,3.1c0.4-1,0.6-2.1,0.6-3.1H204.4z M219.8,94.4h-2.1v0.8h2.1V94.4z M217.7,98.7h2.1v-0.9h-2.1
		V98.7z"/>
	<path style="fill:#FF6600;" d="M233.2,103.7c0.3,1.2,0.6,2.4,1,3.5c-0.6,0.4-1.3,1.1-2.3,2.1c-0.5,0.4-0.9,0.7-1.1,0.9
		c-0.2,0.2-0.5,0.5-0.8,0.8c-0.3,0.4-0.6,0.7-0.7,0.9l-2.2-2.7c0.6-0.8,0.9-1.7,0.9-2.6v-5.7h-2v-3.5h5.7v7.7
		c0.2-0.2,0.5-0.5,0.9-0.9C232.8,104.1,233.1,103.9,233.2,103.7z M230.1,90.4c0.1,0.1,0.2,0.3,0.4,0.5c1.2,1.5,2.1,2.8,2.7,3.8
		l-3.4,2c-0.6-1-1.5-2.5-2.9-4.5L230.1,90.4z M247.3,99.6v3.5c-1.1,1.9-2.4,3.5-4,4.9c1.5,0.6,3.2,1,5.1,1.4
		c-0.7,1.2-1.3,2.3-1.8,3.2c-2.7-0.7-4.9-1.6-6.6-2.5c-1.7,1-3.9,1.9-6.4,2.6c-0.1-0.2-0.3-0.6-0.6-1c-0.2-0.4-0.7-1.1-1.3-2
		c2-0.5,3.7-1.1,5.1-1.8c-1.1-0.9-2-2.1-3-3.5l2.1-1.5h-2.7v-3.3H247.3z M246.8,95.5h1.9c-0.2,1.1-0.5,2.2-0.6,3.2
		c-0.4,0.1-1.3,0.1-2.9,0.1c-2-0.1-3-0.9-3-2.5v-1.8h-3.5c0,2-1.3,3.7-3.8,5c-0.4-0.4-1.2-1.3-2.5-2.6c1.9-0.9,2.8-2,2.8-3.5
		c0-0.6,0-1.3,0-2.1h10.7v3.3C245.7,95.2,246,95.6,246.8,95.5z M237.1,102.9c0.9,1.3,1.9,2.3,3.1,3.2c0.9-0.6,1.9-1.7,3.1-3.2H237.1
		z"/>
	<path style="fill:#FF6600;" d="M250.1,95v-3.4h7V95h-1.9v4.3h1.8v3.3h-1.8v4.4c0.8-0.1,1.6-0.2,2.3-0.4c0,0.9,0,1.7,0,2.4
		c3.4-2.1,5.1-5.2,5-9.3c0-0.6,0-1.5,0.1-2.8c0-0.6,0-1,0-1.2h3.6c0,0.9-0.1,2.1-0.2,3.7c0,1.5-0.2,2.8-0.5,4.1h1.5v4.8
		c0,0.7,0.2,1.1,0.7,1c0.5,0.1,0.8-0.3,0.8-1c0.1-0.4,0.2-1,0.3-1.8c0.1-0.4,0.1-0.7,0.1-0.8c1.5,0.6,2.6,0.9,3.2,1.1
		c-0.1,0.2-0.1,0.5-0.2,0.8c-0.1,0.4-0.2,1.1-0.5,2.3c-0.2,1.5-1.2,2.3-3,2.3h-1.9c-2,0-3-1-3-3v-1.7c-0.9,1.5-2.6,3.2-5.3,5.1
		c-0.6-0.7-1.3-1.6-2.2-2.7c-0.6,0.1-1.6,0.3-3,0.6c-1.4,0.2-2.4,0.4-3.1,0.6l-0.6-3.6c0.4,0,1.1-0.1,1.9-0.2
		c-0.6,0.1-0.5,0.1,0.2,0v-4.8h-1.6v-3.3h1.6V95H250.1z M257.7,105.2v-14H271V105h-3.6V94.7h-6.2v10.6H257.7z"/>
	<path style="fill:#FF6600;" d="M282.2,100.6v-3.5h4.2c0.1-2.5,0.1-4.6,0.1-6.5h3.8c0,1.2-0.1,3.4-0.2,6.5h5.4v3.5h-5.1
		c0.7,3.6,2.6,6.5,5.7,8.7c-1.1,1.2-1.9,2.3-2.4,3.2c-2.7-2-4.4-4.4-5.3-7.2c-0.6,2.3-2.3,4.8-5,7.4c-0.6-0.8-1.1-1.6-1.8-2.5v2.5
		H278v-6.2c-0.5,0.4-1.3,1-2.4,1.9c-0.7,0.6-1.3,1-1.6,1.2l-0.7-4.5c1.1-0.6,2.7-1.7,4.7-3.2v-1.6l-2.8,0.8c-0.7-2.7-1.3-5-1.9-6.9
		l3-0.9c0.1,0.5,0.3,1.2,0.6,2c0.6,1.9,1,3.3,1.2,4.3v-8.9h3.6v18.3c2.5-2.2,4-5,4.4-8.2H282.2z M292.9,91.3
		c0.3,0.4,0.7,0.8,1.1,1.4c0.6,0.7,1.1,1.3,1.4,1.8l-2.7,1.9c-0.6-1-1.4-2.1-2.4-3.4L292.9,91.3z"/>
	<path style="fill:#FF6600;" d="M59.9,143.1c4.1-3.6,6.1-9.6,5.9-18h-4.5v-1.3h16.2v1.5l-2.5,4.8h4.5v1.3c-1.4,3.4-3.1,6.1-5.1,8
		c1.6,1.4,4.2,2.5,7.8,3.4c-0.2,0.2-0.4,0.6-0.6,1c-0.1,0.1-0.1,0.2-0.2,0.3c-3.5-1.2-6.2-2.5-8-3.9c-1.7,1.4-4.3,2.8-7.8,4.3
		c-0.1-0.1-0.2-0.3-0.4-0.6c-0.2-0.2-0.3-0.5-0.5-0.6c3.3-1.1,5.9-2.4,7.6-3.8c-2.2-2.1-4.1-5.2-5.6-9.2c-0.4,5.7-2.4,10.3-5.8,13.9
		C60.8,143.8,60.5,143.4,59.9,143.1z M73.6,130.1l2.6-5h-9c0,0.3,0,0.7-0.1,1.3c0,0.6,0,1-0.1,1.3c1.8,4.9,3.9,8.5,6.4,10.7
		c1.9-1.7,3.4-4,4.6-7h-4.4V130.1z"/>
	<path style="fill:#FF6600;" d="M84.3,128.8c0.3-0.8,0.6-1.5,1.1-2.1c0.5-0.6,1.1-1.1,1.9-1.4c0.8-0.3,1.6-0.5,2.6-0.5
		c0.8,0,1.5,0.1,2.2,0.4c0.7,0.2,1.3,0.6,1.8,1s0.9,1,1.2,1.6c0.3,0.6,0.5,1.4,0.5,2.2c0,0.8-0.1,1.6-0.4,2.2
		c-0.3,0.6-0.6,1.1-1.1,1.6c-0.4,0.5-0.9,0.9-1.5,1.3c-0.6,0.4-1.1,0.8-1.7,1.1c-0.6,0.4-1.1,0.8-1.7,1.2c-0.5,0.4-1,0.9-1.4,1.5
		h7.9v2.9H83.6c0-1,0.1-1.8,0.4-2.5c0.3-0.7,0.7-1.3,1.1-1.9c0.5-0.6,1-1.1,1.7-1.6c0.6-0.5,1.3-1,2-1.4c0.4-0.3,0.8-0.5,1.2-0.8
		s0.8-0.5,1.1-0.9c0.3-0.3,0.6-0.7,0.9-1.1c0.2-0.4,0.3-0.8,0.3-1.4c0-0.8-0.2-1.4-0.7-1.9c-0.5-0.5-1.1-0.7-1.8-0.7
		c-0.5,0-0.9,0.1-1.2,0.3c-0.3,0.2-0.6,0.5-0.8,0.9c-0.2,0.4-0.4,0.8-0.4,1.2c-0.1,0.5-0.1,0.9-0.1,1.3h-3.2
		C83.9,130.5,84,129.6,84.3,128.8z"/>
	<path style="fill:#FF6600;" d="M97.2,129.2c0.3-1.1,0.8-2,1.3-2.6c0.6-0.7,1.2-1.1,1.9-1.4c0.7-0.3,1.5-0.4,2.3-0.4
		c0.8,0,1.6,0.1,2.4,0.4c0.7,0.3,1.4,0.8,1.9,1.4c0.6,0.7,1,1.5,1.3,2.6c0.3,1.1,0.5,2.5,0.5,4.1c0,1.7-0.2,3-0.5,4.2
		c-0.3,1.1-0.8,2-1.3,2.7c-0.6,0.7-1.2,1.1-1.9,1.4c-0.7,0.3-1.5,0.4-2.4,0.4c-0.8,0-1.6-0.1-2.3-0.4c-0.7-0.3-1.4-0.8-1.9-1.4
		c-0.6-0.7-1-1.6-1.3-2.7c-0.3-1.1-0.5-2.5-0.5-4.2C96.8,131.7,96.9,130.3,97.2,129.2z M100.2,135c0,0.7,0.1,1.3,0.3,1.9
		c0.2,0.6,0.4,1.2,0.8,1.6c0.4,0.4,0.9,0.7,1.6,0.7c0.7,0,1.2-0.2,1.6-0.7c0.4-0.4,0.6-1,0.8-1.6c0.2-0.6,0.3-1.3,0.3-1.9
		c0-0.7,0-1.2,0-1.7c0-0.3,0-0.6,0-1s0-0.8-0.1-1.2c-0.1-0.4-0.1-0.8-0.2-1.3s-0.3-0.8-0.5-1.1c-0.2-0.3-0.5-0.6-0.8-0.8
		c-0.3-0.2-0.7-0.3-1.2-0.3c-0.5,0-0.8,0.1-1.2,0.3c-0.3,0.2-0.6,0.5-0.8,0.8c-0.2,0.3-0.4,0.7-0.5,1.1c-0.1,0.4-0.2,0.8-0.2,1.3
		c0,0.4-0.1,0.8-0.1,1.2c0,0.4,0,0.7,0,1C100.1,133.8,100.1,134.3,100.2,135z"/>
	<path style="fill:#FF6600;" d="M115.4,141.7v-10.8h-4.2v-2.5c0.6,0,1.2,0,1.7-0.1c0.5-0.1,1-0.3,1.5-0.5s0.8-0.6,1.1-1
		c0.3-0.4,0.5-1,0.6-1.6h2.7v16.6H115.4z"/>
	<path style="fill:#FF6600;" d="M127.6,127.8l-0.7,3.8l0,0c0.5-0.5,0.9-0.8,1.5-1c0.5-0.2,1.1-0.3,1.8-0.3c0.8,0,1.5,0.2,2.2,0.5
		c0.6,0.3,1.2,0.7,1.6,1.2c0.4,0.5,0.8,1.1,1,1.8c0.2,0.7,0.3,1.4,0.3,2.2c0,0.9-0.2,1.6-0.5,2.4s-0.8,1.4-1.3,1.9
		c-0.6,0.5-1.2,1-2,1.2c-0.7,0.3-1.5,0.4-2.4,0.4c-0.8,0-1.6-0.1-2.3-0.3c-0.7-0.2-1.4-0.5-2-1s-1-1-1.4-1.6
		c-0.3-0.7-0.5-1.4-0.5-2.3h3.4c0.1,0.8,0.4,1.4,0.9,1.8c0.5,0.5,1.1,0.7,1.9,0.7c0.4,0,0.8-0.1,1.2-0.3c0.4-0.2,0.7-0.4,0.9-0.7
		s0.4-0.6,0.6-1c0.1-0.4,0.2-0.8,0.2-1.2c0-0.4-0.1-0.8-0.2-1.2c-0.1-0.4-0.3-0.7-0.6-1c-0.3-0.3-0.6-0.5-0.9-0.7
		c-0.3-0.2-0.8-0.2-1.2-0.2c-0.6,0-1.1,0.1-1.5,0.3c-0.4,0.2-0.7,0.5-1.1,1h-3l1.6-9.2h9.3v2.8H127.6z"/>
	<path style="fill:#FF6600;" d="M157.4,130.5v3.2h-6.1v3.1h7.5v3.4h-7.5v4.2h-3.8v-4.2h-10.7v-3.4h3.1v-5.2
		c-0.4,0.4-0.9,0.8-1.4,1.4c-0.2-0.3-0.4-0.7-0.6-1.3c-0.6-1-1-1.8-1.3-2.3c2.3-1.9,4-4.3,5.3-7.2l4.4,0.4c-0.4,0.6-0.7,1.3-1.1,1.9
		h13.2v3.3h-6.9v2.7H157.4z M142.9,127.8c-0.6,0.9-1.3,1.8-2.1,2.7h6.7v-2.7H142.9z M143.4,133.7v3.1h4.1v-3.1H143.4z"/>
	<path style="fill:#FF6600;" d="M166.8,131v-3.5h3.7c0-0.7,0-1.7,0.1-3c0-1.1,0-1.9,0-2.3h3.7c0,1.1-0.1,2.7-0.2,5
		c0.1-1.7,0.1-1.6,0,0.3h3.9c-1.4-1.2-2.3-2.1-2.9-2.5l2.3-2.4c0.4,0.3,0.9,0.7,1.7,1.3c0.9,0.7,1.6,1.2,1.9,1.5l-1.9,2.1h2.9v3.5
		h-8c-0.2,5.3-2,9.8-5.5,13.5c-0.8-0.8-1.6-1.6-2.5-2.5v2.2h-3.6v-10.1c-0.2,0.2-0.5,0.6-0.8,1.2c-0.4,0.5-0.7,0.9-0.9,1.2
		c-0.2-1.9-0.4-3.6-0.6-5.2c1.9-2.7,3.3-5.7,4.4-9.3l3.8,1.1c-0.6,1.7-1.4,3.4-2.2,5v13.1c2.7-2.8,4.1-6.2,4.3-10.3H166.8z
		 M173.9,132.2h3.7v7.3c-0.1,0.6,0.1,0.8,0.6,0.7c0.4,0.1,0.7-0.2,0.7-0.8c0.2-1.2,0.3-2.5,0.4-3.8c0.2,0.1,0.6,0.2,1.2,0.4
		c1,0.4,1.7,0.6,2.1,0.8c-0.2,1.9-0.4,3.3-0.6,4.4c-0.3,1.7-1.4,2.6-3.3,2.5h-1.8c-2,0.1-3-1-3-3.1V132.2z"/>
	<path style="fill:#FF6600;" d="M190.3,144.3h-3.6v-10c-0.2,0.2-0.5,0.6-0.8,1.1c-0.5,0.7-0.9,1.2-1.2,1.6c-0.1-0.2-0.1-0.6-0.2-1.2
		c-0.1-0.8-0.4-2.1-0.7-3.9c2.1-2.7,3.8-5.9,5.1-9.7l3.8,1.4c-0.6,1.7-1.4,3.3-2.3,4.9v6.7c1.5-0.8,3-1.6,4.3-2.4v-10.3h4v7.5
		c1.9-1.5,3.6-3.1,5-4.8l2.9,2.9c-2.2,2.4-4.8,4.7-7.9,6.9v4.4c-0.1,0.8,0.3,1.2,1.2,1.1h0.7c1,0.1,1.6-0.4,1.7-1.4
		c0-0.1,0-0.4,0.1-0.7c0.1-1.2,0.2-2.1,0.3-2.8c1.7,0.6,3,1.1,3.9,1.4c0,0.2,0,0.4-0.1,0.7c-0.2,1.6-0.5,2.8-0.7,3.6
		c-0.2,1.9-1.7,2.7-4.4,2.6h-2.5c-2.9,0.2-4.3-1.1-4.1-4v-2.5c-0.4,0.3-1.1,0.7-1.9,1.1c-0.2,0.1-0.4,0.2-0.6,0.3
		c-0.7-1.2-1.3-2.3-1.9-3.1V144.3z"/>
	<path style="fill:#FF6600;" d="M210.8,126.2H208V123h6.8v3.2l-2.8,3.5h2.9c0.1,4-0.5,7.1-1.6,9.3c1,0.9,2.5,1.4,4.4,1.5
		c0.4,0.1,1,0.1,1.9,0.1v-1h-4.8V137h4.8v-0.7h-4.2v-2.6h4.2v-0.8h-4.1v-2.5h4.1v-0.9h-4.8v-2.6h4.8V126h-3.9v-2.6h3.9V122h3.5v1.4
		h5.5v3.4h1.7v2.6h-1.7v3.4H223v0.8h5.7v2.6H223v0.7h6.3v2.6H223v1c3.5,0,5.9,0,7.1,0c-0.1,0.3-0.2,0.7-0.5,1.3
		c-0.2,0.9-0.4,1.5-0.5,1.8c-4.4,0-7.8,0-10.4-0.1c-3.5,0-5.8-0.6-7.1-1.9c-0.1,0.1-0.3,0.3-0.5,0.6c-0.8,0.9-1.5,1.6-2,2.1
		c-0.2-0.6-0.7-1.5-1.4-2.7c-0.1-0.2-0.2-0.4-0.3-0.5c0.7-0.6,1.4-1.3,1.9-2c-0.7-1.1-1.3-2.4-1.8-3.8l2.1-2.4H208v-3.2L210.8,126.2
		z M209.7,133c0.5,1.5,0.9,2.5,1.2,3.1c0.4-1,0.6-2.1,0.6-3.1H209.7z M225.1,126H223v0.8h2.1V126z M223,130.4h2.1v-0.9H223V130.4z"
		/>
	<path style="fill:#FF6600;" d="M238.8,135c0.3,1.4,0.6,2.5,1,3.5c-1.4,1.3-2.6,2.4-3.6,3.2c-0.5,0.5-1,1-1.5,1.6l-2.2-2.5
		c0.6-0.7,0.9-1.5,0.9-2.5v-5.5h-2.1v-3.5h5.7v7.5c0.1-0.2,0.4-0.5,0.7-0.8C238.2,135.6,238.6,135.3,238.8,135z M235.1,122.2
		c0.5,0.7,1.2,1.8,2.2,3.2c0.3,0.4,0.6,0.8,0.7,1l-3.2,1.9c-0.8-1.5-1.7-3-2.8-4.5L235.1,122.2z M253.1,124.8
		c-1,5.7-2.6,9.9-4.8,12.6c1.1,1.1,3,2.2,5.6,3.4c-0.3,0.4-0.9,1.3-1.7,2.6c-0.2,0.4-0.4,0.6-0.5,0.7c-2.5-1.2-4.5-2.6-6.1-4
		c-1.6,1.4-3.7,2.8-6.3,4.3c-0.7-1.3-1.4-2.3-2.1-3.1c2.4-1.3,4.4-2.6,5.9-3.9c-2.2-2.8-3.8-6.8-4.8-12l3.5-0.8
		c0.9,4.6,2.2,8,3.9,10.1c1.8-2.2,3.1-5.7,3.9-10.6L253.1,124.8z M246.1,122.1c0.9,1.9,1.6,3.8,2.1,5.6l-3.5,1.1
		c-0.3-1-0.8-2.4-1.5-4.4c-0.2-0.6-0.3-1.1-0.5-1.4L246.1,122.1z"/>
</g>
<g>
	<path style="fill:#CCCCCC;" d="M61,209.5h1.3v-1.2h-1.5v-0.7h1.9c0.3-0.6,0.5-1.2,0.7-1.8l0.7,0.2c-0.3,0.7-0.6,1.2-0.7,1.6h1v0.7
		h-1.5v1.2h1.3v0.7h-1.3v0.8c0,0.2,0,0.3,0,0.4h1.5v0.7h-1.5c-0.1,1.3-0.6,2.5-1.6,3.4c-0.2-0.2-0.4-0.4-0.6-0.5
		c0.9-0.7,1.4-1.6,1.5-2.9h-1.4v-0.7h1.5c0-0.1,0-0.3,0-0.4v-0.8H61V209.5z M61.1,206.1l0.6-0.2c0.3,0.5,0.5,1,0.7,1.4l-0.6,0.3
		C61.5,207,61.3,206.5,61.1,206.1z M66.4,207h-1.9v-0.7h2.6v7.7c0.1,0.9-0.4,1.3-1.3,1.3c-0.2,0-0.6,0-1,0c0,0,0-0.1,0-0.2
		c0-0.3-0.1-0.5-0.1-0.7c0.3,0,0.6,0,1,0c0.5,0,0.7-0.2,0.7-0.6v-2.1c-0.2,0.2-0.6,0.4-1,0.7c-0.5,0.3-0.8,0.6-1,0.7l-0.4-0.7
		c0.5-0.3,1.3-0.8,2.4-1.6V207z M64.5,208.3l0.7-0.2c0.2,0.5,0.4,1.2,0.7,2.1l-0.7,0.3C65,209.8,64.8,209,64.5,208.3z M69.4,207
		h-2.1v-0.7h2.8v7.7c0.1,0.9-0.4,1.3-1.3,1.3c-0.4,0-0.8,0-1,0c0-0.1-0.1-0.3-0.1-0.6c0,0.1,0,0,0-0.2c0.3,0,0.7,0,1.1,0
		c0.5,0.1,0.7-0.2,0.7-0.6v-2.2c-0.8,0.6-1.4,1-1.7,1.2l-0.4-0.7c0.7-0.4,1.4-0.9,2.1-1.4V207z M67.7,208.2l0.7-0.2
		c0,0.2,0.1,0.5,0.3,1c0.2,0.5,0.3,0.9,0.3,1.2l-0.7,0.2C68.1,209.6,67.9,208.8,67.7,208.2z"/>
	<path style="fill:#CCCCCC;" d="M73.8,211.5l0.7,0.5c-0.9,1.2-1.7,2.2-2.6,3c-0.2-0.2-0.4-0.3-0.6-0.5
		C72.2,213.6,73,212.7,73.8,211.5z M72.6,206.6c1.8,0,4.2-0.2,7.2-0.5l0.3,0.8c-2.5,0.2-4.7,0.3-6.7,0.4l-0.4,2.9h2.9v-2.3h0.8v2.3
		h3.9v0.7h-3.9v3.1c0.1,0.9-0.4,1.4-1.3,1.3c-0.6,0-1.1,0-1.3,0c-0.1-0.3-0.1-0.6-0.2-0.9c0.7,0.1,1.1,0.1,1.3,0.1
		c0.5,0,0.7-0.2,0.7-0.7v-3H72L72.6,206.6z M78.5,211.5c0.9,0.9,1.8,1.9,2.6,2.9l-0.6,0.6c-0.7-0.9-1.6-1.9-2.6-3L78.5,211.5z"/>
</g>
<g>
	<path style="fill:#CCCCCC;" d="M88.2,206.3l-3.5,8.9h-0.9l3.5-8.9H88.2z"/>
	<path style="fill:#CCCCCC;" d="M92,208.3c0.1-0.4,0.3-0.7,0.5-0.9s0.5-0.5,0.9-0.6c0.3-0.1,0.7-0.2,1.2-0.2c0.4,0,0.7,0.1,1,0.2
		c0.3,0.1,0.6,0.3,0.8,0.5c0.2,0.2,0.4,0.5,0.6,0.8c0.1,0.3,0.2,0.6,0.2,1c0,0.4-0.1,0.7-0.2,1c-0.1,0.3-0.3,0.5-0.5,0.8
		s-0.4,0.4-0.7,0.6c-0.2,0.2-0.5,0.4-0.8,0.5c-0.3,0.2-0.5,0.3-0.8,0.5c-0.3,0.2-0.5,0.3-0.7,0.5c-0.2,0.2-0.4,0.4-0.6,0.6
		s-0.3,0.4-0.3,0.7h4.3v0.9h-5.5c0-0.5,0.1-0.9,0.3-1.3c0.1-0.4,0.3-0.7,0.5-0.9c0.2-0.3,0.5-0.5,0.7-0.7c0.3-0.2,0.5-0.4,0.8-0.6
		c0.4-0.2,0.7-0.4,0.9-0.6c0.3-0.2,0.5-0.4,0.7-0.6c0.2-0.2,0.3-0.4,0.4-0.6s0.1-0.5,0.1-0.8c0-0.2,0-0.4-0.1-0.6
		c-0.1-0.2-0.2-0.3-0.3-0.5c-0.1-0.1-0.3-0.2-0.5-0.3c-0.2-0.1-0.4-0.1-0.6-0.1c-0.3,0-0.5,0.1-0.8,0.2c-0.2,0.1-0.4,0.3-0.5,0.5
		c-0.1,0.2-0.2,0.4-0.3,0.7c-0.1,0.2-0.1,0.5-0.1,0.8h-1C91.8,209.1,91.8,208.7,92,208.3z"/>
	<path style="fill:#CCCCCC;" d="M98.4,209.8c0-0.3,0.1-0.7,0.1-1c0.1-0.3,0.2-0.6,0.3-0.9c0.1-0.3,0.3-0.5,0.5-0.7
		c0.2-0.2,0.5-0.4,0.8-0.5c0.3-0.1,0.7-0.2,1.1-0.2c0.4,0,0.8,0.1,1.1,0.2c0.3,0.1,0.6,0.3,0.8,0.5c0.2,0.2,0.4,0.5,0.5,0.7
		c0.1,0.3,0.2,0.6,0.3,0.9c0.1,0.3,0.1,0.6,0.1,1s0,0.7,0,1c0,0.3,0,0.6,0,1s-0.1,0.7-0.1,1c-0.1,0.3-0.2,0.6-0.3,0.9
		c-0.1,0.3-0.3,0.5-0.5,0.7c-0.2,0.2-0.5,0.4-0.8,0.5c-0.3,0.1-0.7,0.2-1.1,0.2c-0.4,0-0.8-0.1-1.1-0.2c-0.3-0.1-0.6-0.3-0.8-0.5
		c-0.2-0.2-0.4-0.5-0.5-0.7c-0.1-0.3-0.2-0.6-0.3-0.9c-0.1-0.3-0.1-0.6-0.1-1s0-0.7,0-1C98.4,210.5,98.4,210.2,98.4,209.8z
		 M99.5,211.9c0,0.4,0.1,0.8,0.2,1.1c0.1,0.3,0.3,0.6,0.5,0.9s0.6,0.4,1,0.4s0.8-0.1,1-0.4s0.4-0.5,0.5-0.9s0.2-0.7,0.2-1.1
		s0-0.7,0-1.1c0-0.2,0-0.4,0-0.7s0-0.5-0.1-0.7c0-0.2-0.1-0.5-0.2-0.7s-0.2-0.4-0.3-0.6c-0.1-0.2-0.3-0.3-0.5-0.4
		c-0.2-0.1-0.4-0.2-0.7-0.2c-0.3,0-0.5,0.1-0.7,0.2c-0.2,0.1-0.4,0.3-0.5,0.4s-0.2,0.4-0.3,0.6c-0.1,0.2-0.1,0.5-0.2,0.7
		c0,0.2-0.1,0.5-0.1,0.7s0,0.5,0,0.7C99.5,211.1,99.5,211.5,99.5,211.9z"/>
	<path style="fill:#CCCCCC;" d="M107.7,214.9v-6h-2.2v-0.8c0.3,0,0.6,0,0.8-0.1c0.3,0,0.5-0.1,0.7-0.2s0.4-0.3,0.6-0.5
		c0.2-0.2,0.3-0.5,0.3-0.8h0.8v8.4H107.7z"/>
	<path style="fill:#CCCCCC;" d="M113.3,207.6l-0.5,2.4l0,0c0.2-0.2,0.4-0.4,0.7-0.5c0.3-0.1,0.6-0.1,0.9-0.1c0.4,0,0.7,0.1,1.1,0.2
		c0.3,0.1,0.6,0.3,0.9,0.5s0.4,0.5,0.6,0.9s0.2,0.8,0.2,1.3c0,0.4-0.1,0.7-0.2,1c-0.1,0.3-0.3,0.6-0.6,0.9s-0.6,0.5-0.9,0.6
		c-0.4,0.2-0.8,0.2-1.3,0.2c-0.4,0-0.7-0.1-1-0.2c-0.3-0.1-0.6-0.3-0.8-0.5c-0.2-0.2-0.4-0.5-0.6-0.8c-0.1-0.3-0.2-0.6-0.2-1h1
		c0,0.2,0.1,0.4,0.2,0.6s0.2,0.3,0.4,0.5c0.2,0.1,0.3,0.2,0.5,0.3c0.2,0.1,0.4,0.1,0.7,0.1c0.2,0,0.5,0,0.7-0.1
		c0.2-0.1,0.4-0.2,0.6-0.4s0.3-0.4,0.4-0.6s0.1-0.5,0.1-0.9c0-0.3,0-0.5-0.1-0.8s-0.2-0.4-0.4-0.6s-0.4-0.3-0.6-0.4
		s-0.5-0.1-0.8-0.1c-0.3,0-0.6,0.1-0.9,0.2s-0.5,0.3-0.7,0.6l-0.9,0l0.8-4.4h4.2v0.9H113.3z"/>
	<path style="fill:#CCCCCC;" d="M120,213.6v1.3h-1.3v-1.3H120z"/>
	<path style="fill:#CCCCCC;" d="M123.2,207.6l-0.5,2.4l0,0c0.2-0.2,0.4-0.4,0.7-0.5c0.3-0.1,0.6-0.1,0.9-0.1c0.4,0,0.7,0.1,1.1,0.2
		c0.3,0.1,0.6,0.3,0.9,0.5s0.4,0.5,0.6,0.9s0.2,0.8,0.2,1.3c0,0.4-0.1,0.7-0.2,1c-0.1,0.3-0.3,0.6-0.6,0.9s-0.6,0.5-0.9,0.6
		c-0.4,0.2-0.8,0.2-1.3,0.2c-0.4,0-0.7-0.1-1-0.2c-0.3-0.1-0.6-0.3-0.8-0.5c-0.2-0.2-0.4-0.5-0.6-0.8c-0.1-0.3-0.2-0.6-0.2-1h1
		c0,0.2,0.1,0.4,0.2,0.6s0.2,0.3,0.4,0.5c0.2,0.1,0.3,0.2,0.5,0.3c0.2,0.1,0.4,0.1,0.7,0.1c0.2,0,0.5,0,0.7-0.1
		c0.2-0.1,0.4-0.2,0.6-0.4s0.3-0.4,0.4-0.6s0.1-0.5,0.1-0.9c0-0.3,0-0.5-0.1-0.8s-0.2-0.4-0.4-0.6s-0.4-0.3-0.6-0.4
		s-0.5-0.1-0.8-0.1c-0.3,0-0.6,0.1-0.9,0.2s-0.5,0.3-0.7,0.6l-0.9,0l0.8-4.4h4.2v0.9H123.2z"/>
	<path style="fill:#CCCCCC;" d="M129.9,213.6v1.3h-1.3v-1.3H129.9z"/>
	<path style="fill:#CCCCCC;" d="M131.5,208.3c0.1-0.4,0.3-0.7,0.5-0.9s0.5-0.5,0.9-0.6c0.3-0.1,0.7-0.2,1.2-0.2c0.4,0,0.7,0.1,1,0.2
		c0.3,0.1,0.6,0.3,0.8,0.5c0.2,0.2,0.4,0.5,0.6,0.8c0.1,0.3,0.2,0.6,0.2,1c0,0.4-0.1,0.7-0.2,1c-0.1,0.3-0.3,0.5-0.5,0.8
		s-0.4,0.4-0.7,0.6c-0.2,0.2-0.5,0.4-0.8,0.5c-0.3,0.2-0.5,0.3-0.8,0.5c-0.3,0.2-0.5,0.3-0.7,0.5c-0.2,0.2-0.4,0.4-0.6,0.6
		s-0.3,0.4-0.3,0.7h4.3v0.9h-5.5c0-0.5,0.1-0.9,0.3-1.3c0.1-0.4,0.3-0.7,0.5-0.9c0.2-0.3,0.5-0.5,0.7-0.7c0.3-0.2,0.5-0.4,0.8-0.6
		c0.4-0.2,0.7-0.4,0.9-0.6c0.3-0.2,0.5-0.4,0.7-0.6c0.2-0.2,0.3-0.4,0.4-0.6s0.1-0.5,0.1-0.8c0-0.2,0-0.4-0.1-0.6
		c-0.1-0.2-0.2-0.3-0.3-0.5c-0.1-0.1-0.3-0.2-0.5-0.3c-0.2-0.1-0.4-0.1-0.6-0.1c-0.3,0-0.5,0.1-0.8,0.2c-0.2,0.1-0.4,0.3-0.5,0.5
		c-0.1,0.2-0.2,0.4-0.3,0.7c-0.1,0.2-0.1,0.5-0.1,0.8h-1C131.4,209.1,131.4,208.7,131.5,208.3z"/>
	<path style="fill:#CCCCCC;" d="M138.4,207.8c0.1-0.3,0.3-0.5,0.5-0.7c0.2-0.2,0.5-0.3,0.8-0.4c0.3-0.1,0.6-0.1,0.9-0.1
		c0.5,0,0.8,0.1,1.2,0.2c0.3,0.1,0.6,0.3,0.8,0.5c0.2,0.2,0.3,0.4,0.4,0.7s0.1,0.5,0.1,0.8c0,0.4-0.1,0.7-0.3,1
		c-0.2,0.3-0.5,0.5-0.8,0.7c0.5,0.2,0.9,0.4,1.1,0.8s0.4,0.8,0.4,1.3c0,0.4-0.1,0.8-0.2,1.1s-0.3,0.6-0.6,0.8
		c-0.2,0.2-0.5,0.4-0.9,0.5c-0.3,0.1-0.7,0.2-1.1,0.2c-0.4,0-0.8-0.1-1.1-0.2c-0.3-0.1-0.7-0.3-0.9-0.5c-0.3-0.2-0.5-0.5-0.6-0.8
		c-0.1-0.3-0.2-0.7-0.2-1.1c0-0.5,0.1-0.9,0.4-1.3c0.3-0.4,0.6-0.6,1.1-0.8c-0.4-0.1-0.6-0.4-0.9-0.7c-0.2-0.3-0.3-0.7-0.3-1
		C138.2,208.3,138.3,208,138.4,207.8z M139.5,213.8c0.3,0.3,0.8,0.4,1.3,0.4c0.3,0,0.5,0,0.7-0.1c0.2-0.1,0.4-0.2,0.5-0.3
		c0.2-0.1,0.3-0.3,0.4-0.5c0.1-0.2,0.1-0.4,0.1-0.7c0-0.2,0-0.4-0.1-0.6c-0.1-0.2-0.2-0.4-0.4-0.5c-0.2-0.1-0.3-0.3-0.6-0.3
		c-0.2-0.1-0.4-0.1-0.7-0.1c-0.2,0-0.5,0-0.7,0.1c-0.2,0.1-0.4,0.2-0.6,0.3c-0.2,0.1-0.3,0.3-0.4,0.5c-0.1,0.2-0.1,0.4-0.1,0.7
		C139,213.1,139.2,213.5,139.5,213.8z M139.4,209.3c0.1,0.2,0.2,0.3,0.3,0.4c0.1,0.1,0.3,0.2,0.5,0.2c0.2,0.1,0.4,0.1,0.6,0.1
		c0.4,0,0.7-0.1,1-0.4s0.4-0.6,0.4-1s-0.1-0.7-0.4-1c-0.3-0.2-0.6-0.3-1-0.3c-0.2,0-0.4,0-0.6,0.1c-0.2,0.1-0.3,0.1-0.5,0.2
		c-0.1,0.1-0.2,0.2-0.3,0.4c-0.1,0.2-0.1,0.3-0.1,0.6C139.3,208.9,139.3,209.1,139.4,209.3z"/>
</g>
<g>
	<path style="fill:#FF6600;" d="M63.1,193.5c0,1-0.3,1.5-1,1.5c-0.3,0-0.6,0-1,0c0,0,0-0.1,0-0.1c0-0.3-0.1-0.5-0.1-0.7
		c0.1,0,0.2,0,0.3,0c0.2,0,0.4,0,0.5,0c0.4,0,0.5-0.3,0.5-0.8c0-0.7-0.3-1.5-1-2.3c0.2-0.6,0.5-1.5,0.8-2.8H61v8.4h-0.7v-9.1h2.8
		v0.7c-0.5,1.5-0.8,2.4-0.9,2.7C62.9,191.9,63.2,192.7,63.1,193.5z M63.5,187.7h6.1v0.7h-0.9v6.7c0.1,1-0.4,1.5-1.4,1.4
		c-0.3,0-0.8,0-1.5,0c0-0.1-0.1-0.3-0.1-0.5c-0.1-0.2-0.1-0.3-0.1-0.3c0.4,0,0.9,0,1.5,0c0.5,0,0.8-0.2,0.8-0.7v-6.7h-4.4V187.7z
		 M63.8,189.8h3v4.3h-3V189.8z M64.5,190.5v2.9h1.6v-2.9H64.5z"/>
	<path style="fill:#FF6600;" d="M70.9,193.6h4v-1.2h-3.6v-4.9h7.9v4.9h-3.6v1.2h4v0.7h-4v1.3h4.6v0.7h-9.9v-0.7h4.6v-1.3h-4V193.6z
		 M72,188.2v1.5h2.8v-1.5H72z M72,190.3v1.4h2.8v-1.4H72z M78.4,188.2h-2.8v1.5h2.8V188.2z M75.6,190.3v1.4h2.8v-1.4H75.6z"/>
	<path style="fill:#FF6600;" d="M84.8,195.2l-0.6,0.5c-0.2-0.1-0.4-0.3-0.7-0.7c-0.1-0.1-0.2-0.2-0.3-0.3c-0.4,0.6-1,1.2-1.9,2
		c-0.1-0.2-0.3-0.4-0.5-0.7c0.7-0.5,1.3-1.1,1.8-1.9c-0.2-0.1-0.4-0.4-0.7-0.7c-0.3-0.3-0.5-0.5-0.7-0.7c0.2-0.6,0.4-1.6,0.7-3H81
		v-0.7h1c0.1-0.4,0.1-1,0.2-1.7c0-0.2,0-0.3,0-0.4l0.8,0.1c0,0.3-0.1,0.7-0.2,1.2c-0.1,0.4-0.1,0.6-0.1,0.8h1.8v0.7
		c-0.2,1.8-0.5,3.2-1,4.1C84,194.4,84.4,194.8,84.8,195.2z M83.8,189.9h-1.2c-0.2,1.1-0.4,2-0.6,2.8c0.2,0.1,0.4,0.3,0.7,0.6
		c0.1,0.1,0.2,0.2,0.3,0.3C83.4,192.6,83.7,191.4,83.8,189.9z M84.6,193.6H89v0.7h-4.4V193.6z M86.4,188.7l-0.2,2.8h2.5l0.3-3.5
		h-4.1v-0.7h4.9l-0.4,4.2h1c-0.1,1.7-0.1,2.9-0.2,3.5c-0.1,1-0.6,1.5-1.7,1.5c-0.7,0-1.2,0-1.6,0c0-0.2-0.1-0.4-0.1-0.6
		c0-0.1,0-0.2,0-0.3c0.2,0,0.8,0,1.7,0c0.6,0,0.9-0.3,0.9-0.8c0.1-0.5,0.1-1.4,0.2-2.7h-4.3l0.3-3.5H86.4z"/>
	<path style="fill:#FF6600;" d="M95.3,195.2l-0.6,0.5c-0.2-0.1-0.4-0.3-0.7-0.7c-0.1-0.1-0.2-0.2-0.3-0.3c-0.4,0.6-1,1.2-1.9,2
		c-0.1-0.2-0.3-0.4-0.5-0.7c0.7-0.5,1.3-1.1,1.8-1.9c-0.2-0.1-0.4-0.4-0.7-0.7c-0.3-0.3-0.5-0.5-0.7-0.7c0.2-0.6,0.4-1.6,0.7-3h-0.9
		v-0.7h1c0.1-0.4,0.1-1,0.2-1.7c0-0.2,0-0.3,0-0.4l0.8,0.1c0,0.3-0.1,0.7-0.2,1.2c-0.1,0.4-0.1,0.6-0.1,0.8H95v0.7
		c-0.2,1.8-0.5,3.2-1,4.1C94.5,194.4,94.9,194.8,95.3,195.2z M94.3,189.9h-1.2c-0.2,1.1-0.4,2-0.6,2.8c0.2,0.1,0.4,0.3,0.7,0.6
		c0.1,0.1,0.2,0.2,0.3,0.3C93.9,192.6,94.2,191.4,94.3,189.9z M95.2,193.6h4.4v0.7h-4.4V193.6z M96.9,188.7l-0.2,2.8h2.5l0.3-3.5
		h-4.1v-0.7h4.9l-0.4,4.2h1c-0.1,1.7-0.1,2.9-0.2,3.5c-0.1,1-0.6,1.5-1.7,1.5c-0.7,0-1.2,0-1.6,0c0-0.2-0.1-0.4-0.1-0.6
		c0-0.1,0-0.2,0-0.3c0.2,0,0.8,0,1.7,0c0.6,0,0.9-0.3,0.9-0.8c0.1-0.5,0.1-1.4,0.2-2.7h-4.3l0.3-3.5H96.9z"/>
	<path style="fill:#FF6600;" d="M104,192.3v-0.8h5.7v0.8H104z"/>
	<path style="fill:#FF6600;" d="M118,196.6h-0.8v-3.1h-2.9c-0.1,1.3-0.5,2.5-1.2,3.4c0,0-0.1-0.1-0.1-0.1c-0.2-0.2-0.4-0.4-0.5-0.5
		c0.5-0.6,0.8-1.2,0.9-1.9c0.1-0.7,0.2-1.8,0.2-3.5v-3.2h8.1v7.8c0.1,0.9-0.4,1.3-1.4,1.3c-0.4,0-0.8,0-1.2,0c0,0,0-0.1,0-0.2
		c0-0.3-0.1-0.5-0.1-0.7c0.1,0,0.3,0,0.6,0c0.3,0,0.6,0,0.7,0c0.5,0,0.8-0.2,0.7-0.7v-1.7h-3V196.6z M114.4,190.9c0,0.7,0,1.4,0,1.9
		h2.9v-1.9H114.4z M114.4,188.3v1.9h2.8v-1.9H114.4z M120.9,188.3h-3v1.9h3V188.3z M118,190.9v1.9h3v-1.9H118z"/>
	<path style="fill:#FF6600;" d="M127.2,187.2l0.7-0.4c0.1,0.1,0.2,0.3,0.3,0.5c0.2,0.4,0.4,0.6,0.5,0.8l-0.5,0.3h3.8v4.4h-0.8v-0.5
		h-6.3c-0.1,1.8-0.5,3.2-1.4,4.4c-0.1-0.1-0.2-0.2-0.3-0.3c-0.1-0.1-0.2-0.2-0.3-0.3c0.9-1,1.4-2.6,1.3-4.8v-2.9h3.8
		c-0.1-0.1-0.1-0.2-0.2-0.4C127.5,187.7,127.3,187.4,127.2,187.2z M125,189.2v2.2v0.3h6.3v-2.5H125z"/>
	<path style="fill:#FF6600;" d="M133.4,191.8c1-1.3,1.8-2.9,2.3-4.8l0.7,0.2c-0.3,0.9-0.6,1.8-1,2.6v6.9h-0.7v-5.5
		c-0.1,0.1-0.2,0.3-0.3,0.5c-0.1,0.2-0.3,0.5-0.7,0.9c0,0-0.1-0.1-0.1-0.3C133.5,192,133.5,191.8,133.4,191.8z M135.6,194.5
		c1.4-1.2,2.4-2.8,3-4.7h-2.3V189h2.9v-2h0.8v2h3.1v0.7h-2.5c0.7,2.1,1.6,3.5,3,4.4c-0.1,0.1-0.3,0.4-0.6,0.7
		c-1.5-1.4-2.4-3.1-3-5.2v4.2h1.6v0.7h-1.6v2h-0.8v-2h-1.6V194h1.6v-4.2c-0.4,1.9-1.4,3.7-3,5.4
		C135.9,194.8,135.7,194.6,135.6,194.5z"/>
	<path style="fill:#FF6600;" d="M144,193.8c0.9-0.2,1.7-0.4,2.5-0.6c0,0.2,0,0.5,0,0.7c-0.4,0.1-1,0.2-1.9,0.5
		c-0.2,0.1-0.4,0.1-0.5,0.1L144,193.8z M145.4,188.9l-0.2,2.8h1l0.3-3.4h-2.3v-0.7h3l-0.3,4.1h0.6c0,0.5-0.1,1.3-0.1,2.3
		c0,0.5,0,0.9,0,1.2c0,0.9-0.5,1.4-1.4,1.4c-0.3,0-0.7,0-1.2,0c0-0.2-0.1-0.5-0.2-0.8c0.2,0,0.4,0,0.7,0c0.2,0,0.4,0,0.5,0
		c0.5,0,0.7-0.2,0.7-0.7c0-0.3,0.1-1,0.1-1.9c0-0.4,0-0.7,0-0.9h-2.4l0.3-3.4H145.4z M151.3,187.1c-0.1,0.1-0.1,0.2-0.2,0.4
		c0.8,1.4,1.8,2.4,2.9,3c0,0-0.1,0.1-0.1,0.2c-0.2,0.2-0.3,0.4-0.4,0.5c-1.2-0.8-2.1-1.8-2.8-3c-0.8,1.3-1.8,2.4-2.9,3.1
		c-0.1-0.2-0.3-0.4-0.5-0.6c1.3-0.9,2.4-2.1,3.2-3.7L151.3,187.1z M153.2,192.1c-0.4,1.3-0.9,2.5-1.2,3.4h1.8v0.7h-6.1v-0.7h3.5
		c0.4-1,0.9-2.2,1.3-3.7L153.2,192.1z M148.1,192.3l0.7-0.2c0.1,0.2,0.2,0.5,0.3,0.9c0.3,0.8,0.5,1.4,0.6,1.7l-0.7,0.2
		C148.6,194,148.4,193.1,148.1,192.3z M148.7,190.7h4.1v0.7h-4.1V190.7z M149.8,192l0.7-0.2c0.3,1.2,0.6,2.1,0.7,2.6l-0.7,0.2
		C150.3,193.6,150.1,192.8,149.8,192z"/>
	<path style="fill:#FF6600;" d="M155.2,189.1h3.9v-2.2h0.8v2.2h3.9v4.5H163v-0.5h-3.1v3.7h-0.8v-3.7H156v0.5h-0.8V189.1z M156,189.9
		v2.5h3.1v-2.5H156z M163,189.9h-3.1v2.5h3.1V189.9z"/>
	<path style="fill:#FF6600;" d="M166.2,190l0.8,0.2c-0.3,1.6-0.7,2.9-1.1,4.1l-0.8-0.3C165.6,192.5,166,191.2,166.2,190z
		 M167.7,188.9h0.8v5.8c0,0.6,0.3,0.9,0.9,0.9h1.9c0.7,0.1,1.1-0.2,1.1-0.7c0-0.1,0-0.3,0-0.5c0.1-0.4,0.1-0.8,0.1-1
		c0.3,0.1,0.6,0.2,0.8,0.3c-0.1,0.6-0.2,1.1-0.2,1.6c-0.1,0.8-0.7,1.1-1.8,1.1h-2.2c-1,0-1.6-0.5-1.5-1.5V188.9z M169.9,186.9
		c0.4,0.6,0.9,1.4,1.5,2.5c0.1,0.1,0.1,0.2,0.2,0.3l-0.8,0.4c-0.4-1-0.9-2-1.5-2.9L169.9,186.9z M173.3,189.7
		c0.1,0.1,0.1,0.3,0.2,0.5c0.7,1.3,1.2,2.4,1.5,3.2l-0.8,0.4c-0.5-1.3-1.1-2.6-1.7-3.7L173.3,189.7z"/>
	<path style="fill:#FF6600;" d="M177.8,192.3v-0.8h5.7v0.8H177.8z"/>
	<path style="fill:#FF6600;" d="M186.7,192.2h3.8v4.5h-0.8V196h-2.3v0.7h-0.7V192.2z M187.5,192.9v2.6h2.3v-2.6H187.5z M187.7,187.4
		h6.8v3.6h-6.8V187.4z M188.5,188.1v2.2h5.3v-2.2H188.5z M191.8,192.2h3.8v4.5h-0.7V196h-2.3v0.7h-0.8V192.2z M192.5,192.9v2.6h2.3
		v-2.6H192.5z"/>
	<path style="fill:#FF6600;" d="M199.2,187h0.7v3.2h0.7v0.7h-2.5v1.4h1.9v4.3h-0.7v-3.7h-1.2c0,1.7-0.3,3-0.8,3.8
		c-0.2-0.2-0.4-0.4-0.6-0.6c0.5-0.7,0.7-2.1,0.7-4.1v-4.7h0.7v2.9h1V187z M200.4,194.2h1.1c-0.2-0.2-0.3-0.3-0.4-0.5
		c0.6-0.3,1.1-0.6,1.4-1.1H201V188h1.7c0.1-0.2,0.2-0.6,0.3-1.1l0.8,0.1c0,0.1-0.1,0.2-0.1,0.3c-0.1,0.3-0.2,0.5-0.2,0.7h2.5v4.7
		h-2.7c-0.3,0.5-0.8,1.1-1.5,1.5h1.9V193h0.7v1.2h2.3v0.7h-2.3v1.9h-0.7v-1.9h-3.3V194.2z M201.7,188.6v1.4h1.5v-1.4H201.7z
		 M202.8,192c0.2-0.4,0.3-0.8,0.3-1.4h-1.5v1.4H202.8z M203.8,190.6c0,0.5-0.1,1-0.2,1.4h1.7v-1.4H203.8z M205.3,188.6h-1.5v1.4h1.5
		V188.6z"/>
	<path style="fill:#FF6600;" d="M211.2,187.1c-0.1,0.1-0.2,0.2-0.2,0.4c0.7,0.6,1.5,1.3,2.4,2.2l-0.5,0.6c-0.5-0.6-1.3-1.3-2.2-2.2
		c-0.6,0.9-1.3,1.7-2.1,2.3h4.1c0,0.5,0,1.3-0.1,2.1c0,0.9-0.5,1.3-1.5,1.3c-0.6,0-1,0-1.2,0c0-0.3-0.1-0.6-0.1-0.8
		c0.5,0,0.9,0,1.2,0c0.5,0,0.8-0.2,0.8-0.7c0-0.1,0-0.4,0-0.7c0-0.3,0-0.5,0-0.7h-2.6v3.8c-0.1,0.5,0.2,0.7,0.7,0.7h1.4
		c0.6,0,0.9-0.1,1-0.4c0.1-0.2,0.1-0.6,0.2-1.2c0.2,0.1,0.5,0.2,0.8,0.3c-0.1,0.6-0.2,1-0.2,1.2c-0.2,0.6-0.7,0.9-1.5,0.9h-1.7
		c-1,0.1-1.4-0.4-1.4-1.3v-4.5c-0.1,0-0.1,0.1-0.2,0.2c-0.1,0.1-0.2,0.2-0.5,0.4c0-0.1-0.1-0.2-0.2-0.4c-0.1-0.2-0.2-0.3-0.2-0.3
		c1.4-1,2.4-2.2,3.1-3.5L211.2,187.1z M215.8,187h0.8v8.3c0,0.9-0.4,1.3-1.2,1.3c-0.4,0-0.9,0-1.5,0c0-0.3-0.1-0.6-0.2-0.9
		c0.2,0,0.4,0,0.7,0c0.3,0,0.5,0,0.7,0c0.5,0,0.8-0.2,0.7-0.6V187z M214.5,194.2h-0.7V188h0.7V194.2z"/>
	<path style="fill:#FF6600;" d="M218.7,194.3l0.7,0.2c-0.2,0.4-0.4,0.9-0.7,1.4c-0.1,0.1-0.1,0.2-0.2,0.3c-0.2-0.1-0.4-0.2-0.7-0.3
		C218.2,195.5,218.5,194.9,218.7,194.3z M222.2,187.1l0.7-0.2c0.1,0.1,0.2,0.4,0.2,0.7c0.1,0.2,0.1,0.3,0.1,0.4h3.8v0.6h-1.8
		l0.4,0.2c-0.1,0.1-0.4,0.3-0.7,0.6c0.2-0.2,0.2-0.2-0.1,0.1h2.8v0.6h-9.7v-0.6h2.8c0,0-0.1-0.1-0.1-0.1c-0.2-0.2-0.4-0.4-0.7-0.6
		l0.3-0.2h-1.7v-0.6h4c0-0.1-0.1-0.3-0.2-0.5C222.3,187.3,222.2,187.2,222.2,187.1z M219.2,190.7h7.1v3.1h-3.7
		c0.4,0.3,0.8,0.7,1.1,1l-0.6,0.5c0,0-0.1-0.1-0.1-0.1c-0.4-0.4-0.7-0.8-1-1l0.5-0.4h-3.3V190.7z M219.9,191.3v0.7h5.6v-0.7H219.9z
		 M219.9,192.6v0.7h5.6v-0.7H219.9z M220.3,194.2h0.7v1.1c-0.1,0.4,0.2,0.6,0.7,0.6h1.9c0.5,0,0.8-0.1,0.9-0.4
		c0.1-0.2,0.2-0.6,0.2-0.9c0.2,0.1,0.5,0.2,0.7,0.3c-0.1,0.4-0.2,0.6-0.2,0.9c-0.1,0.6-0.6,0.9-1.4,0.9h-2.2c-1,0.1-1.4-0.3-1.4-1.2
		V194.2z M221.5,189.3l-0.3,0.2h2.6c0.1-0.1,0.3-0.3,0.5-0.5c0.2-0.2,0.4-0.4,0.5-0.5h-4.2C220.9,188.8,221.2,189,221.5,189.3z
		 M225.9,194.6l0.5-0.4c0.2,0.2,0.5,0.5,0.9,0.9c0.2,0.2,0.3,0.3,0.4,0.4l-0.6,0.5c-0.1-0.2-0.3-0.4-0.6-0.7
		C226.3,195.1,226.1,194.8,225.9,194.6z"/>
	<path style="fill:#FF6600;" d="M228.3,195.1c1.3-0.2,2.5-0.4,3.6-0.6c0,0,0,0.1,0,0.3c0,0.2,0,0.4,0,0.5c-0.4,0.1-0.9,0.2-1.6,0.3
		c-0.7,0.1-1.3,0.2-1.7,0.2L228.3,195.1z M229.7,192.7c0.3,0,0.8-0.1,1.4-0.2c0.3-0.1,0.6-0.1,0.7-0.1c0,0.2,0,0.4-0.1,0.7
		c-1.5,0.2-2.5,0.3-2.9,0.5l-0.2-0.7c0.3-0.2,0.9-0.9,1.7-2.1c-0.1,0-0.1,0-0.2,0c-0.8,0.1-1.3,0.1-1.5,0.2l-0.2-0.7
		c0.5-0.4,1.1-1.5,1.8-3.3l0.8,0.3c-0.7,1.3-1.3,2.2-1.7,2.8c0.1,0,0.4,0,0.7,0c0.3-0.1,0.5-0.1,0.7-0.1c0.2-0.4,0.5-0.9,0.8-1.4
		l0.7,0.4C231.6,190.1,230.8,191.3,229.7,192.7z M231.4,196.3v-0.7h1.2v-7.9h4.8v7.9h0.9v0.7H231.4z M233.4,188.3v2h3.3v-2H233.4z
		 M233.4,190.9v2h3.3v-2H233.4z M233.4,193.6v1.9h3.3v-1.9H233.4z"/>
</g>
<g>
	<defs>
		<rect id="SVGID_1_" x="333.9" y="6.7" width="147.7" height="73.2"/>
	</defs>
	<clipPath id="SVGID_2_">
		<use xlink:href="#SVGID_1_"  style="overflow:visible;"/>
	</clipPath>
	<g style="clip-path:url(#SVGID_2_);">
		<path style="fill:#FD4B00;" d="M479.3-51c-11.4,2-20.6,5.8-20.6,5.8s-2.4,0.9-6.2,2.2c6.3,4.5,12,8.4,15.1,9.6
			c30.9,12.1,62.4,3,64.5,23.9c0.1-0.8,0.2-1.6,0.2-2.4c0.1-7.6-4.9-18-16.3-26.1C507.6-43.9,495.2-49,479.3-51"/>
		<path style="fill:#FD4B00;" d="M442-50.4c-1.7,0.2-3.3,0.5-5,0.8c0,0-14.4,3-29.8,11.9c3.3,1,7,1.4,10.9,1.4c4,0,8.2-0.4,12.4-1.1
			c8.6-1.4,16.8-3.8,22.1-5.6C449.1-45.4,445.5-48,442-50.4"/>
		<path style="fill:#FF6600;" d="M463.4-52c-6.7,0-13.9,0.5-21.5,1.6c3.6,2.4,7.2,5,10.6,7.4c3.8-1.3,6.2-2.2,6.2-2.2
			S468-49,479.3-51C474.4-51.6,469.1-52,463.4-52"/>
		<path style="fill:#FDBC52;" d="M380.5-45.4c-2.2,0-4.3,0.2-6.3,0.5c-13.4,2.2-21.1,10.6-21.1,10.6c-9.7,11.7-11.1,19.9-10.9,30.5
			c0.3,15.8,10,30.3,25.2,30.3c1.3,0,2.7-0.1,4.1-0.3l0.1,0l0.2,0c0.1,0,0.2,0,0.4-0.1c-3.1-15.2,3.5-28.5,7.1-37.5
			c-2.4-6.3-3.3-12.6-2.4-18.8c0.8-5.5,3.1-10.6,6.4-15.1C382.3-45.4,381.4-45.4,380.5-45.4 M492.1-52.2c-3.8,0-7.7,0.4-11.4,1
			c-0.5,0.1-0.9,0.2-1.4,0.2c15.9,2.1,28.3,7.1,36.8,13.1c11.4,8.1,16.4,18.5,16.3,26.1c0,0.8-0.1,1.6-0.2,2.4
			c0.2,2.1,0.1,4.6-0.3,7.4c-6.3,25.2-37.4,42.4-69.9,42.4c-4.4,0-8.8-0.3-13.1-0.9c-0.9-0.1-1.9,0.7-2.9,0.5
			c-7.7,3.8-16.1,8.8-24.7,12.7c0.2,0.2,0.4,0.3,0.5,0.5c8.7,7.3,20.9,12.5,37.3,12.5c4.4,0,9-0.4,14-1.2c0.1,0,0.2,0,0.4-0.1
			C506.4,59,535,31.4,534.5-2.5c-0.4-29.7-13.7-41.8-28.3-47.4C501.9-51.6,497.1-52.2,492.1-52.2"/>
		<path style="fill:#FF9B48;" d="M532.2-9.4c-1.3,8.5-9.1,18.3-28.3,18.3c-1.2,0-2.5,0-3.8-0.1c-1.8-0.1-3.6-0.2-5.2-0.2
			c-11.5,0-22,4.4-32.5,15.7c-3.1,2.9-9.2,9.5-17.3,15.7c1,0.2,2.9,0.3,3.9,0.5c4.3,0.6,8.7,0.9,13.1,0.9C494.6,41.4,528,24.6,532-2
			C532.4-4.8,532.5-7.3,532.2-9.4 M383.3-45.3c-3.3,4.4-5.6,9.6-6.4,15.1c-0.9,6.1,0,12.5,2.4,18.8c2.4-4,5.5-6.4,5.5-6.4
			c8-7.5,15-13.9,22.4-19.8c-1.5-0.4-2.8-1-4.1-1.6C395.8-43.2,389.1-44.9,383.3-45.3"/>
		<path style="fill:#FDBC52;" d="M415-61.2c-12.6,0-24.6,6.4-31.7,15.9c5.9,0.4,12.5,2.1,19.7,6c1.3,0.7,2.7,1.2,4.1,1.6
			c15.4-8.9,29.8-11.9,29.8-11.9c1.7-0.3,3.4-0.6,5-0.8c-6.8-4.6-13.3-8.6-17.6-9.6C421.3-60.8,418.1-61.2,415-61.2"/>
		<path style="fill:#FF6600;" d="M379.5,24.4c-2.3,0-4.7,1.2-7.4,1.6c2.2,6.9,6.9,13.8,15.7,20c8.1,5.7,16.1,7.9,23.7,7.9
			c3.4,0,6.6-0.4,9.8-1.2C406.4,36.8,397.7,23.2,379.5,24.4"/>
		<path style="fill:#FD4B00;" d="M379.3-11.5c-5,8.2-11.7,22.9-7.1,37.5c2.7-0.4,5.1-0.6,7.4-0.6c18.4,0,24.9,12.9,41.8,27.3
			c9.3-2.2,17.7-7.3,24.7-12.7C419,33.2,389.6,10.9,379.3-11.5"/>
		<path style="fill:#FF6600;" d="M452.6-43c-5.4,1.8-13.6,4.2-22.1,5.6c-4.1,0.7-8.3,1.1-12.4,1.1c-3.9,0-7.6-0.4-10.9-1.4
			c-8.2,4.8-16.6,11.2-23.4,19.8c0,0-2,2.4-4.5,6.4c9,23.8,38.9,46.3,66.8,51.5c8.1-6.2,14.2-12.8,17.3-15.7
			c11.6-10.9,20-14.7,31.5-14.7c1.7,0,3.4,0.1,5.2,0.2c1.3,0.1,2.6,0.1,3.8,0.1c19.2,0,27-10.9,28.3-19.3
			c-2.2-20.9-33.6-11.9-64.5-23.9C464.5-34.6,458.9-38.5,452.6-43"/>
		<path style="fill:#FDBC52;" d="M365.6,68.6c-0.3,0-0.5,0-0.8,0.1l-0.2,0c-2.1,0.5-3.4,2.6-3,4.8c0.4,2,2.1,3.3,4,3.3
			c0.3,0,0.5,0,0.8-0.1l0.2,0c2.1-0.5,3.4-2.6,3-4.8C369.2,69.9,367.5,68.6,365.6,68.6 M378.1,50.1c-0.1,0-0.2,0-0.2,0
			c-0.8,0-1.5,0.1-2.2,0.3c-4.1,1.1-7.2,4.7-7.1,9c0,4.9,4.1,8.8,9.2,8.8c0.1,0,0.2,0,0.2,0c0.8,0,1.5-0.1,2.2-0.3
			c4.1-1,7.2-4.7,7.1-9C387.3,54,383.2,50.1,378.1,50.1"/>
	</g>
</g>
</svg>
