<?xml version="1.0" encoding="utf-8"?>
<!-- Generator: Adobe Illustrator 17.1.0, SVG Export Plug-In . SVG Version: 6.00 Build 0)  -->
<!DOCTYPE svg PUBLIC "-//W3C//DTD SVG 1.1//EN" "http://www.w3.org/Graphics/SVG/1.1/DTD/svg11.dtd">
<svg version="1.1" id="图层_1" xmlns="http://www.w3.org/2000/svg" xmlns:xlink="http://www.w3.org/1999/xlink" x="0px" y="0px"
	 viewBox="0 0 482 304" style="enable-background:new 0 0 482 304;" xml:space="preserve">
<g id="矩形_3_15_">
	<g>
		<rect x="2.8" y="3.1" style="fill-rule:evenodd;clip-rule:evenodd;fill:#292726;" width="474.3" height="296.5"/>
	</g>
</g>
<g id="阿里妈妈_15_">
	<g>
		<path style="fill-rule:evenodd;clip-rule:evenodd;fill:#FF6600;" d="M420.7,261c1.5,0,3,0,4.5,0c0,2.2,0,4.5,0,6.6
			c0,0.1-0.2,0.3-0.3,0.3c-0.2,0-0.3,0-0.6,0v1.1c0.3,0,0.6,0,1,0c0.9,0,1.4-0.4,1.4-1.1c0-1.7,0-5.1,0-6.8h0.5v-1h-6.4V261z
			 M443.5,265.8c-0.4,0-1,0.4-1,1c1.3,0,3.4,0,4.8,0c0,0.3,0,0.5,0,0.9c0.5,0,0.3,0,0.8,0c0.3,0,0.7-0.2,0.7-0.7c0-1.1,0-2,0-3.1
			c-0.2,0-0.4,0-0.6,0c0-0.9,0-2.6,0-3.3c0-0.3-0.3-0.6-0.6-0.6h-4.7v1h3.6c0,0.9,0,1.9,0,2.8c-0.9,0-1,0-1.7,0
			c-0.1,0-0.2-0.1-0.2-0.2c0-0.5,0-1.2,0-1.8c0-0.1-0.1-0.3-0.4-0.3H443v2.5c0,0.5,0.4,0.9,0.9,0.9c0,0,1.8,0,3.4,0v0.9H443.5z
			 M424.5,266.1c0-1.2,0-2.8,0-4.4h-3.7v5.6c1.1,0,2.5,0,2.5,0C424.2,267.3,424.5,266.8,424.5,266.1z M422.9,266.3
			c-0.3,0-0.6,0-0.9,0v-3.5c0.4,0,0.9,0,1.3,0c0,1.1,0,2.3,0,3.2C423.3,266.1,423.1,266.3,422.9,266.3z M416.6,260.3
			c0,2,0,4.7,0,8.7h1.4c0-2.5,0-5.3,0-8c0.3,0,0.7,0,1,0c0,1.5,0,2.9,0,4.3c0,0.6-0.5,0.8-0.5,0.8v1.1c1,0,1.8-1,1.8-1.9
			c0-1.6,0-3.7,0-5.4c-1.2,0-2.2,0-3.4,0C416.5,260,416.6,260.3,416.6,260.3z M459.4,263.8c0-0.9,0-2.6,0-3.3c0-0.3-0.3-0.6-0.6-0.6
			h-4.7v1c1.2,0,2.4,0,3.6,0v2.8c-0.9,0-1,0-1.7,0c-0.1,0-0.2-0.1-0.2-0.2c0-0.5,0-1.2,0-1.8c0-0.1-0.1-0.3-0.4-0.3
			c-0.3,0-0.7,0-1.1,0v2.5c0,0.5,0.4,0.9,0.9,0.9c0,0,1.8,0,3.4,0v0.9h-3.7c-0.4,0-1.1,0.4-1.1,1c1.3,0,3.3,0,4.7,0v1
			c0,0.2-0.1,0.2-0.3,0.2h-0.5c0,0.5,0,0.7,0,1h0.8c0.3,0,0.2,0,0.5,0c0.7,0,1-0.5,1-0.9c0-1.3,0-3,0-4.3
			C459.8,263.8,459.6,263.8,459.4,263.8z M452.8,267.3c0.5-0.5,0.8-1.2,0.8-2.4c0-1.3,0-2.6,0-4c0-0.1-0.1-0.3-0.3-0.3
			c-0.5,0-1.2,0-1.8,0V260h-1.4c0,0.2,0,0.4,0,0.6c-0.1,0-0.3,0-0.5,0v1h0.5v3.2c0,1.2,0.4,1.9,0.9,2.4c-0.6,0.4-1.2,0.7-2.1,0.7
			c-0.1,0-0.2,0-0.4,0c-1.3,0-2.9,0-4.2,0c-1.3,0-2.5-0.2-3-0.8c0.4-0.6,0.7-1.1,0.8-2.3c0-1.2,0-2.3,0-3.9c0-0.2-0.2-0.3-0.3-0.3
			c-0.5,0-1.1,0-1.8,0V260c-0.6,0-0.8,0-1.3,0v0.6c-0.2,0-0.3,0-0.5,0v1c0.2,0,0.3,0,0.5,0c0,1.1,0,2.2,0,3.2c0.1,1.2,0.5,1.6,1,2.4
			c-0.7,0.5-1.5,0.7-2.5,0.7c-1.2,0-2.2,0-3.7,0c0-0.3,0-0.6,0-0.8h3.7v-1.1h-3.7c0-0.3,0-0.5,0-0.8c1.1,0,2.5,0,2.8,0
			c0,0,0.9,0,0.9-1c0-1,0-2.9,0-4.3c-2.9,0-5.9,0-8.9,0c-0.1,0-0.3,0.2-0.3,0.3c0,0.2,0,3.5,0,5c1.2,0,2.5,0,3.7,0v0.8h-3.7
			c0,0.3,0,0.7,0,1.1h3.7c0,0.3,0,0.5,0,0.8h-4.4c0,0.3,0,0.7,0,1c3.3,0,7.3,0,10.5,0c0.9,0,1.9-0.4,2.7-0.9c1,0.7,2,0.9,3.8,0.9
			c0.5,0,1.1,0,1.8,0c0.9,0,1.7,0,2.5,0c1.5,0,2.4-0.3,3.3-0.8c0.8,0.5,1.6,0.8,2.9,0.8v0h2v-1h-2
			C454.1,267.9,453.3,267.8,452.8,267.3z M431.8,264.3h-2.3v-1.1h2.3V264.3z M431.8,262.1h-2.3V261c0.8,0,1.5,0,2.3,0V262.1z
			 M433.6,261h2.3v1.1h-2.3V261z M433.6,263.2c0.8,0,1.5,0,2.3,0c0,0.4,0,0.8,0,1.1h-2.3C433.6,264,433.6,263.6,433.6,263.2z
			 M441,264.9c0,0.7-0.2,0.9-0.3,1.4c-0.2-0.4-0.4-0.6-0.5-1.4c0-0.9,0-2.2,0-3.2h0.8V264.9z M452.3,264.9c0,0.7-0.2,1-0.4,1.4
			c-0.2-0.4-0.4-0.7-0.4-1.4c0-1,0-2.2,0-3.2h0.8C452.3,262.7,452.3,263.9,452.3,264.9z"/>
	</g>
</g>
<g id="alimama.com_15_">
	<g>
		<path style="fill-rule:evenodd;clip-rule:evenodd;fill:#CBCBCB;" d="M419,271c-0.8,1.6-1.6,3.1-2.4,4.8h1.2
			c0.2-0.4,0.3-0.7,0.6-1.1c0.6,0,1.1,0,1.7,0c-0.1-0.4-0.2-0.6-0.3-0.9h-0.9c0.3-0.5,0.4-0.8,0.8-1.6c0.4,1.2,0.9,2.5,1.3,3.6h1.1
			c-0.6-1.7-1.1-3.1-1.7-4.8H419z M422.2,275.7h1l0.2-4.8l-1,0L422.2,275.7z M423.8,275.7h1.1l0.1-3.5h-1L423.8,275.7z M424,271
			l0,0.8c0,0,0.8,0,1,0l0-0.8C424.1,271,424.1,271,424,271z M430.5,272.2c-0.2-0.1-0.4-0.1-0.6-0.1c-0.1,0-0.2,0-0.3,0
			c-0.1,0-0.2,0.1-0.3,0.1c-0.1,0-0.2,0.1-0.2,0.1c-0.1,0.1-0.1,0.1-0.2,0.2c0,0.1-0.1,0.1-0.1,0.2c0-0.1-0.1-0.2-0.1-0.3
			c0-0.1-0.1-0.1-0.1-0.2c-0.1,0-0.1-0.1-0.2-0.1c-0.1,0-0.2-0.1-0.3-0.1c-0.1,0-0.2,0-0.3,0c-0.1,0-0.3,0-0.4,0.1
			c-0.1,0-0.2,0.1-0.3,0.1c-0.1,0.1-0.2,0.1-0.2,0.2c-0.1,0.1-0.1,0.2-0.2,0.3l0-0.6h-0.9l-0.2,3.5c0,0,0.8,0,1,0c0-0.3,0-0.7,0-1.2
			c0-0.5,0.1-0.9,0.1-1c0.1-0.2,0.1-0.3,0.3-0.4c0.1-0.1,0.3-0.2,0.4-0.2c0.1,0,0.2,0,0.2,0c0.1,0,0.1,0.1,0.2,0.1
			c0.1,0.1,0.1,0.1,0.1,0.2c0,0.1,0,0.2,0,0.3c0,0.2,0,0.6,0,1.1c0,0.6-0.1,0.9-0.1,1.1c0.2,0,0.8,0,1,0l0-1c0-0.3,0-0.6,0-0.8
			c0-0.2,0-0.4,0.1-0.5c0-0.1,0.1-0.2,0.2-0.3c0.1-0.1,0.2-0.2,0.2-0.2c0.1,0,0.2-0.1,0.3-0.1c0.1,0,0.2,0,0.3,0.1
			c0.1,0,0.1,0.1,0.2,0.2c0.1,0.1,0.1,0.2,0.1,0.4c0,0.1,0,0.3,0,0.5l0,0.8c0,0.3,0,0.6-0.1,0.9c0.2,0,0.8,0,1,0c0-0.3,0-0.6,0-1.1
			c0-0.5,0-0.8,0.1-1.1c0-0.2,0-0.4,0-0.5c0-0.2-0.1-0.4-0.2-0.5C430.9,272.4,430.7,272.3,430.5,272.2z M434.3,272.2
			c-0.2-0.1-0.5-0.1-0.7-0.1c-0.2,0-0.5,0-0.7,0c-0.2,0-0.8,0.2-0.8,0.2L432,273c0,0,1-0.3,1.4-0.3c0.1,0,0.2,0,0.3,0
			c0.1,0,0.2,0.1,0.2,0.1c0.1,0.1,0.1,0.1,0.1,0.2c0,0,0,0.1,0,0.1c0,0-0.1,0.1-0.1,0.1c0,0-0.1,0.1-0.1,0.1c-0.1,0-0.1,0.1-0.2,0.1
			c-0.1,0-0.2,0-0.3,0.1c-0.3,0.1-0.6,0.1-0.8,0.2c-0.2,0.1-0.4,0.1-0.5,0.2c-0.1,0.1-0.2,0.2-0.3,0.2c-0.1,0.1-0.1,0.2-0.2,0.3
			c0,0.1-0.1,0.2-0.1,0.3c0,0.2,0,0.3,0.1,0.5c0.1,0.2,0.2,0.3,0.4,0.4c0.2,0.1,0.4,0.1,0.7,0.1c0.1,0,0.2,0,0.3,0
			c0.1,0,0.2,0,0.4-0.1c0.1-0.3,0.1-0.5,0.2-0.6c-0.1,0-0.3,0.1-0.3,0.1c-0.1,0-0.2,0-0.2,0c-0.1,0-0.2,0-0.3,0
			c-0.1,0-0.2-0.1-0.2-0.1c-0.1-0.1-0.1-0.2-0.1-0.3c0-0.1,0-0.1,0-0.2c0-0.1,0.1-0.1,0.1-0.2c0,0,0.1-0.1,0.2-0.1
			c0.1,0,0.2-0.1,0.2-0.1c0.1,0,0.2-0.1,0.4-0.1c0.1,0,0.3-0.1,0.3-0.1c0.1,0,0.1,0,0.2-0.1c0,0,0.1-0.1,0.2-0.1l-0.1,1.8h1
			c0,0,0-1.1,0.1-1.7c0-0.5,0.1-0.9,0.1-1c0-0.2-0.1-0.4-0.2-0.6C434.7,272.4,434.5,272.3,434.3,272.2z M440.6,272.2
			c-0.2-0.1-0.4-0.1-0.6-0.1c-0.1,0-0.2,0-0.3,0c-0.1,0-0.2,0.1-0.3,0.1c-0.1,0-0.2,0.1-0.2,0.1c-0.1,0.1-0.1,0.1-0.2,0.2
			c0,0.1-0.1,0.1-0.1,0.2c0-0.1-0.1-0.2-0.1-0.3c0-0.1-0.1-0.1-0.1-0.2c-0.1,0-0.1-0.1-0.2-0.1c-0.1,0-0.2-0.1-0.3-0.1
			c-0.1,0-0.2,0-0.3,0c-0.1,0-0.3,0-0.4,0.1c-0.1,0-0.2,0.1-0.3,0.1c-0.1,0.1-0.2,0.1-0.2,0.2c-0.1,0.1-0.1,0.2-0.2,0.3l0-0.6h-0.9
			l-0.2,3.5h1c0,0,0-0.7,0-1.2c0-0.5,0.1-0.9,0.1-1c0.1-0.2,0.1-0.3,0.3-0.4c0.1-0.1,0.3-0.2,0.4-0.2c0.1,0,0.2,0,0.2,0
			c0.1,0,0.1,0.1,0.2,0.1c0,0.1,0.1,0.1,0.1,0.2c0,0.1,0,0.2,0,0.3c0,0.2,0,0.6,0,1.1c0,0.6-0.1,0.9-0.1,1.1c0.2,0,0.8,0,1,0l0-1
			c0-0.3,0-0.6,0-0.8c0-0.2,0-0.4,0.1-0.5c0-0.1,0.1-0.2,0.2-0.3c0.1-0.1,0.2-0.2,0.2-0.2c0.1,0,0.2-0.1,0.3-0.1
			c0.1,0,0.2,0,0.3,0.1c0.1,0,0.1,0.1,0.2,0.2c0.1,0.1,0.1,0.2,0.1,0.4c0,0.1,0,0.3,0,0.5l0,0.8c0,0.3,0,0.6-0.1,0.9
			c0.2,0,0.8,0,1,0c0-0.3,0-0.6,0-1.1c0-0.5,0-0.8,0.1-1.1c0-0.2,0-0.4,0-0.5c0-0.2-0.1-0.4-0.2-0.5
			C440.9,272.4,440.8,272.3,440.6,272.2z M444.4,272.2c-0.2-0.1-0.5-0.1-0.7-0.1c-0.2,0-0.5,0-0.7,0c-0.2,0-0.8,0.2-0.8,0.2L442,273
			c0,0,1-0.3,1.4-0.3c0.1,0,0.2,0,0.3,0c0.1,0,0.2,0.1,0.2,0.1c0.1,0.1,0.1,0.1,0.1,0.2c0,0,0,0.1,0,0.1c0,0-0.1,0.1-0.1,0.1
			c0,0-0.1,0.1-0.1,0.1c-0.1,0-0.1,0.1-0.2,0.1c-0.1,0-0.2,0-0.3,0.1c-0.3,0.1-0.6,0.1-0.8,0.2c-0.2,0.1-0.4,0.1-0.5,0.2
			c-0.1,0.1-0.2,0.2-0.3,0.2c-0.1,0.1-0.1,0.2-0.2,0.3c0,0.1-0.1,0.2-0.1,0.3c0,0.2,0,0.3,0.1,0.5c0.1,0.2,0.2,0.3,0.4,0.4
			c0.2,0.1,0.4,0.1,0.7,0.1c0.1,0,0.2,0,0.3,0c0.1,0,0.2,0,0.4-0.1c0.1-0.3,0.1-0.5,0.2-0.6c-0.1,0-0.3,0.1-0.3,0.1
			c-0.1,0-0.2,0-0.2,0c-0.1,0-0.2,0-0.3,0c-0.1,0-0.2-0.1-0.2-0.1c-0.1-0.1-0.1-0.2-0.1-0.3c0-0.1,0-0.1,0-0.2
			c0-0.1,0.1-0.1,0.1-0.2c0,0,0.1-0.1,0.2-0.1c0.1,0,0.2-0.1,0.2-0.1c0.1,0,0.2-0.1,0.4-0.1c0.1,0,0.2-0.1,0.3-0.1
			c0.1,0,0.1,0,0.2-0.1c0,0,0.1-0.1,0.2-0.1l-0.1,1.8h1c0,0,0-1.1,0.1-1.7c0-0.5,0.1-0.9,0.1-1c0-0.2-0.1-0.4-0.2-0.6
			C444.7,272.4,444.6,272.3,444.4,272.2z M445.5,274.8c0,0.5,0,0.8,0,0.9c0.3,0,1,0,1,0s0-0.8,0-0.9
			C446.2,274.8,445.5,274.8,445.5,274.8z M448.1,273.2c0.1-0.1,0.2-0.2,0.4-0.3c0.1-0.1,0.3-0.1,0.5-0.1c0.3,0,0.6,0.1,0.9,0.2
			l-0.1-0.8c-0.2-0.1-0.4-0.1-0.6-0.1c-0.2,0-0.3,0-0.5,0c-0.3,0-0.5,0-0.7,0.1c-0.2,0.1-0.4,0.2-0.6,0.3c-0.2,0.2-0.3,0.4-0.4,0.7
			c-0.1,0.3-0.1,0.6-0.1,0.8c0,0.2,0,0.4,0.1,0.6c0.1,0.2,0.1,0.4,0.3,0.5c0.1,0.1,0.2,0.3,0.4,0.4c0.2,0.1,0.3,0.2,0.5,0.2
			c0.2,0,0.4,0.1,0.5,0.1c0.3,0,0.7,0,1-0.1c0-0.2,0.1-0.3,0.1-0.4c0-0.1,0-0.2,0.1-0.3c-0.2,0.1-0.3,0.1-0.5,0.1
			c-0.2,0-0.3,0-0.4,0c-0.2,0-0.4,0-0.6-0.1c-0.2-0.1-0.3-0.2-0.4-0.4c-0.1-0.2-0.1-0.4-0.1-0.6c0-0.2,0-0.3,0.1-0.5
			C447.9,273.4,448,273.3,448.1,273.2z M453.4,272.6c-0.2-0.2-0.4-0.3-0.6-0.4c-0.2-0.1-0.5-0.1-0.8-0.1c-0.3,0-0.6,0.1-0.8,0.1
			c-0.3,0.1-0.5,0.2-0.7,0.4c-0.2,0.2-0.3,0.4-0.4,0.6c-0.1,0.2-0.1,0.5-0.1,0.7c0,0.3,0,0.5,0.1,0.7c0.1,0.2,0.2,0.4,0.4,0.6
			c0.2,0.2,0.4,0.3,0.6,0.4c0.2,0.1,0.5,0.1,0.8,0.1c0.3,0,0.6,0,0.8-0.1c0.3-0.1,0.5-0.2,0.6-0.4c0.2-0.2,0.3-0.4,0.4-0.6
			c0.1-0.2,0.1-0.5,0.1-0.8c0-0.3,0-0.5-0.1-0.7C453.7,272.9,453.6,272.8,453.4,272.6z M452.8,274.5c-0.1,0.2-0.2,0.3-0.3,0.4
			c-0.2,0.1-0.3,0.2-0.5,0.2c-0.2,0-0.4,0-0.5-0.1c-0.1-0.1-0.3-0.2-0.3-0.4c-0.1-0.2-0.1-0.3-0.1-0.5c0-0.2,0-0.4,0.1-0.6
			c0.1-0.2,0.2-0.3,0.4-0.4c0.2-0.1,0.3-0.1,0.5-0.1c0.2,0,0.4,0,0.5,0.1c0.1,0.1,0.2,0.2,0.3,0.4c0.1,0.2,0.1,0.3,0.1,0.5
			C453,274.1,452.9,274.3,452.8,274.5z M459.7,272.5c-0.1-0.1-0.2-0.2-0.4-0.3c-0.2-0.1-0.4-0.1-0.6-0.1c-0.1,0-0.2,0-0.3,0
			c-0.1,0-0.2,0.1-0.3,0.1c-0.1,0-0.2,0.1-0.2,0.1c-0.1,0.1-0.1,0.1-0.2,0.2c0,0.1-0.1,0.1-0.1,0.2c0-0.1-0.1-0.2-0.1-0.3
			c0-0.1-0.1-0.1-0.1-0.2c-0.1,0-0.1-0.1-0.2-0.1c-0.1,0-0.2-0.1-0.3-0.1c-0.1,0-0.2,0-0.3,0c-0.1,0-0.3,0-0.4,0.1
			c-0.1,0-0.2,0.1-0.3,0.1c-0.1,0.1-0.2,0.1-0.2,0.2c-0.1,0.1-0.1,0.2-0.2,0.3l0-0.6c-0.2,0-0.7,0-0.9,0c0,0.4-0.1,3.1-0.2,3.5
			c0.2,0,0.8,0,1,0c0-0.3,0-0.7,0-1.2c0-0.5,0.1-0.9,0.1-1c0.1-0.2,0.1-0.3,0.3-0.4c0.1-0.1,0.3-0.2,0.4-0.2c0.1,0,0.2,0,0.2,0
			c0.1,0,0.1,0.1,0.2,0.1c0.1,0.1,0.1,0.1,0.1,0.2c0,0.1,0,0.2,0,0.3c0,0.2,0,0.6,0,1.1c0,0.6-0.1,0.9-0.1,1.1c0.2,0,0.8,0,1,0l0-1
			c0-0.3,0-0.6,0-0.8c0-0.2,0-0.4,0.1-0.5c0-0.1,0.1-0.2,0.2-0.3c0.1-0.1,0.2-0.2,0.2-0.2c0.1,0,0.2-0.1,0.3-0.1
			c0.1,0,0.2,0,0.3,0.1c0.1,0,0.1,0.1,0.2,0.2c0.1,0.1,0.1,0.2,0.1,0.4c0,0.1,0,0.3,0,0.5l0,0.8c0,0.3,0,0.6-0.1,0.9
			c0.2,0,0.8,0,1,0c0-0.3,0-0.6,0-1.1c0-0.5,0-0.8,0.1-1.1c0-0.2,0-0.4,0-0.5C459.9,272.9,459.8,272.7,459.7,272.5z"/>
	</g>
</g>
<g>
	<path style="fill:#FF6600;" d="M63,96.6c1.2,1.4,1.7,3,1.7,4.7c0.1,2.5-0.9,4-3.1,4.3c-0.6,0.1-1.1,0.2-1.3,0.2l-0.6-1.9v5.2h-3.3
		V87.6h8V91L63,96.6z M59.8,91v11.1c0.2,0,0.4,0,0.6,0c0.8-0.1,1.1-0.6,1-1.8c-0.1-0.9-0.6-2.1-1.5-3.5c0.6-2.7,1-4.7,1.2-5.8H59.8z
		 M65,91.4V88H78v3.4h-1.2v13.2c0.1,2.8-1.1,4.2-3.6,4.3c-1.2,0.1-2.7,0.1-4.4,0.1c-0.2-1.2-0.5-2.4-0.6-3.5
		c0.7,0.1,1.7,0.1,3.1,0.1c1.4,0.1,2.1-0.5,1.9-1.9V91.4H65z M65.1,93h7v11h-7V93z M69.3,96.1H68v4.8h1.3V96.1z"/>
	<path style="fill:#FF6600;" d="M80.8,99.9V87.7h19.3v12.1h-7.8v1.3h8.1v3h-8.1v1.3h9.1v3h-22v-3h9.2v-1.3h-8.1v-3h8.1v-1.3H80.8z
		 M84.6,90.8v1.6h4v-1.6H84.6z M84.6,96.8h4v-1.6h-4V96.8z M96.3,90.8h-4v1.6h4V90.8z M92.3,96.8h4v-1.6h-4V96.8z"/>
	<path style="fill:#FF6600;" d="M102.9,90.8h1.8c0.1-0.4,0.2-1.1,0.3-1.9c0.1-0.9,0.1-1.5,0.2-1.9l3.4,0.3c-0.2,1.3-0.4,2.5-0.6,3.6
		h3.9c-0.1,5.6-0.6,9.5-1.8,12c1.2,1.2,2.2,2.2,3.1,3l-2.4,2.6c-0.9-0.9-1.7-1.7-2.4-2.4c-0.9,1-2.1,2.1-3.4,3.4
		c-0.7-0.9-1.5-1.8-2.3-2.7c1.4-1,2.5-2.1,3.3-3.2c-0.2-0.3-0.7-0.8-1.4-1.4c-0.6-0.7-1.1-1.2-1.5-1.6c0.4-2,0.8-4.1,1.2-6.3h-1.4
		V90.8z M106.6,99.4c0.1,0.1,0.3,0.3,0.6,0.5c0.2,0.2,0.4,0.4,0.6,0.6c0.5-1.4,0.8-3.5,1-6.3h-1.2c-0.1,0.9-0.3,2.1-0.6,3.7
		C106.7,98.6,106.6,99.1,106.6,99.4z M111.9,101.1h8.2v3.2h-8.2V101.1z M112.4,87.8h11.2l-0.8,8.5h2c-0.1,1.1-0.2,2.9-0.3,5.5
		c-0.1,1.5-0.1,2.5-0.1,3.1c0.1,2.8-1.3,4.1-4.4,3.9c-0.7,0.1-1.9,0.1-3.6,0.1c-0.1-0.2-0.1-0.5-0.2-0.8c-0.1-0.5-0.2-1.3-0.5-2.5
		c1.2,0,2.4,0,3.6,0c1,0.1,1.5-0.3,1.5-1.1c0-0.7,0-1.9,0.1-3.8c0.1-0.4,0.1-0.8,0.1-1h-8.6l0.8-7.9h3.6l-0.6,4.5h2.8l0.6-5.3h-7.3
		V87.8z"/>
	<path style="fill:#FF6600;" d="M126.7,90.8h1.8c0.1-0.4,0.2-1.1,0.3-1.9c0.1-0.9,0.1-1.5,0.2-1.9l3.4,0.3c-0.2,1.3-0.4,2.5-0.6,3.6
		h3.9c-0.1,5.6-0.6,9.5-1.8,12c1.2,1.2,2.2,2.2,3.1,3l-2.4,2.6c-0.9-0.9-1.7-1.7-2.4-2.4c-0.9,1-2.1,2.1-3.4,3.4
		c-0.7-0.9-1.5-1.8-2.3-2.7c1.4-1,2.5-2.1,3.3-3.2c-0.2-0.3-0.7-0.8-1.4-1.4c-0.6-0.7-1.1-1.2-1.5-1.6c0.4-2,0.8-4.1,1.2-6.3h-1.4
		V90.8z M130.3,99.4c0.1,0.1,0.3,0.3,0.6,0.5c0.2,0.2,0.4,0.4,0.6,0.6c0.5-1.4,0.8-3.5,1-6.3h-1.2c-0.1,0.9-0.3,2.1-0.6,3.7
		C130.4,98.6,130.3,99.1,130.3,99.4z M135.6,101.1h8.2v3.2h-8.2V101.1z M136.1,87.8h11.2l-0.8,8.5h2c-0.1,1.1-0.2,2.9-0.3,5.5
		c-0.1,1.5-0.1,2.5-0.1,3.1c0.1,2.8-1.3,4.1-4.4,3.9c-0.7,0.1-1.9,0.1-3.6,0.1c-0.1-0.2-0.1-0.5-0.2-0.8c-0.1-0.5-0.2-1.3-0.5-2.5
		c1.2,0,2.4,0,3.6,0c1,0.1,1.5-0.3,1.5-1.1c0-0.7,0-1.9,0.1-3.8c0.1-0.4,0.1-0.8,0.1-1h-8.6l0.8-7.9h3.6l-0.6,4.5h2.8l0.6-5.3h-7.3
		V87.8z"/>
	<path style="fill:#FF6600;" d="M151.2,108.9V98.3h9.5v10.7h-3.3v-1h-2.9v1H151.2z M153.1,88h17v8.8h-17V88z M154.5,101.3v3.6h2.9
		v-3.6H154.5z M157,93.6h9.2v-2.4H157V93.6z M162.2,108.9V98.3h9.7v10.6h-3.3v-0.9h-3v1H162.2z M165.7,101.3v3.6h3v-3.6H165.7z"/>
	<path style="fill:#FF6600;" d="M182.7,96.9h-4.6v1.4h4.1v10.5h-2.9v-7.3H178c-0.1,2.7-0.4,5.3-1.1,7.7c-0.2-0.1-0.5-0.3-0.8-0.6
		c-0.6-0.4-1.2-0.8-2-1.4c0.4-1.3,0.6-2.5,0.6-3.6c0.1-1,0.2-2.8,0.2-5.2V87.8h3.2v6h1v-6.6h2.8v6.6h0.8V96.9z M182.6,105.7v-3.1
		h1.7c-0.4-0.4-0.8-0.8-1.2-1.2c1.1-0.5,2-1,2.7-1.6h-2.5V88.6h3.3c0.2-0.6,0.3-1.2,0.4-1.9l3.8,0.2c-0.1,0.6-0.3,1.2-0.6,1.7h5.6
		v11.1h-6.3c-0.7,0.9-1.7,1.9-3,2.8h2.5v-2h3.5v2h4v3.1h-4v3.2H189v-3.2H182.6z M186.2,91.4V93h1.9v-1.6H186.2z M187.7,97
		c0.1-0.5,0.2-1,0.3-1.6h-1.8V97H187.7z M192.8,97v-1.6h-1.9c0,0.6-0.1,1.1-0.3,1.6H192.8z M192.8,91.4H191V93h1.8V91.4z"/>
	<path style="fill:#FF6600;" d="M201,91h-2.8v-3.1h6.8v3.2l-2.8,3.5h2.9c0.1,4-0.5,7.1-1.6,9.3c1,0.9,2.5,1.4,4.4,1.5
		c0.4,0.1,1,0.1,1.9,0.1v-1h-4.8v-2.6h4.8v-0.7h-4.2v-2.6h4.2v-0.8h-4.1v-2.5h4.1v-0.9h-4.8v-2.6h4.8v-0.8h-3.9v-2.6h3.9v-1.4h3.5
		v1.4h5.5v3.4h1.7v2.6h-1.7v3.4h-5.5v0.8h5.7v2.6h-5.7v0.7h6.3v2.6h-6.3v1c3.5,0,5.9,0,7.1,0c-0.1,0.3-0.2,0.7-0.5,1.3
		c-0.2,0.9-0.4,1.5-0.5,1.8c-4.4,0-7.8,0-10.4-0.1c-3.5,0-5.8-0.6-7.1-1.9c-0.1,0.1-0.3,0.3-0.5,0.6c-0.8,0.9-1.5,1.6-2,2.1
		c-0.2-0.6-0.7-1.5-1.4-2.7c-0.1-0.2-0.2-0.4-0.3-0.5c0.7-0.6,1.4-1.3,1.9-2c-0.7-1.1-1.3-2.4-1.8-3.8l2.1-2.4h-1.8v-3.2L201,91z
		 M199.9,97.7c0.5,1.5,0.9,2.5,1.2,3.1c0.4-1,0.6-2.1,0.6-3.1H199.9z M215.3,90.8h-2.1v0.8h2.1V90.8z M213.2,95.1h2.1v-0.9h-2.1
		V95.1z"/>
	<path style="fill:#FF6600;" d="M228.7,100.1c0.3,1.2,0.6,2.4,1,3.5c-0.6,0.4-1.3,1.1-2.3,2.1c-0.5,0.4-0.9,0.7-1.1,0.9
		c-0.2,0.2-0.5,0.5-0.8,0.8c-0.3,0.4-0.6,0.7-0.7,0.9l-2.2-2.7c0.6-0.8,0.9-1.7,0.9-2.6v-5.7h-2V94h5.7v7.7c0.2-0.2,0.5-0.5,0.9-0.9
		C228.3,100.5,228.6,100.3,228.7,100.1z M225.6,86.8c0.1,0.1,0.2,0.3,0.4,0.5c1.2,1.5,2.1,2.8,2.7,3.8l-3.4,2
		c-0.6-1-1.5-2.5-2.9-4.5L225.6,86.8z M242.8,96v3.5c-1.1,1.9-2.4,3.5-4,4.9c1.5,0.6,3.2,1,5.1,1.4c-0.7,1.2-1.3,2.3-1.8,3.2
		c-2.7-0.7-4.9-1.6-6.6-2.5c-1.7,1-3.9,1.9-6.4,2.6c-0.1-0.2-0.3-0.6-0.6-1c-0.2-0.4-0.7-1.1-1.3-2c2-0.5,3.7-1.1,5.1-1.8
		c-1.1-0.9-2-2.1-3-3.5l2.1-1.5h-2.7V96H242.8z M242.3,91.9h1.9c-0.2,1.1-0.5,2.2-0.6,3.2c-0.4,0.1-1.3,0.1-2.9,0.1
		c-2-0.1-3-0.9-3-2.5v-1.8h-3.5c0,2-1.3,3.7-3.8,5c-0.4-0.4-1.2-1.3-2.5-2.6c1.9-0.9,2.8-2,2.8-3.5c0-0.6,0-1.3,0-2.1h10.7V91
		C241.2,91.6,241.5,91.9,242.3,91.9z M232.6,99.3c0.9,1.3,1.9,2.3,3.1,3.2c0.9-0.6,1.9-1.7,3.1-3.2H232.6z"/>
	<path style="fill:#FF6600;" d="M245.6,91.4V88h7v3.4h-1.9v4.3h1.8V99h-1.8v4.4c0.8-0.1,1.6-0.2,2.3-0.4c0,0.9,0,1.7,0,2.4
		c3.4-2.1,5.1-5.2,5-9.3c0-0.6,0-1.5,0.1-2.8c0-0.6,0-1,0-1.2h3.6c0,0.9-0.1,2.1-0.2,3.7c0,1.5-0.2,2.8-0.5,4.1h1.5v4.8
		c0,0.7,0.2,1.1,0.7,1c0.5,0.1,0.8-0.3,0.8-1c0.1-0.4,0.2-1,0.3-1.8c0.1-0.4,0.1-0.7,0.1-0.8c1.5,0.6,2.6,0.9,3.2,1.1
		c-0.1,0.2-0.1,0.5-0.2,0.8c-0.1,0.4-0.2,1.1-0.5,2.3c-0.2,1.5-1.2,2.3-3,2.3h-1.9c-2,0-3-1-3-3v-1.7c-0.9,1.5-2.6,3.2-5.3,5.1
		c-0.6-0.7-1.3-1.6-2.2-2.7c-0.6,0.1-1.6,0.3-3,0.6c-1.4,0.2-2.4,0.4-3.1,0.6l-0.6-3.6c0.4,0,1.1-0.1,1.9-0.2
		c-0.6,0.1-0.5,0.1,0.2,0V99h-1.6v-3.3h1.6v-4.3H245.6z M253.2,101.6v-14h13.3v13.8h-3.6V91.1h-6.2v10.6H253.2z"/>
	<path style="fill:#FF6600;" d="M277.7,97v-3.5h4.2c0.1-2.5,0.1-4.6,0.1-6.5h3.8c0,1.2-0.1,3.4-0.2,6.5h5.4V97h-5.1
		c0.7,3.6,2.6,6.5,5.7,8.7c-1.1,1.2-1.9,2.3-2.4,3.2c-2.7-2-4.4-4.4-5.3-7.2c-0.6,2.3-2.3,4.8-5,7.4c-0.6-0.8-1.1-1.6-1.8-2.5v2.5
		h-3.6v-6.2c-0.5,0.4-1.3,1-2.4,1.9c-0.7,0.6-1.3,1-1.6,1.2l-0.7-4.5c1.1-0.6,2.7-1.7,4.7-3.2v-1.6l-2.8,0.8c-0.7-2.7-1.3-5-1.9-6.9
		l3-0.9c0.1,0.5,0.3,1.2,0.6,2c0.6,1.9,1,3.3,1.2,4.3V87h3.6v18.3c2.5-2.2,4-5,4.4-8.2H277.7z M288.4,87.7c0.3,0.4,0.7,0.8,1.1,1.4
		c0.6,0.7,1.1,1.3,1.4,1.8l-2.7,1.9c-0.6-1-1.4-2.1-2.4-3.4L288.4,87.7z"/>
	<path style="fill:#FF6600;" d="M55.4,139.4c4.1-3.6,6.1-9.6,5.9-18h-4.5v-1.3H73v1.5l-2.5,4.8h4.5v1.3c-1.4,3.4-3.1,6.1-5.1,8
		c1.6,1.4,4.2,2.5,7.8,3.4c-0.2,0.2-0.4,0.6-0.6,1c-0.1,0.1-0.1,0.2-0.2,0.3c-3.5-1.2-6.2-2.5-8-3.9c-1.7,1.4-4.3,2.8-7.8,4.3
		c-0.1-0.1-0.2-0.3-0.4-0.6c-0.2-0.2-0.3-0.5-0.5-0.6c3.3-1.1,5.9-2.4,7.6-3.8c-2.2-2.1-4.1-5.2-5.6-9.2c-0.4,5.7-2.4,10.3-5.8,13.9
		C56.3,140.2,56,139.8,55.4,139.4z M69.1,126.5l2.6-5h-9c0,0.3,0,0.7-0.1,1.3c0,0.6,0,1-0.1,1.3c1.8,4.9,3.9,8.5,6.4,10.7
		c1.9-1.7,3.4-4,4.6-7h-4.4V126.5z"/>
	<path style="fill:#FF6600;" d="M79.8,125.2c0.3-0.8,0.6-1.5,1.1-2.1c0.5-0.6,1.1-1.1,1.9-1.4c0.8-0.3,1.6-0.5,2.6-0.5
		c0.8,0,1.5,0.1,2.2,0.4c0.7,0.2,1.3,0.6,1.8,1s0.9,1,1.2,1.6c0.3,0.6,0.5,1.4,0.5,2.2c0,0.8-0.1,1.6-0.4,2.2
		c-0.3,0.6-0.6,1.1-1.1,1.6c-0.4,0.5-0.9,0.9-1.5,1.3c-0.6,0.4-1.1,0.8-1.7,1.1c-0.6,0.4-1.1,0.8-1.7,1.2c-0.5,0.4-1,0.9-1.4,1.5
		h7.9v2.9H79.1c0-1,0.1-1.8,0.4-2.5c0.3-0.7,0.7-1.3,1.1-1.9c0.5-0.6,1-1.1,1.7-1.6c0.6-0.5,1.3-1,2-1.4c0.4-0.3,0.8-0.5,1.2-0.8
		s0.8-0.5,1.1-0.9c0.3-0.3,0.6-0.7,0.9-1.1c0.2-0.4,0.3-0.8,0.3-1.4c0-0.8-0.2-1.4-0.7-1.9c-0.5-0.5-1.1-0.7-1.8-0.7
		c-0.5,0-0.9,0.1-1.2,0.3c-0.3,0.2-0.6,0.5-0.8,0.9c-0.2,0.4-0.4,0.8-0.4,1.2c-0.1,0.5-0.1,0.9-0.1,1.3h-3.2
		C79.4,126.9,79.5,126,79.8,125.2z"/>
	<path style="fill:#FF6600;" d="M92.7,125.6c0.3-1.1,0.8-2,1.3-2.6c0.6-0.7,1.2-1.1,1.9-1.4c0.7-0.3,1.5-0.4,2.3-0.4
		c0.8,0,1.6,0.1,2.4,0.4c0.7,0.3,1.4,0.8,1.9,1.4c0.6,0.7,1,1.5,1.3,2.6c0.3,1.1,0.5,2.5,0.5,4.1c0,1.7-0.2,3-0.5,4.2
		c-0.3,1.1-0.8,2-1.3,2.7c-0.6,0.7-1.2,1.1-1.9,1.4c-0.7,0.3-1.5,0.4-2.4,0.4c-0.8,0-1.6-0.1-2.3-0.4c-0.7-0.3-1.4-0.8-1.9-1.4
		c-0.6-0.7-1-1.6-1.3-2.7c-0.3-1.1-0.5-2.5-0.5-4.2C92.3,128.1,92.4,126.7,92.7,125.6z M95.7,131.4c0,0.7,0.1,1.3,0.3,1.9
		c0.2,0.6,0.4,1.2,0.8,1.6c0.4,0.4,0.9,0.7,1.6,0.7c0.7,0,1.2-0.2,1.6-0.7c0.4-0.4,0.6-1,0.8-1.6c0.2-0.6,0.3-1.3,0.3-1.9
		c0-0.7,0-1.2,0-1.7c0-0.3,0-0.6,0-1s0-0.8-0.1-1.2c-0.1-0.4-0.1-0.8-0.2-1.3s-0.3-0.8-0.5-1.1c-0.2-0.3-0.5-0.6-0.8-0.8
		c-0.3-0.2-0.7-0.3-1.2-0.3c-0.5,0-0.8,0.1-1.2,0.3c-0.3,0.2-0.6,0.5-0.8,0.8c-0.2,0.3-0.4,0.7-0.5,1.1c-0.1,0.4-0.2,0.8-0.2,1.3
		c0,0.4-0.1,0.8-0.1,1.2c0,0.4,0,0.7,0,1C95.6,130.2,95.6,130.7,95.7,131.4z"/>
	<path style="fill:#FF6600;" d="M110.9,138.1v-10.8h-4.2v-2.5c0.6,0,1.2,0,1.7-0.1c0.5-0.1,1-0.3,1.5-0.5s0.8-0.6,1.1-1
		c0.3-0.4,0.5-1,0.6-1.6h2.7v16.6H110.9z"/>
	<path style="fill:#FF6600;" d="M123.1,124.2l-0.7,3.8l0,0c0.5-0.5,0.9-0.8,1.5-1c0.5-0.2,1.1-0.3,1.8-0.3c0.8,0,1.5,0.2,2.2,0.5
		c0.6,0.3,1.2,0.7,1.6,1.2c0.4,0.5,0.8,1.1,1,1.8c0.2,0.7,0.3,1.4,0.3,2.2c0,0.9-0.2,1.6-0.5,2.4s-0.8,1.4-1.3,1.9
		c-0.6,0.5-1.2,1-2,1.2c-0.7,0.3-1.5,0.4-2.4,0.4c-0.8,0-1.6-0.1-2.3-0.3c-0.7-0.2-1.4-0.5-2-1s-1-1-1.4-1.6
		c-0.3-0.7-0.5-1.4-0.5-2.3h3.4c0.1,0.8,0.4,1.4,0.9,1.8c0.5,0.5,1.1,0.7,1.9,0.7c0.4,0,0.8-0.1,1.2-0.3c0.4-0.2,0.7-0.4,0.9-0.7
		s0.4-0.6,0.6-1c0.1-0.4,0.2-0.8,0.2-1.2c0-0.4-0.1-0.8-0.2-1.2c-0.1-0.4-0.3-0.7-0.6-1c-0.3-0.3-0.6-0.5-0.9-0.7
		c-0.3-0.2-0.8-0.2-1.2-0.2c-0.6,0-1.1,0.1-1.5,0.3c-0.4,0.2-0.7,0.5-1.1,1h-3l1.6-9.2h9.3v2.8H123.1z"/>
	<path style="fill:#FF6600;" d="M152.9,126.8v3.2h-6.1v3.1h7.5v3.4h-7.5v4.2H143v-4.2h-10.7v-3.4h3.1V128c-0.4,0.4-0.9,0.8-1.4,1.4
		c-0.2-0.3-0.4-0.7-0.6-1.3c-0.6-1-1-1.8-1.3-2.3c2.3-1.9,4-4.3,5.3-7.2l4.4,0.4c-0.4,0.6-0.7,1.3-1.1,1.9h13.2v3.3h-6.9v2.7H152.9z
		 M138.5,124.2c-0.6,0.9-1.3,1.8-2.1,2.7h6.7v-2.7H138.5z M138.9,130.1v3.1h4.1v-3.1H138.9z"/>
	<path style="fill:#FF6600;" d="M162.3,127.4v-3.5h3.7c0-0.7,0-1.7,0.1-3c0-1.1,0-1.9,0-2.3h3.7c0,1.1-0.1,2.7-0.2,5
		c0.1-1.7,0.1-1.6,0,0.3h3.9c-1.4-1.2-2.3-2.1-2.9-2.5l2.3-2.4c0.4,0.3,0.9,0.7,1.7,1.3c0.9,0.7,1.6,1.2,1.9,1.5l-1.9,2.1h2.9v3.5
		h-8c-0.2,5.3-2,9.8-5.5,13.5c-0.8-0.8-1.6-1.6-2.5-2.5v2.2h-3.6v-10.1c-0.2,0.2-0.5,0.6-0.8,1.2c-0.4,0.5-0.7,0.9-0.9,1.2
		c-0.2-1.9-0.4-3.6-0.6-5.2c1.9-2.7,3.3-5.7,4.4-9.3l3.8,1.1c-0.6,1.7-1.4,3.4-2.2,5v13.1c2.7-2.8,4.1-6.2,4.3-10.3H162.3z
		 M169.4,128.6h3.7v7.3c-0.1,0.6,0.1,0.8,0.6,0.7c0.4,0.1,0.7-0.2,0.7-0.8c0.2-1.2,0.3-2.5,0.4-3.8c0.2,0.1,0.6,0.2,1.2,0.4
		c1,0.4,1.7,0.6,2.1,0.8c-0.2,1.9-0.4,3.3-0.6,4.4c-0.3,1.7-1.4,2.6-3.3,2.5h-1.8c-2,0.1-3-1-3-3.1V128.6z"/>
	<path style="fill:#FF6600;" d="M185.8,140.6h-3.6v-10c-0.2,0.2-0.5,0.6-0.8,1.1c-0.5,0.7-0.9,1.2-1.2,1.6c-0.1-0.2-0.1-0.6-0.2-1.2
		c-0.1-0.8-0.4-2.1-0.7-3.9c2.1-2.7,3.8-5.9,5.1-9.7l3.8,1.4c-0.6,1.7-1.4,3.3-2.3,4.9v6.7c1.5-0.8,3-1.6,4.3-2.4v-10.3h4v7.5
		c1.9-1.5,3.6-3.1,5-4.8l2.9,2.9c-2.2,2.4-4.8,4.7-7.9,6.9v4.4c-0.1,0.8,0.3,1.2,1.2,1.1h0.7c1,0.1,1.6-0.4,1.7-1.4
		c0-0.1,0-0.4,0.1-0.7c0.1-1.2,0.2-2.1,0.3-2.8c1.7,0.6,3,1.1,3.9,1.4c0,0.2,0,0.4-0.1,0.7c-0.2,1.6-0.5,2.8-0.7,3.6
		c-0.2,1.9-1.7,2.7-4.4,2.6h-2.5c-2.9,0.2-4.3-1.1-4.1-4v-2.5c-0.4,0.3-1.1,0.7-1.9,1.1c-0.2,0.1-0.4,0.2-0.6,0.3
		c-0.7-1.2-1.3-2.3-1.9-3.1V140.6z"/>
	<path style="fill:#FF6600;" d="M206.3,122.6h-2.8v-3.1h6.8v3.2l-2.8,3.5h2.9c0.1,4-0.5,7.1-1.6,9.3c1,0.9,2.5,1.4,4.4,1.5
		c0.4,0.1,1,0.1,1.9,0.1v-1h-4.8v-2.6h4.8v-0.7h-4.2v-2.6h4.2v-0.8h-4.1v-2.5h4.1v-0.9h-4.8v-2.6h4.8v-0.8h-3.9v-2.6h3.9v-1.4h3.5
		v1.4h5.5v3.4h1.7v2.6H224v3.4h-5.5v0.8h5.7v2.6h-5.7v0.7h6.3v2.6h-6.3v1c3.5,0,5.9,0,7.1,0c-0.1,0.3-0.2,0.7-0.5,1.3
		c-0.2,0.9-0.4,1.5-0.5,1.8c-4.4,0-7.8,0-10.4-0.1c-3.5,0-5.8-0.6-7.1-1.9c-0.1,0.1-0.3,0.3-0.5,0.6c-0.8,0.9-1.5,1.6-2,2.1
		c-0.2-0.6-0.7-1.5-1.4-2.7c-0.1-0.2-0.2-0.4-0.3-0.5c0.7-0.6,1.4-1.3,1.9-2c-0.7-1.1-1.3-2.4-1.8-3.8l2.1-2.4h-1.8v-3.2
		L206.3,122.6z M205.2,129.3c0.5,1.5,0.9,2.5,1.2,3.1c0.4-1,0.6-2.1,0.6-3.1H205.2z M220.6,122.4h-2.1v0.8h2.1V122.4z M218.5,126.7
		h2.1v-0.9h-2.1V126.7z"/>
	<path style="fill:#FF6600;" d="M234.3,131.4c0.3,1.4,0.6,2.5,1,3.5c-1.4,1.3-2.6,2.4-3.6,3.2c-0.5,0.5-1,1-1.5,1.6l-2.2-2.5
		c0.6-0.7,0.9-1.5,0.9-2.5v-5.5h-2.1v-3.5h5.7v7.5c0.1-0.2,0.4-0.5,0.7-0.8C233.7,132,234.1,131.7,234.3,131.4z M230.6,118.6
		c0.5,0.7,1.2,1.8,2.2,3.2c0.3,0.4,0.6,0.8,0.7,1l-3.2,1.9c-0.8-1.5-1.7-3-2.8-4.5L230.6,118.6z M248.6,121.2
		c-1,5.7-2.6,9.9-4.8,12.6c1.1,1.1,3,2.2,5.6,3.4c-0.3,0.4-0.9,1.3-1.7,2.6c-0.2,0.4-0.4,0.6-0.5,0.7c-2.5-1.2-4.5-2.6-6.1-4
		c-1.6,1.4-3.7,2.8-6.3,4.3c-0.7-1.3-1.4-2.3-2.1-3.1c2.4-1.3,4.4-2.6,5.9-3.9c-2.2-2.8-3.8-6.8-4.8-12l3.5-0.8
		c0.9,4.6,2.2,8,3.9,10.1c1.8-2.2,3.1-5.7,3.9-10.6L248.6,121.2z M241.6,118.5c0.9,1.9,1.6,3.8,2.1,5.6l-3.5,1.1
		c-0.3-1-0.8-2.4-1.5-4.4c-0.2-0.6-0.3-1.1-0.5-1.4L241.6,118.5z"/>
</g>
<g>
	<path style="fill:#CCCCCC;" d="M56.5,205.9h1.3v-1.2h-1.5V204h1.9c0.3-0.6,0.5-1.2,0.7-1.8l0.7,0.2c-0.3,0.7-0.6,1.2-0.7,1.6h1v0.7
		h-1.5v1.2h1.3v0.7h-1.3v0.8c0,0.2,0,0.3,0,0.4h1.5v0.7h-1.5c-0.1,1.3-0.6,2.5-1.6,3.4c-0.2-0.2-0.4-0.4-0.6-0.5
		c0.9-0.7,1.4-1.6,1.5-2.9h-1.4v-0.7h1.5c0-0.1,0-0.3,0-0.4v-0.8h-1.3V205.9z M56.6,202.5l0.6-0.2c0.3,0.5,0.5,1,0.7,1.4l-0.6,0.3
		C57,203.4,56.8,202.9,56.6,202.5z M61.9,203.4H60v-0.7h2.6v7.7c0.1,0.9-0.4,1.3-1.3,1.3c-0.2,0-0.6,0-1,0c0,0,0-0.1,0-0.2
		c0-0.3-0.1-0.5-0.1-0.7c0.3,0,0.6,0,1,0c0.5,0,0.7-0.2,0.7-0.6v-2.1c-0.2,0.2-0.6,0.4-1,0.7c-0.5,0.3-0.8,0.6-1,0.7l-0.4-0.7
		c0.5-0.3,1.3-0.8,2.4-1.6V203.4z M60,204.7l0.7-0.2c0.2,0.5,0.4,1.2,0.7,2.1l-0.7,0.3C60.5,206.2,60.3,205.4,60,204.7z M64.9,203.4
		h-2.1v-0.7h2.8v7.7c0.1,0.9-0.4,1.3-1.3,1.3c-0.4,0-0.8,0-1,0c0-0.1-0.1-0.3-0.1-0.6c0,0.1,0,0,0-0.2c0.3,0,0.7,0,1.1,0
		c0.5,0.1,0.7-0.2,0.7-0.6v-2.2c-0.8,0.6-1.4,1-1.7,1.2l-0.4-0.7c0.7-0.4,1.4-0.9,2.1-1.4V203.4z M63.2,204.6l0.7-0.2
		c0,0.2,0.1,0.5,0.3,1c0.2,0.5,0.3,0.9,0.3,1.2l-0.7,0.2C63.6,205.9,63.4,205.2,63.2,204.6z"/>
	<path style="fill:#CCCCCC;" d="M69.3,207.9l0.7,0.5c-0.9,1.2-1.7,2.2-2.6,3c-0.2-0.2-0.4-0.3-0.6-0.5C67.7,210,68.5,209,69.3,207.9
		z M68.1,203c1.8,0,4.2-0.2,7.2-0.5l0.3,0.8c-2.5,0.2-4.7,0.3-6.7,0.4l-0.4,2.9h2.9v-2.3h0.8v2.3h3.9v0.7h-3.9v3.1
		c0.1,0.9-0.4,1.4-1.3,1.3c-0.6,0-1.1,0-1.3,0c-0.1-0.3-0.1-0.6-0.2-0.9c0.7,0.1,1.1,0.1,1.3,0.1c0.5,0,0.7-0.2,0.7-0.7v-3h-3.9
		L68.1,203z M74,207.9c0.9,0.9,1.8,1.9,2.6,2.9l-0.6,0.6c-0.7-0.9-1.6-1.9-2.6-3L74,207.9z"/>
</g>
<g>
	<path style="fill:#CCCCCC;" d="M83.7,202.7l-3.5,8.9h-0.9l3.5-8.9H83.7z"/>
	<path style="fill:#CCCCCC;" d="M87.5,204.7c0.1-0.4,0.3-0.7,0.5-0.9s0.5-0.5,0.9-0.6c0.3-0.1,0.7-0.2,1.2-0.2c0.4,0,0.7,0.1,1,0.2
		c0.3,0.1,0.6,0.3,0.8,0.5c0.2,0.2,0.4,0.5,0.6,0.8c0.1,0.3,0.2,0.6,0.2,1c0,0.4-0.1,0.7-0.2,1c-0.1,0.3-0.3,0.5-0.5,0.8
		s-0.4,0.4-0.7,0.6c-0.2,0.2-0.5,0.4-0.8,0.5c-0.3,0.2-0.5,0.3-0.8,0.5c-0.3,0.2-0.5,0.3-0.7,0.5c-0.2,0.2-0.4,0.4-0.6,0.6
		s-0.3,0.4-0.3,0.7h4.3v0.9h-5.5c0-0.5,0.1-0.9,0.3-1.3c0.1-0.4,0.3-0.7,0.5-0.9c0.2-0.3,0.5-0.5,0.7-0.7c0.3-0.2,0.5-0.4,0.8-0.6
		c0.4-0.2,0.7-0.4,0.9-0.6c0.3-0.2,0.5-0.4,0.7-0.6c0.2-0.2,0.3-0.4,0.4-0.6s0.1-0.5,0.1-0.8c0-0.2,0-0.4-0.1-0.6
		c-0.1-0.2-0.2-0.3-0.3-0.5c-0.1-0.1-0.3-0.2-0.5-0.3c-0.2-0.1-0.4-0.1-0.6-0.1c-0.3,0-0.5,0.1-0.8,0.2c-0.2,0.1-0.4,0.3-0.5,0.5
		c-0.1,0.2-0.2,0.4-0.3,0.7c-0.1,0.2-0.1,0.5-0.1,0.8h-1C87.3,205.5,87.4,205.1,87.5,204.7z"/>
	<path style="fill:#CCCCCC;" d="M93.9,206.2c0-0.3,0.1-0.7,0.1-1c0.1-0.3,0.2-0.6,0.3-0.9c0.1-0.3,0.3-0.5,0.5-0.7
		c0.2-0.2,0.5-0.4,0.8-0.5c0.3-0.1,0.7-0.2,1.1-0.2c0.4,0,0.8,0.1,1.1,0.2c0.3,0.1,0.6,0.3,0.8,0.5c0.2,0.2,0.4,0.5,0.5,0.7
		c0.1,0.3,0.2,0.6,0.3,0.9c0.1,0.3,0.1,0.6,0.1,1s0,0.7,0,1c0,0.3,0,0.6,0,1s-0.1,0.7-0.1,1c-0.1,0.3-0.2,0.6-0.3,0.9
		c-0.1,0.3-0.3,0.5-0.5,0.7c-0.2,0.2-0.5,0.4-0.8,0.5c-0.3,0.1-0.7,0.2-1.1,0.2c-0.4,0-0.8-0.1-1.1-0.2c-0.3-0.1-0.6-0.3-0.8-0.5
		c-0.2-0.2-0.4-0.5-0.5-0.7c-0.1-0.3-0.2-0.6-0.3-0.9c-0.1-0.3-0.1-0.6-0.1-1s0-0.7,0-1C93.9,206.9,93.9,206.6,93.9,206.2z
		 M95,208.2c0,0.4,0.1,0.8,0.2,1.1c0.1,0.3,0.3,0.6,0.5,0.9s0.6,0.4,1,0.4s0.8-0.1,1-0.4s0.4-0.5,0.5-0.9s0.2-0.7,0.2-1.1
		s0-0.7,0-1.1c0-0.2,0-0.4,0-0.7s0-0.5-0.1-0.7c0-0.2-0.1-0.5-0.2-0.7s-0.2-0.4-0.3-0.6c-0.1-0.2-0.3-0.3-0.5-0.4
		c-0.2-0.1-0.4-0.2-0.7-0.2c-0.3,0-0.5,0.1-0.7,0.2c-0.2,0.1-0.4,0.3-0.5,0.4s-0.2,0.4-0.3,0.6c-0.1,0.2-0.1,0.5-0.2,0.7
		c0,0.2-0.1,0.5-0.1,0.7s0,0.5,0,0.7C95,207.5,95,207.9,95,208.2z"/>
	<path style="fill:#CCCCCC;" d="M103.2,211.3v-6H101v-0.8c0.3,0,0.6,0,0.8-0.1c0.3,0,0.5-0.1,0.7-0.2s0.4-0.3,0.6-0.5
		c0.2-0.2,0.3-0.5,0.3-0.8h0.8v8.4H103.2z"/>
	<path style="fill:#CCCCCC;" d="M108.8,203.9l-0.5,2.4l0,0c0.2-0.2,0.4-0.4,0.7-0.5c0.3-0.1,0.6-0.1,0.9-0.1c0.4,0,0.7,0.1,1.1,0.2
		c0.3,0.1,0.6,0.3,0.9,0.5s0.4,0.5,0.6,0.9s0.2,0.8,0.2,1.3c0,0.4-0.1,0.7-0.2,1c-0.1,0.3-0.3,0.6-0.6,0.9s-0.6,0.5-0.9,0.6
		c-0.4,0.2-0.8,0.2-1.3,0.2c-0.4,0-0.7-0.1-1-0.2c-0.3-0.1-0.6-0.3-0.8-0.5c-0.2-0.2-0.4-0.5-0.6-0.8c-0.1-0.3-0.2-0.6-0.2-1h1
		c0,0.2,0.1,0.4,0.2,0.6s0.2,0.3,0.4,0.5c0.2,0.1,0.3,0.2,0.5,0.3c0.2,0.1,0.4,0.1,0.7,0.1c0.2,0,0.5,0,0.7-0.1
		c0.2-0.1,0.4-0.2,0.6-0.4s0.3-0.4,0.4-0.6s0.1-0.5,0.1-0.9c0-0.3,0-0.5-0.1-0.8s-0.2-0.4-0.4-0.6s-0.4-0.3-0.6-0.4
		s-0.5-0.1-0.8-0.1c-0.3,0-0.6,0.1-0.9,0.2s-0.5,0.3-0.7,0.6l-0.9,0l0.8-4.4h4.2v0.9H108.8z"/>
	<path style="fill:#CCCCCC;" d="M115.5,210v1.3h-1.3V210H115.5z"/>
	<path style="fill:#CCCCCC;" d="M118.7,203.9l-0.5,2.4l0,0c0.2-0.2,0.4-0.4,0.7-0.5c0.3-0.1,0.6-0.1,0.9-0.1c0.4,0,0.7,0.1,1.1,0.2
		c0.3,0.1,0.6,0.3,0.9,0.5s0.4,0.5,0.6,0.9s0.2,0.8,0.2,1.3c0,0.4-0.1,0.7-0.2,1c-0.1,0.3-0.3,0.6-0.6,0.9s-0.6,0.5-0.9,0.6
		c-0.4,0.2-0.8,0.2-1.3,0.2c-0.4,0-0.7-0.1-1-0.2c-0.3-0.1-0.6-0.3-0.8-0.5c-0.2-0.2-0.4-0.5-0.6-0.8c-0.1-0.3-0.2-0.6-0.2-1h1
		c0,0.2,0.1,0.4,0.2,0.6s0.2,0.3,0.4,0.5c0.2,0.1,0.3,0.2,0.5,0.3c0.2,0.1,0.4,0.1,0.7,0.1c0.2,0,0.5,0,0.7-0.1
		c0.2-0.1,0.4-0.2,0.6-0.4s0.3-0.4,0.4-0.6s0.1-0.5,0.1-0.9c0-0.3,0-0.5-0.1-0.8s-0.2-0.4-0.4-0.6s-0.4-0.3-0.6-0.4
		s-0.5-0.1-0.8-0.1c-0.3,0-0.6,0.1-0.9,0.2s-0.5,0.3-0.7,0.6l-0.9,0l0.8-4.4h4.2v0.9H118.7z"/>
	<path style="fill:#CCCCCC;" d="M125.4,210v1.3h-1.3V210H125.4z"/>
	<path style="fill:#CCCCCC;" d="M127,204.7c0.1-0.4,0.3-0.7,0.5-0.9s0.5-0.5,0.9-0.6c0.3-0.1,0.7-0.2,1.2-0.2c0.4,0,0.7,0.1,1,0.2
		c0.3,0.1,0.6,0.3,0.8,0.5c0.2,0.2,0.4,0.5,0.6,0.8c0.1,0.3,0.2,0.6,0.2,1c0,0.4-0.1,0.7-0.2,1c-0.1,0.3-0.3,0.5-0.5,0.8
		s-0.4,0.4-0.7,0.6c-0.2,0.2-0.5,0.4-0.8,0.5c-0.3,0.2-0.5,0.3-0.8,0.5c-0.3,0.2-0.5,0.3-0.7,0.5c-0.2,0.2-0.4,0.4-0.6,0.6
		s-0.3,0.4-0.3,0.7h4.3v0.9h-5.5c0-0.5,0.1-0.9,0.3-1.3c0.1-0.4,0.3-0.7,0.5-0.9c0.2-0.3,0.5-0.5,0.7-0.7c0.3-0.2,0.5-0.4,0.8-0.6
		c0.4-0.2,0.7-0.4,0.9-0.6c0.3-0.2,0.5-0.4,0.7-0.6c0.2-0.2,0.3-0.4,0.4-0.6s0.1-0.5,0.1-0.8c0-0.2,0-0.4-0.1-0.6
		c-0.1-0.2-0.2-0.3-0.3-0.5c-0.1-0.1-0.3-0.2-0.5-0.3c-0.2-0.1-0.4-0.1-0.6-0.1c-0.3,0-0.5,0.1-0.8,0.2c-0.2,0.1-0.4,0.3-0.5,0.5
		c-0.1,0.2-0.2,0.4-0.3,0.7c-0.1,0.2-0.1,0.5-0.1,0.8h-1C126.9,205.5,126.9,205.1,127,204.7z"/>
	<path style="fill:#CCCCCC;" d="M133.9,204.1c0.1-0.3,0.3-0.5,0.5-0.7c0.2-0.2,0.5-0.3,0.8-0.4c0.3-0.1,0.6-0.1,0.9-0.1
		c0.5,0,0.8,0.1,1.2,0.2c0.3,0.1,0.6,0.3,0.8,0.5c0.2,0.2,0.3,0.4,0.4,0.7s0.1,0.5,0.1,0.8c0,0.4-0.1,0.7-0.3,1
		c-0.2,0.3-0.5,0.5-0.8,0.7c0.5,0.2,0.9,0.4,1.1,0.8s0.4,0.8,0.4,1.3c0,0.4-0.1,0.8-0.2,1.1s-0.3,0.6-0.6,0.8
		c-0.2,0.2-0.5,0.4-0.9,0.5c-0.3,0.1-0.7,0.2-1.1,0.2c-0.4,0-0.8-0.1-1.1-0.2c-0.3-0.1-0.7-0.3-0.9-0.5c-0.3-0.2-0.5-0.5-0.6-0.8
		c-0.1-0.3-0.2-0.7-0.2-1.1c0-0.5,0.1-0.9,0.4-1.3c0.3-0.4,0.6-0.6,1.1-0.8c-0.4-0.1-0.6-0.4-0.9-0.7c-0.2-0.3-0.3-0.7-0.3-1
		C133.7,204.7,133.8,204.4,133.9,204.1z M135,210.1c0.3,0.3,0.8,0.4,1.3,0.4c0.3,0,0.5,0,0.7-0.1c0.2-0.1,0.4-0.2,0.5-0.3
		c0.2-0.1,0.3-0.3,0.4-0.5c0.1-0.2,0.1-0.4,0.1-0.7c0-0.2,0-0.4-0.1-0.6c-0.1-0.2-0.2-0.4-0.4-0.5c-0.2-0.1-0.3-0.3-0.6-0.3
		c-0.2-0.1-0.4-0.1-0.7-0.1c-0.2,0-0.5,0-0.7,0.1c-0.2,0.1-0.4,0.2-0.6,0.3c-0.2,0.1-0.3,0.3-0.4,0.5c-0.1,0.2-0.1,0.4-0.1,0.7
		C134.5,209.5,134.7,209.9,135,210.1z M134.9,205.7c0.1,0.2,0.2,0.3,0.3,0.4c0.1,0.1,0.3,0.2,0.5,0.2c0.2,0.1,0.4,0.1,0.6,0.1
		c0.4,0,0.7-0.1,1-0.4s0.4-0.6,0.4-1s-0.1-0.7-0.4-1c-0.3-0.2-0.6-0.3-1-0.3c-0.2,0-0.4,0-0.6,0.1c-0.2,0.1-0.3,0.1-0.5,0.2
		c-0.1,0.1-0.2,0.2-0.3,0.4c-0.1,0.2-0.1,0.3-0.1,0.6C134.8,205.3,134.8,205.5,134.9,205.7z"/>
</g>
<g>
	<path style="fill:#FF6600;" d="M58.6,189.9c0,1-0.3,1.5-1,1.5c-0.3,0-0.6,0-1,0c0,0,0-0.1,0-0.1c0-0.3-0.1-0.5-0.1-0.7
		c0.1,0,0.2,0,0.3,0c0.2,0,0.4,0,0.5,0c0.4,0,0.5-0.3,0.5-0.8c0-0.7-0.3-1.5-1-2.3c0.2-0.6,0.5-1.5,0.8-2.8h-1.3v8.4h-0.7V184h2.8
		v0.7c-0.5,1.5-0.8,2.4-0.9,2.7C58.4,188.3,58.7,189.1,58.6,189.9z M59,184.1h6.1v0.7h-0.9v6.7c0.1,1-0.4,1.5-1.4,1.4
		c-0.3,0-0.8,0-1.5,0c0-0.1-0.1-0.3-0.1-0.5c-0.1-0.2-0.1-0.3-0.1-0.3c0.4,0,0.9,0,1.5,0c0.5,0,0.8-0.2,0.8-0.7v-6.7H59V184.1z
		 M59.3,186.2h3v4.3h-3V186.2z M60,186.9v2.9h1.6v-2.9H60z"/>
	<path style="fill:#FF6600;" d="M66.4,190h4v-1.2h-3.6v-4.9h7.9v4.9h-3.6v1.2h4v0.7h-4v1.3h4.6v0.7h-9.9v-0.7h4.6v-1.3h-4V190z
		 M67.5,184.6v1.5h2.8v-1.5H67.5z M67.5,186.7v1.4h2.8v-1.4H67.5z M73.9,184.6h-2.8v1.5h2.8V184.6z M71.1,186.7v1.4h2.8v-1.4H71.1z"
		/>
	<path style="fill:#FF6600;" d="M80.3,191.6l-0.6,0.5c-0.2-0.1-0.4-0.3-0.7-0.7c-0.1-0.1-0.2-0.2-0.3-0.3c-0.4,0.6-1,1.2-1.9,2
		c-0.1-0.2-0.3-0.4-0.5-0.7c0.7-0.5,1.3-1.1,1.8-1.9c-0.2-0.1-0.4-0.4-0.7-0.7c-0.3-0.3-0.5-0.5-0.7-0.7c0.2-0.6,0.4-1.6,0.7-3h-0.9
		v-0.7h1c0.1-0.4,0.1-1,0.2-1.7c0-0.2,0-0.3,0-0.4l0.8,0.1c0,0.3-0.1,0.7-0.2,1.2c-0.1,0.4-0.1,0.6-0.1,0.8H80v0.7
		c-0.2,1.8-0.5,3.2-1,4.1C79.5,190.8,79.9,191.2,80.3,191.6z M79.3,186.3h-1.2c-0.2,1.1-0.4,2-0.6,2.8c0.2,0.1,0.4,0.3,0.7,0.6
		c0.1,0.1,0.2,0.2,0.3,0.3C78.9,189,79.2,187.8,79.3,186.3z M80.1,190h4.4v0.7h-4.4V190z M81.9,185.1l-0.2,2.8h2.5l0.3-3.5h-4.1
		v-0.7h4.9l-0.4,4.2h1c-0.1,1.7-0.1,2.9-0.2,3.5c-0.1,1-0.6,1.5-1.7,1.5c-0.7,0-1.2,0-1.6,0c0-0.2-0.1-0.4-0.1-0.6
		c0-0.1,0-0.2,0-0.3c0.2,0,0.8,0,1.7,0c0.6,0,0.9-0.3,0.9-0.8c0.1-0.5,0.1-1.4,0.2-2.7h-4.3l0.3-3.5H81.9z"/>
	<path style="fill:#FF6600;" d="M90.8,191.6l-0.6,0.5c-0.2-0.1-0.4-0.3-0.7-0.7c-0.1-0.1-0.2-0.2-0.3-0.3c-0.4,0.6-1,1.2-1.9,2
		c-0.1-0.2-0.3-0.4-0.5-0.7c0.7-0.5,1.3-1.1,1.8-1.9c-0.2-0.1-0.4-0.4-0.7-0.7c-0.3-0.3-0.5-0.5-0.7-0.7c0.2-0.6,0.4-1.6,0.7-3H87
		v-0.7h1c0.1-0.4,0.1-1,0.2-1.7c0-0.2,0-0.3,0-0.4l0.8,0.1c0,0.3-0.1,0.7-0.2,1.2c-0.1,0.4-0.1,0.6-0.1,0.8h1.8v0.7
		c-0.2,1.8-0.5,3.2-1,4.1C90,190.8,90.4,191.2,90.8,191.6z M89.8,186.3h-1.2c-0.2,1.1-0.4,2-0.6,2.8c0.2,0.1,0.4,0.3,0.7,0.6
		c0.1,0.1,0.2,0.2,0.3,0.3C89.4,189,89.7,187.8,89.8,186.3z M90.7,190h4.4v0.7h-4.4V190z M92.4,185.1l-0.2,2.8h2.5l0.3-3.5h-4.1
		v-0.7h4.9l-0.4,4.2h1c-0.1,1.7-0.1,2.9-0.2,3.5c-0.1,1-0.6,1.5-1.7,1.5c-0.7,0-1.2,0-1.6,0c0-0.2-0.1-0.4-0.1-0.6
		c0-0.1,0-0.2,0-0.3c0.2,0,0.8,0,1.7,0c0.6,0,0.9-0.3,0.9-0.8c0.1-0.5,0.1-1.4,0.2-2.7h-4.3l0.3-3.5H92.4z"/>
	<path style="fill:#FF6600;" d="M99.5,188.7v-0.8h5.7v0.8H99.5z"/>
	<path style="fill:#FF6600;" d="M113.5,193h-0.8v-3.1h-2.9c-0.1,1.3-0.5,2.5-1.2,3.4c0,0-0.1-0.1-0.1-0.1c-0.2-0.2-0.4-0.4-0.5-0.5
		c0.5-0.6,0.8-1.2,0.9-1.9c0.1-0.7,0.2-1.8,0.2-3.5V184h8.1v7.8c0.1,0.9-0.4,1.3-1.4,1.3c-0.4,0-0.8,0-1.2,0c0,0,0-0.1,0-0.2
		c0-0.3-0.1-0.5-0.1-0.7c0.1,0,0.3,0,0.6,0c0.3,0,0.6,0,0.7,0c0.5,0,0.8-0.2,0.7-0.7v-1.7h-3V193z M109.9,187.2c0,0.7,0,1.4,0,1.9
		h2.9v-1.9H109.9z M109.9,184.7v1.9h2.8v-1.9H109.9z M116.5,184.7h-3v1.9h3V184.7z M113.5,187.2v1.9h3v-1.9H113.5z"/>
	<path style="fill:#FF6600;" d="M122.7,183.6l0.7-0.4c0.1,0.1,0.2,0.3,0.3,0.5c0.2,0.4,0.4,0.6,0.5,0.8l-0.5,0.3h3.8v4.4h-0.8v-0.5
		h-6.3c-0.1,1.8-0.5,3.2-1.4,4.4c-0.1-0.1-0.2-0.2-0.3-0.3c-0.1-0.1-0.2-0.2-0.3-0.3c0.9-1,1.4-2.6,1.3-4.8v-2.9h3.8
		c-0.1-0.1-0.1-0.2-0.2-0.4C123,184.1,122.8,183.8,122.7,183.6z M120.5,185.6v2.2v0.3h6.3v-2.5H120.5z"/>
	<path style="fill:#FF6600;" d="M128.9,188.2c1-1.3,1.8-2.9,2.3-4.8l0.7,0.2c-0.3,0.9-0.6,1.8-1,2.6v6.9h-0.7v-5.5
		c-0.1,0.1-0.2,0.3-0.3,0.5c-0.1,0.2-0.3,0.5-0.7,0.9c0,0-0.1-0.1-0.1-0.3C129,188.4,129,188.2,128.9,188.2z M131.1,190.9
		c1.4-1.2,2.4-2.8,3-4.7h-2.3v-0.7h2.9v-2h0.8v2h3.1v0.7H136c0.7,2.1,1.6,3.5,3,4.4c-0.1,0.1-0.3,0.4-0.6,0.7
		c-1.5-1.4-2.4-3.1-3-5.2v4.2h1.6v0.7h-1.6v2h-0.8v-2h-1.6v-0.7h1.6v-4.2c-0.4,1.9-1.4,3.7-3,5.4C131.4,191.2,131.2,191,131.1,190.9
		z"/>
	<path style="fill:#FF6600;" d="M139.5,190.2c0.9-0.2,1.7-0.4,2.5-0.6c0,0.2,0,0.5,0,0.7c-0.4,0.1-1,0.2-1.9,0.5
		c-0.2,0.1-0.4,0.1-0.5,0.1L139.5,190.2z M140.9,185.3l-0.2,2.8h1l0.3-3.4h-2.3V184h3l-0.3,4.1h0.6c0,0.5-0.1,1.3-0.1,2.3
		c0,0.5,0,0.9,0,1.2c0,0.9-0.5,1.4-1.4,1.4c-0.3,0-0.7,0-1.2,0c0-0.2-0.1-0.5-0.2-0.8c0.2,0,0.4,0,0.7,0c0.2,0,0.4,0,0.5,0
		c0.5,0,0.7-0.2,0.7-0.7c0-0.3,0.1-1,0.1-1.9c0-0.4,0-0.7,0-0.9h-2.4l0.3-3.4H140.9z M146.8,183.5c-0.1,0.1-0.1,0.2-0.2,0.4
		c0.8,1.4,1.8,2.4,2.9,3c0,0-0.1,0.1-0.1,0.2c-0.2,0.2-0.3,0.4-0.4,0.5c-1.2-0.8-2.1-1.8-2.8-3c-0.8,1.3-1.8,2.4-2.9,3.1
		c-0.1-0.2-0.3-0.4-0.5-0.6c1.3-0.9,2.4-2.1,3.2-3.7L146.8,183.5z M148.7,188.5c-0.4,1.3-0.9,2.5-1.2,3.4h1.8v0.7h-6.1v-0.7h3.5
		c0.4-1,0.9-2.2,1.3-3.7L148.7,188.5z M143.6,188.7l0.7-0.2c0.1,0.2,0.2,0.5,0.3,0.9c0.3,0.8,0.5,1.4,0.6,1.7l-0.7,0.2
		C144.1,190.4,143.9,189.5,143.6,188.7z M144.2,187h4.1v0.7h-4.1V187z M145.3,188.4l0.7-0.2c0.3,1.2,0.6,2.1,0.7,2.6L146,191
		C145.8,190,145.6,189.2,145.3,188.4z"/>
	<path style="fill:#FF6600;" d="M150.8,185.5h3.9v-2.2h0.8v2.2h3.9v4.5h-0.8v-0.5h-3.1v3.7h-0.8v-3.7h-3.1v0.5h-0.8V185.5z
		 M151.5,186.3v2.5h3.1v-2.5H151.5z M158.5,186.3h-3.1v2.5h3.1V186.3z"/>
	<path style="fill:#FF6600;" d="M161.7,186.4l0.8,0.2c-0.3,1.6-0.7,2.9-1.1,4.1l-0.8-0.3C161.1,188.9,161.5,187.6,161.7,186.4z
		 M163.2,185.3h0.8v5.8c0,0.6,0.3,0.9,0.9,0.9h1.9c0.7,0.1,1.1-0.2,1.1-0.7c0-0.1,0-0.3,0-0.5c0.1-0.4,0.1-0.8,0.1-1
		c0.3,0.1,0.6,0.2,0.8,0.3c-0.1,0.6-0.2,1.1-0.2,1.6c-0.1,0.8-0.7,1.1-1.8,1.1h-2.2c-1,0-1.6-0.5-1.5-1.5V185.3z M165.4,183.3
		c0.4,0.6,0.9,1.4,1.5,2.5c0.1,0.1,0.1,0.2,0.2,0.3l-0.8,0.4c-0.4-1-0.9-2-1.5-2.9L165.4,183.3z M168.8,186.1
		c0.1,0.1,0.1,0.3,0.2,0.5c0.7,1.3,1.2,2.4,1.5,3.2l-0.8,0.4c-0.5-1.3-1.1-2.6-1.7-3.7L168.8,186.1z"/>
	<path style="fill:#FF6600;" d="M173.3,188.7v-0.8h5.7v0.8H173.3z"/>
	<path style="fill:#FF6600;" d="M182.2,188.6h3.8v4.5h-0.8v-0.7H183v0.7h-0.7V188.6z M183,189.3v2.6h2.3v-2.6H183z M183.2,183.8h6.8
		v3.6h-6.8V183.8z M184,184.5v2.2h5.3v-2.2H184z M187.3,188.6h3.8v4.5h-0.7v-0.7h-2.3v0.7h-0.8V188.6z M188.1,189.3v2.6h2.3v-2.6
		H188.1z"/>
	<path style="fill:#FF6600;" d="M194.7,183.4h0.7v3.2h0.7v0.7h-2.5v1.4h1.9v4.3h-0.7v-3.7h-1.2c0,1.7-0.3,3-0.8,3.8
		c-0.2-0.2-0.4-0.4-0.6-0.6c0.5-0.7,0.7-2.1,0.7-4.1v-4.7h0.7v2.9h1V183.4z M195.9,190.5h1.1c-0.2-0.2-0.3-0.3-0.4-0.5
		c0.6-0.3,1.1-0.6,1.4-1.1h-1.5v-4.7h1.7c0.1-0.2,0.2-0.6,0.3-1.1l0.8,0.1c0,0.1-0.1,0.2-0.1,0.3c-0.1,0.3-0.2,0.5-0.2,0.7h2.5v4.7
		h-2.7c-0.3,0.5-0.8,1.1-1.5,1.5h1.9v-1.2h0.7v1.2h2.3v0.7h-2.3v1.9h-0.7v-1.9h-3.3V190.5z M197.2,185v1.4h1.5V185H197.2z
		 M198.3,188.4c0.2-0.4,0.3-0.8,0.3-1.4h-1.5v1.4H198.3z M199.3,187c0,0.5-0.1,1-0.2,1.4h1.7V187H199.3z M200.8,185h-1.5v1.4h1.5
		V185z"/>
	<path style="fill:#FF6600;" d="M206.7,183.5c-0.1,0.1-0.2,0.2-0.2,0.4c0.7,0.6,1.5,1.3,2.4,2.2l-0.5,0.6c-0.5-0.6-1.3-1.3-2.2-2.2
		c-0.6,0.9-1.3,1.7-2.1,2.3h4.1c0,0.5,0,1.3-0.1,2.1c0,0.9-0.5,1.3-1.5,1.3c-0.6,0-1,0-1.2,0c0-0.3-0.1-0.6-0.1-0.8
		c0.5,0,0.9,0,1.2,0c0.5,0,0.8-0.2,0.8-0.7c0-0.1,0-0.4,0-0.7c0-0.3,0-0.5,0-0.7h-2.6v3.8c-0.1,0.5,0.2,0.7,0.7,0.7h1.4
		c0.6,0,0.9-0.1,1-0.4c0.1-0.2,0.1-0.6,0.2-1.2c0.2,0.1,0.5,0.2,0.8,0.3c-0.1,0.6-0.2,1-0.2,1.2c-0.2,0.6-0.7,0.9-1.5,0.9h-1.7
		c-1,0.1-1.4-0.4-1.4-1.3V187c-0.1,0-0.1,0.1-0.2,0.2c-0.1,0.1-0.2,0.2-0.5,0.4c0-0.1-0.1-0.2-0.2-0.4c-0.1-0.2-0.2-0.3-0.2-0.3
		c1.4-1,2.4-2.2,3.1-3.5L206.7,183.5z M211.3,183.4h0.8v8.3c0,0.9-0.4,1.3-1.2,1.3c-0.4,0-0.9,0-1.5,0c0-0.3-0.1-0.6-0.2-0.9
		c0.2,0,0.4,0,0.7,0c0.3,0,0.5,0,0.7,0c0.5,0,0.8-0.2,0.7-0.6V183.4z M210,190.5h-0.7v-6.1h0.7V190.5z"/>
	<path style="fill:#FF6600;" d="M214.2,190.7l0.7,0.2c-0.2,0.4-0.4,0.9-0.7,1.4c-0.1,0.1-0.1,0.2-0.2,0.3c-0.2-0.1-0.4-0.2-0.7-0.3
		C213.7,191.9,214,191.3,214.2,190.7z M217.7,183.5l0.7-0.2c0.1,0.1,0.2,0.4,0.2,0.7c0.1,0.2,0.1,0.3,0.1,0.4h3.8v0.6h-1.8l0.4,0.2
		c-0.1,0.1-0.4,0.3-0.7,0.6c0.2-0.2,0.2-0.2-0.1,0.1h2.8v0.6h-9.7v-0.6h2.8c0,0-0.1-0.1-0.1-0.1c-0.2-0.2-0.4-0.4-0.7-0.6l0.3-0.2
		H214v-0.6h4c0-0.1-0.1-0.3-0.2-0.5C217.8,183.7,217.7,183.5,217.7,183.5z M214.7,187.1h7.1v3.1h-3.7c0.4,0.3,0.8,0.7,1.1,1
		l-0.6,0.5c0,0-0.1-0.1-0.1-0.1c-0.4-0.4-0.7-0.8-1-1l0.5-0.4h-3.3V187.1z M215.4,187.7v0.7h5.6v-0.7H215.4z M215.4,189v0.7h5.6V189
		H215.4z M215.8,190.6h0.7v1.1c-0.1,0.4,0.2,0.6,0.7,0.6h1.9c0.5,0,0.8-0.1,0.9-0.4c0.1-0.2,0.2-0.6,0.2-0.9
		c0.2,0.1,0.5,0.2,0.7,0.3c-0.1,0.4-0.2,0.6-0.2,0.9c-0.1,0.6-0.6,0.9-1.4,0.9h-2.2c-1,0.1-1.4-0.3-1.4-1.2V190.6z M217,185.6
		l-0.3,0.2h2.6c0.1-0.1,0.3-0.3,0.5-0.5c0.2-0.2,0.4-0.4,0.5-0.5h-4.2C216.4,185.2,216.7,185.4,217,185.6z M221.4,191l0.5-0.4
		c0.2,0.2,0.5,0.5,0.9,0.9c0.2,0.2,0.3,0.3,0.4,0.4l-0.6,0.5c-0.1-0.2-0.3-0.4-0.6-0.7C221.8,191.5,221.6,191.2,221.4,191z"/>
	<path style="fill:#FF6600;" d="M223.8,191.5c1.3-0.2,2.5-0.4,3.6-0.6c0,0,0,0.1,0,0.3c0,0.2,0,0.4,0,0.5c-0.4,0.1-0.9,0.2-1.6,0.3
		c-0.7,0.1-1.3,0.2-1.7,0.2L223.8,191.5z M225.2,189.1c0.3,0,0.8-0.1,1.4-0.2c0.3-0.1,0.6-0.1,0.7-0.1c0,0.2,0,0.4-0.1,0.7
		c-1.5,0.2-2.5,0.3-2.9,0.5l-0.2-0.7c0.3-0.2,0.9-0.9,1.7-2.1c-0.1,0-0.1,0-0.2,0c-0.8,0.1-1.3,0.1-1.5,0.2l-0.2-0.7
		c0.5-0.4,1.1-1.5,1.8-3.3l0.8,0.3c-0.7,1.3-1.3,2.2-1.7,2.8c0.1,0,0.4,0,0.7,0c0.3-0.1,0.5-0.1,0.7-0.1c0.2-0.4,0.5-0.9,0.8-1.4
		l0.7,0.4C227.1,186.5,226.3,187.7,225.2,189.1z M226.9,192.6v-0.7h1.2V184h4.8v7.9h0.9v0.7H226.9z M228.9,184.7v2h3.3v-2H228.9z
		 M228.9,187.3v2h3.3v-2H228.9z M228.9,190v1.9h3.3V190H228.9z"/>
</g>
<g>
	<defs>
		<rect id="SVGID_1_" x="329.4" y="3.1" width="147.7" height="73.2"/>
	</defs>
	<clipPath id="SVGID_2_">
		<use xlink:href="#SVGID_1_"  style="overflow:visible;"/>
	</clipPath>
	<g style="clip-path:url(#SVGID_2_);">
		<path style="fill:#FD4B00;" d="M474.8-54.6c-11.4,2-20.6,5.8-20.6,5.8s-2.4,0.9-6.2,2.2c6.3,4.5,12,8.4,15.1,9.6
			c30.9,12.1,62.4,3,64.5,23.9c0.1-0.8,0.2-1.6,0.2-2.4c0.1-7.6-4.9-18-16.3-26.1C503.1-47.5,490.7-52.6,474.8-54.6"/>
		<path style="fill:#FD4B00;" d="M437.5-54c-1.7,0.2-3.3,0.5-5,0.8c0,0-14.4,3-29.8,11.9c3.3,1,7,1.4,10.9,1.4c4,0,8.2-0.4,12.4-1.1
			c8.6-1.4,16.8-3.8,22.1-5.6C444.6-49,441-51.6,437.5-54"/>
		<path style="fill:#FF6600;" d="M459-55.6c-6.7,0-13.9,0.5-21.5,1.6c3.6,2.4,7.2,5,10.6,7.4c3.8-1.3,6.2-2.2,6.2-2.2
			s9.2-3.8,20.6-5.8C469.9-55.3,464.6-55.6,459-55.6"/>
		<path style="fill:#FDBC52;" d="M376-49c-2.2,0-4.3,0.2-6.3,0.5c-13.4,2.2-21.1,10.6-21.1,10.6c-9.7,11.7-11.1,19.9-10.9,30.5
			c0.3,15.8,10,30.3,25.2,30.3c1.3,0,2.7-0.1,4.1-0.3l0.1,0l0.2,0c0.1,0,0.2,0,0.4-0.1c-3.1-15.2,3.5-28.5,7.1-37.5
			c-2.4-6.3-3.3-12.6-2.4-18.8c0.8-5.5,3.1-10.6,6.4-15.1C377.8-49,376.9-49,376-49 M487.6-55.8c-3.8,0-7.7,0.4-11.4,1
			c-0.5,0.1-0.9,0.2-1.4,0.2c15.9,2.1,28.3,7.1,36.8,13.1C523-33.4,528-23,527.9-15.4c0,0.8-0.1,1.6-0.2,2.4
			c0.2,2.1,0.1,4.6-0.3,7.4c-6.3,25.2-37.4,42.4-69.9,42.4c-4.4,0-8.8-0.3-13.1-0.9c-0.9-0.1-1.9,0.7-2.9,0.5
			c-7.7,3.8-16.1,8.8-24.7,12.7c0.2,0.2,0.4,0.3,0.5,0.5c8.7,7.3,20.9,12.5,37.3,12.5c4.4,0,9-0.4,14-1.2c0.1,0,0.2,0,0.4-0.1
			c32.8-5.4,61.4-33.1,60.9-66.9c-0.4-29.7-13.7-41.8-28.3-47.4C497.4-55.2,492.6-55.8,487.6-55.8"/>
		<path style="fill:#FF9B48;" d="M527.7-13c-1.3,8.5-9.1,18.3-28.3,18.3c-1.2,0-2.5,0-3.8-0.1C493.8,5,492,5,490.3,5
			c-11.5,0-22,4.4-32.5,15.7c-3.1,2.9-9.2,9.5-17.3,15.7c1,0.2,2.9,0.3,3.9,0.5c4.3,0.6,8.7,0.9,13.1,0.9
			c32.5,0,65.9-16.8,69.9-43.4C527.9-8.5,528-10.9,527.7-13 M378.8-48.9c-3.3,4.4-5.6,9.6-6.4,15.1c-0.9,6.1,0,12.5,2.4,18.8
			c2.4-4,5.5-6.4,5.5-6.4c8-7.5,15-13.9,22.4-19.8c-1.5-0.4-2.8-1-4.1-1.6C391.3-46.8,384.7-48.5,378.8-48.9"/>
		<path style="fill:#FDBC52;" d="M410.5-64.8c-12.6,0-24.6,6.4-31.7,15.9c5.9,0.4,12.5,2.1,19.7,6c1.3,0.7,2.7,1.2,4.1,1.6
			c15.4-8.9,29.8-11.9,29.8-11.9c1.7-0.3,3.4-0.6,5-0.8c-6.8-4.6-13.3-8.6-17.6-9.6C416.8-64.4,413.6-64.8,410.5-64.8"/>
		<path style="fill:#FF6600;" d="M375,20.8c-2.3,0-4.7,1.2-7.4,1.6c2.2,6.9,6.9,13.8,15.7,20c8.1,5.7,16.1,7.9,23.7,7.9
			c3.4,0,6.6-0.4,9.8-1.2C401.9,33.2,393.2,19.5,375,20.8"/>
		<path style="fill:#FD4B00;" d="M374.8-15.1c-5,8.2-11.7,22.9-7.1,37.5c2.7-0.4,5.1-0.6,7.4-0.6c18.4,0,24.9,12.9,41.8,27.3
			c9.3-2.2,17.7-7.3,24.7-12.7C414.5,29.6,385.1,7.3,374.8-15.1"/>
		<path style="fill:#FF6600;" d="M448.1-46.6c-5.4,1.8-13.6,4.2-22.1,5.6c-4.1,0.7-8.3,1.1-12.4,1.1c-3.9,0-7.6-0.4-10.9-1.4
			c-8.2,4.8-16.6,11.2-23.4,19.8c0,0-2,2.4-4.5,6.4c9,23.8,38.9,46.3,66.8,51.5c8.1-6.2,14.2-12.8,17.3-15.7
			C470.4,9.8,478.8,6,490.3,6c1.7,0,3.4,0.1,5.2,0.2c1.3,0.1,2.6,0.1,3.8,0.1c19.2,0,27-10.9,28.3-19.3
			c-2.2-20.9-33.6-11.9-64.5-23.9C460-38.2,454.4-42.1,448.1-46.6"/>
		<path style="fill:#FDBC52;" d="M361.1,65c-0.3,0-0.5,0-0.8,0.1l-0.2,0c-2.1,0.5-3.4,2.6-3,4.8c0.4,2,2.1,3.3,4,3.3
			c0.3,0,0.5,0,0.8-0.1l0.2,0c2.1-0.5,3.4-2.6,3-4.8C364.7,66.3,363,65,361.1,65 M373.6,46.5c-0.1,0-0.2,0-0.2,0
			c-0.8,0-1.5,0.1-2.2,0.3c-4.1,1.1-7.2,4.7-7.1,9c0,4.9,4.1,8.8,9.2,8.8c0.1,0,0.2,0,0.2,0c0.8,0,1.5-0.1,2.2-0.3
			c4.1-1,7.2-4.7,7.1-9C382.8,50.4,378.7,46.5,373.6,46.5"/>
	</g>
</g>
</svg>
