<?xml version="1.0" encoding="utf-8"?>
<!-- Generator: Adobe Illustrator 17.1.0, SVG Export Plug-In . SVG Version: 6.00 Build 0)  -->
<!DOCTYPE svg PUBLIC "-//W3C//DTD SVG 1.1//EN" "http://www.w3.org/Graphics/SVG/1.1/DTD/svg11.dtd">
<svg version="1.1" id="图层_1" xmlns="http://www.w3.org/2000/svg" xmlns:xlink="http://www.w3.org/1999/xlink" x="0px" y="0px"
	 viewBox="0 0 482 304" style="enable-background:new 0 0 482 304;" xml:space="preserve">
<g id="矩形_3_14_">
	<g>
		<rect x="4" y="3.9" style="fill-rule:evenodd;clip-rule:evenodd;fill:#292726;" width="475.4" height="297"/>
	</g>
</g>
<g id="阿里妈妈_6_">
	<g>
		<path style="fill-rule:evenodd;clip-rule:evenodd;fill:#FF6600;" d="M423.1,262.3c1.5,0,3,0,4.5,0c0,2.2,0,4.5,0,6.6
			c0,0.1-0.2,0.3-0.3,0.3c-0.2,0-0.3,0-0.6,0v1.1c0.3,0,0.6,0,1,0c0.9,0,1.4-0.4,1.4-1.1c0-1.7,0-5.1,0-6.8h0.5v-1h-6.4V262.3z
			 M445.9,267c-0.4,0-1,0.4-1,1c1.3,0,3.4,0,4.8,0c0,0.3,0,0.5,0,0.9c0.5,0,0.3,0,0.8,0c0.3,0,0.7-0.2,0.7-0.7c0-1.1,0-2,0-3.2
			c-0.2,0-0.4,0-0.6,0c0-0.9,0-2.6,0-3.3c0-0.3-0.3-0.6-0.6-0.6h-4.7v1h3.6c0,0.9,0,1.9,0,2.8c-0.9,0-1,0-1.7,0
			c-0.1,0-0.2-0.1-0.2-0.2c0-0.5,0-1.2,0-1.8c0-0.1-0.1-0.3-0.4-0.3h-1.1v2.5c0,0.5,0.4,0.9,0.9,0.9c0,0,1.8,0,3.4,0v0.9H445.9z
			 M426.8,267.3c0-1.2,0-2.8,0-4.4h-3.7v5.6c1.1,0,2.5,0,2.5,0C426.5,268.6,426.8,268,426.8,267.3z M425.3,267.5c-0.3,0-0.6,0-0.9,0
			V264c0.4,0,0.9,0,1.3,0c0,1.1,0,2.3,0,3.2C425.6,267.4,425.5,267.5,425.3,267.5z M418.9,261.5c0,2,0,4.7,0,8.7h1.4
			c0-2.5,0-5.3,0-8c0.3,0,0.7,0,1,0c0,1.5,0,2.9,0,4.3c0,0.6-0.5,0.8-0.5,0.8v1.1c1,0,1.8-1,1.8-1.9c0-1.6,0-3.7,0-5.4
			c-1.2,0-2.2,0-3.4,0C418.9,261.3,418.9,261.5,418.9,261.5z M461.8,265.1c0-0.9,0-2.6,0-3.3c0-0.3-0.3-0.6-0.6-0.6h-4.7v1
			c1.2,0,2.4,0,3.6,0v2.8c-0.9,0-1,0-1.7,0c-0.1,0-0.2-0.1-0.2-0.2c0-0.5,0-1.2,0-1.8c0-0.1-0.1-0.3-0.4-0.3c-0.3,0-0.7,0-1.1,0v2.5
			c0,0.5,0.4,0.9,0.9,0.9c0,0,1.8,0,3.4,0v0.9h-3.7c-0.4,0-1.1,0.4-1.1,1c1.3,0,3.3,0,4.7,0v1c0,0.2-0.1,0.2-0.3,0.2h-0.5
			c0,0.5,0,0.7,0,1h0.8c0.3,0,0.2,0,0.5,0c0.7,0,1-0.5,1-0.9c0-1.3,0-3,0-4.3C462.2,265.1,462,265.1,461.8,265.1z M455.1,268.6
			c0.5-0.6,0.8-1.2,0.8-2.4c0-1.3,0-2.6,0-4c0-0.1-0.1-0.3-0.3-0.3c-0.5,0-1.2,0-1.8,0v-0.6h-1.4c0,0.2,0,0.4,0,0.6
			c-0.1,0-0.3,0-0.5,0v1h0.5v3.2c0,1.2,0.4,1.9,0.9,2.4c-0.6,0.4-1.2,0.7-2.1,0.7c-0.1,0-0.2,0-0.4,0c-1.3,0-2.9,0-4.2,0
			c-1.3,0-2.5-0.2-3-0.8c0.4-0.6,0.7-1.1,0.8-2.3c0-1.2,0-2.3,0-3.9c0-0.2-0.2-0.3-0.3-0.3c-0.5,0-1.1,0-1.8,0v-0.6
			c-0.6,0-0.8,0-1.3,0v0.6c-0.2,0-0.3,0-0.5,0v1c0.2,0,0.3,0,0.5,0c0,1.1,0,2.2,0,3.2c0.1,1.2,0.5,1.6,1,2.4
			c-0.7,0.5-1.5,0.7-2.5,0.8c-1.2,0-2.2,0-3.7,0c0-0.3,0-0.6,0-0.8h3.7v-1.1h-3.7c0-0.3,0-0.5,0-0.8c1.1,0,2.5,0,2.8,0
			c0,0,0.9,0,0.9-1c0-1,0-2.9,0-4.3c-2.9,0-5.9,0-8.9,0c-0.1,0-0.3,0.2-0.3,0.3c0,0.2,0,3.5,0,5c1.2,0,2.5,0,3.7,0v0.8h-3.7
			c0,0.3,0,0.7,0,1.1h3.7c0,0.3,0,0.5,0,0.8h-4.4c0,0.3,0,0.7,0,1c3.3,0,7.3,0,10.5,0c0.9,0,1.9-0.4,2.7-0.9c1,0.7,2,0.9,3.8,0.9
			c0.5,0,1.1,0,1.8,0c0.9,0,1.7,0,2.5,0c1.5,0,2.4-0.3,3.3-0.8c0.8,0.5,1.6,0.8,2.9,0.8v0h2v-1h-2
			C456.4,269.2,455.7,269,455.1,268.6z M434.2,265.5h-2.3v-1.1h2.3V265.5z M434.2,263.4h-2.3v-1.1c0.8,0,1.5,0,2.3,0V263.4z
			 M435.9,262.3h2.3v1.1h-2.3V262.3z M435.9,264.5c0.8,0,1.5,0,2.3,0c0,0.4,0,0.8,0,1.1h-2.3C435.9,265.2,435.9,264.8,435.9,264.5z
			 M443.3,266.1c0,0.7-0.2,0.9-0.3,1.4c-0.2-0.4-0.4-0.6-0.5-1.4c0-0.9,0-2.2,0-3.2h0.8V266.1z M454.7,266.1c0,0.7-0.2,1-0.4,1.4
			c-0.2-0.4-0.4-0.7-0.4-1.4c0-1,0-2.2,0-3.2h0.8C454.7,263.9,454.7,265.1,454.7,266.1z"/>
	</g>
</g>
<g id="alimama.com_6_">
	<g>
		<path style="fill-rule:evenodd;clip-rule:evenodd;fill:#CBCBCB;" d="M421.3,272.3c-0.8,1.6-1.6,3.1-2.4,4.8h1.2
			c0.2-0.4,0.3-0.7,0.6-1.1c0.6,0,1.1,0,1.7,0c-0.1-0.4-0.2-0.6-0.3-0.9h-0.9c0.3-0.5,0.4-0.8,0.8-1.6c0.4,1.2,0.9,2.5,1.3,3.6h1.1
			c-0.6-1.7-1.1-3.1-1.7-4.8H421.3z M424.5,277h1l0.2-4.8l-1,0L424.5,277z M426.1,277h1.1l0.1-3.6h-1L426.1,277z M426.3,272.2l0,0.8
			c0,0,0.8,0,1,0l0-0.8C426.5,272.2,426.5,272.2,426.3,272.2z M432.9,273.5c-0.2-0.1-0.4-0.1-0.6-0.1c-0.1,0-0.2,0-0.3,0
			c-0.1,0-0.2,0.1-0.3,0.1c-0.1,0-0.2,0.1-0.2,0.1c-0.1,0.1-0.1,0.1-0.2,0.2c0,0.1-0.1,0.1-0.1,0.2c0-0.1-0.1-0.2-0.1-0.3
			c0-0.1-0.1-0.1-0.1-0.2c-0.1,0-0.1-0.1-0.2-0.1c-0.1,0-0.2-0.1-0.3-0.1c-0.1,0-0.2,0-0.3,0c-0.1,0-0.3,0-0.4,0.1
			c-0.1,0-0.2,0.1-0.3,0.1c-0.1,0.1-0.2,0.1-0.2,0.2c-0.1,0.1-0.1,0.2-0.2,0.3l0-0.6h-0.9l-0.2,3.6c0,0,0.8,0,1,0c0-0.3,0-0.7,0-1.2
			c0-0.5,0.1-0.9,0.1-1c0.1-0.2,0.1-0.3,0.3-0.4c0.1-0.1,0.3-0.2,0.4-0.2c0.1,0,0.2,0,0.2,0c0.1,0,0.1,0.1,0.2,0.1
			c0.1,0.1,0.1,0.1,0.1,0.2c0,0.1,0,0.2,0,0.3c0,0.2,0,0.6,0,1.1c0,0.6-0.1,0.9-0.1,1.1c0.2,0,0.8,0,1,0l0-1c0-0.3,0-0.6,0-0.8
			c0-0.2,0-0.4,0.1-0.5c0-0.1,0.1-0.2,0.2-0.3c0.1-0.1,0.2-0.2,0.2-0.2c0.1,0,0.2-0.1,0.3-0.1c0.1,0,0.2,0,0.3,0.1
			c0.1,0,0.1,0.1,0.2,0.2c0.1,0.1,0.1,0.2,0.1,0.4c0,0.1,0,0.3,0,0.5l0,0.8c0,0.3,0,0.6-0.1,0.9c0.2,0,0.8,0,1,0c0-0.3,0-0.6,0-1.1
			c0-0.5,0-0.8,0.1-1.1c0-0.2,0-0.4,0-0.5c0-0.2-0.1-0.4-0.2-0.5C433.2,273.6,433,273.5,432.9,273.5z M436.7,273.5
			c-0.2-0.1-0.5-0.1-0.7-0.1c-0.2,0-0.5,0-0.7,0c-0.2,0-0.8,0.2-0.8,0.2l-0.1,0.7c0,0,1-0.3,1.4-0.3c0.1,0,0.2,0,0.3,0
			c0.1,0,0.2,0.1,0.2,0.1c0.1,0.1,0.1,0.1,0.1,0.2c0,0,0,0.1,0,0.1c0,0-0.1,0.1-0.1,0.1c0,0-0.1,0.1-0.1,0.1c-0.1,0-0.1,0.1-0.2,0.1
			c-0.1,0-0.2,0-0.3,0.1c-0.3,0.1-0.6,0.1-0.8,0.2c-0.2,0.1-0.4,0.1-0.5,0.2c-0.1,0.1-0.2,0.2-0.3,0.2c-0.1,0.1-0.1,0.2-0.2,0.3
			c0,0.1-0.1,0.2-0.1,0.3c0,0.2,0,0.3,0.1,0.5c0.1,0.2,0.2,0.3,0.4,0.4c0.2,0.1,0.4,0.1,0.7,0.1c0.1,0,0.2,0,0.3,0
			c0.1,0,0.2,0,0.4-0.1c0.1-0.3,0.1-0.5,0.2-0.6c-0.1,0-0.3,0.1-0.3,0.1c-0.1,0-0.2,0-0.2,0c-0.1,0-0.2,0-0.3,0
			c-0.1,0-0.2-0.1-0.2-0.1c-0.1-0.1-0.1-0.2-0.1-0.3c0-0.1,0-0.1,0-0.2c0-0.1,0.1-0.1,0.1-0.2c0,0,0.1-0.1,0.2-0.1
			c0.1,0,0.2-0.1,0.2-0.1c0.1,0,0.2-0.1,0.4-0.1c0.1,0,0.3-0.1,0.3-0.1c0.1,0,0.1,0,0.2-0.1c0,0,0.1-0.1,0.2-0.1l-0.1,1.8h1
			c0,0,0-1.1,0.1-1.7c0-0.5,0.1-0.9,0.1-1c0-0.2-0.1-0.4-0.2-0.6C437,273.6,436.9,273.5,436.7,273.5z M442.9,273.5
			c-0.2-0.1-0.4-0.1-0.6-0.1c-0.1,0-0.2,0-0.3,0c-0.1,0-0.2,0.1-0.3,0.1c-0.1,0-0.2,0.1-0.2,0.1c-0.1,0.1-0.1,0.1-0.2,0.2
			c0,0.1-0.1,0.1-0.1,0.2c0-0.1-0.1-0.2-0.1-0.3c0-0.1-0.1-0.1-0.1-0.2c-0.1,0-0.1-0.1-0.2-0.1c-0.1,0-0.2-0.1-0.3-0.1
			c-0.1,0-0.2,0-0.3,0c-0.1,0-0.3,0-0.4,0.1c-0.1,0-0.2,0.1-0.3,0.1c-0.1,0.1-0.2,0.1-0.2,0.2c-0.1,0.1-0.1,0.2-0.2,0.3l0-0.6h-1
			l-0.2,3.6h1c0,0,0-0.7,0-1.2c0-0.5,0.1-0.9,0.1-1c0.1-0.2,0.1-0.3,0.3-0.4c0.1-0.1,0.3-0.2,0.4-0.2c0.1,0,0.2,0,0.2,0
			c0.1,0,0.1,0.1,0.2,0.1c0,0.1,0.1,0.1,0.1,0.2c0,0.1,0,0.2,0,0.3c0,0.2,0,0.6,0,1.1c0,0.6-0.1,0.9-0.1,1.1c0.2,0,0.8,0,1,0l0-1
			c0-0.3,0-0.6,0-0.8c0-0.2,0-0.4,0.1-0.5c0-0.1,0.1-0.2,0.2-0.3c0.1-0.1,0.2-0.2,0.2-0.2c0.1,0,0.2-0.1,0.3-0.1
			c0.1,0,0.2,0,0.3,0.1c0.1,0,0.1,0.1,0.2,0.2c0.1,0.1,0.1,0.2,0.1,0.4c0,0.1,0,0.3,0,0.5l0,0.8c0,0.3,0,0.6-0.1,0.9
			c0.2,0,0.8,0,1,0c0-0.3,0-0.6,0-1.1c0-0.5,0-0.8,0.1-1.1c0-0.2,0-0.4,0-0.5c0-0.2-0.1-0.4-0.2-0.5
			C443.3,273.6,443.1,273.5,442.9,273.5z M446.7,273.5c-0.2-0.1-0.5-0.1-0.7-0.1c-0.2,0-0.5,0-0.7,0c-0.2,0-0.8,0.2-0.8,0.2
			l-0.1,0.7c0,0,1-0.3,1.4-0.3c0.1,0,0.2,0,0.3,0c0.1,0,0.2,0.1,0.2,0.1c0.1,0.1,0.1,0.1,0.1,0.2c0,0,0,0.1,0,0.1
			c0,0-0.1,0.1-0.1,0.1c0,0-0.1,0.1-0.1,0.1c-0.1,0-0.1,0.1-0.2,0.1c-0.1,0-0.2,0-0.3,0.1c-0.3,0.1-0.6,0.1-0.8,0.2
			c-0.2,0.1-0.4,0.1-0.5,0.2c-0.1,0.1-0.2,0.2-0.3,0.2c-0.1,0.1-0.1,0.2-0.2,0.3c0,0.1-0.1,0.2-0.1,0.3c0,0.2,0,0.3,0.1,0.5
			c0.1,0.2,0.2,0.3,0.4,0.4c0.2,0.1,0.4,0.1,0.7,0.1c0.1,0,0.2,0,0.3,0c0.1,0,0.2,0,0.4-0.1c0.1-0.3,0.1-0.5,0.2-0.6
			c-0.1,0-0.3,0.1-0.3,0.1c-0.1,0-0.2,0-0.2,0c-0.1,0-0.2,0-0.3,0c-0.1,0-0.2-0.1-0.2-0.1c-0.1-0.1-0.1-0.2-0.1-0.3
			c0-0.1,0-0.1,0-0.2c0-0.1,0.1-0.1,0.1-0.2c0,0,0.1-0.1,0.2-0.1c0.1,0,0.2-0.1,0.2-0.1c0.1,0,0.2-0.1,0.4-0.1
			c0.1,0,0.3-0.1,0.3-0.1c0.1,0,0.1,0,0.2-0.1c0,0,0.1-0.1,0.2-0.1l-0.1,1.8h1c0,0,0-1.1,0.1-1.7c0-0.5,0.1-0.9,0.1-1
			c0-0.2-0.1-0.4-0.2-0.6C447.1,273.6,446.9,273.5,446.7,273.5z M447.8,276.1c0,0.5,0,0.8,0,0.9c0.3,0,1,0,1,0s0-0.8,0-0.9
			C448.6,276.1,447.8,276.1,447.8,276.1z M450.5,274.4c0.1-0.1,0.2-0.2,0.4-0.3c0.1-0.1,0.3-0.1,0.5-0.1c0.3,0,0.6,0.1,0.9,0.2
			l-0.1-0.8c-0.2-0.1-0.4-0.1-0.6-0.1c-0.2,0-0.3,0-0.5,0c-0.3,0-0.5,0-0.7,0.1c-0.2,0.1-0.4,0.2-0.6,0.3c-0.2,0.2-0.3,0.4-0.4,0.7
			c-0.1,0.3-0.1,0.6-0.1,0.8c0,0.2,0,0.4,0.1,0.6c0.1,0.2,0.1,0.4,0.3,0.5c0.1,0.1,0.2,0.3,0.4,0.4c0.2,0.1,0.3,0.2,0.5,0.2
			c0.2,0,0.4,0.1,0.5,0.1c0.3,0,0.7,0,1-0.1c0-0.2,0.1-0.3,0.1-0.5c0-0.1,0-0.2,0.1-0.3c-0.2,0.1-0.3,0.1-0.5,0.1
			c-0.2,0-0.3,0-0.4,0c-0.2,0-0.4,0-0.6-0.1c-0.2-0.1-0.3-0.2-0.4-0.4c-0.1-0.2-0.1-0.4-0.1-0.6c0-0.2,0-0.3,0.1-0.5
			C450.3,274.7,450.4,274.5,450.5,274.4z M455.8,273.9c-0.2-0.2-0.4-0.3-0.6-0.4c-0.2-0.1-0.5-0.1-0.8-0.1c-0.3,0-0.6,0.1-0.8,0.1
			c-0.3,0.1-0.5,0.2-0.7,0.4c-0.2,0.2-0.3,0.4-0.4,0.6c-0.1,0.2-0.1,0.5-0.1,0.7c0,0.3,0,0.5,0.1,0.7c0.1,0.2,0.2,0.4,0.4,0.6
			c0.2,0.2,0.4,0.3,0.6,0.4c0.2,0.1,0.5,0.1,0.8,0.1c0.3,0,0.6,0,0.8-0.1c0.3-0.1,0.5-0.2,0.6-0.4c0.2-0.2,0.3-0.4,0.4-0.6
			c0.1-0.2,0.1-0.5,0.1-0.8c0-0.3,0-0.5-0.1-0.7C456.1,274.2,456,274,455.8,273.9z M455.2,275.8c-0.1,0.2-0.2,0.3-0.4,0.4
			c-0.2,0.1-0.3,0.2-0.5,0.2c-0.2,0-0.4,0-0.5-0.1c-0.1-0.1-0.3-0.2-0.3-0.4c-0.1-0.2-0.1-0.3-0.1-0.5c0-0.2,0-0.4,0.1-0.6
			c0.1-0.2,0.2-0.3,0.4-0.4c0.2-0.1,0.3-0.1,0.5-0.1c0.2,0,0.4,0,0.5,0.1c0.1,0.1,0.2,0.2,0.3,0.4c0.1,0.2,0.1,0.3,0.1,0.5
			C455.3,275.4,455.3,275.6,455.2,275.8z M462.1,273.8c-0.1-0.1-0.2-0.2-0.4-0.3c-0.2-0.1-0.4-0.1-0.6-0.1c-0.1,0-0.2,0-0.3,0
			c-0.1,0-0.2,0.1-0.3,0.1c-0.1,0-0.2,0.1-0.2,0.1c-0.1,0.1-0.1,0.1-0.2,0.2c0,0.1-0.1,0.1-0.1,0.2c0-0.1-0.1-0.2-0.1-0.3
			c0-0.1-0.1-0.1-0.1-0.2c-0.1,0-0.1-0.1-0.2-0.1c-0.1,0-0.2-0.1-0.3-0.1c-0.1,0-0.2,0-0.3,0c-0.1,0-0.3,0-0.4,0.1
			c-0.1,0-0.2,0.1-0.3,0.1c-0.1,0.1-0.2,0.1-0.2,0.2c-0.1,0.1-0.1,0.2-0.2,0.3l0-0.6c-0.2,0-0.7,0-0.9,0c0,0.4-0.1,3.2-0.2,3.6
			c0.2,0,0.8,0,1,0c0-0.3,0-0.7,0-1.2c0-0.5,0.1-0.9,0.1-1c0.1-0.2,0.1-0.3,0.3-0.4c0.1-0.1,0.3-0.2,0.4-0.2c0.1,0,0.2,0,0.2,0
			c0.1,0,0.1,0.1,0.2,0.1c0.1,0.1,0.1,0.1,0.1,0.2c0,0.1,0,0.2,0,0.3c0,0.2,0,0.6,0,1.1c0,0.6-0.1,0.9-0.1,1.1c0.2,0,0.8,0,1,0l0-1
			c0-0.3,0-0.6,0-0.8c0-0.2,0-0.4,0.1-0.5c0-0.1,0.1-0.2,0.2-0.3c0.1-0.1,0.2-0.2,0.2-0.2c0.1,0,0.2-0.1,0.3-0.1
			c0.1,0,0.2,0,0.3,0.1c0.1,0,0.1,0.1,0.2,0.2c0.1,0.1,0.1,0.2,0.1,0.4c0,0.1,0,0.3,0,0.5l0,0.8c0,0.3,0,0.6-0.1,0.9
			c0.2,0,0.8,0,1,0c0-0.3,0-0.6,0-1.1c0-0.5,0-0.8,0.1-1.1c0-0.2,0-0.4,0-0.5C462.3,274.1,462.2,273.9,462.1,273.8z"/>
	</g>
</g>
<g>
	<path style="fill:#FF6600;" d="M58,107.8c0.7-1.4,1.4-2.9,2-4.4c-0.6-0.4-1.1-0.8-1.7-1.2c1.1-2.1,1.5-4.5,1.5-7.1V90h11.4
		c0-0.2,0-0.5,0-0.9c-0.1-0.5-0.1-0.9-0.1-1.1h3.3c0,0.7,0,1.4,0.1,2h1.6c-0.3-0.3-0.6-0.7-1-1.1l2.2-1.2c0.5,0.4,1.1,1,1.9,1.8
		l-1,0.6h2.1v2.9h-5.7c0.1,1.3,0.2,2.4,0.4,3.2c0.7-0.9,1.5-1.9,2.1-3.1l2.8,1.6c-1.5,2.3-2.8,3.9-3.8,4.8c0.1,0.1,0.1,0.2,0.2,0.3
		c0.1,0.1,0.1,0.2,0.2,0.3c0.2,0.4,0.4,0.6,0.7,0.6c0.2-0.1,0.4-0.3,0.5-0.6c0.1-0.2,0.2-0.7,0.3-1.2c0.1-0.4,0.1-0.7,0.2-0.9
		c0.1,0.1,0.3,0.2,0.6,0.3c0.5,0.2,1.2,0.4,2,0.7c-0.1,0.2-0.1,0.6-0.2,0.9c-0.1,0.5-0.3,1.1-0.6,1.9c-0.2,0.9-0.8,1.5-1.8,2
		c0.6,0.8,1.3,1.9,2.2,3.3c-0.1-0.1,0,0,0.2,0.3l-3.1,1.5c-0.2-0.4-0.6-1-1-1.8c-0.3-0.4-0.6-0.8-0.7-1.1c-0.2,0.9-0.4,1.5-0.6,1.9
		c-0.5,1.4-1.7,2-3.6,1.9h-5.6c-2,0.1-2.9-0.9-2.9-3v-2.8c-0.9,2.2-1.6,3.9-2.3,5.1L58,107.8z M67.3,103.9l2.3-1.4h-5.9v-5.7h7.2
		v3.1c0.5-0.4,1-0.7,1.5-1c-0.4-1.4-0.7-3.3-0.9-5.9h-8.4v2.2c0.1,3.2-0.5,5.9-1.6,8.4l1.8,0.7v-0.7h3.6v2.5
		c-0.1,0.9,0.3,1.4,1.2,1.3h2.6c1,0.1,1.5-0.3,1.6-1.1c0.2-0.6,0.3-1.2,0.5-1.8c0.9,0.4,1.9,0.7,2.8,1c0-0.1-0.1-0.2-0.2-0.4
		c-0.1-0.1-0.1-0.2-0.2-0.3l1.5-0.7c-1.1-0.2-2.1-0.9-3-2.1c-0.1,0.1-0.3,0.3-0.6,0.5c-0.4,0.3-0.7,0.6-0.9,0.7
		c-0.1-0.2-0.3-0.6-0.6-1.1c-0.2-0.6-0.5-1.1-0.6-1.4v1.9h-0.6c0.2,0.2,0.5,0.6,0.8,1c0.5,0.6,0.9,1.1,1.1,1.4l-3,1.9
		C68.8,105.9,68.1,105,67.3,103.9z M71,96h-7.4v-2.3H71V96z M68.1,100.2V99h-1.8v1.2H68.1z"/>
	<path style="fill:#FF6600;" d="M99.8,88.1h3.3v4.4h1.2v3.2h-1.2v11.4c0.1,1.9-0.9,2.9-2.9,2.9c-1,0-2,0-3.1,0
		c-0.2-1.2-0.4-2.2-0.6-3.1c0.8,0,1.5,0,2,0c0.8,0,1.2-0.3,1.2-0.9v-3.2l-2,0.8c-0.2-0.8-0.6-1.9-1.1-3.3c-0.2-0.4-0.3-0.8-0.4-1
		v8.3c0,1.6-0.8,2.4-2.4,2.5c-0.6,0.1-1.5,0.1-3,0.1c-0.1-0.4-0.2-0.9-0.3-1.7c-0.1-0.4-0.1-0.6-0.2-0.8c-0.7,0.6-1.6,1.1-2.5,1.7
		c-0.1-0.1-0.2-0.3-0.3-0.6c-0.2-0.4-0.5-0.8-0.7-1c-0.3,0.2-0.7,0.6-1.3,1c-0.7,0.7-1.3,1.2-1.7,1.5l-1.6-2.6
		c0.6-0.5,0.8-1.1,0.8-1.8v-7.5h-1.4v-3.5h4.5v9.7c0.2-0.2,0.5-0.4,0.9-0.7c0.1-0.2,0.2-0.3,0.4-0.4H87v-2.8h0.8V90.2h2.2
		c0.1-0.3,0.2-0.7,0.3-1.2c0.1-0.4,0.1-0.8,0.2-1l3.6,0.3c-0.1,0.1-0.1,0.3-0.2,0.6c-0.1,0.2-0.2,0.6-0.5,1.4h2.7v7.9l2.1-0.8
		c0.5,1.3,1,2.5,1.4,3.7v-5.3h-3.1v-3.2h3.1V88.1z M85.1,88.1c0.1,0.2,0.3,0.5,0.5,0.8c0.9,1.6,1.6,2.8,1.9,3.4l-3.1,1.5
		c-0.1-0.2-0.3-0.5-0.5-0.9c-0.7-1.4-1.3-2.6-1.8-3.4L85.1,88.1z M87.9,105.8c1.1-0.7,1.9-1.5,2.5-2.4h-2.5
		C87.9,104.3,87.9,105.1,87.9,105.8z M92.1,107.4c0.7,0.1,1.1-0.2,1-0.8v-2.2c-0.7,1.2-1.6,2.2-2.5,3.1
		C91.2,107.4,91.7,107.4,92.1,107.4z M90.9,92.9v1h2.2v-1H90.9z M90.9,96.2v1.1h2.2v-1.1H90.9z M90.9,99.5v1.1h2.2v-1.1H90.9z"/>
	<path style="fill:#FF6600;" d="M105.6,92.2v-3.1h9.7v3.1h-1v2.7c2.3-1.5,4.1-3.9,5.5-7l3.7,0.3c-0.1,0.1-0.1,0.3-0.2,0.6
		c-0.1,0.2-0.2,0.4-0.3,0.6c1.4,2.5,3.2,4.4,5.4,5.8c-0.1,0.1-0.2,0.3-0.3,0.6c-0.6,1.3-0.9,2.2-1.1,2.8c-2.6-1.8-4.5-3.8-5.8-6.1
		c-1.4,2.2-3.3,4.2-5.8,6.2c-0.2-0.4-0.4-1-0.7-1.9c-0.2-0.4-0.3-0.7-0.4-0.9v7.6c0.1-0.1,0.3-0.1,0.5-0.1c0.2-0.1,0.4-0.1,0.6-0.1
		c-0.1,1.4-0.1,2.5,0,3.3c-0.1,0-0.3,0-0.6,0.1c-0.2,0-0.4,0-0.5,0v3.5h-3v-3c-0.4,0.1-1,0.2-1.8,0.3c-1.5,0.1-2.7,0.3-3.5,0.5
		l-0.6-3.2c0.4,0,0.8-0.1,1.2-0.2V92.2H105.6z M109.6,92.2v2h1.7v-2H109.6z M109.6,96.9V99h1.7v-2.1H109.6z M109.6,104.1
		c0.6-0.1,1.1-0.2,1.7-0.3v-2.1h-1.7V104.1z M117.2,102.6c0.6,0.4,1.4,0.9,2.4,1.5c0.4,0.3,0.7,0.5,0.9,0.7l2.3-2.6h-7.5v-3.2h5
		c-0.5-1-1.1-1.9-1.8-2.9l2.7-1.5c0.3,0.5,0.7,1.1,1.3,1.9c0.4,0.6,0.6,1,0.8,1.3l-2,1.1h5.6v3.3l-3.6,4.4c0.7,0.5,1.4,0.9,2.1,1.2
		l-2.1,2.7c-1.4-1-3.4-2.4-6-4.1c-0.9-0.6-1.5-1-2-1.3L117.2,102.6z"/>
	<path style="fill:#FF6600;" d="M130,89.7h8.2v17.1c1.1-1.9,1.6-4.9,1.6-9.2v-7.9c3.5-0.3,7-0.7,10.3-1.2l1.3,3.5
		c-1.2,0.2-3.1,0.4-5.6,0.7c-1.1,0.1-1.9,0.2-2.5,0.3v3h8.5v3.4h-2.6v10.5h-3.6V99.3h-2.3c0.1,4.5-0.9,8.2-3,11.1
		c-0.5-0.4-1.2-1.1-2.2-1.9c-0.4-0.3-0.6-0.5-0.7-0.6c0.3-0.3,0.6-0.7,0.7-1.1h-4.7v1.4H130V89.7z M133.4,93.1v10.2h1.5V93.1H133.4z
		"/>
	<path style="fill:#FF6600;" d="M159.8,88.9l-0.7,14.2h-3.6l-0.6-14.2H159.8z M159.6,109.3H155v-4.3h4.6V109.3z"/>
</g>
<g>
	<g>
		<path style="fill:#FF6600;" d="M57.7,132h13v35.2h1V132h13v-1h-27V132z M103.8,143c-0.8-0.8-1.8-1.4-2.9-1.8
			c-1.1-0.4-2.4-0.6-3.7-0.6c-1.3,0-2.5,0.2-3.5,0.5c-1,0.4-2,0.9-2.8,1.5c-0.8,0.6-1.5,1.4-2,2.2c-0.5,0.8-0.9,1.8-1.1,2.8h-0.1
			V131h-1v36.2h1v-14.8c0-1.5,0.2-2.8,0.6-4.2c0.4-1.3,1-2.5,1.8-3.5c0.8-1,1.8-1.8,3-2.4c1.2-0.6,2.6-0.9,4.1-0.9
			c1.1,0,2.2,0.2,3.2,0.5c1,0.3,1.9,0.8,2.6,1.5c0.8,0.7,1.4,1.6,1.8,2.6c0.4,1.1,0.7,2.4,0.7,3.9v17.1h1v-17.3c0-1.5-0.2-2.9-0.7-4
			C105.3,144.7,104.7,143.7,103.8,143z M131.7,166.2c-0.3-0.1-0.6-0.2-0.8-0.5c-0.2-0.2-0.3-0.6-0.3-1.1V148c0-1.4-0.3-2.6-0.8-3.5
			c-0.5-0.9-1.1-1.7-1.9-2.3c-0.8-0.6-1.7-1-2.7-1.2c-1-0.2-2.1-0.4-3.3-0.4c-1.6,0-3,0.2-4.2,0.7c-1.2,0.4-2.2,1-3,1.8
			c-0.8,0.8-1.5,1.7-1.9,2.8c-0.4,1.1-0.7,2.2-0.8,3.4h1c0.2-2.4,1-4.3,2.5-5.7c1.5-1.3,3.7-2,6.4-2c1.7,0,3.1,0.2,4.1,0.7
			c1,0.5,1.8,1,2.3,1.7c0.5,0.7,0.9,1.5,1,2.3c0.1,0.8,0.2,1.7,0.2,2.4c0,1-0.2,1.7-0.6,2.3c-0.4,0.5-1,0.9-1.8,1.2
			c-0.8,0.3-1.9,0.4-3.2,0.5c-1.3,0.1-2.8,0.2-4.6,0.3c-1.1,0.1-2.2,0.2-3.2,0.4c-1.1,0.2-2,0.6-2.9,1.2c-0.8,0.6-1.5,1.3-2.1,2.3
			c-0.5,1-0.8,2.3-0.8,3.9c0,2.3,0.8,4.1,2.4,5.2c1.6,1.2,3.7,1.7,6.3,1.7c1.4,0,2.6-0.2,3.8-0.5c1.1-0.4,2.2-0.8,3.1-1.4
			c0.9-0.6,1.6-1.3,2.2-2.1c0.6-0.8,1-1.6,1.3-2.4h0.1v3.4c0,1,0.3,1.6,0.8,2c0.6,0.4,1.2,0.5,2,0.5h1.5v-1c-0.3,0-0.7,0.1-1.1,0.1
			C132.4,166.3,132,166.3,131.7,166.2z M129.5,156.7c0,1.3-0.2,2.5-0.7,3.8c-0.5,1.2-1.1,2.3-2,3.2c-0.9,0.9-2,1.7-3.3,2.3
			c-1.3,0.6-2.8,0.9-4.5,0.9c-1.4,0-2.6-0.2-3.6-0.5c-1-0.4-1.7-0.8-2.4-1.4s-1-1.2-1.3-1.9c-0.3-0.7-0.4-1.5-0.4-2.2
			c0-1.4,0.2-2.5,0.7-3.4c0.4-0.9,1-1.5,1.8-2c0.7-0.5,1.6-0.8,2.6-1c1-0.2,2-0.3,3-0.4c1-0.1,2.1-0.1,3.1-0.2c1.1,0,2.1-0.1,3-0.3
			c0.9-0.1,1.7-0.3,2.4-0.6c0.7-0.3,1.2-0.6,1.6-1.1h0.1V156.7z M153.6,143c-0.8-0.8-1.8-1.4-2.9-1.8c-1.1-0.4-2.4-0.6-3.7-0.6
			c-1.3,0-2.5,0.2-3.5,0.5c-1,0.4-2,0.9-2.8,1.5c-0.8,0.6-1.5,1.4-2,2.2c-0.5,0.8-0.9,1.8-1.1,2.8h-0.1v-6.4h-1v26.1h1v-14.8
			c0-1.5,0.2-2.8,0.6-4.2c0.4-1.3,1-2.5,1.8-3.5c0.8-1,1.8-1.8,3-2.4c1.2-0.6,2.6-0.9,4.1-0.9c1.1,0,2.2,0.2,3.2,0.5
			c1,0.3,1.9,0.8,2.6,1.5c0.8,0.7,1.4,1.6,1.8,2.6c0.4,1.1,0.7,2.4,0.7,3.9v17.1h1v-17.3c0-1.5-0.2-2.9-0.7-4
			C155.1,144.7,154.4,143.7,153.6,143z M182.3,141.2h-1.5l-18,15V131h-1v36.2h1v-9.8l6.7-5.6l12.2,15.4h1.4l-12.8-16.1L182.3,141.2z
			 M206.4,165.8l-10.3-24.7H195l10.8,25.8l-1.9,4.8c-0.3,0.8-0.6,1.4-1,1.9c-0.4,0.5-0.8,0.8-1.2,1c-0.5,0.2-1,0.4-1.6,0.4
			c-0.6,0.1-1.4,0.1-2.3,0.1v1c0.8,0,1.5,0,2.2-0.1c0.7-0.1,1.3-0.2,1.9-0.4c0.6-0.2,1.1-0.6,1.6-1.1c0.5-0.5,0.9-1.2,1.2-2.1
			l12-31.3h-1.1L206.4,165.8z M238.1,144.7c-1-1.2-2.2-2.3-3.7-3c-1.5-0.8-3.1-1.1-5-1.1c-1.9,0-3.6,0.4-5.1,1.1
			c-1.5,0.8-2.7,1.8-3.7,3c-1,1.3-1.7,2.7-2.3,4.3c-0.5,1.6-0.8,3.4-0.8,5.1c0,1.8,0.3,3.5,0.8,5.1c0.5,1.6,1.3,3.1,2.3,4.3
			c1,1.3,2.2,2.2,3.7,3c1.5,0.7,3.1,1.1,5,1.1c1.9,0,3.6-0.4,5.1-1.1c1.5-0.7,2.7-1.7,3.7-3c1-1.3,1.7-2.7,2.3-4.3
			c0.5-1.6,0.8-3.4,0.8-5.1c0-1.8-0.3-3.5-0.8-5.1C239.8,147.4,239.1,146,238.1,144.7z M239.4,158.9c-0.5,1.5-1.1,2.9-2.1,4
			c-0.9,1.2-2,2.1-3.4,2.8c-1.3,0.7-2.9,1-4.6,1c-1.8,0-3.3-0.3-4.6-1c-1.3-0.7-2.5-1.6-3.4-2.8c-0.9-1.2-1.6-2.5-2.1-4
			c-0.5-1.5-0.7-3.1-0.7-4.8c0-1.6,0.2-3.2,0.7-4.7c0.5-1.5,1.1-2.9,2.1-4c0.9-1.2,2-2.1,3.4-2.8c1.3-0.7,2.9-1.1,4.6-1.1
			c1.7,0,3.3,0.4,4.6,1.1c1.3,0.7,2.5,1.6,3.4,2.8c0.9,1.2,1.6,2.5,2.1,4c0.5,1.5,0.7,3.1,0.7,4.7
			C240.1,155.8,239.9,157.4,239.4,158.9z M264.1,141.2v14.8c0,1.5-0.2,2.8-0.6,4.2c-0.4,1.3-1,2.5-1.8,3.5c-0.8,1-1.8,1.8-3,2.4
			c-1.2,0.6-2.6,0.9-4.1,0.9c-1.1,0-2.2-0.2-3.2-0.5c-1-0.3-1.9-0.8-2.6-1.5c-0.8-0.7-1.4-1.6-1.8-2.6c-0.4-1.1-0.7-2.4-0.7-3.9
			v-17.1h-1v17.3c0,1.5,0.2,2.9,0.7,4c0.5,1.2,1.1,2.1,1.9,2.9c0.8,0.8,1.8,1.4,2.9,1.8c1.1,0.4,2.4,0.6,3.7,0.6
			c2.6,0,4.7-0.7,6.3-2c1.6-1.3,2.6-3,3.1-5h0.1v6.4h1v-26.1H264.1z"/>
	</g>
</g>
<g>
	<defs>
		<rect id="SVGID_1_" x="332" y="3.9" width="147.7" height="73.2"/>
	</defs>
	<clipPath id="SVGID_2_">
		<use xlink:href="#SVGID_1_"  style="overflow:visible;"/>
	</clipPath>
	<g style="clip-path:url(#SVGID_2_);">
		<path style="fill:#FD4B00;" d="M477.4-53.8c-11.4,2-20.6,5.8-20.6,5.8s-2.4,0.9-6.2,2.2c6.3,4.5,12,8.4,15.1,9.6
			c30.9,12.1,62.4,3,64.5,23.9c0.1-0.8,0.2-1.6,0.2-2.4c0.1-7.6-4.9-18-16.3-26.1C505.7-46.7,493.3-51.8,477.4-53.8"/>
		<path style="fill:#FD4B00;" d="M440-53.2c-1.7,0.2-3.3,0.5-5,0.8c0,0-14.4,3-29.8,11.9c3.3,1,7,1.4,10.9,1.4c4,0,8.2-0.4,12.4-1.1
			c8.6-1.4,16.8-3.8,22.1-5.6C447.2-48.2,443.6-50.8,440-53.2"/>
		<path style="fill:#FF6600;" d="M461.5-54.8c-6.7,0-13.9,0.5-21.5,1.6c3.6,2.4,7.2,5,10.6,7.4c3.8-1.3,6.2-2.2,6.2-2.2
			s9.2-3.8,20.6-5.8C472.4-54.5,467.1-54.8,461.5-54.8"/>
		<path style="fill:#FDBC52;" d="M378.5-48.2c-2.2,0-4.3,0.2-6.3,0.5c-13.4,2.2-21.1,10.6-21.1,10.6c-9.7,11.7-11.1,19.9-10.9,30.5
			c0.3,15.8,10,30.3,25.2,30.3c1.3,0,2.7-0.1,4.1-0.3l0.1,0l0.2,0c0.1,0,0.2,0,0.4-0.1c-3.1-15.2,3.5-28.5,7.1-37.5
			c-2.4-6.3-3.3-12.6-2.4-18.8c0.8-5.5,3.1-10.6,6.4-15.1C380.4-48.2,379.4-48.2,378.5-48.2 M490.2-55c-3.8,0-7.7,0.4-11.4,1
			c-0.5,0.1-0.9,0.2-1.4,0.2c15.9,2.1,28.3,7.1,36.8,13.1c11.4,8.1,16.4,18.5,16.3,26.1c0,0.8-0.1,1.6-0.2,2.4
			c0.2,2.1,0.1,4.6-0.3,7.4c-6.3,25.2-37.4,42.4-69.9,42.4c-4.4,0-8.8-0.3-13.1-0.9c-0.9-0.1-1.9,0.7-2.9,0.5
			C436.4,41,428,46,419.4,49.9c0.2,0.2,0.4,0.3,0.5,0.5c8.7,7.3,20.9,12.5,37.3,12.5c4.4,0,9-0.4,14-1.2c0.1,0,0.2,0,0.4-0.1
			c32.8-5.4,61.4-33.1,60.9-66.9c-0.4-29.7-13.7-41.8-28.3-47.4C500-54.4,495.1-55,490.2-55"/>
		<path style="fill:#FF9B48;" d="M530.3-12.2c-1.3,8.5-9.1,18.3-28.3,18.3c-1.2,0-2.5,0-3.8-0.1c-1.8-0.1-3.6-0.2-5.2-0.2
			c-11.5,0-22,4.4-32.5,15.7c-3.1,2.9-9.2,9.5-17.3,15.7c1,0.2,2.9,0.3,3.9,0.5c4.3,0.6,8.7,0.9,13.1,0.9
			c32.5,0,65.9-16.8,69.9-43.4C530.4-7.7,530.5-10.1,530.3-12.2 M381.3-48.1c-3.3,4.4-5.6,9.6-6.4,15.1c-0.9,6.1,0,12.5,2.4,18.8
			c2.4-4,5.5-6.4,5.5-6.4c8-7.5,15-13.9,22.4-19.8c-1.5-0.4-2.8-1-4.1-1.6C393.8-46,387.2-47.7,381.3-48.1"/>
		<path style="fill:#FDBC52;" d="M413.1-64c-12.6,0-24.6,6.4-31.7,15.9c5.9,0.4,12.5,2.1,19.7,6c1.3,0.7,2.7,1.2,4.1,1.6
			c15.4-8.9,29.8-11.9,29.8-11.9c1.7-0.3,3.4-0.6,5-0.8c-6.8-4.6-13.3-8.6-17.6-9.6C419.3-63.6,416.2-64,413.1-64"/>
		<path style="fill:#FF6600;" d="M377.6,21.6c-2.3,0-4.7,1.2-7.4,1.6c2.2,6.9,6.9,13.8,15.7,20c8.1,5.7,16.1,7.9,23.7,7.9
			c3.4,0,6.6-0.4,9.8-1.2C404.5,34,395.8,20.3,377.6,21.6"/>
		<path style="fill:#FD4B00;" d="M377.3-14.3c-5,8.2-11.7,22.9-7.1,37.5c2.7-0.4,5.1-0.6,7.4-0.6c18.4,0,24.9,12.9,41.8,27.3
			c9.3-2.2,17.7-7.3,24.7-12.7C417,30.4,387.6,8.1,377.3-14.3"/>
		<path style="fill:#FF6600;" d="M450.6-45.8c-5.4,1.8-13.6,4.2-22.1,5.6c-4.1,0.7-8.3,1.1-12.4,1.1c-3.9,0-7.6-0.4-10.9-1.4
			c-8.2,4.8-16.6,11.2-23.4,19.8c0,0-2,2.4-4.5,6.4c9,23.8,38.9,46.3,66.8,51.5c8.1-6.2,14.2-12.8,17.3-15.7
			c11.6-10.9,20-14.7,31.5-14.7c1.7,0,3.4,0.1,5.2,0.2c1.3,0.1,2.6,0.1,3.8,0.1c19.2,0,27-10.9,28.3-19.3
			c-2.2-20.9-33.6-11.9-64.5-23.9C462.6-37.4,457-41.3,450.6-45.8"/>
		<path style="fill:#FDBC52;" d="M363.6,65.8c-0.3,0-0.5,0-0.8,0.1l-0.2,0c-2.1,0.5-3.4,2.6-3,4.8c0.4,2,2.1,3.3,4,3.3
			c0.3,0,0.5,0,0.8-0.1l0.2,0c2.1-0.5,3.4-2.6,3-4.8C367.3,67.1,365.6,65.8,363.6,65.8 M376.2,47.3c-0.1,0-0.2,0-0.2,0
			c-0.8,0-1.5,0.1-2.2,0.3c-4.1,1.1-7.2,4.7-7.1,9c0,4.9,4.1,8.8,9.2,8.8c0.1,0,0.2,0,0.2,0c0.8,0,1.5-0.1,2.2-0.3
			c4.1-1,7.2-4.7,7.1-9C385.4,51.2,381.3,47.3,376.2,47.3"/>
	</g>
</g>
</svg>
