<?xml version="1.0" encoding="utf-8"?>
<!-- Generator: Adobe Illustrator 17.1.0, SVG Export Plug-In . SVG Version: 6.00 Build 0)  -->
<!DOCTYPE svg PUBLIC "-//W3C//DTD SVG 1.1//EN" "http://www.w3.org/Graphics/SVG/1.1/DTD/svg11.dtd">
<svg version="1.1" id="图层_1" xmlns="http://www.w3.org/2000/svg" xmlns:xlink="http://www.w3.org/1999/xlink" x="0px" y="0px"
	 viewBox="0 0 819 597.2" style="enable-background:new 0 0 819 597.2;" xml:space="preserve">
<rect x="2.7" y="151.6" style="fill:#FFFFFF;stroke:#999999;stroke-miterlimit:10;" width="301.7" height="441.9"/>
<rect x="514.5" y="151.5" style="fill:#FFFFFF;stroke:#999999;stroke-miterlimit:10;" width="301.7" height="441.9"/>
<circle style="fill:none;stroke:#999999;" cx="93.7" cy="182.4" r="4.2"/>
<circle style="fill:none;stroke:#999999;" cx="214.4" cy="182.4" r="4.2"/>
<rect x="356.4" y="150.8" style="fill:#FF6600;" width="103.7" height="441.8"/>
<g>
	<path style="fill:#FFFFFF;" d="M387.8,579.9h-0.5l-0.6-2.3c0-0.1,0-0.2,0-0.3c0,0,0,0.1,0,0.2c0,0.1,0,0.1,0,0.2l-0.6,2.3h-0.5
		l-0.9-3h0.5l0.7,2.4c0,0,0,0.1,0,0.2c0,0,0,0.1,0,0.1h0c0-0.1,0-0.1,0-0.2c0,0,0,0,0-0.1l0.6-2.4h0.5l0.6,2.4c0,0,0,0.1,0,0.1
		c0,0.1,0,0.1,0,0.1h0c0-0.1,0-0.1,0-0.2l0.7-2.4h0.5L387.8,579.9z"/>
	<path style="fill:#FFFFFF;" d="M391.9,579.9h-0.5l-0.6-2.3c0-0.1,0-0.2,0-0.3c0,0,0,0.1,0,0.2c0,0.1,0,0.1,0,0.2l-0.6,2.3h-0.5
		l-0.9-3h0.5l0.7,2.4c0,0,0,0.1,0,0.2c0,0,0,0.1,0,0.1h0c0-0.1,0-0.1,0-0.2c0,0,0,0,0-0.1l0.6-2.4h0.5l0.6,2.4c0,0,0,0.1,0,0.1
		c0,0.1,0,0.1,0,0.1h0c0-0.1,0-0.1,0-0.2l0.7-2.4h0.5L391.9,579.9z"/>
	<path style="fill:#FFFFFF;" d="M396.1,579.9h-0.5l-0.6-2.3c0-0.1,0-0.2,0-0.3c0,0,0,0.1,0,0.2c0,0.1,0,0.1,0,0.2l-0.6,2.3h-0.5
		l-0.9-3h0.5l0.7,2.4c0,0,0,0.1,0,0.2c0,0,0,0.1,0,0.1h0c0-0.1,0-0.1,0-0.2c0,0,0,0,0-0.1l0.6-2.4h0.5l0.6,2.4c0,0,0,0.1,0,0.1
		c0,0.1,0,0.1,0,0.1h0c0-0.1,0-0.1,0-0.2l0.7-2.4h0.5L396.1,579.9z"/>
	<path style="fill:#FFFFFF;" d="M397.7,579.9v-0.6h0.6v0.6H397.7z"/>
	<path style="fill:#FFFFFF;" d="M399.5,577.8l-0.4-0.1c0.2-0.6,0.6-0.9,1.4-0.9c0.8,0,1.2,0.4,1.2,1.2v1.2c0,0.3,0,0.6,0.2,0.7h-0.4
		c-0.1-0.1-0.1-0.2-0.1-0.4c-0.2,0.3-0.6,0.5-1.2,0.5c-0.6,0-1-0.3-1-0.8c0-0.6,0.4-0.9,1.1-1c0.6-0.1,0.9-0.1,1.1-0.2
		c0-0.6-0.2-0.8-0.8-0.8C399.9,577.1,399.6,577.3,399.5,577.8z M401.2,578.7v-0.4c-0.1,0.1-0.4,0.2-0.9,0.2
		c-0.6,0.1-0.8,0.3-0.8,0.6c0,0.3,0.2,0.5,0.7,0.5C400.8,579.5,401.1,579.2,401.2,578.7z"/>
	<path style="fill:#FFFFFF;" d="M402.4,575.7h0.4v4.1h-0.4V575.7z"/>
	<path style="fill:#FFFFFF;" d="M403.7,575.7h0.4v0.6h-0.4V575.7z M403.7,576.8h0.4v3h-0.4V576.8z"/>
	<path style="fill:#FFFFFF;" d="M408.9,577.9v2h-0.4V578c0-0.6-0.2-0.9-0.6-0.9c-0.5,0-0.7,0.3-0.8,0.9v1.9h-0.4V578
		c0-0.6-0.2-0.9-0.6-0.9c-0.5,0-0.7,0.3-0.8,0.8v1.9h-0.4v-3h0.4v0.5c0.2-0.4,0.5-0.5,0.8-0.5c0.5,0,0.8,0.2,0.9,0.6
		c0.2-0.4,0.5-0.6,0.9-0.6C408.6,576.7,409,577.1,408.9,577.9z"/>
	<path style="fill:#FFFFFF;" d="M410,577.8l-0.4-0.1c0.2-0.6,0.6-0.9,1.4-0.9c0.8,0,1.2,0.4,1.2,1.2v1.2c0,0.3,0,0.6,0.2,0.7h-0.4
		c-0.1-0.1-0.1-0.2-0.1-0.4c-0.2,0.3-0.6,0.5-1.2,0.5c-0.6,0-1-0.3-1-0.8c0-0.6,0.4-0.9,1.1-1c0.6-0.1,0.9-0.1,1.1-0.2
		c0-0.6-0.2-0.8-0.8-0.8C410.4,577.1,410.1,577.3,410,577.8z M411.7,578.7v-0.4c-0.1,0.1-0.4,0.2-0.9,0.2c-0.6,0.1-0.8,0.3-0.8,0.6
		c0,0.3,0.2,0.5,0.7,0.5C411.3,579.5,411.6,579.2,411.7,578.7z"/>
	<path style="fill:#FFFFFF;" d="M417,577.9v2h-0.4V578c0-0.6-0.2-0.9-0.6-0.9c-0.5,0-0.7,0.3-0.8,0.9v1.9h-0.4V578
		c0-0.6-0.2-0.9-0.6-0.9c-0.5,0-0.7,0.3-0.8,0.8v1.9h-0.4v-3h0.4v0.5c0.2-0.4,0.5-0.5,0.8-0.5c0.5,0,0.8,0.2,0.9,0.6
		c0.2-0.4,0.5-0.6,0.9-0.6C416.7,576.7,417,577.1,417,577.9z"/>
	<path style="fill:#FFFFFF;" d="M418.1,577.8l-0.4-0.1c0.2-0.6,0.6-0.9,1.4-0.9c0.8,0,1.2,0.4,1.2,1.2v1.2c0,0.3,0,0.6,0.2,0.7h-0.4
		c-0.1-0.1-0.1-0.2-0.1-0.4c-0.2,0.3-0.6,0.5-1.2,0.5c-0.6,0-1-0.3-1-0.8c0-0.6,0.4-0.9,1.1-1c0.6-0.1,0.9-0.1,1.1-0.2
		c0-0.6-0.2-0.8-0.8-0.8C418.5,577.1,418.2,577.3,418.1,577.8z M419.7,578.7v-0.4c-0.1,0.1-0.4,0.2-0.9,0.2
		c-0.6,0.1-0.8,0.3-0.8,0.6c0,0.3,0.2,0.5,0.7,0.5C419.3,579.5,419.7,579.2,419.7,578.7z"/>
	<path style="fill:#FFFFFF;" d="M421.1,579.9v-0.6h0.6v0.6H421.1z"/>
	<path style="fill:#FFFFFF;" d="M423.9,577.1c-0.6,0-0.9,0.4-0.9,1.2c0,0.8,0.3,1.2,0.9,1.2c0.5,0,0.8-0.3,0.8-0.8l0.5,0.1
		c-0.1,0.7-0.5,1.1-1.3,1c-0.9,0-1.3-0.5-1.4-1.6c0-1,0.5-1.6,1.3-1.6c0.7,0,1.1,0.3,1.2,0.9l-0.4,0.1
		C424.5,577.4,424.3,577.2,423.9,577.1z"/>
	<path style="fill:#FFFFFF;" d="M426.8,579.9c-0.9-0.1-1.4-0.6-1.4-1.5c0-1.1,0.5-1.6,1.5-1.6c0.9,0,1.3,0.6,1.4,1.6
		C428.2,579.4,427.7,579.9,426.8,579.9z M426.8,577.1c-0.6,0-1,0.4-1,1.3c0,0.8,0.3,1.2,1,1.2c0.6,0,0.9-0.4,0.9-1.2
		C427.7,577.6,427.4,577.2,426.8,577.1z"/>
	<path style="fill:#FFFFFF;" d="M432.9,577.9v2h-0.4V578c0-0.6-0.2-0.9-0.6-0.9c-0.5,0-0.7,0.3-0.8,0.9v1.9h-0.4V578
		c0-0.6-0.2-0.9-0.6-0.9c-0.5,0-0.7,0.3-0.8,0.8v1.9h-0.4v-3h0.4v0.5c0.2-0.4,0.5-0.5,0.8-0.5c0.5,0,0.8,0.2,0.9,0.6
		c0.2-0.4,0.5-0.6,0.9-0.6C432.6,576.7,432.9,577.1,432.9,577.9z"/>
</g>
<g>
	<path style="fill:#FFFFFF;" d="M409.2,261.8c-1,0.3-2.1,0.6-3.3,0.9c-1.1-1.2-2.2-2.3-3.2-3.4c-0.8-0.7-1.4-1.2-1.7-1.4l2.3-1.9
		c0.6,0.5,1.3,0.8,2.1,0.8h4.6v-1.8h3v4.8h-5.9c0.2,0.2,0.5,0.5,1,0.9C408.6,261.2,408.9,261.5,409.2,261.8z M419,265.1v3.4h-5v4.8
		h-3.1v-4.8h-6.7v5.3h-2.9V261h2.9v4.1H419z M419.2,258.6c-1.4,1.2-2.5,2.3-3.4,3l-2-2.6c0.1-0.1,0.3-0.2,0.5-0.3
		c1.2-1,2.3-1.9,3-2.6L419.2,258.6z"/>
	<path style="fill:#FFFFFF;" d="M412.2,275.3v7.2c0.8,0.1,1.8,0.1,2.9,0.1v-6.2h3v16.1h-3v-6.4c-0.4,0-0.9,0-1.5-0.1
		c-0.6,0-1.1,0-1.4,0v7.6h-3v-7.2c-2.8,1-4.5,3.6-5.4,7.6c-1-0.7-2.1-1.3-3.1-1.9c1.2-4.1,3.1-6.6,5.6-7.6c-2.3-1-4.3-3.5-5.8-7.6
		c1.1-0.7,2.1-1.3,2.8-1.9c1.5,4.4,3.5,6.8,5.9,7.3v-6.9H412.2z"/>
	<path style="fill:#FFFFFF;" d="M418.1,295.1v18.6h-3.2v-8.2h-3.7l1.7,1.5c-1.6,2.2-3.1,4.3-4.6,6.2l-2.7-2.3c1.7-2,3.2-3.8,4.4-5.5
		h-9.3v-3.6h14.3v-6.8H418.1z"/>
	<path style="fill:#FFFFFF;" d="M408.5,317.4l-1.2,3c-0.7-0.2-1.8-0.6-3.3-1.1c-1.6-0.5-2.8-0.9-3.6-1.2l1.2-3
		C404.4,316.1,406.7,316.9,408.5,317.4z M411.4,332.7h-3c-1.6-1.1-3-2.2-4.1-3.4c-0.5,1.2-0.9,2.8-1.2,4.6c-0.4-0.3-1-0.7-2-1.2
		c-0.3-0.2-0.5-0.3-0.7-0.4c0.6-2.4,1.2-4.4,2-5.8c-0.9-1.7-1.6-3.6-2.1-5.7c0.3-0.2,0.6-0.4,1.1-0.6c0.7-0.4,1.2-0.7,1.6-0.9
		c0.4,1.8,0.9,3.2,1.3,4.4c0.9-0.8,1.9-1.7,3-2.6l1.2,1.9v-2.4h2.7V332.7z M408.7,323.8c-1.1,0.9-2,1.8-2.7,2.7
		c0.7,0.9,1.6,1.8,2.7,2.6V323.8z M414.1,316.9c-0.5,0.6-1.2,1.5-2.2,2.7c-0.3,0.3-0.5,0.5-0.6,0.7l-2.5-2.3c0.8-0.8,1.8-1.8,3-3.2
		L414.1,316.9z M415,332.2v1.6c-0.9-0.2-1.8-0.3-2.7-0.5c0-0.2,0-0.5,0-1c-0.1-0.6-0.1-1.1-0.1-1.6c-0.1-1.7,0.7-2.5,2.3-2.5h1.2
		V325c-1.8,0-3.2-1.1-4.3-3.2c0.7-0.7,1.4-1.4,2.1-2.1c0.8,1.8,1.9,2.6,3.3,2.4h1.6v9.2h-2.8C415.2,331.2,414.9,331.5,415,332.2z
		 M419.1,317.6c-0.9,1.2-1.8,2.3-2.7,3.4l-2.4-2.3c1-0.9,1.9-2,2.9-3.1L419.1,317.6z"/>
	<path style="fill:#FFFFFF;" d="M400.5,341.1v-3.2h7.3c-0.4-0.3-0.8-0.8-1.4-1.5c-0.2-0.3-0.4-0.4-0.5-0.5c0.7-0.2,1.8-0.6,3.4-1.1
		c1.8,2,3.5,3.5,5.3,4.4v-4.1h2.8v5.5c0.3,0.1,0.6,0.2,1.2,0.4c0.3,0.1,0.5,0.2,0.7,0.2l-0.2,3.6c-0.5-0.2-1.1-0.4-1.6-0.6v9.6h-2.8
		v-10.8c-0.2-0.1-0.5-0.3-0.8-0.5l-0.2-0.1v9.7h-10.2c-1.9,0.2-2.9-0.8-2.8-3c-0.1-0.9-0.1-2.1-0.1-3.5c1-0.2,1.9-0.4,2.6-0.7
		c0,0.9,0,1.8,0,2.6c-0.1,0.9,0.3,1.4,1.1,1.4v-7.8H400.5z M407.5,341.1h-0.9v7.8h0.9V341.1z M411,341.1h-1v7.8h1V341.1z"/>
	<path style="fill:#FFFFFF;" d="M418.8,370.3c-0.3,0.1-0.7,0.2-1.4,0.4c-0.6,0.2-1.1,0.3-1.4,0.4v2.3h-2.5v-2.9H412v2.7h-2.5v-2.7
		h-1.6v2.7h-2.5v-2.7h-1.6v3h-2.3v-8h-1.1v-2.9h3.1l-1.3-2.1c0.3-0.3,0.8-0.6,1.6-1c0.6-0.3,1-0.5,1.2-0.7c-1.4-0.7-2.7-1.7-4.1-3
		c0.5-0.2,1.1-0.5,1.9-0.8c0.6-0.2,1-0.4,1.2-0.5c1.2,1.1,2.5,1.9,3.9,2.6c0.4-0.3,1-0.6,1.9-1.1c1.1-0.7,2-1.2,2.7-1.6l1.4,2.2
		c-0.9,0.6-1.8,1.1-2.7,1.6c1.1,0.3,2.3,0.5,3.6,0.5v-3.8h2.8v6.8c-1.7-0.1-3.3-0.2-4.7-0.5c1.8,1.1,3.9,2,6.3,2.6l-0.5,3.1
		c-1-0.3-1.9-0.6-2.8-0.9v1.9c0.8-0.2,1.6-0.4,2.5-0.7L418.8,370.3z M405.4,365.6h-1.6v2.2h1.6V365.6z M408.8,361.8
		c1-0.2,1.9-0.4,2.7-0.7c-1.1-0.2-2.2-0.4-3.3-0.9c-0.6,0.3-1.4,0.8-2.3,1.4c-0.8,0.5-1.4,0.8-1.7,1h5.8
		C409.6,362.4,409.2,362.2,408.8,361.8z M409.5,365.6h-1.6v2.2h1.6V365.6z M413.5,365.6H412v2.2h1.5V365.6z"/>
	<path style="fill:#FFFFFF;" d="M419.1,387.7l-0.5,2.9c-0.9-0.2-1.9-0.5-2.8-0.9v4h-2.7V393c-3.2-0.2-5.7-0.8-7.6-1.7
		c-0.7,0.7-1.5,1.5-2.3,2.4c-1-0.5-1.9-1-2.7-1.4c0.8-1.1,1.6-2,2.4-2.7c-0.9-0.9-1.8-1.9-2.7-3c0.8-0.5,1.5-0.9,2.2-1.4v-2.9h-0.9
		v-2.6h9.2v1.7h2.3v-1.9h2.7v1.9h3.2v2.9h-3.2v1.6h-2.5C415,386.7,416.9,387.3,419.1,387.7z M400.6,378.8v-2.7h8
		c-0.6-0.3-1.1-0.6-1.6-0.9c1.4-0.2,2.8-0.4,4.1-0.6c1.9,0.9,4.5,1.7,7.9,2.6l-0.5,2.9c-1.4-0.4-2.7-0.8-3.9-1.2H400.6z M405.6,388
		c1.2-0.5,2.7-0.9,4.3-1.2c-0.1-0.1-0.2-0.1-0.3-0.2c-0.2-0.2-0.3-0.3-0.4-0.3c0.2-0.1,0.4-0.1,0.7-0.2c0.3-0.1,0.4-0.2,0.5-0.2
		h-6.9C404.2,386.7,404.9,387.4,405.6,388z M408.2,382.3h-3.3v1.1h3.3V382.3z M413.1,388.8c-1.9,0.1-3.4,0.3-4.7,0.8
		c1.2,0.4,2.8,0.6,4.7,0.8V388.8z M412.1,385.4c0.3,0.2,0.6,0.3,0.9,0.4v-1.5h-2.3v1.5C411.2,385.6,411.7,385.5,412.1,385.4z"/>
	<path style="fill:#FFFFFF;" d="M404.7,413c-2.5,0-3.8-1.1-3.8-3.4c-0.1-0.9-0.1-2.1-0.1-3.6c0.2-0.1,0.5-0.1,0.9-0.2
		c0.6-0.1,1.3-0.3,2.1-0.5c-0.1,0.6-0.1,1.6-0.1,2.8c-0.1,1.1,0.4,1.7,1.6,1.7c0.5,0,1.6,0,3.3,0c2.2,0.1,3.7,0.1,4.6,0.1v-2.7
		c-0.8-0.3-1.6-0.7-2.4-1.1c0.4-0.8,0.9-1.6,1.3-2.4h-11.3v-3h1.1v-2.3h-1.2v-3h15.4v2.2c1,0.3,2,0.4,2.9,0.5l-0.4,3.4
		c-0.2-0.1-0.4-0.1-0.6-0.2c-0.6-0.1-1.2-0.3-1.9-0.5v2.8h-3.3c2.2,1,4.3,1.8,6.2,2.3l-0.7,3.1c-0.3-0.1-0.6-0.2-1.1-0.3
		c-0.5-0.2-0.9-0.3-1.2-0.4v4.8C410.5,413.1,406.6,413,404.7,413z M407.5,398.4h-2.7v2.3h2.7V398.4z M411.1,406.8
		c-0.6,0.5-1.5,1.1-2.7,2c-0.5,0.4-0.9,0.6-1.2,0.9l-1.7-2.7c1.7-1.1,3-2,4-2.7L411.1,406.8z M413.2,398.4h-2.7v2.3h2.7V398.4z"/>
	<path style="fill:#FFFFFF;" d="M400.5,424.7v-3h9.5c-0.3-0.2-0.7-0.5-1-0.8c0.2,0,0.5,0,0.8-0.1c0.4-0.1,0.6-0.1,0.8-0.2
		c-1.1,0-2,0-2.7,0c-0.2-0.4-0.3-0.8-0.3-1.2H403c-1.5,0.1-2.3-0.6-2.3-2c-0.1-0.7-0.2-1.4-0.2-2.2c0.1,0,0.2,0,0.4-0.1
		c0.7-0.1,1.5-0.3,2.4-0.5v1.2c0,0.5,0.3,0.7,0.8,0.6h2.6c-0.2-0.5-0.3-1.1-0.5-1.7l3.3-0.2c0,0.1,0,0.2,0.1,0.4
		c0.1,0.4,0.2,0.9,0.3,1.6h3.3v-1.6h2.8v1.6h3.1v2.9H416v1.3h-2.3c1.4,0.9,3.2,1.6,5.6,2.3l-0.4,3.3c-0.3-0.1-0.8-0.3-1.4-0.5
		c-0.7-0.3-1.2-0.4-1.5-0.5v2.3c0.8-0.3,1.7-0.5,2.6-0.9l0.3,3.1c-0.2,0.1-0.4,0.1-0.7,0.2c-0.5,0.2-1.2,0.4-2.2,0.6v2.7h-2.5v-3.1
		h-1.6v2.9h-2.5v-2.9h-1.5v2.9h-2.5v-2.9h-1.6v3.3h-2.3v-8.8H400.5z M405.4,424.7h-1.6v2.5h1.6V424.7z M409.4,424.7h-1.5v2.5h1.5
		V424.7z M410.6,419.5c0.1,0.3,0.2,0.7,0.2,1.1c0.6-0.1,1.2-0.2,1.8-0.4c0.2,0.2,0.3,0.3,0.5,0.3v-1H410.6z M413.5,424.7h-1.6v2.5
		h1.6V424.7z"/>
	<path style="fill:#FFFFFF;" d="M410.3,439.8c-2.5,0-4.4-0.2-5.8-0.5c-1.2-0.3-2.6-0.9-4.1-1.8c0.7-0.9,1.5-1.9,2.2-3
		c1.1,0.8,2.1,1.3,3.1,1.6c0.9,0.2,2.5,0.3,4.6,0.3h6.7v6.8c0.4-0.1,1-0.3,1.8-0.5c0.2-0.1,0.3-0.1,0.3-0.1l0.2,4.2
		c-0.2,0.1-0.6,0.2-1.1,0.3c-0.6,0.1-1,0.2-1.2,0.2v6.1h-3.1v-13.6H410.3z"/>
</g>
<circle style="fill:none;stroke:#999999;" cx="597.7" cy="180.6" r="4.2"/>
<circle style="fill:none;stroke:#999999;" cx="718.4" cy="180.6" r="4.2"/>
<g>
	<path style="fill:#E0690E;" d="M559.2,567.8h0.4c0.1,0,0.1,0,0.2,0c0,0,0.1,0,0.1-0.1c0,0,0-0.1,0-0.1c0-0.1,0-0.1-0.1-0.1
		c0,0-0.1-0.1-0.2-0.1h-0.4V567.8z M559,568.5v-1.3h0.6c0.1,0,0.2,0,0.3,0c0.1,0,0.1,0.1,0.1,0.1c0,0.1,0.1,0.1,0.1,0.2
		c0,0.1,0,0.2-0.1,0.2c-0.1,0.1-0.1,0.1-0.3,0.1c0,0,0.1,0,0.1,0.1c0,0,0.1,0.1,0.1,0.2l0.2,0.4h-0.2l-0.2-0.3
		c0-0.1-0.1-0.1-0.1-0.2c0,0-0.1-0.1-0.1-0.1c0,0-0.1,0-0.1,0c0,0-0.1,0-0.1,0h-0.2v0.6H559"/>
	<path style="fill-rule:evenodd;clip-rule:evenodd;fill:#E0690E;" d="M559.5,569.2c0.7,0,1.2-0.5,1.2-1.2c0-0.7-0.5-1.2-1.2-1.2
		c-0.7,0-1.2,0.5-1.2,1.2C558.3,568.6,558.9,569.2,559.5,569.2z M558.5,567.9c0-0.6,0.5-1,1-1c0.6,0,1,0.5,1,1c0,0.6-0.5,1-1,1
		C559,569,558.5,568.5,558.5,567.9"/>
</g>
<g>
	<g id="形状_2_copy_3_副本_4_33_">
		<g>
			<path style="fill-rule:evenodd;clip-rule:evenodd;fill:#CCCCCC;" d="M49.5,362.6c-1.7,3.3-3.2,6.3-5,9.8h2.4
				c0.4-0.8,0.7-1.3,1.2-2.3c1.2,0,2.2,0,3.4,0c-0.3-0.7-0.4-1.3-0.6-1.9h-1.9c0.6-1.1,0.9-1.7,1.7-3.3c0.9,2.6,1.8,5.1,2.6,7.4h2.2
				c-1.2-3.4-2.3-6.4-3.4-9.8H49.5z M56.1,372.4h2.1l0.4-9.8l-2,0L56.1,372.4z M59.4,372.4h2.2l0.3-7.3h-2.1L59.4,372.4z
				 M59.8,362.6l-0.1,1.6c0,0,1.6,0,2.1,0l0.1-1.6C60.1,362.6,60,362.6,59.8,362.6z M73.1,365.2c-0.4-0.1-0.8-0.2-1.2-0.2
				c-0.2,0-0.5,0-0.7,0.1c-0.2,0-0.4,0.1-0.6,0.2c-0.2,0.1-0.3,0.2-0.5,0.3c-0.1,0.1-0.3,0.2-0.4,0.3c-0.1,0.1-0.2,0.3-0.3,0.4
				c-0.1-0.2-0.2-0.4-0.3-0.5c-0.1-0.1-0.2-0.2-0.3-0.3c-0.1-0.1-0.3-0.2-0.4-0.3c-0.2-0.1-0.3-0.1-0.5-0.2c-0.2,0-0.4-0.1-0.6-0.1
				c-0.3,0-0.6,0-0.8,0.1c-0.3,0.1-0.5,0.2-0.7,0.3c-0.2,0.1-0.4,0.2-0.5,0.4c-0.1,0.1-0.3,0.3-0.4,0.5l0.1-1.2H63l-0.3,7.3
				c0,0,1.6,0,2,0c0-0.6,0-1.5,0.1-2.5c0.1-1.1,0.1-1.8,0.3-2.1c0.1-0.4,0.3-0.7,0.6-0.9c0.3-0.2,0.5-0.3,0.9-0.3
				c0.2,0,0.3,0,0.5,0.1c0.1,0.1,0.3,0.2,0.4,0.3c0.1,0.1,0.2,0.3,0.2,0.4c0,0.1,0.1,0.3,0.1,0.5c0,0.4,0,1.2-0.1,2.3
				c-0.1,1.1-0.1,1.9-0.1,2.3c0.4,0,1.7,0,2,0l0-2c0-0.7,0.1-1.3,0.1-1.7c0-0.4,0.1-0.8,0.2-1c0.1-0.2,0.2-0.5,0.3-0.6
				c0.2-0.2,0.3-0.3,0.5-0.4c0.2-0.1,0.4-0.1,0.6-0.1c0.2,0,0.4,0,0.6,0.1c0.2,0.1,0.3,0.2,0.4,0.4c0.1,0.2,0.2,0.4,0.2,0.8
				c0,0.3,0,0.6,0,1.1l-0.1,1.6c0,0.7-0.1,1.3-0.1,1.9c0.4,0,1.7,0,2,0c0-0.5,0-1.3,0.1-2.3c0-1,0.1-1.7,0.1-2.2
				c0-0.4,0.1-0.8,0.1-1c0-0.4-0.1-0.8-0.3-1.1C73.8,365.5,73.5,365.3,73.1,365.2z M80.9,365.1c-0.4-0.1-0.9-0.2-1.4-0.2
				c-0.5,0-0.9,0-1.4,0.1c-0.5,0.1-1.7,0.3-1.7,0.3l-0.2,1.4c0,0,2-0.6,2.9-0.6c0.2,0,0.4,0,0.6,0.1c0.2,0.1,0.4,0.1,0.5,0.3
				c0.1,0.1,0.2,0.3,0.2,0.5c0,0.1,0,0.2-0.1,0.3c0,0.1-0.1,0.2-0.2,0.3c-0.1,0.1-0.2,0.2-0.3,0.2c-0.1,0.1-0.3,0.1-0.5,0.2
				c-0.2,0.1-0.4,0.1-0.6,0.1c-0.7,0.1-1.2,0.3-1.7,0.4c-0.4,0.1-0.7,0.3-1,0.4c-0.2,0.2-0.4,0.3-0.5,0.5c-0.1,0.2-0.2,0.4-0.3,0.6
				c-0.1,0.2-0.1,0.4-0.1,0.6c0,0.4,0.1,0.7,0.3,1.1c0.2,0.4,0.5,0.6,0.9,0.8c0.4,0.2,0.9,0.2,1.5,0.2c0.2,0,0.4,0,0.6,0
				c0.2,0,0.5,0,0.8-0.1c0.1-0.5,0.3-0.9,0.4-1.2c-0.3,0.1-0.5,0.2-0.7,0.2c-0.2,0-0.3,0-0.5,0c-0.2,0-0.4,0-0.6-0.1
				c-0.2-0.1-0.3-0.2-0.4-0.3c-0.1-0.1-0.2-0.3-0.2-0.5c0-0.1,0-0.2,0.1-0.3c0-0.1,0.1-0.2,0.2-0.3c0.1-0.1,0.2-0.2,0.4-0.3
				c0.1-0.1,0.3-0.1,0.5-0.2c0.2-0.1,0.4-0.1,0.7-0.2c0.3-0.1,0.5-0.1,0.6-0.2c0.1,0,0.2-0.1,0.3-0.1c0.1,0,0.2-0.1,0.4-0.3
				l-0.2,3.8h2c0,0,0.1-2.3,0.1-3.5c0.1-1.1,0.1-1.8,0.1-2.1c0-0.5-0.1-0.9-0.4-1.2C81.6,365.5,81.3,365.3,80.9,365.1z M93.7,365.2
				c-0.4-0.1-0.8-0.2-1.2-0.2c-0.2,0-0.5,0-0.7,0.1c-0.2,0-0.4,0.1-0.6,0.2c-0.2,0.1-0.3,0.2-0.5,0.3c-0.1,0.1-0.3,0.2-0.4,0.3
				c-0.1,0.1-0.2,0.3-0.3,0.4c-0.1-0.2-0.2-0.4-0.3-0.5c-0.1-0.1-0.2-0.2-0.3-0.3c-0.1-0.1-0.3-0.2-0.4-0.3
				c-0.2-0.1-0.3-0.1-0.5-0.2c-0.2,0-0.4-0.1-0.6-0.1c-0.3,0-0.6,0-0.8,0.1c-0.3,0.1-0.5,0.2-0.7,0.3c-0.2,0.1-0.4,0.2-0.5,0.4
				c-0.1,0.1-0.3,0.3-0.4,0.5l0.1-1.2h-1.9l-0.3,7.3h2c0,0,0-1.5,0.1-2.5c0.1-1.1,0.1-1.8,0.3-2.1c0.1-0.4,0.3-0.7,0.6-0.9
				c0.3-0.2,0.5-0.3,0.9-0.3c0.2,0,0.3,0,0.5,0.1c0.1,0.1,0.3,0.2,0.4,0.3c0.1,0.1,0.2,0.3,0.2,0.4c0,0.1,0.1,0.3,0.1,0.5
				c0,0.4,0,1.2-0.1,2.3c-0.1,1.1-0.1,1.9-0.1,2.3c0.4,0,1.7,0,2,0l0-2c0-0.7,0.1-1.3,0.1-1.7c0-0.4,0.1-0.8,0.2-1
				c0.1-0.2,0.2-0.5,0.3-0.6c0.2-0.2,0.3-0.3,0.5-0.4c0.2-0.1,0.4-0.1,0.6-0.1c0.2,0,0.4,0,0.6,0.1c0.2,0.1,0.3,0.2,0.4,0.4
				c0.1,0.2,0.2,0.4,0.2,0.8c0,0.3,0,0.6,0,1.1l-0.1,1.6c0,0.7-0.1,1.3-0.1,1.9c0.4,0,1.7,0,2,0c0-0.5,0-1.3,0.1-2.3
				c0-1,0.1-1.7,0.1-2.2c0-0.4,0.1-0.8,0.1-1c0-0.4-0.1-0.8-0.3-1.1C94.3,365.5,94,365.3,93.7,365.2z M101.4,365.1
				c-0.4-0.1-0.9-0.2-1.5-0.2c-0.5,0-0.9,0-1.4,0.1c-0.5,0.1-1.7,0.3-1.7,0.3l-0.2,1.4c0,0,2-0.6,2.9-0.6c0.2,0,0.4,0,0.6,0.1
				c0.2,0.1,0.4,0.1,0.5,0.3c0.1,0.1,0.2,0.3,0.2,0.5c0,0.1,0,0.2-0.1,0.3c0,0.1-0.1,0.2-0.2,0.3c-0.1,0.1-0.2,0.2-0.3,0.2
				c-0.1,0.1-0.3,0.1-0.5,0.2c-0.2,0.1-0.4,0.1-0.6,0.1c-0.7,0.1-1.2,0.3-1.7,0.4c-0.4,0.1-0.7,0.3-1,0.4c-0.2,0.2-0.4,0.3-0.5,0.5
				c-0.1,0.2-0.2,0.4-0.3,0.6c-0.1,0.2-0.1,0.4-0.1,0.6c0,0.4,0.1,0.7,0.3,1.1c0.2,0.4,0.5,0.6,0.9,0.8c0.4,0.2,0.9,0.2,1.5,0.2
				c0.2,0,0.4,0,0.6,0c0.2,0,0.5,0,0.8-0.1c0.1-0.5,0.3-0.9,0.4-1.2c-0.3,0.1-0.5,0.2-0.7,0.2c-0.2,0-0.3,0-0.5,0
				c-0.2,0-0.4,0-0.6-0.1c-0.2-0.1-0.3-0.2-0.4-0.3c-0.1-0.1-0.2-0.3-0.2-0.5c0-0.1,0-0.2,0.1-0.3c0-0.1,0.1-0.2,0.2-0.3
				c0.1-0.1,0.2-0.2,0.4-0.3c0.1-0.1,0.3-0.1,0.5-0.2c0.2-0.1,0.4-0.1,0.7-0.2c0.3-0.1,0.5-0.1,0.6-0.2c0.1,0,0.2-0.1,0.3-0.1
				c0.1,0,0.2-0.1,0.4-0.3l-0.2,3.8h2c0,0,0.1-2.3,0.1-3.5c0.1-1.1,0.1-1.8,0.1-2.1c0-0.5-0.1-0.9-0.4-1.2
				C102.2,365.5,101.8,365.3,101.4,365.1z M103.7,370.5c0,0.9-0.1,1.6-0.1,1.9c0.7,0,2,0,2,0s0.1-1.6,0.1-1.9
				C105.2,370.5,103.7,370.5,103.7,370.5z M109,367.1c0.2-0.2,0.5-0.4,0.7-0.5c0.3-0.1,0.6-0.2,0.9-0.2c0.5,0,1.2,0.1,1.9,0.4
				l-0.1-1.6c-0.5-0.1-0.8-0.2-1.2-0.2c-0.3,0-0.7-0.1-1-0.1c-0.6,0-1.1,0.1-1.5,0.2c-0.5,0.1-0.9,0.4-1.2,0.7
				c-0.4,0.4-0.7,0.8-0.8,1.4c-0.2,0.6-0.3,1.1-0.3,1.7c0,0.5,0.1,0.9,0.2,1.3c0.1,0.4,0.3,0.8,0.5,1.1c0.2,0.3,0.5,0.5,0.8,0.7
				c0.3,0.2,0.6,0.3,1,0.4c0.4,0.1,0.7,0.1,1.1,0.1c0.7,0,1.3-0.1,2-0.2c0.1-0.4,0.1-0.7,0.2-0.9c0-0.2,0.1-0.5,0.1-0.7
				c-0.3,0.1-0.7,0.2-1,0.3c-0.3,0.1-0.6,0.1-0.8,0.1c-0.4,0-0.8-0.1-1.2-0.3c-0.3-0.2-0.6-0.4-0.7-0.8c-0.1-0.3-0.2-0.7-0.2-1.2
				c0-0.3,0-0.6,0.1-1C108.7,367.6,108.8,367.3,109,367.1z M120,365.9c-0.4-0.3-0.8-0.6-1.3-0.7c-0.5-0.2-1-0.2-1.6-0.2
				c-0.6,0-1.2,0.1-1.7,0.3c-0.6,0.2-1,0.5-1.4,0.9c-0.4,0.4-0.6,0.8-0.8,1.3c-0.2,0.5-0.3,1-0.3,1.5c0,0.5,0.1,1,0.3,1.5
				c0.2,0.5,0.5,0.9,0.8,1.2c0.4,0.3,0.8,0.6,1.3,0.7c0.5,0.2,1,0.2,1.6,0.2c0.6,0,1.2-0.1,1.7-0.3c0.5-0.2,1-0.5,1.3-0.8
				c0.4-0.4,0.6-0.8,0.8-1.3c0.2-0.5,0.3-1,0.3-1.6c0-0.5-0.1-1-0.3-1.5C120.6,366.6,120.3,366.3,120,365.9z M118.7,369.9
				c-0.2,0.4-0.4,0.7-0.7,0.9c-0.3,0.2-0.7,0.3-1.1,0.3c-0.4,0-0.8-0.1-1.1-0.3c-0.3-0.2-0.5-0.5-0.6-0.8c-0.1-0.3-0.2-0.7-0.2-1.1
				c0-0.5,0.1-0.9,0.2-1.3c0.2-0.4,0.4-0.7,0.7-0.9c0.3-0.2,0.7-0.3,1.1-0.3c0.4,0,0.8,0.1,1.1,0.3c0.3,0.2,0.5,0.5,0.6,0.8
				c0.1,0.3,0.2,0.7,0.2,1.1C119,369.1,118.9,369.5,118.7,369.9z M132.8,365.8c-0.2-0.3-0.5-0.5-0.9-0.6c-0.4-0.1-0.8-0.2-1.2-0.2
				c-0.2,0-0.5,0-0.7,0.1c-0.2,0-0.4,0.1-0.6,0.2c-0.2,0.1-0.3,0.2-0.5,0.3c-0.1,0.1-0.3,0.2-0.4,0.3c-0.1,0.1-0.2,0.3-0.3,0.4
				c-0.1-0.2-0.2-0.4-0.3-0.5c-0.1-0.1-0.2-0.2-0.3-0.3c-0.1-0.1-0.3-0.2-0.4-0.3c-0.2-0.1-0.3-0.1-0.5-0.2c-0.2,0-0.4-0.1-0.6-0.1
				c-0.3,0-0.6,0-0.8,0.1c-0.3,0.1-0.5,0.2-0.7,0.3c-0.2,0.1-0.4,0.2-0.5,0.4c-0.1,0.1-0.3,0.3-0.4,0.5l0.1-1.2c-0.3,0-1.5,0-1.9,0
				c0,0.8-0.3,6.5-0.3,7.3c0.4,0,1.6,0,2,0c0-0.6,0-1.5,0.1-2.5c0.1-1.1,0.1-1.8,0.3-2.1c0.1-0.4,0.3-0.7,0.6-0.9
				c0.3-0.2,0.5-0.3,0.9-0.3c0.2,0,0.3,0,0.5,0.1c0.1,0.1,0.3,0.2,0.4,0.3c0.1,0.1,0.2,0.3,0.2,0.4c0,0.1,0,0.3,0,0.5
				c0,0.4,0,1.2-0.1,2.3c-0.1,1.1-0.1,1.9-0.1,2.3c0.4,0,1.6,0,2,0l0-2c0-0.7,0.1-1.3,0.1-1.7c0-0.4,0.1-0.8,0.2-1
				c0.1-0.2,0.2-0.5,0.3-0.6c0.2-0.2,0.3-0.3,0.5-0.4c0.2-0.1,0.4-0.1,0.6-0.1c0.2,0,0.4,0,0.6,0.1c0.2,0.1,0.3,0.2,0.4,0.4
				c0.1,0.2,0.2,0.4,0.2,0.8c0,0.3,0,0.6,0,1.1l-0.1,1.6c0,0.7-0.1,1.3-0.1,1.9c0.4,0,1.7,0,2,0c0-0.5,0-1.3,0.1-2.3
				c0-1,0.1-1.7,0.1-2.2c0-0.4,0-0.8,0-1C133.1,366.5,133,366.1,132.8,365.8z"/>
		</g>
	</g>
	<g id="形状_2_copy_3_副本_5_33_">
		<g>
			<path style="fill-rule:evenodd;clip-rule:evenodd;fill:#FF6600;" d="M53.3,342.2c3,0,6.1,0,9.1,0c0,4.5,0,9.2,0,13.5
				c0,0.3-0.3,0.7-0.7,0.7c-0.5,0-0.7,0-1.3,0v2.2c0.7,0,1.3,0,2,0c1.8,0,2.9-0.9,2.9-2.3c0-3.5,0-10.4,0-14h1.1v-2.1H53.3V342.2z
				 M99.8,352c-0.8,0-2.1,0.8-2.1,2.1c2.6,0,6.9-0.1,9.7-0.1c0,0.5,0,1.1,0,1.8c1,0,0.6,0,1.6,0c0.6,0,1.3-0.5,1.3-1.4
				c0-2.3,0-4.1,0-6.5c-0.4,0-0.9,0-1.3,0c0-1.8,0-5.4,0-6.7c0-0.5-0.5-1.1-1.2-1.1h-9.6v2.1h7.4c0,1.9,0,3.8,0,5.7
				c-1.8,0-2,0-3.5,0c-0.2,0-0.4-0.2-0.4-0.4c0-1,0-2.5,0-3.8c0-0.3-0.3-0.6-0.8-0.6h-2.2v5.1c0,1,0.9,1.8,1.8,1.8c0,0,3.7,0,6.9,0
				v1.9H99.8z M61,352.6c0-2.4,0-5.8,0-9.1h-7.6v11.6c2.2,0,5,0,5,0C60.4,355.1,61,354,61,352.6z M57.8,353c-0.5,0-1.1,0-1.9,0v-7.2
				c0.8,0,1.8,0,2.6,0c0,2.2,0,4.6,0,6.5C58.4,352.7,58.2,353,57.8,353z M44.7,340.7c0,4.2,0,9.6,0,17.9h2.8c0-5.2,0-10.9,0-16.3
				c0.7,0,1.4,0,2.1,0c0,3.1,0,5.9,0,8.9c0,1.2-1.1,1.6-1.1,1.6v2.3c2,0,3.7-2,3.7-3.9c0-3.4,0-7.7,0-11c-2.5,0-4.5,0-7,0
				C44.7,340.1,44.7,340.7,44.7,340.7z M132.2,348c0-1.8,0-5.4,0-6.7c0-0.5-0.5-1.1-1.2-1.1h-9.6v2.1c2.4,0,4.9,0,7.4,0v5.7
				c-1.8,0-2,0-3.5,0c-0.2,0-0.4-0.2-0.4-0.4c0-1,0-2.5,0-3.8c0-0.3-0.3-0.6-0.8-0.6c-0.6,0-1.5,0-2.2,0v5.1c0,1,0.9,1.8,1.8,1.8
				c0,0,3.7,0,6.9,0v1.9h-7.5c-0.8,0-2.2,0.7-2.2,2.1c2.6,0,6.8,0,9.7,0v2c0,0.3-0.3,0.5-0.6,0.5h-1.1c0,1,0,1.5,0,2.1h1.7
				c0.5,0,0.4,0,0.9,0c1.4,0,2-1,2-1.8c0-2.6,0-6.1,0-8.8C133.1,348,132.6,348,132.2,348z M118.7,355.1c1-1.1,1.6-2.4,1.7-5
				c0-2.8,0-5.4,0-8.1c0-0.2-0.3-0.5-0.6-0.5c-1.1,0-2.4,0-3.6,0v-1.3h-2.8c0,0.4,0,0.8,0,1.3c-0.3,0-0.7,0-0.9,0v2.1h0.9v6.6
				c0,2.5,0.8,3.8,1.9,5c-1.2,0.8-2.5,1.4-4.2,1.4c-0.2,0-0.5,0-0.7,0c-2.6,0-5.8,0-8.6,0c-2.6,0-5.2-0.5-6.1-1.6
				c0.9-1.2,1.4-2.2,1.7-4.8c0-2.5,0-4.7,0-8c0-0.4-0.4-0.7-0.7-0.7c-1.1,0-2.2,0-3.6,0v-1.3c-1.2,0-1.6,0-2.7,0v1.3
				c-0.3,0-0.5,0-0.9,0v2.1c0.4,0,0.6,0,0.9,0c0,2.2,0,4.6,0,6.6c0.2,2.5,1,3.4,2,4.9c-1.4,1-3.2,1.4-5.2,1.5c-2.4,0-4.6,0-7.6,0
				c0-0.5,0-1.3,0-1.6h7.6v-2.2h-7.6c0-0.5,0-1.1,0-1.6c2.2,0,5.1,0,5.7,0c0,0,1.9,0,1.9-2c0-2.1,0-6,0-8.8c-6,0-12.1,0-18.1,0
				c-0.3,0-0.6,0.3-0.6,0.5c0,0.4,0,7.2,0,10.3c2.5,0,5.1,0,7.6,0v1.6h-7.6c0,0.7,0,1.5,0,2.2H76c0,0.5,0,1.1,0,1.6h-8.9
				c0,0.6,0,1.4,0,2.1c6.7,0,14.9,0,21.4,0c1.7,0,3.9-0.9,5.5-1.8c2,1.5,4.1,1.8,7.7,1.8c1.1,0,2.3,0,3.6,0c1.9,0,3.5,0,5,0
				c3,0,4.9-0.6,6.8-1.7c1.7,1,3.3,1.7,6,1.7v0h4v-2.1h-4C121.3,356.3,119.8,356,118.7,355.1z M75.9,348.9h-4.7v-2.2h4.7V348.9z
				 M75.9,344.4h-4.7v-2.2c1.6,0,3.1,0,4.7,0V344.4z M79.5,342.2h4.7v2.2h-4.7V342.2z M79.5,346.7c1.6,0,3.1,0,4.7,0
				c0,0.9,0,1.6,0,2.2h-4.7C79.5,348.3,79.5,347.4,79.5,346.7z M94.6,350.1c-0.1,1.5-0.3,1.8-0.7,2.8c-0.4-0.9-0.8-1.3-0.9-2.8
				c0-1.9,0-4.6,0-6.6h1.6V350.1z M117.8,350.1c-0.1,1.4-0.4,2-0.7,2.8c-0.4-0.7-0.8-1.5-0.8-2.8c0-2,0-4.5,0-6.6h1.6
				C117.8,345.6,117.8,348,117.8,350.1z"/>
		</g>
	</g>
</g>
<g>
	<path style="fill:#EC6C00;" d="M677.8,413.5H675l4.2-8.2h3l4.1,8.2h-3.1l-0.6-1.5h-4.3L677.8,413.5z M681.9,410.2l-1.3-3l-1.4,3
		H681.9z"/>
	<path style="fill:#EC6C00;" d="M686.7,413.5v-8.2h2.6v8.2H686.7z"/>
	<path style="fill:#EC6C00;" d="M691,406.9v-1.7h2.6v1.7H691z M691,413.5v-5.7h2.6v5.7H691z"/>
	<path style="fill:#EC6C00;" d="M695.1,405.3h2.6v3.3c0.3-0.3,0.7-0.6,1.1-0.7c0.4-0.2,0.8-0.2,1.3-0.2c0.9,0,1.6,0.3,2.2,0.9
		c0.5,0.6,0.8,1.3,0.8,2.3c0,0.9-0.3,1.6-0.8,2.1c-0.5,0.5-1.3,0.8-2.1,0.8c-0.5,0-0.9-0.1-1.3-0.3c-0.4-0.2-0.7-0.4-1-0.8
		c0,0.2,0,0.4,0,0.5c0,0.2,0,0.3-0.1,0.4H695c0-0.1,0.1-0.2,0.1-0.4c0-0.2,0-0.3,0-0.6V405.3z M700.4,410.6c0-0.5-0.1-0.9-0.4-1.2
		c-0.2-0.3-0.6-0.4-1-0.4c-0.4,0-0.8,0.1-1,0.4c-0.2,0.3-0.3,0.7-0.3,1.2c0,0.5,0.1,0.9,0.4,1.2c0.2,0.3,0.6,0.4,1,0.4
		c0.4,0,0.7-0.1,1-0.4C700.3,411.5,700.4,411.1,700.4,410.6z"/>
	<path style="fill:#EC6C00;" d="M708.9,412.6c-0.3,0.3-0.6,0.6-1,0.7c-0.4,0.2-0.9,0.2-1.5,0.2c-0.8,0-1.4-0.1-1.9-0.4
		c-0.4-0.3-0.7-0.7-0.7-1.2c0-0.7,0.4-1.2,1.1-1.6c0.8-0.3,2-0.5,3.8-0.5c0,0,0,0,0-0.1c0,0,0-0.1,0-0.1c0-0.3-0.1-0.5-0.3-0.7
		c-0.2-0.1-0.4-0.2-0.8-0.2c-0.3,0-0.6,0.1-0.7,0.2c-0.2,0.1-0.3,0.3-0.3,0.5h-2.4c0-0.6,0.3-1.1,0.9-1.4c0.6-0.3,1.5-0.5,2.7-0.5
		c1.2,0,2,0.2,2.6,0.5c0.6,0.4,0.9,0.9,0.9,1.6v2.9c0,0.2,0,0.3,0,0.4c0,0.1,0,0.2,0.1,0.3H709c0-0.1-0.1-0.3-0.1-0.4
		C708.9,412.9,708.9,412.8,708.9,412.6z M708.8,411c-0.9,0-1.4,0.1-1.7,0.2c-0.3,0.1-0.5,0.3-0.5,0.6c0,0.2,0.1,0.3,0.2,0.4
		c0.2,0.1,0.4,0.2,0.6,0.2c0.4,0,0.8-0.1,1-0.3C708.7,411.8,708.8,411.5,708.8,411L708.8,411z"/>
	<path style="fill:#EC6C00;" d="M712.8,405.3h2.6v3.3c0.3-0.3,0.7-0.6,1.1-0.7c0.4-0.2,0.8-0.2,1.3-0.2c0.9,0,1.6,0.3,2.2,0.9
		c0.5,0.6,0.8,1.3,0.8,2.3c0,0.9-0.3,1.6-0.8,2.1c-0.5,0.5-1.3,0.8-2.1,0.8c-0.5,0-0.9-0.1-1.3-0.3c-0.4-0.2-0.7-0.4-1-0.8
		c0,0.2,0,0.4,0,0.5c0,0.2,0,0.3-0.1,0.4h-2.6c0-0.1,0.1-0.2,0.1-0.4c0-0.2,0-0.3,0-0.6V405.3z M718.1,410.6c0-0.5-0.1-0.9-0.4-1.2
		c-0.2-0.3-0.6-0.4-1-0.4c-0.4,0-0.8,0.1-1,0.4c-0.2,0.3-0.3,0.7-0.3,1.2c0,0.5,0.1,0.9,0.3,1.2c0.2,0.3,0.6,0.4,1,0.4
		c0.4,0,0.7-0.1,1-0.4C718,411.5,718.1,411.1,718.1,410.6z"/>
	<path style="fill:#EC6C00;" d="M726.6,412.6c-0.3,0.3-0.6,0.6-1,0.7c-0.4,0.2-0.9,0.2-1.5,0.2c-0.8,0-1.4-0.1-1.9-0.4
		c-0.4-0.3-0.7-0.7-0.7-1.2c0-0.7,0.4-1.2,1.1-1.6c0.8-0.3,2-0.5,3.8-0.5c0,0,0,0,0-0.1c0,0,0-0.1,0-0.1c0-0.3-0.1-0.5-0.3-0.7
		c-0.2-0.1-0.4-0.2-0.8-0.2c-0.3,0-0.6,0.1-0.7,0.2c-0.2,0.1-0.3,0.3-0.3,0.5h-2.4c0-0.6,0.3-1.1,0.9-1.4c0.6-0.3,1.5-0.5,2.7-0.5
		c1.2,0,2,0.2,2.6,0.5c0.6,0.4,0.9,0.9,0.9,1.6v2.9c0,0.2,0,0.3,0,0.4c0,0.1,0,0.2,0.1,0.3h-2.4c0-0.1-0.1-0.3-0.1-0.4
		C726.7,412.9,726.6,412.8,726.6,412.6z M726.6,411c-0.9,0-1.4,0.1-1.7,0.2c-0.3,0.1-0.5,0.3-0.5,0.6c0,0.2,0.1,0.3,0.2,0.4
		c0.2,0.1,0.4,0.2,0.6,0.2c0.4,0,0.8-0.1,1-0.3C726.5,411.8,726.6,411.5,726.6,411L726.6,411z"/>
	<path style="fill:#EC6C00;" d="M737.3,410.3v-1h3.4v3c-0.5,0.4-1.1,0.7-1.6,1c-0.6,0.2-1.1,0.3-1.7,0.3c-0.8,0-1.5-0.2-2.2-0.5
		c-0.7-0.3-1.1-0.8-1.5-1.5c-0.3-0.6-0.5-1.4-0.5-2.2c0-0.8,0.2-1.5,0.5-2.2c0.3-0.7,0.8-1.2,1.4-1.5c0.6-0.3,1.3-0.5,2.1-0.5
		c0.6,0,1.1,0.1,1.6,0.3c0.5,0.2,0.8,0.5,1.1,0.8c0.3,0.3,0.5,0.8,0.6,1.3l-1,0.3c-0.1-0.4-0.3-0.7-0.5-1c-0.2-0.2-0.4-0.4-0.8-0.6
		c-0.3-0.1-0.7-0.2-1.1-0.2c-0.5,0-0.9,0.1-1.3,0.2c-0.4,0.2-0.6,0.3-0.9,0.6c-0.2,0.2-0.4,0.5-0.5,0.8c-0.2,0.5-0.3,1.1-0.3,1.6
		c0,0.7,0.1,1.3,0.4,1.8c0.2,0.5,0.6,0.9,1.1,1.1c0.5,0.2,1,0.4,1.5,0.4c0.5,0,0.9-0.1,1.4-0.3c0.4-0.2,0.8-0.4,1-0.6v-1.5H737.3z"
		/>
	<path style="fill:#EC6C00;" d="M742.2,413.5v-5.9h0.9v0.9c0.2-0.4,0.4-0.7,0.6-0.8c0.2-0.1,0.4-0.2,0.6-0.2c0.3,0,0.7,0.1,1,0.3
		l-0.3,0.9c-0.2-0.1-0.5-0.2-0.7-0.2c-0.2,0-0.4,0.1-0.6,0.2c-0.2,0.1-0.3,0.3-0.4,0.5c-0.1,0.4-0.2,0.7-0.2,1.2v3.1H742.2z"/>
	<path style="fill:#EC6C00;" d="M745.8,410.5c0-1.1,0.3-1.9,0.9-2.4c0.5-0.4,1.1-0.7,1.9-0.7c0.8,0,1.5,0.3,2,0.8
		c0.5,0.5,0.8,1.3,0.8,2.2c0,0.8-0.1,1.4-0.3,1.8c-0.2,0.4-0.6,0.8-1,1c-0.4,0.2-0.9,0.4-1.4,0.4c-0.8,0-1.5-0.3-2-0.8
		C746.1,412.3,745.8,411.5,745.8,410.5z M746.8,410.5c0,0.8,0.2,1.3,0.5,1.7c0.3,0.4,0.7,0.6,1.2,0.6c0.5,0,0.9-0.2,1.2-0.6
		c0.3-0.4,0.5-1,0.5-1.7c0-0.7-0.2-1.3-0.5-1.7c-0.3-0.4-0.7-0.6-1.2-0.6c-0.5,0-0.9,0.2-1.2,0.6C747,409.2,746.8,409.8,746.8,410.5
		z"/>
	<path style="fill:#EC6C00;" d="M756.5,413.5v-0.9c-0.5,0.7-1.1,1-1.9,1c-0.3,0-0.7-0.1-1-0.2c-0.3-0.1-0.5-0.3-0.7-0.5
		c-0.1-0.2-0.2-0.4-0.3-0.7c0-0.2-0.1-0.5-0.1-0.9v-3.7h1v3.3c0,0.5,0,0.9,0.1,1.1c0.1,0.3,0.2,0.5,0.4,0.6c0.2,0.2,0.5,0.2,0.8,0.2
		c0.3,0,0.6-0.1,0.8-0.2c0.3-0.2,0.4-0.4,0.6-0.6c0.1-0.3,0.2-0.6,0.2-1.2v-3.2h1v5.9H756.5z"/>
	<path style="fill:#EC6C00;" d="M759.2,415.7v-8.2h0.9v0.8c0.2-0.3,0.5-0.5,0.7-0.7c0.3-0.1,0.6-0.2,1-0.2c0.5,0,0.9,0.1,1.3,0.4
		c0.4,0.3,0.7,0.6,0.9,1.1c0.2,0.5,0.3,1,0.3,1.6c0,0.6-0.1,1.1-0.3,1.6c-0.2,0.5-0.5,0.9-0.9,1.1c-0.4,0.3-0.8,0.4-1.3,0.4
		c-0.3,0-0.6-0.1-0.9-0.2c-0.3-0.1-0.5-0.3-0.7-0.5v2.9H759.2z M760.1,410.5c0,0.8,0.2,1.3,0.5,1.7c0.3,0.4,0.7,0.5,1.1,0.5
		c0.4,0,0.8-0.2,1.1-0.6c0.3-0.4,0.5-1,0.5-1.7c0-0.8-0.2-1.3-0.5-1.7c-0.3-0.4-0.7-0.6-1.1-0.6c-0.4,0-0.8,0.2-1.1,0.6
		C760.3,409.2,760.1,409.8,760.1,410.5z"/>
</g>
<path style="fill-rule:evenodd;clip-rule:evenodd;fill:#231815;" d="M649,420.8c-0.1,0-0.4-0.1-0.5-0.3c-1.5-1.5,0.4-3.3,2.7-4.3
	v-2.9c0.5,0.3,0.8,0.4,0.8,0.4l1.8-1.7l-0.6-1.5c5.1-1.8,7.2-2.5,11.4-3.2l-0.7-0.7l1.2-0.7c2.8,0.9,5.5,1.2,5,3.5
	c0.1-1.6-1.9-2.2-4.9-3.1l-0.6,0.4l1.1,0.9c-5,0.9-8.1,1.8-11.8,3.1l0.5,1.3l-1.8,1.8c0.3,0.1,3.5,1.2,6.9-1.2c0,0,0.1,0,0.1-0.1
	c-0.1-0.2-0.3-0.3-0.6-0.6c1,0.1,1.6,0.9,1.5,1.8H660c0-0.3,0-0.6-0.1-0.8c-2.6,1.9-5.6,2.2-8.1,1.3v2.2c-1.2,0.4-3.5,1.8-3.4,3.1
	C648.4,420.4,648.7,420.6,649,420.8z"/>
<path style="fill-rule:evenodd;clip-rule:evenodd;fill:#EC6C00;" d="M659.4,420.2c-2.8,1.4-5.4,2.5-9.5,2.7
	c-5.3-0.1-6.2-3.6-3.6-7.3c2.4-3.7,6.2-7.1,12.2-9.2c1.7-0.6,4.3-1.3,6.8-1.4c3.5,0,7,1.1,6.8,4.5c-0.1,2.6-3.9,6.3-5.9,8.9
	c-0.8,1.2-1,1.9,0.5,1.8c5.3-0.3,10-2.2,14.5-4.1c-3,2-18.5,9.7-18.5,4.5c0-0.7,0.3-1.4,0.8-2.1c0.5-0.7,1.2-1.5,1.9-2.3
	c1.1-1.2,3.7-4.1,4.6-5.8c1.5-3.3-1.8-3.4-4.7-4.4l-1.2,0.7l0.7,0.7c-4.2,0.7-6.2,1.4-11.4,3.2l0.6,1.5l-1.8,1.7
	c0,0-0.3-0.1-0.8-0.4v2.9c-2.3,1-4.3,2.8-2.7,4.3c0.2,0.1,0.4,0.3,0.5,0.3l0,0C651.8,422.4,659.5,420.2,659.4,420.2z"/>
<g>
	<path style="fill:#EC6C00;" d="M675.8,421.5h0.4c0.1,0,0.1,0,0.2,0c0,0,0.1,0,0.1-0.1c0,0,0-0.1,0-0.1c0-0.1,0-0.1-0.1-0.1
		c0,0-0.1-0.1-0.2-0.1h-0.4V421.5z M675.7,422.2V421h0.6c0.1,0,0.2,0,0.3,0c0.1,0,0.1,0.1,0.1,0.1c0,0.1,0.1,0.1,0.1,0.2
		c0,0.1,0,0.2-0.1,0.2c-0.1,0.1-0.2,0.1-0.3,0.1c0,0,0.1,0,0.1,0.1c0,0,0.1,0.1,0.1,0.2l0.2,0.4h-0.2l-0.2-0.3
		c-0.1-0.1-0.1-0.1-0.1-0.2c0,0-0.1-0.1-0.1-0.1c0,0-0.1,0-0.1,0c0,0-0.1,0-0.1,0h-0.2v0.6H675.7"/>
	<path style="fill-rule:evenodd;clip-rule:evenodd;fill:#EC6C00;" d="M676.2,422.9c0.7,0,1.2-0.6,1.2-1.2c0-0.7-0.6-1.2-1.2-1.2
		c-0.7,0-1.2,0.6-1.2,1.2C674.9,422.3,675.5,422.9,676.2,422.9z M675.1,421.7c0-0.6,0.5-1,1-1c0.6,0,1,0.5,1,1c0,0.6-0.5,1-1,1
		C675.6,422.7,675.1,422.2,675.1,421.7"/>
</g>
<g>
	<g>
		<path style="fill-rule:evenodd;clip-rule:evenodd;fill:#EC6C00;" d="M686.8,416.2v6.9c0.5,0,1-0.4,1-0.9v-0.4h0.6
			c0.4,0,0.8-0.6,0.8-0.8c0-0.6,0-0.9,0-1.5c0-0.3-0.3-0.5-0.5-0.6c0.2-0.1,0.5-0.4,0.5-0.7c0-0.8,0-1.1,0-2H686.8z M688.2,418.5
			c0,0.1-0.1,0.3-0.2,0.4c0,0-0.1,0.1-0.1,0.1c0,0,0,0,0,0h0.3v2h-0.4c0-1.4,0-2.6,0-4h0.4V418.5z M692.1,420.7v-3.1h-2.5v4.3h1.2
			c0.2,0,0.4-0.1,0.6-0.2c0.1-0.1,0.2-0.2,0.3-0.3C691.9,421.2,692.1,420.9,692.1,420.7z M691.1,421.1h-0.5v-2.6h0.5V421.1z
			 M689.4,416.2v0.8h2.9v5.2v0.9c0.3,0,1-0.3,1-1v-5.1c0.2,0,0.4-0.6,0.4-0.8H689.4z"/>
		<path style="fill-rule:evenodd;clip-rule:evenodd;fill:#EC6C00;" d="M698.3,422.4v-0.6h2.1c0.3,0,0.6-0.5,0.7-0.8h-2.8v-0.6h1.6
			c0.4,0,1.2-0.6,1.2-0.9v-3.2h-6.6v4.2h2.7v0.6h-2.7v0.8h2.7v0.6h-2.7v0.8h6.2c0.3,0,0.5-0.5,0.7-0.8H698.3z M698.3,418.7h0.5
			c0.1,0,0.2,0,0.2-0.1c0.1-0.1,0.6-0.6,0.6-0.7h-1.4V417h1.5v2.6h-1.5V418.7z M697.1,419.6h-1.5v-0.9h1.5V419.6z M697.1,417.9h-1.5
			V417h0.7h0.7V417.9z"/>
		<path style="fill-rule:evenodd;clip-rule:evenodd;fill:#EC6C00;" d="M703.2,422.3v-2h4.2c0.4,0,1.1-0.6,1.1-1v-3.1H702v6
			c0,0.5,0.3,1,0.8,1c0.4,0,4.6,0,5,0c0.4,0,0.8-0.6,0.9-0.9H703.2z M707.3,419.4h-1.4v-2.3h1.4V419.4z M703.3,417.1h1.5v2.3h-1.5
			V417.1z"/>
		<path style="fill-rule:evenodd;clip-rule:evenodd;fill:#EC6C00;" d="M710.8,422.3v-2h4.2c0.4,0,1.1-0.6,1.1-1v-3.1h-6.6v6
			c0,0.5,0.3,1,0.8,1c0.4,0,4.6,0,5,0c0.4,0,0.8-0.6,0.9-0.9H710.8z M714.9,419.4h-1.4v-2.3h1.4V419.4z M710.8,417.1h1.5v2.3h-1.5
			V417.1z"/>
	</g>
	<g>
		<path style="fill:#EC6C00;" d="M720.7,420.8v-0.2h0.5v0.2h3c0,0-0.1,0.4-0.7,0.4c-0.7,0-2.2,0-2.2,0s0,0.8,0,1.1
			c0,0.8-0.5,0.9-0.5,0.9v-2h-3.6v-0.4H720.7z"/>
		<path style="fill:#EC6C00;" d="M718.6,421.9h0.5c0,0-0.6,0.7-0.7,0.9c-0.2,0.2-0.4,0.5-0.7,0.5c-0.2,0-0.2,0-0.2,0L718.6,421.9z"
			/>
		<path style="fill:#EC6C00;" d="M723.1,421.9h-0.5c0,0,0.6,0.7,0.7,0.9c0.2,0.2,0.4,0.5,0.7,0.5c0.2,0,0.2,0,0.2,0L723.1,421.9z"/>
		<g>
			<path style="fill:#EC6C00;" d="M723.5,416.9c0.6,0,0.8-0.4,0.8-0.4h-3l0.2-0.3H721l-0.2,0.3h-2l0.2-0.3h-0.5l-1.3,1.7h0.5v2.3
				c0,0,0.1,0,0.1,0c0.8,0,0.9-0.1,0.9-0.1s4.1,0,4.8,0c0.6,0,0.7-0.4,0.7-0.4h-3V419c0,0,1.6,0,2.3,0c0.6,0,0.7-0.4,0.7-0.4h-3
				v-0.7c0,0,1.6,0,2.3,0c0.6,0,0.7-0.4,0.7-0.4h-3v-0.6C721.2,416.9,723,416.9,723.5,416.9z M720.7,419.6h-2.5V419h2.5V419.6z
				 M720.7,418.6h-2.5V418h2.5V418.6z M720.7,417.5h-2.5l0-0.2l0.1-0.2l0.2-0.2h2.2V417.5z"/>
		</g>
	</g>
	<path style="fill:#EC6C00;" d="M725.6,416.2v7h5.9c0.4,0,0.6-0.4,0.6-0.9v-6.2H725.6z M731.6,422.3c0,0.3-0.1,0.5-0.4,0.5H726v-6.2
		h5.6V422.3z"/>
	<path style="fill:#EC6C00;" d="M728.3,419.2l-1.5,2.7c0,0,0.5,0.1,0.7-0.4l1.3-2.3L728.3,419.2z"/>
	<path style="fill:#EC6C00;" d="M730.1,421.4c0,0.1-0.1,0.2-0.2,0.2h-0.5v0.4h0.6c0.4,0,0.5-0.1,0.5-0.6c0,0,0-2.6,0-2.6
		c0.5,0,0.5-0.4,0.5-0.4l-0.5,0v-0.9h-0.5v0.9h-3.4v0.4h3.4V421.4z"/>
</g>
<g>
	<defs>
		<rect id="SVGID_1_" x="515.3" y="210.8" width="199.6" height="381.8"/>
	</defs>
	<clipPath id="SVGID_2_">
		<use xlink:href="#SVGID_1_"  style="overflow:visible;"/>
	</clipPath>
	<path style="clip-path:url(#SVGID_2_);fill-rule:evenodd;clip-rule:evenodd;fill:#FF6600;" d="M610.4,652.6
		c3.8,0.1,60.4-3.5,74.1,3.5c10.9,5.6,9,16,4.8,17.5c-11.6,4.2-35.6,2.6-49.3,2c-14.3-0.6-44.8-5-50.5-6.6c-12-3.3-5.2-10.8-4-16.2
		c1.2-5.6,1.8-11.1,1.5-17.1c-0.1-2-0.2-5.8-3.7-5.6c-3.8,1.2-7.4,1.8-10.7,2.1c0,0,0,0-0.1,0c-0.3,0-0.5,0-0.8,0.1
		c-0.2,0-0.4,0-0.6,0c-0.2,0-0.3,0-0.5,0c-0.3,0-0.5,0-0.8,0c-0.1,0-0.3,0-0.4,0c-0.3,0-0.5,0-0.8,0c-0.1,0-0.3,0-0.4,0
		c-0.2,0-0.4,0-0.6,0s-0.4,0-0.6,0c-0.1,0-0.3,0-0.4,0c-0.3,0-0.5,0-0.8,0c-0.1,0-0.3,0-0.4,0c-0.3,0-0.5,0-0.8,0
		c-0.2,0-0.3,0-0.5,0c-0.2,0-0.4,0-0.6,0c-0.3,0-0.5,0-0.8-0.1c0,0,0,0-0.1,0c-3.3-0.3-6.9-1-10.7-2.1c-3.5-0.2-3.6,3.6-3.7,5.6
		c-0.3,6,0.3,11.5,1.5,17.1c1.1,5.4,8,12.8-4,16.2c-5.7,1.6-39.1,5.7-53.4,6.7c-15.4,1-40.9,1.2-48.2-1.9c-4-1.7-4.2-12,6.7-17.6
		c13.7-7,70.6-3.9,74.3-4.1c7.9-0.6,6.4-3.1,6.4-7.1c0.1-7.4-6-11.3-11.2-14.5c-5.2-3.3-31.3-14.8-31.3-40.2
		c0-13,3.6-30.6,20.4-55.7c12.1-17.9,20.7-33.5,26.9-46.6c-17.1,7.2-33.1,16.7-41.7,22.7c-10.7,7.4-14,12.8-17.5,15.9
		c-4.8,4.2-11.6,8.2-13.7,6.6c-4.5-3.5,5-5.7,4.6-8.6c-0.7-5.3-17.9,6.7-20.4,2.5c-2.7-4.7,4.8-6.9,4.8-6.9s-2.8,0-3.6-0.7
		c-0.8-0.7-1.3-2.2-0.4-3.2c1.7-1.9,7.1-2,12.3-3.3c4-1,10-3,11.7-3.9c10.3-3,22.5-14.7,44.7-34.7c14.1-14,28.4-21.4,32.8-23.6
		c0.8-3.3,1.3-5.9,1.6-7.8c-2-1.8-3.9-3.9-6.1-6.1c-8.5-8.5-12.2-14.1-12.2-14.2c-10.7-16.2-6.4-42.3-4.5-48.4
		c1.4-4.3,2.6-10,4-15.5c-8.3-2.9-50.9-21-40.5-81.8c1.1-5.3,8.8-0.5,8.8-0.5s14.3,8,29.6,27.1c-1.5-9.7,0.1-17,0.1-17
		c0.4-1.6,1.5-1.4,2.5-0.9c22.5,11,31.6,31.1,34.9,44.4l0,0c0.1,0,0.1,0,0.2,0c2.4-11.1,10.1-32.7,34.7-44.2c0.6-0.3,1.4-0.5,2,0.5
		c0,0,1.7,7.6,0.1,17.7c15.5-19.6,30.1-27.7,30.1-27.7s7.7-4.9,8.8,0.5c10.4,60.7-32.3,78.8-40.6,81.7c1.6,5.6,2.9,11.3,4.2,15.6
		c1.9,6.1,6.2,32.2-4.5,48.4c0.1,0.1-4.3,6.9-13.2,14.9c-2.4,2.1-4.2,4.1-6.1,5.9c0.3,1.7,0.7,4,1.4,6.8c5.3,2.6,18.6,10,31.9,23.1
		c22.2,20,34.4,31.6,44.7,34.7c1.7,0.9,7.7,2.9,11.7,3.9c5.2,1.3,10.6,1.4,12.3,3.3c0.9,1,0.4,2.5-0.4,3.2c-0.8,0.7-3.6,0.7-3.6,0.7
		s7.6,2.3,4.8,6.9c-2.5,4.2-19.7-7.8-20.4-2.5c-0.4,2.8,9.1,5,4.6,8.6c-2,1.6-8.9-2.4-13.7-6.6c-3.5-3.1-6.8-8.5-17.5-15.9
		c-8.5-5.8-24.1-15.2-40.9-22.3c6.2,13.2,14.9,29,27.2,47.2c16.9,25.1,20.4,42.7,20.4,55.7c0,25.4-26.1,36.9-31.3,40.2
		c-5.2,3.3-11.3,7.1-11.2,14.5C603.8,648.9,602.5,652.4,610.4,652.6z"/>
</g>
<g>
	<defs>
		<rect id="SVGID_3_" x="73.6" y="-10" width="169" height="192.6"/>
	</defs>
	<clipPath id="SVGID_4_">
		<use xlink:href="#SVGID_3_"  style="overflow:visible;"/>
	</clipPath>
	<path style="clip-path:url(#SVGID_4_);fill:none;stroke:#999999;" d="M215.3,165c0,90-27.4,163-61.2,163s-61.2-73-61.2-163
		c0-90,27.4-163,61.2-163C186.1,2,215.3,75,215.3,165z"/>
</g>
<g>
	<defs>
		<rect id="SVGID_5_" x="577.7" y="-10" width="169" height="192.2"/>
	</defs>
	<clipPath id="SVGID_6_">
		<use xlink:href="#SVGID_5_"  style="overflow:visible;"/>
	</clipPath>
	<path style="clip-path:url(#SVGID_6_);fill:none;stroke:#999999;" d="M719.3,164.7c0,90-27.4,163-61.2,163
		c-33.8,0-61.2-73-61.2-163c0-90,27.4-163,61.2-163C690.1,1.6,719.3,74.6,719.3,164.7z"/>
</g>
<g>
	<defs>
		<rect id="SVGID_7_" x="92.4" y="263.3" width="211.3" height="329.5"/>
	</defs>
	<clipPath id="SVGID_8_">
		<use xlink:href="#SVGID_7_"  style="overflow:visible;"/>
	</clipPath>
	<g id="形状_13_2_" style="clip-path:url(#SVGID_8_);">
		<g>
			<path style="fill:#FF9B48;" d="M235.5,448.8c0,0-17.1,7.3-34,24.1c-22,19.9-34.2,31.4-44.4,34.4c-1.7,0.9-7.7,2.9-11.6,3.8
				c-5.2,1.3-10.5,1.3-12.3,3.3c-0.9,1-0.4,2.5,0.4,3.2c0.8,0.7,3.6,0.7,3.6,0.7s-7.5,2.2-4.8,6.9c2.5,4.2,19.5-7.8,20.3-2.5
				c0.4,2.8-9.1,5-4.6,8.5c2,1.6,8.8-2.4,13.6-6.6c3.5-3.1,6.7-8.4,17.4-15.8c8.6-6,24.8-15.6,42.1-22.8
				C259.7,469.9,235.5,448.8,235.5,448.8z"/>
		</g>
	</g>
	<g id="形状_14_2_" style="clip-path:url(#SVGID_8_);">
		<g>
			<path style="fill:#CC7123;" d="M144.5,513.8c-0.8,0.8-2.9,2-3.9,2.7c-2.1,1.3-4,1.7-4,1.7s0.5,0.1,1.4-0.1c2.5-0.7,5.7-2,7.2-3.3
				C146.3,513.8,145.6,512.7,144.5,513.8z"/>
		</g>
	</g>
	<g id="形状_13_1_" style="clip-path:url(#SVGID_8_);">
		<g>
			<path style="fill-rule:evenodd;clip-rule:evenodd;fill:#FF9B48;" d="M368.2,518.3c0,0,2.8,0,3.6-0.7c0.8-0.7,1.3-2.2,0.4-3.2
				c-1.7-1.9-7.1-2-12.3-3.3c-3.9-1-9.9-3-11.6-3.8c-10.3-3-22.4-14.6-44.4-34.4c-16.9-16.7-35.2-24.2-35.2-24.2s-23,21.3,15.5,37.4
				c17.2,7.2,33.4,16.8,42.1,22.8c10.7,7.4,13.9,12.7,17.4,15.8c4.7,4.2,11.6,8.2,13.6,6.6c4.5-3.5-5-5.7-4.6-8.5
				c0.7-5.3,17.8,6.7,20.3,2.5C375.8,520.5,368.2,518.3,368.2,518.3z"/>
		</g>
	</g>
	<g id="形状_14_1_" style="clip-path:url(#SVGID_8_);">
		<g>
			<path style="fill-rule:evenodd;clip-rule:evenodd;fill:#CC7123;" d="M365,516.5c-1-0.6-3.1-1.9-3.9-2.7c-1.2-1.1-1.8,0-0.7,1
				c1.5,1.3,4.7,2.7,7.2,3.3c0.9,0.2,1.4,0.1,1.4,0.1S367.1,517.8,365,516.5z"/>
		</g>
	</g>
	
		<radialGradient id="SVGID_9_" cx="255.7109" cy="487.2466" r="79.6906" gradientTransform="matrix(1 0 0 0.9295 0 34.3294)" gradientUnits="userSpaceOnUse">
		<stop  offset="0" style="stop-color:#FFC07D"/>
		<stop  offset="0.5713" style="stop-color:#FEB162"/>
		<stop  offset="1" style="stop-color:#FEA852"/>
	</radialGradient>
	<path style="clip-path:url(#SVGID_8_);fill-rule:evenodd;clip-rule:evenodd;fill:url(#SVGID_9_);" d="M372.7,670.8
		c-11.5,4.1-35.3,2.6-49,2c-14.3-0.6-44.6-5-50.2-6.5c-12-3.3-5.2-10.7-4-16.1c1.2-5.5,1.8-11,1.5-17c-0.1-2-0.2-5.7-3.7-5.5
		c-3.8,1.1-7.4,1.8-10.7,2.1c0,0,0,0-0.1,0c-0.3,0-0.5,0.1-0.8,0.1c-0.2,0-0.4,0-0.6,0c-0.2,0-0.3,0-0.5,0c-0.3,0-0.5,0-0.8,0
		c-0.1,0-0.3,0-0.4,0c-0.3,0-0.5,0-0.8,0c-0.1,0-0.3,0-0.4,0c-0.2,0-0.4,0-0.6,0c-0.2,0-0.4,0-0.6,0c-0.1,0-0.3,0-0.4,0
		c-0.3,0-0.5,0-0.8,0c-0.1,0-0.3,0-0.4,0c-0.3,0-0.5,0-0.8,0c-0.2,0-0.3,0-0.5,0c-0.2,0-0.4,0-0.6,0c-0.3,0-0.5,0-0.8-0.1
		c0,0,0,0-0.1,0c-3.3-0.3-6.9-1-10.7-2.1c-3.5-0.2-3.6,3.6-3.7,5.5c-0.3,6,0.3,11.5,1.5,17c1.1,5.4,7.9,12.8-4,16.1
		c-5.6,1.6-38.9,5.7-53.1,6.6c-15.3,1-40.6,1.2-47.9-1.9c-4-1.7-4.2-12,6.6-17.5c13.6-7,70.1-3.9,73.8-4.1c7.9-0.6,6.3-3.1,6.4-7
		c0.1-7.4-6-11.2-11.1-14.4c-5.2-3.3-31.1-14.7-31.1-39.9c0-13,3.6-30.5,20.3-55.4c40.8-60.6,42.3-94.5,42.3-94.5l3.3-0.1
		c0.1-0.6,0.2-1,0.2-1l12.1,0.5l12.1-0.5c0,0,0.1,0.3,0.2,1l3.3,0.1c0,0,1.5,33.8,42.3,94.5c16.8,24.9,20.3,42.4,20.3,55.4
		c0,25.2-25.9,36.6-31.1,39.9c-5.2,3.3-11.3,7.1-11.1,14.4c0.1,4-1.2,7.5,6.6,7.7c3.7,0.1,60-3.5,73.6,3.5
		C378.7,659,376.8,669.4,372.7,670.8z"/>
	<path style="clip-path:url(#SVGID_8_);fill-rule:evenodd;clip-rule:evenodd;fill:#DD7528;" d="M143.5,657.9
		c-11.8,3.1-10.4,8.6-8.7,13c0.2,0.5,0.5,1.1,0.8,1.6c0.7,0.1,1.4,0.2,2.2,0.3c-4.1-9.4,1.8-12.4,7-14.2
		C147.1,657.8,145.1,657.4,143.5,657.9z"/>
	<path style="clip-path:url(#SVGID_8_);fill-rule:evenodd;clip-rule:evenodd;fill:#DD7528;" d="M157.9,657.4
		c-10.1,2.3-8.6,10.8-7,14.8c0.2,0.5,0.4,0.9,0.6,1.2c0.7,0,1.3,0,2,0c-2.9-8.7,0.8-12.4,3.8-14.4
		C158.8,658,161.5,656.6,157.9,657.4z"/>
	<path style="clip-path:url(#SVGID_8_);fill-rule:evenodd;clip-rule:evenodd;fill:#DD7528;" d="M366.2,672.4
		c0.1-0.4,0.3-0.8,0.4-1.2c1.3-4.3-0.1-11.9-8.4-14c-4.6-1.1-2.6,0.9-0.6,1.6c4.9,1.6,7.5,7.5,5.3,14.1
		C364,672.7,365.1,672.6,366.2,672.4z"/>
	<path style="clip-path:url(#SVGID_8_);fill-rule:evenodd;clip-rule:evenodd;fill:#DD7528;" d="M350.7,672.4
		c2.4-5.3,0.3-13.1-5.4-15.3c-2.3-0.5-0.1,1.4,1.5,3.1c2.2,2.3,3.3,7.8,1.4,12c-0.3,0.6-0.5,1-0.6,1.4c0.8,0,1.6,0,2.5,0
		C350.2,673.2,350.5,672.9,350.7,672.4z"/>
	<g id="形状_12_1_" style="clip-path:url(#SVGID_8_);">
		<g>
			
				<linearGradient id="SVGID_10_" gradientUnits="userSpaceOnUse" x1="212.8339" y1="560.0776" x2="211.5947" y2="448.5523" gradientTransform="matrix(1 0 0 1 39.2562 -3.1478)">
				<stop  offset="0" style="stop-color:#FFC28A"/>
				<stop  offset="0.7938" style="stop-color:#FFCD9F"/>
				<stop  offset="1" style="stop-color:#FFD0A5"/>
			</linearGradient>
			<path style="fill-rule:evenodd;clip-rule:evenodd;fill:url(#SVGID_10_);" d="M270.9,483.7c-8.5-13.9-29.5-12.5-37.8,1
				c-10,16.3-22.1,60.6-13.5,85.8c7.1,20.8,56.5,22.2,64.1,2.2C294,546,279.9,498.4,270.9,483.7z"/>
		</g>
	</g>
	<path style="opacity:0.6;clip-path:url(#SVGID_8_);fill-rule:evenodd;clip-rule:evenodd;fill:#DD7528;" d="M193.9,548.1
		c0,0,22.9,5.7,59.7,5.7c34.7,0,41.1-2,59.3-6.2C313.5,548.2,257,646.4,193.9,548.1z"/>
	<g id="形状_11_拷贝_2_1_" style="clip-path:url(#SVGID_8_);">
		<g>
			<path style="fill-rule:evenodd;clip-rule:evenodd;fill:#FFBF80;" d="M311.5,548.2c-0.5,0.3-1,0.5-1.5,0.7
				c-16.8,7.5-36.8,9.9-52.4,10.3c-15.4,0.1-38.2-1.3-57-8.7c-1.6-0.7-4-1.4-5.6-2.2c-4.3-2.1-5.2,3.3-5.1,6.4
				c0.2,13.5,3.2,56.1,41.8,70.5c1.6,1,6.3,3.4,15.9,3.9c3.1,0.5,6.7,0.4,10.2-0.1c0.4,0,0.8,0,1.1-0.1c5.8-0.6,11-2,15.7-4
				c0.3-0.1,0.5-0.2,0.5-0.2v0c29.4-13,37.6-50.5,40-68.7c0.2-1.4,0.3-2.6,0.4-3.7C316.3,547.5,313,547.3,311.5,548.2z"/>
		</g>
	</g>
	<path style="opacity:0.6;clip-path:url(#SVGID_8_);fill-rule:evenodd;clip-rule:evenodd;fill:#DD7528;" d="M267.2,438.1
		c-4.5,2.7-10.7,6.4-14.2,6.9c-5.2,0.8-11.1-0.1-17-6.8c0,0.5-0.2,2.8-1,6.8c1.7,5.4,5.3,11.2,13.1,12.1c9.1,1.1,16-6.3,20.1-12.7
		c-0.8-4.2-0.9-6.3-0.9-6.3L267.2,438.1z"/>
	<g id="形状_9_1_" style="clip-path:url(#SVGID_8_);">
		<g>
			<path style="fill-rule:evenodd;clip-rule:evenodd;fill:#FFC07D;" d="M235.4,335.4c-19.4-42.7-49-59.1-49-59.1s-7.7-4.9-8.7,0.4
				c-11.4,66.8,41.6,81.7,41.6,81.7S254.8,378.1,235.4,335.4z"/>
		</g>
	</g>
	<g id="形状_10_1_" style="clip-path:url(#SVGID_8_);">
		<g>
			<path style="fill-rule:evenodd;clip-rule:evenodd;fill:#FF9B48;" d="M229.4,345.3c-7.3-32.8-34.7-44.1-34.7-44.1s-5.7-4-5.8,1.6
				c2.3,42.1,37.4,48.8,37.4,48.8S231,352.9,229.4,345.3z"/>
		</g>
	</g>
	<g id="形状_9_拷贝_1_" style="clip-path:url(#SVGID_8_);">
		<g>
			<path style="fill:#FFC07D;" d="M328.5,276.7c-1.1-5.3-8.7-0.4-8.7-0.4s-29.7,16.4-49.1,59.1c-19.4,42.6,16.1,23,16.1,23
				S339.9,343.5,328.5,276.7z"/>
		</g>
	</g>
	<g id="形状_10_拷贝_1_" style="clip-path:url(#SVGID_8_);">
		<g>
			<path style="fill:#FF9B48;" d="M311.5,301.1c0,0-27.4,11.3-34.7,44.1c-1.6,7.6,3.1,6.3,3.1,6.3s35.1-6.7,37.4-48.8
				C317.2,297.1,311.5,301.1,311.5,301.1z"/>
		</g>
	</g>
	<g id="脸_2_" style="clip-path:url(#SVGID_8_);">
		<g>
			
				<radialGradient id="SVGID_11_" cx="213.907" cy="446.1003" r="51.4689" gradientTransform="matrix(0.9999 1.315258e-02 -9.151512e-03 0.6957 43.3572 129.7711)" gradientUnits="userSpaceOnUse">
				<stop  offset="0" style="stop-color:#FECD97"/>
				<stop  offset="1" style="stop-color:#FFC07A"/>
			</radialGradient>
			<path style="fill:url(#SVGID_11_);" d="M292.4,373.4c-1.9-6.1-3.7-14.9-6.3-22.2c-5.7-16.4-19-21.9-33.1-21.6
				c-14.2,0.2-27.7,6.3-33.1,21.7c-2.5,7.3-4.1,16.1-6,22.2c-1.9,6.1-6.1,32,4.5,48.1c-0.1,0.1,4.5,5.7,13,14.1
				c6.9,6.9,10.9,12.6,19.8,13.2c0.1,0,0.1,0,0.2,0c0.1,0,0.1,0,0.2,0c0.7,0,1.5,0,2.3,0c0.1,0,0.3,0,0.4-0.1
				c11-0.7,14.6-7.6,21.5-13.8c8.9-8,12.3-13.4,12.2-13.5C298.5,405.4,294.3,379.5,292.4,373.4z"/>
		</g>
	</g>
	<path style="clip-path:url(#SVGID_8_);fill-rule:evenodd;clip-rule:evenodd;fill:#66361F;" d="M252.6,378.6
		c-0.1,0.1,15.4-4.5,22-21.3c0-0.4,7,12.6,18.2,17.7c-0.2-0.7-0.3-1.2-0.5-1.7c-1.7-7.3-3.2-14.3-5.7-21.6
		c-5.7-16.4-19.5-22.5-33.6-22.2c-14.2,0.2-27.7,6.3-33.1,21.7c-2.5,7.3-4.8,16.7-6,22.2c-0.1,0.3-0.2,0.6-0.3,0.9
		c3.8-0.6,10.6-3.6,17-16.3C230.4,358.2,233.7,369.4,252.6,378.6z"/>
	<path style="clip-path:url(#SVGID_8_);fill-rule:evenodd;clip-rule:evenodd;fill:#E5432E;" d="M290.4,366.3
		c-0.7-2.8-1.5-5.7-2.3-8.6c-5.5-7.2-16.9-18.6-34.6-18.4c-20.4,0.2-30.4,11.1-35.4,18.1c-0.7,2.7-1.4,5.4-2,8
		c4.8-5,17.6-15.9,37.4-15.8C271.3,349.6,283.9,360.2,290.4,366.3z"/>
	<g id="形状_3_拷贝_1_" style="clip-path:url(#SVGID_8_);">
		<g>
			<path style="fill-rule:evenodd;clip-rule:evenodd;fill:#E5432E;" d="M289.8,286.2c-0.6-1-1.4-0.7-2-0.4
				c-24.8,11.6-32.3,33.4-34.6,44.3c-3.2-13.1-12.2-33.4-34.8-44.5c-0.9-0.5-2-0.7-2.5,0.9c0,0-8.1,36.6,29.1,55.3
				c-7.7,5.9-15.9,13.5,7.9,3.5c25.8,10.8,15.1,2,7.7-3.5C298,323,289.8,286.2,289.8,286.2z"/>
		</g>
	</g>
	<g id="形状_73_1_" style="clip-path:url(#SVGID_8_);">
		<g>
			<path style="fill-rule:evenodd;clip-rule:evenodd;fill:#AD4023;" d="M251.9,325.6c0,0-1.6,3.8-1.4,8.4c0.3,5.4,1.6,8,1.7,5.9
				c0-1.5,0.7-7,1.1-10C253.4,329,251.9,325.6,251.9,325.6z"/>
		</g>
	</g>
	<g id="形状_82_1_" style="clip-path:url(#SVGID_8_);">
		<g>
			<path style="fill-rule:evenodd;clip-rule:evenodd;fill:#CA4825;" d="M268.9,342.3c-1-0.5-5-2.2-5.6-1.8c-3.5,2.2-7.1,5.9-2.1,4.7
				C264.8,344.2,270,342.8,268.9,342.3z M243,340.6c-1.3-0.4-5.8,1.6-5.8,1.6s1.7,0.9,3.8,1.5c2.1,0.6,6.6,2.3,6.2,0.9
				C246.9,343.2,245,341.2,243,340.6z"/>
		</g>
	</g>
	<path style="clip-path:url(#SVGID_8_);fill-rule:evenodd;clip-rule:evenodd;fill:#FFCE99;" d="M236.9,397.9
		c-4.2-10.4-10.7-12.6-15.1-11.8c-8.3,1.5-9.4,5.7-9.4,5.5c0.1-0.2-0.2-7.5,6.9-9.3c6.4-1.6,12.9,1,15.7,5.4
		c2.6,4,2.3,10.2,2.3,10.2"/>
	<path style="clip-path:url(#SVGID_8_);fill-rule:evenodd;clip-rule:evenodd;fill:#FFCE99;" d="M268.8,397.9
		c4.2-10.4,10.7-12.6,15.1-11.8c8.3,1.5,9.4,5.7,9.4,5.5c-0.1-0.2,0.2-7.5-6.9-9.3c-6.4-1.6-12.9,1-15.7,5.4
		c-2.6,4-2.3,10.2-2.3,10.2"/>
	<g id="形状_4_2_" style="clip-path:url(#SVGID_8_);">
		<g>
			<path style="fill:#FFFFFF;" d="M226.9,386.9c-3.4-1.6-10.5-0.8-13.4,1.6c0,0-4.2,17.4,11,19c7.6,0.3,12-3.7,12.7-8
				C238,394.7,230.8,388.7,226.9,386.9z"/>
		</g>
	</g>
	<g id="形状_6_2_" style="clip-path:url(#SVGID_8_);">
		<g>
			<path style="fill-rule:evenodd;clip-rule:evenodd;fill:#512A15;" d="M234.3,390.9c0-0.1-3.9-5.4-9-6.6c-1.9-0.5-6,0.5-6,0.5
				s-6.2,5.1-1.6,13.6c2.7,4.5,6.9,6.4,10.7,6c4.6-0.5,7.3-3.8,7.7-7.4C236.4,393.5,234.3,390.9,234.3,390.9z"/>
		</g>
	</g>
	<g id="形状_48_1_" style="clip-path:url(#SVGID_8_);">
		<g>
			<path style="fill:#FFFFFF;" d="M221.9,397.4c-0.2-1.4-4.7-1.6-5.7,0.3c-0.7,1.4,0.1,3,1.2,3.3
				C219.6,401.5,222.2,399.4,221.9,397.4z"/>
		</g>
	</g>
	<g id="形状_36_副本_2_" style="clip-path:url(#SVGID_8_);">
		<g>
			<path style="fill-rule:evenodd;clip-rule:evenodd;fill:#A85726;" d="M232.4,376.8c-5.6-2.4-11.5-1.6-10.5,0.7
				c0.4,1,3.2-0.7,7.8,0.7c6.2,2,6,5.5,7.5,5.1C239.8,382.6,235.6,378.1,232.4,376.8z"/>
		</g>
	</g>
	<g id="形状_4_1_" style="clip-path:url(#SVGID_8_);">
		<g>
			<path style="fill:#FFFFFF;" d="M292.7,388.4c-2.8-2.4-9.9-2.9-13.4-1.6c-8.2,3-11.2,7.8-10.4,12.5c0.7,4.4,5.1,8.3,12.7,8
				C296.9,405.9,292.7,388.4,292.7,388.4z"/>
		</g>
	</g>
	<g id="形状_6_1_" style="clip-path:url(#SVGID_8_);">
		<g>
			<path style="fill-rule:evenodd;clip-rule:evenodd;fill:#512A15;" d="M287.3,385.8c0,0-3.5-0.9-5.4-0.4c-5.2,1.2-9.3,4.4-9.3,4.5
				c0,0-1.5,5.7-0.6,8.1c1.7,4.5,3.3,6.5,7.9,6.6c3.8,0.1,8.1-1.3,9.7-6.7C291.6,391.4,287.3,385.8,287.3,385.8z"/>
		</g>
	</g>
	<g id="形状_48_副本_1_" style="clip-path:url(#SVGID_8_);">
		<g>
			<path style="fill:#FFFFFF;" d="M276.5,398c-1-1.8-5.1,0.4-5.3,1.8c-0.3,2.3,0.9,2.9,2.6,2.4C275.7,401.6,277.4,399.7,276.5,398z"
				/>
		</g>
	</g>
	<g id="形状_36_副本_1_" style="clip-path:url(#SVGID_8_);">
		<g>
			<path style="fill-rule:evenodd;clip-rule:evenodd;fill:#A85726;" d="M273.9,376.7c-3.2,1.3-7.4,5-5.6,6.2
				c1.7,1.2,2.8-2.7,7.2-4.2c5.5-1.8,9.5,0.2,9.8-1.2C285.7,375.4,279.5,374.4,273.9,376.7z"/>
		</g>
	</g>
	<g id="Shape_2_2_" style="clip-path:url(#SVGID_8_);">
		<g>
			<path style="fill-rule:evenodd;clip-rule:evenodd;fill:#9C6342;" d="M290.9,403.5c1.6-2.3,1.8-4.6,1.3-3.8c-1,2-2.4,4.4-5.4,5.8
				c-2.9,1.3-6.3,1.4-8.6,1.5c-2.1,0,4.2,1.5,8.6-0.2c0.3,0.1,0.8,0.3,1.3,0.6c0.6,0.3,1.7,1.1,1.7,0.7c-0.1-0.7-0.5-1.7-1.1-2.2
				c0.4-0.3,0.8-0.7,1.2-1c0.2,0,0.4,0,0.7,0.1c0.9,0.1,1.8,1.3,1.8,0.7C292.4,405,291.8,404,290.9,403.5z"/>
		</g>
	</g>
	<g id="形状_65_副本_2_" style="clip-path:url(#SVGID_8_);">
		<g>
			<path style="fill-rule:evenodd;clip-rule:evenodd;fill:#713D1F;" d="M298.6,386.5c-0.3,0.5-1.2,1.4-2.3,1.9
				c-0.9,0.4-2.2,0.7-3.4,0.3c0-0.1-0.1-0.2-0.1-0.3c-0.8-1.6-3.5-3.5-6.1-4c-4.2-0.8-7.7-0.3-10.7,1.1c-4,1.9-6.8,5.5-7.6,10.4
				c-0.4,2.1,0.1,3.3,0.8,1.5c1.5-4.4,3-6.8,7-9c3.2-1.7,7.1-3,12.9-0.1c2,1,3.1,2.9,3.4,4.3c0.1,0.5,0.6,2.2,0.8,1.1
				c0.1-0.5,0.1-1.1,0.2-1.7c0.4,0,1.1,0,2.1-0.4c0.8-0.3,2.2-1.3,2.8-2.5C299.1,387.7,299.1,385.6,298.6,386.5z"/>
		</g>
	</g>
	<g id="Shape_2_1_" style="clip-path:url(#SVGID_8_);">
		<g>
			<path style="fill-rule:evenodd;clip-rule:evenodd;fill:#9C6342;" d="M227.9,407c-2.3,0-5.8-0.1-8.6-1.5c-3.1-1.5-4.4-3.8-5.4-5.8
				c-0.4-0.9-0.2,1.5,1.3,3.8c-0.9,0.5-1.5,1.4-1.5,2c0,0.6,0.9-0.5,1.8-0.7c0.3,0,0.5-0.1,0.7-0.1c0.4,0.4,0.8,0.7,1.2,1
				c-0.6,0.5-1,1.5-1.1,2.2c-0.1,0.4,1.1-0.3,1.7-0.7c0.5-0.3,1-0.5,1.3-0.6C223.7,408.5,230,407,227.9,407z"/>
		</g>
	</g>
	<g id="形状_65_副本_1_" style="clip-path:url(#SVGID_8_);">
		<g>
			<path style="fill-rule:evenodd;clip-rule:evenodd;fill:#713D1F;" d="M237.2,395.9c-0.8-4.9-3.6-8.5-7.6-10.4
				c-3-1.4-6.6-2-10.7-1.1c-2.3,0.5-4.6,2-5.5,3.3c-0.2,0.3-0.3,0.6-0.5,0.9c0,0,0,0,0,0c-1.3,0.4-2.7,0.1-3.6-0.3
				c-1-0.5-2-1.4-2.3-1.9c-0.5-0.9-0.5,1.2,0.2,2.6c0.6,1.2,2,2.2,2.8,2.5c1.1,0.4,1.8,0.5,2.2,0.4c0,0.6,0,1.2,0.1,1.7
				c0.1,1.1,0.7-0.1,0.8-0.6c0.7-2.1,1.4-3.9,3.4-4.8c5.8-2.8,9.7-1.6,12.9,0.1c4,2.2,5.5,4.9,7,9
				C237.2,399.2,237.6,398,237.2,395.9z"/>
		</g>
	</g>
	<g id="腮红2_1_" style="clip-path:url(#SVGID_8_);">
		<g>
			<path style="fill-rule:evenodd;clip-rule:evenodd;fill:#FFA083;" d="M226.5,412.3c-6-0.6-8.7,1.4-8.7,3.3c0,1.5,2.2,4.6,7.8,4.9
				c7,0.4,9.1-1.9,9.2-3.1C234.8,416,233.9,413.1,226.5,412.3z"/>
		</g>
	</g>
	<g id="腮红2_副本_1_" style="clip-path:url(#SVGID_8_);">
		<g>
			<path style="fill-rule:evenodd;clip-rule:evenodd;fill:#FFA083;" d="M279.7,412.3c-7.4,0.8-8.3,3.7-8.3,5
				c0.1,1.2,2.1,3.5,9.2,3.1c5.6-0.3,7.8-3.4,7.8-4.9C288.4,413.7,285.8,411.6,279.7,412.3z"/>
		</g>
	</g>
	<path style="clip-path:url(#SVGID_8_);fill-rule:evenodd;clip-rule:evenodd;fill:#512A15;" d="M252.5,444.7c-3.8,0-9.9-3.5-9.4-7.3
		c0.4-3,3.5-4.1,9.5-4.1c6.1,0,9.2,1,9.5,4.1C262.4,440.8,257.4,444.7,252.5,444.7z"/>
	<g id="形状_20_1_" style="clip-path:url(#SVGID_8_);">
		<g>
			<path style="fill:#FCEACB;" d="M238.4,512.9c-11.4-8.9-25.6-3.1-25.6-0.9c0.9,24.1,23.9,21.7,23.9,21.7c8-0.9,9-6.5,9-6.5
				S246.1,518.8,238.4,512.9z"/>
		</g>
	</g>
	<g id="形状_21_1_" style="clip-path:url(#SVGID_8_);">
		<g>
			<path style="fill:#FFBD99;" d="M242.4,526.1c-1.6-8.3-18.6-11-18.3-7.6c0.8,13.4,15.9,12.3,15.9,12.3S242.9,530.4,242.4,526.1z"
				/>
		</g>
	</g>
	<g id="形状_20_拷贝_1_" style="clip-path:url(#SVGID_8_);">
		<g>
			<path style="fill:#FCEACB;" d="M266,513.9c-7.9,7.1-5.6,15.8-5.6,15.8s0.6,3.2,8.6,4.1c0,0,23.1,2.4,24-21.7
				C293.2,509.8,278.5,502.6,266,513.9z"/>
		</g>
	</g>
	<g id="形状_21_拷贝_1_" style="clip-path:url(#SVGID_8_);">
		<g>
			<path style="fill-rule:evenodd;clip-rule:evenodd;fill:#FFBD99;" d="M263.5,526.2c-0.6,4.3,2.5,4.7,2.5,4.7s15.1,1.1,15.9-12.3
				C282.1,515.2,265.1,517.9,263.5,526.2z"/>
		</g>
	</g>
	<g id="形状_23_1_" style="opacity:0.4;clip-path:url(#SVGID_8_);">
		<g>
			<path style="fill-rule:evenodd;clip-rule:evenodd;fill:#DD7528;" d="M270.1,560.6c-9.3-1.7-34.6-3.4-37.4,2.9
				c-2.8,6.3-9.2,3.2-7.8,21.1c0,0,2.2,11.4,11.1,9.2c2.7-1.1,3.8-4.7,3.7-8.6c0-3.8,1.6-3.9,4.9-3.9c7.7,0.2,11.9,0.8,17.3-2.5
				c2.9-1.8,4.8,2.4,4.3,6.9c-0.6,5.3,0.5,7.5,4.8,8.4c3.9,0.9,7.2-0.9,8.3-4.9c1.2-4.2,1.5-8.9,1.5-8.9S279.4,562.3,270.1,560.6z"
				/>
		</g>
	</g>
	<path style="clip-path:url(#SVGID_8_);fill-rule:evenodd;clip-rule:evenodd;fill:#FCEBCE;" d="M271.8,548.2c0,0,10.3,7,9.7,30
		c-0.3,7.8-4.1,11.8-8.1,11.5c-4.1-0.3-4.5-4.7-3.9-9.3c0.2-1.8,0.8-7.7-1.4-15.9C265.9,556.3,271.8,548.2,271.8,548.2z"/>
	<path style="clip-path:url(#SVGID_8_);fill-rule:evenodd;clip-rule:evenodd;fill:#FCEBCE;" d="M231.8,551c0,0-8.1,7.9-7.5,26.6
		c0.3,7.8,4,12.3,8.1,12.1c4.1-0.3,4.3-3.6,4-7.2c-0.2-3.2-0.9-8.5,1.3-16.6C239.9,557.6,231.8,551,231.8,551z"/>
	<path style="clip-path:url(#SVGID_8_);fill-rule:evenodd;clip-rule:evenodd;fill:#F6BF96;" d="M272.6,584.1
		c-0.1,1.6-0.4,4.1-0.8,5.2c0.2,0.1,0.4,0.2,0.6,0.2c0.2-0.7,0.5-1.7,0.6-2.7C273.3,584.3,272.7,581.6,272.6,584.1z"/>
	<path style="clip-path:url(#SVGID_8_);fill-rule:evenodd;clip-rule:evenodd;fill:#F6BF96;" d="M275.9,584.2c0,1.1,0,3.8-0.7,5.3
		c0.3-0.1,0.7-0.2,1-0.3c0.3-0.8,0.4-2,0.4-2.9C276.7,584.3,275.9,582.7,275.9,584.2z"/>
	<path style="clip-path:url(#SVGID_8_);fill-rule:evenodd;clip-rule:evenodd;fill:#F6BF96;" d="M233.9,586.8c-0.4-1.4-1-4.4-1.1-3.6
		c-0.2,1.5,0.2,3.5,0.7,5.1c0.1,0.4,0.3,0.8,0.5,1.1c0.4-0.1,0.7-0.3,0.9-0.4C234.4,588.3,234.1,587.7,233.9,586.8z"/>
	<path style="clip-path:url(#SVGID_8_);fill-rule:evenodd;clip-rule:evenodd;fill:#F6BF96;" d="M230.7,587.2c-0.9-2.5-1-4.9-1.1-3.1
		c-0.2,2.1,0.3,3.7,1.1,5.1c0.1,0.1,0.1,0.2,0.2,0.3c0.3,0.1,0.6,0.1,0.9,0.1C231.4,589,231.1,588.2,230.7,587.2z"/>
	<g id="脸_1_" style="clip-path:url(#SVGID_8_);">
		<g>
			<path style="fill:#FCEBCE;" d="M273.2,541.4c-4-14.2-13.4-17.8-20.3-17.7c-6.9-0.2-17.4,3.5-20.6,17.4c-0.8,4.8-3.3,8.7-2.5,14.8
				c0.9,6.1,2.9,9,11.4,14.8c1.8,1.3,3.1,1.3,5.1,2.9c2.1,1.6,4.4,2.3,8.5,1.8c0.1,0,0.1,0,0.2,0c1.6-0.3,2.9-0.9,4.1-1.8
				c2.1-1.6,3.4-1.6,5.1-2.9c8.5-5.7,10.5-8.7,11.4-14.8C276.6,549.8,274,544.2,273.2,541.4z"/>
		</g>
	</g>
	<g id="形状_77_1_" style="clip-path:url(#SVGID_8_);">
		<g>
			
				<ellipse transform="matrix(8.523916e-02 -0.9964 0.9964 8.523916e-02 -343.2798 748.208)" style="fill-rule:evenodd;clip-rule:evenodd;fill:#FFDECC;" cx="235.8" cy="561.1" rx="1.9" ry="3.3"/>
		</g>
	</g>
	<g id="形状_77_副本_1_" style="clip-path:url(#SVGID_8_);">
		<g>
			
				<ellipse transform="matrix(-3.271715e-02 -0.9995 0.9995 -3.271715e-02 -282.9987 848.2194)" style="fill:#FFDECC;" cx="269" cy="561.1" rx="1.9" ry="3.3"/>
		</g>
	</g>
	<path style="clip-path:url(#SVGID_8_);fill:#F7CC9D;" d="M240.2,534.9c0.8,2.9,2.2,3.4,4.1,3.7c2.3,0.3,3.6-1.8,4.3-2.7
		c0,0,1.5,2.9,3.6,3.5c2.3,0.7,3.8,0,4.6-1.5c0.5-0.9,0.3-2.4,0.3-2.4s1.9,2,4.7,1.2c1.7-0.4,1.8-1.9,1.9-2.9c0.1-1-0.3-1.9-0.3-1.9
		s2,2,1.4,4.4c-0.4,1.7-1.8,2.9-3.7,2.6c-1.3-0.2-3.3-1.5-3.3-1.5s-0.1,2.2-1.7,3.3c-1.5,1-3.7,0.9-5.1,0.1
		c-1.4-0.8-2.7-2.8-2.7-2.8s-0.8,1.8-2.8,2.7c-1.2,0.5-3.4,0.6-4.7-1.4C239.6,537.4,240.2,534.9,240.2,534.9z"/>
	<g id="形状_75_1_" style="clip-path:url(#SVGID_8_);">
		<g>
			<path style="fill-rule:evenodd;clip-rule:evenodd;fill:#552F19;" d="M236.5,553.4c-3.5-0.3-4.5,0-4.2,0.7
				c0.2,0.6,0.9-0.1,4.1,0.5c5.3,1.1,7.5,4.6,8.1,3.1C245.1,556.2,240.7,553.8,236.5,553.4z"/>
		</g>
	</g>
	<g id="形状_75_副本_1_" style="clip-path:url(#SVGID_8_);">
		<g>
			<path style="fill-rule:evenodd;clip-rule:evenodd;fill:#713D1F;" d="M269.2,553.4c-4.2,0.4-8.6,2.8-8,4.4c0.6,1.5,2.8-2,8.1-3.1
				c3.2-0.7,3.9,0,4.1-0.5C273.7,553.4,272.7,553.1,269.2,553.4z"/>
		</g>
	</g>
	<g id="形状_19_1_" style="clip-path:url(#SVGID_8_);">
		<g>
			<path style="fill:#57301B;" d="M252.6,569.5c-6.6-0.1-6,2-6,2s1.1,4.2,6.3,4c5.1-0.1,6-4,6-4S259.3,569.6,252.6,569.5z"/>
		</g>
	</g>
</g>
<rect x="390.6" y="524.5" style="fill:#FFFFFF;" width="35.6" height="35.6"/>
<g>
	<rect x="415.9" y="532.3" width="1.3" height="1.3"/>
	<rect x="417.1" y="533.6" width="1.2" height="1.2"/>
	<rect x="417.1" y="536.1" width="1.2" height="1.3"/>
	<rect x="410.9" y="532.3" width="1.3" height="1.3"/>
	<rect x="417.1" y="541" width="1.2" height="1.3"/>
	<rect x="417.1" y="547.3" width="1.2" height="1.3"/>
	<rect x="417.1" y="537.3" width="1.2" height="1.2"/>
	<rect x="417.1" y="542.3" width="1.2" height="1.3"/>
	<rect x="408.4" y="532.3" width="1.3" height="1.3"/>
	<rect x="398.4" y="542.3" width="1.2" height="1.3"/>
	<rect x="398.4" y="537.3" width="1.2" height="1.2"/>
	<rect x="398.4" y="546" width="1.2" height="1.3"/>
	<rect x="403.4" y="532.3" width="1.2" height="1.3"/>
	<rect x="398.4" y="533.6" width="1.2" height="1.2"/>
	<rect x="399.6" y="532.3" width="1.3" height="1.3"/>
	<rect x="399.6" y="536.1" width="1.3" height="1.3"/>
	<rect x="399.6" y="533.6" width="1.3" height="1.2"/>
	<rect x="399.6" y="537.3" width="1.3" height="1.2"/>
	<rect x="399.6" y="541" width="1.3" height="1.3"/>
	<rect x="399.6" y="539.8" width="1.3" height="1.3"/>
	<rect x="399.6" y="538.6" width="1.3" height="1.2"/>
	<rect x="404.6" y="533.6" width="1.3" height="1.2"/>
	<rect x="410.9" y="533.6" width="1.3" height="1.2"/>
	<rect x="413.4" y="533.6" width="1.3" height="1.2"/>
	<rect x="407.1" y="533.6" width="1.3" height="1.2"/>
	<rect x="408.4" y="533.6" width="1.3" height="1.2"/>
	<rect x="408.4" y="551" width="1.3" height="1.3"/>
	<rect x="410.9" y="551" width="1.3" height="1.3"/>
	<rect x="405.9" y="551" width="1.2" height="1.3"/>
	<rect x="413.4" y="551" width="1.3" height="1.3"/>
	<rect x="404.6" y="551" width="1.3" height="1.3"/>
	<rect x="399.6" y="547.3" width="1.3" height="1.3"/>
	<rect x="399.6" y="546" width="1.3" height="1.3"/>
	<rect x="399.6" y="544.8" width="1.3" height="1.2"/>
	<rect x="399.6" y="551" width="1.3" height="1.3"/>
	<rect x="399.6" y="549.8" width="1.3" height="1.2"/>
	<rect x="404.6" y="553.5" width="1.3" height="1.3"/>
	<rect x="397.1" y="533.6" width="1.3" height="1.2"/>
	<rect x="397.1" y="542.3" width="1.3" height="1.3"/>
	<rect x="397.1" y="541" width="1.3" height="1.3"/>
	<rect x="397.1" y="531.1" width="1.3" height="1.3"/>
	<rect x="397.1" y="538.6" width="1.3" height="1.2"/>
	<rect x="397.1" y="543.5" width="1.3" height="1.3"/>
	<rect x="407.1" y="531.1" width="1.3" height="1.3"/>
	<rect x="404.6" y="531.1" width="1.3" height="1.3"/>
	<rect x="408.4" y="531.1" width="1.3" height="1.3"/>
	<rect x="399.6" y="531.1" width="1.3" height="1.3"/>
	<rect x="398.4" y="549.8" width="1.2" height="1.2"/>
	<rect x="397.1" y="544.8" width="1.3" height="1.2"/>
	<rect x="408.4" y="553.5" width="1.3" height="1.3"/>
	<rect x="410.9" y="553.5" width="1.3" height="1.3"/>
	<rect x="405.9" y="553.5" width="1.2" height="1.3"/>
	<rect x="399.6" y="553.5" width="1.3" height="1.3"/>
	<rect x="397.1" y="549.8" width="1.3" height="1.2"/>
	<rect x="397.1" y="553.5" width="1.3" height="1.3"/>
	<rect x="397.1" y="552.3" width="1.3" height="1.3"/>
	<rect x="415.9" y="533.6" width="1.3" height="1.2"/>
	<rect x="414.6" y="552.3" width="1.2" height="1.3"/>
	<rect x="413.4" y="552.3" width="1.3" height="1.3"/>
	<rect x="410.9" y="552.3" width="1.3" height="1.3"/>
	<rect x="408.4" y="552.3" width="1.3" height="1.3"/>
	<rect x="418.4" y="552.3" width="1.3" height="1.3"/>
	<rect x="415.9" y="552.3" width="1.3" height="1.3"/>
	<rect x="418.4" y="551" width="1.3" height="1.3"/>
	<rect x="417.1" y="552.3" width="1.2" height="1.3"/>
	<rect x="418.4" y="549.8" width="1.3" height="1.2"/>
	<rect x="399.6" y="552.3" width="1.3" height="1.3"/>
	<rect x="405.9" y="552.3" width="1.2" height="1.3"/>
	<rect x="407.1" y="552.3" width="1.3" height="1.3"/>
	<rect x="403.4" y="552.3" width="1.2" height="1.3"/>
	<rect x="402.1" y="552.3" width="1.3" height="1.3"/>
	<rect x="418.4" y="546" width="1.3" height="1.3"/>
	<rect x="418.4" y="536.1" width="1.3" height="1.3"/>
	<rect x="418.4" y="533.6" width="1.3" height="1.2"/>
	<rect x="418.4" y="531.1" width="1.3" height="1.3"/>
	<rect x="412.1" y="531.1" width="1.2" height="1.3"/>
	<rect x="413.4" y="531.1" width="1.3" height="1.3"/>
	<rect x="415.9" y="531.1" width="1.3" height="1.3"/>
	<rect x="418.4" y="543.5" width="1.3" height="1.3"/>
	<rect x="418.4" y="547.3" width="1.3" height="1.3"/>
	<rect x="418.4" y="548.5" width="1.3" height="1.3"/>
	<rect x="418.4" y="538.6" width="1.3" height="1.2"/>
	<rect x="413.4" y="539.8" width="1.3" height="1.3"/>
	<rect x="403.4" y="539.8" width="1.2" height="1.3"/>
	<rect x="409.6" y="537.3" width="1.2" height="1.2"/>
	<rect x="412.1" y="541" width="1.2" height="1.3"/>
	<rect x="412.1" y="538.6" width="1.2" height="1.2"/>
	<rect x="405.9" y="537.3" width="1.2" height="1.2"/>
	<rect x="413.4" y="542.3" width="1.3" height="1.3"/>
	<rect x="413.4" y="544.8" width="1.3" height="1.2"/>
	<rect x="413.4" y="541" width="1.3" height="1.3"/>
	<rect x="413.4" y="536.1" width="1.3" height="1.3"/>
	<rect x="413.4" y="538.6" width="1.3" height="1.2"/>
	<rect x="403.4" y="546" width="1.2" height="1.3"/>
	<rect x="412.1" y="536.1" width="1.2" height="1.3"/>
	<rect x="413.4" y="547.3" width="1.3" height="1.3"/>
	<rect x="405.9" y="547.3" width="1.2" height="1.3"/>
	<rect x="412.1" y="547.3" width="1.2" height="1.3"/>
	<rect x="410.9" y="547.3" width="1.3" height="1.3"/>
	<rect x="405.9" y="539.8" width="1.2" height="1.3"/>
	<rect x="405.9" y="541" width="1.2" height="1.3"/>
	<rect x="407.1" y="539.8" width="1.3" height="1.3"/>
	<rect x="408.4" y="539.8" width="1.3" height="1.3"/>
	<rect x="407.1" y="544.8" width="1.3" height="1.2"/>
	<rect x="405.9" y="543.5" width="1.2" height="1.3"/>
	<rect x="409.6" y="539.8" width="1.2" height="1.3"/>
	<rect x="405.9" y="544.8" width="1.2" height="1.2"/>
	<rect x="405.9" y="542.3" width="1.2" height="1.3"/>
	<rect x="407.1" y="542.3" width="1.3" height="1.3"/>
	<rect x="408.4" y="542.3" width="1.3" height="1.3"/>
	<rect x="409.6" y="542.3" width="1.2" height="1.3"/>
	<rect x="408.4" y="543.5" width="1.3" height="1.3"/>
	<rect x="404.6" y="543.5" width="1.3" height="1.3"/>
	<rect x="404.6" y="539.8" width="1.3" height="1.3"/>
	<rect x="404.6" y="542.3" width="1.3" height="1.3"/>
	<rect x="404.6" y="546" width="1.3" height="1.3"/>
	<rect x="408.4" y="546" width="1.3" height="1.3"/>
	<rect x="410.9" y="544.8" width="1.3" height="1.2"/>
	<rect x="410.9" y="542.3" width="1.3" height="1.3"/>
	<rect x="405.9" y="538.6" width="1.2" height="1.2"/>
	<rect x="410.9" y="543.5" width="1.3" height="1.3"/>
	<rect x="409.6" y="538.6" width="1.2" height="1.2"/>
	<rect x="409.6" y="546" width="1.2" height="1.3"/>
	<rect x="400.9" y="546" width="1.2" height="1.3"/>
	<rect x="404.6" y="549.8" width="1.3" height="1.2"/>
	<rect x="402.1" y="549.8" width="1.3" height="1.2"/>
	<rect x="403.4" y="534.8" width="1.2" height="1.3"/>
	<rect x="404.6" y="534.8" width="1.3" height="1.3"/>
	<rect x="400.9" y="539.8" width="1.2" height="1.3"/>
	<rect x="400.9" y="537.3" width="1.2" height="1.2"/>
	<rect x="402.1" y="534.8" width="1.3" height="1.3"/>
	<rect x="415.9" y="544.8" width="1.3" height="1.2"/>
	<rect x="415.9" y="546" width="1.3" height="1.3"/>
	<rect x="415.9" y="547.3" width="1.3" height="1.3"/>
	<rect x="415.9" y="539.8" width="1.3" height="1.3"/>
	<rect x="415.9" y="537.3" width="1.3" height="1.2"/>
	<rect x="408.4" y="549.8" width="1.3" height="1.2"/>
	<rect x="407.1" y="549.8" width="1.3" height="1.2"/>
	<rect x="415.9" y="549.8" width="1.3" height="1.2"/>
	<rect x="413.4" y="549.8" width="1.3" height="1.2"/>
	<rect x="402.1" y="543.5" width="1.3" height="1.3"/>
	<rect x="402.1" y="548.5" width="1.3" height="1.3"/>
	<rect x="402.1" y="542.3" width="1.3" height="1.3"/>
	<rect x="408.4" y="536.1" width="1.3" height="1.3"/>
	<rect x="404.6" y="536.1" width="1.3" height="1.3"/>
	<rect x="402.1" y="539.8" width="1.3" height="1.3"/>
	<rect x="402.1" y="536.1" width="1.3" height="1.3"/>
	<rect x="414.6" y="536.1" width="1.2" height="1.3"/>
	<rect x="408.4" y="548.5" width="1.3" height="1.3"/>
	<rect x="412.1" y="534.8" width="1.2" height="1.3"/>
	<rect x="410.9" y="534.8" width="1.3" height="1.3"/>
	<rect x="413.4" y="548.5" width="1.3" height="1.3"/>
	<rect x="414.6" y="547.3" width="1.2" height="1.3"/>
	<rect x="414.6" y="543.5" width="1.2" height="1.3"/>
	<rect x="419.6" y="541" width="1.2" height="1.3"/>
	<rect x="393.4" y="541" width="1.2" height="1.3"/>
	<rect x="393.4" y="549.8" width="1.2" height="1.2"/>
	<rect x="393.4" y="546" width="1.2" height="1.3"/>
	<rect x="393.4" y="537.3" width="1.2" height="1.2"/>
	<rect x="393.4" y="533.6" width="1.2" height="1.2"/>
	<rect x="393.4" y="536" width="1.2" height="1.3"/>
	<rect x="405.9" y="557.2" width="1.2" height="1.3"/>
	<rect x="403.4" y="557.2" width="1.2" height="1.3"/>
	<rect x="412.1" y="557.2" width="1.2" height="1.3"/>
	<rect x="409.6" y="557.2" width="1.2" height="1.3"/>
	<rect x="408.4" y="557.2" width="1.3" height="1.3"/>
	<rect x="397.1" y="557.2" width="1.3" height="1.3"/>
	<rect x="393.4" y="557.2" width="1.2" height="1.3"/>
	<rect x="413.4" y="557.2" width="1.3" height="1.3"/>
	<rect x="398.4" y="557.2" width="1.2" height="1.3"/>
	<rect x="394.6" y="557.2" width="1.3" height="1.3"/>
	<rect x="399.6" y="557.2" width="1.3" height="1.3"/>
	<rect x="395.9" y="557.2" width="1.2" height="1.3"/>
	<rect x="422.1" y="539.8" width="1.2" height="1.3"/>
	<rect x="422.1" y="533.6" width="1.2" height="1.2"/>
	<rect x="422.1" y="551" width="1.2" height="1.3"/>
	<rect x="422.1" y="542.3" width="1.2" height="1.3"/>
	<rect x="422.1" y="552.3" width="1.2" height="1.3"/>
	<rect x="422.1" y="543.5" width="1.2" height="1.3"/>
	<rect x="422.1" y="547.3" width="1.2" height="1.3"/>
	<rect x="403.4" y="527.3" width="1.2" height="1.3"/>
	<rect x="409.6" y="527.3" width="1.2" height="1.3"/>
	<rect x="408.4" y="527.3" width="1.3" height="1.3"/>
	<rect x="407.1" y="527.3" width="1.3" height="1.3"/>
	<rect x="404.6" y="527.3" width="1.3" height="1.3"/>
	<rect x="399.6" y="527.3" width="1.3" height="1.3"/>
	<rect x="415.9" y="527.3" width="1.3" height="1.3"/>
	<rect x="412.1" y="527.3" width="1.2" height="1.3"/>
	<rect x="410.9" y="527.3" width="1.3" height="1.3"/>
	<rect x="394.6" y="526.1" width="1.3" height="1.3"/>
	<rect x="393.4" y="526.1" width="1.2" height="1.3"/>
	<rect x="395.9" y="526.1" width="1.2" height="1.3"/>
	<rect x="392.1" y="526.1" width="1.3" height="1.3"/>
	<rect x="397.1" y="526.1" width="1.3" height="1.3"/>
	<rect x="392.1" y="531.1" width="1.3" height="1.3"/>
	<rect x="392.1" y="527.3" width="1.3" height="1.3"/>
	<rect x="398.4" y="526.1" width="1.2" height="1.3"/>
	<rect x="392.1" y="528.6" width="1.3" height="1.2"/>
	<rect x="407.1" y="526.1" width="1.3" height="1.3"/>
	<rect x="408.4" y="526.1" width="1.3" height="1.3"/>
	<rect x="392.1" y="532.3" width="1.3" height="1.3"/>
	<rect x="404.6" y="526.1" width="1.3" height="1.3"/>
	<rect x="399.6" y="526.1" width="1.3" height="1.3"/>
	<rect x="403.4" y="526.1" width="1.2" height="1.3"/>
	<rect x="392.1" y="551" width="1.3" height="1.3"/>
	<rect x="392.1" y="549.8" width="1.3" height="1.2"/>
	<rect x="392.1" y="546" width="1.3" height="1.3"/>
	<rect x="392.1" y="552.3" width="1.3" height="1.3"/>
	<rect x="392.1" y="553.5" width="1.3" height="1.3"/>
	<rect x="392.1" y="557.2" width="1.3" height="1.3"/>
	<rect x="392.1" y="533.6" width="1.3" height="1.2"/>
	<rect x="392.1" y="554.8" width="1.3" height="1.2"/>
	<rect x="392.1" y="556" width="1.3" height="1.3"/>
	<rect x="392.1" y="538.6" width="1.3" height="1.2"/>
	<rect x="392.1" y="537.3" width="1.3" height="1.2"/>
	<rect x="392.1" y="543.5" width="1.3" height="1.3"/>
	<rect x="392.1" y="541" width="1.3" height="1.3"/>
	<rect x="392.1" y="529.8" width="1.3" height="1.3"/>
	<rect x="423.4" y="549.8" width="1.3" height="1.2"/>
	<rect x="423.4" y="547.3" width="1.3" height="1.3"/>
	<rect x="423.4" y="552.3" width="1.3" height="1.3"/>
	<rect x="423.4" y="541" width="1.3" height="1.3"/>
	<rect x="423.4" y="543.5" width="1.3" height="1.3"/>
	<rect x="423.4" y="553.5" width="1.3" height="1.3"/>
	<rect x="423.4" y="544.8" width="1.3" height="1.2"/>
	<rect x="423.4" y="551" width="1.3" height="1.3"/>
	<rect x="412.1" y="526.1" width="1.2" height="1.3"/>
	<rect x="418.4" y="557.3" width="1.3" height="1.3"/>
	<rect x="415.9" y="557.3" width="1.3" height="1.3"/>
	<rect x="420.9" y="557.3" width="1.3" height="1.3"/>
	<rect x="423.4" y="557.3" width="1.3" height="1.3"/>
	<rect x="419.6" y="526.1" width="1.2" height="1.3"/>
	<rect x="423.4" y="539.8" width="1.3" height="1.3"/>
	<rect x="422.1" y="526.1" width="1.2" height="1.3"/>
	<rect x="423.4" y="526.1" width="1.3" height="1.3"/>
	<rect x="418.4" y="526.1" width="1.3" height="1.3"/>
	<rect x="415.9" y="526.1" width="1.3" height="1.3"/>
	<rect x="417.1" y="526.1" width="1.2" height="1.3"/>
	<rect x="423.4" y="527.3" width="1.3" height="1.3"/>
	<rect x="420.9" y="526.1" width="1.3" height="1.3"/>
	<rect x="423.4" y="536.1" width="1.3" height="1.3"/>
	<rect x="423.4" y="528.6" width="1.3" height="1.2"/>
	<rect x="423.4" y="538.6" width="1.3" height="1.2"/>
	<rect x="423.4" y="529.8" width="1.3" height="1.3"/>
	<rect x="423.4" y="531.1" width="1.3" height="1.3"/>
	<rect x="423.4" y="533.6" width="1.3" height="1.2"/>
	<rect x="423.4" y="532.3" width="1.3" height="1.3"/>
	<rect x="395.9" y="549.8" width="1.2" height="1.2"/>
	<rect x="395.9" y="547.3" width="1.2" height="1.3"/>
	<rect x="395.9" y="553.5" width="1.2" height="1.3"/>
	<rect x="395.9" y="554.8" width="1.2" height="1.2"/>
	<rect x="395.9" y="552.3" width="1.2" height="1.3"/>
	<rect x="397.1" y="554.8" width="1.3" height="1.2"/>
	<rect x="395.9" y="533.6" width="1.2" height="1.2"/>
	<rect x="395.9" y="536" width="1.2" height="1.3"/>
	<rect x="395.9" y="531.1" width="1.2" height="1.3"/>
	<rect x="417.1" y="554.8" width="1.2" height="1.2"/>
	<rect x="412.1" y="554.8" width="1.2" height="1.2"/>
	<rect x="399.6" y="554.8" width="1.3" height="1.2"/>
	<rect x="420.9" y="554.8" width="1.3" height="1.2"/>
	<rect x="419.6" y="554.8" width="1.2" height="1.2"/>
	<rect x="420.9" y="552.3" width="1.3" height="1.3"/>
	<rect x="404.6" y="554.8" width="1.3" height="1.2"/>
	<rect x="402.1" y="554.8" width="1.3" height="1.2"/>
	<rect x="408.4" y="554.8" width="1.3" height="1.2"/>
	<rect x="405.9" y="554.8" width="1.2" height="1.2"/>
	<rect x="419.6" y="543.5" width="1.2" height="1.3"/>
	<rect x="419.6" y="542.3" width="1.2" height="1.3"/>
	<rect x="419.6" y="538.6" width="1.2" height="1.2"/>
	<rect x="419.6" y="539.8" width="1.2" height="1.3"/>
	<rect x="419.6" y="533.6" width="1.2" height="1.2"/>
	<rect x="417.1" y="553.5" width="1.2" height="1.3"/>
	<rect x="403.4" y="529.8" width="1.2" height="1.3"/>
	<rect x="404.6" y="529.8" width="1.3" height="1.3"/>
	<rect x="395.9" y="529.8" width="1.2" height="1.3"/>
	<rect x="419.6" y="531.1" width="1.2" height="1.3"/>
	<rect x="397.1" y="529.8" width="1.3" height="1.3"/>
	<rect x="399.6" y="529.8" width="1.3" height="1.3"/>
	<rect x="402.1" y="529.8" width="1.3" height="1.3"/>
	<rect x="418.4" y="529.8" width="1.3" height="1.3"/>
	<rect x="415.9" y="529.8" width="1.3" height="1.3"/>
	<rect x="422.1" y="554.8" width="1.2" height="1.2"/>
	<rect x="412.1" y="529.8" width="1.2" height="1.3"/>
	<rect x="410.9" y="529.8" width="1.3" height="1.3"/>
	<rect x="419.6" y="529.8" width="1.2" height="1.3"/>
	<rect x="394.6" y="549.8" width="1.3" height="1.2"/>
	<rect x="394.6" y="552.3" width="1.3" height="1.3"/>
	<rect x="394.6" y="547.3" width="1.3" height="1.3"/>
	<rect x="394.6" y="546" width="1.3" height="1.3"/>
	<rect x="394.6" y="553.5" width="1.3" height="1.3"/>
	<rect x="394.6" y="554.8" width="1.3" height="1.2"/>
	<rect x="394.6" y="537.3" width="1.3" height="1.2"/>
	<rect x="394.6" y="538.6" width="1.3" height="1.2"/>
	<rect x="394.6" y="541" width="1.3" height="1.3"/>
	<rect x="414.6" y="556" width="1.2" height="1.3"/>
	<rect x="413.4" y="556" width="1.3" height="1.3"/>
	<rect x="422.1" y="556" width="1.2" height="1.3"/>
	<rect x="420.9" y="556" width="1.3" height="1.3"/>
	<rect x="419.6" y="556" width="1.2" height="1.3"/>
	<rect x="399.6" y="556" width="1.3" height="1.3"/>
	<rect x="409.6" y="556" width="1.2" height="1.3"/>
	<rect x="403.4" y="556" width="1.2" height="1.3"/>
	<rect x="394.6" y="533.6" width="1.3" height="1.2"/>
	<rect x="408.4" y="556" width="1.3" height="1.3"/>
	<rect x="405.9" y="556" width="1.2" height="1.3"/>
	<rect x="420.9" y="533.6" width="1.3" height="1.2"/>
	<rect x="420.9" y="536.1" width="1.3" height="1.3"/>
	<rect x="420.9" y="531.1" width="1.3" height="1.3"/>
	<rect x="419.6" y="528.6" width="1.2" height="1.2"/>
	<rect x="418.4" y="528.6" width="1.3" height="1.2"/>
	<rect x="420.9" y="537.3" width="1.3" height="1.2"/>
	<rect x="420.9" y="528.6" width="1.3" height="1.2"/>
	<rect x="420.9" y="529.8" width="1.3" height="1.3"/>
	<rect x="420.9" y="543.5" width="1.3" height="1.3"/>
	<rect x="420.9" y="544.8" width="1.3" height="1.2"/>
	<rect x="420.9" y="539.8" width="1.3" height="1.3"/>
	<rect x="420.9" y="546" width="1.3" height="1.3"/>
	<rect x="399.6" y="528.6" width="1.3" height="1.2"/>
	<rect x="402.1" y="528.6" width="1.3" height="1.2"/>
	<rect x="397.1" y="528.6" width="1.3" height="1.2"/>
	<rect x="415.9" y="528.6" width="1.3" height="1.2"/>
	<rect x="394.6" y="529.8" width="1.3" height="1.3"/>
	<rect x="394.6" y="528.6" width="1.3" height="1.2"/>
	<rect x="395.9" y="528.6" width="1.2" height="1.2"/>
	<rect x="394.6" y="531.1" width="1.3" height="1.3"/>
	<rect x="412.1" y="528.6" width="1.2" height="1.2"/>
	<rect x="404.6" y="528.6" width="1.3" height="1.2"/>
	<rect x="409.6" y="528.6" width="1.2" height="1.2"/>
	<rect x="408.4" y="528.6" width="1.3" height="1.2"/>
</g>
</svg>
