<?xml version="1.0" encoding="utf-8"?>
<!-- Generator: Adobe Illustrator 17.1.0, SVG Export Plug-In . SVG Version: 6.00 Build 0)  -->
<!DOCTYPE svg PUBLIC "-//W3C//DTD SVG 1.1//EN" "http://www.w3.org/Graphics/SVG/1.1/DTD/svg11.dtd">
<svg version="1.1" id="图层_1" xmlns="http://www.w3.org/2000/svg" xmlns:xlink="http://www.w3.org/1999/xlink" x="0px" y="0px"
	 viewBox="0 0 819 597.2" style="enable-background:new 0 0 819 597.2;" xml:space="preserve">
<rect x="513.1" y="150.1" style="fill:#FF6600;" width="301.7" height="441.9"/>
<rect x="1.6" y="150.1" style="fill:#FFFFFF;stroke:#999999;stroke-miterlimit:10;" width="301.7" height="441.9"/>
<rect x="355.9" y="149.5" style="fill:#FFFFFF;stroke:#999999;stroke-miterlimit:10;" width="103.7" height="443.2"/>
<circle style="fill:none;stroke:#999999;" cx="92.5" cy="180.5" r="4.2"/>
<circle style="fill:none;stroke:#999999;" cx="213.2" cy="180.5" r="4.2"/>
<g>
	<path style="fill:#FF6600;" d="M408.3,281.5c-1,0.3-2.1,0.6-3.3,0.9c-1.1-1.2-2.2-2.3-3.2-3.4c-0.8-0.7-1.4-1.2-1.7-1.4l2.3-1.9
		c0.6,0.5,1.3,0.8,2.1,0.8h4.6v-1.8h3v4.8h-5.9c0.2,0.2,0.5,0.5,1,0.9C407.7,280.9,408.1,281.2,408.3,281.5z M418.2,284.8v3.4h-5
		v4.8h-3.1v-4.8h-6.7v5.3h-2.9v-12.7h2.9v4.1H418.2z M418.4,278.3c-1.4,1.2-2.5,2.3-3.4,3l-2-2.6c0.1-0.1,0.3-0.2,0.5-0.3
		c1.2-1,2.3-1.9,3-2.6L418.4,278.3z"/>
	<path style="fill:#FF6600;" d="M411.4,295v7.2c0.8,0.1,1.8,0.1,2.9,0.1v-6.2h3v16.1h-3v-6.4c-0.4,0-0.9,0-1.5-0.1
		c-0.6,0-1.1,0-1.4,0v7.6h-3V306c-2.8,1-4.5,3.6-5.4,7.6c-1-0.7-2.1-1.3-3.1-1.9c1.2-4.1,3.1-6.6,5.6-7.6c-2.3-1-4.3-3.5-5.8-7.6
		c1.1-0.7,2.1-1.3,2.8-1.9c1.5,4.4,3.5,6.8,5.9,7.3V295H411.4z"/>
	<path style="fill:#FF6600;" d="M417.2,314.8v18.6H414v-8.2h-3.7l1.7,1.5c-1.6,2.2-3.1,4.3-4.6,6.2l-2.7-2.3c1.7-2,3.2-3.8,4.4-5.5
		h-9.3v-3.6H414v-6.8H417.2z"/>
	<path style="fill:#FF6600;" d="M407.6,337.1l-1.2,3c-0.7-0.2-1.8-0.6-3.3-1.1c-1.6-0.5-2.8-0.9-3.6-1.2l1.2-3
		C403.6,335.8,405.8,336.6,407.6,337.1z M410.6,352.4h-3c-1.6-1.1-3-2.2-4.1-3.4c-0.5,1.2-0.9,2.8-1.2,4.6c-0.4-0.3-1-0.7-2-1.2
		c-0.3-0.2-0.5-0.3-0.7-0.4c0.6-2.4,1.2-4.4,2-5.8c-0.9-1.7-1.6-3.6-2.1-5.7c0.3-0.2,0.6-0.4,1.1-0.6c0.7-0.4,1.2-0.7,1.6-0.9
		c0.4,1.8,0.9,3.2,1.3,4.4c0.9-0.8,1.9-1.7,3-2.6l1.2,1.9v-2.4h2.7V352.4z M407.9,343.5c-1.1,0.9-2,1.8-2.7,2.7
		c0.7,0.9,1.6,1.8,2.7,2.6V343.5z M413.2,336.6c-0.5,0.6-1.2,1.5-2.2,2.7c-0.3,0.3-0.5,0.5-0.6,0.7l-2.5-2.3c0.8-0.8,1.8-1.8,3-3.2
		L413.2,336.6z M414.1,351.9v1.6c-0.9-0.2-1.8-0.3-2.7-0.5c0-0.2,0-0.5,0-1c-0.1-0.6-0.1-1.1-0.1-1.6c-0.1-1.7,0.7-2.5,2.3-2.5h1.2
		v-3.3c-1.8,0-3.2-1.1-4.3-3.2c0.7-0.7,1.4-1.4,2.1-2.1c0.8,1.8,1.9,2.6,3.3,2.4h1.6v9.2h-2.8C414.3,350.9,414.1,351.2,414.1,351.9z
		 M418.2,337.3c-0.9,1.2-1.8,2.3-2.7,3.4l-2.4-2.3c1-0.9,1.9-2,2.9-3.1L418.2,337.3z"/>
	<path style="fill:#FF6600;" d="M399.7,360.8v-3.2h7.3c-0.4-0.3-0.8-0.8-1.4-1.5c-0.2-0.3-0.4-0.4-0.5-0.5c0.7-0.2,1.8-0.6,3.4-1.1
		c1.8,2,3.5,3.5,5.3,4.4v-4.1h2.8v5.5c0.3,0.1,0.6,0.2,1.2,0.4c0.3,0.1,0.5,0.2,0.7,0.2l-0.2,3.6c-0.5-0.2-1.1-0.4-1.6-0.6v9.6h-2.8
		v-10.8c-0.2-0.1-0.5-0.3-0.8-0.5l-0.2-0.1v9.7h-10.2c-1.9,0.2-2.9-0.8-2.8-3c-0.1-0.9-0.1-2.1-0.1-3.5c1-0.2,1.9-0.4,2.6-0.7
		c0,0.9,0,1.8,0,2.6c-0.1,0.9,0.3,1.4,1.1,1.4v-7.8H399.7z M406.7,360.8h-0.9v7.8h0.9V360.8z M410.1,360.8h-1v7.8h1V360.8z"/>
	<path style="fill:#FF6600;" d="M417.9,390c-0.3,0.1-0.7,0.2-1.4,0.4c-0.6,0.2-1.1,0.3-1.4,0.4v2.3h-2.5v-2.9h-1.5v2.7h-2.5v-2.7
		h-1.6v2.7h-2.5v-2.7H403v3h-2.3v-8h-1.1v-2.9h3.1l-1.3-2.1c0.3-0.3,0.8-0.6,1.6-1c0.6-0.3,1-0.5,1.2-0.7c-1.4-0.7-2.7-1.7-4.1-3
		c0.5-0.2,1.1-0.5,1.9-0.8c0.6-0.2,1-0.4,1.2-0.5c1.2,1.1,2.5,1.9,3.9,2.6c0.4-0.3,1-0.6,1.9-1.1c1.1-0.7,2-1.2,2.7-1.6l1.4,2.2
		c-0.9,0.6-1.8,1.1-2.7,1.6c1.1,0.3,2.3,0.5,3.6,0.5v-3.8h2.8v6.8c-1.7-0.1-3.3-0.2-4.7-0.5c1.8,1.1,3.9,2,6.3,2.6l-0.5,3.1
		c-1-0.3-1.9-0.6-2.8-0.9v1.9c0.8-0.2,1.6-0.4,2.5-0.7L417.9,390z M404.6,385.3H403v2.2h1.6V385.3z M407.9,381.5
		c1-0.2,1.9-0.4,2.7-0.7c-1.1-0.2-2.2-0.4-3.3-0.9c-0.6,0.3-1.4,0.8-2.3,1.4c-0.8,0.5-1.4,0.8-1.7,1h5.8
		C408.8,382.1,408.4,381.9,407.9,381.5z M408.6,385.3h-1.6v2.2h1.6V385.3z M412.6,385.3h-1.5v2.2h1.5V385.3z"/>
	<path style="fill:#FF6600;" d="M418.2,407.4l-0.5,2.9c-0.9-0.2-1.9-0.5-2.8-0.9v4h-2.7v-0.7c-3.2-0.2-5.7-0.8-7.6-1.7
		c-0.7,0.7-1.5,1.5-2.3,2.4c-1-0.5-1.9-1-2.7-1.4c0.8-1.1,1.6-2,2.4-2.7c-0.9-0.9-1.8-1.9-2.7-3c0.8-0.5,1.5-0.9,2.2-1.4V402h-0.9
		v-2.6h9.2v1.7h2.3v-1.9h2.7v1.9h3.2v2.9H415v1.6h-2.5C414.1,406.4,416.1,407,418.2,407.4z M399.8,398.5v-2.7h8
		c-0.6-0.3-1.1-0.6-1.6-0.9c1.4-0.2,2.8-0.4,4.1-0.6c1.9,0.9,4.5,1.7,7.9,2.6l-0.5,2.9c-1.4-0.4-2.7-0.8-3.9-1.2H399.8z
		 M404.7,407.7c1.2-0.5,2.7-0.9,4.3-1.2c-0.1-0.1-0.2-0.1-0.3-0.2c-0.2-0.2-0.3-0.3-0.4-0.3c0.2-0.1,0.4-0.1,0.7-0.2
		c0.3-0.1,0.4-0.2,0.5-0.2h-6.9C403.4,406.4,404.1,407.1,404.7,407.7z M407.3,402H404v1.1h3.3V402z M412.2,408.5
		c-1.9,0.1-3.4,0.3-4.7,0.8c1.2,0.4,2.8,0.6,4.7,0.8V408.5z M411.3,405.1c0.3,0.2,0.6,0.3,0.9,0.4V404h-2.3v1.5
		C410.4,405.3,410.8,405.2,411.3,405.1z"/>
	<path style="fill:#FF6600;" d="M403.8,432.7c-2.5,0-3.8-1.1-3.8-3.4c-0.1-0.9-0.1-2.1-0.1-3.6c0.2-0.1,0.5-0.1,0.9-0.2
		c0.6-0.1,1.3-0.3,2.1-0.5c-0.1,0.6-0.1,1.6-0.1,2.8c-0.1,1.1,0.4,1.7,1.6,1.7c0.5,0,1.6,0,3.3,0c2.2,0.1,3.7,0.1,4.6,0.1v-2.7
		c-0.8-0.3-1.6-0.7-2.4-1.1c0.4-0.8,0.9-1.6,1.3-2.4H400v-3h1.1v-2.3h-1.2v-3h15.4v2.2c1,0.3,2,0.4,2.9,0.5l-0.4,3.4
		c-0.2-0.1-0.4-0.1-0.6-0.2c-0.6-0.1-1.2-0.3-1.9-0.5v2.8h-3.3c2.2,1,4.3,1.8,6.2,2.3l-0.7,3.1c-0.3-0.1-0.6-0.2-1.1-0.3
		c-0.5-0.2-0.9-0.3-1.2-0.4v4.8C409.6,432.8,405.8,432.7,403.8,432.7z M406.7,418.1H404v2.3h2.7V418.1z M410.3,426.5
		c-0.6,0.5-1.5,1.1-2.7,2c-0.5,0.4-0.9,0.6-1.2,0.9l-1.7-2.7c1.7-1.1,3-2,4-2.7L410.3,426.5z M412.4,418.1h-2.7v2.3h2.7V418.1z"/>
	<path style="fill:#FF6600;" d="M399.7,444.4v-3h9.5c-0.3-0.2-0.7-0.5-1-0.8c0.2,0,0.5,0,0.8-0.1c0.4-0.1,0.6-0.1,0.8-0.2
		c-1.1,0-2,0-2.7,0c-0.2-0.4-0.3-0.8-0.3-1.2h-4.5c-1.5,0.1-2.3-0.6-2.3-2c-0.1-0.7-0.2-1.4-0.2-2.2c0.1,0,0.2,0,0.4-0.1
		c0.7-0.1,1.5-0.3,2.4-0.5v1.2c0,0.5,0.3,0.7,0.8,0.6h2.6c-0.2-0.5-0.3-1.1-0.5-1.7l3.3-0.2c0,0.1,0,0.2,0.1,0.4
		c0.1,0.4,0.2,0.9,0.3,1.6h3.3v-1.6h2.8v1.6h3.1v2.9h-3.1v1.3h-2.3c1.4,0.9,3.2,1.6,5.6,2.3L418,446c-0.3-0.1-0.8-0.3-1.4-0.5
		c-0.7-0.3-1.2-0.4-1.5-0.5v2.3c0.8-0.3,1.7-0.5,2.6-0.9l0.3,3.1c-0.2,0.1-0.4,0.1-0.7,0.2c-0.5,0.2-1.2,0.4-2.2,0.6v2.7h-2.5v-3.1
		h-1.6v2.9h-2.5v-2.9h-1.5v2.9h-2.5v-2.9H403v3.3h-2.3v-8.8H399.7z M404.6,444.4H403v2.5h1.6V444.4z M408.6,444.4h-1.5v2.5h1.5
		V444.4z M409.7,439.2c0.1,0.3,0.2,0.7,0.2,1.1c0.6-0.1,1.2-0.2,1.8-0.4c0.2,0.2,0.3,0.3,0.5,0.3v-1H409.7z M412.6,444.4h-1.6v2.5
		h1.6V444.4z"/>
	<path style="fill:#FF6600;" d="M409.4,459.5c-2.5,0-4.4-0.2-5.8-0.5c-1.2-0.3-2.6-0.9-4.1-1.8c0.7-0.9,1.5-1.9,2.2-3
		c1.1,0.8,2.1,1.3,3.1,1.6c0.9,0.2,2.5,0.3,4.6,0.3h6.7v6.8c0.4-0.1,1-0.3,1.8-0.5c0.2-0.1,0.3-0.1,0.3-0.1l0.2,4.2
		c-0.2,0.1-0.6,0.2-1.1,0.3c-0.6,0.1-1,0.2-1.2,0.2v6.1H413v-13.6H409.4z"/>
</g>
<g>
	<defs>
		<rect id="SVGID_1_" x="198.5" y="148.8" width="279.2" height="95.6"/>
	</defs>
	<clipPath id="SVGID_2_">
		<use xlink:href="#SVGID_1_"  style="overflow:visible;"/>
	</clipPath>
</g>
<circle style="fill:none;stroke:#808080;" cx="599.2" cy="180.6" r="4.2"/>
<circle style="fill:none;stroke:#808080;" cx="720" cy="180.6" r="4.2"/>
<g>
	<defs>
		<rect id="SVGID_3_" x="520.4" y="293" width="272.1" height="300"/>
	</defs>
	<clipPath id="SVGID_4_">
		<use xlink:href="#SVGID_3_"  style="overflow:visible;"/>
	</clipPath>
</g>
<g>
	<defs>
		<rect id="SVGID_5_" x="-0.4" y="244.6" width="310.2" height="348.8"/>
	</defs>
	<clipPath id="SVGID_6_">
		<use xlink:href="#SVGID_5_"  style="overflow:visible;"/>
	</clipPath>
</g>
<g>
	<g id="形状_2_copy_3_副本_4_13_">
		<g>
			<path style="fill-rule:evenodd;clip-rule:evenodd;fill:#CCCCCC;" d="M34.7,236.9c-1.7,3.3-3.2,6.3-5,9.8h2.4
				c0.4-0.8,0.7-1.3,1.2-2.3c1.2,0,2.2,0,3.4,0c-0.3-0.7-0.4-1.3-0.6-1.9h-1.9c0.6-1.1,0.9-1.7,1.7-3.3c0.9,2.6,1.8,5.1,2.6,7.4h2.2
				c-1.2-3.4-2.3-6.4-3.4-9.8H34.7z M41.4,246.7h2.1l0.4-9.8l-2,0L41.4,246.7z M44.6,246.7h2.2l0.3-7.3h-2.1L44.6,246.7z M45,236.9
				l-0.1,1.6c0,0,1.6,0,2.1,0l0.1-1.6C45.3,236.9,45.3,236.9,45,236.9z M58.4,239.4c-0.4-0.1-0.8-0.2-1.2-0.2c-0.2,0-0.5,0-0.7,0.1
				c-0.2,0-0.4,0.1-0.6,0.2c-0.2,0.1-0.3,0.2-0.5,0.3c-0.1,0.1-0.3,0.2-0.4,0.3c-0.1,0.1-0.2,0.3-0.3,0.4c-0.1-0.2-0.2-0.4-0.3-0.5
				c-0.1-0.1-0.2-0.2-0.3-0.3c-0.1-0.1-0.3-0.2-0.4-0.3c-0.2-0.1-0.3-0.1-0.5-0.2c-0.2,0-0.4-0.1-0.6-0.1c-0.3,0-0.6,0-0.8,0.1
				c-0.3,0.1-0.5,0.2-0.7,0.3c-0.2,0.1-0.4,0.2-0.5,0.4c-0.1,0.1-0.3,0.3-0.4,0.5l0.1-1.2h-1.9l-0.3,7.3c0,0,1.6,0,2,0
				c0-0.6,0-1.5,0.1-2.5c0.1-1.1,0.1-1.8,0.3-2.1c0.1-0.4,0.3-0.7,0.6-0.9c0.3-0.2,0.5-0.3,0.9-0.3c0.2,0,0.3,0,0.5,0.1
				c0.1,0.1,0.3,0.2,0.4,0.3c0.1,0.1,0.2,0.3,0.2,0.4c0,0.1,0.1,0.3,0.1,0.5c0,0.4,0,1.2-0.1,2.3c-0.1,1.1-0.1,1.9-0.1,2.3
				c0.4,0,1.7,0,2,0l0-2c0-0.7,0.1-1.3,0.1-1.7c0-0.4,0.1-0.8,0.2-1c0.1-0.2,0.2-0.5,0.4-0.6c0.2-0.2,0.3-0.3,0.5-0.4
				c0.2-0.1,0.4-0.1,0.6-0.1c0.2,0,0.4,0,0.6,0.1c0.2,0.1,0.3,0.2,0.4,0.4c0.1,0.2,0.2,0.4,0.2,0.8c0,0.3,0,0.6,0,1.1l-0.1,1.6
				c0,0.7-0.1,1.3-0.1,1.9c0.4,0,1.7,0,2,0c0-0.5,0-1.3,0.1-2.3c0-1,0.1-1.7,0.1-2.2c0-0.4,0-0.8,0-1c0-0.4-0.1-0.8-0.3-1.1
				C59,239.8,58.7,239.6,58.4,239.4z M66.1,239.4c-0.4-0.1-0.9-0.2-1.4-0.2c-0.5,0-0.9,0-1.4,0.1c-0.5,0.1-1.7,0.3-1.7,0.3l-0.2,1.4
				c0,0,2-0.6,2.9-0.6c0.2,0,0.4,0,0.6,0.1c0.2,0,0.4,0.1,0.5,0.3c0.1,0.1,0.2,0.3,0.2,0.5c0,0.1,0,0.2-0.1,0.3
				c0,0.1-0.1,0.2-0.2,0.3c-0.1,0.1-0.2,0.2-0.3,0.2c-0.1,0.1-0.3,0.1-0.5,0.2c-0.2,0.1-0.4,0.1-0.6,0.1c-0.7,0.1-1.2,0.3-1.7,0.4
				c-0.4,0.1-0.7,0.3-1,0.4c-0.2,0.2-0.4,0.3-0.5,0.5c-0.1,0.2-0.2,0.4-0.3,0.6c-0.1,0.2-0.1,0.4-0.1,0.6c0,0.4,0.1,0.7,0.3,1.1
				c0.2,0.4,0.5,0.6,0.9,0.8c0.4,0.2,0.9,0.2,1.5,0.2c0.2,0,0.4,0,0.6,0c0.2,0,0.5,0,0.8-0.1c0.1-0.5,0.3-0.9,0.4-1.2
				c-0.3,0.1-0.5,0.2-0.7,0.2c-0.2,0-0.3,0-0.5,0c-0.2,0-0.4,0-0.6-0.1c-0.2-0.1-0.3-0.2-0.4-0.3c-0.1-0.1-0.2-0.3-0.2-0.5
				c0-0.1,0-0.2,0.1-0.3c0-0.1,0.1-0.2,0.2-0.3c0.1-0.1,0.2-0.2,0.4-0.3c0.1-0.1,0.3-0.1,0.5-0.2c0.2-0.1,0.4-0.1,0.7-0.2
				c0.3-0.1,0.5-0.1,0.6-0.2c0.1,0,0.2-0.1,0.3-0.1c0.1,0,0.2-0.1,0.4-0.3l-0.2,3.8h2c0,0,0.1-2.3,0.1-3.5c0.1-1.1,0.1-1.8,0.1-2.1
				c0-0.5-0.1-0.9-0.4-1.2C66.9,239.7,66.5,239.5,66.1,239.4z M78.9,239.4c-0.4-0.1-0.8-0.2-1.2-0.2c-0.2,0-0.5,0-0.7,0.1
				c-0.2,0-0.4,0.1-0.6,0.2c-0.2,0.1-0.3,0.2-0.5,0.3c-0.1,0.1-0.3,0.2-0.4,0.3c-0.1,0.1-0.2,0.3-0.3,0.4c-0.1-0.2-0.2-0.4-0.3-0.5
				c-0.1-0.1-0.2-0.2-0.3-0.3c-0.1-0.1-0.3-0.2-0.4-0.3c-0.2-0.1-0.3-0.1-0.5-0.2c-0.2,0-0.4-0.1-0.6-0.1c-0.3,0-0.6,0-0.8,0.1
				c-0.3,0.1-0.5,0.2-0.7,0.3c-0.2,0.1-0.4,0.2-0.5,0.4c-0.1,0.1-0.3,0.3-0.4,0.5l0.1-1.2h-1.9l-0.3,7.3h2c0,0,0-1.5,0.1-2.5
				c0.1-1.1,0.1-1.8,0.3-2.1c0.1-0.4,0.3-0.7,0.6-0.9c0.3-0.2,0.5-0.3,0.9-0.3c0.2,0,0.3,0,0.5,0.1c0.1,0.1,0.3,0.2,0.4,0.3
				c0.1,0.1,0.2,0.3,0.2,0.4c0,0.1,0.1,0.3,0.1,0.5c0,0.4,0,1.2-0.1,2.3c-0.1,1.1-0.1,1.9-0.1,2.3c0.4,0,1.7,0,2,0l0-2
				c0-0.7,0.1-1.3,0.1-1.7c0-0.4,0.1-0.8,0.2-1c0.1-0.2,0.2-0.5,0.3-0.6c0.2-0.2,0.3-0.3,0.5-0.4c0.2-0.1,0.4-0.1,0.6-0.1
				c0.2,0,0.4,0,0.6,0.1c0.2,0.1,0.3,0.2,0.4,0.4c0.1,0.2,0.2,0.4,0.2,0.8c0,0.3,0,0.6,0,1.1l-0.1,1.6c0,0.7-0.1,1.3-0.1,1.9
				c0.4,0,1.7,0,2,0c0-0.5,0-1.3,0.1-2.3c0-1,0.1-1.7,0.1-2.2c0-0.4,0.1-0.8,0.1-1c0-0.4-0.1-0.8-0.3-1.1
				C79.5,239.8,79.3,239.6,78.9,239.4z M86.6,239.4c-0.4-0.1-0.9-0.2-1.4-0.2c-0.5,0-0.9,0-1.4,0.1c-0.5,0.1-1.7,0.3-1.7,0.3
				l-0.2,1.4c0,0,2-0.6,2.9-0.6c0.2,0,0.4,0,0.6,0.1c0.2,0,0.4,0.1,0.5,0.3c0.1,0.1,0.2,0.3,0.2,0.5c0,0.1,0,0.2-0.1,0.3
				c0,0.1-0.1,0.2-0.2,0.3c-0.1,0.1-0.2,0.2-0.3,0.2c-0.1,0.1-0.3,0.1-0.5,0.2c-0.2,0.1-0.4,0.1-0.6,0.1c-0.7,0.1-1.2,0.3-1.7,0.4
				c-0.4,0.1-0.7,0.3-1,0.4c-0.2,0.2-0.4,0.3-0.5,0.5c-0.1,0.2-0.2,0.4-0.3,0.6c-0.1,0.2-0.1,0.4-0.1,0.6c0,0.4,0.1,0.7,0.3,1.1
				c0.2,0.4,0.5,0.6,0.9,0.8c0.4,0.2,0.9,0.2,1.5,0.2c0.2,0,0.4,0,0.6,0c0.2,0,0.5,0,0.8-0.1c0.1-0.5,0.3-0.9,0.4-1.2
				c-0.3,0.1-0.5,0.2-0.7,0.2c-0.2,0-0.3,0-0.5,0c-0.2,0-0.4,0-0.6-0.1c-0.2-0.1-0.3-0.2-0.4-0.3c-0.1-0.1-0.2-0.3-0.2-0.5
				c0-0.1,0-0.2,0.1-0.3c0-0.1,0.1-0.2,0.2-0.3c0.1-0.1,0.2-0.2,0.4-0.3c0.1-0.1,0.3-0.1,0.5-0.2c0.2-0.1,0.4-0.1,0.7-0.2
				c0.3-0.1,0.5-0.1,0.6-0.2c0.1,0,0.2-0.1,0.3-0.1c0.1,0,0.2-0.1,0.4-0.3l-0.2,3.8h2c0,0,0.1-2.3,0.1-3.5c0.1-1.1,0.1-1.8,0.1-2.1
				c0-0.5-0.1-0.9-0.4-1.2C87.4,239.7,87.1,239.5,86.6,239.4z M88.9,244.8c0,0.9-0.1,1.6-0.1,1.9c0.7,0,2,0,2,0s0.1-1.6,0.1-1.9
				C90.4,244.8,88.9,244.8,88.9,244.8z M94.2,241.4c0.2-0.2,0.5-0.4,0.7-0.5c0.3-0.1,0.6-0.2,0.9-0.2c0.5,0,1.2,0.1,1.9,0.4
				l-0.1-1.6c-0.5-0.1-0.8-0.2-1.2-0.2c-0.3,0-0.7-0.1-1-0.1c-0.6,0-1.1,0.1-1.5,0.2c-0.5,0.1-0.9,0.4-1.2,0.7
				c-0.4,0.4-0.7,0.8-0.8,1.4c-0.2,0.6-0.3,1.1-0.3,1.7c0,0.5,0.1,0.9,0.2,1.3c0.1,0.4,0.3,0.8,0.5,1.1c0.2,0.3,0.5,0.5,0.8,0.7
				c0.3,0.2,0.6,0.3,1,0.4c0.4,0.1,0.7,0.1,1.1,0.1c0.7,0,1.3-0.1,2-0.2c0.1-0.4,0.1-0.7,0.2-0.9c0-0.2,0.1-0.5,0.1-0.7
				c-0.3,0.1-0.7,0.2-1,0.3c-0.3,0.1-0.6,0.1-0.8,0.1c-0.4,0-0.8-0.1-1.2-0.3c-0.3-0.2-0.6-0.4-0.7-0.8c-0.1-0.3-0.2-0.7-0.2-1.2
				c0-0.3,0-0.6,0.1-1C93.9,241.9,94,241.6,94.2,241.4z M105.2,240.2c-0.4-0.3-0.8-0.6-1.3-0.7c-0.5-0.2-1-0.2-1.6-0.2
				c-0.6,0-1.2,0.1-1.7,0.3c-0.6,0.2-1,0.5-1.4,0.9c-0.4,0.4-0.6,0.8-0.8,1.3c-0.2,0.5-0.3,1-0.3,1.5c0,0.5,0.1,1,0.3,1.5
				c0.2,0.5,0.5,0.9,0.8,1.2c0.4,0.3,0.8,0.6,1.3,0.7c0.5,0.2,1,0.2,1.6,0.2c0.6,0,1.2-0.1,1.7-0.3c0.5-0.2,1-0.5,1.3-0.8
				c0.4-0.4,0.6-0.8,0.8-1.3c0.2-0.5,0.3-1,0.3-1.6c0-0.5-0.1-1-0.3-1.5C105.8,240.9,105.5,240.5,105.2,240.2z M104,244.2
				c-0.2,0.4-0.4,0.7-0.7,0.9c-0.3,0.2-0.7,0.3-1.1,0.3c-0.4,0-0.8-0.1-1.1-0.3c-0.3-0.2-0.5-0.5-0.6-0.8c-0.1-0.3-0.2-0.7-0.2-1.1
				c0-0.5,0.1-0.9,0.2-1.3c0.2-0.4,0.4-0.7,0.7-0.9c0.3-0.2,0.7-0.3,1.1-0.3c0.4,0,0.8,0.1,1.1,0.3c0.3,0.2,0.5,0.5,0.6,0.8
				c0.1,0.3,0.2,0.7,0.2,1.1C104.2,243.3,104.1,243.8,104,244.2z M118,240.1c-0.2-0.3-0.5-0.5-0.9-0.6c-0.4-0.1-0.8-0.2-1.2-0.2
				c-0.2,0-0.5,0-0.7,0.1c-0.2,0-0.4,0.1-0.6,0.2c-0.2,0.1-0.3,0.2-0.5,0.3c-0.1,0.1-0.3,0.2-0.4,0.3c-0.1,0.1-0.2,0.3-0.3,0.4
				c-0.1-0.2-0.2-0.4-0.3-0.5c-0.1-0.1-0.2-0.2-0.3-0.3c-0.1-0.1-0.3-0.2-0.4-0.3c-0.2-0.1-0.3-0.1-0.5-0.2c-0.2,0-0.4-0.1-0.6-0.1
				c-0.3,0-0.6,0-0.8,0.1c-0.3,0.1-0.5,0.2-0.7,0.3c-0.2,0.1-0.4,0.2-0.5,0.4c-0.1,0.1-0.3,0.3-0.4,0.5l0.1-1.2c-0.3,0-1.5,0-1.9,0
				c0,0.8-0.3,6.5-0.3,7.3c0.4,0,1.6,0,2,0c0-0.6,0-1.5,0.1-2.5c0.1-1.1,0.1-1.8,0.3-2.1c0.1-0.4,0.3-0.7,0.6-0.9
				c0.3-0.2,0.5-0.3,0.9-0.3c0.2,0,0.3,0,0.5,0.1c0.1,0.1,0.3,0.2,0.4,0.3c0.1,0.1,0.2,0.3,0.2,0.4c0,0.1,0,0.3,0,0.5
				c0,0.4,0,1.2-0.1,2.3c-0.1,1.1-0.1,1.9-0.1,2.3c0.4,0,1.7,0,2,0l0-2c0-0.7,0.1-1.3,0.1-1.7c0-0.4,0.1-0.8,0.2-1
				c0.1-0.2,0.2-0.5,0.3-0.6c0.2-0.2,0.3-0.3,0.5-0.4c0.2-0.1,0.4-0.1,0.6-0.1c0.2,0,0.4,0,0.6,0.1c0.2,0.1,0.3,0.2,0.4,0.4
				c0.1,0.2,0.2,0.4,0.2,0.8c0,0.3,0,0.6,0,1.1l-0.1,1.6c0,0.7-0.1,1.3-0.1,1.9c0.4,0,1.7,0,2,0c0-0.5,0-1.3,0.1-2.3
				c0-1,0.1-1.7,0.1-2.2c0-0.4,0-0.8,0-1C118.3,240.7,118.2,240.4,118,240.1z"/>
		</g>
	</g>
	<g id="形状_2_copy_3_副本_5_13_">
		<g>
			<path style="fill-rule:evenodd;clip-rule:evenodd;fill:#FF6600;" d="M38.5,216.5c3,0,6.1,0,9.1,0c0,4.5,0,9.2,0,13.5
				c0,0.3-0.3,0.7-0.7,0.7c-0.5,0-0.7,0-1.3,0v2.2c0.7,0,1.3,0,2,0c1.8,0,2.9-0.9,2.9-2.3c0-3.5,0-10.4,0-14h1.1v-2.1H38.5V216.5z
				 M85.1,226.2c-0.8,0-2.1,0.8-2.1,2.1c2.6,0,6.9-0.1,9.7-0.1c0,0.5,0,1.1,0,1.8c1,0,0.6,0,1.6,0c0.6,0,1.3-0.5,1.3-1.4
				c0-2.3,0-4.1,0-6.5c-0.4,0-0.9,0-1.3,0c0-1.8,0-5.4,0-6.7c0-0.5-0.5-1.1-1.2-1.1h-9.6v2.1h7.4c0,1.9,0,3.8,0,5.7
				c-1.8,0-2,0-3.5,0c-0.2,0-0.4-0.2-0.4-0.4c0-1,0-2.5,0-3.8c0-0.3-0.3-0.6-0.8-0.6H84v5.1c0,1,0.9,1.8,1.8,1.8c0,0,3.7,0,6.9,0
				v1.9H85.1z M46.2,226.9c0-2.4,0-5.8,0-9.1h-7.6v11.6c2.2,0,5,0,5,0C45.6,229.3,46.2,228.3,46.2,226.9z M43,227.2
				c-0.5,0-1.1,0-1.9,0V220c0.8,0,1.8,0,2.6,0c0,2.2,0,4.6,0,6.5C43.7,226.9,43.4,227.2,43,227.2z M30,214.9c0,4.2,0,9.6,0,17.9h2.8
				c0-5.2,0-10.9,0-16.3c0.7,0,1.4,0,2.1,0c0,3.1,0,5.9,0,8.9c0,1.2-1.1,1.6-1.1,1.6v2.3c2,0,3.7-2,3.7-3.9c0-3.4,0-7.7,0-11
				c-2.5,0-4.5,0-7,0C29.9,214.4,30,214.9,30,214.9z M117.5,222.2c0-1.8,0-5.4,0-6.7c0-0.5-0.5-1.1-1.2-1.1h-9.6v2.1
				c2.4,0,4.9,0,7.4,0v5.7c-1.8,0-2,0-3.5,0c-0.2,0-0.4-0.2-0.4-0.4c0-1,0-2.5,0-3.8c0-0.3-0.3-0.6-0.8-0.6c-0.6,0-1.5,0-2.2,0v5.1
				c0,1,0.9,1.8,1.8,1.8c0,0,3.7,0,6.9,0v1.9h-7.5c-0.8,0-2.2,0.7-2.2,2.1c2.6,0,6.8,0,9.7,0v2c0,0.3-0.3,0.5-0.6,0.5h-1.1
				c0,1,0,1.5,0,2.1h1.7c0.5,0,0.4,0,0.9,0c1.4,0,2-1,2-1.8c0-2.6,0-6.1,0-8.8C118.3,222.2,117.8,222.2,117.5,222.2z M103.9,229.3
				c1-1.1,1.6-2.4,1.7-5c0-2.8,0-5.4,0-8.1c0-0.2-0.3-0.5-0.6-0.5c-1.1,0-2.4,0-3.6,0v-1.3h-2.8c0,0.4,0,0.8,0,1.3
				c-0.3,0-0.7,0-0.9,0v2.1h0.9v6.6c0,2.5,0.8,3.8,1.9,5c-1.2,0.8-2.5,1.4-4.2,1.4c-0.2,0-0.5,0-0.7,0c-2.6,0-5.8,0-8.6,0
				c-2.6,0-5.2-0.5-6.1-1.6c0.9-1.2,1.4-2.2,1.7-4.8c0-2.5,0-4.7,0-8c0-0.4-0.4-0.7-0.7-0.7c-1.1,0-2.2,0-3.6,0v-1.3
				c-1.2,0-1.6,0-2.7,0v1.3c-0.3,0-0.5,0-0.9,0v2.1c0.4,0,0.6,0,0.9,0c0,2.2,0,4.6,0,6.6c0.2,2.5,1,3.4,2,4.9
				c-1.4,1-3.2,1.4-5.2,1.5c-2.4,0-4.6,0-7.6,0c0-0.5,0-1.3,0-1.6h7.6v-2.2h-7.6c0-0.5,0-1.1,0-1.6c2.2,0,5.1,0,5.7,0
				c0,0,1.9,0,1.9-2c0-2.1,0-6,0-8.8c-6,0-12.1,0-18.1,0c-0.3,0-0.6,0.3-0.6,0.5c0,0.4,0,7.2,0,10.3c2.5,0,5.1,0,7.6,0v1.6h-7.6
				c0,0.7,0,1.5,0,2.2h7.6c0,0.5,0,1.1,0,1.6h-8.9c0,0.6,0,1.4,0,2.1c6.7,0,14.9,0,21.4,0c1.7,0,3.9-0.9,5.5-1.8
				c2,1.5,4.1,1.8,7.7,1.8c1.1,0,2.3,0,3.6,0c1.9,0,3.5,0,5,0c3,0,4.9-0.6,6.8-1.7c1.7,1,3.3,1.7,6,1.7v0h4v-2.1h-4
				C106.5,230.6,105.1,230.3,103.9,229.3z M61.2,223.2h-4.7v-2.2h4.7V223.2z M61.2,218.7h-4.7v-2.2c1.6,0,3.1,0,4.7,0V218.7z
				 M64.7,216.5h4.7v2.2h-4.7V216.5z M64.7,220.9c1.6,0,3.1,0,4.7,0c0,0.9,0,1.6,0,2.2h-4.7C64.7,222.6,64.7,221.6,64.7,220.9z
				 M79.8,224.3c-0.1,1.5-0.3,1.8-0.7,2.8c-0.4-0.9-0.8-1.3-0.9-2.8c0-1.9,0-4.6,0-6.6h1.6V224.3z M103,224.3
				c-0.1,1.4-0.4,2-0.7,2.8c-0.4-0.7-0.8-1.5-0.8-2.8c0-2,0-4.5,0-6.6h1.6C103,219.9,103,222.3,103,224.3z"/>
		</g>
	</g>
</g>
<g>
	<path style="fill:#FFFFFF;" d="M585,223.6h-2.9l4.4-8.5h3.2l4.2,8.5h-3.2l-0.6-1.5h-4.4L585,223.6z M589.3,220.2l-1.4-3.1l-1.4,3.1
		H589.3z"/>
	<path style="fill:#FFFFFF;" d="M594.3,223.6V215h2.7v8.5H594.3z"/>
	<path style="fill:#FFFFFF;" d="M598.7,216.8v-1.7h2.7v1.7H598.7z M598.7,223.6v-5.9h2.7v5.9H598.7z"/>
	<path style="fill:#FFFFFF;" d="M603,215h2.7v3.4c0.3-0.3,0.7-0.6,1.1-0.8c0.4-0.2,0.8-0.3,1.3-0.3c0.9,0,1.7,0.3,2.2,0.9
		c0.6,0.6,0.8,1.4,0.8,2.4c0,0.9-0.3,1.6-0.8,2.2c-0.6,0.5-1.3,0.8-2.2,0.8c-0.5,0-1-0.1-1.4-0.3c-0.4-0.2-0.8-0.5-1.1-0.8
		c0,0.2,0,0.4,0,0.5c0,0.2,0,0.3-0.1,0.4h-2.7c0-0.1,0.1-0.3,0.1-0.4c0-0.2,0-0.4,0-0.6V215z M608.4,220.6c0-0.5-0.1-0.9-0.4-1.2
		c-0.2-0.3-0.6-0.5-1-0.5c-0.5,0-0.8,0.1-1,0.4c-0.2,0.3-0.4,0.7-0.4,1.3c0,0.5,0.1,0.9,0.4,1.2c0.2,0.3,0.6,0.4,1,0.4
		c0.4,0,0.8-0.1,1-0.4C608.3,221.5,608.4,221.1,608.4,220.6z"/>
	<path style="fill:#FFFFFF;" d="M617.3,222.7c-0.3,0.3-0.6,0.6-1,0.8c-0.4,0.2-0.9,0.2-1.5,0.2c-0.8,0-1.5-0.1-1.9-0.4
		c-0.5-0.3-0.7-0.7-0.7-1.3c0-0.7,0.4-1.3,1.2-1.6c0.8-0.3,2.1-0.5,3.9-0.5c0,0,0,0,0-0.1c0,0,0-0.1,0-0.1c0-0.3-0.1-0.5-0.3-0.7
		c-0.2-0.1-0.5-0.2-0.8-0.2c-0.3,0-0.6,0.1-0.8,0.2c-0.2,0.1-0.3,0.3-0.3,0.5h-2.5c0-0.7,0.3-1.1,0.9-1.5c0.6-0.3,1.5-0.5,2.8-0.5
		c1.2,0,2.1,0.2,2.7,0.6c0.6,0.4,0.9,0.9,0.9,1.7v3c0,0.2,0,0.3,0,0.5c0,0.1,0,0.2,0.1,0.3h-2.5c-0.1-0.1-0.1-0.3-0.1-0.4
		C617.3,223,617.3,222.8,617.3,222.7z M617.2,221c-0.9,0-1.5,0.1-1.8,0.2c-0.3,0.1-0.5,0.3-0.5,0.6c0,0.2,0.1,0.3,0.2,0.5
		c0.2,0.1,0.4,0.2,0.7,0.2c0.5,0,0.8-0.1,1-0.3C617.1,221.8,617.2,221.5,617.2,221L617.2,221z"/>
	<path style="fill:#FFFFFF;" d="M621.4,215h2.7v3.4c0.3-0.3,0.7-0.6,1.1-0.8c0.4-0.2,0.8-0.3,1.3-0.3c0.9,0,1.7,0.3,2.2,0.9
		c0.6,0.6,0.8,1.4,0.8,2.4c0,0.9-0.3,1.6-0.8,2.2c-0.6,0.5-1.3,0.8-2.2,0.8c-0.5,0-1-0.1-1.4-0.3c-0.4-0.2-0.8-0.5-1.1-0.8
		c0,0.2,0,0.4,0,0.5c0,0.2,0,0.3-0.1,0.4h-2.7c0-0.1,0.1-0.3,0.1-0.4c0-0.2,0-0.4,0-0.6V215z M626.8,220.6c0-0.5-0.1-0.9-0.4-1.2
		c-0.2-0.3-0.6-0.5-1-0.5c-0.5,0-0.8,0.1-1,0.4c-0.2,0.3-0.4,0.7-0.4,1.3c0,0.5,0.1,0.9,0.4,1.2c0.2,0.3,0.6,0.4,1,0.4
		c0.4,0,0.8-0.1,1-0.4C626.7,221.5,626.8,221.1,626.8,220.6z"/>
	<path style="fill:#FFFFFF;" d="M635.7,222.7c-0.3,0.3-0.6,0.6-1,0.8c-0.4,0.2-0.9,0.2-1.5,0.2c-0.8,0-1.5-0.1-1.9-0.4
		c-0.5-0.3-0.7-0.7-0.7-1.3c0-0.7,0.4-1.3,1.2-1.6c0.8-0.3,2.1-0.5,3.9-0.5c0,0,0,0,0-0.1c0,0,0-0.1,0-0.1c0-0.3-0.1-0.5-0.3-0.7
		c-0.2-0.1-0.5-0.2-0.8-0.2c-0.3,0-0.6,0.1-0.8,0.2c-0.2,0.1-0.3,0.3-0.3,0.5h-2.5c0-0.7,0.3-1.1,0.9-1.5c0.6-0.3,1.5-0.5,2.8-0.5
		c1.2,0,2.1,0.2,2.7,0.6c0.6,0.4,0.9,0.9,0.9,1.7v3c0,0.2,0,0.3,0,0.5c0,0.1,0,0.2,0.1,0.3h-2.5c-0.1-0.1-0.1-0.3-0.1-0.4
		C635.7,223,635.7,222.8,635.7,222.7z M635.6,221c-0.9,0-1.5,0.1-1.8,0.2c-0.3,0.1-0.5,0.3-0.5,0.6c0,0.2,0.1,0.3,0.2,0.5
		c0.2,0.1,0.4,0.2,0.7,0.2c0.5,0,0.8-0.1,1-0.3C635.5,221.8,635.6,221.5,635.6,221L635.6,221z"/>
	<path style="fill:#FFFFFF;" d="M646.7,220.2v-1h3.6v3.1c-0.6,0.4-1.1,0.8-1.7,1c-0.6,0.2-1.2,0.3-1.8,0.3c-0.8,0-1.6-0.2-2.3-0.5
		c-0.7-0.4-1.2-0.9-1.5-1.5c-0.3-0.7-0.5-1.4-0.5-2.3c0-0.8,0.2-1.6,0.5-2.3c0.3-0.7,0.8-1.2,1.5-1.6c0.6-0.3,1.4-0.5,2.2-0.5
		c0.6,0,1.2,0.1,1.7,0.3c0.5,0.2,0.9,0.5,1.2,0.8c0.3,0.4,0.5,0.8,0.6,1.4l-1,0.3c-0.1-0.4-0.3-0.8-0.5-1c-0.2-0.2-0.5-0.4-0.8-0.6
		c-0.3-0.1-0.7-0.2-1.2-0.2c-0.5,0-1,0.1-1.3,0.2c-0.4,0.2-0.7,0.4-0.9,0.6c-0.2,0.3-0.4,0.5-0.5,0.8c-0.2,0.5-0.3,1.1-0.3,1.7
		c0,0.8,0.1,1.4,0.4,1.9c0.3,0.5,0.6,0.9,1.1,1.1c0.5,0.2,1,0.4,1.6,0.4c0.5,0,1-0.1,1.4-0.3c0.5-0.2,0.8-0.4,1-0.6v-1.6H646.7z"/>
	<path style="fill:#FFFFFF;" d="M651.8,223.6v-6.1h0.9v0.9c0.2-0.4,0.5-0.7,0.7-0.9c0.2-0.1,0.4-0.2,0.7-0.2c0.4,0,0.7,0.1,1.1,0.3
		l-0.4,1c-0.3-0.1-0.5-0.2-0.8-0.2c-0.2,0-0.4,0.1-0.6,0.2c-0.2,0.1-0.3,0.3-0.4,0.6c-0.1,0.4-0.2,0.8-0.2,1.2v3.2H651.8z"/>
	<path style="fill:#FFFFFF;" d="M655.6,220.5c0-1.1,0.3-2,0.9-2.5c0.5-0.5,1.2-0.7,1.9-0.7c0.8,0,1.5,0.3,2.1,0.8
		c0.5,0.6,0.8,1.3,0.8,2.3c0,0.8-0.1,1.4-0.4,1.9c-0.2,0.5-0.6,0.8-1,1.1c-0.5,0.2-0.9,0.4-1.5,0.4c-0.9,0-1.6-0.3-2.1-0.8
		C655.8,222.3,655.6,221.5,655.6,220.5z M656.6,220.5c0,0.8,0.2,1.4,0.5,1.8c0.3,0.4,0.8,0.6,1.3,0.6c0.5,0,0.9-0.2,1.3-0.6
		c0.3-0.4,0.5-1,0.5-1.8c0-0.8-0.2-1.3-0.5-1.7c-0.3-0.4-0.8-0.6-1.3-0.6c-0.5,0-0.9,0.2-1.3,0.6
		C656.8,219.1,656.6,219.7,656.6,220.5z"/>
	<path style="fill:#FFFFFF;" d="M666.7,223.6v-0.9c-0.5,0.7-1.1,1-1.9,1c-0.4,0-0.7-0.1-1-0.2c-0.3-0.1-0.5-0.3-0.7-0.5
		c-0.2-0.2-0.3-0.5-0.3-0.8c0-0.2-0.1-0.5-0.1-1v-3.8h1v3.4c0,0.5,0,0.9,0.1,1.1c0.1,0.3,0.2,0.5,0.4,0.6c0.2,0.2,0.5,0.2,0.8,0.2
		c0.3,0,0.6-0.1,0.9-0.2c0.3-0.2,0.5-0.4,0.6-0.7c0.1-0.3,0.2-0.7,0.2-1.2v-3.3h1v6.1H666.7z"/>
	<path style="fill:#FFFFFF;" d="M669.4,225.9v-8.5h0.9v0.8c0.2-0.3,0.5-0.5,0.8-0.7c0.3-0.2,0.6-0.2,1-0.2c0.5,0,1,0.1,1.4,0.4
		c0.4,0.3,0.7,0.6,0.9,1.1c0.2,0.5,0.3,1,0.3,1.6c0,0.6-0.1,1.2-0.3,1.7c-0.2,0.5-0.6,0.9-1,1.2c-0.4,0.3-0.9,0.4-1.3,0.4
		c-0.3,0-0.7-0.1-0.9-0.2c-0.3-0.1-0.5-0.3-0.7-0.5v3H669.4z M670.4,220.5c0,0.8,0.2,1.4,0.5,1.7c0.3,0.4,0.7,0.6,1.2,0.6
		c0.5,0,0.9-0.2,1.2-0.6c0.3-0.4,0.5-1,0.5-1.8c0-0.8-0.2-1.4-0.5-1.8c-0.3-0.4-0.7-0.6-1.1-0.6c-0.4,0-0.8,0.2-1.2,0.6
		C670.5,219.1,670.4,219.7,670.4,220.5z"/>
</g>
<path style="fill-rule:evenodd;clip-rule:evenodd;fill:#FFFFFF;" d="M555.1,231.1c-0.2,0-0.4-0.2-0.6-0.3c-1.6-1.6,0.5-3.4,2.8-4.4
	v-3c0.6,0.4,0.9,0.4,0.9,0.4l1.8-1.8l-0.6-1.6c5.3-1.8,7.5-2.5,11.8-3.3l-0.8-0.7l1.3-0.7c2.9,1,5.7,1.2,5.2,3.7
	c0.1-1.7-1.9-2.3-5.1-3.2l-0.6,0.4l1.2,1c-5.2,0.9-8.4,1.9-12.2,3.2l0.5,1.4l-1.9,1.9c0.3,0.1,3.6,1.2,7.1-1.2c0,0,0.1-0.1,0.1-0.1
	c-0.1-0.2-0.3-0.4-0.6-0.6c1,0.1,1.7,1,1.6,1.9h-0.5c0-0.3,0-0.6-0.1-0.8c-2.7,2-5.8,2.2-8.4,1.3v2.3c-1.3,0.5-3.6,1.9-3.6,3.2
	C554.5,230.7,554.8,231,555.1,231.1z"/>
<path style="fill-rule:evenodd;clip-rule:evenodd;fill:#FFFFFF;" d="M566,230.6c-2.9,1.5-5.6,2.6-9.9,2.8c-5.5-0.1-6.4-3.8-3.8-7.6
	c2.5-3.9,6.4-7.4,12.6-9.5c1.8-0.6,4.5-1.4,7-1.4c3.7,0,7.3,1.1,7,4.6c-0.1,2.7-4,6.5-6.1,9.3c-0.9,1.2-1,2,0.5,1.9
	c5.5-0.4,10.4-2.2,15-4.2c-3.1,2.1-19.2,10.1-19.2,4.6c0-0.7,0.3-1.4,0.9-2.2c0.5-0.8,1.2-1.6,1.9-2.4c1.1-1.2,3.8-4.2,4.7-6
	c1.5-3.4-1.9-3.6-4.9-4.6l-1.3,0.7l0.8,0.7c-4.3,0.7-6.5,1.4-11.8,3.3l0.6,1.6l-1.8,1.8c-0.1-0.1-0.3-0.1-0.9-0.4v3
	c-2.4,1-4.4,2.9-2.8,4.4c0.2,0.1,0.4,0.3,0.6,0.3l0,0C558,232.8,566,230.6,566,230.6z"/>
<g>
	<path style="fill:#FFFFFF;" d="M583,231.9h0.4c0.1,0,0.1,0,0.2,0c0,0,0.1,0,0.1-0.1c0,0,0-0.1,0-0.1c0-0.1,0-0.1-0.1-0.2
		c0,0-0.1-0.1-0.2-0.1H583V231.9z M582.8,232.7v-1.3h0.6c0.1,0,0.2,0,0.3,0c0.1,0,0.1,0.1,0.1,0.1c0,0.1,0.1,0.1,0.1,0.2
		c0,0.1,0,0.2-0.1,0.2c-0.1,0.1-0.2,0.1-0.3,0.1c0,0,0.1,0,0.1,0.1c0,0,0.1,0.1,0.1,0.2l0.2,0.4h-0.2l-0.2-0.3
		c-0.1-0.1-0.1-0.1-0.1-0.2c0,0-0.1-0.1-0.1-0.1c0,0-0.1,0-0.1,0c0,0-0.1,0-0.1,0H583v0.6H582.8"/>
	<path style="fill-rule:evenodd;clip-rule:evenodd;fill:#FFFFFF;" d="M583.3,233.3c0.7,0,1.3-0.6,1.3-1.3c0-0.7-0.6-1.3-1.3-1.3
		c-0.7,0-1.3,0.6-1.3,1.3C582,232.8,582.6,233.3,583.3,233.3z M582.2,232.1c0-0.6,0.5-1.1,1.1-1.1c0.6,0,1.1,0.5,1.1,1.1
		c0,0.6-0.5,1.1-1.1,1.1C582.7,233.1,582.2,232.6,582.2,232.1"/>
</g>
<g>
	<g>
		<path style="fill-rule:evenodd;clip-rule:evenodd;fill:#FFFFFF;" d="M594.3,226.4v7.2c0.5,0,1.1-0.5,1.1-1v-0.4h0.6
			c0.4,0,0.9-0.6,0.9-0.9c0-0.7,0-0.9,0-1.6c0-0.3-0.3-0.5-0.5-0.6c0.2-0.1,0.5-0.4,0.5-0.7c0-0.9,0-1.2,0-2.1H594.3z M595.8,228.8
			c0,0.1-0.1,0.3-0.2,0.4c0,0-0.1,0.1-0.1,0.1c0,0,0,0,0,0h0.3v2.1h-0.4c0-1.4,0-2.7,0-4.1h0.4V228.8z M599.8,231.1v-3.2h-2.5v4.4
			h1.3c0.2,0,0.4-0.1,0.6-0.2c0.1-0.1,0.2-0.2,0.3-0.3C599.7,231.6,599.8,231.3,599.8,231.1z M598.8,231.4h-0.5v-2.7h0.5V231.4z
			 M597,226.4v0.9h3.1v5.4v1c0.3,0,1.1-0.3,1.1-1v-5.3c0.2,0,0.4-0.6,0.4-0.9H597z"/>
		<path style="fill-rule:evenodd;clip-rule:evenodd;fill:#FFFFFF;" d="M606.3,232.8v-0.7h2.1c0.3,0,0.6-0.5,0.8-0.8h-2.9v-0.6h1.6
			c0.5,0,1.2-0.6,1.2-1v-3.4h-6.9v4.3h2.8v0.6h-2.8v0.8h2.8v0.7h-2.9v0.8h6.5c0.3,0,0.5-0.5,0.7-0.8H606.3z M606.3,229h0.6
			c0.1,0,0.2,0,0.2-0.1c0.1-0.1,0.6-0.7,0.7-0.7h-1.4v-0.9h1.6v2.7h-1.6V229z M605,229.9h-1.5V229h1.5V229.9z M605,228.2h-1.5v-0.9
			h0.8h0.8V228.2z"/>
		<path style="fill-rule:evenodd;clip-rule:evenodd;fill:#FFFFFF;" d="M611.4,232.7v-2h4.4c0.4,0,1.1-0.7,1.1-1v-3.3h-6.8v6.2
			c0,0.5,0.3,1,0.9,1c0.4,0,4.8,0,5.2,0c0.4,0,0.9-0.6,0.9-0.9H611.4z M615.6,229.7h-1.5v-2.4h1.5V229.7z M611.4,227.3h1.5v2.4h-1.5
			V227.3z"/>
		<path style="fill-rule:evenodd;clip-rule:evenodd;fill:#FFFFFF;" d="M619.3,232.7v-2h4.4c0.4,0,1.1-0.7,1.1-1v-3.3H618v6.2
			c0,0.5,0.3,1,0.9,1c0.4,0,4.8,0,5.2,0c0.4,0,0.9-0.6,0.9-0.9H619.3z M623.5,229.7h-1.5v-2.4h1.5V229.7z M619.3,227.3h1.5v2.4h-1.5
			V227.3z"/>
	</g>
	<g>
		<path style="fill:#FFFFFF;" d="M629.5,231.2V231h0.5v0.2h3.1c0,0-0.1,0.4-0.8,0.4c-0.7,0-2.3,0-2.3,0s0,0.8,0,1.1
			c0,0.8-0.5,1-0.5,1v-2h-3.7v-0.4H629.5z"/>
		<path style="fill:#FFFFFF;" d="M627.3,232.3h0.6c0,0-0.6,0.7-0.7,0.9c-0.2,0.2-0.4,0.5-0.7,0.5c-0.2,0-0.2,0-0.2,0L627.3,232.3z"
			/>
		<path style="fill:#FFFFFF;" d="M632,232.3h-0.6c0,0,0.6,0.7,0.7,0.9c0.2,0.2,0.4,0.5,0.7,0.5c0.2,0,0.2,0,0.2,0L632,232.3z"/>
		<g>
			<path style="fill:#FFFFFF;" d="M632.4,227.1c0.7,0,0.8-0.4,0.8-0.4h-3.1l0.2-0.3h-0.5l-0.3,0.3h-2.1l0.3-0.3h-0.5l-1.3,1.7h0.6
				v2.3c0,0,0.1,0,0.1,0c0.8,0,0.9-0.1,0.9-0.1s4.3,0,4.9,0c0.7,0,0.7-0.4,0.7-0.4H630v-0.7c0,0,1.7,0,2.4,0c0.6,0,0.8-0.4,0.8-0.4
				H630v-0.7c0,0,1.7,0,2.4,0c0.6,0,0.8-0.4,0.8-0.4H630v-0.6C630,227.1,631.9,227.1,632.4,227.1z M629.5,230h-2.6v-0.7h2.6V230z
				 M629.5,228.9h-2.6v-0.6h2.6V228.9z M629.5,227.8h-2.6l0-0.2l0.1-0.2l0.2-0.2h2.3V227.8z"/>
		</g>
	</g>
	<path style="fill:#FFFFFF;" d="M634.6,226.4v7.3h6.1c0.5,0,0.6-0.4,0.6-0.9v-6.4H634.6z M640.8,232.8c0,0.3-0.1,0.5-0.4,0.5H635
		v-6.4h5.8V232.8z"/>
	<path style="fill:#FFFFFF;" d="M637.4,229.5l-1.5,2.8c0,0,0.5,0.1,0.8-0.4l1.3-2.4L637.4,229.5z"/>
	<path style="fill:#FFFFFF;" d="M639.3,231.7c0,0.2-0.1,0.2-0.2,0.2h-0.5v0.4h0.7c0.4,0,0.5-0.1,0.5-0.6c0,0,0-2.7,0-2.7
		c0.5,0,0.5-0.4,0.5-0.4l-0.5,0v-0.9h-0.5v0.9h-3.5v0.5h3.5V231.7z"/>
</g>
<g>
	<defs>
		<rect id="SVGID_7_" x="523.9" y="258" width="276.8" height="334"/>
	</defs>
	<clipPath id="SVGID_8_">
		<use xlink:href="#SVGID_7_"  style="overflow:visible;"/>
	</clipPath>
	<g style="clip-path:url(#SVGID_8_);">
		<path style="fill-rule:evenodd;clip-rule:evenodd;fill:#FFFFFF;" d="M631.9,642.3c0.1-7.6-6.1-11.4-11.4-14.8
			c-5.3-3.3-31.9-15-31.9-40.8c0-13.2,3.6-31.1,20.8-56.5c12.5-18.5,21.3-34.5,27.7-47.9c-17.1,7.3-33,16.8-41.6,22.7
			c-10.9,7.5-14.3,13-17.8,16.1c-4.8,4.3-11.8,8.4-13.9,6.7c-4.6-3.6,5.1-5.8,4.7-8.7c-0.8-5.4-18.2,6.8-20.8,2.5
			c-2.8-4.7,4.9-7,4.9-7s-2.8,0-3.7-0.7c-0.8-0.7-1.3-2.3-0.5-3.2c1.8-1.9,7.2-2,12.5-3.3c4-1,10.2-3,11.9-3.9
			c10.5-3.1,22.9-14.9,45.5-35.2c13.5-13.3,27.1-20.8,32.4-23.4c0.7-2.8,1.1-5.1,1.4-6.9c-1.9-1.8-3.8-3.9-6.2-6
			c-9.1-8.1-13.5-15-13.4-15.2c-10.8-16.4-6.5-42.9-4.6-49.1c1.4-4.4,2.7-10.2,4.3-15.8c-8.4-3-51.8-21.3-41.3-82.9
			c1.1-5.4,8.9-0.5,8.9-0.5s14.9,8.2,30.6,28.1c-1.7-10.2,0.1-18,0.1-18c0.6-1,1.4-0.8,2.1-0.5c25,11.7,32.9,33.6,35.3,44.8
			c0.1,0,0.1,0,0.2,0h0c3.3-13.4,12.6-33.9,35.5-45c1-0.5,2.1-0.7,2.5,0.9c0,0,1.6,7.4,0.1,17.3c15.6-19.5,30.1-27.5,30.1-27.5
			s7.9-5,8.9,0.5c10.6,61.7-32.8,80-41.2,83c1.5,5.6,2.7,11.4,4.1,15.8c2,6.2,6.3,32.7-4.6,49.1c0.1,0.1-3.7,5.8-12.4,14.4
			c-2.2,2.2-4.2,4.3-6.2,6.1c0.3,1.9,0.8,4.6,1.6,7.9c4.5,2.2,19,9.7,33.4,23.9c22.5,20.3,35,32.1,45.4,35.2
			c1.7,0.9,7.8,2.9,11.9,3.9c5.3,1.3,10.8,1.4,12.5,3.3c0.9,1,0.4,2.6-0.5,3.2c-0.8,0.7-3.7,0.7-3.7,0.7s7.7,2.3,4.9,7
			c-2.5,4.3-20-7.9-20.8-2.5c-0.4,2.9,9.3,5.1,4.7,8.7c-2.1,1.6-9-2.4-13.9-6.7c-3.5-3.1-6.9-8.6-17.8-16.1c-8.7-6-25-15.7-42.4-23
			c6.3,13.3,15.1,29.1,27.4,47.3c17.2,25.4,20.8,43.3,20.8,56.5c0,25.8-26.6,37.4-31.9,40.8c-5.3,3.3-11.5,7.2-11.4,14.8
			c0.1,4-1.5,6.6,6.5,7.2c3.8,0.3,61.7-2.9,75.6,4.2c11.1,5.7,10.9,16.1,6.8,17.9c-7.4,3.2-33.3,3-49,1.9
			c-14.6-0.9-48.6-5.2-54.4-6.8c-12.2-3.4-5.3-10.9-4.1-16.4c1.2-5.6,1.8-11.2,1.5-17.3c-0.1-2-0.2-5.8-3.8-5.7
			c-3.9,1.2-7.5,1.8-10.9,2.2c0,0,0,0-0.1,0c-0.3,0-0.5,0.1-0.8,0.1c-0.2,0-0.4,0-0.6,0c-0.2,0-0.4,0-0.5,0c-0.3,0-0.5,0-0.8,0
			c-0.1,0-0.3,0-0.4,0c-0.3,0-0.5,0-0.8,0c-0.1,0-0.3,0-0.4,0c-0.2,0-0.4,0-0.6,0c-0.2,0-0.4,0-0.6,0c-0.1,0-0.3,0-0.4,0
			c-0.3,0-0.5,0-0.8,0c-0.1,0-0.3,0-0.4,0c-0.3,0-0.5,0-0.8,0c-0.2,0-0.4,0-0.5,0c-0.2,0-0.4,0-0.6,0c-0.3,0-0.5,0-0.8-0.1
			c0,0,0,0-0.1,0c-3.4-0.3-7-1-10.9-2.2c-3.6-0.2-3.7,3.6-3.8,5.7c-0.3,6.1,0.3,11.7,1.5,17.3c1.2,5.5,8.1,13-4.1,16.4
			c-5.8,1.6-36.8,6-51.4,6.7c-14,0.6-38.4,2.2-50.1-2c-4.2-1.5-6.1-12.1,4.9-17.7c13.9-7.1,71.5-3.5,75.3-3.6
			C633.2,649.9,631.9,646.3,631.9,642.3z"/>
	</g>
</g>
<g>
	<defs>
		<rect id="SVGID_9_" x="72.5" y="-18" width="169" height="200.2"/>
	</defs>
	<clipPath id="SVGID_10_">
		<use xlink:href="#SVGID_9_"  style="overflow:visible;"/>
	</clipPath>
	<path style="clip-path:url(#SVGID_10_);fill:none;stroke:#999999;" d="M214.2,164.6c0,90-27.4,163-61.2,163s-61.2-73-61.2-163
		c0-90,27.4-163,61.2-163C185,1.6,214.2,74.6,214.2,164.6z"/>
</g>
<g>
	<defs>
		<rect id="SVGID_11_" x="579.4" y="-18" width="169" height="200"/>
	</defs>
	<clipPath id="SVGID_12_">
		<use xlink:href="#SVGID_11_"  style="overflow:visible;"/>
	</clipPath>
	<path style="clip-path:url(#SVGID_12_);fill:none;stroke:#999999;" d="M721.1,164.4c0,90-27.4,163-61.2,163
		c-33.8,0-61.2-73-61.2-163c0-90,27.4-163,61.2-163C691.9,1.3,721.1,74.3,721.1,164.4z"/>
</g>
<g>
	<defs>
		<rect id="SVGID_13_" x="1.6" y="201.6" width="301.7" height="389.5"/>
	</defs>
	<clipPath id="SVGID_14_">
		<use xlink:href="#SVGID_13_"  style="overflow:visible;"/>
	</clipPath>
	<g style="clip-path:url(#SVGID_14_);">
		<g>
			<g id="形状_13_7_">
				<g>
					<path style="fill:#FF9B48;" d="M141.3,439.7c0,0-17.1,7.3-34,24.1c-22,19.9-34.2,31.4-44.4,34.4c-1.7,0.9-7.7,2.9-11.6,3.8
						c-5.2,1.3-10.5,1.3-12.3,3.3c-0.9,1-0.4,2.5,0.4,3.2c0.8,0.7,3.6,0.7,3.6,0.7s-7.5,2.2-4.8,6.9c2.5,4.2,19.5-7.8,20.3-2.5
						c0.4,2.8-9.1,5-4.6,8.5c2,1.6,8.8-2.4,13.6-6.6c3.5-3.1,6.7-8.4,17.4-15.8c8.6-6,24.8-15.6,42.1-22.8
						C165.5,460.8,141.3,439.7,141.3,439.7z"/>
				</g>
			</g>
			<g id="形状_14_7_">
				<g>
					<path style="fill:#CC7123;" d="M50.3,504.8c-0.8,0.8-2.9,2-3.9,2.7c-2.1,1.3-4,1.7-4,1.7s0.5,0.1,1.4-0.1
						c2.5-0.7,5.7-2.1,7.2-3.3C52.1,504.8,51.4,503.6,50.3,504.8z"/>
				</g>
			</g>
			<g id="形状_13_5_">
				<g>
					<path style="fill-rule:evenodd;clip-rule:evenodd;fill:#FF9B48;" d="M274,509.2c0,0,2.8,0,3.6-0.7c0.8-0.7,1.3-2.2,0.4-3.2
						c-1.7-1.9-7.1-2-12.3-3.3c-3.9-1-9.9-3-11.6-3.8c-10.3-3-22.4-14.6-44.4-34.4c-16.9-16.7-35.2-24.2-35.2-24.2
						s-23,21.3,15.5,37.4c17.2,7.2,33.4,16.8,42.1,22.8c10.7,7.4,13.9,12.7,17.4,15.8c4.7,4.2,11.6,8.2,13.6,6.6
						c4.5-3.5-5-5.7-4.6-8.5c0.7-5.3,17.8,6.7,20.3,2.5C281.6,511.4,274,509.2,274,509.2z"/>
				</g>
			</g>
			<g id="形状_14_5_">
				<g>
					<path style="fill-rule:evenodd;clip-rule:evenodd;fill:#CC7123;" d="M270.8,507.4c-1-0.6-3.1-1.9-3.9-2.7c-1.2-1.1-1.8,0-0.7,1
						c1.5,1.3,4.7,2.7,7.2,3.3c0.9,0.2,1.4,0.1,1.4,0.1S272.9,508.7,270.8,507.4z"/>
				</g>
			</g>
			
				<radialGradient id="SVGID_15_" cx="161.5048" cy="478.1656" r="79.6906" gradientTransform="matrix(1 0 0 0.9295 0 33.6896)" gradientUnits="userSpaceOnUse">
				<stop  offset="0" style="stop-color:#FFC07D"/>
				<stop  offset="0.5713" style="stop-color:#FEB162"/>
				<stop  offset="1" style="stop-color:#FEA852"/>
			</radialGradient>
			<path style="fill-rule:evenodd;clip-rule:evenodd;fill:url(#SVGID_15_);" d="M278.5,661.7c-11.5,4.1-35.3,2.6-49,2
				c-14.3-0.6-44.6-5-50.2-6.5c-12-3.3-5.2-10.7-4-16.1c1.2-5.5,1.8-11,1.5-17c-0.1-2-0.2-5.7-3.7-5.5c-3.8,1.1-7.4,1.8-10.7,2.1
				c0,0,0,0-0.1,0c-0.3,0-0.5,0.1-0.8,0.1c-0.2,0-0.4,0-0.6,0c-0.2,0-0.3,0-0.5,0c-0.3,0-0.5,0-0.8,0c-0.1,0-0.3,0-0.4,0
				c-0.3,0-0.5,0-0.8,0c-0.1,0-0.3,0-0.4,0c-0.2,0-0.4,0-0.6,0c-0.2,0-0.4,0-0.6,0c-0.1,0-0.3,0-0.4,0c-0.3,0-0.5,0-0.8,0
				c-0.1,0-0.3,0-0.4,0c-0.3,0-0.5,0-0.8,0c-0.2,0-0.3,0-0.5,0c-0.2,0-0.4,0-0.6,0c-0.3,0-0.5,0-0.8-0.1c0,0,0,0-0.1,0
				c-3.3-0.3-6.9-1-10.7-2.1c-3.5-0.2-3.6,3.6-3.7,5.5c-0.3,6,0.3,11.5,1.5,17c1.1,5.4,7.9,12.8-4,16.1c-5.6,1.6-38.9,5.7-53.1,6.6
				c-15.3,1-40.6,1.2-47.9-1.9c-4-1.7-4.2-12,6.6-17.5c13.6-7,70.1-3.9,73.8-4.1c7.9-0.6,6.3-3.1,6.4-7c0.1-7.4-6-11.2-11.1-14.4
				c-5.2-3.3-31.1-14.7-31.1-39.9c0-13,3.6-30.5,20.3-55.4c40.8-60.6,42.3-94.5,42.3-94.5l3.3-0.1c0.1-0.6,0.2-1,0.2-1l12.1,0.5
				l12.1-0.5c0,0,0.1,0.3,0.2,1l3.3,0.1c0,0,1.5,33.8,42.3,94.5c16.8,24.9,20.3,42.4,20.3,55.4c0,25.2-25.9,36.6-31.1,39.9
				c-5.2,3.3-11.3,7.1-11.1,14.4c0.1,4-1.2,7.5,6.6,7.7c3.7,0.1,60-3.5,73.6,3.5C284.5,649.9,282.6,660.3,278.5,661.7z"/>
			<path style="fill-rule:evenodd;clip-rule:evenodd;fill:#DD7528;" d="M49.3,648.8c-11.8,3.1-10.4,8.6-8.7,13
				c0.2,0.5,0.5,1.1,0.8,1.6c0.7,0.1,1.4,0.2,2.2,0.3c-4.1-9.4,1.8-12.4,7-14.2C52.9,648.7,50.9,648.4,49.3,648.8z"/>
			<path style="fill-rule:evenodd;clip-rule:evenodd;fill:#DD7528;" d="M63.7,648.3c-10.1,2.3-8.6,10.8-7,14.8
				c0.2,0.5,0.4,0.9,0.6,1.2c0.7,0,1.3,0,2,0c-2.9-8.7,0.8-12.4,3.8-14.4C64.6,648.9,67.3,647.5,63.7,648.3z"/>
			<path style="fill-rule:evenodd;clip-rule:evenodd;fill:#DD7528;" d="M272,663.3c0.1-0.4,0.3-0.8,0.4-1.2c1.3-4.3-0.1-11.9-8.4-14
				c-4.6-1.1-2.6,0.9-0.6,1.6c4.9,1.6,7.5,7.5,5.3,14.1C269.8,663.7,270.9,663.5,272,663.3z"/>
			<path style="fill-rule:evenodd;clip-rule:evenodd;fill:#DD7528;" d="M256.5,663.3c2.4-5.3,0.3-13.1-5.4-15.3
				c-2.3-0.6-0.1,1.4,1.5,3.1c2.2,2.3,3.3,7.8,1.4,12c-0.3,0.6-0.5,1-0.6,1.4c0.8,0,1.6,0,2.5,0C256,664.2,256.3,663.8,256.5,663.3z
				"/>
			<g id="形状_12_3_">
				<g>
					
						<linearGradient id="SVGID_16_" gradientUnits="userSpaceOnUse" x1="183.7099" y1="511.6831" x2="182.4707" y2="400.1577" gradientTransform="matrix(1 0 0 1 -25.8259 36.1658)">
						<stop  offset="0" style="stop-color:#FFC28A"/>
						<stop  offset="0.7938" style="stop-color:#FFCD9F"/>
						<stop  offset="1" style="stop-color:#FFD0A5"/>
					</linearGradient>
					<path style="fill-rule:evenodd;clip-rule:evenodd;fill:url(#SVGID_16_);" d="M176.7,474.6c-8.5-13.9-29.5-12.5-37.8,1
						c-10,16.3-22.1,60.6-13.5,85.8c7.1,20.8,56.5,22.2,64.1,2.2C199.8,537,185.7,489.3,176.7,474.6z"/>
				</g>
			</g>
			<path style="opacity:0.6;fill-rule:evenodd;clip-rule:evenodd;fill:#DD7528;" d="M99.7,539c0,0,22.9,5.7,59.7,5.7
				c34.7,0,41.1-2,59.3-6.2C219.3,539.1,162.8,637.3,99.7,539z"/>
			<g id="形状_11_拷贝_2_3_">
				<g>
					<path style="fill-rule:evenodd;clip-rule:evenodd;fill:#FFBF80;" d="M217.3,539.1c-0.5,0.3-1,0.5-1.5,0.7
						c-16.8,7.5-36.8,9.9-52.4,10.3c-15.4,0.1-38.2-1.3-57-8.7c-1.6-0.7-4-1.4-5.6-2.2c-4.3-2.1-5.2,3.3-5.1,6.4
						c0.2,13.5,3.2,56.1,41.8,70.5c1.6,1,6.3,3.4,15.9,3.9c3.1,0.5,6.7,0.4,10.2-0.1c0.4,0,0.8,0,1.1-0.1c5.8-0.6,11-2,15.7-4
						c0.3-0.1,0.5-0.2,0.5-0.2v0c29.4-13,37.6-50.5,40-68.7c0.2-1.4,0.3-2.6,0.4-3.7C222.1,538.5,218.8,538.3,217.3,539.1z"/>
				</g>
			</g>
			<path style="opacity:0.6;fill-rule:evenodd;clip-rule:evenodd;fill:#DD7528;" d="M173,429.1c-4.5,2.7-10.7,6.4-14.2,6.9
				c-5.2,0.8-11.1-0.1-17-6.8c0,0.5-0.2,2.8-1,6.8c1.7,5.4,5.3,11.2,13.1,12.1c9.1,1.1,16-6.3,20.1-12.7c-0.8-4.2-0.9-6.3-0.9-6.3
				L173,429.1z"/>
			<g id="形状_9_3_">
				<g>
					<path style="fill-rule:evenodd;clip-rule:evenodd;fill:#FFC07D;" d="M141.2,326.3c-19.4-42.7-49-59.1-49-59.1s-7.7-4.9-8.7,0.4
						c-11.4,66.8,41.6,81.7,41.6,81.7S160.6,369,141.2,326.3z"/>
				</g>
			</g>
			<g id="形状_10_3_">
				<g>
					<path style="fill-rule:evenodd;clip-rule:evenodd;fill:#FF9B48;" d="M135.2,336.2c-7.3-32.8-34.7-44.1-34.7-44.1
						s-5.7-4-5.8,1.6c2.3,42.1,37.4,48.8,37.4,48.8S136.8,343.8,135.2,336.2z"/>
				</g>
			</g>
			<g id="形状_9_拷贝_3_">
				<g>
					<path style="fill:#FFC07D;" d="M234.3,267.6c-1.1-5.3-8.7-0.4-8.7-0.4s-29.7,16.4-49.1,59.1c-19.4,42.6,16.1,23,16.1,23
						S245.7,334.4,234.3,267.6z"/>
				</g>
			</g>
			<g id="形状_10_拷贝_3_">
				<g>
					<path style="fill:#FF9B48;" d="M217.3,292c0,0-27.4,11.3-34.7,44.1c-1.6,7.6,3.1,6.3,3.1,6.3s35.1-6.7,37.4-48.8
						C223,288,217.3,292,217.3,292z"/>
				</g>
			</g>
			<g id="脸_7_">
				<g>
					
						<radialGradient id="SVGID_17_" cx="184.7829" cy="397.7057" r="51.4689" gradientTransform="matrix(0.9999 1.315258e-02 -9.151512e-03 0.6957 -22.1703 154.743)" gradientUnits="userSpaceOnUse">
						<stop  offset="0" style="stop-color:#FECD97"/>
						<stop  offset="1" style="stop-color:#FFC07A"/>
					</radialGradient>
					<path style="fill:url(#SVGID_17_);" d="M198.2,364.3c-1.9-6.1-3.7-14.9-6.3-22.2c-5.7-16.4-19-21.9-33.1-21.6
						c-14.2,0.2-27.7,6.3-33.1,21.7c-2.5,7.3-4.1,16.1-6,22.2c-1.9,6.1-6.1,32,4.5,48.1c-0.1,0.1,4.5,5.7,13,14.1
						c6.9,6.9,10.9,12.6,19.8,13.2c0.1,0,0.1,0,0.2,0c0.1,0,0.1,0,0.2,0c0.7,0,1.5,0,2.3,0c0.1,0,0.3,0,0.4-0.1
						c11-0.7,14.6-7.6,21.5-13.8c8.9-8,12.3-13.4,12.2-13.5C204.3,396.3,200.1,370.4,198.2,364.3z"/>
				</g>
			</g>
			<path style="fill-rule:evenodd;clip-rule:evenodd;fill:#66361F;" d="M158.4,369.5c-0.1,0.1,15.4-4.5,22-21.3
				c0-0.4,7,12.6,18.2,17.7c-0.2-0.7-0.3-1.2-0.5-1.7c-1.7-7.3-3.2-14.3-5.7-21.6c-5.7-16.4-19.5-22.5-33.6-22.2
				c-14.2,0.2-27.7,6.3-33.1,21.7c-2.5,7.3-4.8,16.7-6,22.2c-0.1,0.3-0.2,0.6-0.3,0.9c3.8-0.6,10.6-3.6,17-16.3
				C136.2,349.1,139.5,360.3,158.4,369.5z"/>
			<path style="fill-rule:evenodd;clip-rule:evenodd;fill:#E5432E;" d="M196.2,357.2c-0.7-2.8-1.5-5.7-2.3-8.6
				c-5.5-7.2-16.9-18.6-34.6-18.4c-20.4,0.2-30.4,11.1-35.4,18.1c-0.7,2.7-1.4,5.4-2,8c4.8-5,17.6-15.9,37.4-15.8
				C177,340.5,189.7,351.1,196.2,357.2z"/>
			<g id="形状_3_拷贝_3_">
				<g>
					<path style="fill-rule:evenodd;clip-rule:evenodd;fill:#E5432E;" d="M195.6,277.1c-0.6-1-1.4-0.7-2-0.4
						c-24.8,11.6-32.3,33.4-34.6,44.3c-3.2-13.1-12.2-33.4-34.8-44.5c-0.9-0.5-2-0.7-2.5,0.9c0,0-8.1,36.6,29.1,55.3
						c-7.7,5.9-15.9,13.5,7.9,3.5c25.8,10.8,15.1,2,7.7-3.5C203.8,313.9,195.6,277.1,195.6,277.1z"/>
				</g>
			</g>
			<g id="形状_73_3_">
				<g>
					<path style="fill-rule:evenodd;clip-rule:evenodd;fill:#AD4023;" d="M157.7,316.5c0,0-1.6,3.8-1.4,8.4c0.3,5.4,1.6,8,1.7,5.9
						c0-1.5,0.7-7,1.1-10C159.2,320,157.7,316.5,157.7,316.5z"/>
				</g>
			</g>
			<g id="形状_82_3_">
				<g>
					<path style="fill-rule:evenodd;clip-rule:evenodd;fill:#CA4825;" d="M174.7,333.2c-1-0.5-5-2.2-5.6-1.8
						c-3.5,2.2-7.1,5.9-2.1,4.7C170.6,335.1,175.8,333.7,174.7,333.2z M148.8,331.5c-1.3-0.4-5.8,1.6-5.8,1.6s1.7,0.9,3.8,1.5
						c2.1,0.6,6.6,2.3,6.2,0.9C152.7,334.2,150.8,332.1,148.8,331.5z"/>
				</g>
			</g>
			<path style="fill-rule:evenodd;clip-rule:evenodd;fill:#FFCE99;" d="M142.6,388.8c-4.2-10.4-10.7-12.6-15.1-11.8
				c-8.3,1.5-9.4,5.7-9.4,5.5c0.1-0.2-0.2-7.5,6.9-9.3c6.4-1.6,12.9,1,15.7,5.4c2.6,4,2.3,10.2,2.3,10.2"/>
			<path style="fill-rule:evenodd;clip-rule:evenodd;fill:#FFCE99;" d="M174.6,388.8c4.2-10.4,10.7-12.6,15.1-11.8
				c8.3,1.5,9.4,5.7,9.4,5.5c-0.1-0.2,0.2-7.5-6.9-9.3c-6.4-1.6-12.9,1-15.7,5.4c-2.6,4-2.3,10.2-2.3,10.2"/>
			<g id="形状_4_7_">
				<g>
					<path style="fill:#FFFFFF;" d="M132.6,377.8c-3.4-1.6-10.5-0.8-13.4,1.6c0,0-4.2,17.4,11,19c7.6,0.3,12-3.7,12.7-8
						C143.8,385.6,136.6,379.6,132.6,377.8z"/>
				</g>
			</g>
			<g id="形状_6_7_">
				<g>
					<path style="fill-rule:evenodd;clip-rule:evenodd;fill:#512A15;" d="M140.1,381.8c0-0.1-3.9-5.4-9-6.6c-1.9-0.5-6,0.5-6,0.5
						s-6.2,5.1-1.6,13.6c2.7,4.5,6.9,6.4,10.7,6c4.6-0.5,7.3-3.8,7.7-7.4C142.2,384.4,140.1,381.8,140.1,381.8z"/>
				</g>
			</g>
			<g id="形状_48_3_">
				<g>
					<path style="fill:#FFFFFF;" d="M127.7,388.3c-0.2-1.4-4.7-1.6-5.7,0.3c-0.7,1.4,0.1,3,1.2,3.3
						C125.4,392.4,128,390.3,127.7,388.3z"/>
				</g>
			</g>
			<g id="形状_36_副本_7_">
				<g>
					<path style="fill-rule:evenodd;clip-rule:evenodd;fill:#A85726;" d="M138.2,367.7c-5.6-2.4-11.5-1.6-10.5,0.7
						c0.4,1,3.2-0.7,7.8,0.7c6.2,2,6,5.5,7.5,5.1C145.6,373.5,141.4,369.1,138.2,367.7z"/>
				</g>
			</g>
			<g id="形状_4_5_">
				<g>
					<path style="fill:#FFFFFF;" d="M198.5,379.4c-2.8-2.4-9.9-2.9-13.4-1.6c-8.2,3-11.2,7.8-10.4,12.5c0.7,4.4,5.1,8.3,12.7,8
						C202.7,396.8,198.5,379.4,198.5,379.4z"/>
				</g>
			</g>
			<g id="形状_6_5_">
				<g>
					<path style="fill-rule:evenodd;clip-rule:evenodd;fill:#512A15;" d="M193.1,376.7c0,0-3.5-0.9-5.4-0.4
						c-5.2,1.2-9.3,4.4-9.3,4.5c0,0-1.5,5.7-0.6,8.1c1.7,4.5,3.3,6.5,7.9,6.6c3.8,0.1,8.1-1.3,9.7-6.7
						C197.4,382.3,193.1,376.7,193.1,376.7z"/>
				</g>
			</g>
			<g id="形状_48_副本_3_">
				<g>
					<path style="fill:#FFFFFF;" d="M182.2,388.9c-1-1.8-5.1,0.4-5.3,1.8c-0.3,2.3,0.9,2.9,2.6,2.4
						C181.5,392.5,183.2,390.6,182.2,388.9z"/>
				</g>
			</g>
			<g id="形状_36_副本_5_">
				<g>
					<path style="fill-rule:evenodd;clip-rule:evenodd;fill:#A85726;" d="M179.7,367.6c-3.2,1.3-7.4,5-5.6,6.2
						c1.7,1.2,2.8-2.7,7.2-4.2c5.5-1.8,9.5,0.2,9.8-1.2C191.5,366.3,185.3,365.4,179.7,367.6z"/>
				</g>
			</g>
			<g id="Shape_2_7_">
				<g>
					<path style="fill-rule:evenodd;clip-rule:evenodd;fill:#9C6342;" d="M196.7,394.4c1.6-2.3,1.8-4.6,1.3-3.8
						c-1,2-2.4,4.4-5.4,5.8c-2.9,1.3-6.3,1.4-8.6,1.5c-2.1,0,4.2,1.5,8.6-0.2c0.3,0.1,0.8,0.3,1.3,0.6c0.6,0.3,1.7,1.1,1.7,0.7
						c-0.1-0.7-0.5-1.7-1.1-2.2c0.4-0.3,0.8-0.7,1.2-1c0.2,0,0.4,0,0.7,0.1c0.9,0.1,1.8,1.3,1.8,0.7
						C198.2,395.9,197.6,395,196.7,394.4z"/>
				</g>
			</g>
			<g id="形状_65_副本_7_">
				<g>
					<path style="fill-rule:evenodd;clip-rule:evenodd;fill:#713D1F;" d="M204.4,377.4c-0.3,0.5-1.2,1.4-2.3,1.9
						c-0.9,0.4-2.2,0.7-3.4,0.3c0-0.1-0.1-0.2-0.1-0.3c-0.8-1.6-3.5-3.5-6.1-4c-4.2-0.8-7.7-0.3-10.7,1.1c-4,1.9-6.8,5.5-7.6,10.4
						c-0.4,2.1,0.1,3.3,0.8,1.5c1.5-4.4,3-6.8,7-9c3.2-1.7,7.1-3,12.9-0.1c2,1,3.1,2.9,3.4,4.3c0.1,0.5,0.6,2.2,0.8,1.1
						c0.1-0.5,0.1-1.1,0.2-1.7c0.4,0,1.1,0,2.1-0.4c0.8-0.3,2.2-1.3,2.8-2.5C204.9,378.6,204.9,376.5,204.4,377.4z"/>
				</g>
			</g>
			<g id="Shape_2_5_">
				<g>
					<path style="fill-rule:evenodd;clip-rule:evenodd;fill:#9C6342;" d="M133.7,397.9c-2.3,0-5.8-0.1-8.6-1.5
						c-3.1-1.5-4.4-3.8-5.4-5.8c-0.4-0.9-0.2,1.5,1.3,3.8c-0.9,0.5-1.5,1.4-1.5,2c0,0.6,0.9-0.5,1.8-0.7c0.3,0,0.5-0.1,0.7-0.1
						c0.4,0.4,0.8,0.7,1.2,1c-0.6,0.5-1,1.5-1.1,2.2c-0.1,0.4,1.1-0.3,1.7-0.7c0.5-0.3,1-0.5,1.3-0.6
						C129.5,399.4,135.8,398,133.7,397.9z"/>
				</g>
			</g>
			<g id="形状_65_副本_5_">
				<g>
					<path style="fill-rule:evenodd;clip-rule:evenodd;fill:#713D1F;" d="M143,386.8c-0.8-4.9-3.6-8.5-7.6-10.4
						c-3-1.4-6.6-2-10.7-1.1c-2.3,0.5-4.6,2-5.5,3.3c-0.2,0.3-0.3,0.6-0.5,0.9c0,0,0,0,0,0c-1.3,0.4-2.7,0.1-3.6-0.3
						c-1-0.5-2-1.4-2.3-1.9c-0.5-0.9-0.5,1.2,0.2,2.6c0.6,1.2,2,2.2,2.8,2.5c1.1,0.4,1.8,0.5,2.2,0.4c0,0.6,0,1.2,0.1,1.7
						c0.1,1.1,0.7-0.1,0.8-0.6c0.7-2.1,1.4-3.9,3.4-4.8c5.8-2.8,9.7-1.6,12.9,0.1c4,2.2,5.5,4.9,7,9
						C143,390.1,143.4,388.9,143,386.8z"/>
				</g>
			</g>
			<g id="腮红2_3_">
				<g>
					<path style="fill-rule:evenodd;clip-rule:evenodd;fill:#FFA083;" d="M132.3,403.2c-6-0.6-8.7,1.4-8.7,3.3
						c0,1.5,2.2,4.6,7.8,4.9c7,0.4,9.1-1.9,9.2-3.1C140.6,406.9,139.7,404,132.3,403.2z"/>
				</g>
			</g>
			<g id="腮红2_副本_3_">
				<g>
					<path style="fill-rule:evenodd;clip-rule:evenodd;fill:#FFA083;" d="M185.5,403.2c-7.4,0.8-8.3,3.7-8.3,5
						c0.1,1.2,2.1,3.5,9.2,3.1c5.6-0.3,7.8-3.4,7.8-4.9C194.2,404.6,191.5,402.6,185.5,403.2z"/>
				</g>
			</g>
			<path style="fill-rule:evenodd;clip-rule:evenodd;fill:#512A15;" d="M158.3,435.6c-3.8,0-9.9-3.5-9.4-7.3c0.4-3,3.5-4.1,9.5-4.1
				c6.1,0,9.2,1,9.5,4.1C168.2,431.7,163.1,435.6,158.3,435.6z"/>
			<g id="形状_20_3_">
				<g>
					<path style="fill:#FCEACB;" d="M144.2,503.8c-11.4-8.9-25.6-3.1-25.6-0.9c0.9,24.1,23.9,21.7,23.9,21.7c8-0.9,9-6.5,9-6.5
						S151.9,509.8,144.2,503.8z"/>
				</g>
			</g>
			<g id="形状_21_3_">
				<g>
					<path style="fill:#FFBD99;" d="M148.1,517c-1.6-8.3-18.6-11-18.3-7.6c0.8,13.4,15.9,12.3,15.9,12.3S148.7,521.3,148.1,517z"/>
				</g>
			</g>
			<g id="形状_20_拷贝_3_">
				<g>
					<path style="fill:#FCEACB;" d="M171.8,504.8c-7.9,7.1-5.6,15.8-5.6,15.8s0.6,3.2,8.6,4.1c0,0,23.1,2.4,24-21.7
						C198.9,500.7,184.3,493.5,171.8,504.8z"/>
				</g>
			</g>
			<g id="形状_21_拷贝_3_">
				<g>
					<path style="fill-rule:evenodd;clip-rule:evenodd;fill:#FFBD99;" d="M169.3,517.1c-0.6,4.3,2.5,4.7,2.5,4.7s15.1,1.1,15.9-12.3
						C187.9,506.1,170.9,508.8,169.3,517.1z"/>
				</g>
			</g>
			<g id="形状_23_3_" style="opacity:0.4;">
				<g>
					<path style="fill-rule:evenodd;clip-rule:evenodd;fill:#DD7528;" d="M175.9,551.5c-9.3-1.7-34.6-3.4-37.4,2.9
						c-2.8,6.3-9.2,3.2-7.8,21.1c0,0,2.2,11.4,11.1,9.2c2.7-1.1,3.8-4.7,3.7-8.6c0-3.8,1.6-3.9,4.9-3.9c7.7,0.2,11.9,0.8,17.3-2.5
						c2.9-1.8,4.8,2.4,4.3,6.9c-0.6,5.3,0.5,7.5,4.8,8.4c3.9,0.9,7.2-0.9,8.3-4.9c1.2-4.2,1.5-8.9,1.5-8.9S185.2,553.2,175.9,551.5z
						"/>
				</g>
			</g>
			<path style="fill-rule:evenodd;clip-rule:evenodd;fill:#FCEBCE;" d="M177.6,539.1c0,0,10.3,7,9.7,30c-0.3,7.8-4.1,11.8-8.1,11.5
				c-4.1-0.3-4.5-4.7-3.9-9.3c0.2-1.8,0.8-7.7-1.4-15.9C171.7,547.2,177.6,539.1,177.6,539.1z"/>
			<path style="fill-rule:evenodd;clip-rule:evenodd;fill:#FCEBCE;" d="M137.6,541.9c0,0-8.1,7.9-7.5,26.6c0.3,7.8,4,12.3,8.1,12.1
				c4.1-0.3,4.3-3.6,4-7.2c-0.2-3.2-0.9-8.5,1.3-16.6C145.7,548.6,137.6,541.9,137.6,541.9z"/>
			<path style="fill-rule:evenodd;clip-rule:evenodd;fill:#F6BF96;" d="M178.4,575c-0.1,1.6-0.4,4.1-0.8,5.2
				c0.2,0.1,0.4,0.2,0.6,0.2c0.2-0.7,0.5-1.7,0.6-2.7C179.1,575.2,178.5,572.5,178.4,575z"/>
			<path style="fill-rule:evenodd;clip-rule:evenodd;fill:#F6BF96;" d="M181.7,575.1c0,1.1,0,3.8-0.7,5.3c0.3-0.1,0.7-0.2,1-0.3
				c0.3-0.8,0.4-2,0.4-2.9C182.5,575.2,181.7,573.6,181.7,575.1z"/>
			<path style="fill-rule:evenodd;clip-rule:evenodd;fill:#F6BF96;" d="M139.6,577.7c-0.4-1.4-1-4.4-1.1-3.6
				c-0.2,1.5,0.2,3.5,0.7,5.1c0.1,0.4,0.3,0.8,0.5,1.1c0.4-0.1,0.7-0.3,0.9-0.4C140.2,579.3,139.9,578.6,139.6,577.7z"/>
			<path style="fill-rule:evenodd;clip-rule:evenodd;fill:#F6BF96;" d="M136.5,578.1c-0.9-2.5-1-4.9-1.1-3.1
				c-0.2,2.1,0.3,3.7,1.1,5.1c0.1,0.1,0.1,0.2,0.2,0.3c0.3,0.1,0.6,0.1,0.9,0.1C137.2,579.9,136.8,579.1,136.5,578.1z"/>
			<g id="脸_5_">
				<g>
					<path style="fill:#FCEBCE;" d="M179,532.3c-4-14.2-13.4-17.8-20.3-17.7c-6.9-0.2-17.4,3.5-20.6,17.4c-0.8,4.8-3.3,8.7-2.5,14.8
						c0.9,6.1,2.9,9,11.4,14.8c1.8,1.3,3.1,1.3,5.1,2.9c2.1,1.6,4.4,2.3,8.5,1.8c0.1,0,0.1,0,0.2,0c1.6-0.3,2.9-0.9,4.1-1.8
						c2.1-1.6,3.4-1.6,5.1-2.9c8.5-5.7,10.5-8.7,11.4-14.8C182.4,540.7,179.8,535.2,179,532.3z"/>
				</g>
			</g>
			<g id="形状_77_3_">
				<g>
					
						<ellipse transform="matrix(8.525650e-02 -0.9964 0.9964 8.525650e-02 -420.4096 646.028)" style="fill-rule:evenodd;clip-rule:evenodd;fill:#FFDECC;" cx="141.6" cy="552" rx="1.9" ry="3.3"/>
				</g>
			</g>
			<g id="形状_77_副本_3_">
				<g>
					
						<ellipse transform="matrix(-3.271715e-02 -0.9995 0.9995 -3.271715e-02 -371.2108 744.6855)" style="fill:#FFDECC;" cx="174.7" cy="552" rx="1.9" ry="3.3"/>
				</g>
			</g>
			<path style="fill:#F7CC9D;" d="M146,525.8c0.8,2.9,2.2,3.4,4.1,3.7c2.3,0.3,3.6-1.8,4.3-2.7c0,0,1.5,2.9,3.6,3.5
				c2.3,0.7,3.8,0,4.6-1.5c0.5-0.9,0.3-2.4,0.3-2.4s1.9,2,4.7,1.2c1.7-0.4,1.8-1.9,1.9-2.9c0.1-1-0.3-1.9-0.3-1.9s2,2,1.4,4.4
				c-0.4,1.7-1.8,2.9-3.7,2.6c-1.3-0.2-3.3-1.5-3.3-1.5s-0.1,2.2-1.7,3.3c-1.5,1-3.7,0.9-5.1,0.1c-1.4-0.8-2.7-2.8-2.7-2.8
				s-0.8,1.8-2.8,2.7c-1.2,0.5-3.4,0.6-4.7-1.4C145.4,528.3,146,525.8,146,525.8z"/>
			<g id="形状_75_3_">
				<g>
					<path style="fill-rule:evenodd;clip-rule:evenodd;fill:#552F19;" d="M142.3,544.3c-3.5-0.3-4.5,0-4.2,0.7
						c0.2,0.6,0.9-0.1,4.1,0.5c5.3,1.1,7.5,4.6,8.1,3.1C150.9,547.1,146.5,544.7,142.3,544.3z"/>
				</g>
			</g>
			<g id="形状_75_副本_3_">
				<g>
					<path style="fill-rule:evenodd;clip-rule:evenodd;fill:#713D1F;" d="M175,544.3c-4.2,0.4-8.6,2.8-8,4.4c0.6,1.5,2.8-2,8.1-3.1
						c3.2-0.7,3.9,0,4.1-0.5C179.5,544.3,178.5,544,175,544.3z"/>
				</g>
			</g>
			<g id="形状_19_3_">
				<g>
					<path style="fill:#57301B;" d="M158.4,560.5c-6.6-0.1-6,2-6,2s1.1,4.2,6.3,4c5.1-0.1,6-4,6-4S165.1,560.5,158.4,560.5z"/>
				</g>
			</g>
		</g>
	</g>
</g>
<g>
	<path style="fill:#FF6600;" d="M387,577.6h-0.5l-0.6-2.3c0-0.1,0-0.2,0-0.3c0,0,0,0.1,0,0.2c0,0.1,0,0.1,0,0.2l-0.6,2.3h-0.5
		l-0.9-3h0.5l0.7,2.4c0,0,0,0.1,0,0.2c0,0,0,0.1,0,0.1h0c0-0.1,0-0.1,0-0.2c0,0,0,0,0-0.1l0.6-2.4h0.5l0.6,2.4c0,0,0,0.1,0,0.1
		c0,0.1,0,0.1,0,0.1h0c0-0.1,0-0.1,0-0.2l0.7-2.4h0.5L387,577.6z"/>
	<path style="fill:#FF6600;" d="M391.2,577.6h-0.5l-0.6-2.3c0-0.1,0-0.2,0-0.3c0,0,0,0.1,0,0.2c0,0.1,0,0.1,0,0.2l-0.6,2.3H389
		l-0.9-3h0.5l0.7,2.4c0,0,0,0.1,0,0.2c0,0,0,0.1,0,0.1h0c0-0.1,0-0.1,0-0.2c0,0,0,0,0-0.1l0.6-2.4h0.5l0.6,2.4c0,0,0,0.1,0,0.1
		c0,0.1,0,0.1,0,0.1h0c0-0.1,0-0.1,0-0.2l0.7-2.4h0.5L391.2,577.6z"/>
	<path style="fill:#FF6600;" d="M395.4,577.6h-0.5l-0.6-2.3c0-0.1,0-0.2,0-0.3c0,0,0,0.1,0,0.2c0,0.1,0,0.1,0,0.2l-0.6,2.3h-0.5
		l-0.9-3h0.5l0.7,2.4c0,0,0,0.1,0,0.2c0,0,0,0.1,0,0.1h0c0-0.1,0-0.1,0-0.2c0,0,0,0,0-0.1l0.6-2.4h0.5l0.6,2.4c0,0,0,0.1,0,0.1
		c0,0.1,0,0.1,0,0.1h0c0-0.1,0-0.1,0-0.2l0.7-2.4h0.5L395.4,577.6z"/>
	<path style="fill:#FF6600;" d="M397,577.6V577h0.6v0.6H397z"/>
	<path style="fill:#FF6600;" d="M398.8,575.5l-0.4-0.1c0.2-0.6,0.6-0.9,1.4-0.9c0.8,0,1.2,0.4,1.2,1.2v1.2c0,0.3,0,0.6,0.2,0.7h-0.4
		c-0.1-0.1-0.1-0.2-0.1-0.4c-0.2,0.3-0.6,0.5-1.2,0.5c-0.6,0-1-0.3-1-0.8c0-0.6,0.4-0.9,1.1-1c0.6-0.1,0.9-0.1,1.1-0.2
		c0-0.6-0.2-0.8-0.8-0.8C399.2,574.8,398.9,575,398.8,575.5z M400.5,576.4V576c-0.1,0.1-0.4,0.2-0.9,0.2c-0.6,0.1-0.8,0.3-0.8,0.6
		c0,0.3,0.2,0.5,0.7,0.5C400.1,577.2,400.4,576.9,400.5,576.4z"/>
	<path style="fill:#FF6600;" d="M401.7,573.4h0.4v4.1h-0.4V573.4z"/>
	<path style="fill:#FF6600;" d="M402.9,573.4h0.4v0.6h-0.4V573.4z M402.9,574.5h0.4v3h-0.4V574.5z"/>
	<path style="fill:#FF6600;" d="M408.2,575.6v2h-0.4v-1.9c0-0.6-0.2-0.9-0.6-0.9c-0.5,0-0.7,0.3-0.8,0.9v1.9H406v-1.9
		c0-0.6-0.2-0.9-0.6-0.9c-0.5,0-0.7,0.3-0.8,0.8v1.9h-0.4v-3h0.4v0.5c0.2-0.4,0.5-0.5,0.8-0.5c0.5,0,0.8,0.2,0.9,0.6
		c0.2-0.4,0.5-0.6,0.9-0.6C407.9,574.5,408.3,574.8,408.2,575.6z"/>
	<path style="fill:#FF6600;" d="M409.3,575.5l-0.4-0.1c0.2-0.6,0.6-0.9,1.4-0.9c0.8,0,1.2,0.4,1.2,1.2v1.2c0,0.3,0,0.6,0.2,0.7h-0.4
		c-0.1-0.1-0.1-0.2-0.1-0.4c-0.2,0.3-0.6,0.5-1.2,0.5c-0.6,0-1-0.3-1-0.8c0-0.6,0.4-0.9,1.1-1c0.6-0.1,0.9-0.1,1.1-0.2
		c0-0.6-0.2-0.8-0.8-0.8C409.7,574.8,409.4,575,409.3,575.5z M411,576.4V576c-0.1,0.1-0.4,0.2-0.9,0.2c-0.6,0.1-0.8,0.3-0.8,0.6
		c0,0.3,0.2,0.5,0.7,0.5C410.6,577.2,410.9,576.9,411,576.4z"/>
	<path style="fill:#FF6600;" d="M416.3,575.6v2h-0.4v-1.9c0-0.6-0.2-0.9-0.6-0.9c-0.5,0-0.7,0.3-0.8,0.9v1.9H414v-1.9
		c0-0.6-0.2-0.9-0.6-0.9c-0.5,0-0.7,0.3-0.8,0.8v1.9h-0.4v-3h0.4v0.5c0.2-0.4,0.5-0.5,0.8-0.5c0.5,0,0.8,0.2,0.9,0.6
		c0.2-0.4,0.5-0.6,0.9-0.6C416,574.5,416.3,574.8,416.3,575.6z"/>
	<path style="fill:#FF6600;" d="M417.4,575.5l-0.4-0.1c0.2-0.6,0.6-0.9,1.4-0.9c0.8,0,1.2,0.4,1.2,1.2v1.2c0,0.3,0,0.6,0.2,0.7h-0.4
		c-0.1-0.1-0.1-0.2-0.1-0.4c-0.2,0.3-0.6,0.5-1.2,0.5c-0.6,0-1-0.3-1-0.8c0-0.6,0.4-0.9,1.1-1c0.6-0.1,0.9-0.1,1.1-0.2
		c0-0.6-0.2-0.8-0.8-0.8C417.8,574.8,417.5,575,417.4,575.5z M419,576.4V576c-0.1,0.1-0.4,0.2-0.9,0.2c-0.6,0.1-0.8,0.3-0.8,0.6
		c0,0.3,0.2,0.5,0.7,0.5C418.6,577.2,419,576.9,419,576.4z"/>
	<path style="fill:#FF6600;" d="M420.4,577.6V577h0.6v0.6H420.4z"/>
	<path style="fill:#FF6600;" d="M423.2,574.9c-0.6,0-0.9,0.4-0.9,1.2c0,0.8,0.3,1.2,0.9,1.2c0.5,0,0.8-0.3,0.8-0.8l0.5,0.1
		c-0.1,0.7-0.5,1.1-1.3,1c-0.9,0-1.3-0.5-1.4-1.6c0-1,0.5-1.6,1.3-1.6c0.7,0,1.1,0.3,1.3,0.9l-0.4,0.1
		C423.8,575.1,423.5,574.9,423.2,574.9z"/>
	<path style="fill:#FF6600;" d="M426.1,577.7c-0.9-0.1-1.4-0.6-1.4-1.5c0-1.1,0.5-1.6,1.5-1.6c0.9,0,1.3,0.6,1.4,1.6
		C427.5,577.1,427,577.6,426.1,577.7z M426.1,574.8c-0.6,0-1,0.4-1,1.3c0,0.8,0.3,1.2,1,1.2c0.6,0,0.9-0.4,0.9-1.2
		C427,575.3,426.7,574.9,426.1,574.8z"/>
	<path style="fill:#FF6600;" d="M432.2,575.6v2h-0.4v-1.9c0-0.6-0.2-0.9-0.6-0.9c-0.5,0-0.7,0.3-0.8,0.9v1.9H430v-1.9
		c0-0.6-0.2-0.9-0.6-0.9c-0.5,0-0.7,0.3-0.8,0.8v1.9h-0.4v-3h0.4v0.5c0.2-0.4,0.5-0.5,0.8-0.5c0.5,0,0.8,0.2,0.9,0.6
		c0.2-0.4,0.5-0.6,0.9-0.6C431.9,574.5,432.2,574.8,432.2,575.6z"/>
</g>
<rect x="390.6" y="522.2" style="fill:#FFFFFF;" width="35.6" height="35.6"/>
<g>
	<rect x="415.8" y="530" width="1.3" height="1.3"/>
	<rect x="417.1" y="531.2" width="1.2" height="1.2"/>
	<rect x="417.1" y="533.7" width="1.2" height="1.3"/>
	<rect x="410.8" y="530" width="1.3" height="1.3"/>
	<rect x="417.1" y="538.7" width="1.2" height="1.3"/>
	<rect x="417.1" y="544.9" width="1.2" height="1.3"/>
	<rect x="417.1" y="535" width="1.2" height="1.2"/>
	<rect x="417.1" y="540" width="1.2" height="1.3"/>
	<rect x="408.3" y="530" width="1.3" height="1.3"/>
	<rect x="398.3" y="540" width="1.2" height="1.3"/>
	<rect x="398.3" y="535" width="1.2" height="1.2"/>
	<rect x="398.3" y="543.7" width="1.2" height="1.3"/>
	<rect x="403.3" y="530" width="1.2" height="1.3"/>
	<rect x="398.3" y="531.2" width="1.2" height="1.2"/>
	<rect x="399.6" y="530" width="1.3" height="1.3"/>
	<rect x="399.6" y="533.7" width="1.3" height="1.3"/>
	<rect x="399.6" y="531.2" width="1.3" height="1.2"/>
	<rect x="399.6" y="535" width="1.3" height="1.2"/>
	<rect x="399.6" y="538.7" width="1.3" height="1.3"/>
	<rect x="399.6" y="537.4" width="1.3" height="1.3"/>
	<rect x="399.6" y="536.2" width="1.3" height="1.2"/>
	<rect x="404.6" y="531.2" width="1.3" height="1.2"/>
	<rect x="410.8" y="531.2" width="1.3" height="1.2"/>
	<rect x="413.3" y="531.2" width="1.3" height="1.2"/>
	<rect x="407.1" y="531.2" width="1.3" height="1.2"/>
	<rect x="408.3" y="531.2" width="1.3" height="1.2"/>
	<rect x="408.3" y="548.7" width="1.3" height="1.3"/>
	<rect x="410.8" y="548.7" width="1.3" height="1.3"/>
	<rect x="405.8" y="548.7" width="1.2" height="1.3"/>
	<rect x="413.3" y="548.7" width="1.3" height="1.3"/>
	<rect x="404.6" y="548.7" width="1.3" height="1.3"/>
	<rect x="399.6" y="544.9" width="1.3" height="1.3"/>
	<rect x="399.6" y="543.7" width="1.3" height="1.3"/>
	<rect x="399.6" y="542.5" width="1.3" height="1.2"/>
	<rect x="399.6" y="548.7" width="1.3" height="1.3"/>
	<rect x="399.6" y="547.4" width="1.3" height="1.2"/>
	<rect x="404.6" y="551.2" width="1.3" height="1.3"/>
	<rect x="397.1" y="531.2" width="1.3" height="1.2"/>
	<rect x="397.1" y="540" width="1.3" height="1.3"/>
	<rect x="397.1" y="538.7" width="1.3" height="1.3"/>
	<rect x="397.1" y="528.7" width="1.3" height="1.3"/>
	<rect x="397.1" y="536.2" width="1.3" height="1.2"/>
	<rect x="397.1" y="541.2" width="1.3" height="1.3"/>
	<rect x="407.1" y="528.7" width="1.3" height="1.3"/>
	<rect x="404.6" y="528.7" width="1.3" height="1.3"/>
	<rect x="408.3" y="528.7" width="1.3" height="1.3"/>
	<rect x="399.6" y="528.7" width="1.3" height="1.3"/>
	<rect x="398.3" y="547.4" width="1.2" height="1.2"/>
	<rect x="397.1" y="542.5" width="1.3" height="1.2"/>
	<rect x="408.3" y="551.2" width="1.3" height="1.3"/>
	<rect x="410.8" y="551.2" width="1.3" height="1.3"/>
	<rect x="405.8" y="551.2" width="1.2" height="1.3"/>
	<rect x="399.6" y="551.2" width="1.3" height="1.3"/>
	<rect x="397.1" y="547.4" width="1.3" height="1.2"/>
	<rect x="397.1" y="551.2" width="1.3" height="1.3"/>
	<rect x="397.1" y="549.9" width="1.3" height="1.3"/>
	<rect x="415.8" y="531.2" width="1.3" height="1.2"/>
	<rect x="414.6" y="549.9" width="1.2" height="1.3"/>
	<rect x="413.3" y="549.9" width="1.3" height="1.3"/>
	<rect x="410.8" y="549.9" width="1.3" height="1.3"/>
	<rect x="408.3" y="549.9" width="1.3" height="1.3"/>
	<rect x="418.3" y="549.9" width="1.3" height="1.3"/>
	<rect x="415.8" y="549.9" width="1.3" height="1.3"/>
	<rect x="418.3" y="548.7" width="1.3" height="1.3"/>
	<rect x="417.1" y="549.9" width="1.2" height="1.3"/>
	<rect x="418.3" y="547.4" width="1.3" height="1.2"/>
	<rect x="399.6" y="549.9" width="1.3" height="1.3"/>
	<rect x="405.8" y="549.9" width="1.2" height="1.3"/>
	<rect x="407.1" y="549.9" width="1.3" height="1.3"/>
	<rect x="403.3" y="549.9" width="1.2" height="1.3"/>
	<rect x="402.1" y="549.9" width="1.3" height="1.3"/>
	<rect x="418.3" y="543.7" width="1.3" height="1.3"/>
	<rect x="418.3" y="533.7" width="1.3" height="1.3"/>
	<rect x="418.3" y="531.2" width="1.3" height="1.2"/>
	<rect x="418.3" y="528.7" width="1.3" height="1.3"/>
	<rect x="412.1" y="528.7" width="1.2" height="1.3"/>
	<rect x="413.3" y="528.7" width="1.3" height="1.3"/>
	<rect x="415.8" y="528.7" width="1.3" height="1.3"/>
	<rect x="418.3" y="541.2" width="1.3" height="1.3"/>
	<rect x="418.3" y="544.9" width="1.3" height="1.3"/>
	<rect x="418.3" y="546.2" width="1.3" height="1.3"/>
	<rect x="418.3" y="536.2" width="1.3" height="1.2"/>
	<rect x="413.3" y="537.5" width="1.3" height="1.3"/>
	<rect x="403.3" y="537.4" width="1.2" height="1.3"/>
	<rect x="409.6" y="535" width="1.2" height="1.2"/>
	<rect x="412.1" y="538.7" width="1.2" height="1.3"/>
	<rect x="412.1" y="536.2" width="1.2" height="1.2"/>
	<rect x="405.8" y="535" width="1.2" height="1.2"/>
	<rect x="413.3" y="540" width="1.3" height="1.3"/>
	<rect x="413.3" y="542.5" width="1.3" height="1.2"/>
	<rect x="413.3" y="538.7" width="1.3" height="1.3"/>
	<rect x="413.3" y="533.7" width="1.3" height="1.3"/>
	<rect x="413.3" y="536.2" width="1.3" height="1.2"/>
	<rect x="403.3" y="543.7" width="1.2" height="1.3"/>
	<rect x="412.1" y="533.7" width="1.2" height="1.3"/>
	<rect x="413.3" y="544.9" width="1.3" height="1.3"/>
	<rect x="405.8" y="544.9" width="1.2" height="1.3"/>
	<rect x="412.1" y="544.9" width="1.2" height="1.3"/>
	<rect x="410.8" y="544.9" width="1.3" height="1.3"/>
	<rect x="405.8" y="537.5" width="1.2" height="1.3"/>
	<rect x="405.8" y="538.7" width="1.2" height="1.3"/>
	<rect x="407.1" y="537.5" width="1.3" height="1.3"/>
	<rect x="408.3" y="537.5" width="1.3" height="1.3"/>
	<rect x="407.1" y="542.5" width="1.3" height="1.2"/>
	<rect x="405.8" y="541.2" width="1.2" height="1.3"/>
	<rect x="409.6" y="537.5" width="1.2" height="1.3"/>
	<rect x="405.8" y="542.5" width="1.2" height="1.2"/>
	<rect x="405.8" y="540" width="1.2" height="1.3"/>
	<rect x="407.1" y="540" width="1.3" height="1.3"/>
	<rect x="408.3" y="540" width="1.3" height="1.3"/>
	<rect x="409.6" y="540" width="1.2" height="1.3"/>
	<rect x="408.3" y="541.2" width="1.3" height="1.3"/>
	<rect x="404.6" y="541.2" width="1.3" height="1.3"/>
	<rect x="404.6" y="537.5" width="1.3" height="1.3"/>
	<rect x="404.6" y="540" width="1.3" height="1.3"/>
	<rect x="404.6" y="543.7" width="1.3" height="1.3"/>
	<rect x="408.3" y="543.7" width="1.3" height="1.3"/>
	<rect x="410.8" y="542.5" width="1.3" height="1.2"/>
	<rect x="410.8" y="540" width="1.3" height="1.3"/>
	<rect x="405.8" y="536.2" width="1.2" height="1.2"/>
	<rect x="410.8" y="541.2" width="1.3" height="1.3"/>
	<rect x="409.6" y="536.2" width="1.2" height="1.2"/>
	<rect x="409.6" y="543.7" width="1.2" height="1.3"/>
	<rect x="400.8" y="543.7" width="1.2" height="1.3"/>
	<rect x="404.6" y="547.4" width="1.3" height="1.2"/>
	<rect x="402.1" y="547.4" width="1.3" height="1.2"/>
	<rect x="403.3" y="532.5" width="1.2" height="1.3"/>
	<rect x="404.6" y="532.5" width="1.3" height="1.3"/>
	<rect x="400.8" y="537.4" width="1.2" height="1.3"/>
	<rect x="400.8" y="535" width="1.2" height="1.2"/>
	<rect x="402.1" y="532.5" width="1.3" height="1.3"/>
	<rect x="415.8" y="542.5" width="1.3" height="1.2"/>
	<rect x="415.8" y="543.7" width="1.3" height="1.3"/>
	<rect x="415.8" y="544.9" width="1.3" height="1.3"/>
	<rect x="415.8" y="537.5" width="1.3" height="1.3"/>
	<rect x="415.8" y="535" width="1.3" height="1.2"/>
	<rect x="408.3" y="547.4" width="1.3" height="1.2"/>
	<rect x="407.1" y="547.4" width="1.3" height="1.2"/>
	<rect x="415.8" y="547.4" width="1.3" height="1.2"/>
	<rect x="413.3" y="547.4" width="1.3" height="1.2"/>
	<rect x="402.1" y="541.2" width="1.3" height="1.3"/>
	<rect x="402.1" y="546.2" width="1.3" height="1.3"/>
	<rect x="402.1" y="540" width="1.3" height="1.3"/>
	<rect x="408.3" y="533.7" width="1.3" height="1.3"/>
	<rect x="404.6" y="533.7" width="1.3" height="1.3"/>
	<rect x="402.1" y="537.4" width="1.3" height="1.3"/>
	<rect x="402.1" y="533.7" width="1.3" height="1.3"/>
	<rect x="414.6" y="533.7" width="1.2" height="1.3"/>
	<rect x="408.3" y="546.2" width="1.3" height="1.3"/>
	<rect x="412.1" y="532.5" width="1.2" height="1.3"/>
	<rect x="410.8" y="532.5" width="1.3" height="1.3"/>
	<rect x="413.3" y="546.2" width="1.3" height="1.3"/>
	<rect x="414.6" y="544.9" width="1.2" height="1.3"/>
	<rect x="414.6" y="541.2" width="1.2" height="1.3"/>
	<rect x="419.6" y="538.7" width="1.2" height="1.3"/>
	<rect x="393.3" y="538.7" width="1.2" height="1.3"/>
	<rect x="393.3" y="547.4" width="1.2" height="1.2"/>
	<rect x="393.3" y="543.7" width="1.2" height="1.3"/>
	<rect x="393.3" y="535" width="1.2" height="1.2"/>
	<rect x="393.3" y="531.2" width="1.2" height="1.2"/>
	<rect x="393.3" y="533.7" width="1.2" height="1.3"/>
	<rect x="405.8" y="554.9" width="1.2" height="1.3"/>
	<rect x="403.3" y="554.9" width="1.2" height="1.3"/>
	<rect x="412.1" y="554.9" width="1.2" height="1.3"/>
	<rect x="409.6" y="554.9" width="1.2" height="1.3"/>
	<rect x="408.3" y="554.9" width="1.3" height="1.3"/>
	<rect x="397.1" y="554.9" width="1.3" height="1.3"/>
	<rect x="393.3" y="554.9" width="1.2" height="1.3"/>
	<rect x="413.3" y="554.9" width="1.3" height="1.3"/>
	<rect x="398.3" y="554.9" width="1.2" height="1.3"/>
	<rect x="394.6" y="554.9" width="1.3" height="1.3"/>
	<rect x="399.6" y="554.9" width="1.3" height="1.3"/>
	<rect x="395.8" y="554.9" width="1.2" height="1.3"/>
	<rect x="422.1" y="537.5" width="1.2" height="1.3"/>
	<rect x="422.1" y="531.2" width="1.2" height="1.2"/>
	<rect x="422.1" y="548.7" width="1.2" height="1.3"/>
	<rect x="422.1" y="540" width="1.2" height="1.3"/>
	<rect x="422.1" y="549.9" width="1.2" height="1.3"/>
	<rect x="422.1" y="541.2" width="1.2" height="1.3"/>
	<rect x="422.1" y="544.9" width="1.2" height="1.3"/>
	<rect x="403.3" y="525" width="1.2" height="1.3"/>
	<rect x="409.6" y="525" width="1.2" height="1.3"/>
	<rect x="408.3" y="525" width="1.3" height="1.3"/>
	<rect x="407.1" y="525" width="1.3" height="1.3"/>
	<rect x="404.6" y="525" width="1.3" height="1.3"/>
	<rect x="399.6" y="525" width="1.3" height="1.3"/>
	<rect x="415.8" y="525" width="1.3" height="1.3"/>
	<rect x="412.1" y="525" width="1.2" height="1.3"/>
	<rect x="410.8" y="525" width="1.3" height="1.3"/>
	<rect x="394.6" y="523.7" width="1.3" height="1.3"/>
	<rect x="393.3" y="523.7" width="1.2" height="1.3"/>
	<rect x="395.8" y="523.7" width="1.2" height="1.3"/>
	<rect x="392.1" y="523.7" width="1.3" height="1.3"/>
	<rect x="397.1" y="523.7" width="1.3" height="1.3"/>
	<rect x="392.1" y="528.7" width="1.3" height="1.3"/>
	<rect x="392.1" y="525" width="1.3" height="1.3"/>
	<rect x="398.3" y="523.7" width="1.2" height="1.3"/>
	<rect x="392.1" y="526.2" width="1.3" height="1.2"/>
	<rect x="407.1" y="523.7" width="1.3" height="1.3"/>
	<rect x="408.3" y="523.7" width="1.3" height="1.3"/>
	<rect x="392.1" y="530" width="1.3" height="1.3"/>
	<rect x="404.6" y="523.7" width="1.3" height="1.3"/>
	<rect x="399.6" y="523.7" width="1.3" height="1.3"/>
	<rect x="403.3" y="523.7" width="1.2" height="1.3"/>
	<rect x="392.1" y="548.7" width="1.3" height="1.3"/>
	<rect x="392.1" y="547.4" width="1.3" height="1.2"/>
	<rect x="392.1" y="543.7" width="1.3" height="1.3"/>
	<rect x="392.1" y="549.9" width="1.3" height="1.3"/>
	<rect x="392.1" y="551.2" width="1.3" height="1.3"/>
	<rect x="392.1" y="554.9" width="1.3" height="1.3"/>
	<rect x="392.1" y="531.2" width="1.3" height="1.2"/>
	<rect x="392.1" y="552.4" width="1.3" height="1.2"/>
	<rect x="392.1" y="553.7" width="1.3" height="1.3"/>
	<rect x="392.1" y="536.2" width="1.3" height="1.2"/>
	<rect x="392.1" y="535" width="1.3" height="1.2"/>
	<rect x="392.1" y="541.2" width="1.3" height="1.3"/>
	<rect x="392.1" y="538.7" width="1.3" height="1.3"/>
	<rect x="392.1" y="527.5" width="1.3" height="1.3"/>
	<rect x="423.4" y="547.4" width="1.3" height="1.2"/>
	<rect x="423.4" y="544.9" width="1.3" height="1.3"/>
	<rect x="423.4" y="549.9" width="1.3" height="1.3"/>
	<rect x="423.4" y="538.7" width="1.3" height="1.3"/>
	<rect x="423.4" y="541.2" width="1.3" height="1.3"/>
	<rect x="423.4" y="551.2" width="1.3" height="1.3"/>
	<rect x="423.4" y="542.5" width="1.3" height="1.2"/>
	<rect x="423.4" y="548.7" width="1.3" height="1.3"/>
	<rect x="412.1" y="523.7" width="1.2" height="1.3"/>
	<rect x="418.3" y="554.9" width="1.3" height="1.3"/>
	<rect x="415.8" y="554.9" width="1.3" height="1.3"/>
	<rect x="420.8" y="554.9" width="1.3" height="1.3"/>
	<rect x="423.4" y="554.9" width="1.3" height="1.3"/>
	<rect x="419.6" y="523.7" width="1.2" height="1.3"/>
	<rect x="423.4" y="537.5" width="1.3" height="1.3"/>
	<rect x="422.1" y="523.7" width="1.2" height="1.3"/>
	<rect x="423.4" y="523.7" width="1.3" height="1.3"/>
	<rect x="418.3" y="523.7" width="1.3" height="1.3"/>
	<rect x="415.8" y="523.7" width="1.3" height="1.3"/>
	<rect x="417.1" y="523.7" width="1.2" height="1.3"/>
	<rect x="423.4" y="525" width="1.3" height="1.3"/>
	<rect x="420.8" y="523.7" width="1.3" height="1.3"/>
	<rect x="423.4" y="533.7" width="1.3" height="1.3"/>
	<rect x="423.4" y="526.2" width="1.3" height="1.2"/>
	<rect x="423.4" y="536.2" width="1.3" height="1.2"/>
	<rect x="423.4" y="527.5" width="1.3" height="1.3"/>
	<rect x="423.4" y="528.7" width="1.3" height="1.3"/>
	<rect x="423.4" y="531.2" width="1.3" height="1.2"/>
	<rect x="423.4" y="530" width="1.3" height="1.3"/>
	<rect x="395.8" y="547.4" width="1.2" height="1.2"/>
	<rect x="395.8" y="544.9" width="1.2" height="1.3"/>
	<rect x="395.8" y="551.2" width="1.2" height="1.3"/>
	<rect x="395.8" y="552.4" width="1.2" height="1.2"/>
	<rect x="395.8" y="549.9" width="1.2" height="1.3"/>
	<rect x="397.1" y="552.4" width="1.3" height="1.2"/>
	<rect x="395.8" y="531.2" width="1.2" height="1.2"/>
	<rect x="395.8" y="533.7" width="1.2" height="1.3"/>
	<rect x="395.8" y="528.7" width="1.2" height="1.3"/>
	<rect x="417.1" y="552.4" width="1.2" height="1.2"/>
	<rect x="412.1" y="552.4" width="1.2" height="1.2"/>
	<rect x="399.6" y="552.4" width="1.3" height="1.2"/>
	<rect x="420.8" y="552.4" width="1.3" height="1.2"/>
	<rect x="419.6" y="552.4" width="1.2" height="1.2"/>
	<rect x="420.8" y="549.9" width="1.3" height="1.3"/>
	<rect x="404.6" y="552.4" width="1.3" height="1.2"/>
	<rect x="402.1" y="552.4" width="1.3" height="1.2"/>
	<rect x="408.3" y="552.4" width="1.3" height="1.2"/>
	<rect x="405.8" y="552.4" width="1.2" height="1.2"/>
	<rect x="419.6" y="541.2" width="1.2" height="1.3"/>
	<rect x="419.6" y="540" width="1.2" height="1.3"/>
	<rect x="419.6" y="536.2" width="1.2" height="1.2"/>
	<rect x="419.6" y="537.5" width="1.2" height="1.3"/>
	<rect x="419.6" y="531.2" width="1.2" height="1.2"/>
	<rect x="417.1" y="551.2" width="1.2" height="1.3"/>
	<rect x="403.3" y="527.5" width="1.2" height="1.3"/>
	<rect x="404.6" y="527.5" width="1.3" height="1.3"/>
	<rect x="395.8" y="527.5" width="1.2" height="1.3"/>
	<rect x="419.6" y="528.7" width="1.2" height="1.3"/>
	<rect x="397.1" y="527.5" width="1.3" height="1.3"/>
	<rect x="399.6" y="527.5" width="1.3" height="1.3"/>
	<rect x="402.1" y="527.5" width="1.3" height="1.3"/>
	<rect x="418.3" y="527.5" width="1.3" height="1.3"/>
	<rect x="415.8" y="527.5" width="1.3" height="1.3"/>
	<rect x="422.1" y="552.4" width="1.2" height="1.2"/>
	<rect x="412.1" y="527.5" width="1.2" height="1.3"/>
	<rect x="410.8" y="527.5" width="1.3" height="1.3"/>
	<rect x="419.6" y="527.5" width="1.2" height="1.3"/>
	<rect x="394.6" y="547.4" width="1.3" height="1.2"/>
	<rect x="394.6" y="549.9" width="1.3" height="1.3"/>
	<rect x="394.6" y="544.9" width="1.3" height="1.3"/>
	<rect x="394.6" y="543.7" width="1.3" height="1.3"/>
	<rect x="394.6" y="551.2" width="1.3" height="1.3"/>
	<rect x="394.6" y="552.4" width="1.3" height="1.2"/>
	<rect x="394.6" y="535" width="1.3" height="1.2"/>
	<rect x="394.6" y="536.2" width="1.3" height="1.2"/>
	<rect x="394.6" y="538.7" width="1.3" height="1.3"/>
	<rect x="414.6" y="553.7" width="1.2" height="1.3"/>
	<rect x="413.3" y="553.7" width="1.3" height="1.3"/>
	<rect x="422.1" y="553.7" width="1.2" height="1.3"/>
	<rect x="420.8" y="553.7" width="1.3" height="1.3"/>
	<rect x="419.6" y="553.7" width="1.2" height="1.3"/>
	<rect x="399.6" y="553.7" width="1.3" height="1.3"/>
	<rect x="409.6" y="553.7" width="1.2" height="1.3"/>
	<rect x="403.3" y="553.7" width="1.2" height="1.3"/>
	<rect x="394.6" y="531.2" width="1.3" height="1.2"/>
	<rect x="408.3" y="553.7" width="1.3" height="1.3"/>
	<rect x="405.8" y="553.7" width="1.2" height="1.3"/>
	<rect x="420.8" y="531.2" width="1.3" height="1.2"/>
	<rect x="420.8" y="533.7" width="1.3" height="1.3"/>
	<rect x="420.8" y="528.7" width="1.3" height="1.3"/>
	<rect x="419.6" y="526.2" width="1.2" height="1.2"/>
	<rect x="418.3" y="526.2" width="1.3" height="1.2"/>
	<rect x="420.8" y="535" width="1.3" height="1.2"/>
	<rect x="420.8" y="526.2" width="1.3" height="1.2"/>
	<rect x="420.8" y="527.5" width="1.3" height="1.3"/>
	<rect x="420.8" y="541.2" width="1.3" height="1.3"/>
	<rect x="420.8" y="542.5" width="1.3" height="1.2"/>
	<rect x="420.8" y="537.5" width="1.3" height="1.3"/>
	<rect x="420.8" y="543.7" width="1.3" height="1.3"/>
	<rect x="399.6" y="526.2" width="1.3" height="1.2"/>
	<rect x="402.1" y="526.2" width="1.3" height="1.2"/>
	<rect x="397.1" y="526.2" width="1.3" height="1.2"/>
	<rect x="415.8" y="526.2" width="1.3" height="1.2"/>
	<rect x="394.6" y="527.5" width="1.3" height="1.3"/>
	<rect x="394.6" y="526.2" width="1.3" height="1.2"/>
	<rect x="395.8" y="526.2" width="1.2" height="1.2"/>
	<rect x="394.6" y="528.7" width="1.3" height="1.3"/>
	<rect x="412.1" y="526.2" width="1.2" height="1.2"/>
	<rect x="404.6" y="526.2" width="1.3" height="1.2"/>
	<rect x="409.6" y="526.2" width="1.2" height="1.2"/>
	<rect x="408.3" y="526.2" width="1.3" height="1.2"/>
</g>
</svg>
