<?xml version="1.0" encoding="utf-8"?>
<!-- Generator: Adobe Illustrator 17.1.0, SVG Export Plug-In . SVG Version: 6.00 Build 0)  -->
<!DOCTYPE svg PUBLIC "-//W3C//DTD SVG 1.1//EN" "http://www.w3.org/Graphics/SVG/1.1/DTD/svg11.dtd">
<svg version="1.1" id="图层_1" xmlns="http://www.w3.org/2000/svg" xmlns:xlink="http://www.w3.org/1999/xlink" x="0px" y="0px"
	 viewBox="0 0 827.7 604.7" style="enable-background:new 0 0 827.7 604.7;" xml:space="preserve">
<rect x="520.9" y="155.2" style="fill:#FF6600;" width="301.7" height="441.9"/>
<rect x="9.4" y="155.2" style="fill:#FFFFFF;stroke:#D8D8D8;stroke-miterlimit:10;" width="301.7" height="441.9"/>
<rect x="363.7" y="154.5" style="fill:#FFFFFF;stroke:#D8D8D8;stroke-miterlimit:10;" width="103.7" height="443.2"/>
<circle style="fill:none;stroke:#D8D8D8;" cx="100.3" cy="185.5" r="4.2"/>
<circle style="fill:none;stroke:#D8D8D8;" cx="221" cy="185.5" r="4.2"/>
<g>
	<path style="fill:#FF6600;" d="M416.2,286.5c-1,0.3-2.1,0.6-3.3,0.9c-1.1-1.2-2.2-2.3-3.2-3.4c-0.8-0.7-1.4-1.2-1.7-1.4l2.3-1.9
		c0.6,0.5,1.3,0.8,2.1,0.8h4.6v-1.8h3v4.8h-5.9c0.2,0.2,0.5,0.5,1,0.9C415.5,285.9,415.9,286.3,416.2,286.5z M426,289.8v3.4h-5v4.8
		h-3.1v-4.8h-6.7v5.3h-2.9v-12.7h2.9v4.1H426z M426.2,283.3c-1.4,1.2-2.5,2.3-3.4,3l-2-2.6c0.1-0.1,0.3-0.2,0.5-0.3
		c1.2-1,2.3-1.9,3-2.6L426.2,283.3z"/>
	<path style="fill:#FF6600;" d="M419.2,300v7.2c0.8,0.1,1.8,0.1,2.9,0.1v-6.2h3v16.1h-3v-6.4c-0.4,0-0.9,0-1.5-0.1
		c-0.6,0-1.1,0-1.4,0v7.6h-3V311c-2.8,1-4.5,3.6-5.4,7.6c-1-0.7-2.1-1.3-3.1-1.9c1.2-4.1,3.1-6.6,5.6-7.6c-2.3-1-4.3-3.5-5.8-7.6
		c1.1-0.7,2.1-1.3,2.8-1.9c1.5,4.4,3.5,6.8,5.9,7.3V300H419.2z"/>
	<path style="fill:#FF6600;" d="M425.1,319.8v18.6h-3.2v-8.2h-3.7l1.7,1.5c-1.6,2.2-3.1,4.3-4.6,6.2l-2.7-2.3c1.7-2,3.2-3.8,4.4-5.5
		h-9.3v-3.6h14.3v-6.8H425.1z"/>
	<path style="fill:#FF6600;" d="M415.5,342.1l-1.2,3c-0.7-0.2-1.8-0.6-3.3-1.1c-1.6-0.5-2.8-0.9-3.6-1.2l1.2-3
		C411.4,340.8,413.6,341.6,415.5,342.1z M418.4,357.4h-3c-1.6-1.1-3-2.2-4.1-3.4c-0.5,1.2-0.9,2.8-1.2,4.6c-0.4-0.3-1-0.7-2-1.2
		c-0.3-0.2-0.5-0.3-0.7-0.4c0.6-2.4,1.2-4.4,2-5.8c-0.9-1.7-1.6-3.6-2.1-5.7c0.3-0.2,0.6-0.4,1.1-0.6c0.7-0.4,1.2-0.7,1.6-0.9
		c0.4,1.8,0.9,3.2,1.3,4.4c0.9-0.8,1.9-1.7,3-2.6l1.2,1.9v-2.4h2.7V357.4z M415.7,348.5c-1.1,0.9-2,1.8-2.7,2.7
		c0.7,0.9,1.6,1.8,2.7,2.6V348.5z M421.1,341.6c-0.5,0.6-1.2,1.5-2.2,2.7c-0.3,0.3-0.5,0.5-0.6,0.7l-2.5-2.3c0.8-0.8,1.8-1.8,3-3.2
		L421.1,341.6z M421.9,356.9v1.6c-0.9-0.2-1.8-0.3-2.7-0.5c0-0.2,0-0.5,0-1c-0.1-0.6-0.1-1.1-0.1-1.6c-0.1-1.7,0.7-2.5,2.3-2.5h1.2
		v-3.3c-1.8,0-3.2-1.1-4.3-3.2c0.7-0.7,1.4-1.4,2.1-2.1c0.8,1.8,1.9,2.6,3.3,2.4h1.6v9.2h-2.8C422.1,355.9,421.9,356.3,421.9,356.9z
		 M426.1,342.3c-0.9,1.2-1.8,2.3-2.7,3.4l-2.4-2.3c1-0.9,1.9-2,2.9-3.1L426.1,342.3z"/>
	<path style="fill:#FF6600;" d="M407.5,365.8v-3.2h7.3c-0.4-0.3-0.8-0.8-1.4-1.5c-0.2-0.3-0.4-0.4-0.5-0.5c0.7-0.2,1.8-0.6,3.4-1.1
		c1.8,2,3.5,3.5,5.3,4.4v-4.1h2.8v5.5c0.3,0.1,0.6,0.2,1.2,0.4c0.3,0.1,0.5,0.2,0.7,0.2l-0.2,3.6c-0.5-0.2-1.1-0.4-1.6-0.6v9.6h-2.8
		v-10.8c-0.2-0.1-0.5-0.3-0.8-0.5l-0.2-0.1v9.7h-10.2c-1.9,0.2-2.9-0.8-2.8-3c-0.1-0.9-0.1-2.1-0.1-3.5c1-0.2,1.9-0.4,2.6-0.7
		c0,0.9,0,1.8,0,2.6c-0.1,0.9,0.3,1.4,1.1,1.4v-7.8H407.5z M414.5,365.8h-0.9v7.8h0.9V365.8z M418,365.8h-1v7.8h1V365.8z"/>
	<path style="fill:#FF6600;" d="M425.8,395.1c-0.3,0.1-0.7,0.2-1.4,0.4c-0.6,0.2-1.1,0.3-1.4,0.4v2.3h-2.5v-2.9H419v2.7h-2.5v-2.7
		h-1.6v2.7h-2.5v-2.7h-1.6v3h-2.3v-8h-1.1v-2.9h3.1l-1.3-2.1c0.3-0.3,0.8-0.6,1.6-1c0.6-0.3,1-0.5,1.2-0.7c-1.4-0.7-2.7-1.7-4.1-3
		c0.5-0.2,1.1-0.5,1.9-0.8c0.6-0.2,1-0.4,1.2-0.5c1.2,1.1,2.5,1.9,3.9,2.6c0.4-0.3,1-0.6,1.9-1.1c1.1-0.7,2-1.2,2.7-1.6l1.4,2.2
		c-0.9,0.6-1.8,1.1-2.7,1.6c1.1,0.3,2.3,0.5,3.6,0.5v-3.8h2.8v6.8c-1.7-0.1-3.3-0.2-4.7-0.5c1.8,1.1,3.9,2,6.3,2.6l-0.5,3.1
		c-1-0.3-1.9-0.6-2.8-0.9v1.9c0.8-0.2,1.6-0.4,2.5-0.7L425.8,395.1z M412.4,390.3h-1.6v2.2h1.6V390.3z M415.8,386.6
		c1-0.2,1.9-0.4,2.7-0.7c-1.1-0.2-2.2-0.4-3.3-0.9c-0.6,0.3-1.4,0.8-2.3,1.4c-0.8,0.5-1.4,0.8-1.7,1h5.8
		C416.6,387.2,416.2,386.9,415.8,386.6z M416.5,390.3h-1.6v2.2h1.6V390.3z M420.5,390.3H419v2.2h1.5V390.3z"/>
	<path style="fill:#FF6600;" d="M426.1,412.4l-0.5,2.9c-0.9-0.2-1.9-0.5-2.8-0.9v4h-2.7v-0.7c-3.2-0.2-5.7-0.8-7.6-1.7
		c-0.7,0.7-1.5,1.5-2.3,2.4c-1-0.5-1.9-1-2.7-1.4c0.8-1.1,1.6-2,2.4-2.7c-0.9-0.9-1.8-1.9-2.7-3c0.8-0.5,1.5-0.9,2.2-1.4V407h-0.9
		v-2.6h9.2v1.7h2.3v-1.9h2.7v1.9h3.2v2.9h-3.2v1.6h-2.5C422,411.4,423.9,412,426.1,412.4z M407.6,403.6v-2.7h8
		c-0.6-0.3-1.1-0.6-1.6-0.9c1.4-0.2,2.8-0.4,4.1-0.6c1.9,0.9,4.5,1.7,7.9,2.6l-0.5,2.9c-1.4-0.4-2.7-0.8-3.9-1.2H407.6z
		 M412.6,412.7c1.2-0.5,2.7-0.9,4.3-1.2c-0.1-0.1-0.2-0.1-0.3-0.2c-0.2-0.2-0.3-0.3-0.4-0.3c0.2-0.1,0.4-0.1,0.7-0.2
		c0.3-0.1,0.4-0.2,0.5-0.2h-6.9C411.2,411.4,411.9,412.1,412.6,412.7z M415.1,407h-3.3v1.1h3.3V407z M420.1,413.5
		c-1.9,0.1-3.4,0.3-4.7,0.8c1.2,0.4,2.8,0.6,4.7,0.8V413.5z M419.1,410.1c0.3,0.2,0.6,0.3,0.9,0.4V409h-2.3v1.5
		C418.2,410.3,418.7,410.2,419.1,410.1z"/>
	<path style="fill:#FF6600;" d="M411.6,437.7c-2.5,0-3.8-1.1-3.8-3.4c-0.1-0.9-0.1-2.1-0.1-3.6c0.2-0.1,0.5-0.1,0.9-0.2
		c0.6-0.1,1.3-0.3,2.1-0.5c-0.1,0.6-0.1,1.6-0.1,2.8c-0.1,1.1,0.4,1.7,1.6,1.7c0.5,0,1.6,0,3.3,0c2.2,0.1,3.7,0.1,4.6,0.1v-2.7
		c-0.8-0.3-1.6-0.7-2.4-1.1c0.4-0.8,0.9-1.6,1.3-2.4h-11.3v-3h1.1v-2.3h-1.2v-3h15.4v2.2c1,0.3,2,0.4,2.9,0.5l-0.4,3.4
		c-0.2-0.1-0.4-0.1-0.6-0.2c-0.6-0.1-1.2-0.3-1.9-0.5v2.8h-3.3c2.2,1,4.3,1.8,6.2,2.3l-0.7,3.1c-0.3-0.1-0.6-0.2-1.1-0.3
		c-0.5-0.2-0.9-0.3-1.2-0.4v4.8C417.5,437.8,413.6,437.8,411.6,437.7z M414.5,423.1h-2.7v2.3h2.7V423.1z M418.1,431.6
		c-0.6,0.5-1.5,1.1-2.7,2c-0.5,0.4-0.9,0.6-1.2,0.9l-1.7-2.7c1.7-1.1,3-2,4-2.7L418.1,431.6z M420.2,423.1h-2.7v2.3h2.7V423.1z"/>
	<path style="fill:#FF6600;" d="M407.5,449.4v-3h9.5c-0.3-0.2-0.7-0.5-1-0.8c0.2,0,0.5,0,0.8-0.1c0.4-0.1,0.6-0.1,0.8-0.2
		c-1.1,0-2,0-2.7,0c-0.2-0.4-0.3-0.8-0.3-1.2H410c-1.5,0.1-2.3-0.6-2.3-2c-0.1-0.7-0.2-1.4-0.2-2.2c0.1,0,0.2,0,0.4-0.1
		c0.7-0.1,1.5-0.3,2.4-0.5v1.2c0,0.5,0.3,0.7,0.8,0.6h2.6c-0.2-0.5-0.3-1.1-0.5-1.7l3.3-0.2c0,0.1,0,0.2,0.1,0.4
		c0.1,0.4,0.2,0.9,0.3,1.6h3.3v-1.6h2.8v1.6h3.1v2.9h-3.1v1.3h-2.3c1.4,0.9,3.2,1.6,5.6,2.3l-0.4,3.3c-0.3-0.1-0.8-0.3-1.4-0.5
		c-0.7-0.3-1.2-0.4-1.5-0.5v2.3c0.8-0.3,1.7-0.5,2.6-0.9l0.3,3.1c-0.2,0.1-0.4,0.1-0.7,0.2c-0.5,0.2-1.2,0.4-2.2,0.6v2.7h-2.5v-3.1
		h-1.6v2.9h-2.5v-2.9h-1.5v2.9h-2.5v-2.9h-1.6v3.3h-2.3v-8.8H407.5z M412.4,449.4h-1.6v2.5h1.6V449.4z M416.4,449.4h-1.5v2.5h1.5
		V449.4z M417.6,444.2c0.1,0.3,0.2,0.7,0.2,1.1c0.6-0.1,1.2-0.2,1.8-0.4c0.2,0.2,0.3,0.3,0.5,0.3v-1H417.6z M420.5,449.4h-1.6v2.5
		h1.6V449.4z"/>
	<path style="fill:#FF6600;" d="M417.3,464.5c-2.5,0-4.4-0.2-5.8-0.5c-1.2-0.3-2.6-0.9-4.1-1.8c0.7-0.9,1.5-1.9,2.2-3
		c1.1,0.8,2.1,1.3,3.1,1.6c0.9,0.2,2.5,0.3,4.6,0.3h6.7v6.8c0.4-0.1,1-0.3,1.8-0.5c0.2-0.1,0.3-0.1,0.3-0.1l0.2,4.2
		c-0.2,0.1-0.6,0.2-1.1,0.3c-0.6,0.1-1,0.2-1.2,0.2v6.1h-3.1v-13.6H417.3z"/>
</g>
<g>
	<defs>
		<rect id="SVGID_1_" x="206.3" y="153.8" width="279.2" height="95.6"/>
	</defs>
	<clipPath id="SVGID_2_">
		<use xlink:href="#SVGID_1_"  style="overflow:visible;"/>
	</clipPath>
</g>
<circle style="fill:none;stroke:#D8D8D8;" cx="607.1" cy="185.6" r="4.2"/>
<circle style="fill:none;stroke:#D8D8D8;" cx="727.8" cy="185.6" r="4.2"/>
<g>
	<defs>
		<rect id="SVGID_3_" x="528.3" y="298" width="272.1" height="300"/>
	</defs>
	<clipPath id="SVGID_4_">
		<use xlink:href="#SVGID_3_"  style="overflow:visible;"/>
	</clipPath>
</g>
<g>
	<defs>
		<rect id="SVGID_5_" x="7.4" y="249.6" width="310.2" height="348.8"/>
	</defs>
	<clipPath id="SVGID_6_">
		<use xlink:href="#SVGID_5_"  style="overflow:visible;"/>
	</clipPath>
</g>
<g>
	<g id="形状_2_copy_3_副本_4_13_">
		<g>
			<path style="fill-rule:evenodd;clip-rule:evenodd;fill:#CCCCCC;" d="M42.6,241.9c-1.7,3.3-3.2,6.3-5,9.8H40
				c0.4-0.8,0.7-1.3,1.2-2.3c1.2,0,2.2,0,3.4,0c-0.3-0.7-0.4-1.3-0.6-1.9h-1.9c0.6-1.1,0.9-1.7,1.7-3.3c0.9,2.6,1.8,5.1,2.6,7.4h2.2
				c-1.2-3.4-2.3-6.4-3.4-9.8H42.6z M49.2,251.7h2.1l0.4-9.8l-2,0L49.2,251.7z M52.4,251.7h2.2l0.3-7.3h-2.1L52.4,251.7z
				 M52.9,241.9l-0.1,1.6c0,0,1.6,0,2.1,0l0.1-1.6C53.1,241.9,53.1,241.9,52.9,241.9z M66.2,244.4c-0.4-0.1-0.8-0.2-1.2-0.2
				c-0.2,0-0.5,0-0.7,0.1c-0.2,0-0.4,0.1-0.6,0.2c-0.2,0.1-0.3,0.2-0.5,0.3c-0.1,0.1-0.3,0.2-0.4,0.3c-0.1,0.1-0.2,0.3-0.3,0.4
				c-0.1-0.2-0.2-0.4-0.3-0.5c-0.1-0.1-0.2-0.2-0.3-0.3c-0.1-0.1-0.3-0.2-0.4-0.3c-0.2-0.1-0.3-0.1-0.5-0.2c-0.2,0-0.4-0.1-0.6-0.1
				c-0.3,0-0.6,0-0.8,0.1c-0.3,0.1-0.5,0.2-0.7,0.3c-0.2,0.1-0.4,0.2-0.5,0.4c-0.1,0.1-0.3,0.3-0.4,0.5l0.1-1.2H56l-0.3,7.3
				c0,0,1.6,0,2,0c0-0.6,0-1.5,0.1-2.5c0.1-1.1,0.1-1.8,0.3-2.1c0.1-0.4,0.3-0.7,0.6-0.9c0.3-0.2,0.5-0.3,0.9-0.3
				c0.2,0,0.3,0,0.5,0.1c0.1,0.1,0.3,0.2,0.4,0.3c0.1,0.1,0.2,0.3,0.2,0.4c0,0.1,0.1,0.3,0.1,0.5c0,0.4,0,1.2-0.1,2.3
				c-0.1,1.1-0.1,1.9-0.1,2.3c0.4,0,1.7,0,2,0l0-2c0-0.7,0.1-1.3,0.1-1.7c0-0.4,0.1-0.8,0.2-1c0.1-0.2,0.2-0.5,0.4-0.6
				c0.2-0.2,0.3-0.3,0.5-0.4c0.2-0.1,0.4-0.1,0.6-0.1c0.2,0,0.4,0,0.6,0.1c0.2,0.1,0.3,0.2,0.4,0.4c0.1,0.2,0.2,0.4,0.2,0.8
				c0,0.3,0,0.6,0,1.1l-0.1,1.6c0,0.7-0.1,1.3-0.1,1.9c0.4,0,1.7,0,2,0c0-0.5,0-1.3,0.1-2.3c0-1,0.1-1.7,0.1-2.2c0-0.4,0-0.8,0-1
				c0-0.4-0.1-0.8-0.3-1.1C66.8,244.8,66.6,244.6,66.2,244.4z M73.9,244.4c-0.4-0.1-0.9-0.2-1.4-0.2c-0.5,0-0.9,0-1.4,0.1
				c-0.5,0.1-1.7,0.3-1.7,0.3l-0.2,1.4c0,0,2-0.6,2.9-0.6c0.2,0,0.4,0,0.6,0.1c0.2,0,0.4,0.1,0.5,0.3c0.1,0.1,0.2,0.3,0.2,0.5
				c0,0.1,0,0.2-0.1,0.3c0,0.1-0.1,0.2-0.2,0.3c-0.1,0.1-0.2,0.2-0.3,0.2c-0.1,0.1-0.3,0.1-0.5,0.2c-0.2,0.1-0.4,0.1-0.6,0.1
				c-0.7,0.1-1.2,0.3-1.7,0.4c-0.4,0.1-0.7,0.3-1,0.4c-0.2,0.2-0.4,0.3-0.5,0.5c-0.1,0.2-0.2,0.4-0.3,0.6c-0.1,0.2-0.1,0.4-0.1,0.6
				c0,0.4,0.1,0.7,0.3,1.1c0.2,0.4,0.5,0.6,0.9,0.8c0.4,0.2,0.9,0.2,1.5,0.2c0.2,0,0.4,0,0.6,0c0.2,0,0.5,0,0.8-0.1
				c0.1-0.5,0.3-0.9,0.4-1.2c-0.3,0.1-0.5,0.2-0.7,0.2c-0.2,0-0.3,0-0.5,0c-0.2,0-0.4,0-0.6-0.1c-0.2-0.1-0.3-0.2-0.4-0.3
				c-0.1-0.1-0.2-0.3-0.2-0.5c0-0.1,0-0.2,0.1-0.3c0-0.1,0.1-0.2,0.2-0.3c0.1-0.1,0.2-0.2,0.4-0.3c0.1-0.1,0.3-0.1,0.5-0.2
				c0.2-0.1,0.4-0.1,0.7-0.2c0.3-0.1,0.5-0.1,0.6-0.2c0.1,0,0.2-0.1,0.3-0.1c0.1,0,0.2-0.1,0.4-0.3l-0.2,3.8h2c0,0,0.1-2.3,0.1-3.5
				c0.1-1.1,0.1-1.8,0.1-2.1c0-0.5-0.1-0.9-0.4-1.2C74.7,244.7,74.4,244.5,73.9,244.4z M86.7,244.4c-0.4-0.1-0.8-0.2-1.2-0.2
				c-0.2,0-0.5,0-0.7,0.1c-0.2,0-0.4,0.1-0.6,0.2c-0.2,0.1-0.3,0.2-0.5,0.3c-0.1,0.1-0.3,0.2-0.4,0.3c-0.1,0.1-0.2,0.3-0.3,0.4
				c-0.1-0.2-0.2-0.4-0.3-0.5c-0.1-0.1-0.2-0.2-0.3-0.3c-0.1-0.1-0.3-0.2-0.4-0.3c-0.2-0.1-0.3-0.1-0.5-0.2c-0.2,0-0.4-0.1-0.6-0.1
				c-0.3,0-0.6,0-0.8,0.1c-0.3,0.1-0.5,0.2-0.7,0.3c-0.2,0.1-0.4,0.2-0.5,0.4c-0.1,0.1-0.3,0.3-0.4,0.5l0.1-1.2h-1.9l-0.3,7.3h2
				c0,0,0-1.5,0.1-2.5c0.1-1.1,0.1-1.8,0.3-2.1c0.1-0.4,0.3-0.7,0.6-0.9c0.3-0.2,0.5-0.3,0.9-0.3c0.2,0,0.3,0,0.5,0.1
				c0.1,0.1,0.3,0.2,0.4,0.3c0.1,0.1,0.2,0.3,0.2,0.4c0,0.1,0.1,0.3,0.1,0.5c0,0.4,0,1.2-0.1,2.3c-0.1,1.1-0.1,1.9-0.1,2.3
				c0.4,0,1.7,0,2,0l0-2c0-0.7,0.1-1.3,0.1-1.7c0-0.4,0.1-0.8,0.2-1c0.1-0.2,0.2-0.5,0.3-0.6c0.2-0.2,0.3-0.3,0.5-0.4
				c0.2-0.1,0.4-0.1,0.6-0.1c0.2,0,0.4,0,0.6,0.1c0.2,0.1,0.3,0.2,0.4,0.4c0.1,0.2,0.2,0.4,0.2,0.8c0,0.3,0,0.6,0,1.1l-0.1,1.6
				c0,0.7-0.1,1.3-0.1,1.9c0.4,0,1.7,0,2,0c0-0.5,0-1.3,0.1-2.3c0-1,0.1-1.7,0.1-2.2c0-0.4,0.1-0.8,0.1-1c0-0.4-0.1-0.8-0.3-1.1
				C87.4,244.8,87.1,244.6,86.7,244.4z M94.5,244.4c-0.4-0.1-0.9-0.2-1.4-0.2c-0.5,0-0.9,0-1.4,0.1c-0.5,0.1-1.7,0.3-1.7,0.3
				l-0.2,1.4c0,0,2-0.6,2.9-0.6c0.2,0,0.4,0,0.6,0.1c0.2,0,0.4,0.1,0.5,0.3c0.1,0.1,0.2,0.3,0.2,0.5c0,0.1,0,0.2-0.1,0.3
				c0,0.1-0.1,0.2-0.2,0.3c-0.1,0.1-0.2,0.2-0.3,0.2c-0.1,0.1-0.3,0.1-0.5,0.2c-0.2,0.1-0.4,0.1-0.6,0.1c-0.7,0.1-1.2,0.3-1.7,0.4
				c-0.4,0.1-0.7,0.3-1,0.4c-0.2,0.2-0.4,0.3-0.5,0.5c-0.1,0.2-0.2,0.4-0.3,0.6c-0.1,0.2-0.1,0.4-0.1,0.6c0,0.4,0.1,0.7,0.3,1.1
				c0.2,0.4,0.5,0.6,0.9,0.8c0.4,0.2,0.9,0.2,1.5,0.2c0.2,0,0.4,0,0.6,0c0.2,0,0.5,0,0.8-0.1c0.1-0.5,0.3-0.9,0.4-1.2
				c-0.3,0.1-0.5,0.2-0.7,0.2c-0.2,0-0.3,0-0.5,0c-0.2,0-0.4,0-0.6-0.1c-0.2-0.1-0.3-0.2-0.4-0.3c-0.1-0.1-0.2-0.3-0.2-0.5
				c0-0.1,0-0.2,0.1-0.3c0-0.1,0.1-0.2,0.2-0.3c0.1-0.1,0.2-0.2,0.4-0.3c0.1-0.1,0.3-0.1,0.5-0.2c0.2-0.1,0.4-0.1,0.7-0.2
				c0.3-0.1,0.5-0.1,0.6-0.2c0.1,0,0.2-0.1,0.3-0.1c0.1,0,0.2-0.1,0.4-0.3l-0.2,3.8h2c0,0,0.1-2.3,0.1-3.5c0.1-1.1,0.1-1.8,0.1-2.1
				c0-0.5-0.1-0.9-0.4-1.2C95.2,244.7,94.9,244.5,94.5,244.4z M96.7,249.8c0,0.9-0.1,1.6-0.1,1.9c0.7,0,2,0,2,0s0.1-1.6,0.1-1.9
				C98.2,249.8,96.7,249.8,96.7,249.8z M102.1,246.4c0.2-0.2,0.5-0.4,0.7-0.5c0.3-0.1,0.6-0.2,0.9-0.2c0.5,0,1.2,0.1,1.9,0.4
				l-0.1-1.6c-0.5-0.1-0.8-0.2-1.2-0.2c-0.3,0-0.7-0.1-1-0.1c-0.6,0-1.1,0.1-1.5,0.2c-0.5,0.1-0.9,0.4-1.2,0.7
				c-0.4,0.4-0.7,0.8-0.8,1.4c-0.2,0.6-0.3,1.1-0.3,1.7c0,0.5,0.1,0.9,0.2,1.3c0.1,0.4,0.3,0.8,0.5,1.1c0.2,0.3,0.5,0.5,0.8,0.7
				c0.3,0.2,0.6,0.3,1,0.4c0.4,0.1,0.7,0.1,1.1,0.1c0.7,0,1.3-0.1,2-0.2c0.1-0.4,0.1-0.7,0.2-0.9c0-0.2,0.1-0.5,0.1-0.7
				c-0.3,0.1-0.7,0.2-1,0.3c-0.3,0.1-0.6,0.1-0.8,0.1c-0.4,0-0.8-0.1-1.2-0.3c-0.3-0.2-0.6-0.4-0.7-0.8c-0.1-0.3-0.2-0.7-0.2-1.2
				c0-0.3,0-0.6,0.1-1C101.7,246.9,101.9,246.6,102.1,246.4z M113,245.2c-0.4-0.3-0.8-0.6-1.3-0.7c-0.5-0.2-1-0.2-1.6-0.2
				c-0.6,0-1.2,0.1-1.7,0.3c-0.6,0.2-1,0.5-1.4,0.9c-0.4,0.4-0.6,0.8-0.8,1.3c-0.2,0.5-0.3,1-0.3,1.5c0,0.5,0.1,1,0.3,1.5
				c0.2,0.5,0.5,0.9,0.8,1.2c0.4,0.3,0.8,0.6,1.3,0.7c0.5,0.2,1,0.2,1.6,0.2c0.6,0,1.2-0.1,1.7-0.3c0.5-0.2,1-0.5,1.3-0.8
				c0.4-0.4,0.6-0.8,0.8-1.3c0.2-0.5,0.3-1,0.3-1.6c0-0.5-0.1-1-0.3-1.5C113.6,245.9,113.4,245.5,113,245.2z M111.8,249.2
				c-0.2,0.4-0.4,0.7-0.7,0.9c-0.3,0.2-0.7,0.3-1.1,0.3c-0.4,0-0.8-0.1-1.1-0.3c-0.3-0.2-0.5-0.5-0.6-0.8c-0.1-0.3-0.2-0.7-0.2-1.1
				c0-0.5,0.1-0.9,0.2-1.3c0.2-0.4,0.4-0.7,0.7-0.9c0.3-0.2,0.7-0.3,1.1-0.3c0.4,0,0.8,0.1,1.1,0.3c0.3,0.2,0.5,0.5,0.6,0.8
				c0.1,0.3,0.2,0.7,0.2,1.1C112,248.4,111.9,248.8,111.8,249.2z M125.9,245.1c-0.2-0.3-0.5-0.5-0.9-0.6c-0.4-0.1-0.8-0.2-1.2-0.2
				c-0.2,0-0.5,0-0.7,0.1c-0.2,0-0.4,0.1-0.6,0.2c-0.2,0.1-0.3,0.2-0.5,0.3c-0.1,0.1-0.3,0.2-0.4,0.3c-0.1,0.1-0.2,0.3-0.3,0.4
				c-0.1-0.2-0.2-0.4-0.3-0.5c-0.1-0.1-0.2-0.2-0.3-0.3c-0.1-0.1-0.3-0.2-0.4-0.3c-0.2-0.1-0.3-0.1-0.5-0.2c-0.2,0-0.4-0.1-0.6-0.1
				c-0.3,0-0.6,0-0.8,0.1c-0.3,0.1-0.5,0.2-0.7,0.3c-0.2,0.1-0.4,0.2-0.5,0.4c-0.1,0.1-0.3,0.3-0.4,0.5l0.1-1.2c-0.3,0-1.5,0-1.9,0
				c0,0.8-0.3,6.5-0.3,7.3c0.4,0,1.6,0,2,0c0-0.6,0-1.5,0.1-2.5c0.1-1.1,0.1-1.8,0.3-2.1c0.1-0.4,0.3-0.7,0.6-0.9
				c0.3-0.2,0.5-0.3,0.9-0.3c0.2,0,0.3,0,0.5,0.1c0.1,0.1,0.3,0.2,0.4,0.3c0.1,0.1,0.2,0.3,0.2,0.4c0,0.1,0,0.3,0,0.5
				c0,0.4,0,1.2-0.1,2.3c-0.1,1.1-0.1,1.9-0.1,2.3c0.4,0,1.7,0,2,0l0-2c0-0.7,0.1-1.3,0.1-1.7c0-0.4,0.1-0.8,0.2-1
				c0.1-0.2,0.2-0.5,0.3-0.6c0.2-0.2,0.3-0.3,0.5-0.4c0.2-0.1,0.4-0.1,0.6-0.1c0.2,0,0.4,0,0.6,0.1c0.2,0.1,0.3,0.2,0.4,0.4
				c0.1,0.2,0.2,0.4,0.2,0.8c0,0.3,0,0.6,0,1.1l-0.1,1.6c0,0.7-0.1,1.3-0.1,1.9c0.4,0,1.7,0,2,0c0-0.5,0-1.3,0.1-2.3
				c0-1,0.1-1.7,0.1-2.2c0-0.4,0-0.8,0-1C126.2,245.7,126.1,245.4,125.9,245.1z"/>
		</g>
	</g>
	<g id="形状_2_copy_3_副本_5_13_">
		<g>
			<path style="fill-rule:evenodd;clip-rule:evenodd;fill:#FF6600;" d="M46.3,221.5c3,0,6.1,0,9.1,0c0,4.5,0,9.2,0,13.5
				c0,0.3-0.3,0.7-0.7,0.7c-0.5,0-0.7,0-1.3,0v2.2c0.7,0,1.3,0,2,0c1.8,0,2.9-0.9,2.9-2.3c0-3.5,0-10.4,0-14h1.1v-2.1H46.3V221.5z
				 M92.9,231.3c-0.8,0-2.1,0.8-2.1,2.1c2.6,0,6.9-0.1,9.7-0.1c0,0.5,0,1.1,0,1.8c1,0,0.6,0,1.6,0c0.6,0,1.3-0.5,1.3-1.4
				c0-2.3,0-4.1,0-6.5c-0.4,0-0.9,0-1.3,0c0-1.8,0-5.4,0-6.7c0-0.5-0.5-1.1-1.2-1.1h-9.6v2.1h7.4c0,1.9,0,3.8,0,5.7
				c-1.8,0-2,0-3.5,0c-0.2,0-0.4-0.2-0.4-0.4c0-1,0-2.5,0-3.8c0-0.3-0.3-0.6-0.8-0.6h-2.2v5.1c0,1,0.9,1.8,1.8,1.8c0,0,3.7,0,6.9,0
				v1.9H92.9z M54.1,231.9c0-2.4,0-5.8,0-9.1h-7.6v11.6c2.2,0,5,0,5,0C53.4,234.4,54.1,233.3,54.1,231.9z M50.8,232.2
				c-0.5,0-1.1,0-1.9,0V225c0.8,0,1.8,0,2.6,0c0,2.2,0,4.6,0,6.5C51.5,232,51.3,232.2,50.8,232.2z M37.8,219.9c0,4.2,0,9.6,0,17.9
				h2.8c0-5.2,0-10.9,0-16.3c0.7,0,1.4,0,2.1,0c0,3.1,0,5.9,0,8.9c0,1.2-1.1,1.6-1.1,1.6v2.3c2,0,3.7-2,3.7-3.9c0-3.4,0-7.7,0-11
				c-2.5,0-4.5,0-7,0C37.8,219.4,37.8,219.9,37.8,219.9z M125.3,227.3c0-1.8,0-5.4,0-6.7c0-0.5-0.5-1.1-1.2-1.1h-9.6v2.1
				c2.4,0,4.9,0,7.4,0v5.7c-1.8,0-2,0-3.5,0c-0.2,0-0.4-0.2-0.4-0.4c0-1,0-2.5,0-3.8c0-0.3-0.3-0.6-0.8-0.6c-0.6,0-1.5,0-2.2,0v5.1
				c0,1,0.9,1.8,1.8,1.8c0,0,3.7,0,6.9,0v1.9h-7.5c-0.8,0-2.2,0.7-2.2,2.1c2.6,0,6.8,0,9.7,0v2c0,0.3-0.3,0.5-0.6,0.5h-1.1
				c0,1,0,1.5,0,2.1h1.7c0.5,0,0.4,0,0.9,0c1.4,0,2-1,2-1.8c0-2.6,0-6.1,0-8.8C126.1,227.3,125.7,227.3,125.3,227.3z M111.7,234.4
				c1-1.1,1.6-2.4,1.7-5c0-2.8,0-5.4,0-8.1c0-0.2-0.3-0.5-0.6-0.5c-1.1,0-2.4,0-3.6,0v-1.3h-2.8c0,0.4,0,0.8,0,1.3
				c-0.3,0-0.7,0-0.9,0v2.1h0.9v6.6c0,2.5,0.8,3.8,1.9,5c-1.2,0.8-2.5,1.4-4.2,1.4c-0.2,0-0.5,0-0.7,0c-2.6,0-5.8,0-8.6,0
				c-2.6,0-5.2-0.5-6.1-1.6c0.9-1.2,1.4-2.2,1.7-4.8c0-2.5,0-4.7,0-8c0-0.4-0.4-0.7-0.7-0.7c-1.1,0-2.2,0-3.6,0v-1.3
				c-1.2,0-1.6,0-2.7,0v1.3c-0.3,0-0.5,0-0.9,0v2.1c0.4,0,0.6,0,0.9,0c0,2.2,0,4.6,0,6.6c0.2,2.5,1,3.4,2,4.9
				c-1.4,1-3.2,1.4-5.2,1.5c-2.4,0-4.6,0-7.6,0c0-0.5,0-1.3,0-1.6h7.6v-2.2h-7.6c0-0.5,0-1.1,0-1.6c2.2,0,5.1,0,5.7,0
				c0,0,1.9,0,1.9-2c0-2.1,0-6,0-8.8c-6,0-12.1,0-18.1,0c-0.3,0-0.6,0.3-0.6,0.5c0,0.4,0,7.2,0,10.3c2.5,0,5.1,0,7.6,0v1.6h-7.6
				c0,0.7,0,1.5,0,2.2H69c0,0.5,0,1.1,0,1.6h-8.9c0,0.6,0,1.4,0,2.1c6.7,0,14.9,0,21.4,0c1.7,0,3.9-0.9,5.5-1.8
				c2,1.5,4.1,1.8,7.7,1.8c1.1,0,2.3,0,3.6,0c1.9,0,3.5,0,5,0c3,0,4.9-0.6,6.8-1.7c1.7,1,3.3,1.7,6,1.7v0h4v-2.1h-4
				C114.4,235.6,112.9,235.3,111.7,234.4z M69,228.2h-4.7V226H69V228.2z M69,223.7h-4.7v-2.2c1.6,0,3.1,0,4.7,0V223.7z M72.5,221.5
				h4.7v2.2h-4.7V221.5z M72.5,226c1.6,0,3.1,0,4.7,0c0,0.9,0,1.6,0,2.2h-4.7C72.5,227.6,72.5,226.7,72.5,226z M87.6,229.4
				c-0.1,1.5-0.3,1.8-0.7,2.8c-0.4-0.9-0.8-1.3-0.9-2.8c0-1.9,0-4.6,0-6.6h1.6V229.4z M110.8,229.4c-0.1,1.4-0.4,2-0.7,2.8
				c-0.4-0.7-0.8-1.5-0.8-2.8c0-2,0-4.5,0-6.6h1.6C110.8,224.9,110.8,227.3,110.8,229.4z"/>
		</g>
	</g>
</g>
<g>
	<path style="fill:#FFFFFF;" d="M592.8,228.6h-2.9l4.4-8.5h3.2l4.2,8.5h-3.2l-0.6-1.5h-4.4L592.8,228.6z M597.1,225.2l-1.4-3.1
		l-1.4,3.1H597.1z"/>
	<path style="fill:#FFFFFF;" d="M602.1,228.6v-8.5h2.7v8.5H602.1z"/>
	<path style="fill:#FFFFFF;" d="M606.5,221.8v-1.7h2.7v1.7H606.5z M606.5,228.6v-5.9h2.7v5.9H606.5z"/>
	<path style="fill:#FFFFFF;" d="M610.8,220.1h2.7v3.4c0.3-0.3,0.7-0.6,1.1-0.8c0.4-0.2,0.8-0.3,1.3-0.3c0.9,0,1.7,0.3,2.2,0.9
		c0.6,0.6,0.8,1.4,0.8,2.4c0,0.9-0.3,1.6-0.8,2.2c-0.6,0.5-1.3,0.8-2.2,0.8c-0.5,0-1-0.1-1.4-0.3c-0.4-0.2-0.8-0.5-1.1-0.8
		c0,0.2,0,0.4,0,0.5c0,0.2,0,0.3-0.1,0.4h-2.7c0-0.1,0.1-0.3,0.1-0.4c0-0.2,0-0.4,0-0.6V220.1z M616.3,225.6c0-0.5-0.1-0.9-0.4-1.2
		c-0.2-0.3-0.6-0.5-1-0.5c-0.5,0-0.8,0.1-1,0.4c-0.2,0.3-0.4,0.7-0.4,1.3c0,0.5,0.1,0.9,0.4,1.2c0.2,0.3,0.6,0.4,1,0.4
		c0.4,0,0.8-0.1,1-0.4C616.1,226.6,616.3,226.1,616.3,225.6z"/>
	<path style="fill:#FFFFFF;" d="M625.1,227.7c-0.3,0.3-0.6,0.6-1,0.8c-0.4,0.2-0.9,0.2-1.5,0.2c-0.8,0-1.5-0.1-1.9-0.4
		c-0.5-0.3-0.7-0.7-0.7-1.3c0-0.7,0.4-1.3,1.2-1.6c0.8-0.3,2.1-0.5,3.9-0.5c0,0,0,0,0-0.1c0,0,0-0.1,0-0.1c0-0.3-0.1-0.5-0.3-0.7
		c-0.2-0.1-0.5-0.2-0.8-0.2c-0.3,0-0.6,0.1-0.8,0.2c-0.2,0.1-0.3,0.3-0.3,0.5h-2.5c0-0.7,0.3-1.1,0.9-1.5c0.6-0.3,1.5-0.5,2.8-0.5
		c1.2,0,2.1,0.2,2.7,0.6c0.6,0.4,0.9,0.9,0.9,1.7v3c0,0.2,0,0.3,0,0.5c0,0.1,0,0.2,0.1,0.3h-2.5c-0.1-0.1-0.1-0.3-0.1-0.4
		C625.1,228,625.1,227.9,625.1,227.7z M625,226c-0.9,0-1.5,0.1-1.8,0.2c-0.3,0.1-0.5,0.3-0.5,0.6c0,0.2,0.1,0.3,0.2,0.5
		c0.2,0.1,0.4,0.2,0.7,0.2c0.5,0,0.8-0.1,1-0.3C624.9,226.9,625,226.5,625,226L625,226z"/>
	<path style="fill:#FFFFFF;" d="M629.2,220.1h2.7v3.4c0.3-0.3,0.7-0.6,1.1-0.8c0.4-0.2,0.8-0.3,1.3-0.3c0.9,0,1.7,0.3,2.2,0.9
		c0.6,0.6,0.8,1.4,0.8,2.4c0,0.9-0.3,1.6-0.8,2.2c-0.6,0.5-1.3,0.8-2.2,0.8c-0.5,0-1-0.1-1.4-0.3c-0.4-0.2-0.8-0.5-1.1-0.8
		c0,0.2,0,0.4,0,0.5c0,0.2,0,0.3-0.1,0.4h-2.7c0-0.1,0.1-0.3,0.1-0.4c0-0.2,0-0.4,0-0.6V220.1z M634.7,225.6c0-0.5-0.1-0.9-0.4-1.2
		c-0.2-0.3-0.6-0.5-1-0.5c-0.5,0-0.8,0.1-1,0.4c-0.2,0.3-0.4,0.7-0.4,1.3c0,0.5,0.1,0.9,0.4,1.2c0.2,0.3,0.6,0.4,1,0.4
		c0.4,0,0.8-0.1,1-0.4C634.5,226.6,634.7,226.1,634.7,225.6z"/>
	<path style="fill:#FFFFFF;" d="M643.5,227.7c-0.3,0.3-0.6,0.6-1,0.8c-0.4,0.2-0.9,0.2-1.5,0.2c-0.8,0-1.5-0.1-1.9-0.4
		c-0.5-0.3-0.7-0.7-0.7-1.3c0-0.7,0.4-1.3,1.2-1.6c0.8-0.3,2.1-0.5,3.9-0.5c0,0,0,0,0-0.1c0,0,0-0.1,0-0.1c0-0.3-0.1-0.5-0.3-0.7
		c-0.2-0.1-0.5-0.2-0.8-0.2c-0.3,0-0.6,0.1-0.8,0.2c-0.2,0.1-0.3,0.3-0.3,0.5h-2.5c0-0.7,0.3-1.1,0.9-1.5c0.6-0.3,1.5-0.5,2.8-0.5
		c1.2,0,2.1,0.2,2.7,0.6c0.6,0.4,0.9,0.9,0.9,1.7v3c0,0.2,0,0.3,0,0.5c0,0.1,0,0.2,0.1,0.3h-2.5c-0.1-0.1-0.1-0.3-0.1-0.4
		C643.5,228,643.5,227.9,643.5,227.7z M643.4,226c-0.9,0-1.5,0.1-1.8,0.2c-0.3,0.1-0.5,0.3-0.5,0.6c0,0.2,0.1,0.3,0.2,0.5
		c0.2,0.1,0.4,0.2,0.7,0.2c0.5,0,0.8-0.1,1-0.3C643.3,226.9,643.4,226.5,643.4,226L643.4,226z"/>
	<path style="fill:#FFFFFF;" d="M654.6,225.3v-1h3.6v3.1c-0.6,0.4-1.1,0.8-1.7,1c-0.6,0.2-1.2,0.3-1.8,0.3c-0.8,0-1.6-0.2-2.3-0.5
		c-0.7-0.4-1.2-0.9-1.5-1.5c-0.3-0.7-0.5-1.4-0.5-2.3c0-0.8,0.2-1.6,0.5-2.3c0.3-0.7,0.8-1.2,1.5-1.6c0.6-0.3,1.4-0.5,2.2-0.5
		c0.6,0,1.2,0.1,1.7,0.3c0.5,0.2,0.9,0.5,1.2,0.8c0.3,0.4,0.5,0.8,0.6,1.4l-1,0.3c-0.1-0.4-0.3-0.8-0.5-1c-0.2-0.2-0.5-0.4-0.8-0.6
		c-0.3-0.1-0.7-0.2-1.2-0.2c-0.5,0-1,0.1-1.3,0.2c-0.4,0.2-0.7,0.4-0.9,0.6c-0.2,0.3-0.4,0.5-0.5,0.8c-0.2,0.5-0.3,1.1-0.3,1.7
		c0,0.8,0.1,1.4,0.4,1.9c0.3,0.5,0.6,0.9,1.1,1.1c0.5,0.2,1,0.4,1.6,0.4c0.5,0,1-0.1,1.4-0.3c0.5-0.2,0.8-0.4,1-0.6v-1.6H654.6z"/>
	<path style="fill:#FFFFFF;" d="M659.7,228.6v-6.1h0.9v0.9c0.2-0.4,0.5-0.7,0.7-0.9c0.2-0.1,0.4-0.2,0.7-0.2c0.4,0,0.7,0.1,1.1,0.3
		l-0.4,1c-0.3-0.1-0.5-0.2-0.8-0.2c-0.2,0-0.4,0.1-0.6,0.2c-0.2,0.1-0.3,0.3-0.4,0.6c-0.1,0.4-0.2,0.8-0.2,1.2v3.2H659.7z"/>
	<path style="fill:#FFFFFF;" d="M663.4,225.5c0-1.1,0.3-2,0.9-2.5c0.5-0.5,1.2-0.7,1.9-0.7c0.8,0,1.5,0.3,2.1,0.8
		c0.5,0.6,0.8,1.3,0.8,2.3c0,0.8-0.1,1.4-0.4,1.9c-0.2,0.5-0.6,0.8-1,1.1c-0.5,0.2-0.9,0.4-1.5,0.4c-0.9,0-1.6-0.3-2.1-0.8
		C663.7,227.3,663.4,226.5,663.4,225.5z M664.5,225.5c0,0.8,0.2,1.4,0.5,1.8c0.3,0.4,0.8,0.6,1.3,0.6c0.5,0,0.9-0.2,1.3-0.6
		c0.3-0.4,0.5-1,0.5-1.8c0-0.8-0.2-1.3-0.5-1.7c-0.3-0.4-0.8-0.6-1.3-0.6c-0.5,0-0.9,0.2-1.3,0.6
		C664.6,224.1,664.5,224.7,664.5,225.5z"/>
	<path style="fill:#FFFFFF;" d="M674.5,228.6v-0.9c-0.5,0.7-1.1,1-1.9,1c-0.4,0-0.7-0.1-1-0.2c-0.3-0.1-0.5-0.3-0.7-0.5
		c-0.2-0.2-0.3-0.5-0.3-0.8c0-0.2-0.1-0.5-0.1-1v-3.8h1v3.4c0,0.5,0,0.9,0.1,1.1c0.1,0.3,0.2,0.5,0.4,0.6c0.2,0.2,0.5,0.2,0.8,0.2
		c0.3,0,0.6-0.1,0.9-0.2c0.3-0.2,0.5-0.4,0.6-0.7c0.1-0.3,0.2-0.7,0.2-1.2v-3.3h1v6.1H674.5z"/>
	<path style="fill:#FFFFFF;" d="M677.3,230.9v-8.5h0.9v0.8c0.2-0.3,0.5-0.5,0.8-0.7c0.3-0.2,0.6-0.2,1-0.2c0.5,0,1,0.1,1.4,0.4
		c0.4,0.3,0.7,0.6,0.9,1.1c0.2,0.5,0.3,1,0.3,1.6c0,0.6-0.1,1.2-0.3,1.7c-0.2,0.5-0.6,0.9-1,1.2c-0.4,0.3-0.9,0.4-1.3,0.4
		c-0.3,0-0.7-0.1-0.9-0.2c-0.3-0.1-0.5-0.3-0.7-0.5v3H677.3z M678.2,225.5c0,0.8,0.2,1.4,0.5,1.7c0.3,0.4,0.7,0.6,1.2,0.6
		c0.5,0,0.9-0.2,1.2-0.6c0.3-0.4,0.5-1,0.5-1.8c0-0.8-0.2-1.4-0.5-1.8c-0.3-0.4-0.7-0.6-1.1-0.6c-0.4,0-0.8,0.2-1.2,0.6
		C678.4,224.2,678.2,224.8,678.2,225.5z"/>
</g>
<path style="fill-rule:evenodd;clip-rule:evenodd;fill:#FFFFFF;" d="M562.9,236.2c-0.2,0-0.4-0.2-0.6-0.3c-1.6-1.6,0.5-3.4,2.8-4.4
	v-3c0.6,0.4,0.9,0.4,0.9,0.4l1.8-1.8l-0.6-1.6c5.3-1.8,7.5-2.5,11.8-3.3l-0.8-0.7l1.3-0.7c2.9,1,5.7,1.2,5.2,3.7
	c0.1-1.7-1.9-2.3-5.1-3.2l-0.6,0.4l1.2,1c-5.2,0.9-8.4,1.9-12.2,3.2l0.5,1.4l-1.9,1.9c0.3,0.1,3.6,1.2,7.1-1.2c0,0,0.1-0.1,0.1-0.1
	c-0.1-0.2-0.3-0.4-0.6-0.6c1,0.1,1.7,1,1.6,1.9h-0.5c0-0.3,0-0.6-0.1-0.8c-2.7,2-5.8,2.2-8.4,1.3v2.3c-1.3,0.5-3.6,1.9-3.6,3.2
	C562.3,235.8,562.6,236,562.9,236.2z"/>
<path style="fill-rule:evenodd;clip-rule:evenodd;fill:#FFFFFF;" d="M573.8,235.6c-2.9,1.5-5.6,2.6-9.9,2.8
	c-5.5-0.1-6.4-3.8-3.8-7.6c2.5-3.9,6.4-7.4,12.6-9.5c1.8-0.6,4.5-1.4,7-1.4c3.7,0,7.3,1.1,7,4.6c-0.1,2.7-4,6.5-6.1,9.3
	c-0.9,1.2-1,2,0.5,1.9c5.5-0.4,10.4-2.2,15-4.2c-3.1,2.1-19.2,10.1-19.2,4.6c0-0.7,0.3-1.4,0.9-2.2c0.5-0.8,1.2-1.6,1.9-2.4
	c1.1-1.2,3.8-4.2,4.7-6c1.5-3.4-1.9-3.6-4.9-4.6l-1.3,0.7l0.8,0.7c-4.3,0.7-6.5,1.4-11.8,3.3l0.6,1.6l-1.8,1.8
	c-0.1-0.1-0.3-0.1-0.9-0.4v3c-2.4,1-4.4,2.9-2.8,4.4c0.2,0.1,0.4,0.3,0.6,0.3l0,0C565.8,237.8,573.8,235.6,573.8,235.6z"/>
<g>
	<path style="fill:#FFFFFF;" d="M590.8,236.9h0.4c0.1,0,0.1,0,0.2,0c0,0,0.1,0,0.1-0.1c0,0,0-0.1,0-0.1c0-0.1,0-0.1-0.1-0.2
		c0,0-0.1-0.1-0.2-0.1h-0.4V236.9z M590.6,237.7v-1.3h0.6c0.1,0,0.2,0,0.3,0c0.1,0,0.1,0.1,0.1,0.1c0,0.1,0.1,0.1,0.1,0.2
		c0,0.1,0,0.2-0.1,0.2c-0.1,0.1-0.2,0.1-0.3,0.1c0,0,0.1,0,0.1,0.1c0,0,0.1,0.1,0.1,0.2l0.2,0.4h-0.2l-0.2-0.3
		c-0.1-0.1-0.1-0.1-0.1-0.2c0,0-0.1-0.1-0.1-0.1c0,0-0.1,0-0.1,0c0,0-0.1,0-0.1,0h-0.2v0.6H590.6"/>
	<path style="fill-rule:evenodd;clip-rule:evenodd;fill:#FFFFFF;" d="M591.1,238.3c0.7,0,1.3-0.6,1.3-1.3c0-0.7-0.6-1.3-1.3-1.3
		c-0.7,0-1.3,0.6-1.3,1.3C589.9,237.8,590.4,238.3,591.1,238.3z M590.1,237.1c0-0.6,0.5-1.1,1.1-1.1c0.6,0,1.1,0.5,1.1,1.1
		c0,0.6-0.5,1.1-1.1,1.1C590.5,238.1,590.1,237.7,590.1,237.1"/>
</g>
<g>
	<g>
		<path style="fill-rule:evenodd;clip-rule:evenodd;fill:#FFFFFF;" d="M602.2,231.4v7.2c0.5,0,1.1-0.5,1.1-1v-0.4h0.6
			c0.4,0,0.9-0.6,0.9-0.9c0-0.7,0-0.9,0-1.6c0-0.3-0.3-0.5-0.5-0.6c0.2-0.1,0.5-0.4,0.5-0.7c0-0.9,0-1.2,0-2.1H602.2z M603.6,233.8
			c0,0.1-0.1,0.3-0.2,0.4c0,0-0.1,0.1-0.1,0.1c0,0,0,0,0,0h0.3v2.1h-0.4c0-1.4,0-2.7,0-4.1h0.4V233.8z M607.6,236.1v-3.2h-2.5v4.4
			h1.3c0.2,0,0.4-0.1,0.6-0.2c0.1-0.1,0.2-0.2,0.3-0.3C607.5,236.6,607.6,236.3,607.6,236.1z M606.6,236.5h-0.5v-2.7h0.5V236.5z
			 M604.8,231.4v0.9h3.1v5.4v1c0.3,0,1.1-0.3,1.1-1v-5.3c0.2,0,0.4-0.6,0.4-0.9H604.8z"/>
		<path style="fill-rule:evenodd;clip-rule:evenodd;fill:#FFFFFF;" d="M614.1,237.8v-0.7h2.1c0.3,0,0.6-0.5,0.8-0.8h-2.9v-0.6h1.6
			c0.5,0,1.2-0.6,1.2-1v-3.4h-6.9v4.3h2.8v0.6h-2.8v0.8h2.8v0.7H610v0.8h6.5c0.3,0,0.5-0.5,0.7-0.8H614.1z M614.1,234h0.6
			c0.1,0,0.2,0,0.2-0.1c0.1-0.1,0.6-0.7,0.7-0.7h-1.4v-0.9h1.6v2.7h-1.6V234z M612.9,234.9h-1.5V234h1.5V234.9z M612.9,233.2h-1.5
			v-0.9h0.8h0.8V233.2z"/>
		<path style="fill-rule:evenodd;clip-rule:evenodd;fill:#FFFFFF;" d="M619.2,237.7v-2h4.4c0.4,0,1.1-0.7,1.1-1v-3.3h-6.8v6.2
			c0,0.5,0.3,1,0.9,1c0.4,0,4.8,0,5.2,0c0.4,0,0.9-0.6,0.9-0.9H619.2z M623.5,234.7H622v-2.4h1.5V234.7z M619.2,232.4h1.5v2.4h-1.5
			V232.4z"/>
		<path style="fill-rule:evenodd;clip-rule:evenodd;fill:#FFFFFF;" d="M627.1,237.7v-2h4.4c0.4,0,1.1-0.7,1.1-1v-3.3h-6.8v6.2
			c0,0.5,0.3,1,0.9,1c0.4,0,4.8,0,5.2,0c0.4,0,0.9-0.6,0.9-0.9H627.1z M631.4,234.7h-1.5v-2.4h1.5V234.7z M627.1,232.4h1.5v2.4h-1.5
			V232.4z"/>
	</g>
	<g>
		<path style="fill:#FFFFFF;" d="M637.3,236.2V236h0.5v0.2h3.1c0,0-0.1,0.4-0.8,0.4c-0.7,0-2.3,0-2.3,0s0,0.8,0,1.1
			c0,0.8-0.5,1-0.5,1v-2h-3.7v-0.4H637.3z"/>
		<path style="fill:#FFFFFF;" d="M635.1,237.3h0.6c0,0-0.6,0.7-0.7,0.9c-0.2,0.2-0.4,0.5-0.7,0.5c-0.2,0-0.2,0-0.2,0L635.1,237.3z"
			/>
		<path style="fill:#FFFFFF;" d="M639.8,237.3h-0.6c0,0,0.6,0.7,0.7,0.9c0.2,0.2,0.4,0.5,0.7,0.5c0.2,0,0.2,0,0.2,0L639.8,237.3z"/>
		<g>
			<path style="fill:#FFFFFF;" d="M640.2,232.1c0.7,0,0.8-0.4,0.8-0.4h-3.1l0.2-0.3h-0.5l-0.3,0.3h-2.1l0.3-0.3H635l-1.3,1.7h0.6
				v2.3c0,0,0.1,0,0.1,0c0.8,0,0.9-0.1,0.9-0.1s4.3,0,4.9,0c0.7,0,0.7-0.4,0.7-0.4h-3.1v-0.7c0,0,1.7,0,2.4,0c0.6,0,0.8-0.4,0.8-0.4
				h-3.1v-0.7c0,0,1.7,0,2.4,0c0.6,0,0.8-0.4,0.8-0.4h-3.1v-0.6C637.9,232.1,639.8,232.1,640.2,232.1z M637.3,235h-2.6v-0.7h2.6V235
				z M637.3,233.9h-2.6v-0.6h2.6V233.9z M637.3,232.8h-2.6l0-0.2l0.1-0.2l0.2-0.2h2.3V232.8z"/>
		</g>
	</g>
	<path style="fill:#FFFFFF;" d="M642.4,231.5v7.3h6.1c0.5,0,0.6-0.4,0.6-0.9v-6.4H642.4z M648.7,237.8c0,0.3-0.1,0.5-0.4,0.5h-5.4
		v-6.4h5.8V237.8z"/>
	<path style="fill:#FFFFFF;" d="M645.3,234.6l-1.5,2.8c0,0,0.5,0.1,0.8-0.4l1.3-2.4L645.3,234.6z"/>
	<path style="fill:#FFFFFF;" d="M647.1,236.8c0,0.2-0.1,0.2-0.2,0.2h-0.5v0.4h0.7c0.4,0,0.5-0.1,0.5-0.6c0,0,0-2.7,0-2.7
		c0.5,0,0.5-0.4,0.5-0.4l-0.5,0v-0.9h-0.5v0.9h-3.5v0.5h3.5V236.8z"/>
</g>
<g>
	<defs>
		<rect id="SVGID_7_" x="531.7" y="263" width="276.8" height="334"/>
	</defs>
	<clipPath id="SVGID_8_">
		<use xlink:href="#SVGID_7_"  style="overflow:visible;"/>
	</clipPath>
	<g style="clip-path:url(#SVGID_8_);">
		<path style="fill-rule:evenodd;clip-rule:evenodd;fill:#FFFFFF;" d="M639.8,647.3c0.1-7.6-6.1-11.4-11.4-14.8
			c-5.3-3.3-31.9-15-31.9-40.8c0-13.2,3.6-31.1,20.8-56.5c12.5-18.5,21.3-34.5,27.7-47.9c-17.1,7.3-33,16.8-41.6,22.7
			c-10.9,7.5-14.3,13-17.8,16.1c-4.8,4.3-11.8,8.4-13.9,6.7c-4.6-3.6,5.1-5.8,4.7-8.7c-0.8-5.4-18.2,6.8-20.8,2.5
			c-2.8-4.7,4.9-7,4.9-7s-2.8,0-3.7-0.7c-0.8-0.7-1.3-2.3-0.5-3.2c1.8-1.9,7.2-2,12.5-3.3c4-1,10.2-3,11.9-3.9
			c10.5-3.1,22.9-14.9,45.5-35.2c13.5-13.3,27.1-20.8,32.4-23.4c0.7-2.8,1.1-5.1,1.4-6.9c-1.9-1.8-3.8-3.9-6.2-6
			c-9.1-8.1-13.5-15-13.4-15.2c-10.8-16.4-6.5-42.9-4.6-49.1c1.4-4.4,2.7-10.2,4.3-15.8c-8.4-3-51.8-21.3-41.3-82.9
			c1.1-5.4,8.9-0.5,8.9-0.5s14.9,8.2,30.6,28.1c-1.7-10.2,0.1-18,0.1-18c0.6-1,1.4-0.8,2.1-0.5c25,11.7,32.9,33.6,35.3,44.8
			c0.1,0,0.1,0,0.2,0h0c3.3-13.4,12.6-33.9,35.5-45c1-0.5,2.1-0.7,2.5,0.9c0,0,1.6,7.4,0.1,17.3c15.6-19.5,30.1-27.5,30.1-27.5
			s7.9-5,8.9,0.5c10.6,61.7-32.8,80-41.2,83c1.5,5.6,2.7,11.4,4.1,15.8c2,6.2,6.3,32.7-4.6,49.1c0.1,0.1-3.7,5.8-12.4,14.4
			c-2.2,2.2-4.2,4.3-6.2,6.1c0.3,1.9,0.8,4.6,1.6,7.9c4.5,2.2,19,9.7,33.4,23.9c22.5,20.3,35,32.1,45.5,35.2
			c1.7,0.9,7.8,2.9,11.9,3.9c5.3,1.3,10.8,1.4,12.5,3.3c0.9,1,0.4,2.6-0.5,3.2c-0.8,0.7-3.7,0.7-3.7,0.7s7.7,2.3,4.9,7
			c-2.5,4.3-20-7.9-20.8-2.5c-0.4,2.9,9.3,5.1,4.7,8.7c-2.1,1.6-9-2.4-13.9-6.7c-3.5-3.1-6.9-8.6-17.8-16.1c-8.7-6-25-15.7-42.4-23
			c6.3,13.3,15.1,29.1,27.4,47.3c17.2,25.4,20.8,43.3,20.8,56.5c0,25.8-26.6,37.4-31.9,40.8c-5.3,3.3-11.5,7.2-11.4,14.8
			c0.1,4-1.5,6.6,6.5,7.2c3.8,0.3,61.7-2.9,75.6,4.2c11.1,5.7,10.9,16.1,6.8,17.9c-7.4,3.2-33.3,3-49,1.9
			c-14.6-0.9-48.6-5.2-54.4-6.8c-12.2-3.4-5.3-10.9-4.1-16.4c1.2-5.6,1.8-11.2,1.5-17.3c-0.1-2-0.2-5.8-3.8-5.7
			c-3.9,1.2-7.5,1.8-10.9,2.2c0,0,0,0-0.1,0c-0.3,0-0.5,0.1-0.8,0.1c-0.2,0-0.4,0-0.6,0c-0.2,0-0.4,0-0.5,0c-0.3,0-0.5,0-0.8,0
			c-0.1,0-0.3,0-0.4,0c-0.3,0-0.5,0-0.8,0c-0.1,0-0.3,0-0.4,0c-0.2,0-0.4,0-0.6,0c-0.2,0-0.4,0-0.6,0c-0.1,0-0.3,0-0.4,0
			c-0.3,0-0.5,0-0.8,0c-0.1,0-0.3,0-0.4,0c-0.3,0-0.5,0-0.8,0c-0.2,0-0.4,0-0.5,0c-0.2,0-0.4,0-0.6,0c-0.3,0-0.5,0-0.8-0.1
			c0,0,0,0-0.1,0c-3.4-0.3-7-1-10.9-2.2c-3.6-0.2-3.7,3.6-3.8,5.7c-0.3,6.1,0.3,11.7,1.5,17.3c1.2,5.5,8.1,13-4.1,16.4
			c-5.8,1.6-36.8,6-51.4,6.7c-14,0.6-38.4,2.2-50.1-2c-4.2-1.5-6.1-12.1,4.9-17.7c13.9-7.1,71.5-3.5,75.3-3.6
			C641,655,639.7,651.4,639.8,647.3z"/>
	</g>
</g>
<g>
	<defs>
		<rect id="SVGID_9_" x="80.3" y="-13" width="169" height="200.2"/>
	</defs>
	<clipPath id="SVGID_10_">
		<use xlink:href="#SVGID_9_"  style="overflow:visible;"/>
	</clipPath>
	<path style="clip-path:url(#SVGID_10_);fill:none;stroke:#D8D8D8;" d="M222,169.6c0,90-27.4,163-61.2,163s-61.2-73-61.2-163
		c0-90,27.4-163,61.2-163C192.8,6.6,222,79.6,222,169.6z"/>
</g>
<g>
	<defs>
		<rect id="SVGID_11_" x="587.3" y="-13" width="169" height="200"/>
	</defs>
	<clipPath id="SVGID_12_">
		<use xlink:href="#SVGID_11_"  style="overflow:visible;"/>
	</clipPath>
	<path style="clip-path:url(#SVGID_12_);fill:none;stroke:#D8D8D8;" d="M728.9,169.4c0,90-27.4,163-61.2,163
		c-33.8,0-61.2-73-61.2-163c0-90,27.4-163,61.2-163C699.8,6.4,728.9,79.3,728.9,169.4z"/>
</g>
<g>
	<defs>
		<rect id="SVGID_13_" x="9.4" y="206.6" width="301.7" height="389.5"/>
	</defs>
	<clipPath id="SVGID_14_">
		<use xlink:href="#SVGID_13_"  style="overflow:visible;"/>
	</clipPath>
	<g style="clip-path:url(#SVGID_14_);">
		<g>
			<g id="形状_13_7_">
				<g>
					<path style="fill:#FF9B48;" d="M149.1,444.7c0,0-17.1,7.3-34,24.1c-22,19.9-34.2,31.4-44.4,34.4c-1.7,0.9-7.7,2.9-11.6,3.8
						c-5.2,1.3-10.5,1.3-12.3,3.3c-0.9,1-0.4,2.5,0.4,3.2c0.8,0.7,3.6,0.7,3.6,0.7s-7.5,2.2-4.8,6.9c2.5,4.2,19.5-7.8,20.3-2.5
						c0.4,2.8-9.1,5-4.6,8.5c2,1.6,8.8-2.4,13.6-6.6c3.5-3.1,6.7-8.4,17.4-15.8c8.6-6,24.8-15.6,42.1-22.8
						C173.3,465.9,149.1,444.7,149.1,444.7z"/>
				</g>
			</g>
			<g id="形状_14_7_">
				<g>
					<path style="fill:#CC7123;" d="M58.1,509.8c-0.8,0.8-2.9,2-3.9,2.7c-2.1,1.3-4,1.7-4,1.7s0.5,0.1,1.4-0.1
						c2.5-0.7,5.7-2.1,7.2-3.3C59.9,509.8,59.3,508.7,58.1,509.8z"/>
				</g>
			</g>
			<g id="形状_13_5_">
				<g>
					<path style="fill-rule:evenodd;clip-rule:evenodd;fill:#FF9B48;" d="M281.9,514.2c0,0,2.8,0,3.6-0.7c0.8-0.7,1.3-2.2,0.4-3.2
						c-1.7-1.9-7.1-2-12.3-3.3c-3.9-1-9.9-3-11.6-3.8c-10.3-3-22.4-14.6-44.4-34.4c-16.9-16.7-35.2-24.2-35.2-24.2
						s-23,21.3,15.5,37.4c17.2,7.2,33.4,16.8,42.1,22.8c10.7,7.4,13.9,12.7,17.4,15.8c4.7,4.2,11.6,8.2,13.6,6.6
						c4.5-3.5-5-5.7-4.6-8.5c0.7-5.3,17.8,6.7,20.3,2.5C289.4,516.5,281.9,514.2,281.9,514.2z"/>
				</g>
			</g>
			<g id="形状_14_5_">
				<g>
					<path style="fill-rule:evenodd;clip-rule:evenodd;fill:#CC7123;" d="M278.6,512.4c-1-0.6-3.1-1.9-3.9-2.7c-1.2-1.1-1.8,0-0.7,1
						c1.5,1.3,4.7,2.7,7.2,3.3c0.9,0.2,1.4,0.1,1.4,0.1S280.7,513.7,278.6,512.4z"/>
				</g>
			</g>
			
				<radialGradient id="SVGID_15_" cx="169.3307" cy="483.1851" r="79.6906" gradientTransform="matrix(1 0 0 0.9295 0 34.0433)" gradientUnits="userSpaceOnUse">
				<stop  offset="0" style="stop-color:#FFC07D"/>
				<stop  offset="0.5713" style="stop-color:#FEB162"/>
				<stop  offset="1" style="stop-color:#FEA852"/>
			</radialGradient>
			<path style="fill-rule:evenodd;clip-rule:evenodd;fill:url(#SVGID_15_);" d="M286.3,666.8c-11.5,4.1-35.3,2.6-49,2
				c-14.3-0.6-44.6-5-50.2-6.5c-12-3.3-5.2-10.7-4-16.1c1.2-5.5,1.8-11,1.5-17c-0.1-2-0.2-5.7-3.7-5.5c-3.8,1.1-7.4,1.8-10.7,2.1
				c0,0,0,0-0.1,0c-0.3,0-0.5,0.1-0.8,0.1c-0.2,0-0.4,0-0.6,0c-0.2,0-0.3,0-0.5,0c-0.3,0-0.5,0-0.8,0c-0.1,0-0.3,0-0.4,0
				c-0.3,0-0.5,0-0.8,0c-0.1,0-0.3,0-0.4,0c-0.2,0-0.4,0-0.6,0c-0.2,0-0.4,0-0.6,0c-0.1,0-0.3,0-0.4,0c-0.3,0-0.5,0-0.8,0
				c-0.1,0-0.3,0-0.4,0c-0.3,0-0.5,0-0.8,0c-0.2,0-0.3,0-0.5,0c-0.2,0-0.4,0-0.6,0c-0.3,0-0.5,0-0.8-0.1c0,0,0,0-0.1,0
				c-3.3-0.3-6.9-1-10.7-2.1c-3.5-0.2-3.6,3.6-3.7,5.5c-0.3,6,0.3,11.5,1.5,17c1.1,5.4,7.9,12.8-4,16.1c-5.6,1.6-38.9,5.7-53.1,6.6
				c-15.3,1-40.6,1.2-47.9-1.9c-4-1.7-4.2-12,6.6-17.5c13.6-7,70.1-3.9,73.8-4.1c7.9-0.6,6.3-3.1,6.4-7c0.1-7.4-6-11.2-11.1-14.4
				c-5.2-3.3-31.1-14.7-31.1-39.9c0-13,3.6-30.5,20.3-55.4c40.8-60.6,42.3-94.5,42.3-94.5l3.3-0.1c0.1-0.6,0.2-1,0.2-1l12.1,0.5
				l12.1-0.5c0,0,0.1,0.3,0.2,1l3.3,0.1c0,0,1.5,33.8,42.3,94.5c16.8,24.9,20.3,42.4,20.3,55.4c0,25.2-25.9,36.6-31.1,39.9
				c-5.2,3.3-11.3,7.1-11.1,14.4c0.1,4-1.2,7.5,6.6,7.7c3.7,0.1,60-3.5,73.6,3.5C292.3,654.9,290.4,665.3,286.3,666.8z"/>
			<path style="fill-rule:evenodd;clip-rule:evenodd;fill:#DD7528;" d="M57.1,653.8c-11.8,3.1-10.4,8.6-8.7,13
				c0.2,0.5,0.5,1.1,0.8,1.6c0.7,0.1,1.4,0.2,2.2,0.3c-4.1-9.4,1.8-12.4,7-14.2C60.7,653.7,58.8,653.4,57.1,653.8z"/>
			<path style="fill-rule:evenodd;clip-rule:evenodd;fill:#DD7528;" d="M71.5,653.4c-10.1,2.3-8.6,10.8-7,14.8
				c0.2,0.5,0.4,0.9,0.6,1.2c0.7,0,1.3,0,2,0c-2.9-8.7,0.8-12.4,3.8-14.4C72.5,653.9,75.2,652.6,71.5,653.4z"/>
			<path style="fill-rule:evenodd;clip-rule:evenodd;fill:#DD7528;" d="M279.8,668.4c0.1-0.4,0.3-0.8,0.4-1.2
				c1.3-4.3-0.1-11.9-8.4-14c-4.6-1.1-2.6,0.9-0.6,1.6c4.9,1.6,7.5,7.5,5.3,14.1C277.7,668.7,278.7,668.5,279.8,668.4z"/>
			<path style="fill-rule:evenodd;clip-rule:evenodd;fill:#DD7528;" d="M264.3,668.3c2.4-5.3,0.3-13.1-5.4-15.3
				c-2.3-0.6-0.1,1.4,1.5,3.1c2.2,2.3,3.3,7.8,1.4,12c-0.3,0.6-0.5,1-0.6,1.4c0.8,0,1.6,0,2.5,0
				C263.9,669.2,264.1,668.8,264.3,668.3z"/>
			<g id="形状_12_3_">
				<g>
					
						<linearGradient id="SVGID_16_" gradientUnits="userSpaceOnUse" x1="168.7099" y1="494.6831" x2="167.4707" y2="383.1577" gradientTransform="matrix(1 0 0 1 -3 58.1852)">
						<stop  offset="0" style="stop-color:#FFC28A"/>
						<stop  offset="0.7938" style="stop-color:#FFCD9F"/>
						<stop  offset="1" style="stop-color:#FFD0A5"/>
					</linearGradient>
					<path style="fill-rule:evenodd;clip-rule:evenodd;fill:url(#SVGID_16_);" d="M184.5,479.6c-8.5-13.9-29.5-12.5-37.8,1
						c-10,16.3-22.1,60.6-13.5,85.8c7.1,20.8,56.5,22.2,64.1,2.2C207.6,542,193.5,494.3,184.5,479.6z"/>
				</g>
			</g>
			<path style="opacity:0.6;fill-rule:evenodd;clip-rule:evenodd;fill:#DD7528;" d="M107.6,544.1c0,0,22.9,5.7,59.7,5.7
				c34.7,0,41.1-2,59.3-6.2C227.1,544.1,170.6,642.3,107.6,544.1z"/>
			<g id="形状_11_拷贝_2_3_">
				<g>
					<path style="fill-rule:evenodd;clip-rule:evenodd;fill:#FFBF80;" d="M225.1,544.1c-0.5,0.3-1,0.5-1.5,0.7
						c-16.8,7.5-36.8,9.9-52.4,10.3c-15.4,0.1-38.2-1.3-57-8.7c-1.6-0.7-4-1.4-5.6-2.2c-4.3-2.1-5.2,3.3-5.1,6.4
						c0.2,13.5,3.2,56.1,41.8,70.5c1.6,1,6.3,3.4,15.9,3.9c3.1,0.5,6.7,0.4,10.2-0.1c0.4,0,0.8,0,1.1-0.1c5.8-0.6,11-2,15.7-4
						c0.3-0.1,0.5-0.2,0.5-0.2v0c29.4-13,37.6-50.5,40-68.7c0.2-1.4,0.3-2.6,0.4-3.7C229.9,543.5,226.6,543.3,225.1,544.1z"/>
				</g>
			</g>
			<path style="opacity:0.6;fill-rule:evenodd;clip-rule:evenodd;fill:#DD7528;" d="M180.8,434.1c-4.5,2.7-10.7,6.4-14.2,6.9
				c-5.2,0.8-11.1-0.1-17-6.8c0,0.5-0.2,2.8-1,6.8c1.7,5.4,5.3,11.2,13.1,12.1c9.1,1.1,16-6.3,20.1-12.7c-0.8-4.2-0.9-6.3-0.9-6.3
				L180.8,434.1z"/>
			<g id="形状_9_3_">
				<g>
					<path style="fill-rule:evenodd;clip-rule:evenodd;fill:#FFC07D;" d="M149,331.3c-19.4-42.7-49-59.1-49-59.1s-7.7-4.9-8.7,0.4
						c-11.4,66.8,41.6,81.7,41.6,81.7S168.4,374,149,331.3z"/>
				</g>
			</g>
			<g id="形状_10_3_">
				<g>
					<path style="fill-rule:evenodd;clip-rule:evenodd;fill:#FF9B48;" d="M143,341.2c-7.3-32.8-34.7-44.1-34.7-44.1s-5.7-4-5.8,1.6
						c2.3,42.1,37.4,48.8,37.4,48.8S144.6,348.8,143,341.2z"/>
				</g>
			</g>
			<g id="形状_9_拷贝_3_">
				<g>
					<path style="fill:#FFC07D;" d="M242.1,272.6c-1.1-5.3-8.7-0.4-8.7-0.4s-29.7,16.4-49.1,59.1c-19.4,42.6,16.1,23,16.1,23
						S253.5,339.4,242.1,272.6z"/>
				</g>
			</g>
			<g id="形状_10_拷贝_3_">
				<g>
					<path style="fill:#FF9B48;" d="M225.1,297c0,0-27.4,11.3-34.7,44.1c-1.6,7.6,3.1,6.3,3.1,6.3s35.1-6.7,37.4-48.8
						C230.8,293,225.1,297,225.1,297z"/>
				</g>
			</g>
			<g id="脸_7_">
				<g>
					
						<radialGradient id="SVGID_17_" cx="169.7829" cy="380.7057" r="51.4689" gradientTransform="matrix(0.9999 1.315258e-02 -9.151512e-03 0.6957 0.4987 171.7872)" gradientUnits="userSpaceOnUse">
						<stop  offset="0" style="stop-color:#FECD97"/>
						<stop  offset="1" style="stop-color:#FFC07A"/>
					</radialGradient>
					<path style="fill:url(#SVGID_17_);" d="M206,369.3c-1.9-6.1-3.7-14.9-6.3-22.2c-5.7-16.4-19-21.9-33.1-21.6
						c-14.2,0.2-27.7,6.3-33.1,21.7c-2.5,7.3-4.1,16.1-6,22.2c-1.9,6.1-6.1,32,4.5,48.1c-0.1,0.1,4.5,5.7,13,14.1
						c6.9,6.9,10.9,12.6,19.8,13.2c0.1,0,0.1,0,0.2,0c0.1,0,0.1,0,0.2,0c0.7,0,1.5,0,2.3,0c0.1,0,0.3,0,0.4-0.1
						c11-0.7,14.6-7.6,21.5-13.8c8.9-8,12.3-13.4,12.2-13.5C212.1,401.4,207.9,375.4,206,369.3z"/>
				</g>
			</g>
			<path style="fill-rule:evenodd;clip-rule:evenodd;fill:#66361F;" d="M166.3,374.5c-0.1,0.1,15.4-4.5,22-21.3
				c0-0.4,7,12.6,18.2,17.7c-0.2-0.7-0.3-1.2-0.5-1.7c-1.7-7.3-3.2-14.3-5.7-21.6c-5.7-16.4-19.5-22.5-33.6-22.2
				c-14.2,0.2-27.7,6.3-33.1,21.7c-2.5,7.3-4.8,16.7-6,22.2c-0.1,0.3-0.2,0.6-0.3,0.9c3.8-0.6,10.6-3.6,17-16.3
				C144,354.1,147.3,365.3,166.3,374.5z"/>
			<path style="fill-rule:evenodd;clip-rule:evenodd;fill:#E5432E;" d="M204,362.2c-0.7-2.8-1.5-5.7-2.3-8.6
				c-5.5-7.2-16.9-18.6-34.6-18.4c-20.4,0.2-30.4,11.1-35.4,18.1c-0.7,2.7-1.4,5.4-2,8c4.8-5,17.6-15.9,37.4-15.8
				C184.9,345.5,197.5,356.1,204,362.2z"/>
			<g id="形状_3_拷贝_3_">
				<g>
					<path style="fill-rule:evenodd;clip-rule:evenodd;fill:#E5432E;" d="M203.4,282.1c-0.6-1-1.4-0.7-2-0.4
						c-24.8,11.6-32.3,33.4-34.6,44.3c-3.2-13.1-12.2-33.4-34.8-44.5c-0.9-0.5-2-0.7-2.5,0.9c0,0-8.1,36.6,29.1,55.3
						c-7.7,5.9-15.9,13.5,7.9,3.5c25.8,10.8,15.1,2,7.7-3.5C211.6,319,203.4,282.1,203.4,282.1z"/>
				</g>
			</g>
			<g id="形状_73_3_">
				<g>
					<path style="fill-rule:evenodd;clip-rule:evenodd;fill:#AD4023;" d="M165.6,321.5c0,0-1.6,3.8-1.4,8.4c0.3,5.4,1.6,8,1.7,5.9
						c0-1.5,0.7-7,1.1-10C167,325,165.6,321.5,165.6,321.5z"/>
				</g>
			</g>
			<g id="形状_82_3_">
				<g>
					<path style="fill-rule:evenodd;clip-rule:evenodd;fill:#CA4825;" d="M182.6,338.2c-1-0.5-5-2.2-5.6-1.8
						c-3.5,2.2-7.1,5.9-2.1,4.7C178.5,340.2,183.7,338.7,182.6,338.2z M156.6,336.5c-1.3-0.4-5.8,1.6-5.8,1.6s1.7,0.9,3.8,1.5
						c2.1,0.6,6.6,2.3,6.2,0.9C160.5,339.2,158.6,337.1,156.6,336.5z"/>
				</g>
			</g>
			<path style="fill-rule:evenodd;clip-rule:evenodd;fill:#FFCE99;" d="M150.5,393.8c-4.2-10.4-10.7-12.6-15.1-11.8
				c-8.3,1.5-9.4,5.7-9.4,5.5c0.1-0.2-0.2-7.5,6.9-9.3c6.4-1.6,12.9,1,15.7,5.4c2.6,4,2.3,10.2,2.3,10.2"/>
			<path style="fill-rule:evenodd;clip-rule:evenodd;fill:#FFCE99;" d="M182.4,393.8c4.2-10.4,10.7-12.6,15.1-11.8
				c8.3,1.5,9.4,5.7,9.4,5.5c-0.1-0.2,0.2-7.5-6.9-9.3c-6.4-1.6-12.9,1-15.7,5.4c-2.6,4-2.3,10.2-2.3,10.2"/>
			<g id="形状_4_7_">
				<g>
					<path style="fill:#FFFFFF;" d="M140.5,382.8c-3.4-1.6-10.5-0.8-13.4,1.6c0,0-4.2,17.4,11,19c7.6,0.3,12-3.7,12.7-8
						C151.6,390.6,144.4,384.7,140.5,382.8z"/>
				</g>
			</g>
			<g id="形状_6_7_">
				<g>
					<path style="fill-rule:evenodd;clip-rule:evenodd;fill:#512A15;" d="M147.9,386.9c0-0.1-3.9-5.4-9-6.6c-1.9-0.5-6,0.5-6,0.5
						s-6.2,5.1-1.6,13.6c2.7,4.5,6.9,6.4,10.7,6c4.6-0.5,7.3-3.8,7.7-7.4C150.1,389.4,147.9,386.9,147.9,386.9z"/>
				</g>
			</g>
			<g id="形状_48_3_">
				<g>
					<path style="fill:#FFFFFF;" d="M135.5,393.3c-0.2-1.4-4.7-1.6-5.7,0.3c-0.7,1.4,0.1,3,1.2,3.3
						C133.2,397.4,135.8,395.3,135.5,393.3z"/>
				</g>
			</g>
			<g id="形状_36_副本_7_">
				<g>
					<path style="fill-rule:evenodd;clip-rule:evenodd;fill:#A85726;" d="M146,372.7c-5.6-2.4-11.5-1.6-10.5,0.7
						c0.4,1,3.2-0.7,7.8,0.7c6.2,2,6,5.5,7.5,5.1C153.4,378.5,149.2,374.1,146,372.7z"/>
				</g>
			</g>
			<g id="形状_4_5_">
				<g>
					<path style="fill:#FFFFFF;" d="M206.3,384.4c-2.8-2.4-9.9-2.9-13.4-1.6c-8.2,3-11.2,7.8-10.4,12.5c0.7,4.4,5.1,8.3,12.7,8
						C210.5,401.8,206.3,384.4,206.3,384.4z"/>
				</g>
			</g>
			<g id="形状_6_5_">
				<g>
					<path style="fill-rule:evenodd;clip-rule:evenodd;fill:#512A15;" d="M201,381.7c0,0-3.5-0.9-5.4-0.4c-5.2,1.2-9.3,4.4-9.3,4.5
						c0,0-1.5,5.7-0.6,8.1c1.7,4.5,3.3,6.5,7.9,6.6c3.8,0.1,8.1-1.3,9.7-6.7C205.2,387.3,201,381.7,201,381.7z"/>
				</g>
			</g>
			<g id="形状_48_副本_3_">
				<g>
					<path style="fill:#FFFFFF;" d="M190.1,393.9c-1-1.8-5.1,0.4-5.3,1.8c-0.3,2.3,0.9,2.9,2.6,2.4
						C189.4,397.6,191,395.6,190.1,393.9z"/>
				</g>
			</g>
			<g id="形状_36_副本_5_">
				<g>
					<path style="fill-rule:evenodd;clip-rule:evenodd;fill:#A85726;" d="M187.5,372.6c-3.2,1.3-7.4,5-5.6,6.2
						c1.7,1.2,2.8-2.7,7.2-4.2c5.5-1.8,9.5,0.2,9.8-1.2C199.3,371.4,193.1,370.4,187.5,372.6z"/>
				</g>
			</g>
			<g id="Shape_2_7_">
				<g>
					<path style="fill-rule:evenodd;clip-rule:evenodd;fill:#9C6342;" d="M204.5,399.5c1.6-2.3,1.8-4.6,1.3-3.8
						c-1,2-2.4,4.4-5.4,5.8c-2.9,1.3-6.3,1.4-8.6,1.5c-2.1,0,4.2,1.5,8.6-0.2c0.3,0.1,0.8,0.3,1.3,0.6c0.6,0.3,1.7,1.1,1.7,0.7
						c-0.1-0.7-0.5-1.7-1.1-2.2c0.4-0.3,0.8-0.7,1.2-1c0.2,0,0.4,0,0.7,0.1c0.9,0.1,1.8,1.3,1.8,0.7
						C206,400.9,205.4,400,204.5,399.5z"/>
				</g>
			</g>
			<g id="形状_65_副本_7_">
				<g>
					<path style="fill-rule:evenodd;clip-rule:evenodd;fill:#713D1F;" d="M212.2,382.4c-0.3,0.5-1.2,1.4-2.3,1.9
						c-0.9,0.4-2.2,0.7-3.4,0.3c0-0.1-0.1-0.2-0.1-0.3c-0.8-1.6-3.5-3.5-6.1-4c-4.2-0.8-7.7-0.3-10.7,1.1c-4,1.9-6.8,5.5-7.6,10.4
						c-0.4,2.1,0.1,3.3,0.8,1.5c1.5-4.4,3-6.8,7-9c3.2-1.7,7.1-3,12.9-0.1c2,1,3.1,2.9,3.4,4.3c0.1,0.5,0.6,2.2,0.8,1.1
						c0.1-0.5,0.1-1.1,0.2-1.7c0.4,0,1.1,0,2.1-0.4c0.8-0.3,2.2-1.3,2.8-2.5C212.7,383.6,212.7,381.5,212.2,382.4z"/>
				</g>
			</g>
			<g id="Shape_2_5_">
				<g>
					<path style="fill-rule:evenodd;clip-rule:evenodd;fill:#9C6342;" d="M141.5,402.9c-2.3,0-5.8-0.1-8.6-1.5
						c-3.1-1.5-4.4-3.8-5.4-5.8c-0.4-0.9-0.2,1.5,1.3,3.8c-0.9,0.5-1.5,1.4-1.5,2c0,0.6,0.9-0.5,1.8-0.7c0.3,0,0.5-0.1,0.7-0.1
						c0.4,0.4,0.8,0.7,1.2,1c-0.6,0.5-1,1.5-1.1,2.2c-0.1,0.4,1.1-0.3,1.7-0.7c0.5-0.3,1-0.5,1.3-0.6
						C137.3,404.5,143.6,403,141.5,402.9z"/>
				</g>
			</g>
			<g id="形状_65_副本_5_">
				<g>
					<path style="fill-rule:evenodd;clip-rule:evenodd;fill:#713D1F;" d="M150.9,391.9c-0.8-4.9-3.6-8.5-7.6-10.4
						c-3-1.4-6.6-2-10.7-1.1c-2.3,0.5-4.6,2-5.5,3.3c-0.2,0.3-0.3,0.6-0.5,0.9c0,0,0,0,0,0c-1.3,0.4-2.7,0.1-3.6-0.3
						c-1-0.5-2-1.4-2.3-1.9c-0.5-0.9-0.5,1.2,0.2,2.6c0.6,1.2,2,2.2,2.8,2.5c1.1,0.4,1.8,0.5,2.2,0.4c0,0.6,0,1.2,0.1,1.7
						c0.1,1.1,0.7-0.1,0.8-0.6c0.7-2.1,1.4-3.9,3.4-4.8c5.8-2.8,9.7-1.6,12.9,0.1c4,2.2,5.5,4.9,7,9
						C150.8,395.2,151.2,393.9,150.9,391.9z"/>
				</g>
			</g>
			<g id="腮红2_3_">
				<g>
					<path style="fill-rule:evenodd;clip-rule:evenodd;fill:#FFA083;" d="M140.1,408.2c-6-0.6-8.7,1.4-8.7,3.3
						c0,1.5,2.2,4.6,7.8,4.9c7,0.4,9.1-1.9,9.2-3.1C148.4,412,147.5,409,140.1,408.2z"/>
				</g>
			</g>
			<g id="腮红2_副本_3_">
				<g>
					<path style="fill-rule:evenodd;clip-rule:evenodd;fill:#FFA083;" d="M193.3,408.2c-7.4,0.8-8.3,3.7-8.3,5
						c0.1,1.2,2.1,3.5,9.2,3.1c5.6-0.3,7.8-3.4,7.8-4.9C202,409.6,199.4,407.6,193.3,408.2z"/>
				</g>
			</g>
			<path style="fill-rule:evenodd;clip-rule:evenodd;fill:#512A15;" d="M166.1,440.6c-3.8,0-9.9-3.5-9.4-7.3c0.4-3,3.5-4.1,9.5-4.1
				c6.1,0,9.2,1,9.5,4.1C176,436.7,171,440.6,166.1,440.6z"/>
			<g id="形状_20_3_">
				<g>
					<path style="fill:#FCEACB;" d="M152.1,508.9c-11.4-8.9-25.6-3.1-25.6-0.9c0.9,24.1,23.9,21.7,23.9,21.7c8-0.9,9-6.5,9-6.5
						S159.7,514.8,152.1,508.9z"/>
				</g>
			</g>
			<g id="形状_21_3_">
				<g>
					<path style="fill:#FFBD99;" d="M156,522.1c-1.6-8.3-18.6-11-18.3-7.6c0.8,13.4,15.9,12.3,15.9,12.3S156.5,526.3,156,522.1z"/>
				</g>
			</g>
			<g id="形状_20_拷贝_3_">
				<g>
					<path style="fill:#FCEACB;" d="M179.7,509.8c-7.9,7.1-5.6,15.8-5.6,15.8s0.6,3.2,8.6,4.1c0,0,23.1,2.4,24-21.7
						C206.8,505.7,192.2,498.6,179.7,509.8z"/>
				</g>
			</g>
			<g id="形状_21_拷贝_3_">
				<g>
					<path style="fill-rule:evenodd;clip-rule:evenodd;fill:#FFBD99;" d="M177.1,522.1c-0.6,4.3,2.5,4.7,2.5,4.7s15.1,1.1,15.9-12.3
						C195.8,511.1,178.7,513.8,177.1,522.1z"/>
				</g>
			</g>
			<g id="形状_23_3_" style="opacity:0.4;">
				<g>
					<path style="fill-rule:evenodd;clip-rule:evenodd;fill:#DD7528;" d="M183.7,556.5c-9.3-1.7-34.6-3.4-37.4,2.9
						c-2.8,6.3-9.2,3.2-7.8,21.1c0,0,2.2,11.4,11.1,9.2c2.7-1.1,3.8-4.7,3.7-8.6c0-3.8,1.6-3.9,4.9-3.9c7.7,0.2,11.9,0.8,17.3-2.5
						c2.9-1.8,4.8,2.4,4.3,6.9c-0.6,5.3,0.5,7.5,4.8,8.4c3.9,0.9,7.2-0.9,8.3-4.9c1.2-4.2,1.5-8.9,1.5-8.9S193,558.2,183.7,556.5z"
						/>
				</g>
			</g>
			<path style="fill-rule:evenodd;clip-rule:evenodd;fill:#FCEBCE;" d="M185.4,544.2c0,0,10.3,7,9.7,30c-0.3,7.8-4.1,11.8-8.1,11.5
				c-4.1-0.3-4.5-4.7-3.9-9.3c0.2-1.8,0.8-7.7-1.4-15.9C179.5,552.3,185.4,544.2,185.4,544.2z"/>
			<path style="fill-rule:evenodd;clip-rule:evenodd;fill:#FCEBCE;" d="M145.4,547c0,0-8.1,7.9-7.5,26.6c0.3,7.8,4,12.3,8.1,12.1
				c4.1-0.3,4.3-3.6,4-7.2c-0.2-3.2-0.9-8.5,1.3-16.6C153.5,553.6,145.4,547,145.4,547z"/>
			<path style="fill-rule:evenodd;clip-rule:evenodd;fill:#F6BF96;" d="M186.2,580c-0.1,1.6-0.4,4.1-0.8,5.2
				c0.2,0.1,0.4,0.2,0.6,0.2c0.2-0.7,0.5-1.7,0.6-2.7C187,580.2,186.3,577.6,186.2,580z"/>
			<path style="fill-rule:evenodd;clip-rule:evenodd;fill:#F6BF96;" d="M189.5,580.1c0,1.1,0,3.8-0.7,5.3c0.3-0.1,0.7-0.2,1-0.3
				c0.3-0.8,0.4-2,0.4-2.9C190.3,580.2,189.5,578.6,189.5,580.1z"/>
			<path style="fill-rule:evenodd;clip-rule:evenodd;fill:#F6BF96;" d="M147.5,582.7c-0.4-1.4-1-4.4-1.1-3.6
				c-0.2,1.5,0.2,3.5,0.7,5.1c0.1,0.4,0.3,0.8,0.5,1.1c0.4-0.1,0.7-0.3,0.9-0.4C148,584.3,147.7,583.6,147.5,582.7z"/>
			<path style="fill-rule:evenodd;clip-rule:evenodd;fill:#F6BF96;" d="M144.3,583.2c-0.9-2.5-1-4.9-1.1-3.1
				c-0.2,2.1,0.3,3.7,1.1,5.1c0.1,0.1,0.1,0.2,0.2,0.3c0.3,0.1,0.6,0.1,0.9,0.1C145.1,584.9,144.7,584.1,144.3,583.2z"/>
			<g id="脸_5_">
				<g>
					<path style="fill:#FCEBCE;" d="M186.9,537.3c-4-14.2-13.4-17.8-20.3-17.7c-6.9-0.2-17.4,3.5-20.6,17.4
						c-0.8,4.8-3.3,8.7-2.5,14.8c0.9,6.1,2.9,9,11.4,14.8c1.8,1.3,3.1,1.3,5.1,2.9c2.1,1.6,4.4,2.3,8.5,1.8c0.1,0,0.1,0,0.2,0
						c1.6-0.3,2.9-0.9,4.1-1.8c2.1-1.6,3.4-1.6,5.1-2.9c8.5-5.7,10.5-8.7,11.4-14.8C190.2,545.7,187.7,540.2,186.9,537.3z"/>
				</g>
			</g>
			<g id="形状_77_3_">
				<g>
					
						<ellipse transform="matrix(8.525650e-02 -0.9964 0.9964 8.525650e-02 -418.252 658.4169)" style="fill-rule:evenodd;clip-rule:evenodd;fill:#FFDECC;" cx="149.5" cy="557" rx="1.9" ry="3.3"/>
				</g>
			</g>
			<g id="形状_77_副本_3_">
				<g>
					
						<ellipse transform="matrix(-3.271715e-02 -0.9995 0.9995 -3.271715e-02 -368.1457 757.6909)" style="fill:#FFDECC;" cx="182.6" cy="557" rx="1.9" ry="3.3"/>
				</g>
			</g>
			<path style="fill:#F7CC9D;" d="M153.9,530.8c0.8,2.9,2.2,3.4,4.1,3.7c2.3,0.3,3.6-1.8,4.3-2.7c0,0,1.5,2.9,3.6,3.5
				c2.3,0.7,3.8,0,4.6-1.5c0.5-0.9,0.3-2.4,0.3-2.4s1.9,2,4.7,1.2c1.7-0.4,1.8-1.9,1.9-2.9c0.1-1-0.3-1.9-0.3-1.9s2,2,1.4,4.4
				c-0.4,1.7-1.8,2.9-3.7,2.6c-1.3-0.2-3.3-1.5-3.3-1.5s-0.1,2.2-1.7,3.3c-1.5,1-3.7,0.9-5.1,0.1c-1.4-0.8-2.7-2.8-2.7-2.8
				s-0.8,1.8-2.8,2.7c-1.2,0.5-3.4,0.6-4.7-1.4C153.3,533.3,153.9,530.8,153.9,530.8z"/>
			<g id="形状_75_3_">
				<g>
					<path style="fill-rule:evenodd;clip-rule:evenodd;fill:#552F19;" d="M150.1,549.4c-3.5-0.3-4.5,0-4.2,0.7
						c0.2,0.6,0.9-0.1,4.1,0.5c5.3,1.1,7.5,4.6,8.1,3.1C158.7,552.2,154.3,549.7,150.1,549.4z"/>
				</g>
			</g>
			<g id="形状_75_副本_3_">
				<g>
					<path style="fill-rule:evenodd;clip-rule:evenodd;fill:#713D1F;" d="M182.9,549.4c-4.2,0.4-8.6,2.8-8,4.4
						c0.6,1.5,2.8-2,8.1-3.1c3.2-0.7,3.9,0,4.1-0.5C187.3,549.3,186.4,549,182.9,549.4z"/>
				</g>
			</g>
			<g id="形状_19_3_">
				<g>
					<path style="fill:#57301B;" d="M166.3,565.5c-6.6-0.1-6,2-6,2s1.1,4.2,6.3,4c5.1-0.1,6-4,6-4S172.9,565.6,166.3,565.5z"/>
				</g>
			</g>
		</g>
	</g>
</g>
<g>
	<path style="fill:#FF6600;" d="M394.9,582.6h-0.5l-0.6-2.3c0-0.1,0-0.2,0-0.3c0,0,0,0.1,0,0.2c0,0.1,0,0.1,0,0.2l-0.6,2.3h-0.5
		l-0.9-3h0.5l0.7,2.4c0,0,0,0.1,0,0.2c0,0,0,0.1,0,0.1h0c0-0.1,0-0.1,0-0.2c0,0,0,0,0-0.1l0.6-2.4h0.5l0.6,2.4c0,0,0,0.1,0,0.1
		c0,0.1,0,0.1,0,0.1h0c0-0.1,0-0.1,0-0.2l0.7-2.4h0.5L394.9,582.6z"/>
	<path style="fill:#FF6600;" d="M399.1,582.6h-0.5l-0.6-2.3c0-0.1,0-0.2,0-0.3c0,0,0,0.1,0,0.2c0,0.1,0,0.1,0,0.2l-0.6,2.3h-0.5
		l-0.9-3h0.5l0.7,2.4c0,0,0,0.1,0,0.2c0,0,0,0.1,0,0.1h0c0-0.1,0-0.1,0-0.2c0,0,0,0,0-0.1l0.6-2.4h0.5l0.6,2.4c0,0,0,0.1,0,0.1
		c0,0.1,0,0.1,0,0.1h0c0-0.1,0-0.1,0-0.2l0.7-2.4h0.5L399.1,582.6z"/>
	<path style="fill:#FF6600;" d="M403.2,582.6h-0.5l-0.6-2.3c0-0.1,0-0.2,0-0.3c0,0,0,0.1,0,0.2c0,0.1,0,0.1,0,0.2l-0.6,2.3H401
		l-0.9-3h0.5l0.7,2.4c0,0,0,0.1,0,0.2c0,0,0,0.1,0,0.1h0c0-0.1,0-0.1,0-0.2c0,0,0,0,0-0.1l0.6-2.4h0.5l0.6,2.4c0,0,0,0.1,0,0.1
		c0,0.1,0,0.1,0,0.1h0c0-0.1,0-0.1,0-0.2l0.7-2.4h0.5L403.2,582.6z"/>
	<path style="fill:#FF6600;" d="M404.8,582.6V582h0.6v0.6H404.8z"/>
	<path style="fill:#FF6600;" d="M406.7,580.5l-0.4-0.1c0.2-0.6,0.6-0.9,1.4-0.9c0.8,0,1.2,0.4,1.2,1.2v1.2c0,0.3,0,0.6,0.2,0.7h-0.4
		c-0.1-0.1-0.1-0.2-0.1-0.4c-0.2,0.3-0.6,0.5-1.2,0.5c-0.6,0-1-0.3-1-0.8c0-0.6,0.4-0.9,1.1-1c0.6-0.1,0.9-0.1,1.1-0.2
		c0-0.6-0.2-0.8-0.8-0.8C407,579.9,406.7,580.1,406.7,580.5z M408.3,581.4V581c-0.1,0.1-0.4,0.2-0.9,0.2c-0.6,0.1-0.8,0.3-0.8,0.6
		c0,0.3,0.2,0.5,0.7,0.5C407.9,582.3,408.3,582,408.3,581.4z"/>
	<path style="fill:#FF6600;" d="M409.5,578.4h0.4v4.1h-0.4V578.4z"/>
	<path style="fill:#FF6600;" d="M410.8,578.4h0.4v0.6h-0.4V578.4z M410.8,579.6h0.4v3h-0.4V579.6z"/>
	<path style="fill:#FF6600;" d="M416.1,580.6v2h-0.4v-1.9c0-0.6-0.2-0.9-0.6-0.9c-0.5,0-0.7,0.3-0.8,0.9v1.9h-0.4v-1.9
		c0-0.6-0.2-0.9-0.6-0.9c-0.5,0-0.7,0.3-0.8,0.8v1.9H412v-3h0.4v0.5c0.2-0.4,0.5-0.5,0.8-0.5c0.5,0,0.8,0.2,0.9,0.6
		c0.2-0.4,0.5-0.6,0.9-0.6C415.7,579.5,416.1,579.8,416.1,580.6z"/>
	<path style="fill:#FF6600;" d="M417.1,580.5l-0.4-0.1c0.2-0.6,0.6-0.9,1.4-0.9c0.8,0,1.2,0.4,1.2,1.2v1.2c0,0.3,0,0.6,0.2,0.7H419
		c-0.1-0.1-0.1-0.2-0.1-0.4c-0.2,0.3-0.6,0.5-1.2,0.5c-0.6,0-1-0.3-1-0.8c0-0.6,0.4-0.9,1.1-1c0.6-0.1,0.9-0.1,1.1-0.2
		c0-0.6-0.2-0.8-0.8-0.8C417.5,579.9,417.2,580.1,417.1,580.5z M418.8,581.4V581c-0.1,0.1-0.4,0.2-0.9,0.2c-0.6,0.1-0.8,0.3-0.8,0.6
		c0,0.3,0.2,0.5,0.7,0.5C418.4,582.3,418.7,582,418.8,581.4z"/>
	<path style="fill:#FF6600;" d="M424.1,580.6v2h-0.4v-1.9c0-0.6-0.2-0.9-0.6-0.9c-0.5,0-0.7,0.3-0.8,0.9v1.9h-0.4v-1.9
		c0-0.6-0.2-0.9-0.6-0.9c-0.5,0-0.7,0.3-0.8,0.8v1.9H420v-3h0.4v0.5c0.2-0.4,0.5-0.5,0.8-0.5c0.5,0,0.8,0.2,0.9,0.6
		c0.2-0.4,0.5-0.6,0.9-0.6C423.8,579.5,424.1,579.8,424.1,580.6z"/>
	<path style="fill:#FF6600;" d="M425.2,580.5l-0.4-0.1c0.2-0.6,0.6-0.9,1.4-0.9c0.8,0,1.2,0.4,1.2,1.2v1.2c0,0.3,0,0.6,0.2,0.7H427
		c-0.1-0.1-0.1-0.2-0.1-0.4c-0.2,0.3-0.6,0.5-1.2,0.5c-0.6,0-1-0.3-1-0.8c0-0.6,0.4-0.9,1.1-1c0.6-0.1,0.9-0.1,1.1-0.2
		c0-0.6-0.2-0.8-0.8-0.8C425.6,579.9,425.3,580.1,425.2,580.5z M426.9,581.4V581c-0.1,0.1-0.4,0.2-0.9,0.2c-0.6,0.1-0.8,0.3-0.8,0.6
		c0,0.3,0.2,0.5,0.7,0.5C426.5,582.3,426.8,582,426.9,581.4z"/>
	<path style="fill:#FF6600;" d="M428.3,582.6V582h0.6v0.6H428.3z"/>
	<path style="fill:#FF6600;" d="M431,579.9c-0.6,0-0.9,0.4-0.9,1.2c0,0.8,0.3,1.2,0.9,1.2c0.5,0,0.8-0.3,0.8-0.8l0.5,0.1
		c-0.1,0.7-0.5,1.1-1.3,1c-0.9,0-1.3-0.5-1.4-1.6c0-1,0.5-1.6,1.3-1.6c0.7,0,1.1,0.3,1.3,0.9l-0.4,0.1
		C431.6,580.1,431.4,579.9,431,579.9z"/>
	<path style="fill:#FF6600;" d="M433.9,582.7c-0.9-0.1-1.4-0.6-1.4-1.5c0-1.1,0.5-1.6,1.5-1.6c0.9,0,1.3,0.6,1.4,1.6
		C435.3,582.1,434.9,582.7,433.9,582.7z M433.9,579.9c-0.6,0-1,0.4-1,1.3c0,0.8,0.3,1.2,1,1.2c0.6,0,0.9-0.4,0.9-1.2
		C434.8,580.3,434.5,579.9,433.9,579.9z"/>
	<path style="fill:#FF6600;" d="M440.1,580.6v2h-0.4v-1.9c0-0.6-0.2-0.9-0.6-0.9c-0.5,0-0.7,0.3-0.8,0.9v1.9h-0.4v-1.9
		c0-0.6-0.2-0.9-0.6-0.9c-0.5,0-0.7,0.3-0.8,0.8v1.9h-0.4v-3h0.4v0.5c0.2-0.4,0.5-0.5,0.8-0.5c0.5,0,0.8,0.2,0.9,0.6
		c0.2-0.4,0.5-0.6,0.9-0.6C439.7,579.5,440.1,579.8,440.1,580.6z"/>
</g>
<rect x="398.4" y="527.2" style="fill:#FFFFFF;" width="35.6" height="35.6"/>
<g>
	<rect x="423.7" y="535" width="1.3" height="1.3"/>
	<rect x="424.9" y="536.2" width="1.2" height="1.2"/>
	<rect x="424.9" y="538.7" width="1.2" height="1.3"/>
	<rect x="418.7" y="535" width="1.3" height="1.3"/>
	<rect x="424.9" y="543.7" width="1.2" height="1.3"/>
	<rect x="424.9" y="550" width="1.2" height="1.3"/>
	<rect x="424.9" y="540" width="1.2" height="1.2"/>
	<rect x="424.9" y="545" width="1.2" height="1.3"/>
	<rect x="416.2" y="535" width="1.3" height="1.3"/>
	<rect x="406.2" y="545" width="1.2" height="1.3"/>
	<rect x="406.2" y="540" width="1.2" height="1.2"/>
	<rect x="406.2" y="548.7" width="1.2" height="1.3"/>
	<rect x="411.2" y="535" width="1.2" height="1.3"/>
	<rect x="406.2" y="536.2" width="1.2" height="1.2"/>
	<rect x="407.4" y="535" width="1.3" height="1.3"/>
	<rect x="407.4" y="538.7" width="1.3" height="1.3"/>
	<rect x="407.4" y="536.2" width="1.3" height="1.2"/>
	<rect x="407.4" y="540" width="1.3" height="1.2"/>
	<rect x="407.4" y="543.7" width="1.3" height="1.3"/>
	<rect x="407.4" y="542.5" width="1.3" height="1.3"/>
	<rect x="407.4" y="541.2" width="1.3" height="1.2"/>
	<rect x="412.4" y="536.2" width="1.3" height="1.2"/>
	<rect x="418.7" y="536.2" width="1.3" height="1.2"/>
	<rect x="421.2" y="536.2" width="1.3" height="1.2"/>
	<rect x="414.9" y="536.2" width="1.3" height="1.2"/>
	<rect x="416.2" y="536.2" width="1.3" height="1.2"/>
	<rect x="416.2" y="553.7" width="1.3" height="1.3"/>
	<rect x="418.7" y="553.7" width="1.3" height="1.3"/>
	<rect x="413.7" y="553.7" width="1.2" height="1.3"/>
	<rect x="421.2" y="553.7" width="1.3" height="1.3"/>
	<rect x="412.4" y="553.7" width="1.3" height="1.3"/>
	<rect x="407.4" y="550" width="1.3" height="1.3"/>
	<rect x="407.4" y="548.7" width="1.3" height="1.3"/>
	<rect x="407.4" y="547.5" width="1.3" height="1.2"/>
	<rect x="407.4" y="553.7" width="1.3" height="1.3"/>
	<rect x="407.4" y="552.5" width="1.3" height="1.2"/>
	<rect x="412.4" y="556.2" width="1.3" height="1.3"/>
	<rect x="404.9" y="536.2" width="1.3" height="1.2"/>
	<rect x="404.9" y="545" width="1.3" height="1.3"/>
	<rect x="404.9" y="543.7" width="1.3" height="1.3"/>
	<rect x="404.9" y="533.7" width="1.3" height="1.3"/>
	<rect x="404.9" y="541.2" width="1.3" height="1.2"/>
	<rect x="404.9" y="546.2" width="1.3" height="1.3"/>
	<rect x="414.9" y="533.7" width="1.3" height="1.3"/>
	<rect x="412.4" y="533.7" width="1.3" height="1.3"/>
	<rect x="416.2" y="533.7" width="1.3" height="1.3"/>
	<rect x="407.4" y="533.7" width="1.3" height="1.3"/>
	<rect x="406.2" y="552.5" width="1.2" height="1.2"/>
	<rect x="404.9" y="547.5" width="1.3" height="1.2"/>
	<rect x="416.2" y="556.2" width="1.3" height="1.3"/>
	<rect x="418.7" y="556.2" width="1.3" height="1.3"/>
	<rect x="413.7" y="556.2" width="1.2" height="1.3"/>
	<rect x="407.4" y="556.2" width="1.3" height="1.3"/>
	<rect x="404.9" y="552.5" width="1.3" height="1.2"/>
	<rect x="404.9" y="556.2" width="1.3" height="1.3"/>
	<rect x="404.9" y="554.9" width="1.3" height="1.3"/>
	<rect x="423.7" y="536.2" width="1.3" height="1.2"/>
	<rect x="422.4" y="554.9" width="1.2" height="1.3"/>
	<rect x="421.2" y="554.9" width="1.3" height="1.3"/>
	<rect x="418.7" y="554.9" width="1.3" height="1.3"/>
	<rect x="416.2" y="554.9" width="1.3" height="1.3"/>
	<rect x="426.2" y="554.9" width="1.3" height="1.3"/>
	<rect x="423.7" y="554.9" width="1.3" height="1.3"/>
	<rect x="426.2" y="553.7" width="1.3" height="1.3"/>
	<rect x="424.9" y="554.9" width="1.2" height="1.3"/>
	<rect x="426.2" y="552.5" width="1.3" height="1.2"/>
	<rect x="407.4" y="554.9" width="1.3" height="1.3"/>
	<rect x="413.7" y="554.9" width="1.2" height="1.3"/>
	<rect x="414.9" y="554.9" width="1.3" height="1.3"/>
	<rect x="411.2" y="554.9" width="1.2" height="1.3"/>
	<rect x="409.9" y="554.9" width="1.3" height="1.3"/>
	<rect x="426.2" y="548.7" width="1.3" height="1.3"/>
	<rect x="426.2" y="538.7" width="1.3" height="1.3"/>
	<rect x="426.2" y="536.2" width="1.3" height="1.2"/>
	<rect x="426.2" y="533.7" width="1.3" height="1.3"/>
	<rect x="419.9" y="533.7" width="1.2" height="1.3"/>
	<rect x="421.2" y="533.7" width="1.3" height="1.3"/>
	<rect x="423.7" y="533.7" width="1.3" height="1.3"/>
	<rect x="426.2" y="546.2" width="1.3" height="1.3"/>
	<rect x="426.2" y="550" width="1.3" height="1.3"/>
	<rect x="426.2" y="551.2" width="1.3" height="1.3"/>
	<rect x="426.2" y="541.2" width="1.3" height="1.2"/>
	<rect x="421.2" y="542.5" width="1.3" height="1.3"/>
	<rect x="411.2" y="542.5" width="1.2" height="1.3"/>
	<rect x="417.4" y="540" width="1.2" height="1.2"/>
	<rect x="419.9" y="543.7" width="1.2" height="1.3"/>
	<rect x="419.9" y="541.2" width="1.2" height="1.2"/>
	<rect x="413.7" y="540" width="1.2" height="1.2"/>
	<rect x="421.2" y="545" width="1.3" height="1.3"/>
	<rect x="421.2" y="547.5" width="1.3" height="1.2"/>
	<rect x="421.2" y="543.7" width="1.3" height="1.3"/>
	<rect x="421.2" y="538.7" width="1.3" height="1.3"/>
	<rect x="421.2" y="541.2" width="1.3" height="1.2"/>
	<rect x="411.2" y="548.7" width="1.2" height="1.3"/>
	<rect x="419.9" y="538.7" width="1.2" height="1.3"/>
	<rect x="421.2" y="550" width="1.3" height="1.3"/>
	<rect x="413.7" y="550" width="1.2" height="1.3"/>
	<rect x="419.9" y="550" width="1.2" height="1.3"/>
	<rect x="418.7" y="550" width="1.3" height="1.3"/>
	<rect x="413.7" y="542.5" width="1.2" height="1.3"/>
	<rect x="413.7" y="543.7" width="1.2" height="1.3"/>
	<rect x="414.9" y="542.5" width="1.3" height="1.3"/>
	<rect x="416.2" y="542.5" width="1.3" height="1.3"/>
	<rect x="414.9" y="547.5" width="1.3" height="1.2"/>
	<rect x="413.7" y="546.2" width="1.2" height="1.3"/>
	<rect x="417.4" y="542.5" width="1.2" height="1.3"/>
	<rect x="413.7" y="547.5" width="1.2" height="1.2"/>
	<rect x="413.7" y="545" width="1.2" height="1.3"/>
	<rect x="414.9" y="545" width="1.3" height="1.3"/>
	<rect x="416.2" y="545" width="1.3" height="1.3"/>
	<rect x="417.4" y="545" width="1.2" height="1.3"/>
	<rect x="416.2" y="546.2" width="1.3" height="1.3"/>
	<rect x="412.4" y="546.2" width="1.3" height="1.3"/>
	<rect x="412.4" y="542.5" width="1.3" height="1.3"/>
	<rect x="412.4" y="545" width="1.3" height="1.3"/>
	<rect x="412.4" y="548.7" width="1.3" height="1.3"/>
	<rect x="416.2" y="548.7" width="1.3" height="1.3"/>
	<rect x="418.7" y="547.5" width="1.3" height="1.2"/>
	<rect x="418.7" y="545" width="1.3" height="1.3"/>
	<rect x="413.7" y="541.2" width="1.2" height="1.2"/>
	<rect x="418.7" y="546.2" width="1.3" height="1.3"/>
	<rect x="417.4" y="541.2" width="1.2" height="1.2"/>
	<rect x="417.4" y="548.7" width="1.2" height="1.3"/>
	<rect x="408.7" y="548.7" width="1.2" height="1.3"/>
	<rect x="412.4" y="552.5" width="1.3" height="1.2"/>
	<rect x="409.9" y="552.5" width="1.3" height="1.2"/>
	<rect x="411.2" y="537.5" width="1.2" height="1.3"/>
	<rect x="412.4" y="537.5" width="1.3" height="1.3"/>
	<rect x="408.7" y="542.5" width="1.2" height="1.3"/>
	<rect x="408.7" y="540" width="1.2" height="1.2"/>
	<rect x="409.9" y="537.5" width="1.3" height="1.3"/>
	<rect x="423.7" y="547.5" width="1.3" height="1.2"/>
	<rect x="423.7" y="548.7" width="1.3" height="1.3"/>
	<rect x="423.7" y="550" width="1.3" height="1.3"/>
	<rect x="423.7" y="542.5" width="1.3" height="1.3"/>
	<rect x="423.7" y="540" width="1.3" height="1.2"/>
	<rect x="416.2" y="552.5" width="1.3" height="1.2"/>
	<rect x="414.9" y="552.5" width="1.3" height="1.2"/>
	<rect x="423.7" y="552.5" width="1.3" height="1.2"/>
	<rect x="421.2" y="552.5" width="1.3" height="1.2"/>
	<rect x="409.9" y="546.2" width="1.3" height="1.3"/>
	<rect x="409.9" y="551.2" width="1.3" height="1.3"/>
	<rect x="409.9" y="545" width="1.3" height="1.3"/>
	<rect x="416.2" y="538.7" width="1.3" height="1.3"/>
	<rect x="412.4" y="538.7" width="1.3" height="1.3"/>
	<rect x="409.9" y="542.5" width="1.3" height="1.3"/>
	<rect x="409.9" y="538.7" width="1.3" height="1.3"/>
	<rect x="422.4" y="538.7" width="1.2" height="1.3"/>
	<rect x="416.2" y="551.2" width="1.3" height="1.3"/>
	<rect x="419.9" y="537.5" width="1.2" height="1.3"/>
	<rect x="418.7" y="537.5" width="1.3" height="1.3"/>
	<rect x="421.2" y="551.2" width="1.3" height="1.3"/>
	<rect x="422.4" y="550" width="1.2" height="1.3"/>
	<rect x="422.4" y="546.2" width="1.2" height="1.3"/>
	<rect x="427.4" y="543.7" width="1.2" height="1.3"/>
	<rect x="401.1" y="543.7" width="1.2" height="1.3"/>
	<rect x="401.1" y="552.5" width="1.2" height="1.2"/>
	<rect x="401.1" y="548.7" width="1.2" height="1.3"/>
	<rect x="401.1" y="540" width="1.2" height="1.2"/>
	<rect x="401.1" y="536.2" width="1.2" height="1.2"/>
	<rect x="401.1" y="538.7" width="1.2" height="1.3"/>
	<rect x="413.7" y="559.9" width="1.2" height="1.3"/>
	<rect x="411.2" y="559.9" width="1.2" height="1.3"/>
	<rect x="419.9" y="559.9" width="1.2" height="1.3"/>
	<rect x="417.4" y="559.9" width="1.2" height="1.3"/>
	<rect x="416.2" y="559.9" width="1.3" height="1.3"/>
	<rect x="404.9" y="559.9" width="1.3" height="1.3"/>
	<rect x="401.1" y="559.9" width="1.2" height="1.3"/>
	<rect x="421.2" y="559.9" width="1.3" height="1.3"/>
	<rect x="406.2" y="559.9" width="1.2" height="1.3"/>
	<rect x="402.4" y="559.9" width="1.3" height="1.3"/>
	<rect x="407.4" y="559.9" width="1.3" height="1.3"/>
	<rect x="403.6" y="559.9" width="1.2" height="1.3"/>
	<rect x="429.9" y="542.5" width="1.2" height="1.3"/>
	<rect x="429.9" y="536.2" width="1.2" height="1.2"/>
	<rect x="429.9" y="553.7" width="1.2" height="1.3"/>
	<rect x="429.9" y="545" width="1.2" height="1.3"/>
	<rect x="429.9" y="554.9" width="1.2" height="1.3"/>
	<rect x="429.9" y="546.2" width="1.2" height="1.3"/>
	<rect x="429.9" y="550" width="1.2" height="1.3"/>
	<rect x="411.2" y="530" width="1.2" height="1.3"/>
	<rect x="417.4" y="530" width="1.2" height="1.3"/>
	<rect x="416.2" y="530" width="1.3" height="1.3"/>
	<rect x="414.9" y="530" width="1.3" height="1.3"/>
	<rect x="412.4" y="530" width="1.3" height="1.3"/>
	<rect x="407.4" y="530" width="1.3" height="1.3"/>
	<rect x="423.7" y="530" width="1.3" height="1.3"/>
	<rect x="419.9" y="530" width="1.2" height="1.3"/>
	<rect x="418.7" y="530" width="1.3" height="1.3"/>
	<rect x="402.4" y="528.8" width="1.3" height="1.3"/>
	<rect x="401.1" y="528.8" width="1.2" height="1.3"/>
	<rect x="403.6" y="528.8" width="1.2" height="1.3"/>
	<rect x="399.9" y="528.8" width="1.3" height="1.3"/>
	<rect x="404.9" y="528.8" width="1.3" height="1.3"/>
	<rect x="399.9" y="533.7" width="1.3" height="1.3"/>
	<rect x="399.9" y="530" width="1.3" height="1.3"/>
	<rect x="406.2" y="528.8" width="1.2" height="1.3"/>
	<rect x="399.9" y="531.3" width="1.3" height="1.2"/>
	<rect x="414.9" y="528.8" width="1.3" height="1.3"/>
	<rect x="416.2" y="528.8" width="1.3" height="1.3"/>
	<rect x="399.9" y="535" width="1.3" height="1.3"/>
	<rect x="412.4" y="528.8" width="1.3" height="1.3"/>
	<rect x="407.4" y="528.8" width="1.3" height="1.3"/>
	<rect x="411.2" y="528.8" width="1.2" height="1.3"/>
	<rect x="399.9" y="553.7" width="1.3" height="1.3"/>
	<rect x="399.9" y="552.5" width="1.3" height="1.2"/>
	<rect x="399.9" y="548.7" width="1.3" height="1.3"/>
	<rect x="399.9" y="554.9" width="1.3" height="1.3"/>
	<rect x="399.9" y="556.2" width="1.3" height="1.3"/>
	<rect x="399.9" y="559.9" width="1.3" height="1.3"/>
	<rect x="399.9" y="536.2" width="1.3" height="1.2"/>
	<rect x="399.9" y="557.4" width="1.3" height="1.2"/>
	<rect x="399.9" y="558.7" width="1.3" height="1.3"/>
	<rect x="399.9" y="541.2" width="1.3" height="1.2"/>
	<rect x="399.9" y="540" width="1.3" height="1.2"/>
	<rect x="399.9" y="546.2" width="1.3" height="1.3"/>
	<rect x="399.9" y="543.7" width="1.3" height="1.3"/>
	<rect x="399.9" y="532.5" width="1.3" height="1.3"/>
	<rect x="431.2" y="552.5" width="1.3" height="1.2"/>
	<rect x="431.2" y="550" width="1.3" height="1.3"/>
	<rect x="431.2" y="554.9" width="1.3" height="1.3"/>
	<rect x="431.2" y="543.7" width="1.3" height="1.3"/>
	<rect x="431.2" y="546.2" width="1.3" height="1.3"/>
	<rect x="431.2" y="556.2" width="1.3" height="1.3"/>
	<rect x="431.2" y="547.5" width="1.3" height="1.2"/>
	<rect x="431.2" y="553.7" width="1.3" height="1.3"/>
	<rect x="419.9" y="528.8" width="1.2" height="1.3"/>
	<rect x="426.2" y="559.9" width="1.3" height="1.3"/>
	<rect x="423.7" y="559.9" width="1.3" height="1.3"/>
	<rect x="428.7" y="559.9" width="1.3" height="1.3"/>
	<rect x="431.2" y="559.9" width="1.3" height="1.3"/>
	<rect x="427.4" y="528.8" width="1.2" height="1.3"/>
	<rect x="431.2" y="542.5" width="1.3" height="1.3"/>
	<rect x="429.9" y="528.8" width="1.2" height="1.3"/>
	<rect x="431.2" y="528.8" width="1.3" height="1.3"/>
	<rect x="426.2" y="528.8" width="1.3" height="1.3"/>
	<rect x="423.7" y="528.8" width="1.3" height="1.3"/>
	<rect x="424.9" y="528.8" width="1.2" height="1.3"/>
	<rect x="431.2" y="530" width="1.3" height="1.3"/>
	<rect x="428.7" y="528.8" width="1.3" height="1.3"/>
	<rect x="431.2" y="538.7" width="1.3" height="1.3"/>
	<rect x="431.2" y="531.3" width="1.3" height="1.2"/>
	<rect x="431.2" y="541.2" width="1.3" height="1.2"/>
	<rect x="431.2" y="532.5" width="1.3" height="1.3"/>
	<rect x="431.2" y="533.7" width="1.3" height="1.3"/>
	<rect x="431.2" y="536.2" width="1.3" height="1.2"/>
	<rect x="431.2" y="535" width="1.3" height="1.3"/>
	<rect x="403.6" y="552.5" width="1.2" height="1.2"/>
	<rect x="403.6" y="550" width="1.2" height="1.3"/>
	<rect x="403.6" y="556.2" width="1.2" height="1.3"/>
	<rect x="403.6" y="557.4" width="1.2" height="1.2"/>
	<rect x="403.6" y="554.9" width="1.2" height="1.3"/>
	<rect x="404.9" y="557.4" width="1.3" height="1.2"/>
	<rect x="403.6" y="536.2" width="1.2" height="1.2"/>
	<rect x="403.6" y="538.7" width="1.2" height="1.3"/>
	<rect x="403.6" y="533.7" width="1.2" height="1.3"/>
	<rect x="424.9" y="557.4" width="1.2" height="1.2"/>
	<rect x="419.9" y="557.4" width="1.2" height="1.2"/>
	<rect x="407.4" y="557.4" width="1.3" height="1.2"/>
	<rect x="428.7" y="557.4" width="1.3" height="1.2"/>
	<rect x="427.4" y="557.4" width="1.2" height="1.2"/>
	<rect x="428.7" y="554.9" width="1.3" height="1.3"/>
	<rect x="412.4" y="557.4" width="1.3" height="1.2"/>
	<rect x="409.9" y="557.4" width="1.3" height="1.2"/>
	<rect x="416.2" y="557.4" width="1.3" height="1.2"/>
	<rect x="413.7" y="557.4" width="1.2" height="1.2"/>
	<rect x="427.4" y="546.2" width="1.2" height="1.3"/>
	<rect x="427.4" y="545" width="1.2" height="1.3"/>
	<rect x="427.4" y="541.2" width="1.2" height="1.2"/>
	<rect x="427.4" y="542.5" width="1.2" height="1.3"/>
	<rect x="427.4" y="536.2" width="1.2" height="1.2"/>
	<rect x="424.9" y="556.2" width="1.2" height="1.3"/>
	<rect x="411.2" y="532.5" width="1.2" height="1.3"/>
	<rect x="412.4" y="532.5" width="1.3" height="1.3"/>
	<rect x="403.6" y="532.5" width="1.2" height="1.3"/>
	<rect x="427.4" y="533.7" width="1.2" height="1.3"/>
	<rect x="404.9" y="532.5" width="1.3" height="1.3"/>
	<rect x="407.4" y="532.5" width="1.3" height="1.3"/>
	<rect x="409.9" y="532.5" width="1.3" height="1.3"/>
	<rect x="426.2" y="532.5" width="1.3" height="1.3"/>
	<rect x="423.7" y="532.5" width="1.3" height="1.3"/>
	<rect x="429.9" y="557.4" width="1.2" height="1.2"/>
	<rect x="419.9" y="532.5" width="1.2" height="1.3"/>
	<rect x="418.7" y="532.5" width="1.3" height="1.3"/>
	<rect x="427.4" y="532.5" width="1.2" height="1.3"/>
	<rect x="402.4" y="552.5" width="1.3" height="1.2"/>
	<rect x="402.4" y="554.9" width="1.3" height="1.3"/>
	<rect x="402.4" y="550" width="1.3" height="1.3"/>
	<rect x="402.4" y="548.7" width="1.3" height="1.3"/>
	<rect x="402.4" y="556.2" width="1.3" height="1.3"/>
	<rect x="402.4" y="557.4" width="1.3" height="1.2"/>
	<rect x="402.4" y="540" width="1.3" height="1.2"/>
	<rect x="402.4" y="541.2" width="1.3" height="1.2"/>
	<rect x="402.4" y="543.7" width="1.3" height="1.3"/>
	<rect x="422.4" y="558.7" width="1.2" height="1.3"/>
	<rect x="421.2" y="558.7" width="1.3" height="1.3"/>
	<rect x="429.9" y="558.7" width="1.2" height="1.3"/>
	<rect x="428.7" y="558.7" width="1.3" height="1.3"/>
	<rect x="427.4" y="558.7" width="1.2" height="1.3"/>
	<rect x="407.4" y="558.7" width="1.3" height="1.3"/>
	<rect x="417.4" y="558.7" width="1.2" height="1.3"/>
	<rect x="411.2" y="558.7" width="1.2" height="1.3"/>
	<rect x="402.4" y="536.2" width="1.3" height="1.2"/>
	<rect x="416.2" y="558.7" width="1.3" height="1.3"/>
	<rect x="413.7" y="558.7" width="1.2" height="1.3"/>
	<rect x="428.7" y="536.2" width="1.3" height="1.2"/>
	<rect x="428.7" y="538.7" width="1.3" height="1.3"/>
	<rect x="428.7" y="533.7" width="1.3" height="1.3"/>
	<rect x="427.4" y="531.3" width="1.2" height="1.2"/>
	<rect x="426.2" y="531.3" width="1.3" height="1.2"/>
	<rect x="428.7" y="540" width="1.3" height="1.2"/>
	<rect x="428.7" y="531.3" width="1.3" height="1.2"/>
	<rect x="428.7" y="532.5" width="1.3" height="1.3"/>
	<rect x="428.7" y="546.2" width="1.3" height="1.3"/>
	<rect x="428.7" y="547.5" width="1.3" height="1.2"/>
	<rect x="428.7" y="542.5" width="1.3" height="1.3"/>
	<rect x="428.7" y="548.7" width="1.3" height="1.3"/>
	<rect x="407.4" y="531.3" width="1.3" height="1.2"/>
	<rect x="409.9" y="531.3" width="1.3" height="1.2"/>
	<rect x="404.9" y="531.3" width="1.3" height="1.2"/>
	<rect x="423.7" y="531.3" width="1.3" height="1.2"/>
	<rect x="402.4" y="532.5" width="1.3" height="1.3"/>
	<rect x="402.4" y="531.3" width="1.3" height="1.2"/>
	<rect x="403.6" y="531.3" width="1.2" height="1.2"/>
	<rect x="402.4" y="533.7" width="1.3" height="1.3"/>
	<rect x="419.9" y="531.3" width="1.2" height="1.2"/>
	<rect x="412.4" y="531.3" width="1.3" height="1.2"/>
	<rect x="417.4" y="531.3" width="1.2" height="1.2"/>
	<rect x="416.2" y="531.3" width="1.3" height="1.2"/>
</g>
</svg>
