<?xml version="1.0" encoding="utf-8"?>
<!-- Generator: Adobe Illustrator 17.1.0, SVG Export Plug-In . SVG Version: 6.00 Build 0)  -->
<!DOCTYPE svg PUBLIC "-//W3C//DTD SVG 1.1//EN" "http://www.w3.org/Graphics/SVG/1.1/DTD/svg11.dtd">
<svg version="1.1" id="图层_1" xmlns="http://www.w3.org/2000/svg" xmlns:xlink="http://www.w3.org/1999/xlink" x="0px" y="0px"
	 viewBox="0 0 819 597.2" style="enable-background:new 0 0 819 597.2;" xml:space="preserve">
<g>
	<defs>
		<rect id="SVGID_1_" x="5.3" y="153.8" width="300.2" height="439"/>
	</defs>
	<clipPath id="SVGID_2_">
		<use xlink:href="#SVGID_1_"  style="overflow:visible;"/>
	</clipPath>
	<rect x="5.3" y="138.9" style="clip-path:url(#SVGID_2_);fill:#FFFFFF;" width="300.2" height="454.6"/>
	<path style="clip-path:url(#SVGID_2_);fill:#FFC07D;" d="M328.8,326.7c0,0,24.2-13.7,28.9,30c4.7,43.7,16.7,107.3-10.7,174.5
		C319.6,598.5,226.1,695.7,159.4,657C92.8,618.3,271.6,335.4,328.8,326.7z"/>
</g>
<g>
	<defs>
		<rect id="SVGID_3_" x="5.3" y="176" width="214.9" height="416.9"/>
	</defs>
	<clipPath id="SVGID_4_">
		<use xlink:href="#SVGID_3_"  style="overflow:visible;"/>
	</clipPath>
	<path style="clip-path:url(#SVGID_4_);fill:#FFC07D;" d="M-16.7,326.7c0,0-24.1-13.9-29,29.9c-4.9,43.7-17.1,107.2,9.9,174.5
		c27.1,67.4,120.2,165,187,126.6C218.1,619.3,40.4,335.6-16.7,326.7z"/>
</g>
<g>
	<defs>
		<rect id="SVGID_5_" x="5.3" y="284.5" width="131.2" height="308.9"/>
	</defs>
	<clipPath id="SVGID_6_">
		<use xlink:href="#SVGID_5_"  style="overflow:visible;"/>
	</clipPath>
	<g id="形状_10_拷贝_40_" style="clip-path:url(#SVGID_6_);">
		<g>
			<path style="fill:#FF9B48;" d="M76.7,608.3C66.3,472.5-34.2,411.4-34.2,411.4s-20.1-19.4-23.6,3C-72.2,584.7,61,631.6,61,631.6
				S78.9,639.7,76.7,608.3z"/>
		</g>
	</g>
</g>
<g>
	<defs>
		<rect id="SVGID_7_" x="174.2" y="284.5" width="131.2" height="308.9"/>
	</defs>
	<clipPath id="SVGID_8_">
		<use xlink:href="#SVGID_7_"  style="overflow:visible;"/>
	</clipPath>
	<g id="形状_10_拷贝_35_" style="clip-path:url(#SVGID_8_);">
		<g>
			<path style="fill:#FF9B48;" d="M368.5,414.3c-3.4-22.4-23.6-3-23.6-3S244.4,472.5,234,608.3c-2.2,31.5,15.7,23.4,15.7,23.4
				S383,584.7,368.5,414.3z"/>
		</g>
	</g>
</g>
<g>
	<defs>
		<rect id="SVGID_9_" x="5.3" y="232" width="98.1" height="360.9"/>
	</defs>
	<clipPath id="SVGID_10_">
		<use xlink:href="#SVGID_9_"  style="overflow:visible;"/>
	</clipPath>
	<g id="形状_10_拷贝_33_" style="clip-path:url(#SVGID_10_);">
		<g>
			<path style="fill:#FF9B48;" d="M216.1,790.6c0,0-13.2-25.3-23.5-5C125.7,944,238.7,1033,238.7,1033s14.6,13.7,22.3-17.2
				C293.3,882.4,216.1,790.6,216.1,790.6z"/>
		</g>
	</g>
</g>
<g>
	<defs>
		<rect id="SVGID_11_" x="5.3" y="239.1" width="300.2" height="354.3"/>
	</defs>
	<clipPath id="SVGID_12_">
		<use xlink:href="#SVGID_11_"  style="overflow:visible;"/>
	</clipPath>
	<path style="clip-path:url(#SVGID_12_);fill-rule:evenodd;clip-rule:evenodd;fill:#66361F;" d="M160.1,864.9
		c0.8,0.6-97.8-29.2-139.8-139.2c0.3-2.3-44.5,82.7-115.5,116.1c1-4.3,2.2-8.1,2.9-11.1c10.8-47.5,20.3-93.3,36.4-141.1
		C-19.6,582,67.9,542.5,157.4,544c90.4,1.5,176.1,41.1,210.2,142.1c16.1,47.8,30.4,109.3,38.4,145.1c0.4,1.7,1.1,3.9,1.6,5.9
		c-24.2-3.8-67.1-23.3-108.1-106.4C301.6,730.9,280.4,804.4,160.1,864.9z"/>
</g>
<g>
	<defs>
		<rect id="SVGID_13_" x="5.3" y="213.9" width="300.2" height="379.5"/>
	</defs>
	<clipPath id="SVGID_14_">
		<use xlink:href="#SVGID_13_"  style="overflow:visible;"/>
	</clipPath>
	<path style="clip-path:url(#SVGID_14_);fill:#E5432E;" d="M230.2,386.3c3.3-2.8,12.8-12.5,16.6,8.6c3.8,21.1,20.9,88.5-10.2,134.3
		s-87.4,122.6-86.5,30c0.4-39.4,13.7-76.2,29.5-105.6C201,413.8,226.8,389.1,230.2,386.3z"/>
</g>
<g>
	<defs>
		<rect id="SVGID_15_" x="5.3" y="205.4" width="300.2" height="388.1"/>
	</defs>
	<clipPath id="SVGID_16_">
		<use xlink:href="#SVGID_15_"  style="overflow:visible;"/>
	</clipPath>
	<path style="clip-path:url(#SVGID_16_);fill-rule:evenodd;clip-rule:evenodd;fill:#E5432E;" d="M-17.5,709.7
		c3.3-13.2,6.8-27.2,10.6-41.1c25.2-34.2,77.9-88.4,159.5-87.6c94.3,0.9,140.1,52.7,163.4,86.2c3.4,12.8,6.4,25.7,9.4,38.1
		c-22.2-23.8-81.2-75.6-172.8-75.3C70.9,630.4,12.6,680.7-17.5,709.7z"/>
</g>
<g>
	<g id="形状_2_copy_3_副本_4_31_">
		<g>
			<path style="fill-rule:evenodd;clip-rule:evenodd;fill:#CCCCCC;" d="M116.1,245.6c-1.7,3.4-3.2,6.4-4.9,10h2.4
				c0.4-0.9,0.7-1.4,1.2-2.4c1.2,0,2.2,0,3.4,0c-0.3-0.7-0.4-1.3-0.6-1.9h-1.9c0.6-1.1,0.9-1.8,1.7-3.3c0.9,2.6,1.8,5.2,2.6,7.6h2.2
				c-1.2-3.5-2.3-6.5-3.4-10H116.1z M122.7,255.6h2.1l0.4-10l-2,0L122.7,255.6z M125.9,255.6h2.2l0.3-7.5h-2.1L125.9,255.6z
				 M126.3,245.6l-0.1,1.6c0,0,1.6,0,2,0l0.1-1.6C126.6,245.6,126.5,245.6,126.3,245.6z M139.6,248.2c-0.4-0.1-0.8-0.2-1.2-0.2
				c-0.2,0-0.5,0-0.7,0.1c-0.2,0-0.4,0.1-0.6,0.2c-0.2,0.1-0.3,0.2-0.5,0.3c-0.1,0.1-0.3,0.2-0.4,0.4c-0.1,0.1-0.2,0.3-0.3,0.4
				c-0.1-0.2-0.2-0.4-0.3-0.5c-0.1-0.1-0.2-0.2-0.3-0.3c-0.1-0.1-0.3-0.2-0.4-0.3c-0.2-0.1-0.3-0.1-0.5-0.2c-0.2,0-0.4-0.1-0.6-0.1
				c-0.3,0-0.6,0-0.8,0.1c-0.3,0.1-0.5,0.2-0.7,0.3c-0.2,0.1-0.4,0.3-0.5,0.4c-0.1,0.1-0.3,0.3-0.4,0.6l0.1-1.2h-1.9l-0.3,7.5
				c0,0,1.6,0,2,0c0-0.6,0-1.5,0.1-2.6c0.1-1.1,0.1-1.8,0.3-2.2c0.1-0.4,0.3-0.7,0.6-0.9c0.3-0.2,0.5-0.3,0.9-0.3
				c0.2,0,0.3,0,0.5,0.1c0.1,0.1,0.3,0.2,0.4,0.3c0.1,0.1,0.2,0.3,0.2,0.4c0,0.1,0.1,0.3,0.1,0.5c0,0.4,0,1.2-0.1,2.4
				c-0.1,1.2-0.1,1.9-0.1,2.3c0.4,0,1.6,0,2,0l0-2c0-0.7,0.1-1.3,0.1-1.8c0-0.4,0.1-0.8,0.2-1c0.1-0.2,0.2-0.5,0.3-0.7
				c0.1-0.2,0.3-0.3,0.5-0.4c0.2-0.1,0.4-0.1,0.6-0.1c0.2,0,0.4,0,0.6,0.1c0.2,0.1,0.3,0.2,0.4,0.4c0.1,0.2,0.2,0.4,0.2,0.8
				c0,0.3,0,0.7,0,1.1l-0.1,1.7c0,0.7-0.1,1.4-0.1,2c0.4,0,1.7,0,2,0c0-0.6,0-1.4,0.1-2.4c0-1,0.1-1.8,0.1-2.2c0-0.5,0-0.8,0-1
				c0-0.4-0.1-0.8-0.3-1.1C140.2,248.5,139.9,248.3,139.6,248.2z M147.3,248.2c-0.4-0.1-0.9-0.2-1.4-0.2c-0.5,0-0.9,0-1.4,0.1
				c-0.5,0.1-1.7,0.3-1.7,0.3l-0.2,1.4c0,0,2-0.6,2.9-0.6c0.2,0,0.4,0,0.6,0.1c0.2,0.1,0.3,0.1,0.5,0.3c0.1,0.1,0.2,0.3,0.2,0.5
				c0,0.1,0,0.2-0.1,0.3c0,0.1-0.1,0.2-0.2,0.3c-0.1,0.1-0.2,0.2-0.3,0.2c-0.1,0.1-0.3,0.1-0.5,0.2c-0.2,0.1-0.4,0.1-0.6,0.1
				c-0.7,0.2-1.2,0.3-1.6,0.5c-0.4,0.1-0.7,0.3-1,0.5c-0.2,0.2-0.4,0.3-0.5,0.5c-0.1,0.2-0.2,0.4-0.3,0.6c-0.1,0.2-0.1,0.4-0.1,0.6
				c0,0.4,0.1,0.7,0.3,1.1c0.2,0.4,0.5,0.6,0.9,0.8c0.4,0.2,0.9,0.2,1.5,0.2c0.2,0,0.4,0,0.6,0c0.2,0,0.5-0.1,0.8-0.1
				c0.1-0.6,0.2-1,0.3-1.2c-0.3,0.1-0.5,0.2-0.7,0.2c-0.2,0-0.3,0-0.5,0c-0.2,0-0.4,0-0.6-0.1c-0.2-0.1-0.3-0.2-0.4-0.3
				c-0.1-0.1-0.2-0.3-0.2-0.5c0-0.1,0-0.2,0.1-0.4c0-0.1,0.1-0.2,0.2-0.3c0.1-0.1,0.2-0.2,0.4-0.3c0.1-0.1,0.3-0.2,0.5-0.2
				c0.2-0.1,0.4-0.1,0.7-0.2c0.3-0.1,0.5-0.1,0.6-0.2c0.1,0,0.2-0.1,0.3-0.1c0.1,0,0.2-0.1,0.4-0.3l-0.2,3.9h2c0,0,0.1-2.4,0.1-3.5
				c0.1-1.1,0.1-1.9,0.1-2.1c0-0.5-0.1-0.9-0.4-1.2C148,248.5,147.7,248.3,147.3,248.2z M160,248.2c-0.4-0.1-0.8-0.2-1.2-0.2
				c-0.2,0-0.5,0-0.7,0.1c-0.2,0-0.4,0.1-0.6,0.2c-0.2,0.1-0.3,0.2-0.5,0.3c-0.1,0.1-0.3,0.2-0.4,0.4c-0.1,0.1-0.2,0.3-0.3,0.4
				c-0.1-0.2-0.2-0.4-0.3-0.5c-0.1-0.1-0.2-0.2-0.3-0.3c-0.1-0.1-0.3-0.2-0.4-0.3c-0.2-0.1-0.3-0.1-0.5-0.2c-0.2,0-0.4-0.1-0.6-0.1
				c-0.3,0-0.6,0-0.8,0.1c-0.3,0.1-0.5,0.2-0.7,0.3c-0.2,0.1-0.4,0.3-0.5,0.4c-0.1,0.1-0.3,0.3-0.4,0.6l0.1-1.2h-1.9l-0.3,7.5h2
				c0,0,0-1.5,0.1-2.6c0.1-1.1,0.1-1.8,0.3-2.2c0.1-0.4,0.3-0.7,0.6-0.9c0.3-0.2,0.5-0.3,0.9-0.3c0.2,0,0.3,0,0.5,0.1
				c0.1,0.1,0.3,0.2,0.4,0.3c0.1,0.1,0.2,0.3,0.2,0.4c0,0.1,0.1,0.3,0.1,0.5c0,0.4,0,1.2-0.1,2.4c-0.1,1.2-0.1,1.9-0.1,2.3
				c0.4,0,1.6,0,2,0l0-2c0-0.7,0.1-1.3,0.1-1.8c0-0.4,0.1-0.8,0.2-1c0.1-0.2,0.2-0.5,0.3-0.7c0.2-0.2,0.3-0.3,0.5-0.4
				c0.2-0.1,0.4-0.1,0.6-0.1c0.2,0,0.4,0,0.6,0.1c0.2,0.1,0.3,0.2,0.4,0.4c0.1,0.2,0.2,0.4,0.2,0.8c0,0.3,0,0.7,0,1.1l-0.1,1.7
				c0,0.7-0.1,1.4-0.1,2c0.4,0,1.7,0,2,0c0-0.6,0-1.4,0.1-2.4c0-1,0.1-1.8,0.1-2.2c0-0.5,0-0.8,0-1c0-0.4-0.1-0.8-0.3-1.1
				C160.7,248.5,160.4,248.3,160,248.2z M167.7,248.2c-0.4-0.1-0.9-0.2-1.4-0.2c-0.5,0-0.9,0-1.4,0.1c-0.5,0.1-1.7,0.3-1.7,0.3
				l-0.2,1.4c0,0,2-0.6,2.9-0.6c0.2,0,0.4,0,0.6,0.1c0.2,0.1,0.4,0.1,0.5,0.3c0.1,0.1,0.2,0.3,0.2,0.5c0,0.1,0,0.2-0.1,0.3
				c0,0.1-0.1,0.2-0.2,0.3c-0.1,0.1-0.2,0.2-0.3,0.2c-0.1,0.1-0.3,0.1-0.5,0.2c-0.2,0.1-0.4,0.1-0.6,0.1c-0.7,0.2-1.2,0.3-1.6,0.5
				c-0.4,0.1-0.7,0.3-1,0.5c-0.2,0.2-0.4,0.3-0.5,0.5c-0.1,0.2-0.2,0.4-0.3,0.6c-0.1,0.2-0.1,0.4-0.1,0.6c0,0.4,0.1,0.7,0.3,1.1
				c0.2,0.4,0.5,0.6,0.9,0.8c0.4,0.2,0.9,0.2,1.5,0.2c0.2,0,0.4,0,0.6,0c0.2,0,0.5-0.1,0.8-0.1c0.1-0.6,0.2-1,0.4-1.2
				c-0.3,0.1-0.5,0.2-0.7,0.2c-0.2,0-0.3,0-0.5,0c-0.2,0-0.4,0-0.6-0.1c-0.2-0.1-0.3-0.2-0.4-0.3c-0.1-0.1-0.2-0.3-0.2-0.5
				c0-0.1,0-0.2,0.1-0.4c0-0.1,0.1-0.2,0.2-0.3c0.1-0.1,0.2-0.2,0.4-0.3c0.1-0.1,0.3-0.2,0.5-0.2c0.2-0.1,0.4-0.1,0.7-0.2
				c0.3-0.1,0.5-0.1,0.6-0.2c0.1,0,0.2-0.1,0.3-0.1c0.1,0,0.2-0.1,0.4-0.3l-0.2,3.9h2c0,0,0.1-2.4,0.1-3.5c0.1-1.1,0.1-1.9,0.1-2.1
				c0-0.5-0.1-0.9-0.4-1.2C168.5,248.5,168.1,248.3,167.7,248.2z M170,253.6c0,1-0.1,1.6-0.1,2c0.7,0,2,0,2,0s0.1-1.6,0.1-2
				C171.5,253.6,170,253.6,170,253.6z M175.3,250.2c0.2-0.2,0.5-0.4,0.7-0.5c0.3-0.1,0.6-0.2,0.9-0.2c0.5,0,1.1,0.1,1.9,0.4
				l-0.1-1.6c-0.4-0.1-0.8-0.2-1.2-0.2c-0.3,0-0.6-0.1-1-0.1c-0.6,0-1.1,0.1-1.5,0.2c-0.5,0.1-0.9,0.4-1.2,0.7
				c-0.4,0.4-0.7,0.8-0.8,1.4c-0.2,0.6-0.3,1.2-0.3,1.8c0,0.5,0.1,0.9,0.2,1.4c0.1,0.4,0.3,0.8,0.5,1.1c0.2,0.3,0.5,0.6,0.8,0.7
				c0.3,0.2,0.6,0.3,1,0.4c0.4,0.1,0.7,0.1,1.1,0.1c0.7,0,1.3-0.1,2-0.2c0.1-0.4,0.1-0.7,0.2-0.9c0-0.3,0.1-0.5,0.1-0.7
				c-0.3,0.1-0.7,0.2-1,0.3c-0.3,0.1-0.6,0.1-0.8,0.1c-0.4,0-0.8-0.1-1.2-0.3c-0.3-0.2-0.6-0.4-0.7-0.8c-0.1-0.3-0.2-0.7-0.2-1.2
				c0-0.3,0-0.7,0.1-1C174.9,250.7,175.1,250.4,175.3,250.2z M186.2,249c-0.4-0.3-0.8-0.6-1.3-0.7c-0.5-0.2-1-0.3-1.6-0.3
				c-0.6,0-1.2,0.1-1.7,0.3c-0.6,0.2-1,0.5-1.4,0.9c-0.4,0.4-0.6,0.8-0.8,1.3c-0.2,0.5-0.3,1-0.3,1.5c0,0.5,0.1,1,0.3,1.5
				c0.2,0.5,0.5,0.9,0.8,1.2c0.4,0.3,0.8,0.6,1.3,0.8c0.5,0.2,1,0.3,1.6,0.3c0.6,0,1.2-0.1,1.7-0.3c0.5-0.2,1-0.5,1.3-0.9
				c0.4-0.4,0.6-0.8,0.8-1.3c0.2-0.5,0.3-1.1,0.3-1.6c0-0.5-0.1-1-0.3-1.5C186.8,249.7,186.5,249.3,186.2,249z M184.9,253.1
				c-0.2,0.4-0.4,0.7-0.7,0.9c-0.3,0.2-0.7,0.3-1.1,0.3c-0.4,0-0.8-0.1-1.1-0.3c-0.3-0.2-0.5-0.5-0.6-0.8c-0.1-0.3-0.2-0.7-0.2-1.1
				c0-0.5,0.1-0.9,0.2-1.3c0.2-0.4,0.4-0.7,0.7-0.9c0.3-0.2,0.7-0.3,1.1-0.3c0.4,0,0.8,0.1,1.1,0.3c0.3,0.2,0.5,0.5,0.6,0.8
				c0.1,0.3,0.2,0.7,0.2,1.1C185.2,252.2,185.1,252.6,184.9,253.1z M198.9,248.8c-0.2-0.3-0.5-0.5-0.9-0.7c-0.4-0.1-0.8-0.2-1.2-0.2
				c-0.2,0-0.5,0-0.7,0.1c-0.2,0-0.4,0.1-0.6,0.2c-0.2,0.1-0.3,0.2-0.5,0.3c-0.1,0.1-0.3,0.2-0.4,0.4c-0.1,0.1-0.2,0.3-0.3,0.4
				c-0.1-0.2-0.2-0.4-0.3-0.5c-0.1-0.1-0.2-0.2-0.3-0.3c-0.1-0.1-0.3-0.2-0.4-0.3c-0.2-0.1-0.3-0.1-0.5-0.2c-0.2,0-0.4-0.1-0.6-0.1
				c-0.3,0-0.6,0-0.8,0.1c-0.3,0.1-0.5,0.2-0.7,0.3c-0.2,0.1-0.4,0.3-0.5,0.4c-0.1,0.1-0.3,0.3-0.4,0.6l0.1-1.2c-0.3,0-1.5,0-1.9,0
				c0,0.8-0.3,6.6-0.3,7.5c0.4,0,1.6,0,2,0c0-0.6,0-1.5,0.1-2.6c0.1-1.1,0.1-1.8,0.3-2.2c0.1-0.4,0.3-0.7,0.6-0.9
				c0.3-0.2,0.5-0.3,0.9-0.3c0.2,0,0.3,0,0.5,0.1c0.1,0.1,0.3,0.2,0.4,0.3c0.1,0.1,0.2,0.3,0.2,0.4c0,0.1,0,0.3,0,0.5
				c0,0.4,0,1.2-0.1,2.4c-0.1,1.2-0.1,1.9-0.1,2.3c0.4,0,1.6,0,2,0l0-2c0-0.7,0.1-1.3,0.1-1.8c0-0.4,0.1-0.8,0.2-1
				c0.1-0.2,0.2-0.5,0.3-0.7c0.1-0.2,0.3-0.3,0.5-0.4c0.2-0.1,0.4-0.1,0.6-0.1c0.2,0,0.4,0,0.6,0.1c0.2,0.1,0.3,0.2,0.4,0.4
				c0.1,0.2,0.2,0.4,0.2,0.8c0,0.3,0,0.7,0,1.1l-0.1,1.7c0,0.7-0.1,1.4-0.1,2c0.4,0,1.7,0,2,0c0-0.6,0-1.4,0.1-2.4
				c0-1,0.1-1.8,0.1-2.2c0-0.5,0-0.8,0-1C199.2,249.5,199.1,249.1,198.9,248.8z"/>
		</g>
	</g>
	<g id="形状_2_copy_3_副本_5_31_">
		<g>
			<path style="fill-rule:evenodd;clip-rule:evenodd;fill:#FF6600;" d="M119.8,224.7c3,0,6,0,9.1,0c0,4.7,0,9.5,0,13.8
				c0,0.3-0.3,0.7-0.7,0.7c-0.5,0-0.7,0-1.3,0v2.3c0.7,0,1.3,0,2,0c1.7,0,2.9-0.9,2.9-2.4c0-3.6,0-10.7,0-14.4h1v-2.2h-13V224.7z
				 M166.1,234.6c-0.8,0-2.1,0.8-2.1,2.2c2.6,0,6.8-0.1,9.7-0.1c0,0.5,0,1.1,0,1.8c1,0,0.6,0,1.6,0c0.6,0,1.3-0.5,1.3-1.4
				c0-2.4,0-4.2,0-6.6c-0.4,0-0.9,0-1.3,0c0-1.8,0-5.6,0-6.9c0-0.5-0.5-1.2-1.2-1.2h-9.5v2.2h7.3c0,2,0,3.9,0,5.9c-1.7,0-2,0-3.5,0
				c-0.2,0-0.4-0.2-0.4-0.4c0-1,0-2.6,0-3.9c0-0.3-0.3-0.6-0.8-0.6h-2.2v5.2c0,1,0.9,1.8,1.8,1.8c0,0,3.7,0,6.8,0v1.9H166.1z
				 M127.5,235.3c0-2.5,0-6,0-9.3h-7.6v11.9c2.2,0,5,0,5,0C126.9,237.8,127.5,236.7,127.5,235.3z M124.3,235.7c-0.5,0-1.1,0-1.9,0
				v-7.4c0.8,0,1.8,0,2.6,0c0,2.2,0,4.7,0,6.7C125,235.4,124.7,235.7,124.3,235.7z M111.3,223c0,4.3,0,9.8,0,18.4h2.8
				c0-5.4,0-11.2,0-16.8c0.7,0,1.4,0,2.1,0c0,3.2,0,6.1,0,9.1c0,1.2-1.1,1.7-1.1,1.7v2.4c2,0,3.7-2.1,3.7-4c0-3.4,0-7.8,0-11.3
				c-2.5,0-4.5,0-7,0C111.3,222.5,111.3,223,111.3,223z M198.4,230.5c0-1.8,0-5.6,0-6.9c0-0.5-0.5-1.2-1.2-1.2h-9.5v2.2
				c2.4,0,4.9,0,7.3,0v5.9c-1.7,0-2,0-3.5,0c-0.2,0-0.4-0.2-0.4-0.4c0-1,0-2.6,0-3.9c0-0.3-0.3-0.6-0.8-0.6c-0.6,0-1.5,0-2.2,0v5.2
				c0,1,0.9,1.8,1.8,1.8c0,0,3.7,0,6.8,0v1.9h-7.5c-0.8,0-2.2,0.8-2.2,2.1c2.6,0,6.8,0,9.6,0v2c0,0.3-0.3,0.5-0.6,0.5H195
				c0,1,0,1.5,0,2.1h1.7c0.5,0,0.4,0,0.9,0c1.4,0,2-1,2-1.9c0-2.7,0-6.3,0-9C199.2,230.6,198.7,230.6,198.4,230.5z M184.9,237.8
				c1-1.2,1.6-2.5,1.7-5.1c0-2.8,0-5.6,0-8.3c0-0.2-0.3-0.5-0.6-0.5c-1.1,0-2.4,0-3.6,0v-1.3h-2.8c0,0.4,0,0.9,0,1.3
				c-0.3,0-0.7,0-0.9,0v2.2h0.9v6.7c0,2.6,0.8,3.9,1.9,5.1c-1.2,0.9-2.5,1.4-4.2,1.4c-0.2,0-0.5,0-0.7,0c-2.6,0-5.8,0-8.6,0
				c-2.6,0-5.2-0.5-6.1-1.7c0.9-1.3,1.4-2.3,1.7-4.9c0-2.6,0-4.8,0-8.2c0-0.4-0.4-0.7-0.7-0.7c-1.1,0-2.2,0-3.6,0v-1.3
				c-1.1,0-1.6,0-2.7,0v1.3c-0.3,0-0.5,0-0.9,0v2.2c0.4,0,0.6,0,0.9,0c0,2.2,0,4.7,0,6.7c0.2,2.6,1,3.5,2,5c-1.4,1-3.1,1.5-5.2,1.6
				c-2.4,0-4.6,0-7.6,0c0-0.5,0-1.3,0-1.7h7.6v-2.3h-7.6c0-0.5,0-1.1,0-1.7c2.2,0,5,0,5.7,0c0,0,1.8,0,1.9-2.1c0-2.2,0-6.1,0-9
				c-6,0-12.1,0-18.1,0c-0.3,0-0.6,0.3-0.6,0.6c0,0.4,0,7.3,0,10.6c2.5,0,5,0,7.6,0v1.7h-7.6c0,0.7,0,1.5,0,2.3h7.6
				c0,0.6,0,1.1,0,1.7h-8.8c0,0.6,0,1.5,0,2.1c6.6,0,14.9,0,21.3,0c1.7,0,3.9-0.9,5.5-1.9c2,1.6,4.1,1.9,7.7,1.9c1.1,0,2.3,0,3.6,0
				c1.9,0,3.5,0,5,0c3,0,4.9-0.7,6.8-1.8c1.7,1,3.3,1.7,6,1.8v0h4v-2.1h-4C187.5,239.1,186,238.8,184.9,237.8z M142.4,231.5h-4.6
				v-2.3h4.6V231.5z M142.4,226.9h-4.6v-2.3c1.6,0,3.1,0,4.6,0V226.9z M145.9,224.7h4.7v2.3h-4.7V224.7z M145.9,229.2
				c1.6,0,3.1,0,4.6,0c0,0.9,0,1.6,0,2.3h-4.7C145.9,230.9,145.9,229.9,145.9,229.2z M160.9,232.7c-0.1,1.5-0.3,1.9-0.7,2.8
				c-0.4-0.9-0.8-1.3-0.9-2.8c0-2,0-4.7,0-6.7h1.6V232.7z M184,232.7c-0.1,1.4-0.4,2.1-0.7,2.8c-0.4-0.7-0.8-1.5-0.8-2.8
				c0-2.1,0-4.6,0-6.7h1.6C184,228.1,184,230.6,184,232.7z"/>
		</g>
	</g>
</g>
<g>
	<defs>
		<rect id="SVGID_17_" x="4.7" y="356.9" width="281" height="236.5"/>
	</defs>
	<clipPath id="SVGID_18_">
		<use xlink:href="#SVGID_17_"  style="overflow:visible;"/>
	</clipPath>
	<path style="clip-path:url(#SVGID_18_);fill:#E5432E;" d="M83.1,386.2c-3.3-2.8-12.8-12.4-16.6,8.6c-3.8,21.1-20.9,88.4,10.2,134.1
		c31.2,45.7,87.4,122.5,86.5,30c-0.4-39.4-13.7-76.1-29.5-105.5C112.2,413.7,86.4,389,83.1,386.2z"/>
</g>
<rect x="5.3" y="153.8" style="fill:none;stroke:#999999;stroke-miterlimit:10;" width="300.2" height="439.6"/>
<rect x="357.2" y="153.9" style="fill:#FF6600;" width="103.2" height="439.5"/>
<g>
	<path style="fill:#FFFFFF;" d="M389.3,571.7l-0.6-2.2h0l-0.6,2.2h-0.5l-0.9-2.7h0.5l0.6,2.2h0l0.6-2.2h0.5l0.6,2.2h0l0.6-2.2h0.5
		l-0.9,2.7H389.3z"/>
	<path style="fill:#FFFFFF;" d="M393.3,571.7l-0.6-2.2h0l-0.6,2.2h-0.5l-0.9-2.7h0.5l0.6,2.2h0l0.6-2.2h0.5l0.6,2.2h0l0.6-2.2h0.5
		l-0.9,2.7H393.3z"/>
	<path style="fill:#FFFFFF;" d="M397.3,571.7l-0.6-2.2h0l-0.6,2.2h-0.5l-0.9-2.7h0.5l0.6,2.2h0l0.6-2.2h0.5l0.6,2.2h0l0.6-2.2h0.5
		l-0.9,2.7H397.3z"/>
	<path style="fill:#FFFFFF;" d="M399.5,571.1v0.6h-0.6v-0.6H399.5z"/>
	<path style="fill:#FFFFFF;" d="M402.4,571.7c-0.1,0-0.2,0-0.3-0.1c-0.1-0.1-0.1-0.2-0.1-0.3c-0.1,0.1-0.3,0.3-0.4,0.3
		c-0.2,0.1-0.3,0.1-0.5,0.1c-0.1,0-0.2,0-0.3,0s-0.2-0.1-0.3-0.1c-0.1-0.1-0.1-0.1-0.2-0.2c0-0.1-0.1-0.2-0.1-0.4
		c0-0.2,0-0.3,0.1-0.4c0.1-0.1,0.1-0.2,0.2-0.2c0.1-0.1,0.2-0.1,0.3-0.1c0.1,0,0.2-0.1,0.3-0.1c0.1,0,0.2,0,0.4-0.1
		c0.1,0,0.2,0,0.3-0.1c0.1,0,0.2-0.1,0.2-0.1c0,0,0.1-0.1,0.1-0.2c0-0.1,0-0.2-0.1-0.2c0-0.1-0.1-0.1-0.1-0.1
		c-0.1,0-0.1-0.1-0.2-0.1s-0.1,0-0.2,0c-0.2,0-0.3,0-0.5,0.1s-0.2,0.2-0.2,0.4h-0.5c0-0.2,0-0.3,0.1-0.4c0.1-0.1,0.1-0.2,0.3-0.3
		c0.1-0.1,0.2-0.1,0.4-0.2c0.1,0,0.3,0,0.4,0c0.1,0,0.2,0,0.4,0c0.1,0,0.2,0.1,0.3,0.1s0.2,0.1,0.2,0.2c0.1,0.1,0.1,0.2,0.1,0.4v1.4
		c0,0.1,0,0.2,0,0.2c0,0,0.1,0.1,0.1,0.1c0,0,0.1,0,0.1,0v0.3C402.6,571.7,402.5,571.7,402.4,571.7z M401.8,570.4
		c-0.1,0-0.2,0-0.3,0s-0.2,0-0.3,0s-0.2,0-0.3,0.1s-0.1,0.1-0.2,0.2c-0.1,0.1-0.1,0.2-0.1,0.3c0,0.1,0,0.1,0,0.2
		c0,0.1,0.1,0.1,0.1,0.1c0,0,0.1,0.1,0.2,0.1c0.1,0,0.1,0,0.2,0c0.1,0,0.3,0,0.4-0.1s0.2-0.1,0.3-0.2c0.1-0.1,0.1-0.1,0.1-0.2
		c0-0.1,0-0.1,0-0.2v-0.5C401.9,570.3,401.9,570.3,401.8,570.4z"/>
	<path style="fill:#FFFFFF;" d="M403.6,567.9v3.8h-0.5v-3.8H403.6z"/>
	<path style="fill:#FFFFFF;" d="M404.3,568.4v-0.6h0.5v0.6H404.3z M404.8,568.9v2.7h-0.5v-2.7H404.8z"/>
	<path style="fill:#FFFFFF;" d="M405.9,568.9v0.4h0c0.2-0.3,0.5-0.5,0.9-0.5c0.2,0,0.3,0,0.5,0.1s0.2,0.2,0.3,0.4
		c0.1-0.1,0.2-0.3,0.4-0.3c0.1-0.1,0.3-0.1,0.5-0.1c0.1,0,0.3,0,0.4,0c0.1,0,0.2,0.1,0.3,0.1s0.1,0.1,0.2,0.2s0.1,0.2,0.1,0.4v2
		h-0.5v-1.8c0-0.1,0-0.2,0-0.2c0-0.1,0-0.1-0.1-0.2c0-0.1-0.1-0.1-0.2-0.1c-0.1,0-0.2,0-0.3,0c-0.2,0-0.4,0.1-0.5,0.2
		c-0.1,0.1-0.2,0.3-0.2,0.5v1.7h-0.5v-1.8c0-0.1,0-0.2,0-0.2s0-0.1-0.1-0.2s-0.1-0.1-0.2-0.1s-0.1,0-0.3,0c-0.1,0-0.2,0-0.3,0.1
		c-0.1,0.1-0.2,0.1-0.2,0.2c-0.1,0.1-0.1,0.2-0.1,0.2c0,0.1,0,0.1,0,0.2v1.7h-0.5v-2.7H405.9z"/>
	<path style="fill:#FFFFFF;" d="M412.1,571.7c-0.1,0-0.2,0-0.3-0.1c-0.1-0.1-0.1-0.2-0.1-0.3c-0.1,0.1-0.3,0.3-0.4,0.3
		c-0.2,0.1-0.3,0.1-0.5,0.1c-0.1,0-0.2,0-0.3,0s-0.2-0.1-0.3-0.1c-0.1-0.1-0.1-0.1-0.2-0.2c0-0.1-0.1-0.2-0.1-0.4
		c0-0.2,0-0.3,0.1-0.4c0.1-0.1,0.1-0.2,0.2-0.2c0.1-0.1,0.2-0.1,0.3-0.1c0.1,0,0.2-0.1,0.3-0.1c0.1,0,0.2,0,0.4-0.1
		c0.1,0,0.2,0,0.3-0.1c0.1,0,0.2-0.1,0.2-0.1c0,0,0.1-0.1,0.1-0.2c0-0.1,0-0.2-0.1-0.2c0-0.1-0.1-0.1-0.1-0.1
		c-0.1,0-0.1-0.1-0.2-0.1s-0.1,0-0.2,0c-0.2,0-0.3,0-0.5,0.1s-0.2,0.2-0.2,0.4H410c0-0.2,0-0.3,0.1-0.4c0.1-0.1,0.1-0.2,0.3-0.3
		c0.1-0.1,0.2-0.1,0.4-0.2c0.1,0,0.3,0,0.4,0c0.1,0,0.2,0,0.4,0c0.1,0,0.2,0.1,0.3,0.1s0.2,0.1,0.2,0.2c0.1,0.1,0.1,0.2,0.1,0.4v1.4
		c0,0.1,0,0.2,0,0.2c0,0,0.1,0.1,0.1,0.1c0,0,0.1,0,0.1,0v0.3C412.4,571.7,412.2,571.7,412.1,571.7z M411.5,570.4
		c-0.1,0-0.2,0-0.3,0s-0.2,0-0.3,0s-0.2,0-0.3,0.1s-0.1,0.1-0.2,0.2c-0.1,0.1-0.1,0.2-0.1,0.3c0,0.1,0,0.1,0,0.2
		c0,0.1,0.1,0.1,0.1,0.1c0,0,0.1,0.1,0.2,0.1c0.1,0,0.1,0,0.2,0c0.1,0,0.3,0,0.4-0.1s0.2-0.1,0.3-0.2c0.1-0.1,0.1-0.1,0.1-0.2
		c0-0.1,0-0.1,0-0.2v-0.5C411.6,570.3,411.6,570.3,411.5,570.4z"/>
	<path style="fill:#FFFFFF;" d="M413.3,568.9v0.4h0c0.2-0.3,0.5-0.5,0.9-0.5c0.2,0,0.3,0,0.5,0.1s0.2,0.2,0.3,0.4
		c0.1-0.1,0.2-0.3,0.4-0.3c0.1-0.1,0.3-0.1,0.5-0.1c0.1,0,0.3,0,0.4,0c0.1,0,0.2,0.1,0.3,0.1s0.1,0.1,0.2,0.2s0.1,0.2,0.1,0.4v2
		h-0.5v-1.8c0-0.1,0-0.2,0-0.2c0-0.1,0-0.1-0.1-0.2c0-0.1-0.1-0.1-0.2-0.1c-0.1,0-0.2,0-0.3,0c-0.2,0-0.4,0.1-0.5,0.2
		c-0.1,0.1-0.2,0.3-0.2,0.5v1.7h-0.5v-1.8c0-0.1,0-0.2,0-0.2s0-0.1-0.1-0.2s-0.1-0.1-0.2-0.1s-0.1,0-0.3,0c-0.1,0-0.2,0-0.3,0.1
		c-0.1,0.1-0.2,0.1-0.2,0.2c-0.1,0.1-0.1,0.2-0.1,0.2c0,0.1,0,0.1,0,0.2v1.7h-0.5v-2.7H413.3z"/>
	<path style="fill:#FFFFFF;" d="M419.5,571.7c-0.1,0-0.2,0-0.3-0.1c-0.1-0.1-0.1-0.2-0.1-0.3c-0.1,0.1-0.3,0.3-0.4,0.3
		c-0.2,0.1-0.3,0.1-0.5,0.1c-0.1,0-0.2,0-0.3,0s-0.2-0.1-0.3-0.1c-0.1-0.1-0.1-0.1-0.2-0.2c0-0.1-0.1-0.2-0.1-0.4
		c0-0.2,0-0.3,0.1-0.4c0.1-0.1,0.1-0.2,0.2-0.2c0.1-0.1,0.2-0.1,0.3-0.1c0.1,0,0.2-0.1,0.3-0.1c0.1,0,0.2,0,0.4-0.1
		c0.1,0,0.2,0,0.3-0.1c0.1,0,0.2-0.1,0.2-0.1c0,0,0.1-0.1,0.1-0.2c0-0.1,0-0.2-0.1-0.2c0-0.1-0.1-0.1-0.1-0.1
		c-0.1,0-0.1-0.1-0.2-0.1s-0.1,0-0.2,0c-0.2,0-0.3,0-0.5,0.1s-0.2,0.2-0.2,0.4h-0.5c0-0.2,0-0.3,0.1-0.4c0.1-0.1,0.1-0.2,0.3-0.3
		c0.1-0.1,0.2-0.1,0.4-0.2c0.1,0,0.3,0,0.4,0c0.1,0,0.2,0,0.4,0c0.1,0,0.2,0.1,0.3,0.1s0.2,0.1,0.2,0.2c0.1,0.1,0.1,0.2,0.1,0.4v1.4
		c0,0.1,0,0.2,0,0.2c0,0,0.1,0.1,0.1,0.1c0,0,0.1,0,0.1,0v0.3C419.7,571.7,419.6,571.7,419.5,571.7z M418.8,570.4
		c-0.1,0-0.2,0-0.3,0s-0.2,0-0.3,0s-0.2,0-0.3,0.1s-0.1,0.1-0.2,0.2c-0.1,0.1-0.1,0.2-0.1,0.3c0,0.1,0,0.1,0,0.2
		c0,0.1,0.1,0.1,0.1,0.1c0,0,0.1,0.1,0.2,0.1c0.1,0,0.1,0,0.2,0c0.1,0,0.3,0,0.4-0.1s0.2-0.1,0.3-0.2c0.1-0.1,0.1-0.1,0.1-0.2
		c0-0.1,0-0.1,0-0.2v-0.5C419,570.3,418.9,570.3,418.8,570.4z"/>
	<path style="fill:#FFFFFF;" d="M420.9,571.1v0.6h-0.6v-0.6H420.9z"/>
	<path style="fill:#FFFFFF;" d="M423.3,569.4c-0.1-0.1-0.3-0.1-0.5-0.1c-0.2,0-0.3,0-0.4,0.1c-0.1,0.1-0.2,0.1-0.3,0.2
		c-0.1,0.1-0.1,0.2-0.1,0.3s0,0.3,0,0.4c0,0.1,0,0.3,0,0.4c0,0.1,0.1,0.2,0.1,0.3s0.1,0.2,0.2,0.2c0.1,0.1,0.2,0.1,0.4,0.1
		c0.2,0,0.4-0.1,0.5-0.2c0.1-0.1,0.2-0.3,0.2-0.5h0.5c0,0.3-0.2,0.6-0.4,0.8s-0.5,0.3-0.8,0.3c-0.2,0-0.4,0-0.6-0.1
		c-0.2-0.1-0.3-0.2-0.4-0.3c-0.1-0.1-0.2-0.3-0.2-0.4s-0.1-0.4-0.1-0.6c0-0.2,0-0.4,0.1-0.6c0.1-0.2,0.1-0.3,0.2-0.5
		c0.1-0.1,0.2-0.2,0.4-0.3s0.4-0.1,0.6-0.1c0.2,0,0.3,0,0.4,0.1s0.3,0.1,0.4,0.2c0.1,0.1,0.2,0.2,0.3,0.3c0.1,0.1,0.1,0.3,0.1,0.4
		h-0.5C423.5,569.6,423.4,569.5,423.3,569.4z"/>
	<path style="fill:#FFFFFF;" d="M424.5,569.7c0.1-0.2,0.1-0.3,0.3-0.5c0.1-0.1,0.3-0.2,0.4-0.3s0.4-0.1,0.6-0.1c0.2,0,0.4,0,0.6,0.1
		s0.3,0.2,0.4,0.3c0.1,0.1,0.2,0.3,0.3,0.5c0.1,0.2,0.1,0.4,0.1,0.6s0,0.4-0.1,0.6c-0.1,0.2-0.1,0.3-0.3,0.5
		c-0.1,0.1-0.3,0.2-0.4,0.3c-0.2,0.1-0.4,0.1-0.6,0.1c-0.2,0-0.4,0-0.6-0.1c-0.2-0.1-0.3-0.2-0.4-0.3c-0.1-0.1-0.2-0.3-0.3-0.5
		s-0.1-0.4-0.1-0.6S424.4,569.9,424.5,569.7z M424.9,570.7c0,0.1,0.1,0.2,0.2,0.3c0.1,0.1,0.2,0.2,0.3,0.2c0.1,0,0.2,0.1,0.3,0.1
		c0.1,0,0.2,0,0.3-0.1c0.1,0,0.2-0.1,0.3-0.2c0.1-0.1,0.1-0.2,0.2-0.3c0-0.1,0.1-0.3,0.1-0.4s0-0.3-0.1-0.4c0-0.1-0.1-0.2-0.2-0.3
		c-0.1-0.1-0.2-0.2-0.3-0.2c-0.1,0-0.2-0.1-0.3-0.1c-0.1,0-0.2,0-0.3,0.1c-0.1,0-0.2,0.1-0.3,0.2c-0.1,0.1-0.1,0.2-0.2,0.3
		s-0.1,0.3-0.1,0.4S424.9,570.6,424.9,570.7z"/>
	<path style="fill:#FFFFFF;" d="M428,568.9v0.4h0c0.2-0.3,0.5-0.5,0.9-0.5c0.2,0,0.3,0,0.5,0.1s0.2,0.2,0.3,0.4
		c0.1-0.1,0.2-0.3,0.4-0.3c0.1-0.1,0.3-0.1,0.5-0.1c0.1,0,0.3,0,0.4,0c0.1,0,0.2,0.1,0.3,0.1s0.1,0.1,0.2,0.2s0.1,0.2,0.1,0.4v2H431
		v-1.8c0-0.1,0-0.2,0-0.2c0-0.1,0-0.1-0.1-0.2c0-0.1-0.1-0.1-0.2-0.1c-0.1,0-0.2,0-0.3,0c-0.2,0-0.4,0.1-0.5,0.2
		c-0.1,0.1-0.2,0.3-0.2,0.5v1.7h-0.5v-1.8c0-0.1,0-0.2,0-0.2s0-0.1-0.1-0.2s-0.1-0.1-0.2-0.1s-0.1,0-0.3,0c-0.1,0-0.2,0-0.3,0.1
		c-0.1,0.1-0.2,0.1-0.2,0.2c-0.1,0.1-0.1,0.2-0.1,0.2c0,0.1,0,0.1,0,0.2v1.7h-0.5v-2.7H428z"/>
</g>
<g>
	<path style="fill:#FFFFFF;" d="M409.7,283.6c-1,0.3-2.1,0.6-3.3,0.9c-1.1-1.2-2.1-2.3-3.2-3.4c-0.8-0.7-1.4-1.2-1.7-1.4l2.3-1.9
		c0.6,0.5,1.3,0.8,2.1,0.8h4.6v-1.8h2.9v4.8h-5.9c0.2,0.2,0.5,0.5,1,0.9C409,282.9,409.4,283.3,409.7,283.6z M419.4,286.8v3.3h-5
		v4.7h-3.1v-4.7h-6.7v5.3h-2.9v-12.6h2.9v4H419.4z M419.7,280.4c-1.3,1.2-2.5,2.2-3.3,3l-2-2.6c0.1-0.1,0.3-0.2,0.5-0.3
		c1.2-1,2.2-1.9,3-2.6L419.7,280.4z"/>
	<path style="fill:#FFFFFF;" d="M412.7,297v7.1c0.8,0.1,1.8,0.1,2.9,0.1v-6.1h3v16h-3v-6.4c-0.4,0-0.9,0-1.5-0.1c-0.6,0-1.1,0-1.4,0
		v7.5h-3v-7.2c-2.7,1-4.5,3.6-5.4,7.6c-1-0.7-2.1-1.3-3.1-1.9c1.2-4,3.1-6.6,5.6-7.6c-2.3-1-4.3-3.5-5.8-7.5
		c1.1-0.7,2.1-1.3,2.8-1.9c1.5,4.3,3.5,6.7,5.9,7.2V297H412.7z"/>
	<path style="fill:#FFFFFF;" d="M418.5,316.7v18.5h-3.2V327h-3.7l1.7,1.5c-1.6,2.2-3.1,4.3-4.6,6.2l-2.7-2.2c1.7-2,3.2-3.8,4.3-5.4
		h-9.2v-3.6h14.2v-6.7H418.5z"/>
	<path style="fill:#FFFFFF;" d="M409,338.9l-1.2,2.9c-0.7-0.2-1.8-0.6-3.3-1.1c-1.6-0.5-2.8-0.9-3.6-1.2l1.2-2.9
		C404.9,337.6,407.1,338.4,409,338.9z M411.9,354.1H409c-1.6-1.1-2.9-2.2-4-3.3c-0.5,1.2-0.9,2.8-1.2,4.6c-0.4-0.3-1-0.6-2-1.2
		c-0.3-0.2-0.5-0.3-0.7-0.4c0.6-2.4,1.2-4.4,2-5.8c-0.9-1.7-1.6-3.6-2.1-5.7c0.3-0.2,0.6-0.4,1.1-0.6c0.7-0.4,1.2-0.7,1.6-0.9
		c0.4,1.8,0.9,3.2,1.3,4.3c0.9-0.8,1.9-1.7,3-2.6l1.2,1.9V342h2.7V354.1z M409.2,345.2c-1.1,0.9-2,1.8-2.7,2.7
		c0.7,0.9,1.6,1.8,2.7,2.6V345.2z M414.5,338.4c-0.5,0.6-1.2,1.5-2.2,2.6c-0.3,0.3-0.5,0.5-0.6,0.7l-2.5-2.2c0.8-0.8,1.8-1.8,3-3.2
		L414.5,338.4z M415.4,353.6v1.6c-0.9-0.2-1.8-0.3-2.6-0.5c0-0.2,0-0.5,0-1c-0.1-0.6-0.1-1.1-0.1-1.6c-0.1-1.7,0.7-2.5,2.3-2.5h1.2
		v-3.3c-1.8,0-3.2-1.1-4.3-3.2c0.7-0.7,1.4-1.4,2.1-2.1c0.8,1.8,1.9,2.6,3.3,2.4h1.6v9.2h-2.8C415.6,352.6,415.3,352.9,415.4,353.6z
		 M419.5,339c-0.9,1.2-1.8,2.3-2.7,3.3l-2.4-2.2c1-0.9,1.9-2,2.9-3.1L419.5,339z"/>
	<path style="fill:#FFFFFF;" d="M401,362.5v-3.2h7.2c-0.4-0.3-0.8-0.8-1.4-1.5c-0.2-0.3-0.4-0.4-0.5-0.5c0.7-0.2,1.8-0.6,3.3-1.1
		c1.8,2,3.5,3.5,5.3,4.4v-4.1h2.8v5.4c0.3,0.1,0.6,0.2,1.2,0.4c0.3,0.1,0.5,0.2,0.7,0.2l-0.2,3.6c-0.5-0.2-1.1-0.4-1.6-0.6v9.5H415
		v-10.8c-0.2-0.1-0.5-0.3-0.8-0.5l-0.2-0.1v9.7h-10.2c-1.9,0.2-2.8-0.8-2.8-2.9c-0.1-0.9-0.1-2.1-0.1-3.5c1-0.2,1.9-0.4,2.6-0.7
		c0,0.9,0,1.8,0,2.6c-0.1,0.9,0.3,1.4,1.1,1.4v-7.8H401z M408,362.5h-0.9v7.8h0.9V362.5z M411.4,362.5h-1v7.8h1V362.5z"/>
	<path style="fill:#FFFFFF;" d="M419.2,391.6c-0.3,0.1-0.7,0.2-1.4,0.4c-0.6,0.2-1.1,0.3-1.4,0.4v2.3h-2.5v-2.9h-1.5v2.6H410v-2.6
		h-1.6v2.6h-2.5v-2.6h-1.6v3h-2.3v-8H401v-2.9h3.1l-1.3-2.1c0.3-0.3,0.8-0.6,1.6-1c0.6-0.3,1-0.5,1.2-0.7c-1.3-0.7-2.7-1.7-4.1-2.9
		c0.5-0.2,1.1-0.5,1.9-0.8c0.6-0.2,1-0.4,1.2-0.5c1.2,1.1,2.5,1.9,3.9,2.6c0.4-0.3,1-0.6,1.9-1.1c1.1-0.7,2-1.2,2.6-1.6l1.4,2.2
		c-0.9,0.6-1.8,1.1-2.6,1.6c1.1,0.3,2.3,0.5,3.6,0.5v-3.8h2.8v6.7c-1.7-0.1-3.3-0.2-4.7-0.5c1.8,1.1,3.9,2,6.3,2.6l-0.5,3.1
		c-1-0.3-1.9-0.6-2.8-0.9v1.9c0.8-0.2,1.6-0.4,2.5-0.7L419.2,391.6z M405.9,386.8h-1.6v2.2h1.6V386.8z M409.3,383.1
		c1-0.2,1.9-0.4,2.6-0.7c-1.1-0.2-2.2-0.4-3.3-0.9c-0.6,0.3-1.3,0.8-2.3,1.4c-0.8,0.5-1.3,0.8-1.7,1h5.8
		C410.1,383.7,409.7,383.4,409.3,383.1z M410,386.8h-1.6v2.2h1.6V386.8z M413.9,386.8h-1.5v2.2h1.5V386.8z"/>
	<path style="fill:#FFFFFF;" d="M419.5,408.8l-0.5,2.9c-0.9-0.2-1.9-0.5-2.8-0.9v4h-2.7V414c-3.2-0.2-5.7-0.8-7.5-1.7
		c-0.7,0.7-1.5,1.5-2.2,2.4c-1-0.5-1.9-1-2.7-1.4c0.8-1.1,1.6-2,2.4-2.6c-0.9-0.9-1.8-1.9-2.6-3c0.8-0.5,1.5-0.9,2.2-1.4v-2.9h-0.9
		v-2.6h9.2v1.7h2.3v-1.9h2.7v1.9h3.2v2.9h-3.2v1.6h-2.5C415.4,407.8,417.3,408.4,419.5,408.8z M401.1,400v-2.6h8
		c-0.6-0.3-1.1-0.6-1.6-0.9c1.4-0.2,2.8-0.4,4.1-0.6c1.9,0.9,4.5,1.7,7.8,2.6l-0.5,2.9c-1.3-0.4-2.6-0.8-3.9-1.2H401.1z
		 M406.1,409.1c1.2-0.5,2.7-0.9,4.3-1.2c-0.1-0.1-0.2-0.1-0.3-0.2c-0.2-0.2-0.3-0.3-0.4-0.3c0.2-0.1,0.4-0.1,0.7-0.2
		c0.3-0.1,0.4-0.2,0.5-0.2H404C404.7,407.8,405.4,408.5,406.1,409.1z M408.6,403.4h-3.3v1.1h3.3V403.4z M413.5,409.9
		c-1.9,0.1-3.4,0.3-4.7,0.8c1.2,0.4,2.8,0.6,4.7,0.8V409.9z M412.6,406.5c0.3,0.2,0.6,0.3,0.9,0.4v-1.5h-2.3v1.5
		C411.7,406.8,412.1,406.6,412.6,406.5z"/>
	<path style="fill:#FFFFFF;" d="M405.2,434c-2.5,0-3.7-1.1-3.8-3.4c-0.1-0.9-0.1-2.1-0.1-3.6c0.2-0.1,0.5-0.1,0.9-0.2
		c0.6-0.1,1.3-0.3,2.1-0.5c-0.1,0.6-0.1,1.6-0.1,2.8c-0.1,1.1,0.4,1.7,1.6,1.7c0.5,0,1.6,0,3.3,0c2.2,0.1,3.7,0.1,4.6,0.1v-2.7
		c-0.8-0.3-1.6-0.7-2.4-1.1c0.4-0.8,0.9-1.6,1.3-2.4h-11.2v-3h1.1v-2.2h-1.2v-3h15.4v2.2c1,0.3,2,0.4,2.9,0.5l-0.4,3.4
		c-0.2-0.1-0.4-0.1-0.6-0.2c-0.6-0.1-1.2-0.3-1.9-0.5v2.8h-3.3c2.2,1,4.3,1.8,6.2,2.3l-0.7,3.1c-0.3-0.1-0.6-0.2-1.1-0.3
		c-0.5-0.2-0.9-0.3-1.2-0.4v4.7C410.9,434.1,407.1,434,405.2,434z M408,419.5h-2.7v2.2h2.7V419.5z M411.6,427.9
		c-0.6,0.5-1.4,1.1-2.6,2c-0.5,0.4-0.9,0.6-1.2,0.9l-1.7-2.6c1.7-1.1,3-2,4-2.7L411.6,427.9z M413.7,419.5H411v2.2h2.7V419.5z"/>
	<path style="fill:#FFFFFF;" d="M401,445.6v-3h9.5c-0.3-0.2-0.6-0.5-1-0.8c0.2,0,0.5,0,0.8-0.1c0.4-0.1,0.6-0.1,0.8-0.2
		c-1.1,0-2,0-2.7,0c-0.2-0.4-0.3-0.8-0.3-1.2h-4.5c-1.5,0.1-2.3-0.6-2.3-2c-0.1-0.7-0.2-1.4-0.2-2.2c0.1,0,0.2,0,0.4-0.1
		c0.7-0.1,1.5-0.3,2.4-0.5v1.2c0,0.5,0.3,0.7,0.8,0.6h2.6c-0.2-0.5-0.3-1.1-0.5-1.7l3.3-0.2c0,0.1,0,0.2,0.1,0.4
		c0.1,0.4,0.2,0.9,0.3,1.6h3.3v-1.6h2.8v1.6h3.1v2.9h-3.1v1.3h-2.3c1.3,0.9,3.2,1.6,5.6,2.2l-0.4,3.3c-0.3-0.1-0.8-0.3-1.4-0.5
		c-0.7-0.3-1.2-0.4-1.5-0.5v2.3c0.8-0.3,1.7-0.5,2.6-0.9l0.3,3.1c-0.2,0.1-0.4,0.1-0.7,0.2c-0.5,0.2-1.2,0.4-2.2,0.6v2.6h-2.5v-3.1
		h-1.6v2.9h-2.5v-2.9h-1.5v2.9h-2.5v-2.9h-1.6v3.3H402v-8.8H401z M405.9,445.6h-1.6v2.5h1.6V445.6z M409.9,445.6h-1.5v2.5h1.5V445.6
		z M411.1,440.4c0.1,0.3,0.2,0.7,0.2,1.1c0.6-0.1,1.2-0.2,1.8-0.4c0.2,0.2,0.3,0.3,0.5,0.3v-1H411.1z M413.9,445.6h-1.6v2.5h1.6
		V445.6z"/>
	<path style="fill:#FFFFFF;" d="M410.7,466.2c-2.5,0-4.4-0.2-5.7-0.5c-1.2-0.3-2.6-0.9-4.1-1.8c0.7-0.9,1.4-1.9,2.2-2.9
		c1.1,0.8,2.1,1.3,3.1,1.6c0.9,0.2,2.5,0.3,4.6,0.3h6.7v6.7c0.4-0.1,1-0.3,1.8-0.5c0.2-0.1,0.3-0.1,0.3-0.1l0.2,4.2
		c-0.2,0.1-0.6,0.2-1.1,0.3c-0.6,0.1-1,0.2-1.2,0.2v6.1h-3.1v-13.6H410.7z"/>
</g>
<g>
	<defs>
		<rect id="SVGID_19_" x="511.5" y="153.8" width="300.2" height="439"/>
	</defs>
	<clipPath id="SVGID_20_">
		<use xlink:href="#SVGID_19_"  style="overflow:visible;"/>
	</clipPath>
	<rect x="511.5" y="138.9" style="clip-path:url(#SVGID_20_);fill:#FFFFFF;" width="300.2" height="454.6"/>
	<path style="clip-path:url(#SVGID_20_);fill:#FFC07D;" d="M835,326.7c0,0,24.2-13.7,28.9,30c4.7,43.7,16.7,107.3-10.7,174.5
		C825.8,598.5,732.3,695.7,665.7,657C599,618.3,777.8,335.4,835,326.7z"/>
</g>
<g>
	<defs>
		<rect id="SVGID_21_" x="511.5" y="176" width="214.9" height="416.9"/>
	</defs>
	<clipPath id="SVGID_22_">
		<use xlink:href="#SVGID_21_"  style="overflow:visible;"/>
	</clipPath>
	<path style="clip-path:url(#SVGID_22_);fill:#FFBC80;" d="M489.5,326.7c0,0-24.1-13.9-29,29.9c-4.9,43.7-17.1,107.2,9.9,174.5
		c27.1,67.4,120.2,165,187,126.6C724.3,619.3,546.6,335.6,489.5,326.7z"/>
</g>
<g>
	<defs>
		<rect id="SVGID_23_" x="511.5" y="284.5" width="131.2" height="308.9"/>
	</defs>
	<clipPath id="SVGID_24_">
		<use xlink:href="#SVGID_23_"  style="overflow:visible;"/>
	</clipPath>
	<g id="形状_10_拷贝_29_" style="clip-path:url(#SVGID_24_);">
		<g>
			<path style="fill:#FF9B48;" d="M582.9,608.3C572.5,472.5,472,411.4,472,411.4s-20.1-19.4-23.6,3
				C434,584.7,567.2,631.6,567.2,631.6S585.1,639.7,582.9,608.3z"/>
		</g>
	</g>
</g>
<g>
	<defs>
		<rect id="SVGID_25_" x="680.5" y="284.5" width="131.2" height="308.9"/>
	</defs>
	<clipPath id="SVGID_26_">
		<use xlink:href="#SVGID_25_"  style="overflow:visible;"/>
	</clipPath>
	<g id="形状_10_拷贝_36_" style="clip-path:url(#SVGID_26_);">
		<g>
			<path style="fill:#FF9B48;" d="M874.7,414.3c-3.4-22.4-23.6-3-23.6-3s-100.5,61.2-110.9,196.9c-2.2,31.5,15.7,23.4,15.7,23.4
				S889.2,584.7,874.7,414.3z"/>
		</g>
	</g>
</g>
<g>
	<defs>
		<rect id="SVGID_27_" x="511.5" y="232" width="98.1" height="360.9"/>
	</defs>
	<clipPath id="SVGID_28_">
		<use xlink:href="#SVGID_27_"  style="overflow:visible;"/>
	</clipPath>
	<g id="形状_10_拷贝_7_" style="clip-path:url(#SVGID_28_);">
		<g>
			<path style="fill:#FF9B48;" d="M722.3,790.6c0,0-13.2-25.3-23.5-5C631.9,944,744.9,1033,744.9,1033s14.6,13.7,22.3-17.2
				C799.5,882.4,722.3,790.6,722.3,790.6z"/>
		</g>
	</g>
</g>
<g>
	<defs>
		<rect id="SVGID_29_" x="511.5" y="239.1" width="300.2" height="354.3"/>
	</defs>
	<clipPath id="SVGID_30_">
		<use xlink:href="#SVGID_29_"  style="overflow:visible;"/>
	</clipPath>
	<path style="clip-path:url(#SVGID_30_);fill-rule:evenodd;clip-rule:evenodd;fill:#66361F;" d="M666.3,864.9
		c0.8,0.6-97.8-29.2-139.8-139.2c0.3-2.3-44.5,82.7-115.5,116.1c1-4.3,2.2-8.1,2.9-11.1c10.8-47.5,20.3-93.3,36.4-141.1
		C486.6,582,574.1,542.5,663.6,544c90.4,1.5,176.1,41.1,210.2,142.1c16.1,47.8,30.4,109.3,38.4,145.1c0.4,1.7,1.1,3.9,1.6,5.9
		c-24.2-3.8-67.1-23.3-108.1-106.4C807.8,730.9,786.6,804.4,666.3,864.9z"/>
</g>
<g>
	<defs>
		<rect id="SVGID_31_" x="511.5" y="213.9" width="300.2" height="379.5"/>
	</defs>
	<clipPath id="SVGID_32_">
		<use xlink:href="#SVGID_31_"  style="overflow:visible;"/>
	</clipPath>
	<path style="clip-path:url(#SVGID_32_);fill:#E5432E;" d="M736.4,386.3c3.3-2.8,12.8-12.5,16.6,8.6c3.8,21.1,20.9,88.5-10.2,134.3
		c-31.2,45.8-87.4,122.6-86.5,30c0.4-39.4,13.7-76.2,29.5-105.6C707.2,413.8,733,389.1,736.4,386.3z"/>
</g>
<g>
	<defs>
		<rect id="SVGID_33_" x="511.5" y="205.4" width="300.2" height="388.1"/>
	</defs>
	<clipPath id="SVGID_34_">
		<use xlink:href="#SVGID_33_"  style="overflow:visible;"/>
	</clipPath>
	<path style="clip-path:url(#SVGID_34_);fill-rule:evenodd;clip-rule:evenodd;fill:#E5432E;" d="M488.7,709.7
		c3.3-13.2,6.8-27.2,10.6-41.1c25.2-34.2,77.9-88.4,159.5-87.6c94.3,0.9,140.1,52.7,163.4,86.2c3.4,12.8,6.4,25.7,9.4,38.1
		c-22.2-23.8-81.2-75.6-172.8-75.3C577.1,630.4,518.8,680.7,488.7,709.7z"/>
</g>
<g>
	<defs>
		<rect id="SVGID_35_" x="510.9" y="356.9" width="281" height="236.5"/>
	</defs>
	<clipPath id="SVGID_36_">
		<use xlink:href="#SVGID_35_"  style="overflow:visible;"/>
	</clipPath>
	<path style="clip-path:url(#SVGID_36_);fill:#E5432E;" d="M589.3,386.2c-3.3-2.8-12.8-12.4-16.6,8.6s-20.9,88.4,10.2,134.1
		c31.2,45.7,87.4,122.5,86.5,30c-0.4-39.4-13.7-76.1-29.5-105.5C618.4,413.7,592.6,389,589.3,386.2z"/>
</g>
<rect x="511.5" y="153.8" style="fill:none;stroke:#999999;stroke-miterlimit:10;" width="300.2" height="439.6"/>
<g>
	<path style="fill:#EC6C00;" d="M637.2,231.1h-2.7l4.2-8.2h3l4,8.2h-3l-0.6-1.5h-4.2L637.2,231.1z M641.3,227.8l-1.3-3l-1.4,3H641.3
		z"/>
	<path style="fill:#EC6C00;" d="M646.1,231.1v-8.2h2.6v8.2H646.1z"/>
	<path style="fill:#EC6C00;" d="M650.3,224.6v-1.7h2.6v1.7H650.3z M650.3,231.1v-5.7h2.6v5.7H650.3z"/>
	<path style="fill:#EC6C00;" d="M654.4,222.9h2.6v3.3c0.3-0.3,0.7-0.6,1-0.7c0.4-0.2,0.8-0.2,1.3-0.2c0.9,0,1.6,0.3,2.2,0.9
		c0.5,0.6,0.8,1.3,0.8,2.3c0,0.9-0.3,1.5-0.8,2.1c-0.5,0.5-1.2,0.8-2.1,0.8c-0.5,0-0.9-0.1-1.3-0.3c-0.4-0.2-0.7-0.4-1-0.8
		c0,0.2,0,0.4,0,0.5c0,0.2,0,0.3-0.1,0.4h-2.6c0-0.1,0.1-0.2,0.1-0.4c0-0.2,0-0.3,0-0.6V222.9z M659.7,228.3c0-0.5-0.1-0.9-0.4-1.2
		c-0.2-0.3-0.6-0.4-1-0.4c-0.4,0-0.8,0.1-1,0.4c-0.2,0.3-0.3,0.7-0.3,1.2c0,0.5,0.1,0.9,0.3,1.2c0.2,0.3,0.6,0.4,1,0.4
		c0.4,0,0.7-0.1,1-0.4C659.6,229.2,659.7,228.8,659.7,228.3z"/>
	<path style="fill:#EC6C00;" d="M668.1,230.3c-0.2,0.3-0.6,0.6-1,0.7c-0.4,0.2-0.9,0.2-1.4,0.2c-0.8,0-1.4-0.1-1.9-0.4
		c-0.4-0.3-0.7-0.7-0.7-1.2c0-0.7,0.4-1.2,1.1-1.6c0.8-0.3,2-0.5,3.8-0.5c0,0,0,0,0-0.1c0,0,0-0.1,0-0.1c0-0.3-0.1-0.5-0.3-0.7
		c-0.2-0.1-0.4-0.2-0.8-0.2c-0.3,0-0.6,0.1-0.7,0.2c-0.2,0.1-0.3,0.3-0.3,0.5h-2.4c0-0.6,0.3-1.1,0.9-1.4c0.6-0.3,1.5-0.5,2.7-0.5
		c1.2,0,2,0.2,2.6,0.5c0.6,0.4,0.8,0.9,0.8,1.6v2.9c0,0.2,0,0.3,0,0.4c0,0.1,0,0.2,0.1,0.3h-2.4c0-0.1-0.1-0.3-0.1-0.4
		C668.2,230.5,668.1,230.4,668.1,230.3z M668.1,228.6c-0.8,0-1.4,0.1-1.7,0.2c-0.3,0.1-0.5,0.3-0.5,0.6c0,0.2,0.1,0.3,0.2,0.4
		c0.1,0.1,0.4,0.2,0.6,0.2c0.4,0,0.8-0.1,1-0.3C668,229.5,668.1,229.1,668.1,228.6L668.1,228.6z"/>
	<path style="fill:#EC6C00;" d="M672.1,222.9h2.6v3.3c0.3-0.3,0.7-0.6,1-0.7c0.4-0.2,0.8-0.2,1.3-0.2c0.9,0,1.6,0.3,2.2,0.9
		c0.5,0.6,0.8,1.3,0.8,2.3c0,0.9-0.3,1.5-0.8,2.1c-0.5,0.5-1.2,0.8-2.1,0.8c-0.5,0-0.9-0.1-1.3-0.3c-0.4-0.2-0.7-0.4-1-0.8
		c0,0.2,0,0.4,0,0.5c0,0.2,0,0.3-0.1,0.4H672c0-0.1,0.1-0.2,0.1-0.4c0-0.2,0-0.3,0-0.6V222.9z M677.3,228.3c0-0.5-0.1-0.9-0.4-1.2
		c-0.2-0.3-0.6-0.4-1-0.4c-0.4,0-0.8,0.1-1,0.4c-0.2,0.3-0.3,0.7-0.3,1.2c0,0.5,0.1,0.9,0.3,1.2c0.2,0.3,0.6,0.4,1,0.4
		c0.4,0,0.7-0.1,1-0.4C677.2,229.2,677.3,228.8,677.3,228.3z"/>
	<path style="fill:#EC6C00;" d="M685.8,230.3c-0.3,0.3-0.6,0.6-1,0.7c-0.4,0.2-0.9,0.2-1.4,0.2c-0.8,0-1.4-0.1-1.9-0.4
		c-0.4-0.3-0.7-0.7-0.7-1.2c0-0.7,0.4-1.2,1.1-1.6c0.8-0.3,2-0.5,3.8-0.5c0,0,0,0,0-0.1c0,0,0-0.1,0-0.1c0-0.3-0.1-0.5-0.3-0.7
		c-0.2-0.1-0.4-0.2-0.8-0.2c-0.3,0-0.6,0.1-0.7,0.2c-0.2,0.1-0.3,0.3-0.3,0.5h-2.4c0-0.6,0.3-1.1,0.9-1.4c0.6-0.3,1.5-0.5,2.7-0.5
		c1.2,0,2,0.2,2.6,0.5c0.6,0.4,0.8,0.9,0.8,1.6v2.9c0,0.2,0,0.3,0,0.4c0,0.1,0,0.2,0.1,0.3h-2.4c0-0.1-0.1-0.3-0.1-0.4
		C685.8,230.5,685.8,230.4,685.8,230.3z M685.7,228.6c-0.8,0-1.4,0.1-1.7,0.2c-0.3,0.1-0.5,0.3-0.5,0.6c0,0.2,0.1,0.3,0.2,0.4
		c0.2,0.1,0.4,0.2,0.6,0.2c0.4,0,0.8-0.1,1-0.3C685.6,229.5,685.7,229.1,685.7,228.6L685.7,228.6z"/>
	<path style="fill:#EC6C00;" d="M696.4,227.9v-1h3.4v3c-0.5,0.4-1.1,0.7-1.6,0.9c-0.6,0.2-1.1,0.3-1.7,0.3c-0.8,0-1.5-0.2-2.2-0.5
		c-0.7-0.3-1.1-0.8-1.5-1.5c-0.3-0.6-0.5-1.4-0.5-2.2c0-0.8,0.2-1.5,0.5-2.2c0.3-0.7,0.8-1.2,1.4-1.5c0.6-0.3,1.3-0.5,2.1-0.5
		c0.6,0,1.1,0.1,1.6,0.3c0.5,0.2,0.8,0.5,1.1,0.8c0.3,0.3,0.5,0.8,0.6,1.3l-1,0.3c-0.1-0.4-0.3-0.7-0.5-1c-0.2-0.2-0.4-0.4-0.8-0.6
		c-0.3-0.1-0.7-0.2-1.1-0.2c-0.5,0-0.9,0.1-1.3,0.2c-0.4,0.1-0.6,0.3-0.9,0.6c-0.2,0.2-0.4,0.5-0.5,0.8c-0.2,0.5-0.3,1-0.3,1.6
		c0,0.7,0.1,1.3,0.4,1.8c0.2,0.5,0.6,0.8,1.1,1.1c0.5,0.2,1,0.4,1.5,0.4c0.5,0,0.9-0.1,1.4-0.3c0.4-0.2,0.8-0.4,1-0.6v-1.5H696.4z"
		/>
	<path style="fill:#EC6C00;" d="M701.3,231.1v-5.9h0.9v0.9c0.2-0.4,0.4-0.7,0.6-0.8c0.2-0.1,0.4-0.2,0.6-0.2c0.3,0,0.7,0.1,1,0.3
		l-0.3,0.9c-0.2-0.1-0.5-0.2-0.7-0.2c-0.2,0-0.4,0.1-0.6,0.2c-0.2,0.1-0.3,0.3-0.4,0.5c-0.1,0.4-0.2,0.7-0.2,1.2v3.1H701.3z"/>
	<path style="fill:#EC6C00;" d="M704.9,228.2c0-1.1,0.3-1.9,0.9-2.4c0.5-0.4,1.1-0.7,1.8-0.7c0.8,0,1.5,0.3,2,0.8
		c0.5,0.5,0.8,1.3,0.8,2.2c0,0.8-0.1,1.3-0.3,1.8c-0.2,0.4-0.6,0.8-1,1c-0.4,0.2-0.9,0.4-1.4,0.4c-0.8,0-1.5-0.3-2-0.8
		C705.1,229.9,704.9,229.1,704.9,228.2z M705.9,228.2c0,0.8,0.2,1.3,0.5,1.7c0.3,0.4,0.7,0.6,1.2,0.6c0.5,0,0.9-0.2,1.2-0.6
		c0.3-0.4,0.5-0.9,0.5-1.7c0-0.7-0.2-1.3-0.5-1.7c-0.3-0.4-0.7-0.6-1.2-0.6c-0.5,0-0.9,0.2-1.2,0.6
		C706.1,226.8,705.9,227.4,705.9,228.2z"/>
	<path style="fill:#EC6C00;" d="M715.6,231.1v-0.9c-0.5,0.7-1.1,1-1.9,1c-0.3,0-0.7-0.1-1-0.2c-0.3-0.1-0.5-0.3-0.7-0.5
		c-0.1-0.2-0.2-0.4-0.3-0.7c0-0.2-0.1-0.5-0.1-0.9v-3.6h1v3.3c0,0.5,0,0.9,0.1,1c0.1,0.3,0.2,0.5,0.4,0.6c0.2,0.1,0.5,0.2,0.8,0.2
		c0.3,0,0.6-0.1,0.8-0.2c0.3-0.2,0.4-0.4,0.6-0.6c0.1-0.3,0.2-0.6,0.2-1.1v-3.1h1v5.9H715.6z"/>
	<path style="fill:#EC6C00;" d="M718.2,233.3v-8.1h0.9v0.8c0.2-0.3,0.5-0.5,0.7-0.7c0.3-0.1,0.6-0.2,1-0.2c0.5,0,0.9,0.1,1.3,0.4
		c0.4,0.3,0.7,0.6,0.9,1.1c0.2,0.5,0.3,1,0.3,1.5c0,0.6-0.1,1.1-0.3,1.6c-0.2,0.5-0.5,0.8-0.9,1.1c-0.4,0.3-0.8,0.4-1.3,0.4
		c-0.3,0-0.6-0.1-0.9-0.2c-0.3-0.1-0.5-0.3-0.6-0.5v2.9H718.2z M719.1,228.2c0,0.8,0.2,1.3,0.5,1.7c0.3,0.4,0.7,0.5,1.1,0.5
		c0.4,0,0.8-0.2,1.1-0.6c0.3-0.4,0.5-1,0.5-1.7c0-0.7-0.2-1.3-0.5-1.7c-0.3-0.4-0.7-0.6-1.1-0.6c-0.4,0-0.8,0.2-1.1,0.6
		C719.2,226.9,719.1,227.4,719.1,228.2z"/>
</g>
<path style="fill-rule:evenodd;clip-rule:evenodd;fill:#231815;" d="M608.5,238.4c-0.1,0-0.4-0.1-0.5-0.3c-1.5-1.5,0.4-3.2,2.7-4.2
	V231c0.5,0.3,0.8,0.4,0.8,0.4l1.7-1.7l-0.6-1.5c5.1-1.8,7.2-2.4,11.3-3.1l-0.7-0.7l1.2-0.7c2.8,0.9,5.4,1.2,5,3.5
	c0.1-1.6-1.9-2.2-4.9-3l-0.6,0.4l1.1,0.9c-5,0.9-8,1.8-11.7,3.1l0.5,1.3l-1.8,1.8c0.3,0.1,3.5,1.1,6.8-1.2c0,0,0.1,0,0.1-0.1
	c-0.1-0.2-0.3-0.3-0.6-0.6c1,0.1,1.6,0.9,1.5,1.8h-0.5c0-0.3,0-0.6-0.1-0.8c-2.6,1.9-5.6,2.2-8.1,1.3v2.2c-1.2,0.4-3.4,1.8-3.4,3.1
	C607.9,238,608.2,238.2,608.5,238.4z"/>
<path style="fill-rule:evenodd;clip-rule:evenodd;fill:#EC6C00;" d="M618.9,237.8c-2.8,1.4-5.4,2.5-9.5,2.7
	c-5.3-0.1-6.1-3.6-3.6-7.3c2.4-3.7,6.1-7.1,12.1-9.1c1.7-0.6,4.3-1.3,6.7-1.3c3.5,0,7,1.1,6.7,4.5c-0.1,2.6-3.9,6.3-5.8,8.9
	c-0.8,1.1-1,1.9,0.5,1.8c5.2-0.3,10-2.2,14.4-4c-3,2-18.4,9.7-18.4,4.5c0-0.7,0.3-1.4,0.8-2.1c0.5-0.7,1.2-1.5,1.9-2.3
	c1.1-1.2,3.7-4.1,4.5-5.8c1.5-3.3-1.8-3.4-4.7-4.4l-1.2,0.7l0.7,0.7c-4.2,0.7-6.2,1.4-11.3,3.1l0.6,1.5l-1.7,1.7
	c0,0-0.3-0.1-0.8-0.4v2.9c-2.3,1-4.3,2.7-2.7,4.2c0.2,0.1,0.4,0.3,0.5,0.3l0,0C611.3,240,619,237.8,618.9,237.8z"/>
<g>
	<path style="fill:#EC6C00;" d="M635.3,239.1h0.4c0.1,0,0.1,0,0.2,0c0,0,0.1,0,0.1-0.1c0,0,0-0.1,0-0.1c0-0.1,0-0.1-0.1-0.1
		c0,0-0.1-0.1-0.2-0.1h-0.4V239.1z M635.1,239.8v-1.3h0.6c0.1,0,0.2,0,0.3,0c0.1,0,0.1,0.1,0.1,0.1c0,0.1,0.1,0.1,0.1,0.2
		c0,0.1,0,0.2-0.1,0.2c-0.1,0.1-0.1,0.1-0.3,0.1c0,0,0.1,0,0.1,0.1c0,0,0.1,0.1,0.1,0.2l0.2,0.4H636l-0.2-0.3c0-0.1-0.1-0.1-0.1-0.2
		c0,0-0.1-0.1-0.1-0.1c0,0,0,0-0.1,0c0,0,0,0-0.1,0h-0.2v0.6H635.1"/>
	<path style="fill-rule:evenodd;clip-rule:evenodd;fill:#EC6C00;" d="M635.6,240.5c0.7,0,1.2-0.5,1.2-1.2c0-0.7-0.5-1.2-1.2-1.2
		c-0.7,0-1.2,0.5-1.2,1.2C634.4,239.9,634.9,240.5,635.6,240.5z M634.6,239.2c0-0.6,0.5-1,1-1c0.6,0,1,0.5,1,1c0,0.6-0.5,1-1,1
		C635,240.3,634.6,239.8,634.6,239.2"/>
</g>
<g>
	<g>
		<path style="fill-rule:evenodd;clip-rule:evenodd;fill:#EC6C00;" d="M646.2,233.8v6.9c0.5,0,1-0.4,1-0.9v-0.4h0.6
			c0.4,0,0.8-0.6,0.8-0.8c0-0.6,0-0.9,0-1.5c0-0.3-0.3-0.5-0.5-0.6c0.2-0.1,0.5-0.4,0.5-0.7c0-0.8,0-1.1,0-2H646.2z M647.6,236.1
			c0,0.1-0.1,0.3-0.2,0.4c0,0-0.1,0.1-0.1,0.1c0,0,0,0,0,0h0.3v2h-0.4c0-1.3,0-2.6,0-4h0.4V236.1z M651.4,238.3v-3.1H649v4.2h1.2
			c0.2,0,0.4-0.1,0.6-0.2c0.1-0.1,0.2-0.2,0.3-0.2C651.3,238.8,651.4,238.5,651.4,238.3z M650.5,238.7h-0.5V236h0.5V238.7z
			 M648.7,233.8v0.8h2.9v5.2v0.9c0.3,0,1-0.3,1-1v-5.1c0.2,0,0.4-0.6,0.4-0.8H648.7z"/>
		<path style="fill-rule:evenodd;clip-rule:evenodd;fill:#EC6C00;" d="M657.6,239.9v-0.6h2.1c0.3,0,0.6-0.5,0.7-0.8h-2.8V238h1.5
			c0.4,0,1.2-0.6,1.2-0.9v-3.2h-6.6v4.1h2.7v0.5h-2.7v0.8h2.7v0.6h-2.7v0.8h6.2c0.3,0,0.5-0.5,0.7-0.8H657.6z M657.6,236.3h0.5
			c0.1,0,0.2,0,0.2-0.1c0.1-0.1,0.6-0.6,0.6-0.7h-1.4v-0.9h1.5v2.6h-1.5V236.3z M656.4,237.2H655v-0.9h1.5V237.2z M656.4,235.5H655
			v-0.9h0.7h0.7V235.5z"/>
		<path style="fill-rule:evenodd;clip-rule:evenodd;fill:#EC6C00;" d="M662.5,239.9v-1.9h4.2c0.4,0,1.1-0.6,1.1-0.9v-3.1h-6.6v6
			c0,0.5,0.3,1,0.8,1c0.4,0,4.6,0,5,0c0.4,0,0.8-0.6,0.9-0.9H662.5z M666.6,237h-1.4v-2.3h1.4V237z M662.5,234.7h1.5v2.3h-1.5V234.7
			z"/>
		<path style="fill-rule:evenodd;clip-rule:evenodd;fill:#EC6C00;" d="M670.1,239.9v-1.9h4.2c0.4,0,1.1-0.6,1.1-0.9v-3.1h-6.6v6
			c0,0.5,0.3,1,0.8,1c0.4,0,4.6,0,5,0c0.4,0,0.8-0.6,0.9-0.9H670.1z M674.2,237h-1.4v-2.3h1.4V237z M670.1,234.7h1.5v2.3h-1.5V234.7
			z"/>
	</g>
	<g>
		<path style="fill:#EC6C00;" d="M679.9,238.4v-0.2h0.5v0.2h3c0,0-0.1,0.4-0.7,0.4c-0.6,0-2.2,0-2.2,0s0,0.7,0,1.1
			c0,0.8-0.5,0.9-0.5,0.9v-2h-3.5v-0.4H679.9z"/>
		<path style="fill:#EC6C00;" d="M677.8,239.4h0.5c0,0-0.6,0.7-0.7,0.9c-0.2,0.2-0.4,0.5-0.7,0.5c-0.2,0-0.2,0-0.2,0L677.8,239.4z"
			/>
		<path style="fill:#EC6C00;" d="M682.3,239.4h-0.5c0,0,0.6,0.7,0.7,0.9c0.2,0.2,0.4,0.5,0.7,0.5c0.2,0,0.2,0,0.2,0L682.3,239.4z"/>
		<g>
			<path style="fill:#EC6C00;" d="M682.6,234.5c0.6,0,0.8-0.4,0.8-0.4h-3l0.2-0.3h-0.5l-0.2,0.3h-2l0.2-0.3h-0.5l-1.3,1.6h0.5v2.2
				c0,0,0.1,0,0.1,0c0.8,0,0.9-0.1,0.9-0.1s4.1,0,4.7,0c0.6,0,0.7-0.4,0.7-0.4h-2.9v-0.7c0,0,1.6,0,2.3,0c0.6,0,0.7-0.4,0.7-0.4h-3
				v-0.6c0,0,1.6,0,2.3,0c0.6,0,0.7-0.4,0.7-0.4h-3v-0.6C680.4,234.5,682.2,234.5,682.6,234.5z M679.9,237.2h-2.5v-0.6h2.5V237.2z
				 M679.9,236.2h-2.5v-0.6h2.5V236.2z M679.9,235.2h-2.5l0-0.2l0.1-0.2l0.2-0.2h2.2V235.2z"/>
		</g>
	</g>
	<path style="fill:#EC6C00;" d="M684.8,233.9v7h5.9c0.4,0,0.6-0.4,0.6-0.9v-6.1H684.8z M690.7,239.9c0,0.3-0.1,0.5-0.4,0.5h-5.2
		v-6.1h5.6V239.9z"/>
	<path style="fill:#EC6C00;" d="M687.5,236.8l-1.5,2.7c0,0,0.5,0.1,0.7-0.4l1.3-2.3L687.5,236.8z"/>
	<path style="fill:#EC6C00;" d="M689.2,238.9c0,0.1-0.1,0.2-0.2,0.2h-0.5v0.4h0.6c0.4,0,0.5-0.1,0.5-0.6c0,0,0-2.6,0-2.6
		c0.5,0,0.5-0.4,0.5-0.4l-0.5,0v-0.9h-0.5v0.9h-3.3v0.4h3.3V238.9z"/>
</g>
<circle style="fill:none;stroke:#999999;" cx="90.9" cy="182.3" r="4.2"/>
<circle style="fill:none;stroke:#999999;" cx="211.6" cy="182.3" r="4.2"/>
<circle style="fill:none;stroke:#808080;" cx="596.6" cy="181.4" r="4.2"/>
<circle style="fill:none;stroke:#808080;" cx="717.3" cy="181.4" r="4.2"/>
<g>
	<defs>
		<rect id="SVGID_37_" x="70.9" y="-16.2" width="169" height="200.2"/>
	</defs>
	<clipPath id="SVGID_38_">
		<use xlink:href="#SVGID_37_"  style="overflow:visible;"/>
	</clipPath>
	<path style="clip-path:url(#SVGID_38_);fill:none;stroke:#999999;" d="M212.6,166.4c0,90-27.4,163-61.2,163s-61.2-73-61.2-163
		c0-90,27.4-163,61.2-163C183.4,3.4,212.6,76.4,212.6,166.4z"/>
</g>
<g>
	<defs>
		<rect id="SVGID_39_" x="576.8" y="-17.2" width="169" height="200"/>
	</defs>
	<clipPath id="SVGID_40_">
		<use xlink:href="#SVGID_39_"  style="overflow:visible;"/>
	</clipPath>
	<path style="clip-path:url(#SVGID_40_);fill:none;stroke:#999999;" d="M718.5,165.2c0,90-27.4,163-61.2,163s-61.2-73-61.2-163
		c0-90,27.4-163,61.2-163C689.3,2.1,718.5,75.1,718.5,165.2z"/>
</g>
<rect x="390.7" y="519.9" style="fill:#FFFFFF;" width="35.6" height="35.6"/>
<g>
	<rect x="416" y="527.7" width="1.3" height="1.3"/>
	<rect x="417.3" y="529" width="1.2" height="1.2"/>
	<rect x="417.3" y="531.5" width="1.2" height="1.3"/>
	<rect x="411" y="527.7" width="1.3" height="1.3"/>
	<rect x="417.3" y="536.5" width="1.2" height="1.3"/>
	<rect x="417.3" y="542.7" width="1.2" height="1.3"/>
	<rect x="417.3" y="532.7" width="1.2" height="1.2"/>
	<rect x="417.3" y="537.7" width="1.2" height="1.3"/>
	<rect x="408.5" y="527.7" width="1.3" height="1.3"/>
	<rect x="398.5" y="537.7" width="1.2" height="1.3"/>
	<rect x="398.5" y="532.7" width="1.2" height="1.2"/>
	<rect x="398.5" y="541.5" width="1.2" height="1.3"/>
	<rect x="403.5" y="527.7" width="1.2" height="1.3"/>
	<rect x="398.5" y="529" width="1.2" height="1.2"/>
	<rect x="399.7" y="527.7" width="1.3" height="1.3"/>
	<rect x="399.7" y="531.5" width="1.3" height="1.3"/>
	<rect x="399.7" y="529" width="1.3" height="1.2"/>
	<rect x="399.7" y="532.7" width="1.3" height="1.2"/>
	<rect x="399.7" y="536.5" width="1.3" height="1.3"/>
	<rect x="399.7" y="535.2" width="1.3" height="1.3"/>
	<rect x="399.7" y="534" width="1.3" height="1.2"/>
	<rect x="404.7" y="529" width="1.3" height="1.2"/>
	<rect x="411" y="529" width="1.3" height="1.2"/>
	<rect x="413.5" y="529" width="1.3" height="1.2"/>
	<rect x="407.2" y="529" width="1.3" height="1.2"/>
	<rect x="408.5" y="529" width="1.3" height="1.2"/>
	<rect x="408.5" y="546.4" width="1.3" height="1.3"/>
	<rect x="411" y="546.4" width="1.3" height="1.3"/>
	<rect x="406" y="546.4" width="1.2" height="1.3"/>
	<rect x="413.5" y="546.4" width="1.3" height="1.3"/>
	<rect x="404.7" y="546.4" width="1.3" height="1.3"/>
	<rect x="399.7" y="542.7" width="1.3" height="1.3"/>
	<rect x="399.7" y="541.5" width="1.3" height="1.3"/>
	<rect x="399.7" y="540.2" width="1.3" height="1.2"/>
	<rect x="399.7" y="546.4" width="1.3" height="1.3"/>
	<rect x="399.7" y="545.2" width="1.3" height="1.2"/>
	<rect x="404.7" y="548.9" width="1.3" height="1.3"/>
	<rect x="397.2" y="529" width="1.3" height="1.2"/>
	<rect x="397.2" y="537.7" width="1.3" height="1.3"/>
	<rect x="397.2" y="536.5" width="1.3" height="1.3"/>
	<rect x="397.2" y="526.5" width="1.3" height="1.3"/>
	<rect x="397.2" y="534" width="1.3" height="1.2"/>
	<rect x="397.2" y="539" width="1.3" height="1.3"/>
	<rect x="407.2" y="526.5" width="1.3" height="1.3"/>
	<rect x="404.7" y="526.5" width="1.3" height="1.3"/>
	<rect x="408.5" y="526.5" width="1.3" height="1.3"/>
	<rect x="399.7" y="526.5" width="1.3" height="1.3"/>
	<rect x="398.5" y="545.2" width="1.2" height="1.2"/>
	<rect x="397.2" y="540.2" width="1.3" height="1.2"/>
	<rect x="408.5" y="548.9" width="1.3" height="1.3"/>
	<rect x="411" y="548.9" width="1.3" height="1.3"/>
	<rect x="406" y="548.9" width="1.2" height="1.3"/>
	<rect x="399.7" y="548.9" width="1.3" height="1.3"/>
	<rect x="397.2" y="545.2" width="1.3" height="1.2"/>
	<rect x="397.2" y="548.9" width="1.3" height="1.3"/>
	<rect x="397.2" y="547.7" width="1.3" height="1.3"/>
	<rect x="416" y="529" width="1.3" height="1.2"/>
	<rect x="414.8" y="547.7" width="1.2" height="1.3"/>
	<rect x="413.5" y="547.7" width="1.3" height="1.3"/>
	<rect x="411" y="547.7" width="1.3" height="1.3"/>
	<rect x="408.5" y="547.7" width="1.3" height="1.3"/>
	<rect x="418.5" y="547.7" width="1.3" height="1.3"/>
	<rect x="416" y="547.7" width="1.3" height="1.3"/>
	<rect x="418.5" y="546.4" width="1.3" height="1.3"/>
	<rect x="417.3" y="547.7" width="1.2" height="1.3"/>
	<rect x="418.5" y="545.2" width="1.3" height="1.2"/>
	<rect x="399.7" y="547.7" width="1.3" height="1.3"/>
	<rect x="406" y="547.7" width="1.2" height="1.3"/>
	<rect x="407.2" y="547.7" width="1.3" height="1.3"/>
	<rect x="403.5" y="547.7" width="1.2" height="1.3"/>
	<rect x="402.2" y="547.7" width="1.3" height="1.3"/>
	<rect x="418.5" y="541.5" width="1.3" height="1.3"/>
	<rect x="418.5" y="531.5" width="1.3" height="1.3"/>
	<rect x="418.5" y="529" width="1.3" height="1.2"/>
	<rect x="418.5" y="526.5" width="1.3" height="1.3"/>
	<rect x="412.3" y="526.5" width="1.2" height="1.3"/>
	<rect x="413.5" y="526.5" width="1.3" height="1.3"/>
	<rect x="416" y="526.5" width="1.3" height="1.3"/>
	<rect x="418.5" y="539" width="1.3" height="1.3"/>
	<rect x="418.5" y="542.7" width="1.3" height="1.3"/>
	<rect x="418.5" y="544" width="1.3" height="1.3"/>
	<rect x="418.5" y="534" width="1.3" height="1.2"/>
	<rect x="413.5" y="535.2" width="1.3" height="1.3"/>
	<rect x="403.5" y="535.2" width="1.2" height="1.3"/>
	<rect x="409.8" y="532.7" width="1.2" height="1.2"/>
	<rect x="412.3" y="536.5" width="1.2" height="1.3"/>
	<rect x="412.3" y="534" width="1.2" height="1.2"/>
	<rect x="406" y="532.7" width="1.2" height="1.2"/>
	<rect x="413.5" y="537.7" width="1.3" height="1.3"/>
	<rect x="413.5" y="540.2" width="1.3" height="1.2"/>
	<rect x="413.5" y="536.5" width="1.3" height="1.3"/>
	<rect x="413.5" y="531.5" width="1.3" height="1.3"/>
	<rect x="413.5" y="534" width="1.3" height="1.2"/>
	<rect x="403.5" y="541.5" width="1.2" height="1.3"/>
	<rect x="412.3" y="531.5" width="1.2" height="1.3"/>
	<rect x="413.5" y="542.7" width="1.3" height="1.3"/>
	<rect x="406" y="542.7" width="1.2" height="1.3"/>
	<rect x="412.3" y="542.7" width="1.2" height="1.3"/>
	<rect x="411" y="542.7" width="1.3" height="1.3"/>
	<rect x="406" y="535.2" width="1.2" height="1.3"/>
	<rect x="406" y="536.5" width="1.2" height="1.3"/>
	<rect x="407.2" y="535.2" width="1.3" height="1.3"/>
	<rect x="408.5" y="535.2" width="1.3" height="1.3"/>
	<rect x="407.2" y="540.2" width="1.3" height="1.2"/>
	<rect x="406" y="539" width="1.2" height="1.3"/>
	<rect x="409.8" y="535.2" width="1.2" height="1.3"/>
	<rect x="406" y="540.2" width="1.2" height="1.2"/>
	<rect x="406" y="537.7" width="1.2" height="1.3"/>
	<rect x="407.2" y="537.7" width="1.3" height="1.3"/>
	<rect x="408.5" y="537.7" width="1.3" height="1.3"/>
	<rect x="409.8" y="537.7" width="1.2" height="1.3"/>
	<rect x="408.5" y="539" width="1.3" height="1.3"/>
	<rect x="404.7" y="539" width="1.3" height="1.3"/>
	<rect x="404.7" y="535.2" width="1.3" height="1.3"/>
	<rect x="404.7" y="537.7" width="1.3" height="1.3"/>
	<rect x="404.7" y="541.5" width="1.3" height="1.3"/>
	<rect x="408.5" y="541.5" width="1.3" height="1.3"/>
	<rect x="411" y="540.2" width="1.3" height="1.2"/>
	<rect x="411" y="537.7" width="1.3" height="1.3"/>
	<rect x="406" y="534" width="1.2" height="1.2"/>
	<rect x="411" y="539" width="1.3" height="1.3"/>
	<rect x="409.8" y="534" width="1.2" height="1.2"/>
	<rect x="409.8" y="541.5" width="1.2" height="1.3"/>
	<rect x="401" y="541.5" width="1.2" height="1.3"/>
	<rect x="404.7" y="545.2" width="1.3" height="1.2"/>
	<rect x="402.2" y="545.2" width="1.3" height="1.2"/>
	<rect x="403.5" y="530.2" width="1.2" height="1.3"/>
	<rect x="404.7" y="530.2" width="1.3" height="1.3"/>
	<rect x="401" y="535.2" width="1.2" height="1.3"/>
	<rect x="401" y="532.7" width="1.2" height="1.2"/>
	<rect x="402.2" y="530.2" width="1.3" height="1.3"/>
	<rect x="416" y="540.2" width="1.3" height="1.2"/>
	<rect x="416" y="541.5" width="1.3" height="1.3"/>
	<rect x="416" y="542.7" width="1.3" height="1.3"/>
	<rect x="416" y="535.2" width="1.3" height="1.3"/>
	<rect x="416" y="532.7" width="1.3" height="1.2"/>
	<rect x="408.5" y="545.2" width="1.3" height="1.2"/>
	<rect x="407.2" y="545.2" width="1.3" height="1.2"/>
	<rect x="416" y="545.2" width="1.3" height="1.2"/>
	<rect x="413.5" y="545.2" width="1.3" height="1.2"/>
	<rect x="402.2" y="539" width="1.3" height="1.3"/>
	<rect x="402.2" y="544" width="1.3" height="1.3"/>
	<rect x="402.2" y="537.7" width="1.3" height="1.3"/>
	<rect x="408.5" y="531.5" width="1.3" height="1.3"/>
	<rect x="404.7" y="531.5" width="1.3" height="1.3"/>
	<rect x="402.2" y="535.2" width="1.3" height="1.3"/>
	<rect x="402.2" y="531.5" width="1.3" height="1.3"/>
	<rect x="414.8" y="531.5" width="1.2" height="1.3"/>
	<rect x="408.5" y="544" width="1.3" height="1.3"/>
	<rect x="412.3" y="530.2" width="1.2" height="1.3"/>
	<rect x="411" y="530.2" width="1.3" height="1.3"/>
	<rect x="413.5" y="544" width="1.3" height="1.3"/>
	<rect x="414.8" y="542.7" width="1.2" height="1.3"/>
	<rect x="414.8" y="539" width="1.2" height="1.3"/>
	<rect x="419.8" y="536.5" width="1.2" height="1.3"/>
	<rect x="393.5" y="536.5" width="1.2" height="1.3"/>
	<rect x="393.5" y="545.2" width="1.2" height="1.2"/>
	<rect x="393.5" y="541.5" width="1.2" height="1.3"/>
	<rect x="393.5" y="532.7" width="1.2" height="1.2"/>
	<rect x="393.5" y="529" width="1.2" height="1.2"/>
	<rect x="393.5" y="531.5" width="1.2" height="1.3"/>
	<rect x="406" y="552.7" width="1.2" height="1.3"/>
	<rect x="403.5" y="552.7" width="1.2" height="1.3"/>
	<rect x="412.3" y="552.7" width="1.2" height="1.3"/>
	<rect x="409.8" y="552.7" width="1.2" height="1.3"/>
	<rect x="408.5" y="552.7" width="1.3" height="1.3"/>
	<rect x="397.2" y="552.7" width="1.3" height="1.3"/>
	<rect x="393.5" y="552.7" width="1.2" height="1.3"/>
	<rect x="413.5" y="552.7" width="1.3" height="1.3"/>
	<rect x="398.5" y="552.7" width="1.2" height="1.3"/>
	<rect x="394.7" y="552.7" width="1.3" height="1.3"/>
	<rect x="399.7" y="552.7" width="1.3" height="1.3"/>
	<rect x="396" y="552.7" width="1.2" height="1.3"/>
	<rect x="422.3" y="535.2" width="1.2" height="1.3"/>
	<rect x="422.3" y="529" width="1.2" height="1.2"/>
	<rect x="422.3" y="546.4" width="1.2" height="1.3"/>
	<rect x="422.3" y="537.7" width="1.2" height="1.3"/>
	<rect x="422.3" y="547.7" width="1.2" height="1.3"/>
	<rect x="422.3" y="539" width="1.2" height="1.3"/>
	<rect x="422.3" y="542.7" width="1.2" height="1.3"/>
	<rect x="403.5" y="522.8" width="1.2" height="1.3"/>
	<rect x="409.8" y="522.8" width="1.2" height="1.3"/>
	<rect x="408.5" y="522.8" width="1.3" height="1.3"/>
	<rect x="407.2" y="522.8" width="1.3" height="1.3"/>
	<rect x="404.7" y="522.8" width="1.3" height="1.3"/>
	<rect x="399.7" y="522.8" width="1.3" height="1.3"/>
	<rect x="416" y="522.8" width="1.3" height="1.3"/>
	<rect x="412.3" y="522.8" width="1.2" height="1.3"/>
	<rect x="411" y="522.8" width="1.3" height="1.3"/>
	<rect x="394.7" y="521.5" width="1.3" height="1.3"/>
	<rect x="393.5" y="521.5" width="1.2" height="1.3"/>
	<rect x="396" y="521.5" width="1.2" height="1.3"/>
	<rect x="392.2" y="521.5" width="1.3" height="1.3"/>
	<rect x="397.2" y="521.5" width="1.3" height="1.3"/>
	<rect x="392.2" y="526.5" width="1.3" height="1.3"/>
	<rect x="392.2" y="522.8" width="1.3" height="1.3"/>
	<rect x="398.5" y="521.5" width="1.2" height="1.3"/>
	<rect x="392.2" y="524" width="1.3" height="1.2"/>
	<rect x="407.2" y="521.5" width="1.3" height="1.3"/>
	<rect x="408.5" y="521.5" width="1.3" height="1.3"/>
	<rect x="392.2" y="527.7" width="1.3" height="1.3"/>
	<rect x="404.7" y="521.5" width="1.3" height="1.3"/>
	<rect x="399.7" y="521.5" width="1.3" height="1.3"/>
	<rect x="403.5" y="521.5" width="1.2" height="1.3"/>
	<rect x="392.2" y="546.4" width="1.3" height="1.3"/>
	<rect x="392.2" y="545.2" width="1.3" height="1.2"/>
	<rect x="392.2" y="541.5" width="1.3" height="1.3"/>
	<rect x="392.2" y="547.7" width="1.3" height="1.3"/>
	<rect x="392.2" y="548.9" width="1.3" height="1.3"/>
	<rect x="392.2" y="552.7" width="1.3" height="1.3"/>
	<rect x="392.2" y="529" width="1.3" height="1.2"/>
	<rect x="392.2" y="550.2" width="1.3" height="1.2"/>
	<rect x="392.2" y="551.4" width="1.3" height="1.3"/>
	<rect x="392.2" y="534" width="1.3" height="1.2"/>
	<rect x="392.2" y="532.7" width="1.3" height="1.2"/>
	<rect x="392.2" y="539" width="1.3" height="1.3"/>
	<rect x="392.2" y="536.5" width="1.3" height="1.3"/>
	<rect x="392.2" y="525.2" width="1.3" height="1.3"/>
	<rect x="423.5" y="545.2" width="1.3" height="1.2"/>
	<rect x="423.5" y="542.7" width="1.3" height="1.3"/>
	<rect x="423.5" y="547.7" width="1.3" height="1.3"/>
	<rect x="423.5" y="536.5" width="1.3" height="1.3"/>
	<rect x="423.5" y="539" width="1.3" height="1.3"/>
	<rect x="423.5" y="548.9" width="1.3" height="1.3"/>
	<rect x="423.5" y="540.2" width="1.3" height="1.2"/>
	<rect x="423.5" y="546.4" width="1.3" height="1.3"/>
	<rect x="412.3" y="521.5" width="1.2" height="1.3"/>
	<rect x="418.5" y="552.7" width="1.3" height="1.3"/>
	<rect x="416" y="552.7" width="1.3" height="1.3"/>
	<rect x="421" y="552.7" width="1.3" height="1.3"/>
	<rect x="423.5" y="552.7" width="1.3" height="1.3"/>
	<rect x="419.8" y="521.5" width="1.2" height="1.3"/>
	<rect x="423.5" y="535.2" width="1.3" height="1.3"/>
	<rect x="422.3" y="521.5" width="1.2" height="1.3"/>
	<rect x="423.5" y="521.5" width="1.3" height="1.3"/>
	<rect x="418.5" y="521.5" width="1.3" height="1.3"/>
	<rect x="416" y="521.5" width="1.3" height="1.3"/>
	<rect x="417.3" y="521.5" width="1.2" height="1.3"/>
	<rect x="423.5" y="522.8" width="1.3" height="1.3"/>
	<rect x="421" y="521.5" width="1.3" height="1.3"/>
	<rect x="423.5" y="531.5" width="1.3" height="1.3"/>
	<rect x="423.5" y="524" width="1.3" height="1.2"/>
	<rect x="423.5" y="534" width="1.3" height="1.2"/>
	<rect x="423.5" y="525.2" width="1.3" height="1.3"/>
	<rect x="423.5" y="526.5" width="1.3" height="1.3"/>
	<rect x="423.5" y="529" width="1.3" height="1.2"/>
	<rect x="423.5" y="527.7" width="1.3" height="1.3"/>
	<rect x="396" y="545.2" width="1.2" height="1.2"/>
	<rect x="396" y="542.7" width="1.2" height="1.3"/>
	<rect x="396" y="548.9" width="1.2" height="1.3"/>
	<rect x="396" y="550.2" width="1.2" height="1.2"/>
	<rect x="396" y="547.7" width="1.2" height="1.3"/>
	<rect x="397.2" y="550.2" width="1.3" height="1.2"/>
	<rect x="396" y="529" width="1.2" height="1.2"/>
	<rect x="396" y="531.5" width="1.2" height="1.3"/>
	<rect x="396" y="526.5" width="1.2" height="1.3"/>
	<rect x="417.3" y="550.2" width="1.2" height="1.2"/>
	<rect x="412.3" y="550.2" width="1.2" height="1.2"/>
	<rect x="399.7" y="550.2" width="1.3" height="1.2"/>
	<rect x="421" y="550.2" width="1.3" height="1.2"/>
	<rect x="419.8" y="550.2" width="1.2" height="1.2"/>
	<rect x="421" y="547.7" width="1.3" height="1.3"/>
	<rect x="404.7" y="550.2" width="1.3" height="1.2"/>
	<rect x="402.2" y="550.2" width="1.3" height="1.2"/>
	<rect x="408.5" y="550.2" width="1.3" height="1.2"/>
	<rect x="406" y="550.2" width="1.2" height="1.2"/>
	<rect x="419.8" y="539" width="1.2" height="1.3"/>
	<rect x="419.8" y="537.7" width="1.2" height="1.3"/>
	<rect x="419.8" y="534" width="1.2" height="1.2"/>
	<rect x="419.8" y="535.2" width="1.2" height="1.3"/>
	<rect x="419.8" y="529" width="1.2" height="1.2"/>
	<rect x="417.3" y="548.9" width="1.2" height="1.3"/>
	<rect x="403.5" y="525.2" width="1.2" height="1.3"/>
	<rect x="404.7" y="525.2" width="1.3" height="1.3"/>
	<rect x="396" y="525.2" width="1.2" height="1.3"/>
	<rect x="419.8" y="526.5" width="1.2" height="1.3"/>
	<rect x="397.2" y="525.2" width="1.3" height="1.3"/>
	<rect x="399.7" y="525.2" width="1.3" height="1.3"/>
	<rect x="402.2" y="525.2" width="1.3" height="1.3"/>
	<rect x="418.5" y="525.2" width="1.3" height="1.3"/>
	<rect x="416" y="525.2" width="1.3" height="1.3"/>
	<rect x="422.3" y="550.2" width="1.2" height="1.2"/>
	<rect x="412.3" y="525.2" width="1.2" height="1.3"/>
	<rect x="411" y="525.2" width="1.3" height="1.3"/>
	<rect x="419.8" y="525.2" width="1.2" height="1.3"/>
	<rect x="394.7" y="545.2" width="1.3" height="1.2"/>
	<rect x="394.7" y="547.7" width="1.3" height="1.3"/>
	<rect x="394.7" y="542.7" width="1.3" height="1.3"/>
	<rect x="394.7" y="541.5" width="1.3" height="1.3"/>
	<rect x="394.7" y="548.9" width="1.3" height="1.3"/>
	<rect x="394.7" y="550.2" width="1.3" height="1.2"/>
	<rect x="394.7" y="532.7" width="1.3" height="1.2"/>
	<rect x="394.7" y="534" width="1.3" height="1.2"/>
	<rect x="394.7" y="536.5" width="1.3" height="1.3"/>
	<rect x="414.8" y="551.4" width="1.2" height="1.3"/>
	<rect x="413.5" y="551.4" width="1.3" height="1.3"/>
	<rect x="422.3" y="551.4" width="1.2" height="1.3"/>
	<rect x="421" y="551.4" width="1.3" height="1.3"/>
	<rect x="419.8" y="551.4" width="1.2" height="1.3"/>
	<rect x="399.7" y="551.4" width="1.3" height="1.3"/>
	<rect x="409.8" y="551.4" width="1.2" height="1.3"/>
	<rect x="403.5" y="551.4" width="1.2" height="1.3"/>
	<rect x="394.7" y="529" width="1.3" height="1.2"/>
	<rect x="408.5" y="551.4" width="1.3" height="1.3"/>
	<rect x="406" y="551.4" width="1.2" height="1.3"/>
	<rect x="421" y="529" width="1.3" height="1.2"/>
	<rect x="421" y="531.5" width="1.3" height="1.3"/>
	<rect x="421" y="526.5" width="1.3" height="1.3"/>
	<rect x="419.8" y="524" width="1.2" height="1.2"/>
	<rect x="418.5" y="524" width="1.3" height="1.2"/>
	<rect x="421" y="532.7" width="1.3" height="1.2"/>
	<rect x="421" y="524" width="1.3" height="1.2"/>
	<rect x="421" y="525.2" width="1.3" height="1.3"/>
	<rect x="421" y="539" width="1.3" height="1.3"/>
	<rect x="421" y="540.2" width="1.3" height="1.2"/>
	<rect x="421" y="535.2" width="1.3" height="1.3"/>
	<rect x="421" y="541.5" width="1.3" height="1.3"/>
	<rect x="399.7" y="524" width="1.3" height="1.2"/>
	<rect x="402.2" y="524" width="1.3" height="1.2"/>
	<rect x="397.2" y="524" width="1.3" height="1.2"/>
	<rect x="416" y="524" width="1.3" height="1.2"/>
	<rect x="394.7" y="525.2" width="1.3" height="1.3"/>
	<rect x="394.7" y="524" width="1.3" height="1.2"/>
	<rect x="396" y="524" width="1.2" height="1.2"/>
	<rect x="394.7" y="526.5" width="1.3" height="1.3"/>
	<rect x="412.3" y="524" width="1.2" height="1.2"/>
	<rect x="404.7" y="524" width="1.3" height="1.2"/>
	<rect x="409.8" y="524" width="1.2" height="1.2"/>
	<rect x="408.5" y="524" width="1.3" height="1.2"/>
</g>
</svg>
