<?xml version="1.0" encoding="utf-8"?>
<!-- Generator: Adobe Illustrator 17.1.0, SVG Export Plug-In . SVG Version: 6.00 Build 0)  -->
<!DOCTYPE svg PUBLIC "-//W3C//DTD SVG 1.1//EN" "http://www.w3.org/Graphics/SVG/1.1/DTD/svg11.dtd">
<svg version="1.1" id="图层_1" xmlns="http://www.w3.org/2000/svg" xmlns:xlink="http://www.w3.org/1999/xlink" x="0px" y="0px"
	 viewBox="0 0 827.7 604.7" style="enable-background:new 0 0 827.7 604.7;" xml:space="preserve">
<rect x="515.1" y="158.5" style="fill:#FF6600;" width="299.9" height="438.9"/>
<rect x="8.1" y="159" style="fill:#FFFFFF;" width="299.9" height="438.4"/>
<circle style="fill:none;stroke:#D8D8D8;" cx="103.2" cy="186.8" r="4.2"/>
<circle style="fill:none;stroke:#D8D8D8;" cx="223.9" cy="186.8" r="4.2"/>
<circle style="fill:none;stroke:#D8D8D8;" cx="600.4" cy="185.9" r="4.2"/>
<circle style="fill:none;stroke:#D8D8D8;" cx="721.1" cy="185.9" r="4.2"/>
<g>
	<defs>
		<rect id="SVGID_1_" x="83.2" y="-11.7" width="169" height="200.2"/>
	</defs>
	<clipPath id="SVGID_2_">
		<use xlink:href="#SVGID_1_"  style="overflow:visible;"/>
	</clipPath>
	<path style="clip-path:url(#SVGID_2_);fill:none;stroke:#D8D8D8;" d="M224.9,170.9c0,90-27.4,163-61.2,163s-61.2-73-61.2-163
		c0-90,27.4-163,61.2-163C195.7,7.9,224.9,80.9,224.9,170.9z"/>
</g>
<g>
	<defs>
		<rect id="SVGID_3_" x="580.6" y="-12.7" width="169" height="200"/>
	</defs>
	<clipPath id="SVGID_4_">
		<use xlink:href="#SVGID_3_"  style="overflow:visible;"/>
	</clipPath>
	<path style="clip-path:url(#SVGID_4_);fill:none;stroke:#D8D8D8;" d="M722.3,169.6c0,90-27.4,163-61.2,163
		c-33.8,0-61.2-73-61.2-163c0-90,27.4-163,61.2-163C693.1,6.6,722.3,79.6,722.3,169.6z"/>
</g>
<rect x="359.9" y="156.9" style="fill:#FFFFFF;stroke:#D8D8D8;stroke-miterlimit:10;" width="103" height="440.4"/>
<g>
	<path style="fill:#FF6600;" d="M390.9,576.1l-0.6-2.2h0l-0.5,2.2h-0.5l-0.9-2.7h0.5l0.6,2.2h0l0.5-2.2h0.5l0.6,2.2h0l0.6-2.2h0.5
		l-0.9,2.7H390.9z"/>
	<path style="fill:#FF6600;" d="M394.9,576.1l-0.6-2.2h0l-0.5,2.2h-0.5l-0.9-2.7h0.5l0.6,2.2h0l0.5-2.2h0.5l0.6,2.2h0l0.6-2.2h0.5
		l-0.9,2.7H394.9z"/>
	<path style="fill:#FF6600;" d="M398.9,576.1l-0.6-2.2h0l-0.5,2.2h-0.5l-0.9-2.7h0.5l0.6,2.2h0l0.5-2.2h0.5l0.6,2.2h0l0.6-2.2h0.5
		l-0.9,2.7H398.9z"/>
	<path style="fill:#FF6600;" d="M401.1,575.5v0.6h-0.6v-0.6H401.1z"/>
	<path style="fill:#FF6600;" d="M403.9,576.2c-0.1,0-0.2,0-0.3-0.1c-0.1-0.1-0.1-0.2-0.1-0.3c-0.1,0.1-0.3,0.3-0.4,0.3
		c-0.2,0.1-0.3,0.1-0.5,0.1c-0.1,0-0.2,0-0.3,0s-0.2-0.1-0.3-0.1c-0.1-0.1-0.1-0.1-0.2-0.2s-0.1-0.2-0.1-0.4c0-0.2,0-0.3,0.1-0.4
		s0.1-0.2,0.2-0.2c0.1-0.1,0.2-0.1,0.3-0.1c0.1,0,0.2-0.1,0.3-0.1c0.1,0,0.2,0,0.4-0.1c0.1,0,0.2,0,0.3-0.1c0.1,0,0.2-0.1,0.2-0.1
		c0,0,0.1-0.1,0.1-0.2c0-0.1,0-0.2-0.1-0.2c0-0.1-0.1-0.1-0.1-0.1c-0.1,0-0.1-0.1-0.2-0.1s-0.1,0-0.2,0c-0.2,0-0.3,0-0.5,0.1
		s-0.2,0.2-0.2,0.4h-0.5c0-0.2,0-0.3,0.1-0.4s0.1-0.2,0.3-0.3c0.1-0.1,0.2-0.1,0.4-0.2c0.1,0,0.3,0,0.4,0c0.1,0,0.2,0,0.4,0
		s0.2,0.1,0.3,0.1c0.1,0.1,0.2,0.1,0.2,0.2c0.1,0.1,0.1,0.2,0.1,0.4v1.4c0,0.1,0,0.2,0,0.2c0,0,0.1,0.1,0.1,0.1c0,0,0.1,0,0.1,0v0.3
		C404.2,576.2,404.1,576.2,403.9,576.2z M403.3,574.8c-0.1,0-0.2,0-0.3,0c-0.1,0-0.2,0-0.3,0c-0.1,0-0.2,0-0.3,0.1s-0.1,0.1-0.2,0.2
		c-0.1,0.1-0.1,0.2-0.1,0.3c0,0.1,0,0.1,0,0.2c0,0.1,0.1,0.1,0.1,0.1c0,0,0.1,0.1,0.2,0.1c0.1,0,0.1,0,0.2,0c0.1,0,0.3,0,0.4-0.1
		c0.1,0,0.2-0.1,0.3-0.2c0.1-0.1,0.1-0.1,0.1-0.2c0-0.1,0-0.1,0-0.2v-0.5C403.5,574.8,403.4,574.8,403.3,574.8z"/>
	<path style="fill:#FF6600;" d="M405.2,572.3v3.8h-0.4v-3.8H405.2z"/>
	<path style="fill:#FF6600;" d="M405.9,572.9v-0.6h0.4v0.6H405.9z M406.3,573.4v2.7h-0.4v-2.7H406.3z"/>
	<path style="fill:#FF6600;" d="M407.5,573.4v0.4h0c0.2-0.3,0.5-0.5,0.9-0.5c0.2,0,0.3,0,0.5,0.1s0.2,0.2,0.3,0.4
		c0.1-0.1,0.2-0.3,0.4-0.3c0.1-0.1,0.3-0.1,0.5-0.1c0.1,0,0.3,0,0.4,0c0.1,0,0.2,0.1,0.3,0.1c0.1,0.1,0.1,0.1,0.2,0.2
		s0.1,0.2,0.1,0.4v2h-0.5v-1.8c0-0.1,0-0.2,0-0.2c0-0.1,0-0.1-0.1-0.2c0-0.1-0.1-0.1-0.2-0.1c-0.1,0-0.2,0-0.3,0
		c-0.2,0-0.4,0.1-0.5,0.2s-0.2,0.3-0.2,0.5v1.7h-0.4v-1.8c0-0.1,0-0.2,0-0.2c0-0.1,0-0.1-0.1-0.2c0-0.1-0.1-0.1-0.2-0.1
		s-0.1,0-0.3,0c-0.1,0-0.2,0-0.3,0.1c-0.1,0.1-0.2,0.1-0.2,0.2c-0.1,0.1-0.1,0.2-0.1,0.2c0,0.1,0,0.1,0,0.2v1.7H407v-2.7H407.5z"/>
	<path style="fill:#FF6600;" d="M413.6,576.2c-0.1,0-0.2,0-0.3-0.1c-0.1-0.1-0.1-0.2-0.1-0.3c-0.1,0.1-0.3,0.3-0.4,0.3
		c-0.2,0.1-0.3,0.1-0.5,0.1c-0.1,0-0.2,0-0.3,0s-0.2-0.1-0.3-0.1c-0.1-0.1-0.1-0.1-0.2-0.2s-0.1-0.2-0.1-0.4c0-0.2,0-0.3,0.1-0.4
		s0.1-0.2,0.2-0.2c0.1-0.1,0.2-0.1,0.3-0.1c0.1,0,0.2-0.1,0.3-0.1c0.1,0,0.2,0,0.4-0.1c0.1,0,0.2,0,0.3-0.1c0.1,0,0.2-0.1,0.2-0.1
		c0,0,0.1-0.1,0.1-0.2c0-0.1,0-0.2-0.1-0.2c0-0.1-0.1-0.1-0.1-0.1c-0.1,0-0.1-0.1-0.2-0.1s-0.1,0-0.2,0c-0.2,0-0.3,0-0.5,0.1
		s-0.2,0.2-0.2,0.4h-0.5c0-0.2,0-0.3,0.1-0.4s0.1-0.2,0.3-0.3c0.1-0.1,0.2-0.1,0.4-0.2c0.1,0,0.3,0,0.4,0c0.1,0,0.2,0,0.4,0
		s0.2,0.1,0.3,0.1c0.1,0.1,0.2,0.1,0.2,0.2c0.1,0.1,0.1,0.2,0.1,0.4v1.4c0,0.1,0,0.2,0,0.2c0,0,0.1,0.1,0.1,0.1c0,0,0.1,0,0.1,0v0.3
		C413.9,576.2,413.8,576.2,413.6,576.2z M413,574.8c-0.1,0-0.2,0-0.3,0c-0.1,0-0.2,0-0.3,0c-0.1,0-0.2,0-0.3,0.1s-0.1,0.1-0.2,0.2
		c-0.1,0.1-0.1,0.2-0.1,0.3c0,0.1,0,0.1,0,0.2c0,0.1,0.1,0.1,0.1,0.1c0,0,0.1,0.1,0.2,0.1c0.1,0,0.1,0,0.2,0c0.1,0,0.3,0,0.4-0.1
		c0.1,0,0.2-0.1,0.3-0.2c0.1-0.1,0.1-0.1,0.1-0.2c0-0.1,0-0.1,0-0.2v-0.5C413.2,574.8,413.1,574.8,413,574.8z"/>
	<path style="fill:#FF6600;" d="M414.8,573.4v0.4h0c0.2-0.3,0.5-0.5,0.9-0.5c0.2,0,0.3,0,0.5,0.1s0.2,0.2,0.3,0.4
		c0.1-0.1,0.2-0.3,0.4-0.3c0.1-0.1,0.3-0.1,0.5-0.1c0.1,0,0.3,0,0.4,0c0.1,0,0.2,0.1,0.3,0.1c0.1,0.1,0.1,0.1,0.2,0.2
		s0.1,0.2,0.1,0.4v2h-0.5v-1.8c0-0.1,0-0.2,0-0.2c0-0.1,0-0.1-0.1-0.2c0-0.1-0.1-0.1-0.2-0.1c-0.1,0-0.2,0-0.3,0
		c-0.2,0-0.4,0.1-0.5,0.2s-0.2,0.3-0.2,0.5v1.7h-0.4v-1.8c0-0.1,0-0.2,0-0.2c0-0.1,0-0.1-0.1-0.2c0-0.1-0.1-0.1-0.2-0.1
		s-0.1,0-0.3,0c-0.1,0-0.2,0-0.3,0.1c-0.1,0.1-0.2,0.1-0.2,0.2c-0.1,0.1-0.1,0.2-0.1,0.2c0,0.1,0,0.1,0,0.2v1.7h-0.4v-2.7H414.8z"/>
	<path style="fill:#FF6600;" d="M421,576.2c-0.1,0-0.2,0-0.3-0.1c-0.1-0.1-0.1-0.2-0.1-0.3c-0.1,0.1-0.3,0.3-0.4,0.3
		c-0.2,0.1-0.3,0.1-0.5,0.1c-0.1,0-0.2,0-0.3,0s-0.2-0.1-0.3-0.1c-0.1-0.1-0.1-0.1-0.2-0.2s-0.1-0.2-0.1-0.4c0-0.2,0-0.3,0.1-0.4
		s0.1-0.2,0.2-0.2c0.1-0.1,0.2-0.1,0.3-0.1c0.1,0,0.2-0.1,0.3-0.1c0.1,0,0.2,0,0.4-0.1c0.1,0,0.2,0,0.3-0.1c0.1,0,0.2-0.1,0.2-0.1
		c0,0,0.1-0.1,0.1-0.2c0-0.1,0-0.2-0.1-0.2c0-0.1-0.1-0.1-0.1-0.1c-0.1,0-0.1-0.1-0.2-0.1s-0.1,0-0.2,0c-0.2,0-0.3,0-0.5,0.1
		s-0.2,0.2-0.2,0.4h-0.5c0-0.2,0-0.3,0.1-0.4s0.1-0.2,0.3-0.3c0.1-0.1,0.2-0.1,0.4-0.2c0.1,0,0.3,0,0.4,0c0.1,0,0.2,0,0.4,0
		s0.2,0.1,0.3,0.1c0.1,0.1,0.2,0.1,0.2,0.2c0.1,0.1,0.1,0.2,0.1,0.4v1.4c0,0.1,0,0.2,0,0.2c0,0,0.1,0.1,0.1,0.1c0,0,0.1,0,0.1,0v0.3
		C421.2,576.2,421.1,576.2,421,576.2z M420.4,574.8c-0.1,0-0.2,0-0.3,0c-0.1,0-0.2,0-0.3,0c-0.1,0-0.2,0-0.3,0.1s-0.1,0.1-0.2,0.2
		c-0.1,0.1-0.1,0.2-0.1,0.3c0,0.1,0,0.1,0,0.2c0,0.1,0.1,0.1,0.1,0.1c0,0,0.1,0.1,0.2,0.1c0.1,0,0.1,0,0.2,0c0.1,0,0.3,0,0.4-0.1
		c0.1,0,0.2-0.1,0.3-0.2c0.1-0.1,0.1-0.1,0.1-0.2c0-0.1,0-0.1,0-0.2v-0.5C420.5,574.8,420.5,574.8,420.4,574.8z"/>
	<path style="fill:#FF6600;" d="M422.4,575.5v0.6h-0.6v-0.6H422.4z"/>
	<path style="fill:#FF6600;" d="M424.8,573.9c-0.1-0.1-0.3-0.1-0.5-0.1c-0.2,0-0.3,0-0.4,0.1c-0.1,0.1-0.2,0.1-0.3,0.2
		c-0.1,0.1-0.1,0.2-0.1,0.3s0,0.3,0,0.4c0,0.1,0,0.2,0,0.4c0,0.1,0.1,0.2,0.1,0.3s0.1,0.2,0.2,0.2c0.1,0.1,0.2,0.1,0.4,0.1
		c0.2,0,0.4-0.1,0.5-0.2s0.2-0.3,0.2-0.5h0.5c0,0.3-0.2,0.6-0.4,0.8c-0.2,0.2-0.5,0.3-0.8,0.3c-0.2,0-0.4,0-0.6-0.1
		c-0.2-0.1-0.3-0.2-0.4-0.3c-0.1-0.1-0.2-0.3-0.2-0.4s-0.1-0.4-0.1-0.6s0-0.4,0.1-0.6c0.1-0.2,0.1-0.3,0.2-0.5
		c0.1-0.1,0.2-0.2,0.4-0.3s0.4-0.1,0.6-0.1c0.2,0,0.3,0,0.4,0.1c0.1,0,0.3,0.1,0.4,0.2c0.1,0.1,0.2,0.2,0.3,0.3
		c0.1,0.1,0.1,0.3,0.1,0.4h-0.5C425,574.1,425,574,424.8,573.9z"/>
	<path style="fill:#FF6600;" d="M426,574.2c0.1-0.2,0.1-0.3,0.3-0.5c0.1-0.1,0.3-0.2,0.4-0.3c0.2-0.1,0.4-0.1,0.6-0.1
		c0.2,0,0.4,0,0.6,0.1s0.3,0.2,0.4,0.3c0.1,0.1,0.2,0.3,0.3,0.5c0.1,0.2,0.1,0.4,0.1,0.6c0,0.2,0,0.4-0.1,0.6
		c-0.1,0.2-0.1,0.3-0.3,0.5c-0.1,0.1-0.3,0.2-0.4,0.3s-0.4,0.1-0.6,0.1c-0.2,0-0.4,0-0.6-0.1c-0.2-0.1-0.3-0.2-0.4-0.3
		c-0.1-0.1-0.2-0.3-0.3-0.5c-0.1-0.2-0.1-0.4-0.1-0.6C425.9,574.6,425.9,574.4,426,574.2z M426.4,575.2c0,0.1,0.1,0.2,0.2,0.3
		c0.1,0.1,0.2,0.2,0.3,0.2s0.2,0.1,0.3,0.1c0.1,0,0.2,0,0.3-0.1c0.1,0,0.2-0.1,0.3-0.2c0.1-0.1,0.1-0.2,0.2-0.3s0.1-0.3,0.1-0.4
		c0-0.2,0-0.3-0.1-0.4s-0.1-0.2-0.2-0.3s-0.2-0.2-0.3-0.2c-0.1,0-0.2-0.1-0.3-0.1c-0.1,0-0.2,0-0.3,0.1s-0.2,0.1-0.3,0.2
		s-0.1,0.2-0.2,0.3s-0.1,0.3-0.1,0.4C426.4,574.9,426.4,575.1,426.4,575.2z"/>
	<path style="fill:#FF6600;" d="M429.5,573.4v0.4h0c0.2-0.3,0.5-0.5,0.9-0.5c0.2,0,0.3,0,0.5,0.1s0.2,0.2,0.3,0.4
		c0.1-0.1,0.2-0.3,0.4-0.3c0.1-0.1,0.3-0.1,0.5-0.1c0.1,0,0.3,0,0.4,0c0.1,0,0.2,0.1,0.3,0.1c0.1,0.1,0.1,0.1,0.2,0.2
		s0.1,0.2,0.1,0.4v2h-0.5v-1.8c0-0.1,0-0.2,0-0.2c0-0.1,0-0.1-0.1-0.2c0-0.1-0.1-0.1-0.2-0.1c-0.1,0-0.2,0-0.3,0
		c-0.2,0-0.4,0.1-0.5,0.2s-0.2,0.3-0.2,0.5v1.7h-0.4v-1.8c0-0.1,0-0.2,0-0.2c0-0.1,0-0.1-0.1-0.2c0-0.1-0.1-0.1-0.2-0.1
		s-0.1,0-0.3,0c-0.1,0-0.2,0-0.3,0.1c-0.1,0.1-0.2,0.1-0.2,0.2c-0.1,0.1-0.1,0.2-0.1,0.2c0,0.1,0,0.1,0,0.2v1.7h-0.4v-2.7H429.5z"/>
</g>
<g>
	<path style="fill:#FF6600;" d="M412.1,288.7c-1,0.3-2.1,0.6-3.3,0.9c-1.1-1.2-2.1-2.3-3.2-3.4c-0.8-0.7-1.4-1.2-1.7-1.4l2.3-1.9
		c0.6,0.5,1.3,0.8,2.1,0.8h4.6v-1.8h2.9v4.8H410c0.2,0.2,0.5,0.5,1,0.9C411.5,288,411.8,288.4,412.1,288.7z M421.9,291.9v3.3h-5v4.7
		h-3.1v-4.7h-6.7v5.3h-2.9v-12.6h2.9v4H421.9z M422.1,285.5c-1.3,1.2-2.5,2.2-3.3,3l-2-2.6c0.1-0.1,0.3-0.2,0.5-0.3
		c1.2-1,2.2-1.9,3-2.6L422.1,285.5z"/>
	<path style="fill:#FF6600;" d="M415.1,302.1v7.1c0.8,0.1,1.8,0.1,2.9,0.1v-6.1h3v16h-3v-6.4c-0.4,0-0.9,0-1.5-0.1
		c-0.6,0-1.1,0-1.4,0v7.5h-3V313c-2.7,1-4.5,3.6-5.3,7.6c-1-0.7-2.1-1.3-3.1-1.9c1.2-4,3.1-6.6,5.6-7.6c-2.3-1-4.3-3.5-5.8-7.5
		c1.1-0.7,2.1-1.3,2.8-1.9c1.5,4.3,3.5,6.7,5.9,7.2v-6.8H415.1z"/>
	<path style="fill:#FF6600;" d="M420.9,321.7v18.4h-3.2V332H414l1.7,1.5c-1.5,2.2-3.1,4.3-4.6,6.2l-2.7-2.2c1.7-2,3.2-3.8,4.3-5.4
		h-9.2v-3.6h14.2v-6.7H420.9z"/>
	<path style="fill:#FF6600;" d="M411.4,343.9l-1.2,2.9c-0.7-0.2-1.8-0.6-3.3-1.1c-1.6-0.5-2.8-0.9-3.6-1.2l1.2-2.9
		C407.3,342.6,409.6,343.4,411.4,343.9z M414.3,359.1h-2.9c-1.6-1.1-2.9-2.2-4-3.3c-0.5,1.2-0.9,2.8-1.2,4.6c-0.4-0.3-1-0.6-2-1.2
		c-0.3-0.2-0.5-0.3-0.7-0.4c0.6-2.4,1.2-4.4,2-5.8c-0.9-1.7-1.6-3.6-2.1-5.7c0.3-0.2,0.6-0.4,1.1-0.6c0.7-0.4,1.2-0.7,1.5-0.9
		c0.4,1.8,0.9,3.2,1.3,4.3c0.9-0.8,1.9-1.7,3-2.6l1.2,1.9V347h2.7V359.1z M411.6,350.3c-1.1,0.9-2,1.8-2.7,2.7
		c0.7,0.9,1.6,1.8,2.7,2.6V350.3z M417,343.4c-0.5,0.6-1.2,1.5-2.2,2.6c-0.3,0.3-0.5,0.5-0.6,0.7l-2.5-2.2c0.8-0.8,1.8-1.8,3-3.2
		L417,343.4z M417.8,358.6v1.5c-0.9-0.2-1.8-0.3-2.6-0.5c0-0.2,0-0.5,0-1c-0.1-0.6-0.1-1.1-0.1-1.5c-0.1-1.7,0.7-2.5,2.3-2.5h1.2
		v-3.3c-1.8,0-3.2-1.1-4.3-3.2c0.7-0.7,1.4-1.4,2.1-2.1c0.8,1.8,1.9,2.6,3.3,2.4h1.6v9.1h-2.8C418,357.6,417.8,358,417.8,358.6z
		 M421.9,344.1c-0.9,1.2-1.8,2.3-2.7,3.3l-2.4-2.2c1-0.9,1.9-2,2.9-3.1L421.9,344.1z"/>
	<path style="fill:#FF6600;" d="M403.5,367.5v-3.2h7.2c-0.4-0.3-0.8-0.8-1.4-1.5c-0.2-0.3-0.4-0.4-0.5-0.5c0.7-0.2,1.8-0.6,3.3-1.1
		c1.8,2,3.5,3.5,5.3,4.4v-4.1h2.8v5.4c0.3,0.1,0.6,0.2,1.2,0.4c0.3,0.1,0.5,0.2,0.7,0.2l-0.2,3.6c-0.5-0.2-1.1-0.4-1.6-0.6v9.5h-2.8
		v-10.8c-0.2-0.1-0.5-0.3-0.8-0.5l-0.2-0.1v9.7h-10.2c-1.9,0.2-2.8-0.8-2.8-2.9c-0.1-0.9-0.1-2.1-0.1-3.5c1-0.2,1.9-0.4,2.6-0.7
		c0,0.9,0,1.8,0,2.6c-0.1,0.9,0.3,1.4,1.1,1.4v-7.7H403.5z M410.5,367.5h-0.9v7.7h0.9V367.5z M413.9,367.5h-1v7.7h1V367.5z"/>
	<path style="fill:#FF6600;" d="M421.6,396.5c-0.3,0.1-0.7,0.2-1.4,0.4c-0.6,0.2-1.1,0.3-1.4,0.4v2.3h-2.5v-2.9h-1.5v2.6h-2.5v-2.6
		h-1.5v2.6h-2.5v-2.6h-1.5v3h-2.3v-8h-1.1v-2.9h3.1l-1.3-2.1c0.3-0.3,0.8-0.6,1.5-1c0.6-0.3,1-0.5,1.2-0.7c-1.3-0.7-2.7-1.7-4.1-2.9
		c0.5-0.2,1.1-0.5,1.9-0.8c0.6-0.2,1-0.4,1.2-0.5c1.2,1.1,2.5,1.9,3.9,2.6c0.4-0.3,1-0.6,1.9-1.1c1.1-0.7,2-1.2,2.6-1.5l1.4,2.2
		c-0.9,0.6-1.8,1.1-2.6,1.6c1.1,0.3,2.3,0.5,3.6,0.5v-3.8h2.8v6.7c-1.7-0.1-3.3-0.2-4.6-0.5c1.8,1.1,3.9,2,6.3,2.6l-0.5,3.1
		c-1-0.3-1.9-0.6-2.8-0.9v1.9c0.8-0.2,1.6-0.4,2.5-0.7L421.6,396.5z M408.4,391.8h-1.5v2.2h1.5V391.8z M411.7,388.1
		c1-0.2,1.9-0.4,2.6-0.7c-1.1-0.2-2.2-0.4-3.3-0.9c-0.6,0.3-1.3,0.8-2.3,1.4c-0.8,0.5-1.3,0.8-1.7,1h5.8
		C412.5,388.7,412.1,388.4,411.7,388.1z M412.4,391.8h-1.5v2.2h1.5V391.8z M416.4,391.8h-1.5v2.2h1.5V391.8z"/>
	<path style="fill:#FF6600;" d="M421.9,413.8l-0.5,2.9c-0.9-0.2-1.9-0.5-2.8-0.9v4H416V419c-3.2-0.2-5.7-0.8-7.5-1.7
		c-0.7,0.7-1.5,1.5-2.2,2.4c-1-0.5-1.9-1-2.7-1.4c0.8-1.1,1.6-2,2.4-2.6c-0.9-0.9-1.8-1.9-2.6-3c0.8-0.5,1.5-0.9,2.2-1.4v-2.9h-0.9
		v-2.6h9.1v1.7h2.3v-1.9h2.7v1.9h3.2v2.9h-3.2v1.6h-2.5C417.9,412.7,419.8,413.3,421.9,413.8z M403.6,405v-2.6h8
		c-0.6-0.3-1.1-0.6-1.5-0.9c1.4-0.2,2.8-0.4,4.1-0.6c1.9,0.9,4.5,1.7,7.8,2.6l-0.5,2.9c-1.3-0.4-2.6-0.8-3.9-1.2H403.6z M408.5,414
		c1.2-0.5,2.7-0.9,4.3-1.2c-0.1-0.1-0.2-0.1-0.3-0.2c-0.2-0.2-0.3-0.3-0.4-0.3c0.2-0.1,0.4-0.1,0.7-0.2c0.3-0.1,0.4-0.2,0.5-0.2
		h-6.9C407.2,412.8,407.9,413.5,408.5,414z M411.1,408.4h-3.3v1.1h3.3V408.4z M416,414.9c-1.9,0.1-3.4,0.3-4.6,0.8
		c1.2,0.4,2.8,0.6,4.6,0.8V414.9z M415,411.5c0.3,0.2,0.6,0.3,0.9,0.4v-1.5h-2.3v1.5C414.1,411.7,414.6,411.6,415,411.5z"/>
	<path style="fill:#FF6600;" d="M407.6,438.9c-2.5,0-3.7-1.1-3.8-3.4c-0.1-0.9-0.1-2.1-0.1-3.6c0.2-0.1,0.5-0.1,0.9-0.2
		c0.6-0.1,1.3-0.3,2.1-0.5c-0.1,0.6-0.1,1.5-0.1,2.8c-0.1,1.1,0.4,1.7,1.6,1.7c0.5,0,1.6,0,3.3,0c2.2,0.1,3.7,0.1,4.6,0.1v-2.7
		c-0.8-0.3-1.6-0.7-2.4-1.1c0.4-0.8,0.9-1.6,1.3-2.4h-11.2v-3h1.1v-2.2h-1.2v-3h15.3v2.2c1,0.3,2,0.4,2.9,0.5l-0.4,3.4
		c-0.2-0.1-0.4-0.1-0.6-0.2c-0.6-0.1-1.2-0.3-1.9-0.5v2.8h-3.3c2.2,1,4.3,1.8,6.2,2.3l-0.7,3.1c-0.3-0.1-0.6-0.2-1.1-0.3
		c-0.5-0.2-0.9-0.3-1.2-0.4v4.7C413.4,439,409.6,438.9,407.6,438.9z M410.5,424.4h-2.7v2.2h2.7V424.4z M414,432.8
		c-0.6,0.5-1.4,1.1-2.6,2c-0.5,0.4-0.9,0.6-1.2,0.9l-1.7-2.6c1.7-1.1,3-2,4-2.7L414,432.8z M416.1,424.4h-2.7v2.2h2.7V424.4z"/>
	<path style="fill:#FF6600;" d="M403.5,450.5v-3h9.5c-0.3-0.2-0.6-0.5-1-0.8c0.2,0,0.5,0,0.8-0.1c0.4-0.1,0.6-0.1,0.8-0.2
		c-1.1,0-2,0-2.7,0c-0.2-0.4-0.3-0.8-0.3-1.2H406c-1.5,0.1-2.3-0.6-2.3-2c-0.1-0.7-0.2-1.4-0.2-2.2c0.1,0,0.2,0,0.4-0.1
		c0.7-0.1,1.5-0.3,2.4-0.5v1.2c0,0.5,0.3,0.7,0.8,0.6h2.6c-0.2-0.5-0.3-1.1-0.5-1.7l3.3-0.2c0,0.1,0,0.2,0.1,0.4
		c0.1,0.4,0.2,0.9,0.3,1.5h3.3v-1.6h2.8v1.6h3.1v2.9h-3.1v1.3h-2.3c1.3,0.9,3.2,1.6,5.6,2.2l-0.4,3.3c-0.3-0.1-0.8-0.3-1.4-0.5
		c-0.7-0.3-1.2-0.4-1.5-0.5v2.3c0.8-0.3,1.7-0.5,2.6-0.9l0.3,3.1c-0.2,0.1-0.4,0.1-0.7,0.2c-0.5,0.2-1.2,0.4-2.2,0.6v2.6h-2.5V456
		h-1.5v2.9h-2.5V456h-1.5v2.9h-2.5V456h-1.6v3.3h-2.3v-8.8H403.5z M408.4,450.5h-1.6v2.5h1.6V450.5z M412.3,450.5h-1.5v2.5h1.5
		V450.5z M413.5,445.3c0.1,0.3,0.2,0.7,0.2,1.1c0.6-0.1,1.2-0.2,1.8-0.4c0.2,0.2,0.3,0.3,0.5,0.3v-1H413.5z M416.4,450.5h-1.5v2.5
		h1.5V450.5z"/>
	<path style="fill:#FF6600;" d="M413.2,465.6c-2.5,0-4.4-0.2-5.7-0.5c-1.2-0.3-2.6-0.9-4.1-1.8c0.7-0.9,1.4-1.9,2.2-2.9
		c1.1,0.8,2.1,1.3,3.1,1.5c0.9,0.2,2.5,0.3,4.6,0.3h6.7v6.7c0.4-0.1,1-0.3,1.8-0.5c0.2-0.1,0.3-0.1,0.3-0.1l0.2,4.2
		c-0.2,0.1-0.6,0.2-1.1,0.3c-0.6,0.1-1,0.2-1.2,0.2v6h-3.1v-13.6H413.2z"/>
</g>
<g>
	<defs>
		<rect id="SVGID_5_" x="515" y="383.1" width="220.2" height="218.9"/>
	</defs>
	<clipPath id="SVGID_6_">
		<use xlink:href="#SVGID_5_"  style="overflow:visible;"/>
	</clipPath>
</g>
<g>
	<g id="形状_2_copy_3_副本_4_7_">
		<g>
			<path style="fill-rule:evenodd;clip-rule:evenodd;fill:#CCCCCC;" d="M208.7,343.5c-1.3,2.5-2.5,4.8-3.8,7.5h1.8
				c0.3-0.6,0.5-1,0.9-1.8c1,0,1.7,0,2.6,0c-0.2-0.6-0.3-1-0.5-1.4h-1.4c0.4-0.8,0.7-1.3,1.3-2.5c0.7,2,1.4,3.9,2,5.7h1.7
				c-0.9-2.6-1.7-4.9-2.6-7.5H208.7z M213.8,350.9h1.6l0.3-7.5l-1.6,0L213.8,350.9z M216.3,350.9h1.7l0.2-5.6h-1.6L216.3,350.9z
				 M216.6,343.4l0,1.2c0,0,1.2,0,1.6,0l0.1-1.2C216.8,343.4,216.8,343.4,216.6,343.4z M226.8,345.4c-0.3-0.1-0.6-0.2-0.9-0.2
				c-0.2,0-0.4,0-0.5,0.1c-0.2,0-0.3,0.1-0.5,0.1c-0.1,0.1-0.3,0.1-0.4,0.2c-0.1,0.1-0.2,0.2-0.3,0.3c-0.1,0.1-0.1,0.2-0.2,0.3
				c-0.1-0.2-0.1-0.3-0.2-0.4c-0.1-0.1-0.1-0.2-0.2-0.2c-0.1-0.1-0.2-0.1-0.3-0.2c-0.1-0.1-0.3-0.1-0.4-0.1c-0.2,0-0.3,0-0.5,0
				c-0.2,0-0.4,0-0.6,0.1c-0.2,0.1-0.4,0.1-0.5,0.2c-0.2,0.1-0.3,0.2-0.4,0.3c-0.1,0.1-0.2,0.2-0.3,0.4l0-0.9H219l-0.2,5.6
				c0,0,1.2,0,1.6,0c0-0.5,0-1.1,0.1-1.9c0-0.8,0.1-1.4,0.2-1.6c0.1-0.3,0.2-0.5,0.4-0.7c0.2-0.2,0.4-0.3,0.7-0.3
				c0.1,0,0.3,0,0.4,0.1c0.1,0,0.2,0.1,0.3,0.2c0.1,0.1,0.1,0.2,0.2,0.3c0,0.1,0,0.2,0,0.4c0,0.3,0,0.9-0.1,1.8
				c0,0.9-0.1,1.4-0.1,1.7c0.3,0,1.3,0,1.6,0l0-1.5c0-0.5,0-1,0.1-1.3c0-0.3,0.1-0.6,0.1-0.8c0.1-0.2,0.2-0.3,0.3-0.5
				c0.1-0.1,0.2-0.2,0.4-0.3c0.1-0.1,0.3-0.1,0.4-0.1c0.2,0,0.3,0,0.4,0.1c0.1,0.1,0.2,0.2,0.3,0.3c0.1,0.1,0.1,0.3,0.1,0.6
				c0,0.2,0,0.5,0,0.8l-0.1,1.3c0,0.5-0.1,1-0.1,1.5c0.3,0,1.3,0,1.6,0c0-0.4,0-1,0.1-1.8c0-0.8,0.1-1.3,0.1-1.7c0-0.3,0-0.6,0-0.8
				c0-0.3-0.1-0.6-0.2-0.8C227.3,345.6,227.1,345.5,226.8,345.4z M232.7,345.4c-0.3-0.1-0.7-0.1-1.1-0.1c-0.4,0-0.7,0-1.1,0.1
				c-0.4,0-1.3,0.2-1.3,0.2l-0.2,1c0,0,1.5-0.5,2.2-0.5c0.2,0,0.3,0,0.5,0.1c0.1,0,0.3,0.1,0.4,0.2c0.1,0.1,0.1,0.2,0.1,0.4
				c0,0.1,0,0.1,0,0.2c0,0.1-0.1,0.1-0.1,0.2c-0.1,0.1-0.1,0.1-0.2,0.2c-0.1,0-0.2,0.1-0.4,0.1c-0.2,0-0.3,0.1-0.4,0.1
				c-0.5,0.1-0.9,0.2-1.3,0.3c-0.3,0.1-0.6,0.2-0.7,0.3c-0.2,0.1-0.3,0.2-0.4,0.4c-0.1,0.1-0.2,0.3-0.2,0.4
				c-0.1,0.2-0.1,0.3-0.1,0.5c0,0.3,0.1,0.5,0.2,0.8c0.1,0.3,0.4,0.5,0.7,0.6c0.3,0.1,0.7,0.2,1.1,0.2c0.1,0,0.3,0,0.4,0
				c0.2,0,0.4,0,0.6-0.1c0.1-0.4,0.2-0.7,0.3-0.9c-0.2,0.1-0.4,0.1-0.5,0.1c-0.1,0-0.3,0-0.4,0c-0.2,0-0.3,0-0.5-0.1
				c-0.1,0-0.2-0.1-0.3-0.2c-0.1-0.1-0.1-0.2-0.1-0.4c0-0.1,0-0.2,0.1-0.3c0-0.1,0.1-0.2,0.2-0.2c0.1-0.1,0.2-0.1,0.3-0.2
				c0.1-0.1,0.2-0.1,0.4-0.2c0.1,0,0.3-0.1,0.6-0.2c0.2-0.1,0.4-0.1,0.5-0.1c0.1,0,0.2-0.1,0.2-0.1c0.1,0,0.2-0.1,0.3-0.2l-0.2,2.9
				h1.6c0,0,0-1.8,0.1-2.6c0.1-0.9,0.1-1.4,0.1-1.6c0-0.4-0.1-0.7-0.3-0.9C233.3,345.6,233,345.5,232.7,345.4z M242.5,345.4
				c-0.3-0.1-0.6-0.2-0.9-0.2c-0.2,0-0.4,0-0.5,0.1c-0.2,0-0.3,0.1-0.5,0.1c-0.1,0.1-0.3,0.1-0.4,0.2c-0.1,0.1-0.2,0.2-0.3,0.3
				c-0.1,0.1-0.1,0.2-0.2,0.3c-0.1-0.2-0.1-0.3-0.2-0.4c-0.1-0.1-0.1-0.2-0.2-0.2c-0.1-0.1-0.2-0.1-0.3-0.2
				c-0.1-0.1-0.3-0.1-0.4-0.1c-0.2,0-0.3,0-0.5,0c-0.2,0-0.4,0-0.6,0.1c-0.2,0.1-0.4,0.1-0.5,0.2c-0.2,0.1-0.3,0.2-0.4,0.3
				c-0.1,0.1-0.2,0.2-0.3,0.4l0-0.9h-1.5l-0.2,5.6h1.6c0,0,0-1.1,0.1-1.9c0-0.8,0.1-1.4,0.2-1.6c0.1-0.3,0.2-0.5,0.4-0.7
				c0.2-0.2,0.4-0.3,0.7-0.3c0.1,0,0.3,0,0.4,0.1c0.1,0,0.2,0.1,0.3,0.2c0.1,0.1,0.1,0.2,0.2,0.3c0,0.1,0,0.2,0,0.4
				c0,0.3,0,0.9-0.1,1.8c0,0.9-0.1,1.4-0.1,1.7c0.3,0,1.3,0,1.6,0l0-1.5c0-0.5,0-1,0.1-1.3c0-0.3,0.1-0.6,0.1-0.8
				c0.1-0.2,0.2-0.3,0.3-0.5c0.1-0.1,0.2-0.2,0.4-0.3c0.1-0.1,0.3-0.1,0.4-0.1c0.2,0,0.3,0,0.4,0.1c0.1,0.1,0.2,0.2,0.3,0.3
				c0.1,0.1,0.1,0.3,0.1,0.6c0,0.2,0,0.5,0,0.8l-0.1,1.3c0,0.5-0.1,1-0.1,1.5c0.3,0,1.3,0,1.6,0c0-0.4,0-1,0.1-1.8
				c0-0.8,0.1-1.3,0.1-1.7c0-0.3,0-0.6,0-0.8c0-0.3-0.1-0.6-0.2-0.8C243,345.6,242.8,345.5,242.5,345.4z M248.4,345.4
				c-0.3-0.1-0.7-0.1-1.1-0.1c-0.4,0-0.7,0-1.1,0.1c-0.4,0-1.3,0.2-1.3,0.2l-0.2,1c0,0,1.5-0.5,2.2-0.5c0.2,0,0.3,0,0.5,0.1
				c0.1,0,0.3,0.1,0.4,0.2c0.1,0.1,0.1,0.2,0.1,0.4c0,0.1,0,0.1,0,0.2c0,0.1-0.1,0.1-0.1,0.2c-0.1,0.1-0.1,0.1-0.2,0.2
				c-0.1,0-0.2,0.1-0.4,0.1c-0.1,0-0.3,0.1-0.4,0.1c-0.5,0.1-0.9,0.2-1.3,0.3c-0.3,0.1-0.6,0.2-0.7,0.3c-0.2,0.1-0.3,0.2-0.4,0.4
				c-0.1,0.1-0.2,0.3-0.2,0.4c-0.1,0.2-0.1,0.3-0.1,0.5c0,0.3,0.1,0.5,0.2,0.8c0.1,0.3,0.4,0.5,0.7,0.6c0.3,0.1,0.7,0.2,1.1,0.2
				c0.1,0,0.3,0,0.4,0c0.2,0,0.4,0,0.6-0.1c0.1-0.4,0.2-0.7,0.3-0.9c-0.2,0.1-0.4,0.1-0.5,0.1c-0.1,0-0.3,0-0.4,0
				c-0.2,0-0.3,0-0.5-0.1c-0.1,0-0.2-0.1-0.3-0.2c-0.1-0.1-0.1-0.2-0.1-0.4c0-0.1,0-0.2,0.1-0.3c0-0.1,0.1-0.2,0.2-0.2
				c0.1-0.1,0.2-0.1,0.3-0.2c0.1-0.1,0.2-0.1,0.4-0.2c0.1,0,0.3-0.1,0.6-0.2c0.2-0.1,0.4-0.1,0.5-0.1c0.1,0,0.2-0.1,0.2-0.1
				c0.1,0,0.2-0.1,0.3-0.2l-0.2,2.9h1.6c0,0,0-1.8,0.1-2.6c0.1-0.9,0.1-1.4,0.1-1.6c0-0.4-0.1-0.7-0.3-0.9
				C249,345.6,248.8,345.5,248.4,345.4z M250.2,349.5c0,0.7,0,1.2-0.1,1.5c0.5,0,1.5,0,1.5,0s0.1-1.2,0.1-1.5
				C251.3,349.5,250.2,349.5,250.2,349.5z M254.3,346.9c0.2-0.2,0.3-0.3,0.6-0.4c0.2-0.1,0.5-0.1,0.7-0.1c0.4,0,0.9,0.1,1.4,0.3
				l-0.1-1.2c-0.3-0.1-0.6-0.1-0.9-0.2c-0.3,0-0.5,0-0.7,0c-0.4,0-0.8,0-1.2,0.1c-0.4,0.1-0.7,0.3-1,0.5c-0.3,0.3-0.5,0.6-0.6,1
				c-0.1,0.4-0.2,0.9-0.2,1.3c0,0.3,0,0.7,0.1,1c0.1,0.3,0.2,0.6,0.4,0.8c0.2,0.2,0.4,0.4,0.6,0.6c0.2,0.1,0.5,0.2,0.8,0.3
				c0.3,0.1,0.6,0.1,0.9,0.1c0.5,0,1-0.1,1.5-0.2c0-0.3,0.1-0.5,0.1-0.7c0-0.2,0.1-0.4,0.1-0.5c-0.3,0.1-0.5,0.2-0.7,0.2
				c-0.2,0-0.4,0.1-0.6,0.1c-0.3,0-0.6-0.1-0.9-0.2c-0.3-0.1-0.4-0.3-0.6-0.6c-0.1-0.3-0.2-0.6-0.2-0.9c0-0.2,0-0.5,0.1-0.7
				C254,347.3,254.1,347.1,254.3,346.9z M262.6,346c-0.3-0.2-0.6-0.4-1-0.6c-0.4-0.1-0.8-0.2-1.2-0.2c-0.5,0-0.9,0.1-1.3,0.2
				c-0.4,0.2-0.8,0.4-1,0.7c-0.3,0.3-0.5,0.6-0.6,1c-0.1,0.4-0.2,0.7-0.2,1.2c0,0.4,0.1,0.8,0.2,1.1c0.1,0.4,0.3,0.7,0.6,0.9
				c0.3,0.3,0.6,0.4,1,0.6c0.4,0.1,0.8,0.2,1.2,0.2c0.5,0,0.9-0.1,1.3-0.2c0.4-0.1,0.7-0.4,1-0.6c0.3-0.3,0.5-0.6,0.6-1
				c0.1-0.4,0.2-0.8,0.2-1.2c0-0.4-0.1-0.8-0.2-1.1C263.1,346.5,262.9,346.2,262.6,346z M261.7,349c-0.1,0.3-0.3,0.5-0.5,0.7
				c-0.2,0.2-0.5,0.2-0.8,0.2c-0.3,0-0.6-0.1-0.8-0.2c-0.2-0.2-0.4-0.4-0.5-0.6c-0.1-0.2-0.2-0.5-0.2-0.8c0-0.4,0.1-0.7,0.2-1
				c0.1-0.3,0.3-0.5,0.6-0.7c0.2-0.2,0.5-0.2,0.9-0.2c0.3,0,0.6,0.1,0.8,0.2c0.2,0.1,0.4,0.3,0.5,0.6c0.1,0.2,0.1,0.5,0.1,0.8
				C261.9,348.4,261.8,348.7,261.7,349z M272.5,345.9c-0.2-0.2-0.4-0.4-0.7-0.5c-0.3-0.1-0.6-0.2-0.9-0.2c-0.2,0-0.4,0-0.5,0.1
				c-0.2,0-0.3,0.1-0.5,0.1c-0.1,0.1-0.3,0.1-0.4,0.2c-0.1,0.1-0.2,0.2-0.3,0.3c-0.1,0.1-0.1,0.2-0.2,0.3c-0.1-0.2-0.1-0.3-0.2-0.4
				c-0.1-0.1-0.1-0.2-0.2-0.2c-0.1-0.1-0.2-0.1-0.3-0.2c-0.1-0.1-0.3-0.1-0.4-0.1c-0.2,0-0.3,0-0.5,0c-0.2,0-0.4,0-0.6,0.1
				c-0.2,0.1-0.4,0.1-0.5,0.2c-0.2,0.1-0.3,0.2-0.4,0.3c-0.1,0.1-0.2,0.2-0.3,0.4l0-0.9c-0.3,0-1.2,0-1.5,0c0,0.6-0.2,5-0.2,5.6
				c0.3,0,1.2,0,1.6,0c0-0.5,0-1.1,0.1-1.9c0-0.8,0.1-1.4,0.2-1.6c0.1-0.3,0.2-0.5,0.4-0.7c0.2-0.2,0.4-0.3,0.7-0.3
				c0.1,0,0.3,0,0.4,0.1c0.1,0,0.2,0.1,0.3,0.2c0.1,0.1,0.1,0.2,0.2,0.3c0,0.1,0,0.2,0,0.4c0,0.3,0,0.9-0.1,1.8
				c0,0.9-0.1,1.4-0.1,1.7c0.3,0,1.3,0,1.6,0l0-1.5c0-0.5,0-1,0.1-1.3c0-0.3,0.1-0.6,0.1-0.8c0.1-0.2,0.2-0.3,0.3-0.5
				c0.1-0.1,0.2-0.2,0.4-0.3c0.1-0.1,0.3-0.1,0.4-0.1c0.2,0,0.3,0,0.4,0.1c0.1,0.1,0.2,0.2,0.3,0.3c0.1,0.1,0.1,0.3,0.1,0.6
				c0,0.2,0,0.5,0,0.8l-0.1,1.3c0,0.5-0.1,1-0.1,1.5c0.3,0,1.3,0,1.6,0c0-0.4,0-1,0.1-1.8c0-0.8,0.1-1.3,0.1-1.7c0-0.3,0-0.6,0-0.8
				C272.7,346.4,272.6,346.1,272.5,345.9z"/>
		</g>
	</g>
	<g id="形状_2_copy_3_副本_5_7_">
		<g>
			<path style="fill-rule:evenodd;clip-rule:evenodd;fill:#FF6600;" d="M211.6,327.8c2.3,0,4.7,0,7,0c0,3.5,0,7.1,0,10.3
				c0,0.2-0.3,0.5-0.5,0.5c-0.4,0-0.5,0-1,0v1.7c0.5,0,1,0,1.5,0c1.3,0,2.2-0.7,2.2-1.8c0-2.7,0-8,0-10.7h0.8v-1.6h-10V327.8z
				 M247.2,335.3c-0.6,0-1.6,0.6-1.6,1.6c2,0,5.2,0,7.4,0c0,0.4,0,0.8,0,1.3c0.7,0,0.5,0,1.2,0c0.4,0,1-0.4,1-1c0-1.8,0-3.2,0-4.9
				c-0.3,0-0.7,0-1,0c0-1.4,0-4.1,0-5.1c0-0.4-0.4-0.9-0.9-0.9h-7.3v1.6h5.6c0,1.5,0,2.9,0,4.4c-1.3,0-1.5,0-2.7,0
				c-0.1,0-0.3-0.2-0.3-0.3c0-0.7,0-1.9,0-2.9c0-0.2-0.2-0.5-0.6-0.5h-1.7v3.9c0,0.8,0.7,1.4,1.4,1.4c0,0,2.9,0,5.2,0v1.4H247.2z
				 M217.5,335.8c0-1.8,0-4.4,0-7h-5.8v8.8c1.7,0,3.9,0,3.9,0C217,337.7,217.5,336.8,217.5,335.8z M215,336c-0.4,0-0.9,0-1.5,0v-5.5
				c0.6,0,1.3,0,2,0c0,1.7,0,3.5,0,5C215.5,335.8,215.4,336,215,336z M205.1,326.6c0,3.2,0,7.3,0,13.7h2.1c0-4,0-8.4,0-12.5
				c0.5,0,1.1,0,1.6,0c0,2.4,0,4.5,0,6.8c0,0.9-0.8,1.2-0.8,1.3v1.8c1.5,0,2.9-1.6,2.9-3c0-2.6,0-5.9,0-8.4c-1.9,0-3.4,0-5.4,0
				C205,326.2,205.1,326.6,205.1,326.6z M272,332.2c0-1.4,0-4.1,0-5.1c0-0.4-0.4-0.9-0.9-0.9h-7.3v1.6c1.9,0,3.8,0,5.6,0v4.4
				c-1.3,0-1.6,0-2.7,0c-0.1,0-0.3-0.2-0.3-0.3c0-0.7,0-1.9,0-2.9c0-0.2-0.2-0.5-0.6-0.5c-0.5,0-1.1,0-1.7,0v3.9
				c0,0.8,0.7,1.4,1.4,1.4c0,0,2.9,0,5.2,0v1.4H265c-0.6,0-1.7,0.6-1.7,1.6c2,0,5.2,0,7.4,0v1.5c0,0.3-0.2,0.4-0.5,0.4h-0.8
				c0,0.7,0,1.1,0,1.6h1.3c0.4,0,0.3,0,0.7,0c1.1,0,1.6-0.8,1.6-1.4c0-2,0-4.7,0-6.7C272.7,332.2,272.3,332.2,272,332.2z
				 M261.6,337.7c0.8-0.9,1.2-1.9,1.3-3.8c0-2.1,0-4.1,0-6.2c0-0.2-0.2-0.4-0.4-0.4c-0.8,0-1.9,0-2.8,0v-1h-2.1c0,0.3,0,0.6,0,1
				c-0.2,0-0.5,0-0.7,0v1.6h0.7v5c0,1.9,0.6,2.9,1.4,3.8c-1,0.6-1.9,1.1-3.2,1.1c-0.2,0-0.4,0-0.6,0c-2,0-4.5,0-6.6,0
				c-2,0-4-0.4-4.7-1.3c0.7-0.9,1.1-1.7,1.3-3.6c0-1.9,0-3.6,0-6.1c0-0.3-0.3-0.5-0.5-0.5c-0.8,0-1.7,0-2.7,0v-1c-0.9,0-1.2,0-2.1,0
				v1c-0.2,0-0.4,0-0.7,0v1.6c0.3,0,0.5,0,0.7,0c0,1.7,0,3.5,0,5c0.2,1.9,0.8,2.6,1.5,3.7c-1.1,0.8-2.4,1.1-4,1.2
				c-1.8,0-3.5,0-5.8,0c0-0.4,0-1,0-1.3h5.8v-1.7h-5.8c0-0.4,0-0.8,0-1.3c1.7,0,3.9,0,4.4,0c0,0,1.4,0,1.4-1.6c0-1.6,0-4.6,0-6.7
				c-4.6,0-9.3,0-13.9,0c-0.2,0-0.4,0.2-0.4,0.4c0,0.3,0,5.5,0,7.9c1.9,0,3.9,0,5.8,0v1.3h-5.8c0,0.5,0,1.1,0,1.7h5.8
				c0,0.4,0,0.8,0,1.3h-6.8c0,0.5,0,1.1,0,1.6c5.1,0,11.4,0,16.4,0c1.3,0,3-0.7,4.2-1.4c1.5,1.2,3.2,1.4,5.9,1.4c0.8,0,1.8,0,2.8,0
				c1.4,0,2.7,0,3.8,0c2.3,0,3.8-0.5,5.2-1.3c1.3,0.8,2.6,1.3,4.6,1.3v0h3.1v-1.6H265C263.7,338.6,262.5,338.4,261.6,337.7z
				 M228.9,332.9h-3.6v-1.7h3.6V332.9z M228.9,329.5h-3.6v-1.7c1.2,0,2.4,0,3.6,0V329.5z M231.6,327.8h3.6v1.7h-3.6V327.8z
				 M231.6,331.2c1.2,0,2.4,0,3.6,0c0,0.7,0,1.2,0,1.7h-3.6C231.6,332.5,231.6,331.8,231.6,331.2z M243.2,333.8
				c-0.1,1.1-0.3,1.4-0.5,2.1c-0.3-0.7-0.6-1-0.7-2.1c0-1.5,0-3.5,0-5h1.2V333.8z M261,333.8c0,1-0.3,1.5-0.6,2.1
				c-0.3-0.6-0.6-1.1-0.6-2.1c0-1.6,0-3.4,0-5h1.2C261,330.4,261,332.3,261,333.8z"/>
		</g>
	</g>
</g>
<rect x="8.1" y="159" style="fill:none;stroke:#D8D8D8;stroke-miterlimit:10;" width="299.9" height="438.4"/>
<path style="fill:#AA2D24;" d="M131.7,230c1.2-1.4,4.3-3.7,7.1,3.6c3.7,9.5,18,39.6,6.4,63.6c-11.6,24.1-32.8,64.8-40.5,21.4
	C96,269.9,131.3,230.4,131.7,230z"/>
<path style="fill:#E5432E;" d="M60.8,207c-1.8-1.6-7.2-5.5-9.5,6.4c-2.7,14.3-11.6,57.7,7.4,90.9c20.6,36,62.3,83,62.3,20.3
	C121,252.9,61.1,207.4,60.8,207z"/>
<path style="fill:#E5432E;" d="M308,229.9c0,0-62,16.8-118.4,44.4c-73.7,36-137.9,89.3-42.3,136c0,0-115.4-82,160.8-120.4L308,229.9
	z"/>
<g>
	<g>
		<g id="形状_2_copy_3_副本_4_39_">
			<g>
				<path style="fill-rule:evenodd;clip-rule:evenodd;fill:#FFFFFF;" d="M728.5,346.3c-1.2,2.4-2.3,4.6-3.6,7.1h1.7
					c0.3-0.6,0.5-1,0.9-1.7c0.9,0,1.6,0,2.5,0c-0.2-0.5-0.3-0.9-0.5-1.4h-1.4c0.4-0.8,0.6-1.3,1.2-2.4c0.6,1.9,1.3,3.7,1.9,5.4h1.6
					c-0.9-2.5-1.7-4.6-2.5-7.1H728.5z M733.3,353.4h1.5l0.3-7.1l-1.5,0L733.3,353.4z M735.6,353.4h1.6l0.2-5.3h-1.5L735.6,353.4z
					 M736,346.3l0,1.1c0,0,1.2,0,1.5,0l0.1-1.1C736.2,346.3,736.1,346.3,736,346.3z M745.7,348.1c-0.3-0.1-0.6-0.1-0.9-0.1
					c-0.2,0-0.3,0-0.5,0c-0.2,0-0.3,0.1-0.4,0.1c-0.1,0.1-0.3,0.1-0.4,0.2c-0.1,0.1-0.2,0.2-0.3,0.3c-0.1,0.1-0.1,0.2-0.2,0.3
					c-0.1-0.2-0.1-0.3-0.2-0.4c-0.1-0.1-0.1-0.2-0.2-0.2c-0.1-0.1-0.2-0.1-0.3-0.2c-0.1-0.1-0.3-0.1-0.4-0.1c-0.1,0-0.3,0-0.5,0
					c-0.2,0-0.4,0-0.6,0.1c-0.2,0.1-0.4,0.1-0.5,0.2c-0.1,0.1-0.3,0.2-0.4,0.3c-0.1,0.1-0.2,0.2-0.3,0.4l0-0.8h-1.4l-0.2,5.3
					c0,0,1.2,0,1.5,0c0-0.5,0-1.1,0.1-1.8c0-0.8,0.1-1.3,0.2-1.6c0.1-0.3,0.2-0.5,0.4-0.6c0.2-0.2,0.4-0.2,0.6-0.2
					c0.1,0,0.2,0,0.4,0.1c0.1,0,0.2,0.1,0.3,0.2c0.1,0.1,0.1,0.2,0.1,0.3c0,0.1,0,0.2,0,0.4c0,0.3,0,0.8-0.1,1.7
					c0,0.8-0.1,1.4-0.1,1.6c0.3,0,1.2,0,1.5,0l0-1.5c0-0.5,0-0.9,0.1-1.3c0-0.3,0.1-0.6,0.1-0.7c0.1-0.2,0.1-0.3,0.3-0.5
					c0.1-0.1,0.2-0.2,0.4-0.3c0.1-0.1,0.3-0.1,0.4-0.1c0.2,0,0.3,0,0.4,0.1c0.1,0.1,0.2,0.1,0.3,0.3c0.1,0.1,0.1,0.3,0.1,0.6
					c0,0.2,0,0.5,0,0.8L745,352c0,0.5-0.1,1-0.1,1.4c0.3,0,1.2,0,1.5,0c0-0.4,0-1,0.1-1.7c0-0.7,0.1-1.3,0.1-1.6c0-0.3,0-0.6,0-0.7
					c0-0.3-0.1-0.6-0.2-0.8C746.2,348.4,746,348.2,745.7,348.1z M751.3,348.1c-0.3-0.1-0.7-0.1-1.1-0.1c-0.3,0-0.7,0-1.1,0.1
					c-0.4,0-1.3,0.2-1.3,0.2l-0.2,1c0,0,1.5-0.5,2.1-0.5c0.2,0,0.3,0,0.5,0.1c0.1,0,0.3,0.1,0.3,0.2c0.1,0.1,0.1,0.2,0.1,0.3
					c0,0.1,0,0.1,0,0.2c0,0.1-0.1,0.1-0.1,0.2c-0.1,0.1-0.1,0.1-0.2,0.1c-0.1,0-0.2,0.1-0.3,0.1c-0.1,0-0.3,0.1-0.4,0.1
					c-0.5,0.1-0.9,0.2-1.2,0.3c-0.3,0.1-0.5,0.2-0.7,0.3c-0.2,0.1-0.3,0.2-0.4,0.4c-0.1,0.1-0.2,0.3-0.2,0.4
					c-0.1,0.1-0.1,0.3-0.1,0.4c0,0.3,0.1,0.5,0.2,0.8c0.1,0.3,0.3,0.4,0.6,0.6c0.3,0.1,0.6,0.2,1.1,0.2c0.1,0,0.3,0,0.4,0
					c0.1,0,0.3,0,0.6-0.1c0.1-0.4,0.2-0.7,0.3-0.9c-0.2,0.1-0.4,0.1-0.5,0.1c-0.1,0-0.2,0-0.4,0c-0.2,0-0.3,0-0.5-0.1
					c-0.1,0-0.2-0.1-0.3-0.2c-0.1-0.1-0.1-0.2-0.1-0.4c0-0.1,0-0.2,0-0.3c0-0.1,0.1-0.2,0.2-0.2c0.1-0.1,0.2-0.1,0.3-0.2
					c0.1-0.1,0.2-0.1,0.4-0.2c0.1,0,0.3-0.1,0.5-0.2c0.2-0.1,0.4-0.1,0.5-0.1c0.1,0,0.2-0.1,0.2-0.1c0.1,0,0.2-0.1,0.3-0.2l-0.2,2.8
					h1.5c0,0,0-1.7,0.1-2.5c0.1-0.8,0.1-1.3,0.1-1.5c0-0.4-0.1-0.6-0.3-0.8C751.9,348.3,751.7,348.2,751.3,348.1z M760.7,348.1
					c-0.3-0.1-0.6-0.1-0.9-0.1c-0.2,0-0.4,0-0.5,0c-0.2,0-0.3,0.1-0.4,0.1c-0.1,0.1-0.3,0.1-0.4,0.2c-0.1,0.1-0.2,0.2-0.3,0.3
					c-0.1,0.1-0.1,0.2-0.2,0.3c-0.1-0.2-0.1-0.3-0.2-0.4c-0.1-0.1-0.1-0.2-0.2-0.2c-0.1-0.1-0.2-0.1-0.3-0.2
					c-0.1-0.1-0.3-0.1-0.4-0.1c-0.1,0-0.3,0-0.5,0c-0.2,0-0.4,0-0.6,0.1c-0.2,0.1-0.4,0.1-0.5,0.2c-0.1,0.1-0.3,0.2-0.4,0.3
					c-0.1,0.1-0.2,0.2-0.3,0.4l0-0.8h-1.4l-0.2,5.3h1.5c0,0,0-1.1,0.1-1.8c0-0.8,0.1-1.3,0.2-1.6c0.1-0.3,0.2-0.5,0.4-0.6
					c0.2-0.2,0.4-0.2,0.6-0.2c0.1,0,0.2,0,0.4,0.1c0.1,0,0.2,0.1,0.3,0.2c0.1,0.1,0.1,0.2,0.1,0.3c0,0.1,0,0.2,0,0.4
					c0,0.3,0,0.8-0.1,1.7c0,0.8-0.1,1.4-0.1,1.6c0.3,0,1.2,0,1.5,0l0-1.5c0-0.5,0-0.9,0.1-1.3c0-0.3,0.1-0.6,0.1-0.7
					c0.1-0.2,0.1-0.3,0.3-0.5c0.1-0.1,0.2-0.2,0.4-0.3c0.1-0.1,0.3-0.1,0.4-0.1c0.2,0,0.3,0,0.4,0.1c0.1,0.1,0.2,0.1,0.3,0.3
					c0.1,0.1,0.1,0.3,0.1,0.6c0,0.2,0,0.5,0,0.8L760,352c0,0.5-0.1,1-0.1,1.4c0.3,0,1.2,0,1.5,0c0-0.4,0-1,0.1-1.7
					c0-0.7,0.1-1.3,0.1-1.6c0-0.3,0-0.6,0-0.7c0-0.3-0.1-0.6-0.2-0.8C761.1,348.4,760.9,348.2,760.7,348.1z M766.3,348.1
					c-0.3-0.1-0.7-0.1-1.1-0.1c-0.3,0-0.7,0-1.1,0.1c-0.4,0-1.3,0.2-1.3,0.2l-0.2,1c0,0,1.5-0.5,2.1-0.5c0.2,0,0.3,0,0.5,0.1
					c0.1,0,0.3,0.1,0.3,0.2c0.1,0.1,0.1,0.2,0.1,0.3c0,0.1,0,0.1,0,0.2c0,0.1-0.1,0.1-0.1,0.2c-0.1,0.1-0.1,0.1-0.2,0.1
					c-0.1,0-0.2,0.1-0.3,0.1c-0.1,0-0.3,0.1-0.4,0.1c-0.5,0.1-0.9,0.2-1.2,0.3c-0.3,0.1-0.5,0.2-0.7,0.3c-0.2,0.1-0.3,0.2-0.4,0.4
					c-0.1,0.1-0.2,0.3-0.2,0.4c-0.1,0.1-0.1,0.3-0.1,0.4c0,0.3,0.1,0.5,0.2,0.8c0.1,0.3,0.3,0.4,0.6,0.6c0.3,0.1,0.6,0.2,1.1,0.2
					c0.1,0,0.3,0,0.4,0c0.1,0,0.3,0,0.6-0.1c0.1-0.4,0.2-0.7,0.3-0.9c-0.2,0.1-0.4,0.1-0.5,0.1c-0.1,0-0.2,0-0.4,0
					c-0.2,0-0.3,0-0.5-0.1c-0.1,0-0.2-0.1-0.3-0.2c-0.1-0.1-0.1-0.2-0.1-0.4c0-0.1,0-0.2,0-0.3c0-0.1,0.1-0.2,0.2-0.2
					c0.1-0.1,0.2-0.1,0.3-0.2c0.1-0.1,0.2-0.1,0.4-0.2c0.1,0,0.3-0.1,0.5-0.2c0.2-0.1,0.4-0.1,0.5-0.1c0.1,0,0.2-0.1,0.2-0.1
					c0.1,0,0.2-0.1,0.3-0.2l-0.2,2.8h1.5c0,0,0-1.7,0.1-2.5c0.1-0.8,0.1-1.3,0.1-1.5c0-0.4-0.1-0.6-0.3-0.8
					C766.9,348.3,766.6,348.2,766.3,348.1z M768,352c0,0.7,0,1.2-0.1,1.4c0.5,0,1.5,0,1.5,0s0.1-1.2,0.1-1.4
					C769.1,352,768,352,768,352z M771.9,349.5c0.2-0.2,0.3-0.3,0.5-0.4c0.2-0.1,0.4-0.1,0.7-0.1c0.4,0,0.8,0.1,1.4,0.3l-0.1-1.1
					c-0.3-0.1-0.6-0.1-0.9-0.2c-0.2,0-0.5,0-0.7,0c-0.4,0-0.8,0-1.1,0.1c-0.3,0.1-0.6,0.3-0.9,0.5c-0.3,0.3-0.5,0.6-0.6,1
					c-0.1,0.4-0.2,0.8-0.2,1.3c0,0.3,0,0.7,0.1,1c0.1,0.3,0.2,0.6,0.4,0.8c0.2,0.2,0.4,0.4,0.6,0.5c0.2,0.1,0.5,0.2,0.7,0.3
					c0.3,0.1,0.5,0.1,0.8,0.1c0.5,0,1-0.1,1.5-0.2c0-0.3,0.1-0.5,0.1-0.7c0-0.2,0.1-0.3,0.1-0.5c-0.3,0.1-0.5,0.2-0.7,0.2
					c-0.2,0-0.4,0.1-0.6,0.1c-0.3,0-0.6-0.1-0.9-0.2c-0.3-0.1-0.4-0.3-0.5-0.6c-0.1-0.2-0.2-0.5-0.2-0.9c0-0.2,0-0.5,0.1-0.7
					C771.6,349.9,771.7,349.7,771.9,349.5z M779.8,348.7c-0.3-0.2-0.6-0.4-0.9-0.5c-0.4-0.1-0.8-0.2-1.2-0.2c-0.4,0-0.9,0.1-1.3,0.2
					c-0.4,0.2-0.7,0.4-1,0.6c-0.3,0.3-0.5,0.6-0.6,0.9c-0.1,0.3-0.2,0.7-0.2,1.1c0,0.4,0.1,0.7,0.2,1.1c0.1,0.3,0.3,0.6,0.6,0.9
					c0.3,0.2,0.6,0.4,0.9,0.5c0.4,0.1,0.8,0.2,1.2,0.2c0.4,0,0.8-0.1,1.2-0.2c0.4-0.1,0.7-0.3,1-0.6c0.3-0.3,0.5-0.6,0.6-1
					c0.1-0.4,0.2-0.8,0.2-1.1c0-0.4-0.1-0.7-0.2-1.1C780.3,349.2,780.1,348.9,779.8,348.7z M779,351.6c-0.1,0.3-0.3,0.5-0.5,0.7
					c-0.2,0.2-0.5,0.2-0.8,0.2c-0.3,0-0.6-0.1-0.8-0.2c-0.2-0.1-0.4-0.3-0.5-0.6c-0.1-0.2-0.1-0.5-0.1-0.8c0-0.3,0.1-0.7,0.2-1
					c0.1-0.3,0.3-0.5,0.5-0.7c0.2-0.1,0.5-0.2,0.8-0.2c0.3,0,0.6,0.1,0.8,0.2c0.2,0.1,0.4,0.3,0.5,0.6c0.1,0.2,0.1,0.5,0.1,0.8
					C779.1,350.9,779.1,351.3,779,351.6z M789.2,348.6c-0.2-0.2-0.4-0.4-0.6-0.5c-0.3-0.1-0.6-0.1-0.9-0.1c-0.2,0-0.3,0-0.5,0
					c-0.2,0-0.3,0.1-0.4,0.1c-0.1,0.1-0.3,0.1-0.4,0.2c-0.1,0.1-0.2,0.2-0.3,0.3c-0.1,0.1-0.1,0.2-0.2,0.3c-0.1-0.2-0.1-0.3-0.2-0.4
					c-0.1-0.1-0.1-0.2-0.2-0.2c-0.1-0.1-0.2-0.1-0.3-0.2c-0.1-0.1-0.3-0.1-0.4-0.1c-0.1,0-0.3,0-0.5,0c-0.2,0-0.4,0-0.6,0.1
					c-0.2,0.1-0.4,0.1-0.5,0.2c-0.1,0.1-0.3,0.2-0.4,0.3c-0.1,0.1-0.2,0.2-0.3,0.4l0-0.8c-0.2,0-1.1,0-1.4,0c0,0.6-0.2,4.7-0.2,5.3
					c0.3,0,1.2,0,1.5,0c0-0.5,0-1.1,0.1-1.8c0-0.8,0.1-1.3,0.2-1.6c0.1-0.3,0.2-0.5,0.4-0.6c0.2-0.2,0.4-0.2,0.6-0.2
					c0.1,0,0.2,0,0.4,0.1c0.1,0,0.2,0.1,0.3,0.2c0.1,0.1,0.1,0.2,0.1,0.3c0,0.1,0,0.2,0,0.4c0,0.3,0,0.8-0.1,1.7
					c0,0.8-0.1,1.4-0.1,1.6c0.3,0,1.2,0,1.5,0l0-1.5c0-0.5,0-0.9,0.1-1.3c0-0.3,0.1-0.6,0.1-0.7c0.1-0.2,0.1-0.3,0.3-0.5
					c0.1-0.1,0.2-0.2,0.4-0.3c0.1-0.1,0.3-0.1,0.4-0.1c0.1,0,0.3,0,0.4,0.1c0.1,0.1,0.2,0.1,0.3,0.3c0.1,0.1,0.1,0.3,0.1,0.6
					c0,0.2,0,0.5,0,0.8l-0.1,1.2c0,0.5-0.1,1-0.1,1.4c0.3,0,1.2,0,1.5,0c0-0.4,0-1,0.1-1.7c0-0.7,0.1-1.3,0.1-1.6c0-0.3,0-0.6,0-0.7
					C789.4,349,789.4,348.8,789.2,348.6z"/>
			</g>
		</g>
		<g id="形状_2_copy_3_副本_5_39_">
			<g>
				<path style="fill-rule:evenodd;clip-rule:evenodd;fill:#FFFFFF;" d="M731.2,331.4c2.2,0,4.4,0,6.7,0c0,3.3,0,6.7,0,9.8
					c0,0.2-0.3,0.5-0.5,0.5c-0.4,0-0.5,0-0.9,0v1.6c0.5,0,1,0,1.4,0c1.3,0,2.1-0.6,2.1-1.7c0-2.5,0-7.6,0-10.2h0.8v-1.5h-9.6V331.4z
					 M765.2,338.5c-0.6,0-1.6,0.6-1.6,1.6c1.9,0,5,0,7.1,0c0,0.4,0,0.8,0,1.3c0.7,0,0.4,0,1.1,0c0.4,0,1-0.3,1-1c0-1.7,0-3,0-4.7
					c-0.3,0-0.7,0-0.9,0c0-1.3,0-4,0-4.9c0-0.4-0.4-0.8-0.9-0.8h-7v1.5h5.4c0,1.4,0,2.8,0,4.2c-1.3,0-1.5,0-2.6,0
					c-0.1,0-0.3-0.2-0.3-0.3c0-0.7,0-1.8,0-2.8c0-0.2-0.2-0.5-0.6-0.5h-1.6v3.7c0,0.7,0.6,1.3,1.3,1.3c0,0,2.7,0,5,0v1.4H765.2z
					 M736.8,338.9c0-1.8,0-4.2,0-6.6h-5.5v8.4c1.6,0,3.7,0,3.7,0C736.4,340.7,736.8,339.9,736.8,338.9z M734.5,339.2
					c-0.4,0-0.8,0-1.4,0v-5.3c0.6,0,1.3,0,1.9,0c0,1.6,0,3.4,0,4.8C735,339,734.8,339.2,734.5,339.2z M725,330.2c0,3,0,7,0,13.1h2
					c0-3.8,0-8,0-11.9c0.5,0,1.1,0,1.5,0c0,2.3,0,4.3,0,6.5c0,0.9-0.8,1.2-0.8,1.2v1.7c1.4,0,2.7-1.5,2.7-2.8c0-2.4,0-5.6,0-8.1
					c-1.8,0-3.3,0-5.1,0C725,329.8,725,330.2,725,330.2z M788.8,335.6c0-1.3,0-4,0-4.9c0-0.4-0.4-0.8-0.9-0.8h-7v1.5
					c1.8,0,3.6,0,5.4,0v4.2c-1.3,0-1.5,0-2.6,0c-0.1,0-0.3-0.2-0.3-0.3c0-0.7,0-1.8,0-2.8c0-0.2-0.2-0.5-0.6-0.5c-0.4,0-1.1,0-1.6,0
					v3.7c0,0.7,0.6,1.3,1.3,1.3c0,0,2.7,0,5,0v1.4h-5.5c-0.6,0-1.6,0.5-1.6,1.5c1.9,0,5,0,7.1,0v1.4c0,0.2-0.2,0.3-0.5,0.3h-0.8
					c0,0.7,0,1.1,0,1.5h1.2c0.4,0,0.3,0,0.7,0c1,0,1.5-0.7,1.5-1.3c0-1.9,0-4.5,0-6.4C789.4,335.6,789.1,335.6,788.8,335.6z
					 M778.9,340.7c0.7-0.8,1.2-1.8,1.2-3.6c0-2,0-4,0-5.9c0-0.2-0.2-0.4-0.4-0.4c-0.8,0-1.8,0-2.6,0v-0.9h-2c0,0.3,0,0.6,0,0.9
					c-0.2,0-0.5,0-0.7,0v1.5h0.7v4.8c0,1.9,0.6,2.8,1.4,3.6c-0.9,0.6-1.8,1-3.1,1c-0.2,0-0.3,0-0.5,0c-1.9,0-4.2,0-6.3,0
					c-1.9,0-3.8-0.4-4.5-1.2c0.7-0.9,1-1.6,1.2-3.5c0-1.9,0-3.4,0-5.8c0-0.3-0.3-0.5-0.5-0.5c-0.8,0-1.6,0-2.6,0v-0.9
					c-0.8,0-1.2,0-2,0v0.9c-0.2,0-0.4,0-0.7,0v1.5c0.3,0,0.5,0,0.7,0c0,1.6,0,3.3,0,4.8c0.2,1.9,0.7,2.5,1.5,3.6
					c-1,0.7-2.3,1-3.8,1.1c-1.8,0-3.3,0-5.5,0c0-0.4,0-0.9,0-1.2h5.6v-1.6h-5.5c0-0.4,0-0.8,0-1.2c1.6,0,3.7,0,4.2,0
					c0,0,1.4,0,1.4-1.5c0-1.6,0-4.4,0-6.4c-4.4,0-8.8,0-13.2,0c-0.2,0-0.4,0.2-0.4,0.4c0,0.3,0,5.2,0,7.5c1.8,0,3.7,0,5.6,0v1.2
					h-5.6c0,0.5,0,1.1,0,1.6h5.5c0,0.4,0,0.8,0,1.2h-6.5c0,0.4,0,1,0,1.5c4.9,0,10.9,0,15.6,0c1.3,0,2.9-0.7,4-1.3
					c1.4,1.1,3,1.3,5.6,1.3c0.8,0,1.7,0,2.7,0c1.4,0,2.6,0,3.7,0c2.2,0,3.6-0.5,5-1.3c1.2,0.7,2.4,1.2,4.4,1.3v0h2.9v-1.5h-2.9
					C780.8,341.6,779.8,341.4,778.9,340.7z M747.7,336.2h-3.4v-1.6h3.4V336.2z M747.7,333h-3.4v-1.6c1.1,0,2.3,0,3.4,0V333z
					 M750.3,331.4h3.4v1.6h-3.4V331.4z M750.3,334.6c1.1,0,2.3,0,3.4,0c0,0.6,0,1.2,0,1.6h-3.4C750.3,335.8,750.3,335.1,750.3,334.6
					z M761.3,337.1c-0.1,1.1-0.2,1.3-0.5,2c-0.3-0.7-0.6-1-0.7-2c0-1.4,0-3.3,0-4.8h1.2V337.1z M778.2,337.1c0,1-0.3,1.5-0.5,2
					c-0.3-0.5-0.6-1.1-0.6-2c0-1.5,0-3.3,0-4.8h1.1C778.2,333.8,778.2,335.6,778.2,337.1z"/>
			</g>
		</g>
	</g>
</g>
<path style="fill:#FFFFFF;" d="M638.7,234.5c1.2-1.4,4.3-3.7,7.1,3.6c3.7,9.5,18,39.6,6.4,63.6c-11.6,24.1-32.8,64.8-40.5,21.4
	C603.1,274.4,638.4,235,638.7,234.5z"/>
<path style="fill:#FFFFFF;" d="M567.8,211.6c-1.8-1.6-7.2-5.5-9.5,6.4c-2.7,14.3-15.1,59.9,7.4,90.9c22.5,31,62.3,83,62.3,20.3
	C628,257.5,568.2,211.9,567.8,211.6z"/>
<g>
	<defs>
		<rect id="SVGID_7_" x="563.2" y="284.2" width="251.9" height="317.8"/>
	</defs>
	<clipPath id="SVGID_8_">
		<use xlink:href="#SVGID_7_"  style="overflow:visible;"/>
	</clipPath>
</g>
<g>
	<defs>
		<rect id="SVGID_9_" x="515" y="383.1" width="220.2" height="218.9"/>
	</defs>
	<clipPath id="SVGID_10_">
		<use xlink:href="#SVGID_9_"  style="overflow:visible;"/>
	</clipPath>
</g>
<g>
	<defs>
		<rect id="SVGID_11_" x="515" y="337.8" width="300.1" height="264.2"/>
	</defs>
	<clipPath id="SVGID_12_">
		<use xlink:href="#SVGID_11_"  style="overflow:visible;"/>
	</clipPath>
</g>
<g>
	<defs>
		<rect id="SVGID_13_" x="8.1" y="294.9" width="285.1" height="302.5"/>
	</defs>
	<clipPath id="SVGID_14_">
		<use xlink:href="#SVGID_13_"  style="overflow:visible;"/>
	</clipPath>
	<path style="clip-path:url(#SVGID_14_);fill:#AA2D24;" d="M126.4,385.2c0,0,86.2,21.4,107.3,55.2c21.1,33.7-3.3,66.8-65.5,68.8
		c-62.2,2-144.4,2.7-160.2,62.2l-24,42.6l-17.5-46.6c15.2-145.5,161.1-77.3,231.4-94.6c59.2-14.5-50.8-62.4-50.8-62.4"/>
</g>
<path style="fill:#FFFFFF;" d="M814.9,233.2c0,0-116.7,33.7-164.6,70.8c-47.9,37.1-69.8,69.7,0,107.7c69.8,37.9,70.1,42.9,71,46.7
	c1.6,6.8-1.4,27.6-85.4,18.9c-84-8.7-109.2,5.5-120.9,13.2v84.1c0,0,5.3-45.8,84.8-57.1c82.3-11.6,106.5-11,125.9-17
	c46.2-14.2,44.3-52.6-5.4-76.4c-33.6-16.1-112.4-36.7-82.2-70.7c30.2-34,118.9-55.3,176.9-60.3L814.9,233.2z"/>
<path style="fill:#B52E24;" d="M126.4,385.2c0,0,4.8,13.3,20.8,25.1l-0.7-9.2L126.4,385.2z"/>
<rect x="393.4" y="524.7" style="fill:#FFFFFF;" width="35.6" height="35.6"/>
<g>
	<rect x="418.7" y="532.5" width="1.3" height="1.3"/>
	<rect x="419.9" y="533.7" width="1.2" height="1.2"/>
	<rect x="419.9" y="536.2" width="1.2" height="1.3"/>
	<rect x="413.7" y="532.5" width="1.3" height="1.3"/>
	<rect x="419.9" y="541.2" width="1.2" height="1.3"/>
	<rect x="419.9" y="547.4" width="1.2" height="1.3"/>
	<rect x="419.9" y="537.5" width="1.2" height="1.2"/>
	<rect x="419.9" y="542.5" width="1.2" height="1.3"/>
	<rect x="411.2" y="532.5" width="1.3" height="1.3"/>
	<rect x="401.1" y="542.5" width="1.2" height="1.3"/>
	<rect x="401.1" y="537.5" width="1.2" height="1.2"/>
	<rect x="401.1" y="546.2" width="1.2" height="1.3"/>
	<rect x="406.1" y="532.5" width="1.2" height="1.3"/>
	<rect x="401.1" y="533.7" width="1.2" height="1.2"/>
	<rect x="402.4" y="532.5" width="1.3" height="1.3"/>
	<rect x="402.4" y="536.2" width="1.3" height="1.3"/>
	<rect x="402.4" y="533.7" width="1.3" height="1.2"/>
	<rect x="402.4" y="537.5" width="1.3" height="1.2"/>
	<rect x="402.4" y="541.2" width="1.3" height="1.3"/>
	<rect x="402.4" y="540" width="1.3" height="1.3"/>
	<rect x="402.4" y="538.7" width="1.3" height="1.2"/>
	<rect x="407.4" y="533.7" width="1.3" height="1.2"/>
	<rect x="413.7" y="533.7" width="1.3" height="1.2"/>
	<rect x="416.2" y="533.7" width="1.3" height="1.2"/>
	<rect x="409.9" y="533.7" width="1.3" height="1.2"/>
	<rect x="411.2" y="533.7" width="1.3" height="1.2"/>
	<rect x="411.2" y="551.2" width="1.3" height="1.3"/>
	<rect x="413.7" y="551.2" width="1.3" height="1.3"/>
	<rect x="408.7" y="551.2" width="1.2" height="1.3"/>
	<rect x="416.2" y="551.2" width="1.3" height="1.3"/>
	<rect x="407.4" y="551.2" width="1.3" height="1.3"/>
	<rect x="402.4" y="547.4" width="1.3" height="1.3"/>
	<rect x="402.4" y="546.2" width="1.3" height="1.3"/>
	<rect x="402.4" y="545" width="1.3" height="1.2"/>
	<rect x="402.4" y="551.2" width="1.3" height="1.3"/>
	<rect x="402.4" y="549.9" width="1.3" height="1.2"/>
	<rect x="407.4" y="553.7" width="1.3" height="1.3"/>
	<rect x="399.9" y="533.7" width="1.3" height="1.2"/>
	<rect x="399.9" y="542.5" width="1.3" height="1.3"/>
	<rect x="399.9" y="541.2" width="1.3" height="1.3"/>
	<rect x="399.9" y="531.2" width="1.3" height="1.3"/>
	<rect x="399.9" y="538.7" width="1.3" height="1.2"/>
	<rect x="399.9" y="543.7" width="1.3" height="1.3"/>
	<rect x="409.9" y="531.2" width="1.3" height="1.3"/>
	<rect x="407.4" y="531.2" width="1.3" height="1.3"/>
	<rect x="411.2" y="531.2" width="1.3" height="1.3"/>
	<rect x="402.4" y="531.2" width="1.3" height="1.3"/>
	<rect x="401.1" y="549.9" width="1.2" height="1.2"/>
	<rect x="399.9" y="545" width="1.3" height="1.2"/>
	<rect x="411.2" y="553.7" width="1.3" height="1.3"/>
	<rect x="413.7" y="553.7" width="1.3" height="1.3"/>
	<rect x="408.7" y="553.7" width="1.2" height="1.3"/>
	<rect x="402.4" y="553.7" width="1.3" height="1.3"/>
	<rect x="399.9" y="549.9" width="1.3" height="1.2"/>
	<rect x="399.9" y="553.7" width="1.3" height="1.3"/>
	<rect x="399.9" y="552.4" width="1.3" height="1.3"/>
	<rect x="418.7" y="533.7" width="1.3" height="1.2"/>
	<rect x="417.4" y="552.4" width="1.2" height="1.3"/>
	<rect x="416.2" y="552.4" width="1.3" height="1.3"/>
	<rect x="413.7" y="552.4" width="1.3" height="1.3"/>
	<rect x="411.2" y="552.4" width="1.3" height="1.3"/>
	<rect x="421.2" y="552.4" width="1.3" height="1.3"/>
	<rect x="418.7" y="552.4" width="1.3" height="1.3"/>
	<rect x="421.2" y="551.2" width="1.3" height="1.3"/>
	<rect x="419.9" y="552.4" width="1.2" height="1.3"/>
	<rect x="421.2" y="549.9" width="1.3" height="1.2"/>
	<rect x="402.4" y="552.4" width="1.3" height="1.3"/>
	<rect x="408.7" y="552.4" width="1.2" height="1.3"/>
	<rect x="409.9" y="552.4" width="1.3" height="1.3"/>
	<rect x="406.1" y="552.4" width="1.2" height="1.3"/>
	<rect x="404.9" y="552.4" width="1.3" height="1.3"/>
	<rect x="421.2" y="546.2" width="1.3" height="1.3"/>
	<rect x="421.2" y="536.2" width="1.3" height="1.3"/>
	<rect x="421.2" y="533.7" width="1.3" height="1.2"/>
	<rect x="421.2" y="531.2" width="1.3" height="1.3"/>
	<rect x="414.9" y="531.2" width="1.2" height="1.3"/>
	<rect x="416.2" y="531.2" width="1.3" height="1.3"/>
	<rect x="418.7" y="531.2" width="1.3" height="1.3"/>
	<rect x="421.2" y="543.7" width="1.3" height="1.3"/>
	<rect x="421.2" y="547.4" width="1.3" height="1.3"/>
	<rect x="421.2" y="548.7" width="1.3" height="1.3"/>
	<rect x="421.2" y="538.7" width="1.3" height="1.2"/>
	<rect x="416.2" y="540" width="1.3" height="1.3"/>
	<rect x="406.1" y="540" width="1.2" height="1.3"/>
	<rect x="412.4" y="537.5" width="1.2" height="1.2"/>
	<rect x="414.9" y="541.2" width="1.2" height="1.3"/>
	<rect x="414.9" y="538.7" width="1.2" height="1.2"/>
	<rect x="408.7" y="537.5" width="1.2" height="1.2"/>
	<rect x="416.2" y="542.5" width="1.3" height="1.3"/>
	<rect x="416.2" y="545" width="1.3" height="1.2"/>
	<rect x="416.2" y="541.2" width="1.3" height="1.3"/>
	<rect x="416.2" y="536.2" width="1.3" height="1.3"/>
	<rect x="416.2" y="538.7" width="1.3" height="1.2"/>
	<rect x="406.1" y="546.2" width="1.2" height="1.3"/>
	<rect x="414.9" y="536.2" width="1.2" height="1.3"/>
	<rect x="416.2" y="547.4" width="1.3" height="1.3"/>
	<rect x="408.7" y="547.4" width="1.2" height="1.3"/>
	<rect x="414.9" y="547.4" width="1.2" height="1.3"/>
	<rect x="413.7" y="547.4" width="1.3" height="1.3"/>
	<rect x="408.7" y="540" width="1.2" height="1.3"/>
	<rect x="408.7" y="541.2" width="1.2" height="1.3"/>
	<rect x="409.9" y="540" width="1.3" height="1.3"/>
	<rect x="411.2" y="540" width="1.3" height="1.3"/>
	<rect x="409.9" y="545" width="1.3" height="1.2"/>
	<rect x="408.7" y="543.7" width="1.2" height="1.3"/>
	<rect x="412.4" y="540" width="1.2" height="1.3"/>
	<rect x="408.7" y="545" width="1.2" height="1.2"/>
	<rect x="408.7" y="542.5" width="1.2" height="1.3"/>
	<rect x="409.9" y="542.5" width="1.3" height="1.3"/>
	<rect x="411.2" y="542.5" width="1.3" height="1.3"/>
	<rect x="412.4" y="542.5" width="1.2" height="1.3"/>
	<rect x="411.2" y="543.7" width="1.3" height="1.3"/>
	<rect x="407.4" y="543.7" width="1.3" height="1.3"/>
	<rect x="407.4" y="540" width="1.3" height="1.3"/>
	<rect x="407.4" y="542.5" width="1.3" height="1.3"/>
	<rect x="407.4" y="546.2" width="1.3" height="1.3"/>
	<rect x="411.2" y="546.2" width="1.3" height="1.3"/>
	<rect x="413.7" y="545" width="1.3" height="1.2"/>
	<rect x="413.7" y="542.5" width="1.3" height="1.3"/>
	<rect x="408.7" y="538.7" width="1.2" height="1.2"/>
	<rect x="413.7" y="543.7" width="1.3" height="1.3"/>
	<rect x="412.4" y="538.7" width="1.2" height="1.2"/>
	<rect x="412.4" y="546.2" width="1.2" height="1.3"/>
	<rect x="403.6" y="546.2" width="1.2" height="1.3"/>
	<rect x="407.4" y="549.9" width="1.3" height="1.2"/>
	<rect x="404.9" y="549.9" width="1.3" height="1.2"/>
	<rect x="406.1" y="535" width="1.2" height="1.3"/>
	<rect x="407.4" y="535" width="1.3" height="1.3"/>
	<rect x="403.6" y="540" width="1.2" height="1.3"/>
	<rect x="403.6" y="537.5" width="1.2" height="1.2"/>
	<rect x="404.9" y="535" width="1.3" height="1.3"/>
	<rect x="418.7" y="545" width="1.3" height="1.2"/>
	<rect x="418.7" y="546.2" width="1.3" height="1.3"/>
	<rect x="418.7" y="547.4" width="1.3" height="1.3"/>
	<rect x="418.7" y="540" width="1.3" height="1.3"/>
	<rect x="418.7" y="537.5" width="1.3" height="1.2"/>
	<rect x="411.2" y="549.9" width="1.3" height="1.2"/>
	<rect x="409.9" y="549.9" width="1.3" height="1.2"/>
	<rect x="418.7" y="549.9" width="1.3" height="1.2"/>
	<rect x="416.2" y="549.9" width="1.3" height="1.2"/>
	<rect x="404.9" y="543.7" width="1.3" height="1.3"/>
	<rect x="404.9" y="548.7" width="1.3" height="1.3"/>
	<rect x="404.9" y="542.5" width="1.3" height="1.3"/>
	<rect x="411.2" y="536.2" width="1.3" height="1.3"/>
	<rect x="407.4" y="536.2" width="1.3" height="1.3"/>
	<rect x="404.9" y="540" width="1.3" height="1.3"/>
	<rect x="404.9" y="536.2" width="1.3" height="1.3"/>
	<rect x="417.4" y="536.2" width="1.2" height="1.3"/>
	<rect x="411.2" y="548.7" width="1.3" height="1.3"/>
	<rect x="414.9" y="535" width="1.2" height="1.3"/>
	<rect x="413.7" y="535" width="1.3" height="1.3"/>
	<rect x="416.2" y="548.7" width="1.3" height="1.3"/>
	<rect x="417.4" y="547.4" width="1.2" height="1.3"/>
	<rect x="417.4" y="543.7" width="1.2" height="1.3"/>
	<rect x="422.4" y="541.2" width="1.2" height="1.3"/>
	<rect x="396.1" y="541.2" width="1.2" height="1.3"/>
	<rect x="396.1" y="549.9" width="1.2" height="1.2"/>
	<rect x="396.1" y="546.2" width="1.2" height="1.3"/>
	<rect x="396.1" y="537.5" width="1.2" height="1.2"/>
	<rect x="396.1" y="533.7" width="1.2" height="1.2"/>
	<rect x="396.1" y="536.2" width="1.2" height="1.3"/>
	<rect x="408.7" y="557.4" width="1.2" height="1.3"/>
	<rect x="406.1" y="557.4" width="1.2" height="1.3"/>
	<rect x="414.9" y="557.4" width="1.2" height="1.3"/>
	<rect x="412.4" y="557.4" width="1.2" height="1.3"/>
	<rect x="411.2" y="557.4" width="1.3" height="1.3"/>
	<rect x="399.9" y="557.4" width="1.3" height="1.3"/>
	<rect x="396.1" y="557.4" width="1.2" height="1.3"/>
	<rect x="416.2" y="557.4" width="1.3" height="1.3"/>
	<rect x="401.1" y="557.4" width="1.2" height="1.3"/>
	<rect x="397.4" y="557.4" width="1.3" height="1.3"/>
	<rect x="402.4" y="557.4" width="1.3" height="1.3"/>
	<rect x="398.6" y="557.4" width="1.2" height="1.3"/>
	<rect x="424.9" y="540" width="1.2" height="1.3"/>
	<rect x="424.9" y="533.7" width="1.2" height="1.2"/>
	<rect x="424.9" y="551.2" width="1.2" height="1.3"/>
	<rect x="424.9" y="542.5" width="1.2" height="1.3"/>
	<rect x="424.9" y="552.4" width="1.2" height="1.3"/>
	<rect x="424.9" y="543.7" width="1.2" height="1.3"/>
	<rect x="424.9" y="547.4" width="1.2" height="1.3"/>
	<rect x="406.1" y="527.5" width="1.2" height="1.3"/>
	<rect x="412.4" y="527.5" width="1.2" height="1.3"/>
	<rect x="411.2" y="527.5" width="1.3" height="1.3"/>
	<rect x="409.9" y="527.5" width="1.3" height="1.3"/>
	<rect x="407.4" y="527.5" width="1.3" height="1.3"/>
	<rect x="402.4" y="527.5" width="1.3" height="1.3"/>
	<rect x="418.7" y="527.5" width="1.3" height="1.3"/>
	<rect x="414.9" y="527.5" width="1.2" height="1.3"/>
	<rect x="413.7" y="527.5" width="1.3" height="1.3"/>
	<rect x="397.4" y="526.2" width="1.3" height="1.3"/>
	<rect x="396.1" y="526.2" width="1.2" height="1.3"/>
	<rect x="398.6" y="526.2" width="1.2" height="1.3"/>
	<rect x="394.9" y="526.2" width="1.3" height="1.3"/>
	<rect x="399.9" y="526.2" width="1.3" height="1.3"/>
	<rect x="394.9" y="531.2" width="1.3" height="1.3"/>
	<rect x="394.9" y="527.5" width="1.3" height="1.3"/>
	<rect x="401.1" y="526.2" width="1.2" height="1.3"/>
	<rect x="394.9" y="528.7" width="1.3" height="1.2"/>
	<rect x="409.9" y="526.2" width="1.3" height="1.3"/>
	<rect x="411.2" y="526.2" width="1.3" height="1.3"/>
	<rect x="394.9" y="532.5" width="1.3" height="1.3"/>
	<rect x="407.4" y="526.2" width="1.3" height="1.3"/>
	<rect x="402.4" y="526.2" width="1.3" height="1.3"/>
	<rect x="406.1" y="526.2" width="1.2" height="1.3"/>
	<rect x="394.9" y="551.2" width="1.3" height="1.3"/>
	<rect x="394.9" y="549.9" width="1.3" height="1.2"/>
	<rect x="394.9" y="546.2" width="1.3" height="1.3"/>
	<rect x="394.9" y="552.4" width="1.3" height="1.3"/>
	<rect x="394.9" y="553.7" width="1.3" height="1.3"/>
	<rect x="394.9" y="557.4" width="1.3" height="1.3"/>
	<rect x="394.9" y="533.7" width="1.3" height="1.2"/>
	<rect x="394.9" y="554.9" width="1.3" height="1.2"/>
	<rect x="394.9" y="556.2" width="1.3" height="1.3"/>
	<rect x="394.9" y="538.7" width="1.3" height="1.2"/>
	<rect x="394.9" y="537.5" width="1.3" height="1.2"/>
	<rect x="394.9" y="543.7" width="1.3" height="1.3"/>
	<rect x="394.9" y="541.2" width="1.3" height="1.3"/>
	<rect x="394.9" y="530" width="1.3" height="1.3"/>
	<rect x="426.2" y="549.9" width="1.3" height="1.2"/>
	<rect x="426.2" y="547.4" width="1.3" height="1.3"/>
	<rect x="426.2" y="552.4" width="1.3" height="1.3"/>
	<rect x="426.2" y="541.2" width="1.3" height="1.3"/>
	<rect x="426.2" y="543.7" width="1.3" height="1.3"/>
	<rect x="426.2" y="553.7" width="1.3" height="1.3"/>
	<rect x="426.2" y="545" width="1.3" height="1.2"/>
	<rect x="426.2" y="551.2" width="1.3" height="1.3"/>
	<rect x="414.9" y="526.2" width="1.2" height="1.3"/>
	<rect x="421.2" y="557.4" width="1.3" height="1.3"/>
	<rect x="418.7" y="557.4" width="1.3" height="1.3"/>
	<rect x="423.7" y="557.4" width="1.3" height="1.3"/>
	<rect x="426.2" y="557.4" width="1.3" height="1.3"/>
	<rect x="422.4" y="526.2" width="1.2" height="1.3"/>
	<rect x="426.2" y="540" width="1.3" height="1.3"/>
	<rect x="424.9" y="526.2" width="1.2" height="1.3"/>
	<rect x="426.2" y="526.2" width="1.3" height="1.3"/>
	<rect x="421.2" y="526.2" width="1.3" height="1.3"/>
	<rect x="418.7" y="526.2" width="1.3" height="1.3"/>
	<rect x="419.9" y="526.2" width="1.2" height="1.3"/>
	<rect x="426.2" y="527.5" width="1.3" height="1.3"/>
	<rect x="423.7" y="526.2" width="1.3" height="1.3"/>
	<rect x="426.2" y="536.2" width="1.3" height="1.3"/>
	<rect x="426.2" y="528.7" width="1.3" height="1.2"/>
	<rect x="426.2" y="538.7" width="1.3" height="1.2"/>
	<rect x="426.2" y="530" width="1.3" height="1.3"/>
	<rect x="426.2" y="531.2" width="1.3" height="1.3"/>
	<rect x="426.2" y="533.7" width="1.3" height="1.2"/>
	<rect x="426.2" y="532.5" width="1.3" height="1.3"/>
	<rect x="398.6" y="549.9" width="1.2" height="1.2"/>
	<rect x="398.6" y="547.4" width="1.2" height="1.3"/>
	<rect x="398.6" y="553.7" width="1.2" height="1.3"/>
	<rect x="398.6" y="554.9" width="1.2" height="1.2"/>
	<rect x="398.6" y="552.4" width="1.2" height="1.3"/>
	<rect x="399.9" y="554.9" width="1.3" height="1.2"/>
	<rect x="398.6" y="533.7" width="1.2" height="1.2"/>
	<rect x="398.6" y="536.2" width="1.2" height="1.3"/>
	<rect x="398.6" y="531.2" width="1.2" height="1.3"/>
	<rect x="419.9" y="554.9" width="1.2" height="1.2"/>
	<rect x="414.9" y="554.9" width="1.2" height="1.2"/>
	<rect x="402.4" y="554.9" width="1.3" height="1.2"/>
	<rect x="423.7" y="554.9" width="1.3" height="1.2"/>
	<rect x="422.4" y="554.9" width="1.2" height="1.2"/>
	<rect x="423.7" y="552.4" width="1.3" height="1.3"/>
	<rect x="407.4" y="554.9" width="1.3" height="1.2"/>
	<rect x="404.9" y="554.9" width="1.3" height="1.2"/>
	<rect x="411.2" y="554.9" width="1.3" height="1.2"/>
	<rect x="408.7" y="554.9" width="1.2" height="1.2"/>
	<rect x="422.4" y="543.7" width="1.2" height="1.3"/>
	<rect x="422.4" y="542.5" width="1.2" height="1.3"/>
	<rect x="422.4" y="538.7" width="1.2" height="1.2"/>
	<rect x="422.4" y="540" width="1.2" height="1.3"/>
	<rect x="422.4" y="533.7" width="1.2" height="1.2"/>
	<rect x="419.9" y="553.7" width="1.2" height="1.3"/>
	<rect x="406.1" y="530" width="1.2" height="1.3"/>
	<rect x="407.4" y="530" width="1.3" height="1.3"/>
	<rect x="398.6" y="530" width="1.2" height="1.3"/>
	<rect x="422.4" y="531.2" width="1.2" height="1.3"/>
	<rect x="399.9" y="530" width="1.3" height="1.3"/>
	<rect x="402.4" y="530" width="1.3" height="1.3"/>
	<rect x="404.9" y="530" width="1.3" height="1.3"/>
	<rect x="421.2" y="530" width="1.3" height="1.3"/>
	<rect x="418.7" y="530" width="1.3" height="1.3"/>
	<rect x="424.9" y="554.9" width="1.2" height="1.2"/>
	<rect x="414.9" y="530" width="1.2" height="1.3"/>
	<rect x="413.7" y="530" width="1.3" height="1.3"/>
	<rect x="422.4" y="530" width="1.2" height="1.3"/>
	<rect x="397.4" y="549.9" width="1.3" height="1.2"/>
	<rect x="397.4" y="552.4" width="1.3" height="1.3"/>
	<rect x="397.4" y="547.4" width="1.3" height="1.3"/>
	<rect x="397.4" y="546.2" width="1.3" height="1.3"/>
	<rect x="397.4" y="553.7" width="1.3" height="1.3"/>
	<rect x="397.4" y="554.9" width="1.3" height="1.2"/>
	<rect x="397.4" y="537.5" width="1.3" height="1.2"/>
	<rect x="397.4" y="538.7" width="1.3" height="1.2"/>
	<rect x="397.4" y="541.2" width="1.3" height="1.3"/>
	<rect x="417.4" y="556.2" width="1.2" height="1.3"/>
	<rect x="416.2" y="556.2" width="1.3" height="1.3"/>
	<rect x="424.9" y="556.2" width="1.2" height="1.3"/>
	<rect x="423.7" y="556.2" width="1.3" height="1.3"/>
	<rect x="422.4" y="556.2" width="1.2" height="1.3"/>
	<rect x="402.4" y="556.2" width="1.3" height="1.3"/>
	<rect x="412.4" y="556.2" width="1.2" height="1.3"/>
	<rect x="406.1" y="556.2" width="1.2" height="1.3"/>
	<rect x="397.4" y="533.7" width="1.3" height="1.2"/>
	<rect x="411.2" y="556.2" width="1.3" height="1.3"/>
	<rect x="408.7" y="556.2" width="1.2" height="1.3"/>
	<rect x="423.7" y="533.7" width="1.3" height="1.2"/>
	<rect x="423.7" y="536.2" width="1.3" height="1.3"/>
	<rect x="423.7" y="531.2" width="1.3" height="1.3"/>
	<rect x="422.4" y="528.7" width="1.2" height="1.2"/>
	<rect x="421.2" y="528.7" width="1.3" height="1.2"/>
	<rect x="423.7" y="537.5" width="1.3" height="1.2"/>
	<rect x="423.7" y="528.7" width="1.3" height="1.2"/>
	<rect x="423.7" y="530" width="1.3" height="1.3"/>
	<rect x="423.7" y="543.7" width="1.3" height="1.3"/>
	<rect x="423.7" y="545" width="1.3" height="1.2"/>
	<rect x="423.7" y="540" width="1.3" height="1.3"/>
	<rect x="423.7" y="546.2" width="1.3" height="1.3"/>
	<rect x="402.4" y="528.7" width="1.3" height="1.2"/>
	<rect x="404.9" y="528.7" width="1.3" height="1.2"/>
	<rect x="399.9" y="528.7" width="1.3" height="1.2"/>
	<rect x="418.7" y="528.7" width="1.3" height="1.2"/>
	<rect x="397.4" y="530" width="1.3" height="1.3"/>
	<rect x="397.4" y="528.7" width="1.3" height="1.2"/>
	<rect x="398.6" y="528.7" width="1.2" height="1.2"/>
	<rect x="397.4" y="531.2" width="1.3" height="1.3"/>
	<rect x="414.9" y="528.7" width="1.2" height="1.2"/>
	<rect x="407.4" y="528.7" width="1.3" height="1.2"/>
	<rect x="412.4" y="528.7" width="1.2" height="1.2"/>
	<rect x="411.2" y="528.7" width="1.3" height="1.2"/>
</g>
</svg>
