<?xml version="1.0" encoding="utf-8"?>
<!-- Generator: Adobe Illustrator 17.1.0, SVG Export Plug-In . SVG Version: 6.00 Build 0)  -->
<!DOCTYPE svg PUBLIC "-//W3C//DTD SVG 1.1//EN" "http://www.w3.org/Graphics/SVG/1.1/DTD/svg11.dtd">
<svg version="1.1" id="图层_1" xmlns="http://www.w3.org/2000/svg" xmlns:xlink="http://www.w3.org/1999/xlink" x="0px" y="0px"
	 viewBox="0 0 819 597.2" style="enable-background:new 0 0 819 597.2;" xml:space="preserve">
<rect x="512.5" y="154" style="fill:#FF6600;" width="299.9" height="438.9"/>
<rect x="5.5" y="154.4" style="fill:#FFFFFF;" width="299.9" height="438.4"/>
<circle style="fill:none;stroke:#999999;" cx="100.6" cy="182.2" r="4.2"/>
<circle style="fill:none;stroke:#999999;" cx="221.3" cy="182.2" r="4.2"/>
<circle style="fill:none;stroke:#808080;" cx="597.8" cy="181.3" r="4.2"/>
<circle style="fill:none;stroke:#808080;" cx="718.5" cy="181.3" r="4.2"/>
<g>
	<defs>
		<rect id="SVGID_1_" x="80.6" y="-16.3" width="169" height="200.2"/>
	</defs>
	<clipPath id="SVGID_2_">
		<use xlink:href="#SVGID_1_"  style="overflow:visible;"/>
	</clipPath>
	<path style="clip-path:url(#SVGID_2_);fill:none;stroke:#999999;" d="M222.2,166.4c0,90-27.4,163-61.2,163s-61.2-73-61.2-163
		c0-90,27.4-163,61.2-163C193.1,3.3,222.2,76.3,222.2,166.4z"/>
</g>
<g>
	<defs>
		<rect id="SVGID_3_" x="578" y="-17.3" width="169" height="200"/>
	</defs>
	<clipPath id="SVGID_4_">
		<use xlink:href="#SVGID_3_"  style="overflow:visible;"/>
	</clipPath>
	<path style="clip-path:url(#SVGID_4_);fill:none;stroke:#999999;" d="M719.7,165.1c0,90-27.4,163-61.2,163
		c-33.8,0-61.2-73-61.2-163c0-90,27.4-163,61.2-163C690.5,2.1,719.7,75,719.7,165.1z"/>
</g>
<rect x="357.3" y="152.3" style="fill:#FFFFFF;stroke:#999999;stroke-miterlimit:10;" width="103" height="440.4"/>
<g>
	<path style="fill:#FF6600;" d="M388.2,571.6l-0.6-2.2h0l-0.5,2.2h-0.5l-0.9-2.7h0.5l0.6,2.2h0l0.5-2.2h0.5l0.6,2.2h0l0.6-2.2h0.5
		l-0.9,2.7H388.2z"/>
	<path style="fill:#FF6600;" d="M392.3,571.6l-0.6-2.2h0l-0.5,2.2h-0.5l-0.9-2.7h0.5l0.6,2.2h0l0.5-2.2h0.5l0.6,2.2h0l0.6-2.2h0.5
		l-0.9,2.7H392.3z"/>
	<path style="fill:#FF6600;" d="M396.3,571.6l-0.6-2.2h0l-0.5,2.2h-0.5l-0.9-2.7h0.5l0.6,2.2h0l0.5-2.2h0.5l0.6,2.2h0l0.6-2.2h0.5
		l-0.9,2.7H396.3z"/>
	<path style="fill:#FF6600;" d="M398.4,571v0.6h-0.6V571H398.4z"/>
	<path style="fill:#FF6600;" d="M401.3,571.6c-0.1,0-0.2,0-0.3-0.1c-0.1-0.1-0.1-0.2-0.1-0.3c-0.1,0.1-0.3,0.3-0.4,0.3
		c-0.2,0.1-0.3,0.1-0.5,0.1c-0.1,0-0.2,0-0.3,0s-0.2-0.1-0.3-0.1c-0.1-0.1-0.1-0.1-0.2-0.2s-0.1-0.2-0.1-0.4c0-0.2,0-0.3,0.1-0.4
		s0.1-0.2,0.2-0.2c0.1-0.1,0.2-0.1,0.3-0.1c0.1,0,0.2-0.1,0.3-0.1c0.1,0,0.2,0,0.4-0.1c0.1,0,0.2,0,0.3-0.1c0.1,0,0.2-0.1,0.2-0.1
		c0,0,0.1-0.1,0.1-0.2c0-0.1,0-0.2-0.1-0.2c0-0.1-0.1-0.1-0.1-0.1c-0.1,0-0.1-0.1-0.2-0.1s-0.1,0-0.2,0c-0.2,0-0.3,0-0.5,0.1
		s-0.2,0.2-0.2,0.4h-0.5c0-0.2,0-0.3,0.1-0.4s0.1-0.2,0.3-0.3c0.1-0.1,0.2-0.1,0.4-0.2c0.1,0,0.3,0,0.4,0c0.1,0,0.2,0,0.4,0
		s0.2,0.1,0.3,0.1c0.1,0.1,0.2,0.1,0.2,0.2c0.1,0.1,0.1,0.2,0.1,0.4v1.4c0,0.1,0,0.2,0,0.2c0,0,0.1,0.1,0.1,0.1c0,0,0.1,0,0.1,0v0.3
		C401.6,571.6,401.5,571.6,401.3,571.6z M400.7,570.2c-0.1,0-0.2,0-0.3,0c-0.1,0-0.2,0-0.3,0c-0.1,0-0.2,0-0.3,0.1s-0.1,0.1-0.2,0.2
		c-0.1,0.1-0.1,0.2-0.1,0.3c0,0.1,0,0.1,0,0.2c0,0.1,0.1,0.1,0.1,0.1c0,0,0.1,0.1,0.2,0.1c0.1,0,0.1,0,0.2,0c0.1,0,0.3,0,0.4-0.1
		c0.1,0,0.2-0.1,0.3-0.2c0.1-0.1,0.1-0.1,0.1-0.2c0-0.1,0-0.1,0-0.2v-0.5C400.9,570.2,400.8,570.2,400.7,570.2z"/>
	<path style="fill:#FF6600;" d="M402.5,567.8v3.8h-0.4v-3.8H402.5z"/>
	<path style="fill:#FF6600;" d="M403.3,568.3v-0.6h0.4v0.6H403.3z M403.7,568.8v2.7h-0.4v-2.7H403.7z"/>
	<path style="fill:#FF6600;" d="M404.8,568.8v0.4h0c0.2-0.3,0.5-0.5,0.9-0.5c0.2,0,0.3,0,0.5,0.1s0.2,0.2,0.3,0.4
		c0.1-0.1,0.2-0.3,0.4-0.3c0.1-0.1,0.3-0.1,0.5-0.1c0.1,0,0.3,0,0.4,0c0.1,0,0.2,0.1,0.3,0.1c0.1,0.1,0.1,0.1,0.2,0.2
		s0.1,0.2,0.1,0.4v2h-0.5v-1.8c0-0.1,0-0.2,0-0.2c0-0.1,0-0.1-0.1-0.2c0-0.1-0.1-0.1-0.2-0.1c-0.1,0-0.2,0-0.3,0
		c-0.2,0-0.4,0.1-0.5,0.2s-0.2,0.3-0.2,0.5v1.7h-0.4v-1.8c0-0.1,0-0.2,0-0.2c0-0.1,0-0.1-0.1-0.2c0-0.1-0.1-0.1-0.2-0.1
		s-0.1,0-0.3,0c-0.1,0-0.2,0-0.3,0.1c-0.1,0.1-0.2,0.1-0.2,0.2c-0.1,0.1-0.1,0.2-0.1,0.2c0,0.1,0,0.1,0,0.2v1.7h-0.4v-2.7H404.8z"/>
	<path style="fill:#FF6600;" d="M411,571.6c-0.1,0-0.2,0-0.3-0.1c-0.1-0.1-0.1-0.2-0.1-0.3c-0.1,0.1-0.3,0.3-0.4,0.3
		c-0.2,0.1-0.3,0.1-0.5,0.1c-0.1,0-0.2,0-0.3,0s-0.2-0.1-0.3-0.1c-0.1-0.1-0.1-0.1-0.2-0.2s-0.1-0.2-0.1-0.4c0-0.2,0-0.3,0.1-0.4
		s0.1-0.2,0.2-0.2c0.1-0.1,0.2-0.1,0.3-0.1c0.1,0,0.2-0.1,0.3-0.1c0.1,0,0.2,0,0.4-0.1c0.1,0,0.2,0,0.3-0.1c0.1,0,0.2-0.1,0.2-0.1
		c0,0,0.1-0.1,0.1-0.2c0-0.1,0-0.2-0.1-0.2c0-0.1-0.1-0.1-0.1-0.1c-0.1,0-0.1-0.1-0.2-0.1s-0.1,0-0.2,0c-0.2,0-0.3,0-0.5,0.1
		s-0.2,0.2-0.2,0.4h-0.5c0-0.2,0-0.3,0.1-0.4s0.1-0.2,0.3-0.3c0.1-0.1,0.2-0.1,0.4-0.2c0.1,0,0.3,0,0.4,0c0.1,0,0.2,0,0.4,0
		s0.2,0.1,0.3,0.1c0.1,0.1,0.2,0.1,0.2,0.2c0.1,0.1,0.1,0.2,0.1,0.4v1.4c0,0.1,0,0.2,0,0.2c0,0,0.1,0.1,0.1,0.1c0,0,0.1,0,0.1,0v0.3
		C411.3,571.6,411.2,571.6,411,571.6z M410.4,570.2c-0.1,0-0.2,0-0.3,0c-0.1,0-0.2,0-0.3,0c-0.1,0-0.2,0-0.3,0.1s-0.1,0.1-0.2,0.2
		c-0.1,0.1-0.1,0.2-0.1,0.3c0,0.1,0,0.1,0,0.2c0,0.1,0.1,0.1,0.1,0.1c0,0,0.1,0.1,0.2,0.1c0.1,0,0.1,0,0.2,0c0.1,0,0.3,0,0.4-0.1
		c0.1,0,0.2-0.1,0.3-0.2c0.1-0.1,0.1-0.1,0.1-0.2c0-0.1,0-0.1,0-0.2v-0.5C410.6,570.2,410.5,570.2,410.4,570.2z"/>
	<path style="fill:#FF6600;" d="M412.2,568.8v0.4h0c0.2-0.3,0.5-0.5,0.9-0.5c0.2,0,0.3,0,0.5,0.1s0.2,0.2,0.3,0.4
		c0.1-0.1,0.2-0.3,0.4-0.3c0.1-0.1,0.3-0.1,0.5-0.1c0.1,0,0.3,0,0.4,0c0.1,0,0.2,0.1,0.3,0.1c0.1,0.1,0.1,0.1,0.2,0.2
		s0.1,0.2,0.1,0.4v2h-0.5v-1.8c0-0.1,0-0.2,0-0.2c0-0.1,0-0.1-0.1-0.2c0-0.1-0.1-0.1-0.2-0.1c-0.1,0-0.2,0-0.3,0
		c-0.2,0-0.4,0.1-0.5,0.2s-0.2,0.3-0.2,0.5v1.7h-0.4v-1.8c0-0.1,0-0.2,0-0.2c0-0.1,0-0.1-0.1-0.2c0-0.1-0.1-0.1-0.2-0.1
		s-0.1,0-0.3,0c-0.1,0-0.2,0-0.3,0.1c-0.1,0.1-0.2,0.1-0.2,0.2c-0.1,0.1-0.1,0.2-0.1,0.2c0,0.1,0,0.1,0,0.2v1.7h-0.4v-2.7H412.2z"/>
	<path style="fill:#FF6600;" d="M418.4,571.6c-0.1,0-0.2,0-0.3-0.1c-0.1-0.1-0.1-0.2-0.1-0.3c-0.1,0.1-0.3,0.3-0.4,0.3
		c-0.2,0.1-0.3,0.1-0.5,0.1c-0.1,0-0.2,0-0.3,0s-0.2-0.1-0.3-0.1c-0.1-0.1-0.1-0.1-0.2-0.2s-0.1-0.2-0.1-0.4c0-0.2,0-0.3,0.1-0.4
		s0.1-0.2,0.2-0.2c0.1-0.1,0.2-0.1,0.3-0.1c0.1,0,0.2-0.1,0.3-0.1c0.1,0,0.2,0,0.4-0.1c0.1,0,0.2,0,0.3-0.1c0.1,0,0.2-0.1,0.2-0.1
		c0,0,0.1-0.1,0.1-0.2c0-0.1,0-0.2-0.1-0.2c0-0.1-0.1-0.1-0.1-0.1c-0.1,0-0.1-0.1-0.2-0.1s-0.1,0-0.2,0c-0.2,0-0.3,0-0.5,0.1
		s-0.2,0.2-0.2,0.4h-0.5c0-0.2,0-0.3,0.1-0.4s0.1-0.2,0.3-0.3c0.1-0.1,0.2-0.1,0.4-0.2c0.1,0,0.3,0,0.4,0c0.1,0,0.2,0,0.4,0
		s0.2,0.1,0.3,0.1c0.1,0.1,0.2,0.1,0.2,0.2c0.1,0.1,0.1,0.2,0.1,0.4v1.4c0,0.1,0,0.2,0,0.2c0,0,0.1,0.1,0.1,0.1c0,0,0.1,0,0.1,0v0.3
		C418.6,571.6,418.5,571.6,418.4,571.6z M417.7,570.2c-0.1,0-0.2,0-0.3,0c-0.1,0-0.2,0-0.3,0c-0.1,0-0.2,0-0.3,0.1s-0.1,0.1-0.2,0.2
		c-0.1,0.1-0.1,0.2-0.1,0.3c0,0.1,0,0.1,0,0.2c0,0.1,0.1,0.1,0.1,0.1c0,0,0.1,0.1,0.2,0.1c0.1,0,0.1,0,0.2,0c0.1,0,0.3,0,0.4-0.1
		c0.1,0,0.2-0.1,0.3-0.2c0.1-0.1,0.1-0.1,0.1-0.2c0-0.1,0-0.1,0-0.2v-0.5C417.9,570.2,417.8,570.2,417.7,570.2z"/>
	<path style="fill:#FF6600;" d="M419.8,571v0.6h-0.6V571H419.8z"/>
	<path style="fill:#FF6600;" d="M422.2,569.3c-0.1-0.1-0.3-0.1-0.5-0.1c-0.2,0-0.3,0-0.4,0.1c-0.1,0.1-0.2,0.1-0.3,0.2
		c-0.1,0.1-0.1,0.2-0.1,0.3s0,0.3,0,0.4c0,0.1,0,0.2,0,0.4c0,0.1,0.1,0.2,0.1,0.3s0.1,0.2,0.2,0.2c0.1,0.1,0.2,0.1,0.4,0.1
		c0.2,0,0.4-0.1,0.5-0.2s0.2-0.3,0.2-0.5h0.5c0,0.3-0.2,0.6-0.4,0.8c-0.2,0.2-0.5,0.3-0.8,0.3c-0.2,0-0.4,0-0.6-0.1
		c-0.2-0.1-0.3-0.2-0.4-0.3c-0.1-0.1-0.2-0.3-0.2-0.4s-0.1-0.4-0.1-0.6s0-0.4,0.1-0.6c0.1-0.2,0.1-0.3,0.2-0.5
		c0.1-0.1,0.2-0.2,0.4-0.3s0.4-0.1,0.6-0.1c0.2,0,0.3,0,0.4,0.1c0.1,0,0.3,0.1,0.4,0.2c0.1,0.1,0.2,0.2,0.3,0.3
		c0.1,0.1,0.1,0.3,0.1,0.4h-0.5C422.4,569.5,422.3,569.4,422.2,569.3z"/>
	<path style="fill:#FF6600;" d="M423.4,569.6c0.1-0.2,0.1-0.3,0.3-0.5c0.1-0.1,0.3-0.2,0.4-0.3c0.2-0.1,0.4-0.1,0.6-0.1
		c0.2,0,0.4,0,0.6,0.1s0.3,0.2,0.4,0.3c0.1,0.1,0.2,0.3,0.3,0.5c0.1,0.2,0.1,0.4,0.1,0.6c0,0.2,0,0.4-0.1,0.6
		c-0.1,0.2-0.1,0.3-0.3,0.5c-0.1,0.1-0.3,0.2-0.4,0.3s-0.4,0.1-0.6,0.1c-0.2,0-0.4,0-0.6-0.1c-0.2-0.1-0.3-0.2-0.4-0.3
		c-0.1-0.1-0.2-0.3-0.3-0.5c-0.1-0.2-0.1-0.4-0.1-0.6C423.3,570,423.3,569.8,423.4,569.6z M423.8,570.6c0,0.1,0.1,0.2,0.2,0.3
		c0.1,0.1,0.2,0.2,0.3,0.2s0.2,0.1,0.3,0.1c0.1,0,0.2,0,0.3-0.1c0.1,0,0.2-0.1,0.3-0.2c0.1-0.1,0.1-0.2,0.2-0.3s0.1-0.3,0.1-0.4
		c0-0.2,0-0.3-0.1-0.4s-0.1-0.2-0.2-0.3s-0.2-0.2-0.3-0.2c-0.1,0-0.2-0.1-0.3-0.1c-0.1,0-0.2,0-0.3,0.1s-0.2,0.1-0.3,0.2
		s-0.1,0.2-0.2,0.3s-0.1,0.3-0.1,0.4C423.8,570.4,423.8,570.5,423.8,570.6z"/>
	<path style="fill:#FF6600;" d="M426.9,568.8v0.4h0c0.2-0.3,0.5-0.5,0.9-0.5c0.2,0,0.3,0,0.5,0.1s0.2,0.2,0.3,0.4
		c0.1-0.1,0.2-0.3,0.4-0.3c0.1-0.1,0.3-0.1,0.5-0.1c0.1,0,0.3,0,0.4,0c0.1,0,0.2,0.1,0.3,0.1c0.1,0.1,0.1,0.1,0.2,0.2
		s0.1,0.2,0.1,0.4v2h-0.5v-1.8c0-0.1,0-0.2,0-0.2c0-0.1,0-0.1-0.1-0.2c0-0.1-0.1-0.1-0.2-0.1c-0.1,0-0.2,0-0.3,0
		c-0.2,0-0.4,0.1-0.5,0.2s-0.2,0.3-0.2,0.5v1.7h-0.4v-1.8c0-0.1,0-0.2,0-0.2c0-0.1,0-0.1-0.1-0.2c0-0.1-0.1-0.1-0.2-0.1
		s-0.1,0-0.3,0c-0.1,0-0.2,0-0.3,0.1c-0.1,0.1-0.2,0.1-0.2,0.2c-0.1,0.1-0.1,0.2-0.1,0.2c0,0.1,0,0.1,0,0.2v1.7h-0.4v-2.7H426.9z"/>
</g>
<g>
	<path style="fill:#FF6600;" d="M409.5,284.1c-1,0.3-2.1,0.6-3.3,0.9c-1.1-1.2-2.1-2.3-3.2-3.4c-0.8-0.7-1.4-1.2-1.7-1.4l2.3-1.9
		c0.6,0.5,1.3,0.8,2.1,0.8h4.6v-1.8h2.9v4.8h-5.9c0.2,0.2,0.5,0.5,1,0.9C408.9,283.5,409.2,283.8,409.5,284.1z M419.2,287.3v3.3h-5
		v4.7h-3.1v-4.7h-6.7v5.3h-2.9v-12.6h2.9v4H419.2z M419.5,280.9c-1.3,1.2-2.5,2.2-3.3,3l-2-2.6c0.1-0.1,0.3-0.2,0.5-0.3
		c1.2-1,2.2-1.9,3-2.6L419.5,280.9z"/>
	<path style="fill:#FF6600;" d="M412.5,297.5v7.1c0.8,0.1,1.8,0.1,2.9,0.1v-6.1h3v16h-3v-6.4c-0.4,0-0.9,0-1.5-0.1
		c-0.6,0-1.1,0-1.4,0v7.5h-3v-7.2c-2.7,1-4.5,3.6-5.3,7.6c-1-0.7-2.1-1.3-3.1-1.9c1.2-4,3.1-6.6,5.6-7.6c-2.3-1-4.3-3.5-5.8-7.5
		c1.1-0.7,2.1-1.3,2.8-1.9c1.5,4.3,3.5,6.7,5.9,7.2v-6.8H412.5z"/>
	<path style="fill:#FF6600;" d="M418.3,317.2v18.4h-3.2v-8.1h-3.7l1.7,1.5c-1.5,2.2-3.1,4.3-4.6,6.2l-2.7-2.2c1.7-2,3.2-3.8,4.3-5.4
		H401v-3.6h14.2v-6.7H418.3z"/>
	<path style="fill:#FF6600;" d="M408.8,339.3l-1.2,2.9c-0.7-0.2-1.8-0.6-3.3-1.1c-1.6-0.5-2.8-0.9-3.6-1.2l1.2-2.9
		C404.7,338.1,407,338.8,408.8,339.3z M411.7,354.5h-2.9c-1.6-1.1-2.9-2.2-4-3.3c-0.5,1.2-0.9,2.8-1.2,4.6c-0.4-0.3-1-0.6-2-1.2
		c-0.3-0.2-0.5-0.3-0.7-0.4c0.6-2.4,1.2-4.4,2-5.8c-0.9-1.7-1.6-3.6-2.1-5.7c0.3-0.2,0.6-0.4,1.1-0.6c0.7-0.4,1.2-0.7,1.5-0.9
		c0.4,1.8,0.9,3.2,1.3,4.3c0.9-0.8,1.9-1.7,3-2.6l1.2,1.9v-2.4h2.7V354.5z M409,345.7c-1.1,0.9-2,1.8-2.7,2.7
		c0.7,0.9,1.6,1.8,2.7,2.6V345.7z M414.4,338.9c-0.5,0.6-1.2,1.5-2.2,2.6c-0.3,0.3-0.5,0.5-0.6,0.7l-2.5-2.2c0.8-0.8,1.8-1.8,3-3.2
		L414.4,338.9z M415.2,354.1v1.5c-0.9-0.2-1.8-0.3-2.6-0.5c0-0.2,0-0.5,0-1c-0.1-0.6-0.1-1.1-0.1-1.5c-0.1-1.7,0.7-2.5,2.3-2.5h1.2
		v-3.3c-1.8,0-3.2-1.1-4.3-3.2c0.7-0.7,1.4-1.4,2.1-2.1c0.8,1.8,1.9,2.6,3.3,2.4h1.6v9.1H416C415.4,353.1,415.2,353.4,415.2,354.1z
		 M419.3,339.5c-0.9,1.2-1.8,2.3-2.7,3.3l-2.4-2.2c1-0.9,1.9-2,2.9-3.1L419.3,339.5z"/>
	<path style="fill:#FF6600;" d="M400.9,362.9v-3.2h7.2c-0.4-0.3-0.8-0.8-1.4-1.5c-0.2-0.3-0.4-0.4-0.5-0.5c0.7-0.2,1.8-0.6,3.3-1.1
		c1.8,2,3.5,3.5,5.3,4.4v-4.1h2.8v5.4c0.3,0.1,0.6,0.2,1.2,0.4c0.3,0.1,0.5,0.2,0.7,0.2l-0.2,3.6c-0.5-0.2-1.1-0.4-1.6-0.6v9.5h-2.8
		v-10.8c-0.2-0.1-0.5-0.3-0.8-0.5l-0.2-0.1v9.7h-10.2c-1.9,0.2-2.8-0.8-2.8-2.9c-0.1-0.9-0.1-2.1-0.1-3.5c1-0.2,1.9-0.4,2.6-0.7
		c0,0.9,0,1.8,0,2.6c-0.1,0.9,0.3,1.4,1.1,1.4v-7.7H400.9z M407.8,362.9h-0.9v7.7h0.9V362.9z M411.3,362.9h-1v7.7h1V362.9z"/>
	<path style="fill:#FF6600;" d="M419,391.9c-0.3,0.1-0.7,0.2-1.4,0.4c-0.6,0.2-1.1,0.3-1.4,0.4v2.3h-2.5v-2.9h-1.5v2.6h-2.5v-2.6
		h-1.5v2.6h-2.5v-2.6h-1.5v3h-2.3v-8h-1.1v-2.9h3.1l-1.3-2.1c0.3-0.3,0.8-0.6,1.5-1c0.6-0.3,1-0.5,1.2-0.7c-1.3-0.7-2.7-1.7-4.1-2.9
		c0.5-0.2,1.1-0.5,1.9-0.8c0.6-0.2,1-0.4,1.2-0.5c1.2,1.1,2.5,1.9,3.9,2.6c0.4-0.3,1-0.6,1.9-1.1c1.1-0.7,2-1.2,2.6-1.5l1.4,2.2
		c-0.9,0.6-1.8,1.1-2.6,1.6c1.1,0.3,2.3,0.5,3.6,0.5v-3.8h2.8v6.7c-1.7-0.1-3.3-0.2-4.6-0.5c1.8,1.1,3.9,2,6.3,2.6l-0.5,3.1
		c-1-0.3-1.9-0.6-2.8-0.9v1.9c0.8-0.2,1.6-0.4,2.5-0.7L419,391.9z M405.8,387.2h-1.5v2.2h1.5V387.2z M409.1,383.5
		c1-0.2,1.9-0.4,2.6-0.7c-1.1-0.2-2.2-0.4-3.3-0.9c-0.6,0.3-1.3,0.8-2.3,1.4c-0.8,0.5-1.3,0.8-1.7,1h5.8
		C409.9,384.1,409.5,383.8,409.1,383.5z M409.8,387.2h-1.5v2.2h1.5V387.2z M413.7,387.2h-1.5v2.2h1.5V387.2z"/>
	<path style="fill:#FF6600;" d="M419.3,409.2l-0.5,2.9c-0.9-0.2-1.9-0.5-2.8-0.9v4h-2.7v-0.7c-3.2-0.2-5.7-0.8-7.5-1.7
		c-0.7,0.7-1.5,1.5-2.2,2.4c-1-0.5-1.9-1-2.7-1.4c0.8-1.1,1.6-2,2.4-2.6c-0.9-0.9-1.8-1.9-2.6-3c0.8-0.5,1.5-0.9,2.2-1.4v-2.9h-0.9
		v-2.6h9.1v1.7h2.3v-1.9h2.7v1.9h3.2v2.9h-3.2v1.6h-2.5C415.2,408.2,417.1,408.8,419.3,409.2z M401,400.4v-2.6h8
		c-0.6-0.3-1.1-0.6-1.5-0.9c1.4-0.2,2.8-0.4,4.1-0.6c1.9,0.9,4.5,1.7,7.8,2.6l-0.5,2.9c-1.3-0.4-2.6-0.8-3.9-1.2H401z M405.9,409.5
		c1.2-0.5,2.7-0.9,4.3-1.2c-0.1-0.1-0.2-0.1-0.3-0.2c-0.2-0.2-0.3-0.3-0.4-0.3c0.2-0.1,0.4-0.1,0.7-0.2c0.3-0.1,0.4-0.2,0.5-0.2
		h-6.9C404.5,408.2,405.2,408.9,405.9,409.5z M408.5,403.8h-3.3v1.1h3.3V403.8z M413.3,410.3c-1.9,0.1-3.4,0.3-4.6,0.8
		c1.2,0.4,2.8,0.6,4.6,0.8V410.3z M412.4,406.9c0.3,0.2,0.6,0.3,0.9,0.4v-1.5H411v1.5C411.5,407.1,412,407,412.4,406.9z"/>
	<path style="fill:#FF6600;" d="M405,434.3c-2.5,0-3.7-1.1-3.8-3.4c-0.1-0.9-0.1-2.1-0.1-3.6c0.2-0.1,0.5-0.1,0.9-0.2
		c0.6-0.1,1.3-0.3,2.1-0.5c-0.1,0.6-0.1,1.5-0.1,2.8c-0.1,1.1,0.4,1.7,1.6,1.7c0.5,0,1.6,0,3.3,0c2.2,0.1,3.7,0.1,4.6,0.1v-2.7
		c-0.8-0.3-1.6-0.7-2.4-1.1c0.4-0.8,0.9-1.6,1.3-2.4h-11.2v-3h1.1v-2.2h-1.2v-3h15.3v2.2c1,0.3,2,0.4,2.9,0.5l-0.4,3.4
		c-0.2-0.1-0.4-0.1-0.6-0.2c-0.6-0.1-1.2-0.3-1.9-0.5v2.8h-3.3c2.2,1,4.3,1.8,6.2,2.3l-0.7,3.1c-0.3-0.1-0.6-0.2-1.1-0.3
		c-0.5-0.2-0.9-0.3-1.2-0.4v4.7C410.8,434.5,406.9,434.4,405,434.3z M407.8,419.8h-2.7v2.2h2.7V419.8z M411.4,428.2
		c-0.6,0.5-1.4,1.1-2.6,2c-0.5,0.4-0.9,0.6-1.2,0.9l-1.7-2.6c1.7-1.1,3-2,4-2.7L411.4,428.2z M413.5,419.8h-2.7v2.2h2.7V419.8z"/>
	<path style="fill:#FF6600;" d="M400.9,446v-3h9.5c-0.3-0.2-0.6-0.5-1-0.8c0.2,0,0.5,0,0.8-0.1c0.4-0.1,0.6-0.1,0.8-0.2
		c-1.1,0-2,0-2.7,0c-0.2-0.4-0.3-0.8-0.3-1.2h-4.5c-1.5,0.1-2.3-0.6-2.3-2c-0.1-0.7-0.2-1.4-0.2-2.2c0.1,0,0.2,0,0.4-0.1
		c0.7-0.1,1.5-0.3,2.4-0.5v1.2c0,0.5,0.3,0.7,0.8,0.6h2.6c-0.2-0.5-0.3-1.1-0.5-1.7l3.3-0.2c0,0.1,0,0.2,0.1,0.4
		c0.1,0.4,0.2,0.9,0.3,1.5h3.3v-1.6h2.8v1.6h3.1v2.9h-3.1v1.3h-2.3c1.3,0.9,3.2,1.6,5.6,2.2l-0.4,3.3c-0.3-0.1-0.8-0.3-1.4-0.5
		c-0.7-0.3-1.2-0.4-1.5-0.5v2.3c0.8-0.3,1.7-0.5,2.6-0.9l0.3,3.1c-0.2,0.1-0.4,0.1-0.7,0.2c-0.5,0.2-1.2,0.4-2.2,0.6v2.6h-2.5v-3.1
		h-1.5v2.9h-2.5v-2.9h-1.5v2.9h-2.5v-2.9h-1.6v3.3h-2.3V446H400.9z M405.8,446h-1.6v2.5h1.6V446z M409.7,446h-1.5v2.5h1.5V446z
		 M410.9,440.8c0.1,0.3,0.2,0.7,0.2,1.1c0.6-0.1,1.2-0.2,1.8-0.4c0.2,0.2,0.3,0.3,0.5,0.3v-1H410.9z M413.7,446h-1.5v2.5h1.5V446z"
		/>
	<path style="fill:#FF6600;" d="M410.6,461c-2.5,0-4.4-0.2-5.7-0.5c-1.2-0.3-2.6-0.9-4.1-1.8c0.7-0.9,1.4-1.9,2.2-2.9
		c1.1,0.8,2.1,1.3,3.1,1.5c0.9,0.2,2.5,0.3,4.6,0.3h6.7v6.7c0.4-0.1,1-0.3,1.8-0.5c0.2-0.1,0.3-0.1,0.3-0.1l0.2,4.2
		c-0.2,0.1-0.6,0.2-1.1,0.3c-0.6,0.1-1,0.2-1.2,0.2v6h-3.1V461H410.6z"/>
</g>
<g>
	<defs>
		<rect id="SVGID_5_" x="512.4" y="378.6" width="220.2" height="218.9"/>
	</defs>
	<clipPath id="SVGID_6_">
		<use xlink:href="#SVGID_5_"  style="overflow:visible;"/>
	</clipPath>
</g>
<g>
	<g id="形状_2_copy_3_副本_4_7_">
		<g>
			<path style="fill-rule:evenodd;clip-rule:evenodd;fill:#CCCCCC;" d="M206.1,338.9c-1.3,2.5-2.5,4.8-3.8,7.5h1.8
				c0.3-0.6,0.5-1,0.9-1.8c1,0,1.7,0,2.6,0c-0.2-0.6-0.3-1-0.5-1.4h-1.4c0.4-0.8,0.7-1.3,1.3-2.5c0.7,2,1.4,3.9,2,5.7h1.7
				c-0.9-2.6-1.7-4.9-2.6-7.5H206.1z M211.2,346.4h1.6l0.3-7.5l-1.6,0L211.2,346.4z M213.6,346.4h1.7l0.2-5.6h-1.6L213.6,346.4z
				 M214,338.9l0,1.2c0,0,1.2,0,1.6,0l0.1-1.2C214.2,338.9,214.1,338.9,214,338.9z M224.2,340.8c-0.3-0.1-0.6-0.2-0.9-0.2
				c-0.2,0-0.4,0-0.5,0.1c-0.2,0-0.3,0.1-0.5,0.1c-0.1,0.1-0.3,0.1-0.4,0.2c-0.1,0.1-0.2,0.2-0.3,0.3c-0.1,0.1-0.1,0.2-0.2,0.3
				c-0.1-0.2-0.1-0.3-0.2-0.4c-0.1-0.1-0.1-0.2-0.2-0.2c-0.1-0.1-0.2-0.1-0.3-0.2c-0.1-0.1-0.3-0.1-0.4-0.1c-0.2,0-0.3,0-0.5,0
				c-0.2,0-0.4,0-0.6,0.1c-0.2,0.1-0.4,0.1-0.5,0.2c-0.2,0.1-0.3,0.2-0.4,0.3c-0.1,0.1-0.2,0.2-0.3,0.4l0-0.9h-1.5l-0.2,5.6
				c0,0,1.2,0,1.6,0c0-0.5,0-1.1,0.1-1.9c0-0.8,0.1-1.4,0.2-1.6c0.1-0.3,0.2-0.5,0.4-0.7c0.2-0.2,0.4-0.3,0.7-0.3
				c0.1,0,0.3,0,0.4,0.1c0.1,0,0.2,0.1,0.3,0.2c0.1,0.1,0.1,0.2,0.2,0.3c0,0.1,0,0.2,0,0.4c0,0.3,0,0.9-0.1,1.8
				c0,0.9-0.1,1.4-0.1,1.7c0.3,0,1.3,0,1.6,0l0-1.5c0-0.5,0-1,0.1-1.3c0-0.3,0.1-0.6,0.1-0.8c0.1-0.2,0.2-0.3,0.3-0.5
				c0.1-0.1,0.2-0.2,0.4-0.3c0.1-0.1,0.3-0.1,0.4-0.1c0.2,0,0.3,0,0.4,0.1c0.1,0.1,0.2,0.2,0.3,0.3c0.1,0.1,0.1,0.3,0.1,0.6
				c0,0.2,0,0.5,0,0.8l-0.1,1.3c0,0.5-0.1,1-0.1,1.5c0.3,0,1.3,0,1.6,0c0-0.4,0-1,0.1-1.8c0-0.8,0.1-1.3,0.1-1.7c0-0.3,0-0.6,0-0.8
				c0-0.3-0.1-0.6-0.2-0.8C224.7,341.1,224.5,340.9,224.2,340.8z M230.1,340.8c-0.3-0.1-0.7-0.1-1.1-0.1c-0.4,0-0.7,0-1.1,0.1
				c-0.4,0-1.3,0.2-1.3,0.2l-0.2,1c0,0,1.5-0.5,2.2-0.5c0.2,0,0.3,0,0.5,0.1c0.1,0,0.3,0.1,0.4,0.2c0.1,0.1,0.1,0.2,0.1,0.4
				c0,0.1,0,0.1,0,0.2c0,0.1-0.1,0.1-0.1,0.2c-0.1,0.1-0.1,0.1-0.2,0.2c-0.1,0-0.2,0.1-0.4,0.1c-0.2,0-0.3,0.1-0.4,0.1
				c-0.5,0.1-0.9,0.2-1.3,0.3c-0.3,0.1-0.6,0.2-0.7,0.3c-0.2,0.1-0.3,0.2-0.4,0.4c-0.1,0.1-0.2,0.3-0.2,0.4
				c-0.1,0.2-0.1,0.3-0.1,0.5c0,0.3,0.1,0.5,0.2,0.8c0.1,0.3,0.4,0.5,0.7,0.6c0.3,0.1,0.7,0.2,1.1,0.2c0.1,0,0.3,0,0.4,0
				c0.2,0,0.4,0,0.6-0.1c0.1-0.4,0.2-0.7,0.3-0.9c-0.2,0.1-0.4,0.1-0.5,0.1c-0.1,0-0.3,0-0.4,0c-0.2,0-0.3,0-0.5-0.1
				c-0.1,0-0.2-0.1-0.3-0.2c-0.1-0.1-0.1-0.2-0.1-0.4c0-0.1,0-0.2,0.1-0.3c0-0.1,0.1-0.2,0.2-0.2c0.1-0.1,0.2-0.1,0.3-0.2
				c0.1-0.1,0.2-0.1,0.4-0.2c0.1,0,0.3-0.1,0.6-0.2c0.2-0.1,0.4-0.1,0.5-0.1c0.1,0,0.2-0.1,0.2-0.1c0.1,0,0.2-0.1,0.3-0.2l-0.2,2.9
				h1.6c0,0,0-1.8,0.1-2.6c0.1-0.9,0.1-1.4,0.1-1.6c0-0.4-0.1-0.7-0.3-0.9C230.7,341,230.4,340.9,230.1,340.8z M239.9,340.8
				c-0.3-0.1-0.6-0.2-0.9-0.2c-0.2,0-0.4,0-0.5,0.1c-0.2,0-0.3,0.1-0.5,0.1c-0.1,0.1-0.3,0.1-0.4,0.2c-0.1,0.1-0.2,0.2-0.3,0.3
				c-0.1,0.1-0.1,0.2-0.2,0.3c-0.1-0.2-0.1-0.3-0.2-0.4c-0.1-0.1-0.1-0.2-0.2-0.2c-0.1-0.1-0.2-0.1-0.3-0.2
				c-0.1-0.1-0.3-0.1-0.4-0.1c-0.2,0-0.3,0-0.5,0c-0.2,0-0.4,0-0.6,0.1c-0.2,0.1-0.4,0.1-0.5,0.2c-0.2,0.1-0.3,0.2-0.4,0.3
				c-0.1,0.1-0.2,0.2-0.3,0.4l0-0.9h-1.5l-0.2,5.6h1.6c0,0,0-1.1,0.1-1.9c0-0.8,0.1-1.4,0.2-1.6c0.1-0.3,0.2-0.5,0.4-0.7
				c0.2-0.2,0.4-0.3,0.7-0.3c0.1,0,0.3,0,0.4,0.1c0.1,0,0.2,0.1,0.3,0.2c0.1,0.1,0.1,0.2,0.2,0.3c0,0.1,0,0.2,0,0.4
				c0,0.3,0,0.9-0.1,1.8c0,0.9-0.1,1.4-0.1,1.7c0.3,0,1.3,0,1.6,0l0-1.5c0-0.5,0-1,0.1-1.3c0-0.3,0.1-0.6,0.1-0.8
				c0.1-0.2,0.2-0.3,0.3-0.5c0.1-0.1,0.2-0.2,0.4-0.3c0.1-0.1,0.3-0.1,0.4-0.1c0.2,0,0.3,0,0.4,0.1c0.1,0.1,0.2,0.2,0.3,0.3
				c0.1,0.1,0.1,0.3,0.1,0.6c0,0.2,0,0.5,0,0.8l-0.1,1.3c0,0.5-0.1,1-0.1,1.5c0.3,0,1.3,0,1.6,0c0-0.4,0-1,0.1-1.8
				c0-0.8,0.1-1.3,0.1-1.7c0-0.3,0-0.6,0-0.8c0-0.3-0.1-0.6-0.2-0.8C240.4,341.1,240.2,340.9,239.9,340.8z M245.8,340.8
				c-0.3-0.1-0.7-0.1-1.1-0.1c-0.4,0-0.7,0-1.1,0.1c-0.4,0-1.3,0.2-1.3,0.2l-0.2,1c0,0,1.5-0.5,2.2-0.5c0.2,0,0.3,0,0.5,0.1
				c0.1,0,0.3,0.1,0.4,0.2c0.1,0.1,0.1,0.2,0.1,0.4c0,0.1,0,0.1,0,0.2c0,0.1-0.1,0.1-0.1,0.2c-0.1,0.1-0.1,0.1-0.2,0.2
				c-0.1,0-0.2,0.1-0.4,0.1c-0.1,0-0.3,0.1-0.4,0.1c-0.5,0.1-0.9,0.2-1.3,0.3c-0.3,0.1-0.6,0.2-0.7,0.3c-0.2,0.1-0.3,0.2-0.4,0.4
				c-0.1,0.1-0.2,0.3-0.2,0.4c-0.1,0.2-0.1,0.3-0.1,0.5c0,0.3,0.1,0.5,0.2,0.8c0.1,0.3,0.4,0.5,0.7,0.6c0.3,0.1,0.7,0.2,1.1,0.2
				c0.1,0,0.3,0,0.4,0c0.2,0,0.4,0,0.6-0.1c0.1-0.4,0.2-0.7,0.3-0.9c-0.2,0.1-0.4,0.1-0.5,0.1c-0.1,0-0.3,0-0.4,0
				c-0.2,0-0.3,0-0.5-0.1c-0.1,0-0.2-0.1-0.3-0.2c-0.1-0.1-0.1-0.2-0.1-0.4c0-0.1,0-0.2,0.1-0.3c0-0.1,0.1-0.2,0.2-0.2
				c0.1-0.1,0.2-0.1,0.3-0.2c0.1-0.1,0.2-0.1,0.4-0.2c0.1,0,0.3-0.1,0.6-0.2c0.2-0.1,0.4-0.1,0.5-0.1c0.1,0,0.2-0.1,0.2-0.1
				c0.1,0,0.2-0.1,0.3-0.2l-0.2,2.9h1.6c0,0,0-1.8,0.1-2.6c0.1-0.9,0.1-1.4,0.1-1.6c0-0.4-0.1-0.7-0.3-0.9
				C246.4,341,246.1,340.9,245.8,340.8z M247.6,344.9c0,0.7,0,1.2-0.1,1.5c0.5,0,1.5,0,1.5,0s0.1-1.2,0.1-1.5
				C248.7,344.9,247.6,344.9,247.6,344.9z M251.6,342.3c0.2-0.2,0.3-0.3,0.6-0.4c0.2-0.1,0.5-0.1,0.7-0.1c0.4,0,0.9,0.1,1.4,0.3
				l-0.1-1.2c-0.3-0.1-0.6-0.1-0.9-0.2c-0.3,0-0.5,0-0.7,0c-0.4,0-0.8,0-1.2,0.1c-0.4,0.1-0.7,0.3-1,0.5c-0.3,0.3-0.5,0.6-0.6,1
				c-0.1,0.4-0.2,0.9-0.2,1.3c0,0.3,0,0.7,0.1,1c0.1,0.3,0.2,0.6,0.4,0.8c0.2,0.2,0.4,0.4,0.6,0.6c0.2,0.1,0.5,0.2,0.8,0.3
				c0.3,0.1,0.6,0.1,0.9,0.1c0.5,0,1-0.1,1.5-0.2c0-0.3,0.1-0.5,0.1-0.7c0-0.2,0.1-0.4,0.1-0.5c-0.3,0.1-0.5,0.2-0.7,0.2
				c-0.2,0-0.4,0.1-0.6,0.1c-0.3,0-0.6-0.1-0.9-0.2c-0.3-0.1-0.4-0.3-0.6-0.6c-0.1-0.3-0.2-0.6-0.2-0.9c0-0.2,0-0.5,0.1-0.7
				C251.4,342.7,251.5,342.5,251.6,342.3z M260,341.4c-0.3-0.2-0.6-0.4-1-0.6c-0.4-0.1-0.8-0.2-1.2-0.2c-0.5,0-0.9,0.1-1.3,0.2
				c-0.4,0.2-0.8,0.4-1,0.7c-0.3,0.3-0.5,0.6-0.6,1c-0.1,0.4-0.2,0.7-0.2,1.2c0,0.4,0.1,0.8,0.2,1.1c0.1,0.4,0.3,0.7,0.6,0.9
				c0.3,0.3,0.6,0.4,1,0.6c0.4,0.1,0.8,0.2,1.2,0.2c0.5,0,0.9-0.1,1.3-0.2c0.4-0.1,0.7-0.4,1-0.6c0.3-0.3,0.5-0.6,0.6-1
				c0.1-0.4,0.2-0.8,0.2-1.2c0-0.4-0.1-0.8-0.2-1.1C260.5,342,260.3,341.6,260,341.4z M259.1,344.5c-0.1,0.3-0.3,0.5-0.5,0.7
				c-0.2,0.2-0.5,0.2-0.8,0.2c-0.3,0-0.6-0.1-0.8-0.2c-0.2-0.2-0.4-0.4-0.5-0.6c-0.1-0.2-0.2-0.5-0.2-0.8c0-0.4,0.1-0.7,0.2-1
				c0.1-0.3,0.3-0.5,0.6-0.7c0.2-0.2,0.5-0.2,0.9-0.2c0.3,0,0.6,0.1,0.8,0.2c0.2,0.1,0.4,0.3,0.5,0.6c0.1,0.2,0.1,0.5,0.1,0.8
				C259.3,343.8,259.2,344.1,259.1,344.5z M269.8,341.3c-0.2-0.2-0.4-0.4-0.7-0.5c-0.3-0.1-0.6-0.2-0.9-0.2c-0.2,0-0.4,0-0.5,0.1
				c-0.2,0-0.3,0.1-0.5,0.1c-0.1,0.1-0.3,0.1-0.4,0.2c-0.1,0.1-0.2,0.2-0.3,0.3c-0.1,0.1-0.1,0.2-0.2,0.3c-0.1-0.2-0.1-0.3-0.2-0.4
				c-0.1-0.1-0.1-0.2-0.2-0.2c-0.1-0.1-0.2-0.1-0.3-0.2c-0.1-0.1-0.3-0.1-0.4-0.1c-0.2,0-0.3,0-0.5,0c-0.2,0-0.4,0-0.6,0.1
				c-0.2,0.1-0.4,0.1-0.5,0.2c-0.2,0.1-0.3,0.2-0.4,0.3c-0.1,0.1-0.2,0.2-0.3,0.4l0-0.9c-0.3,0-1.2,0-1.5,0c0,0.6-0.2,5-0.2,5.6
				c0.3,0,1.2,0,1.6,0c0-0.5,0-1.1,0.1-1.9c0-0.8,0.1-1.4,0.2-1.6c0.1-0.3,0.2-0.5,0.4-0.7c0.2-0.2,0.4-0.3,0.7-0.3
				c0.1,0,0.3,0,0.4,0.1c0.1,0,0.2,0.1,0.3,0.2c0.1,0.1,0.1,0.2,0.2,0.3c0,0.1,0,0.2,0,0.4c0,0.3,0,0.9-0.1,1.8
				c0,0.9-0.1,1.4-0.1,1.7c0.3,0,1.3,0,1.6,0l0-1.5c0-0.5,0-1,0.1-1.3c0-0.3,0.1-0.6,0.1-0.8c0.1-0.2,0.2-0.3,0.3-0.5
				c0.1-0.1,0.2-0.2,0.4-0.3c0.1-0.1,0.3-0.1,0.4-0.1c0.2,0,0.3,0,0.4,0.1c0.1,0.1,0.2,0.2,0.3,0.3c0.1,0.1,0.1,0.3,0.1,0.6
				c0,0.2,0,0.5,0,0.8l-0.1,1.3c0,0.5-0.1,1-0.1,1.5c0.3,0,1.3,0,1.6,0c0-0.4,0-1,0.1-1.8c0-0.8,0.1-1.3,0.1-1.7c0-0.3,0-0.6,0-0.8
				C270.1,341.8,270,341.5,269.8,341.3z"/>
		</g>
	</g>
	<g id="形状_2_copy_3_副本_5_7_">
		<g>
			<path style="fill-rule:evenodd;clip-rule:evenodd;fill:#FF6600;" d="M209,323.3c2.3,0,4.7,0,7,0c0,3.5,0,7.1,0,10.3
				c0,0.2-0.3,0.5-0.5,0.5c-0.4,0-0.5,0-1,0v1.7c0.5,0,1,0,1.5,0c1.3,0,2.2-0.7,2.2-1.8c0-2.7,0-8,0-10.7h0.8v-1.6h-10V323.3z
				 M244.6,330.7c-0.6,0-1.6,0.6-1.6,1.6c2,0,5.2,0,7.4,0c0,0.4,0,0.8,0,1.3c0.7,0,0.5,0,1.2,0c0.4,0,1-0.4,1-1c0-1.8,0-3.2,0-4.9
				c-0.3,0-0.7,0-1,0c0-1.4,0-4.1,0-5.1c0-0.4-0.4-0.9-0.9-0.9h-7.3v1.6h5.6c0,1.5,0,2.9,0,4.4c-1.3,0-1.5,0-2.7,0
				c-0.1,0-0.3-0.2-0.3-0.3c0-0.7,0-1.9,0-2.9c0-0.2-0.2-0.5-0.6-0.5h-1.7v3.9c0,0.8,0.7,1.4,1.4,1.4c0,0,2.9,0,5.2,0v1.4H244.6z
				 M214.9,331.2c0-1.8,0-4.4,0-7h-5.8v8.8c1.7,0,3.9,0,3.9,0C214.4,333.1,214.9,332.3,214.9,331.2z M212.4,331.5
				c-0.4,0-0.9,0-1.5,0v-5.5c0.6,0,1.3,0,2,0c0,1.7,0,3.5,0,5C212.9,331.2,212.7,331.5,212.4,331.5z M202.4,322.1
				c0,3.2,0,7.3,0,13.7h2.1c0-4,0-8.4,0-12.5c0.5,0,1.1,0,1.6,0c0,2.4,0,4.5,0,6.8c0,0.9-0.8,1.2-0.8,1.3v1.8c1.5,0,2.9-1.6,2.9-3
				c0-2.6,0-5.9,0-8.4c-1.9,0-3.4,0-5.4,0C202.4,321.7,202.4,322.1,202.4,322.1z M269.4,327.7c0-1.4,0-4.1,0-5.1
				c0-0.4-0.4-0.9-0.9-0.9h-7.3v1.6c1.9,0,3.8,0,5.6,0v4.4c-1.3,0-1.6,0-2.7,0c-0.1,0-0.3-0.2-0.3-0.3c0-0.7,0-1.9,0-2.9
				c0-0.2-0.2-0.5-0.6-0.5c-0.5,0-1.1,0-1.7,0v3.9c0,0.8,0.7,1.4,1.4,1.4c0,0,2.9,0,5.2,0v1.4h-5.7c-0.6,0-1.7,0.6-1.7,1.6
				c2,0,5.2,0,7.4,0v1.5c0,0.3-0.2,0.4-0.5,0.4h-0.8c0,0.7,0,1.1,0,1.6h1.3c0.4,0,0.3,0,0.7,0c1.1,0,1.6-0.8,1.6-1.4
				c0-2,0-4.7,0-6.7C270,327.7,269.7,327.7,269.4,327.7z M259,333.1c0.8-0.9,1.2-1.9,1.3-3.8c0-2.1,0-4.1,0-6.2
				c0-0.2-0.2-0.4-0.4-0.4c-0.8,0-1.9,0-2.8,0v-1H255c0,0.3,0,0.6,0,1c-0.2,0-0.5,0-0.7,0v1.6h0.7v5c0,1.9,0.6,2.9,1.4,3.8
				c-1,0.6-1.9,1.1-3.2,1.1c-0.2,0-0.4,0-0.6,0c-2,0-4.5,0-6.6,0c-2,0-4-0.4-4.7-1.3c0.7-0.9,1.1-1.7,1.3-3.6c0-1.9,0-3.6,0-6.1
				c0-0.3-0.3-0.5-0.5-0.5c-0.8,0-1.7,0-2.7,0v-1c-0.9,0-1.2,0-2.1,0v1c-0.2,0-0.4,0-0.7,0v1.6c0.3,0,0.5,0,0.7,0c0,1.7,0,3.5,0,5
				c0.2,1.9,0.8,2.6,1.5,3.7c-1.1,0.8-2.4,1.1-4,1.2c-1.8,0-3.5,0-5.8,0c0-0.4,0-1,0-1.3h5.8v-1.7H229c0-0.4,0-0.8,0-1.3
				c1.7,0,3.9,0,4.4,0c0,0,1.4,0,1.4-1.6c0-1.6,0-4.6,0-6.7c-4.6,0-9.3,0-13.9,0c-0.2,0-0.4,0.2-0.4,0.4c0,0.3,0,5.5,0,7.9
				c1.9,0,3.9,0,5.8,0v1.3h-5.8c0,0.5,0,1.1,0,1.7h5.8c0,0.4,0,0.8,0,1.3h-6.8c0,0.5,0,1.1,0,1.6c5.1,0,11.4,0,16.4,0
				c1.3,0,3-0.7,4.2-1.4c1.5,1.2,3.2,1.4,5.9,1.4c0.8,0,1.8,0,2.8,0c1.4,0,2.7,0,3.8,0c2.3,0,3.8-0.5,5.2-1.3
				c1.3,0.8,2.6,1.3,4.6,1.3v0h3.1v-1.6h-3.1C261,334,259.9,333.8,259,333.1z M226.3,328.4h-3.6v-1.7h3.6V328.4z M226.3,325h-3.6
				v-1.7c1.2,0,2.4,0,3.6,0V325z M229,323.3h3.6v1.7H229V323.3z M229,326.7c1.2,0,2.4,0,3.6,0c0,0.7,0,1.2,0,1.7H229
				C229,327.9,229,327.2,229,326.7z M240.6,329.3c-0.1,1.1-0.3,1.4-0.5,2.1c-0.3-0.7-0.6-1-0.7-2.1c0-1.5,0-3.5,0-5h1.2V329.3z
				 M258.3,329.3c0,1-0.3,1.5-0.6,2.1c-0.3-0.6-0.6-1.1-0.6-2.1c0-1.6,0-3.4,0-5h1.2C258.3,325.9,258.3,327.7,258.3,329.3z"/>
		</g>
	</g>
</g>
<rect x="5.5" y="154.4" style="fill:none;stroke:#999999;stroke-miterlimit:10;" width="299.9" height="438.4"/>
<path style="fill:#AA2D24;" d="M129,225.4c1.2-1.4,4.3-3.7,7.1,3.6c3.7,9.5,18,39.6,6.4,63.6c-11.6,24.1-32.8,64.8-40.5,21.4
	C93.4,265.3,128.7,225.8,129,225.4z"/>
<path style="fill:#E5432E;" d="M58.1,202.5c-1.8-1.6-7.2-5.5-9.5,6.4c-2.7,14.3-15.1,59.9,7.4,90.9c22.5,31,62.3,83,62.3,20.3
	C118.3,248.3,58.5,202.8,58.1,202.5z"/>
<path style="fill:#E5432E;" d="M305.4,225.4c0,0-62,16.8-118.4,44.4c-73.7,36-137.9,89.3-42.3,136c0,0-115.4-82,160.8-120.4
	L305.4,225.4z"/>
<g>
	<g>
		<g id="形状_2_copy_3_副本_4_39_">
			<g>
				<path style="fill-rule:evenodd;clip-rule:evenodd;fill:#FFFFFF;" d="M725.8,341.7c-1.2,2.4-2.3,4.6-3.6,7.1h1.7
					c0.3-0.6,0.5-1,0.9-1.7c0.9,0,1.6,0,2.5,0c-0.2-0.5-0.3-0.9-0.5-1.4h-1.4c0.4-0.8,0.6-1.3,1.2-2.4c0.6,1.9,1.3,3.7,1.9,5.4h1.6
					c-0.9-2.5-1.7-4.6-2.5-7.1H725.8z M730.7,348.8h1.5l0.3-7.1l-1.5,0L730.7,348.8z M733,348.8h1.6l0.2-5.3h-1.5L733,348.8z
					 M733.4,341.7l0,1.1c0,0,1.2,0,1.5,0l0.1-1.1C733.5,341.7,733.5,341.7,733.4,341.7z M743.1,343.5c-0.3-0.1-0.6-0.1-0.9-0.1
					c-0.2,0-0.3,0-0.5,0c-0.2,0-0.3,0.1-0.4,0.1c-0.1,0.1-0.3,0.1-0.4,0.2c-0.1,0.1-0.2,0.2-0.3,0.3c-0.1,0.1-0.1,0.2-0.2,0.3
					c-0.1-0.2-0.1-0.3-0.2-0.4c-0.1-0.1-0.1-0.2-0.2-0.2c-0.1-0.1-0.2-0.1-0.3-0.2c-0.1-0.1-0.3-0.1-0.4-0.1c-0.1,0-0.3,0-0.5,0
					c-0.2,0-0.4,0-0.6,0.1c-0.2,0.1-0.4,0.1-0.5,0.2c-0.1,0.1-0.3,0.2-0.4,0.3c-0.1,0.1-0.2,0.2-0.3,0.4l0-0.8h-1.4l-0.2,5.3
					c0,0,1.2,0,1.5,0c0-0.5,0-1.1,0.1-1.8c0-0.8,0.1-1.3,0.2-1.6c0.1-0.3,0.2-0.5,0.4-0.6c0.2-0.2,0.4-0.2,0.6-0.2
					c0.1,0,0.2,0,0.4,0.1c0.1,0,0.2,0.1,0.3,0.2c0.1,0.1,0.1,0.2,0.1,0.3c0,0.1,0,0.2,0,0.4c0,0.3,0,0.8-0.1,1.7
					c0,0.8-0.1,1.4-0.1,1.6c0.3,0,1.2,0,1.5,0l0-1.5c0-0.5,0-0.9,0.1-1.3c0-0.3,0.1-0.6,0.1-0.7c0.1-0.2,0.1-0.3,0.3-0.5
					c0.1-0.1,0.2-0.2,0.4-0.3c0.1-0.1,0.3-0.1,0.4-0.1c0.2,0,0.3,0,0.4,0.1c0.1,0.1,0.2,0.1,0.3,0.3c0.1,0.1,0.1,0.3,0.1,0.6
					c0,0.2,0,0.5,0,0.8l-0.1,1.2c0,0.5-0.1,1-0.1,1.4c0.3,0,1.2,0,1.5,0c0-0.4,0-1,0.1-1.7c0-0.7,0.1-1.3,0.1-1.6c0-0.3,0-0.6,0-0.7
					c0-0.3-0.1-0.6-0.2-0.8C743.5,343.8,743.3,343.6,743.1,343.5z M748.7,343.5c-0.3-0.1-0.7-0.1-1.1-0.1c-0.3,0-0.7,0-1.1,0.1
					c-0.4,0-1.3,0.2-1.3,0.2l-0.2,1c0,0,1.5-0.5,2.1-0.5c0.2,0,0.3,0,0.5,0.1c0.1,0,0.3,0.1,0.3,0.2c0.1,0.1,0.1,0.2,0.1,0.3
					c0,0.1,0,0.1,0,0.2c0,0.1-0.1,0.1-0.1,0.2c-0.1,0.1-0.1,0.1-0.2,0.1c-0.1,0-0.2,0.1-0.3,0.1c-0.1,0-0.3,0.1-0.4,0.1
					c-0.5,0.1-0.9,0.2-1.2,0.3c-0.3,0.1-0.5,0.2-0.7,0.3c-0.2,0.1-0.3,0.2-0.4,0.4c-0.1,0.1-0.2,0.3-0.2,0.4
					c-0.1,0.1-0.1,0.3-0.1,0.4c0,0.3,0.1,0.5,0.2,0.8c0.1,0.3,0.3,0.4,0.6,0.6c0.3,0.1,0.6,0.2,1.1,0.2c0.1,0,0.3,0,0.4,0
					c0.1,0,0.3,0,0.6-0.1c0.1-0.4,0.2-0.7,0.3-0.9c-0.2,0.1-0.4,0.1-0.5,0.1c-0.1,0-0.2,0-0.4,0c-0.2,0-0.3,0-0.5-0.1
					c-0.1,0-0.2-0.1-0.3-0.2c-0.1-0.1-0.1-0.2-0.1-0.4c0-0.1,0-0.2,0-0.3c0-0.1,0.1-0.2,0.2-0.2c0.1-0.1,0.2-0.1,0.3-0.2
					c0.1-0.1,0.2-0.1,0.4-0.2c0.1,0,0.3-0.1,0.5-0.2c0.2-0.1,0.4-0.1,0.5-0.1c0.1,0,0.2-0.1,0.2-0.1c0.1,0,0.2-0.1,0.3-0.2l-0.2,2.8
					h1.5c0,0,0-1.7,0.1-2.5c0.1-0.8,0.1-1.3,0.1-1.5c0-0.4-0.1-0.6-0.3-0.8C749.3,343.7,749,343.6,748.7,343.5z M758,343.5
					c-0.3-0.1-0.6-0.1-0.9-0.1c-0.2,0-0.4,0-0.5,0c-0.2,0-0.3,0.1-0.4,0.1c-0.1,0.1-0.3,0.1-0.4,0.2c-0.1,0.1-0.2,0.2-0.3,0.3
					c-0.1,0.1-0.1,0.2-0.2,0.3c-0.1-0.2-0.1-0.3-0.2-0.4c-0.1-0.1-0.1-0.2-0.2-0.2c-0.1-0.1-0.2-0.1-0.3-0.2
					c-0.1-0.1-0.3-0.1-0.4-0.1c-0.1,0-0.3,0-0.5,0c-0.2,0-0.4,0-0.6,0.1c-0.2,0.1-0.4,0.1-0.5,0.2c-0.1,0.1-0.3,0.2-0.4,0.3
					c-0.1,0.1-0.2,0.2-0.3,0.4l0-0.8h-1.4l-0.2,5.3h1.5c0,0,0-1.1,0.1-1.8c0-0.8,0.1-1.3,0.2-1.6c0.1-0.3,0.2-0.5,0.4-0.6
					c0.2-0.2,0.4-0.2,0.6-0.2c0.1,0,0.2,0,0.4,0.1c0.1,0,0.2,0.1,0.3,0.2c0.1,0.1,0.1,0.2,0.1,0.3c0,0.1,0,0.2,0,0.4
					c0,0.3,0,0.8-0.1,1.7c0,0.8-0.1,1.4-0.1,1.6c0.3,0,1.2,0,1.5,0l0-1.5c0-0.5,0-0.9,0.1-1.3c0-0.3,0.1-0.6,0.1-0.7
					c0.1-0.2,0.1-0.3,0.3-0.5c0.1-0.1,0.2-0.2,0.4-0.3c0.1-0.1,0.3-0.1,0.4-0.1c0.2,0,0.3,0,0.4,0.1c0.1,0.1,0.2,0.1,0.3,0.3
					c0.1,0.1,0.1,0.3,0.1,0.6c0,0.2,0,0.5,0,0.8l-0.1,1.2c0,0.5-0.1,1-0.1,1.4c0.3,0,1.2,0,1.5,0c0-0.4,0-1,0.1-1.7
					c0-0.7,0.1-1.3,0.1-1.6c0-0.3,0-0.6,0-0.7c0-0.3-0.1-0.6-0.2-0.8C758.5,343.8,758.3,343.6,758,343.5z M763.7,343.5
					c-0.3-0.1-0.7-0.1-1.1-0.1c-0.3,0-0.7,0-1.1,0.1c-0.4,0-1.3,0.2-1.3,0.2l-0.2,1c0,0,1.5-0.5,2.1-0.5c0.2,0,0.3,0,0.5,0.1
					c0.1,0,0.3,0.1,0.3,0.2c0.1,0.1,0.1,0.2,0.1,0.3c0,0.1,0,0.1,0,0.2c0,0.1-0.1,0.1-0.1,0.2c-0.1,0.1-0.1,0.1-0.2,0.1
					c-0.1,0-0.2,0.1-0.3,0.1c-0.1,0-0.3,0.1-0.4,0.1c-0.5,0.1-0.9,0.2-1.2,0.3c-0.3,0.1-0.5,0.2-0.7,0.3c-0.2,0.1-0.3,0.2-0.4,0.4
					c-0.1,0.1-0.2,0.3-0.2,0.4c-0.1,0.1-0.1,0.3-0.1,0.4c0,0.3,0.1,0.5,0.2,0.8c0.1,0.3,0.3,0.4,0.6,0.6c0.3,0.1,0.6,0.2,1.1,0.2
					c0.1,0,0.3,0,0.4,0c0.1,0,0.3,0,0.6-0.1c0.1-0.4,0.2-0.7,0.3-0.9c-0.2,0.1-0.4,0.1-0.5,0.1c-0.1,0-0.2,0-0.4,0
					c-0.2,0-0.3,0-0.5-0.1c-0.1,0-0.2-0.1-0.3-0.2c-0.1-0.1-0.1-0.2-0.1-0.4c0-0.1,0-0.2,0-0.3c0-0.1,0.1-0.2,0.2-0.2
					c0.1-0.1,0.2-0.1,0.3-0.2c0.1-0.1,0.2-0.1,0.4-0.2c0.1,0,0.3-0.1,0.5-0.2c0.2-0.1,0.4-0.1,0.5-0.1c0.1,0,0.2-0.1,0.2-0.1
					c0.1,0,0.2-0.1,0.3-0.2l-0.2,2.8h1.5c0,0,0-1.7,0.1-2.5c0.1-0.8,0.1-1.3,0.1-1.5c0-0.4-0.1-0.6-0.3-0.8
					C764.3,343.7,764,343.6,763.7,343.5z M765.4,347.4c0,0.7,0,1.2-0.1,1.4c0.5,0,1.5,0,1.5,0s0.1-1.2,0.1-1.4
					C766.5,347.4,765.4,347.4,765.4,347.4z M769.2,345c0.2-0.2,0.3-0.3,0.5-0.4c0.2-0.1,0.4-0.1,0.7-0.1c0.4,0,0.8,0.1,1.4,0.3
					l-0.1-1.1c-0.3-0.1-0.6-0.1-0.9-0.2c-0.2,0-0.5,0-0.7,0c-0.4,0-0.8,0-1.1,0.1c-0.3,0.1-0.6,0.3-0.9,0.5c-0.3,0.3-0.5,0.6-0.6,1
					c-0.1,0.4-0.2,0.8-0.2,1.3c0,0.3,0,0.7,0.1,1c0.1,0.3,0.2,0.6,0.4,0.8c0.2,0.2,0.4,0.4,0.6,0.5c0.2,0.1,0.5,0.2,0.7,0.3
					c0.3,0.1,0.5,0.1,0.8,0.1c0.5,0,1-0.1,1.5-0.2c0-0.3,0.1-0.5,0.1-0.7c0-0.2,0.1-0.3,0.1-0.5c-0.3,0.1-0.5,0.2-0.7,0.2
					c-0.2,0-0.4,0.1-0.6,0.1c-0.3,0-0.6-0.1-0.9-0.2c-0.3-0.1-0.4-0.3-0.5-0.6c-0.1-0.2-0.2-0.5-0.2-0.9c0-0.2,0-0.5,0.1-0.7
					C769,345.3,769.1,345.1,769.2,345z M777.2,344.1c-0.3-0.2-0.6-0.4-0.9-0.5c-0.4-0.1-0.8-0.2-1.2-0.2c-0.4,0-0.9,0.1-1.3,0.2
					c-0.4,0.2-0.7,0.4-1,0.6c-0.3,0.3-0.5,0.6-0.6,0.9c-0.1,0.3-0.2,0.7-0.2,1.1c0,0.4,0.1,0.7,0.2,1.1c0.1,0.3,0.3,0.6,0.6,0.9
					c0.3,0.2,0.6,0.4,0.9,0.5c0.4,0.1,0.8,0.2,1.2,0.2c0.4,0,0.8-0.1,1.2-0.2c0.4-0.1,0.7-0.3,1-0.6c0.3-0.3,0.5-0.6,0.6-1
					c0.1-0.4,0.2-0.8,0.2-1.1c0-0.4-0.1-0.7-0.2-1.1C777.7,344.6,777.5,344.3,777.2,344.1z M776.3,347c-0.1,0.3-0.3,0.5-0.5,0.7
					c-0.2,0.2-0.5,0.2-0.8,0.2c-0.3,0-0.6-0.1-0.8-0.2c-0.2-0.1-0.4-0.3-0.5-0.6c-0.1-0.2-0.1-0.5-0.1-0.8c0-0.3,0.1-0.7,0.2-1
					c0.1-0.3,0.3-0.5,0.5-0.7c0.2-0.1,0.5-0.2,0.8-0.2c0.3,0,0.6,0.1,0.8,0.2c0.2,0.1,0.4,0.3,0.5,0.6c0.1,0.2,0.1,0.5,0.1,0.8
					C776.5,346.4,776.4,346.7,776.3,347z M786.6,344c-0.2-0.2-0.4-0.4-0.6-0.5c-0.3-0.1-0.6-0.1-0.9-0.1c-0.2,0-0.3,0-0.5,0
					c-0.2,0-0.3,0.1-0.4,0.1c-0.1,0.1-0.3,0.1-0.4,0.2c-0.1,0.1-0.2,0.2-0.3,0.3c-0.1,0.1-0.1,0.2-0.2,0.3c-0.1-0.2-0.1-0.3-0.2-0.4
					c-0.1-0.1-0.1-0.2-0.2-0.2c-0.1-0.1-0.2-0.1-0.3-0.2c-0.1-0.1-0.3-0.1-0.4-0.1c-0.1,0-0.3,0-0.5,0c-0.2,0-0.4,0-0.6,0.1
					c-0.2,0.1-0.4,0.1-0.5,0.2c-0.1,0.1-0.3,0.2-0.4,0.3c-0.1,0.1-0.2,0.2-0.3,0.4l0-0.8c-0.2,0-1.1,0-1.4,0c0,0.6-0.2,4.7-0.2,5.3
					c0.3,0,1.2,0,1.5,0c0-0.5,0-1.1,0.1-1.8c0-0.8,0.1-1.3,0.2-1.6c0.1-0.3,0.2-0.5,0.4-0.6c0.2-0.2,0.4-0.2,0.6-0.2
					c0.1,0,0.2,0,0.4,0.1c0.1,0,0.2,0.1,0.3,0.2c0.1,0.1,0.1,0.2,0.1,0.3c0,0.1,0,0.2,0,0.4c0,0.3,0,0.8-0.1,1.7
					c0,0.8-0.1,1.4-0.1,1.6c0.3,0,1.2,0,1.5,0l0-1.5c0-0.5,0-0.9,0.1-1.3c0-0.3,0.1-0.6,0.1-0.7c0.1-0.2,0.1-0.3,0.3-0.5
					c0.1-0.1,0.2-0.2,0.4-0.3c0.1-0.1,0.3-0.1,0.4-0.1c0.1,0,0.3,0,0.4,0.1c0.1,0.1,0.2,0.1,0.3,0.3c0.1,0.1,0.1,0.3,0.1,0.6
					c0,0.2,0,0.5,0,0.8l-0.1,1.2c0,0.5-0.1,1-0.1,1.4c0.3,0,1.2,0,1.5,0c0-0.4,0-1,0.1-1.7c0-0.7,0.1-1.3,0.1-1.6c0-0.3,0-0.6,0-0.7
					C786.8,344.5,786.8,344.2,786.6,344z"/>
			</g>
		</g>
		<g id="形状_2_copy_3_副本_5_39_">
			<g>
				<path style="fill-rule:evenodd;clip-rule:evenodd;fill:#FFFFFF;" d="M728.6,326.8c2.2,0,4.4,0,6.7,0c0,3.3,0,6.7,0,9.8
					c0,0.2-0.3,0.5-0.5,0.5c-0.4,0-0.5,0-0.9,0v1.6c0.5,0,1,0,1.4,0c1.3,0,2.1-0.6,2.1-1.7c0-2.5,0-7.6,0-10.2h0.8v-1.5h-9.6V326.8z
					 M762.6,333.9c-0.6,0-1.6,0.6-1.6,1.6c1.9,0,5,0,7.1,0c0,0.4,0,0.8,0,1.3c0.7,0,0.4,0,1.1,0c0.4,0,1-0.3,1-1c0-1.7,0-3,0-4.7
					c-0.3,0-0.7,0-0.9,0c0-1.3,0-4,0-4.9c0-0.4-0.4-0.8-0.9-0.8h-7v1.5h5.4c0,1.4,0,2.8,0,4.2c-1.3,0-1.5,0-2.6,0
					c-0.1,0-0.3-0.2-0.3-0.3c0-0.7,0-1.8,0-2.8c0-0.2-0.2-0.5-0.6-0.5h-1.6v3.7c0,0.7,0.6,1.3,1.3,1.3c0,0,2.7,0,5,0v1.4H762.6z
					 M734.2,334.4c0-1.8,0-4.2,0-6.6h-5.5v8.4c1.6,0,3.7,0,3.7,0C733.8,336.2,734.2,335.4,734.2,334.4z M731.9,334.6
					c-0.4,0-0.8,0-1.4,0v-5.3c0.6,0,1.3,0,1.9,0c0,1.6,0,3.4,0,4.8C732.4,334.4,732.2,334.6,731.9,334.6z M722.4,325.7
					c0,3,0,7,0,13.1h2c0-3.8,0-8,0-11.9c0.5,0,1.1,0,1.5,0c0,2.3,0,4.3,0,6.5c0,0.9-0.8,1.2-0.8,1.2v1.7c1.4,0,2.7-1.5,2.7-2.8
					c0-2.4,0-5.6,0-8.1c-1.8,0-3.3,0-5.1,0C722.3,325.3,722.4,325.7,722.4,325.7z M786.2,331c0-1.3,0-4,0-4.9c0-0.4-0.4-0.8-0.9-0.8
					h-7v1.5c1.8,0,3.6,0,5.4,0v4.2c-1.3,0-1.5,0-2.6,0c-0.1,0-0.3-0.2-0.3-0.3c0-0.7,0-1.8,0-2.8c0-0.2-0.2-0.5-0.6-0.5
					c-0.4,0-1.1,0-1.6,0v3.7c0,0.7,0.6,1.3,1.3,1.3c0,0,2.7,0,5,0v1.4h-5.5c-0.6,0-1.6,0.5-1.6,1.5c1.9,0,5,0,7.1,0v1.4
					c0,0.2-0.2,0.3-0.5,0.3h-0.8c0,0.7,0,1.1,0,1.5h1.2c0.4,0,0.3,0,0.7,0c1,0,1.5-0.7,1.5-1.3c0-1.9,0-4.5,0-6.4
					C786.8,331,786.5,331,786.2,331z M776.3,336.2c0.7-0.8,1.2-1.8,1.2-3.6c0-2,0-4,0-5.9c0-0.2-0.2-0.4-0.4-0.4c-0.8,0-1.8,0-2.6,0
					v-0.9h-2c0,0.3,0,0.6,0,0.9c-0.2,0-0.5,0-0.7,0v1.5h0.7v4.8c0,1.9,0.6,2.8,1.4,3.6c-0.9,0.6-1.8,1-3.1,1c-0.2,0-0.3,0-0.5,0
					c-1.9,0-4.2,0-6.3,0c-1.9,0-3.8-0.4-4.5-1.2c0.7-0.9,1-1.6,1.2-3.5c0-1.9,0-3.4,0-5.8c0-0.3-0.3-0.5-0.5-0.5c-0.8,0-1.6,0-2.6,0
					v-0.9c-0.8,0-1.2,0-2,0v0.9c-0.2,0-0.4,0-0.7,0v1.5c0.3,0,0.5,0,0.7,0c0,1.6,0,3.3,0,4.8c0.2,1.9,0.7,2.5,1.5,3.6
					c-1,0.7-2.3,1-3.8,1.1c-1.8,0-3.3,0-5.5,0c0-0.4,0-0.9,0-1.2h5.6v-1.6h-5.5c0-0.4,0-0.8,0-1.2c1.6,0,3.7,0,4.2,0
					c0,0,1.4,0,1.4-1.5c0-1.6,0-4.4,0-6.4c-4.4,0-8.8,0-13.2,0c-0.2,0-0.4,0.2-0.4,0.4c0,0.3,0,5.2,0,7.5c1.8,0,3.7,0,5.6,0v1.2
					h-5.6c0,0.5,0,1.1,0,1.6h5.5c0,0.4,0,0.8,0,1.2h-6.5c0,0.4,0,1,0,1.5c4.9,0,10.9,0,15.6,0c1.3,0,2.9-0.7,4-1.3
					c1.4,1.1,3,1.3,5.6,1.3c0.8,0,1.7,0,2.7,0c1.4,0,2.6,0,3.7,0c2.2,0,3.6-0.5,5-1.3c1.2,0.7,2.4,1.2,4.4,1.3v0h2.9v-1.5h-2.9
					C778.2,337.1,777.1,336.9,776.3,336.2z M745.1,331.7h-3.4V330h3.4V331.7z M745.1,328.4h-3.4v-1.6c1.1,0,2.3,0,3.4,0V328.4z
					 M747.7,326.8h3.4v1.6h-3.4V326.8z M747.7,330c1.1,0,2.3,0,3.4,0c0,0.6,0,1.2,0,1.6h-3.4C747.7,331.2,747.7,330.6,747.7,330z
					 M758.7,332.5c-0.1,1.1-0.2,1.3-0.5,2c-0.3-0.7-0.6-1-0.7-2c0-1.4,0-3.3,0-4.8h1.2V332.5z M775.6,332.5c0,1-0.3,1.5-0.5,2
					c-0.3-0.5-0.6-1.1-0.6-2c0-1.5,0-3.3,0-4.8h1.1C775.6,329.3,775.6,331,775.6,332.5z"/>
			</g>
		</g>
	</g>
</g>
<path style="fill:#FFFFFF;" d="M636.1,230c1.2-1.4,4.3-3.7,7.1,3.6c3.7,9.5,18,39.6,6.4,63.6c-11.6,24.1-32.8,64.8-40.5,21.4
	C600.5,269.9,635.7,230.4,636.1,230z"/>
<path style="fill:#FFFFFF;" d="M565.2,207.1c-1.8-1.6-7.2-5.5-9.5,6.4c-2.7,14.3-15.1,59.9,7.4,90.9c22.5,31,62.3,83,62.3,20.3
	C625.4,252.9,565.6,207.4,565.2,207.1z"/>
<g>
	<defs>
		<rect id="SVGID_7_" x="560.6" y="279.7" width="251.9" height="317.8"/>
	</defs>
	<clipPath id="SVGID_8_">
		<use xlink:href="#SVGID_7_"  style="overflow:visible;"/>
	</clipPath>
</g>
<g>
	<defs>
		<rect id="SVGID_9_" x="512.3" y="378.6" width="220.2" height="218.9"/>
	</defs>
	<clipPath id="SVGID_10_">
		<use xlink:href="#SVGID_9_"  style="overflow:visible;"/>
	</clipPath>
</g>
<g>
	<defs>
		<rect id="SVGID_11_" x="512.3" y="333.2" width="300.1" height="264.2"/>
	</defs>
	<clipPath id="SVGID_12_">
		<use xlink:href="#SVGID_11_"  style="overflow:visible;"/>
	</clipPath>
</g>
<g>
	<defs>
		<rect id="SVGID_13_" x="5.5" y="290.3" width="285.1" height="302.5"/>
	</defs>
	<clipPath id="SVGID_14_">
		<use xlink:href="#SVGID_13_"  style="overflow:visible;"/>
	</clipPath>
	<path style="clip-path:url(#SVGID_14_);fill:#AA2D24;" d="M123.8,380.6c0,0,86.2,21.4,107.3,55.2c21.1,33.7-3.3,66.8-65.5,68.8
		c-62.2,2-144.4,2.7-160.2,62.2l-24,42.6L-36,562.7c15.2-145.5,161.1-77.3,231.4-94.6c59.2-14.5-50.8-62.4-50.8-62.4"/>
</g>
<path style="fill:#FFFFFF;" d="M812.3,228.7c0,0-116.7,33.7-164.6,70.8c-47.9,37.1-69.8,69.7,0,107.7c69.8,37.9,70.1,42.9,71,46.7
	c1.6,6.8-1.4,27.6-85.4,18.9c-84-8.7-109.2,5.5-120.9,13.2V570c0,0,5.3-45.8,84.8-57.1c82.3-11.6,106.5-11,125.9-17
	c46.2-14.2,44.3-52.6-5.4-76.4c-33.6-16.1-112.4-36.7-82.2-70.7c30.2-34,118.9-55.3,176.9-60.3L812.3,228.7z"/>
<path style="fill:#B52E24;" d="M123.8,380.6c0,0,4.8,13.3,20.8,25.1l-0.7-9.2L123.8,380.6z"/>
<rect x="390.7" y="520.1" style="fill:#FFFFFF;" width="35.6" height="35.6"/>
<g>
	<rect x="416" y="527.9" width="1.3" height="1.3"/>
	<rect x="417.3" y="529.2" width="1.2" height="1.2"/>
	<rect x="417.3" y="531.7" width="1.2" height="1.3"/>
	<rect x="411" y="527.9" width="1.3" height="1.3"/>
	<rect x="417.3" y="536.6" width="1.2" height="1.3"/>
	<rect x="417.3" y="542.9" width="1.2" height="1.3"/>
	<rect x="417.3" y="532.9" width="1.2" height="1.2"/>
	<rect x="417.3" y="537.9" width="1.2" height="1.3"/>
	<rect x="408.5" y="527.9" width="1.3" height="1.3"/>
	<rect x="398.5" y="537.9" width="1.2" height="1.3"/>
	<rect x="398.5" y="532.9" width="1.2" height="1.2"/>
	<rect x="398.5" y="541.6" width="1.2" height="1.3"/>
	<rect x="403.5" y="527.9" width="1.2" height="1.3"/>
	<rect x="398.5" y="529.2" width="1.2" height="1.2"/>
	<rect x="399.8" y="527.9" width="1.3" height="1.3"/>
	<rect x="399.8" y="531.7" width="1.3" height="1.3"/>
	<rect x="399.8" y="529.2" width="1.3" height="1.2"/>
	<rect x="399.8" y="532.9" width="1.3" height="1.2"/>
	<rect x="399.8" y="536.6" width="1.3" height="1.3"/>
	<rect x="399.8" y="535.4" width="1.3" height="1.3"/>
	<rect x="399.8" y="534.2" width="1.3" height="1.2"/>
	<rect x="404.8" y="529.2" width="1.3" height="1.2"/>
	<rect x="411" y="529.2" width="1.3" height="1.2"/>
	<rect x="413.5" y="529.2" width="1.3" height="1.2"/>
	<rect x="407.3" y="529.2" width="1.3" height="1.2"/>
	<rect x="408.5" y="529.2" width="1.3" height="1.2"/>
	<rect x="408.5" y="546.6" width="1.3" height="1.3"/>
	<rect x="411" y="546.6" width="1.3" height="1.3"/>
	<rect x="406" y="546.6" width="1.2" height="1.3"/>
	<rect x="413.5" y="546.6" width="1.3" height="1.3"/>
	<rect x="404.8" y="546.6" width="1.3" height="1.3"/>
	<rect x="399.8" y="542.9" width="1.3" height="1.3"/>
	<rect x="399.8" y="541.6" width="1.3" height="1.3"/>
	<rect x="399.8" y="540.4" width="1.3" height="1.2"/>
	<rect x="399.8" y="546.6" width="1.3" height="1.3"/>
	<rect x="399.8" y="545.4" width="1.3" height="1.2"/>
	<rect x="404.8" y="549.1" width="1.3" height="1.3"/>
	<rect x="397.3" y="529.2" width="1.3" height="1.2"/>
	<rect x="397.3" y="537.9" width="1.3" height="1.3"/>
	<rect x="397.3" y="536.6" width="1.3" height="1.3"/>
	<rect x="397.3" y="526.7" width="1.3" height="1.3"/>
	<rect x="397.3" y="534.2" width="1.3" height="1.2"/>
	<rect x="397.3" y="539.1" width="1.3" height="1.3"/>
	<rect x="407.3" y="526.7" width="1.3" height="1.3"/>
	<rect x="404.8" y="526.7" width="1.3" height="1.3"/>
	<rect x="408.5" y="526.7" width="1.3" height="1.3"/>
	<rect x="399.8" y="526.7" width="1.3" height="1.3"/>
	<rect x="398.5" y="545.4" width="1.2" height="1.2"/>
	<rect x="397.3" y="540.4" width="1.3" height="1.2"/>
	<rect x="408.5" y="549.1" width="1.3" height="1.3"/>
	<rect x="411" y="549.1" width="1.3" height="1.3"/>
	<rect x="406" y="549.1" width="1.2" height="1.3"/>
	<rect x="399.8" y="549.1" width="1.3" height="1.3"/>
	<rect x="397.3" y="545.4" width="1.3" height="1.2"/>
	<rect x="397.3" y="549.1" width="1.3" height="1.3"/>
	<rect x="397.3" y="547.9" width="1.3" height="1.3"/>
	<rect x="416" y="529.2" width="1.3" height="1.2"/>
	<rect x="414.8" y="547.9" width="1.2" height="1.3"/>
	<rect x="413.5" y="547.9" width="1.3" height="1.3"/>
	<rect x="411" y="547.9" width="1.3" height="1.3"/>
	<rect x="408.5" y="547.9" width="1.3" height="1.3"/>
	<rect x="418.5" y="547.9" width="1.3" height="1.3"/>
	<rect x="416" y="547.9" width="1.3" height="1.3"/>
	<rect x="418.5" y="546.6" width="1.3" height="1.3"/>
	<rect x="417.3" y="547.9" width="1.2" height="1.3"/>
	<rect x="418.5" y="545.4" width="1.3" height="1.2"/>
	<rect x="399.8" y="547.9" width="1.3" height="1.3"/>
	<rect x="406" y="547.9" width="1.2" height="1.3"/>
	<rect x="407.3" y="547.9" width="1.3" height="1.3"/>
	<rect x="403.5" y="547.9" width="1.2" height="1.3"/>
	<rect x="402.3" y="547.9" width="1.3" height="1.3"/>
	<rect x="418.5" y="541.6" width="1.3" height="1.3"/>
	<rect x="418.5" y="531.7" width="1.3" height="1.3"/>
	<rect x="418.5" y="529.2" width="1.3" height="1.2"/>
	<rect x="418.5" y="526.7" width="1.3" height="1.3"/>
	<rect x="412.3" y="526.7" width="1.2" height="1.3"/>
	<rect x="413.5" y="526.7" width="1.3" height="1.3"/>
	<rect x="416" y="526.7" width="1.3" height="1.3"/>
	<rect x="418.5" y="539.1" width="1.3" height="1.3"/>
	<rect x="418.5" y="542.9" width="1.3" height="1.3"/>
	<rect x="418.5" y="544.1" width="1.3" height="1.3"/>
	<rect x="418.5" y="534.2" width="1.3" height="1.2"/>
	<rect x="413.5" y="535.4" width="1.3" height="1.3"/>
	<rect x="403.5" y="535.4" width="1.2" height="1.3"/>
	<rect x="409.8" y="532.9" width="1.2" height="1.2"/>
	<rect x="412.3" y="536.6" width="1.2" height="1.3"/>
	<rect x="412.3" y="534.2" width="1.2" height="1.2"/>
	<rect x="406" y="532.9" width="1.2" height="1.2"/>
	<rect x="413.5" y="537.9" width="1.3" height="1.3"/>
	<rect x="413.5" y="540.4" width="1.3" height="1.2"/>
	<rect x="413.5" y="536.6" width="1.3" height="1.3"/>
	<rect x="413.5" y="531.7" width="1.3" height="1.3"/>
	<rect x="413.5" y="534.2" width="1.3" height="1.2"/>
	<rect x="403.5" y="541.6" width="1.2" height="1.3"/>
	<rect x="412.3" y="531.7" width="1.2" height="1.3"/>
	<rect x="413.5" y="542.9" width="1.3" height="1.3"/>
	<rect x="406" y="542.9" width="1.2" height="1.3"/>
	<rect x="412.3" y="542.9" width="1.2" height="1.3"/>
	<rect x="411" y="542.9" width="1.3" height="1.3"/>
	<rect x="406" y="535.4" width="1.2" height="1.3"/>
	<rect x="406" y="536.6" width="1.2" height="1.3"/>
	<rect x="407.3" y="535.4" width="1.3" height="1.3"/>
	<rect x="408.5" y="535.4" width="1.3" height="1.3"/>
	<rect x="407.3" y="540.4" width="1.3" height="1.2"/>
	<rect x="406" y="539.1" width="1.2" height="1.3"/>
	<rect x="409.8" y="535.4" width="1.2" height="1.3"/>
	<rect x="406" y="540.4" width="1.2" height="1.2"/>
	<rect x="406" y="537.9" width="1.2" height="1.3"/>
	<rect x="407.3" y="537.9" width="1.3" height="1.3"/>
	<rect x="408.5" y="537.9" width="1.3" height="1.3"/>
	<rect x="409.8" y="537.9" width="1.2" height="1.3"/>
	<rect x="408.5" y="539.1" width="1.3" height="1.3"/>
	<rect x="404.8" y="539.1" width="1.3" height="1.3"/>
	<rect x="404.8" y="535.4" width="1.3" height="1.3"/>
	<rect x="404.8" y="537.9" width="1.3" height="1.3"/>
	<rect x="404.8" y="541.6" width="1.3" height="1.3"/>
	<rect x="408.5" y="541.6" width="1.3" height="1.3"/>
	<rect x="411" y="540.4" width="1.3" height="1.2"/>
	<rect x="411" y="537.9" width="1.3" height="1.3"/>
	<rect x="406" y="534.2" width="1.2" height="1.2"/>
	<rect x="411" y="539.1" width="1.3" height="1.3"/>
	<rect x="409.8" y="534.2" width="1.2" height="1.2"/>
	<rect x="409.8" y="541.6" width="1.2" height="1.3"/>
	<rect x="401" y="541.6" width="1.2" height="1.3"/>
	<rect x="404.8" y="545.4" width="1.3" height="1.2"/>
	<rect x="402.3" y="545.4" width="1.3" height="1.2"/>
	<rect x="403.5" y="530.4" width="1.2" height="1.3"/>
	<rect x="404.8" y="530.4" width="1.3" height="1.3"/>
	<rect x="401" y="535.4" width="1.2" height="1.3"/>
	<rect x="401" y="532.9" width="1.2" height="1.2"/>
	<rect x="402.3" y="530.4" width="1.3" height="1.3"/>
	<rect x="416" y="540.4" width="1.3" height="1.2"/>
	<rect x="416" y="541.6" width="1.3" height="1.3"/>
	<rect x="416" y="542.9" width="1.3" height="1.3"/>
	<rect x="416" y="535.4" width="1.3" height="1.3"/>
	<rect x="416" y="532.9" width="1.3" height="1.2"/>
	<rect x="408.5" y="545.4" width="1.3" height="1.2"/>
	<rect x="407.3" y="545.4" width="1.3" height="1.2"/>
	<rect x="416" y="545.4" width="1.3" height="1.2"/>
	<rect x="413.5" y="545.4" width="1.3" height="1.2"/>
	<rect x="402.3" y="539.1" width="1.3" height="1.3"/>
	<rect x="402.3" y="544.1" width="1.3" height="1.3"/>
	<rect x="402.3" y="537.9" width="1.3" height="1.3"/>
	<rect x="408.5" y="531.7" width="1.3" height="1.3"/>
	<rect x="404.8" y="531.7" width="1.3" height="1.3"/>
	<rect x="402.3" y="535.4" width="1.3" height="1.3"/>
	<rect x="402.3" y="531.7" width="1.3" height="1.3"/>
	<rect x="414.8" y="531.7" width="1.2" height="1.3"/>
	<rect x="408.5" y="544.1" width="1.3" height="1.3"/>
	<rect x="412.3" y="530.4" width="1.2" height="1.3"/>
	<rect x="411" y="530.4" width="1.3" height="1.3"/>
	<rect x="413.5" y="544.1" width="1.3" height="1.3"/>
	<rect x="414.8" y="542.9" width="1.2" height="1.3"/>
	<rect x="414.8" y="539.1" width="1.2" height="1.3"/>
	<rect x="419.8" y="536.6" width="1.2" height="1.3"/>
	<rect x="393.5" y="536.6" width="1.2" height="1.3"/>
	<rect x="393.5" y="545.4" width="1.2" height="1.2"/>
	<rect x="393.5" y="541.6" width="1.2" height="1.3"/>
	<rect x="393.5" y="532.9" width="1.2" height="1.2"/>
	<rect x="393.5" y="529.2" width="1.2" height="1.2"/>
	<rect x="393.5" y="531.6" width="1.2" height="1.3"/>
	<rect x="406" y="552.8" width="1.2" height="1.3"/>
	<rect x="403.5" y="552.8" width="1.2" height="1.3"/>
	<rect x="412.3" y="552.8" width="1.2" height="1.3"/>
	<rect x="409.8" y="552.8" width="1.2" height="1.3"/>
	<rect x="408.5" y="552.8" width="1.3" height="1.3"/>
	<rect x="397.3" y="552.8" width="1.3" height="1.3"/>
	<rect x="393.5" y="552.8" width="1.2" height="1.3"/>
	<rect x="413.5" y="552.8" width="1.3" height="1.3"/>
	<rect x="398.5" y="552.8" width="1.2" height="1.3"/>
	<rect x="394.8" y="552.8" width="1.3" height="1.3"/>
	<rect x="399.8" y="552.8" width="1.3" height="1.3"/>
	<rect x="396" y="552.8" width="1.2" height="1.3"/>
	<rect x="422.3" y="535.4" width="1.2" height="1.3"/>
	<rect x="422.3" y="529.2" width="1.2" height="1.2"/>
	<rect x="422.3" y="546.6" width="1.2" height="1.3"/>
	<rect x="422.3" y="537.9" width="1.2" height="1.3"/>
	<rect x="422.3" y="547.9" width="1.2" height="1.3"/>
	<rect x="422.3" y="539.1" width="1.2" height="1.3"/>
	<rect x="422.3" y="542.9" width="1.2" height="1.3"/>
	<rect x="403.5" y="522.9" width="1.2" height="1.3"/>
	<rect x="409.8" y="522.9" width="1.2" height="1.3"/>
	<rect x="408.5" y="522.9" width="1.3" height="1.3"/>
	<rect x="407.3" y="522.9" width="1.3" height="1.3"/>
	<rect x="404.8" y="522.9" width="1.3" height="1.3"/>
	<rect x="399.8" y="522.9" width="1.3" height="1.3"/>
	<rect x="416" y="522.9" width="1.3" height="1.3"/>
	<rect x="412.3" y="522.9" width="1.2" height="1.3"/>
	<rect x="411" y="522.9" width="1.3" height="1.3"/>
	<rect x="394.8" y="521.7" width="1.3" height="1.3"/>
	<rect x="393.5" y="521.7" width="1.2" height="1.3"/>
	<rect x="396" y="521.7" width="1.2" height="1.3"/>
	<rect x="392.3" y="521.7" width="1.3" height="1.3"/>
	<rect x="397.3" y="521.7" width="1.3" height="1.3"/>
	<rect x="392.3" y="526.7" width="1.3" height="1.3"/>
	<rect x="392.3" y="522.9" width="1.3" height="1.3"/>
	<rect x="398.5" y="521.7" width="1.2" height="1.3"/>
	<rect x="392.3" y="524.2" width="1.3" height="1.2"/>
	<rect x="407.3" y="521.7" width="1.3" height="1.3"/>
	<rect x="408.5" y="521.7" width="1.3" height="1.3"/>
	<rect x="392.3" y="527.9" width="1.3" height="1.3"/>
	<rect x="404.8" y="521.7" width="1.3" height="1.3"/>
	<rect x="399.8" y="521.7" width="1.3" height="1.3"/>
	<rect x="403.5" y="521.7" width="1.2" height="1.3"/>
	<rect x="392.3" y="546.6" width="1.3" height="1.3"/>
	<rect x="392.3" y="545.4" width="1.3" height="1.2"/>
	<rect x="392.3" y="541.6" width="1.3" height="1.3"/>
	<rect x="392.3" y="547.9" width="1.3" height="1.3"/>
	<rect x="392.3" y="549.1" width="1.3" height="1.3"/>
	<rect x="392.3" y="552.8" width="1.3" height="1.3"/>
	<rect x="392.3" y="529.2" width="1.3" height="1.2"/>
	<rect x="392.3" y="550.4" width="1.3" height="1.2"/>
	<rect x="392.3" y="551.6" width="1.3" height="1.3"/>
	<rect x="392.3" y="534.2" width="1.3" height="1.2"/>
	<rect x="392.3" y="532.9" width="1.3" height="1.2"/>
	<rect x="392.3" y="539.1" width="1.3" height="1.3"/>
	<rect x="392.3" y="536.6" width="1.3" height="1.3"/>
	<rect x="392.3" y="525.4" width="1.3" height="1.3"/>
	<rect x="423.5" y="545.4" width="1.3" height="1.2"/>
	<rect x="423.5" y="542.9" width="1.3" height="1.3"/>
	<rect x="423.5" y="547.9" width="1.3" height="1.3"/>
	<rect x="423.5" y="536.6" width="1.3" height="1.3"/>
	<rect x="423.5" y="539.1" width="1.3" height="1.3"/>
	<rect x="423.5" y="549.1" width="1.3" height="1.3"/>
	<rect x="423.5" y="540.4" width="1.3" height="1.2"/>
	<rect x="423.5" y="546.6" width="1.3" height="1.3"/>
	<rect x="412.3" y="521.7" width="1.2" height="1.3"/>
	<rect x="418.5" y="552.9" width="1.3" height="1.3"/>
	<rect x="416" y="552.9" width="1.3" height="1.3"/>
	<rect x="421" y="552.9" width="1.3" height="1.3"/>
	<rect x="423.5" y="552.9" width="1.3" height="1.3"/>
	<rect x="419.8" y="521.7" width="1.2" height="1.3"/>
	<rect x="423.5" y="535.4" width="1.3" height="1.3"/>
	<rect x="422.3" y="521.7" width="1.2" height="1.3"/>
	<rect x="423.5" y="521.7" width="1.3" height="1.3"/>
	<rect x="418.5" y="521.7" width="1.3" height="1.3"/>
	<rect x="416" y="521.7" width="1.3" height="1.3"/>
	<rect x="417.3" y="521.7" width="1.2" height="1.3"/>
	<rect x="423.5" y="522.9" width="1.3" height="1.3"/>
	<rect x="421" y="521.7" width="1.3" height="1.3"/>
	<rect x="423.5" y="531.7" width="1.3" height="1.3"/>
	<rect x="423.5" y="524.2" width="1.3" height="1.2"/>
	<rect x="423.5" y="534.2" width="1.3" height="1.2"/>
	<rect x="423.5" y="525.4" width="1.3" height="1.3"/>
	<rect x="423.5" y="526.7" width="1.3" height="1.3"/>
	<rect x="423.5" y="529.2" width="1.3" height="1.2"/>
	<rect x="423.5" y="527.9" width="1.3" height="1.3"/>
	<rect x="396" y="545.4" width="1.2" height="1.2"/>
	<rect x="396" y="542.9" width="1.2" height="1.3"/>
	<rect x="396" y="549.1" width="1.2" height="1.3"/>
	<rect x="396" y="550.4" width="1.2" height="1.2"/>
	<rect x="396" y="547.9" width="1.2" height="1.3"/>
	<rect x="397.3" y="550.4" width="1.3" height="1.2"/>
	<rect x="396" y="529.2" width="1.2" height="1.2"/>
	<rect x="396" y="531.6" width="1.2" height="1.3"/>
	<rect x="396" y="526.7" width="1.2" height="1.3"/>
	<rect x="417.3" y="550.4" width="1.2" height="1.2"/>
	<rect x="412.3" y="550.4" width="1.2" height="1.2"/>
	<rect x="399.8" y="550.4" width="1.3" height="1.2"/>
	<rect x="421" y="550.4" width="1.3" height="1.2"/>
	<rect x="419.8" y="550.4" width="1.2" height="1.2"/>
	<rect x="421" y="547.9" width="1.3" height="1.3"/>
	<rect x="404.8" y="550.4" width="1.3" height="1.2"/>
	<rect x="402.3" y="550.4" width="1.3" height="1.2"/>
	<rect x="408.5" y="550.4" width="1.3" height="1.2"/>
	<rect x="406" y="550.4" width="1.2" height="1.2"/>
	<rect x="419.8" y="539.1" width="1.2" height="1.3"/>
	<rect x="419.8" y="537.9" width="1.2" height="1.3"/>
	<rect x="419.8" y="534.2" width="1.2" height="1.2"/>
	<rect x="419.8" y="535.4" width="1.2" height="1.3"/>
	<rect x="419.8" y="529.2" width="1.2" height="1.2"/>
	<rect x="417.3" y="549.1" width="1.2" height="1.3"/>
	<rect x="403.5" y="525.4" width="1.2" height="1.3"/>
	<rect x="404.8" y="525.4" width="1.3" height="1.3"/>
	<rect x="396" y="525.4" width="1.2" height="1.3"/>
	<rect x="419.8" y="526.7" width="1.2" height="1.3"/>
	<rect x="397.3" y="525.4" width="1.3" height="1.3"/>
	<rect x="399.8" y="525.4" width="1.3" height="1.3"/>
	<rect x="402.3" y="525.4" width="1.3" height="1.3"/>
	<rect x="418.5" y="525.4" width="1.3" height="1.3"/>
	<rect x="416" y="525.4" width="1.3" height="1.3"/>
	<rect x="422.3" y="550.4" width="1.2" height="1.2"/>
	<rect x="412.3" y="525.4" width="1.2" height="1.3"/>
	<rect x="411" y="525.4" width="1.3" height="1.3"/>
	<rect x="419.8" y="525.4" width="1.2" height="1.3"/>
	<rect x="394.8" y="545.4" width="1.3" height="1.2"/>
	<rect x="394.8" y="547.9" width="1.3" height="1.3"/>
	<rect x="394.8" y="542.9" width="1.3" height="1.3"/>
	<rect x="394.8" y="541.6" width="1.3" height="1.3"/>
	<rect x="394.8" y="549.1" width="1.3" height="1.3"/>
	<rect x="394.8" y="550.4" width="1.3" height="1.2"/>
	<rect x="394.8" y="532.9" width="1.3" height="1.2"/>
	<rect x="394.8" y="534.2" width="1.3" height="1.2"/>
	<rect x="394.8" y="536.6" width="1.3" height="1.3"/>
	<rect x="414.8" y="551.6" width="1.2" height="1.3"/>
	<rect x="413.5" y="551.6" width="1.3" height="1.3"/>
	<rect x="422.3" y="551.6" width="1.2" height="1.3"/>
	<rect x="421" y="551.6" width="1.3" height="1.3"/>
	<rect x="419.8" y="551.6" width="1.2" height="1.3"/>
	<rect x="399.8" y="551.6" width="1.3" height="1.3"/>
	<rect x="409.8" y="551.6" width="1.2" height="1.3"/>
	<rect x="403.5" y="551.6" width="1.2" height="1.3"/>
	<rect x="394.8" y="529.2" width="1.3" height="1.2"/>
	<rect x="408.5" y="551.6" width="1.3" height="1.3"/>
	<rect x="406" y="551.6" width="1.2" height="1.3"/>
	<rect x="421" y="529.2" width="1.3" height="1.2"/>
	<rect x="421" y="531.7" width="1.3" height="1.3"/>
	<rect x="421" y="526.7" width="1.3" height="1.3"/>
	<rect x="419.8" y="524.2" width="1.2" height="1.2"/>
	<rect x="418.5" y="524.2" width="1.3" height="1.2"/>
	<rect x="421" y="532.9" width="1.3" height="1.2"/>
	<rect x="421" y="524.2" width="1.3" height="1.2"/>
	<rect x="421" y="525.4" width="1.3" height="1.3"/>
	<rect x="421" y="539.1" width="1.3" height="1.3"/>
	<rect x="421" y="540.4" width="1.3" height="1.2"/>
	<rect x="421" y="535.4" width="1.3" height="1.3"/>
	<rect x="421" y="541.6" width="1.3" height="1.3"/>
	<rect x="399.8" y="524.2" width="1.3" height="1.2"/>
	<rect x="402.3" y="524.2" width="1.3" height="1.2"/>
	<rect x="397.3" y="524.2" width="1.3" height="1.2"/>
	<rect x="416" y="524.2" width="1.3" height="1.2"/>
	<rect x="394.8" y="525.4" width="1.3" height="1.3"/>
	<rect x="394.8" y="524.2" width="1.3" height="1.2"/>
	<rect x="396" y="524.2" width="1.2" height="1.2"/>
	<rect x="394.8" y="526.7" width="1.3" height="1.3"/>
	<rect x="412.3" y="524.2" width="1.2" height="1.2"/>
	<rect x="404.8" y="524.2" width="1.3" height="1.2"/>
	<rect x="409.8" y="524.2" width="1.2" height="1.2"/>
	<rect x="408.5" y="524.2" width="1.3" height="1.2"/>
</g>
</svg>
