<?xml version="1.0" encoding="utf-8"?>
<!-- Generator: Adobe Illustrator 17.1.0, SVG Export Plug-In . SVG Version: 6.00 Build 0)  -->
<!DOCTYPE svg PUBLIC "-//W3C//DTD SVG 1.1//EN" "http://www.w3.org/Graphics/SVG/1.1/DTD/svg11.dtd">
<svg version="1.1" id="图层_1" xmlns="http://www.w3.org/2000/svg" xmlns:xlink="http://www.w3.org/1999/xlink" x="0px" y="0px"
	 viewBox="0 0 814 594.5" style="enable-background:new 0 0 814 594.5;" xml:space="preserve">
<g>
	<defs>
		<rect id="SVGID_1_" x="511.6" y="152.3" width="300.2" height="438.9"/>
	</defs>
	<clipPath id="SVGID_2_">
		<use xlink:href="#SVGID_1_"  style="overflow:visible;"/>
	</clipPath>
	<rect x="511.6" y="136.8" style="clip-path:url(#SVGID_2_);fill:#FFFFFF;" width="300.2" height="454.5"/>
</g>
<rect x="356.5" y="151.3" style="fill:#FFFFFF;stroke:#999999;stroke-miterlimit:10;" width="103.2" height="440.9"/>
<g>
	<path style="fill:#FF6600;" d="M387.8,571.4l-0.6-2.2h0l-0.6,2.2h-0.5l-0.9-2.7h0.5l0.6,2.2h0l0.6-2.2h0.5l0.6,2.2h0l0.6-2.2h0.5
		l-0.9,2.7H387.8z"/>
	<path style="fill:#FF6600;" d="M391.8,571.4l-0.6-2.2h0l-0.6,2.2h-0.5l-0.9-2.7h0.5l0.6,2.2h0l0.6-2.2h0.5l0.6,2.2h0l0.6-2.2h0.5
		l-0.9,2.7H391.8z"/>
	<path style="fill:#FF6600;" d="M395.8,571.4l-0.6-2.2h0l-0.6,2.2h-0.5l-0.9-2.7h0.5l0.6,2.2h0l0.6-2.2h0.5l0.6,2.2h0l0.6-2.2h0.5
		l-0.9,2.7H395.8z"/>
	<path style="fill:#FF6600;" d="M398,570.8v0.6h-0.6v-0.6H398z"/>
	<path style="fill:#FF6600;" d="M400.9,571.4c-0.1,0-0.2,0-0.3-0.1c-0.1-0.1-0.1-0.2-0.1-0.3c-0.1,0.1-0.3,0.3-0.4,0.3
		c-0.2,0.1-0.3,0.1-0.5,0.1c-0.1,0-0.2,0-0.3,0c-0.1,0-0.2-0.1-0.3-0.1c-0.1-0.1-0.1-0.1-0.2-0.2c0-0.1-0.1-0.2-0.1-0.4
		c0-0.2,0-0.3,0.1-0.4c0.1-0.1,0.1-0.2,0.2-0.2c0.1-0.1,0.2-0.1,0.3-0.1c0.1,0,0.2-0.1,0.3-0.1c0.1,0,0.2,0,0.4-0.1
		c0.1,0,0.2,0,0.3-0.1c0.1,0,0.2-0.1,0.2-0.1c0,0,0.1-0.1,0.1-0.2c0-0.1,0-0.2-0.1-0.2s-0.1-0.1-0.1-0.1c-0.1,0-0.1-0.1-0.2-0.1
		c-0.1,0-0.1,0-0.2,0c-0.2,0-0.3,0-0.5,0.1s-0.2,0.2-0.2,0.4h-0.5c0-0.2,0-0.3,0.1-0.4s0.1-0.2,0.3-0.3c0.1-0.1,0.2-0.1,0.4-0.2
		s0.3,0,0.4,0c0.1,0,0.2,0,0.4,0s0.2,0.1,0.3,0.1s0.2,0.1,0.2,0.2c0.1,0.1,0.1,0.2,0.1,0.4v1.4c0,0.1,0,0.2,0,0.2
		c0,0,0.1,0.1,0.1,0.1c0,0,0.1,0,0.1,0v0.3C401.1,571.4,401,571.4,400.9,571.4z M400.3,570c-0.1,0-0.2,0-0.3,0c-0.1,0-0.2,0-0.3,0
		s-0.2,0-0.3,0.1s-0.1,0.1-0.2,0.2c-0.1,0.1-0.1,0.2-0.1,0.3c0,0.1,0,0.1,0,0.2c0,0.1,0.1,0.1,0.1,0.1c0,0,0.1,0.1,0.2,0.1
		s0.1,0,0.2,0c0.1,0,0.3,0,0.4-0.1s0.2-0.1,0.3-0.2c0.1-0.1,0.1-0.1,0.1-0.2c0-0.1,0-0.1,0-0.2V570C400.4,570,400.3,570,400.3,570z"
		/>
	<path style="fill:#FF6600;" d="M402.1,567.6v3.8h-0.5v-3.8H402.1z"/>
	<path style="fill:#FF6600;" d="M402.8,568.1v-0.6h0.5v0.6H402.8z M403.3,568.6v2.7h-0.5v-2.7H403.3z"/>
	<path style="fill:#FF6600;" d="M404.4,568.6v0.4h0c0.2-0.3,0.5-0.5,0.9-0.5c0.2,0,0.3,0,0.5,0.1s0.2,0.2,0.3,0.4
		c0.1-0.1,0.2-0.3,0.4-0.3c0.1-0.1,0.3-0.1,0.5-0.1c0.1,0,0.3,0,0.4,0c0.1,0,0.2,0.1,0.3,0.1c0.1,0.1,0.1,0.1,0.2,0.2
		c0,0.1,0.1,0.2,0.1,0.4v2h-0.5v-1.8c0-0.1,0-0.2,0-0.2c0-0.1,0-0.1-0.1-0.2c0-0.1-0.1-0.1-0.2-0.1c-0.1,0-0.2,0-0.3,0
		c-0.2,0-0.4,0.1-0.5,0.2c-0.1,0.1-0.2,0.3-0.2,0.5v1.7h-0.5v-1.8c0-0.1,0-0.2,0-0.2s0-0.1-0.1-0.2s-0.1-0.1-0.2-0.1
		c-0.1,0-0.1,0-0.3,0c-0.1,0-0.2,0-0.3,0.1c-0.1,0.1-0.2,0.1-0.2,0.2c-0.1,0.1-0.1,0.2-0.1,0.2s0,0.1,0,0.2v1.7H404v-2.7H404.4z"/>
	<path style="fill:#FF6600;" d="M410.6,571.4c-0.1,0-0.2,0-0.3-0.1c-0.1-0.1-0.1-0.2-0.1-0.3c-0.1,0.1-0.3,0.3-0.4,0.3
		c-0.2,0.1-0.3,0.1-0.5,0.1c-0.1,0-0.2,0-0.3,0c-0.1,0-0.2-0.1-0.3-0.1c-0.1-0.1-0.1-0.1-0.2-0.2c0-0.1-0.1-0.2-0.1-0.4
		c0-0.2,0-0.3,0.1-0.4c0.1-0.1,0.1-0.2,0.2-0.2c0.1-0.1,0.2-0.1,0.3-0.1c0.1,0,0.2-0.1,0.3-0.1c0.1,0,0.2,0,0.4-0.1
		c0.1,0,0.2,0,0.3-0.1c0.1,0,0.2-0.1,0.2-0.1c0,0,0.1-0.1,0.1-0.2c0-0.1,0-0.2-0.1-0.2s-0.1-0.1-0.1-0.1c-0.1,0-0.1-0.1-0.2-0.1
		c-0.1,0-0.1,0-0.2,0c-0.2,0-0.3,0-0.5,0.1s-0.2,0.2-0.2,0.4h-0.5c0-0.2,0-0.3,0.1-0.4s0.1-0.2,0.3-0.3c0.1-0.1,0.2-0.1,0.4-0.2
		s0.3,0,0.4,0c0.1,0,0.2,0,0.4,0s0.2,0.1,0.3,0.1s0.2,0.1,0.2,0.2c0.1,0.1,0.1,0.2,0.1,0.4v1.4c0,0.1,0,0.2,0,0.2
		c0,0,0.1,0.1,0.1,0.1c0,0,0.1,0,0.1,0v0.3C410.8,571.4,410.7,571.4,410.6,571.4z M410,570c-0.1,0-0.2,0-0.3,0c-0.1,0-0.2,0-0.3,0
		s-0.2,0-0.3,0.1s-0.1,0.1-0.2,0.2c-0.1,0.1-0.1,0.2-0.1,0.3c0,0.1,0,0.1,0,0.2c0,0.1,0.1,0.1,0.1,0.1c0,0,0.1,0.1,0.2,0.1
		s0.1,0,0.2,0c0.1,0,0.3,0,0.4-0.1s0.2-0.1,0.3-0.2c0.1-0.1,0.1-0.1,0.1-0.2c0-0.1,0-0.1,0-0.2V570C410.1,570,410.1,570,410,570z"/>
	<path style="fill:#FF6600;" d="M411.8,568.6v0.4h0c0.2-0.3,0.5-0.5,0.9-0.5c0.2,0,0.3,0,0.5,0.1s0.2,0.2,0.3,0.4
		c0.1-0.1,0.2-0.3,0.4-0.3c0.1-0.1,0.3-0.1,0.5-0.1c0.1,0,0.3,0,0.4,0c0.1,0,0.2,0.1,0.3,0.1c0.1,0.1,0.1,0.1,0.2,0.2
		c0,0.1,0.1,0.2,0.1,0.4v2h-0.5v-1.8c0-0.1,0-0.2,0-0.2c0-0.1,0-0.1-0.1-0.2c0-0.1-0.1-0.1-0.2-0.1c-0.1,0-0.2,0-0.3,0
		c-0.2,0-0.4,0.1-0.5,0.2c-0.1,0.1-0.2,0.3-0.2,0.5v1.7H413v-1.8c0-0.1,0-0.2,0-0.2s0-0.1-0.1-0.2s-0.1-0.1-0.2-0.1
		c-0.1,0-0.1,0-0.3,0c-0.1,0-0.2,0-0.3,0.1c-0.1,0.1-0.2,0.1-0.2,0.2c-0.1,0.1-0.1,0.2-0.1,0.2s0,0.1,0,0.2v1.7h-0.5v-2.7H411.8z"/>
	<path style="fill:#FF6600;" d="M418,571.4c-0.1,0-0.2,0-0.3-0.1c-0.1-0.1-0.1-0.2-0.1-0.3c-0.1,0.1-0.3,0.3-0.4,0.3
		c-0.2,0.1-0.3,0.1-0.5,0.1c-0.1,0-0.2,0-0.3,0c-0.1,0-0.2-0.1-0.3-0.1c-0.1-0.1-0.1-0.1-0.2-0.2c0-0.1-0.1-0.2-0.1-0.4
		c0-0.2,0-0.3,0.1-0.4c0.1-0.1,0.1-0.2,0.2-0.2c0.1-0.1,0.2-0.1,0.3-0.1c0.1,0,0.2-0.1,0.3-0.1c0.1,0,0.2,0,0.4-0.1
		c0.1,0,0.2,0,0.3-0.1c0.1,0,0.2-0.1,0.2-0.1c0,0,0.1-0.1,0.1-0.2c0-0.1,0-0.2-0.1-0.2s-0.1-0.1-0.1-0.1c-0.1,0-0.1-0.1-0.2-0.1
		c-0.1,0-0.1,0-0.2,0c-0.2,0-0.3,0-0.5,0.1s-0.2,0.2-0.2,0.4h-0.5c0-0.2,0-0.3,0.1-0.4s0.1-0.2,0.3-0.3c0.1-0.1,0.2-0.1,0.4-0.2
		s0.3,0,0.4,0c0.1,0,0.2,0,0.4,0s0.2,0.1,0.3,0.1s0.2,0.1,0.2,0.2c0.1,0.1,0.1,0.2,0.1,0.4v1.4c0,0.1,0,0.2,0,0.2
		c0,0,0.1,0.1,0.1,0.1c0,0,0.1,0,0.1,0v0.3C418.2,571.4,418.1,571.4,418,571.4z M417.3,570c-0.1,0-0.2,0-0.3,0c-0.1,0-0.2,0-0.3,0
		s-0.2,0-0.3,0.1s-0.1,0.1-0.2,0.2c-0.1,0.1-0.1,0.2-0.1,0.3c0,0.1,0,0.1,0,0.2c0,0.1,0.1,0.1,0.1,0.1c0,0,0.1,0.1,0.2,0.1
		s0.1,0,0.2,0c0.1,0,0.3,0,0.4-0.1s0.2-0.1,0.3-0.2c0.1-0.1,0.1-0.1,0.1-0.2c0-0.1,0-0.1,0-0.2V570C417.5,570,417.4,570,417.3,570z"
		/>
	<path style="fill:#FF6600;" d="M419.4,570.8v0.6h-0.6v-0.6H419.4z"/>
	<path style="fill:#FF6600;" d="M421.8,569.1c-0.1-0.1-0.3-0.1-0.5-0.1c-0.2,0-0.3,0-0.4,0.1s-0.2,0.1-0.3,0.2s-0.1,0.2-0.1,0.3
		s0,0.3,0,0.4c0,0.1,0,0.3,0,0.4c0,0.1,0.1,0.2,0.1,0.3s0.1,0.2,0.2,0.2c0.1,0.1,0.2,0.1,0.4,0.1c0.2,0,0.4-0.1,0.5-0.2
		c0.1-0.1,0.2-0.3,0.2-0.5h0.5c0,0.3-0.2,0.6-0.4,0.8s-0.5,0.3-0.8,0.3c-0.2,0-0.4,0-0.6-0.1c-0.2-0.1-0.3-0.2-0.4-0.3
		c-0.1-0.1-0.2-0.3-0.2-0.4c-0.1-0.2-0.1-0.4-0.1-0.6c0-0.2,0-0.4,0.1-0.6c0.1-0.2,0.1-0.3,0.2-0.5c0.1-0.1,0.2-0.2,0.4-0.3
		s0.4-0.1,0.6-0.1c0.2,0,0.3,0,0.4,0.1s0.3,0.1,0.4,0.2c0.1,0.1,0.2,0.2,0.3,0.3c0.1,0.1,0.1,0.3,0.1,0.4H422
		C422,569.3,421.9,569.2,421.8,569.1z"/>
	<path style="fill:#FF6600;" d="M423,569.4c0.1-0.2,0.1-0.3,0.3-0.5c0.1-0.1,0.3-0.2,0.4-0.3s0.4-0.1,0.6-0.1c0.2,0,0.4,0,0.6,0.1
		s0.3,0.2,0.4,0.3c0.1,0.1,0.2,0.3,0.3,0.5c0.1,0.2,0.1,0.4,0.1,0.6s0,0.4-0.1,0.6c-0.1,0.2-0.1,0.3-0.3,0.5
		c-0.1,0.1-0.3,0.2-0.4,0.3s-0.4,0.1-0.6,0.1c-0.2,0-0.4,0-0.6-0.1s-0.3-0.2-0.4-0.3c-0.1-0.1-0.2-0.3-0.3-0.5
		c-0.1-0.2-0.1-0.4-0.1-0.6S422.9,569.6,423,569.4z M423.4,570.4c0,0.1,0.1,0.2,0.2,0.3c0.1,0.1,0.2,0.2,0.3,0.2
		c0.1,0,0.2,0.1,0.3,0.1c0.1,0,0.2,0,0.3-0.1c0.1,0,0.2-0.1,0.3-0.2c0.1-0.1,0.1-0.2,0.2-0.3c0-0.1,0.1-0.3,0.1-0.4s0-0.3-0.1-0.4
		c0-0.1-0.1-0.2-0.2-0.3c-0.1-0.1-0.2-0.2-0.3-0.2c-0.1,0-0.2-0.1-0.3-0.1c-0.1,0-0.2,0-0.3,0.1c-0.1,0-0.2,0.1-0.3,0.2
		c-0.1,0.1-0.1,0.2-0.2,0.3s-0.1,0.3-0.1,0.4S423.4,570.3,423.4,570.4z"/>
	<path style="fill:#FF6600;" d="M426.5,568.6v0.4h0c0.2-0.3,0.5-0.5,0.9-0.5c0.2,0,0.3,0,0.5,0.1s0.2,0.2,0.3,0.4
		c0.1-0.1,0.2-0.3,0.4-0.3c0.1-0.1,0.3-0.1,0.5-0.1c0.1,0,0.3,0,0.4,0c0.1,0,0.2,0.1,0.3,0.1c0.1,0.1,0.1,0.1,0.2,0.2
		c0,0.1,0.1,0.2,0.1,0.4v2h-0.5v-1.8c0-0.1,0-0.2,0-0.2c0-0.1,0-0.1-0.1-0.2c0-0.1-0.1-0.1-0.2-0.1c-0.1,0-0.2,0-0.3,0
		c-0.2,0-0.4,0.1-0.5,0.2c-0.1,0.1-0.2,0.3-0.2,0.5v1.7h-0.5v-1.8c0-0.1,0-0.2,0-0.2s0-0.1-0.1-0.2s-0.1-0.1-0.2-0.1
		c-0.1,0-0.1,0-0.3,0c-0.1,0-0.2,0-0.3,0.1c-0.1,0.1-0.2,0.1-0.2,0.2c-0.1,0.1-0.1,0.2-0.1,0.2s0,0.1,0,0.2v1.7h-0.5v-2.7H426.5z"/>
</g>
<g>
	<path style="fill:#FF6600;" d="M408.7,283.2c-1,0.3-2.1,0.6-3.3,0.9c-1.1-1.2-2.1-2.3-3.2-3.4c-0.8-0.7-1.4-1.2-1.7-1.4l2.3-1.9
		c0.6,0.5,1.3,0.8,2.1,0.8h4.6v-1.8h2.9v4.8h-5.9c0.2,0.2,0.5,0.5,1,0.9C408.1,282.6,408.5,283,408.7,283.2z M418.5,286.5v3.3h-5
		v4.7h-3.1v-4.7h-6.7v5.3h-2.9v-12.6h2.9v4H418.5z M418.7,280.1c-1.3,1.2-2.5,2.2-3.3,3l-2-2.6c0.1-0.1,0.3-0.2,0.5-0.3
		c1.2-1,2.2-1.9,3-2.6L418.7,280.1z"/>
	<path style="fill:#FF6600;" d="M411.7,296.7v7.1c0.8,0.1,1.8,0.1,2.9,0.1v-6.1h3v16h-3v-6.4c-0.4,0-0.9,0-1.5-0.1
		c-0.6,0-1.1,0-1.4,0v7.5h-3v-7.2c-2.7,1-4.5,3.6-5.4,7.6c-1-0.7-2.1-1.3-3.1-1.9c1.2-4,3.1-6.6,5.6-7.6c-2.3-1-4.3-3.5-5.8-7.5
		c1.1-0.7,2.1-1.3,2.8-1.9c1.5,4.3,3.5,6.7,5.9,7.2v-6.8H411.7z"/>
	<path style="fill:#FF6600;" d="M417.6,316.4v18.5h-3.2v-8.1h-3.7l1.7,1.5c-1.6,2.2-3.1,4.3-4.6,6.2l-2.7-2.2c1.7-2,3.2-3.8,4.3-5.4
		h-9.2v-3.6h14.2v-6.7H417.6z"/>
	<path style="fill:#FF6600;" d="M408,338.6l-1.2,2.9c-0.7-0.2-1.8-0.6-3.3-1.1c-1.6-0.5-2.8-0.9-3.6-1.2l1.2-2.9
		C404,337.3,406.2,338,408,338.6z M411,353.8H408c-1.6-1.1-2.9-2.2-4-3.3c-0.5,1.2-0.9,2.8-1.2,4.6c-0.4-0.3-1-0.6-2-1.2
		c-0.3-0.2-0.5-0.3-0.7-0.4c0.6-2.4,1.2-4.4,2-5.8c-0.9-1.7-1.6-3.6-2.1-5.7c0.3-0.2,0.6-0.4,1.1-0.6c0.7-0.4,1.2-0.7,1.6-0.9
		c0.4,1.8,0.9,3.2,1.3,4.3c0.9-0.8,1.9-1.7,3-2.6l1.2,1.9v-2.4h2.7V353.8z M408.2,344.9c-1.1,0.9-2,1.8-2.7,2.7
		c0.7,0.9,1.6,1.8,2.7,2.6V344.9z M413.6,338.1c-0.5,0.6-1.2,1.5-2.2,2.6c-0.3,0.3-0.5,0.5-0.6,0.7l-2.5-2.2c0.8-0.8,1.8-1.8,3-3.2
		L413.6,338.1z M414.4,353.3v1.6c-0.9-0.2-1.8-0.3-2.6-0.5c0-0.2,0-0.5,0-1c-0.1-0.6-0.1-1.1-0.1-1.6c-0.1-1.7,0.7-2.5,2.3-2.5h1.2
		v-3.3c-1.8,0-3.2-1.1-4.3-3.2c0.7-0.7,1.4-1.4,2.1-2.1c0.8,1.8,1.9,2.6,3.3,2.4h1.6v9.2h-2.8C414.7,352.3,414.4,352.6,414.4,353.3z
		 M418.6,338.7c-0.9,1.2-1.8,2.3-2.7,3.3l-2.4-2.2c1-0.9,1.9-2,2.9-3.1L418.6,338.7z"/>
	<path style="fill:#FF6600;" d="M400.1,362.1V359h7.2c-0.4-0.3-0.8-0.8-1.4-1.5c-0.2-0.3-0.4-0.4-0.5-0.5c0.7-0.2,1.8-0.6,3.3-1.1
		c1.8,2,3.5,3.5,5.3,4.4v-4.1h2.8v5.4c0.3,0.1,0.6,0.2,1.2,0.4c0.3,0.1,0.5,0.2,0.7,0.2l-0.2,3.6c-0.5-0.2-1.1-0.4-1.6-0.6v9.5h-2.8
		v-10.8c-0.2-0.1-0.5-0.3-0.8-0.5l-0.2-0.1v9.7H403c-1.9,0.2-2.8-0.8-2.8-2.9c-0.1-0.9-0.1-2.1-0.1-3.5c1-0.2,1.9-0.4,2.6-0.7
		c0,0.9,0,1.8,0,2.6c-0.1,0.9,0.3,1.4,1.1,1.4v-7.8H400.1z M407.1,362.1h-0.9v7.8h0.9V362.1z M410.5,362.1h-1v7.8h1V362.1z"/>
	<path style="fill:#FF6600;" d="M418.3,391.2c-0.3,0.1-0.7,0.2-1.4,0.4c-0.6,0.2-1.1,0.3-1.4,0.4v2.3H413v-2.9h-1.5v2.6H409v-2.6
		h-1.6v2.6H405v-2.6h-1.6v3h-2.3v-8H400v-2.9h3.1l-1.3-2.1c0.3-0.3,0.8-0.6,1.6-1c0.6-0.3,1-0.5,1.2-0.7c-1.3-0.7-2.7-1.7-4.1-2.9
		c0.5-0.2,1.1-0.5,1.9-0.8c0.6-0.2,1-0.4,1.2-0.5c1.2,1.1,2.5,1.9,3.9,2.6c0.4-0.3,1-0.6,1.9-1.1c1.1-0.7,2-1.2,2.6-1.6l1.4,2.2
		c-0.9,0.6-1.8,1.1-2.6,1.6c1.1,0.3,2.3,0.5,3.6,0.5V376h2.8v6.7c-1.7-0.1-3.3-0.2-4.7-0.5c1.8,1.1,3.9,2,6.3,2.6l-0.5,3.1
		c-1-0.3-1.9-0.6-2.8-0.9v1.9c0.8-0.2,1.6-0.4,2.5-0.7L418.3,391.2z M405,386.5h-1.6v2.2h1.6V386.5z M408.3,382.8
		c1-0.2,1.9-0.4,2.6-0.7c-1.1-0.2-2.2-0.4-3.3-0.9c-0.6,0.3-1.3,0.8-2.3,1.4c-0.8,0.5-1.3,0.8-1.7,1h5.8
		C409.1,383.4,408.7,383.1,408.3,382.8z M409,386.5h-1.6v2.2h1.6V386.5z M413,386.5h-1.5v2.2h1.5V386.5z"/>
	<path style="fill:#FF6600;" d="M418.6,408.5l-0.5,2.9c-0.9-0.2-1.9-0.5-2.8-0.9v4h-2.7v-0.7c-3.2-0.2-5.7-0.8-7.5-1.7
		c-0.7,0.7-1.5,1.5-2.2,2.4c-1-0.5-1.9-1-2.7-1.4c0.8-1.1,1.6-2,2.4-2.6c-0.9-0.9-1.8-1.9-2.6-3c0.8-0.5,1.5-0.9,2.2-1.4v-2.9h-0.9
		v-2.6h9.2v1.7h2.3v-1.9h2.7v1.9h3.2v2.9h-3.2v1.6h-2.5C414.5,407.5,416.4,408.1,418.6,408.5z M400.2,399.7V397h8
		c-0.6-0.3-1.1-0.6-1.6-0.9c1.4-0.2,2.8-0.4,4.1-0.6c1.9,0.9,4.5,1.7,7.8,2.6l-0.5,2.9c-1.3-0.4-2.6-0.8-3.9-1.2H400.2z
		 M405.1,408.8c1.2-0.5,2.7-0.9,4.3-1.2c-0.1-0.1-0.2-0.1-0.3-0.2c-0.2-0.2-0.3-0.3-0.4-0.3c0.2-0.1,0.4-0.1,0.7-0.2
		c0.3-0.1,0.4-0.2,0.5-0.2H403C403.8,407.5,404.5,408.2,405.1,408.8z M407.7,403.1h-3.3v1.1h3.3V403.1z M412.6,409.6
		c-1.9,0.1-3.4,0.3-4.7,0.8c1.2,0.4,2.8,0.6,4.7,0.8V409.6z M411.7,406.2c0.3,0.2,0.6,0.3,0.9,0.4v-1.5h-2.3v1.5
		C410.7,406.4,411.2,406.3,411.7,406.2z"/>
	<path style="fill:#FF6600;" d="M404.2,433.7c-2.5,0-3.7-1.1-3.8-3.4c-0.1-0.9-0.1-2.1-0.1-3.6c0.2-0.1,0.5-0.1,0.9-0.2
		c0.6-0.1,1.3-0.3,2.1-0.5c-0.1,0.6-0.1,1.6-0.1,2.8c-0.1,1.1,0.4,1.7,1.6,1.7c0.5,0,1.6,0,3.3,0c2.2,0.1,3.7,0.1,4.6,0.1v-2.7
		c-0.8-0.3-1.6-0.7-2.4-1.1c0.4-0.8,0.9-1.6,1.3-2.4h-11.2v-3h1.1v-2.2h-1.2v-3h15.4v2.2c1,0.3,2,0.4,2.9,0.5l-0.4,3.4
		c-0.2-0.1-0.4-0.1-0.6-0.2c-0.6-0.1-1.2-0.3-1.9-0.5v2.8h-3.3c2.2,1,4.3,1.8,6.2,2.3l-0.7,3.1c-0.3-0.1-0.6-0.2-1.1-0.3
		c-0.5-0.2-0.9-0.3-1.2-0.4v4.7C410,433.8,406.2,433.7,404.2,433.7z M407.1,419.2h-2.7v2.2h2.7V419.2z M410.6,427.5
		c-0.6,0.5-1.4,1.1-2.6,2c-0.5,0.4-0.9,0.6-1.2,0.9l-1.7-2.6c1.7-1.1,3-2,4-2.7L410.6,427.5z M412.7,419.2H410v2.2h2.7V419.2z"/>
	<path style="fill:#FF6600;" d="M400.1,445.3v-3h9.5c-0.3-0.2-0.6-0.5-1-0.8c0.2,0,0.5,0,0.8-0.1c0.4-0.1,0.6-0.1,0.8-0.2
		c-1.1,0-2,0-2.7,0c-0.2-0.4-0.3-0.8-0.3-1.2h-4.5c-1.5,0.1-2.3-0.6-2.3-2c-0.1-0.7-0.2-1.4-0.2-2.2c0.1,0,0.2,0,0.4-0.1
		c0.7-0.1,1.5-0.3,2.4-0.5v1.2c0,0.5,0.3,0.7,0.8,0.6h2.6c-0.2-0.5-0.3-1.1-0.5-1.7l3.3-0.2c0,0.1,0,0.2,0.1,0.4
		c0.1,0.4,0.2,0.9,0.3,1.6h3.3v-1.6h2.8v1.6h3.1v2.9h-3.1v1.3h-2.3c1.3,0.9,3.2,1.6,5.6,2.2l-0.4,3.3c-0.3-0.1-0.8-0.3-1.4-0.5
		c-0.7-0.3-1.2-0.4-1.5-0.5v2.3c0.8-0.3,1.7-0.5,2.6-0.9l0.3,3.1c-0.2,0.1-0.4,0.1-0.7,0.2c-0.5,0.2-1.2,0.4-2.2,0.6v2.6H413v-3.1
		h-1.6v2.9h-2.5v-2.9h-1.5v2.9H405v-2.9h-1.6v3.3H401v-8.8H400.1z M405,445.3h-1.6v2.5h1.6V445.3z M408.9,445.3h-1.5v2.5h1.5V445.3z
		 M410.1,440.1c0.1,0.3,0.2,0.7,0.2,1.1c0.6-0.1,1.2-0.2,1.8-0.4c0.2,0.2,0.3,0.3,0.5,0.3v-1H410.1z M413,445.3h-1.6v2.5h1.6V445.3z
		"/>
	<path style="fill:#FF6600;" d="M409.8,460.3c-2.5,0-4.4-0.2-5.7-0.5c-1.2-0.3-2.6-0.9-4.1-1.8c0.7-0.9,1.4-1.9,2.2-2.9
		c1.1,0.8,2.1,1.3,3.1,1.6c0.9,0.2,2.5,0.3,4.6,0.3h6.7v6.7c0.4-0.1,1-0.3,1.8-0.5c0.2-0.1,0.3-0.1,0.3-0.1l0.2,4.2
		c-0.2,0.1-0.6,0.2-1.1,0.3c-0.6,0.1-1,0.2-1.2,0.2v6.1h-3.1v-13.6H409.8z"/>
</g>
<rect x="511.8" y="152" style="fill:none;stroke:#999999;stroke-miterlimit:10;" width="300.2" height="439.6"/>
<g>
	<defs>
		<rect id="SVGID_3_" x="4.3" y="153" width="300.2" height="438.9"/>
	</defs>
	<clipPath id="SVGID_4_">
		<use xlink:href="#SVGID_3_"  style="overflow:visible;"/>
	</clipPath>
	<rect x="8.3" y="143.5" style="clip-path:url(#SVGID_4_);fill:#FFFFFF;" width="300.2" height="454.5"/>
</g>
<g>
	<g id="形状_2_copy_3_副本_4_49_">
		<g>
			<path style="fill-rule:evenodd;clip-rule:evenodd;fill:#CCCCCC;" d="M183.5,235.1c-1.7,3.3-3.2,6.2-4.9,9.7h2.4
				c0.4-0.8,0.7-1.3,1.2-2.3c1.2,0,2.2,0,3.4,0c-0.3-0.7-0.4-1.3-0.6-1.8H183c0.6-1.1,0.9-1.7,1.7-3.2c0.9,2.5,1.8,5.1,2.6,7.4h2.2
				c-1.2-3.4-2.3-6.3-3.4-9.7H183.5z M190,244.8h2.1l0.4-9.7l-2,0L190,244.8z M193.3,244.8h2.2l0.3-7.2h-2.1L193.3,244.8z
				 M193.7,235.1l-0.1,1.6c0,0,1.6,0,2,0l0.1-1.6C194,235.1,193.9,235.1,193.7,235.1z M207,237.6c-0.4-0.1-0.8-0.2-1.2-0.2
				c-0.2,0-0.5,0-0.7,0.1c-0.2,0-0.4,0.1-0.6,0.2c-0.2,0.1-0.3,0.2-0.5,0.3c-0.1,0.1-0.3,0.2-0.4,0.3c-0.1,0.1-0.2,0.3-0.3,0.4
				c-0.1-0.2-0.2-0.4-0.3-0.5c-0.1-0.1-0.2-0.2-0.3-0.3c-0.1-0.1-0.3-0.2-0.4-0.3c-0.2-0.1-0.3-0.1-0.5-0.2c-0.2,0-0.4-0.1-0.6-0.1
				c-0.3,0-0.6,0-0.8,0.1c-0.3,0.1-0.5,0.2-0.7,0.3c-0.2,0.1-0.4,0.2-0.5,0.4c-0.1,0.1-0.3,0.3-0.4,0.5l0.1-1.1h-1.9l-0.3,7.2
				c0,0,1.6,0,2,0c0-0.6,0-1.5,0.1-2.5c0.1-1.1,0.1-1.8,0.3-2.1c0.1-0.4,0.3-0.7,0.6-0.9c0.3-0.2,0.5-0.3,0.9-0.3
				c0.2,0,0.3,0,0.5,0.1c0.1,0.1,0.3,0.2,0.4,0.3c0.1,0.1,0.2,0.3,0.2,0.4c0,0.1,0.1,0.3,0.1,0.5c0,0.4,0,1.2-0.1,2.3
				c-0.1,1.1-0.1,1.9-0.1,2.2c0.4,0,1.6,0,2,0l0-2c0-0.7,0.1-1.3,0.1-1.7c0-0.4,0.1-0.8,0.2-1c0.1-0.2,0.2-0.5,0.3-0.6
				c0.1-0.2,0.3-0.3,0.5-0.4c0.2-0.1,0.4-0.1,0.6-0.1c0.2,0,0.4,0,0.6,0.1c0.2,0.1,0.3,0.2,0.4,0.4c0.1,0.2,0.2,0.4,0.2,0.8
				c0,0.3,0,0.6,0,1l-0.1,1.6c0,0.7-0.1,1.3-0.1,1.9c0.4,0,1.7,0,2,0c0-0.5,0-1.3,0.1-2.3c0-1,0.1-1.7,0.1-2.2c0-0.4,0-0.8,0-1
				c0-0.4-0.1-0.8-0.3-1.1C207.6,237.9,207.3,237.7,207,237.6z M214.7,237.6c-0.4-0.1-0.9-0.2-1.4-0.2c-0.5,0-0.9,0-1.4,0.1
				c-0.5,0.1-1.7,0.3-1.7,0.3l-0.2,1.3c0,0,2-0.6,2.9-0.6c0.2,0,0.4,0,0.6,0.1c0.2,0,0.3,0.1,0.5,0.3c0.1,0.1,0.2,0.3,0.2,0.5
				c0,0.1,0,0.2-0.1,0.3c0,0.1-0.1,0.2-0.2,0.3c-0.1,0.1-0.2,0.2-0.3,0.2c-0.1,0.1-0.3,0.1-0.5,0.2c-0.2,0.1-0.4,0.1-0.6,0.1
				c-0.7,0.1-1.2,0.3-1.6,0.4c-0.4,0.1-0.7,0.3-1,0.4c-0.2,0.2-0.4,0.3-0.5,0.5c-0.1,0.2-0.2,0.3-0.3,0.5c-0.1,0.2-0.1,0.4-0.1,0.6
				c0,0.4,0.1,0.7,0.3,1.1c0.2,0.4,0.5,0.6,0.9,0.8c0.4,0.2,0.9,0.2,1.5,0.2c0.2,0,0.4,0,0.6,0c0.2,0,0.5,0,0.8-0.1
				c0.1-0.5,0.2-0.9,0.3-1.2c-0.3,0.1-0.5,0.2-0.7,0.2c-0.2,0-0.3,0-0.5,0c-0.2,0-0.4,0-0.6-0.1c-0.2-0.1-0.3-0.2-0.4-0.3
				c-0.1-0.1-0.2-0.3-0.2-0.5c0-0.1,0-0.2,0.1-0.3c0-0.1,0.1-0.2,0.2-0.3c0.1-0.1,0.2-0.2,0.4-0.3c0.1-0.1,0.3-0.1,0.5-0.2
				c0.2-0.1,0.4-0.1,0.7-0.2c0.3-0.1,0.5-0.1,0.6-0.2c0.1,0,0.2-0.1,0.3-0.1c0.1,0,0.2-0.1,0.4-0.2l-0.2,3.8h2c0,0,0.1-2.3,0.1-3.4
				c0.1-1.1,0.1-1.8,0.1-2.1c0-0.5-0.1-0.9-0.4-1.1C215.4,237.9,215.1,237.7,214.7,237.6z M227.4,237.6c-0.4-0.1-0.8-0.2-1.2-0.2
				c-0.2,0-0.5,0-0.7,0.1c-0.2,0-0.4,0.1-0.6,0.2c-0.2,0.1-0.3,0.2-0.5,0.3c-0.1,0.1-0.3,0.2-0.4,0.3c-0.1,0.1-0.2,0.3-0.3,0.4
				c-0.1-0.2-0.2-0.4-0.3-0.5c-0.1-0.1-0.2-0.2-0.3-0.3c-0.1-0.1-0.3-0.2-0.4-0.3c-0.2-0.1-0.3-0.1-0.5-0.2c-0.2,0-0.4-0.1-0.6-0.1
				c-0.3,0-0.6,0-0.8,0.1c-0.3,0.1-0.5,0.2-0.7,0.3c-0.2,0.1-0.4,0.2-0.5,0.4c-0.1,0.1-0.3,0.3-0.4,0.5l0.1-1.1h-1.9l-0.3,7.2h2
				c0,0,0-1.5,0.1-2.5c0.1-1.1,0.1-1.8,0.3-2.1c0.1-0.4,0.3-0.7,0.6-0.9c0.3-0.2,0.5-0.3,0.9-0.3c0.2,0,0.3,0,0.5,0.1
				c0.1,0.1,0.3,0.2,0.4,0.3c0.1,0.1,0.2,0.3,0.2,0.4c0,0.1,0.1,0.3,0.1,0.5c0,0.4,0,1.2-0.1,2.3c-0.1,1.1-0.1,1.9-0.1,2.2
				c0.4,0,1.6,0,2,0l0-2c0-0.7,0.1-1.3,0.1-1.7c0-0.4,0.1-0.8,0.2-1c0.1-0.2,0.2-0.5,0.3-0.6c0.2-0.2,0.3-0.3,0.5-0.4
				c0.2-0.1,0.4-0.1,0.6-0.1c0.2,0,0.4,0,0.6,0.1c0.2,0.1,0.3,0.2,0.4,0.4c0.1,0.2,0.2,0.4,0.2,0.8c0,0.3,0,0.6,0,1l-0.1,1.6
				c0,0.7-0.1,1.3-0.1,1.9c0.4,0,1.7,0,2,0c0-0.5,0-1.3,0.1-2.3c0-1,0.1-1.7,0.1-2.2c0-0.4,0-0.8,0-1c0-0.4-0.1-0.8-0.3-1.1
				C228,237.9,227.8,237.7,227.4,237.6z M235.1,237.6c-0.4-0.1-0.9-0.2-1.4-0.2c-0.5,0-0.9,0-1.4,0.1c-0.5,0.1-1.7,0.3-1.7,0.3
				l-0.2,1.3c0,0,2-0.6,2.9-0.6c0.2,0,0.4,0,0.6,0.1c0.2,0,0.4,0.1,0.5,0.3c0.1,0.1,0.2,0.3,0.2,0.5c0,0.1,0,0.2-0.1,0.3
				c0,0.1-0.1,0.2-0.2,0.3c-0.1,0.1-0.2,0.2-0.3,0.2c-0.1,0.1-0.3,0.1-0.5,0.2c-0.2,0.1-0.4,0.1-0.6,0.1c-0.7,0.1-1.2,0.3-1.6,0.4
				c-0.4,0.1-0.7,0.3-1,0.4c-0.2,0.2-0.4,0.3-0.5,0.5c-0.1,0.2-0.2,0.3-0.3,0.5c-0.1,0.2-0.1,0.4-0.1,0.6c0,0.4,0.1,0.7,0.3,1.1
				c0.2,0.4,0.5,0.6,0.9,0.8c0.4,0.2,0.9,0.2,1.5,0.2c0.2,0,0.4,0,0.6,0c0.2,0,0.5,0,0.8-0.1c0.1-0.5,0.2-0.9,0.4-1.2
				c-0.3,0.1-0.5,0.2-0.7,0.2c-0.2,0-0.3,0-0.5,0c-0.2,0-0.4,0-0.6-0.1c-0.2-0.1-0.3-0.2-0.4-0.3c-0.1-0.1-0.2-0.3-0.2-0.5
				c0-0.1,0-0.2,0.1-0.3c0-0.1,0.1-0.2,0.2-0.3c0.1-0.1,0.2-0.2,0.4-0.3c0.1-0.1,0.3-0.1,0.5-0.2c0.2-0.1,0.4-0.1,0.7-0.2
				c0.3-0.1,0.5-0.1,0.6-0.2c0.1,0,0.2-0.1,0.3-0.1c0.1,0,0.2-0.1,0.4-0.2l-0.2,3.8h2c0,0,0.1-2.3,0.1-3.4c0.1-1.1,0.1-1.8,0.1-2.1
				c0-0.5-0.1-0.9-0.4-1.1C235.9,237.9,235.5,237.7,235.1,237.6z M237.4,242.9c0,0.9-0.1,1.6-0.1,1.9c0.7,0,2,0,2,0s0.1-1.6,0.1-1.9
				C238.9,242.9,237.4,242.9,237.4,242.9z M242.7,239.5c0.2-0.2,0.5-0.4,0.7-0.5c0.3-0.1,0.6-0.2,0.9-0.2c0.5,0,1.1,0.1,1.9,0.4
				l-0.1-1.6c-0.4-0.1-0.8-0.2-1.2-0.2c-0.3,0-0.6-0.1-1-0.1c-0.6,0-1.1,0.1-1.5,0.2c-0.5,0.1-0.9,0.4-1.2,0.7
				c-0.4,0.3-0.7,0.8-0.8,1.4c-0.2,0.5-0.3,1.1-0.3,1.7c0,0.5,0.1,0.9,0.2,1.3c0.1,0.4,0.3,0.8,0.5,1.1c0.2,0.3,0.5,0.5,0.8,0.7
				c0.3,0.2,0.6,0.3,1,0.4c0.4,0.1,0.7,0.1,1.1,0.1c0.7,0,1.3-0.1,2-0.2c0.1-0.4,0.1-0.7,0.2-0.9c0-0.2,0.1-0.5,0.1-0.7
				c-0.3,0.1-0.7,0.2-1,0.3c-0.3,0.1-0.6,0.1-0.8,0.1c-0.4,0-0.8-0.1-1.2-0.3c-0.3-0.2-0.6-0.4-0.7-0.8c-0.1-0.3-0.2-0.7-0.2-1.2
				c0-0.3,0-0.6,0.1-0.9C242.3,240,242.5,239.8,242.7,239.5z M253.5,238.4c-0.4-0.3-0.8-0.6-1.3-0.7c-0.5-0.2-1-0.2-1.6-0.2
				c-0.6,0-1.2,0.1-1.7,0.3c-0.6,0.2-1,0.5-1.4,0.9c-0.4,0.4-0.6,0.8-0.8,1.3c-0.2,0.5-0.3,1-0.3,1.5c0,0.5,0.1,1,0.3,1.5
				c0.2,0.5,0.5,0.9,0.8,1.2c0.4,0.3,0.8,0.6,1.3,0.7c0.5,0.2,1,0.2,1.6,0.2c0.6,0,1.2-0.1,1.7-0.3c0.5-0.2,1-0.5,1.3-0.8
				c0.4-0.4,0.6-0.8,0.8-1.3c0.2-0.5,0.3-1,0.3-1.6c0-0.5-0.1-1-0.3-1.5C254.2,239.1,253.9,238.7,253.5,238.4z M252.3,242.3
				c-0.2,0.4-0.4,0.7-0.7,0.9c-0.3,0.2-0.7,0.3-1.1,0.3c-0.4,0-0.8-0.1-1.1-0.3c-0.3-0.2-0.5-0.5-0.6-0.8c-0.1-0.3-0.2-0.7-0.2-1.1
				c0-0.5,0.1-0.9,0.2-1.3c0.2-0.4,0.4-0.7,0.7-0.9c0.3-0.2,0.7-0.3,1.1-0.3c0.4,0,0.8,0.1,1.1,0.3c0.3,0.2,0.5,0.5,0.6,0.8
				c0.1,0.3,0.2,0.7,0.2,1.1C252.6,241.5,252.5,241.9,252.3,242.3z M266.3,238.2c-0.2-0.3-0.5-0.5-0.9-0.6c-0.4-0.1-0.8-0.2-1.2-0.2
				c-0.2,0-0.5,0-0.7,0.1c-0.2,0-0.4,0.1-0.6,0.2c-0.2,0.1-0.3,0.2-0.5,0.3c-0.1,0.1-0.3,0.2-0.4,0.3c-0.1,0.1-0.2,0.3-0.3,0.4
				c-0.1-0.2-0.2-0.4-0.3-0.5c-0.1-0.1-0.2-0.2-0.3-0.3c-0.1-0.1-0.3-0.2-0.4-0.3c-0.2-0.1-0.3-0.1-0.5-0.2c-0.2,0-0.4-0.1-0.6-0.1
				c-0.3,0-0.6,0-0.8,0.1c-0.3,0.1-0.5,0.2-0.7,0.3c-0.2,0.1-0.4,0.2-0.5,0.4c-0.1,0.1-0.3,0.3-0.4,0.5l0.1-1.1c-0.3,0-1.5,0-1.9,0
				c0,0.8-0.3,6.4-0.3,7.2c0.4,0,1.6,0,2,0c0-0.6,0-1.5,0.1-2.5c0.1-1.1,0.1-1.8,0.3-2.1c0.1-0.4,0.3-0.7,0.6-0.9
				c0.3-0.2,0.5-0.3,0.9-0.3c0.2,0,0.3,0,0.5,0.1c0.1,0.1,0.3,0.2,0.4,0.3c0.1,0.1,0.2,0.3,0.2,0.4c0,0.1,0,0.3,0,0.5
				c0,0.4,0,1.2-0.1,2.3c-0.1,1.1-0.1,1.9-0.1,2.2c0.4,0,1.6,0,2,0l0-2c0-0.7,0.1-1.3,0.1-1.7c0-0.4,0.1-0.8,0.2-1
				c0.1-0.2,0.2-0.5,0.3-0.6c0.1-0.2,0.3-0.3,0.5-0.4c0.2-0.1,0.4-0.1,0.6-0.1c0.2,0,0.4,0,0.6,0.1c0.2,0.1,0.3,0.2,0.4,0.4
				c0.1,0.2,0.2,0.4,0.2,0.8c0,0.3,0,0.6,0,1l-0.1,1.6c0,0.7-0.1,1.3-0.1,1.9c0.4,0,1.7,0,2,0c0-0.5,0-1.3,0.1-2.3
				c0-1,0.1-1.7,0.1-2.2c0-0.4,0-0.8,0-1C266.6,238.9,266.5,238.5,266.3,238.2z"/>
		</g>
	</g>
	<g id="形状_2_copy_3_副本_5_49_">
		<g>
			<path style="fill-rule:evenodd;clip-rule:evenodd;fill:#FF6600;" d="M187.2,214.8c3,0,6,0,9.1,0c0,4.5,0,9.2,0,13.4
				c0,0.3-0.3,0.7-0.7,0.7c-0.5,0-0.7,0-1.3,0v2.2c0.7,0,1.3,0,2,0c1.7,0,2.9-0.9,2.9-2.3c0-3.5,0-10.4,0-13.9h1v-2.1h-13V214.8z
				 M233.5,224.5c-0.8,0-2.1,0.8-2.1,2.1c2.6,0,6.8-0.1,9.7-0.1c0,0.5,0,1.1,0,1.7c1,0,0.6,0,1.6,0c0.6,0,1.3-0.5,1.3-1.4
				c0-2.3,0-4.1,0-6.4c-0.4,0-0.9,0-1.3,0c0-1.8,0-5.4,0-6.7c0-0.5-0.5-1.1-1.2-1.1H232v2.1h7.3c0,1.9,0,3.8,0,5.7c-1.7,0-2,0-3.5,0
				c-0.2,0-0.4-0.2-0.4-0.4c0-1,0-2.5,0-3.8c0-0.3-0.3-0.6-0.8-0.6h-2.2v5.1c0,1,0.9,1.8,1.8,1.8c0,0,3.7,0,6.8,0v1.9H233.5z
				 M194.9,225.1c0-2.4,0-5.8,0-9h-7.6v11.5c2.2,0,5,0,5,0C194.3,227.6,194.9,226.5,194.9,225.1z M191.7,225.5c-0.5,0-1.1,0-1.9,0
				v-7.2c0.8,0,1.8,0,2.6,0c0,2.2,0,4.6,0,6.5C192.3,225.2,192.1,225.5,191.7,225.5z M178.7,213.2c0,4.1,0,9.5,0,17.8h2.8
				c0-5.2,0-10.9,0-16.3c0.7,0,1.4,0,2.1,0c0,3.1,0,5.9,0,8.8c0,1.2-1.1,1.6-1.1,1.6v2.3c2,0,3.7-2,3.7-3.9c0-3.3,0-7.6,0-11
				c-2.5,0-4.5,0-7,0C178.7,212.7,178.7,213.2,178.7,213.2z M265.7,220.5c0-1.8,0-5.4,0-6.7c0-0.5-0.5-1.1-1.2-1.1h-9.5v2.1
				c2.4,0,4.9,0,7.3,0v5.7c-1.7,0-2,0-3.5,0c-0.2,0-0.4-0.2-0.4-0.4c0-1,0-2.5,0-3.8c0-0.3-0.3-0.6-0.8-0.6c-0.6,0-1.5,0-2.2,0v5
				c0,1,0.9,1.8,1.8,1.8c0,0,3.7,0,6.8,0v1.9h-7.5c-0.8,0-2.2,0.7-2.2,2.1c2.6,0,6.8,0,9.6,0v1.9c0,0.3-0.3,0.5-0.6,0.5h-1.1
				c0,0.9,0,1.5,0,2.1h1.7c0.5,0,0.4,0,0.9,0c1.4,0,2-1,2-1.8c0-2.6,0-6.1,0-8.7C266.6,220.5,266.1,220.5,265.7,220.5z M252.3,227.6
				c1-1.1,1.6-2.4,1.7-5c0-2.7,0-5.4,0-8.1c0-0.2-0.3-0.5-0.6-0.5c-1.1,0-2.4,0-3.6,0v-1.3H247c0,0.4,0,0.8,0,1.3
				c-0.3,0-0.7,0-0.9,0v2.1h0.9v6.5c0,2.5,0.8,3.8,1.9,5c-1.2,0.8-2.5,1.4-4.2,1.4c-0.2,0-0.5,0-0.7,0c-2.6,0-5.8,0-8.6,0
				c-2.6,0-5.2-0.5-6.1-1.6c0.9-1.2,1.4-2.2,1.7-4.7c0-2.5,0-4.7,0-7.9c0-0.4-0.4-0.7-0.7-0.7c-1.1,0-2.2,0-3.6,0v-1.3
				c-1.1,0-1.6,0-2.7,0v1.3c-0.3,0-0.5,0-0.9,0v2.1c0.4,0,0.6,0,0.9,0c0,2.2,0,4.5,0,6.5c0.2,2.5,1,3.4,2,4.8
				c-1.4,1-3.1,1.4-5.2,1.5c-2.4,0-4.6,0-7.6,0c0-0.5,0-1.3,0-1.6h7.6v-2.2h-7.6c0-0.5,0-1.1,0-1.6c2.2,0,5,0,5.7,0c0,0,1.8,0,1.9-2
				c0-2.1,0-5.9,0-8.8c-6,0-12.1,0-18.1,0c-0.3,0-0.6,0.3-0.6,0.5c0,0.4,0,7.1,0,10.3c2.5,0,5,0,7.6,0v1.6h-7.6c0,0.7,0,1.5,0,2.2
				h7.6c0,0.5,0,1.1,0,1.6h-8.8c0,0.6,0,1.4,0,2.1c6.6,0,14.9,0,21.3,0c1.7,0,3.9-0.9,5.5-1.8c2,1.5,4.1,1.8,7.7,1.8
				c1.1,0,2.3,0,3.6,0c1.9,0,3.5,0,5,0c3,0,4.9-0.6,6.8-1.7c1.7,1,3.3,1.6,6,1.7v0h4V229h-4C254.9,228.8,253.4,228.5,252.3,227.6z
				 M209.8,221.4h-4.6v-2.2h4.6V221.4z M209.8,217h-4.6v-2.2c1.6,0,3.1,0,4.6,0V217z M213.3,214.8h4.7v2.2h-4.7V214.8z M213.3,219.2
				c1.6,0,3.1,0,4.6,0c0,0.9,0,1.6,0,2.2h-4.7C213.3,220.8,213.3,219.9,213.3,219.2z M228.3,222.6c-0.1,1.5-0.3,1.8-0.7,2.8
				c-0.4-0.9-0.8-1.3-0.9-2.8c0-1.9,0-4.5,0-6.5h1.6V222.6z M251.4,222.6c-0.1,1.3-0.4,2-0.7,2.8c-0.4-0.7-0.8-1.5-0.8-2.8
				c0-2,0-4.5,0-6.5h1.6C251.4,218.2,251.4,220.6,251.4,222.6z"/>
		</g>
	</g>
</g>
<rect x="4.3" y="153" style="fill:none;stroke:#999999;stroke-miterlimit:10;" width="300.2" height="438.9"/>
<g>
	<g id="形状_2_copy_3_副本_4_47_">
		<g>
			<path style="fill-rule:evenodd;clip-rule:evenodd;fill:#CCCCCC;" d="M692.6,235.1c-1.7,3.3-3.2,6.2-4.9,9.7h2.4
				c0.4-0.8,0.7-1.3,1.2-2.3c1.2,0,2.2,0,3.4,0c-0.3-0.7-0.4-1.3-0.6-1.8h-1.9c0.6-1.1,0.9-1.7,1.7-3.2c0.9,2.5,1.8,5.1,2.6,7.4h2.2
				c-1.2-3.4-2.3-6.3-3.4-9.7H692.6z M699.2,244.8h2.1l0.4-9.7l-2,0L699.2,244.8z M702.4,244.8h2.2l0.3-7.2h-2.1L702.4,244.8z
				 M702.9,235.1l-0.1,1.6c0,0,1.6,0,2,0l0.1-1.6C703.1,235.1,703.1,235.1,702.9,235.1z M716.1,237.6c-0.4-0.1-0.8-0.2-1.2-0.2
				c-0.2,0-0.5,0-0.7,0.1c-0.2,0-0.4,0.1-0.6,0.2c-0.2,0.1-0.3,0.2-0.5,0.3c-0.1,0.1-0.3,0.2-0.4,0.3c-0.1,0.1-0.2,0.3-0.3,0.4
				c-0.1-0.2-0.2-0.4-0.3-0.5c-0.1-0.1-0.2-0.2-0.3-0.3c-0.1-0.1-0.3-0.2-0.4-0.3c-0.2-0.1-0.3-0.1-0.5-0.2c-0.2,0-0.4-0.1-0.6-0.1
				c-0.3,0-0.6,0-0.8,0.1c-0.3,0.1-0.5,0.2-0.7,0.3c-0.2,0.1-0.4,0.2-0.5,0.4c-0.1,0.1-0.3,0.3-0.4,0.5l0.1-1.1H706l-0.3,7.2
				c0,0,1.6,0,2,0c0-0.6,0-1.5,0.1-2.5c0.1-1.1,0.1-1.8,0.3-2.1c0.1-0.4,0.3-0.7,0.6-0.9c0.3-0.2,0.5-0.3,0.9-0.3
				c0.2,0,0.3,0,0.5,0.1c0.1,0.1,0.3,0.2,0.4,0.3c0.1,0.1,0.2,0.3,0.2,0.4c0,0.1,0.1,0.3,0.1,0.5c0,0.4,0,1.2-0.1,2.3
				c-0.1,1.1-0.1,1.9-0.1,2.2c0.4,0,1.6,0,2,0l0-2c0-0.7,0.1-1.3,0.1-1.7c0-0.4,0.1-0.8,0.2-1c0.1-0.2,0.2-0.5,0.3-0.6
				c0.1-0.2,0.3-0.3,0.5-0.4c0.2-0.1,0.4-0.1,0.6-0.1c0.2,0,0.4,0,0.6,0.1c0.2,0.1,0.3,0.2,0.4,0.4c0.1,0.2,0.2,0.4,0.2,0.8
				c0,0.3,0,0.6,0,1l-0.1,1.6c0,0.7-0.1,1.3-0.1,1.9c0.4,0,1.7,0,2,0c0-0.5,0-1.3,0.1-2.3c0-1,0.1-1.7,0.1-2.2c0-0.4,0-0.8,0-1
				c0-0.4-0.1-0.8-0.3-1.1C716.8,238,716.5,237.7,716.1,237.6z M723.8,237.6c-0.4-0.1-0.9-0.2-1.4-0.2c-0.5,0-0.9,0-1.4,0.1
				c-0.5,0.1-1.7,0.3-1.7,0.3l-0.2,1.3c0,0,2-0.6,2.9-0.6c0.2,0,0.4,0,0.6,0.1c0.2,0,0.3,0.1,0.5,0.3c0.1,0.1,0.2,0.3,0.2,0.5
				c0,0.1,0,0.2-0.1,0.3c0,0.1-0.1,0.2-0.2,0.3c-0.1,0.1-0.2,0.2-0.3,0.2c-0.1,0.1-0.3,0.1-0.5,0.2c-0.2,0.1-0.4,0.1-0.6,0.1
				c-0.7,0.1-1.2,0.3-1.6,0.4c-0.4,0.1-0.7,0.3-1,0.4c-0.2,0.2-0.4,0.3-0.5,0.5c-0.1,0.2-0.2,0.3-0.3,0.5c-0.1,0.2-0.1,0.4-0.1,0.6
				c0,0.4,0.1,0.7,0.3,1.1c0.2,0.4,0.5,0.6,0.9,0.8c0.4,0.2,0.9,0.2,1.5,0.2c0.2,0,0.4,0,0.6,0c0.2,0,0.5,0,0.8-0.1
				c0.1-0.5,0.2-0.9,0.3-1.2c-0.3,0.1-0.5,0.2-0.7,0.2c-0.2,0-0.3,0-0.5,0c-0.2,0-0.4,0-0.6-0.1c-0.2-0.1-0.3-0.2-0.4-0.3
				c-0.1-0.1-0.2-0.3-0.2-0.5c0-0.1,0-0.2,0.1-0.3c0-0.1,0.1-0.2,0.2-0.3c0.1-0.1,0.2-0.2,0.4-0.3c0.1-0.1,0.3-0.1,0.5-0.2
				c0.2-0.1,0.4-0.1,0.7-0.2c0.3-0.1,0.5-0.1,0.6-0.2c0.1,0,0.2-0.1,0.3-0.1c0.1,0,0.2-0.1,0.4-0.2l-0.2,3.8h2c0,0,0.1-2.3,0.1-3.4
				c0.1-1.1,0.1-1.8,0.1-2.1c0-0.5-0.1-0.9-0.4-1.1C724.6,237.9,724.2,237.7,723.8,237.6z M736.5,237.6c-0.4-0.1-0.8-0.2-1.2-0.2
				c-0.2,0-0.5,0-0.7,0.1c-0.2,0-0.4,0.1-0.6,0.2c-0.2,0.1-0.3,0.2-0.5,0.3c-0.1,0.1-0.3,0.2-0.4,0.3c-0.1,0.1-0.2,0.3-0.3,0.4
				c-0.1-0.2-0.2-0.4-0.3-0.5c-0.1-0.1-0.2-0.2-0.3-0.3c-0.1-0.1-0.3-0.2-0.4-0.3c-0.2-0.1-0.3-0.1-0.5-0.2c-0.2,0-0.4-0.1-0.6-0.1
				c-0.3,0-0.6,0-0.8,0.1c-0.3,0.1-0.5,0.2-0.7,0.3c-0.2,0.1-0.4,0.2-0.5,0.4c-0.1,0.1-0.3,0.3-0.4,0.5l0.1-1.1h-1.9l-0.3,7.2h2
				c0,0,0-1.5,0.1-2.5c0.1-1.1,0.1-1.8,0.3-2.1c0.1-0.4,0.3-0.7,0.6-0.9c0.3-0.2,0.5-0.3,0.9-0.3c0.2,0,0.3,0,0.5,0.1
				c0.1,0.1,0.3,0.2,0.4,0.3c0.1,0.1,0.2,0.3,0.2,0.4c0,0.1,0.1,0.3,0.1,0.5c0,0.4,0,1.2-0.1,2.3c-0.1,1.1-0.1,1.9-0.1,2.2
				c0.4,0,1.6,0,2,0l0-2c0-0.7,0.1-1.3,0.1-1.7c0-0.4,0.1-0.8,0.2-1c0.1-0.2,0.2-0.5,0.3-0.6c0.2-0.2,0.3-0.3,0.5-0.4
				c0.2-0.1,0.4-0.1,0.6-0.1c0.2,0,0.4,0,0.6,0.1c0.2,0.1,0.3,0.2,0.4,0.4c0.1,0.2,0.2,0.4,0.2,0.8c0,0.3,0,0.6,0,1l-0.1,1.6
				c0,0.7-0.1,1.3-0.1,1.9c0.4,0,1.7,0,2,0c0-0.5,0-1.3,0.1-2.3c0-1,0.1-1.7,0.1-2.2c0-0.4,0-0.8,0-1c0-0.4-0.1-0.8-0.3-1.1
				C737.2,238,736.9,237.7,736.5,237.6z M744.2,237.6c-0.4-0.1-0.9-0.2-1.4-0.2c-0.5,0-0.9,0-1.4,0.1c-0.5,0.1-1.7,0.3-1.7,0.3
				l-0.2,1.3c0,0,2-0.6,2.9-0.6c0.2,0,0.4,0,0.6,0.1c0.2,0,0.4,0.1,0.5,0.3c0.1,0.1,0.2,0.3,0.2,0.5c0,0.1,0,0.2-0.1,0.3
				c0,0.1-0.1,0.2-0.2,0.3c-0.1,0.1-0.2,0.2-0.3,0.2c-0.1,0.1-0.3,0.1-0.5,0.2c-0.2,0.1-0.4,0.1-0.6,0.1c-0.7,0.1-1.2,0.3-1.6,0.4
				c-0.4,0.1-0.7,0.3-1,0.4c-0.2,0.2-0.4,0.3-0.5,0.5c-0.1,0.2-0.2,0.3-0.3,0.5c-0.1,0.2-0.1,0.4-0.1,0.6c0,0.4,0.1,0.7,0.3,1.1
				c0.2,0.4,0.5,0.6,0.9,0.8c0.4,0.2,0.9,0.2,1.5,0.2c0.2,0,0.4,0,0.6,0c0.2,0,0.5,0,0.8-0.1c0.1-0.5,0.2-0.9,0.4-1.2
				c-0.3,0.1-0.5,0.2-0.7,0.2c-0.2,0-0.3,0-0.5,0c-0.2,0-0.4,0-0.6-0.1c-0.2-0.1-0.3-0.2-0.4-0.3c-0.1-0.1-0.2-0.3-0.2-0.5
				c0-0.1,0-0.2,0.1-0.3c0-0.1,0.1-0.2,0.2-0.3c0.1-0.1,0.2-0.2,0.4-0.3c0.1-0.1,0.3-0.1,0.5-0.2c0.2-0.1,0.4-0.1,0.7-0.2
				c0.3-0.1,0.5-0.1,0.6-0.2c0.1,0,0.2-0.1,0.3-0.1c0.1,0,0.2-0.1,0.4-0.2l-0.2,3.8h2c0,0,0.1-2.3,0.1-3.4c0.1-1.1,0.1-1.8,0.1-2.1
				c0-0.5-0.1-0.9-0.4-1.1C745,237.9,744.7,237.7,744.2,237.6z M746.5,242.9c0,0.9-0.1,1.6-0.1,1.9c0.7,0,2,0,2,0s0.1-1.6,0.1-1.9
				C748,242.9,746.5,242.9,746.5,242.9z M751.8,239.5c0.2-0.2,0.5-0.4,0.7-0.5c0.3-0.1,0.6-0.2,0.9-0.2c0.5,0,1.1,0.1,1.9,0.4
				l-0.1-1.6c-0.4-0.1-0.8-0.2-1.2-0.2c-0.3,0-0.6-0.1-1-0.1c-0.6,0-1.1,0.1-1.5,0.2c-0.5,0.1-0.9,0.4-1.2,0.7
				c-0.4,0.3-0.7,0.8-0.8,1.4c-0.2,0.5-0.3,1.1-0.3,1.7c0,0.5,0.1,0.9,0.2,1.3c0.1,0.4,0.3,0.8,0.5,1.1c0.2,0.3,0.5,0.5,0.8,0.7
				c0.3,0.2,0.6,0.3,1,0.4c0.4,0.1,0.7,0.1,1.1,0.1c0.7,0,1.3-0.1,2-0.2c0.1-0.4,0.1-0.7,0.2-0.9c0-0.2,0.1-0.5,0.1-0.7
				c-0.3,0.1-0.7,0.2-1,0.3c-0.3,0.1-0.6,0.1-0.8,0.1c-0.4,0-0.8-0.1-1.2-0.3c-0.3-0.2-0.6-0.4-0.7-0.8c-0.1-0.3-0.2-0.7-0.2-1.2
				c0-0.3,0-0.6,0.1-0.9C751.5,240.1,751.6,239.8,751.8,239.5z M762.7,238.4c-0.4-0.3-0.8-0.6-1.3-0.7c-0.5-0.2-1-0.2-1.6-0.2
				c-0.6,0-1.2,0.1-1.7,0.3c-0.6,0.2-1,0.5-1.4,0.9c-0.4,0.4-0.6,0.8-0.8,1.3c-0.2,0.5-0.3,1-0.3,1.5c0,0.5,0.1,1,0.3,1.5
				c0.2,0.5,0.5,0.9,0.8,1.2c0.4,0.3,0.8,0.6,1.3,0.7c0.5,0.2,1,0.2,1.6,0.2c0.6,0,1.2-0.1,1.7-0.3c0.5-0.2,1-0.5,1.3-0.8
				c0.4-0.4,0.6-0.8,0.8-1.3c0.2-0.5,0.3-1,0.3-1.6c0-0.5-0.1-1-0.3-1.5C763.3,239.1,763,238.7,762.7,238.4z M761.5,242.3
				c-0.2,0.4-0.4,0.7-0.7,0.9c-0.3,0.2-0.7,0.3-1.1,0.3c-0.4,0-0.8-0.1-1.1-0.3c-0.3-0.2-0.5-0.5-0.6-0.8c-0.1-0.3-0.2-0.7-0.2-1.1
				c0-0.5,0.1-0.9,0.2-1.3c0.2-0.4,0.4-0.7,0.7-0.9c0.3-0.2,0.7-0.3,1.1-0.3c0.4,0,0.8,0.1,1.1,0.3c0.3,0.2,0.5,0.5,0.6,0.8
				c0.1,0.3,0.2,0.7,0.2,1.1C761.7,241.5,761.6,241.9,761.5,242.3z M775.5,238.2c-0.2-0.3-0.5-0.5-0.9-0.6c-0.4-0.1-0.8-0.2-1.2-0.2
				c-0.2,0-0.5,0-0.7,0.1c-0.2,0-0.4,0.1-0.6,0.2c-0.2,0.1-0.3,0.2-0.5,0.3c-0.1,0.1-0.3,0.2-0.4,0.3c-0.1,0.1-0.2,0.3-0.3,0.4
				c-0.1-0.2-0.2-0.4-0.3-0.5c-0.1-0.1-0.2-0.2-0.3-0.3c-0.1-0.1-0.3-0.2-0.4-0.3c-0.2-0.1-0.3-0.1-0.5-0.2c-0.2,0-0.4-0.1-0.6-0.1
				c-0.3,0-0.6,0-0.8,0.1c-0.3,0.1-0.5,0.2-0.7,0.3c-0.2,0.1-0.4,0.2-0.5,0.4c-0.1,0.1-0.3,0.3-0.4,0.5l0.1-1.1c-0.3,0-1.5,0-1.9,0
				c0,0.8-0.3,6.4-0.3,7.2c0.4,0,1.6,0,2,0c0-0.6,0-1.5,0.1-2.5c0.1-1.1,0.1-1.8,0.3-2.1c0.1-0.4,0.3-0.7,0.6-0.9
				c0.3-0.2,0.5-0.3,0.9-0.3c0.2,0,0.3,0,0.5,0.1c0.1,0.1,0.3,0.2,0.4,0.3c0.1,0.1,0.2,0.3,0.2,0.4c0,0.1,0,0.3,0,0.5
				c0,0.4,0,1.2-0.1,2.3c-0.1,1.1-0.1,1.9-0.1,2.2c0.4,0,1.6,0,2,0l0-2c0-0.7,0.1-1.3,0.1-1.7c0-0.4,0.1-0.8,0.2-1
				c0.1-0.2,0.2-0.5,0.3-0.6c0.1-0.2,0.3-0.3,0.5-0.4c0.2-0.1,0.4-0.1,0.6-0.1c0.2,0,0.4,0,0.6,0.1c0.2,0.1,0.3,0.2,0.4,0.4
				c0.1,0.2,0.2,0.4,0.2,0.8c0,0.3,0,0.6,0,1l-0.1,1.6c0,0.7-0.1,1.3-0.1,1.9c0.4,0,1.7,0,2,0c0-0.5,0-1.3,0.1-2.3
				c0-1,0.1-1.7,0.1-2.2c0-0.4,0-0.8,0-1C775.8,238.9,775.7,238.5,775.5,238.2z"/>
		</g>
	</g>
	<g id="形状_2_copy_3_副本_5_47_">
		<g>
			<path style="fill-rule:evenodd;clip-rule:evenodd;fill:#FF6600;" d="M696.3,214.8c3,0,6,0,9.1,0c0,4.5,0,9.2,0,13.4
				c0,0.3-0.3,0.7-0.7,0.7c-0.5,0-0.7,0-1.3,0v2.2c0.7,0,1.3,0,2,0c1.7,0,2.9-0.9,2.9-2.3c0-3.5,0-10.4,0-13.9h1v-2.1h-13V214.8z
				 M742.7,224.5c-0.8,0-2.1,0.8-2.1,2.1c2.6,0,6.8-0.1,9.7-0.1c0,0.5,0,1.1,0,1.7c1,0,0.6,0,1.6,0c0.6,0,1.3-0.5,1.3-1.4
				c0-2.3,0-4.1,0-6.4c-0.4,0-0.9,0-1.3,0c0-1.8,0-5.4,0-6.7c0-0.5-0.5-1.1-1.2-1.1h-9.5v2.1h7.3c0,1.9,0,3.8,0,5.7
				c-1.7,0-2,0-3.5,0c-0.2,0-0.4-0.2-0.4-0.4c0-1,0-2.5,0-3.8c0-0.3-0.3-0.6-0.8-0.6h-2.2v5.1c0,1,0.9,1.8,1.8,1.8c0,0,3.7,0,6.8,0
				v1.9H742.7z M704,225.1c0-2.4,0-5.8,0-9h-7.6v11.5c2.2,0,5,0,5,0C703.4,227.6,704,226.5,704,225.1z M700.8,225.5
				c-0.5,0-1.1,0-1.9,0v-7.2c0.8,0,1.8,0,2.6,0c0,2.2,0,4.6,0,6.5C701.5,225.2,701.2,225.5,700.8,225.5z M687.9,213.2
				c0,4.1,0,9.5,0,17.8h2.8c0-5.2,0-10.9,0-16.3c0.7,0,1.4,0,2.1,0c0,3.1,0,5.9,0,8.8c0,1.2-1.1,1.6-1.1,1.6v2.3c2,0,3.7-2,3.7-3.9
				c0-3.3,0-7.6,0-11c-2.5,0-4.5,0-7,0C687.8,212.7,687.9,213.2,687.9,213.2z M774.9,220.5c0-1.8,0-5.4,0-6.7c0-0.5-0.5-1.1-1.2-1.1
				h-9.5v2.1c2.4,0,4.9,0,7.3,0v5.7c-1.7,0-2,0-3.5,0c-0.2,0-0.4-0.2-0.4-0.4c0-1,0-2.5,0-3.8c0-0.3-0.3-0.6-0.8-0.6
				c-0.6,0-1.5,0-2.2,0v5c0,1,0.9,1.8,1.8,1.8c0,0,3.7,0,6.8,0v1.9h-7.5c-0.8,0-2.2,0.7-2.2,2.1c2.6,0,6.8,0,9.6,0v1.9
				c0,0.3-0.3,0.5-0.6,0.5h-1.1c0,0.9,0,1.5,0,2.1h1.7c0.5,0,0.4,0,0.9,0c1.4,0,2-1,2-1.8c0-2.6,0-6.1,0-8.7
				C775.7,220.5,775.3,220.5,774.9,220.5z M761.4,227.6c1-1.1,1.6-2.4,1.7-5c0-2.7,0-5.4,0-8.1c0-0.2-0.3-0.5-0.6-0.5
				c-1.1,0-2.4,0-3.6,0v-1.3h-2.8c0,0.4,0,0.8,0,1.3c-0.3,0-0.7,0-0.9,0v2.1h0.9v6.5c0,2.5,0.8,3.8,1.9,5c-1.2,0.8-2.5,1.4-4.2,1.4
				c-0.2,0-0.5,0-0.7,0c-2.6,0-5.8,0-8.6,0c-2.6,0-5.2-0.5-6.1-1.6c0.9-1.2,1.4-2.2,1.7-4.7c0-2.5,0-4.7,0-7.9
				c0-0.4-0.4-0.7-0.7-0.7c-1.1,0-2.2,0-3.6,0v-1.3c-1.1,0-1.6,0-2.7,0v1.3c-0.3,0-0.5,0-0.9,0v2.1c0.4,0,0.6,0,0.9,0
				c0,2.2,0,4.5,0,6.5c0.2,2.5,1,3.4,2,4.8c-1.4,1-3.1,1.4-5.2,1.5c-2.4,0-4.6,0-7.6,0c0-0.5,0-1.3,0-1.6h7.6v-2.2h-7.6
				c0-0.5,0-1.1,0-1.6c2.2,0,5,0,5.7,0c0,0,1.8,0,1.9-2c0-2.1,0-5.9,0-8.8c-6,0-12.1,0-18.1,0c-0.3,0-0.6,0.3-0.6,0.5
				c0,0.4,0,7.1,0,10.3c2.5,0,5,0,7.6,0v1.6h-7.6c0,0.7,0,1.5,0,2.2h7.6c0,0.5,0,1.1,0,1.6h-8.8c0,0.6,0,1.4,0,2.1
				c6.6,0,14.9,0,21.3,0c1.7,0,3.9-0.9,5.5-1.8c2,1.5,4.1,1.8,7.7,1.8c1.1,0,2.3,0,3.6,0c1.9,0,3.5,0,5,0c3,0,4.9-0.6,6.8-1.7
				c1.7,1,3.3,1.6,6,1.7v0h4V229h-4C764,228.8,762.6,228.5,761.4,227.6z M718.9,221.4h-4.6v-2.2h4.6V221.4z M718.9,217h-4.6v-2.2
				c1.6,0,3.1,0,4.6,0V217z M722.4,214.8h4.7v2.2h-4.7V214.8z M722.4,219.2c1.6,0,3.1,0,4.6,0c0,0.9,0,1.6,0,2.2h-4.7
				C722.4,220.8,722.4,219.9,722.4,219.2z M737.4,222.6c-0.1,1.5-0.3,1.8-0.7,2.8c-0.4-0.9-0.8-1.3-0.9-2.8c0-1.9,0-4.5,0-6.5h1.6
				V222.6z M760.5,222.6c-0.1,1.3-0.4,2-0.7,2.8c-0.4-0.7-0.8-1.5-0.8-2.8c0-2,0-4.5,0-6.5h1.6C760.5,218.2,760.5,220.6,760.5,222.6
				z"/>
		</g>
	</g>
</g>
<path style="fill:none;stroke:#FF6600;stroke-miterlimit:10;" d="M224,312.4c0,0-9.6-7.4-10.3-20.3c-0.7-12.9,7-3.1,7-3.1l6,8.2
	c0,0-1.5-12.2,1.9-11.8c3.5,0.4,6.5,10.8,6.5,10.8s4.6-10.6,9.3-12c4.7-1.4,1.1,16.1-3.9,20c0,0,3.1,1.3,3.3,1.6
	c0,0,12.2-19.3,18.8-20.3c6.5-1,4.5,9.5,4.5,9.5s-2.2,17.5-17.8,21.4c0,0,0.3,10.5-3.1,15.7c-2.6,3.9-3.6,7.4-1.7,12
	c1.9,4.6,3,5.8,0.7,7.2c-2.3,1.5-6.1,3.1-10.9,1.3c-4.7-1.8-2-2.5-1.3-4.4c0.7-1.8,2.2-9.1-1-9.7c-3.1-0.6-14.2-2.4-11-11.6
	C224.3,317.7,224,312.4,224,312.4z"/>
<path style="fill:none;stroke:#FF6600;stroke-miterlimit:10;" d="M144.7,331.2c-0.5-7.6-1.1-14.8-1-17c0,0-12.8-2.4-15.3-14.1
	c-2.6-11.7,3.8-6.6,11.2-1.6c0,0-1.9-5.2,0.4-4.9c2.3,0.3,7.8,3.8,9.8,6.8c0,0,1.1-5.5,2.4-7.6c1.3-2.1,5.7-7,7-4.9
	c1.3,2.1,0.4,6,0.4,6s4.9-11.2,8.2-9.6c3.3,1.6,2.3,18.6-3.9,23.8c0,0,7.2,10.4,8.8,18.2c1.6,7.7-7,17.3-6.4,20.3
	c0.4,2.1,3.2,7-1.4,8.4c-4.6,1.4-8.1-1.2-8.5-3.3c-0.4-2.1,1.6-7.8-1.1-8.6C152.6,342.3,145.1,338.4,144.7,331.2z"/>
<path style="fill:none;stroke:#FF6600;stroke-miterlimit:10;" d="M65.9,296.6c0,0,0.1-9.9,3-9.9s3.8,7.2,3.8,7.2s0.9-9.8,4.1-9.8
	c3.2,0,5.9,11.7,1.8,19.7c0,0,3.3,2.3,5.1,5.1c1.8,2.8,5.8,3.4,9.2,2.5c3.4-0.9,5.2,3.4,4.4,7.3c-1.3,5.9-6.7,10.2-10.6,11.5
	c-3.9,1.3-8.8,2.2-9.4,6c-0.6,3.8,4.7,6.3,2,10c-2.7,3.7-9.6,2-11.3-0.4c-1.7-2.4,0.3-5.6-0.1-7.7c-0.4-2.1-1.1-3.9-2.8-5.8
	c-1.7-1.9-5.2-5.8-6.3-10.9c-1.1-5.1-0.3-10.1-0.3-10.1s-9,2.1-16.5-3.6c-7.6-5.7-8-11.5,8.5-10.8c0,0-7.9-7.7,1.6-6.1
	C61.3,292.3,65.9,296.6,65.9,296.6z"/>
<path style="fill:#FF6600;" d="M61.1,481.7c0,0-4.2-1.6-5.8-7.3c-1.7-5.7,1.5-9.3,10.4,1.6c0,0,3.4-3.9,6.7-5
	c3.3-1.1,8.7-2.1,7.1,2.8c-1.6,4.9-6,7.9-7.6,8.3c0,0,1.5,0.6,1.8,1.5c0,0,6.1-4.1,8.3-6.1c3.1-2.8,8.5-9.7,11.2-5
	c2.7,4.6,3.1,20.4-13,19.8c0,0,1,4.3-1.1,9.6c-2.1,5.3-4.8,10.4-0.9,14.8c3.9,4.4,8.2,4.1,6.7,8.4c-1.4,4.3-6.1,7.6-8.5,8.5
	c-2.4,0.9-8,2.8-8.5-4.3c-0.5-7-3.2-14.8-8.2-14.8s-11.2-4.4-12.8-7.6c-1.6-3.2-2.7-7.6,0.6-10.3s6.3-6.4,6.7-7.7c0,0-3.7-1.7-5.9-7
	c-2.2-5.2,0.1-16.3,3.1-11.8c3.1,4.4,5.7,11.1,8,12.8C59.2,482.9,59.8,482,61.1,481.7z"/>
<path style="fill:#FF6600;" d="M145.7,482.4c0,0,1.6-6.1,5.3-10.1c3.7-4,8.4-6,7.8-1.6c-0.6,4.5-3.2,13.3-5.8,16.1
	c0,0,1.4-0.2,2,0.1c0,0,1.9-9,7.1-13.8c5.3-4.8,16.3-9.3,15-2.4c-1.2,6.9-9.6,17.2-14.6,19.2c0,0,9.1,7.3,5.1,21.8
	c-4,14.5-2.3,16.4-1,19.4c1.2,3-0.2,6.6-5.9,6.1c-5.7-0.5-7.6-4-6.1-6.1c1.5-2.1,1.3-5.9-0.3-5.5c-1.7,0.4-8.5-0.1-11.3-1.8
	c-2.8-1.8-3.4-4.3-2.6-5.5c0.8-1.2,2.1-1.2,1-8.3c-1-7.1-1.1-12.5,0.7-14.9c0,0-5.5-1.8-10.9-7.3c-5.5-5.5-11.1-20.7,5.9-7.6
	c0,0-1.2-10,2-8.6C142.4,473,145.7,482.4,145.7,482.4z"/>
<path style="fill:#FF6600;" d="M228.2,489.8c0,0-5.8-2.1-7-9.3c-1.2-7.2-1.1-23.7,8.5-4.2c0,0-0.6-6.8,1.4-5.8c2,1,4.6,6,5.6,8.5
	c0,0,1.5-3.2,4.5-5.1c2.9-1.9,10.2-7.2,8.4,1.8c0,0,2.9-3.6,5.8-5.2c2.9-1.6,9-5.2,5.6,5.4c-3.4,10.7-12.2,12.6-12.2,12.6
	s2.4,3.1,3,12.6s-6.9,14-6.2,19.4c0.7,5.4,3.2,7.6-0.1,11.1c-3.3,3.5-13.8,3.5-14.3-0.6c-0.5-4.1,5.9-12,1.6-13
	c-4.4-1-8.2-3-10.3-6.5c-2.1-3.5-0.9-6.8,0.4-7.4c1.3-0.6,2.1-2.7,3.1-6.9C226.7,492.9,228.2,489.8,228.2,489.8z"/>
<g>
	<path style="fill:#FF6600;" d="M53.8,393.7c0,0-6.3-0.1-7.6-8c-1.3-7.9-1-16.3,3.3-11.6c4.3,4.7,8.5,11.2,9.8,12.3
		c0,0,0.3-0.5,0.9-0.6c0,0-3.6-2.9-4.8-6.9c-1.2-3.9-3-10.2,2.1-6.2c5.1,4,7,8.1,7,8.1s3.4-3.7,6.6-4.9c3.2-1.3,11.6-4.3,8.9,0.9
		c-2.7,5.2-7.5,7.9-9.5,8.5c0,0,2.7,1.2,3.7,2.3c0,0,7.9-6.4,10-9.1s5.7-6.7,7.3-0.4c1.6,6.2-3,18.5-12.8,18.7c0,0,1.7,7.4-4.9,15.8
		c-6.6,8.4-3.8,17.1-3.4,19.5c0.4,2.4,3,5.5-4.2,7.6c-7.2,2.1-11.9,0.1-12.9-0.4c-1-0.5-2.7-1.4-1.4-3.4c1.3-1.9,11.9-17.2,6.4-18.4
		c-5.5-1.2-9.5-5.8-9.4-10.5C49.1,402.4,53.3,402.6,53.8,393.7z"/>
</g>
<g>
	<path style="fill:none;stroke:#FF6600;stroke-miterlimit:10;" d="M147,389.3c0,0-2.8-3-4.2-7.5c-1.4-4.5-2.3-10.7,0.6-10.5
		c2.9,0.1,5.8,5.1,5.8,5.1s0.3-6.4,3.2-2.9c2.9,3.5,3.6,9,3.6,9s4.2-4.7,7.8-6.4c3.6-1.7,8.3-4.2,5.2,3.2c0,0,9.2-8.6,12.2-6.8
		c3,1.8-2.1,21.7-13.1,24c0,0,3.7,8.3-0.5,16.2c-4.2,7.8-3.5,13-3.4,13.9c0.1,0.9,1.5,5.4-3.2,9.2c-4.7,3.9-9.6,1.3-10.6,0
		c-1-1.3-0.7-3.1,0.8-4.2c1.5-1.1,3.7-3.7,3.4-6.1c-0.3-2.4-1.3-3.2-2.9-3.3c-1.6-0.1-8.7,0-12.4-2.9s-4.4-5.1-4.4-6.7
		c0.1-1.7,1.1-3.1,2.5-2.9c1.3,0.2,3.9-0.7,3.9-3.4C141.4,403.7,140.7,392.1,147,389.3z"/>
</g>
<g>
	<defs>
		<path id="SVGID_5_" d="M248.4,382.4c0,0,5.1-1.8,6.4-1c1.3,0.9-1.4,8.2-8.1,9.8c0,0,1.5,1.6,1.9,2.5c0,0,9.4-6.5,11.5-8.2
			c2-1.7,5.4-2.3,5.7,1.2c0.4,3.4-4.9,12.9-15.2,12c0,0,2.4,7.7-1.6,15c-4,7.3,1.1,12.9,2.2,13.9c1.1,1,0.8,2.1-0.6,3.8
			s-5,4.6-7.6,5.7c-2.6,1.1-9.2,3.5-8.7,0c0.4-3.5,2-17.1-1.5-17.7c-5.7-0.9-11.8-2.6-15.9-12.1c-0.4-1.1-2.3-6.7,3.5-4.8
			c0.8,0.2,1.1,0.4,2.2,0c0.7-0.2,1.5-0.8,2.1-1.6c1.5-1.7,6.3-8.3,10.3-8.7c0,0-2.3-2.5-3.1-8.2c-0.8-5.7-0.8-18.5,5.7-3.8
			c0,0,2.4-9.5,6-8.9C247.3,371.9,248.9,379.4,248.4,382.4z"/>
	</defs>
	<use xlink:href="#SVGID_5_"  style="overflow:visible;fill:#FF6600;"/>
	<clipPath id="SVGID_6_">
		<use xlink:href="#SVGID_5_"  style="overflow:visible;"/>
	</clipPath>
</g>
<path style="fill:none;stroke:#FF6600;stroke-miterlimit:10;" d="M729.4,312.8c0,0-9.6-7.4-10.3-20.3c-0.7-12.9,7-3.1,7-3.1l6,8.2
	c0,0-1.5-12.2,1.9-11.8c3.5,0.4,6.5,10.8,6.5,10.8c5.1,1.2,5.2-10.4,9.3-12c4.6-1.7,1.1,16.1-3.9,20c0,0,1.7,0.3,3.3,1.6
	c0,0,0,0,0.1,0c0.7-1,12.4-19.3,18.8-20.3c6.5-1,4.5,9.5,4.5,9.5s-2.2,17.5-17.8,21.4c0,0,0.3,10.5-3.1,15.7
	c-2.6,3.9-3.6,7.4-1.7,12c1.9,4.6,3,5.8,0.7,7.2c-2.3,1.5-6.1,3.1-10.9,1.3c-4.7-1.8-2-2.5-1.3-4.4c0.7-1.8,2.2-9.1-1-9.7
	c-3.1-0.6-14.2-2.4-11-11.6C729.7,318.1,729.4,312.8,729.4,312.8z"/>
<path style="fill:none;stroke:#FF6600;stroke-miterlimit:10;" d="M650.1,331.6c-0.5-7.6-1.1-14.8-1-17c0,0-12.8-2.4-15.3-14.1
	c-2.6-11.7,3.8-6.6,11.2-1.6c0,0-1.9-5.2,0.4-4.9c2.3,0.3,7.8,3.8,9.8,6.8c0,0,1.1-5.5,2.4-7.6c1.3-2.1,5.7-7,7-4.9
	c1.3,2.1,0.4,6,0.4,6s4.9-11.2,8.2-9.6c3.3,1.6,2.3,18.6-3.9,23.8c0,0,7.2,10.4,8.8,18.2c1.6,7.7-7,17.3-6.4,20.3
	c0.4,2.1,3.2,7-1.4,8.4c-4.6,1.4-8.1-1.2-8.5-3.3c-0.4-2.1,1.6-7.8-1.1-8.6S650.5,338.8,650.1,331.6z"/>
<path style="fill:none;stroke:#FF6600;stroke-miterlimit:10;" d="M571.3,296.9c0,0,0.1-9.9,3-9.9c2.9,0,3.8,7.2,3.8,7.2
	s0.9-9.8,4.1-9.8c3.2,0,5.9,11.7,1.8,19.7c0,0,3.3,2.3,5.1,5.1c1.8,2.8,5.8,3.4,9.2,2.5c3.4-0.9,5.2,3.4,4.4,7.3
	c-1.3,5.9-6.7,10.2-10.6,11.5s-8.8,2.2-9.4,6c-0.6,3.8,4.7,6.3,2,10s-9.6,2-11.3-0.4c-1.7-2.4,0.3-5.6-0.1-7.7
	c-0.4-2.1-1.1-3.9-2.8-5.8c-1.7-1.9-5.2-5.8-6.3-10.9c-1.1-5.1-0.3-10.1-0.3-10.1s-9,2.1-16.5-3.6c-7.6-5.7-8-11.5,8.5-10.8
	c0,0-7.9-7.7,1.6-6.1C566.7,292.7,571.3,296.9,571.3,296.9z"/>
<path style="fill:#FF6600;" d="M566.5,482.1c0,0-4.2-1.6-5.8-7.3c-1.7-5.7,1.5-9.3,10.4,1.6c0,0,3.4-3.9,6.7-5
	c3.3-1.1,8.7-2.1,7.1,2.8c-1.6,4.9-6,7.9-7.6,8.3c0,0,1.5,0.6,1.8,1.5c0,0,6.1-4.1,8.3-6.1c3.1-2.8,8.5-9.7,11.2-5
	c2.7,4.6,3.1,20.4-13,19.8c0,0,1,4.3-1.1,9.6c-2.1,5.3-4.8,10.4-0.9,14.8c3.9,4.4,8.2,4.1,6.7,8.4c-1.4,4.3-6.1,7.6-8.5,8.5
	c-2.4,0.9-8,2.8-8.5-4.3c-0.5-7-3.2-14.8-8.2-14.8c-4.9,0.1-11.2-4.4-12.8-7.6c-1.6-3.2-2.7-7.6,0.6-10.3c3.3-2.7,6.3-6.4,6.7-7.7
	c0,0-3.7-1.7-5.9-7c-2.2-5.2,0.1-16.3,3.1-11.8c3.1,4.4,5.7,11.1,8,12.8C564.6,483.3,565.1,482.4,566.5,482.1z"/>
<path style="fill:#FF6600;" d="M651.1,482.8c0,0,1.6-6.1,5.3-10.1s8.4-6,7.8-1.6c-0.6,4.5-3.2,13.3-5.8,16.1c0,0,1.4-0.2,2,0.1
	c0,0,1.9-9,7.1-13.8c5.3-4.8,16.3-9.3,15-2.4c-1.2,6.9-9.6,17.2-14.6,19.2c0,0,9.1,7.3,5.1,21.8s-2.3,16.4-1,19.4
	c1.2,3-0.2,6.6-5.9,6.1c-5.7-0.5-7.6-4-6.1-6.1c1.5-2.1,1.3-5.9-0.3-5.5c-1.7,0.4-8.5-0.1-11.3-1.8c-2.8-1.8-3.4-4.3-2.6-5.5
	c0.8-1.2,2.1-1.2,1-8.3c-1-7.1-1.1-12.5,0.7-14.9c0,0-5.5-1.8-10.9-7.3c-5.5-5.5-11.1-20.7,5.9-7.6c0,0-1.2-10,2-8.6
	C647.8,473.4,651.1,482.8,651.1,482.8z"/>
<path style="fill:#FF6600;" d="M733.6,490.2c0,0-5.8-2.1-7-9.3c-1.2-7.2-1.1-23.7,8.5-4.2c0,0-0.6-6.8,1.4-5.8c2,1,4.6,6,5.6,8.5
	c0,0,1.5-3.2,4.5-5.1c2.9-1.9,10.2-7.2,8.4,1.8c0,0,2.9-3.6,5.8-5.2c2.9-1.6,9-5.2,5.6,5.4c-3.4,10.7-12.2,12.6-12.2,12.6
	s2.4,3.1,3,12.6c0.6,9.5-6.9,14-6.2,19.4c0.7,5.4,3.2,7.6-0.1,11.1c-3.3,3.5-13.8,3.5-14.3-0.6c-0.5-4.1,5.9-12,1.6-13
	c-4.4-1-8.2-3-10.3-6.5c-2.1-3.5-0.9-6.8,0.4-7.4c1.3-0.6,2.1-2.7,3.1-6.9C732.1,493.3,733.6,490.2,733.6,490.2z"/>
<g>
	<path style="fill:#FF6600;" d="M559.2,394.1c0,0-6.3-0.1-7.6-8c-1.3-7.9-1-16.3,3.3-11.6c4.3,4.7,8.5,11.2,9.8,12.3
		c0,0,0.3-0.5,0.9-0.6c0,0-3.6-2.9-4.8-6.9c-1.2-3.9-3-10.2,2.1-6.2c5.1,4,7,8.1,7,8.1s3.4-3.7,6.6-4.9s11.6-4.3,8.9,0.9
		s-7.5,7.9-9.5,8.5c0,0,2.7,1.2,3.7,2.3c0,0,7.9-6.4,10-9.1s5.7-6.7,7.3-0.4c1.6,6.2-3,18.5-12.8,18.7c0,0,1.7,7.5-4.9,15.8
		c-6.6,8.4-3.8,17.1-3.4,19.5c0.4,2.4,3,5.5-4.2,7.6c-7.2,2.1-11.9,0.1-12.9-0.4c-1-0.5-2.7-1.4-1.4-3.4c1.3-1.9,11.9-17.2,6.4-18.4
		c-5.5-1.2-9.5-5.8-9.4-10.5C554.5,402.8,558.7,403,559.2,394.1z"/>
</g>
<g>
	<path style="fill:none;stroke:#FF6600;stroke-miterlimit:10;" d="M652.4,389.7c0,0-2.8-3-4.2-7.5c-1.4-4.5-2.3-10.7,0.6-10.5
		c2.9,0.1,5.8,5.1,5.8,5.1s0.3-6.4,3.2-2.9s3.6,9,3.6,9s4.2-4.7,7.8-6.4c3.6-1.7,8.3-4.2,5.2,3.2c0,0,9.2-8.6,12.2-6.8
		c3,1.8-2.1,21.7-13.1,24c0,0,3.7,8.3-0.5,16.2c-4.2,7.8-3.5,13-3.4,13.9s1.5,5.4-3.2,9.2c-4.7,3.9-9.6,1.3-10.6,0
		c-1-1.3-0.7-3.1,0.8-4.2c1.5-1.1,3.7-3.7,3.4-6.1c-0.3-2.4-1.3-3.2-2.9-3.3c-1.6-0.1-8.7,0-12.4-2.9c-3.8-2.9-4.4-5.1-4.4-6.7
		c0.1-1.7,1.1-3.1,2.5-2.9c1.3,0.2,3.9-0.7,3.9-3.4C646.7,404.1,646.1,392.5,652.4,389.7z"/>
</g>
<circle style="fill:none;stroke:#808080;" cx="86.9" cy="181.1" r="4.2"/>
<circle style="fill:none;stroke:#808080;" cx="207.6" cy="181.1" r="4.2"/>
<g>
	<defs>
		<rect id="SVGID_7_" x="67.1" y="-17.5" width="169" height="200"/>
	</defs>
	<clipPath id="SVGID_8_">
		<use xlink:href="#SVGID_7_"  style="overflow:visible;"/>
	</clipPath>
	<path style="clip-path:url(#SVGID_8_);fill:none;stroke:#999999;" d="M208.7,164.9c0,90-27.4,163-61.2,163s-61.2-73-61.2-163
		c0-90,27.4-163,61.2-163C179.6,1.9,208.7,74.9,208.7,164.9z"/>
</g>
<circle style="fill:none;stroke:#808080;" cx="597.2" cy="181.1" r="4.2"/>
<circle style="fill:none;stroke:#808080;" cx="717.9" cy="181.1" r="4.2"/>
<g>
	<defs>
		<rect id="SVGID_9_" x="577.4" y="-17.5" width="169" height="200"/>
	</defs>
	<clipPath id="SVGID_10_">
		<use xlink:href="#SVGID_9_"  style="overflow:visible;"/>
	</clipPath>
	<path style="clip-path:url(#SVGID_10_);fill:none;stroke:#999999;" d="M719,164.9c0,90-27.4,163-61.2,163c-33.8,0-61.2-73-61.2-163
		c0-90,27.4-163,61.2-163C689.9,1.9,719,74.9,719,164.9z"/>
</g>
<rect x="390.2" y="520.4" style="fill:#FFFFFF;" width="35.6" height="35.6"/>
<g>
	<rect x="415.5" y="528.2" width="1.3" height="1.3"/>
	<rect x="416.7" y="529.5" width="1.2" height="1.2"/>
	<rect x="416.7" y="531.9" width="1.2" height="1.3"/>
	<rect x="410.5" y="528.2" width="1.3" height="1.3"/>
	<rect x="416.7" y="536.9" width="1.2" height="1.3"/>
	<rect x="416.7" y="543.2" width="1.2" height="1.3"/>
	<rect x="416.7" y="533.2" width="1.2" height="1.2"/>
	<rect x="416.7" y="538.2" width="1.2" height="1.3"/>
	<rect x="408" y="528.2" width="1.3" height="1.3"/>
	<rect x="398" y="538.2" width="1.2" height="1.3"/>
	<rect x="398" y="533.2" width="1.2" height="1.2"/>
	<rect x="398" y="541.9" width="1.2" height="1.3"/>
	<rect x="403" y="528.2" width="1.2" height="1.3"/>
	<rect x="398" y="529.5" width="1.2" height="1.2"/>
	<rect x="399.2" y="528.2" width="1.3" height="1.3"/>
	<rect x="399.2" y="531.9" width="1.3" height="1.3"/>
	<rect x="399.2" y="529.5" width="1.3" height="1.2"/>
	<rect x="399.2" y="533.2" width="1.3" height="1.2"/>
	<rect x="399.2" y="536.9" width="1.3" height="1.3"/>
	<rect x="399.2" y="535.7" width="1.3" height="1.3"/>
	<rect x="399.2" y="534.4" width="1.3" height="1.2"/>
	<rect x="404.2" y="529.5" width="1.3" height="1.2"/>
	<rect x="410.5" y="529.5" width="1.3" height="1.2"/>
	<rect x="413" y="529.5" width="1.3" height="1.2"/>
	<rect x="406.7" y="529.5" width="1.3" height="1.2"/>
	<rect x="408" y="529.5" width="1.3" height="1.2"/>
	<rect x="408" y="546.9" width="1.3" height="1.3"/>
	<rect x="410.5" y="546.9" width="1.3" height="1.3"/>
	<rect x="405.5" y="546.9" width="1.2" height="1.3"/>
	<rect x="413" y="546.9" width="1.3" height="1.3"/>
	<rect x="404.2" y="546.9" width="1.3" height="1.3"/>
	<rect x="399.2" y="543.2" width="1.3" height="1.3"/>
	<rect x="399.2" y="541.9" width="1.3" height="1.3"/>
	<rect x="399.2" y="540.7" width="1.3" height="1.2"/>
	<rect x="399.2" y="546.9" width="1.3" height="1.3"/>
	<rect x="399.2" y="545.7" width="1.3" height="1.2"/>
	<rect x="404.2" y="549.4" width="1.3" height="1.3"/>
	<rect x="396.7" y="529.5" width="1.3" height="1.2"/>
	<rect x="396.7" y="538.2" width="1.3" height="1.3"/>
	<rect x="396.7" y="536.9" width="1.3" height="1.3"/>
	<rect x="396.7" y="527" width="1.3" height="1.3"/>
	<rect x="396.7" y="534.4" width="1.3" height="1.2"/>
	<rect x="396.7" y="539.4" width="1.3" height="1.3"/>
	<rect x="406.7" y="527" width="1.3" height="1.3"/>
	<rect x="404.2" y="527" width="1.3" height="1.3"/>
	<rect x="408" y="527" width="1.3" height="1.3"/>
	<rect x="399.2" y="527" width="1.3" height="1.3"/>
	<rect x="398" y="545.7" width="1.2" height="1.2"/>
	<rect x="396.7" y="540.7" width="1.3" height="1.2"/>
	<rect x="408" y="549.4" width="1.3" height="1.3"/>
	<rect x="410.5" y="549.4" width="1.3" height="1.3"/>
	<rect x="405.5" y="549.4" width="1.2" height="1.3"/>
	<rect x="399.2" y="549.4" width="1.3" height="1.3"/>
	<rect x="396.7" y="545.7" width="1.3" height="1.2"/>
	<rect x="396.7" y="549.4" width="1.3" height="1.3"/>
	<rect x="396.7" y="548.2" width="1.3" height="1.3"/>
	<rect x="415.5" y="529.5" width="1.3" height="1.2"/>
	<rect x="414.2" y="548.2" width="1.2" height="1.3"/>
	<rect x="413" y="548.2" width="1.3" height="1.3"/>
	<rect x="410.5" y="548.2" width="1.3" height="1.3"/>
	<rect x="408" y="548.2" width="1.3" height="1.3"/>
	<rect x="418" y="548.2" width="1.3" height="1.3"/>
	<rect x="415.5" y="548.2" width="1.3" height="1.3"/>
	<rect x="418" y="546.9" width="1.3" height="1.3"/>
	<rect x="416.7" y="548.2" width="1.2" height="1.3"/>
	<rect x="418" y="545.7" width="1.3" height="1.2"/>
	<rect x="399.2" y="548.2" width="1.3" height="1.3"/>
	<rect x="405.5" y="548.2" width="1.2" height="1.3"/>
	<rect x="406.7" y="548.2" width="1.3" height="1.3"/>
	<rect x="403" y="548.2" width="1.2" height="1.3"/>
	<rect x="401.7" y="548.2" width="1.3" height="1.3"/>
	<rect x="418" y="541.9" width="1.3" height="1.3"/>
	<rect x="418" y="531.9" width="1.3" height="1.3"/>
	<rect x="418" y="529.5" width="1.3" height="1.2"/>
	<rect x="418" y="527" width="1.3" height="1.3"/>
	<rect x="411.7" y="527" width="1.2" height="1.3"/>
	<rect x="413" y="527" width="1.3" height="1.3"/>
	<rect x="415.5" y="527" width="1.3" height="1.3"/>
	<rect x="418" y="539.4" width="1.3" height="1.3"/>
	<rect x="418" y="543.2" width="1.3" height="1.3"/>
	<rect x="418" y="544.4" width="1.3" height="1.3"/>
	<rect x="418" y="534.4" width="1.3" height="1.2"/>
	<rect x="413" y="535.7" width="1.3" height="1.3"/>
	<rect x="403" y="535.7" width="1.2" height="1.3"/>
	<rect x="409.2" y="533.2" width="1.2" height="1.2"/>
	<rect x="411.7" y="536.9" width="1.2" height="1.3"/>
	<rect x="411.7" y="534.4" width="1.2" height="1.2"/>
	<rect x="405.5" y="533.2" width="1.2" height="1.2"/>
	<rect x="413" y="538.2" width="1.3" height="1.3"/>
	<rect x="413" y="540.7" width="1.3" height="1.2"/>
	<rect x="413" y="536.9" width="1.3" height="1.3"/>
	<rect x="413" y="531.9" width="1.3" height="1.3"/>
	<rect x="413" y="534.4" width="1.3" height="1.2"/>
	<rect x="403" y="541.9" width="1.2" height="1.3"/>
	<rect x="411.7" y="531.9" width="1.2" height="1.3"/>
	<rect x="413" y="543.2" width="1.3" height="1.3"/>
	<rect x="405.5" y="543.2" width="1.2" height="1.3"/>
	<rect x="411.7" y="543.2" width="1.2" height="1.3"/>
	<rect x="410.5" y="543.2" width="1.3" height="1.3"/>
	<rect x="405.5" y="535.7" width="1.2" height="1.3"/>
	<rect x="405.5" y="536.9" width="1.2" height="1.3"/>
	<rect x="406.7" y="535.7" width="1.3" height="1.3"/>
	<rect x="408" y="535.7" width="1.3" height="1.3"/>
	<rect x="406.7" y="540.7" width="1.3" height="1.2"/>
	<rect x="405.5" y="539.4" width="1.2" height="1.3"/>
	<rect x="409.2" y="535.7" width="1.2" height="1.3"/>
	<rect x="405.5" y="540.7" width="1.2" height="1.2"/>
	<rect x="405.5" y="538.2" width="1.2" height="1.3"/>
	<rect x="406.7" y="538.2" width="1.3" height="1.3"/>
	<rect x="408" y="538.2" width="1.3" height="1.3"/>
	<rect x="409.2" y="538.2" width="1.2" height="1.3"/>
	<rect x="408" y="539.4" width="1.3" height="1.3"/>
	<rect x="404.2" y="539.4" width="1.3" height="1.3"/>
	<rect x="404.2" y="535.7" width="1.3" height="1.3"/>
	<rect x="404.2" y="538.2" width="1.3" height="1.3"/>
	<rect x="404.2" y="541.9" width="1.3" height="1.3"/>
	<rect x="408" y="541.9" width="1.3" height="1.3"/>
	<rect x="410.5" y="540.7" width="1.3" height="1.2"/>
	<rect x="410.5" y="538.2" width="1.3" height="1.3"/>
	<rect x="405.5" y="534.4" width="1.2" height="1.2"/>
	<rect x="410.5" y="539.4" width="1.3" height="1.3"/>
	<rect x="409.2" y="534.4" width="1.2" height="1.2"/>
	<rect x="409.2" y="541.9" width="1.2" height="1.3"/>
	<rect x="400.5" y="541.9" width="1.2" height="1.3"/>
	<rect x="404.2" y="545.7" width="1.3" height="1.2"/>
	<rect x="401.7" y="545.7" width="1.3" height="1.2"/>
	<rect x="403" y="530.7" width="1.2" height="1.3"/>
	<rect x="404.2" y="530.7" width="1.3" height="1.3"/>
	<rect x="400.5" y="535.7" width="1.2" height="1.3"/>
	<rect x="400.5" y="533.2" width="1.2" height="1.2"/>
	<rect x="401.7" y="530.7" width="1.3" height="1.3"/>
	<rect x="415.5" y="540.7" width="1.3" height="1.2"/>
	<rect x="415.5" y="541.9" width="1.3" height="1.3"/>
	<rect x="415.5" y="543.2" width="1.3" height="1.3"/>
	<rect x="415.5" y="535.7" width="1.3" height="1.3"/>
	<rect x="415.5" y="533.2" width="1.3" height="1.2"/>
	<rect x="408" y="545.7" width="1.3" height="1.2"/>
	<rect x="406.7" y="545.7" width="1.3" height="1.2"/>
	<rect x="415.5" y="545.7" width="1.3" height="1.2"/>
	<rect x="413" y="545.7" width="1.3" height="1.2"/>
	<rect x="401.7" y="539.4" width="1.3" height="1.3"/>
	<rect x="401.7" y="544.4" width="1.3" height="1.3"/>
	<rect x="401.7" y="538.2" width="1.3" height="1.3"/>
	<rect x="408" y="531.9" width="1.3" height="1.3"/>
	<rect x="404.2" y="531.9" width="1.3" height="1.3"/>
	<rect x="401.7" y="535.7" width="1.3" height="1.3"/>
	<rect x="401.7" y="531.9" width="1.3" height="1.3"/>
	<rect x="414.2" y="531.9" width="1.2" height="1.3"/>
	<rect x="408" y="544.4" width="1.3" height="1.3"/>
	<rect x="411.7" y="530.7" width="1.2" height="1.3"/>
	<rect x="410.5" y="530.7" width="1.3" height="1.3"/>
	<rect x="413" y="544.4" width="1.3" height="1.3"/>
	<rect x="414.2" y="543.2" width="1.2" height="1.3"/>
	<rect x="414.2" y="539.4" width="1.2" height="1.3"/>
	<rect x="419.2" y="536.9" width="1.2" height="1.3"/>
	<rect x="392.9" y="536.9" width="1.2" height="1.3"/>
	<rect x="392.9" y="545.7" width="1.2" height="1.2"/>
	<rect x="392.9" y="541.9" width="1.2" height="1.3"/>
	<rect x="392.9" y="533.2" width="1.2" height="1.2"/>
	<rect x="392.9" y="529.5" width="1.2" height="1.2"/>
	<rect x="392.9" y="531.9" width="1.2" height="1.3"/>
	<rect x="405.5" y="553.1" width="1.2" height="1.3"/>
	<rect x="403" y="553.1" width="1.2" height="1.3"/>
	<rect x="411.7" y="553.1" width="1.2" height="1.3"/>
	<rect x="409.2" y="553.1" width="1.2" height="1.3"/>
	<rect x="408" y="553.1" width="1.3" height="1.3"/>
	<rect x="396.7" y="553.1" width="1.3" height="1.3"/>
	<rect x="392.9" y="553.1" width="1.2" height="1.3"/>
	<rect x="413" y="553.1" width="1.3" height="1.3"/>
	<rect x="398" y="553.1" width="1.2" height="1.3"/>
	<rect x="394.2" y="553.1" width="1.3" height="1.3"/>
	<rect x="399.2" y="553.1" width="1.3" height="1.3"/>
	<rect x="395.5" y="553.1" width="1.2" height="1.3"/>
	<rect x="421.7" y="535.7" width="1.2" height="1.3"/>
	<rect x="421.7" y="529.5" width="1.2" height="1.2"/>
	<rect x="421.7" y="546.9" width="1.2" height="1.3"/>
	<rect x="421.7" y="538.2" width="1.2" height="1.3"/>
	<rect x="421.7" y="548.2" width="1.2" height="1.3"/>
	<rect x="421.7" y="539.4" width="1.2" height="1.3"/>
	<rect x="421.7" y="543.2" width="1.2" height="1.3"/>
	<rect x="403" y="523.2" width="1.2" height="1.3"/>
	<rect x="409.2" y="523.2" width="1.2" height="1.3"/>
	<rect x="408" y="523.2" width="1.3" height="1.3"/>
	<rect x="406.7" y="523.2" width="1.3" height="1.3"/>
	<rect x="404.2" y="523.2" width="1.3" height="1.3"/>
	<rect x="399.2" y="523.2" width="1.3" height="1.3"/>
	<rect x="415.5" y="523.2" width="1.3" height="1.3"/>
	<rect x="411.7" y="523.2" width="1.2" height="1.3"/>
	<rect x="410.5" y="523.2" width="1.3" height="1.3"/>
	<rect x="394.2" y="522" width="1.3" height="1.3"/>
	<rect x="392.9" y="522" width="1.2" height="1.3"/>
	<rect x="395.5" y="522" width="1.2" height="1.3"/>
	<rect x="391.7" y="522" width="1.3" height="1.3"/>
	<rect x="396.7" y="522" width="1.3" height="1.3"/>
	<rect x="391.7" y="527" width="1.3" height="1.3"/>
	<rect x="391.7" y="523.2" width="1.3" height="1.3"/>
	<rect x="398" y="522" width="1.2" height="1.3"/>
	<rect x="391.7" y="524.5" width="1.3" height="1.2"/>
	<rect x="406.7" y="522" width="1.3" height="1.3"/>
	<rect x="408" y="522" width="1.3" height="1.3"/>
	<rect x="391.7" y="528.2" width="1.3" height="1.3"/>
	<rect x="404.2" y="522" width="1.3" height="1.3"/>
	<rect x="399.2" y="522" width="1.3" height="1.3"/>
	<rect x="403" y="522" width="1.2" height="1.3"/>
	<rect x="391.7" y="546.9" width="1.3" height="1.3"/>
	<rect x="391.7" y="545.7" width="1.3" height="1.2"/>
	<rect x="391.7" y="541.9" width="1.3" height="1.3"/>
	<rect x="391.7" y="548.2" width="1.3" height="1.3"/>
	<rect x="391.7" y="549.4" width="1.3" height="1.3"/>
	<rect x="391.7" y="553.1" width="1.3" height="1.3"/>
	<rect x="391.7" y="529.5" width="1.3" height="1.2"/>
	<rect x="391.7" y="550.7" width="1.3" height="1.2"/>
	<rect x="391.7" y="551.9" width="1.3" height="1.3"/>
	<rect x="391.7" y="534.4" width="1.3" height="1.2"/>
	<rect x="391.7" y="533.2" width="1.3" height="1.2"/>
	<rect x="391.7" y="539.4" width="1.3" height="1.3"/>
	<rect x="391.7" y="536.9" width="1.3" height="1.3"/>
	<rect x="391.7" y="525.7" width="1.3" height="1.3"/>
	<rect x="423" y="545.7" width="1.3" height="1.2"/>
	<rect x="423" y="543.2" width="1.3" height="1.3"/>
	<rect x="423" y="548.2" width="1.3" height="1.3"/>
	<rect x="423" y="536.9" width="1.3" height="1.3"/>
	<rect x="423" y="539.4" width="1.3" height="1.3"/>
	<rect x="423" y="549.4" width="1.3" height="1.3"/>
	<rect x="423" y="540.7" width="1.3" height="1.2"/>
	<rect x="423" y="546.9" width="1.3" height="1.3"/>
	<rect x="411.7" y="522" width="1.2" height="1.3"/>
	<rect x="418" y="553.1" width="1.3" height="1.3"/>
	<rect x="415.5" y="553.1" width="1.3" height="1.3"/>
	<rect x="420.5" y="553.1" width="1.3" height="1.3"/>
	<rect x="423" y="553.1" width="1.3" height="1.3"/>
	<rect x="419.2" y="522" width="1.2" height="1.3"/>
	<rect x="423" y="535.7" width="1.3" height="1.3"/>
	<rect x="421.7" y="522" width="1.2" height="1.3"/>
	<rect x="423" y="522" width="1.3" height="1.3"/>
	<rect x="418" y="522" width="1.3" height="1.3"/>
	<rect x="415.5" y="522" width="1.3" height="1.3"/>
	<rect x="416.7" y="522" width="1.2" height="1.3"/>
	<rect x="423" y="523.2" width="1.3" height="1.3"/>
	<rect x="420.5" y="522" width="1.3" height="1.3"/>
	<rect x="423" y="531.9" width="1.3" height="1.3"/>
	<rect x="423" y="524.5" width="1.3" height="1.2"/>
	<rect x="423" y="534.4" width="1.3" height="1.2"/>
	<rect x="423" y="525.7" width="1.3" height="1.3"/>
	<rect x="423" y="527" width="1.3" height="1.3"/>
	<rect x="423" y="529.5" width="1.3" height="1.2"/>
	<rect x="423" y="528.2" width="1.3" height="1.3"/>
	<rect x="395.5" y="545.7" width="1.2" height="1.2"/>
	<rect x="395.5" y="543.2" width="1.2" height="1.3"/>
	<rect x="395.5" y="549.4" width="1.2" height="1.3"/>
	<rect x="395.5" y="550.7" width="1.2" height="1.2"/>
	<rect x="395.5" y="548.2" width="1.2" height="1.3"/>
	<rect x="396.7" y="550.7" width="1.3" height="1.2"/>
	<rect x="395.5" y="529.5" width="1.2" height="1.2"/>
	<rect x="395.5" y="531.9" width="1.2" height="1.3"/>
	<rect x="395.5" y="527" width="1.2" height="1.3"/>
	<rect x="416.7" y="550.7" width="1.2" height="1.2"/>
	<rect x="411.7" y="550.7" width="1.2" height="1.2"/>
	<rect x="399.2" y="550.7" width="1.3" height="1.2"/>
	<rect x="420.5" y="550.7" width="1.3" height="1.2"/>
	<rect x="419.2" y="550.7" width="1.2" height="1.2"/>
	<rect x="420.5" y="548.2" width="1.3" height="1.3"/>
	<rect x="404.2" y="550.7" width="1.3" height="1.2"/>
	<rect x="401.7" y="550.7" width="1.3" height="1.2"/>
	<rect x="408" y="550.7" width="1.3" height="1.2"/>
	<rect x="405.5" y="550.7" width="1.2" height="1.2"/>
	<rect x="419.2" y="539.4" width="1.2" height="1.3"/>
	<rect x="419.2" y="538.2" width="1.2" height="1.3"/>
	<rect x="419.2" y="534.4" width="1.2" height="1.2"/>
	<rect x="419.2" y="535.7" width="1.2" height="1.3"/>
	<rect x="419.2" y="529.5" width="1.2" height="1.2"/>
	<rect x="416.7" y="549.4" width="1.2" height="1.3"/>
	<rect x="403" y="525.7" width="1.2" height="1.3"/>
	<rect x="404.2" y="525.7" width="1.3" height="1.3"/>
	<rect x="395.5" y="525.7" width="1.2" height="1.3"/>
	<rect x="419.2" y="527" width="1.2" height="1.3"/>
	<rect x="396.7" y="525.7" width="1.3" height="1.3"/>
	<rect x="399.2" y="525.7" width="1.3" height="1.3"/>
	<rect x="401.7" y="525.7" width="1.3" height="1.3"/>
	<rect x="418" y="525.7" width="1.3" height="1.3"/>
	<rect x="415.5" y="525.7" width="1.3" height="1.3"/>
	<rect x="421.7" y="550.7" width="1.2" height="1.2"/>
	<rect x="411.7" y="525.7" width="1.2" height="1.3"/>
	<rect x="410.5" y="525.7" width="1.3" height="1.3"/>
	<rect x="419.2" y="525.7" width="1.2" height="1.3"/>
	<rect x="394.2" y="545.7" width="1.3" height="1.2"/>
	<rect x="394.2" y="548.2" width="1.3" height="1.3"/>
	<rect x="394.2" y="543.2" width="1.3" height="1.3"/>
	<rect x="394.2" y="541.9" width="1.3" height="1.3"/>
	<rect x="394.2" y="549.4" width="1.3" height="1.3"/>
	<rect x="394.2" y="550.7" width="1.3" height="1.2"/>
	<rect x="394.2" y="533.2" width="1.3" height="1.2"/>
	<rect x="394.2" y="534.4" width="1.3" height="1.2"/>
	<rect x="394.2" y="536.9" width="1.3" height="1.3"/>
	<rect x="414.2" y="551.9" width="1.2" height="1.3"/>
	<rect x="413" y="551.9" width="1.3" height="1.3"/>
	<rect x="421.7" y="551.9" width="1.2" height="1.3"/>
	<rect x="420.5" y="551.9" width="1.3" height="1.3"/>
	<rect x="419.2" y="551.9" width="1.2" height="1.3"/>
	<rect x="399.2" y="551.9" width="1.3" height="1.3"/>
	<rect x="409.2" y="551.9" width="1.2" height="1.3"/>
	<rect x="403" y="551.9" width="1.2" height="1.3"/>
	<rect x="394.2" y="529.5" width="1.3" height="1.2"/>
	<rect x="408" y="551.9" width="1.3" height="1.3"/>
	<rect x="405.5" y="551.9" width="1.2" height="1.3"/>
	<rect x="420.5" y="529.5" width="1.3" height="1.2"/>
	<rect x="420.5" y="531.9" width="1.3" height="1.3"/>
	<rect x="420.5" y="527" width="1.3" height="1.3"/>
	<rect x="419.2" y="524.5" width="1.2" height="1.2"/>
	<rect x="418" y="524.5" width="1.3" height="1.2"/>
	<rect x="420.5" y="533.2" width="1.3" height="1.2"/>
	<rect x="420.5" y="524.5" width="1.3" height="1.2"/>
	<rect x="420.5" y="525.7" width="1.3" height="1.3"/>
	<rect x="420.5" y="539.4" width="1.3" height="1.3"/>
	<rect x="420.5" y="540.7" width="1.3" height="1.2"/>
	<rect x="420.5" y="535.7" width="1.3" height="1.3"/>
	<rect x="420.5" y="541.9" width="1.3" height="1.3"/>
	<rect x="399.2" y="524.5" width="1.3" height="1.2"/>
	<rect x="401.7" y="524.5" width="1.3" height="1.2"/>
	<rect x="396.7" y="524.5" width="1.3" height="1.2"/>
	<rect x="415.5" y="524.5" width="1.3" height="1.2"/>
	<rect x="394.2" y="525.7" width="1.3" height="1.3"/>
	<rect x="394.2" y="524.5" width="1.3" height="1.2"/>
	<rect x="395.5" y="524.5" width="1.2" height="1.2"/>
	<rect x="394.2" y="527" width="1.3" height="1.3"/>
	<rect x="411.7" y="524.5" width="1.2" height="1.2"/>
	<rect x="404.2" y="524.5" width="1.3" height="1.2"/>
	<rect x="409.2" y="524.5" width="1.2" height="1.2"/>
	<rect x="408" y="524.5" width="1.3" height="1.2"/>
</g>
<path style="fill:#FF6600;" d="M214.9,403.6"/>
<g>
	<defs>
		<path id="SVGID_11_" d="M754,382.8c0,0,5.1-1.8,6.4-1c1.3,0.9-1.4,8.2-8.1,9.8c0,0,1.5,1.6,1.9,2.5c0,0,9.4-6.5,11.5-8.2
			c2-1.7,5.4-2.3,5.7,1.2c0.4,3.4-4.9,12.9-15.2,12c0,0,2.4,7.7-1.6,15c-4,7.3,1.1,12.9,2.2,13.9c1.1,1,0.8,2.1-0.6,3.8
			c-1.4,1.7-5,4.6-7.6,5.7c-2.6,1.1-9.2,3.5-8.7,0c0.4-3.5,2-17.1-1.5-17.7c-5.7-0.9-11.8-2.6-15.9-12.1c-0.4-1.1-2.3-6.7,3.5-4.8
			c0.8,0.2,1.1,0.4,2.2,0c0.7-0.2,1.5-0.8,2.1-1.6c1.5-1.7,6.3-8.3,10.3-8.7c0,0-2.3-2.5-3.1-8.2c-0.8-5.7-0.8-18.5,5.7-3.8
			c0,0,2.4-9.5,6-8.9C752.9,372.3,754.5,379.7,754,382.8z"/>
	</defs>
	<use xlink:href="#SVGID_11_"  style="overflow:visible;fill:#FF6600;"/>
	<clipPath id="SVGID_12_">
		<use xlink:href="#SVGID_11_"  style="overflow:visible;"/>
	</clipPath>
</g>
</svg>
