<?xml version="1.0" encoding="utf-8"?>
<!-- Generator: Adobe Illustrator 17.1.0, SVG Export Plug-In . SVG Version: 6.00 Build 0)  -->
<!DOCTYPE svg PUBLIC "-//W3C//DTD SVG 1.1//EN" "http://www.w3.org/Graphics/SVG/1.1/DTD/svg11.dtd">
<svg version="1.1" id="图层_1" xmlns="http://www.w3.org/2000/svg" xmlns:xlink="http://www.w3.org/1999/xlink" x="0px" y="0px"
	 viewBox="0 0 871.7 631.7" style="enable-background:new 0 0 871.7 631.7;" xml:space="preserve">
<rect x="2.1" y="1.6" style="fill:#FFFFFF;stroke:#DDDDDD;stroke-miterlimit:10;" width="866.8" height="626.9"/>
<g>
	<g id="形状_2_copy_3_副本_4_6_">
		<g>
			<path style="fill-rule:evenodd;clip-rule:evenodd;fill:#CCCCCC;" d="M795.3,596.6c-1,2-1.9,3.7-3,5.8h1.4
				c0.3-0.5,0.4-0.8,0.7-1.4c0.7,0,1.3,0,2.1,0c-0.2-0.4-0.3-0.8-0.4-1.1H795c0.3-0.7,0.5-1,1-1.9c0.5,1.5,1.1,3,1.6,4.4h1.3
				c-0.7-2-1.4-3.8-2.1-5.8H795.3z M799.3,602.4h1.2l0.3-5.8l-1.2,0L799.3,602.4z M801.2,602.4h1.3l0.2-4.3h-1.3L801.2,602.4z
				 M801.5,596.6l0,0.9c0,0,1,0,1.2,0l0-0.9C801.6,596.6,801.6,596.6,801.5,596.6z M809.5,598.1c-0.2-0.1-0.5-0.1-0.7-0.1
				c-0.1,0-0.3,0-0.4,0c-0.1,0-0.3,0.1-0.4,0.1c-0.1,0-0.2,0.1-0.3,0.2c-0.1,0.1-0.2,0.1-0.2,0.2c-0.1,0.1-0.1,0.1-0.2,0.2
				c-0.1-0.1-0.1-0.2-0.2-0.3c0-0.1-0.1-0.1-0.2-0.2c-0.1-0.1-0.2-0.1-0.3-0.1c-0.1,0-0.2-0.1-0.3-0.1c-0.1,0-0.2,0-0.4,0
				c-0.2,0-0.3,0-0.5,0.1c-0.2,0-0.3,0.1-0.4,0.2c-0.1,0.1-0.2,0.1-0.3,0.2c-0.1,0.1-0.2,0.2-0.3,0.3l0-0.7h-1.2l-0.2,4.3
				c0,0,1,0,1.2,0c0-0.4,0-0.9,0-1.5c0-0.6,0.1-1,0.2-1.3c0.1-0.2,0.2-0.4,0.3-0.5c0.2-0.1,0.3-0.2,0.5-0.2c0.1,0,0.2,0,0.3,0.1
				c0.1,0,0.2,0.1,0.2,0.2c0.1,0.1,0.1,0.2,0.1,0.2c0,0.1,0,0.2,0,0.3c0,0.2,0,0.7-0.1,1.4c0,0.7-0.1,1.1-0.1,1.3c0.3,0,1,0,1.2,0
				l0-1.2c0-0.4,0-0.8,0.1-1c0-0.3,0.1-0.5,0.1-0.6c0-0.1,0.1-0.3,0.2-0.4c0.1-0.1,0.2-0.2,0.3-0.2c0.1,0,0.2-0.1,0.4-0.1
				c0.1,0,0.2,0,0.3,0.1c0.1,0,0.2,0.1,0.2,0.2c0.1,0.1,0.1,0.3,0.1,0.5c0,0.2,0,0.4,0,0.6l-0.1,1c0,0.4,0,0.8-0.1,1.1
				c0.3,0,1,0,1.2,0c0-0.3,0-0.8,0-1.4c0-0.6,0.1-1,0.1-1.3c0-0.3,0-0.5,0-0.6c0-0.3-0.1-0.5-0.2-0.6
				C809.9,598.3,809.7,598.2,809.5,598.1z M814.1,598.1c-0.3-0.1-0.6-0.1-0.9-0.1c-0.3,0-0.6,0-0.9,0.1c-0.3,0-1,0.2-1,0.2l-0.1,0.8
				c0,0,1.2-0.4,1.7-0.4c0.1,0,0.3,0,0.4,0c0.1,0,0.2,0.1,0.3,0.2c0.1,0.1,0.1,0.2,0.1,0.3c0,0.1,0,0.1,0,0.2c0,0.1-0.1,0.1-0.1,0.2
				c-0.1,0-0.1,0.1-0.2,0.1c-0.1,0-0.2,0.1-0.3,0.1c-0.1,0-0.2,0.1-0.3,0.1c-0.4,0.1-0.7,0.2-1,0.3c-0.2,0.1-0.4,0.2-0.6,0.3
				c-0.1,0.1-0.2,0.2-0.3,0.3c-0.1,0.1-0.1,0.2-0.2,0.3c0,0.1-0.1,0.2-0.1,0.4c0,0.2,0.1,0.4,0.2,0.6c0.1,0.2,0.3,0.4,0.5,0.5
				c0.2,0.1,0.5,0.1,0.9,0.1c0.1,0,0.2,0,0.3,0c0.1,0,0.3,0,0.5-0.1c0.1-0.3,0.2-0.6,0.2-0.7c-0.2,0.1-0.3,0.1-0.4,0.1
				c-0.1,0-0.2,0-0.3,0c-0.1,0-0.3,0-0.4-0.1c-0.1,0-0.2-0.1-0.3-0.2c-0.1-0.1-0.1-0.2-0.1-0.3c0-0.1,0-0.1,0-0.2
				c0-0.1,0.1-0.1,0.1-0.2c0.1-0.1,0.1-0.1,0.2-0.2c0.1,0,0.2-0.1,0.3-0.1c0.1,0,0.3-0.1,0.4-0.1c0.2,0,0.3-0.1,0.4-0.1
				c0.1,0,0.1-0.1,0.2-0.1c0.1,0,0.1-0.1,0.3-0.1l-0.1,2.2h1.2c0,0,0-1.4,0.1-2c0-0.7,0.1-1.1,0.1-1.2c0-0.3-0.1-0.5-0.2-0.7
				C814.6,598.3,814.4,598.1,814.1,598.1z M821.8,598.1c-0.2-0.1-0.5-0.1-0.7-0.1c-0.1,0-0.3,0-0.4,0c-0.1,0-0.3,0.1-0.4,0.1
				c-0.1,0-0.2,0.1-0.3,0.2c-0.1,0.1-0.2,0.1-0.2,0.2c-0.1,0.1-0.1,0.1-0.2,0.2c-0.1-0.1-0.1-0.2-0.2-0.3c0-0.1-0.1-0.1-0.2-0.2
				c-0.1-0.1-0.2-0.1-0.3-0.1c-0.1,0-0.2-0.1-0.3-0.1c-0.1,0-0.2,0-0.4,0c-0.2,0-0.3,0-0.5,0.1c-0.2,0-0.3,0.1-0.4,0.2
				c-0.1,0.1-0.2,0.1-0.3,0.2c-0.1,0.1-0.2,0.2-0.3,0.3l0-0.7h-1.2l-0.2,4.3h1.2c0,0,0-0.9,0-1.5c0-0.6,0.1-1,0.2-1.3
				c0.1-0.2,0.2-0.4,0.3-0.5c0.2-0.1,0.3-0.2,0.5-0.2c0.1,0,0.2,0,0.3,0.1c0.1,0,0.2,0.1,0.2,0.2c0.1,0.1,0.1,0.2,0.1,0.2
				c0,0.1,0,0.2,0,0.3c0,0.2,0,0.7-0.1,1.4c0,0.7-0.1,1.1-0.1,1.3c0.3,0,1,0,1.2,0l0-1.2c0-0.4,0-0.8,0.1-1c0-0.3,0.1-0.5,0.1-0.6
				c0-0.1,0.1-0.3,0.2-0.4c0.1-0.1,0.2-0.2,0.3-0.2c0.1,0,0.2-0.1,0.4-0.1c0.1,0,0.2,0,0.3,0.1c0.1,0,0.2,0.1,0.2,0.2
				c0.1,0.1,0.1,0.3,0.1,0.5c0,0.2,0,0.4,0,0.6l-0.1,1c0,0.4,0,0.8-0.1,1.1c0.3,0,1,0,1.2,0c0-0.3,0-0.8,0-1.4c0-0.6,0.1-1,0.1-1.3
				c0-0.3,0-0.5,0-0.6c0-0.3-0.1-0.5-0.2-0.6C822.2,598.3,822,598.2,821.8,598.1z M826.4,598.1c-0.3-0.1-0.6-0.1-0.9-0.1
				c-0.3,0-0.6,0-0.9,0.1c-0.3,0-1,0.2-1,0.2l-0.1,0.8c0,0,1.2-0.4,1.7-0.4c0.1,0,0.3,0,0.4,0c0.1,0,0.2,0.1,0.3,0.2
				c0.1,0.1,0.1,0.2,0.1,0.3c0,0.1,0,0.1,0,0.2c0,0.1-0.1,0.1-0.1,0.2c-0.1,0-0.1,0.1-0.2,0.1c-0.1,0-0.2,0.1-0.3,0.1
				c-0.1,0-0.2,0.1-0.3,0.1c-0.4,0.1-0.7,0.2-1,0.3c-0.2,0.1-0.4,0.2-0.6,0.3c-0.1,0.1-0.2,0.2-0.3,0.3c-0.1,0.1-0.1,0.2-0.2,0.3
				c0,0.1-0.1,0.2-0.1,0.4c0,0.2,0.1,0.4,0.2,0.6c0.1,0.2,0.3,0.4,0.5,0.5c0.2,0.1,0.5,0.1,0.9,0.1c0.1,0,0.2,0,0.3,0
				c0.1,0,0.3,0,0.5-0.1c0.1-0.3,0.2-0.6,0.2-0.7c-0.2,0.1-0.3,0.1-0.4,0.1c-0.1,0-0.2,0-0.3,0c-0.1,0-0.3,0-0.4-0.1
				c-0.1,0-0.2-0.1-0.3-0.2c-0.1-0.1-0.1-0.2-0.1-0.3c0-0.1,0-0.1,0-0.2c0-0.1,0.1-0.1,0.1-0.2c0.1-0.1,0.1-0.1,0.2-0.2
				c0.1,0,0.2-0.1,0.3-0.1c0.1,0,0.3-0.1,0.4-0.1c0.2,0,0.3-0.1,0.4-0.1c0.1,0,0.1-0.1,0.2-0.1c0.1,0,0.1-0.1,0.3-0.1l-0.1,2.2h1.2
				c0,0,0-1.4,0.1-2c0-0.7,0.1-1.1,0.1-1.2c0-0.3-0.1-0.5-0.2-0.7C826.9,598.3,826.7,598.1,826.4,598.1z M827.8,601.2
				c0,0.6,0,0.9,0,1.1c0.4,0,1.2,0,1.2,0s0-0.9,0.1-1.1C828.7,601.2,827.8,601.2,827.8,601.2z M831,599.2c0.1-0.1,0.3-0.2,0.4-0.3
				c0.2-0.1,0.4-0.1,0.6-0.1c0.3,0,0.7,0.1,1.1,0.2l-0.1-0.9c-0.3-0.1-0.5-0.1-0.7-0.1c-0.2,0-0.4,0-0.6,0c-0.3,0-0.6,0-0.9,0.1
				c-0.3,0.1-0.5,0.2-0.7,0.4c-0.2,0.2-0.4,0.5-0.5,0.8c-0.1,0.3-0.2,0.7-0.2,1c0,0.3,0,0.5,0.1,0.8c0.1,0.3,0.2,0.5,0.3,0.6
				c0.1,0.2,0.3,0.3,0.5,0.4c0.2,0.1,0.4,0.2,0.6,0.2c0.2,0,0.4,0.1,0.7,0.1c0.4,0,0.8,0,1.2-0.1c0-0.2,0.1-0.4,0.1-0.5
				c0-0.1,0-0.3,0.1-0.4c-0.2,0.1-0.4,0.1-0.6,0.2c-0.2,0-0.3,0-0.5,0c-0.3,0-0.5-0.1-0.7-0.2c-0.2-0.1-0.4-0.3-0.4-0.5
				c-0.1-0.2-0.1-0.4-0.1-0.7c0-0.2,0-0.4,0.1-0.6C830.8,599.5,830.9,599.4,831,599.2z M837.6,598.5c-0.2-0.2-0.5-0.3-0.8-0.4
				c-0.3-0.1-0.6-0.1-0.9-0.1c-0.4,0-0.7,0.1-1,0.2c-0.3,0.1-0.6,0.3-0.8,0.5c-0.2,0.2-0.4,0.5-0.5,0.8c-0.1,0.3-0.2,0.6-0.2,0.9
				c0,0.3,0.1,0.6,0.2,0.9c0.1,0.3,0.3,0.5,0.5,0.7c0.2,0.2,0.5,0.3,0.8,0.4c0.3,0.1,0.6,0.1,0.9,0.1c0.4,0,0.7-0.1,1-0.2
				c0.3-0.1,0.6-0.3,0.8-0.5c0.2-0.2,0.4-0.5,0.5-0.8c0.1-0.3,0.2-0.6,0.2-0.9c0-0.3-0.1-0.6-0.2-0.9
				C837.9,599,837.8,598.7,837.6,598.5z M836.8,600.9c-0.1,0.2-0.2,0.4-0.4,0.5c-0.2,0.1-0.4,0.2-0.7,0.2c-0.2,0-0.5-0.1-0.6-0.2
				c-0.2-0.1-0.3-0.3-0.4-0.5c-0.1-0.2-0.1-0.4-0.1-0.7c0-0.3,0-0.5,0.1-0.8c0.1-0.2,0.2-0.4,0.4-0.5c0.2-0.1,0.4-0.2,0.7-0.2
				c0.3,0,0.5,0.1,0.6,0.2c0.2,0.1,0.3,0.3,0.4,0.5c0.1,0.2,0.1,0.4,0.1,0.6C837,600.4,836.9,600.7,836.8,600.9z M845.3,598.5
				c-0.1-0.2-0.3-0.3-0.5-0.4c-0.2-0.1-0.5-0.1-0.7-0.1c-0.1,0-0.3,0-0.4,0c-0.1,0-0.3,0.1-0.4,0.1c-0.1,0-0.2,0.1-0.3,0.2
				c-0.1,0.1-0.2,0.1-0.2,0.2c-0.1,0.1-0.1,0.1-0.2,0.2c-0.1-0.1-0.1-0.2-0.2-0.3s-0.1-0.1-0.2-0.2c-0.1-0.1-0.2-0.1-0.3-0.1
				c-0.1,0-0.2-0.1-0.3-0.1c-0.1,0-0.2,0-0.4,0c-0.2,0-0.3,0-0.5,0.1c-0.2,0-0.3,0.1-0.4,0.2c-0.1,0.1-0.2,0.1-0.3,0.2
				c-0.1,0.1-0.2,0.2-0.3,0.3l0-0.7c-0.2,0-0.9,0-1.2,0c0,0.5-0.2,3.8-0.2,4.3c0.3,0,1,0,1.2,0c0-0.4,0-0.9,0-1.5
				c0-0.6,0.1-1,0.2-1.3c0.1-0.2,0.2-0.4,0.3-0.5c0.2-0.1,0.3-0.2,0.5-0.2c0.1,0,0.2,0,0.3,0.1c0.1,0,0.2,0.1,0.2,0.2
				c0.1,0.1,0.1,0.2,0.1,0.2c0,0.1,0,0.2,0,0.3c0,0.2,0,0.7-0.1,1.4c0,0.7-0.1,1.1-0.1,1.3c0.3,0,1,0,1.2,0l0-1.2c0-0.4,0-0.8,0.1-1
				c0-0.3,0.1-0.5,0.1-0.6c0-0.1,0.1-0.3,0.2-0.4c0.1-0.1,0.2-0.2,0.3-0.2c0.1,0,0.2-0.1,0.4-0.1c0.1,0,0.2,0,0.3,0.1
				c0.1,0,0.2,0.1,0.2,0.2c0.1,0.1,0.1,0.3,0.1,0.5c0,0.2,0,0.4,0,0.6l-0.1,1c0,0.4,0,0.8-0.1,1.1c0.3,0,1,0,1.2,0
				c0-0.3,0-0.8,0-1.4c0-0.6,0.1-1,0.1-1.3c0-0.3,0-0.5,0-0.6C845.5,598.9,845.4,598.6,845.3,598.5z"/>
		</g>
	</g>
	<g id="形状_2_copy_3_副本_5_6_">
		<g>
			<path style="fill-rule:evenodd;clip-rule:evenodd;fill:#FF6600;" d="M797.5,584.6c1.8,0,3.6,0,5.5,0c0,2.7,0,5.5,0,7.9
				c0,0.2-0.2,0.4-0.4,0.4c-0.3,0-0.4,0-0.8,0v1.3c0.4,0,0.8,0,1.2,0c1.1,0,1.8-0.5,1.8-1.4c0-2.1,0-6.2,0-8.3h0.6v-1.2h-7.9V584.6z
				 M825.5,590.3c-0.5,0-1.3,0.5-1.3,1.3c1.6,0,4.1,0,5.8,0c0,0.3,0,0.6,0,1c0.6,0,0.4,0,0.9,0c0.3,0,0.8-0.3,0.8-0.8
				c0-1.4,0-2.4,0-3.8c-0.3,0-0.5,0-0.8,0c0-1,0-3.2,0-4c0-0.3-0.3-0.7-0.7-0.7h-5.7v1.2h4.4c0,1.1,0,2.3,0,3.4c-1.1,0-1.2,0-2.1,0
				c-0.1,0-0.3-0.1-0.3-0.2c0-0.6,0-1.5,0-2.2c0-0.2-0.2-0.4-0.5-0.4h-1.3v3c0,0.6,0.5,1.1,1.1,1.1c0,0,2.2,0,4.1,0v1.1H825.5z
				 M802.2,590.7c0-1.4,0-3.4,0-5.4h-4.6v6.8c1.3,0,3,0,3,0C801.8,592.1,802.2,591.5,802.2,590.7z M800.2,590.9c-0.3,0-0.7,0-1.2,0
				v-4.3c0.5,0,1.1,0,1.5,0c0,1.3,0,2.7,0,3.9C800.6,590.7,800.5,590.9,800.2,590.9z M792.4,583.6c0,2.5,0,5.7,0,10.6h1.7
				c0-3.1,0-6.5,0-9.6c0.4,0,0.9,0,1.3,0c0,1.8,0,3.5,0,5.2c0,0.7-0.6,1-0.6,1v1.4c1.2,0,2.2-1.2,2.2-2.3c0-2,0-4.5,0-6.5
				c-1.5,0-2.7,0-4.2,0C792.4,583.3,792.4,583.6,792.4,583.6z M844.9,587.9c0-1,0-3.2,0-4c0-0.3-0.3-0.7-0.7-0.7h-5.7v1.2
				c1.5,0,2.9,0,4.4,0v3.4c-1.1,0-1.2,0-2.1,0c-0.1,0-0.3-0.1-0.3-0.2c0-0.6,0-1.5,0-2.2c0-0.2-0.2-0.4-0.5-0.4c-0.4,0-0.9,0-1.3,0
				v3c0,0.6,0.5,1.1,1.1,1.1c0,0,2.2,0,4.1,0v1.1h-4.5c-0.5,0-1.3,0.4-1.3,1.2c1.6,0,4.1,0,5.8,0v1.2c0,0.2-0.2,0.3-0.4,0.3h-0.7
				c0,0.6,0,0.9,0,1.2h1c0.3,0,0.2,0,0.6,0c0.9,0,1.2-0.6,1.2-1.1c0-1.6,0-3.6,0-5.2C845.4,587.9,845.1,587.9,844.9,587.9z
				 M836.8,592.1c0.6-0.7,0.9-1.4,1-2.9c0-1.6,0-3.2,0-4.8c0-0.1-0.2-0.3-0.3-0.3c-0.6,0-1.5,0-2.2,0v-0.8h-1.7c0,0.3,0,0.5,0,0.8
				c-0.2,0-0.4,0-0.6,0v1.2h0.6v3.9c0,1.5,0.5,2.3,1.1,2.9c-0.7,0.5-1.5,0.8-2.5,0.8c-0.1,0-0.3,0-0.4,0c-1.6,0-3.5,0-5.2,0
				c-1.6,0-3.1-0.3-3.7-1c0.5-0.7,0.8-1.3,1-2.8c0-1.5,0-2.8,0-4.7c0-0.2-0.2-0.4-0.4-0.4c-0.7,0-1.3,0-2.2,0v-0.8c-0.7,0-1,0-1.6,0
				v0.8c-0.2,0-0.3,0-0.6,0v1.2c0.3,0,0.4,0,0.6,0c0,1.3,0,2.7,0,3.9c0.1,1.5,0.6,2,1.2,2.9c-0.9,0.6-1.9,0.8-3.1,0.9
				c-1.4,0-2.7,0-4.6,0c0-0.3,0-0.7,0-1h4.6v-1.3h-4.6c0-0.3,0-0.6,0-1c1.3,0,3,0,3.4,0c0,0,1.1,0,1.1-1.2c0-1.3,0-3.5,0-5.2
				c-3.6,0-7.3,0-10.9,0c-0.2,0-0.3,0.2-0.3,0.3c0,0.3,0,4.2,0,6.1c1.5,0,3,0,4.6,0v1h-4.6c0,0.4,0,0.9,0,1.3h4.6c0,0.3,0,0.6,0,1
				h-5.3c0,0.4,0,0.8,0,1.2c4,0,9,0,12.9,0c1,0,2.4-0.5,3.3-1.1c1.2,0.9,2.5,1.1,4.6,1.1c0.7,0,1.4,0,2.2,0c1.1,0,2.1,0,3,0
				c1.8,0,3-0.4,4.1-1c1,0.6,2,1,3.6,1v0h2.4V593h-2.4C838.4,592.9,837.5,592.7,836.8,592.1z M811.1,588.5h-2.8v-1.3h2.8V588.5z
				 M811.2,585.9h-2.8v-1.3c0.9,0,1.9,0,2.8,0V585.9z M813.3,584.6h2.8v1.3h-2.8V584.6z M813.3,587.2c0.9,0,1.9,0,2.8,0
				c0,0.5,0,0.9,0,1.3h-2.8C813.3,588.1,813.3,587.6,813.3,587.2z M822.3,589.2c-0.1,0.9-0.2,1.1-0.4,1.6c-0.3-0.5-0.5-0.8-0.6-1.6
				c0-1.1,0-2.7,0-3.9h1V589.2z M836.2,589.2c0,0.8-0.2,1.2-0.4,1.6c-0.3-0.4-0.5-0.9-0.5-1.6c0-1.2,0-2.6,0-3.9h0.9
				C836.2,586.5,836.2,588,836.2,589.2z"/>
		</g>
	</g>
</g>
<g>
	<path style="fill:#FF6600;" d="M558.1,173.6h14.7c0.2-4.7,0.3-7.8,0.3-9.4h7.3c-0.2,3.8-0.3,7-0.3,9.4H595v6.4h-14.9
		c1.7,8.1,7.1,13.3,16,15.6c-0.4,0.5-1.1,1.3-1.9,2.2c-1.4,1.7-2.4,3-2.9,3.8c-7.3-2.8-12.3-7.3-14.7-13.7
		c-1.8,5.5-6.9,10.3-15.2,14.2c-1.4-2.2-2.9-4.1-4.5-5.7c9.5-3.6,14.7-9.1,15.6-16.4h-14.3V173.6z"/>
	<path style="fill:#FF6600;" d="M598.7,167.6l3.7-2.7c1.5,1.4,3,2.8,4.4,4.3l-3.6,2.6h3.7v-7.6h5.3v7.6h3.1l-2.9-2.6
		c1-0.7,2.4-2.2,4.4-4.5l3.7,2.9c-1.3,1.5-2.6,2.9-3.9,4.1h2.8v4.1c1.7-3.2,3.1-7.1,4-11.8l5.8,0.8c-0.1,0.2-0.2,0.5-0.3,1
		c-0.2,1-0.6,2.3-1.3,4h9.9v6.1h-2.1c-0.6,6.7-2,11.9-4,15.6c1.6,1.7,3.8,3.3,6.5,4.8c-1.2,1.7-2.4,3.6-3.6,5.7
		c-2.7-1.9-4.9-3.7-6.6-5.4c-1.7,1.7-3.9,3.6-6.6,5.7c-0.3-0.4-0.8-1.1-1.5-2.1c-0.5-0.7-1-1.3-1.3-1.8l-1.6,2.7
		c-0.6-0.3-1.6-0.8-2.9-1.4c-1.2-0.6-2.1-1.1-2.8-1.4c-2.5,1.6-6,2.9-10.7,4c-0.1-0.2-0.3-0.5-0.5-1c-0.8-1.9-1.4-3.2-1.8-4
		c1.6-0.3,3.6-0.8,6-1.4c0.3-0.1,0.6-0.2,0.8-0.2c-1.5-0.8-3.2-1.6-5.2-2.4c0.3-0.5,0.8-1.3,1.5-2.2c0.3-0.5,0.5-0.9,0.6-1.1h-3.2
		v-4.8h6c0.4-0.7,0.8-1.4,1.1-2.1h6c-0.1,0.2-0.3,0.5-0.6,1c-0.2,0.5-0.4,0.9-0.6,1.1h8.3v5.1c-1,1.7-2,3.2-3.1,4.6
		c0.3,0.1,0.8,0.3,1.3,0.5c0.9,0.4,1.5,0.7,1.9,0.8c2.3-1.6,4.1-3.2,5.5-4.8c-1.2-2.2-2.1-4.9-2.8-8c-0.1,0.2-0.3,0.6-0.6,1.1
		c-0.2,0.4-0.4,0.8-0.6,1.1c-0.6-1.3-1.2-2.3-1.6-3l-1.3,1.8c-1.2-0.8-2.9-2-5-3.3v1.4H607v-1.9c-1.9,1.6-4,2.9-6.2,4
		c-0.8-1.6-1.6-3.1-2.6-4.6c2.9-1.1,5.1-2.2,6.5-3.3h-5.8v-4.9h3.4c-0.2-0.2-0.5-0.5-0.8-1C600.1,169.3,599.2,168.2,598.7,167.6z
		 M606.7,191.3c1.3,0.4,2.6,1,3.9,1.6c1-0.8,1.7-1.8,2.3-2.9h-5.3C607.2,190.6,606.9,191,606.7,191.3z M614.6,177.3
		c1,0.5,2,1.1,3.2,1.8c0.5-0.8,1-1.6,1.3-2.4h-6.8v3.2L614.6,177.3z M625.5,175.8c0.4,3.8,1.2,7.2,2.4,10.2c1-2.3,1.6-5.7,1.9-10.2
		H625.5z"/>
	<path style="fill:#FF6600;" d="M649.1,164.1v6.9h2.6v5.9h-2.6v4.8c0.9,0,1.7-0.1,2.4-0.3c0,2.1,0,4.1,0,6.1
		c-0.8,0.1-1.6,0.3-2.4,0.5v8.4c0,0.4,0,0.8,0,1.1c2.5-3.6,3.6-9.9,3.4-18.8v-13.1h25.8v12.3h-7.6v2.6h8.3v4.9h-8.3v2.4h6.8V202
		h-5.7v-1.8h-7.9v1.8h-5.7v-13.4c-0.6,5-2.2,9.6-4.7,13.7c-1.2-1.3-2.7-2.8-4.5-4.5c-0.3,2.2-1.7,3.5-4,3.7
		c-1.4,0.1-2.8,0.2-4.2,0.2c-0.1-0.4-0.2-1-0.3-1.8c-0.2-1.6-0.4-2.9-0.6-4c0.5,0.1,1.2,0.2,1.9,0.2c1.1,0,1.6-0.5,1.6-1.4v-5.6
		c-0.3,0-0.8,0.1-1.3,0.3c-0.8,0.1-1.4,0.2-1.8,0.3l-0.5-6.7c1.3-0.2,2.5-0.4,3.6-0.5v-5.7h-2.9v-5.9h2.9v-6.9H649.1z M658.4,185.2
		c0,1.1-0.1,1.9-0.2,2.4h6.6v-2.4H658.4z M672.3,173.1v-2.6h-13.8v2.6H672.3z M658.5,179.7v0.6h6.3v-2.6h-6.3V179.7z M663.9,192.6
		v3.2h7.9v-3.2H663.9z"/>
	<path style="fill:#FF6600;" d="M704.7,163.9h6.2v2.1h9.4v4.8h-9.4v1.3h-6.2v-1.3h-7.5v1.3h-6.2v-1.3h-9.4V166h9.4v-2.1h6.2v2.1h7.5
		V163.9z M682.3,180.8v-8h37.3v8h-5.2v7.8h-27.1v-7.8H682.3z M684.4,202.1v-12h33v12H711v-1.4h-20.1v1.4H684.4z M688.6,177.1v1.4
		h24.6v-1.4H688.6z M690.9,194.7v1.9H711v-1.9H690.9z M708.1,182.7h-14.4v1.8h14.4V182.7z"/>
	<path style="fill:#FF6600;" d="M727,163.7l5.8,1c-0.1,0.4-0.3,1-0.6,1.8c-0.2,0.9-0.4,1.5-0.6,1.9h5l3.9-3.2
		c1.6,1.4,3.5,3.1,5.5,5.1l-4.5,3.7c-0.1-0.2-0.4-0.5-0.8-0.8c-1.6-1.9-2.9-3.3-3.9-4.1v4.5h-7.5c-0.3,0.9-0.8,1.7-1.3,2.6h7.9v5.3
		h-3.4v3h3.7v5.1h-3.7v4.6c0.4-0.3,1.2-0.8,2.4-1.4c0.5-0.3,1-0.5,1.3-0.6c0,2.7,0.1,4.5,0.2,5.6c-0.1,0.1-0.3,0.2-0.5,0.3
		c-2.6,1.3-4.4,2.3-5.3,3c-0.2,0.2-0.5,0.4-1,0.6c-0.4,0.3-0.8,0.5-1,0.6l-3.1-4.6c0.9-1,1.3-2.3,1.3-4v-4.1h-3.7v-5.1h3.7v-3h-2.8
		v-4.1c-0.1-0.3-0.4-0.8-0.8-1.4c-0.3-0.6-0.6-1.1-0.8-1.4C724.1,171.7,725.6,168.2,727,163.7z M758.3,165.2l3.9,3.8
		c-0.8,0.6-1.9,1.6-3.6,3c-1,0.9-1.8,1.5-2.4,2.1l-3.9-4.1v4.1h8.4v22c0.1,3.7-1.7,5.6-5.5,5.6c-0.5,0-1.4,0-2.6,0
		c-1.5,0.1-2.7,0.2-3.6,0.2c-0.3-1.6-0.7-3.3-1.1-5.3c1.5,0,3,0,4.4,0c1.6,0.1,2.4-0.6,2.3-2.2h-10.9v7.7h-6v-27.9h8.3v-10h6.3v5.7
		c1.4-1,3.2-2.3,5.5-4.1C758,165.4,758.2,165.3,758.3,165.2z M743.7,179.8v2.1h10.9v-2.1H743.7z M743.7,187v2.2h10.9V187H743.7z"/>
</g>
<g>
	<path style="fill:#FF6600;" d="M598.6,220.2h10.7c0.9-2,1.5-4,1.9-6.1l2.4,0.5c-0.2,0.6-0.5,1.6-1,2.9c-0.4,1.2-0.8,2.1-1,2.7h19
		v31.9h-2.3v-3h-27.5v3h-2.3V220.2z M600.9,222.3v11.3h27.5v-11.3H600.9z M600.9,235.7v11.6h27.5v-11.6H600.9z"/>
	<path style="fill:#FF6600;" d="M656.8,214.2h2.3v4.8h15.4l-0.8,8.3c-0.9-0.1-1.6-0.2-2.3-0.2l0.6-6.1h-13v9.2h12.1v2.4
		c-2.5,4.8-6,8.8-10.5,12.1c3.7,2,8.7,3.7,15.1,4.9c-0.5,0.8-1,1.6-1.3,2.4c-6.3-1.7-11.5-3.7-15.7-6.1c-4,2.4-9,4.7-14.9,6.7
		c-0.1-0.1-0.2-0.3-0.3-0.5c-0.4-0.7-0.8-1.3-1.1-1.8c5.6-1.6,10.4-3.5,14.4-5.7c-4.2-3.2-7.5-7.3-9.7-12.4h-3.7
		c0.1,8.3-1.6,14.9-5,19.9c-0.4-0.6-1.1-1.2-1.9-1.6c3.3-4.2,4.9-10.9,4.7-19.9V219h15.7V214.2z M643.3,221v9.2h13.4V221H643.3z
		 M668.9,232.4h-19.6c2.5,4.9,5.6,8.6,9.4,11C663.3,240.2,666.7,236.5,668.9,232.4z"/>
	<path style="fill:#FF6600;" d="M693.9,214.5h2.3v7.3h14.1l-0.8,11.5h5.8c-0.1,3.8-0.3,7-0.6,9.6c-0.1,3.3-2.3,4.9-6.5,4.9
		c-1.7,0-3.6,0-5.7,0c0-0.5-0.2-1.2-0.5-2.1c0.9,0.1,2.8,0.2,5.7,0.2c3.1,0.1,4.8-1,4.9-3.3c0.1-0.8,0.2-2.4,0.3-4.6
		c0.1-1.2,0.2-2,0.2-2.6h-16.8v17.1h-2.3v-17.1h-15.4v-2.1h15.4v-9.4h-12.6v-2.1h12.6V214.5z M707.8,223.9h-11.7v9.4h11L707.8,223.9
		z M706.2,217.1l1.5-1.6c0.6,0.5,1.7,1.3,3.2,2.2c2.5,1.7,4.3,2.9,5.3,3.7l-1.5,1.8c-0.6-0.4-1.6-1.1-2.8-1.9
		C709.4,219.3,707.5,217.9,706.2,217.1z"/>
</g>
<g>
	<path style="fill:#666666;" d="M190.7,574.1h1v-1.4h0.4v1.4h1v0.3h-1v1.5c0.3-0.1,0.7-0.2,1-0.3c0,0.1,0,0.2,0,0.4
		c-0.3,0.1-0.7,0.2-1,0.3v2c0,0.5-0.2,0.7-0.7,0.7c-0.2,0-0.4,0-0.6,0c0-0.1,0-0.3-0.1-0.4c0.1,0,0.2,0,0.3,0c0.1,0,0.2,0,0.3,0
		c0.2,0,0.4-0.1,0.4-0.4v-1.9c-0.1,0-0.2,0.1-0.4,0.1c-0.3,0.1-0.5,0.1-0.6,0.2l-0.1-0.4c0.1,0,0.3-0.1,0.6-0.2
		c0.2-0.1,0.4-0.1,0.5-0.1v-1.6h-1V574.1z M193.5,575.8h3.1v-2.2h-3.2v-0.4h3.6v5.9h-0.4v-0.4H193v-0.4h3.5v-2.3h-3.1V575.8z"/>
	<path style="fill:#666666;" d="M197.9,573.4h2.5v0.3h-1c-0.1,0.6-0.4,1.2-0.6,1.7h1.4v3.5h-0.3v-0.5h-1v0.5h-0.4v-3
		c-0.1,0.1-0.1,0.2-0.3,0.4c-0.1,0.1-0.2,0.2-0.2,0.3c0-0.1-0.1-0.2-0.2-0.3c0.6-0.8,1.1-1.7,1.3-2.6h-1.1V573.4z M198.7,575.7v2.4
		h1v-2.4H198.7z M200.5,577.3h2.7v0.3h-2.7V577.3z M201.4,573.9l-0.2,2h1.8l0.2-2.4h-2.6v-0.4h3l-0.3,2.7h0.7c0,0.8-0.1,1.6-0.1,2.3
		c0,0.6-0.3,0.9-1,0.9c-0.3,0-0.6,0-0.9,0c0,0,0-0.1,0-0.2c0-0.1,0-0.2-0.1-0.2c0.2,0,0.5,0,0.9,0c0.4,0,0.7-0.2,0.7-0.5
		c0.1-0.7,0.1-1.3,0.1-2h-2.9l0.2-2.3H201.4z"/>
	<path style="fill:#666666;" d="M205.1,579.2c0,0,0-0.1-0.1-0.1c-0.1-0.1-0.1-0.1-0.2-0.2c1.8-0.6,2.8-1.4,2.9-2.6h-2.8V576h2.9
		c0.1-0.4,0.1-0.8,0.1-1.4h-2.6v-0.4h3.2c0.5-0.6,0.9-1.1,1.1-1.4l0.4,0.2c-0.3,0.4-0.7,0.8-1,1.2h1.8v0.4h-2.6c0,0.5,0,1-0.1,1.4
		h3.1v0.4h-3c0.4,1.3,1.4,2.1,3,2.5c-0.1,0.1-0.2,0.2-0.2,0.4c-1.7-0.5-2.7-1.4-3.1-2.6C207.8,577.7,206.8,578.6,205.1,579.2z
		 M206.1,573l0.3-0.2c0.2,0.2,0.4,0.4,0.7,0.8c0.1,0.1,0.2,0.3,0.3,0.3l-0.3,0.2c-0.1-0.1-0.2-0.2-0.4-0.5
		C206.4,573.3,206.2,573.1,206.1,573z"/>
	<path style="fill:#666666;" d="M213,575.9c-0.4-0.3-0.7-0.6-1.1-0.9l0.2-0.3c0.4,0.3,0.8,0.6,1.1,0.8L213,575.9z M212,579
		c0.3-0.7,0.6-1.5,0.9-2.4c0.2,0.1,0.3,0.1,0.4,0.2c-0.2,0.4-0.5,1.2-0.9,2.4L212,579z M213.3,574.1c-0.1-0.1-0.2-0.1-0.3-0.2
		c-0.4-0.3-0.7-0.5-0.9-0.7l0.2-0.3c0.1,0.1,0.4,0.3,0.7,0.5c0.2,0.2,0.4,0.3,0.5,0.4L213.3,574.1z M214,576.1h1.8v-1.8h-2v-0.4h2.2
		c-0.1-0.1-0.2-0.5-0.4-1c0,0,0-0.1,0-0.1l0.3-0.1c0.1,0.1,0.1,0.3,0.2,0.5c0.1,0.3,0.2,0.4,0.2,0.6l-0.4,0.1h2.2v0.4h-2v1.8h1.8
		v0.4h-1.8v2.1h2.3v0.4h-5.1v-0.4h2.5v-2.1H214V576.1z"/>
	<path style="fill:#666666;" d="M221.1,577.1c0,0.6-0.2,1-0.7,1c-0.1,0-0.3,0-0.6,0c0-0.1,0-0.3-0.1-0.4c0.2,0,0.3,0,0.5,0
		c0.3,0,0.5-0.2,0.4-0.7c0-0.6-0.2-1.1-0.7-1.6l0.6-2h-1.1v5.7h-0.4v-6.1h1.8v0.4l-0.6,1.9C220.9,576,221.1,576.5,221.1,577.1z
		 M221.5,573.3h4.1v0.3h-0.6v4.6c0,0.6-0.3,0.9-0.9,0.9c-0.2,0-0.6,0-1,0c0,0,0-0.1,0-0.1c0-0.1,0-0.2-0.1-0.3c0.3,0,0.7,0,1,0
		c0.4,0,0.7-0.2,0.6-0.5v-4.6h-3.1V573.3z M221.7,574.7h2v2.7h-2V574.7z M222.1,575v2.1h1.2V575H222.1z"/>
	<path style="fill:#666666;" d="M226.4,577.2h2.7v-0.9h-2.5v-3.2h5.3v3.2h-2.5v0.9h2.8v0.4h-2.8v0.9h3.2v0.4h-6.7v-0.4h3.1v-0.9
		h-2.7V577.2z M227,573.4v1.1h2.1v-1.1H227z M227,574.9v1.1h2.1v-1.1H227z M231.6,573.4h-2.1v1.1h2.1V573.4z M229.4,574.9v1.1h2.1
		v-1.1H229.4z"/>
	<path style="fill:#666666;" d="M235.7,578.4l-0.3,0.2c-0.1-0.1-0.2-0.2-0.4-0.4c-0.2-0.2-0.4-0.3-0.5-0.4c-0.3,0.5-0.7,0.9-1.3,1.4
		c-0.1-0.1-0.2-0.2-0.3-0.3c0.6-0.5,1-0.9,1.3-1.3c-0.3-0.3-0.6-0.6-1-0.9c0.2-0.7,0.3-1.3,0.5-2.1h-0.6v-0.4h0.7
		c0.1-0.2,0.1-0.5,0.2-0.9c0-0.2,0.1-0.4,0.1-0.5l0.4,0c0,0.1,0,0.2-0.1,0.4c-0.1,0.2-0.1,0.5-0.2,1h1.3v0.4
		c-0.1,1.2-0.3,2.2-0.7,2.9C235,577.8,235.4,578.1,235.7,578.4z M235.1,574.6h-1c-0.1,0.8-0.3,1.4-0.4,2c0.1,0.1,0.2,0.2,0.4,0.3
		c0.2,0.2,0.3,0.3,0.4,0.4C234.7,576.6,235,575.7,235.1,574.6z M235.6,577.3h2.9v0.3h-2.9V577.3z M236.7,573.9l-0.2,1.9h1.9l0.2-2.4
		h-2.8v-0.3h3.2l-0.2,2.7h0.7c0,1.1-0.1,1.9-0.1,2.3c-0.1,0.6-0.4,0.9-1.1,0.9c-0.3,0-0.7,0-1,0c0-0.1,0-0.2-0.1-0.4
		c0.4,0,0.7,0,1.1,0c0.4,0,0.7-0.2,0.7-0.7c0.1-0.7,0.1-1.4,0.1-1.9h-3l0.2-2.3H236.7z"/>
	<path style="fill:#666666;" d="M242.8,578.4l-0.3,0.2c-0.1-0.1-0.2-0.2-0.4-0.4c-0.2-0.2-0.4-0.3-0.5-0.4c-0.3,0.5-0.7,0.9-1.3,1.4
		c-0.1-0.1-0.2-0.2-0.3-0.3c0.6-0.5,1-0.9,1.3-1.3c-0.3-0.3-0.6-0.6-1-0.9c0.2-0.7,0.3-1.3,0.5-2.1h-0.6v-0.4h0.7
		c0.1-0.2,0.1-0.5,0.2-0.9c0-0.2,0.1-0.4,0.1-0.5l0.4,0c0,0.1,0,0.2-0.1,0.4c-0.1,0.2-0.1,0.5-0.2,1h1.3v0.4
		c-0.1,1.2-0.3,2.2-0.7,2.9C242.1,577.8,242.4,578.1,242.8,578.4z M242.1,574.6h-1c-0.1,0.8-0.3,1.4-0.4,2c0.1,0.1,0.2,0.2,0.4,0.3
		c0.2,0.2,0.3,0.3,0.4,0.4C241.8,576.6,242,575.7,242.1,574.6z M242.7,577.3h2.9v0.3h-2.9V577.3z M243.7,573.9l-0.2,1.9h1.9l0.2-2.4
		h-2.8v-0.3h3.2l-0.2,2.7h0.7c0,1.1-0.1,1.9-0.1,2.3c-0.1,0.6-0.4,0.9-1.1,0.9c-0.3,0-0.7,0-1,0c0-0.1,0-0.2-0.1-0.4
		c0.4,0,0.7,0,1.1,0c0.4,0,0.7-0.2,0.7-0.7c0.1-0.7,0.1-1.4,0.1-1.9h-3l0.2-2.3H243.7z"/>
</g>
<g>
	<defs>
		<rect id="SVGID_1_" x="519.9" y="307.2" width="258.3" height="321"/>
	</defs>
	<clipPath id="SVGID_2_">
		<use xlink:href="#SVGID_1_"  style="overflow:visible;"/>
	</clipPath>
	<g style="clip-path:url(#SVGID_2_);">
		<g id="形状_13_11_">
			<g>
				<path style="fill:#FF9B48;" d="M637.7,487.6c0,0-15.8,6.8-31.4,22.2c-20.3,18.3-31.5,29-41,31.8c-1.5,0.8-7.1,2.6-10.7,3.5
					c-4.8,1.2-9.7,1.2-11.3,3c-0.8,0.9-0.4,2.3,0.4,2.9c0.8,0.6,3.3,0.6,3.3,0.6s-6.9,2.1-4.4,6.3c2.3,3.9,18-7.2,18.7-2.3
					c0.4,2.6-8.4,4.6-4.3,7.9c1.9,1.5,8.2-2.2,12.5-6.1c3.2-2.8,6.2-7.8,16.1-14.6c8-5.5,22.9-14.4,38.8-21.1
					C660,507.1,637.7,487.6,637.7,487.6z"/>
			</g>
		</g>
		<g id="形状_14_11_">
			<g>
				<path style="fill:#CC7123;" d="M553.6,547.6c-0.8,0.7-2.7,1.9-3.6,2.5c-1.9,1.2-3.7,1.6-3.7,1.6s0.5,0.1,1.3-0.1
					c2.3-0.6,5.3-1.9,6.6-3.1C555.3,547.6,554.7,546.6,553.6,547.6z"/>
			</g>
		</g>
		<g id="形状_13_9_">
			<g>
				<path style="fill-rule:evenodd;clip-rule:evenodd;fill:#FF9B48;" d="M760.2,551.7c0,0,2.5,0,3.3-0.6c0.8-0.6,1.2-2,0.4-2.9
					c-1.6-1.8-6.5-1.8-11.3-3c-3.6-0.9-9.2-2.7-10.7-3.5c-9.5-2.8-20.7-13.4-41-31.8c-15.6-15.4-32.5-22.4-32.5-22.4
					s-21.2,19.6,14.3,34.5c15.9,6.6,30.9,15.5,38.8,21.1c9.8,6.8,12.9,11.7,16.1,14.6c4.4,3.9,10.7,7.6,12.5,6.1
					c4.1-3.2-4.6-5.2-4.3-7.9c0.7-4.9,16.4,6.2,18.7,2.3C767.1,553.8,760.2,551.7,760.2,551.7z"/>
			</g>
		</g>
		<g id="形状_14_9_">
			<g>
				<path style="fill-rule:evenodd;clip-rule:evenodd;fill:#CC7123;" d="M757.2,550.1c-0.9-0.6-2.9-1.7-3.6-2.5
					c-1.1-1-1.7,0-0.6,0.9c1.3,1.2,4.3,2.4,6.6,3.1c0.8,0.2,1.3,0.1,1.3,0.1S759.1,551.3,757.2,550.1z"/>
			</g>
		</g>
		
			<radialGradient id="SVGID_3_" cx="656.3024" cy="523.0892" r="73.5512" gradientTransform="matrix(1 0 0 0.9295 0 36.8548)" gradientUnits="userSpaceOnUse">
			<stop  offset="0" style="stop-color:#FFC07D"/>
			<stop  offset="0.5713" style="stop-color:#FEB162"/>
			<stop  offset="1" style="stop-color:#FEA852"/>
		</radialGradient>
		<path style="fill-rule:evenodd;clip-rule:evenodd;fill:url(#SVGID_3_);" d="M764.3,692.5c-10.6,3.8-32.6,2.4-45.2,1.8
			c-13.2-0.6-41.1-4.6-46.3-6c-11-3.1-4.8-9.9-3.7-14.8c1.1-5.1,1.6-10.1,1.4-15.7c-0.1-1.8-0.2-5.3-3.4-5.1c-3.5,1.1-6.8,1.7-9.9,2
			c0,0,0,0-0.1,0c-0.2,0-0.5,0-0.7,0.1c-0.2,0-0.3,0-0.5,0c-0.2,0-0.3,0-0.5,0c-0.2,0-0.5,0-0.7,0c-0.1,0-0.2,0-0.4,0
			c-0.2,0-0.5,0-0.7,0c-0.1,0-0.3,0-0.4,0c-0.2,0-0.4,0-0.6,0c-0.2,0-0.4,0-0.6,0c-0.1,0-0.3,0-0.4,0c-0.2,0-0.5,0-0.7,0
			c-0.1,0-0.2,0-0.4,0c-0.2,0-0.5,0-0.7,0c-0.2,0-0.3,0-0.5,0c-0.2,0-0.3,0-0.5,0c-0.2,0-0.5,0-0.7-0.1c0,0,0,0-0.1,0
			c-3-0.3-6.4-0.9-9.9-2c-3.2-0.2-3.3,3.3-3.4,5.1c-0.3,5.5,0.3,10.6,1.4,15.7c1.1,5,7.3,11.8-3.7,14.8c-5.2,1.4-35.9,5.3-49,6.1
			c-14.2,0.9-37.5,1.1-44.2-1.8c-3.7-1.6-3.9-11,6.1-16.2c12.5-6.4,64.7-3.6,68.2-3.8c7.3-0.5,5.8-2.8,5.9-6.5
			c0.1-6.8-5.5-10.3-10.3-13.3c-4.8-3-28.7-13.6-28.7-36.8c0-12,3.3-28.1,18.7-51.1c37.7-56,39-87.2,39-87.2l3.1-0.1
			c0.1-0.6,0.2-0.9,0.2-0.9l11.2,0.5l11.2-0.5c0,0,0.1,0.3,0.2,0.9l3.1,0.1c0,0,1.4,31.2,39,87.2c15.5,23,18.7,39.1,18.7,51.1
			c0,23.3-23.9,33.8-28.7,36.8c-4.8,3-10.4,6.5-10.3,13.3c0.1,3.7-1.1,6.9,6.1,7.1c3.5,0.1,55.4-3.2,67.9,3.2
			C769.8,681.6,768.1,691.2,764.3,692.5z"/>
		<path style="fill-rule:evenodd;clip-rule:evenodd;fill:#DD7528;" d="M552.7,680.6c-10.9,2.9-9.6,8-8,12c0.2,0.5,0.4,1,0.7,1.5
			c0.7,0.1,1.3,0.2,2,0.2c-3.8-8.7,1.7-11.4,6.5-13.1C556,680.5,554.2,680.2,552.7,680.6z"/>
		<path style="fill-rule:evenodd;clip-rule:evenodd;fill:#DD7528;" d="M566,680.2c-9.3,2.1-7.9,9.9-6.5,13.7
			c0.2,0.4,0.3,0.8,0.5,1.2c0.6,0,1.2,0,1.8,0c-2.6-8,0.8-11.5,3.5-13.3C566.9,680.7,569.4,679.4,566,680.2z"/>
		<path style="fill-rule:evenodd;clip-rule:evenodd;fill:#DD7528;" d="M758.3,694c0.1-0.4,0.3-0.7,0.4-1.1c1.2-3.9-0.1-11-7.8-13
			c-4.2-1.1-2.4,0.9-0.5,1.5c4.6,1.5,6.9,6.9,4.9,13C756.3,694.3,757.3,694.2,758.3,694z"/>
		<path style="fill-rule:evenodd;clip-rule:evenodd;fill:#DD7528;" d="M744,694c2.2-4.8,0.3-12-5-14.2c-2.1-0.5-0.1,1.3,1.4,2.9
			c2,2.1,3.1,7.2,1.3,11.1c-0.3,0.5-0.4,1-0.6,1.3c0.8,0,1.5,0,2.3,0C743.6,694.8,743.8,694.4,744,694z"/>
		<g id="形状_12_5_">
			<g>
				
					<linearGradient id="SVGID_4_" gradientUnits="userSpaceOnUse" x1="456.8478" y1="401.5709" x2="455.7041" y2="298.6376" gradientTransform="matrix(1 0 0 1 196.1126 185.833)">
					<stop  offset="0" style="stop-color:#FFC28A"/>
					<stop  offset="0.7938" style="stop-color:#FFCD9F"/>
					<stop  offset="1" style="stop-color:#FFD0A5"/>
				</linearGradient>
				<path style="fill-rule:evenodd;clip-rule:evenodd;fill:url(#SVGID_4_);" d="M670.3,519.8c-7.8-12.8-27.2-11.5-34.8,1
					c-9.2,15.1-20.4,55.9-12.5,79.2c6.5,19.2,52.1,20.4,59.2,2.1C691.6,577.4,678.6,533.3,670.3,519.8z"/>
			</g>
		</g>
		<path style="opacity:0.6;fill-rule:evenodd;clip-rule:evenodd;fill:#DD7528;" d="M599.3,579.3c0,0,21.1,5.3,55.1,5.3
			c32,0,37.9-1.9,54.8-5.7C709.6,579.3,657.5,670,599.3,579.3z"/>
		<g id="形状_11_拷贝_2_5_">
			<g>
				<path style="fill-rule:evenodd;clip-rule:evenodd;fill:#FFBF80;" d="M707.8,579.3c-0.5,0.2-0.9,0.4-1.4,0.6
					c-15.5,7-34,9.1-48.4,9.6c-14.2,0.1-35.2-1.2-52.6-8c-1.5-0.6-3.7-1.3-5.1-2c-4-1.9-4.8,3.1-4.7,6c0.2,12.4,3,51.7,38.6,65
					c1.4,0.9,5.8,3.1,14.7,3.6c2.9,0.5,6.2,0.4,9.5-0.1c0.3,0,0.7,0,1.1-0.1c5.4-0.6,10.2-1.9,14.5-3.7c0.3-0.1,0.4-0.2,0.4-0.2v0
					c27.1-12,34.7-46.6,36.9-63.4c0.2-1.2,0.2-2.4,0.4-3.4C712.2,578.7,709.2,578.6,707.8,579.3z"/>
			</g>
		</g>
		<path style="opacity:0.6;fill-rule:evenodd;clip-rule:evenodd;fill:#DD7528;" d="M666.9,477.8c-4.2,2.5-9.9,5.9-13.1,6.4
			c-4.8,0.7-10.2-0.1-15.6-6.3c0,0.4-0.2,2.6-0.9,6.3c1.6,5,4.9,10.3,12.1,11.2c8.4,1,14.7-5.8,18.5-11.7c-0.7-3.9-0.8-5.8-0.8-5.8
			L666.9,477.8z"/>
		<g id="形状_9_5_">
			<g>
				<path style="fill-rule:evenodd;clip-rule:evenodd;fill:#FFC07D;" d="M637.6,382.9c-17.9-39.4-45.2-54.5-45.2-54.5
					s-7.1-4.5-8.1,0.4c-10.5,61.7,38.4,75.4,38.4,75.4S655.4,422.3,637.6,382.9z"/>
			</g>
		</g>
		<g id="形状_10_5_">
			<g>
				<path style="fill-rule:evenodd;clip-rule:evenodd;fill:#FF9B48;" d="M632,392c-6.8-30.2-32-40.7-32-40.7s-5.3-3.7-5.4,1.4
					c2.1,38.9,34.5,45,34.5,45S633.5,399.1,632,392z"/>
			</g>
		</g>
		<g id="形状_9_拷贝_5_">
			<g>
				<path style="fill:#FFC07D;" d="M723.5,328.8c-1-4.9-8.1-0.4-8.1-0.4s-27.4,15.2-45.3,54.5c-17.9,39.3,14.9,21.3,14.9,21.3
					S734,390.4,723.5,328.8z"/>
			</g>
		</g>
		<g id="形状_10_拷贝_5_">
			<g>
				<path style="fill:#FF9B48;" d="M707.8,351.3c0,0-25.3,10.5-32.1,40.7c-1.5,7,2.9,5.8,2.9,5.8s32.4-6.2,34.5-45
					C713.1,347.6,707.8,351.3,707.8,351.3z"/>
			</g>
		</g>
		<g id="脸_11_">
			<g>
				
					<radialGradient id="SVGID_5_" cx="457.8382" cy="296.3745" r="47.5036" gradientTransform="matrix(0.9999 1.315258e-02 -9.151512e-03 0.6957 198.8645 269.9874)" gradientUnits="userSpaceOnUse">
					<stop  offset="0" style="stop-color:#FECD97"/>
					<stop  offset="1" style="stop-color:#FFC07A"/>
				</radialGradient>
				<path style="fill:url(#SVGID_5_);" d="M690.2,418c-1.8-5.6-3.4-13.7-5.8-20.5c-5.3-15.2-17.5-20.2-30.5-20
					c-13.1,0.2-25.6,5.8-30.5,20c-2.3,6.7-3.8,14.8-5.6,20.5c-1.8,5.6-5.7,29.6,4.1,44.4c0,0.1,4.2,5.2,12,13
					c6.4,6.4,10.1,11.7,18.2,12.2c0.1,0,0.1,0,0.1,0c0.1,0,0.1,0,0.2,0c0.7,0,1.4,0,2.1,0c0.1,0,0.3,0,0.4-0.1
					c10.2-0.7,13.5-7.1,19.9-12.8c8.2-7.4,11.3-12.4,11.3-12.5C695.8,447.6,691.9,423.6,690.2,418z"/>
			</g>
		</g>
		<path style="fill-rule:evenodd;clip-rule:evenodd;fill:#66361F;" d="M653.5,422.8c-0.1,0.1,14.2-4.1,20.3-19.6
			c0-0.3,6.5,11.7,16.8,16.4c-0.1-0.6-0.3-1.1-0.4-1.6c-1.6-6.7-3-13.2-5.3-19.9c-5.3-15.2-18-20.7-31-20.5
			c-13.1,0.2-25.6,5.8-30.5,20c-2.3,6.7-4.4,15.4-5.6,20.5c-0.1,0.2-0.2,0.5-0.2,0.8c3.5-0.5,9.8-3.3,15.7-15
			C632.9,403.9,636,414.3,653.5,422.8z"/>
		<path style="fill-rule:evenodd;clip-rule:evenodd;fill:#E5432E;" d="M688.3,411.4c-0.7-2.6-1.4-5.3-2.1-8
			c-5-6.6-15.6-17.1-31.9-17c-18.9,0.2-28,10.2-32.7,16.7c-0.7,2.5-1.3,5-1.9,7.4c4.4-4.6,16.2-14.7,34.6-14.6
			C670.6,396,682.3,405.8,688.3,411.4z"/>
		<g id="形状_3_拷贝_5_">
			<g>
				<path style="fill-rule:evenodd;clip-rule:evenodd;fill:#E5432E;" d="M687.8,337.5c-0.6-0.9-1.3-0.7-1.9-0.4
					c-22.8,10.7-29.8,30.8-31.9,40.9c-2.9-12.1-11.2-30.9-32.1-41.1c-0.9-0.4-1.9-0.6-2.3,0.8c0,0-7.4,33.7,26.9,51.1
					c-7.1,5.4-14.6,12.4,7.3,3.3c23.8,10,14,1.8,7.1-3.2C695.3,371.5,687.8,337.5,687.8,337.5z"/>
			</g>
		</g>
		<g id="形状_73_5_">
			<g>
				<path style="fill-rule:evenodd;clip-rule:evenodd;fill:#AD4023;" d="M652.8,373.9c0,0-1.5,3.5-1.3,7.8c0.2,5,1.5,7.4,1.6,5.5
					c0-1.4,0.6-6.5,1-9.2C654.2,377.1,652.8,373.9,652.8,373.9z"/>
			</g>
		</g>
		<g id="形状_82_5_">
			<g>
				<path style="fill-rule:evenodd;clip-rule:evenodd;fill:#CA4825;" d="M668.5,389.3c-0.9-0.4-4.6-2-5.2-1.7
					c-3.2,2-6.6,5.5-1.9,4.3C664.7,391.1,669.5,389.8,668.5,389.3z M644.6,387.7c-1.2-0.4-5.4,1.5-5.4,1.5s1.6,0.8,3.5,1.4
					c1.9,0.5,6.1,2.1,5.8,0.9C648.2,390.2,646.4,388.3,644.6,387.7z"/>
			</g>
		</g>
		<path style="fill-rule:evenodd;clip-rule:evenodd;fill:#FFCE99;" d="M638.9,440.6c-3.9-9.6-9.8-11.7-13.9-10.9
			c-7.7,1.4-8.7,5.3-8.7,5.1s-0.1-6.9,6.3-8.6c5.9-1.5,11.9,0.9,14.5,5c2.4,3.7,2.1,9.4,2.1,9.4"/>
		<path style="fill-rule:evenodd;clip-rule:evenodd;fill:#FFCE99;" d="M668.4,440.6c3.9-9.6,9.8-11.7,13.9-10.9
			c7.7,1.4,8.7,5.3,8.7,5.1c-0.1-0.2,0.1-6.9-6.3-8.6c-5.9-1.5-11.9,0.9-14.5,5c-2.4,3.7-2.1,9.4-2.1,9.4"/>
		<g id="形状_4_11_">
			<g>
				<path style="fill:#FFFFFF;" d="M629.7,430.4c-3.1-1.5-9.7-0.8-12.3,1.5c0,0-3.9,16.1,10.2,17.5c7,0.3,11.1-3.4,11.7-7.4
					C640,437.7,633.3,432.2,629.7,430.4z"/>
			</g>
		</g>
		<g id="形状_6_11_">
			<g>
				<path style="fill-rule:evenodd;clip-rule:evenodd;fill:#512A15;" d="M636.5,434.2c0,0-3.6-4.9-8.3-6.1c-1.7-0.4-5.6,0.5-5.6,0.5
					s-5.7,4.7-1.4,12.6c2.5,4.1,6.4,5.9,9.9,5.5c4.3-0.5,6.8-3.5,7.1-6.8C638.5,436.5,636.5,434.2,636.5,434.2z"/>
			</g>
		</g>
		<g id="形状_48_5_">
			<g>
				<path style="fill:#FFFFFF;" d="M625.1,440.2c-0.2-1.3-4.4-1.4-5.2,0.3c-0.7,1.3,0.1,2.8,1.1,3C623,443.9,625.4,442,625.1,440.2z
					"/>
			</g>
		</g>
		<g id="形状_36_副本_11_">
			<g>
				<path style="fill-rule:evenodd;clip-rule:evenodd;fill:#A85726;" d="M634.8,421.1c-5.2-2.2-10.6-1.5-9.7,0.7
					c0.4,0.9,3-0.7,7.2,0.7c5.8,1.9,5.5,5.1,6.9,4.7C641.6,426.5,637.7,422.4,634.8,421.1z"/>
			</g>
		</g>
		<g id="形状_4_9_">
			<g>
				<path style="fill:#FFFFFF;" d="M690.4,431.9c-2.6-2.2-9.1-2.6-12.3-1.5c-7.5,2.8-10.3,7.2-9.6,11.5c0.7,4,4.7,7.7,11.7,7.4
					C694.3,448,690.4,431.9,690.4,431.9z"/>
			</g>
		</g>
		<g id="形状_6_9_">
			<g>
				<path style="fill-rule:evenodd;clip-rule:evenodd;fill:#512A15;" d="M685.5,429.4c0,0-3.2-0.8-5-0.4c-4.8,1.2-8.6,4.1-8.6,4.1
					c0,0-1.4,5.3-0.6,7.5c1.6,4.2,3,6,7.3,6.1c3.5,0.1,7.5-1.2,9-6.2C689.4,434.6,685.5,429.4,685.5,429.4z"/>
			</g>
		</g>
		<g id="形状_48_副本_5_">
			<g>
				<path style="fill:#FFFFFF;" d="M675.4,440.7c-0.9-1.7-4.7,0.3-4.9,1.6c-0.3,2.1,0.8,2.7,2.4,2.2
					C674.8,444.1,676.3,442.3,675.4,440.7z"/>
			</g>
		</g>
		<g id="形状_36_副本_9_">
			<g>
				<path style="fill-rule:evenodd;clip-rule:evenodd;fill:#A85726;" d="M673.1,421.1c-3,1.2-6.8,4.6-5.2,5.8
					c1.6,1.1,2.6-2.5,6.7-3.9c5.1-1.7,8.8,0.2,9-1.1C684,419.9,678.3,419,673.1,421.1z"/>
			</g>
		</g>
		<g id="Shape_2_11_">
			<g>
				<path style="fill-rule:evenodd;clip-rule:evenodd;fill:#9C6342;" d="M688.8,445.8c1.4-2.1,1.6-4.3,1.2-3.5c-0.9,1.9-2.2,4-5,5.4
					c-2.6,1.2-5.8,1.3-8,1.3c-1.9,0,3.9,1.4,8-0.2c0.3,0.1,0.7,0.3,1.2,0.5c0.6,0.3,1.6,1,1.5,0.6c-0.1-0.7-0.5-1.6-1-2
					c0.4-0.3,0.8-0.6,1.1-1c0.2,0,0.4,0,0.6,0.1c0.9,0.1,1.7,1.2,1.7,0.6C690.2,447.1,689.6,446.3,688.8,445.8z"/>
			</g>
		</g>
		<g id="形状_65_副本_11_">
			<g>
				<path style="fill-rule:evenodd;clip-rule:evenodd;fill:#713D1F;" d="M695.9,430.1c-0.2,0.5-1.1,1.3-2.1,1.7
					c-0.8,0.4-2,0.6-3.1,0.3c0-0.1-0.1-0.2-0.1-0.2c-0.8-1.5-3.2-3.2-5.6-3.7c-3.8-0.8-7.1-0.3-9.9,1c-3.7,1.7-6.2,5.1-7,9.6
					c-0.3,1.9,0.1,3.1,0.7,1.4c1.4-4.1,2.7-6.2,6.5-8.3c2.9-1.6,6.5-2.7,11.9-0.1c1.8,0.9,2.8,2.7,3.2,4c0.1,0.4,0.6,2,0.7,1
					c0.1-0.5,0.1-1,0.2-1.5c0.4,0,1,0,1.9-0.4c0.8-0.3,2-1.2,2.6-2.3C696.3,431.2,696.3,429.2,695.9,430.1z"/>
			</g>
		</g>
		<g id="Shape_2_9_">
			<g>
				<path style="fill-rule:evenodd;clip-rule:evenodd;fill:#9C6342;" d="M630.6,449c-2.1,0-5.3-0.1-8-1.3c-2.8-1.3-4.1-3.5-5-5.4
					c-0.4-0.8-0.2,1.4,1.2,3.5c-0.8,0.5-1.4,1.3-1.4,1.9c0,0.5,0.8-0.5,1.7-0.6c0.3,0,0.5-0.1,0.6-0.1c0.3,0.3,0.7,0.7,1.1,1
					c-0.5,0.5-0.9,1.4-1,2c-0.1,0.4,1-0.3,1.5-0.6c0.5-0.2,0.9-0.4,1.2-0.5C626.8,450.4,632.6,449.1,630.6,449z"/>
			</g>
		</g>
		<g id="形状_65_副本_9_">
			<g>
				<path style="fill-rule:evenodd;clip-rule:evenodd;fill:#713D1F;" d="M639.2,438.8c-0.8-4.5-3.3-7.9-7-9.6
					c-2.8-1.3-6.1-1.8-9.9-1c-2.1,0.5-4.3,1.9-5.1,3c-0.2,0.2-0.3,0.5-0.4,0.8c0,0,0,0,0,0c-1.2,0.4-2.4,0.1-3.3-0.3
					c-0.9-0.4-1.8-1.3-2.1-1.7c-0.5-0.8-0.4,1.1,0.2,2.4c0.6,1.1,1.8,2,2.6,2.3c1,0.4,1.7,0.4,2,0.4c0,0.6,0,1.1,0.1,1.5
					c0.1,1,0.6-0.1,0.8-0.5c0.6-1.9,1.3-3.6,3.1-4.4c5.3-2.6,8.9-1.5,11.9,0.1c3.7,2,5.1,4.5,6.5,8.3
					C639.2,441.8,639.6,440.7,639.2,438.8z"/>
			</g>
		</g>
		<g id="腮红2_5_">
			<g>
				<path style="fill-rule:evenodd;clip-rule:evenodd;fill:#FFA083;" d="M629.3,453.9c-5.6-0.6-8,1.3-8,3c0,1.4,2,4.2,7.2,4.5
					c6.5,0.3,8.4-1.8,8.5-2.9C637,457.4,636.2,454.6,629.3,453.9z"/>
			</g>
		</g>
		<g id="腮红2_副本_5_">
			<g>
				<path style="fill-rule:evenodd;clip-rule:evenodd;fill:#FFA083;" d="M678.4,453.9c-6.8,0.7-7.7,3.5-7.6,4.7
					c0.1,1.1,2,3.2,8.5,2.9c5.1-0.3,7.2-3.1,7.2-4.5C686.5,455.2,684,453.3,678.4,453.9z"/>
			</g>
		</g>
		<path style="fill-rule:evenodd;clip-rule:evenodd;fill:#512A15;" d="M653.3,483.8c-3.5,0-9.1-3.2-8.7-6.7c0.4-2.8,3.2-3.8,8.7-3.8
			c5.6,0,8.5,0.9,8.8,3.8C662.5,480.2,657.8,483.8,653.3,483.8z"/>
		<g id="形状_20_5_">
			<g>
				<path style="fill:#FCEACB;" d="M640.4,546.8c-10.6-8.2-23.7-2.9-23.6-0.8c0.9,22.2,22.1,20,22.1,20c7.4-0.8,8.3-6,8.3-6
					S647.4,552.3,640.4,546.8z"/>
			</g>
		</g>
		<g id="形状_21_5_">
			<g>
				<path style="fill:#FFBD99;" d="M644,559c-1.5-7.6-17.1-10.1-16.9-7c0.8,12.4,14.7,11.4,14.7,11.4S644.5,562.9,644,559z"/>
			</g>
		</g>
		<g id="形状_20_拷贝_5_">
			<g>
				<path style="fill:#FCEACB;" d="M665.8,547.7c-7.3,6.6-5.1,14.6-5.1,14.6s0.6,2.9,8,3.8c0,0,21.3,2.2,22.2-20.1
					C690.9,543.9,677.4,537.3,665.8,547.7z"/>
			</g>
		</g>
		<g id="形状_21_拷贝_5_">
			<g>
				<path style="fill-rule:evenodd;clip-rule:evenodd;fill:#FFBD99;" d="M663.5,559c-0.5,3.9,2.3,4.3,2.3,4.3s13.9,1,14.7-11.4
					C680.7,548.9,665,551.4,663.5,559z"/>
			</g>
		</g>
		<g id="形状_23_5_" style="opacity:0.4;">
			<g>
				<path style="fill-rule:evenodd;clip-rule:evenodd;fill:#DD7528;" d="M669.6,590.8c-8.6-1.6-31.9-3.1-34.5,2.7
					c-2.5,5.8-8.5,3-7.2,19.5c0,0,2,10.5,10.3,8.4c2.5-1,3.5-4.4,3.4-7.9c0-3.5,1.4-3.6,4.6-3.6c7.1,0.2,11,0.7,15.9-2.3
					c2.7-1.7,4.4,2.2,4,6.4c-0.5,4.9,0.5,6.9,4.4,7.8c3.6,0.8,6.6-0.8,7.7-4.6c1.1-3.9,1.4-8.2,1.4-8.2S678.2,592.4,669.6,590.8z"/>
			</g>
		</g>
		<path style="fill-rule:evenodd;clip-rule:evenodd;fill:#FCEBCE;" d="M671.1,579.4c0,0,9.5,6.5,8.9,27.6
			c-0.2,7.2-3.7,10.9-7.5,10.7c-3.8-0.2-4.1-4.3-3.6-8.6c0.2-1.7,0.7-7.1-1.3-14.7C665.7,586.8,671.1,579.4,671.1,579.4z"/>
		<path style="fill-rule:evenodd;clip-rule:evenodd;fill:#FCEBCE;" d="M634.2,581.9c0,0-7.5,7.3-6.9,24.6c0.2,7.2,3.7,11.4,7.5,11.1
			c3.8-0.2,3.9-3.3,3.7-6.7c-0.2-3-0.8-7.8,1.2-15.4C641.7,588.1,634.2,581.9,634.2,581.9z"/>
		<path style="fill-rule:evenodd;clip-rule:evenodd;fill:#F6BF96;" d="M671.9,612.5c-0.1,1.5-0.4,3.8-0.8,4.8
			c0.2,0.1,0.4,0.2,0.6,0.2c0.2-0.6,0.5-1.5,0.6-2.5C672.6,612.6,672,610.2,671.9,612.5z"/>
		<path style="fill-rule:evenodd;clip-rule:evenodd;fill:#F6BF96;" d="M674.9,612.5c0,1,0,3.5-0.7,4.9c0.3-0.1,0.6-0.2,0.9-0.3
			c0.3-0.7,0.4-1.8,0.4-2.7C675.7,612.7,674.9,611.2,674.9,612.5z"/>
		<path style="fill-rule:evenodd;clip-rule:evenodd;fill:#F6BF96;" d="M636.1,615c-0.4-1.3-0.9-4.1-1-3.3c-0.2,1.4,0.2,3.3,0.6,4.8
			c0.1,0.4,0.3,0.7,0.4,1c0.3-0.1,0.6-0.2,0.9-0.4C636.7,616.4,636.4,615.8,636.1,615z"/>
		<path style="fill-rule:evenodd;clip-rule:evenodd;fill:#F6BF96;" d="M633.2,615.4c-0.8-2.3-0.9-4.5-1-2.9c-0.2,1.9,0.3,3.5,1,4.7
			c0,0.1,0.1,0.2,0.2,0.3c0.3,0.1,0.5,0.1,0.8,0.1C633.9,617,633.5,616.3,633.2,615.4z"/>
		<g id="脸_9_">
			<g>
				<path style="fill:#FCEBCE;" d="M672.5,573.1c-3.7-13.1-12.3-16.4-18.7-16.3c-6.4-0.2-16.1,3.2-19.1,16.1
					c-0.7,4.5-3.1,8-2.3,13.6c0.8,5.6,2.6,8.3,10.5,13.6c1.6,1.2,2.8,1.2,4.7,2.7c1.9,1.4,4.1,2.1,7.8,1.7c0.1,0,0.1,0,0.2,0
					c1.5-0.3,2.7-0.8,3.8-1.6c1.9-1.4,3.1-1.4,4.7-2.7c7.9-5.3,9.7-8,10.5-13.6C675.6,580.8,673.2,575.7,672.5,573.1z"/>
			</g>
		</g>
		<g id="形状_77_5_">
			<g>
				
					<ellipse transform="matrix(8.527467e-02 -0.9964 0.9964 8.527467e-02 -5.5012 1176.4299)" style="fill-rule:evenodd;clip-rule:evenodd;fill:#FFDECC;" cx="638" cy="591.2" rx="1.7" ry="3.1"/>
			</g>
		</g>
		<g id="形状_77_副本_5_">
			<g>
				
					<ellipse transform="matrix(-3.275409e-02 -0.9995 0.9995 -3.275409e-02 99.5304 1278.7407)" style="fill:#FFDECC;" cx="668.5" cy="591.2" rx="1.7" ry="3.1"/>
			</g>
		</g>
		<path style="fill:#F7CC9D;" d="M642,567c0.7,2.7,2,3.1,3.8,3.4c2.1,0.3,3.3-1.7,3.9-2.5c0,0,1.4,2.7,3.3,3.3
			c2.1,0.7,3.5,0,4.2-1.4c0.5-0.8,0.3-2.2,0.3-2.2s1.7,1.8,4.3,1.1c1.5-0.4,1.7-1.7,1.8-2.6c0.1-0.9-0.2-1.8-0.2-1.8s1.8,1.9,1.3,4
			c-0.4,1.5-1.7,2.6-3.4,2.4c-1.2-0.2-3-1.4-3-1.4s-0.1,2-1.5,3c-1.4,1-3.4,0.9-4.7,0.1c-1.3-0.8-2.5-2.6-2.5-2.6s-0.7,1.7-2.6,2.5
			c-1.1,0.5-3.1,0.6-4.4-1.2C641.5,569.4,642,567,642,567z"/>
		<g id="形状_75_5_">
			<g>
				<path style="fill-rule:evenodd;clip-rule:evenodd;fill:#552F19;" d="M638.6,584.2c-3.2-0.3-4.1,0-3.9,0.7
					c0.2,0.5,0.8-0.1,3.8,0.5c4.9,1,6.9,4.3,7.5,2.9C646.5,586.7,642.4,584.5,638.6,584.2z"/>
			</g>
		</g>
		<g id="形状_75_副本_5_">
			<g>
				<path style="fill-rule:evenodd;clip-rule:evenodd;fill:#713D1F;" d="M668.8,584.2c-3.9,0.3-7.9,2.6-7.4,4.1
					c0.5,1.4,2.6-1.9,7.5-2.9c3-0.6,3.6,0,3.8-0.5C672.9,584.1,672,583.9,668.8,584.2z"/>
			</g>
		</g>
		<g id="形状_19_5_">
			<g>
				<path style="fill:#57301B;" d="M653.5,599.1c-6.1-0.1-5.6,1.9-5.6,1.9s1.1,3.8,5.8,3.7c4.7-0.1,5.6-3.7,5.6-3.7
					S659.6,599.1,653.5,599.1z"/>
			</g>
		</g>
	</g>
</g>
<g>
	<defs>
		<rect id="SVGID_6_" x="2.1" y="1.9" width="240.7" height="119.2"/>
	</defs>
	<clipPath id="SVGID_7_">
		<use xlink:href="#SVGID_6_"  style="overflow:visible;"/>
	</clipPath>
	<g style="clip-path:url(#SVGID_7_);">
		<path style="fill:#FD4B00;" d="M5.8-92.1C-20-88.7-40.2-80.5-54-70.7c-18.6,13.2-26.8,30.1-26.6,42.6c0,1.2,0.1,2.5,0.3,3.9
			c3.6-34,54.8-19.3,105.1-39c5.1-2,14.3-8.4,24.6-15.7c-6.2-2.1-10.1-3.6-10.1-3.6S24.4-88.8,5.8-92.1"/>
		<path style="fill:#FD4B00;" d="M66.7-91.1C60.9-87.1,55-82.9,49.4-79c8.7,2.9,22.1,6.8,36.1,9.1c6.7,1.1,13.6,1.8,20.1,1.8
			c6.4,0,12.4-0.7,17.8-2.2C98.4-84.9,74.9-89.7,74.9-89.7C72.2-90.2,69.4-90.7,66.7-91.1"/>
		<path style="fill:#FF6600;" d="M31.7-93.7c-9.2,0-17.8,0.6-25.9,1.6c18.5,3.3,33.5,9.5,33.5,9.5S43.2-81,49.4-79
			c5.6-3.9,11.5-8.2,17.3-12.1C54.3-92.9,42.6-93.7,31.7-93.7"/>
		<path style="fill:#FED7B2;" d="M166.9-82.9c-1.5,0-3,0.1-4.6,0.2c5.4,7.2,9.1,15.6,10.4,24.5c1.5,10-0.1,20.4-3.9,30.6
			c5.9,14.6,16.7,36.3,11.6,61.1c0.2,0,0.4,0.1,0.6,0.1l0.3,0l0.1,0c2.3,0.4,4.5,0.5,6.7,0.5c24.9,0,40.6-23.6,41.1-49.3
			c0.3-17.3-2-30.6-17.8-49.7c0,0-12.6-13.7-34.4-17.2C173.9-82.6,170.5-82.9,166.9-82.9 M-15-94c-8,0-15.9,1-23,3.7
			c-23.8,9.1-45.4,28.8-46.1,77.2C-84.8,42.1-38.2,87.2,15.2,96c0.2,0,0.4,0.1,0.6,0.1c8.1,1.3,15.7,1.9,22.9,1.9
			c26.8,0,46.6-8.5,60.8-20.3c0.3-0.2,0.6-0.5,0.9-0.7c-14-6.3-27.6-14.5-40.2-20.7c-1.6,0.3-3.1-1.1-4.6-0.9
			c-7,1-14.2,1.5-21.4,1.5c-53,0-103.5-28.1-113.8-69.2c-0.7-4.6-0.8-8.5-0.4-12c-0.2-1.3-0.3-2.6-0.3-3.9
			c-0.1-12.4,8-29.3,26.6-42.6c13.8-9.8,34-18,59.9-21.4c-0.8-0.1-1.5-0.3-2.3-0.4C-2.4-93.4-8.7-94-15-94"/>
		<path style="fill:#FB8B19;" d="M-80.3-24.3c-0.4,3.5-0.2,7.4,0.4,12C-73.5,31.2-19,58.5,33.9,58.5c7.2,0,14.4-0.5,21.4-1.5
			c1.5-0.2,4.7-0.5,6.3-0.8C48.4,46.1,38.5,35.3,33.5,30.6C16.5,12.2-0.7,5-19.4,5C-22.1,5-25,5.1-28,5.4c-2.1,0.1-4.2,0.2-6.2,0.2
			C-65.5,5.6-78.2-10.5-80.3-24.3 M162.3-82.7c-9.6,0.7-20.4,3.5-32.2,9.7c-2.1,1.1-4.3,2-6.7,2.7c12.1,9.6,23.5,20,36.5,32.2
			c0,0,4.9,3.9,8.9,10.5c3.9-10.2,5.4-20.6,3.9-30.6C171.4-67.2,167.7-75.5,162.3-82.7"/>
		<path style="fill:#FDBC52;" d="M110.6-108.6c-5.1,0-10.2,0.6-15.3,1.9c-7.1,1.7-17.6,8.2-28.7,15.7c2.7,0.4,5.4,0.8,8.2,1.3
			c0,0,23.4,4.8,48.5,19.4c2.4-0.7,4.6-1.6,6.7-2.7c11.8-6.2,22.6-9,32.2-9.7C150.7-98.3,131.2-108.6,110.6-108.6"/>
		<path style="fill:#FED7B2;" d="M168.4,30.8c-29.6-2-43.7,20.2-68.2,46.1c5.2,1.2,10.5,2,16,2c12.4,0,25.4-3.7,38.6-12.9
			c14.2-10,22-21.2,25.5-32.5C176.1,32.7,172.1,30.8,168.4,30.8"/>
		<path style="fill:#FB8B19;" d="M168.8-27.7C152.1,8.8,104.2,45.2,60,56.2c11.3,8.7,25.1,17,40.2,20.7
			c27.7-23.4,38.2-44.5,68.2-44.5c3.7,0,7.7,0.3,12,1C187.9,9.7,176.9-14.4,168.8-27.7"/>
		<path style="fill:#FF6600;" d="M49.4-79C39.1-71.7,30-65.3,24.8-63.3c-50.4,19.7-101.6,4.9-105.1,39c2.1,13.8,14.8,31.5,46.2,31.5
			c2,0,4.1-0.1,6.2-0.2c3-0.2,5.8-0.3,8.5-0.3c18.7,0,32.5,6.3,51.3,24c5,4.7,14.9,15.5,28.1,25.6c45.5-8.4,94.1-45.1,108.8-83.9
			c-4-6.5-7.3-10.5-7.3-10.5c-11-14-24.8-24.5-38.1-32.2c-5.4,1.6-11.4,2.2-17.8,2.2c-6.6,0-13.4-0.7-20.1-1.8
			C71.5-72.1,58.2-76.1,49.4-79"/>
		<path style="fill:#FED7B2;" d="M191.1,102.7c-3.1,0-5.9,2.2-6.6,5.4c-0.7,3.5,1.5,6.9,4.9,7.8l0.4,0.1c0.4,0.1,0.9,0.1,1.3,0.1
			c3.1,0,5.9-2.2,6.6-5.4c0.7-3.5-1.5-6.9-4.9-7.8l-0.4-0.1C192,102.8,191.6,102.7,191.1,102.7 M170.7,72.6c-8.3,0-14.9,6.4-15,14.4
			c0,7,4.9,12.9,11.6,14.6c1.1,0.3,2.3,0.5,3.6,0.5c0.1,0,0.3,0,0.4,0c8.3,0,14.9-6.4,15-14.4c0-7-4.9-12.9-11.6-14.6
			c-1.1-0.3-2.3-0.5-3.6-0.5C171,72.6,170.8,72.6,170.7,72.6"/>
	</g>
</g>
<g>
	<defs>
		<rect id="SVGID_8_" x="726.1" y="1.6" width="142.8" height="56.6"/>
	</defs>
	<clipPath id="SVGID_9_">
		<use xlink:href="#SVGID_8_"  style="overflow:visible;"/>
	</clipPath>
	<path style="clip-path:url(#SVGID_9_);fill:#FB8B19;" d="M859,10.3c-7.8,0-15.3,2.6-25.2,8.7c-4.3,2.6-13.7,8.1-25.6,15.2
		c4.7,2.6,9.5,4.7,14.4,6.3c3.8,1.2,7.7,2.2,11.7,2.9c4.7,0.8,9.4,1.2,13.9,1.2c23.4,0,42.8-10.9,49.3-30.5c0.2-0.7,0.4-1.3,0.6-2
		c-3.5,2-8,3.3-13.5,3.3c-2.6,0-5.5-0.3-8.6-0.9c-1.2-0.2-2.4-1.5-3.7-1.9c-1.7-0.5-3.4-0.9-5-1.3C864.4,10.6,861.7,10.3,859,10.3
		 M800.3-53.4c-8.3,0.2-16.4,3.3-22.5,8.4C785.4-49.1,793.3-51.7,800.3-53.4"/>
	<path style="clip-path:url(#SVGID_9_);fill:#FDBC52;" d="M777.8-45.1c-4.3,2.3-8.5,5-12.4,8.3c0,0-38.8,30.6-9,62.3
		c6.7,7.1,14,10.9,21.3,12.4c2.8,0.6,5.6,0.9,8.4,0.9c7.7,0,15.2-2,22.1-4.7C783.7,18.5,760.5-8.6,768-31.1
		C769.8-36.6,773.3-41.4,777.8-45.1 M823.3-56.5c-0.5,0-10.3,0-22.9,3.1c0.3,0,0.6,0,0.9,0c2,0,4,0.2,6,0.5c2.8,0.5,5.6,1.3,8.3,2.5
		c9.3,4.1,28.1,26.7,34.9,30.8C878.4-2.8,904.8-12.1,898,12c5.8-3.3,8.9-8.4,9.9-12.8c1.6-7.3-1.1-18.3-10.5-28.5
		c-9.1-9.9-25.2-19.5-48-24.3C841.5-55.1,832.8-56.2,823.3-56.5C823.3-56.5,823.3-56.5,823.3-56.5"/>
	<path style="clip-path:url(#SVGID_9_);fill:#FF6600;" d="M801.3-53.5c-0.3,0-0.6,0-0.9,0c-7,1.7-14.9,4.3-22.5,8.4
		c-4.5,3.7-8,8.5-9.8,14c-7.5,22.5,14.1,50.9,40.2,65.2c11.8-4.7,21.3-11.6,25.6-14.2c10-6,17.5-8.7,25.2-8.7c2.7,0,5.4,0.3,8.2,0.9
		c1.6,0.3,3.3,0.8,5,1.3c1.3,0.4,2.5,0.7,3.7,0.9c3.1,0.7,6,0.9,8.6,0.9c5.5,0,10-1.3,13.5-3.3c6.8-24.1-19.7-14.8-47.6-31.7
		c-6.8-4.1-25.6-26.7-34.9-30.8c-2.7-1.2-5.5-2-8.3-2.5C805.3-53.3,803.3-53.5,801.3-53.5"/>
</g>
<g>
	<rect x="187.9" y="507.4" style="fill:#FFFFFF;" width="61.3" height="61.3"/>
	<g>
		<rect x="231.4" y="520.8" width="2.2" height="2.2"/>
		<rect x="233.6" y="523" width="2.1" height="2.1"/>
		<rect x="233.6" y="527.3" width="2.1" height="2.2"/>
		<rect x="222.8" y="520.8" width="2.2" height="2.2"/>
		<rect x="233.6" y="535.9" width="2.1" height="2.2"/>
		<rect x="233.6" y="546.6" width="2.1" height="2.2"/>
		<rect x="233.6" y="529.4" width="2.1" height="2.2"/>
		<rect x="233.6" y="538" width="2.1" height="2.2"/>
		<rect x="218.5" y="520.8" width="2.2" height="2.2"/>
		<rect x="201.2" y="538" width="2.1" height="2.2"/>
		<rect x="201.2" y="529.4" width="2.1" height="2.2"/>
		<rect x="201.2" y="544.5" width="2.1" height="2.2"/>
		<rect x="209.9" y="520.8" width="2.1" height="2.2"/>
		<rect x="201.2" y="523" width="2.1" height="2.1"/>
		<rect x="203.4" y="520.8" width="2.2" height="2.2"/>
		<rect x="203.4" y="527.3" width="2.2" height="2.2"/>
		<rect x="203.4" y="523" width="2.2" height="2.1"/>
		<rect x="203.4" y="529.4" width="2.2" height="2.2"/>
		<rect x="203.4" y="535.9" width="2.2" height="2.2"/>
		<rect x="203.4" y="533.7" width="2.2" height="2.2"/>
		<rect x="203.4" y="531.6" width="2.2" height="2.1"/>
		<rect x="212" y="523" width="2.2" height="2.1"/>
		<rect x="222.8" y="523" width="2.2" height="2.1"/>
		<rect x="227.1" y="523" width="2.2" height="2.1"/>
		<rect x="216.3" y="523" width="2.2" height="2.1"/>
		<rect x="218.5" y="523" width="2.2" height="2.1"/>
		<rect x="218.5" y="553" width="2.2" height="2.2"/>
		<rect x="222.8" y="553" width="2.2" height="2.2"/>
		<rect x="214.2" y="553" width="2.1" height="2.2"/>
		<rect x="227.1" y="553" width="2.2" height="2.2"/>
		<rect x="212" y="553" width="2.2" height="2.2"/>
		<rect x="203.4" y="546.6" width="2.2" height="2.2"/>
		<rect x="203.4" y="544.5" width="2.2" height="2.2"/>
		<rect x="203.4" y="542.3" width="2.2" height="2.1"/>
		<rect x="203.4" y="553" width="2.2" height="2.2"/>
		<rect x="203.4" y="550.9" width="2.2" height="2.1"/>
		<rect x="212" y="557.4" width="2.2" height="2.2"/>
		<rect x="199.1" y="523" width="2.2" height="2.1"/>
		<rect x="199.1" y="538" width="2.2" height="2.2"/>
		<rect x="199.1" y="535.9" width="2.2" height="2.2"/>
		<rect x="199.1" y="518.7" width="2.2" height="2.2"/>
		<rect x="199.1" y="531.6" width="2.2" height="2.1"/>
		<rect x="199.1" y="540.2" width="2.2" height="2.2"/>
		<rect x="216.3" y="518.7" width="2.2" height="2.2"/>
		<rect x="212" y="518.7" width="2.2" height="2.2"/>
		<rect x="218.5" y="518.7" width="2.2" height="2.2"/>
		<rect x="203.4" y="518.7" width="2.2" height="2.2"/>
		<rect x="201.2" y="550.9" width="2.1" height="2.1"/>
		<rect x="199.1" y="542.3" width="2.2" height="2.1"/>
		<rect x="218.5" y="557.4" width="2.2" height="2.2"/>
		<rect x="222.8" y="557.4" width="2.2" height="2.2"/>
		<rect x="214.2" y="557.4" width="2.1" height="2.2"/>
		<rect x="203.4" y="557.4" width="2.2" height="2.2"/>
		<rect x="199.1" y="550.9" width="2.2" height="2.1"/>
		<rect x="199.1" y="557.4" width="2.2" height="2.2"/>
		<rect x="199.1" y="555.2" width="2.2" height="2.2"/>
		<rect x="231.4" y="523" width="2.2" height="2.1"/>
		<rect x="229.3" y="555.2" width="2.1" height="2.2"/>
		<rect x="227.1" y="555.2" width="2.2" height="2.2"/>
		<rect x="222.8" y="555.2" width="2.2" height="2.2"/>
		<rect x="218.5" y="555.2" width="2.2" height="2.2"/>
		<rect x="235.7" y="555.2" width="2.2" height="2.2"/>
		<rect x="231.4" y="555.2" width="2.2" height="2.2"/>
		<rect x="235.7" y="553" width="2.2" height="2.2"/>
		<rect x="233.6" y="555.2" width="2.1" height="2.2"/>
		<rect x="235.7" y="550.9" width="2.2" height="2.1"/>
		<rect x="203.4" y="555.2" width="2.2" height="2.2"/>
		<rect x="214.2" y="555.2" width="2.1" height="2.2"/>
		<rect x="216.3" y="555.2" width="2.2" height="2.2"/>
		<rect x="209.9" y="555.2" width="2.1" height="2.2"/>
		<rect x="207.7" y="555.2" width="2.2" height="2.2"/>
		<rect x="235.7" y="544.5" width="2.2" height="2.2"/>
		<rect x="235.7" y="527.3" width="2.2" height="2.2"/>
		<rect x="235.7" y="523" width="2.2" height="2.1"/>
		<rect x="235.7" y="518.7" width="2.2" height="2.2"/>
		<rect x="225" y="518.7" width="2.1" height="2.2"/>
		<rect x="227.1" y="518.7" width="2.2" height="2.2"/>
		<rect x="231.4" y="518.7" width="2.2" height="2.2"/>
		<rect x="235.7" y="540.2" width="2.2" height="2.2"/>
		<rect x="235.7" y="546.6" width="2.2" height="2.2"/>
		<rect x="235.7" y="548.8" width="2.2" height="2.2"/>
		<rect x="235.7" y="531.6" width="2.2" height="2.1"/>
		<rect x="227.1" y="533.7" width="2.2" height="2.2"/>
		<rect x="209.9" y="533.7" width="2.1" height="2.2"/>
		<rect x="220.7" y="529.4" width="2.1" height="2.2"/>
		<rect x="225" y="535.9" width="2.1" height="2.2"/>
		<rect x="225" y="531.6" width="2.1" height="2.1"/>
		<rect x="214.2" y="529.4" width="2.1" height="2.2"/>
		<rect x="227.1" y="538" width="2.2" height="2.2"/>
		<rect x="227.1" y="542.3" width="2.2" height="2.1"/>
		<rect x="227.1" y="535.9" width="2.2" height="2.2"/>
		<rect x="227.1" y="527.3" width="2.2" height="2.2"/>
		<rect x="227.1" y="531.6" width="2.2" height="2.1"/>
		<rect x="209.9" y="544.5" width="2.1" height="2.2"/>
		<rect x="225" y="527.3" width="2.1" height="2.2"/>
		<rect x="227.1" y="546.6" width="2.2" height="2.2"/>
		<rect x="214.2" y="546.6" width="2.1" height="2.2"/>
		<rect x="225" y="546.6" width="2.1" height="2.2"/>
		<rect x="222.8" y="546.6" width="2.2" height="2.2"/>
		<rect x="214.2" y="533.7" width="2.1" height="2.2"/>
		<rect x="214.2" y="535.9" width="2.1" height="2.2"/>
		<rect x="216.3" y="533.7" width="2.2" height="2.2"/>
		<rect x="218.5" y="533.7" width="2.2" height="2.2"/>
		<rect x="216.3" y="542.3" width="2.2" height="2.1"/>
		<rect x="214.2" y="540.2" width="2.1" height="2.2"/>
		<rect x="220.7" y="533.7" width="2.1" height="2.2"/>
		<rect x="214.2" y="542.3" width="2.1" height="2.1"/>
		<rect x="214.2" y="538" width="2.1" height="2.2"/>
		<rect x="216.3" y="538" width="2.2" height="2.2"/>
		<rect x="218.5" y="538" width="2.2" height="2.2"/>
		<rect x="220.7" y="538" width="2.1" height="2.2"/>
		<rect x="218.5" y="540.2" width="2.2" height="2.2"/>
		<rect x="212" y="540.2" width="2.2" height="2.2"/>
		<rect x="212" y="533.7" width="2.2" height="2.2"/>
		<rect x="212" y="538" width="2.2" height="2.2"/>
		<rect x="212" y="544.5" width="2.2" height="2.2"/>
		<rect x="218.5" y="544.5" width="2.2" height="2.2"/>
		<rect x="222.8" y="542.3" width="2.2" height="2.1"/>
		<rect x="222.8" y="538" width="2.2" height="2.2"/>
		<rect x="214.2" y="531.6" width="2.1" height="2.1"/>
		<rect x="222.8" y="540.2" width="2.2" height="2.2"/>
		<rect x="220.7" y="531.6" width="2.1" height="2.1"/>
		<rect x="220.7" y="544.5" width="2.1" height="2.2"/>
		<rect x="205.6" y="544.5" width="2.1" height="2.2"/>
		<rect x="212" y="550.9" width="2.2" height="2.1"/>
		<rect x="207.7" y="550.9" width="2.2" height="2.1"/>
		<rect x="209.9" y="525.1" width="2.1" height="2.2"/>
		<rect x="212" y="525.1" width="2.2" height="2.2"/>
		<rect x="205.6" y="533.7" width="2.1" height="2.2"/>
		<rect x="205.6" y="529.4" width="2.1" height="2.2"/>
		<rect x="207.7" y="525.1" width="2.2" height="2.2"/>
		<rect x="231.4" y="542.3" width="2.2" height="2.1"/>
		<rect x="231.4" y="544.5" width="2.2" height="2.2"/>
		<rect x="231.4" y="546.6" width="2.2" height="2.2"/>
		<rect x="231.4" y="533.7" width="2.2" height="2.2"/>
		<rect x="231.4" y="529.4" width="2.2" height="2.2"/>
		<rect x="218.5" y="550.9" width="2.2" height="2.1"/>
		<rect x="216.3" y="550.9" width="2.2" height="2.1"/>
		<rect x="231.4" y="550.9" width="2.2" height="2.1"/>
		<rect x="227.1" y="550.9" width="2.2" height="2.1"/>
		<rect x="207.7" y="540.2" width="2.2" height="2.2"/>
		<rect x="207.7" y="548.8" width="2.2" height="2.2"/>
		<rect x="207.7" y="538" width="2.2" height="2.2"/>
		<rect x="218.5" y="527.3" width="2.2" height="2.2"/>
		<rect x="212" y="527.3" width="2.2" height="2.2"/>
		<rect x="207.7" y="533.7" width="2.2" height="2.2"/>
		<rect x="207.7" y="527.3" width="2.2" height="2.2"/>
		<rect x="229.3" y="527.3" width="2.1" height="2.2"/>
		<rect x="218.5" y="548.8" width="2.2" height="2.2"/>
		<rect x="225" y="525.1" width="2.1" height="2.2"/>
		<rect x="222.8" y="525.1" width="2.2" height="2.2"/>
		<rect x="227.1" y="548.8" width="2.2" height="2.2"/>
		<rect x="229.3" y="546.6" width="2.1" height="2.2"/>
		<rect x="229.3" y="540.2" width="2.1" height="2.2"/>
		<rect x="237.9" y="535.9" width="2.1" height="2.2"/>
		<rect x="192.6" y="535.9" width="2.1" height="2.2"/>
		<rect x="192.6" y="550.9" width="2.1" height="2.1"/>
		<rect x="192.6" y="544.5" width="2.1" height="2.2"/>
		<rect x="192.6" y="529.4" width="2.1" height="2.2"/>
		<rect x="192.6" y="523" width="2.1" height="2.1"/>
		<rect x="192.6" y="527.3" width="2.1" height="2.2"/>
		<rect x="214.2" y="563.8" width="2.1" height="2.2"/>
		<rect x="209.9" y="563.8" width="2.1" height="2.2"/>
		<rect x="225" y="563.8" width="2.1" height="2.2"/>
		<rect x="220.7" y="563.8" width="2.1" height="2.2"/>
		<rect x="218.5" y="563.8" width="2.2" height="2.2"/>
		<rect x="199.1" y="563.8" width="2.2" height="2.2"/>
		<rect x="192.6" y="563.8" width="2.1" height="2.2"/>
		<rect x="227.1" y="563.8" width="2.2" height="2.2"/>
		<rect x="201.2" y="563.8" width="2.1" height="2.2"/>
		<rect x="194.8" y="563.8" width="2.2" height="2.2"/>
		<rect x="203.4" y="563.8" width="2.2" height="2.2"/>
		<rect x="196.9" y="563.8" width="2.1" height="2.2"/>
		<rect x="242.2" y="533.7" width="2.1" height="2.2"/>
		<rect x="242.2" y="523" width="2.1" height="2.1"/>
		<rect x="242.2" y="553.1" width="2.1" height="2.2"/>
		<rect x="242.2" y="538" width="2.1" height="2.2"/>
		<rect x="242.2" y="555.2" width="2.1" height="2.2"/>
		<rect x="242.2" y="540.2" width="2.1" height="2.2"/>
		<rect x="242.2" y="546.6" width="2.1" height="2.2"/>
		<rect x="209.9" y="512.2" width="2.1" height="2.2"/>
		<rect x="220.7" y="512.2" width="2.1" height="2.2"/>
		<rect x="218.5" y="512.2" width="2.2" height="2.2"/>
		<rect x="216.3" y="512.2" width="2.2" height="2.2"/>
		<rect x="212" y="512.2" width="2.2" height="2.2"/>
		<rect x="203.4" y="512.2" width="2.2" height="2.2"/>
		<rect x="231.4" y="512.2" width="2.2" height="2.2"/>
		<rect x="225" y="512.2" width="2.1" height="2.2"/>
		<rect x="222.8" y="512.2" width="2.2" height="2.2"/>
		<rect x="194.8" y="510.1" width="2.2" height="2.2"/>
		<rect x="192.6" y="510.1" width="2.1" height="2.2"/>
		<rect x="196.9" y="510.1" width="2.1" height="2.2"/>
		<rect x="190.5" y="510.1" width="2.2" height="2.2"/>
		<rect x="199.1" y="510.1" width="2.2" height="2.2"/>
		<rect x="190.5" y="518.7" width="2.2" height="2.2"/>
		<rect x="190.5" y="512.2" width="2.2" height="2.2"/>
		<rect x="201.2" y="510.1" width="2.1" height="2.2"/>
		<rect x="190.5" y="514.4" width="2.2" height="2.1"/>
		<rect x="216.3" y="510.1" width="2.2" height="2.2"/>
		<rect x="218.5" y="510.1" width="2.2" height="2.2"/>
		<rect x="190.5" y="520.8" width="2.2" height="2.2"/>
		<rect x="212" y="510.1" width="2.2" height="2.2"/>
		<rect x="203.4" y="510.1" width="2.2" height="2.2"/>
		<rect x="209.9" y="510.1" width="2.1" height="2.2"/>
		<rect x="190.5" y="553" width="2.2" height="2.2"/>
		<rect x="190.5" y="550.9" width="2.2" height="2.1"/>
		<rect x="190.5" y="544.5" width="2.2" height="2.2"/>
		<rect x="190.5" y="555.2" width="2.2" height="2.2"/>
		<rect x="190.5" y="557.4" width="2.2" height="2.2"/>
		<rect x="190.5" y="563.8" width="2.2" height="2.2"/>
		<rect x="190.5" y="523" width="2.2" height="2.1"/>
		<rect x="190.5" y="559.5" width="2.2" height="2.1"/>
		<rect x="190.5" y="561.6" width="2.2" height="2.2"/>
		<rect x="190.5" y="531.6" width="2.2" height="2.1"/>
		<rect x="190.5" y="529.4" width="2.2" height="2.2"/>
		<rect x="190.5" y="540.2" width="2.2" height="2.2"/>
		<rect x="190.5" y="535.9" width="2.2" height="2.2"/>
		<rect x="190.5" y="516.5" width="2.2" height="2.2"/>
		<rect x="244.4" y="550.9" width="2.2" height="2.1"/>
		<rect x="244.4" y="546.6" width="2.2" height="2.2"/>
		<rect x="244.4" y="555.2" width="2.2" height="2.2"/>
		<rect x="244.4" y="535.9" width="2.2" height="2.2"/>
		<rect x="244.4" y="540.2" width="2.2" height="2.2"/>
		<rect x="244.4" y="557.4" width="2.2" height="2.2"/>
		<rect x="244.4" y="542.3" width="2.2" height="2.1"/>
		<rect x="244.4" y="553.1" width="2.2" height="2.2"/>
		<rect x="225" y="510.1" width="2.1" height="2.2"/>
		<rect x="235.7" y="563.8" width="2.2" height="2.2"/>
		<rect x="231.4" y="563.8" width="2.2" height="2.2"/>
		<rect x="240" y="563.8" width="2.2" height="2.2"/>
		<rect x="244.4" y="563.8" width="2.2" height="2.2"/>
		<rect x="237.9" y="510.1" width="2.1" height="2.2"/>
		<rect x="244.4" y="533.7" width="2.2" height="2.2"/>
		<rect x="242.2" y="510.1" width="2.1" height="2.2"/>
		<rect x="244.4" y="510.1" width="2.2" height="2.2"/>
		<rect x="235.7" y="510.1" width="2.2" height="2.2"/>
		<rect x="231.4" y="510.1" width="2.2" height="2.2"/>
		<rect x="233.6" y="510.1" width="2.1" height="2.2"/>
		<rect x="244.4" y="512.3" width="2.2" height="2.2"/>
		<rect x="240" y="510.1" width="2.2" height="2.2"/>
		<rect x="244.4" y="527.3" width="2.2" height="2.2"/>
		<rect x="244.4" y="514.4" width="2.2" height="2.1"/>
		<rect x="244.4" y="531.6" width="2.2" height="2.1"/>
		<rect x="244.4" y="516.5" width="2.2" height="2.2"/>
		<rect x="244.4" y="518.7" width="2.2" height="2.2"/>
		<rect x="244.4" y="523" width="2.2" height="2.1"/>
		<rect x="244.4" y="520.8" width="2.2" height="2.2"/>
		<rect x="196.9" y="550.9" width="2.1" height="2.1"/>
		<rect x="196.9" y="546.6" width="2.1" height="2.2"/>
		<rect x="196.9" y="557.4" width="2.1" height="2.2"/>
		<rect x="196.9" y="559.5" width="2.1" height="2.1"/>
		<rect x="196.9" y="555.2" width="2.1" height="2.2"/>
		<rect x="199.1" y="559.5" width="2.2" height="2.1"/>
		<rect x="196.9" y="523" width="2.1" height="2.1"/>
		<rect x="196.9" y="527.3" width="2.1" height="2.2"/>
		<rect x="196.9" y="518.7" width="2.1" height="2.2"/>
		<rect x="233.6" y="559.5" width="2.1" height="2.1"/>
		<rect x="225" y="559.5" width="2.1" height="2.1"/>
		<rect x="203.4" y="559.5" width="2.2" height="2.1"/>
		<rect x="240" y="559.5" width="2.2" height="2.1"/>
		<rect x="237.9" y="559.5" width="2.1" height="2.1"/>
		<rect x="240" y="555.2" width="2.2" height="2.2"/>
		<rect x="212" y="559.5" width="2.2" height="2.1"/>
		<rect x="207.7" y="559.5" width="2.2" height="2.1"/>
		<rect x="218.5" y="559.5" width="2.2" height="2.1"/>
		<rect x="214.2" y="559.5" width="2.1" height="2.1"/>
		<rect x="237.9" y="540.2" width="2.1" height="2.2"/>
		<rect x="237.9" y="538" width="2.1" height="2.2"/>
		<rect x="237.9" y="531.6" width="2.1" height="2.1"/>
		<rect x="237.9" y="533.7" width="2.1" height="2.2"/>
		<rect x="237.9" y="523" width="2.1" height="2.1"/>
		<rect x="233.6" y="557.4" width="2.1" height="2.2"/>
		<rect x="209.9" y="516.5" width="2.1" height="2.2"/>
		<rect x="212" y="516.5" width="2.2" height="2.2"/>
		<rect x="196.9" y="516.5" width="2.1" height="2.2"/>
		<rect x="237.9" y="518.7" width="2.1" height="2.2"/>
		<rect x="199.1" y="516.5" width="2.2" height="2.2"/>
		<rect x="203.4" y="516.5" width="2.2" height="2.2"/>
		<rect x="207.7" y="516.5" width="2.2" height="2.2"/>
		<rect x="235.7" y="516.5" width="2.2" height="2.2"/>
		<rect x="231.4" y="516.5" width="2.2" height="2.2"/>
		<rect x="242.2" y="559.5" width="2.1" height="2.1"/>
		<rect x="225" y="516.5" width="2.1" height="2.2"/>
		<rect x="222.8" y="516.5" width="2.2" height="2.2"/>
		<rect x="237.9" y="516.5" width="2.1" height="2.2"/>
		<rect x="194.8" y="550.9" width="2.2" height="2.1"/>
		<rect x="194.8" y="555.2" width="2.2" height="2.2"/>
		<rect x="194.8" y="546.6" width="2.2" height="2.2"/>
		<rect x="194.8" y="544.5" width="2.2" height="2.2"/>
		<rect x="194.8" y="557.4" width="2.2" height="2.2"/>
		<rect x="194.8" y="559.5" width="2.2" height="2.1"/>
		<rect x="194.8" y="529.4" width="2.2" height="2.2"/>
		<rect x="194.8" y="531.6" width="2.2" height="2.1"/>
		<rect x="194.8" y="535.9" width="2.2" height="2.2"/>
		<rect x="229.3" y="561.6" width="2.1" height="2.2"/>
		<rect x="227.1" y="561.6" width="2.2" height="2.2"/>
		<rect x="242.2" y="561.6" width="2.1" height="2.2"/>
		<rect x="240" y="561.6" width="2.2" height="2.2"/>
		<rect x="237.9" y="561.6" width="2.1" height="2.2"/>
		<rect x="203.4" y="561.6" width="2.2" height="2.2"/>
		<rect x="220.7" y="561.6" width="2.1" height="2.2"/>
		<rect x="209.9" y="561.6" width="2.1" height="2.2"/>
		<rect x="194.8" y="523" width="2.2" height="2.1"/>
		<rect x="218.5" y="561.6" width="2.2" height="2.2"/>
		<rect x="214.2" y="561.6" width="2.1" height="2.2"/>
		<rect x="240" y="523" width="2.2" height="2.1"/>
		<rect x="240" y="527.3" width="2.2" height="2.2"/>
		<rect x="240" y="518.7" width="2.2" height="2.2"/>
		<rect x="237.9" y="514.4" width="2.1" height="2.1"/>
		<rect x="235.7" y="514.4" width="2.2" height="2.1"/>
		<rect x="240" y="529.4" width="2.2" height="2.2"/>
		<rect x="240" y="514.4" width="2.2" height="2.1"/>
		<rect x="240" y="516.5" width="2.2" height="2.2"/>
		<rect x="240" y="540.2" width="2.2" height="2.2"/>
		<rect x="240" y="542.3" width="2.2" height="2.1"/>
		<rect x="240" y="533.7" width="2.2" height="2.2"/>
		<rect x="240" y="544.5" width="2.2" height="2.2"/>
		<rect x="203.4" y="514.4" width="2.2" height="2.1"/>
		<rect x="207.7" y="514.4" width="2.2" height="2.1"/>
		<rect x="199.1" y="514.4" width="2.2" height="2.1"/>
		<rect x="231.4" y="514.4" width="2.2" height="2.1"/>
		<rect x="194.8" y="516.5" width="2.2" height="2.2"/>
		<rect x="194.8" y="514.4" width="2.2" height="2.1"/>
		<rect x="196.9" y="514.4" width="2.1" height="2.1"/>
		<rect x="194.8" y="518.7" width="2.2" height="2.2"/>
		<rect x="225" y="514.4" width="2.1" height="2.1"/>
		<rect x="212" y="514.4" width="2.2" height="2.1"/>
		<rect x="220.7" y="514.4" width="2.1" height="2.1"/>
		<rect x="218.5" y="514.4" width="2.2" height="2.1"/>
	</g>
	<polygon style="fill:#FFFFFF;" points="233.7,545.1 203.4,545 203.4,531.5 233.7,531.6 	"/>
	<g>
		<g id="形状_2_copy_3_副本_4_10_">
			<g>
				<path style="fill-rule:evenodd;clip-rule:evenodd;fill:#CCCCCC;" d="M205.8,540.3c-0.5,1.1-1,2-1.6,3.1h0.8
					c0.1-0.3,0.2-0.4,0.4-0.7c0.4,0,0.7,0,1.1,0c-0.1-0.2-0.1-0.4-0.2-0.6h-0.6c0.2-0.4,0.3-0.6,0.5-1c0.3,0.8,0.6,1.6,0.8,2.4h0.7
					c-0.4-1.1-0.7-2-1.1-3.1H205.8z M207.9,543.4h0.7l0.1-3.1l-0.6,0L207.9,543.4z M208.9,543.4h0.7l0.1-2.3H209L208.9,543.4z
					 M209.1,540.3l0,0.5c0,0,0.5,0,0.7,0l0-0.5C209.2,540.3,209.1,540.3,209.1,540.3z M213.3,541.1c-0.1,0-0.2-0.1-0.4-0.1
					c-0.1,0-0.2,0-0.2,0c-0.1,0-0.1,0-0.2,0.1c-0.1,0-0.1,0.1-0.2,0.1c0,0-0.1,0.1-0.1,0.1c0,0-0.1,0.1-0.1,0.1
					c0-0.1-0.1-0.1-0.1-0.2c0,0-0.1-0.1-0.1-0.1c0,0-0.1-0.1-0.1-0.1c-0.1,0-0.1,0-0.2-0.1c-0.1,0-0.1,0-0.2,0c-0.1,0-0.2,0-0.3,0
					c-0.1,0-0.2,0.1-0.2,0.1c-0.1,0-0.1,0.1-0.2,0.1c0,0-0.1,0.1-0.1,0.2l0-0.4h-0.6l-0.1,2.3c0,0,0.5,0,0.7,0c0-0.2,0-0.5,0-0.8
					c0-0.3,0-0.6,0.1-0.7c0-0.1,0.1-0.2,0.2-0.3c0.1-0.1,0.2-0.1,0.3-0.1c0.1,0,0.1,0,0.2,0c0,0,0.1,0.1,0.1,0.1
					c0,0,0.1,0.1,0.1,0.1c0,0,0,0.1,0,0.2c0,0.1,0,0.4,0,0.7c0,0.4,0,0.6,0,0.7c0.1,0,0.5,0,0.7,0l0-0.6c0-0.2,0-0.4,0-0.5
					c0-0.1,0-0.2,0.1-0.3c0-0.1,0.1-0.1,0.1-0.2c0-0.1,0.1-0.1,0.2-0.1c0.1,0,0.1,0,0.2,0c0.1,0,0.1,0,0.2,0c0.1,0,0.1,0.1,0.1,0.1
					c0,0.1,0.1,0.1,0.1,0.2c0,0.1,0,0.2,0,0.3l0,0.5c0,0.2,0,0.4,0,0.6c0.1,0,0.5,0,0.6,0c0-0.2,0-0.4,0-0.7c0-0.3,0-0.6,0-0.7
					c0-0.1,0-0.2,0-0.3c0-0.1,0-0.3-0.1-0.3C213.5,541.2,213.4,541.2,213.3,541.1z M215.8,541.1c-0.1,0-0.3-0.1-0.5-0.1
					c-0.1,0-0.3,0-0.5,0c-0.2,0-0.5,0.1-0.5,0.1l-0.1,0.4c0,0,0.6-0.2,0.9-0.2c0.1,0,0.1,0,0.2,0c0.1,0,0.1,0,0.2,0.1
					c0,0,0.1,0.1,0.1,0.2c0,0,0,0.1,0,0.1c0,0,0,0.1-0.1,0.1c0,0-0.1,0-0.1,0.1c0,0-0.1,0-0.1,0.1c-0.1,0-0.1,0-0.2,0
					c-0.2,0-0.4,0.1-0.5,0.1c-0.1,0-0.2,0.1-0.3,0.1c-0.1,0-0.1,0.1-0.2,0.2c0,0.1-0.1,0.1-0.1,0.2c0,0.1,0,0.1,0,0.2
					c0,0.1,0,0.2,0.1,0.3c0.1,0.1,0.1,0.2,0.3,0.2c0.1,0.1,0.3,0.1,0.5,0.1c0.1,0,0.1,0,0.2,0c0.1,0,0.2,0,0.3,0
					c0-0.2,0.1-0.3,0.1-0.4c-0.1,0-0.2,0-0.2,0.1c-0.1,0-0.1,0-0.2,0c-0.1,0-0.1,0-0.2,0c-0.1,0-0.1-0.1-0.1-0.1
					c0,0-0.1-0.1-0.1-0.2c0,0,0-0.1,0-0.1c0,0,0-0.1,0.1-0.1c0,0,0.1-0.1,0.1-0.1c0,0,0.1,0,0.2-0.1c0.1,0,0.1,0,0.2-0.1
					c0.1,0,0.2,0,0.2-0.1c0,0,0.1,0,0.1,0c0,0,0.1,0,0.1-0.1l-0.1,1.2h0.6c0,0,0-0.7,0-1.1c0-0.4,0-0.6,0-0.7c0-0.2,0-0.3-0.1-0.4
					C216,541.2,215.9,541.2,215.8,541.1z M219.8,541.1c-0.1,0-0.2-0.1-0.4-0.1c-0.1,0-0.2,0-0.2,0c-0.1,0-0.1,0-0.2,0.1
					c-0.1,0-0.1,0.1-0.2,0.1c0,0-0.1,0.1-0.1,0.1c0,0-0.1,0.1-0.1,0.1c0-0.1-0.1-0.1-0.1-0.2c0,0-0.1-0.1-0.1-0.1
					c0,0-0.1-0.1-0.1-0.1c-0.1,0-0.1,0-0.2-0.1c-0.1,0-0.1,0-0.2,0c-0.1,0-0.2,0-0.3,0c-0.1,0-0.2,0.1-0.2,0.1
					c-0.1,0-0.1,0.1-0.2,0.1c0,0-0.1,0.1-0.1,0.2l0-0.4h-0.6l-0.1,2.3h0.7c0,0,0-0.5,0-0.8c0-0.3,0-0.6,0.1-0.7
					c0-0.1,0.1-0.2,0.2-0.3c0.1-0.1,0.2-0.1,0.3-0.1c0.1,0,0.1,0,0.2,0c0,0,0.1,0.1,0.1,0.1c0,0,0.1,0.1,0.1,0.1c0,0,0,0.1,0,0.2
					c0,0.1,0,0.4,0,0.7c0,0.4,0,0.6,0,0.7c0.1,0,0.5,0,0.7,0l0-0.6c0-0.2,0-0.4,0-0.5c0-0.1,0-0.2,0.1-0.3c0-0.1,0.1-0.1,0.1-0.2
					c0-0.1,0.1-0.1,0.2-0.1c0.1,0,0.1,0,0.2,0c0.1,0,0.1,0,0.2,0c0.1,0,0.1,0.1,0.1,0.1c0,0.1,0.1,0.1,0.1,0.2c0,0.1,0,0.2,0,0.3
					l0,0.5c0,0.2,0,0.4,0,0.6c0.1,0,0.5,0,0.6,0c0-0.2,0-0.4,0-0.7c0-0.3,0-0.6,0-0.7c0-0.1,0-0.2,0-0.3c0-0.1,0-0.3-0.1-0.3
					C220.1,541.2,220,541.2,219.8,541.1z M222.3,541.1c-0.1,0-0.3-0.1-0.5-0.1c-0.1,0-0.3,0-0.5,0c-0.2,0-0.5,0.1-0.5,0.1l-0.1,0.4
					c0,0,0.6-0.2,0.9-0.2c0.1,0,0.1,0,0.2,0c0.1,0,0.1,0,0.2,0.1c0,0,0.1,0.1,0.1,0.2c0,0,0,0.1,0,0.1c0,0,0,0.1-0.1,0.1
					c0,0-0.1,0-0.1,0.1c0,0-0.1,0-0.2,0.1c-0.1,0-0.1,0-0.2,0c-0.2,0-0.4,0.1-0.5,0.1c-0.1,0-0.2,0.1-0.3,0.1
					c-0.1,0-0.1,0.1-0.2,0.2c0,0.1-0.1,0.1-0.1,0.2c0,0.1,0,0.1,0,0.2c0,0.1,0,0.2,0.1,0.3c0.1,0.1,0.1,0.2,0.3,0.2
					c0.1,0.1,0.3,0.1,0.5,0.1c0.1,0,0.1,0,0.2,0c0.1,0,0.1,0,0.3,0c0-0.2,0.1-0.3,0.1-0.4c-0.1,0-0.2,0-0.2,0.1c-0.1,0-0.1,0-0.2,0
					c-0.1,0-0.1,0-0.2,0c-0.1,0-0.1-0.1-0.1-0.1c0,0-0.1-0.1-0.1-0.2c0,0,0-0.1,0-0.1c0,0,0-0.1,0.1-0.1c0,0,0.1-0.1,0.1-0.1
					c0,0,0.1,0,0.2-0.1c0.1,0,0.1,0,0.2-0.1c0.1,0,0.2,0,0.2-0.1c0,0,0.1,0,0.1,0c0,0,0.1,0,0.1-0.1l-0.1,1.2h0.6c0,0,0-0.7,0-1.1
					c0-0.4,0-0.6,0-0.7c0-0.2,0-0.3-0.1-0.4C222.6,541.2,222.5,541.2,222.3,541.1z M223,542.8c0,0.3,0,0.5,0,0.6c0.2,0,0.6,0,0.6,0
					s0-0.5,0-0.6C223.5,542.8,223,542.8,223,542.8z M224.7,541.8c0.1-0.1,0.1-0.1,0.2-0.2c0.1,0,0.2-0.1,0.3-0.1
					c0.2,0,0.4,0,0.6,0.1l0-0.5c-0.1,0-0.3-0.1-0.4-0.1c-0.1,0-0.2,0-0.3,0c-0.2,0-0.3,0-0.5,0.1c-0.1,0-0.3,0.1-0.4,0.2
					c-0.1,0.1-0.2,0.3-0.3,0.4c-0.1,0.2-0.1,0.4-0.1,0.6c0,0.1,0,0.3,0.1,0.4c0,0.1,0.1,0.3,0.2,0.3c0.1,0.1,0.2,0.2,0.3,0.2
					c0.1,0.1,0.2,0.1,0.3,0.1c0.1,0,0.2,0,0.4,0c0.2,0,0.4,0,0.6-0.1c0-0.1,0-0.2,0-0.3c0-0.1,0-0.1,0-0.2c-0.1,0-0.2,0.1-0.3,0.1
					c-0.1,0-0.2,0-0.2,0c-0.1,0-0.3,0-0.4-0.1c-0.1-0.1-0.2-0.1-0.2-0.2c0-0.1-0.1-0.2-0.1-0.4c0-0.1,0-0.2,0-0.3
					C224.6,541.9,224.7,541.8,224.7,541.8z M228.2,541.4c-0.1-0.1-0.2-0.2-0.4-0.2c-0.2-0.1-0.3-0.1-0.5-0.1c-0.2,0-0.4,0-0.5,0.1
					c-0.2,0.1-0.3,0.2-0.4,0.3c-0.1,0.1-0.2,0.3-0.2,0.4c-0.1,0.2-0.1,0.3-0.1,0.5c0,0.2,0,0.3,0.1,0.5c0.1,0.2,0.1,0.3,0.3,0.4
					c0.1,0.1,0.2,0.2,0.4,0.2c0.2,0.1,0.3,0.1,0.5,0.1c0.2,0,0.4,0,0.5-0.1c0.2-0.1,0.3-0.1,0.4-0.3c0.1-0.1,0.2-0.3,0.3-0.4
					c0.1-0.2,0.1-0.3,0.1-0.5c0-0.2,0-0.3-0.1-0.5C228.4,541.6,228.3,541.5,228.2,541.4z M227.8,542.6c-0.1,0.1-0.1,0.2-0.2,0.3
					c-0.1,0.1-0.2,0.1-0.4,0.1c-0.1,0-0.2,0-0.3-0.1c-0.1-0.1-0.2-0.1-0.2-0.3c0-0.1-0.1-0.2-0.1-0.4c0-0.2,0-0.3,0.1-0.4
					c0.1-0.1,0.1-0.2,0.2-0.3c0.1-0.1,0.2-0.1,0.4-0.1c0.1,0,0.2,0,0.3,0.1c0.1,0.1,0.2,0.1,0.2,0.2c0,0.1,0.1,0.2,0.1,0.3
					C227.9,542.4,227.9,542.5,227.8,542.6z M232.3,541.3c-0.1-0.1-0.2-0.2-0.3-0.2c-0.1,0-0.2-0.1-0.4-0.1c-0.1,0-0.2,0-0.2,0
					c-0.1,0-0.1,0-0.2,0.1c-0.1,0-0.1,0.1-0.2,0.1c0,0-0.1,0.1-0.1,0.1c0,0-0.1,0.1-0.1,0.1c0-0.1-0.1-0.1-0.1-0.2
					c0,0-0.1-0.1-0.1-0.1c0,0-0.1-0.1-0.1-0.1c-0.1,0-0.1,0-0.2-0.1c-0.1,0-0.1,0-0.2,0c-0.1,0-0.2,0-0.3,0c-0.1,0-0.2,0.1-0.2,0.1
					c-0.1,0-0.1,0.1-0.2,0.1c0,0-0.1,0.1-0.1,0.2l0-0.4c-0.1,0-0.5,0-0.6,0c0,0.3-0.1,2.1-0.1,2.3c0.1,0,0.5,0,0.7,0
					c0-0.2,0-0.5,0-0.8c0-0.3,0-0.6,0.1-0.7c0-0.1,0.1-0.2,0.2-0.3c0.1-0.1,0.2-0.1,0.3-0.1c0.1,0,0.1,0,0.2,0c0,0,0.1,0.1,0.1,0.1
					c0,0,0.1,0.1,0.1,0.1c0,0,0,0.1,0,0.2c0,0.1,0,0.4,0,0.7c0,0.4,0,0.6,0,0.7c0.1,0,0.5,0,0.7,0l0-0.6c0-0.2,0-0.4,0-0.5
					c0-0.1,0-0.2,0.1-0.3c0-0.1,0.1-0.1,0.1-0.2c0-0.1,0.1-0.1,0.2-0.1c0.1,0,0.1,0,0.2,0c0.1,0,0.1,0,0.2,0c0.1,0,0.1,0.1,0.1,0.1
					c0,0.1,0.1,0.1,0.1,0.2c0,0.1,0,0.2,0,0.3l0,0.5c0,0.2,0,0.4,0,0.6c0.1,0,0.5,0,0.6,0c0-0.2,0-0.4,0-0.7c0-0.3,0-0.6,0-0.7
					c0-0.1,0-0.2,0-0.3C232.4,541.5,232.4,541.4,232.3,541.3z"/>
			</g>
		</g>
		<g id="形状_2_copy_3_副本_5_10_">
			<g>
				<path style="fill-rule:evenodd;clip-rule:evenodd;fill:#FF6600;" d="M207,533.8c1,0,1.9,0,2.9,0c0,1.4,0,2.9,0,4.3
					c0,0.1-0.1,0.2-0.2,0.2c-0.2,0-0.2,0-0.4,0v0.7c0.2,0,0.4,0,0.6,0c0.6,0,0.9-0.3,0.9-0.7c0-1.1,0-3.3,0-4.5h0.3v-0.7H207V533.8z
					 M221.8,536.9c-0.3,0-0.7,0.3-0.7,0.7c0.8,0,2.2,0,3.1,0c0,0.2,0,0.3,0,0.6c0.3,0,0.2,0,0.5,0c0.2,0,0.4-0.2,0.4-0.4
					c0-0.7,0-1.3,0-2.1c-0.1,0-0.3,0-0.4,0c0-0.6,0-1.7,0-2.1c0-0.2-0.2-0.4-0.4-0.4h-3v0.7h2.3c0,0.6,0,1.2,0,1.8
					c-0.6,0-0.6,0-1.1,0c-0.1,0-0.1-0.1-0.1-0.1c0-0.3,0-0.8,0-1.2c0-0.1-0.1-0.2-0.2-0.2h-0.7v1.6c0,0.3,0.3,0.6,0.6,0.6
					c0,0,1.2,0,2.2,0v0.6H221.8z M209.5,537.1c0-0.8,0-1.8,0-2.9H207v3.7c0.7,0,1.6,0,1.6,0C209.2,537.9,209.5,537.6,209.5,537.1z
					 M208.4,537.2c-0.2,0-0.4,0-0.6,0v-2.3c0.3,0,0.6,0,0.8,0c0,0.7,0,1.5,0,2.1C208.6,537.2,208.6,537.2,208.4,537.2z M204.3,533.3
					c0,1.3,0,3,0,5.7h0.9c0-1.7,0-3.5,0-5.2c0.2,0,0.5,0,0.7,0c0,1,0,1.9,0,2.8c0,0.4-0.3,0.5-0.3,0.5v0.7c0.6,0,1.2-0.6,1.2-1.2
					c0-1.1,0-2.4,0-3.5c-0.8,0-1.4,0-2.2,0C204.3,533.2,204.3,533.3,204.3,533.3z M232.1,535.7c0-0.6,0-1.7,0-2.1
					c0-0.2-0.2-0.4-0.4-0.4h-3v0.7c0.8,0,1.6,0,2.3,0v1.8c-0.6,0-0.6,0-1.1,0c-0.1,0-0.1-0.1-0.1-0.1c0-0.3,0-0.8,0-1.2
					c0-0.1-0.1-0.2-0.2-0.2c-0.2,0-0.5,0-0.7,0v1.6c0,0.3,0.3,0.6,0.6,0.6c0,0,1.2,0,2.2,0v0.6h-2.4c-0.3,0-0.7,0.2-0.7,0.7
					c0.8,0,2.2,0,3.1,0v0.6c0,0.1-0.1,0.2-0.2,0.2H231c0,0.3,0,0.5,0,0.7h0.5c0.2,0,0.1,0,0.3,0c0.5,0,0.7-0.3,0.6-0.6
					c0-0.8,0-1.9,0-2.8C232.4,535.7,232.2,535.7,232.1,535.7z M227.8,537.9c0.3-0.4,0.5-0.8,0.5-1.6c0-0.9,0-1.7,0-2.6
					c0-0.1-0.1-0.2-0.2-0.2c-0.3,0-0.8,0-1.1,0v-0.4h-0.9c0,0.1,0,0.3,0,0.4c-0.1,0-0.2,0-0.3,0v0.7h0.3v2.1c0,0.8,0.3,1.2,0.6,1.6
					c-0.4,0.3-0.8,0.4-1.3,0.4c-0.1,0-0.2,0-0.2,0c-0.8,0-1.9,0-2.7,0c-0.8,0-1.6-0.2-2-0.5c0.3-0.4,0.4-0.7,0.5-1.5
					c0-0.8,0-1.5,0-2.5c0-0.1-0.1-0.2-0.2-0.2c-0.4,0-0.7,0-1.1,0v-0.4c-0.4,0-0.5,0-0.9,0v0.4c-0.1,0-0.2,0-0.3,0v0.7
					c0.1,0,0.2,0,0.3,0c0,0.7,0,1.5,0,2.1c0.1,0.8,0.3,1.1,0.6,1.5c-0.5,0.3-1,0.5-1.6,0.5c-0.8,0-1.5,0-2.4,0c0-0.2,0-0.4,0-0.5
					h2.4v-0.7h-2.4c0-0.2,0-0.3,0-0.5c0.7,0,1.6,0,1.8,0c0,0,0.6,0,0.6-0.6c0-0.7,0-1.9,0-2.8c-1.9,0-3.9,0-5.8,0
					c-0.1,0-0.2,0.1-0.2,0.2c0,0.1,0,2.3,0,3.3c0.8,0,1.6,0,2.4,0v0.5h-2.4c0,0.2,0,0.5,0,0.7h2.4c0,0.2,0,0.3,0,0.5h-2.8
					c0,0.2,0,0.5,0,0.7c2.1,0,4.8,0,6.8,0c0.6,0,1.2-0.3,1.7-0.6c0.6,0.5,1.3,0.6,2.5,0.6c0.3,0,0.7,0,1.2,0c0.6,0,1.1,0,1.6,0
					c1,0,1.6-0.2,2.2-0.6c0.5,0.3,1.1,0.5,1.9,0.6v0h1.3v-0.7h-1.3C228.6,538.3,228.2,538.2,227.8,537.9z M214.2,536h-1.5v-0.7h1.5
					V536z M214.2,534.5h-1.5v-0.7c0.5,0,1,0,1.5,0V534.5z M215.3,533.8h1.5v0.7h-1.5V533.8z M215.3,535.2c0.5,0,1,0,1.5,0
					c0,0.3,0,0.5,0,0.7h-1.5C215.3,535.8,215.3,535.5,215.3,535.2z M220.1,536.3c0,0.5-0.1,0.6-0.2,0.9c-0.1-0.3-0.3-0.4-0.3-0.9
					c0-0.6,0-1.4,0-2.1h0.5V536.3z M227.5,536.3c0,0.4-0.1,0.6-0.2,0.9c-0.1-0.2-0.3-0.5-0.3-0.9c0-0.6,0-1.4,0-2.1h0.5
					C227.5,534.9,227.5,535.7,227.5,536.3z"/>
			</g>
		</g>
	</g>
</g>
</svg>
