<?xml version="1.0" encoding="utf-8"?>
<!-- Generator: Adobe Illustrator 17.1.0, SVG Export Plug-In . SVG Version: 6.00 Build 0)  -->
<!DOCTYPE svg PUBLIC "-//W3C//DTD SVG 1.1//EN" "http://www.w3.org/Graphics/SVG/1.1/DTD/svg11.dtd">
<svg version="1.1" id="图层_1" xmlns="http://www.w3.org/2000/svg" xmlns:xlink="http://www.w3.org/1999/xlink" x="0px" y="0px"
	 viewBox="0 0 349.7 773" style="enable-background:new 0 0 349.7 773;" xml:space="preserve">
<g>
	<rect x="6.8" y="4" style="fill:#FFFFFF;stroke:#D8D8D8;stroke-miterlimit:10;" width="339.3" height="765.4"/>
	<g>
		<path style="fill:#FF6600;" d="M217.6,211.1h-49.9c-4,0-7.3-3.3-7.3-7.3s3.3-7.3,7.3-7.3h49.9c4,0,7.3,3.3,7.3,7.3
			S221.6,211.1,217.6,211.1z"/>
		<path style="fill:#FF6600;" d="M192.6,236.1c-4,0-7.3-3.3-7.3-7.3v-49.9c0-4,3.3-7.3,7.3-7.3s7.3,3.3,7.3,7.3v49.9
			C199.9,232.8,196.7,236.1,192.6,236.1z"/>
		<g>
			<path style="fill:#FDBC52;" d="M249.9,245.3H243c-0.6,0-1-0.4-1-1c0-0.6,0.4-1,1-1h6.9c0.6,0,1,0.4,1,1
				C250.9,244.8,250.5,245.3,249.9,245.3z"/>
			<path style="fill:#FDBC52;" d="M246.5,248.7c-0.6,0-1-0.4-1-1v-6.9c0-0.6,0.4-1,1-1c0.6,0,1,0.4,1,1v6.9
				C247.5,248.3,247,248.7,246.5,248.7z"/>
		</g>
		<g>
			<path style="fill:#FDBC52;" d="M199,350h-3.9c-0.3,0-0.6-0.3-0.6-0.6s0.3-0.6,0.6-0.6h3.9c0.3,0,0.6,0.3,0.6,0.6
				S199.3,350,199,350z"/>
			<path style="fill:#FDBC52;" d="M197.1,352c-0.3,0-0.6-0.3-0.6-0.6v-3.9c0-0.3,0.3-0.6,0.6-0.6s0.6,0.3,0.6,0.6v3.9
				C197.7,351.7,197.4,352,197.1,352z"/>
		</g>
		<path style="fill:#FDBC52;" d="M82.2,201h-4.5c-0.4,0-0.7-0.3-0.7-0.7c0-0.4,0.3-0.7,0.7-0.7h4.5c0.4,0,0.7,0.3,0.7,0.7
			C82.9,200.7,82.6,201,82.2,201z"/>
		<path style="fill:#FDBC52;" d="M80,203.3c-0.4,0-0.7-0.3-0.7-0.7v-4.5c0-0.4,0.3-0.7,0.7-0.7c0.4,0,0.7,0.3,0.7,0.7v4.5
			C80.6,203,80.3,203.3,80,203.3z"/>
		<g>
			<defs>
				<polygon id="SVGID_1_" points="6.8,435.4 188.3,435.4 187.7,161.9 6.8,161.9 				"/>
			</defs>
			<clipPath id="SVGID_2_">
				<use xlink:href="#SVGID_1_"  style="overflow:visible;"/>
			</clipPath>
			<g style="clip-path:url(#SVGID_2_);">
				<path style="fill:#FF6600;" d="M164,248.2H-13.6c-4.2,0-7.7-3.4-7.7-7.7c0-4.2,3.4-7.7,7.7-7.7H164c4.2,0,7.7,3.4,7.7,7.7
					C171.7,244.8,168.3,248.2,164,248.2z"/>
				<path style="fill:#FF6600;" d="M151.9,292H-1.5c-4.2,0-7.7-3.4-7.7-7.7c0-4.2,3.4-7.7,7.7-7.7h153.4c4.2,0,7.7,3.4,7.7,7.7
					C159.6,288.5,156.1,292,151.9,292z"/>
				<path style="fill:#00A199;" d="M-1.5,312.9c-4.2,0-7.7-3.4-7.7-7.7v-20.9c0-4.2,3.4-7.7,7.7-7.7c4.2,0,7.7,3.4,7.7,7.7v20.9
					C6.2,309.5,2.8,312.9-1.5,312.9z"/>
				<path style="fill:#FF6600;" d="M151.9,312.9H-1.5c-4.2,0-7.7-3.4-7.7-7.7c0-4.2,3.4-7.7,7.7-7.7h153.4c4.2,0,7.7,3.4,7.7,7.7
					C159.6,309.5,156.1,312.9,151.9,312.9z"/>
				<path style="fill:#5C82B4;" d="M151.9,312.9c-4.2,0-7.7-3.4-7.7-7.7v-20.9c0-4.2,3.4-7.7,7.7-7.7s7.7,3.4,7.7,7.7v20.9
					C159.6,309.5,156.1,312.9,151.9,312.9z"/>
				<path style="fill:#EB6300;" d="M-1.5,270.5c-4.2,0-7.7-3.4-7.7-7.7v-21.3c0-4.2,3.4-7.7,7.7-7.7c4.2,0,7.7,3.4,7.7,7.7v21.3
					C6.2,267.1,2.8,270.5-1.5,270.5z"/>
				<path style="fill:#FDBC52;" d="M151.9,270.5H-1.5c-4.2,0-7.7-3.4-7.7-7.7c0-4.2,3.4-7.7,7.7-7.7h153.4c4.2,0,7.7,3.4,7.7,7.7
					C159.6,267.1,156.1,270.5,151.9,270.5z"/>
				<path style="fill:#FF6600;" d="M173.4,409.3c-3.3,0-10.8-0.7-16.9-6.3c-5.5-5-8.3-12.4-8.3-21.8v-53.5c0-4.2,3.4-7.7,7.7-7.7
					c4.2,0,7.7,3.4,7.7,7.7v53.5c0,4.9,1.1,8.4,3.2,10.4c2.8,2.6,6.9,2.4,6.9,2.4c4.2-0.4,8.5,2.7,8.9,7c0.4,4.2-3.4,8-7.6,8.3
					C174.7,409.2,174.2,409.3,173.4,409.3z"/>
				<path style="fill:#FF6600;" d="M155.8,335.3h-35.9c-4.2,0-7.7-3.4-7.7-7.7c0-4.2,3.4-7.7,7.7-7.7h35.9c4.2,0,7.7,3.4,7.7,7.7
					C163.5,331.8,160.1,335.3,155.8,335.3z"/>
				<path style="fill:#FF6600;" d="M119.9,409.2c-4.2,0-7.7-3.4-7.7-7.7v-74c0-4.2,3.4-7.7,7.7-7.7c4.2,0,7.7,3.4,7.7,7.7v74
					C127.6,405.8,124.1,409.2,119.9,409.2z"/>
				<path style="fill:#EB6300;" d="M-24,409.3c-0.8,0-1.3,0-1.5-0.1c-4.2-0.4-7.3-4.1-7-8.3c0.4-4.2,4.1-7.4,8.3-7c0,0,0,0,0.2,0
					c0.8,0,4.3-0.1,6.7-2.4c2.1-2,3.2-5.5,3.2-10.4v-53.5c0-4.2,3.4-7.7,7.7-7.7c4.2,0,7.7,3.4,7.7,7.7v53.5
					c0,9.5-2.8,16.8-8.3,21.8C-13.2,408.6-20.7,409.3-24,409.3z"/>
				<path style="fill:#5C82B4;" d="M29.5,335.3H-6.4c-4.2,0-7.7-3.4-7.7-7.7c0-4.2,3.4-7.7,7.7-7.7h35.9c4.2,0,7.7,3.4,7.7,7.7
					C37.2,331.8,33.8,335.3,29.5,335.3z"/>
				<path style="fill:#FF6600;" d="M29.5,409.2c-4.2,0-7.7-3.4-7.7-7.7v-74c0-4.2,3.4-7.7,7.7-7.7c4.2,0,7.7,3.4,7.7,7.7v74
					C37.2,405.8,33.8,409.2,29.5,409.2z"/>
				<path style="fill:#B4AB76;" d="M95.7,388.8c-4.2,0-7.7-3.4-7.7-7.7v-53.5c0-4.2,3.4-7.7,7.7-7.7c4.2,0,7.7,3.4,7.7,7.7v53.5
					C103.4,385.3,100,388.8,95.7,388.8z"/>
				<path style="fill:#FF6600;" d="M95.7,335.3H54.7c-4.2,0-7.7-3.4-7.7-7.7c0-4.2,3.4-7.7,7.7-7.7h41.1c4.2,0,7.7,3.4,7.7,7.7
					C103.4,331.8,100,335.3,95.7,335.3z"/>
				<path style="fill:#FDBC52;" d="M54.7,388.8c-4.2,0-7.7-3.4-7.7-7.7v-53.5c0-4.2,3.4-7.7,7.7-7.7s7.7,3.4,7.7,7.7v53.5
					C62.4,385.3,58.9,388.8,54.7,388.8z"/>
				<path style="fill:#FF6600;" d="M29.5,360.4H-6.4c-4.2,0-7.7-3.4-7.7-7.7s3.4-7.7,7.7-7.7h35.9c4.2,0,7.7,3.4,7.7,7.7
					S33.8,360.4,29.5,360.4z"/>
				<path style="fill:#FF6600;" d="M29.5,385.9H-6.4c-4.2,0-7.7-3.4-7.7-7.7c0-4.2,3.4-7.7,7.7-7.7h35.9c4.2,0,7.7,3.4,7.7,7.7
					C37.2,382.5,33.8,385.9,29.5,385.9z"/>
				<path style="fill:#5C82B4;" d="M53.5,409.2c-4.2,0-7.6-3.4-7.7-7.6c0-4.2,3.4-7.7,7.6-7.7c3.1-0.1,13.5-1.5,13.5-15.5
					c0-4.2,3.4-7.7,7.7-7.7c4.2,0,7.7,3.4,7.7,7.7c0,12.2-5.2,21.8-14.5,27C61,409.1,54.3,409.2,53.5,409.2
					C53.5,409.2,53.5,409.2,53.5,409.2z"/>
				<path style="fill:#FF6600;" d="M74.6,386c-4.2,0-7.7-3.4-7.7-7.7v-32.2c0-4.2,3.4-7.7,7.7-7.7c4.2,0,7.7,3.4,7.7,7.7v32.2
					C82.3,382.6,78.8,386,74.6,386z"/>
				<path style="fill:#FF6600;" d="M94.5,409.2h-5.9c-4.2,0-7.7-3.4-7.7-7.7s3.4-7.7,7.7-7.7h5.9c4.2,0,7.7,3.4,7.7,7.7
					S98.7,409.2,94.5,409.2z"/>
				<path style="fill:#FF6600;" d="M137.9,375.2c-4.2,0-7.7-3.4-7.7-7.7v-5.9c0-4.2,3.4-7.7,7.7-7.7c4.2,0,7.7,3.4,7.7,7.7v5.9
					C145.5,371.8,142.1,375.2,137.9,375.2z"/>
			</g>
		</g>
		<g>
			<defs>
				<rect id="SVGID_3_" x="121.2" y="4" width="225.8" height="155.8"/>
			</defs>
			<clipPath id="SVGID_4_">
				<use xlink:href="#SVGID_3_"  style="overflow:visible;"/>
			</clipPath>
			<g style="clip-path:url(#SVGID_4_);">
				<path style="fill:none;stroke:#FDBC52;stroke-miterlimit:10;" d="M186.1,112c-0.1,0-0.2,0-0.3,0c-3.2-0.2-5.7-2.9-5.5-6.1
					c0.2-3.1,2.7-5.5,5.8-5.5c0.1,0,0.2,0,0.3,0c3.2,0.2,5.7,2.9,5.5,6.1C191.8,109.6,189.2,112,186.1,112z M186.1,100.5
					c-3,0-5.5,2.4-5.6,5.4c-0.2,3.1,2.2,5.8,5.3,6c0.1,0,0.2,0,0.3,0c3,0,5.5-2.4,5.6-5.4c0.2-3.1-2.2-5.8-5.3-6
					C186.3,100.5,186.2,100.5,186.1,100.5z"/>
				<path style="fill:none;stroke:#FF6600;stroke-miterlimit:10;" d="M207.5,102c-1,0-2.1-0.1-3.1-0.4c-3.4-0.8-6.3-2.9-8.2-5.9
					c-1.9-3-2.4-6.6-1.6-10c1.4-6,6.7-10.2,12.9-10.2c1,0,2.1,0.1,3.1,0.4c3.4,0.8,6.3,2.9,8.2,5.9c1.9,3,2.4,6.6,1.6,10
					C219,97.9,213.7,102,207.5,102z M207.5,75.8c-6.1,0-11.3,4.1-12.7,10c-0.8,3.4-0.3,6.9,1.6,9.9c1.8,3,4.7,5,8.1,5.9
					c1,0.2,2,0.4,3,0.4c6.1,0,11.3-4.1,12.7-10c0.8-3.4,0.3-6.9-1.6-9.9c-1.8-3-4.7-5-8.1-5.9C209.6,75.9,208.5,75.8,207.5,75.8z"/>
				<path style="fill:#FF6600;" d="M239.5,104.4L239.5,104.4c-10.6,0-20.8-3.5-30.4-10.3c-12.6-9-19.9-20.2-21.7-33.2
					C184,35.2,203.6,11,203.8,10.7c24.6-31.8,67.5-40.4,67.9-40.5c11.6-2.1,23-3.1,33.9-3.1c36.5,0,57.8,11.5,67.2,18.4
					c15.6,11.3,21.1,25.1,20.9,34.1c-0.1,6.6-3.2,13.5-8.2,18.5c-7.5,7.4-19.1,10.8-33.3,9.8c-2.4-0.2-4.6-0.3-6.7-0.3
					c-15.3,0-25.8,4.8-39.9,18.3c-0.9,0.9-2,2-3.4,3.3C291,80.6,267.5,104.4,239.5,104.4z M305.6-32.3c-10.8,0-22.2,1-33.8,3.1
					c-0.4,0.1-43.1,8.6-67.6,40.3c-0.2,0.2-19.6,24.3-16.2,49.7c1.7,12.8,8.9,23.8,21.4,32.8c9.5,6.8,19.6,10.2,30,10.2h0
					c27.8,0,51.2-23.6,62.4-35c1.3-1.3,2.4-2.5,3.4-3.4C319.5,51.8,330,47,345.5,47c2.1,0,4.3,0.1,6.7,0.3c1.6,0.1,3.3,0.2,4.8,0.2
					c28.3,0,35.9-18.2,36.1-27.8c0.1-8.9-5.3-22.5-20.7-33.6C363-20.9,341.9-32.3,305.6-32.3z"/>
				<path style="fill:#FF9E12;" d="M311.7,130.6c-17.1,0-41-4-57.2-23.1c-4.8-5.6-8.6-11-12.1-15.7c-11-15.3-18.3-25.4-40.4-25.4
					l-0.3,0c-8.2,0-15.3-3.2-20.5-9.1c-6.8-7.8-9.8-19.7-8.1-31.9C175,12.6,178.3,3.9,191.5-8c0.1-0.1,10.7-8.5,26.5-8.5
					c11,0,21.9,4.1,32.3,12c6.4,4.9,16.8,7.4,31,7.4c17.1,0,33.8-3.7,34-3.8c0.1,0,12.4-3,26.5-3c12.2,0,22.1,2.2,29.3,6.4
					c20.3,12,28.1,32.1,23.9,61.3c-2.7,18.8-13,36-29,48.3c-15.3,11.8-34.4,18.3-53.8,18.3L311.7,130.6z M202.1,65.7
					c22.4,0,30.1,10.8,40.9,25.7c3.4,4.8,7.3,10.1,12,15.7c16.1,18.9,39.8,22.9,56.8,22.9l0.4,0c19.3-0.1,38.3-6.5,53.5-18.2
					c15.9-12.2,26.1-29.2,28.8-47.9c4.2-29-3.5-48.8-23.6-60.7c-7.1-4.2-16.8-6.3-29-6.3c-14,0-26.2,2.9-26.4,2.9
					c-0.2,0-16.9,3.8-34.1,3.8c-14.3,0-24.9-2.5-31.4-7.5c-10.3-7.9-21-11.9-31.9-11.9c-15.5,0-25.9,8.2-26.1,8.3
					c-13.1,11.7-16.4,20.3-18.1,32.9c-1.7,12,1.3,23.8,7.9,31.4c5.1,5.8,12,8.9,20,8.9H202.1z"/>
				<path style="fill:#FDBC52;" d="M312.7,110.7c-4.8,0-9.8-0.4-14.9-1.1c-19.8-2.9-40.4-14.4-56.3-31.7
					c-15.3-16.6-23.8-35.8-22.7-51.4c0.8-12.5,6.9-24.1,16.8-31.7c9.4-7.3,21.1-10.1,33-7.9c10.6,2,18.3,11.1,26.4,20.8
					c7.1,8.4,14.4,17.1,24.5,22.9c9.8,5.5,19.9,8.1,28.9,10.3c15,3.7,26.9,6.7,26.4,22.2l-0.6,0c0.4-15.1-10.6-17.8-26-21.6
					c-9-2.2-19.2-4.7-29-10.3c-10.3-5.8-17.6-14.6-24.7-23.1c-8.1-9.6-15.7-18.7-26-20.6c-11.7-2.2-23.2,0.6-32.5,7.8
					c-9.7,7.5-15.7,18.9-16.5,31.3c-1,15.4,7.4,34.5,22.6,50.9c15.8,17.2,36.2,28.6,55.9,31.5c23.8,3.4,45.7-1.4,60.1-13.2
					c10-8.3,15.6-19.4,16.2-32l0.6,0c-0.6,12.8-6.3,24-16.4,32.4C346.9,105.6,330.8,110.7,312.7,110.7z"/>
			</g>
		</g>
		<path style="fill:#FF6600;" d="M84.5,204.1c0,0-0.4-0.6-1.6-0.6c-0.4,0-5.4,0-5.8,0c-1.2,0-1.6,0.6-1.6,0.6s-0.6,0.6-0.1,1.6
			c0.6,1.3,1.7,3.5,1.7,3.5h6c0,0,1.1-2.2,1.7-3.5C85.1,204.7,84.5,204.1,84.5,204.1z"/>
		<path style="fill:#FF6600;" d="M84.4,212.7h-8.9c-0.7,0-1.3-0.5-1.3-1c0-0.6,0.6-1,1.3-1h8.9c0.7,0,1.3,0.5,1.3,1
			C85.7,212.2,85.1,212.7,84.4,212.7z"/>
		<path style="fill:#FF6600;" d="M83.5,211.1h-7.1c-0.6,0-1-0.4-1-0.8s0.5-0.8,1-0.8h7.1c0.6,0,1,0.4,1,0.8S84.1,211.1,83.5,211.1z"
			/>
		<path style="fill:#FF6600;" d="M84.6,228.4h-9.2c-0.7,0-1.3-0.5-1.3-1c0-0.6,0.6-1,1.3-1h9.2c0.7,0,1.3,0.5,1.3,1
			C85.9,228,85.3,228.4,84.6,228.4z"/>
		<path style="fill:#FF6600;" d="M87.9,229.8c-3.8-2-4.3-6.7-4.8-11.2c-0.4-3.4-0.3-6-0.3-6.9h-5.8c0.1,0.9,0.1,3.5-0.3,6.9
			c-0.5,4.6-1,9.2-4.8,11.2c-1.3,0.7-2.1,2.1-0.8,3v0.6h17.5v-0.6C90,231.9,89.2,230.5,87.9,229.8z"/>
		<path style="fill:#FF6600;" d="M191.9,430c-4.2,0-7.6,3.4-7.6,7.6c0,4.4,2.8,5.8,4.5,9.5c2,4.3,3.1,8.2,3.1,8.2s1.1-4,3.1-8.3
			c1.7-3.6,4.5-5.1,4.5-9.4C199.5,433.4,196.1,430,191.9,430z M191.9,441.1c-1.9,0-3.4-1.5-3.4-3.4c0-1.9,1.5-3.4,3.4-3.4
			c1.9,0,3.4,1.5,3.4,3.4C195.3,439.6,193.8,441.1,191.9,441.1z"/>
		<g id="阿里妈妈_10_">
			<g>
				<path style="fill-rule:evenodd;clip-rule:evenodd;fill:#FF6600;" d="M254.3,32.4c2.5,0,5,0,7.5,0c0,3.7,0,7.5,0,11
					c0,0.2-0.3,0.5-0.6,0.6c-0.4,0-0.6,0-1,0v1.8c0.6,0,1.1,0,1.6,0c1.4,0,2.4-0.7,2.4-1.9c0-2.8,0-8.5,0-11.4h0.9v-1.7h-10.7V32.4z
					 M292.5,40.4c-0.7,0-1.7,0.7-1.7,1.7c2.2,0,5.6,0,8,0c0,0.4,0,0.9,0,1.4c0.8,0,0.5,0,1.3,0c0.5,0,1.1-0.4,1.1-1.1
					c0-1.9,0-3.4,0-5.3c-0.4,0-0.7,0-1.1,0c0-1.4,0-4.4,0-5.5c0-0.4-0.4-0.9-1-0.9h-7.8v1.7h6c0,1.6,0,3.1,0,4.7c-1.4,0-1.7,0-2.9,0
					c-0.2,0-0.3-0.2-0.3-0.3c0-0.8,0-2,0-3.1c0-0.2-0.2-0.5-0.6-0.5h-1.8v4.1c0,0.8,0.7,1.5,1.5,1.5c0,0,3.1,0,5.6,0v1.5H292.5z
					 M260.7,40.9c0-2,0-4.7,0-7.4h-6.2v9.4c1.8,0,4.1,0,4.1,0C260.2,42.9,260.7,42,260.7,40.9z M258,41.2c-0.4,0-0.9,0-1.6,0v-5.9
					c0.7,0,1.4,0,2.1,0c0,1.8,0,3.8,0,5.3C258.6,40.9,258.4,41.2,258,41.2z M247.3,31.2c0,3.4,0,7.8,0,14.6h2.3c0-4.3,0-8.9,0-13.3
					c0.5,0,1.2,0,1.7,0c0,2.6,0,4.8,0,7.2c0,1-0.9,1.3-0.9,1.3v1.9c1.6,0,3.1-1.7,3.1-3.2c0-2.7,0-6.2,0-9c-2.1,0-3.7,0-5.7,0
					C247.3,30.7,247.3,31.2,247.3,31.2z M319,37.1c0-1.4,0-4.4,0-5.5c0-0.4-0.4-0.9-1-0.9h-7.8v1.7c2,0,4,0,6,0v4.7
					c-1.4,0-1.7,0-2.9,0c-0.2,0-0.3-0.2-0.3-0.3c0-0.8,0-2,0-3.1c0-0.2-0.2-0.5-0.6-0.5c-0.5,0-1.2,0-1.8,0v4.1
					c0,0.8,0.7,1.5,1.5,1.5c0,0,3.1,0,5.6,0v1.5h-6.1c-0.7,0-1.8,0.6-1.8,1.7c2.2,0,5.6,0,7.9,0v1.6c0,0.3-0.2,0.4-0.5,0.4h-0.9
					c0,0.8,0,1.2,0,1.7h1.4c0.4,0,0.3,0,0.8,0c1.2,0,1.7-0.8,1.7-1.5c0-2.2,0-5,0-7.1C319.7,37.1,319.4,37.1,319,37.1z M307.9,42.9
					c0.8-0.9,1.3-2,1.4-4.1c0-2.2,0-4.4,0-6.6c0-0.2-0.2-0.4-0.5-0.4c-0.9,0-2,0-2.9,0v-1h-2.3c0,0.3,0,0.7,0,1c-0.2,0-0.5,0-0.8,0
					v1.7h0.8v5.4c0,2.1,0.7,3.1,1.5,4.1c-1,0.7-2,1.1-3.5,1.1c-0.2,0-0.4,0-0.6,0c-2.2,0-4.8,0-7.1,0c-2.2,0-4.2-0.4-5-1.3
					c0.7-1,1.1-1.8,1.4-3.9c0-2.1,0-3.8,0-6.5c0-0.3-0.3-0.5-0.5-0.6c-0.9,0-1.8,0-2.9,0v-1c-0.9,0-1.3,0-2.2,0v1
					c-0.3,0-0.4,0-0.8,0v1.7c0.3,0,0.5,0,0.8,0c0,1.8,0,3.7,0,5.3c0.2,2.1,0.8,2.8,1.6,4c-1.2,0.8-2.6,1.2-4.2,1.3c-2,0-3.7,0-6.2,0
					c0-0.4,0-1,0-1.3h6.2v-1.8h-6.2c0-0.4,0-0.9,0-1.3c1.8,0,4.2,0,4.7,0c0,0,1.5,0,1.5-1.7c0-1.7,0-4.9,0-7.2c-4.9,0-9.9,0-14.9,0
					c-0.2,0-0.5,0.3-0.5,0.4c0,0.4,0,5.8,0,8.4c2.1,0,4.2,0,6.2,0v1.3h-6.2c0,0.6,0,1.2,0,1.8h6.2c0,0.4,0,0.9,0,1.3h-7.3
					c0,0.5,0,1.2,0,1.7c5.5,0,12.2,0,17.6,0c1.4,0,3.2-0.7,4.5-1.5c1.6,1.2,3.4,1.5,6.3,1.5c0.9,0,1.9,0,3,0c1.5,0,2.9,0,4.1,0
					c2.5,0,4-0.5,5.6-1.4c1.4,0.8,2.7,1.4,4.9,1.4v0h3.3V44h-3.3C310.1,43.9,308.9,43.7,307.9,42.9z M272.9,37.9h-3.8v-1.8h3.8V37.9
					z M272.9,34.2h-3.8v-1.8c1.3,0,2.6,0,3.8,0V34.2z M275.8,32.4h3.8v1.8h-3.8V32.4z M275.8,36.1c1.3,0,2.6,0,3.8,0
					c0,0.7,0,1.3,0,1.8h-3.8C275.8,37.4,275.8,36.6,275.8,36.1z M288.2,38.8c-0.1,1.2-0.3,1.5-0.6,2.3c-0.4-0.7-0.7-1.1-0.8-2.3
					c0-1.6,0-3.7,0-5.3h1.3V38.8z M307.2,38.8c0,1.1-0.3,1.6-0.6,2.3c-0.4-0.6-0.7-1.2-0.7-2.3c0-1.7,0-3.7,0-5.4h1.3
					C307.2,35.2,307.2,37.2,307.2,38.8z"/>
			</g>
		</g>
		<g id="alimama.com_10_">
			<g>
				<path style="fill-rule:evenodd;clip-rule:evenodd;fill:#CBCBCB;" d="M251.4,49.1c-1.4,2.7-2.6,5.1-4.1,8h1.9
					c0.4-0.7,0.6-1.1,1-1.9c1,0,1.8,0,2.8,0c-0.2-0.6-0.4-1-0.5-1.5H251c0.5-0.9,0.7-1.4,1.4-2.7c0.7,2.1,1.5,4.2,2.2,6.1h1.8
					c-1-2.8-1.9-5.2-2.8-8H251.4z M256.8,57h1.7l0.4-8l-1.7,0L256.8,57z M259.5,57h1.8l0.2-5.9h-1.7L259.5,57z M259.8,49.1l-0.1,1.3
					c0,0,1.3,0,1.7,0l0.1-1.3C260,49.1,260,49.1,259.8,49.1z M270.7,51.1c-0.3-0.1-0.6-0.2-1-0.2c-0.2,0-0.4,0-0.6,0.1
					c-0.2,0-0.4,0.1-0.5,0.2c-0.1,0.1-0.3,0.1-0.4,0.2c-0.1,0.1-0.2,0.2-0.3,0.3c-0.1,0.1-0.2,0.2-0.2,0.3c-0.1-0.2-0.2-0.3-0.2-0.4
					c-0.1-0.1-0.1-0.2-0.2-0.3c-0.1-0.1-0.2-0.1-0.3-0.2c-0.1-0.1-0.3-0.1-0.4-0.1c-0.2,0-0.3,0-0.5,0c-0.2,0-0.5,0-0.7,0.1
					c-0.2,0.1-0.4,0.1-0.6,0.2c-0.2,0.1-0.3,0.2-0.4,0.3c-0.1,0.1-0.2,0.3-0.3,0.4l0-0.9h-1.6l-0.3,5.9c0,0,1.3,0,1.7,0
					c0-0.5,0-1.2,0.1-2.1c0-0.9,0.1-1.4,0.2-1.7c0.1-0.3,0.2-0.5,0.5-0.7c0.2-0.2,0.4-0.3,0.7-0.3c0.1,0,0.3,0,0.4,0.1
					c0.1,0.1,0.2,0.1,0.3,0.2c0.1,0.1,0.1,0.2,0.2,0.3c0,0.1,0,0.3,0,0.4c0,0.3,0,0.9-0.1,1.9c-0.1,0.9-0.1,1.5-0.1,1.8
					c0.4,0,1.4,0,1.7,0l0-1.6c0-0.6,0-1,0.1-1.4c0-0.4,0.1-0.6,0.1-0.8c0.1-0.2,0.2-0.4,0.3-0.5c0.1-0.1,0.3-0.3,0.4-0.3
					c0.1-0.1,0.3-0.1,0.5-0.1c0.2,0,0.3,0,0.5,0.1c0.1,0.1,0.2,0.2,0.3,0.3c0.1,0.1,0.1,0.4,0.1,0.6c0,0.2,0,0.5,0,0.9l-0.1,1.3
					c0,0.5-0.1,1.1-0.1,1.6c0.3,0,1.4,0,1.7,0c0-0.4,0-1.1,0.1-1.9c0-0.8,0.1-1.4,0.1-1.8c0-0.4,0-0.6,0-0.8c0-0.4-0.1-0.7-0.3-0.9
					C271.3,51.4,271,51.2,270.7,51.1z M277.1,51.1c-0.4-0.1-0.8-0.1-1.2-0.1c-0.4,0-0.8,0-1.2,0.1c-0.4,0.1-1.4,0.3-1.4,0.3
					l-0.2,1.1c0,0,1.6-0.5,2.4-0.5c0.2,0,0.4,0,0.5,0.1c0.2,0,0.3,0.1,0.4,0.2c0.1,0.1,0.1,0.2,0.1,0.4c0,0.1,0,0.2,0,0.2
					c0,0.1-0.1,0.1-0.2,0.2c-0.1,0.1-0.2,0.1-0.3,0.2c-0.1,0-0.2,0.1-0.4,0.1c-0.2,0-0.3,0.1-0.5,0.1c-0.6,0.1-1,0.2-1.4,0.4
					c-0.3,0.1-0.6,0.2-0.8,0.4c-0.2,0.1-0.3,0.3-0.4,0.4c-0.1,0.1-0.2,0.3-0.3,0.4c-0.1,0.2-0.1,0.3-0.1,0.5c0,0.3,0.1,0.6,0.2,0.9
					c0.1,0.3,0.4,0.5,0.7,0.6c0.3,0.1,0.7,0.2,1.2,0.2c0.1,0,0.3,0,0.5,0c0.2,0,0.4,0,0.7-0.1c0.1-0.4,0.2-0.8,0.3-1
					c-0.2,0.1-0.4,0.1-0.6,0.1c-0.1,0-0.3,0-0.4,0c-0.2,0-0.4,0-0.5-0.1c-0.1,0-0.3-0.1-0.4-0.2c-0.1-0.1-0.1-0.3-0.1-0.4
					c0-0.1,0-0.2,0.1-0.3c0-0.1,0.1-0.2,0.2-0.3c0.1-0.1,0.2-0.2,0.3-0.2c0.1-0.1,0.3-0.1,0.4-0.2c0.1,0,0.3-0.1,0.6-0.2
					c0.2-0.1,0.4-0.1,0.5-0.2c0.1,0,0.2-0.1,0.3-0.1c0.1,0,0.2-0.1,0.3-0.2l-0.2,3.1h1.7c0,0,0-1.9,0.1-2.8c0.1-0.9,0.1-1.5,0.1-1.7
					c0-0.4-0.1-0.7-0.3-0.9C277.7,51.4,277.4,51.2,277.1,51.1z M287.5,51.1c-0.3-0.1-0.6-0.2-1-0.2c-0.2,0-0.4,0-0.6,0.1
					c-0.2,0-0.4,0.1-0.5,0.2c-0.1,0.1-0.3,0.1-0.4,0.2c-0.1,0.1-0.2,0.2-0.3,0.3c-0.1,0.1-0.2,0.2-0.2,0.3c-0.1-0.2-0.2-0.3-0.2-0.4
					c-0.1-0.1-0.1-0.2-0.2-0.3c-0.1-0.1-0.2-0.1-0.3-0.2c-0.1-0.1-0.3-0.1-0.4-0.1c-0.2,0-0.3,0-0.5,0c-0.2,0-0.5,0-0.7,0.1
					c-0.2,0.1-0.4,0.1-0.6,0.2c-0.2,0.1-0.3,0.2-0.4,0.3c-0.1,0.1-0.2,0.3-0.3,0.4l0-0.9h-1.6L279,57h1.7c0,0,0-1.2,0.1-2.1
					c0-0.9,0.1-1.4,0.2-1.7c0.1-0.3,0.2-0.5,0.5-0.7c0.2-0.2,0.4-0.3,0.7-0.3c0.1,0,0.3,0,0.4,0.1c0.1,0.1,0.2,0.1,0.3,0.2
					c0.1,0.1,0.1,0.2,0.2,0.3c0,0.1,0,0.3,0,0.4c0,0.3,0,0.9-0.1,1.9c-0.1,0.9-0.1,1.5-0.1,1.8c0.4,0,1.4,0,1.7,0l0-1.6
					c0-0.6,0-1,0.1-1.4c0-0.4,0.1-0.6,0.1-0.8c0.1-0.2,0.2-0.4,0.3-0.5c0.1-0.1,0.3-0.3,0.4-0.3c0.1-0.1,0.3-0.1,0.5-0.1
					c0.2,0,0.3,0,0.5,0.1c0.1,0.1,0.2,0.2,0.3,0.3c0.1,0.1,0.1,0.4,0.1,0.6c0,0.2,0,0.5,0,0.9l-0.1,1.3c0,0.5-0.1,1.1-0.1,1.6
					c0.3,0,1.4,0,1.7,0c0-0.4,0-1.1,0.1-1.9c0-0.8,0.1-1.4,0.1-1.8c0-0.4,0-0.6,0-0.8c0-0.4-0.1-0.7-0.3-0.9
					C288.1,51.4,287.8,51.2,287.5,51.1z M293.9,51.1c-0.4-0.1-0.8-0.1-1.2-0.1c-0.4,0-0.8,0-1.2,0.1c-0.4,0.1-1.4,0.3-1.4,0.3
					l-0.2,1.1c0,0,1.7-0.5,2.4-0.5c0.2,0,0.4,0,0.5,0.1c0.2,0,0.3,0.1,0.4,0.2c0.1,0.1,0.1,0.2,0.1,0.4c0,0.1,0,0.2-0.1,0.2
					c0,0.1-0.1,0.1-0.2,0.2c-0.1,0.1-0.2,0.1-0.2,0.2c-0.1,0-0.2,0.1-0.4,0.1c-0.2,0-0.3,0.1-0.5,0.1c-0.6,0.1-1,0.2-1.4,0.4
					c-0.3,0.1-0.6,0.2-0.8,0.4c-0.2,0.1-0.3,0.3-0.4,0.4c-0.1,0.1-0.2,0.3-0.3,0.4c-0.1,0.2-0.1,0.3-0.1,0.5c0,0.3,0.1,0.6,0.2,0.9
					c0.2,0.3,0.4,0.5,0.7,0.6c0.3,0.1,0.7,0.2,1.2,0.2c0.1,0,0.3,0,0.5,0c0.2,0,0.4,0,0.7-0.1c0.1-0.4,0.2-0.8,0.3-1
					c-0.2,0.1-0.4,0.1-0.6,0.1c-0.1,0-0.3,0-0.4,0c-0.2,0-0.4,0-0.5-0.1c-0.1,0-0.3-0.1-0.4-0.2c-0.1-0.1-0.1-0.3-0.1-0.4
					c0-0.1,0-0.2,0.1-0.3c0-0.1,0.1-0.2,0.2-0.3c0.1-0.1,0.2-0.2,0.3-0.2c0.1-0.1,0.3-0.1,0.4-0.2c0.1,0,0.3-0.1,0.6-0.2
					c0.2-0.1,0.4-0.1,0.5-0.2c0.1,0,0.2-0.1,0.3-0.1c0.1,0,0.2-0.1,0.3-0.2l-0.2,3.1h1.7c0,0,0-1.9,0.1-2.8c0.1-0.9,0.1-1.5,0.1-1.7
					c0-0.4-0.1-0.7-0.3-0.9C294.5,51.4,294.2,51.2,293.9,51.1z M295.8,55.5c0,0.8-0.1,1.3-0.1,1.6c0.6,0,1.6,0,1.6,0
					s0.1-1.3,0.1-1.6C297,55.5,295.8,55.5,295.8,55.5z M300.1,52.7c0.2-0.2,0.4-0.3,0.6-0.4c0.2-0.1,0.5-0.1,0.8-0.1
					c0.4,0,0.9,0.1,1.5,0.3l-0.1-1.3c-0.4-0.1-0.7-0.1-1-0.2c-0.3,0-0.5,0-0.8,0c-0.5,0-0.9,0.1-1.2,0.2c-0.4,0.1-0.7,0.3-1,0.6
					c-0.3,0.3-0.5,0.7-0.7,1.1c-0.2,0.5-0.2,0.9-0.2,1.4c0,0.4,0,0.7,0.1,1.1c0.1,0.3,0.2,0.6,0.4,0.9c0.2,0.2,0.4,0.4,0.7,0.6
					c0.3,0.2,0.5,0.3,0.8,0.3c0.3,0.1,0.6,0.1,0.9,0.1c0.5,0,1.1-0.1,1.7-0.2c0-0.3,0.1-0.5,0.1-0.8c0-0.2,0.1-0.4,0.1-0.5
					c-0.3,0.1-0.5,0.2-0.8,0.2c-0.3,0-0.5,0.1-0.6,0.1c-0.4,0-0.7-0.1-1-0.2c-0.3-0.1-0.5-0.4-0.6-0.6c-0.1-0.3-0.2-0.6-0.2-1
					c0-0.3,0-0.5,0.1-0.8C299.8,53.1,299.9,52.9,300.1,52.7z M309.1,51.8c-0.3-0.3-0.6-0.5-1.1-0.6c-0.4-0.1-0.8-0.2-1.3-0.2
					c-0.5,0-1,0.1-1.4,0.2c-0.5,0.2-0.8,0.4-1.1,0.7c-0.3,0.3-0.5,0.6-0.6,1c-0.1,0.4-0.2,0.8-0.2,1.2c0,0.4,0.1,0.8,0.2,1.2
					c0.2,0.4,0.4,0.7,0.7,1c0.3,0.3,0.6,0.5,1,0.6c0.4,0.1,0.8,0.2,1.3,0.2c0.5,0,1-0.1,1.4-0.2c0.4-0.1,0.8-0.4,1.1-0.7
					c0.3-0.3,0.5-0.7,0.7-1.1c0.2-0.4,0.2-0.8,0.2-1.3c0-0.4-0.1-0.8-0.2-1.2C309.6,52.3,309.4,52,309.1,51.8z M308.1,55
					c-0.1,0.3-0.3,0.6-0.6,0.7c-0.3,0.2-0.6,0.3-0.9,0.3c-0.3,0-0.6-0.1-0.9-0.2c-0.2-0.2-0.4-0.4-0.5-0.6c-0.1-0.3-0.2-0.6-0.2-0.9
					c0-0.4,0.1-0.7,0.2-1.1c0.1-0.3,0.3-0.6,0.6-0.7c0.3-0.2,0.6-0.2,0.9-0.2c0.3,0,0.6,0.1,0.9,0.2c0.2,0.2,0.4,0.4,0.5,0.6
					c0.1,0.3,0.2,0.6,0.2,0.9C308.3,54.3,308.2,54.7,308.1,55z M319.6,51.7c-0.2-0.2-0.4-0.4-0.7-0.5c-0.3-0.1-0.6-0.2-1-0.2
					c-0.2,0-0.4,0-0.6,0.1c-0.2,0-0.4,0.1-0.5,0.2c-0.1,0.1-0.3,0.1-0.4,0.2c-0.1,0.1-0.2,0.2-0.3,0.3c-0.1,0.1-0.2,0.2-0.2,0.3
					c-0.1-0.2-0.1-0.3-0.2-0.4c-0.1-0.1-0.1-0.2-0.2-0.3c-0.1-0.1-0.2-0.1-0.3-0.2c-0.1-0.1-0.3-0.1-0.4-0.1c-0.2,0-0.3,0-0.5,0
					c-0.2,0-0.5,0-0.7,0.1c-0.2,0.1-0.4,0.1-0.6,0.2c-0.2,0.1-0.3,0.2-0.4,0.3c-0.1,0.1-0.2,0.3-0.3,0.4l0-0.9c-0.3,0-1.3,0-1.6,0
					c0,0.7-0.2,5.3-0.3,5.9c0.4,0,1.3,0,1.7,0c0-0.5,0-1.2,0.1-2.1c0-0.9,0.1-1.4,0.2-1.7c0.1-0.3,0.2-0.5,0.5-0.7
					c0.2-0.2,0.4-0.3,0.7-0.3c0.1,0,0.3,0,0.4,0.1c0.1,0.1,0.2,0.1,0.3,0.2c0.1,0.1,0.1,0.2,0.2,0.3c0,0.1,0,0.3,0,0.4
					c0,0.3,0,0.9-0.1,1.9c-0.1,0.9-0.1,1.5-0.1,1.8c0.4,0,1.4,0,1.7,0l0-1.6c0-0.6,0-1,0.1-1.4c0-0.4,0.1-0.6,0.1-0.8
					c0.1-0.2,0.2-0.4,0.3-0.5c0.1-0.1,0.3-0.3,0.4-0.3c0.1-0.1,0.3-0.1,0.5-0.1c0.2,0,0.3,0,0.5,0.1c0.1,0.1,0.2,0.2,0.3,0.3
					c0.1,0.1,0.1,0.4,0.1,0.6c0,0.2,0,0.5,0,0.9l-0.1,1.3c0,0.5-0.1,1.1-0.1,1.6c0.3,0,1.4,0,1.7,0c0-0.4,0-1.1,0.1-1.9
					c0-0.8,0.1-1.4,0.1-1.8c0-0.4,0-0.6,0-0.8C319.8,52.2,319.8,51.9,319.6,51.7z"/>
			</g>
		</g>
	</g>
	<g>
		<path style="fill:#FF6600;" d="M188.3,295.1c0,1.6-0.5,2.4-1.7,2.5c-0.4,0-0.8,0.1-1.4,0.1c0-0.4-0.1-0.7-0.2-1c0.4,0,0.8,0,1.2,0
			c0.8,0,1.1-0.5,1.1-1.6c0-1.4-0.5-2.8-1.6-4.1l1.4-5h-2.7v14.4h-0.9v-15.2h4.5v0.9l-1.4,4.8C187.7,292.3,188.3,293.7,188.3,295.1z
			 M189.2,285.6h10.1v0.8h-1.6V298c0,1.5-0.7,2.2-2.2,2.2c-0.5,0-1.4,0.1-2.4,0.1c0,0,0-0.1-0.1-0.3c0-0.3,0-0.5-0.1-0.7
			c0.9,0,1.7,0,2.4,0c1.1,0,1.6-0.4,1.6-1.4v-11.6h-7.7V285.6z M189.7,289.1h4.8v6.9h-4.8V289.1z M190.6,289.9v5.2h3v-5.2H190.6z"/>
		<path style="fill:#FF6600;" d="M201.2,295.5h6.7v-2.3h-6.1v-8H215v8h-6.2v2.3h6.8v0.9h-6.8v2.3h7.8v0.9h-16.4v-0.9h7.7v-2.3h-6.7
			V295.5z M202.7,286v2.8h5.2V286H202.7z M202.7,289.6v2.8h5.2v-2.8H202.7z M214,286h-5.2v2.8h5.2V286z M208.8,289.6v2.8h5.2v-2.8
			H208.8z"/>
		<path style="fill:#FF6600;" d="M224.2,298.4l-0.7,0.6c-0.2-0.2-0.6-0.6-1.1-1c-0.5-0.5-0.9-0.8-1.2-1c-0.7,1.1-1.7,2.3-3.1,3.4
			c-0.2-0.3-0.5-0.5-0.7-0.7c1.4-1.1,2.5-2.2,3.1-3.3c-0.7-0.8-1.5-1.5-2.4-2.2c0.4-1.6,0.8-3.4,1.2-5.2h-1.5v-0.9h1.6
			c0.1-0.5,0.3-1.3,0.4-2.3c0.1-0.6,0.2-1,0.2-1.3l0.9,0.1c0,0.2-0.1,0.6-0.1,1.1c-0.1,0.5-0.3,1.4-0.4,2.4h3.1v0.9
			c-0.3,3.1-0.9,5.5-1.8,7.3C222.6,296.8,223.4,297.6,224.2,298.4z M222.7,288.8h-2.4c-0.3,1.9-0.7,3.6-1.1,5
			c0.2,0.2,0.5,0.4,0.9,0.7c0.5,0.4,0.9,0.7,1.1,1C221.9,293.8,222.4,291.6,222.7,288.8z M224.1,295.6h7.1v0.8h-7.1V295.6z
			 M226.6,287.2l-0.4,4.8h4.7l0.5-6h-6.8v-0.8h7.8l-0.6,6.8h1.6c-0.1,2.9-0.2,4.8-0.3,5.8c-0.1,1.5-1,2.3-2.7,2.3
			c-0.8,0-1.6,0-2.6,0c0-0.3-0.1-0.6-0.2-1c0.9,0,1.8,0.1,2.7,0.1c1.1,0,1.7-0.5,1.8-1.6c0.2-1.8,0.3-3.4,0.3-4.8h-7.3l0.5-5.6
			H226.6z"/>
		<path style="fill:#FF6600;" d="M241.6,298.4l-0.7,0.6c-0.2-0.2-0.6-0.6-1.1-1c-0.5-0.5-0.9-0.8-1.2-1c-0.7,1.1-1.7,2.3-3.1,3.4
			c-0.2-0.3-0.5-0.5-0.7-0.7c1.4-1.1,2.5-2.2,3.1-3.3c-0.7-0.8-1.5-1.5-2.4-2.2c0.4-1.6,0.8-3.4,1.2-5.2h-1.5v-0.9h1.6
			c0.1-0.5,0.3-1.3,0.4-2.3c0.1-0.6,0.2-1,0.2-1.3l0.9,0.1c0,0.2-0.1,0.6-0.1,1.1c-0.1,0.5-0.3,1.4-0.4,2.4h3.1v0.9
			c-0.3,3.1-0.9,5.5-1.8,7.3C240,296.8,240.8,297.6,241.6,298.4z M240.1,288.8h-2.4c-0.3,1.9-0.7,3.6-1.1,5c0.2,0.2,0.5,0.4,0.9,0.7
			c0.5,0.4,0.9,0.7,1.1,1C239.3,293.8,239.8,291.6,240.1,288.8z M241.5,295.6h7.1v0.8h-7.1V295.6z M244,287.2l-0.4,4.8h4.7l0.5-6
			H242v-0.8h7.8l-0.6,6.8h1.6c-0.1,2.9-0.2,4.8-0.3,5.8c-0.1,1.5-1,2.3-2.7,2.3c-0.8,0-1.6,0-2.6,0c0-0.3-0.1-0.6-0.2-1
			c0.9,0,1.8,0.1,2.7,0.1c1.1,0,1.7-0.5,1.8-1.6c0.2-1.8,0.3-3.4,0.3-4.8h-7.3l0.5-5.6H244z"/>
		<path style="fill:#FF6600;" d="M252.7,295.8c-0.1-0.4-0.3-0.8-0.5-1.1c1.2-1.8,2.1-3.8,2.7-6.1h-2.4v-0.8h2.4v-3.5h0.9v3.5h2.1
			v0.8h-2.1v2.9l0.5-0.4c0.3,0.2,0.6,0.6,1.1,1c0.5,0.4,0.8,0.7,1,1l-0.7,0.6c-0.5-0.5-1.1-1.2-1.9-2v8.7H255v-10.3
			C254.4,292.5,253.7,294.4,252.7,295.8z M258.3,297.2c-0.2-0.3-0.4-0.5-0.7-0.8c2.6-1.1,4.6-2.6,6-4.3c-0.5,0-1.1,0.1-2,0.1
			c-0.6,0.1-1,0.1-1.3,0.1c-0.3,0-0.7,0.1-1.1,0.1c0.1,0,0,0-0.1,0.1l-0.5-0.9c0.3-0.1,0.5-0.3,0.7-0.6c0.9-1,1.7-2.1,2.7-3.3h-3.6
			v-0.9h5c-0.1-0.4-0.4-1-0.8-1.9c0-0.2-0.1-0.3-0.1-0.3l0.8-0.3c0.2,0.3,0.5,0.9,0.9,1.8c0.1,0.3,0.2,0.5,0.2,0.5l-0.7,0.3h5v0.9
			h-5.5c-1.1,1.5-2.1,2.7-3.1,3.8c1.4,0,2.9-0.1,4.2-0.3c0.5-0.6,0.9-1.3,1.2-2l0.9,0.4C264.5,293.1,261.8,295.6,258.3,297.2z
			 M258.9,300.5c-0.1-0.3-0.3-0.5-0.6-0.8c3.9-1.4,6.9-3.9,9-7.5l0.9,0.5c-1.2,1.7-2.2,3-3.1,3.9c1.2,1,2.4,1.9,3.6,2.9l-0.7,0.8
			c-0.5-0.5-1.2-1-2-1.7c-0.8-0.6-1.3-1.1-1.6-1.4C263.1,298.3,261.2,299.5,258.9,300.5z"/>
		<path style="fill:#FF6600;" d="M271.6,289.4l1,0.3c-0.6,2.3-1.2,4.5-1.8,6.7c-0.3-0.1-0.7-0.2-1-0.3
			C270.4,294.3,271,292.1,271.6,289.4z M274.1,287.5h1v9.9c0,1.1,0.5,1.7,1.7,1.6h3.3c1.2,0,1.9-0.4,2-1.4c0.1-0.6,0.2-1.4,0.3-2.3
			c0.1,0,0.3,0.1,0.5,0.1c0.2,0.1,0.4,0.2,0.5,0.2c0,0.5-0.1,1.1-0.3,1.8c0,0.3-0.1,0.5-0.1,0.7c-0.3,1.2-1.2,1.8-2.9,1.8h-3.7
			c-1.6,0-2.4-0.8-2.4-2.4V287.5z M279.5,289.3c-0.6-1.2-1.6-2.7-2.8-4.7l0.9-0.5c0.1,0.2,0.3,0.5,0.6,1c0.6,1,1.4,2.2,2.2,3.7
			L279.5,289.3z M285.3,295.3c-0.9-2.1-1.8-4.1-2.8-6l1-0.4c0.2,0.4,0.5,1,1,1.9c0.9,1.8,1.5,3.1,1.9,4L285.3,295.3z"/>
		<path style="fill:#FF6600;" d="M303.1,294.8c-3.4-0.3-5.9-0.9-7.5-1.6c-2,0.9-4.6,1.5-8,2c0-0.2-0.2-0.5-0.3-0.8
			c0,0-0.1-0.1-0.1-0.1c3-0.3,5.5-0.8,7.3-1.5c-1-0.6-2-1.4-3-2.4c-0.9,0.8-1.7,1.5-2.7,2.1c0,0-0.1-0.1-0.1-0.1
			c-0.1-0.2-0.2-0.4-0.4-0.5c2-1.3,3.5-2.7,4.6-4.2l0.7,0.3c-0.3,0.4-0.6,0.8-0.9,1.1h7.9v1c-1.2,1.1-2.5,2.1-4,2.9
			c1.5,0.6,3.8,1,6.9,1.2c-0.1,0.1-0.2,0.4-0.3,0.7C303.2,294.7,303.1,294.8,303.1,294.8z M294.8,284.3l0.8-0.1
			c0.1,0.6,0.3,1.2,0.4,2h6.9v2.9H302v-2h-13v2H288v-2.9h7.1c0-0.1-0.1-0.3-0.1-0.6C294.9,285,294.8,284.6,294.8,284.3z
			 M290.1,295.4h10.7v5.1h-0.9v-0.8H291v0.8h-0.9V295.4z M291,296.2v2.7h8.9v-2.7H291z M299.5,289.7h-7.3c1,1.1,2.1,1.9,3.4,2.5
			C297,291.6,298.3,290.8,299.5,289.7z"/>
		<path style="fill:#FF6600;" d="M312,284.6l0.8-0.4c0.5,0.7,1,1.5,1.5,2.2l-0.8,0.3h6.2v7.2h-1v-0.9h-11.1c0,3-0.8,5.5-2.2,7.4
			c-0.1-0.1-0.4-0.3-0.8-0.6c0.9-1.2,1.4-2.4,1.7-3.5c0.3-1.1,0.4-2.7,0.4-4.9v-4.8h6.7c-0.1-0.3-0.4-0.8-0.9-1.6
			C312.2,284.9,312.1,284.7,312,284.6z M307.6,287.6v3.9v0.7h11.1v-4.6H307.6z"/>
	</g>
	<g>
		<path style="fill:#FF6600;" d="M180,333.8c1-1.9,1.8-4.3,2.4-7l4.1,1.2c-0.9,3.1-1.8,5.6-2.6,7.2L180,333.8z M185.1,310.9l4.9-0.9
			c0.5,0.7,1,1.6,1.6,2.7c0.3,0.5,0.5,0.9,0.7,1.1h2.7c0.4-0.7,1-1.8,1.9-3.4c0.1-0.2,0.1-0.4,0.2-0.5l5.1,1.1
			c-0.7,0.9-1.4,1.8-2,2.7h4.2v11.5h-8.9c0.4,0.4,1,1.2,1.8,2.2c0.4,0.5,0.7,0.9,0.9,1.1l-3.7,2.7c-1.1-1.7-2.1-3.3-3.3-4.7l2.1-1.4
			H183v-11.5h3.9c-0.3-0.5-0.8-1.2-1.4-2.1C185.4,311.3,185.2,311,185.1,310.9z M199.7,328l3.7-1.8c0.8,1.3,1.9,3,3.1,5.3
			c0.4,0.8,0.7,1.3,0.9,1.6l-4.1,1.8c-0.2-0.3-0.4-0.8-0.7-1.4c-0.4-0.7-0.6-1.2-0.8-1.5c-0.3,1.1-0.5,1.7-0.7,1.9
			c-0.5,1.8-2,2.7-4.5,2.6h-6.3c-2.8,0.1-4.1-1.4-4.1-4.5v-5.5h4.5v4.3c0,1.3,0.6,1.9,1.7,1.8h2.9c1.3,0.1,2-0.4,2-1.5
			c0.1-0.5,0.3-1,0.3-1.6c-0.1,0.1-0.1-0.1,0-0.5c0.9,0.4,1.9,0.7,2.9,0.9C200.5,329.3,200.1,328.7,199.7,328z M199.7,321.3v-3.5
			h-12v3.5H199.7z"/>
		<path style="fill:#FF6600;" d="M229,310.1c0,2.5,0,4.8,0,7h7.1v3.7h-3.9l3.4,1.7c-1.7,3.1-3.4,5.7-5.1,7.8
			c0.2,0.5,0.5,1.1,0.9,1.7c0.1,0.3,0.3,0.4,0.4,0.3c0.1-0.1,0.3-0.3,0.3-0.6c0.2-1.1,0.4-2.5,0.6-4.2c0.5,0.3,1.3,0.6,2.2,1
			c0.6,0.2,1,0.3,1.2,0.5c-0.4,2.8-0.7,4.5-0.9,5.3c-0.4,1.8-1.6,2.7-3.5,2.8c-1.8,0-3.3-1.1-4.5-3.4c-0.1,0.1-0.2,0.1-0.2,0.1
			c-1.7,1.5-3,2.6-4.1,3.4c-0.2-0.2-0.4-0.4-0.8-0.8c-0.8-1-1.5-1.7-2.1-2.1c0.4-0.3,0.9-0.5,1.4-0.7c-0.8-0.7-1.5-1.3-2.4-2
			c0.1,0.7,0.1,1.5,0.2,2.6c0-0.2,0,0,0.1,0.8c-0.4,0.1-0.9,0.2-1.6,0.5c-0.8,0.2-2,0.6-3.4,1c-0.2,0.1-0.3,0.1-0.4,0.2
			c-0.6,0.3-1.1,0.6-1.5,0.8l-1.6-2.7c0.7-0.6,1.1-1.3,1-2.2v-0.7c-0.1,0.1-0.2,0.2-0.3,0.2c-0.4,0.3-1.1,0.7-2,1.2
			c-0.2-0.6-0.5-1.5-0.9-2.8c-0.2-0.4-0.3-0.8-0.3-1c2.1-1,3.7-2.2,4.8-3.4h-4.2v-3.5h5.5c0-0.1-0.1-0.4-0.2-0.7
			c-0.1-0.3-0.2-0.5-0.2-0.7l4.5-0.2c0.1,0.4,0.3,1,0.6,1.6h4.9v3.5h-1.5l2.5,2c-0.4,0.3-0.9,0.7-1.5,1.2c-0.5,0.3-0.8,0.5-0.9,0.7
			c0.2,0.2,0.6,0.5,1,0.8c0.2,0.2,0.4,0.3,0.5,0.3c0.2-0.2,0.6-0.6,1-1c0.2-0.2,0.4-0.4,0.6-0.6c-0.5-2.2-0.9-5.1-1.1-8.8h-15.9
			v-3.7h5.7v-1.5h-4.7v-3.4h4.7v-2.1h4.4v2.1h4.5v3.4H219v1.5h5.6c0-0.8,0-2.1-0.1-3.9c0-1.5,0-2.5,0-3H229z M218.4,326.7
			c0.2,0.2,0.5,0.3,0.9,0.6c0.4,0.3,0.6,0.5,0.8,0.7c0.2-0.2,0.6-0.6,1-1c0.4-0.4,0.8-0.7,1-0.9H218c-0.7,0.8-1.4,1.5-2,2.4v4.2
			c1.1-0.5,2.1-0.8,3-1.1c-0.3-0.2-0.8-0.6-1.5-1.2c-0.6-0.4-1.1-0.8-1.4-1L218.4,326.7z M229.1,312.7l2.9-2.1
			c0.6,0.5,1.5,1.4,2.6,2.6c0.5,0.5,0.9,0.9,1.1,1.1l-3.3,2.5C231.6,315.5,230.5,314.2,229.1,312.7z M229.5,324.8
			c0.7-1.1,1.4-2.5,2.2-4h-2.6C229.3,322.4,229.4,323.7,229.5,324.8z"/>
		<path style="fill:#FF6600;" d="M253.8,316.7c0,0.2,0,0.4,0,0.7c-0.2,2.9-0.3,4.9-0.4,6.2c0,0.2,0,0.3-0.1,0.6c0,0.3,0,0.5-0.1,0.7
			h2.4v6c-0.1,1.2,0.4,1.8,1.3,1.7h1.6c1,0,1.6-0.6,1.8-1.7c0-0.2,0-0.6,0.1-1.1c0.1-1,0.3-1.9,0.3-2.5c0.5,0.2,1.2,0.3,2.1,0.6
			c0.9,0.3,1.6,0.5,2,0.7c-0.2,1.7-0.5,3.3-0.7,4.6c-0.5,2.2-2.1,3.3-4.7,3.3h-4.2c-3,0.1-4.5-1.4-4.4-4.5v-1.7
			c-2,2.9-5.5,5.2-10.3,7.1c-0.8-1.5-1.7-2.8-2.6-3.9c7.3-2.7,10.9-6.1,10.8-10.4c0.1-1.2,0.2-3.3,0.3-6.2H253.8z M240.5,327.9
			v-16.6h21.6v15.5h-4.6v-11.4H245v12.5H240.5z"/>
		<path style="fill:#FF6600;" d="M267.7,336.9V317h8.7l0.6-1.8h-10.4v-3.9h27v3.9H282l-0.6,1.8h11v20h-4.4v-1.7H272v1.6H267.7z
			 M272,320.6v11.2h2.2v-11.2H272z M278.3,320.6v1.8h3.6v-1.8H278.3z M278.3,325.3v1.8h3.6v-1.8H278.3z M278.3,330v1.8h3.6V330
			H278.3z M288.1,320.6h-2.1v11.2h2.1V320.6z"/>
		<path style="fill:#FF6600;" d="M297.5,323.4c-0.1-0.1-0.2-0.4-0.4-0.8c-0.9-1.6-1.6-2.6-2-3.1c5.5-2.7,9.5-5.8,11.7-9.3l5.5,0.2
			c-0.1,0.1-0.2,0.2-0.2,0.4c-0.2,0.2-0.3,0.4-0.3,0.6c2.6,3.3,6.3,5.9,10.9,7.6c-0.7,1.2-1.5,2.6-2.4,4.2c-1.6-0.8-3-1.6-4.2-2.4
			v2.2h-14.5v-2C299.9,322.1,298.6,322.8,297.5,323.4z M295.8,325.1h26v4h-6.3c1.9,1.9,3.7,3.6,5.5,5.3l-3.6,2.9l-1.4-1.7
			c-0.5,0-1.6,0-3.1,0.1c-4.9,0.1-7.8,0.3-8.8,0.3c-1.2,0.1-2.6,0.2-4.1,0.5c-0.2,0.1-0.3,0.1-0.4,0.1l-1.9-3.8
			c1.2-0.6,2.2-1.3,2.9-2.1c0.5-0.5,1-1,1.5-1.6h-6.3V325.1z M309.1,314.7c-1.1,1.2-2.6,2.6-4.6,4.3h9
			C312.2,318,310.7,316.6,309.1,314.7z M304.5,332.4c3.4,0,6.2,0,8.4-0.1c-0.5-0.7-1.1-1.4-1.7-2.1l1.5-1h-5.3
			c-0.4,0.5-1,1.2-1.9,2.1C305.1,331.8,304.7,332.1,304.5,332.4z"/>
	</g>
	<g>
		<path style="fill:#666666;" d="M187.4,469.1c-0.5-0.4-1-0.9-1.7-1.4l0.4-0.5c0.2,0.2,0.5,0.4,0.9,0.7c0.4,0.3,0.7,0.5,0.9,0.7
			L187.4,469.1z M186.7,475.1l-0.7-0.2c0.6-1.9,1-3.3,1.2-4.2c0.1,0,0.2,0.1,0.3,0.1c0.1,0.1,0.2,0.1,0.3,0.1
			C187.4,472,187.1,473.3,186.7,475.1z M187.8,466.1c-0.3-0.2-0.6-0.6-1.1-1c-0.3-0.2-0.4-0.4-0.6-0.5l0.4-0.4
			c0.1,0.1,0.2,0.2,0.3,0.3c0.6,0.5,1.1,0.9,1.4,1.2L187.8,466.1z M188.5,467.7c-0.1-0.1-0.2-0.2-0.4-0.5c1.1-1,1.8-2.2,2.3-3.4
			l0.6,0.1c-0.2,0.4-0.4,0.7-0.6,1.1h6.3v0.6h-6.7C189.7,466.3,189.2,467,188.5,467.7z M189,473.4l0.4-3h-1.2v-0.6h1.2l0.4-3h6
			c0,1,0,2,0,3h1.2v0.6h-1.3c0,0.3,0,0.8,0,1.3c0,0.5,0,0.9,0,1.1h0.9v0.6h-1c0,1.1-0.6,1.7-1.8,1.7c-0.5,0-1,0-1.5,0
			c0-0.2-0.1-0.5-0.1-0.7c0.5,0,1,0,1.5,0c0.9,0,1.3-0.3,1.4-1H189z M195,472.8c0.1-1,0.1-1.8,0.1-2.4H190l-0.3,2.4H195z
			 M190.4,467.5l-0.3,2.4h5.1c0-0.6,0-1.4,0-2.4H190.4z M191.6,471.3l0.4-0.4c0.5,0.3,0.9,0.7,1.4,1.1l-0.4,0.4
			C192.5,472,192.1,471.6,191.6,471.3z M191.8,468.3l0.4-0.4c0.4,0.3,0.9,0.6,1.4,1.1l-0.4,0.4C192.7,469,192.3,468.6,191.8,468.3z"
			/>
		<path style="fill:#666666;" d="M185.6,481.8c1.6-1.1,2.8-2.4,3.7-4.1l0.7,0.1c0,0-0.1,0.1-0.1,0.2c-0.1,0.1-0.1,0.2-0.1,0.2
			c0.8,0.7,1.7,1.6,2.9,2.6l-0.5,0.5c-0.7-0.8-1.6-1.6-2.6-2.6c-0.9,1.3-2,2.5-3.3,3.5c0,0-0.1-0.1-0.1-0.2
			C185.8,482,185.7,481.9,185.6,481.8z M186.9,481.9h4.6c0,0.8,0,1.6-0.1,2.4c-0.1,1-0.6,1.4-1.6,1.4c-0.4,0-0.8,0-1.2,0
			c0-0.1,0-0.2,0-0.3c0-0.2-0.1-0.3-0.1-0.3c0.1,0,0.3,0,0.6,0c0.3,0,0.5,0,0.7,0c0.7,0,1-0.3,1.1-0.9c0-0.2,0-0.4,0-0.8
			c0-0.4,0-0.7,0-0.9h-3.4v4.7c0,0.6,0.3,0.8,1,0.8h1.7c0.7,0,1.1-0.2,1.3-0.6c0.1-0.4,0.2-0.8,0.2-1.4c0.2,0.1,0.4,0.2,0.7,0.2
			c0,0.4-0.1,0.9-0.3,1.4c-0.2,0.7-0.7,1-1.7,1h-2c-1,0-1.5-0.4-1.5-1.4V481.9z M193.2,479h0.6v7.2h-0.6V479z M195.7,477.8h0.7v9.7
			c0,0.8-0.4,1.2-1.3,1.3c-0.5,0-1,0-1.5,0c0-0.3-0.1-0.5-0.1-0.7c0.5,0,1,0,1.5,0c0.5,0,0.8-0.2,0.8-0.7V477.8z"/>
		<path style="fill:#666666;" d="M186.3,492.2h10v10.6h-0.7v-0.6h-8.7v0.6h-0.6V492.2z M186.9,492.7v8.9h8.7v-8.9H186.9z
			 M187.7,496.4h7.2v0.6h-2.3v2.5c0,0.3,0.2,0.5,0.6,0.5h0.5c0.4,0,0.7-0.2,0.7-0.7c0-0.2,0.1-0.5,0.1-1.2c0.1,0.1,0.3,0.1,0.5,0.2
			c0,0,0.1,0,0.1,0c0,0.2-0.1,0.4-0.1,0.7c-0.1,0.3-0.1,0.4-0.1,0.6c-0.2,0.7-0.6,1-1.2,1h-0.6c-0.8,0-1.2-0.3-1.1-1v-2.5h-1.8
			c0.1,1.8-0.7,3.1-2.3,3.9c0,0-0.1-0.1-0.1-0.1c-0.1-0.2-0.2-0.3-0.3-0.4c1.5-0.7,2.3-1.9,2.2-3.4h-1.9V496.4z M188.3,494.2h6v0.5
			h-6V494.2z"/>
	</g>
	<g>
		<path style="fill:#333333;" d="M191.1,512.1c0.2,0,0.5-0.1,0.7-0.2c0.2-0.1,0.4-0.2,0.5-0.4c0.1-0.2,0.2-0.4,0.2-0.7
			c0-0.4-0.1-0.8-0.4-1c-0.3-0.2-0.6-0.3-1-0.3c-0.5,0-0.9,0.2-1.2,0.5c-0.3,0.3-0.4,0.8-0.4,1.3h-1.9c0-0.5,0.1-1,0.3-1.4
			c0.2-0.4,0.4-0.8,0.7-1.1c0.3-0.3,0.7-0.5,1.1-0.7c0.4-0.2,0.9-0.3,1.4-0.3c0.4,0,0.8,0.1,1.2,0.2c0.4,0.1,0.8,0.3,1.1,0.5
			c0.3,0.2,0.6,0.5,0.8,0.9c0.2,0.3,0.3,0.7,0.3,1.2c0,0.5-0.1,0.9-0.4,1.3c-0.2,0.4-0.6,0.6-1.1,0.8v0c0.6,0.1,1,0.4,1.3,0.8
			c0.3,0.4,0.5,0.9,0.5,1.5c0,0.5-0.1,1-0.3,1.4c-0.2,0.4-0.5,0.8-0.8,1c-0.3,0.3-0.7,0.5-1.2,0.6c-0.5,0.1-0.9,0.2-1.4,0.2
			c-0.6,0-1.1-0.1-1.5-0.2c-0.5-0.2-0.9-0.4-1.2-0.7c-0.3-0.3-0.6-0.7-0.8-1.1c-0.2-0.5-0.3-1-0.3-1.6h1.9c0,0.3,0.1,0.5,0.1,0.8
			c0.1,0.2,0.2,0.5,0.3,0.6c0.1,0.2,0.3,0.3,0.5,0.4c0.2,0.1,0.5,0.2,0.8,0.2c0.5,0,0.8-0.1,1.2-0.4c0.3-0.3,0.5-0.7,0.5-1.2
			c0-0.4-0.1-0.7-0.2-0.9c-0.1-0.2-0.3-0.3-0.6-0.4c-0.2-0.1-0.5-0.1-0.8-0.2c-0.3,0-0.5,0-0.8,0v-1.4
			C190.6,512.1,190.8,512.1,191.1,512.1z"/>
	</g>
	<g>
		<path style="fill:#666666;" d="M187.4,531.1l0.8-2.1h-2.5v-0.7H197v0.7h-8.1l-0.5,1.5h7c0,0.4-0.1,1-0.1,1.6c0,0.3,0,0.4,0,0.6
			c-0.1,1.1-0.9,1.6-2.4,1.6c-0.8,0-1.5,0-2.4,0c0-0.2-0.1-0.5-0.1-0.8c0.5,0,1.3,0,2.5,0c1.1,0.1,1.7-0.3,1.8-1.1
			c0-0.2,0.1-0.4,0.1-0.8c0-0.3,0-0.6,0-0.7H187.4z M187.4,523.9h7.7v3.2h-7.7V523.9z M188.1,524.5v2h6.4v-2H188.1z"/>
		<path style="fill:#666666;" d="M185.9,545.1c0-0.1-0.1-0.2-0.2-0.5c0-0.1-0.1-0.2-0.1-0.2c0.8-1.2,1.4-2.7,1.7-4.3h-1.5v-0.6h1.5
			v-2.4h0.6v2.4h1.3v0.6H188v2l0.4-0.3c0.1,0.1,0.3,0.3,0.6,0.6c0.2,0.3,0.4,0.5,0.6,0.6l-0.5,0.4c-0.1-0.1-0.3-0.3-0.5-0.6
			c-0.2-0.2-0.4-0.4-0.5-0.6v6.1h-0.6v-6.9C187,542.8,186.5,544,185.9,545.1z M189,548.4c-0.1-0.2-0.2-0.4-0.3-0.6
			c1.7-0.3,3-0.7,3.8-1c-0.2-0.1-0.6-0.2-1-0.4c-0.6-0.2-1-0.5-1.4-0.6c0.4-0.4,0.7-0.8,1-1.3h-1.9v-0.6h2.3c0,0,0.1-0.1,0.1-0.2
			c0.1-0.1,0.3-0.4,0.5-0.7l0.7,0.2c-0.1,0.1-0.2,0.3-0.3,0.5c-0.1,0.1-0.2,0.2-0.2,0.2h4.5v0.6h-1.5c-0.5,1.1-1,1.8-1.5,2.2
			c0.2,0.1,0.6,0.2,1.1,0.4c0.8,0.3,1.4,0.5,1.8,0.7l-0.4,0.6c-1.3-0.6-2.3-1-3-1.3C192.4,547.5,191,548,189,548.4z M189.7,543
			c-0.1-0.2-0.2-0.4-0.4-0.6c1.3-0.4,2.4-1.1,3.3-2h-2.9v-0.6h3v-2.7h0.7v2.7h3.4v0.6h-3.3c0.9,0.9,2,1.5,3.5,1.9
			c-0.1,0.1-0.3,0.3-0.4,0.6c-1.5-0.5-2.6-1.1-3.2-2v1.9h-0.7V541C192.1,541.8,191.1,542.5,189.7,543z M190,538.2l0.4-0.4
			c0.3,0.3,0.8,0.7,1.4,1.3l-0.5,0.4C190.9,539,190.5,538.6,190,538.2z M191,545.5c0.7,0.3,1.4,0.6,2.1,0.8c0.5-0.4,1-1,1.5-2h-2.7
			C191.6,544.8,191.3,545.1,191,545.5z M194.2,539.1c0.5-0.4,1-0.9,1.5-1.4l0.5,0.4c-0.4,0.4-0.9,0.9-1.5,1.4L194.2,539.1z"/>
	</g>
	<g>
		<path style="fill:#333333;" d="M187.8,557.4c0.2-0.5,0.4-0.9,0.7-1.3c0.3-0.4,0.7-0.7,1.2-0.9c0.5-0.2,1-0.3,1.6-0.3
			c0.5,0,0.9,0.1,1.3,0.2c0.4,0.1,0.8,0.4,1.1,0.6c0.3,0.3,0.6,0.6,0.8,1c0.2,0.4,0.3,0.8,0.3,1.3c0,0.5-0.1,0.9-0.2,1.3
			c-0.2,0.4-0.4,0.7-0.6,1c-0.3,0.3-0.6,0.5-0.9,0.8c-0.3,0.2-0.7,0.5-1,0.7c-0.3,0.2-0.7,0.5-1,0.7c-0.3,0.3-0.6,0.6-0.9,0.9h4.8
			v1.8h-7.4c0-0.6,0.1-1.1,0.3-1.5c0.2-0.4,0.4-0.8,0.7-1.2c0.3-0.3,0.6-0.7,1-0.9c0.4-0.3,0.8-0.6,1.2-0.9c0.2-0.2,0.5-0.3,0.7-0.5
			c0.2-0.2,0.5-0.3,0.7-0.5c0.2-0.2,0.4-0.4,0.5-0.6c0.1-0.2,0.2-0.5,0.2-0.8c0-0.5-0.1-0.9-0.4-1.1c-0.3-0.3-0.6-0.4-1.1-0.4
			c-0.3,0-0.5,0.1-0.8,0.2c-0.2,0.1-0.4,0.3-0.5,0.5c-0.1,0.2-0.2,0.5-0.3,0.7c-0.1,0.3-0.1,0.5-0.1,0.8h-2
			C187.6,558.4,187.7,557.9,187.8,557.4z"/>
	</g>
	<g>
		<path style="fill:#333333;" d="M180,590c0.2-0.5,0.4-0.9,0.7-1.3c0.3-0.4,0.7-0.7,1.2-0.9c0.5-0.2,1-0.3,1.6-0.3
			c0.5,0,0.9,0.1,1.3,0.2c0.4,0.1,0.8,0.4,1.1,0.6c0.3,0.3,0.6,0.6,0.8,1c0.2,0.4,0.3,0.8,0.3,1.3c0,0.5-0.1,0.9-0.2,1.3
			c-0.2,0.4-0.4,0.7-0.6,1c-0.3,0.3-0.6,0.5-0.9,0.8c-0.3,0.2-0.7,0.5-1,0.7c-0.3,0.2-0.7,0.5-1,0.7c-0.3,0.3-0.6,0.6-0.9,0.9h4.8
			v1.8h-7.4c0-0.6,0.1-1.1,0.3-1.5c0.2-0.4,0.4-0.8,0.7-1.2c0.3-0.3,0.6-0.7,1-0.9c0.4-0.3,0.8-0.6,1.2-0.9c0.2-0.2,0.5-0.3,0.7-0.5
			c0.2-0.2,0.5-0.3,0.7-0.5c0.2-0.2,0.4-0.4,0.5-0.6c0.1-0.2,0.2-0.5,0.2-0.8c0-0.5-0.1-0.9-0.4-1.1c-0.3-0.3-0.6-0.4-1.1-0.4
			c-0.3,0-0.5,0.1-0.8,0.2c-0.2,0.1-0.4,0.3-0.5,0.5c-0.1,0.2-0.2,0.5-0.3,0.7c-0.1,0.3-0.1,0.5-0.1,0.8h-2
			C179.8,591,179.9,590.5,180,590z"/>
		<path style="fill:#333333;" d="M187.9,590.3c0.2-0.7,0.5-1.2,0.8-1.6c0.3-0.4,0.7-0.7,1.2-0.9c0.4-0.2,0.9-0.3,1.4-0.3
			c0.5,0,1,0.1,1.4,0.3c0.4,0.2,0.8,0.5,1.2,0.9c0.3,0.4,0.6,0.9,0.8,1.6c0.2,0.7,0.3,1.5,0.3,2.5c0,1-0.1,1.9-0.3,2.5
			c-0.2,0.7-0.5,1.2-0.8,1.6c-0.3,0.4-0.7,0.7-1.2,0.9c-0.4,0.2-0.9,0.3-1.4,0.3c-0.5,0-1-0.1-1.4-0.3c-0.4-0.2-0.8-0.5-1.2-0.9
			c-0.3-0.4-0.6-0.9-0.8-1.6c-0.2-0.7-0.3-1.5-0.3-2.5C187.6,591.8,187.7,590.9,187.9,590.3z M189.7,593.8c0,0.4,0.1,0.8,0.2,1.2
			c0.1,0.4,0.3,0.7,0.5,1c0.2,0.3,0.5,0.4,1,0.4c0.4,0,0.7-0.1,1-0.4c0.2-0.3,0.4-0.6,0.5-1s0.2-0.8,0.2-1.2c0-0.4,0-0.8,0-1
			c0-0.2,0-0.4,0-0.6c0-0.2,0-0.5-0.1-0.8c0-0.3-0.1-0.5-0.1-0.8c-0.1-0.3-0.2-0.5-0.3-0.7c-0.1-0.2-0.3-0.4-0.5-0.5
			c-0.2-0.1-0.4-0.2-0.7-0.2c-0.3,0-0.5,0.1-0.7,0.2c-0.2,0.1-0.3,0.3-0.5,0.5c-0.1,0.2-0.2,0.4-0.3,0.7c-0.1,0.3-0.1,0.5-0.1,0.8
			c0,0.3,0,0.5-0.1,0.8c0,0.2,0,0.5,0,0.6C189.6,593,189.7,593.4,189.7,593.8z"/>
		<path style="fill:#333333;" d="M198.9,597.8v-6.5h-2.5v-1.5c0.4,0,0.7,0,1-0.1c0.3-0.1,0.6-0.2,0.9-0.3c0.3-0.2,0.5-0.4,0.7-0.6
			c0.2-0.3,0.3-0.6,0.4-1h1.6v10.1H198.9z"/>
	</g>
	<g>
		<path style="fill:#666666;" d="M195.9,607.9c-2.3-1-4-2.3-5.1-3.8c-1.4,1.6-3.2,2.9-5.3,4c-0.1-0.2-0.3-0.4-0.5-0.6
			c2.5-1.2,4.4-2.6,5.8-4.4l0.8,0.1c-0.1,0.1-0.2,0.3-0.3,0.4c1.1,1.5,2.9,2.7,5.2,3.7C196.2,607.4,196.1,607.6,195.9,607.9z
			 M194.7,614.4c-0.1-0.1-0.2-0.2-0.4-0.4c-0.2-0.2-0.3-0.3-0.3-0.4c-2.5,0.1-4.6,0.2-6.1,0.3c-0.1,0-0.2,0-0.3,0
			c-0.3,0-0.5,0.1-0.7,0.1l-0.4-0.7c0.2-0.1,0.5-0.3,0.8-0.5c0.8-0.7,1.6-1.5,2.3-2.4h-4.1v-0.7h10.5v0.7h-5.5c-0.8,1-1.8,2-2.8,2.9
			c2-0.1,3.9-0.2,5.7-0.2c-0.1-0.1-0.2-0.2-0.4-0.4c-0.2-0.1-0.5-0.4-0.9-0.9l0.5-0.4c1.2,1.2,2.2,2,2.8,2.6L194.7,614.4z
			 M187.6,607.4h6.2v0.6h-6.2V607.4z"/>
		<path style="fill:#666666;" d="M187.1,626.1c0.7-0.5,1.3-1,1.7-1.4c0,0.1,0.1,0.3,0.1,0.5c0,0.1,0,0.2,0,0.2
			c-0.6,0.4-1.2,0.9-1.9,1.5c-0.2,0.1-0.3,0.2-0.5,0.4l-0.5-0.4c0.2-0.2,0.3-0.6,0.3-1v-4.4H185v-0.6h2.1V626.1z M187.2,619.6
			c-0.3-0.3-0.7-0.8-1.1-1.4c-0.2-0.2-0.3-0.4-0.4-0.5l0.5-0.4c0.2,0.2,0.4,0.4,0.7,0.7c0.4,0.5,0.7,0.8,1,1.1L187.2,619.6z
			 M187.6,627.6c1.6-0.8,2.9-1.7,4-2.8c-1.5-1.7-2.5-4.1-2.8-6.9l0.6-0.1c0.3,2.8,1.2,4.9,2.7,6.6c1.4-1.6,2.3-3.8,2.7-6.6l0.7,0.1
			c-0.5,3-1.4,5.3-2.9,6.9c1,1,2.3,1.9,3.8,2.6c0,0-0.1,0.1-0.1,0.1c-0.1,0.1-0.2,0.3-0.4,0.6c-1.7-0.9-3-1.8-3.8-2.7
			c-0.8,0.9-2.1,1.8-3.9,2.9C188,628,187.8,627.8,187.6,627.6z M191.1,617.4l0.5-0.3c0.6,1,1.1,1.8,1.5,2.4l-0.6,0.3
			C192,619,191.5,618.2,191.1,617.4z"/>
		<path style="fill:#666666;" d="M194.7,638c-0.3-0.3-0.6-0.5-0.8-0.8c-0.3,0-0.8,0-1.4,0c-0.7,0-1.2,0-1.5,0v1.6h4.3v0.6H191v1.5
			h5.4v0.6h-11.3V641h5.3v-1.5h-4.2v-0.6h4.2v-1.6c-0.3,0-0.7,0-1.2,0c-0.6,0-1,0-1.3,0c-0.1,0-0.3,0-0.6,0c-0.2,0-0.4,0-0.5,0
			l-0.3-0.6c0.3-0.1,0.6-0.3,0.8-0.4c0.6-0.4,1.2-0.9,1.9-1.5h-2.3v-0.6h8v0.6h-4.7c-0.7,0.6-1.5,1.2-2.5,1.9c0.6,0,1.6-0.1,3-0.1
			c1.2-0.1,2.2-0.1,2.8-0.1c-0.4-0.3-0.8-0.7-1.1-1l0.4-0.4c1,0.8,1.9,1.5,2.6,2.2L194.7,638z M190,631l0.6-0.3
			c0.3,0.4,0.5,0.9,0.8,1.4l-0.4,0.2h5v1.9h-0.7v-1.3h-9.2v1.3h-0.6v-1.9h5.2C190.5,631.8,190.2,631.3,190,631z"/>
	</g>
	<g>
		<path style="fill:#666666;" d="M185.9,578.1c0-0.1-0.1-0.2-0.2-0.5c0-0.1-0.1-0.2-0.1-0.2c0.8-1.2,1.4-2.7,1.7-4.3h-1.5v-0.6h1.5
			v-2.4h0.6v2.4h1.3v0.6H188v2l0.4-0.3c0.1,0.1,0.3,0.3,0.6,0.6c0.2,0.3,0.4,0.5,0.6,0.6l-0.5,0.4c-0.1-0.1-0.3-0.3-0.5-0.6
			c-0.2-0.2-0.4-0.4-0.5-0.6v6.1h-0.6v-6.9C187,575.8,186.5,577,185.9,578.1z M189,581.4c-0.1-0.2-0.2-0.4-0.3-0.6
			c1.7-0.3,3-0.7,3.8-1c-0.2-0.1-0.6-0.2-1-0.4c-0.6-0.2-1-0.5-1.4-0.6c0.4-0.4,0.7-0.8,1-1.3h-1.9v-0.6h2.3c0,0,0.1-0.1,0.1-0.2
			c0.1-0.1,0.3-0.4,0.5-0.7l0.7,0.2c-0.1,0.1-0.2,0.3-0.3,0.5c-0.1,0.1-0.2,0.2-0.2,0.2h4.5v0.6h-1.5c-0.5,1.1-1,1.8-1.5,2.2
			c0.2,0.1,0.6,0.2,1.1,0.4c0.8,0.3,1.4,0.5,1.8,0.7l-0.4,0.6c-1.3-0.6-2.3-1-3-1.3C192.4,580.5,191,581,189,581.4z M189.7,576
			c-0.1-0.2-0.2-0.4-0.4-0.6c1.3-0.4,2.4-1.1,3.3-2h-2.9v-0.6h3v-2.7h0.7v2.7h3.4v0.6h-3.3c0.9,0.9,2,1.5,3.5,1.9
			c-0.1,0.1-0.3,0.3-0.4,0.6c-1.5-0.5-2.6-1.1-3.2-2v1.9h-0.7V574C192.1,574.8,191.1,575.5,189.7,576z M190,571.2l0.4-0.4
			c0.3,0.3,0.8,0.7,1.4,1.3l-0.5,0.4C190.9,572,190.5,571.6,190,571.2z M191,578.5c0.7,0.3,1.4,0.6,2.1,0.8c0.5-0.4,1-1,1.5-2h-2.7
			C191.6,577.8,191.3,578.1,191,578.5z M194.2,572.1c0.5-0.4,1-0.9,1.5-1.4l0.5,0.4c-0.4,0.4-0.9,0.9-1.5,1.4L194.2,572.1z"/>
	</g>
</g>
</svg>
