<?xml version="1.0" encoding="utf-8"?>
<!-- Generator: Adobe Illustrator 17.1.0, SVG Export Plug-In . SVG Version: 6.00 Build 0)  -->
<!DOCTYPE svg PUBLIC "-//W3C//DTD SVG 1.1//EN" "http://www.w3.org/Graphics/SVG/1.1/DTD/svg11.dtd">
<svg version="1.1" id="图层_1" xmlns="http://www.w3.org/2000/svg" xmlns:xlink="http://www.w3.org/1999/xlink" x="0px" y="0px"
	 viewBox="0 0 349.7 773" style="enable-background:new 0 0 349.7 773;" xml:space="preserve">
<g>
	<rect x="3.6" y="2.4" style="fill:#FF6600;" width="339.3" height="765.4"/>
	<path style="fill:#FFFFFF;" d="M214.3,209.5h-49.9c-4,0-7.3-3.3-7.3-7.3s3.3-7.3,7.3-7.3h49.9c4,0,7.3,3.3,7.3,7.3
		S218.4,209.5,214.3,209.5z"/>
	<path style="fill:#FFFFFF;" d="M189.4,234.5c-4,0-7.3-3.3-7.3-7.3v-49.9c0-4,3.3-7.3,7.3-7.3s7.3,3.3,7.3,7.3v49.9
		C196.7,231.3,193.4,234.5,189.4,234.5z"/>
	<g>
		<path style="fill:#FFFFFF;" d="M246.6,243.7h-6.9c-0.6,0-1-0.4-1-1c0-0.6,0.4-1,1-1h6.9c0.6,0,1,0.4,1,1
			C247.6,243.2,247.2,243.7,246.6,243.7z"/>
		<path style="fill:#FFFFFF;" d="M243.2,247.1c-0.6,0-1-0.4-1-1v-6.9c0-0.6,0.4-1,1-1c0.6,0,1,0.4,1,1v6.9
			C244.2,246.7,243.8,247.1,243.2,247.1z"/>
	</g>
	<g>
		<path style="fill:#FFFFFF;" d="M195.8,348.5h-3.9c-0.3,0-0.6-0.3-0.6-0.6s0.3-0.6,0.6-0.6h3.9c0.3,0,0.6,0.3,0.6,0.6
			S196.1,348.5,195.8,348.5z"/>
		<path style="fill:#FFFFFF;" d="M193.8,350.4c-0.3,0-0.6-0.3-0.6-0.6V346c0-0.3,0.3-0.6,0.6-0.6s0.6,0.3,0.6,0.6v3.9
			C194.4,350.1,194.1,350.4,193.8,350.4z"/>
	</g>
	<path style="fill:#FFFFFF;" d="M79,199.4h-4.5c-0.4,0-0.7-0.3-0.7-0.7c0-0.4,0.3-0.7,0.7-0.7H79c0.4,0,0.7,0.3,0.7,0.7
		C79.6,199.1,79.3,199.4,79,199.4z"/>
	<path style="fill:#FFFFFF;" d="M76.7,201.7c-0.4,0-0.7-0.3-0.7-0.7v-4.5c0-0.4,0.3-0.7,0.7-0.7c0.4,0,0.7,0.3,0.7,0.7v4.5
		C77.4,201.4,77.1,201.7,76.7,201.7z"/>
	<g>
		<defs>
			<polygon id="SVGID_1_" points="3.6,433.9 185,433.9 184.4,160.3 3.6,160.3 			"/>
		</defs>
		<clipPath id="SVGID_2_">
			<use xlink:href="#SVGID_1_"  style="overflow:visible;"/>
		</clipPath>
		<g style="clip-path:url(#SVGID_2_);">
			<path style="fill:#FFFFFF;" d="M160.8,246.7H-16.9c-4.2,0-7.7-3.4-7.7-7.7c0-4.2,3.4-7.7,7.7-7.7h177.6c4.2,0,7.7,3.4,7.7,7.7
				C168.4,243.2,165,246.7,160.8,246.7z"/>
			<path style="fill:#FFFFFF;" d="M148.6,290.4H-4.8c-4.2,0-7.7-3.4-7.7-7.7c0-4.2,3.4-7.7,7.7-7.7h153.4c4.2,0,7.7,3.4,7.7,7.7
				C156.3,287,152.9,290.4,148.6,290.4z"/>
			<path style="fill:#00A199;" d="M-4.8,311.3c-4.2,0-7.7-3.4-7.7-7.7v-20.9c0-4.2,3.4-7.7,7.7-7.7c4.2,0,7.7,3.4,7.7,7.7v20.9
				C2.9,307.9-0.5,311.3-4.8,311.3z"/>
			<path style="fill:#FFFFFF;" d="M148.6,311.3H-4.8c-4.2,0-7.7-3.4-7.7-7.7c0-4.2,3.4-7.7,7.7-7.7h153.4c4.2,0,7.7,3.4,7.7,7.7
				C156.3,307.9,152.9,311.3,148.6,311.3z"/>
			<path style="fill:#FFFFFF;" d="M148.6,311.3c-4.2,0-7.7-3.4-7.7-7.7v-20.9c0-4.2,3.4-7.7,7.7-7.7c4.2,0,7.7,3.4,7.7,7.7v20.9
				C156.3,307.9,152.9,311.3,148.6,311.3z"/>
			<path style="fill:#EB6300;" d="M-4.8,268.9c-4.2,0-7.7-3.4-7.7-7.7V240c0-4.2,3.4-7.7,7.7-7.7c4.2,0,7.7,3.4,7.7,7.7v21.3
				C2.9,265.5-0.5,268.9-4.8,268.9z"/>
			<path style="fill:#FFFFFF;" d="M148.6,268.9H-4.8c-4.2,0-7.7-3.4-7.7-7.7c0-4.2,3.4-7.7,7.7-7.7h153.4c4.2,0,7.7,3.4,7.7,7.7
				C156.3,265.5,152.9,268.9,148.6,268.9z"/>
			<path style="fill:#FFFFFF;" d="M170.1,407.7c-3.3,0-10.8-0.7-16.9-6.3c-5.5-5-8.3-12.4-8.3-21.8V326c0-4.2,3.4-7.7,7.7-7.7
				c4.2,0,7.7,3.4,7.7,7.7v53.5c0,4.9,1.1,8.4,3.2,10.4c2.8,2.6,6.9,2.4,6.9,2.4c4.2-0.4,8.5,2.7,8.9,7c0.4,4.2-3.4,8-7.6,8.3
				C171.5,407.6,170.9,407.7,170.1,407.7z"/>
			<path style="fill:#FFFFFF;" d="M152.6,333.7h-35.9c-4.2,0-7.7-3.4-7.7-7.7s3.4-7.7,7.7-7.7h35.9c4.2,0,7.7,3.4,7.7,7.7
				S156.8,333.7,152.6,333.7z"/>
			<path style="fill:#FFFFFF;" d="M116.6,407.7c-4.2,0-7.7-3.4-7.7-7.7v-74c0-4.2,3.4-7.7,7.7-7.7s7.7,3.4,7.7,7.7v74
				C124.3,404.2,120.8,407.7,116.6,407.7z"/>
			<path style="fill:#EB6300;" d="M-27.2,407.7c-0.8,0-1.3,0-1.5-0.1c-4.2-0.4-7.3-4.1-7-8.3c0.4-4.2,4.1-7.4,8.3-7c0,0,0,0,0.2,0
				c0.8,0,4.3-0.1,6.7-2.4c2.1-2,3.2-5.5,3.2-10.4V326c0-4.2,3.4-7.7,7.7-7.7S-2,321.8-2,326v53.5c0,9.5-2.8,16.8-8.3,21.8
				C-16.5,407-24,407.7-27.2,407.7z"/>
			<path style="fill:#FFFFFF;" d="M26.3,333.7H-9.7c-4.2,0-7.7-3.4-7.7-7.7s3.4-7.7,7.7-7.7h35.9c4.2,0,7.7,3.4,7.7,7.7
				S30.5,333.7,26.3,333.7z"/>
			<path style="fill:#FFFFFF;" d="M26.3,407.7c-4.2,0-7.7-3.4-7.7-7.7v-74c0-4.2,3.4-7.7,7.7-7.7c4.2,0,7.7,3.4,7.7,7.7v74
				C33.9,404.2,30.5,407.7,26.3,407.7z"/>
			<path style="fill:#FFFFFF;" d="M92.5,387.2c-4.2,0-7.7-3.4-7.7-7.7V326c0-4.2,3.4-7.7,7.7-7.7c4.2,0,7.7,3.4,7.7,7.7v53.5
				C100.1,383.8,96.7,387.2,92.5,387.2z"/>
			<path style="fill:#FFFFFF;" d="M92.5,333.7H51.4c-4.2,0-7.7-3.4-7.7-7.7s3.4-7.7,7.7-7.7h41.1c4.2,0,7.7,3.4,7.7,7.7
				S96.7,333.7,92.5,333.7z"/>
			<path style="fill:#FFFFFF;" d="M51.4,387.2c-4.2,0-7.7-3.4-7.7-7.7V326c0-4.2,3.4-7.7,7.7-7.7c4.2,0,7.7,3.4,7.7,7.7v53.5
				C59.1,383.8,55.7,387.2,51.4,387.2z"/>
			<path style="fill:#FFFFFF;" d="M26.3,358.8H-9.7c-4.2,0-7.7-3.4-7.7-7.7s3.4-7.7,7.7-7.7h35.9c4.2,0,7.7,3.4,7.7,7.7
				S30.5,358.8,26.3,358.8z"/>
			<path style="fill:#FFFFFF;" d="M26.3,384.3H-9.7c-4.2,0-7.7-3.4-7.7-7.7c0-4.2,3.4-7.7,7.7-7.7h35.9c4.2,0,7.7,3.4,7.7,7.7
				C33.9,380.9,30.5,384.3,26.3,384.3z"/>
			<path style="fill:#FFFFFF;" d="M50.2,407.7c-4.2,0-7.6-3.4-7.7-7.6c0-4.2,3.4-7.7,7.6-7.7c3.1-0.1,13.5-1.5,13.5-15.5
				c0-4.2,3.4-7.7,7.7-7.7c4.2,0,7.7,3.4,7.7,7.7c0,12.2-5.2,21.8-14.5,27C57.7,407.5,51,407.7,50.2,407.7
				C50.2,407.7,50.2,407.7,50.2,407.7z"/>
			<path style="fill:#FFFFFF;" d="M71.3,384.4c-4.2,0-7.7-3.4-7.7-7.7v-32.2c0-4.2,3.4-7.7,7.7-7.7c4.2,0,7.7,3.4,7.7,7.7v32.2
				C79,381,75.6,384.4,71.3,384.4z"/>
			<path style="fill:#FFFFFF;" d="M91.2,407.7h-5.9c-4.2,0-7.7-3.4-7.7-7.7s3.4-7.7,7.7-7.7h5.9c4.2,0,7.7,3.4,7.7,7.7
				S95.5,407.7,91.2,407.7z"/>
			<path style="fill:#FFFFFF;" d="M134.6,373.6c-4.2,0-7.7-3.4-7.7-7.7v-5.9c0-4.2,3.4-7.7,7.7-7.7s7.7,3.4,7.7,7.7v5.9
				C142.3,370.2,138.8,373.6,134.6,373.6z"/>
		</g>
	</g>
	<rect x="117.9" y="2.4" style="fill:none;" width="225.8" height="155.8"/>
	<path style="fill:#FFFFFF;" d="M81.2,202.5c0,0-0.4-0.6-1.6-0.6c-0.4,0-5.4,0-5.8,0c-1.2,0-1.6,0.6-1.6,0.6s-0.6,0.6-0.1,1.6
		c0.6,1.3,1.7,3.5,1.7,3.5h6c0,0,1.1-2.2,1.7-3.5C81.8,203.1,81.2,202.5,81.2,202.5z"/>
	<path style="fill:#FFFFFF;" d="M81.1,211.1h-8.9c-0.7,0-1.3-0.5-1.3-1c0-0.6,0.6-1,1.3-1h8.9c0.7,0,1.3,0.5,1.3,1
		C82.4,210.6,81.9,211.1,81.1,211.1z"/>
	<path style="fill:#FFFFFF;" d="M80.2,209.5h-7.1c-0.6,0-1-0.4-1-0.8c0-0.4,0.5-0.8,1-0.8h7.1c0.6,0,1,0.4,1,0.8
		C81.3,209.1,80.8,209.5,80.2,209.5z"/>
	<path style="fill:#EB6300;" d="M81.3,226.9h-9.2c-0.7,0-1.3-0.5-1.3-1c0-0.6,0.6-1,1.3-1h9.2c0.7,0,1.3,0.5,1.3,1
		C82.6,226.4,82,226.9,81.3,226.9z"/>
	<path style="fill:#FFFFFF;" d="M84.6,228.2c-3.8-2-4.3-6.7-4.8-11.2c-0.4-3.4-0.3-6-0.3-6.9h-5.8c0.1,0.9,0.1,3.5-0.3,6.9
		c-0.5,4.6-1,9.2-4.8,11.2c-1.3,0.7-2.1,2.1-0.8,3v0.6h17.5v-0.6C86.8,230.3,86,228.9,84.6,228.2z"/>
	<path style="fill:#FFFFFF;" d="M188.6,428.4c-4.2,0-7.6,3.4-7.6,7.6c0,4.4,2.8,5.8,4.5,9.5c2,4.3,3.1,8.2,3.1,8.2s1.1-4,3.1-8.3
		c1.7-3.6,4.5-5.1,4.5-9.4C196.2,431.8,192.8,428.4,188.6,428.4z M188.6,439.5c-1.9,0-3.4-1.5-3.4-3.4c0-1.9,1.5-3.4,3.4-3.4
		c1.9,0,3.4,1.5,3.4,3.4C192,438,190.5,439.5,188.6,439.5z"/>
	<g id="阿里妈妈_7_">
		<g>
			<path style="fill-rule:evenodd;clip-rule:evenodd;fill:#FFFFFF;" d="M251.1,30.9c2.5,0,5,0,7.5,0c0,3.7,0,7.5,0,11
				c0,0.2-0.3,0.5-0.6,0.6c-0.4,0-0.6,0-1,0v1.8c0.6,0,1.1,0,1.6,0c1.4,0,2.4-0.7,2.4-1.9c0-2.8,0-8.5,0-11.4h0.9v-1.7h-10.7V30.9z
				 M289.2,38.8c-0.7,0-1.7,0.7-1.7,1.7c2.2,0,5.6,0,8,0c0,0.4,0,0.9,0,1.4c0.8,0,0.5,0,1.3,0c0.5,0,1.1-0.4,1.1-1.1
				c0-1.9,0-3.4,0-5.3c-0.4,0-0.7,0-1.1,0c0-1.4,0-4.4,0-5.5c0-0.4-0.4-0.9-1-0.9H288v1.7h6c0,1.6,0,3.1,0,4.7c-1.4,0-1.7,0-2.9,0
				c-0.2,0-0.3-0.2-0.3-0.3c0-0.8,0-2,0-3.1c0-0.2-0.2-0.5-0.6-0.5h-1.8v4.1c0,0.8,0.7,1.5,1.5,1.5c0,0,3.1,0,5.6,0v1.5H289.2z
				 M257.4,39.3c0-2,0-4.7,0-7.4h-6.2v9.4c1.8,0,4.1,0,4.1,0C256.9,41.3,257.4,40.4,257.4,39.3z M254.8,39.6c-0.4,0-0.9,0-1.6,0
				v-5.9c0.7,0,1.4,0,2.1,0c0,1.8,0,3.8,0,5.3C255.3,39.4,255.1,39.6,254.8,39.6z M244.1,29.6c0,3.4,0,7.8,0,14.6h2.3
				c0-4.3,0-8.9,0-13.3c0.5,0,1.2,0,1.7,0c0,2.6,0,4.8,0,7.2c0,1-0.9,1.3-0.9,1.3v1.9c1.6,0,3.1-1.7,3.1-3.2c0-2.7,0-6.2,0-9
				c-2.1,0-3.7,0-5.7,0C244.1,29.1,244.1,29.6,244.1,29.6z M315.8,35.5c0-1.4,0-4.4,0-5.5c0-0.4-0.4-0.9-1-0.9H307v1.7c2,0,4,0,6,0
				v4.7c-1.4,0-1.7,0-2.9,0c-0.2,0-0.3-0.2-0.3-0.3c0-0.8,0-2,0-3.1c0-0.2-0.2-0.5-0.6-0.5c-0.5,0-1.2,0-1.8,0v4.1
				c0,0.8,0.7,1.5,1.5,1.5c0,0,3.1,0,5.6,0v1.5h-6.1c-0.7,0-1.8,0.6-1.8,1.7c2.2,0,5.6,0,7.9,0v1.6c0,0.3-0.2,0.4-0.5,0.4H313
				c0,0.8,0,1.2,0,1.7h1.4c0.4,0,0.3,0,0.8,0c1.2,0,1.7-0.8,1.7-1.5c0-2.2,0-5,0-7.1C316.5,35.5,316.1,35.5,315.8,35.5z M304.7,41.3
				c0.8-0.9,1.3-2,1.4-4.1c0-2.2,0-4.4,0-6.6c0-0.2-0.2-0.4-0.5-0.4c-0.9,0-2,0-2.9,0v-1h-2.3c0,0.3,0,0.7,0,1c-0.2,0-0.5,0-0.8,0
				v1.7h0.8v5.4c0,2.1,0.7,3.1,1.5,4.1c-1,0.7-2,1.1-3.5,1.1c-0.2,0-0.4,0-0.6,0c-2.2,0-4.8,0-7.1,0c-2.2,0-4.2-0.4-5-1.3
				c0.7-1,1.1-1.8,1.4-3.9c0-2.1,0-3.8,0-6.5c0-0.3-0.3-0.5-0.5-0.6c-0.9,0-1.8,0-2.9,0v-1c-0.9,0-1.3,0-2.2,0v1c-0.3,0-0.4,0-0.8,0
				v1.7c0.3,0,0.5,0,0.8,0c0,1.8,0,3.7,0,5.3c0.2,2.1,0.8,2.8,1.6,4c-1.2,0.8-2.6,1.2-4.2,1.3c-2,0-3.7,0-6.2,0c0-0.4,0-1,0-1.3h6.2
				v-1.8h-6.2c0-0.4,0-0.9,0-1.3c1.8,0,4.2,0,4.7,0c0,0,1.5,0,1.5-1.7c0-1.7,0-4.9,0-7.2c-4.9,0-9.9,0-14.9,0
				c-0.2,0-0.5,0.3-0.5,0.4c0,0.4,0,5.8,0,8.4c2.1,0,4.2,0,6.2,0v1.3h-6.2c0,0.6,0,1.2,0,1.8h6.2c0,0.4,0,0.9,0,1.3h-7.3
				c0,0.5,0,1.2,0,1.7c5.5,0,12.2,0,17.6,0c1.4,0,3.2-0.7,4.5-1.5c1.6,1.2,3.4,1.5,6.3,1.5c0.9,0,1.9,0,3,0c1.5,0,2.9,0,4.1,0
				c2.5,0,4-0.5,5.6-1.4c1.4,0.8,2.7,1.4,4.9,1.4v0h3.3v-1.7h-3.3C306.8,42.3,305.6,42.1,304.7,41.3z M269.6,36.3h-3.8v-1.8h3.8
				V36.3z M269.7,32.7h-3.8v-1.8c1.3,0,2.6,0,3.8,0V32.7z M272.5,30.9h3.8v1.8h-3.8V30.9z M272.5,34.5c1.3,0,2.6,0,3.8,0
				c0,0.7,0,1.3,0,1.8h-3.8C272.5,35.8,272.5,35.1,272.5,34.5z M284.9,37.3c-0.1,1.2-0.3,1.5-0.6,2.3c-0.4-0.7-0.7-1.1-0.8-2.3
				c0-1.6,0-3.7,0-5.3h1.3V37.3z M303.9,37.3c0,1.1-0.3,1.6-0.6,2.3c-0.4-0.6-0.7-1.2-0.7-2.3c0-1.7,0-3.7,0-5.4h1.3
				C303.9,33.6,303.9,35.6,303.9,37.3z"/>
		</g>
	</g>
	<g id="alimama.com_7_">
		<g>
			<path style="fill-rule:evenodd;clip-rule:evenodd;fill:#FFFFFF;" d="M248.1,47.5c-1.4,2.7-2.6,5.1-4.1,8h1.9
				c0.4-0.7,0.6-1.1,1-1.9c1,0,1.8,0,2.8,0c-0.2-0.6-0.4-1-0.5-1.5h-1.5c0.5-0.9,0.7-1.4,1.4-2.7c0.7,2.1,1.5,4.2,2.2,6.1h1.8
				c-1-2.8-1.9-5.2-2.8-8H248.1z M253.6,55.5h1.7l0.4-8l-1.7,0L253.6,55.5z M256.2,55.5h1.8l0.2-5.9h-1.7L256.2,55.5z M256.6,47.5
				l-0.1,1.3c0,0,1.3,0,1.7,0l0.1-1.3C256.8,47.5,256.7,47.5,256.6,47.5z M267.5,49.6c-0.3-0.1-0.6-0.2-1-0.2c-0.2,0-0.4,0-0.6,0.1
				c-0.2,0-0.4,0.1-0.5,0.2c-0.1,0.1-0.3,0.1-0.4,0.2c-0.1,0.1-0.2,0.2-0.3,0.3c-0.1,0.1-0.2,0.2-0.2,0.3c-0.1-0.2-0.2-0.3-0.2-0.4
				c-0.1-0.1-0.1-0.2-0.2-0.3c-0.1-0.1-0.2-0.1-0.3-0.2c-0.1-0.1-0.3-0.1-0.4-0.1c-0.2,0-0.3,0-0.5,0c-0.2,0-0.5,0-0.7,0.1
				c-0.2,0.1-0.4,0.1-0.6,0.2c-0.2,0.1-0.3,0.2-0.4,0.3c-0.1,0.1-0.2,0.3-0.3,0.4l0-0.9h-1.6l-0.3,5.9c0,0,1.3,0,1.7,0
				c0-0.5,0-1.2,0.1-2.1c0-0.9,0.1-1.4,0.2-1.7c0.1-0.3,0.2-0.5,0.5-0.7c0.2-0.2,0.4-0.3,0.7-0.3c0.1,0,0.3,0,0.4,0.1
				c0.1,0.1,0.2,0.1,0.3,0.2c0.1,0.1,0.1,0.2,0.2,0.3c0,0.1,0,0.3,0,0.4c0,0.3,0,0.9-0.1,1.9c-0.1,0.9-0.1,1.5-0.1,1.8
				c0.4,0,1.4,0,1.7,0l0-1.6c0-0.6,0-1,0.1-1.4c0-0.4,0.1-0.6,0.1-0.8c0.1-0.2,0.2-0.4,0.3-0.5c0.1-0.1,0.3-0.3,0.4-0.3
				c0.1-0.1,0.3-0.1,0.5-0.1c0.2,0,0.3,0,0.5,0.1c0.1,0.1,0.2,0.2,0.3,0.3c0.1,0.1,0.1,0.4,0.1,0.6c0,0.2,0,0.5,0,0.9l-0.1,1.3
				c0,0.5-0.1,1.1-0.1,1.6c0.3,0,1.4,0,1.7,0c0-0.4,0-1.1,0.1-1.9c0-0.8,0.1-1.4,0.1-1.8c0-0.4,0-0.6,0-0.8c0-0.4-0.1-0.7-0.3-0.9
				C268,49.8,267.8,49.7,267.5,49.6z M273.8,49.5c-0.4-0.1-0.8-0.1-1.2-0.1c-0.4,0-0.8,0-1.2,0.1c-0.4,0.1-1.4,0.3-1.4,0.3l-0.2,1.1
				c0,0,1.6-0.5,2.4-0.5c0.2,0,0.4,0,0.5,0.1c0.2,0,0.3,0.1,0.4,0.2c0.1,0.1,0.1,0.2,0.1,0.4c0,0.1,0,0.2,0,0.2
				c0,0.1-0.1,0.1-0.2,0.2c-0.1,0.1-0.2,0.1-0.3,0.2c-0.1,0-0.2,0.1-0.4,0.1c-0.2,0-0.3,0.1-0.5,0.1c-0.6,0.1-1,0.2-1.4,0.4
				c-0.3,0.1-0.6,0.2-0.8,0.4c-0.2,0.1-0.3,0.3-0.4,0.4c-0.1,0.1-0.2,0.3-0.3,0.4c-0.1,0.2-0.1,0.3-0.1,0.5c0,0.3,0.1,0.6,0.2,0.9
				c0.1,0.3,0.4,0.5,0.7,0.6c0.3,0.1,0.7,0.2,1.2,0.2c0.1,0,0.3,0,0.5,0c0.2,0,0.4,0,0.7-0.1c0.1-0.4,0.2-0.8,0.3-1
				c-0.2,0.1-0.4,0.1-0.6,0.1c-0.1,0-0.3,0-0.4,0c-0.2,0-0.4,0-0.5-0.1c-0.1,0-0.3-0.1-0.4-0.2c-0.1-0.1-0.1-0.3-0.1-0.4
				c0-0.1,0-0.2,0.1-0.3c0-0.1,0.1-0.2,0.2-0.3c0.1-0.1,0.2-0.2,0.3-0.2c0.1-0.1,0.3-0.1,0.4-0.2c0.1,0,0.3-0.1,0.6-0.2
				c0.2-0.1,0.4-0.1,0.5-0.2c0.1,0,0.2-0.1,0.3-0.1c0.1,0,0.2-0.1,0.3-0.2l-0.2,3.1h1.7c0,0,0-1.9,0.1-2.8c0.1-0.9,0.1-1.5,0.1-1.7
				c0-0.4-0.1-0.7-0.3-0.9C274.4,49.8,274.2,49.6,273.8,49.5z M284.3,49.6c-0.3-0.1-0.6-0.2-1-0.2c-0.2,0-0.4,0-0.6,0.1
				c-0.2,0-0.4,0.1-0.5,0.2c-0.1,0.1-0.3,0.1-0.4,0.2c-0.1,0.1-0.2,0.2-0.3,0.3c-0.1,0.1-0.2,0.2-0.2,0.3c-0.1-0.2-0.2-0.3-0.2-0.4
				c-0.1-0.1-0.1-0.2-0.2-0.3c-0.1-0.1-0.2-0.1-0.3-0.2c-0.1-0.1-0.3-0.1-0.4-0.1c-0.2,0-0.3,0-0.5,0c-0.2,0-0.5,0-0.7,0.1
				c-0.2,0.1-0.4,0.1-0.6,0.2c-0.2,0.1-0.3,0.2-0.4,0.3c-0.1,0.1-0.2,0.3-0.3,0.4l0-0.9H276l-0.3,5.9h1.7c0,0,0-1.2,0.1-2.1
				c0-0.9,0.1-1.4,0.2-1.7c0.1-0.3,0.2-0.5,0.5-0.7c0.2-0.2,0.4-0.3,0.7-0.3c0.1,0,0.3,0,0.4,0.1c0.1,0.1,0.2,0.1,0.3,0.2
				c0.1,0.1,0.1,0.2,0.2,0.3c0,0.1,0,0.3,0,0.4c0,0.3,0,0.9-0.1,1.9c-0.1,0.9-0.1,1.5-0.1,1.8c0.4,0,1.4,0,1.7,0l0-1.6
				c0-0.6,0-1,0.1-1.4c0-0.4,0.1-0.6,0.1-0.8c0.1-0.2,0.2-0.4,0.3-0.5c0.1-0.1,0.3-0.3,0.4-0.3c0.1-0.1,0.3-0.1,0.5-0.1
				c0.2,0,0.3,0,0.5,0.1c0.1,0.1,0.2,0.2,0.3,0.3c0.1,0.1,0.1,0.4,0.1,0.6c0,0.2,0,0.5,0,0.9l-0.1,1.3c0,0.5-0.1,1.1-0.1,1.6
				c0.3,0,1.4,0,1.7,0c0-0.4,0-1.1,0.1-1.9c0-0.8,0.1-1.4,0.1-1.8c0-0.4,0-0.6,0-0.8c0-0.4-0.1-0.7-0.3-0.9
				C284.8,49.8,284.6,49.7,284.3,49.6z M290.6,49.5c-0.4-0.1-0.8-0.1-1.2-0.1c-0.4,0-0.8,0-1.2,0.1c-0.4,0.1-1.4,0.3-1.4,0.3
				l-0.2,1.1c0,0,1.7-0.5,2.4-0.5c0.2,0,0.4,0,0.5,0.1c0.2,0,0.3,0.1,0.4,0.2c0.1,0.1,0.1,0.2,0.1,0.4c0,0.1,0,0.2-0.1,0.2
				c0,0.1-0.1,0.1-0.2,0.2c-0.1,0.1-0.2,0.1-0.2,0.2c-0.1,0-0.2,0.1-0.4,0.1c-0.2,0-0.3,0.1-0.5,0.1c-0.6,0.1-1,0.2-1.4,0.4
				c-0.3,0.1-0.6,0.2-0.8,0.4c-0.2,0.1-0.3,0.3-0.4,0.4c-0.1,0.1-0.2,0.3-0.3,0.4c-0.1,0.2-0.1,0.3-0.1,0.5c0,0.3,0.1,0.6,0.2,0.9
				c0.2,0.3,0.4,0.5,0.7,0.6c0.3,0.1,0.7,0.2,1.2,0.2c0.1,0,0.3,0,0.5,0c0.2,0,0.4,0,0.7-0.1c0.1-0.4,0.2-0.8,0.3-1
				c-0.2,0.1-0.4,0.1-0.6,0.1c-0.1,0-0.3,0-0.4,0c-0.2,0-0.4,0-0.5-0.1c-0.1,0-0.3-0.1-0.4-0.2c-0.1-0.1-0.1-0.3-0.1-0.4
				c0-0.1,0-0.2,0.1-0.3c0-0.1,0.1-0.2,0.2-0.3c0.1-0.1,0.2-0.2,0.3-0.2c0.1-0.1,0.3-0.1,0.4-0.2c0.1,0,0.3-0.1,0.6-0.2
				c0.2-0.1,0.4-0.1,0.5-0.2c0.1,0,0.2-0.1,0.3-0.1c0.1,0,0.2-0.1,0.3-0.2l-0.2,3.1h1.7c0,0,0-1.9,0.1-2.8c0.1-0.9,0.1-1.5,0.1-1.7
				c0-0.4-0.1-0.7-0.3-0.9C291.2,49.8,291,49.6,290.6,49.5z M292.5,53.9c0,0.8-0.1,1.3-0.1,1.6c0.6,0,1.6,0,1.6,0s0.1-1.3,0.1-1.6
				C293.7,53.9,292.5,53.9,292.5,53.9z M296.8,51.1c0.2-0.2,0.4-0.3,0.6-0.4c0.2-0.1,0.5-0.1,0.8-0.1c0.4,0,0.9,0.1,1.5,0.3
				l-0.1-1.3c-0.4-0.1-0.7-0.1-1-0.2c-0.3,0-0.5,0-0.8,0c-0.5,0-0.9,0.1-1.2,0.2c-0.4,0.1-0.7,0.3-1,0.6c-0.3,0.3-0.5,0.7-0.7,1.1
				c-0.2,0.5-0.2,0.9-0.2,1.4c0,0.4,0,0.7,0.1,1.1c0.1,0.3,0.2,0.6,0.4,0.9c0.2,0.2,0.4,0.4,0.7,0.6c0.3,0.2,0.5,0.3,0.8,0.3
				c0.3,0.1,0.6,0.1,0.9,0.1c0.5,0,1.1-0.1,1.7-0.2c0-0.3,0.1-0.5,0.1-0.8c0-0.2,0.1-0.4,0.1-0.5c-0.3,0.1-0.5,0.2-0.8,0.2
				c-0.3,0-0.5,0.1-0.6,0.1c-0.4,0-0.7-0.1-1-0.2c-0.3-0.1-0.5-0.4-0.6-0.6c-0.1-0.3-0.2-0.6-0.2-1c0-0.3,0-0.5,0.1-0.8
				C296.6,51.6,296.7,51.3,296.8,51.1z M305.8,50.2c-0.3-0.3-0.6-0.5-1.1-0.6c-0.4-0.1-0.8-0.2-1.3-0.2c-0.5,0-1,0.1-1.4,0.2
				c-0.5,0.2-0.8,0.4-1.1,0.7c-0.3,0.3-0.5,0.6-0.6,1c-0.1,0.4-0.2,0.8-0.2,1.2c0,0.4,0.1,0.8,0.2,1.2c0.2,0.4,0.4,0.7,0.7,1
				c0.3,0.3,0.6,0.5,1,0.6c0.4,0.1,0.8,0.2,1.3,0.2c0.5,0,1-0.1,1.4-0.2c0.4-0.1,0.8-0.4,1.1-0.7c0.3-0.3,0.5-0.7,0.7-1.1
				c0.2-0.4,0.2-0.8,0.2-1.3c0-0.4-0.1-0.8-0.2-1.2C306.3,50.8,306.1,50.4,305.8,50.2z M304.8,53.4c-0.1,0.3-0.3,0.6-0.6,0.7
				c-0.3,0.2-0.6,0.3-0.9,0.3c-0.3,0-0.6-0.1-0.9-0.2c-0.2-0.2-0.4-0.4-0.5-0.6c-0.1-0.3-0.2-0.6-0.2-0.9c0-0.4,0.1-0.7,0.2-1.1
				c0.1-0.3,0.3-0.6,0.6-0.7c0.3-0.2,0.6-0.2,0.9-0.2c0.3,0,0.6,0.1,0.9,0.2c0.2,0.2,0.4,0.4,0.5,0.6c0.1,0.3,0.2,0.6,0.2,0.9
				C305,52.7,304.9,53.1,304.8,53.4z M316.3,50.1c-0.2-0.2-0.4-0.4-0.7-0.5c-0.3-0.1-0.6-0.2-1-0.2c-0.2,0-0.4,0-0.6,0.1
				c-0.2,0-0.4,0.1-0.5,0.2c-0.1,0.1-0.3,0.1-0.4,0.2c-0.1,0.1-0.2,0.2-0.3,0.3c-0.1,0.1-0.2,0.2-0.2,0.3c-0.1-0.2-0.1-0.3-0.2-0.4
				c-0.1-0.1-0.1-0.2-0.2-0.3c-0.1-0.1-0.2-0.1-0.3-0.2c-0.1-0.1-0.3-0.1-0.4-0.1c-0.2,0-0.3,0-0.5,0c-0.2,0-0.5,0-0.7,0.1
				c-0.2,0.1-0.4,0.1-0.6,0.2c-0.2,0.1-0.3,0.2-0.4,0.3c-0.1,0.1-0.2,0.3-0.3,0.4l0-0.9c-0.3,0-1.3,0-1.6,0c0,0.7-0.2,5.3-0.3,5.9
				c0.4,0,1.3,0,1.7,0c0-0.5,0-1.2,0.1-2.1c0-0.9,0.1-1.4,0.2-1.7c0.1-0.3,0.2-0.5,0.5-0.7c0.2-0.2,0.4-0.3,0.7-0.3
				c0.1,0,0.3,0,0.4,0.1c0.1,0.1,0.2,0.1,0.3,0.2c0.1,0.1,0.1,0.2,0.2,0.3c0,0.1,0,0.3,0,0.4c0,0.3,0,0.9-0.1,1.9
				c-0.1,0.9-0.1,1.5-0.1,1.8c0.4,0,1.4,0,1.7,0l0-1.6c0-0.6,0-1,0.1-1.4c0-0.4,0.1-0.6,0.1-0.8c0.1-0.2,0.2-0.4,0.3-0.5
				c0.1-0.1,0.3-0.3,0.4-0.3c0.1-0.1,0.3-0.1,0.5-0.1c0.2,0,0.3,0,0.5,0.1c0.1,0.1,0.2,0.2,0.3,0.3c0.1,0.1,0.1,0.4,0.1,0.6
				c0,0.2,0,0.5,0,0.9l-0.1,1.3c0,0.5-0.1,1.1-0.1,1.6c0.3,0,1.4,0,1.7,0c0-0.4,0-1.1,0.1-1.9c0-0.8,0.1-1.4,0.1-1.8
				c0-0.4,0-0.6,0-0.8C316.6,50.6,316.5,50.3,316.3,50.1z"/>
		</g>
	</g>
	<g>
		<path style="fill:#FFFFFF;" d="M185,293.5c0,1.6-0.5,2.4-1.7,2.5c-0.4,0-0.8,0.1-1.4,0.1c0-0.4-0.1-0.7-0.2-1c0.4,0,0.8,0,1.2,0
			c0.8,0,1.1-0.5,1.1-1.6c0-1.4-0.5-2.8-1.6-4.1l1.4-5h-2.7v14.4h-0.9v-15.2h4.5v0.9l-1.4,4.8C184.5,290.8,185,292.2,185,293.5z
			 M185.9,284H196v0.8h-1.6v11.6c0,1.5-0.7,2.2-2.2,2.2c-0.5,0-1.4,0.1-2.4,0.1c0,0,0-0.1-0.1-0.3c0-0.3,0-0.5-0.1-0.7
			c0.9,0,1.7,0,2.4,0c1.1,0,1.6-0.4,1.6-1.4v-11.6h-7.7V284z M186.4,287.5h4.8v6.9h-4.8V287.5z M187.4,288.4v5.2h3v-5.2H187.4z"/>
		<path style="fill:#FFFFFF;" d="M197.9,293.9h6.7v-2.3h-6.1v-8h13.2v8h-6.2v2.3h6.8v0.9h-6.8v2.3h7.8v0.9h-16.4v-0.9h7.7v-2.3h-6.7
			V293.9z M199.5,284.4v2.8h5.2v-2.8H199.5z M199.5,288v2.8h5.2V288H199.5z M210.8,284.4h-5.2v2.8h5.2V284.4z M205.5,288v2.8h5.2
			V288H205.5z"/>
		<path style="fill:#FFFFFF;" d="M221,296.8l-0.7,0.6c-0.2-0.2-0.6-0.6-1.1-1c-0.5-0.5-0.9-0.8-1.2-1c-0.7,1.1-1.7,2.3-3.1,3.4
			c-0.2-0.3-0.5-0.5-0.7-0.7c1.4-1.1,2.5-2.2,3.1-3.3c-0.7-0.8-1.5-1.5-2.4-2.2c0.4-1.6,0.8-3.4,1.2-5.2h-1.5v-0.9h1.6
			c0.1-0.5,0.3-1.3,0.4-2.3c0.1-0.6,0.2-1,0.2-1.3l0.9,0.1c0,0.2-0.1,0.6-0.1,1.1c-0.1,0.5-0.3,1.4-0.4,2.4h3.1v0.9
			c-0.3,3.1-0.9,5.5-1.8,7.3C219.3,295.3,220.1,296,221,296.8z M219.4,287.2h-2.4c-0.3,1.9-0.7,3.6-1.1,5c0.2,0.2,0.5,0.4,0.9,0.7
			c0.5,0.4,0.9,0.7,1.1,1C218.6,292.3,219.1,290,219.4,287.2z M220.8,294h7.1v0.8h-7.1V294z M223.3,285.6l-0.4,4.8h4.7l0.5-6h-6.8
			v-0.8h7.8l-0.6,6.8h1.6c-0.1,2.9-0.2,4.8-0.3,5.8c-0.1,1.5-1,2.3-2.7,2.3c-0.8,0-1.6,0-2.6,0c0-0.3-0.1-0.6-0.2-1
			c0.9,0,1.8,0.1,2.7,0.1c1.1,0,1.7-0.5,1.8-1.6c0.2-1.8,0.3-3.4,0.3-4.8h-7.3l0.5-5.6H223.3z"/>
		<path style="fill:#FFFFFF;" d="M238.4,296.8l-0.7,0.6c-0.2-0.2-0.6-0.6-1.1-1c-0.5-0.5-0.9-0.8-1.2-1c-0.7,1.1-1.7,2.3-3.1,3.4
			c-0.2-0.3-0.5-0.5-0.7-0.7c1.4-1.1,2.5-2.2,3.1-3.3c-0.7-0.8-1.5-1.5-2.4-2.2c0.4-1.6,0.8-3.4,1.2-5.2H232v-0.9h1.6
			c0.1-0.5,0.3-1.3,0.4-2.3c0.1-0.6,0.2-1,0.2-1.3l0.9,0.1c0,0.2-0.1,0.6-0.1,1.1c-0.1,0.5-0.3,1.4-0.4,2.4h3.1v0.9
			c-0.3,3.1-0.9,5.5-1.8,7.3C236.7,295.3,237.5,296,238.4,296.8z M236.8,287.2h-2.4c-0.3,1.9-0.7,3.6-1.1,5c0.2,0.2,0.5,0.4,0.9,0.7
			c0.5,0.4,0.9,0.7,1.1,1C236,292.3,236.5,290,236.8,287.2z M238.2,294h7.1v0.8h-7.1V294z M240.7,285.6l-0.4,4.8h4.7l0.5-6h-6.8
			v-0.8h7.8l-0.6,6.8h1.6c-0.1,2.9-0.2,4.8-0.3,5.8c-0.1,1.5-1,2.3-2.7,2.3c-0.8,0-1.6,0-2.6,0c0-0.3-0.1-0.6-0.2-1
			c0.9,0,1.8,0.1,2.7,0.1c1.1,0,1.7-0.5,1.8-1.6c0.2-1.8,0.3-3.4,0.3-4.8h-7.3l0.5-5.6H240.7z"/>
		<path style="fill:#FFFFFF;" d="M249.4,294.2c-0.1-0.4-0.3-0.8-0.5-1.1c1.2-1.8,2.1-3.8,2.7-6.1h-2.4v-0.8h2.4v-3.5h0.9v3.5h2.1
			v0.8h-2.1v2.9l0.5-0.4c0.3,0.2,0.6,0.6,1.1,1c0.5,0.4,0.8,0.7,1,1l-0.7,0.6c-0.5-0.5-1.1-1.2-1.9-2v8.7h-0.9v-10.3
			C251.2,290.9,250.4,292.8,249.4,294.2z M255,295.6c-0.2-0.3-0.4-0.5-0.7-0.8c2.6-1.1,4.6-2.6,6-4.4c-0.5,0-1.1,0.1-2,0.1
			c-0.6,0.1-1,0.1-1.3,0.1c-0.3,0-0.7,0.1-1.1,0.1c0.1,0,0,0-0.1,0.1l-0.5-0.9c0.3-0.1,0.5-0.3,0.7-0.6c0.9-1,1.7-2.1,2.7-3.3h-3.6
			v-0.9h5c-0.1-0.4-0.4-1-0.8-1.9c0-0.2-0.1-0.3-0.1-0.3l0.8-0.3c0.2,0.3,0.5,0.9,0.9,1.8c0.1,0.3,0.2,0.5,0.2,0.5l-0.7,0.3h5v0.9
			h-5.5c-1.1,1.5-2.1,2.7-3.1,3.8c1.4,0,2.9-0.1,4.2-0.3c0.5-0.6,0.9-1.3,1.2-2l0.9,0.4C261.2,291.5,258.5,294,255,295.6z
			 M255.6,298.9c-0.1-0.3-0.3-0.5-0.6-0.8c3.9-1.4,6.9-3.9,9-7.5l0.9,0.5c-1.2,1.7-2.2,3-3.1,3.9c1.2,1,2.4,1.9,3.6,2.9l-0.7,0.8
			c-0.5-0.5-1.2-1-2-1.7c-0.8-0.6-1.3-1.1-1.6-1.4C259.8,296.8,257.9,297.9,255.6,298.9z"/>
		<path style="fill:#FFFFFF;" d="M268.3,287.8l1,0.3c-0.6,2.3-1.2,4.5-1.8,6.7c-0.3-0.1-0.7-0.2-1-0.3
			C267.1,292.8,267.7,290.6,268.3,287.8z M270.8,285.9h1v9.9c0,1.1,0.5,1.7,1.7,1.6h3.3c1.2,0,1.9-0.4,2-1.4
			c0.1-0.6,0.2-1.4,0.3-2.3c0.1,0,0.3,0.1,0.5,0.1c0.2,0.1,0.4,0.2,0.5,0.2c0,0.5-0.1,1.1-0.3,1.8c0,0.3-0.1,0.5-0.1,0.7
			c-0.3,1.2-1.2,1.8-2.9,1.8h-3.7c-1.6,0-2.4-0.8-2.4-2.4V285.9z M276.2,287.7c-0.6-1.2-1.6-2.7-2.8-4.7l0.9-0.5
			c0.1,0.2,0.3,0.5,0.6,1c0.6,1,1.4,2.2,2.2,3.7L276.2,287.7z M282,293.7c-0.9-2.1-1.8-4.1-2.8-6l1-0.4c0.2,0.4,0.5,1,1,1.9
			c0.9,1.8,1.5,3.1,1.9,4L282,293.7z"/>
		<path style="fill:#FFFFFF;" d="M299.8,293.2c-3.4-0.3-5.9-0.9-7.5-1.6c-2,0.9-4.6,1.5-8,2c0-0.2-0.2-0.5-0.3-0.8
			c0,0-0.1-0.1-0.1-0.1c3-0.3,5.5-0.8,7.3-1.5c-1-0.6-2-1.4-3-2.4c-0.9,0.8-1.7,1.5-2.7,2.1c0,0-0.1-0.1-0.1-0.1
			c-0.1-0.2-0.2-0.4-0.4-0.5c2-1.3,3.5-2.7,4.6-4.2l0.7,0.3c-0.3,0.4-0.6,0.8-0.9,1.1h7.9v1c-1.2,1.1-2.5,2.1-4,2.9
			c1.5,0.6,3.8,1,6.9,1.2c-0.1,0.1-0.2,0.4-0.3,0.7C299.9,293.1,299.8,293.2,299.8,293.2z M291.5,282.7l0.8-0.1
			c0.1,0.6,0.3,1.2,0.4,2h6.9v2.9h-0.9v-2h-13v2h-0.9v-2.9h7.1c0-0.1-0.1-0.3-0.1-0.6C291.6,283.4,291.5,283,291.5,282.7z
			 M286.8,293.8h10.7v5.1h-0.9v-0.8h-8.9v0.8h-0.9V293.8z M287.7,294.6v2.7h8.9v-2.7H287.7z M296.2,288.1h-7.3
			c1,1.1,2.1,1.9,3.4,2.5C293.7,290,295.1,289.2,296.2,288.1z"/>
		<path style="fill:#FFFFFF;" d="M308.7,283l0.8-0.4c0.5,0.7,1,1.5,1.5,2.2l-0.8,0.3h6.2v7.2h-1v-0.9h-11.1c0,3-0.8,5.5-2.2,7.4
			c-0.1-0.1-0.4-0.3-0.8-0.6c0.9-1.2,1.4-2.4,1.7-3.5c0.3-1.1,0.4-2.7,0.4-4.9v-4.8h6.7c-0.1-0.3-0.4-0.8-0.9-1.6
			C308.9,283.3,308.8,283.1,308.7,283z M304.3,286v3.9v0.7h11.1V286H304.3z"/>
	</g>
	<g>
		<path style="fill:#FFFFFF;" d="M176.7,332.3c1-1.9,1.8-4.3,2.4-7l4.1,1.2c-0.9,3.1-1.8,5.6-2.6,7.2L176.7,332.3z M181.9,309.3
			l4.9-0.9c0.4,0.7,1,1.6,1.6,2.7c0.3,0.5,0.5,0.9,0.7,1.1h2.7c0.4-0.7,1-1.8,1.9-3.4c0.1-0.2,0.1-0.4,0.2-0.4l5.1,1.1
			c-0.7,0.9-1.3,1.8-2,2.7h4.2v11.5h-8.9c0.4,0.5,1,1.2,1.8,2.2c0.4,0.5,0.7,0.9,0.9,1.1l-3.7,2.7c-1.1-1.7-2.1-3.3-3.3-4.7l2.1-1.4
			h-10.4v-11.5h3.9c-0.3-0.5-0.8-1.2-1.4-2.1C182.1,309.7,181.9,309.5,181.9,309.3z M196.4,326.4l3.7-1.8c0.8,1.3,1.9,3,3.2,5.3
			c0.4,0.8,0.7,1.3,0.9,1.6l-4.1,1.8c-0.2-0.3-0.4-0.8-0.7-1.4c-0.4-0.7-0.6-1.2-0.8-1.5c-0.3,1.1-0.5,1.7-0.7,1.9
			c-0.4,1.8-2,2.7-4.5,2.6h-6.3c-2.8,0.1-4.1-1.4-4.1-4.5v-5.5h4.5v4.3c0,1.3,0.6,1.9,1.7,1.8h2.9c1.4,0.1,2-0.4,2-1.5
			c0.1-0.5,0.3-1,0.3-1.6c-0.1,0.1-0.1-0.1,0-0.4c0.9,0.4,1.9,0.7,2.9,0.9C197.2,327.8,196.8,327.1,196.4,326.4z M196.4,319.8v-3.5
			h-12v3.5H196.4z"/>
		<path style="fill:#FFFFFF;" d="M225.7,308.5c0,2.5,0,4.8,0,7h7.1v3.7h-3.9l3.4,1.7c-1.7,3.1-3.4,5.7-5.1,7.8
			c0.2,0.5,0.5,1.1,0.9,1.7c0.1,0.3,0.3,0.4,0.4,0.3c0.1-0.1,0.3-0.3,0.3-0.6c0.2-1.1,0.4-2.5,0.6-4.2c0.5,0.3,1.3,0.6,2.2,1
			c0.6,0.2,1,0.3,1.2,0.4c-0.4,2.8-0.7,4.5-0.9,5.3c-0.5,1.8-1.6,2.7-3.5,2.8c-1.8,0-3.3-1.1-4.5-3.4c-0.1,0.1-0.2,0.1-0.2,0.1
			c-1.7,1.5-3,2.6-4.1,3.4c-0.2-0.2-0.4-0.4-0.8-0.8c-0.8-1-1.5-1.7-2.1-2.1c0.4-0.3,0.9-0.5,1.4-0.7c-0.8-0.7-1.5-1.4-2.4-2
			c0.1,0.7,0.1,1.5,0.2,2.6c0-0.2,0,0,0.1,0.8c-0.4,0.1-0.9,0.2-1.6,0.5c-0.8,0.2-2,0.6-3.4,1c-0.2,0.1-0.3,0.1-0.4,0.2
			c-0.6,0.3-1.1,0.6-1.5,0.8l-1.6-2.7c0.7-0.6,1.1-1.4,1-2.2v-0.7c-0.1,0.1-0.2,0.2-0.3,0.2c-0.5,0.3-1.1,0.7-2,1.2
			c-0.2-0.6-0.4-1.5-0.9-2.8c-0.2-0.4-0.3-0.8-0.3-1c2.1-1,3.7-2.2,4.8-3.4h-4.2V321h5.5c0-0.1-0.1-0.4-0.2-0.7
			c-0.1-0.3-0.2-0.5-0.2-0.7l4.5-0.2c0.1,0.4,0.3,1,0.6,1.6h4.9v3.5h-1.5l2.5,2c-0.4,0.3-0.9,0.7-1.5,1.2c-0.4,0.3-0.8,0.5-0.9,0.7
			c0.2,0.2,0.6,0.5,1,0.8c0.2,0.2,0.4,0.3,0.4,0.3c0.2-0.2,0.6-0.6,1-1c0.2-0.2,0.4-0.4,0.6-0.6c-0.5-2.2-0.9-5.1-1.1-8.8h-15.9
			v-3.7h5.7V314h-4.7v-3.4h4.7v-2.1h4.4v2.1h4.5v3.4h-4.5v1.5h5.6c0-0.8,0-2.1-0.1-3.9c0-1.5,0-2.5,0-3H225.7z M215.2,325.2
			c0.2,0.2,0.5,0.3,0.9,0.6c0.4,0.3,0.6,0.5,0.8,0.7c0.2-0.2,0.6-0.6,1-1c0.4-0.4,0.8-0.7,1-0.9h-4.2c-0.7,0.8-1.3,1.5-2,2.4v4.2
			c1.1-0.5,2.1-0.8,3-1.1c-0.3-0.2-0.8-0.6-1.5-1.2c-0.6-0.5-1.1-0.8-1.3-1L215.2,325.2z M225.9,311.1l2.9-2.1
			c0.6,0.5,1.5,1.4,2.6,2.6c0.5,0.5,0.9,0.9,1.1,1.1l-3.3,2.5C228.3,314,227.2,312.6,225.9,311.1z M226.2,323.3
			c0.7-1.1,1.4-2.5,2.2-4h-2.6C226,320.8,226.1,322.1,226.2,323.3z"/>
		<path style="fill:#FFFFFF;" d="M250.5,315.2c0,0.2,0,0.4,0,0.7c-0.2,2.9-0.3,4.9-0.4,6.2c0,0.2,0,0.3-0.1,0.6c0,0.3,0,0.5-0.1,0.7
			h2.4v6c-0.1,1.2,0.4,1.8,1.4,1.7h1.6c1,0,1.6-0.6,1.8-1.7c0-0.2,0-0.6,0.1-1.1c0.1-1,0.3-1.9,0.3-2.5c0.5,0.2,1.2,0.3,2.1,0.6
			c0.9,0.3,1.6,0.5,2,0.7c-0.2,1.7-0.4,3.3-0.7,4.6c-0.5,2.2-2.1,3.3-4.7,3.3H252c-3,0.1-4.5-1.4-4.4-4.5v-1.7
			c-2,2.9-5.5,5.2-10.4,7.1c-0.8-1.5-1.7-2.8-2.6-3.9c7.3-2.7,10.9-6.1,10.8-10.3c0.1-1.2,0.2-3.3,0.3-6.2H250.5z M237.2,326.3
			v-16.6h21.6v15.5h-4.6v-11.4h-12.5v12.5H237.2z"/>
		<path style="fill:#FFFFFF;" d="M264.4,335.3v-19.9h8.7l0.6-1.8h-10.3v-3.9h27v3.9h-11.6l-0.6,1.8h11v20h-4.4v-1.7h-16.1v1.6H264.4
			z M268.7,319v11.2h2.2V319H268.7z M275,319v1.8h3.6V319H275z M275,323.7v1.8h3.6v-1.8H275z M275,328.4v1.8h3.6v-1.8H275z
			 M284.8,319h-2.1v11.2h2.1V319z"/>
		<path style="fill:#FFFFFF;" d="M294.3,321.8c-0.1-0.1-0.2-0.4-0.5-0.8c-0.9-1.6-1.6-2.6-2-3.1c5.5-2.7,9.5-5.8,11.7-9.3l5.5,0.2
			c-0.1,0.1-0.2,0.2-0.2,0.4c-0.2,0.2-0.3,0.4-0.3,0.6c2.6,3.3,6.3,5.9,10.9,7.7c-0.7,1.2-1.5,2.6-2.4,4.2c-1.6-0.8-3-1.6-4.2-2.4
			v2.2h-14.5v-2C296.7,320.5,295.3,321.3,294.3,321.8z M292.6,323.5h26v4.1h-6.3c1.9,1.9,3.7,3.6,5.5,5.3l-3.6,2.9l-1.3-1.7
			c-0.5,0-1.6,0-3.2,0.1c-4.9,0.1-7.8,0.3-8.8,0.3c-1.2,0.1-2.6,0.2-4,0.5c-0.2,0.1-0.3,0.1-0.5,0.1l-1.9-3.8
			c1.2-0.6,2.2-1.3,2.9-2.1c0.5-0.4,1-1,1.5-1.6h-6.3V323.5z M305.8,313.1c-1.1,1.2-2.6,2.6-4.6,4.3h9
			C308.9,316.4,307.4,315,305.8,313.1z M301.2,330.8c3.4,0,6.2,0,8.4-0.1c-0.5-0.7-1.1-1.4-1.7-2.1l1.5-1h-5.3
			c-0.4,0.5-1,1.2-1.9,2.1C301.8,330.2,301.5,330.6,301.2,330.8z"/>
	</g>
	<g>
		<path style="fill:#FFFFFF;" d="M184.1,467.5c-0.5-0.4-1-0.9-1.7-1.4l0.4-0.5c0.2,0.2,0.5,0.4,0.9,0.7c0.4,0.3,0.7,0.5,0.9,0.7
			L184.1,467.5z M183.4,473.6l-0.7-0.2c0.6-1.9,1-3.3,1.2-4.2c0.1,0,0.2,0.1,0.3,0.1c0.1,0.1,0.2,0.1,0.3,0.1
			C184.2,470.4,183.8,471.8,183.4,473.6z M184.5,464.5c-0.3-0.2-0.6-0.6-1.1-1c-0.3-0.2-0.4-0.4-0.6-0.5l0.4-0.4
			c0.1,0.1,0.2,0.2,0.3,0.3c0.6,0.5,1.1,0.9,1.4,1.2L184.5,464.5z M185.3,466.1c-0.1-0.1-0.2-0.2-0.4-0.5c1.1-1,1.8-2.2,2.3-3.4
			l0.6,0.1c-0.2,0.4-0.4,0.7-0.6,1.1h6.3v0.6h-6.7C186.4,464.7,185.9,465.4,185.3,466.1z M185.7,471.8l0.4-3h-1.2v-0.6h1.2l0.4-3h6
			c0,1,0,2,0,3h1.2v0.6h-1.3c0,0.3,0,0.8,0,1.3c0,0.5,0,0.9,0,1.1h0.9v0.6h-1c0,1.1-0.6,1.7-1.8,1.7c-0.5,0-1,0-1.5,0
			c0-0.2-0.1-0.5-0.1-0.7c0.5,0,1,0,1.5,0c0.9,0,1.3-0.3,1.4-1H185.7z M191.8,471.2c0.1-1,0.1-1.8,0.1-2.4h-5.2l-0.3,2.4H191.8z
			 M187.1,465.9l-0.3,2.4h5.1c0-0.6,0-1.4,0-2.4H187.1z M188.3,469.7l0.4-0.4c0.5,0.3,0.9,0.7,1.4,1.1l-0.4,0.4
			C189.3,470.4,188.8,470,188.3,469.7z M188.5,466.7l0.4-0.4c0.4,0.3,0.9,0.6,1.4,1.1l-0.4,0.4C189.5,467.4,189,467,188.5,466.7z"/>
		<path style="fill:#FFFFFF;" d="M182.3,480.2c1.6-1.1,2.8-2.4,3.7-4.1l0.7,0.1c0,0-0.1,0.1-0.1,0.2c-0.1,0.1-0.1,0.2-0.1,0.2
			c0.8,0.7,1.7,1.6,2.9,2.6l-0.5,0.5c-0.7-0.8-1.6-1.6-2.6-2.6c-0.9,1.3-2,2.5-3.3,3.5c0,0-0.1-0.1-0.1-0.2
			C182.5,480.4,182.4,480.3,182.3,480.2z M183.6,480.3h4.6c0,0.8,0,1.6-0.1,2.4c-0.1,1-0.6,1.4-1.6,1.4c-0.4,0-0.8,0-1.2,0
			c0-0.1,0-0.2,0-0.3c0-0.2-0.1-0.3-0.1-0.3c0.1,0,0.3,0,0.6,0c0.3,0,0.5,0,0.7,0c0.7,0,1-0.3,1.1-0.9c0-0.2,0-0.4,0-0.8
			c0-0.4,0-0.7,0-0.9h-3.4v4.7c0,0.6,0.3,0.8,1,0.8h1.7c0.7,0,1.1-0.2,1.3-0.6c0.1-0.4,0.2-0.8,0.2-1.4c0.2,0.1,0.4,0.2,0.7,0.2
			c0,0.4-0.1,0.9-0.3,1.4c-0.2,0.7-0.7,1-1.7,1h-2c-1,0-1.5-0.4-1.5-1.4V480.3z M189.9,477.4h0.6v7.2h-0.6V477.4z M192.4,476.2h0.7
			v9.7c0,0.8-0.4,1.2-1.3,1.3c-0.5,0-1,0-1.5,0c0-0.3-0.1-0.5-0.1-0.7c0.5,0,1,0,1.5,0c0.5,0,0.8-0.2,0.8-0.7V476.2z"/>
		<path style="fill:#FFFFFF;" d="M183.1,490.6h10v10.6h-0.7v-0.6h-8.7v0.6h-0.6V490.6z M183.7,491.1v8.9h8.7v-8.9H183.7z
			 M184.5,494.8h7.2v0.6h-2.3v2.5c0,0.3,0.2,0.5,0.6,0.5h0.5c0.4,0,0.7-0.2,0.7-0.7c0-0.2,0.1-0.5,0.1-1.2c0.1,0.1,0.3,0.1,0.5,0.2
			c0,0,0.1,0,0.1,0c0,0.2-0.1,0.4-0.1,0.7c-0.1,0.3-0.1,0.4-0.1,0.6c-0.2,0.7-0.6,1-1.2,1h-0.6c-0.8,0-1.2-0.3-1.1-1v-2.5h-1.8
			c0.1,1.8-0.7,3.1-2.3,3.9c0,0-0.1-0.1-0.1-0.1c-0.1-0.2-0.2-0.3-0.3-0.4c1.5-0.7,2.3-1.9,2.2-3.4h-1.9V494.8z M185,492.6h6v0.5h-6
			V492.6z"/>
	</g>
	<g>
		<path style="fill:#FFFFFF;" d="M187.8,510.5c0.2,0,0.5-0.1,0.7-0.2c0.2-0.1,0.4-0.2,0.5-0.4c0.1-0.2,0.2-0.4,0.2-0.7
			c0-0.4-0.1-0.8-0.4-1c-0.3-0.2-0.6-0.3-1-0.3c-0.5,0-0.9,0.2-1.2,0.5c-0.3,0.3-0.4,0.8-0.4,1.3h-1.9c0-0.5,0.1-1,0.3-1.4
			c0.2-0.4,0.4-0.8,0.7-1.1c0.3-0.3,0.7-0.5,1.1-0.7c0.4-0.2,0.9-0.3,1.4-0.3c0.4,0,0.8,0.1,1.2,0.2c0.4,0.1,0.8,0.3,1.1,0.5
			c0.3,0.2,0.6,0.5,0.8,0.9c0.2,0.3,0.3,0.7,0.3,1.2c0,0.5-0.1,0.9-0.4,1.3c-0.2,0.4-0.6,0.6-1.1,0.8v0c0.6,0.1,1,0.4,1.3,0.8
			c0.3,0.4,0.5,0.9,0.5,1.5c0,0.5-0.1,1-0.3,1.4c-0.2,0.4-0.5,0.8-0.8,1c-0.3,0.3-0.7,0.5-1.2,0.6c-0.5,0.1-0.9,0.2-1.4,0.2
			c-0.6,0-1.1-0.1-1.5-0.2c-0.5-0.2-0.9-0.4-1.2-0.7c-0.3-0.3-0.6-0.7-0.8-1.1c-0.2-0.5-0.3-1-0.3-1.6h1.9c0,0.3,0.1,0.5,0.1,0.8
			c0.1,0.2,0.2,0.5,0.3,0.6c0.1,0.2,0.3,0.3,0.5,0.4c0.2,0.1,0.5,0.2,0.8,0.2c0.5,0,0.8-0.1,1.2-0.4c0.3-0.3,0.5-0.7,0.5-1.2
			c0-0.4-0.1-0.7-0.2-0.9c-0.1-0.2-0.3-0.3-0.6-0.4c-0.2-0.1-0.5-0.1-0.8-0.2c-0.3,0-0.5,0-0.8,0v-1.4
			C187.3,510.5,187.6,510.5,187.8,510.5z"/>
	</g>
	<g>
		<path style="fill:#FFFFFF;" d="M184.1,529.6l0.8-2.1h-2.5v-0.7h11.3v0.7h-8.1l-0.5,1.5h7c0,0.4-0.1,1-0.1,1.6c0,0.3,0,0.4,0,0.6
			c-0.1,1.1-0.9,1.6-2.4,1.6c-0.8,0-1.5,0-2.4,0c0-0.2-0.1-0.5-0.1-0.8c0.5,0,1.3,0,2.5,0c1.1,0.1,1.7-0.3,1.8-1.1
			c0-0.2,0.1-0.4,0.1-0.8c0-0.3,0-0.6,0-0.7H184.1z M184.2,522.3h7.7v3.2h-7.7V522.3z M184.8,523v2h6.4v-2H184.8z"/>
		<path style="fill:#FFFFFF;" d="M182.6,543.5c0-0.1-0.1-0.2-0.2-0.5c0-0.1-0.1-0.2-0.1-0.2c0.8-1.2,1.4-2.7,1.7-4.3h-1.5V538h1.5
			v-2.4h0.6v2.4h1.3v0.6h-1.3v2l0.4-0.3c0.1,0.1,0.3,0.3,0.6,0.6c0.2,0.3,0.4,0.5,0.6,0.6l-0.5,0.4c-0.1-0.1-0.3-0.3-0.5-0.6
			c-0.2-0.2-0.4-0.4-0.5-0.6v6.1h-0.6v-6.9C183.7,541.3,183.3,542.5,182.6,543.5z M185.8,546.8c-0.1-0.2-0.2-0.4-0.3-0.6
			c1.7-0.3,3-0.7,3.8-1c-0.2-0.1-0.6-0.2-1-0.4c-0.6-0.2-1-0.5-1.4-0.6c0.4-0.4,0.7-0.8,1-1.3H186v-0.6h2.3c0,0,0.1-0.1,0.1-0.2
			c0.1-0.1,0.3-0.4,0.5-0.7l0.7,0.2c-0.1,0.1-0.2,0.3-0.3,0.5c-0.1,0.1-0.2,0.2-0.2,0.2h4.5v0.6h-1.5c-0.5,1.1-1,1.8-1.5,2.2
			c0.2,0.1,0.6,0.2,1.1,0.4c0.8,0.3,1.4,0.5,1.8,0.7l-0.4,0.6c-1.3-0.6-2.3-1-3-1.3C189.1,546,187.7,546.4,185.8,546.8z
			 M186.5,541.4c-0.1-0.2-0.2-0.4-0.4-0.6c1.3-0.4,2.4-1.1,3.3-2h-2.9v-0.6h3v-2.7h0.7v2.7h3.4v0.6h-3.3c0.9,0.9,2,1.5,3.5,1.9
			c-0.1,0.1-0.3,0.3-0.4,0.6c-1.5-0.5-2.6-1.1-3.2-2v1.9h-0.7v-1.8C188.8,540.2,187.8,540.9,186.5,541.4z M186.8,536.6l0.4-0.4
			c0.3,0.3,0.8,0.7,1.4,1.3l-0.5,0.4C187.7,537.5,187.2,537,186.8,536.6z M187.7,543.9c0.7,0.3,1.4,0.6,2.1,0.8c0.5-0.4,1-1,1.5-2
			h-2.7C188.3,543.2,188.1,543.5,187.7,543.9z M190.9,537.5c0.5-0.4,1-0.9,1.5-1.4l0.5,0.4c-0.4,0.4-0.9,0.9-1.5,1.4L190.9,537.5z"
			/>
	</g>
	<g>
		<path style="fill:#FFFFFF;" d="M184.6,555.8c0.2-0.5,0.4-0.9,0.7-1.3c0.3-0.4,0.7-0.7,1.2-0.9c0.5-0.2,1-0.3,1.6-0.3
			c0.5,0,0.9,0.1,1.3,0.2c0.4,0.1,0.8,0.4,1.1,0.6c0.3,0.3,0.6,0.6,0.8,1c0.2,0.4,0.3,0.8,0.3,1.3c0,0.5-0.1,0.9-0.2,1.3
			c-0.2,0.4-0.4,0.7-0.6,1c-0.3,0.3-0.6,0.5-0.9,0.8c-0.3,0.2-0.7,0.5-1,0.7c-0.3,0.2-0.7,0.5-1,0.7c-0.3,0.3-0.6,0.6-0.9,0.9h4.8
			v1.8h-7.4c0-0.6,0.1-1.1,0.3-1.5c0.2-0.4,0.4-0.8,0.7-1.2c0.3-0.3,0.6-0.7,1-0.9c0.4-0.3,0.8-0.6,1.2-0.9c0.2-0.2,0.5-0.3,0.7-0.5
			c0.2-0.2,0.5-0.3,0.7-0.5c0.2-0.2,0.4-0.4,0.5-0.6c0.1-0.2,0.2-0.5,0.2-0.8c0-0.5-0.1-0.9-0.4-1.1c-0.3-0.3-0.6-0.4-1.1-0.4
			c-0.3,0-0.5,0.1-0.8,0.2c-0.2,0.1-0.4,0.3-0.5,0.5c-0.1,0.2-0.2,0.5-0.3,0.7c-0.1,0.3-0.1,0.5-0.1,0.8h-2
			C184.3,556.8,184.4,556.3,184.6,555.8z"/>
	</g>
	<g>
		<path style="fill:#FFFFFF;" d="M176.8,588.4c0.2-0.5,0.4-0.9,0.7-1.3c0.3-0.4,0.7-0.7,1.2-0.9c0.5-0.2,1-0.3,1.6-0.3
			c0.5,0,0.9,0.1,1.3,0.2c0.4,0.1,0.8,0.4,1.1,0.6c0.3,0.3,0.6,0.6,0.8,1c0.2,0.4,0.3,0.8,0.3,1.3c0,0.5-0.1,0.9-0.2,1.3
			c-0.2,0.4-0.4,0.7-0.6,1c-0.3,0.3-0.6,0.5-0.9,0.8c-0.3,0.2-0.7,0.5-1,0.7c-0.3,0.2-0.7,0.5-1,0.7c-0.3,0.3-0.6,0.6-0.9,0.9h4.8
			v1.8h-7.4c0-0.6,0.1-1.1,0.3-1.5c0.2-0.4,0.4-0.8,0.7-1.2c0.3-0.3,0.6-0.7,1-0.9c0.4-0.3,0.8-0.6,1.2-0.9c0.2-0.2,0.5-0.3,0.7-0.5
			c0.2-0.2,0.5-0.3,0.7-0.5c0.2-0.2,0.4-0.4,0.5-0.6c0.1-0.2,0.2-0.5,0.2-0.8c0-0.5-0.1-0.9-0.4-1.1c-0.3-0.3-0.6-0.4-1.1-0.4
			c-0.3,0-0.5,0.1-0.8,0.2c-0.2,0.1-0.4,0.3-0.5,0.5c-0.1,0.2-0.2,0.5-0.3,0.7c-0.1,0.3-0.1,0.5-0.1,0.8h-2
			C176.5,589.5,176.6,588.9,176.8,588.4z"/>
		<path style="fill:#FFFFFF;" d="M184.6,588.7c0.2-0.7,0.5-1.2,0.8-1.6c0.3-0.4,0.7-0.7,1.2-0.9c0.4-0.2,0.9-0.3,1.4-0.3
			c0.5,0,1,0.1,1.4,0.3c0.4,0.2,0.8,0.5,1.2,0.9c0.3,0.4,0.6,0.9,0.8,1.6c0.2,0.7,0.3,1.5,0.3,2.5c0,1-0.1,1.9-0.3,2.5
			c-0.2,0.7-0.5,1.2-0.8,1.6c-0.3,0.4-0.7,0.7-1.2,0.9c-0.4,0.2-0.9,0.3-1.4,0.3c-0.5,0-1-0.1-1.4-0.3c-0.4-0.2-0.8-0.5-1.2-0.9
			c-0.3-0.4-0.6-0.9-0.8-1.6c-0.2-0.7-0.3-1.5-0.3-2.5C184.3,590.2,184.4,589.4,184.6,588.7z M186.4,592.2c0,0.4,0.1,0.8,0.2,1.2
			c0.1,0.4,0.3,0.7,0.5,1c0.2,0.3,0.5,0.4,1,0.4c0.4,0,0.7-0.1,1-0.4c0.2-0.3,0.4-0.6,0.5-1c0.1-0.4,0.2-0.8,0.2-1.2
			c0-0.4,0-0.8,0-1c0-0.2,0-0.4,0-0.6c0-0.2,0-0.5-0.1-0.8c0-0.3-0.1-0.5-0.1-0.8c-0.1-0.3-0.2-0.5-0.3-0.7
			c-0.1-0.2-0.3-0.4-0.5-0.5c-0.2-0.1-0.4-0.2-0.7-0.2c-0.3,0-0.5,0.1-0.7,0.2c-0.2,0.1-0.3,0.3-0.5,0.5c-0.1,0.2-0.2,0.4-0.3,0.7
			c-0.1,0.3-0.1,0.5-0.1,0.8c0,0.3,0,0.5-0.1,0.8c0,0.2,0,0.5,0,0.6C186.4,591.4,186.4,591.8,186.4,592.2z"/>
		<path style="fill:#FFFFFF;" d="M195.6,596.2v-6.5h-2.5v-1.5c0.4,0,0.7,0,1-0.1c0.3-0.1,0.6-0.2,0.9-0.3c0.3-0.2,0.5-0.4,0.7-0.6
			c0.2-0.3,0.3-0.6,0.4-1h1.6v10.1H195.6z"/>
	</g>
	<g>
		<path style="fill:#FFFFFF;" d="M192.6,606.3c-2.3-1-4-2.3-5.1-3.8c-1.4,1.6-3.2,2.9-5.3,4c-0.1-0.2-0.3-0.4-0.5-0.6
			c2.5-1.2,4.4-2.6,5.8-4.4l0.8,0.1c-0.1,0.1-0.2,0.3-0.3,0.4c1.1,1.5,2.9,2.7,5.2,3.7C193,605.8,192.8,606,192.6,606.3z
			 M191.4,612.8c-0.1-0.1-0.2-0.2-0.4-0.4c-0.2-0.2-0.3-0.3-0.3-0.4c-2.5,0.1-4.6,0.2-6.1,0.3c-0.1,0-0.2,0-0.3,0
			c-0.3,0-0.5,0.1-0.7,0.1l-0.4-0.7c0.2-0.1,0.5-0.3,0.8-0.5c0.8-0.7,1.6-1.5,2.3-2.4h-4.1v-0.7h10.5v0.7h-5.5c-0.8,1-1.8,2-2.8,2.9
			c2-0.1,3.9-0.2,5.7-0.2c-0.1-0.1-0.2-0.2-0.4-0.4c-0.2-0.1-0.5-0.4-0.9-0.9l0.5-0.4c1.2,1.2,2.2,2,2.8,2.6L191.4,612.8z
			 M184.3,605.8h6.2v0.6h-6.2V605.8z"/>
		<path style="fill:#FFFFFF;" d="M183.8,624.5c0.7-0.5,1.3-1,1.7-1.4c0,0.1,0.1,0.3,0.1,0.5c0,0.1,0,0.2,0,0.2
			c-0.6,0.4-1.2,0.9-1.9,1.5c-0.2,0.1-0.3,0.2-0.5,0.4l-0.5-0.4c0.2-0.2,0.3-0.6,0.3-1v-4.4h-1.4v-0.6h2.1V624.5z M184,618
			c-0.3-0.3-0.7-0.8-1.1-1.4c-0.2-0.2-0.3-0.4-0.4-0.5l0.5-0.4c0.2,0.2,0.4,0.4,0.7,0.7c0.4,0.5,0.7,0.8,1,1.1L184,618z M184.4,626
			c1.6-0.8,2.9-1.7,4-2.8c-1.5-1.7-2.5-4.1-2.8-6.9l0.6-0.1c0.3,2.8,1.2,4.9,2.7,6.6c1.4-1.6,2.3-3.8,2.7-6.6l0.7,0.1
			c-0.5,3-1.4,5.3-2.9,6.9c1,1,2.3,1.9,3.8,2.6c0,0-0.1,0.1-0.1,0.1c-0.1,0.1-0.2,0.3-0.4,0.6c-1.7-0.9-3-1.8-3.8-2.7
			c-0.8,0.9-2.1,1.8-3.9,2.9C184.7,626.4,184.6,626.2,184.4,626z M187.8,615.8l0.5-0.3c0.6,1,1.1,1.8,1.5,2.4l-0.6,0.3
			C188.7,617.4,188.3,616.6,187.8,615.8z"/>
		<path style="fill:#FFFFFF;" d="M191.5,636.4c-0.3-0.3-0.6-0.5-0.8-0.8c-0.3,0-0.8,0-1.4,0c-0.7,0-1.2,0-1.5,0v1.6h4.3v0.6h-4.3
			v1.5h5.4v0.6h-11.3v-0.6h5.3v-1.5h-4.2v-0.6h4.2v-1.6c-0.3,0-0.7,0-1.2,0c-0.6,0-1,0-1.3,0c-0.1,0-0.3,0-0.6,0c-0.2,0-0.4,0-0.5,0
			l-0.3-0.6c0.3-0.1,0.6-0.3,0.8-0.4c0.6-0.4,1.2-0.9,1.9-1.5h-2.3v-0.6h8v0.6h-4.7c-0.7,0.6-1.5,1.2-2.5,1.9c0.6,0,1.6-0.1,3-0.1
			c1.2-0.1,2.2-0.1,2.8-0.1c-0.4-0.3-0.8-0.7-1.1-1l0.4-0.4c1,0.8,1.9,1.5,2.6,2.2L191.5,636.4z M186.8,629.5l0.6-0.3
			c0.3,0.4,0.5,0.9,0.8,1.4l-0.4,0.2h5v1.9H192v-1.3h-9.2v1.3h-0.6v-1.9h5.2C187.2,630.2,187,629.8,186.8,629.5z"/>
	</g>
	<g>
		<path style="fill:#FFFFFF;" d="M182.6,576.5c0-0.1-0.1-0.2-0.2-0.5c0-0.1-0.1-0.2-0.1-0.2c0.8-1.2,1.4-2.7,1.7-4.3h-1.5V571h1.5
			v-2.4h0.6v2.4h1.3v0.6h-1.3v2l0.4-0.3c0.1,0.1,0.3,0.3,0.6,0.6c0.2,0.3,0.4,0.5,0.6,0.6l-0.5,0.4c-0.1-0.1-0.3-0.3-0.5-0.6
			c-0.2-0.2-0.4-0.4-0.5-0.6v6.1h-0.6v-6.9C183.7,574.3,183.3,575.5,182.6,576.5z M185.8,579.8c-0.1-0.2-0.2-0.4-0.3-0.6
			c1.7-0.3,3-0.7,3.8-1c-0.2-0.1-0.6-0.2-1-0.4c-0.6-0.2-1-0.5-1.4-0.6c0.4-0.4,0.7-0.8,1-1.3H186v-0.6h2.3c0,0,0.1-0.1,0.1-0.2
			c0.1-0.1,0.3-0.4,0.5-0.7l0.7,0.2c-0.1,0.1-0.2,0.3-0.3,0.5c-0.1,0.1-0.2,0.2-0.2,0.2h4.5v0.6h-1.5c-0.5,1.1-1,1.8-1.5,2.2
			c0.2,0.1,0.6,0.2,1.1,0.4c0.8,0.3,1.4,0.5,1.8,0.7l-0.4,0.6c-1.3-0.6-2.3-1-3-1.3C189.1,579,187.7,579.4,185.8,579.8z
			 M186.5,574.4c-0.1-0.2-0.2-0.4-0.4-0.6c1.3-0.4,2.4-1.1,3.3-2h-2.9v-0.6h3v-2.7h0.7v2.7h3.4v0.6h-3.3c0.9,0.9,2,1.5,3.5,1.9
			c-0.1,0.1-0.3,0.3-0.4,0.6c-1.5-0.5-2.6-1.1-3.2-2v1.9h-0.7v-1.8C188.8,573.2,187.8,573.9,186.5,574.4z M186.8,569.6l0.4-0.4
			c0.3,0.3,0.8,0.7,1.4,1.3l-0.5,0.4C187.7,570.5,187.2,570,186.8,569.6z M187.7,576.9c0.7,0.3,1.4,0.6,2.1,0.8c0.5-0.4,1-1,1.5-2
			h-2.7C188.3,576.2,188.1,576.5,187.7,576.9z M190.9,570.5c0.5-0.4,1-0.9,1.5-1.4l0.5,0.4c-0.4,0.4-0.9,0.9-1.5,1.4L190.9,570.5z"
			/>
	</g>
</g>
</svg>
